<svg xmlns="http://www.w3.org/2000/svg" height="238.0pt" version="1.1" width="1000.0pt" viewBox="0 0 1000 238" fill-rule="evenodd">
	<path d="M 760.26 11.69 C 757.71 17.67 753.03 22.14 748.13 26.21 C 743.95 30.27 740.58 36.64 735.04 40.06 C 730.50 42.75 726.87 46.60 722.47 49.44 C 719.22 51.19 716.00 53.00 712.80 54.85 C 709.05 56.98 705.18 57.51 701.04 58.37 C 698.60 58.86 696.46 60.61 694.06 61.34 C 690.30 62.00 686.69 61.14 682.91 61.74 C 678.64 62.22 675.10 63.65 670.90 61.70 C 667.92 62.65 665.01 63.29 661.88 63.57 C 656.95 64.08 652.87 66.42 648.03 67.38 C 642.31 68.59 637.96 73.14 633.56 76.52 C 629.41 76.49 627.87 78.39 625.11 81.10 C 615.89 86.94 610.43 95.89 601.28 101.57 C 599.02 103.26 597.33 105.52 594.91 107.07 C 593.66 107.72 594.36 109.99 594.22 111.15 C 595.22 109.67 596.21 108.19 597.24 106.73 C 598.13 109.74 596.62 111.90 595.88 114.77 C 597.18 113.80 598.50 112.85 599.84 111.91 C 599.87 115.18 597.25 117.24 597.61 120.65 C 599.32 119.96 600.95 119.18 602.56 118.29 C 602.60 118.87 602.64 119.46 602.68 120.05 C 599.70 121.46 599.87 123.13 599.63 126.11 C 600.55 126.26 601.47 126.40 602.40 126.54 C 601.37 127.69 600.55 128.95 599.94 130.31 C 600.98 130.66 602.03 131.00 603.07 131.35 C 602.28 131.86 601.49 132.37 600.70 132.88 C 600.54 133.98 600.39 135.09 600.24 136.19 C 601.39 136.50 602.54 136.81 603.69 137.12 C 602.48 137.72 601.28 138.31 600.07 138.90 L 602.17 140.93 C 601.11 141.17 600.05 141.40 598.98 141.61 C 600.54 145.20 602.03 148.82 603.59 152.42 C 602.78 152.57 601.97 152.72 601.17 152.86 C 600.40 151.61 599.65 150.34 598.93 149.06 C 598.54 150.32 597.92 151.39 597.06 152.26 C 596.35 150.23 595.67 148.18 594.99 146.14 C 594.17 146.24 593.35 146.34 592.53 146.44 C 592.82 149.25 593.62 152.19 593.37 154.99 C 593.34 156.94 592.72 158.56 593.70 160.33 C 593.92 158.04 593.86 155.75 593.82 153.45 C 595.22 153.79 596.62 154.14 598.02 154.48 C 597.02 159.60 595.39 164.43 593.31 169.21 C 591.80 172.65 591.50 176.60 589.70 179.78 C 588.80 181.35 587.03 182.08 585.59 183.06 C 585.34 181.89 585.09 180.73 584.84 179.57 C 582.42 179.33 580.79 178.67 579.02 177.00 C 573.55 172.21 571.69 165.04 569.34 158.44 C 568.84 158.42 568.33 158.41 567.83 158.39 C 565.97 160.68 563.93 162.61 562.84 165.42 C 562.13 165.52 561.42 165.63 560.71 165.73 C 561.85 163.29 563.51 161.30 565.27 159.29 L 561.95 159.72 L 563.68 155.93 L 559.07 158.20 C 560.97 155.17 562.20 155.38 565.52 155.08 C 564.74 154.32 563.91 153.65 563.02 153.06 C 560.54 154.71 558.40 156.51 555.41 157.20 C 555.20 158.47 554.98 159.73 554.76 160.99 C 556.03 159.85 557.30 158.71 558.65 157.67 C 558.02 159.69 557.92 162.96 556.00 164.17 C 555.59 163.31 555.19 162.45 554.82 161.58 C 553.95 162.17 553.08 162.76 552.21 163.34 C 552.72 161.43 553.27 159.53 553.79 157.62 C 552.84 158.37 551.89 159.13 550.95 159.88 C 550.28 159.39 549.61 158.89 548.95 158.40 C 548.60 160.79 547.98 163.10 547.29 165.41 C 546.60 165.41 545.91 165.41 545.22 165.40 C 545.79 163.19 546.67 161.14 547.69 159.10 C 542.65 159.72 542.18 163.65 540.72 167.60 C 539.89 167.40 539.06 167.16 538.23 166.90 C 538.91 165.39 539.61 163.90 540.33 162.41 C 540.40 161.62 540.49 160.84 540.59 160.05 C 542.47 159.11 544.43 158.29 546.34 157.40 C 545.30 157.35 544.26 157.29 543.22 157.24 C 541.19 158.28 539.11 159.17 536.97 159.94 L 539.61 160.84 C 539.06 162.02 537.48 162.64 536.49 163.48 C 535.53 165.27 534.90 167.24 534.02 169.07 C 532.42 167.15 532.95 165.86 533.30 163.68 C 532.75 163.66 532.20 163.65 531.65 163.63 C 531.04 165.45 530.44 167.28 529.85 169.11 C 529.13 168.17 528.42 167.23 527.70 166.28 C 528.18 165.18 528.64 164.08 529.09 162.98 C 527.69 163.57 526.21 164.15 524.93 164.97 C 523.89 166.02 523.32 167.64 522.74 168.98 C 521.81 171.38 522.87 173.65 521.25 175.71 C 518.43 176.22 519.87 171.46 519.28 169.91 C 518.41 171.22 517.67 172.54 517.03 173.97 C 516.48 173.84 515.93 173.72 515.37 173.59 C 512.46 176.22 508.75 176.32 506.38 179.71 C 508.39 184.46 510.86 188.46 510.22 193.87 C 512.27 197.72 512.64 201.82 512.91 206.09 C 517.35 209.45 517.84 214.66 517.55 219.83 C 517.02 222.55 516.32 224.01 513.38 224.66 C 514.15 221.67 514.77 218.74 514.86 215.64 C 512.27 220.82 509.95 226.66 506.05 231.00 L 504.73 228.78 C 506.89 224.74 510.56 221.65 512.29 217.22 C 512.72 215.60 512.50 213.78 512.52 212.12 C 512.03 212.33 511.54 212.54 511.05 212.75 C 509.77 216.88 506.76 220.13 505.02 224.11 C 504.40 224.19 503.79 224.27 503.18 224.35 C 503.42 221.16 505.30 219.12 506.43 216.20 C 507.15 214.38 507.96 213.20 509.41 211.87 C 509.61 210.41 509.69 208.97 509.67 207.50 C 508.64 207.48 507.61 207.45 506.58 207.43 C 504.80 209.12 504.00 211.08 503.18 213.35 C 502.51 213.44 501.84 213.53 501.17 213.61 C 501.64 211.68 502.12 209.75 502.59 207.82 C 504.51 206.39 506.46 205.18 508.62 204.15 C 508.39 199.54 506.28 195.50 505.94 190.91 C 505.25 185.71 502.83 181.46 500.25 177.02 C 502.34 174.24 505.59 171.72 508.67 170.09 C 508.51 169.74 508.35 169.40 508.19 169.06 C 506.81 169.38 505.43 169.68 504.05 169.97 L 504.06 168.49 C 505.05 168.46 506.05 168.43 507.04 168.40 C 508.69 166.01 510.14 163.98 512.99 162.94 C 513.65 162.20 514.30 161.47 514.96 160.74 C 516.54 160.52 518.01 160.50 519.36 159.55 C 516.26 159.39 513.72 160.67 510.82 161.48 L 509.81 159.82 C 508.05 159.88 506.33 160.08 504.60 160.43 C 506.41 160.67 508.07 160.58 509.56 161.81 C 509.69 164.82 504.96 165.23 502.87 166.54 C 501.69 170.08 500.36 170.84 497.09 172.31 C 497.71 170.95 498.37 169.60 499.04 168.26 C 500.72 166.51 502.02 164.55 503.19 162.43 C 500.30 162.29 497.42 162.37 494.53 162.47 C 494.07 162.02 493.62 161.56 493.16 161.11 C 491.94 163.65 491.13 163.95 488.54 164.79 C 488.20 168.41 488.34 171.74 485.29 174.25 C 484.83 173.18 484.37 172.10 483.92 171.02 C 484.48 170.66 485.04 170.30 485.61 169.94 C 485.57 168.37 485.56 166.80 485.58 165.23 C 486.48 164.24 487.35 163.23 488.15 162.17 C 485.86 163.97 485.02 165.16 484.36 168.02 C 483.89 171.47 480.84 171.10 478.28 172.46 C 478.28 175.59 479.44 177.39 480.93 179.97 C 481.23 186.40 483.05 192.39 483.69 198.76 C 484.53 201.92 486.54 204.76 487.31 207.94 C 487.67 211.17 487.83 214.75 486.85 217.88 C 485.59 220.97 483.00 223.65 480.74 226.05 L 480.29 224.03 C 483.20 219.12 485.78 213.62 484.20 207.79 C 482.12 211.63 482.62 215.66 480.23 219.33 C 478.52 221.64 475.68 223.29 473.33 224.91 C 473.35 223.88 473.37 222.84 473.40 221.81 C 475.00 221.04 476.87 220.34 478.22 219.17 C 480.16 216.33 479.75 211.84 479.75 208.55 C 477.82 210.61 477.72 213.95 476.41 216.45 C 474.97 220.27 470.50 222.23 466.73 222.87 C 466.74 222.21 466.75 221.56 466.76 220.90 C 469.12 219.41 472.34 218.25 474.10 216.05 C 475.76 212.59 476.71 208.94 476.91 205.11 C 475.81 204.93 474.63 204.55 473.50 204.64 C 472.41 205.12 471.56 206.17 470.67 206.95 C 470.61 208.84 471.38 211.40 469.78 212.80 C 467.52 212.81 467.01 209.79 467.07 208.04 C 468.91 204.83 471.76 202.31 474.84 200.30 C 475.80 200.77 476.77 201.23 477.73 201.70 C 478.06 200.87 478.39 200.04 478.64 199.19 C 477.62 197.62 475.99 196.34 475.58 194.55 C 473.99 188.45 473.87 182.17 472.55 175.97 C 471.65 172.50 473.89 169.73 474.17 166.04 C 472.75 167.30 471.32 168.55 469.84 169.75 C 470.52 167.42 471.69 165.37 472.80 163.24 C 470.04 163.93 468.90 166.54 465.99 166.87 C 467.54 164.12 469.86 162.23 472.09 160.08 C 473.85 158.44 474.76 155.95 475.79 153.80 C 476.50 153.73 477.20 153.66 477.91 153.58 C 479.96 152.04 482.16 150.65 484.11 148.97 C 483.50 146.99 480.23 147.61 478.58 147.20 C 475.15 152.55 469.70 153.68 465.13 158.14 C 460.89 162.43 455.65 164.02 450.16 166.04 C 445.20 167.24 440.93 171.87 439.41 176.65 C 436.97 177.90 434.52 179.13 432.13 180.47 C 432.52 181.69 432.92 182.91 433.34 184.12 C 431.46 191.05 426.03 196.99 421.09 202.03 C 419.48 203.80 417.39 204.14 415.51 202.48 C 417.58 199.92 419.45 197.26 420.83 194.26 C 417.13 194.56 415.03 199.19 412.28 201.45 C 410.32 201.43 408.35 201.43 406.39 201.41 C 406.81 194.83 412.29 194.16 415.65 189.62 C 418.83 185.55 423.13 182.74 426.17 178.56 C 425.26 178.50 424.35 178.45 423.44 178.39 C 419.33 181.67 415.68 185.23 411.08 187.87 C 406.24 192.17 400.86 191.34 394.99 193.22 C 392.87 193.90 391.74 193.68 389.75 192.78 C 388.96 193.08 388.17 193.39 387.38 193.71 C 387.04 192.95 386.71 192.19 386.37 191.43 C 384.38 192.71 382.37 193.63 380.14 194.40 C 378.33 194.24 376.52 194.14 374.71 194.01 C 377.00 189.85 382.38 187.91 385.67 184.46 C 384.85 183.78 384.02 183.10 383.20 182.41 C 380.04 184.48 376.76 186.32 373.70 188.53 C 372.98 186.05 373.06 186.03 374.97 184.34 C 373.42 185.03 371.30 185.33 370.11 186.57 C 370.98 187.35 371.90 188.07 372.81 188.79 C 369.10 190.89 365.85 194.25 361.93 195.86 C 359.59 196.14 357.10 195.65 354.77 195.39 C 357.83 193.65 363.49 190.54 363.20 186.43 C 361.12 186.07 359.40 185.00 357.34 185.95 C 352.56 187.89 347.77 189.73 342.77 191.03 C 343.59 187.28 346.71 186.57 348.83 183.69 C 358.16 179.20 368.28 176.38 377.48 171.52 C 381.55 169.31 385.83 168.10 390.06 166.26 C 392.78 165.08 395.47 163.85 398.29 162.89 C 398.56 163.94 398.97 164.93 399.52 165.84 C 399.34 164.90 399.15 163.96 398.96 163.02 C 403.05 161.63 406.79 159.42 410.79 157.77 C 413.34 156.71 414.97 154.77 417.00 153.03 C 421.80 150.23 427.36 150.53 431.99 146.99 C 435.64 144.22 439.81 141.89 443.05 138.66 C 439.47 138.53 436.56 137.64 433.68 140.32 C 433.22 139.80 432.76 139.28 432.30 138.76 C 434.95 137.58 437.67 136.60 440.36 135.52 C 436.25 135.28 432.87 135.54 428.99 136.93 C 429.19 136.26 429.39 135.59 429.60 134.92 C 430.95 134.60 432.21 134.24 433.42 133.54 C 431.87 133.59 430.32 133.71 428.78 133.87 L 428.57 132.30 C 427.23 132.50 425.89 132.68 424.55 132.85 C 425.68 131.45 426.93 130.15 428.21 128.88 C 426.20 129.48 424.15 130.36 422.05 130.58 C 420.57 130.26 419.14 129.79 417.68 129.37 C 417.26 127.75 416.19 126.84 415.07 125.71 C 415.88 125.49 416.69 125.27 417.50 125.05 C 417.85 124.27 418.20 123.49 418.55 122.71 C 420.05 122.56 421.54 122.42 423.04 122.28 C 421.97 125.29 422.24 125.35 419.17 125.78 L 419.61 126.62 C 421.04 125.96 422.48 125.30 423.92 124.65 L 423.26 126.94 C 426.33 126.58 429.34 125.98 432.36 125.32 C 431.75 126.24 431.13 127.15 430.51 128.07 C 431.74 127.21 432.97 126.34 434.17 125.43 C 435.82 125.60 437.46 125.80 439.09 126.08 C 443.74 125.04 448.49 124.11 453.02 122.59 C 451.09 121.50 449.27 120.53 447.01 120.36 C 445.89 121.19 444.96 122.07 443.58 122.43 C 439.58 123.47 435.15 124.77 431.01 124.47 C 428.39 124.42 426.24 123.69 424.03 125.67 C 424.21 124.38 424.37 123.09 424.54 121.81 C 423.24 121.28 420.81 121.14 420.08 119.87 C 420.03 118.00 421.46 117.98 422.94 117.77 C 427.48 117.52 431.85 117.91 436.30 116.63 C 436.85 115.67 437.45 114.74 438.08 113.84 C 441.26 113.10 444.15 113.70 447.07 112.03 C 445.70 111.56 444.33 111.10 442.96 110.65 C 440.85 111.86 438.74 113.05 436.58 114.18 C 435.97 112.87 435.54 111.72 435.48 110.24 L 433.80 110.40 C 434.45 111.69 435.12 112.97 435.80 114.25 C 431.45 114.28 427.43 114.97 423.23 116.03 C 419.51 116.96 415.90 115.67 412.12 116.43 C 412.27 117.01 412.43 117.58 412.58 118.16 C 414.41 118.31 416.23 118.49 418.05 118.75 C 416.00 119.82 413.91 120.77 411.82 121.73 C 411.04 121.12 410.25 120.51 409.47 119.90 C 406.67 120.04 404.65 119.10 402.10 118.20 C 398.49 118.24 395.56 119.96 391.90 118.99 C 397.28 116.02 403.51 115.78 408.83 112.46 C 403.63 112.78 398.19 113.11 393.15 114.43 L 393.69 111.99 C 396.18 110.96 399.65 108.97 401.94 111.41 C 402.72 111.24 403.51 111.08 404.29 110.91 C 402.42 110.34 400.90 109.68 399.36 108.49 C 394.72 108.81 390.95 111.51 386.30 111.94 C 386.34 111.21 386.37 110.48 386.41 109.75 C 388.52 108.51 392.25 107.90 393.13 105.42 C 388.24 105.90 383.73 107.37 378.85 108.36 C 372.65 109.52 367.02 112.40 360.78 113.48 C 357.88 115.37 354.68 116.43 351.53 117.79 C 349.35 118.80 347.35 120.89 344.89 120.61 C 343.88 120.19 342.96 119.56 342.13 118.71 C 343.71 115.46 349.32 115.60 352.19 113.42 C 347.19 113.27 342.95 115.44 337.99 115.47 C 335.98 115.38 334.02 114.54 332.01 114.29 C 327.31 114.99 323.31 116.90 319.09 118.91 C 314.89 120.45 312.29 123.30 307.50 122.58 C 307.56 121.97 307.62 121.35 307.67 120.74 C 309.70 119.84 311.74 118.95 313.77 118.07 C 314.65 116.34 315.53 114.88 317.05 113.64 C 312.21 113.68 308.48 115.89 304.38 118.15 C 297.89 121.07 291.44 124.12 284.89 126.93 C 283.54 127.40 282.22 128.29 280.99 127.02 C 280.06 126.22 280.30 124.72 280.14 123.59 C 285.42 120.52 291.02 118.11 296.35 115.13 C 297.16 115.78 297.98 116.43 298.79 117.07 C 298.14 116.41 297.49 115.74 296.83 115.08 C 297.85 114.30 298.86 113.51 299.87 112.73 C 295.54 112.69 291.08 114.36 286.82 115.23 C 282.68 115.95 279.03 117.93 274.98 118.90 C 270.19 120.10 265.50 120.81 260.96 122.89 C 256.43 124.96 252.08 126.69 246.99 126.67 C 245.20 126.60 243.59 124.79 242.19 123.77 C 246.39 123.65 249.09 121.20 252.79 119.73 C 256.93 117.94 261.43 118.63 265.52 116.53 C 275.21 113.25 284.72 109.83 294.46 106.66 C 301.88 103.70 309.39 101.00 316.97 98.47 C 316.79 99.33 316.60 100.19 316.41 101.05 C 318.77 100.25 321.11 99.48 323.34 98.36 C 321.39 98.74 319.64 99.41 317.61 99.17 C 318.09 98.34 318.71 97.82 319.49 97.62 C 327.36 95.32 335.13 92.67 342.83 89.84 C 349.41 86.81 356.31 84.86 363.23 82.75 C 372.38 81.03 380.94 77.35 390.13 76.07 C 398.70 74.17 407.28 74.17 416.00 74.24 C 418.79 74.29 421.35 74.15 424.04 75.02 C 430.67 77.00 437.34 79.30 443.45 82.57 C 446.30 84.13 449.92 83.96 452.77 85.29 C 455.76 87.21 458.72 88.45 460.03 92.02 C 461.67 92.76 463.33 93.47 464.98 94.18 C 465.68 93.04 466.39 91.90 467.11 90.76 C 467.59 92.22 468.06 93.67 468.52 95.13 L 469.95 93.23 C 470.69 94.99 471.44 96.69 472.62 98.20 C 473.34 96.80 474.07 95.42 474.84 94.05 C 475.77 97.04 476.60 100.03 477.85 102.92 C 479.63 102.56 481.30 102.01 482.98 101.34 C 482.79 99.81 482.27 98.52 482.99 97.04 C 485.02 97.87 484.74 100.40 485.55 102.16 L 486.99 99.88 C 488.20 98.02 490.44 101.90 491.24 102.64 C 491.85 102.09 492.47 101.56 493.10 101.03 C 494.64 101.63 495.80 103.19 496.96 104.34 C 497.79 104.36 498.62 104.38 499.44 104.40 C 499.35 103.36 499.25 102.31 499.16 101.27 C 499.86 101.33 500.56 101.38 501.25 101.44 C 501.71 102.47 502.16 103.51 502.61 104.54 C 504.70 105.23 506.68 105.67 508.87 105.86 C 508.27 104.23 507.65 102.60 507.07 100.96 C 510.27 101.16 510.27 102.91 511.60 105.33 C 512.65 105.73 513.71 106.13 514.76 106.52 C 514.64 104.71 514.50 102.89 514.38 101.07 C 517.41 101.63 518.22 102.88 519.13 105.61 C 520.35 105.70 521.56 105.79 522.78 105.88 C 522.62 104.40 522.47 102.92 522.33 101.44 C 523.08 101.42 523.84 101.40 524.60 101.38 C 525.02 102.63 525.44 103.89 525.86 105.14 C 526.36 105.66 526.87 106.18 527.37 106.70 C 528.50 106.52 529.63 106.34 530.75 106.16 C 530.37 104.73 529.98 103.31 529.58 101.90 C 530.09 101.43 530.61 100.96 531.13 100.50 C 532.18 102.19 532.98 103.94 533.68 105.80 C 535.51 104.84 536.47 104.35 537.23 102.24 C 538.15 102.99 539.07 103.73 539.98 104.49 C 541.45 104.20 542.28 104.06 543.30 102.86 C 545.05 102.57 546.75 102.37 548.32 101.47 C 545.22 101.63 542.49 101.62 539.53 100.54 C 540.75 99.12 542.10 97.80 543.25 96.32 C 544.15 95.06 544.10 93.26 544.91 91.94 C 545.69 90.94 546.62 90.04 547.50 89.14 C 546.55 88.42 545.70 87.62 544.95 86.73 C 546.85 86.41 548.73 86.20 550.64 86.06 C 550.81 85.59 550.99 85.12 551.16 84.65 C 549.74 84.51 548.33 84.34 546.92 84.16 C 550.76 81.19 556.09 80.01 560.76 79.06 C 559.41 76.63 557.43 77.59 555.02 77.12 C 555.94 76.21 556.86 75.31 557.78 74.42 C 559.94 74.39 562.33 74.73 564.43 74.25 C 565.74 73.45 566.86 72.27 567.97 71.21 C 565.79 71.57 563.65 72.09 561.50 72.56 C 561.91 71.66 562.32 70.75 562.74 69.85 C 567.06 68.42 570.01 67.96 574.45 69.37 C 575.01 67.77 575.56 66.17 576.11 64.56 C 574.29 65.46 572.47 66.27 570.48 66.75 C 570.44 66.03 570.39 65.31 570.34 64.59 C 573.21 63.53 576.14 62.65 579.14 62.05 C 580.37 60.69 581.61 59.34 582.86 58.00 C 586.32 58.20 589.62 59.03 593.00 59.71 C 595.58 59.87 599.10 59.47 600.22 56.74 C 598.39 56.59 596.55 56.46 594.71 56.35 C 594.58 55.40 594.45 54.45 594.32 53.50 C 596.16 53.37 598.18 53.04 600.01 53.41 C 601.71 54.07 603.14 55.56 604.55 56.70 C 607.99 57.02 610.03 55.21 613.00 53.99 C 615.90 53.45 618.27 53.35 620.71 51.51 C 618.80 49.26 619.62 49.39 620.86 47.06 C 622.38 48.42 623.82 49.83 625.19 51.34 C 628.82 50.90 631.71 49.37 634.89 47.72 C 636.62 47.71 638.29 48.11 640.02 48.21 C 649.18 45.33 656.05 39.72 663.02 33.39 C 662.23 38.06 656.92 41.83 653.85 45.25 C 651.83 46.06 649.78 46.81 647.76 47.60 C 652.69 46.75 658.43 44.65 661.54 40.51 C 662.83 39.17 663.61 37.68 665.60 37.36 C 666.02 39.59 663.01 41.70 661.96 43.52 C 665.07 41.47 667.52 38.79 669.98 36.03 C 670.67 36.40 671.36 36.77 672.04 37.14 C 669.92 40.06 667.24 42.35 664.79 44.95 L 665.31 46.97 C 667.49 44.63 669.71 42.49 672.54 40.92 C 672.54 42.38 672.17 43.79 671.42 45.17 C 674.78 42.38 678.68 41.42 682.73 40.09 L 682.82 42.09 C 681.55 42.56 680.52 42.93 679.62 44.02 C 684.86 42.59 687.93 39.08 692.56 36.57 C 695.38 35.02 697.90 33.06 700.43 31.09 C 702.03 34.40 697.61 35.70 696.08 37.95 C 695.68 39.55 695.56 41.23 695.28 42.86 C 697.44 40.38 699.82 38.41 701.06 35.26 C 704.17 32.99 707.98 32.42 710.79 29.56 C 713.00 27.58 713.86 27.03 716.96 27.20 C 715.72 30.35 713.96 33.35 712.19 36.22 C 709.66 36.63 708.51 38.42 706.84 40.12 C 710.22 38.85 713.69 37.91 717.11 36.82 C 719.69 35.27 722.47 33.75 724.82 31.88 C 728.29 27.57 731.78 23.41 736.16 19.96 L 738.75 19.30 C 737.70 25.03 731.20 27.64 730.13 32.92 C 733.47 29.10 737.34 26.28 741.48 23.40 C 742.83 21.18 744.03 19.46 746.48 18.35 C 748.59 17.42 749.47 15.69 750.67 13.86 C 751.83 13.15 752.99 12.43 754.15 11.72 C 756.66 10.41 757.75 9.55 760.26 11.69 Z M 713.95 43.54 C 711.21 45.22 708.59 47.07 705.89 48.81 C 703.18 50.57 699.44 51.01 696.30 51.70 L 696.32 50.50 C 697.64 50.48 698.95 50.47 700.27 50.45 C 702.58 49.07 704.88 47.67 707.01 46.02 C 709.05 44.32 711.45 44.18 713.95 43.54 Z M 686.65 47.47 C 687.69 47.39 688.72 47.31 689.76 47.25 C 687.13 48.90 684.29 50.06 681.32 50.93 C 681.41 51.96 681.50 53.00 681.60 54.04 C 679.18 54.81 676.81 55.57 674.24 55.58 C 674.18 56.25 674.12 56.93 674.06 57.61 L 676.69 57.43 C 675.19 57.86 673.68 58.27 672.18 58.68 C 672.69 57.55 673.19 56.42 673.68 55.28 C 675.58 54.70 677.50 54.30 679.46 53.97 C 678.42 53.34 677.39 52.72 676.35 52.10 C 679.80 50.64 683.37 49.27 686.65 47.47 Z M 669.97 49.62 C 667.50 50.97 664.92 52.09 662.47 53.49 C 659.61 55.24 656.72 56.21 654.93 59.27 C 653.56 59.34 652.19 59.40 650.82 59.45 C 649.91 58.34 648.99 57.24 648.07 56.14 C 645.53 57.24 643.28 58.52 641.34 60.53 C 639.81 60.97 638.26 61.38 636.71 61.74 C 636.18 62.77 635.34 63.83 635.22 64.99 C 635.61 66.08 636.15 67.08 636.68 68.11 C 635.21 68.79 633.74 69.49 632.29 70.20 C 632.35 67.93 631.92 66.23 630.63 64.38 C 629.78 64.47 629.06 64.81 628.44 65.40 C 628.33 67.22 629.56 67.81 630.65 69.06 C 625.92 71.36 621.92 74.57 617.88 77.87 C 616.70 78.85 615.55 79.40 614.09 79.80 C 614.80 78.94 615.53 78.11 616.27 77.28 C 616.55 76.03 616.83 74.78 617.13 73.53 C 619.26 73.22 621.39 72.88 623.52 72.56 C 623.82 70.94 623.91 69.42 623.79 67.77 C 622.22 68.39 620.66 69.01 619.11 69.67 C 616.78 71.86 613.99 72.16 611.04 72.94 C 611.42 71.75 611.79 70.57 612.17 69.38 C 611.29 69.85 610.41 70.31 609.54 70.78 C 608.96 69.55 608.41 68.35 607.72 67.18 C 605.52 67.37 606.66 69.52 606.39 71.05 C 604.19 70.73 599.05 68.82 598.91 72.50 C 601.10 72.55 603.36 72.40 605.54 72.71 C 606.32 73.61 606.95 74.64 607.62 75.62 C 609.65 75.46 611.66 75.35 613.69 75.43 C 613.31 76.44 612.93 77.46 612.54 78.47 C 610.28 77.55 609.57 77.03 607.42 78.99 C 609.23 79.96 611.04 80.91 612.84 81.89 C 611.90 82.60 610.97 83.30 610.03 84.01 C 608.80 83.55 607.56 83.10 606.32 82.65 C 606.01 81.78 605.70 80.90 605.38 80.03 C 603.38 81.94 600.89 82.39 601.16 85.63 C 602.14 85.19 603.12 84.74 604.10 84.28 C 605.64 85.15 606.72 86.30 607.34 87.74 C 603.82 87.94 600.28 87.41 596.78 87.67 C 596.44 88.30 596.13 88.94 595.83 89.59 C 598.06 89.60 600.29 89.58 602.52 89.65 C 601.61 91.11 600.65 92.39 599.39 93.58 C 597.20 92.70 594.97 91.94 592.69 91.32 C 592.45 92.26 592.21 93.20 591.97 94.14 C 593.47 94.34 594.97 94.55 596.47 94.75 C 597.44 96.18 598.43 97.58 599.45 98.97 C 598.46 100.04 597.47 101.11 596.50 102.19 C 596.17 101.05 595.84 99.91 595.51 98.78 C 592.42 98.56 590.02 96.64 586.99 96.30 C 582.93 95.48 579.41 96.23 575.66 94.43 C 569.12 96.51 562.62 95.29 555.94 96.46 C 555.22 95.84 554.49 95.21 553.77 94.58 C 554.51 93.55 555.16 91.99 556.48 91.66 C 559.31 91.20 562.19 91.39 565.00 90.67 C 567.98 89.87 571.23 91.29 574.26 91.40 L 575.89 90.16 C 576.86 90.59 577.84 91.02 578.81 91.45 C 581.35 90.34 582.57 90.30 585.17 91.26 C 585.79 89.90 586.49 89.29 587.69 88.45 C 589.30 88.97 590.92 89.47 592.55 89.93 C 592.48 89.22 592.40 88.51 592.32 87.80 C 588.11 86.06 584.14 87.11 579.84 86.54 C 577.50 86.36 578.44 83.20 578.13 81.62 C 580.67 80.80 583.38 79.62 586.06 79.50 C 587.50 79.24 588.39 79.94 588.74 81.59 C 592.74 82.67 595.77 83.16 599.66 81.31 C 599.54 80.60 599.43 79.89 599.32 79.18 C 600.62 78.51 601.42 77.87 602.25 76.69 C 600.44 76.72 598.63 76.78 596.82 76.85 C 596.51 77.81 596.20 78.77 595.89 79.73 C 592.70 78.86 589.35 77.05 586.13 78.18 C 581.39 79.40 576.74 79.57 571.88 79.19 C 573.08 77.42 573.90 76.86 575.97 76.40 C 578.56 75.76 581.34 74.67 584.01 74.76 C 586.92 74.76 589.93 76.05 592.74 76.80 C 590.62 74.41 587.13 73.18 584.00 73.13 C 579.86 72.86 575.62 75.12 571.93 76.78 C 571.57 76.08 571.22 75.39 570.86 74.69 C 576.03 71.60 582.68 70.30 588.65 70.00 C 589.10 68.61 588.07 66.51 590.11 66.41 C 594.96 65.33 599.89 65.79 604.87 64.93 C 607.03 64.50 609.06 64.48 611.25 64.70 C 611.84 64.36 612.42 64.01 613.01 63.66 C 615.49 64.74 618.00 65.74 620.57 66.58 C 620.55 65.54 620.53 64.50 620.50 63.46 C 621.30 63.24 622.10 63.02 622.90 62.80 L 622.25 60.18 C 626.81 59.94 630.83 62.04 635.41 61.79 C 634.01 60.25 632.24 59.61 630.35 58.88 L 631.34 57.08 C 628.24 58.67 625.36 56.56 622.35 55.70 C 621.26 56.01 620.17 56.33 619.08 56.65 C 617.53 57.55 615.95 58.30 614.30 58.99 C 615.07 61.41 619.84 60.09 621.88 60.47 L 621.77 62.65 C 619.71 62.33 617.71 61.89 615.73 61.25 C 612.64 60.14 608.91 60.53 605.67 60.71 C 603.45 60.81 601.95 62.01 600.24 63.24 C 597.14 63.47 594.04 63.50 590.93 63.41 C 593.26 62.70 595.74 62.16 597.93 61.16 C 599.64 60.43 601.06 59.43 602.99 59.41 C 606.44 59.27 609.59 57.97 612.98 57.56 C 618.40 56.95 623.45 53.97 628.74 52.48 C 628.80 53.50 628.86 54.52 628.92 55.53 C 630.58 55.52 632.31 55.37 633.96 55.64 C 636.06 56.47 638.02 57.51 640.24 58.00 C 639.66 56.80 639.00 55.66 638.27 54.53 C 640.51 53.44 642.37 52.27 644.98 53.00 C 647.58 53.66 649.64 52.58 652.15 52.10 C 651.10 52.79 650.04 53.46 648.96 54.12 L 649.79 55.43 C 655.72 57.06 658.98 53.41 663.55 50.60 C 665.58 49.06 667.60 49.42 669.97 49.62 Z M 634.78 51.42 C 633.77 52.33 631.64 54.28 630.31 53.02 C 629.80 50.91 633.59 51.41 634.78 51.42 Z M 691.84 54.30 L 691.82 55.73 C 689.10 55.71 686.38 55.62 683.67 55.37 C 686.47 54.36 688.86 54.11 691.84 54.30 Z M 665.84 57.09 C 665.85 57.83 665.87 58.56 665.88 59.30 C 664.33 59.27 662.77 59.26 661.21 59.24 C 661.43 58.76 661.65 58.28 661.87 57.81 C 663.18 57.52 664.52 57.31 665.84 57.09 Z M 588.44 62.26 C 588.83 63.16 589.20 64.07 589.57 64.97 C 587.02 66.16 583.46 65.62 583.10 69.11 C 581.25 69.36 579.40 69.60 577.53 69.74 C 578.81 68.37 580.30 67.48 581.96 66.63 C 581.28 66.03 580.61 65.43 579.94 64.84 C 582.84 64.17 585.63 63.22 588.44 62.26 Z M 569.12 76.31 C 569.41 76.51 569.71 76.71 570.00 76.92 C 568.91 77.83 567.97 78.84 567.17 79.95 C 569.01 83.85 575.81 79.11 576.66 84.47 C 569.24 84.12 563.25 87.88 556.09 88.68 C 557.14 86.02 557.51 84.63 560.68 84.62 C 561.76 84.08 562.83 83.52 563.91 82.97 C 562.94 82.32 561.98 81.68 561.02 81.03 C 562.86 81.90 564.46 82.44 566.49 82.92 C 566.56 81.83 567.08 80.96 566.10 80.11 L 564.49 80.11 C 565.65 78.37 567.30 77.27 569.12 76.31 Z M 416.73 80.43 C 418.94 80.91 421.11 81.56 423.31 82.10 C 421.07 82.76 418.81 82.77 416.50 82.77 C 416.56 81.99 416.64 81.21 416.73 80.43 Z M 397.65 81.78 C 397.65 82.42 397.66 83.06 397.66 83.69 C 394.00 83.33 390.46 83.18 386.78 83.33 C 390.39 82.72 394.05 82.49 397.65 81.78 Z M 413.49 80.42 C 413.54 81.02 413.59 81.63 413.64 82.24 C 409.23 81.91 404.75 84.26 400.90 82.17 C 404.98 81.07 409.27 80.54 413.49 80.42 Z M 438.65 84.49 C 441.49 85.63 444.23 86.60 446.65 88.55 C 444.17 88.53 441.71 88.37 439.25 88.21 C 437.26 90.29 434.66 89.57 431.98 89.96 C 426.07 90.23 420.60 92.01 414.62 91.42 C 416.26 89.18 418.54 89.26 420.99 88.69 C 424.02 88.18 426.99 87.34 430.02 86.82 C 432.29 86.32 434.69 87.64 436.81 88.30 C 436.59 85.63 436.59 85.71 438.65 84.49 Z M 418.23 85.34 C 414.88 87.84 409.45 87.92 405.43 88.88 C 405.37 89.45 405.30 90.01 405.24 90.57 C 409.33 89.70 412.83 88.09 417.10 88.51 C 415.57 88.94 414.04 89.33 412.50 89.70 L 414.40 92.11 C 413.71 91.44 413.02 90.77 412.34 90.09 C 406.60 90.73 401.53 93.02 395.61 92.58 C 398.44 91.49 401.47 91.54 404.40 90.69 C 400.28 89.81 396.97 91.22 393.00 92.02 C 389.44 92.85 385.75 92.61 382.13 92.32 C 384.45 90.87 384.90 90.79 384.72 87.77 L 385.55 87.83 L 385.18 89.69 C 388.79 89.25 392.35 89.97 395.96 89.47 C 395.74 88.66 395.53 87.85 395.31 87.05 C 396.44 87.21 397.58 87.37 398.71 87.54 L 398.09 85.80 L 401.70 85.88 L 401.17 88.13 C 407.10 87.75 412.37 84.87 418.23 85.34 Z M 381.12 88.88 C 378.98 90.75 377.81 91.37 374.89 91.55 C 375.14 90.65 375.45 89.77 375.80 88.91 C 377.59 88.46 379.32 88.65 381.12 88.88 Z M 552.57 88.30 C 552.45 88.92 552.33 89.55 552.20 90.17 C 551.47 90.34 550.74 90.52 550.01 90.70 C 549.51 91.88 549.00 93.06 548.43 94.22 C 548.39 92.93 548.38 91.65 548.40 90.36 C 549.71 89.50 551.11 88.85 552.57 88.30 Z M 348.38 90.03 C 342.67 93.96 336.30 95.57 329.55 96.68 C 331.82 95.62 334.14 94.67 336.41 93.61 C 340.95 93.72 343.99 90.67 348.38 90.03 Z M 443.98 90.43 C 446.40 90.47 449.37 89.32 451.55 90.48 C 458.30 93.59 464.04 98.15 470.45 101.54 C 473.97 103.81 476.73 106.61 480.66 108.32 C 483.78 109.87 486.99 110.42 488.46 113.97 C 484.38 114.72 480.32 115.93 476.42 117.32 L 476.00 118.04 L 478.12 120.19 C 475.48 120.37 473.22 120.71 470.84 121.79 C 467.51 120.90 464.25 121.45 460.88 121.08 C 457.89 120.77 454.88 120.67 451.89 120.37 C 452.25 117.24 455.28 118.56 457.48 118.28 C 457.87 117.10 458.25 115.92 458.62 114.74 C 459.76 114.35 460.89 113.96 462.03 113.56 C 464.63 116.10 466.40 115.91 469.87 115.65 L 470.88 117.42 C 475.30 116.37 479.46 114.63 484.03 114.11 L 483.85 113.14 C 480.06 113.35 476.37 114.21 472.60 114.62 C 474.19 112.55 476.39 112.51 478.66 111.60 C 476.91 111.56 475.17 111.55 473.42 111.57 C 474.37 110.55 475.31 109.52 476.24 108.48 C 473.35 108.71 470.49 109.16 467.61 109.46 C 468.46 106.46 472.01 108.14 473.74 105.39 C 468.34 105.30 461.93 109.09 457.18 106.22 C 460.00 104.15 462.84 104.77 466.10 104.25 C 463.48 102.67 460.05 103.61 457.02 103.32 C 459.82 101.12 464.38 102.40 466.54 99.76 C 461.99 99.59 457.56 99.79 453.36 101.71 L 453.15 100.48 C 455.57 99.82 458.05 99.51 460.49 98.97 L 461.28 97.48 C 459.32 97.46 457.37 97.49 455.42 97.54 C 454.94 96.00 454.46 94.47 453.98 92.94 C 453.47 93.83 452.97 94.71 452.46 95.60 C 448.80 95.88 445.23 96.62 441.66 97.43 C 441.27 98.17 440.88 98.90 440.49 99.63 C 438.47 99.68 436.44 99.71 434.41 99.70 L 435.06 96.93 C 438.66 94.34 442.39 94.22 446.66 94.46 C 444.04 92.25 441.49 92.63 438.14 92.35 C 440.17 91.27 441.67 90.38 443.98 90.43 Z M 362.27 91.34 C 361.48 92.44 361.10 93.24 359.66 93.53 C 353.80 95.41 347.74 95.95 341.79 97.32 C 336.02 99.03 330.37 101.08 324.52 102.54 C 324.65 102.03 324.78 101.51 324.91 100.99 C 330.34 99.69 334.54 97.15 340.18 97.26 C 342.23 96.09 344.24 95.00 346.60 94.59 C 352.03 93.66 356.67 91.36 362.27 91.34 Z M 367.55 94.10 C 366.81 94.97 365.87 95.33 364.75 95.19 C 364.14 93.44 366.76 92.54 367.55 94.10 Z M 380.11 94.97 C 377.50 96.11 374.78 96.75 372.02 97.40 C 369.98 97.75 369.14 99.52 367.30 100.24 C 365.36 100.97 363.29 101.43 361.28 101.97 L 361.40 98.63 C 367.94 96.69 372.96 93.43 380.11 94.97 Z M 360.20 95.36 C 357.46 97.91 352.46 98.82 348.85 99.52 C 351.66 96.81 356.52 96.36 360.20 95.36 Z M 328.64 96.57 C 329.32 98.25 326.30 98.63 325.23 98.14 C 325.71 96.77 327.30 95.91 328.64 96.57 Z M 571.97 96.60 C 572.89 96.71 573.81 96.85 574.73 97.04 C 575.56 97.22 576.40 97.40 577.23 97.58 C 577.83 98.23 578.43 98.87 579.02 99.51 C 581.46 99.48 583.86 99.35 586.24 98.77 C 588.15 99.45 590.03 100.17 591.91 100.90 C 590.17 101.72 588.46 102.37 586.60 102.93 C 586.63 103.60 586.66 104.26 586.69 104.93 L 588.55 106.00 C 588.04 106.66 587.50 107.29 586.97 107.92 C 586.34 105.94 585.63 104.08 584.49 102.34 C 583.68 102.88 582.85 103.40 582.01 103.88 C 579.88 103.26 577.93 102.00 575.80 101.44 C 570.89 101.68 566.02 101.73 561.14 100.99 C 564.33 99.07 567.26 100.07 570.98 99.40 C 571.31 98.47 571.64 97.53 571.97 96.60 Z M 384.63 97.22 C 385.18 100.55 381.99 100.60 379.82 101.79 C 376.45 104.17 373.37 105.56 369.20 105.98 C 361.59 106.81 354.28 108.87 346.80 110.39 C 347.51 109.59 348.23 108.81 348.97 108.04 C 348.75 107.17 348.53 106.31 348.30 105.45 C 352.33 104.71 355.50 102.52 359.11 100.78 C 358.53 100.41 357.95 100.05 357.36 99.68 C 358.45 99.19 359.54 98.70 360.62 98.20 C 360.62 99.50 360.63 100.80 360.65 102.09 C 356.90 103.71 353.12 105.12 349.12 105.99 C 349.71 106.62 350.31 107.25 350.90 107.88 C 355.34 106.15 360.02 105.07 364.40 103.24 C 368.24 101.44 372.65 100.66 376.79 99.57 C 377.68 99.64 378.56 99.73 379.44 99.81 C 380.93 98.30 382.64 97.82 384.63 97.22 Z M 405.19 99.79 C 402.02 100.84 398.96 102.20 395.82 103.32 C 391.88 104.07 388.11 103.06 384.26 104.69 C 384.27 103.32 384.28 101.94 384.28 100.56 C 391.35 99.86 398.05 98.71 405.19 99.79 Z M 453.33 103.44 C 453.32 104.77 453.33 106.10 453.35 107.44 C 454.78 107.52 456.22 107.61 457.65 107.71 C 457.62 108.84 457.59 109.97 457.57 111.11 C 459.90 110.41 462.10 109.46 464.29 108.39 C 464.46 109.19 464.62 109.99 464.78 110.80 C 460.99 113.28 456.82 113.64 452.41 113.76 C 452.58 112.44 452.76 111.12 452.93 109.80 C 451.24 109.73 449.54 109.67 447.84 109.61 C 448.27 109.25 448.70 108.89 449.13 108.53 C 450.82 108.81 452.51 109.08 454.20 109.36 C 452.83 108.06 451.46 106.75 450.12 105.42 C 448.17 105.44 446.23 105.45 444.28 105.45 C 444.25 104.60 444.23 103.75 444.22 102.90 C 446.80 100.27 450.41 102.70 453.33 103.44 Z M 410.03 103.17 C 413.07 103.80 417.21 100.67 418.99 104.30 C 411.72 104.89 404.68 105.57 397.49 106.86 C 400.79 104.42 405.87 101.69 410.03 103.17 Z M 309.44 102.86 C 308.58 103.98 307.73 105.11 306.89 106.24 C 308.38 106.35 309.87 106.48 311.36 106.62 C 309.67 107.36 307.94 108.02 306.21 108.69 C 306.39 107.74 306.58 106.79 306.76 105.84 C 304.94 105.75 303.13 105.65 301.31 105.50 C 303.98 104.50 306.71 103.69 309.44 102.86 Z M 483.00 102.70 C 484.26 102.60 485.52 102.49 486.79 102.39 C 486.36 103.36 485.93 104.32 485.50 105.29 C 484.85 105.31 484.19 105.34 483.53 105.37 C 483.35 104.48 483.18 103.59 483.00 102.70 Z M 565.79 103.51 C 564.94 104.10 564.10 104.70 563.25 105.29 C 559.95 105.21 556.65 105.20 553.35 105.38 L 553.38 104.65 C 554.27 104.46 555.16 104.26 556.04 104.06 C 559.29 103.05 562.46 103.43 565.79 103.51 Z M 344.09 104.94 C 335.53 108.45 326.03 111.32 316.84 112.43 C 319.88 110.35 323.56 109.14 326.97 107.77 C 328.56 107.09 330.04 107.51 331.68 107.67 L 331.76 106.33 C 336.35 106.93 339.74 103.67 344.09 104.94 Z M 427.49 104.16 C 426.69 105.69 426.02 107.29 425.22 108.82 C 419.73 110.67 414.56 110.02 408.92 110.66 C 407.77 110.83 406.72 110.23 405.64 109.87 C 409.57 108.10 413.74 108.10 417.81 106.81 C 421.00 105.79 424.28 105.13 427.49 104.16 Z M 300.37 106.12 C 297.33 108.86 292.82 110.15 288.86 110.75 C 292.45 108.71 296.61 107.89 300.37 106.12 Z M 378.13 106.48 C 374.92 107.56 371.82 108.65 368.40 108.80 C 371.69 107.00 374.33 106.10 378.13 106.48 Z M 501.57 108.15 L 501.23 110.16 C 503.50 109.46 505.75 108.80 508.13 108.65 C 506.55 110.42 504.96 110.59 502.72 110.95 C 502.48 111.64 502.25 112.33 502.01 113.01 C 503.06 113.65 504.11 114.28 505.15 114.92 C 505.72 114.18 506.28 113.44 506.85 112.69 C 510.50 114.56 513.01 112.59 516.64 112.18 C 516.69 113.04 516.74 113.91 516.79 114.77 C 515.48 114.60 514.17 114.42 512.86 114.24 C 509.57 117.81 503.86 116.55 499.59 116.32 C 499.48 117.38 499.39 118.44 499.28 119.50 C 497.10 119.85 494.96 120.35 492.83 120.87 C 492.13 121.89 491.43 122.91 490.73 123.93 C 490.36 122.94 489.98 121.94 489.60 120.94 C 487.67 120.86 485.74 120.78 483.83 120.51 C 487.08 120.24 489.93 120.71 492.90 118.88 C 492.29 118.35 491.67 117.81 491.06 117.28 C 488.16 117.83 485.39 117.80 482.47 117.48 C 486.06 116.28 489.95 113.09 493.61 115.60 C 493.49 116.43 493.37 117.26 493.25 118.09 L 499.12 117.37 C 497.52 115.97 495.92 114.59 494.56 112.95 C 496.79 113.33 498.27 114.21 500.01 115.58 L 501.66 112.64 C 499.82 111.71 497.95 110.85 496.10 109.97 C 497.86 109.14 499.67 108.59 501.57 108.15 Z M 367.23 109.26 L 367.75 109.20 L 367.81 109.72 L 367.29 109.78 L 367.23 109.26 Z M 532.67 109.60 C 533.34 109.39 534.01 109.20 534.69 109.04 C 534.45 109.98 534.35 110.88 534.40 111.73 C 535.74 112.46 537.52 112.47 539.00 112.84 C 537.41 114.71 536.09 116.57 533.80 117.67 C 533.54 116.19 533.36 114.70 533.26 113.19 C 530.45 114.19 527.25 115.07 524.74 116.73 C 522.94 117.71 523.37 120.46 522.91 122.22 C 524.49 121.20 526.06 120.17 527.65 119.17 C 527.72 118.46 527.79 117.75 527.86 117.04 C 529.17 117.20 530.47 117.36 531.77 117.54 L 531.79 117.94 C 531.12 118.25 530.45 118.54 529.78 118.84 C 529.48 119.74 529.19 120.64 528.90 121.54 C 529.57 121.07 530.24 120.59 530.90 120.11 C 531.49 119.33 532.17 118.75 532.94 118.36 L 535.04 119.32 L 536.26 118.06 C 536.86 118.35 537.45 118.64 538.04 118.93 C 538.71 118.70 539.37 118.48 540.04 118.26 L 541.57 118.10 L 541.32 120.32 C 541.69 119.73 542.06 119.15 542.44 118.56 C 543.83 117.97 545.19 117.33 546.50 116.57 C 548.51 116.44 550.53 116.34 552.54 116.22 L 552.76 117.07 C 550.74 117.54 550.08 118.27 548.94 119.85 C 551.81 119.60 553.66 117.87 555.93 116.32 C 557.18 116.35 558.44 116.39 559.69 116.44 C 559.28 117.40 558.86 118.37 558.45 119.33 L 560.48 119.18 C 560.54 119.98 560.61 120.78 560.68 121.58 C 560.46 122.94 560.27 124.30 560.10 125.67 C 560.95 125.53 561.81 125.39 562.66 125.24 C 561.72 122.20 560.84 119.50 561.53 116.27 C 563.04 117.02 564.55 117.79 566.05 118.57 C 566.59 117.54 567.13 116.52 567.67 115.49 L 564.65 115.14 C 566.38 113.63 569.38 115.67 571.34 115.97 C 571.37 117.35 571.47 118.72 571.64 120.08 C 572.44 119.38 573.24 118.68 574.04 117.97 C 574.59 118.34 575.15 118.71 575.70 119.09 C 575.73 119.99 575.77 120.90 575.80 121.80 C 577.72 123.53 579.50 125.38 581.38 127.15 C 581.60 124.97 581.36 122.83 581.23 120.65 C 582.86 124.50 583.98 128.51 584.68 132.63 L 582.95 132.49 C 583.52 133.67 584.09 134.85 584.66 136.02 C 586.17 134.69 587.70 133.36 589.20 132.02 C 589.02 132.86 588.83 133.70 588.64 134.54 C 585.92 136.56 584.48 136.60 581.09 136.46 L 582.03 138.76 C 583.07 138.63 584.11 138.46 585.14 138.26 C 584.28 139.90 583.52 141.53 583.18 143.36 C 584.78 143.73 586.38 144.10 587.98 144.44 C 586.76 147.07 585.77 149.84 584.45 152.41 C 583.47 153.26 582.32 153.94 581.24 154.65 C 581.86 156.42 582.48 158.20 583.06 159.98 C 584.05 159.76 585.03 159.53 586.02 159.31 L 585.83 160.29 L 584.62 160.03 C 583.87 162.42 583.46 164.66 583.37 167.17 C 582.26 163.15 581.11 159.14 579.86 155.16 C 579.28 152.98 578.40 152.62 576.40 151.67 C 576.35 152.73 576.29 153.79 576.23 154.85 C 575.09 156.13 574.18 157.45 573.39 158.96 C 573.37 156.73 573.11 154.74 572.37 152.62 C 571.55 153.55 570.72 154.48 569.89 155.40 C 569.32 154.34 568.84 153.31 568.55 152.13 C 570.38 150.74 572.57 149.68 572.19 146.97 C 570.67 146.62 569.14 146.55 567.59 146.48 C 568.14 145.41 568.69 144.33 569.24 143.24 C 566.86 143.28 564.48 143.34 562.10 143.41 C 560.17 144.79 558.25 146.12 555.99 146.90 C 556.84 145.77 557.70 144.64 558.59 143.52 C 556.06 143.73 553.62 144.31 551.14 144.76 L 550.21 143.12 L 548.22 143.89 C 548.61 141.34 548.92 141.18 548.05 138.30 L 550.62 139.57 C 551.27 138.95 551.90 138.30 552.51 137.64 C 555.35 136.48 556.87 136.71 556.91 133.05 C 555.44 133.52 553.98 134.06 552.53 134.62 C 552.45 133.41 552.37 132.21 552.29 131.00 C 550.23 132.06 549.98 133.66 549.24 135.63 C 547.43 135.55 545.62 135.43 543.82 135.31 C 541.97 134.54 540.12 134.74 538.16 134.74 C 537.04 135.39 535.92 136.02 534.80 136.66 L 534.68 134.85 C 531.07 135.59 526.88 136.41 524.28 139.26 C 522.89 140.82 521.20 141.52 519.31 142.34 L 519.78 140.09 L 517.43 140.66 L 517.06 138.70 C 519.25 138.01 521.55 137.56 523.70 136.73 C 525.05 135.86 525.44 133.59 526.07 132.17 C 522.28 133.62 520.44 136.86 516.10 137.00 C 516.33 135.49 516.56 133.97 516.78 132.46 C 515.21 133.09 512.50 133.28 511.57 134.80 C 511.49 136.65 511.55 138.48 511.63 140.33 C 512.23 139.63 512.83 138.93 513.42 138.23 C 514.54 139.30 515.66 140.36 516.81 141.40 C 514.87 142.72 513.02 144.08 510.84 145.00 C 512.14 143.27 513.75 141.89 515.32 140.42 C 513.83 140.43 512.34 140.44 510.84 140.47 C 510.59 139.98 510.34 139.50 510.09 139.02 C 507.77 139.52 505.47 140.11 503.15 140.61 C 504.69 138.96 507.27 137.20 507.47 134.84 C 506.69 134.07 504.96 134.45 504.26 135.18 C 502.21 137.22 500.50 139.48 498.13 141.20 C 498.31 139.40 499.02 137.97 499.86 136.42 C 498.80 136.81 497.74 137.20 496.68 137.59 C 495.41 139.29 494.51 140.30 492.38 141.01 C 492.28 138.46 492.31 137.80 494.08 136.08 C 489.45 136.94 485.29 138.56 481.42 141.27 C 479.36 142.03 477.99 142.81 476.53 144.45 C 474.68 145.03 472.83 145.56 470.94 145.99 C 471.69 144.00 471.71 144.02 473.75 143.20 C 473.85 142.57 473.94 141.94 474.04 141.31 C 471.76 139.61 469.76 139.58 467.02 139.50 C 468.91 138.85 470.79 138.18 472.65 137.46 C 473.29 137.70 473.92 137.93 474.56 138.17 C 474.90 139.44 475.25 140.71 475.62 141.97 C 476.83 140.15 477.95 138.18 479.39 136.52 C 483.41 136.60 487.04 136.41 490.22 133.60 L 487.63 133.83 C 486.40 131.89 486.12 132.43 484.02 132.38 C 481.35 132.68 479.47 131.05 477.00 132.65 C 477.74 133.47 478.47 134.29 479.21 135.11 C 477.10 135.33 475.85 136.17 474.17 134.35 C 470.39 135.72 466.94 137.62 463.05 138.13 C 460.59 138.47 458.43 137.91 455.99 137.76 C 452.45 138.62 449.44 140.48 445.66 140.56 C 445.61 139.96 445.57 139.35 445.52 138.75 C 447.65 138.11 449.73 137.42 451.98 137.33 C 457.70 137.11 462.97 135.42 468.55 134.37 C 470.21 133.87 471.98 133.73 472.58 131.85 C 473.84 128.49 477.47 129.05 480.05 130.43 C 482.10 129.31 484.02 127.99 486.07 126.88 C 486.81 124.81 486.81 122.88 489.20 121.93 C 489.79 123.55 490.33 125.20 491.02 126.78 C 493.39 124.66 494.77 123.42 498.14 123.16 C 499.43 120.98 501.46 120.37 503.54 119.20 C 507.99 119.03 512.25 118.65 516.48 117.15 C 517.01 116.57 517.55 115.99 518.08 115.41 C 519.16 116.41 520.26 117.39 521.39 118.33 C 521.14 116.98 520.87 115.66 520.68 114.30 L 522.16 114.54 C 522.77 113.30 522.08 111.99 521.75 110.77 C 522.40 110.76 523.05 110.74 523.71 110.73 C 523.31 111.87 522.72 113.14 522.76 114.36 C 524.18 114.52 525.62 114.58 527.07 114.54 L 524.90 111.40 C 526.37 112.20 527.84 112.99 529.33 113.76 C 529.50 112.55 529.67 111.35 529.82 110.14 C 530.24 111.93 531.18 112.87 532.66 112.98 C 532.66 111.85 532.61 110.72 532.67 109.60 Z M 541.53 110.71 C 543.69 111.20 545.84 111.66 548.03 111.96 C 546.11 112.36 544.34 112.92 542.55 113.72 C 542.97 114.46 543.38 115.21 543.80 115.95 C 542.62 117.25 541.81 117.81 540.04 118.26 L 540.86 116.11 C 539.64 116.29 538.41 116.46 537.18 116.61 C 538.62 115.76 540.13 115.03 541.66 114.34 C 541.60 113.13 541.56 111.92 541.53 110.71 Z M 562.65 113.21 C 563.27 114.87 560.86 116.54 560.41 114.33 C 560.77 113.33 561.52 112.95 562.65 113.21 Z M 443.19 118.42 C 443.40 119.01 443.61 119.61 443.81 120.20 C 439.67 121.40 436.00 121.89 431.67 121.54 C 435.37 120.06 439.17 118.57 443.19 118.42 Z M 460.28 124.31 C 461.39 124.34 462.50 124.35 463.61 124.34 C 462.31 125.24 462.52 125.93 462.32 127.35 C 457.46 128.59 452.10 129.67 447.09 129.75 C 447.23 129.10 447.36 128.44 447.50 127.78 C 449.72 127.04 451.88 126.02 454.15 125.46 C 457.03 126.03 458.95 127.52 461.97 126.08 C 461.43 125.47 460.86 124.88 460.28 124.31 Z M 484.26 124.47 C 481.69 125.97 479.62 126.64 476.62 126.83 C 479.06 125.27 481.29 124.27 484.26 124.47 Z M 468.85 124.88 C 468.61 126.43 467.21 127.14 465.83 127.47 C 463.88 125.15 466.93 124.13 468.85 124.88 Z M 474.89 125.81 C 474.81 126.69 474.71 127.58 474.62 128.46 C 473.68 128.54 472.74 128.63 471.79 128.72 C 471.37 129.65 470.94 130.58 470.51 131.50 C 462.20 133.90 453.16 134.86 444.53 135.38 C 445.66 131.82 452.13 133.07 455.04 132.10 C 458.96 130.64 463.03 130.34 466.97 129.03 C 469.63 128.00 472.23 126.84 474.89 125.81 Z M 445.23 130.22 C 443.61 132.10 442.09 131.63 439.84 131.53 C 441.58 130.71 443.31 130.38 445.23 130.22 Z M 542.28 135.95 C 541.45 137.07 540.53 138.11 539.58 139.14 L 540.82 140.55 C 542.26 139.19 543.75 137.88 545.29 136.64 C 545.83 137.87 546.36 139.10 546.91 140.34 C 546.43 141.28 545.96 142.23 545.49 143.17 C 545.93 143.60 546.37 144.04 546.81 144.47 C 544.53 145.80 542.21 147.02 539.73 147.95 C 541.67 146.38 543.66 144.91 545.45 143.17 C 541.96 143.48 539.38 145.78 535.81 145.74 C 531.79 145.88 528.23 147.25 524.48 148.53 C 523.17 149.87 521.87 151.15 520.24 152.12 C 520.30 153.21 520.18 153.97 521.05 154.79 C 523.03 154.08 524.98 153.37 527.05 152.99 C 526.09 153.41 525.13 153.80 524.15 154.18 C 522.17 155.79 520.67 156.71 518.09 157.16 L 519.71 155.29 C 519.24 153.07 517.65 152.85 515.82 152.15 C 517.35 151.53 518.86 150.88 520.37 150.23 C 520.46 148.93 520.53 147.63 520.60 146.32 C 525.13 147.50 528.73 145.74 533.15 145.25 C 534.48 144.90 534.60 142.18 535.16 141.14 C 532.94 141.59 531.71 142.94 530.18 144.45 C 528.48 143.95 526.78 143.44 525.08 142.94 C 525.86 142.83 526.64 142.71 527.43 142.60 L 526.37 140.18 C 526.77 140.79 527.16 141.41 527.56 142.02 C 533.76 142.17 537.22 138.54 542.28 135.95 Z M 488.33 139.31 C 487.44 140.20 486.53 141.08 485.61 141.94 C 486.10 142.83 486.59 143.73 487.07 144.62 C 493.97 146.63 500.49 145.04 507.37 145.64 C 505.27 147.05 503.67 147.92 501.03 147.72 C 497.68 147.38 495.44 149.69 492.13 149.59 C 493.29 148.55 494.45 147.51 495.61 146.48 C 493.47 146.76 491.34 147.10 489.19 147.38 C 487.26 146.37 485.21 145.78 483.10 145.25 C 483.38 142.05 485.80 140.73 488.33 139.31 Z M 443.40 141.65 C 446.40 140.56 449.26 141.76 452.08 142.75 C 449.12 143.40 446.14 143.47 443.12 143.55 C 439.20 149.70 433.01 149.29 427.50 153.49 C 424.93 155.52 422.02 156.78 419.00 158.01 C 418.87 157.27 418.73 156.53 418.59 155.79 C 419.40 155.66 420.21 155.52 421.02 155.38 C 424.86 153.15 428.81 151.11 432.73 149.04 C 435.82 145.83 439.57 143.81 443.40 141.65 Z M 507.25 143.03 L 507.92 142.62 L 508.59 143.10 L 508.59 143.97 L 507.90 144.38 L 507.24 143.90 L 507.25 143.03 Z M 506.98 148.80 C 509.64 148.83 512.30 149.29 514.96 149.42 C 512.97 150.78 511.06 151.79 508.80 152.65 C 507.94 151.84 507.09 151.04 506.24 150.22 C 505.43 151.54 505.28 153.10 503.63 153.56 C 502.09 153.68 500.51 153.44 498.97 153.34 L 499.46 154.42 C 497.92 152.84 497.01 152.62 494.77 152.41 C 496.48 152.04 498.18 151.62 499.87 151.17 L 497.92 152.66 C 500.58 153.38 502.70 152.38 505.05 151.22 C 505.67 150.40 506.32 149.59 506.98 148.80 Z M 454.70 149.11 C 454.53 150.15 453.53 152.02 452.28 151.12 C 451.68 149.49 453.40 148.97 454.70 149.11 Z M 483.57 155.25 C 483.54 156.50 483.55 157.75 483.60 159.01 C 482.20 162.16 481.07 165.46 479.47 168.50 C 480.50 164.78 482.30 160.91 482.45 157.07 C 478.36 160.02 479.68 164.89 476.23 168.44 C 476.21 167.07 476.30 165.73 476.50 164.40 C 477.43 162.86 478.60 161.56 479.46 159.97 C 479.88 158.02 477.00 158.46 475.83 158.02 C 476.14 157.22 476.47 156.43 476.80 155.64 C 479.06 155.53 481.32 155.56 483.57 155.25 Z M 417.17 159.21 C 411.74 162.13 405.76 165.15 399.83 166.86 C 402.31 165.17 404.98 163.84 407.88 163.06 C 410.60 160.33 413.43 159.57 417.17 159.21 Z M 474.75 159.33 L 475.28 159.19 L 475.42 159.72 L 474.89 159.86 L 474.75 159.33 Z M 441.03 160.68 C 441.57 162.65 442.25 163.18 443.90 164.18 C 443.63 164.79 443.36 165.39 443.09 165.99 C 440.40 167.35 438.04 169.02 435.07 169.77 C 436.21 168.84 437.38 167.95 438.56 167.08 C 439.15 164.83 440.00 162.76 441.03 160.68 Z M 590.83 161.08 C 593.64 160.99 593.59 163.40 592.03 165.06 C 590.94 163.99 590.24 162.59 590.83 161.08 Z M 512.17 166.16 C 512.58 167.36 511.77 169.55 510.22 168.76 C 509.15 167.40 510.78 166.02 512.17 166.16 Z M 590.10 166.35 L 590.92 166.35 L 591.33 167.06 L 590.91 167.79 L 590.09 167.79 L 589.68 167.07 L 590.10 166.35 Z M 394.29 167.33 C 388.99 170.28 383.46 173.15 377.73 175.15 C 373.50 176.61 369.41 178.37 365.58 180.70 C 365.51 180.03 365.45 179.37 365.39 178.70 C 369.73 177.51 373.53 175.58 377.36 173.26 C 380.41 171.33 383.87 170.71 387.07 169.10 C 389.42 168.28 391.84 167.74 394.29 167.33 Z M 427.08 169.19 C 422.64 173.50 416.55 177.94 411.09 180.86 C 415.53 175.59 420.27 171.11 427.08 169.19 Z M 401.91 171.33 C 398.74 173.40 395.38 175.09 391.63 175.82 C 393.33 172.56 398.70 172.17 401.91 171.33 Z M 402.27 176.46 C 403.07 176.90 403.84 177.36 404.62 177.83 C 403.01 178.73 401.41 179.64 399.82 180.58 C 399.45 180.04 398.28 179.46 398.53 178.76 C 399.71 177.90 400.99 177.16 402.27 176.46 Z M 378.11 177.84 C 378.92 180.76 379.55 182.13 376.72 183.94 C 376.23 182.65 375.75 181.36 375.28 180.06 C 372.85 180.84 370.44 181.72 367.99 182.41 C 369.46 181.18 371.02 180.56 372.82 179.97 C 374.83 178.85 375.59 176.63 378.11 177.84 Z M 403.16 185.20 C 401.63 187.11 400.04 188.59 397.88 189.79 C 399.23 187.01 399.57 185.19 403.16 185.20 Z"/>
	
	
	<path d="M 616.19 49.54 C 616.97 50.58 617.67 51.69 618.27 52.87 C 616.30 52.66 614.53 52.07 612.97 51.11 C 614.17 50.17 614.55 49.16 616.19 49.54 Z"/>
	
	
	<path d="M 606.34 52.36 C 608.42 51.77 609.57 53.10 609.34 55.18 C 606.60 55.79 605.73 55.03 606.34 52.36 Z"/>
	
	
	
	
	
	
	
	
	
	
	
	
	
	
	
	
	
	
	
	
	<path d="M 365.81 98.91 C 365.41 100.24 364.55 100.65 363.22 100.15 C 363.64 98.83 364.51 98.42 365.81 98.91 Z"/>
	
	
	
	
	
	
	
	
	
	
	
	
	
	
	
	
	<path d="M 573.77 120.30 L 573.32 122.38 C 576.05 123.09 577.64 124.77 579.51 126.75 C 579.53 128.81 579.53 130.88 579.51 132.95 C 578.48 134.06 577.45 135.17 576.41 136.28 C 577.38 136.93 578.36 137.57 579.34 138.21 C 578.48 138.77 577.61 139.31 576.73 139.83 C 576.68 138.88 576.63 137.93 576.59 136.98 C 573.05 138.29 569.94 137.41 566.51 136.39 C 566.34 135.02 566.17 133.65 566.00 132.28 C 564.79 132.68 563.58 133.10 562.37 133.52 L 562.16 131.03 C 563.36 131.24 564.56 131.44 565.76 131.65 C 565.30 129.71 564.84 127.76 564.39 125.81 C 565.70 124.25 567.09 122.86 568.72 121.63 C 569.21 122.31 569.69 123.00 570.17 123.68 C 571.30 121.80 570.96 120.21 573.77 120.30 Z M 576.50 127.78 C 576.46 129.75 576.30 131.68 575.85 133.61 C 575.25 131.53 574.68 129.44 574.17 127.34 L 571.62 127.68 C 570.46 129.76 570.67 131.88 570.64 134.17 C 571.87 134.30 573.10 134.44 574.33 134.59 C 572.66 135.24 571.97 136.10 570.47 134.52 C 568.87 132.33 567.34 127.85 569.70 125.69 C 571.52 124.13 574.74 127.04 576.50 127.78 Z"/>
	<path d="M 509.98 122.31 C 511.41 123.71 508.87 125.67 507.59 124.52 C 507.16 123.84 507.17 123.17 507.64 122.51 C 508.37 121.95 509.16 121.88 509.98 122.31 Z"/>
	<path d="M 517.05 121.78 C 517.47 122.49 517.89 123.20 518.31 123.91 C 519.85 124.96 521.21 125.78 521.99 127.56 C 519.44 126.58 516.92 125.50 514.38 124.50 C 515.27 123.59 516.15 122.68 517.05 121.78 Z"/>
	<path d="M 536.73 121.82 C 535.94 124.13 537.05 124.64 538.49 126.08 C 538.54 126.62 538.13 127.23 538.00 127.76 C 536.23 124.93 533.45 125.43 530.58 124.59 C 529.69 125.50 528.80 126.42 527.91 127.33 C 527.17 125.68 525.76 125.32 527.52 123.69 C 529.76 121.49 533.72 122.60 536.73 121.82 Z"/>
	<path d="M 555.54 123.56 C 556.02 125.48 555.33 127.22 553.18 125.78 C 551.74 123.89 553.93 123.04 555.54 123.56 Z"/>
	
	
	<path d="M 545.05 123.99 C 544.56 125.81 543.88 127.48 543.03 129.16 L 545.44 129.69 C 544.37 130.70 543.31 131.78 542.16 132.69 C 541.25 130.75 541.86 128.00 541.83 125.89 C 542.88 125.22 543.96 124.60 545.05 123.99 Z"/>
	
	<path d="M 513.30 124.50 C 511.89 126.02 510.54 127.38 509.94 129.44 C 507.90 130.38 507.09 130.84 504.90 129.96 C 507.34 127.55 510.57 126.60 513.30 124.50 Z"/>
	
	
	<path d="M 499.51 126.44 C 498.72 128.22 497.94 130.02 497.15 131.81 C 496.53 130.99 495.88 130.18 495.35 129.30 C 496.56 127.31 497.17 126.62 499.51 126.44 Z"/>
	<path d="M 560.63 127.21 C 560.41 128.43 560.14 129.64 559.86 130.84 C 558.95 130.73 558.03 130.61 557.11 130.49 C 558.11 129.06 559.12 128.09 560.63 127.21 Z"/>
	<path d="M 551.08 128.25 C 550.91 128.96 550.73 129.66 550.53 130.36 C 549.39 131.41 548.21 132.42 547.05 133.45 C 546.38 133.50 545.72 133.54 545.06 133.59 C 545.76 129.98 548.02 129.46 551.08 128.25 Z"/>
	<path d="M 485.40 129.10 L 486.07 128.62 L 486.74 129.04 L 486.73 129.92 L 486.07 130.40 L 485.40 129.98 L 485.40 129.10 Z"/>
	
	<path d="M 533.18 130.85 C 534.76 131.40 532.74 135.81 531.07 134.25 C 530.27 133.00 532.06 131.24 533.18 130.85 Z"/>
	<path d="M 560.12 134.31 C 560.30 135.07 560.46 135.83 560.61 136.60 C 559.28 138.85 558.83 141.40 555.83 141.80 C 555.74 140.14 555.67 138.48 555.61 136.81 C 557.02 135.71 558.42 134.88 560.12 134.31 Z"/>
	
	<path d="M 565.48 134.19 C 565.71 136.19 566.20 138.52 565.49 140.49 C 564.87 141.75 563.26 142.55 562.16 143.37 C 561.21 140.36 560.88 139.56 563.02 137.08 C 563.83 136.10 564.65 135.14 565.48 134.19 Z"/>
	<path d="M 569.12 138.13 C 570.04 138.43 570.94 138.79 571.83 139.16 C 570.40 140.37 568.96 141.56 567.52 142.75 C 567.54 141.91 567.57 141.07 567.61 140.24 C 568.08 139.50 568.58 138.80 569.12 138.13 Z"/>
	<path d="M 573.53 138.11 C 574.25 139.75 574.83 141.46 575.43 143.14 C 574.82 143.46 574.22 143.78 573.61 144.10 C 574.74 144.66 575.87 145.24 577.00 145.82 C 575.77 146.65 574.48 147.09 573.14 147.13 C 571.96 145.63 570.86 144.08 569.80 142.50 C 571.05 142.45 572.29 142.40 573.54 142.35 C 573.52 140.94 573.52 139.52 573.53 138.11 Z"/>
	
	
	
	<path d="M 580.14 143.49 C 578.78 146.43 576.23 151.18 572.88 152.07 C 573.62 149.30 574.87 147.75 576.92 145.92 C 577.97 145.08 579.04 144.27 580.14 143.49 Z"/>
	<path d="M 585.11 144.39 C 586.13 146.66 583.72 149.68 583.58 152.12 C 582.97 151.84 582.36 151.55 581.74 151.27 C 581.74 149.76 581.73 148.25 581.70 146.74 C 580.19 149.32 580.97 151.78 577.16 151.89 C 578.21 149.17 579.62 146.66 580.87 144.04 C 581.44 145.35 582.00 146.65 582.57 147.96 C 583.28 146.65 584.13 145.46 585.11 144.39 Z"/>
	
	
	
	
	
	
	
	
	
	
	
	
	
	
	
</svg>