<?xml version="1.0" standalone="no"?>
<!DOCTYPE svg PUBLIC "-//W3C//DTD SVG 20010904//EN"
 "http://www.w3.org/TR/2001/REC-SVG-20010904/DTD/svg10.dtd">
<svg version="1.0" xmlns="http://www.w3.org/2000/svg"
 width="1000.000000pt" height="526.000000pt" viewBox="0 0 1000.000000 526.000000"
 preserveAspectRatio="xMidYMid meet">
<metadata>
Created by potrace 1.16, written by Peter Selinger 2001-2019
</metadata>
<g transform="translate(0.000000,526.000000) scale(0.100000,-0.100000)"
fill="#000000" stroke="none">
<path d="M1211 5132 c-15 -28 -33 -176 -29 -229 13 -140 79 -286 165 -362 68
-61 137 -89 238 -98 63 -5 83 -2 137 18 35 13 74 29 88 36 14 7 34 13 45 13
12 0 26 5 31 10 17 17 154 41 198 35 51 -8 136 -67 136 -95 0 -22 -22 -39 -28
-22 -2 7 -13 12 -25 12 -18 0 -19 -2 -7 -10 18 -12 -78 -4 -124 11 -77 24
-238 -2 -311 -51 -16 -11 -39 -25 -50 -32 -10 -7 -45 -38 -76 -68 -31 -30 -69
-65 -84 -78 -15 -13 -24 -26 -21 -29 8 -8 57 24 88 59 15 16 32 27 38 23 5 -3
10 2 10 12 0 14 2 15 9 5 6 -11 10 -10 16 5 5 10 8 21 7 24 -2 12 35 39 57 44
12 2 35 15 52 29 56 47 161 61 279 37 36 -7 85 -15 110 -17 25 -2 46 -8 48
-14 2 -5 9 -10 17 -10 18 0 103 39 111 51 3 6 12 8 20 5 8 -3 17 1 20 9 3 7
12 11 20 8 9 -3 14 2 14 16 0 16 6 21 24 21 14 0 28 4 31 10 3 5 0 7 -9 4 -8
-3 -20 -3 -26 1 -20 12 10 35 46 35 l34 0 0 -57 c0 -32 4 -64 9 -71 4 -7 6 12
3 43 -3 32 0 66 6 78 7 12 17 36 23 52 6 17 13 24 16 17 3 -7 -2 -31 -11 -52
-10 -24 -12 -40 -5 -40 5 0 15 13 20 30 6 16 15 27 20 24 5 -3 9 9 9 25 0 27
-4 31 -26 31 -15 0 -33 -8 -41 -17 -13 -16 -14 -15 -8 10 6 28 6 28 -20 11
-29 -19 -31 -13 -9 21 9 14 12 25 6 25 -5 0 -13 -8 -17 -17 -7 -16 -9 -15 -15
7 -8 24 -8 24 -9 3 -1 -31 -31 -30 -85 2 -60 35 -85 63 -66 75 8 5 18 6 23 3
5 -3 19 -1 30 5 113 56 191 66 272 37 22 -8 57 -15 77 -15 28 0 38 -5 43 -20
8 -26 25 -26 25 1 0 11 5 17 10 14 6 -3 10 -15 10 -26 0 -10 5 -19 11 -19 6 0
8 8 4 19 -8 26 11 36 25 14 8 -13 13 -14 16 -5 7 15 36 16 51 1 8 -8 14 -5 23
10 13 26 34 17 27 -11 -5 -16 -2 -15 20 6 27 27 35 30 46 20 4 -4 24 -8 46
-10 41 -4 59 -11 127 -47 47 -25 104 -71 104 -85 0 -5 -9 -17 -20 -27 -11 -10
-18 -20 -15 -23 3 -3 14 7 25 21 44 55 166 63 256 17 33 -17 50 -23 40 -15
-19 14 -19 15 -1 15 10 0 29 -10 42 -22 13 -12 26 -18 30 -15 16 16 -97 84
-119 71 -5 -3 -38 0 -74 7 -52 10 -71 10 -99 0 -43 -15 -68 -8 -85 23 -7 14
-23 27 -36 30 -13 4 -24 13 -24 21 0 18 -16 20 -24 3 -3 -9 -11 -6 -24 10 -11
12 -27 22 -36 22 -9 0 -16 4 -16 9 0 5 -15 8 -32 7 -29 -1 -33 2 -31 24 3 23
2 23 -11 8 -24 -31 -63 -21 -57 15 3 17 -18 5 -24 -14 -5 -16 -13 -20 -31 -16
-13 2 -26 -1 -29 -7 -2 -6 -2 5 1 24 4 24 3 32 -4 25 -6 -5 -12 -21 -14 -35
-2 -14 -11 -26 -21 -28 -15 -3 -17 1 -13 25 l6 28 -11 -26 c-9 -19 -19 -25
-45 -26 -25 -1 -34 3 -34 15 0 15 -2 15 -10 2 -10 -16 -11 -15 -29 15 -11 18
-12 18 -8 -7 4 -24 1 -28 -20 -28 -19 0 -23 4 -20 23 2 12 2 16 0 10 -9 -26
-25 -12 -21 16 2 17 1 28 -4 25 -4 -3 -8 -16 -8 -30 0 -40 -20 -27 -21 14 l-1
37 -10 -32 c-12 -35 -15 -38 -37 -24 -8 5 -12 19 -9 35 3 14 1 26 -3 26 -5 0
-9 -14 -9 -30 0 -43 -26 -50 -55 -14 -12 16 -20 34 -18 41 3 7 0 13 -6 13 -6
0 -11 -19 -11 -45 0 -43 -11 -58 -25 -34 -5 6 -12 4 -21 -8 -13 -17 -13 -17
-14 5 0 12 -4 22 -10 22 -5 0 -10 -6 -10 -13 0 -18 -32 -47 -51 -47 -8 0 -27
-7 -43 -15 -27 -14 -33 -14 -70 3 -77 36 -139 44 -221 27 -86 -18 -138 -38
-180 -70 -16 -12 -55 -35 -85 -51 -48 -25 -66 -28 -140 -28 -71 0 -94 5 -143
27 -71 33 -127 76 -127 98 0 21 -40 112 -53 120 -6 5 -7 49 -3 124 6 93 5 120
-6 126 -22 14 -47 10 -57 -9z m84 -343 c10 -22 31 -50 45 -63 23 -19 113 -67
187 -99 37 -16 163 -3 218 23 47 23 65 33 133 79 31 21 131 49 197 55 85 9
212 -44 250 -103 13 -22 29 -42 35 -46 6 -4 15 -18 20 -31 11 -27 28 -31 36
-9 6 15 34 21 34 8 -1 -13 -38 -54 -47 -52 -23 4 -33 -3 -33 -23 -1 -23 -1
-23 -15 2 -14 24 -14 24 -15 3 0 -23 -20 -43 -20 -21 0 7 -8 1 -18 -14 -22
-36 -53 -36 -80 1 -22 31 -91 68 -147 81 -57 13 -243 -37 -352 -93 -39 -21
-135 -22 -213 -3 -62 15 -110 36 -110 46 0 4 -9 10 -20 13 -20 5 -28 27 -10
27 5 0 30 -11 55 -25 25 -14 45 -22 45 -17 0 11 -73 52 -93 52 -9 0 -26 14
-38 31 -12 17 -32 42 -46 57 -13 14 -21 32 -18 42 3 9 -1 30 -10 46 -8 16 -11
30 -6 32 5 2 7 12 4 22 -9 36 14 21 32 -21z m1195 -189 c0 -5 -4 -10 -10 -10
-5 0 -10 5 -10 10 0 6 5 10 10 10 6 0 10 -4 10 -10z"/>
<path d="M4200 5041 c-16 -30 -12 -61 16 -126 39 -92 42 -159 11 -226 -38 -79
-89 -124 -177 -155 -66 -23 -84 -25 -150 -19 -41 3 -77 10 -80 15 -5 8 -86 40
-103 40 -19 0 23 -29 49 -36 16 -4 35 -12 43 -18 20 -16 236 -15 253 2 6 6 19
12 28 12 21 0 109 66 143 106 15 17 31 44 37 59 8 20 14 25 21 18 14 -14 2
-88 -17 -104 -8 -6 -14 -18 -14 -25 0 -8 -27 -44 -60 -79 -33 -35 -60 -68 -60
-73 0 -4 -21 -13 -47 -21 -69 -18 -96 -33 -81 -42 16 -10 12 -13 -39 -28 -51
-14 -117 1 -231 55 -40 19 -75 34 -78 34 -3 0 -26 10 -52 21 -72 33 -124 36
-167 9 -20 -12 -43 -33 -52 -46 -17 -26 -39 -33 -29 -9 3 8 2 15 -3 15 -11 0
-23 -48 -16 -60 11 -18 25 -10 50 30 35 56 75 79 128 72 42 -4 140 -41 233
-86 46 -22 109 -43 159 -53 52 -11 200 46 264 100 47 40 107 121 131 177 33
78 41 145 25 221 -28 133 -33 143 -87 207 -31 37 -34 38 -48 13z"/>
<path d="M2625 4720 c3 -5 14 -10 23 -10 15 0 15 2 2 10 -20 13 -33 13 -25 0z"/>
<path d="M2565 4710 c-3 -5 -1 -18 4 -27 6 -10 11 -13 11 -6 0 6 3 18 6 27 7
17 -11 22 -21 6z"/>
<path d="M2616 4654 c-10 -25 1 -29 14 -5 6 12 7 21 1 21 -5 0 -12 -7 -15 -16z"/>
<path d="M2903 4653 c-3 -10 -8 -22 -11 -27 -3 -5 2 -7 11 -3 14 5 15 1 11
-26 -5 -29 -3 -28 16 12 16 35 18 46 8 53 -20 12 -28 10 -35 -9z"/>
<path d="M2647 4653 c-2 -5 -7 -20 -11 -35 -3 -15 -15 -36 -26 -46 -16 -15
-19 -24 -11 -43 5 -13 10 -18 10 -10 1 8 12 28 24 45 25 33 43 96 27 96 -5 0
-11 -3 -13 -7z"/>
<path d="M2731 4630 c-14 -41 4 -54 33 -24 22 21 20 41 -3 47 -15 4 -22 -2
-30 -23z"/>
<path d="M2960 4630 c0 -16 -4 -30 -10 -30 -5 0 -9 -19 -9 -42 1 -28 3 -34 6
-18 10 54 23 43 24 -20 1 -60 2 -62 9 -25 4 22 6 43 4 46 -2 4 5 9 16 12 21 5
36 47 26 73 -6 15 -8 15 -25 0 -17 -16 -18 -15 -14 9 4 18 1 25 -11 25 -11 0
-16 -9 -16 -30z"/>
<path d="M2690 4624 c-6 -14 -10 -30 -10 -35 0 -6 -4 -7 -10 -4 -5 3 -10 -1
-10 -9 0 -33 29 -14 43 29 16 47 4 65 -13 19z"/>
<path d="M3172 4620 c0 -19 2 -27 5 -17 2 9 2 25 0 35 -3 9 -5 1 -5 -18z"/>
<path d="M3113 4612 c-13 -15 -23 -35 -23 -45 0 -10 -5 -27 -10 -37 -7 -13 -7
-21 0 -25 5 -3 10 1 10 9 0 9 4 16 9 16 12 0 25 -56 16 -70 -3 -5 3 -10 13
-10 17 0 19 5 15 38 -6 44 14 72 50 72 16 0 22 6 23 23 0 12 4 31 8 42 4 11
-3 3 -15 -17 -13 -22 -31 -38 -41 -38 -10 0 -17 3 -17 8 4 21 -2 62 -8 62 -5
0 -18 -13 -30 -28z m27 -22 c0 -5 -4 -10 -10 -10 -5 0 -10 5 -10 10 0 6 5 10
10 10 6 0 10 -4 10 -10z"/>
<path d="M3048 4593 c-3 -16 -9 -36 -13 -45 -14 -34 11 -18 28 17 21 43 21 55
3 55 -7 0 -16 -12 -18 -27z"/>
<path d="M3290 4575 c-7 -9 -10 -18 -7 -21 3 -3 10 4 17 15 13 25 8 27 -10 6z"/>
<path d="M2906 4480 c-3 -44 -9 -93 -12 -110 -4 -17 -2 -30 4 -30 9 0 29 207
19 216 -2 2 -7 -32 -11 -76z"/>
<path d="M2837 4463 c-3 -44 -2 -82 4 -87 5 -6 9 22 9 77 0 48 -2 87 -4 87 -2
0 -6 -35 -9 -77z"/>
<path d="M2633 4430 c-1 -56 2 -83 6 -65 4 17 4 59 0 95 -6 62 -6 60 -6 -30z"/>
<path d="M2722 4495 c0 -16 2 -22 5 -12 2 9 2 23 0 30 -3 6 -5 -1 -5 -18z"/>
<path d="M2773 4480 c0 -25 2 -35 4 -22 2 12 2 32 0 45 -2 12 -4 2 -4 -23z"/>
<path d="M2867 4449 c2 -96 13 -101 13 -6 0 43 -3 77 -7 77 -5 0 -7 -32 -6
-71z"/>
<path d="M2682 4470 c0 -19 2 -27 5 -17 2 9 2 25 0 35 -3 9 -5 1 -5 -18z"/>
<path d="M2801 4471 c-1 -24 2 -32 9 -25 7 7 7 19 1 35 -9 23 -10 22 -10 -10z"/>
<path d="M3070 4480 c0 -5 5 -10 11 -10 5 0 7 5 4 10 -3 6 -8 10 -11 10 -2 0
-4 -4 -4 -10z"/>
<path d="M3230 4455 c-8 -9 -8 -15 -2 -15 12 0 26 19 19 26 -2 2 -10 -2 -17
-11z"/>
<path d="M2723 4375 c0 -38 2 -53 4 -32 2 20 2 52 0 70 -2 17 -4 1 -4 -38z"/>
<path d="M3154 4423 c4 -9 1 -20 -6 -25 -8 -5 -1 -8 20 -8 27 0 32 -4 32 -24
0 -19 4 -23 20 -19 13 3 20 0 20 -8 0 -24 147 -19 190 6 27 16 53 20 120 20
91 0 150 -18 227 -71 58 -39 153 -133 153 -152 0 -10 9 -34 20 -55 11 -20 20
-45 20 -55 0 -20 59 -82 78 -82 18 0 16 6 -31 73 -24 34 -49 80 -56 102 -14
43 -36 66 -140 149 -101 81 -136 96 -249 103 -84 4 -103 2 -145 -16 -95 -41
-161 -27 -235 52 -30 30 -47 35 -38 10z"/>
<path d="M3262 4420 c-7 -11 -8 -20 -2 -20 5 0 14 9 20 20 6 11 7 20 3 20 -5
0 -14 -9 -21 -20z"/>
<path d="M2426 4375 c-14 -46 -15 -58 -4 -77 12 -21 13 -19 18 34 9 96 23 80
17 -21 -2 -54 -1 -88 4 -80 5 8 9 56 9 107 0 109 -16 123 -44 37z"/>
<path d="M2761 4373 c1 -57 1 -58 10 -18 11 55 11 75 -1 75 -6 0 -9 -25 -9
-57z"/>
<path d="M3005 4420 c-3 -5 -1 -18 4 -27 9 -16 10 -14 11 10 0 28 -5 34 -15
17z"/>
<path d="M3301 4399 c-13 -38 -13 -39 -3 -39 5 0 16 16 25 35 14 28 14 35 3
35 -8 0 -19 -14 -25 -31z"/>
<path d="M3060 4405 c0 -8 5 -15 10 -15 6 0 10 7 10 15 0 8 -4 15 -10 15 -5 0
-10 -7 -10 -15z"/>
<path d="M2797 4363 c7 -71 11 -75 12 -10 1 31 -3 57 -8 57 -5 0 -6 -21 -4
-47z"/>
<path d="M2672 4328 c-2 -59 -8 -68 -30 -46 -23 23 -12 1 13 -26 13 -14 37
-28 52 -30 15 -2 20 -1 10 1 -9 2 -14 9 -11 15 4 6 0 16 -9 23 -10 7 -17 31
-20 66 l-3 54 -2 -57z"/>
<path d="M3955 4370 c27 -12 43 -12 25 0 -8 5 -22 9 -30 9 -10 0 -8 -3 5 -9z"/>
<path d="M1961 4308 c0 -35 4 -72 9 -83 5 -11 9 -15 9 -9 1 6 12 17 26 24 19
10 25 21 25 47 0 18 -4 33 -10 33 -5 0 -10 7 -10 15 0 10 -7 15 -17 13 -10 -2
-17 3 -15 10 1 6 -2 12 -8 12 -6 0 -10 -27 -9 -62z"/>
<path d="M2531 4344 c0 -11 3 -14 6 -6 3 7 2 16 -1 19 -3 4 -6 -2 -5 -13z"/>
<path d="M2831 4344 c0 -11 3 -14 6 -6 3 7 2 16 -1 19 -3 4 -6 -2 -5 -13z"/>
<path d="M2502 4330 c0 -14 2 -19 5 -12 2 6 2 18 0 25 -3 6 -5 1 -5 -13z"/>
<path d="M2872 4325 c0 -16 2 -22 5 -12 2 9 2 23 0 30 -3 6 -5 -1 -5 -18z"/>
<path d="M1898 4310 c-7 -17 -18 -28 -25 -25 -7 2 -13 -1 -14 -8 0 -7 -3 -23
-5 -37 -6 -31 3 -70 16 -70 6 0 10 10 11 23 0 12 3 16 6 9 2 -6 9 -9 14 -6 6
3 16 1 23 -5 11 -9 15 -3 20 26 10 61 7 131 -4 113 -6 -10 -10 -11 -10 -2 0
22 -18 12 -32 -18z"/>
<path d="M2190 4260 c-41 -43 -80 -79 -86 -80 -6 0 -19 -9 -29 -20 -10 -11
-24 -20 -31 -20 -22 0 -164 -122 -164 -141 0 -18 15 -8 35 21 11 17 29 33 40
36 10 4 28 17 38 30 10 13 28 24 40 24 12 0 28 9 34 20 7 11 26 26 41 34 34
18 159 132 173 158 23 42 -20 13 -91 -62z"/>
<path d="M2574 4325 c-15 -11 -17 -16 -6 -26 10 -11 12 -10 12 3 0 9 8 18 18
20 11 2 13 6 6 10 -6 4 -20 1 -30 -7z"/>
<path d="M2895 4322 c-12 -12 -4 -20 15 -15 26 7 38 -38 18 -70 -20 -31 -30
-59 -18 -52 14 9 43 66 46 90 1 11 -3 27 -9 36 -11 15 -41 21 -52 11z"/>
<path d="M2570 4255 c-13 -35 -14 -106 0 -85 5 8 10 29 10 47 0 21 5 33 17 35
15 3 15 4 0 17 -15 11 -18 10 -27 -14z"/>
<path d="M2830 4262 c0 -10 4 -11 13 -5 6 6 19 13 27 16 8 3 3 5 -12 4 -17 -1
-28 -7 -28 -15z"/>
<path d="M1806 4238 c-9 -37 -7 -118 4 -118 6 0 10 15 10 33 0 17 3 49 6 70 7
40 -9 53 -20 15z"/>
<path d="M2790 4256 c0 -2 7 -7 16 -10 8 -3 12 -2 9 4 -6 10 -25 14 -25 6z"/>
<path d="M1768 4198 c5 -54 8 -65 17 -57 7 8 -7 109 -15 109 -4 0 -5 -24 -2
-52z"/>
<path d="M3506 4228 c-13 -18 -16 -19 -16 -5 0 27 -17 20 -25 -10 -4 -19 -2
-31 9 -39 9 -6 14 -18 10 -27 -6 -17 11 -32 21 -17 11 18 25 11 25 -14 0 -13
7 -30 16 -37 14 -11 18 -10 27 6 11 19 12 18 18 -10 5 -22 7 -12 8 34 1 72 9
77 15 10 2 -24 9 -43 15 -41 6 1 11 -7 11 -18 0 -11 3 -20 8 -20 9 0 9 86 0
95 -4 4 -5 23 -2 43 3 31 2 33 -5 12 l-9 -25 -7 23 c-4 12 -11 22 -16 22 -5 0
-9 9 -9 20 0 18 -3 19 -20 10 -14 -7 -20 -7 -20 0 0 19 -39 10 -54 -12z m64
-72 c0 -3 -4 -8 -10 -11 -5 -3 -10 -1 -10 4 0 6 5 11 10 11 6 0 10 -2 10 -4z
m17 -38 c-3 -7 -5 -2 -5 12 0 14 2 19 5 13 2 -7 2 -19 0 -25z"/>
<path d="M1553 4205 c-29 -19 -57 -35 -63 -35 -5 0 -10 -4 -10 -10 0 -17 16
-11 71 26 64 44 77 54 63 54 -5 0 -33 -16 -61 -35z"/>
<path d="M2327 4224 c-8 -8 1 -24 14 -24 5 0 9 7 9 15 0 15 -12 20 -23 9z"/>
<path d="M3182 4190 c0 -19 2 -27 5 -17 2 9 2 25 0 35 -3 9 -5 1 -5 -18z"/>
<path d="M1726 4192 c-7 -21 -2 -80 8 -89 3 -4 6 19 6 50 0 59 -4 70 -14 39z"/>
<path d="M3138 4194 c-4 -6 -7 -56 -6 -110 1 -83 2 -93 10 -59 10 46 7 186 -4
169z"/>
<path d="M3213 4131 c-1 -39 -4 -85 -8 -103 -4 -22 -3 -28 4 -18 13 21 26 190
14 190 -5 0 -9 -31 -10 -69z"/>
<path d="M1677 4183 c-9 -8 -9 -46 -1 -67 10 -27 24 -18 24 17 0 35 -12 61
-23 50z"/>
<path d="M2231 4165 c-10 -131 -10 -132 0 -97 6 19 8 55 6 80 -2 31 -4 37 -6
17z"/>
<path d="M2279 4183 c0 -5 -2 -15 -3 -23 -2 -8 -7 -45 -10 -82 -5 -45 -12 -68
-20 -68 -18 0 -46 -33 -46 -53 0 -9 -3 -17 -7 -17 -5 0 -6 46 -5 102 2 57 0
100 -4 95 -10 -10 -17 -240 -7 -234 5 3 7 -12 5 -34 -4 -41 25 -139 41 -139 6
0 8 -65 5 -167 -3 -98 -2 -150 3 -125 5 24 10 94 11 155 3 97 5 112 21 115 15
3 17 -8 19 -120 l2 -123 5 115 c9 175 19 118 15 -80 -3 -174 -7 -220 -18 -238
-3 -5 1 -17 8 -27 12 -16 14 -9 20 56 4 41 7 113 8 161 1 48 5 85 10 82 4 -3
7 10 7 28 -2 29 -2 30 -8 8 -3 -15 -8 10 -11 60 -3 55 0 102 8 135 8 28 12 80
10 123 -3 69 -6 76 -35 100 -23 20 -31 34 -28 52 12 96 17 150 11 150 -3 0 -6
-3 -7 -7z m19 -217 c38 -49 24 -175 -25 -219 -24 -21 -32 -14 -58 57 -16 42
-17 56 -7 103 6 31 17 61 23 69 17 21 45 17 67 -10z m2 -248 c0 -19 -2 -20
-10 -8 -13 19 -13 30 0 30 6 0 10 -10 10 -22z"/>
<path d="M2250 3920 c-16 -10 -24 -50 -10 -50 6 0 10 -7 10 -16 0 -8 -4 -12
-10 -9 -16 10 -12 -11 5 -25 21 -18 27 -9 33 48 4 51 -4 67 -28 52z"/>
<path d="M2308 4119 c-2 -39 0 -73 5 -76 4 -2 8 16 8 41 1 25 2 60 3 76 0 17
-2 30 -6 30 -3 0 -8 -32 -10 -71z"/>
<path d="M2349 4122 c-2 -41 0 -80 4 -88 5 -9 7 -55 5 -105 -3 -49 -1 -89 4
-89 4 0 8 53 8 119 0 93 3 121 15 131 13 11 15 4 15 -52 0 -36 -7 -129 -16
-206 -8 -78 -14 -167 -12 -199 2 -42 6 -17 16 92 7 83 17 199 23 259 10 109 8
143 -11 131 -6 -4 -10 6 -11 22 0 24 -1 25 -9 8 -8 -21 -14 -14 -23 30 -2 11
-6 -13 -8 -53z"/>
<path d="M3250 4075 c0 -94 -3 -117 -15 -121 -18 -7 -20 -24 -2 -24 50 0 48
-200 -3 -213 -28 -7 -65 9 -77 33 -27 52 -6 172 32 186 21 8 19 22 -2 20 -18
-1 -31 -17 -54 -66 -18 -37 -15 -120 4 -157 11 -20 13 -34 7 -38 -13 -8 -13
-25 0 -25 6 0 10 6 10 13 0 8 15 12 43 12 43 0 60 10 84 50 6 11 17 19 23 17
8 -2 10 5 6 22 -13 53 -17 144 -9 223 5 45 6 90 2 100 -5 10 -8 -10 -10 -49
-1 -38 -3 -72 -4 -78 -1 -5 -3 -17 -4 -25 0 -8 -6 -15 -12 -15 -7 0 -9 40 -7
125 2 69 0 125 -4 125 -5 0 -8 -52 -8 -115z"/>
<path d="M3681 4133 c-1 -50 2 -61 13 -57 8 3 16 23 18 43 2 27 0 37 -9 34 -6
-2 -13 6 -16 19 -2 13 -5 -5 -6 -39z"/>
<path d="M3340 4173 c0 -16 33 -73 43 -73 13 0 7 15 -18 50 -14 19 -25 29 -25
23z"/>
<path d="M1541 4157 c-6 -8 -29 -22 -51 -32 -22 -10 -40 -22 -40 -27 0 -13 12
-10 48 12 32 19 43 15 20 -8 -6 -6 -13 -21 -15 -32 -3 -18 -1 -19 17 -8 19 12
22 19 25 59 0 9 7 24 14 33 7 9 9 16 3 16 -5 0 -15 -6 -21 -13z"/>
<path d="M2747 4133 c-4 -3 -7 -21 -7 -39 0 -18 -5 -34 -11 -36 -13 -4 -17
-214 -5 -265 10 -42 30 -43 24 -2 -3 20 0 33 9 36 7 3 10 9 7 14 -3 6 -3 28 1
51 4 24 10 36 15 29 10 -17 -1 -115 -14 -123 -6 -4 -7 -11 -2 -15 14 -15 36
30 36 76 0 94 -13 240 -21 235 -5 -2 -6 -18 -3 -33 4 -16 1 -37 -6 -48 -9 -14
-10 -6 -7 43 5 59 -2 92 -16 77z"/>
<path d="M3096 4051 c-4 -52 -10 -100 -13 -107 -3 -8 -1 -14 5 -14 11 0 27
149 20 190 -2 14 -7 -17 -12 -69z"/>
<path d="M3738 4103 c-2 -16 -1 -41 3 -58 5 -23 7 -16 8 28 1 60 -4 75 -11 30z"/>
<path d="M3173 4085 c0 -22 2 -30 4 -17 2 12 2 30 0 40 -3 9 -5 -1 -4 -23z"/>
<path d="M2141 4053 c1 -62 6 -56 11 15 2 23 0 42 -4 42 -5 0 -7 -26 -7 -57z"/>
<path d="M3769 4105 c-3 -5 -6 -25 -8 -44 -1 -26 2 -32 14 -27 8 3 15 0 15 -7
0 -6 7 -1 16 11 9 14 13 30 8 44 -6 21 -6 21 -19 -3 l-13 -24 -4 30 c-1 17 -6
26 -9 20z"/>
<path d="M3049 4028 c0 -29 -2 -91 -4 -138 -4 -116 11 -50 20 86 5 73 4 104
-4 104 -7 0 -11 -21 -12 -52z"/>
<path d="M1544 4055 c-4 -8 -12 -15 -20 -15 -8 0 -14 -5 -14 -11 0 -5 13 -2
30 8 30 17 39 33 20 33 -6 0 -13 -7 -16 -15z"/>
<path d="M3322 4040 c-7 -95 -7 -138 1 -125 4 8 6 47 4 87 -1 40 -4 57 -5 38z"/>
<path d="M3421 4029 c32 -41 103 -99 121 -99 5 0 25 -12 44 -26 19 -15 37 -24
41 -20 3 3 4 7 2 9 -2 1 -18 12 -36 25 -18 12 -35 22 -39 22 -16 0 -114 82
-114 95 0 13 -29 35 -45 35 -4 0 8 -19 26 -41z"/>
<path d="M3703 4035 c0 -22 2 -30 4 -17 2 12 2 30 0 40 -3 9 -5 -1 -4 -23z"/>
<path d="M2057 3937 c-4 -56 -10 -142 -13 -191 -5 -58 -4 -87 3 -83 5 4 13 59
17 124 8 141 16 216 23 223 3 3 2 -55 -1 -129 -4 -74 -4 -133 -1 -130 3 4 18
146 17 179 0 91 -3 106 -21 107 -16 1 -19 -9 -24 -100z"/>
<path d="M1822 3993 c-31 -38 -18 -41 20 -4 21 20 27 31 17 31 -9 0 -25 -12
-37 -27z"/>
<path d="M1936 3992 c-4 -17 -23 -51 -43 -74 -32 -39 -34 -45 -28 -87 4 -25
15 -63 25 -86 55 -122 90 -219 90 -251 0 -10 6 -30 13 -44 25 -48 37 -90 25
-90 -7 0 -5 -7 4 -17 16 -20 34 -127 45 -278 8 -110 8 -109 -2 -147 -6 -22 -4
-28 8 -28 25 0 31 76 18 213 -15 160 -39 286 -59 317 -9 14 -22 48 -28 75 -26
107 -35 136 -67 207 -34 73 -53 183 -35 194 17 11 49 86 46 107 -3 18 -5 16
-12 -11z"/>
<path d="M1523 3997 c-24 -10 -31 -27 -12 -27 11 0 44 29 38 34 -2 2 -14 -1
-26 -7z"/>
<path d="M3161 3994 c0 -11 3 -14 6 -6 3 7 2 16 -1 19 -3 4 -6 -2 -5 -13z"/>
<path d="M3350 3953 c0 -32 -2 -83 -5 -113 -4 -45 -3 -49 5 -25 11 37 18 195
8 195 -5 0 -8 -26 -8 -57z"/>
<path d="M2416 3888 c-19 -325 -14 -376 9 -91 l14 168 -5 -152 c-2 -84 -7
-160 -10 -170 -5 -16 -4 -16 5 -2 6 9 14 78 19 155 8 115 7 143 -5 162 -7 12
-11 27 -8 32 3 6 2 10 -3 10 -5 0 -12 -51 -16 -112z"/>
<path d="M1727 3972 c-10 -10 -17 -25 -17 -32 0 -7 11 -1 25 14 14 15 25 29
25 32 0 10 -18 3 -33 -14z"/>
<path d="M3389 3933 c-1 -32 -3 -75 -5 -95 -2 -21 1 -40 6 -43 6 -4 10 33 10
94 0 107 -9 141 -11 44z"/>
<path d="M1556 3949 c-17 -15 -27 -31 -24 -35 7 -6 68 45 68 58 0 14 -14 7
-44 -23z"/>
<path d="M1628 3962 c-7 -10 -21 -21 -30 -25 -10 -3 -18 -11 -18 -17 0 -6 13
-2 28 9 36 26 58 51 44 51 -6 0 -17 -8 -24 -18z"/>
<path d="M2481 3968 c0 -7 4 -22 9 -33 7 -17 9 -15 9 13 1 17 -3 32 -9 32 -5
0 -10 -6 -9 -12z"/>
<path d="M3970 3975 c0 -5 12 -22 28 -38 l27 -29 -35 17 -35 17 25 -23 c13
-13 25 -24 25 -23 0 0 8 5 18 10 15 9 14 13 -18 44 -19 19 -35 30 -35 25z"/>
<path d="M1650 3935 c-19 -19 -29 -35 -24 -35 12 0 68 60 62 66 -3 2 -20 -12
-38 -31z"/>
<path d="M2018 3964 c-5 -4 -7 -50 -7 -103 l2 -96 8 90 c10 95 9 122 -3 109z"/>
<path d="M2119 3938 c-1 -18 -3 -71 -5 -118 -1 -47 -5 -109 -8 -137 -4 -30 -2
-53 3 -53 5 0 12 57 15 128 4 70 8 146 11 170 3 24 0 42 -5 42 -6 0 -11 -15
-11 -32z"/>
<path d="M3018 3954 c-4 -5 -9 -44 -12 -85 l-5 -74 15 70 c14 69 15 111 2 89z"/>
<path d="M3439 3908 c0 -29 -1 -81 -3 -115 -1 -35 1 -63 6 -63 4 0 8 52 8 115
0 63 -2 115 -5 115 -3 0 -5 -24 -6 -52z"/>
<path d="M2963 3923 c-13 -46 -10 -326 4 -330 8 -3 11 36 10 144 -1 81 1 163
5 181 9 39 -8 44 -19 5z"/>
<path d="M3480 3921 c0 -16 5 -33 10 -36 6 -4 10 6 10 24 0 16 -4 33 -10 36
-6 4 -10 -6 -10 -24z"/>
<path d="M2473 3845 c0 -44 2 -61 4 -37 2 23 2 59 0 80 -2 20 -4 1 -4 -43z"/>
<path d="M3900 3912 c0 -11 80 -36 87 -28 3 3 -3 8 -13 12 -10 3 -29 10 -42
15 -28 11 -32 11 -32 1z"/>
<path d="M3197 3894 c-4 -4 -7 -26 -7 -50 0 -30 5 -44 17 -48 25 -10 35 7 31
55 -3 42 -22 62 -41 43z"/>
<path d="M3841 3881 c-8 -5 -29 -7 -46 -4 -19 3 -35 0 -39 -6 -4 -6 -17 -11
-29 -11 -30 0 -9 -16 31 -23 31 -6 45 5 20 17 -14 7 35 -1 66 -11 15 -4 18 -1
13 11 -6 14 1 15 51 11 l57 -5 -50 14 c-60 18 -57 18 -74 7z"/>
<path d="M2490 3821 c0 -43 -4 -60 -15 -65 -11 -4 -14 -19 -13 -53 l2 -48 3
49 c4 45 6 48 29 43 27 -5 27 -3 18 81 -9 70 -24 66 -24 -7z"/>
<path d="M3640 3862 c0 -8 14 -16 63 -40 4 -2 7 0 7 5 0 8 -52 43 -64 43 -3 0
-6 -4 -6 -8z"/>
<path d="M2140 3792 c0 -33 -2 -101 -5 -153 -3 -58 -2 -84 4 -69 14 42 24 280
12 280 -7 0 -11 -23 -11 -58z"/>
<path d="M2346 3763 c-4 -38 -9 -88 -11 -112 -5 -41 6 -53 11 -14 8 52 16 193
11 193 -3 0 -8 -30 -11 -67z"/>
<path d="M6485 3813 c-63 -7 -221 -47 -240 -59 -11 -8 -25 -14 -33 -14 -7 0
-38 -11 -68 -25 -30 -14 -57 -25 -59 -25 -21 0 -133 -64 -251 -145 -59 -39
-130 -112 -173 -175 -57 -85 -96 -125 -151 -157 -92 -54 -117 -82 -125 -137
-10 -62 1 -125 31 -183 l24 -48 -29 -25 c-65 -56 -68 -113 -11 -185 22 -27 45
-60 51 -72 7 -13 20 -25 29 -28 15 -5 70 -98 70 -119 0 -4 20 -40 45 -80 79
-126 213 -222 370 -264 22 -6 72 -20 110 -31 39 -11 93 -22 122 -25 28 -4 111
-19 185 -35 73 -16 180 -34 238 -40 158 -16 448 -22 554 -11 178 18 201 22
321 47 66 14 162 34 213 44 51 10 109 26 130 35 20 8 64 25 97 36 123 43 223
107 344 222 47 45 109 93 136 106 105 51 175 117 175 165 0 14 -5 16 -27 10
-36 -9 -38 -12 -24 -29 18 -22 -28 -69 -121 -121 -44 -25 -83 -45 -87 -45 -3
0 -24 -19 -46 -41 -22 -23 -50 -45 -63 -50 -12 -5 -21 -13 -20 -18 4 -13 -97
-91 -117 -91 -10 0 -23 7 -29 16 -12 16 -54 8 -55 -11 -1 -5 -6 -12 -12 -14
-7 -2 -9 1 -5 8 8 12 -13 15 -38 5 -14 -5 -14 -7 0 -21 13 -13 22 -14 52 -5
34 11 61 8 31 -2 -69 -25 -73 -27 -59 -36 9 -6 1 -12 -31 -20 -24 -6 -59 -18
-77 -26 -18 -9 -50 -18 -70 -21 -20 -3 -42 -9 -48 -14 -5 -5 -23 -5 -40 0
l-29 8 40 8 c22 5 43 9 47 9 3 1 10 4 14 9 9 8 -91 9 -123 1 -13 -4 -23 -10
-23 -14 0 -4 10 -11 23 -14 21 -6 21 -7 4 -20 -20 -16 -155 -42 -164 -32 -3 3
-11 2 -17 -3 -18 -15 -96 -24 -96 -12 0 6 16 11 35 11 19 0 35 4 35 9 0 5 8
12 18 15 9 2 -5 2 -33 -1 -62 -7 -85 -18 -85 -42 0 -16 -8 -19 -52 -18 -29 0
-77 -3 -107 -8 -48 -7 -54 -6 -48 8 5 14 -1 17 -31 18 -31 1 -27 4 28 15 l65
13 -84 -5 c-90 -5 -111 -14 -111 -46 0 -18 -5 -20 -31 -14 -17 3 -67 6 -111 6
-50 0 -77 4 -73 10 3 5 -2 10 -12 11 -15 0 -14 2 3 9 25 10 40 29 25 31 -26 3
-30 4 -37 12 -14 14 -74 8 -74 -8 0 -11 -12 -15 -47 -15 -32 0 -43 -3 -34 -9
8 -5 12 -15 9 -22 -8 -22 -134 -13 -142 9 -3 9 -10 24 -16 32 -5 8 -14 27 -20
43 -8 23 -15 27 -45 27 -22 0 -34 -4 -30 -10 4 -6 -8 -10 -29 -10 -19 0 -38
-4 -41 -10 -3 -5 -18 -11 -33 -11 -17 -1 -21 -3 -9 -6 9 -2 17 -8 17 -12 0 -7
-46 -1 -110 14 -8 2 -18 4 -22 4 -5 1 -8 8 -8 16 0 8 -3 16 -7 16 -34 6 -52 5
-47 -3 7 -10 -10 -8 -121 17 -38 8 -71 15 -72 15 -2 0 -3 4 -3 10 0 5 7 6 17
3 11 -4 14 -3 9 5 -4 7 -13 12 -20 12 -7 0 -23 11 -36 25 -13 14 -28 25 -34
25 -6 0 -2 -7 8 -15 11 -8 17 -17 14 -21 -11 -10 -48 16 -48 34 0 9 -9 23 -20
30 -11 7 -20 22 -20 33 0 17 -3 19 -14 10 -11 -9 -15 -7 -21 11 -10 31 -12 40
-14 61 0 10 -7 17 -13 14 -27 -10 -46 22 -40 69 4 35 2 45 -9 44 -30 -5 -39 1
-39 25 0 14 -4 25 -9 25 -18 0 -42 33 -36 48 5 12 3 13 -10 2 -14 -12 -16 -10
-14 21 4 60 0 89 -15 89 -10 0 -12 7 -8 22 3 14 2 19 -6 14 -7 -4 -12 -24 -13
-44 0 -30 -2 -33 -9 -17 -5 11 -9 16 -9 10 -1 -5 -5 -3 -10 4 -6 9 -6 22 0 32
5 10 9 26 8 36 0 12 -5 9 -14 -11 -12 -29 -13 -29 -24 -8 -6 11 -11 30 -11 41
0 10 -6 21 -12 24 -20 7 21 57 68 84 31 17 55 22 115 23 65 0 76 2 76 18 0 9
-3 19 -8 22 -4 3 -1 14 7 24 13 18 14 18 24 -10 6 -16 9 -41 6 -56 -3 -16 0
-31 9 -38 8 -7 15 -21 15 -32 0 -11 5 -18 13 -15 6 2 25 -6 40 -19 23 -19 31
-21 46 -12 16 10 23 7 46 -18 22 -23 24 -30 11 -32 -9 -2 -16 -8 -16 -13 0 -5
-4 -9 -10 -9 -5 0 -10 9 -10 19 0 11 -4 23 -10 26 -5 3 -10 -2 -10 -11 0 -10
-16 -35 -36 -55 l-36 -36 27 -7 c27 -7 51 3 28 11 -21 8 -15 22 7 16 22 -6 28
12 8 20 -7 3 4 3 25 0 30 -5 41 -2 52 13 7 10 16 16 19 13 8 -8 -137 -150
-170 -167 -14 -8 -23 -16 -20 -19 11 -11 102 58 151 113 87 99 102 109 90 61
-7 -26 -177 -197 -196 -197 -6 0 -22 -9 -36 -20 -37 -29 -15 -25 47 9 29 16
60 27 68 23 12 -4 14 -1 9 12 -5 14 -3 17 8 13 8 -4 17 -2 20 3 3 4 -1 11 -7
13 -7 3 -2 6 11 6 19 1 22 4 14 12 -19 19 5 47 35 41 17 -3 23 -1 18 7 -4 6
-2 11 3 11 6 0 11 -4 11 -9 0 -16 -27 -31 -44 -25 -9 3 -16 2 -16 -4 0 -5 8
-13 17 -16 14 -6 10 -13 -22 -46 -22 -22 -34 -40 -28 -40 15 0 89 87 109 128
17 37 71 102 85 102 20 0 -76 -162 -114 -191 -12 -10 -18 -23 -14 -33 7 -19
27 -22 27 -3 0 6 14 18 31 26 19 8 28 18 25 27 -3 8 -1 14 5 14 6 0 17 7 26
16 14 14 14 16 -2 28 -12 8 -14 15 -7 20 6 3 13 2 17 -4 13 -20 36 -9 52 25
12 25 23 35 40 35 13 0 23 -6 23 -14 0 -33 -50 -105 -123 -179 -43 -43 -76
-81 -73 -84 3 -3 44 32 90 78 57 58 92 103 110 140 25 56 51 87 63 76 3 -4 -4
-27 -16 -52 -11 -24 -21 -49 -21 -54 0 -4 -8 -19 -18 -32 -31 -40 -84 -141
-70 -133 7 5 20 7 30 6 9 -2 19 2 23 8 3 5 0 10 -7 10 -8 1 -6 6 6 15 15 11
16 15 5 16 -8 0 -3 5 11 10 18 7 21 12 11 18 -9 6 -6 10 11 15 14 4 18 9 11
13 -18 7 -16 26 2 19 9 -3 15 0 15 9 0 8 5 15 11 15 8 0 8 4 0 14 -10 11 -8
16 8 21 23 7 28 31 9 38 -24 8 -3 15 30 10 30 -5 33 -8 27 -32 -9 -37 -62
-149 -86 -183 -24 -32 -19 -49 6 -24 16 16 105 198 105 214 0 14 39 46 47 39
9 -10 -65 -226 -89 -260 -11 -16 -18 -30 -16 -31 1 -2 20 -1 41 2 38 4 49 18
22 28 -20 8 -9 24 18 24 20 0 20 0 1 15 -10 8 -14 15 -9 14 24 -3 27 2 9 16
-18 14 -18 14 6 15 24 1 24 1 6 15 -19 15 -19 15 1 15 11 0 24 7 27 16 9 22 8
24 -10 24 -11 0 -14 5 -10 16 3 9 6 20 6 25 0 6 9 7 20 4 16 -5 20 -2 20 14 0
17 6 21 35 21 33 0 35 -2 29 -27 -11 -48 -67 -187 -82 -205 -13 -15 -13 -18
-1 -18 20 0 86 142 104 225 13 61 45 74 45 19 0 -37 -43 -154 -86 -236 l-25
-48 25 0 c14 0 28 5 31 10 3 6 1 10 -4 10 -6 0 -11 5 -11 10 0 6 5 10 11 10
12 0 45 38 48 55 2 6 8 17 16 25 21 24 30 90 14 101 -11 7 -9 9 6 10 l20 0
-20 9 c-13 6 -15 9 -5 9 8 1 20 9 27 20 6 10 23 21 38 23 24 5 26 3 20 -21 -3
-14 -7 -35 -9 -46 -5 -25 -52 -184 -61 -207 -9 -23 11 -23 24 0 11 20 57 210
65 266 6 47 23 68 36 46 5 -8 8 -28 6 -45 -9 -62 -26 -164 -32 -178 -8 -23 19
-39 40 -24 17 13 17 14 1 30 -14 15 -15 17 -1 17 9 0 16 6 16 14 0 8 6 17 13
19 6 3 1 6 -12 6 -24 1 -24 1 -5 16 19 14 19 14 -1 15 -19 0 -18 2 4 19 17 13
25 30 26 56 2 23 10 44 20 51 23 17 75 12 86 -8 8 -14 -14 -189 -37 -306 -4
-20 -3 -32 4 -32 13 0 34 35 26 43 -3 3 1 15 8 26 11 18 11 23 -2 31 -12 8
-12 10 3 16 9 3 17 10 17 16 0 5 -5 6 -11 2 -7 -4 -9 1 -7 12 2 11 10 18 16
17 7 -2 11 0 10 5 -1 4 4 25 11 47 10 28 11 40 3 43 -8 2 -7 9 4 19 18 18 15
44 -6 51 -13 5 -13 3 0 -13 13 -16 13 -18 0 -13 -30 10 -15 33 25 39 22 4 42
5 43 4 2 -2 -1 -19 -6 -37 -14 -44 -16 -286 -2 -272 5 5 10 61 11 123 2 120
17 212 35 218 12 4 37 -54 30 -66 -3 -4 -7 -47 -11 -96 -3 -50 -8 -116 -11
-147 -5 -69 8 -83 26 -26 8 30 9 43 1 46 -8 3 -7 10 1 25 16 29 21 60 8 52 -5
-3 -10 -2 -10 4 0 5 4 12 9 15 4 3 7 17 6 31 -2 14 0 23 3 21 4 -2 13 2 20 10
12 13 8 18 -10 15 -5 0 -8 4 -8 9 0 6 6 10 13 10 8 0 7 4 -3 11 -11 8 -12 12
-2 16 6 2 10 9 6 14 -3 5 8 9 24 9 30 0 30 0 25 -52 -4 -58 -7 -84 -18 -170
-6 -41 -4 -58 4 -58 6 0 11 10 11 23 0 12 7 82 15 156 13 123 24 165 41 148
10 -10 4 -197 -8 -245 -8 -32 -8 -46 1 -55 8 -8 11 -5 11 11 0 12 4 22 9 22 5
0 12 7 15 16 3 8 2 12 -4 9 -6 -3 -10 -1 -10 4 0 6 7 11 15 11 21 0 19 20 -2
20 -16 1 -16 2 1 15 24 18 30 45 10 45 -17 0 -19 16 -3 26 8 4 7 9 -2 15 -11
6 -10 9 4 15 17 6 17 7 1 19 -15 10 -8 12 40 11 l58 0 -4 -109 c-3 -59 -1
-110 3 -113 9 -5 19 74 22 183 2 45 6 85 10 89 17 18 35 -65 32 -156 -3 -115
2 -157 21 -164 12 -5 14 1 8 29 -5 29 -3 35 11 35 12 0 16 8 13 33 -2 19 -8
31 -15 30 -7 -2 -13 2 -13 7 0 6 5 10 10 10 6 0 10 5 10 11 0 6 -7 9 -15 5 -8
-3 -15 -1 -15 4 0 6 7 10 15 10 21 0 19 17 -2 23 -15 4 -15 6 5 12 12 4 22 15
22 26 0 17 27 39 47 39 5 0 10 -39 12 -87 1 -49 7 -92 13 -98 7 -7 9 22 5 98
-3 59 -1 109 3 112 10 6 37 -82 52 -167 6 -32 14 -58 19 -58 5 0 9 7 9 15 0 8
5 15 10 15 6 0 10 14 10 31 0 26 -3 30 -22 25 -13 -3 -17 -3 -10 0 17 8 15 24
-3 24 -20 0 -19 10 3 26 16 13 16 14 0 8 -10 -3 -18 -2 -18 4 0 6 -3 17 -6 25
-4 11 5 15 38 16 24 1 52 2 62 4 28 3 31 -19 4 -28 l-23 -8 22 -4 c27 -5 38
-39 30 -88 -4 -22 -1 -38 8 -45 20 -16 24 -1 14 55 -9 60 -11 149 -3 158 14
13 34 -7 40 -41 9 -54 45 -165 56 -177 7 -7 8 1 3 22 -4 22 -2 33 7 36 7 2 5
3 -4 2 -10 -2 -18 3 -18 11 0 8 8 14 18 15 14 0 14 2 -3 9 -19 8 -19 8 5 18
14 6 19 11 12 11 -7 1 -10 6 -7 11 4 6 -5 10 -19 10 -14 0 -26 5 -26 10 0 9
28 14 57 11 6 -1 14 8 18 19 8 24 21 26 29 4 5 -12 17 -15 52 -12 l47 3 26
-50 c14 -27 27 -52 28 -54 1 -1 7 -1 13 1 6 2 -1 21 -18 48 -33 49 -51 110
-33 110 6 0 11 -6 11 -14 0 -7 16 -30 35 -50 19 -21 35 -31 35 -24 0 8 -4 18
-9 24 -12 12 -2 64 13 64 6 0 22 -8 36 -17 17 -12 25 -13 28 -5 2 7 23 12 48
12 34 0 42 3 38 15 -4 8 -1 15 5 15 6 0 11 -7 11 -15 0 -8 5 -15 10 -15 6 0
10 -7 10 -15 0 -8 5 -15 10 -15 6 0 10 7 10 15 0 19 -4 19 54 -10 34 -17 66
-25 103 -25 29 0 62 -5 73 -12 10 -7 23 -9 27 -4 14 14 -29 36 -70 36 -81 0
-157 39 -144 74 6 16 66 36 109 36 106 0 198 59 198 127 0 43 -45 114 -116
183 -69 67 -99 117 -124 206 -48 167 -145 310 -242 358 -29 14 -62 26 -74 26
-12 0 -41 7 -65 16 -24 8 -69 15 -99 15 -30 0 -84 4 -120 10 -35 6 -148 12
-250 15 -102 3 -214 9 -250 15 -36 6 -92 12 -125 14 -150 6 -274 16 -320 25
-139 26 -327 42 -400 33z m135 -32 c-24 -7 -23 -8 15 -23 39 -15 65 -14 65 3
0 5 -12 9 -27 9 -14 0 -23 3 -20 6 6 6 298 -32 327 -43 11 -4 8 -8 -10 -13
l-25 -7 29 -12 c16 -6 37 -9 47 -6 10 3 21 0 26 -9 4 -8 22 -17 38 -21 23 -5
26 -4 15 4 -8 6 -10 11 -5 12 6 0 21 2 35 5 60 10 72 15 66 29 -4 11 3 15 27
14 26 0 28 -2 12 -8 -12 -5 8 -8 54 -9 90 -2 116 -9 102 -26 -6 -7 -8 -15 -5
-19 8 -8 64 13 64 24 0 18 29 9 35 -11 5 -15 11 -18 23 -11 29 15 95 24 87 12
-3 -6 1 -11 9 -11 9 0 16 -7 16 -15 0 -8 5 -15 10 -15 6 0 10 7 10 15 0 18 14
19 32 2 7 -7 22 -16 33 -21 16 -6 17 -9 5 -16 -18 -11 -8 -15 65 -29 38 -7 43
-9 20 -11 l-30 -1 25 -11 c14 -6 29 -10 33 -9 4 0 22 -7 40 -16 43 -23 87 -27
87 -8 0 11 6 12 23 6 22 -9 112 0 124 12 3 4 -6 7 -20 7 -29 0 -36 14 -13 23
7 3 19 0 26 -6 10 -9 11 -9 6 1 -5 8 0 12 12 12 11 0 22 7 26 15 6 16 36 21
36 6 0 -6 14 -18 30 -28 17 -9 30 -24 30 -31 0 -12 -3 -12 -15 -2 -9 7 -18 10
-22 6 -11 -11 31 -48 85 -74 35 -16 57 -34 64 -51 6 -14 21 -47 34 -73 13 -27
22 -49 19 -49 -20 -5 -32 -4 -47 3 -10 5 -18 5 -18 0 0 -5 18 -14 40 -21 22
-6 40 -16 40 -21 0 -4 3 -17 6 -27 4 -11 -3 -7 -18 11 -13 16 -29 27 -35 25
-15 -6 35 -80 57 -86 21 -6 34 -29 21 -38 -5 -2 -14 2 -21 10 -7 8 -17 15 -23
15 -5 0 -2 -9 8 -20 10 -12 24 -19 31 -16 11 4 114 -92 114 -107 0 -13 -27 -7
-40 8 -14 17 -76 20 -86 4 -3 -6 1 -18 10 -27 16 -16 18 -16 27 1 14 24 39 22
39 -4 0 -16 4 -19 18 -14 35 15 57 11 60 -12 2 -15 10 -23 23 -23 25 0 25 -17
0 -25 -11 -3 -22 -13 -25 -22 -5 -12 0 -14 24 -11 23 3 29 1 26 -8 -3 -8 -1
-16 3 -19 15 -9 0 -44 -31 -70 -20 -17 -42 -25 -66 -25 -66 0 -154 -19 -175
-37 -19 -17 -20 -17 -14 0 8 22 -11 22 -35 0 -17 -15 -18 -15 -18 0 0 10 -7
17 -15 17 -9 0 -19 10 -24 22 -5 14 -10 18 -15 10 -4 -7 -12 -10 -17 -7 -16
10 -33 -6 -18 -17 10 -7 9 -8 -5 -4 -10 4 -24 2 -31 -4 -8 -7 -15 -7 -19 -1
-3 5 14 27 39 49 25 22 45 42 45 46 0 12 -89 -59 -95 -76 -5 -14 -10 -15 -30
-6 -19 9 -22 14 -14 25 6 7 16 13 21 13 5 0 16 7 25 15 8 8 20 12 26 8 6 -4 8
0 4 10 -4 11 -1 17 8 17 8 0 15 7 15 15 0 9 11 21 25 27 23 10 34 28 18 28 -3
0 -38 -26 -77 -58 -39 -33 -81 -64 -93 -71 -47 -25 -23 19 52 94 41 42 75 84
75 93 -1 12 -9 7 -28 -18 -15 -19 -55 -62 -89 -96 -60 -61 -61 -62 -79 -43
-16 18 -16 19 7 20 13 0 18 3 12 6 -18 7 -16 23 2 23 9 0 12 6 9 15 -4 9 0 15
7 15 11 0 11 2 -1 10 -12 7 -10 11 10 19 14 5 19 10 13 10 -19 1 -16 21 3 21
8 0 12 4 9 10 -8 13 14 52 26 45 9 -6 7 30 -3 40 -3 3 -33 -49 -67 -115 -54
-103 -81 -140 -105 -140 -12 0 -5 46 13 95 48 130 70 206 56 193 -8 -8 -39
-87 -56 -145 -8 -28 -15 -33 -40 -33 -17 0 -28 4 -24 10 3 5 12 7 19 4 8 -3
17 -1 21 5 3 7 -2 11 -14 11 -28 0 -27 20 2 21 l22 2 -22 4 c-13 2 -23 9 -23
14 0 5 10 14 23 19 20 8 20 9 2 10 -17 1 -18 2 -5 13 40 33 44 75 5 61 -13 -5
-15 -2 -9 20 4 16 2 26 -5 26 -6 0 -11 -3 -11 -7 0 -37 -34 -272 -41 -285 -5
-10 -16 -18 -24 -18 -13 0 -14 24 -8 165 5 132 4 165 -7 165 -10 0 -11 -15 -7
-65 5 -49 3 -68 -8 -79 -10 -10 -11 -16 -3 -18 7 -3 9 -19 4 -51 -7 -45 -8
-47 -34 -41 -36 9 -37 11 -22 29 10 12 10 15 0 15 -7 0 -10 6 -7 14 3 7 0 19
-6 25 -8 8 -8 11 1 11 7 0 12 5 12 11 0 5 -4 7 -10 4 -5 -3 -10 0 -10 9 0 8 6
17 13 19 6 3 3 6 -8 7 -19 1 -19 1 -1 11 15 9 16 13 5 20 -12 8 -12 11 1 20
13 9 12 10 -2 5 -14 -4 -20 4 -29 39 -6 25 -16 42 -21 39 -5 -3 -6 -18 -3 -33
9 -33 25 -139 32 -213 5 -57 4 -58 -21 -58 -33 0 -44 23 -50 96 -13 183 -19
224 -32 224 -8 0 -14 -1 -14 -2 0 -2 7 -38 15 -81 8 -43 15 -107 15 -141 0
-61 -1 -63 -24 -59 -13 3 -33 0 -45 -6 -28 -15 -27 -6 2 22 13 12 15 16 5 8
-14 -11 -18 -11 -18 -1 0 7 8 19 18 27 15 13 15 14 -8 8 l-25 -6 25 20 c14 11
29 21 34 21 5 0 7 2 4 5 -3 3 -18 1 -34 -5 -27 -11 -28 -10 -11 8 21 23 13 54
-11 44 -13 -4 -15 -3 -6 9 6 8 11 27 12 42 2 25 -1 27 -20 22 -16 -6 -20 -4
-15 8 6 15 -20 33 -31 22 -3 -3 3 -35 12 -73 41 -157 39 -232 -8 -232 -32 0
-38 19 -42 120 -4 114 -13 190 -24 190 -10 0 -6 -120 6 -217 7 -59 6 -60 -55
-38 -35 12 -46 12 -74 0 -18 -7 -41 -23 -51 -34 -22 -24 -51 -28 -59 -7 -3 7
-2 31 3 52 5 21 10 67 11 103 1 36 8 90 14 119 10 41 10 52 0 52 -16 0 -23
-33 -31 -153 -4 -57 -12 -100 -18 -102 -6 -2 -32 -5 -58 -8 -49 -5 -55 6 -14
24 19 8 18 9 -6 4 -24 -5 -26 -2 -24 21 2 18 12 31 32 40 l29 14 -27 -4 c-16
-2 -28 1 -28 5 0 5 12 10 28 10 l27 2 -27 4 c-43 7 -38 55 7 81 19 11 19 11
-5 12 -24 1 -24 2 -4 10 23 9 41 30 27 30 -5 0 -14 -5 -21 -12 -9 -9 -12 -7
-12 12 0 16 -3 21 -10 14 -11 -11 -40 -189 -40 -247 0 -58 -24 -97 -60 -97
-17 0 -30 3 -30 8 0 31 23 145 36 180 9 23 14 47 12 54 -4 12 -42 -84 -52
-132 -5 -23 -10 -26 -51 -25 -35 0 -45 4 -45 16 0 9 14 22 30 29 34 14 43 46
10 37 -25 -6 -26 1 -2 19 16 13 16 13 -2 14 -16 0 -16 2 5 21 13 11 19 18 12
15 -20 -10 -21 17 -2 52 10 17 15 32 11 32 -4 0 2 7 12 15 19 15 19 15 -2 15
-15 0 -22 -6 -22 -19 0 -11 -5 -23 -12 -27 -8 -5 -9 2 -5 24 5 24 3 30 -7 26
-8 -3 -14 -20 -14 -37 -1 -40 -30 -236 -38 -248 -12 -20 -32 -7 -37 24 -4 27
5 82 39 240 5 21 3 27 -10 27 -11 0 -16 -9 -16 -32 -1 -18 -9 -72 -18 -120
-14 -73 -20 -86 -32 -78 -23 14 -30 12 -40 -12 l-9 -23 0 23 c-1 15 7 26 24
32 30 11 34 35 5 27 -27 -7 -25 7 3 21 20 10 20 11 3 11 -20 1 -20 1 0 16 16
12 17 14 3 15 -27 0 -30 27 -6 45 18 13 19 15 3 10 -14 -4 -17 -1 -12 11 15
38 17 62 6 69 -21 13 -28 -9 -34 -110 -11 -180 -31 -254 -57 -215 -10 15 -3
255 8 289 5 13 3 14 -7 4 -9 -8 -18 -59 -24 -139 l-11 -126 -41 -2 c-33 -2
-40 1 -39 16 1 20 15 38 15 20 0 -6 6 -9 14 -6 8 3 14 14 13 24 -1 14 -5 16
-18 9 -30 -15 -35 -10 -10 10 25 19 38 55 18 48 -7 -2 -11 -11 -9 -21 2 -9 -1
-16 -5 -16 -5 0 -10 11 -11 24 -1 18 5 27 26 34 15 6 21 11 13 11 -9 1 -10 5
-4 14 5 6 8 18 7 25 -1 6 -2 16 -3 21 0 5 -10 7 -21 4 -24 -6 -27 12 -4 25 20
11 14 46 -8 50 -23 5 -28 -18 -32 -173 -4 -137 -9 -165 -32 -165 -24 0 -25 20
-11 142 7 64 10 124 6 134 -9 22 -12 14 -14 -36 -1 -31 -16 -154 -21 -172 -1
-5 -2 -11 -3 -16 -1 -10 -81 -12 -81 -1 0 5 9 13 21 19 11 7 18 14 15 17 -3 3
-12 0 -21 -7 -12 -10 -15 -10 -15 4 0 9 5 16 10 16 6 0 10 5 10 11 0 5 -4 7
-10 4 -5 -3 -10 1 -10 10 0 8 7 18 15 21 8 4 15 12 15 20 0 8 -6 11 -15 8 -21
-9 -19 5 5 24 13 11 17 22 11 31 -6 9 -11 10 -15 2 -4 -6 -2 -11 4 -11 6 0 8
-4 5 -10 -3 -5 -11 -10 -16 -10 -6 0 -7 5 -4 10 3 6 1 10 -6 10 -7 0 -5 8 6
20 13 15 14 20 5 20 -11 0 -11 3 -2 12 17 17 15 33 -3 18 -16 -14 -21 0 -5 16
14 14 -5 37 -26 32 -17 -4 -16 -6 5 -15 21 -8 22 -10 7 -16 -16 -6 -17 -19
-11 -132 7 -131 3 -165 -20 -165 -22 0 -27 32 -28 176 0 99 -4 134 -13 134 -9
0 -11 -25 -7 -99 3 -55 2 -120 -1 -145 -6 -41 -10 -46 -33 -46 -24 0 -25 2
-11 18 8 9 15 27 16 40 1 20 -2 22 -14 11 -8 -7 -13 -18 -10 -26 3 -7 1 -13
-4 -13 -13 0 -13 37 0 45 17 10 11 25 -7 19 -14 -4 -13 -1 5 14 26 24 28 34 5
25 -14 -5 -12 0 6 20 14 15 19 27 13 27 -6 0 -14 -4 -17 -10 -3 -5 -10 -10
-16 -10 -16 0 -10 21 14 41 l22 20 -22 -6 c-29 -8 -30 7 -1 20 12 6 24 17 26
25 4 11 0 11 -21 -3 -30 -20 -35 -13 -10 15 11 12 12 18 3 18 -7 0 -10 7 -6
15 3 9 0 15 -9 15 -17 0 -20 -16 -4 -25 6 -4 4 -12 -8 -20 -14 -11 -17 -25
-15 -67 2 -29 4 -93 5 -143 2 -88 1 -90 -22 -93 -23 -4 -24 -2 -18 50 6 51 -7
215 -18 226 -12 13 -14 -9 -6 -74 12 -97 4 -172 -21 -185 -26 -14 -35 -3 -19
23 11 18 11 20 -4 14 -16 -6 -16 -5 -1 18 19 30 21 45 4 28 -26 -26 -27 -10
-1 26 22 30 23 33 5 18 -28 -24 -41 -13 -17 14 13 14 14 20 5 20 -9 0 -8 6 5
20 19 21 7 28 -13 8 -9 -9 -12 -7 -12 9 0 11 7 26 15 33 25 21 17 32 -10 13
-25 -18 -25 -20 -19 -123 3 -58 7 -115 10 -126 3 -12 0 -25 -6 -29 -22 -14
-34 15 -32 78 1 34 -3 87 -9 117 -6 30 -12 66 -14 79 -2 26 -19 39 -29 23 -3
-6 3 -38 14 -72 26 -81 28 -210 4 -210 -11 0 -15 6 -11 20 3 10 0 21 -5 22 -7
3 -7 17 0 42 10 35 10 38 -9 33 -22 -6 -25 3 -6 22 10 10 9 11 -4 6 -11 -4
-15 0 -15 12 1 10 -3 20 -9 23 -18 9 -16 -37 4 -98 12 -34 21 -73 21 -88 0
-36 -25 -25 -27 12 -1 35 -31 110 -39 101 -3 -3 -1 -22 5 -44 6 -21 11 -53 11
-71 0 -30 -2 -33 -22 -26 -31 9 -33 11 -20 26 15 18 3 71 -14 64 -17 -6 -17
-1 -4 24 7 13 6 19 -6 24 -10 4 -14 12 -9 24 5 13 4 14 -6 5 -10 -10 -18 -4
-37 28 -13 22 -26 38 -29 35 -3 -3 -1 -11 4 -18 12 -16 45 -105 68 -181 12
-42 14 -62 7 -69 -12 -12 -33 27 -53 104 -12 43 -15 47 -39 42 -45 -10 -52
-14 -47 -27 3 -7 -3 -13 -14 -13 -16 0 -17 2 -3 17 13 15 12 17 -11 21 -14 3
-30 -1 -36 -8 -6 -7 -17 -10 -25 -7 -8 3 -23 -5 -35 -18 l-20 -24 7 24 c3 13
7 29 8 36 1 7 8 20 15 29 8 9 11 20 7 24 -12 11 -34 -26 -41 -67 -10 -59 -25
-74 -22 -21 1 25 -2 45 -8 45 -5 0 -10 -12 -10 -27 -1 -39 -13 -45 -26 -12
-15 41 -2 147 22 178 11 14 23 25 27 25 22 -4 40 4 67 27 17 15 40 33 52 41
12 8 25 23 28 34 7 23 25 25 25 4 0 -8 5 -15 10 -15 6 0 10 16 10 36 0 29 12
52 56 110 30 41 59 74 64 74 5 0 32 21 61 48 63 57 88 75 160 112 55 28 56 28
83 11 19 -12 42 -17 72 -15 40 2 42 1 29 -13 -22 -21 -14 -25 50 -24 43 0 70
8 115 32 33 17 60 38 60 45 0 7 12 20 28 29 15 9 40 35 55 57 25 35 31 39 57
33 19 -4 30 -3 30 4 0 6 15 11 33 10 29 -1 30 -2 7 -8z m-130 -10 c0 -9 -41
-23 -49 -16 -3 4 28 20 47 24 1 1 2 -3 2 -8z m550 -45 c0 -2 -9 -6 -20 -9 -11
-3 -20 -1 -20 4 0 5 9 9 20 9 11 0 20 -2 20 -4z m-670 -21 c0 -7 -83 -52 -110
-59 -14 -4 4 9 40 28 77 40 70 37 70 31z m30 -25 c-14 -10 -27 -17 -29 -14 -6
5 31 33 44 33 6 1 -1 -8 -15 -19z m1318 4 c36 -10 25 -20 -18 -16 -22 2 -40 8
-40 13 0 10 25 11 58 3z m-1551 -22 c8 -5 -2 -8 -24 -9 -25 -1 -32 2 -22 8 17
11 30 11 46 1z m177 -18 c25 -9 19 -21 -16 -35 -18 -7 -36 -14 -40 -17 -5 -2
-8 1 -8 6 0 6 14 15 30 21 17 5 30 13 30 17 0 3 -7 3 -16 0 -8 -3 -12 -2 -9 4
7 12 8 12 29 4z m1750 -9 c19 -14 18 -15 -12 -15 -18 0 -32 -4 -32 -10 0 -5
-8 -10 -19 -10 -10 0 -29 -9 -43 -19 -19 -16 -37 -19 -82 -16 -57 3 -91 15
-45 15 20 0 21 2 9 11 -11 7 1 9 41 4 61 -7 112 8 138 38 16 20 20 21 45 2z
m-301 -12 c-7 -2 -21 -2 -30 0 -10 3 -4 5 12 5 17 0 24 -2 18 -5z m477 -103
c0 -5 -2 -10 -4 -10 -3 0 -8 5 -11 10 -3 6 -1 10 4 10 6 0 11 -4 11 -10z
m-1756 -395 c3 -8 1 -15 -4 -15 -6 0 -10 7 -10 15 0 8 2 15 4 15 2 0 6 -7 10
-15z m996 -19 c0 -3 -4 -8 -10 -11 -5 -3 -10 -1 -10 4 0 6 5 11 10 11 6 0 10
-2 10 -4z m-772 -149 c3 -26 2 -27 -23 -15 -18 8 -22 14 -13 20 7 4 9 8 5 8
-5 0 -5 5 -2 11 11 17 30 4 33 -24z m1172 -49 c0 -28 -15 -37 -35 -22 -17 13
-18 16 -5 24 21 14 40 12 40 -2z m-2440 -32 c0 -3 -4 -8 -10 -11 -5 -3 -10 -1
-10 4 0 6 5 11 10 11 6 0 10 -2 10 -4z m1987 -242 c-3 -3 -12 -4 -19 -1 -8 3
-5 6 6 6 11 1 17 -2 13 -5z m0 -30 c-3 -3 -12 -4 -19 -1 -8 3 -5 6 6 6 11 1
17 -2 13 -5z m180 -99 c0 -8 -4 -15 -9 -15 -4 0 -8 7 -8 15 0 8 4 15 8 15 5 0
9 -7 9 -15z m-1097 -80 c0 -8 -4 -15 -10 -15 -5 0 -7 7 -4 15 4 8 8 15 10 15
2 0 4 -7 4 -15z m-883 -90 c9 -24 -1 -27 -15 -5 -8 13 -8 20 -2 20 6 0 13 -7
17 -15z m35 -57 c-7 -7 -12 -8 -12 -2 0 14 12 26 19 19 2 -3 -1 -11 -7 -17z
m2328 -128 c0 -5 -8 -10 -17 -10 -15 0 -16 2 -3 10 19 12 20 12 20 0z m-1670
-100 c-20 -13 -40 -13 -40 0 0 6 12 10 28 10 21 0 24 -2 12 -10z m23 -41 c-8
-8 -16 -8 -30 0 -16 9 -14 10 12 11 21 0 26 -3 18 -11z m300 -16 c-7 -2 -19
-2 -25 0 -7 3 -2 5 12 5 14 0 19 -2 13 -5z"/>
<path d="M6615 3708 c-19 -12 -19 -12 5 -19 24 -7 25 -7 2 -8 -13 -1 -21 -5
-17 -11 3 -5 13 -6 22 -3 13 5 12 2 -3 -15 -10 -12 -19 -29 -20 -39 -3 -17 -2
-17 10 0 15 20 37 22 54 5 9 -9 17 -8 37 2 28 15 34 32 8 24 -15 -5 -16 -4 -3
5 8 6 23 11 33 11 33 0 17 19 -20 23 l-38 4 38 1 c26 1 37 6 35 15 -6 16 -117
20 -143 5z"/>
<path d="M7201 3689 c-13 -5 -21 -12 -18 -15 3 -3 18 1 34 10 31 17 21 20 -16
5z"/>
<path d="M6983 3673 c9 -2 25 -2 35 0 9 3 1 5 -18 5 -19 0 -27 -2 -17 -5z"/>
<path d="M7125 3660 c3 -5 8 -10 11 -10 2 0 4 5 4 10 0 6 -5 10 -11 10 -5 0
-7 -4 -4 -10z"/>
<path d="M7005 3610 c-3 -5 -19 -10 -35 -10 -38 0 -60 -9 -60 -26 0 -8 10 -14
25 -14 14 0 25 -5 25 -11 0 -6 -7 -9 -15 -5 -12 4 -13 2 -2 -15 10 -17 19 -19
62 -13 28 3 51 7 52 8 1 0 4 13 8 29 7 26 6 27 -36 28 -24 1 -35 3 -24 6 11 2
30 6 43 9 13 2 20 9 17 14 -8 13 -52 13 -60 0z"/>
<path d="M7512 3604 c9 -9 21 -13 27 -10 20 13 11 26 -16 26 -25 0 -26 -1 -11
-16z"/>
<path d="M7294 3582 l-21 -18 29 -17 c40 -23 104 -23 113 0 3 10 1 19 -4 21
-6 2 -9 8 -5 13 5 8 -28 14 -51 9 -5 -1 -19 -4 -30 -6 l-20 -4 20 9 c13 6 15
10 5 10 -8 0 -25 -8 -36 -17z"/>
<path d="M6420 3570 c-29 -22 -23 -34 13 -25 17 5 25 13 24 26 -2 24 -6 23
-37 -1z"/>
<path d="M5926 3536 c-14 -13 -29 -37 -32 -55 -6 -28 -4 -31 17 -31 36 0 102
26 114 44 7 11 3 22 -15 41 -29 31 -52 32 -84 1z m79 -26 c3 -5 -1 -10 -10
-10 -9 0 -13 5 -10 10 3 6 8 10 10 10 2 0 7 -4 10 -10z"/>
<path d="M6136 3521 c-9 -14 4 -41 19 -41 18 0 47 29 40 41 -8 12 -52 12 -59
0z"/>
<path d="M7693 3507 c40 -21 45 -26 32 -37 -8 -7 -22 -10 -30 -6 -8 3 -15 2
-15 -3 0 -13 39 -21 100 -19 33 0 43 3 25 5 l-30 5 25 14 25 13 -32 1 c-18 0
-33 3 -33 8 0 4 -17 13 -37 20 -68 23 -79 23 -30 -1z"/>
<path d="M8050 3495 c0 -8 7 -15 15 -15 8 0 15 7 15 15 0 8 -7 15 -15 15 -8 0
-15 -7 -15 -15z"/>
<path d="M6265 3470 c-3 -5 -1 -10 4 -10 6 0 11 5 11 10 0 6 -2 10 -4 10 -3 0
-8 -4 -11 -10z"/>
<path d="M8205 3470 c3 -5 -1 -10 -11 -10 -29 0 -94 -23 -94 -33 0 -6 3 -7 7
-4 3 4 12 2 19 -4 7 -5 45 -12 86 -14 40 -3 63 -1 50 3 -31 10 -28 28 5 24 16
-3 23 0 19 7 -4 6 -20 11 -37 11 -29 0 -40 14 -16 23 6 3 2 6 -11 6 -13 1 -20
-3 -17 -9z"/>
<path d="M5816 3410 c-11 -3 -15 -9 -10 -13 10 -6 42 9 34 16 -3 3 -14 1 -24
-3z"/>
<path d="M5858 3413 c7 -3 16 -2 19 1 4 3 -2 6 -13 5 -11 0 -14 -3 -6 -6z"/>
<path d="M5773 3378 c2 -7 -3 -18 -12 -25 -14 -11 -11 -12 15 -13 26 0 64 24
64 41 0 2 -16 5 -36 7 -25 1 -34 -2 -31 -10z"/>
<path d="M8330 3340 c20 -13 33 -13 25 0 -3 6 -14 10 -23 10 -15 0 -15 -2 -2
-10z"/>
<path d="M6140 3295 c-10 -12 -10 -19 -2 -27 14 -14 17 -11 26 20 8 25 -5 29
-24 7z"/>
<path d="M5987 3244 c-4 -4 -7 -20 -7 -36 0 -35 23 -34 28 1 4 25 -10 46 -21
35z"/>
<path d="M6967 3213 c-4 -3 -7 -24 -7 -46 0 -49 6 -45 18 11 9 39 5 52 -11 35z"/>
<path d="M7248 3205 c-9 -15 -22 -181 -15 -199 5 -13 11 -14 32 -4 14 6 24 17
21 24 -3 7 2 15 10 18 21 8 8 26 -19 26 -20 1 -20 2 -5 11 21 12 21 62 1 55
-7 -3 -13 -1 -13 4 0 6 7 10 15 10 8 0 15 5 15 11 0 6 -6 9 -14 6 -10 -4 -16
2 -18 21 -2 15 -6 22 -10 17z m14 -107 c-7 -7 -12 -8 -12 -2 0 14 12 26 19 19
2 -3 -1 -11 -7 -17z"/>
<path d="M5813 3145 c-3 -9 -3 -18 0 -21 9 -9 27 6 27 22 0 19 -19 18 -27 -1z"/>
<path d="M5778 3126 c-6 -28 16 -86 32 -86 15 0 12 36 -5 50 -9 7 -13 21 -10
31 3 9 2 20 -3 23 -6 3 -12 -5 -14 -18z"/>
<path d="M7065 3120 c-3 -6 1 -7 9 -4 18 7 21 14 7 14 -6 0 -13 -4 -16 -10z"/>
<path d="M8410 3110 c0 -13 7 -20 20 -20 11 0 20 3 20 8 0 4 -9 13 -20 20 -18
11 -20 10 -20 -8z"/>
<path d="M5840 3105 c-11 -13 -10 -14 4 -9 9 3 16 10 16 15 0 13 -6 11 -20 -6z"/>
<path d="M7070 3100 c-23 -7 -23 -8 -3 -9 12 -1 25 4 28 9 3 6 5 10 3 9 -2 -1
-14 -5 -28 -9z"/>
<path d="M5639 3053 c16 -27 38 -53 44 -53 9 0 -4 32 -21 53 -8 9 -19 17 -24
17 -5 0 -4 -8 1 -17z"/>
<path d="M7264 2985 c-10 -8 -14 -15 -8 -15 5 0 19 7 30 15 10 8 14 15 8 15
-5 0 -19 -7 -30 -15z"/>
<path d="M5630 2979 c0 -5 5 -7 10 -4 6 3 10 8 10 11 0 2 -4 4 -10 4 -5 0 -10
-5 -10 -11z"/>
<path d="M8537 2970 c-3 -11 -2 -20 3 -20 12 0 31 26 23 33 -11 12 -21 7 -26
-13z"/>
<path d="M7259 2951 c-13 -11 -19 -20 -14 -20 14 0 50 28 43 34 -3 3 -16 -3
-29 -14z"/>
<path d="M3453 3713 c-17 -54 -37 -117 -44 -141 -8 -28 -17 -41 -26 -38 -17 7
-17 -10 0 -18 9 -5 9 -7 -1 -12 -6 -3 -9 -10 -6 -15 3 -6 2 -15 -3 -22 -11
-14 -53 -151 -78 -252 -10 -38 -20 -118 -23 -177 -4 -103 -4 -109 23 -155 16
-26 43 -66 62 -89 29 -36 42 -64 29 -64 -3 0 -40 22 -83 48 -59 37 -78 55 -80
73 -2 31 -78 178 -103 201 -11 11 -20 23 -20 28 0 21 -1 26 -14 45 -7 11 -16
38 -20 60 -4 22 -15 56 -25 75 -10 19 -24 63 -31 98 -7 34 -17 65 -21 68 -5 3
-9 23 -9 44 0 41 -17 90 -32 90 -11 0 -11 -5 11 -101 32 -136 47 -188 86 -294
21 -55 39 -110 42 -122 3 -12 15 -25 27 -29 25 -8 36 -22 36 -47 0 -10 14 -39
31 -63 43 -63 36 -74 -38 -58 -38 8 -107 11 -201 8 -88 -3 -149 -1 -161 6 -11
5 -22 6 -25 1 -6 -8 -43 -8 -203 4 -74 5 -112 2 -190 -14 -181 -38 -177 -36
-304 -163 -31 -31 -59 -54 -63 -51 -22 22 18 142 58 174 27 22 14 36 -16 17
-14 -9 -35 -45 -52 -88 -23 -61 -26 -76 -16 -95 11 -20 7 -27 -39 -73 -64 -64
-69 -95 -24 -163 20 -31 24 -45 18 -71 -4 -18 -9 -58 -12 -90 -4 -53 -3 -58
31 -95 34 -38 148 -123 165 -123 4 0 16 -9 26 -20 10 -11 23 -20 28 -20 6 0
18 -6 26 -14 37 -32 189 -75 341 -96 47 -6 110 -17 140 -23 80 -16 214 -16
300 0 185 34 290 82 412 191 48 42 105 91 126 107 22 17 48 43 57 58 16 27 16
29 0 47 -9 10 -33 22 -53 27 -27 6 -37 14 -37 28 0 16 9 21 46 26 26 4 56 12
68 18 24 13 39 58 25 76 -5 7 -32 46 -61 86 -29 41 -65 92 -80 113 -15 22 -44
69 -63 105 -19 37 -52 90 -73 120 -22 32 -37 66 -38 85 -3 85 4 184 17 233 8
30 14 64 14 77 0 33 31 138 104 355 73 213 69 201 58 201 -4 0 -22 -44 -39
-97z m-943 -873 c15 9 70 6 183 -12 56 -8 67 -13 67 -29 0 -23 32 -26 49 -5
10 12 8 15 -11 19 -13 2 0 5 29 6 28 0 53 -3 55 -7 5 -13 68 -23 68 -12 0 6
-12 11 -27 11 -16 1 -7 5 22 9 104 17 125 18 130 10 6 -9 -23 -22 -35 -15 -4
3 -10 -5 -13 -17 -8 -28 50 -85 124 -123 30 -15 66 -34 81 -41 14 -8 34 -14
45 -13 13 1 11 3 -7 9 -21 7 -17 8 20 9 25 1 56 7 70 14 40 20 67 9 110 -45
37 -47 39 -52 23 -63 -15 -11 -14 -12 11 -8 26 5 28 4 23 -16 -3 -14 -1 -21 9
-21 20 0 17 -38 -3 -43 -13 -3 -12 -5 5 -6 13 0 32 -10 44 -21 20 -18 20 -21
5 -44 -12 -18 -29 -27 -62 -32 -57 -8 -96 -36 -77 -56 7 -7 30 -17 50 -23 63
-18 49 -80 -31 -128 -18 -11 -46 -34 -62 -51 -36 -36 -90 -76 -104 -76 -5 0
-11 -6 -13 -12 -3 -7 -13 -13 -24 -13 -12 0 -18 -6 -17 -16 3 -17 -93 -63
-103 -48 -9 15 -27 10 -21 -5 5 -11 -4 -14 -41 -11 -53 5 -102 -3 -102 -15 0
-5 14 -6 30 -4 17 3 30 1 30 -4 0 -12 -92 -25 -114 -16 -9 3 -22 1 -30 -5 -9
-8 -21 -8 -37 -2 l-24 10 23 0 c13 1 30 7 38 15 18 19 18 32 0 17 -9 -8 -28
-10 -49 -6 -39 8 -58 -8 -30 -24 16 -9 17 -10 1 -16 -9 -4 -31 -5 -50 -3 -25
2 -33 8 -34 23 -2 36 -4 39 -16 22 -7 -9 -28 -20 -45 -23 -27 -5 -33 -3 -33
10 0 14 -8 17 -45 13 -24 -2 -42 0 -39 4 9 15 -13 18 -39 4 -25 -13 -27 -12
-39 12 -7 15 -19 29 -27 31 -8 3 -11 0 -7 -6 3 -6 2 -13 -2 -16 -5 -3 -14 6
-21 20 -11 26 -35 25 -25 -1 5 -12 1 -13 -25 -4 -17 6 -31 17 -31 25 0 8 -5
14 -11 14 -6 0 -9 -9 -6 -20 3 -13 0 -20 -9 -20 -8 0 -14 6 -14 14 0 7 -7 19
-16 27 -13 10 -17 10 -24 -1 -4 -7 -15 -10 -25 -7 -9 4 -14 10 -12 15 3 4 -1
18 -10 32 -13 24 -14 24 -10 3 8 -36 -7 -35 -56 2 -25 19 -48 35 -51 35 -9 0
-93 59 -106 75 -10 12 -9 16 4 21 9 3 16 12 16 20 0 8 -6 11 -15 8 -11 -5 -15
2 -15 26 0 23 -5 33 -20 37 -29 8 -25 34 14 92 33 48 40 97 12 88 -6 -2 -16 3
-23 12 -11 14 -12 13 -13 -9 -1 -45 -20 1 -20 48 0 41 4 47 101 143 67 67 106
99 116 95 8 -3 22 -7 31 -7 9 -1 2 -4 -17 -8 -19 -3 -36 -12 -39 -20 -3 -9 2
-11 14 -8 11 4 33 9 49 13 27 7 29 6 16 -9 -12 -16 -11 -16 22 -2 20 8 47 15
59 15 21 -1 21 -2 -7 -17 -18 -10 -25 -18 -17 -21 7 -2 24 3 37 12 15 10 35
14 48 11 16 -4 39 3 70 22 48 29 67 53 42 53 -22 0 -18 26 7 50 12 11 17 20
10 20 -6 0 -14 -4 -17 -10 -8 -13 -25 -13 -25 0 0 15 43 29 55 19 6 -4 17 -4
25 1z m610 -20 c0 -6 -6 -13 -14 -16 -8 -3 -12 -12 -9 -20 6 -16 2 -17 -21 -8
-14 6 -14 9 6 29 26 25 38 30 38 15z m-30 -65 c18 -21 76 -62 66 -47 -4 7 -4
12 0 12 16 0 104 -36 104 -42 0 -13 -45 -9 -65 6 -10 7 -26 11 -35 9 -8 -2
-33 10 -54 26 -21 17 -43 31 -47 31 -5 0 -9 5 -9 10 0 15 26 12 40 -5z m-680
-35 c-14 -11 -32 -20 -40 -20 -8 0 -1 9 15 19 39 26 57 26 25 1z m895 -30 c3
-5 -1 -10 -9 -10 -9 0 -16 5 -16 10 0 6 4 10 9 10 6 0 13 -4 16 -10z m95 0 c0
-5 -2 -10 -4 -10 -3 0 -8 5 -11 10 -3 6 -1 10 4 10 6 0 11 -4 11 -10z m-1430
-523 c0 -5 -4 -5 -10 -2 -5 3 -10 14 -10 23 0 15 2 15 10 2 5 -8 10 -19 10
-23z"/>
<path d="M2576 2821 c-8 -12 3 -41 15 -41 5 0 9 5 9 10 0 6 -4 10 -10 10 -5 0
-7 7 -4 15 7 16 -1 21 -10 6z"/>
<path d="M2997 2803 c-4 -3 -7 -11 -7 -17 0 -6 5 -5 12 2 6 6 9 14 7 17 -3 3
-9 2 -12 -2z"/>
<path d="M2648 2763 c7 -3 16 -2 19 1 4 3 -2 6 -13 5 -11 0 -14 -3 -6 -6z"/>
<path d="M2788 2584 c-5 -4 -8 -33 -8 -64 0 -70 -16 -121 -36 -113 -10 4 -14
25 -14 86 0 44 -3 77 -7 73 -4 -3 -6 -25 -5 -49 1 -23 -2 -48 -7 -56 -11 -17
-32 -5 -24 14 3 8 0 15 -7 15 -9 0 -10 11 -6 35 6 31 4 35 -14 35 -17 0 -20
-6 -20 -48 0 -53 -19 -90 -40 -77 -9 6 -11 25 -6 71 4 39 3 64 -3 64 -6 0 -11
-21 -13 -47 -2 -35 -7 -48 -18 -48 -10 0 -14 8 -12 28 2 16 -1 27 -8 27 -8 0
-10 9 -6 25 4 14 2 25 -3 25 -12 0 -22 -53 -18 -100 2 -30 -1 -35 -20 -38 -16
-2 -23 2 -23 12 0 9 4 16 8 16 5 0 9 7 9 15 0 18 -13 20 -20 3 -3 -7 -6 -3 -6
10 -1 12 4 22 9 22 6 0 10 9 10 21 0 14 -5 19 -17 17 -13 -3 -17 -12 -16 -34
2 -28 0 -31 -23 -26 -16 3 -23 9 -20 18 3 8 1 14 -4 14 -5 0 -12 11 -16 25 -4
16 -13 25 -25 25 -22 0 -23 -2 -6 -60 15 -51 11 -93 -6 -87 -7 2 -17 23 -23
47 -6 24 -15 45 -21 47 -7 3 -9 -4 -6 -15 7 -29 -14 -36 -39 -13 -12 12 -19
21 -15 21 4 0 3 9 -3 21 -7 11 -14 18 -17 15 -4 -3 -12 -1 -20 5 -20 17 -17
-9 7 -56 22 -42 26 -75 10 -75 -5 0 -10 8 -10 18 0 25 -18 49 -27 36 -12 -17
-43 -25 -37 -10 3 7 -2 20 -10 29 -9 9 -16 21 -16 27 0 6 -5 8 -10 5 -14 -8
-7 -69 9 -89 11 -13 11 -16 -3 -16 -9 0 -16 5 -16 10 0 6 -5 10 -11 10 -6 0
-1 -13 10 -29 18 -24 19 -30 6 -35 -8 -3 -21 -3 -29 0 -8 3 -17 1 -20 -5 -4
-5 3 -12 14 -16 25 -8 25 -17 0 -33 -11 -7 -20 -17 -20 -22 0 -6 11 -3 25 6
17 11 36 14 56 10 18 -3 28 -2 24 4 -3 6 -2 10 4 10 5 0 16 3 25 6 12 4 16 0
16 -15 0 -12 -6 -21 -12 -21 -22 -1 -100 -81 -94 -96 7 -18 25 -18 45 1 39 37
80 65 95 65 23 0 20 -11 -13 -48 -17 -17 -26 -32 -22 -32 4 0 29 25 56 55 49
57 75 69 75 35 0 -17 -56 -92 -85 -112 -5 -4 -6 -10 -2 -14 9 -9 47 25 47 43
0 7 6 13 13 13 8 0 22 9 32 20 10 11 22 20 27 20 13 0 9 -27 -7 -40 -8 -7 -15
-19 -15 -26 0 -25 15 -14 32 24 10 20 30 50 45 66 26 28 27 29 36 9 9 -20 -6
-54 -56 -125 -6 -9 -8 -21 -3 -25 4 -4 12 0 17 10 6 9 20 26 31 37 12 11 22
30 23 42 1 17 9 24 28 26 l27 3 -16 -43 c-8 -23 -23 -52 -32 -63 -10 -11 -24
-29 -32 -40 -15 -19 -14 -19 10 -4 26 17 76 106 85 152 5 26 28 37 39 18 3 -4
-3 -41 -14 -80 -20 -69 -19 -98 1 -85 5 3 7 9 4 14 -2 4 6 24 20 44 14 20 25
43 25 51 0 17 29 47 40 40 4 -3 2 -26 -6 -52 -16 -54 -17 -63 -5 -63 5 0 12
17 16 38 9 54 43 108 58 93 8 -8 6 -34 -9 -101 -18 -80 -19 -90 -5 -90 19 0
68 143 51 148 -5 2 -10 7 -10 12 0 5 13 3 30 -3 19 -7 28 -17 26 -27 -13 -47
-17 -100 -7 -100 6 0 10 3 9 8 -3 13 24 129 33 143 8 12 11 12 19 -1 12 -19
13 -46 0 -89 -13 -46 1 -71 22 -39 8 13 19 38 22 56 6 26 12 32 33 32 25 0 25
-2 20 -45 -4 -25 -3 -45 2 -45 12 0 21 26 21 63 0 43 10 77 22 77 7 0 8 -25 4
-70 -4 -38 -5 -70 -1 -70 3 0 15 9 27 20 12 11 16 20 10 20 -9 0 -9 5 0 20 11
17 10 22 -2 30 -12 8 -9 10 12 10 23 0 27 -5 30 -32 5 -51 24 -44 20 7 -2 25
-1 53 3 62 12 32 25 -7 25 -74 0 -49 3 -63 15 -63 11 0 14 12 14 50 -1 28 1
53 4 56 10 10 27 -7 27 -27 0 -10 5 -19 10 -19 6 0 10 18 10 41 0 52 17 42 26
-16 8 -59 28 -72 22 -16 -2 29 0 41 9 41 7 0 13 -6 13 -14 0 -15 28 -42 35
-34 3 3 -1 18 -10 34 -24 47 -17 62 11 21 14 -21 30 -35 35 -31 6 4 6 11 -2
20 -16 20 3 40 46 48 19 4 35 12 35 19 0 18 -35 36 -59 30 -14 -4 -30 4 -51
26 -18 17 -27 31 -21 31 15 0 13 50 -3 79 -13 23 -13 23 -18 3 -3 -12 -1 -23
6 -26 7 -3 6 -8 -4 -15 -12 -9 -16 -4 -18 27 -6 68 -24 62 -21 -8 3 -85 -14
-84 -25 3 -4 37 -12 67 -17 67 -5 0 -9 -7 -9 -15 0 -8 -7 -15 -15 -15 -10 0
-15 10 -15 29 0 17 -5 33 -10 36 -7 4 -10 -23 -8 -82 3 -73 0 -88 -12 -88 -12
0 -16 17 -20 75 -3 41 -9 68 -12 60 -4 -8 -7 -22 -6 -30 3 -34 -3 -70 -10 -70
-5 0 -9 6 -9 13 0 6 -3 26 -7 43 -5 23 -3 33 7 37 8 3 13 13 12 24 -1 23 -20
24 -19 0 0 -12 -5 -16 -18 -11 -14 4 -18 0 -19 -23 -3 -98 -4 -108 -19 -108
-12 0 -14 11 -11 54 2 37 0 51 -8 47 -6 -4 -11 -25 -11 -48 0 -32 -3 -39 -16
-34 -8 3 -29 -1 -45 -9 -16 -9 -34 -13 -39 -10 -7 4 -8 38 -4 88 8 92 -5 100
-15 10 -6 -54 -8 -58 -33 -61 -27 -3 -27 -3 -13 25 17 31 20 93 6 93 -5 0 -11
7 -13 16 -2 9 -6 12 -10 8z m392 -103 c0 -6 -4 -13 -10 -16 -5 -3 -10 1 -10 9
0 9 5 16 10 16 6 0 10 -4 10 -9z m-1015 -91 c3 -6 -4 -10 -17 -10 -18 0 -20 2
-8 10 19 12 18 12 25 0z"/>
<path d="M2915 2544 c-27 -66 -15 -136 16 -97 12 14 12 16 -1 8 -12 -7 -13 -6
-4 6 10 13 18 119 8 119 -2 0 -11 -16 -19 -36z"/>
<path d="M3324 2450 c-12 -40 -1 -51 24 -26 10 9 11 16 5 16 -6 0 -13 10 -15
23 -4 19 -6 17 -14 -13z"/>
<path d="M2010 2431 c0 -12 5 -21 10 -21 6 0 10 6 10 14 0 8 -4 18 -10 21 -5
3 -10 -3 -10 -14z"/>
<path d="M3357 2410 c-22 -48 -18 -73 6 -37 20 30 32 77 21 77 -5 0 -17 -18
-27 -40z"/>
<path d="M2115 2309 c-4 -5 -18 -14 -31 -19 -13 -5 -24 -17 -24 -25 0 -13 8
-10 35 11 19 14 35 30 35 35 0 12 -7 11 -15 -2z"/>
<path d="M2020 2160 c0 -5 5 -10 11 -10 5 0 7 5 4 10 -3 6 -8 10 -11 10 -2 0
-4 -4 -4 -10z"/>
<path d="M2615 2100 c-3 -5 -1 -10 4 -10 6 0 11 5 11 10 0 6 -2 10 -4 10 -3 0
-8 -4 -11 -10z"/>
<path d="M3200 1980 c0 -5 5 -10 10 -10 6 0 10 5 10 10 0 6 -4 10 -10 10 -5 0
-10 -4 -10 -10z"/>
<path d="M2176 3769 c-2 -8 -7 -63 -10 -124 -3 -60 -8 -137 -11 -170 -4 -46
-3 -53 4 -30 11 33 33 326 26 333 -2 3 -7 -1 -9 -9z"/>
<path d="M3382 3755 c0 -16 2 -22 5 -12 2 9 2 23 0 30 -3 6 -5 -1 -5 -18z"/>
<path d="M3290 3741 c0 -6 4 -13 10 -16 6 -3 7 1 4 9 -7 18 -14 21 -14 7z"/>
<path d="M2071 3724 c0 -11 3 -14 6 -6 3 7 2 16 -1 19 -3 4 -6 -2 -5 -13z"/>
<path d="M3012 3710 c0 -19 2 -27 5 -17 2 9 2 25 0 35 -3 9 -5 1 -5 -18z"/>
<path d="M3042 3689 c-1 -31 -4 -78 -7 -105 l-5 -49 11 40 c5 22 8 69 6 105
l-3 65 -2 -56z"/>
<path d="M3097 3713 c-8 -43 -8 -269 0 -256 9 12 18 283 10 283 -3 0 -7 -12
-10 -27z"/>
<path d="M2196 3638 c-13 -173 -16 -318 -8 -318 8 0 25 390 17 398 -1 2 -6
-34 -9 -80z"/>
<path d="M2483 3685 c0 -22 2 -30 4 -17 2 12 2 30 0 40 -3 9 -5 -1 -4 -23z"/>
<path d="M3286 3633 c-3 -38 -10 -101 -14 -141 -4 -40 -4 -78 0 -85 4 -7 8 8
9 33 0 25 2 54 5 65 7 35 17 195 12 195 -3 0 -8 -30 -12 -67z"/>
<path d="M3330 3668 c0 -18 -3 -71 -6 -118 -4 -47 -4 -82 0 -78 9 8 21 228 12
228 -3 0 -6 -15 -6 -32z"/>
<path d="M3211 3664 c0 -11 3 -14 6 -6 3 7 2 16 -1 19 -3 4 -6 -2 -5 -13z"/>
<path d="M3240 3670 c0 -5 5 -10 11 -10 5 0 7 5 4 10 -3 6 -8 10 -11 10 -2 0
-4 -4 -4 -10z"/>
<path d="M3383 3625 c0 -33 2 -45 4 -27 2 18 2 45 0 60 -2 15 -4 0 -4 -33z"/>
<path d="M3130 3594 c0 -41 4 -63 10 -59 6 3 10 33 10 66 0 33 -4 59 -10 59
-6 0 -10 -29 -10 -66z"/>
<path d="M3177 3653 c-5 -7 -6 -17 -3 -22 5 -8 -9 -161 -20 -215 -4 -18 -2
-26 4 -22 5 3 13 36 17 73 4 38 10 75 14 83 9 21 -2 118 -12 103z"/>
<path d="M3007 3643 c-4 -3 -7 -18 -6 -32 1 -26 1 -25 10 3 9 31 7 41 -4 29z"/>
<path d="M2493 3572 c-16 -96 -48 -216 -62 -237 -4 -5 -16 -37 -26 -70 -11
-33 -24 -67 -30 -75 -5 -8 -15 -25 -22 -36 -7 -12 -35 -64 -64 -115 -28 -52
-55 -96 -58 -99 -17 -12 -61 -78 -61 -91 0 -17 80 68 100 107 8 16 17 31 20
34 8 8 60 115 60 124 0 4 13 28 30 52 16 25 32 57 36 72 3 15 16 54 29 87 29
74 62 197 68 251 8 70 -8 67 -20 -4z"/>
<path d="M3207 3541 c-4 -55 -10 -107 -14 -117 -4 -11 -2 -15 4 -11 6 4 14 41
18 84 4 43 9 93 11 111 2 17 0 32 -5 32 -4 0 -11 -45 -14 -99z"/>
<path d="M2422 3590 c0 -19 2 -27 5 -17 2 9 2 25 0 35 -3 9 -5 1 -5 -18z"/>
<path d="M3235 3555 c-4 -37 -5 -69 -2 -72 3 -2 8 25 12 62 4 36 5 68 2 71 -2
3 -8 -25 -12 -61z"/>
<path d="M2392 3560 c0 -14 2 -19 5 -12 2 6 2 18 0 25 -3 6 -5 1 -5 -13z"/>
<path d="M2417 3523 c-4 -3 -7 -36 -7 -71 0 -83 9 -76 15 11 5 67 4 73 -8 60z"/>
<path d="M3022 3500 c0 -14 2 -19 5 -12 2 6 2 18 0 25 -3 6 -5 1 -5 -13z"/>
<path d="M3126 3473 c-5 -42 -2 -63 8 -52 9 10 16 99 8 99 -5 0 -12 -21 -16
-47z"/>
<path d="M2356 3478 c-10 -30 -15 -172 -6 -157 11 19 25 169 16 169 -4 0 -8
-6 -10 -12z"/>
<path d="M2044 3444 c3 -9 6 -22 6 -30 0 -8 4 -14 8 -14 5 0 7 14 4 30 -2 17
-9 30 -14 30 -6 0 -7 -7 -4 -16z"/>
<path d="M2271 3444 c0 -11 3 -14 6 -6 3 7 2 16 -1 19 -3 4 -6 -2 -5 -13z"/>
<path d="M3045 3450 c3 -5 8 -10 11 -10 2 0 4 5 4 10 0 6 -5 10 -11 10 -5 0
-7 -4 -4 -10z"/>
<path d="M2101 3373 c1 -67 2 -67 10 -23 11 63 11 90 -1 90 -6 0 -9 -28 -9
-67z"/>
<path d="M3231 3403 c-1 -17 4 -35 9 -38 11 -7 11 9 0 45 -8 24 -8 24 -9 -7z"/>
<path d="M3047 3413 c-11 -10 -8 -63 3 -63 6 0 10 16 10 35 0 36 -2 40 -13 28z"/>
<path d="M3086 3333 c-9 -65 -8 -99 3 -87 11 11 20 123 11 129 -4 3 -10 -16
-14 -42z"/>
<path d="M3208 3324 c-5 -4 -8 -16 -8 -28 0 -14 3 -17 11 -9 6 6 9 19 7 28 -1
9 -6 13 -10 9z"/>
<path d="M3147 3293 c-11 -10 -8 -71 3 -78 6 -4 10 12 10 39 0 47 -2 51 -13
39z"/>
<path d="M2187 3233 c-4 -3 -7 -16 -6 -27 0 -19 1 -19 10 3 10 24 8 36 -4 24z"/>
<path d="M2140 3192 c0 -23 4 -42 9 -42 6 0 7 17 4 38 -8 51 -13 53 -13 4z"/>
<path d="M5674 2795 c-7 -17 4 -38 15 -30 5 2 11 14 14 25 6 23 -20 29 -29 5z"/>
<path d="M5685 2740 c-32 -15 -72 -50 -56 -50 8 0 23 8 33 17 15 13 23 15 37
6 16 -10 17 -8 13 13 -2 13 -5 24 -6 23 0 0 -10 -4 -21 -9z"/>
<path d="M5752 2728 c3 -7 13 -15 22 -16 12 -3 17 1 14 10 -3 7 -13 15 -22 16
-12 3 -17 -1 -14 -10z"/>
<path d="M5729 2657 c-24 -24 -55 -50 -68 -60 -35 -24 -21 -30 24 -11 28 12
40 13 45 4 9 -14 50 -4 50 11 0 6 -8 8 -19 4 -34 -10 -33 31 2 65 17 16 26 30
21 30 -6 0 -30 -19 -55 -43z"/>
<path d="M6847 2666 c-4 -10 -7 -25 -6 -34 0 -11 4 -9 10 7 5 13 8 29 6 35 -2
5 -6 2 -10 -8z"/>
<path d="M8200 2670 c0 -5 5 -10 11 -10 5 0 7 5 4 10 -3 6 -8 10 -11 10 -2 0
-4 -4 -4 -10z"/>
<path d="M8230 2670 c0 -5 9 -10 20 -10 11 0 20 5 20 10 0 6 -9 10 -20 10 -11
0 -20 -4 -20 -10z"/>
<path d="M7891 2622 c-1 -7 6 -26 15 -43 8 -16 12 -39 9 -49 -5 -16 -2 -20 16
-20 18 0 20 3 11 12 -7 7 -12 22 -12 34 0 13 -5 26 -11 29 -6 4 -14 17 -19 29
-5 11 -9 15 -9 8z"/>
<path d="M7943 2612 c-8 -5 -8 -14 1 -36 9 -22 19 -30 43 -32 18 -2 35 1 38 6
4 6 -7 10 -24 10 -23 0 -29 4 -25 15 4 9 0 15 -10 15 -22 0 -20 17 2 23 12 3
13 5 2 6 -8 0 -20 -3 -27 -7z"/>
<path d="M6832 2585 c0 -16 2 -22 5 -12 2 9 2 23 0 30 -3 6 -5 -1 -5 -18z"/>
<path d="M8190 2580 c0 -5 5 -10 11 -10 5 0 7 5 4 10 -3 6 -8 10 -11 10 -2 0
-4 -4 -4 -10z"/>
<path d="M8260 2564 c0 -17 22 -14 28 4 2 7 -3 12 -12 12 -9 0 -16 -7 -16 -16z"/>
<path d="M8505 2570 c-3 -5 -1 -10 4 -10 6 0 11 5 11 10 0 6 -2 10 -4 10 -3 0
-8 -4 -11 -10z"/>
<path d="M7900 2489 c0 -5 5 -7 10 -4 6 3 10 8 10 11 0 2 -4 4 -10 4 -5 0 -10
-5 -10 -11z"/>
<path d="M8345 2490 c3 -5 8 -10 11 -10 2 0 4 5 4 10 0 6 -5 10 -11 10 -5 0
-7 -4 -4 -10z"/>
<path d="M8405 2480 c-3 -5 -2 -10 4 -10 5 0 13 5 16 10 3 6 2 10 -4 10 -5 0
-13 -4 -16 -10z"/>
<path d="M5940 2460 c0 -5 5 -10 10 -10 6 0 10 5 10 10 0 6 -4 10 -10 10 -5 0
-10 -4 -10 -10z"/>
<path d="M6790 2445 c-6 -16 -8 -36 -4 -44 5 -11 9 -4 16 23 10 47 3 60 -12
21z"/>
<path d="M8365 2450 c-3 -5 -1 -10 4 -10 6 0 11 5 11 10 0 6 -2 10 -4 10 -3 0
-8 -4 -11 -10z"/>
<path d="M7540 2441 c0 -6 5 -13 10 -16 6 -3 10 1 10 9 0 9 -4 16 -10 16 -5 0
-10 -4 -10 -9z"/>
<path d="M8320 2430 c0 -5 5 -10 10 -10 6 0 10 5 10 10 0 6 -4 10 -10 10 -5 0
-10 -4 -10 -10z"/>
<path d="M6725 2399 c-4 -6 -5 -12 -2 -15 2 -3 7 2 10 11 7 17 1 20 -8 4z"/>
<path d="M5695 2380 c3 -5 8 -10 11 -10 2 0 4 5 4 10 0 6 -5 10 -11 10 -5 0
-7 -4 -4 -10z"/>
<path d="M8200 2325 c-14 -8 -19 -14 -10 -14 8 0 26 6 40 14 14 8 19 14 10 14
-8 0 -26 -6 -40 -14z"/>
<path d="M5753 2320 c-27 -11 -31 -40 -5 -40 21 0 42 18 42 37 0 15 -6 15 -37
3z"/>
<path d="M5873 2255 c5 -14 49 -12 55 3 2 9 -6 12 -27 10 -17 -1 -30 -7 -28
-13z"/>
<path d="M5820 2241 c0 -8 37 -43 60 -57 8 -4 4 6 -10 23 -25 32 -50 49 -50
34z"/>
<path d="M7798 2213 c7 -3 16 -2 19 1 4 3 -2 6 -13 5 -11 0 -14 -3 -6 -6z"/>
<path d="M5936 2145 c27 -36 47 -42 74 -25 12 8 10 10 -10 10 -14 0 -36 12
-49 25 -35 37 -46 30 -15 -10z"/>
<path d="M7240 2170 c0 -5 12 -10 28 -10 21 0 24 2 12 10 -20 13 -40 13 -40 0z"/>
<path d="M6980 2154 c0 -8 5 -12 10 -9 6 3 10 10 10 16 0 5 -4 9 -10 9 -5 0
-10 -7 -10 -16z"/>
<path d="M7418 2163 c7 -3 16 -2 19 1 4 3 -2 6 -13 5 -11 0 -14 -3 -6 -6z"/>
<path d="M6685 2140 c3 -5 13 -10 21 -10 8 0 14 5 14 10 0 6 -9 10 -21 10 -11
0 -17 -4 -14 -10z"/>
<path d="M7847 2139 c7 -7 15 -10 18 -7 3 3 -2 9 -12 12 -14 6 -15 5 -6 -5z"/>
<path d="M7570 2130 c-13 -8 -12 -10 3 -10 9 0 17 5 17 10 0 12 -1 12 -20 0z"/>
<path d="M7725 2133 c-16 -3 -34 -9 -39 -14 -14 -12 -1 -11 59 5 49 14 40 17
-20 9z"/>
<path d="M6038 2123 c7 -3 16 -2 19 1 4 3 -2 6 -13 5 -11 0 -14 -3 -6 -6z"/>
<path d="M7560 2090 c0 -5 5 -10 10 -10 6 0 10 5 10 10 0 6 -4 10 -10 10 -5 0
-10 -4 -10 -10z"/>
<path d="M6818 2073 c6 -2 18 -2 25 0 6 3 1 5 -13 5 -14 0 -19 -2 -12 -5z"/>
<path d="M7145 2070 c3 -5 12 -7 20 -3 21 7 19 13 -6 13 -11 0 -18 -4 -14 -10z"/>
<path d="M7230 2030 c0 -6 7 -10 15 -10 8 0 15 2 15 4 0 2 -7 6 -15 10 -8 3
-15 1 -15 -4z"/>
<path d="M6880 2026 c0 -2 9 -6 20 -9 11 -3 20 -1 20 4 0 5 -9 9 -20 9 -11 0
-20 -2 -20 -4z"/>
<path d="M2671 970 c-71 -33 -116 -88 -142 -172 -19 -64 -21 -89 -16 -201 4
-110 8 -134 31 -180 22 -45 34 -57 97 -91 62 -33 77 -38 115 -32 95 13 156 66
174 152 13 64 6 80 -33 70 -15 -3 -30 -18 -37 -36 -39 -95 -181 -62 -215 50
-13 40 -16 70 -15 140 1 76 6 102 31 152 33 66 81 75 136 28 18 -16 44 -30 56
-30 29 0 67 27 67 47 0 28 -34 72 -67 88 -18 9 -35 20 -38 25 -10 17 -98 11
-144 -10z m166 -23 c54 -31 71 -87 34 -107 -24 -12 -50 -3 -74 27 -14 17 -29
23 -59 23 -82 0 -152 -115 -151 -250 0 -164 69 -246 203 -243 19 1 39 -4 43
-10 5 -8 7 -7 5 4 -2 9 12 28 30 43 29 25 32 26 32 8 0 -22 -54 -95 -64 -85
-3 3 -14 -1 -24 -10 -40 -36 -137 -23 -185 25 -47 48 -58 67 -68 124 -18 99
-21 176 -8 244 6 36 13 77 15 92 7 51 89 122 158 138 38 9 70 3 113 -23z"/>
<path d="M989 939 c-6 -3 -9 -28 -7 -55 l3 -49 120 0 120 0 2 -60 c5 -164 4
-406 -2 -415 -3 -6 -3 -19 0 -30 5 -16 15 -20 51 -20 88 0 84 -12 82 265 -1
134 1 248 5 252 4 4 32 8 63 10 71 3 91 21 78 71 l-9 37 -248 0 c-137 0 -253
-2 -258 -6z m489 -47 l3 -32 -50 0 c-37 0 -56 -6 -76 -22 l-26 -23 -2 -240 -2
-240 -31 -3 -31 -3 -1 257 c0 187 -3 259 -12 264 -6 4 -63 5 -126 2 l-114 -5
0 35 c0 19 2 37 4 39 2 2 107 4 233 4 l228 0 3 -33z"/>
<path d="M1557 942 c-16 -3 -18 -10 -12 -38 3 -19 8 -156 10 -306 5 -300 6
-303 64 -292 49 10 60 46 50 164 -5 52 -10 104 -11 115 -3 18 3 20 62 20 l65
0 -4 -110 c-4 -132 11 -185 52 -181 50 6 50 7 43 183 -4 90 -9 170 -12 178 -8
20 -51 34 -129 43 l-70 7 -1 40 c-1 22 -2 57 -3 77 -2 60 -55 111 -104 100z
m56 -39 c8 -10 18 -45 22 -78 14 -135 8 -125 78 -126 82 -1 110 -10 124 -39
17 -36 22 -305 6 -321 -22 -22 -33 36 -29 157 4 132 5 131 -87 135 -68 3 -103
-17 -93 -54 13 -55 18 -204 7 -225 -11 -20 -51 -32 -51 -14 0 4 -2 115 -4 247
-2 132 -7 261 -11 288 -6 38 -5 47 7 47 8 0 22 -8 31 -17z"/>
<path d="M5975 907 c-22 -18 -25 -26 -17 -47 5 -14 7 -136 5 -273 -2 -162 0
-254 7 -267 12 -22 40 -26 69 -10 23 12 45 140 38 222 -7 75 5 90 63 86 41 -3
46 -6 57 -38 8 -24 10 -73 6 -151 -5 -113 -5 -117 16 -128 32 -17 59 -4 69 33
7 23 0 331 -7 342 -28 42 -95 66 -159 56 -28 -4 -31 -1 -41 34 -6 22 -13 55
-16 75 -5 37 -38 89 -55 89 -5 0 -21 -10 -35 -23z m55 -39 c12 -20 20 -51 20
-79 0 -59 13 -69 92 -76 116 -10 128 -33 128 -250 0 -136 -1 -143 -20 -143
-19 0 -20 7 -21 123 0 71 -6 137 -13 157 -12 33 -15 35 -64 38 -44 3 -56 -1
-77 -22 -23 -24 -25 -31 -25 -129 0 -115 -13 -170 -39 -165 -14 3 -16 33 -16
291 0 158 3 287 8 287 4 0 16 -15 27 -32z"/>
<path d="M7031 910 c-50 -12 -83 -40 -112 -97 -49 -95 -63 -347 -25 -438 22
-53 69 -78 142 -79 60 -1 65 1 102 37 35 34 72 110 72 148 0 17 -30 49 -46 49
-21 0 -54 -42 -54 -68 0 -49 -32 -64 -84 -41 -37 17 -51 63 -51 164 0 102 17
167 54 208 38 41 65 36 91 -18 38 -78 100 -70 100 13 0 44 -11 63 -57 94 -45
31 -85 39 -132 28z m131 -51 c30 -36 46 -95 30 -111 -14 -14 -49 6 -58 34 -25
83 -95 75 -150 -17 -22 -38 -26 -60 -31 -153 -6 -119 3 -166 40 -200 51 -48
137 -18 137 47 0 39 23 57 44 36 19 -19 14 -51 -16 -106 -30 -55 -67 -72 -138
-64 -95 11 -119 51 -122 203 -2 125 24 252 64 309 38 56 53 64 117 60 48 -3
58 -8 83 -38z"/>
<path d="M5533 890 c-123 -5 -142 -15 -143 -72 0 -41 28 -50 137 -46 l95 3 -3
-230 -4 -230 25 -12 c33 -17 75 -16 92 1 11 10 15 54 18 172 3 151 4 194 8
256 2 31 40 48 108 48 50 0 74 19 74 60 0 62 -39 66 -407 50z m360 -18 c12 -1
17 -11 17 -36 l0 -34 -72 -7 c-105 -11 -118 -27 -119 -147 -1 -51 -1 -109 0
-128 1 -19 -1 -72 -4 -117 l-7 -83 -30 0 -30 0 4 213 c3 116 2 223 -2 237 -6
25 -7 25 -110 25 l-103 0 -8 27 c-10 40 7 48 100 47 45 -1 84 0 86 2 4 4 246
5 278 1z"/>
<path d="M8345 812 c-11 -4 -32 -15 -48 -26 -22 -15 -30 -16 -42 -6 -16 14
-64 22 -77 14 -4 -3 0 -20 9 -37 14 -26 17 -59 18 -172 0 -77 -3 -167 -7 -200
-8 -74 -1 -88 42 -83 57 5 74 42 79 161 2 57 -2 132 -10 170 -7 37 -10 69 -8
71 2 2 25 6 51 10 l47 7 3 -33 c3 -30 6 -33 38 -33 31 0 35 3 38 27 11 92 -54
155 -133 130z m87 -29 c27 -30 44 -123 23 -123 -20 0 -35 17 -35 40 0 37 -8
41 -64 34 -75 -11 -82 -20 -68 -95 17 -84 17 -239 1 -284 -10 -28 -18 -35 -40
-35 l-26 0 1 208 c1 152 -2 213 -12 230 -15 26 -2 29 31 8 20 -13 27 -12 67 9
54 28 101 31 122 8z"/>
<path d="M3787 789 c-30 -23 -57 -101 -57 -163 0 -55 -11 -116 -20 -116 -5 0
-16 26 -26 57 -18 56 -43 93 -64 93 -18 0 -57 -48 -84 -103 l-25 -52 5 120 c6
113 5 121 -15 143 -26 26 -82 30 -102 6 -10 -13 -10 -22 1 -52 10 -26 14 -87
15 -208 0 -186 5 -205 54 -202 49 3 75 31 106 117 16 45 34 80 39 78 5 -2 17
-38 25 -81 9 -43 23 -81 31 -86 53 -33 101 14 129 125 27 110 61 276 61 299 0
17 -25 45 -41 46 -4 0 -18 -9 -32 -21z m40 -56 c-14 -140 -61 -336 -88 -369
-6 -8 -20 -14 -29 -14 -19 0 -27 18 -50 110 -13 49 -37 83 -52 74 -5 -4 -25
-41 -44 -83 -19 -42 -38 -83 -43 -91 -11 -20 -61 -25 -72 -8 -5 7 -8 60 -7
118 2 121 -8 221 -28 268 l-13 32 40 0 c55 0 63 -23 54 -173 l-6 -119 22 4
c18 2 27 16 42 58 32 94 78 123 92 59 4 -16 10 -29 15 -29 4 0 11 -18 15 -39
8 -50 29 -80 45 -65 6 6 21 69 34 140 22 129 39 174 64 174 11 0 13 -12 9 -47z"/>
<path d="M7394 790 c-91 -41 -127 -118 -126 -267 1 -126 20 -173 85 -204 40
-19 46 -20 92 -7 27 8 52 21 56 29 3 8 13 28 22 44 45 87 54 230 21 317 -34
87 -86 118 -150 88z m88 -27 c87 -94 75 -358 -19 -420 -31 -20 -88 -11 -120
19 -48 44 -56 73 -50 177 8 135 31 191 95 233 38 25 64 22 94 -9z"/>
<path d="M7387 692 c-31 -32 -47 -101 -47 -197 0 -51 4 -65 23 -83 26 -24 48
-27 78 -12 45 25 75 144 59 233 -17 88 -63 112 -113 59z m78 -6 c25 -38 22
-176 -5 -232 -22 -44 -40 -53 -69 -35 -38 24 -21 239 20 274 28 23 36 22 54
-7z"/>
<path d="M8052 797 c-9 -11 -23 -64 -61 -231 -11 -49 -27 -40 -41 21 -15 72
-39 122 -66 140 -18 12 -24 11 -46 -6 -24 -19 -39 -53 -71 -156 -18 -58 -18
-57 -47 95 -11 63 -26 120 -32 127 -7 9 -28 13 -55 11 -35 -1 -42 -5 -37 -17
7 -15 32 -115 55 -222 6 -26 12 -82 14 -125 2 -44 6 -87 10 -97 11 -27 52 -33
76 -11 28 25 59 87 59 117 0 13 3 27 8 31 4 4 12 29 17 54 11 53 33 62 52 21
7 -14 15 -63 19 -110 9 -123 42 -160 93 -105 22 23 111 284 111 325 0 9 4 21
9 27 5 5 11 28 15 51 4 31 2 46 -10 57 -19 19 -58 21 -72 3z m68 -35 c0 -10
-23 -94 -51 -187 -28 -94 -53 -180 -56 -192 -3 -12 -14 -30 -24 -39 -32 -29
-48 -1 -63 108 -8 52 -18 104 -25 115 -14 28 -37 35 -55 18 -12 -13 -56 -139
-56 -163 0 -5 -14 -28 -30 -51 -26 -35 -33 -39 -49 -29 -15 9 -19 28 -24 97
-6 97 -32 248 -52 303 -14 40 -8 52 20 42 19 -8 36 -44 41 -89 11 -91 39 -205
51 -205 16 0 25 21 53 117 42 146 78 147 126 1 24 -74 35 -93 50 -93 16 0 25
21 54 131 19 71 39 135 43 142 11 17 47 -3 47 -26z"/>
<path d="M8533 804 c-9 -4 -10 -24 -6 -67 3 -34 0 -111 -6 -172 -12 -120 -5
-169 29 -200 20 -18 93 -36 160 -38 29 -2 34 -5 32 -22 -2 -11 -15 -32 -30
-47 -20 -22 -35 -28 -69 -28 -74 0 -140 -36 -169 -93 -11 -20 -12 -32 -4 -47
15 -28 29 -25 66 11 30 29 37 32 100 30 36 -1 70 -4 75 -6 14 -9 87 26 102 49
19 29 36 141 51 331 12 152 6 266 -15 291 -14 17 -55 19 -64 3 -4 -5 -9 -79
-12 -162 -5 -181 -12 -202 -67 -202 -30 0 -43 6 -59 27 -17 23 -20 43 -21 150
-1 110 -3 127 -24 161 -22 34 -40 42 -69 31z m312 -145 c1 -135 -8 -243 -32
-374 -24 -136 -33 -144 -151 -138 -82 5 -89 3 -126 -21 -44 -31 -57 -27 -36
11 27 47 65 67 135 71 54 4 70 9 95 32 31 29 46 70 36 96 -5 12 -14 15 -36 11
-20 -5 -32 -2 -38 8 -6 13 -14 13 -39 4 -35 -12 -64 -1 -95 35 -17 19 -18 35
-14 136 3 63 6 148 6 188 0 54 3 73 13 70 24 -8 39 -82 41 -198 1 -157 26
-193 121 -176 41 8 62 35 70 91 7 49 7 257 0 263 -3 3 0 11 7 19 10 12 14 12
27 -2 13 -12 16 -39 16 -126z"/>
<path d="M3142 780 c-41 -10 -76 -41 -110 -100 -22 -37 -27 -59 -30 -135 -3
-80 -1 -95 20 -135 16 -30 39 -53 67 -69 40 -22 47 -23 96 -12 93 21 135 90
143 237 4 86 3 95 -23 142 -36 67 -89 90 -163 72z m106 -32 c32 -35 62 -108
62 -153 0 -69 -28 -176 -52 -203 -35 -37 -78 -52 -122 -42 -76 17 -110 72
-110 180 0 152 59 238 165 240 24 0 42 -7 57 -22z"/>
<path d="M3140 713 c-16 -6 -36 -31 -59 -73 -8 -14 -16 -62 -19 -108 -4 -81
-4 -84 24 -113 50 -52 126 -33 164 40 57 113 26 244 -60 255 -19 3 -42 2 -50
-1z m83 -31 c20 -22 37 -126 27 -162 -34 -118 -112 -153 -152 -67 -15 30 -16
48 -9 104 5 37 16 85 24 106 15 34 19 37 55 37 25 0 45 -7 55 -18z"/>
<path d="M6443 730 c-18 -10 -39 -31 -49 -45 -27 -41 -42 -135 -33 -204 12
-83 30 -123 71 -155 29 -21 46 -26 94 -26 36 0 73 7 94 18 61 30 104 150 65
182 -23 19 -51 3 -70 -40 -30 -67 -93 -91 -130 -50 -24 26 -33 124 -14 136 8
5 53 7 101 5 83 -3 87 -2 103 23 20 30 14 68 -18 115 -40 58 -152 79 -214 41z
m151 -15 c8 -8 19 -15 25 -15 13 0 41 -58 41 -85 0 -37 -22 -47 -106 -44 -70
2 -79 0 -96 -21 -22 -28 -23 -81 -1 -127 17 -37 54 -57 89 -49 37 10 81 53 88
87 4 22 11 30 23 27 46 -8 11 -124 -46 -152 -81 -40 -190 -3 -211 71 -34 122
-19 233 37 290 30 29 40 33 88 33 34 0 59 -5 69 -15z"/>
<path d="M6498 684 c-30 -16 -52 -49 -43 -64 8 -13 152 -13 160 0 11 18 -6 50
-35 65 -36 18 -47 18 -82 -1z m97 -32 c8 -21 7 -21 -60 -24 -61 -2 -71 6 -43
39 22 27 91 17 103 -15z"/>
<path d="M2034 716 c-52 -23 -82 -73 -95 -156 -20 -133 2 -206 72 -234 51 -21
127 -19 153 3 29 25 54 83 46 111 -10 40 -46 38 -83 -5 -29 -33 -34 -36 -60
-26 -29 11 -50 51 -41 76 7 17 1 16 83 19 82 3 101 23 101 102 0 45 -5 59 -27
84 -34 37 -100 48 -149 26z m127 -32 c19 -20 24 -36 24 -78 0 -71 -14 -86 -82
-86 -70 0 -101 -19 -95 -59 5 -38 36 -71 66 -71 23 0 74 32 89 57 14 22 27 14
27 -16 0 -15 -10 -43 -23 -62 -22 -33 -26 -34 -81 -32 -70 2 -100 20 -116 69
-16 49 -7 171 17 230 30 74 125 100 174 48z"/>
<path d="M2063 660 c-27 -11 -55 -61 -44 -79 11 -18 110 -16 128 2 13 12 12
19 -1 51 -16 38 -37 45 -83 26z m55 -12 c7 -7 12 -25 12 -40 0 -27 -2 -28 -45
-28 -38 0 -45 3 -45 20 0 22 33 60 53 60 7 0 18 -5 25 -12z"/>
<path d="M3932 429 c-29 -11 -44 -51 -32 -84 8 -21 16 -25 49 -25 38 0 40 2
46 34 4 19 5 42 3 51 -4 23 -37 35 -66 24z m38 -48 c0 -17 -5 -33 -10 -36 -16
-10 -40 15 -40 41 0 19 5 24 25 24 21 0 25 -5 25 -29z"/>
<path d="M8930 400 c-40 -40 -17 -99 41 -100 35 0 49 18 49 62 0 56 -50 78
-90 38z m55 -40 c0 -28 -4 -35 -19 -35 -13 0 -22 10 -27 29 -10 36 -3 48 24
44 18 -2 22 -10 22 -38z"/>
</g>
</svg>
