<?xml version="1.0" standalone="no"?>
<!DOCTYPE svg PUBLIC "-//W3C//DTD SVG 20010904//EN"
 "http://www.w3.org/TR/2001/REC-SVG-20010904/DTD/svg10.dtd">
<svg version="1.0" xmlns="http://www.w3.org/2000/svg"
 width="1000.000000pt" height="646.000000pt" viewBox="0 0 1000.000000 646.000000"
 preserveAspectRatio="xMidYMid meet">
<metadata>
Created by potrace 1.16, written by Peter Selinger 2001-2019
</metadata>
<g transform="translate(0.000000,646.000000) scale(0.100000,-0.100000)"
fill="#000000" stroke="none">
<path d="M7159 6273 c-32 -36 -79 -106 -79 -119 0 -5 5 -2 10 6 10 16 10 18
14 -35 1 -14 7 -19 23 -18 19 2 21 -2 20 -45 -2 -34 2 -46 11 -44 21 4 4 -58
-21 -78 -14 -12 -20 -29 -21 -61 -1 -26 -5 -42 -11 -39 -5 3 -9 13 -8 23 2 9
-2 17 -7 17 -6 0 -10 -14 -10 -31 0 -37 -16 -30 -25 11 -7 33 -21 40 -27 13
-3 -13 -10 -6 -22 22 -19 43 -18 146 2 218 13 50 7 47 -19 -10 -32 -72 -30
-163 7 -234 16 -30 30 -57 32 -61 2 -5 -3 -8 -12 -8 -9 0 -16 -7 -16 -15 0
-13 4 -14 23 -4 22 12 22 12 3 -10 -22 -24 -15 -41 9 -21 9 7 18 10 21 7 9 -9
7 -201 -2 -204 -27 -10 -36 -22 -29 -42 3 -11 12 -21 20 -21 10 0 14 -22 17
-89 3 -84 2 -90 -17 -88 -31 3 -31 -31 -1 -39 23 -6 26 -11 28 -58 2 -75 3
-93 22 -296 23 -255 25 -274 41 -370 13 -73 34 -287 35 -342 0 -10 -4 -18 -8
-18 -14 0 -53 93 -50 120 2 16 -2 25 -14 28 -15 3 -18 -4 -18 -32 0 -25 4 -36
15 -36 10 0 15 -10 15 -31 0 -21 9 -39 30 -58 31 -28 55 -87 40 -96 -10 -6
-52 64 -102 170 -38 80 -51 166 -28 180 6 3 10 24 10 46 0 28 -4 39 -15 39
-25 0 -40 -45 -26 -77 7 -15 8 -30 3 -35 -5 -5 -20 30 -37 82 -31 103 -30 151
4 197 29 39 40 130 17 139 -22 8 -44 -12 -54 -50 -5 -17 -12 -31 -18 -31 -13
0 -27 157 -15 164 18 11 61 115 61 147 0 42 -21 60 -42 36 -9 -9 -20 -30 -27
-47 -9 -25 -10 -17 -6 50 5 68 9 83 29 100 45 39 58 95 22 95 -18 0 -27 -25
-14 -38 8 -8 7 -16 -2 -27 -23 -28 -29 -2 -19 85 6 47 8 100 5 117 -5 35 13
63 40 63 16 0 19 21 4 36 -6 6 -6 23 1 49 11 40 5 140 -10 159 -4 6 -14 32
-22 59 -7 26 -17 47 -21 47 -17 0 -48 -41 -47 -62 1 -20 3 -18 15 10 13 31 42
47 31 18 -3 -8 3 -34 14 -57 29 -59 37 -148 16 -161 -11 -6 -17 -22 -17 -43 0
-19 -4 -35 -10 -35 -5 0 -10 14 -10 31 0 17 -4 28 -10 24 -5 -3 -10 -15 -10
-26 0 -11 -4 -17 -10 -14 -5 3 -10 18 -10 32 0 20 -3 23 -13 14 -18 -14 -27
-4 -27 30 0 21 -6 28 -25 31 -28 6 -34 -6 -10 -19 8 -5 17 -22 19 -38 7 -56
31 -115 46 -115 12 -1 12 -3 -2 -14 -20 -15 -24 -36 -7 -36 7 0 18 8 25 18 25
32 30 -5 17 -125 -12 -105 -11 -390 1 -498 10 -82 39 -246 52 -293 18 -61 111
-276 148 -342 14 -25 34 -61 45 -82 11 -20 26 -38 33 -40 7 -3 13 -19 14 -37
5 -89 17 -211 25 -248 5 -23 11 -86 15 -140 3 -54 7 -103 9 -109 2 -6 0 -29
-5 -50 -5 -21 -5 -43 0 -49 9 -11 5 -784 -6 -1360 -11 -528 -10 -750 1 -748 6
0 12 -3 15 -7 3 -4 5 94 6 218 1 125 4 346 8 492 3 146 6 336 7 424 0 105 5
164 12 174 7 8 48 49 92 91 261 249 285 282 340 476 9 33 26 79 36 102 13 27
19 60 18 95 -2 66 6 145 20 179 12 34 -4 83 -43 130 -47 55 -67 114 -64 183
l3 61 23 -37 c28 -45 38 -47 46 -12 7 25 8 26 26 9 11 -10 20 -27 20 -37 0
-11 4 -17 9 -13 5 3 7 21 4 41 -5 30 -3 36 15 41 12 3 19 10 16 15 -3 5 -14 2
-24 -7 -22 -20 -40 -12 -40 16 0 10 -4 19 -10 19 -5 0 -10 -8 -10 -17 0 -10
-5 -25 -10 -33 -7 -12 -13 -11 -35 10 -37 35 -49 16 -47 -75 3 -91 9 -109 61
-169 49 -56 51 -67 31 -171 -5 -27 -19 -103 -32 -167 -12 -65 -25 -118 -30
-118 -4 0 -8 24 -8 53 0 46 -4 57 -30 82 -24 23 -32 26 -45 15 -21 -17 -19
-53 4 -81 25 -31 38 -18 15 15 -19 30 -12 46 14 30 22 -15 35 -84 15 -84 -16
0 -10 -30 13 -67 12 -19 12 -29 -2 -70 -22 -66 -45 -113 -55 -113 -4 0 -7 22
-7 48 1 27 -2 54 -6 60 -10 17 -33 15 -40 -4 -8 -21 2 -37 20 -30 20 8 19 -63
-1 -91 -8 -12 -11 -23 -5 -25 5 -2 -11 -25 -35 -53 -43 -49 -44 -49 -34 -17
11 31 7 107 -5 119 -3 3 -12 0 -20 -6 -17 -14 -10 -41 10 -41 37 0 -6 -107
-65 -162 -44 -43 -51 -45 -52 -20 0 11 -4 8 -8 -8 -5 -14 -29 -56 -55 -94
l-47 -69 6 439 c4 241 7 446 7 454 0 8 -5 40 -11 70 -6 30 -15 109 -21 175 -6
66 -15 140 -20 165 -5 25 -12 81 -15 125 l-6 80 26 -29 c25 -27 25 -29 10 -53
-21 -31 -14 -40 10 -13 24 26 30 25 64 -9 42 -43 57 -115 36 -176 -25 -77 -76
-277 -71 -282 3 -3 8 8 12 23 37 165 71 258 159 436 103 206 130 245 261 374
105 103 137 128 215 168 49 25 103 46 119 46 16 0 50 5 77 11 44 10 57 9 131
-16 63 -21 85 -33 97 -54 38 -68 56 -113 65 -162 l9 -54 -3 62 c-3 44 -12 77
-30 109 -15 26 -24 49 -22 51 9 9 141 -71 175 -104 l33 -34 -1 -117 c-2 -131
-10 -171 -48 -254 -21 -45 -31 -58 -52 -60 -18 -2 -35 -17 -58 -53 -18 -27
-53 -70 -78 -95 -54 -54 -58 -74 -15 -68 17 3 33 2 35 -2 2 -4 -14 -24 -35
-45 -45 -44 -55 -73 -12 -34 29 27 86 37 98 18 4 -7 7 -25 6 -40 -1 -39 12
-37 23 4 9 28 14 32 42 30 27 -2 33 1 42 29 6 17 11 41 11 54 0 13 11 40 25
60 14 21 25 51 25 70 0 20 -9 44 -25 62 -14 17 -25 33 -25 38 0 4 12 37 26 73
22 54 28 87 32 183 l5 116 36 -47 c72 -94 77 -103 80 -171 1 -35 4 -67 7 -71
6 -10 -23 -154 -35 -177 -5 -10 -20 -23 -33 -30 -27 -15 -78 -91 -78 -116 0
-9 -7 -31 -16 -49 l-16 -32 26 30 c14 17 25 39 26 51 0 20 29 68 30 49 0 -5 7
1 16 13 21 31 36 28 24 -4 -9 -24 -8 -26 10 -21 11 3 20 1 20 -4 0 -5 5 -9 10
-9 16 0 12 30 -5 36 -8 4 -15 14 -15 23 0 11 7 7 25 -14 30 -37 31 -78 4 -130
-16 -30 -20 -49 -15 -83 6 -44 6 -44 -21 -37 -21 5 -31 1 -45 -17 l-18 -23
-19 24 c-12 16 -21 20 -25 12 -4 -6 -16 -11 -26 -11 -16 0 -19 7 -16 43 1 23
6 49 10 56 7 11 -27 -6 -54 -27 -3 -2 4 -10 14 -18 16 -11 18 -18 8 -38 -9
-20 -8 -28 2 -38 7 -7 15 -20 19 -28 4 -12 6 -12 6 2 1 22 37 43 46 27 11 -17
-5 -83 -26 -102 -22 -20 -24 -33 -7 -43 19 -12 48 35 48 76 0 32 3 37 18 33
14 -3 18 -12 15 -36 l-2 -32 8 34 c5 19 7 39 5 45 -2 6 0 17 5 25 7 10 13 11
31 1 36 -19 53 -6 46 38 -10 59 -8 80 15 123 25 50 19 106 -17 149 -24 28 -25
29 -8 67 13 29 18 66 18 151 0 61 4 112 8 112 5 0 7 -4 3 -9 -3 -5 0 -13 6
-16 32 -20 201 -336 254 -476 l27 -69 -27 -32 c-24 -29 -27 -38 -23 -90 3 -38
11 -68 25 -86 25 -33 47 -35 51 -4 3 21 22 32 22 12 0 -5 7 -10 15 -10 8 0 16
-6 16 -12 1 -7 4 0 8 16 3 16 14 33 24 37 9 5 25 13 35 18 9 4 18 17 20 28 5
31 -57 105 -110 131 -32 16 -50 33 -58 55 -50 134 -184 393 -268 515 -172 253
-218 308 -282 335 -14 6 -32 17 -41 24 -8 7 -64 31 -124 53 -103 38 -113 40
-185 34 -77 -6 -182 -37 -211 -61 -8 -7 -19 -13 -24 -13 -23 0 -273 -243 -319
-310 -23 -35 -72 -123 -131 -235 -59 -112 -56 -109 -66 -94 -15 25 -11 126 6
133 17 6 20 42 4 52 -16 10 -29 -15 -29 -58 0 -46 -11 -54 -38 -25 l-22 23 39
80 c67 137 90 248 85 404 -2 58 -8 134 -14 170 -19 116 -41 244 -51 293 -12
65 -12 194 1 218 6 10 20 19 31 19 22 0 50 24 68 57 14 27 15 83 1 83 -5 0
-10 9 -10 20 0 26 -4 25 -46 -6 -59 -45 -76 -83 -68 -153 4 -42 3 -61 -5 -61
-11 0 -17 69 -12 135 4 45 31 135 41 135 21 0 79 63 95 103 22 52 25 261 5
280 -10 9 -14 9 -17 0 -3 -7 -13 -23 -24 -35 l-19 -23 -20 24 c-14 17 -20 19
-20 8 0 -14 25 -47 35 -47 2 0 13 10 25 22 11 12 22 20 24 17 2 -2 6 -35 9
-74 6 -77 -7 -157 -31 -194 -18 -27 -29 -12 -13 18 12 22 1 34 -23 25 -11 -4
-14 -13 -10 -30 4 -15 2 -24 -5 -24 -11 0 -15 12 -12 43 1 9 -3 17 -8 17 -6 0
-11 -14 -11 -31 0 -20 -4 -28 -11 -23 -8 4 -10 29 -6 69 4 62 -4 98 -20 81 -4
-5 -3 -11 4 -13 9 -3 9 -12 2 -29 -17 -45 -11 -119 12 -148 l21 -27 -21 -45
c-40 -84 -36 -211 11 -367 22 -75 19 -90 -13 -62 -13 13 -18 27 -15 41 4 14
-5 34 -26 62 -31 41 -42 46 -81 42 -17 -1 -18 4 -13 57 14 120 12 188 -4 188
-8 0 -21 -13 -29 -30 -11 -24 -12 -37 -2 -70 7 -22 12 -47 12 -55 1 -8 7 -98
15 -200 25 -316 39 -689 26 -676 -4 4 -14 71 -24 149 -23 197 -28 238 -33 267
-3 14 -10 79 -15 145 -6 66 -13 149 -16 185 -20 226 -27 387 -15 370 8 -12 13
-12 30 4 24 22 27 38 6 30 -10 -4 -15 0 -15 14 0 27 15 35 40 22 16 -9 22 -8
27 6 7 18 -14 35 -37 31 -8 -1 -25 -22 -37 -46 -25 -49 -35 -40 -29 24 2 22 4
78 5 125 1 96 13 127 36 96 21 -28 38 -10 20 23 -13 26 -12 34 15 106 41 109
45 131 25 143 -19 10 -17 68 2 65 7 -2 18 7 24 20 12 21 11 21 -6 7 -14 -11
-19 -12 -22 -2 -5 14 -33 16 -33 2 0 -22 -18 -8 -23 17 -8 43 22 97 58 103 21
4 30 11 30 24 0 30 -18 29 -46 -1z m275 -947 c-10 -50 -32 -78 -52 -67 -9 5
-21 8 -27 8 -5 -1 -11 7 -13 19 -4 31 35 71 70 71 27 0 28 -2 22 -31z m-264
-17 c0 -17 -4 -28 -10 -24 -5 3 -10 17 -10 31 0 13 5 24 10 24 6 0 10 -14 10
-31z m120 -269 c-1 -18 -19 -28 -42 -23 -20 4 -30 14 -38 39 -7 19 -9 42 -6
51 6 13 14 9 46 -22 22 -22 40 -42 40 -45z m-70 -45 c7 -8 27 -15 46 -15 23 0
38 -7 49 -22 20 -29 54 -138 59 -192 2 -22 10 -88 16 -145 17 -139 9 -227 -28
-336 -38 -115 -81 -205 -96 -205 -7 0 -24 13 -39 28 l-28 29 8 169 c12 246 5
485 -17 644 -5 36 -9 88 -9 115 l1 50 13 -53 c7 -29 18 -59 25 -67z m-274 40
c17 -17 11 -49 -14 -77 -25 -29 -29 -21 -19 37 6 30 12 55 14 55 3 0 11 -7 19
-15z m48 -283 c-4 -9 -7 -26 -8 -36 -1 -11 -7 -21 -13 -23 -24 -8 -24 23 -2
73 19 41 23 45 27 26 2 -13 0 -31 -4 -40z m1564 -824 c10 -37 0 -72 -27 -103
-10 -11 -21 -36 -25 -55 -5 -28 -13 -38 -39 -48 -27 -10 -34 -10 -43 3 -7 9
-16 15 -20 14 -21 -4 -32 2 -37 21 -3 12 -14 20 -27 20 -30 0 -23 12 30 52 27
20 46 44 48 58 4 28 32 72 32 51 0 -11 3 -11 15 -1 13 11 14 10 9 -4 -8 -21 5
-21 22 2 12 15 13 14 14 -11 0 -18 4 -27 13 -24 7 2 11 15 9 30 -5 38 16 34
26 -5z m545 -338 c31 -18 57 -55 57 -80 0 -23 -18 -7 -26 23 -12 40 -29 33
-25 -10 3 -39 -23 -73 -42 -54 -17 17 -24 14 -31 -14 -9 -36 -22 -23 -36 35
-13 54 -4 107 10 60 5 -15 8 -18 9 -8 2 32 21 68 35 68 8 0 30 -9 49 -20z"/>
<path d="M7260 4851 c0 -10 24 -21 43 -21 7 0 3 7 -7 15 -22 17 -36 19 -36 6z"/>
<path d="M7300 4802 c0 -5 14 -18 30 -30 35 -26 41 -10 8 19 -25 20 -38 24
-38 11z"/>
<path d="M7255 4610 c-7 -22 18 -70 35 -70 15 0 12 16 -5 30 -8 7 -15 19 -15
27 0 19 56 -32 76 -69 8 -15 14 -52 14 -83 0 -31 4 -54 9 -51 14 9 0 118 -21
159 -36 71 -80 98 -93 57z"/>
<path d="M2924 6255 c-4 -8 -12 -15 -20 -15 -27 0 -84 -144 -113 -285 -15 -77
-17 -80 -50 -89 -31 -9 -125 -87 -126 -104 -1 -4 -7 -18 -14 -30 -7 -13 -10
-26 -7 -29 8 -8 36 17 36 32 0 22 41 65 81 85 60 31 115 34 187 12 113 -36
176 -99 139 -140 -26 -29 -50 -119 -44 -168 5 -49 38 -94 68 -94 31 0 70 83
72 153 1 53 -3 71 -32 122 -18 33 -41 69 -52 81 -15 16 -19 35 -19 93 0 40 5
81 11 92 18 35 4 42 -29 14 -18 -15 -35 -25 -39 -22 -3 4 4 46 16 94 20 83 19
110 -5 95 -6 -4 -20 -23 -30 -42 -19 -35 -19 -35 -22 -9 -2 15 6 53 17 85 12
32 21 64 21 71 0 18 -39 16 -46 -2z m16 -32 c0 -5 -7 -30 -16 -58 -8 -27 -17
-59 -19 -70 -1 -11 -8 -48 -13 -83 -6 -35 -9 -69 -6 -77 10 -25 34 -4 34 29 0
44 18 102 36 117 14 11 15 9 9 -22 -3 -19 -7 -45 -9 -59 -1 -14 -5 -30 -8 -35
-3 -6 -6 -30 -7 -54 0 -24 -3 -46 -5 -48 -2 -2 -15 1 -30 7 -15 5 -43 10 -62
10 -33 0 -34 1 -34 38 1 74 39 196 87 275 21 33 43 49 43 30z m65 -325 c-5
-69 -9 -76 -29 -59 -15 12 -12 30 13 94 16 42 21 32 16 -35z m85 -229 c14 -25
11 -30 -18 -22 -21 5 -29 23 -15 36 11 12 22 8 33 -14z m10 -160 c-10 -17 -14
-19 -21 -8 -5 9 -2 20 9 32 20 22 28 7 12 -24z"/>
<path d="M7157 6183 c-4 -3 -7 -13 -7 -22 1 -13 3 -13 11 2 11 19 8 33 -4 20z"/>
<path d="M7044 6150 c3 -14 6 -31 6 -37 0 -7 5 -13 10 -13 15 0 12 34 -6 56
-15 18 -15 18 -10 -6z"/>
<path d="M7347 5913 c-4 -6 -9 -33 -12 -60 l-5 -48 15 48 c16 48 17 84 2 60z"/>
<path d="M6860 5890 c0 -5 5 -10 10 -10 6 0 10 5 10 10 0 6 -4 10 -10 10 -5 0
-10 -4 -10 -10z"/>
<path d="M6825 5833 c3 -71 2 -68 20 -53 9 8 13 20 9 29 -3 9 -7 29 -8 45 0
16 -6 31 -12 33 -7 2 -10 -17 -9 -54z"/>
<path d="M7391 5867 c-16 -41 -13 -57 5 -24 8 16 13 34 11 40 -3 7 -10 -1 -16
-16z"/>
<path d="M7256 5813 c-4 -10 2 -26 16 -42 13 -14 26 -30 30 -35 5 -6 8 -2 8 7
0 9 -9 26 -19 36 -21 21 -18 33 7 24 12 -4 11 -1 -3 10 -26 21 -31 21 -39 0z"/>
<path d="M6768 5773 c7 -3 16 -2 19 1 4 3 -2 6 -13 5 -11 0 -14 -3 -6 -6z"/>
<path d="M6760 5728 c0 -7 5 -20 10 -28 8 -12 10 -11 10 7 0 12 -4 25 -10 28
-5 3 -10 0 -10 -7z"/>
<path d="M2545 5694 c-27 -28 -47 -75 -52 -128 -4 -41 0 -63 20 -108 16 -35
32 -58 41 -58 19 0 21 21 4 38 -9 9 -5 12 20 12 37 0 46 13 63 98 11 54 11 66
-4 97 -24 50 -69 42 -90 -15 -3 -9 -6 -3 -6 12 -1 18 6 32 19 40 11 7 20 16
20 20 0 13 -18 9 -35 -8z m35 -115 c0 -42 -15 -54 -22 -16 -5 32 2 68 13 62 5
-4 9 -24 9 -46z"/>
<path d="M2857 5463 c-18 -17 13 -123 35 -123 15 0 21 32 10 51 -7 10 -12 27
-12 38 0 21 -23 45 -33 34z"/>
<path d="M2789 5433 c-6 -16 -20 -38 -32 -51 -15 -17 -18 -25 -9 -34 26 -26
94 58 78 97 -9 23 -25 18 -37 -12z"/>
<path d="M3052 5368 c-7 -7 -12 -20 -12 -30 0 -10 -4 -26 -9 -36 -39 -74 -69
-224 -56 -283 4 -16 8 -48 10 -72 5 -53 39 -242 59 -327 17 -71 20 -192 7
-255 -5 -22 -16 -77 -25 -121 -25 -127 -112 -374 -131 -374 -8 0 -3 693 6 875
18 361 22 391 63 520 19 59 19 65 6 65 -21 0 -82 -215 -82 -289 0 -25 -6 -109
-13 -186 -7 -77 -11 -157 -9 -178 3 -35 2 -37 -21 -31 -15 4 -25 2 -25 -4 0
-18 23 -62 31 -62 5 0 9 -124 9 -276 0 -152 2 -280 5 -284 9 -14 -7 -282 -16
-273 -4 4 -10 53 -13 108 -3 55 -8 132 -11 170 -3 39 -10 153 -16 255 -6 102
-13 205 -16 230 -2 25 -6 158 -8 295 -5 311 -11 397 -30 462 -17 56 -30 72
-47 55 -8 -8 -8 -19 0 -39 14 -34 31 -203 37 -368 13 -342 18 -431 35 -655 5
-63 12 -180 15 -260 l6 -145 -21 25 c-26 31 -95 174 -122 249 -41 121 -49 179
-48 375 0 200 2 209 44 372 34 133 35 218 2 304 -13 36 -34 89 -45 119 -28 73
-65 99 -42 29 87 -266 94 -326 51 -448 -35 -99 -50 -204 -50 -354 0 -220 28
-367 98 -516 30 -66 120 -200 133 -200 5 0 9 -16 9 -36 0 -44 15 -74 39 -74
21 0 41 39 41 79 0 16 9 39 19 53 23 28 60 110 85 186 19 56 31 65 42 30 8
-30 34 -58 51 -58 25 0 13 28 -28 65 l-41 36 17 41 c9 23 20 60 25 82 4 23 16
68 25 101 24 84 25 261 3 342 -18 63 -46 187 -54 233 -18 111 -20 305 -3 346
6 16 20 48 30 71 28 63 23 93 -9 61z"/>
<path d="M6955 5170 c-3 -5 -2 -10 4 -10 5 0 13 5 16 10 3 6 2 10 -4 10 -5 0
-13 -4 -16 -10z"/>
<path d="M3815 4776 c-130 -43 -285 -163 -383 -296 -15 -19 -56 -71 -92 -115
-80 -97 -140 -188 -140 -212 0 -29 42 21 190 226 49 68 145 174 191 211 48 38
83 35 126 -11 16 -16 32 -29 38 -29 14 -1 49 -31 63 -55 10 -18 11 -18 12 -2
0 18 -53 73 -119 122 -43 32 -47 48 -13 53 12 2 22 7 22 12 0 20 45 17 88 -6
66 -35 91 -61 122 -126 31 -65 45 -68 23 -5 -19 56 -54 100 -108 137 -25 17
-45 35 -45 40 0 4 22 13 49 19 57 12 105 2 133 -29 10 -11 24 -21 31 -22 7 0
17 -2 22 -3 34 -5 184 -130 222 -185 33 -50 88 -120 121 -155 66 -70 120 -172
180 -340 66 -185 91 -290 73 -308 -15 -15 -33 4 -89 99 -26 43 -57 84 -69 90
-13 6 -33 19 -44 30 -22 19 -22 19 -10 -3 6 -12 21 -29 33 -37 35 -25 76 -146
50 -146 -23 0 -132 137 -132 167 0 10 -7 27 -15 37 -8 11 -15 31 -15 45 1 24
2 25 14 9 7 -10 16 -18 18 -18 16 0 -82 222 -127 288 -23 34 -23 34 -4 53 11
11 23 18 28 15 4 -3 54 -97 111 -210 57 -114 108 -206 112 -206 5 0 6 10 3 21
-7 21 -68 150 -85 179 -5 8 -15 29 -23 45 -51 105 -85 162 -117 195 -20 21
-48 63 -61 94 -13 31 -27 56 -31 56 -12 0 -9 -18 7 -50 8 -16 12 -36 9 -44 -4
-10 -1 -16 9 -16 13 0 33 -57 23 -67 -7 -8 -56 21 -61 36 -3 9 -21 34 -39 55
l-34 40 2 -40 c1 -21 17 -72 35 -113 20 -44 29 -77 24 -82 -15 -15 -59 26 -83
76 -12 25 -26 47 -31 51 -5 3 -9 14 -9 25 0 11 -4 25 -10 32 -5 7 -20 26 -34
42 -13 17 -28 26 -33 22 -4 -5 -1 -14 7 -20 27 -20 61 -84 54 -101 -8 -20 -23
-20 -52 0 -13 9 -26 14 -29 11 -12 -13 48 -39 76 -34 29 6 30 4 49 -56 10 -34
17 -64 16 -66 -2 -2 -15 4 -30 14 -32 21 -48 9 -38 -29 10 -40 27 -45 19 -5
l-7 34 30 -35 c45 -52 84 -127 77 -149 -4 -12 9 -40 38 -82 42 -63 57 -109 34
-109 -26 0 -112 76 -123 108 -7 24 -13 29 -21 21 -9 -9 -19 -6 -39 10 -36 28
-53 27 -26 -2 12 -13 22 -33 22 -45 0 -11 5 -24 10 -27 16 -10 12 -25 -7 -25
-29 0 -93 51 -93 74 0 26 -65 150 -103 197 l-27 34 7 -35 c3 -19 26 -58 50
-88 59 -72 56 -127 -4 -70 -13 12 -26 18 -30 14 -4 -4 5 -17 21 -29 16 -12 47
-38 70 -58 63 -56 128 -83 148 -63 4 3 2 19 -2 35 -5 16 -7 29 -4 29 3 0 34
-25 69 -55 66 -56 101 -68 112 -39 5 13 8 13 27 -4 44 -41 108 -56 133 -31 7
7 23 -5 53 -40 42 -51 73 -64 84 -36 8 23 23 18 30 -10 6 -22 50 -55 74 -55 6
0 17 16 26 34 25 54 3 160 -74 356 -23 58 -46 118 -53 135 -12 34 -125 205
-136 205 -3 0 -17 18 -31 40 -14 22 -27 40 -31 40 -3 0 -25 28 -50 62 -44 61
-227 218 -255 218 -7 0 -28 9 -46 19 -45 26 -105 33 -153 17z m326 -442 c10
-9 19 -23 19 -29 0 -7 11 -20 25 -29 14 -9 25 -22 25 -28 0 -6 7 -19 16 -29
16 -18 56 -139 46 -139 -4 0 -15 18 -25 39 -10 22 -33 59 -52 83 -19 23 -35
51 -35 60 0 9 -5 20 -11 24 -17 10 -49 87 -41 99 4 5 8 0 10 -11 2 -12 12 -30
23 -40z m7 -138 c22 14 41 -10 93 -116 44 -91 45 -94 24 -86 -8 3 -15 2 -15
-2 0 -15 41 -73 55 -79 16 -6 55 -73 55 -94 0 -8 -12 -9 -36 -4 -49 9 -68 22
-89 61 -10 19 -21 34 -25 34 -11 0 -63 127 -57 137 7 11 -21 114 -35 128 -7 7
-8 3 -5 -10 13 -44 20 -80 14 -75 -2 3 -14 22 -26 43 -33 59 -26 103 11 70 15
-13 23 -15 36 -7z m167 -137 c18 -34 17 -52 -3 -40 -13 8 -29 71 -18 71 3 0
13 -14 21 -31z"/>
<path d="M4185 4023 c17 -41 44 -74 30 -38 -4 11 -12 32 -17 48 -5 15 -14 27
-19 27 -5 0 -2 -17 6 -37z"/>
<path d="M6035 4698 c-27 -5 -63 -15 -80 -23 -16 -7 -43 -17 -60 -21 -141 -35
-336 -233 -445 -453 -21 -42 -41 -86 -45 -99 -4 -13 -27 -46 -51 -73 -49 -55
-59 -83 -50 -132 5 -27 1 -41 -23 -74 -20 -27 -26 -45 -20 -54 7 -11 12 -12
29 -1 25 16 30 15 30 -2 0 -22 19 -29 36 -15 13 10 17 10 25 -2 5 -8 9 -17 9
-21 0 -14 30 -8 30 6 0 7 8 16 19 19 13 3 20 18 25 51 4 25 4 50 1 56 -3 5 1
20 9 32 23 32 20 90 -5 122 -12 15 -28 25 -35 22 -18 -7 -19 33 -1 59 7 11 21
43 31 70 20 55 106 205 117 205 4 0 5 -60 2 -132 -6 -130 -7 -134 -37 -172
-29 -35 -31 -44 -33 -129 -2 -60 -8 -98 -18 -113 -16 -25 -2 -45 18 -25 16 16
47 14 47 -3 0 -21 21 -31 31 -15 6 11 11 10 27 -4 19 -17 21 -17 46 14 22 26
26 38 20 63 -4 17 -6 38 -5 46 10 86 3 121 -34 177 -36 54 -38 60 -37 140 1
90 16 182 37 224 24 46 134 133 150 118 2 -3 0 -23 -7 -45 -7 -26 -8 -94 -4
-203 7 -154 6 -164 -12 -177 -24 -16 -52 -74 -52 -106 0 -13 8 -40 18 -59 16
-32 17 -42 6 -95 -17 -79 -17 -87 1 -80 8 3 21 9 29 12 9 3 17 -3 21 -15 9
-28 25 -27 25 2 0 28 -17 47 -43 47 -14 0 -17 4 -12 18 14 31 18 84 7 105 -30
62 -21 116 24 153 24 20 26 26 23 100 -2 44 -4 136 -4 206 0 121 1 128 25 153
23 26 148 90 157 81 2 -2 -6 -21 -19 -42 -20 -34 -23 -51 -21 -136 2 -89 1
-99 -18 -108 -44 -24 -75 -110 -48 -137 7 -7 8 -28 4 -57 -7 -42 -10 -46 -33
-44 -33 4 -39 -16 -8 -30 16 -7 29 -25 37 -51 10 -35 9 -43 -11 -76 -16 -26
-19 -40 -12 -47 27 -27 62 54 62 140 0 24 6 45 16 52 8 8 14 9 13 4 -4 -21 2
-35 12 -29 9 6 4 63 -8 75 -2 3 -18 -11 -34 -30 l-29 -35 7 30 c5 17 7 62 6
100 -3 81 10 106 58 111 43 5 69 -19 69 -63 0 -18 5 -33 10 -33 6 0 10 17 10
38 0 28 -7 45 -24 61 -14 13 -29 20 -35 17 -14 -9 -20 19 -22 99 -2 83 12 139
43 178 20 24 31 28 78 30 44 2 54 -1 51 -13 -2 -8 -6 -35 -9 -60 -3 -25 -16
-61 -28 -80 -18 -26 -24 -48 -24 -90 0 -61 11 -80 47 -80 17 0 31 13 53 48 33
52 37 87 15 116 -21 28 -30 12 -15 -24 11 -27 11 -34 -7 -58 -11 -15 -22 -35
-26 -44 -3 -10 -13 -18 -22 -18 -18 0 -19 12 -3 28 9 9 8 16 -5 30 -23 25 -21
57 5 82 12 11 25 20 29 20 4 0 7 22 7 48 0 102 20 111 137 67 90 -33 88 -32
58 -71 -17 -23 -26 -46 -25 -68 1 -25 -5 -38 -28 -54 -30 -22 -35 -38 -43
-135 -4 -40 -2 -46 10 -36 11 10 15 8 20 -9 6 -26 14 -27 52 -7 60 30 71 165
14 165 -10 0 -9 -9 3 -40 14 -34 14 -43 3 -57 -8 -9 -13 -24 -11 -35 4 -23
-16 -23 -48 1 -19 15 -25 29 -25 60 0 33 7 47 38 79 29 29 37 46 37 73 0 48
41 95 69 79 28 -14 156 -158 202 -225 68 -101 175 -352 228 -535 12 -41 33
-111 46 -155 36 -115 45 -172 46 -296 1 -89 4 -111 17 -118 13 -7 17 -36 23
-153 4 -80 12 -187 18 -239 20 -185 22 -217 13 -223 -5 -3 -24 8 -43 25 -19
17 -53 45 -77 62 -109 81 -142 109 -167 141 l-27 36 21 43 c22 46 26 67 13 67
-16 0 -32 -25 -32 -49 0 -56 -16 -55 -59 5 -35 49 -41 64 -41 109 0 67 15 108
43 120 26 12 29 38 6 43 -16 3 -51 -56 -65 -112 -13 -52 -26 -30 -52 91 -5 23
-8 43 -7 45 2 2 6 25 9 52 7 55 20 78 42 69 22 -8 54 26 53 56 l-1 26 -14 -30
-15 -30 5 38 c6 46 -13 47 -29 2 -13 -37 -54 -80 -60 -62 -6 19 -16 108 -16
151 -1 26 -4 35 -9 25 -5 -7 -12 -10 -16 -6 -11 11 -26 110 -27 186 -2 54 1
65 18 75 52 29 75 49 75 65 0 10 9 26 20 36 21 19 27 60 10 70 -5 3 -10 -4
-10 -15 0 -12 -9 -33 -19 -47 -11 -13 -18 -30 -15 -38 6 -15 -32 -45 -58 -45
-22 0 -23 12 -2 51 8 17 13 36 11 42 -3 7 -14 -10 -26 -36 -25 -59 -43 -53
-37 11 6 62 15 82 35 82 10 0 23 11 29 25 15 32 15 45 2 45 -5 0 -10 -7 -10
-15 0 -9 -8 -19 -17 -22 -50 -19 -85 -139 -53 -179 13 -14 23 -104 13 -104
-14 0 -103 86 -108 104 -3 11 -11 38 -17 59 -10 33 -9 40 9 60 24 26 43 79 43
116 0 28 -28 94 -54 126 -13 17 -17 18 -25 5 -9 -13 -12 -12 -25 5 -14 18 -15
18 -16 2 0 -10 7 -20 15 -23 8 -4 15 -12 15 -20 0 -14 -39 -40 -42 -27 0 4 -2
13 -3 18 -11 74 -30 144 -38 136 -6 -6 -3 -29 8 -61 9 -28 14 -54 11 -57 -3
-4 -6 1 -6 10 0 9 -4 17 -10 17 -5 0 -10 -22 -10 -49 0 -28 5 -53 10 -56 6 -3
10 1 10 10 0 11 5 15 14 12 21 -8 64 15 70 38 7 27 20 11 40 -48 17 -52 13
-97 -10 -97 -8 0 -14 6 -14 14 0 8 -11 13 -30 12 -28 -1 -30 -3 -24 -28 6 -28
-10 -40 -19 -15 -4 9 -7 9 -17 0 -11 -10 -20 -6 -47 17 -33 29 -53 38 -53 23
0 -15 67 -73 84 -73 9 0 19 -7 22 -15 4 -8 16 -15 29 -15 32 0 45 -20 52 -79
5 -47 4 -51 -19 -60 -13 -5 -30 -16 -37 -25 -7 -9 -26 -16 -41 -16 -31 0 -90
-43 -90 -65 0 -7 -18 -28 -40 -45 -48 -38 -50 -50 -10 -50 25 0 30 -4 30 -23
0 -13 -5 -28 -12 -35 -6 -6 -8 -15 -3 -19 4 -5 10 -2 12 5 3 7 14 17 25 23 15
8 22 7 33 -7 12 -17 14 -17 39 -1 16 11 26 27 26 41 0 15 10 30 26 41 25 16
26 20 20 76 -6 57 -5 60 20 69 41 16 58 12 106 -25 51 -40 63 -62 74 -131 4
-27 16 -69 26 -94 12 -27 21 -76 24 -120 8 -175 29 -263 83 -364 56 -104 183
-243 306 -336 102 -77 145 -126 144 -164 -1 -11 2 -55 5 -96 3 -41 7 -319 8
-618 l2 -543 -26 -26 c-38 -38 -196 -92 -270 -93 -20 0 -40 -5 -43 -10 -8 -13
39 -13 85 0 19 5 55 11 80 12 26 1 62 13 83 26 22 13 41 21 45 18 7 -7 -130
-139 -187 -180 -24 -17 -59 -51 -79 -76 l-35 -45 44 46 c24 26 60 57 79 69 19
13 48 35 63 49 20 18 26 21 22 8 -5 -12 -2 -17 9 -17 9 0 16 4 16 10 0 11 71
79 83 80 12 0 8 -35 -8 -57 -9 -12 -14 -26 -13 -30 5 -19 -15 -54 -40 -69 -15
-8 -19 -13 -8 -9 14 4 17 1 13 -14 -2 -10 0 -25 5 -32 8 -11 9 -10 5 3 -3 9 1
19 9 22 8 3 14 2 15 -2 4 -36 12 -69 19 -81 6 -10 7 4 3 39 -3 30 -9 59 -13
63 -9 10 20 107 32 107 4 0 8 -17 8 -37 0 -26 3 -34 9 -24 5 8 7 29 4 46 -3
18 0 42 7 55 9 17 9 24 0 30 -9 5 -9 22 0 67 15 84 18 433 9 928 -10 493 -12
560 -27 720 -7 66 -17 176 -23 245 -6 69 -15 130 -20 135 -4 6 -4 17 1 25 13
20 13 167 0 175 -9 6 -15 25 -39 135 -7 30 -22 84 -33 119 -25 79 -20 149 16
221 14 29 26 57 26 63 0 6 14 26 32 44 18 18 27 33 22 33 -6 0 -23 -13 -39
-30 -31 -32 -48 -31 -40 3 6 27 -7 79 -21 84 -6 2 -16 -8 -23 -23 -10 -23 -9
-30 7 -48 26 -29 26 -69 0 -137 -24 -61 -38 -75 -38 -36 0 20 -11 51 -79 229
-23 60 -123 249 -150 284 -118 154 -195 221 -303 264 -68 27 -98 33 -168 35
-47 1 -107 -2 -135 -7z m-419 -636 c42 -29 60 -128 29 -163 -14 -15 -14 -18 0
-32 37 -37 7 -58 -63 -44 l-52 11 5 76 c8 98 13 121 32 143 17 18 32 21 49 9z
m-211 -108 c13 3 30 9 39 12 20 8 22 -30 5 -73 -7 -15 -11 -41 -10 -56 2 -16
-5 -37 -15 -48 -21 -23 -34 -24 -34 -4 0 9 -6 15 -12 13 -38 -7 -76 30 -48 47
6 4 8 28 4 59 -6 48 -4 55 17 70 23 16 24 16 27 -5 3 -16 9 -20 27 -15z m785
-245 c0 -16 5 -20 20 -16 15 4 20 0 20 -14 0 -10 -9 -24 -20 -31 -11 -7 -20
-18 -20 -23 0 -6 -6 -20 -14 -30 -14 -19 -15 -19 -35 -1 -12 11 -21 15 -21 11
0 -5 -9 1 -20 13 -20 21 -20 22 -1 41 10 10 23 25 27 32 9 14 43 37 57 38 4 1
7 -9 7 -20z m806 -315 c1 -34 -2 -51 -7 -42 -14 22 -10 98 5 98 1 0 2 -25 2
-56z"/>
<path d="M3910 4695 c0 -5 11 -23 25 -40 13 -16 24 -25 24 -20 0 6 -11 24 -24
40 -14 17 -25 26 -25 20z"/>
<path d="M3992 4652 c34 -57 67 -99 68 -85 0 6 -16 32 -35 57 -19 26 -35 51
-35 56 0 6 -5 10 -11 10 -5 0 0 -17 13 -38z"/>
<path d="M1821 4609 c-40 -8 -86 -41 -86 -60 0 -17 22 -16 95 6 63 18 160 16
185 -5 19 -16 4 -29 -35 -30 -31 -1 -142 -60 -148 -79 -3 -10 5 -8 24 6 91 64
182 84 242 54 39 -20 67 -47 95 -93 24 -39 21 -57 -10 -63 -70 -14 -131 -37
-147 -54 -13 -15 -7 -13 35 7 31 16 74 27 108 29 l56 4 50 -70 c28 -39 64 -90
82 -114 25 -35 29 -47 20 -57 -10 -10 -8 -12 5 -7 12 4 25 -4 43 -26 18 -24
25 -28 25 -14 0 18 -69 135 -101 172 -10 11 -54 76 -99 144 -84 127 -113 158
-184 200 -69 39 -192 64 -255 50z"/>
<path d="M3780 4609 c0 -5 5 -15 10 -22 6 -7 17 -21 25 -32 21 -31 29 -10 9
24 -18 31 -44 49 -44 30z"/>
<path d="M3975 4590 c9 -16 18 -30 21 -30 2 0 -2 14 -11 30 -9 17 -18 30 -21
30 -2 0 2 -13 11 -30z"/>
<path d="M3830 4599 c0 -5 5 -7 10 -4 6 3 10 8 10 11 0 2 -4 4 -10 4 -5 0 -10
-5 -10 -11z"/>
<path d="M8165 4590 c4 -14 17 -45 29 -70 15 -33 21 -64 21 -117 0 -40 3 -73
8 -73 4 0 7 33 7 74 0 52 -6 89 -22 127 -24 60 -56 104 -43 59z"/>
<path d="M1654 4531 c-38 -23 -184 -182 -203 -222 -8 -16 -18 -29 -23 -29 -4
0 -8 -5 -8 -11 0 -6 -18 -33 -41 -60 -23 -27 -51 -64 -63 -82 -12 -17 -39 -56
-59 -84 -20 -29 -37 -55 -37 -57 0 -2 -32 -57 -70 -122 -39 -66 -84 -148 -101
-184 -17 -36 -43 -90 -59 -120 -36 -71 -61 -146 -54 -164 6 -16 40 -27 60 -19
7 3 43 45 79 94 35 49 69 89 75 89 5 0 10 -13 10 -29 0 -23 5 -30 28 -34 28
-5 55 18 176 151 43 48 62 48 26 0 -44 -60 11 -84 74 -31 75 63 149 133 140
133 -5 0 -46 -29 -91 -65 -119 -95 -134 -86 -53 32 28 40 50 80 50 88 0 28 27
69 84 125 53 52 66 70 48 70 -5 0 -40 -31 -80 -70 -90 -88 -120 -96 -67 -18
14 20 25 40 25 43 0 3 18 33 40 67 23 33 39 62 37 64 -9 9 -95 -87 -198 -221
-53 -69 -220 -245 -232 -245 -6 0 77 135 95 155 6 6 7 -1 3 -20 l-6 -30 15 25
c8 15 10 27 5 31 -6 3 -2 25 10 52 21 48 121 200 128 193 2 -2 -15 -33 -38
-70 -23 -37 -39 -70 -35 -73 4 -4 37 24 74 62 37 38 56 60 42 50 -14 -11 -33
-29 -42 -40 -31 -35 -20 6 12 50 17 22 42 59 57 83 16 23 36 45 45 48 25 8 23
44 -2 44 -12 0 -35 -21 -62 -57 -24 -32 -51 -67 -61 -78 -37 -40 -97 -135
-132 -208 -20 -41 -42 -80 -50 -87 -16 -14 -95 -156 -95 -172 0 -20 -88 -106
-98 -96 -6 6 -12 -4 -16 -26 -4 -20 -11 -36 -17 -36 -19 0 -21 32 -4 77 37 95
158 334 216 423 9 14 33 54 54 89 21 35 65 98 98 140 206 259 253 315 293 348
61 51 60 72 -2 34z m-137 -558 c-2 -5 -21 -37 -43 -72 -36 -59 -37 -64 -21
-76 32 -23 9 -58 -122 -189 -111 -110 -129 -125 -140 -112 -21 25 -5 63 57
129 31 34 91 109 132 167 74 102 122 160 135 160 3 0 4 -3 2 -7z"/>
<path d="M4020 4544 c0 -15 62 -76 69 -69 3 3 -12 22 -32 43 -20 20 -37 32
-37 26z"/>
<path d="M3610 4530 c0 -5 9 -12 20 -15 30 -10 79 -54 96 -87 9 -16 18 -28 20
-25 3 3 -1 18 -9 34 -23 43 -127 120 -127 93z"/>
<path d="M1761 4484 c-17 -14 -31 -34 -31 -45 0 -30 20 -22 32 11 6 19 22 36
42 45 26 11 27 14 9 14 -12 1 -35 -11 -52 -25z"/>
<path d="M1973 4452 c-52 -16 -69 -33 -57 -54 5 -7 11 -6 18 5 17 23 94 60
111 53 8 -3 15 -1 15 4 0 13 -25 11 -87 -8z"/>
<path d="M3626 4445 c4 -8 8 -15 10 -15 2 0 4 7 4 15 0 8 -4 15 -10 15 -5 0
-7 -7 -4 -15z"/>
<path d="M3825 4450 c4 -6 11 -8 16 -5 14 9 11 15 -7 15 -8 0 -12 -5 -9 -10z"/>
<path d="M6485 4450 c-6 -10 -5 -11 14 -14 5 0 13 -4 17 -8 4 -5 16 -8 27 -8
18 0 17 2 -6 20 -28 22 -43 25 -52 10z"/>
<path d="M8425 4450 c3 -5 11 -10 16 -10 6 0 7 5 4 10 -3 6 -11 10 -16 10 -6
0 -7 -4 -4 -10z"/>
<path d="M8476 4425 c8 -37 14 -45 14 -19 0 10 -5 26 -10 34 -8 11 -9 7 -4
-15z"/>
<path d="M3580 4427 c0 -19 16 -31 24 -18 3 5 -1 14 -9 21 -12 10 -15 10 -15
-3z"/>
<path d="M2039 4412 c-8 -4 -28 -17 -44 -30 -20 -16 -25 -26 -18 -33 13 -13
33 -4 33 15 0 8 21 23 48 34 36 16 41 21 22 21 -14 0 -32 -3 -41 -7z"/>
<path d="M3782 4385 c6 -13 15 -22 19 -19 11 6 -8 44 -21 44 -6 0 -5 -10 2
-25z"/>
<path d="M1630 4374 c-20 -17 -30 -34 -28 -47 5 -32 27 -33 25 -1 -2 21 6 33
32 51 20 13 27 23 18 23 -8 0 -30 -12 -47 -26z"/>
<path d="M1787 4384 c-12 -12 3 -22 23 -17 11 3 17 9 14 14 -6 10 -28 12 -37
3z"/>
<path d="M3751 4374 c0 -11 3 -14 6 -6 3 7 2 16 -1 19 -3 4 -6 -2 -5 -13z"/>
<path d="M6580 4383 c-39 -15 -80 -78 -95 -148 -6 -29 -6 -29 9 -11 9 11 16
28 16 38 0 32 28 76 60 95 16 9 30 21 30 25 0 4 -1 8 -2 7 -2 0 -10 -3 -18 -6z"/>
<path d="M3520 4370 c0 -5 7 -10 16 -10 8 0 12 5 9 10 -3 6 -10 10 -16 10 -5
0 -9 -4 -9 -10z"/>
<path d="M3660 4368 c0 -24 11 -48 22 -48 5 0 6 10 3 23 -10 30 -25 46 -25 25z"/>
<path d="M8487 4360 c-4 -14 -6 -38 -6 -55 1 -24 3 -21 10 15 10 49 7 80 -4
40z"/>
<path d="M3881 4328 c18 -65 16 -68 -54 -66 -34 1 -70 -3 -79 -8 -13 -7 80
-10 155 -5 16 2 -6 111 -23 111 -5 0 -5 -14 1 -32z"/>
<path d="M1678 4321 c-19 -17 -29 -33 -24 -38 5 -4 11 -2 13 5 3 7 21 24 41
37 24 16 31 25 19 25 -9 0 -31 -13 -49 -29z"/>
<path d="M3445 4310 c-3 -6 1 -13 10 -16 19 -8 30 0 20 15 -8 14 -22 14 -30 1z"/>
<path d="M8176 4298 c-16 -23 -21 -64 -10 -92 12 -32 21 -15 16 34 -4 40 -1
51 12 56 9 3 16 10 16 15 0 16 -19 9 -34 -13z"/>
<path d="M8276 4291 c24 -51 14 -148 -18 -172 l-23 -18 22 6 c45 11 61 150 23
194 l-21 24 17 -34z"/>
<path d="M8407 4310 c-3 -8 -12 -53 -21 -100 -8 -47 -17 -94 -21 -105 -6 -18
-5 -18 5 -3 14 22 52 197 47 212 -3 7 -7 5 -10 -4z"/>
<path d="M1917 4293 c-10 -9 -9 -23 2 -23 5 0 11 7 15 15 5 15 -5 20 -17 8z"/>
<path d="M8080 4290 c0 -5 5 -10 10 -10 6 0 10 5 10 10 0 6 -4 10 -10 10 -5 0
-10 -4 -10 -10z"/>
<path d="M3635 4270 c-3 -5 -1 -10 4 -10 6 0 11 5 11 10 0 6 -2 10 -4 10 -3 0
-8 -4 -11 -10z"/>
<path d="M1445 4187 c-21 -39 -47 -82 -58 -94 -11 -13 -17 -26 -14 -30 9 -8
39 19 90 82 28 35 32 42 13 25 l-28 -25 7 25 c4 14 13 32 20 40 21 26 26 38
16 44 -5 3 -26 -27 -46 -67z"/>
<path d="M2146 4245 c-13 -10 -16 -19 -10 -24 5 -6 21 0 39 15 26 20 27 24 10
24 -11 -1 -29 -7 -39 -15z"/>
<path d="M1686 4221 c-3 -4 -18 -11 -33 -15 -29 -6 -79 -43 -71 -51 7 -7 118
55 118 66 0 11 -7 12 -14 0z"/>
<path d="M3360 4214 c-10 -11 -9 -14 5 -14 9 0 25 -10 35 -22 10 -13 21 -20
25 -16 4 4 0 14 -9 23 -9 9 -16 20 -16 25 0 15 -29 19 -40 4z"/>
<path d="M3640 4224 c0 -15 43 -64 56 -64 15 0 16 12 4 50 -6 19 -8 21 -9 6
-1 -18 -2 -18 -19 -3 -19 17 -32 22 -32 11z"/>
<path d="M8015 4220 c3 -5 8 -10 11 -10 2 0 4 5 4 10 0 6 -5 10 -11 10 -5 0
-7 -4 -4 -10z"/>
<path d="M3500 4185 c36 -37 40 -40 40 -27 0 12 -50 62 -62 62 -7 0 3 -16 22
-35z"/>
<path d="M6060 4190 c0 -19 3 -21 12 -12 9 9 9 15 0 24 -9 9 -12 7 -12 -12z"/>
<path d="M6585 4200 c-4 -6 6 -10 23 -10 17 0 40 -10 56 -25 33 -30 40 -32 26
-5 -19 36 -91 63 -105 40z"/>
<path d="M2281 4187 c-6 -8 -8 -17 -4 -20 7 -8 33 11 33 24 0 13 -16 11 -29
-4z"/>
<path d="M7958 4183 c-18 -20 -37 -90 -38 -139 0 -18 12 -48 26 -70 28 -41 28
-42 -1 -139 -3 -11 8 8 24 43 25 52 37 66 68 78 49 21 71 40 94 86 22 42 24
58 8 58 -6 0 -9 -7 -5 -15 3 -8 1 -15 -5 -15 -6 0 -9 16 -7 38 3 32 0 37 -19
40 -15 2 -25 13 -29 29 l-7 25 -26 -26 -25 -26 -21 26 c-20 25 -21 25 -37 7z
m31 -50 l13 -28 23 29 24 30 12 -27 c14 -30 20 -32 37 -15 18 18 16 -17 -4
-47 -15 -22 -14 -23 5 -18 12 3 21 2 21 -2 0 -18 -43 -75 -61 -80 -29 -9 -38
4 -15 21 11 7 17 16 14 19 -3 3 -11 -1 -18 -10 -16 -19 -36 -19 -44 0 -10 26
-29 17 -22 -10 7 -28 -5 -33 -25 -9 -24 29 -8 174 19 174 5 0 14 -12 21 -27z"/>
<path d="M2027 4172 c-24 -26 -50 -93 -40 -103 5 -5 22 6 38 23 17 18 24 29
18 24 -24 -14 -33 4 -16 32 10 15 22 30 28 34 7 5 6 8 -1 8 -6 0 -18 -8 -27
-18z"/>
<path d="M8155 4175 c4 -11 9 -28 12 -37 3 -10 11 -14 19 -11 13 5 14 -3 8
-48 -4 -30 -13 -58 -20 -62 -20 -12 -17 -39 4 -35 12 2 19 17 24 53 3 28 9 62
13 77 6 21 3 29 -17 39 -12 7 -29 19 -36 28 -12 14 -13 14 -7 -4z"/>
<path d="M1688 4124 c-32 -31 -58 -58 -58 -60 0 -13 23 1 61 39 24 24 52 46
62 50 9 3 17 11 17 17 0 22 -28 7 -82 -46z"/>
<path d="M3595 4160 c-10 -11 -13 -20 -7 -20 6 0 13 4 17 10 3 5 13 6 23 3 15
-6 15 -5 3 10 -17 21 -14 21 -36 -3z"/>
<path d="M3286 4160 c5 -5 18 -11 29 -13 11 -2 30 -8 42 -15 27 -15 36 -15 28
-2 -4 6 -22 17 -42 25 -41 17 -72 20 -57 5z"/>
<path d="M1920 4146 c0 -18 27 -29 36 -14 4 5 0 14 -7 19 -20 13 -29 11 -29
-5z"/>
<path d="M6007 4153 c-4 -3 -7 -13 -7 -21 0 -9 3 -12 7 -9 3 4 14 0 24 -9 12
-11 19 -12 24 -4 4 6 5 12 4 13 -2 1 -13 10 -25 20 -11 9 -24 14 -27 10z"/>
<path d="M7016 4144 c-9 -23 -8 -24 14 -24 13 0 20 7 20 20 0 24 -25 27 -34 4z"/>
<path d="M3890 4143 c1 -4 7 -19 16 -33 l14 -25 -2 29 c-2 16 -9 31 -15 34 -7
2 -13 0 -13 -5z"/>
<path d="M3940 4121 c5 -11 21 -28 35 -39 14 -11 25 -29 25 -41 0 -13 6 -21
16 -21 18 0 28 -11 76 -82 17 -27 35 -48 40 -48 20 0 -48 100 -131 191 -53 59
-81 77 -61 40z"/>
<path d="M6101 4121 c-12 -8 -12 -12 -2 -25 17 -20 31 -20 31 -1 0 8 5 15 10
15 6 0 10 5 10 10 0 12 -30 13 -49 1z"/>
<path d="M2102 4100 c-15 -24 -16 -50 -1 -50 6 0 22 9 36 20 31 25 55 26 46 4
-4 -11 -2 -15 7 -12 22 7 23 26 2 37 -16 8 -26 6 -46 -10 -26 -21 -30 -19 -27
14 3 22 -1 22 -17 -3z"/>
<path d="M3186 4104 c-8 -22 1 -31 16 -16 9 9 9 15 1 23 -7 7 -12 5 -17 -7z"/>
<path d="M3500 4022 c52 -50 70 -74 70 -94 0 -26 16 -46 27 -34 21 20 -117
196 -154 196 -8 0 18 -30 57 -68z"/>
<path d="M5807 4073 c-2 -5 -1 -19 4 -33 7 -23 7 -23 8 8 1 31 -3 40 -12 25z"/>
<path d="M6520 4076 c0 -2 7 -9 15 -16 12 -10 15 -10 15 4 0 9 -7 16 -15 16
-8 0 -15 -2 -15 -4z"/>
<path d="M2230 4061 c0 -6 5 -13 10 -16 6 -3 10 1 10 9 0 9 -4 16 -10 16 -5 0
-10 -4 -10 -9z"/>
<path d="M5995 4061 c-3 -5 -1 -12 5 -16 5 -3 10 1 10 9 0 18 -6 21 -15 7z"/>
<path d="M8240 4060 c0 -5 5 -10 10 -10 6 0 10 5 10 10 0 6 -4 10 -10 10 -5 0
-10 -4 -10 -10z"/>
<path d="M3150 4035 c-10 -12 -10 -15 3 -15 19 0 31 16 18 24 -5 3 -14 -1 -21
-9z"/>
<path d="M6504 4018 c-17 -19 -17 -21 -1 -15 13 5 17 1 17 -21 l1 -27 13 30
c22 51 4 72 -30 33z"/>
<path d="M6667 4014 c-11 -11 3 -24 18 -18 8 4 12 10 9 15 -6 11 -18 12 -27 3z"/>
<path d="M1670 3934 c-48 -74 -60 -104 -41 -104 5 0 22 12 38 28 15 15 47 43
69 63 23 20 45 43 49 50 9 15 -20 -7 -72 -55 -18 -16 -35 -27 -39 -24 -6 7 39
83 56 93 13 8 13 25 0 25 -5 0 -32 -34 -60 -76z"/>
<path d="M2581 3970 c-30 -38 -39 -60 -23 -60 14 0 72 59 72 74 0 30 -18 25
-49 -14z"/>
<path d="M4380 4000 c0 -5 5 -10 11 -10 5 0 7 5 4 10 -3 6 -8 10 -11 10 -2 0
-4 -4 -4 -10z"/>
<path d="M1838 3983 c-21 -25 -88 -147 -88 -161 0 -7 6 -12 13 -12 15 0 140
101 133 108 -3 2 -26 -13 -51 -33 -25 -21 -48 -35 -51 -32 -8 7 30 78 61 116
19 21 22 31 12 31 -7 0 -21 -8 -29 -17z"/>
<path d="M3395 3975 c17 -14 47 -42 68 -62 39 -39 47 -38 21 2 -16 24 -97 85
-112 85 -4 0 7 -12 23 -25z"/>
<path d="M2070 3974 c0 -8 5 -12 10 -9 6 4 8 11 5 16 -9 14 -15 11 -15 -7z"/>
<path d="M1952 3943 c-12 -21 -30 -48 -38 -60 -14 -19 -14 -23 -2 -23 22 0 58
38 52 55 -4 8 1 26 10 40 9 14 13 25 8 25 -5 0 -18 -17 -30 -37z"/>
<path d="M2478 3972 c-10 -2 -18 -8 -18 -13 0 -5 8 -12 18 -15 9 -3 25 -10 35
-15 14 -8 17 -5 17 15 0 24 -20 35 -52 28z"/>
<path d="M3773 3968 c20 -55 19 -58 -12 -58 -16 0 -42 5 -56 10 -19 7 -33 6
-48 -2 -24 -13 -27 -12 103 -33 19 -3 43 -8 53 -11 24 -7 22 19 -5 67 -20 36
-46 55 -35 27z"/>
<path d="M3090 3955 c0 -8 7 -15 15 -15 8 0 15 4 15 9 0 5 -7 11 -15 15 -9 3
-15 0 -15 -9z"/>
<path d="M2159 3938 c-18 -14 -54 -68 -46 -68 3 0 20 14 37 31 31 32 38 60 9
37z"/>
<path d="M2215 3903 c-53 -63 -66 -93 -40 -93 9 0 15 9 15 21 0 12 18 39 40
61 44 44 46 48 28 47 -7 0 -26 -16 -43 -36z"/>
<path d="M6700 3931 c0 -5 5 -13 10 -16 6 -3 10 -2 10 4 0 5 -4 13 -10 16 -5
3 -10 2 -10 -4z"/>
<path d="M3310 3926 c0 -4 18 -25 40 -46 22 -21 40 -35 40 -31 0 4 -18 25 -40
46 -22 21 -40 36 -40 31z"/>
<path d="M2480 3905 c0 -8 5 -15 10 -15 6 0 10 7 10 15 0 8 -4 15 -10 15 -5 0
-10 -7 -10 -15z"/>
<path d="M8865 3911 c4 -7 4 -41 0 -75 -5 -53 -13 -72 -50 -121 -37 -49 -44
-67 -48 -119 -3 -34 -9 -74 -13 -90 -5 -22 -4 -27 6 -21 17 10 30 -14 24 -45
-5 -23 -4 -23 13 5 l18 30 3 -34 c2 -18 -2 -46 -8 -62 -7 -15 -9 -33 -5 -39
12 -20 25 1 25 43 1 44 35 97 63 97 15 0 27 53 31 139 2 33 -4 53 -24 83 -26
38 -27 46 -22 123 3 61 1 84 -8 90 -9 6 -11 4 -5 -4z m-25 -252 c0 -4 14 -6
30 -4 17 2 31 0 31 -3 10 -51 -9 -138 -33 -153 -39 -25 -103 15 -81 49 5 10 8
32 5 50 -7 50 4 81 28 75 11 -3 20 -9 20 -14z"/>
<path d="M2021 3896 c-19 -6 -36 -17 -39 -24 -3 -11 0 -12 17 -3 29 16 27 0
-9 -52 -51 -76 -32 -114 38 -78 37 19 83 61 66 61 -5 0 -22 -9 -39 -20 -16
-11 -33 -20 -37 -20 -17 0 -7 50 18 94 15 26 25 49 23 50 -2 2 -19 -1 -38 -8z"/>
<path d="M5900 3881 c16 -32 12 -39 -22 -39 -49 0 -51 -1 -32 -19 25 -25 72
-26 85 -1 13 24 -6 78 -28 78 -10 0 -11 -4 -3 -19z"/>
<path d="M3512 3874 c-11 -12 -11 -18 -2 -29 7 -8 12 -30 13 -50 1 -20 6 -34
11 -32 6 2 10 18 8 36 -2 21 2 33 12 37 18 7 21 24 5 24 -7 0 -17 6 -23 14
-10 13 -13 13 -24 0z"/>
<path d="M3672 3850 c4 -25 2 -30 -11 -24 -30 13 -81 16 -81 5 0 -6 9 -11 19
-11 11 0 33 -8 49 -17 24 -14 33 -15 44 -5 12 10 13 19 4 47 -13 43 -30 46
-24 5z"/>
<path d="M2330 3840 c-14 -19 -19 -37 -15 -48 6 -14 9 -13 19 9 6 14 17 33 24
42 8 9 9 18 3 21 -5 4 -19 -7 -31 -24z"/>
<path d="M2417 3863 c-12 -11 -8 -23 8 -23 8 0 15 7 15 15 0 16 -12 20 -23 8z"/>
<path d="M7828 3847 c-3 -19 -2 -25 4 -19 6 6 8 18 6 28 -3 14 -5 12 -10 -9z"/>
<path d="M1694 3834 c-10 -15 -28 -38 -40 -53 -27 -34 -64 -108 -64 -126 0
-28 33 -15 84 33 29 26 62 54 74 62 12 8 22 18 22 22 0 10 -44 -17 -88 -54
-78 -67 -66 -14 21 90 15 18 27 37 27 42 0 18 -17 10 -36 -16z"/>
<path d="M2261 3839 c-12 -13 -21 -31 -21 -40 0 -10 -4 -21 -10 -24 -12 -7
-13 -25 -2 -25 8 0 64 102 58 107 -2 3 -13 -6 -25 -18z"/>
<path d="M2473 3845 c-8 -22 6 -33 17 -15 13 20 12 30 0 30 -6 0 -13 -7 -17
-15z"/>
<path d="M3207 3819 c-21 -12 -22 -52 -1 -70 19 -16 34 2 34 43 0 32 -9 40
-33 27z"/>
<path d="M1877 3784 c-45 -32 -75 -38 -61 -11 3 7 -4 1 -15 -12 -23 -26 -26
-37 -11 -46 14 -9 59 17 110 64 55 50 42 53 -23 5z"/>
<path d="M3412 3808 c-27 -27 -14 -43 35 -43 69 0 65 17 -12 51 -6 2 -16 -1
-23 -8z"/>
<path d="M3062 3798 c6 -18 28 -21 28 -4 0 9 -7 16 -16 16 -9 0 -14 -5 -12
-12z"/>
<path d="M7791 3787 c-21 -23 -21 -64 1 -51 5 3 7 13 3 21 -3 9 2 24 11 34 25
28 11 23 -15 -4z"/>
<path d="M7927 3803 c-4 -3 -7 -13 -7 -20 0 -8 -15 -33 -33 -56 -19 -23 -44
-71 -57 -107 -13 -36 -30 -75 -38 -88 -8 -12 -13 -25 -10 -27 2 -3 15 16 28
43 13 26 31 59 41 73 10 14 16 29 13 32 -19 19 89 137 126 137 11 0 20 5 20
10 0 13 -16 13 -42 -1 -15 -8 -22 -8 -27 0 -4 6 -10 8 -14 4z"/>
<path d="M8034 3789 c-5 -8 1 -10 18 -6 18 5 33 1 49 -12 24 -19 24 -20 6 -50
-14 -23 -16 -40 -11 -64 4 -18 7 -37 6 -44 -2 -7 7 -17 19 -24 18 -9 24 -8 31
5 13 23 28 20 29 -6 l0 -23 9 21 c11 27 27 38 35 24 4 -6 11 -8 16 -4 5 3 7 9
4 14 -3 5 -1 20 5 35 7 19 6 33 -4 54 -22 41 -86 64 -86 30 0 -5 6 -9 14 -9 8
0 26 -10 40 -22 22 -19 25 -28 18 -53 -5 -17 -11 -25 -15 -18 -9 14 -67 -12
-67 -29 0 -6 -8 -4 -18 5 -24 22 -29 95 -7 103 22 9 18 37 -8 62 -25 24 -71
29 -83 11z"/>
<path d="M2094 3745 c-26 -64 4 -74 56 -20 38 39 34 61 -5 25 -25 -23 -29 -21
-26 13 3 28 -9 19 -25 -18z"/>
<path d="M3327 3756 c-8 -21 25 -46 51 -39 30 8 28 19 -10 37 -38 19 -35 19
-41 2z"/>
<path d="M5540 3756 c0 -9 5 -16 10 -16 6 0 10 4 10 9 0 6 -4 13 -10 16 -5 3
-10 -1 -10 -9z"/>
<path d="M5823 3735 c-10 -32 -9 -35 8 -35 13 0 19 7 19 23 0 42 -16 50 -27
12z"/>
<path d="M5610 3741 c0 -12 5 -21 10 -21 6 0 10 6 10 14 0 8 -4 18 -10 21 -5
3 -10 -3 -10 -14z"/>
<path d="M5280 3724 c0 -8 5 -12 10 -9 6 3 10 10 10 16 0 5 -4 9 -10 9 -5 0
-10 -7 -10 -16z"/>
<path d="M5566 3708 c-20 -39 -20 -38 4 -38 16 0 20 7 20 35 0 43 -4 44 -24 3z"/>
<path d="M7793 3723 c-25 -17 -30 -33 -10 -33 11 0 42 39 35 45 -2 1 -13 -4
-25 -12z"/>
<path d="M5367 3723 c-11 -17 6 -48 26 -49 9 -1 17 2 17 7 0 5 -5 9 -10 9 -6
0 -14 10 -19 22 -4 13 -10 17 -14 11z"/>
<path d="M2174 3699 c-3 -6 -1 -16 5 -22 8 -8 17 -5 33 11 l22 22 -26 0 c-15
0 -30 -5 -34 -11z"/>
<path d="M2243 3686 c-13 -6 -23 -14 -23 -18 0 -14 24 -8 50 12 27 21 11 25
-27 6z"/>
<path d="M5318 3680 c-22 -21 -23 -50 -3 -50 18 0 28 20 23 48 -3 18 -4 18
-20 2z"/>
<path d="M2300 3674 c0 -8 5 -12 10 -9 6 4 8 11 5 16 -9 14 -15 11 -15 -7z"/>
<path d="M8350 3670 c-6 -11 -8 -20 -6 -20 3 0 10 9 16 20 6 11 8 20 6 20 -3
0 -10 -9 -16 -20z"/>
<path d="M8375 3650 c-9 -16 -20 -30 -25 -30 -6 0 -10 -5 -10 -11 0 -25 33 -1
45 34 15 45 11 48 -10 7z"/>
<path d="M6547 3663 c-12 -11 -7 -43 6 -43 17 0 37 20 37 37 0 13 -32 18 -43
6z"/>
<path d="M3336 3651 c-4 -6 -1 -21 6 -33 l13 -23 3 24 c4 26 -12 49 -22 32z"/>
<path d="M3370 3650 c0 -6 11 -28 25 -50 14 -22 25 -48 25 -57 1 -20 24 -55
32 -48 7 8 -19 117 -30 124 -5 3 -11 14 -15 24 -7 18 -37 24 -37 7z"/>
<path d="M2307 3617 c-74 -97 -127 -248 -127 -360 0 -44 -5 -68 -14 -76 -15
-13 -14 -29 5 -115 18 -76 109 -226 146 -240 31 -12 25 4 -16 49 -48 52 -111
176 -111 218 0 44 15 24 29 -38 7 -30 17 -55 22 -55 11 0 12 -7 -7 90 -8 45
-15 128 -16 184 -1 115 21 188 87 290 20 31 38 63 41 71 11 27 -13 16 -39 -18z"/>
<path d="M3100 3607 c0 -7 7 -22 15 -33 15 -19 15 -19 30 0 17 22 20 46 6 46
-5 0 -12 -6 -14 -12 -4 -10 -6 -10 -6 0 -1 16 -31 16 -31 -1z"/>
<path d="M2584 3587 c-9 -24 -1 -52 16 -52 10 0 14 8 12 25 -5 33 -20 48 -28
27z"/>
<path d="M2990 3571 c0 -17 -4 -31 -10 -31 -5 0 -10 12 -10 26 0 14 -4 23 -10
19 -15 -9 -12 -71 4 -84 12 -10 18 -7 30 18 18 34 21 67 6 76 -6 4 -10 -7 -10
-24z"/>
<path d="M1097 3583 c-4 -3 -7 -13 -7 -21 0 -12 3 -12 15 -2 8 7 15 16 15 21
0 11 -14 12 -23 2z"/>
<path d="M3294 3562 c-4 -12 -13 -22 -20 -22 -8 0 -14 -7 -14 -15 0 -16 12
-18 48 -9 17 5 21 11 16 28 -10 35 -24 43 -30 18z"/>
<path d="M2356 3538 c-19 -26 -21 -84 -4 -94 6 -4 21 4 35 20 24 29 29 46 13
46 -5 0 -10 -6 -10 -14 0 -7 -7 -19 -15 -26 -13 -10 -15 -9 -15 8 0 11 5 33
10 48 14 35 6 41 -14 12z"/>
<path d="M3340 3542 c0 -19 12 -42 22 -42 14 0 5 43 -9 48 -7 2 -13 -1 -13 -6z"/>
<path d="M7645 3510 c3 -5 10 -10 16 -10 5 0 9 5 9 10 0 6 -7 10 -16 10 -8 0
-12 -4 -9 -10z"/>
<path d="M2731 3468 c-20 -54 34 -94 57 -43 15 32 15 55 2 55 -5 0 -10 -9 -10
-19 0 -11 -4 -23 -10 -26 -6 -4 -10 7 -10 24 0 36 -17 41 -29 9z"/>
<path d="M3388 3456 c-19 -14 -23 -43 -9 -65 7 -11 11 -10 19 5 10 18 11 18
17 2 12 -30 22 -11 16 28 -7 42 -18 49 -43 30z"/>
<path d="M7670 3456 c0 -9 5 -16 10 -16 6 0 10 4 10 9 0 6 -4 13 -10 16 -5 3
-10 -1 -10 -9z"/>
<path d="M3455 3450 c-3 -5 -3 -25 0 -43 5 -24 2 -37 -9 -46 -18 -16 -21 -62
-5 -78 13 -13 8 -128 -7 -143 -5 -5 -8 10 -6 41 4 46 -8 79 -28 79 -4 0 -18
-8 -30 -18 -19 -16 -21 -22 -11 -40 7 -13 16 -20 21 -17 5 3 12 0 16 -7 11
-18 13 -127 3 -134 -5 -3 -9 13 -9 35 0 44 -11 58 -29 37 -14 -16 -3 -76 14
-83 10 -3 10 -11 2 -34 -13 -32 -27 -39 -27 -11 0 9 -4 23 -9 31 -8 12 -12 13
-25 1 -17 -14 -15 -32 10 -84 13 -27 12 -31 -18 -70 -55 -72 -102 -117 -137
-132 -44 -19 -43 -19 -35 21 4 21 2 35 -4 35 -13 0 -23 -26 -16 -44 3 -8 0
-17 -5 -21 -6 -3 -8 -11 -5 -17 3 -5 -11 -28 -32 -49 -33 -34 -39 -47 -40 -87
-2 -71 -13 -203 -18 -221 -10 -34 -15 -168 -8 -201 14 -65 26 -36 27 70 5 290
34 425 98 449 12 5 60 46 107 92 90 89 190 239 190 285 0 14 5 34 10 45 17 32
60 237 55 267 -2 15 -7 44 -10 65 -6 36 -18 47 -30 27z"/>
<path d="M2544 3415 c-9 -34 3 -75 22 -75 16 0 46 59 37 73 -3 4 -11 3 -19 -4
-11 -9 -14 -7 -14 10 0 29 -18 26 -26 -4z"/>
<path d="M3304 3416 c-16 -17 -34 -53 -34 -65 0 -5 16 -18 36 -27 30 -15 37
-15 45 -3 5 9 4 15 -4 18 -7 2 -15 9 -19 15 -6 8 -11 6 -18 -4 -8 -12 -10 -10
-10 9 0 16 4 22 15 17 11 -4 15 2 15 24 0 32 -8 37 -26 16z"/>
<path d="M7695 3421 c-3 -5 -1 -12 5 -16 5 -3 10 1 10 9 0 18 -6 21 -15 7z"/>
<path d="M9120 3421 c0 -6 4 -13 10 -16 6 -3 7 1 4 9 -7 18 -14 21 -14 7z"/>
<path d="M2939 3388 c0 -2 -3 -19 -6 -38 -6 -44 -12 -51 -20 -22 -6 24 -19 29
-26 10 -7 -20 12 -48 31 -48 18 0 42 48 42 83 0 14 -17 25 -21 15z"/>
<path d="M9110 3361 c0 -12 5 -21 10 -21 6 0 10 6 10 14 0 8 -4 18 -10 21 -5
3 -10 -3 -10 -14z"/>
<path d="M3377 3343 c-7 -12 11 -53 23 -53 7 0 9 9 5 23 -9 28 -21 41 -28 30z"/>
<path d="M2316 3312 c-11 -19 -18 -112 -8 -112 13 0 54 51 47 58 -3 3 -12 -3
-21 -14 -14 -18 -15 -16 -9 29 6 44 3 58 -9 39z"/>
<path d="M3277 3283 c-11 -10 -8 -53 3 -53 6 0 10 14 10 30 0 31 -2 35 -13 23z"/>
<path d="M3305 3280 c-8 -13 4 -50 16 -50 5 0 9 14 9 30 0 30 -13 40 -25 20z"/>
<path d="M2740 3245 c0 -33 17 -65 34 -65 8 0 19 14 25 31 14 40 14 59 1 59
-5 0 -10 -11 -10 -24 0 -35 -18 -42 -22 -9 -4 36 -28 43 -28 8z"/>
<path d="M2365 3154 c-11 -74 31 -86 49 -14 l7 25 -15 -25 c-15 -25 -15 -25
-16 18 0 56 -16 54 -25 -4z"/>
<path d="M3293 3163 c-10 -45 -30 -54 -35 -16 l-3 28 -13 -23 c-11 -20 -10
-25 13 -48 28 -28 33 -64 10 -64 -8 0 -15 -6 -15 -14 0 -7 -7 -27 -15 -42 -15
-28 -15 -28 -15 -5 0 31 -9 22 -16 -15 -7 -41 -21 -52 -37 -29 -17 22 -32 5
-22 -26 5 -16 12 -19 28 -14 12 4 29 8 37 9 9 1 21 5 28 10 14 9 27 -17 18
-39 -3 -9 0 -15 8 -15 17 0 26 22 26 62 0 25 -3 29 -20 25 -17 -4 -20 0 -20
25 0 16 4 27 10 23 5 -3 18 3 28 13 15 15 19 32 18 71 -1 36 2 51 11 51 8 0
13 13 13 35 0 48 -25 46 -37 -2z"/>
<path d="M2280 3150 c-15 -36 3 -101 23 -81 8 8 7 17 0 33 -7 13 -14 30 -16
38 -3 8 -6 13 -7 10z"/>
<path d="M2986 3143 c-13 -13 -6 -91 9 -103 20 -17 33 -4 40 40 5 32 1 29 -11
-10 -9 -25 -27 17 -20 45 6 23 -5 41 -18 28z"/>
<path d="M3187 3092 c-32 -35 -15 -71 34 -72 9 0 2 84 -8 87 -5 2 -17 -5 -26
-15z"/>
<path d="M3320 3086 c0 -14 5 -28 11 -31 15 -10 18 -4 12 28 -7 34 -23 36 -23
3z"/>
<path d="M2456 3068 c-11 -23 -3 -81 11 -86 12 -3 26 23 39 73 4 15 2 25 -5
25 -6 0 -11 -9 -11 -20 0 -27 -18 -25 -23 3 -3 18 -5 19 -11 5z"/>
<path d="M2817 3019 c-5 -17 -11 -20 -30 -15 -28 7 -38 0 -30 -20 13 -35 83 1
83 43 0 21 -17 15 -23 -8z"/>
<path d="M2316 2960 c-10 -53 13 -78 40 -42 21 27 16 37 -7 16 l-22 -19 5 33
c6 42 -8 52 -16 12z"/>
<path d="M2695 2908 c-6 -19 -8 -20 -12 -5 -7 26 -35 22 -31 -5 5 -35 45 -37
54 -3 8 33 -1 44 -11 13z"/>
<path d="M6787 2893 c-11 -10 -8 -43 3 -43 6 0 10 4 10 9 0 5 3 16 6 25 6 16
-7 22 -19 9z"/>
<path d="M2553 2864 c4 -11 9 -31 13 -46 3 -16 12 -28 20 -28 18 0 30 48 15
63 -8 8 -11 5 -11 -13 0 -29 -12 -19 -14 11 0 12 -7 24 -15 27 -9 3 -11 -2 -8
-14z"/>
<path d="M3206 2872 c-7 -12 5 -52 15 -52 5 0 9 14 9 30 0 28 -13 40 -24 22z"/>
<path d="M2882 2843 c2 -14 8 -28 14 -30 14 -5 44 24 44 40 0 7 -7 3 -16 -8
-14 -19 -15 -19 -20 3 -9 31 -26 28 -22 -5z"/>
<path d="M3067 2864 c-8 -8 1 -24 14 -24 5 0 9 7 9 15 0 15 -12 20 -23 9z"/>
<path d="M3107 2863 c-4 -3 -7 -19 -7 -35 0 -40 22 -31 26 10 4 30 -4 40 -19
25z"/>
<path d="M7330 2816 c0 -17 14 -29 23 -20 8 8 -3 34 -14 34 -5 0 -9 -6 -9 -14z"/>
<path d="M2386 2801 c-13 -21 162 -131 208 -131 15 0 26 3 26 8 0 4 -33 25
-73 46 -39 22 -86 50 -103 63 -33 25 -49 29 -58 14z"/>
<path d="M2777 2803 c-2 -5 -7 -24 -11 -44 -8 -44 13 -70 39 -49 8 7 15 20 15
29 0 13 -2 13 -9 2 -15 -24 -30 -2 -24 34 5 32 0 46 -10 28z"/>
<path d="M3165 2789 c-4 -12 -2 -26 4 -32 8 -8 11 -2 11 21 0 37 -6 41 -15 11z"/>
<path d="M3052 2778 c-6 -6 -12 -18 -12 -25 0 -7 -13 -22 -30 -35 -33 -24 -38
-38 -15 -38 35 0 65 24 71 56 8 43 3 59 -14 42z"/>
<path d="M2946 2692 c-3 -6 -1 -14 5 -17 15 -10 25 3 12 16 -7 7 -13 7 -17 1z"/>
<path d="M2870 2677 c0 -16 40 -60 47 -53 10 9 -19 66 -33 66 -8 0 -14 -6 -14
-13z"/>
<path d="M2670 2656 c0 -8 16 -27 35 -42 25 -18 34 -32 30 -44 -7 -22 23 -157
36 -165 19 -12 -1 117 -24 153 -5 8 -3 12 7 12 25 0 19 16 -22 60 -40 41 -62
51 -62 26z"/>
<path d="M2960 2620 c-9 -17 -9 -29 0 -51 9 -21 11 -77 7 -194 -4 -144 -7
-168 -26 -198 -27 -44 -27 -51 6 -81 26 -24 26 -27 16 -83 -6 -32 -12 -129
-12 -216 -1 -86 -4 -164 -7 -171 -3 -8 4 -21 16 -29 12 -8 18 -20 15 -30 -9
-22 12 -31 24 -10 5 10 12 134 16 276 l7 259 -21 -7 c-15 -4 -21 -2 -21 8 0 9
-5 17 -12 19 -9 3 -9 11 -1 34 29 74 41 483 15 492 -6 2 -16 -6 -22 -18z m40
-639 c0 -6 -4 -13 -10 -16 -5 -3 -10 1 -10 9 0 9 5 16 10 16 6 0 10 -4 10 -9z
m-5 -97 c-5 -90 -15 -94 -15 -6 0 40 4 72 9 72 6 0 8 -29 6 -66z m-8 -201 c-2
-21 -4 -4 -4 37 0 41 2 58 4 38 2 -21 2 -55 0 -75z"/>
<path d="M2835 2624 c-11 -4 -12 -114 -1 -132 7 -12 1 -177 -10 -248 -4 -30
-2 -45 10 -57 20 -19 21 -64 2 -83 -10 -10 -12 -22 -6 -43 4 -15 5 -46 1 -67
-4 -22 -6 -51 -5 -66 2 -16 -1 -28 -7 -28 -5 0 -9 60 -9 143 0 142 -15 305
-28 319 -9 9 -6 -114 3 -163 3 -19 2 -45 -4 -59 -9 -24 -10 -24 -10 8 -1 41
-21 33 -21 -8 0 -18 6 -30 16 -32 22 -4 28 -155 13 -301 -7 -73 -7 -112 -1
-120 6 -7 12 -33 14 -57 2 -35 7 -45 20 -44 13 1 18 -11 24 -64 7 -65 7 -65
-27 -94 -19 -15 -71 -51 -115 -78 -45 -27 -87 -57 -94 -65 -7 -8 -18 -15 -26
-15 -7 0 -26 -16 -41 -35 -15 -20 -47 -56 -70 -82 -32 -35 -43 -55 -43 -79 0
-18 -4 -36 -10 -39 -17 -10 -11 58 8 92 27 50 182 205 219 221 29 11 173 115
168 120 -6 6 -173 -98 -246 -154 -31 -24 -64 -55 -74 -71 -10 -15 -37 -48 -60
-73 -23 -25 -47 -59 -54 -77 -12 -29 -11 -35 9 -63 27 -37 45 -38 62 -2 7 15
29 36 49 46 34 19 38 19 85 2 79 -28 84 -29 84 -20 0 17 -69 56 -109 61 -31 4
-46 1 -67 -16 -15 -12 -29 -19 -31 -17 -9 9 8 44 35 72 15 16 34 38 42 50 25
35 206 151 218 140 4 -5 -37 -150 -59 -211 -18 -49 -22 -95 -10 -121 6 -13 16
-35 23 -49 6 -13 15 -22 20 -19 12 7 10 38 -3 51 -8 8 -6 18 6 36 9 15 14 31
11 36 -4 5 3 25 14 43 11 18 20 46 20 61 0 16 7 41 14 55 46 83 103 302 80
302 -5 0 -9 127 -9 283 0 224 3 289 15 314 13 30 13 36 -4 63 -12 22 -16 42
-12 68 5 35 10 268 7 340 -1 31 -5 35 -26 26z m5 -945 c0 -5 -4 -9 -10 -9 -5
0 -10 7 -10 16 0 8 5 12 10 9 6 -3 10 -10 10 -16z m-20 -295 c-6 -16 -24 -56
-40 -89 -25 -52 -29 -55 -24 -25 10 61 26 104 47 127 25 28 30 25 17 -13z
m-84 -234 c-11 -35 -14 -39 -15 -19 -1 31 22 100 26 79 2 -8 -3 -35 -11 -60z
m-21 -75 c0 -14 -3 -25 -7 -25 -10 0 -10 34 -1 43 3 4 7 7 7 7 1 0 1 -11 1
-25z"/>
<path d="M2765 1570 c-4 -6 -4 -14 -1 -17 4 -4 -15 -17 -40 -29 -26 -12 -50
-28 -54 -34 -4 -6 -24 -13 -46 -17 -21 -3 -46 -12 -55 -20 -9 -8 -84 -28 -165
-44 -112 -23 -153 -36 -166 -51 -20 -22 -24 -63 -8 -73 6 -3 10 5 10 18 0 16
10 31 26 42 30 19 43 13 23 -11 -8 -10 -10 -19 -4 -21 54 -18 81 -41 95 -82
19 -55 40 -66 40 -21 0 41 -31 93 -65 108 -38 18 -30 29 22 30 59 2 153 21
153 32 0 4 18 11 40 15 22 4 43 12 47 18 4 7 0 8 -11 4 -10 -4 -30 -10 -44
-13 -15 -4 -31 -10 -37 -14 -5 -4 -37 -11 -70 -15 -33 -3 -71 -9 -84 -12 -15
-4 -22 -2 -18 4 4 6 32 13 64 17 31 4 61 10 67 15 6 5 25 11 41 14 74 13 139
38 192 74 65 45 83 67 66 84 -8 8 -13 8 -18 -1z"/>
<path d="M3040 1516 c0 -9 12 -19 28 -23 38 -9 114 -43 132 -58 8 -8 39 -25
68 -40 29 -14 50 -31 46 -36 -3 -6 4 -20 16 -31 l23 -21 -27 -14 c-16 -8 -29
-25 -32 -43 -4 -19 -11 -27 -20 -23 -20 7 -17 -3 11 -45 34 -50 31 -59 -7 -30
-18 14 -42 28 -53 31 -18 6 -61 54 -109 122 -8 11 -17 17 -21 13 -7 -7 23 -54
65 -102 14 -16 21 -30 15 -32 -48 -18 -81 -45 -101 -83 l-23 -43 -6 33 c-3 19
-5 52 -4 74 2 54 -12 154 -22 161 -5 3 -9 0 -9 -6 0 -7 -8 -9 -19 -5 -29 9
-30 -20 -4 -120 38 -146 41 -165 31 -201 -9 -35 -4 -59 12 -49 5 3 18 36 30
74 22 71 45 100 95 119 61 23 79 19 124 -26 64 -63 75 -54 45 33 -22 67 -16
107 21 124 17 8 32 18 33 23 2 4 12 8 21 8 26 0 82 -30 76 -41 -4 -5 -1 -9 4
-9 15 0 13 41 -3 62 -7 10 -55 40 -107 67 -52 26 -116 62 -144 80 -100 63
-185 89 -185 57z m350 -181 c16 -19 0 -19 -26 0 -16 12 -16 14 -3 15 9 0 22
-7 29 -15z"/>
<path d="M2998 1514 c-11 -11 41 -101 84 -144 24 -25 58 -66 75 -91 31 -44 80
-86 90 -76 6 6 -19 47 -29 47 -5 0 -8 10 -8 23 0 23 -38 87 -84 142 -14 17
-26 26 -26 22 0 -14 20 -47 41 -68 10 -10 19 -25 19 -31 0 -7 -16 5 -35 27
-19 22 -43 49 -53 60 -10 11 -28 37 -41 58 -24 39 -25 40 -33 31z"/>
<path d="M2930 1480 c0 -28 49 -140 61 -140 15 0 10 33 -14 95 -24 61 -47 83
-47 45z"/>
<path d="M3205 1385 c50 -44 65 -53 65 -37 0 11 -50 57 -77 71 -41 21 -37 11
12 -34z"/>
<path d="M7270 1301 c0 -6 5 -13 10 -16 15 -9 12 -25 -5 -25 -8 0 -15 5 -15
12 0 6 -3 8 -7 5 -3 -4 1 -15 9 -24 9 -10 27 -41 42 -69 22 -45 87 -114 108
-114 3 0 20 -14 37 -30 16 -17 43 -33 60 -36 16 -4 38 -15 47 -25 19 -21 54
-26 54 -8 0 6 -6 9 -14 6 -8 -3 -25 2 -38 12 -13 11 -40 26 -61 34 -20 9 -37
22 -37 30 0 8 -10 17 -23 21 -29 7 -104 72 -95 81 4 5 16 2 25 -5 10 -7 4 1
-13 16 -39 36 -69 82 -60 92 4 4 13 -1 20 -10 7 -10 37 -29 67 -42 30 -13 62
-33 73 -44 18 -20 105 -53 176 -67 19 -3 47 -11 62 -17 46 -17 55 -1 11 19
-24 11 -41 22 -39 24 3 2 -10 4 -27 3 -38 -2 -151 42 -191 73 -15 12 -39 24
-54 28 -15 3 -46 23 -70 45 -45 42 -52 46 -52 31z"/>
<path d="M7220 1290 c-6 -15 -4 -102 2 -106 13 -8 9 -79 -4 -92 -9 -9 -9 -12
-1 -12 24 0 25 -40 2 -72 -20 -28 -21 -31 -5 -25 17 7 18 3 13 -35 -3 -24 -9
-54 -13 -68 -5 -18 -4 -22 4 -15 20 18 39 147 35 225 -4 68 -28 212 -33 200z"/>
<path d="M7530 1180 c0 -6 7 -10 15 -10 8 0 15 2 15 4 0 2 -7 6 -15 10 -8 3
-15 1 -15 -4z"/>
<path d="M6843 1144 c-23 -14 -52 -25 -65 -26 -38 0 -68 -8 -68 -17 0 -4 12
-6 28 -4 21 4 16 -2 -25 -26 -29 -17 -56 -31 -60 -31 -4 0 -19 -10 -33 -21
-14 -11 38 12 115 52 129 66 184 100 160 99 -6 -1 -29 -12 -52 -26z"/>
<path d="M6675 1093 c-11 -2 -30 -6 -42 -9 -13 -2 -23 -8 -23 -13 0 -9 74 9
86 22 4 4 5 6 3 6 -2 -1 -13 -3 -24 -6z"/>
<path d="M8306 1045 c-15 -36 -36 -47 -36 -20 0 23 -20 18 -46 -12 -19 -22
-25 -25 -38 -14 -9 8 -16 20 -16 27 0 8 -4 14 -10 14 -25 0 -7 -41 26 -58 17
-9 24 -7 38 9 11 13 23 18 34 14 32 -12 36 -10 58 33 13 23 19 42 14 42 -5 0
-16 -16 -24 -35z"/>
<path d="M6877 1041 c-4 -17 -3 -21 5 -13 5 5 8 16 6 23 -3 8 -7 3 -11 -10z"/>
<path d="M6498 1043 c-10 -2 -18 -10 -18 -17 0 -10 8 -11 35 -2 55 17 40 34
-17 19z"/>
<path d="M7418 993 c9 -25 23 -48 30 -51 9 -3 6 9 -7 34 -12 21 -21 44 -21 51
0 7 -4 13 -10 13 -5 0 -2 -21 8 -47z"/>
<path d="M7280 1004 c0 -5 7 -19 15 -30 8 -10 15 -14 15 -8 0 5 -7 19 -15 30
-8 10 -15 14 -15 8z"/>
<path d="M6533 984 c-18 -8 -33 -16 -33 -19 0 -5 70 22 79 30 8 9 -14 4 -46
-11z"/>
<path d="M6796 983 c-6 -14 -5 -15 5 -6 7 7 10 15 7 18 -3 3 -9 -2 -12 -12z"/>
<path d="M7366 969 c-8 -42 -7 -57 3 -39 14 25 22 70 12 70 -4 0 -11 -14 -15
-31z"/>
<path d="M8036 959 c-14 -30 -21 -38 -27 -28 -5 8 -9 22 -9 32 0 9 -5 17 -11
17 -7 0 -9 -10 -4 -27 10 -43 22 -50 46 -24 16 17 24 19 34 11 21 -17 35 -3
34 33 -2 30 -2 31 -6 5 -5 -35 -23 -37 -23 -3 0 37 -14 30 -34 -16z"/>
<path d="M7825 962 c-6 -4 -16 -26 -23 -48 -14 -50 -15 -54 -3 -54 6 0 16 21
23 47 9 32 20 49 32 51 16 3 18 0 11 -19 -14 -45 -11 -73 8 -77 16 -3 17 -1 6
16 -10 16 -10 26 -1 47 7 15 10 31 7 36 -7 11 -46 12 -60 1z"/>
<path d="M6769 933 c-5 -14 -8 -30 -6 -36 1 -5 8 7 14 27 13 42 7 49 -8 9z"/>
<path d="M7268 954 c-6 -12 -2 -73 6 -81 3 -4 11 -2 16 3 7 7 6 23 -3 49 -8
21 -16 34 -19 29z"/>
<path d="M7517 953 c-11 -10 -8 -43 3 -43 6 0 10 11 10 25 0 26 -2 29 -13 18z"/>
<path d="M6908 929 c-21 -11 -38 -25 -38 -31 0 -6 9 -3 21 8 16 15 24 16 39 7
14 -10 19 -9 24 3 4 10 2 13 -6 8 -8 -5 -9 -2 -5 9 3 10 5 17 4 17 -1 -1 -19
-10 -39 -21z"/>
<path d="M6667 890 c-9 -11 -13 -20 -8 -20 4 0 16 9 26 20 10 11 14 20 9 20
-5 0 -17 -9 -27 -20z"/>
<path d="M6895 860 c-3 -5 1 -10 10 -10 9 0 13 5 10 10 -3 6 -8 10 -10 10 -2
0 -7 -4 -10 -10z"/>
<path d="M6950 854 c0 -29 11 -64 20 -64 8 0 -4 67 -14 77 -3 4 -6 -2 -6 -13z"/>
<path d="M6814 785 c-10 -8 -14 -14 -9 -14 6 0 19 6 29 14 11 8 15 15 10 15
-6 0 -19 -7 -30 -15z"/>
<path d="M6900 765 c-7 -9 -10 -18 -7 -21 3 -3 10 4 17 15 13 25 8 27 -10 6z"/>
<path d="M6716 689 c-32 -5 -64 -13 -70 -19 -8 -6 -16 -6 -23 1 -19 19 -22 -6
-6 -52 11 -33 15 -93 17 -241 1 -211 5 -226 50 -214 43 11 48 35 35 148 -12
100 -12 101 10 120 13 10 38 18 55 18 51 0 96 59 96 124 0 94 -52 131 -164
115z m115 -48 c35 -43 16 -156 -28 -167 -38 -10 -47 7 -14 27 20 12 32 29 36
53 14 74 -25 107 -102 85 l-43 -12 0 -73 c0 -41 3 -74 8 -74 4 0 14 -4 22 -10
12 -7 12 -12 -4 -29 -23 -25 -23 -103 -2 -197 5 -21 3 -34 -7 -43 -17 -13 -47
-5 -42 12 17 50 9 331 -11 419 -6 26 -4 27 37 30 100 7 131 3 150 -21z m-30
-37 c13 -16 4 -68 -15 -83 -7 -6 -27 -14 -44 -17 -32 -6 -32 -6 -33 35 -1 22
-2 46 -3 53 -1 17 41 37 65 31 10 -3 23 -11 30 -19z"/>
<path d="M7961 677 c-8 -10 -4 -22 15 -48 43 -59 55 -121 52 -280 l-3 -143 25
-14 c19 -11 31 -11 54 -3 27 11 28 13 12 30 -14 15 -15 28 -6 92 14 118 0 189
-62 317 -24 48 -36 62 -53 62 -12 0 -28 -6 -34 -13z m87 -96 c35 -86 56 -196
47 -241 -2 -14 -6 -47 -7 -73 -2 -49 -12 -67 -29 -50 -5 5 -11 84 -12 174 -2
173 0 159 -55 273 -3 5 2 6 9 4 8 -3 29 -42 47 -87z"/>
<path d="M2230 671 c0 -4 -24 -12 -52 -17 -30 -5 -51 -13 -48 -19 6 -11 14
-11 86 -1 42 6 54 4 75 -12 21 -18 24 -29 24 -82 0 -55 -3 -64 -28 -86 -21
-18 -40 -24 -77 -24 -29 0 -54 -6 -63 -14 -19 -20 -29 -109 -17 -162 11 -48
-2 -99 -23 -91 -9 3 -11 47 -9 183 2 98 -1 200 -6 226 -6 29 -6 50 0 56 6 6
-1 11 -17 14 -34 7 -41 -11 -20 -52 18 -36 23 -181 11 -327 -10 -106 -4 -123
38 -123 47 0 59 19 55 87 -8 175 -4 188 56 178 84 -15 161 115 125 209 -15 40
-110 89 -110 57z"/>
<path d="M2925 664 c-33 -34 -9 -89 37 -82 30 4 57 52 42 75 -14 23 -59 26
-79 7z m39 -20 c18 -7 21 -30 6 -39 -15 -9 -40 14 -33 31 6 16 6 16 27 8z"/>
<path d="M7512 668 c-17 -17 -15 -32 7 -52 39 -36 91 5 57 43 -21 24 -46 27
-64 9z m58 -28 c0 -5 -9 -10 -20 -10 -11 0 -20 5 -20 10 0 6 9 10 20 10 11 0
20 -4 20 -10z"/>
<path d="M2695 660 c-4 -6 -15 -8 -26 -5 -26 9 -24 -2 13 -73 31 -61 31 -62
29 -207 -2 -170 7 -199 64 -209 36 -7 75 6 75 25 0 6 -10 19 -22 29 -22 17
-23 25 -24 167 0 131 -3 154 -23 203 -12 30 -27 61 -33 67 -13 16 -44 17 -53
3z m65 -99 c17 -54 20 -88 18 -191 -1 -69 1 -135 6 -147 5 -17 4 -23 -8 -23
-28 0 -34 33 -37 195 -4 146 -6 164 -27 199 -18 30 -20 41 -10 47 20 13 37 -9
58 -80z"/>
<path d="M5930 649 c-32 -13 -42 -30 -27 -47 12 -15 13 -192 2 -332 -6 -69 -5
-77 15 -95 47 -42 80 24 78 155 0 84 0 85 23 82 28 -3 51 -29 45 -51 -3 -9 -8
-45 -11 -81 -6 -56 -4 -69 13 -90 19 -23 20 -23 55 -7 33 16 35 20 27 46 -4
16 -6 75 -3 130 7 126 -2 141 -82 141 l-52 0 -6 56 c-5 52 -28 105 -45 103 -4
0 -18 -5 -32 -10z m44 -51 c3 -13 6 -38 6 -56 0 -57 15 -72 68 -72 68 0 76 -9
76 -77 0 -129 -7 -193 -20 -193 -20 0 -27 37 -19 115 8 87 -1 110 -48 119 -61
11 -65 5 -65 -98 1 -102 -6 -136 -27 -136 -11 0 -13 21 -10 103 2 56 4 150 4
210 1 84 4 107 15 107 7 0 16 -10 20 -22z"/>
<path d="M5493 613 c-32 -49 18 -99 91 -91 69 8 76 -1 75 -90 0 -42 -4 -115
-8 -161 -7 -94 0 -111 49 -111 58 0 61 14 54 201 l-7 169 30 0 c73 0 109 30
99 85 -3 19 -11 20 -186 20 -177 0 -183 -1 -197 -22z m335 1 c23 -7 30 -38 11
-49 -6 -4 -32 -8 -60 -9 -27 -1 -52 -5 -55 -9 -6 -6 -7 -139 -2 -282 3 -65 1
-70 -18 -73 -30 -4 -36 20 -24 87 13 73 7 248 -9 264 -8 8 -36 11 -76 9 -56
-2 -65 0 -75 18 -6 11 -8 25 -5 30 3 5 56 7 117 6 62 -2 123 0 137 5 34 10 33
10 59 3z"/>
<path d="M1292 619 c-27 -8 -32 -14 -26 -27 20 -44 14 -184 -15 -377 -8 -55
-7 -62 14 -84 19 -19 26 -21 44 -11 30 16 41 50 48 152 5 72 3 88 -9 88 -9 0
-14 -12 -15 -37 -3 -92 -15 -164 -29 -170 -8 -3 -17 -3 -20 0 -3 3 0 65 7 139
7 73 12 170 12 216 l-1 82 31 0 30 0 -6 -85 c-4 -58 -2 -87 5 -92 7 -3 33 -5
60 -4 42 2 49 0 59 -22 13 -28 3 -213 -11 -222 -21 -13 -29 25 -22 103 5 52 4
85 -3 95 -13 18 -75 18 -75 0 0 -8 12 -13 30 -13 35 0 37 -13 19 -119 -11 -62
-11 -65 11 -83 14 -11 35 -17 52 -15 l29 3 4 131 c5 162 -2 176 -83 175 l-52
-2 7 75 c5 64 3 78 -12 95 -20 22 -33 23 -83 9z"/>
<path d="M886 610 c-16 -3 -35 -14 -42 -26 -13 -18 -12 -24 6 -47 18 -23 29
-26 88 -29 l67 -3 -2 -80 c-2 -44 -5 -128 -8 -187 -4 -93 -2 -109 12 -117 12
-6 28 -4 53 9 61 31 63 36 56 172 -3 68 -2 141 2 163 7 39 8 40 57 45 46 5 50
7 53 34 2 15 1 39 -2 51 -6 23 -7 23 -158 22 -84 -1 -166 -4 -182 -7z m317
-40 c6 -24 0 -30 -29 -30 -35 0 -73 -21 -80 -43 -4 -11 -6 -85 -6 -163 0 -138
0 -143 -24 -165 -14 -13 -28 -19 -32 -13 -5 5 -6 86 -2 179 3 94 2 178 -2 188
-6 12 -21 17 -53 17 -29 0 -45 4 -46 13 0 10 -2 10 -6 0 -5 -15 -39 -17 -47
-4 -4 5 -4 15 -1 23 4 10 42 13 164 15 148 1 159 0 164 -17z"/>
<path d="M2190 603 c-19 -3 -41 -9 -47 -15 -13 -11 -18 -84 -7 -112 13 -34
123 -12 142 28 19 42 -8 110 -42 104 -6 0 -27 -3 -46 -5z m68 -67 l-3 -41 -50
0 -50 0 -3 38 c-2 20 0 37 5 38 20 2 57 10 60 13 2 2 13 1 24 -1 17 -5 20 -13
17 -47z"/>
<path d="M3964 551 c-48 -22 -142 -43 -155 -35 -5 3 -14 2 -19 -1 -6 -4 0 -19
16 -38 l27 -32 -6 -133 c-5 -123 -4 -135 14 -153 41 -41 81 -8 78 67 -1 27 1
91 5 143 l6 95 32 13 c31 13 34 12 51 -8 10 -12 15 -29 12 -38 -11 -26 -18
-166 -11 -204 11 -61 105 -97 121 -47 3 10 -4 46 -15 80 -11 33 -18 65 -15 70
9 15 8 156 -1 173 -12 20 -74 67 -88 66 -6 0 -29 -9 -52 -18z m-9 -50 c-6 -5
-20 -11 -33 -13 -22 -3 -22 -6 -27 -157 -2 -85 -7 -156 -10 -159 -2 -3 -11 0
-19 7 -11 9 -13 38 -9 144 6 173 6 175 46 180 60 7 61 7 52 -2z m119 -9 c16
-4 17 -12 10 -81 -11 -102 -7 -157 13 -187 12 -19 13 -28 4 -37 -8 -8 -17 -6
-34 11 -20 21 -22 32 -22 145 0 84 -5 130 -14 146 -12 22 -12 23 5 16 11 -4
27 -10 38 -13z"/>
<path d="M7816 555 c-37 -13 -45 -20 -65 -55 -13 -23 -13 -205 0 -248 14 -47
49 -71 104 -69 33 2 43 8 62 36 45 67 17 118 -37 66 -16 -15 -33 -24 -39 -21
-12 8 -16 173 -5 201 6 14 9 14 29 -5 13 -12 28 -18 38 -14 21 8 22 34 2 34
-8 0 -24 5 -34 12 -44 27 -61 -11 -61 -139 0 -110 26 -141 72 -88 12 14 25 25
30 25 17 0 7 -42 -16 -65 -21 -20 -28 -22 -62 -15 -21 5 -43 15 -49 24 -13 17
-19 256 -8 272 11 16 49 34 69 34 10 0 28 -10 41 -22 28 -27 43 -16 17 13 -30
34 -46 38 -88 24z"/>
<path d="M8213 544 c-53 -23 -63 -47 -63 -152 0 -105 11 -137 63 -176 50 -38
107 -36 141 5 30 35 32 51 10 73 -21 21 -37 20 -59 -4 -10 -11 -24 -20 -31
-20 -22 0 -54 51 -54 86 l0 34 54 0 c47 0 57 4 75 26 21 27 27 78 12 102 -12
20 -60 42 -90 41 -14 0 -40 -7 -58 -15z m97 -19 c23 -12 30 -22 30 -46 0 -57
-14 -69 -80 -69 l-60 0 0 -48 c0 -84 58 -132 112 -92 16 11 33 18 38 15 19
-11 10 -44 -15 -61 -22 -14 -32 -15 -64 -5 -83 24 -99 53 -103 186 -2 71 12
102 55 120 41 18 52 18 87 0z"/>
<path d="M8248 504 c-35 -18 -42 -41 -17 -55 21 -11 75 -4 84 12 8 11 -11 45
-28 52 -7 2 -24 -1 -39 -9z m45 -18 c7 -19 -1 -26 -30 -26 -24 0 -32 25 -10
33 22 10 35 7 40 -7z"/>
<path d="M7346 541 c-4 -6 -31 -9 -61 -8 -56 3 -74 -8 -31 -19 16 -4 23 -11
19 -20 -3 -8 0 -20 6 -28 12 -14 13 -264 1 -271 -3 -2 -12 0 -20 5 -12 7 -15
37 -15 142 0 73 -4 140 -8 149 -10 19 -54 45 -63 36 -4 -3 7 -17 22 -31 l29
-24 -3 -127 c-3 -103 0 -131 12 -151 9 -13 23 -24 31 -24 32 0 41 36 43 177 1
115 4 139 17 141 8 2 15 9 15 17 0 19 31 28 46 13 7 -7 19 -33 27 -58 18 -57
16 -252 -3 -258 -22 -8 -27 18 -22 110 5 94 -10 168 -34 168 -10 0 -9 -8 3
-37 12 -31 14 -59 9 -145 -6 -98 -5 -108 12 -117 14 -7 31 -4 70 16 55 27 67
44 30 40 -22 -2 -23 1 -28 103 -4 85 -10 114 -30 155 -24 49 -59 70 -74 46z"/>
<path d="M7510 542 c0 -5 11 -18 24 -30 33 -28 45 -111 36 -256 -4 -68 10 -86
59 -78 33 5 50 34 32 55 -5 7 -11 60 -11 117 -2 123 -13 176 -40 190 -22 12
-100 13 -100 2z m100 -38 c6 -14 13 -86 18 -161 6 -108 5 -136 -6 -140 -7 -3
-15 -3 -19 0 -3 4 -7 66 -8 139 -2 73 -8 145 -14 161 -9 22 -8 27 4 27 9 0 20
-12 25 -26z"/>
<path d="M3538 525 c-32 -18 -43 -47 -28 -76 9 -16 17 -19 33 -14 12 4 36 9
53 12 30 5 32 3 38 -32 9 -45 2 -54 -22 -32 -29 26 -67 21 -108 -15 -35 -31
-36 -33 -32 -95 3 -48 9 -68 28 -88 26 -28 38 -30 75 -13 27 12 33 32 11 45
-17 10 -36 46 -36 68 0 20 30 85 39 85 3 0 14 -7 25 -15 16 -12 17 -18 7 -43
-27 -65 39 -171 97 -156 30 8 35 34 16 80 -13 30 -15 55 -10 111 9 96 -7 159
-45 178 -36 19 -106 19 -141 0z m149 -63 c11 -26 12 -57 7 -128 -6 -78 -4 -98
10 -118 22 -35 20 -39 -12 -22 -39 20 -60 84 -44 130 19 51 15 120 -7 140 -14
13 -24 14 -45 6 -38 -14 -66 -12 -66 4 0 19 22 24 89 23 51 -1 55 -3 68 -35z
m-138 -113 c-25 -48 -29 -81 -12 -116 18 -38 11 -55 -14 -31 -24 25 -29 109
-8 142 22 33 52 37 34 5z"/>
<path d="M6947 522 c-9 -10 -18 -33 -19 -52 -4 -42 20 -52 51 -21 28 28 39 26
51 -5 16 -41 13 -44 -46 -44 -48 0 -59 -4 -85 -29 -32 -33 -36 -64 -15 -114
20 -49 50 -71 83 -63 15 4 58 7 96 6 65 -1 78 5 57 26 -13 13 -14 72 -2 145
10 67 1 103 -34 140 -23 24 -36 29 -74 29 -32 0 -52 -6 -63 -18z m123 -38 c28
-27 31 -73 14 -194 -8 -55 -12 -65 -29 -65 -27 0 -32 44 -11 96 18 45 21 121
6 150 -15 27 -63 25 -84 -3 l-16 -23 3 30 c4 50 69 55 117 9z m-100 -111 c0
-3 -7 -15 -17 -25 -9 -11 -16 -36 -17 -63 -1 -52 -16 -54 -29 -5 -11 44 -1 79
26 90 28 11 37 12 37 3z m57 -9 c3 -9 -2 -31 -11 -50 -9 -19 -16 -46 -16 -59
0 -48 -30 -37 -43 15 -4 16 1 41 14 67 21 44 45 55 56 27z"/>
<path d="M2923 504 l-25 -25 25 -23 c22 -21 26 -34 32 -132 4 -60 13 -124 21
-142 13 -32 15 -33 66 -30 45 3 53 6 56 25 2 12 -5 27 -17 35 -29 21 -41 60
-41 141 0 80 -13 139 -34 156 -27 23 -57 21 -83 -5z m42 -13 c-3 -6 3 -15 14
-21 25 -13 35 -66 40 -213 1 -16 11 -36 26 -49 30 -26 32 -38 7 -38 -32 0 -62
37 -63 78 0 20 -2 44 -4 52 -1 8 -5 44 -8 79 -3 36 -13 71 -21 80 -20 22 -20
41 0 41 8 0 13 -4 9 -9z"/>
<path d="M3216 494 c-43 -43 -60 -98 -50 -162 17 -113 62 -182 119 -182 55 0
92 19 109 55 21 44 20 52 -9 71 -24 15 -27 15 -44 0 -53 -48 -103 34 -71 119
l10 27 31 -26 c17 -14 34 -26 39 -26 21 0 40 34 40 71 0 55 -36 89 -95 89 -36
0 -49 -6 -79 -36z m118 -35 c29 -13 41 -38 26 -53 -6 -6 -17 -3 -33 12 -13 12
-31 22 -40 22 -24 0 -47 -41 -53 -97 -6 -43 -3 -53 21 -81 29 -35 64 -42 85
-17 17 21 40 19 40 -3 0 -61 -88 -79 -137 -29 -27 26 -28 32 -28 128 0 88 2
102 19 115 24 17 66 18 100 3z"/>
<path d="M6258 499 c-21 -10 -45 -33 -53 -50 -19 -36 -23 -175 -6 -206 20 -39
73 -72 120 -74 37 -3 47 1 67 25 25 28 34 99 14 111 -5 3 -27 -10 -48 -30 -22
-19 -44 -35 -50 -35 -16 0 -32 34 -32 64 0 25 3 26 54 26 45 0 58 4 70 22 36
51 9 126 -54 152 -22 9 -41 16 -43 16 -1 -1 -19 -10 -39 -21z m76 -20 c25 -12
46 -54 46 -94 0 -20 -7 -23 -55 -28 -30 -3 -59 -8 -65 -12 -15 -10 -12 -78 6
-103 20 -29 39 -28 80 3 40 31 44 31 44 3 0 -32 -29 -58 -64 -58 -32 0 -86 37
-90 62 -1 7 -4 18 -8 23 -12 21 -19 76 -13 105 6 26 8 28 21 15 25 -25 107
-17 118 12 8 19 -38 63 -65 63 -12 0 -30 -6 -39 -12 -9 -7 -5 -3 8 10 26 25
40 27 76 11z m-25 -48 c12 -22 5 -31 -25 -31 -30 0 -38 15 -18 34 20 21 31 20
43 -3z"/>
<path d="M2486 489 c-67 -11 -101 -50 -115 -134 -21 -120 14 -175 120 -190 40
-6 49 -4 78 20 41 36 61 74 51 101 -15 38 -41 38 -76 -1 -18 -19 -40 -35 -48
-35 -18 0 -36 30 -36 59 0 22 14 25 86 21 39 -2 72 26 80 66 5 26 1 37 -23 62
-34 37 -53 42 -117 31z m94 -39 c24 -24 25 -48 4 -78 -15 -22 -54 -31 -54 -12
0 6 6 10 14 10 23 0 30 20 15 46 -24 46 -117 26 -107 -23 2 -10 13 -19 26 -21
29 -4 29 -22 -1 -22 -49 0 -62 -48 -26 -94 30 -38 70 -35 103 6 19 25 28 30
37 21 16 -16 2 -50 -27 -70 -31 -20 -83 -19 -124 2 -50 26 -62 131 -23 207 23
46 127 64 163 28z m-40 -45 c11 -13 7 -15 -29 -15 -38 0 -50 8 -34 23 12 12
50 7 63 -8z"/>
<path d="M1640 433 c-49 -25 -74 -95 -71 -196 2 -57 53 -107 111 -107 61 0
108 25 119 64 6 24 5 35 -9 49 -16 18 -19 17 -71 -2 -50 -20 -55 -20 -66 -4
-17 23 1 43 41 44 50 2 78 13 98 40 17 23 18 28 4 60 -19 46 -33 57 -81 64
-28 4 -50 1 -75 -12z m114 -38 c28 -26 34 -56 14 -72 -7 -6 -37 -13 -66 -17
-29 -4 -59 -9 -67 -12 -19 -8 -19 -54 -1 -79 14 -19 15 -19 69 -1 64 22 81 17
65 -19 -26 -58 -144 -41 -166 24 -12 35 0 143 17 149 6 2 11 10 11 17 0 14 41
33 76 34 12 1 33 -10 48 -24z"/>
<path d="M1663 376 c-36 -32 -22 -48 38 -44 49 3 65 29 32 53 -26 20 -38 18
-70 -9z m62 -16 c3 -5 -3 -10 -14 -10 -11 0 -23 5 -26 10 -3 6 3 10 14 10 11
0 23 -4 26 -10z"/>
<path d="M8438 284 c-11 -23 -10 -29 11 -45 13 -11 31 -19 41 -19 23 0 44 26
36 45 -7 19 -26 20 -26 0 0 -17 -26 -20 -36 -4 -3 6 -1 16 5 22 15 15 14 27
-4 27 -9 0 -21 -12 -27 -26z"/>
<path d="M4233 252 c-21 -13 -34 -61 -23 -83 11 -20 54 -26 65 -8 11 16 -5 99
-18 99 -7 0 -17 -4 -24 -8z m25 -47 c2 -25 -11 -34 -22 -16 -7 11 3 41 13 41
4 0 8 -11 9 -25z"/>
</g>
</svg>
