<?xml version="1.0" encoding="utf-8"?>
<svg xmlns="http://www.w3.org/2000/svg" height="282.0pt" version="1.1" width="1000.0pt" viewBox="0 0 1000 282">
	<path d="M 705.01 6.69 C 711.36 6.87 717.33 11.52 719.50 17.42 C 720.46 21.69 719.24 26.51 718.42 30.73 C 722.24 30.62 725.90 30.88 729.55 29.74 C 733.93 28.27 740.19 28.16 743.81 31.47 C 748.12 32.22 753.66 32.14 757.28 34.74 C 761.08 37.21 765.50 38.68 769.56 40.68 C 767.54 43.12 765.27 43.52 762.30 44.05 C 759.90 43.85 757.53 44.03 755.15 44.23 L 755.22 45.92 C 757.63 46.44 760.56 46.81 762.42 48.58 C 764.06 50.20 765.33 52.29 766.60 54.20 C 763.36 55.37 759.93 55.49 756.76 56.92 C 757.94 57.15 759.12 57.37 760.30 57.58 C 762.37 58.31 764.76 59.22 766.97 59.05 C 772.76 58.75 778.48 57.96 784.29 58.14 C 785.55 63.03 786.59 67.91 786.26 72.99 C 786.44 78.44 785.24 83.58 786.17 89.00 C 786.85 93.02 784.85 95.99 784.61 99.97 C 784.37 106.11 782.89 111.97 783.45 118.15 C 782.39 123.42 782.41 128.79 781.17 134.02 C 780.38 137.67 779.18 141.06 779.39 144.86 C 776.45 152.32 774.99 160.38 771.84 167.79 C 768.23 175.98 763.68 183.42 761.12 192.05 C 760.36 194.92 758.42 196.45 756.22 198.23 C 752.58 201.11 750.58 205.13 747.17 208.18 C 744.89 210.20 742.25 211.19 739.67 212.71 C 736.03 215.03 732.51 217.43 729.75 220.80 C 727.56 223.61 723.28 224.59 720.11 226.11 C 712.28 229.02 706.54 233.52 698.55 234.71 C 691.29 236.25 684.08 233.43 676.98 231.86 C 671.15 230.59 666.30 227.69 661.03 225.09 C 656.10 222.57 651.83 218.30 647.34 214.97 C 645.88 214.67 644.51 214.65 643.27 213.75 C 638.34 210.67 634.98 206.13 630.35 202.65 C 625.57 197.45 621.12 191.87 616.71 186.35 C 613.23 182.07 611.42 177.22 608.50 172.45 C 606.18 168.81 605.64 164.79 604.11 160.86 C 601.63 154.96 600.75 148.57 598.36 142.61 C 596.18 137.49 596.63 131.50 595.28 125.94 C 593.81 120.05 594.14 113.58 593.70 107.50 C 593.08 99.98 593.87 92.50 592.84 85.00 C 592.92 76.17 592.24 67.29 592.63 58.49 C 596.73 58.13 600.84 57.06 604.95 56.98 C 616.01 58.11 626.94 56.44 637.99 58.23 C 646.71 57.19 655.45 56.90 664.22 57.45 C 668.84 57.68 673.39 57.13 678.00 57.80 C 682.73 58.54 687.25 57.10 692.00 57.58 C 697.37 58.09 702.65 57.07 708.01 57.51 C 712.28 57.79 716.50 57.51 720.76 57.46 C 720.47 57.00 720.19 56.54 719.90 56.07 C 717.53 54.48 715.34 52.66 713.09 50.90 C 709.29 47.91 704.77 46.10 700.87 43.19 C 692.20 36.42 681.03 32.34 670.97 28.02 C 666.51 27.72 664.20 26.79 660.67 24.09 C 662.69 23.14 664.80 21.88 667.01 21.46 C 671.09 21.24 675.18 22.60 679.00 23.80 C 683.52 18.72 688.67 14.14 694.16 10.15 C 697.45 7.92 700.88 6.06 705.01 6.69 Z"/>
	<path d="M 711.04 10.99 C 712.55 12.51 713.96 14.13 715.46 15.66 C 714.32 16.21 713.17 16.75 712.01 17.29 C 711.68 15.18 711.31 13.10 711.04 10.99 Z" fill="#ffffff"/>
	<path d="M 703.15 14.93 C 702.35 17.89 701.46 18.41 698.79 19.98 L 700.90 15.91 C 699.31 17.01 697.74 18.13 696.10 19.15 C 697.19 17.57 698.13 15.70 699.90 14.77 C 700.94 14.55 702.11 14.84 703.15 14.93 Z" fill="#ffffff"/>
	<path d="M 689.73 16.55 C 692.76 18.95 695.11 19.99 698.89 20.79 C 699.84 21.61 700.81 22.41 701.77 23.21 C 703.98 25.11 706.00 26.46 708.92 27.01 C 711.92 27.51 714.41 29.51 715.92 32.07 C 716.04 34.85 715.33 37.74 714.88 40.47 C 712.70 39.10 711.06 37.73 709.64 35.57 C 706.87 34.18 704.12 33.02 701.03 32.60 C 697.02 32.09 693.86 29.99 690.05 28.90 C 687.20 28.13 684.86 26.54 682.39 25.00 L 682.39 28.59 C 681.82 26.96 681.27 25.32 680.67 23.70 C 683.41 20.92 686.22 18.33 689.73 16.55 Z" fill="#ffffff"/>
	<path d="M 715.94 18.06 C 718.16 18.33 718.33 21.33 716.95 22.64 C 715.69 21.46 715.37 19.66 715.94 18.06 Z" fill="#ffffff"/>
	<path d="M 730.06 30.76 C 733.36 30.05 736.83 30.41 740.20 30.57 C 741.09 31.46 741.98 32.40 742.97 33.16 C 746.47 34.01 750.32 33.87 753.79 34.97 C 755.45 35.86 756.96 37.08 758.48 38.18 C 761.46 39.06 764.03 40.17 766.34 42.30 C 759.23 42.85 752.10 43.41 744.97 43.74 C 743.29 43.86 741.56 42.63 740.05 41.96 C 735.35 41.32 732.91 38.19 730.03 34.84 C 726.50 33.99 722.93 33.42 719.35 32.83 C 722.15 32.21 724.98 31.84 727.81 31.42 C 728.56 31.20 729.31 30.98 730.06 30.76 Z" fill="#ffffff"/>
	<path d="M 699.38 33.08 C 701.59 33.55 703.79 34.06 705.98 34.57 C 705.80 35.49 705.61 36.42 705.42 37.34 C 704.41 36.80 703.41 36.24 702.43 35.65 C 701.39 34.82 700.38 33.96 699.38 33.08 Z" fill="#ffffff"/>
	<path d="M 728.12 35.44 C 730.99 36.93 732.91 40.49 735.94 41.68 C 738.42 42.73 740.76 43.88 742.92 45.52 C 745.18 45.31 747.43 45.03 749.68 44.77 C 753.69 46.87 758.07 47.96 762.13 49.95 C 762.62 51.30 763.13 52.64 763.63 53.99 C 759.77 54.61 755.94 56.11 752.04 56.34 C 746.43 55.28 741.28 51.38 736.14 48.84 C 732.15 46.82 730.45 42.62 726.50 40.72 C 723.73 39.44 721.33 37.60 718.66 36.15 C 718.61 38.85 721.72 39.98 723.58 41.34 C 728.19 43.82 730.53 48.40 735.06 50.95 C 737.33 52.16 739.83 52.90 742.09 54.15 C 743.62 55.14 745.14 56.12 746.62 57.18 C 741.69 57.85 736.96 56.30 732.04 56.89 C 728.90 57.22 725.75 57.24 722.59 57.34 C 722.03 54.35 721.37 51.42 720.58 48.48 C 719.86 47.94 719.14 47.39 718.42 46.84 C 717.84 45.27 717.20 43.71 716.75 42.09 C 717.00 39.49 717.72 36.91 718.51 34.42 C 721.64 34.21 725.17 34.26 728.12 35.44 Z" fill="#ffffff"/>
	<path d="M 706.32 34.87 C 709.15 36.81 711.38 39.28 713.63 41.85 C 711.28 40.72 708.95 39.93 706.94 38.25 C 706.72 37.13 706.51 36.00 706.32 34.87 Z" fill="#ffffff"/>
	<path d="M 233.80 58.58 C 247.59 59.60 261.26 57.65 275.01 58.69 C 279.68 58.86 284.32 58.36 288.99 58.60 C 294.03 58.53 298.97 59.45 304.00 59.42 C 305.56 58.77 307.16 58.22 308.77 57.69 C 308.70 59.12 308.63 60.55 308.57 61.97 C 308.99 60.69 309.39 59.41 309.76 58.12 C 317.68 58.72 325.57 58.09 333.48 58.96 C 338.98 59.62 344.48 59.56 350.02 59.42 C 361.26 59.34 372.68 60.13 383.89 59.36 C 391.43 58.37 398.72 57.56 406.18 59.53 C 406.76 63.18 407.48 66.92 407.37 70.62 C 406.96 78.15 407.85 85.57 406.78 93.08 C 406.98 98.23 406.53 102.91 405.82 107.99 C 405.79 113.75 404.25 119.24 403.87 124.96 C 402.42 136.44 400.03 147.84 396.78 158.94 C 395.28 163.89 394.84 168.56 392.15 173.08 C 390.38 176.00 389.68 179.29 388.23 182.33 C 386.68 184.73 384.49 186.63 383.04 189.13 C 380.69 193.47 376.22 196.80 372.48 199.94 C 372.01 200.61 371.54 201.27 371.07 201.93 C 367.44 204.29 364.20 207.03 360.68 209.57 C 354.06 214.17 347.27 218.47 340.04 222.06 C 334.88 225.26 329.38 227.59 323.74 229.74 C 320.21 230.02 316.30 228.76 312.82 228.06 C 304.42 225.27 295.94 222.82 287.48 220.24 C 280.98 217.08 273.68 213.58 268.75 208.22 C 265.23 205.60 261.61 203.62 258.46 200.54 C 254.05 196.34 250.94 191.63 247.19 186.82 C 244.95 183.93 243.16 180.79 241.33 177.64 C 237.09 171.10 233.36 163.73 231.76 156.06 C 230.73 151.70 229.24 147.64 228.47 143.20 C 227.55 138.17 227.51 133.08 226.64 128.05 C 224.51 116.59 226.05 104.55 224.79 92.99 C 224.68 88.99 225.16 85.01 224.89 81.01 C 224.62 76.37 225.06 72.23 223.83 67.86 C 223.17 66.23 224.67 65.28 225.45 64.03 C 225.47 62.89 225.49 61.74 225.50 60.60 C 228.26 59.35 230.65 58.14 233.80 58.58 Z"/>
	<path d="M 278.44 62.78 L 278.68 62.85 L 279.10 62.97 C 281.87 63.92 285.17 63.34 288.09 63.19 C 299.74 61.66 310.91 64.33 322.67 63.73 C 322.84 62.99 323.01 62.25 323.18 61.51 L 323.35 63.86 C 328.58 63.61 333.76 64.06 338.98 64.25 C 343.38 64.43 347.65 63.65 352.02 63.42 C 360.27 63.14 368.72 63.56 377.00 63.03 C 385.69 62.31 394.52 62.93 403.16 63.99 C 402.38 70.65 402.92 77.26 402.64 83.93 C 402.03 91.44 402.11 98.94 401.24 106.44 C 401.99 106.93 402.75 107.42 403.49 107.91 L 401.17 107.11 C 400.74 116.71 399.00 126.04 397.36 135.48 C 394.85 145.96 393.25 157.14 389.07 167.09 C 386.05 173.08 385.13 180.59 380.19 185.17 C 376.03 189.13 373.09 194.04 368.88 197.93 C 363.12 203.06 356.64 207.03 350.60 211.78 C 345.59 215.64 339.30 218.14 333.53 220.73 C 333.11 221.12 332.69 221.51 332.27 221.89 C 328.50 223.45 325.82 226.07 321.47 224.67 C 314.76 223.78 308.89 220.68 302.22 219.65 C 295.56 217.30 288.78 215.94 282.74 212.45 C 276.11 209.11 271.67 204.06 265.38 199.63 C 261.58 196.95 258.81 193.62 255.60 190.31 C 251.47 185.79 249.05 180.45 245.35 175.64 C 240.22 167.07 237.17 157.74 235.08 148.02 C 234.56 142.56 232.68 137.45 232.15 131.99 C 231.36 125.47 229.18 118.17 230.39 111.64 C 229.89 103.05 230.57 94.56 230.71 86.00 C 229.85 78.97 229.76 72.06 229.70 64.98 C 230.06 64.00 230.42 63.02 230.78 62.04 C 243.57 63.63 256.23 61.63 269.02 63.24 C 272.22 63.67 275.28 63.21 278.44 62.78 Z" fill="#ffffff"/>
	<path d="M 615.98 61.25 C 618.65 61.09 621.21 61.45 623.80 62.04 C 626.35 61.61 628.55 61.55 631.11 61.88 C 638.13 61.75 645.09 61.34 652.09 62.15 C 658.57 62.26 665.05 61.76 671.54 61.93 L 671.49 62.87 C 675.71 62.33 679.66 61.29 683.95 61.78 C 689.08 62.36 694.09 62.00 699.23 61.74 C 709.81 61.53 720.44 61.72 731.01 62.23 C 735.24 62.45 738.75 60.26 742.99 61.11 C 755.25 61.66 767.52 62.54 779.79 62.74 C 780.26 64.72 780.64 66.72 781.00 68.72 C 781.98 68.75 782.95 68.78 783.93 68.80 C 783.14 68.98 782.36 69.15 781.57 69.33 C 782.36 77.58 781.39 85.63 781.30 93.86 C 780.88 97.99 779.22 101.75 779.42 106.01 C 779.18 107.75 779.95 111.13 778.17 112.16 C 774.36 112.77 770.83 111.60 766.97 112.09 C 763.64 112.45 760.33 112.70 756.98 112.85 C 751.85 113.13 746.02 114.13 741.01 112.90 C 737.97 112.20 735.13 112.41 731.98 112.26 C 727.99 112.18 723.95 111.37 720.00 111.49 C 712.32 111.68 704.65 112.55 696.97 112.74 C 695.33 112.87 694.52 112.02 693.29 111.11 C 694.33 110.93 695.37 110.75 696.41 110.57 C 696.33 107.43 696.02 104.45 695.38 101.38 C 696.12 101.36 696.85 101.34 697.58 101.32 C 697.82 104.41 698.15 107.50 698.48 110.58 C 699.59 110.63 700.70 110.68 701.80 110.73 C 701.54 107.73 701.35 104.74 701.25 101.73 C 707.83 100.62 712.21 98.47 717.30 94.22 C 720.40 90.01 724.60 86.56 727.24 82.05 C 723.96 82.71 721.07 84.21 717.96 85.33 C 715.29 86.35 712.28 85.53 709.52 85.28 C 709.11 84.26 708.63 83.22 708.37 82.15 C 709.01 78.96 710.38 75.94 711.08 72.74 C 708.41 73.68 705.85 74.87 703.28 76.04 C 703.41 77.14 703.55 78.23 703.69 79.33 C 703.24 78.42 702.80 77.51 702.36 76.60 C 701.31 77.12 700.25 77.65 699.20 78.17 C 696.65 75.90 693.92 73.89 691.07 72.02 C 689.93 70.42 688.70 68.98 687.33 67.57 C 686.41 68.54 685.52 69.53 684.59 70.47 C 684.95 69.57 685.37 68.69 685.77 67.80 C 683.10 67.55 680.44 67.29 677.76 67.24 C 674.07 70.37 672.78 72.35 671.57 77.07 C 666.80 78.96 661.66 80.99 657.54 84.10 L 657.76 85.80 C 664.66 85.64 671.71 84.04 678.24 81.84 C 678.99 85.46 679.77 89.37 681.34 92.74 C 682.60 95.10 684.58 97.12 686.21 99.23 C 687.94 99.63 689.66 100.05 691.38 100.48 C 691.92 103.72 692.44 106.96 692.97 110.21 C 691.22 110.27 689.48 110.34 687.74 110.40 L 687.91 113.26 C 681.50 113.37 675.36 112.25 668.96 113.26 C 660.84 113.63 652.62 113.69 644.54 112.66 C 629.52 112.52 614.42 112.03 599.41 112.86 C 598.63 106.59 598.91 100.37 598.69 94.09 C 598.64 89.80 597.36 85.66 597.38 81.39 C 597.23 74.61 598.70 68.19 597.23 61.44 C 603.41 60.74 609.75 61.59 615.98 61.25 Z" fill="#ffffff"/>
	<path d="M 681.46 70.11 C 681.96 72.35 681.64 73.80 680.82 75.88 C 679.42 75.36 678.03 74.87 676.70 74.19 C 677.97 72.35 679.51 71.19 681.46 70.11 Z" fill="#ffffff"/>
	<path d="M 373.10 71.82 C 377.81 77.11 380.73 83.53 384.99 89.19 C 384.58 90.69 382.64 91.56 381.52 92.53 C 378.51 94.55 376.73 97.58 373.92 99.83 C 370.39 102.58 367.67 106.31 364.60 109.58 C 360.39 115.16 355.04 119.26 350.24 124.27 C 346.54 127.93 343.11 131.78 339.82 135.82 C 335.87 140.89 330.53 144.46 326.55 149.53 C 323.69 153.35 319.76 156.05 316.57 159.61 C 313.04 163.50 308.44 165.99 304.86 169.82 C 300.88 174.07 295.39 175.30 292.06 180.19 C 291.51 180.49 290.97 180.78 290.42 181.07 C 288.73 182.52 286.90 183.81 285.16 185.20 C 283.07 186.88 282.05 189.38 280.36 191.41 C 278.87 191.71 277.31 191.70 275.79 191.80 C 272.83 183.77 265.59 178.38 260.15 172.26 C 264.28 167.46 269.94 164.13 274.82 159.81 C 279.22 155.85 283.97 152.31 288.39 148.37 C 294.51 143.52 299.92 137.93 306.02 133.05 C 311.92 127.20 318.79 122.57 324.49 116.51 C 330.63 111.20 336.03 105.35 342.57 100.58 C 344.15 99.43 345.49 98.09 346.74 96.60 C 349.86 92.86 353.67 90.56 357.22 87.19 C 362.61 82.16 367.73 76.86 373.10 71.82 Z"/>
	<path d="M 684.28 77.34 C 684.67 78.61 682.57 80.50 682.28 78.48 C 682.61 77.61 683.28 77.23 684.28 77.34 Z" fill="#ffffff"/>
	<path d="M 273.91 78.66 C 274.05 79.93 274.18 81.21 274.30 82.49 C 276.09 82.71 277.87 82.98 279.65 83.30 C 279.70 84.45 279.75 85.59 279.78 86.73 C 279.14 86.71 278.49 86.68 277.84 86.65 C 276.17 85.67 274.40 85.05 272.56 84.47 C 272.17 83.25 271.86 81.95 271.30 80.80 C 270.14 80.44 268.96 80.20 267.78 79.95 C 267.43 81.49 267.07 83.03 266.72 84.57 C 264.97 84.86 263.22 85.16 261.47 85.48 C 261.52 86.77 261.56 88.05 261.62 89.33 C 262.97 89.37 264.33 89.40 265.69 89.43 C 265.63 92.11 265.55 94.80 265.50 97.49 C 262.48 98.40 259.63 99.46 256.43 99.48 C 256.15 98.01 255.87 96.54 255.59 95.07 C 254.18 95.16 252.77 95.26 251.36 95.36 C 251.43 96.96 251.50 98.56 251.58 100.17 C 250.44 99.87 249.31 99.57 248.17 99.27 C 247.15 99.87 246.13 100.47 245.11 101.06 C 245.10 102.97 245.12 104.88 245.16 106.78 C 246.97 106.74 248.77 106.67 250.58 106.61 C 250.77 109.47 251.25 112.13 252.04 114.88 C 253.44 113.22 254.42 111.31 255.58 109.49 C 257.33 109.22 259.15 109.34 260.91 109.27 C 261.65 109.83 262.40 110.39 263.14 110.95 C 261.27 111.53 259.39 112.10 257.52 112.67 C 257.14 113.71 256.77 114.75 256.39 115.78 C 253.81 116.02 251.60 116.86 249.15 115.68 C 248.55 113.73 248.68 111.45 248.66 109.41 C 246.25 108.95 243.96 109.83 243.11 106.91 C 241.53 103.31 243.11 101.12 244.92 98.16 C 246.07 98.24 247.21 98.31 248.35 98.39 C 248.79 96.78 249.19 95.12 249.78 93.57 C 252.27 93.20 254.84 93.23 257.36 93.11 C 257.80 94.42 258.24 95.74 258.69 97.05 C 260.40 96.39 262.09 95.72 263.78 95.02 C 263.72 94.30 263.66 93.57 263.60 92.85 C 262.21 92.39 260.82 91.91 259.43 91.44 C 259.37 88.86 259.14 86.16 259.55 83.61 C 261.32 82.68 263.69 82.87 265.65 82.68 C 265.93 81.19 266.22 79.70 266.56 78.23 C 269.02 78.22 271.45 78.46 273.91 78.66 Z"/>
	<path d="M 372.87 77.44 C 373.86 78.72 374.87 79.98 375.90 81.23 C 376.92 83.57 378.01 85.85 379.22 88.10 C 376.71 90.98 374.13 93.79 371.81 96.83 C 369.09 100.50 365.29 102.93 362.54 106.56 C 356.81 113.88 349.68 119.55 343.58 126.57 C 340.33 130.34 336.46 133.43 333.05 137.03 C 329.29 141.31 325.51 145.48 321.21 149.23 C 312.80 157.79 303.95 166.24 294.15 173.19 C 289.15 177.15 284.29 181.48 278.95 184.96 C 276.81 184.20 275.52 182.56 273.96 180.99 C 271.42 178.19 269.06 175.48 267.67 171.90 C 271.51 168.64 274.77 164.82 278.76 161.74 C 286.33 155.66 293.38 149.00 300.90 142.87 C 305.26 139.58 308.37 135.08 312.67 131.68 C 318.86 126.99 324.56 121.52 329.89 115.87 C 334.70 110.89 340.76 107.57 345.46 102.46 C 350.41 97.26 356.37 93.15 361.25 87.92 C 364.81 85.26 367.81 82.09 371.02 79.05 C 371.63 78.51 372.25 77.97 372.87 77.44 Z" fill="#ffffff"/>
	<path d="M 703.25 86.24 L 703.76 86.25 L 703.75 86.76 L 703.24 86.75 L 703.25 86.24 Z" fill="#ffffff"/>
	<path d="M 279.13 87.73 L 279.80 89.90 C 277.97 90.86 275.98 91.35 274.01 91.96 C 274.33 93.49 274.70 95.00 275.12 96.51 C 277.11 96.48 279.09 96.46 281.08 96.43 C 281.42 94.68 280.99 91.86 282.41 90.55 C 284.23 90.28 286.27 90.27 288.03 90.88 C 288.76 92.58 289.25 94.45 289.76 96.24 C 291.35 96.23 292.94 96.22 294.53 96.23 C 294.66 97.39 294.79 98.55 294.91 99.70 C 294.59 100.36 294.27 101.02 293.95 101.67 C 293.88 103.47 293.79 105.27 293.66 107.07 C 292.22 107.87 289.46 108.15 289.11 110.01 C 288.57 111.85 288.87 113.97 288.81 115.87 C 286.46 115.65 284.05 115.60 281.75 115.12 C 281.10 113.29 280.78 111.34 280.34 109.45 C 278.37 109.40 276.41 109.36 274.44 109.35 C 274.15 111.62 273.90 113.89 273.68 116.16 C 275.61 116.39 277.55 116.62 279.49 116.84 C 280.24 119.35 281.08 121.64 280.39 124.30 C 278.88 125.31 277.04 125.95 275.37 126.66 C 274.95 128.64 274.54 130.62 274.07 132.59 C 273.07 132.74 272.07 132.90 271.07 133.06 C 268.97 132.77 266.85 132.62 264.77 132.25 C 263.92 130.50 264.25 128.32 264.18 126.40 C 262.97 126.01 261.76 125.64 260.56 125.26 C 260.47 122.64 259.12 118.91 260.55 116.55 C 262.09 116.22 263.70 116.12 265.26 115.93 C 264.77 113.99 264.21 112.11 263.34 110.29 C 263.24 109.71 263.15 109.13 263.05 108.55 L 266.19 108.90 C 267.06 111.56 267.44 114.40 268.05 117.13 C 266.34 117.74 264.58 118.26 262.93 119.00 C 262.76 120.37 262.63 121.75 262.56 123.13 C 263.53 123.29 264.50 123.45 265.48 123.61 C 266.06 125.76 266.66 127.90 267.28 130.04 C 268.60 130.26 269.92 130.48 271.25 130.69 C 271.86 128.64 272.09 126.09 273.33 124.33 C 274.58 123.53 276.28 123.46 277.71 123.11 C 277.59 121.85 277.48 120.58 277.36 119.32 C 275.37 119.30 273.38 119.31 271.38 119.32 C 271.36 115.96 270.25 110.40 272.77 107.77 C 275.47 106.95 278.89 107.06 281.69 107.44 C 283.36 108.67 283.66 111.71 284.54 113.50 C 285.72 111.49 285.89 109.74 285.88 107.42 C 287.51 105.98 289.18 105.89 291.24 105.60 C 291.24 103.48 291.26 101.36 291.29 99.24 C 289.85 99.22 288.41 99.19 286.97 99.16 C 286.50 96.40 285.97 94.31 284.07 92.18 C 283.49 93.94 283.80 97.82 281.82 98.76 C 278.51 99.33 275.10 99.33 271.77 99.88 C 270.22 96.37 270.39 94.07 271.27 90.41 C 272.81 89.94 274.36 89.47 275.87 88.91 C 276.94 88.46 278.02 88.07 279.13 87.73 Z"/>
	<path d="M 688.39 106.57 C 689.60 105.61 692.50 107.12 691.15 108.64 C 690.35 109.04 689.51 108.98 688.64 108.46 C 687.98 107.81 687.89 107.19 688.39 106.57 Z"/>
	<path d="M 689.61 112.18 C 690.64 110.81 692.73 112.33 691.03 113.39 C 689.93 113.50 689.46 113.10 689.61 112.18 Z" fill="#ffffff"/>
	<path d="M 631.98 115.86 C 644.70 115.06 657.11 117.28 669.84 116.46 C 686.97 114.91 704.88 116.57 722.01 114.61 C 727.94 114.72 733.86 115.37 739.79 115.59 C 745.95 116.94 751.81 116.02 757.99 115.60 C 764.97 115.46 771.58 115.03 778.46 116.49 C 778.07 121.35 777.43 126.17 776.75 130.99 C 776.20 135.64 775.63 140.16 773.69 144.48 C 769.66 144.27 765.97 144.46 761.99 145.08 C 756.96 145.29 751.95 145.58 746.93 146.00 C 740.01 146.36 733.03 145.04 726.13 145.44 C 722.72 147.56 719.69 146.19 716.00 145.94 C 712.35 146.64 708.66 147.02 704.95 146.73 C 693.97 145.86 682.65 146.69 671.64 147.26 C 664.28 147.42 657.24 147.15 649.93 147.93 C 647.72 148.17 645.49 148.25 643.26 148.07 C 634.44 147.18 625.78 148.15 616.84 147.48 C 613.19 147.20 609.57 148.22 605.86 148.49 C 604.96 145.43 603.86 142.45 602.85 139.43 C 601.00 131.56 600.49 123.83 599.60 115.84 C 610.43 114.94 621.15 115.93 631.98 115.86 Z" fill="#ffffff"/>
	<path d="M 362.50 137.17 C 362.50 138.28 362.50 139.38 362.50 140.49 C 363.78 141.05 366.78 141.06 367.53 142.31 C 367.81 144.82 367.49 147.42 367.43 149.94 C 365.63 150.60 363.86 151.30 362.09 152.04 C 362.31 153.49 362.54 154.94 362.78 156.38 C 363.92 156.44 365.07 156.49 366.22 156.55 C 366.87 155.48 367.48 154.35 368.26 153.37 C 371.28 152.91 374.48 153.23 377.52 153.42 C 377.43 155.00 377.34 156.58 377.25 158.16 C 378.15 158.14 379.06 158.13 379.96 158.11 C 380.36 158.68 380.77 159.25 381.17 159.81 C 381.11 162.31 381.04 164.82 380.94 167.32 C 379.61 167.51 378.27 167.71 376.94 167.91 C 376.41 169.39 375.86 170.86 375.31 172.34 C 372.64 173.02 370.17 173.35 367.41 173.37 C 367.05 171.91 366.69 170.45 366.32 168.99 C 363.66 170.47 363.41 171.62 362.79 174.49 C 364.19 174.59 365.58 174.69 366.98 174.78 C 367.60 175.27 368.22 175.75 368.84 176.24 C 368.76 178.39 368.64 180.54 368.49 182.69 C 366.38 182.66 364.27 182.59 362.17 182.50 C 362.14 184.37 362.14 186.23 362.15 188.10 C 360.80 188.64 359.47 189.19 358.13 189.73 C 355.63 189.31 353.12 189.23 350.60 189.22 C 350.68 187.28 350.77 185.34 350.88 183.40 C 349.06 183.04 347.24 182.66 345.43 182.27 C 345.54 180.47 345.59 178.63 345.88 176.85 C 346.27 174.80 349.57 175.03 351.13 174.39 C 351.21 173.10 351.28 171.82 351.34 170.53 C 349.43 170.39 347.53 170.32 345.61 170.30 C 345.33 171.56 345.06 172.83 344.79 174.09 C 341.93 174.86 339.47 175.91 336.43 175.61 C 335.60 173.72 335.92 171.32 335.81 169.28 C 333.99 169.52 332.21 169.79 330.38 169.80 C 330.17 166.11 330.35 162.42 331.48 158.87 C 333.18 158.79 334.88 158.70 336.57 158.59 C 336.50 157.16 336.43 155.73 336.37 154.31 C 339.05 154.19 341.79 153.84 344.47 154.06 C 344.63 155.46 344.75 156.86 344.84 158.27 C 347.16 158.01 349.49 157.78 351.83 157.59 C 352.04 155.94 352.25 154.29 352.46 152.63 C 351.12 152.26 349.78 151.89 348.44 151.51 C 347.59 148.00 347.04 145.18 348.41 141.69 C 349.35 141.69 350.29 141.69 351.22 141.69 C 351.98 140.38 352.71 138.82 353.80 137.75 C 356.43 136.64 359.72 136.71 362.50 137.17 Z"/>
	<path d="M 354.89 139.68 C 356.05 139.59 357.21 139.52 358.37 139.45 C 358.97 140.63 359.52 141.84 360.08 143.04 C 361.94 143.75 363.69 144.56 365.41 145.55 C 365.03 146.58 364.65 147.61 364.28 148.64 C 363.33 148.63 362.39 148.62 361.45 148.60 C 359.72 151.87 360.10 155.14 360.06 158.70 C 363.16 158.85 366.25 159.18 369.34 159.46 C 369.42 158.26 369.50 157.06 369.58 155.86 C 371.09 155.68 372.60 155.51 374.10 155.36 C 373.94 156.70 373.78 158.04 373.62 159.39 C 375.09 159.85 376.56 160.30 378.04 160.74 C 377.73 162.08 377.73 163.78 376.99 164.94 C 375.99 165.35 374.98 165.73 373.95 166.08 C 373.65 167.53 373.37 168.98 373.09 170.44 C 372.05 170.55 371.01 170.66 369.97 170.77 C 369.87 169.26 369.70 167.76 369.48 166.27 C 366.88 165.42 363.37 166.67 360.68 166.92 C 359.67 169.86 359.53 173.18 359.57 176.26 C 361.65 176.90 363.87 177.19 366.02 177.59 C 365.78 178.50 365.55 179.41 365.31 180.32 C 363.26 180.24 361.21 180.17 359.16 180.15 C 359.15 182.48 359.16 184.80 359.15 187.12 C 357.64 186.91 356.11 186.76 354.63 186.43 C 354.08 184.88 353.80 183.24 353.23 181.71 C 352.39 180.60 350.50 180.34 349.28 179.78 C 349.08 179.21 348.88 178.64 348.69 178.07 C 350.53 177.18 352.63 176.42 354.21 175.10 C 354.34 173.22 354.49 170.98 353.73 169.20 C 350.80 167.79 347.21 167.40 343.99 167.28 C 342.79 169.79 342.75 172.76 339.72 173.69 C 338.72 171.59 338.24 169.31 337.68 167.05 C 336.28 167.19 334.88 167.33 333.48 167.46 C 333.53 165.67 333.59 163.88 333.64 162.08 C 334.46 161.53 335.28 160.97 336.10 160.41 C 336.90 160.54 337.70 160.66 338.50 160.78 C 338.60 159.44 338.70 158.09 338.80 156.74 C 340.11 156.41 341.43 156.07 342.74 155.74 C 342.57 157.41 342.41 159.08 342.26 160.76 C 346.29 160.81 350.39 160.59 354.41 160.21 C 355.08 156.73 354.76 152.98 354.87 149.44 C 353.38 149.32 351.89 149.24 350.39 149.20 C 350.72 147.52 350.92 145.73 351.51 144.11 C 352.49 143.89 353.48 143.68 354.47 143.49 C 354.61 142.22 354.75 140.95 354.89 139.68 Z" fill="#ffffff"/>
	<path d="M 773.59 148.82 C 771.73 153.98 771.86 159.31 769.17 164.12 C 767.04 168.27 766.91 172.52 764.26 176.26 C 761.39 180.25 759.68 184.87 756.87 188.89 C 753.52 193.92 748.84 198.22 744.75 202.75 C 740.45 206.80 735.76 210.49 731.18 214.24 C 726.01 218.50 720.34 220.41 714.59 223.71 C 709.27 226.52 703.77 229.86 697.99 231.57 C 691.07 231.89 684.47 228.69 677.85 227.18 C 677.54 228.00 677.25 228.85 676.88 229.65 C 676.81 228.75 676.75 227.85 676.68 226.95 C 667.51 223.57 659.08 218.61 651.30 212.74 C 647.89 210.31 644.49 208.42 642.27 204.71 C 634.20 200.68 629.22 194.05 622.73 188.09 C 618.79 181.74 614.79 176.01 612.80 168.66 C 609.95 163.35 608.25 157.76 607.23 151.84 C 613.51 152.79 619.67 151.40 626.01 151.79 C 636.42 151.42 646.33 153.14 656.57 151.84 C 661.04 151.44 665.53 151.57 669.99 150.89 C 685.78 149.84 701.17 152.59 717.01 150.90 C 724.04 150.59 731.02 149.84 738.04 149.50 C 749.89 149.84 761.76 148.85 773.59 148.82 Z" fill="#ffffff"/>
	<path d="M 730.25 162.79 C 731.55 164.70 731.71 167.36 732.64 169.48 C 733.76 171.08 735.58 172.25 737.06 173.49 C 739.65 171.77 742.25 170.06 744.86 168.38 C 744.78 170.42 744.64 172.46 744.51 174.50 C 750.07 174.02 754.20 171.27 759.82 172.62 C 754.49 180.68 751.73 188.93 742.97 194.29 C 741.27 194.47 739.50 194.28 737.79 194.22 C 737.74 197.61 737.58 200.99 737.56 204.37 C 733.57 205.36 729.58 206.37 725.62 207.47 C 725.34 206.83 725.06 206.20 724.78 205.57 C 726.76 205.10 728.73 204.64 730.71 204.17 C 730.32 201.10 729.73 198.06 729.23 195.01 C 725.97 193.15 722.94 191.31 720.92 188.04 C 717.58 183.53 717.49 178.77 716.48 173.46 C 711.88 175.19 707.34 176.50 702.48 177.29 C 704.62 173.50 708.05 171.72 711.39 169.19 C 714.88 166.60 717.28 161.77 721.43 160.26 C 724.62 158.95 728.08 160.31 730.25 162.79 Z"/>
	<path d="M 666.85 164.27 C 669.90 165.60 669.86 168.36 670.43 171.20 C 672.17 172.42 673.91 173.71 675.92 174.46 C 679.18 174.99 682.51 171.89 685.30 170.49 C 684.37 172.90 683.31 175.25 682.33 177.63 C 685.16 178.17 687.59 177.98 690.43 177.45 C 690.53 178.65 690.64 179.84 690.76 181.04 C 691.12 179.63 691.45 178.22 691.78 176.80 C 694.69 175.75 697.53 174.62 700.61 174.16 C 698.01 179.93 694.73 185.85 690.25 190.37 C 686.87 194.28 684.91 195.30 679.63 195.57 C 678.99 199.84 679.20 204.07 679.00 208.35 C 675.64 208.25 673.33 209.36 670.92 206.40 C 668.98 206.99 667.03 207.56 665.08 208.12 C 665.23 207.20 665.38 206.29 665.53 205.37 C 667.44 205.39 669.36 205.44 671.27 205.53 C 671.35 202.65 671.60 199.61 671.26 196.76 C 668.69 195.45 664.62 194.69 663.02 192.07 C 660.73 188.46 658.99 184.47 657.10 180.65 C 658.29 180.37 659.49 180.09 660.68 179.80 C 659.52 179.75 658.37 179.72 657.22 179.66 C 656.07 179.09 654.60 177.88 653.26 178.18 C 646.93 179.21 641.06 182.02 634.56 182.66 C 636.86 178.11 643.00 176.88 646.91 174.03 C 648.12 171.43 648.40 168.65 650.48 166.48 C 654.96 162.29 661.41 161.20 666.85 164.27 Z"/>
	<path d="M 720.37 164.83 C 721.75 164.81 723.12 164.86 724.50 164.92 C 723.36 165.32 722.24 165.75 721.12 166.18 C 722.22 166.80 723.34 167.37 724.48 167.91 C 724.39 169.00 724.30 170.09 724.20 171.18 C 723.12 170.52 721.96 169.88 720.98 169.08 C 720.48 167.76 720.43 166.23 720.37 164.83 Z" fill="#ffffff"/>
	<path d="M 658.39 167.84 C 658.81 169.24 659.22 170.64 659.62 172.04 C 658.64 172.60 657.65 173.16 656.66 173.72 C 655.81 172.50 654.99 171.28 654.26 169.98 C 655.62 169.23 657.01 168.53 658.39 167.84 Z" fill="#ffffff"/>
	<path d="M 722.84 186.91 C 724.64 188.16 726.16 189.55 727.56 191.25 C 725.05 190.19 724.02 189.36 722.84 186.91 Z" fill="#ffffff"/>
	<path d="M 680.38 189.48 C 678.53 191.97 676.29 192.73 673.40 193.58 C 675.78 191.93 677.55 190.01 680.38 189.48 Z" fill="#ffffff"/>
	<path d="M 732.45 194.41 C 733.09 194.16 733.74 193.92 734.40 193.70 C 734.45 197.34 735.16 200.78 733.89 204.13 C 733.57 200.84 733.14 197.65 732.45 194.41 Z" fill="#ffffff"/>
	<path d="M 676.30 195.23 C 676.31 199.25 676.11 203.17 675.38 207.13 C 674.14 204.18 674.56 200.51 674.45 197.35 C 675.06 196.64 675.67 195.93 676.30 195.23 Z" fill="#ffffff"/>
	<path d="M 725.21 201.58 C 726.39 201.71 727.56 202.39 728.63 202.84 C 726.64 203.10 724.69 203.21 722.69 203.13 C 723.50 202.57 724.35 202.05 725.21 201.58 Z"/>
	<path d="M 355.21 228.05 C 355.68 228.36 356.15 228.68 356.60 229.01 C 356.72 231.35 356.77 233.69 356.87 236.04 C 358.28 235.80 359.69 235.56 361.09 235.30 C 362.13 236.47 363.35 237.65 364.08 239.03 C 364.62 240.83 364.17 242.94 364.10 244.80 C 362.45 245.55 360.77 246.47 359.01 246.93 C 356.64 246.51 355.12 244.93 354.72 242.56 C 354.16 238.35 353.90 234.09 353.46 229.87 C 354.03 229.25 354.62 228.64 355.21 228.05 Z"/>
	<path d="M 375.81 227.29 C 377.28 228.86 378.67 230.50 380.01 232.19 C 381.08 232.37 382.14 232.55 383.20 232.73 C 383.29 233.30 383.39 233.88 383.49 234.46 C 382.35 234.62 381.21 234.79 380.07 234.95 C 380.14 237.56 380.25 240.16 380.37 242.76 C 381.48 243.39 382.58 244.02 383.68 244.67 C 381.64 245.99 379.88 245.70 377.59 245.47 C 377.31 242.34 378.01 238.85 377.30 235.83 C 376.05 234.78 374.62 233.94 373.28 233.01 C 374.10 232.54 374.93 232.07 375.76 231.60 C 375.76 230.16 375.78 228.73 375.81 227.29 Z"/>
	<path d="M 755.37 232.91 C 757.04 234.06 757.88 235.72 758.92 237.40 C 760.57 237.35 762.23 237.32 763.88 237.31 C 762.16 238.59 760.35 239.73 758.52 240.86 C 758.23 244.22 757.91 247.21 759.43 250.35 C 760.83 250.56 762.23 250.79 763.62 251.03 C 761.67 252.85 759.52 252.57 757.04 252.78 C 754.80 248.38 755.74 244.57 756.44 239.95 C 755.21 239.74 753.97 239.53 752.74 239.32 C 753.67 238.51 754.60 237.70 755.53 236.90 C 755.44 235.57 755.36 234.24 755.37 232.91 Z"/>
	<path d="M 212.43 234.68 C 214.98 234.62 217.59 235.13 220.16 235.20 C 222.30 235.07 224.44 234.28 226.50 233.69 C 227.16 234.52 227.83 235.35 228.49 236.18 C 226.54 236.44 224.58 236.69 222.62 236.92 C 222.78 239.24 223.29 241.63 223.12 243.96 C 222.64 245.88 221.86 247.75 221.17 249.61 C 220.33 248.78 219.48 247.98 218.73 247.06 C 218.58 243.93 218.73 240.78 218.64 237.64 C 216.18 237.43 213.98 237.46 211.96 235.82 L 212.43 234.68 Z"/>
	<path d="M 274.48 234.54 C 276.14 233.83 277.12 235.14 278.41 235.97 C 277.40 239.06 276.45 236.83 274.23 236.37 C 273.58 237.54 272.90 238.72 272.36 239.94 C 272.69 241.10 273.27 242.66 274.37 243.31 C 275.91 243.52 277.45 243.68 279.01 243.79 C 278.41 244.62 277.78 245.42 277.12 246.19 C 274.08 247.08 272.06 245.60 269.42 244.45 C 268.98 240.11 270.09 236.19 274.48 234.54 Z"/>
	<path d="M 298.67 234.26 C 299.68 235.95 300.95 237.93 300.77 239.98 C 300.51 241.91 299.92 243.80 299.46 245.69 C 296.17 246.79 294.78 246.99 291.59 245.39 C 291.55 243.20 291.15 240.59 291.93 238.52 C 293.55 236.14 295.56 234.10 298.67 234.26 Z"/>
	<path d="M 231.96 234.96 C 232.49 237.54 233.04 240.12 233.76 242.67 C 234.64 240.68 235.39 238.65 236.32 236.69 L 237.94 236.75 C 238.91 238.76 239.59 240.91 240.46 242.97 C 241.18 240.83 241.54 238.64 241.82 236.41 C 242.90 236.33 243.99 236.25 245.08 236.17 C 243.99 239.61 243.33 243.41 241.69 246.63 L 239.99 247.20 C 238.44 245.73 238.22 243.35 237.36 241.38 C 235.98 240.80 235.84 244.61 235.31 245.47 C 234.21 245.99 233.10 246.51 231.99 247.02 C 231.19 243.39 230.30 239.94 230.04 236.23 C 230.68 235.80 231.31 235.37 231.96 234.96 Z"/>
	<path d="M 281.64 234.60 C 283.17 234.62 284.71 234.65 286.25 234.70 C 287.30 235.22 288.32 235.79 289.34 236.37 C 288.58 239.88 289.17 243.01 290.32 246.33 C 289.43 246.88 288.55 247.42 287.66 247.96 C 287.13 245.90 286.65 243.83 286.21 241.74 C 285.62 241.64 285.03 241.54 284.44 241.44 C 284.27 242.78 284.09 244.12 283.89 245.45 C 283.03 245.39 282.16 245.32 281.30 245.26 C 281.28 241.70 281.33 238.15 281.64 234.60 Z"/>
	<path d="M 305.32 235.31 C 307.60 234.85 309.15 236.34 311.06 237.32 C 308.72 238.68 307.29 237.28 304.96 236.60 C 305.95 239.90 308.59 240.84 310.98 242.94 C 310.24 244.10 309.59 245.44 308.61 246.41 C 306.95 246.76 305.13 246.73 303.44 246.76 C 303.34 245.81 303.24 244.85 303.14 243.89 C 304.53 244.37 305.93 244.86 307.32 245.35 C 307.50 244.38 307.68 243.42 307.86 242.45 C 306.31 241.96 304.76 241.48 303.21 241.01 C 303.34 238.65 303.06 236.77 305.32 235.31 Z"/>
	<path d="M 326.94 234.31 C 327.94 235.09 331.35 236.37 330.78 238.02 C 330.97 241.18 327.42 241.62 325.58 243.77 C 327.62 244.65 329.76 245.26 331.85 246.04 C 329.27 246.73 326.85 248.63 324.42 246.51 C 322.37 244.04 321.75 240.28 323.42 237.43 C 324.32 236.19 325.72 235.22 326.94 234.31 Z"/>
	<path d="M 392.70 238.26 C 393.47 240.41 393.26 242.98 393.37 245.24 C 391.23 245.89 389.33 247.09 387.09 246.04 C 383.44 244.37 384.41 238.15 387.20 236.14 C 389.35 234.83 391.59 236.37 392.70 238.26 Z"/>
	<path d="M 250.90 235.42 C 252.71 235.91 255.03 236.29 256.44 237.59 C 258.07 240.96 256.52 243.52 255.50 246.74 C 253.18 246.76 250.87 246.69 248.56 246.51 C 248.02 244.84 247.13 242.92 247.29 241.15 C 247.89 239.03 249.57 237.13 250.90 235.42 Z"/>
	<path d="M 315.89 235.45 C 317.20 236.07 318.49 236.73 319.77 237.42 C 317.78 237.55 315.79 237.70 313.80 237.87 C 315.60 239.24 317.51 240.04 319.65 240.75 C 319.94 241.84 320.28 242.94 320.44 244.05 C 319.78 245.03 318.93 245.90 318.15 246.79 C 316.52 246.76 314.88 246.74 313.25 246.72 C 313.19 245.99 313.14 245.25 313.08 244.51 C 315.64 244.61 316.80 245.47 318.47 242.83 C 316.76 242.34 315.04 241.88 313.32 241.43 C 312.87 240.70 312.42 239.97 311.97 239.24 C 313.09 237.70 314.24 236.45 315.89 235.45 Z"/>
	<path d="M 336.40 236.51 C 338.35 235.86 340.71 236.56 342.65 237.06 C 340.06 237.74 337.43 238.28 334.82 238.86 C 336.78 239.61 338.98 240.11 340.79 241.21 C 342.43 244.28 340.54 245.52 338.56 247.46 C 336.34 247.14 334.12 246.84 331.91 246.52 C 332.42 245.76 332.93 245.01 333.44 244.27 C 335.35 244.72 337.27 245.09 339.19 245.44 C 338.24 241.40 334.65 242.66 332.64 239.47 C 333.85 238.46 335.04 237.30 336.40 236.51 Z"/>
	<path d="M 374.17 237.84 C 375.06 238.83 375.48 240.26 376.04 241.45 C 375.21 242.80 374.45 244.24 373.46 245.48 C 371.43 246.98 367.65 247.24 366.21 244.79 C 364.08 242.29 366.42 238.10 368.81 236.63 C 370.56 236.20 372.66 237.01 374.17 237.84 Z"/>
	<path d="M 396.06 236.08 C 397.11 236.38 398.15 236.69 399.20 237.00 C 400.90 237.18 403.13 236.18 404.16 237.87 C 405.28 239.55 405.20 242.21 405.29 244.17 C 404.56 245.05 403.79 245.88 402.96 246.67 C 402.71 244.10 402.60 241.52 402.36 238.94 C 401.42 239.20 400.49 239.45 399.56 239.70 C 399.38 241.58 399.23 243.46 399.10 245.35 C 398.20 245.40 397.30 245.45 396.40 245.50 C 396.70 242.20 396.61 239.36 396.06 236.08 Z"/>
	<path d="M 426.45 235.68 C 427.65 235.66 428.85 235.63 430.05 235.60 C 429.62 237.12 429.20 238.64 428.76 240.16 C 428.61 242.79 428.73 245.41 428.72 248.04 C 428.55 249.69 428.91 251.36 427.22 252.29 C 425.36 253.00 423.93 252.15 422.17 251.61 C 423.40 250.74 424.70 249.93 425.87 248.97 C 425.54 247.83 425.08 246.74 424.64 245.64 C 423.18 245.53 421.73 245.41 420.27 245.28 C 420.30 242.18 419.94 239.14 419.59 236.07 C 420.55 236.67 421.48 237.29 422.40 237.95 C 423.00 239.28 422.80 241.04 422.98 242.47 C 423.74 242.71 424.51 242.94 425.27 243.18 C 425.60 240.67 426.00 238.17 426.45 235.68 Z"/>
	<path d="M 640.65 237.44 C 640.88 239.34 641.07 241.23 641.25 243.13 C 638.89 242.45 638.67 241.41 637.65 239.38 C 636.02 239.58 634.67 239.22 633.56 240.73 C 633.13 242.57 634.43 243.17 635.37 244.56 C 634.74 244.98 634.10 245.41 633.47 245.84 C 633.89 247.47 634.33 249.11 634.76 250.75 C 632.83 250.59 630.89 250.42 628.95 250.26 C 630.59 246.99 631.11 243.62 631.48 240.01 C 630.24 239.30 629.01 238.57 627.79 237.83 C 631.31 235.45 636.59 237.39 640.65 237.44 Z"/>
	<path d="M 286.50 236.40 C 286.63 237.63 286.75 238.86 286.86 240.09 C 285.84 239.75 284.82 239.41 283.81 239.06 C 284.68 238.14 285.59 237.27 286.50 236.40 Z" fill="#ffffff"/>
	<path d="M 297.45 237.06 C 298.99 239.74 298.33 241.91 297.78 244.73 C 296.67 244.64 295.57 244.54 294.46 244.43 C 294.00 242.84 293.20 241.04 293.31 239.37 C 294.31 237.80 295.78 237.47 297.45 237.06 Z" fill="#ffffff"/>
	<path d="M 327.77 236.95 C 328.12 237.89 328.45 238.84 328.76 239.79 C 327.51 239.73 326.25 239.65 324.99 239.54 C 325.19 236.78 325.17 237.32 327.77 236.95 Z" fill="#ffffff"/>
	<path d="M 407.42 237.36 C 408.61 237.35 409.79 237.43 410.97 237.46 C 411.98 237.26 412.99 237.04 414.00 236.80 C 414.76 237.38 415.53 237.97 416.30 238.55 C 416.63 239.46 416.97 240.36 417.31 241.27 C 417.27 241.78 417.22 242.29 417.18 242.80 C 417.21 243.85 417.31 244.95 417.19 245.99 C 416.31 246.47 415.42 246.92 414.50 247.34 C 414.40 244.67 414.44 242.03 414.17 239.37 L 411.75 239.70 C 411.03 241.86 411.44 243.90 411.63 246.11 C 410.86 245.92 410.09 245.72 409.33 245.49 C 408.60 242.84 407.98 240.06 407.42 237.36 Z"/>
	<path d="M 736.85 241.11 C 737.30 243.22 735.47 243.89 734.28 245.29 C 732.76 245.35 731.24 245.43 729.71 245.53 C 730.46 246.47 731.19 247.41 732.03 248.26 C 733.81 248.44 735.70 248.13 737.48 247.99 C 735.71 249.21 733.84 250.25 731.95 251.26 C 730.41 250.19 728.58 249.24 727.32 247.84 C 726.50 244.01 727.46 240.08 730.59 237.59 C 733.06 236.08 736.36 238.63 736.85 241.11 Z"/>
	<path d="M 739.89 237.22 C 741.51 238.14 743.06 239.17 744.64 240.16 C 747.09 239.97 748.37 240.20 750.48 241.40 C 750.96 244.90 751.36 248.40 751.53 251.92 C 750.63 251.64 749.74 251.32 748.87 250.96 C 748.35 248.05 748.46 245.02 748.20 242.07 C 746.96 242.17 745.71 242.27 744.47 242.38 C 744.37 245.38 744.30 248.37 744.43 251.36 L 741.67 251.28 C 741.87 248.85 742.24 246.39 742.18 243.95 C 741.74 241.64 740.56 239.48 739.89 237.22 Z"/>
	<path d="M 253.09 237.67 C 253.95 240.23 254.00 242.59 253.74 245.25 C 252.37 244.61 250.74 244.08 249.66 243.01 C 249.59 241.95 249.61 240.87 249.72 239.78 C 250.74 238.88 251.90 238.32 253.09 237.67 Z" fill="#ffffff"/>
	<path d="M 357.11 237.98 C 358.41 238.17 359.99 237.96 360.82 239.21 C 361.29 240.45 361.49 241.82 361.75 243.12 C 360.71 243.65 359.67 244.18 358.64 244.71 C 357.98 242.49 357.35 240.29 357.11 237.98 Z" fill="#ffffff"/>
	<path d="M 389.58 237.99 C 390.34 240.04 391.47 241.68 390.95 243.96 C 387.14 244.05 387.40 241.77 387.51 238.79 C 388.20 238.52 388.89 238.25 389.58 237.99 Z" fill="#ffffff"/>
	<path d="M 692.04 237.22 C 695.87 240.89 698.89 246.09 699.06 251.49 C 696.26 250.17 695.28 247.69 693.43 245.43 C 692.00 245.25 690.51 245.38 689.07 245.41 C 688.52 247.19 687.97 248.97 687.41 250.75 C 686.70 250.67 686.00 250.59 685.29 250.50 C 687.11 246.02 687.49 239.58 692.04 237.22 Z"/>
	<path d="M 701.83 238.34 L 704.93 237.55 C 705.22 238.09 705.51 238.64 705.81 239.18 C 703.03 240.83 704.53 243.11 704.66 245.64 C 705.79 244.77 706.98 243.92 708.01 242.95 C 707.69 241.78 707.18 240.67 706.50 239.60 C 707.14 238.88 707.79 238.16 708.44 237.45 C 711.15 240.11 709.87 241.87 709.45 245.07 C 710.80 247.47 711.83 249.82 712.29 252.55 C 709.15 251.13 707.75 248.33 705.06 246.02 C 704.29 247.81 703.52 249.60 702.71 251.38 C 702.19 249.16 701.79 246.94 701.47 244.69 C 702.08 244.08 702.70 243.47 703.31 242.85 L 700.92 242.65 C 701.22 241.21 701.52 239.77 701.83 238.34 Z"/>
	<path d="M 718.54 238.66 C 720.89 237.90 721.58 240.05 723.07 241.38 C 720.88 240.85 718.70 240.41 716.46 240.18 C 716.28 244.64 716.52 247.90 720.57 250.38 C 721.05 249.48 721.53 248.58 722.00 247.67 C 721.00 247.44 720.00 247.22 719.01 246.99 C 719.46 246.44 719.91 245.90 720.37 245.36 C 721.48 245.37 722.59 245.39 723.69 245.40 C 723.28 247.09 724.79 251.14 722.04 250.83 C 719.48 251.17 715.93 252.53 714.57 249.43 C 711.98 245.78 714.44 239.87 718.54 238.66 Z"/>
	<path d="M 368.79 239.27 C 369.92 239.29 371.04 239.35 372.15 239.46 C 372.57 240.75 372.97 242.05 373.35 243.35 C 371.51 243.73 370.09 244.54 368.27 243.56 C 368.16 242.09 368.34 240.67 368.79 239.27 Z" fill="#ffffff"/>
	<path d="M 646.18 239.65 C 648.28 239.18 650.35 240.10 652.38 240.61 C 652.41 241.87 652.43 243.13 652.45 244.39 C 650.33 245.33 648.20 246.21 646.08 247.14 C 648.63 247.77 651.18 248.38 653.72 249.07 C 650.92 250.72 647.35 250.70 644.40 249.57 C 642.90 248.45 641.82 246.70 641.34 244.91 C 641.80 242.33 643.60 240.22 646.18 239.65 Z"/>
	<path d="M 657.42 240.47 C 659.00 239.98 659.82 242.14 660.86 242.97 C 659.40 242.85 657.94 242.74 656.48 242.65 C 658.22 243.93 660.15 244.93 661.86 246.24 C 663.21 248.25 661.51 250.76 660.17 252.30 C 659.21 252.90 657.73 252.66 656.62 252.82 C 656.35 251.97 656.09 251.13 655.82 250.28 C 657.02 250.69 658.22 251.09 659.42 251.49 C 659.52 250.32 659.61 249.14 659.71 247.96 C 657.95 246.97 655.77 246.08 654.38 244.59 C 654.00 242.26 655.39 241.15 657.42 240.47 Z"/>
	<path d="M 734.81 240.73 C 734.31 241.77 733.80 242.80 733.29 243.84 C 731.92 243.34 730.55 242.85 729.23 242.20 C 730.56 239.24 732.32 240.45 734.81 240.73 Z" fill="#ffffff"/>
	<path d="M 651.06 241.40 C 650.50 242.41 649.94 243.42 649.37 244.42 C 647.48 244.23 645.59 244.02 643.71 243.80 C 644.04 243.02 644.38 242.23 644.74 241.45 C 646.84 241.29 648.94 241.34 651.06 241.40 Z" fill="#ffffff"/>
	<path d="M 671.38 241.79 C 669.86 242.99 668.11 243.48 666.28 244.08 C 668.26 245.04 670.35 245.82 672.25 246.93 C 672.86 249.03 671.02 251.61 670.28 253.54 C 668.22 253.22 666.17 252.87 664.12 252.45 C 666.15 251.31 668.20 250.22 670.22 249.07 C 667.87 247.37 663.63 247.30 664.55 243.48 C 665.94 239.90 668.47 241.61 671.38 241.79 Z"/>
	<path d="M 690.90 240.59 C 692.41 240.91 692.86 242.36 692.62 243.73 C 691.37 243.91 690.36 243.67 689.61 243.00 C 689.85 242.14 690.28 241.34 690.90 240.59 Z" fill="#ffffff"/>
	<path d="M 392.29 248.70 C 393.07 248.96 393.84 249.24 394.61 249.52 C 394.80 250.21 394.98 250.91 395.16 251.60 C 394.22 251.72 393.28 251.84 392.34 251.95 C 392.32 250.87 392.31 249.78 392.29 248.70 Z"/>
	<path d="M 330.91 250.09 C 331.66 251.34 332.37 252.61 333.05 253.90 C 331.69 253.51 330.35 253.09 329.02 252.62 C 329.62 251.76 330.25 250.92 330.91 250.09 Z"/>
	<path d="M 371.49 252.19 C 372.77 252.98 374.05 253.78 375.32 254.59 C 374.00 255.07 372.62 255.47 371.34 256.07 C 370.99 258.00 370.75 260.04 370.97 262.00 C 372.39 263.61 374.05 264.75 374.85 266.84 C 372.57 266.44 370.38 265.88 368.18 265.16 C 368.13 261.79 368.68 258.56 367.65 255.46 C 367.70 254.67 367.74 253.89 367.77 253.10 C 367.36 252.16 366.93 251.23 366.49 250.30 C 368.99 249.29 369.67 250.89 371.49 252.19 Z"/>
	<path d="M 251.98 252.22 C 256.16 251.38 259.24 251.59 263.27 252.90 C 263.78 255.77 264.26 258.64 264.86 261.50 C 264.33 262.74 263.86 264.04 263.18 265.21 C 261.91 266.13 260.27 266.63 258.84 267.25 C 255.58 266.57 252.32 266.93 249.05 266.48 C 250.20 264.83 251.88 264.60 253.64 263.89 C 253.65 260.82 253.75 257.75 253.72 254.68 C 252.03 254.60 250.34 254.50 248.66 254.37 C 249.72 253.34 250.35 252.30 251.98 252.22 Z"/>
	<path d="M 298.13 252.68 C 298.87 252.57 299.61 252.47 300.36 252.41 C 300.63 256.78 300.25 261.01 300.19 265.39 C 302.02 265.60 303.84 265.83 305.66 266.10 C 304.38 267.97 303.01 268.18 300.97 268.82 C 299.88 268.00 298.77 267.18 297.67 266.37 C 295.67 267.19 293.71 267.44 291.56 267.55 C 291.35 265.76 291.17 263.96 291.02 262.16 C 291.96 260.90 292.90 259.62 293.83 258.35 C 295.09 258.51 296.34 258.69 297.59 258.87 C 297.65 256.88 297.39 254.56 298.13 252.68 Z"/>
	<path d="M 691.06 251.57 C 692.39 252.83 693.68 254.13 694.94 255.46 C 696.29 255.61 697.64 255.77 698.98 255.94 C 697.43 256.67 695.86 257.36 694.29 258.04 C 694.27 260.41 693.78 263.21 694.54 265.48 C 695.52 266.89 696.76 268.11 697.87 269.41 C 696.04 269.28 694.21 269.12 692.39 268.92 C 691.41 265.22 691.90 261.89 692.56 258.22 C 691.79 257.99 691.02 257.77 690.25 257.54 C 690.56 255.56 690.80 253.56 691.06 251.57 Z"/>
	<path d="M 753.70 253.53 C 754.33 253.42 754.96 253.32 755.59 253.25 C 757.61 256.95 756.98 260.08 756.41 264.04 C 755.88 266.52 757.76 267.60 758.90 269.55 C 757.38 269.68 755.85 269.80 754.32 269.90 C 754.08 264.34 754.68 259.08 753.70 253.53 Z"/>
	<path d="M 256.42 254.36 C 257.75 254.19 259.07 254.15 260.41 254.10 C 260.79 255.27 261.17 256.44 261.55 257.61 C 259.75 257.95 257.94 258.25 256.13 258.51 C 256.19 257.11 256.24 255.75 256.42 254.36 Z" fill="#ffffff"/>
	<path d="M 676.63 256.24 C 677.11 259.77 676.92 263.39 677.17 266.95 C 677.98 267.83 678.79 268.72 679.60 269.61 C 678.70 269.94 677.79 270.24 676.87 270.51 C 673.51 268.81 674.92 266.01 674.70 262.96 C 674.82 259.89 673.90 257.18 673.32 254.20 C 674.75 254.55 676.28 254.45 676.63 256.24 Z"/>
	<path d="M 319.87 254.36 C 322.57 254.56 325.06 254.98 327.60 255.95 C 325.18 256.34 322.73 256.48 320.30 256.82 C 322.44 258.70 325.06 259.01 327.52 260.22 C 327.74 261.60 327.80 262.98 327.89 264.38 C 326.35 264.90 324.74 265.72 323.10 265.84 C 320.86 265.60 318.57 264.70 316.45 263.96 C 320.14 261.29 322.94 265.41 326.32 262.03 C 323.80 261.38 321.26 260.87 318.70 260.39 C 318.39 257.96 318.83 256.57 319.87 254.36 Z"/>
	<path d="M 338.09 255.35 C 339.40 255.57 340.71 255.86 342.01 256.12 C 343.76 255.81 345.62 255.21 347.37 255.28 C 348.75 258.78 348.55 262.81 349.35 266.49 C 348.42 266.66 347.49 266.82 346.56 266.99 C 346.53 263.75 346.53 260.52 346.32 257.30 C 345.00 257.72 343.69 258.15 342.38 258.59 C 342.43 261.05 342.61 263.50 342.79 265.96 C 342.01 265.89 341.22 265.82 340.43 265.76 C 340.56 261.78 339.62 258.92 338.09 255.35 Z"/>
	<path d="M 350.81 255.26 C 351.65 255.37 352.48 255.51 353.31 255.67 C 353.91 258.49 354.12 261.36 354.22 264.24 C 355.05 264.94 355.88 265.64 356.71 266.34 C 354.79 266.86 353.60 267.58 351.81 266.24 C 351.38 262.59 351.40 258.91 350.81 255.26 Z"/>
	<path d="M 362.76 256.32 C 361.64 256.83 360.52 257.34 359.40 257.84 C 361.14 259.10 362.88 260.36 364.59 261.66 C 363.84 263.05 363.10 264.44 362.36 265.83 C 360.96 265.84 359.56 265.84 358.16 265.85 L 358.10 263.81 C 359.34 263.75 360.58 263.69 361.83 263.61 C 360.43 261.34 355.42 259.20 358.47 256.27 C 359.77 254.56 361.21 255.82 362.76 256.32 Z"/>
	<path d="M 382.59 254.47 C 384.39 256.65 384.31 257.56 383.80 260.28 C 381.87 260.47 379.94 260.68 378.01 260.94 C 380.41 263.63 382.95 263.30 386.24 263.65 C 382.92 265.60 381.44 265.86 377.58 265.39 C 376.42 262.25 375.23 259.21 376.96 255.97 C 378.73 255.23 380.72 254.86 382.59 254.47 Z"/>
	<path d="M 392.37 254.77 C 394.29 255.24 395.78 256.04 397.40 257.16 C 395.60 257.42 393.83 257.59 392.01 257.66 C 390.75 260.00 389.87 262.20 389.25 264.80 C 388.60 264.80 387.94 264.79 387.29 264.78 C 387.35 261.83 387.29 258.94 386.68 256.03 C 387.84 256.33 389.00 256.63 390.17 256.94 C 390.90 256.21 391.63 255.49 392.37 254.77 Z"/>
	<path d="M 664.59 254.17 C 665.90 255.53 667.15 256.94 668.36 258.39 C 669.18 259.00 670.04 259.59 670.83 260.25 C 670.00 260.84 669.16 261.43 668.31 262.00 C 668.17 264.85 668.37 266.88 669.51 269.52 C 668.18 269.49 666.85 269.46 665.52 269.42 C 665.67 266.83 665.95 264.27 666.32 261.70 C 665.03 261.33 663.73 260.95 662.44 260.57 C 663.58 259.64 664.74 258.73 665.93 257.87 C 665.36 257.69 664.79 257.51 664.23 257.32 L 664.59 254.17 Z"/>
	<path d="M 730.64 254.34 C 730.43 256.75 730.19 259.08 729.30 261.35 C 728.40 260.03 727.51 258.69 726.64 257.35 C 725.75 257.60 724.85 257.84 723.95 258.09 C 724.24 258.70 724.52 259.31 724.81 259.92 C 727.11 261.09 730.73 261.67 730.58 264.97 C 730.78 266.91 729.38 269.79 727.03 269.24 C 723.90 268.92 721.82 267.12 720.15 264.56 C 722.75 265.60 725.17 267.04 727.80 267.99 C 727.85 266.68 727.82 265.38 727.78 264.07 C 725.08 263.07 719.39 261.58 721.57 257.59 C 722.77 253.63 727.48 255.21 730.64 254.34 Z"/>
	<path d="M 333.00 256.36 C 333.27 258.15 333.36 260.00 333.76 261.76 C 334.58 263.18 335.89 264.35 336.95 265.60 C 335.04 265.64 333.15 265.64 331.24 265.59 C 330.83 262.54 330.60 259.48 330.38 256.41 C 331.25 256.38 332.13 256.37 333.00 256.36 Z"/>
	<path d="M 381.69 256.12 C 381.68 257.01 381.66 257.90 381.65 258.79 C 380.41 258.79 379.18 258.78 377.95 258.76 C 378.52 258.16 379.11 257.57 379.70 257.00 C 380.36 256.70 381.03 256.40 381.69 256.12 Z" fill="#ffffff"/>
	<path d="M 622.68 255.21 C 626.03 257.63 628.80 260.60 629.53 264.81 C 626.56 264.67 625.71 262.77 623.97 260.79 C 623.88 263.33 623.81 265.87 623.58 268.40 C 621.75 268.15 619.93 267.88 618.11 267.61 C 618.16 267.10 618.21 266.59 618.26 266.07 C 619.22 265.52 620.14 264.92 621.02 264.27 C 621.60 261.25 621.80 258.19 622.68 255.21 Z"/>
	<path d="M 633.45 256.30 C 634.12 260.06 634.44 263.88 635.01 267.66 C 633.68 267.70 632.34 267.74 631.01 267.77 C 631.38 265.04 631.83 262.33 632.18 259.60 L 630.97 261.70 C 630.39 261.16 629.82 260.61 629.24 260.07 C 630.40 259.08 631.54 255.71 633.45 256.30 Z"/>
	<path d="M 645.15 255.31 C 646.92 259.13 649.84 264.52 648.62 268.78 C 645.89 269.17 646.29 265.98 645.42 264.24 C 644.36 264.29 643.29 264.35 642.23 264.41 C 641.17 265.97 640.07 267.18 638.57 268.32 C 639.24 264.47 640.35 260.71 641.81 257.09 C 642.91 256.48 644.03 255.89 645.15 255.31 Z"/>
	<path d="M 739.33 257.53 C 739.82 261.16 740.17 264.81 740.61 268.45 C 739.96 268.48 739.31 268.52 738.67 268.55 C 738.15 266.38 737.57 264.28 736.43 262.34 C 736.59 261.03 736.74 259.72 736.87 258.41 C 734.42 261.21 733.74 264.20 733.48 267.82 L 731.44 267.74 C 732.89 264.06 733.93 260.37 734.88 256.54 C 736.37 256.82 737.85 257.19 739.33 257.53 Z"/>
	<path d="M 749.92 256.98 C 751.31 259.33 752.14 262.39 752.45 265.08 C 751.59 266.97 749.61 268.41 748.18 269.88 C 746.86 269.75 745.55 269.62 744.24 269.50 C 744.27 265.68 744.31 261.87 744.41 258.05 C 746.28 256.67 747.62 255.52 749.92 256.98 Z"/>
	<path d="M 273.15 256.98 C 271.58 258.13 269.97 259.22 268.43 260.41 C 269.76 260.58 271.10 260.74 272.43 260.89 C 272.86 259.38 273.32 257.88 273.83 256.39 L 275.98 259.29 C 275.68 262.09 272.85 262.29 270.77 263.49 C 272.74 263.47 274.70 263.49 276.67 263.54 C 275.14 264.56 273.58 265.54 272.03 266.54 C 270.12 265.80 268.25 265.42 266.76 263.97 C 266.00 262.01 267.01 259.27 267.32 257.23 C 269.26 257.13 271.21 257.05 273.15 256.98 Z"/>
	<path d="M 658.17 257.57 C 658.70 257.69 659.22 257.82 659.75 257.96 C 659.64 262.28 660.24 265.27 661.75 269.25 C 660.87 269.36 660.00 269.47 659.12 269.58 C 658.16 266.83 658.85 263.77 655.39 262.97 C 655.65 264.44 655.92 265.90 656.20 267.35 C 655.09 267.57 653.98 267.77 652.86 267.98 C 652.64 265.75 652.44 263.52 652.15 261.30 C 651.03 260.09 650.51 258.88 650.57 257.67 C 651.93 258.16 653.24 258.78 654.60 259.26 C 655.82 258.80 656.98 258.13 658.17 257.57 Z"/>
	<path d="M 704.45 256.94 L 705.01 259.21 C 703.91 259.44 702.81 259.66 701.71 259.89 C 703.69 262.16 707.62 263.40 706.84 267.00 C 706.88 270.09 705.81 270.49 702.99 270.85 C 700.45 271.37 699.58 268.35 698.48 266.72 C 699.89 267.32 701.28 267.97 702.65 268.67 C 703.49 268.61 704.34 268.54 705.19 268.48 C 703.95 265.82 701.85 264.13 700.03 261.93 C 700.32 258.83 701.95 258.18 704.45 256.94 Z"/>
	<path d="M 762.42 257.35 C 765.47 256.88 767.01 256.80 768.20 259.96 C 766.74 262.44 764.28 262.13 761.80 262.89 C 762.13 264.07 762.44 265.24 762.87 266.39 C 764.70 266.60 766.57 266.61 768.42 266.71 C 767.39 267.58 766.33 268.72 765.05 269.17 C 763.49 269.04 761.93 268.73 760.38 268.47 C 760.15 266.26 759.57 263.89 759.85 261.68 C 760.37 260.08 761.28 258.59 762.42 257.35 Z"/>
	<path d="M 278.69 257.11 C 280.10 257.69 281.51 258.27 282.91 258.86 C 284.15 258.38 285.40 257.90 286.64 257.41 C 289.31 260.68 288.45 264.14 289.31 268.06 C 288.40 267.97 287.49 267.83 286.60 267.63 C 286.07 264.82 285.93 261.94 285.52 259.11 C 284.54 260.03 283.57 260.96 282.61 261.91 C 282.49 264.07 282.05 265.65 280.99 267.51 C 280.38 263.98 279.96 260.48 278.69 257.11 Z"/>
	<path d="M 683.86 258.96 C 684.92 258.69 685.98 258.42 687.04 258.17 C 687.94 259.18 688.83 260.20 689.72 261.22 C 687.93 262.66 686.10 263.86 684.07 264.96 C 684.28 265.41 684.49 265.85 684.70 266.29 C 685.82 266.26 686.94 266.22 688.06 266.19 C 688.26 266.87 688.47 267.56 688.67 268.24 C 686.26 268.16 682.60 269.44 681.50 266.48 C 680.18 263.33 682.01 261.28 683.86 258.96 Z"/>
	<path d="M 747.66 257.79 C 748.05 258.85 748.41 259.92 748.76 261.00 L 747.73 262.46 C 749.66 264.20 749.70 264.93 749.81 267.46 C 748.52 267.47 747.23 267.48 745.95 267.49 C 746.30 264.19 746.61 260.95 747.66 257.79 Z" fill="#ffffff"/>
	<path d="M 763.20 258.64 C 764.91 258.02 766.54 260.39 764.24 260.79 C 763.19 260.44 762.85 259.73 763.20 258.64 Z" fill="#ffffff"/>
	<path d="M 255.98 260.34 C 258.04 260.48 260.10 260.61 262.16 260.74 C 261.91 261.69 261.63 262.62 261.31 263.55 C 260.07 264.38 258.42 264.71 257.01 265.18 C 256.68 263.57 256.33 261.95 255.98 260.34 Z" fill="#ffffff"/>
	<path d="M 294.26 260.35 C 295.61 260.36 296.96 260.43 298.31 260.56 C 297.38 262.41 296.97 264.42 295.09 265.52 C 294.12 264.74 293.19 263.91 292.31 263.03 C 292.91 262.10 293.56 261.20 294.26 260.35 Z" fill="#ffffff"/>
	<path d="M 686.91 261.42 C 686.60 263.14 684.76 262.25 684.06 261.31 C 684.86 260.35 686.55 259.78 686.91 261.42 Z" fill="#ffffff"/>
	<path d="M 776.98 265.28 C 777.43 266.06 777.87 266.83 778.31 267.61 C 776.56 267.60 774.81 267.57 773.06 267.51 C 774.37 266.38 775.11 265.30 776.98 265.28 Z"/>
</svg>
