<?xml version="1.0" standalone="no"?>
<!DOCTYPE svg PUBLIC "-//W3C//DTD SVG 20010904//EN"
 "http://www.w3.org/TR/2001/REC-SVG-20010904/DTD/svg10.dtd">
<svg version="1.0" xmlns="http://www.w3.org/2000/svg"
 width="75.000000pt" height="135.000000pt" viewBox="0 0 75.000000 135.000000"
 preserveAspectRatio="xMidYMid meet">
<metadata>
Created by potrace 1.16, written by Peter Selinger 2001-2019
</metadata>
<g transform="translate(0.000000,135.000000) scale(0.100000,-0.100000)"
fill="#000000" stroke="none">
<path d="M346 1294 c-5 -14 -4 -15 9 -4 17 14 19 20 6 20 -5 0 -12 -7 -15 -16z"/>
<path d="M428 1285 c10 -16 24 -45 30 -62 16 -47 -5 -43 -43 7 l-29 40 -25
-24 c-28 -29 -23 -44 7 -25 19 12 25 8 61 -31 22 -25 40 -39 41 -32 0 23 20
12 45 -27 16 -27 31 -39 45 -38 29 2 25 17 -16 70 -38 49 -63 63 -43 25 11
-20 10 -21 -3 -10 -9 7 -18 25 -22 40 -3 15 -20 43 -37 62 -28 31 -29 32 -11
5z m126 -161 c3 -8 2 -12 -4 -9 -6 3 -10 10 -10 16 0 14 7 11 14 -7z"/>
<path d="M275 1227 c-28 -24 -57 -46 -66 -49 -16 -6 -66 -68 -54 -68 3 0 20
14 38 30 18 17 57 52 87 80 68 61 64 66 -5 7z"/>
<path d="M237 1147 c-42 -40 -77 -76 -77 -81 0 -5 27 16 59 47 35 34 68 57 81
57 15 0 20 5 17 14 -3 7 0 19 6 25 6 6 7 11 2 11 -6 -1 -45 -33 -88 -73z"/>
<path d="M340 1157 c-25 -23 -72 -64 -104 -91 -31 -26 -55 -51 -52 -54 3 -3
25 13 49 34 65 60 131 114 138 114 3 0 4 -12 1 -26 -3 -15 -25 -42 -58 -67
-50 -40 -64 -57 -46 -57 4 0 21 12 38 28 63 57 64 57 64 30 0 -18 -29 -54
-109 -134 -65 -65 -122 -133 -141 -167 -30 -53 -33 -68 -38 -167 -5 -107 -4
-110 27 -173 31 -62 159 -223 169 -212 3 2 -22 34 -54 70 -96 108 -123 183
-124 344 0 50 6 76 30 125 16 33 40 72 53 86 31 34 174 160 181 160 24 0 -7
-43 -80 -113 -93 -89 -115 -123 -133 -205 -11 -51 -14 -140 -4 -97 3 11 9 24
14 29 5 6 9 26 9 45 0 69 58 157 173 260 l27 24 -7 -95 c-4 -71 -3 -97 7 -103
22 -14 30 18 29 113 -1 51 1 95 4 98 2 3 19 -18 36 -45 17 -28 33 -51 36 -51
10 0 5 29 -8 42 -29 30 -67 86 -67 99 0 8 17 -3 36 -24 51 -55 54 -37 5 27
-22 30 -41 60 -41 66 0 18 16 11 29 -12 7 -13 23 -31 37 -41 41 -31 28 4 -21
53 -40 41 -56 71 -37 69 4 0 22 -18 40 -41 23 -29 32 -35 32 -22 0 11 -18 39
-40 64 -22 24 -40 48 -40 52 0 16 -16 7 -60 -35z"/>
<path d="M487 1115 c4 -11 17 -35 30 -54 18 -26 23 -29 23 -15 0 11 -13 35
-30 54 -19 22 -27 28 -23 15z"/>
<path d="M566 1025 c-4 -14 -13 -25 -21 -25 -8 0 -15 -5 -15 -10 0 -16 39 -91
67 -128 14 -18 35 -59 48 -90 18 -43 25 -53 30 -39 10 23 -19 91 -63 151 -35
48 -62 93 -62 103 0 3 7 3 15 -1 9 -3 15 0 15 10 0 8 5 12 10 9 14 -9 12 7 -4
28 -13 16 -14 16 -20 -8z"/>
<path d="M105 999 c-9 -17 -15 -36 -13 -43 2 -6 13 8 25 31 12 24 18 43 13 43
-5 0 -17 -14 -25 -31z"/>
<path d="M188 926 c-76 -82 -102 -121 -132 -206 -38 -104 -37 -236 2 -333 27
-69 62 -112 182 -222 24 -22 55 -65 68 -95 18 -39 27 -50 30 -36 10 43 -29
105 -114 183 -93 84 -126 132 -156 226 -33 105 -22 252 25 337 25 45 76 110
104 133 26 21 68 78 56 76 -4 -1 -34 -29 -65 -63z"/>
<path d="M155 969 c-11 -17 1 -21 15 -4 8 9 8 15 2 15 -6 0 -14 -5 -17 -11z"/>
<path d="M500 922 c0 -6 15 -30 33 -54 77 -103 103 -188 95 -314 -6 -93 -36
-165 -98 -240 -23 -27 -52 -69 -64 -94 -29 -56 -59 -158 -52 -176 11 -30 24
-12 31 43 10 80 31 128 87 198 124 154 154 343 79 497 -29 59 -111 163 -111
140z"/>
<path d="M515 829 c8 -22 12 -45 9 -50 -3 -5 3 -9 12 -9 10 0 14 -3 11 -7 -4
-3 -2 -12 4 -19 6 -7 13 -41 16 -75 6 -61 5 -62 -16 -56 -18 4 -21 2 -16 -11
4 -9 10 -28 12 -42 4 -23 3 -24 -10 -7 -8 9 -17 17 -19 17 -9 0 -1 -81 11
-128 13 -47 42 -60 33 -16 -3 19 -1 25 7 20 6 -4 11 -1 11 8 0 8 -4 18 -10 21
-18 11 -11 23 10 18 24 -6 24 -5 5 40 -20 49 -20 74 0 57 12 -10 14 -5 14 37
-1 63 -16 116 -52 180 -36 67 -51 76 -32 22z"/>
<path d="M485 730 c-18 -35 -69 -70 -102 -70 -32 0 -94 30 -126 62 -28 28 -47
36 -47 18 0 -30 47 -126 76 -156 28 -27 42 -34 75 -34 22 0 52 6 68 14 32 17
78 100 87 157 8 48 -9 52 -31 9z"/>
<path d="M693 650 c1 -61 -3 -81 -20 -109 -16 -26 -19 -38 -11 -51 8 -13 1
-31 -33 -86 -23 -38 -53 -83 -66 -100 -27 -36 -53 -96 -63 -144 -4 -19 -11
-47 -15 -62 -4 -16 -3 -28 2 -28 12 0 33 59 33 91 0 22 30 78 89 164 44 66 82
148 77 168 -3 11 3 32 14 46 27 39 30 133 6 166 -13 18 -14 12 -13 -55z"/>
<path d="M166 562 c-34 -68 -35 -70 -21 -115 16 -53 39 -91 77 -129 72 -70
118 -130 118 -152 0 -13 8 -30 17 -37 15 -12 16 -12 10 3 -3 9 -11 35 -17 57
-7 28 -27 54 -67 91 -31 28 -52 55 -47 58 6 4 15 30 22 57 6 28 14 60 18 73 3
12 2 22 -3 22 -5 0 -17 -34 -27 -76 -16 -67 -20 -74 -33 -61 -13 12 -11 23 10
86 13 39 20 74 16 77 -10 6 -13 0 -33 -64 -10 -29 -22 -49 -28 -46 -13 8 -6
36 26 107 15 33 21 57 15 55 -6 -2 -20 -27 -31 -56 -17 -46 -38 -69 -38 -42 0
12 37 109 51 133 6 11 8 21 5 24 -2 3 -21 -26 -40 -65z"/>
<path d="M475 507 c-4 -19 -4 -45 0 -56 3 -11 8 -33 11 -48 8 -46 15 -63 25
-63 6 0 8 8 5 18 -3 9 -10 41 -16 71 -6 30 -12 57 -15 59 -3 3 0 11 7 19 8 10
8 17 0 25 -8 8 -12 1 -17 -25z"/>
<path d="M443 434 c7 -58 27 -115 34 -96 7 19 -17 131 -30 139 -7 4 -8 -11 -4
-43z"/>
<path d="M300 429 c-15 -55 -17 -113 -5 -119 6 -3 14 29 21 78 11 87 2 110
-16 41z"/>
<path d="M404 395 c4 -51 12 -84 21 -91 12 -9 12 -17 -3 -57 -23 -61 -28 -64
-41 -26 -17 50 -21 30 -5 -31 8 -30 14 -63 14 -73 0 -34 17 -8 23 35 3 24 16
65 28 92 14 32 17 51 10 55 -5 4 -15 40 -22 81 -16 106 -33 117 -25 15z"/>
<path d="M349 408 c0 -29 -2 -64 -5 -78 -5 -33 11 -59 27 -43 8 8 9 36 4 92
-8 91 -25 109 -26 29z"/>
</g>
</svg>
