<?xml version="1.0" standalone="no"?>
<!DOCTYPE svg PUBLIC "-//W3C//DTD SVG 20010904//EN"
 "http://www.w3.org/TR/2001/REC-SVG-20010904/DTD/svg10.dtd">
<svg version="1.0" xmlns="http://www.w3.org/2000/svg"
 width="1000.000000pt" height="400.000000pt" viewBox="0 0 1000.000000 400.000000"
 preserveAspectRatio="xMidYMid meet">
<metadata>
Created by potrace 1.16, written by Peter Selinger 2001-2019
</metadata>
<g transform="translate(0.000000,400.000000) scale(0.100000,-0.100000)"
fill="#000000" stroke="none">
<path d="M3226 3909 c-27 -11 -61 -29 -77 -39 -15 -11 -30 -20 -34 -20 -6 0
-65 -44 -123 -92 -49 -42 -87 -54 -192 -62 -127 -10 -152 -13 -159 -23 -3 -4
-42 -8 -86 -8 -44 0 -93 -5 -110 -11 -21 -8 -57 -9 -115 -3 -107 10 -132 16
-186 45 -69 37 -129 40 -188 9 -55 -28 -78 -30 -126 -14 -26 9 -41 9 -69 -1
-20 -7 -52 -12 -71 -12 -20 1 -59 -11 -95 -28 -63 -30 -132 -46 -278 -60 -48
-5 -91 -11 -95 -14 -18 -11 -333 -47 -485 -55 -305 -17 -436 -6 -537 46 -34
18 -53 16 -78 -6 -28 -24 -27 -46 3 -100 30 -52 31 -61 5 -94 -39 -49 -17 -87
50 -87 17 0 44 7 61 15 64 34 291 55 585 55 172 -1 239 -3 414 -15 49 -4 120
-21 215 -53 17 -5 62 -20 100 -32 59 -19 139 -51 230 -91 38 -17 170 -42 240
-45 39 -2 99 3 135 12 36 8 112 25 170 39 116 27 271 50 398 60 85 7 118 9
227 20 33 3 89 7 125 10 36 3 99 9 140 13 146 16 376 -4 455 -40 16 -7 29 -25
36 -49 11 -34 9 -42 -15 -83 -39 -66 -111 -120 -268 -198 -33 -16 -79 -36
-102 -43 -22 -7 -66 -23 -96 -34 -71 -26 -241 -70 -299 -77 -25 -3 -62 -9 -81
-14 -46 -12 -449 -52 -650 -65 -178 -12 -486 -43 -580 -59 -8 -2 -40 -6 -70
-10 -30 -4 -73 -14 -95 -21 -22 -7 -60 -15 -85 -18 -61 -7 -195 -52 -230 -77
-15 -11 -30 -20 -33 -20 -3 0 -27 -13 -54 -30 -41 -25 -61 -30 -147 -35 -54
-4 -114 -13 -135 -21 -162 -65 -285 -174 -195 -174 15 0 24 -6 24 -15 0 -9 6
-18 14 -21 8 -3 12 -12 9 -20 -3 -9 2 -14 16 -14 12 0 21 -6 21 -15 0 -8 4
-15 9 -15 4 0 21 -20 37 -45 15 -25 35 -45 43 -45 9 0 26 -3 39 -6 18 -5 22
-2 22 15 0 11 4 21 10 21 5 0 20 9 32 20 53 47 106 90 111 90 3 0 -1 -14 -10
-30 -22 -44 -107 -128 -137 -136 -14 -3 -26 -10 -26 -14 0 -45 99 15 157 94
44 59 93 155 93 182 0 18 38 83 68 115 54 60 270 113 567 139 72 6 184 17 250
25 105 13 199 21 350 31 22 1 171 5 330 9 463 10 691 32 900 91 50 13 108 29
130 35 22 6 44 14 49 20 6 5 17 9 25 9 23 0 267 124 326 166 118 83 202 201
220 309 19 112 31 156 46 166 10 6 10 11 0 23 -11 13 -11 16 3 16 19 0 21 21
4 38 -9 9 -7 12 10 12 28 0 29 26 2 42 -24 15 -26 28 -3 28 15 0 14 2 -2 20
-10 11 -27 22 -38 26 -19 6 -19 7 -3 16 22 12 7 33 -32 43 l-27 7 25 10 c25 9
25 10 5 24 -11 8 -31 17 -45 20 -50 11 -56 14 -41 23 23 15 3 29 -50 36 -38 5
-49 11 -45 21 7 17 -24 31 -80 35 -21 2 -44 9 -49 17 -6 7 -34 14 -68 15 -38
1 -57 6 -57 15 0 8 -19 12 -60 12 -33 0 -60 4 -60 9 0 18 -74 22 -119 6 -24
-8 -46 -13 -49 -10 -3 2 3 7 12 11 9 3 13 10 10 15 -8 14 -55 11 -108 -7 -49
-17 -72 -14 -37 6 48 25 6 34 -71 14 -63 -15 -64 -15 -45 -4 20 13 23 30 5 29
-7 -1 -35 -10 -62 -20z m144 -18 c0 -4 -30 -31 -67 -59 -72 -53 -120 -99 -112
-107 3 -2 30 18 60 46 54 49 144 92 223 106 26 5 21 -2 -48 -72 -82 -84 -98
-119 -19 -41 56 54 133 94 200 103 l48 6 -60 -41 c-75 -50 -115 -87 -115 -104
1 -7 13 1 28 18 45 51 134 91 221 98 l44 4 -67 -62 c-36 -33 -66 -66 -66 -73
0 -9 -53 -10 -210 -7 -145 4 -210 2 -210 -5 0 -7 40 -11 113 -12 146 -2 211
-6 270 -19 26 -5 64 -10 83 -10 120 0 309 -74 415 -162 99 -82 140 -192 99
-268 -26 -48 -152 -175 -217 -220 -51 -35 -183 -99 -227 -111 -17 -4 -55 -15
-84 -23 -30 -8 -70 -17 -90 -20 -20 -2 -59 -11 -87 -19 -56 -16 -150 -36 -210
-43 l-40 -5 34 16 c19 9 41 13 48 10 8 -2 12 -1 9 4 -3 5 9 14 27 21 17 6 40
16 49 21 10 5 27 9 37 9 11 0 22 4 26 10 3 5 11 7 19 4 7 -3 26 1 42 7 16 7
38 14 49 16 10 2 28 9 40 16 11 7 43 22 70 32 28 10 75 35 105 55 30 21 73 46
96 58 22 11 47 28 55 38 12 16 12 17 -1 9 -13 -7 -13 -6 0 11 28 35 41 64 29
64 -5 0 -9 10 -7 22 2 18 -2 22 -21 22 -14 0 -27 -6 -29 -13 -3 -10 1 -12 16
-9 47 13 -2 -92 -63 -133 -5 -4 -23 -19 -40 -33 -16 -14 -35 -26 -40 -26 -6 0
-28 -10 -50 -22 -107 -57 -149 -75 -171 -70 l-25 4 27 14 c14 8 30 11 35 8 5
-3 9 1 9 8 0 7 16 26 36 41 77 62 111 140 88 201 -21 54 -185 92 -384 89 -74
-1 -157 -4 -185 -7 -27 -3 -81 -8 -120 -11 -261 -21 -555 -56 -680 -81 -297
-61 -348 -65 -480 -35 -99 22 -254 80 -217 81 14 0 21 4 17 11 -4 6 -19 7 -35
4 -19 -4 -49 3 -91 20 -35 15 -73 28 -84 30 -11 2 -51 13 -90 24 -38 11 -83
23 -100 27 l-30 6 33 13 c17 8 32 19 32 24 0 14 -60 -8 -67 -25 -5 -15 -49
-19 -78 -8 -12 5 -5 12 27 27 29 14 38 21 26 24 -16 4 -66 -21 -79 -40 -3 -5
-26 -7 -50 -5 l-44 3 35 22 c25 16 30 23 17 23 -11 0 -33 -10 -50 -22 -31 -22
-74 -30 -83 -16 -3 4 -2 8 3 8 4 0 19 10 33 21 l25 20 -25 -7 c-14 -4 -36 -15
-49 -25 -13 -11 -38 -19 -55 -19 l-31 0 33 21 c49 32 32 33 -27 4 -59 -30
-108 -31 -53 -1 19 9 31 20 28 23 -3 4 -28 -6 -55 -20 -60 -33 -95 -37 -60 -7
33 27 18 25 -47 -6 -31 -14 -58 -23 -62 -19 -4 3 1 11 11 16 9 6 17 14 17 19
0 6 -22 -2 -49 -17 -27 -16 -53 -24 -57 -20 -5 4 -2 12 6 17 26 16 -11 12 -40
-5 -35 -20 -57 -20 -40 0 16 19 6 19 -36 -1 -19 -9 -38 -14 -41 -10 -3 3 -1 6
5 6 7 0 12 5 12 10 0 16 -14 12 -38 -10 -12 -11 -29 -20 -39 -20 -17 1 -17 2
1 15 11 8 17 18 13 21 -3 3 -18 -3 -33 -15 -15 -11 -39 -21 -53 -21 -14 0 -38
-11 -53 -25 -31 -29 -66 -33 -75 -8 -8 19 33 57 54 49 7 -3 13 1 13 9 0 8 -5
15 -11 15 -5 0 -8 4 -4 9 3 5 -1 15 -8 23 -67 70 -58 127 15 95 100 -43 232
-51 538 -34 174 9 187 11 420 46 36 5 108 15 160 21 52 7 106 15 120 20 14 5
45 11 71 14 l45 5 0 -36 c0 -49 48 -93 103 -93 32 0 44 6 70 35 35 40 39 71
15 117 -14 27 -14 32 -1 45 34 34 132 -27 160 -100 3 -9 11 -17 17 -17 13 0
13 1 -10 56 -11 26 -19 47 -18 48 6 2 73 33 100 46 25 12 34 10 103 -24 42
-21 83 -35 92 -32 12 5 45 -11 82 -41 3 -2 -4 -9 -14 -17 -23 -16 -4 -31 22
-17 10 5 26 12 36 15 22 7 13 26 -11 26 -9 0 -24 5 -32 11 -11 8 6 9 62 6 42
-2 103 0 135 5 32 5 74 11 93 13 19 3 65 10 102 17 61 10 70 9 88 -7 11 -10
17 -21 15 -26 -11 -17 11 -16 29 2 18 18 18 18 -8 25 -14 3 -26 10 -26 14 0
13 320 22 379 11 65 -13 61 -13 61 -1 0 16 -71 30 -154 30 l-79 0 19 21 c45
51 208 159 239 159 3 0 -29 -33 -72 -74 -43 -41 -74 -78 -70 -82 4 -5 25 10
45 33 43 48 108 91 172 114 56 20 60 21 60 10z m505 -81 c3 -5 -4 -11 -15 -15
-11 -3 -20 -10 -20 -14 0 -5 -25 -27 -55 -50 -40 -30 -64 -41 -90 -41 -25 0
-35 4 -35 16 0 21 52 72 98 94 38 19 108 24 117 10z m142 -34 c3 -2 -10 -11
-29 -20 -18 -9 -56 -34 -84 -55 -50 -38 -53 -39 -98 -29 -25 5 -46 13 -46 17
0 12 90 74 125 87 27 10 122 10 132 0z m63 -45 c37 -6 41 -9 25 -16 -11 -5
-48 -28 -82 -52 l-63 -44 -41 22 c-23 11 -37 24 -33 29 5 4 29 22 53 39 45 32
64 35 141 22z m98 -57 c12 -4 22 -9 22 -13 0 -3 -26 -21 -56 -40 -31 -19 -58
-40 -61 -46 -6 -16 -83 22 -83 41 0 7 17 25 38 38 37 25 92 32 140 20z m-2463
-32 c6 -4 17 -16 25 -27 15 -19 14 -19 -10 -2 -33 23 -76 21 -101 -4 -30 -30
-22 -70 18 -89 40 -18 43 -35 6 -25 -16 4 -28 7 -29 8 0 1 -8 14 -17 29 -22
36 -21 60 4 92 15 20 29 26 57 26 20 0 42 -4 47 -8z m2533 -37 c6 -6 10 -4
-52 -35 -28 -14 -52 -32 -54 -40 -4 -11 0 -10 16 4 25 21 102 28 126 11 19
-14 11 -25 -18 -25 -12 0 -32 -9 -46 -20 -14 -11 -29 -20 -33 -20 -18 0 -87
65 -87 82 0 37 120 71 148 43z m-2558 -52 c0 -7 -4 -13 -9 -13 -10 0 -21 25
-21 48 1 15 3 14 15 -2 8 -11 15 -26 15 -33z m2601 -63 c22 -12 25 -30 6 -30
-19 0 -67 -24 -67 -33 0 -4 16 -5 35 -1 23 4 35 2 35 -5 0 -6 -6 -11 -14 -11
-17 0 -26 -22 -19 -48 2 -11 0 -23 -6 -26 -6 -4 -11 1 -11 11 0 11 -13 39 -29
64 l-28 45 24 22 c27 24 45 27 74 12z m-78 -331 c-21 -70 -31 -88 -93 -156
-60 -67 -146 -128 -237 -169 -32 -15 -94 -43 -138 -64 -119 -56 -379 -127
-470 -128 -44 -1 -217 -22 -227 -28 -5 -4 -71 -8 -147 -10 -177 -5 -626 -23
-716 -30 -183 -12 -583 -52 -609 -60 -10 -3 -52 -7 -95 -9 -42 -2 -87 -7 -101
-13 -14 -5 -63 -20 -110 -32 -103 -28 -174 -64 -205 -105 -13 -16 -42 -66 -65
-110 -40 -77 -56 -94 -166 -180 -34 -27 -84 -34 -84 -12 0 7 -9 19 -19 27 -11
7 -17 18 -14 23 3 6 -2 16 -11 22 -15 11 -8 19 56 61 40 27 91 62 113 79 22
16 52 37 65 46 l25 16 -40 -2 c-22 -1 -41 -3 -42 -5 -2 -1 -6 -3 -10 -4 -15
-3 -159 -85 -192 -110 -25 -18 -38 -23 -45 -15 -15 14 60 77 139 118 46 23 82
33 136 37 41 4 81 13 90 20 8 8 20 14 25 14 6 0 38 18 71 40 34 22 68 37 76
35 7 -3 24 -1 38 5 21 9 20 9 -10 4 -45 -8 -33 9 21 29 70 26 398 90 521 103
21 2 41 6 46 8 4 3 47 7 96 11 50 3 110 8 135 10 79 8 150 15 340 30 102 9
196 18 210 21 15 2 78 7 140 9 117 4 220 18 243 32 6 4 41 9 77 9 36 1 108 13
160 26 52 14 140 33 195 42 84 14 142 26 200 40 105 27 208 58 235 71 14 8 65
33 114 56 99 49 210 143 252 215 33 56 46 48 27 -17z m-673 -253 c0 -2 -7 -7
-16 -10 -8 -3 -12 -2 -9 4 6 10 25 14 25 6z m-315 -126 c-3 -5 -16 -10 -28 -9
-20 1 -20 2 3 9 14 4 26 8 28 9 2 1 0 -3 -3 -9z m-2316 -420 c-81 -8 -146 -34
-228 -94 -54 -38 -78 -49 -86 -36 -9 14 82 76 160 109 60 26 82 30 150 29 l80
-1 -76 -7z m11 -44 c0 -3 -24 -21 -52 -41 -29 -20 -82 -56 -117 -80 -68 -48
-92 -56 -84 -27 5 19 110 90 159 107 17 5 41 18 55 27 24 17 39 22 39 14z"/>
<path d="M2990 3672 c0 -5 7 -17 15 -28 14 -19 14 -19 15 2 0 12 -7 24 -15 28
-8 3 -15 2 -15 -2z"/>
<path d="M2075 3660 c-3 -5 6 -12 20 -16 35 -9 41 0 10 14 -14 7 -27 8 -30 2z"/>
<path d="M3124 3633 c4 -31 23 -37 40 -11 12 19 10 23 -21 32 -19 6 -21 4 -19
-21z"/>
<path d="M3344 3634 c3 -9 6 -20 6 -25 0 -6 8 -5 20 1 11 6 20 15 20 21 0 6
-4 8 -9 4 -5 -3 -12 -1 -16 5 -10 16 -28 11 -21 -6z"/>
<path d="M2893 3616 c10 -22 14 -23 26 -11 17 16 15 20 -16 29 -20 6 -21 5
-10 -18z"/>
<path d="M3475 3631 c-2 -5 5 -11 16 -14 13 -4 18 -10 14 -18 -5 -7 -3 -10 6
-7 8 3 14 11 14 18 0 15 -42 33 -50 21z"/>
<path d="M2533 3615 c4 -9 7 -21 7 -26 0 -4 7 -6 15 -3 21 8 19 21 -7 35 -18
10 -20 9 -15 -6z"/>
<path d="M2670 3620 c0 -5 5 -10 10 -10 6 0 10 -9 10 -20 0 -25 5 -25 31 -2
19 19 19 19 -6 30 -32 15 -45 15 -45 2z"/>
<path d="M2100 3610 c0 -12 8 -12 35 0 18 8 17 9 -7 9 -16 1 -28 -3 -28 -9z"/>
<path d="M2380 3600 c0 -4 7 -11 17 -14 14 -6 14 -8 -3 -21 -23 -17 -14 -19
20 -4 29 14 70 4 46 -11 -8 -5 -11 -12 -7 -16 4 -5 17 1 28 12 l20 21 -60 20
c-34 12 -61 18 -61 13z"/>
<path d="M3250 3605 c0 -3 9 -15 19 -26 14 -15 21 -17 26 -8 5 7 1 18 -10 26
-19 13 -35 17 -35 8z"/>
<path d="M2996 3590 c14 -14 58 -18 64 -5 3 6 -13 11 -35 13 -29 2 -37 0 -29
-8z"/>
<path d="M3665 3590 c3 -5 10 -10 16 -10 5 0 9 5 9 10 0 6 -7 10 -16 10 -8 0
-12 -4 -9 -10z"/>
<path d="M2125 3580 c4 -6 11 -8 16 -5 14 9 11 15 -7 15 -8 0 -12 -5 -9 -10z"/>
<path d="M2780 3583 c0 -5 5 -15 10 -23 9 -13 11 -13 19 0 5 8 7 18 5 22 -6
10 -34 11 -34 1z"/>
<path d="M3602 3579 c2 -7 10 -15 17 -17 8 -3 12 1 9 9 -2 7 -10 15 -17 17 -8
3 -12 -1 -9 -9z"/>
<path d="M3440 3571 c0 -5 7 -14 15 -21 12 -10 19 -10 28 -1 9 9 9 14 -3 21
-19 12 -40 13 -40 1z"/>
<path d="M2580 3560 c0 -5 5 -10 11 -10 5 0 8 -4 4 -9 -11 -19 13 -20 29 -2
15 17 16 19 1 25 -25 9 -45 7 -45 -4z"/>
<path d="M1960 3550 c0 -5 5 -10 11 -10 5 0 7 5 4 10 -3 6 -8 10 -11 10 -2 0
-4 -4 -4 -10z"/>
<path d="M2307 3540 c3 -11 11 -19 17 -17 17 6 13 31 -6 35 -12 2 -15 -2 -11
-18z"/>
<path d="M2120 3540 c-57 -17 -150 -30 -214 -30 -50 0 -67 -3 -63 -12 5 -15
118 -13 206 2 69 13 162 13 194 1 15 -6 26 -20 29 -35 5 -26 0 -30 -34 -27
-10 1 -18 -2 -18 -8 0 -5 17 -11 38 -13 75 -6 39 -77 -63 -123 -58 -27 -125
-31 -132 -8 -3 7 5 10 21 9 14 -2 23 1 20 5 -3 5 5 9 18 10 16 0 10 5 -22 17
-48 18 -110 50 -110 57 0 5 53 -11 78 -24 11 -6 36 -11 54 -10 l33 1 -30 8
c-16 4 -50 17 -75 28 l-45 20 45 -5 c25 -3 69 -8 98 -12 29 -5 55 -5 57 -1 3
5 -34 13 -83 19 -48 7 -97 14 -109 17 -16 3 -23 -2 -29 -18 -4 -13 -11 -26
-17 -30 -6 -4 8 -14 31 -23 23 -10 42 -24 42 -32 0 -10 -5 -13 -17 -8 -10 4
-24 9 -30 12 -7 3 -13 0 -13 -6 0 -6 4 -11 8 -11 5 0 23 -14 40 -31 30 -29 36
-31 85 -27 69 6 146 45 172 85 16 25 27 32 53 33 26 0 32 4 32 21 0 17 -4 20
-24 15 -28 -7 -40 2 -25 21 9 10 8 13 -5 13 -18 0 -22 25 -6 35 6 3 10 10 10
14 0 12 -92 41 -127 41 -16 0 -33 4 -38 9 -6 5 -21 5 -35 1z"/>
<path d="M2895 3521 c-6 -11 9 -23 19 -14 9 9 7 23 -3 23 -6 0 -12 -4 -16 -9z"/>
<path d="M2999 3528 c-5 -16 -4 -48 2 -48 7 0 19 25 19 41 0 8 -18 14 -21 7z"/>
<path d="M3119 3523 c-1 -5 -1 -11 0 -15 1 -8 -35 -12 -76 -8 -13 1 -23 -3
-23 -9 0 -6 3 -10 8 -10 33 5 72 -3 72 -15 0 -18 17 -29 31 -21 7 5 4 14 -7
26 -15 16 -15 19 -2 19 17 0 31 24 21 34 -9 8 -23 7 -24 -1z"/>
<path d="M3245 3521 c-6 -5 -23 -11 -40 -14 -17 -2 -4 -5 29 -6 51 -1 57 1 46
14 -14 17 -22 19 -35 6z"/>
<path d="M3355 3520 c3 -5 10 -10 16 -10 5 0 9 5 9 10 0 6 -7 10 -16 10 -8 0
-12 -4 -9 -10z"/>
<path d="M2800 3510 c0 -5 5 -10 10 -10 6 0 10 5 10 10 0 6 -4 10 -10 10 -5 0
-10 -4 -10 -10z"/>
<path d="M2590 3495 c0 -9 5 -15 10 -13 12 4 11 16 -1 24 -5 3 -9 -2 -9 -11z"/>
<path d="M2690 3500 c0 -5 5 -10 10 -10 6 0 10 5 10 10 0 6 -4 10 -10 10 -5 0
-10 -4 -10 -10z"/>
<path d="M3464 3502 c4 -7 15 -12 25 -12 11 0 18 -6 17 -12 0 -7 4 -13 9 -13
6 0 9 5 9 11 -1 6 9 9 22 6 14 -2 24 0 24 7 0 6 -8 11 -17 11 -10 0 -36 3 -57
7 -28 4 -37 3 -32 -5z"/>
<path d="M2370 3490 c0 -5 7 -10 15 -10 8 0 15 5 15 10 0 6 -7 10 -15 10 -8 0
-15 -4 -15 -10z"/>
<path d="M2470 3490 c0 -5 7 -10 15 -10 8 0 15 5 15 10 0 6 -7 10 -15 10 -8 0
-15 -4 -15 -10z"/>
<path d="M2810 3480 l-65 -7 75 -1 c41 -1 82 3 90 8 17 11 9 11 -100 0z"/>
<path d="M3672 3479 c2 -7 33 -19 69 -27 105 -23 120 -31 113 -58 -7 -26 5
-31 24 -12 9 9 15 8 26 -8 9 -12 11 -23 5 -28 -14 -15 -11 -26 6 -26 8 0 15 5
15 11 0 5 5 7 10 4 6 -3 10 -17 10 -30 0 -13 5 -27 10 -30 6 -4 10 7 10 27 0
26 -10 42 -57 85 -38 35 -71 57 -97 63 -23 6 -54 14 -71 19 -75 23 -77 23 -73
10z"/>
<path d="M3217 3473 c-13 -12 -7 -23 13 -23 11 0 20 7 20 15 0 15 -21 21 -33
8z"/>
<path d="M3310 3472 c0 -14 11 -21 26 -15 21 8 17 23 -6 23 -11 0 -20 -4 -20
-8z"/>
<path d="M3423 3468 c2 -7 7 -13 12 -13 5 0 10 6 13 13 2 6 -4 12 -13 12 -9 0
-15 -6 -12 -12z"/>
<path d="M2395 3460 c-3 -5 -15 -10 -26 -10 -10 0 -19 -4 -19 -10 0 -11 46
-11 135 0 58 7 43 14 -23 10 -18 -1 -39 3 -47 10 -9 7 -15 8 -20 0z"/>
<path d="M2623 3463 c9 -2 25 -2 35 0 9 3 1 5 -18 5 -19 0 -27 -2 -17 -5z"/>
<path d="M2974 3459 c-10 -17 13 -36 27 -22 12 12 4 33 -11 33 -5 0 -12 -5
-16 -11z"/>
<path d="M3590 3460 c0 -5 5 -10 10 -10 6 0 10 5 10 10 0 6 -4 10 -10 10 -5 0
-10 -4 -10 -10z"/>
<path d="M2020 3449 l-75 -5 88 -2 c48 -1 87 0 87 2 0 9 -30 11 -100 5z"/>
<path d="M2130 3456 c0 -2 16 -6 35 -8 19 -2 35 0 35 4 0 4 -16 8 -35 8 -19 0
-35 -2 -35 -4z"/>
<path d="M2860 3440 c0 -11 7 -20 15 -20 8 0 15 9 15 20 0 11 -7 20 -15 20 -8
0 -15 -9 -15 -20z"/>
<path d="M2745 3440 c-3 -6 1 -13 10 -16 19 -8 30 0 20 15 -8 14 -22 14 -30 1z"/>
<path d="M3670 3440 c0 -5 5 -10 10 -10 6 0 10 5 10 10 0 6 -4 10 -10 10 -5 0
-10 -4 -10 -10z"/>
<path d="M2564 3427 c-7 -20 3 -37 22 -37 18 0 18 24 -1 40 -12 10 -16 9 -21
-3z"/>
<path d="M2650 3426 c0 -17 27 -29 35 -16 4 6 3 15 0 20 -9 15 -35 12 -35 -4z"/>
<path d="M2473 3416 c-30 -14 -29 -22 2 -30 33 -8 44 -1 38 24 -6 22 -8 22
-40 6z"/>
<path d="M3780 3420 c0 -5 7 -10 16 -10 8 0 12 5 9 10 -3 6 -10 10 -16 10 -5
0 -9 -4 -9 -10z"/>
<path d="M1376 3375 c-26 -20 0 -20 34 0 22 13 23 14 5 14 -11 0 -29 -6 -39
-14z"/>
<path d="M1885 3371 c-6 -11 55 -44 64 -35 6 6 -36 44 -50 44 -4 0 -10 -4 -14
-9z"/>
<path d="M1450 3354 l-25 -15 30 6 c17 4 34 11 40 16 15 15 -17 10 -45 -7z"/>
<path d="M2161 3346 c12 -10 60 -16 54 -6 -3 5 -18 10 -32 10 -15 0 -24 -2
-22 -4z"/>
<path d="M1530 3330 c0 -5 4 -10 9 -10 6 0 13 5 16 10 3 6 -1 10 -9 10 -9 0
-16 -4 -16 -10z"/>
<path d="M1580 3297 c0 -13 27 -26 53 -27 14 0 7 18 -10 24 -10 3 -24 9 -30
12 -7 3 -13 -1 -13 -9z"/>
<path d="M3916 3291 c-3 -5 1 -14 9 -21 12 -10 15 -10 15 3 0 19 -16 31 -24
18z"/>
<path d="M1770 3220 c0 -5 10 -10 23 -10 18 0 19 2 7 10 -19 13 -30 13 -30 0z"/>
<path d="M1940 3190 c20 -13 50 -13 50 0 0 6 -15 10 -32 10 -25 0 -29 -3 -18
-10z"/>
<path d="M2646 2661 c-4 -5 3 -7 14 -4 23 6 26 13 6 13 -8 0 -17 -4 -20 -9z"/>
<path d="M2466 2642 c-2 -4 14 -6 37 -4 68 5 76 10 20 11 -28 0 -54 -2 -57 -7z"/>
<path d="M922 2267 c-26 -24 -77 -65 -114 -92 -37 -27 -66 -50 -64 -52 7 -7
123 79 184 134 31 29 53 53 49 53 -4 0 -29 -19 -55 -43z"/>
<path d="M975 2270 c-10 -11 -13 -20 -8 -20 13 0 38 29 31 35 -3 3 -13 -4 -23
-15z"/>
<path d="M908 2193 c-13 -16 -47 -47 -74 -70 -27 -24 -44 -43 -39 -43 14 0
163 139 149 140 -6 0 -22 -12 -36 -27z"/>
<path d="M7434 3874 c-122 -12 -151 -17 -299 -55 -174 -45 -347 -78 -480 -94
-77 -9 -166 -21 -198 -26 -32 -6 -77 -12 -100 -15 -169 -20 -396 -68 -522
-110 -77 -26 -147 -52 -155 -58 -8 -7 -42 -23 -75 -36 -33 -13 -71 -32 -84
-42 -13 -10 -32 -18 -42 -18 -9 0 -19 -4 -21 -8 -1 -5 -30 -27 -63 -51 -117
-82 -137 -98 -147 -114 -25 -45 27 -48 118 -7 62 28 67 29 90 13 23 -15 26
-15 48 6 12 11 32 21 44 21 13 0 33 7 47 16 19 13 27 13 44 2 17 -10 24 -9 43
8 13 11 34 21 47 22 13 0 36 12 50 25 21 20 31 23 50 16 19 -8 29 -5 46 11 16
15 30 19 48 15 19 -5 34 -1 52 14 18 13 35 18 53 15 15 -3 40 1 56 10 22 11
33 12 47 3 14 -9 22 -7 37 6 22 20 58 22 65 5 3 -10 9 -8 24 5 22 19 46 22 72
7 14 -7 23 -5 36 10 21 23 55 26 74 8 10 -11 15 -9 26 6 10 14 21 17 40 12 15
-4 32 -3 38 2 7 5 48 13 92 17 98 9 465 12 465 4 0 -7 -296 -32 -307 -26 -4 2
-33 1 -63 -3 -33 -5 -60 -4 -67 2 -9 7 -18 6 -28 -2 -9 -7 -28 -15 -43 -17
-15 -1 -44 -6 -64 -9 -25 -4 -38 -2 -38 5 0 7 -15 4 -39 -8 -21 -11 -41 -18
-44 -15 -3 3 -22 1 -43 -5 -32 -9 -40 -8 -47 5 -8 14 -11 13 -29 -6 -11 -12
-26 -19 -34 -16 -7 3 -27 -2 -45 -11 -25 -12 -36 -13 -50 -5 -18 12 -49 7 -49
-8 0 -4 -19 -15 -42 -25 -40 -16 -43 -15 -55 1 -11 15 -16 14 -53 -20 -44 -39
-58 -44 -66 -21 -9 24 -20 18 -60 -30 -48 -59 -38 -73 38 -52 29 9 82 21 118
27 36 7 85 16 110 21 25 5 95 15 155 24 61 8 128 18 150 24 72 16 388 34 515
28 92 -5 157 -14 245 -37 208 -53 308 -70 432 -73 173 -3 374 4 401 14 13 5
97 12 186 15 176 7 201 8 326 21 120 13 321 7 458 -13 64 -10 133 -19 152 -21
19 -2 51 -5 70 -7 52 -5 141 -34 162 -53 19 -17 24 -67 9 -105 -15 -38 -96
-112 -158 -145 -32 -16 -98 -42 -148 -57 -49 -16 -98 -32 -107 -37 -10 -5 -27
-9 -37 -9 -11 0 -57 -9 -103 -20 -111 -26 -374 -49 -643 -54 -121 -3 -266 -7
-322 -10 -74 -3 -103 -1 -103 8 0 6 -16 33 -35 60 -30 43 -44 53 -102 73 -73
26 -249 42 -318 29 -29 -6 -35 -11 -30 -24 26 -63 6 -84 -118 -123 -82 -26
-107 -40 -150 -79 -51 -46 -54 -48 -117 -49 -89 -2 -254 -18 -315 -31 -27 -6
-99 -16 -158 -22 -122 -13 -190 -4 -287 37 -96 41 -143 48 -259 42 -83 -4
-118 -11 -154 -28 -57 -28 -62 -49 -10 -49 36 0 153 -33 183 -51 8 -5 22 -12
30 -15 54 -21 110 -50 110 -56 0 -5 -20 -35 -45 -69 -25 -34 -45 -65 -45 -70
0 -5 -23 -44 -51 -87 -59 -89 -73 -119 -58 -128 6 -3 27 5 47 18 42 28 129 69
187 89 23 8 74 46 121 89 109 100 110 100 137 100 14 0 44 7 68 16 24 9 58 18
74 19 17 1 66 8 110 15 44 7 126 11 182 11 61 -1 111 3 124 10 15 8 19 8 15 0
-4 -6 0 -11 9 -11 10 0 13 5 9 13 -6 9 -4 9 7 1 8 -6 52 -12 99 -13 46 -1 91
-6 100 -11 8 -4 37 -11 64 -15 49 -8 182 -71 221 -106 31 -27 71 -34 99 -16
13 9 50 39 81 66 32 28 76 56 97 63 21 6 38 14 38 17 0 4 51 3 113 -2 61 -4
200 -6 307 -3 107 3 242 6 300 8 155 3 232 -22 296 -96 21 -25 42 -46 45 -46
8 0 80 69 99 95 8 11 42 40 75 65 33 25 65 50 72 56 7 7 30 12 52 12 22 0 50
6 61 12 12 7 64 22 117 35 52 13 100 28 106 33 7 5 30 15 52 22 48 15 133 61
196 107 26 18 52 33 58 33 6 0 28 16 49 35 20 19 49 45 65 59 15 14 27 29 27
33 0 5 16 26 35 48 44 51 73 126 87 228 13 97 8 139 -25 211 -21 44 -33 58
-63 71 -21 9 -41 19 -44 24 -10 14 -96 69 -134 85 -21 9 -68 21 -104 27 -37 5
-71 14 -77 19 -5 4 -26 9 -45 11 -19 2 -43 9 -52 17 -12 10 -30 12 -62 8 -37
-6 -44 -4 -42 10 1 13 -8 17 -39 18 -22 1 -49 -2 -59 -7 -15 -8 -18 -6 -13 7
12 32 -69 50 -93 21 -16 -19 -44 -20 -37 -1 9 23 -1 25 -56 10 -29 -8 -53 -14
-55 -14 -2 0 -2 8 0 18 4 21 -31 24 -86 5 -49 -16 -66 -16 -43 1 35 27 18 33
-55 20 -40 -7 -83 -16 -96 -20 -18 -5 -21 -3 -16 10 6 15 0 17 -57 12 -35 -3
-79 -10 -97 -15 l-34 -10 17 26 17 26 -48 -7 c-27 -3 -73 -9 -102 -12 -29 -4
-48 -10 -42 -14 6 -4 32 -3 58 1 26 4 58 8 71 8 20 1 22 -1 11 -14 -20 -24 -7
-27 75 -16 99 14 100 14 86 -3 -20 -24 12 -26 94 -5 93 23 89 23 81 4 -9 -23
21 -30 71 -17 36 10 48 10 65 -2 13 -9 33 -12 55 -9 19 3 44 0 58 -7 18 -10
31 -10 56 -1 44 15 69 14 69 -4 0 -12 13 -15 55 -15 34 0 55 -4 55 -11 0 -9
-26 -10 -92 -5 -51 3 -176 9 -278 11 -102 3 -210 7 -240 10 -30 3 -84 8 -120
11 -36 3 -94 10 -130 15 -36 6 -81 12 -100 14 -83 8 -156 17 -170 22 -8 3 -23
8 -33 9 -9 2 -43 13 -75 23 -180 60 -345 76 -558 55z m219 -15 c21 0 21 -1 2
-9 -18 -8 -17 -9 7 -9 15 -1 29 -5 32 -10 8 -12 46 -21 46 -11 0 4 -15 13 -32
20 -51 19 -21 21 67 6 122 -22 175 -38 175 -53 0 -7 6 -13 13 -14 6 0 23 -2
37 -3 14 -1 38 -3 53 -4 40 -3 25 -19 -26 -27 -54 -9 -154 -41 -189 -61 -52
-29 -141 -54 -192 -54 -57 0 -93 -14 -64 -25 44 -17 211 14 255 47 27 21 88
48 109 48 11 0 36 8 55 17 25 13 67 18 169 20 135 4 156 1 280 -39 78 -24 200
-102 200 -126 0 -4 -37 -20 -82 -36 -46 -16 -94 -37 -108 -46 -41 -27 -140
-67 -210 -85 -101 -26 -229 -16 -355 27 -100 34 -185 48 -185 30 0 -5 22 -12
50 -16 27 -4 91 -20 142 -37 187 -62 348 -49 543 46 108 52 221 95 250 95 8 0
15 3 15 6 0 14 -106 92 -185 136 -31 18 -40 27 -25 23 26 -5 95 -9 420 -25
193 -9 474 -35 490 -45 5 -3 8 -14 7 -24 -1 -16 -9 -19 -45 -19 -49 0 -72 -12
-26 -13 62 -2 124 -15 162 -35 33 -17 66 -19 56 -2 -5 8 0 9 17 5 13 -4 30 -7
37 -7 6 0 12 -7 12 -15 0 -8 18 -26 40 -40 39 -24 55 -50 25 -39 -23 9 -18
-10 10 -34 19 -16 25 -32 25 -59 l-1 -38 -29 35 c-17 19 -30 42 -30 52 0 10
-11 23 -24 28 -13 5 -27 13 -30 19 -10 15 -136 83 -147 79 -11 -4 81 -68 97
-68 5 0 24 -16 43 -35 37 -37 36 -61 -2 -29 -50 45 -154 78 -280 89 -20 2 -45
6 -55 9 -9 2 -93 7 -187 11 -93 3 -197 8 -229 12 -39 4 -57 2 -53 -4 4 -6 72
-14 154 -17 254 -12 293 -16 372 -38 42 -11 92 -22 111 -23 70 -4 108 -17 148
-54 23 -20 42 -42 42 -50 0 -8 6 -11 16 -7 8 3 24 -2 35 -12 23 -23 21 -86 -5
-123 -9 -13 -16 -31 -16 -40 0 -10 -28 -42 -62 -73 -73 -65 -71 -89 2 -27 67
57 64 36 -4 -26 -51 -47 -121 -81 -201 -98 -16 -4 -47 -13 -68 -21 -86 -32
-58 -6 64 60 26 14 53 31 60 39 8 7 41 33 74 57 68 51 89 73 73 79 -6 2 -20
-7 -32 -21 -11 -13 -39 -37 -61 -53 -22 -16 -51 -38 -65 -50 -14 -12 -38 -27
-55 -33 -28 -12 -29 -11 -10 4 11 8 19 19 18 24 -2 5 4 7 12 4 10 -4 38 17 80
61 52 53 62 69 52 80 -9 10 -15 10 -26 1 -8 -6 -5 3 8 20 13 18 21 42 19 55
-3 23 -4 23 -23 -8 -10 -18 -25 -33 -32 -33 -7 0 -10 -6 -7 -13 2 -7 -4 -21
-15 -31 -11 -10 -17 -25 -14 -36 3 -12 -5 -25 -26 -41 -16 -12 -27 -27 -24
-32 4 -6 0 -8 -10 -4 -10 3 -17 2 -17 -3 0 -12 -40 -33 -48 -26 -3 4 5 14 17
23 26 18 81 100 81 121 0 8 11 27 25 44 26 31 32 48 15 48 -6 0 -16 -11 -22
-25 -6 -14 -15 -25 -19 -25 -14 0 -24 53 -11 58 14 4 16 32 2 32 -5 0 -13 -8
-19 -17 -9 -17 -12 -17 -58 1 -63 24 -96 30 -297 57 -149 19 -198 21 -390 16
-122 -4 -243 -8 -271 -11 -27 -2 -111 -7 -185 -11 -74 -4 -144 -9 -155 -11
-11 -3 -112 -8 -225 -13 -251 -10 -371 2 -620 59 -139 32 -207 41 -315 41
-129 0 -272 -7 -345 -17 -25 -3 -58 -8 -75 -10 -135 -17 -268 -36 -365 -54
-194 -35 -188 -35 -165 -17 35 25 140 56 335 98 71 15 196 32 316 43 17 2 36
6 42 10 6 3 62 9 124 11 110 5 263 17 381 30 72 9 78 31 10 41 -64 10 -387 11
-488 2 -101 -9 -230 -24 -320 -38 -38 -6 -86 -13 -105 -15 -19 -3 -60 -10 -90
-16 -30 -6 -68 -12 -85 -14 -33 -5 -274 -67 -345 -90 -25 -8 -99 -28 -165 -45
-66 -17 -138 -39 -160 -49 -57 -26 -85 -34 -85 -23 0 5 12 18 27 28 15 9 32
21 38 26 28 23 193 117 300 170 66 32 128 63 137 69 10 5 30 9 45 8 l28 -1
-25 -8 c-23 -8 -22 -8 9 -7 24 1 35 7 39 20 3 13 7 15 12 6 7 -10 15 -9 42 1
18 8 37 20 41 27 4 7 17 13 29 13 11 0 46 6 77 14 31 8 79 17 106 21 28 3 57
8 66 11 10 2 30 6 45 8 16 2 97 13 179 25 83 11 195 25 250 30 84 9 222 36
335 68 22 6 24 5 11 -10 -7 -9 -17 -14 -22 -11 -5 3 -9 0 -9 -5 0 -14 1 -14
56 5 25 8 53 13 61 10 9 -4 21 -2 27 3 6 5 20 11 31 14 19 4 18 5 -2 6 -12 0
-25 -3 -28 -9 -4 -6 -13 -5 -25 2 -14 9 -25 9 -44 0 -14 -6 -26 -8 -26 -3 0
10 201 59 270 65 25 3 75 8 113 11 45 5 67 3 67 -4 0 -6 17 -10 38 -10 20 1
29 3 19 6 -9 2 -14 9 -11 14 3 6 13 8 21 5 8 -3 24 -6 36 -7z m1993 -260 c17
-5 42 -19 56 -32 13 -12 43 -35 65 -50 46 -31 64 -53 92 -110 18 -35 18 -37 2
-32 -13 4 -22 -7 -39 -45 -12 -28 -22 -62 -22 -76 0 -23 2 -25 15 -14 9 7 13
15 11 18 -3 2 4 16 14 30 11 13 20 31 20 38 0 8 4 14 9 14 32 0 6 -203 -31
-244 -10 -11 -18 -24 -18 -29 0 -24 -171 -192 -224 -221 -12 -7 -47 -28 -78
-49 -31 -20 -81 -46 -110 -58 -59 -23 -298 -102 -313 -104 -5 0 -30 -7 -54
-14 -24 -7 -67 -15 -95 -17 -28 -2 -73 -8 -101 -14 -27 -5 -133 -19 -235 -30
-102 -11 -210 -23 -240 -26 -68 -7 -491 -6 -620 2 -52 3 -102 6 -110 6 -8 0
-94 4 -190 10 -266 15 -455 14 -609 -3 -42 -4 -146 -15 -231 -24 -163 -17
-301 -46 -360 -76 -19 -10 -64 -45 -100 -79 -47 -45 -91 -75 -157 -106 -51
-24 -96 -44 -101 -44 -5 0 -18 -9 -31 -21 -25 -23 -41 -18 -21 6 13 15 38 28
140 70 55 23 100 54 165 116 28 26 61 57 75 68 14 11 21 20 17 21 -16 0 -67
-31 -67 -41 0 -20 -150 -139 -175 -139 -4 0 -30 -11 -57 -25 -28 -14 -53 -23
-56 -21 -9 10 17 32 65 56 64 32 146 84 162 104 22 27 3 18 -52 -23 -54 -40
-136 -85 -143 -78 -2 2 16 34 41 70 25 37 45 71 45 76 0 16 37 41 63 43 15 1
27 6 27 11 0 5 -7 7 -15 3 -8 -3 -15 -1 -15 4 0 5 34 8 75 6 41 -2 75 1 75 5
0 5 -10 9 -23 9 -13 0 -59 18 -103 39 -82 40 -146 52 -209 37 -22 -5 -45 0
-78 14 -42 19 -62 40 -38 40 5 0 24 2 42 5 29 4 30 3 9 -4 -19 -7 -9 -9 43
-10 40 -1 66 3 62 8 -12 20 158 -2 185 -23 29 -23 135 -49 194 -48 51 2 57 0
46 -13 -7 -9 -8 -15 -2 -15 5 0 12 6 15 14 4 9 26 17 54 21 26 3 98 15 158 25
61 11 148 22 195 25 47 3 114 8 150 11 36 3 83 6 105 8 22 1 96 10 165 20 298
40 340 45 425 51 50 4 117 9 150 11 89 8 214 13 460 19 121 3 240 8 264 11 29
4 41 2 36 -5 -3 -6 -17 -11 -31 -11 -14 0 -23 -4 -20 -8 3 -5 42 -3 88 5 46 7
143 15 215 18 73 2 151 9 172 15 22 6 43 9 48 8 16 -4 118 13 133 22 10 7 5 8
-17 4 -53 -10 -38 3 25 21 61 18 64 19 157 30 33 4 65 11 70 14 6 4 46 18 90
31 102 30 148 62 217 147 75 93 119 189 121 262 1 46 -4 65 -28 105 -17 28
-44 56 -63 65 -17 9 -32 24 -32 33 0 12 -14 21 -42 29 -40 11 -68 32 -68 50 0
4 15 3 33 -2 17 -6 46 -15 63 -20z m-126 6 c-6 -11 -15 -11 -45 0 l-20 8 20
-17 c18 -16 18 -17 2 -12 -10 3 -25 6 -33 6 -20 0 -17 18 4 23 29 8 77 3 72
-8z m-3850 -275 c0 -5 -5 -10 -11 -10 -5 0 -7 5 -4 10 3 6 8 10 11 10 2 0 4
-4 4 -10z m4076 -76 c-14 -26 -15 -27 -16 -7 0 33 11 56 22 45 6 -6 4 -20 -6
-38z m-39 -76 c-3 -7 -5 -2 -5 12 0 14 2 19 5 13 2 -7 2 -19 0 -25z m-363
-193 c3 -8 0 -16 -7 -16 -7 -1 -19 -3 -27 -4 -8 -1 -21 -3 -28 -4 -7 0 -11 -5
-7 -10 3 -5 -4 -12 -15 -16 -11 -4 -18 -11 -15 -16 17 -26 -283 -96 -490 -114
-60 -5 -59 -5 25 16 47 11 112 25 144 31 33 5 69 16 80 23 12 7 37 16 56 20
50 9 115 34 190 72 73 37 85 39 94 18z m-1859 -55 c39 -5 85 -12 103 -16 50
-10 147 -114 126 -133 -5 -5 -35 -11 -66 -13 -43 -3 -58 -1 -58 8 0 14 -86 84
-104 84 -6 1 -29 9 -51 20 -22 11 -56 19 -75 19 l-35 -1 35 -7 c72 -15 237
-109 219 -125 -12 -10 -444 -56 -447 -47 -2 6 -26 13 -53 17 -27 4 -49 10 -49
15 0 9 65 29 97 29 12 0 23 5 25 10 2 6 19 13 38 16 27 4 44 0 74 -21 21 -14
41 -24 43 -21 3 3 -11 15 -31 27 -20 11 -36 23 -36 26 0 3 12 19 26 36 19 23
24 38 20 58 -5 27 -3 28 37 31 44 4 50 3 162 -12z m1095 -140 c-8 -5 -24 -9
-35 -9 -16 1 -16 2 5 9 35 11 48 11 30 0z m-1462 -75 c10 -10 -4 -13 -63 -15
-82 -2 -83 -2 -56 19 19 15 32 16 69 9 25 -4 48 -10 50 -13z m-1228 -35 c12
-8 11 -10 -7 -10 -13 0 -23 5 -23 10 0 13 11 13 30 0z m105 -80 l30 -8 -35 -2
c-35 -3 -35 -3 -5 -7 17 -3 36 -10 44 -16 12 -10 14 -9 8 6 -4 12 -1 17 9 17
10 0 14 -6 10 -15 -4 -11 1 -15 19 -15 13 0 27 -5 30 -11 8 -12 -105 -3 -140
10 -11 5 -32 13 -47 20 -63 24 -2 41 77 21z m2911 -65 c-31 -24 -76 -65 -102
-90 -49 -46 -64 -54 -64 -32 0 7 -11 24 -25 39 l-25 27 40 27 c54 36 51 42 -4
10 -25 -14 -52 -26 -61 -26 -23 0 -13 24 11 28 10 2 24 9 29 16 10 12 157 42
223 45 l33 1 -55 -45z m-1706 7 c0 -13 -22 -32 -38 -32 -7 0 -10 5 -6 12 5 8
2 9 -12 4 -23 -9 -14 -9 -111 -7 -94 1 -113 18 -25 23 155 8 192 8 192 0z
m1480 0 c0 -17 -74 -33 -105 -24 -28 8 -25 10 35 19 36 6 66 11 68 12 1 0 2
-3 2 -7z m-1407 -24 c-10 -11 -30 -18 -52 -18 l-36 1 23 19 c13 11 36 18 52
17 26 -2 27 -3 13 -19z m76 13 c24 -6 23 -7 -12 -31 -20 -14 -37 -29 -37 -33
0 -5 22 7 49 27 27 20 54 36 60 36 19 0 12 -18 -16 -39 -14 -12 -24 -23 -21
-26 2 -3 23 11 45 30 37 32 83 47 83 27 0 -9 -32 -37 -79 -69 -19 -13 -27 -23
-18 -23 8 0 34 16 58 36 53 44 92 65 107 55 7 -4 -20 -29 -68 -65 -44 -33 -77
-63 -74 -68 3 -5 11 -3 17 5 15 17 124 100 154 115 27 15 73 16 73 2 0 -5 -7
-10 -15 -10 -15 0 -54 -19 -65 -31 -3 -3 -26 -20 -52 -38 -26 -19 -49 -40 -52
-47 -7 -18 -55 -18 -75 0 -9 8 -49 31 -89 50 -39 20 -72 40 -72 44 0 4 14 16
30 26 17 9 28 22 25 27 -7 10 8 10 44 0z"/>
<path d="M7380 3823 c0 -5 36 -9 81 -10 51 -2 78 1 74 7 -7 11 -155 14 -155 3z"/>
<path d="M7865 3805 c22 -8 47 -14 55 -14 21 1 -51 27 -75 28 -11 0 -2 -6 20
-14z"/>
<path d="M7520 3790 c0 -6 12 -10 28 -10 15 -1 61 -3 102 -5 57 -3 65 -2 35 4
-73 15 -165 21 -165 11z"/>
<path d="M7760 3790 c0 -4 17 -10 38 -13 20 -3 45 -8 55 -12 10 -4 17 -3 17 4
0 6 -10 13 -22 16 -42 10 -88 12 -88 5z"/>
<path d="M7263 3758 c-13 -6 -23 -15 -23 -20 0 -5 14 -2 30 7 45 23 38 35 -7
13z"/>
<path d="M7545 3752 c28 -13 174 -24 154 -12 -8 5 -51 11 -95 15 -48 3 -71 2
-59 -3z"/>
<path d="M6991 3730 c-27 -23 -25 -24 18 -9 17 6 31 15 31 20 0 15 -24 10 -49
-11z"/>
<path d="M7318 3726 c-59 -39 -47 -106 21 -127 48 -14 91 3 105 44 9 24 6 31
-23 61 -43 44 -64 49 -103 22z m70 -28 c7 -7 12 -19 12 -27 -1 -13 -2 -13 -11
2 -11 19 -44 23 -54 7 -11 -18 17 -42 42 -37 24 4 31 -7 12 -18 -17 -11 -58 4
-70 26 -20 38 38 78 69 47z"/>
<path d="M7118 3708 c-32 -11 -58 -23 -58 -27 0 -8 126 32 137 43 11 11 -21 5
-79 -16z"/>
<path d="M7667 3698 c-7 -4 11 -8 40 -8 28 0 54 4 58 10 7 11 -80 9 -98 -2z"/>
<path d="M6815 3684 l-70 -13 65 4 c36 2 76 8 90 14 35 14 4 12 -85 -5z"/>
<path d="M6645 3680 c-27 -7 -27 -8 -5 -8 14 0 36 4 50 8 20 6 21 8 5 8 -11 0
-33 -4 -50 -8z"/>
<path d="M7143 3679 c-18 -5 -33 -14 -33 -20 0 -6 8 -6 21 1 11 7 24 8 27 4 4
-4 1 -9 -5 -11 -7 -3 -13 -9 -13 -15 0 -17 27 10 33 32 3 11 4 20 4 19 -1 0
-17 -5 -34 -10z"/>
<path d="M7550 3680 c0 -5 19 -10 42 -10 49 0 47 5 -4 14 -24 4 -38 3 -38 -4z"/>
<path d="M8005 3634 c-71 -24 -139 -44 -150 -44 -24 -1 -61 -27 -52 -36 4 -4
44 0 89 9 46 9 113 22 150 28 37 7 66 14 64 17 -3 2 -48 -4 -101 -13 -105 -18
-131 -16 -63 4 24 7 54 17 66 22 34 13 134 46 157 52 16 4 15 5 -5 5 -14 0
-83 -19 -155 -44z"/>
<path d="M6549 3666 c-2 -2 -33 -7 -69 -11 -73 -7 -146 -22 -115 -24 11 0 67
6 124 14 102 15 139 25 89 25 -13 0 -27 -2 -29 -4z"/>
<path d="M6698 3663 c6 -2 18 -2 25 0 6 3 1 5 -13 5 -14 0 -19 -2 -12 -5z"/>
<path d="M7510 3662 c0 -10 41 -24 49 -17 6 7 0 11 -26 19 -13 4 -23 3 -23 -2z"/>
<path d="M6606 3652 c-2 -4 13 -6 35 -4 21 2 39 6 39 8 0 7 -69 4 -74 -4z"/>
<path d="M8213 3648 c-18 -6 -33 -16 -33 -22 0 -6 -4 -5 -9 3 -7 11 -13 11
-32 -3 l-23 -16 29 0 c36 0 128 34 119 43 -9 8 -9 8 -51 -5z"/>
<path d="M8738 3653 c-34 -9 -18 -20 40 -27 31 -3 70 -8 85 -10 38 -5 21 11
-18 17 -16 3 -1 3 35 0 59 -4 79 3 34 11 -41 8 -160 14 -176 9z m45 -10 c-7
-2 -19 -2 -25 0 -7 3 -2 5 12 5 14 0 19 -2 13 -5z"/>
<path d="M6875 3628 c-84 -12 -61 -19 49 -14 59 2 110 6 113 9 8 9 -113 12
-162 5z"/>
<path d="M8980 3631 c0 -5 33 -10 73 -9 39 0 101 -5 137 -11 36 -6 74 -11 85
-10 42 1 -20 17 -111 28 -109 13 -184 14 -184 2z"/>
<path d="M8745 3610 c19 -8 73 -14 64 -6 -2 2 -22 6 -44 9 -28 5 -34 4 -20 -3z"/>
<path d="M6666 3598 c3 -4 11 -5 19 -1 21 7 19 12 -4 10 -11 0 -18 -5 -15 -9z"/>
<path d="M9020 3600 c0 -6 2 -10 4 -10 2 0 87 -18 190 -40 190 -41 214 -45
203 -33 -4 3 -57 16 -118 29 -61 13 -114 26 -118 30 -10 11 108 -5 187 -25 40
-10 69 -14 64 -9 -19 19 -141 41 -247 43 -60 2 -122 8 -137 14 -18 7 -28 7
-28 1z"/>
<path d="M6443 3593 c-46 -2 -83 -8 -83 -13 0 -9 123 -4 235 10 l60 7 -65 0
c-36 -1 -102 -3 -147 -4z"/>
<path d="M6215 3580 l-50 -7 55 0 c30 -1 66 3 80 7 24 8 24 8 -5 7 -16 0 -52
-3 -80 -7z"/>
<path d="M8385 3580 c-3 -5 3 -10 14 -10 11 0 23 5 26 10 3 6 -3 10 -14 10
-11 0 -23 -4 -26 -10z"/>
<path d="M8267 3573 c18 -2 50 -2 70 0 21 2 7 4 -32 4 -38 0 -55 -2 -38 -4z"/>
<path d="M6113 3563 c9 -2 25 -2 35 0 9 3 1 5 -18 5 -19 0 -27 -2 -17 -5z"/>
<path d="M8840 3559 c0 -5 26 -9 58 -8 64 1 60 5 -10 12 -27 2 -48 1 -48 -4z"/>
<path d="M9018 3560 c12 -5 57 -14 100 -19 42 -6 93 -13 112 -17 19 -4 33 -4
30 -1 -7 7 -142 34 -210 41 -39 4 -49 3 -32 -4z"/>
<path d="M6082 3540 c-45 -4 -86 -10 -89 -14 -13 -13 4 -15 38 -6 18 6 54 10
79 11 25 0 54 4 65 9 23 10 21 10 -93 0z"/>
<path d="M8024 3528 c-213 -12 -202 -16 30 -12 121 3 222 6 224 8 8 9 -132 11
-254 4z"/>
<path d="M5790 3479 c-19 -10 -40 -19 -47 -19 -7 0 -13 -4 -13 -10 0 -6 9 -6
25 0 36 14 85 40 85 45 0 9 -14 4 -50 -16z"/>
<path d="M5628 3437 c-31 -17 -55 -33 -53 -35 3 -3 87 38 115 57 32 23 -8 8
-62 -22z"/>
<path d="M7950 3461 c21 -13 320 -26 320 -15 0 5 -51 10 -113 11 -61 1 -137 4
-167 7 -34 3 -49 2 -40 -3z"/>
<path d="M9200 3380 c0 -5 5 -10 10 -10 6 0 10 5 10 10 0 6 -4 10 -10 10 -5 0
-10 -4 -10 -10z"/>
<path d="M9296 3314 c-5 -12 -2 -15 10 -10 8 3 22 6 30 6 8 0 14 5 14 10 0 17
-47 11 -54 -6z"/>
<path d="M9793 3454 c1 -10 6 -25 11 -32 4 -7 5 -20 2 -28 -4 -10 -1 -14 6
-12 22 7 21 53 -2 73 -20 18 -20 18 -17 -1z"/>
<path d="M9165 2850 c-18 -8 -17 -9 8 -9 15 -1 27 4 27 9 0 12 -8 12 -35 0z"/>
<path d="M7300 2670 c0 -5 5 -10 10 -10 6 0 10 5 10 10 0 6 -4 10 -10 10 -5 0
-10 -4 -10 -10z"/>
<path d="M7413 2668 c2 -7 7 -13 12 -13 5 0 10 6 13 13 2 6 -4 12 -13 12 -9 0
-15 -6 -12 -12z"/>
<path d="M7527 2673 c-12 -11 -8 -23 8 -23 8 0 15 7 15 15 0 16 -12 20 -23 8z"/>
<path d="M5945 2660 c3 -5 15 -10 25 -10 10 0 39 -9 65 -20 53 -23 55 -23 55
-12 0 7 -124 52 -144 52 -4 0 -4 -4 -1 -10z"/>
<path d="M7777 2663 c-12 -12 -7 -22 8 -17 8 4 15 10 15 15 0 11 -14 12 -23 2z"/>
<path d="M7660 2650 c0 -5 7 -10 16 -10 8 0 12 5 9 10 -3 6 -10 10 -16 10 -5
0 -9 -4 -9 -10z"/>
<path d="M6831 2633 c-18 -20 -4 -31 15 -11 9 9 12 18 7 21 -4 3 -14 -2 -22
-10z"/>
<path d="M6970 2629 c0 -5 5 -7 10 -4 6 3 10 8 10 11 0 2 -4 4 -10 4 -5 0 -10
-5 -10 -11z"/>
<path d="M7070 2625 c-8 -9 -8 -15 -2 -15 12 0 26 19 19 26 -2 2 -10 -2 -17
-11z"/>
<path d="M6715 2600 c-3 -5 -2 -10 4 -10 5 0 13 5 16 10 3 6 2 10 -4 10 -5 0
-13 -4 -16 -10z"/>
<path d="M6140 2593 c0 -13 52 -33 79 -32 15 0 19 3 11 6 -8 2 -29 11 -47 19
-35 16 -43 17 -43 7z"/>
<path d="M6901 2591 c-8 -5 -9 -11 -3 -15 5 -3 15 1 22 9 14 16 3 20 -19 6z"/>
<path d="M7630 2589 c0 -5 5 -7 10 -4 6 3 10 8 10 11 0 2 -4 4 -10 4 -5 0 -10
-5 -10 -11z"/>
<path d="M6570 2569 c0 -5 5 -7 10 -4 6 3 10 8 10 11 0 2 -4 4 -10 4 -5 0 -10
-5 -10 -11z"/>
<path d="M6435 2540 c-3 -5 1 -10 9 -10 9 0 16 5 16 10 0 6 -4 10 -9 10 -6 0
-13 -4 -16 -10z"/>
<path d="M6348 2523 c7 -3 16 -2 19 1 4 3 -2 6 -13 5 -11 0 -14 -3 -6 -6z"/>
<path d="M6103 2475 c-35 -6 -66 -15 -70 -19 -5 -5 6 -6 22 -2 17 3 47 8 69
10 36 5 54 12 45 19 -2 2 -32 -1 -66 -8z"/>
<path d="M6065 2436 c-11 -7 -40 -25 -63 -40 -24 -15 -41 -30 -38 -33 2 -3 24
8 48 24 24 16 51 32 61 36 9 3 17 11 17 17 0 12 0 12 -25 -4z"/>
<path d="M9198 2913 c7 -3 16 -2 19 1 4 3 -2 6 -13 5 -11 0 -14 -3 -6 -6z"/>
<path d="M7540 2896 c0 -3 16 -13 35 -22 20 -9 40 -25 46 -35 5 -11 14 -19 20
-19 15 0 -7 35 -33 52 -26 17 -68 32 -68 24z"/>
<path d="M7295 2849 c4 -5 14 -9 23 -9 10 0 41 -16 70 -35 28 -20 52 -31 52
-26 0 6 -20 22 -44 36 -49 29 -110 49 -101 34z"/>
<path d="M7160 2775 c0 -6 56 -35 67 -35 4 0 -7 9 -25 20 -33 20 -42 24 -42
15z"/>
<path d="M8749 2499 l-34 -31 33 22 c34 23 54 23 27 0 -8 -7 -15 -17 -15 -22
0 -5 12 2 26 16 15 13 32 22 39 20 6 -3 12 2 12 11 0 17 -6 19 -27 5 -9 -5
-17 -5 -20 0 -3 6 -22 -4 -41 -21z"/>
<path d="M854 2038 l-19 -23 23 19 c21 18 27 26 19 26 -2 0 -12 -10 -23 -22z"/>
<path d="M6253 1045 c-20 -14 -22 -24 -22 -108 1 -91 -1 -131 -16 -375 -7
-110 -6 -124 10 -142 27 -29 71 -26 92 7 15 23 18 47 16 157 -2 130 4 156 34
156 8 0 24 -11 37 -23 21 -21 23 -32 21 -98 -2 -87 9 -197 23 -211 15 -15 58
2 72 28 20 37 17 248 -4 312 -21 63 -61 92 -125 89 -56 -2 -75 21 -64 78 13
70 8 106 -16 127 -28 22 -31 22 -58 3z m51 -42 c4 -9 4 -48 0 -85 -9 -89 6
-108 80 -108 66 0 90 -18 110 -78 21 -63 21 -288 0 -296 -7 -3 -16 -1 -19 3
-4 8 -25 212 -25 254 0 26 -49 67 -80 67 -14 0 -35 -6 -46 -14 -17 -13 -19
-28 -20 -153 0 -76 -4 -146 -8 -156 -8 -17 -9 -17 -28 0 -19 17 -20 26 -13
183 5 91 8 218 9 283 0 103 2 117 17 117 9 0 20 -8 23 -17z"/>
<path d="M3726 1029 c-32 -25 -33 -54 -3 -70 46 -25 47 -30 45 -292 -1 -171 2
-251 9 -258 15 -15 61 -15 76 0 8 8 13 62 15 150 l3 139 37 4 c62 7 72 -13 72
-143 0 -135 13 -168 68 -169 38 0 51 49 42 150 -5 47 -13 101 -19 120 -25 91
-32 108 -51 125 -24 21 -89 35 -118 24 -26 -10 -31 -3 -38 58 -9 80 -13 91
-46 128 -46 53 -61 58 -92 34z m75 -48 c16 -16 30 -41 30 -55 1 -14 3 -30 4
-36 1 -5 3 -25 4 -44 2 -49 25 -69 71 -62 51 8 96 -9 109 -42 41 -107 67 -301
41 -317 -29 -18 -42 20 -45 135 -3 93 -7 117 -23 139 -18 24 -24 26 -78 22
-33 -2 -62 -8 -66 -14 -3 -6 -6 -68 -5 -138 1 -71 -2 -132 -7 -136 -4 -4 -14
1 -22 11 -14 19 -18 48 -16 111 0 17 1 105 2 196 2 173 -3 199 -40 219 -24 13
-27 40 -4 40 8 0 29 -13 45 -29z"/>
<path d="M7096 1010 c-46 -50 -66 -96 -66 -155 0 -85 38 -139 134 -194 60 -33
86 -67 86 -110 0 -39 -40 -71 -91 -71 -54 0 -67 8 -90 51 -30 60 -80 63 -110
6 -17 -30 14 -97 58 -127 33 -22 47 -25 127 -25 114 1 146 17 183 93 22 45 25
61 19 108 -11 93 -56 160 -131 194 -53 24 -78 53 -77 89 2 76 57 97 93 36 27
-45 67 -48 98 -9 59 75 -14 154 -143 154 -49 0 -56 -3 -90 -40z m181 -6 c46
-24 66 -70 37 -91 -26 -19 -37 -16 -56 17 -32 57 -99 46 -134 -22 -23 -44 -5
-103 38 -126 125 -69 158 -114 161 -218 3 -94 -46 -145 -153 -158 -101 -13
-211 79 -171 143 7 11 12 10 24 -5 68 -80 74 -84 127 -84 66 0 108 22 126 67
28 66 2 108 -120 186 -27 18 -58 44 -69 58 -47 64 -23 192 43 237 40 27 85 26
147 -4z"/>
<path d="M5960 1030 c-30 -5 -75 -10 -100 -11 -68 -3 -80 -13 -80 -63 0 -60
21 -77 80 -66 85 17 77 39 79 -232 1 -167 6 -246 14 -256 17 -21 87 -9 109 18
13 17 16 32 11 67 -3 25 -6 131 -7 236 l-1 192 63 0 c70 0 84 11 75 57 -9 45
-34 59 -115 63 -40 2 -98 0 -128 -5z m198 -31 c19 -7 28 -33 20 -56 -2 -3 -30
-5 -63 -4 -33 1 -65 -2 -72 -7 -13 -8 -17 -281 -6 -434 l5 -78 -25 0 c-14 0
-29 5 -33 11 -3 6 -8 121 -9 256 -2 134 -5 246 -7 248 -2 2 -21 -1 -43 -6 -87
-23 -90 -22 -103 6 -25 55 -19 59 143 71 44 3 81 7 83 9 5 5 85 -7 110 -16z"/>
<path d="M1373 993 c-27 -5 -27 -11 -9 -78 7 -27 12 -66 10 -85 -1 -19 -5
-120 -9 -223 -6 -171 -5 -190 11 -208 22 -25 56 -24 79 1 14 16 20 45 26 121
3 55 10 103 14 107 4 4 17 7 28 8 64 2 78 6 96 26 24 25 51 111 51 163 0 56
-20 111 -50 140 -25 24 -36 27 -126 29 -55 2 -109 2 -121 -1z m208 -49 c36
-18 43 -43 41 -142 -2 -111 -16 -132 -86 -132 -79 0 -80 -3 -86 -132 -5 -106
-6 -113 -27 -116 -32 -5 -36 23 -23 151 12 114 9 324 -4 364 -7 17 -3 22 16
26 37 8 139 -3 169 -19z"/>
<path d="M1468 923 c-20 -5 -20 -4 -20 -91 0 -109 16 -132 83 -117 36 8 59 52
59 114 0 53 -7 69 -41 86 -28 15 -48 17 -81 8z m86 -75 c12 -60 -6 -108 -39
-108 -29 0 -35 17 -35 89 0 66 4 73 40 69 21 -3 26 -10 34 -50z"/>
<path d="M1690 985 c-30 -36 25 -103 75 -91 31 8 43 48 25 82 -11 19 -21 24
-50 24 -21 0 -43 -7 -50 -15z m80 -41 c0 -25 -7 -28 -34 -18 -19 7 -21 40 -3
47 22 7 37 -4 37 -29z"/>
<path d="M635 966 c-10 -15 -14 -40 -12 -72 2 -27 0 -83 -4 -124 -23 -241 -19
-370 12 -370 4 0 14 -3 23 -6 9 -4 25 5 41 22 24 26 25 32 25 150 l0 124 33 0
c18 0 38 -5 44 -11 7 -7 9 -50 5 -123 -4 -96 -2 -117 13 -139 21 -33 58 -35
79 -5 12 17 16 50 16 141 0 192 -33 255 -126 244 -49 -5 -54 2 -54 94 0 63
-13 87 -52 94 -21 4 -31 0 -43 -19z m63 -102 c-1 -41 4 -80 9 -85 6 -6 36 -13
67 -16 49 -5 61 -10 82 -38 22 -30 24 -42 26 -152 1 -127 -4 -152 -28 -132
-11 9 -14 40 -14 129 0 99 -3 119 -17 132 -28 23 -51 29 -95 22 l-40 -7 7
-126 c5 -101 4 -130 -8 -145 -32 -43 -38 -11 -33 192 2 108 5 221 5 250 1 44
4 52 20 52 18 0 19 -7 19 -76z"/>
<path d="M3253 978 c-61 -29 -19 -114 46 -93 28 8 33 31 16 71 -15 36 -26 40
-62 22z m43 -33 c4 -8 3 -22 0 -31 -5 -13 -9 -14 -21 -4 -8 7 -15 21 -15 31 0
23 28 25 36 4z"/>
<path d="M3077 961 c-59 -28 -86 -60 -107 -129 -22 -71 -26 -226 -9 -337 17
-112 22 -270 9 -294 -6 -13 -32 -32 -56 -42 -46 -21 -50 -28 -34 -60 8 -15 21
-19 57 -19 59 0 114 36 136 88 32 76 37 223 12 362 -8 47 -15 89 -15 93 0 4
20 16 44 27 50 21 76 52 68 82 -5 20 -32 21 -89 3 -21 -7 -23 -4 -23 27 0 46
33 111 64 128 35 18 45 58 21 77 -23 16 -31 16 -78 -6z m63 -24 c0 -8 -17 -27
-38 -44 -30 -24 -41 -42 -50 -83 -24 -104 -12 -124 59 -96 23 9 44 14 47 11
14 -14 -19 -41 -64 -54 -27 -7 -50 -14 -52 -16 -1 -1 7 -66 18 -145 11 -78 18
-152 15 -164 -2 -11 -7 -50 -10 -86 -10 -102 -40 -149 -86 -135 -11 4 -19 2
-19 -4 0 -13 -37 -15 -44 -2 -3 5 11 18 31 28 77 40 84 96 49 383 -25 204 -11
328 42 377 43 40 102 57 102 30z"/>
<path d="M187 949 c-15 -23 -16 -56 -2 -98 4 -15 15 -21 38 -23 47 -2 80 -4
96 -6 11 -2 13 -25 7 -134 -3 -73 -9 -158 -12 -189 -10 -92 20 -118 102 -89
l30 10 0 108 c0 162 6 265 16 285 6 11 20 17 41 17 51 0 77 24 77 70 0 46 -9
53 -75 56 -27 1 -107 6 -176 10 -126 7 -127 7 -142 -17z m164 -24 c145 -8 189
-17 189 -36 0 -17 -23 -25 -54 -20 -5 1 -21 -1 -36 -4 l-27 -6 -9 -172 c-4
-95 -8 -185 -8 -201 -1 -28 -28 -57 -42 -43 -4 3 -2 53 4 109 6 57 9 123 8
148 -1 25 -3 65 -4 90 -1 25 -6 51 -11 58 -4 7 -37 16 -72 20 -47 5 -65 11
-67 23 -5 25 26 50 52 43 12 -3 47 -7 77 -9z"/>
<path d="M3545 846 c-51 -23 -68 -49 -69 -112 0 -52 2 -58 37 -89 21 -19 51
-37 68 -40 63 -14 75 -91 18 -120 -40 -21 -51 -19 -81 17 -26 32 -27 32 -47
14 -29 -26 -26 -60 8 -98 26 -30 33 -32 86 -31 68 2 98 20 133 79 40 68 13
177 -53 208 -45 22 -75 54 -75 81 0 31 5 31 42 0 36 -31 68 -20 68 23 -1 34
-19 58 -54 72 -34 13 -44 12 -81 -4z m97 -33 c17 -15 25 -53 12 -53 -3 0 -19
11 -36 25 -47 40 -78 27 -78 -31 0 -39 31 -80 76 -99 108 -45 95 -223 -18
-238 -51 -7 -103 13 -113 43 -10 31 0 35 24 11 40 -40 122 -16 147 45 24 56
10 81 -62 115 -42 20 -69 40 -78 58 -20 37 -10 107 18 126 28 20 85 19 108 -2z"/>
<path d="M7821 842 c-55 -21 -69 -41 -55 -79 8 -23 15 -28 39 -26 15 1 44 10
63 19 33 15 36 15 61 -3 14 -11 27 -29 29 -41 3 -19 0 -20 -32 -15 -94 15
-129 -18 -148 -144 -11 -67 -10 -75 8 -99 10 -14 31 -33 46 -42 25 -15 31 -15
80 1 50 16 53 16 73 -3 46 -43 124 -31 161 25 18 28 12 45 -19 45 -52 1 -64
40 -49 160 13 112 -9 169 -80 206 -36 19 -123 17 -177 -4z m169 -29 c45 -26
65 -87 55 -171 -15 -133 -14 -141 13 -163 14 -10 35 -19 48 -19 28 0 30 -7 7
-32 -22 -25 -72 -23 -107 5 -27 22 -32 23 -69 10 -47 -16 -88 -10 -112 17 -37
41 -10 201 36 215 10 4 38 3 62 0 32 -5 46 -3 56 9 19 23 9 67 -21 89 -27 20
-28 20 -88 2 -65 -20 -87 -13 -76 22 13 42 136 52 196 16z"/>
<path d="M7861 616 c-21 -26 -25 -83 -7 -111 18 -28 52 -32 104 -14 36 12 41
28 28 85 -8 38 -12 42 -45 48 -54 9 -67 7 -80 -8z m94 -47 c23 -44 19 -57 -22
-69 -34 -9 -40 -8 -55 11 -20 24 -23 51 -9 78 15 28 68 16 86 -20z"/>
<path d="M3253 843 c-16 -6 -17 -33 -3 -33 7 0 10 -62 8 -186 l-3 -186 29 -24
c35 -31 91 -30 112 2 13 18 12 24 -6 44 -30 34 -38 85 -39 243 -1 84 -2 90
-30 118 -29 28 -43 33 -68 22z m63 -51 c3 -9 8 -81 9 -159 3 -115 6 -147 21
-172 10 -17 15 -33 12 -36 -11 -11 -59 19 -64 41 -3 13 -7 97 -7 187 -2 122 1
163 10 160 6 -3 15 -12 19 -21z"/>
<path d="M7543 843 c-37 -7 -101 -79 -108 -121 -20 -125 10 -249 71 -289 15
-9 45 -20 68 -23 85 -12 139 26 152 108 11 69 -34 98 -74 47 -11 -13 -31 -30
-46 -36 -37 -17 -66 10 -66 63 l0 38 68 0 c59 0 72 3 90 23 26 28 28 71 6 126
-25 63 -72 81 -161 64z m86 -19 c36 -8 57 -40 66 -100 8 -57 -2 -65 -86 -71
-41 -2 -77 -7 -81 -11 -22 -22 -5 -114 26 -134 23 -16 63 -7 96 22 19 16 38
29 43 30 26 1 -18 -112 -48 -124 -42 -16 -124 16 -146 56 -24 44 -40 142 -34
198 13 105 70 152 164 134z"/>
<path d="M7549 761 c-34 -34 -37 -56 -9 -71 21 -11 97 -3 118 13 23 18 14 55
-20 71 -43 22 -55 20 -89 -13z m101 -33 c0 -14 -44 -26 -73 -21 -37 7 -34 31
6 48 28 12 34 11 50 -2 9 -9 17 -20 17 -25z"/>
<path d="M8550 840 c0 -12 9 -16 64 -25 22 -4 48 -17 62 -32 27 -29 42 -26 25
5 -16 29 -52 49 -94 50 -21 1 -42 4 -47 7 -6 4 -10 1 -10 -5z"/>
<path d="M9170 835 c-35 -13 -53 -35 -27 -35 7 0 22 -9 33 -21 17 -19 19 -39
20 -203 1 -212 6 -229 62 -224 l37 3 12 105 c8 62 10 136 6 180 -4 41 -8 79
-8 84 0 14 58 27 69 16 5 -5 12 -26 15 -47 5 -33 10 -38 37 -41 24 -2 33 2 43
22 16 29 9 129 -10 152 -14 17 -64 18 -125 2 -39 -11 -49 -10 -76 5 -34 19
-40 19 -88 2z m71 -21 c13 -16 30 -16 139 2 22 3 42 0 52 -8 23 -17 35 -102
18 -123 -17 -21 -40 -1 -40 35 0 40 -18 50 -75 42 l-50 -7 1 -50 c5 -181 3
-250 -6 -285 -6 -22 -15 -40 -19 -40 -27 0 -33 36 -34 204 -2 164 -3 176 -24
205 -13 16 -23 33 -23 36 0 12 49 4 61 -11z"/>
<path d="M6606 807 c-33 -43 -47 -116 -48 -239 0 -83 3 -101 21 -127 28 -39
98 -66 147 -56 53 9 104 63 104 107 0 36 -23 78 -44 78 -17 0 -46 -33 -46 -53
0 -8 -10 -19 -21 -22 -29 -9 -58 21 -65 67 l-6 36 65 -5 c61 -5 67 -4 92 22
26 25 27 31 23 89 -3 35 -13 74 -22 88 -18 28 -74 48 -134 48 -35 0 -45 -5
-66 -33z m132 3 c53 -26 76 -68 69 -128 -2 -24 -10 -49 -16 -55 -7 -7 -43 -12
-84 -12 l-72 0 1 -41 c2 -104 101 -142 133 -52 12 32 13 32 27 14 22 -31 17
-65 -15 -97 -34 -34 -74 -38 -128 -13 -54 26 -63 49 -64 155 -2 140 21 210 76
235 17 7 30 13 31 14 0 0 19 -9 42 -20z"/>
<path d="M6650 745 c-35 -57 -26 -70 50 -70 62 0 65 1 75 29 8 25 6 31 -18 52
-42 36 -81 32 -107 -11z m81 5 c11 -6 19 -21 19 -35 0 -23 -4 -25 -45 -25 -51
0 -59 16 -25 50 23 23 25 23 51 10z"/>
<path d="M8458 814 c-66 -34 -102 -116 -78 -178 8 -22 52 -58 85 -69 5 -2 -3
-15 -19 -29 -24 -20 -28 -30 -22 -52 9 -36 42 -47 83 -28 30 14 34 14 53 -3
31 -28 25 -63 -17 -101 -20 -19 -46 -34 -57 -35 -49 -2 -93 4 -129 18 -38 15
-39 15 -64 -10 -25 -25 -26 -26 -9 -52 34 -51 73 -67 152 -61 92 7 152 34 219
97 54 51 63 72 69 161 2 30 -22 71 -56 96 -17 12 -16 16 17 46 35 33 46 77 29
120 -10 26 -25 18 -18 -9 3 -14 3 -41 0 -60 -6 -30 -15 -39 -57 -60 -49 -25
-57 -45 -18 -45 34 0 57 -18 69 -56 20 -59 -5 -151 -48 -178 -8 -4 -23 -17
-33 -27 -28 -28 -72 -47 -125 -54 -54 -8 -134 9 -134 27 0 6 -3 8 -7 5 -9 -10
-33 13 -33 30 0 12 7 14 28 9 134 -34 184 -24 248 46 30 34 35 45 30 72 -4 17
-14 37 -24 44 -16 13 -25 12 -104 -5 -26 -5 -28 -3 -28 24 0 29 28 65 60 76
12 4 11 6 -5 12 -65 23 -77 30 -90 56 -19 36 -19 72 0 109 15 29 61 60 88 60
8 0 17 7 21 15 8 22 -21 18 -76 -11z"/>
<path d="M8837 826 c-50 -18 -76 -43 -70 -66 7 -24 56 -35 93 -20 42 17 73 9
88 -23 20 -42 4 -54 -47 -37 -21 7 -51 10 -66 6 -107 -27 -132 -241 -34 -291
41 -22 108 -15 145 14 28 22 50 28 39 10 -11 -16 35 -59 63 -59 29 0 92 45 92
65 0 8 -10 24 -22 35 -21 20 -23 30 -23 143 0 148 -13 185 -74 216 -47 24
-126 27 -184 7z m171 -33 c48 -35 54 -58 48 -182 -5 -120 3 -156 36 -166 43
-14 9 -65 -44 -65 -27 0 -54 35 -37 46 8 5 6 10 -5 16 -11 6 -25 4 -44 -6 -75
-41 -71 -41 -115 -25 -57 19 -80 63 -74 140 8 97 50 133 127 110 45 -13 69 -6
79 23 21 54 -39 96 -107 75 -76 -22 -103 18 -29 45 54 20 130 15 165 -11z"/>
<path d="M8840 593 c-23 -29 -27 -102 -8 -121 18 -18 74 -14 118 8 49 25 51
27 44 86 l-6 49 -64 2 c-58 1 -66 -1 -84 -24z m112 -12 c3 -3 9 -22 13 -41 6
-34 5 -36 -38 -53 -48 -20 -73 -15 -83 15 -7 22 2 67 18 86 11 12 74 8 90 -7z"/>
<path d="M1694 819 c-2 -4 3 -21 12 -38 8 -17 13 -35 9 -40 -3 -6 -8 -78 -12
-162 -6 -140 -5 -153 12 -166 29 -20 69 -16 99 12 28 25 32 40 16 50 -6 3 -9
68 -9 156 1 174 -3 185 -78 191 -24 2 -47 0 -49 -3z m86 -44 c9 -10 11 -55 9
-157 -2 -79 0 -150 4 -159 6 -12 2 -18 -13 -22 -35 -9 -46 14 -44 99 0 43 2
118 2 167 2 66 5 87 16 87 7 0 19 -7 26 -15z"/>
<path d="M2053 817 c-35 -6 -63 -14 -63 -18 0 -13 45 -17 95 -9 69 11 101 -8
120 -74 17 -56 19 -104 6 -158 -12 -53 -38 -75 -91 -77 -32 -1 -51 -8 -68 -25
-24 -23 -24 -25 -13 -109 8 -61 8 -99 1 -132 -36 -159 -77 -83 -66 120 4 66 8
193 11 282 3 144 1 165 -14 184 -11 13 -23 19 -30 15 -9 -6 -8 -12 4 -26 15
-17 15 -39 3 -272 -15 -297 -15 -347 4 -385 31 -66 101 -20 115 75 9 65 9 83
-2 169 -7 62 -7 63 19 73 15 5 42 10 60 10 24 0 41 9 66 35 31 32 34 40 38
115 6 100 -10 162 -50 195 -32 27 -46 28 -145 12z"/>
<path d="M1019 805 c-60 -32 -91 -134 -78 -255 8 -70 11 -77 48 -112 34 -32
47 -38 84 -38 60 0 115 24 127 56 22 56 6 124 -29 124 -9 0 -32 -16 -50 -37
-28 -32 -34 -34 -47 -21 -8 8 -16 28 -17 44 -2 29 -2 29 46 26 32 -2 57 2 73
13 21 14 24 23 24 79 0 82 -5 93 -51 116 -45 23 -93 25 -130 5z m119 -34 c36
-22 60 -139 30 -142 -7 -1 -41 -2 -75 -3 -76 -1 -90 -12 -74 -57 28 -82 68
-101 112 -54 32 33 49 32 49 -5 0 -46 -32 -69 -93 -66 -45 2 -54 6 -84 41 -31
36 -33 42 -33 117 0 87 16 137 51 162 25 17 95 21 117 7z"/>
<path d="M1057 749 c-9 -5 -24 -24 -33 -40 -21 -42 -5 -59 56 -59 69 0 80 7
80 46 0 51 -56 81 -103 53z m57 -25 c9 -3 16 -15 16 -25 0 -15 -7 -19 -40 -19
-43 0 -55 20 -22 39 20 12 25 13 46 5z"/>
<path d="M2353 798 c-59 -65 -80 -190 -48 -292 25 -78 59 -106 131 -106 47 0
59 4 89 33 47 42 60 89 34 113 -19 17 -22 17 -65 -4 -59 -29 -80 -28 -88 3
-10 38 -1 44 59 42 71 -3 96 20 101 90 6 69 -19 114 -71 129 -67 20 -119 17
-142 -8z m162 -34 c24 -26 31 -52 26 -104 -4 -41 -19 -51 -72 -46 -65 6 -104
-22 -95 -68 11 -56 60 -72 106 -36 27 21 70 27 70 9 0 -25 -43 -79 -67 -85
-41 -11 -100 13 -129 52 -23 30 -28 48 -32 114 -5 94 0 119 34 159 23 28 32
31 80 31 47 0 59 -4 79 -26z"/>
<path d="M2408 758 c-29 -10 -51 -53 -46 -90 3 -22 7 -23 72 -21 89 1 104 19
67 79 -21 34 -53 45 -93 32z m68 -39 c34 -32 20 -49 -37 -49 -44 0 -49 2 -49
23 0 48 47 62 86 26z"/>
<path d="M8500 772 c-19 -11 -41 -31 -49 -44 -13 -23 -13 -29 2 -51 9 -15 33
-30 54 -36 42 -12 58 -4 29 13 -11 6 -30 21 -43 33 -40 38 -3 77 71 75 32 -1
76 -37 76 -62 0 -21 -19 -40 -35 -34 -14 6 -41 -23 -31 -33 8 -8 66 23 84 45
24 30 14 60 -25 81 -61 30 -94 34 -133 13z"/>
<path d="M2062 748 l-33 -9 4 -104 c1 -57 5 -107 9 -110 13 -13 53 -13 79 1
44 22 63 58 61 117 -2 84 -47 124 -120 105z m79 -35 c8 -9 14 -39 14 -70 0
-45 -4 -58 -24 -74 -46 -38 -58 -27 -66 60 -4 44 -4 85 0 90 10 17 61 13 76
-6z"/>
<path d="M8175 701 c-23 -10 -33 -65 -14 -77 6 -4 44 -7 83 -7 69 -1 71 0 81
27 15 45 -3 61 -71 63 -32 1 -68 -2 -79 -6z m115 -41 c0 -17 -7 -20 -50 -20
-39 0 -52 4 -60 20 -10 19 -8 20 50 20 53 0 60 -2 60 -20z"/>
<path d="M2659 688 c-22 -17 -32 -75 -16 -85 7 -4 47 -8 90 -8 66 -1 81 2 92
18 14 20 10 51 -10 67 -20 17 -138 23 -156 8z m141 -32 c0 -2 2 -10 5 -18 4
-10 -12 -13 -70 -14 -53 -1 -75 2 -75 11 0 6 3 15 7 18 7 7 133 10 133 3z"/>
<path d="M4202 508 c-16 -16 -15 -80 1 -101 6 -10 28 -20 48 -23 60 -10 84 31
58 105 -10 28 -15 31 -53 31 -23 0 -47 -5 -54 -12z m78 -27 c5 -11 10 -33 10
-49 0 -26 -3 -29 -22 -25 -49 12 -61 42 -31 75 21 23 30 23 43 -1z"/>
<path d="M9469 490 c-25 -15 -32 -58 -14 -86 17 -26 69 -33 106 -14 22 12 27
78 7 98 -14 14 -76 15 -99 2z m69 -44 c4 -34 -8 -49 -31 -40 -23 9 -34 54 -16
65 24 15 44 5 47 -25z"/>
</g>
</svg>
