<?xml version="1.0" encoding="UTF-8" standalone="no"?>
<!DOCTYPE svg PUBLIC "-//W3C//DTD SVG 1.1//EN" "http://www.w3.org/Graphics/SVG/1.1/DTD/svg11.dtd">
<svg xmlns="http://www.w3.org/2000/svg" version="1.1" viewBox="0 0 500 144" width="500.0pt" height="144.0pt">
<path d="M 0.00 0.00 L 500.00 0.00 L 500.00 144.00 L 0.00 144.00 L 0.00 0.00 Z" fill="#fefefe" />
<path d="M 277.74 7.59 C 280.11 7.48 282.67 9.07 284.74 10.08 C 284.05 14.26 283.27 18.44 282.52 22.61 C 281.86 26.46 278.73 27.83 276.93 30.95 C 276.08 32.87 275.64 35.00 275.08 37.02 C 275.73 37.35 276.38 37.68 277.04 38.01 C 279.88 35.49 282.75 32.53 286.35 31.14 C 287.42 30.66 288.51 30.69 289.59 31.25 C 297.39 35.18 303.27 41.62 306.96 49.50 C 302.82 48.47 298.68 47.05 294.88 45.12 C 293.19 44.14 292.93 42.33 292.66 40.57 C 295.62 42.93 298.40 45.20 302.05 46.39 C 299.56 42.08 295.93 38.93 292.07 35.88 C 290.40 34.66 288.35 33.36 286.26 33.18 C 283.47 35.06 281.59 38.01 278.68 39.72 C 276.98 40.93 274.72 40.42 272.75 40.45 C 272.94 37.31 272.91 33.81 273.96 30.82 C 275.36 27.87 278.85 26.13 280.24 23.25 C 281.28 20.41 281.37 17.15 281.24 14.14 C 280.03 12.32 277.43 11.48 275.61 10.35 C 276.30 9.42 276.98 8.46 277.74 7.59 Z" fill="#494949" />
<path d="M 246.27 7.67 C 249.60 9.33 250.98 13.70 253.66 16.33 C 257.71 21.20 263.42 23.84 267.62 28.45 C 269.33 31.25 268.68 35.59 267.57 38.52 C 266.38 39.57 264.87 40.34 263.50 41.15 C 262.07 39.06 260.60 36.98 259.21 34.86 C 261.51 36.02 263.74 37.30 266.08 38.37 C 266.51 35.35 266.45 32.46 266.12 29.43 C 260.78 32.15 258.08 37.03 252.32 38.73 C 252.29 37.10 252.28 35.48 252.31 33.85 C 251.11 33.35 249.91 32.82 248.73 32.28 C 250.55 31.85 252.43 31.56 254.22 30.98 C 255.96 29.05 257.09 26.44 258.27 24.14 C 254.41 21.08 250.87 17.87 248.02 13.83 C 246.74 11.93 246.52 9.89 246.27 7.67 Z" fill="#494949" />
<path d="M 249.44 8.05 C 251.31 8.97 253.08 10.09 254.94 11.05 C 256.90 12.26 259.78 11.78 262.02 11.81 C 266.04 11.95 269.58 9.46 273.60 8.58 C 273.69 9.47 273.78 10.36 273.87 11.25 C 271.71 11.72 269.11 12.07 267.23 13.29 C 266.16 14.55 265.56 16.27 264.86 17.76 C 264.23 16.88 263.61 15.99 262.98 15.12 C 260.38 15.10 257.01 15.75 254.74 14.27 C 252.50 12.82 250.81 10.29 249.44 8.05 Z" fill="#494949" />
<path d="M 274.06 16.36 C 275.37 17.78 276.51 19.34 277.61 20.94 C 275.49 21.73 273.35 22.41 271.15 22.92 C 270.92 19.39 271.54 18.67 274.06 16.36 Z" fill="#494949" />
<path d="M 248.22 32.27 C 245.54 36.87 242.23 40.93 239.17 45.24 C 238.00 46.74 238.33 48.36 238.17 50.15 C 237.31 50.38 236.45 50.61 235.59 50.84 C 234.86 49.57 234.12 48.30 233.37 47.04 C 236.17 44.89 238.60 42.49 240.50 39.48 C 242.42 36.38 245.09 34.11 248.22 32.27 Z" fill="#494949" />
<path d="M 247.71 41.45 C 246.84 43.09 245.91 44.69 245.01 46.32 C 247.23 45.32 249.39 44.24 251.62 43.28 C 250.31 44.92 248.86 47.26 246.84 48.07 C 244.59 47.90 242.35 47.41 240.13 47.01 C 242.54 44.99 245.04 43.11 247.71 41.45 Z" fill="#494949" />
<path d="M 261.49 42.95 C 261.57 43.84 261.65 44.74 261.73 45.63 C 260.75 45.53 259.78 45.42 258.80 45.31 C 259.69 44.52 260.59 43.73 261.49 42.95 Z" fill="#494949" />
<path d="M 289.02 42.81 C 291.25 44.01 293.27 45.48 295.38 46.87 C 294.36 47.47 293.34 48.08 292.32 48.68 C 291.03 46.82 289.88 44.92 289.02 42.81 Z" fill="#494949" />
<path d="M 285.29 44.31 C 286.80 45.06 288.20 46.04 289.63 46.93 C 288.97 47.57 288.31 48.21 287.64 48.85 C 286.44 47.86 285.24 46.86 284.09 45.81 C 284.48 45.30 284.88 44.80 285.29 44.31 Z" fill="#494949" />
<path d="M 258.97 45.75 C 258.17 46.98 257.43 48.33 256.43 49.40 C 254.63 49.95 252.43 49.39 250.59 49.21 C 249.27 49.29 248.99 47.75 250.03 47.10 C 252.87 44.90 255.66 45.40 258.97 45.75 Z" fill="#494949" />
<path d="M 264.84 44.24 C 263.71 47.95 261.89 51.43 260.86 55.16 C 260.39 57.57 261.10 61.05 262.54 63.07 C 265.82 64.99 270.30 65.43 273.99 66.10 C 277.21 66.73 280.33 66.62 283.45 65.53 C 286.50 64.64 288.39 61.06 290.26 58.66 C 288.18 58.25 285.85 57.99 283.93 57.07 C 282.05 53.71 281.01 49.80 280.28 46.05 C 283.82 48.21 284.92 52.48 286.73 56.00 C 289.21 55.64 291.66 55.09 294.10 54.53 C 292.96 57.41 291.61 60.29 289.83 62.84 C 287.77 65.70 285.00 67.49 282.13 69.42 C 282.96 71.31 283.82 73.19 284.65 75.08 C 280.96 77.33 276.76 80.52 272.26 80.50 C 270.63 80.14 268.10 77.20 269.93 75.81 C 273.32 74.51 277.31 74.54 280.89 73.99 C 280.59 72.41 280.28 70.83 279.98 69.25 C 276.13 69.36 272.44 69.70 268.61 69.26 C 268.30 72.11 267.82 74.79 266.36 77.30 C 265.66 78.84 264.44 78.85 262.97 79.18 C 259.95 79.68 256.70 79.47 253.62 79.50 C 253.70 78.17 253.78 76.84 253.88 75.51 C 258.12 74.74 262.34 74.20 266.40 72.67 C 265.63 70.35 264.85 68.67 262.88 67.13 C 259.44 64.27 257.31 60.08 258.55 55.57 C 259.92 51.51 261.83 47.36 264.84 44.24 Z" fill="#494949" />
<path d="M 295.71 47.90 C 297.49 48.74 299.13 49.71 300.73 50.86 C 299.31 50.81 297.90 50.72 296.49 50.60 C 296.22 49.70 295.96 48.80 295.71 47.90 Z" fill="#494949" />
<path d="M 376.13 61.70 C 377.63 62.53 379.06 63.45 380.52 64.36 C 379.93 65.77 379.40 67.32 378.54 68.59 C 376.86 69.75 374.61 70.21 372.68 70.79 C 371.77 69.43 370.86 68.07 369.96 66.71 C 371.14 65.31 372.34 63.92 373.59 62.57 C 373.60 64.51 373.54 66.45 373.47 68.38 C 374.62 68.29 375.76 68.19 376.90 68.10 C 376.67 65.96 376.34 63.83 376.13 61.70 Z" fill="#494949" />
<path d="M 221.91 63.24 C 226.49 63.59 231.06 64.14 235.63 64.59 C 235.86 74.71 235.80 84.91 236.72 95.00 C 237.64 101.03 238.20 106.89 237.74 113.00 C 237.20 119.28 237.87 125.27 239.73 131.27 C 236.85 131.88 234.01 132.71 231.10 133.14 C 228.70 132.42 226.49 130.56 224.03 130.20 C 219.67 130.43 216.29 132.17 212.01 130.05 C 208.83 128.20 204.91 125.05 204.67 121.08 C 203.59 114.15 203.16 106.95 203.96 99.97 C 204.66 93.03 209.94 85.79 217.05 84.49 C 219.94 84.44 222.96 86.71 225.48 87.97 C 224.99 82.11 224.22 76.28 223.73 70.42 C 221.69 70.16 219.64 69.86 217.60 69.57 C 217.02 68.63 216.44 67.70 215.85 66.76 C 217.64 65.31 219.32 62.79 221.91 63.24 Z" fill="#494949" />
<path d="M 340.16 63.52 C 343.45 63.08 346.56 63.29 349.77 64.18 C 353.48 64.64 355.37 69.66 356.90 72.58 C 358.59 71.77 360.30 71.01 362.04 70.29 C 363.13 73.54 364.01 76.72 363.91 80.19 C 361.68 80.39 359.45 80.56 357.23 80.79 C 356.81 86.89 357.12 92.93 357.25 99.03 C 357.38 105.77 357.82 112.92 359.45 119.48 C 359.86 121.78 362.62 123.29 364.19 124.83 C 362.16 127.16 359.64 129.79 356.72 130.92 C 353.86 131.65 349.86 131.51 347.62 129.34 C 344.88 125.41 345.20 119.56 345.35 115.01 C 345.31 105.31 346.70 95.82 345.80 86.12 C 343.63 86.79 341.48 87.49 339.28 88.07 C 338.92 86.29 338.30 84.33 338.45 82.50 C 339.96 80.15 342.82 78.63 344.59 76.45 C 346.02 71.44 339.30 67.88 340.16 63.52 Z" fill="#494949" />
<path d="M 221.18 65.38 C 224.60 65.33 228.08 66.18 231.45 66.67 C 232.50 73.19 232.79 79.54 231.95 86.10 C 231.27 91.54 232.49 96.60 232.95 101.96 C 233.90 111.93 231.96 121.42 234.61 131.27 C 231.31 130.13 228.21 128.40 224.88 127.39 C 222.95 127.66 221.02 128.52 219.08 128.70 C 215.77 128.41 212.61 127.14 210.26 124.74 C 207.10 122.07 206.83 116.99 206.48 113.17 C 206.26 107.40 205.96 101.14 207.58 95.55 C 208.88 90.71 213.73 86.94 218.78 87.30 C 221.51 87.89 224.09 89.37 226.67 90.42 C 227.55 82.97 226.70 75.86 225.86 68.43 C 223.33 68.07 220.81 67.72 218.31 67.23 C 219.23 66.55 220.19 65.94 221.18 65.38 Z" fill="#fefefe" />
<path d="M 345.10 66.13 C 346.52 66.52 348.01 66.95 349.33 67.63 C 351.67 69.78 352.74 72.81 352.77 75.95 C 353.07 83.96 352.41 92.00 352.84 100.02 C 353.48 107.87 352.84 114.85 355.36 122.54 C 356.32 124.25 357.74 125.72 358.96 127.24 C 356.71 127.78 353.94 128.84 351.64 128.30 C 348.84 127.22 348.50 123.50 348.17 120.94 C 347.64 112.33 348.68 103.62 348.56 95.00 C 348.34 85.14 348.37 75.57 345.10 66.13 Z" fill="#fefefe" />
<path d="M 14.13 68.55 C 20.03 68.43 25.96 68.51 31.86 68.54 C 34.10 68.38 36.70 70.52 36.35 72.87 C 35.42 74.84 33.21 76.18 31.83 77.86 C 29.81 82.83 30.75 87.69 30.59 92.97 C 30.35 102.41 31.86 111.66 31.99 121.08 C 32.07 122.55 32.09 124.11 32.49 125.54 C 33.47 127.73 35.64 129.53 37.29 131.24 C 36.50 132.83 35.74 134.48 34.69 135.91 C 32.25 136.54 29.54 136.31 27.02 136.44 C 23.81 136.43 20.56 137.02 17.36 136.78 C 15.88 136.20 14.49 134.70 14.41 133.06 C 15.63 129.78 17.80 127.56 17.85 123.86 C 17.85 118.47 17.43 113.04 17.18 107.65 C 15.98 97.87 17.37 88.57 15.41 78.59 C 14.38 76.35 10.75 75.55 9.62 73.41 C 8.48 70.88 11.97 68.50 14.13 68.55 Z" fill="#494949" />
<path d="M 90.85 69.98 C 96.33 71.04 98.08 77.26 100.29 81.62 C 101.66 81.53 103.03 81.44 104.40 81.38 C 105.42 84.63 106.45 87.88 107.69 91.06 C 105.89 92.43 104.06 93.78 102.24 95.12 C 102.75 103.48 103.00 112.76 105.00 120.99 C 106.04 125.02 108.80 127.34 111.70 130.05 C 110.40 131.47 109.15 132.97 107.74 134.28 C 101.50 136.01 93.90 132.09 92.50 125.57 C 90.35 117.29 91.85 108.70 90.96 100.57 C 88.80 99.07 86.45 97.91 84.33 96.34 C 86.22 93.55 88.76 91.01 90.23 87.98 C 89.73 80.97 85.68 76.61 80.93 71.98 C 83.98 71.03 87.72 68.60 90.85 69.98 Z" fill="#494949" />
<path d="M 32.07 72.43 L 32.39 73.93 C 30.86 75.25 29.02 76.24 27.58 77.65 C 25.21 84.89 26.18 91.63 26.20 99.05 C 26.28 101.76 26.61 104.40 26.84 107.10 C 27.77 116.05 27.19 124.81 29.63 133.58 C 25.39 133.47 21.25 134.14 17.03 134.37 C 18.94 129.62 21.40 125.40 21.06 120.07 C 20.04 110.57 20.58 101.03 19.67 91.51 C 19.17 86.48 19.92 80.71 18.23 75.94 C 17.67 73.90 15.11 73.83 13.44 73.02 C 13.38 72.40 13.34 71.79 13.30 71.17 C 19.58 71.12 25.80 72.12 32.07 72.43 Z" fill="#fefefe" />
<path d="M 87.14 72.56 C 88.84 73.10 90.83 73.63 92.27 74.73 C 95.09 77.88 97.40 81.49 98.08 85.74 C 99.10 91.70 98.70 97.97 98.87 104.00 C 99.02 109.91 98.12 116.58 99.78 122.23 C 100.75 125.92 103.33 128.65 105.31 131.96 C 102.88 131.19 100.12 130.49 98.02 129.01 C 96.22 127.35 95.33 124.60 94.74 122.29 C 92.52 109.87 94.47 96.83 92.60 84.48 C 92.04 79.80 89.47 76.46 87.14 72.56 Z" fill="#fefefe" />
<path d="M 359.98 72.67 C 360.35 74.62 360.65 76.58 360.94 78.54 C 359.56 78.64 358.18 78.73 356.80 78.82 C 356.79 77.88 356.79 76.95 356.80 76.01 C 357.80 74.84 358.88 73.75 359.98 72.67 Z" fill="#fefefe" />
<path d="M 345.72 78.68 C 345.65 80.23 345.63 81.83 345.37 83.36 C 344.00 84.24 342.55 84.74 341.04 85.33 C 341.35 84.00 341.27 82.20 342.09 81.06 C 343.19 80.14 344.50 79.43 345.72 78.68 Z" fill="#fefefe" />
<path d="M 460.91 82.20 C 463.82 83.62 465.73 87.33 466.70 90.29 C 467.36 95.77 465.78 101.85 465.48 106.95 C 465.60 113.88 467.54 120.98 468.78 127.80 C 466.25 129.59 463.06 133.92 459.63 132.40 C 456.27 131.45 453.24 130.49 452.23 126.74 C 450.15 118.06 452.59 109.66 453.11 100.98 C 453.34 97.93 452.45 95.29 451.61 92.42 C 448.59 92.33 445.56 92.30 442.54 92.21 C 445.47 104.06 445.30 116.94 445.86 129.09 C 441.60 130.92 437.46 130.92 432.91 130.85 C 432.23 128.62 431.54 126.45 431.63 124.08 C 431.70 116.08 432.33 107.99 433.08 100.03 C 433.30 97.06 433.50 93.49 432.29 90.69 C 430.22 87.48 426.52 85.85 424.49 82.49 C 427.23 82.68 429.53 83.48 432.09 83.02 C 434.13 82.69 435.94 82.54 437.95 83.14 C 441.97 84.42 445.31 82.36 449.22 81.33 C 453.01 79.72 457.23 80.85 460.91 82.20 Z" fill="#494949" />
<path d="M 409.79 81.17 C 413.48 82.17 416.95 84.76 420.00 87.01 C 423.00 90.49 423.30 96.56 423.88 100.95 C 424.83 107.53 424.78 114.62 423.04 121.06 C 420.87 125.75 416.63 131.16 411.01 131.43 C 407.33 131.59 402.72 130.36 399.56 128.44 C 395.62 126.15 394.97 121.06 394.47 116.96 C 393.37 108.67 394.50 100.82 395.75 92.61 C 396.75 86.08 403.22 80.75 409.79 81.17 Z" fill="#494949" />
<path d="M 375.99 81.76 C 380.54 82.17 383.90 87.16 384.72 91.27 C 385.50 98.73 385.41 106.36 385.35 113.85 C 385.55 119.55 388.32 123.72 391.48 128.20 C 389.57 129.37 387.06 132.45 384.63 131.41 C 381.80 130.54 377.60 129.72 375.82 127.16 C 373.18 122.51 373.98 117.10 373.83 112.00 C 373.43 105.90 374.79 100.04 373.86 93.94 C 373.66 90.06 371.51 87.53 369.99 84.14 C 371.75 83.20 373.95 81.65 375.99 81.76 Z" fill="#494949" />
<path d="M 374.23 83.49 C 377.57 86.81 380.87 91.03 380.70 96.00 C 380.84 104.06 380.98 111.90 381.99 119.93 C 382.40 123.19 385.15 126.06 386.54 129.03 C 384.18 128.31 381.67 127.65 379.48 126.47 C 377.42 124.68 376.72 121.49 376.57 118.87 C 376.22 111.24 376.55 103.58 376.40 95.96 C 376.38 91.62 374.90 87.71 374.23 83.49 Z" fill="#fefefe" />
<path d="M 414.04 85.98 C 417.43 89.89 418.72 94.59 419.31 99.63 C 420.04 106.11 421.53 112.87 419.19 119.19 C 417.97 122.57 416.99 126.73 413.46 128.45 C 410.40 129.06 406.89 128.07 404.01 127.02 C 401.42 126.04 399.22 124.33 398.40 121.59 C 396.68 115.19 396.19 108.53 397.09 101.96 C 397.62 97.28 397.68 90.67 400.97 86.98 C 404.24 83.11 410.25 82.66 414.04 85.98 Z" fill="#fefefe" />
<path d="M 432.14 84.34 C 438.08 85.43 443.94 85.82 449.97 86.03 C 452.84 85.98 455.73 85.21 458.59 85.36 C 462.23 89.20 462.75 93.98 461.72 99.01 C 460.15 109.09 459.84 119.78 461.91 129.80 C 460.19 129.39 458.35 129.01 456.72 128.31 C 454.51 125.67 454.21 121.30 454.15 118.00 C 454.46 108.44 456.61 100.08 453.69 90.60 C 448.83 90.10 443.96 89.69 439.09 89.20 C 440.18 102.37 439.89 115.72 441.72 128.80 C 439.26 128.60 436.81 128.36 434.36 128.11 C 434.04 121.38 434.48 114.69 434.65 107.97 C 434.81 103.09 435.89 98.04 435.52 93.18 C 435.27 90.12 433.25 87.19 432.14 84.34 Z" fill="#fefefe" />
<path d="M 44.17 85.60 C 49.55 86.05 54.89 84.68 60.02 86.11 C 64.36 87.38 68.99 84.75 73.58 85.40 C 76.10 86.68 78.67 90.28 78.82 93.14 C 79.10 100.64 77.26 109.25 79.36 116.53 C 80.50 121.14 82.95 125.22 83.83 129.98 C 82.21 133.08 77.80 134.71 74.61 135.52 C 72.69 136.28 71.03 134.31 70.20 132.82 C 66.81 125.99 67.86 117.59 66.93 110.17 C 66.30 105.21 67.25 100.82 67.49 95.74 C 64.73 96.52 61.97 97.30 59.22 98.10 C 58.68 103.97 59.66 109.43 60.64 115.17 C 60.62 120.92 61.75 126.32 62.82 131.92 C 60.35 133.31 57.63 135.23 54.80 135.67 C 52.98 135.70 50.96 135.85 49.71 134.27 C 48.83 129.67 49.43 124.67 49.46 120.00 C 49.44 113.03 49.33 106.25 48.62 99.30 C 47.51 97.23 45.55 95.70 44.43 93.60 C 43.06 90.93 41.94 88.17 44.17 85.60 Z" fill="#494949" />
<path d="M 101.37 84.21 C 102.68 86.62 103.53 89.17 104.31 91.79 C 103.24 91.71 102.17 91.62 101.10 91.54 C 101.10 89.09 101.16 86.65 101.37 84.21 Z" fill="#fefefe" />
<path d="M 281.02 85.13 C 281.37 86.57 281.60 88.01 281.48 89.50 C 281.20 94.99 281.60 100.50 281.50 106.00 C 281.69 114.54 281.58 122.94 283.73 131.27 C 281.17 131.33 278.61 131.54 276.06 131.52 C 273.35 131.21 271.21 129.89 268.38 130.47 C 263.11 131.28 258.49 132.68 253.20 130.83 C 250.47 130.14 249.17 128.46 248.63 125.77 C 247.72 115.47 249.25 104.64 247.70 94.42 C 247.37 91.42 245.18 89.92 243.42 87.66 C 247.65 86.99 251.46 85.34 255.53 87.48 C 258.30 88.53 259.56 91.33 259.97 94.08 C 260.68 99.39 260.80 104.72 260.64 110.08 C 260.41 114.06 262.41 117.22 264.98 120.06 C 266.68 122.05 270.22 122.09 272.63 122.75 C 273.63 115.78 272.55 108.99 272.82 101.99 C 272.45 96.80 271.76 91.88 272.68 86.67 C 275.44 86.03 278.19 85.41 281.02 85.13 Z" fill="#494949" />
<path d="M 308.17 86.62 C 311.28 87.24 314.58 87.07 316.40 90.11 C 316.87 93.87 316.06 97.70 313.34 100.46 C 310.46 100.95 307.36 99.16 304.53 99.45 C 300.26 102.63 299.94 110.23 300.78 114.99 C 301.16 118.02 303.60 119.05 305.72 120.81 C 307.89 119.04 309.98 116.87 312.45 115.52 C 315.04 114.42 318.15 116.17 318.34 119.09 C 318.15 122.18 317.03 125.58 314.81 127.81 C 312.33 129.63 308.88 130.34 305.91 130.89 C 299.31 132.56 292.21 128.00 290.48 121.51 C 288.70 115.13 289.41 107.72 290.23 101.21 C 290.65 95.75 293.83 90.38 298.38 87.34 C 301.07 85.39 305.10 86.29 308.17 86.62 Z" fill="#494949" />
<path d="M 139.07 86.50 C 140.93 87.68 142.66 88.33 143.07 90.74 C 143.79 94.44 145.88 99.57 144.25 103.15 C 142.18 103.99 139.83 104.41 137.64 104.85 C 136.84 102.54 136.08 100.22 135.37 97.87 C 133.76 98.50 132.15 99.14 130.54 99.79 C 132.12 109.43 133.74 118.64 132.39 128.46 C 131.97 130.27 131.82 132.09 130.01 133.07 C 126.14 135.39 122.18 134.63 117.98 134.00 C 118.81 129.15 120.77 125.09 120.55 120.08 C 120.48 112.89 120.68 105.56 119.67 98.43 C 119.34 95.14 117.06 93.57 115.05 91.23 C 117.00 90.04 118.98 88.71 121.10 87.87 C 123.91 88.24 126.90 89.88 129.70 89.62 C 132.86 89.16 136.05 87.53 139.07 86.50 Z" fill="#494949" />
<path d="M 159.18 87.18 C 161.93 86.96 167.82 88.41 170.18 89.89 C 174.14 94.71 174.38 101.07 175.10 107.01 C 175.58 111.15 174.65 114.92 173.68 118.90 C 172.63 123.60 169.93 128.16 166.13 131.14 C 161.20 134.53 154.35 132.69 151.08 127.87 C 146.02 121.26 146.13 113.86 147.13 105.97 C 147.51 101.92 147.61 98.21 149.51 94.51 C 151.12 90.68 155.34 88.21 159.18 87.18 Z" fill="#494949" />
<path d="M 249.45 87.92 C 250.94 88.66 252.63 89.00 253.29 90.70 C 256.11 96.50 254.65 101.63 255.99 107.75 C 256.76 111.63 255.93 116.65 257.98 120.05 C 260.80 123.73 266.30 124.93 270.70 124.56 C 273.24 124.33 274.97 122.53 275.17 119.99 C 275.45 116.33 275.27 112.63 275.42 108.96 C 275.80 102.11 274.19 95.44 274.86 88.57 C 276.23 88.33 277.59 88.08 278.95 87.82 C 277.07 93.85 277.47 99.82 277.16 106.02 C 276.91 114.10 277.70 122.01 278.31 130.04 C 275.48 128.72 273.48 126.87 270.13 127.41 C 265.24 127.47 260.05 130.55 255.58 128.46 C 253.17 127.56 251.73 126.40 251.29 123.76 C 249.82 115.82 251.20 107.28 250.73 99.23 C 250.43 95.45 249.69 91.71 249.45 87.92 Z" fill="#fefefe" />
<path d="M 47.17 89.56 C 52.22 89.81 57.23 89.20 62.26 89.70 C 65.39 90.00 68.49 89.40 71.61 89.55 C 75.73 92.18 74.76 96.84 74.72 101.01 C 74.83 106.67 73.33 111.36 75.06 116.84 C 76.14 122.03 77.03 126.71 80.53 130.90 C 78.13 131.64 75.74 132.44 73.33 133.17 C 69.18 125.22 70.59 117.62 70.15 109.11 C 69.11 104.06 69.48 99.23 70.08 94.17 C 65.69 94.62 61.01 93.74 56.73 94.72 C 54.97 97.93 55.19 101.43 55.31 104.97 C 55.63 110.75 54.73 115.99 56.46 121.63 C 57.59 125.31 57.62 129.03 57.31 132.83 C 55.70 132.64 54.08 132.45 52.46 132.27 C 52.10 119.51 52.84 107.30 50.46 94.63 C 49.96 92.75 48.26 91.15 47.17 89.56 Z" fill="#fefefe" />
<path d="M 301.12 88.85 C 304.09 88.57 307.43 88.70 310.26 89.71 C 313.23 92.40 313.80 94.80 312.80 98.60 C 310.93 97.23 309.11 95.50 307.00 94.52 C 303.19 95.61 299.78 97.22 297.99 100.98 C 294.82 106.14 295.74 111.73 296.71 117.39 C 297.18 121.07 301.38 123.62 304.87 123.35 C 307.74 121.76 309.92 118.87 312.41 116.76 C 312.93 119.41 313.90 122.58 313.36 125.28 C 312.10 127.61 308.32 127.89 305.99 128.25 C 300.46 129.18 294.49 125.50 292.97 120.08 C 290.86 113.94 292.27 106.30 292.90 99.92 C 293.27 95.29 296.18 89.74 301.12 88.85 Z" fill="#fefefe" />
<path d="M 158.09 90.57 C 161.12 90.61 164.76 91.25 167.54 92.44 C 170.48 95.31 170.90 101.08 171.33 104.95 C 171.53 110.85 171.60 117.67 169.14 123.14 C 167.62 125.84 165.17 129.67 161.96 130.37 C 159.43 130.04 156.76 128.93 155.05 126.97 C 152.09 123.55 149.74 119.75 149.65 115.08 C 149.59 109.11 149.84 102.94 150.98 97.07 C 151.47 93.41 154.95 91.62 158.09 90.57 Z" fill="#fefefe" />
<path d="M 408.20 90.33 C 410.40 90.21 413.30 91.64 414.38 93.61 C 418.87 101.70 419.69 111.50 414.46 119.47 C 412.16 123.39 405.25 124.43 402.55 120.42 C 399.16 115.77 399.72 109.39 399.72 103.94 C 399.65 98.77 403.00 91.90 408.20 90.33 Z" fill="#494949" />
<path d="M 120.95 91.57 C 122.93 92.34 125.03 93.51 127.14 93.77 C 131.02 94.04 134.87 92.50 138.48 91.26 C 139.53 94.95 140.66 98.59 142.07 102.15 C 141.06 101.99 140.06 101.82 139.05 101.65 C 138.49 99.38 138.03 97.08 137.60 94.79 C 134.25 96.19 130.87 97.43 127.42 98.55 C 127.21 103.42 127.43 108.08 128.16 112.90 C 129.06 119.09 128.77 125.48 128.02 131.68 C 125.68 131.77 123.34 131.81 120.99 131.78 C 121.99 127.75 123.44 124.28 123.37 120.06 C 123.14 110.45 123.18 100.98 120.95 91.57 Z" fill="#fefefe" />
<path d="M 90.59 91.65 C 90.70 93.39 90.78 95.12 90.85 96.86 C 89.68 96.75 88.50 96.64 87.33 96.52 C 88.36 94.86 89.44 93.24 90.59 91.65 Z" fill="#fefefe" />
<path d="M 219.08 91.21 C 222.18 92.14 225.66 93.75 227.78 96.27 C 228.57 100.55 228.29 105.01 228.85 109.35 C 229.08 112.20 229.68 115.69 228.63 118.41 C 225.76 120.42 221.06 124.64 217.41 122.71 C 214.48 121.58 211.75 119.34 210.68 116.30 C 207.26 107.20 210.02 95.90 219.08 91.21 Z" fill="#494949" />
<path d="M 407.39 93.08 C 408.77 92.58 410.87 92.95 411.66 94.30 C 413.78 97.71 415.64 101.86 415.64 105.94 C 415.69 110.45 415.21 115.67 412.31 119.35 C 410.93 120.97 408.00 121.22 406.84 119.20 C 403.65 114.46 403.94 107.49 404.33 102.05 C 404.67 98.90 404.87 95.35 407.39 93.08 Z" fill="#fefefe" />
<path d="M 164.94 96.06 C 167.25 98.50 167.33 101.32 167.65 104.48 C 168.57 111.04 168.46 117.40 165.48 123.45 C 164.58 125.23 162.90 125.92 161.04 126.26 C 158.52 125.61 156.25 124.31 155.14 121.85 C 152.57 116.20 151.70 109.61 152.70 103.48 C 153.29 100.19 154.90 96.54 157.68 94.53 C 159.87 92.84 163.45 93.84 164.94 96.06 Z" fill="#494949" />
<path d="M 218.79 94.32 C 221.09 95.68 223.36 97.08 225.73 98.34 C 226.16 102.77 226.71 107.36 226.37 111.81 C 225.30 115.00 223.20 117.94 221.30 120.69 C 218.97 118.78 215.48 117.18 215.10 113.86 C 214.25 109.74 214.08 104.61 214.60 100.44 C 214.95 97.62 216.80 96.09 218.79 94.32 Z" fill="#fefefe" />
<path d="M 163.65 98.36 C 165.65 101.94 165.66 106.95 165.65 110.95 C 165.51 115.14 165.36 119.93 163.60 123.79 L 162.10 123.93 C 159.53 121.86 157.76 118.56 157.27 115.31 C 156.24 108.81 156.15 102.30 158.40 96.04 C 160.58 96.26 162.36 96.33 163.65 98.36 Z" fill="#fefefe" />
<path d="M 338.51 99.22 C 338.65 102.17 338.79 105.12 338.80 108.08 C 334.23 106.90 329.73 105.87 325.01 105.52 C 324.77 104.21 324.54 102.90 324.31 101.59 C 328.92 99.21 333.43 98.98 338.51 99.22 Z" fill="#494949" />
<path d="M 333.39 100.71 C 333.73 101.84 334.07 102.97 334.42 104.10 C 331.79 103.81 329.17 103.55 326.56 103.10 C 328.78 102.00 330.99 101.27 333.39 100.71 Z" fill="#fefefe" />
<path d="M 188.35 105.25 C 189.50 105.10 190.63 105.06 191.74 105.14 C 194.01 106.82 194.46 110.36 192.32 112.33 C 190.02 113.74 186.75 113.73 184.21 113.07 C 181.54 112.47 181.90 108.80 182.80 106.89 C 184.54 105.97 186.41 105.53 188.35 105.25 Z" fill="#494949" />
<path d="M 188.42 107.68 C 188.71 108.91 188.99 110.15 189.26 111.40 C 187.52 111.32 185.78 111.23 184.05 111.13 C 184.25 110.12 184.47 109.10 184.69 108.09 C 185.93 107.86 187.17 107.73 188.42 107.68 Z" fill="#fefefe" />
<path d="M 480.49 122.46 C 482.10 122.13 483.72 121.92 485.27 122.61 C 487.54 123.21 487.37 126.04 487.33 127.92 C 487.06 130.46 484.14 131.64 481.90 131.86 C 479.30 131.96 476.03 133.27 474.30 130.64 C 472.69 129.05 473.58 126.43 474.92 124.99 C 476.47 123.69 478.54 122.93 480.49 122.46 Z" fill="#494949" />
<path d="M 476.20 126.24 C 478.51 126.41 482.19 125.21 482.93 128.19 C 480.97 130.02 478.81 129.85 476.33 129.87 C 476.23 128.66 476.19 127.45 476.20 126.24 Z" fill="#fefefe" />
</svg>