<?xml version="1.0" standalone="no"?>
<!DOCTYPE svg PUBLIC "-//W3C//DTD SVG 20010904//EN"
 "http://www.w3.org/TR/2001/REC-SVG-20010904/DTD/svg10.dtd">
<svg version="1.0" xmlns="http://www.w3.org/2000/svg"
 width="1000.000000pt" height="727.000000pt" viewBox="0 0 1000.000000 727.000000"
 preserveAspectRatio="xMidYMid meet">
<metadata>
Created by potrace 1.16, written by Peter Selinger 2001-2019
</metadata>
<g transform="translate(0.000000,727.000000) scale(0.100000,-0.100000)"
fill="#000000" stroke="none">
<path d="M3315 7165 c-140 -20 -240 -56 -306 -112 -55 -47 -101 -107 -127
-168 -75 -171 -88 -270 -69 -525 8 -109 11 -195 6 -208 -5 -13 -6 -34 -3 -47
3 -12 1 -26 -5 -29 -17 -11 -13 -36 6 -36 15 0 15 -1 0 -18 -10 -10 -17 -23
-17 -28 0 -5 -18 -36 -40 -69 -45 -68 -47 -75 -21 -75 14 0 17 -6 13 -26 -6
-33 17 -29 35 6 l11 23 4 -23 c4 -31 28 -38 35 -11 3 12 12 21 19 21 17 0 17
-5 4 -31 -8 -13 -7 -19 0 -19 6 0 17 14 24 31 12 29 13 30 19 9 3 -12 10 -19
16 -16 6 4 13 -4 17 -18 l6 -25 33 19 34 19 3 -32 c2 -25 7 -32 23 -30 11 1
54 -7 95 -19 41 -11 106 -21 143 -22 52 -1 71 -6 78 -18 6 -11 20 -15 44 -14
20 2 38 -1 41 -5 3 -5 14 -9 24 -9 13 0 17 -5 14 -14 -3 -8 4 -28 16 -43 17
-25 21 -41 18 -98 -3 -66 -5 -70 -35 -88 -31 -18 -32 -18 -73 3 -65 33 -140 6
-208 -76 -17 -22 -38 -47 -47 -56 -24 -28 -91 -169 -106 -223 -9 -32 -14 -98
-13 -185 1 -139 2 -142 81 -490 38 -170 116 -327 257 -518 59 -80 290 -321
392 -409 92 -79 211 -170 260 -198 27 -16 83 -52 124 -80 103 -72 188 -122
303 -180 68 -34 94 -52 87 -59 -18 -18 -188 -12 -203 7 -15 19 -64 30 -72 17
-3 -6 4 -10 16 -10 16 0 20 -5 17 -18 -3 -11 1 -30 8 -43 19 -34 17 -39 -10
-39 -14 0 -28 -4 -31 -10 -3 -5 -12 -10 -18 -10 -7 0 -6 4 3 10 8 5 11 12 8
16 -4 3 -19 -3 -34 -15 -29 -23 -45 -21 -25 3 10 12 6 13 -26 5 -49 -11 -55
-11 -48 1 7 11 -23 2 -42 -13 -9 -6 -13 -6 -13 2 0 8 -8 10 -20 6 -12 -4 -20
-2 -20 5 0 7 -6 10 -14 7 -8 -3 -29 -2 -47 3 -18 5 -37 6 -43 2 -6 -5 -33 -8
-61 -7 -27 1 -81 -5 -120 -12 -38 -8 -117 -16 -175 -19 -58 -3 -117 -10 -132
-15 -39 -16 -72 -8 -76 17 -3 20 2 22 47 25 36 3 51 0 51 -8 0 -7 7 -13 16
-13 13 0 14 3 5 14 -18 21 -3 26 106 31 54 3 125 8 158 11 33 4 70 7 83 7 12
1 22 5 22 10 0 5 -26 6 -57 3 -119 -13 -172 -9 -190 14 -8 10 -15 11 -20 5 -5
-6 -60 -11 -133 -11 -558 -1 -625 -5 -707 -45 -52 -25 -52 -31 2 -19 58 14
249 12 295 -2 47 -15 50 -28 15 -90 l-25 -45 26 -24 25 -24 17 22 c33 43 272
89 577 112 77 6 160 14 185 17 42 5 44 5 25 -10 -20 -15 -19 -15 4 -11 14 3
28 10 32 17 6 9 28 8 101 -5 51 -10 134 -19 183 -21 75 -3 95 0 123 16 46 28
57 53 38 83 -20 30 -5 41 34 25 29 -12 149 -9 184 5 10 5 26 3 36 -3 26 -16
200 -56 296 -67 38 -5 53 -3 63 9 11 13 7 15 -26 14 -21 0 -92 12 -158 27
-137 30 -150 33 -143 41 3 3 41 -2 84 -10 124 -23 151 -27 134 -17 -19 11
-125 47 -164 56 -25 5 -146 80 -146 90 0 7 141 -43 178 -64 13 -7 38 -11 56
-10 18 2 47 -5 66 -17 19 -11 51 -28 70 -39 19 -10 40 -26 47 -34 6 -9 15 -13
19 -9 12 13 -18 39 -85 72 -74 36 -88 56 -40 56 38 0 154 62 170 91 17 32 5
45 -76 84 -88 41 -94 55 -12 26 31 -10 58 -16 61 -13 10 9 -65 34 -130 42 -72
9 -83 14 -81 40 2 25 3 25 34 0 30 -24 51 -27 33 -5 -23 28 -6 24 79 -16 49
-23 94 -39 110 -37 22 3 16 8 -41 35 -81 39 -98 59 -42 49 21 -4 57 -10 79
-13 22 -3 56 -17 77 -30 41 -27 54 -68 42 -130 -4 -21 -7 -53 -7 -72 0 -46 34
-121 55 -121 26 0 48 -28 48 -61 0 -30 14 -39 23 -16 3 9 24 14 55 15 28 0 69
6 92 12 30 8 50 8 75 0 44 -15 165 -22 165 -10 0 6 -25 10 -55 10 -30 0 -75 7
-100 15 -40 14 -50 14 -90 0 -77 -26 -120 -20 -161 20 -19 19 -41 35 -48 35
-24 0 -36 132 -16 184 6 16 6 27 0 31 -6 4 -10 20 -10 36 0 40 -16 69 -39 69
-10 0 -31 7 -47 14 -15 8 -31 13 -36 10 -4 -3 -34 2 -65 10 -32 8 -70 17 -85
20 -30 7 -148 143 -148 171 0 10 7 44 16 77 52 204 74 376 74 605 1 223 -17
342 -80 531 -31 92 -54 132 -74 132 -7 0 -19 15 -27 33 -83 206 -161 312 -310
417 -34 25 -81 59 -104 75 -22 17 -57 41 -77 54 -21 12 -38 26 -38 29 0 4 -20
21 -45 37 -24 17 -45 33 -45 37 0 4 -17 16 -37 27 -21 11 -63 47 -93 81 -30
34 -70 71 -89 82 -30 19 -33 24 -27 56 3 19 1 43 -5 53 -6 13 -6 19 1 19 6 0
10 24 10 57 0 86 58 186 129 223 64 33 218 27 386 -16 133 -35 221 -13 263 64
13 23 28 42 33 42 5 0 19 -16 31 -35 19 -33 22 -35 41 -22 30 20 45 71 46 152
2 154 -47 216 -234 296 -11 4 -46 15 -78 24 -43 12 -61 23 -72 43 -31 57 -61
83 -144 122 -8 3 -21 25 -29 49 -10 31 -43 71 -121 150 -59 59 -115 111 -125
114 -9 4 -65 9 -124 12 -59 3 -127 8 -152 10 -25 3 -88 9 -141 15 -53 5 -102
11 -110 14 -8 2 -54 -2 -104 -9z m264 -288 c35 -12 84 -69 118 -137 16 -32 23
-35 65 -38 30 -2 61 4 90 17 63 29 123 40 195 35 35 -2 63 -1 63 4 0 4 9 8 20
8 19 0 19 0 0 -34 -20 -32 -42 -140 -33 -155 10 -16 22 6 28 51 7 58 30 111
50 118 8 4 15 13 15 21 0 12 3 13 13 4 8 -6 16 -8 20 -5 3 3 15 3 27 -1 16 -5
19 -12 14 -28 -7 -22 -53 -64 -66 -60 -4 2 -5 -3 -3 -10 3 -6 -13 -32 -35 -56
-39 -43 -55 -76 -25 -51 9 7 19 10 22 6 4 -4 3 -10 -3 -14 -14 -9 -74 -127
-74 -146 0 -7 -9 -16 -20 -19 -25 -7 -25 -5 4 41 25 38 43 122 27 122 -10 0
-31 -54 -31 -81 0 -11 -16 -36 -35 -58 -19 -21 -35 -41 -35 -43 0 -3 31 -3 68
-1 37 2 81 -1 97 -7 l29 -11 -37 -26 c-48 -34 -40 -42 9 -9 43 29 62 25 24 -4
-30 -24 -14 -26 20 -4 l25 16 -24 -21 c-13 -12 -21 -24 -17 -28 3 -3 14 1 24
11 15 12 25 14 43 7 l24 -10 -27 0 c-17 -1 -28 -7 -28 -15 0 -7 -12 -25 -27
-40 -14 -14 -23 -29 -20 -32 12 -12 49 9 60 33 7 15 30 34 57 46 65 30 67 31
49 16 -22 -19 -32 -49 -16 -49 7 0 18 5 25 12 9 9 12 8 12 -5 0 -23 47 -23 72
0 17 15 20 15 28 3 7 -11 4 -16 -10 -18 -25 -4 -59 -62 -37 -62 8 0 22 9 31
19 10 11 24 17 32 14 8 -3 26 5 40 17 13 13 24 18 24 11 0 -6 -7 -14 -15 -17
-29 -12 -14 -22 20 -14 43 10 44 0 6 -42 -27 -31 -34 -33 -93 -33 -35 0 -97 8
-138 17 -180 40 -279 48 -351 26 -56 -16 -117 -73 -148 -137 -32 -68 -75 -93
-166 -96 -33 -2 -64 -4 -70 -6 -5 -2 -21 3 -34 10 -19 10 -32 11 -62 2 -29 -9
-44 -9 -60 0 -13 7 -41 9 -68 5 -25 -3 -67 -8 -94 -12 -31 -4 -53 -2 -62 6 -8
6 -19 9 -24 6 -5 -4 -14 2 -20 11 -10 17 -10 17 -11 1 0 -21 -13 -23 -32 -5
-7 8 -18 12 -24 10 -6 -2 -16 8 -24 21 -11 21 -10 27 4 41 17 18 22 65 6 65
-5 0 -9 10 -9 23 0 12 -2 32 -6 45 -5 14 -3 22 4 22 6 0 11 -8 11 -17 0 -25
17 -4 26 31 5 22 4 27 -6 21 -10 -6 -11 -3 -5 16 4 13 8 38 10 55 4 47 38 104
98 164 l54 55 5 82 c4 45 10 88 14 95 5 7 20 42 34 77 23 60 29 66 85 96 66
36 125 43 184 22z m754 -207 c13 -16 11 -47 -4 -66 -5 -6 -16 -57 -24 -115 -9
-57 -20 -112 -26 -122 -15 -27 -4 -32 25 -13 24 15 56 94 56 138 0 22 45 114
60 123 11 7 95 -22 168 -59 116 -56 170 -200 126 -329 l-16 -47 -24 30 c-32
37 -83 54 -140 45 -41 -6 -46 -4 -80 29 -41 40 -82 51 -153 42 -42 -5 -50 -3
-70 18 -12 13 -39 27 -59 31 -59 10 -72 15 -72 30 0 29 63 138 104 178 42 43
80 96 74 102 -2 2 -25 -23 -52 -56 -44 -54 -66 -71 -66 -51 0 5 28 41 63 80
l62 72 18 -22 c10 -13 24 -30 30 -38z m67 -47 c0 -3 -7 -14 -16 -24 -8 -9 -24
-39 -35 -65 l-20 -49 5 55 c4 40 11 60 27 73 22 17 39 22 39 10z m-90 -240
c-11 -17 -11 -17 -6 0 3 10 7 26 7 35 1 15 2 15 6 0 2 -10 -1 -25 -7 -35z
m-1260 -398 c7 -9 8 -15 2 -15 -5 0 -12 7 -16 15 -3 8 -4 15 -2 15 2 0 9 -7
16 -15z m-227 -67 c-4 -34 -10 -48 -21 -48 -10 0 -12 4 -5 13 5 6 10 25 11 40
2 28 11 52 17 45 2 -2 1 -24 -2 -50z m161 -65 c-8 -32 -12 -39 -19 -31 -9 8 6
58 16 58 5 0 6 -12 3 -27z m58 -75 c-7 -7 -12 -8 -12 -2 0 14 12 26 19 19 2
-3 -1 -11 -7 -17z m365 -40 c-3 -8 -6 -5 -6 6 -1 11 2 17 5 13 3 -3 4 -12 1
-19z m483 -75 l22 -38 -22 20 c-27 24 -44 55 -31 55 5 0 19 -17 31 -37z m188
-233 c7 -11 9 -20 4 -20 -4 0 -13 9 -20 20 -7 11 -9 20 -4 20 4 0 13 -9 20
-20z m-538 -4 c0 -3 -4 -8 -10 -11 -5 -3 -10 -1 -10 4 0 6 5 11 10 11 6 0 10
-2 10 -4z m294 -18 c3 -13 6 -30 6 -38 -1 -13 -2 -13 -9 0 -16 27 -22 60 -13
60 5 0 12 -10 16 -22z m-251 -25 c26 -61 127 -334 127 -345 0 -10 26 -78 82
-218 42 -106 89 -188 109 -193 10 -3 16 0 14 7 -2 6 -13 42 -25 79 -12 38 -19
71 -16 74 3 3 8 0 10 -8 3 -8 23 -68 45 -134 22 -66 55 -154 74 -195 20 -41
33 -79 29 -84 -3 -5 -12 6 -20 25 -8 19 -21 49 -29 67 -16 36 -38 44 -28 10
17 -57 119 -275 138 -295 25 -28 35 -22 15 9 -8 13 -17 32 -21 43 -6 19 -6 19
6 1 7 -10 27 -41 45 -68 19 -27 32 -51 30 -53 -11 -11 -60 29 -114 94 -59 70
-65 83 -109 220 -59 184 -58 181 -62 156 -2 -11 16 -80 41 -152 41 -125 47
-159 19 -113 -33 51 -106 228 -105 254 0 15 -17 64 -39 108 -23 44 -56 125
-74 181 -18 56 -43 124 -55 152 -12 27 -27 75 -35 105 -7 30 -16 64 -20 75 -5
16 -5 17 4 5 16 -22 67 -155 88 -227 9 -35 21 -63 25 -63 11 0 11 -2 -13 76
-39 127 -112 304 -125 304 -12 0 -23 30 -39 108 -9 44 7 41 28 -5z m-203 19
c0 -5 -11 -14 -23 -19 -33 -15 -55 -67 -63 -146 -5 -52 -4 -71 8 -85 23 -27
36 -72 40 -140 5 -71 -5 -70 -23 3 -27 112 -41 155 -49 155 -4 0 -2 -19 5 -42
21 -72 26 -173 10 -194 -14 -18 -14 -18 -15 5 0 13 -3 22 -6 18 -3 -3 8 -59
25 -125 36 -136 37 -150 12 -102 -20 38 -63 200 -63 238 0 14 -4 20 -10 14 -5
-5 -5 -26 1 -53 13 -54 13 -82 0 -51 -21 53 -35 140 -27 162 7 20 6 21 -7 10
-13 -11 -15 -6 -15 36 0 31 3 44 9 35 6 -8 11 5 15 41 12 92 23 85 31 -19 8
-111 22 -199 24 -148 0 17 -4 75 -9 129 -11 111 -4 152 34 209 16 24 21 37 13
40 -9 3 -8 8 2 20 14 17 81 24 81 9z m92 -25 c3 -6 1 -20 -4 -33 -8 -18 -5
-42 16 -108 34 -109 112 -295 130 -310 7 -6 19 -33 27 -61 7 -27 19 -61 26
-75 7 -14 13 -29 13 -33 0 -4 18 -36 40 -70 33 -53 37 -64 25 -73 -8 -6 -15
-18 -15 -25 0 -19 53 -156 85 -218 28 -57 29 -61 14 -61 -11 0 -77 137 -99
205 -7 22 -18 47 -24 55 -26 34 -80 170 -110 275 -56 196 -141 425 -157 425
-12 0 -12 -2 16 -67 41 -99 92 -245 105 -303 22 -101 71 -234 121 -330 47 -91
119 -253 115 -257 -20 -20 -106 141 -106 199 0 17 -2 20 -9 9 -7 -11 -17 2
-40 50 -43 92 -101 237 -101 254 0 18 -70 236 -80 250 -16 21 -60 158 -64 196
-2 22 -6 42 -10 46 -12 13 -6 62 10 71 19 10 66 3 76 -11z m51 -20 c26 -60 82
-213 100 -272 57 -186 101 -301 153 -408 24 -49 42 -93 39 -97 -9 -14 41 -145
85 -225 23 -41 37 -75 31 -75 -6 0 -1 -16 11 -35 11 -20 23 -34 26 -31 3 3 -1
12 -7 20 -8 9 -8 16 -2 20 5 4 18 -5 28 -20 10 -14 33 -43 51 -64 45 -53 40
-54 -15 -4 -25 24 -49 42 -52 41 -3 -1 -19 7 -34 17 -29 20 -49 58 -111 216
-21 52 -45 111 -53 132 -8 20 -13 41 -9 46 3 5 -18 61 -48 123 -29 63 -63 152
-76 199 -25 98 -34 113 -28 53 5 -56 -4 -44 -35 47 -14 41 -38 106 -52 144
-31 86 -31 105 0 46 33 -62 31 -33 -4 53 -41 100 -45 117 -29 117 7 0 21 -19
31 -43z m137 15 c0 -15 4 -32 8 -37 5 -6 17 -39 27 -75 36 -131 65 -225 74
-239 13 -20 33 -3 25 22 -3 12 -4 19 0 16 14 -13 55 -164 46 -167 -16 -6 -12
-31 20 -126 16 -50 28 -91 26 -93 -8 -8 -45 65 -74 147 -60 165 -149 450 -157
505 -4 22 -9 48 -12 58 -2 9 0 17 6 17 6 0 11 -13 11 -28z m424 -101 c-8 -8
-94 85 -94 101 1 7 23 -11 50 -41 28 -30 47 -57 44 -60z m182 44 c1 -15 13
-38 26 -52 21 -24 22 -25 2 -13 -28 17 -74 88 -74 114 0 20 0 20 21 -1 12 -12
23 -33 25 -48z m-1011 36 c-3 -6 -11 -11 -17 -11 -6 0 -6 6 2 15 14 17 26 13
15 -4z m694 -13 c0 -28 -2 -30 -9 -13 -12 28 -12 45 0 45 6 0 10 -15 9 -32z
m191 -54 c0 -13 5 -26 10 -29 6 -3 10 -12 10 -18 0 -7 -16 10 -35 37 -42 59
-48 91 -10 56 14 -13 25 -34 25 -46z m-805 34 c-4 -13 -12 -27 -18 -33 -7 -7
-8 -4 -3 8 3 10 6 25 6 33 0 8 5 14 11 14 6 0 8 -9 4 -22z m512 10 c12 -16 59
-168 69 -223 3 -22 11 -45 16 -52 10 -12 1 -79 -9 -69 -3 2 -15 47 -28 98 -13
51 -34 130 -48 176 -23 76 -23 99 0 70z m73 -15 c0 -22 -2 -25 -10 -13 -13 20
-13 40 0 40 6 0 10 -12 10 -27z m-550 -32 c0 -27 3 -51 8 -53 4 -1 19 -34 34
-73 14 -38 42 -113 62 -165 20 -52 36 -110 36 -128 0 -19 6 -46 14 -60 29 -57
87 -204 82 -210 -11 -10 -95 185 -121 284 -28 103 -41 132 -33 77 6 -41 -2
-42 -24 -3 -9 17 -13 30 -8 30 5 0 5 14 -1 32 -5 18 -9 45 -9 60 0 16 -4 28
-8 28 -5 0 -21 35 -36 79 -20 58 -26 88 -21 115 10 52 25 44 25 -13z m1088
-84 c25 -26 30 -37 21 -43 -8 -5 -27 9 -56 42 -24 27 -50 48 -57 46 -14 -2
-61 40 -77 70 -13 25 127 -71 169 -115z m-683 76 c6 -32 63 -171 96 -235 6
-12 5 -18 -1 -18 -13 0 -74 121 -95 190 -23 76 -27 100 -16 100 5 0 12 -17 16
-37z m466 -44 c20 -30 40 -67 43 -84 10 -38 10 -38 -64 74 -44 67 -55 90 -39
79 13 -8 40 -40 60 -69z m-1035 10 c-8 -24 -14 -37 -15 -28 -1 19 20 82 25 76
2 -2 -2 -23 -10 -48z m1039 31 c3 -5 1 -10 -4 -10 -6 0 -11 5 -11 10 0 6 2 10
4 10 3 0 8 -4 11 -10z m-902 -103 c-10 -16 -22 8 -28 53 l-6 45 20 -45 c10
-25 17 -49 14 -53z m646 50 c1 -5 -3 -5 -9 -2 -5 3 -10 16 -9 28 0 21 1 21 9
2 5 -11 9 -24 9 -28z m-150 -37 c12 -30 21 -59 21 -65 -1 -16 -46 77 -54 110
-11 46 9 19 33 -45z m247 53 c16 -21 18 -37 4 -28 -13 8 -33 45 -24 45 4 0 13
-8 20 -17z m-943 -8 c-3 -9 -8 -14 -10 -11 -3 3 -2 9 2 15 9 16 15 13 8 -4z
m1017 -46 c0 -6 -11 3 -25 19 -14 17 -25 34 -25 38 1 12 50 -45 50 -57z m-185
-33 c13 -36 20 -66 15 -66 -10 0 -60 113 -60 136 0 32 20 0 45 -70z m220 38
c9 -15 12 -23 6 -20 -11 7 -35 46 -28 46 3 0 12 -12 22 -26z m269 -101 c8 -46
-4 -41 -38 15 -73 119 -74 122 -19 67 33 -32 53 -62 57 -82z m-104 44 c0 -7
-11 1 -25 17 -14 16 -25 34 -25 40 1 15 50 -42 50 -57z m-241 13 c11 -24 11
-24 -3 -6 -9 11 -16 24 -16 30 0 12 5 7 19 -24z m-736 -42 c20 -52 32 -108 23
-108 -9 0 -56 109 -56 131 0 33 17 21 33 -23z m887 -23 c-1 -5 -12 4 -25 20
-14 17 -25 35 -25 40 1 6 12 -3 25 -20 14 -16 25 -34 25 -40z m148 3 c12 -23
21 -42 20 -44 -2 -1 -18 18 -36 42 -19 25 -27 44 -20 44 7 0 23 -19 36 -42z
m-1285 -98 c2 -69 1 -116 -3 -105 -9 25 -13 85 -11 174 2 99 8 69 14 -69z
m1067 87 c0 -5 -4 -5 -10 -2 -5 3 -10 14 -10 23 0 15 2 15 10 2 5 -8 10 -19
10 -23z m340 -48 c23 -34 40 -63 38 -65 -5 -4 -69 80 -87 115 -23 42 6 12 49
-50z m-478 -6 c16 -17 43 -111 35 -120 -5 -4 -62 131 -71 167 -6 24 -6 24 7
-2 7 -14 20 -35 29 -45z m97 17 c-1 -24 -1 -24 -14 5 -7 17 -11 34 -8 39 8 13
23 -16 22 -44z m201 -84 c17 -32 30 -69 30 -83 0 -13 7 -46 16 -73 9 -27 14
-57 12 -67 -3 -11 -10 0 -20 32 -9 28 -23 67 -32 87 -9 20 -15 47 -14 60 0 13
-15 50 -36 82 -20 33 -36 65 -36 70 1 19 50 -47 80 -108z m210 69 c0 -5 -5 -3
-10 5 -5 8 -10 20 -10 25 0 6 5 3 10 -5 5 -8 10 -19 10 -25z m-1396 -7 c3 -13
6 -44 6 -69 0 -25 5 -71 11 -103 5 -31 9 -65 7 -74 -4 -18 -33 125 -44 216 -7
53 8 75 20 30z m686 -9 c0 -6 -4 -7 -10 -4 -5 3 -10 11 -10 16 0 6 5 7 10 4 6
-3 10 -11 10 -16z m760 -57 c0 -4 -9 7 -20 23 -11 17 -20 35 -20 40 0 6 9 -5
20 -23 11 -18 20 -36 20 -40z m-1212 -19 c-3 -13 -9 -7 -21 21 -23 53 -21 68
4 29 11 -18 19 -40 17 -50z m746 -39 c3 -39 8 -86 11 -105 5 -32 5 -32 -6 -9
-17 39 -50 210 -43 222 12 20 31 -34 38 -108z m-189 96 c3 -5 1 -10 -4 -10 -6
0 -11 5 -11 10 0 6 2 10 4 10 3 0 8 -4 11 -10z m319 -50 c7 -24 6 -24 -8 -6
-9 11 -16 29 -16 40 1 17 2 18 9 6 5 -8 12 -26 15 -40z m141 9 c21 -39 36 -79
30 -79 -6 0 -65 103 -65 113 0 15 20 -4 35 -34z m88 -64 c14 -28 30 -71 37
-95 6 -25 25 -74 42 -110 29 -60 66 -203 48 -183 -4 4 -17 37 -29 73 -23 69
-41 105 -41 82 0 -7 7 -27 16 -43 8 -17 13 -37 10 -44 -7 -18 23 -105 36 -105
6 0 8 -6 5 -14 -3 -7 -2 -17 3 -22 5 -5 12 -34 16 -64 5 -42 4 -52 -5 -44 -7
6 -14 28 -18 50 -3 21 -11 46 -18 54 -16 20 -48 163 -50 225 -1 32 -13 75 -33
118 -18 38 -32 73 -32 78 0 5 -13 38 -30 72 -16 35 -30 67 -30 71 0 15 48 -51
73 -99z m-630 30 l6 -30 -14 30 c-8 17 -14 39 -14 50 l0 20 8 -20 c4 -11 11
-33 14 -50z m172 8 c10 -32 22 -69 27 -83 4 -14 21 -73 37 -132 15 -58 38
-119 50 -134 11 -14 21 -37 21 -50 0 -12 7 -29 15 -37 9 -9 16 -43 20 -88 4
-70 -3 -70 -19 2 -3 14 -16 42 -30 61 -13 20 -30 63 -36 95 -7 32 -18 74 -25
93 -18 52 -52 161 -61 195 -4 17 -8 35 -10 40 -16 65 -21 95 -15 95 4 0 16
-26 26 -57z m-692 -42 c23 -97 51 -155 100 -209 49 -52 151 -239 136 -248 -10
-6 -48 34 -49 50 0 5 -18 32 -39 60 -21 28 -41 60 -44 71 l-5 20 -1 -20 c0
-11 8 -39 19 -62 10 -24 15 -43 9 -43 -5 0 -12 7 -16 16 -3 8 -11 13 -18 10
-25 -9 -104 152 -145 299 -22 76 -25 105 -11 105 4 0 14 -26 20 -57 11 -56 69
-191 70 -165 1 7 -8 29 -18 50 -10 20 -26 69 -35 107 -26 110 -26 105 -7 93
11 -6 24 -39 34 -77z m586 58 c13 -39 14 -49 2 -49 -5 0 -12 11 -15 24 -3 13
-9 31 -12 40 -3 9 -2 16 4 16 6 0 15 -14 21 -31z m631 -31 c0 -10 -2 -18 -5
-18 -5 0 -35 68 -35 79 1 14 40 -46 40 -61z m-1511 5 c0 -36 -3 -43 -9 -28
-12 28 -12 75 0 75 6 0 10 -21 9 -47z m316 15 c8 -18 22 -44 29 -58 8 -14 23
-59 34 -100 l20 -75 -24 30 c-13 16 -28 41 -33 55 -14 37 -51 162 -51 172 0
17 10 7 25 -24z m845 6 c0 -10 16 -64 36 -121 19 -57 33 -109 31 -116 -3 -7
-6 -5 -6 6 -1 9 -8 17 -16 17 -8 0 -15 8 -15 18 0 10 -9 45 -19 78 -27 84 -36
134 -22 134 6 0 11 -7 11 -16z m423 -81 c38 -74 57 -133 56 -173 0 -39 -4 -33
-34 60 -9 30 -32 88 -51 128 -19 41 -34 76 -34 79 0 12 39 -45 63 -94z m-1543
20 c0 -32 -5 -28 -14 10 -4 19 -3 26 4 22 5 -3 10 -18 10 -32z m124 -33 c49
-118 66 -173 60 -193 -6 -18 -6 -18 -20 1 -23 33 -62 153 -70 212 -8 67 -4 64
30 -20z m247 -18 c27 -83 94 -218 126 -253 19 -21 83 -189 83 -219 0 -27 -20
-4 -36 40 -10 28 -23 50 -29 50 -6 0 -25 27 -43 60 -28 51 -31 61 -18 66 19 7
22 25 4 22 -24 -5 -116 195 -133 286 -11 63 19 28 46 -52z m1089 16 c6 -24 23
-72 36 -106 26 -66 27 -96 1 -45 -26 50 -67 174 -61 184 9 15 13 10 24 -33z
m-246 -41 c2 -12 7 -35 10 -52 6 -29 6 -29 -5 -5 -6 14 -18 39 -26 57 -9 18
-12 40 -8 50 6 16 8 16 16 -5 5 -13 11 -33 13 -45z m384 31 c17 -57 20 -78 11
-78 -5 0 -12 18 -15 40 -4 22 -11 43 -15 46 -12 7 -11 24 0 24 5 0 14 -15 19
-32z m-1559 -49 c8 -46 7 -51 -5 -34 -8 10 -14 37 -14 59 0 52 9 41 19 -25z
m819 -77 c-2 -10 -14 6 -31 42 -37 80 -34 105 4 33 16 -32 29 -66 27 -75z
m262 59 c11 -37 20 -81 20 -96 0 -15 7 -63 16 -106 8 -43 14 -88 12 -101 -4
-26 -38 131 -38 175 0 15 -4 27 -9 27 -4 0 -11 23 -14 52 -4 28 -11 56 -16 61
-6 6 -6 -5 0 -29 11 -50 11 -63 0 -44 -13 19 -24 106 -16 120 14 22 25 7 45
-59z m250 -1 c6 -11 15 -18 21 -15 5 4 9 -1 9 -9 0 -9 9 -21 20 -28 22 -14 26
-34 9 -40 -12 -4 -2 -57 34 -185 9 -29 13 -53 11 -53 -8 0 -32 60 -49 125 -10
39 -22 75 -26 81 -17 21 -59 144 -49 144 5 0 14 -9 20 -20z m150 10 c0 -5 -4
-10 -10 -10 -5 0 -10 5 -10 10 0 6 5 10 10 10 6 0 10 -4 10 -10z m-1426 -94
c20 -68 21 -119 2 -66 -16 42 -30 120 -23 120 3 0 13 -24 21 -54z m-79 -90
c15 -60 29 -116 31 -125 3 -9 -5 4 -16 29 -26 56 -64 229 -46 209 2 -2 16 -53
31 -113z m20 64 c5 -16 4 -22 -3 -15 -5 6 -12 24 -16 40 -7 34 7 15 19 -25z
m229 -43 c14 -26 26 -55 26 -65 0 -9 12 -48 25 -87 30 -85 31 -98 4 -65 -38
47 -65 95 -87 153 -28 75 -28 80 4 34 35 -52 42 -40 9 14 -15 23 -31 56 -36
73 -9 30 -9 30 10 11 10 -11 30 -42 45 -68z m671 46 c15 -36 13 -55 -4 -37
-11 11 -25 74 -17 74 3 0 13 -16 21 -37z m-58 5 c-3 -8 -6 -5 -6 6 -1 11 2 17
5 13 3 -3 4 -12 1 -19z m680 -15 c9 -22 19 -82 22 -140 6 -103 -3 -129 -14
-38 -4 27 -9 53 -12 59 -4 5 -7 32 -8 60 -1 28 -5 61 -9 74 -12 36 4 25 21
-15z m-227 -68 c-10 -25 -6 -52 26 -194 8 -35 13 -65 10 -68 -7 -7 -59 158
-63 202 -4 36 -6 143 -3 155 0 3 10 -12 20 -32 15 -29 18 -43 10 -63z m-54
-37 c39 -171 26 -165 -26 12 -15 52 -26 99 -23 103 12 19 27 -17 49 -115z
m-1044 -92 c11 -17 47 -56 80 -86 48 -45 60 -63 64 -94 2 -21 14 -52 25 -68
12 -16 18 -32 14 -36 -12 -12 -101 94 -130 152 -15 30 -34 61 -43 68 -14 10
-15 10 -4 -2 6 -8 12 -21 12 -29 0 -11 -5 -9 -16 7 -8 12 -12 26 -9 32 3 5 -1
20 -10 33 -14 22 -85 196 -85 207 1 3 19 -31 41 -74 22 -44 49 -93 61 -110z
m1392 125 c20 -61 20 -61 1 -61 -8 0 -15 8 -15 18 0 9 -3 34 -6 55 -9 52 1 46
20 -12z m-257 17 c-3 -8 -6 -5 -6 6 -1 11 2 17 5 13 3 -3 4 -12 1 -19z m-1168
-21 c21 -56 19 -68 -3 -27 -14 25 -25 49 -26 53 0 15 21 -5 29 -26z m701 -46
c0 -24 -17 1 -24 34 l-6 30 15 -25 c8 -14 14 -32 15 -39z m306 45 c24 -24 34
-65 27 -109 l-6 -41 -14 45 c-18 55 -32 119 -26 119 2 0 11 -6 19 -14z m-1051
-60 c8 -25 12 -46 9 -46 -5 0 -21 40 -30 78 -11 43 6 18 21 -32z m1222 22 c-3
-7 -5 -2 -5 12 0 14 2 19 5 13 2 -7 2 -19 0 -25z m-354 -68 c18 -26 23 -70 8
-70 -5 0 -15 17 -21 38 -6 20 -18 51 -26 69 -20 44 -16 66 4 23 9 -19 25 -46
35 -60z m406 15 c5 -27 12 -68 15 -90 5 -35 4 -37 -5 -15 -14 30 -38 137 -38
165 -1 34 17 -4 28 -60z m-1045 -41 c26 -65 34 -114 17 -114 -12 0 -29 50 -25
73 2 14 -1 16 -11 7 -10 -9 -18 1 -34 45 -29 77 -28 90 3 70 14 -10 35 -43 50
-81z m1303 44 c-3 -7 -5 -2 -5 12 0 14 2 19 5 13 2 -7 2 -19 0 -25z m-1117 -6
c0 -15 -2 -15 -10 -2 -13 20 -13 33 0 25 6 -3 10 -14 10 -23z m417 -39 c39
-93 51 -127 56 -164 3 -19 8 -47 11 -64 4 -16 -12 22 -34 85 -22 63 -45 129
-51 145 -32 88 -19 86 18 -2z m663 50 c1 -10 3 -72 5 -138 3 -91 2 -114 -6
-95 -16 37 -25 250 -10 250 6 0 11 -8 11 -17z m-1481 -89 c1 -6 15 -44 31 -84
17 -40 29 -75 27 -77 -16 -15 -81 132 -91 207 l-6 45 19 -40 c11 -22 20 -45
20 -51z m311 -14 c14 -10 39 -80 29 -80 -6 0 -13 9 -16 20 -3 11 -12 20 -19
20 -8 0 -14 9 -14 21 0 11 -5 17 -10 14 -10 -6 -49 67 -50 93 0 8 16 -8 37
-35 20 -26 39 -50 43 -53z m469 20 c0 -8 -8 1 -19 20 -11 19 -19 42 -19 50 0
8 8 -1 19 -20 11 -19 19 -42 19 -50z m460 27 c1 -5 -3 -5 -9 -2 -5 3 -10 16
-9 28 0 21 1 21 9 2 5 -11 9 -24 9 -28z m-144 -51 c6 -41 8 -73 4 -70 -8 5
-12 22 -24 114 -10 74 7 36 20 -44z m125 -2 c0 -19 6 -34 15 -38 8 -3 15 -13
15 -23 0 -10 5 -36 12 -58 11 -38 12 -39 19 -15 7 24 7 24 8 -5 2 -52 13 -105
21 -100 4 3 10 -6 12 -20 7 -35 -4 -31 -21 8 -8 17 -23 43 -33 56 -10 13 -18
36 -18 51 0 16 -7 30 -15 34 -8 3 -15 16 -15 29 0 13 -4 37 -9 53 -5 16 -11
49 -14 74 -5 45 -5 45 9 15 7 -16 13 -44 14 -61z m-1274 -11 c-3 -4 -13 10
-21 30 -21 51 -18 59 6 14 11 -22 18 -41 15 -44z m1358 35 c10 -49 16 -188 8
-188 -5 0 -12 39 -15 88 -3 48 -9 95 -12 105 -4 10 -3 17 4 17 6 0 13 -10 15
-22z m-1229 -112 c31 -66 50 -114 42 -108 -20 17 -65 103 -87 168 -36 104 -26
90 45 -60z m285 103 c7 -11 9 -23 6 -26 -8 -9 -36 17 -36 33 0 21 18 17 30 -7z
m820 -78 c0 -27 -18 3 -24 39 l-6 35 15 -30 c8 -16 14 -37 15 -44z m269 -33
c1 -31 -3 -59 -8 -62 -4 -3 -9 34 -9 82 0 59 2 79 8 62 4 -14 8 -51 9 -82z
m-1559 77 c0 -8 -2 -15 -4 -15 -2 0 -6 7 -10 15 -3 8 -1 15 4 15 6 0 10 -7 10
-15z m590 -64 c5 -19 26 -61 45 -93 20 -32 33 -63 29 -70 -4 -7 -3 -8 4 -4 7
4 12 1 12 -9 0 -21 40 -74 54 -71 6 2 8 1 3 -2 -14 -7 79 -117 251 -296 134
-139 205 -180 262 -151 37 19 50 61 50 161 0 46 5 86 10 89 7 4 9 -34 6 -110
-5 -127 -16 -158 -62 -175 -53 -21 -79 -12 -154 52 -8 7 -35 26 -60 42 -25 16
-66 54 -92 85 -80 96 -172 210 -196 244 -33 45 -135 152 -147 153 -5 1 -15 2
-22 3 -11 1 -107 170 -100 177 2 2 22 -26 46 -62 23 -37 44 -64 47 -62 3 3 -9
28 -27 56 -21 34 -29 57 -24 69 5 14 15 0 42 -57 20 -41 38 -70 40 -64 2 5
-12 45 -32 86 -19 42 -35 80 -35 85 1 17 40 -44 50 -76z m669 6 c1 -5 -3 -5
-9 -2 -5 3 -10 16 -9 28 0 21 1 21 9 2 5 -11 9 -24 9 -28z m-1252 11 c-3 -8
-6 -5 -6 6 -1 11 2 17 5 13 3 -3 4 -12 1 -19z m1632 -40 c1 -10 -6 -18 -14
-18 -16 0 -22 60 -8 74 8 8 20 -24 22 -56z m-1540 3 c6 -19 9 -36 6 -39 -5 -6
-35 61 -35 80 0 19 16 -3 29 -41z m-25 -36 c27 -49 32 -65 18 -52 -21 19 -44
62 -57 107 -10 34 -5 26 39 -55z m335 12 c12 -38 14 -57 7 -57 -8 0 -7 -3 1
-8 15 -10 28 -62 15 -62 -9 0 -37 55 -37 75 -1 6 -9 23 -19 38 -16 24 -17 31
-6 52 7 14 15 24 17 22 1 -2 11 -29 22 -60z m1103 -34 c-9 -15 -11 -12 -17 20
-4 20 -4 45 0 54 6 14 10 10 17 -19 6 -24 6 -43 0 -55z m-1014 26 c22 -33 30
-55 24 -62 -11 -14 4 -77 18 -77 6 0 10 -5 10 -11 0 -8 -5 -7 -16 2 -15 13
-94 172 -94 190 0 24 29 3 58 -42z m828 -66 c-14 -14 -29 19 -33 69 l-4 53 22
-58 c11 -32 18 -61 15 -64z m-638 45 c2 7 17 -7 33 -34 17 -25 28 -48 25 -51
-2 -3 -12 7 -21 21 -10 14 -21 24 -25 21 -9 -6 -60 77 -60 97 1 7 10 -5 22
-27 12 -22 23 -34 26 -27z m982 -12 c0 -30 -4 -58 -10 -61 -6 -4 -10 17 -10
54 0 34 4 61 10 61 6 0 10 -24 10 -54z m-483 12 c-3 -8 -6 -5 -6 6 -1 11 2 17
5 13 3 -3 4 -12 1 -19z m-76 -8 c-10 -6 -14 -29 -13 -82 1 -40 -1 -81 -4 -90
-8 -28 -67 -23 -101 7 l-28 25 42 -17 c62 -23 73 -10 73 83 0 59 3 75 17 83
21 11 33 4 14 -9z m-896 -36 c32 -43 42 -64 30 -64 -2 0 -11 12 -19 28 -10 17
-15 21 -16 10 0 -19 54 -116 102 -184 18 -25 38 -54 43 -62 6 -9 16 -22 22
-30 7 -7 19 -23 28 -34 8 -12 17 -19 21 -15 3 3 -14 32 -38 64 -48 63 -68 95
-50 78 37 -35 109 -141 100 -146 -7 -5 8 -26 39 -56 27 -26 68 -70 89 -98 21
-27 45 -57 53 -65 13 -13 12 -15 -2 -18 -9 -2 -17 -6 -17 -10 0 -3 28 -32 63
-64 34 -31 56 -57 49 -58 -17 0 -123 103 -126 123 -1 7 -22 32 -46 55 -44 40
-48 60 -6 25 12 -10 -4 10 -35 42 -71 75 -183 214 -192 237 -3 10 -33 59 -65
110 -52 83 -82 144 -82 169 0 21 22 6 55 -37z m1245 13 c0 -19 5 -59 11 -90
12 -58 5 -125 -11 -97 -13 25 -23 220 -11 220 6 0 11 -15 11 -33z m-420 -41
c-1 -20 -30 27 -30 48 0 18 3 16 15 -8 8 -15 15 -33 15 -40z m510 -21 c0 -43
-4 -75 -10 -75 -11 0 -13 91 -4 128 11 38 14 25 14 -53z m-1242 8 c5 -7 18
-15 29 -17 45 -9 60 -27 111 -130 29 -58 52 -108 52 -113 0 -11 -68 93 -107
162 -18 33 -33 53 -33 45 0 -9 25 -60 56 -114 31 -53 53 -100 50 -103 -3 -3
-18 16 -33 42 -15 26 -46 75 -69 109 -54 82 -111 189 -84 157 11 -13 24 -30
28 -38z m597 -129 c65 -65 146 -123 206 -148 28 -12 40 -12 59 -3 29 15 59 93
60 157 0 25 4 51 9 58 17 28 20 -47 5 -135 -16 -93 -35 -123 -78 -123 -35 1
-128 61 -221 143 -25 22 -46 34 -50 28 -7 -12 -32 -10 -53 3 -9 6 -10 12 -4
18 7 7 16 6 27 -6 9 -9 19 -16 23 -16 3 0 -12 19 -35 43 -46 47 -93 114 -93
131 0 6 19 -11 42 -39 23 -27 69 -78 103 -111z m710 -67 c-6 -127 -5 -124 -15
-102 -7 19 -7 64 0 260 l3 70 7 -83 c4 -45 6 -111 5 -145z m-1476 176 c6 -14
10 -28 7 -30 -4 -4 -46 51 -46 61 0 14 29 -8 39 -31z m1108 -5 c-3 -8 -6 -5
-6 6 -1 11 2 17 5 13 3 -3 4 -12 1 -19z m148 -51 c0 -34 4 -87 8 -117 l7 -55
-16 35 c-26 57 -32 231 -7 206 4 -4 8 -35 8 -69z m-920 13 c7 -22 6 -23 -9
-11 -9 7 -16 23 -16 34 0 26 15 12 25 -23z m304 -4 c22 -36 25 -46 14 -46 -9
0 -43 57 -43 71 0 16 8 10 29 -25z m798 -13 c-3 -10 -5 -2 -5 17 0 19 2 27 5
18 2 -10 2 -26 0 -35z m64 -23 c-7 -36 -9 -39 -10 -15 -1 33 11 85 16 70 1 -6
-1 -30 -6 -55z m-1033 -39 c48 -78 72 -142 46 -120 -9 7 -24 30 -35 50 -10 21
-30 54 -44 75 -25 36 -32 64 -17 64 4 0 27 -31 50 -69z m-426 1 c26 -39 27
-43 7 -25 -26 24 -69 90 -51 79 7 -4 26 -28 44 -54z m1325 26 c-3 -8 -6 -5 -6
6 -1 11 2 17 5 13 3 -3 4 -12 1 -19z m-922 -80 c38 -71 37 -92 -2 -35 -13 17
-29 41 -37 52 -7 11 -17 34 -20 50 -7 27 -6 28 7 15 9 -8 32 -45 52 -82z m992
30 c-2 -13 -4 -5 -4 17 -1 22 1 32 4 23 2 -10 2 -28 0 -40z m60 -20 c-3 -8 -6
-5 -6 6 -1 11 2 17 5 13 3 -3 4 -12 1 -19z m20 -15 c-3 -10 -5 -4 -5 12 0 17
2 24 5 18 2 -7 2 -21 0 -30z m-622 -81 c-2 -3 -18 6 -34 19 -17 13 -44 34 -61
47 -16 13 -30 28 -30 33 0 5 29 -15 65 -43 35 -28 63 -54 60 -56z m322 71 c-3
-10 -5 -4 -5 12 0 17 2 24 5 18 2 -7 2 -21 0 -30z m144 -5 c0 -24 2 -58 3 -75
2 -18 0 -33 -5 -33 -5 0 -9 17 -9 38 0 20 -3 54 -6 75 -5 24 -3 37 5 37 6 0
11 -18 12 -42z m-1229 -48 c55 -69 62 -80 48 -80 -5 0 -26 24 -45 53 -19 28
-43 63 -52 77 -24 36 -2 13 49 -50z m1365 28 c-3 -8 -6 -5 -6 6 -1 11 2 17 5
13 3 -3 4 -12 1 -19z m-57 -8 c0 -5 -5 -10 -11 -10 -5 0 -7 5 -4 10 3 6 8 10
11 10 2 0 4 -4 4 -10z m31 -189 c-11 -36 -23 -88 -27 -116 -11 -84 -17 -65 -9
30 4 50 11 95 17 102 5 7 7 22 3 34 -4 13 -3 19 3 15 9 -6 20 31 24 83 1 14 3
2 5 -28 3 -35 -3 -77 -16 -120z m-872 59 c114 -165 255 -284 510 -432 48 -28
108 -40 131 -28 11 6 18 15 15 21 -4 5 -1 8 5 7 7 -2 18 12 24 30 13 38 26 33
26 -10 0 -41 -25 -84 -52 -91 -22 -6 -92 9 -113 24 -5 4 -50 28 -99 53 -101
53 -122 67 -226 149 -143 114 -228 220 -288 362 -9 20 16 -11 67 -85z m-139
65 c0 -8 -4 -15 -10 -15 -5 0 -10 7 -10 15 0 8 5 15 10 15 6 0 10 -7 10 -15z
m820 -42 c0 -19 -3 -24 -10 -17 -6 6 -8 18 -4 27 9 24 14 21 14 -10z m107 -35
c-2 -13 -4 -3 -4 22 0 25 2 35 4 23 2 -13 2 -33 0 -45z m-350 36 c-3 -3 -12
-4 -19 -1 -8 3 -5 6 6 6 11 1 17 -2 13 -5z m-757 -94 c6 -11 8 -20 6 -20 -3 0
-10 9 -16 20 -6 11 -8 20 -6 20 3 0 10 -9 16 -20z m970 10 c0 -5 -4 -10 -10
-10 -5 0 -10 5 -10 10 0 6 5 10 10 10 6 0 10 -4 10 -10z m40 -20 c0 -5 -2 -10
-4 -10 -3 0 -8 5 -11 10 -3 6 -1 10 4 10 6 0 11 -4 11 -10z m22 -30 c3 -16 1
-30 -4 -30 -4 0 -8 14 -8 30 0 17 2 30 4 30 2 0 6 -13 8 -30z m-742 -45 c-1
-11 -27 20 -41 50 -6 11 1 7 15 -10 14 -16 26 -34 26 -40z m747 -17 c-3 -8 -6
-5 -6 6 -1 11 2 17 5 13 3 -3 4 -12 1 -19z m-712 -18 c10 -11 16 -20 13 -20
-3 0 -13 9 -23 20 -10 11 -16 20 -13 20 3 0 13 -9 23 -20z m-65 -43 c0 -6 -9
-2 -20 8 -11 10 -20 23 -20 28 0 6 9 2 20 -8 11 -10 20 -23 20 -28z m147 -61
c21 -28 40 -53 43 -56 19 -18 31 -40 22 -40 -18 0 -102 93 -109 120 -3 14 -11
32 -17 40 -10 13 -9 13 7 1 9 -7 34 -37 54 -65z m-46 -33 c13 -16 12 -17 -3
-4 -17 13 -22 21 -14 21 2 0 10 -8 17 -17z m149 -36 c56 -54 86 -87 78 -87 -2
0 -35 32 -73 70 -81 82 -85 94 -5 17z m684 28 c4 -10 -1 -15 -14 -15 -20 0
-26 11 -13 23 10 11 20 8 27 -8z m-101 -50 c3 -5 10 -35 17 -65 7 -30 23 -69
36 -86 22 -29 109 -82 119 -72 3 2 -11 20 -30 38 -19 19 -35 39 -35 46 0 6
-10 14 -22 18 -17 4 -20 8 -12 16 9 9 18 5 37 -12 13 -13 41 -34 60 -48 23
-16 35 -31 31 -41 -2 -9 3 -22 12 -30 14 -11 15 -10 12 7 -2 16 2 19 27 17
116 -8 98 -50 -43 -99 -86 -31 -102 -30 -136 5 -16 16 -38 32 -50 35 -11 4
-31 20 -44 36 -23 29 -23 30 -3 30 28 0 35 17 17 45 -12 19 -13 25 -2 34 13
11 8 80 -10 125 -7 19 -8 19 -15 0 -6 -15 -8 -13 -8 12 -1 17 2 34 6 37 5 6
24 -19 36 -48z m-693 30 c11 -13 10 -14 -4 -9 -9 3 -16 10 -16 15 0 13 6 11
20 -6z m640 5 c0 -5 -4 -10 -10 -10 -5 0 -10 5 -10 10 0 6 5 10 10 10 6 0 10
-4 10 -10z m-641 -51 c72 -68 61 -71 -14 -4 -33 30 -55 54 -50 54 6 0 34 -22
64 -50z m749 -44 c-3 -3 -9 2 -12 12 -6 14 -5 15 5 6 7 -7 10 -15 7 -18z m32
4 c0 -5 -4 -9 -10 -9 -5 0 -10 7 -10 16 0 8 5 12 10 9 6 -3 10 -10 10 -16z
m-120 2 c0 -6 -4 -13 -10 -16 -5 -3 -10 1 -10 9 0 9 5 16 10 16 6 0 10 -4 10
-9z m-450 -107 c0 -8 -88 57 -107 80 -10 11 10 -2 45 -28 34 -26 62 -49 62
-52z m79 43 c14 -13 43 -36 64 -51 21 -15 36 -30 33 -33 -7 -7 -131 63 -162
92 l-26 24 32 -4 c18 -2 45 -15 59 -28z m192 -47 c20 0 50 -7 65 -15 16 -8 43
-15 59 -15 24 0 34 -7 49 -34 10 -19 45 -56 78 -81 33 -26 57 -49 54 -52 -8
-9 -92 35 -146 75 -48 36 -199 112 -223 112 -16 0 -86 51 -87 63 0 4 26 -6 58
-23 33 -17 72 -30 93 -30z m299 25 c10 -12 10 -15 -3 -15 -8 0 -17 7 -21 15
-3 8 -2 15 3 15 5 0 14 -7 21 -15z m-535 -35 c3 -5 2 -10 -4 -10 -5 0 -13 5
-16 10 -3 6 -2 10 4 10 5 0 13 -4 16 -10z m150 -68 c-3 -3 -16 5 -28 17 l-22
23 28 -17 c15 -10 25 -20 22 -23z m120 5 c48 -19 117 -58 112 -63 -6 -6 -108
39 -139 60 -26 19 -16 19 27 3z m-156 -34 c2 -2 0 -3 -6 -3 -6 0 -21 9 -34 21
l-24 20 30 -17 c17 -10 32 -19 34 -21z m102 -29 c17 -21 -5 -17 -32 5 -24 20
-24 20 -2 14 12 -3 28 -11 34 -19z m86 -24 c28 -16 55 -35 59 -42 6 -10 4 -10
-7 -2 -8 6 -25 14 -39 17 -26 7 -92 56 -75 57 6 0 33 -14 62 -30z m-27 -26 c0
-2 -7 -4 -15 -4 -8 0 -15 4 -15 10 0 5 7 7 15 4 8 -4 15 -8 15 -10z m-1200
-184 c0 -5 7 -10 15 -10 8 0 15 -5 15 -11 0 -7 -17 -10 -45 -7 -25 2 -45 -1
-45 -6 0 -6 -6 -1 -14 10 -13 17 -12 20 7 26 34 10 67 9 67 -2z m845 -10 c3
-5 -3 -10 -14 -10 -12 0 -21 5 -21 10 0 6 6 10 14 10 8 0 18 -4 21 -10z m-967
-41 c-2 -16 -17 -26 -63 -40 -32 -10 -61 -16 -63 -14 -12 12 11 33 49 45 24 7
48 17 54 22 16 14 26 9 23 -13z"/>
<path d="M3498 6723 c-5 -6 -16 -9 -24 -6 -9 3 -14 -1 -14 -12 0 -11 -5 -15
-14 -12 -20 8 -28 -4 -14 -20 9 -11 7 -15 -11 -20 -17 -4 -19 -8 -9 -20 9 -11
9 -17 -3 -25 -11 -7 -11 -11 -2 -15 8 -3 11 -14 7 -29 -4 -17 -2 -24 9 -24 8
0 17 -9 20 -21 4 -16 11 -19 26 -14 15 5 21 2 21 -9 0 -18 16 -21 25 -6 4 6
15 8 26 5 11 -4 19 -2 19 4 0 6 7 11 15 11 7 0 19 8 24 18 6 9 11 13 11 7 2
-21 30 71 30 98 0 37 -70 105 -106 103 -14 0 -30 -6 -36 -13z m92 -47 c12 -23
12 -30 2 -33 -7 -3 -26 -16 -42 -30 -23 -19 -30 -33 -30 -59 0 -19 -5 -34 -11
-34 -17 0 -48 42 -55 76 -17 87 96 154 136 80z"/>
<path d="M3628 6703 c7 -3 16 -2 19 1 4 3 -2 6 -13 5 -11 0 -14 -3 -6 -6z"/>
<path d="M4157 6663 c-10 -9 -9 -23 2 -23 5 0 11 7 15 15 5 15 -5 20 -17 8z"/>
<path d="M4080 6350 c-12 -8 -12 -10 5 -10 20 -1 20 -1 1 -15 -32 -24 4 -18
39 6 l30 21 -27 -6 c-14 -3 -28 -2 -30 4 -2 6 -8 6 -18 0z"/>
<path d="M4015 6330 c-3 -5 -2 -10 4 -10 5 0 13 5 16 10 3 6 2 10 -4 10 -5 0
-13 -4 -16 -10z"/>
<path d="M4035 6260 c-3 -5 1 -10 9 -10 8 0 18 5 21 10 3 6 -1 10 -9 10 -8 0
-18 -4 -21 -10z"/>
<path d="M4101 6241 c-16 -10 -6 -31 14 -31 8 0 17 5 21 11 4 8 -1 9 -17 4
-21 -7 -22 -6 -10 9 15 18 13 20 -8 7z"/>
<path d="M4548 6564 c-5 -4 -8 -40 -8 -80 0 -73 -11 -113 -38 -146 -14 -16
-13 -18 5 -18 25 0 46 24 67 74 20 47 20 61 2 79 -8 8 -16 33 -18 57 -2 23 -6
38 -10 34z"/>
<path d="M4647 6358 c-6 -43 0 -48 24 -20 16 21 17 26 5 38 -20 20 -23 18 -29
-18z"/>
<path d="M3421 4644 c-2 -16 30 -117 35 -112 2 3 -4 31 -15 64 -10 32 -19 54
-20 48z"/>
<path d="M4191 4794 c0 -11 3 -14 6 -6 3 7 2 16 -1 19 -3 4 -6 -2 -5 -13z"/>
<path d="M4324 4502 c3 -19 7 -36 10 -40 9 -9 6 31 -5 53 -7 16 -8 13 -5 -13z"/>
<path d="M4512 4295 c0 -16 2 -22 5 -12 2 9 2 23 0 30 -3 6 -5 -1 -5 -18z"/>
<path d="M4711 3173 c-1 -14 67 -69 75 -61 3 3 -11 15 -30 27 -19 12 -37 27
-40 34 -3 9 -5 9 -5 0z"/>
<path d="M4840 3091 c0 -5 7 -12 16 -15 14 -5 15 -4 4 9 -14 17 -20 19 -20 6z"/>
<path d="M4230 3262 c0 -12 19 -26 26 -19 2 2 -2 10 -11 17 -9 8 -15 8 -15 2z"/>
<path d="M2612 5754 c-51 -57 -66 -94 -38 -94 8 0 17 11 20 25 4 14 23 43 42
65 20 22 34 45 32 51 -2 7 -27 -14 -56 -47z"/>
<path d="M2522 5603 c-24 -46 -27 -63 -12 -63 13 0 42 69 37 90 -2 9 -12 -1
-25 -27z"/>
<path d="M2465 5460 c-16 -47 -14 -70 5 -70 11 0 17 18 25 74 10 62 -9 60 -30
-4z"/>
<path d="M2421 5296 c-24 -54 -24 -81 -1 -81 10 0 17 17 23 54 10 76 3 85 -22
27z"/>
<path d="M2395 5123 c-4 -16 -11 -46 -16 -69 -14 -54 -8 -109 11 -109 10 0 15
13 17 45 1 25 5 71 9 103 4 38 2 57 -5 57 -6 0 -13 -12 -16 -27z"/>
<path d="M2366 4854 c-18 -47 5 -219 28 -211 12 4 12 17 0 145 -7 79 -15 99
-28 66z"/>
<path d="M2390 4578 c1 -63 16 -118 39 -142 27 -26 27 -16 0 97 -23 94 -39
113 -39 45z"/>
<path d="M2450 4378 c0 -13 15 -66 33 -118 32 -95 61 -149 73 -137 8 8 -13
100 -37 157 -10 25 -25 62 -33 83 -17 41 -36 49 -36 15z"/>
<path d="M2575 4080 c-11 -17 3 -44 45 -85 47 -46 62 -40 29 12 -14 21 -29 47
-35 57 -13 24 -30 31 -39 16z"/>
<path d="M2667 3953 c-11 -10 -7 -47 6 -63 18 -24 76 -62 87 -58 5 2 -4 18
-21 36 -16 17 -35 46 -41 62 -10 30 -19 36 -31 23z"/>
<path d="M3141 3829 c17 -27 34 -48 36 -45 6 6 -49 95 -59 96 -4 0 6 -23 23
-51z"/>
<path d="M2980 3847 c0 -24 81 -141 129 -185 47 -45 99 -77 108 -68 3 2 -10
12 -29 22 -55 28 -141 124 -168 186 -24 55 -40 73 -40 45z"/>
<path d="M2760 3779 c0 -41 128 -194 147 -175 4 3 -7 23 -23 44 -17 20 -45 61
-64 90 -30 47 -60 68 -60 41z"/>
<path d="M3205 3736 c35 -46 131 -146 140 -146 4 0 -20 29 -54 65 -34 36 -68
77 -77 90 -9 14 -21 25 -26 25 -5 0 3 -16 17 -34z"/>
<path d="M3315 3760 c3 -5 8 -10 11 -10 2 0 4 5 4 10 0 6 -5 10 -11 10 -5 0
-7 -4 -4 -10z"/>
<path d="M3340 3743 c0 -9 94 -101 146 -143 16 -14 11 -7 -12 15 -23 22 -63
62 -88 88 -25 27 -46 45 -46 40z"/>
<path d="M3360 3582 c0 -9 50 -35 56 -29 2 2 -10 11 -26 21 -17 9 -30 13 -30
8z"/>
<path d="M2954 3568 c-7 -11 17 -37 66 -69 14 -9 22 -20 18 -24 -4 -4 -60 -13
-125 -21 -69 -7 -137 -21 -165 -32 -44 -19 -65 -24 -180 -37 -65 -8 -76 -12
-129 -56 -56 -46 -109 -70 -214 -99 -85 -23 -170 -62 -280 -130 -72 -43 -83
-55 -121 -126 -21 -40 -22 -48 -11 -101 6 -32 12 -119 13 -193 2 -74 3 -141 3
-147 2 -22 31 -14 41 10 9 21 37 154 46 222 l5 30 -17 -23 c-10 -13 -19 -35
-20 -50 -6 -56 -25 -166 -29 -171 -7 -6 -7 6 -9 159 -1 74 -7 154 -13 178 -8
35 -8 45 3 49 8 3 18 22 24 43 13 48 63 93 162 142 118 59 164 78 242 97 72
18 118 41 208 105 39 28 63 36 135 46 48 7 110 21 137 32 27 10 86 23 130 28
45 5 105 15 134 22 43 9 58 9 74 -1 11 -7 23 -9 26 -6 7 7 -126 135 -139 135
-5 0 -11 -5 -15 -12z"/>
<path d="M2580 3519 c0 -5 14 -9 31 -9 16 0 28 4 25 9 -3 5 -17 9 -31 9 -14 0
-25 -4 -25 -9z"/>
<path d="M2265 3510 c-25 -6 -20 -8 25 -8 39 0 49 2 35 8 -23 10 -21 10 -60 0z"/>
<path d="M2790 3510 c0 -5 7 -7 15 -4 8 4 15 8 15 10 0 2 -7 4 -15 4 -8 0 -15
-4 -15 -10z"/>
<path d="M3390 3494 c0 -3 23 -29 50 -58 48 -50 145 -114 156 -103 3 3 -11 13
-32 23 -20 10 -66 46 -103 81 -67 64 -71 67 -71 57z"/>
<path d="M4917 3490 c-20 -4 -41 -11 -45 -15 -4 -4 4 -5 18 -2 14 4 61 7 105
7 55 0 75 3 65 10 -17 11 -87 11 -143 0z"/>
<path d="M3560 3482 c0 -8 95 -88 146 -123 13 -9 41 -31 63 -50 51 -45 86 -70
144 -99 27 -13 55 -33 62 -43 10 -14 19 -17 32 -12 16 8 16 9 -4 12 -13 3 -23
8 -23 12 0 5 -31 25 -70 45 -38 21 -70 41 -70 46 0 5 -15 17 -32 26 -18 9 -35
20 -38 23 -5 6 -116 99 -135 113 -5 4 -25 19 -42 34 -18 14 -33 22 -33 16z"/>
<path d="M1670 3471 c-13 -9 -13 -11 0 -15 24 -8 65 -2 65 9 0 13 -46 18 -65
6z"/>
<path d="M5650 3460 c0 -17 3 -19 19 -10 32 16 34 30 7 30 -19 0 -26 -5 -26
-20z"/>
<path d="M5449 3460 c-14 -9 106 -19 149 -13 17 3 32 9 32 14 0 10 -164 9
-181 -1z"/>
<path d="M3155 3429 c-4 -6 -5 -11 -4 -13 111 -74 169 -101 169 -78 0 4 -12
15 -28 24 -15 10 -47 31 -72 47 -51 33 -56 35 -65 20z"/>
<path d="M3735 3420 c10 -11 20 -20 23 -20 3 0 -3 9 -13 20 -10 11 -20 20 -23
20 -3 0 3 -9 13 -20z"/>
<path d="M2085 3392 c15 -15 40 -19 45 -7 3 6 -8 11 -25 13 -20 2 -27 0 -20
-6z"/>
<path d="M5160 3371 c0 -10 25 -21 48 -21 12 1 10 5 -8 15 -29 17 -40 18 -40
6z"/>
<path d="M3812 3354 c10 -10 20 -16 22 -13 3 3 -5 11 -17 18 -21 13 -21 12 -5
-5z"/>
<path d="M5330 3352 c0 -4 42 -8 93 -8 56 -1 82 1 67 6 -33 10 -160 12 -160 2z"/>
<path d="M1780 3330 c0 -5 14 -10 31 -10 17 0 28 4 24 10 -3 6 -17 10 -31 10
-13 0 -24 -4 -24 -10z"/>
<path d="M3054 3330 c-6 -6 -28 -11 -50 -11 -59 -1 -94 -17 -94 -44 0 -22 22
-40 34 -28 3 4 6 17 6 30 0 20 5 23 40 23 29 0 40 -4 40 -15 0 -15 -38 -36
-52 -29 -3 2 -4 -5 -1 -16 4 -14 0 -20 -10 -20 -9 0 -23 -8 -32 -17 -15 -14
-25 -15 -69 -6 -75 15 -134 6 -153 -23 -23 -36 -10 -57 30 -50 19 3 42 0 56
-8 24 -13 24 -14 -20 -21 -72 -11 -81 -15 -76 -36 3 -10 -1 -23 -9 -30 -16
-13 -19 -45 -4 -54 5 -3 12 5 15 18 4 12 16 29 28 37 31 19 159 25 258 10 132
-18 369 -37 369 -28 0 4 -10 8 -22 9 -156 7 -231 14 -388 39 -80 12 -162 12
-193 1 -29 -11 -38 2 -9 14 28 12 283 19 291 8 3 -6 53 -16 111 -22 58 -7 132
-16 165 -20 33 -5 70 -4 82 0 12 4 48 4 80 -1 32 -5 83 -10 113 -10 30 0 83
-1 118 -1 64 0 74 5 45 26 -22 17 -8 38 17 25 27 -14 43 -12 36 5 -3 9 0 15 9
15 8 0 15 3 15 8 -1 9 -71 42 -91 42 -8 0 -32 9 -52 19 -21 11 -60 25 -88 32
-27 7 -49 19 -49 26 0 7 -5 13 -10 13 -6 0 -34 16 -64 36 -41 27 -59 34 -80
28 -16 -4 -26 -2 -26 5 0 6 -9 11 -20 11 -37 0 -20 -17 35 -34 30 -10 65 -26
79 -37 13 -10 28 -19 32 -19 4 0 15 -6 23 -13 9 -7 36 -20 61 -27 57 -17 167
-67 174 -79 3 -5 -3 -11 -14 -14 -13 -3 -18 -10 -14 -21 4 -11 1 -16 -10 -16
-9 0 -16 6 -16 13 0 6 -12 12 -27 12 -16 1 -62 4 -103 8 -48 4 -68 4 -55 -2
11 -5 36 -10 55 -12 34 -1 34 -2 -10 -9 -56 -10 -121 -2 -136 16 -6 8 -20 15
-30 17 -10 2 -26 7 -34 10 -15 6 -31 7 -173 7 -43 -1 -83 3 -90 7 -6 4 -37 8
-68 9 -31 1 -61 4 -65 7 -21 12 -74 18 -74 8 0 -5 12 -12 28 -14 15 -2 -3 -5
-40 -6 -37 0 -70 3 -73 9 -3 5 -19 7 -35 3 -23 -4 -30 -2 -30 10 0 33 52 42
155 27 39 -5 126 -12 195 -15 163 -7 279 -24 312 -47 14 -10 41 -17 60 -17 23
1 26 3 11 6 -25 5 -30 18 -10 26 6 3 0 6 -15 6 -15 1 -45 8 -67 17 -21 8 -45
14 -52 13 -25 -4 -94 13 -111 29 -10 8 -41 21 -70 28 l-53 14 50 -5 c28 -2 61
-8 74 -11 17 -5 22 -4 17 4 -4 7 7 6 34 -3 36 -13 61 -23 135 -56 11 -5 48
-15 82 -23 34 -8 66 -17 72 -20 16 -10 103 -14 125 -6 16 5 10 9 -27 18 -26 7
-62 21 -79 32 -18 11 -46 20 -63 20 -16 0 -57 14 -90 30 -33 16 -65 30 -71 30
-5 0 -19 9 -31 19 -13 12 -41 21 -79 25 -35 4 -70 14 -86 26 -29 21 -87 27
-104 10z m116 -40 c14 -11 41 -20 62 -20 21 0 61 -11 90 -24 101 -46 153 -66
190 -72 20 -3 45 -13 55 -21 17 -14 17 -14 -2 -8 -11 4 -39 11 -62 16 -23 4
-91 27 -150 50 -59 23 -120 44 -136 46 -15 3 -30 9 -33 14 -3 5 -16 9 -28 9
-13 0 -29 7 -36 15 -19 23 19 19 50 -5z m-80 -12 c0 -5 -2 -8 -5 -8 -3 0 -11
0 -19 0 -8 0 -16 6 -19 14 -4 10 0 12 19 7 13 -3 24 -9 24 -13z m140 -168 c0
-5 -4 -10 -9 -10 -6 0 -13 5 -16 10 -3 6 1 10 9 10 9 0 16 -4 16 -10z"/>
<path d="M2160 3311 c0 -9 62 -22 70 -14 8 7 -24 23 -47 23 -13 0 -23 -4 -23
-9z"/>
<path d="M3760 3231 c23 -20 42 -28 55 -25 15 4 17 3 6 -4 -11 -8 -7 -14 20
-31 19 -12 43 -21 54 -21 12 0 3 8 -24 20 -24 11 -41 23 -38 26 3 3 14 1 25
-5 12 -6 24 -11 29 -11 4 0 -25 18 -65 40 -87 47 -109 51 -62 11z"/>
<path d="M1334 3224 c-18 -15 -18 -15 6 -10 14 3 32 6 40 6 13 0 13 1 0 10
-20 13 -23 13 -46 -6z"/>
<path d="M1968 3223 c-21 -2 -38 -9 -38 -15 0 -6 12 -8 31 -4 17 3 40 6 50 6
11 0 19 5 19 10 0 6 -6 9 -12 8 -7 -1 -30 -3 -50 -5z"/>
<path d="M5375 3210 c3 -5 25 -10 48 -9 36 1 38 2 17 9 -36 12 -72 12 -65 0z"/>
<path d="M1850 3180 c-11 -7 -4 -10 28 -10 23 0 42 5 42 10 0 13 -50 13 -70 0z"/>
<path d="M1620 3150 c0 -12 24 -12 60 0 21 7 19 8 -17 9 -24 1 -43 -3 -43 -9z"/>
<path d="M2833 3153 c9 -2 23 -2 30 0 6 3 -1 5 -18 5 -16 0 -22 -2 -12 -5z"/>
<path d="M3862 3098 c6 -16 78 -58 101 -58 29 0 19 17 -27 44 -48 28 -80 34
-74 14z"/>
<path d="M5435 3070 c19 -8 103 -14 94 -6 -2 2 -29 6 -59 9 -36 4 -48 3 -35
-3z"/>
<path d="M1450 3042 c-25 -9 5 -22 48 -22 72 0 86 17 18 21 -31 2 -61 2 -66 1z"/>
<path d="M5710 3030 c0 -5 12 -10 26 -10 14 0 23 4 19 10 -3 6 -15 10 -26 10
-10 0 -19 -4 -19 -10z"/>
<path d="M4046 3022 c21 -19 106 -43 141 -40 l38 4 -40 7 c-22 5 -52 15 -67
23 -28 15 -89 20 -72 6z"/>
<path d="M5897 3024 c-4 -4 -4 -10 -2 -14 6 -9 54 0 61 11 6 10 -49 12 -59 3z"/>
<path d="M3370 3008 c0 -5 39 -8 87 -8 62 0 84 -3 76 -11 -10 -10 -165 -7
-263 4 -19 2 -131 7 -248 11 l-213 8 -23 -24 c-13 -15 -39 -27 -63 -31 -62
-10 -104 -72 -71 -105 21 -21 28 -13 28 28 0 80 64 90 563 87 357 -2 390 -3
401 -19 7 -10 19 -18 27 -18 11 0 11 2 -1 10 -10 7 23 9 108 6 107 -4 122 -3
112 10 -11 12 -7 14 24 14 21 0 46 -5 57 -11 14 -7 30 -7 55 1 41 14 40 36 -2
34 -16 -1 -47 -3 -69 -4 -105 -5 -295 2 -301 11 -3 5 -13 8 -22 5 -10 -3 -72
-2 -139 2 -68 4 -123 4 -123 0z"/>
<path d="M5941 2984 c0 -11 3 -14 6 -6 3 7 2 16 -1 19 -3 4 -6 -2 -5 -13z"/>
<path d="M5280 2975 c0 -8 11 -17 25 -21 42 -10 48 1 11 19 -31 14 -36 14 -36
2z"/>
<path d="M5540 2980 c0 -5 5 -10 10 -10 6 0 10 5 10 10 0 6 -4 10 -10 10 -5 0
-10 -4 -10 -10z"/>
<path d="M1330 2945 c0 -20 76 -43 92 -27 9 9 7 12 -8 12 -11 0 -29 7 -40 15
-25 19 -44 19 -44 0z"/>
<path d="M5820 2950 c0 -13 50 -13 70 0 11 7 4 10 -27 10 -24 0 -43 -4 -43
-10z"/>
<path d="M1626 2941 c-7 -10 81 -21 103 -13 12 5 10 8 -9 13 -37 10 -88 10
-94 0z"/>
<path d="M3910 2939 c0 -5 5 -7 10 -4 6 3 10 8 10 11 0 2 -4 4 -10 4 -5 0 -10
-5 -10 -11z"/>
<path d="M4074 2936 c-5 -13 -26 -16 -117 -16 -61 0 -107 -3 -104 -6 4 -4 55
-6 114 -5 76 1 111 5 121 15 10 10 11 16 3 20 -6 4 -14 0 -17 -8z"/>
<path d="M1220 2926 c-70 -12 -94 -22 -85 -36 3 -5 25 -2 48 6 23 9 55 17 71
19 29 4 43 12 35 18 -2 2 -33 -1 -69 -7z"/>
<path d="M3686 2868 c3 -4 11 -5 19 -1 21 7 19 12 -4 10 -11 0 -18 -5 -15 -9z"/>
<path d="M5224 2789 c-21 -22 -75 -74 -119 -115 -44 -42 -75 -74 -68 -72 6 2
51 39 99 83 48 44 100 91 115 104 28 23 37 41 21 41 -5 0 -26 -18 -48 -41z"/>
<path d="M1931 2811 c-11 -7 -9 -10 10 -13 23 -3 24 -6 26 -88 0 -47 4 -94 8
-106 5 -16 0 -23 -21 -32 -14 -7 -24 -15 -22 -18 3 -2 16 0 30 6 29 14 68 94
68 141 0 19 5 41 10 49 7 11 10 2 10 -31 0 -25 3 -49 6 -52 11 -11 45 13 54
39 12 31 35 31 56 -1 14 -22 15 -31 3 -69 -12 -43 -14 -44 -61 -48 -27 -3 -54
-10 -59 -15 -6 -6 10 -8 46 -5 34 3 55 1 55 -6 0 -20 -50 -69 -82 -82 -82 -33
-178 -81 -178 -89 0 -6 30 5 68 23 37 18 89 41 115 51 66 25 106 82 113 160 1
11 5 32 9 47 6 23 2 33 -25 58 -36 34 -63 29 -74 -15 -11 -42 -28 -29 -24 17
2 32 -1 43 -12 45 -28 5 -40 -13 -46 -75 -4 -35 -11 -65 -15 -68 -9 -5 -13 63
-9 133 1 22 -4 35 -19 42 -24 13 -22 13 -40 2z"/>
<path d="M5295 2807 c-19 -47 55 -161 135 -210 19 -11 40 -29 47 -38 7 -9 38
-27 70 -39 64 -26 83 -43 83 -77 0 -13 4 -23 9 -23 6 0 7 16 4 35 -4 28 -2 35
11 35 28 0 21 -69 -11 -103 l-28 -30 27 17 c15 10 31 15 36 12 5 -3 12 16 16
42 4 29 2 48 -4 50 -6 2 -8 7 -5 12 6 9 -48 30 -78 30 -11 0 -45 16 -77 35
-32 19 -62 35 -67 35 -17 0 -118 131 -136 178 -22 56 -25 59 -32 39z"/>
<path d="M5125 2790 c-22 -5 -59 -12 -83 -16 -23 -3 -45 -11 -48 -16 -4 -6 9
-7 30 -3 55 11 46 -11 -34 -88 -89 -85 -68 -87 25 -2 38 35 72 62 74 59 3 -3
-18 -26 -47 -53 -29 -27 -52 -52 -52 -55 0 -12 52 29 121 95 36 35 74 69 85
76 18 11 17 12 -6 11 -14 0 -43 -4 -65 -8z"/>
<path d="M5780 2791 c8 -5 33 -5 55 -1 40 8 40 8 -15 9 -35 0 -50 -3 -40 -8z"/>
<path d="M1570 2754 c0 -28 60 -44 129 -34 85 12 89 20 9 18 -47 -2 -72 2 -91
15 -33 21 -47 22 -47 1z"/>
<path d="M5480 2760 c-13 -8 -13 -10 2 -10 9 0 20 5 23 10 8 13 -5 13 -25 0z"/>
<path d="M5545 2751 c3 -6 22 -11 42 -11 44 0 41 5 -10 14 -27 5 -37 4 -32 -3z"/>
<path d="M4905 2745 c-5 -2 -30 -9 -54 -15 -25 -7 -40 -15 -35 -20 6 -6 27 -3
53 6 24 8 46 12 49 9 8 -7 -26 -42 -81 -82 -26 -19 -46 -38 -43 -41 8 -7 45
19 110 78 42 39 54 55 44 61 -14 9 -26 10 -43 4z"/>
<path d="M4954 2679 c-40 -38 -66 -69 -60 -69 14 0 142 127 135 134 -2 3 -36
-27 -75 -65z"/>
<path d="M5400 2740 c-12 -8 -10 -10 10 -10 14 0 32 5 40 10 12 8 10 10 -10
10 -14 0 -32 -5 -40 -10z"/>
<path d="M5630 2740 c0 -6 7 -10 15 -10 8 0 15 2 15 4 0 2 -7 6 -15 10 -8 3
-15 1 -15 -4z"/>
<path d="M1340 2728 c-11 -4 -20 -9 -20 -12 0 -7 124 6 140 15 18 10 -92 7
-120 -3z"/>
<path d="M2590 2725 c10 -12 8 -16 -11 -24 -13 -5 -46 -26 -74 -46 -36 -26
-50 -43 -50 -61 -1 -33 11 -30 30 9 8 18 36 45 62 62 27 16 51 33 54 38 7 10
29 1 29 -12 0 -5 -17 -20 -37 -34 -50 -34 -101 -80 -86 -75 17 4 152 102 153
110 0 6 -66 48 -77 48 -3 0 0 -7 7 -15z"/>
<path d="M2479 2684 c-19 -14 -44 -30 -56 -35 -13 -5 -23 -12 -23 -17 0 -12
-48 -33 -54 -23 -7 11 23 51 39 51 8 0 17 5 21 11 8 13 -24 5 -70 -17 -26 -12
-30 -12 -41 3 -11 14 -13 12 -19 -19 -4 -20 -14 -50 -22 -67 -28 -56 -8 -57
22 -1 35 65 60 79 51 29 -3 -19 -9 -44 -13 -56 -10 -36 11 -27 24 10 7 19 23
39 37 45 14 6 25 11 25 9 0 -1 -4 -17 -9 -35 -8 -25 -7 -32 2 -29 6 2 15 21
19 43 7 32 17 44 52 67 46 29 75 57 59 57 -5 0 -25 -12 -44 -26z"/>
<path d="M4195 2685 c-61 -15 -94 -29 -122 -52 -21 -18 -33 -32 -27 -32 5 -1
19 7 30 17 54 47 97 53 54 7 -35 -37 -16 -30 29 10 26 24 54 38 87 44 57 11
311 5 344 -7 21 -8 18 -12 -44 -56 -36 -26 -66 -49 -66 -52 0 -6 86 42 100 56
27 27 53 42 79 46 41 7 39 -8 -6 -45 -20 -17 -35 -32 -32 -35 2 -2 35 21 73
52 71 59 72 72 3 53 -23 -6 -58 -9 -77 -6 -197 30 -300 30 -425 0z"/>
<path d="M3842 2688 c3 -7 27 -20 54 -29 39 -13 49 -20 47 -36 -2 -19 1 -20
44 -12 26 5 49 11 51 14 10 10 -8 18 -39 17 -17 0 -52 12 -80 29 -53 31 -83
37 -77 17z"/>
<path d="M2236 2679 c-8 -25 -12 -99 -5 -99 12 0 29 94 19 104 -6 6 -11 4 -14
-5z"/>
<path d="M2720 2680 c0 -5 6 -10 14 -10 15 0 29 -27 21 -39 -7 -12 -122 -81
-134 -81 -6 0 -11 -4 -11 -10 0 -5 2 -10 5 -10 14 0 86 42 131 77 53 42 95 63
122 63 23 -1 -13 -29 -96 -76 -35 -20 -61 -38 -59 -41 7 -6 54 19 126 65 31
20 63 40 71 43 11 5 8 10 -13 20 -24 11 -35 10 -74 -4 -40 -15 -47 -15 -66 -2
-25 17 -37 19 -37 5z"/>
<path d="M3285 2679 c-19 -7 -19 -8 3 -8 13 -1 23 -8 24 -18 0 -10 2 -23 2
-30 2 -21 15 -26 31 -13 18 15 20 31 3 28 -6 -2 -17 7 -23 20 -16 30 -17 31
-40 21z"/>
<path d="M4761 2640 c-30 -28 -50 -50 -45 -50 6 0 35 22 65 50 30 27 50 49 44
49 -5 0 -34 -22 -64 -49z"/>
<path d="M5890 2670 c0 -6 25 -10 58 -9 43 1 51 3 32 9 -36 12 -90 12 -90 0z"/>
<path d="M2627 2624 c-38 -25 -66 -48 -64 -51 6 -5 26 6 99 52 43 27 60 45 41
45 -5 0 -39 -21 -76 -46z"/>
<path d="M3540 2660 c0 -5 7 -10 15 -10 8 0 15 5 15 10 0 6 -7 10 -15 10 -8 0
-15 -4 -15 -10z"/>
<path d="M4365 2657 c-11 -7 -38 -25 -60 -42 -22 -16 -42 -30 -44 -32 -2 -2
-2 -6 1 -9 5 -4 113 69 137 92 9 8 -15 2 -34 -9z"/>
<path d="M4454 2652 c-46 -26 -78 -51 -73 -56 5 -6 109 61 109 69 0 7 -1 6
-36 -13z"/>
<path d="M3094 2649 c-4 -8 3 -9 25 -4 24 5 31 3 31 -9 0 -8 -8 -19 -17 -25
-10 -5 -15 -12 -12 -15 8 -8 79 46 73 55 -8 13 -92 11 -100 -2z"/>
<path d="M3233 2635 c-36 -32 -17 -32 22 0 17 14 25 25 18 25 -7 0 -25 -11
-40 -25z"/>
<path d="M3496 2641 c-12 -14 -14 -21 -6 -26 17 -10 47 22 34 35 -7 7 -16 4
-28 -9z"/>
<path d="M3652 2649 c-33 -13 -20 -26 22 -21 39 5 60 32 23 31 -12 0 -32 -4
-45 -10z"/>
<path d="M4228 2648 c-7 -7 -33 -26 -57 -43 -24 -16 -38 -31 -32 -33 6 -2 26
9 44 25 18 15 44 36 57 45 14 9 20 17 13 17 -6 1 -18 -5 -25 -11z"/>
<path d="M1748 2643 c12 -2 30 -2 40 0 9 3 -1 5 -23 4 -22 0 -30 -2 -17 -4z"/>
<path d="M2872 2602 c-34 -20 -58 -38 -52 -40 10 -4 76 32 115 62 36 28 1 16
-63 -22z"/>
<path d="M2957 2614 c-22 -14 -36 -28 -33 -31 5 -5 96 44 96 52 0 11 -28 2
-63 -21z"/>
<path d="M5490 2632 c0 -15 41 -21 85 -12 l40 8 -40 1 c-22 1 -50 4 -62 7 -13
4 -23 2 -23 -4z"/>
<path d="M5687 2620 c11 -12 160 -16 171 -5 3 3 -26 5 -64 5 -38 0 -80 3 -94
6 -20 5 -23 4 -13 -6z"/>
<path d="M1462 2608 c2 -6 16 -21 31 -32 29 -21 102 -25 147 -7 21 8 15 10
-35 10 -41 1 -70 7 -93 21 -37 23 -56 26 -50 8z"/>
<path d="M1315 2603 c-40 -6 -57 -23 -23 -23 47 0 91 12 76 21 -7 5 -15 8 -18
7 -3 0 -18 -3 -35 -5z"/>
<path d="M3820 2590 c0 -5 5 -10 10 -10 6 0 10 5 10 10 0 6 -4 10 -10 10 -5 0
-10 -4 -10 -10z"/>
<path d="M6008 2502 c-11 -14 -11 -15 5 -9 10 4 34 7 53 7 47 0 43 15 -5 17
-26 1 -44 -4 -53 -15z"/>
<path d="M1894 2499 c-3 -5 31 -9 75 -9 45 0 81 3 81 8 0 10 -149 11 -156 1z"/>
<path d="M5531 2490 c0 -8 4 -24 9 -35 l9 -20 0 20 c0 11 -4 27 -9 35 -9 13
-10 13 -9 0z"/>
<path d="M5600 2459 c0 -11 4 -18 10 -14 5 3 7 12 3 20 -7 21 -13 19 -13 -6z"/>
<path d="M6143 2473 c15 -2 37 -2 50 0 12 2 0 4 -28 4 -27 0 -38 -2 -22 -4z"/>
<path d="M5476 2455 c-18 -18 -10 -49 11 -41 8 3 17 6 19 6 2 0 4 11 4 25 0
29 -12 32 -34 10z"/>
<path d="M1765 2450 c-8 -13 15 -13 35 0 12 8 11 10 -7 10 -12 0 -25 -4 -28
-10z"/>
<path d="M5103 2453 c-25 -9 -13 -23 15 -17 37 9 52 24 22 23 -14 0 -31 -3
-37 -6z"/>
<path d="M5330 2445 c-19 -23 -8 -26 20 -5 19 15 21 20 9 20 -9 0 -22 -7 -29
-15z"/>
<path d="M5206 2443 c-4 -4 -42 -13 -84 -19 l-77 -12 85 1 c77 2 99 8 100 30
0 9 -14 9 -24 0z"/>
<path d="M4960 2430 c0 -11 21 -11 65 0 27 7 25 8 -17 9 -27 0 -48 -3 -48 -9z"/>
<path d="M1575 2420 c-16 -27 39 -54 130 -65 75 -9 63 7 -18 24 -33 7 -66 21
-75 32 -18 21 -28 24 -37 9z"/>
<path d="M3160 2420 c0 -5 19 -19 42 -31 55 -28 177 -35 273 -16 l70 14 -140
0 c-121 0 -146 3 -188 22 -56 24 -57 24 -57 11z"/>
<path d="M1435 2413 c-46 -11 -39 -26 9 -19 27 3 57 6 67 6 11 0 19 5 19 10 0
10 -58 12 -95 3z"/>
<path d="M2327 2402 c-17 -26 150 -45 246 -27 69 13 46 20 -66 20 -62 0 -126
4 -143 9 -19 5 -34 4 -37 -2z"/>
<path d="M2960 2394 c-56 -16 -147 -17 -188 -3 -17 6 -39 9 -49 6 -25 -6 28
-28 85 -34 47 -6 154 12 192 33 30 16 20 16 -40 -2z"/>
<path d="M5782 2399 c9 -28 65 -33 146 -14 88 21 80 34 -8 15 -55 -12 -82 -10
-125 7 -13 4 -16 2 -13 -8z"/>
<path d="M6050 2400 c-28 -8 -22 -12 52 -29 57 -13 78 -14 78 -2 0 5 -20 12
-45 15 -25 4 -45 11 -45 17 0 10 -5 10 -40 -1z"/>
<path d="M2009 2389 c-12 -8 -11 -12 5 -24 24 -18 21 -18 130 -1 96 16 135 33
46 21 -66 -9 -127 -7 -150 5 -9 5 -22 5 -31 -1z"/>
<path d="M5230 2389 c-11 -8 -7 -9 17 -4 17 4 41 1 52 -5 12 -6 21 -7 21 -2 0
20 -66 28 -90 11z"/>
<path d="M4705 2380 c3 -5 13 -10 21 -10 8 0 12 5 9 10 -3 6 -13 10 -21 10 -8
0 -12 -4 -9 -10z"/>
<path d="M4770 2376 c0 -2 18 -6 40 -8 22 -2 40 0 40 4 0 5 -18 8 -40 8 -22 0
-40 -2 -40 -4z"/>
<path d="M3685 2360 c3 -5 25 -18 49 -29 37 -16 61 -18 157 -14 134 5 199 12
199 21 0 4 -64 4 -142 1 -123 -5 -149 -3 -190 13 -53 20 -82 23 -73 8z"/>
<path d="M4240 2351 c0 -5 26 -19 58 -31 56 -21 58 -21 147 -4 95 19 145 41
65 30 -128 -18 -149 -19 -190 -2 -45 18 -80 21 -80 7z"/>
<path d="M4660 2351 c0 -5 14 -20 31 -32 24 -17 44 -22 93 -21 96 1 173 13
193 28 17 14 17 15 -2 10 -11 -3 -62 -10 -114 -16 -91 -10 -95 -10 -138 15
-49 27 -63 30 -63 16z"/>
<path d="M5390 2342 c0 -28 120 -57 135 -32 4 6 -10 9 -34 8 -22 -1 -50 6 -65
15 -28 19 -36 21 -36 9z"/>
<path d="M1926 2326 c6 -16 34 -30 42 -21 8 7 -19 35 -34 35 -7 0 -11 -6 -8
-14z"/>
<path d="M5079 2320 c15 -13 38 -20 65 -20 30 0 37 3 26 10 -8 5 -25 10 -37
10 -12 0 -25 5 -28 10 -3 6 -16 10 -28 10 l-22 -1 24 -19z"/>
<path d="M5650 2336 c0 -2 9 -6 20 -9 11 -3 20 -1 20 4 0 5 -9 9 -20 9 -11 0
-20 -2 -20 -4z"/>
<path d="M5727 2308 c-28 -30 -13 -33 16 -4 15 14 21 26 14 25 -7 0 -20 -10
-30 -21z"/>
<path d="M5190 2310 c0 -12 27 -12 55 0 16 7 13 9 -17 9 -21 1 -38 -3 -38 -9z"/>
<path d="M5278 2303 c7 -3 16 -2 19 1 4 3 -2 6 -13 5 -11 0 -14 -3 -6 -6z"/>
<path d="M1990 2270 c0 -6 5 -10 10 -10 6 0 10 -7 10 -15 0 -8 7 -15 16 -15
23 0 13 31 -13 41 -14 5 -23 5 -23 -1z"/>
<path d="M2622 2264 c2 -9 14 -25 28 -35 29 -20 100 -35 100 -21 0 6 -15 13
-33 16 -19 3 -44 17 -57 31 -27 29 -43 32 -38 9z"/>
<path d="M2260 2250 c0 -5 14 -10 30 -10 17 0 30 5 30 10 0 6 -13 10 -30 10
-16 0 -30 -4 -30 -10z"/>
<path d="M5154 2240 c0 -13 4 -16 10 -10 7 7 7 13 0 20 -6 6 -10 3 -10 -10z"/>
<path d="M2500 2238 c-19 -5 -52 -14 -72 -19 -21 -5 -38 -14 -38 -20 0 -11 31
-5 105 19 82 26 86 43 5 20z"/>
<path d="M5055 2240 c-3 -5 5 -10 17 -12 13 -2 24 -11 26 -23 2 -11 9 -24 14
-30 7 -7 9 -1 6 18 -3 15 -1 30 3 33 5 3 9 -1 9 -9 0 -20 37 -64 46 -54 4 4
-2 17 -14 30 -12 13 -22 31 -22 41 0 15 -3 16 -15 6 -12 -10 -21 -10 -40 -2
-14 6 -27 7 -30 2z"/>
<path d="M5232 2228 c15 -22 71 -41 96 -33 6 2 12 12 12 21 0 13 -3 14 -14 5
-11 -9 -15 -7 -19 9 -6 23 -27 27 -27 5 0 -8 -5 -15 -10 -15 -6 0 -13 7 -16
15 -4 8 -13 15 -21 15 -14 0 -14 -3 -1 -22z"/>
<path d="M5470 2234 c0 -12 -4 -14 -12 -7 -16 12 -62 10 -65 -3 -4 -25 14 -34
53 -26 29 6 40 13 42 30 2 12 -1 22 -7 22 -6 0 -11 -7 -11 -16z"/>
<path d="M5670 2236 c0 -10 -13 -16 -37 -19 -35 -3 -34 -4 10 -5 41 -2 47 1
47 18 0 11 -4 20 -10 20 -5 0 -10 -6 -10 -14z"/>
<path d="M4680 2221 c0 -5 9 -11 20 -14 13 -3 20 0 20 9 0 8 -9 14 -20 14 -11
0 -20 -4 -20 -9z"/>
<path d="M2060 2201 c0 -25 6 -27 13 -6 4 8 2 17 -3 20 -6 4 -10 -3 -10 -14z"/>
<path d="M3070 2197 c0 -24 43 -50 89 -53 l46 -4 -35 11 c-19 6 -46 21 -61 35
-28 27 -39 30 -39 11z"/>
<path d="M3550 2191 c0 -36 80 -73 183 -85 73 -9 56 8 -29 28 -52 13 -86 27
-109 47 -39 34 -45 36 -45 10z"/>
<path d="M5190 2200 c0 -5 7 -10 15 -10 8 0 15 5 15 10 0 6 -7 10 -15 10 -8 0
-15 -4 -15 -10z"/>
<path d="M4660 2187 c0 -28 108 -49 140 -27 11 7 4 10 -30 10 -25 0 -56 7 -70
15 -32 18 -40 18 -40 2z"/>
<path d="M5510 2190 c0 -5 5 -10 10 -10 6 0 10 5 10 10 0 6 -4 10 -10 10 -5 0
-10 -4 -10 -10z"/>
<path d="M4478 2177 c-13 -5 -45 -6 -71 -2 -38 5 -48 3 -45 -7 5 -15 51 -16
170 -3 43 4 75 12 72 16 -6 11 -95 8 -126 -4z"/>
<path d="M4130 2170 c0 -13 70 -59 95 -61 11 -1 38 -1 60 1 l40 2 -45 9 c-62
12 -101 29 -93 42 3 5 1 7 -5 3 -6 -3 -13 -2 -17 4 -8 13 -35 13 -35 0z"/>
<path d="M1981 2157 c-8 -11 -5 -13 19 -9 16 2 27 8 24 13 -8 13 -30 11 -43
-4z"/>
<path d="M3400 2155 c-30 -8 -72 -14 -92 -15 -21 0 -38 -4 -38 -10 0 -5 12
-10 26 -10 25 0 185 38 193 46 8 8 -34 2 -89 -11z"/>
<path d="M4030 2153 c-36 -9 -84 -16 -108 -18 -53 -3 -69 -15 -21 -15 37 0
190 27 198 35 11 12 -9 11 -69 -2z"/>
<path d="M2835 2145 c-71 -13 -72 -18 -2 -15 45 2 137 28 97 28 -14 -1 -56 -6
-95 -13z"/>
<path d="M1910 2130 c-20 -6 -21 -8 -5 -8 11 0 29 3 40 8 25 11 -1 11 -35 0z"/>
<path d="M8116 1227 c-26 -19 -18 -71 12 -75 47 -7 69 40 34 71 -22 20 -23 20
-46 4z m34 -33 c0 -26 -17 -33 -26 -9 -8 20 3 48 16 40 5 -3 10 -17 10 -31z"/>
<path d="M3260 1167 c-36 -18 -38 -59 -5 -77 49 -26 89 35 48 73 -16 13 -23
14 -43 4z m33 -31 c7 -18 -1 -26 -25 -26 -11 0 -18 7 -18 20 0 23 35 28 43 6z"/>
<path d="M6968 1163 c-36 -6 -44 -37 -29 -118 13 -74 15 -241 2 -249 -5 -4
-17 15 -27 41 -10 27 -21 53 -25 58 -3 6 -18 42 -32 80 -62 172 -83 197 -154
179 -49 -12 -51 -23 -55 -314 -3 -221 -4 -238 -25 -278 -28 -52 -28 -47 -3
-70 17 -16 29 -18 61 -12 22 4 46 13 52 19 18 18 24 112 22 309 -1 101 1 180
5 175 12 -13 48 -121 75 -223 13 -52 31 -97 39 -102 8 -5 23 -35 32 -68 20
-73 44 -97 81 -84 36 12 41 37 47 233 5 164 22 377 31 392 3 4 2 14 -1 23 -6
16 -34 18 -96 9z m72 -42 c0 -16 -4 -41 -10 -56 -5 -14 -12 -108 -16 -208 -9
-294 -14 -342 -37 -334 -13 4 -18 15 -47 87 -12 30 -28 62 -35 70 -8 8 -23 51
-35 95 -13 44 -29 92 -36 107 -8 14 -14 32 -14 39 0 30 -42 99 -61 99 -18 0
-19 -11 -20 -217 -2 -307 -2 -302 -55 -303 -35 0 -49 25 -31 53 27 42 37 136
37 353 0 206 1 214 21 224 32 17 62 5 78 -32 8 -18 22 -51 32 -73 9 -22 31
-76 49 -120 17 -44 42 -103 56 -131 13 -28 24 -56 24 -62 0 -7 7 -12 15 -12
12 0 15 16 16 83 0 45 3 107 6 137 2 30 -1 88 -8 129 -11 69 -11 75 6 87 10 8
29 14 42 14 19 0 23 -5 23 -29z"/>
<path d="M7668 1068 c-77 -44 -81 -95 -28 -303 37 -146 42 -178 41 -253 -1
-75 -29 -147 -72 -188 -37 -35 -37 -58 1 -74 38 -16 82 0 109 39 52 72 68 260
32 369 -35 108 -35 109 4 134 28 19 35 29 35 56 0 20 -5 32 -13 32 -9 0 -12
-9 -9 -29 3 -25 -2 -33 -32 -53 -20 -13 -36 -28 -36 -34 0 -6 9 -37 21 -70 29
-82 32 -277 6 -346 -21 -54 -66 -93 -97 -83 -29 9 -25 36 10 69 47 44 63 83
68 170 5 86 -10 193 -39 271 -26 71 -42 205 -29 239 9 24 60 56 88 56 12 0 34
-49 27 -60 -3 -5 -18 -7 -33 -4 -45 9 -57 -17 -54 -112 2 -49 21 -61 60 -39
l27 15 -26 -6 c-34 -7 -40 3 -41 67 0 59 13 79 38 58 14 -12 19 -10 35 10 24
29 24 32 -2 65 -25 31 -42 32 -91 4z"/>
<path d="M7417 1062 c-13 -15 -18 -51 -22 -192 -7 -226 -11 -257 -36 -270 -55
-30 -77 33 -82 236 -3 118 -6 146 -23 175 -11 19 -29 35 -40 37 -12 2 -15 0
-7 -5 31 -22 44 -87 51 -258 8 -198 12 -208 76 -203 66 5 74 32 82 271 4 141
9 197 18 194 6 -2 15 -20 20 -41 13 -50 -11 -367 -30 -404 -8 -15 -14 -32 -14
-39 0 -17 -49 -53 -73 -53 -18 0 -107 45 -107 54 0 2 -4 26 -10 54 -5 28 -10
113 -11 189 -1 96 -5 149 -16 175 -8 21 -13 45 -9 53 3 9 0 15 -10 15 -23 0
-26 -22 -9 -64 12 -29 17 -83 20 -220 2 -99 7 -190 11 -201 9 -23 42 -55 57
-55 6 0 18 -7 26 -15 13 -11 25 -12 59 -3 55 14 99 60 117 122 32 107 39 399
10 442 -19 29 -27 30 -48 6z"/>
<path d="M7941 1071 c-47 -13 -66 -54 -66 -144 0 -47 7 -105 16 -137 32 -106
69 -296 69 -350 0 -41 -8 -70 -30 -114 -34 -66 -37 -88 -15 -106 25 -21 85 13
119 68 33 54 22 230 -24 387 -26 90 -25 111 5 137 44 38 23 94 -25 68 -21 -11
-27 -6 -41 43 -6 21 -5 43 2 64 12 38 12 38 43 18 22 -14 25 -14 40 0 48 48
-10 89 -93 66z m72 -7 c9 -3 13 -13 10 -25 -5 -17 -11 -20 -39 -15 -26 5 -35
2 -48 -16 -9 -12 -16 -36 -15 -53 0 -39 22 -100 35 -98 5 1 22 5 37 8 23 6 27
4 27 -13 0 -11 -13 -30 -30 -42 -36 -26 -37 -36 -5 -125 66 -180 66 -385 2
-430 -27 -19 -32 -19 -51 0 -13 13 -11 22 17 77 28 54 32 70 31 142 0 78 -11
130 -67 321 -23 79 -27 188 -8 223 7 13 27 30 44 37 37 16 40 17 60 9z"/>
<path d="M8114 1059 c-3 -6 0 -17 8 -26 10 -12 13 -71 13 -259 0 -224 1 -243
19 -263 26 -29 79 -28 98 1 14 21 13 26 -10 56 -25 33 -26 36 -27 235 -1 128
-5 210 -12 223 -13 23 -80 48 -89 33z m63 -31 c4 -7 10 -111 13 -230 5 -210 6
-217 29 -241 12 -14 20 -30 16 -36 -12 -20 -35 -11 -55 21 -17 28 -19 52 -19
215 0 101 -3 206 -7 233 -6 49 4 66 23 38z"/>
<path d="M8480 1050 c-49 -12 -80 -15 -92 -9 -17 9 -88 13 -88 4 0 -3 9 -14
20 -25 19 -19 20 -34 20 -217 1 -311 4 -332 52 -333 34 0 49 29 44 84 -7 62
-10 198 -8 329 2 88 4 97 21 97 10 0 31 7 47 15 20 10 32 11 39 4 6 -6 10 -91
10 -224 0 -201 1 -215 21 -242 13 -17 30 -28 45 -28 23 0 24 2 22 80 -5 237
-5 286 -2 353 2 60 -1 77 -18 100 -25 34 -39 35 -133 12z m124 -37 c3 -10 5
-85 4 -168 -1 -87 4 -183 12 -228 9 -58 10 -81 2 -89 -9 -9 -16 -1 -29 28 -14
32 -19 77 -23 241 -6 237 -9 247 -75 213 -22 -11 -45 -20 -53 -20 -33 0 -37
-24 -36 -200 0 -96 4 -201 8 -232 7 -54 6 -58 -13 -58 -11 0 -22 8 -25 18 -3
9 -8 127 -11 261 l-6 243 27 -5 c15 -3 40 0 55 5 46 16 123 25 141 16 9 -4 19
-16 22 -25z"/>
<path d="M1990 1040 c-37 -21 -70 -26 -70 -11 0 13 -25 20 -48 14 -28 -7 -30
-37 -37 -408 -3 -165 -8 -342 -11 -392 -5 -76 -3 -97 10 -118 22 -33 50 -32
89 5 l32 30 4 171 c3 189 4 191 67 171 49 -15 95 1 137 48 48 52 67 121 67
234 -1 136 -38 216 -116 255 -51 26 -79 26 -124 1z m116 -29 c60 -36 102 -172
90 -291 -8 -77 -33 -135 -74 -174 -31 -29 -46 -30 -122 -11 -18 5 -33 1 -47
-12 -20 -17 -22 -30 -28 -180 -5 -155 -12 -204 -33 -217 -15 -9 -33 18 -34 50
0 16 2 56 6 89 3 33 8 215 11 404 2 189 7 346 10 349 3 3 14 -3 25 -13 20 -18
22 -18 63 3 53 26 93 27 133 3z"/>
<path d="M1994 949 l-42 -22 -7 -136 c-8 -157 -1 -184 51 -201 82 -27 144 74
144 237 0 67 -2 75 -31 108 -36 41 -58 43 -115 14z m85 -35 c17 -22 21 -41 21
-109 0 -151 -57 -239 -114 -176 -15 16 -17 33 -12 103 3 46 5 106 6 135 0 47
2 52 28 61 41 16 49 14 71 -14z"/>
<path d="M2783 1025 c-63 -44 -87 -163 -64 -321 30 -216 12 -325 -66 -393 -35
-31 -43 -45 -38 -60 10 -34 52 -38 104 -10 84 45 129 182 111 334 -5 44 -14
95 -19 114 -12 39 -3 56 32 67 33 10 57 35 57 59 0 25 -28 41 -44 25 -20 -20
-46 -11 -47 18 -1 15 -3 38 -4 52 -4 37 5 52 28 46 25 -6 57 10 57 29 0 17
-47 55 -69 55 -9 0 -26 -7 -38 -15z m75 -36 c1 -9 -7 -15 -25 -16 -40 -2 -53
-28 -53 -105 0 -76 6 -81 61 -52 17 8 34 13 37 9 11 -11 -14 -39 -47 -56 -18
-8 -36 -22 -41 -30 -10 -16 -2 -88 11 -105 5 -6 8 -65 6 -130 -3 -119 -18
-175 -59 -225 -32 -39 -86 -50 -109 -23 -12 15 -11 18 6 28 44 25 85 79 101
134 16 52 16 70 3 202 -22 237 -16 320 30 369 24 26 33 30 53 22 12 -4 24 -14
26 -22z"/>
<path d="M3053 1019 c-59 -37 -66 -105 -29 -257 31 -125 42 -270 26 -348 -13
-63 -36 -107 -84 -162 l-30 -34 24 -20 c64 -52 161 50 186 197 11 63 7 157
-11 245 -19 95 -15 122 20 138 21 10 26 18 23 40 -3 25 -6 27 -45 24 -48 -4
-58 7 -54 58 3 46 24 68 45 50 13 -10 20 -9 41 4 34 23 31 40 -11 65 -44 26
-61 26 -101 0z m101 -25 c22 -21 11 -36 -18 -23 -30 14 -75 -13 -77 -45 -1
-11 -3 -30 -4 -42 -1 -11 6 -31 16 -43 16 -19 25 -22 54 -17 45 9 47 -10 5
-47 -35 -32 -37 -55 -14 -153 26 -114 17 -249 -22 -328 -24 -47 -65 -86 -90
-86 -36 0 -39 19 -7 53 59 65 77 113 81 222 4 97 -11 244 -30 295 -30 79 -28
176 5 218 14 17 83 15 101 -4z"/>
<path d="M3485 996 c-18 -13 -18 -16 -4 -33 28 -32 39 -108 39 -277 0 -153 2
-168 20 -186 19 -19 22 -19 50 -5 26 14 29 20 32 72 2 32 0 123 -4 202 -4 80
-6 146 -5 147 2 2 28 6 59 10 84 10 85 7 73 -218 -7 -117 -5 -145 9 -182 20
-52 38 -62 71 -40 29 19 33 35 22 99 -5 28 -9 120 -11 206 -3 192 -10 209 -84
209 -26 0 -75 -5 -110 -10 -51 -9 -68 -8 -92 5 -36 19 -41 19 -65 1z m61 -20
c25 -12 40 -12 104 -1 97 17 138 10 151 -23 6 -14 12 -93 15 -176 11 -272 11
-270 -7 -274 -34 -6 -44 52 -41 238 1 100 -2 181 -8 190 -13 20 -137 21 -157
2 -11 -11 -12 -51 -7 -213 6 -180 6 -199 -10 -205 -9 -3 -23 0 -32 7 -12 10
-15 39 -13 173 2 161 -6 251 -22 262 -8 5 -13 34 -6 34 2 0 17 -6 33 -14z"/>
<path d="M3264 986 c-3 -8 -1 -24 5 -35 7 -13 11 -88 9 -210 -1 -161 1 -193
15 -214 22 -34 50 -41 87 -22 34 18 38 39 13 68 -16 17 -18 41 -18 181 0 109
-5 171 -13 192 -19 45 -86 72 -98 40z m53 -14 c25 -16 33 -69 33 -226 0 -147
2 -166 20 -188 22 -28 18 -38 -16 -38 -47 0 -54 29 -56 253 -2 114 -1 207 2
207 3 0 10 -4 17 -8z"/>
<path d="M2546 967 c-24 -18 -35 -81 -36 -207 0 -112 -18 -172 -52 -178 -32
-6 -41 35 -39 196 1 183 -4 197 -61 189 -22 -3 -42 -8 -45 -10 -3 -3 0 -29 6
-57 6 -28 11 -120 11 -203 0 -171 5 -187 66 -207 74 -25 161 18 182 88 15 50
32 206 32 299 0 52 -4 76 -16 87 -19 19 -25 20 -48 3z m-155 -50 c4 -16 7 -91
7 -167 -1 -115 1 -142 15 -164 23 -34 47 -33 82 4 28 29 29 35 40 185 10 153
21 193 46 168 7 -7 7 -56 -1 -169 -11 -159 -27 -224 -61 -250 -43 -34 -120
-19 -149 29 -18 29 -20 51 -19 215 0 163 2 183 16 180 9 -2 20 -16 24 -31z"/>
<path d="M8740 601 c0 -5 4 -12 10 -16 5 -3 7 -12 3 -20 -3 -8 0 -15 7 -15 15
0 9 52 -7 58 -7 2 -13 -1 -13 -7z"/>
<path d="M3971 574 c-42 -18 -40 -54 4 -66 37 -9 64 12 58 47 -6 31 -22 36
-62 19z m34 -28 c0 -22 -14 -29 -34 -17 -19 12 -6 43 16 39 10 -2 18 -12 18
-22z"/>
<path d="M8695 570 c-9 -28 12 -60 40 -60 13 0 27 5 30 10 3 6 -3 10 -13 10
-25 0 -44 23 -36 44 3 9 1 16 -4 16 -6 0 -13 -9 -17 -20z"/>
</g>
</svg>
