<?xml version="1.0" standalone="no"?>
<!DOCTYPE svg PUBLIC "-//W3C//DTD SVG 20010904//EN"
 "http://www.w3.org/TR/2001/REC-SVG-20010904/DTD/svg10.dtd">
<svg version="1.0" xmlns="http://www.w3.org/2000/svg"
 width="1000.000000pt" height="701.000000pt" viewBox="0 0 1000.000000 701.000000"
 preserveAspectRatio="xMidYMid meet">
<metadata>
Created by potrace 1.16, written by Peter Selinger 2001-2019
</metadata>
<g transform="translate(0.000000,701.000000) scale(0.100000,-0.100000)"
fill="#000000" stroke="none">
<path d="M2652 6915 c-11 -14 -60 -67 -108 -118 -48 -51 -104 -114 -125 -142
-21 -27 -56 -74 -79 -103 -22 -30 -63 -95 -89 -145 -27 -51 -58 -110 -70 -132
-40 -76 -79 -170 -82 -199 -5 -38 18 -46 27 -9 4 15 18 56 31 90 22 55 27 61
40 48 13 -14 12 -20 -6 -58 -12 -24 -21 -55 -21 -69 0 -14 -7 -28 -15 -32 -8
-3 -12 -12 -9 -20 3 -9 -3 -17 -15 -21 -14 -4 -21 -15 -21 -31 0 -27 12 -31
29 -11 13 17 44 15 65 -2 28 -23 19 -37 -23 -33 -24 2 -43 -1 -50 -10 -50 -60
-62 -80 -58 -92 8 -20 -36 -59 -50 -45 -18 18 -33 -21 -24 -61 l8 -35 12 28
c6 16 11 33 11 38 0 5 10 9 22 9 17 0 19 -3 10 -12 -7 -7 -12 -21 -12 -33 0
-12 -5 -26 -12 -33 -9 -9 -7 -13 6 -18 25 -10 36 6 40 57 2 25 11 60 20 78
l17 33 -23 -7 c-16 -5 -6 8 32 43 54 49 55 50 63 26 9 -25 27 -33 27 -12 0 8
7 6 17 -5 15 -14 15 -21 5 -37 -10 -17 -9 -22 13 -36 29 -19 32 -40 8 -66 -15
-17 -15 -18 0 -18 19 0 22 -22 7 -51 -8 -13 -7 -19 0 -19 13 0 2 -50 -14 -68
-10 -10 -17 -9 -36 8 -13 11 -34 20 -47 20 -45 0 -112 22 -137 45 -18 17 -26
19 -30 10 -4 -11 -12 -11 -48 0 -37 11 -43 16 -40 36 1 13 2 33 2 44 -1 11 -2
36 -3 56 -1 38 25 110 52 143 21 24 70 49 101 50 35 1 33 30 -3 34 -87 10
-222 -183 -187 -267 13 -34 2 -66 -34 -101 -15 -13 -47 -62 -73 -110 -25 -47
-56 -96 -69 -110 -24 -27 -83 -149 -116 -240 -28 -79 -36 -126 -41 -228 -3
-50 -7 -94 -10 -99 -3 -5 -11 -92 -17 -193 -6 -102 -15 -211 -20 -244 -7 -47
-6 -64 7 -89 15 -29 16 -30 29 -12 8 10 14 29 14 41 0 12 12 57 26 100 24 72
53 178 54 197 0 4 -4 7 -9 7 -5 0 -12 -21 -16 -46 -3 -26 -10 -56 -15 -68 -12
-31 -4 72 8 109 6 17 16 50 23 75 7 25 16 49 21 54 4 6 8 25 8 44 0 31 71 237
88 254 9 9 4 -139 -5 -162 -17 -40 -30 -103 -32 -151 -1 -30 -11 -114 -21
-188 -11 -73 -23 -172 -26 -220 -3 -47 -7 -98 -9 -113 -3 -18 0 -28 8 -28 22
0 41 44 43 105 2 33 3 61 3 63 1 1 7 -3 15 -10 9 -8 10 -15 4 -19 -7 -5 -5
-18 5 -38 9 -17 11 -29 6 -26 -5 4 -9 -12 -9 -34 0 -40 12 -53 26 -30 10 17
24 -10 24 -48 0 -35 10 -42 29 -20 25 31 135 318 152 398 10 47 37 137 59 199
23 62 49 135 57 164 8 28 19 56 25 61 9 10 12 -143 8 -537 -2 -158 0 -178 14
-178 11 0 16 9 16 31 0 17 4 28 10 24 13 -8 39 36 56 97 14 49 18 74 28 179 2
20 8 45 13 55 13 24 50 175 58 234 4 25 11 63 16 85 25 97 49 250 49 305 0 26
-7 51 -16 62 -10 10 -19 41 -21 75 -3 35 -11 66 -23 81 -19 24 -19 25 2 65 18
36 20 53 15 138 -3 67 -11 107 -25 135 -12 24 -18 51 -15 71 6 35 -23 73 -57
73 -16 0 -19 6 -16 43 1 23 8 55 14 70 7 16 12 34 12 40 0 23 119 248 149 282
17 20 31 39 31 43 0 4 21 29 45 55 25 26 45 51 45 56 0 5 14 24 30 42 17 19
45 52 63 74 18 22 67 75 110 118 43 43 75 82 72 88 -8 11 -33 -2 -59 -30 -11
-12 -26 -21 -35 -21 -9 0 -46 -32 -81 -71 -64 -70 -85 -99 -60 -84 9 6 9 3 1
-13 -6 -11 -14 -22 -18 -24 -23 -9 -205 -265 -230 -320 -7 -16 -21 -28 -31
-28 -12 0 -26 -15 -38 -40 -10 -22 -22 -40 -26 -40 -10 0 11 49 34 79 10 13
18 30 18 37 0 8 5 14 10 14 6 0 10 9 10 20 0 25 72 133 141 211 38 43 55 56
70 52 17 -5 19 -2 14 18 -4 18 2 32 22 55 125 136 173 192 173 202 0 20 -17
13 -38 -13z m-410 -659 c-9 -19 -19 -30 -21 -24 -4 12 19 58 30 58 5 0 1 -15
-9 -34z m-178 -662 c9 -3 16 -15 16 -26 0 -16 -3 -18 -13 -9 -8 6 -17 8 -20 4
-4 -3 -7 3 -7 15 0 24 1 25 24 16z m56 -19 c0 -9 -6 -12 -15 -9 -8 4 -12 10
-9 15 8 14 24 10 24 -6z m109 -30 c3 -17 1 -18 -13 -6 -13 11 -16 11 -16 1 0
-9 -6 -8 -19 4 -10 10 -21 14 -24 9 -3 -4 1 -48 9 -96 10 -59 11 -94 4 -105
-7 -14 -9 -11 -10 15 0 17 -4 34 -9 37 -5 3 -9 42 -10 86 l-2 81 43 -3 c33 -3
44 -8 47 -23z m-215 -8 c-3 -8 -12 -18 -20 -21 -11 -4 -11 0 2 20 18 26 28 27
18 1z m-89 -25 c-11 -20 -12 -38 -4 -70 5 -24 7 -47 4 -53 -12 -18 -25 -9 -25
17 0 47 -24 19 -48 -57 -25 -76 -27 -104 -22 -249 2 -53 -2 -113 -12 -160 -19
-85 -35 -309 -22 -297 10 9 12 29 19 162 3 55 14 129 25 165 10 36 22 86 25
113 3 26 11 47 16 47 6 0 7 5 4 10 -3 6 -1 10 5 10 6 0 8 -15 4 -42 -4 -32 -3
-39 5 -28 6 8 11 25 11 38 0 12 4 22 10 22 12 0 7 -33 -21 -159 -14 -66 -27
-101 -35 -101 -19 0 -31 -61 -39 -200 -5 -77 -18 -174 -31 -225 -10 -38 35 23
46 63 13 49 13 93 0 72 -8 -12 -10 -12 -10 5 0 11 5 27 10 35 8 12 10 12 11
-5 l0 -20 9 20 c5 11 9 37 9 58 1 25 6 37 15 37 10 0 13 -7 10 -22 -3 -13 -7
-43 -10 -68 -3 -25 -19 -85 -35 -133 -31 -91 -36 -148 -6 -67 12 30 15 35 12
15 -3 -16 -7 -39 -9 -50 -2 -11 -11 -47 -21 -80 -10 -33 -19 -66 -21 -73 -6
-22 -23 -3 -30 33 -3 20 -9 37 -13 40 -4 2 -6 44 -4 94 2 49 0 92 -4 94 -5 3
-5 63 -1 134 4 70 9 189 13 263 8 212 14 281 25 315 16 48 20 157 6 148 -6 -4
-15 -8 -19 -8 -5 0 -15 -11 -22 -25 -19 -33 -19 -18 0 27 8 19 15 45 16 57 0
11 3 15 6 9 2 -7 9 -13 14 -13 5 0 9 6 9 13 0 6 5 19 10 27 8 13 11 12 24 -5
13 -19 15 -18 21 18 9 47 25 58 25 17 0 -18 4 -29 10 -25 6 3 10 17 10 30 0
13 7 31 16 39 22 23 24 20 9 -12z m140 -11 c-3 -12 -11 -21 -16 -21 -6 0 -8 3
-6 8 2 4 7 16 11 26 9 25 20 13 11 -13z m32 -38 c-2 -16 -4 -5 -4 22 0 28 2
40 4 28 2 -13 2 -35 0 -50z m-127 -25 c0 -124 -2 -153 -15 -191 -8 -23 -15
-52 -15 -64 0 -12 -5 -25 -11 -29 -11 -7 -7 61 7 109 3 10 0 17 -9 17 -15 0
-11 35 12 109 5 18 10 36 9 40 -3 9 12 51 18 51 2 0 4 -19 4 -42z m240 -25 c4
-21 10 -49 14 -63 5 -19 1 -32 -13 -49 l-20 -23 2 90 c1 50 4 89 6 87 2 -3 7
-21 11 -42z m-121 -85 c1 -100 -6 -158 -19 -158 -5 0 -6 43 -3 96 5 76 3 98
-8 105 -10 6 -10 9 -1 9 6 0 12 12 12 26 0 14 4 23 9 20 5 -3 9 -47 10 -98z
m-58 44 c-8 -29 -4 -62 8 -62 9 0 -5 -134 -18 -180 -6 -19 -11 -44 -11 -55 0
-17 2 -17 10 -5 8 12 10 9 10 -12 0 -19 -4 -26 -14 -22 -24 9 -29 -5 -52 -170
-5 -33 -4 -47 3 -43 6 4 13 30 16 59 10 83 21 131 33 135 13 4 0 -127 -16
-157 -7 -12 -14 -38 -16 -58 -2 -21 -11 -53 -18 -72 -8 -19 -25 -71 -37 -114
-13 -44 -25 -74 -27 -67 -2 7 1 24 6 39 16 43 23 94 12 87 -13 -8 -13 1 2 50
6 22 11 44 10 48 -1 4 2 17 8 27 7 13 7 20 1 20 -6 0 -8 6 -5 14 3 8 1 17 -5
20 -6 4 -12 -13 -16 -41 -3 -27 -7 -55 -8 -63 -1 -8 -11 -16 -22 -19 -16 -3
-17 -1 -7 11 6 8 9 18 5 21 -3 4 -1 12 5 19 5 7 13 31 16 53 18 123 40 217 46
199 6 -15 10 -11 19 21 6 22 13 58 16 80 l5 40 -11 -37 c-6 -21 -15 -38 -20
-38 -14 0 -10 76 5 89 7 6 16 36 19 67 6 63 37 155 48 148 4 -2 4 -17 0 -32z
m229 8 c0 -5 -4 -10 -10 -10 -5 0 -10 5 -10 10 0 6 5 10 10 10 6 0 10 -4 10
-10z m-354 -42 c-18 -94 -18 -94 -36 -83 -18 11 9 115 31 115 7 0 9 -11 5 -32z
m351 -60 c-2 -13 -4 -5 -4 17 -1 22 1 32 4 23 2 -10 2 -28 0 -40z m-577 38 c0
-3 -4 -8 -10 -11 -5 -3 -10 -1 -10 4 0 6 5 11 10 11 6 0 10 -2 10 -4z m450
-34 l0 -27 -14 25 c-13 26 -11 44 5 35 5 -4 9 -18 9 -33z m37 -14 c-2 -13 -4
-5 -4 17 -1 22 1 32 4 23 2 -10 2 -28 0 -40z m-447 35 c0 -5 -8 -17 -17 -28
-14 -18 -15 -18 -9 -2 3 10 6 23 6 28 0 5 5 9 10 9 6 0 10 -3 10 -7z m193 -48
c-3 -9 -8 -14 -10 -11 -3 3 -2 9 2 15 9 16 15 13 8 -4z m-156 -27 c-3 -8 -6
-5 -6 6 -1 11 2 17 5 13 3 -3 4 -12 1 -19z m90 0 c-3 -8 -6 -5 -6 6 -1 11 2
17 5 13 3 -3 4 -12 1 -19z m276 7 c-3 -9 -8 -14 -10 -11 -3 3 -2 9 2 15 9 16
15 13 8 -4z m117 -6 c0 -11 -4 -17 -10 -14 -5 3 -10 13 -10 21 0 8 5 14 10 14
6 0 10 -9 10 -21z m-368 -11 c-7 -7 -12 -8 -12 -2 0 14 12 26 19 19 2 -3 -1
-11 -7 -17z m314 -86 c-13 -12 -16 7 -9 54 l8 49 3 -49 c2 -26 1 -51 -2 -54z
m-35 55 c-10 -9 -11 -8 -5 6 3 10 9 15 12 12 3 -3 0 -11 -7 -18z m159 2 c0 -5
-4 -9 -10 -9 -5 0 -10 7 -10 16 0 8 5 12 10 9 6 -3 10 -10 10 -16z m-61 -70
c-6 -41 -13 -76 -16 -79 -7 -8 -1 83 9 124 15 62 20 35 7 -45z m-344 62 c3 -5
1 -12 -5 -16 -5 -3 -10 1 -10 9 0 18 6 21 15 7z m-236 -13 c0 -7 -9 -33 -19
-58 -19 -44 -19 -45 -19 -13 -1 38 15 83 29 83 5 0 10 -6 9 -12z m188 -20 c-3
-8 -6 -5 -6 6 -1 11 2 17 5 13 3 -3 4 -12 1 -19z m278 -16 c-4 -25 -1 -47 9
-67 12 -22 14 -47 10 -95 -4 -47 -3 -61 5 -50 6 8 11 26 11 40 0 36 12 51 27
35 10 -10 9 -14 -2 -19 -9 -3 -15 -19 -15 -40 0 -22 -6 -38 -16 -44 -14 -8
-15 -20 -9 -83 15 -138 8 -340 -13 -374 -10 -16 -12 2 -10 102 2 67 0 125 -5
129 -4 4 -7 84 -7 178 -1 126 -4 176 -14 189 -20 25 -36 21 -36 -10 -1 -16 -8
-39 -16 -53 l-15 -25 7 30 c9 40 5 119 -6 123 -11 4 9 52 22 52 4 0 8 -8 8
-19 0 -13 7 -18 25 -18 14 0 26 5 26 11 1 6 2 16 4 21 1 6 3 13 3 18 1 4 5 7
8 7 3 0 3 -17 -1 -38z m-503 -97 c-5 -28 -22 -24 -22 6 0 10 6 19 14 19 9 0
12 -8 8 -25z m-31 -97 c-18 -108 -20 -118 -31 -118 -10 0 -8 66 6 179 5 40 7
42 21 28 14 -14 15 -25 4 -89z m606 80 c-3 -8 -6 -5 -6 6 -1 11 2 17 5 13 3
-3 4 -12 1 -19z m26 -49 c-8 -31 -20 -22 -15 12 3 19 7 26 12 19 4 -7 5 -21 3
-31z m-583 -23 c0 -3 -4 -8 -10 -11 -5 -3 -10 -1 -10 4 0 6 5 11 10 11 6 0 10
-2 10 -4z m547 -28 c-3 -7 -5 -2 -5 12 0 14 2 19 5 13 2 -7 2 -19 0 -25z m63
-12 c-14 -14 -22 -2 -14 18 5 14 9 15 15 4 4 -7 4 -17 -1 -22z m-11 -82 c-6
-27 -17 -65 -24 -84 -7 -19 -18 -66 -25 -105 -15 -85 -33 -122 -24 -50 3 28
10 66 15 85 5 19 9 49 9 66 0 16 4 34 9 40 5 5 11 27 15 49 4 28 3 34 -4 20
-8 -19 -9 -19 -9 3 -1 13 5 22 14 22 8 0 15 5 15 12 0 8 3 9 10 2 8 -8 7 -26
-1 -60z m-632 14 c-3 -8 -6 -5 -6 6 -1 11 2 17 5 13 3 -3 4 -12 1 -19z m250
-10 c-3 -8 -6 -5 -6 6 -1 11 2 17 5 13 3 -3 4 -12 1 -19z m314 -40 c-3 -62
-11 -60 -11 2 0 29 3 50 7 46 4 -3 6 -25 4 -48z m-596 -60 c-4 -40 -11 -83
-16 -96 -13 -33 -11 -105 1 -97 13 8 3 -39 -16 -75 -11 -22 -13 -6 -9 110 6
180 13 230 32 230 13 0 14 -11 8 -72z m153 32 c-1 -16 -6 -30 -11 -30 -6 0 -7
3 -4 7 4 3 2 13 -5 20 -9 11 -9 17 3 24 8 5 15 9 16 9 1 0 1 -13 1 -30z m119
-32 c-2 -13 -4 -5 -4 17 -1 22 1 32 4 23 2 -10 2 -28 0 -40z m-150 -100 c-3
-7 -5 -2 -5 12 0 14 2 19 5 13 2 -7 2 -19 0 -25z m0 -55 c-3 -10 -5 -4 -5 12
0 17 2 24 5 18 2 -7 2 -21 0 -30z m-16 -106 c-8 -8 -11 -4 -11 14 0 33 14 47
18 19 2 -12 -1 -27 -7 -33z m-10 -77 l-10 -25 0 27 c-1 14 2 35 6 45 7 17 8
17 11 -2 1 -12 -2 -32 -7 -45z m459 3 c0 -5 -5 -15 -10 -23 -8 -12 -10 -11
-10 8 0 12 5 22 10 22 6 0 10 -3 10 -7z m-463 -65 c-3 -7 -5 -2 -5 12 0 14 2
19 5 13 2 -7 2 -19 0 -25z"/>
<path d="M1786 4609 c-10 -30 -13 -69 -6 -69 4 0 10 17 12 38 5 38 2 55 -6 31z"/>
<path d="M1988 5205 c-3 -14 -1 -25 3 -25 5 0 9 11 9 25 0 14 -2 25 -4 25 -2
0 -6 -11 -8 -25z"/>
<path d="M3834 6876 c-3 -8 1 -27 9 -43 8 -15 20 -57 26 -93 7 -36 16 -87 21
-115 25 -135 43 -421 32 -497 -5 -31 -5 -63 -1 -71 5 -8 6 -30 3 -49 -6 -31
-11 -37 -48 -48 -22 -7 -64 -32 -92 -56 -64 -54 -94 -127 -92 -222 1 -36 -4
-68 -10 -74 -18 -18 -14 -56 7 -67 14 -8 25 -6 44 9 14 11 30 20 36 20 7 0 15
8 18 17 17 43 63 71 63 38 0 -8 -6 -12 -13 -9 -7 2 -23 -13 -37 -35 -16 -26
-33 -41 -46 -41 -23 0 -69 -34 -134 -100 -33 -34 -51 -64 -69 -115 -13 -39
-29 -83 -36 -100 -7 -16 -19 -54 -25 -83 -7 -28 -19 -56 -27 -60 -15 -9 -23
-44 -58 -232 -9 -52 -26 -124 -38 -160 -16 -51 -21 -93 -21 -189 -1 -146 13
-170 37 -64 9 37 19 85 22 106 9 54 51 179 91 272 42 94 48 109 64 153 7 17
19 32 27 32 13 0 13 3 3 15 -8 10 -9 15 -2 15 6 0 17 18 23 40 18 59 22 42 8
-30 -8 -42 -17 -64 -28 -67 -18 -4 -39 -56 -47 -113 -3 -19 -9 -51 -14 -70
-13 -47 -13 -53 5 -46 12 4 15 -4 15 -39 0 -24 -4 -46 -9 -50 -26 -15 -87
-281 -69 -302 5 -7 7 -16 4 -21 -3 -5 -8 -57 -11 -116 -2 -59 -8 -112 -11
-117 -3 -6 -3 -21 0 -34 9 -36 34 -21 47 29 6 22 20 66 31 96 10 30 33 100 50
154 17 54 39 107 48 116 10 10 21 32 25 50 4 17 9 29 11 27 3 -2 0 -26 -7 -53
-6 -27 -12 -71 -14 -99 -2 -27 -9 -79 -15 -115 -12 -70 -6 -114 13 -107 6 2
16 18 21 35 5 18 15 32 22 32 7 0 15 19 19 48 6 45 64 172 65 143 0 -28 -33
-136 -48 -154 -8 -9 -12 -20 -8 -25 4 -4 13 1 20 11 7 9 20 17 29 17 9 0 20
15 27 38 15 46 36 96 60 142 28 54 52 167 52 255 0 44 6 89 12 100 5 11 10 23
11 27 0 3 3 10 7 13 4 4 5 -63 2 -150 -3 -103 -1 -177 7 -214 7 -31 12 -100
13 -153 1 -104 13 -125 38 -68 7 17 16 30 19 30 17 0 59 172 59 241 0 19 5 40
11 46 5 5 12 28 15 49 8 70 14 106 20 115 26 43 60 540 41 623 -8 39 -35 77
-58 83 -22 6 -26 23 -4 23 8 0 19 9 25 19 5 11 17 26 25 35 25 24 37 113 24
176 -28 143 -77 240 -120 240 -21 0 -38 -22 -21 -28 18 -6 14 -19 -8 -25 -22
-6 -29 20 -10 39 13 13 18 421 7 559 -11 154 -18 187 -36 192 -12 3 -17 19
-19 66 -1 34 -6 63 -10 65 -5 1 -7 15 -5 30 5 40 -11 60 -36 45 -14 -9 -28
-10 -46 -3 -20 7 -27 6 -31 -4z m123 -278 c-3 -7 -5 -2 -5 12 0 14 2 19 5 13
2 -7 2 -19 0 -25z m20 -200 c-3 -8 -6 -5 -6 6 -1 11 2 17 5 13 3 -3 4 -12 1
-19z m6 -53 c-7 -21 -13 -19 -13 6 0 11 4 18 10 14 5 -3 7 -12 3 -20z m7 -34
c0 -6 -4 -13 -10 -16 -5 -3 -10 1 -10 9 0 9 5 16 10 16 6 0 10 -4 10 -9z m-10
-107 c-4 -16 -9 -27 -10 -24 -6 13 -8 57 -4 70 10 30 24 -14 14 -46z m-4 -164
c1 -54 -2 -70 -13 -70 -11 0 -13 10 -9 43 3 23 5 54 5 70 1 15 4 27 9 27 4 0
7 -32 8 -70z m-26 -109 c0 -9 -45 -31 -62 -31 -6 0 -1 11 11 24 21 22 51 26
51 7z m30 -19 c0 -4 -7 -18 -16 -31 -13 -18 -18 -20 -25 -10 -5 8 -2 20 8 31
17 19 33 24 33 10z m-120 -36 c0 -8 -13 -23 -30 -33 -29 -17 -32 -20 -34 -45
-1 -7 -9 -19 -19 -26 -9 -7 -15 -18 -11 -23 4 -7 15 -3 28 8 11 11 34 27 49
37 16 10 26 20 24 23 -3 2 -17 -3 -31 -13 -44 -28 -40 -9 5 27 40 32 42 32 56
13 8 -10 22 -17 31 -16 13 3 12 -1 -5 -18 -27 -24 -27 -26 -10 -28 6 -1 24 -4
38 -8 23 -5 28 -2 37 24 11 33 41 72 55 72 5 0 7 -7 3 -15 -3 -8 3 -20 13 -27
9 -7 26 -28 37 -46 18 -32 18 -34 2 -46 -23 -17 -23 -26 2 -26 11 0 20 -6 21
-12 0 -7 3 -34 5 -59 4 -40 1 -47 -18 -58 -13 -6 -15 -9 -5 -7 38 11 13 -50
-31 -73 -20 -11 -26 -8 -51 20 -17 19 -38 31 -52 30 -109 -2 -133 2 -137 24
-4 16 -2 17 10 8 11 -9 16 -8 26 7 6 11 9 26 6 34 -3 8 -1 17 5 21 6 3 11 15
11 26 0 10 4 19 9 19 16 0 44 51 33 62 -6 6 -12 6 -16 -1 -4 -5 -13 -8 -21 -4
-10 3 -20 -6 -31 -28 -14 -32 -15 -32 -11 -6 5 35 -4 34 -48 -4 -23 -20 -35
-40 -35 -57 0 -25 0 -25 21 -6 22 19 22 19 11 -1 -21 -37 -39 -55 -55 -55 -12
0 -14 11 -11 63 7 91 12 119 29 151 9 16 13 38 9 49 -5 16 -2 18 15 12 13 -4
27 -1 37 9 19 20 34 20 34 2z m-20 -171 c0 -2 -10 -10 -22 -16 -21 -11 -22
-11 -9 4 13 16 31 23 31 12z m48 -203 c4 -25 -15 -30 -20 -5 -2 9 -20 -17 -41
-60 -41 -83 -52 -95 -61 -72 -3 8 3 19 13 25 10 5 22 22 25 37 10 40 55 105
69 100 7 -2 13 -13 15 -25z m82 13 c0 -8 -4 -15 -9 -15 -13 0 -22 16 -14 24
11 11 23 6 23 -9z m-158 -17 c-7 -7 -12 -8 -12 -2 0 14 12 26 19 19 2 -3 -1
-11 -7 -17z m-39 -23 c-3 -9 -8 -14 -10 -11 -3 3 -2 9 2 15 9 16 15 13 8 -4z
m200 -63 c-6 -4 -13 -20 -16 -37 -3 -16 -12 -56 -21 -88 -9 -31 -19 -75 -21
-97 -2 -22 -6 -49 -10 -60 -5 -15 -3 -18 8 -14 8 3 22 32 31 65 9 33 21 57 26
54 15 -10 12 -52 -5 -59 -8 -3 -15 -15 -15 -26 0 -28 20 -26 21 3 1 43 18 -14
18 -64 1 -32 6 -49 16 -53 8 -3 15 -14 15 -24 0 -10 5 -23 11 -29 8 -8 7 -26
-4 -65 -8 -29 -21 -86 -28 -126 -7 -43 -17 -71 -23 -69 -12 4 -10 78 5 142 4
22 9 66 9 98 0 58 -2 61 -46 60 -7 0 -9 15 -6 45 3 30 1 43 -6 38 -11 -7 -13
-13 -33 -140 -8 -44 -19 -80 -26 -83 -7 -3 -13 -13 -13 -22 0 -19 -28 -102
-59 -175 -20 -46 -21 -77 -1 -46 6 8 10 13 10 10 0 -9 -27 -94 -40 -125 -7
-16 -17 -41 -22 -55 -20 -50 -38 -75 -50 -72 -10 3 -10 0 -2 -8 12 -12 4 -49
-28 -127 -13 -34 -33 -46 -24 -15 2 9 10 44 16 77 16 82 20 96 30 90 4 -3 12
1 17 8 17 22 53 119 47 128 -3 5 0 9 6 9 8 0 10 9 6 23 -3 13 3 49 14 80 11
31 20 65 20 75 0 10 9 44 19 75 12 35 16 57 9 59 -7 3 -7 15 -1 38 6 19 7 44
3 55 -7 18 -9 16 -23 -15 -15 -33 -16 -33 -12 -7 2 16 9 43 15 61 5 18 10 48
9 67 -1 37 15 150 31 214 12 52 12 68 0 60 -17 -10 -11 11 9 34 11 13 24 20
30 17 6 -4 17 6 25 21 11 21 15 23 16 10 0 -12 6 -17 18 -15 11 2 16 11 15 28
l-3 25 12 -23 c8 -16 8 -26 1 -30z m-302 -45 c-13 -13 -15 1 -4 30 7 17 8 17
11 -1 2 -10 -1 -23 -7 -29z m357 12 c-3 -8 -7 -3 -11 10 -4 17 -3 21 5 13 5
-5 8 -16 6 -23z m-316 -1 c-7 -7 -12 -8 -12 -2 0 14 12 26 19 19 2 -3 -1 -11
-7 -17z m91 -66 c-9 -23 -22 -42 -30 -42 -8 0 -13 3 -11 8 2 4 10 21 18 37 14
28 31 47 37 41 2 -1 -5 -21 -14 -44z m177 -2 c0 -39 -3 -50 -16 -50 -12 0 -15
6 -10 23 4 12 9 34 12 50 9 41 14 33 14 -23z m48 15 c-2 -10 -7 -12 -17 -5
-13 7 -13 11 -1 25 15 18 24 8 18 -20z m-307 -36 c-6 -16 -10 -18 -10 -7 -1
22 12 55 16 42 2 -6 -1 -22 -6 -35z m105 -26 c-8 -28 -21 -62 -30 -74 -9 -13
-16 -39 -17 -59 -1 -50 -23 -104 -43 -108 -13 -3 -17 1 -13 15 13 45 19 145 8
139 -6 -4 -11 -16 -11 -26 0 -12 -13 -26 -30 -35 -28 -15 -30 -14 -30 3 0 31
21 86 38 100 9 7 22 25 29 40 9 20 11 21 7 5 -3 -13 -1 -23 5 -23 6 0 11 5 11
10 0 6 5 10 11 10 8 0 10 -12 6 -35 -4 -24 -2 -35 7 -35 6 0 12 9 13 20 2 24
42 115 48 109 2 -3 -2 -28 -9 -56z m221 25 c-3 -7 -5 -2 -5 12 0 14 2 19 5 13
2 -7 2 -19 0 -25z m-427 17 c0 -3 -7 -22 -16 -43 -17 -41 -45 -164 -39 -171 6
-6 24 43 45 124 l19 70 -2 -82 c-1 -45 -5 -81 -8 -80 -10 3 -56 -57 -64 -83
-4 -14 -14 -34 -23 -45 -13 -18 -14 -18 -8 -1 9 28 56 237 56 252 0 23 19 64
30 64 5 0 10 -2 10 -5z m390 -42 c0 -24 -3 -33 -9 -25 -7 12 -4 62 5 62 2 0 4
-17 4 -37z m-450 -18 c-6 -15 -13 -26 -16 -23 -2 3 0 18 6 33 6 15 13 26 16
23 2 -3 0 -18 -6 -33z m515 -113 c-2 -42 -3 -101 -4 -129 -1 -29 -4 -53 -8
-53 -5 0 -8 63 -8 139 0 103 3 137 11 130 7 -6 10 -38 9 -87z m-554 -14 c-11
-24 -20 -35 -21 -26 0 9 4 19 9 22 4 3 12 20 16 38 4 18 9 28 12 21 2 -6 -5
-31 -16 -55z m582 -39 c-4 -4 -6 13 -3 39 l5 47 3 -39 c2 -21 0 -42 -5 -47z
m-404 -65 c-22 -99 -20 -134 4 -59 9 28 16 45 16 40 1 -15 -36 -205 -49 -245
-13 -44 -13 -63 0 -55 5 3 7 0 4 -8 -8 -21 -34 -16 -34 7 0 12 11 63 24 114
15 58 19 91 12 89 -6 -2 -14 -17 -18 -33 -5 -19 -6 -13 -3 18 3 27 8 60 11 74
5 18 3 25 -3 21 -6 -4 -13 -19 -16 -34 -2 -16 -14 -64 -26 -108 -12 -44 -23
-93 -26 -110 -2 -16 -8 -43 -14 -60 -8 -26 -9 -23 -10 30 -1 67 22 190 40 211
6 8 9 14 6 14 -8 0 21 138 33 157 9 15 10 13 9 -12 -4 -91 12 -101 31 -20 7
30 16 55 21 55 4 0 -2 -39 -12 -86z m101 22 c-10 -45 -43 -115 -54 -116 -4 0
-5 8 -1 18 3 9 16 45 27 79 22 65 42 78 28 19z m137 -58 c-3 -7 -5 -2 -5 12 0
14 2 19 5 13 2 -7 2 -19 0 -25z m-343 -43 c-4 -8 -10 -15 -15 -15 -4 0 -6 7
-3 15 4 8 10 15 15 15 4 0 6 -7 3 -15z m339 -20 c4 -8 2 -17 -3 -20 -6 -4 -10
3 -10 14 0 25 6 27 13 6z m-469 -83 c-23 -62 -30 -36 -8 30 12 34 19 46 22 34
2 -10 -4 -39 -14 -64z m606 68 c0 -5 -5 -10 -11 -10 -5 0 -7 5 -4 10 3 6 8 10
11 10 2 0 4 -4 4 -10z m-309 -41 c-6 -18 -11 -41 -11 -53 0 -12 -8 -31 -18
-43 -17 -22 -17 -22 -19 27 -1 33 2 50 10 50 7 0 18 14 26 31 17 39 27 30 12
-12z m-61 -114 c-16 -47 -23 -40 -9 9 6 21 13 36 16 33 3 -3 0 -22 -7 -42z
m-260 15 c0 -5 -4 -10 -10 -10 -5 0 -7 -7 -4 -15 4 -8 1 -22 -6 -30 -9 -11 -9
-15 -1 -15 7 0 9 -4 6 -10 -21 -34 -30 27 -10 73 8 18 25 23 25 7z m581 -122
c-7 -62 -16 -128 -22 -146 -12 -37 -5 -67 13 -56 8 5 9 2 4 -12 -4 -10 -10
-31 -13 -46 -3 -16 -11 -28 -18 -28 -17 0 -39 213 -25 239 5 11 10 37 10 58 0
25 3 33 9 24 5 -7 5 -28 1 -47 -4 -19 -4 -36 0 -39 13 -8 17 5 25 75 7 73 14
104 22 97 2 -3 0 -56 -6 -119z m50 89 c-8 -8 -11 -7 -11 4 0 20 13 34 18 19 3
-7 -1 -17 -7 -23z m-314 -89 c-3 -8 -6 -5 -6 6 -1 11 2 17 5 13 3 -3 4 -12 1
-19z m290 -10 c-3 -7 -5 -2 -5 12 0 14 2 19 5 13 2 -7 2 -19 0 -25z m-377 10
c0 -4 -9 -8 -20 -8 -11 0 -20 4 -20 9 0 6 9 9 20 8 11 -1 20 -5 20 -9z m181
-21 c-10 -9 -11 -8 -5 6 3 10 9 15 12 12 3 -3 0 -11 -7 -18z m-218 -22 c-3 -9
-8 -14 -10 -11 -3 3 -2 9 2 15 9 16 15 13 8 -4z m-93 -140 c-11 -54 -22 -100
-24 -102 -19 -20 3 163 27 217 21 47 19 -10 -3 -115z m291 98 c-10 -17 -10
-16 -11 3 0 23 13 41 18 25 2 -6 -1 -18 -7 -28z m-118 -58 c-6 -18 -7 -17 -13
6 -4 15 -5 40 -2 55 l6 29 7 -35 c5 -19 5 -44 2 -55z m-77 44 c-1 -25 -26 -39
-26 -16 0 24 11 47 20 42 4 -2 7 -14 6 -26z m226 -11 c-7 -29 -32 -76 -32 -62
0 14 29 84 34 84 2 0 2 -10 -2 -22z m-275 -30 c-3 -8 -6 -5 -6 6 -1 11 2 17 5
13 3 -3 4 -12 1 -19z m243 3 c0 -12 -20 -25 -27 -18 -7 7 6 27 18 27 5 0 9 -4
9 -9z m-223 -23 c-3 -8 -6 -5 -6 6 -1 11 2 17 5 13 3 -3 4 -12 1 -19z m194
-104 c-12 -25 -24 -44 -26 -42 -7 6 18 82 29 90 20 13 18 -1 -3 -48z m-242
-27 c-5 -20 -12 -37 -15 -37 -6 0 5 59 13 73 11 18 12 -1 2 -36z m-52 -39 c-3
-8 -6 -5 -6 6 -1 11 2 17 5 13 3 -3 4 -12 1 -19z m273 8 c0 -3 -4 -8 -10 -11
-5 -3 -10 -1 -10 4 0 6 5 11 10 11 6 0 10 -2 10 -4z m-240 -32 c0 -2 -4 -13
-10 -26 -5 -13 -14 -42 -20 -65 -6 -24 -15 -43 -20 -43 -14 0 -13 67 1 72 9 3
16 23 18 54 1 9 31 17 31 8z"/>
<path d="M3816 5757 c-22 -12 -41 -28 -44 -34 -5 -19 11 -16 34 5 10 10 30 25
44 35 35 24 12 21 -34 -6z"/>
<path d="M4008 5703 c-27 -7 -22 -23 7 -23 16 0 25 6 25 15 0 15 -2 16 -32 8z"/>
<path d="M4080 5624 c0 -8 5 -12 10 -9 6 3 10 10 10 16 0 5 -4 9 -10 9 -5 0
-10 -7 -10 -16z"/>
<path d="M3896 5326 c-16 -53 -20 -83 -30 -191 -3 -27 -8 -65 -12 -84 -5 -23
-4 -32 3 -28 12 7 20 49 29 137 3 30 12 90 20 133 18 93 13 112 -10 33z"/>
<path d="M2326 6464 c-10 -14 -16 -28 -13 -30 2 -3 12 7 21 22 10 14 16 28 13
30 -2 3 -12 -7 -21 -22z"/>
<path d="M2290 6406 c0 -8 -3 -23 -6 -33 -3 -10 2 -7 10 7 18 30 20 40 6 40
-5 0 -10 -6 -10 -14z"/>
<path d="M2024 5949 c-3 -6 -1 -15 6 -19 9 -6 9 -13 1 -28 -14 -26 -14 -42 -1
-42 6 0 10 7 10 15 0 10 10 15 27 15 24 0 25 1 11 18 -8 9 -18 25 -21 35 -7
19 -23 22 -33 6z"/>
<path d="M2090 5920 c0 -5 5 -10 10 -10 6 0 10 5 10 10 0 6 -4 10 -10 10 -5 0
-10 -4 -10 -10z"/>
<path d="M2157 5786 c-12 -10 -15 -16 -7 -21 16 -10 40 2 40 20 0 18 -9 19
-33 1z"/>
<path d="M7373 5038 c-6 -7 -16 -34 -23 -60 -9 -37 -10 -54 0 -83 10 -30 10
-42 -1 -61 -10 -20 -10 -29 1 -49 7 -14 20 -25 29 -26 12 0 10 -4 -6 -16 -13
-8 -23 -23 -24 -32 0 -11 -3 -9 -9 7 -5 12 -13 22 -17 22 -12 0 -63 -126 -63
-155 0 -40 17 -21 25 28 4 23 13 53 20 66 18 35 29 9 15 -34 -14 -44 -6 -141
14 -160 38 -38 68 1 90 113 10 50 15 62 21 48 5 -11 4 -26 -3 -37 -7 -11 -9
-36 -5 -65 4 -33 3 -45 -5 -40 -6 3 -14 -3 -17 -15 -4 -12 -19 -33 -33 -46
-24 -23 -25 -26 -12 -61 7 -20 32 -56 56 -78 l43 -41 -50 -6 c-54 -7 -110 16
-90 36 8 8 -27 66 -73 119 -9 10 -18 30 -22 45 -4 23 -3 25 6 13 8 -11 13 -12
16 -3 3 7 11 10 19 7 7 -3 16 -1 20 5 3 6 -1 11 -10 11 -8 0 -20 11 -25 25
-12 33 -20 31 -47 -8 -28 -41 -28 -49 -2 -73 11 -10 27 -32 34 -49 7 -16 22
-40 34 -52 12 -13 18 -29 15 -38 -4 -9 1 -24 11 -35 9 -10 15 -23 14 -28 -5
-12 -121 -112 -130 -112 -4 0 -51 -53 -104 -117 -129 -156 -165 -193 -187
-193 -19 0 -24 -20 -8 -36 5 -5 5 -15 1 -23 -7 -10 -21 -4 -62 29 -30 23 -58
51 -63 61 -6 12 -16 17 -25 14 -20 -6 -105 78 -145 143 -14 23 -31 42 -37 42
-11 0 -10 -6 7 -67 5 -17 2 -23 -10 -23 -35 0 -13 -19 39 -35 30 -8 55 -20 55
-25 0 -13 -7 -13 -31 0 -13 7 -19 7 -19 0 0 -5 4 -10 9 -10 9 0 52 -34 201
-159 31 -27 37 -28 52 -15 14 14 17 14 26 -1 13 -24 43 -15 67 21 11 17 38 45
60 62 22 18 60 48 84 68 24 19 47 31 51 27 4 -4 13 -46 20 -93 14 -104 25
-153 55 -250 13 -41 29 -97 35 -125 12 -53 102 -272 129 -315 9 -14 27 -47 41
-74 29 -59 176 -197 258 -243 31 -18 76 -38 100 -44 23 -6 45 -15 48 -20 7
-12 -27 -152 -43 -170 -7 -8 -13 -20 -13 -26 0 -6 -7 -16 -15 -23 -8 -7 -15
-17 -15 -22 0 -6 7 -7 15 -4 8 3 22 9 30 12 11 4 15 0 15 -17 0 -13 4 -49 9
-79 27 -162 31 -207 29 -301 -3 -94 -4 -101 -16 -75 -7 16 -18 26 -26 23 -7
-3 -19 -1 -26 3 -26 16 -30 -1 -7 -33 52 -75 70 -92 99 -93 l29 -2 -5 157 c-3
86 -8 209 -10 273 -5 117 4 155 24 104 5 -14 11 -26 14 -26 2 0 4 37 4 83 1
46 6 96 12 111 5 15 8 31 6 35 -3 4 -1 12 3 19 5 9 22 7 67 -9 32 -11 64 -22
71 -23 7 -1 15 -5 19 -9 5 -5 -23 -107 -43 -155 -4 -10 3 -13 23 -11 45 3 64
0 64 -11 0 -6 -8 -10 -17 -8 -21 4 -21 8 1 -200 9 -85 21 -162 26 -172 12 -23
13 -60 2 -60 -5 0 -14 16 -22 35 -10 26 -17 32 -26 24 -8 -7 -14 -7 -19 1 -3
5 -11 10 -16 10 -17 0 3 -54 33 -88 15 -18 28 -42 28 -52 0 -15 7 -20 25 -20
40 0 45 24 35 166 -19 274 -20 364 -7 364 28 0 35 20 20 63 -15 44 -14 54 13
130 11 32 20 44 25 36 4 -7 6 -16 3 -20 -2 -4 0 -10 6 -14 6 -4 26 9 44 27 19
18 62 60 95 93 96 94 173 260 186 399 3 38 8 73 11 77 6 10 6 110 0 174 -10
102 -36 223 -66 306 -17 46 -40 107 -50 134 -40 110 -92 231 -106 246 -8 8
-14 22 -14 30 0 20 -50 97 -84 130 -22 23 -24 28 -10 33 8 3 25 6 36 6 17 0
18 3 8 15 -20 24 23 19 45 -5 13 -14 31 -20 59 -20 23 0 52 -7 65 -16 13 -10
37 -17 52 -16 16 0 29 -3 29 -8 0 -10 98 -145 134 -183 14 -16 33 -42 41 -58
9 -16 18 -29 20 -29 13 0 2 50 -15 70 -22 25 -26 50 -9 50 6 0 -9 24 -33 53
-25 28 -57 73 -72 99 -15 26 -38 58 -51 70 -21 20 -22 25 -9 39 22 24 6 29
-51 17 -35 -8 -69 -7 -120 1 -129 21 -186 34 -191 43 -3 5 -13 3 -21 -4 -14
-11 -15 -9 -9 20 6 25 4 32 -7 32 -8 0 -17 -7 -21 -15 -8 -22 -44 -18 -60 8
-8 12 -25 69 -37 127 -22 110 -57 185 -90 195 -27 9 -43 -3 -28 -21 15 -18 4
-45 -16 -38 -20 8 -45 -13 -46 -40 0 -21 0 -21 -9 1 -13 31 -50 27 -51 -7 -1
-22 -2 -21 -10 8 -8 27 -13 31 -24 22 -20 -17 -38 -2 -31 26 4 14 2 24 -4 24
-5 0 -10 -9 -10 -19 0 -34 -19 -33 -34 1 l-15 33 5 -37 c4 -26 2 -42 -9 -52
-13 -13 -16 -12 -25 10 -7 15 -8 24 -2 24 6 0 10 11 10 25 0 33 -16 32 -25 -2
-5 -21 -8 -24 -16 -12 -5 7 -9 24 -9 37 0 13 -6 22 -15 22 -10 0 -15 -10 -15
-32 -1 -30 -2 -31 -14 -15 -7 9 -11 28 -9 41 6 32 -13 42 -21 11 -4 -14 -11
-25 -17 -25 -6 0 -9 7 -5 15 3 9 0 15 -9 15 -7 0 -17 10 -21 22 l-7 23 -10
-25 -10 -25 -6 29 -6 30 -13 -29 c-10 -21 -16 -25 -24 -17 -9 9 -5 19 15 40
31 33 35 52 9 52 -34 0 -58 73 -38 112 18 34 1 55 -21 26z m97 -308 c0 -21
-27 3 -38 33 l-11 32 24 -28 c14 -15 25 -32 25 -37z m74 4 c10 -25 -1 -29 -14
-5 -6 12 -7 21 -1 21 5 0 12 -7 15 -16z m-148 -115 c-2 -67 -19 -113 -39 -106
-19 6 -11 154 10 186 15 24 16 24 24 5 4 -11 6 -49 5 -85z m561 49 c-3 -8 -6
-5 -6 6 -1 11 2 17 5 13 3 -3 4 -12 1 -19z m-317 -159 l9 -34 -19 24 c-11 13
-20 33 -20 44 0 30 18 9 30 -34z m148 39 c15 -15 16 -58 2 -58 -6 0 -10 6 -8
13 1 6 -3 22 -10 35 -14 24 -4 30 16 10z m-218 -10 c0 -7 3 -24 6 -38 l5 -25
-15 25 c-18 29 -20 50 -6 50 6 0 10 -6 10 -12z m370 -18 c0 -5 -5 -10 -11 -10
-5 0 -7 5 -4 10 3 6 8 10 11 10 2 0 4 -4 4 -10z m94 -15 c3 -8 1 -15 -4 -15
-6 0 -10 7 -10 15 0 8 2 15 4 15 2 0 6 -7 10 -15z m-125 -53 c23 -58 10 -63
-14 -5 -14 33 -21 72 -11 62 2 -2 14 -28 25 -57z m-459 3 c0 -5 -5 -3 -10 5
-5 8 -10 20 -10 25 0 6 5 3 10 -5 5 -8 10 -19 10 -25z m305 25 c3 -5 1 -10 -4
-10 -6 0 -11 5 -11 10 0 6 2 10 4 10 3 0 8 -4 11 -10z m205 -5 c0 -8 -2 -15
-4 -15 -2 0 -6 7 -10 15 -3 8 -1 15 4 15 6 0 10 -7 10 -15z m-271 -29 c7 -8 8
-17 3 -19 -4 -3 -13 3 -20 14 -14 22 0 26 17 5z m-50 -51 c0 -5 -6 -1 -14 9
-8 11 -15 27 -15 35 1 17 29 -26 29 -44z m447 8 c-4 -4 -14 1 -22 11 -22 31
-17 43 8 19 12 -13 18 -26 14 -30z m-245 0 c18 -29 18 -31 2 -29 -10 0 -24 12
-30 25 -28 51 -4 55 28 4z m149 16 c0 -11 -4 -17 -10 -14 -5 3 -10 13 -10 21
0 8 5 14 10 14 6 0 10 -9 10 -21z m-393 -4 c9 -25 -4 -29 -17 -6 -7 15 -7 21
0 21 6 0 13 -7 17 -15z m213 -100 c0 -8 -4 -15 -10 -15 -5 0 -10 5 -10 10 0 6
-16 26 -35 46 -19 19 -35 42 -35 50 0 10 17 -2 45 -30 25 -26 45 -53 45 -61z
m-22 84 c7 -12 11 -23 9 -25 -6 -6 -37 25 -37 37 0 16 15 10 28 -12z m-332
-33 c5 -22 4 -28 -7 -24 -14 5 -31 53 -21 63 9 8 20 -7 28 -39z m644 3 c0 -5
-7 -9 -15 -9 -9 0 -12 6 -9 15 6 15 24 11 24 -6z m64 4 c-3 -12 16 -39 52 -78
54 -58 114 -152 114 -181 0 -7 6 -17 13 -21 14 -9 47 -77 47 -97 0 -7 11 -34
25 -60 13 -25 32 -71 41 -102 9 -30 22 -58 30 -61 8 -3 14 -14 14 -24 0 -10
11 -51 24 -91 29 -88 43 -173 27 -163 -8 4 -11 -5 -9 -27 2 -45 11 -58 19 -28
5 18 7 11 8 -27 1 -43 -2 -51 -14 -47 -8 4 -15 11 -15 17 0 6 -3 8 -6 5 -9
-10 -12 -88 -3 -88 5 0 9 15 9 33 1 27 2 29 11 14 6 -10 8 -25 5 -33 -3 -8 0
-14 6 -14 8 0 9 -19 3 -62 -4 -35 -9 -85 -11 -111 -2 -26 -8 -55 -14 -65 -9
-13 -10 -10 -5 16 5 24 3 34 -9 38 -9 3 -16 14 -17 23 -1 9 -7 -3 -14 -26 -7
-22 -23 -51 -34 -62 -12 -12 -21 -29 -21 -39 0 -9 -9 -34 -20 -55 -11 -20 -16
-37 -11 -37 10 0 51 91 51 114 0 9 5 16 10 16 6 0 17 15 25 33 l14 32 1 -39
c0 -21 -9 -55 -19 -75 -23 -44 -61 -129 -61 -136 0 -4 6 -3 13 1 6 4 4 -2 -5
-13 -10 -11 -18 -24 -18 -29 0 -17 -96 -101 -123 -108 -22 -5 -27 -3 -31 16
-32 176 -88 367 -136 475 -16 34 -31 77 -35 95 -15 72 -89 287 -121 353 -19
39 -34 77 -34 86 0 9 -8 38 -18 65 -11 27 -29 78 -42 114 -12 36 -35 100 -51
143 -35 94 -35 104 -7 113 18 5 118 74 138 94 22 23 83 60 106 66 16 4 45 17
64 30 19 13 36 23 37 23 0 1 -1 -7 -3 -16z m-154 -9 c0 -8 -4 -12 -10 -9 -5 3
-10 10 -10 16 0 5 5 9 10 9 6 0 10 -7 10 -16z m-316 -10 c3 -8 2 -12 -4 -9 -6
3 -10 10 -10 16 0 14 7 11 14 -7z m235 -59 c0 -5 -9 1 -19 14 -11 13 -20 33
-20 45 1 17 4 14 20 -14 11 -19 19 -39 19 -45z m46 25 c-12 -19 -30 -5 -30 24
-1 26 -1 26 18 7 11 -10 16 -24 12 -31z m440 20 c7 -12 -2 -12 -30 0 -19 8
-19 9 2 9 12 1 25 -3 28 -9z m-855 -55 c0 -5 -5 -3 -10 5 -5 8 -10 20 -10 25
0 6 5 3 10 -5 5 -8 10 -19 10 -25z m307 20 c9 -24 -1 -27 -15 -5 -8 13 -8 20
-2 20 6 0 13 -7 17 -15z m-127 -47 c0 -17 -10 -6 -25 25 l-16 32 20 -25 c11
-14 21 -28 21 -32z m770 42 c0 -5 -7 -10 -15 -10 -8 0 -15 5 -15 10 0 6 7 10
15 10 8 0 15 -4 15 -10z m-926 -56 c4 -10 1 -14 -6 -12 -15 5 -23 28 -10 28 5
0 13 -7 16 -16z m-77 -34 c18 -14 30 -17 42 -10 12 6 44 3 97 -10 43 -10 87
-20 97 -22 21 -3 26 -16 88 -208 22 -69 45 -135 50 -148 5 -13 9 -29 9 -37 0
-8 11 -26 25 -41 13 -14 23 -30 20 -33 -4 -7 37 -130 53 -161 4 -8 25 -69 47
-135 21 -66 49 -144 63 -174 13 -29 25 -63 26 -75 10 -76 18 -126 26 -161 13
-57 20 -283 10 -311 -8 -20 -14 -22 -47 -17 -52 7 -102 21 -80 22 19 1 24 21
5 21 -6 0 -24 15 -39 33 -15 17 -30 29 -34 25 -5 -4 -3 -13 2 -20 22 -29 23
-48 2 -48 -14 0 -19 5 -16 14 4 9 -4 16 -24 20 -16 3 -29 11 -29 17 0 7 9 9
23 6 19 -5 18 -3 -8 18 -33 28 -54 33 -35 10 10 -12 10 -15 -1 -15 -25 0 -40
16 -33 34 7 19 -21 56 -44 56 -12 0 -12 -3 -2 -15 10 -12 10 -15 -1 -15 -8 0
-5 -6 7 -15 29 -22 7 -18 -55 11 -126 57 -155 79 -163 119 -2 13 -11 20 -25
20 -24 0 -83 77 -83 108 0 25 -32 85 -37 69 -5 -13 -53 51 -53 70 0 6 -17 47
-39 92 -21 44 -44 98 -50 118 -7 21 -17 40 -22 44 -5 3 -7 14 -4 25 4 12 -2
34 -14 54 -20 34 -46 144 -36 153 3 3 5 0 5 -6 0 -7 4 -12 8 -12 11 0 -3 97
-19 137 -16 39 -23 13 -10 -34 14 -48 13 -76 -1 -43 -16 40 -37 192 -28 215 6
15 9 7 15 -34 5 -34 10 -49 15 -40 5 7 4 21 -1 30 -5 10 -9 29 -9 43 0 16 -6
26 -15 26 -11 0 -15 12 -15 44 0 44 1 46 83 109 45 35 96 71 112 80 43 23 111
22 142 -3z m-367 -200 c0 -5 -7 -10 -16 -10 -8 0 -12 5 -9 10 3 6 10 10 16 10
5 0 9 -4 9 -10z m-100 -110 c-24 -15 -37 -11 -16 5 11 8 22 12 25 9 3 -3 -1
-9 -9 -14z m-355 -40 c3 -6 -1 -7 -9 -4 -18 7 -21 14 -7 14 6 0 13 -4 16 -10z
m315 -10 c0 -5 -5 -10 -11 -10 -5 0 -7 5 -4 10 3 6 8 10 11 10 2 0 4 -4 4 -10z
m-224 -77 c-7 -7 -52 28 -66 51 -8 12 4 7 29 -13 23 -19 40 -36 37 -38z m1705
-850 c-12 -20 -14 -14 -5 12 4 9 9 14 11 11 3 -2 0 -13 -6 -23z m-726 -133 c3
-6 -1 -7 -9 -4 -18 7 -21 14 -7 14 6 0 13 -4 16 -10z m105 -40 c0 -5 -2 -10
-4 -10 -3 0 -8 5 -11 10 -3 6 -1 10 4 10 6 0 11 -4 11 -10z m308 -242 c-2 -6
-10 -14 -16 -16 -7 -2 -10 2 -6 12 7 18 28 22 22 4z"/>
<path d="M8041 4213 c-30 -25 -39 -88 -16 -113 20 -23 50 -26 62 -7 21 33 40
105 31 121 -12 21 -50 21 -77 -1z"/>
<path d="M8278 3795 c-13 -29 1 -72 28 -82 25 -9 61 13 68 43 14 54 -73 89
-96 39z"/>
<path d="M8416 3754 c-9 -24 -7 -34 8 -34 20 0 27 26 12 40 -10 8 -15 7 -20
-6z"/>
<path d="M8480 3634 c0 -8 5 -12 10 -9 6 3 10 10 10 16 0 5 -4 9 -10 9 -5 0
-10 -7 -10 -16z"/>
<path d="M8496 3578 c-9 -35 -7 -76 4 -83 6 -4 10 15 10 49 0 60 -4 70 -14 34z"/>
<path d="M8470 3453 c0 -10 -3 -29 -6 -43 -5 -18 -4 -22 4 -15 17 15 27 75 13
75 -6 0 -11 -8 -11 -17z"/>
<path d="M8140 3374 c-21 -54 2 -132 46 -161 19 -12 24 -11 47 13 20 20 27 37
27 66 0 52 -15 77 -55 94 -47 19 -54 18 -65 -12z"/>
<path d="M8350 3326 c-16 -20 -9 -60 12 -64 25 -5 42 32 26 58 -15 24 -22 25
-38 6z"/>
<path d="M8454 3286 c-4 -10 -2 -22 4 -28 8 -8 13 -7 18 6 4 10 2 22 -4 28 -8
8 -13 7 -18 -6z"/>
<path d="M8517 3243 c-3 -16 -1 -35 4 -43 6 -10 8 -2 9 28 0 48 -5 55 -13 15z"/>
<path d="M8458 3193 c-5 -36 -3 -51 6 -42 10 10 17 79 8 79 -5 0 -12 -17 -14
-37z"/>
<path d="M8416 3108 c-12 -37 -13 -59 -5 -64 5 -3 9 -4 9 -2 0 2 4 18 9 35 6
20 6 35 0 38 -5 4 -11 0 -13 -7z"/>
<path d="M8361 2954 c-13 -29 -6 -47 9 -24 9 14 14 50 7 50 -2 0 -9 -12 -16
-26z"/>
<path d="M8382 2838 c-21 -22 -22 -22 -22 -3 0 16 -3 14 -15 -9 -19 -35 -19
-35 3 -33 11 0 29 16 41 34 25 39 24 41 -7 11z"/>
<path d="M7320 4120 c0 -5 -7 -10 -15 -10 -10 0 -15 -11 -15 -35 0 -19 5 -35
10 -35 6 0 10 13 10 30 0 22 4 28 15 24 10 -4 15 0 15 15 0 12 -4 21 -10 21
-5 0 -10 -4 -10 -10z"/>
<path d="M7461 4111 c-24 -43 49 -128 98 -116 34 9 43 24 36 60 -8 41 -33 63
-82 71 -35 5 -43 3 -52 -15z"/>
<path d="M7660 4121 c0 -5 5 -13 10 -16 6 -3 10 -2 10 4 0 5 -4 13 -10 16 -5
3 -10 2 -10 -4z"/>
<path d="M7250 4051 c0 -17 2 -31 4 -31 8 0 13 51 5 56 -5 3 -9 -9 -9 -25z"/>
<path d="M7200 4050 c0 -5 5 -10 10 -10 6 0 10 5 10 10 0 6 -4 10 -10 10 -5 0
-10 -4 -10 -10z"/>
<path d="M7200 4015 c-7 -9 -10 -18 -6 -22 3 -3 6 0 7 8 1 8 5 3 9 -11 8 -24
8 -23 9 8 1 36 -1 38 -19 17z"/>
<path d="M7295 3965 c3 -22 11 -44 17 -50 6 -7 7 3 3 30 -4 22 -12 45 -17 50
-7 7 -8 -3 -3 -30z"/>
<path d="M7647 3994 c-8 -8 3 -34 14 -34 11 0 12 27 0 34 -4 3 -11 3 -14 0z"/>
<path d="M7359 3974 c-3 -26 4 -70 13 -79 6 -7 8 5 4 33 -4 40 -15 68 -17 46z"/>
<path d="M7596 3951 c-4 -5 -2 -12 3 -15 5 -4 12 -2 15 3 4 5 2 12 -3 15 -5 4
-12 2 -15 -3z"/>
<path d="M7474 3934 c3 -9 6 -20 6 -25 0 -5 7 -9 15 -9 18 0 19 9 1 33 -16 21
-30 22 -22 1z"/>
<path d="M7260 3920 c-6 -37 8 -110 22 -110 6 0 7 10 3 28 -4 15 -11 43 -15
62 -4 19 -9 28 -10 20z"/>
<path d="M7330 3911 c0 -5 5 -13 10 -16 6 -3 10 -2 10 4 0 5 -4 13 -10 16 -5
3 -10 2 -10 -4z"/>
<path d="M7300 3878 c0 -9 5 -20 11 -23 17 -11 20 0 4 21 -13 17 -14 17 -15 2z"/>
<path d="M7230 3851 c0 -6 5 -13 10 -16 6 -3 10 1 10 9 0 9 -4 16 -10 16 -5 0
-10 -4 -10 -9z"/>
<path d="M7488 3848 c-6 -17 1 -38 13 -38 5 0 9 11 9 25 0 26 -14 34 -22 13z"/>
<path d="M7300 3793 c0 -20 17 -50 24 -43 2 3 2 17 -1 33 -6 30 -23 37 -23 10z"/>
<path d="M7264 3737 c-1 -37 1 -45 6 -27 11 34 12 80 3 80 -5 0 -8 -24 -9 -53z"/>
<path d="M7342 3778 c6 -18 28 -21 28 -4 0 9 -7 16 -16 16 -9 0 -14 -5 -12
-12z"/>
<path d="M7400 3751 c0 -11 5 -23 10 -26 8 -5 13 12 9 30 -4 16 -19 13 -19 -4z"/>
<path d="M7330 3693 c0 -23 15 -39 24 -25 3 5 -1 18 -9 28 -14 18 -14 18 -15
-3z"/>
<path d="M7475 3698 c-4 -9 -1 -27 7 -40 l13 -23 3 22 c2 12 -1 30 -7 40 -9
17 -10 17 -16 1z"/>
<path d="M7260 3675 c0 -15 18 -40 24 -34 3 3 -1 14 -9 25 -8 10 -14 15 -15 9z"/>
<path d="M7397 3674 c-8 -8 3 -34 14 -34 11 0 12 27 0 34 -4 3 -11 3 -14 0z"/>
<path d="M7310 3638 c0 -25 12 -58 20 -53 9 6 1 53 -11 61 -5 3 -9 -1 -9 -8z"/>
<path d="M7274 3590 c3 -14 6 -28 6 -32 0 -5 5 -8 10 -8 15 0 12 24 -6 46 -15
18 -15 18 -10 -6z"/>
<path d="M7380 3586 c0 -14 5 -26 10 -26 6 0 10 9 10 19 0 11 -4 23 -10 26 -6
4 -10 -5 -10 -19z"/>
<path d="M7360 3543 c0 -18 5 -33 10 -33 13 0 13 30 0 50 -7 11 -10 7 -10 -17z"/>
<path d="M7506 3554 c-19 -49 8 -94 56 -94 35 0 52 44 31 83 -11 21 -21 27
-47 27 -22 0 -36 -6 -40 -16z"/>
<path d="M7667 3524 c-7 -8 4 -44 14 -44 12 0 12 37 0 44 -4 3 -11 3 -14 0z"/>
<path d="M7327 3496 c3 -15 10 -29 15 -32 6 -4 7 2 3 17 -10 35 -23 45 -18 15z"/>
<path d="M7790 3501 c0 -12 5 -21 10 -21 6 0 10 6 10 14 0 8 -4 18 -10 21 -5
3 -10 -3 -10 -14z"/>
<path d="M7735 3480 c-7 -12 2 -30 16 -30 12 0 12 27 0 35 -5 3 -12 1 -16 -5z"/>
<path d="M7310 3438 c0 -9 5 -20 10 -23 13 -8 13 5 0 25 -8 13 -10 13 -10 -2z"/>
<path d="M7382 3433 c-13 -25 -4 -43 19 -43 25 0 35 25 19 45 -16 20 -27 19
-38 -2z"/>
<path d="M7502 3409 c2 -7 10 -15 17 -17 8 -3 12 1 9 9 -2 7 -10 15 -17 17 -8
3 -12 -1 -9 -9z"/>
<path d="M7665 3373 c8 -32 13 -39 21 -30 10 9 -5 57 -17 57 -7 0 -9 -10 -4
-27z"/>
<path d="M7360 3341 c0 -11 5 -23 10 -26 6 -3 10 3 10 14 0 11 -4 23 -10 26
-5 3 -10 -3 -10 -14z"/>
<path d="M7555 3321 c6 -38 12 -48 22 -38 3 4 -1 22 -11 40 l-17 32 6 -34z"/>
<path d="M7732 3333 c5 -25 28 -28 28 -4 0 12 -6 21 -16 21 -9 0 -14 -7 -12
-17z"/>
<path d="M7460 3333 c0 -5 5 -15 10 -23 8 -12 10 -11 10 8 0 12 -4 22 -10 22
-5 0 -10 -3 -10 -7z"/>
<path d="M7430 3318 c0 -18 18 -34 28 -24 3 4 -2 14 -11 23 -16 16 -17 16 -17
1z"/>
<path d="M7390 3311 c0 -5 5 -13 10 -16 6 -3 10 -2 10 4 0 5 -4 13 -10 16 -5
3 -10 2 -10 -4z"/>
<path d="M7923 3298 c-6 -7 -16 -30 -22 -50 -10 -31 -9 -42 5 -70 22 -42 42
-57 76 -58 55 0 61 65 12 147 -25 43 -52 55 -71 31z"/>
<path d="M7536 3238 c8 -28 12 -33 20 -25 9 8 -6 47 -17 47 -6 0 -7 -10 -3
-22z"/>
<path d="M7730 3246 c0 -9 5 -16 10 -16 6 0 10 4 10 9 0 6 -4 13 -10 16 -5 3
-10 -1 -10 -9z"/>
<path d="M7646 3235 c4 -8 10 -15 15 -15 5 0 9 7 9 15 0 8 -7 15 -15 15 -9 0
-12 -6 -9 -15z"/>
<path d="M7420 3222 c0 -11 7 -25 15 -32 12 -10 15 -9 15 8 0 11 -7 25 -15 32
-12 10 -15 9 -15 -8z"/>
<path d="M7540 3166 c0 -7 7 -19 15 -26 16 -13 20 -3 9 24 -8 20 -24 21 -24 2z"/>
<path d="M7751 3137 c-24 -24 -5 -67 30 -67 11 0 20 11 24 31 4 17 5 32 2 35
-10 11 -45 12 -56 1z"/>
<path d="M7630 3098 c0 -18 18 -34 28 -24 3 4 -2 14 -11 23 -16 16 -17 16 -17
1z"/>
<path d="M7530 3081 c0 -6 5 -13 10 -16 6 -3 10 1 10 9 0 9 -4 16 -10 16 -5 0
-10 -4 -10 -9z"/>
<path d="M7861 3030 c-1 -28 14 -57 22 -44 3 5 -1 23 -8 39 -13 29 -13 29 -14
5z"/>
<path d="M7606 3014 c-7 -19 2 -37 15 -29 12 8 12 45 0 45 -5 0 -12 -7 -15
-16z"/>
<path d="M7672 2996 c6 -14 15 -26 20 -26 10 0 -7 36 -22 45 -6 4 -5 -5 2 -19z"/>
<path d="M8000 2986 c0 -9 5 -16 10 -16 6 0 10 4 10 9 0 6 -4 13 -10 16 -5 3
-10 -1 -10 -9z"/>
<path d="M7950 2966 c0 -9 5 -16 10 -16 6 0 10 4 10 9 0 6 -4 13 -10 16 -5 3
-10 -1 -10 -9z"/>
<path d="M7761 2950 c0 -16 22 -50 33 -50 12 0 6 18 -14 41 -13 17 -19 19 -19
9z"/>
<path d="M7631 2924 c17 -21 49 -37 49 -25 0 5 -14 16 -31 25 -28 14 -30 14
-18 0z"/>
<path d="M7720 2871 c0 -6 9 -15 20 -21 13 -7 20 -7 20 -1 0 6 -9 15 -20 21
-13 7 -20 7 -20 1z"/>
<path d="M7890 2852 c0 -13 23 -32 39 -32 11 0 10 4 -4 20 -19 21 -35 26 -35
12z"/>
<path d="M8033 2747 c5 -15 37 -22 37 -9 0 5 -9 12 -21 15 -13 3 -19 1 -16 -6z"/>
<path d="M7896 4999 c-5 -29 -18 -53 -41 -76 -19 -19 -35 -38 -35 -42 0 -4 12
-14 26 -21 14 -8 32 -27 40 -43 12 -23 18 -26 29 -17 16 13 5 45 -17 53 -10 3
-9 11 3 33 22 40 34 154 15 154 -8 0 -16 -16 -20 -41z"/>
<path d="M7635 4929 c-10 -15 1 -23 20 -15 9 3 13 10 10 16 -8 13 -22 13 -30
-1z"/>
<path d="M7710 4926 c0 -9 7 -16 16 -16 9 0 14 5 12 12 -6 18 -28 21 -28 4z"/>
<path d="M7522 4908 c-18 -18 -15 -28 9 -28 28 0 61 19 54 31 -9 13 -49 11
-63 -3z"/>
<path d="M7775 4900 c3 -5 13 -10 21 -10 8 0 14 5 14 10 0 6 -9 10 -21 10 -11
0 -17 -4 -14 -10z"/>
<path d="M8896 4335 c-4 -10 -17 -15 -38 -14 -69 5 -94 -34 -78 -121 14 -72
12 -130 -4 -130 -8 0 -17 6 -19 13 -4 7 -6 6 -6 -5 -1 -9 13 -30 30 -48 19
-19 29 -37 26 -49 -2 -9 -1 -44 4 -77 8 -64 14 -118 29 -289 20 -222 38 -390
45 -407 4 -10 12 -18 18 -18 9 0 5 88 -8 170 -11 75 -15 103 -21 185 -4 50 -8
99 -9 110 -6 57 -15 203 -20 300 -4 82 -9 111 -20 117 -11 7 -13 20 -9 51 3
23 1 67 -4 97 -13 66 -1 81 56 73 29 -4 41 0 56 15 19 21 15 42 -9 42 -7 0
-16 -7 -19 -15z"/>
<path d="M3327 4333 c-12 -11 -7 -50 7 -62 19 -16 27 0 20 38 -6 30 -14 37
-27 24z"/>
<path d="M1472 4288 c-5 -7 -24 -43 -42 -80 -34 -74 -54 -151 -101 -398 -38
-204 -68 -305 -101 -353 -11 -15 -24 -42 -29 -60 -12 -44 -105 -204 -165 -285
-27 -36 -58 -81 -69 -99 -26 -43 -146 -165 -207 -210 -27 -19 -48 -38 -48 -41
0 -4 -32 -29 -71 -57 -92 -65 -135 -102 -128 -109 9 -10 102 40 138 73 18 17
42 31 52 31 10 0 19 4 19 8 0 4 12 15 28 24 66 40 237 230 315 350 81 125 86
133 142 242 102 198 170 421 200 661 7 54 28 122 69 224 14 36 26 71 26 78 0
16 -14 17 -28 1z"/>
<path d="M2095 4237 c-7 -17 -19 -70 -25 -117 -6 -47 -18 -119 -26 -160 -30
-155 -35 -198 -26 -232 5 -18 7 -97 5 -175 -2 -85 0 -143 6 -143 5 0 11 -103
14 -247 2 -137 9 -264 15 -283 5 -19 13 -48 17 -64 13 -60 23 -9 15 74 -9 79
-17 328 -25 785 -3 142 0 203 11 240 17 63 34 147 40 204 3 25 9 64 15 88 15
68 -11 90 -36 30z"/>
<path d="M3336 4241 c-3 -5 -8 -60 -11 -122 -3 -63 -8 -134 -11 -159 -6 -58
-62 -230 -80 -251 -8 -8 -14 -20 -14 -26 0 -6 -7 -16 -16 -24 -25 -21 -46 -68
-36 -85 12 -21 -65 -175 -113 -224 -21 -22 -36 -43 -32 -46 23 -23 -141 -194
-234 -244 -65 -34 -80 -50 -49 -50 44 0 215 132 285 220 20 25 71 104 132 203
47 74 106 197 99 204 -3 3 -11 -7 -17 -23 -6 -16 -13 -24 -16 -18 -7 20 16 66
31 61 10 -4 21 14 39 66 48 143 66 243 66 390 1 124 -5 158 -23 128z"/>
<path d="M3923 4183 c-3 -10 -12 -33 -19 -51 -20 -50 -34 -182 -34 -325 0 -71
-4 -137 -10 -147 -5 -10 -13 -96 -16 -192 -5 -143 -11 -192 -34 -283 -69 -271
-193 -459 -340 -514 -66 -25 -155 -41 -197 -35 -35 5 -43 3 -52 -15 -10 -18
-8 -21 15 -27 15 -4 41 -2 59 5 42 15 66 14 37 -2 -28 -16 -19 -27 22 -27 l31
-1 -25 -14 c-30 -16 -122 -17 -132 -1 -5 8 -8 7 -8 -1 0 -7 -8 -13 -18 -13
-10 0 -27 -7 -38 -15 -31 -24 0 -36 84 -33 74 3 93 -4 45 -17 -16 -5 -35 -10
-43 -13 -8 -2 -58 -6 -110 -9 -52 -3 -99 -9 -105 -14 -5 -5 -19 -9 -32 -9 -12
0 -27 -9 -33 -21 -16 -30 -2 -38 20 -11 21 26 36 28 44 7 4 -10 20 -15 51 -15
28 0 44 4 40 10 -3 6 -23 10 -43 11 -56 1 -12 15 70 23 37 3 87 10 110 16 50
13 90 40 71 47 -26 10 -12 29 30 41 50 13 107 47 107 63 0 11 -6 10 -62 -8
-12 -3 -18 0 -18 9 0 8 21 22 49 31 80 29 179 105 227 174 43 61 113 191 134
246 25 68 60 251 66 346 8 123 23 152 41 82 7 -25 12 -68 13 -94 0 -28 6 -54
14 -62 19 -20 30 -182 22 -325 -6 -106 -11 -141 -30 -210 -7 -25 -7 -25 8 2
29 50 46 193 41 338 -6 179 -13 265 -26 314 -30 116 -56 413 -40 466 5 19 14
76 20 125 6 50 14 107 17 128 6 39 -11 54 -23 20z m-613 -1663 c0 -11 -39 -20
-89 -20 -52 0 -45 17 9 22 61 6 80 6 80 -2z"/>
<path d="M5920 4130 c6 -10 26 -26 44 -35 55 -26 66 -45 68 -117 2 -58 -1 -70
-31 -117 -32 -49 -33 -53 -16 -71 30 -33 215 -80 364 -92 3 0 17 3 29 7 22 7
23 12 17 52 -14 94 56 203 130 203 19 0 35 5 35 10 0 6 -21 10 -47 10 -92 0
-289 30 -358 54 -77 26 -150 63 -191 95 -35 28 -59 28 -44 1z m234 -152 c-3
-13 -10 -30 -15 -38 -7 -13 -8 -13 -9 0 0 27 12 60 22 60 5 0 6 -10 2 -22z
m-44 -116 c0 -5 -11 -22 -25 -38 -14 -16 -25 -32 -25 -36 0 -5 -7 -8 -15 -8
-11 0 -4 14 22 45 39 47 43 50 43 37z"/>
<path d="M1877 4073 c-4 -3 -7 -11 -7 -17 0 -6 5 -5 12 2 6 6 9 14 7 17 -3 3
-9 2 -12 -2z"/>
<path d="M1878 4003 c-18 -22 -33 -119 -19 -128 6 -3 13 11 16 32 4 21 11 53
16 72 10 42 7 47 -13 24z"/>
<path d="M3775 3928 c-2 -7 -6 -29 -9 -48 -2 -19 -11 -71 -20 -115 -9 -44 -16
-98 -16 -120 0 -36 -20 -124 -52 -225 -6 -19 -24 -56 -41 -83 -16 -26 -27 -51
-23 -54 7 -8 4 -12 47 62 55 94 91 215 105 347 10 100 24 203 30 226 7 23 -13
33 -21 10z"/>
<path d="M3376 3703 c-2 -10 -10 -38 -16 -63 -6 -25 -31 -82 -56 -127 -49 -92
-54 -109 -24 -91 11 7 20 17 20 23 0 5 18 46 39 90 35 69 68 165 61 173 -11
12 -19 10 -24 -5z"/>
<path d="M1575 3680 c-8 -16 -15 -36 -15 -45 0 -14 3 -14 23 2 15 11 24 28 24
45 0 36 -13 36 -32 -2z"/>
<path d="M1762 3615 c-14 -30 -15 -55 -4 -55 10 0 32 45 32 65 0 23 -16 17
-28 -10z"/>
<path d="M3477 3572 c-5 -57 -33 -129 -65 -165 -19 -22 -10 -32 15 -16 40 24
93 181 77 223 -12 31 -21 15 -27 -42z"/>
<path d="M3585 3570 c-30 -58 -32 -74 -5 -42 11 13 21 18 25 12 8 -14 25 -3
25 16 0 8 -4 12 -10 9 -5 -3 -10 -2 -10 4 0 5 5 13 10 16 6 3 10 13 10 21 0
29 -20 13 -45 -36z"/>
<path d="M1629 3583 c-1 -10 -3 -36 -5 -58 -9 -130 -26 -218 -46 -242 -6 -8
-7 -13 0 -13 5 0 15 6 21 14 27 32 65 316 42 316 -6 0 -12 -8 -12 -17z"/>
<path d="M1536 3470 c-10 -30 -29 -78 -42 -106 -45 -96 -42 -157 4 -76 26 47
65 185 60 215 -3 16 -9 7 -22 -33z"/>
<path d="M1897 3506 c-6 -15 1 -26 15 -26 11 0 10 27 -1 34 -5 3 -11 0 -14 -8z"/>
<path d="M1896 3438 c-2 -7 -9 -32 -16 -55 -11 -35 -11 -50 0 -83 7 -22 16
-40 19 -40 4 0 7 43 8 95 1 88 -2 114 -11 83z"/>
<path d="M1686 3374 c-3 -9 -6 -30 -5 -47 l1 -32 13 30 c16 35 19 65 6 65 -5
0 -12 -7 -15 -16z"/>
<path d="M3492 3314 c-13 -20 -20 -39 -17 -42 8 -8 55 48 55 66 0 22 -14 13
-38 -24z"/>
<path d="M3688 3308 c-17 -59 -64 -134 -99 -159 -18 -12 -28 -27 -25 -35 6
-15 -60 -54 -92 -54 -11 0 -25 -7 -32 -15 -23 -28 19 -30 67 -4 80 43 185 185
208 282 12 45 -13 31 -27 -15z"/>
<path d="M3362 3328 c-14 -14 -16 -48 -3 -48 5 0 14 14 20 30 10 31 4 39 -17
18z"/>
<path d="M1740 3320 c0 -5 5 -10 10 -10 6 0 10 5 10 10 0 6 -4 10 -10 10 -5 0
-10 -4 -10 -10z"/>
<path d="M4006 3283 c9 -51 32 -130 51 -173 48 -110 84 -309 67 -376 -8 -32
-24 -20 -25 19 0 32 0 32 -10 7 -13 -31 -18 -110 -8 -110 5 0 6 -7 3 -15 -13
-34 14 -12 34 28 52 103 45 238 -22 415 -19 52 -40 117 -46 145 -16 70 -27 97
-40 97 -7 0 -9 -13 -4 -37z"/>
<path d="M3191 3292 c0 -8 -22 -34 -48 -58 -46 -44 -53 -65 -14 -45 31 17 73
78 68 98 -3 10 -5 12 -6 5z"/>
<path d="M1389 3198 c-19 -29 -37 -55 -42 -56 -7 -4 -67 -116 -67 -127 0 -3 5
-5 10 -5 6 0 20 19 31 43 10 23 42 70 69 105 47 59 62 92 41 92 -5 0 -24 -24
-42 -52z"/>
<path d="M1884 3189 c8 -26 12 -45 21 -102 7 -47 25 -39 24 11 0 48 -20 104
-38 110 -11 4 -12 -1 -7 -19z"/>
<path d="M1731 3178 c-5 -13 -12 -47 -16 -77 -6 -42 -4 -52 6 -49 8 3 15 24
17 49 2 24 8 51 13 61 12 22 11 38 -1 38 -6 0 -14 -10 -19 -22z"/>
<path d="M1437 3183 c-4 -3 -7 -16 -7 -27 0 -39 -22 -99 -44 -121 -34 -34 -86
-108 -86 -122 0 -7 -16 -33 -35 -59 -19 -25 -35 -53 -35 -63 0 -10 -9 -26 -20
-36 -11 -10 -41 -52 -67 -94 -57 -92 -52 -85 -103 -143 -30 -34 -36 -46 -23
-44 18 3 201 241 202 263 1 7 9 17 19 22 10 6 39 51 63 100 24 50 47 91 51 91
22 0 -52 -166 -81 -184 -6 -4 -7 -14 -4 -22 3 -9 -3 -27 -14 -42 -11 -15 -27
-41 -36 -59 -9 -17 -30 -39 -45 -49 -16 -9 -37 -33 -47 -53 -10 -20 -33 -52
-51 -71 -32 -36 -44 -100 -18 -100 18 0 26 30 9 36 -11 4 -4 17 27 50 22 24
52 58 67 76 14 17 34 40 44 50 28 30 97 147 97 166 0 10 5 23 10 28 12 12 47
75 85 154 56 116 86 298 42 253z"/>
<path d="M3381 3139 c-27 -36 -18 -55 10 -20 16 20 26 51 16 51 -2 0 -13 -14
-26 -31z"/>
<path d="M3221 3021 c-23 -27 -37 -52 -32 -55 10 -6 91 77 91 94 0 21 -20 8
-59 -39z"/>
<path d="M1704 3029 c-4 -8 -11 -35 -14 -62 -6 -40 -4 -47 9 -45 11 2 18 19
22 48 7 50 -2 83 -17 59z"/>
<path d="M2855 3011 c-31 -17 -67 -29 -95 -30 -92 -5 -110 -8 -128 -24 -10
-10 -26 -17 -35 -17 -30 0 -27 -18 5 -25 24 -6 35 -3 45 11 7 10 13 13 13 7 0
-33 256 60 268 96 6 19 -21 12 -73 -18z"/>
<path d="M3410 3005 c0 -8 4 -15 10 -15 5 0 7 7 4 15 -4 8 -8 15 -10 15 -2 0
-4 -7 -4 -15z"/>
<path d="M3607 2950 c-29 -60 -84 -123 -130 -146 -16 -9 -27 -17 -25 -20 10
-10 75 21 105 49 39 36 87 127 81 153 -3 14 -12 3 -31 -36z"/>
<path d="M1950 2946 c0 -3 5 -17 12 -33 6 -15 14 -75 17 -133 5 -95 8 -105 24
-102 14 3 17 -1 13 -16 -4 -11 0 -24 9 -32 8 -7 15 -22 15 -34 0 -11 11 -45
25 -74 14 -30 25 -59 25 -65 1 -16 39 -65 40 -51 0 14 -26 80 -46 116 -8 16
-20 56 -25 90 -12 73 -25 102 -45 94 -11 -4 -14 8 -16 62 0 37 0 77 1 89 2 28
-25 93 -38 93 -6 0 -11 -2 -11 -4z"/>
<path d="M3156 2898 c-26 -27 -46 -51 -44 -54 6 -6 78 51 95 76 28 39 -4 26
-51 -22z"/>
<path d="M4003 2852 c-2 -112 -23 -208 -67 -307 -29 -68 -107 -200 -130 -220
-23 -21 -60 -69 -43 -56 13 11 21 11 29 3 9 -9 6 -18 -11 -36 -13 -14 -27 -24
-31 -23 -4 1 -20 -13 -36 -32 l-29 -35 30 19 c41 26 76 61 124 125 48 64 47
77 -2 23 -49 -53 -56 -37 -10 23 21 27 45 60 52 74 51 87 75 138 102 216 26
74 32 109 37 207 2 65 1 117 -4 117 -5 0 -10 -44 -11 -98z"/>
<path d="M2785 2914 c-22 -13 -71 -35 -110 -50 -118 -45 -117 -60 1 -20 83 28
126 49 144 71 20 25 8 24 -35 -1z"/>
<path d="M3971 2873 c-2 -42 -61 -207 -96 -272 -45 -83 -40 -89 7 -8 43 73
101 246 95 279 l-4 23 -2 -22z"/>
<path d="M1690 2836 c0 -31 -19 -114 -31 -138 -5 -10 -9 -45 -9 -79 l0 -60
-32 22 c-19 14 -28 16 -20 7 11 -13 10 -28 -3 -83 -12 -52 -13 -71 -4 -82 17
-20 26 -2 35 64 7 61 24 71 25 16 0 -21 2 -48 3 -61 2 -12 -3 -34 -11 -49 -17
-33 -17 -44 2 -37 17 7 19 0 15 -71 -1 -27 1 -47 6 -43 4 4 7 21 6 38 0 20 4
30 14 30 8 0 14 -6 14 -14 0 -8 7 -16 15 -20 8 -3 15 -1 15 4 0 15 -23 60 -30
60 -12 0 -33 207 -27 262 9 74 11 84 24 100 16 19 20 151 5 156 -7 2 -12 -7
-12 -22z"/>
<path d="M3262 2780 c-29 -39 -57 -68 -62 -65 -6 4 -10 1 -10 -4 0 -35 70 27
124 112 37 56 -1 25 -52 -43z"/>
<path d="M3395 2829 c-4 -12 -28 -45 -54 -72 -25 -28 -36 -45 -25 -39 44 23
107 112 91 129 -3 2 -8 -6 -12 -18z"/>
<path d="M3831 2818 c2 -63 -69 -186 -138 -239 -17 -13 -36 -32 -43 -42 -21
-34 22 -2 81 60 83 87 137 191 123 235 -9 29 -23 21 -23 -14z"/>
<path d="M2542 2818 c6 -18 28 -21 28 -4 0 9 -7 16 -16 16 -9 0 -14 -5 -12
-12z"/>
<path d="M3182 2771 c-18 -22 -41 -42 -52 -46 -23 -7 -27 -25 -6 -25 15 0 96
86 96 101 0 15 -5 10 -38 -30z"/>
<path d="M2124 2769 c3 -16 22 -66 41 -110 19 -44 35 -90 35 -102 0 -33 11
-67 21 -67 5 0 9 9 9 20 0 16 13 7 62 -41 49 -48 59 -62 48 -69 -9 -6 -19 -5
-24 0 -6 6 -19 10 -30 10 -20 0 -19 -2 4 -20 15 -12 41 -20 66 -20 47 0 59 -7
43 -27 -9 -10 -8 -13 3 -13 24 0 82 21 97 36 22 20 9 25 -24 8 -22 -11 -30
-12 -36 -2 -11 18 -4 24 46 37 25 6 45 16 45 21 0 13 -7 12 -54 -4 -21 -7 -42
-19 -46 -26 -6 -9 -14 -8 -34 5 -46 30 -88 74 -81 85 3 5 34 10 68 11 67 1
118 11 102 21 -8 4 -117 -4 -172 -13 -5 -1 -13 -1 -20 0 -13 1 -103 132 -103
150 0 32 -44 141 -58 141 -11 0 -13 -7 -8 -31z"/>
<path d="M2491 2775 c9 -9 23 -13 33 -9 14 5 15 9 4 15 -7 5 -22 9 -33 9 -17
0 -18 -2 -4 -15z"/>
<path d="M2573 2783 c9 -2 23 -2 30 0 6 3 -1 5 -18 5 -16 0 -22 -2 -12 -5z"/>
<path d="M2625 2770 c-3 -5 -2 -10 4 -10 5 0 13 5 16 10 3 6 2 10 -4 10 -5 0
-13 -4 -16 -10z"/>
<path d="M2946 2755 c-27 -41 -134 -115 -167 -115 -16 0 -29 -4 -29 -10 0 -21
69 -10 102 17 51 41 128 116 128 125 0 16 -18 7 -34 -17z"/>
<path d="M1088 2748 c-20 -25 -23 -38 -9 -38 11 0 41 39 41 52 0 15 -15 8 -32
-14z"/>
<path d="M2565 2750 c-8 -13 -81 -47 -115 -54 -14 -2 -7 -2 15 0 22 3 66 6 98
7 l57 3 -49 -31 c-28 -18 -81 -40 -118 -50 -66 -17 -103 -35 -72 -35 55 0 249
91 249 117 0 7 6 10 14 7 15 -6 62 33 52 43 -4 5 -56 -15 -90 -35 -4 -2 -5 5
-1 17 5 17 2 21 -14 21 -11 0 -23 -5 -26 -10z m25 -30 c0 -5 -8 -10 -17 -10
-15 0 -16 2 -3 10 19 12 20 12 20 0z"/>
<path d="M5050 2732 c-6 -2 -10 -10 -10 -18 0 -10 14 -14 54 -14 49 0 77 12
63 27 -6 6 -92 10 -107 5z"/>
<path d="M4488 2713 c-9 -2 -19 -11 -22 -19 -4 -11 4 -14 38 -14 56 0 76 8 69
26 -5 13 -47 17 -85 7z"/>
<path d="M995 2629 c-75 -88 -84 -123 -13 -49 59 61 98 108 98 115 0 20 -34
-6 -85 -66z"/>
<path d="M2490 2679 c-14 -6 -37 -9 -52 -6 -16 2 -28 0 -28 -5 0 -13 62 -9 95
7 35 15 22 19 -15 4z"/>
<path d="M1742 2555 c2 -58 6 -105 10 -105 4 0 9 3 10 8 10 52 1 202 -13 202
-5 0 -8 -47 -7 -105z"/>
<path d="M3818 2624 c-6 -16 -20 -41 -31 -56 -10 -16 -15 -28 -10 -28 11 0 66
100 59 107 -3 3 -11 -7 -18 -23z"/>
<path d="M4033 2627 c-7 -15 -19 -27 -28 -27 -8 0 -15 -4 -15 -10 0 -17 26
-11 44 9 10 11 16 27 14 37 -2 14 -6 12 -15 -9z"/>
<path d="M3610 2599 c-19 -16 -29 -29 -23 -29 15 0 70 47 63 53 -3 3 -21 -8
-40 -24z"/>
<path d="M5830 2620 c-23 -15 -10 -19 88 -25 80 -6 92 -5 92 9 0 9 -3 16 -7
17 -80 7 -161 7 -173 -1z"/>
<path d="M7151 2621 c-52 -4 -86 -11 -88 -18 -5 -14 216 -23 225 -9 6 10 -27
37 -42 34 -6 -1 -49 -4 -95 -7z"/>
<path d="M2945 2581 c-45 -37 -85 -61 -130 -77 -19 -7 -19 -7 -2 -11 34 -8 62
6 127 66 73 68 76 81 5 22z"/>
<path d="M4868 2613 c-31 -5 -38 -22 -10 -24 118 -10 171 -2 156 22 -5 9 -93
10 -146 2z"/>
<path d="M6498 2613 c-31 -5 -38 -22 -10 -24 128 -6 187 -3 187 11 0 12 -15
15 -75 16 -41 0 -87 -1 -102 -3z"/>
<path d="M4040 2586 c0 -8 -19 -30 -42 -50 -24 -20 -37 -36 -30 -36 7 0 31 18
52 39 39 39 50 61 30 61 -5 0 -10 -6 -10 -14z"/>
<path d="M480 2565 c-8 -9 -8 -15 -2 -15 12 0 26 19 19 26 -2 2 -10 -2 -17
-11z"/>
<path d="M4070 2565 c0 -9 -12 -27 -26 -42 -14 -14 -23 -28 -20 -30 6 -6 39
29 56 59 7 11 7 19 0 23 -5 3 -10 -1 -10 -10z"/>
<path d="M979 2543 c-6 -15 -15 -30 -20 -33 -5 -4 -38 -32 -74 -64 -58 -53
-72 -76 -45 -76 23 0 180 166 180 191 0 21 -31 7 -41 -18z"/>
<path d="M2338 2563 c12 -2 30 -2 40 0 9 3 -1 5 -23 4 -22 0 -30 -2 -17 -4z"/>
<path d="M4373 2562 c-13 -2 -23 -8 -23 -13 0 -15 192 -7 197 8 3 8 -18 11
-74 10 -43 0 -88 -3 -100 -5z"/>
<path d="M370 2550 c0 -5 -8 -10 -19 -10 -10 0 -24 -7 -31 -15 -10 -12 -9 -16
6 -21 11 -4 22 -9 26 -11 4 -2 5 2 3 9 -3 8 7 18 26 25 17 7 28 17 24 22 -8
14 -35 14 -35 1z"/>
<path d="M433 2533 c-23 -4 -33 -23 -13 -23 6 0 10 -8 10 -17 1 -16 1 -17 10
-2 5 9 21 20 35 23 14 4 25 11 25 16 0 10 -25 11 -67 3z"/>
<path d="M2140 2538 c0 -19 53 -121 57 -110 3 8 0 19 -6 25 -6 6 -11 18 -11
27 0 15 -39 72 -40 58z"/>
<path d="M4090 2525 c0 -8 -12 -22 -27 -32 -16 -10 -34 -23 -41 -30 -16 -15
-26 -17 -17 -3 12 20 -12 9 -35 -15 -14 -15 -30 -23 -40 -20 -10 3 -23 -1 -30
-10 -17 -20 5 -20 54 0 20 8 36 13 36 10 0 -10 41 16 81 52 37 34 51 63 29 63
-5 0 -10 -7 -10 -15z"/>
<path d="M1950 2515 c0 -26 65 -164 84 -177 30 -21 35 -5 8 26 -17 19 -33 45
-37 58 -11 35 -45 108 -50 108 -3 0 -5 -7 -5 -15z"/>
<path d="M3745 2510 c-10 -11 -16 -22 -13 -25 3 -3 13 6 22 20 20 30 16 32 -9
5z"/>
<path d="M3598 2502 c-16 -10 -28 -20 -28 -24 0 -12 48 13 54 28 3 8 4 14 3
13 -1 0 -14 -8 -29 -17z"/>
<path d="M3799 2468 c-12 -23 -44 -71 -70 -107 -45 -59 -57 -81 -44 -81 3 0
17 19 32 43 15 23 31 44 34 47 11 9 60 90 69 115 15 39 2 29 -21 -17z"/>
<path d="M1868 2465 c-1 -22 -3 -59 -4 -82 -1 -24 2 -43 6 -43 11 0 18 142 8
155 -4 5 -9 -9 -10 -30z"/>
<path d="M6155 2491 c-89 -7 -108 -24 -30 -29 64 -4 160 10 160 23 0 12 -27
13 -130 6z"/>
<path d="M2495 2470 c-4 -6 -15 -8 -26 -5 -11 4 -19 2 -19 -4 0 -6 18 -11 40
-11 29 0 40 4 40 15 0 17 -26 20 -35 5z"/>
<path d="M3491 2459 c-13 -11 -21 -23 -17 -26 4 -4 16 3 28 15 28 28 20 36
-11 11z"/>
<path d="M3700 2465 c-8 -9 -8 -15 -2 -15 12 0 26 19 19 26 -2 2 -10 -2 -17
-11z"/>
<path d="M194 2457 c-53 -29 -28 -56 46 -49 33 3 50 1 50 -7 0 -6 -4 -11 -8
-11 -13 0 -53 -40 -48 -49 9 -13 78 0 72 14 -5 15 52 42 119 57 22 4 47 10 55
12 8 3 17 5 20 5 2 1 -5 8 -17 16 -16 11 -28 13 -48 5 -35 -13 -40 -13 -26 4
11 13 -2 15 -91 14 -57 0 -113 -5 -124 -11z"/>
<path d="M4420 2440 c-14 -4 -56 -5 -94 -3 -77 5 -116 -2 -116 -19 0 -8 34 -9
122 -5 67 4 124 9 127 12 11 11 -15 22 -39 15z"/>
<path d="M5488 2433 c-10 -2 -18 -9 -18 -14 0 -7 40 -9 108 -6 124 6 112 4
112 17 0 10 -167 12 -202 3z"/>
<path d="M3198 2413 c7 -3 16 -2 19 1 4 3 -2 6 -13 5 -11 0 -14 -3 -6 -6z"/>
<path d="M1558 2393 c-9 -10 -21 -28 -27 -41 -10 -18 -15 -21 -26 -12 -8 7
-20 10 -27 7 -8 -4 -5 -8 9 -12 12 -4 23 -17 25 -29 2 -16 10 -8 36 38 34 59
38 81 10 49z"/>
<path d="M3158 2403 c7 -3 16 -2 19 1 4 3 -2 6 -13 5 -11 0 -14 -3 -6 -6z"/>
<path d="M3520 2383 c-14 -16 -35 -33 -45 -40 -15 -9 -16 -12 -5 -12 22 -1 84
52 79 67 -3 8 -14 2 -29 -15z"/>
<path d="M6915 2400 c3 -5 22 -10 41 -10 19 0 34 5 34 10 0 6 -18 10 -41 10
-24 0 -38 -4 -34 -10z"/>
<path d="M507 2393 c-12 -12 -7 -22 8 -17 8 4 15 10 15 15 0 11 -14 12 -23 2z"/>
<path d="M3170 2379 c-30 -10 -68 -20 -84 -24 -44 -9 -17 -27 35 -23 24 2 43
8 42 13 -1 6 17 20 40 32 50 26 42 27 -33 2z"/>
<path d="M367 2372 c-35 -7 -11 -27 28 -23 35 3 37 1 22 -13 -8 -9 -22 -16
-31 -16 -8 0 -39 -9 -68 -19 -29 -11 -73 -23 -97 -26 -29 -5 -45 -13 -48 -25
-3 -11 -11 -16 -23 -13 -29 8 -33 -15 -5 -33 21 -14 34 -15 86 -5 71 12 95 27
78 47 -6 8 -10 14 -8 15 2 0 15 3 29 5 13 2 34 11 47 19 12 8 30 15 40 15 28
1 66 34 61 56 -3 15 -12 19 -48 19 -25 0 -54 -2 -63 -3z m-77 -122 c0 -5 -3
-10 -7 -10 -5 -1 -27 -5 -51 -9 -51 -10 -43 7 10 19 47 11 48 11 48 0z"/>
<path d="M3585 2370 c-3 -5 -1 -10 4 -10 6 0 11 5 11 10 0 6 -2 10 -4 10 -3 0
-8 -4 -11 -10z"/>
<path d="M3918 2355 c-6 -28 6 -34 16 -9 8 22 7 34 -3 34 -5 0 -11 -11 -13
-25z"/>
<path d="M8716 2372 c-2 -1 -65 -4 -142 -7 -77 -3 -143 -10 -149 -16 -7 -8 44
-9 175 -6 139 4 185 8 185 18 0 10 -60 20 -69 11z"/>
<path d="M2210 2361 c0 -14 35 -39 65 -47 28 -7 29 -6 15 11 -14 17 -13 18 13
13 15 -3 30 -1 33 3 3 5 2 9 -3 10 -4 0 -19 2 -33 4 -73 12 -90 13 -90 6z"/>
<path d="M3245 2349 c-9 -14 -47 -28 -93 -34 -20 -3 -50 -9 -67 -15 -25 -8
-21 -9 27 -5 60 5 148 38 148 55 0 13 -7 13 -15 -1z"/>
<path d="M2491 2319 c-29 -16 -64 -29 -77 -29 -12 0 -26 -4 -29 -10 -11 -18
61 -11 122 12 32 12 59 22 61 23 5 4 -10 35 -17 34 -3 0 -30 -14 -60 -30z"/>
<path d="M7247 2343 c-16 -15 -5 -24 31 -22 51 2 73 9 67 20 -7 10 -88 12 -98
2z"/>
<path d="M1617 2326 c-4 -10 -7 -25 -6 -34 0 -11 4 -9 10 7 5 13 8 29 6 35 -2
5 -6 2 -10 -8z"/>
<path d="M255 2320 c-3 -5 1 -10 10 -10 9 0 13 5 10 10 -3 6 -8 10 -10 10 -2
0 -7 -4 -10 -10z"/>
<path d="M2166 2323 c-4 -4 13 -13 36 -20 64 -19 79 -15 29 7 -48 22 -54 23
-65 13z"/>
<path d="M2748 2276 c-31 -30 -75 -62 -97 -72 -22 -11 -41 -22 -41 -26 -1 -35
155 69 196 130 24 37 2 25 -58 -32z"/>
<path d="M2833 2313 c-4 -10 -17 -28 -31 -41 -13 -13 -22 -26 -19 -29 7 -6 77
65 77 78 0 16 -21 9 -27 -8z"/>
<path d="M4140 2313 c-19 -1 -63 -6 -97 -9 -70 -6 -86 -24 -22 -24 72 0 269
23 269 32 0 8 -77 8 -150 1z"/>
<path d="M2916 2270 c-40 -45 -42 -68 -2 -31 18 17 31 21 53 17 15 -3 48 -2
73 3 l45 10 -47 -2 c-25 -1 -44 1 -41 6 2 4 11 7 19 7 8 0 14 4 14 10 0 5 -10
9 -22 9 -13 -1 -30 1 -39 5 -11 5 -27 -6 -53 -34z"/>
<path d="M3257 2295 c-16 -8 -47 -20 -70 -27 -26 -7 -35 -13 -25 -15 18 -4
128 41 128 51 0 8 -1 8 -33 -9z"/>
<path d="M494 2290 c-12 -5 -25 -13 -28 -19 -4 -6 -20 -8 -35 -5 -37 8 -49
-12 -13 -21 26 -6 26 -7 8 -21 -20 -14 -20 -14 0 -15 12 0 6 -6 -19 -17 -39
-18 -40 -32 -2 -32 31 0 129 36 133 50 3 8 -6 9 -30 5 -25 -5 -38 -2 -48 10
-12 14 -12 18 1 26 8 5 25 9 39 9 24 1 60 21 60 34 0 9 -41 6 -66 -4z"/>
<path d="M2050 2281 c0 -11 -5 -23 -10 -26 -7 -4 -4 -19 10 -42 11 -20 19 -38
16 -40 -4 -4 -66 27 -98 49 -25 18 -32 4 -13 -31 9 -18 17 -47 19 -66 1 -19 9
-42 18 -52 9 -10 23 -34 31 -53 12 -28 16 -31 16 -13 1 12 -10 43 -24 69 -22
42 -34 104 -20 104 3 0 24 -12 46 -26 49 -30 64 -22 48 25 -8 22 -8 36 -1 43
6 6 5 19 -5 39 -18 37 -33 46 -33 20z"/>
<path d="M2085 2292 c15 -15 40 -19 45 -7 3 6 -8 11 -25 13 -20 2 -27 0 -20
-6z"/>
<path d="M2533 2276 c-45 -22 -57 -46 -23 -46 12 0 35 7 51 16 42 21 51 8 14
-22 -23 -18 -26 -24 -12 -24 25 0 97 38 97 52 0 6 7 20 17 30 21 23 1 24 -34
1 -14 -10 -42 -18 -61 -19 l-34 -1 26 14 c14 7 26 16 26 18 0 9 -25 2 -67 -19z"/>
<path d="M1200 2271 c-17 -33 -12 -46 10 -26 21 19 27 45 10 45 -5 0 -14 -9
-20 -19z"/>
<path d="M2842 2234 c-29 -24 -46 -44 -37 -44 17 0 103 75 95 83 -3 2 -29 -15
-58 -39z"/>
<path d="M3113 2273 c9 -2 23 -2 30 0 6 3 -1 5 -18 5 -16 0 -22 -2 -12 -5z"/>
<path d="M5218 2270 c-97 -8 -123 -14 -113 -30 10 -17 238 5 232 23 -5 15 -8
15 -119 7z"/>
<path d="M925 2250 c-3 -11 -15 -20 -25 -20 -11 0 -24 -8 -29 -17 -9 -16 -10
-17 -11 -1 0 22 -57 21 -70 -1 -7 -12 -12 -13 -18 -4 -6 10 -17 5 -43 -17 -26
-22 -30 -29 -16 -30 10 0 20 6 23 14 3 8 12 17 21 20 12 5 14 1 10 -15 -4 -16
-2 -19 11 -14 14 5 15 4 5 -6 -15 -15 -17 -39 -3 -39 6 0 10 7 10 15 0 8 4 15
9 15 5 0 17 7 26 16 9 9 19 13 23 9 4 -4 -3 -15 -15 -25 -13 -10 -23 -24 -23
-31 0 -17 36 17 61 58 12 19 24 32 26 29 3 -3 -2 -17 -11 -30 -24 -38 -19 -43
13 -12 16 16 33 26 38 23 5 -3 20 3 33 14 l25 20 -25 -7 c-22 -6 -23 -5 -11
10 11 13 11 19 1 31 -17 20 -27 19 -35 -5z"/>
<path d="M2189 2253 c6 -12 28 -35 48 -52 53 -43 36 -47 -28 -6 -50 32 -108
48 -94 25 3 -5 16 -10 28 -10 12 0 40 -14 61 -30 28 -21 51 -30 77 -30 54 0
56 16 7 41 -24 11 -58 35 -77 53 -26 24 -31 26 -22 9z"/>
<path d="M3600 2250 c-113 -57 -195 -90 -225 -90 -19 0 -35 5 -35 10 0 6 4 10
8 10 5 0 9 7 9 15 0 11 -6 13 -21 9 -12 -4 -41 -7 -66 -7 -38 1 -41 -1 -21 -8
14 -6 37 -7 52 -4 24 5 27 3 22 -13 -7 -29 38 -37 98 -17 27 9 57 14 67 11 12
-4 26 1 38 15 10 12 40 32 66 45 26 13 49 28 53 34 8 14 -4 11 -45 -10z"/>
<path d="M1017 2246 c-13 -10 -15 -15 -5 -19 10 -3 10 -9 2 -23 -54 -92 -74
-134 -65 -134 6 0 17 13 25 28 19 38 90 100 132 118 19 8 34 21 34 30 0 17 -8
14 -63 -29 -43 -33 -58 -30 -33 7 9 14 16 28 16 31 0 10 -25 4 -43 -9z"/>
<path d="M1601 2225 c-2 -38 -40 -126 -41 -95 0 8 -3 26 -6 40 -4 20 -3 22 5
10 9 -13 11 -13 11 3 0 9 -5 17 -11 17 -6 0 -9 9 -6 20 3 11 1 20 -3 20 -5 0
-10 -15 -12 -32 -2 -19 -8 -32 -15 -31 -16 4 -36 -34 -29 -54 6 -14 10 -13 31
7 l25 23 0 -26 c0 -19 4 -25 15 -21 21 8 47 85 42 125 -4 34 -4 34 -6 -6z"/>
<path d="M3338 2255 c-3 -3 -29 -14 -59 -25 -30 -11 -45 -19 -34 -19 21 -1
105 34 105 44 0 6 -5 7 -12 0z"/>
<path d="M6588 2253 c-10 -2 -18 -8 -18 -13 0 -11 158 -1 180 11 16 9 -130 11
-162 2z"/>
<path d="M510 2239 c0 -5 5 -7 10 -4 6 3 10 8 10 11 0 2 -4 4 -10 4 -5 0 -10
-5 -10 -11z"/>
<path d="M1215 2220 c-11 -17 -25 -28 -32 -26 -7 3 -10 -1 -6 -10 3 -9 -1 -14
-14 -14 -10 0 -45 -26 -78 -57 -57 -57 -62 -57 -23 0 11 15 18 35 16 45 -3 13
-21 -1 -76 -57 -40 -41 -70 -76 -68 -79 3 -2 23 15 46 39 24 25 38 35 34 24
-4 -11 -20 -34 -36 -51 -49 -53 -14 -48 51 7 34 28 61 55 61 60 0 5 7 9 15 9
9 0 -1 -22 -30 -65 -25 -36 -45 -70 -45 -75 0 -27 33 -4 72 49 23 33 56 67 72
77 16 9 27 13 24 8 -22 -37 -39 -86 -34 -92 8 -7 116 104 116 119 0 5 -4 9
-10 9 -5 0 -10 -4 -10 -9 0 -5 -16 -26 -35 -47 -43 -47 -44 -39 -4 43 17 35
28 67 25 71 -4 3 -11 0 -16 -8 -13 -23 -155 -178 -158 -175 -7 6 84 119 131
163 26 25 47 51 47 58 0 22 -14 16 -35 -16z"/>
<path d="M3106 2241 c-13 -20 70 -28 109 -11 14 6 5 8 -26 4 -28 -3 -50 -1
-54 5 -8 13 -22 14 -29 2z"/>
<path d="M3659 2209 c-55 -42 -73 -58 -52 -46 6 4 13 3 15 -2 1 -6 25 11 51
36 27 25 46 47 44 49 -2 2 -28 -15 -58 -37z"/>
<path d="M7353 2244 c-35 -15 -5 -24 67 -22 48 2 79 7 77 13 -4 11 -123 18
-144 9z"/>
<path d="M8609 2246 c-6 -5 -115 -15 -172 -16 -33 0 -46 -3 -41 -11 5 -8 32
-10 93 -4 47 4 97 8 110 8 13 1 26 8 29 15 3 11 -9 17 -19 8z"/>
<path d="M1398 2234 c-8 -7 3 -54 13 -54 12 0 12 47 0 54 -4 3 -10 3 -13 0z"/>
<path d="M380 2214 c0 -8 5 -12 10 -9 6 3 10 10 10 16 0 5 -4 9 -10 9 -5 0
-10 -7 -10 -16z"/>
<path d="M681 2217 c-7 -9 -19 -13 -28 -10 -12 5 -14 1 -9 -14 4 -12 1 -25 -9
-33 -25 -21 -19 -43 10 -36 18 5 25 2 25 -9 0 -19 16 -20 24 0 7 19 -3 45 -16
45 -6 0 -3 12 6 26 20 29 17 54 -3 31z"/>
<path d="M560 2195 c-25 -26 -21 -32 11 -15 13 7 19 7 19 0 0 -10 -20 -15 -54
-11 -20 1 -46 -16 -46 -30 0 -13 50 -4 87 16 35 17 51 35 34 35 -6 0 -10 5 -8
11 4 22 -20 19 -43 -6z"/>
<path d="M1640 2178 c-1 -18 -8 -51 -16 -73 -24 -62 -27 -83 -8 -50 16 28 44
117 44 143 0 6 -4 12 -10 12 -5 0 -10 -15 -10 -32z"/>
<path d="M1770 2201 c0 -4 26 -42 58 -82 33 -41 64 -85 71 -97 6 -12 18 -22
25 -22 16 0 29 27 20 41 -13 22 17 6 32 -16 9 -14 20 -25 26 -25 5 0 -9 26
-30 58 -21 31 -43 70 -49 86 -9 30 -37 55 -48 45 -3 -4 8 -35 25 -70 16 -35
30 -71 30 -79 -1 -18 -48 35 -104 114 -36 52 -56 69 -56 47z"/>
<path d="M2147 2189 c7 -7 15 -10 18 -7 3 3 -2 9 -12 12 -14 6 -15 5 -6 -5z"/>
<path d="M1426 2153 c-18 -42 -40 -60 -51 -43 -10 16 -42 12 -49 -6 -10 -26
-8 -40 5 -27 8 8 18 8 35 1 18 -8 27 -8 39 2 21 17 47 79 42 100 -2 9 -11 -2
-21 -27z"/>
<path d="M1470 2163 c0 -16 -3 -39 -6 -53 -5 -17 -3 -22 3 -15 15 14 26 95 13
95 -5 0 -10 -12 -10 -27z"/>
<path d="M1681 2164 c0 -11 3 -14 6 -6 3 7 2 16 -1 19 -3 4 -6 -2 -5 -13z"/>
<path d="M3445 2136 l-29 -23 31 -7 c18 -4 41 -3 52 4 29 15 26 21 -5 10 -37
-14 -52 -1 -23 21 13 10 20 19 14 19 -5 0 -23 -11 -40 -24z"/>
<path d="M3560 2150 c-8 -5 -10 -10 -5 -10 6 0 17 5 25 10 8 5 11 10 5 10 -5
0 -17 -5 -25 -10z"/>
<path d="M3877 2153 c-15 -15 -5 -23 28 -23 24 0 35 5 35 15 0 15 -50 22 -63
8z"/>
<path d="M5905 2149 c-143 -10 -170 -15 -145 -29 8 -4 60 -4 115 2 162 15 186
19 180 29 -4 5 -9 8 -13 8 -4 -1 -65 -6 -137 -10z"/>
<path d="M1726 2128 c-11 -53 -13 -79 -6 -71 9 9 23 93 15 93 -2 0 -7 -10 -9
-22z"/>
<path d="M3587 2132 c-20 -22 -21 -32 -5 -32 6 0 8 3 5 7 -4 3 0 15 10 25 9
10 14 18 11 18 -3 0 -12 -8 -21 -18z"/>
<path d="M1687 2111 c-4 -18 -7 -43 -6 -55 1 -11 5 -1 10 24 5 25 7 49 6 55
-2 5 -7 -5 -10 -24z"/>
<path d="M3646 2125 c-11 -8 -16 -15 -10 -15 5 0 18 7 28 15 11 8 16 15 10 15
-5 0 -18 -7 -28 -15z"/>
<path d="M4778 2135 c-2 -2 -49 -6 -105 -9 -92 -5 -143 -16 -143 -32 0 -12
265 8 278 21 11 10 10 13 -7 18 -11 2 -21 3 -23 2z"/>
<path d="M1651 2094 c-12 -19 -21 -39 -21 -44 0 -5 -9 -15 -19 -22 -22 -16
-39 -68 -23 -68 6 0 14 6 19 13 12 18 72 157 68 157 -2 0 -12 -16 -24 -36z"/>
<path d="M3159 2126 c-2 -3 -35 -6 -72 -7 -44 -1 -66 -6 -64 -13 3 -7 28 -10
68 -8 79 3 109 9 109 22 0 10 -33 14 -41 6z"/>
<path d="M1282 2098 c-22 -29 -44 -80 -31 -76 7 2 21 23 30 46 19 43 19 51 1
30z"/>
<path d="M1780 2095 c0 -8 -6 -27 -12 -42 l-13 -27 -6 39 -6 40 -1 -45 c-2
-57 11 -82 27 -52 6 11 11 30 11 41 0 25 15 27 28 5 15 -27 26 4 11 32 -14 26
-39 32 -39 9z"/>
<path d="M8619 2105 c-3 -2 -65 -9 -139 -16 -74 -6 -139 -15 -144 -19 -13 -12
4 -33 17 -22 11 9 130 22 237 27 24 2 46 7 48 13 3 11 -12 25 -19 17z"/>
<path d="M2970 2075 c0 -10 7 -15 17 -13 22 4 23 22 1 26 -11 2 -18 -3 -18
-13z"/>
<path d="M7940 2080 c0 -5 9 -10 20 -10 11 0 20 5 20 10 0 6 -9 10 -20 10 -11
0 -20 -4 -20 -10z"/>
<path d="M910 2060 c-9 -6 -10 -10 -3 -10 6 0 15 5 18 10 8 12 4 12 -15 0z"/>
<path d="M7300 2050 c0 -5 9 -10 20 -10 11 0 20 5 20 10 0 6 -9 10 -20 10 -11
0 -20 -4 -20 -10z"/>
<path d="M2608 2043 c-40 -3 -58 -8 -58 -17 0 -8 6 -16 14 -19 16 -6 139 8
155 18 22 13 10 25 -21 23 -18 -1 -59 -3 -90 -5z"/>
<path d="M6770 2040 c0 -6 30 -10 70 -10 40 0 70 4 70 10 0 6 -30 10 -70 10
-40 0 -70 -4 -70 -10z"/>
<path d="M860 2021 c0 -13 6 -18 23 -16 31 3 31 3 17 20 -17 21 -40 19 -40 -4z"/>
<path d="M1671 1999 c-1 -15 -4 -41 -7 -58 -4 -19 -2 -31 4 -31 12 0 47 98 38
108 -4 3 -10 -5 -13 -18 l-7 -25 -7 25 -7 25 -1 -26z"/>
<path d="M7440 2003 c-14 -2 -32 -6 -40 -9 -22 -9 28 -26 51 -19 10 4 37 6 59
7 27 0 40 5 40 14 0 14 -50 17 -110 7z"/>
<path d="M5263 1992 c-44 -3 -57 -17 -25 -25 28 -8 167 7 167 18 0 10 -65 13
-142 7z"/>
<path d="M8615 1973 c-27 -2 -54 -8 -59 -14 -6 -5 32 -8 101 -6 89 2 107 4 94
14 -16 12 -38 13 -136 6z"/>
<path d="M3589 1956 c-2 -2 -44 -5 -94 -7 -103 -2 -125 -6 -125 -21 0 -8 45
-9 147 -4 81 4 149 9 151 11 2 2 1 8 -3 14 -6 10 -67 16 -76 7z"/>
<path d="M4183 1952 c-13 -2 -23 -8 -23 -13 0 -16 232 -7 238 9 3 11 -16 13
-94 10 -55 -1 -109 -4 -121 -6z"/>
<path d="M6055 1948 c-115 -15 -73 -24 87 -20 90 2 165 6 167 8 20 18 -142 26
-254 12z"/>
<path d="M7967 1934 c-4 -4 -4 -10 -2 -14 6 -10 55 0 55 11 0 10 -43 12 -53 3z"/>
<path d="M8220 1921 c0 -6 14 -11 30 -11 31 0 43 -19 13 -21 -64 -3 -104 -9
-143 -23 -58 -20 -94 -21 -87 -2 7 17 -13 26 -59 26 -50 0 -42 -20 9 -21 38
-1 39 -2 12 -8 l-30 -7 25 -7 c40 -11 105 -8 147 7 63 22 330 19 358 -4 12
-10 183 -16 192 -6 3 3 21 6 40 6 18 0 33 5 33 10 0 6 -32 10 -72 11 -109 2
-142 6 -146 18 -2 6 -21 11 -42 11 -21 0 -41 4 -44 8 -2 4 -35 9 -73 10 -37 1
-89 4 -115 8 -32 4 -48 2 -48 -5z m245 -41 c3 -6 -5 -10 -19 -10 -14 0 -28 5
-31 10 -3 6 5 10 19 10 14 0 28 -4 31 -10z"/>
<path d="M7250 1860 l-105 -5 113 -5 c63 -3 116 -2 118 1 7 12 -20 14 -126 9z"/>
<path d="M8910 1851 l-35 -3 40 -18 40 -19 -30 -2 c-16 -1 6 -5 50 -8 44 -3
97 -4 117 -2 63 5 32 21 -42 21 -38 0 -72 5 -75 10 -4 6 20 10 64 10 43 0 71
4 71 10 0 10 -110 11 -200 1z"/>
<path d="M4800 1841 c0 -13 23 -20 53 -14 41 8 32 23 -13 23 -22 0 -40 -4 -40
-9z"/>
<path d="M8710 1828 c29 -13 130 -27 130 -18 0 9 -87 30 -123 29 -32 0 -32 0
-7 -11z"/>
<path d="M8085 1816 c17 -9 40 -15 52 -16 12 0 23 -3 25 -7 5 -12 128 -70 163
-78 17 -3 58 -11 93 -17 59 -11 83 -26 45 -29 -22 -2 71 -17 110 -18 15 -1 27
4 27 9 0 6 -11 10 -25 10 -14 0 -33 4 -43 9 -54 27 -97 41 -130 42 -45 0 -125
16 -97 19 l20 1 -20 9 c-16 7 -14 9 15 9 53 2 19 17 -43 20 -28 1 -59 8 -67
15 -8 8 -35 16 -60 19 -25 3 -56 8 -70 11 -21 5 -21 4 5 -8z"/>
<path d="M7679 1809 c-9 -5 25 -9 94 -9 60 0 106 4 103 9 -7 11 -178 12 -197
0z"/>
<path d="M8706 1799 c3 -5 14 -9 25 -9 28 0 142 -32 154 -43 12 -11 -140 -4
-167 8 -11 4 -18 3 -18 -4 0 -6 12 -14 28 -17 15 -4 32 -10 37 -14 18 -13 58
-19 178 -26 146 -8 133 -8 187 -5 59 3 45 8 -75 25 -55 8 -113 20 -130 27
l-30 13 40 4 c52 5 227 -16 239 -28 13 -13 69 -13 61 0 -3 6 -16 10 -29 10
-12 0 -26 4 -31 8 -6 5 -73 14 -150 21 -77 7 -160 16 -185 21 -70 14 -140 18
-134 9z m179 -79 c29 -7 29 -8 -10 -9 -22 0 -47 4 -55 9 -12 8 -10 9 10 9 14
-1 39 -5 55 -9z m68 -7 c-7 -2 -19 -2 -25 0 -7 3 -2 5 12 5 14 0 19 -2 13 -5z"/>
<path d="M6729 1775 c-3 -2 -29 -6 -58 -9 -30 -3 -61 -12 -70 -21 -14 -14 -13
-15 19 -9 99 20 134 30 124 37 -6 3 -13 5 -15 2z"/>
<path d="M5786 1742 c-5 -8 -126 -29 -201 -35 -16 -1 -28 -6 -25 -12 3 -5 14
-9 25 -8 43 5 152 12 196 12 34 1 49 6 53 17 8 20 8 19 -21 28 -12 4 -24 3
-27 -2z"/>
<path d="M8353 1743 c15 -2 39 -2 55 0 15 2 2 4 -28 4 -30 0 -43 -2 -27 -4z"/>
<path d="M5860 1729 c0 -5 5 -7 10 -4 6 3 10 8 10 11 0 2 -4 4 -10 4 -5 0 -10
-5 -10 -11z"/>
<path d="M9715 1683 c-14 -21 -30 -55 -36 -75 -14 -55 -33 -49 -25 7 8 52 -3
58 -30 18 l-19 -28 -5 45 c-7 67 -26 45 -22 -25 4 -67 13 -83 32 -60 11 14 14
13 24 -7 6 -12 16 -22 21 -22 9 -1 34 43 63 112 8 18 20 32 28 32 8 0 14 6 14
14 0 30 -20 25 -45 -11z"/>
<path d="M7133 1702 c-21 -2 -33 -9 -33 -18 0 -10 9 -13 33 -10 17 3 47 5 65
5 22 1 32 5 29 14 -4 12 -33 15 -94 9z"/>
<path d="M8647 1688 c-7 -4 20 -7 58 -7 73 1 71 6 -3 11 -24 2 -48 0 -55 -4z"/>
<path d="M9402 1673 c-5 -10 -9 -40 -8 -68 l1 -50 58 -1 c63 0 74 6 58 33 -7
13 -5 23 6 35 9 10 12 18 6 18 -5 0 -18 -9 -28 -20 -20 -22 -37 -18 -28 7 5
13 2 15 -22 9 -25 -7 -27 -5 -23 19 6 31 -7 43 -20 18z"/>
<path d="M7948 1663 c-35 -9 -17 -23 27 -21 46 2 58 11 29 22 -17 6 -29 6 -56
-1z"/>
<path d="M9190 1659 c-13 -5 -34 -9 -47 -7 -12 2 -23 -1 -25 -7 -2 -5 9 -11
25 -13 32 -4 32 -3 7 -53 -18 -34 -23 -38 -40 -29 -12 7 -21 7 -25 0 -3 -5 4
-10 15 -10 15 0 20 -5 17 -15 -4 -8 -3 -17 2 -19 4 -3 17 15 29 40 20 40 24
43 42 32 16 -10 20 -25 22 -83 2 -54 6 -70 18 -70 9 0 13 6 10 15 -2 8 -6 42
-8 76 l-4 60 41 13 c46 13 69 44 50 67 -13 16 -91 18 -129 3z m88 -33 c4 -19
-31 -35 -65 -28 -12 2 -23 10 -23 18 0 32 82 42 88 10z"/>
<path d="M8900 1651 c0 -6 16 -10 35 -9 41 1 39 7 -4 14 -18 3 -31 1 -31 -5z"/>
<path d="M8985 1651 c3 -6 22 -11 42 -11 44 0 41 5 -10 14 -27 5 -37 4 -32 -3z"/>
<path d="M8370 1639 c0 -5 9 -9 20 -9 11 0 20 4 20 8 0 4 -9 8 -20 9 -11 1
-20 -2 -20 -8z"/>
<path d="M8425 1640 c3 -5 8 -10 11 -10 2 0 4 5 4 10 0 6 -5 10 -11 10 -5 0
-7 -4 -4 -10z"/>
<path d="M7581 1621 c-14 -4 -26 -12 -29 -19 -3 -9 9 -10 45 -6 55 8 57 9 48
23 -7 12 -27 13 -64 2z"/>
<path d="M5243 1607 c-51 -5 -93 -14 -93 -19 0 -7 14 -8 38 -4 20 3 68 6 105
6 49 0 68 3 65 12 -6 16 -10 16 -115 5z"/>
<path d="M8550 1609 c0 -4 25 -9 55 -13 30 -3 80 -9 110 -12 41 -5 55 -3 55 6
0 9 13 11 46 6 30 -4 52 -2 61 5 9 8 43 10 104 6 50 -3 88 -3 84 1 -8 9 -515
9 -515 1z m187 -15 c-3 -3 -12 -4 -19 -1 -8 3 -5 6 6 6 11 1 17 -2 13 -5z"/>
<path d="M8185 1596 c-29 -7 -44 -14 -35 -18 21 -8 130 12 130 23 0 11 -32 10
-95 -5z"/>
<path d="M8338 1599 c28 -11 121 -9 127 2 3 4 -29 8 -72 8 -56 -1 -72 -3 -55
-10z"/>
<path d="M8600 1569 c-35 -6 -35 -6 -5 -9 17 -1 62 -3 100 -5 39 -2 96 -6 128
-9 66 -7 79 10 15 18 -74 9 -201 12 -238 5z"/>
<path d="M9280 1556 c0 -24 12 -41 22 -30 8 7 -3 54 -13 54 -5 0 -9 -11 -9
-24z"/>
<path d="M9713 1555 c-8 -22 6 -33 17 -15 13 20 12 30 0 30 -6 0 -13 -7 -17
-15z"/>
<path d="M8901 1556 c11 -9 159 -15 159 -6 0 6 -35 10 -82 10 -45 0 -79 -2
-77 -4z"/>
<path d="M8450 1529 c31 -13 340 -24 340 -12 0 5 -37 10 -82 10 -46 1 -128 4
-183 7 -76 5 -94 3 -75 -5z"/>
<path d="M6660 1514 l-45 -14 64 5 c35 3 76 6 90 6 25 1 25 2 -4 9 -41 10 -53
10 -105 -6z"/>
<path d="M8800 1520 c0 -5 5 -10 10 -10 6 0 10 5 10 10 0 6 -4 10 -10 10 -5 0
-10 -4 -10 -10z"/>
<path d="M9510 1515 c-34 -12 -34 -13 32 -11 66 1 84 8 52 20 -22 9 -44 6 -84
-9z"/>
<path d="M7224 1499 c-12 -5 4 -8 40 -8 33 -1 57 1 54 4 -9 9 -74 12 -94 4z"/>
<path d="M9410 1491 c-8 -5 -32 -11 -52 -15 -36 -7 -56 -21 -44 -33 3 -3 12
-1 19 6 8 6 40 19 73 30 32 10 50 19 39 20 -11 0 -27 -3 -35 -8z"/>
<path d="M8490 1481 c0 -7 21 -11 53 -12 28 0 66 -2 82 -3 17 -2 39 1 50 5 12
5 -7 8 -51 8 -39 1 -86 4 -103 7 -20 4 -31 3 -31 -5z"/>
<path d="M7490 1472 c0 -11 149 -12 156 -1 3 5 -31 9 -75 9 -45 0 -81 -4 -81
-8z"/>
<path d="M8725 1471 c10 -9 95 -12 95 -3 0 4 -23 8 -50 9 -28 0 -48 -2 -45 -6z"/>
<path d="M9608 929 c-3 -8 -1 -27 4 -44 4 -16 8 -62 8 -102 l0 -73 -42 6 c-95
12 -137 -58 -140 -232 -2 -115 15 -197 46 -217 30 -20 210 -27 227 -10 10 10
10 23 0 61 -7 27 -12 71 -12 98 1 204 -5 503 -10 509 -4 3 -22 8 -42 12 -24 4
-36 1 -39 -8z m68 -43 c3 -13 1 -70 -4 -127 -5 -57 -8 -140 -6 -184 7 -144 14
-250 20 -278 l6 -27 -87 4 c-107 4 -121 15 -136 107 -13 78 -5 214 15 263 22
52 71 67 138 41 16 -7 18 2 14 109 -3 107 -2 116 15 116 11 0 21 -9 25 -24z"/>
<path d="M9538 638 c-31 -26 -41 -74 -35 -175 6 -90 8 -100 33 -121 36 -32 65
-25 87 20 17 34 17 48 7 150 -8 84 -15 115 -28 124 -22 17 -44 17 -64 2z m66
-56 c12 -72 7 -207 -8 -228 -15 -19 -15 -19 -38 4 -20 20 -23 34 -26 123 -3
78 0 105 12 123 22 35 52 24 60 -22z"/>
<path d="M7860 905 c-6 -8 -7 -47 -2 -109 4 -53 6 -99 4 -101 -2 -2 -15 0 -29
6 -44 16 -78 10 -109 -20 -34 -33 -39 -59 -39 -201 0 -109 17 -172 51 -190 28
-16 99 -17 117 -2 14 12 57 5 57 -8 0 -11 36 -19 48 -11 8 5 6 21 -5 51 -18
49 -21 130 -11 347 3 73 3 156 -1 185 -6 49 -8 53 -38 59 -21 4 -36 2 -43 -6z
m63 -57 c2 -24 0 -134 -6 -245 -7 -142 -6 -215 1 -245 6 -23 9 -45 6 -50 -9
-14 -44 11 -38 27 4 8 1 15 -4 15 -6 0 -13 -9 -17 -20 -7 -22 -56 -39 -93 -32
-48 9 -77 121 -67 252 6 77 11 93 32 115 30 29 49 31 100 10 19 -8 38 -15 41
-15 2 0 3 52 0 115 -5 114 -5 115 17 115 19 0 24 -6 28 -42z"/>
<path d="M7773 635 c-16 -12 -18 -28 -17 -136 2 -106 4 -125 20 -136 24 -17
38 -16 64 5 19 15 23 31 27 102 7 111 -3 148 -44 165 -26 11 -34 11 -50 0z
m73 -62 c3 -18 4 -65 2 -103 -4 -73 -21 -106 -50 -95 -12 5 -16 30 -21 118 -6
124 0 142 39 125 15 -7 26 -23 30 -45z"/>
<path d="M1572 884 c-15 -11 -21 -22 -17 -33 4 -9 6 -121 5 -249 -1 -262 6
-312 45 -312 15 0 31 10 41 25 15 22 16 44 10 155 l-7 130 41 0 c53 0 60 -18
60 -159 0 -94 2 -110 20 -129 55 -59 74 -11 67 175 -7 186 -10 192 -107 213
l-75 16 -3 74 c-2 62 -6 78 -23 93 -26 21 -29 21 -57 1z m46 -27 c7 -6 12 -35
12 -76 0 -39 5 -74 13 -83 7 -9 35 -18 64 -21 81 -9 89 -17 103 -95 13 -69 10
-245 -3 -259 -17 -17 -26 19 -28 117 -3 134 -11 165 -47 178 -30 10 -73 9 -92
-3 -9 -5 -10 -45 -5 -144 6 -115 5 -139 -8 -149 -33 -27 -38 8 -42 270 -1 139
-6 261 -10 271 -6 14 -3 16 11 11 11 -4 25 -11 32 -17z"/>
<path d="M8596 884 c-3 -8 1 -38 11 -66 14 -43 15 -82 10 -272 -3 -121 -3
-234 0 -250 l6 -29 77 6 c122 10 134 19 160 131 13 57 12 154 -2 210 -14 58
-57 96 -107 96 l-41 0 -1 43 c0 68 -19 110 -59 129 -44 21 -47 21 -54 2z m74
-45 c6 -11 14 -51 17 -88 l6 -68 43 0 c48 0 68 -12 92 -57 20 -39 21 -178 3
-254 -15 -62 -25 -68 -126 -78 l-65 -7 -1 229 c-1 241 -3 278 -13 319 -5 20
-3 25 13 25 11 0 25 -9 31 -21z"/>
<path d="M8702 627 c-10 -12 -22 -237 -14 -269 6 -26 49 -22 77 6 13 13 27 40
31 61 10 54 -1 161 -20 190 -18 27 -56 34 -74 12z m65 -38 c18 -36 19 -150 2
-184 -15 -30 -44 -53 -54 -43 -8 7 -10 60 -7 171 2 85 3 88 24 85 13 -2 28
-15 35 -29z"/>
<path d="M3558 878 c-3 -7 3 -26 13 -43 10 -16 21 -49 25 -72 6 -38 4 -43 -13
-43 -35 0 -57 -24 -49 -54 5 -22 11 -26 34 -24 l27 3 -3 -175 -4 -175 31 -29
c27 -26 34 -28 55 -18 61 27 98 82 56 82 -40 0 -48 34 -45 199 l3 155 39 26
c26 18 39 34 41 54 4 35 -12 56 -30 38 -9 -9 -9 -12 0 -12 13 0 16 -39 4 -56
-4 -6 -21 -17 -38 -24 l-32 -14 -2 -110 c-5 -230 -4 -239 24 -262 24 -21 24
-23 7 -38 -24 -22 -44 -20 -70 8 -20 21 -22 32 -22 164 0 77 1 144 2 149 1 4
1 21 0 37 -1 24 -4 27 -25 22 -12 -3 -26 -3 -29 1 -10 10 13 33 34 33 24 0 39
28 29 54 -4 12 -10 38 -14 59 l-7 39 25 -19 c14 -10 31 -33 38 -50 14 -38 28
-42 45 -13 11 16 10 18 -2 14 -10 -4 -18 3 -25 22 -6 17 -28 41 -54 57 -48 30
-62 33 -68 15z"/>
<path d="M1157 867 c-23 -18 -30 -59 -13 -82 11 -16 25 -19 77 -18 35 1 68 -2
75 -8 8 -7 11 -71 10 -230 l-1 -221 24 -19 c34 -27 60 -24 72 9 7 17 9 109 7
247 l-3 220 45 0 c59 0 70 9 70 54 0 21 -6 43 -12 49 -19 15 -331 15 -351 -1z
m330 -21 c8 -4 13 -16 11 -28 -2 -19 -10 -24 -45 -26 -67 -5 -68 -8 -69 -258
0 -123 -3 -226 -6 -230 -4 -3 -15 -3 -26 0 -18 6 -19 18 -20 242 0 130 -3 238
-6 242 -4 3 -39 6 -79 7 -93 3 -87 1 -87 33 l0 27 156 -2 c87 -1 163 -4 171
-7z"/>
<path d="M2440 857 c-47 -23 -86 -82 -96 -142 -24 -164 -12 -329 32 -396 28
-45 96 -75 149 -66 56 9 113 61 126 113 6 24 15 44 18 44 4 0 16 -17 26 -37
l18 -38 12 28 c9 23 11 195 1 204 -1 2 -31 4 -67 5 -61 3 -64 2 -67 -21 -2
-13 1 -28 7 -34 26 -26 -11 -129 -53 -148 -33 -15 -52 0 -79 60 -16 36 -18 56
-12 120 13 153 26 200 57 220 28 17 51 6 93 -44 50 -62 71 -60 79 8 3 30 12
73 21 96 13 37 13 42 -1 48 -8 3 -25 -4 -38 -16 -28 -26 -41 -26 -66 -1 -27
27 -101 26 -160 -3z m148 -25 c30 -23 34 -24 51 -8 19 18 41 21 41 7 0 -24
-24 -111 -31 -111 -4 0 -17 13 -29 30 -21 29 -60 47 -90 41 -24 -5 -61 -43
-77 -80 -20 -48 -29 -246 -14 -294 14 -43 53 -77 88 -77 54 0 123 116 95 161
-16 24 -15 49 1 50 42 5 69 4 78 -1 6 -4 9 -38 7 -81 l-3 -74 -19 38 c-24 46
-34 47 -34 4 0 -42 -33 -109 -68 -136 -32 -25 -101 -28 -143 -7 -40 21 -58 54
-66 117 -3 30 -10 77 -15 105 -5 29 -7 71 -5 95 12 126 16 139 61 192 62 73
105 80 172 29z"/>
<path d="M6956 873 c-3 -3 -6 -14 -6 -24 0 -9 -7 -19 -15 -23 -26 -10 -16 -25
18 -28 l32 -3 0 -267 c0 -146 3 -269 6 -272 12 -12 269 -8 284 4 16 13 20 156
5 165 -9 5 -24 -8 -58 -50 -10 -12 -28 -15 -72 -13 l-59 3 -5 207 c-4 200 -4
208 15 222 15 10 20 23 17 47 l-3 34 -76 2 c-42 2 -79 0 -83 -4z m141 -14 c14
-14 5 -40 -19 -57 -18 -13 -19 -28 -15 -232 2 -119 7 -222 11 -229 4 -6 35
-11 76 -11 65 0 70 2 82 27 24 50 39 41 36 -23 -3 -53 -5 -58 -28 -60 -43 -3
-122 -6 -184 -5 l-59 1 5 223 c5 248 0 343 -20 340 -18 -4 -15 17 4 24 9 3 31
1 50 -5 27 -8 34 -7 34 4 0 17 12 18 27 3z"/>
<path d="M8922 864 c-28 -19 -29 -60 -2 -74 45 -24 89 17 67 64 -14 30 -33 33
-65 10z m41 -46 c-6 -11 -31 -10 -38 1 -3 5 2 17 12 26 16 16 17 16 24 -1 3
-11 5 -22 2 -26z"/>
<path d="M4076 857 c-12 -9 -17 -23 -14 -42 2 -26 8 -30 35 -33 28 -3 33 1 39
23 4 18 1 32 -11 45 -21 24 -26 24 -49 7z m34 -42 c0 -8 -7 -15 -15 -15 -16 0
-20 12 -8 23 11 12 23 8 23 -8z"/>
<path d="M6010 859 c-30 -5 -100 -8 -155 -8 -55 1 -124 1 -152 0 l-53 -1 0
-38 c0 -21 7 -48 16 -60 14 -20 24 -22 104 -22 87 0 88 0 98 -27 5 -16 10
-122 11 -238 1 -121 6 -215 12 -222 13 -15 80 -6 95 13 8 10 10 81 8 234 -4
253 -3 256 73 247 54 -6 63 5 56 66 -5 40 -10 50 -30 58 -13 5 -25 8 -26 8 -1
-1 -27 -5 -57 -10z m74 -25 c10 -4 16 -18 16 -35 0 -28 -2 -29 -49 -29 -32 0
-56 -6 -71 -18 -21 -17 -22 -24 -19 -142 1 -69 3 -174 3 -235 1 -109 1 -110
-23 -113 -13 -2 -27 1 -30 6 -3 6 -5 99 -5 207 2 154 -1 204 -13 235 -18 45
-46 61 -86 47 -38 -13 -115 0 -126 22 -19 34 1 40 164 46 88 4 162 9 164 11 7
6 57 5 75 -2z"/>
<path d="M6173 846 c-15 -9 -19 -16 -13 -26 15 -25 21 -106 23 -334 2 -215 2
-219 24 -227 37 -14 61 17 73 92 5 36 7 88 4 115 -14 108 -14 109 33 112 51 4
49 8 58 -170 8 -151 15 -170 60 -150 29 13 28 10 26 192 -3 205 -14 225 -120
225 l-66 0 -3 75 c-2 61 -7 78 -24 93 -23 19 -43 20 -75 3z m73 -42 c4 -14 4
-49 0 -79 -8 -69 4 -79 88 -77 99 2 100 1 106 -180 6 -167 4 -188 -15 -188
-21 0 -25 25 -25 148 0 154 -6 166 -84 170 -36 2 -62 -1 -66 -8 -4 -6 -3 -30
1 -53 19 -98 5 -257 -22 -257 -16 0 -28 46 -23 92 2 23 0 133 -4 243 -5 110
-7 203 -5 208 10 18 43 6 49 -19z"/>
<path d="M4705 740 c-17 -19 -17 -21 -1 -39 15 -17 20 -51 27 -211 5 -105 14
-200 19 -211 14 -26 71 -26 95 1 19 21 14 50 -10 50 -11 0 -15 12 -15 48 0 26
-2 97 -4 158 l-4 112 61 5 c47 3 65 1 74 -10 8 -10 12 -66 12 -170 0 -120 3
-160 15 -178 16 -25 53 -39 62 -23 11 18 5 314 -7 365 -6 26 -23 60 -36 75
-25 26 -27 26 -119 21 -76 -5 -98 -3 -118 11 -31 20 -29 20 -51 -4z m271 -35
c29 -9 46 -105 46 -252 0 -80 -3 -148 -7 -151 -3 -3 -12 1 -21 9 -12 13 -15
44 -15 163 0 81 -4 159 -10 173 -9 24 -12 25 -67 21 -33 -3 -65 0 -75 6 -33
20 -38 -9 -31 -179 4 -107 10 -167 20 -181 11 -19 11 -22 -5 -27 -41 -10 -51
9 -51 96 0 116 -17 307 -29 320 -7 9 21 11 112 9 67 -2 127 -5 133 -7z"/>
<path d="M2892 714 c-66 -56 -75 -81 -76 -220 -1 -117 0 -122 29 -169 23 -37
38 -51 65 -58 78 -20 151 37 166 130 6 39 4 44 -17 52 -19 8 -28 5 -41 -11
-10 -11 -18 -28 -18 -37 0 -24 -20 -41 -47 -41 -27 0 -45 34 -47 89 -1 30 3
35 29 43 17 5 49 9 71 9 67 0 79 21 65 114 -13 90 -23 113 -57 125 -47 18 -79
11 -122 -26z m112 5 c32 -15 58 -90 54 -151 l-3 -43 -50 -7 c-107 -15 -113
-17 -120 -54 -4 -24 0 -48 14 -79 18 -41 23 -45 55 -45 38 0 58 20 70 73 10
43 36 34 36 -13 0 -52 -57 -120 -101 -120 -55 0 -79 17 -106 76 -23 51 -25 65
-20 148 9 171 78 257 171 215z"/>
<path d="M2926 663 c-31 -33 -50 -78 -42 -98 6 -18 86 -21 117 -5 29 16 26 74
-6 105 -31 31 -38 31 -69 -2z m64 -19 c22 -25 7 -57 -29 -67 -62 -16 -74 8
-35 70 14 23 44 22 64 -3z"/>
<path d="M4120 740 c0 -6 11 -15 24 -20 37 -14 43 -34 49 -160 4 -63 11 -151
16 -194 6 -44 9 -82 7 -84 -3 -2 -13 1 -24 7 -24 13 -30 51 -38 209 -6 147
-13 202 -24 202 -5 0 -12 9 -15 20 -3 11 -13 20 -21 20 -18 0 -18 -14 0 -29
23 -20 36 -98 40 -256 2 -82 7 -157 11 -166 12 -31 75 -48 104 -30 12 8 12 14
-1 43 -9 19 -20 93 -27 173 -6 77 -14 162 -16 189 -2 27 -12 57 -21 67 -18 20
-64 26 -64 9z"/>
<path d="M3158 733 c-23 -6 -22 -8 4 -43 20 -28 21 -35 15 -214 -7 -202 -5
-211 50 -204 48 5 55 35 47 195 -7 159 -12 147 69 157 l48 6 -3 -163 c-3 -145
-1 -165 16 -189 23 -34 46 -35 75 -4 21 22 22 28 12 82 -5 33 -13 111 -16 174
-7 143 -11 164 -36 186 -19 17 -23 17 -94 -1 -73 -18 -73 -18 -114 4 -23 11
-45 20 -49 20 -4 -1 -15 -3 -24 -6z m68 -34 c33 -20 34 -20 115 -3 106 23 105
25 113 -154 4 -75 11 -159 16 -187 7 -43 6 -53 -10 -69 -18 -18 -18 -18 -35 7
-13 21 -17 55 -18 189 l-2 163 -48 -3 c-27 -2 -60 -7 -73 -13 l-25 -9 3 -154
c3 -168 -1 -183 -46 -172 -29 7 -31 24 -18 151 8 74 1 228 -12 258 -11 22 -1
22 40 -4z"/>
<path d="M4326 719 c-19 -28 -21 -53 -3 -67 20 -17 66 -22 94 -11 15 5 39 7
55 4 23 -5 28 -12 28 -35 0 -26 -3 -28 -54 -32 -101 -8 -155 -76 -143 -179 11
-88 56 -139 122 -139 30 0 75 21 94 44 19 23 28 20 43 -11 15 -33 62 -42 93
-19 19 14 19 14 -4 61 -24 49 -37 133 -44 283 -4 95 -15 113 -68 111 -19 0
-50 -1 -69 -1 -19 -1 -56 2 -81 7 -42 7 -48 5 -63 -16z m137 -18 c47 13 94 11
111 -6 11 -11 15 -40 15 -117 1 -133 8 -182 36 -241 18 -38 20 -50 9 -54 -28
-11 -49 3 -64 44 -20 56 -28 61 -39 29 -13 -33 -66 -66 -108 -66 -36 0 -68 25
-84 67 -15 39 -14 125 1 149 28 45 103 69 157 51 19 -7 22 -4 25 25 7 68 -20
91 -89 77 -72 -15 -125 18 -89 54 14 14 19 13 51 -3 28 -14 43 -16 68 -9z"/>
<path d="M4435 507 c-22 -7 -46 -16 -53 -20 -27 -18 -5 -106 34 -132 21 -14
27 -14 52 -1 28 14 62 63 56 81 -1 6 -5 27 -9 48 -7 41 -13 43 -80 24z m59
-29 c16 -61 -6 -108 -50 -108 -16 0 -29 10 -39 31 -24 45 -16 72 25 86 50 17
57 16 64 -9z"/>
<path d="M5203 729 c-36 -11 -73 -62 -73 -103 0 -55 42 -107 118 -145 37 -19
42 -25 42 -55 0 -19 -3 -41 -6 -50 -9 -24 -49 -19 -82 9 -37 31 -56 32 -76 3
-39 -56 -3 -111 80 -124 57 -8 83 -1 124 35 30 26 34 36 38 90 2 33 1 77 -2
97 -9 43 -49 84 -76 77 -20 -5 -70 39 -70 63 0 17 23 30 28 16 7 -23 40 -34
65 -21 55 30 51 68 -12 97 -54 24 -53 24 -98 11z m97 -32 c31 -16 37 -43 12
-56 -16 -8 -25 -6 -45 9 -32 25 -44 25 -57 0 -8 -16 -8 -28 2 -50 13 -30 34
-44 81 -55 42 -9 61 -62 53 -143 -8 -74 -20 -97 -58 -113 -42 -17 -118 -6
-140 21 -22 27 -22 40 -4 66 14 19 15 19 38 -2 34 -32 66 -46 87 -39 37 11 56
89 36 143 -2 7 -24 21 -47 32 -50 22 -68 36 -91 70 -55 80 40 164 133 117z"/>
<path d="M1983 705 c-31 -13 -60 -51 -49 -63 3 -3 6 0 6 7 0 7 18 20 41 30 77
35 130 -1 145 -98 8 -48 6 -49 -87 -59 -63 -7 -64 -8 -67 -38 -7 -74 60 -150
94 -107 8 10 17 28 20 41 10 37 38 23 42 -20 3 -30 -2 -43 -23 -64 -23 -23
-32 -25 -68 -20 -52 9 -65 20 -90 76 -15 35 -20 67 -20 143 0 53 -3 97 -8 97
-30 0 -22 -205 10 -269 33 -64 103 -95 161 -71 65 27 85 170 23 170 -18 0 -28
-8 -38 -34 -19 -45 -33 -53 -56 -30 -24 24 -38 106 -18 104 52 -8 111 2 129
20 41 41 16 144 -42 180 -38 23 -61 24 -105 5z"/>
<path d="M9157 709 c-9 -5 -22 -7 -27 -4 -19 12 -10 -25 15 -63 24 -36 25 -45
26 -194 1 -138 4 -159 19 -173 28 -25 51 -14 67 30 17 47 18 168 2 244 -9 43
-8 55 3 62 23 16 52 5 58 -21 5 -21 12 -25 40 -25 34 0 35 1 32 35 -8 96 -37
121 -111 99 -31 -9 -43 -8 -69 5 -36 19 -32 18 -55 5z m107 -36 c17 3 38 8 46
11 25 10 49 -16 56 -61 8 -50 -7 -58 -26 -14 -15 37 -29 42 -74 29 -30 -10
-36 -16 -36 -39 0 -15 5 -40 11 -56 12 -33 13 -175 1 -218 -11 -40 -42 -47
-42 -10 0 210 -6 303 -22 328 -10 14 -15 33 -12 41 5 14 9 14 37 0 18 -10 43
-14 61 -11z"/>
<path d="M7405 699 c-16 -5 -40 -17 -52 -27 -19 -14 -21 -22 -14 -47 8 -32 13
-33 84 -20 44 9 77 -13 77 -52 0 -25 -18 -30 -51 -13 -14 8 -27 7 -49 -5 -43
-22 -63 -59 -71 -129 -8 -69 6 -117 41 -136 28 -15 89 -4 116 21 20 19 20 19
42 -11 26 -34 64 -40 100 -14 29 20 28 48 -3 62 -14 6 -25 20 -26 29 0 10 -1
75 -2 145 -2 120 -3 128 -27 153 -14 15 -33 31 -44 37 -26 14 -85 17 -121 7z
m109 -29 c49 -18 58 -47 59 -196 2 -130 3 -137 26 -155 30 -25 21 -49 -20 -49
-25 0 -33 6 -42 30 -14 37 -27 38 -65 5 -34 -28 -69 -32 -98 -11 -16 12 -19
27 -19 99 0 78 2 86 25 106 27 22 79 28 97 10 8 -8 17 -8 33 1 18 9 20 17 15
43 -4 18 -17 42 -29 55 -21 24 -55 26 -113 7 -28 -9 -31 10 -7 43 12 18 25 22
64 22 27 0 60 -4 74 -10z"/>
<path d="M7418 459 c-28 -16 -25 -93 4 -113 20 -14 25 -14 52 4 25 15 32 28
36 65 4 25 4 48 1 50 -8 9 -76 5 -93 -6z m70 -46 c3 -25 -2 -35 -23 -49 -23
-15 -28 -15 -36 -3 -31 47 -15 92 30 87 21 -2 27 -9 29 -35z"/>
<path d="M8055 700 c-3 -5 -15 -10 -26 -10 -25 0 -24 -22 2 -39 21 -13 22 -17
16 -172 -6 -152 -5 -161 14 -180 17 -17 31 -20 77 -17 62 3 69 -4 46 -52 -24
-51 -48 -63 -127 -64 -75 -1 -107 -14 -107 -43 0 -14 59 -45 71 -37 4 2 38 6
75 8 92 6 131 27 154 81 10 24 34 66 54 94 39 58 46 98 49 299 2 136 -3 147
-58 136 -42 -9 -47 -20 -40 -89 17 -178 17 -200 2 -219 -13 -18 -18 -19 -56
-8 -46 14 -44 8 -41 139 1 74 -14 146 -36 164 -18 15 -62 21 -69 9z m67 -44
c7 -12 13 -72 14 -140 2 -134 7 -144 72 -153 35 -5 42 -2 57 21 15 23 17 44
12 152 -4 103 -2 127 10 140 33 32 38 11 38 -152 0 -170 -6 -198 -54 -262 -13
-18 -34 -55 -46 -81 -20 -42 -28 -49 -66 -59 -80 -20 -154 -23 -175 -7 -29 22
0 35 66 29 92 -8 153 37 166 124 l7 44 -65 -7 c-48 -5 -67 -4 -75 7 -9 10 -21
327 -14 370 2 13 42 -6 53 -26z"/>
<path d="M8920 699 c0 -4 7 -23 15 -42 11 -27 15 -76 15 -192 0 -142 2 -157
20 -175 24 -24 78 -26 106 -5 19 15 19 15 0 30 -24 18 -32 64 -35 200 -3 114
-16 166 -48 183 -20 11 -73 11 -73 1z m80 -34 c9 -11 14 -60 17 -148 2 -72 8
-147 13 -167 14 -50 13 -60 -9 -60 -36 0 -42 24 -46 177 -1 81 -6 163 -10 181
-6 25 -4 32 8 32 8 0 20 -7 27 -15z"/>
<path d="M6570 654 c-17 -15 -37 -41 -45 -60 -18 -45 -30 -211 -17 -246 24
-59 123 -101 180 -75 29 13 75 101 67 127 -11 34 -35 32 -70 -6 -26 -28 -39
-35 -61 -32 -26 3 -29 8 -32 41 -3 32 0 38 23 47 14 6 40 10 56 10 44 0 69 31
69 88 0 108 -96 168 -170 106z m121 -25 c23 -25 29 -40 29 -78 0 -59 -6 -67
-58 -74 -61 -8 -92 -31 -92 -67 0 -70 73 -87 121 -29 32 39 50 32 39 -15 -10
-45 -16 -53 -50 -71 -37 -19 -79 -11 -122 25 l-33 28 0 108 c0 95 3 114 22
145 41 65 99 76 144 28z"/>
<path d="M6595 586 c-32 -31 -35 -37 -25 -56 10 -19 17 -21 53 -16 50 8 57 13
57 37 0 10 5 19 10 19 6 0 10 5 10 10 0 6 -6 10 -14 10 -7 0 -19 7 -26 15 -18
21 -24 19 -65 -19z m65 -21 c0 -23 -17 -35 -50 -35 -32 0 -35 22 -6 46 31 27
56 22 56 -11z"/>
<path d="M1983 626 c-22 -48 -12 -66 36 -66 60 0 85 34 61 81 -8 13 -21 19
-46 19 -29 0 -37 -5 -51 -34z m84 2 c15 -34 5 -48 -33 -48 -29 0 -34 3 -34 25
0 42 50 59 67 23z"/>
<path d="M3885 560 c-2 -3 -5 -23 -6 -44 l-4 -40 65 -3 c92 -3 102 1 98 45
l-3 37 -73 5 c-41 3 -75 3 -77 0z m132 -36 c10 -26 -11 -36 -62 -27 -58 10
-71 30 -23 36 67 8 79 7 85 -9z"/>
<path d="M8404 541 c-6 -6 -5 -57 2 -75 5 -12 21 -16 64 -16 78 0 88 18 13 22
-45 2 -59 7 -61 20 -3 18 4 21 79 33 35 5 37 4 43 -27 8 -41 26 -24 19 18 l-5
32 -75 -2 c-41 0 -76 -3 -79 -5z"/>
<path d="M9782 364 c-31 -21 -30 -71 1 -83 13 -5 36 -7 51 -4 26 5 28 8 23 45
-3 22 -7 41 -9 43 -14 12 -47 12 -66 -1z m45 -30 c6 -16 -12 -34 -34 -34 -14
0 -18 32 -6 43 12 12 34 7 40 -9z"/>
<path d="M5416 354 c-13 -33 -6 -62 15 -67 11 -3 27 -3 35 0 17 6 29 46 20 68
-7 20 -62 20 -70 -1z m49 -14 c12 -19 -3 -39 -23 -33 -14 3 -18 11 -15 24 6
21 28 26 38 9z"/>
</g>
</svg>
