<?xml version="1.0" standalone="no"?>
<!DOCTYPE svg PUBLIC "-//W3C//DTD SVG 20010904//EN"
 "http://www.w3.org/TR/2001/REC-SVG-20010904/DTD/svg10.dtd">
<svg version="1.0" xmlns="http://www.w3.org/2000/svg"
 width="1220.000000pt" height="922.000000pt" viewBox="0 0 1220.000000 922.000000"
 preserveAspectRatio="xMidYMid meet">
<metadata>
Created by potrace 1.16, written by Peter Selinger 2001-2019
</metadata>
<g transform="translate(0.000000,922.000000) scale(0.100000,-0.100000)"
fill="#000000" stroke="none">
<path d="M8770 8818 c-70 -8 -106 -22 -114 -45 -9 -22 12 -52 39 -59 38 -9 50
-30 23 -37 -13 -4 -28 -15 -35 -25 -14 -23 0 -39 95 -108 34 -25 86 -75 115
-111 28 -36 71 -87 94 -114 24 -27 46 -62 49 -77 4 -15 10 -31 15 -37 11 -15
56 -138 75 -204 8 -31 20 -72 25 -91 6 -19 19 -71 30 -115 19 -77 23 -104 33
-225 l5 -55 -97 -22 c-129 -30 -208 -40 -317 -42 -49 -1 -116 -9 -148 -17 -32
-8 -72 -12 -90 -9 -18 4 -46 1 -62 -6 -17 -7 -37 -11 -47 -10 -9 1 -19 -3 -23
-9 -5 -8 -12 -5 -21 8 -12 17 -23 19 -77 17 -35 -2 -70 0 -77 5 -7 5 -25 3
-39 -3 -14 -6 -91 -12 -171 -13 -381 -7 -512 -17 -530 -39 -9 -11 -17 -12 -31
-4 -68 36 -301 -27 -273 -73 4 -5 -3 -19 -13 -31 -34 -37 -35 -56 -6 -83 30
-28 38 -29 87 -9 46 20 55 40 27 66 -11 11 -21 23 -21 27 0 10 137 35 150 27
7 -4 7 -12 0 -25 -16 -30 -12 -47 17 -75 35 -32 68 -32 88 -1 25 38 24 79 -2
91 -34 15 -28 25 15 25 20 0 64 7 97 14 35 8 109 13 175 13 l116 -1 -4 -29
c-7 -48 39 -62 105 -30 30 14 39 14 57 3 27 -17 123 -40 231 -56 16 -2 34 -9
39 -14 6 -6 21 -10 34 -10 27 0 123 -29 137 -41 5 -5 19 -9 31 -9 30 0 37 -14
38 -74 1 -43 4 -51 21 -54 19 -3 22 5 32 84 6 47 7 101 3 120 -5 20 -4 37 2
40 5 4 1 15 -10 28 -10 11 -22 29 -25 39 -4 9 -21 20 -39 24 -31 6 -31 6 -8
15 13 5 30 6 37 3 8 -2 34 0 58 5 24 5 76 12 117 16 105 8 130 11 158 17 14 4
59 8 100 11 78 5 143 26 157 50 4 7 17 15 28 18 18 3 20 11 20 73 0 104 -17
197 -61 345 -60 200 -69 228 -96 285 -15 33 -28 66 -28 73 0 7 -28 50 -62 95
-80 107 -82 109 -158 185 -36 36 -56 61 -45 57 11 -4 30 -10 43 -12 12 -3 57
-39 100 -79 42 -41 80 -74 83 -74 4 0 9 -6 13 -12 3 -7 17 -31 30 -53 53 -86
81 -153 110 -265 8 -30 23 -89 35 -130 18 -68 26 -123 35 -245 2 -22 9 -59 15
-83 7 -23 11 -64 9 -89 -3 -41 0 -48 22 -60 14 -7 28 -9 31 -5 19 21 -32 409
-71 537 -5 17 -23 77 -40 135 -18 58 -42 125 -53 150 -33 67 -120 202 -156
241 -17 19 -35 38 -39 42 -20 22 -120 89 -140 94 -14 3 -21 11 -18 19 3 7 1
16 -4 19 -6 4 -10 1 -10 -4 0 -16 -26 -13 -40 4 -11 13 -6 15 33 15 32 0 49
-5 55 -16 7 -13 13 -14 29 -6 15 9 31 5 72 -13 29 -14 69 -32 89 -41 87 -37
95 -42 177 -96 40 -26 120 -103 193 -188 34 -39 77 -110 125 -205 29 -59 109
-275 114 -310 5 -39 25 -107 34 -120 4 -5 10 -30 14 -55 5 -37 3 -50 -14 -72
-25 -31 -26 -44 -6 -52 26 -9 45 5 45 34 0 15 7 33 15 40 9 7 15 29 15 50 0
46 -43 214 -75 290 -12 30 -28 73 -35 95 -26 84 -141 296 -192 357 -20 23 -49
59 -65 78 -51 62 -114 115 -176 147 -151 78 -246 121 -292 132 -27 7 -59 16
-70 20 -11 4 -49 4 -85 -1z"/>
<path d="M9756 7632 c-16 -15 -2 -48 35 -83 23 -22 39 -43 35 -46 -3 -4 -12 1
-19 9 -17 22 -82 50 -104 46 -32 -6 -28 -45 6 -63 17 -8 31 -22 31 -30 0 -7 9
-17 21 -20 15 -5 19 -13 16 -27 -4 -12 1 -22 11 -25 8 -4 23 -14 32 -23 16
-16 16 -18 1 -28 -15 -10 -15 -12 1 -22 33 -20 57 -76 66 -151 5 -42 15 -85
21 -97 11 -20 16 -172 6 -172 -3 0 -16 7 -29 15 -21 14 -24 14 -36 0 -10 -12
-10 -18 1 -32 11 -15 11 -16 -1 -5 -41 36 -83 -13 -85 -98 -1 -30 -4 -63 -9
-72 -4 -9 -3 -25 3 -37 6 -11 11 -28 11 -39 0 -13 9 -22 25 -26 14 -4 25 -11
25 -17 0 -6 -4 -8 -9 -5 -4 3 -15 0 -24 -7 -14 -11 -14 -16 -2 -44 9 -22 21
-33 35 -33 11 0 20 -5 20 -11 0 -5 -5 -7 -10 -4 -22 14 -38 -15 -33 -58 6 -49
24 -72 48 -63 14 5 16 14 11 41 -4 22 -3 35 4 35 5 0 10 -5 10 -11 0 -6 7 -17
15 -25 19 -20 20 -64 1 -64 -19 0 -24 -18 -18 -59 l5 -34 -36 29 c-21 16 -38
34 -38 39 -1 6 -3 20 -4 33 -1 13 -7 28 -13 34 -5 5 -8 26 -5 46 5 34 1 40
-35 70 -44 35 -69 40 -78 17 -8 -19 22 -65 41 -65 8 0 15 -6 15 -14 0 -7 6
-19 14 -25 10 -9 12 -20 6 -42 -11 -36 3 -87 28 -105 26 -18 34 -51 15 -58
-20 -8 -33 1 -33 25 0 11 -12 32 -26 46 -20 20 -25 32 -20 55 6 33 -24 71 -49
62 -12 -5 -14 -17 -9 -63 4 -31 13 -63 20 -72 8 -8 14 -24 14 -34 0 -14 -6
-17 -32 -13 -40 6 -58 1 -58 -18 0 -9 10 -14 27 -14 14 0 35 -7 45 -16 25 -23
114 -29 144 -10 16 11 30 13 47 7 23 -9 49 -1 75 26 7 7 22 13 32 13 28 0 32
14 31 93 -1 81 -14 124 -54 186 -36 55 -37 87 -5 142 79 139 85 169 64 369 -8
85 -24 182 -34 215 -17 50 -29 130 -36 230 -1 11 -4 25 -7 30 -4 6 -12 27 -18
47 -18 55 -123 142 -145 120z m170 -800 c-4 -3 -14 2 -24 12 -16 18 -16 18 6
6 13 -6 21 -14 18 -18z m-6 -44 c0 -14 -17 -9 -41 12 l-24 19 33 -12 c17 -6
32 -15 32 -19z"/>
<path d="M9614 7585 c-4 -8 -14 -15 -25 -15 -10 0 -45 -16 -78 -35 -32 -19
-68 -35 -78 -35 -11 0 -28 -6 -38 -14 -18 -13 -18 -14 3 -25 23 -12 122 -5
122 9 0 3 21 17 46 29 25 13 48 29 51 37 3 8 11 14 18 14 21 0 36 25 23 38
-16 16 -37 15 -44 -3z"/>
<path d="M9348 7302 c-53 -56 -56 -60 -53 -105 3 -44 1 -49 -37 -81 -28 -23
-39 -38 -35 -50 9 -24 32 -20 69 12 18 15 52 40 76 55 43 28 51 44 31 64 -9 9
-6 19 11 40 19 24 19 28 6 31 -14 3 -14 6 0 34 15 29 13 58 -4 58 -5 0 -34
-26 -64 -58z"/>
<path d="M7084 7341 c-71 -6 -87 -13 -131 -60 -29 -30 -20 -44 26 -39 28 4 41
0 58 -19 12 -12 31 -23 41 -23 24 0 46 25 39 44 -4 10 2 17 16 22 27 8 67 43
67 60 0 11 -24 26 -38 22 -4 -1 -39 -4 -78 -7z"/>
<path d="M8667 7337 c-8 -20 4 -34 36 -42 27 -7 28 -6 25 21 -2 23 -9 30 -29
32 -16 2 -29 -3 -32 -11z"/>
<path d="M6687 7304 c-3 -3 -3 -12 -1 -19 6 -14 -25 -25 -73 -25 -23 0 -33 5
-33 15 0 8 -5 15 -11 15 -6 0 -9 -9 -6 -19 3 -15 -2 -20 -24 -25 -31 -6 -129
-92 -129 -113 0 -42 74 -66 134 -43 29 11 26 35 -5 45 -22 7 -24 15 -6 37 16
22 130 37 122 17 -6 -17 4 -33 31 -47 16 -9 27 -7 52 8 33 21 34 42 3 68 -14
10 -11 11 14 6 17 -4 39 -13 50 -20 26 -18 54 -18 61 1 3 8 14 17 24 20 24 8
35 42 19 61 -8 10 -22 13 -45 8 -22 -4 -40 -2 -49 6 -12 10 -21 10 -42 1 -18
-8 -29 -9 -37 -1 -11 11 -39 14 -49 4z"/>
<path d="M7682 7298 c-18 -18 -14 -53 8 -73 24 -22 79 -14 105 15 18 20 18 21
-5 45 -26 27 -86 35 -108 13z"/>
<path d="M9651 7281 c-6 -10 -27 -22 -46 -25 -20 -4 -39 -14 -42 -22 -3 -7
-16 -14 -30 -14 -24 0 -25 0 -18 -67 8 -76 19 -103 40 -103 8 0 15 -6 15 -14
0 -24 29 -41 49 -29 14 9 22 8 35 -5 13 -14 20 -14 36 -4 11 6 33 12 50 12 29
0 57 30 45 49 -3 5 3 12 14 16 25 8 33 31 16 45 -9 8 -12 22 -9 40 5 22 1 31
-15 39 -12 7 -21 20 -21 31 0 11 -9 24 -21 30 -17 9 -23 8 -35 -7 -14 -17 -15
-17 -9 4 4 15 0 25 -14 32 -26 15 -29 14 -40 -8z m39 -120 c0 -11 -31 -24 -39
-16 -3 3 1 10 9 15 19 12 30 12 30 1z"/>
<path d="M8740 7280 c0 -5 5 -10 10 -10 6 0 10 5 10 10 0 6 -4 10 -10 10 -5 0
-10 -4 -10 -10z"/>
<path d="M6353 7224 c-18 -18 -22 -29 -15 -36 24 -24 102 -6 102 23 0 13 -30
39 -46 39 -8 0 -27 -12 -41 -26z"/>
<path d="M6920 7206 c-18 -23 -8 -59 21 -75 23 -13 30 -12 65 5 48 23 57 55
19 72 -36 16 -90 15 -105 -2z"/>
<path d="M7910 7200 c-35 -35 -24 -60 33 -81 44 -16 63 -4 73 47 5 28 3 31
-34 42 -50 15 -48 16 -72 -8z"/>
<path d="M8156 7198 c-21 -29 -20 -51 2 -71 27 -24 59 -21 78 8 20 30 11 58
-22 73 -34 16 -41 15 -58 -10z"/>
<path d="M8260 7206 c0 -7 7 -19 15 -26 12 -10 14 -24 10 -55 -7 -44 1 -57 43
-70 16 -5 30 -1 43 11 28 25 24 38 -20 67 -22 15 -47 40 -57 57 -19 32 -34 39
-34 16z"/>
<path d="M6240 7203 c-34 -5 -232 -41 -305 -55 -82 -15 -164 -53 -174 -81 -12
-31 -5 -37 32 -26 52 15 65 11 40 -10 -30 -25 -29 -58 1 -72 35 -16 60 1 63
45 3 47 28 83 65 91 43 10 57 -7 36 -43 -15 -25 -15 -31 -3 -49 21 -30 69 -45
91 -28 16 11 16 15 5 29 -7 9 -20 16 -27 16 -23 0 -16 20 11 30 28 11 31 22
11 39 -9 8 -21 8 -39 2 -20 -8 -25 -7 -21 2 4 12 162 42 172 33 2 -3 -6 -14
-17 -25 -12 -12 -21 -24 -21 -28 0 -15 40 -73 49 -73 31 0 113 24 126 36 20
20 8 44 -24 45 -15 0 -20 3 -11 6 33 12 40 34 22 67 -17 30 -42 56 -52 54 -3
0 -16 -3 -30 -5z"/>
<path d="M7652 7159 c-35 -13 -28 -70 10 -83 66 -23 162 45 113 80 -21 16 -88
18 -123 3z"/>
<path d="M6613 7112 c-44 -21 -60 -62 -38 -95 27 -41 114 -67 139 -41 23 23
20 32 -20 56 l-35 21 23 24 c23 24 23 25 4 39 -23 17 -31 16 -73 -4z"/>
<path d="M6743 7119 c-17 -17 -16 -54 0 -68 8 -6 28 -14 46 -17 53 -11 94 44
56 76 -22 18 -88 24 -102 9z"/>
<path d="M7334 7094 c-16 -24 -16 -27 3 -52 37 -50 102 -36 118 25 9 36 -11
53 -61 53 -36 0 -47 -5 -60 -26z"/>
<path d="M9309 7071 c-88 -58 -107 -77 -91 -93 6 -6 8 -17 5 -24 -7 -20 17
-46 36 -39 19 6 58 -50 42 -59 -5 -3 -12 1 -15 10 -10 25 -23 7 -18 -24 4 -27
2 -29 -27 -28 -22 1 -31 7 -36 24 -7 28 -41 30 -50 2 -3 -10 1 -43 9 -71 9
-29 14 -55 11 -57 -3 -3 -26 -6 -52 -7 -60 -2 -103 -14 -103 -28 0 -7 -4 -7
-12 1 -7 7 -25 12 -40 12 -31 0 -33 3 -17 31 9 17 7 21 -10 26 -25 7 -25 4 -1
46 20 33 20 34 1 55 -18 21 -51 30 -51 14 0 -16 -46 -28 -78 -19 -19 5 -40 6
-48 3 -19 -7 -18 -35 1 -57 15 -16 12 -69 -4 -69 -17 1 -39 51 -45 105 -14
120 -42 179 -71 155 -33 -27 38 -300 78 -300 4 0 7 -11 7 -25 0 -42 37 -58
108 -45 33 6 77 11 99 12 21 1 48 7 60 15 14 10 23 11 28 4 9 -16 51 -13 86 4
23 12 34 13 50 4 12 -6 39 -9 61 -7 38 4 42 2 55 -30 11 -28 18 -33 41 -30 24
3 27 7 25 36 -1 39 -37 82 -67 82 -12 0 -28 5 -36 10 -12 8 -9 10 13 10 40 0
77 40 77 85 0 29 5 37 26 45 18 7 25 16 23 33 -2 12 5 34 15 49 20 31 14 48
-17 48 l-21 0 22 16 c28 19 28 32 0 43 -22 9 -21 10 15 25 26 12 37 22 35 34
-6 31 -42 23 -119 -27z m27 -119 c-3 -5 -16 -12 -28 -15 -22 -6 -22 -6 2 13
25 19 37 20 26 2z m-478 -243 c7 -12 12 -22 10 -24 -5 -4 -78 -14 -78 -10 0 6
45 55 50 55 3 0 11 -9 18 -21z"/>
<path d="M7118 7104 c-16 -16 -8 -73 11 -84 37 -19 78 -12 99 18 17 24 18 30
6 46 -14 20 -102 35 -116 20z"/>
<path d="M8028 7079 c-29 -17 -22 -57 13 -78 l32 -20 -34 -5 c-19 -3 -60 -7
-91 -11 l-58 -5 11 24 c10 20 8 30 -10 55 -18 24 -30 31 -56 31 -29 0 -36 -4
-41 -25 -9 -37 3 -73 28 -81 l23 -7 -22 -8 c-21 -8 -93 -21 -181 -33 -38 -6
-43 -4 -38 11 20 72 18 81 -14 98 -41 21 -78 13 -86 -20 -10 -39 3 -72 31 -79
45 -11 26 -26 -34 -26 -33 0 -71 -4 -85 -10 -14 -5 -51 -12 -83 -15 -32 -4
-87 -10 -123 -15 -82 -12 -82 -12 -75 0 4 6 8 21 11 35 7 39 -51 68 -100 49
-20 -8 -21 -53 -1 -80 14 -21 12 -22 -38 -33 -76 -16 -181 -46 -277 -80 -47
-16 -102 -31 -122 -34 -32 -5 -37 -3 -40 16 -2 14 -11 23 -25 25 -26 4 -29 -9
-10 -38 10 -17 9 -22 -3 -30 -24 -15 -39 -12 -33 8 3 12 -4 24 -21 35 -23 15
-24 21 -19 73 l6 56 -44 -7 c-73 -13 -108 -49 -95 -101 7 -25 52 -54 85 -54
25 0 38 -20 20 -31 -8 -5 -30 -11 -49 -14 -19 -3 -58 -13 -87 -22 -52 -16
-103 -12 -103 8 0 6 9 13 20 16 29 8 21 37 -11 41 -29 3 -89 -40 -89 -64 0 -8
11 -19 25 -24 14 -5 25 -11 25 -14 0 -2 -21 -11 -47 -20 -39 -13 -52 -14 -75
-4 -31 14 -35 23 -13 32 21 8 19 29 -5 51 -23 21 -84 14 -94 -10 -9 -24 5 -72
25 -91 11 -9 19 -21 19 -25 0 -5 -26 -16 -57 -25 -127 -37 -420 -169 -458
-208 -8 -8 -28 -17 -45 -21 -16 -4 -42 -20 -57 -36 -16 -16 -31 -29 -35 -29
-4 0 -33 -12 -65 -26 -109 -48 -126 -57 -228 -122 -11 -6 -45 -24 -75 -39 -67
-33 -111 -64 -167 -117 -49 -46 -54 -71 -17 -88 21 -10 35 -9 74 5 26 9 55 17
64 17 31 0 76 30 76 50 0 23 -37 28 -71 9 -11 -5 -27 -9 -35 -7 -21 4 72 74
111 84 28 6 83 39 95 55 3 4 30 19 60 33 55 26 124 64 170 95 13 9 59 34 101
56 171 89 225 118 239 129 8 7 40 20 70 30 30 10 69 24 85 31 17 7 71 29 120
48 50 19 131 51 181 71 51 20 100 36 110 36 11 0 55 11 99 25 44 14 109 32
145 40 122 27 275 65 295 74 34 16 116 39 215 62 96 21 113 24 320 53 189 27
254 38 282 48 57 21 59 -30 2 -52 -19 -8 -34 -17 -34 -21 0 -4 -16 -10 -35
-13 -26 -5 -36 -13 -41 -31 -4 -18 -13 -25 -29 -25 -34 0 -55 -10 -55 -26 0
-8 -6 -14 -12 -14 -7 0 -30 -5 -50 -11 -27 -7 -38 -15 -38 -29 0 -14 -10 -21
-35 -26 -25 -4 -37 -13 -41 -28 -4 -16 -18 -26 -50 -34 -38 -10 -44 -16 -46
-39 0 -16 -2 -34 -2 -40 -1 -7 -9 -20 -18 -29 -16 -16 -16 -19 3 -46 24 -33
30 -34 81 -11 31 14 39 23 44 52 4 20 10 41 14 46 5 6 8 14 7 20 -1 5 7 10 18
10 12 0 21 9 25 25 4 19 14 26 40 30 25 4 38 13 47 31 9 18 24 29 47 33 19 4
37 13 40 21 3 8 13 15 23 15 28 0 68 24 68 40 0 9 12 16 32 18 19 2 37 12 47
26 8 13 28 26 45 29 17 4 31 13 31 21 0 7 7 17 16 20 10 4 14 14 11 24 -4 16
9 22 92 41 53 11 132 24 176 27 44 4 104 13 134 20 33 8 59 10 65 5 6 -5 40
-17 76 -26 88 -21 121 -35 147 -58 42 -38 91 0 57 45 -33 45 -175 82 -328 87
-21 1 -27 5 -22 16 10 27 -11 62 -45 74 -17 6 -32 11 -33 11 -1 0 -9 -5 -18
-11z"/>
<path d="M6917 7052 c-37 -40 -8 -102 47 -102 40 0 52 12 61 62 6 30 4 38 -13
47 -31 17 -77 13 -95 -7z"/>
<path d="M5493 7040 c-95 -25 -115 -36 -111 -63 4 -28 31 -33 77 -14 47 20
104 30 96 17 -3 -6 5 -10 20 -10 33 0 24 -15 -22 -38 -67 -32 -69 -68 -7 -104
56 -32 79 -32 115 0 36 32 34 47 -11 56 l-31 6 26 34 c28 37 26 56 -5 56 -25
0 -46 36 -25 44 24 9 6 36 -24 35 -14 0 -58 -9 -98 -19z"/>
<path d="M6397 7016 c-20 -25 -37 -53 -37 -64 0 -26 41 -62 73 -62 48 0 128
22 134 36 10 26 -18 46 -54 41 -44 -8 -52 10 -17 38 25 20 27 25 15 39 -7 9
-28 16 -45 16 -25 0 -39 -9 -69 -44z"/>
<path d="M5660 7020 c0 -5 7 -10 16 -10 8 0 12 5 9 10 -3 6 -10 10 -16 10 -5
0 -9 -4 -9 -10z"/>
<path d="M4716 6994 c-14 -15 -26 -34 -26 -43 1 -21 24 -51 40 -51 7 0 18 -7
24 -16 7 -8 23 -17 36 -18 14 -2 42 -9 62 -16 41 -15 63 -6 53 22 -7 17 -92
58 -119 58 -9 0 -16 5 -16 11 0 13 73 3 110 -16 46 -24 63 -51 56 -90 -9 -44
-49 -60 -72 -27 -15 21 -70 42 -111 42 -18 0 -23 -6 -23 -24 0 -24 16 -36 48
-36 42 -1 45 -17 9 -53 -31 -30 -35 -39 -28 -64 4 -15 15 -29 25 -31 26 -5 48
18 41 45 -3 14 -1 23 7 23 6 0 19 7 28 15 9 8 36 19 61 23 51 10 132 58 126
75 -2 7 -14 13 -26 15 -25 4 -39 28 -24 43 6 6 14 4 23 -6 20 -24 49 -18 56
12 6 21 2 31 -20 50 -32 28 -51 29 -66 6 -10 -17 -10 -17 -20 0 -15 23 -63 47
-130 63 -78 19 -94 17 -124 -12z"/>
<path d="M9823 6994 c-6 -16 15 -37 29 -28 4 3 8 14 8 25 0 23 -28 26 -37 3z"/>
<path d="M6176 6960 c-63 -32 -74 -70 -32 -109 31 -29 125 -41 144 -18 10 12
10 18 -3 31 -9 9 -23 16 -31 16 -11 0 -12 4 -4 19 14 27 13 47 -6 65 -19 20
-20 20 -68 -4z"/>
<path d="M6744 6943 c-27 -30 -34 -43 -29 -63 11 -45 30 -55 103 -55 60 0 67
2 67 20 0 12 -8 21 -20 23 -11 2 -24 8 -29 12 -5 5 1 6 13 3 22 -6 30 14 12
33 -5 5 -11 20 -13 34 -2 20 -9 26 -36 28 -28 3 -39 -3 -68 -35z"/>
<path d="M7250 6965 c-29 -35 27 -87 87 -78 39 6 51 45 22 74 -23 23 -91 26
-109 4z"/>
<path d="M5141 6911 c-28 -21 -23 -51 9 -51 39 0 92 28 88 47 -5 26 -66 28
-97 4z"/>
<path d="M5884 6918 c-33 -15 -50 -53 -38 -85 11 -33 61 -47 117 -32 43 11 48
33 12 52 l-26 13 21 19 c33 30 25 45 -22 44 -24 0 -53 -5 -64 -11z"/>
<path d="M5324 6903 c-12 -2 -30 -13 -39 -23 -24 -26 -11 -59 30 -76 53 -22
87 2 48 32 -17 13 -17 15 0 25 21 13 22 35 1 43 -9 3 -16 5 -17 5 -1 -1 -12
-4 -23 -6z"/>
<path d="M6563 6880 c-30 -37 -29 -66 3 -87 36 -23 117 -24 122 -1 2 12 -8 23
-30 34 -30 14 -33 19 -30 50 4 30 2 34 -19 33 -14 0 -34 -12 -46 -29z"/>
<path d="M8730 6895 c-19 -23 1 -40 29 -26 25 14 27 27 5 35 -21 8 -20 8 -34
-9z"/>
<path d="M8050 6880 c-15 -3 -26 -14 -28 -27 -2 -14 -13 -23 -33 -27 -21 -4
-29 -11 -29 -26 0 -16 -7 -20 -31 -20 -42 0 -71 -17 -65 -38 4 -12 -7 -25 -39
-44 -32 -19 -43 -32 -39 -43 4 -9 0 -21 -9 -28 -8 -7 -21 -33 -30 -58 -12 -39
-13 -49 0 -72 16 -32 30 -33 81 -7 25 13 43 32 52 55 8 19 20 35 27 35 7 0 13
9 13 19 0 10 7 21 15 25 8 3 15 14 15 24 0 10 11 29 25 42 14 13 25 29 25 37
0 8 13 13 35 13 41 0 49 25 13 40 -20 8 -18 9 15 9 29 1 37 5 37 19 0 10 5 23
11 29 27 27 -13 55 -61 43z"/>
<path d="M7823 6870 c-26 -10 -31 -38 -9 -46 21 -8 101 22 101 37 0 17 -60 22
-92 9z"/>
<path d="M8991 6821 c-19 -15 -23 -24 -17 -47 10 -40 23 -53 61 -60 35 -6 92
16 101 40 7 19 -14 66 -30 66 -7 0 -17 -7 -20 -16 -9 -24 -59 -14 -66 13 -5
22 -6 22 -29 4z"/>
<path d="M8182 6814 c-12 -8 -22 -20 -22 -25 0 -16 -38 -46 -93 -75 -42 -21
-48 -29 -43 -48 4 -18 0 -26 -19 -34 -35 -16 -35 -72 0 -110 l25 -27 -42 -8
c-24 -5 -48 -13 -55 -19 -6 -5 -81 -15 -167 -23 -85 -7 -160 -16 -165 -19 -12
-8 -17 0 -25 41 -6 26 -4 32 13 38 12 3 21 15 21 26 0 10 9 28 19 38 11 11 21
27 23 37 1 9 16 22 31 27 16 5 46 27 68 48 22 21 44 39 49 39 10 0 50 54 50
68 0 17 -33 23 -82 13 -50 -9 -113 -54 -113 -80 0 -9 -10 -17 -24 -19 -13 -2
-26 -12 -28 -23 -4 -13 -20 -23 -49 -30 -24 -6 -44 -17 -44 -25 0 -7 -12 -19
-27 -26 -16 -7 -29 -23 -31 -36 -2 -12 -8 -22 -13 -22 -5 0 -9 -10 -9 -23 0
-13 -4 -27 -9 -32 -6 -6 -3 -24 8 -46 l18 -36 -86 -19 c-47 -10 -92 -25 -101
-34 -12 -12 -21 -14 -33 -6 -13 8 -27 5 -59 -11 -49 -26 -107 -42 -193 -54
-33 -5 -87 -13 -120 -18 -58 -9 -281 -37 -357 -45 -21 -2 -38 -1 -38 2 0 8
148 66 195 78 17 4 39 13 50 19 11 7 42 19 68 26 51 15 73 31 62 49 -12 20
-84 4 -182 -41 -24 -10 -46 -19 -51 -19 -6 0 -107 -41 -239 -97 -16 -7 -26
-37 -14 -41 26 -9 5 -22 -71 -47 -46 -15 -105 -31 -133 -35 -44 -7 -139 -32
-214 -55 -19 -7 -22 -5 -19 11 2 12 24 26 67 41 35 12 78 31 95 42 91 57 358
181 390 181 6 0 27 8 46 19 19 10 60 22 90 26 30 4 69 13 85 20 17 7 62 21
100 30 39 9 90 23 115 32 25 8 79 20 120 27 57 9 76 16 78 29 6 29 -107 23
-223 -13 -54 -16 -103 -30 -109 -30 -6 0 -47 -11 -91 -24 -44 -14 -109 -33
-145 -42 -100 -27 -419 -163 -480 -204 -8 -6 -48 -28 -89 -50 -69 -38 -76 -39
-97 -25 -29 19 -64 19 -64 1 0 -8 9 -31 21 -50 l21 -36 -24 -2 c-12 0 -30 -1
-38 0 -8 1 -28 -3 -45 -7 -16 -5 -49 -12 -73 -15 l-43 -6 34 35 c19 19 42 35
51 35 10 0 20 9 23 20 9 32 101 77 383 184 19 8 73 30 120 50 94 39 395 140
450 151 19 3 46 10 60 15 14 4 57 17 95 28 187 55 221 66 271 89 39 17 51 28
47 39 -8 22 -41 16 -213 -41 -80 -26 -163 -51 -185 -56 -126 -30 -475 -148
-595 -202 -30 -13 -82 -32 -115 -42 -64 -18 -270 -110 -296 -132 -8 -7 -20
-13 -26 -13 -5 0 -29 -13 -51 -30 -23 -16 -51 -30 -62 -30 -23 0 -70 -48 -70
-71 0 -36 -73 -49 -210 -37 -26 2 -35 -1 -35 -12 0 -17 64 -41 115 -43 69 -2
293 15 316 23 12 5 69 12 126 16 57 4 135 16 173 26 39 11 100 23 136 28 82
11 183 43 229 74 43 28 69 37 112 38 18 0 38 5 44 10 7 5 59 13 116 18 58 5
149 16 204 26 54 9 117 18 139 21 22 2 67 13 99 24 33 10 80 19 104 19 31 0
61 9 96 29 28 15 73 31 99 35 27 4 59 10 70 13 114 26 180 34 239 30 50 -4 70
-2 78 8 8 9 22 12 41 8 19 -3 38 1 55 11 14 10 52 19 87 21 34 3 78 7 97 10
19 4 53 7 75 9 22 1 48 5 58 9 39 16 56 19 137 32 63 9 87 10 93 1 5 -8 11 -6
18 7 5 9 19 17 29 17 76 0 233 71 238 109 3 18 -1 21 -35 21 -22 0 -44 -5 -51
-12 -19 -19 -83 -39 -175 -54 -49 -7 -105 -18 -126 -24 -33 -9 -137 -15 -183
-10 -25 2 -41 36 -33 70 5 21 2 31 -12 38 -15 9 -12 13 25 27 23 10 42 21 42
27 0 5 14 14 30 19 17 6 30 18 30 26 0 8 7 21 15 30 14 14 14 17 -1 34 -21 23
-33 24 -62 3z m-1752 -614 c0 -5 -8 -10 -17 -10 -15 0 -16 2 -3 10 19 12 20
12 20 0z"/>
<path d="M5711 6806 c-9 -11 -8 -18 5 -31 15 -15 18 -15 32 -1 13 12 13 18 2
30 -15 20 -24 20 -39 2z"/>
<path d="M7378 6803 c-41 -17 -45 -24 -24 -42 17 -14 76 -6 103 15 17 13 17
15 -1 29 -24 18 -30 18 -78 -2z"/>
<path d="M6086 6791 c-46 -7 -66 -31 -47 -55 24 -29 121 -16 134 18 7 17 -18
47 -36 45 -7 -1 -30 -5 -51 -8z"/>
<path d="M9352 6788 c-17 -17 -15 -36 7 -47 14 -8 22 -7 31 4 26 31 -9 72 -38
43z"/>
<path d="M5428 6769 c-26 -15 -22 -38 8 -51 23 -11 28 -10 40 7 29 39 -6 70
-48 44z"/>
<path d="M7077 6740 c-144 -29 -268 -64 -525 -149 -185 -61 -362 -118 -392
-127 -30 -9 -64 -20 -75 -24 -11 -4 -76 -26 -145 -50 -142 -48 -223 -80 -293
-117 -27 -14 -106 -54 -175 -90 -177 -90 -183 -94 -188 -108 -3 -7 -16 -16
-30 -19 -24 -6 -36 -46 -13 -46 6 0 9 -8 7 -17 -3 -18 -33 -21 -190 -23 -32 0
-47 -18 -21 -26 10 -3 30 -12 44 -20 31 -16 142 -13 164 6 7 6 17 25 20 41 4
16 11 31 16 34 5 4 9 15 9 26 0 13 7 19 21 19 12 0 45 14 73 30 75 45 73 44
176 95 52 25 102 50 110 55 29 18 156 68 220 88 36 12 110 37 165 57 55 20
129 45 165 55 36 10 79 23 95 28 124 43 346 115 375 121 19 5 46 13 60 19 54
24 257 82 286 82 16 0 57 7 89 16 33 9 71 18 85 20 24 4 24 4 3 -5 -26 -12
-29 -21 -11 -39 28 -28 96 5 83 40 -4 9 1 18 9 21 9 4 16 16 16 27 0 27 -9 26
-233 -20z"/>
<path d="M8263 6745 c-27 -19 -29 -37 -8 -55 11 -9 12 -16 5 -25 -16 -19 -1
-63 22 -71 30 -9 81 43 74 77 -3 14 -1 30 5 36 14 14 -11 40 -46 47 -20 4 -38
1 -52 -9z"/>
<path d="M4917 6724 c-6 -11 8 -50 22 -59 6 -3 14 1 17 10 7 18 -30 63 -39 49z"/>
<path d="M5134 6705 c-6 -15 12 -45 27 -45 16 0 38 31 33 45 -8 20 -53 19 -60
0z"/>
<path d="M5787 6713 c-14 -13 -6 -33 12 -33 25 0 38 20 20 31 -17 11 -24 11
-32 2z"/>
<path d="M5646 6679 c-52 -62 -10 -111 96 -113 50 -1 63 2 63 14 0 9 -11 16
-28 18 -34 4 -60 48 -36 62 22 14 -2 44 -38 48 -24 2 -36 -4 -57 -29z"/>
<path d="M5336 6684 c-20 -19 -20 -33 -1 -40 19 -8 65 22 65 41 0 20 -44 19
-64 -1z"/>
<path d="M5114 6635 c-4 -9 0 -23 9 -32 21 -21 49 -9 45 19 -4 28 -45 38 -54
13z"/>
<path d="M5354 6625 c-7 -18 3 -35 22 -35 8 0 23 -5 33 -12 20 -12 51 -5 51
12 0 14 -60 50 -83 50 -10 0 -20 -7 -23 -15z"/>
<path d="M9644 6605 c-9 -23 5 -35 42 -35 27 0 34 4 34 19 0 31 -65 45 -76 16z"/>
<path d="M9535 6590 c-21 -23 -13 -50 15 -50 21 0 27 -14 10 -25 -18 -11 -11
-34 16 -52 33 -21 58 -8 61 33 3 34 -12 54 -41 54 -20 1 -20 1 -2 15 16 12 17
17 6 30 -17 21 -43 19 -65 -5z"/>
<path d="M9355 6580 c-4 -6 -4 -32 0 -58 4 -30 1 -68 -9 -107 -9 -32 -16 -86
-16 -118 0 -32 -4 -66 -9 -76 -8 -13 0 -26 35 -60 37 -37 46 -42 59 -31 8 7
15 23 15 36 0 15 6 24 15 24 8 0 15 -9 15 -19 0 -38 66 -63 114 -45 24 9 19
41 -7 59 -15 10 -35 13 -54 9 -25 -5 -33 -2 -43 16 -15 28 -6 37 15 16 22 -22
45 -20 45 4 0 13 7 20 20 20 15 0 20 7 20 27 0 21 3 24 12 15 7 -7 18 -12 25
-12 16 0 18 72 3 101 -12 21 -50 26 -50 6 0 -9 -9 -12 -29 -9 -20 3 -32 13
-42 35 -8 18 -23 33 -34 35 -17 2 -20 11 -21 52 0 33 -7 56 -19 70 -20 22 -50
26 -60 10z m78 -219 c-11 -9 -24 -25 -28 -36 -4 -12 -9 -15 -12 -8 -2 7 3 23
11 35 9 12 16 36 16 53 l1 30 16 -29 c14 -27 14 -30 -4 -45z m47 -80 c0 -6 -4
-13 -10 -16 -5 -3 -10 1 -10 9 0 9 5 16 10 16 6 0 10 -4 10 -9z m-65 -21 c3
-5 1 -10 -4 -10 -6 0 -11 5 -11 10 0 6 2 10 4 10 3 0 8 -4 11 -10z"/>
<path d="M2540 6568 c-100 -9 -127 -21 -147 -62 -16 -34 -16 -35 16 -75 17
-22 41 -43 52 -46 34 -11 15 -30 -37 -35 -39 -4 -50 -9 -52 -25 -2 -11 -20
-31 -40 -44 -20 -13 -51 -34 -69 -45 -65 -43 -51 -70 40 -80 41 -4 80 -1 117
9 68 18 71 18 64 0 -4 -10 0 -15 12 -15 11 0 14 -3 9 -9 -6 -5 -63 -11 -129
-14 -148 -6 -164 -16 -113 -72 31 -34 39 -37 93 -40 32 -1 70 2 83 7 31 11 54
3 66 -24 8 -17 20 -24 50 -26 22 -2 43 -9 47 -15 5 -9 64 -11 215 -9 114 2
205 1 203 -2 -13 -12 -343 -25 -460 -17 -72 5 -89 3 -112 -12 -35 -23 -36 -45
-2 -57 14 -6 38 -22 53 -38 l27 -27 -42 -35 c-48 -40 -56 -55 -73 -124 -10
-41 -9 -52 2 -63 21 -22 86 -34 137 -26 25 4 48 6 53 5 4 -1 101 12 215 28
114 17 290 42 392 55 102 14 205 29 230 34 25 6 63 12 85 16 41 6 78 13 200
40 64 14 238 36 254 33 3 -1 31 4 61 10 30 6 80 14 110 17 30 3 98 15 150 27
52 11 107 20 122 20 15 0 30 4 33 9 4 5 19 9 34 9 15 0 32 5 38 11 5 5 41 14
78 20 76 10 85 14 85 35 0 15 -5 15 -105 19 -80 3 -126 14 -150 35 -12 10 -43
20 -73 22 -30 3 -61 12 -69 21 -15 15 -14 17 12 27 44 17 87 51 81 65 -3 9 8
15 37 20 81 12 95 16 101 31 7 19 -11 26 -71 28 -58 1 -66 20 -19 43 35 16 46
36 26 48 -21 13 -118 -25 -144 -56 -32 -38 -32 -46 0 -80 l26 -27 -39 -12
c-21 -7 -64 -24 -95 -37 -46 -20 -58 -30 -58 -48 0 -15 -8 -25 -22 -29 -22 -6
-22 -7 11 -36 39 -33 38 -37 -8 -46 -31 -6 -33 -5 -26 15 5 17 2 24 -13 28
-11 2 -22 13 -25 24 -3 12 -14 19 -31 19 -19 0 -24 4 -19 16 3 9 11 13 22 8
30 -13 69 -16 75 -6 4 6 -3 20 -15 31 -19 18 -21 24 -11 46 13 27 23 30 52 15
26 -14 110 -1 118 18 3 9 0 18 -7 20 -9 3 -7 10 6 24 16 18 16 21 2 32 -22 15
-15 21 116 86 61 30 121 62 134 72 13 10 34 18 48 18 l24 0 -23 -32 c-13 -18
-29 -37 -35 -41 -19 -12 -16 -51 5 -70 22 -20 44 -22 117 -13 73 9 115 24 115
42 0 14 -31 25 -60 22 -69 -6 -77 15 -19 55 46 32 46 47 -1 63 l-33 11 69 20
c81 23 159 43 194 51 36 7 13 -11 -35 -27 -52 -18 -84 -42 -85 -63 0 -9 14
-28 31 -42 23 -20 41 -26 77 -26 66 0 92 9 92 31 0 16 -8 19 -46 19 -54 0 -51
13 8 29 57 14 71 24 66 47 -2 14 -15 21 -43 24 l-40 6 35 8 c58 13 100 27 100
34 0 4 -4 13 -8 20 -7 10 -32 9 -128 -9 -171 -30 -242 -49 -391 -103 -59 -22
-282 -134 -318 -161 -57 -42 -108 -60 -165 -59 -90 2 -108 7 -50 13 51 6 55 8
58 33 3 25 7 27 60 30 51 3 57 5 56 24 0 19 7 22 54 27 32 4 59 12 65 22 7 8
26 19 42 24 19 5 29 14 29 24 -1 13 7 17 31 17 19 0 40 7 49 15 8 8 23 15 33
15 29 0 57 25 50 43 -4 12 3 18 26 23 18 4 40 7 50 5 10 -1 30 5 44 14 23 16
24 18 9 33 -14 14 -25 15 -93 4 -43 -6 -89 -14 -103 -17 -26 -5 -315 -10 -405
-6 -27 1 -93 -3 -145 -9 -52 -5 -106 -8 -120 -5 -14 3 -81 5 -150 5 -229 -1
-926 22 -1015 33 -11 1 -54 -1 -95 -5z m1430 -128 c0 -5 -21 -9 -47 -9 l-48 2
40 7 c22 4 43 8 48 9 4 0 7 -3 7 -9z m82 -3 c-24 -7 -36 -7 -44 1 -9 9 -1 12
33 11 l44 -1 -33 -11z m-1536 -18 c19 -21 19 -21 -9 -8 -15 7 -27 16 -27 21 0
14 16 9 36 -13z m1339 11 c4 -6 -30 -10 -94 -10 -54 0 -108 -3 -118 -6 -12 -5
-15 -4 -8 4 14 14 46 19 137 21 42 0 80 -3 83 -9z m-242 -17 c-7 -2 -21 -2
-30 0 -10 3 -4 5 12 5 17 0 24 -2 18 -5z m-488 -25 c17 0 75 2 130 6 l100 5
-75 -14 c-82 -16 -661 -33 -647 -19 9 9 24 11 212 19 83 4 151 8 152 8 1 1 23
1 50 -1 26 -1 62 -3 78 -4z m1515 8 c0 -2 -7 -7 -16 -10 -8 -3 -12 -2 -9 4 6
10 25 14 25 6z m-875 -146 c4 -7 -8 -8 -37 -4 -57 9 -61 14 -10 14 22 0 44 -5
47 -10z m-200 -10 c-3 -5 -30 -9 -58 -9 -45 1 -48 2 -22 9 45 11 87 11 80 0z
m-132 -17 c-7 -2 -21 -2 -30 0 -10 3 -4 5 12 5 17 0 24 -2 18 -5z m495 -10
c-10 -2 -28 -2 -40 0 -13 2 -5 4 17 4 22 1 32 -1 23 -4z m-588 -53 c0 -5 -5
-10 -11 -10 -5 0 -7 5 -4 10 3 6 8 10 11 10 2 0 4 -4 4 -10z m50 0 c-19 -13
-30 -13 -30 0 0 6 10 10 23 10 18 0 19 -2 7 -10z m-110 -10 c-14 -4 -37 -8
-51 -9 -15 -1 -32 -8 -39 -16 -14 -17 -50 -20 -50 -4 0 6 -9 9 -20 6 -11 -3
-23 -1 -26 4 -3 5 3 9 13 9 10 0 28 3 41 6 18 5 21 3 16 -10 -3 -9 -1 -16 5
-16 6 0 11 6 11 14 0 18 8 21 73 23 39 1 46 0 27 -7z m778 3 c-2 -5 -12 -26
-22 -48 l-18 -40 -23 29 c-18 23 -28 27 -51 22 -30 -6 -95 -12 -279 -27 -60
-4 -135 -11 -165 -13 -30 -3 -98 -8 -150 -12 -52 -3 -97 -7 -99 -8 -2 0 -6 4
-8 11 -6 16 29 21 222 33 94 5 220 15 280 20 61 5 142 12 180 14 39 3 82 9 95
15 31 12 43 13 38 4z m-1021 -33 c-33 -10 -81 -14 -117 -10 -21 2 -20 4 10 10
19 4 58 8 85 8 42 0 46 -1 22 -8z m-262 -20 c-3 -5 -36 -9 -73 -8 l-67 1 50 7
c79 11 97 11 90 0z m-175 -7 c-19 -2 -39 -9 -44 -14 -6 -5 -48 -9 -95 -9 -101
0 -100 11 2 20 90 7 187 9 137 3z m598 -30 c3 -10 -21 -13 -99 -13 -117 0
-126 8 -18 16 41 3 76 8 79 10 8 8 33 -1 38 -13z m-213 -13 c4 -6 -6 -10 -22
-10 -22 0 -25 2 -13 10 19 12 27 12 35 0z m852 -51 c194 -8 64 -26 -202 -29
-133 -1 -239 -7 -440 -24 -33 -3 -49 -3 -36 0 14 3 34 12 45 19 12 7 59 16
106 19 92 7 194 17 197 19 2 3 227 0 330 -4z m-764 -56 c-7 -2 -19 -2 -25 0
-7 3 -2 5 12 5 14 0 19 -2 13 -5z m44 1 c-3 -3 -12 -4 -19 -1 -8 3 -5 6 6 6
11 1 17 -2 13 -5z m880 -50 c-3 -3 -12 -4 -19 -1 -8 3 -5 6 6 6 11 1 17 -2 13
-5z m-227 -24 c0 -5 -15 -10 -32 -9 -28 0 -30 2 -13 9 28 12 45 12 45 0z m-87
-17 c-13 -2 -33 -2 -45 0 -13 2 -3 4 22 4 25 0 35 -2 23 -4z m-213 -24 c-30
-8 -126 -11 -118 -4 8 8 122 22 133 16 5 -3 -1 -8 -15 -12z m128 14 c-10 -2
-26 -2 -35 0 -10 3 -2 5 17 5 19 0 27 -2 18 -5z m-259 -27 c-13 -11 -218 -47
-299 -51 -130 -7 -87 10 66 26 66 7 126 16 134 20 15 8 108 13 99 5z m-448
-62 c-25 -8 -97 -18 -160 -24 -64 -5 -134 -14 -156 -19 -48 -12 -55 -7 -29 19
16 16 38 20 138 24 65 3 121 7 124 10 3 4 33 6 66 5 l61 -1 -44 -14z"/>
<path d="M5458 6533 c-15 -10 -29 -22 -32 -28 -2 -6 14 -30 36 -53 37 -40 43
-42 97 -42 59 0 83 12 74 36 -3 9 -22 14 -54 14 -27 0 -49 5 -49 10 0 6 7 10
15 10 8 0 15 9 15 20 0 11 -6 20 -14 20 -8 0 -16 7 -20 15 -7 20 -34 19 -68
-2z"/>
<path d="M5100 6482 c-36 -17 -60 -38 -60 -54 0 -35 76 -53 86 -20 3 9 10 27
16 39 17 35 -4 52 -42 35z"/>
<path d="M6933 6423 c-24 -8 -43 -21 -43 -28 0 -23 38 -27 85 -9 46 17 58 37
29 48 -20 8 -20 7 -71 -11z"/>
<path d="M5297 6423 c-13 -12 -7 -43 8 -43 8 0 15 -9 15 -19 0 -24 36 -37 55
-21 20 17 19 23 -12 59 -26 29 -52 39 -66 24z"/>
<path d="M5200 6390 c0 -5 7 -10 15 -10 8 0 15 5 15 10 0 6 -7 10 -15 10 -8 0
-15 -4 -15 -10z"/>
<path d="M4792 6274 c-12 -8 -22 -24 -22 -34 0 -36 78 -68 96 -38 4 6 -1 17
-11 24 -15 11 -16 16 -6 28 27 33 -17 48 -57 20z"/>
<path d="M4968 6216 c-36 -27 -6 -86 43 -86 21 0 31 24 16 39 -9 9 -9 14 2 20
20 13 5 41 -21 41 -13 0 -31 -7 -40 -14z"/>
<path d="M4803 6156 c-85 -32 -113 -52 -113 -80 0 -57 81 -93 150 -67 16 6 44
16 60 22 17 6 30 17 30 25 0 15 -31 27 -51 19 -8 -2 -21 0 -29 5 -13 9 -12 13
6 28 12 9 30 22 40 28 22 13 12 44 -13 43 -10 0 -46 -10 -80 -23z"/>
<path d="M4547 6126 c-75 -31 -104 -51 -112 -77 -11 -33 31 -67 101 -84 84
-20 118 -19 140 6 18 20 18 21 0 35 -11 7 -34 17 -53 20 -41 8 -42 26 -2 66
31 32 32 58 2 58 -10 0 -44 -11 -76 -24z"/>
<path d="M9307 5464 c-4 -4 -4 -10 -1 -15 6 -10 34 0 34 12 0 10 -24 12 -33 3z"/>
<path d="M1424 5335 c-10 -25 3 -44 25 -38 28 7 34 31 11 43 -25 13 -30 13
-36 -5z"/>
<path d="M5873 5165 l-52 -35 4 -157 c3 -87 7 -193 11 -236 4 -56 3 -82 -7
-93 -10 -13 -10 -17 2 -24 12 -8 14 -55 14 -274 0 -145 3 -267 6 -270 4 -4 51
-9 105 -11 78 -4 103 -1 122 11 26 17 26 14 2 204 -6 47 -13 105 -17 130 -3
25 -6 69 -7 99 l-1 54 45 13 c46 14 105 10 117 -9 3 -5 7 -98 8 -206 2 -208 7
-235 49 -251 34 -13 155 -9 166 6 14 15 14 102 6 568 -4 218 -11 396 -16 406
-6 10 -10 35 -10 55 0 28 -5 38 -26 47 -23 11 -33 8 -83 -17 -54 -29 -57 -33
-79 -97 -16 -51 -22 -92 -23 -167 l-1 -100 -36 -5 c-71 -11 -113 -10 -121 3
-5 7 -11 71 -15 143 -10 185 -19 224 -58 237 -44 16 -48 15 -105 -24z m88 -46
c6 -12 12 -69 13 -128 3 -139 16 -249 30 -261 7 -5 43 -9 82 -9 38 0 92 0 121
-1 71 -1 75 10 74 175 -1 72 3 144 8 159 11 27 56 55 69 42 4 -4 8 -69 9 -144
1 -76 4 -275 7 -444 6 -272 5 -308 -9 -322 -20 -19 -50 -7 -60 24 -4 12 -8 94
-10 183 -4 188 -9 218 -40 247 -22 20 -29 21 -129 14 -59 -4 -110 -12 -115
-18 -19 -23 -32 -152 -30 -296 1 -80 1 -153 0 -162 -2 -24 -29 -48 -47 -41
-13 5 -15 25 -13 132 1 69 -1 153 -4 186 -7 61 -14 218 -22 452 -2 72 -7 147
-10 166 -6 32 -4 37 22 51 37 20 40 20 54 -5z"/>
<path d="M3922 5038 c-19 -19 -14 -38 18 -65 51 -43 92 -140 104 -248 10 -87
20 -356 17 -461 -4 -163 26 -234 99 -234 27 0 50 10 84 35 25 20 46 40 46 44
0 5 -11 28 -24 52 -18 33 -26 71 -34 154 -6 61 -10 130 -10 155 4 126 -40 413
-71 463 -21 35 -107 92 -162 107 -44 13 -52 13 -67 -2z m195 -179 c26 -66 42
-218 47 -459 2 -96 10 -199 17 -227 13 -57 8 -74 -18 -57 -26 16 -30 47 -37
280 -7 217 -17 337 -37 424 -22 96 -22 103 -8 98 8 -2 24 -29 36 -59z"/>
<path d="M3641 5021 c-16 -30 -14 -38 19 -58 37 -21 66 -81 79 -164 6 -35 13
-194 15 -354 3 -163 9 -306 15 -326 11 -35 52 -81 82 -92 14 -4 49 7 99 32 22
12 24 40 5 61 -17 19 -18 35 -29 508 -5 221 -13 247 -93 328 -53 52 -83 69
-140 79 -35 5 -43 4 -52 -14z m171 -128 c50 -57 52 -70 54 -393 2 -168 5 -325
9 -349 5 -33 4 -42 -7 -39 -40 13 -48 89 -49 463 -1 121 -17 277 -34 318 -4 9
-3 17 2 17 6 0 17 -8 25 -17z"/>
<path d="M3186 5015 c-4 -10 -19 -15 -49 -15 -65 0 -83 -25 -97 -130 -6 -47
-15 -103 -21 -125 -6 -22 -16 -61 -22 -87 -6 -27 -16 -48 -21 -48 -10 0 -70
136 -117 265 -26 69 -63 120 -99 135 -29 12 -97 -10 -106 -35 -3 -8 -1 -45 5
-82 14 -91 17 -100 36 -157 9 -28 23 -74 31 -104 19 -71 56 -134 111 -186 l45
-42 -1 -196 c0 -193 0 -195 23 -218 21 -19 32 -21 78 -17 138 14 147 21 155
111 9 88 2 229 -12 256 -11 22 -9 39 14 130 15 58 41 132 58 165 81 161 116
299 87 342 -8 13 -31 30 -50 38 -44 18 -41 18 -48 0z m-425 -99 c18 -16 38
-57 63 -133 20 -61 43 -119 51 -129 8 -10 15 -27 15 -36 0 -9 15 -33 34 -53
40 -42 69 -44 98 -5 19 26 63 202 74 297 4 29 12 57 18 62 6 5 34 11 61 13 48
3 50 2 53 -25 4 -36 -39 -171 -85 -262 -73 -145 -86 -202 -74 -305 5 -41 10
-116 10 -166 2 -108 -12 -129 -81 -127 -22 1 -42 3 -43 5 -2 2 -6 88 -9 192
-5 160 -9 193 -24 210 -9 11 -30 35 -46 53 -55 62 -76 109 -125 278 -25 88
-36 155 -25 155 5 0 21 -11 35 -24z"/>
<path d="M9568 4982 c-25 -15 -57 -35 -71 -45 -23 -17 -26 -17 -73 4 -88 37
-184 10 -184 -53 0 -10 10 -20 25 -24 19 -5 27 -17 40 -62 14 -46 17 -104 16
-334 l-1 -278 32 -20 c49 -30 103 -26 139 9 33 33 33 31 9 306 -5 66 -8 149
-5 185 5 58 9 68 37 93 18 15 37 27 44 27 6 0 23 -22 37 -49 38 -69 66 -77
116 -35 27 23 31 32 31 78 0 29 -4 66 -9 82 -5 16 -12 41 -15 56 -9 38 -62 88
-94 88 -15 0 -48 -13 -74 -28z m84 -69 c14 -16 38 -95 38 -122 0 -24 -16 -9
-43 39 -16 28 -30 50 -32 50 -4 0 -73 -29 -125 -54 -51 -24 -61 -65 -55 -231
3 -82 9 -175 13 -205 4 -30 7 -80 7 -110 0 -48 -3 -55 -21 -58 -42 -6 -45 13
-49 300 -2 150 -8 290 -13 311 -9 32 -8 37 8 37 10 0 23 -7 30 -16 17 -20 86
-10 116 18 24 21 82 55 100 57 6 0 18 -7 26 -16z"/>
<path d="M1551 4970 c-13 -11 -34 -20 -47 -20 -17 0 -24 -6 -24 -19 0 -11 -3
-26 -6 -34 -3 -9 6 -26 23 -41 l28 -26 0 -238 c0 -130 -1 -302 -3 -382 -3
-215 5 -250 61 -250 40 0 69 19 98 67 24 39 27 62 35 243 6 143 9 156 38 175
22 14 27 14 61 -2 l37 -17 -6 -66 c-16 -193 -17 -252 -6 -302 21 -91 55 -109
116 -63 53 41 59 73 58 330 0 251 -4 270 -60 314 -33 26 -105 28 -180 4 -30
-9 -56 -15 -58 -12 -2 2 -6 69 -8 149 l-5 144 -38 33 c-44 38 -79 42 -114 13z
m79 -65 c13 -16 19 -72 21 -217 0 -81 4 -102 21 -123 22 -28 50 -32 91 -10 32
17 136 28 153 17 29 -20 37 -77 38 -261 1 -180 -5 -241 -23 -241 -5 0 -14 21
-20 48 -11 46 -10 145 4 288 7 67 6 72 -16 88 -13 9 -32 16 -42 16 -10 0 -29
7 -43 17 -27 17 -29 17 -112 -31 -44 -25 -46 -32 -44 -153 2 -176 -26 -319
-55 -289 -5 4 -9 134 -9 289 -2 409 -4 468 -15 510 -15 56 19 90 51 52z"/>
<path d="M8890 4938 c-69 -68 -120 -227 -120 -377 0 -146 59 -311 130 -362 44
-32 114 -45 157 -30 49 17 69 35 108 96 38 59 48 110 37 183 -10 61 -21 75
-55 75 -40 0 -76 -41 -101 -115 -14 -44 -38 -10 -50 73 l-7 46 48 18 c26 10
53 21 58 25 6 4 22 10 37 14 39 9 62 48 59 102 -2 64 -55 183 -105 238 -42 45
-44 46 -103 46 -53 0 -62 -3 -93 -32z m112 -28 c28 -8 46 -23 70 -57 28 -42
57 -130 58 -175 0 -24 -67 -57 -141 -70 -81 -14 -86 -26 -63 -137 17 -84 47
-138 91 -164 23 -14 61 29 78 89 24 82 55 83 55 1 0 -55 -34 -116 -75 -133
-58 -24 -97 -18 -142 21 -36 30 -45 47 -71 132 -25 84 -29 111 -26 188 4 140
25 208 85 276 39 44 33 42 81 29z"/>
<path d="M8945 4813 c-45 -59 -62 -114 -47 -148 11 -23 16 -25 87 -25 62 0 79
4 95 20 27 27 25 50 -12 122 -50 96 -69 101 -123 31z m75 -65 l20 -33 -36 -9
c-48 -11 -61 2 -40 43 21 39 31 39 56 -1z"/>
<path d="M773 4924 c-8 -13 -12 -32 -8 -44 3 -11 1 -54 -6 -96 -9 -55 -9 -78
-1 -86 15 -15 201 -11 219 4 9 7 17 7 27 -1 14 -12 14 -22 0 -475 -4 -128 -2
-197 6 -215 29 -70 128 -77 188 -13 l34 35 -6 86 c-18 274 -19 507 -3 540 11
24 18 26 77 27 122 2 144 24 134 136 -9 100 -29 123 -99 113 -64 -9 -388 -6
-478 4 -65 7 -70 6 -84 -15z m222 -71 c61 -3 128 -4 150 -3 22 1 81 2 130 3
l90 2 0 -44 0 -44 -98 -1 c-59 -2 -102 -7 -109 -14 -11 -11 -12 -214 -5 -638
1 -60 -8 -76 -40 -72 -25 3 -29 8 -35 48 -3 25 -4 99 -2 165 8 248 6 460 -5
488 -12 30 -10 30 -136 31 l-90 1 -3 33 c-5 46 4 66 26 57 9 -4 67 -9 127 -12z"/>
<path d="M8530 4927 c-24 -12 -56 -38 -72 -58 l-30 -37 -42 43 c-56 56 -95 65
-142 33 -19 -12 -37 -31 -40 -41 -3 -9 -14 -22 -24 -27 -16 -8 -23 -5 -41 20
-30 40 -63 40 -85 -1 l-16 -31 -22 21 c-25 23 -47 26 -77 11 -27 -15 -24 -36
10 -61 17 -12 34 -34 40 -48 21 -54 30 -183 27 -385 -4 -208 -4 -209 19 -232
37 -37 83 -32 127 11 19 20 43 51 54 70 16 31 17 39 4 87 -16 62 -15 59 -25
295 l-7 181 28 36 c20 25 37 36 55 36 36 0 41 -9 20 -39 -46 -66 -41 -533 7
-631 20 -41 43 -43 127 -15 72 24 80 29 80 56 0 18 -6 25 -26 27 l-27 3 -7
237 c-7 248 -3 281 34 301 28 16 31 15 45 -21 9 -22 17 -107 22 -248 4 -118 8
-231 9 -250 2 -19 3 -48 4 -63 1 -15 12 -39 25 -52 20 -20 31 -23 63 -19 80
12 114 25 122 47 10 25 -5 51 -25 43 -22 -8 -37 23 -36 72 1 26 2 135 3 242 1
181 -1 201 -24 278 -25 84 -39 103 -88 121 -21 7 -36 4 -69 -12z m63 -85 c42
-43 60 -135 53 -261 -3 -58 -6 -164 -6 -235 -1 -124 -8 -158 -16 -79 -2 21 -8
124 -14 228 -14 269 -24 328 -57 348 -13 8 -9 27 6 27 4 0 19 -12 34 -28z
m-66 12 c-3 -3 -12 -4 -19 -1 -8 3 -5 6 6 6 11 1 17 -2 13 -5z m-172 -58 c23
-35 29 -585 7 -562 -25 24 -43 171 -42 331 2 273 3 280 35 231z m-249 -7 c15
-17 19 -40 21 -152 3 -175 8 -247 23 -334 11 -67 10 -73 -9 -92 -12 -12 -28
-21 -36 -21 -21 0 -36 42 -27 77 14 57 -1 418 -20 481 -18 58 10 83 48 41z"/>
<path d="M7635 4846 c-17 -6 -42 -21 -55 -33 -33 -32 -61 -29 -82 7 -15 26
-23 30 -58 30 -22 0 -67 -11 -100 -25 -44 -19 -75 -25 -116 -23 -30 1 -58 6
-60 10 -10 16 -71 8 -89 -12 -24 -26 -13 -48 29 -55 75 -14 79 -41 77 -453
l-1 -152 -25 -10 c-14 -5 -25 -14 -25 -19 0 -19 21 -23 43 -8 14 9 29 11 42 6
38 -15 61 -9 95 24 18 17 41 51 52 73 15 35 16 50 8 95 -6 30 -11 90 -11 134
0 128 2 230 5 232 1 2 12 -16 23 -40 20 -39 21 -58 19 -273 l-2 -230 37 -18
c49 -24 85 -15 126 32 43 48 56 85 38 108 -11 16 -15 16 -29 5 -15 -12 -16 -1
-17 120 0 74 -2 167 -5 207 -3 60 -1 72 11 72 9 0 34 9 55 20 l40 20 0 -27 c0
-16 -6 -55 -14 -88 -7 -33 -14 -87 -15 -120 -2 -94 19 -255 37 -294 l18 -36
78 2 c43 1 83 6 87 10 9 9 -10 73 -30 97 -15 18 -21 250 -9 391 8 98 -5 161
-43 209 -17 21 -29 26 -62 25 -23 -1 -56 -6 -72 -13z m98 -88 c23 -39 24 -49
18 -118 -4 -41 -7 -157 -7 -257 1 -134 -2 -179 -10 -172 -11 9 -17 31 -32 114
-10 56 -9 246 1 270 12 27 15 105 6 131 -11 31 -37 37 -67 16 -15 -11 -42 -26
-60 -35 -29 -14 -34 -14 -39 -1 -3 8 -4 16 -2 18 74 56 107 73 151 75 9 1 27
-17 41 -41z m-264 -33 c22 -56 24 -75 27 -298 2 -130 6 -242 9 -248 9 -14 -1
-23 -18 -16 -16 6 -30 110 -22 166 3 20 2 100 -3 177 -7 132 -10 144 -35 177
-15 20 -27 40 -27 46 0 5 -12 11 -27 13 -34 4 -35 19 -2 36 49 25 72 12 98
-53z m-160 4 c-7 -15 -9 -62 -4 -153 13 -273 12 -352 -9 -375 -11 -12 -25 -21
-33 -21 -14 0 -15 8 -13 275 1 136 -7 221 -25 267 -7 17 9 22 73 27 20 1 21
-1 11 -20z"/>
<path d="M5260 4827 c-13 -7 -33 -25 -44 -40 -20 -27 -21 -40 -19 -204 1 -97
-2 -172 -6 -167 -4 5 -13 38 -20 73 -17 86 -53 157 -92 176 -28 15 -33 15 -55
0 -13 -8 -24 -21 -24 -27 0 -6 -8 -21 -19 -32 -10 -12 -23 -34 -29 -51 l-10
-30 -3 40 c-1 22 -2 55 0 73 5 82 -38 192 -75 192 -16 0 -114 -78 -114 -90 0
-4 11 -12 24 -20 l24 -13 1 -251 c1 -138 6 -268 12 -288 17 -66 70 -89 159
-71 26 5 36 14 48 45 17 44 29 48 42 14 14 -39 56 -60 119 -61 75 -2 105 17
139 85 26 52 27 62 25 185 -2 153 -3 328 -2 369 1 67 -40 114 -81 93z m-385
-126 c9 -34 13 -109 13 -218 0 -160 0 -167 22 -185 25 -20 60 -9 60 20 1 9 4
60 9 112 6 78 12 103 34 138 24 38 30 41 48 31 29 -15 55 -81 69 -174 13 -90
51 -168 78 -163 37 7 44 51 43 269 0 189 5 236 25 216 2 -2 6 -114 7 -248 2
-227 1 -247 -18 -284 -19 -38 -22 -40 -67 -39 -85 1 -94 21 -102 233 -3 86 -8
117 -20 129 -15 15 -17 15 -33 -1 -13 -13 -19 -42 -24 -125 -6 -111 -23 -195
-43 -211 -18 -14 -70 -22 -85 -12 -18 12 -30 141 -32 356 -1 94 -5 177 -10
186 -4 9 -5 19 -2 23 10 9 13 3 28 -53z"/>
<path d="M6790 4830 c-62 -11 -141 -47 -163 -73 -26 -31 -57 -104 -57 -133 0
-34 42 -74 77 -74 16 0 43 12 63 28 19 16 45 34 58 41 20 11 23 9 32 -14 6
-15 10 -40 10 -56 0 -27 -2 -29 -40 -29 -81 0 -129 -38 -173 -135 -21 -46 -24
-141 -7 -203 12 -45 56 -89 98 -98 15 -3 36 -7 46 -9 24 -5 76 22 95 48 13 19
14 18 38 -12 21 -26 31 -31 68 -31 67 0 148 42 153 78 3 17 -4 26 -32 37 -19
8 -37 24 -41 35 -7 23 3 248 14 300 8 43 -5 154 -24 189 -27 52 -126 125 -162
120 -4 -1 -28 -5 -53 -9z m108 -107 c67 -50 73 -87 54 -331 -12 -151 -9 -194
11 -220 7 -8 7 -16 0 -23 -12 -12 -63 26 -63 46 0 8 -12 22 -26 32 l-27 17
-39 -47 c-59 -70 -111 -59 -150 32 -26 60 -18 115 25 170 l32 42 69 -3 c80 -3
96 10 96 76 0 48 -23 141 -40 162 -22 25 -82 17 -123 -17 -65 -53 -118 -20
-59 37 34 34 123 63 172 56 19 -2 50 -16 68 -29z"/>
<path d="M6818 4404 c-6 -6 -31 -9 -90 -13 -52 -3 -74 -81 -44 -153 28 -67 66
-74 98 -18 12 21 25 30 43 30 27 0 25 -10 29 132 1 22 -23 36 -36 22z m-29
-87 c-2 -1 -14 -11 -26 -21 -23 -19 -23 -19 -23 2 0 17 6 22 27 22 14 0 24 -1
22 -3z"/>
<path d="M4470 4773 c-86 -31 -122 -115 -141 -325 -14 -165 17 -298 83 -353
43 -36 71 -40 125 -18 78 32 147 147 168 279 18 114 -57 373 -113 390 -9 3
-26 10 -37 14 -31 13 -68 18 -85 13z m85 -83 c18 -11 38 -33 44 -48 47 -122
52 -141 52 -212 0 -115 -31 -199 -97 -264 -29 -30 -71 -20 -102 23 -76 105
-79 419 -4 504 20 23 67 22 107 -3z"/>
<path d="M4465 4602 c-33 -50 -43 -110 -34 -202 9 -101 24 -152 52 -178 31
-29 71 -18 110 30 28 35 29 40 29 145 0 118 -26 213 -62 233 -39 21 -69 12
-95 -28z m80 -56 c8 -19 18 -72 21 -118 7 -93 -5 -142 -33 -136 -24 5 -43 87
-43 196 0 86 1 92 21 92 13 0 25 -11 34 -34z"/>
<path d="M3409 4732 c-14 -2 -45 -23 -68 -46 -58 -59 -91 -156 -98 -287 -9
-155 22 -249 102 -315 33 -27 44 -42 40 -55 -8 -23 8 -25 25 -4 8 10 30 15 62
15 121 0 209 98 212 237 1 59 -2 72 -23 95 -19 22 -29 26 -55 21 -37 -7 -80
-44 -96 -84 -12 -28 -30 -33 -57 -16 -7 5 -13 25 -13 46 0 53 21 68 96 69 34
0 71 5 83 11 52 29 68 133 28 192 -12 18 -47 52 -77 75 -55 42 -99 54 -161 46z
m121 -87 c17 -9 30 -20 30 -26 0 -5 12 -21 26 -34 20 -19 25 -31 22 -62 -3
-32 -7 -38 -28 -41 -24 -3 -25 -1 -22 43 4 42 1 51 -29 81 -39 41 -58 42 -97
9 -34 -29 -55 -73 -50 -107 2 -19 9 -23 43 -24 103 -4 111 -6 45 -16 -91 -13
-100 -24 -100 -120 0 -76 1 -79 36 -118 57 -63 109 -52 159 35 40 68 65 69 65
4 0 -116 -116 -185 -211 -126 -59 36 -86 77 -104 156 -18 75 -16 135 5 211 14
50 64 123 95 139 30 15 82 13 115 -4z m-35 -85 c18 -20 17 -20 -18 -20 -24 0
-37 5 -37 13 0 32 29 36 55 7z"/>
<path d="M2217 4690 c-49 -9 -85 -45 -126 -125 -35 -68 -47 -145 -45 -295 1
-121 53 -228 122 -251 20 -6 42 -15 47 -19 68 -50 217 43 251 156 23 76 19
136 -11 164 l-25 23 22 11 c35 18 52 81 43 162 -7 66 -9 71 -55 116 -65 63
-122 78 -223 58z m160 -80 c14 -11 32 -33 40 -48 18 -32 29 -127 17 -134 -5
-3 -60 -9 -123 -12 -63 -4 -120 -11 -127 -17 -7 -6 -20 -41 -28 -78 -18 -81
-9 -130 34 -173 50 -50 113 -27 159 59 18 33 33 49 50 51 23 4 24 2 18 -38 -7
-53 -51 -116 -97 -140 l-37 -19 -60 28 c-55 26 -61 33 -87 90 -26 58 -27 69
-22 160 8 144 49 248 106 270 63 25 127 25 157 1z m17 -258 c3 -5 -9 -14 -27
-20 -30 -11 -87 -83 -87 -110 0 -6 -9 -16 -19 -21 -27 -15 -44 10 -44 64 0 53
23 84 56 78 12 -2 33 0 47 6 31 12 67 14 74 3z"/>
<path d="M2305 4600 c-11 -5 -32 -9 -47 -9 -21 -1 -36 -12 -58 -43 -37 -50
-37 -61 -3 -88 24 -19 36 -21 112 -16 86 5 111 17 111 53 0 24 -28 70 -56 92
-29 23 -30 23 -59 11z m9 -64 c11 0 21 -6 23 -13 5 -15 -85 -29 -98 -16 -15
15 19 46 40 37 9 -3 25 -7 35 -8z"/>
<path d="M5560 4594 c-14 -3 -34 -9 -45 -14 -11 -5 -31 -10 -45 -12 -30 -4
-50 -40 -50 -93 0 -69 -3 -68 175 -65 58 1 113 7 132 15 33 14 34 15 32 75 -1
33 -7 67 -13 74 -11 15 -139 28 -186 20z m115 -71 c15 1 21 -5 23 -24 l3 -26
-73 3 c-40 2 -90 3 -110 3 -37 1 -52 21 -27 36 20 13 104 21 134 14 17 -5 39
-7 50 -6z"/>
<path d="M9680 4343 c-62 -5 -79 -30 -80 -110 0 -78 20 -96 96 -88 81 9 124
77 89 139 -22 38 -46 67 -54 64 -3 -1 -26 -3 -51 -5z m38 -100 c3 -19 -1 -23
-22 -23 -28 0 -41 14 -32 36 9 24 50 13 54 -13z"/>
<path d="M2530 4290 c0 -5 5 -10 10 -10 6 0 10 5 10 10 0 6 -4 10 -10 10 -5 0
-10 -4 -10 -10z"/>
<path d="M9660 4097 c0 -20 38 -47 66 -47 12 0 27 7 35 16 16 19 -2 34 -43 34
-14 0 -33 3 -42 6 -10 4 -16 1 -16 -9z"/>
<path d="M5242 4078 c3 -8 25 -14 57 -16 40 -2 52 0 49 10 -3 8 -25 14 -57 16
-40 2 -52 0 -49 -10z"/>
<path d="M4638 4073 c-29 -7 -21 -25 10 -21 15 2 25 6 23 11 -6 12 -15 15 -33
10z"/>
<path d="M4818 4073 c7 -3 16 -2 19 1 4 3 -2 6 -13 5 -11 0 -14 -3 -6 -6z"/>
<path d="M10660 3902 c-85 -20 -265 -111 -383 -195 -129 -91 -240 -176 -291
-224 -61 -56 -103 -75 -182 -80 -73 -5 -91 8 -70 49 8 14 21 49 31 77 20 61
25 65 54 45 19 -14 22 -24 19 -62 -4 -53 13 -65 29 -21 10 26 10 36 -2 53 -8
11 -15 30 -15 42 0 28 -24 47 -49 39 -12 -4 -30 0 -43 9 -12 9 -37 16 -55 16
-42 0 -229 -93 -325 -161 -129 -92 -194 -123 -283 -132 -44 -5 -96 -11 -115
-14 -39 -5 -328 -7 -557 -3 l-152 3 -6 27 c-3 15 -28 49 -56 75 -53 50 -63 90
-34 129 17 23 20 52 5 61 -6 3 -14 -4 -19 -17 -7 -15 -10 -18 -10 -7 -2 34
-55 38 -154 10 -38 -10 -78 -28 -91 -40 -12 -11 -25 -21 -29 -21 -16 0 -229
-171 -261 -209 -6 -7 -24 -27 -39 -43 l-28 -30 -142 6 c-78 3 -196 8 -262 11
-66 2 -139 7 -162 10 -24 2 -66 0 -95 -6 -29 -6 -105 -12 -169 -14 -63 -2
-128 -9 -143 -15 -15 -5 -33 -10 -40 -10 -14 0 -64 -19 -133 -51 -24 -10 -47
-19 -53 -19 -6 0 -81 -34 -168 -76 -86 -42 -188 -87 -227 -100 -38 -13 -101
-35 -140 -49 -38 -14 -110 -35 -160 -46 -93 -21 -118 -27 -220 -53 -107 -27
-149 -35 -210 -41 -58 -6 -92 -14 -235 -56 -36 -10 -112 -23 -170 -29 -110
-10 -169 -18 -360 -51 -131 -22 -148 -25 -210 -39 -78 -17 -362 -72 -440 -86
-142 -24 -255 -44 -330 -59 -41 -9 -102 -20 -135 -25 -33 -5 -150 -22 -260
-39 -110 -17 -220 -35 -245 -42 -25 -6 -81 -14 -125 -19 -44 -5 -158 -22 -253
-40 -94 -17 -200 -35 -235 -39 -34 -5 -127 -23 -207 -39 -80 -17 -251 -52
-380 -77 -270 -52 -411 -84 -428 -94 -6 -4 -18 -25 -25 -46 -12 -34 -11 -46 5
-99 10 -33 23 -65 29 -72 6 -7 34 -14 62 -16 l52 -3 0 -45 c0 -39 3 -45 22
-48 16 -2 37 11 74 48 50 50 53 52 120 57 56 5 69 3 69 -9 0 -7 -5 -19 -11
-25 -16 -16 -1 -53 21 -53 20 0 100 85 100 106 0 8 9 14 21 14 11 0 28 4 37 9
9 4 38 11 64 13 l47 5 -6 -42 c-5 -38 -3 -44 16 -50 32 -10 53 1 80 40 16 23
29 34 39 30 8 -3 25 3 36 14 20 19 123 44 138 34 5 -2 8 -15 8 -27 0 -60 56
-55 98 9 18 29 28 35 56 35 18 0 47 3 65 6 l31 6 -16 -31 c-8 -17 -13 -35 -9
-41 14 -22 46 -7 109 50 60 54 71 60 110 60 24 0 71 3 105 6 l62 7 -7 -27 c-7
-28 9 -56 32 -56 14 0 70 53 94 90 14 20 20 21 50 13 20 -6 44 -7 55 -3 11 4
41 10 67 13 43 6 48 5 48 -13 0 -11 -5 -29 -12 -39 -9 -15 -9 -23 1 -35 12
-14 16 -14 42 1 16 10 31 24 34 33 12 38 148 87 246 89 32 1 43 -20 27 -54
-10 -21 -9 -29 6 -43 16 -16 20 -14 70 39 57 61 90 76 176 81 61 3 57 8 48
-72 -5 -37 28 -38 66 -1 63 63 87 81 114 87 15 3 40 10 56 15 16 5 48 9 71 9
l43 0 -8 -35 c-11 -51 7 -62 59 -35 27 13 41 27 41 40 0 11 7 20 15 20 9 0 18
6 21 14 6 15 37 23 118 31 51 5 66 -8 47 -42 -14 -27 1 -45 34 -41 20 2 37 16
60 48 20 29 40 46 56 48 13 1 52 10 87 19 34 9 66 13 70 9 4 -5 7 -29 7 -54 0
-40 3 -47 21 -50 21 -3 49 22 68 60 22 43 56 56 164 63 l103 7 -6 -46 c-6 -41
-5 -46 11 -46 28 0 81 36 89 59 4 12 15 21 27 21 11 0 32 8 46 18 35 24 59 33
104 37 l37 4 3 -47 c2 -38 7 -48 23 -50 13 -2 28 8 42 27 25 33 75 61 108 61
12 0 32 9 45 20 13 11 28 20 34 19 6 0 6 -3 -1 -6 -31 -12 -8 -23 47 -23 55 0
60 2 66 24 3 13 15 27 27 30 42 11 46 8 35 -26 -5 -18 -11 -46 -12 -63 -1 -27
2 -30 29 -31 39 -1 49 5 35 21 -8 9 -4 17 14 29 14 9 28 16 32 16 3 0 18 9 33
19 26 19 31 19 122 5 52 -9 159 -19 239 -24 188 -11 323 -25 338 -34 7 -4 28
-2 46 5 29 11 49 9 133 -9 95 -20 197 -35 238 -35 12 1 42 10 67 22 26 11 56
21 68 21 26 0 80 27 80 41 0 5 29 38 64 73 50 49 73 64 103 69 21 3 92 15 158
27 166 30 208 37 300 50 44 6 88 19 98 28 16 14 21 14 55 -3 20 -10 62 -19 92
-20 89 -3 233 -24 244 -35 24 -24 76 2 211 110 28 22 74 56 103 76 41 27 52
40 50 57 -3 19 -10 22 -58 25 -30 2 -59 7 -64 12 -10 10 9 16 104 30 36 5 108
19 160 30 52 11 138 29 190 40 52 10 109 24 125 29 42 15 250 42 432 57 80 6
100 4 165 -16 40 -13 82 -31 93 -41 11 -9 61 -33 110 -53 50 -21 97 -42 105
-47 8 -5 22 -12 32 -15 9 -3 45 -21 80 -40 90 -49 150 -77 173 -80 82 -11 116
-18 121 -25 3 -5 18 -9 35 -9 26 0 34 9 30 33 -2 9 39 46 52 47 4 0 7 -7 7
-15 0 -20 24 -19 44 1 19 18 20 36 5 51 -6 6 -17 22 -23 35 -6 12 -27 28 -46
34 -19 6 -41 22 -48 35 -14 27 -12 125 3 122 18 -3 36 20 29 36 -24 58 -24 91
1 168 14 43 30 87 34 98 5 11 17 46 26 78 17 56 38 103 94 202 35 62 83 85
135 67 53 -19 64 -15 87 33 28 60 23 134 -12 171 -63 68 -203 90 -349 56z
m247 -91 c40 -19 63 -45 63 -74 0 -11 -17 -14 -81 -14 l-82 1 -38 -45 c-21
-24 -39 -49 -39 -55 0 -5 -16 -26 -35 -44 -27 -26 -45 -35 -71 -35 -25 0 -34
4 -32 15 2 8 12 15 23 15 40 1 65 35 26 35 -10 0 -21 6 -24 14 -4 10 13 24 59
45 35 16 64 34 64 40 0 23 -26 22 -80 -4 -55 -26 -90 -28 -90 -5 0 5 6 10 13
10 6 0 42 14 80 32 54 26 67 37 67 55 0 28 5 29 37 3 26 -20 55 -18 34 3 -6 6
-11 15 -11 19 0 15 75 8 117 -11z m-203 0 c3 -5 -31 -24 -76 -42 -50 -21 -83
-41 -86 -51 -5 -22 -21 -23 -36 -2 -11 14 -17 13 -61 -10 -47 -26 -63 -28 -50
-7 3 6 15 11 25 11 10 0 20 4 22 8 6 14 115 64 180 82 76 22 75 22 82 11z
m-322 -162 c19 -10 18 -12 -13 -35 -18 -13 -39 -24 -45 -24 -7 0 -34 -15 -60
-32 -25 -18 -51 -36 -58 -39 -6 -3 -22 -11 -34 -18 -35 -18 -41 -3 -10 22 15
12 52 42 81 65 53 43 94 69 110 71 5 1 17 -4 29 -10z m180 -6 c3 -10 -4 -30
-14 -45 -10 -14 -32 -68 -49 -120 -18 -51 -35 -97 -39 -103 -5 -5 -18 -48 -29
-95 -23 -91 -21 -197 4 -207 7 -2 32 1 55 7 23 6 43 10 45 8 2 -2 -2 -22 -8
-46 -11 -43 -27 -57 -27 -23 0 14 -10 20 -42 25 -47 8 -64 -5 -75 -56 -7 -33
-17 -35 -40 -8 -10 11 -28 20 -40 20 -13 0 -27 9 -34 23 -6 12 -24 33 -40 47
-26 22 -29 33 -33 95 -3 58 0 78 19 115 13 25 31 71 40 103 13 48 14 61 4 74
-11 12 -10 17 6 26 11 5 36 27 55 47 45 47 79 69 159 101 81 33 79 33 83 12z
m-2490 -64 c-2 -8 -6 -38 -9 -67 -5 -48 -3 -56 22 -82 27 -28 28 -30 14 -67
-14 -36 -18 -38 -69 -47 -30 -4 -58 -13 -61 -18 -4 -7 -9 -6 -13 1 -4 6 -23
11 -42 11 l-35 0 22 33 c13 17 47 59 76 91 29 33 52 64 50 70 -6 19 -26 17
-44 -4 -10 -12 -44 -50 -76 -84 -42 -45 -56 -67 -53 -84 2 -17 -3 -24 -20 -28
-29 -7 -31 -25 -4 -49 13 -12 28 -16 47 -11 15 4 52 9 81 11 29 3 72 10 95 15
65 15 143 12 157 -5 17 -20 73 -19 93 3 13 14 32 17 119 15 232 -3 482 -2 502
2 11 3 76 9 143 14 114 8 127 11 189 45 36 20 69 34 73 31 3 -4 -2 -11 -11
-16 -10 -5 -15 -15 -12 -23 4 -10 56 -13 249 -12 181 1 246 -2 249 -11 8 -20
68 -25 112 -9 37 13 43 13 57 -1 14 -14 20 -13 64 7 26 13 72 38 101 57 30 19
52 28 52 20 0 -20 -13 -32 -50 -47 -52 -21 -150 -80 -150 -90 0 -19 22 -21 69
-5 27 9 55 23 61 31 18 21 29 17 41 -13 8 -22 6 -30 -12 -49 -16 -17 -24 -40
-27 -77 -4 -53 -3 -55 38 -95 24 -22 56 -46 71 -53 16 -6 29 -15 29 -19 0 -15
75 -80 92 -80 22 0 85 55 93 81 6 18 8 18 39 -6 25 -19 32 -31 29 -48 -6 -33
35 -117 64 -130 32 -14 30 -37 -4 -37 -44 1 -145 25 -180 44 -32 16 -44 36
-23 36 24 0 7 20 -35 41 -36 18 -47 20 -59 10 -13 -11 -22 -9 -49 8 -19 12
-43 21 -53 21 -10 0 -83 32 -162 72 -140 69 -147 71 -241 78 -53 4 -104 3
-113 -2 -10 -5 -39 -11 -65 -14 -75 -8 -166 -23 -189 -29 -16 -5 -23 -1 -27
15 -7 28 -41 23 -45 -7 -3 -17 -11 -22 -48 -25 -25 -2 -48 0 -50 4 -9 15 -43
8 -53 -11 -6 -10 -29 -23 -53 -29 l-42 -11 29 23 c32 26 28 42 -16 51 -39 9
-59 -8 -59 -51 0 -36 1 -35 -95 -53 -33 -6 -95 -17 -139 -26 -43 -8 -91 -15
-106 -15 -16 0 -31 -4 -34 -9 -3 -4 -20 -11 -38 -15 -18 -3 -64 -12 -103 -20
-54 -11 -89 -12 -153 -4 -72 8 -86 7 -101 -6 -10 -10 -36 -16 -62 -16 -46 0
-103 -13 -128 -29 -12 -8 -13 -12 -1 -26 10 -13 25 -14 74 -9 34 4 68 10 77
15 11 6 21 4 29 -6 7 -8 29 -15 49 -16 20 0 45 -5 56 -10 13 -6 -5 -7 -54 -3
l-74 6 6 -29 6 -30 -46 8 c-26 5 -48 11 -51 14 -10 10 -43 -17 -38 -31 7 -19
-6 -18 -95 6 -111 29 -189 24 -189 -12 0 -13 58 -38 90 -38 16 0 30 -4 30 -10
0 -12 -25 -17 -115 -24 -38 -3 -90 -10 -115 -15 -151 -33 -225 -42 -244 -30
-12 7 -53 11 -100 10 -46 -1 -105 5 -136 14 -30 8 -111 22 -178 30 -70 9 -134
23 -148 31 -26 17 -149 24 -148 9 1 -13 95 -59 174 -84 l65 -21 -55 6 c-89 10
-113 10 -117 -2 -2 -6 13 -19 34 -28 l38 -16 -60 6 c-33 3 -67 7 -75 10 -19 5
-47 -12 -37 -22 10 -11 334 -52 470 -60 103 -7 107 -8 91 -26 -11 -12 -21 -15
-28 -9 -7 6 -32 8 -56 6 -64 -5 -350 31 -448 56 -80 20 -112 20 -112 0 0 -27
75 -47 225 -61 55 -5 129 -14 165 -19 36 -6 100 -11 143 -11 82 0 97 -14 29
-26 -20 -4 -51 -13 -69 -21 -45 -18 -97 -18 -90 2 4 8 1 17 -5 21 -18 11 -167
26 -243 25 -39 -1 -97 5 -130 14 -33 9 -76 21 -95 26 -35 10 -138 34 -196 45
-17 3 -41 1 -53 -6 -19 -10 -27 -8 -54 13 -35 26 -57 25 -57 -2 0 -16 -11 -18
-93 -19 -62 -1 -103 -6 -123 -17 -32 -17 -60 -19 -68 -6 -10 15 -217 5 -274
-14 -33 -11 -66 -15 -90 -11 -30 4 -40 2 -50 -14 -7 -11 -17 -20 -23 -20 -5 0
-8 4 -5 9 14 22 -21 30 -84 20 -36 -6 -86 -14 -112 -18 -31 -5 -62 -19 -88
-40 -28 -22 -40 -27 -40 -17 0 26 -36 38 -78 27 -20 -6 -72 -12 -114 -14 -65
-4 -82 -9 -108 -31 -38 -31 -47 -32 -55 -5 -7 20 -12 21 -83 16 -109 -8 -169
-21 -192 -42 -20 -18 -21 -18 -34 0 -10 14 -21 17 -57 12 -128 -17 -172 -27
-199 -47 l-30 -22 -18 21 c-17 21 -19 21 -95 6 -43 -8 -96 -15 -118 -15 -29 0
-47 -8 -74 -31 -20 -18 -37 -30 -38 -28 -1 2 -7 13 -13 24 -8 14 -21 19 -40
18 -214 -13 -208 -12 -229 -38 -25 -30 -31 -31 -38 -5 -5 18 -11 20 -54 16
-80 -7 -187 -28 -198 -37 -13 -12 -49 -11 -79 2 -19 9 -40 9 -88 -1 -35 -7
-92 -14 -126 -15 -56 -3 -68 -6 -97 -35 l-32 -31 -7 32 c-6 30 -8 31 -38 24
-94 -21 -118 -24 -168 -25 -56 0 -87 -14 -123 -54 -9 -10 -18 -17 -20 -15 -1
2 -7 13 -14 24 -6 11 -17 19 -23 17 -7 -2 -49 -8 -94 -14 -67 -9 -85 -15 -105
-37 -14 -16 -21 -19 -18 -9 4 12 -1 19 -16 24 -12 5 -25 7 -28 6 -26 -6 -173
-28 -212 -31 -4 -1 -12 -12 -17 -26 -12 -32 -34 -32 -48 0 -14 30 -20 30 -135
6 -85 -18 -127 -40 -127 -68 0 -24 -28 -14 -34 13 -6 22 -11 25 -34 21 -15 -3
-56 -9 -92 -12 -53 -6 -71 -13 -97 -38 l-32 -30 -23 28 c-16 18 -34 27 -54 27
-45 0 -60 13 -73 63 -13 51 -9 64 17 62 9 0 38 4 62 10 148 38 337 77 445 92
65 9 157 26 265 49 49 11 274 51 434 78 54 9 119 14 146 11 26 -3 51 -2 57 4
5 5 47 14 93 20 47 5 92 13 100 17 8 3 20 6 25 7 45 6 108 19 150 32 28 9 64
17 80 19 75 8 235 37 279 50 26 8 59 14 72 14 13 0 59 6 101 14 43 8 107 19
143 25 64 10 135 23 300 56 47 9 114 20 150 25 36 5 94 15 130 24 89 22 218
47 260 52 19 2 57 8 85 13 49 9 169 26 250 35 22 2 65 9 95 15 30 6 80 15 110
20 129 21 226 44 245 55 11 7 34 16 50 19 65 13 341 87 355 95 8 5 40 15 70
22 30 7 84 26 118 42 35 15 68 28 74 28 5 0 24 6 41 14 18 8 64 25 102 39 149
53 208 76 230 91 33 21 126 56 150 56 12 0 26 5 33 12 10 10 16 7 28 -10 21
-30 48 -28 82 9 16 17 45 34 68 40 94 22 329 19 561 -10 34 -4 88 -4 120 -1
32 4 69 3 81 -2 17 -6 37 -2 70 13 26 12 69 25 97 28 36 4 51 11 53 23 2 13
-5 17 -34 20 l-38 3 63 67 c53 57 254 208 277 208 4 0 -10 -15 -32 -34 -21
-18 -55 -48 -74 -65 -19 -18 -47 -38 -61 -46 -58 -31 -127 -133 -84 -123 30 6
273 233 286 266 10 26 47 27 41 1z m1622 -8 c4 -5 -5 -41 -19 -79 -14 -38 -25
-78 -25 -88 0 -16 -9 -19 -55 -21 -30 0 -55 0 -55 1 0 1 16 19 35 40 32 35 47
76 27 76 -14 0 -117 -92 -124 -111 -7 -18 -56 -27 -71 -13 -3 3 21 27 54 53
40 31 58 51 55 63 -5 21 26 42 100 68 59 21 71 23 78 11z m976 -82 c0 -10 -13
-46 -30 -81 -25 -52 -30 -58 -30 -34 0 27 -2 28 -35 22 -37 -7 -39 -4 -27 42
7 24 74 68 105 68 9 0 17 -8 17 -17z m-2535 -9 c3 -5 1 -10 -4 -10 -6 0 -11 5
-11 10 0 6 2 10 4 10 3 0 8 -4 11 -10z m2099 2 c3 -5 -4 -16 -15 -25 -10 -9
-19 -24 -19 -33 0 -12 -3 -14 -13 -6 -9 7 -31 2 -80 -18 -37 -16 -67 -27 -67
-25 0 2 31 22 68 44 38 22 74 47 82 55 14 17 36 21 44 8z m-217 -76 c-56 -51
-108 -76 -158 -76 -23 0 -23 0 -4 14 11 7 31 17 45 21 14 4 32 13 40 20 15 13
121 73 130 74 3 0 -21 -24 -53 -53z m-1802 -17 c14 -17 24 -37 22 -43 -6 -17
-78 -26 -84 -10 -6 16 15 84 27 84 4 0 20 -14 35 -31z m1140 11 c-3 -5 -12
-10 -18 -10 -7 0 -6 4 3 10 19 12 23 12 15 0z m1210 -77 c-3 -10 -9 -30 -12
-45 -3 -17 -15 -30 -32 -36 -14 -6 -34 -13 -43 -17 -13 -5 -15 -2 -11 14 3 11
15 21 27 23 15 2 21 10 21 28 0 26 20 49 44 50 8 0 11 -6 6 -17z m9 -79 c3 -8
2 -12 -4 -9 -6 3 -10 10 -10 16 0 14 7 11 14 -7z m-12 -66 c-7 -29 -30 -47
-59 -48 -35 0 -32 45 5 58 47 18 61 15 54 -10z m-1892 -446 c0 -5 -11 -19 -26
-32 -18 -18 -27 -21 -33 -12 -7 11 -58 17 -184 21 -21 0 -36 5 -32 10 3 5 51
8 108 6 56 -2 109 0 117 5 19 12 50 13 50 2z m-289 -59 l34 -8 -45 -5 c-54 -6
-100 -1 -100 11 0 11 65 12 111 2z m169 -44 c-74 -63 -72 -62 -147 -46 -37 9
-112 21 -166 28 -54 6 -95 15 -90 20 4 4 29 4 55 -1 56 -11 246 -20 265 -13
15 6 18 33 3 33 -5 0 -10 3 -10 8 0 4 28 5 62 4 l62 -4 -34 -29z m-1367 -101
c63 -12 80 -33 20 -24 -21 3 -66 8 -100 12 -59 6 -72 12 -57 27 6 6 51 1 137
-15z m-197 -38 c14 0 23 -4 20 -8 -7 -11 -76 -2 -76 10 0 6 7 7 16 4 9 -3 27
-6 40 -6z m194 -28 c-44 -5 -160 7 -160 16 0 4 44 3 97 -3 58 -6 84 -11 63
-13z m168 10 c2 -8 -10 -12 -40 -11 -23 1 -34 3 -23 6 11 3 24 9 30 14 11 11
27 7 33 -9z m-101 -8 c-3 -3 -12 -4 -19 -1 -8 3 -5 6 6 6 11 1 17 -2 13 -5z
m-1489 -120 c-9 -9 -27 -14 -44 -12 l-29 4 25 11 c14 7 34 12 45 12 18 1 18 0
3 -15z"/>
<path d="M7992 3417 c-33 -34 -41 -57 -20 -57 6 0 20 -8 31 -17 18 -17 20 -17
43 10 25 30 30 52 14 62 -5 3 -7 12 -3 20 10 28 -32 16 -65 -18z"/>
<path d="M9393 3269 c-25 -9 -26 -12 -17 -46 7 -27 32 -29 74 -8 28 15 39 39
23 48 -20 11 -60 14 -80 6z"/>
<path d="M9010 3241 c0 -29 17 -35 46 -16 30 19 23 35 -17 35 -22 0 -29 -5
-29 -19z"/>
<path d="M9115 3241 c-7 -12 22 -61 37 -61 5 0 23 7 39 16 46 23 35 48 -23 52
-25 2 -49 -2 -53 -7z"/>
<path d="M9621 3241 c-18 -11 -7 -27 30 -47 28 -14 33 -14 55 1 24 16 30 30
17 38 -18 11 -89 16 -102 8z"/>
<path d="M8495 3231 c-7 -12 12 -24 25 -16 11 7 4 25 -10 25 -5 0 -11 -4 -15
-9z"/>
<path d="M8553 3232 c-21 -13 -1 -66 26 -70 29 -5 63 26 59 52 -2 16 -11 22
-38 24 -19 1 -40 -1 -47 -6z"/>
<path d="M8680 3226 c0 -8 4 -17 9 -20 10 -7 23 19 14 28 -11 11 -23 6 -23 -8z"/>
<path d="M8885 3230 c-41 -4 -50 -8 -50 -25 0 -31 47 -43 90 -22 35 17 46 41
23 49 -7 2 -35 1 -63 -2z"/>
<path d="M10075 3219 c-11 -4 -34 -8 -52 -8 -42 -1 -52 -20 -23 -43 l22 -18
-30 0 c-16 0 -35 -6 -41 -14 -19 -22 13 -39 77 -40 51 -1 57 1 57 19 0 14 -8
21 -24 23 -24 4 -24 5 12 35 38 33 40 61 2 46z"/>
<path d="M7772 3184 c-14 -10 -14 -14 -3 -28 24 -29 107 -13 95 18 -7 18 -71
25 -92 10z"/>
<path d="M9273 3174 c-7 -19 4 -31 39 -39 21 -5 29 -2 38 15 10 18 9 24 -1 31
-23 14 -69 10 -76 -7z"/>
<path d="M8520 3170 c0 -5 5 -10 10 -10 6 0 10 5 10 10 0 6 -4 10 -10 10 -5 0
-10 -4 -10 -10z"/>
<path d="M7494 3155 c-7 -17 32 -54 58 -55 20 0 42 35 34 56 -8 20 -85 19 -92
-1z"/>
<path d="M6911 3151 c-16 -10 -6 -31 15 -31 8 0 14 -7 14 -15 0 -22 46 -19 70
5 31 31 16 50 -39 50 -25 0 -52 -4 -60 -9z"/>
<path d="M9717 3128 c-43 -15 -32 -42 19 -46 43 -3 60 12 48 43 -7 17 -26 18
-67 3z"/>
<path d="M9887 3133 c-12 -11 -8 -23 8 -23 8 0 15 7 15 15 0 16 -12 20 -23 8z"/>
<path d="M8247 3123 c-15 -14 -5 -32 29 -52 34 -20 38 -21 60 -6 45 30 23 65
-41 65 -23 0 -45 -3 -48 -7z"/>
<path d="M9425 3114 c-21 -22 -1 -46 34 -42 43 5 38 57 -6 58 -6 0 -19 -7 -28
-16z"/>
<path d="M6613 3093 c-19 -7 -16 -26 7 -46 29 -24 57 -21 76 9 15 22 15 27 3
35 -15 9 -66 11 -86 2z"/>
<path d="M8013 3089 c-9 -9 -6 -20 10 -45 25 -38 36 -38 57 -2 12 22 12 29 1
42 -16 19 -52 21 -68 5z"/>
<path d="M9155 3086 c-19 -14 -19 -15 -1 -35 24 -27 52 -27 66 0 22 40 -25 65
-65 35z"/>
<path d="M7250 3059 c-13 -24 -12 -39 2 -39 6 0 19 -7 29 -16 16 -14 20 -14
48 1 44 22 38 39 -19 56 -48 15 -52 15 -60 -2z"/>
<path d="M6873 3063 c-34 -13 20 -80 56 -68 22 7 38 42 24 55 -11 11 -65 20
-80 13z"/>
<path d="M10008 3054 c-18 -17 -5 -32 38 -44 34 -10 48 -10 57 -1 8 8 7 15 -4
26 -17 18 -80 31 -91 19z"/>
<path d="M8711 3041 c-9 -6 -11 -18 -6 -40 5 -24 12 -31 29 -31 24 0 56 28 56
48 0 24 -53 40 -79 23z"/>
<path d="M8454 2987 c-8 -21 14 -67 31 -67 42 0 75 41 54 66 -15 18 -78 18
-85 1z"/>
<path d="M8894 2988 c-8 -13 22 -38 47 -38 21 0 43 26 34 40 -8 14 -72 13 -81
-2z"/>
<path d="M10087 2983 c-18 -29 90 -66 112 -40 9 11 8 17 -2 26 -19 15 -103 26
-110 14z"/>
<path d="M7570 2945 c-12 -15 -12 -19 3 -30 9 -7 17 -19 17 -28 0 -24 30 -29
69 -10 35 18 51 47 34 63 -4 5 -31 12 -58 15 -41 6 -54 4 -65 -10z"/>
<path d="M8114 2945 c-8 -20 39 -68 62 -63 9 1 22 11 28 21 9 15 7 22 -13 38
-28 23 -69 25 -77 4z"/>
<path d="M10452 2939 c-32 -12 -22 -34 14 -34 19 0 30 6 32 16 4 21 -17 29
-46 18z"/>
<path d="M7457 2933 c-14 -13 -6 -33 13 -33 22 0 23 1 14 24 -7 17 -16 20 -27
9z"/>
<path d="M6463 2923 c-7 -2 -13 -16 -13 -29 0 -19 5 -24 24 -24 28 0 51 24 42
45 -5 15 -29 18 -53 8z"/>
<path d="M8535 2900 c-3 -5 -1 -10 4 -10 6 0 11 5 11 10 0 6 -2 10 -4 10 -3 0
-8 -4 -11 -10z"/>
<path d="M6155 2884 c-22 -9 -58 -19 -80 -23 -40 -7 -84 -28 -117 -54 -38 -30
-10 -70 34 -50 15 7 31 4 57 -9 19 -10 43 -18 52 -18 20 0 94 57 94 73 0 7 15
27 33 44 18 18 31 37 27 43 -9 14 -54 12 -100 -6z"/>
<path d="M7854 2858 c-4 -6 0 -16 8 -22 9 -6 17 -20 19 -31 6 -29 44 -31 63
-3 24 34 20 46 -21 57 -49 14 -60 14 -69 -1z"/>
<path d="M10429 2851 c-29 -24 -20 -37 34 -46 36 -7 39 -6 35 15 -1 13 -12 29
-24 37 -19 12 -24 11 -45 -6z"/>
<path d="M6632 2844 c-23 -17 -7 -31 44 -39 48 -7 99 14 91 38 -5 15 -114 16
-135 1z"/>
<path d="M7048 2855 c-11 -11 10 -45 27 -45 8 0 19 -9 25 -20 22 -41 70 -14
70 39 0 15 -6 21 -22 21 -13 0 -39 3 -58 6 -19 3 -38 3 -42 -1z"/>
<path d="M7385 2840 c-17 -18 -15 -50 3 -50 23 0 44 28 38 48 -9 27 -18 28
-41 2z"/>
<path d="M7273 2733 c-20 -7 -15 -31 7 -43 11 -6 20 -17 20 -26 0 -28 30 -27
61 2 16 15 29 32 29 36 0 21 -86 44 -117 31z"/>
<path d="M7510 2715 c-10 -12 -6 -21 16 -45 16 -16 34 -30 40 -30 5 0 23 14
40 31 27 29 28 31 11 44 -24 17 -93 17 -107 0z"/>
<path d="M6451 2707 c-6 -8 -7 -17 -3 -21 4 -4 7 -18 7 -29 0 -34 36 -32 63 4
20 24 22 32 12 44 -16 19 -64 19 -79 2z"/>
<path d="M6651 2691 c-16 -10 2 -51 23 -51 16 0 63 36 56 43 -11 11 -66 16
-79 8z"/>
<path d="M6438 2533 c-29 -7 -21 -25 10 -21 15 2 25 6 23 11 -6 12 -15 15 -33
10z"/>
<path d="M10595 3439 c-10 -15 3 -25 16 -12 7 7 7 13 1 17 -6 3 -14 1 -17 -5z"/>
<path d="M6525 3330 c-18 -20 -17 -20 13 -20 34 0 52 18 31 31 -20 12 -24 11
-44 -11z"/>
<path d="M1160 2874 c0 -8 5 -12 10 -9 6 4 8 11 5 16 -9 14 -15 11 -15 -7z"/>
<path d="M10090 2810 c0 -5 5 -10 10 -10 6 0 10 5 10 10 0 6 -4 10 -10 10 -5
0 -10 -4 -10 -10z"/>
<path d="M1070 2660 c0 -11 5 -20 10 -20 6 0 10 9 10 20 0 11 -4 20 -10 20 -5
0 -10 -9 -10 -20z"/>
<path d="M1070 2620 c0 -5 5 -10 11 -10 5 0 7 5 4 10 -3 6 -8 10 -11 10 -2 0
-4 -4 -4 -10z"/>
<path d="M1026 2594 c-4 -11 -1 -14 11 -12 9 2 18 9 21 16 6 18 -25 15 -32 -4z"/>
<path d="M9007 1400 c-33 -10 -97 -57 -97 -71 0 -5 9 -23 21 -38 45 -61 59
-226 44 -501 -8 -140 -8 -341 0 -398 20 -145 157 -153 196 -12 7 28 11 85 9
150 -8 208 -6 250 10 261 17 11 99 2 117 -12 24 -20 35 -108 29 -228 -7 -170
15 -233 90 -247 65 -12 97 16 109 96 4 25 6 50 5 55 0 6 -3 53 -6 105 -5 108
-36 266 -65 326 -10 22 -33 53 -50 70 -30 28 -33 29 -134 29 -57 0 -107 4
-112 8 -4 5 -8 62 -9 128 -1 73 -5 124 -13 132 -6 8 -14 36 -17 63 -11 89 -42
109 -127 84z m58 -87 c3 -16 12 -51 20 -79 10 -33 15 -89 13 -155 -2 -159 13
-174 166 -163 l92 7 25 -34 c35 -49 48 -81 65 -173 14 -72 20 -313 8 -325 -2
-2 -10 1 -18 8 -23 20 -36 94 -36 216 0 194 -28 252 -118 248 -26 -1 -62 3
-81 8 -43 14 -56 2 -75 -72 -18 -68 -20 -113 -12 -244 7 -104 -6 -184 -32
-193 -29 -9 -36 51 -31 303 8 461 5 543 -21 602 -23 55 -21 73 10 73 13 0 21
-9 25 -27z"/>
<path d="M10950 1286 c0 -9 5 -16 10 -16 6 0 10 4 10 9 0 6 -4 13 -10 16 -5 3
-10 -1 -10 -9z"/>
<path d="M4810 1258 c-66 -32 -155 -128 -175 -188 -25 -75 -12 -174 32 -248
49 -81 67 -98 158 -143 86 -43 128 -77 152 -123 19 -37 3 -100 -37 -144 -61
-67 -120 -50 -155 44 -17 48 -28 62 -58 77 -32 16 -39 17 -64 3 -15 -8 -46
-36 -67 -61 l-39 -47 11 -59 c19 -104 86 -166 215 -198 87 -23 191 -16 252 16
56 29 105 94 133 177 20 57 24 89 23 166 -2 127 -20 186 -80 257 -49 60 -139
115 -209 128 -18 4 -51 24 -73 44 -50 48 -53 90 -9 139 37 40 52 40 101 1 28
-22 40 -40 45 -67 10 -65 15 -74 50 -88 38 -16 55 -11 91 28 37 39 46 76 32
131 -16 66 -57 105 -157 145 -97 38 -113 39 -172 10z m179 -96 c65 -34 98 -81
87 -126 -9 -36 -38 -31 -46 9 -16 74 -53 114 -126 134 -33 9 -45 8 -78 -9 -52
-25 -59 -18 -9 9 49 27 97 22 172 -17z m-199 -280 c28 -27 54 -44 78 -48 46
-8 161 -83 194 -127 66 -86 78 -273 23 -360 -40 -63 -88 -88 -172 -89 -77 -1
-167 22 -206 52 -35 28 -51 79 -36 114 18 38 42 29 50 -17 7 -41 38 -81 83
-104 37 -19 101 -4 162 37 47 33 94 117 94 168 0 70 -61 177 -106 188 -14 4
-28 12 -32 19 -4 7 -33 26 -64 42 -46 23 -65 41 -96 89 -24 37 -41 77 -45 104
l-5 45 18 -36 c10 -19 37 -54 60 -77z"/>
<path d="M8024 1246 c-38 -38 -44 -77 -19 -125 20 -39 77 -51 114 -23 35 26
55 96 39 133 -25 57 -86 63 -134 15z m72 -51 c9 -22 -3 -45 -20 -39 -15 6 -28
39 -18 48 11 11 33 6 38 -9z"/>
<path d="M7413 1249 c-10 -4 -25 -14 -33 -24 -12 -14 -11 -20 3 -45 14 -24 16
-49 12 -171 -3 -79 -9 -187 -15 -239 -5 -52 -14 -166 -20 -253 -6 -86 -15
-169 -21 -184 -14 -36 -3 -78 24 -90 23 -11 174 -3 194 10 18 11 27 66 13 83
-16 18 -8 147 10 169 7 8 22 15 34 15 11 0 29 7 39 14 15 12 18 32 18 161 0
97 -4 152 -12 161 -15 18 -43 18 -59 -1 -22 -26 -29 -6 -23 63 9 104 14 109
143 130 45 8 77 -3 155 -54 18 -12 29 -13 43 -5 19 10 20 19 15 128 -3 81 -9
122 -18 132 -11 12 -28 12 -102 3 -131 -17 -235 -23 -247 -13 -14 11 -129 19
-153 10z m455 -122 c3 -62 -5 -70 -37 -35 -26 27 -108 34 -199 16 -49 -9 -69
-18 -88 -41 -29 -34 -29 -36 -44 -201 -10 -118 -10 -130 7 -148 17 -19 45 -21
86 -3 16 6 17 2 13 -39 -6 -59 -9 -64 -43 -59 -53 8 -67 -22 -78 -165 l-10
-127 -28 -3 c-27 -3 -28 -2 -23 30 3 18 10 125 16 238 6 113 15 243 21 290 6
47 9 129 7 183 -3 114 5 127 68 107 37 -12 197 -6 265 10 59 14 64 10 67 -53z"/>
<path d="M2947 1114 c-41 -41 -43 -48 -23 -101 29 -76 34 -141 29 -403 -6
-323 -6 -342 10 -405 11 -47 15 -51 55 -64 40 -12 46 -12 70 6 51 38 57 62 57
261 0 196 2 201 52 202 12 0 28 3 37 6 9 3 26 -5 41 -20 l26 -26 -6 -168 c-9
-220 3 -254 84 -242 24 3 57 33 80 73 20 34 21 47 17 157 -3 66 -8 161 -12
212 -15 200 -82 253 -260 205 -67 -17 -91 -8 -100 38 -6 34 1 159 12 217 4 22
-1 34 -27 58 -48 43 -93 41 -142 -6z m98 -185 c0 -130 2 -149 19 -168 27 -30
75 -35 164 -17 43 9 88 16 99 16 22 0 58 -35 67 -65 11 -39 25 -202 27 -309 1
-97 -1 -110 -20 -129 -11 -12 -24 -18 -28 -14 -14 15 -21 115 -11 192 16 134
-11 234 -67 249 -37 10 -184 -6 -197 -21 -9 -11 -12 -75 -13 -219 0 -217 -6
-247 -43 -211 -15 16 -17 47 -19 305 -2 279 -11 425 -31 487 -12 41 -5 57 27
53 l26 -3 0 -146z"/>
<path d="M2064 1099 c-9 -11 -14 -33 -13 -60 1 -24 -1 -58 -5 -76 -9 -40 23
-79 57 -68 99 28 232 25 242 -6 3 -10 4 -62 1 -116 -6 -107 -5 -506 2 -580 3
-32 50 -53 120 -53 94 0 96 5 97 218 1 97 -2 188 -7 202 -11 30 -14 266 -4
297 10 30 50 41 113 30 46 -8 59 -6 99 13 28 14 49 32 55 48 9 24 6 78 -7 125
-11 38 -38 41 -392 42 -308 0 -344 -1 -358 -16z m431 -63 c178 1 252 -1 257
-10 14 -21 8 -61 -11 -73 -20 -12 -33 -12 -92 5 -48 13 -117 -6 -141 -38 -16
-23 -19 -45 -19 -175 0 -83 3 -225 7 -316 8 -199 5 -219 -36 -219 -18 0 -33 7
-39 18 -9 16 -12 149 -15 533 -1 240 6 229 -158 229 -117 0 -118 0 -118 23 0
35 9 39 65 30 27 -4 163 -7 300 -7z"/>
<path d="M8554 1081 c-79 -36 -131 -139 -113 -221 15 -66 47 -127 80 -152 80
-61 99 -83 105 -125 6 -40 5 -42 -33 -60 -45 -22 -77 -16 -130 23 -42 32 -58
30 -82 -10 -30 -48 -27 -102 8 -158 25 -40 38 -49 82 -62 63 -19 147 -20 203
-4 45 14 116 80 116 109 0 10 4 20 9 23 20 13 22 86 5 165 -16 73 -23 88 -71
143 -56 64 -66 86 -34 68 31 -16 59 -12 75 12 51 72 -27 235 -120 252 -19 4
-41 9 -47 11 -7 3 -31 -4 -53 -14z m66 -69 c-48 -33 -60 -51 -60 -91 0 -58 30
-118 97 -191 75 -81 79 -90 88 -173 8 -78 -7 -121 -52 -157 -24 -19 -35 -20
-108 -14 -79 6 -113 17 -127 38 -14 21 -8 25 24 15 84 -24 178 6 207 66 19 38
16 131 -5 163 -8 13 -34 40 -57 60 -109 98 -132 143 -106 215 15 45 66 87 103
86 20 0 20 -1 -4 -17z m83 -44 c23 -52 27 -68 17 -68 -6 0 -10 6 -10 13 0 7
-9 29 -19 50 -10 20 -15 37 -10 37 4 0 15 -15 22 -32z m-49 -88 c18 -44 18
-45 -2 -27 -20 18 -34 62 -24 72 7 6 5 8 26 -45z"/>
<path d="M2010 1020 c0 -5 5 -10 10 -10 6 0 10 5 10 10 0 6 -4 10 -10 10 -5 0
-10 -4 -10 -10z"/>
<path d="M8045 1020 c-3 -5 -19 -10 -35 -10 -36 0 -42 -18 -28 -83 11 -53 8
-140 -13 -332 -23 -218 -15 -285 41 -323 29 -19 44 -22 105 -19 60 3 78 8 108
31 45 34 46 49 8 77 -57 42 -60 69 -48 345 10 196 1 252 -45 302 -22 23 -81
31 -93 12z m57 -82 c17 -30 16 -321 -1 -342 -13 -16 -5 -189 10 -218 15 -29
10 -38 -22 -38 -48 0 -61 44 -48 156 6 49 11 173 12 277 1 170 3 187 19 187 9
0 23 -10 30 -22z"/>
<path d="M5490 948 c-157 -42 -188 -60 -235 -130 -39 -58 -30 -104 24 -132 37
-20 89 -6 155 41 l49 35 22 -24 c26 -27 38 -67 25 -87 -7 -13 -15 -13 -48 -2
-71 24 -140 -13 -186 -98 -41 -76 -40 -161 0 -245 16 -33 41 -69 56 -80 30
-21 107 -27 130 -9 26 21 58 21 83 1 39 -30 88 -34 128 -9 19 11 45 21 59 21
27 0 68 37 68 63 0 11 -12 18 -35 23 -26 5 -40 15 -52 37 -14 28 -14 48 -3
192 17 209 10 259 -40 326 -64 86 -108 103 -200 77z m95 -76 c22 -16 62 -79
74 -119 14 -43 12 -90 -9 -248 -10 -73 -9 -111 7 -202 7 -42 -16 -44 -59 -8
-34 29 -66 32 -109 9 -17 -8 -40 -14 -52 -12 -17 2 -10 9 32 31 29 15 63 27
76 27 36 0 47 22 40 77 -11 77 -14 82 -57 93 -62 17 -112 4 -148 -37 -17 -19
-34 -33 -37 -30 -12 13 11 69 39 92 32 27 51 30 117 14 55 -12 86 5 100 58 19
66 13 107 -18 151 -46 63 -120 68 -184 13 -39 -34 -72 -44 -87 -26 -24 29 25
71 130 114 29 11 130 14 145 3z m-80 -440 c8 -20 -32 -53 -60 -49 -28 3 -31
41 -5 60 25 17 56 12 65 -11z"/>
<path d="M5910 921 c-70 -14 -74 -25 -27 -83 l32 -40 0 -238 c0 -226 1 -240
21 -267 72 -98 190 -98 241 0 9 17 21 80 28 140 18 151 31 159 47 30 5 -43 12
-92 14 -110 6 -38 65 -113 102 -129 27 -12 83 -8 114 8 41 20 95 169 102 280
2 43 7 82 10 87 3 5 12 59 20 120 14 105 14 114 -3 155 -19 44 -35 56 -75 56
-33 0 -76 -56 -82 -105 -6 -54 -26 -185 -35 -223 -5 -23 -9 -51 -9 -62 0 -11
-4 -20 -9 -20 -5 0 -12 28 -16 63 -14 130 -54 199 -121 210 -67 11 -113 -27
-150 -125 -12 -35 -23 -61 -24 -58 0 3 -3 25 -5 50 -13 157 -24 204 -57 237
-33 34 -49 37 -118 24z m85 -93 c17 -43 39 -258 31 -315 -11 -79 30 -107 89
-61 l28 22 -6 -64 c-10 -87 -44 -118 -99 -89 -38 20 -47 66 -53 275 -3 109 -8
214 -11 232 -3 17 -2 32 1 32 3 0 12 -15 20 -32z m560 -7 c3 -16 1 -56 -5 -88
-6 -32 -19 -119 -30 -193 -20 -139 -41 -218 -63 -232 -24 -15 -54 -8 -79 20
-38 41 -49 66 -53 135 -4 52 -3 58 6 37 28 -62 34 -72 52 -82 45 -24 75 44
112 255 14 82 29 155 32 163 9 23 21 16 28 -15z m-266 -138 c30 -46 41 -93 21
-93 -6 0 -13 13 -16 30 -10 47 -28 55 -67 31 -49 -30 -64 -51 -72 -101 -8 -50
-24 -88 -25 -58 0 29 30 149 48 187 12 26 25 38 47 42 17 4 31 7 32 8 0 0 15
-20 32 -46z"/>
<path d="M3716 852 c-43 -15 -55 -25 -82 -71 -117 -195 -59 -539 103 -611 54
-24 93 -25 158 -5 27 8 52 12 57 9 4 -3 12 5 17 18 5 13 20 34 34 46 34 32 71
133 63 172 -3 16 -9 44 -12 61 -5 22 -15 35 -37 44 -29 12 -29 13 -9 19 26 8
46 41 36 58 -4 6 -7 25 -6 42 0 17 -10 51 -24 75 -13 24 -24 47 -24 52 0 19
-57 73 -95 90 -49 23 -114 23 -179 1z m182 -83 c42 -25 105 -187 75 -190 -5 0
-21 -3 -38 -7 -16 -3 -65 -5 -107 -4 -69 2 -78 0 -92 -20 -19 -26 -21 -100 -5
-149 18 -53 55 -96 94 -109 32 -11 40 -9 71 12 19 12 37 34 40 48 7 34 39 93
53 98 12 4 14 -85 2 -128 -10 -37 -85 -90 -127 -90 -39 0 -99 23 -127 48 -20
18 -67 113 -87 177 -19 57 -15 216 6 257 35 71 48 78 138 74 47 -1 91 -8 104
-17z m51 -266 c0 -5 -9 -21 -20 -38 -22 -36 -25 -41 -39 -78 -22 -62 -80 -37
-104 44 -18 60 -14 73 23 66 21 -4 73 1 134 12 4 0 7 -2 6 -6z"/>
<path d="M3770 744 c-56 -48 -79 -124 -42 -142 30 -16 192 -25 208 -11 35 29
-7 136 -63 163 -47 22 -66 20 -103 -10z m91 -54 c20 -11 25 -35 10 -45 -16 -9
-101 16 -101 30 0 24 56 33 91 15z"/>
<path d="M6976 748 c-43 -4 -89 -14 -102 -23 -13 -8 -32 -15 -42 -15 -11 0
-25 -6 -31 -14 -14 -17 -4 -102 16 -134 13 -21 20 -23 51 -17 21 4 94 8 163 8
157 2 164 6 155 90 -3 34 -14 70 -26 87 -22 31 -34 33 -184 18z m143 -87 c22
-41 16 -44 -81 -39 -55 4 -101 1 -115 -5 -18 -8 -27 -6 -43 8 -11 10 -20 25
-20 34 0 14 19 16 124 19 116 3 125 2 135 -17z"/>
<path d="M9728 524 c-20 -6 -35 -44 -43 -110 -6 -48 -5 -52 25 -77 46 -39 116
-38 153 1 23 24 27 37 27 83 -1 77 -21 101 -91 105 -30 1 -61 1 -71 -2z m81
-83 c7 -13 7 -23 -2 -35 -18 -25 -52 1 -43 32 9 27 32 29 45 3z"/>
</g>
</svg>
