<?xml version="1.0" standalone="no"?>
<!DOCTYPE svg PUBLIC "-//W3C//DTD SVG 20010904//EN"
 "http://www.w3.org/TR/2001/REC-SVG-20010904/DTD/svg10.dtd">
<svg version="1.0" xmlns="http://www.w3.org/2000/svg"
 width="1000.000000pt" height="148.000000pt" viewBox="0 0 1000.000000 148.000000"
 preserveAspectRatio="xMidYMid meet">
<metadata>
Created by potrace 1.16, written by Peter Selinger 2001-2019
</metadata>
<g transform="translate(0.000000,148.000000) scale(0.100000,-0.100000)"
fill="#000000" stroke="none">
<path d="M8485 1315 c-73 -68 -113 -82 -107 -38 4 27 -30 47 -65 38 -37 -9
-198 -113 -189 -122 3 -3 35 16 72 42 114 80 160 90 166 37 4 -35 44 -42 75
-12 12 11 26 20 30 20 8 0 20 11 77 70 24 24 52 19 81 -15 30 -34 58 -45 99
-38 38 6 42 3 26 -27 -8 -15 -5 -23 12 -40 12 -11 28 -20 36 -20 18 0 8 -43
-19 -81 -10 -15 -19 -36 -19 -47 0 -11 -6 -23 -12 -25 -7 -3 -3 -6 8 -6 39 -2
50 -27 32 -74 -14 -38 -14 -45 1 -75 14 -31 14 -36 -2 -64 -21 -37 -2 -33 21
4 14 23 14 33 4 62 -10 26 -10 40 -1 60 7 14 16 26 21 26 16 0 8 20 -22 53
-37 42 -37 60 -5 99 32 38 32 66 0 74 -35 9 -51 30 -35 49 23 27 4 45 -47 45
-43 0 -51 4 -76 35 -44 56 -76 50 -162 -30z"/>
<path d="M7956 1160 c-33 -11 -62 -23 -65 -27 -24 -34 -304 -137 -441 -162
-36 -7 -73 -20 -82 -28 -30 -27 -20 -33 17 -12 24 14 44 19 61 15 14 -4 31 -3
37 3 14 10 115 40 165 48 18 3 35 9 38 14 3 5 13 9 22 9 21 0 158 65 163 77 2
5 33 21 69 37 36 16 69 32 75 37 11 11 13 11 -59 -11z"/>
<path d="M7828 1163 c7 -3 16 -2 19 1 4 3 -2 6 -13 5 -11 0 -14 -3 -6 -6z"/>
<path d="M8290 1160 l-25 -8 25 0 c14 0 34 3 45 8 l20 9 -20 -1 c-11 0 -31 -4
-45 -8z"/>
<path d="M8630 1159 c-19 -5 -84 -25 -145 -43 -60 -19 -146 -41 -190 -50 -44
-8 -107 -21 -140 -28 l-60 -13 48 -3 c66 -4 233 31 315 67 37 16 96 37 132 46
36 9 69 21 75 26 5 5 7 9 5 8 -3 0 -21 -5 -40 -10z"/>
<path d="M3530 1153 c-76 -29 -182 -86 -207 -111 l-30 -31 -44 16 c-35 12 -74
14 -199 10 -85 -3 -173 -11 -195 -18 -22 -7 -43 -12 -47 -11 -3 1 -39 -6 -80
-15 -83 -18 -338 -20 -410 -3 -24 5 -54 9 -68 9 -24 -1 -23 -1 5 -11 17 -5 46
-11 65 -14 19 -3 59 -9 89 -15 69 -12 203 -11 261 2 25 5 74 14 109 19 36 6
83 17 107 25 57 19 344 20 370 1 15 -12 16 -16 5 -30 -15 -18 -8 -21 18 -6 32
17 62 -28 65 -95 3 -70 -5 -74 -93 -51 -133 36 -307 32 -555 -12 -20 -3 -27
-1 -22 7 4 6 2 11 -3 11 -6 0 -11 -4 -11 -10 0 -5 -12 -10 -27 -11 -16 0 -22
-3 -15 -6 31 -12 6 -23 -60 -24 -140 -2 -162 0 -178 21 -8 10 -47 31 -87 45
-40 15 -78 34 -84 42 -13 15 -7 15 81 -8 19 -5 49 -9 65 -8 20 0 4 8 -50 23
-91 26 -235 84 -235 95 0 4 17 6 38 4 l37 -3 -42 20 c-24 10 -43 24 -43 29 0
6 24 -1 53 -14 28 -14 66 -24 82 -24 l30 1 -35 10 c-19 6 -59 20 -89 33 -60
26 -81 24 -73 -7 3 -14 1 -19 -6 -14 -7 4 -12 4 -12 -1 1 -18 28 -40 83 -67
37 -18 57 -34 57 -45 0 -11 16 -25 42 -37 23 -10 55 -31 71 -46 15 -16 37 -28
47 -28 11 0 20 -4 20 -9 0 -5 -32 -8 -72 -5 -40 2 -122 5 -183 5 -126 1 -230
23 -321 67 -32 17 -78 33 -101 37 -55 9 -56 -4 -8 -97 35 -66 115 -182 122
-175 2 2 -24 57 -57 123 -33 65 -60 122 -60 127 0 12 19 8 68 -14 95 -44 128
-56 177 -67 56 -13 279 -23 545 -25 96 -1 178 -6 181 -10 4 -5 17 -3 30 5 44
27 181 56 317 67 99 8 269 -12 357 -41 82 -28 117 -28 180 2 63 30 123 57 190
85 55 23 170 55 199 55 14 0 28 -5 31 -10 3 -6 23 -19 43 -29 41 -21 39 -22
-49 -39 -63 -12 -166 -49 -247 -89 -79 -39 -191 -121 -204 -148 -16 -34 11
-71 61 -85 48 -13 65 -49 50 -104 -11 -40 -34 -58 -138 -111 -152 -76 -333
-114 -486 -101 -38 3 -99 8 -135 11 -93 8 -168 22 -236 46 -74 26 -218 94
-236 112 -7 7 -41 32 -75 55 -59 40 -77 62 -52 62 6 0 25 -11 43 -25 18 -14
39 -25 45 -25 7 0 24 -9 38 -20 14 -11 34 -20 45 -20 10 0 21 -6 24 -14 9 -22
100 -61 199 -85 50 -12 107 -26 128 -32 41 -11 62 -4 37 11 -34 21 47 29 180
18 36 -3 52 -4 37 -1 -19 3 -27 9 -23 18 3 10 -8 18 -36 27 -36 11 -42 10 -54
-6 -10 -14 -20 -16 -45 -11 -22 5 -29 4 -25 -4 5 -7 -2 -11 -17 -11 -13 0 -38
-5 -54 -10 -24 -9 -46 -7 -104 9 -90 23 -171 58 -182 76 -4 7 -20 16 -36 20
-16 3 -39 17 -51 30 -35 37 -4 42 61 10 30 -15 99 -40 154 -56 55 -16 107 -33
115 -36 8 -3 24 -8 35 -9 11 -2 31 -7 45 -10 14 -3 22 -3 19 1 -4 3 -55 20
-115 37 -121 34 -202 74 -185 91 8 8 31 6 78 -5 38 -10 87 -19 111 -22 l43 -4
-22 19 c-12 10 -27 19 -33 19 -6 0 -3 7 6 16 15 15 21 15 85 0 79 -20 205 -38
212 -30 10 10 -24 23 -44 18 -22 -5 -162 20 -206 37 -17 7 -34 7 -53 -1 -24
-9 -27 -14 -22 -36 7 -25 5 -25 -26 -19 -18 4 -53 14 -77 22 -48 16 -91 11
-91 -12 0 -19 2 -19 -49 6 -50 24 -87 22 -83 -4 4 -24 -6 -22 -68 19 -37 24
-61 34 -76 30 -23 -6 -22 -7 11 -39 19 -17 40 -37 47 -42 26 -21 114 -80 133
-91 11 -6 19 -15 19 -20 -2 -12 -52 -7 -139 12 -78 18 -273 108 -282 130 -3 8
-12 14 -21 14 -8 0 -46 27 -83 60 -37 33 -72 60 -78 60 -23 0 -9 -21 39 -57
57 -44 61 -67 9 -71 -41 -3 -93 14 -84 28 4 6 -6 10 -23 10 -18 0 -57 18 -103
49 -85 55 -139 84 -145 78 -8 -7 37 -77 49 -78 7 -1 -1 -4 -18 -8 l-30 -7 34
-32 c18 -18 40 -32 48 -32 9 0 31 -9 49 -21 19 -11 34 -16 34 -10 0 6 7 11 15
11 8 0 15 7 15 15 0 22 19 18 56 -10 21 -16 46 -25 68 -25 20 0 36 -4 36 -10
0 -5 35 -8 83 -6 116 4 159 -22 75 -44 -119 -33 -275 -2 -453 89 -57 29 -81
33 -57 9 8 -8 6 -15 -9 -27 l-21 -16 22 -20 c18 -16 23 -17 32 -5 8 12 9 12 4
-2 -3 -10 -1 -18 4 -18 6 0 10 -4 10 -10 0 -5 -11 -10 -25 -10 -22 0 -37 -18
-17 -21 16 -3 148 -9 170 -9 102 4 138 1 217 -13 50 -9 107 -17 127 -17 20 0
63 -7 95 -15 52 -14 65 -13 136 2 66 14 88 15 136 5 31 -7 67 -12 80 -12 12 0
36 -7 53 -16 47 -25 202 -60 318 -74 263 -30 446 -6 635 85 61 29 125 67 144
84 30 29 33 36 28 74 -6 44 -43 87 -75 87 -23 0 -62 28 -62 45 0 20 74 89 120
113 14 7 51 28 82 46 31 19 74 39 95 46 21 6 47 15 58 20 11 5 55 18 98 29
l79 21 32 -25 c18 -14 39 -25 47 -25 8 0 51 -33 95 -72 44 -40 139 -126 212
-191 72 -65 134 -127 137 -138 4 -10 11 -19 16 -19 5 0 9 -6 9 -14 0 -8 3 -16
8 -18 10 -4 37 -51 75 -130 40 -85 54 -89 20 -6 -68 168 -144 260 -354 428
-24 19 -72 60 -107 91 -35 31 -75 62 -90 70 -31 16 -134 77 -207 124 -55 35
-130 74 -103 53 9 -7 25 -18 35 -24 25 -16 17 -21 -68 -43 -78 -20 -164 -50
-233 -80 -54 -24 -151 -46 -165 -37 -6 4 -11 29 -11 56 0 48 -25 120 -42 120
-24 0 -2 24 38 41 25 12 43 23 41 26 -3 2 -14 0 -25 -6 -26 -14 -32 -14 -32
-1 0 5 21 21 48 34 26 13 67 34 92 47 26 14 72 26 110 30 l65 6 -60 1 c-33 0
-67 -2 -75 -5z m-1175 -343 c8 -13 -15 -13 -35 0 -12 8 -11 10 7 10 12 0 25
-4 28 -10z m-765 -420 c0 -5 -7 -7 -15 -4 -8 4 -15 8 -15 10 0 2 7 4 15 4 8 0
15 -4 15 -10z m584 -33 l60 -25 -35 -7 c-31 -6 -90 1 -194 22 l-30 6 45 18
c53 22 75 20 154 -14z"/>
<path d="M7330 1149 c-105 -4 -149 -11 -200 -29 -78 -28 -80 -29 -176 -116
-42 -38 -86 -69 -97 -69 -15 0 -36 22 -70 73 -61 90 -98 119 -170 134 -48 10
-68 9 -134 -6 -43 -11 -85 -22 -93 -27 -8 -4 -37 -18 -65 -29 -27 -12 -80 -39
-117 -61 -61 -37 -69 -39 -105 -30 -21 5 -67 13 -103 16 -36 4 -83 10 -105 15
-139 29 -360 12 -437 -33 -54 -31 -81 -60 -76 -83 5 -27 46 -32 138 -19 126
18 306 23 380 10 67 -12 80 -15 80 -23 0 -4 -40 -32 -88 -61 -49 -29 -107 -69
-129 -90 -23 -20 -63 -54 -90 -76 -128 -106 -208 -212 -274 -364 -45 -102 -59
-164 -39 -176 19 -12 28 5 49 85 11 41 26 89 35 105 9 17 16 34 16 38 0 25 94
160 150 217 87 88 229 208 293 247 29 17 59 37 67 45 35 31 297 192 354 218
141 63 125 58 217 66 113 11 167 -21 234 -141 57 -103 100 -99 213 19 34 36
79 73 100 82 106 45 122 47 339 49 117 1 216 4 219 8 9 9 -166 13 -316 6z
m-1465 -145 c61 -9 126 -18 145 -21 75 -9 100 -14 100 -23 0 -4 -24 -23 -52
-41 l-53 -32 -62 17 c-80 21 -306 22 -426 1 -89 -16 -107 -14 -107 10 0 32
142 107 169 90 5 -3 19 -2 30 3 40 14 146 13 256 -4z"/>
<path d="M7748 1153 c6 -2 18 -2 25 0 6 3 1 5 -13 5 -14 0 -19 -2 -12 -5z"/>
<path d="M3680 1144 c8 -4 43 -20 77 -35 34 -16 70 -29 80 -29 10 0 31 -7 47
-15 15 -8 32 -15 36 -15 11 0 120 -67 144 -89 12 -10 32 -24 46 -31 26 -14
214 -167 345 -282 121 -106 289 -296 324 -368 25 -50 45 -126 37 -145 -4 -11
-2 -15 6 -12 16 5 14 92 -2 128 -26 59 -76 127 -170 233 -31 34 -130 124 -284
259 -26 23 -64 53 -82 66 -39 28 -44 51 -11 52 12 0 31 4 42 9 13 6 -2 7 -40
3 -56 -5 -63 -3 -98 25 -21 17 -43 33 -50 35 -30 11 9 17 111 19 62 1 112 6
112 11 0 5 -51 6 -128 2 -117 -6 -129 -5 -152 13 -23 18 -165 98 -165 93 0 -1
-13 2 -28 8 -16 6 -34 11 -42 11 -7 0 -35 11 -62 25 -26 13 -61 27 -78 30 -16
3 -23 2 -15 -1z"/>
<path d="M7688 1143 c6 -2 18 -2 25 0 6 3 1 5 -13 5 -14 0 -19 -2 -12 -5z"/>
<path d="M8220 1145 c-8 -2 -32 -6 -52 -10 -21 -3 -38 -11 -38 -17 0 -12 59
-3 105 17 28 12 21 17 -15 10z"/>
<path d="M8041 1099 c-18 -11 -31 -22 -28 -25 7 -8 107 27 107 37 0 16 -44 9
-79 -12z"/>
<path d="M3690 1093 c21 -7 62 -24 83 -35 11 -5 21 -7 24 -4 8 7 -84 46 -105
45 -14 0 -14 -2 -2 -6z"/>
<path d="M3485 1079 c-53 -12 -69 -18 -63 -25 3 -3 35 2 71 11 59 16 69 16
127 1 80 -21 90 -14 12 8 -64 18 -87 18 -147 5z"/>
<path d="M4553 1078 c-13 -6 -23 -15 -23 -19 0 -14 -103 -86 -134 -93 -42 -10
-28 -16 23 -9 34 5 55 17 103 62 53 48 68 57 112 62 l51 6 -55 1 c-30 0 -65
-4 -77 -10z"/>
<path d="M4705 1068 c11 -6 30 -20 43 -31 12 -11 22 -16 22 -9 0 15 -49 52
-69 52 -13 -1 -12 -3 4 -12z"/>
<path d="M7220 1050 c-8 -5 -10 -10 -5 -10 6 0 17 5 25 10 8 5 11 10 5 10 -5
0 -17 -5 -25 -10z"/>
<path d="M3831 1032 c28 -21 98 -62 106 -62 3 0 0 7 -7 15 -7 8 -18 15 -25 15
-7 0 -29 11 -49 25 -43 29 -60 34 -25 7z"/>
<path d="M8560 1034 c-36 -8 -103 -18 -150 -23 -95 -10 -119 -14 -240 -37 -83
-16 -134 -33 -100 -34 33 0 208 20 250 29 52 11 281 56 355 69 l50 10 -50 0
c-27 0 -79 -7 -115 -14z"/>
<path d="M3726 1032 c12 -11 64 -33 64 -27 0 5 -56 35 -67 35 -4 0 -3 -4 3 -8z"/>
<path d="M7260 1030 c-11 -7 -5 -8 20 -4 43 8 51 14 19 14 -13 0 -31 -5 -39
-10z"/>
<path d="M6520 1023 c-63 -10 -268 -104 -421 -194 -38 -22 -76 -43 -86 -47
-48 -19 -200 -132 -275 -203 -46 -43 -85 -79 -87 -79 -6 0 -75 -81 -87 -103
-65 -113 -115 -243 -109 -279 10 -51 31 -32 38 34 8 67 39 150 70 191 13 18
28 43 32 56 14 45 327 331 363 331 5 0 15 7 22 15 7 9 29 23 49 32 20 9 48 25
63 35 21 14 38 18 65 13 57 -8 68 -13 151 -62 73 -44 216 -103 247 -103 33 0
11 17 -52 39 -38 13 -111 48 -163 77 -52 29 -112 56 -132 59 -21 4 -38 11 -38
16 0 5 24 20 53 34 l52 25 58 -30 c64 -33 67 -34 67 -21 0 4 -22 18 -50 29
-27 12 -50 25 -50 29 0 5 45 28 100 51 129 54 175 56 227 8 32 -29 37 -40 37
-76 0 -32 -6 -47 -23 -61 -28 -23 -103 -25 -152 -5 -65 26 -84 27 -35 1 67
-35 123 -42 172 -20 55 25 84 54 84 83 0 38 -38 90 -81 112 -37 19 -56 22
-109 13z"/>
<path d="M4790 1012 c0 -11 34 -22 70 -22 43 0 7 -20 -51 -27 -46 -6 -50 -8
-24 -13 54 -10 34 -32 -50 -56 -44 -13 -90 -24 -102 -24 -13 0 -23 -4 -23 -10
0 -5 7 -10 16 -10 28 0 147 32 229 62 44 16 96 31 115 32 19 2 36 9 38 15 2 6
11 11 19 11 13 0 13 -3 3 -15 -11 -13 -7 -15 24 -15 50 0 45 15 -11 36 -34 13
-48 15 -51 6 -2 -7 -8 -12 -13 -12 -4 0 -6 7 -3 15 5 13 -6 15 -71 15 -42 0
-85 5 -96 10 -11 6 -19 7 -19 2z m170 -26 c0 -9 -50 -12 -62 -5 -8 6 1 9 25 9
20 0 37 -2 37 -4z m-35 -36 c-3 -5 -10 -10 -16 -10 -5 0 -9 5 -9 10 0 6 7 10
16 10 8 0 12 -4 9 -10z"/>
<path d="M7798 1013 c7 -3 16 -2 19 1 4 3 -2 6 -13 5 -11 0 -14 -3 -6 -6z"/>
<path d="M7908 1013 c34 -2 90 -2 125 0 34 2 6 3 -63 3 -69 0 -97 -1 -62 -3z"/>
<path d="M4628 1003 c-21 -5 -24 -36 -5 -52 16 -13 28 -5 20 15 -3 8 -1 14 5
14 6 0 12 -5 14 -12 2 -6 10 -8 16 -4 17 10 15 26 -3 26 -8 0 -15 5 -15 10 0
10 -3 11 -32 3z"/>
<path d="M7168 993 c7 -3 16 -2 19 1 4 3 -2 6 -13 5 -11 0 -14 -3 -6 -6z"/>
<path d="M2155 982 c6 -5 28 -12 50 -16 48 -8 27 8 -25 19 -23 5 -32 4 -25 -3z"/>
<path d="M2928 973 c12 -2 32 -2 45 0 12 2 2 4 -23 4 -25 0 -35 -2 -22 -4z"/>
<path d="M2828 963 c12 -2 32 -2 45 0 12 2 2 4 -23 4 -25 0 -35 -2 -22 -4z"/>
<path d="M2758 953 c6 -2 18 -2 25 0 6 3 1 5 -13 5 -14 0 -19 -2 -12 -5z"/>
<path d="M4000 935 c19 -14 39 -25 44 -25 6 0 2 6 -9 12 -11 7 -26 18 -33 25
-7 7 -18 13 -25 13 -6 0 4 -11 23 -25z"/>
<path d="M3043 933 c9 -2 23 -2 30 0 6 3 -1 5 -18 5 -16 0 -22 -2 -12 -5z"/>
<path d="M7383 912 c-34 -17 -53 -32 -53 -44 0 -11 -18 -27 -49 -43 -27 -13
-52 -29 -56 -35 -10 -16 1 -12 41 15 20 14 43 25 50 25 8 0 14 4 14 8 0 4 15
14 34 20 32 12 40 21 45 47 1 6 12 15 24 22 42 23 2 12 -50 -15z"/>
<path d="M8589 937 c-2 -3 -103 -7 -224 -10 -215 -6 -355 -24 -380 -50 -7 -7
-4 -8 9 -3 31 11 199 24 446 36 123 6 226 13 229 15 2 3 -7 5 -22 5 -14 0 -32
2 -39 5 -8 3 -16 4 -19 2z"/>
<path d="M2594 922 c9 -8 166 -12 226 -4 54 6 39 8 -82 8 -81 0 -146 -1 -144
-4z"/>
<path d="M7228 913 c6 -2 18 -2 25 0 6 3 1 5 -13 5 -14 0 -19 -2 -12 -5z"/>
<path d="M4060 907 c0 -3 17 -17 37 -33 20 -15 33 -23 29 -16 -8 13 -66 56
-66 49z"/>
<path d="M7738 903 c6 -2 18 -2 25 0 6 3 1 5 -13 5 -14 0 -19 -2 -12 -5z"/>
<path d="M7870 900 c-9 -6 -10 -10 -3 -10 6 0 15 5 18 10 8 12 4 12 -15 0z"/>
<path d="M2978 883 c12 -2 30 -2 40 0 9 3 -1 5 -23 4 -22 0 -30 -2 -17 -4z"/>
<path d="M2390 870 c0 -5 5 -10 11 -10 5 0 7 5 4 10 -3 6 -8 10 -11 10 -2 0
-4 -4 -4 -10z"/>
<path d="M2608 873 c12 -2 22 -9 22 -14 0 -5 16 -9 35 -9 46 0 45 16 -2 24
-44 7 -94 6 -55 -1z"/>
<path d="M4340 874 c0 -5 26 -9 57 -9 32 0 87 -4 123 -8 43 -6 62 -5 55 1 -13
13 -235 28 -235 16z"/>
<path d="M8230 848 c-69 -4 -144 -9 -167 -11 -22 -1 -39 -6 -36 -10 3 -5 73
-6 156 -3 84 3 231 5 327 6 128 1 167 4 145 11 -40 13 -269 17 -425 7z"/>
<path d="M4165 825 c17 -13 34 -24 39 -25 6 0 -5 11 -24 25 -44 32 -54 32 -15
0z"/>
<path d="M2500 826 c0 -6 67 -36 82 -36 17 0 -2 18 -24 23 -13 2 -31 8 -40 12
-10 4 -18 4 -18 1z"/>
<path d="M1710 800 c6 -11 20 -25 31 -31 14 -7 19 -17 16 -30 -4 -13 4 -24 28
-39 18 -11 39 -28 46 -37 12 -14 11 -15 -9 -9 -34 11 -26 0 16 -22 34 -17 39
-18 39 -4 0 9 -13 27 -29 41 -22 18 -26 26 -16 32 10 7 9 9 -4 9 -17 0 -84 77
-76 86 3 2 19 -9 37 -25 17 -16 31 -26 31 -22 0 14 -59 63 -68 57 -6 -4 -13
-2 -17 4 -3 5 -13 10 -21 10 -12 0 -12 -4 -4 -20z m155 -160 c3 -5 2 -10 -4
-10 -5 0 -13 5 -16 10 -3 6 -2 10 4 10 5 0 13 -4 16 -10z"/>
<path d="M8740 799 c0 -5 5 -7 10 -4 6 3 10 8 10 11 0 2 -4 4 -10 4 -5 0 -10
-5 -10 -11z"/>
<path d="M4246 773 c17 -15 56 -49 85 -75 30 -26 61 -52 69 -60 8 -7 -10 13
-40 45 -30 32 -75 72 -100 88 l-45 30 31 -28z"/>
<path d="M8878 787 c-7 -8 -40 -20 -73 -28 l-60 -15 82 -1 c86 0 111 10 99 42
-7 19 -30 19 -48 2z"/>
<path d="M8050 780 c0 -5 51 -9 113 -9 62 -1 135 -5 163 -10 67 -13 291 -25
282 -16 -4 4 -42 14 -85 22 -90 16 -473 27 -473 13z"/>
<path d="M1880 775 c0 -6 87 -45 98 -45 9 1 -80 49 -90 50 -5 0 -8 -2 -8 -5z"/>
<path d="M7183 770 c-13 -5 -23 -14 -23 -20 0 -6 11 -3 25 6 14 9 25 18 25 20
0 5 0 5 -27 -6z"/>
<path d="M7818 773 c6 -2 18 -2 25 0 6 3 1 5 -13 5 -14 0 -19 -2 -12 -5z"/>
<path d="M8707 760 c-3 -12 0 -20 8 -20 8 0 11 8 8 20 -3 11 -7 20 -8 20 -1 0
-5 -9 -8 -20z"/>
<path d="M3190 746 c0 -8 5 -18 10 -21 6 -3 10 3 10 14 0 12 -4 21 -10 21 -5
0 -10 -6 -10 -14z"/>
<path d="M2148 743 c7 -3 16 -2 19 1 4 3 -2 6 -13 5 -11 0 -14 -3 -6 -6z"/>
<path d="M3060 741 c0 -5 5 -13 10 -16 6 -3 10 -2 10 4 0 5 -4 13 -10 16 -5 3
-10 2 -10 -4z"/>
<path d="M3322 739 c2 -7 10 -15 17 -17 8 -3 12 1 9 9 -2 7 -10 15 -17 17 -8
3 -12 -1 -9 -9z"/>
<path d="M8660 746 c0 -2 7 -7 16 -10 8 -3 12 -2 9 4 -6 10 -25 14 -25 6z"/>
<path d="M1856 731 c-6 -10 52 -37 60 -28 3 3 -8 13 -25 21 -16 9 -32 12 -35
7z"/>
<path d="M2188 733 c7 -3 16 -2 19 1 4 3 -2 6 -13 5 -11 0 -14 -3 -6 -6z"/>
<path d="M2830 726 c0 -8 5 -18 10 -21 6 -3 10 1 10 9 0 8 -4 18 -10 21 -5 3
-10 -1 -10 -9z"/>
<path d="M7401 730 c-25 -3 -46 -9 -48 -15 -2 -6 43 -10 119 -11 68 -1 132 -3
143 -5 11 -1 41 1 68 5 39 6 47 5 47 -8 0 -12 10 -16 38 -15 20 1 28 4 18 6
-15 4 -16 7 -5 13 7 5 11 12 7 15 -14 14 -299 25 -387 15z"/>
<path d="M2940 721 c0 -6 5 -13 10 -16 6 -3 10 1 10 9 0 9 -4 16 -10 16 -5 0
-10 -4 -10 -9z"/>
<path d="M3446 715 c4 -8 8 -15 10 -15 2 0 4 7 4 15 0 8 -4 15 -10 15 -5 0 -7
-7 -4 -15z"/>
<path d="M8037 719 c7 -7 15 -10 18 -7 3 3 -2 9 -12 12 -14 6 -15 5 -6 -5z"/>
<path d="M8100 708 c14 -5 99 -11 190 -13 128 -3 155 -1 120 7 -62 13 -344 20
-310 6z"/>
<path d="M2120 704 c0 -9 76 -35 95 -32 11 2 -4 10 -37 19 -32 9 -58 15 -58
13z"/>
<path d="M6743 691 c-15 -13 -41 -18 -89 -20 -89 -3 -97 -11 -11 -11 37 0 67
-2 67 -5 0 -3 -12 -24 -27 -46 -61 -92 -28 -221 72 -283 49 -30 52 -31 175
-30 123 1 126 2 200 38 78 38 77 38 -31 1 -36 -13 -102 -27 -146 -30 -69 -6
-86 -4 -124 13 -126 58 -174 172 -120 284 13 26 37 61 54 78 33 33 17 42 -20
11z"/>
<path d="M6943 693 c9 -9 19 -14 23 -11 10 10 -6 28 -24 28 -15 0 -15 -1 1
-17z"/>
<path d="M1861 693 c0 -12 99 -73 128 -79 22 -4 21 -3 -6 10 -18 8 -53 29 -78
46 -25 17 -45 27 -44 23z"/>
<path d="M7898 693 c6 -2 18 -2 25 0 6 3 1 5 -13 5 -14 0 -19 -2 -12 -5z"/>
<path d="M2760 680 c-12 -8 -11 -10 8 -10 12 0 22 5 22 10 0 13 -11 13 -30 0z"/>
<path d="M7848 683 c6 -2 18 -2 25 0 6 3 1 5 -13 5 -14 0 -19 -2 -12 -5z"/>
<path d="M7989 668 c-11 -22 -11 -22 7 -7 10 9 26 19 34 22 10 4 8 6 -7 6 -13
1 -27 -8 -34 -21z"/>
<path d="M8078 683 c-10 -3 -18 -10 -18 -18 0 -22 -166 -78 -265 -90 -33 -4
-89 -13 -125 -22 -61 -14 -88 -13 -135 2 -16 5 -17 5 -5 -4 8 -5 12 -12 10
-14 -4 -3 -82 -20 -195 -41 -11 -2 -48 -11 -81 -20 -112 -29 -182 -34 -238
-18 -28 8 -55 18 -59 21 -13 12 -19 94 -8 101 7 4 6 13 -4 26 -15 19 -15 19
-35 -5 -44 -51 -14 -153 54 -185 62 -29 188 -12 287 39 17 9 43 15 57 14 15
-2 34 1 42 6 28 18 80 33 85 24 3 -4 27 -2 53 6 58 16 130 27 202 30 59 2 228
46 272 71 28 15 38 16 143 13 33 -1 92 -1 130 0 107 3 44 22 -72 22 -51 0 -93
3 -93 6 0 3 7 11 17 18 18 13 7 24 -19 18z m-1013 -253 c4 -6 -6 -10 -24 -10
-16 0 -33 5 -36 10 -4 6 6 10 24 10 16 0 33 -4 36 -10z m75 0 c0 -11 -48 -25
-57 -16 -3 3 5 10 18 15 32 13 39 13 39 1z"/>
<path d="M2000 671 c0 -6 8 -11 18 -11 9 0 29 -6 44 -14 27 -14 72 -11 63 4
-3 4 -26 11 -51 15 -26 3 -53 9 -60 12 -8 3 -14 0 -14 -6z"/>
<path d="M2540 659 c0 -5 5 -7 10 -4 6 3 10 8 10 11 0 2 -4 4 -10 4 -5 0 -10
-5 -10 -11z"/>
<path d="M8541 646 c-6 -7 -32 -19 -56 -26 -25 -7 -45 -18 -45 -25 0 -7 -7
-16 -16 -19 -9 -4 -14 -9 -11 -12 3 -3 12 -2 19 2 21 14 39 16 120 18 48 0 79
5 82 12 3 8 -8 10 -36 6 -28 -3 -39 -2 -34 6 3 6 1 14 -5 17 -5 4 -8 13 -5 21
7 18 2 18 -13 0z"/>
<path d="M8845 650 c-11 -5 -14 -9 -7 -9 6 -1 12 -5 12 -11 0 -13 -27 -13 -32
0 -2 7 -16 8 -43 1 -22 -5 -32 -9 -22 -10 19 -1 24 -31 5 -31 -6 0 -8 -3 -5
-6 4 -4 12 -2 19 3 7 6 33 13 57 16 53 7 71 21 51 41 -10 9 -22 11 -35 6z"/>
<path d="M1980 646 c0 -2 11 -6 25 -8 13 -3 22 -1 19 3 -5 9 -44 13 -44 5z"/>
<path d="M2290 639 c20 -8 22 -12 10 -19 -11 -7 -7 -10 17 -10 43 0 50 16 11
29 -39 14 -73 14 -38 0z"/>
<path d="M2170 629 c0 -5 12 -11 28 -15 15 -3 33 -7 40 -10 6 -2 12 0 12 4 0
4 -18 13 -40 19 -22 5 -40 6 -40 2z"/>
<path d="M7648 633 c6 -2 18 -2 25 0 6 3 1 5 -13 5 -14 0 -19 -2 -12 -5z"/>
<path d="M7578 623 c7 -3 16 -2 19 1 4 3 -2 6 -13 5 -11 0 -14 -3 -6 -6z"/>
<path d="M8715 620 c-3 -5 -1 -10 4 -10 6 0 11 5 11 10 0 6 -2 10 -4 10 -3 0
-8 -4 -11 -10z"/>
<path d="M7488 613 c6 -2 18 -2 25 0 6 3 1 5 -13 5 -14 0 -19 -2 -12 -5z"/>
<path d="M1898 603 c6 -2 12 -10 12 -17 0 -6 20 -19 45 -28 25 -10 45 -15 45
-13 0 7 -94 65 -104 64 -6 0 -5 -3 2 -6z"/>
<path d="M2410 600 c0 -5 7 -10 15 -10 8 0 15 5 15 10 0 6 -7 10 -15 10 -8 0
-15 -4 -15 -10z"/>
<path d="M3128 589 c-24 -14 -23 -26 5 -40 19 -11 20 -10 10 3 -15 17 -7 28
19 28 11 0 16 5 13 10 -8 13 -25 12 -47 -1z"/>
<path d="M2178 583 c7 -3 16 -2 19 1 4 3 -2 6 -13 5 -11 0 -14 -3 -6 -6z"/>
<path d="M6831 574 c-1 -12 8 -32 19 -45 l21 -24 -14 30 c-8 17 -17 37 -20 45
-4 10 -6 8 -6 -6z"/>
<path d="M7326 581 c-18 -7 -18 -8 5 -14 34 -9 36 -9 36 8 0 16 -11 18 -41 6z"/>
<path d="M2218 573 c6 -2 18 -2 25 0 6 3 1 5 -13 5 -14 0 -19 -2 -12 -5z"/>
<path d="M4554 491 c36 -43 66 -84 66 -90 0 -6 19 -39 43 -74 23 -34 49 -75
56 -92 8 -16 16 -25 18 -18 4 12 -42 98 -58 109 -5 3 -16 21 -24 40 -14 34
-54 88 -112 153 -18 20 -33 39 -33 44 0 4 -5 7 -11 7 -6 0 19 -36 55 -79z"/>
<path d="M8010 560 c0 -12 156 -12 185 0 13 6 -16 9 -82 9 -63 1 -103 -3 -103
-9z"/>
<path d="M7408 553 c6 -2 18 -2 25 0 6 3 1 5 -13 5 -14 0 -19 -2 -12 -5z"/>
<path d="M8328 545 c-7 -9 -22 -25 -32 -35 -32 -32 -2 -23 32 10 17 16 27 32
22 35 -5 3 -15 -2 -22 -10z"/>
<path d="M2897 537 c-3 -8 3 -23 13 -32 18 -16 18 -16 13 4 -5 21 -4 21 93 16
121 -7 98 10 -28 20 -71 6 -86 5 -91 -8z"/>
<path d="M2118 513 c-10 -3 -18 -11 -18 -19 0 -17 10 -17 33 0 20 15 12 25
-15 19z"/>
<path d="M3128 513 c6 -2 18 -2 25 0 6 3 1 5 -13 5 -14 0 -19 -2 -12 -5z"/>
<path d="M3198 513 c6 -2 18 -2 25 0 6 3 1 5 -13 5 -14 0 -19 -2 -12 -5z"/>
<path d="M3250 510 c20 -13 73 -13 65 0 -3 6 -23 10 -43 10 -28 0 -33 -3 -22
-10z"/>
<path d="M3092 489 c2 -7 18 -15 34 -16 16 -1 39 -5 51 -8 12 -3 24 -1 27 4 3
4 -14 11 -37 14 -24 3 -51 9 -61 13 -14 5 -17 3 -14 -7z"/>
<path d="M6752 480 c0 -14 2 -19 5 -12 2 6 2 18 0 25 -3 6 -5 1 -5 -13z"/>
<path d="M3334 483 c10 -11 37 -12 30 -2 -3 5 -12 9 -21 9 -9 0 -13 -3 -9 -7z"/>
<path d="M8198 483 c7 -3 16 -2 19 1 4 3 -2 6 -13 5 -11 0 -14 -3 -6 -6z"/>
<path d="M8127 454 c-15 -15 -166 -39 -249 -39 -32 0 -58 -4 -58 -8 0 -23 297
16 323 42 8 8 8 11 1 11 -6 0 -13 -3 -17 -6z"/>
<path d="M3025 424 c28 -7 61 -13 75 -13 14 1 -2 7 -35 15 -78 17 -105 16 -40
-2z"/>
<path d="M7490 419 c-98 -5 -158 -12 -185 -23 l-40 -16 35 5 c19 4 62 11 95
16 33 6 140 8 239 6 112 -3 175 -2 169 4 -13 13 -132 16 -313 8z"/>
<path d="M2755 411 c19 -9 113 -15 104 -7 -2 2 -31 6 -64 10 -40 4 -53 3 -40
-3z"/>
<path d="M2885 390 c19 -8 73 -14 64 -6 -2 2 -22 6 -44 9 -28 5 -34 4 -20 -3z"/>
<path d="M7230 380 c-12 -8 -10 -10 8 -10 13 0 20 4 17 10 -7 12 -6 12 -25 0z"/>
<path d="M3078 343 c6 -2 18 -2 25 0 6 3 1 5 -13 5 -14 0 -19 -2 -12 -5z"/>
<path d="M3225 320 c-3 -5 -15 -10 -26 -10 -10 0 -19 -4 -19 -10 0 -5 -15 -11
-32 -11 -27 -2 -29 -3 -8 -6 29 -4 100 22 100 37 0 13 -7 13 -15 0z"/>
<path d="M2840 270 c0 -5 7 -7 15 -4 8 4 15 8 15 10 0 2 -7 4 -15 4 -8 0 -15
-4 -15 -10z"/>
</g>
</svg>
