<?xml version="1.0" standalone="no"?>
<!DOCTYPE svg PUBLIC "-//W3C//DTD SVG 20010904//EN"
 "http://www.w3.org/TR/2001/REC-SVG-20010904/DTD/svg10.dtd">
<svg version="1.0" xmlns="http://www.w3.org/2000/svg"
 width="1000.000000pt" height="389.000000pt" viewBox="0 0 1000.000000 389.000000"
 preserveAspectRatio="xMidYMid meet">
<metadata>
Created by potrace 1.16, written by Peter Selinger 2001-2019
</metadata>
<g transform="translate(0.000000,389.000000) scale(0.100000,-0.100000)"
fill="#000000" stroke="none">
<path d="M3218 3788 c-21 -11 -38 -26 -38 -34 0 -20 14 -17 41 9 29 28 56 40
64 27 4 -6 1 -10 -5 -10 -7 0 -25 -14 -42 -32 -23 -24 -41 -34 -76 -38 -44 -5
-73 -30 -35 -30 17 0 18 -9 16 -132 -2 -73 -8 -157 -13 -187 -6 -30 -10 -77
-10 -105 0 -80 -6 -90 -61 -112 -63 -24 -76 -39 -83 -91 -2 -23 -10 -51 -15
-62 -6 -11 -11 -31 -11 -45 0 -14 -6 -30 -12 -36 -7 -6 -33 -29 -58 -51 l-45
-39 -17 22 c-17 22 -18 22 -18 3 0 -11 7 -30 15 -42 14 -20 13 -23 -18 -48
-17 -15 -35 -36 -39 -47 -6 -14 -14 -17 -34 -12 -22 6 -25 4 -22 -12 2 -13 13
-20 35 -22 30 -3 36 2 69 54 58 90 112 144 145 144 15 0 31 5 34 10 3 6 17 10
31 10 25 0 34 25 12 32 -7 3 0 17 19 37 37 38 46 29 37 -39 -7 -57 6 -67 29
-21 9 19 11 34 5 45 -5 10 -5 30 1 51 5 20 6 37 0 40 -5 4 -5 13 1 23 12 23
33 136 36 197 1 28 5 81 8 119 3 38 6 122 7 187 1 116 10 158 28 131 4 -8 11
-71 15 -140 11 -233 17 -276 52 -397 20 -68 33 -131 30 -146 -3 -17 1 -33 12
-45 9 -11 30 -34 45 -53 15 -18 44 -44 64 -58 l36 -24 -7 43 -6 43 30 -60 c35
-71 34 -68 12 -56 -10 5 -24 6 -31 1 -18 -10 -3 -33 16 -26 8 3 21 0 28 -8 12
-12 12 -16 -1 -27 -18 -15 -12 -49 14 -85 22 -30 32 -30 32 1 0 15 -6 25 -14
25 -16 0 -29 41 -17 53 5 5 15 -5 22 -22 7 -16 24 -34 36 -40 31 -14 29 -26
-10 -48 -20 -13 -34 -29 -35 -44 -9 -87 0 -129 28 -129 13 0 22 9 26 25 7 30
34 34 34 5 0 -27 16 -25 24 3 3 13 0 26 -8 32 -7 6 -11 16 -8 24 3 10 -2 11
-19 6 -13 -4 -25 -10 -27 -14 -8 -20 -22 -35 -27 -30 -11 11 -8 80 4 92 9 9
13 7 17 -10 5 -18 10 -20 34 -13 22 6 32 4 43 -8 20 -24 26 -44 16 -64 -5 -10
-3 -32 6 -57 8 -23 12 -55 8 -71 -3 -19 -1 -30 6 -30 6 0 11 9 11 20 0 13 7
20 18 20 25 0 42 19 42 47 0 25 -10 29 -27 12 -6 -6 -16 -8 -22 -5 -14 9 -14
43 0 51 6 4 8 13 5 20 -3 8 0 27 6 43 6 16 8 38 4 48 -7 18 -8 18 -21 0 -8
-10 -18 -15 -23 -12 -14 8 -52 89 -52 109 0 21 -20 33 -30 17 -4 -7 -13 -9
-19 -6 -15 10 -14 36 2 36 8 0 22 10 33 22 19 21 19 21 -5 15 -32 -8 -56 16
-41 42 14 28 12 51 -5 51 -8 0 -15 -9 -15 -20 0 -24 -13 -26 -31 -4 -10 12
-10 20 -1 35 17 26 15 32 -8 26 -13 -3 -25 2 -33 14 -8 10 -17 16 -21 12 -12
-13 -26 21 -26 65 0 51 -25 103 -74 155 -20 21 -36 43 -36 48 0 5 -9 9 -19 9
-16 0 -20 10 -26 63 -4 34 -7 76 -7 92 0 17 -5 90 -10 163 -7 105 -7 137 3
149 11 12 10 17 -4 28 -21 15 -11 26 18 19 28 -7 55 27 47 59 -10 42 -35 46
-94 15z m111 -672 c9 -11 9 -16 0 -21 -10 -7 -28 10 -29 28 0 12 17 8 29 -7z
m-249 -12 c0 -12 -35 -64 -43 -64 -5 0 -7 3 -5 8 24 48 32 62 40 62 4 0 8 -3
8 -6z m302 -124 c13 0 18 -8 18 -27 0 -16 3 -38 6 -50 9 -34 -14 -28 -34 8 -9
18 -24 39 -34 47 -12 11 -13 18 -5 28 7 7 16 9 22 3 5 -5 17 -9 27 -9z m-350
4 c3 -3 -5 -26 -19 -50 -33 -58 -53 -44 -23 15 21 40 30 47 42 35z"/>
<path d="M6606 3788 c-9 -27 -19 -106 -22 -171 -1 -38 -8 -102 -14 -143 -6
-42 -9 -81 -6 -89 5 -13 -58 -45 -90 -45 -8 0 -32 -9 -53 -20 -30 -15 -43 -30
-61 -75 -12 -30 -26 -55 -30 -55 -29 0 -38 -201 -10 -235 13 -16 11 -20 -13
-39 -60 -46 -157 -148 -157 -164 0 -5 -13 -26 -29 -46 -17 -21 -34 -52 -39
-69 -73 -243 -90 -319 -87 -397 3 -88 21 -209 39 -256 8 -22 17 -63 21 -92 3
-29 8 -58 11 -66 5 -14 -36 -24 -131 -32 -60 -5 -75 -10 -75 -24 0 -13 77 -5
160 16 56 15 78 8 67 -20 -4 -10 -18 -16 -36 -16 -16 0 -33 -5 -36 -10 -3 -5
-15 -10 -25 -10 -30 0 -73 -22 -59 -31 6 -4 42 4 80 17 86 30 107 30 119 2 13
-31 30 -51 60 -71 26 -17 43 -13 52 13 3 8 7 19 9 25 2 5 -3 10 -11 11 -8 1
-22 2 -31 2 -9 1 -21 13 -27 27 -10 22 -9 25 8 25 10 0 22 5 26 11 4 7 -6 10
-32 7 -32 -2 -39 1 -42 16 -4 18 2 18 97 14 92 -5 138 -18 126 -37 -2 -4 -30
-4 -62 0 -32 3 -62 3 -67 -1 -9 -9 25 -22 45 -18 9 2 13 -4 11 -14 -2 -11 3
-18 13 -18 8 0 15 -6 15 -12 0 -7 11 -18 25 -25 22 -10 27 -8 40 10 15 21 15
21 15 -8 0 -17 6 -42 14 -57 12 -23 12 -28 -2 -41 -15 -13 -19 -13 -30 -1 -24
26 -37 10 -33 -41 2 -33 0 -45 -8 -41 -6 4 -11 29 -11 57 0 46 -11 62 -25 39
-10 -16 -28 -11 -21 6 4 11 1 14 -10 12 -10 -2 -23 -25 -34 -60 -20 -65 -58
-134 -89 -162 -12 -11 -21 -24 -21 -30 0 -6 -14 -29 -30 -50 -36 -47 -39 -82
-9 -91 12 -4 32 -19 44 -32 16 -19 27 -24 43 -19 27 9 29 36 3 36 -10 0 -25 7
-32 16 -11 14 -11 18 4 29 21 15 23 29 3 22 -8 -3 -17 -3 -20 0 -10 10 15 33
36 33 14 0 18 -5 13 -19 -3 -11 0 -21 9 -24 8 -3 17 -25 21 -49 10 -69 15 -77
46 -94 31 -16 119 -11 119 7 0 15 17 10 56 -16 54 -36 98 -33 121 9 10 19 -6
68 -28 81 -12 8 -12 25 1 25 6 0 16 -11 22 -25 6 -14 17 -25 24 -25 16 0 27
-32 18 -54 -7 -18 7 -21 23 -5 8 8 17 8 31 0 11 -6 36 -11 55 -11 37 0 55 21
87 100 19 47 50 69 50 35 0 -8 5 -15 10 -15 6 0 10 12 10 27 0 25 0 26 20 8
27 -24 25 -49 -5 -69 -31 -21 -35 -20 -35 3 0 14 -6 19 -20 18 -26 -2 -36 -35
-17 -54 23 -23 73 -7 104 32 20 26 30 31 40 23 18 -15 52 -3 96 32 33 28 37
37 37 76 0 41 -40 151 -59 164 -5 3 -18 39 -30 80 -26 83 -23 159 7 196 9 12
60 38 112 59 79 31 113 39 200 45 114 8 281 6 297 -3 11 -7 40 9 31 18 -3 4
-21 8 -40 11 -18 2 -49 7 -68 11 -47 9 -101 9 -106 2 -6 -10 -98 3 -105 14 -4
6 -15 7 -25 2 -18 -8 -18 -8 -1 -12 25 -6 10 -23 -21 -23 -15 0 -49 -7 -77
-16 -27 -8 -57 -17 -65 -19 -8 -2 -33 -12 -55 -23 -44 -22 -48 -22 -40 0 6 15
85 51 140 64 17 4 61 20 99 36 80 32 83 33 66 13 -26 -31 36 -3 113 51 26 19
50 34 53 34 10 0 134 95 134 103 0 12 -41 -3 -73 -27 -15 -12 -46 -36 -70 -54
-23 -17 -46 -35 -52 -40 -5 -4 -53 -22 -105 -41 -136 -48 -242 -87 -262 -96
-26 -11 -23 10 11 80 34 70 51 123 51 154 0 12 5 31 11 42 6 12 11 94 11 203
0 145 -3 190 -14 212 -9 16 -23 45 -32 64 -23 50 -85 163 -97 175 -5 5 -9 15
-9 23 0 8 -23 44 -51 80 -42 53 -50 68 -41 82 18 29 25 87 18 144 -7 49 -13
60 -78 130 -39 42 -77 76 -83 76 -7 0 -18 7 -25 15 -7 8 -21 15 -31 15 -14 0
-19 7 -19 28 -1 42 -10 177 -20 281 -6 64 -14 99 -26 112 -20 22 -43 25 -48 7z
m44 -165 c0 -23 -14 -31 -25 -13 -3 5 -3 21 1 35 5 20 9 23 15 13 5 -7 9 -23
9 -35z m-5 -65 c2 -7 6 -67 10 -133 5 -107 15 -164 45 -259 7 -20 6 -34 -1
-43 -9 -10 -8 -13 4 -13 8 0 19 6 24 13 14 18 6 122 -12 157 -34 66 38 41 114
-39 61 -65 85 -151 63 -229 -7 -21 -11 -18 -70 43 -35 36 -68 65 -73 65 -20 0
-6 -25 56 -96 36 -41 65 -78 65 -82 0 -4 20 -28 43 -55 24 -26 63 -85 86 -132
24 -46 48 -86 55 -89 16 -7 -14 -26 -31 -19 -14 5 -17 -14 -7 -41 8 -20 30
-21 42 -1 7 14 11 13 27 -5 15 -17 19 -35 18 -91 0 -38 3 -69 7 -69 4 0 10
-21 13 -47 5 -50 -4 -95 -17 -75 -10 16 -36 15 -36 -1 0 -7 14 -23 30 -35 30
-23 43 -66 17 -56 -18 6 -42 -22 -27 -31 5 -3 15 -3 20 0 12 7 13 -35 2 -51
-4 -6 -15 -13 -24 -17 -22 -8 -24 -37 -3 -37 31 0 14 -72 -35 -145 -11 -16
-23 -36 -26 -42 -3 -7 -10 -13 -15 -13 -14 0 -10 28 5 37 33 19 82 143 57 143
-6 0 -11 -6 -11 -13 0 -8 -9 -22 -20 -32 -11 -10 -20 -24 -20 -32 0 -7 -6 -16
-14 -19 -8 -3 -12 -12 -9 -20 5 -14 -53 -84 -69 -84 -15 0 -8 27 17 60 14 19
25 45 25 59 0 37 11 71 22 71 5 0 7 -16 4 -35 -3 -19 -3 -35 0 -35 3 0 21 34
41 75 19 41 39 75 44 75 5 0 9 7 9 16 0 10 -6 14 -15 10 -11 -4 -15 2 -15 24
0 37 -11 43 -39 23 -17 -12 -22 -23 -19 -45 3 -16 1 -31 -4 -34 -14 -9 -9 -34
7 -34 8 0 15 -4 15 -9 0 -15 -18 -23 -25 -11 -12 20 -24 9 -32 -27 -4 -21 -6
-42 -5 -47 2 -4 0 -17 -3 -27 -9 -28 -35 -24 -35 6 0 14 -4 25 -10 25 -5 0
-10 -9 -10 -19 0 -11 -4 -22 -9 -25 -5 -3 -8 -17 -8 -31 0 -21 2 -23 13 -14 8
7 18 9 21 5 12 -11 -20 -27 -43 -21 -28 6 -81 -12 -120 -42 -36 -27 -44 -28
-44 -7 0 8 -4 12 -10 9 -5 -3 -10 -15 -10 -26 0 -12 -5 -17 -10 -14 -6 4 -18
1 -26 -6 -14 -11 -15 -8 -9 24 7 33 5 37 -14 37 -22 0 -29 -24 -11 -35 6 -4 8
-10 5 -14 -2 -5 4 -16 14 -25 13 -12 21 -14 26 -6 5 8 10 8 20 0 8 -7 20 -8
27 -4 10 5 10 4 1 -6 -14 -15 -59 -17 -120 -6 -28 6 -43 5 -43 -1 0 -6 19 -14
43 -18 63 -12 68 -13 75 -19 6 -7 -29 -10 -76 -7 -18 2 -39 -3 -47 -9 -12 -10
-15 -9 -15 8 0 34 18 72 35 72 19 0 20 16 1 23 -32 12 -81 -74 -70 -121 7 -27
7 -27 -15 -8 -32 29 -25 106 10 106 22 0 26 29 4 32 -36 3 -40 2 -41 -7 0 -5
-6 -23 -12 -38 -7 -16 -12 -39 -12 -52 0 -35 -18 -40 -30 -9 -13 34 -3 84 16
84 16 0 19 26 5 35 -11 6 -41 -21 -41 -37 0 -7 -22 -8 -67 -3 -38 5 -93 7
-124 6 l-56 -2 -21 44 c-12 25 -24 58 -28 73 -4 16 -15 48 -25 71 -14 30 -18
58 -15 98 2 32 0 55 -6 55 -6 0 -8 23 -4 58 3 31 6 76 6 99 -1 23 4 44 10 48
5 3 10 19 10 35 0 16 7 55 16 87 9 32 23 84 31 116 9 31 21 57 28 57 7 0 16
11 19 24 3 14 22 41 40 61 19 20 36 46 38 58 2 12 15 27 29 34 15 7 35 25 44
40 10 16 27 35 38 43 11 8 35 30 54 48 18 17 38 32 43 32 10 0 70 86 70 101 0
19 -19 7 -64 -41 -26 -27 -50 -50 -55 -50 -4 0 -13 -11 -19 -25 -19 -41 -29
-29 -29 34 -1 42 3 61 13 65 8 3 14 16 13 28 -2 65 43 176 77 188 33 13 91 13
99 0 7 -12 -15 -80 -32 -98 -10 -10 -10 -17 0 -32 9 -16 37 -29 37 -17 0 1 9
27 20 57 17 45 49 270 50 343 0 20 19 23 25 5z m403 -1436 c2 -7 -2 -10 -12
-6 -9 3 -16 11 -16 16 0 13 23 5 28 -10z m-79 -261 c-14 -26 -31 -41 -48 -44
-14 -3 -27 -5 -27 -4 -1 1 -5 13 -8 27 -6 23 -6 23 7 8 13 -17 17 -15 53 17
21 19 40 34 42 35 2 0 -7 -18 -19 -39z m59 7 c-6 -16 -36 -34 -44 -25 -9 9 15
37 33 37 8 0 13 -5 11 -12z m-222 -52 c16 -17 20 -106 4 -106 -9 0 -15 31 -11
54 1 5 -3 22 -8 37 -11 32 -7 36 15 15z m-46 -16 c0 -5 -2 -10 -4 -10 -3 0 -8
5 -11 10 -3 6 -1 10 4 10 6 0 11 -4 11 -10z m103 -32 c3 -21 2 -38 -4 -38 -5
0 -9 19 -9 42 0 49 5 47 13 -4z m127 36 c0 -3 -16 -12 -35 -20 -42 -17 -69 -8
-34 12 24 13 69 19 69 8z m-260 -49 c0 -8 -9 -15 -20 -15 -22 0 -27 15 -7 23
21 9 27 7 27 -8z m-90 -49 c0 -3 -4 -8 -10 -11 -5 -3 -10 -1 -10 4 0 6 5 11
10 11 6 0 10 -2 10 -4z m-76 -60 c-3 -8 -1 -23 4 -33 8 -15 5 -24 -14 -42 -13
-12 -28 -20 -33 -16 -6 3 -18 -6 -27 -20 -13 -20 -20 -23 -30 -14 -16 13 -8
33 10 26 6 -3 11 6 11 19 0 31 -6 30 -30 -5 -11 -17 -26 -32 -35 -34 -8 -3
-23 -8 -32 -12 -13 -5 -18 -2 -18 9 0 9 6 16 14 16 8 0 29 13 47 30 20 17 42
29 56 28 24 -2 30 -13 13 -23 -5 -3 -10 -11 -10 -16 0 -5 13 4 29 20 16 16 32
27 35 24 3 -4 6 -1 6 5 0 5 -5 12 -11 14 -12 4 -1 38 12 38 4 0 6 -6 3 -14z
m56 -16 c0 -5 -4 -10 -10 -10 -5 0 -10 5 -10 10 0 6 5 10 10 10 6 0 10 -4 10
-10z m114 -5 c-4 -8 -8 -15 -10 -15 -2 0 -4 7 -4 15 0 8 4 15 10 15 5 0 7 -7
4 -15z m83 -7 c-3 -8 -6 -5 -6 6 -1 11 2 17 5 13 3 -3 4 -12 1 -19z m-132 -15
c0 -16 -4 -28 -9 -28 -5 0 -10 12 -10 28 -1 15 3 27 9 27 6 0 11 -12 10 -27z
m88 2 c4 -8 2 -17 -3 -20 -6 -4 -10 -4 -10 -1 0 2 -3 11 -6 20 -3 9 -2 16 4
16 5 0 12 -7 15 -15z m109 1 c-3 -5 2 -7 11 -3 19 7 23 -8 6 -18 -13 -8 -3
-57 21 -105 9 -19 20 -51 24 -70 7 -40 42 -117 64 -142 13 -16 12 -18 -13 -28
-23 -9 -29 -7 -45 13 -10 13 -37 29 -59 36 -48 14 -54 31 -11 31 17 0 30 -4
30 -10 0 -5 5 -10 10 -10 18 0 11 64 -17 157 -27 89 -43 116 -43 73 0 -11 -6
-20 -14 -20 -9 0 -13 11 -12 33 1 25 6 33 24 35 17 3 19 6 9 17 -6 7 -15 11
-19 8 -5 -2 -8 0 -8 5 0 6 11 9 24 8 13 0 22 -5 18 -10z m-142 -22 c0 -8 -5
-12 -10 -9 -6 4 -8 11 -5 16 9 14 15 11 15 -7z m-97 -28 c-7 -32 -27 -39 -48
-16 -21 24 -15 35 23 38 26 2 29 -1 25 -22z m162 -33 c-2 -27 -6 -56 -10 -65
-5 -13 -2 -18 9 -18 20 0 20 -7 1 -27 -22 -22 -28 -12 -29 57 -1 55 -10 72
-30 53 -22 -22 -76 2 -61 27 5 8 13 6 27 -6 14 -13 21 -15 26 -7 7 11 46 31
63 32 4 1 6 -20 4 -46z m149 38 c3 -5 -1 -14 -9 -21 -13 -10 -15 -9 -15 9 0
21 14 28 24 12z m-658 -23 c-3 -13 -6 -26 -6 -30 0 -5 -4 -8 -10 -8 -5 0 -10
14 -10 30 0 21 5 30 16 30 12 0 15 -6 10 -22z m301 -28 c14 0 22 -31 13 -54
-6 -18 -7 -18 -13 -3 -9 24 -27 21 -27 -4 0 -12 8 -23 20 -26 13 -3 20 -14 20
-29 0 -13 -4 -24 -8 -24 -13 0 -40 32 -50 60 -9 24 -10 23 -16 -15 -4 -22 -11
-60 -16 -85 -5 -27 -5 -49 1 -55 6 -5 9 -2 9 10 1 17 3 16 21 -7 11 -16 27
-28 35 -28 15 0 17 -9 8 -35 -6 -13 -11 -11 -33 15 l-26 31 -42 -21 c-24 -11
-43 -25 -43 -30 0 -15 26 -12 40 5 18 22 21 14 10 -24 -8 -29 -7 -34 10 -38
34 -9 24 -33 -14 -33 -43 0 -54 15 -30 41 18 20 18 20 -10 13 -27 -6 -28 -5
-22 22 4 16 9 43 12 59 3 17 18 40 35 53 32 26 40 56 12 45 -17 -7 -17 -5 0
21 13 20 17 38 13 61 -5 24 -2 34 9 39 8 3 15 10 15 15 0 6 -7 7 -17 4 -18 -7
-13 7 15 40 15 16 16 16 37 -3 12 -11 26 -20 32 -20z m-180 -28 c-8 -30 -17
-40 -42 -48 l-32 -10 16 38 c9 21 21 36 28 34 6 -3 17 2 23 10 18 20 18 18 7
-24z m559 17 c3 -6 1 -16 -5 -22 -9 -9 -14 -8 -21 3 -5 8 -10 18 -10 23 0 11
28 8 36 -4z m-310 -58 c-18 -20 -21 -41 -6 -41 6 0 10 6 10 14 0 8 5 18 11 21
7 5 9 -18 8 -69 -2 -68 -5 -78 -29 -101 l-28 -27 0 35 c0 28 3 34 18 30 21 -6
29 12 23 55 -4 25 -8 30 -18 22 -10 -8 -15 -2 -20 30 -6 34 -3 44 17 65 22 23
23 24 26 4 2 -11 -4 -29 -12 -38z m-386 34 c0 -8 -7 -15 -16 -15 -14 0 -14 3
-4 15 7 8 14 15 16 15 2 0 4 -7 4 -15z m447 0 c8 -9 13 -18 11 -21 -3 -2 -13
5 -23 16 -21 23 -11 27 12 5z m-401 -10 c8 -20 -16 -49 -29 -36 -11 11 0 51
14 51 5 0 12 -7 15 -15z m141 -5 c2 -8 -2 -22 -7 -30 -9 -13 -11 -13 -20 0
-16 25 -12 52 7 48 10 -2 19 -10 20 -18z m410 -7 c8 -21 -3 -26 -26 -13 -28
14 -28 40 0 33 11 -3 23 -12 26 -20z m130 -25 c31 -29 29 -35 -7 -30 -24 3
-30 9 -30 28 0 30 7 30 37 2z m-757 -18 c-12 -23 -50 -27 -50 -6 0 13 10 17
53 25 4 0 3 -8 -3 -19z m144 -17 c-9 -39 -13 -43 -34 -43 -10 0 -22 -4 -25
-10 -3 -5 -11 -10 -16 -10 -24 0 49 88 74 90 4 0 4 -12 1 -27z m360 0 c12 -30
17 -178 7 -193 -9 -13 -12 -12 -26 5 -27 35 -35 54 -26 59 5 3 11 -1 15 -9 8
-22 26 -18 26 5 0 11 -9 25 -20 32 -23 15 -28 53 -5 45 24 -10 28 13 6 37 -12
12 -21 27 -21 33 0 16 37 4 44 -14z m138 -24 c3 -19 1 -28 -6 -24 -6 3 -19 8
-28 11 -10 4 -18 16 -18 29 0 18 4 21 24 18 17 -4 25 -13 28 -34z m-606 -13
c-3 -14 -11 -26 -16 -26 -11 0 -14 53 -3 64 13 12 26 -13 19 -38z m164 -3 c0
-31 -18 -29 -30 3 -15 38 -12 46 10 32 11 -7 20 -23 20 -35z m370 26 c0 -6 -7
-17 -15 -25 -16 -16 -19 -7 -9 20 7 18 24 22 24 5z m226 -27 c-8 -13 -48 -10
-53 5 -2 6 6 13 19 15 26 5 43 -5 34 -20z m-832 -14 c-9 -31 -9 -31 -33 -18
-32 17 -26 40 10 40 27 0 30 -3 23 -22z m393 8 c1 -1 0 -19 -4 -41 l-6 -38
-24 29 c-33 41 -31 66 5 58 15 -4 28 -8 29 -8z m-254 -79 c-8 -28 -16 -52 -17
-52 0 0 -16 -8 -34 -18 -19 -9 -38 -15 -42 -12 -10 6 7 64 26 86 8 8 14 23 14
33 0 13 5 16 19 11 11 -3 22 -1 26 5 3 6 10 8 15 5 5 -3 2 -29 -7 -58z m477
44 c0 -25 -26 -48 -27 -23 -2 25 5 42 17 42 5 0 10 -8 10 -19z m230 -10 c0 -9
-22 -31 -31 -31 -8 0 -19 37 -12 43 6 7 43 -4 43 -12z m-645 -1 c3 -5 3 -15
-1 -21 -6 -11 -23 6 -24 24 0 10 18 9 25 -3z m-161 -9 c8 -12 -3 -41 -15 -41
-5 0 -9 11 -9 25 0 25 14 34 24 16z m140 -37 c11 -4 16 -19 16 -48 0 -56 -11
-70 -48 -63 -16 3 -33 2 -39 -4 -10 -10 -43 -2 -43 10 0 11 43 33 49 24 3 -4
16 -9 29 -10 18 -2 22 2 23 25 2 34 2 34 -6 55 -8 19 -5 20 19 11z m292 -84
c5 -23 7 -24 18 -7 11 14 15 15 25 4 8 -10 7 -18 -3 -32 -12 -16 -16 -17 -45
-4 -26 11 -31 18 -26 37 5 20 3 23 -15 17 -18 -6 -21 -3 -18 17 2 16 9 22 21
20 9 -2 21 5 25 15 5 14 8 12 10 -12 1 -16 5 -41 8 -55z"/>
<path d="M6430 3221 c-15 -29 -13 -88 5 -95 32 -12 66 55 45 93 -14 26 -36 27
-50 2z"/>
<path d="M6782 3198 c-7 -7 -12 -17 -12 -24 0 -18 40 -64 56 -64 19 0 18 44
-2 75 -18 28 -25 30 -42 13z"/>
<path d="M6587 3144 c-11 -11 -8 -44 3 -44 15 0 24 30 13 41 -5 5 -12 6 -16 3z"/>
<path d="M6630 3102 c0 -21 13 -42 26 -42 10 0 11 6 5 22 -8 23 -31 37 -31 20z"/>
<path d="M6572 3014 c1 -9 9 -19 16 -22 9 -3 13 2 10 14 -1 9 -9 19 -16 22 -9
3 -13 -2 -10 -14z"/>
<path d="M6710 2995 c0 -9 7 -18 16 -22 20 -7 38 18 21 29 -20 13 -37 9 -37
-7z"/>
<path d="M6487 2943 c-4 -3 -7 -25 -7 -49 0 -43 18 -62 39 -41 14 14 14 37 1
37 -5 0 -10 14 -10 30 0 29 -9 38 -23 23z"/>
<path d="M6610 2928 c0 -32 8 -40 31 -27 19 10 26 39 10 39 -5 0 -16 3 -25 6
-12 5 -16 0 -16 -18z"/>
<path d="M6792 2914 c1 -9 9 -19 16 -22 9 -3 13 2 10 14 -1 9 -9 19 -16 22 -9
3 -13 -2 -10 -14z"/>
<path d="M6695 2890 c-9 -29 12 -51 40 -44 17 4 26 0 35 -15 11 -22 44 -28 55
-10 9 14 2 20 -31 23 -18 2 -33 11 -39 24 -5 12 -15 22 -22 22 -7 0 -13 5 -13
10 0 18 -19 10 -25 -10z"/>
<path d="M6367 2893 c-12 -11 -8 -23 8 -23 8 0 15 7 15 15 0 16 -12 20 -23 8z"/>
<path d="M6840 2870 c0 -5 5 -10 10 -10 6 0 10 5 10 10 0 6 -4 10 -10 10 -5 0
-10 -4 -10 -10z"/>
<path d="M6582 2803 c2 -20 9 -29 26 -31 20 -3 23 0 20 25 -2 20 -9 29 -26 31
-20 3 -23 0 -20 -25z"/>
<path d="M6324 2766 c-9 -24 0 -58 18 -70 13 -8 22 -6 37 8 25 22 27 46 6 46
-8 0 -15 -4 -15 -10 0 -5 -4 -10 -10 -10 -5 0 -10 9 -10 19 0 25 -18 37 -26
17z"/>
<path d="M6892 2748 c2 -25 8 -34 26 -36 18 -3 22 1 22 23 0 14 -4 24 -9 21
-5 -3 -11 1 -15 9 -10 28 -27 16 -24 -17z"/>
<path d="M6770 2705 c0 -24 24 -44 37 -31 9 8 -14 56 -27 56 -5 0 -10 -11 -10
-25z"/>
<path d="M6569 2703 c-7 -39 -4 -55 10 -63 21 -11 36 -2 45 27 5 16 2 25 -13
32 -23 13 -40 14 -42 4z"/>
<path d="M6699 2643 c-3 -49 23 -82 48 -62 15 13 18 53 3 44 -5 -3 -15 3 -22
15 -16 25 -28 26 -29 3z"/>
<path d="M6852 2623 c2 -22 8 -28 28 -28 19 0 26 6 28 24 3 18 0 22 -12 18 -9
-4 -16 -2 -16 3 0 6 -7 10 -16 10 -11 0 -14 -8 -12 -27z"/>
<path d="M6211 2616 c-15 -28 -8 -46 19 -46 25 0 33 15 26 46 -8 31 -29 31
-45 0z"/>
<path d="M6396 2633 c-13 -13 -5 -61 13 -77 22 -20 51 -11 51 16 0 16 -3 18
-13 9 -17 -14 -27 -4 -27 25 0 24 -13 38 -24 27z"/>
<path d="M6294 2596 c-11 -29 1 -61 24 -64 20 -3 26 5 20 26 -2 4 -6 6 -10 5
-5 -2 -8 8 -8 22 0 27 -17 34 -26 11z"/>
<path d="M6537 2573 c-20 -19 7 -93 34 -93 17 0 29 19 29 47 0 13 -3 13 -15 3
-13 -11 -16 -8 -21 19 -6 30 -14 38 -27 24z"/>
<path d="M6954 2504 c-4 -17 -1 -31 10 -42 15 -15 17 -15 32 0 22 22 11 68
-16 68 -13 0 -22 -9 -26 -26z"/>
<path d="M6136 2513 c-10 -10 -7 -60 6 -88 19 -42 91 -23 74 20 -7 20 -26 19
-26 -1 0 -14 -3 -14 -15 -4 -8 7 -15 25 -15 41 0 28 -12 44 -24 32z"/>
<path d="M6789 2478 c-4 -40 10 -67 33 -68 15 0 40 50 33 67 -6 16 -8 15 -17
-7 l-10 -25 -11 23 c-11 24 -26 29 -28 10z"/>
<path d="M6667 2473 c-13 -12 -7 -70 8 -83 21 -17 50 -8 53 18 3 18 -1 23 -15
20 -13 -2 -19 4 -21 25 -3 26 -12 34 -25 20z"/>
<path d="M7016 2365 c-18 -43 -40 -45 -61 -5 -22 43 -39 39 -32 -7 8 -48 29
-65 66 -52 28 10 43 31 56 77 10 36 -13 26 -29 -13z"/>
<path d="M6260 2381 c-30 -8 -34 -44 -6 -49 20 -4 46 21 46 45 0 14 -3 14 -40
4z"/>
<path d="M6397 2383 c-9 -8 -9 -76 -1 -97 14 -36 84 0 84 44 0 18 -16 10 -30
-15 -18 -34 -30 -22 -30 31 0 41 -7 53 -23 37z"/>
<path d="M6539 2318 c-2 -19 1 -50 7 -76 8 -39 51 -25 81 26 14 23 20 42 15
42 -6 0 -19 -13 -29 -30 -19 -33 -42 -40 -45 -12 0 9 -2 22 -3 27 -2 6 -3 16
-4 23 0 6 -5 12 -11 12 -5 0 -11 -6 -11 -12z"/>
<path d="M6818 2283 c-2 -21 -7 -36 -13 -33 -5 3 -9 11 -9 18 1 6 -4 12 -12
12 -19 0 -18 -54 2 -70 12 -11 18 -11 31 2 18 19 31 108 15 108 -6 0 -12 -17
-14 -37z"/>
<path d="M6292 2235 c-14 -30 -32 -32 -39 -5 -3 12 -11 19 -17 17 -20 -6 -18
-35 3 -56 18 -18 24 -19 40 -9 19 11 41 49 41 68 0 19 -17 10 -28 -15z"/>
<path d="M6081 2236 c-20 -23 -9 -51 21 -54 20 -2 28 2 33 18 4 12 2 27 -4 33
-8 8 -11 7 -11 -3 0 -10 -4 -9 -13 4 -12 16 -14 16 -26 2z"/>
<path d="M6640 2187 c0 -48 19 -74 45 -63 16 6 50 74 41 83 -9 9 -26 -8 -26
-28 0 -31 -30 -22 -37 11 -9 48 -23 46 -23 -3z"/>
<path d="M6344 2206 c-3 -8 -4 -27 -2 -43 3 -31 38 -44 64 -23 22 19 17 31
-11 24 -25 -6 -29 0 -26 39 3 20 -17 23 -25 3z"/>
<path d="M6897 2173 c-4 -3 -7 -21 -7 -39 0 -36 26 -59 54 -48 20 8 37 66 22
76 -7 5 -12 -2 -14 -17 -5 -36 -32 -32 -32 5 0 29 -9 38 -23 23z"/>
<path d="M6094 2105 c-8 -32 0 -51 25 -65 17 -8 24 -7 41 10 21 21 27 50 10
50 -5 0 -13 -7 -18 -16 -12 -22 -32 -9 -32 22 0 31 -18 31 -26 -1z"/>
<path d="M6522 2078 c-7 -7 -12 -20 -12 -29 0 -18 25 -49 40 -49 5 0 16 7 24
16 18 17 22 64 6 64 -5 0 -10 -9 -10 -21 0 -12 -5 -19 -12 -16 -7 2 -13 11
-13 20 0 22 -9 29 -23 15z"/>
<path d="M6820 2058 c1 -33 70 -80 70 -48 0 6 -4 10 -9 10 -5 0 -7 10 -4 21 5
18 3 20 -16 14 -12 -4 -21 -2 -21 4 0 6 -4 11 -10 11 -5 0 -10 -6 -10 -12z"/>
<path d="M6246 2043 c-3 -3 -6 -21 -6 -39 0 -57 61 -70 81 -17 14 37 -1 51
-19 18 -14 -27 -15 -27 -28 -11 -7 10 -10 24 -8 31 6 14 -9 28 -20 18z"/>
<path d="M6910 2035 c0 -8 7 -15 15 -15 8 0 15 7 15 15 0 8 -7 15 -15 15 -8 0
-15 -7 -15 -15z"/>
<path d="M6366 1986 c-11 -45 24 -93 58 -80 18 7 40 50 32 63 -12 18 -26 12
-26 -10 0 -31 -23 -18 -35 19 -11 38 -21 41 -29 8z"/>
<path d="M6628 1983 c-7 -30 7 -68 27 -72 11 -2 34 -15 52 -28 23 -17 33 -21
33 -12 0 8 3 25 6 39 5 24 5 24 -10 6 -15 -18 -16 -18 -28 10 -16 39 -16 39
-33 24 -12 -10 -15 -10 -16 1 -1 8 -2 20 -3 28 -2 22 -23 24 -28 4z"/>
<path d="M6763 1989 c-18 -22 -5 -89 17 -89 23 0 38 20 46 58 4 21 3 32 -5 32
-6 0 -14 -13 -17 -30 -9 -41 -22 -38 -26 7 -2 30 -5 34 -15 22z"/>
<path d="M6180 1945 c0 -30 -26 -34 -35 -5 -9 29 -25 24 -25 -8 0 -34 16 -52
47 -52 16 0 24 7 29 25 3 14 14 30 23 35 14 8 14 11 1 20 -25 17 -40 11 -40
-15z"/>
<path d="M6470 1285 c-7 -9 -10 -18 -7 -22 8 -7 37 15 37 28 0 14 -16 11 -30
-6z"/>
<path d="M6295 1247 c-11 -9 -14 -16 -8 -20 6 -4 22 2 34 13 18 14 20 19 8 20
-8 0 -23 -6 -34 -13z"/>
<path d="M3195 3080 c-21 -23 -22 -49 -11 -152 9 -79 26 -109 50 -89 9 7 16
26 16 42 0 15 4 30 9 33 11 7 20 56 14 73 -3 9 -13 11 -25 7 -14 -4 -18 -3
-13 6 9 14 -3 100 -14 100 -4 0 -16 -9 -26 -20z m41 -132 c-3 -13 -6 -30 -6
-38 0 -13 -1 -13 -10 0 -16 24 -12 60 6 60 12 0 15 -6 10 -22z"/>
<path d="M2933 2807 c-25 -25 -17 -51 13 -45 13 2 20 13 22 36 4 37 -4 39 -35
9z"/>
<path d="M3339 2798 c0 -7 -2 -21 -4 -32 -2 -10 -1 -24 2 -32 7 -19 39 -18 47
2 10 26 7 36 -9 30 -8 -3 -14 -2 -14 2 1 4 1 15 0 25 -1 19 -21 24 -22 5z"/>
<path d="M3040 2755 c0 -8 5 -15 10 -15 6 0 10 7 10 15 0 8 -4 15 -10 15 -5 0
-10 -7 -10 -15z"/>
<path d="M3106 2739 c-12 -20 -15 -34 -8 -41 14 -14 42 18 42 48 0 33 -12 30
-34 -7z"/>
<path d="M3470 2740 c0 -5 5 -10 10 -10 6 0 10 5 10 10 0 6 -4 10 -10 10 -5 0
-10 -4 -10 -10z"/>
<path d="M3223 2715 c-15 -28 -5 -77 15 -73 8 2 20 11 26 20 8 13 7 20 -6 30
-8 7 -18 20 -20 28 -4 12 -7 11 -15 -5z"/>
<path d="M2813 2676 c-26 -27 -30 -46 -8 -46 12 0 45 47 45 65 0 11 -16 3 -37
-19z"/>
<path d="M2882 2663 c-7 -12 -12 -29 -12 -38 0 -9 -9 -19 -20 -22 -11 -3 -20
-11 -20 -18 0 -18 30 -27 46 -14 15 12 28 67 22 96 -4 16 -5 16 -16 -4z"/>
<path d="M3026 2648 c-9 -17 -16 -35 -16 -40 0 -13 40 -9 41 5 0 6 2 24 4 40
5 36 -10 34 -29 -5z"/>
<path d="M3404 2629 c3 -17 6 -40 6 -51 0 -23 29 -36 41 -17 15 24 11 50 -8
47 -13 -2 -19 5 -21 25 -2 15 -8 27 -14 27 -6 0 -8 -12 -4 -31z"/>
<path d="M3161 2621 c-9 -16 -10 -26 -2 -34 13 -13 25 12 19 40 -3 16 -5 15
-17 -6z"/>
<path d="M2704 2605 c-9 -35 -30 -51 -49 -35 -8 6 -19 9 -24 6 -16 -10 9 -56
30 -56 17 0 69 53 69 70 0 5 3 15 6 24 4 11 1 16 -10 16 -8 0 -18 -11 -22 -25z"/>
<path d="M3090 2554 c-14 -35 -12 -54 4 -54 16 0 26 21 26 56 0 32 -18 31 -30
-2z"/>
<path d="M2790 2554 c0 -8 5 -12 10 -9 6 4 8 11 5 16 -9 14 -15 11 -15 -7z"/>
<path d="M3276 2558 c-20 -62 -11 -106 18 -95 18 7 22 57 5 57 -6 0 -8 8 -4
19 3 11 1 22 -5 26 -5 3 -12 0 -14 -7z"/>
<path d="M2759 2535 c-3 -5 -9 -22 -13 -37 -3 -16 -13 -28 -21 -28 -20 0 -19
-19 1 -27 26 -10 46 20 42 63 -2 21 -6 35 -9 29z"/>
<path d="M2897 2513 c-4 -3 -7 -26 -7 -50 0 -32 -4 -43 -16 -43 -18 0 -16 -31
3 -37 17 -6 31 25 39 85 6 48 -1 64 -19 45z"/>
<path d="M3163 2499 c-7 -7 -13 -21 -13 -30 0 -10 -4 -20 -10 -24 -18 -11 20
-75 44 -75 6 0 3 5 -7 11 -14 8 -15 14 -7 30 6 11 10 38 8 60 -2 32 -5 38 -15
28z"/>
<path d="M2663 2468 c-6 -7 -14 -29 -18 -48 -10 -48 -13 -51 -35 -38 -24 15
-34 6 -25 -21 7 -22 39 -28 64 -12 12 8 35 120 27 128 -2 2 -8 -2 -13 -9z"/>
<path d="M3494 2456 c-3 -9 -15 -16 -26 -16 -15 0 -19 -6 -16 -27 4 -35 26
-41 34 -9 3 14 12 26 20 26 16 0 19 26 4 35 -6 3 -13 -1 -16 -9z"/>
<path d="M2980 2425 c0 -16 -6 -25 -15 -25 -17 0 -19 -9 -6 -28 5 -8 17 -12
27 -10 25 4 34 88 10 88 -10 0 -16 -9 -16 -25z"/>
<path d="M3609 2435 c-11 -10 3 -53 22 -71 18 -16 19 -16 19 8 0 27 -31 74
-41 63z"/>
<path d="M3352 2413 c-27 -49 4 -100 34 -58 18 24 18 45 0 45 -8 0 -16 8 -18
18 -3 15 -5 14 -16 -5z"/>
<path d="M3545 2410 c-8 -13 4 -32 16 -25 12 8 12 35 0 35 -6 0 -13 -4 -16
-10z"/>
<path d="M2741 2371 c-7 -12 -9 -37 -5 -61 6 -36 5 -40 -15 -40 -23 0 -28 -19
-9 -38 17 -17 26 -15 39 10 12 23 17 133 7 144 -4 3 -11 -4 -17 -15z"/>
<path d="M2866 2344 c-3 -9 -6 -25 -6 -37 1 -22 1 -22 15 -3 17 22 20 56 6 56
-5 0 -12 -7 -15 -16z"/>
<path d="M3554 2346 c-12 -31 8 -71 36 -71 22 -1 25 -5 22 -30 -3 -29 -3 -29
17 -11 12 11 21 30 21 43 0 21 -4 24 -32 21 -29 -3 -34 0 -44 32 -10 29 -13
32 -20 16z"/>
<path d="M3229 2328 c0 -2 -3 -31 -5 -65 -5 -63 5 -82 25 -45 11 20 2 112 -10
112 -5 0 -9 -1 -10 -2z"/>
<path d="M3511 2307 c-12 -15 -5 -27 16 -27 7 0 13 9 13 20 0 23 -13 26 -29 7z"/>
<path d="M3688 2304 c-32 -17 -35 -30 -11 -56 13 -15 14 -21 4 -31 -11 -9 -14
-9 -18 1 -7 17 -23 15 -23 -3 0 -9 12 -20 28 -26 30 -12 38 -10 34 9 -4 16 8
15 28 -3 23 -21 50 -9 50 22 0 19 -4 23 -19 18 -27 -8 -44 17 -31 49 5 15 10
29 10 32 0 8 -26 3 -52 -12z"/>
<path d="M2640 2276 c-5 -15 -10 -38 -10 -51 0 -12 -7 -25 -15 -29 -20 -7 -19
-22 2 -30 27 -11 44 17 45 72 2 60 -7 76 -22 38z"/>
<path d="M3007 2265 c-19 -42 -19 -66 0 -72 15 -5 26 33 21 78 l-3 34 -18 -40z"/>
<path d="M3130 2214 c0 -36 -3 -45 -15 -41 -22 9 -27 -8 -6 -27 30 -27 45 2
42 82 -2 50 -21 38 -21 -14z"/>
<path d="M3426 2244 c-3 -9 -6 -36 -6 -60 0 -25 -5 -55 -11 -66 -13 -23 -5
-34 33 -43 23 -6 27 -4 25 14 -1 24 -8 26 -25 9 -21 -21 -14 11 8 39 21 28 26
53 10 53 -5 0 -10 16 -10 35 0 36 -13 47 -24 19z"/>
<path d="M3505 2240 c-8 -13 4 -32 16 -25 12 8 12 35 0 35 -6 0 -13 -4 -16
-10z"/>
<path d="M2886 2232 c-3 -5 -3 -21 0 -35 3 -22 1 -27 -16 -27 -21 0 -26 -16
-10 -40 23 -36 64 37 52 93 -5 18 -17 23 -26 9z"/>
<path d="M3570 2195 c0 -14 5 -25 10 -25 6 0 9 -12 9 -27 -1 -16 -3 -21 -6
-12 -3 12 -11 15 -25 11 -18 -4 -20 -2 -14 14 4 10 8 21 9 24 1 3 -2 7 -6 10
-7 5 -25 -24 -57 -92 -10 -22 -11 -33 -2 -54 11 -22 9 -30 -10 -57 l-23 -32
-3 43 c-5 66 -22 49 -22 -22 0 -59 -2 -65 -22 -68 -17 -2 -24 -11 -26 -31 -4
-32 -25 -31 -30 1 -2 15 2 22 12 22 18 0 22 25 6 35 -6 3 -13 -2 -17 -12 -4
-10 -15 -27 -25 -37 -16 -18 -17 -22 -2 -44 8 -13 13 -30 10 -39 -5 -12 -8
-12 -23 3 -10 9 -17 26 -18 37 0 11 -5 22 -10 24 -12 4 -45 -48 -45 -71 0 -10
-9 -16 -24 -16 -19 0 -23 4 -19 20 3 13 -1 22 -11 26 -25 9 -31 -3 -17 -30 7
-13 10 -33 7 -44 -4 -11 -2 -23 4 -27 8 -5 7 -11 -1 -22 -10 -12 -10 -19 0
-35 9 -15 10 -23 2 -31 -8 -8 -11 -8 -11 1 0 7 -6 12 -14 12 -8 0 -16 10 -18
22 -5 34 -21 30 -50 -12 -31 -44 -48 -51 -48 -19 0 15 5 19 18 15 14 -5 17 0
16 24 0 16 -6 35 -12 42 -6 7 -13 27 -17 43 -13 57 -14 58 -30 45 -20 -16 -19
-46 1 -54 13 -5 14 -9 5 -20 -6 -8 -13 -41 -16 -74 -4 -59 -3 -61 25 -73 25
-12 27 -17 23 -46 -4 -26 -2 -33 11 -33 9 0 16 6 16 14 0 10 9 13 30 11 44 -6
56 23 30 70 -22 39 -14 47 11 12 25 -34 32 -74 14 -81 -11 -4 -15 -23 -15 -81
0 -42 -4 -84 -10 -94 -16 -31 -18 -90 -4 -102 19 -16 18 -65 -2 -73 -22 -9
-24 -8 -24 9 0 18 -12 19 -29 2 -10 -10 -11 -8 -5 7 6 16 4 18 -12 12 -59 -25
-72 -11 -34 37 11 14 20 34 20 46 0 42 22 121 32 115 18 -12 -4 40 -23 54 -11
7 -19 19 -19 27 0 8 -9 13 -20 12 -11 -1 -20 -7 -20 -15 0 -7 5 -10 12 -6 8 5
9 0 4 -17 -5 -13 -9 -37 -11 -52 -4 -39 -12 -44 -31 -21 -14 18 -15 16 -9 -21
3 -22 8 -54 11 -72 5 -23 0 -40 -16 -63 -25 -35 -40 -39 -40 -10 0 25 -15 26
-30 3 -8 -13 -13 -14 -16 -5 -3 6 -12 12 -20 12 -14 0 -15 33 -2 46 4 3 4 12
2 19 -3 7 2 15 10 18 10 4 16 19 16 38 0 27 -2 30 -15 19 -10 -8 -15 -9 -15
-1 0 6 11 13 24 17 14 3 32 14 42 25 14 15 14 21 4 34 -10 13 -9 15 10 15 16
0 20 -4 16 -15 -7 -18 5 -20 22 -3 14 14 16 32 3 24 -5 -3 -12 2 -16 11 -3 10
-1 19 4 21 14 5 14 35 0 49 -7 7 -7 13 -1 17 5 3 7 17 4 31 -3 20 -10 25 -33
25 -19 0 -29 -5 -29 -15 0 -8 6 -15 13 -15 19 0 14 -47 -7 -60 -14 -9 -16 -9
-11 1 5 7 3 10 -6 7 -8 -3 -17 -23 -21 -46 -9 -52 -25 -82 -43 -82 -21 0 -33
-30 -28 -67 3 -21 -1 -40 -13 -57 -24 -32 -36 -33 -29 -3 7 29 -11 58 -24 38
-7 -10 -13 -11 -30 -2 -30 16 -26 44 9 64 17 10 30 25 30 33 0 8 6 14 14 14
26 0 104 146 87 163 -6 6 -15 -2 -25 -24 -25 -53 -76 -119 -92 -119 -8 0 -17
-8 -21 -17 -3 -10 -20 -35 -36 -56 -31 -40 -32 -87 -2 -87 8 0 15 -2 15 -4 0
-15 -56 -98 -71 -107 -10 -5 -19 -19 -19 -29 0 -35 28 -22 52 25 9 17 23 45
32 63 18 33 56 45 56 18 0 -27 17 -25 48 6 l32 30 0 -26 c0 -16 -6 -26 -15
-26 -15 0 -45 -49 -45 -74 0 -8 -9 -20 -20 -26 -21 -11 -27 -45 -10 -55 19
-12 37 15 44 65 4 27 10 51 14 53 4 3 22 2 40 0 27 -4 32 -10 32 -32 0 -33
-14 -55 -30 -49 -9 3 -8 9 5 21 20 20 16 31 -8 21 -12 -4 -15 -18 -14 -52 2
-39 5 -47 21 -47 14 0 23 14 37 55 16 50 18 52 18 22 1 -22 5 -31 12 -26 7 4
9 21 6 40 -6 35 6 47 17 18 4 -12 14 -14 36 -9 26 6 30 3 36 -20 l7 -27 20 21
20 20 14 -26 c15 -30 17 -69 3 -78 -15 -9 -12 -45 4 -45 15 0 26 21 26 51 0
11 4 18 9 14 5 -3 12 -1 16 5 4 6 11 8 16 5 5 -4 10 0 10 7 1 7 2 19 3 27 2
22 35 39 45 23 4 -7 13 -12 19 -10 6 2 17 -6 26 -17 14 -20 15 -20 24 5 9 22
11 23 17 7 4 -10 5 -34 2 -53 -4 -26 -2 -37 9 -41 25 -9 41 14 26 37 -15 25
-15 41 1 37 7 -1 13 11 15 31 4 38 5 38 43 11 34 -24 36 -35 9 -42 -13 -3 -20
-14 -20 -30 0 -14 -4 -37 -10 -51 -9 -23 -7 -26 14 -26 21 0 23 4 21 40 -1 27
2 40 10 40 7 0 16 11 19 25 4 14 13 25 21 25 12 0 15 -14 15 -61 0 -58 1 -60
23 -53 32 10 33 12 13 44 -14 25 -15 29 -1 24 10 -4 15 0 15 10 0 9 7 16 15
16 20 0 20 47 0 67 -9 8 -19 13 -22 9 -3 -3 -12 -1 -20 5 -7 7 -26 9 -44 5
-25 -5 -32 -2 -36 13 -7 28 -44 34 -60 11 -12 -17 -17 -18 -34 -7 -17 10 -22
9 -39 -13 -25 -33 -47 -16 -29 23 10 21 9 38 -1 81 -12 51 -9 151 7 214 7 30
31 28 45 -5 11 -27 12 -27 15 -5 3 12 8 22 13 22 19 0 19 -21 0 -52 -22 -36
-27 -114 -9 -120 6 -2 12 -15 13 -28 1 -14 6 -24 12 -23 5 1 10 -10 9 -25 0
-15 5 -27 12 -27 6 0 15 -3 19 -7 20 -20 25 -1 20 77 -3 47 -2 85 3 85 4 0 6
23 5 50 -2 28 0 50 4 50 20 0 40 -29 50 -69 9 -39 9 -44 -9 -48 -18 -5 -28
-33 -11 -33 5 0 15 -18 22 -41 8 -22 22 -45 33 -50 13 -8 18 -18 14 -35 -6
-31 12 -43 30 -19 18 26 17 32 -12 57 -20 18 -22 23 -10 32 16 13 47 98 38
106 -3 3 -8 -1 -10 -8 -3 -6 -9 -10 -14 -6 -12 7 -12 54 1 54 6 0 10 12 10 26
0 26 -1 26 -25 10 -23 -15 -25 -15 -25 -1 0 9 6 23 14 31 8 7 16 19 19 26 3
10 9 10 23 2 12 -7 18 -25 20 -59 3 -38 9 -54 26 -67 19 -14 21 -20 11 -36 -7
-12 -8 -24 -2 -33 8 -12 12 -11 24 5 15 19 15 19 15 -1 0 -12 -4 -25 -10 -28
-5 -3 -10 -11 -10 -17 0 -6 9 -3 21 8 21 19 21 19 17 -10 -3 -26 -7 -30 -38
-30 -31 -1 -35 2 -38 27 -2 15 -8 27 -13 27 -5 0 -9 8 -10 18 0 14 -2 13 -9
-4 -12 -29 12 -96 39 -108 12 -5 21 -16 22 -25 1 -26 9 -64 14 -70 3 -2 11 1
17 7 9 9 9 15 0 24 -18 18 -16 79 3 72 17 -7 26 -31 30 -85 3 -44 17 -65 34
-55 13 8 15 43 2 50 -4 3 -14 26 -21 51 -10 36 -10 48 0 60 18 21 45 19 62 -7
10 -15 20 -19 33 -14 17 6 16 10 -12 39 -17 18 -34 42 -38 55 -3 12 -17 30
-31 38 -16 11 -24 26 -24 45 0 20 -5 29 -16 29 -9 0 -14 7 -13 18 3 27 -12 53
-38 63 -13 5 -21 14 -18 20 4 5 0 18 -9 28 -14 15 -14 20 -1 37 15 20 20 64 7
64 -4 0 -13 -5 -20 -12 -7 -7 -12 -8 -13 -2 0 5 -2 26 -4 47 -4 39 9 51 20 17
11 -34 20 -22 20 26 0 29 4 48 12 51 20 8 16 51 -4 56 -17 4 -16 5 1 12 13 6
23 3 31 -8 14 -20 38 -8 25 13 -15 23 -12 29 9 23 12 -3 17 -11 14 -19 -16
-42 27 -89 55 -60 15 14 8 41 -8 31 -10 -6 -24 31 -16 44 8 12 -4 42 -14 36
-5 -3 -7 16 -5 42 4 67 7 73 14 33 4 -26 12 -36 27 -38 28 -4 40 26 18 43 -17
12 -16 42 1 88 6 13 2 17 -14 17 -12 0 -21 6 -21 13 0 6 -7 3 -16 -8 -8 -11
-21 -28 -30 -38 -11 -14 -12 -22 -4 -31 7 -10 6 -17 -4 -25 -14 -12 -46 -5
-46 10 0 5 -4 9 -10 9 -5 0 -10 -7 -10 -15 0 -8 -6 -15 -14 -15 -16 0 -28 60
-15 75 6 6 9 6 9 0 0 -6 17 -10 38 -10 32 0 37 3 40 25 3 21 2 22 -12 11 -14
-12 -16 -9 -16 22 0 20 -5 39 -10 42 -6 4 -8 11 -5 16 4 5 -1 9 -9 9 -10 0
-16 -9 -16 -25z m128 -112 c-2 -10 -8 -18 -13 -18 -5 0 -11 8 -13 18 -2 10 3
17 13 17 10 0 15 -7 13 -17z m-174 -29 c3 -8 2 -12 -4 -9 -6 3 -10 10 -10 16
0 14 7 11 14 -7z m86 -48 c0 -3 -4 -8 -10 -11 -5 -3 -10 -1 -10 4 0 6 5 11 10
11 6 0 10 -2 10 -4z m-90 -16 c0 -5 -5 -10 -11 -10 -5 0 -7 5 -4 10 3 6 8 10
11 10 2 0 4 -4 4 -10z m134 2 c2 -4 -2 -18 -9 -31 l-12 -24 -5 32 c-3 21 0 31
8 31 7 0 15 -3 18 -8z m-89 -12 c-4 -6 -1 -18 6 -26 18 -22 -2 -39 -30 -24
-19 10 -20 13 -6 26 8 9 15 20 15 25 0 5 5 9 11 9 5 0 7 -5 4 -10z m-94 -73
c-16 -16 -26 0 -10 19 9 11 15 12 17 4 2 -6 -1 -17 -7 -23z m69 -57 c17 -17
28 -35 25 -40 -11 -18 -21 -11 -44 30 -27 48 -22 50 19 10z m-100 -3 c0 -12
-9 -28 -20 -35 -18 -11 -19 -10 -9 15 18 49 29 57 29 20z m40 3 c0 -5 -2 -10
-4 -10 -3 0 -8 5 -11 10 -3 6 -1 10 4 10 6 0 11 -4 11 -10z m10 -66 c0 -16
-16 -19 -25 -4 -8 13 4 32 16 25 5 -4 9 -13 9 -21z m-186 -18 c-4 -16 1 -31
12 -45 19 -22 43 -28 45 -11 1 6 3 15 4 20 1 6 3 16 4 23 1 7 5 6 11 -5 18
-29 -6 -63 -45 -65 -26 -2 -35 1 -35 12 0 8 -4 15 -8 15 -5 0 -13 10 -19 22
-7 16 -6 26 6 40 21 25 33 22 25 -6z m-252 -88 c-7 -7 -12 -8 -12 -2 0 14 12
26 19 19 2 -3 -1 -11 -7 -17z m216 -2 c3 -11 0 -16 -7 -12 -6 4 -15 -4 -21
-19 -11 -28 -33 -29 -38 -2 -2 11 3 17 13 17 11 0 15 5 12 14 -3 8 -3 17 1 20
11 12 37 1 40 -18z m152 -6 c0 -5 -5 -10 -11 -10 -5 0 -7 5 -4 10 3 6 8 10 11
10 2 0 4 -4 4 -10z m-90 -24 c0 -8 -4 -18 -10 -21 -5 -3 -10 3 -10 14 0 12 5
21 10 21 6 0 10 -6 10 -14z m-56 -30 c-4 -9 -13 -15 -20 -12 -8 3 -14 1 -14
-3 0 -10 -31 -24 -37 -17 -3 2 12 16 33 30 41 28 48 28 38 2z m-144 -46 c0
-11 -4 -20 -10 -20 -5 0 -10 9 -10 20 0 11 5 20 10 20 6 0 10 -9 10 -20z m220
-20 c0 -11 -4 -20 -9 -20 -14 0 -23 18 -16 30 10 17 25 11 25 -10z m246 -67
c-10 -10 -19 5 -10 18 6 11 8 11 12 0 2 -7 1 -15 -2 -18z m-267 -75 c-17 -34
-19 -34 -19 -5 0 18 5 27 15 27 13 0 14 -4 4 -22z m-299 -93 c0 -30 -10 -55
-21 -55 -5 0 -9 23 -9 51 0 45 2 50 15 39 8 -7 15 -23 15 -35z m310 35 c0 -5
-5 -10 -11 -10 -5 0 -7 5 -4 10 3 6 8 10 11 10 2 0 4 -4 4 -10z m350 -11 c0
-5 -7 -9 -15 -9 -9 0 -12 6 -9 15 6 15 24 11 24 -6z m-215 1 c3 -5 2 -10 -4
-10 -5 0 -13 5 -16 10 -3 6 -2 10 4 10 5 0 13 -4 16 -10z m-308 -30 c-6 -27
-4 -30 18 -30 28 0 30 -8 13 -45 -14 -32 -32 -33 -26 0 3 14 -1 30 -8 36 -20
17 -17 69 4 69 2 0 2 -13 -1 -30z m-175 -82 c-7 -7 -12 -8 -12 -2 0 14 12 26
19 19 2 -3 -1 -11 -7 -17z m308 -79 c0 -6 -4 -7 -10 -4 -5 3 -10 11 -10 16 0
6 5 7 10 4 6 -3 10 -11 10 -16z m177 -4 c-7 -13 -14 -20 -15 -14 -5 14 6 39
17 39 5 0 4 -11 -2 -25z m-386 -28 c-8 -8 -11 -3 -11 19 1 25 2 27 11 11 8
-14 8 -22 0 -30z"/>
<path d="M3328 2176 c-3 -14 -2 -29 1 -34 10 -14 40 -22 46 -12 4 6 2 10 -4
10 -5 0 -9 12 -8 27 3 36 -28 44 -35 9z"/>
<path d="M2726 2138 c-15 -29 -15 -33 -1 -47 14 -14 17 -14 25 -1 12 19 13 80
1 80 -5 0 -17 -14 -25 -32z"/>
<path d="M2993 2109 c-7 -15 -17 -29 -24 -31 -15 -5 -4 -58 11 -58 16 0 31 50
28 84 l-4 31 -11 -26z"/>
<path d="M3197 2088 c-6 -40 6 -56 28 -38 20 17 16 64 -6 68 -12 2 -18 -6 -22
-30z"/>
<path d="M2665 2078 c14 -63 12 -73 -15 -73 -38 0 -38 -32 0 -40 53 -12 72 29
48 106 -14 50 -44 55 -33 7z"/>
<path d="M3275 2097 c-4 -10 -5 -21 -1 -24 10 -10 18 4 13 24 -4 17 -4 17 -12
0z"/>
<path d="M2800 2053 c0 -10 -7 -31 -15 -47 -18 -34 -6 -57 20 -36 17 14 21 85
5 95 -5 3 -10 -2 -10 -12z"/>
<path d="M3356 2061 c-4 -6 -11 -9 -16 -6 -5 3 -14 -3 -19 -13 -15 -28 10 -62
32 -44 19 16 27 46 17 62 -5 9 -9 9 -14 1z"/>
<path d="M3279 2033 c-11 -29 -4 -62 10 -47 5 5 11 24 14 42 8 39 -9 43 -24 5z"/>
<path d="M3037 2024 c-4 -4 -7 -25 -7 -46 0 -28 -4 -38 -16 -38 -10 0 -14 -7
-12 -22 2 -15 10 -23 23 -23 17 0 21 9 27 55 6 53 -1 88 -15 74z"/>
<path d="M2922 1993 c-8 -14 -9 -24 -2 -28 12 -7 24 18 18 37 -3 8 -9 5 -16
-9z"/>
<path d="M3357 1983 c-12 -11 -7 -33 7 -33 12 0 26 20 26 36 0 7 -26 5 -33 -3z"/>
<path d="M3296 1973 c-12 -12 -6 -33 9 -33 8 0 15 6 15 14 0 17 -14 28 -24 19z"/>
<path d="M2707 1958 c-2 -7 2 -30 9 -52 17 -47 18 -43 -6 -49 -26 -7 -25 -19
2 -36 19 -12 23 -11 35 5 15 20 18 70 4 78 -4 3 -11 19 -14 36 -7 31 -22 40
-30 18z"/>
<path d="M3196 1944 c-3 -9 -6 -34 -6 -56 0 -61 25 -43 27 20 2 51 -9 68 -21
36z"/>
<path d="M2840 1917 c0 -20 -5 -37 -12 -39 -14 -5 -3 -38 12 -38 14 0 32 48
28 79 -5 40 -28 38 -28 -2z"/>
<path d="M3156 1922 c-4 -7 -12 -10 -17 -7 -15 10 -10 -22 6 -35 22 -18 38 0
27 30 -6 16 -11 19 -16 12z"/>
<path d="M3092 1848 c5 -32 28 -35 28 -4 0 17 -5 26 -16 26 -10 0 -14 -7 -12
-22z"/>
<path d="M2902 1803 c2 -28 -1 -38 -11 -38 -21 0 -24 -20 -6 -35 23 -19 46 15
40 60 -2 19 -4 38 -5 43 0 4 -5 7 -11 7 -6 0 -9 -15 -7 -37z"/>
<path d="M3610 1805 c-26 -69 0 -126 41 -89 24 22 24 37 0 29 -24 -7 -34 16
-21 50 6 15 6 26 0 30 -6 4 -15 -6 -20 -20z"/>
<path d="M2774 1805 c-4 -8 -4 -25 -1 -37 4 -14 0 -26 -11 -34 -16 -12 -16
-13 1 -20 30 -11 51 18 43 60 -8 40 -23 55 -32 31z"/>
<path d="M3120 1771 c0 -19 6 -34 15 -38 22 -8 25 -1 17 32 -11 41 -32 44 -32
6z"/>
<path d="M3096 1732 c-3 -6 -1 -14 5 -17 14 -9 20 -2 10 14 -6 8 -11 9 -15 3z"/>
<path d="M2940 1711 c0 -11 -4 -23 -10 -26 -12 -7 -14 -45 -2 -45 4 0 13 5 20
12 14 14 16 78 2 78 -5 0 -10 -9 -10 -19z"/>
<path d="M2810 1654 c-13 -34 -13 -34 10 -34 16 0 20 7 20 30 0 37 -17 39 -30
4z"/>
<path d="M6307 1638 c-4 -12 -4 -24 -1 -27 8 -9 37 27 30 38 -11 17 -23 13
-29 -11z"/>
<path d="M2970 1630 c0 -11 5 -20 10 -20 6 0 10 9 10 20 0 11 -4 20 -10 20 -5
0 -10 -9 -10 -20z"/>
<path d="M2990 1561 c0 -6 5 -13 10 -16 6 -3 10 1 10 9 0 9 -4 16 -10 16 -5 0
-10 -4 -10 -9z"/>
<path d="M3246 1492 c-3 -6 -4 -22 -1 -35 4 -14 2 -42 -4 -63 -6 -21 -8 -40
-6 -43 9 -8 14 5 23 60 9 56 2 103 -12 81z"/>
<path d="M2606 1291 c-3 -5 -21 -16 -40 -25 -24 -11 -33 -21 -30 -31 9 -23 40
-17 52 10 6 14 16 25 21 25 5 0 11 7 15 15 6 16 -9 21 -18 6z"/>
<path d="M2630 1260 c0 -5 5 -10 10 -10 6 0 10 5 10 10 0 6 -4 10 -10 10 -5 0
-10 -4 -10 -10z"/>
<path d="M2687 1236 c-10 -21 -17 -39 -17 -40 0 0 11 -2 25 -2 27 -2 30 9 16
56 -8 24 -8 24 -24 -14z"/>
<path d="M3680 1251 c0 -22 24 -44 51 -46 27 -2 24 6 -12 38 -37 32 -39 33
-39 8z"/>
<path d="M3530 1170 c0 -5 5 -10 10 -10 6 0 10 5 10 10 0 6 -4 10 -10 10 -5 0
-10 -4 -10 -10z"/>
<path d="M2917 1095 c-15 -41 -15 -46 -1 -52 25 -9 42 18 37 60 -3 20 -8 37
-12 37 -4 0 -14 -20 -24 -45z"/>
<path d="M3017 1124 c-11 -11 -8 -44 3 -44 15 0 24 30 13 41 -5 5 -12 6 -16 3z"/>
<path d="M3179 1093 c-6 -16 -13 -41 -16 -57 -5 -24 -3 -27 13 -24 13 2 19 12
20 33 1 17 4 40 8 53 11 32 -12 28 -25 -5z"/>
<path d="M7145 688 c-2 -7 -6 -31 -7 -53 -3 -38 -5 -40 -38 -43 -47 -5 -67
-25 -85 -85 -30 -101 -12 -199 41 -228 31 -16 129 -18 145 -2 15 15 13 391 -3
410 -13 17 -47 17 -53 1z m38 -90 c-3 -32 -10 -55 -14 -52 -11 6 -12 108 -2
118 15 15 22 -12 16 -66z m-89 -55 c-21 -34 -32 -167 -16 -212 14 -38 0 -40
-28 -3 -20 24 -22 36 -18 114 4 93 21 128 61 128 19 0 19 -1 1 -27z m45 -118
c0 -74 -4 -135 -9 -135 -4 0 -15 20 -25 45 -13 36 -15 61 -10 118 6 61 24 107
42 107 2 0 3 -61 2 -135z m47 -89 c-1 -16 -7 -31 -13 -33 -10 -4 -13 21 -13
100 0 57 3 107 8 111 7 8 20 -118 18 -178z"/>
<path d="M2718 643 c-22 -5 -22 -13 -3 -49 18 -34 19 -76 4 -91 -8 -8 -8 -25
-1 -60 22 -98 22 -133 1 -154 -41 -41 -47 -27 -43 99 2 64 6 134 9 154 3 20 1
48 -5 62 -12 32 -58 46 -75 22 -7 -9 -22 -16 -33 -16 -33 0 -34 -15 -2 -49 35
-36 33 -25 19 -162 -15 -135 -10 -159 34 -159 17 1 39 1 47 0 8 0 39 3 69 6
49 6 54 9 68 43 17 41 12 104 -13 152 -14 28 -14 32 1 49 25 27 30 82 11 118
-9 18 -23 32 -30 32 -8 0 -20 2 -28 4 -7 2 -21 2 -30 -1z m60 -45 c20 -20 15
-86 -8 -98 -18 -9 -19 -7 -17 32 0 24 -2 51 -7 61 -10 20 13 24 32 5z m-125
-11 c7 -17 -3 -67 -13 -67 -11 0 -20 26 -20 56 0 25 24 34 33 11z m-8 -199
c-4 -56 -9 -106 -12 -111 -14 -23 -20 25 -13 93 5 41 9 85 10 98 0 12 5 22 10
22 7 0 9 -34 5 -102z m124 48 c15 -17 25 -98 17 -130 -11 -46 -28 -29 -25 27
1 28 -4 65 -10 80 -6 16 -11 30 -11 33 0 9 18 3 29 -10z"/>
<path d="M6554 629 c-3 -6 -1 -16 5 -22 13 -13 42 0 49 21 5 15 -44 16 -54 1z"/>
<path d="M6348 623 c-10 -2 -18 -11 -18 -19 0 -12 4 -12 20 -4 23 12 54 0 64
-26 9 -24 7 -77 -4 -94 -7 -11 -10 -1 -10 36 0 40 -5 55 -22 70 -21 19 -21 19
-14 -1 4 -10 10 -38 13 -61 4 -34 2 -45 -17 -64 -12 -12 -18 -25 -14 -29 20
-14 34 -54 34 -96 0 -40 -3 -47 -26 -55 -33 -13 -26 -34 12 -38 41 -4 81 29
94 77 8 32 7 47 -10 87 -17 38 -19 53 -11 72 18 38 13 97 -10 126 -19 25 -41
30 -81 19z m78 -227 c18 -37 13 -96 -10 -115 -10 -9 -13 0 -12 42 1 28 -3 64
-7 80 -11 39 10 34 29 -7z"/>
<path d="M6258 607 c-15 -12 -16 -28 -11 -133 3 -70 0 -138 -6 -164 -9 -40 -8
-47 9 -62 11 -9 28 -14 38 -11 31 8 41 52 41 199 1 128 -1 142 -19 162 -24 25
-29 26 -52 9z m46 -169 c-2 -176 -2 -178 -18 -178 -19 0 -25 19 -16 50 4 14 5
77 3 140 -4 124 0 148 20 132 8 -7 12 -49 11 -144z"/>
<path d="M3606 591 c-30 -16 -42 -18 -57 -8 -14 9 -21 9 -30 0 -10 -10 -7 -14
12 -22 22 -8 24 -14 22 -67 -1 -33 3 -85 8 -118 12 -69 8 -86 -20 -79 -20 5
-21 13 -21 113 0 112 -12 170 -36 170 -19 0 -18 -24 2 -40 12 -11 14 -33 11
-124 -2 -61 -6 -120 -8 -131 -4 -18 1 -20 45 -20 60 0 76 22 58 84 -7 21 -12
66 -12 99 0 50 3 63 19 72 27 14 41 13 41 -5 0 -10 11 -15 35 -15 36 0 39 4
35 50 -5 62 -37 75 -104 41z m74 -42 c0 -10 -4 -19 -10 -19 -5 0 -10 4 -10 9
0 5 -3 17 -6 25 -5 12 -2 15 10 10 9 -3 16 -15 16 -25z m-80 1 c0 -5 -5 -10
-11 -10 -5 0 -7 5 -4 10 3 6 8 10 11 10 2 0 4 -4 4 -10z"/>
<path d="M3305 580 c-15 -17 -28 -19 -81 -16 -65 4 -80 -5 -48 -29 11 -8 19
-39 26 -104 9 -83 8 -97 -8 -127 -24 -44 -11 -57 46 -48 l43 7 -7 91 c-4 50
-8 99 -9 110 -1 10 6 23 15 29 13 9 21 7 37 -7 20 -18 22 -18 41 -1 27 24 25
66 -3 93 -28 27 -30 27 -52 2z m50 -47 c9 -26 -13 -40 -28 -18 -10 12 -19 15
-28 9 -8 -5 -21 -9 -29 -9 -13 0 -15 -18 -13 -110 2 -103 -3 -124 -28 -125 -3
0 -5 33 -5 73 0 39 -3 96 -7 125 l-7 52 32 0 c18 0 44 6 58 13 29 16 46 12 55
-10z"/>
<path d="M6874 579 c-4 -7 -22 -9 -49 -5 -55 9 -73 -9 -55 -55 15 -36 7 -214
-11 -235 -7 -8 -9 -17 -6 -20 11 -12 87 -12 94 -1 4 6 6 62 5 124 -3 121 1
130 47 101 43 -26 77 30 47 77 -17 26 -59 34 -72 14z m66 -56 c0 -15 -26 -18
-35 -3 -6 10 -64 3 -79 -11 -5 -4 -4 -26 2 -51 5 -24 8 -71 5 -105 -4 -50 -9
-63 -22 -63 -15 0 -16 14 -14 128 l3 127 33 1 c19 1 42 6 53 12 15 8 23 7 36
-5 10 -9 18 -22 18 -30z"/>
<path d="M2882 558 c-16 -16 -15 -60 3 -84 10 -13 14 -44 15 -95 0 -98 14
-117 85 -120 71 -2 72 -2 84 32 14 40 15 269 1 269 -5 0 -10 -3 -10 -7 -1 -5
-1 -54 -2 -110 -1 -130 -5 -150 -31 -157 -41 -11 -55 20 -60 127 -3 78 -8 104
-24 125 -23 31 -43 38 -61 20z m59 -92 c5 -102 4 -166 -2 -166 -13 0 -19 33
-19 109 0 51 -5 83 -15 97 -8 12 -11 25 -7 28 12 12 42 -35 43 -68z"/>
<path d="M6595 563 c-19 -4 -20 -10 -17 -131 3 -133 12 -167 44 -176 42 -10
74 34 46 62 -7 7 -15 56 -18 117 -6 111 -16 134 -55 128z m27 -60 c1 -16 2
-55 3 -88 1 -33 5 -75 9 -92 8 -33 -5 -46 -20 -21 -10 16 -11 228 -1 228 4 0
8 -12 9 -27z"/>
<path d="M3811 381 c-16 -4 -28 -17 -33 -36 -12 -44 -5 -51 43 -51 38 1 45 4
53 29 17 48 -10 73 -63 58z m32 -28 c9 -9 -12 -33 -29 -33 -8 0 -14 9 -14 20
0 19 28 28 43 13z"/>
<path d="M7348 348 c-16 -5 -28 -14 -28 -19 0 -51 71 -69 92 -24 19 41 -11 61
-64 43z m27 -28 c3 -5 1 -10 -4 -10 -6 0 -11 5 -11 10 0 6 2 10 4 10 3 0 8 -4
11 -10z"/>
</g>
</svg>
