<?xml version="1.0" standalone="no"?>
<!DOCTYPE svg PUBLIC "-//W3C//DTD SVG 20010904//EN"
 "http://www.w3.org/TR/2001/REC-SVG-20010904/DTD/svg10.dtd">
<svg version="1.0" xmlns="http://www.w3.org/2000/svg"
 width="1000.000000pt" height="722.000000pt" viewBox="0 0 1000.000000 722.000000"
 preserveAspectRatio="xMidYMid meet">
<metadata>
Created by potrace 1.16, written by Peter Selinger 2001-2019
</metadata>
<g transform="translate(0.000000,722.000000) scale(0.100000,-0.100000)"
fill="#000000" stroke="none">
<path d="M2549 7102 c-34 -35 -106 -268 -129 -417 -5 -33 -11 -73 -14 -90 -2
-16 -7 -59 -11 -95 -3 -36 -10 -91 -16 -123 -5 -31 -8 -61 -5 -66 13 -21 -19
-130 -65 -219 -37 -72 -55 -122 -69 -193 -23 -116 -19 -169 18 -249 22 -47 28
-17 13 61 -26 130 -8 227 72 379 36 69 47 101 55 170 13 99 24 218 27 275 3
77 47 309 69 365 8 19 22 61 32 92 11 34 22 54 27 49 13 -13 -12 -123 -30
-136 -11 -8 -21 -55 -33 -156 -24 -193 -34 -347 -21 -334 5 6 11 35 13 65 2
44 7 56 22 58 16 4 18 -1 12 -45 -16 -121 -26 -236 -22 -241 11 -11 28 57 34
138 5 75 7 81 15 53 11 -38 24 -43 30 -10 2 12 2 -5 -1 -38 -3 -33 -9 -68 -13
-77 -11 -21 -25 -176 -15 -167 4 4 9 29 12 55 3 39 10 54 34 74 17 14 30 34
31 45 0 11 6 34 14 50 15 30 15 29 9 -20 -10 -94 -16 -116 -30 -111 -16 6 -23
-27 -26 -123 -1 -44 2 -76 8 -78 6 -2 10 27 10 77 0 44 5 85 10 90 5 5 8 -13
7 -48 -1 -31 1 -47 4 -34 9 44 25 23 19 -26 -5 -40 -3 -49 14 -60 18 -11 20
-10 20 12 0 13 7 26 15 30 8 3 15 10 15 16 0 6 -5 8 -11 4 -9 -5 -10 2 -6 22
22 104 30 195 19 206 -8 8 -17 -2 -36 -43 -19 -42 -25 -49 -25 -29 -1 14 3 41
8 60 5 19 13 64 16 100 8 74 0 73 -40 -7 -41 -82 -42 -74 -10 72 17 82 20 144
5 129 -5 -5 -21 -32 -34 -59 -20 -41 -25 -45 -25 -25 -1 14 4 41 9 60 6 19 13
69 16 110 3 41 9 89 14 106 22 87 -40 42 -65 -46 l-15 -55 5 70 c3 39 18 120
32 181 32 136 25 191 -18 146z m27 -389 c-2 -3 -9 -2 -15 1 -7 5 -6 16 2 34
l12 27 3 -29 c2 -15 1 -30 -2 -33z m-31 -99 c-6 -45 -25 -71 -25 -35 0 12 6
42 13 68 14 53 22 32 12 -33z m70 -101 c-7 -30 -21 -50 -30 -41 -8 8 16 68 27
68 6 0 7 -11 3 -27z m88 -245 c-3 -18 -12 -55 -19 -83 l-12 -50 -1 51 c-1 53
15 114 30 114 5 0 6 -15 2 -32z m-36 -160 c-3 -8 -6 -5 -6 6 -1 11 2 17 5 13
3 -3 4 -12 1 -19z"/>
<path d="M7021 7075 c9 -48 7 -56 -22 -123 -11 -24 -22 -57 -26 -73 -3 -16
-14 -34 -24 -40 -23 -12 -26 7 -5 30 13 14 13 19 0 35 -22 31 -37 5 -40 -68
-1 -36 -4 -68 -7 -73 -12 -20 -28 -217 -19 -237 5 -12 14 -33 21 -48 6 -16 17
-28 25 -28 26 0 45 -28 40 -59 -5 -30 9 -50 22 -30 4 7 6 45 5 85 -1 44 2 74
8 74 5 0 13 15 16 33 8 34 76 107 101 107 19 0 18 -7 -15 -65 -18 -30 -38 -52
-52 -55 -12 -3 -24 -11 -27 -18 -3 -9 3 -10 24 -2 39 15 52 28 74 69 l19 36 1
-35 c1 -34 2 -34 11 -10 12 30 3 90 -14 91 -32 3 -55 -5 -82 -31 -16 -15 -36
-25 -43 -23 -19 7 -42 -16 -42 -44 0 -21 -2 -23 -15 -13 -8 7 -26 10 -40 8
-22 -5 -25 -2 -25 23 0 15 3 35 7 44 5 14 9 11 24 -16 12 -22 18 -28 19 -16 0
10 8 17 20 17 11 0 20 7 20 15 0 8 -6 15 -13 15 -7 0 -18 9 -25 21 -11 17 -16
18 -28 8 -13 -10 -14 -6 -8 32 7 48 24 77 24 41 0 -12 11 -32 25 -44 14 -12
25 -27 25 -34 0 -6 6 -16 13 -22 10 -9 22 0 52 38 21 27 42 47 46 44 4 -2 5 5
2 16 -3 11 -1 20 5 20 5 0 14 18 20 40 13 52 -3 76 -44 66 -16 -4 -31 -8 -34
-8 -3 0 -4 15 -3 33 2 19 -5 3 -15 -36 -10 -38 -24 -79 -31 -90 -10 -17 -11
-11 -7 40 5 55 37 156 58 180 4 5 8 32 8 61 0 47 -9 64 -35 64 -1 0 1 -20 6
-45z m73 -252 c-5 -16 -14 -28 -19 -28 -16 0 -18 57 -3 66 21 13 33 -7 22 -38z
m-134 -40 c-1 -24 -2 -26 -11 -10 -5 9 -7 22 -4 27 10 17 15 11 15 -17z m105
-33 c-4 -12 -9 -19 -12 -17 -3 3 -2 15 2 27 4 12 9 19 12 17 3 -3 2 -15 -2
-27z m-42 -42 c-6 -31 -23 -38 -23 -10 0 16 20 46 26 39 1 -1 0 -14 -3 -29z
m-22 -149 c-9 -22 -10 -22 -10 -3 -1 11 2 24 6 27 12 12 14 0 4 -24z m-67 -54
c-4 -26 -9 -33 -15 -23 -10 16 -12 62 -2 71 14 15 24 -12 17 -48z m33 -37 c-3
-8 -6 -5 -6 6 -1 11 2 17 5 13 3 -3 4 -12 1 -19z"/>
<path d="M6987 7023 c-4 -3 -7 -15 -7 -26 0 -16 3 -17 15 -7 8 7 15 19 15 26
0 15 -12 19 -23 7z"/>
<path d="M6960 6951 c0 -12 5 -21 10 -21 6 0 10 6 10 14 0 8 -4 18 -10 21 -5
3 -10 -3 -10 -14z"/>
<path d="M7058 6600 c-31 -29 -35 -40 -14 -40 12 0 52 60 44 65 -2 0 -15 -11
-30 -25z"/>
<path d="M7098 6503 c-21 -25 -38 -49 -38 -55 0 -5 -6 -8 -14 -5 -20 8 -27
-29 -9 -45 13 -10 13 -13 1 -22 -8 -6 -17 -18 -20 -26 -2 -8 -13 -15 -24 -15
-12 0 -20 -8 -22 -22 -2 -15 -10 -23 -23 -23 -20 0 -26 -24 -9 -35 6 -3 10 2
10 12 0 14 2 15 9 4 11 -18 31 -5 31 19 0 29 36 45 56 25 20 -20 21 -20 61 15
39 35 63 39 63 10 0 -14 -7 -20 -21 -20 -11 0 -18 -4 -15 -9 6 -9 -24 -39 -69
-67 -29 -19 -29 -19 -21 1 5 11 10 29 13 40 l4 20 -16 -20 c-9 -11 -19 -31
-22 -45 -3 -14 -11 -28 -16 -32 -7 -4 -7 -11 1 -21 10 -11 9 -17 0 -25 -16
-13 -17 -84 -1 -89 6 -2 14 5 18 16 3 10 12 24 19 30 11 9 14 7 12 -14 0 -14
-4 -25 -8 -25 -5 0 -8 -9 -8 -21 0 -15 -5 -19 -17 -15 -15 5 -22 -8 -41 -77
-12 -45 -22 -85 -22 -88 0 -16 71 -19 104 -5 30 13 37 22 51 70 9 31 14 60 10
65 -7 13 -34 3 -62 -22 -26 -23 -29 -22 -38 16 -5 19 -3 27 6 27 8 0 25 9 39
20 14 11 32 20 40 19 12 0 12 -2 -2 -13 -25 -18 -23 -29 2 -16 18 10 22 7 35
-24 8 -20 15 -39 15 -44 0 -5 7 -15 15 -22 8 -7 15 -19 15 -27 0 -13 -3 -13
-15 -3 -13 11 -18 10 -29 -6 -8 -10 -12 -24 -9 -30 7 -18 -32 -36 -60 -28 -17
4 -26 1 -31 -12 -9 -23 0 -30 20 -13 16 13 17 11 11 -16 -7 -28 -6 -29 8 -11
8 11 15 23 15 28 0 4 5 8 11 8 6 0 9 -9 6 -20 -4 -16 -2 -18 11 -10 32 18 47
35 66 72 17 35 18 39 3 62 -15 22 -15 28 -2 52 9 17 11 32 5 39 -5 6 -9 28
-10 50 -3 104 -6 134 -12 141 -14 14 -8 84 9 111 15 22 15 27 2 37 -10 8 -14
30 -13 78 1 58 -1 69 -20 81 -19 13 -24 10 -58 -30z m42 -57 c-6 -21 -18 -36
-27 -36 -14 0 -13 3 1 25 25 38 19 42 -14 10 -39 -37 -42 -10 -4 35 24 28 29
30 42 17 12 -12 12 -21 2 -51z m20 -32 c0 -4 -18 -26 -40 -50 -48 -52 -54 -40
-8 17 29 36 48 49 48 33z m0 -143 c0 -24 -22 -47 -53 -57 -12 -4 -25 -12 -29
-18 -5 -8 -10 -8 -18 0 -8 8 2 22 37 53 54 46 63 49 63 22z m-10 -102 c0 -18
-27 -39 -50 -39 -14 0 -5 47 12 68 14 16 38 -2 38 -29z m-46 -206 c-12 -49
-23 -73 -34 -73 -16 0 -11 54 8 78 23 30 34 28 26 -5z"/>
<path d="M6858 6471 c-5 -18 -8 -53 -8 -78 0 -24 -5 -53 -11 -65 -14 -25 -6
-57 22 -86 28 -30 32 -24 16 24 -13 37 -12 74 0 74 4 0 15 -7 25 -17 10 -9 18
-11 18 -5 0 6 -11 19 -25 28 -21 14 -24 24 -27 87 -2 60 -4 66 -10 38z"/>
<path d="M6908 6403 c7 -3 16 -2 19 1 4 3 -2 6 -13 5 -11 0 -14 -3 -6 -6z"/>
<path d="M6783 6218 c-32 -34 -73 -117 -66 -134 3 -7 12 -14 20 -14 8 0 11 -5
8 -11 -4 -5 -2 -22 3 -37 6 -15 13 -39 16 -54 3 -15 15 -29 25 -33 13 -4 23
-22 31 -55 12 -48 36 -72 46 -45 3 7 2 38 -3 67 -8 51 -9 53 -41 53 -40 1 -48
12 -55 78 -8 60 -1 73 14 29 6 -18 16 -29 23 -26 27 10 78 -93 106 -214 7 -28
17 -55 23 -59 7 -4 8 2 3 18 -14 45 -18 136 -7 157 7 14 8 23 1 27 -6 4 -8 10
-5 15 3 5 3 21 -1 35 -7 30 -34 34 -34 5 0 -11 -4 -20 -10 -20 -5 0 -10 6 -10
14 0 16 -45 66 -59 66 -21 0 -43 49 -36 77 l7 28 16 -28 c9 -15 20 -27 25 -27
4 0 5 5 2 11 -10 15 4 61 15 54 6 -3 10 -1 10 4 0 6 -8 11 -17 12 -11 0 -13 3
-5 6 18 7 14 23 -6 23 -10 0 -28 -10 -39 -22z m130 -281 c-9 -16 -24 9 -17 28
7 18 8 18 14 -1 4 -10 5 -23 3 -27z m-63 -28 c0 -6 -4 -7 -10 -4 -5 3 -10 11
-10 16 0 6 5 7 10 4 6 -3 10 -11 10 -16z"/>
<path d="M6930 6175 c-7 -8 -19 -15 -26 -15 -16 0 -29 -43 -20 -65 10 -26 23
-16 18 15 -4 27 -1 30 21 30 22 0 37 16 37 41 0 14 -16 11 -30 -6z"/>
<path d="M2719 6143 c-6 -17 -6 -30 0 -36 10 -10 7 -26 -11 -64 -16 -33 -4
-111 21 -134 12 -11 26 -17 32 -13 23 14 -10 -180 -41 -237 -22 -44 -27 -83
-8 -77 17 6 35 49 64 157 20 73 25 126 17 184 -5 41 -9 48 -25 44 -14 -4 -18
-1 -14 11 17 59 18 72 2 78 -9 4 -15 14 -12 23 2 9 7 33 11 54 5 30 3 37 -10
37 -8 0 -20 -12 -26 -27z"/>
<path d="M2421 6098 c-1 -10 -8 -18 -16 -18 -17 0 -20 -16 -6 -25 12 -7 34 32
27 48 -2 7 -5 4 -5 -5z"/>
<path d="M2495 6097 c-4 -9 -14 -16 -23 -15 -20 4 -25 -14 -9 -36 13 -17 14
-17 31 9 9 14 15 34 13 43 -4 16 -5 16 -12 -1z"/>
<path d="M6960 6049 c0 -5 -4 -8 -9 -5 -13 9 -23 -26 -11 -38 7 -7 10 -5 10 7
0 9 7 17 15 17 8 0 15 7 15 15 0 8 -4 15 -10 15 -5 0 -10 -5 -10 -11z"/>
<path d="M6699 6012 c-6 -23 -8 -49 -4 -59 6 -13 10 -4 17 36 10 66 4 78 -13
23z"/>
<path d="M2510 5992 c0 -12 4 -23 9 -27 11 -6 36 33 27 43 -3 3 -6 0 -6 -8 0
-10 -3 -10 -15 0 -13 10 -15 9 -15 -8z"/>
<path d="M2352 5988 c-16 -16 -15 -28 3 -28 8 0 15 2 15 4 0 2 3 11 6 20 7 19
-7 21 -24 4z"/>
<path d="M2451 5987 c-1 -14 -6 -17 -21 -12 -22 7 -25 -1 -10 -25 8 -13 11
-13 26 1 9 9 14 25 11 35 -4 18 -5 18 -6 1z"/>
<path d="M2650 5976 c0 -9 -7 -16 -15 -16 -8 0 -15 -7 -15 -15 0 -8 6 -15 13
-15 18 0 40 47 27 55 -6 4 -10 -1 -10 -9z"/>
<path d="M2350 5910 c-18 -13 -22 -22 -14 -30 7 -7 16 -5 28 9 26 28 16 43
-14 21z"/>
<path d="M2425 5900 c-3 -11 -13 -20 -22 -20 -16 0 -13 -22 5 -28 9 -3 42 45
42 63 0 14 -19 3 -25 -15z"/>
<path d="M6675 5878 c-5 -24 -8 -78 -7 -121 2 -99 22 -140 71 -145 19 -2 38 1
44 7 8 8 5 11 -8 11 -11 0 -27 5 -35 11 -11 8 -7 9 18 6 36 -4 40 16 4 21 -11
2 -26 9 -32 17 -6 8 -17 12 -24 9 -11 -4 -21 67 -17 116 6 70 7 110 1 110 -4
0 -11 -19 -15 -42z"/>
<path d="M6717 5886 c3 -15 10 -23 18 -20 16 6 7 44 -10 44 -8 0 -10 -9 -8
-24z"/>
<path d="M2529 5883 c-44 -56 -51 -105 -18 -147 23 -29 41 -33 59 -11 10 13 9
15 -8 15 -12 0 -24 5 -27 10 -3 6 3 10 15 10 12 0 25 10 32 25 10 21 9 29 -5
43 -14 14 -21 14 -37 4 -11 -7 -20 -8 -20 -3 0 15 32 36 52 33 24 -4 23 14 -1
28 -25 13 -25 13 -42 -7z"/>
<path d="M2674 5855 c-5 -20 -9 -23 -19 -15 -8 7 -16 7 -19 2 -3 -6 1 -16 10
-23 14 -11 18 -10 30 6 13 18 19 55 9 55 -2 0 -7 -11 -11 -25z"/>
<path d="M6743 5846 c-23 -11 -38 -34 -28 -44 3 -3 11 1 18 10 6 9 20 20 31
25 26 14 6 22 -21 9z"/>
<path d="M2715 5840 c3 -5 10 -10 16 -10 5 0 9 5 9 10 0 6 -7 10 -16 10 -8 0
-12 -4 -9 -10z"/>
<path d="M6956 5831 c-8 -12 3 -41 15 -41 5 0 9 11 9 25 0 25 -14 34 -24 16z"/>
<path d="M7195 5830 c-3 -5 3 -10 14 -10 12 0 21 5 21 10 0 6 -6 10 -14 10 -8
0 -18 -4 -21 -10z"/>
<path d="M6790 5779 c0 -42 38 -116 62 -122 14 -4 18 -1 14 8 -2 7 -8 31 -12
52 -15 83 -64 130 -64 62z m45 -49 c5 -26 4 -32 -4 -24 -14 13 -31 71 -23 79
8 8 18 -13 27 -55z"/>
<path d="M7170 5795 c-7 -9 -8 -15 -2 -15 5 0 12 7 16 15 3 8 4 15 2 15 -2 0
-9 -7 -16 -15z"/>
<path d="M7284 5776 c-18 -29 -34 -34 -34 -11 0 16 -18 19 -37 7 -19 -12 -43
-77 -36 -100 9 -35 23 -26 21 13 -1 37 13 62 30 51 13 -8 -6 -85 -26 -109 -8
-9 -12 -20 -9 -24 16 -15 57 72 57 120 0 9 5 17 10 17 6 0 10 -10 10 -22 0
-17 3 -19 12 -10 17 17 28 15 28 -5 0 -36 18 4 22 47 2 36 0 45 -14 48 -9 2
-24 -8 -34 -22z m33 -16 c2 -19 -8 -26 -20 -14 -7 7 2 34 12 34 4 0 7 -9 8
-20z"/>
<path d="M7020 5770 c0 -5 -11 -10 -25 -10 -14 0 -25 -5 -25 -10 0 -6 14 -9
30 -8 21 2 30 7 30 20 0 10 -2 18 -5 18 -3 0 -5 -4 -5 -10z"/>
<path d="M7096 5771 c-4 -6 -2 -11 4 -11 7 0 9 -7 5 -17 -5 -14 -3 -15 5 -6 8
7 9 17 2 28 -6 12 -11 14 -16 6z"/>
<path d="M2316 5754 c-3 -9 -1 -34 4 -55 9 -34 8 -44 -9 -67 -63 -90 -107
-257 -97 -372 8 -85 8 -82 0 -132 -5 -30 -3 -38 9 -38 15 0 28 21 26 43 0 7
-4 3 -9 -8 -18 -42 -9 11 12 69 31 88 100 187 206 297 l54 56 -16 32 c-9 17
-22 31 -29 31 -20 0 -103 -114 -113 -155 -3 -13 -12 -29 -20 -36 -8 -6 -14
-17 -14 -25 0 -19 -21 -28 -31 -13 -4 8 -6 24 -2 36 3 15 1 23 -7 23 -16 0 -6
-70 12 -81 8 -5 9 -12 2 -21 -6 -7 -19 -35 -29 -63 l-19 -50 -8 33 c-8 29 -3
87 16 192 16 89 56 139 64 80 2 -14 8 -29 14 -35 7 -7 9 1 4 25 -3 19 -13 40
-22 47 -13 9 -13 15 -4 35 7 13 18 30 25 38 17 20 20 46 11 93 -9 39 -20 47
-30 21z"/>
<path d="M2424 5742 c-28 -23 -56 -67 -47 -75 13 -13 23 -7 49 33 30 45 29 67
-2 42z"/>
<path d="M2620 5726 c0 -21 21 -31 31 -15 5 8 3 17 -4 21 -18 12 -27 10 -27
-6z"/>
<path d="M7123 5700 c-3 -11 -12 -20 -19 -20 -8 0 -14 -4 -14 -10 0 -12 30
-13 46 -2 6 4 14 17 18 30 6 17 3 22 -9 22 -9 0 -19 -9 -22 -20z"/>
<path d="M2700 5700 c0 -5 5 -10 10 -10 6 0 10 5 10 10 0 6 -4 10 -10 10 -5 0
-10 -4 -10 -10z"/>
<path d="M2550 5671 c0 -12 5 -21 10 -21 6 0 10 6 10 14 0 8 -4 18 -10 21 -5
3 -10 -3 -10 -14z"/>
<path d="M7287 5662 c-19 -21 -22 -32 -7 -32 10 0 34 39 27 46 -2 2 -11 -4
-20 -14z"/>
<path d="M7341 5643 c-7 -21 -20 -53 -29 -71 -11 -24 -12 -36 -4 -44 13 -13
42 6 42 27 0 12 31 45 43 45 14 0 6 -29 -19 -74 -19 -33 -24 -54 -19 -75 5
-22 2 -32 -11 -39 -16 -9 -16 -12 4 -46 19 -32 20 -36 4 -36 -13 0 -17 -9 -17
-42 0 -24 -4 -53 -8 -65 -5 -14 -4 -23 2 -23 5 0 12 8 14 18 3 12 5 11 6 -6 1
-14 6 -22 13 -20 8 3 11 21 9 52 -2 30 3 56 13 71 18 28 46 24 46 -7 0 -10 -5
-16 -10 -13 -6 3 -15 -6 -20 -20 -14 -37 -13 -43 9 -50 13 -4 22 -19 26 -45 4
-22 11 -43 17 -46 7 -5 8 6 3 32 -12 64 -6 167 12 186 15 17 15 20 0 36 -10
10 -17 33 -17 50 0 17 -4 33 -9 36 -5 3 -6 26 -3 51 3 35 1 49 -11 58 -9 7
-17 30 -19 52 -3 34 -7 40 -28 43 -22 2 -28 -3 -39 -35z m39 -6 c0 -7 -12 -29
-26 -48 l-25 -34 7 30 c9 40 22 65 34 65 6 0 10 -6 10 -13z m30 -126 c0 -31
-19 -73 -30 -66 -13 8 -13 41 0 66 14 25 30 25 30 0z m30 -84 c0 -10 -6 -20
-14 -23 -8 -3 -17 -12 -20 -21 -5 -11 -2 -13 10 -9 10 4 14 1 12 -6 -7 -20
-34 -21 -52 -3 -14 14 -14 18 -1 31 8 8 22 28 32 44 18 30 33 25 33 -13z"/>
<path d="M6972 5657 c-7 -8 -14 -29 -17 -48 -5 -33 -5 -33 6 -6 6 15 15 27 19
27 11 0 6 -31 -9 -59 -18 -33 -12 -38 9 -6 21 31 26 71 11 93 -6 10 -10 10
-19 -1z"/>
<path d="M6893 5636 c3 -8 0 -17 -8 -20 -21 -8 -39 -84 -26 -110 9 -19 10 -18
10 11 1 17 6 44 13 60 l11 28 7 -45 c7 -46 -12 -96 -31 -84 -5 3 -14 -9 -20
-26 -11 -29 -22 -33 -25 -7 0 7 -2 20 -2 30 -1 9 -6 17 -11 17 -5 0 -7 -10 -4
-22 4 -22 3 -22 -11 2 -15 24 -15 24 -16 3 0 -12 7 -26 16 -31 21 -12 20 -41
-4 -130 -35 -127 -42 -116 -43 65 0 78 3 158 6 179 5 29 4 35 -4 24 -6 -8 -11
-25 -11 -37 0 -34 -17 -28 -24 8 -8 40 -30 33 -33 -12 -4 -44 16 -109 33 -109
10 0 13 -24 13 -98 -1 -99 8 -172 20 -172 3 0 13 11 21 23 8 13 26 40 38 60
14 21 32 37 43 37 10 0 19 5 19 11 0 5 -4 7 -10 4 -5 -3 -9 9 -8 30 1 27 5 35
16 30 8 -3 21 3 28 12 25 32 64 120 60 134 -15 51 -16 52 -31 39 -13 -11 -15
-4 -15 49 0 38 -4 61 -11 61 -6 0 -9 -6 -6 -14z m47 -133 c0 -22 -36 -103 -46
-103 -7 0 3 61 16 96 11 28 30 32 30 7z m-210 -41 c0 -15 -2 -15 -10 -2 -13
20 -13 33 0 25 6 -3 10 -14 10 -23z"/>
<path d="M7071 5618 c0 -13 4 -32 9 -43 7 -16 9 -13 9 17 1 20 -3 40 -9 43 -6
3 -10 -4 -9 -17z"/>
<path d="M2400 5619 c0 -5 5 -7 10 -4 6 3 10 8 10 11 0 2 -4 4 -10 4 -5 0 -10
-5 -10 -11z"/>
<path d="M2647 5613 c-10 -3 -16 -10 -14 -16 6 -20 25 -19 37 2 11 21 9 22
-23 14z"/>
<path d="M2340 5581 c0 -11 5 -23 10 -26 6 -4 10 5 10 19 0 14 -4 26 -10 26
-5 0 -10 -9 -10 -19z"/>
<path d="M2763 5589 c-18 -5 -33 -14 -33 -20 0 -7 -10 -9 -25 -5 -18 5 -27 2
-31 -9 -4 -8 -12 -15 -20 -15 -17 0 -17 -10 0 -32 17 -23 18 -22 47 3 20 17
32 20 68 15 25 -3 45 -7 46 -9 56 -71 75 -103 75 -121 0 -12 8 -32 17 -46 22
-31 52 -230 46 -297 -4 -35 -1 -58 7 -68 9 -11 10 -15 0 -15 -12 0 -5 -55 10
-75 4 -5 8 -37 9 -70 1 -33 3 -80 6 -105 2 -25 7 -115 10 -200 9 -204 12 -240
19 -247 17 -18 -13 645 -34 737 -5 25 -9 61 -8 80 3 62 -22 233 -43 294 -11
33 -30 72 -42 87 -12 15 -30 39 -40 53 -14 21 -26 26 -57 26 -47 0 -53 16 -10
25 16 4 32 11 35 16 7 11 -9 10 -52 -2z"/>
<path d="M2550 5565 c0 -17 10 -24 26 -18 21 8 17 29 -6 29 -11 0 -20 -5 -20
-11z"/>
<path d="M7135 5548 c11 -50 21 -53 23 -8 2 31 -1 40 -13 40 -13 0 -15 -6 -10
-32z"/>
<path d="M7207 5551 c-19 -32 -23 -71 -7 -71 6 0 13 7 16 15 4 8 10 15 16 15
5 0 6 -5 2 -11 -4 -7 -1 -10 7 -7 9 3 15 21 16 46 1 33 -2 42 -16 42 -9 0 -24
-13 -34 -29z m30 -23 c-3 -8 -6 -5 -6 6 -1 11 2 17 5 13 3 -3 4 -12 1 -19z"/>
<path d="M7080 5540 c0 -5 5 -10 11 -10 5 0 7 5 4 10 -3 6 -8 10 -11 10 -2 0
-4 -4 -4 -10z"/>
<path d="M2296 5470 c7 -40 24 -65 24 -34 -1 10 -7 30 -16 44 -15 25 -15 25
-8 -10z"/>
<path d="M7020 5452 c0 -63 29 -105 66 -96 19 5 23 3 18 -10 -4 -9 -1 -16 6
-16 9 0 11 13 7 47 -4 36 -12 53 -33 70 -33 26 -35 25 -27 -6 3 -12 11 -20 18
-17 8 3 16 -2 19 -10 9 -22 8 -24 -10 -24 -8 0 -12 -4 -9 -10 10 -16 -11 -12
-25 5 -7 9 -13 36 -12 60 0 25 -4 47 -9 51 -5 3 -9 -17 -9 -44z"/>
<path d="M7265 5490 c-3 -5 -1 -10 4 -10 6 0 11 5 11 10 0 6 -2 10 -4 10 -3 0
-8 -4 -11 -10z"/>
<path d="M2747 5466 c-4 -10 -5 -21 -2 -24 9 -9 17 6 13 25 -3 17 -4 17 -11
-1z"/>
<path d="M7170 5460 c0 -5 7 -10 15 -10 8 0 15 5 15 10 0 6 -7 10 -15 10 -8 0
-15 -4 -15 -10z"/>
<path d="M2634 5447 c-7 -20 1 -47 15 -47 16 0 19 25 5 44 -12 17 -14 18 -20
3z"/>
<path d="M6980 5451 c0 -6 5 -13 10 -16 6 -3 10 1 10 9 0 9 -4 16 -10 16 -5 0
-10 -4 -10 -9z"/>
<path d="M7267 5453 c-4 -3 -7 -11 -7 -17 0 -6 5 -5 12 2 6 6 9 14 7 17 -3 3
-9 2 -12 -2z"/>
<path d="M2720 5426 c0 -8 5 -18 10 -21 6 -3 10 1 10 9 0 8 -4 18 -10 21 -5 3
-10 -1 -10 -9z"/>
<path d="M7211 5424 c0 -11 3 -14 6 -6 3 7 2 16 -1 19 -3 4 -6 -2 -5 -13z"/>
<path d="M2790 5411 c0 -12 5 -21 10 -21 6 0 10 6 10 14 0 8 -4 18 -10 21 -5
3 -10 -3 -10 -14z"/>
<path d="M7167 5413 c-9 -9 -9 -33 1 -33 4 0 13 9 20 20 10 16 10 20 -1 20 -8
0 -17 -3 -20 -7z"/>
<path d="M2530 5396 c0 -9 5 -16 10 -16 6 0 10 4 10 9 0 6 -4 13 -10 16 -5 3
-10 -1 -10 -9z"/>
<path d="M2467 5373 c-12 -11 -8 -23 7 -23 8 0 16 7 20 15 5 15 -14 21 -27 8z"/>
<path d="M6760 5370 c0 -5 5 -10 11 -10 5 0 7 5 4 10 -3 6 -8 10 -11 10 -2 0
-4 -4 -4 -10z"/>
<path d="M2261 5354 c0 -11 3 -14 6 -6 3 7 2 16 -1 19 -3 4 -6 -2 -5 -13z"/>
<path d="M2398 5358 c-4 -9 -1 -24 6 -34 13 -17 14 -16 25 4 15 28 14 37 -3
23 -11 -10 -15 -8 -18 6 -3 16 -4 16 -10 1z"/>
<path d="M2582 5354 c2 -11 8 -18 13 -16 15 3 12 25 -3 30 -9 3 -13 -2 -10
-14z"/>
<path d="M6620 5351 c-14 -27 -13 -45 7 -86 16 -34 36 -45 48 -25 3 6 0 10 -8
10 -17 0 -40 51 -35 77 2 13 8 8 21 -19 10 -21 22 -38 27 -38 14 0 13 3 -12
55 -24 50 -32 54 -48 26z"/>
<path d="M7265 5347 c-33 -51 -57 -189 -35 -202 7 -4 7 -13 0 -25 -8 -16 -8
-18 5 -14 25 10 20 -58 -6 -74 -21 -13 -21 -13 -15 25 4 24 3 33 -3 23 -5 -8
-12 -46 -16 -85 -6 -54 -9 -65 -16 -47 -20 54 -55 10 -54 -70 1 -54 1 -54 38
-63 21 -6 28 -4 27 6 -6 40 0 49 25 43 25 -6 25 -6 42 46 3 12 10 9 29 -13
l24 -28 10 27 c18 45 22 19 6 -30 -21 -62 -19 -83 2 -26 27 74 61 122 82 115
25 -8 29 3 20 54 -4 24 -4 58 1 75 7 23 5 34 -6 45 -12 13 -15 12 -21 -2 -8
-21 -24 -22 -24 -1 0 8 -4 12 -10 9 -5 -3 -10 -14 -10 -23 0 -10 -9 -23 -20
-29 -16 -11 -21 -10 -28 4 -8 13 -11 11 -17 -15 -3 -18 -11 -32 -16 -32 -5 0
-9 -11 -9 -24 0 -14 -4 -27 -9 -30 -14 -9 -22 23 -11 44 6 10 10 33 10 50 0
17 6 41 14 53 8 13 13 41 11 67 -1 27 3 53 11 65 19 27 19 105 -1 105 -8 0
-21 -11 -30 -23z m31 -50 c-3 -14 -15 -27 -27 -30 -18 -5 -20 -2 -14 21 4 15
11 33 17 40 16 19 32 -1 24 -31z m-26 -117 c0 -25 -16 -34 -24 -14 -11 28 -7
44 9 38 8 -4 15 -14 15 -24z m137 -147 c-4 -17 -4 -17 -12 0 -4 9 -4 25 0 35
8 16 8 16 12 0 3 -10 3 -26 0 -35z m-107 -13 c0 -5 -4 -10 -10 -10 -5 0 -10 5
-10 10 0 6 5 10 10 10 6 0 10 -4 10 -10z m100 -20 c0 -5 -5 -10 -11 -10 -5 0
-7 5 -4 10 3 6 8 10 11 10 2 0 4 -4 4 -10z m-230 -111 c0 -18 -4 -28 -10 -24
-5 3 -10 20 -10 36 0 18 4 28 10 24 6 -3 10 -20 10 -36z"/>
<path d="M6960 5349 c0 -5 5 -7 10 -4 6 3 10 8 10 11 0 2 -4 4 -10 4 -5 0 -10
-5 -10 -11z"/>
<path d="M7184 5344 c3 -9 6 -22 6 -30 0 -9 5 -12 10 -9 17 10 12 55 -6 55
-11 0 -14 -5 -10 -16z"/>
<path d="M6995 5313 c6 -52 -10 -57 -30 -10 -11 25 -14 27 -15 11 0 -22 35
-74 51 -74 17 0 20 46 4 80 l-16 35 6 -42z"/>
<path d="M2730 5307 c0 -17 5 -27 15 -27 19 0 19 9 0 34 -14 19 -15 19 -15 -7z"/>
<path d="M2537 5296 c-21 -16 -22 -36 -3 -36 8 0 18 9 21 21 9 27 4 30 -18 15z"/>
<path d="M2636 5293 c-8 -19 8 -38 23 -29 16 10 13 46 -3 46 -8 0 -17 -8 -20
-17z"/>
<path d="M7123 5280 c-17 -55 -23 -99 -14 -104 10 -6 21 27 21 64 0 20 2 22
10 10 8 -13 10 -12 10 3 0 10 7 20 15 23 8 4 12 10 9 16 -3 5 -11 5 -19 -2
-10 -8 -14 -7 -17 7 -3 13 -7 7 -15 -17z"/>
<path d="M2336 5285 c-3 -9 -10 -13 -16 -10 -5 3 -10 -3 -10 -14 0 -12 5 -21
10 -21 11 0 34 50 27 57 -3 2 -7 -3 -11 -12z"/>
<path d="M2780 5279 c0 -5 5 -7 10 -4 6 3 10 8 10 11 0 2 -4 4 -10 4 -5 0 -10
-5 -10 -11z"/>
<path d="M2486 5269 c-13 -41 -14 -43 -15 -21 -1 34 -21 26 -21 -9 0 -40 30
-36 41 5 8 30 3 51 -5 25z"/>
<path d="M2693 5234 c-38 -17 -81 -53 -65 -54 8 0 27 9 43 21 33 23 94 35 133
25 14 -3 37 -18 50 -33 14 -15 28 -24 32 -20 4 3 -9 22 -28 41 -31 31 -40 35
-86 34 -28 -1 -64 -7 -79 -14z"/>
<path d="M2183 5228 c-15 -21 -33 -82 -47 -160 -8 -40 -21 -111 -30 -158 -17
-90 -24 -157 -32 -305 -3 -49 -8 -97 -11 -105 -9 -25 -2 -141 12 -208 13 -63
20 -80 30 -70 5 5 -7 104 -21 177 -6 31 -5 33 15 26 17 -5 21 -2 23 17 6 80
15 108 34 101 18 -7 18 7 0 33 -11 15 -12 30 -4 64 24 111 55 411 51 495 -4
74 -7 105 -9 105 -1 0 -6 -6 -11 -12z m-16 -288 c-5 -14 -9 -46 -8 -72 2 -42
0 -47 -18 -45 -25 2 -25 6 -7 74 8 28 12 54 9 56 -2 3 2 26 9 53 l12 49 7 -45
c3 -25 2 -56 -4 -70z m-37 -201 c0 -11 -4 -18 -10 -14 -5 3 -7 12 -3 20 7 21
13 19 13 -6z m-21 -236 c0 -29 -2 -33 -8 -18 -7 18 -4 55 5 55 2 0 4 -17 3
-37z"/>
<path d="M2594 5226 c-8 -22 3 -33 18 -18 9 9 9 15 0 24 -9 9 -13 7 -18 -6z"/>
<path d="M6911 5210 c0 -27 16 -71 19 -55 4 21 -2 60 -11 70 -5 5 -9 0 -8 -15z"/>
<path d="M7171 5207 c-8 -10 -7 -14 4 -14 8 0 15 6 15 14 0 7 -2 13 -4 13 -2
0 -9 -6 -15 -13z"/>
<path d="M2301 5201 c-1 -7 -7 -11 -16 -7 -17 6 -19 -2 -6 -22 6 -10 10 -10
20 2 7 9 11 21 8 28 -4 10 -6 10 -6 -1z"/>
<path d="M2350 5186 c0 -26 13 -35 25 -16 3 6 -1 17 -9 26 -15 14 -16 13 -16
-10z"/>
<path d="M2773 5195 c-25 -11 -31 -35 -9 -35 16 0 40 26 34 37 -1 5 -13 4 -25
-2z"/>
<path d="M6884 5165 c4 -64 16 -69 16 -7 0 29 -4 52 -10 52 -6 0 -8 -20 -6
-45z"/>
<path d="M6648 5195 c-6 -7 3 -65 11 -65 3 0 11 16 17 35 10 30 9 35 -6 35 -9
0 -19 -2 -22 -5z"/>
<path d="M7146 5171 c-9 -15 -10 -66 -1 -80 6 -10 12 -2 21 30 18 57 17 72 -1
34 l-15 -30 4 28 c3 28 1 33 -8 18z"/>
<path d="M2548 5162 c-21 -4 -24 -32 -4 -32 8 0 17 7 20 16 8 20 6 21 -16 16z"/>
<path d="M2722 5150 c0 -14 2 -19 5 -12 2 6 2 18 0 25 -3 6 -5 1 -5 -13z"/>
<path d="M6784 5156 c-11 -29 0 -61 21 -61 11 0 23 -4 27 -9 11 -16 36 13 31
35 -9 32 -26 35 -21 3 3 -16 3 -23 1 -16 -3 8 -12 10 -25 6 -18 -5 -20 -3 -14
19 7 28 -10 48 -20 23z"/>
<path d="M6965 5160 c-3 -5 -1 -10 4 -10 6 0 11 5 11 10 0 6 -2 10 -4 10 -3 0
-8 -4 -11 -10z"/>
<path d="M2317 5111 c-21 -36 -21 -41 -2 -41 8 0 17 11 21 25 10 39 0 48 -19
16z"/>
<path d="M2422 5104 c3 -42 30 -56 36 -19 2 16 1 17 -7 5 -9 -12 -11 -12 -16
2 -4 10 -4 21 -1 27 4 5 1 13 -5 16 -7 5 -9 -6 -7 -31z"/>
<path d="M6937 5134 c-6 -10 9 -42 16 -34 3 3 1 14 -3 24 -3 11 -9 15 -13 10z"/>
<path d="M7101 5116 c-1 -11 -6 -16 -14 -13 -33 12 -46 -22 -32 -86 12 -58 24
-53 18 8 -5 46 -3 55 10 55 11 0 17 -8 16 -22 0 -13 4 -39 9 -58 l10 -35 0 45
c1 45 -15 141 -17 106z"/>
<path d="M2569 5077 c-8 -22 -17 -33 -26 -30 -15 6 -18 -8 -4 -22 6 -6 2 -39
-10 -85 -33 -125 -41 -605 -12 -670 4 -8 15 -71 25 -140 17 -121 17 -122 13
-40 -2 47 -7 100 -11 118 -4 21 -3 32 5 32 6 0 11 -9 11 -19 0 -11 5 -23 10
-26 6 -3 10 -1 10 5 0 6 6 18 14 25 11 11 18 11 41 -1 20 -10 30 -11 35 -3 5
7 9 5 13 -5 4 -10 13 -13 23 -9 14 5 15 17 9 84 -5 55 -4 79 4 79 10 0 14 -30
15 -115 1 -50 17 -43 54 23 18 34 40 62 47 62 7 0 16 11 19 24 3 14 13 32 22
40 13 14 14 24 5 67 -14 62 -14 89 -1 89 6 0 10 -26 10 -57 l1 -58 15 29 c9
15 14 37 11 47 -3 11 -1 17 4 13 5 -3 9 -12 9 -21 0 -9 3 -14 6 -10 3 3 0 46
-7 96 -12 88 -13 89 -31 69 -19 -22 -20 -27 -20 -73 1 -16 -1 -23 -4 -14 -3 9
-16 19 -30 22 -18 3 -24 1 -20 -9 3 -7 1 -16 -4 -19 -6 -4 -10 -15 -10 -25 0
-13 -5 -17 -15 -14 -11 4 -15 0 -15 -16 0 -12 -13 -39 -30 -60 -16 -21 -30
-46 -30 -57 0 -26 -54 -25 -74 2 -19 25 -20 41 -2 26 12 -10 13 -8 9 8 -4 14
-1 21 9 21 10 0 13 10 10 35 -2 19 -8 33 -12 30 -5 -3 -11 9 -13 27 -4 33 -4
33 -5 -4 -2 -27 -6 -36 -16 -32 -8 3 -14 15 -15 27 0 12 -2 60 -5 107 -4 83
-4 84 6 28 15 -86 34 -75 30 17 -3 72 -13 93 -26 59 -4 -9 -9 -14 -13 -10 -4
3 -15 -12 -26 -35 -21 -47 -16 -139 8 -139 8 0 13 -8 13 -17 -2 -28 12 -74 20
-69 4 3 14 0 22 -5 13 -8 13 -10 0 -18 -10 -7 -17 -6 -22 2 -4 7 -8 -1 -8 -20
0 -17 -4 -35 -10 -38 -15 -9 -12 -25 4 -19 9 3 15 -4 18 -20 3 -14 1 -24 -5
-23 -6 1 -14 -11 -18 -28 -6 -28 -7 -28 -8 -5 l-1 25 -20 -25 c-11 -14 -18
-33 -16 -42 9 -38 -14 -15 -25 24 -16 60 -8 594 9 625 7 12 14 35 16 50 1 16
11 52 20 81 20 59 15 84 -5 29z m258 -689 c-3 -7 -5 -2 -5 12 0 14 2 19 5 13
2 -7 2 -19 0 -25z m-172 -31 c3 -17 9 -45 12 -61 3 -19 2 -26 -6 -22 -6 4 -11
25 -11 46 0 21 -4 42 -10 45 -5 3 -10 13 -10 21 0 26 18 5 25 -29z m132 11
c-3 -7 -5 -2 -5 12 0 14 2 19 5 13 2 -7 2 -19 0 -25z m0 -50 c-3 -7 -5 -2 -5
12 0 14 2 19 5 13 2 -7 2 -19 0 -25z"/>
<path d="M2510 5086 c0 -8 -5 -16 -12 -18 -7 -3 -9 -12 -4 -23 8 -22 22 -11
31 28 5 17 3 27 -4 27 -6 0 -11 -6 -11 -14z"/>
<path d="M2710 5076 c0 -14 5 -28 10 -31 6 -4 10 7 10 24 0 17 -4 31 -10 31
-5 0 -10 -11 -10 -24z"/>
<path d="M2745 5088 c-4 -10 -4 -26 0 -35 8 -17 8 -17 12 0 3 9 3 25 0 35 -4
16 -4 16 -12 0z"/>
<path d="M6688 5077 c-3 -17 1 -22 19 -23 26 -2 27 0 13 27 -14 25 -27 24 -32
-4z"/>
<path d="M2782 5079 c2 -7 10 -15 17 -17 8 -3 12 1 9 9 -2 7 -10 15 -17 17 -8
3 -12 -1 -9 -9z"/>
<path d="M6645 5077 c-4 -10 -5 -21 -1 -24 10 -10 18 4 13 24 -4 17 -4 17 -12
0z"/>
<path d="M6900 5079 c0 -21 26 -43 40 -34 17 11 12 38 -7 31 -9 -4 -20 -1 -25
6 -6 10 -8 9 -8 -3z"/>
<path d="M2875 5063 c-4 -13 -15 -23 -25 -23 -27 0 -39 -21 -47 -86 -4 -32 -9
-51 -11 -41 -4 18 -22 24 -22 6 0 -6 -11 -25 -25 -42 -13 -18 -28 -44 -34 -57
-7 -19 -10 -20 -10 -7 -1 10 -5 15 -11 12 -11 -7 -11 -115 0 -160 6 -22 8 -11
9 44 1 86 10 89 17 5 7 -74 14 -82 15 -18 1 27 4 38 6 24 3 -14 9 -29 14 -34
10 -11 13 -76 3 -76 -3 0 -13 8 -22 17 -16 16 -17 15 -20 -10 -3 -28 13 -67
28 -67 4 0 11 14 15 30 4 17 12 30 19 30 15 0 9 58 -7 79 -14 17 -18 43 -6 35
18 -11 40 24 33 53 -7 25 -6 27 9 14 15 -12 17 -9 17 28 0 24 4 40 9 36 5 -3
13 0 17 7 5 8 10 6 15 -8 6 -15 8 -12 8 14 1 17 4 32 9 32 4 0 12 8 18 18 8
13 8 37 -1 92 -10 57 -14 69 -20 53z m-8 -90 c-3 -10 -5 -4 -5 12 0 17 2 24 5
18 2 -7 2 -21 0 -30z m-70 -105 c-3 -8 -6 -5 -6 6 -1 11 2 17 5 13 3 -3 4 -12
1 -19z m0 -40 c-3 -8 -6 -5 -6 6 -1 11 2 17 5 13 3 -3 4 -12 1 -19z m-20 -60
c-3 -8 -6 -5 -6 6 -1 11 2 17 5 13 3 -3 4 -12 1 -19z"/>
<path d="M2356 5044 c-7 -17 0 -34 14 -34 15 0 19 28 6 40 -10 8 -15 6 -20 -6z"/>
<path d="M7450 5026 c0 -19 5 -38 10 -41 6 -4 10 10 10 34 0 23 -4 41 -10 41
-5 0 -10 -15 -10 -34z"/>
<path d="M2250 5033 c0 -7 7 -13 15 -13 8 0 15 6 15 13 0 8 -7 14 -15 14 -8 0
-15 -6 -15 -14z"/>
<path d="M2677 5042 c-14 -3 -17 -10 -13 -25 3 -12 6 -25 6 -29 0 -5 5 -8 11
-8 6 0 8 9 4 20 -5 14 -2 20 9 20 16 0 22 16 9 23 -5 2 -16 2 -26 -1z"/>
<path d="M6804 5031 c10 -11 15 -25 10 -32 -4 -7 0 -17 11 -25 19 -14 24 -62
8 -73 -17 -11 -22 -39 -8 -45 23 -9 38 55 25 106 -13 50 -36 88 -52 88 -6 0
-3 -9 6 -19z"/>
<path d="M6620 5020 c-8 -15 -9 -25 -1 -33 7 -7 12 -2 17 17 8 35 -1 44 -16
16z"/>
<path d="M6972 5010 c0 -14 2 -19 5 -12 2 6 2 18 0 25 -3 6 -5 1 -5 -13z"/>
<path d="M2740 5009 c0 -5 5 -7 10 -4 6 3 10 8 10 11 0 2 -4 4 -10 4 -5 0 -10
-5 -10 -11z"/>
<path d="M2515 5000 c-3 -5 -1 -10 4 -10 6 0 11 5 11 10 0 6 -2 10 -4 10 -3 0
-8 -4 -11 -10z"/>
<path d="M2428 4994 c-4 -5 -5 -19 -3 -30 2 -10 4 -22 4 -26 2 -15 29 -8 35 8
11 29 6 51 -6 24 l-11 -25 -6 30 c-4 17 -9 25 -13 19z"/>
<path d="M6656 4987 c-2 -6 -6 -19 -9 -28 -7 -22 20 -79 38 -79 8 0 15 5 15
10 0 6 -4 10 -10 10 -17 0 -32 39 -21 57 8 15 10 14 16 -10 4 -15 12 -27 17
-27 6 0 7 8 3 18 -4 9 -9 25 -12 34 -6 21 -33 32 -37 15z"/>
<path d="M2697 4971 c-3 -11 2 -26 10 -32 12 -10 14 -8 11 14 -5 35 -14 43
-21 18z"/>
<path d="M2367 4972 c-11 -16 2 -54 16 -49 7 2 14 12 15 22 2 10 0 15 -6 11
-6 -3 -12 2 -14 11 -3 13 -6 15 -11 5z"/>
<path d="M2480 4965 c0 -19 12 -25 27 -14 19 16 16 25 -7 25 -11 0 -20 -5 -20
-11z"/>
<path d="M6579 4964 c-17 -21 -14 -85 7 -125 l16 -33 14 26 c11 22 12 37 2 80
-14 64 -21 74 -39 52z m18 -66 c-3 -8 -6 -5 -6 6 -1 11 2 17 5 13 3 -3 4 -12
1 -19z"/>
<path d="M2221 4937 c-1 -32 21 -33 27 -2 2 10 0 15 -6 11 -6 -3 -13 0 -15 6
-3 7 -6 0 -6 -15z"/>
<path d="M2290 4928 c0 -31 24 -39 34 -12 10 25 7 41 -4 24 -9 -13 -11 -13
-20 0 -8 12 -10 9 -10 -12z"/>
<path d="M7091 4934 c0 -11 3 -14 6 -6 3 7 2 16 -1 19 -3 4 -6 -2 -5 -13z"/>
<path d="M2637 4933 c-11 -10 -8 -61 3 -68 6 -4 10 10 10 34 0 42 -2 46 -13
34z"/>
<path d="M7465 4930 c3 -5 8 -10 11 -10 2 0 4 5 4 10 0 6 -5 10 -11 10 -5 0
-7 -4 -4 -10z"/>
<path d="M2666 4922 c-3 -6 -1 -14 5 -17 15 -10 25 3 12 16 -7 7 -13 7 -17 1z"/>
<path d="M6760 4921 c0 -5 5 -13 10 -16 6 -3 10 -2 10 4 0 5 -4 13 -10 16 -5
3 -10 2 -10 -4z"/>
<path d="M2414 4907 c-8 -21 2 -35 16 -21 5 5 6 15 0 24 -8 12 -10 12 -16 -3z"/>
<path d="M6932 4899 c2 -7 10 -15 17 -17 8 -3 12 1 9 9 -2 7 -10 15 -17 17 -8
3 -12 -1 -9 -9z"/>
<path d="M7039 4888 c-27 -50 5 -197 43 -198 3 0 1 16 -5 35 -6 19 -14 35 -19
35 -4 0 -8 30 -8 66 0 75 14 78 24 4 4 -27 11 -50 15 -50 5 0 5 17 1 38 -5 20
-11 49 -15 65 -7 33 -20 35 -36 5z"/>
<path d="M7364 4852 c-34 -63 -56 -72 -64 -28 -6 35 -22 43 -44 21 -19 -19
-20 -40 -5 -83 8 -23 7 -37 -4 -58 l-14 -27 -6 32 c-4 17 -12 31 -20 31 -10 0
-12 -17 -9 -71 3 -51 1 -70 -7 -65 -6 4 -14 25 -17 47 -11 65 -26 30 -22 -50
3 -62 1 -69 -10 -54 -10 12 -12 38 -10 83 3 36 2 79 -2 95 -4 17 -8 23 -9 15
-1 -8 -8 -28 -16 -44 -15 -28 -12 -51 6 -41 5 4 8 -15 7 -42 -2 -64 8 -92 38
-99 23 -6 34 -24 14 -24 -6 0 -10 -32 -10 -75 0 -69 2 -75 21 -75 12 0 23 8
26 20 3 11 10 20 15 20 10 0 4 -52 -8 -85 -3 -7 4 -18 15 -24 17 -10 23 -7 38
15 9 15 17 45 18 68 0 27 6 45 18 54 9 7 17 24 17 37 0 26 35 65 58 65 10 0
12 -8 7 -32 -10 -46 -23 -68 -38 -63 -22 8 -35 -9 -38 -50 -4 -43 -2 -44 48
-11 21 13 31 27 28 37 -3 8 2 37 10 65 24 80 19 112 -15 82 -7 -7 -4 1 7 17
30 44 63 72 64 54 1 -30 16 29 23 89 5 41 3 62 -4 62 -5 0 -10 -14 -10 -30 0
-24 -4 -30 -17 -28 -14 2 -19 -5 -21 -35 -3 -32 -5 -35 -18 -23 -8 8 -14 19
-14 24 0 5 -7 23 -15 38 -8 16 -15 22 -15 14 0 -20 -33 -100 -42 -100 -4 0 -2
14 3 32 11 41 4 48 -9 9 -20 -56 -32 -35 -28 45 2 41 7 78 10 81 3 4 6 -1 6
-10 0 -21 9 -21 32 0 18 16 19 16 25 -5 5 -21 33 -32 33 -13 0 5 12 24 26 41
15 17 23 34 19 38 -3 4 -19 -9 -35 -28 -24 -30 -28 -32 -32 -15 -2 11 4 37 14
58 31 62 16 61 -18 -1z m-88 -69 c-10 -10 -19 5 -10 18 6 11 8 11 12 0 2 -7 1
-15 -2 -18z m-4 -120 c-2 -27 -11 -61 -19 -76 -7 -15 -11 -32 -8 -37 3 -5 1
-11 -4 -14 -5 -3 -12 -22 -15 -41 -4 -19 -11 -35 -16 -35 -13 0 -7 55 7 72 6
7 13 38 16 68 6 56 24 110 37 110 4 0 5 -21 2 -47z m98 -63 c0 -22 -4 -40 -10
-40 -5 0 -10 18 -10 40 0 22 5 40 10 40 6 0 10 -18 10 -40z m-70 -76 c0 -19
-3 -34 -8 -34 -4 0 -8 18 -8 40 -1 21 3 37 8 34 4 -3 8 -21 8 -40z m45 -3 c3
-5 1 -12 -5 -16 -5 -3 -10 1 -10 9 0 18 6 21 15 7z m-125 -101 c0 -11 -4 -20
-10 -20 -5 0 -10 9 -10 20 0 11 5 20 10 20 6 0 10 -9 10 -20z m48 -52 c1 -24
-5 -56 -13 -73 l-13 -30 -1 50 c-1 54 7 95 19 95 4 0 7 -19 8 -42z"/>
<path d="M6910 4888 c0 -9 5 -20 10 -23 13 -8 13 5 0 25 -8 13 -10 13 -10 -2z"/>
<path d="M2460 4880 c0 -5 5 -10 10 -10 6 0 10 5 10 10 0 6 -4 10 -10 10 -5 0
-10 -4 -10 -10z"/>
<path d="M6657 4873 c-13 -12 -7 -51 10 -64 15 -13 15 -12 4 9 -14 26 -5 45 9
22 8 -13 10 -13 10 1 0 19 -24 42 -33 32z"/>
<path d="M2334 4856 c-5 -13 -9 -14 -21 -4 -13 10 -15 9 -12 -6 2 -11 9 -21
16 -23 12 -4 38 35 29 44 -3 3 -8 -2 -12 -11z"/>
<path d="M2251 4853 c-1 -7 -8 -13 -16 -13 -17 0 -21 -25 -6 -35 12 -7 34 32
27 48 -3 9 -5 9 -5 0z"/>
<path d="M6713 4824 c-4 -10 -8 -40 -8 -66 0 -27 -2 -48 -5 -48 -4 0 -17 18
-30 39 -19 29 -28 36 -37 29 -7 -6 -13 -18 -13 -27 0 -18 32 -107 43 -117 12
-12 8 15 -8 53 -24 56 -19 73 10 38 20 -24 25 -38 21 -69 -3 -22 -1 -35 4 -30
5 5 10 24 12 42 l2 32 36 -35 c20 -19 40 -35 45 -35 5 0 -7 15 -27 33 -42 38
-56 89 -39 138 12 35 7 55 -6 23z"/>
<path d="M2860 4793 c0 -26 1 -26 15 -7 19 25 19 34 0 34 -10 0 -15 -10 -15
-27z"/>
<path d="M2321 4773 c-1 -35 13 -52 23 -27 8 22 8 26 -3 19 -5 -3 -12 5 -14
17 -3 17 -5 15 -6 -9z"/>
<path d="M2428 4792 c-20 -4 -22 -11 -9 -31 7 -11 11 -9 21 9 13 25 12 28 -12
22z"/>
<path d="M2657 4793 c-10 -9 -7 -134 3 -158 6 -13 9 12 9 73 1 92 0 98 -12 85z"/>
<path d="M6552 4784 c-6 -10 -6 -33 -1 -55 11 -48 61 -159 72 -159 4 0 3 9 -3
20 -17 32 2 23 37 -17 18 -21 32 -33 33 -28 0 13 -52 71 -69 77 -9 2 -14 26
-16 76 -4 88 -29 129 -53 86z m31 -31 c-1 -5 2 -26 7 -46 4 -20 4 -35 0 -32
-4 3 -10 17 -12 32 -3 16 -9 36 -13 47 -6 14 -5 17 6 14 8 -3 13 -10 12 -15z"/>
<path d="M7206 4792 c-3 -5 1 -9 9 -9 8 0 12 4 9 9 -3 4 -7 8 -9 8 -2 0 -6 -4
-9 -8z"/>
<path d="M2256 4773 c-8 -25 0 -63 13 -63 9 0 31 45 31 62 0 5 -6 8 -14 5 -8
-3 -17 -1 -19 6 -2 7 -7 2 -11 -10z"/>
<path d="M2475 4780 c-3 -5 -1 -10 4 -10 6 0 11 5 11 10 0 6 -2 10 -4 10 -3 0
-8 -4 -11 -10z"/>
<path d="M6750 4780 c0 -5 5 -10 11 -10 5 0 7 5 4 10 -3 6 -8 10 -11 10 -2 0
-4 -4 -4 -10z"/>
<path d="M6810 4756 c0 -9 5 -16 10 -16 6 0 10 4 10 9 0 6 -4 13 -10 16 -5 3
-10 -1 -10 -9z"/>
<path d="M6766 4718 c8 -39 19 -54 28 -39 4 6 2 11 -3 11 -6 0 -11 11 -11 24
0 14 -4 28 -10 31 -6 4 -7 -6 -4 -27z"/>
<path d="M6930 4736 c0 -8 8 -24 18 -36 16 -20 19 -21 31 -6 11 14 11 16 -2
16 -9 0 -19 9 -22 20 -7 23 -25 27 -25 6z"/>
<path d="M2190 4727 c0 -22 20 -32 31 -16 5 8 8 19 8 24 0 6 -3 4 -6 -3 -4
-10 -8 -10 -19 -1 -11 9 -14 8 -14 -4z"/>
<path d="M2812 4703 c3 -29 28 -39 36 -14 3 8 0 11 -7 7 -7 -5 -11 1 -11 13 0
12 -5 21 -11 21 -6 0 -9 -12 -7 -27z"/>
<path d="M2938 4725 c-3 -6 -2 -44 2 -85 5 -41 9 -81 10 -87 0 -7 4 -13 10
-13 5 0 7 12 4 28 -3 15 -8 59 -12 97 -4 39 -10 65 -14 60z"/>
<path d="M7015 4683 c10 -75 15 -95 25 -91 6 2 10 6 10 11 0 4 0 25 0 48 0 24
-4 38 -10 34 -6 -4 -10 5 -10 19 0 14 -5 26 -11 26 -6 0 -8 -17 -4 -47z"/>
<path d="M2363 4690 c1 -19 7 -34 12 -32 13 3 26 52 14 52 -5 0 -9 -6 -10 -12
0 -7 -4 -4 -9 7 -8 16 -9 13 -7 -15z"/>
<path d="M2455 4681 c-3 -5 -1 -12 5 -16 12 -7 30 2 30 16 0 12 -27 12 -35 0z"/>
<path d="M2297 4653 c-11 -10 -8 -43 3 -43 9 0 30 31 30 44 0 8 -25 7 -33 -1z"/>
<path d="M2208 4603 c-10 -52 20 -99 36 -57 9 24 7 44 -5 44 -5 0 -8 -4 -5 -8
2 -4 1 -14 -5 -22 -7 -12 -9 -11 -10 5 -1 11 -1 28 0 38 1 9 0 17 -3 17 -2 0
-6 -8 -8 -17z"/>
<path d="M2430 4597 c0 -16 -5 -26 -12 -24 -7 1 -13 -5 -13 -13 0 -26 29 -16
39 13 7 19 6 31 -2 39 -9 9 -12 6 -12 -15z"/>
<path d="M6888 4540 c-3 -56 -8 -74 -28 -95 -13 -14 -19 -25 -12 -25 25 0 54
62 60 126 3 40 1 64 -6 64 -5 0 -12 -31 -14 -70z"/>
<path d="M7460 4564 c-23 -25 -39 -48 -36 -51 3 -3 17 9 31 26 15 17 31 31 36
31 12 0 0 -48 -20 -79 -13 -20 -16 -21 -21 -6 -8 21 -21 7 -44 -48 -14 -36
-14 -38 1 -35 29 5 104 112 110 156 3 22 1 42 -5 46 -5 3 -29 -15 -52 -40z"/>
<path d="M6560 4585 c-20 -25 18 -254 41 -240 9 6 5 37 -11 85 -12 35 -19 121
-10 115 5 -3 11 -32 15 -65 4 -35 11 -57 17 -54 12 8 1 96 -18 142 -15 36 -17
38 -34 17z"/>
<path d="M6960 4590 c0 -5 5 -10 10 -10 6 0 10 5 10 10 0 6 -4 10 -10 10 -5 0
-10 -4 -10 -10z"/>
<path d="M7072 4570 c0 -19 2 -27 5 -17 2 9 2 25 0 35 -3 9 -5 1 -5 -18z"/>
<path d="M6825 4527 c-10 -25 -12 -43 -6 -59 9 -21 10 -20 10 10 1 18 6 42 12
54 6 11 8 22 5 25 -3 4 -12 -10 -21 -30z"/>
<path d="M2341 4518 c-1 -15 3 -29 8 -33 13 -7 26 16 14 24 -6 3 -13 13 -16
21 -3 9 -6 4 -6 -12z"/>
<path d="M6620 4532 c0 -24 30 -70 61 -92 27 -20 33 -21 56 -9 14 7 20 15 14
17 -6 2 -11 11 -11 20 0 10 -5 24 -11 32 -8 11 -9 7 -4 -18 13 -67 -46 -48
-86 28 -10 19 -18 29 -19 22z"/>
<path d="M7050 4497 c0 -20 4 -38 9 -42 6 -3 7 10 4 32 -8 50 -13 55 -13 10z"/>
<path d="M2271 4489 c-1 -14 2 -29 6 -32 10 -11 33 14 33 37 -1 20 -1 20 -12
1 -11 -19 -11 -19 -19 0 -7 17 -8 17 -8 -6z"/>
<path d="M6964 4484 c-4 -10 -8 -22 -10 -25 -6 -11 27 -49 37 -43 6 4 4 13 -6
24 -11 12 -13 20 -6 25 6 3 11 1 11 -6 0 -7 3 -10 6 -6 3 3 -1 16 -10 28 -15
21 -16 22 -22 3z"/>
<path d="M2390 4457 c0 -22 4 -28 17 -25 10 2 19 12 21 22 3 12 0 16 -8 11 -7
-4 -16 -1 -21 6 -6 10 -9 6 -9 -14z"/>
<path d="M2216 4428 c-5 -22 -6 -22 -20 -3 -18 23 -22 4 -5 -26 10 -20 11 -20
30 -3 20 18 25 39 10 48 -5 3 -11 -4 -15 -16z"/>
<path d="M7127 4430 c-18 -22 -24 -80 -7 -80 6 0 10 -7 10 -15 0 -7 6 -18 13
-22 17 -10 37 -67 37 -107 1 -27 2 -29 11 -13 13 23 -5 101 -31 132 -11 14
-16 36 -14 73 1 28 1 52 0 52 -1 0 -9 -9 -19 -20z"/>
<path d="M2455 4404 c-3 -20 -4 -39 -1 -42 3 -3 6 4 6 16 0 13 6 22 15 22 19
0 19 7 1 25 -12 12 -15 9 -21 -21z"/>
<path d="M2281 4413 c-1 -7 -8 -10 -16 -7 -16 7 -22 -21 -6 -30 12 -8 34 21
28 36 -4 10 -6 10 -6 1z"/>
<path d="M6815 4410 c-3 -5 -1 -10 4 -10 6 0 11 5 11 10 0 6 -2 10 -4 10 -3 0
-8 -4 -11 -10z"/>
<path d="M2956 4401 c-4 -7 -5 -15 -2 -18 9 -9 19 4 14 18 -4 11 -6 11 -12 0z"/>
<path d="M6940 4381 c0 -6 5 -13 10 -16 6 -3 10 1 10 9 0 9 -4 16 -10 16 -5 0
-10 -4 -10 -9z"/>
<path d="M2161 4368 c-1 -11 -6 -15 -16 -12 -24 10 -28 -38 -22 -235 9 -258
22 -349 48 -343 11 3 11 1 2 -9 -9 -9 -9 -20 2 -48 7 -20 19 -67 25 -106 6
-38 14 -72 18 -75 8 -6 49 -88 55 -110 3 -8 -2 -23 -11 -32 -8 -10 -17 -40
-20 -68 -4 -48 -21 -66 -37 -40 -3 6 2 10 11 10 29 0 3 16 -56 34 -78 23 -157
71 -174 105 -9 16 -23 31 -32 35 -16 6 -16 18 1 59 5 12 2 17 -10 17 -9 0 -19
-9 -22 -20 -8 -30 -29 -24 -52 15 -11 19 -27 35 -34 35 -8 0 -22 9 -32 20 -10
11 -24 20 -30 20 -7 0 -18 15 -25 33 -7 17 -18 37 -25 42 -6 6 -23 36 -38 68
-28 61 -33 65 -62 43 -16 -12 -17 -16 -6 -30 7 -9 19 -16 26 -16 7 0 20 -16
30 -36 9 -19 23 -38 31 -41 8 -3 14 -11 14 -18 0 -11 -5 -11 -27 1 -16 7 -36
14 -46 14 -26 0 -78 30 -100 58 -22 26 -55 29 -64 6 -10 -25 11 -49 40 -46 14
1 41 -7 59 -18 18 -11 45 -20 59 -20 17 0 42 -15 72 -44 26 -24 47 -47 47 -50
0 -3 -16 -6 -35 -6 -36 0 -47 -13 -20 -24 8 -3 29 -3 45 0 43 9 74 -2 117 -41
22 -20 40 -30 44 -24 3 6 20 -6 37 -27 34 -41 35 -59 2 -29 -25 23 -39 12 -17
-13 16 -17 10 -18 -148 -16 -104 0 -169 5 -178 12 -18 15 -71 0 -75 -21 -5
-23 39 -32 92 -18 24 6 58 8 75 5 26 -6 28 -8 18 -25 -7 -11 -22 -19 -34 -19
-29 0 -39 -18 -20 -37 11 -12 19 -13 36 -4 11 7 21 18 21 26 0 20 58 58 89 58
14 0 52 -2 84 -5 31 -3 60 -2 63 3 9 15 54 10 54 -5 0 -8 10 -17 23 -21 39
-11 117 -48 117 -56 0 -4 20 -11 45 -15 25 -3 44 -9 41 -11 -8 -8 33 -83 44
-83 13 0 13 1 -6 46 -23 54 -15 146 15 178 16 17 20 30 16 48 -5 18 -2 27 9
31 9 4 16 18 16 32 l0 25 -20 -20 c-11 -11 -20 -26 -20 -32 -1 -13 -25 27 -59
98 -25 53 -46 183 -31 198 19 19 12 54 -12 58 -19 2 -23 10 -24 38 -1 19 -6
52 -12 73 -9 31 -8 38 2 34 8 -3 19 0 25 6 16 16 14 47 -3 47 -19 0 -24 15
-31 111 -3 46 -8 108 -11 138 -5 47 -4 53 10 48 19 -8 30 12 23 40 -4 16 -5
16 -6 1z m-14 -360 c-3 -8 -6 -5 -6 6 -1 11 2 17 5 13 3 -3 4 -12 1 -19z
m-312 -456 c-6 -7 -45 9 -45 18 0 4 11 3 24 -3 14 -7 23 -13 21 -15z"/>
<path d="M2353 4368 c2 -7 7 -13 12 -13 5 0 10 6 13 13 2 6 -4 12 -13 12 -9 0
-15 -6 -12 -12z"/>
<path d="M6744 4348 c16 -12 35 -37 43 -56 8 -19 16 -32 19 -29 10 9 -24 75
-47 91 -35 24 -49 19 -15 -6z"/>
<path d="M2398 4352 c-20 -4 -23 -17 -7 -28 12 -7 33 10 28 23 -2 5 -12 7 -21
5z"/>
<path d="M2928 4341 c-10 -10 -18 -27 -18 -39 0 -12 -4 -22 -10 -22 -5 0 -10
-16 -10 -36 0 -20 -4 -33 -10 -29 -18 11 -50 -15 -50 -42 0 -14 -8 -32 -17
-39 -15 -10 -18 -27 -17 -86 1 -72 -12 -55 -15 20 0 17 -5 32 -11 32 -10 0
-14 -31 -10 -84 1 -18 -2 -26 -9 -22 -6 4 -11 21 -11 37 0 20 -4 28 -11 23 -7
-4 -9 -32 -6 -83 4 -48 3 -67 -2 -51 -5 14 -9 37 -10 53 -1 15 -6 27 -12 27
-8 0 -10 -24 -7 -82 l5 -83 -17 70 c-21 82 -28 61 -14 -40 1 -11 3 -28 3 -38
1 -12 7 -17 19 -15 9 2 22 -5 29 -17 11 -17 12 -12 13 40 1 43 4 54 10 40 5
-11 9 -32 9 -47 1 -16 5 -28 11 -28 5 0 7 7 4 15 -4 9 0 15 10 15 9 0 16 -8
16 -17 0 -10 5 -25 11 -33 8 -12 9 -9 5 13 -4 16 -2 27 4 27 6 0 8 11 5 28 -6
25 -5 25 8 9 13 -16 15 -15 21 14 3 17 6 42 6 55 0 13 5 24 11 24 7 0 8 11 4
30 -4 20 -3 30 5 30 12 0 9 45 -5 97 -3 10 0 6 7 -8 7 -14 19 -33 26 -42 7 -9
15 -33 18 -54 7 -64 14 -83 29 -83 11 0 15 11 14 43 -1 23 -4 32 -6 20 -8 -41
-23 -24 -23 26 0 30 -5 51 -12 54 -10 4 -10 7 -1 14 15 10 18 60 9 118 -6 36
-5 38 5 15 12 -24 13 -24 16 -4 2 11 0 39 -5 62 -6 24 -6 39 -1 36 5 -3 9 -16
9 -30 0 -13 5 -24 11 -24 8 0 10 13 5 38 -3 20 -6 45 -6 55 0 21 -10 21 -32
-2z"/>
<path d="M7394 4323 c-14 -28 -18 -54 -15 -98 2 -40 6 -53 11 -40 4 11 5 36 2
56 -2 21 0 39 7 43 18 12 19 -100 0 -118 -14 -15 -11 -26 6 -26 8 0 15 4 15 9
0 5 14 12 31 16 40 9 72 75 67 138 -4 50 -16 53 -37 10 -25 -50 -51 -38 -51
23 0 35 -15 29 -36 -13z"/>
<path d="M6566 4313 c4 -16 11 -36 15 -45 5 -9 9 -43 8 -75 l-1 -58 -14 50
c-7 28 -14 62 -14 78 0 15 -5 27 -11 27 -27 0 19 -195 51 -215 16 -10 24 1 14
22 -4 10 -6 50 -5 89 2 56 -1 80 -18 113 -25 47 -34 53 -25 14z"/>
<path d="M6917 4334 c-3 -3 -3 -21 0 -40 6 -37 -15 -50 -24 -14 -3 11 -10 20
-15 20 -10 0 -1 -38 14 -56 5 -7 17 -10 27 -7 21 5 33 47 19 61 -6 6 -6 12 1
16 6 4 11 11 11 17 0 10 -23 12 -33 3z"/>
<path d="M7078 4314 c-3 -5 0 -25 8 -44 l12 -35 1 30 c1 32 -13 63 -21 49z"/>
<path d="M2486 4295 c-3 -9 -10 -13 -16 -10 -5 3 -10 -3 -10 -14 0 -30 27 -26
34 5 8 30 2 43 -8 19z"/>
<path d="M2250 4278 c0 -21 0 -21 -15 -2 -14 19 -14 19 -15 -3 0 -30 20 -40
37 -18 15 22 17 45 3 45 -5 0 -10 -10 -10 -22z"/>
<path d="M7120 4273 c0 -24 34 -123 42 -123 9 0 -1 57 -13 82 -5 9 -9 26 -9
37 0 12 -4 21 -10 21 -5 0 -10 -7 -10 -17z"/>
<path d="M2825 4269 c-4 -6 -5 -13 -2 -16 7 -7 27 6 27 18 0 12 -17 12 -25 -2z"/>
<path d="M6720 4275 c0 -18 58 -82 80 -88 11 -3 20 -2 20 3 0 4 -11 11 -25 14
-14 4 -25 10 -25 14 0 11 -49 68 -50 57z"/>
<path d="M2380 4254 c0 -8 5 -12 10 -9 6 3 10 10 10 16 0 5 -4 9 -10 9 -5 0
-10 -7 -10 -16z"/>
<path d="M7317 4258 c-11 -8 -20 -33 -24 -65 -7 -60 -18 -60 -33 -3 -6 22 -16
40 -23 40 -7 0 -22 -29 -34 -65 -17 -53 -20 -72 -11 -101 11 -40 3 -88 -12
-79 -6 3 -10 24 -10 45 0 47 -8 70 -25 70 -8 0 -11 8 -8 20 4 17 0 20 -24 20
-28 0 -53 15 -53 32 0 4 9 8 21 8 20 0 20 0 -3 29 -32 41 -48 39 -48 -5 0 -27
7 -43 31 -65 17 -16 37 -29 45 -29 8 0 14 -9 14 -20 0 -14 -6 -20 -17 -18 -39
7 -20 -117 23 -151 13 -11 24 -24 24 -30 0 -6 6 -11 14 -11 8 0 18 -9 21 -20
3 -11 14 -20 24 -20 10 0 23 -10 28 -22 l11 -23 9 24 c13 33 20 18 28 -61 5
-47 4 -68 -4 -68 -15 0 -40 40 -47 79 -5 22 -15 36 -31 42 -32 12 -33 12 -33
-5 0 -8 -8 -13 -17 -12 -16 1 -18 -7 -16 -58 2 -52 6 -64 32 -90 24 -24 34
-28 51 -20 l20 9 -23 45 c-32 61 -42 100 -24 100 8 0 22 -20 31 -45 10 -25 24
-48 31 -53 16 -8 20 -52 9 -95 -12 -49 33 -104 50 -61 3 9 6 24 6 35 0 25 32
25 55 -1 11 -12 15 -27 11 -43 -7 -28 0 -38 20 -30 45 17 -23 121 -71 109 -18
-5 -27 -1 -35 13 -15 28 -12 51 5 51 16 0 20 12 8 24 -9 9 -11 66 -2 66 3 0 5
16 6 35 1 28 -2 34 -12 25 -10 -8 -15 0 -24 34 -6 24 -13 52 -17 62 -3 11 3 5
14 -12 14 -22 31 -33 55 -38 20 -4 38 -12 40 -19 4 -8 6 -8 6 -1 1 6 -6 17
-14 24 -8 7 -15 19 -15 26 0 8 -4 14 -9 14 -5 0 -12 17 -16 38 -3 20 -9 48
-12 61 -6 24 -5 24 18 8 13 -10 31 -17 41 -17 25 0 23 42 -2 65 -17 15 -19 26
-14 64 3 27 0 68 -8 99 -13 47 -16 51 -31 40z m6 -73 c4 -8 2 -17 -3 -20 -6
-4 -10 3 -10 14 0 25 6 27 13 6z m-93 -54 c-12 -46 -24 -57 -14 -13 11 50 16
64 21 59 2 -3 -1 -23 -7 -46z m125 -78 c41 -45 27 -75 -15 -33 -17 17 -28 60
-15 60 2 0 16 -12 30 -27z m-53 9 c-10 -7 -10 -19 -2 -58 8 -34 8 -50 1 -52
-17 -6 -13 -26 9 -40 23 -14 26 -32 5 -32 -8 0 -21 13 -30 30 -19 36 -21 146
-2 153 20 9 33 7 19 -1z m-174 -47 c1 -14 9 -39 18 -56 19 -38 14 -45 -14 -22
-27 22 -42 103 -20 103 7 0 15 -11 16 -25z m130 -28 c2 -18 -1 -27 -11 -27
-15 0 -27 20 -27 47 0 27 35 9 38 -20z m-10 -83 c-3 -2 -11 2 -18 11 -7 8 -17
15 -22 15 -14 0 25 -49 40 -50 14 0 16 -16 2 -25 -12 -7 -60 34 -60 52 0 8 5
23 11 34 10 19 11 19 31 -6 11 -14 18 -28 16 -31z m-66 -177 c6 -23 19 -53 27
-66 14 -21 13 -23 -4 -20 -29 6 -74 107 -59 131 10 15 23 -2 36 -45z m124
-171 c5 -22 4 -28 -7 -24 -8 2 -15 20 -17 39 -4 40 13 30 24 -15z"/>
<path d="M2152 4230 c4 -46 34 -54 40 -11 3 17 1 31 -4 31 -4 0 -8 -5 -8 -12
0 -6 -7 -3 -15 8 -14 18 -15 17 -13 -16z"/>
<path d="M3000 4226 c0 -14 5 -26 10 -26 6 0 10 9 10 19 0 11 -4 23 -10 26 -6
4 -10 -5 -10 -19z"/>
<path d="M2316 4231 c-4 -7 -5 -15 -2 -18 9 -9 19 4 14 18 -4 11 -6 11 -12 0z"/>
<path d="M2416 4233 c-11 -12 -6 -33 8 -33 19 0 28 27 11 33 -7 3 -16 3 -19 0z"/>
<path d="M6830 4232 c0 -12 19 -26 26 -19 2 2 -2 10 -11 17 -9 8 -15 8 -15 2z"/>
<path d="M2215 4202 c-8 -8 5 -22 21 -22 8 0 14 6 14 13 0 13 -25 19 -35 9z"/>
<path d="M2780 4200 c0 -5 5 -10 11 -10 5 0 7 5 4 10 -3 6 -8 10 -11 10 -2 0
-4 -4 -4 -10z"/>
<path d="M2511 4186 c-1 -13 -6 -17 -21 -13 -13 3 -20 0 -20 -9 0 -8 6 -14 14
-14 18 0 39 26 33 42 -3 8 -6 5 -6 -6z"/>
<path d="M6721 4183 c-1 -12 4 -25 9 -28 12 -7 12 2 0 30 -8 19 -9 19 -9 -2z"/>
<path d="M2596 4167 c-11 -47 14 -217 33 -217 9 0 14 136 6 160 -3 11 -13 20
-21 20 -8 0 -14 5 -14 10 0 6 5 10 10 10 12 0 13 27 1 34 -5 3 -11 -4 -15 -17z
m21 -99 c-3 -7 -5 -2 -5 12 0 14 2 19 5 13 2 -7 2 -19 0 -25z"/>
<path d="M2173 4173 c-14 -5 -18 -43 -5 -43 12 0 32 23 32 37 0 13 -6 15 -27
6z"/>
<path d="M6944 4155 c-4 -15 -1 -32 6 -40 20 -24 32 -17 15 9 -8 13 -13 31 -9
40 3 9 3 16 0 16 -3 0 -8 -11 -12 -25z"/>
<path d="M2740 4151 c0 -6 5 -13 10 -16 6 -3 10 1 10 9 0 9 -4 16 -10 16 -5 0
-10 -4 -10 -9z"/>
<path d="M6676 4151 c-7 -10 13 -61 23 -61 4 0 7 14 6 32 0 31 -17 48 -29 29z"/>
<path d="M2440 4125 c0 -26 -15 -34 -23 -12 -2 6 -7 10 -9 7 -3 -3 -1 -16 4
-30 l9 -25 20 24 c20 25 26 61 9 61 -5 0 -10 -11 -10 -25z"/>
<path d="M2680 4105 c0 -26 4 -35 16 -35 12 0 15 6 10 23 -3 12 -6 28 -6 35 0
6 -4 12 -10 12 -5 0 -10 -16 -10 -35z"/>
<path d="M3014 4105 c1 -19 6 -33 11 -32 13 5 13 59 -1 64 -6 2 -10 -11 -10
-32z"/>
<path d="M7004 4111 c22 -42 20 -54 -6 -46 l-23 6 23 -20 c21 -19 22 -23 11
-54 -12 -35 -6 -87 11 -87 6 0 10 12 10 28 0 15 5 43 10 62 13 43 -6 117 -33
132 -17 9 -17 8 -3 -21z"/>
<path d="M7413 4115 c-5 -15 1 -115 13 -216 5 -41 3 -49 -21 -71 -20 -19 -32
-46 -46 -109 -11 -45 -17 -89 -15 -96 7 -18 26 -16 26 2 0 24 25 17 40 -10 25
-47 40 -31 40 45 0 40 4 70 10 70 6 0 10 18 10 40 0 23 9 59 21 82 l21 41 -31
-6 c-29 -6 -31 -4 -36 31 -4 20 -11 51 -16 69 -6 18 -8 57 -4 88 5 53 1 71
-12 40z m57 -265 c0 -5 -5 -10 -11 -10 -5 0 -7 5 -4 10 3 6 8 10 11 10 2 0 4
-4 4 -10z m-21 -62 c6 -17 9 -33 6 -36 -9 -9 -45 31 -45 50 0 30 27 21 39 -14z
m-15 -93 c7 -38 2 -71 -10 -65 -29 15 -56 114 -37 134 11 10 41 -34 47 -69z"/>
<path d="M2306 4100 c-7 -20 -9 -22 -13 -7 -5 20 -23 23 -23 3 0 -47 35 -63
46 -21 8 33 -1 55 -10 25z"/>
<path d="M2341 4094 c-1 -17 2 -34 6 -37 11 -11 33 14 32 37 0 20 -1 20 -9 1
-8 -19 -8 -19 -18 5 -11 25 -11 25 -11 -6z"/>
<path d="M6814 4093 c-39 -53 -44 -86 -21 -132 25 -50 37 -46 13 4 -27 56 4
135 53 135 26 0 27 -12 1 -35 -15 -14 -20 -15 -21 -4 0 8 -5 3 -10 -10 -11
-28 4 -129 22 -146 8 -7 9 -4 5 12 -22 71 -16 109 20 148 30 33 25 55 -14 55
-19 0 -35 -9 -48 -27z"/>
<path d="M2497 4093 c-4 -3 -7 -15 -7 -25 0 -10 -4 -18 -10 -18 -5 0 -10 5
-10 11 0 5 -4 8 -9 5 -5 -3 -7 -15 -4 -26 8 -31 35 -20 45 19 9 33 7 47 -5 34z"/>
<path d="M2201 4063 c-1 -37 13 -43 29 -14 15 29 12 50 -4 28 -14 -18 -14 -18
-19 0 -3 10 -5 4 -6 -14z"/>
<path d="M6536 4045 c-10 -27 6 -75 32 -95 39 -31 48 -23 12 10 -27 25 -32 36
-28 65 4 36 -5 47 -16 20z"/>
<path d="M6570 4036 c0 -3 16 -29 35 -57 26 -38 35 -62 36 -93 0 -38 1 -39 10
-16 14 35 -3 86 -46 134 -19 22 -35 36 -35 32z"/>
<path d="M2340 4015 c0 -15 -2 -15 -16 -4 -14 11 -15 10 -12 -11 4 -33 26 -37
34 -5 3 14 4 29 0 32 -3 4 -6 -2 -6 -12z"/>
<path d="M2402 4000 c-8 -19 -11 -20 -11 -7 -1 10 -5 16 -10 13 -11 -7 -2 -46
10 -46 12 0 31 39 26 53 -3 7 -9 1 -15 -13z"/>
<path d="M2992 3998 c2 -13 10 -23 18 -23 8 0 16 10 18 23 3 17 -2 22 -18 22
-16 0 -21 -5 -18 -22z"/>
<path d="M2232 3972 c4 -19 19 -23 25 -6 2 6 -3 14 -12 18 -12 4 -16 1 -13
-12z"/>
<path d="M2460 3970 c0 -11 7 -20 15 -20 17 0 18 2 9 24 -9 23 -24 20 -24 -4z"/>
<path d="M6705 3980 c3 -5 8 -10 11 -10 2 0 4 5 4 10 0 6 -5 10 -11 10 -5 0
-7 -4 -4 -10z"/>
<path d="M6900 3965 c-29 -35 -52 -166 -31 -179 11 -7 70 76 81 116 5 17 6 37
1 45 -5 10 -11 -3 -20 -39 -11 -47 -39 -98 -55 -98 -21 0 11 119 41 152 9 10
11 18 6 18 -6 0 -16 -7 -23 -15z"/>
<path d="M7366 3961 c-4 -5 -2 -12 3 -15 5 -4 12 -2 15 3 4 5 2 12 -3 15 -5 4
-12 2 -15 -3z"/>
<path d="M2557 3933 c13 -89 47 -270 65 -343 49 -203 68 -286 68 -297 0 -8
-16 -13 -42 -14 l-43 -1 47 -10 c26 -6 49 -17 53 -25 8 -23 2 -25 -31 -12 -16
6 -42 11 -57 11 -28 -1 -29 1 -22 36 4 20 16 47 28 59 23 25 16 43 -11 27 -43
-27 -56 -202 -17 -230 25 -19 30 -10 11 18 -9 12 -16 33 -16 45 0 22 1 23 23
8 13 -8 37 -17 53 -19 54 -7 60 -15 99 -134 40 -121 81 -219 96 -227 20 -13
31 40 24 114 -4 42 -9 94 -10 116 -1 22 -5 52 -9 68 -7 23 -5 27 12 27 12 0
24 -5 27 -10 5 -8 12 -7 22 2 15 12 49 14 232 9 107 -2 129 14 32 24 -39 4
-71 11 -71 16 0 5 -38 9 -84 9 -52 0 -88 4 -92 11 -5 9 17 10 82 5 195 -14
248 -16 239 -7 -15 13 -156 31 -250 31 -83 0 -85 0 -85 24 0 14 -5 28 -12 32
-8 5 -9 -2 -5 -24 4 -19 2 -32 -3 -32 -6 0 -10 9 -10 19 0 11 -4 23 -10 26
-14 9 -12 36 3 33 6 -2 13 2 15 7 5 18 -10 95 -19 95 -4 0 -19 23 -33 50 -21
42 -23 50 -9 50 12 0 13 3 3 15 -7 8 -10 21 -7 29 5 14 -13 80 -26 92 -12 13
-7 24 8 18 13 -5 13 -3 0 22 -8 16 -15 35 -15 42 0 6 -4 12 -9 12 -5 0 -7 -10
-4 -21 4 -14 0 -26 -11 -34 -15 -12 -15 -16 -2 -46 8 -19 24 -77 36 -129 11
-52 25 -103 30 -112 6 -10 6 -27 1 -40 -8 -22 -8 -22 -14 -3 -3 11 -8 34 -12
52 -3 17 -13 38 -22 45 -15 12 -15 11 -4 -9 6 -13 9 -35 6 -50 -3 -16 -2 -22
1 -14 4 8 17 -19 30 -65 13 -43 23 -79 24 -80 0 -1 -13 -1 -29 -2 -28 -1 -40
16 -46 63 -3 18 -28 65 -36 65 -9 0 18 -89 33 -108 10 -12 9 -14 -7 -11 -14 3
-21 14 -23 34 -2 17 -8 34 -13 39 -5 6 -9 23 -9 39 0 16 -4 26 -10 22 -6 -4
-10 9 -10 32 0 22 -4 43 -9 49 -5 5 -11 20 -14 34 -3 18 -5 15 -6 -12 0 -21 4
-38 9 -38 6 0 10 -18 10 -40 0 -22 4 -40 9 -40 4 0 11 -15 14 -32 4 -18 9 -43
13 -55 4 -14 2 -23 -4 -23 -12 0 -33 63 -61 185 -12 50 -26 104 -31 120 -5 17
-12 48 -16 70 -3 22 -14 83 -24 135 -10 52 -21 116 -25 143 -4 26 -11 47 -15
47 -4 0 -5 -12 -3 -27z m333 -545 c0 -19 -2 -20 -10 -8 -13 19 -13 30 0 30 6
0 10 -10 10 -22z m-13 -140 c-3 -8 -6 -5 -6 6 -1 11 2 17 5 13 3 -3 4 -12 1
-19z m-37 -39 c0 -11 -27 -12 -34 0 -3 4 -3 11 0 14 8 8 34 -3 34 -14z m30
-10 c0 -11 -4 -17 -10 -14 -5 3 -10 13 -10 21 0 8 5 14 10 14 6 0 10 -9 10
-21z m60 11 c0 -5 -4 -10 -10 -10 -5 0 -10 5 -10 10 0 6 5 10 10 10 6 0 10 -4
10 -10z m160 -30 c0 -5 -7 -10 -15 -10 -8 0 -15 5 -15 10 0 6 7 10 15 10 8 0
15 -4 15 -10z m-310 -56 c0 -12 5 -26 10 -29 6 -3 10 -17 10 -31 0 -13 5 -24
10 -24 6 0 11 -15 12 -32 l1 -33 4 33 c2 17 10 32 17 32 15 0 37 -153 25 -172
-9 -13 -19 6 -54 98 -65 170 -76 216 -50 194 8 -7 15 -23 15 -36z m30 10 c0
-8 5 -14 11 -14 6 0 8 9 4 20 -7 21 9 28 20 9 4 -6 9 -29 11 -51 3 -33 1 -39
-12 -34 -9 3 -19 6 -24 6 -4 0 -10 10 -13 23 -3 12 -9 33 -13 46 -5 17 -4 22
4 17 7 -4 12 -14 12 -22z"/>
<path d="M2260 3913 c0 -37 18 -57 37 -42 15 13 18 59 4 59 -5 0 -16 3 -25 6
-12 5 -16 -1 -16 -23z"/>
<path d="M2890 3920 c0 -5 5 -10 10 -10 6 0 10 5 10 10 0 6 -4 10 -10 10 -5 0
-10 -4 -10 -10z"/>
<path d="M2983 3916 c4 -10 7 -51 7 -92 0 -44 4 -73 9 -69 16 9 8 168 -8 173
-10 3 -12 0 -8 -12z"/>
<path d="M2203 3895 c1 -19 8 -30 17 -30 10 0 16 11 17 30 2 29 2 29 -6 5 l-8
-25 -11 25 -12 25 3 -30z"/>
<path d="M2455 3902 c-6 -18 -10 -20 -16 -10 -6 9 -9 4 -9 -14 0 -16 4 -28 10
-28 14 0 32 39 27 58 -4 14 -6 13 -12 -6z"/>
<path d="M2630 3899 c0 -5 -4 -7 -10 -4 -14 9 -11 -62 4 -104 14 -39 36 -53
36 -23 0 50 -14 142 -21 142 -5 0 -9 -5 -9 -11z"/>
<path d="M2871 3864 c0 -17 6 -64 15 -103 15 -66 15 -73 0 -96 -15 -23 -15
-30 4 -101 22 -81 46 -127 64 -121 15 6 10 144 -9 232 l-15 70 4 -63 c2 -35 0
-60 -5 -56 -13 8 -11 -4 7 -31 10 -15 14 -39 12 -67 l-4 -43 -22 48 c-22 48
-32 149 -12 117 6 -10 8 2 4 36 -4 33 -3 54 5 58 8 5 7 12 -4 23 -9 9 -13 23
-9 35 3 11 0 27 -9 36 -8 9 -17 26 -20 37 -3 14 -5 10 -6 -11z"/>
<path d="M6610 3880 c0 -5 5 -10 11 -10 5 0 7 5 4 10 -3 6 -8 10 -11 10 -2 0
-4 -4 -4 -10z"/>
<path d="M7093 3867 c-6 -6 -14 -25 -18 -42 -4 -18 -10 -24 -13 -16 -3 10 -8
7 -18 -10 -14 -24 -14 -24 -9 6 4 29 4 28 -7 -4 -10 -29 -9 -35 5 -46 18 -13
24 -30 7 -20 -13 8 -13 4 5 -38 23 -56 20 -106 -7 -116 -16 -6 -24 -5 -26 4
-2 7 -10 16 -19 19 -11 5 -14 2 -9 -10 4 -10 -1 -25 -10 -35 -9 -10 -14 -24
-11 -31 4 -8 6 -7 6 5 1 25 21 21 21 -5 1 -23 1 -23 15 2 8 14 14 21 15 16 0
-5 6 -3 13 3 8 6 17 8 20 4 4 -3 7 -1 7 5 0 7 6 12 14 12 11 0 13 14 9 65 -4
48 -1 73 11 100 10 19 15 43 12 53 -2 9 -7 27 -11 39 -5 18 -3 22 9 17 10 -4
16 -1 16 9 0 22 -16 29 -27 14z m-3 -107 c0 -5 -5 -10 -11 -10 -5 0 -7 5 -4
10 3 6 8 10 11 10 2 0 4 -4 4 -10z"/>
<path d="M2379 3845 c0 -11 -3 -14 -6 -7 -2 6 -9 12 -14 12 -14 0 -10 -36 6
-50 12 -10 17 -7 26 14 10 20 10 29 1 38 -9 9 -12 7 -13 -7z"/>
<path d="M2490 3845 c0 -8 -7 -15 -16 -15 -9 0 -14 -7 -12 -17 5 -29 25 -25
37 8 13 39 13 39 1 39 -5 0 -10 -7 -10 -15z"/>
<path d="M7015 3850 c-3 -5 -1 -10 4 -10 6 0 11 5 11 10 0 6 -2 10 -4 10 -3 0
-8 -4 -11 -10z"/>
<path d="M6707 3843 c-24 -23 15 -75 64 -87 30 -7 46 13 26 33 -15 15 -27 14
-27 -4 0 -20 -13 -19 -33 3 -32 35 -17 53 24 32 10 -6 19 -7 19 -2 0 9 -43 32
-59 32 -4 0 -11 -3 -14 -7z"/>
<path d="M2241 3817 c-1 -35 23 -32 27 4 2 17 0 20 -6 10 -8 -11 -10 -11 -15
0 -3 8 -6 1 -6 -14z"/>
<path d="M2938 3813 c-3 -11 -2 -27 3 -34 5 -8 9 -26 9 -40 0 -15 9 -37 19
-50 16 -19 22 -22 32 -11 11 10 9 15 -9 28 -12 8 -22 25 -23 37 0 12 -6 38
-13 57 -11 30 -13 32 -18 13z"/>
<path d="M2840 3800 c0 -11 5 -20 10 -20 6 0 10 9 10 20 0 11 -4 20 -10 20 -5
0 -10 -9 -10 -20z"/>
<path d="M6600 3815 c0 -5 16 -30 35 -54 26 -33 35 -53 35 -82 0 -42 -14 -52
-25 -18 -4 12 -18 37 -32 57 -13 20 -22 44 -20 54 3 10 1 18 -4 18 -5 0 -9
-11 -9 -24 0 -32 81 -176 100 -176 12 0 12 2 2 9 -11 6 -11 17 -2 51 6 23 9
52 6 64 -7 24 -85 117 -86 101z"/>
<path d="M6976 3794 c-4 -14 -5 -29 -2 -31 3 -3 8 7 12 21 3 15 4 29 1 32 -2
3 -8 -7 -11 -22z"/>
<path d="M2391 3764 c0 -11 3 -14 6 -6 3 7 2 16 -1 19 -3 4 -6 -2 -5 -13z"/>
<path d="M6990 3761 c0 -5 5 -13 10 -16 6 -3 10 -2 10 4 0 5 -4 13 -10 16 -5
3 -10 2 -10 -4z"/>
<path d="M2267 3720 c-8 -38 -24 -39 -30 -2 -4 26 -4 25 -6 -5 -1 -33 14 -52
30 -36 13 13 29 73 20 73 -5 0 -11 -13 -14 -30z"/>
<path d="M2861 3738 c0 -7 4 -22 9 -33 7 -17 9 -15 9 13 1 17 -3 32 -9 32 -5
0 -10 -6 -9 -12z"/>
<path d="M6960 3723 c0 -17 5 -35 11 -39 13 -7 29 13 28 36 0 12 -2 12 -6 1
-4 -10 -9 -8 -19 10 l-13 24 -1 -32z"/>
<path d="M2320 3720 c0 -24 25 -27 34 -4 9 23 8 24 -14 24 -13 0 -20 -7 -20
-20z"/>
<path d="M2492 3698 c-3 -64 32 -63 44 1 5 25 4 32 -5 27 -6 -4 -11 -13 -10
-19 3 -23 -1 -37 -10 -37 -6 0 -12 15 -14 33 l-4 32 -1 -37z"/>
<path d="M2391 3710 c0 -8 4 -22 9 -30 9 -13 11 -13 20 0 5 8 9 22 9 30 -1 11
-3 10 -6 -2 -2 -10 -8 -18 -13 -18 -5 0 -11 8 -13 18 -3 12 -5 13 -6 2z"/>
<path d="M6850 3715 c1 -17 29 -49 37 -41 4 3 -3 16 -15 29 -12 12 -22 17 -22
12z"/>
<path d="M7010 3675 c0 -14 4 -25 9 -25 4 0 6 11 3 25 -2 14 -6 25 -8 25 -2 0
-4 -11 -4 -25z"/>
<path d="M2690 3670 c0 -6 9 -29 21 -52 16 -31 23 -38 32 -29 9 9 9 14 1 19
-6 4 -19 22 -28 40 -17 33 -26 40 -26 22z"/>
<path d="M2320 3632 c0 -11 -5 -24 -12 -28 -7 -5 -9 -2 -5 9 3 9 0 18 -9 21
-12 5 -15 -1 -12 -21 4 -41 34 -42 43 -3 4 17 4 34 1 37 -3 4 -6 -3 -6 -15z"/>
<path d="M6770 3642 c0 -4 15 -13 34 -20 41 -15 61 -57 53 -109 -9 -52 -20
-58 -50 -27 -15 15 -27 22 -27 17 0 -13 44 -53 58 -53 15 0 15 -3 0 -35 -11
-25 -33 -32 -53 -17 -20 13 -56 72 -51 80 6 10 -49 64 -82 82 -25 12 -72 6
-72 -10 0 -6 10 -6 26 0 27 11 58 -4 97 -47 15 -18 16 -22 3 -32 -17 -14 -45
-3 -83 32 -13 11 -23 15 -23 9 0 -6 16 -23 35 -37 26 -20 41 -25 63 -21 26 6
30 3 48 -36 12 -28 27 -44 42 -48 21 -4 24 -12 28 -64 3 -42 13 -74 36 -114
17 -31 33 -51 36 -44 5 17 23 15 38 -5 12 -16 13 -13 14 22 0 25 -3 35 -9 27
-6 -10 -12 -9 -29 5 -20 17 -21 21 -9 59 10 34 14 39 25 28 6 -7 12 -23 12
-36 0 -15 3 -19 11 -11 5 5 12 57 15 114 5 104 0 127 -12 53 -15 -99 -23 -119
-18 -49 4 51 2 66 -5 55 -6 -8 -11 -31 -11 -50 l-1 -35 -14 25 c-8 14 -14 42
-15 63 0 27 -4 37 -16 37 -11 0 -14 5 -9 18 18 43 24 92 15 117 -14 36 -100
85 -100 57z m105 -389 c-6 -44 -8 -46 -21 -28 -15 20 -20 139 -7 172 12 32 36
-90 28 -144z"/>
<path d="M2455 3627 c-5 -13 -10 -15 -15 -7 -5 7 -10 8 -13 3 -4 -6 0 -19 8
-29 18 -24 39 -7 33 27 -4 22 -5 22 -13 6z"/>
<path d="M2382 3605 c0 -16 2 -22 5 -12 2 9 2 23 0 30 -3 6 -5 -1 -5 -18z"/>
<path d="M7106 3600 c7 -38 30 -70 51 -70 7 0 13 6 13 14 0 19 -30 89 -36 84
-2 -3 3 -21 11 -41 14 -33 14 -37 0 -37 -8 0 -15 6 -15 13 -1 6 -7 26 -15 42
l-15 30 6 -35z"/>
<path d="M2345 3600 c3 -14 5 -31 5 -37 0 -7 7 -13 15 -13 8 0 15 5 15 10 0 6
-4 10 -8 10 -5 0 -13 12 -20 28 -11 26 -11 26 -7 2z"/>
<path d="M6755 3585 c4 -11 10 -28 12 -37 3 -10 9 -18 14 -18 13 0 11 6 -12
42 -12 18 -18 24 -14 13z"/>
<path d="M2557 3582 c-10 -2 -17 -11 -15 -20 5 -24 26 -26 33 -2 8 25 6 28
-18 22z"/>
<path d="M6810 3570 c0 -11 4 -20 9 -20 5 0 7 9 4 20 -3 11 -7 20 -9 20 -2 0
-4 -9 -4 -20z"/>
<path d="M7183 3510 c0 -61 4 -94 16 -115 8 -16 16 -37 16 -45 0 -10 10 -15
28 -15 43 0 97 -61 97 -110 0 -8 -9 -19 -20 -25 -19 -10 -23 -6 -44 42 -26 58
-56 93 -56 65 0 -8 -6 -17 -12 -20 -9 -3 -5 -12 11 -28 18 -18 22 -20 18 -6
-4 9 -2 17 3 17 5 0 12 -12 16 -27 11 -56 23 -73 48 -73 29 0 56 33 56 68 0
33 -24 75 -61 106 -19 16 -29 32 -25 41 3 8 1 15 -4 15 -6 0 -10 5 -10 11 0
25 34 1 42 -29 6 -22 18 -36 34 -42 40 -16 49 0 14 22 -18 10 -34 28 -37 39
-3 10 -9 19 -14 19 -5 0 -9 5 -9 11 0 25 46 2 66 -34 16 -30 23 -35 27 -22 5
10 -8 31 -35 61 -23 25 -44 41 -46 35 -2 -6 -12 -11 -22 -11 -14 0 -22 11 -30
40 -6 21 -14 42 -19 45 -5 3 -3 -19 4 -47 22 -87 28 -138 16 -138 -14 0 -34
75 -33 125 1 49 -7 77 -18 70 -5 -3 -10 5 -12 17 -2 13 -4 -15 -5 -62z"/>
<path d="M2742 3550 c0 -14 2 -19 5 -12 2 6 2 18 0 25 -3 6 -5 1 -5 -13z"/>
<path d="M7337 3554 c-22 -22 26 -104 61 -104 12 0 9 7 -12 29 -15 15 -30 40
-34 55 -4 15 -11 24 -15 20z"/>
<path d="M2511 3515 c-2 -29 -2 -29 -16 -11 -15 19 -15 19 -15 -1 0 -12 5 -25
11 -29 17 -10 31 11 26 42 l-4 29 -2 -30z"/>
<path d="M2708 3534 c-4 -3 -1 -18 6 -33 7 -14 11 -31 9 -38 -6 -16 24 -83 37
-83 6 0 3 11 -6 25 -9 14 -14 32 -10 40 6 18 -26 99 -36 89z"/>
<path d="M2792 3500 c0 -14 2 -19 5 -12 2 6 2 18 0 25 -3 6 -5 1 -5 -13z"/>
<path d="M2394 3490 c3 -14 6 -28 6 -32 0 -5 7 -8 15 -8 11 0 15 10 14 33 -1
27 -2 28 -6 7 l-5 -24 -15 24 -14 25 5 -25z"/>
<path d="M7091 3482 c-13 -25 -14 -32 -2 -32 9 0 23 41 16 48 -2 2 -8 -5 -14
-16z"/>
<path d="M2360 3469 c0 -11 5 -17 10 -14 6 3 10 13 10 21 0 8 -4 14 -10 14 -5
0 -10 -9 -10 -21z"/>
<path d="M7040 3476 c0 -15 18 -31 26 -23 7 7 -7 37 -17 37 -5 0 -9 -6 -9 -14z"/>
<path d="M2551 3468 c0 -9 -8 -21 -17 -26 -10 -6 -12 -12 -6 -16 14 -8 35 20
29 41 -4 16 -5 16 -6 1z"/>
<path d="M2433 3443 c-18 -6 -16 -23 3 -44 21 -23 44 -13 44 20 0 18 -3 22 -9
12 -7 -11 -10 -11 -17 1 -5 8 -15 13 -21 11z"/>
<path d="M2330 3384 c-38 -44 -41 -175 -6 -213 8 -9 14 -20 13 -26 0 -5 8 -12
18 -14 13 -2 16 1 12 13 -10 26 13 30 38 6 15 -14 25 -18 30 -11 3 7 -7 24
-24 38 -33 29 -42 59 -15 49 9 -3 28 -6 43 -6 23 0 29 -6 37 -37 5 -21 14 -36
19 -33 6 3 8 10 6 15 -11 27 -7 152 6 178 11 23 11 27 0 27 -16 0 -37 -41 -37
-72 0 -18 -4 -20 -35 -15 -35 6 -50 -8 -17 -16 10 -3 6 -5 -10 -6 -23 -1 -28
3 -28 22 0 12 7 35 15 51 17 33 13 45 -9 27 -8 -7 -19 -34 -23 -59 -8 -51 -8
-59 1 -97 5 -18 2 -25 -8 -25 -23 0 -36 33 -39 94 -2 43 3 61 21 85 12 16 22
33 22 36 0 11 -18 5 -30 -11z"/>
<path d="M7070 3381 c-23 -44 -1 -199 30 -209 8 -3 11 1 8 10 -4 8 -2 21 3 29
7 11 9 9 9 -8 0 -49 19 -20 30 46 14 84 2 126 -21 70 l-13 -34 -4 58 c-3 60
-21 76 -42 38z m23 -83 c2 -32 0 -58 -3 -58 -11 0 -20 83 -13 110 8 30 11 21
16 -52z m52 -22 c-4 -25 -11 -46 -16 -46 -11 0 -11 2 2 56 15 57 23 50 14 -10z"/>
<path d="M6460 3376 c0 -7 10 -16 23 -20 35 -9 38 -7 20 14 -20 23 -43 26 -43
6z"/>
<path d="M7016 3359 c-3 -17 -6 -46 -6 -63 0 -17 -5 -38 -10 -46 -7 -11 -10 1
-11 40 -1 49 -2 52 -9 22 -4 -18 -5 -42 -3 -53 3 -10 0 -26 -7 -34 -10 -12
-10 -15 1 -15 37 1 54 37 58 128 3 58 -3 68 -13 21z"/>
<path d="M6550 3370 c0 -5 5 -10 11 -10 5 0 7 5 4 10 -3 6 -8 10 -11 10 -2 0
-4 -4 -4 -10z"/>
<path d="M2544 3338 c-25 -49 -25 -171 0 -195 18 -17 18 -17 12 7 -17 60 -18
120 -2 166 19 57 14 69 -10 22z"/>
<path d="M6574 3328 c3 -13 6 -26 6 -30 0 -4 45 -28 99 -54 64 -30 97 -52 94
-60 -7 -19 33 -37 55 -25 15 9 15 10 1 11 -10 0 -16 7 -15 17 1 16 -78 63
-172 102 -18 7 -37 24 -42 37 -12 31 -34 32 -26 2z"/>
<path d="M6546 3234 c-11 -7 -29 -11 -40 -8 -28 7 -65 -20 -50 -36 8 -8 14 -9
18 -1 4 6 16 11 27 11 11 0 30 5 42 12 12 6 40 10 62 9 25 -2 36 1 30 7 -18
17 -69 21 -89 6z"/>
<path d="M7175 3230 c4 -6 11 -8 16 -5 14 9 11 15 -7 15 -8 0 -12 -5 -9 -10z"/>
<path d="M2292 3143 c5 -25 28 -28 28 -4 0 12 -6 21 -16 21 -9 0 -14 -7 -12
-17z"/>
<path d="M6995 3150 c-3 -5 -12 -7 -19 -4 -8 3 -16 -4 -20 -18 -9 -35 -7 -45
10 -63 10 -9 17 -36 18 -69 2 -29 6 -58 10 -64 4 -7 5 -20 2 -30 -3 -9 -8 -75
-11 -147 -4 -71 -10 -146 -15 -165 -5 -19 -9 -120 -9 -225 -2 -335 -14 -627
-30 -730 -4 -28 -3 -64 2 -79 6 -19 6 -31 -2 -39 -13 -13 -15 -57 -2 -57 5 0
14 12 19 28 7 17 11 21 11 10 1 -10 5 -18 10 -18 12 0 20 32 27 112 7 64 8 67
37 74 17 3 32 14 34 25 3 10 12 19 20 19 10 0 12 6 8 20 -4 12 -1 28 6 36 6 8
9 18 5 21 -4 4 -11 1 -17 -7 -8 -13 -11 -13 -23 2 -18 25 -26 13 -28 -46 -1
-36 -2 -42 -5 -18 -2 17 -9 32 -14 32 -9 0 -4 295 6 395 13 114 17 135 31 135
8 0 14 7 14 15 0 8 6 14 13 12 6 -1 10 5 8 13 -2 8 -4 29 -5 47 -1 18 -5 35
-9 39 -10 11 -46 -38 -49 -66 -1 -14 -4 13 -7 60 -3 47 -4 93 -2 103 5 24 29
21 33 -5 4 -28 38 -34 38 -6 0 14 -5 18 -16 14 -13 -5 -15 -1 -12 19 3 14 1
25 -4 25 -9 0 -5 86 4 96 9 8 -12 88 -24 95 -16 10 -5 134 14 156 11 12 14 28
11 46 -7 38 -23 45 -23 10 0 -22 -2 -25 -10 -13 -5 8 -12 15 -16 15 -4 0 -8
20 -9 45 -1 25 -5 66 -10 93 -6 40 -5 47 9 47 14 0 16 -6 11 -34 -4 -20 -2
-36 4 -40 7 -5 11 2 11 18 0 13 5 26 11 28 19 6 0 48 -21 48 -10 0 -21 -4 -25
-10z m45 -455 c0 -13 -4 -27 -10 -30 -6 -4 -10 8 -10 30 0 22 4 34 10 30 6 -3
10 -17 10 -30z m-63 -992 c-3 -10 -5 -2 -5 17 0 19 2 27 5 18 2 -10 2 -26 0
-35z"/>
<path d="M7108 3155 c-8 -13 -4 -173 4 -195 17 -43 24 -112 33 -335 3 -82 8
-188 10 -235 3 -47 7 -150 10 -230 7 -214 24 -521 30 -550 15 -77 23 -125 21
-127 -8 -8 -56 25 -60 41 -7 25 -31 15 -31 -14 0 -19 8 -25 50 -36 42 -10 52
-10 64 1 11 11 12 20 3 42 -16 42 -25 109 -28 203 -1 47 -7 148 -13 225 -6 77
-12 214 -15 305 -2 91 -10 289 -16 440 -16 353 -17 401 -7 424 5 13 11 15 20
8 8 -7 18 -7 27 -2 10 6 21 4 32 -7 22 -20 36 -10 17 13 -8 10 -22 14 -40 10
-19 -4 -29 0 -33 11 -6 14 -9 14 -31 -1 -30 -20 -33 -20 -37 2 -2 9 -6 13 -10
7z"/>
<path d="M2443 3088 c-6 -7 -13 -98 -17 -201 -4 -103 -14 -241 -22 -305 -16
-133 -66 -666 -63 -679 2 -4 -1 -33 -4 -63 -24 -198 -37 -344 -32 -360 9 -28
61 -46 97 -32 24 9 38 8 66 -4 33 -14 38 -13 62 4 22 17 28 17 46 5 29 -19 74
-2 74 28 0 21 1 21 25 -5 51 -55 108 -12 104 79 -6 138 -21 300 -30 316 -12
23 -17 123 -24 489 -3 162 -8 324 -10 360 -3 36 -7 130 -10 209 -5 144 -8 161
-26 161 -5 0 -7 -45 -3 -115 5 -84 4 -115 -4 -115 -8 0 -12 -23 -12 -67 0 -36
-3 -64 -6 -60 -3 3 -6 72 -6 154 1 200 -12 260 -21 98 -3 -66 -10 -133 -16
-150 l-9 -30 -1 33 c-1 17 -6 32 -12 32 -11 0 -7 109 8 180 4 23 2 30 -11 30
-13 0 -16 -13 -18 -77 -2 -115 -2 -116 -16 -121 -6 -2 -12 -10 -12 -18 0 -9
-4 -12 -10 -9 -5 3 -10 30 -11 58 -1 70 -17 33 -18 -41 -1 -33 -5 -51 -11 -47
-5 3 -10 15 -10 26 0 11 -4 18 -10 14 -5 -3 -7 39 -3 115 6 117 1 139 -24 108z
m250 -560 c4 -120 2 -148 -9 -152 -9 -4 -15 -24 -16 -63 -1 -32 -5 7 -9 87 -4
80 -10 169 -14 198 -4 35 -3 52 4 52 6 0 11 12 11 27 0 24 2 25 14 13 10 -11
15 -56 19 -162z m-201 70 c-3 -30 0 -48 7 -48 6 0 12 12 12 28 1 15 2 34 3 42
1 17 15 22 34 11 11 -6 13 -32 10 -114 -3 -58 -1 -110 3 -114 4 -4 1 -17 -7
-27 -8 -11 -14 -14 -14 -8 0 7 -4 12 -10 12 -6 0 -10 -35 -10 -84 0 -54 -4
-87 -12 -92 -8 -5 -10 15 -6 77 2 46 2 120 -2 164 -6 86 -11 77 -26 -50 -4
-33 -9 -50 -12 -37 -2 12 -8 20 -13 17 -5 -4 -9 6 -9 20 0 17 -4 24 -11 19 -8
-5 -10 3 -6 27 3 19 9 74 13 122 6 88 7 88 33 85 25 -3 26 -6 23 -50z m118 27
c12 7 18 -27 26 -142 5 -71 4 -103 -4 -103 -6 0 -14 -9 -17 -20 -5 -16 -9 -17
-18 -8 -8 9 -13 62 -15 158 -2 107 0 140 8 127 6 -9 15 -15 20 -12z m33 -345
c4 -42 3 -58 -3 -45 -8 19 -14 123 -6 114 2 -2 6 -33 9 -69z m-90 -195 c-4
-53 -2 -67 6 -59 7 6 13 52 14 112 1 56 6 102 10 102 5 0 7 -12 6 -27 -2 -16
0 -28 4 -28 3 0 14 -10 22 -22 14 -19 16 -53 13 -210 -2 -104 0 -216 5 -250 5
-41 4 -63 -3 -63 -5 0 -10 -15 -10 -32 0 -18 -3 -56 -6 -85 -6 -48 -8 -51 -27
-42 -17 10 -19 18 -14 70 8 67 -1 121 -17 116 -13 -4 -27 -65 -16 -72 4 -2 6
-15 4 -27 -13 -96 -14 -98 -39 -98 -33 0 -45 26 -45 101 0 35 0 73 -1 84 0 11
4 112 10 225 5 113 10 227 10 254 1 46 2 48 25 42 22 -5 24 -2 30 47 3 28 7
68 8 87 0 19 4 -8 8 -60 4 -52 5 -126 3 -165z m-96 198 c-3 -10 -5 -4 -5 12 0
17 2 24 5 18 2 -7 2 -21 0 -30z m150 15 c-3 -8 -6 -5 -6 6 -1 11 2 17 5 13 3
-3 4 -12 1 -19z m94 -343 c-4 -18 -5 -18 -11 4 -5 23 -6 23 -23 7 -20 -21 -19
-30 -17 119 1 55 5 102 11 103 5 2 9 13 9 23 0 11 5 17 10 14 6 -3 11 0 12 7
1 7 4 -48 8 -122 3 -74 3 -144 1 -155z m-262 268 c-3 -21 2 -34 11 -28 18 11
2 -216 -16 -236 -19 -21 -34 -229 -16 -229 7 0 11 28 11 78 0 43 5 89 10 102
8 19 9 10 6 -40 -3 -36 -7 -119 -10 -185 -8 -179 -16 -215 -49 -215 -41 0 -48
21 -42 117 10 134 15 163 32 156 11 -4 14 6 15 43 1 53 5 99 13 152 4 26 2 32
-11 30 -14 -3 -16 6 -14 50 1 29 7 67 12 85 5 17 9 51 9 75 0 24 4 41 9 37 5
-3 12 -1 16 5 7 12 16 13 14 3z m268 -435 c10 -11 14 -30 11 -55 -3 -23 0 -42
8 -48 7 -6 13 -44 16 -99 2 -75 0 -90 -14 -100 -29 -18 -42 9 -50 102 -4 48
-10 109 -14 135 -4 31 -2 53 5 60 6 6 11 20 12 32 0 14 2 16 6 5 3 -8 12 -23
20 -32z"/>
<path d="M2549 1990 c0 -8 0 -37 1 -64 1 -27 -2 -46 -8 -43 -5 4 -7 20 -4 37
2 18 0 30 -7 30 -11 0 -17 -59 -13 -127 1 -18 -2 -33 -7 -33 -5 0 -8 36 -7 81
0 44 -2 83 -6 86 -5 2 -8 -41 -8 -97 0 -65 4 -99 10 -95 19 12 43 -24 36 -56
-9 -45 15 -32 29 17 15 52 13 250 -3 266 -9 9 -12 9 -13 -2z m-12 -192 c-3 -8
-6 -5 -6 6 -1 11 2 17 5 13 3 -3 4 -12 1 -19z"/>
<path d="M2590 1855 c0 -56 4 -95 10 -95 6 0 10 38 9 95 0 52 -5 95 -10 95 -5
0 -9 -43 -9 -95z"/>
<path d="M7341 3091 c-8 -5 -20 -7 -28 -4 -7 3 -13 1 -13 -5 0 -5 27 -10 60
-10 33 0 60 3 60 9 0 5 -6 9 -12 9 -7 0 -22 3 -33 5 -11 3 -26 1 -34 -4z"/>
<path d="M2520 3031 c0 -45 12 -74 23 -54 7 14 -5 103 -14 103 -5 0 -9 -22 -9
-49z"/>
<path d="M7036 3031 c-5 -8 -2 -20 8 -29 17 -17 19 -9 7 22 -6 15 -10 16 -15
7z"/>
<path d="M7059 2873 c0 -5 -2 -15 -4 -24 -1 -9 1 -23 6 -30 6 -10 9 -2 9 24 0
20 -2 37 -5 37 -3 0 -5 -3 -6 -7z"/>
<path d="M7086 2765 c7 -48 23 -82 24 -48 0 12 3 28 6 37 4 10 1 16 -9 16 -9
0 -18 8 -21 18 -3 9 -3 -1 0 -23z"/>
<path d="M7112 2570 c0 -19 2 -27 5 -17 2 9 2 25 0 35 -3 9 -5 1 -5 -18z"/>
<path d="M7110 2505 c0 -11 5 -27 10 -35 8 -12 10 -12 10 5 0 11 -5 27 -10 35
-8 12 -10 12 -10 -5z"/>
<path d="M7031 2444 c0 -11 3 -14 6 -6 3 7 2 16 -1 19 -3 4 -6 -2 -5 -13z"/>
<path d="M7120 2358 c0 -15 5 -30 10 -33 13 -8 13 25 0 45 -8 12 -10 9 -10
-12z"/>
<path d="M7131 2258 c-1 -20 4 -40 9 -43 12 -7 12 19 0 55 -7 22 -8 21 -9 -12z"/>
<path d="M7076 2231 c-10 -15 2 -81 14 -81 5 0 7 14 3 30 -5 25 -3 29 11 24 9
-3 16 -1 16 5 0 6 -6 11 -14 11 -8 0 -16 5 -18 12 -3 9 -6 9 -12 -1z"/>
<path d="M7040 2152 c0 -23 4 -42 10 -42 10 0 8 66 -3 76 -4 4 -7 -11 -7 -34z"/>
<path d="M7135 2180 c3 -5 8 -10 11 -10 2 0 4 5 4 10 0 6 -5 10 -11 10 -5 0
-7 -4 -4 -10z"/>
<path d="M7122 2073 c-1 -7 -8 -13 -16 -13 -8 0 -16 -7 -20 -15 -9 -23 -36
-18 -37 8 -1 16 -3 14 -10 -11 -13 -43 -8 -124 8 -129 7 -3 9 4 6 18 -5 18 -3
21 10 16 13 -5 17 -1 17 14 0 11 4 18 9 15 4 -3 16 0 25 7 13 10 16 24 13 57
-2 25 -4 39 -5 33z"/>
<path d="M7133 1945 c0 -22 2 -30 4 -17 2 12 2 30 0 40 -3 9 -5 -1 -4 -23z"/>
<path d="M7351 1954 c0 -11 3 -14 6 -6 3 7 2 16 -1 19 -3 4 -6 -2 -5 -13z"/>
<path d="M7385 1950 c3 -5 8 -10 11 -10 2 0 4 5 4 10 0 6 -5 10 -11 10 -5 0
-7 -4 -4 -10z"/>
<path d="M7520 1939 c-7 -11 -9 -24 -5 -27 7 -7 35 25 35 40 0 16 -19 8 -30
-13z"/>
<path d="M6710 1940 c0 -5 7 -10 16 -10 8 0 12 5 9 10 -3 6 -10 10 -16 10 -5
0 -9 -4 -9 -10z"/>
<path d="M6750 1926 c0 -17 14 -29 23 -20 8 8 -3 34 -14 34 -5 0 -9 -6 -9 -14z"/>
<path d="M7416 1924 c-4 -9 -4 -19 -1 -22 2 -3 7 3 11 12 4 9 4 19 1 22 -2 3
-7 -3 -11 -12z"/>
<path d="M6790 1909 c0 -5 5 -7 10 -4 6 3 10 8 10 11 0 2 -4 4 -10 4 -5 0 -10
-5 -10 -11z"/>
<path d="M7081 1904 c0 -11 3 -14 6 -6 3 7 2 16 -1 19 -3 4 -6 -2 -5 -13z"/>
<path d="M7450 1910 c0 -5 5 -10 11 -10 5 0 7 5 4 10 -3 6 -8 10 -11 10 -2 0
-4 -4 -4 -10z"/>
<path d="M7100 1879 c0 -5 -4 -8 -9 -5 -4 3 -6 -6 -3 -20 2 -14 7 -22 10 -19
8 8 14 55 7 55 -3 0 -5 -5 -5 -11z"/>
<path d="M7040 1870 c0 -5 5 -10 10 -10 6 0 10 5 10 10 0 6 -4 10 -10 10 -5 0
-10 -4 -10 -10z"/>
<path d="M6495 1831 c-6 -11 9 -23 19 -14 9 9 7 23 -3 23 -6 0 -12 -4 -16 -9z"/>
<path d="M6530 1825 c0 -8 5 -15 10 -15 6 0 10 7 10 15 0 8 -4 15 -10 15 -5 0
-10 -7 -10 -15z"/>
<path d="M7497 1814 c-4 -4 -7 -19 -6 -33 l0 -26 10 24 c10 26 8 47 -4 35z"/>
<path d="M7447 1804 c-7 -7 14 -44 24 -44 9 0 -1 39 -11 45 -4 2 -10 2 -13 -1z"/>
<path d="M6698 1794 c-8 -8 3 -44 13 -44 5 0 8 9 6 20 -4 23 -11 32 -19 24z"/>
<path d="M7522 1780 c0 -14 2 -19 5 -12 2 6 2 18 0 25 -3 6 -5 1 -5 -13z"/>
<path d="M7570 1784 c0 -8 5 -12 10 -9 6 3 10 10 10 16 0 5 -4 9 -10 9 -5 0
-10 -7 -10 -16z"/>
<path d="M7730 1786 c0 -8 5 -18 10 -21 6 -3 10 3 10 14 0 12 -4 21 -10 21 -5
0 -10 -6 -10 -14z"/>
<path d="M7771 1784 c0 -11 3 -14 6 -6 3 7 2 16 -1 19 -3 4 -6 -2 -5 -13z"/>
<path d="M6737 1783 c-10 -9 -9 -43 1 -43 4 0 9 11 10 25 2 26 0 29 -11 18z"/>
<path d="M6777 1783 c-4 -3 -7 -13 -7 -22 1 -13 3 -13 11 2 11 19 8 33 -4 20z"/>
<path d="M7540 1774 c0 -8 5 -12 10 -9 6 4 8 11 5 16 -9 14 -15 11 -15 -7z"/>
<path d="M7140 1765 c0 -8 4 -15 10 -15 5 0 7 7 4 15 -4 8 -8 15 -10 15 -2 0
-4 -7 -4 -15z"/>
<path d="M6807 1750 c-4 -16 -1 -20 11 -18 19 4 23 29 6 35 -6 2 -14 -6 -17
-17z"/>
<path d="M6360 1721 c0 -11 5 -23 10 -26 6 -3 10 3 10 14 0 11 -4 23 -10 26
-5 3 -10 -3 -10 -14z"/>
<path d="M6320 1711 c0 -12 5 -21 10 -21 6 0 10 6 10 14 0 8 -4 18 -10 21 -5
3 -10 -3 -10 -14z"/>
<path d="M6266 1711 c-4 -7 -5 -15 -2 -18 9 -9 19 4 14 18 -4 11 -6 11 -12 0z"/>
<path d="M6397 1705 c-4 -8 -2 -17 3 -20 6 -4 10 2 11 12 0 16 1 16 8 -1 6
-15 10 -16 16 -7 4 8 2 17 -6 22 -20 12 -26 11 -32 -6z"/>
<path d="M6461 1704 c0 -11 3 -14 6 -6 3 7 2 16 -1 19 -3 4 -6 -2 -5 -13z"/>
<path d="M7610 1701 c0 -6 5 -13 10 -16 6 -3 10 1 10 9 0 9 -4 16 -10 16 -5 0
-10 -4 -10 -9z"/>
<path d="M7140 1670 c6 -11 15 -20 20 -20 6 0 5 9 -2 20 -7 11 -16 20 -21 20
-4 0 -3 -9 3 -20z"/>
<path d="M7360 1680 c0 -5 5 -10 10 -10 6 0 10 5 10 10 0 6 -4 10 -10 10 -5 0
-10 -4 -10 -10z"/>
<path d="M7320 1671 c0 -5 5 -13 10 -16 6 -3 10 -2 10 4 0 5 -4 13 -10 16 -5
3 -10 2 -10 -4z"/>
<path d="M7390 1660 c-6 -11 -7 -20 -2 -20 6 0 12 9 15 20 3 11 3 20 1 20 -2
0 -8 -9 -14 -20z"/>
<path d="M7477 1663 c-3 -5 -1 -17 4 -28 7 -17 8 -17 8 8 1 27 -4 34 -12 20z"/>
<path d="M7430 1645 c0 -8 4 -15 10 -15 5 0 7 7 4 15 -4 8 -8 15 -10 15 -2 0
-4 -7 -4 -15z"/>
<path d="M6665 1633 c4 -10 10 -28 12 -40 3 -13 9 -23 14 -23 5 0 7 6 5 13 -3
6 -7 24 -10 40 -4 15 -11 27 -17 27 -7 0 -8 -7 -4 -17z"/>
<path d="M7114 1637 c-8 -23 2 -33 45 -41 27 -5 31 -4 22 7 -6 8 -7 17 -3 22
4 4 -3 4 -15 1 -15 -5 -24 -2 -32 11 -9 17 -10 17 -17 0z"/>
<path d="M7076 1631 c-4 -7 -5 -15 -2 -18 9 -9 19 4 14 18 -4 11 -6 11 -12 0z"/>
<path d="M6717 1605 c-4 -8 -2 -17 3 -20 6 -4 10 3 10 14 0 25 -6 27 -13 6z"/>
<path d="M6747 1590 c-3 -11 -1 -20 4 -20 5 0 9 9 9 20 0 11 -2 20 -4 20 -2 0
-6 -9 -9 -20z"/>
<path d="M7309 1560 c-5 -55 -4 -68 7 -58 3 3 4 30 2 59 l-3 54 -6 -55z"/>
<path d="M7032 1568 c1 -18 -3 -33 -10 -36 -17 -5 -15 -22 3 -22 9 0 15 -9 15
-22 0 -34 14 -52 27 -36 17 22 21 53 6 66 -7 7 -13 28 -13 47 0 25 -5 35 -15
35 -11 0 -15 -9 -13 -32z"/>
<path d="M7346 1549 c-9 -28 -15 -53 -12 -56 3 -3 8 0 10 8 20 64 27 91 24 94
-2 2 -12 -19 -22 -46z"/>
<path d="M6270 1571 c0 -11 5 -23 10 -26 6 -3 10 3 10 14 0 11 -4 23 -10 26
-5 3 -10 -3 -10 -14z"/>
<path d="M6340 1576 c0 -9 5 -16 10 -16 6 0 10 4 10 9 0 6 -4 13 -10 16 -5 3
-10 -1 -10 -9z"/>
<path d="M7272 1560 c0 -19 2 -27 5 -17 2 9 2 25 0 35 -3 9 -5 1 -5 -18z"/>
<path d="M7401 1572 c-17 -31 -13 -40 5 -14 9 13 14 26 11 29 -3 2 -10 -4 -16
-15z"/>
<path d="M7607 1568 c-3 -12 -2 -29 3 -37 7 -12 9 -6 10 22 0 42 -5 48 -13 15z"/>
<path d="M7652 1553 c-6 -20 -7 -32 -2 -27 10 10 25 64 18 64 -3 0 -10 -16
-16 -37z"/>
<path d="M6370 1559 c0 -11 5 -17 10 -14 6 3 10 13 10 21 0 8 -4 14 -10 14 -5
0 -10 -9 -10 -21z"/>
<path d="M7555 1543 c7 -30 13 -39 19 -32 8 8 -6 59 -16 59 -6 0 -7 -11 -3
-27z"/>
<path d="M7780 1549 c-24 -7 -24 -7 -2 -8 27 -1 30 -27 4 -33 -15 -4 -18 -12
-14 -37 2 -17 9 -31 14 -31 6 0 7 11 4 25 -5 20 -1 31 20 48 21 18 24 25 13
33 -8 6 -25 8 -39 3z"/>
<path d="M6424 1525 c-2 -26 11 -34 19 -12 5 14 -2 37 -12 37 -3 0 -7 -11 -7
-25z"/>
<path d="M7420 1535 c0 -8 2 -15 4 -15 2 0 6 7 10 15 3 8 1 15 -4 15 -6 0 -10
-7 -10 -15z"/>
<path d="M7456 1535 c-9 -26 -7 -32 5 -12 6 10 9 21 6 23 -2 3 -7 -2 -11 -11z"/>
<path d="M7676 1534 c-3 -9 -6 -23 -6 -31 0 -13 3 -13 15 -3 16 13 21 50 6 50
-5 0 -12 -7 -15 -16z"/>
<path d="M8124 1533 c-18 -57 -21 -60 -31 -24 l-9 34 -22 -34 -22 -34 0 28 c0
43 -15 31 -15 -13 -1 -49 21 -55 36 -10 12 32 29 32 29 -1 0 -26 14 -24 32 4
22 34 28 56 17 62 -5 4 -12 -2 -15 -12z"/>
<path d="M7957 1530 c-3 -8 -8 -24 -10 -35 -3 -15 -5 -13 -6 8 -1 32 -17 36
-26 7 -7 -23 -25 -27 -25 -5 0 8 -4 15 -9 15 -12 0 -6 -63 7 -68 5 -1 13 1 16
7 3 5 15 7 26 4 15 -4 22 2 30 23 6 15 9 35 7 43 -3 14 -5 14 -10 1z"/>
<path d="M6545 1503 c9 -37 23 -53 46 -53 15 0 19 7 16 35 -2 37 -17 49 -17
15 0 -28 -18 -25 -26 5 -3 14 -11 25 -16 25 -6 0 -7 -11 -3 -27z"/>
<path d="M6636 1514 c-11 -28 -6 -62 8 -67 15 -6 26 12 26 41 0 13 -3 13 -16
-4 -15 -18 -15 -17 -10 14 6 34 2 42 -8 16z"/>
<path d="M7430 1491 c0 -12 5 -21 10 -21 6 0 10 6 10 14 0 8 -4 18 -10 21 -5
3 -10 -3 -10 -14z"/>
<path d="M6300 1491 c0 -28 25 -69 50 -85 25 -14 28 -20 20 -36 -13 -24 -13
-37 0 -24 6 6 12 30 14 55 4 37 3 41 -8 27 -17 -23 -27 -12 -20 21 4 22 4 23
-6 8 -14 -22 -30 -13 -30 19 0 13 -4 24 -10 24 -5 0 -10 -4 -10 -9z"/>
<path d="M6722 1465 c-14 -29 2 -34 18 -6 12 24 13 31 2 31 -5 0 -14 -11 -20
-25z"/>
<path d="M6773 1475 c-9 -24 0 -25 27 -5 l25 20 -23 0 c-12 0 -25 -7 -29 -15z"/>
<path d="M8175 1460 c3 -5 8 -10 11 -10 2 0 4 5 4 10 0 6 -5 10 -11 10 -5 0
-7 -4 -4 -10z"/>
<path d="M6210 1443 c2 -18 36 -77 48 -81 15 -5 16 24 1 33 -5 4 -14 18 -19
31 -9 22 -31 34 -30 17z"/>
<path d="M7480 1436 c0 -8 5 -18 10 -21 6 -3 10 3 10 14 0 12 -4 21 -10 21 -5
0 -10 -6 -10 -14z"/>
<path d="M7521 1434 c0 -11 3 -14 6 -6 3 7 2 16 -1 19 -3 4 -6 -2 -5 -13z"/>
<path d="M6473 1423 c-3 -10 -8 -21 -10 -25 -2 -4 6 -6 17 -5 12 1 20 8 20 19
0 24 -19 33 -27 11z"/>
<path d="M6113 1405 c-7 -20 1 -28 32 -32 23 -3 24 -2 13 22 -13 28 -36 33
-45 10z"/>
<path d="M6290 1385 c0 -14 2 -25 4 -25 2 0 6 11 8 25 3 14 1 25 -3 25 -5 0
-9 -11 -9 -25z"/>
<path d="M6985 1390 c-4 -7 2 -21 14 -33 27 -27 33 -19 11 16 -12 19 -20 25
-25 17z"/>
<path d="M7081 1373 c0 -25 1 -26 9 -8 12 27 12 35 0 35 -5 0 -10 -12 -9 -27z"/>
<path d="M7116 1377 c-5 -15 -6 -31 -2 -34 11 -11 18 5 14 34 l-4 28 -8 -28z"/>
<path d="M7156 1384 c-9 -22 -7 -54 2 -54 4 0 8 16 9 35 1 38 -2 43 -11 19z"/>
<path d="M7040 1370 c0 -11 4 -20 9 -20 6 0 9 9 8 20 -1 11 -5 20 -9 20 -4 0
-8 -9 -8 -20z"/>
<path d="M7197 1373 c-4 -3 -7 -11 -7 -17 0 -6 5 -5 12 2 6 6 9 14 7 17 -3 3
-9 2 -12 -2z"/>
<path d="M7601 931 c-25 -3 -46 -12 -48 -18 -4 -10 15 -11 76 -6 l80 6 41 -40
c37 -38 40 -45 40 -95 0 -65 -24 -103 -70 -113 -39 -9 -38 -23 1 -27 47 -5 69
-52 69 -149 0 -106 -17 -145 -72 -160 -50 -13 -103 -6 -129 17 -18 16 -19 16
-19 1 0 -20 -19 -23 -21 -4 -2 21 -1 87 4 277 3 102 3 199 0 215 -6 40 -35 78
-57 74 -15 -4 -14 -8 10 -39 l26 -35 -6 -225 c-7 -244 -11 -280 -32 -280 -27
0 -14 -20 14 -21 101 -4 211 -2 234 4 49 13 73 75 73 189 0 85 -3 100 -23 127
l-23 32 22 30 c14 21 23 51 27 94 5 63 4 65 -30 97 -68 63 -73 65 -187 49z"/>
<path d="M6642 900 c-31 -13 -37 -35 -18 -62 14 -20 16 -58 16 -268 -1 -225 0
-245 17 -258 19 -13 60 -9 78 9 6 6 10 70 10 152 0 86 3 145 10 149 22 17 72
8 95 -17 22 -23 23 -29 16 -122 -8 -123 -2 -157 32 -173 24 -10 29 -9 51 16
24 28 24 30 17 178 -7 163 -11 172 -70 203 -17 9 -56 17 -89 18 -32 2 -61 6
-65 9 -3 4 -8 37 -10 74 -6 92 -29 116 -90 92z m56 -22 c5 -7 12 -43 14 -80 2
-38 8 -72 13 -77 6 -5 37 -12 70 -14 80 -6 124 -24 136 -54 5 -14 12 -85 16
-159 6 -138 0 -170 -33 -157 -11 4 -14 31 -14 133 0 121 -1 128 -25 154 -25
27 -68 33 -125 17 l-24 -7 -1 -146 c0 -80 -3 -150 -8 -154 -4 -4 -17 -2 -30 5
-22 12 -22 13 -20 239 1 172 -2 236 -12 264 -11 28 -11 38 -2 41 21 9 34 7 45
-5z"/>
<path d="M2603 872 c-17 -17 -17 -63 0 -86 12 -16 25 -18 86 -14 l73 4 -4
-167 c-4 -178 -9 -199 -54 -199 -30 0 -35 10 -36 72 -1 59 -19 98 -47 98 -30
0 -41 -23 -48 -103 -10 -129 23 -178 130 -195 135 -21 148 2 156 288 l6 205
35 3 c39 4 50 15 50 53 0 48 -20 54 -183 54 -111 0 -154 -3 -164 -13z m315
-38 c3 -18 -3 -23 -41 -28 l-44 -7 -2 -192 c-3 -290 -15 -321 -112 -306 -100
16 -129 58 -121 172 3 48 9 70 19 74 23 9 32 -16 26 -69 -11 -88 52 -131 107
-73 23 25 24 34 28 185 3 88 2 171 -2 185 -6 24 -10 25 -75 25 -65 0 -69 1
-73 25 -3 13 -1 26 4 27 4 2 70 3 146 3 132 0 137 -1 140 -21z"/>
<path d="M6330 880 c-102 -3 -191 -9 -197 -13 -19 -12 -16 -92 4 -108 10 -9
40 -14 77 -14 l61 0 0 -206 c0 -231 2 -239 65 -239 57 0 61 14 58 248 l-3 202
63 0 c37 0 75 6 92 15 26 14 30 21 30 60 0 45 -19 68 -52 63 -7 -1 -96 -5
-198 -8z m218 -26 c11 -20 3 -74 -12 -76 -6 0 -39 -2 -73 -2 -97 -2 -96 2 -97
-238 -1 -189 -2 -203 -20 -206 -10 -2 -23 1 -28 6 -6 6 -11 91 -12 209 0 109
-5 204 -9 211 -5 7 -31 12 -67 12 -50 0 -61 3 -70 21 -6 11 -10 30 -8 42 3 22
6 22 181 24 98 1 181 4 185 7 10 10 21 7 30 -10z"/>
<path d="M1912 867 c-9 -11 -9 -22 0 -47 8 -24 9 -101 5 -265 -3 -127 -4 -241
0 -253 7 -30 48 -29 67 0 10 15 17 66 21 147 3 69 8 128 11 133 3 4 18 8 34 8
37 0 39 -9 45 -150 5 -129 16 -154 59 -131 31 17 36 45 36 196 l0 123 -37 23
c-21 12 -58 25 -83 28 l-45 6 -7 79 c-4 44 -13 85 -20 92 -21 20 -73 27 -86
11z m72 -43 c3 -9 6 -51 6 -95 l0 -79 64 0 c53 0 67 -4 90 -25 25 -23 26 -28
26 -134 0 -112 -13 -181 -30 -151 -4 8 -11 65 -14 125 -9 135 -19 155 -79 155
-24 0 -48 -5 -55 -12 -8 -8 -12 -52 -13 -128 -1 -121 -7 -161 -26 -167 -8 -3
-11 62 -10 239 0 134 -3 253 -7 266 -6 19 -4 22 17 22 14 0 28 -7 31 -16z"/>
<path d="M1476 850 c-3 -8 -1 -35 2 -60 l7 -45 65 0 64 0 -1 -224 c-1 -132 2
-232 8 -243 11 -21 57 -24 82 -6 25 19 30 48 31 218 3 261 1 246 37 259 18 6
44 11 59 11 15 0 33 7 40 15 14 16 5 71 -13 82 -7 5 -94 8 -195 8 -153 0 -183
-2 -186 -15z m364 -42 c0 -13 -13 -18 -55 -23 -30 -4 -60 -13 -66 -21 -8 -10
-11 -82 -12 -230 0 -173 -3 -218 -14 -230 -18 -17 -28 -18 -40 -1 -12 14 -11
416 1 435 17 28 -10 45 -75 46 -58 1 -64 3 -67 23 l-3 22 165 -2 c148 -2 166
-4 166 -19z"/>
<path d="M7647 863 c36 -7 63 -50 63 -98 0 -38 -3 -44 -30 -55 -16 -7 -30 -16
-30 -21 0 -16 65 19 78 42 18 34 8 100 -18 121 -12 10 -36 17 -54 17 -23 -1
-25 -3 -9 -6z"/>
<path d="M7604 831 c3 -18 6 -62 6 -98 0 -40 4 -62 10 -58 17 10 12 148 -6
171 -15 18 -15 17 -10 -15z"/>
<path d="M8273 783 c-20 -7 -15 -22 5 -17 49 13 82 -69 82 -205 0 -107 6 -123
58 -142 68 -26 93 23 98 194 2 73 7 133 12 135 5 1 15 -4 22 -13 9 -11 11 -50
8 -147 -3 -111 -7 -140 -25 -173 -12 -22 -29 -66 -37 -97 -25 -87 -104 -140
-178 -120 -44 12 -92 -2 -112 -33 -21 -32 -32 -32 -38 0 -4 19 2 32 25 51 28
23 36 25 101 21 65 -4 74 -3 100 20 19 16 29 34 30 56 1 28 -4 34 -46 54 -27
13 -49 31 -53 44 -4 13 -9 80 -10 150 -2 113 -5 131 -24 158 -13 17 -26 31
-30 31 -19 0 -18 -15 2 -42 20 -27 22 -41 22 -162 0 -166 5 -177 108 -210 21
-7 22 -25 3 -52 -12 -15 -31 -20 -105 -24 -83 -5 -93 -8 -121 -35 -33 -32 -38
-60 -14 -93 14 -21 44 -31 44 -14 0 4 12 20 27 36 24 26 30 28 79 23 78 -8
122 8 175 63 36 36 49 59 59 101 6 30 19 70 28 89 22 47 29 274 10 310 -15 28
-59 38 -76 18 -6 -8 -12 -64 -13 -137 -1 -68 -4 -135 -8 -150 -9 -33 -40 -38
-71 -13 -22 18 -24 26 -22 103 4 123 -11 174 -59 205 -21 13 -40 24 -41 23 -2
0 -9 -3 -15 -6z"/>
<path d="M7929 747 c-42 -28 -60 -71 -38 -92 13 -13 19 -12 56 6 59 29 80 20
85 -37 4 -56 -8 -65 -67 -51 -37 9 -47 7 -73 -12 -89 -63 -46 -231 59 -231 12
0 39 10 61 22 l39 22 23 -28 c20 -26 27 -28 59 -22 27 5 41 15 52 36 20 40 19
47 -12 75 -27 23 -28 26 -28 132 -1 156 -18 183 -131 197 -43 5 -56 3 -85 -17z
m148 -23 c31 -20 44 -79 41 -185 l-3 -91 33 -28 c30 -24 32 -31 22 -49 -6 -12
-23 -27 -38 -32 -27 -10 -36 -5 -62 41 -7 13 -15 12 -54 -8 -61 -29 -79 -28
-109 8 -33 39 -40 63 -33 114 8 53 29 66 86 56 24 -4 54 -4 67 1 20 7 23 15
23 62 0 29 -5 58 -12 65 -19 19 -82 15 -103 -8 -10 -11 -22 -17 -26 -14 -14 8
-10 54 4 54 8 0 22 9 32 20 16 17 26 20 64 14 25 -3 56 -12 68 -20z"/>
<path d="M7983 512 c-41 -2 -56 -8 -68 -25 -32 -46 -12 -107 36 -107 57 0 120
86 91 125 -4 6 -31 9 -59 7z m41 -38 c14 -36 -40 -81 -75 -63 -18 9 -33 54
-24 69 11 17 92 12 99 -6z"/>
<path d="M7093 718 c-51 -55 -58 -75 -57 -178 1 -105 14 -148 63 -194 59 -57
167 -43 201 24 28 55 26 88 -6 102 -24 11 -29 9 -56 -21 -37 -42 -66 -39 -93
11 -24 45 -17 54 45 62 95 12 97 14 106 95 6 55 -12 103 -45 121 -11 5 -44 10
-73 10 -48 0 -58 -4 -85 -32z m164 -11 c19 -19 28 -94 15 -128 -9 -22 -18 -27
-67 -33 -68 -8 -95 -20 -95 -44 0 -19 36 -83 54 -94 24 -16 55 -7 79 23 46 59
78 9 38 -58 -23 -37 -50 -47 -97 -39 -45 9 -90 49 -105 94 -7 20 -13 78 -13
127 -1 101 11 131 65 164 34 21 100 15 126 -12z"/>
<path d="M7135 659 c-35 -43 -30 -63 19 -67 58 -5 85 5 92 34 8 32 -20 64 -57
64 -18 0 -36 -10 -54 -31z m93 -29 c-4 -17 -65 -27 -80 -12 -15 15 8 50 34 54
26 4 50 -18 46 -42z"/>
<path d="M2990 665 c-27 -10 -36 -20 -41 -44 -10 -48 11 -64 56 -45 49 20 70
18 83 -11 25 -54 -15 -83 -89 -64 -48 12 -51 12 -75 -12 -19 -19 -27 -40 -31
-83 -5 -53 -4 -59 22 -86 35 -36 58 -37 110 -5 22 13 43 25 47 25 3 0 15 -15
26 -34 23 -39 65 -52 100 -30 25 17 23 39 -8 84 -17 23 -17 32 -5 113 18 118
8 153 -55 185 -49 24 -87 26 -140 7z m111 -25 c59 -17 70 -52 56 -177 -11
-100 -10 -103 11 -126 37 -40 24 -66 -23 -45 -17 7 -28 22 -32 41 -3 16 -11
31 -18 34 -7 2 -38 -10 -70 -28 -49 -28 -59 -30 -80 -19 -39 21 -44 95 -10
147 12 17 21 22 33 17 93 -40 175 16 137 95 -15 32 -18 33 -58 28 -23 -2 -49
-6 -57 -8 -9 -3 -15 3 -15 16 0 30 62 43 126 25z"/>
<path d="M2939 427 c-7 -16 -7 -31 0 -51 10 -24 15 -27 42 -21 50 11 96 43
102 70 5 29 4 29 -22 13 -15 -9 -25 -9 -46 0 -39 18 -64 15 -76 -11z m64 -8
c32 -17 32 -18 11 -34 -27 -20 -52 -18 -59 5 -12 37 9 49 48 29z"/>
<path d="M3273 667 c-28 -14 -29 -23 -3 -37 18 -10 20 -21 20 -143 0 -129 1
-133 26 -160 22 -24 33 -28 72 -26 55 4 72 -14 56 -58 -9 -28 -10 -28 -113
-33 -93 -5 -105 -7 -122 -29 -22 -27 -25 -64 -5 -80 10 -8 25 -6 60 10 40 17
59 20 119 14 72 -7 72 -7 104 27 48 49 60 90 62 203 0 55 6 141 12 192 12 101
10 118 -18 125 -43 11 -55 -14 -60 -124 -6 -138 -8 -148 -37 -148 -39 0 -51
26 -56 126 -5 73 -10 100 -26 121 -23 30 -56 38 -91 20z m80 -53 c11 -23 17
-60 17 -109 0 -77 12 -120 38 -130 17 -6 80 4 87 15 2 4 7 63 11 131 3 68 7
126 9 128 2 2 12 1 21 -3 13 -5 15 -15 10 -49 -15 -101 -26 -217 -26 -280 0
-93 -30 -164 -74 -175 -17 -5 -45 -4 -62 1 -35 11 -120 1 -129 -14 -11 -17
-45 -10 -45 10 0 42 25 51 118 45 79 -6 89 -4 115 16 19 15 27 30 27 54 0 50
-21 71 -70 71 -34 0 -46 5 -63 27 -18 24 -20 41 -18 147 1 94 -2 123 -14 134
-11 12 -12 16 -2 20 21 7 33 -2 50 -39z"/>
<path d="M2272 642 c-50 -53 -67 -185 -36 -276 19 -55 51 -75 129 -78 63 -2
97 29 93 87 -3 33 -7 41 -26 43 -15 2 -33 -5 -48 -19 -20 -19 -28 -21 -48 -11
-30 14 -41 59 -15 67 11 4 24 3 30 0 16 -10 76 4 94 21 20 21 19 95 -2 132
-22 38 -43 51 -98 59 -40 5 -47 3 -73 -25z m135 -31 c25 -30 38 -79 28 -110
-6 -18 -14 -21 -69 -21 -66 0 -86 -11 -86 -46 0 -29 37 -74 62 -74 11 0 33 9
49 21 50 35 69 -2 23 -48 -21 -21 -32 -24 -61 -20 -68 11 -103 69 -103 169 0
136 89 209 157 129z"/>
<path d="M2304 586 c-8 -14 -14 -35 -12 -48 2 -18 10 -23 43 -24 55 -2 75 10
75 47 0 22 -6 32 -26 39 -41 16 -62 12 -80 -14z m84 -30 c3 -23 0 -28 -13 -22
-9 3 -25 6 -36 6 -12 0 -19 7 -19 18 0 26 10 33 40 30 19 -2 26 -9 28 -32z"/>
<path d="M7597 576 c-3 -8 -3 -23 -1 -33 3 -11 1 -44 -4 -74 -10 -51 -3 -81
16 -77 4 1 15 -2 24 -6 28 -13 60 -2 82 27 25 34 30 134 7 160 -18 22 -116 24
-124 3z m102 -37 c23 -67 3 -139 -38 -139 -32 0 -41 22 -41 97 l0 73 34 0 c29
0 36 -4 45 -31z"/>
<path d="M8675 461 c-24 -5 -30 -13 -37 -46 -16 -75 13 -109 73 -86 26 9 39
42 39 97 0 19 -28 48 -42 43 -2 -1 -16 -4 -33 -8z m39 -37 c9 -24 7 -38 -8
-59 -12 -16 -16 -17 -30 -6 -9 8 -16 28 -16 47 0 29 3 34 24 34 13 0 27 -7 30
-16z"/>
<path d="M3670 381 c-14 -26 -13 -64 2 -79 7 -7 29 -12 50 -12 33 0 38 3 44
28 3 15 7 33 10 40 8 28 -8 42 -52 42 -33 0 -46 -5 -54 -19z m80 -30 c0 -36
-8 -41 -37 -30 -27 10 -31 46 -5 52 36 10 42 7 42 -22z"/>
</g>
</svg>
