<?xml version="1.0" standalone="no"?>
<!DOCTYPE svg PUBLIC "-//W3C//DTD SVG 20010904//EN"
 "http://www.w3.org/TR/2001/REC-SVG-20010904/DTD/svg10.dtd">
<svg version="1.0" xmlns="http://www.w3.org/2000/svg"
 width="1000.000000pt" height="244.000000pt" viewBox="0 0 1000.000000 244.000000"
 preserveAspectRatio="xMidYMid meet">
<metadata>
Created by potrace 1.16, written by Peter Selinger 2001-2019
</metadata>
<g transform="translate(0.000000,244.000000) scale(0.100000,-0.100000)"
fill="#000000" stroke="none">
<path d="M5656 2335 c4 -23 2 -35 -5 -35 -6 0 -11 -7 -11 -16 0 -10 6 -14 15
-10 9 3 15 0 15 -10 0 -8 -4 -13 -9 -10 -5 3 -12 -6 -16 -21 -5 -20 -2 -31 11
-40 16 -12 16 -13 -5 -13 -18 0 -22 -5 -20 -27 4 -58 0 -76 -15 -64 -22 19
-28 -24 -5 -45 21 -19 54 -11 46 11 -4 9 -1 12 9 8 10 -4 14 -22 14 -69 0 -35
-2 -64 -5 -64 -2 0 -27 9 -55 20 -64 25 -62 25 -54 -7 8 -37 39 -63 75 -63 26
0 29 -3 29 -35 0 -40 1 -40 -47 -20 -19 8 -46 15 -59 15 l-23 0 24 -51 c29
-64 40 -75 85 -86 l35 -9 3 -68 c2 -38 -1 -73 -6 -78 -12 -12 -102 73 -102 97
0 32 36 15 54 -25 18 -41 36 -53 36 -24 0 30 -40 84 -63 84 -22 0 -87 34 -87
46 0 3 12 3 28 0 23 -5 24 -5 9 5 -10 6 -30 12 -43 14 -13 1 -33 10 -44 20
-27 24 -27 3 0 -50 11 -22 18 -45 16 -52 -3 -6 3 -14 12 -18 14 -5 14 -7 2
-15 -10 -7 -11 -10 -2 -10 6 0 12 -6 12 -14 0 -23 63 -63 111 -70 l46 -7 7
-67 c3 -37 6 -85 6 -107 l0 -40 -16 31 c-23 47 -57 74 -116 94 l-53 17 1 52
c2 59 -11 68 -20 14 -10 -57 -10 -72 2 -147 12 -73 21 -87 56 -78 20 6 20 6 1
10 -36 7 -41 22 -8 22 42 0 49 -14 18 -38 -20 -16 -27 -34 -34 -88 -10 -64
-21 -86 -54 -97 -6 -2 3 -23 19 -48 29 -42 34 -69 13 -69 -5 0 -9 9 -9 19 0
10 -7 22 -16 25 -22 8 -24 8 -24 -8 0 -7 -6 -19 -14 -26 -8 -6 -13 -17 -11
-23 7 -18 -64 -109 -80 -103 -8 3 -16 0 -19 -7 -3 -9 -8 -8 -15 3 -21 30 -13
42 27 40 9 -1 20 45 31 135 7 61 13 75 45 109 39 43 45 75 20 101 -11 11 -15
27 -12 53 3 20 1 48 -3 62 -5 18 -7 9 -8 -32 l-1 -58 -38 0 c-26 0 -45 -7 -57
-20 -10 -11 -21 -20 -25 -20 -4 0 -11 32 -14 70 -9 87 2 104 63 94 36 -6 41
-4 55 22 l15 29 1 -29 c0 -44 7 -28 14 35 8 66 12 88 21 110 3 10 2 20 -4 24
-6 3 -12 30 -13 58 l-1 52 -6 -54 -6 -55 -55 -14 c-30 -7 -59 -18 -65 -23 -16
-16 -23 -10 -30 31 -4 25 -1 59 9 95 16 53 28 66 41 45 3 -5 -1 -10 -9 -10
-15 0 -18 -6 -20 -60 -3 -80 75 -59 116 31 17 39 25 99 13 99 -25 0 -137 -45
-144 -58 -7 -13 -11 -9 -16 20 -10 52 -1 61 51 53 38 -5 47 -3 69 19 21 21 25
35 25 81 0 52 -1 55 -25 55 -32 0 -72 -39 -80 -77 -9 -39 -20 -58 -38 -61 -13
-3 -15 8 -14 62 2 51 5 66 17 66 12 1 12 3 -2 14 -20 14 -24 36 -8 36 6 0 13
-7 16 -15 8 -19 24 -20 24 -1 0 8 -12 24 -26 35 -16 12 -24 27 -21 38 4 16 5
16 6 1 1 -22 31 -31 76 -22 40 7 47 24 10 24 -14 0 -25 5 -25 11 0 6 -6 9 -14
6 -8 -3 -17 1 -20 9 -4 9 -2 12 5 8 7 -4 10 1 7 12 -2 11 -13 20 -26 22 -27 4
-29 22 -2 22 11 0 20 4 20 9 0 13 -26 32 -33 24 -4 -3 -7 1 -7 11 0 13 5 16
20 11 23 -7 28 13 8 33 -6 6 -13 32 -14 58 -3 52 -15 70 -38 61 -12 -5 -13
-13 -6 -37 7 -24 6 -32 -6 -37 -18 -7 -18 -32 1 -39 20 -8 19 -26 -1 -22 -29
5 -26 -18 3 -32 24 -11 25 -14 10 -18 -13 -2 -17 -10 -14 -23 4 -14 1 -19 -10
-17 -8 2 -20 -4 -26 -14 -15 -22 7 -48 40 -48 15 0 23 -5 21 -12 -3 -7 -13
-13 -24 -13 -30 0 -32 -20 -1 -23 29 -4 37 -28 15 -50 -10 -10 -10 -17 0 -32
13 -22 17 -140 4 -140 -5 0 -24 18 -42 40 -18 22 -41 40 -49 40 -24 0 -21 -84
4 -138 17 -35 27 -45 61 -54 l41 -11 12 -91 c11 -89 8 -136 -10 -136 -5 0 -9
5 -9 10 0 6 -7 10 -15 10 -26 0 -36 35 -25 86 10 45 10 47 -22 75 -18 15 -46
33 -63 40 -16 6 -38 15 -47 20 -29 15 -30 12 -22 -63 5 -55 13 -81 32 -107 22
-30 29 -33 63 -28 31 4 41 1 52 -17 8 -11 24 -30 34 -41 11 -11 21 -29 22 -40
5 -55 5 -115 0 -115 -3 0 -3 -14 -1 -31 l5 -31 -27 17 c-20 14 -24 20 -14 26
11 7 11 9 0 9 -17 0 -44 64 -36 85 4 10 -8 29 -34 55 -35 35 -45 40 -86 40
-26 0 -56 5 -67 10 -31 17 -34 -12 -9 -83 29 -81 86 -137 139 -137 20 0 41 4
47 10 6 6 19 1 36 -15 15 -14 31 -25 36 -25 8 0 24 -200 16 -208 -1 -2 -19 9
-39 25 -25 19 -34 34 -31 47 6 22 -13 127 -25 140 -10 11 -66 -38 -74 -64 -4
-14 -15 -16 -59 -12 -29 2 -62 -1 -74 -7 -19 -10 -23 -6 -49 42 -16 28 -27 60
-25 70 4 21 30 22 60 1 20 -14 23 -14 28 1 4 9 -1 39 -10 68 -9 29 -13 62 -10
74 11 39 -19 71 -73 79 -27 5 -51 7 -55 6 -5 -1 -8 2 -8 7 0 12 54 51 69 51 6
0 11 6 11 14 0 7 7 19 15 26 8 7 15 19 15 28 0 10 -7 6 -20 -11 -11 -14 -20
-29 -20 -34 0 -10 -59 -37 -67 -30 -2 3 9 13 26 22 36 18 41 30 9 19 -20 -6
-21 -5 -9 10 7 9 20 16 27 16 8 0 14 7 14 15 0 24 -25 7 -59 -40 -18 -25 -26
-45 -20 -47 7 -2 3 -18 -10 -42 -12 -21 -19 -41 -16 -44 3 -4 10 0 15 8 11 18
87 14 118 -6 18 -12 22 -24 22 -64 0 -27 5 -61 10 -75 9 -24 8 -26 -7 -20 -10
5 -34 10 -53 13 -39 5 -58 21 -71 60 -9 26 -9 25 -4 -5 6 -43 -11 -42 -32 2
-9 19 -19 35 -22 35 -5 0 -3 292 2 297 1 0 20 4 41 7 22 4 46 11 53 18 31 25
73 172 55 190 -14 14 -114 -40 -127 -69 -15 -35 -35 -37 -35 -3 0 21 9 36 35
56 21 16 35 35 35 48 0 20 -1 20 -13 -3 -6 -13 -22 -31 -34 -39 -22 -14 -23
-13 -23 9 1 29 17 51 50 66 25 12 25 12 -7 12 -20 1 -33 -4 -33 -11 0 -9 -4
-8 -10 2 -14 21 -12 42 3 37 24 -9 45 11 39 38 -5 29 -28 28 -24 -1 1 -10 -7
-2 -19 19 -11 21 -18 46 -16 55 4 14 6 13 12 -5 7 -21 8 -21 31 -6 32 21 30
38 -8 76 l-31 32 6 -27 c4 -15 3 -30 -3 -33 -6 -4 -10 14 -9 47 1 29 3 45 6
36 8 -32 30 -21 25 12 -3 19 -10 30 -21 30 -13 0 -14 2 -2 9 12 8 12 12 -2 26
-16 15 -17 15 -19 -2 0 -10 -1 -26 0 -35 1 -10 -2 -18 -7 -18 -10 0 -9 -55 2
-66 12 -13 8 -42 -8 -48 -20 -7 -19 -33 3 -45 15 -9 15 -12 2 -21 -13 -9 -13
-12 3 -24 12 -9 17 -27 17 -60 0 -43 -2 -47 -22 -44 -31 4 -34 -20 -4 -28 14
-3 26 -11 26 -16 0 -6 -9 -8 -20 -5 -13 3 -20 0 -20 -10 0 -10 6 -12 20 -8 20
6 22 1 22 -75 0 -64 1 -63 -38 -33 -20 15 -53 33 -72 40 -32 11 -37 10 -50 -8
-10 -14 -21 -19 -37 -15 -24 6 -65 -18 -52 -30 4 -5 30 -1 56 9 27 9 52 17 56
17 4 0 4 -22 0 -49 -5 -38 -2 -57 13 -87 38 -72 84 -78 117 -14 9 17 17 30 18
30 5 0 7 -136 1 -152 -5 -17 -7 -17 -31 2 -14 11 -37 20 -52 20 -14 1 -44 7
-66 15 -21 8 -41 12 -43 10 -2 -2 6 -17 18 -33 12 -16 25 -54 29 -87 10 -70
42 -105 96 -105 19 0 36 -3 39 -8 2 -4 -4 -31 -14 -61 -11 -29 -26 -94 -35
-144 -22 -126 -34 -167 -47 -167 -16 0 -5 150 13 160 7 5 10 12 6 16 -21 21
-48 -63 -42 -130 2 -26 0 -56 -5 -66 -7 -13 -5 -27 5 -47 17 -33 19 -47 5 -38
-5 3 -10 -3 -10 -14 0 -12 -7 -21 -15 -21 -8 0 -15 6 -15 13 0 8 -3 7 -10 -3
-8 -13 -11 -12 -24 5 -9 11 -15 29 -16 40 0 30 11 65 19 60 4 -2 8 1 9 8 8 93
13 129 22 151 13 35 13 36 -4 36 -9 0 -15 -20 -20 -66 -7 -71 -27 -154 -36
-154 -14 0 -40 67 -40 105 0 24 -4 47 -10 50 -6 4 -10 -7 -10 -25 0 -22 -4
-30 -12 -26 -7 3 -20 9 -29 12 -23 8 -40 50 -33 82 4 19 3 23 -4 13 -8 -11
-18 -2 -46 41 -22 32 -34 61 -31 70 4 11 -1 18 -14 23 -26 8 -79 69 -87 99 -4
17 -13 23 -34 24 -16 0 -34 -6 -41 -14 -14 -17 2 -19 19 -2 7 7 12 8 12 3 0
-6 -20 -30 -45 -54 -37 -37 -47 -42 -60 -31 -8 7 -15 20 -15 30 0 25 -21 30
-69 18 -33 -8 -39 -13 -30 -24 6 -8 8 -21 5 -30 -5 -14 -4 -15 9 -4 17 14 80
6 91 -11 7 -13 -34 -59 -53 -59 -7 0 -14 12 -14 28 -2 26 -2 26 -6 2 -3 -14
-9 -29 -13 -34 -9 -9 -40 16 -40 33 0 5 -4 13 -10 16 -6 3 -9 -4 -8 -19 1 -13
6 -22 10 -20 22 14 16 -28 -9 -66 -23 -35 -29 -39 -31 -22 -2 12 5 33 15 49
10 15 12 24 6 20 -23 -14 -16 67 8 97 23 29 11 36 -14 9 -10 -12 -18 -48 -23
-106 -6 -74 -12 -95 -37 -133 -50 -76 -85 -80 -71 -8 5 28 10 35 25 31 11 -3
21 -1 24 3 3 5 -27 10 -66 12 -39 2 -73 0 -75 -3 -2 -4 -31 -7 -65 -8 -33 0
-64 -3 -70 -6 -5 -4 -18 -4 -28 0 -16 5 -20 19 -24 83 -3 42 -8 105 -11 140
-3 37 -2 62 4 62 6 0 10 6 10 13 -1 6 -10 1 -21 -12 -11 -13 -17 -31 -14 -40
8 -22 13 -159 7 -208 -4 -36 -8 -43 -33 -48 -16 -4 -34 -3 -41 2 -17 10 -337
12 -344 2 -2 -5 1 -17 8 -28 14 -22 47 -23 88 -1 13 7 46 14 73 15 l48 2 -7
-41 c-11 -64 -7 -128 10 -161 9 -17 16 -36 16 -42 0 -7 8 -13 18 -13 16 -1 16
-2 -1 -14 -23 -17 -7 -29 27 -20 14 3 31 19 39 37 l16 31 6 -27 c7 -26 31 -33
29 -9 -1 7 -2 21 -2 32 -1 11 -9 20 -17 20 -8 0 -15 9 -15 20 0 12 -7 20 -16
20 -12 0 -15 -6 -10 -26 6 -21 4 -25 -8 -21 -10 4 -16 1 -16 -9 0 -25 -21 -11
-42 27 -16 27 -18 46 -14 99 7 83 17 90 120 90 45 0 98 3 119 6 l37 7 0 -57
c0 -31 3 -56 8 -56 4 0 7 25 7 56 l0 57 53 2 53 3 -1 -37 c-3 -55 2 -61 9 -12
5 38 10 46 34 52 23 6 27 4 27 -13 0 -11 -11 -33 -25 -50 -14 -16 -25 -35 -25
-41 0 -6 11 4 24 21 18 25 25 29 29 18 4 -9 2 -18 -2 -20 -5 -3 -8 -32 -8 -64
0 -33 -3 -64 -7 -70 -4 -7 -29 -11 -58 -10 -61 1 -88 22 -81 62 7 34 26 28 34
-10 l7 -29 1 30 c2 61 -40 75 -52 17 -8 -41 12 -82 41 -82 13 0 22 -6 22 -15
0 -19 7 -19 26 0 17 17 44 20 44 5 0 -5 -9 -10 -20 -10 -24 0 -24 0 -7 -33 10
-20 17 -23 25 -15 9 9 17 7 32 -7 28 -25 38 -11 17 24 -9 16 -17 32 -17 35 0
9 118 7 124 -2 3 -5 -1 -26 -9 -48 -8 -21 -14 -55 -13 -74 0 -26 2 -29 5 -11
l5 25 17 -23 18 -23 -1 22 c-2 47 23 31 39 -24 19 -66 34 -66 27 0 -3 33 -1
45 7 40 6 -4 11 -34 10 -69 0 -34 -3 -56 -6 -49 -2 6 -10 12 -18 12 -7 0 -18
7 -25 15 -7 9 -15 13 -18 10 -3 -2 5 -13 18 -23 23 -19 41 -102 21 -102 -12 0
-24 37 -16 50 3 5 -1 10 -9 10 -9 0 -24 17 -35 38 -11 20 -20 33 -20 27 -1 -5
20 -48 44 -94 25 -45 45 -94 45 -107 0 -21 2 -23 14 -12 9 9 11 20 5 36 -5 13
-9 31 -8 40 1 23 30 -57 33 -90 1 -15 6 -31 10 -35 5 -4 5 12 1 37 -4 25 -6
57 -6 73 1 15 -3 27 -9 27 -5 0 -10 15 -9 33 0 27 2 29 10 12 9 -20 7 10 -7
120 -6 54 9 60 30 13 l15 -33 -6 33 c-4 26 -2 32 12 32 12 0 16 -6 13 -18 -3
-11 2 -23 13 -30 14 -9 17 -19 12 -48 -4 -26 -3 -35 5 -30 6 4 12 -5 15 -21 2
-16 3 0 1 35 -4 59 -3 62 19 62 12 0 33 7 45 16 34 24 38 10 14 -49 -12 -28
-27 -73 -34 -99 -7 -30 -15 -43 -20 -35 -9 14 0 -82 12 -128 5 -21 7 -8 7 45
-1 77 35 213 68 256 21 28 19 0 -5 -72 -11 -32 -19 -66 -16 -74 2 -10 4 -8 5
6 0 11 5 24 10 30 5 5 16 35 25 68 10 32 19 56 22 53 6 -6 -31 -174 -51 -230
-7 -20 -10 -35 -5 -32 5 3 11 -5 13 -17 3 -15 5 -10 6 14 0 20 7 41 14 45 7 4
17 20 24 34 18 41 97 142 101 129 2 -6 -5 -22 -17 -34 -26 -27 -81 -134 -81
-155 0 -9 9 3 20 26 33 74 97 160 124 167 28 7 44 30 63 91 16 51 16 82 1 88
-12 5 8 9 57 11 16 1 25 -12 42 -59 12 -33 23 -73 24 -90 1 -22 3 -24 6 -10 3
11 9 25 14 32 6 7 6 12 -2 15 -10 3 -49 91 -49 112 0 22 31 -20 40 -55 6 -22
16 -39 22 -39 7 0 9 -17 5 -52 -4 -38 -2 -58 8 -72 14 -19 15 -19 15 7 0 15 5
27 10 27 9 0 15 -34 11 -70 -1 -8 11 0 27 18 23 28 30 32 40 20 9 -11 8 -19
-3 -34 -8 -10 -15 -26 -15 -34 0 -8 8 1 19 20 19 36 38 40 33 7 -2 -10 -16
-43 -31 -75 -40 -81 -46 -102 -27 -102 9 0 16 6 16 14 0 23 18 29 89 28 56 -2
70 2 96 23 16 13 26 28 22 32 -5 4 -11 3 -15 -3 -14 -22 -48 -34 -60 -22 -9 9
-12 9 -12 0 0 -14 -38 -16 -59 -3 -11 7 -10 13 4 35 10 15 25 31 34 36 24 12
101 0 101 -16 0 -7 6 -11 13 -9 13 6 11 115 -3 115 -4 0 -6 -18 -3 -39 l5 -39
-54 5 c-48 4 -58 2 -86 -22 -18 -15 -32 -35 -32 -46 0 -10 -7 -19 -15 -19 -25
0 28 93 73 129 22 17 56 55 77 86 21 30 42 55 46 55 5 0 13 -16 18 -36 6 -20
25 -51 43 -68 19 -17 41 -43 50 -58 10 -14 27 -29 38 -33 11 -3 20 -12 20 -19
0 -12 54 -66 66 -66 3 0 18 -12 33 -27 21 -22 26 -33 20 -53 -10 -36 -10 -59
1 -35 5 11 11 29 15 40 l7 20 8 -20 c8 -19 9 -19 9 3 1 12 -3 22 -8 22 -14 0
-25 100 -12 113 8 8 11 -5 13 -49 l1 -59 7 45 c7 42 7 43 9 10 2 -56 12 -80
32 -80 12 0 16 -5 13 -15 -4 -8 -1 -15 4 -15 6 0 18 -8 28 -18 17 -16 58 -27
49 -12 -3 4 2 13 10 20 13 10 19 8 38 -12 17 -18 39 -27 83 -33 80 -10 115
-11 142 -1 18 6 22 4 22 -12 0 -11 -7 -37 -16 -58 -25 -60 -34 -94 -23 -94 5
0 9 11 9 23 0 13 9 34 20 47 36 41 40 147 5 133 -14 -5 -14 -2 -3 22 11 24 13
25 19 8 7 -16 8 -16 8 4 1 12 -6 23 -16 26 -14 4 -12 5 5 6 18 1 22 7 23 34 4
194 18 337 31 337 6 0 8 -27 6 -61 -2 -44 0 -56 7 -43 6 10 23 30 40 46 28 27
49 32 105 30 14 -1 40 3 57 9 18 6 42 8 53 4 16 -5 18 -9 7 -26 -16 -26 -30
-24 -22 4 4 12 -11 -6 -34 -40 -22 -35 -45 -63 -50 -63 -15 0 -37 33 -25 37 6
2 20 11 30 19 18 14 18 15 -3 4 -13 -6 -23 -8 -23 -5 0 3 -12 -3 -27 -12 -26
-17 -27 -17 -20 0 3 9 2 17 -3 17 -6 0 -10 -5 -10 -10 0 -6 -10 -15 -22 -20
-23 -9 -23 -9 2 -11 14 -1 29 -1 34 0 18 3 46 -11 46 -23 0 -8 -7 -20 -16 -27
-14 -11 -19 -9 -36 11 -18 23 -19 23 -13 4 4 -16 1 -21 -12 -19 -34 4 -63 17
-58 25 3 5 1 11 -3 14 -5 3 -12 -54 -16 -127 -3 -73 -9 -172 -13 -221 -4 -66
-3 -87 5 -82 7 4 12 24 12 46 l0 38 53 7 c28 4 57 11 62 15 6 5 27 11 48 15
32 6 36 5 31 -9 -3 -9 -12 -16 -20 -16 -8 0 -14 -5 -14 -11 0 -7 9 -9 23 -5
12 3 25 6 30 6 4 0 7 6 7 13 0 9 10 12 30 9 19 -3 30 0 30 8 0 8 -9 10 -24 6
-31 -8 -38 3 -20 29 8 10 14 15 14 10 0 -4 8 2 19 13 10 12 23 22 30 22 6 0
11 6 12 13 1 24 18 -29 18 -60 1 -25 5 -31 16 -27 9 4 15 0 15 -10 0 -9 8 -16
18 -15 10 0 12 3 5 6 -28 11 -13 40 27 52 22 6 40 16 40 22 0 6 4 8 9 5 5 -3
12 1 15 10 10 25 7 34 -9 34 -17 0 -20 16 -5 25 6 4 8 10 5 15 -3 5 -1 11 5
15 5 3 10 1 10 -5 0 -6 5 -8 10 -5 6 4 10 -7 10 -24 0 -39 8 -39 42 1 l27 33
1 -37 c0 -21 5 -38 11 -38 6 0 10 10 9 23 -5 55 0 87 14 87 10 0 16 19 22 68
3 37 17 91 30 119 21 50 27 55 101 89 43 20 81 42 85 48 6 8 8 8 8 -1 0 -15
105 39 138 72 13 13 33 27 43 30 10 4 19 12 19 19 0 8 6 19 14 25 12 10 15 7
19 -16 4 -28 9 46 10 160 1 31 5 57 9 57 5 0 20 -7 33 -16 29 -19 90 -11 81
12 -3 7 -1 16 4 19 27 17 -4 75 -38 75 -14 -1 -14 -3 3 -12 35 -20 44 -55 11
-42 -8 3 -17 0 -22 -7 -4 -8 -3 -10 5 -5 15 9 27 -22 13 -36 -11 -11 -55 -1
-47 12 3 4 -3 7 -13 6 -11 0 -18 7 -20 22 -2 12 1 22 7 22 6 0 11 -7 11 -15 0
-17 16 -20 25 -6 3 5 1 13 -5 16 -8 5 -8 11 0 20 9 11 7 12 -10 8 -11 -3 -27
-15 -35 -26 -13 -19 -14 -19 -38 9 -23 26 -24 30 -9 52 18 27 43 42 71 42 33
0 39 46 10 76 -56 55 -169 17 -203 -67 -22 -55 -20 -97 8 -146 14 -24 28 -62
31 -85 9 -59 -22 -104 -95 -140 -55 -27 -186 -56 -198 -44 -3 4 19 31 48 61
30 30 49 55 43 55 -6 0 -25 -17 -41 -38 -17 -20 -33 -34 -37 -31 -3 4 8 24 26
45 l33 39 -37 -34 c-20 -19 -36 -42 -34 -50 1 -9 -5 -16 -13 -16 -14 0 -21
-34 -10 -45 3 -3 3 -21 -1 -40 l-6 -35 -2 38 c-1 27 -5 36 -13 31 -10 -6 -10
-4 0 7 6 7 12 18 12 24 -1 5 -10 -1 -20 -14 -13 -15 -20 -18 -20 -9 0 8 10 23
21 34 36 32 91 127 93 157 1 20 -7 35 -24 48 -24 19 -29 19 -90 5 -36 -9 -91
-16 -122 -16 l-57 0 -10 37 c-13 46 -13 54 -2 50 4 -1 17 9 28 22 l19 23 12
-40 c10 -32 16 -39 31 -35 10 3 31 -3 45 -12 14 -10 26 -13 26 -8 0 11 66 33
99 33 36 0 35 27 -3 85 -40 59 -61 75 -100 75 -35 0 -33 9 12 53 34 34 42 37
65 28 16 -6 34 -26 44 -48 23 -48 64 -69 108 -55 18 5 38 6 45 2 6 -4 22 -5
35 -2 l24 4 -26 51 c-37 74 -62 105 -95 116 -34 12 -75 -2 -83 -29 -4 -12 -13
-16 -30 -12 -30 5 -30 6 -6 40 11 15 31 47 46 71 l27 43 22 -21 c31 -29 66
-26 114 8 43 32 59 51 43 51 -5 0 -13 -4 -16 -10 -3 -5 -18 -10 -33 -10 -26 1
-27 1 -7 17 l20 16 -20 -8 c-58 -22 -91 -11 -64 21 9 11 22 14 43 9 78 -16 96
-17 96 -6 0 6 -8 11 -19 11 -10 0 -38 7 -62 15 -29 11 -46 12 -53 5 -19 -19
-25 -10 -14 23 16 46 23 51 52 32 30 -20 117 -13 137 11 9 11 8 14 -4 14 -9 0
-19 -4 -22 -10 -8 -13 -86 -13 -105 0 -13 9 -12 13 5 26 15 11 32 14 68 9 32
-4 47 -2 43 4 -11 17 -76 24 -103 12 -14 -7 -27 -10 -29 -8 -7 6 26 100 42
122 12 17 17 18 35 7 16 -10 24 -10 44 5 15 12 22 24 19 36 -4 14 1 17 26 17
21 0 30 4 27 13 -2 6 -11 12 -20 12 -21 0 -41 20 -33 34 4 5 14 7 23 4 13 -5
15 -2 10 12 -5 12 -1 22 13 32 11 8 20 19 20 25 0 6 -3 8 -7 5 -3 -4 -12 -2
-20 5 -14 11 -28 4 -28 -15 0 -7 -7 -12 -15 -12 -10 0 -16 -12 -18 -32 -2 -21
-9 -33 -18 -33 -8 0 -12 5 -9 10 3 6 -1 10 -9 10 -20 0 -29 -17 -28 -51 0 -16
-4 -29 -9 -29 -5 0 -9 7 -9 15 0 8 -4 15 -10 15 -13 0 -13 -16 0 -40 8 -15 5
-31 -15 -69 -14 -28 -25 -58 -25 -68 -1 -23 -29 -74 -30 -53 0 17 -50 100 -60
100 -3 0 -11 -13 -18 -29 -14 -32 -6 -63 29 -112 22 -31 19 -75 -6 -112 -12
-17 -13 -16 -13 5 0 30 -24 89 -46 110 -9 9 -40 24 -69 33 -28 9 -58 19 -65
22 -19 8 -5 -111 19 -159 23 -45 60 -72 87 -64 23 8 47 -17 36 -36 -22 -37
-69 -88 -81 -88 -8 0 -11 -4 -8 -10 8 -12 -84 -120 -102 -120 -7 0 -13 -8 -13
-18 0 -22 -57 -74 -66 -60 -3 5 -1 15 5 21 17 17 13 72 -7 90 -27 24 -75 21
-99 -5 -16 -19 -20 -36 -19 -89 1 -39 7 -73 15 -82 7 -9 15 -34 17 -56 3 -38
2 -39 -31 -43 -35 -4 -97 22 -136 58 -19 17 -21 17 -53 -17 -22 -22 -36 -48
-39 -72 -4 -22 -2 -35 4 -32 5 4 9 13 9 21 0 8 5 14 10 14 6 0 10 -10 10 -22
1 -54 67 -87 118 -59 24 13 132 26 132 16 0 -4 -5 -26 -11 -51 -10 -40 -14
-44 -42 -44 -40 0 -116 -29 -140 -53 -10 -10 -24 -16 -30 -13 -7 3 -36 12 -65
21 -28 9 -56 24 -61 33 -5 9 -9 57 -10 106 -1 49 -2 92 -3 95 -2 25 4 79 11
90 7 11 13 11 32 -3 41 -28 94 -21 138 19 34 31 40 33 44 18 3 -10 5 14 5 52
0 39 -2 62 -5 52 -3 -13 -10 -16 -26 -11 -12 4 -24 10 -27 14 -9 13 -69 22
-100 15 -21 -5 -36 -18 -50 -43 -13 -27 -19 -32 -19 -17 0 11 -3 92 -5 180 -5
171 -2 200 20 191 8 -3 14 -1 14 4 0 17 38 11 49 -7 6 -10 11 -12 11 -5 0 6 6
12 13 12 22 0 41 44 43 98 1 29 5 64 8 77 7 26 0 26 -54 -2 -14 -7 -33 -13
-42 -13 -9 0 -20 -4 -23 -10 -3 -5 -17 -10 -31 -10 -22 0 -24 4 -24 44 0 61 8
76 39 76 28 0 61 29 95 83 27 44 15 61 -40 54 -42 -4 -45 -3 -41 15 5 17 2 19
-19 14 -13 -4 -24 -3 -25 1 0 5 -3 21 -5 36 -3 18 -1 26 5 22 12 -7 38 41 28
51 -4 4 -13 1 -22 -6 -8 -7 -15 -8 -15 -2 0 5 7 15 15 22 21 18 19 30 -6 30
-19 0 -20 2 -8 17 10 11 10 14 2 9 -7 -4 -13 -2 -13 3 0 6 7 11 15 11 8 0 15
7 15 15 0 8 -7 15 -16 15 -9 0 -14 6 -11 13 5 15 -10 47 -24 47 -6 0 -7 -14
-3 -35z m24 -206 c0 -18 -4 -28 -10 -24 -6 4 -8 10 -5 15 3 5 0 12 -6 16 -8 4
-7 9 2 15 19 12 19 12 19 -22z m-460 -29 c0 -5 -5 -10 -11 -10 -5 0 -7 5 -4
10 3 6 8 10 11 10 2 0 4 -4 4 -10z m550 -60 c24 -1 23 -1 -6 -14 -18 -8 -35
-19 -38 -25 -13 -21 -26 -11 -26 20 0 28 3 31 23 25 12 -3 33 -6 47 -6z m882
-39 c-3 -20 -8 -28 -18 -24 -17 6 -17 8 -2 33 18 28 25 25 20 -9z m-859 -12
c-21 -36 -30 -44 -60 -53 -33 -10 -28 6 7 26 17 9 30 23 30 29 0 7 -11 2 -25
-11 -31 -29 -33 -15 -3 17 12 13 32 23 45 23 l24 0 -18 -31z m-423 -93 c0 -27
-6 -51 -16 -60 -17 -18 -64 -22 -64 -6 0 6 9 10 19 10 21 0 37 17 27 27 -3 3
-12 0 -21 -7 -24 -20 -20 22 6 54 32 40 49 34 49 -18z m246 6 c-9 -8 -26 10
-26 26 1 15 2 15 15 -2 8 -11 13 -21 11 -24z m42 0 c2 -7 -3 -12 -12 -12 -9 0
-16 7 -16 16 0 17 22 14 28 -4z m-803 -84 c-8 -57 -19 -78 -41 -78 -19 0 -17
13 7 44 11 14 17 30 14 36 -9 14 -28 12 -22 -2 5 -16 -10 -48 -23 -48 -6 0
-10 12 -10 28 0 19 10 34 33 50 17 12 36 22 40 22 5 0 6 -24 2 -52z m1638 -40
c3 -21 2 -38 -3 -38 -10 0 -50 81 -50 101 0 53 44 1 53 -63z m-1323 37 c13
-14 29 -25 36 -25 15 0 29 -37 25 -65 -4 -27 -5 -28 -41 -20 -39 9 -85 89 -66
118 14 22 18 22 46 -8z m487 -28 c6 -7 15 -24 18 -39 6 -24 4 -28 -13 -28 -36
0 -52 12 -72 51 -11 21 -20 43 -20 48 0 11 68 -14 87 -32z m178 23 c8 -13 -73
-92 -86 -84 -5 3 -2 12 6 20 8 9 15 22 15 29 0 13 37 45 52 45 4 0 10 -5 13
-10z m-1143 -88 c12 -20 13 -31 4 -56 -14 -40 -32 -58 -53 -54 -22 4 -65 68
-58 86 3 7 5 31 5 53 l0 39 43 -21 c24 -12 51 -33 59 -47z m88 26 c0 -10 7
-18 16 -18 8 0 12 -4 9 -10 -3 -5 -17 -10 -30 -10 -13 0 -27 -5 -30 -10 -4 -6
-11 -8 -16 -5 -12 8 -12 45 1 45 6 0 16 11 22 25 12 27 28 17 28 -17z m967 14
c-24 -27 -21 -58 6 -67 19 -6 20 -8 4 -12 -28 -7 -47 4 -47 30 0 24 28 67 44
67 5 0 2 -8 -7 -18z m563 -11 c6 -16 20 -37 31 -47 18 -16 37 -80 27 -90 -3
-2 -13 -2 -22 2 -13 5 -14 9 -5 20 9 11 7 14 -9 14 -12 0 -26 9 -33 21 -10 20
-9 21 23 15 l33 -5 -38 16 c-29 12 -37 21 -35 37 1 12 -1 27 -5 34 -5 7 -3 12
6 12 8 0 20 -13 27 -29z m86 -10 c14 -35 21 -80 14 -91 -11 -18 -30 -3 -29 23
0 21 1 21 10 2 7 -15 8 -12 4 14 -6 38 -15 53 -22 34 -8 -21 -22 -15 -38 17
-8 16 -15 31 -15 34 0 11 70 -19 76 -33z m-1016 -6 c0 -14 -2 -25 -4 -25 -2 0
-13 -3 -23 -7 -16 -6 -17 -5 -3 12 14 16 13 17 -8 11 -26 -9 -28 -3 -6 18 23
24 44 20 44 -9z m440 0 c-8 -10 -9 -15 -1 -15 6 0 11 -4 11 -10 0 -5 -11 -10
-25 -10 -31 0 -31 7 -3 37 23 25 39 23 18 -2z m-255 -80 c-2 -10 3 -27 12 -37
18 -20 4 -25 -26 -8 -17 8 -51 76 -51 100 0 5 16 -1 35 -13 25 -16 34 -27 30
-42z m-214 14 c-27 -22 -41 -24 -41 -6 0 19 4 22 37 24 l28 1 -24 -19z m-248
-149 c-7 -7 -43 44 -39 55 2 6 -2 19 -10 30 -8 10 -14 28 -14 39 0 12 15 -11
34 -49 19 -39 32 -72 29 -75z m-14 121 c6 -10 7 -21 4 -25 -9 -8 -33 14 -33
30 0 20 18 17 29 -5z m1403 -13 c-7 -7 -12 -8 -12 -2 0 14 12 26 19 19 2 -3
-1 -11 -7 -17z m-1182 2 c0 -5 -4 -10 -10 -10 -5 0 -10 5 -10 10 0 6 5 10 10
10 6 0 10 -4 10 -10z m-162 -20 c25 -24 25 -21 12 -54 -12 -33 -37 -33 -51 -2
-12 25 -5 76 9 76 5 0 18 -9 30 -20z m1282 -1 c0 -11 -4 -17 -10 -14 -5 3 -10
13 -10 21 0 8 5 14 10 14 6 0 10 -9 10 -21z m148 3 c2 -7 -3 -12 -12 -12 -9 0
-16 7 -16 16 0 17 22 14 28 -4z m-48 -7 c7 -8 8 -15 2 -15 -5 0 -15 7 -22 15
-7 8 -8 15 -2 15 5 0 15 -7 22 -15z m-915 -24 c8 -14 -13 -24 -33 -16 -14 5
-14 7 -2 15 19 12 27 12 35 1z m-220 -21 c3 -5 1 -10 -4 -10 -6 0 -11 5 -11
10 0 6 2 10 4 10 3 0 8 -4 11 -10z m-25 -8 c0 -17 -14 -22 -28 -9 -13 10 -14
9 -8 -9 4 -14 0 -26 -14 -39 -20 -18 -20 -18 -20 11 0 17 5 35 12 42 14 14 58
16 58 4z m16 -34 c-3 -24 -17 -37 -32 -31 -13 5 -13 8 2 24 20 22 33 25 30 7z
m-756 -20 c7 -18 9 -19 9 -5 1 22 14 22 35 -2 12 -13 14 -21 6 -26 -7 -5 -5
-12 8 -23 16 -14 29 -72 16 -72 -2 0 -16 19 -30 43 -32 49 -70 88 -86 84 -6
-1 -13 4 -15 11 -3 7 5 12 21 12 18 0 30 -7 36 -22z m-1 -52 c18 -19 30 -39
27 -45 -10 -16 -41 -14 -56 4 -14 16 -4 38 13 30 7 -3 2 2 -10 11 -23 16 -30
34 -15 34 4 0 23 -15 41 -34z m668 -17 c-27 -7 -39 9 -25 35 10 19 11 19 29
-5 18 -24 18 -24 -4 -30z m62 42 c9 -6 10 -14 4 -25 -8 -14 -12 -14 -27 -3
-11 8 -16 19 -12 25 9 14 16 15 35 3z m1141 1 c0 -4 -5 -13 -12 -20 -9 -9 -7
-12 9 -12 12 0 23 6 26 13 6 17 19 3 51 -55 26 -47 26 -48 5 -48 -12 0 -23 8
-25 18 -5 18 -62 62 -80 62 -5 0 -1 -5 8 -10 9 -6 27 -25 39 -42 19 -26 20
-30 6 -25 -9 3 -17 2 -17 -4 0 -6 -5 -7 -10 -4 -6 4 -8 11 -5 16 3 5 -3 19
-14 31 l-21 22 0 -22 c0 -24 -15 -30 -23 -9 -5 12 0 56 8 85 5 13 55 17 55 4z
m-1489 -77 c9 -19 13 -35 8 -35 -5 0 -9 -4 -9 -10 0 -5 7 -7 15 -3 22 8 58
-26 45 -42 -8 -10 -1 -14 27 -20 31 -6 34 -8 20 -16 -13 -8 -28 -3 -62 18 -43
27 -67 61 -80 116 -10 40 16 34 36 -8z m59 13 c1 -25 32 -68 49 -68 6 0 11 -9
11 -20 0 -24 -9 -20 -57 21 -37 31 -65 73 -56 82 3 4 17 7 30 7 17 0 23 -6 23
-22z m464 16 c29 -11 16 -74 -15 -74 -14 0 -19 7 -19 27 0 25 0 26 20 8 11
-10 20 -13 20 -8 0 6 -7 16 -15 23 -8 7 -15 16 -15 21 0 11 3 11 24 3z m-426
-16 c7 -7 12 -23 12 -37 l0 -26 -20 25 c-30 38 -23 69 8 38z m492 -19 c7 -11
9 -32 6 -45 -4 -14 -2 -24 4 -24 6 0 9 3 7 8 -3 4 -1 16 3 27 7 17 11 13 29
-27 12 -27 26 -48 32 -48 5 0 8 -46 7 -114 l-3 -113 -37 19 c-21 11 -38 26
-38 34 0 7 16 29 35 48 40 40 39 36 23 87 -9 31 -20 43 -53 59 -39 19 -42 23
-43 65 -2 48 10 58 28 24z m-917 -21 c31 -15 35 -28 8 -28 -31 0 -73 19 -66
30 8 13 25 13 58 -2z m87 -78 c16 0 12 -14 -15 -61 l-25 -44 1 85 c0 82 0 84
14 53 8 -18 19 -33 25 -33z m1490 40 c0 -5 -4 -10 -10 -10 -5 0 -10 5 -10 10
0 6 5 10 10 10 6 0 10 -4 10 -10z m-405 -10 c32 -12 23 -33 -10 -24 -16 4 -27
0 -35 -13 -10 -16 -11 -15 -6 7 5 25 4 24 -19 -5 -17 -21 -28 -26 -35 -19 -16
16 26 64 55 64 13 0 36 -4 50 -10z m-1660 -37 c19 -21 35 -42 35 -47 0 -5 -18
-6 -39 -3 -33 4 -43 1 -64 -22 -27 -27 -50 -90 -28 -77 6 4 11 13 11 21 0 9
11 13 30 13 37 -1 37 -5 4 -39 -22 -23 -24 -30 -14 -49 14 -26 12 -29 -20 -32
-22 -3 -25 0 -22 32 2 30 1 32 -8 12 -11 -25 -10 -92 1 -92 4 0 9 6 12 14 3 7
21 16 41 20 45 9 95 50 113 95 14 32 16 34 28 18 7 -9 17 -17 24 -17 13 0 47
-67 39 -76 -4 -3 -15 -1 -26 5 -21 11 -40 6 -87 -22 -30 -18 -106 -103 -98
-110 11 -12 23 -8 23 8 0 13 12 19 32 16 4 0 24 10 43 24 29 19 41 22 61 14
14 -5 30 -7 34 -4 5 3 -2 -14 -15 -37 -14 -24 -25 -53 -25 -65 0 -12 -4 -25
-10 -28 -5 -3 -10 1 -10 9 0 9 -7 16 -15 16 -8 0 -15 -7 -15 -15 0 -32 -44
-66 -88 -68 -23 0 -37 -4 -32 -7 5 -3 -13 -25 -40 -48 -51 -44 -96 -55 -107
-26 -5 13 -8 13 -15 2 -7 -10 -8 -8 -7 7 2 34 -1 45 -12 45 -6 0 -10 -12 -9
-27 3 -46 1 -47 -27 -19 -24 24 -79 164 -68 174 8 8 25 -10 25 -26 0 -9 7 -26
15 -36 15 -19 15 -19 15 2 0 30 18 28 26 -2 4 -16 11 -23 20 -19 8 3 14 1 14
-5 0 -6 -6 -12 -12 -15 -7 -2 -10 -8 -6 -12 4 -4 13 -3 21 3 7 6 38 10 69 9
87 -3 95 14 33 69 -56 50 -86 61 -121 46 -20 -10 -25 -8 -34 8 -13 24 -30 26
-30 5 0 -8 -4 -15 -8 -15 -16 0 -44 39 -39 53 4 10 0 13 -13 10 -10 -3 -20 -1
-23 4 -9 14 36 74 50 68 7 -2 15 4 18 14 14 44 64 109 90 115 34 9 42 2 25
-21 -24 -31 23 17 85 87 81 93 98 98 150 43z m-199 6 c3 -5 -8 -9 -25 -9 -28
0 -46 11 -35 22 7 7 53 -3 60 -13z m2254 2 c0 -11 -6 -22 -12 -24 -7 -3 2 -6
21 -6 37 -1 121 -37 121 -52 0 -5 -3 -8 -7 -7 -5 1 -25 -3 -46 -10 -51 -14
-90 0 -116 43 -19 33 -19 33 0 54 25 26 39 27 39 2z m106 -8 c9 -15 27 -35 38
-45 12 -10 16 -17 9 -18 -7 0 -13 3 -13 8 0 8 -57 35 -105 50 l-30 9 35 11
c19 6 38 11 41 11 4 1 15 -11 25 -26z m384 -14 c0 -6 -4 -7 -10 -4 -5 3 -10
11 -10 16 0 6 5 7 10 4 6 -3 10 -11 10 -16z m-1890 -13 c0 -7 -4 -16 -9 -21
-19 -20 -93 -167 -87 -172 3 -4 6 -2 6 3 0 6 6 19 14 30 13 17 14 15 9 -26 -6
-56 -32 -130 -46 -130 -10 0 -5 61 9 94 5 13 4 17 -4 12 -17 -10 -26 60 -13
102 6 21 24 58 40 83 25 40 33 46 55 42 14 -3 26 -11 26 -17z m718 12 c-2 -6
-10 -14 -16 -16 -7 -2 -10 2 -6 12 7 18 28 22 22 4z m45 -43 c-3 -31 -1 -45 8
-45 9 0 8 -4 -1 -15 -7 -8 -25 -15 -41 -15 -24 0 -29 5 -35 34 -6 35 0 56 16
56 5 0 10 -12 12 -27 5 -45 23 -32 26 20 2 26 7 45 12 42 4 -3 6 -25 3 -50z
m287 35 c0 -11 -4 -20 -8 -20 -5 0 -17 9 -27 20 -18 20 -17 20 8 20 20 0 27
-5 27 -20z m22 -2 c-7 -7 -12 -8 -12 -2 0 14 12 26 19 19 2 -3 -1 -11 -7 -17z
m-82 4 c0 -5 12 -14 26 -21 21 -9 24 -14 14 -26 -16 -19 -44 -19 -60 0 -7 8
-20 15 -29 15 -13 -1 -13 -3 3 -15 27 -20 15 -28 -20 -14 -16 7 -35 11 -42 10
-8 -1 -12 5 -10 15 2 11 15 18 36 20 19 2 41 8 50 14 21 12 32 12 32 2z m-450
-12 c0 -5 -6 -10 -14 -10 -8 0 -18 5 -21 10 -3 6 3 10 14 10 12 0 21 -4 21
-10z m1317 -22 c-3 -8 -6 -5 -6 6 -1 11 2 17 5 13 3 -3 4 -12 1 -19z m-1367
-8 c0 -13 7 -20 20 -20 22 0 27 -24 8 -36 -16 -10 -58 -12 -64 -2 -3 4 1 18 8
30 7 13 11 29 10 36 -2 6 2 12 8 12 5 0 10 -9 10 -20z m-670 -201 c-18 -54
-30 -106 -28 -116 3 -10 10 7 16 37 19 85 32 95 32 25 0 -63 -28 -156 -50
-163 -10 -4 -11 5 -6 33 5 22 3 40 -2 44 -10 6 27 235 51 316 l12 40 3 -59 c2
-45 -4 -83 -28 -157z m-452 195 c45 -13 38 -68 -16 -126 -32 -35 -48 -35 -55
-2 -4 21 3 34 34 65 l38 38 -32 -6 c-18 -3 -36 -6 -41 -7 -20 -3 -16 25 6 33
28 12 37 12 66 5z m2582 -36 c0 -5 -6 -8 -14 -8 -9 0 -12 7 -9 21 4 16 8 17
14 7 5 -7 9 -16 9 -20z m-1529 -61 c-8 -8 -11 1 -11 29 0 53 14 67 18 19 2
-21 -1 -42 -7 -48z m-174 21 c-3 -8 -6 -5 -6 6 -1 11 2 17 5 13 3 -3 4 -12 1
-19z m783 -6 c0 -4 21 -21 47 -38 40 -25 43 -29 25 -32 -23 -4 -66 25 -89 58
-12 17 -12 20 1 20 9 0 16 -4 16 -8z m923 -27 c-3 -9 -8 -14 -10 -11 -3 3 -2
9 2 15 9 16 15 13 8 -4z m-1283 -33 c0 -4 14 -16 32 -26 29 -18 30 -20 13 -32
-17 -13 -16 -14 13 -14 36 0 39 -6 17 -30 -14 -16 -14 -17 8 -13 31 6 42 -11
21 -31 -22 -23 -48 -6 -69 46 -9 23 -30 57 -46 75 -34 40 -38 59 -9 43 11 -6
20 -14 20 -18z m366 -20 c-8 -7 -56 30 -50 40 3 5 17 -1 30 -13 13 -12 22 -24
20 -27z m284 28 c0 -5 -6 -10 -14 -10 -8 0 -21 -3 -30 -6 -9 -3 -16 -1 -16 4
0 9 9 13 53 21 4 0 7 -3 7 -9z m58 3 c-10 -2 -26 -2 -35 0 -10 3 -2 5 17 5 19
0 27 -2 18 -5z m-1513 -101 c-6 -12 -10 -5 -16 27 -5 24 -5 49 -2 55 10 16 26
-61 18 -82z m898 60 c16 -35 -1 -38 -33 -6 l-30 30 27 -2 c17 0 30 -8 36 -22z
m472 18 c3 -5 -3 -10 -14 -10 -11 0 -23 5 -26 10 -3 6 3 10 14 10 11 0 23 -4
26 -10z m-1775 -19 c0 -3 -16 -11 -35 -17 -39 -12 -46 -3 -14 20 20 13 49 12
49 -3z m-1235 -1 c18 -8 17 -9 -7 -9 -16 -1 -28 4 -28 9 0 12 8 12 35 0z
m1944 -11 c-6 -12 -9 -32 -6 -45 2 -13 0 -21 -4 -18 -9 5 -22 -54 -22 -98 0
-18 -4 -25 -15 -21 -10 4 -12 15 -6 42 4 20 8 46 8 58 1 11 3 20 7 18 3 -2 11
16 18 41 7 24 17 44 22 44 6 0 5 -10 -2 -21z m1219 -69 c-70 -67 -105 -83
-115 -53 -3 7 3 9 16 6 12 -3 22 0 22 6 1 6 2 17 3 24 1 6 9 11 19 9 9 -2 17
1 17 6 0 14 -23 32 -41 32 -10 0 -21 4 -24 10 -4 6 15 8 53 4 54 -6 59 -5 64
14 5 19 49 35 56 20 2 -4 -30 -39 -70 -78z m-1845 12 c15 -23 27 -46 27 -51 0
-5 -19 -32 -42 -60 -32 -37 -50 -51 -70 -51 -30 0 -40 16 -25 44 9 18 10 18
23 -5 11 -19 13 -21 14 -6 0 10 -5 27 -10 37 -15 28 15 101 38 93 12 -4 11 -1
-3 10 -11 8 -32 17 -45 19 -24 3 -24 4 9 20 39 19 43 16 84 -50z m1282 58 c3
-5 1 -10 -4 -10 -6 0 -11 5 -11 10 0 6 2 10 4 10 3 0 8 -4 11 -10z m-1445 -29
c0 -12 -42 -42 -49 -36 -5 6 29 45 41 45 4 0 8 -4 8 -9z m1880 5 c0 -3 -4 -8
-10 -11 -5 -3 -10 -1 -10 4 0 6 5 11 10 11 6 0 10 -2 10 -4z m-1690 -37 c0 -6
-4 -7 -10 -4 -5 3 -10 11 -10 16 0 6 5 7 10 4 6 -3 10 -11 10 -16z m840 -4 c0
-14 -4 -25 -10 -25 -11 0 -14 33 -3 43 11 11 13 8 13 -18z m425 -54 c4 -57 2
-71 -10 -71 -7 0 -17 5 -20 11 -4 6 -13 8 -19 6 -7 -3 -32 -1 -56 3 -32 6 -52
4 -72 -6 -34 -18 -34 -16 -1 47 l26 51 29 -31 c47 -50 98 -38 98 24 0 30 8 50
17 41 2 -2 6 -36 8 -75z m-1925 50 c0 -12 -20 -25 -27 -18 -7 7 6 27 18 27 5
0 9 -4 9 -9z m13 -28 c-39 -63 -62 -76 -59 -33 1 15 49 54 74 59 1 1 -5 -11
-15 -26z m2357 6 c0 -6 -4 -7 -10 -4 -5 3 -10 11 -10 16 0 6 5 7 10 4 6 -3 10
-11 10 -16z m-1414 -57 c-11 -10 -14 3 -7 38 l6 35 3 -33 c2 -19 1 -36 -2 -40z
m53 41 c-1 -16 2 -40 6 -54 5 -20 1 -33 -19 -55 l-25 -29 -1 53 c0 45 21 112
35 112 2 0 4 -12 4 -27z m-149 -3 c0 -5 -4 -10 -10 -10 -5 0 -10 5 -10 10 0 6
5 10 10 10 6 0 10 -4 10 -10z m470 6 c0 -3 -4 -8 -10 -11 -5 -3 -10 -1 -10 4
0 6 5 11 10 11 6 0 10 -2 10 -4z m1620 0 c0 -3 -4 -8 -10 -11 -5 -3 -10 -1
-10 4 0 6 5 11 10 11 6 0 10 -2 10 -4z m-2900 -28 c0 -13 3 -34 6 -48 5 -24 5
-24 -10 -6 -18 22 -22 76 -6 76 6 0 10 -10 10 -22z m660 -11 c0 -5 -4 -5 -10
-2 -5 3 -10 14 -10 23 0 15 2 15 10 2 5 -8 10 -19 10 -23z m420 29 c0 -3 -4
-8 -10 -11 -5 -3 -10 -1 -10 4 0 6 5 11 10 11 6 0 10 -2 10 -4z m-861 -52 c22
-21 41 -41 41 -46 0 -4 -22 -8 -50 -8 -27 0 -50 4 -50 8 0 5 -12 13 -27 20
-27 11 -26 11 12 8 22 -2 51 -7 65 -11 18 -6 22 -5 15 4 -6 6 -38 16 -70 22
-33 6 -62 13 -64 15 -3 2 4 11 15 19 28 22 65 11 113 -31z m2551 21 c0 -8 -2
-15 -4 -15 -2 0 -6 7 -10 15 -3 8 -1 15 4 15 6 0 10 -7 10 -15z m-2807 -2 c2
-5 7 -20 11 -35 6 -26 4 -28 -23 -28 -35 0 -43 17 -23 48 15 22 27 28 35 15z
m1394 -15 c-3 -8 -6 -5 -6 6 -1 11 2 17 5 13 3 -3 4 -12 1 -19z m-732 -6 c-3
-7 -5 -19 -6 -25 0 -7 -4 -3 -9 8 -8 18 -9 17 -9 -7 -1 -23 -6 -28 -26 -28
-27 0 -27 0 4 47 16 23 55 28 46 5z m35 -46 c-12 -12 -30 2 -30 23 0 29 13 33
26 9 7 -13 9 -27 4 -32z m219 18 c-6 -16 -13 -24 -16 -17 -5 13 16 58 23 50 3
-2 -1 -17 -7 -33z m31 -5 c0 -22 -4 -38 -8 -35 -5 3 -8 15 -6 28 1 13 3 29 3
36 1 6 3 12 6 12 3 0 5 -18 5 -41z m510 34 c0 -5 -4 -14 -9 -21 -7 -11 -9 -11
-14 1 -3 8 -3 18 0 21 9 8 23 7 23 -1z m-609 -34 c-9 -22 -10 -22 -10 -3 -1
11 2 24 6 27 12 12 14 0 4 -24z m1101 -41 c-5 -20 -6 -20 -12 -4 -3 10 -4 33
-1 50 l4 31 8 -27 c4 -15 5 -38 1 -50z m328 62 c0 -5 -4 -10 -10 -10 -5 0 -10
5 -10 10 0 6 5 10 10 10 6 0 10 -4 10 -10z m-674 -26 c-9 -34 -37 -73 -53 -74
-19 0 -16 14 11 42 12 14 26 33 29 42 10 26 20 18 13 -10z m236 7 c-1 -7 2
-10 7 -7 13 9 61 -11 61 -25 0 -11 -61 -9 -110 3 -8 2 -5 0 8 -6 25 -11 25
-24 -2 -40 -13 -8 -20 -7 -29 5 -7 8 -20 18 -29 22 -28 10 -21 23 25 46 45 22
74 23 69 2z m-1352 -6 c0 -8 -4 -15 -10 -15 -5 0 -10 7 -10 15 0 8 5 15 10 15
6 0 10 -7 10 -15z m599 -97 c19 -14 19 -15 -10 -61 -16 -26 -34 -47 -39 -47
-6 0 -10 -6 -10 -14 0 -8 -13 -24 -28 -35 -28 -20 -28 -20 -40 0 -11 17 -10
20 5 17 14 -2 19 6 23 37 3 22 14 54 24 70 l18 30 -20 -22 c-42 -47 -58 -17
-17 31 14 16 25 32 25 35 -1 3 -16 -11 -34 -33 -21 -24 -36 -35 -40 -27 -4 6
-2 11 3 11 6 0 11 7 11 16 0 9 12 36 27 60 l27 42 28 -48 c15 -27 36 -55 47
-62z m281 102 c0 -5 -4 -10 -10 -10 -5 0 -10 5 -10 10 0 6 5 10 10 10 6 0 10
-4 10 -10z m40 0 c0 -5 7 -10 16 -10 12 0 14 -4 7 -12 -5 -7 -8 -52 -7 -100 1
-50 -1 -88 -7 -88 -9 0 -13 28 -10 60 2 12 0 13 -7 1 -6 -7 -16 -10 -23 -7 -8
4 -6 1 3 -7 10 -8 21 -36 25 -63 5 -40 8 -44 13 -24 l6 25 6 -27 c3 -16 1 -28
-4 -28 -5 0 -9 -15 -8 -32 5 -89 -8 -67 -26 44 -4 20 -17 47 -30 59 -13 12
-24 20 -24 16 0 -3 9 -14 19 -24 14 -13 17 -23 11 -33 -12 -20 -38 3 -48 44
-10 35 -5 56 12 56 7 0 24 6 39 13 24 11 27 17 27 64 0 28 -5 55 -10 58 -12 7
-4 25 11 25 5 0 9 -4 9 -10z m-93 -14 c10 -10 -16 -56 -32 -56 -8 0 -15 -6
-15 -14 0 -21 -19 -30 -55 -28 l-30 2 33 -30 c40 -37 40 -41 2 -27 -16 6 -30
15 -30 19 0 4 -4 8 -10 8 -5 0 -21 12 -36 27 -21 21 -24 27 -11 34 8 5 20 22
27 39 13 31 24 37 35 20 9 -14 -4 -52 -15 -45 -5 3 -7 13 -4 23 5 14 4 15 -5
2 -18 -25 -13 -37 19 -49 30 -10 39 -4 20 15 -7 7 -7 21 1 43 11 32 13 33 56
28 24 -2 47 -7 50 -11z m395 -8 c-6 -6 -15 -8 -19 -4 -4 4 -1 11 7 16 19 12
27 3 12 -12z m792 0 c-10 -13 -12 -17 -4 -10 8 6 22 12 31 12 10 0 19 5 21 12
3 8 7 8 11 2 3 -6 -8 -27 -25 -48 -18 -23 -33 -33 -37 -27 -11 16 -72 -75 -65
-96 5 -15 4 -16 -5 -3 -6 9 -11 10 -11 3 0 -6 -3 -18 -6 -26 -4 -12 0 -14 15
-10 15 4 21 1 21 -11 0 -9 5 -16 11 -16 8 0 10 12 6 36 -4 23 -1 47 9 65 19
37 21 36 17 -3 -7 -79 -16 -117 -24 -112 -5 3 -9 -19 -9 -49 0 -54 -6 -71 -21
-61 -5 3 -4 14 2 25 7 15 7 24 -1 34 -7 9 -8 15 0 20 14 9 13 48 -2 43 -6 -2
-18 -24 -26 -48 -9 -25 -21 -51 -29 -58 -11 -12 -16 -27 -11 -34 1 -2 -4 -14
-11 -27 -8 -14 -9 -21 -2 -17 7 5 11 -4 11 -23 0 -17 -5 -31 -11 -31 -7 0 -9
9 -6 21 4 16 3 19 -5 11 -20 -20 -39 5 -27 35 5 14 12 42 15 62 3 20 12 48 20
63 8 15 11 34 8 42 -3 9 4 27 15 42 12 15 21 33 21 40 0 8 6 14 13 15 6 0 27
23 45 51 31 48 31 50 7 34 -14 -9 -25 -13 -25 -8 0 12 29 49 30 37 0 -5 7 1
16 13 8 12 20 22 26 22 6 0 3 -10 -8 -22z m209 -3 c-7 -21 -13 -19 -13 6 0 11
4 18 10 14 5 -3 7 -12 3 -20z m-1203 -25 c-9 -17 -15 -19 -23 -10 -9 9 -7 15
7 26 25 18 31 12 16 -16z m-1030 11 c0 -18 -21 -64 -26 -58 -9 8 6 67 17 67 5
0 9 -4 9 -9z m70 2 c0 -5 -10 -32 -22 -60 -16 -35 -29 -53 -41 -53 -15 0 -17
6 -11 38 12 66 22 82 49 82 14 0 25 -3 25 -7z m83 -35 c5 -33 1 -44 -35 -89
-43 -55 -66 -62 -25 -7 14 18 28 51 31 73 l6 40 -17 -47 c-10 -26 -26 -55 -35
-64 -16 -16 -17 -15 -16 14 1 18 9 39 20 48 19 18 25 40 8 29 -5 -3 -10 -1
-10 5 0 6 8 13 18 16 9 3 24 9 32 14 18 9 16 13 23 -32z m182 5 c3 -42 -10
-42 -24 -2 -14 41 -14 41 5 37 11 -2 18 -15 19 -35z m41 0 c-3 -4 -7 0 -7 8
-1 8 -5 1 -9 -16 l-8 -30 -1 31 c-1 37 9 51 22 29 5 -9 6 -19 3 -22z m-426 23
c0 -11 -19 -15 -25 -6 -3 5 1 10 9 10 9 0 16 -2 16 -4z m506 -22 c19 7 18 -8
-1 -24 -12 -10 -18 -10 -30 0 -12 10 -12 16 -3 34 11 19 12 19 16 3 2 -11 9
-16 18 -13z m519 -38 c-4 -43 -3 -72 5 -87 11 -20 13 -20 22 -5 13 23 31 10
18 -14 -5 -10 -10 -22 -10 -27 1 -4 6 2 14 15 16 29 65 62 82 55 9 -3 14 2 14
12 0 10 -5 14 -12 9 -7 -4 -10 -3 -5 1 11 13 50 14 64 3 18 -15 7 -27 -20 -22
l-22 5 23 -12 c26 -14 28 -29 8 -67 -27 -52 -69 -82 -123 -89 -34 -4 -53 -2
-58 7 -12 19 -21 260 -10 271 16 16 17 10 10 -55z m1160 54 c-3 -5 -10 -10
-16 -10 -5 0 -9 5 -9 10 0 6 7 10 16 10 8 0 12 -4 9 -10z m-2248 -6 c-3 -3 2
-14 11 -24 15 -18 16 -18 28 -2 16 20 18 8 4 -19 -6 -10 -8 -19 -6 -19 3 0 12
12 20 28 13 22 15 24 15 7 0 -23 -27 -87 -28 -67 -1 7 -5 10 -11 7 -5 -3 -10
-1 -10 5 0 6 -5 8 -12 4 -6 -4 -17 1 -25 11 -7 11 -13 14 -13 8 0 -7 -13 -11
-30 -11 -31 1 -39 11 -19 24 6 3 14 1 18 -5 5 -7 16 -2 32 16 13 16 17 22 9
16 -8 -7 -19 -13 -24 -13 -6 0 0 9 14 20 23 18 40 27 27 14z m1541 -6 c14 -14
16 -48 3 -48 -5 0 -16 6 -23 13 -8 9 -21 11 -33 6 -30 -11 -35 -10 -35 6 0 28
66 45 88 23z m-1822 -24 c6 -24 -6 -43 -28 -44 -10 0 -10 32 -2 54 9 24 23 19
30 -10z m2274 14 c0 -19 -23 -78 -31 -78 -16 0 -17 44 -1 66 19 26 32 31 32
12z m-180 -7 c0 -12 -20 -25 -27 -18 -7 7 6 27 18 27 5 0 9 -4 9 -9z m-1223
-129 c-18 -31 -37 -40 -37 -18 0 9 7 16 16 16 18 0 11 35 -12 57 -18 18 -24
16 -24 -8 0 -11 5 -17 10 -14 6 3 10 2 10 -4 0 -15 -41 -8 -49 9 -5 8 -4 30 1
49 l9 34 46 -48 c45 -46 46 -48 30 -73z m921 80 c2 -8 -6 -8 -29 -2 -17 5 -36
7 -40 4 -5 -3 -18 0 -30 7 -35 18 -4 27 48 14 26 -7 49 -17 51 -23z m152 34
c0 -3 -4 -8 -10 -11 -5 -3 -10 -1 -10 4 0 6 5 11 10 11 6 0 10 -2 10 -4z m274
-11 c-4 -8 -8 -15 -10 -15 -2 0 -4 7 -4 15 0 8 4 15 10 15 5 0 7 -7 4 -15z
m-1849 -34 c-3 -12 -11 -19 -16 -16 -5 4 -5 14 2 26 13 26 23 18 14 -10z m405
19 c0 -5 -5 -10 -11 -10 -5 0 -7 5 -4 10 3 6 8 10 11 10 2 0 4 -4 4 -10z
m-736 -26 c3 -8 2 -12 -4 -9 -6 3 -10 10 -10 16 0 14 7 11 14 -7z m2176 7 c0
-12 -20 -25 -27 -18 -7 7 6 27 18 27 5 0 9 -4 9 -9z m-1980 -19 c0 -15 2 -15
11 -2 9 13 10 13 6 0 -3 -10 -16 -15 -41 -14 -20 1 -39 4 -42 7 -12 12 6 24
36 25 22 0 30 -4 30 -16z m2256 -9 c-10 -10 -19 5 -10 18 6 11 8 11 12 0 2 -7
1 -15 -2 -18z m-736 13 c0 -3 -4 -8 -10 -11 -5 -3 -10 -1 -10 4 0 6 5 11 10
11 6 0 10 -2 10 -4z m481 -35 c-7 -12 -17 -18 -26 -15 -28 11 -14 30 18 25 4
0 7 4 7 11 0 6 3 9 6 6 3 -4 1 -16 -5 -27z m-1837 -3 c-12 -42 -35 -79 -44
-73 -13 8 20 95 37 95 10 0 12 -6 7 -22z m388 -9 c5 -3 4 -16 -1 -30 -8 -21
-10 -21 -11 -4 0 11 -3 31 -5 45 -3 14 -2 18 1 10 4 -8 11 -18 16 -21z m-352
5 c0 -9 -11 -29 -25 -46 -29 -35 -30 -32 -9 22 16 41 34 53 34 24z m790 -13
c16 -30 12 -36 -10 -16 -21 19 -26 35 -10 35 5 0 14 -9 20 -19z m400 15 c0 -3
-4 -8 -10 -11 -5 -3 -10 -1 -10 4 0 6 5 11 10 11 6 0 10 -2 10 -4z m562 -28
c-9 -9 -12 -7 -12 12 0 19 3 21 12 12 9 -9 9 -15 0 -24z m-492 12 c0 -5 -7
-10 -16 -10 -8 0 -12 5 -9 10 3 6 10 10 16 10 5 0 9 -4 9 -10z m550 -25 c0 -8
-3 -15 -6 -15 -3 0 -12 7 -20 15 -14 13 -13 15 5 15 12 0 21 -6 21 -15z m-195
-15 c-3 -5 -11 -10 -16 -10 -6 0 -7 5 -4 10 3 6 11 10 16 10 6 0 7 -4 4 -10z
m-338 -6 c-3 -3 -12 -4 -19 -1 -8 3 -5 6 6 6 11 1 17 -2 13 -5z m70 -16 c-3
-8 -6 -5 -6 6 -1 11 2 17 5 13 3 -3 4 -12 1 -19z m409 -45 c-3 -38 -6 -79 -6
-93 -1 -23 -2 -23 -9 -5 -12 29 1 165 15 165 3 0 3 -30 0 -67z m-989 35 c-3
-8 -6 -5 -6 6 -1 11 2 17 5 13 3 -3 4 -12 1 -19z m368 -7 c-3 -6 -11 -11 -17
-11 -6 0 -6 6 2 15 14 17 26 13 15 -4z m579 13 c17 -7 22 -39 7 -48 -5 -3 -14
8 -20 24 -11 32 -10 33 13 24z m-534 -14 c0 -5 -5 -10 -11 -10 -5 0 -7 5 -4
10 3 6 8 10 11 10 2 0 4 -4 4 -10z m330 0 c0 -5 -5 -10 -11 -10 -5 0 -7 5 -4
10 3 6 8 10 11 10 2 0 4 -4 4 -10z m-1594 -16 c-3 -9 -6 -20 -6 -25 0 -5 -4
-9 -9 -9 -4 0 -6 11 -3 25 2 14 9 25 14 25 6 0 7 -7 4 -16z m1700 -20 c7 3 16
1 20 -5 3 -6 12 -3 20 8 14 17 15 16 8 -7 -20 -74 -47 -103 -91 -98 -23 2 -27
7 -25 26 2 12 -1 22 -6 22 -5 0 -9 -8 -8 -17 1 -22 -57 -31 -79 -13 -24 20 -1
51 61 85 57 31 59 32 73 13 7 -11 19 -17 27 -14z m-266 5 c0 -6 -4 -7 -10 -4
-5 3 -10 11 -10 16 0 6 5 7 10 4 6 -3 10 -11 10 -16z m658 -6 c-2 -10 -11 -19
-21 -21 -16 -3 -17 -1 -5 17 16 25 31 27 26 4z m-938 -8 c0 -9 -6 -12 -16 -8
-13 5 -13 7 -2 14 17 11 18 11 18 -6z m650 -16 c0 -5 -7 -9 -15 -9 -9 0 -15
-9 -15 -22 0 -21 0 -21 15 -2 14 18 14 17 15 -13 0 -18 -4 -33 -9 -33 -5 0
-17 -3 -27 -7 -12 -4 -15 -3 -10 5 4 7 2 12 -4 12 -10 0 -6 50 5 70 6 10 45 9
45 -1z m-340 -59 c0 -26 -55 -84 -73 -77 -21 8 -29 -3 -14 -21 10 -13 9 -15
-10 -10 -13 4 -23 3 -23 -2 0 -4 9 -10 20 -13 20 -5 28 -27 10 -27 -5 0 -10 5
-10 10 0 6 -7 10 -15 10 -8 0 -15 7 -15 16 0 13 -7 15 -30 11 -16 -4 -32 -2
-35 4 -4 5 -3 9 2 8 25 -4 63 2 58 11 -7 11 49 42 59 33 3 -4 6 -1 6 6 0 7 8
20 18 29 10 10 13 14 7 10 -7 -4 -15 -5 -18 -1 -4 3 -7 1 -7 -5 0 -7 -9 -12
-21 -12 -11 0 -18 -4 -14 -9 3 -5 -4 -12 -15 -16 -11 -3 -27 -13 -36 -22 -12
-12 -20 -13 -37 -5 -19 9 -20 11 -3 11 11 1 16 6 13 15 -6 14 63 63 117 82 25
9 34 9 49 -4 9 -8 17 -23 17 -32z m-230 0 c-24 -33 -60 -41 -60 -12 0 11 3 13
8 5 5 -8 16 -4 37 13 39 31 41 30 15 -6z m-85 11 c3 -5 1 -12 -5 -16 -5 -3
-10 1 -10 9 0 18 6 21 15 7z m-17 -27 c22 -6 22 -8 6 -25 -22 -24 -34 -24 -34
1 0 23 -4 24 -31 10 -11 -7 -19 -7 -19 -1 0 18 38 25 78 15z m477 -14 c-28
-12 -37 -12 -30 0 3 6 16 10 28 9 21 0 21 -1 2 -9z m-385 -26 c0 -9 -5 -14
-12 -12 -18 6 -21 28 -4 28 9 0 16 -7 16 -16z m482 -6 c-7 -7 -12 -8 -12 -2 0
14 12 26 19 19 2 -3 -1 -11 -7 -17z m-112 -7 c0 -6 -4 -13 -10 -16 -5 -3 -10
1 -10 9 0 9 5 16 10 16 6 0 10 -4 10 -9z m-60 -11 c0 -5 -5 -10 -11 -10 -5 0
-7 5 -4 10 3 6 8 10 11 10 2 0 4 -4 4 -10z m75 -31 c10 -15 -1 -22 -24 -14
-12 3 -19 11 -16 16 8 12 32 11 40 -2z"/>
<path d="M6460 1821 c0 -11 4 -22 9 -25 4 -3 6 6 3 19 -5 30 -12 33 -12 6z"/>
<path d="M5150 1776 c0 -8 50 -56 60 -56 16 0 12 9 -17 35 -25 22 -43 31 -43
21z"/>
<path d="M4616 1718 c4 -18 11 -37 15 -42 15 -16 10 -26 -8 -19 -14 4 -15 3
-7 -6 6 -6 18 -9 26 -6 15 6 15 11 1 51 -18 54 -35 68 -27 22z"/>
<path d="M5132 1570 c0 -14 2 -19 5 -12 2 6 2 18 0 25 -3 6 -5 1 -5 -13z"/>
<path d="M3885 1062 c-32 -37 -50 -59 -39 -49 22 18 89 23 99 7 16 -25 115 41
115 77 0 15 -21 15 -110 -3 l-35 -7 19 22 c11 11 17 21 15 21 -2 0 -31 -30
-64 -68z m155 24 c0 -25 -56 -57 -87 -50 -55 12 -58 13 -38 28 20 14 55 10 68
-8 5 -7 7 -3 6 9 -2 32 0 35 26 35 15 0 25 -6 25 -14z"/>
<path d="M4105 1081 c-3 -5 -1 -12 5 -16 5 -3 10 1 10 9 0 18 -6 21 -15 7z"/>
<path d="M3881 788 c-1 -16 4 -28 9 -28 12 0 12 8 0 35 -8 18 -9 17 -9 -7z"/>
<path d="M6250 1244 c0 -3 5 -14 10 -25 16 -28 30 -23 17 6 -11 22 -27 34 -27
19z"/>
<path d="M6300 1237 c0 -8 7 -17 15 -21 8 -3 15 -2 15 3 0 5 -7 14 -15 21 -12
10 -15 10 -15 -3z"/>
<path d="M4180 1110 c0 -11 4 -20 9 -20 5 0 7 9 4 20 -3 11 -7 20 -9 20 -2 0
-4 -9 -4 -20z"/>
<path d="M5045 800 c-3 -6 1 -7 9 -4 18 7 21 14 7 14 -6 0 -13 -4 -16 -10z"/>
<path d="M6167 593 c-4 -3 -7 -16 -6 -27 0 -19 1 -19 10 3 10 24 8 36 -4 24z"/>
<path d="M5337 602 c-15 -16 -15 -19 3 -30 12 -7 21 -8 25 -2 3 6 -1 10 -9 10
-21 0 -20 17 2 29 9 6 12 11 6 11 -6 0 -18 -8 -27 -18z"/>
<path d="M5293 572 c-9 -15 -7 -21 8 -30 10 -7 22 -12 26 -12 5 0 0 5 -10 11
-12 7 -16 17 -12 30 8 24 3 24 -12 1z"/>
<path d="M5790 460 c-14 -11 -20 -20 -13 -20 11 0 43 26 43 36 0 7 -4 5 -30
-16z"/>
<path d="M5460 2204 c-13 -33 -13 -34 5 -34 10 0 15 10 15 30 0 37 -7 38 -20
4z"/>
<path d="M6806 2211 c-4 -5 -2 -12 3 -15 5 -4 12 -2 15 3 4 5 2 12 -3 15 -5 4
-12 2 -15 -3z"/>
<path d="M6780 2176 c0 -9 5 -16 10 -16 6 0 10 4 10 9 0 6 -4 13 -10 16 -5 3
-10 -1 -10 -9z"/>
<path d="M4370 2150 c0 -5 5 -10 10 -10 6 0 10 5 10 10 0 6 -4 10 -10 10 -5 0
-10 -4 -10 -10z"/>
<path d="M6057 2154 c-4 -4 -4 -17 -1 -30 4 -15 -1 -29 -15 -43 -22 -22 -29
-61 -10 -61 6 0 9 6 6 14 -3 8 1 17 9 20 10 4 14 -2 14 -20 0 -26 -23 -58 -34
-47 -3 4 -6 -3 -6 -15 0 -25 16 -37 26 -20 6 9 10 5 15 -12 7 -24 7 -24 8 -2
1 12 7 22 16 22 8 0 15 5 15 10 0 6 -7 10 -15 10 -24 0 -17 27 12 50 18 14 35
19 50 15 14 -3 23 -1 23 6 0 8 -13 10 -40 6 -30 -4 -40 -2 -40 9 0 8 -5 14
-11 14 -8 0 -9 13 -5 40 6 37 -1 50 -17 34z"/>
<path d="M5440 2136 c0 -7 7 -13 15 -13 8 0 15 4 15 8 0 4 -7 9 -15 13 -9 3
-15 0 -15 -8z"/>
<path d="M5716 2134 c-11 -28 -6 -39 9 -20 8 11 15 23 15 28 0 14 -18 9 -24
-8z"/>
<path d="M6770 2135 c0 -8 5 -15 10 -15 6 0 10 7 10 15 0 8 -4 15 -10 15 -5 0
-10 -7 -10 -15z"/>
<path d="M4941 2118 c-5 -13 -6 -25 -3 -28 2 -3 7 1 9 8 4 10 8 10 19 1 20
-16 19 7 -1 27 -13 14 -16 13 -24 -8z"/>
<path d="M4370 2104 c0 -8 5 -12 10 -9 6 3 10 10 10 16 0 5 -4 9 -10 9 -5 0
-10 -7 -10 -16z"/>
<path d="M4385 2076 c-9 -13 -22 -23 -30 -20 -7 3 -16 1 -20 -5 -3 -7 -41 -11
-90 -11 -67 0 -86 3 -93 16 -8 14 -19 15 -66 10 -72 -9 -74 -26 -1 -19 52 5
55 4 55 -16 0 -12 -5 -42 -11 -67 -12 -46 -5 -70 11 -44 5 8 12 35 16 58 l7
44 81 -3 c51 -2 89 1 103 9 32 18 51 16 31 -4 -13 -13 -14 -22 -5 -50 10 -34
29 -49 21 -16 -3 9 -1 44 4 77 6 33 9 62 7 63 -2 2 -11 -8 -20 -22z"/>
<path d="M5481 2084 c0 -11 3 -14 6 -6 3 7 2 16 -1 19 -3 4 -6 -2 -5 -13z"/>
<path d="M3865 2069 c-27 -5 -67 -11 -88 -15 -25 -4 -43 -2 -54 7 -14 12 -16
12 -11 -1 4 -12 28 -15 131 -15 88 0 127 3 127 11 0 10 -36 26 -50 22 -3 0
-27 -5 -55 -9z"/>
<path d="M4941 2071 c-11 -7 -11 -9 0 -13 12 -4 12 -8 1 -20 -8 -10 -9 -19 -3
-22 5 -4 13 3 16 15 5 16 12 19 28 15 51 -14 137 -19 137 -7 0 7 -20 11 -53
11 -31 0 -61 6 -73 15 -22 17 -34 18 -53 6z"/>
<path d="M5415 2070 c3 -5 8 -10 11 -10 2 0 4 5 4 10 0 6 -5 10 -11 10 -5 0
-7 -4 -4 -10z"/>
<path d="M5460 2072 c-4 -120 -6 -239 -3 -214 3 23 9 32 23 32 10 0 21 7 24
16 10 26 7 28 -15 8 l-21 -19 6 55 c3 30 6 63 6 73 1 9 5 15 11 12 5 -4 9 -2
9 2 0 11 -40 46 -40 35z"/>
<path d="M3252 2056 c-61 -9 -70 -13 -55 -23 17 -11 17 -12 1 -12 -29 -1 -51
-47 -50 -107 0 -29 -3 -55 -6 -55 -4 -1 -42 -2 -85 -4 -104 -3 -111 -15 -9
-15 76 0 83 -2 98 -25 9 -14 14 -35 11 -47 -6 -22 8 -58 22 -58 4 0 4 21 0 48
-20 116 -21 133 -9 182 9 36 20 56 39 68 14 9 28 19 31 23 11 15 90 20 131 8
24 -6 88 -11 142 -10 130 1 136 -2 133 -81 -2 -35 -4 -80 -5 -101 -1 -29 -6
-40 -23 -46 -20 -8 -21 -10 -5 -16 23 -10 22 -20 -10 -52 -23 -23 -37 -28 -83
-30 -206 -6 -322 -11 -326 -16 -11 -10 91 -18 153 -11 l66 7 -8 -29 c-11 -46
-14 -134 -6 -180 7 -37 5 -46 -14 -64 -17 -16 -35 -20 -101 -21 -82 -1 -136
-10 -119 -21 6 -3 42 -3 80 1 89 8 115 4 115 -17 0 -13 3 -13 12 -4 7 7 13 20
13 29 0 15 22 17 205 19 112 1 208 0 213 -3 4 -2 2 -12 -5 -21 -10 -12 -10
-14 0 -8 21 13 14 -26 -10 -53 l-23 -26 28 24 c15 14 27 33 27 43 0 26 47 71
66 64 56 -21 62 -20 69 24 9 51 22 41 28 -20 2 -25 2 -18 0 15 -5 86 -6 94
-14 89 -4 -2 -7 9 -7 26 1 23 5 29 16 25 12 -4 12 -2 -1 19 -15 22 -14 57 3
81 13 19 19 45 11 45 -5 0 -12 -10 -15 -22 l-7 -23 -9 23 c-8 18 -5 28 10 44
11 12 20 30 20 41 0 10 7 25 15 33 17 17 20 44 6 44 -5 0 -12 -6 -14 -12 -3
-7 -6 6 -6 30 -1 43 -21 61 -21 18 0 -13 -2 -39 -5 -57 -4 -30 -4 -31 5 -9 7
19 8 13 4 -25 -7 -60 -10 -65 -35 -65 -19 0 -27 -24 -10 -34 4 -3 9 -33 9 -66
1 -63 -1 -65 -42 -31 -18 15 -19 15 -11 -4 4 -11 10 -30 12 -42 3 -12 14 -25
25 -29 15 -4 18 -13 16 -42 -3 -30 -7 -36 -29 -36 -14 -1 -34 -9 -43 -19 -10
-9 -23 -17 -29 -17 -7 -1 -98 -2 -203 -4 l-191 -2 -16 55 c-17 58 -15 156 3
191 13 24 61 36 72 17 6 -11 16 -12 50 -5 24 5 56 11 72 12 16 2 39 12 52 23
16 14 31 18 54 15 30 -4 45 -1 140 27 30 9 27 10 -25 5 -33 -3 -78 -6 -100 -7
-22 -1 -45 -6 -52 -10 -20 -12 -46 37 -38 72 3 16 8 70 10 120 2 70 0 93 -12
102 -9 8 -47 12 -106 12 -51 -1 -96 2 -102 7 -18 15 -118 18 -193 6z m682
-482 c9 -3 16 -13 16 -21 0 -20 -34 -12 -38 10 -4 19 -1 20 22 11z m-5 -148
c10 -12 8 -13 -9 -9 -25 7 -37 23 -17 23 8 0 20 -6 26 -14z"/>
<path d="M4415 2051 c-3 -5 -1 -12 4 -15 5 -3 11 1 15 9 6 16 -9 21 -19 6z"/>
<path d="M4780 2052 c0 -11 31 -32 47 -32 11 0 25 -6 32 -12 11 -11 13 -10 8
5 -4 11 -1 20 8 23 32 13 12 23 -40 21 -30 -1 -55 -3 -55 -5z"/>
<path d="M5515 2050 c-4 -6 5 -10 19 -10 14 0 26 5 26 10 0 6 -9 10 -19 10
-11 0 -23 -4 -26 -10z"/>
<path d="M5915 2050 c-8 -13 15 -13 35 0 12 8 11 10 -7 10 -12 0 -25 -4 -28
-10z"/>
<path d="M4455 2040 c-3 -5 0 -11 7 -11 7 -1 18 -2 23 -4 6 -1 20 -3 33 -3 12
-1 31 -11 42 -22 l20 -20 0 23 c0 13 -5 28 -12 35 -14 14 -104 16 -113 2z"/>
<path d="M5430 2019 c0 -16 4 -28 9 -25 8 5 3 56 -5 56 -2 0 -4 -14 -4 -31z"/>
<path d="M4652 2008 c3 -34 38 -55 38 -24 0 9 -5 16 -11 16 -6 0 -8 9 -4 20 5
14 2 20 -10 20 -12 0 -16 -8 -13 -32z"/>
<path d="M4967 2023 c-4 -3 -7 -15 -7 -27 0 -20 0 -20 15 0 8 10 15 22 15 27
0 9 -14 9 -23 0z"/>
<path d="M5905 2018 c-10 -28 0 -148 12 -148 10 0 12 22 10 80 -2 73 -11 100
-22 68z"/>
<path d="M6181 2001 c-7 -5 -10 -14 -7 -20 11 -18 33 -13 39 9 5 21 -8 26 -32
11z"/>
<path d="M3762 1979 c-7 -11 -17 -17 -22 -14 -6 3 -10 1 -10 -4 0 -19 29 -12
40 10 15 27 8 34 -8 8z"/>
<path d="M3971 1988 c0 -9 -4 -25 -7 -35 -5 -14 -4 -15 5 -7 7 7 11 22 8 35
-2 13 -5 16 -6 7z"/>
<path d="M5180 1986 c0 -9 5 -16 10 -16 6 0 10 4 10 9 0 6 -4 13 -10 16 -5 3
-10 -1 -10 -9z"/>
<path d="M6260 1976 c0 -9 7 -16 16 -16 9 0 14 5 12 12 -6 18 -28 21 -28 4z"/>
<path d="M3555 1960 c-8 -13 -1 -24 14 -19 6 3 7 10 2 18 -6 10 -10 10 -16 1z"/>
<path d="M4558 1905 c5 -71 22 -71 22 0 0 37 -4 55 -12 55 -9 0 -12 -16 -10
-55z"/>
<path d="M4950 1855 c0 -49 5 -97 10 -105 7 -10 10 6 10 54 0 54 4 72 18 82 9
7 20 14 25 14 9 0 -2 -51 -16 -67 -6 -9 -6 -13 1 -13 10 0 32 59 32 88 0 14
-16 16 -25 2 -3 -5 -15 -15 -27 -21 -17 -9 -19 -8 -14 8 3 10 1 25 -4 33 -7
10 -10 -14 -10 -75z"/>
<path d="M3850 1905 c-13 -14 -22 -27 -19 -29 2 -2 14 10 27 25 29 36 24 38
-8 4z"/>
<path d="M6104 1896 c-14 -28 -26 -39 -57 -47 -35 -9 -38 -13 -35 -42 2 -24 8
-33 25 -35 17 -2 24 -12 29 -38 3 -19 4 -43 1 -53 -2 -10 -1 -25 4 -32 6 -9 8
12 7 56 -3 64 -5 70 -25 73 -26 4 -41 41 -22 52 19 12 39 0 40 -24 1 -15 3
-13 8 9 8 32 29 75 36 75 3 0 0 -12 -6 -26 -16 -43 -4 -38 16 6 13 30 15 44 7
52 -8 8 -16 1 -28 -26z"/>
<path d="M6600 1916 c0 -8 5 -18 10 -21 6 -3 10 3 10 14 0 12 -4 21 -10 21 -5
0 -10 -6 -10 -14z"/>
<path d="M6067 1891 c-4 -17 -3 -21 5 -13 5 5 8 16 6 23 -3 8 -7 3 -11 -10z"/>
<path d="M3897 1874 c-11 -14 -17 -27 -15 -30 3 -2 14 10 27 26 12 17 18 30
14 30 -4 0 -16 -12 -26 -26z"/>
<path d="M4380 1866 c0 -19 5 -38 10 -41 6 -4 10 10 10 34 0 23 -4 41 -10 41
-5 0 -10 -15 -10 -34z"/>
<path d="M6252 1888 c3 -7 15 -14 29 -16 23 -2 23 -2 5 13 -24 18 -39 20 -34
3z"/>
<path d="M5830 1880 c-34 -7 -34 -7 13 -9 30 0 46 3 42 9 -3 6 -9 9 -13 9 -4
-1 -23 -5 -42 -9z"/>
<path d="M3420 1870 c-12 -8 -11 -10 8 -10 12 0 22 5 22 10 0 13 -11 13 -30 0z"/>
<path d="M4430 1858 c0 -14 -6 -29 -12 -31 -10 -4 -10 -6 0 -6 7 -1 12 -15 13
-33 1 -28 3 -26 10 15 6 31 6 54 0 65 -9 14 -10 13 -11 -10z"/>
<path d="M5498 1830 c3 -29 9 -40 21 -40 13 0 13 2 2 9 -9 6 -12 19 -8 40 5
21 3 31 -6 31 -9 0 -11 -13 -9 -40z"/>
<path d="M3914 1838 l-19 -23 23 19 c12 11 22 21 22 23 0 8 -8 2 -26 -19z"/>
<path d="M4116 1844 c-3 -9 -6 -31 -6 -50 0 -19 -5 -34 -10 -34 -17 0 -52 -37
-42 -44 11 -7 145 9 161 19 15 9 51 -4 51 -18 0 -8 -3 -8 -12 1 -20 20 -30 13
-14 -9 8 -12 13 -26 10 -33 -5 -15 63 -49 72 -35 3 6 -3 13 -15 16 -12 3 -21
8 -21 12 1 14 39 55 46 49 4 -4 13 0 20 10 17 21 18 40 2 24 -14 -14 -32 -16
-24 -3 11 17 -74 19 -114 4 -29 -12 -46 -13 -62 -6 -19 8 -22 16 -19 61 2 50
-10 70 -23 36z"/>
<path d="M3435 1840 c-3 -6 1 -7 9 -4 18 7 21 14 7 14 -6 0 -13 -4 -16 -10z"/>
<path d="M3346 1821 c-10 -11 -31 -23 -47 -26 -16 -4 -31 -11 -34 -16 -9 -14
17 -10 45 6 14 8 37 14 52 15 15 0 30 5 33 10 3 6 0 10 -9 10 -8 0 -16 5 -18
11 -2 6 -12 2 -22 -10z"/>
<path d="M3519 1817 c-14 -12 -30 -29 -35 -37 -8 -14 -7 -14 6 0 8 8 28 25 44
38 16 12 25 22 20 22 -5 0 -21 -10 -35 -23z"/>
<path d="M2927 1793 c-4 -20 -4 -39 -1 -42 10 -10 35 33 32 53 -5 35 -25 28
-31 -11z"/>
<path d="M3449 1810 c-31 -26 -15 -26 18 0 14 11 21 20 15 20 -5 0 -20 -9 -33
-20z"/>
<path d="M4381 1763 c-1 -28 3 -54 8 -58 18 -10 20 11 6 61 l-13 49 -1 -52z"/>
<path d="M6585 1790 c-8 -13 25 -13 45 0 12 8 9 10 -12 10 -15 0 -30 -4 -33
-10z"/>
<path d="M3936 1775 c-3 -8 -1 -15 4 -15 6 0 10 7 10 15 0 8 -2 15 -4 15 -2 0
-6 -7 -10 -15z"/>
<path d="M5003 1778 c-4 -7 2 -9 15 -6 26 7 28 1 5 -24 -16 -18 -16 -18 0 -12
16 6 19 10 21 36 1 15 -32 19 -41 6z"/>
<path d="M6106 1764 c-4 -10 -2 -13 6 -8 8 5 9 2 5 -9 -19 -46 -19 -53 -3 -33
17 21 22 66 7 66 -5 0 -12 -7 -15 -16z"/>
<path d="M4007 1764 c-4 -4 -7 -14 -7 -23 0 -11 3 -12 11 -4 6 6 10 16 7 23
-2 6 -7 8 -11 4z"/>
<path d="M6770 1748 c0 -6 5 -26 12 -44 12 -34 5 -69 -12 -59 -7 4 -7 12 0 25
6 11 6 21 1 24 -11 7 -21 -17 -21 -50 0 -15 6 -24 15 -24 22 0 18 -18 -5 -25
-11 -3 -20 -11 -20 -16 0 -6 9 -7 21 -4 18 6 20 4 14 -15 -6 -18 -4 -21 6 -14
14 9 19 10 39 13 15 2 12 17 -6 36 -13 12 -14 19 -5 28 14 14 15 47 1 47 -5 0
-10 13 -10 29 0 16 -3 36 -6 45 -7 19 -24 21 -24 4z"/>
<path d="M4870 1711 c0 -5 10 -15 23 -24 22 -15 22 -15 -18 -22 -54 -10 -99
-38 -114 -72 -12 -26 -10 -25 23 9 37 38 74 55 101 45 9 -4 23 6 37 25 17 25
19 30 5 25 -9 -3 -19 -2 -22 3 -3 4 1 11 7 13 7 3 1 6 -14 6 -16 1 -28 -3 -28
-8z"/>
<path d="M3040 1700 c-11 -7 -5 -8 20 -4 43 8 51 14 19 14 -13 0 -31 -5 -39
-10z"/>
<path d="M4962 1663 c-1 -28 -4 -57 -7 -65 -5 -13 11 -47 17 -38 2 3 1 39 -2
80 -6 65 -7 68 -8 23z"/>
<path d="M6628 1703 c7 -3 16 -2 19 1 4 3 -2 6 -13 5 -11 0 -14 -3 -6 -6z"/>
<path d="M2924 1694 c-6 -3 -9 -28 -6 -66 4 -48 2 -59 -8 -53 -10 6 -11 4 -4
-6 5 -8 7 -22 6 -31 -2 -10 2 -18 7 -18 6 0 11 -7 11 -15 0 -8 -4 -15 -10 -15
-5 0 -10 -4 -10 -10 0 -18 38 -10 43 9 2 11 0 56 -6 101 -12 88 -3 115 26 86
17 -18 43 -21 51 -7 5 7 -72 34 -86 30 -2 0 -8 -3 -14 -5z"/>
<path d="M6010 1685 c-16 -19 -1 -19 24 0 16 12 17 15 4 15 -8 0 -21 -7 -28
-15z"/>
<path d="M5940 1680 c0 -5 5 -10 10 -10 6 0 10 5 10 10 0 6 -4 10 -10 10 -5 0
-10 -4 -10 -10z"/>
<path d="M6545 1669 c-4 -6 -5 -12 -2 -15 2 -3 7 2 10 11 7 17 1 20 -8 4z"/>
<path d="M6135 1643 c3 -10 7 -44 8 -75 2 -47 7 -62 29 -85 32 -33 95 -69 105
-60 8 9 -22 33 -64 51 -23 11 -34 24 -42 53 -16 56 -14 93 5 93 27 0 54 -20
54 -40 0 -11 5 -20 11 -20 6 0 8 7 5 18 -6 15 -5 15 8 2 10 -10 13 -24 9 -39
-6 -23 -7 -23 -39 15 -18 22 -33 34 -34 27 0 -6 11 -25 25 -41 32 -38 32 -47
0 -26 -14 9 -28 14 -31 12 -7 -7 63 -48 82 -48 8 0 14 5 14 11 0 8 4 8 13 1 7
-6 19 -7 26 -3 10 7 10 9 -2 14 -8 3 -18 21 -22 39 -8 39 -69 98 -101 98 -13
0 -26 5 -29 10 -11 18 -38 12 -30 -7z"/>
<path d="M4381 1633 c0 -10 4 -27 9 -38 7 -16 9 -13 9 18 1 20 -3 37 -9 37 -5
0 -10 -8 -9 -17z"/>
<path d="M5794 1633 c-32 -6 -54 -36 -65 -85 -5 -24 -12 -51 -15 -62 -4 -11
-2 -16 4 -12 5 3 13 21 16 40 4 19 13 39 21 46 19 16 19 11 -1 -36 -11 -26
-13 -39 -5 -42 6 -2 9 -8 6 -13 -4 -5 1 -6 9 -3 14 5 46 -16 46 -31 0 -4 -13
-4 -29 0 -17 3 -32 2 -36 -4 -3 -7 3 -11 17 -12 13 0 34 -3 48 -5 61 -11 96
24 116 120 7 34 13 66 14 73 0 15 -103 33 -146 26z m19 -21 c-12 -2 -27 -10
-33 -18 -14 -16 -30 -19 -30 -4 0 14 62 40 75 32 5 -4 0 -8 -12 -10z m77 -24
c0 -9 4 -8 10 2 8 12 10 11 10 -7 0 -14 -5 -21 -12 -18 -7 3 -29 -9 -48 -26
-49 -43 -80 -63 -87 -56 -9 9 5 54 23 71 8 9 12 16 7 16 -4 0 1 7 11 15 24 18
86 20 86 3z m0 -52 c0 -7 -10 -21 -22 -30 l-23 -17 28 4 c15 2 27 1 27 -2 -1
-14 -50 -65 -56 -58 -4 4 -2 7 4 7 7 0 12 5 12 10 0 6 -10 10 -23 10 -40 0
-39 13 0 51 42 40 53 46 53 25z"/>
<path d="M6020 1630 c0 -15 21 -23 32 -12 6 6 2 11 -11 15 -12 3 -21 1 -21 -3z"/>
<path d="M3660 1605 c-13 -14 -19 -25 -13 -25 6 0 18 11 27 25 9 14 15 25 13
25 -2 0 -14 -11 -27 -25z"/>
<path d="M3748 1613 c-28 -33 -31 -48 -3 -20 15 16 25 30 23 33 -3 2 -12 -4
-20 -13z"/>
<path d="M4038 1595 c-8 -19 -11 -32 -6 -29 10 7 31 55 25 60 -2 2 -10 -12
-19 -31z"/>
<path d="M3785 1565 c-16 -13 -26 -27 -22 -31 4 -4 8 -5 10 -3 1 2 13 16 26
32 30 33 25 34 -14 2z"/>
<path d="M3250 1570 c-13 -9 -13 -10 0 -10 8 0 22 5 30 10 13 9 13 10 0 10 -8
0 -22 -5 -30 -10z"/>
<path d="M6883 1560 c3 -13 1 -31 -6 -39 -11 -14 -10 -14 6 -2 19 15 23 46 5
57 -8 5 -9 0 -5 -16z"/>
<path d="M3312 1537 c-12 -13 -22 -27 -22 -33 0 -5 8 1 18 12 9 12 26 26 37
32 15 9 16 11 4 12 -8 0 -25 -10 -37 -23z"/>
<path d="M3818 1546 c-19 -14 -23 -26 -10 -26 4 0 13 9 20 20 14 23 13 24 -10
6z"/>
<path d="M6833 1533 c-3 -10 -8 -22 -10 -28 -3 -5 3 -1 11 9 16 20 21 36 11
36 -3 0 -8 -8 -12 -17z"/>
<path d="M4751 1524 c0 -11 3 -14 6 -6 3 7 2 16 -1 19 -3 4 -6 -2 -5 -13z"/>
<path d="M3855 1520 c-3 -5 -1 -10 4 -10 6 0 11 5 11 10 0 6 -2 10 -4 10 -3 0
-8 -4 -11 -10z"/>
<path d="M4026 1515 c-11 -8 -15 -15 -10 -15 6 0 15 5 22 12 23 23 26 -22 3
-53 -12 -16 -17 -29 -12 -29 15 0 42 50 39 72 -4 27 -18 31 -42 13z"/>
<path d="M4390 1515 c0 -8 4 -15 10 -15 5 0 7 7 4 15 -4 8 -8 15 -10 15 -2 0
-4 -7 -4 -15z"/>
<path d="M4485 1520 c-3 -5 3 -10 14 -10 12 0 21 5 21 10 0 6 -6 10 -14 10 -8
0 -18 -4 -21 -10z"/>
<path d="M5969 1495 c-4 -11 -7 -54 -6 -95 0 -74 0 -75 9 -26 10 55 7 154 -3
121z"/>
<path d="M6695 1500 c-10 -17 5 -30 34 -30 34 0 44 9 30 27 -13 15 -55 18 -64
3z m55 -10 c12 -8 9 -10 -12 -10 -16 0 -28 5 -28 10 0 13 20 13 40 0z"/>
<path d="M4238 1495 c-3 -3 -33 -6 -68 -7 -54 -1 -60 -3 -44 -15 11 -8 31 -11
54 -7 26 4 40 2 49 -10 7 -9 26 -16 42 -16 22 0 29 5 29 20 0 25 -46 51 -62
35z"/>
<path d="M4433 1493 c-22 -8 -15 -36 7 -30 16 4 20 0 20 -19 0 -26 -14 -32
-27 -10 -12 19 -59 25 -100 13 -28 -9 -40 -21 -61 -64 -14 -29 -23 -56 -19
-60 11 -10 197 27 197 41 0 6 7 23 14 38 14 26 20 57 17 86 -1 12 -25 15 -48
5z m-4 -72 c5 -9 4 -27 -2 -41 -8 -20 -11 -22 -14 -7 -3 9 -9 17 -14 17 -6 0
-7 -9 -4 -20 8 -26 -20 -28 -34 -2 -9 15 -10 15 -11 0 0 -9 -14 -21 -31 -27
-47 -16 -54 -14 -33 11 15 19 16 20 2 9 -23 -17 -23 -7 -1 30 20 33 26 35 43
14 7 -8 17 -15 22 -15 5 0 2 7 -6 16 -26 26 -18 34 30 32 30 -1 48 -7 53 -17z"/>
<path d="M4380 1410 c-9 -6 -10 -10 -3 -10 6 0 15 5 18 10 8 12 4 12 -15 0z"/>
<path d="M6848 1493 c-10 -2 -18 -9 -18 -14 0 -14 16 -11 30 6 7 8 11 14 9 14
-2 -1 -12 -3 -21 -6z"/>
<path d="M4082 1470 c0 -14 2 -19 5 -12 2 6 2 18 0 25 -3 6 -5 1 -5 -13z"/>
<path d="M6265 1460 c3 -5 11 -10 16 -10 6 0 7 5 4 10 -3 6 -11 10 -16 10 -6
0 -7 -4 -4 -10z"/>
<path d="M3005 1420 c3 -5 17 -10 31 -10 13 0 24 5 24 10 0 6 -14 10 -31 10
-17 0 -28 -4 -24 -10z"/>
<path d="M4110 1420 c0 -5 5 -10 10 -10 6 0 10 5 10 10 0 6 -4 10 -10 10 -5 0
-10 -4 -10 -10z"/>
<path d="M4810 1420 c8 -5 22 -10 30 -10 13 0 13 1 0 10 -8 5 -22 10 -30 10
-13 0 -13 -1 0 -10z"/>
<path d="M5922 1415 c0 -11 4 -31 8 -45 6 -20 8 -21 8 -5 0 11 -4 31 -8 45 -6
20 -8 21 -8 5z"/>
<path d="M4781 1403 c8 -10 20 -23 27 -28 7 -6 18 -22 25 -35 9 -17 21 -25 40
-25 36 -1 34 11 -5 32 l-33 17 30 8 30 7 -32 -3 c-24 -2 -39 4 -55 21 -25 27
-47 31 -27 6z"/>
<path d="M4471 1384 c0 -11 3 -14 6 -6 3 7 2 16 -1 19 -3 4 -6 -2 -5 -13z"/>
<path d="M3061 1381 c-21 -13 5 -24 29 -11 11 6 20 13 20 15 0 8 -34 5 -49 -4z"/>
<path d="M3623 1363 c9 -2 25 -2 35 0 9 3 1 5 -18 5 -19 0 -27 -2 -17 -5z"/>
<path d="M4030 1340 c0 -5 5 -10 11 -10 5 0 7 5 4 10 -3 6 -8 10 -11 10 -2 0
-4 -4 -4 -10z"/>
<path d="M3290 1320 c0 -5 9 -10 19 -10 11 0 23 5 26 10 4 6 -5 10 -19 10 -14
0 -26 -4 -26 -10z"/>
<path d="M3729 1313 c-13 -16 -12 -17 4 -4 16 13 21 21 13 21 -2 0 -10 -8 -17
-17z"/>
<path d="M4461 1284 l-1 -51 43 -17 c47 -18 122 -21 132 -6 4 6 -10 10 -33 10
-25 0 -49 7 -63 20 -23 19 -23 19 -3 20 11 0 25 -5 32 -12 8 -8 15 -8 28 3 16
13 15 15 -12 20 -57 13 -74 10 -74 -11 0 -11 -7 -20 -15 -20 -20 0 -19 20 1
49 14 20 23 22 58 18 27 -4 48 -15 63 -31 12 -14 28 -26 34 -26 18 0 -30 48
-65 65 -41 21 -59 19 -87 -11 l-24 -26 -6 29 c-5 21 -7 16 -8 -23z"/>
<path d="M2978 1313 c7 -3 16 -2 19 1 4 3 -2 6 -13 5 -11 0 -14 -3 -6 -6z"/>
<path d="M3345 1300 c-7 -11 0 -13 28 -11 9 1 17 -4 17 -13 0 -8 4 -18 10 -21
6 -4 7 2 2 16 -10 25 -48 44 -57 29z"/>
<path d="M4441 1294 c0 -11 3 -14 6 -6 3 7 2 16 -1 19 -3 4 -6 -2 -5 -13z"/>
<path d="M4371 1271 c-9 -6 -15 -31 -17 -68 l-3 -58 7 52 c9 65 27 87 48 59
18 -25 18 -36 -1 -36 -10 0 -15 -10 -15 -27 0 -16 -3 -39 -5 -53 -5 -24 -5
-24 4 -2 14 30 21 28 21 -6 0 -16 -9 -38 -21 -51 -12 -12 -18 -25 -14 -29 4
-4 15 4 26 17 10 13 19 18 19 12 0 -6 4 -11 9 -11 5 0 7 15 6 33 -4 54 10 56
16 2 5 -39 6 -32 5 32 -1 44 -4 79 -8 76 -5 -2 -8 11 -8 29 0 22 -3 28 -9 20
-7 -11 -9 -11 -14 2 -7 18 -25 20 -46 7z m64 -101 c-4 -12 -9 -19 -12 -17 -3
3 -2 15 2 27 4 12 9 19 12 17 3 -3 2 -15 -2 -27z"/>
<path d="M2938 1263 c7 -3 16 -2 19 1 4 3 -2 6 -13 5 -11 0 -14 -3 -6 -6z"/>
<path d="M2976 1254 c-12 -32 -6 -81 13 -98 12 -11 16 -25 13 -41 -2 -15 0
-25 7 -25 14 0 14 57 0 66 -7 4 -8 20 -4 41 10 54 -13 99 -29 57z"/>
<path d="M3773 1248 c-28 -32 -36 -48 -24 -48 6 0 11 5 11 12 0 6 10 22 22 35
12 13 19 23 16 23 -2 0 -14 -10 -25 -22z"/>
<path d="M3700 1239 c0 -5 5 -7 10 -4 6 3 10 8 10 11 0 2 -4 4 -10 4 -5 0 -10
-5 -10 -11z"/>
<path d="M6589 1190 c-13 -16 -43 -54 -66 -82 -24 -29 -43 -56 -43 -62 0 -5 6
-2 13 9 8 10 19 15 25 11 13 -8 51 42 81 103 25 54 21 62 -10 21z m-39 -94 c0
-2 -8 -10 -17 -17 -16 -13 -17 -12 -4 4 13 16 21 21 21 13z"/>
<path d="M3243 1200 c-13 -5 -23 -14 -23 -20 0 -17 25 -11 38 10 7 11 11 20
10 19 -2 0 -13 -4 -25 -9z"/>
<path d="M3775 1190 c-10 -11 -13 -20 -7 -20 6 0 16 9 22 20 6 11 9 20 7 20
-2 0 -12 -9 -22 -20z"/>
<path d="M3305 1170 c-16 -16 -24 -30 -18 -30 7 0 21 14 33 30 12 17 20 30 18
30 -3 0 -17 -13 -33 -30z"/>
<path d="M2808 1095 c-2 -2 -28 -6 -58 -10 -30 -4 -56 -8 -58 -10 -2 -2 2 -12
9 -23 10 -17 10 -23 -5 -37 -15 -16 -15 -19 -1 -41 8 -13 15 -39 15 -59 0 -38
24 -95 40 -95 5 0 6 22 2 53 -3 28 -6 84 -7 122 l0 70 50 6 c28 3 58 2 69 -3
12 -7 16 -7 12 0 -4 7 5 9 27 5 24 -4 34 -1 34 8 0 10 -18 14 -63 15 -35 1
-64 0 -66 -1z"/>
<path d="M6623 1093 c-7 -2 -13 -9 -13 -14 0 -14 26 -10 40 6 10 12 10 15 -1
14 -8 0 -20 -3 -26 -6z"/>
<path d="M4557 993 c-3 -5 -1 -17 4 -28 7 -17 8 -17 8 8 1 27 -4 34 -12 20z"/>
<path d="M6902 965 c0 -16 2 -22 5 -12 2 9 2 23 0 30 -3 6 -5 -1 -5 -18z"/>
<path d="M2680 899 c0 -11 5 -17 10 -14 6 3 10 13 10 21 0 8 -4 14 -10 14 -5
0 -10 -9 -10 -21z"/>
<path d="M4532 890 c0 -14 2 -19 5 -12 2 6 2 18 0 25 -3 6 -5 1 -5 -13z"/>
<path d="M6880 884 c-17 -10 -18 -13 -5 -8 11 3 34 10 50 14 27 7 28 8 5 9
-14 0 -36 -7 -50 -15z"/>
<path d="M6974 881 c16 -18 15 -20 -19 -41 -20 -12 -33 -25 -30 -28 3 -3 11 0
17 6 7 7 20 12 29 12 10 0 21 9 24 20 7 21 -9 50 -28 50 -5 0 -2 -8 7 -19z"/>
<path d="M6806 795 c1 -55 5 -127 9 -159 6 -52 5 -58 -9 -53 -11 5 -16 1 -16
-14 0 -11 4 -18 9 -15 14 9 23 -41 15 -82 -4 -20 -3 -33 2 -29 12 12 15 193 3
267 -8 54 -8 66 5 75 9 7 13 20 9 33 -3 12 1 30 8 40 11 14 11 15 -1 5 -20
-18 -28 -16 -32 10 -2 12 -3 -23 -2 -78z"/>
<path d="M3377 866 c-3 -8 0 -20 8 -26 7 -6 11 -19 8 -29 -2 -9 3 -23 11 -30
13 -11 17 -9 27 13 9 18 20 26 38 26 l26 0 -30 16 c-19 10 -31 11 -33 5 -6
-19 -20 -12 -26 14 -7 28 -21 33 -29 11z"/>
<path d="M6866 829 c3 -6 0 -15 -7 -20 -11 -7 -9 -9 6 -9 11 0 26 4 34 9 11 7
10 11 -7 20 -26 14 -35 14 -26 0z"/>
<path d="M3176 813 c-4 -5 -29 -9 -54 -10 -76 -3 -132 -14 -126 -25 4 -7 -9
-8 -37 -4 -51 8 -76 9 -176 5 -40 -2 -73 -6 -73 -10 0 -15 73 -19 130 -7 47 9
68 9 92 0 25 -9 37 -9 64 4 42 20 86 12 77 -14 -6 -16 -5 -16 14 1 11 9 27 17
36 17 9 0 18 4 22 9 3 5 22 7 43 5 25 -4 33 -3 23 4 -7 5 -17 15 -20 21 -4 6
-11 8 -15 4z"/>
<path d="M3505 798 c-31 -24 -58 -79 -49 -102 3 -9 9 -16 13 -16 10 0 91 84
91 95 0 5 -7 0 -15 -12 -9 -12 -29 -31 -45 -43 l-30 -21 0 21 c0 12 16 38 35
57 41 41 41 54 0 21z"/>
<path d="M2938 798 c6 -6 18 -8 28 -6 14 3 12 5 -9 10 -19 3 -25 2 -19 -4z"/>
<path d="M6781 794 c0 -11 3 -14 6 -6 3 7 2 16 -1 19 -3 4 -6 -2 -5 -13z"/>
<path d="M6952 750 c-25 -44 -44 -90 -37 -90 6 0 67 121 63 125 -2 2 -13 -14
-26 -35z"/>
<path d="M6884 756 c-3 -8 -4 -25 -2 -38 3 -17 5 -13 9 15 5 38 2 47 -7 23z"/>
<path d="M3555 740 c-3 -5 3 -10 14 -10 12 0 21 5 21 10 0 6 -6 10 -14 10 -8
0 -18 -4 -21 -10z"/>
<path d="M3608 738 c15 -15 -3 -38 -29 -38 -32 0 -32 -20 1 -26 17 -4 33 -11
36 -15 7 -12 34 -11 34 1 0 6 -9 10 -20 10 -24 0 -26 17 -5 47 13 19 13 22 -1
27 -24 9 -29 7 -16 -6z"/>
<path d="M6675 720 c-18 -35 -19 -50 -3 -50 6 0 9 3 5 6 -3 4 0 22 8 40 17 42
11 45 -10 4z"/>
<path d="M6739 733 c-13 -16 -12 -17 4 -4 16 13 21 21 13 21 -2 0 -10 -8 -17
-17z"/>
<path d="M3190 725 c0 -24 22 -27 65 -10 23 9 29 13 13 10 -14 -3 -33 -8 -42
-11 -11 -4 -16 -1 -16 10 0 9 -4 16 -10 16 -5 0 -10 -7 -10 -15z"/>
<path d="M3657 719 c-23 -26 -14 -36 17 -19 14 7 22 18 19 26 -7 19 -16 18
-36 -7z"/>
<path d="M3100 711 c-15 -28 -12 -41 7 -41 13 0 14 3 5 12 -7 7 -8 17 -1 30 5
10 7 18 5 18 -3 0 -10 -9 -16 -19z"/>
<path d="M6707 723 c-4 -3 -7 -13 -7 -21 0 -18 13 -7 16 13 2 17 1 18 -9 8z"/>
<path d="M3005 700 c4 -14 12 -29 17 -35 7 -7 8 -2 3 15 -4 14 -12 30 -17 35
-7 7 -8 2 -3 -15z"/>
<path d="M2910 704 c0 -11 45 -84 53 -84 11 0 9 9 -15 51 -19 34 -38 51 -38
33z"/>
<path d="M3051 694 c0 -11 3 -14 6 -6 3 7 2 16 -1 19 -3 4 -6 -2 -5 -13z"/>
<path d="M6539 671 c-40 -41 -72 -96 -67 -113 3 -7 14 10 26 36 13 26 27 44
32 41 6 -4 13 2 17 12 3 10 15 28 26 41 34 37 5 23 -34 -17z"/>
<path d="M6956 674 c-4 -20 -5 -38 -3 -40 3 -3 8 11 11 32 4 20 5 38 3 40 -3
3 -8 -11 -11 -32z"/>
<path d="M3424 689 c-3 -6 -2 -15 3 -20 5 -5 9 -1 9 11 0 23 -2 24 -12 9z"/>
<path d="M7076 660 c-19 -22 -42 -56 -51 -76 -26 -62 -16 -62 14 -1 16 32 41
72 57 88 15 16 25 29 22 29 -3 0 -22 -18 -42 -40z"/>
<path d="M6872 665 c0 -16 2 -22 5 -12 2 9 2 23 0 30 -3 6 -5 -1 -5 -18z"/>
<path d="M3756 657 c3 -10 9 -15 12 -12 3 3 0 11 -7 18 -10 9 -11 8 -5 -6z"/>
<path d="M3540 645 c0 -13 30 -25 65 -25 27 0 7 18 -33 29 -24 7 -32 6 -32 -4z"/>
<path d="M4470 615 c-31 -45 -50 -57 -50 -32 0 7 7 24 16 37 8 14 -3 5 -25
-20 -23 -25 -51 -69 -63 -98 l-22 -53 -18 23 c-20 26 -23 12 -7 -29 32 -80 45
-97 62 -86 5 3 4 9 -2 13 -27 16 -24 75 8 139 45 88 56 77 56 -57 0 -61 3
-114 8 -118 7 -7 11 68 7 154 -1 32 7 58 34 107 20 36 34 65 31 65 -2 0 -18
-20 -35 -45z"/>
<path d="M4561 644 c0 -11 3 -14 6 -6 3 7 2 16 -1 19 -3 4 -6 -2 -5 -13z"/>
<path d="M6577 614 c-33 -76 -40 -100 -41 -141 -1 -23 1 -37 5 -31 4 7 9 6 13
-3 3 -8 3 6 0 31 -4 36 0 59 20 105 15 32 25 63 23 68 -1 5 -10 -8 -20 -29z"/>
<path d="M3413 590 c0 -25 2 -35 4 -22 2 12 2 32 0 45 -2 12 -4 2 -4 -23z"/>
<path d="M3770 625 c0 -5 5 -17 10 -25 5 -8 10 -10 10 -5 0 6 -5 17 -10 25 -5
8 -10 11 -10 5z"/>
<path d="M3225 610 c-4 -6 -7 -32 -8 -58 -1 -26 -6 -52 -10 -59 -4 -6 7 -43
23 -82 17 -39 30 -74 29 -78 -5 -28 5 -31 10 -3 6 32 -7 70 -38 115 -7 9 -7
24 -1 43 3 9 6 132 3 132 -1 0 -5 -5 -8 -10z"/>
<path d="M3476 612 c-3 -5 5 -14 19 -20 17 -8 22 -17 19 -34 -5 -21 -3 -20 11
5 8 15 20 27 26 27 6 0 8 4 4 9 -3 6 -13 9 -23 9 -9 0 -24 2 -33 6 -10 4 -20
3 -23 -2z"/>
<path d="M3992 600 c0 -14 2 -19 5 -12 2 6 2 18 0 25 -3 6 -5 1 -5 -13z"/>
<path d="M2880 603 c8 -3 24 -13 35 -22 20 -16 20 -16 1 7 -11 12 -26 22 -35
21 -14 0 -14 -1 -1 -6z"/>
<path d="M6862 585 c0 -16 2 -22 5 -12 2 9 2 23 0 30 -3 6 -5 -1 -5 -18z"/>
<path d="M6511 574 c0 -11 3 -14 6 -6 3 7 2 16 -1 19 -3 4 -6 -2 -5 -13z"/>
<path d="M3055 570 c3 -5 8 -10 11 -10 2 0 4 5 4 10 0 6 -5 10 -11 10 -5 0 -7
-4 -4 -10z"/>
<path d="M3791 575 c0 -5 8 -26 19 -45 11 -19 19 -30 19 -25 0 6 -8 26 -19 45
-11 19 -19 31 -19 25z"/>
<path d="M4007 500 c7 -88 13 -104 13 -32 0 27 3 58 7 68 4 11 3 15 -5 11 -6
-4 -13 1 -15 10 -3 10 -3 -16 0 -57z"/>
<path d="M6420 546 c0 -26 -30 -92 -63 -138 -11 -14 -17 -32 -15 -39 2 -7 21
21 42 62 21 41 42 78 47 84 12 12 11 42 -1 50 -6 3 -10 -5 -10 -19z"/>
<path d="M6684 548 c-11 -13 -25 -36 -32 -53 -9 -24 -9 -26 1 -11 6 10 22 34
34 52 26 39 25 43 -3 12z"/>
<path d="M4535 550 c-4 -6 -2 -17 4 -23 15 -15 25 -2 13 19 -7 12 -11 13 -17
4z"/>
<path d="M4932 520 c0 -19 2 -27 5 -17 2 9 2 25 0 35 -3 9 -5 1 -5 -18z"/>
<path d="M3653 519 c14 -21 15 -31 5 -64 -15 -49 -68 -127 -68 -100 0 10 -3
16 -6 13 -9 -10 16 -89 27 -83 5 4 6 17 3 30 -6 24 13 72 24 60 4 -4 14 17 24
47 9 29 20 52 25 51 5 -1 7 11 5 28 -2 16 -8 29 -12 29 -5 0 -16 3 -25 7 -16
6 -16 4 -2 -18z"/>
<path d="M4500 515 c0 -8 2 -15 4 -15 2 0 6 7 10 15 3 8 1 15 -4 15 -6 0 -10
-7 -10 -15z"/>
<path d="M6720 489 c-16 -23 -30 -47 -30 -53 0 -5 12 9 27 32 16 24 33 40 40
37 15 -5 18 11 3 20 -5 3 -23 -13 -40 -36z"/>
<path d="M6931 514 c0 -11 3 -14 6 -6 3 7 2 16 -1 19 -3 4 -6 -2 -5 -13z"/>
<path d="M3766 500 c7 -28 12 -35 18 -29 2 2 -2 15 -10 29 l-15 25 7 -25z"/>
<path d="M3724 483 c4 -9 3 -19 -1 -22 -11 -8 -56 -91 -49 -91 2 0 15 18 27
40 13 22 25 40 28 40 11 0 30 -37 36 -71 6 -30 3 -37 -25 -58 -17 -12 -34 -20
-37 -17 -9 9 -32 -27 -32 -49 0 -19 0 -19 18 3 23 26 33 29 24 5 -3 -10 12 5
35 33 l41 50 -27 77 c-15 42 -31 77 -35 77 -5 0 -6 -8 -3 -17z"/>
<path d="M3320 480 c0 -5 5 -10 10 -10 6 0 10 5 10 10 0 6 -4 10 -10 10 -5 0
-10 -4 -10 -10z"/>
<path d="M3459 485 c-13 -13 14 -73 57 -124 24 -29 44 -50 44 -47 0 7 -59 106
-76 126 -6 8 -14 23 -15 33 -2 11 -7 16 -10 12z"/>
<path d="M3830 484 c0 -6 7 -19 16 -30 14 -18 14 -18 3 6 -14 31 -19 36 -19
24z"/>
<path d="M4513 420 c0 -41 2 -58 4 -37 2 20 2 54 0 75 -2 20 -4 3 -4 -38z"/>
<path d="M4576 455 c6 -43 25 -86 31 -70 1 6 -6 33 -17 60 l-21 50 7 -40z"/>
<path d="M4132 455 c0 -16 2 -22 5 -12 2 9 2 23 0 30 -3 6 -5 -1 -5 -18z"/>
<path d="M4616 463 c-6 -14 -5 -15 5 -6 7 7 10 15 7 18 -3 3 -9 -2 -12 -12z"/>
<path d="M6441 464 c0 -11 3 -14 6 -6 3 7 2 16 -1 19 -3 4 -6 -2 -5 -13z"/>
<path d="M6740 459 c-7 -11 -10 -23 -7 -25 2 -2 9 7 15 21 14 30 7 33 -8 4z"/>
<path d="M4997 453 c-20 -22 -26 -74 -10 -80 7 -3 15 8 18 24 4 15 10 38 15
51 11 26 -1 29 -23 5z"/>
<path d="M7290 434 c0 -28 -3 -35 -15 -30 -8 3 -15 1 -15 -5 0 -6 8 -9 17 -7
18 3 38 78 21 78 -4 0 -8 -16 -8 -36z"/>
<path d="M3790 456 c0 -2 8 -10 18 -17 15 -13 16 -12 3 4 -13 16 -21 21 -21
13z"/>
<path d="M6962 444 c-12 -8 -22 -20 -22 -26 0 -7 6 -3 14 7 8 11 19 16 30 12
9 -4 16 -2 16 3 0 17 -17 19 -38 4z"/>
<path d="M7150 431 c-5 -11 -10 -28 -10 -38 -1 -17 -1 -17 -14 0 -12 16 -14
16 -20 2 -8 -22 -28 -8 -21 15 3 10 1 21 -5 25 -6 4 -10 -8 -10 -31 0 -33 2
-36 22 -31 12 4 27 2 34 -4 15 -13 30 7 36 49 5 37 3 40 -12 13z"/>
<path d="M7243 432 c-3 -12 -10 -22 -15 -22 -6 0 -8 7 -4 15 3 8 1 15 -4 15
-6 0 -10 -11 -10 -25 0 -14 6 -25 13 -25 15 0 41 49 32 58 -3 4 -8 -4 -12 -16z"/>
<path d="M4924 408 c-7 -22 -7 -22 -15 -3 -8 19 -9 19 -6 1 3 -27 24 -31 32
-6 4 12 5 24 2 27 -3 2 -9 -6 -13 -19z"/>
<path d="M6620 411 c0 -10 -9 -40 -19 -65 -11 -25 -22 -62 -26 -83 -3 -25 5
-10 24 42 15 44 32 87 35 96 4 10 3 20 -3 24 -7 3 -11 -2 -11 -14z"/>
<path d="M6660 398 c0 -18 -9 -62 -20 -96 -30 -97 -23 -98 11 -2 35 97 39 121
22 127 -9 3 -13 -6 -13 -29z"/>
<path d="M2915 410 c-4 -6 -5 -12 -4 -14 2 -1 16 -10 32 -19 31 -20 36 -59 11
-95 -8 -12 -10 -22 -5 -22 6 0 18 14 27 31 19 39 29 27 33 -38 2 -50 18 -80
33 -65 6 6 3 28 -6 56 -20 59 -20 65 1 89 17 18 17 19 -2 33 -10 8 -25 14 -33
14 -8 0 -29 9 -48 20 -22 14 -35 17 -39 10z m113 -62 c-6 -17 -38 -19 -38 -2
0 8 9 14 21 14 11 0 19 -5 17 -12z"/>
<path d="M5042 400 c-7 -11 -8 -20 -3 -20 9 0 24 30 18 36 -1 2 -8 -6 -15 -16z"/>
<path d="M6802 390 c0 -19 2 -27 5 -17 2 9 2 25 0 35 -3 9 -5 1 -5 -18z"/>
<path d="M3270 400 c0 -5 6 -10 14 -10 14 0 60 -48 82 -86 7 -10 15 -16 19
-12 5 5 1 16 -7 25 -8 10 -18 26 -21 35 -4 10 -21 27 -39 38 -37 22 -48 25
-48 10z"/>
<path d="M6920 368 c0 -18 4 -27 11 -23 6 4 8 14 5 22 -3 8 -1 11 4 8 6 -3 10
0 10 8 0 7 -7 14 -15 14 -10 0 -15 -10 -15 -29z"/>
<path d="M6966 375 c9 -40 22 -55 48 -54 20 0 20 1 -3 10 -19 7 -22 14 -17 37
3 15 3 21 0 14 -5 -10 -9 -9 -20 5 -13 16 -14 15 -8 -12z"/>
<path d="M6210 326 c0 -64 2 -67 17 -21 7 22 6 37 -4 55 -12 23 -13 21 -13
-34z"/>
<path d="M3461 350 c0 -8 4 -22 9 -30 12 -18 12 -2 0 25 -6 13 -9 15 -9 5z"/>
<path d="M3661 352 c-1 -7 -5 -10 -11 -7 -5 3 -10 0 -11 -7 0 -7 -2 -29 -4
-48 -3 -24 -1 -30 5 -20 6 8 10 25 10 37 0 12 5 23 12 25 6 2 8 11 5 19 -4 10
-6 10 -6 1z"/>
<path d="M4821 335 c0 -16 3 -34 7 -40 12 -17 32 -16 32 2 0 9 -3 13 -7 9 -4
-4 -13 8 -19 26 l-12 33 -1 -30z"/>
<path d="M6003 343 c-7 -3 -13 -9 -13 -14 0 -4 7 -6 16 -2 14 5 16 2 9 -23
-11 -43 -11 -48 0 -54 12 -6 20 79 8 90 -4 4 -14 5 -20 3z"/>
<path d="M3117 333 c-9 -15 -6 -98 5 -115 7 -10 11 -9 22 5 12 15 14 16 20 2
8 -22 23 -19 29 7 4 14 0 26 -11 34 -14 11 -20 10 -34 -9 -16 -21 -17 -21 -20
33 -2 30 -6 50 -11 43z"/>
<path d="M4457 323 c-3 -4 -12 -32 -21 -62 -18 -63 -21 -111 -5 -111 5 0 8 4
5 8 -3 5 4 44 14 87 18 72 20 100 7 78z"/>
<path d="M6284 318 c-4 -7 -14 -23 -22 -35 -8 -13 -12 -23 -9 -23 9 0 50 61
44 66 -3 3 -8 -1 -13 -8z"/>
<path d="M3568 304 c-6 -10 20 -79 28 -72 2 3 -2 22 -9 43 -8 21 -16 34 -19
29z"/>
<path d="M4752 290 c0 -14 2 -19 5 -12 2 6 2 18 0 25 -3 6 -5 1 -5 -13z"/>
<path d="M6724 298 c-6 -7 -16 -25 -24 -40 -7 -16 -17 -28 -22 -28 -4 0 -8 -8
-8 -17 1 -14 6 -11 26 12 26 30 48 75 41 82 -2 2 -8 -2 -13 -9z"/>
<path d="M4932 289 c2 -7 10 -15 17 -17 8 -3 12 1 9 9 -2 7 -10 15 -17 17 -8
3 -12 -1 -9 -9z"/>
<path d="M5206 278 c-9 -12 -19 -37 -22 -55 -7 -39 -26 -43 -44 -9 -7 14 -19
27 -26 30 -7 3 3 -16 23 -42 39 -52 53 -62 53 -38 0 29 23 121 27 108 6 -15
23 -6 23 14 0 21 -17 17 -34 -8z"/>
<path d="M6512 285 c0 -11 3 -29 8 -40 11 -25 11 1 0 35 -6 20 -8 21 -8 5z"/>
<path d="M3286 247 c-9 -53 -7 -59 29 -63 23 -2 55 26 55 48 0 17 -18 7 -25
-14 l-8 -23 -4 23 c-3 15 -10 22 -18 18 -10 -3 -15 5 -17 27 -3 29 -5 27 -12
-16z"/>
<path d="M5070 245 c0 -20 9 -53 19 -74 20 -38 51 -71 51 -53 0 5 -7 15 -16
23 -27 22 -46 70 -40 100 3 16 1 31 -4 34 -6 4 -10 -9 -10 -30z"/>
<path d="M5388 273 c7 -3 16 -2 19 1 4 3 -2 6 -13 5 -11 0 -14 -3 -6 -6z"/>
<path d="M6865 269 c-9 -14 -2 -20 14 -10 8 6 9 11 3 15 -6 3 -14 1 -17 -5z"/>
<path d="M7048 266 c-15 -8 -30 -11 -34 -8 -4 4 -4 2 0 -5 5 -9 13 -10 34 -1
15 7 31 15 37 20 15 13 -7 9 -37 -6z"/>
<path d="M3055 260 c4 -6 11 -8 16 -5 14 9 11 15 -7 15 -8 0 -12 -5 -9 -10z"/>
<path d="M4010 260 c0 -8 5 -22 10 -30 9 -13 10 -13 10 0 0 8 -5 22 -10 30 -9
13 -10 13 -10 0z"/>
<path d="M4362 245 c0 -16 2 -22 5 -12 2 9 2 23 0 30 -3 6 -5 -1 -5 -18z"/>
<path d="M4517 252 c-15 -17 -47 -94 -47 -113 0 -5 4 -9 10 -9 5 0 13 18 16
41 4 22 15 50 25 62 18 21 18 21 18 2 0 -11 -4 -39 -8 -62 -15 -77 7 -47 34
46 5 16 4 21 -4 17 -6 -4 -11 -1 -11 8 0 23 -16 27 -33 8z"/>
<path d="M4802 255 c0 -11 4 -31 8 -45 l8 -25 0 25 c0 14 -3 34 -8 45 l-9 20
1 -20z"/>
<path d="M6270 240 c-12 -17 -25 -28 -29 -25 -5 2 -13 -7 -19 -20 -7 -14 -8
-25 -3 -25 10 0 55 51 70 79 17 31 6 26 -19 -9z"/>
<path d="M4060 257 c0 -5 5 -17 11 -28 6 -11 8 -25 6 -32 -3 -7 -12 4 -20 23
-9 19 -16 27 -17 18 0 -16 70 -131 76 -125 4 4 -33 114 -45 134 -6 10 -11 14
-11 10z"/>
<path d="M4177 215 c-35 -41 -48 -71 -28 -63 16 6 81 97 72 102 -4 3 -24 -15
-44 -39z"/>
<path d="M4761 245 c0 -11 4 -29 9 -40 l9 -20 0 20 c0 11 -4 29 -9 40 l-9 20
0 -20z"/>
<path d="M6061 244 c0 -11 3 -14 6 -6 3 7 2 16 -1 19 -3 4 -6 -2 -5 -13z"/>
<path d="M6935 245 c-16 -8 -23 -14 -14 -15 8 0 24 7 35 15 23 18 18 18 -21 0z"/>
<path d="M4731 240 c0 -8 4 -24 9 -35 5 -13 9 -14 9 -5 0 8 -4 24 -9 35 -5 13
-9 14 -9 5z"/>
<path d="M6450 236 c0 -9 4 -16 9 -16 6 0 12 -15 14 -32 l4 -33 1 36 c1 22 -4
42 -13 49 -12 10 -15 10 -15 -4z"/>
<path d="M5250 199 c-6 -24 -13 -52 -16 -61 -3 -10 -1 -18 5 -18 6 0 11 11 11
24 0 12 5 37 11 55 6 18 9 34 6 38 -3 3 -11 -15 -17 -38z"/>
<path d="M5841 230 c-1 -8 -4 -26 -7 -40 -5 -19 -4 -22 5 -14 7 6 11 24 8 40
-2 16 -5 22 -6 14z"/>
<path d="M6848 205 c-17 -22 -17 -23 2 -18 27 7 44 29 28 36 -7 2 -21 -6 -30
-18z"/>
<path d="M3235 210 c-3 -5 1 -10 9 -10 9 0 16 5 16 10 0 6 -4 10 -9 10 -6 0
-13 -4 -16 -10z"/>
<path d="M5305 196 c-18 -26 -28 -66 -17 -66 4 0 14 20 23 45 18 50 17 56 -6
21z"/>
<path d="M6315 197 c-23 -24 -55 -73 -55 -82 0 -3 20 15 45 42 25 26 45 51 45
55 0 14 -15 8 -35 -15z"/>
<path d="M4238 168 c-21 -23 -38 -45 -38 -50 0 -20 21 -4 54 42 44 61 37 65
-16 8z"/>
<path d="M4371 208 c-2 -20 32 -87 41 -82 6 4 6 9 2 13 -5 3 -17 22 -26 41 -9
19 -17 32 -17 28z"/>
<path d="M5361 186 c-8 -13 -11 -30 -8 -38 3 -9 7 -7 12 7 3 11 11 28 16 38 5
9 5 17 1 17 -5 0 -14 -11 -21 -24z"/>
<path d="M5514 186 c0 -11 -4 -29 -8 -38 -5 -10 -4 -18 0 -18 15 0 33 68 20
73 -6 3 -11 -5 -12 -17z"/>
<path d="M6611 194 c0 -11 3 -14 6 -6 3 7 2 16 -1 19 -3 4 -6 -2 -5 -13z"/>
<path d="M6725 199 c-11 -17 0 -20 21 -4 17 13 17 14 2 15 -9 0 -20 -5 -23
-11z"/>
<path d="M4861 169 c0 -19 4 -43 9 -54 6 -13 7 -2 3 30 -7 59 -13 72 -12 24z"/>
<path d="M5425 170 c-9 -16 -11 -30 -6 -30 5 0 14 14 20 30 5 17 8 30 6 30 -3
0 -11 -13 -20 -30z"/>
<path d="M6150 188 c0 -7 5 -20 10 -28 8 -12 10 -9 10 13 0 15 -4 27 -10 27
-5 0 -10 -6 -10 -12z"/>
<path d="M6945 190 c-3 -5 1 -10 9 -10 9 0 16 5 16 10 0 6 -4 10 -9 10 -6 0
-13 -4 -16 -10z"/>
<path d="M3984 165 c-4 -16 -2 -31 6 -38 10 -10 12 -8 6 7 -3 10 -2 24 4 31 7
9 8 15 1 20 -6 3 -13 -6 -17 -20z"/>
<path d="M4031 174 c0 -11 3 -14 6 -6 3 7 2 16 -1 19 -3 4 -6 -2 -5 -13z"/>
<path d="M4924 160 c-7 -30 -8 -32 -21 -15 -15 22 -18 3 -3 -26 16 -30 27 -23
34 22 8 50 -1 66 -10 19z"/>
<path d="M6645 170 c-4 -12 -5 -24 -2 -27 3 -2 8 5 12 17 4 12 5 24 2 27 -3 2
-8 -5 -12 -17z"/>
<path d="M6755 170 c-10 -11 -14 -20 -9 -20 5 0 15 9 22 20 7 11 11 20 9 20
-2 0 -12 -9 -22 -20z"/>
<path d="M3930 170 c0 -6 7 -10 15 -10 8 0 15 2 15 4 0 2 -7 6 -15 10 -8 3
-15 1 -15 -4z"/>
<path d="M4740 170 c0 -8 5 -22 10 -30 9 -13 10 -13 10 0 0 8 -5 22 -10 30 -9
13 -10 13 -10 0z"/>
<path d="M4794 144 c8 -17 24 -34 36 -37 22 -6 25 0 10 23 -9 13 -10 13 -10 0
-1 -10 -10 -4 -26 15 l-26 30 16 -31z"/>
<path d="M6070 149 c-6 -11 -10 -25 -8 -30 2 -5 8 4 15 21 13 34 9 40 -7 9z"/>
<path d="M6191 154 c0 -11 3 -14 6 -6 3 7 2 16 -1 19 -3 4 -6 -2 -5 -13z"/>
<path d="M5550 155 c0 -2 5 -16 12 -30 12 -27 34 -36 24 -9 -3 9 -6 19 -6 24
0 4 -7 10 -15 14 -8 3 -15 3 -15 1z"/>
<path d="M6596 145 c-3 -8 -1 -15 4 -15 6 0 10 7 10 15 0 8 -2 15 -4 15 -2 0
-6 -7 -10 -15z"/>
<path d="M6990 140 c-6 -11 -7 -20 -3 -20 15 1 43 27 36 33 -11 12 -22 8 -33
-13z"/>
<path d="M5906 133 c-6 -14 -5 -15 5 -6 7 7 10 15 7 18 -3 3 -9 -2 -12 -12z"/>
<path d="M6697 143 c-4 -3 -7 -13 -7 -22 1 -13 3 -13 11 2 11 19 8 33 -4 20z"/>
<path d="M4430 131 c0 -6 4 -13 10 -16 6 -3 7 1 4 9 -7 18 -14 21 -14 7z"/>
<path d="M5986 125 c-9 -26 -7 -32 5 -12 6 10 9 21 6 23 -2 3 -7 -2 -11 -11z"/>
<path d="M5775 100 c-3 -5 -1 -10 4 -10 6 0 11 5 11 10 0 6 -2 10 -4 10 -3 0
-8 -4 -11 -10z"/>
</g>
</svg>
