<?xml version="1.0" standalone="no"?>
<!DOCTYPE svg PUBLIC "-//W3C//DTD SVG 20010904//EN"
 "http://www.w3.org/TR/2001/REC-SVG-20010904/DTD/svg10.dtd">
<svg version="1.0" xmlns="http://www.w3.org/2000/svg"
 width="1000.000000pt" height="636.000000pt" viewBox="0 0 1000.000000 636.000000"
 preserveAspectRatio="xMidYMid meet">
<metadata>
Created by potrace 1.16, written by Peter Selinger 2001-2019
</metadata>
<g transform="translate(0.000000,636.000000) scale(0.100000,-0.100000)"
fill="#000000" stroke="none">
<path d="M7325 6270 c-11 -5 -33 -9 -50 -10 -79 -2 -213 -109 -262 -209 -26
-53 -28 -63 -25 -175 2 -116 1 -121 -25 -158 -47 -69 -231 -211 -297 -230 -22
-6 -45 -15 -51 -19 -5 -3 -49 -19 -97 -33 -124 -37 -117 -56 21 -56 46 0 82 5
89 12 6 6 21 13 32 15 30 4 266 97 338 132 34 17 67 31 73 31 6 0 17 7 25 15
21 20 112 21 120 0 5 -12 9 -12 27 0 12 7 49 16 82 20 35 4 74 16 95 30 48 30
98 60 143 85 36 20 37 20 37 1 0 -23 29 -36 36 -16 3 8 -1 22 -10 30 -21 22
-20 28 8 62 34 40 94 72 105 55 4 -7 16 -12 27 -11 44 4 51 -1 52 -36 1 -21
-3 -33 -8 -30 -6 3 -10 15 -10 26 0 15 -6 20 -22 17 -31 -4 -38 -47 -9 -55 39
-10 27 -55 -25 -99 -67 -56 -72 -58 -100 -39 -22 14 -25 14 -31 -1 -3 -9 -1
-25 5 -34 9 -15 7 -21 -13 -34 -30 -20 -35 -20 -35 -1 0 23 -18 18 -22 -7 -2
-15 -13 -24 -38 -31 -19 -5 -42 -15 -51 -23 -27 -24 -42 -17 -35 16 3 17 1 30
-4 30 -6 0 -10 -7 -10 -15 0 -8 -5 -15 -12 -15 -6 0 -19 -6 -27 -14 -14 -12
-28 -12 -96 1 -44 8 -95 14 -113 14 -33 -1 -104 -42 -132 -76 -13 -16 -11 -20
19 -44 19 -14 55 -31 80 -38 99 -28 368 -74 398 -69 34 5 102 47 164 100 19
17 52 45 72 61 38 30 61 65 116 171 34 64 37 80 19 87 -10 3 -10 7 -2 18 7 8
15 29 19 47 8 37 22 42 34 10 8 -21 8 -21 15 5 3 15 11 27 16 27 5 0 17 16 25
37 8 20 18 34 21 31 3 -4 -7 -30 -22 -59 -14 -29 -32 -69 -40 -89 -9 -26 -13
-30 -13 -13 -2 38 -21 37 -21 -2 0 -42 -19 -125 -32 -142 -14 -17 8 -26 34
-12 37 19 58 41 58 59 0 10 7 20 15 24 18 6 20 36 3 36 -6 0 -22 -10 -35 -22
-28 -26 -31 -6 -3 22 22 22 36 25 45 10 5 -8 11 -7 21 1 23 19 17 -6 -11 -50
-13 -22 -27 -51 -31 -65 -7 -30 -21 -41 -49 -41 -34 0 -25 -38 13 -54 17 -8
32 -21 32 -28 0 -7 11 -13 24 -13 13 0 29 -7 36 -15 20 -24 30 -18 30 18 0 37
6 47 37 65 35 19 37 15 14 -24 -20 -34 -20 -54 -1 -54 11 0 60 99 60 122 0 11
9 36 19 57 37 72 36 191 -1 191 -7 0 -27 -17 -45 -37 -40 -47 -43 -27 -7 52
23 51 25 59 11 72 -21 21 -51 3 -79 -50 l-23 -42 -3 42 c-2 24 4 55 12 72 21
39 20 51 -3 51 -11 0 -44 -28 -77 -65 -31 -36 -62 -64 -68 -62 -6 2 -14 17
-17 33 l-7 29 -1 -34 c-1 -20 -11 -45 -28 -65 -16 -19 -23 -23 -18 -11 25 61
35 97 29 106 -3 5 -1 15 5 22 28 35 -25 126 -134 233 -78 75 -199 124 -320
129 -49 2 -99 0 -110 -5z m-87 -222 c-8 -13 -17 -39 -20 -58 -12 -73 -40 -150
-58 -160 -47 -25 -71 30 -46 105 21 61 41 90 79 114 45 29 64 28 45 -1z m108
-80 c-9 -5 -21 -6 -27 -2 -13 8 -59 -34 -60 -55 0 -9 -3 -11 -5 -4 -3 6 2 25
10 42 12 22 24 31 48 33 41 4 56 -2 34 -14z m54 -20 c25 -28 27 -89 3 -110
-36 -31 -59 -38 -96 -27 -20 5 -39 15 -43 21 -5 8 -1 9 12 3 49 -20 75 -18
105 11 34 33 37 61 8 98 -25 32 -18 35 11 4z m-66 -33 c-4 -8 -10 -15 -15 -15
-4 0 -6 7 -3 15 4 8 10 15 15 15 4 0 6 -7 3 -15z m526 -10 c0 -13 -21 -25 -46
-25 -8 0 -14 7 -14 16 0 13 3 14 14 5 11 -9 15 -7 19 10 6 22 27 18 27 -6z
m-606 -31 c3 -8 2 -12 -4 -9 -6 3 -10 10 -10 16 0 14 7 11 14 -7z m597 -45
c-6 -16 -10 -18 -10 -7 -1 22 12 55 16 42 2 -6 -1 -22 -6 -35z m294 9 c-13
-47 -28 -78 -37 -78 -5 0 -4 9 2 20 6 11 8 25 5 30 -7 12 12 50 26 50 6 0 8
-10 4 -22z m-114 -21 c-10 -9 -11 -8 -5 6 3 10 9 15 12 12 3 -3 0 -11 -7 -18z
m57 -39 c-6 -18 -13 -27 -15 -21 -4 11 13 53 22 53 2 0 -1 -15 -7 -32z m-80
-33 c-6 -14 -15 -25 -20 -25 -11 0 -10 7 2 31 16 28 32 23 18 -6z m29 -27 c-3
-8 -6 -5 -6 6 -1 11 2 17 5 13 3 -3 4 -12 1 -19z m55 -24 c-7 -12 -11 -13 -17
-4 -4 7 -2 16 6 21 18 11 23 4 11 -17z m73 6 c-3 -5 -10 -10 -16 -10 -5 0 -9
5 -9 10 0 6 7 10 16 10 8 0 12 -4 9 -10z m-96 -57 c-12 -32 -28 -53 -40 -53
-16 0 -10 26 12 54 27 34 41 33 28 -1z m51 -15 c-8 -48 -55 -158 -67 -158 -4
0 -17 7 -28 16 -14 11 -17 19 -10 30 11 17 30 20 30 5 0 -5 3 -13 8 -17 4 -4
7 2 7 13 0 11 9 32 20 46 11 14 20 36 20 50 0 30 9 57 19 57 5 0 5 -19 1 -42z
m70 14 c0 -16 -32 -52 -46 -52 -18 0 -18 10 2 38 14 21 44 31 44 14z m-222
-34 c-16 -24 -38 -35 -38 -20 0 14 29 42 42 42 6 0 4 -9 -4 -22z m62 -53 c-16
-19 -30 -19 -30 -1 0 8 8 16 18 18 24 6 27 1 12 -17z m130 6 c0 -13 -29 -35
-37 -28 -7 8 15 37 28 37 5 0 9 -4 9 -9z m-750 -181 c0 -5 -5 -10 -11 -10 -5
0 -7 5 -4 10 3 6 8 10 11 10 2 0 4 -4 4 -10z"/>
<path d="M2613 6169 c-27 -5 -61 -23 -98 -53 -31 -25 -60 -46 -65 -46 -6 0
-43 -31 -82 -69 -54 -50 -83 -70 -111 -75 -114 -21 -241 -116 -270 -201 -18
-51 -10 -69 24 -57 22 8 77 8 124 -1 34 -6 84 -36 95 -58 8 -14 17 -18 32 -13
12 3 24 1 28 -6 11 -18 30 -3 30 23 1 20 2 21 14 5 16 -22 30 -23 46 -3 21 25
37 18 32 -14 -5 -33 12 -41 93 -41 66 0 80 -11 81 -59 0 -32 -4 -41 -20 -45
-12 -3 -22 -1 -24 4 -2 6 -10 10 -17 10 -14 0 -38 -45 -54 -105 -14 -51 -21
-61 -48 -69 -18 -6 -23 -3 -23 10 0 13 -6 10 -28 -13 -35 -36 -46 -27 -55 44
-9 79 -31 123 -61 123 -14 0 -28 -5 -31 -11 -15 -24 -34 -128 -35 -186 0 -39
-4 -63 -12 -67 -9 -3 -8 -9 5 -20 14 -11 16 -19 9 -33 -10 -19 5 -93 32 -154
l14 -34 0 30 c1 17 -3 39 -7 50 -5 11 -4 25 0 31 6 7 5 22 -1 38 -5 15 -10 90
-10 166 0 121 2 141 19 161 l20 24 15 -37 c9 -21 16 -51 16 -67 0 -16 5 -33
10 -36 15 -9 12 -25 -5 -25 -14 0 -35 -37 -35 -61 0 -19 17 -8 27 19 13 32 12
61 12 -288 1 -138 5 -241 11 -250 13 -19 12 -25 10 182 -2 159 0 181 19 223
12 27 26 45 33 43 7 -3 21 -34 31 -69 17 -60 18 -126 4 -268 -1 -13 3 -26 9
-28 10 -3 28 73 40 173 5 43 1 62 -24 123 -22 51 -26 71 -16 67 9 -3 14 1 14
11 0 13 3 14 12 5 20 -20 28 -14 29 26 0 32 1 34 9 15 15 -37 33 -28 27 13 -4
25 -2 34 6 31 7 -2 12 -17 13 -33 0 -17 4 -35 8 -42 4 -7 2 -53 -4 -102 -7
-58 -8 -95 -2 -107 5 -10 11 -49 13 -88 4 -61 2 -70 -13 -67 -25 4 -33 -19 -8
-25 17 -4 20 -11 16 -29 -9 -36 8 -29 27 11 15 32 15 42 1 127 -21 121 -15
275 11 294 10 8 19 28 20 51 1 20 7 39 14 41 6 2 11 13 11 24 0 11 5 18 13 16
15 -5 29 -129 16 -143 -14 -14 -11 -25 7 -25 13 0 12 -5 -5 -26 -27 -34 -29
-63 -4 -43 16 13 16 11 -1 -15 -10 -15 -16 -36 -13 -46 2 -10 1 -24 -4 -31
-11 -19 0 -32 17 -18 24 20 17 -9 -16 -68 -35 -62 -37 -73 -9 -47 l21 19 -4
-40 c-3 -45 15 -66 20 -22 5 41 22 32 22 -12 0 -29 -6 -42 -22 -53 -20 -14
-21 -18 -10 -42 14 -31 32 -26 32 9 0 13 4 26 9 29 10 6 12 265 3 281 -3 5 -7
52 -9 104 -3 75 -1 93 9 83 21 -21 24 -14 25 71 2 118 3 136 14 165 14 37 26
17 33 -53 3 -34 2 -49 -2 -35 -4 14 -12 23 -17 20 -12 -6 -15 -70 -3 -70 4 0
8 -22 8 -49 0 -28 4 -52 9 -55 5 -3 11 -31 13 -63 4 -48 2 -60 -15 -73 -17
-14 -20 -32 -25 -138 -3 -87 -2 -122 7 -122 6 0 11 5 11 10 0 6 7 10 15 10 10
0 15 10 15 29 0 16 -7 34 -15 41 -16 14 -22 120 -6 120 14 0 21 -27 21 -76 0
-24 5 -44 10 -44 6 0 10 9 10 21 0 12 8 23 19 26 11 3 22 14 25 26 10 39 16
11 18 -79 1 -67 5 -92 17 -101 25 -20 34 -15 28 15 -7 36 14 327 25 344 7 10
12 9 23 -6 8 -10 12 -23 8 -29 -3 -5 3 -6 16 -2 12 3 21 2 21 -4 0 -5 -8 -11
-17 -13 -13 -2 -17 -14 -18 -48 -1 -25 0 -49 4 -55 7 -13 10 -40 12 -96 2 -54
27 -79 52 -51 30 35 29 157 -1 138 -6 -4 -13 29 -17 89 -4 52 -11 98 -16 101
-5 3 -9 -5 -10 -18 l0 -23 -11 22 c-23 48 -62 33 -75 -29 -3 -16 -9 -28 -14
-28 -9 0 -11 7 -13 55 -1 26 -4 30 -26 27 -14 -1 -30 -9 -36 -17 -19 -25 -24
-17 -23 38 1 30 4 40 6 24 6 -40 29 -27 25 14 -1 24 1 30 7 20 8 -12 14 -13
35 -3 23 10 26 9 26 -8 0 -10 5 -22 10 -25 6 -4 10 7 10 24 0 20 5 31 14 31 8
0 17 10 20 23 3 12 10 29 16 37 8 13 11 12 25 -5 15 -19 15 -18 13 22 -1 23 1
45 5 49 4 4 7 -7 7 -24 0 -34 16 -44 22 -14 7 30 -22 100 -50 118 -14 9 -38
31 -54 47 -26 29 -29 30 -54 16 -15 -7 -31 -24 -37 -36 -5 -12 -18 -24 -28
-26 -11 -3 -19 -12 -19 -21 0 -9 -4 -16 -10 -16 -5 0 -10 9 -10 21 0 24 -17
59 -29 59 -13 0 -51 -86 -51 -116 0 -22 -3 -25 -12 -16 -16 16 -38 15 -38 -2
0 -9 -7 -12 -20 -9 -12 3 -22 -1 -26 -11 -7 -17 -34 -22 -34 -6 0 16 23 60 31
60 4 0 11 -4 14 -10 11 -18 23 -11 39 22 19 37 20 64 5 107 -8 24 -8 35 1 46
17 21 -6 28 -74 22 -62 -5 -85 3 -62 22 8 7 20 10 27 6 6 -4 14 -3 18 3 3 5
35 13 71 17 63 7 66 6 79 -18 13 -25 7 -72 -9 -62 -5 3 -11 1 -15 -5 -3 -6 1
-13 9 -16 9 -3 13 -10 10 -15 -8 -14 6 -10 22 6 21 21 32 19 36 -7 2 -13 8
-23 13 -23 20 0 16 54 -9 104 -25 54 -20 79 8 36 20 -30 36 -25 36 11 0 29
-46 124 -60 124 -5 0 -26 15 -46 34 l-37 34 69 32 c85 39 129 72 149 110 20
39 19 50 -9 85 -23 28 -29 30 -95 31 -73 0 -80 -3 -58 -25 10 -11 9 -13 -4 -8
-11 3 -29 -7 -50 -29 -19 -19 -45 -41 -59 -48 -14 -7 -38 -20 -55 -29 -30 -15
-123 -47 -137 -47 -16 0 -7 21 33 75 45 59 59 67 59 35 0 -11 -7 -20 -15 -20
-17 0 -20 -16 -4 -25 9 -6 29 0 99 33 22 11 23 12 3 7 -13 -3 -32 -8 -43 -11
-17 -5 -20 -1 -20 29 0 51 29 72 101 73 33 0 61 3 64 6 12 12 -44 24 -82 17z
m231 -75 c25 -25 35 -54 19 -54 -5 0 -17 14 -28 30 -23 35 -26 35 -71 14 -18
-9 -39 -14 -46 -12 -13 5 66 47 88 48 6 0 23 -12 38 -26z m-17 -46 c7 -14 10
-33 7 -42 -6 -15 -8 -15 -20 1 -12 17 -13 16 -8 -3 5 -17 0 -22 -23 -27 -15
-3 -32 -2 -38 2 -5 4 -18 -1 -28 -11 -18 -19 -17 -19 19 -12 22 4 35 3 31 -2
-6 -10 -89 -54 -110 -58 -7 -2 -20 -6 -30 -11 -17 -7 -57 18 -57 35 0 13 69
17 81 5 8 -7 10 -6 7 5 -3 8 -10 15 -16 14 -7 -1 -30 -2 -52 -2 -29 -2 -40 -6
-40 -18 0 -9 -6 -14 -12 -11 -22 7 -14 30 12 37 14 4 44 18 65 32 77 47 72 49
51 -17 -4 -11 5 2 18 29 40 80 117 109 143 54z m-387 -12 c0 -3 -4 -8 -10 -11
-5 -3 -10 -1 -10 4 0 6 5 11 10 11 6 0 10 -2 10 -4z m29 -105 c-27 -23 -39
-26 -39 -10 0 5 -4 7 -10 4 -5 -3 -10 -1 -10 4 0 6 10 11 23 11 12 0 29 4 37
10 25 15 24 2 -1 -19z m-104 9 c-3 -5 -11 -10 -16 -10 -6 0 -7 5 -4 10 3 6 11
10 16 10 6 0 7 -4 4 -10z m25 -10 c0 -5 -5 -10 -11 -10 -5 0 -7 5 -4 10 3 6 8
10 11 10 2 0 4 -4 4 -10z m-60 -60 c0 -6 -9 -18 -19 -27 -11 -9 -18 -20 -15
-25 3 -4 -2 -5 -10 -2 -22 8 -20 15 12 41 32 26 32 26 32 13z m115 -10 c-10
-11 -20 -18 -23 -15 -7 6 18 35 31 35 5 0 2 -9 -8 -20z m129 9 c3 -3 -4 -10
-14 -17 -17 -10 -18 -9 -13 6 6 15 5 15 -10 3 -15 -12 -17 -12 -11 2 5 15 36
18 48 6z m36 -34 c0 -7 -58 -35 -72 -35 -7 1 3 9 22 19 37 20 50 24 50 16z
m-252 -27 c-5 -13 -58 -31 -58 -19 0 8 38 29 53 30 5 1 7 -4 5 -11z m72 -4 c0
-4 -11 -17 -25 -30 -28 -26 -34 -14 -7 15 17 20 32 26 32 15z m-84 -54 c9 0
12 -5 8 -11 -4 -8 1 -9 17 -4 23 7 23 7 -3 -14 -31 -25 -42 -27 -34 -6 4 10
-1 15 -14 15 -12 0 -20 7 -20 16 0 11 5 14 16 10 9 -3 22 -6 30 -6z m-146 -35
c-7 -8 -17 -12 -23 -8 -6 4 -3 11 8 19 23 17 32 10 15 -11z m50 -25 c0 -5 -4
-10 -10 -10 -5 0 -10 5 -10 10 0 6 5 10 10 10 6 0 10 -4 10 -10z m-45 -28 c-3
-3 -11 0 -18 7 -9 10 -8 11 6 5 10 -3 15 -9 12 -12z m265 -26 c0 -11 -19 -15
-25 -6 -3 5 1 10 9 10 9 0 16 -2 16 -4z m380 -206 c0 -16 -4 -30 -10 -30 -5 0
-10 14 -10 30 0 17 5 30 10 30 6 0 10 -13 10 -30z m-315 -21 c9 -28 -2 -69
-19 -69 -8 0 -17 -7 -20 -16 -4 -9 -9 -14 -12 -11 -5 4 7 63 21 105 7 19 23
14 30 -9z m395 -19 c0 -13 -5 -18 -15 -14 -16 7 -19 17 -8 27 12 13 23 7 23
-13z m-40 -50 c0 -21 -15 -27 -25 -10 -7 12 2 30 16 30 5 0 9 -9 9 -20z m-490
-114 c0 -2 -3 -11 -6 -20 -9 -23 -24 -20 -24 4 0 11 7 20 15 20 8 0 15 -2 15
-4z m-52 -43 c-4 -48 -28 -57 -28 -10 0 18 3 37 7 40 16 16 24 4 21 -30z m99
15 c-3 -8 -6 -5 -6 6 -1 11 2 17 5 13 3 -3 4 -12 1 -19z m412 -82 c14 -55 14
-86 1 -86 -5 0 -14 9 -20 20 -6 11 -20 20 -30 20 -24 0 -24 -1 -6 41 27 63 40
64 55 5z m-39 -96 c0 -31 -16 -41 -26 -15 -5 13 11 45 22 45 2 0 4 -13 4 -30z
m220 -76 c0 -13 -4 -24 -10 -24 -5 0 -10 14 -10 31 0 17 4 28 10 24 6 -3 10
-17 10 -31z m-363 -56 c-3 -7 -5 -2 -5 12 0 14 2 19 5 13 2 -7 2 -19 0 -25z"/>
<path d="M2747 6033 c-4 -3 -7 -13 -7 -21 0 -13 3 -13 18 1 10 10 22 14 27 10
4 -5 5 -2 1 5 -8 13 -29 16 -39 5z"/>
<path d="M2616 6133 c-3 -4 -6 -16 -6 -29 0 -17 4 -21 20 -17 23 6 27 38 6 46
-8 3 -17 3 -20 0z"/>
<path d="M7708 5813 c-8 -38 -28 -44 -29 -10 l0 22 -11 -22 c-11 -23 2 -53 23
-53 13 0 31 49 27 74 -3 16 -5 13 -10 -11z"/>
<path d="M7561 5700 c-1 -8 -5 -21 -10 -29 -8 -13 -12 -13 -26 -1 -15 12 -16
11 -13 -15 4 -41 32 -44 47 -6 7 16 11 38 8 48 -3 12 -5 13 -6 3z"/>
<path d="M7690 5691 c0 -24 22 -28 40 -6 8 9 8 15 2 15 -6 0 -17 3 -26 6 -12
4 -16 0 -16 -15z"/>
<path d="M2000 5652 c-44 -4 -87 -38 -96 -74 -5 -22 -2 -28 9 -28 9 0 20 7 25
16 6 10 19 14 38 12 l29 -4 -40 -18 c-47 -22 -57 -34 -44 -57 13 -24 11 -29
-7 -29 -9 0 -36 -13 -60 -30 -46 -30 -147 -80 -164 -80 -6 0 -10 -4 -10 -10 0
-5 7 -10 16 -10 38 0 2 -26 -55 -40 -35 -8 -68 -23 -75 -33 -7 -9 -24 -17 -37
-17 -13 0 -32 -7 -41 -14 -23 -17 -24 -72 -2 -80 9 -4 17 -5 18 -4 12 31 28
43 59 46 19 2 41 10 47 18 7 8 22 14 33 14 11 0 33 14 47 32 16 19 37 33 52
33 35 2 99 51 142 108 l36 50 0 -39 c0 -22 9 -53 20 -71 24 -40 76 -69 95 -53
23 19 26 -6 6 -42 -23 -38 -40 -125 -24 -115 6 4 14 26 17 49 7 45 39 98 52
86 4 -4 1 -14 -5 -22 -10 -12 -9 -14 8 -9 15 4 21 1 21 -11 0 -9 4 -16 8 -16
5 0 14 44 21 98 11 83 10 102 -2 132 -23 53 -50 74 -84 64 -39 -12 -104 -11
-100 1 5 15 52 20 136 15 59 -4 76 -8 76 -20 0 -28 31 -41 75 -31 23 5 52 8
66 6 13 -1 27 2 30 6 3 5 10 9 16 9 7 0 9 -17 5 -49 -3 -28 -1 -53 5 -59 7 -7
4 -16 -11 -28 -15 -13 -18 -21 -9 -31 15 -18 25 -16 31 7 3 11 11 19 19 18 8
-2 14 9 16 30 2 20 9 32 18 32 19 0 12 39 -17 99 -10 22 -19 45 -19 51 0 16
-41 12 -116 -11 l-68 -21 -18 22 c-10 12 -18 26 -18 31 0 13 28 -1 34 -17 7
-19 26 -8 26 15 0 24 -30 49 -68 57 -18 4 -32 10 -32 15 0 8 -49 9 -130 1z
m80 -61 c0 -9 -41 -23 -48 -16 -2 2 -1 8 3 14 8 13 45 15 45 2z m55 -11 c-3
-5 -11 -10 -16 -10 -6 0 -7 5 -4 10 3 6 11 10 16 10 6 0 7 -4 4 -10z m-166
-192 c0 -33 -2 -38 -9 -23 -12 28 -12 65 0 65 6 0 10 -19 9 -42z"/>
<path d="M7437 5623 c-10 -16 3 -65 16 -60 6 2 13 9 15 17 3 7 0 10 -6 6 -6
-4 -12 5 -14 21 -2 18 -6 24 -11 16z"/>
<path d="M7358 5594 c-5 -4 -8 -20 -8 -36 0 -21 5 -28 19 -28 10 0 21 7 25 15
3 9 0 15 -9 15 -7 0 -15 9 -17 21 -2 11 -6 17 -10 13z"/>
<path d="M7286 5564 c-9 -24 12 -44 24 -24 5 8 8 19 7 24 -6 17 -24 17 -31 0z"/>
<path d="M3016 5554 c-9 -8 -16 -25 -16 -37 1 -22 1 -22 16 -2 13 17 16 18 24
5 5 -8 10 -18 10 -22 0 -5 5 -8 10 -8 14 0 12 54 -2 68 -16 16 -23 15 -42 -4z"/>
<path d="M3130 5521 c0 -6 5 -13 10 -16 6 -3 10 -15 10 -26 0 -21 15 -26 25
-8 13 19 -4 59 -25 59 -11 0 -20 -4 -20 -9z"/>
<path d="M2491 5498 c-5 -13 -7 -25 -5 -27 7 -7 34 21 34 35 0 22 -20 16 -29
-8z"/>
<path d="M3083 5472 c-7 -4 -19 -35 -28 -67 -19 -76 -17 -326 2 -332 10 -4 12
33 11 164 -2 125 1 174 11 192 19 34 34 13 39 -58 3 -38 0 -61 -7 -66 -9 -5
-9 -10 -1 -20 8 -10 8 -19 1 -34 -8 -15 -8 -23 3 -34 10 -9 13 -35 12 -83 -1
-66 0 -69 22 -67 19 2 22 -2 22 -37 0 -22 4 -40 9 -40 16 0 20 27 10 70 -5 24
-7 57 -3 74 3 17 10 70 15 118 5 47 14 99 20 115 l11 28 10 -25 c17 -45 27
-251 15 -305 -19 -86 -19 -88 -6 -80 9 6 10 2 6 -13 -4 -12 -10 -31 -13 -42
-5 -16 -3 -19 10 -14 29 11 18 -29 -19 -70 -38 -42 -56 -42 -37 -1 18 39 14
53 -6 23 -14 -22 -21 -25 -30 -16 -10 10 -12 2 -11 -35 2 -43 4 -46 19 -32 9
8 24 15 33 15 9 0 24 11 33 25 9 14 22 24 28 22 5 -2 21 8 33 21 24 26 30 52
13 52 -5 0 -10 -7 -10 -16 0 -8 -4 -13 -9 -10 -6 4 -6 19 -1 39 5 17 12 52 15
77 3 25 9 79 14 120 8 57 6 90 -5 140 -16 73 -52 143 -75 148 -22 4 -49 -60
-49 -118 0 -28 -4 -50 -10 -50 -20 0 -39 58 -38 118 1 41 -4 68 -15 86 -19 28
-25 30 -44 18z m87 -298 c0 -25 -4 -43 -9 -40 -5 3 -7 20 -6 38 4 46 4 48 10
48 3 0 5 -21 5 -46z"/>
<path d="M8327 5414 c-4 -4 -7 -17 -7 -28 0 -28 -28 -68 -42 -60 -5 4 -7 19
-4 35 9 47 -13 34 -38 -23 -14 -32 -25 -47 -30 -39 -4 6 -6 17 -3 24 2 7 0 23
-5 37 l-9 25 -21 -25 -21 -25 8 32 c5 28 4 32 -9 27 -9 -3 -16 -1 -16 5 0 6
-7 11 -15 11 -12 0 -15 -11 -14 -47 1 -27 -1 -64 -3 -83 -3 -19 -2 -37 2 -40
4 -3 -6 -41 -22 -85 l-28 -80 3 79 c3 53 1 73 -5 61 -14 -24 -13 -197 1 -224
9 -16 10 -35 2 -71 -7 -33 -7 -66 0 -106 6 -33 12 -83 13 -112 3 -39 9 -60 24
-75 28 -27 36 -18 17 19 -25 48 -17 154 11 154 16 0 19 16 4 25 -12 8 -2 84
14 104 9 11 12 7 16 -20 5 -28 7 -30 11 -13 4 12 1 31 -5 43 -20 36 -46 6 -53
-62 -5 -47 -9 -57 -24 -57 -14 0 -19 8 -20 33 -2 51 2 71 15 82 8 7 12 40 12
100 0 66 4 98 16 121 17 31 42 49 57 39 4 -2 8 11 9 30 1 29 -2 35 -18 35 -29
0 -24 19 8 31 15 7 22 13 14 16 -6 3 -10 9 -6 14 12 20 22 7 28 -38 9 -67 16
-172 10 -150 -7 22 -21 22 -33 -1 -12 -22 -18 -99 -8 -108 4 -4 7 0 7 8 0 9 7
21 15 28 8 7 15 21 15 31 0 11 5 19 10 19 6 0 10 7 10 15 0 25 17 17 40 -20
13 -21 19 -43 15 -52 -5 -15 -7 -15 -15 -3 -9 13 -10 13 -11 0 -1 -8 -3 -40
-5 -70 -5 -60 13 -153 27 -144 5 3 9 -2 9 -11 0 -9 -4 -13 -10 -10 -5 3 -10 0
-10 -7 -1 -30 -22 26 -22 58 0 38 -14 46 -22 12 -2 -13 -3 10 -1 50 2 39 -1
72 -6 72 -11 0 -10 9 -15 -83 -4 -62 -2 -83 12 -107 15 -25 16 -33 4 -54 -16
-30 -18 -92 -6 -203 6 -60 5 -83 -3 -83 -6 0 -11 8 -11 17 0 11 -3 14 -10 7
-6 -6 -4 -26 5 -56 13 -46 13 -47 -13 -65 -15 -9 -31 -16 -35 -15 -10 3 -21
-27 -13 -35 3 -3 12 -1 20 6 12 10 16 3 26 -37 16 -59 46 -85 67 -56 9 13 13
14 13 4 0 -26 29 12 36 48 9 42 -10 42 -26 0 l-11 -33 -14 40 c-19 52 -19 60
1 44 14 -11 15 -10 12 7 -3 16 2 19 33 16 32 -3 37 0 43 22 3 13 3 32 0 41 -4
10 2 24 15 36 16 15 20 27 15 55 -5 33 10 124 25 149 3 6 4 20 3 32 -2 12 6
42 17 67 26 55 27 74 6 56 -24 -20 -24 -10 -4 55 25 80 29 140 9 140 -9 0 -17
-13 -20 -34 -3 -19 -11 -36 -17 -39 -14 -4 -8 48 10 82 5 10 12 44 14 74 5 50
4 54 -12 48 -14 -5 -16 -2 -11 16 13 47 19 151 9 145 -6 -4 -14 -23 -18 -43
-7 -41 -35 -104 -46 -104 -5 0 -1 37 16 115 22 110 23 120 11 133 -7 7 -15 9
-19 6z m-67 -118 c0 -26 -15 -43 -24 -28 -7 12 4 52 15 52 5 0 9 -11 9 -24z
m46 -72 c-13 -67 -13 -68 -26 -42 -10 22 -10 33 0 60 14 35 31 61 36 55 2 -2
-3 -34 -10 -73z m-82 30 c18 -18 21 -34 6 -34 -5 0 -10 7 -10 15 0 8 -4 15
-10 15 -5 0 -10 5 -10 10 0 14 6 13 24 -6z m-69 -34 c-3 -5 -13 -10 -21 -10
-8 0 -14 5 -14 10 0 6 9 10 21 10 11 0 17 -4 14 -10z m107 -54 c4 -22 3 -23
-19 -13 -22 10 -31 36 -16 50 10 10 30 -11 35 -37z m83 -35 c-4 -17 -11 -29
-16 -25 -5 3 -9 -6 -9 -20 0 -31 -15 -35 -23 -6 -3 12 4 29 19 45 13 14 24 31
24 37 0 6 3 9 6 5 3 -3 3 -19 -1 -36z m-62 -125 c6 -16 -2 -28 -14 -20 -12 7
-11 34 0 34 5 0 11 -6 14 -14z m87 10 c0 -3 -4 -8 -10 -11 -5 -3 -10 -1 -10 4
0 6 5 11 10 11 6 0 10 -2 10 -4z m-30 -46 c0 -5 -4 -10 -10 -10 -5 0 -10 5
-10 10 0 6 5 10 10 10 6 0 10 -4 10 -10z m-70 -28 c0 -15 -2 -15 -10 -2 -13
20 -13 33 0 25 6 -3 10 -14 10 -23z m116 -68 c-8 -31 -20 -31 -34 1 -6 14 -8
25 -3 25 5 0 11 -6 14 -12 2 -7 8 1 13 17 6 22 9 25 12 12 2 -10 1 -29 -2 -43z
m-86 4 c0 -16 -3 -19 -11 -11 -6 6 -8 16 -5 22 11 17 16 13 16 -11z m40 -32
c0 -3 -4 -8 -10 -11 -5 -3 -10 -1 -10 4 0 6 5 11 10 11 6 0 10 -2 10 -4z
m-260 -51 c0 -8 -2 -15 -4 -15 -2 0 -6 7 -10 15 -3 8 -1 15 4 15 6 0 10 -7 10
-15z m223 -67 c-10 -18 -32 -6 -38 22 -10 46 5 58 26 19 9 -19 15 -37 12 -41z
m37 62 c0 -5 -2 -10 -4 -10 -3 0 -8 5 -11 10 -3 6 -1 10 4 10 6 0 11 -4 11
-10z m35 0 c3 -5 1 -10 -4 -10 -6 0 -11 5 -11 10 0 6 2 10 4 10 3 0 8 -4 11
-10z m-125 -92 c0 -60 -12 -100 -25 -86 -8 8 -8 74 1 116 11 53 24 36 24 -30z
m27 -85 c-4 -17 -4 -17 -12 0 -4 9 -4 25 0 35 8 16 8 16 12 0 3 -10 3 -26 0
-35z m-7 -53 c0 -5 -5 -10 -11 -10 -5 0 -7 5 -4 10 3 6 8 10 11 10 2 0 4 -4 4
-10z m-13 -52 c-3 -8 -6 -5 -6 6 -1 11 2 17 5 13 3 -3 4 -12 1 -19z m27 -51
c4 -19 3 -26 -4 -22 -5 3 -10 18 -10 32 0 32 5 28 14 -10z"/>
<path d="M7810 5371 c0 -42 24 -58 44 -30 8 12 12 27 9 33 -4 6 -8 6 -11 -2
-6 -19 -22 -14 -22 8 0 11 -4 20 -10 20 -5 0 -10 -13 -10 -29z"/>
<path d="M6899 5348 c-29 -24 -60 -59 -70 -78 -10 -19 -22 -40 -27 -46 -6 -6
-25 -28 -43 -48 -27 -31 -32 -45 -30 -78 1 -26 -5 -52 -20 -76 -29 -50 -40
-90 -27 -98 14 -9 47 35 48 62 0 11 11 43 25 70 14 27 25 58 25 69 0 26 28 69
79 124 23 24 41 49 41 55 0 6 16 24 35 39 34 27 45 47 25 47 -5 0 -33 -19 -61
-42z"/>
<path d="M7729 5370 c0 -3 -2 -13 -4 -22 -4 -22 13 -34 28 -19 8 8 7 16 -6 28
-9 10 -17 15 -18 13z"/>
<path d="M6997 5353 c-4 -3 -7 -11 -7 -17 0 -6 5 -5 12 2 6 6 9 14 7 17 -3 3
-9 2 -12 -2z"/>
<path d="M6957 5313 c-2 -5 -7 -24 -11 -44 -8 -48 13 -57 48 -22 32 32 35 55
3 25 -32 -30 -39 -28 -31 13 6 32 1 46 -9 28z"/>
<path d="M7976 5305 c-8 -21 15 -55 36 -55 24 0 22 14 -6 45 -20 21 -25 23
-30 10z"/>
<path d="M7076 5284 c-9 -24 -7 -54 4 -54 6 0 10 6 10 13 0 6 3 22 6 35 7 25
-11 31 -20 6z"/>
<path d="M2237 5263 c-4 -3 -7 -13 -7 -22 1 -13 3 -13 11 2 11 19 8 33 -4 20z"/>
<path d="M7121 5219 c-16 -45 -14 -59 9 -59 12 0 25 13 36 35 18 38 13 61 -6
26 -15 -29 -32 -26 -24 4 9 36 -2 31 -15 -6z"/>
<path d="M7708 5223 c-17 -35 -38 -41 -45 -12 -6 21 -7 22 -13 3 -9 -23 5 -54
24 -54 25 0 66 41 66 66 0 32 -16 31 -32 -3z"/>
<path d="M6866 5189 c-2 -8 -9 -29 -15 -48 -6 -19 -11 -40 -11 -47 0 -21 24
-17 47 9 31 34 39 55 11 29 -31 -28 -39 -21 -26 25 9 33 4 62 -6 32z"/>
<path d="M7570 5185 c0 -8 5 -15 10 -15 6 0 10 7 10 15 0 8 -4 15 -10 15 -5 0
-10 -7 -10 -15z"/>
<path d="M7017 5183 c-3 -5 -9 -25 -15 -45 -8 -29 -7 -40 4 -48 10 -9 19 -6
39 16 26 28 32 44 15 44 -5 0 -10 -4 -10 -10 0 -5 -7 -10 -16 -10 -13 0 -15 7
-10 30 5 29 2 38 -7 23z"/>
<path d="M1930 5160 c-8 -15 -8 -20 1 -18 6 2 17 -15 23 -36 12 -41 36 -61 36
-30 0 26 -31 104 -41 104 -5 0 -13 -9 -19 -20z"/>
<path d="M7896 5155 c-6 -17 8 -60 22 -69 5 -3 16 2 24 12 20 22 32 62 20 62
-6 0 -13 -11 -16 -25 -9 -35 -26 -31 -26 5 0 32 -14 40 -24 15z"/>
<path d="M8116 5145 c-20 -31 -21 -98 -1 -115 21 -17 29 -7 16 18 -16 29 -14
67 4 82 16 14 20 40 6 40 -5 0 -16 -11 -25 -25z"/>
<path d="M7210 5116 c-13 -39 -8 -66 11 -66 7 0 9 9 6 22 -3 12 -1 30 4 41 7
12 7 23 1 29 -6 6 -14 -3 -22 -26z"/>
<path d="M7360 5095 c0 -34 5 -47 19 -55 16 -8 23 -5 41 17 21 26 24 68 5 68
-5 0 -12 -11 -15 -25 -8 -35 -24 -31 -28 8 -5 48 -22 39 -22 -13z"/>
<path d="M2116 5104 c-7 -28 0 -47 15 -39 12 8 12 52 0 59 -5 3 -12 -6 -15
-20z"/>
<path d="M3366 5113 c18 -41 16 -102 -3 -130 -28 -40 -43 -150 -43 -314 0
-110 3 -140 12 -131 10 10 12 57 8 162 -1 14 2 65 6 113 5 71 10 90 25 98 15
7 19 21 19 59 0 54 14 100 30 100 13 0 13 -45 1 -88 -9 -30 2 -47 12 -19 3 6
3 -4 0 -23 -9 -63 -10 -184 -1 -215 5 -17 4 -33 -2 -39 -15 -15 -12 -36 6 -36
31 0 44 62 44 214 0 121 -3 152 -20 190 -10 25 -24 46 -30 46 -6 0 -18 7 -26
15 -22 22 -48 20 -38 -2z"/>
<path d="M7546 5085 c-3 -9 -6 -29 -6 -43 -1 -25 -2 -26 -14 -9 -8 10 -16 15
-19 10 -8 -14 12 -55 25 -51 17 6 42 88 30 100 -6 6 -12 4 -16 -7z"/>
<path d="M6901 5066 c-7 -8 -11 -32 -9 -53 4 -51 29 -55 58 -8 25 41 18 62 -9
26 -21 -28 -35 -15 -25 24 7 28 2 32 -15 11z"/>
<path d="M1888 5014 c-4 -34 3 -50 16 -37 9 10 7 73 -3 73 -5 0 -11 -16 -13
-36z"/>
<path d="M2046 5021 c-46 -50 -58 -194 -31 -351 30 -173 38 -200 54 -200 4 0
0 32 -10 72 -49 198 -40 468 16 468 15 0 50 -64 42 -77 -3 -4 -1 -30 3 -58 4
-27 4 -73 1 -102 -7 -47 0 -85 13 -73 5 6 9 127 7 211 -1 40 -7 66 -24 90 -27
41 -47 46 -71 20z"/>
<path d="M6786 5013 c-17 -87 -18 -123 -4 -123 18 0 38 20 38 38 0 12 -2 12
-17 1 -15 -13 -16 -10 -11 31 3 25 9 53 13 63 4 9 3 17 -3 17 -6 0 -13 -12
-16 -27z"/>
<path d="M7634 5015 c-9 -23 9 -118 22 -122 16 -5 56 66 51 91 -3 18 -6 17
-18 -11 -20 -48 -43 -44 -36 7 5 41 -8 65 -19 35z"/>
<path d="M3330 4999 c0 -5 5 -7 10 -4 6 3 10 8 10 11 0 2 -4 4 -10 4 -5 0 -10
-5 -10 -11z"/>
<path d="M7065 4924 c-8 -43 6 -64 30 -44 17 14 20 40 5 40 -5 0 -10 9 -10 20
0 34 -17 22 -25 -16z"/>
<path d="M3120 4930 c-6 -11 -9 -26 -7 -33 3 -7 10 1 16 17 14 35 7 47 -9 16z"/>
<path d="M3159 4913 c-32 -52 -35 -60 -15 -44 20 16 50 71 43 77 -2 3 -15 -12
-28 -33z"/>
<path d="M7835 4930 c-8 -13 3 -50 16 -50 12 0 12 47 0 55 -5 3 -12 1 -16 -5z"/>
<path d="M7285 4910 c-11 -18 6 -88 23 -95 23 -9 55 27 49 56 l-4 24 -8 -22
c-12 -37 -35 -28 -35 12 0 34 -12 46 -25 25z"/>
<path d="M1884 4862 c5 -39 3 -50 -13 -64 -26 -22 -37 -100 -22 -155 6 -24 11
-55 11 -68 0 -14 6 -36 14 -48 8 -12 17 -39 20 -59 7 -41 23 -58 32 -34 3 8
-6 41 -19 73 -30 69 -51 196 -39 237 8 29 32 49 32 26 0 -6 9 -29 19 -51 11
-22 23 -54 26 -72 16 -76 27 -109 35 -101 11 12 -23 159 -49 211 -14 28 -21
61 -21 98 0 44 -3 55 -16 55 -14 0 -16 -8 -10 -48z"/>
<path d="M6672 4887 c-17 -20 -26 -93 -13 -101 9 -6 37 42 55 97 7 21 -26 24
-42 4z"/>
<path d="M7945 4888 c-4 -10 -5 -25 -1 -33 7 -20 42 -19 50 1 9 24 7 29 -6 16
-10 -10 -15 -7 -24 10 -11 21 -13 21 -19 6z"/>
<path d="M7176 4879 c-11 -24 -3 -92 11 -96 13 -5 37 28 48 65 3 12 2 22 -4
22 -5 0 -13 -9 -16 -20 -10 -30 -23 -24 -27 13 -3 24 -6 28 -12 16z"/>
<path d="M2195 4868 c-12 -40 -11 -68 1 -68 10 0 14 13 14 40 0 39 -7 52 -15
28z"/>
<path d="M6952 4853 c-6 -10 -13 -41 -17 -69 -5 -41 -3 -52 9 -57 10 -4 23 8
40 38 33 56 33 79 0 40 l-25 -30 6 48 c7 49 2 59 -13 30z"/>
<path d="M7557 4853 c-9 -17 6 -85 21 -90 16 -7 52 29 52 51 0 6 -9 0 -20 -14
-17 -21 -21 -23 -30 -10 -5 8 -7 25 -4 36 5 21 -10 42 -19 27z"/>
<path d="M3287 4827 c-11 -17 -15 -36 -11 -55 4 -17 1 -32 -5 -36 -6 -4 -11
-12 -11 -18 0 -17 27 10 33 32 3 11 1 22 -4 26 -5 3 -2 16 7 29 9 13 14 30 12
36 -2 6 -11 0 -21 -14z"/>
<path d="M8139 4789 c-14 -26 -14 -105 0 -142 14 -36 34 -36 24 1 -10 34 -9
87 2 130 9 37 -8 45 -26 11z"/>
<path d="M3051 4779 c-22 -24 -30 -91 -34 -289 -2 -69 -6 -133 -11 -142 -6
-13 -4 -18 8 -18 22 0 25 21 29 221 4 167 13 219 37 219 12 0 12 -20 1 -80 -7
-33 -6 -49 5 -64 8 -11 14 -28 14 -38 0 -10 6 -18 13 -18 17 0 5 -100 -17
-154 -13 -31 -13 -33 4 -29 14 4 17 0 13 -21 -7 -33 1 -33 40 4 17 16 33 27
35 25 8 -7 -29 -65 -48 -75 -11 -6 -20 -16 -20 -22 0 -6 11 -3 25 6 23 15 25
15 25 -2 0 -10 -9 -35 -20 -57 -24 -47 -24 -45 -6 -45 16 0 23 17 43 110 24
110 25 124 11 144 -12 16 -11 24 9 63 12 25 33 55 46 67 26 24 52 88 44 109
-2 6 -10 -7 -16 -30 -6 -23 -20 -48 -30 -55 -10 -7 -35 -33 -55 -57 l-36 -43
0 41 c0 30 4 41 15 41 23 0 67 74 63 107 -3 27 -4 26 -37 -25 -18 -29 -39 -51
-45 -49 -6 2 -14 29 -17 59 -6 53 -38 118 -59 118 -5 0 -18 -9 -29 -21z m123
-334 c-4 -8 -10 -12 -15 -9 -11 6 -2 24 11 24 5 0 7 -7 4 -15z m-14 -49 c0 -3
-4 -8 -10 -11 -5 -3 -10 -1 -10 4 0 6 5 11 10 11 6 0 10 -2 10 -4z"/>
<path d="M3220 4781 c-6 -12 -20 -21 -30 -21 -21 0 -27 -24 -9 -36 8 -4 8 -9
0 -17 -6 -6 -11 -15 -11 -21 0 -17 17 5 45 58 14 27 24 51 21 53 -2 3 -9 -5
-16 -16z"/>
<path d="M2797 4757 c-47 -72 -51 -95 -52 -282 0 -178 -1 -181 -28 -227 -32
-55 -29 -59 10 -20 32 31 32 36 36 262 3 132 7 174 21 208 22 52 41 49 40 -6
0 -29 3 -39 13 -35 19 7 17 -36 -3 -58 -10 -11 -12 -19 -5 -24 6 -3 11 -2 11
3 0 6 7 12 15 16 15 5 15 6 -16 -55 -9 -18 -8 -20 10 -14 20 6 20 5 5 -45 -8
-28 -12 -54 -10 -59 3 -5 -1 -25 -9 -45 -19 -44 -19 -57 0 -32 19 25 30 14 15
-14 -8 -15 -8 -25 -1 -34 6 -7 9 -15 7 -17 -2 -2 -6 -16 -10 -31 -8 -34 7 -37
21 -5 6 13 18 24 27 24 19 0 19 -2 5 -29 -19 -34 -2 -31 18 5 13 21 19 47 18
70 -2 20 1 39 6 43 5 3 9 14 9 25 0 11 12 37 26 59 14 21 24 45 21 52 -4 9 -6
8 -6 -3 -1 -20 -31 -48 -31 -30 0 7 -11 0 -24 -16 -16 -18 -20 -30 -13 -35 7
-4 6 -12 -4 -24 -12 -16 -12 -17 4 -11 19 7 17 -2 -7 -32 -6 -8 -11 -24 -11
-35 0 -12 -6 -21 -15 -21 -17 0 -17 7 0 127 17 122 1 266 -37 330 -24 41 -37
44 -56 15z m133 -437 c0 -5 -5 -10 -11 -10 -5 0 -7 5 -4 10 3 6 8 10 11 10 2
0 4 -4 4 -10z m0 -40 c0 -5 -5 -10 -11 -10 -5 0 -7 5 -4 10 3 6 8 10 11 10 2
0 4 -4 4 -10z"/>
<path d="M7450 4744 c0 -19 7 -43 16 -52 15 -15 18 -14 30 3 16 22 19 55 4 55
-5 0 -10 -10 -10 -22 -1 -22 -1 -22 -14 -5 -8 10 -12 27 -9 37 3 11 0 20 -6
20 -6 0 -11 -16 -11 -36z"/>
<path d="M6665 4760 c-3 -5 -9 -32 -12 -60 -6 -54 6 -67 25 -25 22 48 10 123
-13 85z"/>
<path d="M6780 4741 c-19 -36 -10 -101 14 -101 13 0 56 73 56 96 0 27 -19 14
-30 -22 -14 -42 -25 -37 -22 11 3 39 -2 44 -18 16z"/>
<path d="M2447 4733 c-3 -4 6 -35 19 -67 15 -36 25 -85 27 -123 2 -42 7 -67
17 -73 11 -7 12 -11 0 -24 -7 -9 -14 -41 -15 -71 -1 -44 1 -53 12 -44 10 9 13
8 13 -4 0 -8 -6 -17 -12 -20 -10 -3 -10 -7 -1 -17 23 -25 28 1 27 133 -2 117
-5 146 -28 215 -26 76 -48 113 -59 95z"/>
<path d="M7710 4731 c0 -5 5 -22 10 -37 8 -20 14 -24 22 -16 9 9 9 18 0 37
-11 24 -32 35 -32 16z"/>
<path d="M2704 4699 c-3 -6 -1 -16 5 -22 8 -8 11 -5 11 11 0 24 -5 28 -16 11z"/>
<path d="M7076 4703 c-3 -3 -6 -23 -6 -43 0 -38 29 -78 49 -66 16 10 34 77 23
88 -6 6 -12 1 -16 -16 -10 -39 -40 -35 -34 4 5 30 -3 46 -16 33z"/>
<path d="M2575 4667 c-31 -50 -30 -54 4 -23 17 17 31 36 31 43 0 22 -14 14
-35 -20z"/>
<path d="M2409 4669 c-14 -27 -12 -206 3 -268 12 -51 47 -126 54 -118 3 3 -7
44 -21 91 -24 76 -27 98 -24 201 2 63 3 115 2 115 -1 0 -7 -10 -14 -21z"/>
<path d="M7290 4616 c0 -36 4 -68 10 -71 13 -8 60 43 60 66 0 27 -9 23 -20 -7
-16 -42 -35 -24 -32 29 2 29 0 47 -7 47 -7 0 -11 -25 -11 -64z"/>
<path d="M8030 4662 c0 -23 -29 -64 -41 -57 -5 4 -9 20 -9 36 0 18 -4 28 -10
24 -14 -9 -13 -68 2 -83 17 -17 26 -15 43 12 21 32 36 86 24 86 -5 0 -9 -8 -9
-18z"/>
<path d="M2170 4661 c0 -6 4 -12 9 -15 5 -4 28 -40 50 -81 37 -67 61 -93 61
-65 0 16 -43 100 -52 100 -4 0 -8 8 -8 18 0 21 -29 52 -48 52 -7 0 -12 -4 -12
-9z"/>
<path d="M2937 4664 c-4 -4 -7 -14 -7 -23 0 -11 3 -12 11 -4 6 6 10 16 7 23
-2 6 -7 8 -11 4z"/>
<path d="M6670 4628 c-16 -27 -19 -47 -16 -118 3 -71 6 -85 20 -84 13 2 16 -9
16 -55 0 -39 7 -70 24 -103 13 -25 26 -62 30 -81 6 -32 56 -94 56 -69 0 6 7 9
15 6 24 -10 17 20 -7 31 -13 6 -27 25 -33 45 -5 19 -18 46 -27 60 -10 13 -18
37 -18 53 0 16 -5 37 -11 49 -6 11 -11 51 -11 89 0 42 -4 69 -10 69 -7 0 -9
24 -5 70 3 39 4 70 1 70 -2 0 -13 -15 -24 -32z"/>
<path d="M7810 4616 c0 -33 21 -66 41 -66 5 0 14 12 19 26 12 32 12 34 0 34
-5 0 -10 -7 -10 -16 0 -29 -25 -8 -28 24 -4 43 -22 41 -22 -2z"/>
<path d="M2145 4630 c-3 -5 -1 -10 4 -10 6 0 11 5 11 10 0 6 -2 10 -4 10 -3 0
-8 -4 -11 -10z"/>
<path d="M3420 4579 c-45 -63 -100 -165 -100 -186 0 -11 -7 -28 -15 -39 -14
-18 -14 -17 -5 9 13 36 13 67 0 67 -5 0 -10 -9 -10 -20 0 -11 -4 -20 -10 -20
-15 0 -12 31 5 50 18 20 31 80 18 80 -5 0 -16 -15 -24 -32 -9 -23 -21 -33 -37
-34 -31 -2 -38 -11 -13 -19 25 -8 26 -29 9 -124 -11 -61 -47 -130 -73 -142
-12 -5 -16 -59 -5 -59 18 0 70 72 70 98 0 32 14 54 83 135 27 32 47 60 44 63
-8 9 22 80 57 137 49 80 64 52 21 -40 -14 -29 -30 -53 -36 -53 -6 0 -8 -7 -5
-15 3 -9 1 -23 -4 -33 -5 -9 -11 -33 -15 -52 -4 -26 -22 -53 -64 -97 -48 -50
-58 -66 -54 -87 3 -14 9 -26 13 -26 5 0 25 20 46 45 20 25 43 45 50 45 19 0
56 38 49 50 -3 5 3 26 13 47 21 40 62 204 62 245 0 24 -16 48 -32 48 -4 0 -21
-19 -38 -41z m-25 -290 c-19 -35 -30 -32 -21 6 4 14 13 25 21 25 14 0 14 -4 0
-31z m-71 -69 c-15 -22 -31 -37 -36 -34 -9 6 40 72 55 73 4 1 -5 -17 -19 -39z"/>
<path d="M2577 4565 c-30 -38 -24 -47 12 -16 13 11 21 27 19 36 -2 11 -11 6
-31 -20z"/>
<path d="M2136 4582 c-4 -7 -3 -27 3 -45 6 -17 13 -59 16 -92 4 -33 17 -80 30
-105 12 -25 29 -65 36 -88 15 -52 32 -68 49 -47 10 12 7 19 -13 37 -25 24 -87
171 -87 210 -1 47 -26 143 -34 130z"/>
<path d="M2931 4540 c-12 -17 -17 -30 -12 -30 12 0 46 48 39 55 -2 3 -14 -9
-27 -25z"/>
<path d="M6900 4545 c0 -29 26 -85 39 -85 17 0 19 13 6 27 -8 8 -15 30 -15 49
0 24 -5 34 -15 34 -9 0 -15 -9 -15 -25z"/>
<path d="M8098 4548 c-15 -30 -15 -123 2 -143 19 -22 32 -18 19 6 -6 13 -9 50
-7 90 2 38 3 69 1 69 -1 0 -8 -10 -15 -22z"/>
<path d="M8146 4520 c-8 -49 12 -136 27 -121 7 7 7 18 -1 36 -15 32 -16 82 -2
90 15 9 12 35 -4 35 -8 0 -16 -16 -20 -40z"/>
<path d="M2592 4500 c-13 -22 -20 -45 -17 -50 3 -5 -1 -26 -10 -46 -16 -40 -5
-70 22 -60 7 3 24 0 38 -6 29 -13 43 -5 26 16 -9 10 -23 13 -48 9 -34 -6 -36
-5 -29 18 4 13 11 38 15 54 7 31 28 33 23 3 -2 -11 3 -18 12 -18 9 0 16 8 16
19 0 11 4 21 10 23 10 3 -19 78 -30 78 -3 0 -15 -18 -28 -40z"/>
<path d="M1958 4504 c12 -9 22 -22 22 -28 0 -7 8 -30 19 -52 10 -21 21 -59 25
-82 4 -24 15 -61 26 -83 11 -21 20 -51 20 -66 0 -34 14 -58 28 -49 8 5 8 15 2
32 -6 14 -10 37 -10 51 0 14 -11 47 -25 75 -14 27 -25 58 -25 68 0 13 -44 124
-54 136 -1 1 -12 4 -26 8 l-25 7 23 -17z"/>
<path d="M2932 4493 c-12 -14 -21 -27 -19 -30 8 -7 50 34 46 45 -2 6 -14 0
-27 -15z"/>
<path d="M6750 4466 c0 -25 4 -47 9 -51 6 -3 9 16 9 45 -2 62 -18 67 -18 6z"/>
<path d="M7472 4459 c3 -28 13 -58 22 -67 15 -15 17 -15 35 3 20 21 38 95 23
95 -5 0 -13 -17 -18 -37 -13 -56 -38 -50 -42 10 -2 26 -8 47 -14 47 -7 0 -9
-18 -6 -51z"/>
<path d="M6810 4435 c0 -38 4 -64 9 -60 5 3 16 -1 24 -9 17 -17 27 -11 27 16
0 10 -6 18 -14 18 -10 0 -17 16 -22 45 -10 70 -24 64 -24 -10z"/>
<path d="M1856 4448 c-6 -28 -3 -49 10 -83 11 -25 22 -45 27 -45 4 0 7 -6 7
-14 0 -17 40 -89 52 -94 4 -2 20 -30 34 -63 15 -33 37 -65 48 -71 43 -22 145
-104 157 -125 13 -24 58 -58 65 -50 3 3 -12 30 -33 60 -30 45 -40 53 -51 44
-11 -9 -18 -7 -32 11 -54 66 -71 83 -94 92 -17 6 -32 26 -47 59 -11 28 -27 56
-35 62 -8 6 -14 19 -14 29 0 10 -7 20 -15 23 -21 9 -58 94 -65 152 l-6 50 -8
-37z"/>
<path d="M7130 4431 c0 -26 10 -51 21 -51 10 0 12 31 3 54 -9 22 -24 20 -24
-3z"/>
<path d="M7310 4411 c0 -16 9 -39 19 -52 26 -32 55 -16 59 32 2 19 0 30 -5 26
-4 -5 -8 -16 -8 -25 0 -30 -29 -18 -39 16 -11 40 -26 42 -26 3z"/>
<path d="M7760 4399 c0 -19 -6 -44 -14 -55 -14 -18 -15 -18 -24 6 -5 14 -7 31
-5 38 3 6 0 12 -6 12 -18 0 -12 -56 8 -81 20 -24 20 -24 35 -4 20 27 31 94 17
108 -8 8 -11 2 -11 -24z"/>
<path d="M7010 4360 c0 -30 28 -80 45 -80 20 0 19 4 -11 56 -29 49 -34 53 -34
24z"/>
<path d="M7986 4359 c-2 -8 -10 -31 -16 -51 -6 -21 -15 -38 -20 -38 -10 0 -20
25 -20 51 0 10 -5 19 -10 19 -16 0 -6 -80 11 -91 21 -12 45 16 58 68 7 25 10
48 7 51 -3 3 -8 -1 -10 -9z"/>
<path d="M7514 4313 c-7 -45 1 -73 22 -80 14 -5 38 41 31 59 -3 8 -8 4 -15
-12 -9 -22 -11 -23 -17 -7 -4 10 -5 33 -2 52 3 19 2 35 -3 35 -5 0 -12 -21
-16 -47z"/>
<path d="M2700 4323 c0 -12 -4 -25 -10 -28 -12 -8 -13 -35 -1 -35 5 0 14 14
21 31 10 22 10 33 1 42 -8 8 -11 6 -11 -10z"/>
<path d="M3040 4300 c0 -30 13 -40 25 -20 8 13 -4 50 -16 50 -5 0 -9 -13 -9
-30z"/>
<path d="M7240 4261 c0 -31 14 -49 25 -32 8 13 -5 61 -16 61 -5 0 -9 -13 -9
-29z"/>
<path d="M6830 4259 c0 -46 40 -79 54 -44 3 9 0 15 -8 15 -8 0 -17 11 -20 25
-8 30 -26 33 -26 4z"/>
<path d="M2518 4222 c-40 -54 -56 -92 -38 -92 7 0 17 14 23 30 6 17 16 30 23
30 6 0 18 18 27 40 8 22 12 40 8 40 -4 0 -23 -22 -43 -48z"/>
<path d="M2956 4233 c-3 -3 -6 -24 -6 -47 0 -45 14 -39 23 11 6 31 -3 50 -17
36z"/>
<path d="M2636 4198 c4 -13 8 -36 9 -53 1 -16 5 -38 9 -47 4 -9 3 -25 -3 -36
-8 -15 -7 -23 5 -33 8 -7 13 -18 10 -26 -3 -7 -1 -13 4 -13 6 0 10 6 11 13 0
6 2 26 4 42 1 17 -3 50 -10 75 -7 25 -16 57 -19 73 -4 15 -11 27 -17 27 -6 0
-8 -9 -3 -22z"/>
<path d="M6944 4196 c-7 -19 23 -69 36 -61 6 4 3 19 -6 38 -22 42 -22 43 -30
23z"/>
<path d="M7620 4172 c0 -41 14 -62 42 -62 16 0 48 46 48 70 0 20 -20 9 -26
-15 -11 -44 -44 -25 -44 26 0 10 -4 19 -10 19 -5 0 -10 -17 -10 -38z"/>
<path d="M2734 4178 c-3 -13 -13 -31 -22 -41 -8 -9 -13 -20 -10 -22 8 -8 58
54 58 71 0 22 -18 16 -26 -8z"/>
<path d="M7355 4190 c-19 -31 32 -127 55 -104 15 15 26 79 11 70 -6 -4 -9 -11
-6 -16 3 -5 0 -12 -6 -16 -15 -9 -29 14 -29 49 0 27 -13 36 -25 17z"/>
<path d="M8171 4181 c-10 -19 -10 -26 4 -41 11 -12 14 -26 10 -41 -5 -14 -10
-18 -14 -10 -8 13 -61 -2 -61 -16 0 -18 40 -34 59 -23 18 9 71 106 71 129 0
15 -17 14 -23 -1 -3 -9 -9 -7 -20 6 -14 19 -15 19 -26 -3z"/>
<path d="M3369 4162 c-12 -21 -31 -31 -80 -45 -76 -22 -159 -57 -159 -69 0
-13 3 -12 75 25 50 25 107 38 121 26 19 -16 5 -39 -25 -39 -18 -1 -32 -10 -46
-33 -11 -18 -25 -32 -30 -32 -6 0 -29 -14 -52 -31 -32 -23 -39 -34 -30 -43 8
-8 5 -11 -14 -11 -14 0 -46 -13 -72 -30 -26 -16 -51 -30 -56 -30 -13 0 -35
-29 -28 -37 4 -3 31 6 62 21 31 14 58 26 60 26 13 0 177 112 208 142 35 34 97
144 97 173 0 23 -13 18 -31 -13z"/>
<path d="M6890 4181 c0 -5 7 -14 15 -21 16 -14 18 -10 9 14 -6 17 -24 22 -24
7z"/>
<path d="M2384 4169 c-3 -6 -1 -14 5 -18 20 -13 81 -114 91 -151 5 -19 12 -56
15 -82 5 -31 12 -48 21 -48 10 0 12 8 7 30 -4 24 0 37 17 55 13 14 20 28 17
32 -4 3 -14 -2 -22 -13 -21 -28 -20 4 1 34 20 28 10 43 -11 16 -13 -16 -16
-17 -25 -4 -15 23 -12 34 12 45 13 6 25 19 27 30 3 17 -1 16 -23 -8 -15 -16
-31 -25 -38 -21 -8 5 -5 12 10 22 22 15 30 42 12 42 -5 0 -10 -6 -10 -14 0
-31 -26 -21 -53 20 -28 45 -40 53 -53 33z"/>
<path d="M2606 4108 c-4 -34 -11 -69 -16 -79 -12 -21 8 -98 20 -79 8 13 14
220 7 220 -3 0 -8 -28 -11 -62z"/>
<path d="M2819 4086 c-31 -82 -32 -84 -103 -130 -78 -51 -116 -98 -136 -171
-11 -41 -33 -59 -42 -35 -1 5 -41 24 -88 43 -79 32 -112 57 -75 57 9 0 13 5
10 10 -3 6 -15 10 -26 10 -11 0 -31 7 -45 16 -35 23 -44 8 -11 -20 37 -32 34
-38 -18 -31 -83 13 -205 -29 -244 -84 -25 -35 -26 -59 -5 -89 19 -28 56 -28
131 -2 78 27 83 25 41 -14 -52 -49 -85 -111 -98 -185 -11 -61 -10 -66 17 -120
21 -43 41 -65 83 -93 72 -48 78 -49 137 -24 103 44 155 106 185 221 l13 50 6
-120 c6 -106 21 -221 48 -350 13 -62 1 85 -14 175 -8 46 -10 81 -4 92 5 10 5
18 -1 20 -8 3 -14 84 -11 156 1 12 -9 44 -21 70 l-23 47 -5 -85 c-7 -105 -39
-172 -99 -214 -45 -32 -71 -29 -71 8 0 13 -3 33 -6 43 -6 16 -5 16 9 -2 9 -11
17 -15 17 -9 0 6 -9 19 -20 29 -40 36 -12 196 37 212 6 2 16 -9 22 -26 10 -24
10 -34 -3 -59 -20 -40 -20 -56 0 -19 12 23 18 26 30 16 8 -6 14 -17 14 -24 0
-7 10 -15 23 -18 18 -5 20 -4 7 6 -16 12 -60 118 -60 143 0 8 16 24 35 36 42
24 40 36 -2 15 -17 -9 -35 -11 -48 -6 -27 11 -85 11 -85 0 0 -5 18 -8 39 -7
57 1 61 -11 17 -47 -49 -39 -73 -43 -96 -15 -10 13 -22 19 -27 15 -4 -5 0 -13
10 -18 21 -12 22 -29 2 -29 -20 0 -92 -36 -101 -51 -3 -6 4 -4 18 5 24 16 112
46 135 46 6 0 -5 -26 -26 -57 -41 -63 -75 -146 -68 -166 2 -6 7 3 12 22 5 26
10 30 17 20 8 -11 9 -10 4 4 -5 17 36 121 53 131 4 3 11 -41 15 -97 4 -56 8
-113 9 -127 3 -34 -29 -38 -83 -10 -53 27 -87 63 -111 117 -14 34 -16 52 -9
102 9 68 9 68 59 134 61 82 211 128 286 89 17 -9 40 -15 53 -13 13 1 25 -4 28
-13 3 -9 14 -16 25 -16 10 0 22 -8 28 -17 5 -10 9 -92 10 -183 3 -273 19 -540
34 -540 8 0 6 216 -7 680 l-1 55 45 0 c33 0 44 -4 42 -14 -2 -8 -5 -104 -8
-215 -2 -111 -6 -273 -9 -361 -8 -266 -9 -884 -2 -1156 l7 -257 29 -64 c33
-72 38 -121 21 -218 -6 -36 -13 -109 -17 -162 -6 -102 -16 -118 -28 -45 -4 23
-9 49 -10 58 -2 9 3 34 10 55 15 44 12 99 -12 237 -16 93 -33 128 -33 69 0
-15 -8 -44 -19 -64 -10 -20 -22 -70 -25 -109 -6 -60 -15 -84 -48 -138 -21 -36
-59 -106 -82 -156 -23 -49 -48 -101 -55 -115 -10 -22 -11 -17 -7 35 4 46 15
79 46 134 22 41 40 77 40 82 0 4 6 12 14 16 20 12 58 101 67 158 4 28 12 68
18 90 15 61 25 217 26 445 1 113 2 279 4 370 6 361 1 582 -12 577 -7 -2 -17
14 -24 42 -12 45 -12 44 -7 -29 3 -41 9 -79 13 -85 4 -5 7 -199 6 -430 -2
-449 -5 -475 -54 -524 -12 -12 -21 -26 -21 -33 0 -7 15 2 33 20 18 18 36 32
40 32 4 0 7 -22 7 -49 0 -44 -3 -50 -27 -59 -32 -11 -125 -100 -113 -107 5 -3
25 15 45 40 21 25 41 45 45 45 16 0 -1 -110 -25 -161 -14 -30 -25 -59 -25 -66
0 -6 -23 -38 -51 -70 -59 -67 -80 -70 -142 -21 -21 16 -41 27 -45 23 -3 -3 -2
-9 4 -13 60 -41 83 -65 75 -81 -5 -9 -47 -38 -93 -65 -45 -28 -92 -58 -103
-67 -11 -10 -32 -21 -47 -24 -41 -10 -60 -39 -63 -95 -2 -28 -10 -61 -18 -73
-13 -19 -23 -100 -18 -144 2 -28 20 -11 27 25 4 20 11 46 17 56 9 18 10 18 24
-8 19 -35 29 -26 15 13 -18 50 7 129 47 151 25 13 30 4 33 -59 1 -28 6 -51 12
-51 5 0 7 30 4 69 -5 66 -4 70 19 80 30 14 43 7 43 -24 0 -13 4 -26 10 -30 5
-3 7 13 4 42 -6 45 -4 50 24 70 l31 23 -1 -31 c-1 -16 4 -35 10 -41 9 -9 12
-1 12 33 0 37 5 50 29 73 18 17 36 26 45 23 11 -5 16 0 16 12 0 11 17 33 38
49 21 17 47 47 57 66 24 44 35 46 35 4 0 -57 -36 -147 -89 -223 -51 -72 -78
-175 -83 -310 -5 -116 -4 -118 9 -70 42 153 72 196 74 108 1 -26 5 -59 10 -73
7 -20 8 -17 6 17 -3 50 4 53 32 16 12 -14 24 -24 26 -21 3 3 -10 24 -28 46
-43 52 -54 100 -31 147 15 33 34 39 34 12 1 -17 40 -65 40 -49 0 7 -9 30 -20
52 -25 50 -25 59 3 93 l23 29 13 -26 c8 -14 19 -26 24 -26 5 0 -1 16 -12 36
-20 34 -21 38 -6 60 17 26 31 31 37 12 3 -7 5 27 5 75 2 85 16 157 32 157 13
0 34 -133 28 -180 -3 -25 -10 -81 -15 -125 -9 -78 -50 -191 -75 -207 -6 -4 -8
-11 -3 -15 5 -4 11 -2 13 5 10 26 24 11 18 -19 -5 -22 -4 -29 4 -25 6 4 11 25
11 46 0 42 26 120 41 120 12 0 17 -47 23 -194 3 -71 8 -131 10 -134 3 -2 12
-2 21 2 13 4 14 10 5 26 -7 12 -7 27 -2 37 5 10 8 38 7 63 -1 25 2 53 7 63 6
12 5 23 -3 33 -12 15 -19 200 -9 230 5 13 12 11 36 -13 17 -15 33 -35 36 -43
3 -8 8 -12 12 -9 13 12 -18 59 -52 79 -26 16 -32 25 -26 38 4 9 9 34 12 55 2
20 7 37 11 37 3 0 24 -12 46 -25 46 -29 55 -30 55 -11 0 8 -14 19 -32 25 -55
19 -68 38 -68 100 l0 56 31 -32 c16 -18 32 -33 35 -33 14 0 -27 67 -48 77 -29
15 -53 64 -44 90 5 11 -1 23 -16 35 -22 16 -22 18 -6 34 16 17 18 17 38 -1 11
-10 22 -16 25 -14 8 8 -25 49 -40 49 -21 0 -45 29 -38 46 3 9 9 11 12 6 3 -5
24 -12 46 -16 l40 -7 -34 29 -33 28 12 58 c6 31 10 103 9 159 -1 56 3 158 10
226 12 108 12 132 -2 195 -9 39 -19 98 -22 131 -3 33 -13 96 -22 140 -18 90
-19 139 -10 485 7 285 15 428 23 441 3 5 15 9 28 9 42 0 81 20 109 57 32 42
46 85 29 91 -7 2 -9 21 -6 50 6 59 -20 105 -73 129 -21 10 -40 18 -42 20 -1 1
7 31 19 67 24 74 45 79 37 10 -4 -42 4 -57 19 -32 17 27 -3 118 -26 118 -5 0
-23 -38 -41 -84z m59 -143 c33 -36 34 -39 29 -97 -5 -57 -9 -64 -49 -98 -44
-39 -68 -48 -68 -25 0 10 -15 12 -62 9 l-63 -4 25 28 c14 16 31 35 39 42 8 6
11 12 6 12 -10 0 -129 -113 -132 -126 -2 -5 -7 -10 -13 -12 -15 -5 -12 41 7
109 20 73 73 136 147 174 67 34 92 32 134 -12z m-514 -142 c6 -4 26 -11 44
-15 67 -12 142 -56 142 -83 0 -19 -21 -16 -27 5 -6 25 -52 43 -150 57 -46 7
-90 18 -96 24 -18 18 -29 13 -22 -11 7 -20 5 -21 -56 -15 -38 3 -56 2 -44 -3
18 -7 15 -10 -22 -27 -24 -10 -43 -22 -43 -26 0 -4 9 -3 19 3 38 20 45 10 14
-21 -20 -21 -37 -30 -47 -26 -20 8 -35 45 -28 70 7 27 65 67 113 77 50 10 186
5 203 -9z m542 -49 c-17 -34 -52 -62 -76 -62 -8 0 7 21 35 48 28 26 51 46 53
45 2 0 -4 -15 -12 -31z m-478 -8 c23 -4 45 -10 47 -15 6 -8 -122 -5 -131 4 -3
3 -17 -1 -32 -8 -15 -8 -40 -17 -57 -21 -27 -7 -29 -6 -16 9 8 10 9 17 3 17
-6 0 -17 -8 -24 -18 -15 -22 -50 -42 -72 -42 -12 0 -11 7 7 34 20 31 27 34 97
44 74 10 92 9 178 -4z m319 -40 c9 -23 -8 -34 -60 -39 -55 -6 -70 10 -36 36
30 23 87 25 96 3z m56 -21 c-7 -2 -19 -2 -25 0 -7 3 -2 5 12 5 14 0 19 -2 13
-5z m-55 -1035 c1 -18 6 -78 11 -133 10 -106 2 -197 -13 -160 -9 23 -24 278
-18 312 6 32 17 21 20 -19z m42 -285 c0 -26 -3 -34 -11 -26 -9 9 -3 63 7 63 2
0 4 -17 4 -37z m-17 -192 c-6 -78 -15 -146 -18 -151 -4 -6 0 -13 8 -15 11 -5
12 -19 5 -73 -5 -37 -13 -78 -18 -92 -7 -21 -9 -17 -11 28 -2 62 -1 131 4 227
2 39 5 107 5 153 2 76 3 82 20 73 17 -9 17 -18 5 -150z m-168 -617 c-9 -19
-20 -34 -25 -34 -13 0 -13 3 4 42 8 18 18 42 22 53 7 19 8 19 12 -3 2 -13 -4
-39 -13 -58z m-54 -83 c-11 -21 -37 -54 -57 -72 -20 -19 -44 -41 -54 -50 -9
-8 -23 -18 -31 -21 -8 -4 -41 -28 -75 -56 -33 -27 -83 -62 -110 -77 -70 -40
-91 -62 -120 -123 -14 -30 -28 -51 -31 -49 -11 12 48 119 89 160 52 52 112 97
130 97 7 0 36 20 65 45 28 25 57 45 65 45 7 0 43 31 78 69 36 39 66 70 68 70
1 1 -7 -16 -17 -38z m-421 -290 c0 -5 -7 -14 -15 -21 -12 -10 -15 -10 -15 2 0
8 3 18 7 21 9 10 23 9 23 -2z m617 -113 c-3 -8 -6 -5 -6 6 -1 11 2 17 5 13 3
-3 4 -12 1 -19z"/>
<path d="M2781 3949 c-30 -32 -57 -107 -43 -121 7 -7 18 -3 38 15 25 23 29 24
48 11 11 -8 30 -14 41 -14 15 1 12 5 -15 20 l-35 19 39 16 c21 9 36 18 33 21
-7 8 -79 -30 -115 -61 l-31 -26 15 44 c8 24 24 54 35 66 12 12 19 25 16 27 -3
3 -14 -5 -26 -17z"/>
<path d="M2787 3913 c-4 -3 -7 -11 -7 -17 0 -6 5 -5 12 2 6 6 9 14 7 17 -3 3
-9 2 -12 -2z"/>
<path d="M2670 3848 c-6 -24 -13 -50 -16 -58 -2 -8 4 -4 14 9 16 20 29 91 17
91 -2 0 -9 -19 -15 -42z"/>
<path d="M2744 3788 c-5 -8 2 -9 24 -5 24 5 33 2 46 -16 13 -19 15 -20 15 -4
1 10 10 21 21 25 14 5 0 8 -39 9 -35 1 -63 -3 -67 -9z"/>
<path d="M3107 4164 c-8 -8 1 -24 14 -24 5 0 9 7 9 15 0 15 -12 20 -23 9z"/>
<path d="M7100 4143 c0 -30 26 -63 48 -63 17 0 15 4 -14 47 -34 51 -34 51 -34
16z"/>
<path d="M2376 4118 c-18 -62 91 -315 122 -284 4 4 -1 13 -10 20 -28 21 -87
161 -96 229 -7 52 -10 58 -16 35z"/>
<path d="M7857 4100 c-19 -48 -34 -52 -39 -7 -3 27 -5 29 -13 13 -11 -24 6
-70 27 -74 20 -4 66 84 51 99 -6 6 -15 -5 -26 -31z"/>
<path d="M6840 4108 c0 -12 8 -30 18 -41 16 -19 16 -19 -5 -13 -49 15 -31 -46
19 -63 22 -8 28 -7 28 3 0 8 -8 17 -17 20 -13 5 -14 9 -5 15 10 6 8 18 -8 54
-23 52 -30 58 -30 25z"/>
<path d="M6920 4120 c0 -5 5 -10 11 -10 5 0 7 5 4 10 -3 6 -8 10 -11 10 -2 0
-4 -4 -4 -10z"/>
<path d="M8013 4114 c-3 -8 1 -23 10 -32 15 -14 17 -14 23 1 8 21 -1 47 -16
47 -6 0 -13 -7 -17 -16z"/>
<path d="M2110 4108 c0 -7 11 -26 25 -43 19 -24 24 -26 25 -12 0 21 -28 67
-41 67 -5 0 -9 -6 -9 -12z"/>
<path d="M3013 4097 c-55 -106 -73 -145 -73 -162 1 -11 14 11 30 49 16 38 34
74 40 80 16 16 24 -2 11 -30 -14 -32 -3 -54 16 -29 17 24 18 115 1 115 -7 0
-18 -10 -25 -23z"/>
<path d="M2274 4076 c-8 -21 68 -150 91 -154 18 -3 18 -2 4 10 -8 7 -23 26
-33 42 -14 22 -15 30 -6 36 10 6 8 17 -9 44 -24 38 -38 45 -47 22z"/>
<path d="M6950 4081 c0 -5 5 -13 10 -16 6 -3 10 -2 10 4 0 5 -4 13 -10 16 -5
3 -10 2 -10 -4z"/>
<path d="M7047 4064 c-9 -9 12 -49 35 -63 35 -22 38 3 4 37 -18 18 -35 30 -39
26z"/>
<path d="M7305 4030 c-10 -17 6 -98 22 -112 12 -10 18 -9 29 7 16 22 19 59 4
50 -5 -3 -10 -14 -10 -23 0 -12 -3 -13 -12 -4 -6 6 -11 27 -10 46 1 35 -11 55
-23 36z"/>
<path d="M8040 4029 c0 -5 -5 -7 -10 -4 -7 4 -9 -2 -4 -19 4 -17 0 -35 -11
-52 -9 -14 -14 -33 -10 -42 6 -15 9 -14 26 7 10 13 19 29 19 36 0 8 13 16 30
20 41 9 47 24 19 46 -26 20 -59 25 -59 8z"/>
<path d="M7000 4026 c0 -2 7 -7 16 -10 8 -3 12 -2 9 4 -6 10 -25 14 -25 6z"/>
<path d="M3115 3963 c-37 -32 -38 -33 -9 -19 30 15 60 43 53 50 -2 2 -22 -12
-44 -31z"/>
<path d="M6949 3978 c4 -12 14 -25 22 -29 64 -33 102 -49 106 -45 13 12 -22
47 -56 56 -21 5 -44 17 -51 25 -18 22 -31 18 -21 -7z"/>
<path d="M7480 3971 c0 -37 -19 -50 -36 -26 -20 27 -28 11 -12 -22 16 -33 44
-42 52 -16 14 49 18 93 7 93 -6 0 -11 -13 -11 -29z"/>
<path d="M7683 3984 c-7 -19 15 -44 33 -37 8 3 14 13 14 23 0 22 -39 34 -47
14z"/>
<path d="M7600 3945 c0 -24 -5 -35 -15 -35 -9 0 -15 9 -15 25 0 14 -4 25 -10
25 -15 0 -12 -43 4 -65 23 -32 46 -12 46 40 0 25 -2 45 -5 45 -3 0 -5 -16 -5
-35z"/>
<path d="M7936 3916 c-8 -20 -22 -36 -30 -36 -23 0 -20 -28 4 -35 28 -9 38 0
51 46 9 29 9 43 1 51 -8 8 -15 1 -26 -26z"/>
<path d="M7154 3895 c-9 -22 27 -58 54 -53 20 3 19 5 -13 37 -30 29 -36 31
-41 16z"/>
<path d="M7295 3870 c5 -23 3 -30 -9 -30 -9 0 -16 7 -16 15 0 21 -18 19 -25
-4 -4 -14 -19 -20 -63 -25 -78 -10 -157 -57 -200 -122 -18 -27 -31 -57 -28
-66 2 -9 -9 -28 -25 -44 -32 -31 -37 -55 -14 -74 19 -16 19 -30 1 -30 -26 0
-35 -100 -10 -121 10 -8 14 -24 12 -46 -3 -27 2 -40 29 -69 18 -20 37 -33 42
-30 13 9 2 36 -14 36 -7 0 -18 7 -25 15 -15 19 -22 65 -9 65 5 0 9 -6 9 -14 0
-12 80 -86 94 -86 10 0 6 33 -9 75 -8 22 -14 64 -15 93 0 29 -4 51 -9 48 -5
-3 -8 -20 -7 -37 1 -16 -2 -33 -6 -35 -5 -3 -6 -15 -3 -27 6 -20 5 -21 -8 -4
-8 9 -19 17 -25 17 -20 0 -42 31 -42 60 0 33 27 53 63 48 30 -3 47 9 47 36 0
12 5 27 12 34 13 13 5 27 -11 17 -6 -3 -11 -19 -11 -36 0 -34 -2 -35 -35 -13
-15 10 -25 12 -25 5 0 -6 -4 -11 -10 -11 -19 0 -10 49 14 77 17 19 34 28 59
28 20 1 35 -3 34 -8 -1 -5 4 -12 11 -14 7 -3 12 4 12 19 0 13 5 29 12 36 9 9
9 12 0 12 -6 0 -15 -6 -19 -14 -7 -12 -15 -13 -46 -3 -43 14 -44 18 -16 64 29
47 132 93 211 93 26 0 48 5 50 12 2 6 10 8 17 4 9 -6 9 -11 1 -21 -12 -15 3
-30 20 -20 16 10 50 -5 50 -22 0 -17 -89 -102 -107 -103 -16 0 -33 -33 -33
-63 0 -34 -7 -37 -56 -20 -50 17 -57 40 -23 74 14 14 28 19 45 15 26 -7 31 3
13 21 -18 18 -1 33 36 33 49 0 52 17 4 25 -33 6 -47 3 -70 -14 -34 -25 -56
-27 -80 -5 -18 16 -49 13 -49 -5 0 -8 21 -17 59 -26 30 -8 29 -24 -9 -100 -42
-85 -48 -117 -28 -161 10 -22 10 -28 0 -32 -9 -3 -8 -11 5 -33 10 -16 21 -29
25 -29 4 0 8 -8 8 -19 0 -10 16 -31 35 -45 23 -18 32 -32 28 -43 -4 -11 -2
-14 8 -9 8 3 22 9 32 12 21 8 22 27 2 44 -8 7 -20 30 -25 51 -10 35 -13 38
-38 33 -42 -8 -53 13 -55 102 l-2 78 30 6 c41 9 65 -5 65 -38 0 -24 3 -22 30
23 16 27 27 52 24 56 -2 4 0 10 6 14 16 10 12 -41 -5 -55 -36 -30 -38 -161 -2
-181 8 -5 20 -22 27 -39 13 -32 72 -65 97 -56 15 6 18 36 3 36 -5 0 -10 8 -10
18 0 21 -27 62 -42 62 -6 0 -8 -13 -3 -37 6 -33 5 -35 -9 -24 -9 8 -16 19 -16
25 0 6 -9 20 -21 29 -28 24 -21 51 15 55 25 3 28 1 23 -17 -3 -12 -2 -21 3
-21 15 0 30 27 28 52 -1 13 3 37 9 54 6 16 14 41 17 56 3 15 15 30 27 33 11 4
24 18 29 31 l10 24 20 -20 c11 -11 20 -31 20 -45 0 -16 4 -23 13 -19 10 3 13
-8 11 -43 -2 -64 19 -227 29 -217 11 11 9 168 -3 180 -12 12 -2 104 11 104 4
0 13 -8 18 -17 8 -14 10 -9 11 24 0 34 3 41 15 37 11 -4 16 -23 17 -63 1 -49
2 -51 5 -14 3 30 10 46 24 53 10 6 19 18 19 27 0 27 7 11 13 -32 5 -28 4 -34
-3 -20 -7 16 -9 17 -9 4 -1 -9 -7 -19 -15 -22 -26 -10 -38 -187 -15 -227 5 -9
6 12 2 50 -5 66 10 150 27 150 13 0 13 -53 1 -66 -17 -16 -25 -94 -11 -94 19
0 4 -299 -16 -321 -16 -18 -18 -29 -4 -29 6 0 10 7 10 15 0 8 5 15 10 15 6 0
10 7 10 16 0 9 5 12 11 8 16 -9 4 -83 -15 -97 -14 -11 -13 -13 10 -24 21 -10
25 -9 21 1 -3 8 -1 18 4 23 13 13 14 100 1 115 -7 9 -9 62 -6 158 2 80 4 161
4 180 2 93 44 269 76 318 19 30 10 41 -19 23 -20 -13 -21 -13 -9 2 8 9 24 19
35 23 12 3 32 15 44 26 12 12 32 22 45 23 13 1 27 3 32 4 5 0 3 8 -4 16 -19
23 -50 18 -99 -15 -24 -17 -55 -30 -68 -30 -12 0 -23 -5 -23 -11 0 -6 -7 -8
-16 -5 -9 4 -27 0 -39 -8 -12 -8 -39 -18 -59 -22 -27 -5 -34 -10 -27 -17 6 -6
11 -20 11 -31 -1 -19 -2 -19 -15 4 -13 22 -14 23 -14 5 0 -11 3 -37 8 -57 7
-30 6 -38 -5 -38 -8 0 -14 -9 -14 -20 0 -43 -43 -6 -53 45 -11 62 -26 87 -46
80 -21 -6 -38 22 -22 38 7 7 12 5 17 -6 3 -9 10 -15 14 -12 18 11 43 -10 63
-54 20 -44 21 -45 25 -18 2 16 -2 35 -9 43 -9 11 -9 17 1 29 10 12 9 15 -4 15
-9 0 -28 12 -42 27 -23 25 -25 26 -38 8 -14 -19 -15 -19 -54 0 -23 11 -40 27
-40 35 2 32 -2 50 -13 50 -7 0 -8 -11 -4 -30z m324 -109 c8 -5 9 -11 3 -15 -5
-3 -13 -26 -16 -51 -4 -24 -12 -48 -18 -51 -11 -7 -9 14 8 81 10 40 -13 23
-25 -18 l-9 -32 -1 42 c-1 40 2 44 39 52 3 0 11 -3 19 -8z m-193 -84 c4 -18 3
-27 -5 -25 -5 2 -27 -16 -48 -40 -25 -27 -50 -44 -70 -48 -31 -6 -33 -5 -33
20 0 15 5 36 11 48 10 19 26 20 73 2 11 -4 16 -1 16 11 0 9 -9 19 -20 22 -27
7 -21 23 16 44 34 19 49 11 60 -34z m257 28 c-3 -9 -8 -14 -10 -11 -3 3 -2 9
2 15 9 16 15 13 8 -4z m-62 -52 c-12 -20 -14 -14 -5 12 4 9 9 14 11 11 3 -2 0
-13 -6 -23z m-298 -129 c12 -12 -23 -64 -42 -64 -11 0 -27 -3 -36 -6 -14 -6
-16 -1 -13 27 2 26 9 35 28 40 34 9 55 10 63 3z m-173 -214 c0 -5 -4 -10 -10
-10 -5 0 -10 5 -10 10 0 6 5 10 10 10 6 0 10 -4 10 -10z"/>
<path d="M7372 3879 c2 -7 10 -15 17 -17 8 -3 12 1 9 9 -2 7 -10 15 -17 17 -8
3 -12 -1 -9 -9z"/>
<path d="M7120 3730 c0 -5 5 -10 10 -10 6 0 10 5 10 10 0 6 -4 10 -10 10 -5 0
-10 -4 -10 -10z"/>
<path d="M2547 3589 c4 -13 9 -17 15 -11 11 11 3 32 -12 32 -4 0 -6 -9 -3 -21z"/>
<path d="M7544 3406 c-1 -53 -6 -101 -12 -108 -5 -7 -13 -57 -17 -110 -4 -64
-12 -101 -21 -109 -20 -16 -17 -45 8 -90 23 -41 43 -55 54 -37 4 7 2 14 -4 16
-16 5 -42 55 -42 80 0 11 6 25 14 31 8 7 13 32 13 66 0 30 6 61 13 70 11 14 7
19 -12 16 -5 0 -8 13 -8 29 0 17 5 30 10 30 6 0 10 7 10 15 0 8 5 15 11 15 12
0 6 104 -8 153 -6 20 -9 0 -9 -67z"/>
<path d="M2230 3475 c-7 -9 -11 -18 -8 -20 3 -3 11 1 18 10 7 9 11 18 8 20 -3
3 -11 -1 -18 -10z"/>
<path d="M7167 3450 c-4 -8 -3 -31 1 -50 8 -32 9 -33 13 -10 6 32 -6 82 -14
60z"/>
<path d="M7107 3443 c-4 -3 -7 -12 -7 -19 0 -9 5 -10 24 -1 13 7 22 15 20 19
-6 10 -28 10 -37 1z"/>
<path d="M2350 3430 c0 -5 5 -10 11 -10 5 0 7 5 4 10 -3 6 -8 10 -11 10 -2 0
-4 -4 -4 -10z"/>
<path d="M2437 3407 c-3 -8 -1 -20 4 -28 6 -10 9 -7 9 14 0 29 -5 35 -13 14z"/>
<path d="M2256 3317 c3 -10 9 -15 12 -12 3 3 0 11 -7 18 -10 9 -11 8 -5 -6z"/>
<path d="M7576 3285 c-3 -9 -2 -24 2 -32 8 -13 10 -13 16 2 3 9 2 24 -2 32 -8
13 -10 13 -16 -2z"/>
<path d="M7096 3265 c4 -9 16 -21 28 -27 19 -10 19 -9 -3 16 -28 30 -33 32
-25 11z"/>
<path d="M7602 2459 c-1 -259 -5 -482 -8 -496 -5 -19 -2 -30 13 -42 20 -15 63
-121 63 -153 0 -11 -7 -14 -24 -11 -17 4 -28 -2 -40 -18 -19 -27 -12 -39 10
-17 25 25 61 11 66 -25 3 -18 8 -40 12 -49 6 -13 2 -17 -20 -20 -15 -2 -32
-11 -38 -20 -12 -21 -2 -35 16 -21 19 15 57 22 63 13 3 -5 8 -29 10 -54 4 -39
2 -46 -13 -46 -10 0 -23 -5 -29 -11 -12 -12 -14 -10 -55 70 -15 30 -28 66 -29
80 0 14 -4 35 -9 46 -9 22 -7 24 -31 -53 -13 -44 -30 -64 -37 -44 -2 7 -17 12
-33 12 -16 0 -29 2 -29 4 0 9 29 70 30 62 0 -5 9 -1 20 9 10 9 26 15 34 12 19
-8 28 3 15 19 -8 9 -18 10 -36 3 -18 -7 -24 -6 -21 3 3 7 13 15 24 18 17 4 20
12 15 45 -1 6 -6 2 -12 -7 -5 -10 -18 -18 -29 -18 -12 0 -21 -10 -25 -30 -8
-37 -22 -39 -35 -5 -5 14 -14 25 -20 25 -18 0 -10 25 15 42 17 13 30 15 47 9
18 -6 26 -3 41 16 16 20 19 49 24 226 5 190 7 450 4 755 -1 73 -5 131 -10 128
-4 -3 -9 -180 -10 -393 -1 -214 -3 -401 -5 -418 -2 -16 -4 -69 -5 -116 l-1
-86 -57 -60 c-138 -143 -185 -191 -233 -235 -27 -26 -50 -55 -50 -65 0 -10
-11 -39 -25 -65 -28 -52 -33 -109 -11 -127 22 -19 61 5 75 47 7 21 40 64 75
98 33 33 81 84 104 112 24 29 47 50 52 47 4 -2 -15 -71 -42 -151 -35 -107 -49
-165 -51 -212 -2 -75 13 -92 38 -40 29 60 47 93 65 113 19 21 44 74 55 115 12
41 54 130 62 130 18 0 67 -137 69 -189 1 -38 6 -56 18 -63 21 -12 46 -61 61
-118 8 -34 17 -46 33 -48 32 -5 36 32 13 121 -13 46 -21 108 -21 154 0 76 -16
158 -38 199 -6 11 -15 56 -22 101 -6 47 -21 103 -37 134 l-27 54 -2 405 c-2
223 -3 442 -4 488 0 45 -4 82 -8 82 -5 0 -9 -212 -10 -471z m-102 -641 c0 -19
-2 -20 -10 -8 -13 19 -13 30 0 30 6 0 10 -10 10 -22z m-70 -128 c0 -22 -45
-64 -59 -55 -14 8 -14 36 -1 69 8 23 12 25 35 14 14 -6 25 -19 25 -28z m-85
-64 c15 -22 15 -27 1 -49 -17 -24 -160 -157 -170 -157 -3 0 -6 9 -6 21 0 47
57 115 90 106 31 -8 33 9 4 32 -15 12 -25 23 -23 24 18 14 75 47 81 47 4 0 15
-11 23 -24z m165 -61 c10 -12 9 -24 -5 -60 -15 -41 -19 -44 -43 -39 -15 4 -31
10 -35 14 -11 10 10 60 35 82 26 22 32 22 48 3z m220 -150 c0 -48 -3 -55 -20
-55 -14 0 -22 11 -30 41 -12 45 -2 69 31 69 16 0 19 -8 19 -55z m-271 21 c9
-11 9 -20 2 -35 -11 -20 -49 -51 -63 -51 -11 0 1 49 18 78 17 26 27 28 43 8z
m301 -176 c0 -5 -5 -10 -11 -10 -5 0 -7 5 -4 10 3 6 8 10 11 10 2 0 4 -4 4
-10z"/>
<path d="M7560 1941 c0 -12 5 -21 10 -21 6 0 10 6 10 14 0 8 -4 18 -10 21 -5
3 -10 -3 -10 -14z"/>
<path d="M7600 1870 c0 -5 5 -10 11 -10 6 0 9 -9 6 -20 -3 -11 -2 -20 3 -20
13 0 18 38 7 49 -14 14 -27 14 -27 1z"/>
<path d="M7562 1820 c2 -32 7 -45 18 -45 8 0 16 9 18 19 3 14 0 17 -13 12 -14
-5 -16 -2 -12 13 2 10 0 25 -4 32 -6 9 -9 -2 -7 -31z"/>
<path d="M2583 1821 c-13 -11 -23 -23 -23 -27 0 -4 5 -3 12 4 7 7 20 12 30 12
10 0 18 7 18 15 0 20 -10 18 -37 -4z"/>
<path d="M8011 1831 c-23 -15 2 -101 30 -101 4 0 5 17 2 38 -9 59 -16 72 -32
63z"/>
<path d="M7853 1795 c-7 -20 24 -55 50 -55 18 0 19 2 5 18 -8 9 -18 25 -21 35
-8 21 -26 22 -34 2z"/>
<path d="M7184 1792 c-16 -10 -57 -93 -50 -100 7 -6 29 20 52 61 17 31 16 51
-2 39z"/>
<path d="M8121 1764 c-23 -29 -27 -44 -11 -44 11 0 44 59 37 66 -3 3 -14 -7
-26 -22z"/>
<path d="M8202 1724 c-13 -20 -20 -39 -17 -42 8 -8 55 48 55 66 0 22 -14 13
-38 -24z"/>
<path d="M6977 1731 c-2 -11 1 -28 9 -38 12 -17 13 -16 14 7 0 36 -16 58 -23
31z"/>
<path d="M7066 1738 c-3 -7 -9 -28 -15 -45 -14 -47 4 -41 23 7 9 22 16 43 16
45 0 11 -21 4 -24 -7z"/>
<path d="M8290 1645 c-10 -12 -10 -15 3 -15 25 0 30 -20 11 -41 -12 -13 -21
-16 -29 -9 -6 5 -15 7 -18 3 -12 -11 -8 -88 5 -101 20 -20 28 -14 18 14 -15
39 -12 54 14 64 29 11 48 43 44 73 -4 27 -30 33 -48 12z"/>
<path d="M6750 1621 c0 -24 26 -35 34 -14 8 19 -1 33 -20 33 -8 0 -14 -9 -14
-19z"/>
<path d="M8210 1607 c0 -7 -9 -30 -20 -52 -22 -44 -24 -55 -10 -55 13 0 50 74
50 100 0 11 -4 20 -10 20 -5 0 -10 -6 -10 -13z"/>
<path d="M6658 1593 c-6 -29 3 -64 16 -60 15 5 14 69 -1 74 -6 2 -13 -4 -15
-14z"/>
<path d="M8557 1559 c-33 -34 -57 -38 -57 -9 0 28 -19 25 -53 -7 l-29 -28 7
34 c5 26 4 32 -6 29 -17 -6 -24 -57 -10 -71 7 -7 18 -5 35 6 21 14 26 14 36 2
7 -8 20 -15 29 -15 22 1 95 70 84 80 -4 4 -21 -5 -36 -21z"/>
<path d="M8689 1580 c0 -8 -2 -26 -4 -40 -4 -34 3 -42 25 -30 13 7 21 6 30 -5
7 -8 18 -15 25 -15 18 0 75 67 75 88 -1 12 -11 5 -36 -23 -31 -35 -37 -38 -45
-22 -6 9 -16 17 -24 17 -8 0 -21 10 -29 22 -11 16 -16 18 -17 8z"/>
<path d="M2440 1530 c14 -10 27 -17 29 -15 8 8 -22 35 -38 35 -12 0 -10 -5 9
-20z"/>
<path d="M2735 1537 c-4 -10 -3 -29 4 -44 16 -35 20 -26 11 22 -5 31 -9 36
-15 22z"/>
<path d="M8330 1520 c0 -5 5 -10 10 -10 6 0 10 5 10 10 0 6 -4 10 -10 10 -5 0
-10 -4 -10 -10z"/>
<path d="M6569 1493 c-13 -35 -8 -57 14 -61 14 -3 17 4 17 42 0 51 -15 60 -31
19z"/>
<path d="M7948 1514 c-5 -4 -8 -17 -8 -29 0 -12 -9 -48 -20 -80 -23 -67 -23
-65 -12 -65 12 0 55 142 51 164 -2 10 -7 14 -11 10z"/>
<path d="M2345 1490 c4 -14 12 -29 17 -35 7 -7 8 -2 3 15 -4 14 -12 30 -17 35
-7 7 -8 2 -3 -15z"/>
<path d="M8580 1499 c0 -5 5 -7 10 -4 6 3 10 8 10 11 0 2 -4 4 -10 4 -5 0 -10
-5 -10 -11z"/>
<path d="M6897 1473 c-14 -51 -17 -75 -11 -85 7 -11 34 61 34 90 0 18 -18 14
-23 -5z"/>
<path d="M8017 1438 c-22 -31 -33 -56 -28 -61 12 -12 33 1 25 14 -3 6 6 28 22
50 15 22 25 42 22 44 -3 3 -21 -18 -41 -47z"/>
<path d="M6756 1472 c-3 -5 1 -23 9 -38 8 -16 15 -38 15 -50 0 -22 25 -62 33
-54 3 3 -1 32 -8 64 -14 60 -37 97 -49 78z"/>
<path d="M6951 1444 c-23 -29 -27 -49 -11 -59 6 -3 10 1 10 10 0 9 7 27 16 41
23 34 11 41 -15 8z"/>
<path d="M7873 1434 c-3 -8 -1 -20 6 -27 8 -8 11 -4 11 16 0 30 -7 35 -17 11z"/>
<path d="M6390 1427 c0 -8 9 -25 19 -38 26 -31 46 -15 28 21 -14 28 -47 40
-47 17z"/>
<path d="M8078 1394 c-19 -37 -23 -64 -10 -64 10 0 33 38 43 72 11 41 -12 36
-33 -8z"/>
<path d="M2180 1401 c0 -5 7 -14 15 -21 27 -22 17 -33 -25 -27 -25 3 -40 1
-40 -5 0 -7 24 -9 67 -5 38 3 76 1 85 -4 11 -6 18 -6 18 0 0 12 -25 21 -57 21
-16 0 -27 7 -30 19 -5 20 -33 38 -33 22z"/>
<path d="M7010 1369 c0 -27 4 -39 9 -33 15 15 17 66 4 71 -9 3 -13 -8 -13 -38z"/>
<path d="M2540 1390 c-8 -5 -12 -11 -10 -14 3 -2 14 2 24 10 22 15 10 19 -14
4z"/>
<path d="M7580 1375 c-6 -8 -9 -19 -5 -25 11 -17 22 -11 27 15 6 28 -3 32 -22
10z"/>
<path d="M2460 1264 c-16 -14 -30 -31 -30 -37 0 -6 10 -1 23 11 12 11 33 25
46 30 20 7 21 10 8 15 -10 4 -28 -4 -47 -19z"/>
<path d="M1990 1207 c0 -17 52 -28 72 -16 17 11 6 19 -36 26 -28 4 -36 2 -36
-10z"/>
<path d="M2780 1140 c0 -14 46 -60 60 -60 17 0 12 10 -21 41 -34 32 -39 34
-39 19z"/>
<path d="M2410 1125 c-7 -8 -18 -15 -25 -15 -12 0 -45 -31 -45 -43 0 -9 66 31
81 49 6 8 10 17 7 19 -3 3 -11 -1 -18 -10z"/>
<path d="M2008 1032 c-16 -15 -28 -31 -28 -35 0 -16 16 -5 43 28 33 41 24 45
-15 7z"/>
<path d="M2790 1036 c0 -8 7 -16 15 -20 13 -4 14 -2 5 14 -13 23 -20 26 -20 6z"/>
<path d="M2311 951 c-22 -22 -28 -51 -11 -51 6 0 10 5 10 12 0 6 7 20 17 30
23 26 9 34 -16 9z"/>
<path d="M2682 909 c-13 -22 -22 -43 -20 -45 5 -5 42 45 51 69 12 32 -8 17
-31 -24z"/>
<path d="M2265 921 c-3 -5 -1 -12 5 -16 5 -3 10 1 10 9 0 18 -6 21 -15 7z"/>
<path d="M2441 838 c-1 -15 4 -30 9 -33 12 -7 12 12 0 40 -8 18 -9 17 -9 -7z"/>
<path d="M6789 844 c-7 -9 -23 -20 -36 -25 -28 -10 -29 -28 -4 -78 30 -58 48
-290 33 -423 -6 -57 -13 -114 -17 -128 -7 -33 3 -46 45 -53 26 -5 41 -2 60 13
25 18 25 22 28 177 2 87 6 161 10 165 4 3 27 9 52 13 107 16 158 107 125 222
-19 67 -36 89 -84 109 -42 17 -69 18 -101 0 -21 -11 -30 -10 -62 5 -33 17 -37
17 -49 3z m217 -49 c27 -18 64 -92 64 -130 0 -38 -24 -89 -54 -112 -15 -12
-49 -24 -81 -28 -30 -3 -55 -7 -55 -8 -1 -1 -3 -74 -7 -162 -3 -88 -10 -166
-15 -172 -12 -15 -54 -17 -62 -5 -3 5 2 31 10 58 20 67 13 415 -10 488 -21 66
-20 86 3 86 11 0 23 -5 26 -11 8 -11 64 -3 80 13 13 13 71 3 101 -17z"/>
<path d="M6877 757 c-32 -9 -37 -14 -32 -31 4 -12 9 -52 12 -91 3 -38 9 -74
13 -79 16 -17 101 17 116 46 18 36 18 102 -1 138 -17 33 -39 36 -108 17z m93
-36 c7 -19 9 -46 5 -71 -6 -34 -13 -44 -41 -57 -18 -9 -35 -15 -38 -12 -2 2
-6 37 -8 77 -5 68 -4 74 16 82 37 15 53 11 66 -19z"/>
<path d="M5775 824 c-90 -20 -165 -24 -208 -13 -51 14 -92 3 -112 -28 -15 -22
-15 -29 -4 -51 21 -39 54 -54 120 -57 32 -1 63 -5 66 -9 4 -4 6 -128 5 -276
-2 -257 -1 -270 17 -280 33 -17 53 -11 89 26 l34 36 -7 71 c-10 93 -22 407
-17 430 4 14 16 17 67 17 72 0 82 11 70 78 -11 68 -29 76 -120 56z m89 -40 c3
-9 6 -27 6 -41 0 -23 -2 -24 -55 -22 -38 2 -60 -2 -70 -12 -20 -20 -26 -170
-13 -324 15 -186 14 -223 -8 -240 -11 -8 -27 -15 -36 -15 -17 0 -18 17 -20
203 -1 111 0 241 1 290 l3 87 -48 1 c-27 1 -55 1 -62 0 -25 -4 -82 31 -82 50
0 27 12 30 72 17 44 -9 74 -8 154 4 132 21 151 21 158 2z"/>
<path d="M3069 811 c-92 -50 -127 -131 -136 -311 -6 -124 12 -247 44 -301 25
-42 87 -72 134 -66 47 6 103 46 124 87 22 42 28 112 13 133 -12 16 -15 16 -48
0 -19 -10 -43 -34 -54 -55 -19 -38 -33 -40 -68 -11 -55 48 -54 348 2 408 32
35 45 31 72 -17 28 -51 60 -57 90 -18 28 38 13 94 -33 132 -46 38 -94 44 -140
19z m123 -44 c28 -19 33 -29 33 -62 0 -53 -25 -58 -48 -10 -9 19 -28 41 -42
47 -21 10 -30 8 -53 -8 -55 -41 -67 -84 -67 -239 0 -129 2 -144 25 -190 28
-56 67 -82 98 -66 10 5 27 28 36 50 17 37 42 58 54 46 13 -13 -21 -102 -51
-132 -26 -28 -38 -33 -75 -33 -38 0 -50 5 -78 35 -54 58 -77 174 -64 318 16
168 35 216 97 248 46 23 96 22 135 -4z"/>
<path d="M5958 813 c-35 -22 -37 -33 -19 -117 13 -58 13 -103 3 -305 -12 -250
-12 -251 34 -265 39 -12 51 19 64 158 14 164 20 177 73 157 22 -8 25 -17 32
-93 4 -46 7 -104 6 -130 -3 -63 12 -90 47 -86 42 5 50 34 47 187 -3 145 -14
190 -53 225 -16 14 -30 17 -55 12 -56 -11 -65 5 -71 124 -6 121 -10 136 -39
144 -32 8 -39 7 -69 -11z m61 -26 c6 -8 10 -57 10 -122 0 -128 4 -135 88 -146
70 -10 89 -29 98 -102 9 -75 2 -252 -10 -251 -14 2 -22 43 -33 167 -5 70 -13
113 -23 121 -18 18 -90 29 -109 17 -15 -10 -25 -71 -36 -221 -3 -41 -10 -79
-14 -84 -19 -20 -26 35 -18 144 13 170 11 356 -4 412 -11 46 -11 51 7 64 23
17 30 17 44 1z"/>
<path d="M1927 799 c-38 -4 -75 -10 -83 -13 -8 -3 -62 0 -122 6 -113 12 -162
7 -162 -16 0 -7 -6 -19 -14 -25 -21 -18 -25 -59 -7 -75 10 -9 47 -16 98 -19
45 -3 87 -8 93 -12 14 -8 13 -215 -1 -366 -11 -111 -10 -121 7 -140 28 -31 73
-22 102 21 22 33 23 39 15 140 -4 58 -8 161 -8 230 0 104 3 125 15 126 70 3
127 20 152 45 26 25 27 30 16 56 -20 47 -27 50 -101 42z m71 -56 c4 -40 -11
-49 -100 -58 -93 -10 -93 -9 -84 -288 3 -124 2 -228 -3 -236 -13 -20 -50 -4
-57 25 -4 14 -1 60 6 101 15 97 17 342 2 370 -12 22 -55 33 -133 33 -51 0 -74
17 -64 48 8 26 34 32 103 22 60 -8 137 -6 237 9 85 12 90 10 93 -26z"/>
<path d="M2096 784 c-25 -18 -36 -31 -31 -41 18 -47 24 -158 14 -264 -30 -324
-29 -338 11 -359 22 -12 62 8 76 38 4 9 9 80 10 157 l3 140 42 3 c27 2 45 -1
51 -10 4 -7 8 -75 7 -152 -1 -110 2 -141 14 -153 19 -20 54 -9 63 20 15 42 15
53 14 181 -1 139 -6 157 -44 197 -22 24 -29 26 -68 18 -86 -16 -82 -22 -74 92
6 104 1 130 -33 148 -13 8 -27 4 -55 -15z m66 -101 c-1 -43 -5 -86 -8 -95 -7
-23 3 -55 20 -61 7 -3 34 -1 60 4 93 17 116 -22 116 -200 0 -127 -11 -184 -33
-162 -8 8 -12 56 -12 152 -1 163 -7 175 -77 170 -79 -5 -78 -4 -76 -159 1
-139 -7 -182 -37 -182 -7 0 -17 5 -21 11 -10 17 -8 108 6 254 7 74 10 173 6
230 -6 101 -3 118 24 127 27 10 34 -10 32 -89z"/>
<path d="M3342 794 c-27 -19 -28 -38 -3 -73 36 -50 43 -107 44 -344 0 -219 1
-229 21 -243 31 -22 62 -17 86 13 17 22 20 36 16 68 -17 121 -25 242 -20 335
6 140 -9 206 -55 237 -40 27 -59 29 -89 7z m79 -59 c14 -23 18 -56 20 -140 1
-61 7 -177 14 -260 11 -124 10 -152 -1 -164 -10 -11 -16 -12 -27 -3 -11 10
-14 49 -15 180 -2 237 -7 304 -31 357 -12 26 -18 51 -15 57 11 17 38 4 55 -27z"/>
<path d="M7098 774 c-4 -3 4 -27 15 -52 21 -44 22 -63 23 -298 0 -275 5 -296
59 -310 63 -16 85 29 62 124 -22 90 -29 170 -29 315 0 66 -4 132 -10 146 -18
50 -97 99 -120 75z m81 -68 c14 -17 19 -66 26 -261 4 -132 16 -208 40 -267 11
-27 -28 -42 -55 -20 -20 16 -21 26 -24 262 -2 135 -7 257 -11 273 -8 29 5 36
24 13z"/>
<path d="M8441 614 c-51 -28 -73 -30 -105 -9 -18 12 -30 13 -50 6 -31 -12 -33
-25 -7 -58 31 -39 44 -125 38 -248 -3 -60 -8 -117 -12 -126 -3 -9 2 -26 13
-39 17 -21 20 -22 49 -7 19 10 32 26 36 43 9 48 8 248 -2 281 -8 27 -6 34 12
46 12 8 32 17 45 21 17 6 22 3 22 -11 1 -26 24 -53 46 -53 11 0 27 13 37 30
18 29 17 31 -9 77 -46 84 -46 84 -113 47z m87 -53 c22 -38 21 -76 -2 -68 -6 2
-15 18 -20 35 -5 18 -13 32 -19 32 -5 0 -34 -12 -64 -26 l-54 -27 7 -41 c11
-66 8 -286 -4 -298 -6 -6 -18 -8 -27 -4 -14 5 -15 14 -10 48 13 75 8 260 -9
313 -8 27 -13 51 -11 53 2 2 17 0 33 -6 23 -8 38 -6 68 8 64 30 87 26 112 -19z"/>
<path d="M4521 594 c-22 -27 -21 -30 13 -79 20 -28 21 -42 18 -196 -2 -138 0
-168 13 -179 21 -17 64 -4 74 24 5 12 9 88 9 167 l-1 144 24 0 c17 0 25 -6 27
-22 5 -33 25 -45 55 -34 30 11 42 42 28 69 -5 10 -13 42 -17 70 -9 68 -34 77
-96 34 l-43 -30 -26 29 c-33 36 -52 36 -78 3z m97 -64 c7 0 31 12 53 26 23 14
42 24 44 22 4 -5 35 -110 35 -121 0 -19 -25 1 -30 24 -5 19 -13 25 -41 27 -22
2 -40 -3 -47 -11 -8 -9 -12 -68 -13 -170 -1 -148 -2 -157 -20 -157 -19 0 -20
7 -17 158 3 142 1 161 -18 198 -28 56 -19 77 16 36 14 -18 32 -32 38 -32z"/>
<path d="M7670 600 l-25 -19 18 -48 c23 -60 53 -206 62 -297 3 -39 11 -78 16
-88 11 -21 42 -24 58 -5 11 14 38 84 46 121 2 12 22 75 45 140 52 153 52 206
-1 206 -21 0 -67 -100 -75 -164 -10 -68 -21 -65 -28 8 -9 78 -28 135 -52 153
-24 17 -34 16 -64 -7z m65 -42 c7 -18 16 -49 18 -68 25 -158 31 -189 39 -184
14 9 27 48 49 153 21 96 37 129 58 117 18 -12 14 -32 -45 -211 -60 -183 -77
-215 -92 -174 -5 13 -12 56 -16 94 -7 72 -27 173 -47 237 -21 65 11 96 36 36z"/>
<path d="M8075 611 c-16 -4 -40 -14 -52 -21 -77 -49 -107 -261 -53 -382 17
-40 26 -48 55 -54 114 -21 195 44 195 156 0 21 -4 41 -9 44 -14 9 -58 -31 -65
-59 -8 -32 -48 -43 -80 -22 -24 16 -40 65 -30 91 5 14 89 31 124 26 30 -5 38
1 54 34 31 65 12 133 -47 174 -35 23 -44 24 -92 13z m91 -55 c28 -28 34 -41
34 -78 0 -23 -4 -48 -8 -54 -4 -6 -41 -14 -82 -17 -90 -7 -102 -19 -98 -92 3
-46 6 -52 39 -69 31 -17 40 -18 67 -7 18 8 37 27 47 47 18 38 35 37 35 -1 0
-54 -99 -126 -150 -110 -41 13 -70 68 -79 149 -8 72 -6 100 17 172 29 93 116
122 178 60z"/>
<path d="M8049 526 c-20 -32 -35 -93 -26 -102 7 -8 130 16 145 28 17 14 15 63
-3 78 -9 7 -34 16 -56 20 -38 7 -42 6 -60 -24z m77 -2 c21 -10 34 -23 34 -35
0 -22 -6 -25 -67 -33 -40 -6 -43 -5 -43 17 0 21 25 67 37 67 3 0 20 -7 39 -16z"/>
<path d="M7435 593 c-35 -17 -71 -65 -85 -114 -14 -49 -12 -174 4 -243 19 -78
51 -111 107 -109 83 4 137 98 141 248 3 88 -14 147 -55 190 -39 40 -72 48
-112 28z m40 -23 c3 -5 12 -7 19 -4 23 9 62 -50 76 -114 18 -89 -1 -206 -42
-256 -34 -42 -83 -49 -112 -17 -41 45 -61 253 -31 324 13 33 57 77 76 77 4 0
10 -4 14 -10z"/>
<path d="M7445 514 c-28 -28 -36 -63 -36 -155 0 -125 33 -180 87 -145 31 21
48 78 48 166 1 58 -4 83 -20 110 -23 40 -54 49 -79 24z m57 -32 c26 -43 32
-105 18 -172 -16 -76 -35 -94 -62 -60 -17 21 -19 37 -16 126 2 67 8 107 17
117 18 23 24 21 43 -11z"/>
<path d="M3922 580 c-20 -19 -21 -23 -8 -48 14 -27 27 -98 46 -252 17 -141 19
-145 69 -145 l43 0 53 157 c70 207 82 265 61 287 -29 29 -49 1 -81 -115 -35
-122 -50 -158 -59 -134 -3 8 -8 26 -10 40 -3 14 -10 52 -16 85 -27 143 -49
171 -98 125z m42 -29 c3 -5 15 -55 27 -112 29 -146 30 -147 45 -160 21 -17 39
10 65 96 12 39 28 91 36 118 19 60 38 63 30 3 -6 -39 -68 -224 -104 -303 -15
-34 -34 -42 -50 -21 -6 7 -22 87 -37 178 -15 91 -30 175 -33 188 -5 21 10 31
21 13z"/>
<path d="M3652 573 c-64 -31 -90 -132 -71 -278 17 -129 48 -175 119 -175 31 0
87 61 111 120 43 105 22 267 -41 330 -24 24 -73 26 -118 3z m72 -22 c36 -14
73 -86 81 -153 6 -65 -16 -159 -44 -187 -10 -10 -20 -25 -24 -34 -9 -23 -69
-22 -90 1 -18 20 -32 78 -42 174 -10 94 -1 133 41 174 39 37 42 38 78 25z"/>
<path d="M3654 489 c-17 -19 -19 -35 -17 -136 1 -91 5 -118 18 -133 25 -28 51
-30 74 -6 31 34 40 69 38 155 -2 63 -7 86 -23 108 -27 36 -64 41 -90 12z m81
-51 c18 -60 12 -165 -11 -195 -20 -28 -48 -5 -56 48 -13 83 -9 166 8 183 27
28 43 18 59 -36z"/>
<path d="M4291 583 c-54 -22 -91 -99 -98 -203 -7 -93 14 -174 56 -219 24 -26
36 -31 75 -31 67 0 109 21 130 64 14 30 15 43 6 71 -14 44 -39 45 -68 5 -24
-32 -61 -40 -80 -17 -6 6 -12 28 -14 47 l-3 35 45 0 c58 0 91 21 114 73 22 48
16 94 -17 143 -21 31 -27 34 -77 36 -30 1 -61 -1 -69 -4z m119 -51 c15 -12 24
-33 27 -65 5 -41 2 -52 -18 -73 -19 -21 -31 -24 -76 -23 -64 2 -78 -8 -76 -61
2 -49 29 -87 66 -96 24 -5 35 0 61 25 40 38 46 39 46 2 0 -47 -29 -73 -86 -78
-43 -5 -54 -2 -77 19 -70 65 -77 276 -11 349 23 26 112 27 144 1z"/>
<path d="M4317 532 c-24 -10 -57 -62 -57 -91 0 -22 2 -23 56 -19 73 6 91 26
67 72 -23 44 -33 50 -66 38z m47 -38 c13 -35 7 -43 -34 -42 -31 0 -40 4 -40
17 0 37 61 58 74 25z"/>
<path d="M2530 553 c-82 -54 -101 -93 -101 -207 0 -95 16 -142 61 -179 54 -46
128 -48 194 -5 52 33 65 84 34 125 -13 16 -53 -2 -73 -34 -9 -12 -24 -23 -34
-23 -29 0 -71 39 -71 66 0 23 3 24 53 22 92 -4 136 35 137 123 0 45 -4 59 -22
76 -57 52 -131 67 -178 36z m154 -52 c21 -23 25 -91 7 -125 -16 -30 -53 -40
-114 -31 -51 8 -57 2 -59 -49 -2 -44 22 -72 71 -86 32 -9 38 -7 66 20 17 17
36 30 43 30 23 0 12 -40 -19 -70 -59 -55 -155 -32 -202 49 -16 25 -20 52 -20
116 0 101 18 140 81 172 40 20 46 21 87 7 23 -9 50 -23 59 -33z"/>
<path d="M2533 475 c-23 -23 -33 -42 -31 -57 3 -21 8 -23 60 -21 71 3 100 17
96 46 -3 20 -59 67 -80 67 -6 0 -26 -16 -45 -35z m86 -12 c28 -24 15 -39 -41
-47 -41 -6 -48 -5 -48 9 0 51 48 71 89 38z"/>
<path d="M6411 542 c-35 -6 -70 -31 -87 -63 -20 -40 -20 -249 1 -290 54 -104
234 -87 263 25 10 35 -4 86 -21 86 -17 -1 -52 -32 -66 -58 -6 -12 -18 -22 -26
-22 -23 0 -65 43 -67 70 -3 24 0 25 47 25 63 0 122 20 136 47 15 28 3 101 -22
132 -38 48 -80 60 -158 48z m128 -57 c23 -26 31 -45 31 -73 0 -53 -13 -62 -95
-62 -42 0 -76 -5 -83 -12 -22 -22 -14 -71 19 -105 41 -45 78 -44 113 2 33 43
46 44 46 5 0 -64 -89 -106 -164 -79 -48 18 -59 47 -64 179 -5 136 4 155 78
169 77 15 86 13 119 -24z"/>
<path d="M6432 480 c-13 -6 -30 -26 -38 -47 -15 -34 -15 -38 2 -50 10 -7 25
-10 34 -6 8 4 32 7 52 7 46 1 61 15 52 50 -11 47 -53 65 -102 46z m78 -40 c6
-11 9 -20 8 -21 -2 0 -24 -2 -50 -4 -32 -1 -48 2 -48 9 0 38 72 50 90 16z"/>
<path d="M4780 254 c-28 -15 -44 -68 -29 -96 14 -26 85 -25 99 1 12 23 13 71
2 87 -12 19 -46 23 -72 8z m44 -50 c8 -21 -1 -34 -24 -34 -20 0 -30 17 -22 38
6 17 39 15 46 -4z"/>
<path d="M8506 242 c-3 -5 -8 -27 -12 -49 -7 -48 12 -73 57 -73 59 0 74 108
17 123 -32 9 -56 8 -62 -1z m55 -32 c26 -14 24 -46 -3 -53 -23 -7 -38 7 -38
34 0 29 12 34 41 19z"/>
</g>
</svg>
