<?xml version="1.0" standalone="no"?>
<!DOCTYPE svg PUBLIC "-//W3C//DTD SVG 20010904//EN"
 "http://www.w3.org/TR/2001/REC-SVG-20010904/DTD/svg10.dtd">
<svg version="1.0" xmlns="http://www.w3.org/2000/svg"
 width="1000.000000pt" height="674.000000pt" viewBox="0 0 1000.000000 674.000000"
 preserveAspectRatio="xMidYMid meet">
<metadata>
Created by potrace 1.16, written by Peter Selinger 2001-2019
</metadata>
<g transform="translate(0.000000,674.000000) scale(0.100000,-0.100000)"
fill="#000000" stroke="none">
<path d="M2932 6641 c-42 -17 -111 -75 -101 -86 3 -3 23 11 43 30 21 19 48 35
60 35 21 0 54 25 45 34 -2 2 -23 -4 -47 -13z"/>
<path d="M6639 6584 c-17 -20 0 -88 36 -142 34 -52 86 -124 113 -158 45 -56
132 -178 132 -184 0 -4 23 -35 51 -71 28 -35 56 -75 62 -89 7 -14 14 -27 17
-30 10 -8 70 -98 70 -105 0 -9 54 -90 63 -93 4 -2 7 -8 7 -13 0 -6 -15 -8 -37
-4 -67 10 -104 -54 -69 -123 39 -76 27 -149 -35 -214 -23 -24 -48 -55 -57 -70
-9 -15 -30 -32 -46 -38 -120 -45 -199 -96 -294 -189 -73 -73 -122 -142 -167
-236 -36 -76 -38 -86 -43 -200 -9 -238 46 -407 170 -520 52 -47 158 -109 205
-120 10 -3 36 -9 58 -14 65 -17 231 -12 315 8 89 21 190 81 190 113 0 7 -6 6
-17 -4 -28 -24 -46 -27 -66 -10 -24 21 -34 7 -13 -17 17 -19 17 -20 -3 -30
-26 -15 -74 -14 -89 1 -9 9 -12 7 -12 -9 0 -25 -24 -33 -96 -33 -54 0 -74 13
-93 60 -9 24 -10 24 -10 3 -1 -12 4 -25 9 -28 18 -11 11 -35 -11 -35 -11 0
-41 5 -66 11 -52 14 -82 52 -84 109 -2 29 -3 31 -6 8 -2 -15 0 -43 5 -62 l10
-34 -39 13 c-65 23 -77 33 -94 80 -13 33 -16 59 -11 97 5 38 4 49 -4 38 -13
-18 -11 -130 3 -147 6 -9 6 -13 -2 -13 -7 0 -36 22 -64 49 -39 37 -56 62 -65
95 -16 62 -15 129 3 173 18 43 20 62 4 46 -6 -6 -18 -9 -25 -6 -8 3 -14 1 -14
-5 0 -6 6 -12 13 -15 8 -3 9 -8 2 -18 -6 -8 -10 -44 -9 -81 1 -38 0 -68 -3
-68 -2 0 -13 21 -24 48 -23 53 -34 190 -19 241 10 36 4 42 -10 9 -7 -19 -9
-16 -10 22 -4 103 6 168 35 226 14 27 25 53 25 57 0 16 105 157 117 157 6 0
20 14 30 30 31 54 208 162 305 187 54 14 77 4 139 -56 l59 -57 15 23 c18 27
20 42 3 25 -19 -19 -31 -14 -26 13 3 14 1 25 -3 25 -5 0 -9 -7 -9 -16 0 -9 -6
-14 -12 -11 -8 2 -12 17 -10 38 3 31 2 32 -10 16 -17 -22 -48 -13 -48 14 0 14
-7 19 -30 19 -38 0 -38 9 1 51 56 62 79 104 90 164 6 33 17 72 25 87 8 15 12
33 9 40 -3 7 -1 20 5 28 7 12 12 12 22 2 6 -6 16 -12 20 -12 13 0 9 28 -4 32
-9 3 -8 12 6 33 17 26 20 27 70 19 28 -4 103 -8 166 -9 94 -1 124 -6 163 -23
30 -14 47 -28 47 -39 0 -10 9 -33 20 -51 24 -39 26 -78 5 -86 -8 -3 -15 -11
-15 -18 0 -10 2 -10 9 1 12 19 31 5 31 -24 0 -35 17 -73 50 -115 32 -41 36
-60 19 -89 -7 -11 -9 -32 -5 -55 8 -40 26 -40 26 1 0 38 9 23 16 -26 l6 -43
-41 28 c-40 26 -51 47 -31 59 6 3 10 19 10 35 0 16 -4 32 -10 35 -5 3 -10 17
-10 31 0 13 -4 24 -10 24 -5 0 -10 8 -10 18 0 14 -2 15 -10 2 -5 -8 -9 -26 -9
-40 1 -17 3 -19 6 -7 7 26 23 10 23 -22 0 -32 -19 -91 -29 -91 -10 0 -110 36
-116 42 -3 3 -1 17 4 32 7 17 7 26 1 26 -6 0 -15 -11 -20 -26 -9 -23 -14 -25
-52 -20 -24 3 -46 5 -50 5 -4 1 -14 8 -23 18 -13 12 -19 13 -25 4 -6 -10 -19
-11 -62 -2 -92 19 -178 18 -221 -2 -45 -22 -42 -36 3 -17 32 13 123 9 235 -12
83 -15 82 -14 95 -39 7 -12 8 -19 2 -15 -15 9 -23 -9 -15 -30 6 -16 7 -16 14
2 7 17 8 17 8 -3 1 -28 21 -31 21 -4 0 11 -5 32 -10 46 -10 27 -10 27 27 21
37 -7 142 -42 215 -73 36 -15 137 -113 189 -183 54 -74 78 -214 52 -303 -15
-51 -10 -77 6 -36 9 22 10 21 10 -11 0 -19 -5 -51 -12 -70 -16 -46 -73 -146
-96 -169 -10 -10 -20 -22 -22 -27 -5 -12 -86 -74 -97 -74 -4 0 -18 -9 -30 -20
-12 -12 -43 -30 -68 -41 -26 -11 -45 -22 -42 -25 7 -7 95 32 125 56 14 11 33
20 42 20 12 0 13 -2 3 -9 -7 -4 -15 -22 -17 -38 -3 -26 -1 -30 15 -26 11 3 22
14 25 24 8 23 23 25 21 3 0 -9 4 -19 10 -21 7 -2 9 8 6 27 -2 17 0 36 6 43 5
6 15 29 22 50 6 21 14 36 17 33 3 -3 -2 -23 -11 -46 -9 -22 -16 -50 -15 -63 1
-16 4 -12 11 13 10 33 11 34 19 13 10 -28 19 -30 12 -4 -3 11 0 28 6 38 10 17
11 17 17 -4 3 -13 11 -23 16 -23 6 0 8 6 5 14 -10 24 -20 111 -12 104 3 -3 12
-28 19 -55 l12 -48 17 49 c9 27 17 59 17 71 0 12 11 43 24 71 16 33 21 53 14
61 -5 6 -8 27 -6 45 l3 33 19 -39 c25 -52 39 -187 33 -306 -4 -88 -14 -134
-52 -260 -8 -25 -24 -81 -35 -125 -20 -76 -75 -220 -125 -330 -56 -125 -85
-194 -85 -207 0 -8 -4 -18 -10 -24 -5 -5 -25 -58 -45 -117 -19 -60 -41 -118
-47 -130 -7 -12 -20 -42 -29 -67 -9 -25 -35 -90 -57 -145 -82 -204 -166 -414
-222 -552 -26 -67 -86 -169 -119 -203 -35 -36 -201 -68 -201 -39 0 6 -6 9 -14
6 -23 -9 -102 69 -130 126 -33 71 -63 196 -69 287 -7 111 -54 351 -93 484 -13
44 -24 86 -24 93 0 8 -16 48 -35 90 -19 42 -35 83 -35 93 0 9 -9 43 -21 76
-11 32 -25 86 -31 119 -5 33 -16 79 -24 103 -8 23 -14 60 -14 82 0 21 -5 51
-11 67 -28 72 -89 379 -91 458 -2 51 -7 80 -12 75 -26 -26 3 -247 63 -475 22
-85 47 -204 60 -295 5 -30 18 -84 30 -119 11 -35 21 -69 21 -74 0 -5 15 -48
34 -96 43 -109 83 -240 95 -311 6 -30 21 -118 35 -195 14 -77 26 -161 26 -187
0 -52 11 -107 43 -213 25 -84 37 -106 96 -168 43 -46 45 -50 27 -60 -23 -15
-147 -107 -162 -122 -6 -5 -31 -26 -57 -45 -25 -19 -47 -41 -47 -47 0 -7 57
33 128 89 70 56 133 106 140 111 7 6 45 9 85 8 40 -1 85 2 99 8 18 7 29 6 38
-2 9 -9 23 0 61 43 45 51 89 128 152 270 14 30 40 71 59 90 46 47 157 150 163
150 5 0 44 38 75 76 25 30 31 34 51 34 5 0 7 5 4 10 -3 6 -21 10 -38 10 -22 0
-28 -3 -18 -9 10 -7 7 -15 -15 -38 -67 -70 -235 -226 -239 -222 -2 3 9 34 26
70 17 35 44 100 60 144 17 43 34 84 38 90 5 5 16 37 25 70 10 33 25 78 35 100
10 22 28 65 40 95 12 30 28 69 36 85 8 17 33 84 56 150 45 130 71 194 95 238
8 15 13 27 10 27 -4 0 5 21 19 48 37 72 118 283 122 319 2 17 11 48 20 70 9
21 18 47 20 58 2 11 13 58 25 105 20 83 28 248 16 325 -20 118 -41 187 -64
202 -22 14 -24 22 -24 92 0 83 -28 172 -69 215 -11 12 -21 27 -21 32 0 5 -23
32 -50 59 -42 41 -50 55 -49 85 1 61 -23 154 -47 183 -13 16 -24 35 -24 43 0
8 -9 23 -20 34 -11 11 -20 33 -20 50 0 24 6 33 27 41 42 16 63 39 63 69 0 48
-47 85 -87 69 -35 -13 -22 4 87 119 161 168 290 319 290 339 0 3 15 25 34 48
33 39 67 92 83 125 4 8 13 21 20 28 7 8 27 35 45 60 17 26 44 62 60 80 17 20
28 44 28 62 0 26 -4 30 -27 30 -16 0 -37 -8 -49 -18 -30 -25 -84 -98 -84 -113
0 -20 -64 -120 -155 -242 -44 -59 -97 -131 -118 -160 -61 -83 -228 -257 -274
-284 -40 -23 -43 -23 -73 -8 -23 12 -64 17 -153 19 -108 2 -127 5 -166 26 -24
14 -62 47 -84 75 -23 27 -49 57 -58 67 -22 22 -133 195 -221 343 -39 66 -81
131 -94 144 -13 13 -36 48 -51 79 -27 53 -103 142 -121 142 -5 0 -15 -7 -23
-16z m157 -181 c15 -21 30 -40 33 -43 15 -13 156 -239 220 -352 33 -58 178
-245 194 -251 15 -5 -9 -37 -29 -37 -7 0 -36 39 -65 88 -65 108 -129 201 -186
269 -23 28 -43 57 -43 65 0 7 -10 24 -23 38 -13 14 -42 52 -65 85 -24 33 -57
79 -74 102 -26 35 -29 45 -18 58 18 22 24 19 56 -22z m1484 -38 c0 -8 -11 -26
-24 -42 -12 -15 -29 -39 -36 -53 -7 -14 -46 -69 -87 -122 -40 -53 -73 -101
-73 -105 0 -9 -168 -198 -307 -346 -51 -54 -73 -64 -73 -33 0 7 51 65 113 128
107 109 188 203 227 264 10 16 36 52 59 79 22 28 70 96 107 152 43 65 72 99
81 96 7 -3 13 -11 13 -18z m-1113 -718 c-2 -6 -12 -11 -23 -12 -10 -1 -23 -4
-29 -6 -10 -4 -15 3 -15 20 0 5 16 9 36 9 20 0 34 -4 31 -11z m611 -35 c10 -7
6 -15 -14 -35 l-27 -27 -15 21 c-14 20 -13 23 3 35 21 16 35 17 53 6z m212
-1171 c0 -6 -4 -13 -10 -16 -5 -3 -10 1 -10 9 0 9 5 16 10 16 6 0 10 -4 10 -9z
m6 -79 c-12 -11 -18 7 -10 30 l8 23 4 -23 c2 -13 1 -26 -2 -30z"/>
<path d="M2534 6514 c-3 -19 -4 -58 0 -87 16 -142 19 -197 8 -197 -6 0 -15 6
-19 13 -4 7 -42 28 -83 47 -41 18 -81 40 -88 47 -16 15 -29 17 -37 3 -8 -12
56 -82 92 -100 15 -8 42 -23 58 -35 17 -11 33 -20 37 -20 4 0 30 -18 58 -40
37 -29 59 -57 81 -105 17 -36 37 -76 45 -90 28 -46 56 -112 50 -117 -3 -3 -28
4 -55 16 -56 24 -101 27 -101 8 0 -7 15 -27 33 -44 30 -28 61 -41 114 -48 40
-6 63 -16 63 -31 0 -15 53 -66 102 -98 l30 -19 -32 -13 c-18 -8 -42 -11 -55
-8 -12 3 -40 1 -62 -5 -34 -9 -47 -22 -87 -81 -43 -66 -55 -98 -39 -113 3 -4
22 9 40 29 18 21 31 40 27 43 -3 3 -11 -2 -18 -12 -25 -33 -24 -17 0 28 14 25
38 54 53 64 32 23 87 40 77 23 -12 -21 16 -24 55 -7 22 10 42 15 45 12 3 -3
-6 -31 -21 -61 -27 -56 -60 -80 -75 -55 -7 10 -14 9 -34 -5 -14 -9 -26 -12
-26 -6 0 16 -13 11 -49 -20 -19 -16 -32 -33 -28 -37 4 -3 21 7 38 23 29 28 31
28 44 11 12 -17 18 -18 52 -7 51 17 77 42 98 96 14 36 21 44 36 39 52 -17 -3
56 -104 138 -26 21 -47 44 -47 52 0 8 -15 22 -32 31 -43 22 -41 19 -27 42 10
16 9 28 -5 63 -10 24 -24 51 -31 59 -8 9 -21 32 -30 53 -12 30 -13 37 -2 37
17 0 105 -149 113 -191 10 -51 30 -77 78 -98 23 -11 59 -38 79 -61 20 -22 41
-40 47 -40 13 0 13 -37 0 -45 -12 -8 -13 -45 -1 -45 5 0 14 7 21 15 8 9 21 13
32 9 13 -4 19 -1 17 8 -7 56 15 75 61 51 27 -14 80 -17 117 -7 38 10 15 24
-40 24 -29 0 -61 6 -72 13 -11 8 -47 15 -79 16 -65 2 -88 11 -121 47 -12 13
-27 24 -34 24 -6 0 -16 9 -23 20 -7 11 -20 20 -29 20 -18 0 -29 20 -29 53 0
11 -27 63 -60 114 -33 52 -63 106 -67 121 -6 25 -30 71 -43 82 -17 14 -43 102
-47 158 -2 35 -8 75 -14 88 -5 14 -9 39 -9 55 0 27 -24 89 -35 89 -2 0 -7 -16
-11 -36z m45 -146 c1 -10 -3 -18 -8 -18 -9 0 -21 60 -20 95 1 22 27 -49 28
-77z m10 -101 c1 -15 15 -56 33 -90 18 -34 31 -65 30 -69 -1 -5 2 -8 7 -8 11
0 21 -49 11 -55 -4 -2 -15 13 -25 35 -20 44 -98 109 -185 154 -58 30 -92 56
-73 56 13 0 123 -57 138 -71 5 -5 19 -9 30 -9 20 0 21 5 18 63 -2 44 0 56 6
42 5 -11 10 -33 10 -48z m114 -452 c31 -13 24 -27 -10 -20 -26 4 -63 27 -63
38 0 9 24 3 73 -18z"/>
<path d="M3983 6466 c-12 -17 -29 -53 -38 -81 -9 -27 -40 -99 -70 -160 -48
-97 -67 -124 -165 -227 -60 -65 -110 -122 -110 -126 0 -11 -168 -204 -187
-216 -9 -5 -25 -3 -39 5 -20 10 -29 10 -57 -4 l-32 -16 34 0 c33 -1 34 -1 16
-21 -18 -19 -17 -20 5 -20 23 0 23 0 4 -16 -18 -15 -18 -15 4 -9 15 4 22 2 22
-7 0 -8 18 -24 41 -36 50 -27 52 -27 44 -2 -11 35 4 42 41 20 20 -11 53 -20
75 -20 24 0 38 -4 34 -10 -9 -14 -56 -12 -87 4 -19 10 -30 11 -34 4 -9 -14 12
-26 58 -33 38 -7 48 -18 28 -30 -8 -5 -7 -11 1 -21 18 -22 29 -17 29 15 0 23
5 30 25 34 21 3 29 -1 40 -24 8 -15 15 -36 15 -45 0 -16 -2 -16 -20 1 -24 22
-26 13 -4 -20 8 -13 21 -22 28 -19 8 3 16 -2 20 -11 3 -9 10 -14 15 -10 6 3 4
17 -5 33 -7 15 -14 35 -14 45 0 24 -23 68 -46 88 -11 9 -44 19 -74 23 -54 7
-110 25 -110 36 0 12 46 68 77 94 18 15 41 41 50 57 10 16 22 29 28 29 5 0 23
16 38 35 25 31 33 35 72 33 36 -1 54 6 100 37 73 50 78 57 61 80 -13 18 -16
18 -70 -18 -31 -20 -62 -37 -70 -37 -28 0 -25 17 9 50 19 19 47 52 62 74 44
67 65 86 121 113 59 28 156 120 210 201 35 52 38 78 5 50 -10 -8 -62 -54 -115
-101 -54 -48 -101 -87 -106 -87 -29 0 -20 31 44 168 24 51 44 99 44 106 0 27
-27 23 -47 -8z m4 -56 c-6 -16 -13 -28 -15 -26 -6 6 10 56 18 56 5 0 3 -13 -3
-30z m123 -104 c0 -3 -4 -8 -10 -11 -5 -3 -10 -1 -10 4 0 6 5 11 10 11 6 0 10
-2 10 -4z m-79 -87 c-30 -27 -60 -49 -67 -49 -38 0 -124 -71 -153 -128 -11
-20 -38 -55 -60 -77 -23 -21 -41 -47 -41 -57 0 -28 44 -33 92 -9 55 27 60 20
10 -14 -32 -21 -47 -25 -81 -20 -40 5 -45 2 -74 -32 -18 -21 -67 -74 -110
-118 -44 -44 -85 -92 -93 -107 -16 -31 -53 -38 -74 -13 -14 17 -5 35 19 35 10
0 40 24 67 53 99 107 130 143 154 177 13 19 61 74 106 122 45 48 101 116 124
152 37 57 45 64 62 55 27 -14 52 -4 110 48 27 24 53 41 57 38 3 -4 -18 -29
-48 -56z"/>
<path d="M3109 6387 c-19 -18 -79 -63 -133 -102 -124 -89 -248 -195 -228 -195
5 0 41 26 79 58 38 31 111 88 163 127 52 38 101 75 108 82 19 18 32 16 26 -4
-4 -13 0 -11 15 6 22 24 27 46 13 55 -4 2 -23 -10 -43 -27z"/>
<path d="M7233 6238 c-39 -26 -55 -48 -35 -48 11 0 88 68 82 73 -3 3 -24 -8
-47 -25z"/>
<path d="M3474 6087 c-39 -40 -156 -145 -183 -164 -2 -2 -2 -5 1 -8 9 -10 248
202 248 219 0 15 -19 1 -66 -47z"/>
<path d="M7270 6110 c-17 -13 -20 -20 -10 -20 8 0 26 9 40 20 17 13 20 20 10
20 -8 0 -26 -9 -40 -20z"/>
<path d="M2017 6010 c-17 -25 -112 -100 -126 -100 -6 0 -11 -3 -11 -7 0 -5
-14 -17 -30 -28 -16 -11 -30 -26 -30 -33 0 -16 112 59 162 109 20 20 44 39 53
42 16 7 21 37 6 37 -6 0 -16 -9 -24 -20z"/>
<path d="M7677 6003 c-20 -14 -35 -28 -33 -30 6 -6 86 40 86 50 0 12 -13 7
-53 -20z"/>
<path d="M7458 5907 c-15 -12 -40 -32 -55 -45 l-28 -23 41 23 c67 38 88 54 78
60 -5 4 -21 -4 -36 -15z"/>
<path d="M8204 5909 c-10 -11 -67 -57 -126 -100 -60 -44 -108 -84 -108 -90 0
-17 243 164 254 190 10 23 1 23 -20 0z"/>
<path d="M3260 5899 c0 -5 5 -7 10 -4 6 3 10 8 10 11 0 2 -4 4 -10 4 -5 0 -10
-5 -10 -11z"/>
<path d="M6504 5886 c-10 -8 -16 -17 -13 -20 3 -3 14 1 25 8 10 8 16 17 13 20
-3 3 -14 -1 -25 -8z"/>
<path d="M3205 5857 c-16 -17 -46 -44 -65 -59 -19 -15 -30 -27 -25 -27 6 -1
24 12 41 27 17 15 45 38 63 51 17 13 31 28 31 32 0 17 -15 8 -45 -24z"/>
<path d="M6429 5832 c-60 -49 -145 -102 -165 -102 -13 0 -15 -3 -7 -11 14 -14
88 1 88 18 0 6 18 25 40 42 73 55 90 70 84 75 -3 3 -21 -7 -40 -22z"/>
<path d="M2376 5832 c-2 -4 -49 -25 -103 -47 -54 -22 -120 -56 -148 -77 -76
-57 -180 -156 -173 -164 4 -3 13 0 21 7 12 12 57 52 152 134 31 28 110 67 209
107 33 12 61 29 64 36 4 13 -14 17 -22 4z"/>
<path d="M4093 5788 c-23 -17 -40 -35 -37 -40 6 -9 84 50 84 64 0 10 2 11 -47
-24z"/>
<path d="M7620 5650 c0 -5 5 -10 10 -10 6 0 10 5 10 10 0 6 -4 10 -10 10 -5 0
-10 -4 -10 -10z"/>
<path d="M6620 5635 c-10 -12 -10 -15 3 -15 8 0 20 7 27 15 10 12 10 15 -3 15
-8 0 -20 -7 -27 -15z"/>
<path d="M7590 5631 c0 -6 5 -13 10 -16 6 -3 10 1 10 9 0 9 -4 16 -10 16 -5 0
-10 -4 -10 -9z"/>
<path d="M8150 5533 c-58 -48 -127 -108 -153 -135 -27 -26 -52 -48 -56 -48 -4
0 -18 -11 -31 -25 -19 -20 -20 -25 -7 -25 9 0 19 5 22 10 4 6 34 33 68 62 34
28 95 80 136 117 41 36 91 79 113 94 21 16 38 31 38 33 0 16 -39 -9 -130 -83z"/>
<path d="M6515 5560 c-10 -11 -16 -20 -14 -20 3 0 22 9 44 20 35 18 37 20 14
20 -14 0 -34 -9 -44 -20z"/>
<path d="M7627 5563 c-4 -3 -7 -11 -7 -17 0 -6 5 -5 12 2 6 6 9 14 7 17 -3 3
-9 2 -12 -2z"/>
<path d="M7646 5534 c-3 -8 -10 -12 -16 -9 -5 3 -10 -1 -10 -10 0 -9 4 -14 9
-10 13 7 18 -23 11 -65 -4 -20 -1 -45 6 -60 l13 -24 10 28 c15 37 14 43 -3 20
-13 -17 -14 -12 -10 46 2 36 7 73 10 83 7 21 -12 23 -20 1z"/>
<path d="M7556 5525 c-9 -26 -7 -32 5 -12 6 10 9 21 6 23 -2 3 -7 -2 -11 -11z"/>
<path d="M2920 5473 c-28 -77 -68 -133 -159 -224 -56 -55 -80 -87 -90 -119
-16 -54 0 -77 23 -32 9 17 16 40 16 50 0 11 31 47 73 85 41 37 83 87 97 114
14 26 31 53 39 59 8 6 11 16 7 22 -3 6 0 14 7 19 16 9 31 83 17 83 -5 0 -18
-26 -30 -57z"/>
<path d="M3284 5507 c-62 -35 -242 -212 -229 -226 3 -2 37 30 75 71 39 42 94
93 123 114 28 21 54 39 56 41 13 10 -7 9 -25 0z"/>
<path d="M3407 5503 c-4 -3 -7 -16 -6 -27 0 -19 1 -19 10 3 10 24 8 36 -4 24z"/>
<path d="M3437 5478 c-3 -12 -2 -29 4 -39 8 -15 6 -17 -7 -12 -14 5 -15 0 -9
-38 4 -24 12 -51 19 -59 18 -23 46 -89 46 -109 0 -10 7 -24 15 -31 9 -7 12
-22 9 -38 -4 -21 2 -35 26 -60 16 -19 28 -38 25 -43 -10 -14 -65 53 -75 91 -5
19 -16 45 -25 57 -9 13 -11 24 -5 28 12 8 8 37 -8 56 -7 8 -19 23 -27 34 -13
19 -14 19 -8 -5 3 -14 10 -30 14 -36 5 -6 6 -13 3 -17 -7 -6 34 -107 76 -187
20 -39 34 -54 46 -52 10 2 26 -7 35 -19 10 -13 20 -21 23 -18 12 12 -24 124
-57 177 -35 56 -87 190 -87 222 0 23 51 15 80 -12 17 -16 24 -18 30 -8 5 7 16
10 31 5 13 -3 32 -9 42 -11 28 -9 19 15 -14 35 -23 14 -45 19 -81 16 -40 -3
-51 0 -61 16 -6 10 -17 19 -23 19 -14 0 -27 28 -19 40 3 5 1 11 -4 14 -5 3
-11 -4 -14 -16z m117 -367 c-5 -6 -33 31 -33 44 -1 6 8 -1 19 -15 10 -14 17
-27 14 -29z"/>
<path d="M3320 5475 c0 -8 5 -15 10 -15 6 0 10 7 10 15 0 8 -4 15 -10 15 -5 0
-10 -7 -10 -15z"/>
<path d="M7543 5458 c-18 -24 -24 -38 -16 -38 10 0 36 40 30 46 -2 3 -9 -1
-14 -8z"/>
<path d="M7686 5455 c-3 -8 -1 -15 3 -15 5 0 11 7 15 15 3 8 1 15 -3 15 -5 0
-11 -7 -15 -15z"/>
<path d="M3321 5424 c0 -11 3 -14 6 -6 3 7 2 16 -1 19 -3 4 -6 -2 -5 -13z"/>
<path d="M3380 5416 c0 -14 5 -28 11 -31 15 -10 18 -4 12 28 -7 34 -23 36 -23
3z"/>
<path d="M6345 5430 c-3 -5 1 -10 9 -10 8 0 18 5 21 10 3 6 -1 10 -9 10 -8 0
-18 -4 -21 -10z"/>
<path d="M2429 5347 c-113 -107 -247 -227 -254 -227 -4 0 -19 -12 -34 -27 -15
-16 -49 -41 -74 -57 -45 -29 -59 -46 -37 -46 10 0 97 61 139 96 49 42 116 101
131 114 9 8 60 55 113 103 88 81 110 107 90 107 -5 0 -38 -28 -74 -63z"/>
<path d="M4018 5370 c-31 -22 -72 -55 -90 -73 -18 -18 -48 -40 -66 -49 -17 -9
-32 -22 -32 -28 0 -24 3 -22 240 169 45 36 6 22 -52 -19z"/>
<path d="M7690 5407 c0 -1 -4 -17 -9 -35 -13 -44 3 -41 16 3 6 20 7 35 2 35
-5 0 -9 -1 -9 -3z"/>
<path d="M7580 5389 c0 -5 5 -7 10 -4 6 3 10 8 10 11 0 2 -4 4 -10 4 -5 0 -10
-5 -10 -11z"/>
<path d="M7615 5380 c-3 -5 -1 -10 4 -10 6 0 11 5 11 10 0 6 -2 10 -4 10 -3 0
-8 -4 -11 -10z"/>
<path d="M3327 5373 c-11 -10 -8 -53 3 -53 6 0 10 14 10 30 0 31 -2 35 -13 23z"/>
<path d="M7550 5350 c0 -5 -9 -10 -20 -10 -11 0 -20 -5 -20 -11 0 -5 5 -7 10
-4 6 3 10 2 10 -3 0 -18 29 -21 57 -7 24 13 25 15 8 15 -12 0 -26 -5 -33 -12
-9 -9 -12 -9 -12 3 0 8 5 20 12 27 9 9 9 12 0 12 -7 0 -12 -4 -12 -10z"/>
<path d="M3277 5343 c-4 -6 -3 -21 1 -34 5 -13 11 -18 15 -12 4 6 3 21 -1 34
-5 13 -11 18 -15 12z"/>
<path d="M3360 5340 c-12 -37 4 -66 20 -39 5 7 6 -6 3 -31 -4 -31 -3 -41 6
-36 6 4 8 12 5 18 -4 6 -1 13 5 17 9 6 9 15 1 35 -5 15 -14 25 -19 22 -5 -4
-12 0 -14 6 -3 7 -6 11 -7 8z"/>
<path d="M7650 5315 c-17 -21 -8 -28 15 -11 11 8 14 15 8 19 -6 4 -16 0 -23
-8z"/>
<path d="M6482 5269 c-18 -12 -31 -23 -29 -26 6 -6 76 30 77 40 0 12 -13 8
-48 -14z"/>
<path d="M7675 5276 c-5 -10 -3 -21 2 -25 6 -3 13 -13 16 -21 4 -11 5 -9 6 5
0 11 -4 29 -9 40 -7 19 -8 19 -15 1z"/>
<path d="M3015 5250 c-10 -11 -14 -20 -8 -20 5 0 18 9 28 20 10 11 14 20 8 20
-5 0 -18 -9 -28 -20z"/>
<path d="M3300 5267 c0 -2 9 -14 20 -27 22 -26 41 -19 24 8 -10 15 -44 30 -44
19z"/>
<path d="M3237 5243 c-2 -4 -1 -17 3 -27 6 -19 7 -19 14 -1 7 19 -8 44 -17 28z"/>
<path d="M3390 5213 c0 -19 11 -43 21 -43 13 0 11 14 -6 36 -8 10 -15 14 -15
7z"/>
<path d="M3188 5204 c-5 -4 -8 -15 -8 -25 0 -20 -58 -31 -150 -28 -67 3 -82
-4 -50 -21 21 -11 226 -8 237 4 3 3 1 11 -5 18 -5 7 -12 24 -14 36 -1 13 -6
20 -10 16z"/>
<path d="M6384 5195 c-4 -8 -11 -15 -16 -15 -14 0 -139 -82 -134 -87 8 -8 176
97 176 110 0 13 -21 7 -26 -8z"/>
<path d="M3295 5180 c3 -5 11 -10 16 -10 6 0 7 5 4 10 -3 6 -11 10 -16 10 -6
0 -7 -4 -4 -10z"/>
<path d="M3346 5182 c-3 -5 3 -21 14 -35 26 -33 25 -47 -3 -47 -32 0 -67 27
-67 52 0 17 -2 18 -15 8 -21 -17 -18 -32 8 -51 34 -25 74 -31 117 -18 43 13
45 16 30 39 -8 13 -10 12 -10 -3 0 -10 -4 -17 -10 -15 -5 2 -9 7 -7 11 1 4 -3
11 -9 15 -5 4 -17 17 -26 30 -9 13 -19 19 -22 14z"/>
<path d="M7758 5135 c-3 -6 -2 -33 3 -60 4 -28 11 -71 14 -97 l6 -48 25 27
c29 31 29 32 5 26 -25 -6 -38 53 -16 77 19 21 19 31 1 24 -11 -4 -18 4 -24 27
-4 19 -11 29 -14 24z"/>
<path d="M2800 5110 c-43 -9 -90 -28 -90 -35 0 -4 16 -4 36 -1 65 11 124 28
124 37 0 10 -20 10 -70 -1z"/>
<path d="M7193 5085 c-6 -14 -10 -25 -8 -25 8 0 35 32 35 41 0 18 -15 9 -27
-16z"/>
<path d="M8072 5058 c-29 -23 -50 -43 -47 -46 6 -6 115 69 115 80 0 14 -14 7
-68 -34z"/>
<path d="M3460 5055 c13 -14 26 -23 28 -20 7 7 -29 45 -41 45 -6 0 0 -11 13
-25z"/>
<path d="M7505 5039 c-16 -16 -25 -29 -19 -29 11 0 64 45 64 55 0 11 -16 2
-45 -26z"/>
<path d="M4435 5039 c-17 -12 -42 -37 -55 -56 -14 -18 -42 -51 -62 -72 -37
-38 -48 -61 -29 -61 5 0 19 12 31 28 48 62 135 152 146 152 7 0 14 7 18 15 8
21 -14 19 -49 -6z"/>
<path d="M7200 5049 c0 -5 5 -7 10 -4 6 3 10 8 10 11 0 2 -4 4 -10 4 -5 0 -10
-5 -10 -11z"/>
<path d="M2555 5033 c-56 -29 -83 -63 -50 -63 8 0 15 4 15 8 0 11 55 42 77 42
10 0 26 7 35 14 16 11 14 13 -15 14 -18 0 -45 -6 -62 -15z"/>
<path d="M7810 5039 c0 -5 5 -7 10 -4 6 3 10 8 10 11 0 2 -4 4 -10 4 -5 0 -10
-5 -10 -11z"/>
<path d="M6690 5018 c0 -16 5 -28 10 -28 13 0 13 20 0 40 -8 12 -10 9 -10 -12z"/>
<path d="M6736 5023 c-5 -11 -1 -22 10 -30 28 -21 34 -15 18 17 -18 35 -20 36
-28 13z"/>
<path d="M3330 5025 c0 -18 19 -40 26 -32 4 4 0 15 -9 24 -9 10 -17 13 -17 8z"/>
<path d="M6804 4996 c-6 -12 -8 -31 -4 -41 5 -14 8 -9 13 20 8 46 5 51 -9 21z"/>
<path d="M7206 5004 c-11 -28 -6 -39 9 -20 8 11 15 23 15 28 0 14 -18 9 -24
-8z"/>
<path d="M7490 4980 c-8 -5 -12 -12 -9 -15 4 -3 12 1 19 10 14 17 11 19 -10 5z"/>
<path d="M3280 4967 c0 -18 28 -42 37 -33 9 8 -9 38 -25 44 -7 2 -12 -3 -12
-11z"/>
<path d="M3380 4976 c0 -15 24 -66 31 -66 11 0 11 0 -2 39 -6 17 -15 31 -20
31 -5 0 -9 -2 -9 -4z"/>
<path d="M3590 4970 c0 -11 31 -45 47 -51 5 -2 30 -30 55 -62 27 -33 49 -53
53 -46 4 6 -2 21 -14 33 -12 12 -21 26 -21 32 -1 16 -46 61 -69 69 -11 3 -21
10 -21 15 0 4 -7 10 -15 14 -8 3 -15 1 -15 -4z"/>
<path d="M3045 4929 c-67 -50 -185 -160 -185 -172 0 -7 11 0 24 15 12 15 52
50 87 78 35 28 75 59 87 70 13 11 28 20 33 20 5 0 9 5 9 10 0 16 -12 11 -55
-21z"/>
<path d="M3460 4937 c0 -25 25 -66 34 -56 7 6 -21 79 -29 79 -3 0 -5 -10 -5
-23z"/>
<path d="M2394 4887 c-35 -36 -64 -74 -64 -85 0 -10 -20 -47 -45 -82 -25 -35
-45 -70 -45 -78 0 -8 -11 -35 -24 -61 -14 -25 -29 -62 -35 -82 -13 -40 -31
-220 -24 -232 2 -4 5 -36 7 -72 1 -44 7 -70 18 -81 14 -14 15 -9 13 64 -2 45
-5 85 -9 90 -3 5 -3 20 -1 33 2 13 6 61 9 105 6 91 7 93 47 182 16 35 29 65
29 67 0 2 20 34 45 71 25 36 45 73 45 80 0 7 27 41 59 74 32 33 55 63 49 66
-5 4 -39 -23 -74 -59z"/>
<path d="M7470 4940 c-8 -5 -11 -12 -7 -16 4 -4 15 0 24 9 18 18 8 23 -17 7z"/>
<path d="M6830 4912 c0 -33 16 -43 27 -16 3 8 -2 23 -11 32 -15 15 -16 14 -16
-16z"/>
<path d="M3597 4913 c-12 -12 -7 -33 8 -33 17 0 19 9 7 28 -5 7 -11 9 -15 5z"/>
<path d="M7765 4909 c-11 -17 -2 -18 30 -4 l30 13 -27 1 c-15 1 -30 -4 -33
-10z"/>
<path d="M8352 4868 c-22 -18 -56 -46 -76 -61 -20 -15 -36 -33 -36 -40 0 -7 3
-8 8 -2 4 6 30 26 57 45 60 42 112 90 97 90 -5 0 -28 -15 -50 -32z"/>
<path d="M3272 4856 c2 -22 9 -41 16 -44 9 -3 11 4 6 25 -12 50 -24 61 -22 19z"/>
<path d="M3340 4871 c0 -13 26 -32 33 -24 8 7 -11 33 -24 33 -5 0 -9 -4 -9 -9z"/>
<path d="M6575 4859 c-11 -17 1 -21 15 -4 8 9 8 15 2 15 -6 0 -14 -5 -17 -11z"/>
<path d="M7748 4863 c-10 -2 -18 -9 -18 -14 0 -6 10 -5 23 2 37 20 36 23 -5
12z"/>
<path d="M3560 4849 c0 -9 7 -22 15 -29 19 -16 19 0 0 26 -12 16 -14 16 -15 3z"/>
<path d="M6243 4839 c-34 -22 -40 -29 -24 -29 10 0 70 49 61 50 -3 0 -20 -10
-37 -21z"/>
<path d="M3440 4821 c0 -11 5 -23 10 -26 6 -4 10 5 10 19 0 14 -4 26 -10 26
-5 0 -10 -9 -10 -19z"/>
<path d="M3530 4828 c0 -18 18 -34 28 -24 3 4 -2 14 -11 23 -16 16 -17 16 -17
1z"/>
<path d="M3640 4806 c0 -18 17 -29 30 -21 8 5 7 11 -1 21 -15 18 -29 18 -29 0z"/>
<path d="M7709 4813 c-10 -2 -19 -13 -22 -24 -7 -25 -3 -24 27 6 25 25 25 26
-5 18z"/>
<path d="M2797 4795 c-4 -8 -2 -17 3 -20 6 -4 10 -4 10 -1 0 2 3 11 6 20 3 9
2 16 -4 16 -5 0 -12 -7 -15 -15z"/>
<path d="M6620 4800 c0 -5 5 -10 10 -10 6 0 10 5 10 10 0 6 -4 10 -10 10 -5 0
-10 -4 -10 -10z"/>
<path d="M6137 4773 c-53 -41 -54 -60 -1 -21 25 18 48 36 50 40 11 17 -14 7
-49 -19z"/>
<path d="M3381 4768 c0 -13 4 -32 9 -43 7 -16 9 -12 7 18 0 21 -5 41 -9 43 -4
3 -8 -5 -7 -18z"/>
<path d="M3771 4768 c6 -13 18 -31 26 -40 19 -21 10 -50 -12 -42 -17 7 -21
-11 -5 -21 6 -3 10 -16 11 -28 0 -12 3 -16 6 -9 2 6 9 12 15 12 6 0 8 -7 4
-15 -3 -8 1 -18 8 -22 16 -10 30 -63 17 -63 -5 0 -11 -15 -14 -32 l-3 -33 -8
32 c-5 18 -15 38 -24 45 -14 11 -15 10 -8 -7 10 -25 23 -84 31 -147 4 -32 11
-48 21 -48 8 0 14 -9 14 -20 0 -11 5 -20 10 -20 16 0 12 -70 -4 -76 -11 -4
-13 -19 -8 -66 4 -50 2 -62 -12 -70 -9 -5 -14 -13 -11 -18 8 -13 -16 -111 -26
-105 -4 3 -6 47 -3 98 4 64 3 89 -4 82 -6 -5 -12 -52 -13 -102 -1 -55 -7 -103
-15 -119 -8 -14 -14 -33 -14 -41 0 -8 -22 -75 -50 -148 -51 -136 -57 -156 -41
-140 8 9 39 86 74 185 37 104 38 105 47 90 7 -11 10 -7 10 15 0 32 6 43 31 63
15 11 15 6 -1 -50 -25 -88 -50 -152 -61 -159 -5 -3 -27 -42 -48 -86 -22 -44
-44 -84 -50 -87 -6 -4 -21 -28 -32 -54 -32 -71 -72 -137 -76 -125 -2 6 3 28
11 48 19 44 19 48 7 40 -5 -3 -17 -31 -26 -63 -9 -31 -30 -86 -47 -121 -24
-51 -28 -65 -17 -72 12 -8 11 -11 -2 -22 -8 -6 -24 -33 -35 -59 -10 -27 -27
-58 -36 -70 l-18 -23 0 32 c0 18 6 36 13 40 8 4 17 28 20 53 3 25 19 70 35
100 39 73 101 229 107 271 3 19 -6 4 -20 -36 -36 -101 -77 -198 -90 -215 -17
-22 -42 -81 -50 -115 -4 -16 -13 -47 -21 -68 -8 -20 -14 -51 -14 -67 0 -17 -4
-30 -9 -30 -12 0 -20 -46 -10 -62 5 -7 11 -12 14 -10 12 5 19 1 8 -6 -9 -6
-10 -17 -2 -45 9 -33 12 -36 30 -26 17 9 20 18 17 52 -6 54 30 188 67 253 54
93 108 174 117 174 5 0 7 4 4 8 -3 5 13 35 35 68 21 32 39 62 39 67 0 19 -20
3 -41 -30 -52 -88 -143 -223 -151 -223 -10 0 -11 17 0 22 15 7 56 71 117 188
16 30 44 73 62 96 18 23 33 49 33 58 0 21 39 100 46 93 3 -3 -4 -25 -16 -49
l-21 -43 26 30 c14 17 31 48 37 70 6 22 15 45 20 52 5 6 11 22 13 36 3 14 12
38 20 53 8 16 15 36 15 44 0 9 4 20 9 25 16 16 31 133 24 183 -4 32 -3 43 5
38 17 -10 32 29 26 66 -4 18 -7 80 -9 138 -2 110 -19 241 -34 275 -5 11 -17
44 -26 74 -19 64 -42 101 -62 101 -11 0 -11 -4 -2 -22z m99 -308 c0 -5 -4 -10
-10 -10 -5 0 -10 5 -10 10 0 6 5 10 10 10 6 0 10 -4 10 -10z m-27 -58 c4 -21
3 -31 -3 -27 -6 3 -10 20 -10 37 0 38 5 34 13 -10z m24 6 c-3 -8 -6 -5 -6 6
-1 11 2 17 5 13 3 -3 4 -12 1 -19z"/>
<path d="M3460 4751 c0 -11 5 -23 10 -26 6 -3 10 3 10 14 0 11 -4 23 -10 26
-5 3 -10 -3 -10 -14z"/>
<path d="M3713 4724 c3 -20 13 -44 22 -54 8 -9 15 -24 15 -33 0 -9 5 -19 10
-22 15 -9 12 38 -4 60 -7 11 -17 35 -21 53 -9 45 -29 42 -22 -4z"/>
<path d="M8205 4750 c-3 -5 1 -10 9 -10 9 0 16 5 16 10 0 6 -4 10 -9 10 -6 0
-13 -4 -16 -10z"/>
<path d="M2819 4733 c-13 -15 -12 -15 9 -4 23 12 28 21 13 21 -5 0 -15 -7 -22
-17z"/>
<path d="M3670 4742 c0 -5 7 -17 15 -28 15 -19 20 -8 9 20 -6 17 -24 22 -24 8z"/>
<path d="M3330 4721 c0 -11 5 -23 10 -26 6 -3 10 3 10 14 0 11 -4 23 -10 26
-5 3 -10 -3 -10 -14z"/>
<path d="M6580 4726 c0 -8 5 -18 10 -21 6 -3 10 3 10 14 0 12 -4 21 -10 21 -5
0 -10 -6 -10 -14z"/>
<path d="M6620 4725 c0 -8 4 -15 10 -15 5 0 7 7 4 15 -4 8 -8 15 -10 15 -2 0
-4 -7 -4 -15z"/>
<path d="M3557 4724 c-3 -3 -2 -16 3 -29 5 -13 6 -26 3 -29 -4 -3 -1 -6 5 -6
7 0 12 10 12 23 0 26 -14 50 -23 41z"/>
<path d="M6667 4710 c-6 -24 8 -36 17 -14 8 22 7 34 -3 34 -5 0 -11 -9 -14
-20z"/>
<path d="M8592 4718 c-7 -7 -12 -16 -12 -20 0 -12 28 -10 36 3 10 17 -10 31
-24 17z"/>
<path d="M6035 4695 c-16 -13 -26 -24 -22 -25 14 0 67 33 67 42 0 14 -14 9
-45 -17z"/>
<path d="M6540 4711 c0 -5 5 -13 10 -16 6 -3 10 -2 10 4 0 5 -4 13 -10 16 -5
3 -10 2 -10 -4z"/>
<path d="M3145 4683 c4 -16 21 -40 38 -54 29 -24 33 -25 44 -10 9 13 8 17 -9
24 -26 9 -59 47 -52 58 3 5 -2 9 -11 9 -14 0 -16 -6 -10 -27z"/>
<path d="M7275 4687 c-73 -19 -91 -32 -122 -87 -17 -30 -30 -44 -35 -37 -11
18 -21 -40 -15 -92 8 -71 25 -98 74 -121 103 -48 214 24 196 126 -7 38 -18 51
-49 57 -29 5 -69 -25 -79 -60 -4 -17 0 -26 20 -39 29 -19 50 -9 22 10 -21 16
-22 39 -2 56 25 20 65 -12 65 -53 0 -38 -6 -47 -42 -70 -29 -18 -95 -17 -91 2
2 7 -8 8 -27 4 -26 -5 -29 -3 -24 11 4 11 2 16 -7 14 -20 -4 -23 46 -5 62 9 7
16 17 16 22 0 6 -7 5 -15 -2 -13 -11 -15 -8 -15 17 0 36 25 73 50 73 28 0 33
17 7 24 -19 5 -20 7 -7 20 24 23 56 28 73 12 17 -17 27 -11 27 16 0 27 47 24
56 -4 6 -21 7 -21 21 -2 14 18 15 18 38 -10 19 -24 24 -26 32 -12 8 14 11 14
31 0 27 -19 28 -34 2 -34 -11 0 -20 -5 -20 -11 0 -6 14 -9 33 -7 31 3 33 1 51
-56 l19 -59 -33 -29 c-19 -15 -28 -28 -20 -28 7 0 22 7 32 17 17 15 18 15 19
-3 3 -45 -15 -74 -47 -74 -14 0 -14 -2 -3 -16 12 -15 15 -14 31 6 24 30 23 6
-3 -50 -23 -51 -38 -63 -56 -48 -10 8 -13 6 -13 -6 0 -9 7 -19 15 -22 13 -5
13 -10 -2 -35 -10 -16 -20 -28 -23 -26 -36 20 -61 29 -66 24 -12 -11 8 -27 34
-27 l27 0 -30 -25 c-16 -13 -26 -24 -22 -25 15 0 62 28 81 49 11 12 23 21 29
21 5 0 25 14 44 30 18 17 30 30 26 30 -3 0 -17 -10 -30 -22 -20 -18 -23 -19
-23 -5 0 10 11 23 25 29 14 6 25 16 25 21 0 5 -6 4 -14 -2 -10 -9 -15 -8 -19
2 -3 7 4 19 15 26 17 11 22 10 30 -1 7 -9 8 -7 4 8 -4 13 1 27 14 39 11 10 20
23 20 29 0 6 -11 -2 -24 -19 -33 -42 -45 -24 -14 22 13 21 33 52 42 68 17 29
17 29 -13 -5 l-31 -34 -1 29 c-5 145 -45 223 -136 269 -46 23 -109 28 -168 13z"/>
<path d="M7880 4679 c-12 -22 -8 -35 8 -25 13 8 22 46 11 46 -4 0 -13 -9 -19
-21z"/>
<path d="M3530 4676 c0 -8 5 -18 10 -21 6 -3 10 1 10 9 0 8 -4 18 -10 21 -5 3
-10 -1 -10 -9z"/>
<path d="M3630 4680 c0 -27 12 -60 21 -60 5 0 6 12 3 28 -8 31 -24 54 -24 32z"/>
<path d="M6506 4675 c-3 -9 -6 -24 -5 -33 0 -9 5 -4 10 12 9 32 6 48 -5 21z"/>
<path d="M3200 4671 c0 -5 5 -13 10 -16 6 -3 10 -2 10 4 0 5 -4 13 -10 16 -5
3 -10 2 -10 -4z"/>
<path d="M3410 4650 c0 -16 4 -30 8 -30 5 0 9 14 9 30 0 17 -4 30 -9 30 -4 0
-8 -13 -8 -30z"/>
<path d="M7555 4659 c-4 -11 -4 -23 -1 -26 3 -4 6 -1 6 5 0 7 4 12 10 12 5 0
7 -6 4 -14 -9 -23 14 -28 26 -6 6 12 7 20 1 20 -5 0 -16 7 -25 15 -13 13 -15
13 -21 -6z"/>
<path d="M2099 4630 c-24 -22 -96 -81 -159 -131 -111 -88 -173 -149 -150 -149
6 0 21 10 33 23 37 38 150 132 197 164 51 36 150 133 134 133 -6 0 -30 -18
-55 -40z"/>
<path d="M5962 4645 c-16 -14 -34 -25 -38 -25 -10 -1 -48 -50 -42 -55 2 -2 22
14 45 35 24 21 50 43 60 49 10 5 15 12 12 16 -4 3 -20 -6 -37 -20z"/>
<path d="M3300 4614 c0 -22 -3 -24 -14 -15 -11 9 -15 9 -19 -1 -4 -10 -8 -10
-16 2 -14 19 -14 5 -1 -20 6 -11 17 -17 25 -14 22 9 32 -26 11 -41 -10 -8 -14
-20 -10 -31 5 -18 5 -18 -9 -1 -8 9 -17 17 -21 17 -10 0 -3 -54 8 -62 6 -4 5
-12 -2 -21 -7 -8 -10 -22 -6 -31 7 -18 -40 -86 -59 -86 -7 0 -17 -10 -22 -22
-6 -13 -21 -25 -35 -27 -14 -1 -37 -11 -51 -22 -20 -14 -40 -18 -85 -15 -33 2
-58 8 -57 14 1 5 -9 20 -22 32 -25 23 -36 15 -13 -8 7 -7 8 -12 2 -12 -15 0
-34 22 -34 41 0 9 -7 23 -16 30 -15 12 -16 11 -10 -7 3 -12 3 -29 0 -38 -10
-25 -24 0 -24 42 0 25 5 35 20 39 11 3 17 9 14 14 -3 5 -11 7 -17 3 -7 -3 -5
0 4 8 9 7 19 23 23 36 13 39 31 19 28 -29 -3 -38 1 -48 27 -72 21 -20 39 -27
63 -26 50 2 68 9 68 24 0 8 9 19 20 25 11 6 20 17 20 25 0 10 -8 7 -25 -9 -14
-13 -25 -28 -25 -34 0 -18 -86 -7 -114 14 -22 17 -24 24 -19 62 6 48 31 57 57
21 18 -26 36 -17 36 17 0 31 -42 74 -71 74 -25 0 -21 -7 13 -24 38 -19 30 -31
-25 -33 -43 -2 -56 -7 -76 -30 -24 -27 -24 -27 -16 -3 7 21 6 23 -7 12 -11 -9
-15 -29 -13 -70 2 -81 13 -111 41 -118 13 -3 24 -12 24 -19 0 -15 32 -45 49
-45 7 0 0 11 -15 25 -15 14 -24 29 -19 33 4 4 10 1 12 -6 3 -7 26 -23 51 -36
46 -22 48 -22 126 -7 74 15 84 20 128 65 30 30 48 43 48 33 0 -9 -5 -19 -11
-22 -7 -5 -4 -14 7 -26 21 -23 34 -24 34 -3 0 11 5 14 16 10 9 -3 18 -6 20 -6
2 0 4 -12 4 -27 0 -39 10 -22 15 28 16 130 17 187 5 209 -11 20 -10 22 4 17
18 -7 21 4 5 20 -6 6 -9 21 -7 34 4 24 4 24 16 -3 6 -16 14 -28 17 -28 2 0 4
32 3 70 0 39 -5 70 -10 70 -4 0 -8 -7 -8 -16 0 -10 -6 -14 -15 -10 -10 4 -15
-1 -15 -14 0 -11 -4 -20 -8 -20 -5 0 -7 16 -6 35 2 19 -1 35 -6 35 -6 0 -10
-12 -10 -26z m7 -155 c-15 -24 -21 -16 -13 18 6 20 10 23 16 13 5 -7 3 -21 -3
-31z m-17 -89 c0 -11 -4 -20 -9 -20 -5 0 -7 9 -4 20 3 11 7 20 9 20 2 0 4 -9
4 -20z m-37 -25 c-3 -9 -8 -14 -10 -11 -3 3 -2 9 2 15 9 16 15 13 8 -4z m70
-56 c-4 -13 -9 -17 -16 -10 -12 12 -1 45 12 37 5 -3 7 -15 4 -27z m-203 -54
c0 -9 -9 -15 -22 -14 -17 1 -19 2 -5 6 9 2 17 9 17 14 0 5 2 9 5 9 3 0 5 -7 5
-15z m44 1 c-10 -8 -21 -12 -24 -10 -5 6 21 24 34 24 6 0 1 -6 -10 -14z m-149
-36 c3 -5 -1 -10 -10 -10 -9 0 -13 5 -10 10 3 6 8 10 10 10 2 0 7 -4 10 -10z"/>
<path d="M3580 4598 c0 -24 11 -48 22 -48 5 0 6 10 3 23 -10 30 -25 46 -25 25z"/>
<path d="M3480 4588 c0 -7 4 -19 9 -27 11 -17 23 1 15 23 -7 19 -24 21 -24 4z"/>
<path d="M3440 4527 c0 -36 4 -69 10 -72 6 -4 8 18 6 60 -6 88 -16 96 -16 12z"/>
<path d="M8427 4548 c-21 -24 -25 -33 -15 -40 10 -5 8 -8 -5 -8 -11 0 -15 -5
-11 -11 7 -13 84 58 84 78 0 22 -24 14 -53 -19z"/>
<path d="M3646 4538 c8 -28 12 -33 20 -25 9 8 -6 47 -17 47 -6 0 -7 -10 -3
-22z"/>
<path d="M3700 4543 c0 -24 22 -83 35 -93 13 -11 15 -7 15 28 0 31 -5 43 -25
56 -14 9 -25 13 -25 9z"/>
<path d="M7606 4514 c-9 -20 -15 -38 -13 -41 3 -2 12 13 22 32 9 20 15 38 13
41 -3 2 -12 -13 -22 -32z"/>
<path d="M7498 4522 c-10 -2 -18 -8 -18 -13 0 -13 27 -11 35 2 9 13 4 16 -17
11z"/>
<path d="M3020 4513 c0 -5 14 -17 30 -28 16 -11 37 -38 45 -60 15 -40 15 -40
10 -6 -6 39 -49 101 -71 101 -7 0 -14 -3 -14 -7z"/>
<path d="M2876 4494 c-11 -8 -16 -14 -10 -14 13 0 39 18 34 24 -3 2 -14 -2
-24 -10z"/>
<path d="M3540 4466 c0 -25 5 -48 10 -51 6 -4 10 8 10 29 0 19 3 41 6 50 4 11
1 16 -10 16 -12 0 -16 -10 -16 -44z"/>
<path d="M7827 4497 c-4 -10 -7 -26 -7 -35 1 -15 2 -15 11 1 6 10 9 25 7 35
-3 16 -4 15 -11 -1z"/>
<path d="M8055 4455 c-4 -25 -5 -48 -2 -51 3 -3 9 15 12 41 4 25 5 48 2 51 -3
3 -9 -15 -12 -41z"/>
<path d="M3411 4460 c0 -19 4 -42 9 -50 7 -11 10 -8 9 15 0 17 -4 39 -9 50 -7
16 -9 14 -9 -15z"/>
<path d="M6580 4479 c0 -5 5 -7 10 -4 6 3 10 8 10 11 0 2 -4 4 -10 4 -5 0 -10
-5 -10 -11z"/>
<path d="M8364 4475 c4 -11 -1 -15 -17 -15 -26 0 -84 -54 -69 -64 5 -3 15 1
22 10 7 8 19 13 25 10 17 -6 69 49 61 63 -11 17 -29 13 -22 -4z"/>
<path d="M6230 4425 c-25 -22 -181 -138 -244 -180 -32 -22 -75 -55 -95 -73
-35 -33 -36 -33 -5 -15 46 27 127 82 229 156 126 92 145 107 145 118 0 12 -12
10 -30 -6z"/>
<path d="M7805 4410 c-8 -13 6 -40 21 -40 8 0 14 2 14 4 0 2 3 11 6 19 6 16
-32 31 -41 17z"/>
<path d="M3378 4364 c-2 -25 0 -48 4 -50 5 -3 8 18 8 45 0 64 -7 66 -12 5z"/>
<path d="M3747 4386 c-3 -8 3 -22 14 -32 18 -16 19 -16 19 3 0 27 -25 49 -33
29z"/>
<path d="M3685 4363 c12 -51 15 -57 26 -46 11 11 -3 57 -21 68 -7 5 -9 -2 -5
-22z"/>
<path d="M8222 4355 c-28 -43 -16 -46 21 -4 31 35 32 39 15 39 -7 0 -23 -16
-36 -35z"/>
<path d="M3507 4353 c-2 -5 1 -24 8 -43 9 -26 14 -31 19 -19 4 8 2 28 -3 42
-11 28 -17 33 -24 20z"/>
<path d="M4180 4333 c-23 -9 -62 -51 -58 -63 4 -12 88 46 88 61 0 10 -7 10
-30 2z"/>
<path d="M2248 4304 c-11 -10 -10 -56 2 -74 15 -24 20 -7 12 39 -4 23 -10 39
-14 35z"/>
<path d="M3800 4296 c0 -8 5 -18 10 -21 6 -3 10 1 10 9 0 8 -4 18 -10 21 -5 3
-10 -1 -10 -9z"/>
<path d="M3440 4271 c0 -11 5 -23 10 -26 6 -4 10 5 10 19 0 14 -4 26 -10 26
-5 0 -10 -9 -10 -19z"/>
<path d="M3739 4280 c-4 -31 3 -95 12 -104 12 -13 11 72 -1 99 -6 14 -9 16
-11 5z"/>
<path d="M3640 4272 c0 -18 12 -42 21 -42 14 0 10 26 -6 40 -9 8 -15 8 -15 2z"/>
<path d="M4067 4239 c-20 -12 -23 -29 -3 -29 17 0 40 26 29 33 -5 3 -16 1 -26
-4z"/>
<path d="M6625 4230 c3 -5 8 -10 11 -10 2 0 4 5 4 10 0 6 -5 10 -11 10 -5 0
-7 -4 -4 -10z"/>
<path d="M7729 4207 c-12 -17 -18 -23 -15 -13 7 20 7 20 -15 0 -25 -23 -43
-65 -31 -73 5 -3 14 -15 20 -26 10 -17 11 -13 7 25 l-5 45 16 -37 c19 -44 37
-52 21 -9 -5 15 -7 37 -2 47 6 16 9 14 17 -13 5 -18 13 -33 18 -33 14 0 13 13
-2 28 -6 6 -8 15 -4 19 4 4 11 1 16 -7 6 -8 10 -10 10 -5 0 6 -4 17 -9 24 -6
9 -6 22 0 32 6 12 4 19 -6 23 -10 4 -23 -6 -36 -27z"/>
<path d="M7921 4222 c-7 -13 -11 -28 -8 -35 2 -7 9 -2 16 11 7 13 11 28 8 35
-2 7 -9 2 -16 -11z"/>
<path d="M2568 4213 c7 -3 16 -2 19 1 4 3 -2 6 -13 5 -11 0 -14 -3 -6 -6z"/>
<path d="M3207 4205 c-19 -18 -23 -55 -7 -55 6 0 10 12 10 28 0 20 3 23 10 12
12 -20 24 -6 13 15 -9 16 -11 16 -26 0z"/>
<path d="M8460 4200 c-19 -11 -45 -25 -57 -32 -27 -13 -32 -41 -5 -31 9 4 30
17 45 30 16 13 32 23 37 23 4 0 10 7 14 15 7 19 8 19 -34 -5z"/>
<path d="M3508 4204 c-5 -4 -8 -30 -8 -58 0 -35 3 -47 11 -39 5 5 9 32 7 58
-2 26 -6 43 -10 39z"/>
<path d="M7805 4183 c2 -10 4 -21 4 -25 1 -5 5 -8 10 -8 4 0 6 11 3 25 -2 14
-8 25 -12 25 -5 0 -7 -8 -5 -17z"/>
<path d="M7585 4169 c-16 -10 -40 -19 -52 -19 -13 0 -23 -5 -23 -11 0 -14 56
-2 88 19 12 8 25 12 28 9 3 -3 12 -35 21 -72 19 -82 29 -79 12 4 -9 48 -9 64
1 76 11 13 8 15 -16 14 -16 0 -42 -9 -59 -20z"/>
<path d="M3137 4173 c-4 -3 -7 -15 -7 -25 0 -26 24 -17 28 10 3 21 -8 29 -21
15z"/>
<path d="M3060 4140 c0 -23 -5 -30 -19 -30 -10 0 -23 -6 -28 -12 -15 -19 -23
-58 -12 -58 5 0 9 9 9 19 0 20 26 36 35 22 11 -18 -15 -305 -31 -346 -7 -18
-6 -19 10 -6 16 13 17 12 11 -11 -7 -28 22 -128 37 -128 6 0 7 8 3 18 -21 49
-40 212 -25 212 5 0 11 -26 15 -57 10 -89 26 -112 19 -28 -3 39 -8 121 -10
182 -5 100 -4 112 10 107 11 -4 16 0 16 12 0 11 3 36 6 57 5 24 3 37 -5 37 -6
0 -11 -11 -11 -25 0 -14 -5 -25 -11 -25 -8 0 -10 15 -7 45 3 25 2 45 -3 45 -5
0 -9 -13 -9 -30z"/>
<path d="M2303 4109 c5 -47 13 -68 20 -58 8 10 -6 109 -15 109 -6 0 -8 -20 -5
-51z"/>
<path d="M3580 4138 c0 -30 22 -88 31 -83 8 6 6 27 -8 78 -5 19 -23 23 -23 5z"/>
<path d="M2822 4128 c-7 -7 -12 -19 -12 -27 0 -11 5 -8 16 7 18 25 15 39 -4
20z"/>
<path d="M2765 4120 c3 -5 10 -10 16 -10 5 0 9 5 9 10 0 6 -7 10 -16 10 -8 0
-12 -4 -9 -10z"/>
<path d="M8345 4120 c3 -5 10 -10 16 -10 5 0 9 5 9 10 0 6 -7 10 -16 10 -8 0
-12 -4 -9 -10z"/>
<path d="M3620 4110 c0 -5 5 -10 11 -10 5 0 7 5 4 10 -3 6 -8 10 -11 10 -2 0
-4 -4 -4 -10z"/>
<path d="M7484 4112 c-20 -13 -32 -46 -24 -67 6 -17 9 -15 24 19 18 42 18 60
0 48z"/>
<path d="M7587 4108 c-5 -16 3 -80 12 -90 3 -4 6 18 6 47 0 52 -8 70 -18 43z"/>
<path d="M7545 4074 c-17 -41 -19 -70 -6 -78 5 -3 9 9 9 27 0 17 5 44 11 60
16 40 4 33 -14 -9z"/>
<path d="M2490 4090 c0 -5 5 -10 10 -10 6 0 10 5 10 10 0 6 -4 10 -10 10 -5 0
-10 -4 -10 -10z"/>
<path d="M2650 4090 c0 -5 5 -10 10 -10 6 0 10 5 10 10 0 6 -4 10 -10 10 -5 0
-10 -4 -10 -10z"/>
<path d="M7509 4053 c-13 -26 -25 -52 -27 -57 -3 -5 1 -5 8 -1 13 8 53 95 46
102 -2 3 -15 -17 -27 -44z"/>
<path d="M2965 4063 c-14 -66 -15 -78 -6 -63 12 19 25 90 17 90 -3 0 -8 -12
-11 -27z"/>
<path d="M3128 4034 c-1 -31 0 -61 4 -67 4 -7 8 -10 8 -7 5 53 5 130 -1 130
-4 0 -9 -25 -11 -56z"/>
<path d="M3420 4060 c0 -16 5 -30 10 -30 6 0 10 14 10 30 0 17 -4 30 -10 30
-5 0 -10 -13 -10 -30z"/>
<path d="M7430 4081 c0 -5 -20 -33 -45 -62 -24 -28 -42 -56 -38 -62 3 -5 10
-1 16 9 6 11 16 22 23 27 17 10 65 97 53 97 -5 0 -9 -4 -9 -9z"/>
<path d="M2195 4048 c9 -47 34 -128 52 -166 8 -19 21 -62 29 -95 23 -97 44
-170 55 -189 5 -10 9 -23 9 -30 0 -7 9 -24 20 -38 26 -33 26 -9 0 48 -11 24
-21 58 -24 75 -5 47 -55 218 -71 249 -8 14 -15 37 -15 50 0 13 -4 28 -8 34 -5
5 -14 28 -21 52 -14 50 -36 58 -26 10z"/>
<path d="M2861 4054 c-6 -14 -9 -29 -6 -34 3 -5 1 -11 -5 -15 -13 -8 -13 -102
0 -110 6 -4 10 15 10 48 0 40 4 56 15 61 12 4 13 10 6 24 -6 11 -6 24 0 35 6
9 6 17 1 17 -5 0 -14 -12 -21 -26z"/>
<path d="M6200 4018 c-41 -33 -104 -85 -140 -114 -36 -30 -82 -68 -103 -85
-21 -18 -36 -34 -33 -36 3 -3 44 28 91 68 105 89 145 122 219 174 51 36 69 56
49 54 -5 0 -42 -28 -83 -61z"/>
<path d="M2912 4048 c-14 -14 -16 -92 -2 -83 5 3 7 12 4 20 -4 8 -1 28 4 45
12 33 11 35 -6 18z"/>
<path d="M7773 4014 c-24 -24 -39 -44 -35 -44 4 0 28 20 52 45 24 25 40 45 35
44 -6 0 -29 -21 -52 -45z"/>
<path d="M8272 4048 c-20 -20 -13 -28 13 -16 14 6 25 15 25 20 0 12 -24 10
-38 -4z"/>
<path d="M3285 4040 c3 -5 8 -10 11 -10 2 0 4 5 4 10 0 6 -5 10 -11 10 -5 0
-7 -4 -4 -10z"/>
<path d="M7436 4034 c-4 -9 -4 -19 -1 -22 2 -3 7 3 11 12 4 9 4 19 1 22 -2 3
-7 -3 -11 -12z"/>
<path d="M3989 4013 c-13 -16 -33 -39 -44 -53 l-20 -25 25 20 c46 36 80 69 80
77 0 16 -16 8 -41 -19z"/>
<path d="M3584 3983 c-5 -31 -9 -40 -12 -25 -5 33 -22 16 -22 -23 0 -70 40
-49 51 27 9 67 -6 86 -17 21z"/>
<path d="M7326 4005 c-10 -15 -16 -31 -13 -38 2 -6 11 4 20 22 21 42 16 51 -7
16z"/>
<path d="M3340 3995 c0 -14 5 -25 10 -25 6 0 10 11 10 25 0 14 -4 25 -10 25
-5 0 -10 -11 -10 -25z"/>
<path d="M3727 4010 c-3 -8 -8 -34 -11 -58 -8 -51 10 -49 20 2 7 39 1 81 -9
56z"/>
<path d="M4650 3980 c-46 -58 -29 -62 24 -6 35 36 41 46 26 46 -10 0 -33 -18
-50 -40z"/>
<path d="M7876 4004 c-9 -24 -7 -28 9 -14 17 14 20 30 6 30 -5 0 -12 -7 -15
-16z"/>
<path d="M8236 3998 c-40 -11 -96 -53 -96 -72 0 -5 15 4 33 22 20 19 43 32 59
32 14 0 31 7 38 15 7 8 11 15 9 14 -2 -1 -22 -6 -43 -11z"/>
<path d="M3681 3986 c-19 -23 -31 -77 -32 -144 -1 -35 -10 -91 -20 -125 -22
-71 -22 -74 -10 -62 5 6 19 43 31 83 11 40 28 76 36 79 8 3 14 18 14 37 0 22
-3 27 -9 17 -5 -8 -7 -20 -4 -27 2 -6 0 -15 -6 -19 -6 -3 -14 0 -17 9 -7 18
14 126 29 144 5 7 8 15 5 17 -3 3 -10 -1 -17 -9z"/>
<path d="M2999 3948 c-1 -24 -1 -47 0 -52 1 -4 -3 -14 -9 -21 -6 -7 -8 -21 -4
-31 5 -16 4 -16 -5 -4 -10 13 -12 13 -21 0 -8 -11 -9 -1 -4 35 3 28 7 52 7 55
0 3 -5 16 -11 30 -10 22 -11 19 -8 -24 2 -27 0 -63 -5 -80 -5 -17 -5 -32 0
-36 9 -5 2 -81 -18 -220 -5 -30 -5 -64 -1 -75 5 -14 9 0 14 45 4 36 9 79 11
95 2 17 7 55 10 85 7 54 18 80 31 67 4 -3 -1 -50 -10 -104 -9 -54 -19 -140
-21 -191 -3 -53 -11 -102 -19 -115 -7 -12 -21 -53 -30 -91 -10 -38 -28 -93
-41 -121 -14 -28 -28 -67 -31 -86 -4 -19 -11 -39 -16 -46 -10 -13 -3 -33 13
-33 5 0 9 14 9 30 0 17 8 47 17 68 9 20 20 46 25 57 4 11 5 -5 2 -35 -3 -30
-12 -68 -19 -85 -7 -16 -15 -38 -19 -48 -3 -9 -14 -20 -23 -24 -10 -4 -21 -11
-25 -17 -11 -16 -9 -108 2 -126 8 -12 10 -9 10 12 0 32 9 58 21 58 5 0 8 -31
8 -70 -1 -50 -4 -70 -14 -70 -18 0 -8 -154 16 -245 11 -38 21 -79 24 -89 7
-30 25 -44 25 -21 1 19 1 19 11 2 6 -11 8 -37 5 -62 -5 -33 -3 -44 9 -48 19
-8 20 -27 0 -27 -12 0 -13 -4 -3 -25 6 -14 17 -25 25 -25 8 0 13 -11 13 -27 0
-20 -3 -24 -9 -14 -6 9 -10 10 -12 2 -6 -16 -39 -3 -39 15 0 20 -38 17 -44 -3
-3 -10 -8 -36 -11 -59 -6 -47 2 -58 53 -69 24 -5 32 -3 32 8 0 8 13 17 31 21
29 6 31 8 26 43 -12 83 -19 102 -33 96 -9 -3 -14 2 -14 16 0 14 6 21 20 21 31
0 40 29 22 67 -9 18 -19 33 -24 33 -4 0 -8 14 -8 30 0 17 -7 42 -16 56 -12 17
-15 38 -11 71 l5 47 -18 -25 -19 -24 6 41 c3 25 -2 69 -13 110 -10 39 -18 108
-19 159 0 50 -5 96 -9 103 -7 12 16 74 34 92 3 3 18 55 33 115 15 61 38 133
51 160 35 76 47 128 51 227 5 120 -9 160 -29 83 -5 -20 -3 -1 15 140 19 147
22 215 10 215 -6 0 -12 -18 -12 -42z m-20 -518 l-18 -55 6 45 c3 24 7 65 9 90
5 67 6 69 14 20 5 -33 2 -60 -11 -100z m-119 -774 c5 -24 4 -34 -3 -29 -6 4
-8 -4 -3 -23 12 -53 19 -109 13 -103 -11 9 -32 133 -29 167 4 40 11 36 22 -12z
m28 -201 c-3 -3 -9 2 -12 12 -6 14 -5 15 5 6 7 -7 10 -15 7 -18z m62 -104 c0
-6 -4 -13 -10 -16 -5 -3 -10 1 -10 9 0 9 5 16 10 16 6 0 10 -4 10 -9z m-70
-151 c0 -5 -4 -10 -10 -10 -5 0 -10 5 -10 10 0 6 5 10 10 10 6 0 10 -4 10 -10z"/>
<path d="M3086 3972 c-4 -10 2 -45 13 -78 l19 -59 1 60 c0 37 -5 67 -13 78
-14 18 -14 18 -20 -1z"/>
<path d="M3465 3968 c4 -12 15 -36 24 -53 l16 -30 3 44 c4 49 5 46 -26 56 -22
6 -23 5 -17 -17z"/>
<path d="M1895 3968 c-11 -6 -43 -32 -70 -57 -28 -25 -62 -55 -77 -66 -27 -19
-44 -45 -30 -45 4 0 45 32 92 71 47 39 96 79 110 90 28 20 9 26 -25 7z"/>
<path d="M3160 3933 c0 -10 5 -25 10 -33 7 -11 10 -7 10 18 0 17 -4 32 -10 32
-5 0 -10 -8 -10 -17z"/>
<path d="M2330 3916 c0 -8 5 -18 10 -21 6 -3 10 1 10 9 0 8 -4 18 -10 21 -5 3
-10 -1 -10 -9z"/>
<path d="M2896 3887 c3 -10 9 -15 12 -12 3 3 0 11 -7 18 -10 9 -11 8 -5 -6z"/>
<path d="M7880 3884 c0 -8 5 -12 10 -9 6 3 10 10 10 16 0 5 -4 9 -10 9 -5 0
-10 -7 -10 -16z"/>
<path d="M2360 3861 c0 -17 5 -33 10 -36 6 -4 10 8 10 29 0 20 -4 36 -10 36
-5 0 -10 -13 -10 -29z"/>
<path d="M3205 3880 c-6 -9 11 -50 20 -50 3 0 5 14 5 30 0 29 -13 40 -25 20z"/>
<path d="M7296 3849 c-14 -17 -26 -38 -26 -47 1 -20 60 45 60 65 0 19 -5 16
-34 -18z"/>
<path d="M2706 3848 c-3 -13 -6 -27 -6 -33 1 -15 30 27 30 42 0 22 -17 15 -24
-9z"/>
<path d="M2550 3836 c0 -14 5 -28 11 -31 15 -10 18 -4 12 28 -7 34 -23 36 -23
3z"/>
<path d="M2883 3718 c-1 -156 -19 -260 -24 -138 l-2 65 -7 -55 c-3 -30 -2 -69
3 -87 7 -23 5 -56 -7 -118 -10 -48 -20 -93 -23 -101 -3 -8 -1 -14 4 -14 5 0
15 28 22 63 49 253 66 401 56 477 -12 89 -21 54 -22 -92z"/>
<path d="M2811 3798 c0 -39 3 -48 9 -33 12 28 12 85 0 85 -5 0 -10 -24 -9 -52z"/>
<path d="M2857 3833 c-11 -10 -8 -43 3 -43 6 0 10 11 10 25 0 26 -2 29 -13 18z"/>
<path d="M3168 3822 c-3 -9 -1 -26 3 -37 6 -15 8 -11 8 18 1 40 -4 48 -11 19z"/>
<path d="M3605 3828 c-9 -33 -12 -69 -4 -74 5 -3 9 -2 10 3 0 4 2 25 5 46 4
35 -2 51 -11 25z"/>
<path d="M8370 3825 c-7 -9 -10 -18 -7 -22 8 -7 37 15 37 28 0 14 -16 11 -30
-6z"/>
<path d="M2640 3786 c0 -25 5 -48 10 -51 6 -4 10 13 10 44 0 28 -4 51 -10 51
-5 0 -10 -20 -10 -44z"/>
<path d="M2460 3803 c0 -13 5 -23 10 -23 13 0 13 11 0 30 -8 12 -10 11 -10 -7z"/>
<path d="M3534 3793 c-9 -36 -24 -55 -40 -49 -7 3 -17 -1 -22 -7 -12 -15 -13
-67 -1 -67 5 0 9 11 9 25 0 24 9 30 38 26 12 -2 23 20 36 72 4 16 2 27 -4 27
-5 0 -13 -12 -16 -27z"/>
<path d="M3130 3773 c0 -23 -5 -43 -10 -45 -17 -5 -13 -149 4 -166 3 -3 3 32
-1 78 -6 75 -5 83 10 77 14 -5 16 0 10 41 -8 60 -13 66 -13 15z"/>
<path d="M7596 3754 c-29 -64 -30 -68 -15 -58 6 3 20 27 32 53 12 25 23 49 25
54 2 4 -1 7 -6 7 -6 0 -22 -25 -36 -56z"/>
<path d="M6762 3734 c-13 -36 -21 -68 -19 -71 7 -7 48 108 45 124 -2 8 -13
-16 -26 -53z"/>
<path d="M3263 3783 c-10 -4 -9 -10 2 -26 8 -12 15 -34 15 -49 0 -15 5 -30 12
-34 8 -5 9 7 5 46 -7 57 -14 70 -34 63z"/>
<path d="M7362 3750 c-16 -27 -15 -35 3 -20 22 18 18 1 -8 -34 -22 -30 -47
-80 -47 -94 0 -16 70 102 79 133 11 40 -5 49 -27 15z"/>
<path d="M8311 3762 c-7 -2 -45 -38 -85 -80 -106 -113 -105 -112 -116 -112
-12 0 -34 -40 -26 -48 6 -5 39 27 84 83 10 11 29 26 45 34 15 8 27 20 27 26 0
7 21 31 47 53 45 40 53 55 24 44z"/>
<path d="M3220 3731 c0 -17 5 -33 10 -36 6 -4 10 8 10 29 0 20 -4 36 -10 36
-5 0 -10 -13 -10 -29z"/>
<path d="M3421 3742 c-20 -37 -31 -72 -22 -72 4 0 15 19 24 42 18 44 16 64 -2
30z"/>
<path d="M7834 3738 c-26 -32 -45 -76 -34 -83 5 -3 12 5 15 17 4 13 18 38 32
56 27 36 17 44 -13 10z"/>
<path d="M4112 3732 c1 -10 -28 -46 -70 -86 -67 -64 -83 -86 -64 -86 4 0 30
21 57 47 113 103 145 134 145 136 0 2 -16 3 -35 4 -28 1 -35 -3 -33 -15z"/>
<path d="M7792 3728 c-14 -14 -16 -42 -3 -34 7 5 23 46 17 46 -1 0 -7 -5 -14
-12z"/>
<path d="M2776 3714 c-9 -24 -7 -84 3 -84 4 0 9 23 10 50 1 52 -3 61 -13 34z"/>
<path d="M3547 3712 c-18 -20 -23 -72 -7 -72 6 0 10 13 10 28 0 15 5 33 12 40
6 6 9 14 6 17 -2 3 -12 -3 -21 -13z"/>
<path d="M2830 3691 c0 -17 2 -31 4 -31 8 0 13 51 5 56 -5 3 -9 -9 -9 -25z"/>
<path d="M7061 3689 c-16 -45 -14 -70 3 -39 21 38 28 70 18 70 -6 0 -15 -14
-21 -31z"/>
<path d="M7320 3685 c-7 -9 -11 -18 -8 -20 3 -3 11 1 18 10 7 9 11 18 8 20 -3
3 -11 -1 -18 -10z"/>
<path d="M6786 3675 c-9 -26 -7 -32 5 -12 6 10 9 21 6 23 -2 3 -7 -2 -11 -11z"/>
<path d="M3182 3660 c0 -14 2 -19 5 -12 2 6 2 18 0 25 -3 6 -5 1 -5 -13z"/>
<path d="M6180 3600 c-52 -43 -130 -100 -172 -127 -43 -26 -78 -51 -78 -55 0
-12 12 -9 41 10 14 9 46 30 70 46 24 15 58 42 76 58 17 17 62 51 99 77 61 43
89 72 67 70 -4 0 -51 -36 -103 -79z"/>
<path d="M7583 3631 c-18 -28 -28 -53 -23 -56 9 -6 62 83 57 98 -1 5 -17 -14
-34 -42z"/>
<path d="M7365 3638 c-4 -13 -17 -39 -28 -58 -12 -19 -22 -40 -23 -47 -4 -23
11 -14 23 15 6 15 21 46 32 70 11 23 16 42 11 42 -5 0 -12 -10 -15 -22z"/>
<path d="M2600 3612 c0 -43 17 -92 32 -92 5 0 4 8 -1 18 -5 10 -11 37 -14 60
-5 56 -17 66 -17 14z"/>
<path d="M7783 3594 c-24 -30 -39 -56 -33 -59 6 -3 10 -2 10 3 0 4 8 17 18 28
22 25 55 75 50 79 -2 1 -22 -22 -45 -51z"/>
<path d="M6766 3624 c-4 -9 -4 -19 -1 -22 2 -3 7 3 11 12 4 9 4 19 1 22 -2 3
-7 -3 -11 -12z"/>
<path d="M6797 3613 c-8 -15 -19 -44 -25 -63 -5 -19 -13 -43 -17 -52 -5 -13
-2 -18 8 -18 11 0 15 9 15 28 -1 15 9 49 21 76 23 53 22 76 -2 29z"/>
<path d="M7082 3608 c-24 -27 -40 -78 -23 -78 6 0 11 6 11 13 0 7 9 29 20 50
23 43 22 46 -8 15z"/>
<path d="M3380 3568 c0 -62 13 -89 32 -70 9 9 9 12 0 12 -8 0 -12 19 -12 55 0
30 -4 55 -10 55 -5 0 -10 -24 -10 -52z"/>
<path d="M3220 3601 c0 -6 5 -13 10 -16 6 -3 10 1 10 9 0 9 -4 16 -10 16 -5 0
-10 -4 -10 -9z"/>
<path d="M2470 3594 c0 -21 55 -184 63 -184 9 0 9 2 -24 108 -12 40 -26 75
-30 78 -5 3 -9 2 -9 -2z"/>
<path d="M7352 3537 c-18 -35 -32 -68 -31 -73 2 -5 -1 -19 -5 -32 -12 -36 0
-37 17 -3 8 17 13 39 10 50 -2 10 1 22 7 26 9 5 10 1 5 -14 -9 -31 0 -26 24
13 26 42 27 56 1 25 -25 -31 -25 -18 0 31 11 22 17 40 12 40 -4 0 -23 -29 -40
-63z"/>
<path d="M3084 3555 c3 -16 9 -54 12 -82 4 -29 13 -58 21 -64 11 -10 13 -5 7
32 -9 62 -22 111 -35 129 -8 12 -9 8 -5 -15z"/>
<path d="M3150 3560 c0 -11 5 -20 10 -20 6 0 10 9 10 20 0 11 -4 20 -10 20 -5
0 -10 -9 -10 -20z"/>
<path d="M7091 3551 c0 -8 -11 -34 -22 -58 -12 -24 -19 -47 -15 -50 9 -9 48
86 43 105 -3 11 -5 12 -6 3z"/>
<path d="M7550 3479 c-22 -45 -38 -84 -35 -87 7 -7 9 -5 45 67 29 59 44 101
35 101 -2 0 -22 -37 -45 -81z"/>
<path d="M2744 3526 c-7 -30 -2 -71 10 -71 11 0 15 85 4 91 -4 3 -10 -6 -14
-20z"/>
<path d="M3849 3448 c-136 -138 -204 -218 -186 -218 8 0 23 12 33 28 9 15 73
83 141 151 110 111 135 141 118 141 -3 0 -50 -46 -106 -102z"/>
<path d="M6806 3499 c-19 -64 -19 -73 -5 -78 6 -2 9 3 7 10 -1 8 4 36 11 62 8
26 11 50 8 53 -3 4 -13 -18 -21 -47z"/>
<path d="M2788 3534 c-14 -13 -8 -48 12 -79 l20 -30 0 26 c0 14 -4 29 -9 35
-5 5 -11 20 -13 32 -1 13 -6 20 -10 16z"/>
<path d="M7747 3479 c-25 -39 -32 -57 -25 -67 8 -9 6 -17 -4 -30 -24 -26 -50
-82 -45 -95 2 -7 21 21 41 61 20 40 35 76 32 80 -3 5 6 28 20 52 35 62 21 62
-19 -1z"/>
<path d="M3174 3485 c4 -38 16 -43 16 -7 0 18 -4 32 -9 32 -5 0 -8 -11 -7 -25z"/>
<path d="M3463 3460 c-30 -74 -39 -115 -24 -106 6 4 11 13 11 21 0 7 9 35 20
61 12 26 19 55 18 63 -2 9 -13 -9 -25 -39z"/>
<path d="M8018 3473 c-19 -21 -56 -58 -82 -81 -50 -47 -82 -89 -73 -98 3 -3
18 12 33 33 16 21 63 70 104 110 41 40 70 73 64 73 -6 0 -27 -17 -46 -37z"/>
<path d="M1838 3458 c-24 -24 -68 -64 -98 -90 -30 -25 -52 -50 -48 -54 4 -3
24 8 45 26 54 46 163 151 163 156 0 14 -25 -2 -62 -38z"/>
<path d="M2896 3448 c-9 -29 -20 -75 -25 -103 -14 -76 -28 -106 -46 -99 -13 6
-19 25 -18 62 1 19 -15 14 -22 -8 -4 -13 1 -33 14 -53 11 -18 18 -42 15 -53
-3 -10 -1 -30 5 -44 9 -23 10 -21 10 18 1 23 5 42 10 42 11 0 30 60 62 193 23
99 21 126 -5 45z"/>
<path d="M7107 3493 c-45 -76 -63 -128 -47 -138 6 -3 10 4 10 18 0 13 11 46
25 72 13 27 23 51 21 53 -2 2 -6 0 -9 -5z"/>
<path d="M6830 3453 c-7 -21 -16 -42 -21 -47 -5 -6 -9 -19 -9 -30 0 -12 4 -16
9 -10 12 13 44 114 38 120 -3 3 -10 -12 -17 -33z"/>
<path d="M2416 3471 c-4 -6 0 -24 9 -40 17 -33 61 -147 77 -200 12 -42 39 -80
55 -81 11 0 27 -47 28 -80 0 -8 5 -14 10 -12 13 3 13 6 -5 70 -7 28 -19 52
-26 52 -6 0 -17 15 -24 33 -24 59 -110 259 -115 265 -2 2 -6 -1 -9 -7z"/>
<path d="M3228 3465 c-7 -11 -1 -115 7 -123 12 -12 14 8 7 68 -4 36 -10 61
-14 55z"/>
<path d="M7352 3417 c-18 -28 -30 -52 -27 -55 3 -3 6 -3 8 -1 29 41 58 92 55
98 -2 4 -18 -15 -36 -42z"/>
<path d="M7570 3440 c0 -5 -13 -37 -29 -69 -16 -33 -29 -71 -29 -83 0 -13 -3
-33 -7 -46 -6 -18 -4 -21 9 -16 15 6 15 3 4 -22 -6 -16 -16 -34 -20 -41 -5 -6
-4 -14 2 -18 8 -5 7 -13 -3 -28 -19 -29 -29 -75 -18 -79 5 -2 -2 -25 -15 -53
-25 -55 -29 -75 -14 -75 6 0 10 5 10 11 0 5 11 35 25 65 14 30 24 68 23 83 -1
15 8 46 20 69 26 50 28 66 6 37 -16 -19 -16 -19 -9 5 4 14 16 43 26 64 22 46
18 61 -6 19 l-16 -28 7 35 c3 19 11 41 16 47 6 7 8 19 5 27 -3 8 3 33 14 55
22 46 23 51 9 51 -5 0 -10 -4 -10 -10z"/>
<path d="M3170 3390 c-3 -34 0 -64 9 -72 4 -5 5 9 3 30 -5 55 -9 70 -12 42z"/>
<path d="M6844 3383 c-3 -10 -11 -31 -16 -46 -6 -15 -8 -31 -4 -34 11 -12 23
11 29 55 5 43 1 56 -9 25z"/>
<path d="M8199 3354 c-74 -65 -82 -74 -76 -80 3 -3 18 7 34 23 16 15 47 42 68
60 22 17 37 34 34 38 -4 3 -31 -15 -60 -41z"/>
<path d="M2650 3369 c0 -15 7 -32 15 -39 12 -10 15 -9 15 7 0 10 -7 28 -15 39
-14 18 -14 18 -15 -7z"/>
<path d="M7087 3330 c-29 -64 -32 -80 -17 -80 5 0 13 12 16 28 4 15 15 46 25
70 28 65 6 50 -24 -18z"/>
<path d="M7353 3368 c-21 -29 -47 -88 -41 -94 7 -6 30 34 48 81 10 27 8 32 -7
13z"/>
<path d="M3130 3360 c1 -35 27 -114 40 -118 10 -4 11 0 5 14 -4 11 -10 33 -13
49 -5 34 -32 79 -32 55z"/>
<path d="M4070 3278 c-30 -35 -60 -67 -67 -71 -15 -9 -17 -27 -4 -27 5 0 41
36 81 80 40 44 66 80 58 80 -7 0 -38 -28 -68 -62z"/>
<path d="M3205 3285 c4 -38 14 -42 13 -6 -1 17 -4 31 -9 31 -4 0 -6 -11 -4
-25z"/>
<path d="M6348 3257 c-36 -29 -106 -83 -154 -121 -48 -38 -111 -83 -138 -101
-51 -33 -107 -85 -91 -85 4 0 27 16 51 35 23 19 45 35 49 35 3 0 12 6 20 13 7
6 26 22 41 34 16 12 83 63 149 114 135 104 151 117 144 123 -2 2 -34 -19 -71
-47z"/>
<path d="M6846 3257 c-11 -26 -16 -50 -13 -53 8 -9 38 67 34 86 -1 8 -11 -6
-21 -33z"/>
<path d="M3371 3262 c-13 -25 -14 -42 -2 -42 10 0 25 50 17 57 -2 3 -9 -4 -15
-15z"/>
<path d="M7678 3263 c-16 -19 -38 -58 -38 -67 0 -19 22 0 43 39 26 45 23 60
-5 28z"/>
<path d="M8035 3207 c-33 -34 -99 -96 -145 -137 -154 -137 -172 -155 -187
-185 -12 -23 0 -15 53 36 38 36 96 90 128 120 127 116 226 213 226 221 0 17
-17 5 -75 -55z"/>
<path d="M7316 3220 c-15 -37 -22 -79 -12 -69 12 11 45 109 37 109 -5 0 -16
-18 -25 -40z"/>
<path d="M2731 3233 c-9 -15 -12 -16 -20 -3 -15 23 -24 5 -9 -19 17 -28 26
-26 39 5 12 32 5 43 -10 17z"/>
<path d="M3166 3180 c8 -41 9 -44 23 -35 16 9 14 20 -9 46 l-21 24 7 -35z"/>
<path d="M2616 3178 c3 -13 10 -30 15 -38 7 -12 8 -10 9 7 0 28 -10 53 -22 53
-5 0 -6 -10 -2 -22z"/>
<path d="M6861 3169 c-15 -42 -14 -69 2 -69 8 0 13 17 15 50 1 28 0 50 -2 50
-2 0 -9 -14 -15 -31z"/>
<path d="M7333 3158 c-16 -20 -53 -96 -53 -108 0 -23 20 2 44 57 26 55 29 76
9 51z"/>
<path d="M7630 3124 c-17 -25 -30 -51 -28 -57 1 -7 -6 -29 -15 -51 -19 -44
-20 -46 -9 -46 4 0 14 16 21 35 7 19 20 42 29 52 13 12 14 17 4 21 -9 3 -6 13
11 35 34 46 39 57 28 57 -5 0 -24 -21 -41 -46z"/>
<path d="M3344 3125 c-11 -27 2 -37 14 -11 7 16 8 26 1 26 -5 0 -12 -7 -15
-15z"/>
<path d="M2730 3110 c0 -11 4 -20 9 -20 5 0 7 9 4 20 -3 11 -7 20 -9 20 -2 0
-4 -9 -4 -20z"/>
<path d="M7039 3120 c-3 -8 -2 -27 2 -42 4 -15 5 -36 2 -46 -2 -11 0 -23 6
-26 7 -5 11 6 10 31 -2 54 -14 102 -20 83z"/>
<path d="M7097 3123 c-4 -3 -7 -11 -7 -17 0 -6 5 -5 12 2 6 6 9 14 7 17 -3 3
-9 2 -12 -2z"/>
<path d="M3183 3087 c3 -21 2 -37 -4 -37 -15 0 -10 -33 10 -73 11 -21 25 -60
31 -87 7 -28 16 -53 21 -56 14 -8 11 39 -5 84 -8 23 -12 44 -8 46 10 6 2 86
-8 86 -5 0 -11 13 -15 30 -10 45 -29 51 -22 7z m37 -57 c0 -5 -7 -10 -15 -10
-8 0 -15 5 -15 10 0 6 7 10 15 10 8 0 15 -4 15 -10z"/>
<path d="M2780 3095 c0 -8 5 -15 10 -15 6 0 10 7 10 15 0 8 -4 15 -10 15 -5 0
-10 -7 -10 -15z"/>
<path d="M6890 3098 c-1 -7 -3 -30 -6 -50 -6 -41 10 -53 20 -15 9 35 7 77 -4
77 -5 0 -10 -6 -10 -12z"/>
<path d="M7111 3079 c-22 -35 -28 -75 -11 -64 6 3 10 14 10 23 0 10 7 28 16
40 9 13 14 26 11 29 -3 3 -15 -10 -26 -28z"/>
<path d="M1990 3067 c-19 -18 -40 -44 -46 -57 -6 -14 -28 -45 -48 -68 -41 -49
-45 -66 -16 -57 16 5 20 2 21 -17 0 -19 3 -17 14 12 7 19 14 43 14 53 1 23 32
65 89 123 31 32 38 44 25 44 -10 0 -34 -15 -53 -33z"/>
<path d="M7420 3086 c0 -2 7 -7 16 -10 8 -3 12 -2 9 4 -6 10 -25 14 -25 6z"/>
<path d="M2721 3064 c0 -11 3 -14 6 -6 3 7 2 16 -1 19 -3 4 -6 -2 -5 -13z"/>
<path d="M7307 3031 c-28 -50 -33 -71 -19 -71 10 0 56 109 50 116 -3 2 -17
-18 -31 -45z"/>
<path d="M2460 3061 c0 -4 -11 -6 -24 -4 -21 4 -28 -4 -66 -84 -24 -48 -47
-96 -52 -105 -5 -12 -5 -18 2 -18 5 0 30 41 55 90 26 51 51 90 60 90 23 0 38
-38 30 -79 -4 -20 -3 -33 1 -29 4 4 12 0 19 -9 7 -9 17 -13 22 -10 7 5 5 27
-8 68 -10 33 -19 69 -19 80 0 10 -4 19 -10 19 -5 0 -10 -4 -10 -9z"/>
<path d="M2626 3048 c-26 -126 -27 -175 -6 -201 15 -18 21 -20 32 -9 11 11 10
15 -4 23 -25 14 -23 38 2 32 26 -7 25 5 -1 33 -20 21 -21 27 -10 68 6 25 11
52 11 60 0 24 -19 19 -24 -6z"/>
<path d="M2767 3044 c-6 -6 23 -44 35 -44 4 0 2 11 -4 25 -11 25 -20 30 -31
19z"/>
<path d="M2690 3030 c0 -5 5 -10 10 -10 6 0 10 5 10 10 0 6 -4 10 -10 10 -5 0
-10 -4 -10 -10z"/>
<path d="M3047 3023 c-3 -5 -8 -34 -12 -65 -8 -65 9 -83 19 -20 4 20 9 49 12
65 5 25 -8 38 -19 20z"/>
<path d="M3310 3010 c0 -11 4 -20 9 -20 6 0 9 9 8 20 -1 11 -5 20 -9 20 -4 0
-8 -9 -8 -20z"/>
<path d="M7108 2978 c-23 -54 -15 -61 11 -9 23 44 25 51 14 51 -5 0 -16 -19
-25 -42z"/>
<path d="M6911 2966 c-12 -27 -20 -54 -18 -60 3 -6 14 11 26 38 12 27 20 54
18 60 -3 6 -14 -11 -26 -38z"/>
<path d="M2928 2938 c-5 -66 -1 -83 18 -67 17 14 19 33 3 23 -8 -5 -9 8 -4 45
4 32 3 51 -3 51 -6 0 -12 -24 -14 -52z"/>
<path d="M7591 2966 c-14 -15 -21 -31 -17 -43 3 -10 -3 -31 -14 -48 -21 -31
-28 -91 -10 -80 6 3 10 13 10 22 0 8 7 30 16 49 9 18 14 39 11 46 -2 7 5 26
16 41 25 36 17 44 -12 13z"/>
<path d="M6509 2937 c-14 -12 -43 -35 -64 -52 -91 -71 -386 -323 -326 -278 9
6 37 26 63 45 26 18 107 83 179 143 72 61 144 119 160 130 27 19 38 35 22 35
-5 0 -20 -11 -34 -23z"/>
<path d="M2710 2940 c0 -5 5 -10 10 -10 6 0 10 5 10 10 0 6 -4 10 -10 10 -5 0
-10 -4 -10 -10z"/>
<path d="M3254 2925 c-6 -25 9 -55 27 -55 5 0 9 11 9 25 0 14 -5 25 -11 25 -6
0 -9 7 -5 15 3 8 1 15 -4 15 -5 0 -12 -11 -16 -25z"/>
<path d="M7286 2933 c-4 -4 -14 -23 -22 -42 -20 -49 -1 -60 20 -12 18 38 19
71 2 54z"/>
<path d="M2730 2901 c0 -6 5 -13 10 -16 6 -3 10 1 10 9 0 9 -4 16 -10 16 -5 0
-10 -4 -10 -9z"/>
<path d="M6911 2874 c-9 -24 -10 -39 -3 -46 7 -7 12 4 17 32 9 53 2 60 -14 14z"/>
<path d="M7106 2874 c-24 -51 -12 -55 14 -5 11 23 17 41 12 41 -5 0 -16 -16
-26 -36z"/>
<path d="M7432 2868 c-7 -7 -12 -20 -12 -29 0 -9 -7 -33 -16 -54 -10 -24 -12
-41 -6 -47 10 -10 31 39 37 85 1 12 6 30 10 40 8 20 4 22 -13 5z"/>
<path d="M7903 2848 c-16 -18 -45 -46 -66 -61 -34 -26 -47 -47 -29 -47 4 0 41
32 81 70 41 39 67 70 58 70 -8 0 -28 -15 -44 -32z"/>
<path d="M2961 2823 c-13 -44 -13 -99 -4 -287 3 -80 10 -133 15 -128 13 13 12
29 -1 187 -10 110 -10 152 0 198 14 65 6 89 -10 30z"/>
<path d="M3322 2844 c-1 -12 -9 -38 -17 -58 -9 -20 -15 -51 -14 -69 2 -28 -8
-76 -43 -211 -7 -30 -12 -36 -20 -25 -6 9 -8 -10 -4 -63 3 -46 2 -79 -4 -83
-6 -3 -11 6 -11 22 -2 22 -3 19 -8 -12 -4 -22 -3 -45 1 -51 5 -7 8 -16 7 -20
-4 -24 3 -34 26 -34 33 0 50 40 35 83 -7 22 -6 37 5 61 8 17 17 49 19 71 8 58
43 193 61 228 8 16 15 44 15 60 0 17 5 45 12 64 6 18 9 36 5 39 -11 11 -35
-16 -44 -49 -7 -31 -8 -30 -14 18 -3 28 -7 40 -7 29z m-2 -88 c0 -3 -4 -8 -10
-11 -5 -3 -10 -1 -10 4 0 6 5 11 10 11 6 0 10 -2 10 -4z m17 -38 c-3 -8 -6 -5
-6 6 -1 11 2 17 5 13 3 -3 4 -12 1 -19z m-26 -89 c-12 -34 -21 -71 -21 -83 0
-14 -3 -17 -11 -9 -8 8 -8 17 0 31 6 11 11 28 11 36 0 18 33 97 38 92 2 -2 -6
-32 -17 -67z m-65 -216 c-10 -10 -19 5 -10 18 6 11 8 11 12 0 2 -7 1 -15 -2
-18z"/>
<path d="M2589 2840 c-1 -8 -1 -20 0 -27 1 -6 -2 -14 -7 -17 -10 -6 -3 -66 8
-66 11 0 18 92 9 110 -7 13 -9 13 -10 0z"/>
<path d="M6930 2816 c-12 -33 -13 -66 -1 -66 9 0 23 81 16 89 -3 2 -9 -8 -15
-23z"/>
<path d="M7265 2791 c-9 -22 -15 -45 -12 -53 2 -7 14 9 26 35 24 55 24 57 13
57 -5 0 -17 -18 -27 -39z"/>
<path d="M2730 2805 c0 -8 -7 -15 -16 -15 -12 0 -15 -6 -10 -24 3 -13 3 -38 0
-55 -6 -26 -8 -29 -18 -16 -8 12 -11 -6 -11 -75 0 -61 3 -90 11 -90 20 0 29
-80 27 -238 -1 -85 1 -151 5 -148 3 4 7 23 8 42 1 20 6 40 12 46 15 15 26 -81
13 -114 -12 -32 2 -47 25 -27 11 9 13 24 8 58 -9 69 -24 121 -34 121 -5 0 -9
28 -10 63 -1 78 -5 105 -25 192 -15 68 -14 155 4 183 15 25 38 -22 50 -103 7
-44 17 -91 22 -105 25 -71 30 -81 39 -75 6 4 4 20 -5 43 -8 20 -25 86 -39 145
-13 60 -32 117 -41 126 -12 14 -13 24 -5 45 12 34 12 36 0 36 -5 0 -10 -7 -10
-15z"/>
<path d="M2251 2778 c-8 -22 -8 -34 -1 -36 5 -2 10 -22 10 -45 0 -25 4 -37 9
-31 6 5 6 24 2 44 -5 24 -3 42 7 57 13 21 10 43 -8 43 -4 0 -13 -15 -19 -32z"/>
<path d="M3233 2785 c-13 -25 -27 -94 -24 -117 3 -28 -19 -99 -29 -93 -6 4
-10 18 -10 33 0 38 -23 111 -28 90 -2 -10 -7 -18 -12 -18 -17 0 -30 -69 -29
-151 0 -46 0 -119 -1 -162 -1 -47 4 -84 11 -93 15 -18 31 -7 24 16 -3 10 2 25
12 36 19 18 39 94 48 179 2 28 8 64 12 80 l7 30 7 -30 c4 -20 7 -4 8 51 0 45
6 95 12 112 13 38 7 66 -8 37z m-81 -197 c2 -46 0 -84 -4 -86 -5 -2 -8 -14 -8
-27 0 -32 -16 -40 -24 -12 -9 35 -7 153 4 181 17 47 28 27 32 -56z m4 -183
c-4 -23 -13 -51 -21 -61 -13 -18 -14 -16 -15 19 0 21 7 45 15 53 8 9 16 27 16
42 1 19 3 22 6 8 3 -10 2 -37 -1 -61z"/>
<path d="M7132 2778 c-8 -14 -12 -34 -10 -44 4 -16 7 -14 17 10 16 40 10 67
-7 34z"/>
<path d="M2206 2765 c-7 -20 14 -65 31 -65 11 0 11 4 3 20 -6 12 -8 30 -5 40
8 24 -20 28 -29 5z"/>
<path d="M2620 2746 c0 -35 -10 -56 -26 -56 -15 0 -14 -15 8 -150 6 -36 12
-76 14 -90 8 -45 4 -175 -5 -208 -5 -17 -6 -34 -1 -37 14 -8 21 10 29 78 10
71 12 60 14 -73 2 -77 5 -95 17 -95 22 0 31 81 14 125 -16 45 -36 184 -40 278
-1 41 -5 76 -8 80 -3 3 -6 -4 -6 -16 0 -43 -17 -30 -23 18 -4 32 -1 59 8 77
20 42 29 93 16 93 -6 0 -11 -11 -11 -24z m57 -558 c-3 -7 -5 -2 -5 12 0 14 2
19 5 13 2 -7 2 -19 0 -25z"/>
<path d="M3045 2713 c-18 -63 -38 -181 -31 -191 2 -4 7 -32 10 -61 11 -92 18
-72 11 30 -7 86 -5 104 19 181 29 97 30 98 17 98 -5 0 -17 -26 -26 -57z"/>
<path d="M6946 2741 c-9 -16 -12 -32 -7 -35 9 -6 35 54 27 62 -3 2 -12 -10
-20 -27z"/>
<path d="M3426 2729 c-12 -39 -44 -242 -51 -329 -4 -50 -3 -52 5 -15 5 22 11
69 15 105 5 58 18 92 28 79 5 -5 -11 -184 -18 -216 -3 -14 -10 -20 -19 -17 -8
3 -17 1 -20 -5 -7 -11 32 -37 49 -33 7 1 9 -12 7 -33 -7 -57 15 -41 54 38 38
76 107 268 99 275 -4 5 -45 -83 -45 -96 1 -16 -85 -220 -91 -217 -7 5 -4 46
11 149 6 38 8 77 5 86 -3 10 -1 22 6 25 8 6 8 10 -2 15 -9 6 -10 13 -3 22 5 7
18 38 28 68 10 30 23 59 27 65 13 14 11 25 -5 25 -9 0 -21 -21 -31 -55 -10
-35 -21 -55 -30 -55 -8 0 -15 -8 -15 -17 0 -11 -3 -13 -9 -7 -6 5 -4 35 5 78
8 38 12 71 9 74 -2 3 -7 -1 -9 -9z"/>
<path d="M7277 2720 c-11 -31 -15 -90 -7 -95 10 -6 25 77 17 97 -4 10 -6 10
-10 -2z"/>
<path d="M2580 2710 c0 -5 5 -10 10 -10 6 0 10 5 10 10 0 6 -4 10 -10 10 -5 0
-10 -4 -10 -10z"/>
<path d="M7650 2701 c0 -4 11 -6 25 -3 14 2 25 6 25 8 0 2 -11 4 -25 4 -14 0
-25 -4 -25 -9z"/>
<path d="M2364 2658 c8 -50 18 -119 22 -158 4 -40 4 -209 -1 -260 -2 -21 3
-42 12 -52 8 -9 16 -22 17 -30 6 -29 19 -48 32 -48 16 0 19 16 4 25 -5 3 -10
23 -10 44 0 31 -4 38 -17 37 -16 -1 -18 9 -15 99 5 142 -20 375 -40 375 -5 0
-7 -15 -4 -32z"/>
<path d="M7386 2681 c-13 -21 -46 -127 -46 -148 0 -39 15 -25 28 25 7 26 18
64 24 85 11 36 7 59 -6 38z"/>
<path d="M6956 2664 c-9 -24 -7 -54 4 -54 6 0 10 16 10 35 0 38 -4 44 -14 19z"/>
<path d="M7142 2659 c-16 -40 -18 -54 -8 -59 11 -6 29 55 23 73 -3 7 -9 0 -15
-14z"/>
<path d="M2460 2625 c0 -8 5 -15 10 -15 6 0 10 7 10 15 0 8 -4 15 -10 15 -5 0
-10 -7 -10 -15z"/>
<path d="M3646 2623 c-2 -10 -14 -52 -26 -93 -12 -41 -26 -79 -31 -84 -5 -6
-9 -18 -9 -28 0 -10 -12 -42 -26 -70 -19 -37 -22 -53 -14 -58 16 -10 2 -36
-44 -78 -21 -20 -36 -28 -37 -20 -2 23 -17 -36 -18 -69 -1 -47 12 -41 28 12 7
25 22 50 32 56 26 13 66 95 83 168 8 33 16 64 19 69 4 5 9 23 12 41 3 18 17
60 30 94 14 33 25 64 25 69 0 15 -19 8 -24 -9z"/>
<path d="M6990 2616 c-12 -33 -13 -46 -1 -46 9 0 22 61 15 69 -2 2 -8 -8 -14
-23z"/>
<path d="M3350 2590 c0 -11 2 -20 4 -20 2 0 6 9 9 20 3 11 1 20 -4 20 -5 0 -9
-9 -9 -20z"/>
<path d="M6615 2571 c-27 -21 -63 -54 -80 -72 l-30 -33 30 19 c16 10 40 28 53
40 13 12 41 33 62 46 22 13 40 27 40 32 0 16 -27 4 -75 -32z"/>
<path d="M2465 2459 c4 -79 9 -160 12 -179 2 -19 4 -65 3 -102 -1 -40 3 -69
10 -73 18 -11 20 -3 10 40 -6 26 -6 51 1 72 7 22 7 38 0 51 -9 18 -21 155 -22
270 -1 28 -6 55 -11 58 -7 4 -8 -43 -3 -137z"/>
<path d="M1937 2528 c3 -24 9 -56 14 -73 10 -37 15 -222 5 -252 -4 -12 -2 -24
3 -27 16 -10 24 57 18 168 -4 75 -2 106 6 109 8 3 6 11 -5 24 -10 11 -18 29
-18 40 0 27 -10 53 -20 53 -5 0 -6 -19 -3 -42z"/>
<path d="M2520 2533 c0 -28 15 -62 23 -53 2 3 2 22 -1 43 -5 43 -22 50 -22 10z"/>
<path d="M3702 2508 c-7 -23 -20 -58 -29 -77 -13 -32 -16 -34 -22 -16 -6 16
-9 12 -15 -20 -4 -22 -15 -56 -24 -75 -9 -19 -17 -60 -18 -90 -1 -30 -5 -68
-9 -83 -12 -44 1 -43 31 2 27 42 45 50 24 12 -19 -36 12 -25 43 15 16 19 31
33 34 30 3 -3 0 -12 -7 -21 -7 -9 -8 -15 -2 -15 19 0 53 74 58 124 l4 51 -13
-50 c-7 -27 -17 -50 -22 -50 -18 0 -25 116 -10 165 22 75 27 102 15 95 -5 -3
-10 -13 -10 -20 0 -36 -116 -303 -127 -292 -9 9 19 114 39 146 55 89 102 211
81 211 -4 0 -14 -19 -21 -42z m11 -243 c6 -33 -15 -71 -32 -60 -14 8 -14 20 0
69 11 42 23 38 32 -9z m-62 -36 c-9 -22 -10 -22 -10 -3 -1 11 2 24 6 27 12 12
14 0 4 -24z"/>
<path d="M3922 2518 c-6 -18 -9 -44 -8 -58 2 -14 -1 -38 -6 -55 -6 -16 -18
-59 -28 -95 l-18 -65 -1 62 c-1 34 5 82 13 105 8 24 14 50 13 58 0 8 3 25 7
38 4 12 3 22 -2 22 -11 0 -22 -34 -22 -70 0 -15 -5 -31 -10 -36 -6 -6 -13 -44
-15 -85 -2 -41 -9 -87 -14 -103 -15 -37 -14 -56 3 -56 15 0 40 48 51 97 3 18
13 36 20 41 9 5 16 35 20 87 3 44 8 95 11 113 4 17 4 32 1 32 -3 0 -10 -15
-15 -32z"/>
<path d="M7030 2528 c0 -16 5 -28 10 -28 13 0 13 20 0 40 -8 12 -10 9 -10 -12z"/>
<path d="M2248 2528 c-2 -6 1 -30 8 -52 19 -64 32 -136 39 -201 7 -72 14 -97
24 -90 5 2 2 46 -5 97 -20 143 -25 172 -35 190 -5 9 -9 28 -9 42 0 26 -15 36
-22 14z"/>
<path d="M3336 2518 c-3 -13 -6 -35 -6 -49 0 -14 -9 -52 -20 -84 -23 -66 -24
-75 -10 -75 6 0 10 13 10 28 0 15 4 32 10 38 5 5 12 32 16 59 3 28 8 57 11 65
10 27 11 40 3 40 -4 0 -10 -10 -14 -22z"/>
<path d="M7264 2519 c-3 -6 -1 -16 5 -22 8 -8 11 -5 11 11 0 24 -5 28 -16 11z"/>
<path d="M7144 2495 c-6 -15 2 -35 14 -35 4 0 7 11 7 25 0 27 -12 33 -21 10z"/>
<path d="M1863 2425 c8 -79 25 -176 32 -183 13 -13 12 11 -6 117 -21 125 -35
161 -26 66z"/>
<path d="M7355 2439 c-9 -17 -15 -40 -13 -52 2 -17 8 -9 25 31 23 56 14 72
-12 21z"/>
<path d="M7850 2424 c-25 -19 -46 -40 -48 -45 -2 -5 -9 -9 -16 -9 -6 0 -34
-23 -61 -51 -71 -72 -121 -110 -149 -113 -26 -3 -212 -152 -234 -187 -23 -36
6 -19 101 61 53 44 99 80 104 80 15 1 112 75 176 136 89 83 110 100 151 119
20 10 36 24 36 31 0 21 -11 17 -60 -22z"/>
<path d="M7055 2427 c-4 -10 -5 -21 -1 -24 10 -10 18 4 13 24 -4 17 -4 17 -12
0z"/>
<path d="M7267 2423 c-4 -3 -7 -11 -7 -17 0 -6 5 -5 12 2 6 6 9 14 7 17 -3 3
-9 2 -12 -2z"/>
<path d="M2597 2385 c-11 -51 -17 -61 -28 -44 -6 10 -9 6 -9 -12 0 -15 -7 -46
-15 -69 -8 -23 -15 -58 -15 -76 0 -28 4 -34 21 -34 15 0 19 -5 15 -15 -3 -8
-1 -15 4 -15 14 0 22 56 15 113 -5 41 -3 62 10 86 9 18 15 48 13 69 l-3 37 -8
-40z m-36 -193 c-9 -25 -9 -24 -10 18 0 36 2 41 10 27 7 -12 7 -27 0 -45z"/>
<path d="M2820 2371 c-10 -40 -9 -47 9 -72 12 -16 21 -35 21 -44 0 -8 5 -15
10 -15 6 0 10 14 10 30 0 17 -4 30 -10 30 -19 0 -31 38 -19 58 8 13 9 24 1 37
-9 17 -12 13 -22 -24z"/>
<path d="M7150 2392 c0 -6 -6 -17 -14 -24 -11 -12 -11 -17 0 -32 11 -16 13
-15 20 18 3 21 4 40 0 43 -3 4 -6 1 -6 -5z"/>
<path d="M2868 2383 c7 -3 16 -2 19 1 4 3 -2 6 -13 5 -11 0 -14 -3 -6 -6z"/>
<path d="M3966 2368 c-20 -27 -20 -34 -2 -41 8 -3 17 7 24 29 12 39 1 45 -22
12z"/>
<path d="M7262 2358 c-17 -56 -24 -108 -13 -108 5 0 13 21 17 48 4 26 11 57
15 70 5 12 5 22 0 22 -5 0 -14 -15 -19 -32z"/>
<path d="M3023 2322 c-6 -31 -7 -64 -3 -71 5 -9 11 11 15 52 9 85 2 96 -12 19z"/>
<path d="M1770 2358 c0 -8 8 -25 17 -38 11 -15 18 -44 18 -72 0 -27 4 -47 10
-45 17 4 13 80 -6 119 -20 40 -39 57 -39 36z"/>
<path d="M8502 2353 c-5 -10 -15 -39 -22 -66 -16 -59 -36 -76 -27 -24 4 27 2
37 -8 37 -21 0 -30 -59 -11 -78 14 -14 17 -14 35 2 11 10 28 41 37 70 9 28 19
57 22 64 7 19 -16 14 -26 -5z"/>
<path d="M2110 2354 c0 -3 9 -29 21 -57 11 -29 25 -62 30 -75 5 -13 9 -38 9
-57 0 -24 5 -35 15 -35 11 0 13 8 9 33 -16 91 -56 197 -74 197 -6 0 -10 -3
-10 -6z"/>
<path d="M2180 2352 c0 -4 17 -31 39 -59 25 -34 41 -67 45 -97 9 -56 26 -70
26 -22 0 43 -14 76 -58 139 -31 43 -52 59 -52 39z"/>
<path d="M4127 2308 c-9 -36 5 -70 37 -88 37 -19 60 2 47 45 -5 17 -10 22 -10
12 -1 -16 -40 -40 -50 -31 -3 3 -7 23 -11 47 -5 39 -6 40 -13 15z"/>
<path d="M3340 2297 c0 -22 -37 -64 -52 -59 -4 1 -15 -14 -23 -34 -18 -43 -18
-44 -5 -44 6 0 10 6 10 13 0 6 18 29 40 50 29 27 40 45 40 67 0 17 -2 30 -5
30 -3 0 -5 -10 -5 -23z"/>
<path d="M3928 2295 c-11 -24 -13 -25 -19 -8 -7 16 -8 15 -8 -5 -1 -12 -7 -37
-15 -55 -11 -27 -11 -35 0 -45 11 -10 16 -8 25 10 11 21 11 22 -4 9 -25 -20
-21 -5 14 56 17 30 29 57 25 60 -3 3 -11 -7 -18 -22z"/>
<path d="M8384 2293 c-3 -10 -10 -30 -16 -45 -7 -18 -6 -33 2 -48 11 -21 12
-21 32 -3 18 16 19 18 3 21 -17 4 -17 30 0 75 4 10 3 17 -4 17 -7 0 -14 -8
-17 -17z"/>
<path d="M1550 2285 c-8 -9 -9 -25 -5 -42 7 -24 9 -25 13 -8 2 11 8 24 13 30
12 12 12 35 0 35 -5 0 -14 -7 -21 -15z"/>
<path d="M1667 2293 c-20 -19 2 -133 26 -133 5 0 6 7 1 18 -5 9 -9 41 -9 70 0
50 -4 60 -18 45z"/>
<path d="M7135 2287 c-4 -10 -5 -21 -1 -24 10 -10 18 4 13 24 -4 17 -4 17 -12
0z"/>
<path d="M3937 2254 l-18 -36 27 21 c31 24 40 22 25 -7 -6 -12 -11 -31 -11
-44 1 -23 1 -23 25 5 25 28 29 27 26 -5 -2 -20 14 -24 24 -8 8 14 75 2 96 -16
18 -16 79 -19 79 -4 0 6 -12 10 -28 10 -15 0 -38 7 -50 16 -12 8 -40 16 -62
17 -35 1 -40 4 -40 26 l0 25 -31 -30 c-24 -23 -29 -25 -23 -9 4 11 13 29 21
41 15 24 6 39 -14 22 -11 -9 -16 -9 -22 0 -5 8 -13 -1 -24 -24z"/>
<path d="M2005 2251 c-7 -22 3 -51 17 -51 6 0 7 11 4 24 -12 48 10 34 54 -35
25 -38 51 -69 58 -69 16 0 15 15 -2 29 -8 6 -19 25 -26 41 -7 17 -19 30 -28
30 -8 0 -12 3 -9 7 10 10 -24 43 -44 43 -10 0 -20 -8 -24 -19z"/>
<path d="M8277 2253 c-2 -5 -7 -25 -11 -45 -8 -43 -26 -51 -26 -12 0 16 -5 24
-12 21 -7 -2 -12 -10 -10 -17 2 -7 -5 -21 -15 -32 -18 -20 -18 -20 -24 8 l-6
29 -8 -28 c-5 -21 -3 -33 8 -44 13 -14 16 -13 26 6 10 18 15 19 31 9 13 -8 23
-9 29 -3 13 15 40 115 30 115 -4 0 -10 -3 -12 -7z"/>
<path d="M3140 2240 c0 -5 5 -10 10 -10 6 0 10 5 10 10 0 6 -4 10 -10 10 -5 0
-10 -4 -10 -10z"/>
<path d="M3195 2217 c5 -25 3 -28 -15 -22 -19 6 -20 4 -14 -21 5 -19 4 -25 -5
-20 -6 4 -11 1 -12 -6 0 -7 -4 -4 -9 7 -4 11 -6 30 -3 43 8 32 -22 29 -39 -5
-8 -16 -22 -40 -32 -55 -19 -29 -16 -33 36 -42 22 -4 39 -2 43 4 5 8 13 6 25
-5 15 -14 21 -14 39 -3 17 10 21 23 21 60 0 29 -5 50 -14 55 -7 4 -16 15 -20
23 -3 8 -4 2 -1 -13z"/>
<path d="M6589 2195 c-62 -44 -82 -65 -61 -65 14 0 132 90 132 101 0 13 0 13
-71 -36z"/>
<path d="M3545 2200 c-9 -17 -13 -36 -9 -43 4 -7 4 -9 -1 -5 -9 9 -40 -30 -31
-39 10 -10 57 40 52 54 -3 7 -1 24 4 38 13 35 4 31 -15 -5z"/>
<path d="M3020 2167 c0 -68 9 -77 30 -29 18 39 20 59 8 55 -5 -2 -8 4 -8 12 0
8 -7 15 -15 15 -11 0 -15 -13 -15 -53z"/>
<path d="M7130 2205 c0 -8 5 -15 10 -15 6 0 10 7 10 15 0 8 -4 15 -10 15 -5 0
-10 -7 -10 -15z"/>
<path d="M2806 2194 c-9 -23 -7 -82 3 -88 4 -3 9 19 10 49 1 57 -2 67 -13 39z"/>
<path d="M3386 2169 c-11 -58 -7 -99 10 -99 12 0 14 5 9 18 -8 19 -8 67 1 95
3 9 1 17 -4 17 -5 0 -12 -14 -16 -31z"/>
<path d="M8052 2186 c-25 -12 -28 -19 -37 -91 -4 -36 -3 -46 4 -35 6 8 11 26
11 40 1 28 50 96 50 69 0 -9 -7 -22 -15 -29 -10 -8 -13 -23 -9 -44 6 -39 20
-54 35 -39 8 8 8 13 0 17 -15 10 -14 39 4 72 27 53 12 67 -43 40z"/>
<path d="M4323 2154 c-27 -30 -28 -34 -8 -34 15 0 38 35 33 50 -2 5 -13 -2
-25 -16z"/>
<path d="M3770 2145 c0 -21 17 -45 32 -45 14 0 9 17 -12 41 -19 23 -19 23 -20
4z"/>
<path d="M3822 2116 c1 -58 14 -67 44 -30 l23 29 1 -26 c0 -15 8 -37 18 -49
22 -27 47 -19 69 24 l16 31 -26 -24 c-34 -31 -52 -22 -66 34 -10 39 -14 45
-26 35 -8 -7 -15 -19 -15 -27 0 -24 -25 -9 -26 16 -2 44 -13 32 -12 -13z"/>
<path d="M7974 2138 c-16 -13 -38 -31 -49 -42 -11 -10 -34 -24 -50 -31 -42
-18 -93 -67 -77 -73 8 -2 23 4 35 15 12 10 40 31 62 45 55 36 121 95 114 102
-3 4 -19 -4 -35 -16z"/>
<path d="M4105 2090 c-35 -37 -40 -37 -60 -2 -15 26 -16 26 -9 2 10 -40 28
-54 53 -41 11 6 25 20 31 31 15 27 37 25 44 -4 8 -32 34 -41 57 -20 25 22 24
38 0 24 -29 -15 -37 -13 -49 15 -15 33 -32 32 -67 -5z"/>
<path d="M6105 1975 c-27 -24 -46 -47 -42 -51 4 -4 29 14 56 39 64 60 52 69
-14 12z"/>
<path d="M6826 836 c-22 -7 -42 -18 -44 -26 -3 -7 3 -47 11 -89 9 -42 21 -123
28 -181 19 -172 47 -318 69 -359 15 -29 55 -37 84 -17 32 21 70 103 91 201 9
44 19 84 22 88 14 24 33 -27 49 -135 14 -97 22 -126 42 -149 13 -16 29 -29 34
-29 29 0 87 79 108 146 47 152 102 489 86 529 -9 23 -54 18 -70 -8 -14 -20
-41 -128 -91 -360 -18 -82 -31 -90 -36 -22 -2 22 -6 45 -9 50 -4 6 -10 30 -14
54 -8 53 -32 101 -51 101 -20 0 -83 -109 -114 -198 -50 -147 -68 -148 -76 -2
-3 52 -7 133 -10 180 -7 132 -37 243 -64 239 -3 -1 -24 -7 -45 -13z m67 -93
c10 -43 17 -100 17 -128 0 -82 19 -268 31 -298 6 -15 18 -27 25 -27 20 0 62
68 73 122 20 90 90 214 106 188 9 -15 41 -141 49 -200 9 -58 25 -90 42 -83 8
3 14 19 14 37 0 18 6 55 14 82 7 27 21 87 31 134 39 194 62 258 83 235 12 -12
-1 -181 -23 -286 -36 -180 -68 -279 -100 -316 l-31 -37 -22 22 c-18 18 -29 52
-20 65 1 1 -4 12 -10 24 -7 12 -16 54 -22 93 -12 87 -24 112 -52 108 -15 -2
-25 -18 -39 -63 -10 -33 -20 -72 -23 -87 -2 -15 -15 -52 -29 -82 -19 -41 -32
-57 -52 -62 -32 -8 -38 -2 -54 56 -7 25 -16 59 -21 75 -4 17 -12 57 -16 90 -4
33 -8 62 -9 65 -1 3 -4 46 -9 95 -6 79 -16 150 -31 222 -5 21 2 25 50 32 6 0
19 -34 28 -76z"/>
<path d="M3340 830 c0 -5 15 -16 34 -24 52 -22 67 -52 67 -136 1 -116 36 -103
133 49 21 34 45 61 52 61 19 0 18 -58 -2 -95 -9 -16 -24 -43 -32 -60 -9 -16
-33 -53 -54 -81 -21 -28 -38 -58 -38 -68 0 -20 88 -191 132 -254 24 -35 28
-46 17 -53 -22 -13 -70 22 -96 70 -13 24 -23 49 -23 54 0 18 -81 118 -91 112
-5 -4 -9 -43 -10 -88 -1 -104 -9 -131 -37 -135 -28 -4 -46 38 -37 88 11 67 17
166 19 310 1 118 -2 154 -17 192 -19 49 -52 72 -68 47 -6 -10 -3 -15 10 -17
39 -6 56 -67 54 -192 -1 -63 -4 -142 -7 -175 -3 -33 -8 -101 -12 -151 l-6 -91
28 -20 c33 -23 66 -17 83 16 6 11 11 59 11 108 l0 88 25 -40 c28 -46 27 -44
50 -109 29 -79 80 -113 131 -86 26 14 42 49 27 59 -30 21 -153 236 -153 268 0
8 24 52 54 96 53 81 106 187 106 212 0 14 -22 25 -50 25 -11 0 -32 -17 -47
-37 -15 -21 -31 -42 -36 -48 -4 -5 -18 -26 -30 -45 -12 -19 -33 -36 -45 -38
-20 -3 -22 1 -22 48 0 66 -21 115 -59 134 -34 18 -61 21 -61 6z"/>
<path d="M5940 818 c-12 -13 -18 -29 -14 -38 17 -37 22 -151 18 -350 -6 -249
-2 -270 50 -270 52 0 59 21 64 198 l4 152 25 0 c13 0 39 -6 57 -14 40 -17 46
-41 46 -202 0 -116 6 -134 46 -134 47 0 54 21 54 169 0 144 -12 206 -52 263
-23 34 -48 42 -121 40 -57 -2 -58 -1 -71 30 -7 18 -16 60 -20 92 -9 82 -44
108 -86 64z m59 -45 c6 -21 11 -46 11 -57 0 -40 24 -96 43 -102 11 -3 43 -6
71 -6 65 0 92 -18 119 -76 18 -41 21 -67 22 -189 0 -77 -4 -145 -8 -149 -4 -5
-16 -3 -25 2 -14 10 -17 30 -18 140 0 71 -4 140 -8 152 -15 47 -127 70 -160
33 -14 -16 -16 -35 -11 -142 5 -140 -6 -194 -40 -194 -19 0 -20 7 -21 240 -1
132 -4 270 -7 306 -4 36 -4 69 0 72 14 14 22 6 32 -30z"/>
<path d="M7516 829 c-16 -4 -33 -6 -37 -3 -16 9 -20 -17 -5 -32 19 -19 22
-169 6 -255 -6 -30 -13 -125 -15 -211 -4 -140 -2 -159 14 -179 19 -24 49 -22
86 5 18 13 20 27 21 173 l1 158 43 3 c28 2 46 -1 52 -10 4 -7 5 -74 2 -150 -6
-153 1 -178 48 -178 46 0 53 27 53 205 0 208 -10 226 -136 240 l-57 6 -4 100
c-3 82 -7 102 -23 118 -16 14 -27 17 -49 10z m39 -30 c4 -6 8 -56 9 -111 2
-72 6 -102 16 -108 8 -5 41 -12 74 -15 34 -4 69 -11 78 -16 26 -14 36 -64 37
-185 1 -133 -8 -179 -34 -179 -26 0 -37 46 -29 120 10 88 7 175 -7 191 -15 19
-112 19 -128 0 -8 -10 -10 -49 -6 -130 7 -118 -2 -173 -29 -196 -11 -8 -18 -7
-30 5 -13 14 -15 39 -12 163 5 191 17 444 22 460 4 15 30 16 39 1z"/>
<path d="M2650 820 c-8 -5 -22 -7 -32 -4 -29 9 -29 -14 -1 -36 l28 -21 0 -157
c0 -86 -3 -208 -8 -271 -9 -141 -3 -152 75 -144 28 3 78 -1 110 -7 110 -24
188 19 174 95 -4 19 -10 35 -14 36 -4 0 -54 2 -111 5 -56 2 -107 7 -112 10 -5
3 -9 29 -9 58 0 43 4 56 21 67 14 10 23 29 26 61 5 40 3 47 -16 53 -19 6 -21
12 -16 63 8 86 18 91 138 78 l67 -8 15 36 c14 33 12 85 -4 87 -74 7 -320 6
-331 -1z m268 -22 c52 2 52 2 52 -27 0 -38 -23 -52 -64 -40 -17 5 -46 9 -64 9
-33 0 -91 -24 -93 -38 -1 -4 -2 -18 -4 -32 -1 -14 -6 -47 -10 -73 -7 -44 -6
-49 14 -54 28 -7 29 -55 1 -74 -25 -18 -37 -125 -17 -151 12 -15 61 -25 162
-31 6 0 23 3 38 7 23 5 29 2 38 -18 16 -34 5 -54 -38 -72 -31 -13 -43 -14 -82
-3 -25 8 -76 13 -113 12 -39 -1 -70 2 -74 8 -7 12 -6 152 1 229 16 175 14 260
-11 339 l-7 24 109 -8 c60 -5 133 -8 162 -7z"/>
<path d="M3091 821 c-8 -5 -20 -7 -27 -4 -21 8 -24 -13 -5 -33 36 -39 45 -134
33 -354 -13 -237 -9 -254 55 -262 65 -8 121 46 74 72 -40 21 -46 125 -19 302
16 105 0 228 -33 264 -23 25 -53 30 -78 15z m72 -49 c26 -44 30 -165 10 -301
-16 -114 -8 -208 23 -242 21 -23 10 -39 -26 -39 -45 0 -73 42 -66 100 21 166
21 360 1 446 -8 36 -15 68 -15 70 0 3 12 4 27 2 18 -2 33 -14 46 -36z"/>
<path d="M5658 825 c-3 -3 -57 -7 -119 -8 -63 -2 -120 -6 -126 -10 -21 -13
-26 -66 -9 -92 14 -21 21 -23 63 -19 66 6 95 11 117 20 18 7 18 -3 13 -267 -5
-288 -4 -299 39 -313 33 -10 64 22 76 79 10 47 11 210 3 407 -2 62 0 88 9 91
7 3 45 3 84 1 40 -2 72 -1 72 3 1 5 3 25 6 45 5 33 2 38 -23 51 -27 14 -193
23 -205 12z m137 -27 c46 2 60 -5 69 -35 7 -22 5 -22 -81 -25 l-88 -3 0 -121
c0 -66 3 -168 6 -225 7 -105 -2 -191 -22 -215 -7 -8 -18 -10 -32 -5 -22 8 -22
10 -22 289 0 154 -3 283 -6 286 -3 3 -21 1 -40 -4 -51 -15 -147 -21 -155 -9
-3 6 -3 21 0 35 6 23 9 24 109 25 56 1 116 5 132 9 17 4 44 5 60 2 17 -3 48
-4 70 -4z"/>
<path d="M1150 801 c-33 -62 6 -96 120 -106 47 -4 88 -9 92 -11 4 -3 3 -15 -2
-29 -11 -28 -17 -411 -7 -441 9 -25 50 -49 71 -41 8 3 23 18 33 33 16 25 18
57 21 257 4 227 4 228 26 237 13 5 41 6 62 3 52 -7 75 17 62 64 -7 27 -15 34
-50 44 -25 6 -60 8 -87 3 -25 -4 -50 -6 -56 -4 -5 1 -69 4 -142 6 -123 4 -133
3 -143 -15z m269 -12 c20 -1 59 1 86 5 59 8 98 -8 103 -42 3 -20 -1 -22 -48
-22 -30 0 -61 -7 -75 -16 l-25 -16 0 -213 c0 -128 -4 -224 -11 -244 -12 -33
-38 -41 -58 -17 -13 15 -15 139 -6 374 l5 132 -40 -6 c-45 -7 -161 13 -172 30
-4 6 -8 19 -8 28 0 14 11 17 71 17 39 0 73 2 76 5 2 2 18 0 35 -5 17 -4 47 -9
67 -10z"/>
<path d="M1708 813 c-33 -5 -35 -17 -7 -36 27 -19 28 -40 28 -329 1 -225 2
-238 20 -248 33 -17 50 -12 71 22 17 29 20 51 20 170 0 127 2 138 20 148 27
14 68 2 86 -25 13 -19 14 -45 8 -145 -5 -92 -4 -127 6 -145 28 -53 91 -17 93
52 1 100 -12 272 -24 307 -20 58 -66 82 -127 68 -72 -16 -86 -4 -79 67 10 92
-12 110 -115 94z m90 -25 c7 -7 12 -40 12 -80 0 -82 14 -96 81 -78 87 24 127
-21 134 -148 3 -42 7 -109 9 -149 3 -50 0 -77 -9 -90 -13 -17 -15 -17 -31 -1
-15 15 -17 36 -16 151 2 127 0 135 -21 154 -33 31 -62 36 -97 18 -16 -8 -30
-17 -31 -18 -1 -1 -4 -70 -8 -154 -6 -157 -15 -188 -47 -168 -13 9 -15 50 -17
276 -2 208 -5 270 -16 282 -12 15 -10 17 16 17 16 0 34 -5 41 -12z"/>
<path d="M8320 810 c0 -5 5 -12 10 -15 15 -9 49 -80 66 -134 11 -37 12 -89 7
-256 -9 -265 -9 -265 8 -276 20 -13 63 -11 77 3 14 14 16 134 3 189 -10 42 -1
68 16 47 5 -7 17 -29 25 -48 94 -207 81 -187 128 -192 42 -4 70 10 70 33 0 14
-20 49 -39 70 -26 28 -101 183 -101 209 0 12 20 64 45 114 51 104 75 203 53
217 -26 17 -49 9 -68 -23 -11 -18 -20 -40 -20 -49 0 -19 -48 -139 -63 -157
-16 -21 -37 13 -37 60 0 53 -39 145 -77 183 -23 22 -42 31 -67 32 -20 1 -36
-3 -36 -7z m70 -30 c0 -5 -2 -10 -4 -10 -3 0 -8 5 -11 10 -3 6 -1 10 4 10 6 0
11 -4 11 -10z m52 -62 c11 -20 24 -70 29 -110 11 -80 26 -104 57 -94 24 8 77
112 88 172 5 28 30 69 39 64 6 -3 10 -25 10 -51 -1 -33 -13 -70 -47 -140 -25
-51 -48 -102 -52 -113 -7 -20 64 -177 96 -213 19 -20 19 -22 3 -47 -24 -36
-37 -32 -58 17 -47 108 -94 192 -109 195 -15 3 -35 -31 -30 -50 1 -5 5 -48 8
-96 4 -70 2 -91 -9 -100 -26 -22 -54 2 -48 41 0 4 3 73 6 155 9 247 6 303 -22
369 -17 41 -16 45 4 41 9 -2 25 -20 35 -40z m258 -553 c0 -8 -7 -15 -15 -15
-16 0 -20 12 -8 23 11 12 23 8 23 -8z"/>
<path d="M8120 798 c0 -5 6 -19 14 -31 44 -67 50 -113 48 -344 -2 -140 1 -230
7 -242 6 -11 27 -25 47 -31 34 -11 38 -10 63 14 23 24 24 29 11 39 -38 31 -41
54 -39 255 4 277 -21 354 -111 350 -22 -1 -40 -5 -40 -10z m67 -14 c16 -4 28
-22 43 -61 18 -49 20 -74 18 -261 -2 -177 1 -213 15 -246 10 -22 16 -41 14
-43 -7 -6 -55 15 -64 29 -4 7 -8 112 -8 233 -1 178 -4 230 -18 274 -9 29 -22
60 -28 67 -12 15 -6 17 28 8z"/>
<path d="M2203 641 c-126 -91 -118 -413 12 -467 72 -30 130 -9 176 64 29 46
37 94 20 121 -15 24 -57 -2 -81 -49 -11 -22 -23 -40 -26 -40 -15 0 -65 32 -77
50 -15 21 -12 66 6 77 5 3 39 7 75 8 77 2 101 22 104 89 3 95 -5 120 -49 151
-52 35 -108 34 -160 -4z m124 -1 c47 -28 67 -65 66 -120 -1 -74 -14 -90 -76
-90 -67 0 -99 -17 -114 -60 -9 -29 -8 -39 5 -60 35 -55 84 -71 118 -39 13 12
24 30 24 39 0 19 19 40 37 40 21 0 15 -61 -8 -100 -30 -49 -48 -59 -98 -60
-39 0 -49 5 -82 40 -50 52 -63 103 -55 209 10 139 56 210 141 220 6 0 24 -8
42 -19z"/>
<path d="M2263 599 c-27 -10 -66 -83 -58 -108 4 -14 18 -17 76 -18 66 -1 71 0
82 24 9 20 8 31 -8 61 -22 39 -56 54 -92 41z m63 -36 c28 -30 29 -68 2 -67
-10 0 -36 1 -58 2 -35 2 -40 5 -40 25 0 34 27 63 63 66 4 1 19 -11 33 -26z"/>
<path d="M6444 626 c-82 -36 -129 -204 -92 -330 19 -61 85 -123 141 -131 84
-13 168 43 180 119 11 72 -43 91 -84 29 -34 -54 -75 -57 -118 -8 -17 20 -31
42 -31 51 0 20 40 34 82 28 98 -13 120 -5 145 53 21 52 16 95 -17 141 -16 23
-38 46 -49 51 -27 15 -120 13 -157 -3z m155 -28 c11 -13 29 -34 40 -47 25 -29
28 -87 5 -119 -14 -21 -23 -23 -100 -21 -106 2 -138 -14 -124 -62 15 -50 55
-96 90 -101 38 -6 89 19 100 48 22 56 50 29 30 -30 -15 -46 -48 -66 -108 -66
-141 0 -214 181 -136 336 33 68 49 78 127 82 48 2 59 0 76 -20z"/>
<path d="M6489 569 c-14 -5 -35 -25 -45 -44 -17 -32 -17 -35 0 -53 14 -16 30
-20 83 -20 97 0 117 32 62 101 -22 29 -52 33 -100 16z m91 -41 c11 -18 18 -37
16 -43 -4 -12 -117 -7 -129 5 -14 13 1 46 26 58 41 20 66 14 87 -20z"/>
<path d="M7913 571 c-40 -25 -58 -59 -72 -136 -23 -122 -3 -240 45 -272 59
-38 165 -35 210 8 31 29 50 95 33 115 -20 25 -53 16 -77 -21 -12 -19 -29 -35
-38 -35 -26 0 -64 47 -64 80 l0 31 71 -2 c87 -3 97 6 109 91 10 69 1 98 -40
135 -32 29 -135 33 -177 6z m178 -40 c32 -34 38 -82 18 -140 l-11 -31 -79 0
c-87 0 -100 -9 -92 -65 5 -38 39 -71 80 -80 30 -6 35 -3 54 29 13 23 29 36 41
36 18 0 20 -4 14 -32 -3 -18 -20 -45 -36 -60 -36 -33 -87 -37 -149 -12 -56 22
-75 81 -69 208 5 99 16 129 56 164 23 19 35 22 85 18 49 -4 63 -9 88 -35z"/>
<path d="M7961 495 c-20 -27 -37 -82 -28 -92 9 -8 130 -4 138 4 4 5 10 22 14
40 14 66 -80 103 -124 48z m93 2 c12 -9 17 -23 14 -42 -3 -27 -7 -29 -48 -32
-60 -4 -68 0 -62 32 3 18 15 32 36 41 39 17 39 17 60 1z"/>
<path d="M3825 283 c-28 -6 -45 -32 -45 -65 0 -32 24 -48 66 -45 30 3 41 23
43 85 1 33 -10 38 -64 25z m40 -53 c0 -29 -22 -37 -49 -17 -28 20 -14 49 21
45 22 -2 28 -8 28 -28z"/>
<path d="M8809 241 c0 -9 -2 -26 -5 -39 -6 -33 29 -64 64 -56 35 9 34 6 39 57
6 50 -3 57 -64 55 -23 -1 -33 -6 -34 -17z m79 -32 c3 -29 -18 -52 -41 -43 -21
8 -30 34 -17 49 5 6 6 15 2 19 -4 4 7 6 23 4 24 -2 31 -8 33 -29z"/>
</g>
</svg>
