<?xml version="1.0" standalone="no"?>
<!DOCTYPE svg PUBLIC "-//W3C//DTD SVG 20010904//EN"
 "http://www.w3.org/TR/2001/REC-SVG-20010904/DTD/svg10.dtd">
<svg version="1.0" xmlns="http://www.w3.org/2000/svg"
 width="1000.000000pt" height="680.000000pt" viewBox="0 0 1000.000000 680.000000"
 preserveAspectRatio="xMidYMid meet">
<metadata>
Created by potrace 1.16, written by Peter Selinger 2001-2019
</metadata>
<g transform="translate(0.000000,680.000000) scale(0.100000,-0.100000)"
fill="#000000" stroke="none">
<path d="M7443 6613 c-3 -9 -1 -36 5 -60 7 -24 12 -59 12 -77 0 -29 -5 -36
-30 -45 -33 -11 -35 -17 -20 -55 7 -18 16 -25 31 -23 17 2 22 -4 24 -30 2 -21
-2 -33 -10 -33 -7 0 -24 -14 -39 -32 -24 -30 -30 -50 -27 -89 1 -12 -8 -16
-42 -16 -56 -1 -102 -25 -121 -62 -24 -46 -46 -114 -46 -143 0 -30 17 -38 26
-13 9 23 39 27 78 8 41 -19 41 -19 21 -66 -21 -50 -11 -71 29 -62 91 19 114
18 127 -7 30 -58 112 -148 152 -167 115 -55 138 -25 46 59 -73 65 -124 149
-114 187 7 29 25 26 42 -7 10 -21 13 -22 19 -7 3 9 0 24 -7 33 -15 19 2 38 42
48 21 5 30 1 43 -19 37 -56 56 -6 30 81 -26 90 -62 144 -96 144 -13 0 -18 8
-18 30 0 24 -45 132 -67 159 -1 2 -12 -4 -23 -14 -20 -18 -20 -17 -20 9 0 21
7 30 29 39 27 10 28 12 14 33 -8 13 -21 20 -29 17 -15 -6 -17 4 -15 101 1 32
-1 67 -4 77 -8 23 -33 25 -42 2z m17 -212 c0 -22 -15 -35 -29 -27 -13 9 -1 46
15 46 8 0 14 -9 14 -19z m82 -136 c10 -19 15 -42 12 -50 -4 -10 0 -15 10 -15
23 0 20 -43 -5 -66 -28 -25 -41 -51 -30 -58 5 -4 22 7 38 24 53 56 83 37 120
-77 22 -68 20 -82 -8 -57 -17 15 -22 14 -76 -14 -32 -16 -62 -38 -67 -48 -5
-11 -12 -26 -16 -34 -6 -11 -26 -15 -83 -15 -47 0 -81 -5 -88 -12 -20 -20 -29
-15 -29 15 0 17 10 38 24 51 l25 23 -47 24 c-26 14 -60 23 -77 22 -23 -2 -29
1 -26 12 2 8 6 27 9 42 2 15 18 43 36 63 26 30 38 36 75 38 35 1 47 -3 59 -21
8 -12 23 -22 33 -22 17 0 17 2 -2 35 -15 25 -19 44 -14 63 6 27 81 110 100
111 6 0 18 -15 27 -34z m-18 -504 c-6 -6 -11 1 -18 29 l-7 25 15 -25 c8 -14
12 -27 10 -29z m21 29 c3 -5 1 -10 -4 -10 -6 0 -11 5 -11 10 0 6 2 10 4 10 3
0 8 -4 11 -10z m41 -70 c14 -1 89 -70 75 -70 -33 0 -111 63 -111 89 1 14 3 13
14 -1 7 -10 17 -18 22 -18z"/>
<path d="M7450 6210 c0 -13 5 -20 13 -17 6 2 12 10 12 17 0 7 -6 15 -12 18 -8
2 -13 -5 -13 -18z"/>
<path d="M7468 6138 c-2 -13 -1 -34 3 -48 5 -19 7 -14 8 23 1 50 -4 62 -11 25z"/>
<path d="M7502 6111 c-6 -17 -7 -33 -2 -36 9 -5 25 53 17 61 -3 3 -9 -9 -15
-25z"/>
<path d="M7461 6011 c-10 -6 -10 -13 -2 -29 8 -15 8 -22 -2 -25 -9 -4 -8 -8 3
-16 12 -8 18 -5 27 17 23 52 11 77 -26 53z"/>
<path d="M3320 6511 c0 -11 -11 -33 -25 -49 -16 -19 -28 -49 -32 -79 -4 -30
-16 -61 -35 -85 -15 -20 -35 -52 -43 -72 -32 -76 -15 -180 23 -143 15 15 9 57
-9 57 -17 0 -9 60 15 102 13 24 35 51 49 62 24 18 27 18 67 2 39 -15 44 -15
66 -1 13 8 24 22 24 30 0 17 30 35 58 35 11 0 42 -18 70 -39 41 -33 52 -49 68
-99 19 -59 40 -77 28 -24 -18 74 -98 168 -151 178 -21 4 -41 17 -54 35 -11 16
-33 36 -49 45 -15 10 -33 28 -39 41 -13 28 -31 30 -31 4z m61 -66 c48 -31 57
-50 35 -74 -9 -10 -16 -25 -16 -34 0 -21 -34 -31 -59 -18 -28 15 -59 63 -53
81 6 18 42 70 48 70 2 0 23 -11 45 -25z"/>
<path d="M3375 6420 c-3 -5 -1 -10 4 -10 6 0 11 5 11 10 0 6 -2 10 -4 10 -3 0
-8 -4 -11 -10z"/>
<path d="M3307 6403 c-12 -11 -8 -23 8 -23 8 0 15 7 15 15 0 16 -12 20 -23 8z"/>
<path d="M3524 6256 c-8 -9 -6 -18 7 -35 17 -21 19 -21 18 -5 -1 35 -13 53
-25 40z"/>
<path d="M3487 6225 c15 -19 29 -32 31 -30 6 5 -40 65 -50 65 -5 0 4 -16 19
-35z"/>
<path d="M3273 6190 c0 -25 2 -35 4 -22 2 12 2 32 0 45 -2 12 -4 2 -4 -23z"/>
<path d="M3310 6204 c0 -14 4 -23 9 -20 5 3 7 15 4 26 -7 28 -13 25 -13 -6z"/>
<path d="M3243 6175 c0 -27 2 -38 4 -22 2 15 2 37 0 50 -2 12 -4 0 -4 -28z"/>
<path d="M3207 6173 c-4 -3 -7 -11 -7 -17 0 -6 5 -5 12 2 6 6 9 14 7 17 -3 3
-9 2 -12 -2z"/>
<path d="M3450 6142 c0 -44 26 -138 46 -167 19 -27 17 -8 -6 60 -28 82 -27 96
9 89 16 -4 32 -1 35 5 4 6 18 8 32 5 14 -4 31 -1 39 6 18 15 20 34 3 24 -7 -5
-27 -7 -44 -5 -22 2 -35 -3 -42 -15 -9 -16 -12 -15 -35 9 -13 15 -27 27 -31
27 -3 0 -6 -17 -6 -38z"/>
<path d="M3350 6123 c0 -12 4 -24 9 -28 5 -3 13 -19 16 -36 12 -53 137 -162
165 -144 18 11 11 23 -17 30 -48 12 -143 110 -143 148 0 7 -7 22 -15 33 -14
19 -14 19 -15 -3z"/>
<path d="M3235 6080 c-10 -11 -13 -20 -8 -20 13 0 38 29 31 35 -3 3 -13 -4
-23 -15z"/>
<path d="M3535 5797 c-11 -18 -40 -42 -65 -55 -25 -12 -57 -31 -72 -42 -29
-22 -68 -88 -68 -116 0 -14 -6 -15 -32 -9 -75 18 -145 -2 -191 -53 -52 -57
-127 -269 -127 -359 0 -39 22 -44 56 -12 22 20 63 27 212 32 40 2 56 22 16 22
-10 0 -24 3 -31 8 -6 4 -15 2 -18 -4 -4 -6 -18 -8 -30 -5 -14 4 -25 1 -28 -7
-3 -9 -7 -9 -20 2 -14 11 -20 11 -32 1 -13 -11 -18 -10 -29 5 -12 16 -14 15
-35 -19 -43 -68 -49 -25 -14 104 32 122 92 232 140 255 41 20 118 19 153 -2
15 -9 40 -36 55 -60 32 -49 47 -55 43 -15 -2 16 -13 33 -29 44 -50 31 -40 122
17 167 15 12 32 21 39 21 7 0 29 11 49 25 20 14 40 25 44 25 4 0 24 -32 45
-71 l36 -70 -17 -47 c-13 -34 -24 -48 -40 -50 -15 -2 -27 -16 -37 -39 -9 -20
-14 -38 -12 -40 2 -2 18 10 34 26 29 28 34 29 95 24 135 -13 197 -104 198
-290 0 -69 -16 -85 -25 -25 -4 20 -11 46 -16 57 -6 15 -7 10 -2 -15 3 -19 6
-59 5 -88 0 -42 2 -51 12 -43 7 6 16 8 19 4 10 -9 8 -106 -2 -122 -26 -41 -81
63 -66 127 8 38 -4 122 -17 122 -5 0 -7 -4 -3 -9 13 -21 7 -130 -8 -145 -13
-13 -17 -12 -38 10 -14 15 -29 22 -40 19 -10 -3 -20 -1 -24 5 -4 6 -16 8 -27
4 -12 -4 -24 0 -32 11 -11 15 -13 15 -25 1 -11 -13 -11 -16 2 -16 8 0 20 -7
27 -15 9 -11 17 -12 30 -5 13 7 21 7 25 0 4 -6 15 -8 25 -5 13 4 25 -3 40 -25
16 -23 25 -28 34 -21 15 13 26 4 26 -20 0 -10 10 -30 23 -45 20 -22 27 -25 44
-16 31 17 35 36 34 172 -2 190 -6 232 -29 275 -27 53 -123 125 -158 119 -14
-3 -34 -2 -45 1 -17 6 -18 9 -4 42 22 53 18 87 -17 149 -17 31 -32 72 -33 92
-3 47 -15 49 -40 9z"/>
<path d="M3404 5655 c-18 -28 -14 -41 11 -32 8 4 15 18 15 32 0 32 -5 32 -26
0z"/>
<path d="M7461 5662 c-5 -10 -38 -37 -73 -61 -72 -48 -108 -94 -108 -135 l0
-27 -22 21 c-48 44 -181 19 -250 -48 -35 -33 -88 -107 -88 -122 0 -6 -12 -36
-26 -66 -33 -69 -23 -84 34 -55 23 12 47 21 55 21 8 0 53 -22 100 -48 59 -33
83 -52 76 -59 -14 -14 -37 -95 -32 -110 9 -27 23 -11 23 25 0 57 38 107 94
121 26 6 46 15 46 21 0 10 -70 2 -83 -10 -20 -18 -127 26 -127 52 0 6 -3 9 -6
5 -4 -3 -20 1 -37 10 -22 11 -45 14 -80 10 -43 -6 -48 -4 -42 11 4 9 12 31 18
47 12 33 72 122 97 143 39 33 61 43 114 53 31 5 65 7 76 4 10 -3 42 -35 70
-71 47 -59 70 -78 70 -54 0 5 -12 20 -27 34 -21 19 -27 36 -29 75 -3 45 0 55
28 87 17 19 52 46 78 59 25 13 52 30 59 39 12 14 18 10 56 -32 55 -60 66 -114
36 -175 -11 -22 -19 -42 -18 -44 2 -1 22 7 46 19 38 19 49 20 106 10 65 -11
126 -45 140 -80 14 -33 52 -202 47 -207 -3 -3 -24 -5 -47 -5 -22 0 -45 -4 -50
-9 -6 -5 -33 -16 -61 -24 -47 -14 -54 -14 -94 4 -44 20 -70 24 -70 11 0 -9 63
-32 107 -39 18 -3 54 3 85 13 29 11 76 19 103 19 l50 0 -3 50 c-3 64 -30 172
-50 208 -9 15 -35 39 -57 54 -34 23 -51 27 -120 27 l-81 1 4 57 c4 53 2 59
-27 89 -17 17 -43 46 -58 65 -29 39 -38 41 -52 16z"/>
<path d="M3570 5611 c0 -11 4 -22 9 -25 11 -7 23 22 15 35 -9 16 -24 10 -24
-10z"/>
<path d="M7501 5578 c0 -9 -4 -25 -7 -35 -5 -14 -4 -15 5 -7 7 7 11 22 8 35
-2 13 -5 16 -6 7z"/>
<path d="M7443 5545 c0 -22 2 -30 4 -17 2 12 2 30 0 40 -3 9 -5 -1 -4 -23z"/>
<path d="M7360 5499 c0 -12 8 -23 18 -26 19 -5 26 -44 25 -150 0 -24 4 -40 10
-36 11 6 5 202 -7 221 -13 21 -46 14 -46 -9z"/>
<path d="M7510 5479 c-18 -33 -60 -160 -60 -181 0 -11 5 -16 10 -13 6 3 10 15
10 25 0 37 32 115 56 138 25 24 27 43 7 49 -7 3 -17 -6 -23 -18z"/>
<path d="M3102 5373 c-17 -32 -27 -96 -23 -138 3 -30 21 27 21 68 0 27 7 58
16 73 9 13 14 27 11 30 -3 3 -15 -12 -25 -33z"/>
<path d="M7135 5369 c4 -19 8 -36 9 -39 1 -6 -9 -10 -29 -10 -8 0 -15 7 -15
15 0 10 -10 15 -30 15 -16 0 -30 -4 -30 -9 0 -4 12 -6 26 -3 19 3 25 1 20 -7
-4 -6 -12 -11 -17 -11 -6 0 -25 -11 -43 -25 -18 -14 -38 -25 -44 -25 -7 0 -12
-4 -12 -10 0 -15 7 -13 52 20 50 37 89 38 143 5 41 -25 128 -35 140 -15 3 5
-13 7 -42 3 -44 -5 -52 -2 -81 25 -22 21 -32 39 -32 60 0 17 -5 34 -11 38 -8
4 -9 -4 -4 -27z"/>
<path d="M7656 5373 c-6 -14 -5 -15 5 -6 7 7 10 15 7 18 -3 3 -9 -2 -12 -12z"/>
<path d="M7240 5330 c11 -22 25 -40 31 -40 6 0 1 13 -10 29 -12 16 -21 34 -21
40 0 6 -5 11 -10 11 -6 0 -1 -18 10 -40z"/>
<path d="M3142 5330 c-13 -22 -16 -70 -4 -70 4 0 12 20 18 45 11 48 6 57 -14
25z"/>
<path d="M3201 5307 c-7 -21 -10 -41 -7 -44 8 -8 28 47 23 66 -2 9 -9 -1 -16
-22z"/>
<path d="M7614 5315 c-9 -14 -15 -28 -12 -30 2 -2 12 9 22 25 21 36 13 40 -10
5z"/>
<path d="M7700 5295 c-13 -14 -18 -25 -12 -25 6 0 15 6 19 13 4 8 17 19 28 25
15 9 16 11 4 12 -8 0 -26 -11 -39 -25z"/>
<path d="M3241 5291 c-6 -11 -7 -22 -2 -25 5 -3 11 4 14 16 8 30 1 35 -12 9z"/>
<path d="M3310 5289 c0 -5 5 -7 10 -4 6 3 10 8 10 11 0 2 -4 4 -10 4 -5 0 -10
-5 -10 -11z"/>
<path d="M3287 5283 c-4 -3 -7 -11 -7 -17 0 -6 5 -5 12 2 6 6 9 14 7 17 -3 3
-9 2 -12 -2z"/>
<path d="M7075 5250 c-10 -11 -14 -20 -8 -20 5 0 18 9 28 20 10 11 14 20 8 20
-5 0 -18 -9 -28 -20z"/>
<path d="M7330 5260 c0 -5 5 -10 11 -10 5 0 7 5 4 10 -3 6 -8 10 -11 10 -2 0
-4 -4 -4 -10z"/>
<path d="M7367 5250 c-9 -11 -17 -25 -17 -31 0 -5 -5 -7 -10 -4 -8 5 -30 -32
-30 -51 0 -13 19 0 30 22 9 16 20 24 32 21 9 -3 17 -2 16 2 -3 27 4 33 15 13
12 -24 102 -70 114 -59 9 10 -17 37 -35 37 -12 0 -10 6 9 27 18 19 19 25 7 20
-10 -3 -20 -2 -23 3 -3 6 -16 5 -32 -1 -20 -7 -30 -6 -42 5 -15 14 -19 13 -34
-4z"/>
<path d="M7665 5239 c-25 -5 -21 -7 21 -8 34 -1 68 -10 100 -27 48 -25 49 -25
26 -2 -26 27 -104 46 -147 37z"/>
<path d="M7579 5226 c14 -8 32 -11 40 -8 12 5 10 8 -9 13 -42 12 -56 9 -31 -5z"/>
<path d="M7187 5223 c-4 -3 -7 -11 -7 -17 0 -6 5 -5 12 2 6 6 9 14 7 17 -3 3
-9 2 -12 -2z"/>
<path d="M3380 5200 c0 -5 5 -10 10 -10 6 0 10 5 10 10 0 6 -4 10 -10 10 -5 0
-10 -4 -10 -10z"/>
<path d="M3601 5182 c-13 -25 -14 -32 -2 -32 9 0 23 41 16 48 -2 2 -8 -5 -14
-16z"/>
<path d="M3704 5178 c3 -13 6 -34 6 -47 0 -16 3 -22 10 -15 12 12 1 84 -12 84
-6 0 -8 -10 -4 -22z"/>
<path d="M7601 5195 c0 -5 11 -23 24 -40 14 -16 25 -25 25 -20 0 6 -11 24 -25
40 -13 17 -24 26 -24 20z"/>
<path d="M7686 5185 c4 -9 16 -21 28 -27 19 -10 19 -9 -3 16 -28 30 -33 32
-25 11z"/>
<path d="M3649 5185 c-3 -6 -2 -26 1 -45 5 -27 8 -31 14 -18 8 18 -7 79 -15
63z"/>
<path d="M7400 5180 c0 -5 5 -10 11 -10 5 0 7 5 4 10 -3 6 -8 10 -11 10 -2 0
-4 -4 -4 -10z"/>
<path d="M3292 5146 c-6 -15 -23 -31 -37 -36 -39 -15 -30 -28 10 -16 23 7 38
19 41 33 9 35 -1 48 -14 19z"/>
<path d="M7242 5064 c-35 -24 -61 -44 -57 -44 7 0 145 82 145 87 0 12 -34 -4
-88 -43z"/>
<path d="M7220 5089 c0 -5 5 -7 10 -4 6 3 10 8 10 11 0 2 -4 4 -10 4 -5 0 -10
-5 -10 -11z"/>
<path d="M7400 5064 c0 -79 -46 -110 -134 -92 -42 9 -61 9 -82 0 -14 -7 -24
-15 -21 -18 3 -3 14 -1 25 5 24 13 92 3 92 -14 0 -8 -4 -15 -8 -17 -4 -1 -21
-21 -37 -43 -78 -106 -146 -156 -268 -196 -62 -20 -72 -21 -121 -9 -70 17 -81
9 -56 -39 12 -25 33 -45 57 -56 36 -17 41 -17 108 0 109 27 200 90 354 243
l133 133 22 -20 c28 -26 71 -42 93 -34 49 17 67 59 38 83 -8 7 -15 21 -15 31
0 11 -4 19 -10 19 -14 0 -13 -6 6 -46 20 -41 13 -64 -20 -64 -43 0 -77 22 -83
52 -5 25 -7 26 -18 12 -16 -23 -30 -2 -31 49 0 20 -6 43 -12 49 -9 9 -12 3
-12 -28z m20 -81 c-1 -14 -150 -168 -150 -156 0 7 21 34 48 60 26 26 56 60 67
76 19 26 35 35 35 20z m-210 -208 c0 -44 -148 -139 -257 -165 -63 -14 -116 -6
-110 18 2 10 9 16 17 14 19 -4 147 36 204 65 34 17 51 22 54 14 5 -16 32 6 32
25 0 8 5 14 10 14 6 0 10 6 10 14 0 13 13 23 33 25 4 1 7 -10 7 -24z"/>
<path d="M7440 5092 c0 -4 13 -28 28 -53 31 -47 72 -89 72 -72 0 5 -9 18 -21
29 -12 10 -32 38 -46 61 -24 42 -33 51 -33 35z"/>
<path d="M7494 5085 c27 -21 53 -20 36 0 -7 8 -22 15 -34 15 -21 -1 -21 -1 -2
-15z"/>
<path d="M3440 5065 c-23 -24 -42 -25 -36 -2 1 7 1 9 -1 5 -7 -13 -33 -9 -33
5 -1 6 -8 -1 -16 -16 -19 -35 -12 -46 13 -21 17 16 18 16 21 1 2 -9 9 -17 16
-17 15 0 72 58 64 65 -2 3 -15 -6 -28 -20z"/>
<path d="M3257 5063 c-11 -3 -16 -11 -13 -19 9 -24 -90 -104 -186 -148 -20
-10 -54 -33 -75 -51 -32 -29 -36 -36 -23 -45 37 -26 196 26 271 90 26 22 54
38 61 35 13 -5 104 73 95 81 -10 10 -80 -29 -126 -70 -28 -25 -79 -59 -115
-76 -66 -31 -166 -51 -166 -33 0 8 86 53 103 53 16 0 128 84 152 113 14 18 32
39 40 48 8 9 15 19 15 22 0 7 -5 7 -33 0z"/>
<path d="M7300 5043 c0 -10 5 -25 10 -33 8 -11 10 -7 8 18 -2 33 -18 46 -18
15z"/>
<path d="M7246 5003 c-6 -14 -5 -15 5 -6 7 7 10 15 7 18 -3 3 -9 -2 -12 -12z"/>
<path d="M7415 4909 c-4 -6 -9 -40 -10 -77 -17 -348 -15 -336 -67 -351 -33
-10 -42 -10 -49 1 -5 7 -9 16 -9 20 0 20 -85 68 -119 68 -38 0 -181 -49 -181
-62 0 -13 23 -9 85 12 89 31 129 26 183 -23 27 -25 28 -48 2 -72 -11 -10 -20
-24 -20 -31 0 -7 -5 -16 -11 -20 -8 -5 -10 1 -6 17 7 33 -4 61 -22 50 -20 -13
-8 -63 36 -152 38 -77 78 -134 97 -134 6 -1 21 -6 34 -13 12 -7 22 -9 22 -5 0
16 -90 104 -100 98 -18 -11 -53 78 -46 117 7 41 23 57 90 92 44 24 60 26 163
26 101 0 119 -3 163 -25 27 -14 60 -25 72 -25 44 0 48 -10 29 -81 -23 -84 -47
-122 -116 -183 -70 -60 -139 -96 -187 -96 -20 0 -40 -4 -43 -10 -13 -20 83
-10 138 15 76 35 189 146 210 205 48 138 48 143 26 163 -12 9 -32 17 -46 17
-13 0 -42 9 -65 21 -31 16 -63 21 -145 24 -58 2 -106 5 -108 7 -6 6 17 92 26
103 5 5 9 28 9 51 0 24 4 54 9 67 6 15 6 40 1 63 -5 22 -12 60 -15 87 -6 45
-17 58 -30 36z m-85 -730 c0 -14 -5 -11 -31 17 l-24 27 28 -18 c15 -9 27 -21
27 -26z"/>
<path d="M3423 4579 c-29 -17 -77 -59 -109 -94 -31 -36 -64 -65 -74 -65 -11 0
-37 26 -64 64 -52 73 -109 104 -168 92 -103 -20 -148 -33 -142 -39 11 -11 55
-8 114 7 52 14 98 8 71 -8 -18 -12 -12 -36 12 -45 28 -11 44 3 27 24 -22 26
-3 29 29 4 16 -13 39 -43 51 -67 41 -85 93 -79 164 19 60 81 110 109 198 109
67 0 168 -25 168 -42 0 -5 6 -8 13 -8 7 0 41 -22 74 -49 34 -28 76 -57 93 -66
34 -18 48 -41 33 -56 -5 -5 -34 -18 -64 -28 -47 -17 -54 -23 -54 -46 0 -28
-29 -53 -40 -35 -8 13 -111 60 -130 60 -22 0 -23 24 -1 35 11 6 22 19 24 30 2
16 1 17 -7 6 -5 -8 -23 -14 -40 -13 -36 1 -36 0 -15 -33 25 -39 12 -59 -36
-51 -21 3 -41 2 -44 -3 -4 -5 12 -12 34 -16 29 -5 47 -2 69 11 27 16 31 16 64
1 22 -11 37 -26 41 -42 13 -52 -17 -58 -96 -20 -63 30 -66 31 -43 5 10 -11 24
-20 32 -20 22 0 12 -54 -11 -58 -10 -2 -16 0 -12 6 3 5 0 14 -7 19 -19 15 -56
22 -63 12 -3 -5 8 -12 25 -15 17 -4 31 -10 31 -14 0 -9 -42 -46 -60 -53 -12
-4 -11 -6 3 -6 28 -1 123 45 130 63 5 12 14 15 30 11 19 -5 30 1 52 27 15 18
42 37 59 43 25 8 32 16 34 43 3 25 8 32 24 32 26 0 95 39 103 57 8 23 -6 39
-75 88 -211 147 -229 156 -329 154 -53 -1 -76 -7 -118 -30z"/>
<path d="M2753 4585 c-3 -9 1 -23 10 -33 30 -34 47 -82 47 -131 0 -64 25 -139
56 -168 13 -12 24 -26 24 -30 0 -4 16 -19 35 -32 41 -27 37 -37 -30 -79 -87
-54 -133 -134 -139 -240 -4 -74 8 -146 33 -201 38 -84 159 -287 193 -325 31
-35 39 -39 55 -30 14 9 18 24 18 75 0 57 3 67 28 91 15 15 27 38 27 51 0 13 9
32 20 42 11 10 20 24 20 30 0 7 13 39 30 71 33 66 38 94 14 94 -8 0 -13 -4 -9
-9 3 -5 1 -12 -5 -16 -5 -3 -10 -19 -10 -34 0 -20 -6 -30 -20 -34 -14 -4 -20
-14 -20 -34 0 -32 -15 -61 -26 -50 -15 14 -34 -17 -34 -55 0 -36 -2 -40 -20
-35 -19 5 -20 1 -18 -69 3 -121 -15 -115 -104 33 -134 221 -163 302 -152 418
4 43 14 80 25 97 11 14 19 29 19 32 0 15 41 52 103 93 62 41 70 44 99 34 38
-13 38 -13 38 0 0 5 -21 20 -47 31 -65 28 -132 77 -148 108 -20 39 -39 204
-26 229 14 26 7 42 -32 69 -39 26 -46 27 -54 7z"/>
<path d="M3530 4520 c0 -5 7 -10 15 -10 8 0 15 5 15 10 0 6 -7 10 -15 10 -8 0
-15 -4 -15 -10z"/>
<path d="M3660 4497 c0 -8 7 -18 16 -21 24 -9 5 -28 -23 -21 -21 5 -24 3 -21
-16 3 -24 60 -62 137 -92 77 -29 57 -10 -35 35 -76 37 -85 43 -61 46 26 3 28
6 25 40 -2 26 -8 38 -20 40 -11 2 -18 -3 -18 -11z"/>
<path d="M6926 4498 c-3 -7 -7 -42 -10 -78 -3 -36 -7 -72 -8 -80 0 -8 -5 -18
-10 -21 -5 -3 2 -27 17 -53 l26 -46 -48 -48 c-51 -51 -87 -133 -86 -195 0 -30
22 -104 74 -252 12 -33 25 -80 30 -105 6 -25 12 -55 15 -67 6 -32 42 -30 54 3
6 14 10 39 10 55 0 48 24 91 85 149 128 123 165 165 176 197 19 60 3 60 -26 0
-16 -33 -43 -69 -59 -80 -36 -26 -129 -120 -163 -164 -16 -21 -26 -50 -30 -87
-7 -65 -19 -73 -28 -18 -9 51 -24 99 -46 149 -10 24 -26 81 -35 128 -17 83
-17 85 5 136 11 28 21 66 21 83 1 29 19 66 34 66 4 0 18 12 31 28 22 25 28 27
99 25 42 -1 76 2 76 6 0 11 -113 23 -143 16 -45 -12 -57 40 -42 181 5 50 4 73
-4 78 -6 4 -13 1 -15 -6z"/>
<path d="M3420 4480 c0 -5 5 -10 10 -10 6 0 10 5 10 10 0 6 -4 10 -10 10 -5 0
-10 -4 -10 -10z"/>
<path d="M3500 4455 c14 -16 40 -20 40 -6 0 9 -24 21 -42 21 -6 0 -6 -6 2 -15z"/>
<path d="M3400 4420 c0 -6 7 -10 15 -10 8 0 15 2 15 4 0 2 -7 6 -15 10 -8 3
-15 1 -15 -4z"/>
<path d="M3452 4418 c5 -15 58 -24 58 -10 0 5 -10 12 -22 16 -34 9 -40 7 -36
-6z"/>
<path d="M3794 4415 c11 -8 25 -15 30 -15 6 0 2 7 -8 15 -11 8 -25 15 -30 15
-6 0 -2 -7 8 -15z"/>
<path d="M7426 4383 c-8 -43 -4 -155 4 -147 5 6 10 184 4 184 -1 0 -5 -17 -8
-37z"/>
<path d="M7525 4376 c-10 -25 -15 -50 -12 -58 4 -8 6 -7 6 5 1 10 10 36 21 57
11 22 16 40 11 40 -5 0 -17 -20 -26 -44z"/>
<path d="M7660 4375 c-7 -9 -40 -31 -74 -50 -63 -35 -146 -113 -146 -137 0 -7
23 13 51 45 28 31 55 57 60 57 6 0 25 11 43 25 18 14 37 25 43 25 5 0 20 11
33 25 13 14 19 25 13 25 -6 0 -16 -7 -23 -15z"/>
<path d="M3383 4367 c-9 -15 29 -19 44 -4 14 13 13 15 -12 14 -15 -1 -29 -5
-32 -10z"/>
<path d="M3190 4360 c0 -5 7 -10 15 -10 8 0 15 5 15 10 0 6 -7 10 -15 10 -8 0
-15 -4 -15 -10z"/>
<path d="M3450 4351 c0 -13 23 -19 44 -11 18 6 18 7 -5 13 -32 9 -39 9 -39 -2z"/>
<path d="M3315 4330 c3 -5 8 -10 11 -10 2 0 4 5 4 10 0 6 -5 10 -11 10 -5 0
-7 -4 -4 -10z"/>
<path d="M2875 4310 c-8 -13 13 -40 31 -40 15 0 17 10 8 34 -7 18 -30 21 -39
6z"/>
<path d="M7017 4313 c-11 -11 14 -33 38 -33 36 0 82 -29 124 -78 22 -25 43
-43 47 -40 8 8 -94 118 -110 118 -6 0 -22 9 -36 20 -25 20 -51 25 -63 13z"/>
<path d="M3300 4280 c-13 -8 -13 -10 2 -10 9 0 20 5 23 10 8 13 -5 13 -25 0z"/>
<path d="M7580 4260 c0 -5 18 -10 40 -10 22 0 40 5 40 10 0 6 -18 10 -40 10
-22 0 -40 -4 -40 -10z"/>
<path d="M3266 4241 c-4 -7 -5 -15 -2 -18 9 -9 19 4 14 18 -4 11 -6 11 -12 0z"/>
<path d="M7350 4219 c13 -45 22 -50 18 -10 -2 19 -8 36 -15 38 -9 3 -10 -4 -3
-28z"/>
<path d="M3440 4230 c0 -12 97 -14 103 -2 3 4 -19 8 -49 9 -30 2 -54 -2 -54
-7z"/>
<path d="M3072 4218 c3 -7 13 -15 22 -16 12 -3 17 1 14 10 -3 7 -13 15 -22 16
-12 3 -17 -1 -14 -10z"/>
<path d="M7504 4201 c3 -4 18 -11 33 -14 16 -3 36 -9 46 -12 9 -4 17 -3 17 3
0 11 -53 32 -82 32 -11 0 -17 -4 -14 -9z"/>
<path d="M7010 4193 c1 -23 122 -127 141 -121 6 2 -8 17 -31 33 -22 16 -51 40
-63 55 -25 29 -47 45 -47 33z"/>
<path d="M7250 4179 c0 -16 49 -79 50 -63 0 5 -11 25 -25 44 -14 19 -25 27
-25 19z"/>
<path d="M3472 4149 c5 -16 58 -25 58 -10 0 6 -6 11 -14 11 -8 0 -22 3 -32 7
-12 4 -15 2 -12 -8z"/>
<path d="M3160 4136 c0 -9 5 -16 10 -16 6 0 10 4 10 9 0 6 -4 13 -10 16 -5 3
-10 -1 -10 -9z"/>
<path d="M7231 4145 c-1 -5 8 -21 19 -35 11 -14 20 -20 20 -14 0 7 -9 22 -20
35 -10 13 -19 20 -19 14z"/>
<path d="M3306 4131 c-4 -5 -2 -12 3 -15 5 -4 12 -2 15 3 4 5 2 12 -3 15 -5 4
-12 2 -15 -3z"/>
<path d="M7347 4074 c-37 -43 -46 -67 -27 -79 14 -9 60 22 60 39 0 7 9 24 19
38 18 22 18 25 2 35 -13 8 -23 3 -54 -33z m4 -57 c-13 -13 -26 -3 -16 12 3 6
11 8 17 5 6 -4 6 -10 -1 -17z"/>
<path d="M7180 4103 c1 -12 72 -55 78 -48 4 3 -7 17 -23 30 -30 24 -55 32 -55
18z"/>
<path d="M7670 4081 c0 -6 9 -17 21 -25 13 -9 18 -19 13 -28 -4 -7 -3 -10 1
-5 5 4 17 0 27 -10 29 -26 21 -1 -13 40 -30 36 -49 47 -49 28z"/>
<path d="M3355 4070 c3 -5 13 -10 21 -10 8 0 14 5 14 10 0 6 -9 10 -21 10 -11
0 -17 -4 -14 -10z"/>
<path d="M3160 4060 c0 -5 7 -10 16 -10 8 0 12 5 9 10 -3 6 -10 10 -16 10 -5
0 -9 -4 -9 -10z"/>
<path d="M3540 4062 c0 -10 22 -32 32 -32 5 0 3 9 -4 20 -13 20 -28 27 -28 12z"/>
<path d="M6940 4064 c0 -4 8 -13 18 -20 20 -15 92 -19 92 -4 0 5 -6 7 -13 4
-7 -2 -30 2 -50 11 -40 17 -47 18 -47 9z"/>
<path d="M7147 4048 c-84 -17 -118 -48 -148 -134 -23 -65 -38 -190 -20 -164 6
8 10 29 9 45 -1 37 18 107 42 155 18 36 82 80 116 80 11 1 33 7 49 14 34 16
15 17 -48 4z"/>
<path d="M3450 4030 c0 -5 7 -10 15 -10 8 0 15 5 15 10 0 6 -7 10 -15 10 -8 0
-15 -4 -15 -10z"/>
<path d="M3258 4018 c9 -9 15 -9 24 0 9 9 7 12 -12 12 -19 0 -21 -3 -12 -12z"/>
<path d="M7635 4022 c-11 -4 -32 -15 -46 -24 -14 -10 -48 -19 -77 -20 -29 -2
-50 -7 -48 -13 1 -5 14 -9 27 -7 13 1 36 4 51 6 16 1 37 11 47 20 11 10 39 24
63 31 24 8 34 14 23 13 -11 0 -29 -3 -40 -6z"/>
<path d="M3020 4010 c0 -5 6 -10 13 -13 10 -4 10 -7 0 -18 -17 -17 -16 -29 1
-29 7 0 16 10 20 23 9 32 8 34 -14 40 -11 3 -20 1 -20 -3z"/>
<path d="M3515 3979 c10 -34 26 -51 41 -45 19 7 36 -18 22 -32 -19 -19 0 -27
21 -8 18 16 23 15 116 -29 74 -35 95 -49 87 -57 -7 -7 -12 -18 -12 -26 0 -7
10 -2 24 13 15 16 27 22 31 15 3 -5 3 -14 0 -20 -3 -5 3 -10 14 -10 12 0 21
-4 21 -10 0 -15 17 -12 35 6 20 20 33 11 15 -11 -16 -19 0 -20 25 -1 17 12 24
12 47 0 47 -24 35 -42 -44 -60 -31 -7 -50 -8 -57 -1 -6 6 -15 4 -26 -7 -11
-10 -33 -16 -64 -16 -76 0 -111 10 -111 31 0 23 16 25 24 3 4 -9 9 -14 13 -11
3 4 0 13 -7 21 -10 13 -9 19 4 31 15 15 16 15 16 0 0 -12 5 -15 16 -11 9 3 18
6 21 6 3 0 0 7 -7 15 -7 8 -10 24 -7 35 6 23 -1 25 -27 5 -23 -17 -42 -9 -25
11 7 9 8 14 1 14 -6 0 -12 -5 -14 -11 -3 -8 -14 -8 -43 0 -44 12 -54 8 -35
-14 18 -22 4 -31 -18 -12 -16 15 -21 15 -38 3 -15 -12 -17 -17 -6 -27 6 -7 12
-20 12 -29 -1 -15 -22 5 -56 54 -7 11 -17 17 -20 13 -4 -4 3 -18 16 -32 22
-23 22 -25 4 -25 -10 1 -30 7 -44 15 -30 17 -40 18 -40 5 0 -17 72 -47 127
-53 29 -3 64 -14 78 -23 48 -32 217 -54 263 -35 15 6 47 13 72 16 71 7 97 67
44 102 -33 21 -122 52 -151 53 -45 0 -313 126 -313 146 0 8 -4 14 -9 14 -5 0
-17 3 -26 7 -14 5 -16 2 -10 -18z m193 -207 c2 -7 -2 -12 -8 -12 -12 0 -40 24
-40 34 0 10 44 -11 48 -22z m202 18 c0 -5 -7 -10 -15 -10 -8 0 -15 5 -15 10 0
6 7 10 15 10 8 0 15 -4 15 -10z m-300 -18 c0 -10 5 -23 12 -30 7 -7 8 -12 4
-12 -12 0 -35 32 -36 48 0 6 5 12 10 12 6 0 10 -8 10 -18z m57 -34 c2 -18 0
-20 -7 -8 -12 18 -13 30 -2 30 4 0 9 -10 9 -22z"/>
<path d="M3160 3981 c0 -5 9 -11 20 -14 13 -3 20 0 20 9 0 8 -9 14 -20 14 -11
0 -20 -4 -20 -9z"/>
<path d="M7130 3986 c0 -15 29 -55 34 -47 8 13 -11 51 -24 51 -6 0 -10 -2 -10
-4z"/>
<path d="M2930 3975 c0 -5 5 -17 10 -25 5 -8 10 -10 10 -5 0 6 -5 17 -10 25
-5 8 -10 11 -10 5z"/>
<path d="M3416 3966 c7 -19 38 -22 32 -3 -3 6 -12 13 -21 15 -12 2 -15 -1 -11
-12z"/>
<path d="M7620 3970 c0 -5 7 -10 16 -10 8 0 12 5 9 10 -3 6 -10 10 -16 10 -5
0 -9 -4 -9 -10z"/>
<path d="M6945 3960 c-4 -6 5 -10 19 -10 14 0 26 5 26 10 0 6 -9 10 -19 10
-11 0 -23 -4 -26 -10z"/>
<path d="M3485 3950 c-3 -5 -1 -10 4 -10 6 0 11 5 11 10 0 6 -2 10 -4 10 -3 0
-8 -4 -11 -10z"/>
<path d="M2887 3927 c-7 -19 67 -102 82 -92 19 11 12 34 -8 28 -14 -3 -25 6
-44 37 -17 29 -26 37 -30 27z"/>
<path d="M3010 3926 c0 -9 -7 -16 -15 -16 -8 0 -15 -4 -15 -10 0 -5 8 -10 19
-10 20 0 36 36 20 46 -5 3 -9 -2 -9 -10z"/>
<path d="M7354 3888 c0 -29 -7 -82 -16 -118 -14 -63 -14 -100 2 -100 5 0 6 9
3 20 -3 11 -2 37 2 57 l7 38 14 -28 c22 -42 34 -32 13 11 -13 26 -17 48 -12
75 6 41 16 46 33 20 9 -15 10 -13 5 10 -5 26 -33 67 -45 67 -3 0 -5 -24 -6
-52z"/>
<path d="M7674 3919 c-30 -33 -69 -49 -119 -49 -50 0 -61 -14 -17 -23 16 -4
34 -18 45 -37 34 -62 13 -70 -28 -10 -15 22 -30 38 -32 36 -6 -6 13 -41 33
-61 9 -9 13 -19 9 -23 -4 -4 -17 5 -29 21 -12 15 -29 27 -38 27 -9 0 -19 10
-21 23 -3 14 -5 7 -7 -18 -1 -22 -3 -47 -4 -55 -2 -8 -3 -23 -4 -33 -1 -10
-18 -34 -39 -53 -20 -19 -33 -38 -29 -42 11 -10 76 68 83 101 3 15 8 29 12 31
3 2 35 -22 71 -55 102 -94 275 -190 375 -208 95 -18 155 3 140 48 -5 16 -135
91 -160 91 -21 0 -164 132 -221 205 l-31 40 20 27 c25 34 18 47 -9 17z m-3
-92 c12 -22 12 -22 -10 -3 -11 11 -21 23 -21 28 0 14 19 -1 31 -25z m-18 -14
c15 -20 27 -43 27 -52 0 -12 3 -11 14 4 13 18 14 18 24 -2 24 -45 161 -148
244 -183 45 -19 83 -40 85 -47 5 -13 -48 -27 -74 -19 -10 3 -34 7 -55 10 -53
8 -211 79 -271 123 -58 42 -67 51 -67 73 1 12 3 12 14 -2 17 -23 27 -23 19 -1
-7 17 -5 16 22 -1 l28 -19 -21 35 c-24 39 -29 59 -10 40 7 -7 19 -12 27 -12 8
0 -4 16 -27 36 -23 20 -40 40 -36 45 10 17 29 8 57 -28z"/>
<path d="M3376 3923 c-3 -3 -3 -10 0 -14 7 -12 34 -11 34 0 0 11 -26 22 -34
14z"/>
<path d="M3457 3924 c-8 -8 1 -24 14 -24 5 0 9 7 9 15 0 15 -12 20 -23 9z"/>
<path d="M7048 3904 c-8 -35 0 -74 13 -74 10 0 10 30 0 75 l-7 30 -6 -31z"/>
<path d="M3110 3893 c0 -4 7 -17 15 -27 17 -23 34 -13 19 11 -12 19 -34 29
-34 16z"/>
<path d="M7231 3817 c-12 -92 -8 -132 21 -192 54 -109 53 -106 48 -203 -3 -52
-2 -96 2 -98 13 -8 37 52 43 107 11 96 11 104 -2 102 -18 -4 -16 17 6 60 13
25 15 37 7 37 -7 0 -21 -17 -31 -37 -18 -37 -18 -38 -25 -13 -4 14 -16 45 -28
70 -24 54 -34 137 -23 203 4 26 5 47 1 47 -4 0 -12 -37 -19 -83z m96 -329 c-3
-7 -5 -2 -5 12 0 14 2 19 5 13 2 -7 2 -19 0 -25z"/>
<path d="M3320 3880 c0 -13 38 -32 44 -21 3 4 -6 13 -19 19 -15 7 -25 8 -25 2z"/>
<path d="M3420 3880 c0 -5 9 -10 19 -10 11 0 23 5 26 10 4 6 -5 10 -19 10 -14
0 -26 -4 -26 -10z"/>
<path d="M3610 3870 c0 -5 5 -10 10 -10 6 0 10 5 10 10 0 6 -4 10 -10 10 -5 0
-10 -4 -10 -10z"/>
<path d="M7299 3863 c-13 -16 -12 -17 4 -4 9 7 17 15 17 17 0 8 -8 3 -21 -13z"/>
<path d="M3070 3856 c0 -17 42 -85 53 -86 4 0 -4 23 -18 50 -26 51 -35 61 -35
36z"/>
<path d="M3570 3851 c10 -21 30 -37 30 -26 0 14 -21 45 -31 45 -6 0 -6 -7 1
-19z"/>
<path d="M3645 3860 c-3 -5 -2 -10 4 -10 5 0 13 5 16 10 3 6 2 10 -4 10 -5 0
-13 -4 -16 -10z"/>
<path d="M3470 3842 c0 -5 -12 -14 -26 -21 -20 -9 -30 -9 -40 0 -11 9 -14 7
-14 -10 0 -24 -11 -26 -41 -8 -18 10 -23 9 -26 -1 -3 -7 -16 -17 -30 -23 -13
-5 -21 -13 -18 -19 10 -17 44 -11 55 10 9 16 14 18 34 8 20 -8 30 -7 53 9 15
11 36 23 46 26 15 6 25 37 12 37 -3 0 -5 -4 -5 -8z"/>
<path d="M3685 3840 c-3 -5 -2 -10 4 -10 5 0 13 5 16 10 3 6 2 10 -4 10 -5 0
-13 -4 -16 -10z"/>
<path d="M2880 3798 c0 -18 36 -52 43 -41 3 5 -5 19 -19 32 -17 16 -24 19 -24
9z"/>
<path d="M3018 3805 c-7 -7 49 -112 63 -121 18 -11 23 5 7 23 -9 10 -25 37
-37 61 -22 44 -24 46 -33 37z"/>
<path d="M7281 3753 c-10 -26 -10 -27 4 -9 8 11 15 23 15 28 0 15 -7 8 -19
-19z"/>
<path d="M2960 3755 c0 -4 15 -40 53 -122 6 -13 14 -23 20 -23 5 0 7 3 5 8 -2
4 -18 37 -36 75 -28 58 -42 79 -42 62z"/>
<path d="M3813 3743 c-31 -6 -36 -30 -7 -37 16 -4 30 0 43 13 28 28 18 35 -36
24z"/>
<path d="M3750 3721 c0 -5 5 -13 10 -16 6 -3 10 -2 10 4 0 5 -4 13 -10 16 -5
3 -10 2 -10 -4z"/>
<path d="M2900 3692 c0 -6 -7 -9 -15 -6 -8 4 -15 1 -15 -5 0 -17 30 -25 43
-12 8 8 8 14 -1 23 -9 9 -12 9 -12 0z"/>
<path d="M2930 3664 c0 -16 75 -162 81 -158 5 3 -5 30 -20 62 -16 31 -32 67
-36 80 -5 19 -25 32 -25 16z"/>
<path d="M3253 3330 c-7 -11 -43 -44 -80 -75 -63 -52 -102 -70 -178 -82 -107
-17 -216 -144 -247 -286 -6 -29 -15 -56 -19 -61 -4 -4 -22 3 -41 16 -48 36
-118 59 -193 64 -58 4 -72 2 -117 -23 -70 -37 -147 -117 -181 -184 -27 -54
-58 -210 -63 -314 -1 -27 -5 -85 -9 -127 -8 -84 0 -110 34 -101 10 3 27 22 37
44 15 30 25 39 44 39 14 0 34 6 45 13 11 7 43 12 70 12 48 -1 116 22 129 44
11 18 -35 24 -53 7 -13 -12 -20 -13 -29 -4 -8 8 -17 7 -36 -6 -30 -19 -40 -21
-30 -4 5 7 9 46 10 88 3 73 3 74 -12 41 -8 -18 -14 -51 -14 -72 0 -22 -4 -39
-9 -39 -5 0 -11 -9 -14 -19 -2 -10 -14 -24 -26 -30 -21 -12 -21 -11 -15 76 6
101 11 133 22 133 9 0 8 -86 -2 -127 -6 -27 -5 -33 9 -33 14 0 16 7 12 33 -2
17 -1 39 3 48 5 8 5 21 1 28 -15 23 0 52 29 57 15 3 39 16 53 27 23 20 24 26
17 67 -5 29 -8 36 -9 18 0 -15 -5 -30 -11 -33 -5 -3 -10 -15 -10 -26 0 -10 -4
-19 -10 -19 -5 0 -10 5 -10 11 0 5 -11 -3 -24 -18 l-25 -28 -9 25 -9 25 -16
-32 c-25 -47 -68 -54 -50 -8 4 13 2 16 -8 13 -8 -3 -13 -8 -11 -11 1 -4 2 -26
2 -49 l0 -43 20 25 c24 32 37 19 22 -23 -7 -19 -12 -48 -12 -66 0 -32 -56
-141 -72 -141 -11 0 -10 58 2 143 6 40 15 106 21 147 6 41 17 88 25 104 8 16
14 41 14 55 0 59 109 194 180 224 34 14 133 9 200 -10 40 -12 67 -28 101 -62
26 -25 49 -55 52 -66 3 -11 8 -32 11 -47 4 -16 11 -28 16 -28 16 0 12 35 -11
87 l-20 48 22 70 c37 120 63 167 121 221 30 28 63 54 74 57 10 3 44 11 74 18
30 6 66 20 79 30 35 28 63 23 100 -17 28 -29 32 -38 20 -46 -11 -8 -11 -9 2
-5 13 4 24 -11 47 -66 58 -140 64 -187 32 -289 -32 -105 -114 -176 -237 -205
-13 -3 -23 -9 -23 -12 0 -18 14 -18 43 -1 18 10 51 23 75 30 38 10 48 8 103
-16 35 -16 72 -42 89 -63 34 -40 46 -39 25 3 -14 26 -14 27 0 16 14 -12 23
-28 55 -105 32 -78 21 -245 -16 -245 -8 0 -14 -5 -14 -10 0 -6 11 -8 25 -4 23
6 24 4 16 -23 -5 -15 -22 -57 -38 -93 -17 -36 -43 -92 -58 -125 -67 -148 -76
-165 -84 -165 -15 0 -22 48 -15 97 4 31 24 77 60 137 49 82 61 106 50 106 -2
0 -18 -26 -36 -57 -57 -103 -105 -173 -117 -173 -28 0 -14 80 24 141 20 33 34
62 31 65 -4 3 -18 -17 -33 -44 -15 -28 -35 -53 -44 -56 -9 -3 -21 -8 -27 -11
-6 -3 -14 4 -17 15 -3 13 0 23 9 27 8 3 21 21 29 39 9 21 21 34 32 34 11 0 24
5 30 11 8 8 17 8 31 0 15 -8 23 -7 32 4 7 8 22 15 34 15 23 0 46 17 46 33 0 5
-7 4 -15 -3 -11 -9 -18 -10 -29 -1 -11 9 -15 8 -20 -5 -4 -11 -13 -14 -29 -10
-14 3 -32 -1 -43 -9 -28 -21 -37 -18 -31 10 8 46 -16 21 -34 -34 -22 -68 -34
-81 -54 -55 -13 17 -12 21 15 46 36 33 37 38 9 38 -19 0 -21 4 -15 33 5 30 5
31 -10 12 -9 -12 -13 -31 -10 -50 5 -27 -19 -75 -38 -75 -12 0 -6 58 7 63 6 2
9 8 5 12 -4 5 -18 -3 -30 -16 -15 -16 -36 -25 -59 -27 -35 -2 -37 -1 -43 33
-4 20 -4 44 -1 55 3 10 2 21 -3 24 -5 3 -12 -26 -16 -63 -3 -38 -9 -78 -13
-88 -6 -17 -5 -17 13 -1 19 16 20 16 32 -3 11 -17 10 -24 -5 -42 -10 -12 -29
-24 -42 -25 -27 -4 -70 -32 -71 -46 0 -10 32 -3 84 19 28 12 42 27 57 59 23
53 48 66 68 37 7 -12 21 -21 30 -21 10 0 21 -13 26 -32 7 -23 17 -34 33 -36
19 -3 22 -9 20 -36 -2 -41 7 -56 38 -56 20 0 25 -5 24 -22 -4 -43 0 -83 10
-98 15 -24 44 12 94 114 42 87 54 113 90 201 10 22 23 51 31 65 7 14 19 72 25
129 11 103 11 105 -17 179 -35 94 -103 172 -149 172 -16 0 -42 10 -58 23 l-28
23 25 17 c30 20 69 86 86 150 18 63 9 168 -19 232 -51 117 -64 141 -81 155
-17 14 -17 19 -5 70 8 30 18 65 21 78 9 27 -6 29 -22 2z"/>
<path d="M7315 3290 c-52 -34 -121 -70 -136 -70 -17 0 -124 -74 -171 -118 -78
-73 -131 -231 -98 -293 19 -35 25 -20 25 59 0 44 5 85 11 93 6 8 14 26 18 41
7 29 111 148 130 148 13 0 185 87 201 101 25 24 52 8 92 -53 22 -35 47 -76 55
-93 8 -16 27 -52 41 -79 39 -72 38 -158 -4 -246 -17 -36 -38 -73 -46 -83 -19
-21 -14 -30 7 -14 61 48 113 212 93 290 -13 47 -104 211 -132 236 -10 9 -23
35 -30 59 -6 23 -15 42 -19 42 -4 0 -20 -9 -37 -20z"/>
<path d="M2926 3089 c-17 -14 -26 -29 -24 -43 5 -32 55 -29 81 6 38 51 -4 78
-57 37z"/>
<path d="M3050 3071 c0 -5 5 -13 10 -16 6 -3 10 -2 10 4 0 5 -4 13 -10 16 -5
3 -10 2 -10 -4z"/>
<path d="M3150 3070 c0 -5 5 -10 11 -10 5 0 7 5 4 10 -3 6 -8 10 -11 10 -2 0
-4 -4 -4 -10z"/>
<path d="M7056 3024 c-13 -34 -6 -76 13 -81 12 -3 23 -17 26 -34 10 -46 21
-34 20 24 -1 71 -42 135 -59 91z"/>
<path d="M2980 2969 c0 -5 5 -7 10 -4 6 3 10 8 10 11 0 2 -4 4 -10 4 -5 0 -10
-5 -10 -11z"/>
<path d="M3090 2971 c0 -6 5 -13 10 -16 6 -3 10 1 10 9 0 9 -4 16 -10 16 -5 0
-10 -4 -10 -9z"/>
<path d="M3252 2962 c-27 -27 -28 -73 -2 -97 16 -15 22 -15 35 -5 19 16 20 80
2 105 -13 17 -15 17 -35 -3z"/>
<path d="M2890 2926 c0 -9 7 -16 16 -16 9 0 14 5 12 12 -6 18 -28 21 -28 4z"/>
<path d="M7406 2915 c-9 -9 -16 -29 -16 -45 0 -18 -10 -39 -25 -54 -25 -25
-33 -56 -15 -56 6 0 10 7 10 16 0 9 20 35 45 58 47 43 63 87 34 94 -9 1 -24
-4 -33 -13z"/>
<path d="M3030 2899 c0 -11 5 -17 10 -14 6 3 10 13 10 21 0 8 -4 14 -10 14 -5
0 -10 -9 -10 -21z"/>
<path d="M3160 2860 c0 -5 5 -10 10 -10 6 0 10 5 10 10 0 6 -4 10 -10 10 -5 0
-10 -4 -10 -10z"/>
<path d="M7105 2788 c3 -35 10 -67 15 -72 12 -12 12 7 4 82 -9 74 -26 65 -19
-10z"/>
<path d="M3057 2833 c-4 -3 -7 -11 -7 -17 0 -6 5 -5 12 2 6 6 9 14 7 17 -3 3
-9 2 -12 -2z"/>
<path d="M2856 2815 c-3 -9 0 -15 9 -15 16 0 20 16 6 24 -5 3 -11 -1 -15 -9z"/>
<path d="M2952 2804 c2 -11 8 -18 13 -16 15 3 12 25 -3 30 -9 3 -13 -2 -10
-14z"/>
<path d="M6612 2775 c-39 -20 -88 -50 -108 -68 -40 -35 -109 -133 -119 -169
-3 -13 -45 -101 -92 -195 -48 -95 -84 -176 -80 -179 3 -4 18 2 33 12 80 57
112 63 184 38 49 -17 121 -13 220 11 81 20 161 25 198 12 17 -6 32 -14 32 -17
0 -3 -28 -11 -61 -17 -47 -9 -70 -20 -96 -45 -39 -37 -87 -107 -79 -115 2 -3
1 -16 -4 -29 -5 -13 -6 -25 -1 -28 4 -3 16 20 25 51 21 65 83 139 127 148 16
4 60 10 97 13 63 7 88 23 46 31 -10 2 -25 8 -33 15 -43 34 -154 35 -266 1 -60
-18 -355 -17 -355 1 0 6 24 58 53 116 28 58 60 125 70 149 11 24 26 59 35 77
51 106 236 215 337 199 47 -8 134 -52 170 -88 46 -44 55 -35 11 10 -21 22 -67
53 -101 70 -89 44 -149 43 -243 -4z"/>
<path d="M3195 2791 c-6 -11 9 -23 19 -14 9 9 7 23 -3 23 -6 0 -12 -4 -16 -9z"/>
<path d="M2435 2781 c-3 -5 -1 -12 5 -16 5 -3 10 1 10 9 0 18 -6 21 -15 7z"/>
<path d="M2356 2754 c-11 -28 -6 -38 9 -18 8 10 15 22 15 27 0 13 -18 7 -24
-9z"/>
<path d="M3180 2760 c0 -5 5 -10 11 -10 5 0 7 5 4 10 -3 6 -8 10 -11 10 -2 0
-4 -4 -4 -10z"/>
<path d="M2392 2748 c-7 -7 -12 -20 -12 -30 0 -11 -5 -15 -15 -12 -8 4 -15 1
-15 -5 0 -6 -10 -11 -21 -11 -16 0 -20 5 -16 20 9 33 -10 32 -22 -1 -14 -41 2
-68 28 -45 16 14 68 15 89 2 7 -4 12 -3 12 3 0 5 -5 13 -11 17 -6 3 -9 22 -7
40 2 19 4 34 3 34 -1 0 -6 -5 -13 -12z"/>
<path d="M2437 2743 c-10 -10 -8 -73 2 -73 5 0 9 18 9 40 1 42 0 44 -11 33z"/>
<path d="M2560 2731 c0 -6 0 -14 0 -18 0 -5 4 -8 8 -8 5 0 17 -8 27 -18 26
-26 45 -5 20 23 -10 11 -20 18 -23 15 -3 -3 -11 0 -19 6 -9 9 -13 8 -13 0z"/>
<path d="M2996 2731 c-4 -5 -2 -12 3 -15 5 -4 12 -2 15 3 4 5 2 12 -3 15 -5 4
-12 2 -15 -3z"/>
<path d="M2495 2720 c-3 -5 -1 -10 4 -10 6 0 11 5 11 10 0 6 -2 10 -4 10 -3 0
-8 -4 -11 -10z"/>
<path d="M7180 2710 c0 -19 3 -21 12 -12 9 9 9 15 0 24 -9 9 -12 7 -12 -12z"/>
<path d="M2856 2701 c-4 -7 -5 -15 -2 -18 9 -9 19 4 14 18 -4 11 -6 11 -12 0z"/>
<path d="M6796 2675 c4 -16 10 -46 14 -65 l8 -35 0 35 c1 19 -5 49 -14 65
l-14 30 6 -30z"/>
<path d="M7275 2682 c-29 -24 -75 -93 -75 -112 1 -23 50 37 50 61 0 10 3 19 8
19 4 0 15 12 25 25 21 29 19 31 -8 7z"/>
<path d="M7070 2646 c0 -20 5 -36 10 -36 6 0 10 13 10 29 0 17 -4 33 -10 36
-6 4 -10 -8 -10 -29z"/>
<path d="M6862 2650 c0 -14 2 -19 5 -12 2 6 2 18 0 25 -3 6 -5 1 -5 -13z"/>
<path d="M7110 2635 c0 -22 -3 -57 -6 -77 -4 -23 -3 -38 3 -38 13 0 24 120 13
140 -7 11 -10 3 -10 -25z"/>
<path d="M7178 2658 c-4 -9 -9 -45 -12 -80 l-6 -63 15 45 c15 44 18 134 3 98z"/>
<path d="M7448 2660 c-26 -4 -62 -15 -79 -24 -18 -9 -38 -16 -45 -16 -14 0
-29 -18 -22 -26 3 -2 34 8 69 22 48 20 88 28 160 31 94 5 97 5 172 -31 85 -40
144 -87 158 -125 20 -51 27 -202 13 -261 -27 -116 -54 -277 -54 -326 0 -74
-33 -90 -66 -32 -18 32 -112 88 -148 88 -41 0 -163 52 -222 95 -30 22 -47 44
-60 80 -17 49 -38 84 -82 139 -40 52 -34 20 6 -34 22 -29 47 -71 56 -93 l16
-41 -30 29 c-43 42 -37 18 7 -27 40 -41 41 -49 43 -236 0 -18 4 -31 9 -28 5 3
8 52 7 110 l-2 104 23 -11 c13 -5 23 -14 23 -18 0 -22 160 -89 212 -89 33 0
120 -59 135 -92 13 -30 60 -55 74 -41 5 5 12 32 15 59 3 27 11 78 19 114 7 36
19 99 25 140 7 41 18 99 26 128 15 61 10 163 -12 234 -19 57 -78 115 -160 154
-49 23 -74 28 -149 30 -49 2 -111 -1 -137 -6z"/>
<path d="M6675 2635 c16 -13 32 -22 34 -19 7 6 -40 44 -54 43 -5 0 3 -11 20
-24z"/>
<path d="M2976 2634 c-8 -21 -8 -24 3 -24 12 0 22 28 12 35 -5 3 -12 -2 -15
-11z"/>
<path d="M3052 2619 c3 -8 8 -13 11 -11 9 3 7 11 -5 18 -6 4 -8 0 -6 -7z"/>
<path d="M2266 2594 c-4 -14 -5 -29 -2 -31 3 -3 8 7 12 21 3 15 4 29 1 32 -2
3 -8 -7 -11 -22z"/>
<path d="M2337 2607 c-11 -29 -9 -53 4 -40 6 6 9 21 7 34 -3 21 -4 22 -11 6z"/>
<path d="M2430 2600 c0 -11 5 -20 10 -20 6 0 10 9 10 20 0 11 -4 20 -10 20 -5
0 -10 -9 -10 -20z"/>
<path d="M2300 2583 c0 -22 2 -25 10 -13 13 20 13 40 0 40 -5 0 -10 -12 -10
-27z"/>
<path d="M6950 2593 c0 -13 5 -23 10 -23 13 0 13 11 0 30 -8 12 -10 11 -10 -7z"/>
<path d="M2504 2587 c-9 -24 3 -35 30 -30 16 3 23 10 19 19 -3 8 -8 12 -11 10
-3 -3 -11 -1 -18 5 -10 9 -15 7 -20 -4z"/>
<path d="M2560 2590 c0 -5 5 -10 10 -10 6 0 10 5 10 10 0 6 -4 10 -10 10 -5 0
-10 -4 -10 -10z"/>
<path d="M2698 2578 c-23 -38 -38 -78 -37 -101 0 -15 5 -10 15 18 9 22 22 53
31 68 18 35 11 47 -9 15z"/>
<path d="M7012 2574 c-7 -8 -10 -23 -7 -34 10 -32 25 -23 25 15 0 40 0 40 -18
19z"/>
<path d="M7060 2583 c-5 -31 -7 -120 -2 -141 5 -27 62 -56 91 -47 14 4 23 1
27 -9 12 -32 27 -16 21 24 -3 24 -1 41 7 44 8 3 8 5 -1 5 -7 1 -17 -8 -23 -19
-14 -26 -42 -26 -60 0 -9 13 -21 18 -35 14 -20 -5 -21 -2 -17 54 4 53 -3 110
-8 75z"/>
<path d="M2787 2574 c-13 -13 -7 -44 8 -44 16 0 17 5 6 33 -3 10 -10 15 -14
11z"/>
<path d="M6615 2570 c11 -5 29 -9 40 -9 l20 0 -20 9 c-11 5 -29 9 -40 9 l-20
0 20 -9z"/>
<path d="M7254 2544 c-9 -22 -20 -47 -25 -56 -11 -22 -11 -28 0 -28 11 0 56
109 48 117 -3 3 -14 -12 -23 -33z"/>
<path d="M2815 2560 c-3 -5 -1 -10 4 -10 6 0 11 5 11 10 0 6 -2 10 -4 10 -3 0
-8 -4 -11 -10z"/>
<path d="M2856 2555 c-3 -9 -4 -21 0 -26 5 -9 34 -13 34 -5 0 2 3 12 7 22 5
12 3 15 -6 9 -8 -4 -16 -2 -21 5 -5 8 -9 7 -14 -5z"/>
<path d="M2939 2549 c-12 -24 1 -46 21 -34 8 5 8 10 0 20 -7 8 -9 19 -5 25 3
5 4 10 1 10 -3 0 -10 -9 -17 -21z"/>
<path d="M2423 2547 c2 -7 16 -12 30 -12 35 -1 29 17 -7 21 -17 2 -26 -1 -23
-9z"/>
<path d="M7367 2553 c-4 -3 -7 -11 -7 -17 0 -6 5 -5 12 2 6 6 9 14 7 17 -3 3
-9 2 -12 -2z"/>
<path d="M7179 2513 c-6 -16 -6 -30 -1 -35 6 -6 11 4 14 26 5 43 1 46 -13 9z"/>
<path d="M7630 2536 c0 -8 51 -13 56 -5 3 5 -9 9 -25 9 -17 0 -31 -2 -31 -4z"/>
<path d="M2741 2504 c-17 -38 -6 -42 14 -5 8 17 12 31 7 31 -5 0 -14 -12 -21
-26z"/>
<path d="M3095 2519 c-4 -6 -5 -12 -2 -15 7 -7 37 7 37 17 0 13 -27 11 -35 -2z"/>
<path d="M6635 2506 c-95 -29 -119 -44 -195 -120 -87 -89 -66 -84 29 7 71 68
81 74 167 100 85 25 171 32 199 15 54 -32 105 -57 105 -51 0 5 -24 23 -54 41
-47 28 -63 32 -118 31 -34 -1 -94 -11 -133 -23z"/>
<path d="M7530 2500 c-19 -11 -29 -19 -23 -20 7 0 27 9 45 20 42 25 24 25 -22
0z"/>
<path d="M2990 2495 c0 -9 5 -15 10 -13 12 4 11 16 -1 24 -5 3 -9 -2 -9 -11z"/>
<path d="M2479 2497 c0 -4 -1 -20 -1 -37 0 -46 1 -52 11 -46 9 6 6 74 -3 84
-3 3 -6 2 -7 -1z"/>
<path d="M2422 2425 c-2 -41 1 -65 7 -65 7 0 11 26 11 65 0 84 -14 84 -18 0z"/>
<path d="M2571 2472 c-13 -25 -14 -42 -2 -42 10 0 25 50 17 57 -2 3 -9 -4 -15
-15z"/>
<path d="M3310 2480 c0 -5 7 -10 16 -10 8 0 12 5 9 10 -3 6 -10 10 -16 10 -5
0 -9 -4 -9 -10z"/>
<path d="M2375 2424 c-4 -36 -3 -60 4 -67 8 -8 11 8 11 56 0 37 -2 67 -4 67
-2 0 -7 -25 -11 -56z"/>
<path d="M3240 2466 c0 -9 5 -16 10 -16 6 0 10 4 10 9 0 6 -4 13 -10 16 -5 3
-10 -1 -10 -9z"/>
<path d="M6735 2405 c-19 -43 -34 -80 -31 -82 5 -6 39 54 59 106 30 75 9 57
-28 -24z"/>
<path d="M7470 2470 c-9 -6 -10 -10 -3 -10 6 0 15 5 18 10 8 12 4 12 -15 0z"/>
<path d="M7392 2444 c-12 -9 -9 -10 17 -6 17 2 34 8 36 13 8 12 -35 7 -53 -7z"/>
<path d="M2777 2433 c-4 -3 -7 -11 -7 -17 0 -6 5 -5 12 2 6 6 9 14 7 17 -3 3
-9 2 -12 -2z"/>
<path d="M2846 2424 c-7 -18 0 -34 14 -34 6 0 9 11 8 25 -3 28 -13 33 -22 9z"/>
<path d="M3340 2430 c0 -5 4 -10 9 -10 6 0 13 5 16 10 3 6 -1 10 -9 10 -9 0
-16 -4 -16 -10z"/>
<path d="M7320 2430 c0 -5 -9 -10 -20 -10 -45 0 -15 -19 63 -40 45 -12 96 -28
114 -36 17 -8 33 -14 36 -14 3 0 22 -15 41 -32 47 -45 114 -148 155 -241 19
-42 38 -77 43 -77 4 0 -3 24 -16 53 -13 28 -29 66 -37 82 -21 47 -88 146 -128
188 -35 37 -117 87 -143 87 -33 0 -88 22 -88 35 0 8 -4 15 -10 15 -5 0 -10 -4
-10 -10z"/>
<path d="M2527 2417 c-3 -9 -2 -19 4 -23 15 -9 18 -2 9 20 -6 17 -7 18 -13 3z"/>
<path d="M2920 2411 c0 -12 5 -21 10 -21 6 0 10 6 10 14 0 8 -4 18 -10 21 -5
3 -10 -3 -10 -14z"/>
<path d="M6556 2406 c-23 -36 -20 -44 5 -12 12 15 19 29 16 32 -2 2 -12 -7
-21 -20z"/>
<path d="M6876 2407 c-5 -15 -6 -31 -2 -34 11 -11 18 5 14 34 l-4 28 -8 -28z"/>
<path d="M7660 2420 c-78 -27 -101 -38 -92 -44 6 -4 25 0 42 9 17 9 54 19 81
22 33 4 46 9 37 14 -16 10 -35 10 -68 -1z"/>
<path d="M2690 2390 c0 -19 11 -26 23 -14 8 8 -3 34 -14 34 -5 0 -9 -9 -9 -20z"/>
<path d="M3270 2400 c0 -13 18 -22 24 -11 3 5 -1 11 -9 15 -8 3 -15 1 -15 -4z"/>
<path d="M3361 2380 c0 -33 1 -34 10 -11 6 16 6 28 -1 35 -7 7 -10 -1 -9 -24z"/>
<path d="M2197 2383 c-14 -49 -17 -93 -7 -93 5 0 10 6 11 13 0 6 2 31 5 55 4
43 -1 56 -9 25z"/>
<path d="M3210 2386 c0 -8 5 -18 10 -21 6 -3 10 -16 10 -28 1 -19 3 -18 14 8
11 26 10 32 -3 42 -21 16 -31 16 -31 -1z"/>
<path d="M3320 2348 c0 -19 2 -20 10 -8 13 19 13 30 0 30 -5 0 -10 -10 -10
-22z"/>
<path d="M2523 2341 c-24 -20 -32 -38 -10 -24 6 4 23 8 36 8 13 0 26 6 29 14
3 8 0 11 -7 7 -6 -4 -11 -2 -11 3 0 16 -12 13 -37 -8z"/>
<path d="M3281 2353 c0 -6 -4 -20 -7 -30 -5 -14 -4 -15 5 -7 7 7 11 20 8 30
-3 11 -5 14 -6 7z"/>
<path d="M2770 2335 c0 -9 5 -15 10 -13 12 4 11 16 -1 24 -5 3 -9 -2 -9 -11z"/>
<path d="M2850 2336 c0 -9 5 -16 10 -16 6 0 10 4 10 9 0 6 -4 13 -10 16 -5 3
-10 -1 -10 -9z"/>
<path d="M3176 2341 c-4 -7 -5 -15 -2 -18 9 -9 19 4 14 18 -4 11 -6 11 -12 0z"/>
<path d="M7363 2319 c3 -19 9 -60 13 -92 3 -31 10 -60 15 -63 5 -2 7 12 4 33
-9 96 -18 144 -28 150 -6 4 -8 -6 -4 -28z"/>
<path d="M3030 2320 c0 -11 5 -20 10 -20 6 0 10 9 10 20 0 11 -4 20 -10 20 -5
0 -10 -9 -10 -20z"/>
<path d="M3434 2316 c-4 -10 -17 -16 -35 -16 -33 0 -39 -19 -9 -27 15 -4 19
-11 14 -25 -4 -14 -2 -18 5 -14 6 4 11 15 11 24 0 10 7 28 16 40 9 13 13 26
10 29 -3 3 -8 -2 -12 -11z"/>
<path d="M2670 2310 c0 -5 4 -10 9 -10 6 0 13 5 16 10 3 6 -1 10 -9 10 -9 0
-16 -4 -16 -10z"/>
<path d="M2913 2304 c-7 -19 11 -39 26 -30 16 10 13 33 -4 40 -9 3 -18 -1 -22
-10z"/>
<path d="M7640 2290 c-11 -7 -6 -10 22 -10 20 0 40 -4 43 -10 3 -5 15 -10 26
-10 10 0 19 5 19 10 0 6 -9 10 -19 10 -11 0 -23 5 -26 10 -8 13 -45 13 -65 0z"/>
<path d="M3310 2281 c0 -15 -32 -22 -47 -10 -17 15 -26 7 -17 -15 7 -18 39
-22 49 -6 4 6 13 7 23 1 19 -9 42 -4 42 10 0 5 -7 9 -15 9 -8 0 -15 5 -15 10
0 6 -4 10 -10 10 -5 0 -10 -4 -10 -9z"/>
<path d="M2581 2256 c-13 -13 -34 -27 -47 -30 -13 -4 -24 -12 -24 -18 0 -6 -7
-19 -16 -29 -9 -10 -13 -23 -9 -30 6 -8 12 -3 22 14 8 15 25 29 41 33 39 8 65
22 96 51 36 33 26 41 -15 13 l-31 -23 7 22 c8 27 4 27 -24 -3z"/>
<path d="M3145 2270 c-3 -5 -1 -10 4 -10 6 0 11 5 11 10 0 6 -2 10 -4 10 -3 0
-8 -4 -11 -10z"/>
<path d="M2760 2256 c0 -9 5 -16 10 -16 6 0 10 4 10 9 0 6 -4 13 -10 16 -5 3
-10 -1 -10 -9z"/>
<path d="M3100 2250 c0 -5 5 -10 10 -10 6 0 10 5 10 10 0 6 -4 10 -10 10 -5 0
-10 -4 -10 -10z"/>
<path d="M7511 2216 c-1 -24 3 -47 9 -51 6 -4 10 12 10 44 0 63 -15 68 -19 7z"/>
<path d="M3170 2234 c0 -8 9 -14 20 -14 11 0 20 4 20 9 0 5 -9 11 -20 14 -13
3 -20 0 -20 -9z"/>
<path d="M7206 2225 c4 -8 10 -15 15 -15 4 0 6 7 3 15 -4 8 -10 15 -15 15 -4
0 -6 -7 -3 -15z"/>
<path d="M3030 2220 c0 -5 7 -10 16 -10 8 0 12 5 9 10 -3 6 -10 10 -16 10 -5
0 -9 -4 -9 -10z"/>
<path d="M3341 2223 c0 -6 -4 -20 -7 -30 -5 -14 -4 -15 5 -7 7 7 11 20 8 30
-3 11 -5 14 -6 7z"/>
<path d="M2643 2210 c-13 -5 -23 -14 -23 -19 0 -5 -12 -14 -27 -19 -16 -6 -21
-11 -11 -11 21 -1 76 30 83 47 2 6 3 12 2 11 -1 0 -12 -4 -24 -9z"/>
<path d="M2755 2208 c-9 -22 4 -43 17 -30 7 7 7 16 0 29 -10 17 -11 17 -17 1z"/>
<path d="M3277 2207 c-11 -29 -9 -53 4 -40 6 6 9 21 7 34 -3 21 -4 22 -11 6z"/>
<path d="M3230 2191 c-6 -12 -7 -21 -1 -21 10 0 24 30 17 37 -2 3 -9 -5 -16
-16z"/>
<path d="M2691 2178 c-10 -28 -9 -30 13 -22 18 7 21 29 6 39 -6 3 -14 -4 -19
-17z"/>
<path d="M2922 2170 c0 -19 2 -27 5 -17 2 9 2 25 0 35 -3 9 -5 1 -5 -18z"/>
<path d="M6965 2190 c-3 -5 -1 -10 4 -10 6 0 11 5 11 10 0 6 -2 10 -4 10 -3 0
-8 -4 -11 -10z"/>
<path d="M2826 2171 c-10 -30 7 -50 31 -35 26 16 29 37 5 30 -15 -5 -21 -2
-24 11 -4 15 -5 14 -12 -6z"/>
<path d="M7170 2109 c17 -46 30 -96 30 -111 0 -15 5 -30 11 -34 8 -4 9 1 4 17
-7 21 -6 22 9 10 20 -16 21 -3 2 24 -7 11 -24 49 -36 85 -13 36 -29 71 -36 79
-7 8 0 -24 16 -70z"/>
<path d="M7190 2188 c0 -13 42 -78 51 -78 5 0 9 3 9 8 -1 9 -59 79 -60 70z"/>
<path d="M6846 2161 c-4 -6 3 -15 14 -21 23 -12 27 2 6 19 -9 8 -16 8 -20 2z"/>
<path d="M6945 2146 c-34 -26 -157 -90 -195 -101 -24 -8 -40 -22 -40 -38 0 -5
12 1 26 12 15 12 32 21 38 21 19 0 133 62 177 97 23 18 38 33 33 33 -5 0 -22
-11 -39 -24z"/>
<path d="M2637 2149 c-10 -6 -22 -22 -27 -35 -10 -26 -30 -33 -30 -10 0 16
-72 32 -91 21 -6 -4 -15 -2 -19 5 -4 7 -13 9 -19 5 -16 -10 5 -35 30 -35 10 0
39 -7 64 -15 32 -11 50 -13 64 -6 46 25 29 -6 -94 -177 -107 -147 -209 -258
-297 -323 -37 -28 -68 -55 -68 -60 0 -18 42 -30 83 -24 55 9 172 65 233 111
67 51 239 218 338 329 18 20 29 26 33 18 2 -7 8 -13 13 -13 8 0 -27 109 -38
120 -3 3 -2 -16 1 -41 l6 -46 -157 -157 c-86 -86 -169 -164 -183 -174 -15 -9
-46 -30 -69 -46 -24 -15 -73 -39 -109 -52 -105 -38 -134 -29 -60 20 22 15 63
50 91 79 29 30 61 53 74 54 36 3 30 -8 -31 -56 -69 -55 -93 -83 -40 -48 22 15
44 27 49 27 6 0 21 12 34 28 22 26 23 26 16 3 l-6 -24 25 19 c25 18 58 72 37
59 -18 -11 -11 11 10 30 18 16 20 16 20 2 0 -10 3 -17 8 -16 13 1 65 70 57 77
-4 4 -14 -3 -22 -15 -9 -13 -20 -23 -25 -23 -5 0 20 37 57 83 l67 82 -106
-110 c-58 -60 -105 -104 -106 -97 0 10 -5 10 -20 2 -31 -17 -25 7 13 54 63 77
162 211 181 246 11 19 24 43 30 52 8 14 6 21 -9 32 -19 14 -19 15 -1 35 21 23
20 25 -7 10z"/>
<path d="M7080 2139 c0 -11 -5 -30 -11 -42 -14 -28 -108 -117 -123 -117 -6 0
-27 -9 -47 -19 -31 -17 -52 -19 -145 -16 -69 3 -103 0 -94 -5 8 -6 31 -10 51
-10 60 0 159 -12 159 -20 0 -17 -148 -164 -222 -219 -46 -34 -90 -68 -98 -74
-8 -7 -44 -26 -80 -42 -62 -27 -73 -29 -211 -31 -152 -1 -178 -6 -160 -28 6
-7 8 -15 6 -18 -3 -3 -1 -16 4 -30 11 -28 53 -43 151 -53 52 -5 84 -2 160 19
52 13 113 34 135 45 47 24 34 28 -18 6 -45 -19 -229 -55 -279 -55 -20 0 -57 9
-82 20 -36 15 -46 24 -46 43 0 24 0 24 113 23 105 -1 118 1 202 33 49 19 116
54 148 78 33 23 63 43 67 43 4 0 17 9 30 20 13 11 28 20 35 20 6 0 22 11 35
25 13 14 40 35 59 46 l36 21 -37 -39 c-29 -30 -35 -42 -27 -56 8 -13 7 -17 -3
-15 -7 2 -12 -2 -11 -9 4 -19 -161 -143 -191 -143 -8 0 -21 -6 -28 -14 -8 -8
-23 -16 -34 -18 -12 -2 -15 -6 -8 -11 6 -3 42 9 78 29 40 21 74 33 85 29 12
-4 35 7 67 32 27 21 65 49 85 62 19 13 73 61 119 107 47 46 86 81 88 79 12
-12 -76 -296 -108 -352 -10 -17 -16 -40 -13 -51 2 -11 -2 -33 -11 -50 -21 -40
-20 -52 2 -52 9 0 27 15 40 33 26 39 28 49 6 40 -12 -4 -15 -1 -12 13 3 18 55
51 64 41 3 -3 0 -25 -7 -48 -18 -68 -21 -99 -10 -99 6 0 14 17 19 38 46 187
76 318 98 435 15 75 30 137 34 137 4 0 22 -11 41 -25 19 -14 47 -33 63 -42 16
-10 42 -29 57 -42 17 -13 36 -20 45 -17 24 9 3 30 -58 56 -28 12 -60 30 -71
41 -12 10 -25 19 -29 19 -26 0 -70 49 -88 97 -16 44 -18 61 -10 96 12 53 12
57 0 57 -5 0 -10 -9 -10 -21z m-51 -146 c-29 -46 -51 -73 -61 -73 -4 0 12 27
34 60 45 65 65 75 27 13z m65 -14 c5 -27 -1 -38 -40 -85 -26 -30 -51 -54 -57
-54 -9 0 11 30 38 55 24 22 56 75 46 75 -6 0 -11 9 -11 20 0 31 17 23 24 -11z
m-122 -16 c-11 -16 -30 -37 -42 -48 l-23 -20 11 20 c12 24 58 75 67 75 4 0 -2
-12 -13 -27z m22 -56 c-5 -13 -44 -41 -44 -31 0 5 41 43 47 44 1 0 0 -6 -3
-13z m116 2 c0 -5 -4 -29 -9 -52 -6 -23 -12 -54 -16 -69 -9 -43 -29 -35 -22 8
4 20 2 45 -3 55 -7 13 -4 24 13 43 23 27 37 33 37 15z m-212 -69 c-7 -10 -14
-17 -17 -15 -4 4 18 35 25 35 2 0 -1 -9 -8 -20z m52 -5 c0 -1 -8 -9 -18 -18
-18 -16 -19 -16 -16 5 1 13 3 24 3 25 1 3 31 -8 31 -12z m3 -30 c-3 -9 -8 -14
-10 -11 -3 3 -2 9 2 15 9 16 15 13 8 -4z m-123 1 c0 -3 -4 -8 -10 -11 -5 -3
-10 -1 -10 4 0 6 5 11 10 11 6 0 10 -2 10 -4z m46 -69 c20 7 17 -1 -8 -23 -19
-17 -21 -17 -15 -1 4 9 2 17 -4 17 -6 0 -7 5 -3 12 6 9 9 9 11 1 3 -7 11 -9
19 -6z m194 -19 c0 -68 -49 -238 -69 -238 -5 0 -17 -3 -27 -7 -15 -5 -16 -2
-10 23 4 16 13 36 20 44 8 8 16 26 19 40 13 55 52 160 59 160 5 0 8 -10 8 -22z"/>
<path d="M7600 2131 c0 -6 4 -13 10 -16 6 -3 7 1 4 9 -7 18 -14 21 -14 7z"/>
<path d="M2766 2123 c-11 -11 -6 -23 9 -23 8 0 15 4 15 9 0 13 -16 22 -24 14z"/>
<path d="M2911 2105 c-1 -11 -4 -31 -7 -45 -5 -22 -4 -23 6 -7 6 10 9 30 7 45
-3 18 -5 20 -6 7z"/>
<path d="M6760 2111 c0 -5 7 -12 16 -15 24 -9 28 -7 14 9 -14 17 -30 20 -30 6z"/>
<path d="M6952 2065 c0 -16 2 -22 5 -12 2 9 2 23 0 30 -3 6 -5 -1 -5 -18z"/>
<path d="M2711 2064 c0 -11 3 -14 6 -6 3 7 2 16 -1 19 -3 4 -6 -2 -5 -13z"/>
<path d="M7136 2037 c-5 -21 -6 -41 -2 -44 12 -12 17 5 14 43 l-4 39 -8 -38z"/>
<path d="M7240 2052 c0 -12 19 -26 26 -19 2 2 -2 10 -11 17 -9 8 -15 8 -15 2z"/>
<path d="M6827 2034 c-4 -4 -7 -14 -7 -23 0 -11 3 -12 11 -4 6 6 10 16 7 23
-2 6 -7 8 -11 4z"/>
<path d="M2665 1979 c-11 -17 1 -21 15 -4 8 9 8 15 2 15 -6 0 -14 -5 -17 -11z"/>
<path d="M2730 1986 c0 -2 7 -9 15 -16 9 -7 15 -8 15 -2 0 5 -7 12 -15 16 -8
3 -15 4 -15 2z"/>
<path d="M2689 1953 c-13 -16 -12 -17 4 -4 16 13 21 21 13 21 -2 0 -10 -8 -17
-17z"/>
<path d="M2619 1923 c-13 -16 -12 -17 4 -4 16 13 21 21 13 21 -2 0 -10 -8 -17
-17z"/>
<path d="M2700 1909 c0 -5 5 -7 10 -4 6 3 10 8 10 11 0 2 -4 4 -10 4 -5 0 -10
-5 -10 -11z"/>
<path d="M2555 1870 c-3 -5 -2 -10 4 -10 5 0 13 5 16 10 3 6 2 10 -4 10 -5 0
-13 -4 -16 -10z"/>
<path d="M2650 1865 c-7 -9 -10 -18 -7 -21 3 -3 10 4 17 15 13 25 8 27 -10 6z"/>
<path d="M2605 1819 c-11 -17 1 -21 15 -4 8 9 8 15 2 15 -6 0 -14 -5 -17 -11z"/>
<path d="M6756 1694 c-9 -24 -2 -26 12 -4 7 11 8 20 3 20 -5 0 -12 -7 -15 -16z"/>
<path d="M6637 1531 c-45 -29 -45 -35 1 -12 23 12 42 24 42 26 0 9 -14 4 -43
-14z"/>
<path d="M3494 1036 c-3 -8 2 -29 11 -47 20 -37 21 -143 4 -364 -13 -163 -12
-214 3 -232 16 -20 53 -16 74 8 16 18 19 36 18 124 l-2 103 55 7 c61 7 73 0
73 -44 0 -37 31 -153 47 -177 27 -42 84 -32 83 14 -2 107 -50 287 -82 310 -28
20 -21 43 27 90 63 61 74 122 23 122 -28 0 -115 -70 -159 -127 -18 -23 -36
-40 -41 -37 -5 3 -6 36 -2 73 6 66 6 67 -31 111 -38 47 -74 79 -88 80 -4 0
-10 -6 -13 -14z m102 -109 c11 -20 13 -46 8 -101 -6 -63 -4 -74 11 -79 23 -9
32 -2 54 41 21 41 57 77 115 116 46 31 56 32 56 7 0 -10 -25 -44 -55 -75 -30
-30 -55 -62 -55 -69 0 -7 11 -24 25 -37 31 -29 64 -127 74 -222 9 -79 7 -88
-14 -88 -15 0 -27 37 -51 149 -19 89 -32 101 -102 94 -35 -3 -62 -12 -69 -21
-8 -10 -13 -49 -13 -105 0 -91 -10 -127 -35 -127 -23 0 -28 43 -15 152 6 57
12 176 13 265 2 156 3 161 21 145 10 -9 25 -29 32 -45z"/>
<path d="M7560 1011 c0 -8 10 -25 23 -39 21 -22 22 -32 22 -160 0 -75 -4 -193
-9 -262 l-8 -125 29 -28 c58 -55 83 -15 83 133 0 122 3 130 46 130 44 0 50
-14 58 -125 8 -104 13 -123 34 -147 32 -37 82 -7 82 48 0 47 -48 214 -81 281
l-31 63 45 50 c55 62 62 82 32 110 -23 22 -49 18 -85 -12 -22 -19 -80 -109
-80 -125 0 -17 -19 -17 -25 0 -2 6 -6 47 -9 89 -6 98 -16 118 -61 118 -19 0
-35 4 -35 8 0 5 -7 9 -15 9 -8 0 -15 -7 -15 -16z m105 -99 c4 -31 9 -74 11
-96 5 -47 10 -56 33 -56 12 0 26 18 41 53 47 103 92 143 126 110 13 -14 13
-18 -2 -42 -10 -14 -32 -39 -50 -56 -33 -31 -54 -75 -35 -75 17 0 57 -89 86
-188 27 -92 30 -162 8 -169 -23 -8 -42 44 -54 142 -14 123 -28 155 -69 155
-16 0 -41 -10 -56 -23 -25 -22 -26 -26 -25 -128 2 -136 -6 -160 -43 -123 -18
18 -21 164 -7 290 5 39 5 115 1 170 -3 54 -5 103 -2 107 10 20 31 -20 37 -71z"/>
<path d="M2495 1008 c-17 -5 -59 -7 -95 -6 -61 3 -65 2 -80 -25 -14 -26 -14
-29 4 -43 11 -8 32 -14 48 -14 24 0 28 -4 29 -27 0 -16 0 -134 0 -264 -1 -198
2 -239 14 -249 12 -10 32 -10 92 -1 43 6 103 10 133 8 50 -2 55 0 67 24 20 42
21 126 0 146 -15 15 -21 16 -47 5 -17 -7 -44 -18 -60 -24 -24 -10 -35 -10 -51
0 -19 12 -20 11 -17 -10 2 -19 8 -22 33 -19 16 1 47 12 68 22 29 16 42 17 58
8 17 -9 20 -17 15 -47 -16 -94 -16 -93 -39 -85 -28 10 -107 10 -179 0 l-57 -8
-1 261 c0 165 -4 269 -11 281 -8 16 -17 19 -39 14 -26 -6 -50 8 -33 18 11 7
190 13 196 7 3 -3 7 -14 9 -25 2 -14 -2 -20 -16 -18 -17 1 -18 -8 -14 -183 3
-164 8 -207 22 -193 8 7 8 85 3 214 -6 125 -4 137 26 148 20 8 21 33 3 66 -15
27 -36 32 -81 19z"/>
<path d="M6437 994 c-59 -31 -59 -51 0 -79 l42 -20 -1 -246 c0 -136 3 -252 7
-258 4 -8 44 -11 118 -11 222 3 238 12 219 127 -17 100 -51 119 -85 48 -12
-26 -26 -37 -56 -45 -39 -10 -70 -5 -83 13 -3 6 -6 67 -7 136 0 69 -5 150 -11
180 -5 30 -9 55 -7 57 1 1 14 4 29 6 53 7 69 48 30 80 -13 11 -107 36 -137 37
-5 0 -32 -11 -58 -25z m151 -21 c23 -4 32 -11 32 -24 0 -12 -11 -21 -32 -27
-27 -7 -33 -13 -30 -33 1 -13 6 -106 10 -206 4 -100 11 -185 14 -189 4 -3 33
-7 64 -7 56 -1 59 1 96 44 44 51 52 46 63 -36 11 -88 14 -86 -153 -83 l-146 3
3 260 c2 172 -1 270 -8 289 -11 28 -11 28 21 22 18 -4 48 -9 66 -13z m-118
-12 c13 -25 -2 -36 -30 -21 -23 12 -26 26 -7 33 21 9 26 7 37 -12z"/>
<path d="M5720 979 c-9 -15 -9 -28 0 -50 9 -22 9 -83 0 -269 -6 -132 -8 -249
-5 -260 9 -27 46 -26 74 4 20 21 22 35 24 142 l2 119 32 3 c22 2 38 -3 52 -17
22 -22 24 -36 25 -184 1 -69 10 -86 47 -87 42 0 47 45 28 235 -7 69 -17 116
-26 127 -9 9 -36 20 -62 23 -94 12 -87 5 -88 94 -1 107 -15 141 -59 141 -24 0
-37 -6 -44 -21z m70 -35 c6 -14 10 -59 10 -99 0 -85 4 -90 87 -101 28 -3 55
-9 62 -13 24 -15 55 -311 34 -324 -22 -14 -31 21 -35 130 -3 102 -5 114 -27
137 -18 19 -35 26 -62 26 -61 0 -69 -16 -71 -138 -1 -134 -1 -129 -16 -144
-16 -16 -32 0 -33 32 -1 14 3 90 7 170 11 176 11 297 0 328 -13 34 31 31 44
-4z"/>
<path d="M5445 978 c-44 -4 -110 -9 -147 -9 -75 -1 -84 -7 -93 -65 -11 -64 25
-85 119 -69 33 5 50 4 55 -4 8 -12 6 -132 -4 -327 -4 -89 -2 -114 9 -123 20
-17 59 -4 95 31 l32 31 -2 199 c0 110 2 202 5 205 7 7 35 11 94 12 54 1 85 29
76 69 -16 65 -47 71 -239 50z m199 -34 c19 -19 21 -43 4 -49 -7 -2 -39 -6 -70
-10 -100 -11 -99 -9 -98 -236 0 -174 -2 -199 -17 -217 -10 -12 -27 -22 -38
-24 -17 -3 -20 2 -19 32 1 19 5 116 9 215 7 168 6 181 -11 202 -18 21 -21 21
-72 7 -69 -18 -95 -7 -90 39 3 32 3 32 63 34 33 1 98 6 145 11 136 15 177 14
194 -4z"/>
<path d="M1563 960 c-28 -11 -28 -15 -2 -48 21 -26 21 -32 13 -232 -11 -277
-10 -297 17 -319 18 -14 27 -16 45 -7 40 19 56 66 49 148 -4 40 -3 91 2 113 9
39 9 39 52 38 23 -1 45 -4 49 -7 3 -3 9 -58 14 -122 4 -63 13 -124 18 -135 13
-24 52 -25 73 -1 35 38 17 276 -23 320 -30 32 -87 63 -104 56 -51 -20 -86 25
-85 109 1 85 -43 117 -118 87z m67 -28 c18 -15 23 -32 29 -97 5 -72 8 -81 31
-92 14 -7 48 -13 75 -13 33 -1 57 -7 72 -19 36 -30 55 -105 55 -210 -1 -101
-11 -126 -39 -99 -12 13 -17 42 -21 125 -5 120 -16 148 -63 158 -33 7 -95 -10
-102 -28 -2 -7 -5 -66 -6 -132 -1 -95 -5 -122 -17 -132 -44 -33 -55 27 -41
237 8 126 5 256 -8 298 -9 27 5 29 35 4z"/>
<path d="M1436 953 c-3 -3 -99 -6 -213 -7 l-208 -1 -8 -48 c-5 -33 -4 -56 5
-75 12 -25 18 -27 86 -30 59 -2 72 -6 73 -20 1 -9 1 -103 -1 -209 -2 -187 -1
-192 20 -203 27 -15 73 -5 96 22 17 18 19 39 19 217 l0 196 95 5 95 5 5 40 c9
65 -1 98 -32 106 -15 4 -29 5 -32 2z m35 -50 c6 -6 9 -26 7 -44 l-3 -34 -87 3
c-122 3 -123 3 -116 -211 6 -203 3 -222 -37 -222 l-30 0 -1 203 c0 166 -3 205
-15 213 -8 5 -42 9 -77 9 -58 0 -63 2 -73 26 -17 47 -4 63 54 66 115 7 369 0
378 -9z"/>
<path d="M8918 929 c-34 -25 -35 -45 -6 -76 31 -33 35 -120 13 -306 -18 -159
-14 -182 30 -193 14 -3 31 -1 39 5 22 19 36 110 39 268 2 84 5 154 7 157 3 2
22 7 43 11 33 7 37 5 37 -15 0 -34 19 -60 44 -60 30 0 36 16 36 100 0 74 -17
107 -49 95 -9 -4 -45 -11 -81 -15 -63 -9 -66 -8 -95 20 l-30 29 -27 -20z m42
-18 c0 -5 7 -16 15 -24 17 -17 124 -13 162 5 13 6 26 9 29 5 3 -3 8 -40 10
-81 2 -58 0 -76 -11 -76 -16 0 -25 22 -25 61 0 26 -3 29 -21 24 -11 -4 -36 -8
-55 -10 -19 -1 -37 -4 -39 -7 -3 -2 -7 -81 -10 -174 -7 -213 -12 -251 -32
-258 -39 -15 -53 34 -38 134 3 19 10 95 15 169 10 133 10 135 -15 179 -14 24
-22 48 -19 53 7 12 34 12 34 0z"/>
<path d="M8355 879 c-35 -18 -37 -19 -10 -14 121 25 137 16 161 -91 30 -135 9
-290 -46 -339 -16 -15 -26 -16 -59 -8 -21 6 -44 7 -50 3 -8 -4 -13 -61 -17
-156 -5 -174 -8 -186 -37 -182 -18 2 -23 11 -27 51 -6 44 1 166 14 267 10 79
15 142 22 266 6 104 4 125 -11 158 -18 37 -40 55 -52 42 -4 -3 4 -18 18 -32
23 -25 24 -30 22 -168 -1 -79 -6 -178 -13 -222 -38 -274 -29 -402 29 -387 42
11 50 43 53 200 3 126 5 147 18 144 122 -29 173 50 171 266 0 78 -24 177 -49
206 -21 23 -86 22 -137 -4z"/>
<path d="M8617 889 c-10 -6 -25 -8 -33 -5 -18 7 -18 4 7 -45 20 -38 21 -50 15
-157 -4 -65 -9 -140 -12 -169 -9 -86 39 -142 105 -123 48 13 91 43 96 65 22
109 39 346 29 402 -8 41 -28 52 -54 28 -24 -21 -29 -62 -34 -239 -3 -121 -6
-141 -22 -153 -45 -33 -69 6 -54 88 6 29 10 105 10 170 0 94 -3 121 -16 133
-8 9 -16 16 -17 16 -1 0 -10 -5 -20 -11z m187 -128 c-2 -154 -11 -261 -23
-294 -11 -30 -62 -57 -104 -57 -45 0 -62 33 -59 118 1 42 7 111 12 153 10 72
6 122 -15 172 -5 13 -2 17 13 17 12 0 23 -9 27 -20 8 -25 -2 -234 -14 -282
-13 -56 13 -104 54 -100 53 6 55 14 61 201 4 168 13 217 37 208 8 -3 12 -38
11 -116z"/>
<path d="M4022 860 c-44 -27 -75 -77 -80 -129 -3 -40 0 -52 22 -78 15 -18 41
-35 59 -38 56 -12 85 -33 92 -64 16 -72 -55 -98 -110 -41 -33 35 -46 37 -68
12 -27 -29 -21 -70 14 -103 26 -24 39 -29 84 -29 76 0 112 16 142 63 22 34 25
49 21 103 -5 78 -28 107 -99 125 -65 17 -84 37 -68 73 15 33 29 33 59 1 28
-30 53 -32 80 -5 27 27 25 44 -7 80 -38 41 -101 54 -141 30z m81 -24 c38 -16
71 -51 62 -65 -10 -18 -35 -13 -67 14 -36 30 -60 22 -85 -30 -16 -33 -15 -36
2 -55 10 -11 37 -25 59 -31 69 -17 106 -60 106 -122 0 -83 -49 -137 -125 -137
-48 0 -114 45 -115 78 0 25 29 23 69 -6 36 -26 46 -29 74 -21 17 5 33 9 35 9
2 0 9 14 16 31 26 63 -3 105 -94 136 -47 17 -57 24 -69 56 -12 34 -12 42 4 78
19 42 57 79 82 79 7 0 28 -6 46 -14z"/>
<path d="M7989 842 c-41 -37 -43 -42 -43 -95 -1 -65 22 -98 90 -128 54 -24 66
-40 62 -81 -3 -30 -6 -33 -39 -36 -23 -2 -40 2 -49 12 -17 21 -33 20 -53 -2
-51 -56 26 -148 106 -128 80 20 141 107 133 191 -8 93 -22 110 -115 133 -45
10 -62 36 -39 58 15 16 18 15 44 -5 34 -27 50 -27 68 2 22 33 9 73 -31 97 -51
30 -84 26 -134 -18z m120 3 c18 -9 31 -25 34 -42 8 -43 -9 -51 -43 -18 l-30
29 -28 -21 c-31 -23 -39 -54 -18 -75 8 -8 39 -23 71 -32 75 -24 89 -47 82
-132 -4 -54 -10 -71 -33 -96 -56 -59 -111 -67 -159 -22 -27 25 -30 40 -15 64
8 12 11 12 28 -3 29 -27 86 -22 111 9 25 32 27 76 5 99 -9 9 -37 26 -63 40
-52 26 -68 48 -77 102 -5 30 -1 44 16 66 36 46 74 56 119 32z"/>
<path d="M3350 840 c-50 -33 -77 -37 -106 -15 -25 19 -58 19 -74 0 -11 -14
-15 -14 -29 -1 -11 10 -21 12 -31 5 -12 -8 -10 -13 13 -30 49 -37 60 -79 65
-247 4 -141 6 -153 25 -167 44 -30 82 -7 97 60 9 39 -2 153 -21 223 -14 51 -5
62 49 62 27 0 32 -4 32 -24 0 -46 74 -46 86 -1 9 36 -34 165 -55 165 -3 0 -26
-14 -51 -30z m68 -42 c25 -92 26 -98 6 -98 -11 0 -27 14 -36 31 -16 28 -21 29
-55 23 -78 -14 -79 -17 -57 -114 22 -97 11 -240 -19 -240 -33 1 -37 17 -41
162 -3 121 -8 154 -25 194 -17 37 -19 49 -9 56 21 13 37 9 58 -12 25 -25 53
-21 104 14 22 14 44 26 50 26 6 0 17 -19 24 -42z"/>
<path d="M7290 853 c-11 -8 -27 -12 -35 -9 -19 7 -47 -3 -39 -15 3 -5 13 -9
23 -9 40 0 44 -23 46 -222 1 -174 3 -192 20 -204 26 -19 37 -18 64 8 23 21 24
23 18 178 l-6 158 38 14 c36 14 39 14 65 -8 15 -13 31 -24 35 -24 17 0 33 30
26 47 -4 10 -9 31 -10 47 -2 15 -10 35 -18 43 -13 13 -20 13 -62 -6 -56 -25
-78 -26 -94 -7 -18 21 -48 25 -71 9z m63 -33 l26 -20 51 20 c28 11 56 20 63
20 13 0 40 -80 30 -90 -2 -3 -14 6 -24 19 l-20 24 -57 -19 -57 -19 3 -160 c2
-88 -1 -166 -6 -174 -6 -8 -17 -11 -31 -6 -20 6 -21 14 -22 118 -2 175 -5 229
-13 270 -7 33 -6 37 12 37 10 0 31 -9 45 -20z"/>
<path d="M6994 848 c-55 -12 -96 -50 -92 -85 5 -43 32 -52 78 -25 51 29 66 28
76 -5 13 -46 11 -48 -49 -49 -59 0 -62 -2 -104 -63 -12 -17 -17 -44 -17 -92 0
-75 17 -110 66 -138 23 -13 30 -13 67 4 41 18 42 18 85 -4 34 -17 49 -19 70
-12 33 13 44 53 22 85 -13 20 -14 44 -9 138 3 70 1 128 -6 153 -21 79 -92 114
-187 93z m140 -60 l29 -32 -6 -136 c-5 -108 -3 -143 9 -165 8 -15 14 -34 14
-41 0 -21 -43 -17 -73 6 -30 24 -60 26 -77 5 -29 -35 -94 -3 -110 54 -15 55
-12 98 10 141 21 42 24 43 105 44 49 1 50 2 53 34 7 73 -47 103 -113 62 -29
-18 -34 -18 -45 -5 -11 13 -9 19 6 36 27 30 51 37 114 32 46 -4 60 -9 84 -35z"/>
<path d="M7080 625 c0 -15 -20 -19 -68 -15 -38 3 -62 -27 -62 -76 0 -103 124
-116 155 -16 8 29 -4 122 -16 122 -5 0 -9 -7 -9 -15z m-12 -44 c18 -1 15 -76
-4 -95 -8 -9 -26 -16 -39 -16 -35 0 -55 26 -55 70 0 42 9 49 55 44 17 -1 36
-3 43 -3z"/>
<path d="M8385 831 c-18 -7 -20 -18 -21 -170 -1 -148 1 -163 17 -172 25 -13
64 13 78 52 12 35 3 268 -12 287 -11 13 -32 15 -62 3z m54 -23 c4 -12 9 -75
10 -140 2 -114 1 -119 -24 -144 -14 -14 -29 -23 -33 -20 -5 3 -8 73 -7 156 2
118 5 154 16 161 21 13 29 11 38 -13z"/>
<path d="M2804 822 c-6 -4 -14 -19 -17 -33 -10 -41 18 -60 87 -58 62 2 71 -3
81 -42 9 -35 -7 -43 -52 -28 -31 10 -41 9 -67 -5 -62 -33 -82 -115 -55 -223
10 -36 18 -48 42 -58 31 -13 44 -12 84 7 17 8 28 7 47 -6 31 -20 49 -20 89 -2
18 8 41 17 52 20 18 6 17 9 -9 30 -27 21 -29 26 -22 72 24 178 17 239 -35 299
l-31 35 -92 0 c-50 0 -96 -4 -102 -8z m180 -32 c14 -5 35 -24 46 -42 19 -31
20 -44 15 -192 -3 -88 -7 -162 -10 -165 -3 -3 -30 3 -60 14 -43 14 -57 16 -69
6 -8 -7 -29 -11 -47 -9 -27 4 -34 10 -46 43 -14 41 -20 146 -9 164 4 6 23 18
42 26 31 13 40 13 68 1 39 -16 52 -11 61 27 17 65 -22 100 -102 91 -48 -6 -72
8 -54 30 16 18 123 22 165 6z"/>
<path d="M2849 569 c-13 -25 -7 -93 11 -114 36 -43 97 4 106 82 l6 50 -55 2
c-48 1 -58 -2 -68 -20z m91 -37 c0 -48 -59 -85 -74 -46 -19 50 4 85 50 76 18
-3 24 -11 24 -30z"/>
<path d="M6165 788 c-32 -18 -66 -51 -81 -81 -19 -35 -20 -175 -2 -237 11 -38
20 -48 57 -67 68 -35 125 -11 168 69 18 33 20 45 11 64 -15 32 -41 30 -70 -5
-49 -58 -98 -48 -98 19 l0 37 65 -1 c53 0 67 3 80 19 42 54 40 102 -7 159 -24
30 -36 36 -66 36 -20 0 -46 -6 -57 -12z m107 -42 c34 -42 40 -72 21 -108 -14
-29 -13 -29 -128 -32 l-40 -1 2 -40 c4 -73 10 -84 50 -91 35 -7 40 -4 73 35
41 48 50 50 50 15 0 -30 -16 -63 -43 -86 -22 -20 -87 -24 -117 -8 -29 16 -53
110 -48 191 3 64 6 71 42 108 36 37 54 46 96 50 8 0 27 -14 42 -33z"/>
<path d="M6172 724 c-13 -9 -28 -28 -33 -42 -15 -40 5 -53 70 -45 42 5 55 11
63 29 8 18 7 29 -6 49 -19 29 -60 33 -94 9z m78 -22 c0 -27 -20 -42 -57 -42
-36 0 -42 14 -16 42 22 24 73 24 73 0z"/>
<path d="M2115 761 c-79 -36 -125 -115 -125 -216 0 -123 60 -195 164 -195 37
0 51 6 80 34 37 34 44 62 25 98 -13 24 -54 20 -97 -12 -17 -12 -35 -18 -49
-14 -26 7 -43 51 -32 81 7 19 14 21 91 20 46 -1 89 2 96 6 17 12 15 102 -4
142 -32 67 -83 87 -149 56z m113 -36 c23 -29 39 -122 25 -136 -6 -6 -46 -9
-91 -7 -63 2 -80 6 -73 16 9 15 84 19 120 7 23 -8 24 -7 18 30 -15 92 -123
104 -141 15 -3 -14 -10 -41 -15 -60 -22 -71 -11 -129 29 -150 15 -8 30 -5 70
16 27 14 57 24 65 20 23 -9 18 -44 -11 -71 -34 -32 -83 -33 -135 -3 -58 33
-77 72 -75 154 3 117 63 193 153 194 33 0 46 -5 61 -25z m-46 -52 c26 -23 24
-47 -4 -39 -13 3 -33 6 -45 6 -22 0 -32 27 -16 43 12 12 46 7 65 -10z"/>
<path d="M4293 493 c-13 -9 -20 -93 -10 -110 9 -15 77 -5 96 12 18 17 17 63 0
81 -18 17 -70 27 -86 17z m67 -38 c17 -21 8 -50 -18 -53 -38 -6 -49 3 -44 37
3 24 9 31 27 31 12 0 28 -7 35 -15z"/>
<path d="M9106 483 c-3 -4 -6 -28 -6 -54 0 -51 8 -59 61 -59 16 0 31 6 33 13
11 34 14 74 6 86 -8 14 -83 25 -94 14z m72 -45 c-2 -28 -7 -33 -28 -33 -31 0
-40 33 -14 52 31 23 46 16 42 -19z"/>
</g>
</svg>
