<?xml version="1.0" encoding="utf-8"?>
<svg xmlns="http://www.w3.org/2000/svg" height="368.0pt" version="1.1" width="1000.0pt" viewBox="0 0 1000 368">
	<path d="M 0.00 0.00 L 1000.00 0.00 L 1000.00 368.00 L 0.00 368.00 L 0.00 0.00 Z" fill="#ffffff"/>
	<path d="M 342.98 13.50 C 348.55 12.86 354.52 14.67 359.99 15.94 C 365.80 17.43 368.82 21.56 374.27 24.30 C 381.67 28.41 384.68 34.86 390.31 40.69 C 396.87 47.97 401.35 56.86 407.96 64.02 C 411.95 68.56 415.89 73.66 420.43 77.62 C 423.26 79.73 426.56 81.23 429.54 83.13 C 429.42 80.47 429.27 77.93 429.60 75.29 C 433.23 75.49 435.80 77.41 438.68 79.40 C 439.02 78.42 439.38 77.44 439.73 76.47 C 441.55 77.82 443.35 79.21 445.10 80.67 C 445.71 79.76 446.36 78.89 447.05 78.04 C 452.15 82.19 457.42 86.29 461.98 91.03 C 463.54 92.45 463.65 94.12 463.99 96.09 C 466.04 98.78 467.91 101.49 469.57 104.45 C 472.47 110.19 479.55 113.40 484.45 117.53 C 491.53 123.66 497.58 131.70 501.24 140.33 C 499.68 139.80 498.13 139.40 496.72 138.53 C 494.53 136.68 493.68 134.25 490.94 133.05 C 486.14 130.64 482.11 127.08 477.34 124.60 C 474.19 122.76 470.58 121.70 467.64 119.58 L 467.58 118.15 C 469.42 118.60 471.22 119.16 473.03 119.72 C 470.53 118.08 468.13 117.17 467.28 113.97 C 475.62 117.77 483.61 122.43 491.05 127.79 C 484.91 121.84 478.79 116.05 471.63 111.31 C 465.93 107.62 465.27 101.95 460.98 97.06 C 459.29 95.12 457.38 92.51 454.82 91.75 C 450.33 90.34 445.76 88.94 441.24 87.60 C 440.59 85.75 439.56 84.23 438.17 83.05 L 438.60 87.22 C 434.47 86.73 430.58 86.27 426.94 84.09 C 423.66 82.07 419.99 80.45 417.03 77.97 C 412.59 74.02 408.30 70.01 404.95 65.05 C 399.50 58.64 395.09 51.57 390.23 44.72 C 387.63 41.29 384.30 38.61 381.89 35.08 C 379.72 31.96 377.12 29.19 373.84 27.22 C 368.97 24.24 364.01 20.31 358.43 18.90 C 354.82 17.92 350.79 16.66 347.03 16.90 C 339.81 17.40 333.03 16.72 325.97 18.77 C 316.28 21.75 307.21 25.76 299.57 32.58 C 296.07 35.96 291.84 37.90 288.83 41.86 C 280.97 52.29 277.50 64.23 275.50 76.96 C 275.08 83.59 272.40 89.14 273.36 95.94 C 274.45 101.88 273.91 107.90 275.09 113.83 C 276.74 122.38 277.95 130.83 281.19 138.99 C 284.77 148.56 289.68 160.39 298.24 166.56 C 298.88 169.16 299.58 171.65 301.18 173.85 C 305.09 179.26 309.21 184.54 313.16 189.92 C 315.15 192.60 317.56 194.79 319.41 197.60 C 321.52 200.71 322.92 204.08 324.72 207.33 C 326.08 209.72 328.03 211.25 329.73 213.32 C 330.87 214.88 331.30 216.91 332.44 218.49 C 333.83 220.21 336.26 221.07 337.55 222.87 C 338.01 225.17 338.07 227.83 334.96 227.68 C 330.46 225.06 327.25 220.32 327.37 214.99 C 326.96 214.72 326.55 214.45 326.13 214.18 C 324.12 214.62 322.12 216.42 320.41 214.52 C 318.59 213.16 319.49 210.44 319.44 208.51 C 321.15 210.07 322.81 211.69 324.49 213.29 C 323.04 210.76 321.74 208.10 320.11 205.69 C 316.65 200.69 311.40 196.96 308.04 191.94 C 304.69 187.00 300.57 182.72 297.38 177.67 C 291.76 169.00 285.41 160.66 280.60 151.52 C 278.22 146.23 276.99 140.45 274.88 135.03 C 272.75 129.87 272.59 124.47 271.12 119.03 C 269.44 113.09 270.14 107.21 269.37 101.18 C 268.32 93.05 270.26 84.04 271.56 76.02 C 272.57 66.03 277.88 56.15 282.02 47.04 C 284.84 40.69 289.50 36.14 294.19 31.18 C 297.80 27.60 302.43 25.70 306.74 22.75 C 309.91 20.54 313.41 19.39 316.96 17.98 C 324.96 14.45 334.32 13.43 342.98 13.50 Z"/>
	<path d="M 680.00 15.68 C 688.95 15.16 698.97 17.93 707.80 19.28 C 711.67 20.05 715.26 20.17 718.77 22.15 C 722.84 24.29 726.86 25.49 730.18 28.82 C 732.27 31.12 735.10 33.04 734.34 36.55 C 730.66 34.95 729.34 31.42 725.98 29.05 C 720.85 25.73 715.74 22.87 709.48 22.58 C 711.53 23.99 713.65 24.99 716.00 25.79 C 720.28 29.46 724.62 32.60 727.24 37.77 C 727.18 39.69 727.17 41.60 727.17 43.52 C 727.89 43.93 728.61 44.35 729.33 44.76 C 729.07 46.08 728.80 47.39 728.54 48.70 C 727.81 48.44 727.08 48.17 726.36 47.90 C 726.42 46.91 726.49 45.92 726.55 44.93 C 725.95 44.38 725.34 43.83 724.74 43.27 C 724.53 40.97 724.90 37.68 723.17 35.88 C 720.68 33.08 717.61 30.80 714.93 28.17 C 712.61 27.51 710.43 27.14 708.49 25.59 C 705.83 23.57 703.66 21.46 700.16 21.12 C 692.09 19.98 682.85 17.37 674.94 19.67 C 671.88 20.36 668.97 20.21 666.02 21.21 C 654.91 25.35 644.62 29.69 635.57 37.57 C 630.08 42.53 625.82 48.45 620.95 53.98 C 615.38 61.11 612.00 69.36 605.65 75.96 C 605.75 79.83 601.37 81.49 598.99 83.98 C 594.41 88.62 588.56 90.87 583.45 94.73 C 583.06 94.06 582.59 93.46 582.07 92.92 C 580.47 94.45 579.44 96.68 578.35 98.58 C 579.83 97.23 581.05 95.61 582.58 94.33 C 584.11 94.90 584.42 98.29 584.60 99.71 C 583.72 98.81 582.85 97.90 581.98 96.98 C 581.63 97.98 578.85 101.08 580.88 101.38 C 583.52 100.80 586.04 99.81 588.68 99.18 C 584.53 102.86 579.85 103.43 574.90 105.66 C 576.05 104.11 577.25 102.60 578.30 100.98 C 576.54 101.81 574.86 102.78 573.13 103.67 C 574.73 100.99 576.40 98.36 577.99 95.68 C 570.52 101.74 561.57 106.41 555.82 113.86 C 552.16 117.71 548.27 121.46 544.39 125.09 C 542.56 125.42 540.77 125.84 538.98 126.35 C 538.46 127.68 537.99 129.08 537.29 130.32 C 535.14 132.55 532.53 132.70 529.61 132.80 C 528.65 133.89 527.68 134.99 526.70 136.07 C 527.27 134.19 527.66 132.39 528.90 130.82 C 531.04 127.47 535.76 126.63 538.83 123.93 C 546.82 117.22 554.61 110.36 563.13 104.29 C 564.22 99.21 568.46 96.54 572.26 93.46 C 576.28 90.71 579.27 86.92 583.48 84.51 C 582.78 86.39 582.04 88.14 580.57 89.57 C 575.82 94.20 570.06 97.81 565.40 102.52 C 570.16 100.27 573.81 96.39 578.57 94.06 C 580.03 92.34 581.52 90.64 583.03 88.97 C 583.68 89.55 584.33 90.13 584.98 90.71 C 589.76 87.09 595.20 83.65 599.24 79.26 C 603.62 74.41 608.32 70.34 611.50 64.52 C 616.66 55.03 623.42 46.67 630.95 38.96 C 634.12 34.81 638.43 32.52 642.64 29.61 C 648.45 25.81 655.06 23.14 661.45 20.46 C 667.44 18.10 673.79 17.45 680.00 15.68 Z"/>
	<path d="M 338.97 25.19 C 347.70 23.33 357.62 26.83 365.47 30.56 C 374.71 35.13 380.38 42.55 386.50 50.51 C 394.25 61.36 402.15 72.09 410.67 82.35 C 412.46 84.56 414.62 86.40 416.48 88.54 C 418.49 90.87 418.96 93.63 421.40 95.62 C 424.69 98.35 427.63 101.32 430.64 104.33 C 434.33 107.32 438.74 109.75 442.95 111.93 C 449.66 114.47 457.29 117.07 464.53 116.67 C 465.19 117.49 465.83 118.33 466.45 119.17 C 465.30 119.87 464.15 120.17 463.00 120.07 C 457.47 119.50 452.02 118.32 446.83 116.28 C 434.61 112.01 423.91 103.15 415.35 93.63 C 410.25 85.84 403.18 79.69 398.10 71.83 C 394.83 67.69 391.64 63.66 388.83 59.17 C 384.20 53.20 379.84 46.86 374.56 41.44 C 371.93 39.02 368.86 37.26 366.54 34.46 C 362.39 32.96 358.21 31.39 353.98 30.15 C 348.46 28.28 341.96 29.24 336.24 29.75 C 330.85 32.27 324.51 34.13 320.20 38.19 C 318.19 39.99 316.00 41.31 314.91 43.85 C 312.90 47.96 313.01 52.52 312.92 57.00 C 312.81 63.14 314.27 69.49 317.27 74.85 C 318.45 77.01 320.55 78.06 322.53 79.38 C 325.20 81.00 327.73 82.79 330.20 84.69 C 336.16 89.34 344.28 91.99 349.41 97.59 C 351.07 99.34 352.64 100.96 355.03 101.67 C 362.30 104.32 368.40 108.60 374.12 113.73 C 377.31 115.99 380.73 117.87 383.96 120.05 C 387.22 122.72 389.98 126.04 392.93 129.05 C 397.02 133.37 398.62 138.61 402.13 143.34 C 403.10 142.93 404.06 142.50 405.02 142.08 C 412.20 149.95 420.69 158.69 424.30 168.82 C 426.28 173.16 428.75 177.01 429.63 181.80 C 430.28 185.36 431.44 188.74 432.35 192.23 C 433.16 194.78 430.76 197.25 431.20 199.97 C 431.46 203.36 432.88 207.11 432.26 210.46 C 431.62 213.44 431.49 216.15 428.71 218.03 C 428.31 214.00 428.54 210.00 428.71 205.96 C 428.86 202.59 427.88 199.43 427.69 196.01 C 427.34 192.10 428.23 188.77 427.37 184.97 C 426.92 182.53 425.97 180.30 424.78 178.14 C 421.11 171.43 419.28 164.64 414.31 158.64 C 410.36 153.90 406.91 149.20 403.70 143.93 C 402.86 144.30 402.02 144.69 401.18 145.08 C 400.68 145.15 400.18 145.23 399.68 145.30 C 394.51 137.12 389.06 129.68 381.24 123.82 C 372.38 118.42 364.25 111.96 355.36 106.60 C 354.97 106.10 354.57 105.60 354.17 105.11 C 352.38 104.56 350.71 104.01 349.27 102.76 C 345.18 99.42 340.34 97.00 335.83 94.25 C 331.77 92.19 328.15 89.90 325.33 86.25 L 326.74 89.50 C 323.26 87.71 319.68 85.82 317.54 82.41 C 314.56 78.02 311.57 73.08 310.01 67.99 C 308.80 61.53 308.23 55.15 309.54 48.64 C 310.27 44.52 313.10 40.74 315.16 37.08 C 319.65 28.92 330.22 25.60 338.97 25.19 Z"/>
	<path d="M 673.80 26.80 C 673.47 27.34 673.13 27.88 672.80 28.42 C 666.21 29.58 660.09 33.81 654.56 37.41 C 654.12 37.11 653.68 36.82 653.25 36.53 C 659.06 31.74 666.21 27.68 673.80 26.80 Z"/>
	<path d="M 691.69 31.64 C 687.52 30.48 683.30 29.91 679.07 29.06 C 682.57 26.42 688.97 28.50 691.69 31.64 Z"/>
	<path d="M 702.26 31.10 C 706.98 34.76 709.70 40.97 709.90 46.87 C 706.90 44.24 706.85 40.81 704.73 37.33 C 703.67 35.17 702.01 33.61 702.26 31.10 Z"/>
	<path d="M 711.93 31.70 C 713.76 32.33 715.15 33.15 716.30 34.73 C 718.88 37.61 717.25 42.49 718.50 46.19 C 719.86 51.23 720.99 55.82 717.59 60.36 C 717.14 56.27 717.61 52.20 717.09 48.12 C 716.70 44.68 715.80 41.42 715.15 38.04 C 713.98 35.96 712.81 33.92 711.93 31.70 Z"/>
	<path d="M 695.43 37.58 C 698.02 39.18 699.37 41.54 701.03 43.98 C 703.46 47.70 706.02 50.93 706.78 55.46 C 708.85 63.40 705.70 71.33 703.59 78.90 C 699.28 88.03 692.37 93.57 684.78 99.83 C 679.44 103.54 673.94 106.97 668.49 110.53 C 659.04 117.43 648.58 122.44 638.81 128.83 C 632.51 133.26 625.75 136.94 619.74 141.74 C 616.72 144.10 613.25 145.91 610.48 148.49 C 606.03 152.39 602.59 157.21 598.11 161.10 C 595.35 163.51 594.33 166.61 592.65 169.77 C 591.47 172.12 589.72 174.08 588.47 176.37 C 586.65 180.13 586.33 184.12 585.02 187.94 C 583.98 190.97 582.80 193.75 582.56 196.99 C 582.25 201.97 580.64 206.45 581.64 211.51 C 584.84 208.30 586.82 204.22 589.97 200.99 C 596.06 194.88 602.43 188.94 608.24 182.56 C 608.41 181.74 608.59 180.93 608.78 180.11 C 609.22 179.52 609.67 178.93 610.12 178.33 C 610.78 174.13 611.89 171.47 614.99 168.54 C 614.39 171.31 613.40 173.93 612.39 176.56 C 613.79 175.63 615.19 174.70 616.60 173.80 C 615.53 175.44 614.44 177.07 613.42 178.75 C 616.59 177.05 618.12 175.17 619.73 172.03 C 624.44 168.01 628.82 163.67 633.76 159.90 C 631.31 155.75 634.18 152.80 634.89 148.51 C 628.36 152.76 622.34 158.35 616.69 163.66 C 612.45 167.09 608.68 170.99 604.91 174.91 C 601.79 178.30 599.16 181.80 595.38 184.56 C 596.31 182.09 597.46 180.19 599.29 178.30 C 603.20 174.21 606.92 169.94 610.86 165.88 C 614.55 162.01 618.91 159.42 622.96 155.96 C 626.04 153.32 629.18 150.88 632.49 148.55 C 639.72 143.33 647.35 137.10 655.68 133.79 C 652.47 137.80 646.94 139.89 642.78 142.82 C 637.14 145.80 635.27 153.98 633.99 159.69 C 639.47 156.25 644.83 150.50 651.22 149.16 C 649.52 151.51 647.35 153.30 644.99 154.95 C 640.47 158.08 636.68 162.03 632.23 165.24 C 626.08 169.35 621.24 176.02 616.75 181.85 C 614.20 185.87 611.83 190.11 609.51 194.27 C 606.86 200.76 602.80 206.24 600.99 213.12 C 605.30 208.93 609.74 203.37 615.21 200.77 C 611.36 206.43 605.69 210.81 601.09 215.58 C 599.73 221.97 598.71 228.55 597.66 235.00 C 596.76 240.17 594.26 244.82 593.54 250.06 C 597.42 245.47 600.13 239.97 604.29 235.65 C 603.25 240.50 600.15 243.57 597.95 247.83 C 596.47 250.64 595.12 253.52 593.58 256.29 C 592.54 254.58 591.42 253.12 591.25 251.05 C 590.79 247.17 592.45 244.14 593.37 240.51 C 595.07 232.44 594.69 223.83 596.87 215.92 C 599.18 208.63 602.54 201.55 605.50 194.50 C 607.69 189.16 611.13 184.93 613.94 179.88 C 608.04 183.91 604.32 189.40 599.46 194.47 C 596.86 197.21 594.29 199.96 591.77 202.77 C 586.74 207.46 585.70 214.35 581.01 219.47 L 579.00 219.48 C 578.35 212.59 577.87 205.93 578.77 199.03 C 579.46 193.21 581.30 187.76 582.46 182.00 C 583.50 176.77 586.87 173.57 589.16 168.73 C 590.67 165.22 593.00 162.34 595.49 159.49 C 607.99 144.47 626.49 133.22 642.81 122.73 C 653.21 116.64 663.54 110.53 673.25 103.37 C 681.48 97.71 689.21 92.65 695.67 84.78 C 698.06 81.37 700.03 77.62 701.98 73.95 C 704.65 67.49 705.05 60.29 703.26 53.55 C 701.87 49.97 699.54 46.69 697.41 43.51 C 696.22 41.61 693.92 40.80 691.99 39.86 C 689.49 38.86 686.73 37.30 684.02 37.21 C 667.75 36.76 651.66 42.62 639.46 53.40 C 634.10 58.41 628.79 63.43 624.06 69.06 C 617.59 77.36 610.69 85.89 602.65 92.71 C 598.91 95.72 596.60 99.21 591.34 99.43 C 595.34 96.03 599.46 92.83 603.25 89.18 C 609.42 84.15 613.50 77.68 618.92 71.94 C 622.66 66.72 626.61 61.86 631.59 57.74 C 632.00 56.40 632.41 55.06 632.84 53.72 C 633.76 53.67 634.69 53.62 635.61 53.57 C 640.44 49.27 645.33 45.16 651.06 42.10 C 658.24 37.97 665.93 35.97 673.99 34.36 C 681.37 33.06 688.86 33.88 695.43 37.58 Z"/>
	<path d="M 698.57 34.69 C 701.67 36.03 703.26 38.42 704.56 41.43 C 701.64 39.86 699.63 37.90 698.57 34.69 Z"/>
	<path d="M 650.95 37.20 C 648.11 40.66 644.50 43.67 640.42 45.55 C 643.25 41.95 646.91 39.29 650.95 37.20 Z"/>
	<path d="M 720.13 37.05 L 721.78 37.31 C 722.37 39.57 722.51 41.97 722.66 44.30 C 721.91 44.17 721.17 44.00 720.44 43.79 C 720.03 41.58 719.96 39.29 720.13 37.05 Z"/>
	<path d="M 727.79 37.62 C 730.88 38.25 731.67 41.70 733.03 44.09 C 735.04 48.62 738.26 52.33 739.18 57.00 C 740.33 62.06 742.33 66.82 743.18 71.97 C 744.69 81.92 745.80 91.91 745.56 101.99 C 746.09 113.08 744.58 123.96 744.18 135.02 C 743.11 144.93 739.96 154.90 736.46 164.21 C 735.04 168.03 732.89 171.42 730.58 174.75 C 727.93 178.41 727.15 182.84 724.49 186.49 C 719.91 193.06 716.02 199.73 710.55 205.50 C 703.29 212.50 695.45 219.21 687.77 225.77 C 683.59 228.92 680.28 232.87 676.44 236.38 C 673.30 239.32 669.18 240.13 665.89 242.88 C 664.54 243.70 662.88 245.62 661.29 244.15 C 663.97 241.48 666.74 239.00 670.13 237.26 C 674.87 234.79 678.63 230.29 682.73 226.72 C 688.43 221.39 695.11 217.10 700.52 211.49 C 703.49 208.18 707.49 205.74 710.08 202.16 C 716.78 191.87 724.12 182.73 729.59 171.52 C 732.78 164.86 735.91 158.51 737.29 151.19 C 739.86 141.63 741.28 131.89 741.80 122.01 C 743.12 113.66 743.06 105.39 742.55 96.99 C 742.75 90.41 741.77 84.03 741.32 77.50 C 739.52 69.77 737.07 62.25 735.14 54.57 C 732.83 48.43 728.68 43.92 727.79 37.62 Z"/>
	<path d="M 640.21 45.70 C 638.01 48.06 635.46 49.97 633.02 52.07 C 629.58 55.03 627.75 59.23 624.18 62.13 C 625.71 54.56 633.59 48.73 640.21 45.70 Z"/>
	<path d="M 727.54 57.64 C 727.71 61.21 727.74 62.53 724.75 64.77 C 725.19 61.95 724.99 59.46 727.54 57.64 Z"/>
	<path d="M 725.49 67.44 C 724.58 69.64 724.98 71.43 722.22 71.83 C 721.87 68.77 723.30 68.90 725.49 67.44 Z"/>
	<path d="M 722.34 73.10 C 724.18 77.45 724.29 83.45 720.16 86.54 C 720.27 84.43 720.51 82.34 720.83 80.25 C 719.68 80.72 718.53 81.18 717.37 81.64 C 719.11 78.83 720.95 76.11 722.34 73.10 Z"/>
	<path d="M 711.86 75.57 C 712.07 79.83 711.46 81.72 708.14 84.37 C 708.55 81.02 709.15 77.86 711.86 75.57 Z"/>
	<path d="M 443.47 81.76 C 445.93 83.28 448.17 85.10 450.43 86.90 C 450.89 86.12 451.34 85.34 451.80 84.56 C 454.08 86.99 456.50 89.03 459.18 90.99 C 455.86 89.23 452.65 87.92 448.90 87.39 C 447.13 85.46 445.26 83.65 443.47 81.76 Z" fill="#ffffff"/>
	<path d="M 734.16 87.92 C 735.16 88.73 735.42 89.13 735.21 90.40 C 734.79 92.76 734.23 95.10 733.70 97.44 C 732.84 97.42 731.99 97.39 731.13 97.37 C 732.04 94.21 732.84 90.94 734.16 87.92 Z"/>
	<path d="M 707.84 92.70 C 706.94 95.17 705.76 97.51 704.75 99.93 C 704.17 100.21 703.60 100.49 703.02 100.78 C 701.15 102.44 700.22 103.86 697.39 103.37 C 697.97 101.62 699.05 100.55 700.33 99.28 C 702.94 96.79 704.13 93.81 707.84 92.70 Z"/>
	<path d="M 445.45 97.55 C 449.48 97.01 451.98 99.89 454.34 102.65 C 455.93 104.18 455.41 107.58 453.25 108.29 C 449.47 109.61 444.81 108.36 442.46 105.04 C 442.37 102.12 441.64 98.22 445.45 97.55 Z"/>
	<path d="M 445.72 100.32 C 447.24 100.37 448.71 100.58 450.21 100.77 C 449.01 102.46 447.82 104.15 446.66 105.87 C 446.30 104.03 445.90 102.18 445.72 100.32 Z" fill="#ffffff"/>
	<path d="M 583.00 103.74 C 585.14 103.58 587.26 103.40 589.41 103.47 C 590.36 105.87 586.25 107.28 584.80 108.64 C 581.04 112.68 576.02 115.71 571.12 118.17 C 567.99 119.78 564.78 120.12 561.44 121.24 C 558.51 122.25 555.45 122.74 552.34 122.47 L 551.32 121.07 C 554.70 118.95 558.60 117.70 562.19 115.93 C 567.51 115.17 571.80 111.83 576.55 109.60 C 578.99 108.59 581.50 107.75 583.97 106.79 L 580.60 106.67 C 581.40 105.69 582.20 104.71 583.00 103.74 Z"/>
	<path d="M 698.31 104.91 C 698.20 106.18 698.27 107.34 697.48 108.42 C 695.67 111.12 693.87 113.89 691.84 116.43 L 690.76 116.07 L 690.47 115.03 C 692.22 111.30 695.13 107.53 698.31 104.91 Z"/>
	<path d="M 570.21 106.56 C 569.88 107.63 569.54 108.69 569.19 109.76 C 570.28 110.10 571.37 110.45 572.46 110.80 C 568.87 112.36 565.36 113.81 561.38 113.93 C 563.48 110.11 566.44 108.37 570.21 106.56 Z"/>
	<path d="M 734.83 108.05 C 734.58 112.58 732.75 118.87 730.26 122.66 L 728.64 122.23 C 729.30 119.53 730.30 116.86 731.13 114.19 C 732.19 111.82 731.74 108.55 734.83 108.05 Z"/>
	<path d="M 296.13 116.96 C 304.36 118.80 310.06 123.99 315.61 129.97 C 317.30 134.68 321.94 139.01 321.78 143.99 C 318.31 143.48 317.49 140.77 315.65 138.26 C 311.14 131.60 304.74 124.70 296.87 122.20 C 293.21 120.87 290.36 122.31 286.99 123.61 C 286.49 121.84 285.70 120.75 287.10 119.14 C 289.32 116.06 292.83 116.53 296.13 116.96 Z"/>
	<path d="M 717.21 115.80 C 718.44 118.58 716.98 120.51 716.09 123.09 C 711.58 135.24 705.18 146.81 699.27 158.33 C 698.23 160.54 696.50 162.02 694.66 163.54 C 692.11 169.85 687.05 173.89 683.65 179.61 C 680.44 185.05 675.32 189.22 671.22 194.11 C 671.64 195.82 672.39 197.27 671.90 199.03 C 671.03 202.39 670.40 205.92 669.08 209.13 L 667.66 209.52 C 668.11 204.46 669.94 199.49 670.89 194.47 C 666.26 197.86 663.05 203.38 657.94 205.94 C 660.77 200.06 667.04 195.77 671.37 190.88 C 670.04 190.13 668.71 189.38 667.45 188.51 C 669.12 188.82 670.77 189.19 672.42 189.58 C 675.48 186.18 678.67 183.11 681.34 179.37 C 685.02 174.04 689.13 169.06 692.80 163.72 C 696.58 160.08 699.28 156.28 700.09 150.94 C 696.91 153.49 695.30 156.87 691.75 158.52 C 693.46 154.68 696.23 151.86 699.13 148.91 C 699.65 149.80 700.17 150.69 700.70 151.58 C 702.46 147.04 704.88 142.88 707.03 138.53 C 706.84 137.34 706.71 136.14 706.63 134.94 C 707.91 132.70 710.46 131.53 710.64 129.01 C 711.50 124.14 714.45 119.85 717.21 115.80 Z"/>
	<path d="M 725.27 118.24 C 725.78 118.79 725.78 118.79 725.27 118.24 Z"/>
	<path d="M 366.78 124.29 C 367.91 125.12 368.95 125.98 369.76 127.14 C 374.29 133.28 378.06 140.28 383.08 145.96 C 386.17 149.19 387.14 153.53 389.97 157.00 C 394.13 161.76 394.25 168.05 398.15 173.04 C 397.71 170.60 397.32 168.17 397.06 165.70 C 400.12 169.29 401.00 173.55 403.48 177.55 C 406.25 182.20 408.45 186.88 410.23 191.98 C 411.49 195.80 414.39 199.21 416.60 202.60 C 417.41 202.58 418.23 202.55 419.04 202.53 C 419.91 206.09 421.70 209.35 422.56 212.88 C 422.09 213.78 421.59 214.65 421.06 215.52 C 418.73 211.90 417.01 208.01 415.25 204.11 C 411.20 201.92 408.83 198.48 405.65 195.30 C 404.89 194.32 403.45 193.26 403.64 191.93 C 404.62 191.63 405.62 191.36 406.62 191.10 C 405.09 188.06 403.24 185.17 401.99 182.02 C 400.98 179.79 400.34 177.51 398.38 175.95 C 395.02 173.23 393.46 169.54 390.58 166.43 C 388.15 163.83 385.84 161.16 383.68 158.33 C 381.39 155.27 378.71 152.77 377.13 149.21 C 378.90 149.74 380.53 149.78 381.85 151.17 C 385.18 154.65 388.04 158.57 391.59 161.86 C 389.82 158.14 387.11 154.75 384.73 151.36 C 383.47 149.74 382.22 147.67 380.45 146.59 C 377.64 145.31 374.13 145.11 371.36 143.61 C 369.38 142.19 369.20 139.59 368.56 137.43 C 366.44 135.97 364.46 134.42 362.77 132.46 C 361.57 132.46 360.36 132.44 359.14 132.43 C 359.42 131.01 359.01 129.33 360.43 128.49 C 362.27 127.56 363.25 129.39 364.62 130.34 C 366.82 132.44 369.33 134.37 371.22 136.76 C 372.15 138.44 372.47 140.50 372.99 142.34 C 375.10 142.85 377.21 143.35 379.32 143.81 C 375.25 137.37 369.60 131.39 366.78 124.29 Z"/>
	<path d="M 678.74 125.49 C 678.71 126.50 678.69 127.51 678.66 128.52 C 674.13 131.31 670.30 134.89 666.18 138.21 C 663.05 140.67 660.95 143.51 657.15 145.06 L 656.81 143.04 C 660.82 138.97 665.91 135.94 670.23 132.19 C 672.95 129.78 675.68 127.47 678.74 125.49 Z"/>
	<path d="M 727.78 134.21 C 728.46 134.75 729.95 134.98 729.32 136.09 C 728.53 138.39 727.60 142.42 724.99 143.18 C 724.31 140.46 726.77 136.78 727.78 134.21 Z"/>
	<path d="M 640.37 137.14 C 636.39 140.61 631.31 143.59 625.97 144.14 C 629.33 140.17 635.60 138.77 640.37 137.14 Z"/>
	<path d="M 716.94 139.15 C 717.26 140.55 717.80 141.71 717.05 143.09 C 715.36 146.45 714.43 149.81 710.87 151.61 C 712.30 147.24 714.78 143.20 716.94 139.15 Z"/>
	<path d="M 322.97 139.45 C 331.04 142.49 334.24 149.38 339.23 155.81 C 345.81 163.81 350.00 174.38 354.17 183.82 C 355.88 187.36 358.23 190.53 359.94 194.07 C 366.05 207.50 373.18 219.69 376.98 234.24 C 370.79 230.64 370.86 224.85 367.87 219.10 C 364.90 213.51 362.94 207.50 359.89 201.95 C 359.01 200.35 358.28 198.71 357.62 197.01 C 356.53 193.87 353.72 191.87 352.20 188.79 C 350.64 185.56 349.65 182.10 348.03 178.89 C 344.97 172.89 342.71 166.86 337.93 161.96 C 334.08 155.92 329.54 150.53 324.95 145.05 C 323.73 143.56 323.44 141.27 322.97 139.45 Z"/>
	<path d="M 673.95 139.81 C 671.89 145.80 665.95 150.02 662.23 155.25 C 654.06 166.46 642.71 174.92 634.26 185.75 C 635.06 190.39 632.58 195.34 631.97 200.00 C 630.97 203.77 631.47 207.82 628.64 210.52 C 628.38 202.79 630.95 194.87 632.66 187.37 C 629.12 191.35 625.21 195.75 622.92 200.59 C 621.87 205.10 621.52 209.78 620.31 214.27 C 619.27 217.76 618.89 221.02 616.22 223.74 C 616.08 217.31 619.09 211.28 619.89 204.87 C 617.65 208.31 615.36 211.72 613.03 215.10 C 610.54 218.66 609.70 222.59 608.28 226.62 C 607.70 225.78 607.16 224.92 606.66 224.04 C 607.42 217.87 612.83 212.29 615.91 206.95 C 619.72 200.22 623.75 193.73 629.10 188.08 C 639.01 176.02 650.77 165.78 660.81 153.82 C 665.27 149.30 668.81 143.53 673.95 139.81 Z"/>
	<path d="M 625.39 147.14 C 623.68 149.39 621.33 149.74 618.92 150.96 C 616.09 152.32 613.43 153.82 610.33 154.48 C 614.08 150.25 619.86 147.84 625.39 147.14 Z"/>
	<path d="M 721.74 151.67 C 721.51 158.30 718.67 163.30 716.90 169.62 C 720.34 171.89 717.54 175.27 717.04 178.35 C 716.37 176.97 715.75 175.58 715.12 174.19 C 713.30 178.52 710.78 182.35 708.02 186.12 C 708.27 186.92 708.52 187.71 708.76 188.51 C 707.11 192.17 706.80 196.90 704.08 199.83 C 704.09 196.26 705.32 193.07 706.17 189.67 C 703.77 193.77 701.33 197.82 698.77 201.82 C 697.03 204.37 696.93 207.10 695.93 209.94 C 694.91 212.92 693.04 215.25 690.86 217.45 C 691.72 214.39 693.04 211.52 694.07 208.52 C 689.68 212.52 686.99 217.12 681.52 219.84 C 683.59 216.82 686.19 214.34 688.73 211.73 C 696.87 202.75 703.03 192.23 708.70 181.58 C 712.49 174.96 716.07 168.44 718.18 161.06 C 717.48 160.42 716.80 159.76 716.14 159.08 C 717.40 156.12 719.44 153.86 721.74 151.67 Z"/>
	<path d="M 690.84 152.38 C 690.10 154.27 689.30 156.13 688.52 158.00 C 686.10 159.05 684.60 160.31 682.90 162.28 C 682.36 162.08 681.82 161.88 681.28 161.68 C 684.16 158.20 686.96 154.82 690.84 152.38 Z"/>
	<path d="M 405.58 153.41 C 408.99 155.78 411.31 160.04 413.51 163.50 C 415.20 166.53 417.22 168.99 417.13 172.63 C 414.48 170.36 413.23 167.40 411.52 164.46 C 409.50 160.89 406.49 157.38 405.58 153.41 Z"/>
	<path d="M 654.24 155.07 C 653.68 158.49 650.90 158.88 648.25 160.23 C 649.59 157.61 651.66 156.27 654.24 155.07 Z"/>
	<path d="M 626.28 155.73 C 626.46 160.24 623.38 164.96 621.72 169.03 C 620.39 164.43 622.89 158.85 626.28 155.73 Z"/>
	<path d="M 673.61 156.53 C 674.25 159.98 672.12 161.78 670.64 164.59 C 667.88 169.10 665.04 174.75 660.71 177.90 C 662.80 173.43 665.89 169.60 667.73 164.97 C 669.01 161.68 671.22 159.08 673.61 156.53 Z"/>
	<path d="M 405.39 160.56 C 406.07 161.56 405.98 162.55 405.12 163.53 C 404.24 163.18 403.58 162.58 403.16 161.76 C 402.58 160.04 404.25 159.51 405.39 160.56 Z"/>
	<path d="M 725.07 160.49 C 723.96 163.42 722.67 165.27 720.19 167.17 C 721.27 164.36 722.09 161.81 725.07 160.49 Z"/>
	<path d="M 678.23 162.34 C 677.04 168.24 672.86 170.91 669.26 175.26 C 667.07 177.78 664.38 179.74 662.28 182.35 C 660.88 184.10 659.07 185.24 657.16 186.37 C 657.04 182.54 657.87 180.79 660.29 177.94 L 661.67 179.89 C 664.45 176.31 667.62 173.06 670.44 169.50 C 672.65 166.71 675.29 164.34 678.23 162.34 Z"/>
	<path d="M 284.48 164.24 C 288.12 166.91 290.35 171.43 293.17 174.92 C 298.71 181.84 302.88 189.50 308.95 196.02 C 312.96 200.19 315.75 205.11 317.93 210.44 C 316.98 210.63 316.04 210.82 315.09 211.00 C 312.64 208.11 310.47 205.04 308.79 201.63 C 308.27 201.56 307.76 201.49 307.24 201.42 C 303.39 196.61 299.96 191.49 296.29 186.54 C 295.90 186.14 295.52 185.74 295.13 185.33 C 291.43 178.41 285.46 172.36 284.48 164.24 Z"/>
	<path d="M 606.24 165.02 C 602.30 168.45 597.69 170.56 594.41 174.80 C 593.56 174.72 592.72 174.64 591.87 174.55 C 595.22 170.12 600.53 165.63 606.24 165.02 Z"/>
	<path d="M 643.98 164.99 C 642.42 167.42 640.40 169.40 638.36 171.42 C 637.53 171.34 636.71 171.26 635.88 171.18 C 638.33 168.63 640.50 166.13 643.98 164.99 Z"/>
	<path d="M 320.40 167.47 C 321.80 169.75 322.78 172.31 323.88 174.75 C 323.29 175.07 322.71 175.40 322.13 175.72 C 320.70 173.95 318.95 172.09 318.02 170.00 C 318.23 168.51 319.00 167.82 320.40 167.47 Z"/>
	<path d="M 656.00 166.36 C 655.75 170.42 655.24 173.65 651.19 175.49 C 652.16 172.01 653.14 168.78 656.00 166.36 Z"/>
	<path d="M 328.31 169.08 C 328.52 170.16 328.72 171.23 328.90 172.31 C 327.63 171.77 326.35 171.25 325.12 170.60 C 325.20 168.08 326.55 168.68 328.31 169.08 Z"/>
	<path d="M 409.63 166.71 C 414.27 172.56 418.09 179.26 420.83 186.20 C 421.37 186.91 421.25 190.31 419.93 189.64 C 417.95 189.73 417.33 186.82 416.55 185.43 C 414.50 180.32 412.19 175.36 409.32 170.65 L 408.77 169.65 C 409.04 168.66 409.32 167.68 409.63 166.71 Z"/>
	<path d="M 684.52 169.64 C 682.96 172.91 681.66 173.49 678.26 174.52 C 679.49 171.50 681.66 170.66 684.52 169.64 Z"/>
	<path d="M 313.98 172.58 C 316.56 174.40 318.54 177.10 320.37 179.64 C 321.34 181.63 321.14 181.78 319.01 182.44 C 315.90 180.38 314.56 176.07 313.98 172.58 Z"/>
	<path d="M 633.27 175.08 C 631.34 178.27 627.64 182.99 623.44 182.51 C 626.15 179.25 629.33 176.69 633.27 175.08 Z"/>
	<path d="M 422.06 175.33 C 423.16 177.72 423.79 180.23 424.23 182.82 C 423.20 182.18 422.24 181.46 421.37 180.65 C 420.66 178.69 419.36 176.31 422.06 175.33 Z"/>
	<path d="M 698.05 175.35 C 696.95 178.93 694.52 181.60 693.07 185.01 C 691.52 188.49 690.45 192.04 688.23 195.20 C 684.46 200.68 680.24 205.97 676.10 211.14 C 674.54 212.96 674.73 215.71 674.68 217.98 C 671.98 224.13 669.64 230.21 665.60 235.67 C 662.61 239.53 660.25 243.77 656.85 247.11 C 654.17 253.01 650.82 258.77 647.25 264.17 C 646.61 264.37 645.97 264.52 645.30 264.62 C 644.56 257.98 649.28 253.91 651.95 247.80 C 652.59 247.63 653.23 247.46 653.86 247.29 C 656.68 243.48 660.32 240.62 662.56 236.63 C 665.09 231.94 668.29 228.41 670.02 223.35 C 668.84 224.18 667.75 224.67 667.25 226.11 C 665.69 230.08 662.63 232.49 660.22 235.89 C 655.80 238.54 652.00 241.92 647.54 244.53 C 644.88 246.08 642.28 247.71 639.69 249.35 C 638.67 251.49 637.27 253.01 635.57 254.61 C 630.66 259.49 628.94 265.90 625.79 271.78 C 624.08 274.76 624.06 278.67 623.14 281.99 C 622.08 285.86 622.31 289.81 621.00 293.62 C 619.38 298.57 619.05 303.60 618.48 308.75 C 617.60 308.35 616.71 307.96 615.83 307.56 C 615.12 316.81 616.28 325.48 620.35 333.88 C 621.37 338.76 621.46 343.49 623.59 348.15 C 621.20 347.01 618.63 346.16 617.14 343.80 C 615.52 341.27 615.66 337.43 615.18 334.54 C 614.05 329.79 610.88 325.52 609.36 320.84 C 607.64 315.39 605.47 310.12 603.52 304.75 C 604.67 303.38 605.85 302.04 607.05 300.71 C 607.65 301.93 608.23 303.17 608.77 304.43 C 608.62 305.05 608.52 305.68 608.47 306.32 C 608.76 306.36 609.06 306.39 609.36 306.41 C 610.61 307.71 611.13 309.28 611.79 310.91 C 612.29 307.11 613.46 303.52 614.26 299.79 C 615.75 292.66 617.23 285.13 619.98 278.39 C 620.90 275.40 621.83 272.54 623.41 269.83 C 623.50 267.62 623.30 265.71 624.79 263.88 C 627.99 259.67 630.89 255.19 634.45 251.31 C 633.66 250.53 632.87 249.76 632.08 248.97 C 636.93 248.10 640.86 246.71 644.96 243.95 C 648.37 241.60 653.30 239.79 655.32 236.10 C 657.56 232.58 661.02 230.08 663.75 226.78 C 667.00 222.85 670.44 219.61 673.19 215.36 C 671.84 215.85 670.48 216.35 669.12 216.83 C 675.63 209.91 680.62 201.96 686.44 194.50 C 689.04 190.77 689.84 186.60 691.60 182.54 C 693.26 179.78 695.17 176.95 698.05 175.35 Z"/>
	<path d="M 643.37 177.24 L 644.77 177.39 C 644.22 182.43 643.83 188.79 640.72 192.98 C 640.23 187.35 642.05 182.58 643.37 177.24 Z"/>
	<path d="M 706.26 179.73 C 705.37 183.79 703.71 186.45 699.96 188.38 C 701.51 185.10 703.58 182.19 706.26 179.73 Z"/>
	<path d="M 607.89 181.15 C 606.87 183.71 604.67 184.86 602.76 186.73 C 600.70 188.54 599.12 190.79 597.11 192.64 L 594.70 192.19 C 597.80 187.97 603.19 183.44 607.89 181.15 Z"/>
	<path d="M 673.24 181.01 C 670.78 183.76 668.28 185.83 664.39 185.92 C 666.34 182.63 669.69 181.65 673.24 181.01 Z"/>
	<path d="M 659.42 187.16 C 656.73 189.59 654.38 192.17 652.09 194.98 C 652.68 195.45 653.27 195.91 653.86 196.38 C 656.16 194.71 658.48 193.38 661.25 192.65 C 659.59 194.51 657.86 196.39 655.52 197.40 C 654.09 197.15 652.70 196.61 651.30 196.22 C 647.18 201.23 643.46 206.61 639.74 211.92 C 643.46 210.78 646.31 208.37 649.70 206.63 C 646.98 210.50 643.92 213.96 638.71 213.08 C 636.93 214.90 635.34 216.85 633.84 218.90 C 630.28 223.73 626.16 228.04 622.61 232.89 C 622.89 233.91 623.12 234.95 623.31 235.99 C 622.30 238.24 620.62 240.17 619.42 242.35 C 617.86 245.17 616.68 248.17 614.99 250.94 C 614.28 252.09 613.37 253.27 611.86 253.19 C 612.05 250.30 614.36 247.49 615.79 245.03 C 614.50 246.60 613.24 248.18 611.90 249.70 C 608.04 251.24 606.07 256.33 603.65 259.54 C 602.06 262.36 598.84 264.09 597.46 266.93 C 597.89 268.36 598.52 269.72 598.95 271.15 C 598.16 273.12 594.73 273.12 592.93 273.74 C 592.71 272.22 591.67 270.01 592.69 268.67 C 595.36 264.58 599.27 261.17 602.27 257.24 C 607.14 251.20 610.76 244.39 615.01 237.96 C 615.69 238.51 616.36 239.08 617.01 239.66 C 617.88 237.71 618.74 235.74 619.57 233.77 C 614.42 236.75 610.53 241.23 605.41 244.22 C 601.65 246.25 600.02 250.22 596.22 252.21 C 598.27 245.71 604.99 241.15 609.45 236.14 C 609.58 237.12 609.70 238.10 609.80 239.09 C 612.81 236.18 616.16 233.73 619.65 231.44 C 619.90 230.74 620.15 230.03 620.39 229.32 C 627.44 223.13 633.95 216.23 639.70 208.82 C 643.74 201.33 649.47 195.59 654.77 188.71 C 655.79 187.09 657.75 187.61 659.42 187.16 Z"/>
	<path d="M 623.27 188.00 C 620.77 192.29 615.78 195.14 611.86 198.07 C 612.46 196.58 612.70 195.17 614.02 194.13 C 616.79 191.70 619.89 189.48 623.27 188.00 Z"/>
	<path d="M 664.25 188.27 L 664.78 188.27 L 664.77 188.80 L 664.25 188.80 L 664.25 188.27 Z"/>
	<path d="M 320.13 189.22 C 320.93 189.30 321.72 189.43 322.50 189.62 C 326.22 193.09 328.79 198.27 331.40 202.61 C 335.31 208.87 338.10 215.44 342.76 221.26 C 345.76 224.91 347.51 229.14 349.92 233.16 C 351.00 235.03 352.19 237.03 352.83 239.10 C 352.15 240.86 349.97 242.53 348.44 240.55 C 345.22 237.34 343.04 232.58 341.18 228.49 C 339.34 224.96 338.24 221.20 336.23 217.75 C 331.66 210.27 327.31 202.67 322.75 195.18 C 321.61 193.20 320.28 191.59 320.13 189.22 Z"/>
	<path d="M 424.82 196.60 C 425.01 199.31 424.68 200.35 423.00 202.39 C 423.21 200.17 423.67 198.49 424.82 196.60 Z"/>
	<path d="M 410.91 201.66 C 412.77 204.78 413.91 207.99 416.23 210.81 C 418.10 213.06 419.74 215.40 420.84 218.13 C 424.23 226.30 427.96 233.62 430.29 241.98 C 431.57 246.41 434.16 249.48 432.41 254.30 C 429.53 252.02 427.23 249.31 425.11 246.33 C 426.03 249.48 427.27 252.49 428.45 255.54 C 428.92 256.90 429.37 258.79 427.52 259.24 C 425.51 259.17 423.49 258.47 421.55 258.00 C 422.03 260.93 424.02 263.85 419.94 265.06 C 417.93 263.67 416.15 261.78 414.44 260.03 C 414.65 261.90 414.84 263.76 414.97 265.64 C 413.31 265.52 411.56 265.55 409.94 265.16 C 408.63 263.57 407.67 261.63 406.64 259.84 C 401.92 258.80 399.89 254.94 395.73 252.99 C 394.06 250.83 392.49 248.62 391.11 246.26 C 388.73 244.78 385.48 244.02 386.42 240.45 C 389.07 239.27 391.53 244.05 392.72 245.80 C 394.29 246.67 395.95 247.47 397.41 248.51 C 399.05 250.12 400.26 252.37 401.39 254.35 C 401.94 253.46 402.49 252.57 403.05 251.68 C 406.76 255.44 408.96 260.26 412.83 263.92 C 411.81 260.86 410.72 257.94 408.52 255.51 C 404.40 250.74 401.43 245.34 397.74 240.26 C 396.17 238.01 393.72 237.02 392.15 234.83 C 390.90 232.97 389.70 230.95 389.04 228.81 C 388.78 226.49 389.51 224.47 392.02 223.94 C 392.90 226.99 392.92 230.05 394.41 232.94 C 396.08 233.82 397.70 234.55 398.88 236.09 C 402.08 239.95 404.89 244.17 407.68 248.34 C 410.77 253.44 415.17 257.79 419.90 261.37 C 419.12 259.17 418.35 257.05 416.89 255.19 C 411.96 248.76 408.06 241.78 404.38 234.58 C 402.17 230.06 399.43 226.49 398.02 221.75 C 399.56 222.40 401.04 222.44 401.97 223.99 C 405.60 229.17 408.05 235.22 411.36 240.62 C 413.42 243.98 415.07 247.57 417.12 250.93 C 419.59 253.67 421.92 256.22 425.88 256.39 C 423.81 251.39 421.83 246.38 419.96 241.29 C 419.19 242.16 418.40 242.99 417.59 243.80 C 414.81 241.70 412.92 238.55 411.73 235.32 C 409.86 229.82 406.72 225.16 405.53 219.39 C 407.06 219.99 408.29 220.41 409.10 221.92 C 411.61 226.19 412.98 231.09 415.16 235.54 C 415.59 235.04 416.02 234.53 416.45 234.03 C 415.61 232.16 414.61 230.18 414.13 228.18 L 415.18 227.40 C 416.90 229.91 417.77 232.58 418.82 235.40 C 417.64 235.51 416.46 235.62 415.29 235.73 C 416.31 237.77 417.33 239.81 418.33 241.87 C 419.22 240.93 420.11 239.99 421.01 239.06 C 423.76 241.63 426.33 244.37 428.95 247.07 C 425.89 237.65 421.24 228.93 418.47 219.42 C 417.66 219.28 416.85 219.13 416.04 218.98 C 414.40 213.53 411.37 208.91 408.84 203.89 C 409.48 203.11 410.17 202.37 410.91 201.66 Z"/>
	<path d="M 419.56 202.79 C 422.98 204.06 424.82 206.68 427.00 209.40 C 425.62 210.16 424.25 210.91 422.87 211.65 C 422.33 210.22 421.80 208.78 421.27 207.34 C 420.69 205.83 420.11 204.32 419.56 202.79 Z"/>
	<path d="M 340.39 207.41 C 342.12 207.62 343.84 207.91 345.56 208.21 C 347.97 212.84 350.99 217.08 353.23 221.81 C 354.83 225.13 356.90 228.09 359.01 231.10 C 358.45 229.85 357.88 228.61 357.32 227.36 C 357.58 226.60 357.82 225.85 358.02 225.08 C 356.92 221.81 354.82 218.96 353.97 215.54 C 358.45 217.96 360.14 224.25 363.39 228.12 C 363.12 229.81 362.82 231.50 362.52 233.19 C 364.42 237.59 366.99 241.71 368.66 246.19 C 367.18 247.23 365.56 246.79 364.80 245.16 C 361.37 238.90 357.97 232.57 354.15 226.54 C 354.90 230.08 355.48 233.60 357.28 236.78 C 359.49 240.65 361.73 244.61 363.32 248.77 C 364.03 250.31 362.66 251.36 362.15 252.80 C 359.70 249.89 357.15 247.39 355.87 243.70 C 354.05 238.35 352.68 232.90 350.34 227.68 C 348.74 223.93 346.19 221.13 345.50 216.99 C 344.82 213.28 342.23 210.71 340.39 207.41 Z"/>
	<path d="M 660.59 206.47 C 660.53 211.66 658.37 217.21 655.43 221.45 C 656.16 216.50 657.37 210.41 660.59 206.47 Z"/>
	<path d="M 652.12 212.01 C 650.24 215.62 647.63 218.41 645.32 221.80 C 645.83 225.84 643.89 228.77 642.75 232.48 C 642.13 234.40 641.36 236.11 640.15 237.74 C 640.21 232.57 642.22 228.23 644.04 223.53 C 638.45 228.31 636.25 235.42 630.47 239.82 C 632.73 232.04 640.29 226.64 644.15 220.10 C 646.25 216.64 648.66 214.13 652.12 212.01 Z"/>
	<path d="M 352.25 224.22 C 352.78 224.77 352.78 224.77 352.25 224.22 Z" fill="#ffffff"/>
	<path d="M 618.38 228.53 C 616.83 231.73 614.26 233.57 611.90 236.12 C 611.42 235.79 610.94 235.45 610.46 235.12 C 613.01 232.73 615.32 230.31 618.38 228.53 Z"/>
	<path d="M 368.73 230.13 C 370.39 233.05 370.05 236.23 371.03 239.26 C 373.00 242.95 375.25 246.35 376.33 250.45 C 375.17 250.04 374.04 249.56 372.96 249.00 C 370.16 245.44 368.91 240.57 366.05 237.02 C 365.17 235.73 363.79 234.55 363.73 232.97 C 364.85 232.70 365.98 232.45 367.11 232.24 C 367.64 231.53 368.18 230.83 368.73 230.13 Z"/>
	<path d="M 372.48 233.64 C 374.86 236.86 377.44 240.17 379.14 243.81 L 378.01 245.86 C 375.17 243.61 373.93 240.67 372.23 237.59 C 371.44 236.02 371.52 234.71 372.48 233.64 Z"/>
	<path d="M 635.11 243.00 C 634.64 244.28 634.44 245.39 633.26 246.20 C 629.26 249.30 624.92 251.98 620.84 254.98 C 624.18 253.60 627.43 252.01 630.73 250.53 C 631.35 250.98 631.96 251.43 632.58 251.89 C 628.12 253.54 623.68 256.72 618.97 256.82 C 616.46 257.11 613.96 257.47 611.44 257.68 C 614.85 254.19 618.96 252.46 623.14 250.13 C 627.48 247.74 630.63 244.73 635.11 243.00 Z"/>
	<path d="M 388.97 247.62 C 390.76 251.79 392.61 255.78 393.72 260.20 C 394.75 264.71 396.24 268.82 395.98 273.52 C 393.66 271.26 391.90 268.77 391.00 265.61 C 389.70 261.04 388.19 256.52 387.05 251.91 C 386.44 250.39 388.20 248.81 388.97 247.62 Z"/>
	<path d="M 367.44 251.05 C 371.12 254.26 370.84 261.02 372.76 265.42 C 372.56 261.41 371.60 257.52 371.61 253.49 C 375.50 256.56 375.42 263.49 375.85 268.01 C 375.58 272.56 378.16 276.41 377.88 280.86 C 377.29 282.27 376.36 283.57 375.55 284.87 C 376.06 291.36 375.81 298.13 377.23 304.49 C 378.57 311.92 378.24 319.50 379.54 326.96 C 380.48 331.41 379.06 335.61 379.56 340.03 C 379.38 341.61 379.11 343.23 379.19 344.81 C 380.44 347.95 382.55 350.80 384.31 353.68 C 384.35 354.25 384.40 354.82 384.44 355.40 C 383.52 355.76 382.60 356.12 381.68 356.49 C 378.71 353.33 376.61 349.65 374.42 345.94 C 371.75 344.87 369.11 343.72 366.47 342.58 C 362.70 341.07 359.67 338.02 356.11 335.95 C 353.49 334.11 350.27 333.06 347.87 330.97 C 348.36 329.23 348.32 327.78 350.59 328.48 C 356.39 331.81 361.85 335.62 368.02 338.32 C 365.32 335.23 362.76 332.01 359.96 329.01 C 356.83 325.57 352.61 323.76 349.29 320.48 C 350.21 319.37 351.14 318.27 352.07 317.17 C 357.94 320.24 363.05 324.48 365.95 330.55 C 366.65 330.93 367.35 331.32 368.05 331.70 C 369.50 333.93 370.97 336.14 372.65 338.20 C 372.48 336.86 372.29 335.51 372.08 334.17 C 372.68 333.37 373.28 332.56 373.89 331.76 C 373.32 325.13 374.52 317.78 370.92 312.19 C 371.72 304.12 370.11 295.99 370.29 287.86 C 368.49 283.96 368.04 281.36 369.35 277.18 C 367.48 272.91 365.55 268.81 364.56 264.21 C 363.56 259.52 360.45 256.19 362.95 251.44 C 365.46 254.43 367.30 257.26 368.67 260.93 C 367.70 257.53 366.06 254.59 367.44 251.05 Z"/>
	<path d="M 382.05 250.99 C 384.52 253.90 385.87 257.29 387.20 260.81 C 388.25 263.70 389.97 266.21 391.24 268.99 L 389.98 271.00 C 388.34 269.22 387.06 267.20 386.03 265.01 C 384.25 261.20 382.08 257.65 380.47 253.78 C 380.97 252.83 381.50 251.91 382.05 250.99 Z"/>
	<path d="M 609.20 254.08 C 610.70 252.90 611.96 255.99 610.09 256.22 C 608.84 255.90 608.55 255.19 609.20 254.08 Z" fill="#ffffff"/>
	<path d="M 635.46 256.50 C 635.71 262.77 636.10 268.71 634.04 274.77 C 633.23 274.78 632.42 274.79 631.61 274.80 C 631.71 270.80 631.16 267.33 632.08 263.45 C 632.64 260.83 634.01 258.70 635.46 256.50 Z"/>
	<path d="M 611.32 257.26 C 611.34 260.51 609.79 263.77 608.87 266.85 C 607.98 267.08 607.08 267.31 606.18 267.54 C 607.09 264.93 607.70 262.49 607.99 259.72 C 609.04 258.82 610.17 258.02 611.32 257.26 Z"/>
	<path d="M 615.35 260.10 C 615.63 261.72 615.91 263.33 616.26 264.93 C 613.21 268.41 611.29 272.60 608.28 276.09 C 608.95 269.96 611.86 265.01 615.35 260.10 Z"/>
	<path d="M 620.71 260.89 C 620.60 264.03 620.62 264.77 617.87 266.45 C 618.58 264.43 619.46 262.63 620.71 260.89 Z"/>
	<path d="M 368.04 264.62 L 369.60 264.36 C 370.71 267.52 371.37 270.74 372.00 274.02 C 372.35 274.79 372.89 275.49 373.61 276.11 L 373.89 276.74 C 373.26 276.55 372.63 276.36 372.00 276.17 C 370.41 272.37 369.13 268.60 368.04 264.62 Z" fill="#ffffff"/>
	<path d="M 645.09 265.65 C 646.05 265.92 646.26 266.60 645.71 267.71 C 643.99 272.92 642.98 277.76 642.16 283.18 C 640.00 290.01 639.84 297.03 638.59 304.03 C 638.05 309.58 637.95 315.16 637.34 320.71 C 639.05 323.34 640.12 325.78 640.17 328.96 C 640.33 335.13 642.45 341.39 644.46 347.20 C 642.93 347.32 641.69 347.79 640.47 346.53 C 636.76 343.66 636.49 337.53 634.64 333.33 C 631.43 325.90 627.58 318.66 624.61 311.14 C 624.95 309.07 624.12 304.65 627.07 304.51 C 630.29 308.29 631.84 313.22 634.84 317.23 C 634.62 313.22 633.91 309.00 634.37 305.02 C 636.34 292.18 639.41 279.60 643.45 267.27 C 643.98 266.71 644.52 266.17 645.09 265.65 Z"/>
	<path d="M 616.79 270.13 C 618.17 271.32 619.55 272.24 620.33 273.94 C 619.91 275.03 619.65 277.62 618.09 277.51 C 616.00 278.18 614.78 277.04 612.97 276.24 C 614.01 274.03 615.11 271.93 616.79 270.13 Z"/>
	<path d="M 388.47 273.04 C 389.25 273.11 390.04 273.21 390.82 273.36 C 391.98 275.22 391.80 277.66 391.83 279.78 L 392.14 279.64 C 392.53 277.34 393.11 275.15 393.83 272.93 C 394.48 273.96 395.00 275.03 395.39 276.12 C 395.47 280.74 395.02 285.35 395.08 289.97 C 394.90 296.37 395.99 302.58 395.03 308.96 C 394.33 313.74 395.92 318.23 395.46 322.97 C 394.80 328.96 395.49 335.18 396.47 341.11 C 395.85 342.21 395.11 343.23 394.37 344.26 C 396.39 347.01 397.79 350.04 399.12 353.16 C 398.83 354.21 398.54 355.26 398.25 356.31 C 397.29 355.85 395.92 355.64 395.24 354.80 C 393.04 351.92 391.65 348.60 391.40 344.97 C 391.28 341.58 389.11 339.24 386.77 337.06 C 384.80 334.34 382.43 331.85 380.72 328.97 C 381.02 327.79 381.72 327.03 382.81 326.68 C 385.61 329.66 387.35 333.05 389.77 336.30 C 387.05 329.34 382.82 323.39 379.30 316.92 C 379.76 315.90 380.27 314.89 380.83 313.91 C 385.51 318.43 387.09 324.22 390.15 330.17 C 390.17 326.11 389.44 321.99 388.65 318.02 C 388.38 309.48 389.59 301.07 388.92 292.56 C 388.53 286.04 388.89 279.54 388.47 273.04 Z"/>
	<path d="M 606.01 277.21 C 607.63 277.64 609.23 278.33 610.79 278.93 C 609.77 280.97 609.50 283.45 606.95 284.09 C 605.59 285.09 603.86 282.91 603.13 281.89 C 603.59 280.11 604.75 278.51 606.01 277.21 Z"/>
	<path d="M 365.98 322.71 C 369.24 324.48 370.58 329.27 372.75 332.14 C 372.21 332.72 371.68 333.30 371.15 333.89 C 369.16 331.16 366.22 328.31 365.28 325.01 L 365.98 322.71 Z"/>
	<path d="M 352.25 338.25 C 352.77 338.78 352.77 338.78 352.25 338.25 Z"/>
	<path d="M 355.00 337.77 C 358.81 339.11 359.76 340.19 361.07 343.95 C 359.02 343.13 356.84 342.39 355.24 340.79 C 355.10 339.79 355.02 338.78 355.00 337.77 Z"/>
</svg>
