<?xml version="1.0" standalone="no"?>
<!DOCTYPE svg PUBLIC "-//W3C//DTD SVG 20010904//EN"
 "http://www.w3.org/TR/2001/REC-SVG-20010904/DTD/svg10.dtd">
<svg version="1.0" xmlns="http://www.w3.org/2000/svg"
 width="1000.000000pt" height="558.000000pt" viewBox="0 0 1000.000000 558.000000"
 preserveAspectRatio="xMidYMid meet">
<metadata>
Created by potrace 1.16, written by Peter Selinger 2001-2019
</metadata>
<g transform="translate(0.000000,558.000000) scale(0.100000,-0.100000)"
fill="#000000" stroke="none">
<path d="M2499 5429 c-92 -6 -133 -14 -195 -37 -85 -32 -134 -46 -148 -43 -5
1 -36 -7 -70 -19 -33 -11 -96 -22 -139 -24 -48 -3 -88 -11 -102 -20 -14 -9
-33 -16 -43 -16 -26 0 -85 -43 -153 -112 -32 -32 -62 -58 -68 -58 -12 0 -39
-80 -47 -140 -6 -42 -10 -47 -54 -69 -27 -13 -51 -31 -54 -40 -6 -16 -17 -35
-48 -83 -16 -25 -17 -35 -7 -98 7 -39 18 -78 25 -88 12 -16 17 -13 52 27 31
36 40 41 45 28 3 -9 13 -14 21 -11 20 8 95 -28 132 -63 37 -35 51 -104 35
-168 -90 -339 -92 -355 -62 -456 42 -144 81 -288 81 -303 0 -15 60 -144 95
-206 22 -39 166 -190 182 -190 7 0 13 -6 13 -14 0 -31 270 -185 370 -211 36
-9 97 -26 135 -37 41 -12 109 -23 165 -25 52 -2 109 -6 125 -9 35 -5 115 -72
115 -96 0 -9 7 -24 16 -33 19 -18 12 -29 -19 -31 -12 -1 -30 -2 -39 -3 -10 0
-18 -8 -18 -16 0 -17 -14 -18 -45 -5 -18 8 -18 9 -2 9 38 2 5 18 -50 26 -79
10 -113 8 -132 -8 -9 -7 -45 -19 -81 -26 -36 -7 -67 -14 -69 -16 -9 -9 13 -25
34 -25 13 0 27 -4 30 -10 4 -6 -6 -10 -22 -10 -43 0 -73 -11 -73 -26 0 -10
-14 -14 -49 -14 -68 0 -109 -17 -127 -52 -9 -16 -13 -32 -10 -36 3 -3 24 0 47
7 58 18 183 40 173 32 -5 -4 -41 -20 -81 -36 -74 -29 -124 -67 -103 -80 6 -3
30 3 53 14 23 11 71 25 107 31 105 19 141 30 182 58 25 16 42 22 46 15 9 -13
87 -25 183 -27 58 -1 82 -5 96 -19 21 -18 43 -23 43 -8 0 5 3 16 6 25 4 9 -5
25 -21 41 -25 22 -34 24 -84 19 -31 -3 -66 -7 -78 -10 -13 -2 -23 0 -23 6 0 5
7 10 15 10 9 0 34 12 56 26 23 14 78 37 123 51 44 14 91 32 103 40 20 13 21
17 8 36 -18 29 -28 89 -16 106 16 25 39 3 57 -53 21 -66 17 -72 -65 -116 -73
-40 -108 -67 -98 -77 5 -4 63 -8 130 -9 67 -1 133 -5 147 -9 22 -7 23 -6 12 8
-14 17 -117 52 -140 48 -6 -1 -20 2 -29 7 -14 8 -13 11 8 22 68 35 88 92 54
156 -8 16 -11 32 -7 36 4 4 41 10 82 12 104 6 185 15 325 35 145 20 213 14
317 -30 40 -18 125 -49 188 -69 63 -21 136 -48 162 -61 48 -23 71 -21 49 5
-10 11 -9 16 5 24 15 8 15 9 0 15 -10 4 -15 3 -11 -3 4 -6 -9 -10 -29 -10 -20
0 -36 3 -36 8 0 9 -31 22 -160 67 -58 20 -136 49 -175 63 -63 24 -84 27 -210
27 -77 0 -154 -3 -171 -7 -17 -5 -62 -10 -100 -13 -38 -3 -118 -9 -178 -14
-60 -5 -117 -6 -126 -4 -17 5 -50 67 -50 96 0 9 -4 19 -10 22 -16 10 -12 -72
6 -113 9 -20 22 -68 30 -107 13 -70 13 -70 -13 -91 -14 -12 -44 -27 -67 -34
-22 -7 -81 -31 -129 -53 -64 -28 -92 -36 -100 -28 -8 8 -1 15 25 25 19 8 40
22 47 30 7 8 36 24 64 35 109 41 127 59 94 93 -19 18 -26 52 -15 71 12 22 -1
67 -18 67 -8 0 -17 14 -20 30 -4 17 -13 30 -20 30 -11 0 -13 -7 -8 -27 7 -27
6 -26 -39 15 -26 23 -53 42 -62 42 -23 0 -18 -17 8 -23 17 -5 22 -13 22 -37 0
-36 -14 -38 -45 -6 -14 16 -20 31 -16 42 4 10 -1 25 -10 35 -21 23 -36 25 -28
4 8 -19 -1 -19 -31 1 -24 16 -25 15 -25 -5 0 -16 10 -26 35 -37 24 -10 35 -21
35 -36 0 -20 -3 -21 -82 -15 -94 6 -324 57 -306 68 19 12 0 42 -23 36 -12 -3
-32 -1 -46 6 -19 8 -26 8 -32 -2 -7 -10 -13 -11 -30 -1 -31 16 -22 40 19 54
51 16 52 48 3 79 -49 32 -56 25 -12 -12 19 -16 31 -32 27 -36 -9 -9 -74 31
-82 50 -6 16 -36 21 -36 6 0 -16 41 -81 51 -81 5 0 9 -4 9 -10 0 -18 -38 -10
-43 9 -3 14 -11 18 -26 14 -25 -6 -83 36 -183 134 -66 64 -83 88 -54 77 15 -6
46 21 46 39 0 20 -30 57 -46 57 -11 0 -10 -7 7 -30 13 -16 20 -33 16 -36 -10
-11 -37 16 -59 59 -14 29 -23 36 -31 28 -8 -8 -7 -19 6 -40 23 -40 21 -52 -4
-21 -40 50 -99 193 -99 243 0 25 12 33 42 28 10 -1 -2 61 -15 77 -15 19 -29
14 -17 -7 13 -24 13 -31 0 -31 -5 0 -14 18 -20 40 -6 22 -16 40 -23 40 -19 0
-57 157 -57 237 0 65 19 153 60 273 10 30 21 78 24 106 5 44 3 56 -20 90 -47
71 -73 91 -139 110 l-64 18 47 23 c26 13 57 23 69 23 12 0 25 5 28 10 4 6 -8
10 -29 10 -38 0 -138 -42 -172 -72 -21 -19 -22 -19 -28 15 -4 23 0 54 11 88
15 45 25 57 65 80 42 25 47 26 51 10 2 -10 1 -25 -4 -33 -10 -18 3 -32 39 -42
26 -9 27 0 5 45 -12 24 -16 55 -14 116 2 73 5 86 26 109 14 15 25 30 25 34 0
9 75 90 84 90 4 0 19 14 33 30 13 17 32 30 41 30 10 0 35 7 57 15 22 8 72 14
111 15 50 0 75 4 84 15 9 11 26 13 66 9 30 -2 63 0 74 6 16 9 20 8 20 -5 0 -8
9 -15 20 -15 17 0 19 -5 14 -24 -4 -19 0 -27 18 -37 12 -7 25 -13 28 -13 3 -1
4 -8 3 -16 -1 -8 5 -19 13 -23 8 -4 14 -14 14 -21 0 -8 7 -19 15 -26 25 -21
17 -90 -11 -90 -17 0 -18 -11 -2 -45 12 -27 14 -28 68 -29 24 -1 35 -6 35 -16
1 -22 121 -140 142 -140 16 1 16 2 -2 16 -36 26 -95 85 -95 94 0 18 109 -29
335 -142 168 -85 341 -190 419 -255 22 -18 44 -33 49 -33 5 0 19 -9 31 -19 11
-10 42 -38 69 -61 26 -24 47 -48 47 -54 0 -11 45 -36 65 -36 17 0 66 -95 59
-114 -3 -9 -1 -16 5 -16 6 0 17 -11 23 -25 15 -33 26 -32 30 3 2 22 14 4 64
-98 68 -137 79 -177 94 -323 5 -53 14 -105 20 -115 15 -27 56 -124 65 -152 6
-22 47 -87 112 -180 28 -39 23 -35 235 -206 36 -29 93 -78 126 -109 33 -30 62
-55 66 -55 28 0 -67 101 -202 215 -120 100 -215 197 -266 270 -29 40 -66 113
-66 128 0 7 -9 29 -20 50 -16 29 -18 42 -10 57 8 15 7 26 -4 43 -9 12 -18 47
-21 77 -18 164 -58 284 -129 385 -28 40 -45 67 -53 85 -11 25 -159 170 -174
170 -8 0 -41 25 -74 56 -33 30 -72 62 -87 70 -15 8 -58 37 -95 65 -89 67 -308
193 -443 255 -19 9 -62 29 -95 45 -37 17 -70 26 -85 23 -18 -4 -36 3 -64 25
-25 20 -46 29 -58 25 -20 -6 -26 12 -5 19 9 3 7 10 -6 24 -10 12 -23 38 -28
59 -15 58 -37 101 -54 108 -8 3 -15 17 -15 30 0 19 -7 27 -26 32 -21 5 -25 11
-22 38 4 37 31 49 154 65 166 23 264 23 385 1 144 -26 255 -56 294 -80 41 -25
148 -80 156 -80 12 0 201 -130 257 -177 110 -93 297 -297 287 -313 -4 -6 -27
-20 -51 -32 -64 -30 -84 -78 -32 -78 26 0 117 49 140 75 9 11 17 15 18 9 0 -5
-5 -15 -11 -21 -10 -10 -26 -63 -34 -115 -3 -14 2 -31 9 -37 18 -15 44 15 60
70 l13 43 18 -27 c9 -15 21 -27 25 -27 15 0 19 29 8 58 -14 37 1 61 35 55 15
-3 31 5 51 26 48 50 10 68 -66 31 -39 -19 -42 -19 -54 -2 -7 9 -14 22 -14 28
0 6 -11 17 -25 24 -14 7 -25 17 -25 22 0 18 -220 229 -231 222 -7 -4 -9 -3 -6
3 8 13 -115 131 -155 148 -18 7 -45 24 -60 37 -15 13 -44 32 -65 43 -21 11
-42 23 -48 28 -88 66 -165 102 -315 147 -85 26 -267 33 -481 19z m426 -40 c54
-10 111 -36 101 -46 -6 -6 -86 19 -86 27 0 4 -21 8 -47 9 -27 1 -61 5 -78 10
-30 9 -29 9 11 10 22 1 67 -4 99 -10z m-335 -8 c-26 -15 -90 -24 -90 -13 0 6
19 13 43 15 23 2 47 4 52 5 6 1 3 -3 -5 -7z m85 -1 c4 -6 -9 -10 -32 -9 -30 0
-34 2 -18 9 27 12 43 12 50 0z m65 -10 c0 -13 -11 -13 -30 0 -12 8 -11 10 8
10 12 0 22 -4 22 -10z m195 -30 c8 -13 -15 -13 -35 0 -12 8 -11 10 7 10 12 0
25 -4 28 -10z m181 -11 c3 -5 12 -9 19 -9 15 0 125 -67 125 -76 0 -11 -46 9
-113 49 -71 42 -90 59 -57 50 11 -3 23 -9 26 -14z m-133 -6 c-7 -2 -19 -2 -25
0 -7 3 -2 5 12 5 14 0 19 -2 13 -5z m127 -38 c8 -7 41 -25 73 -40 31 -16 55
-30 53 -32 -6 -6 -176 80 -176 89 0 9 30 -1 50 -17z m310 -141 c0 -3 -20 9
-45 26 -25 17 -45 33 -45 36 0 3 20 -9 45 -26 25 -17 45 -33 45 -36z m4 -53
c-2 -3 -12 3 -22 13 -16 17 -16 18 5 5 12 -7 20 -15 17 -18z m104 -29 c14 -12
23 -24 21 -27 -6 -5 -79 59 -79 70 0 8 16 -4 58 -43z m-38 -12 c0 -5 -7 -7
-15 -4 -8 4 -15 8 -15 10 0 2 7 4 15 4 8 0 15 -4 15 -10z m-1126 -57 c21 -25
10 -31 -19 -10 -10 8 -15 19 -11 26 5 7 9 11 10 9 0 -2 10 -13 20 -25z m1231
-33 c53 -55 41 -59 -15 -4 -25 24 -40 44 -34 44 5 0 27 -18 49 -40z m118 -80
c4 0 0 12 -10 28 -17 26 -17 27 2 12 10 -8 33 -31 50 -50 16 -19 55 -58 85
-87 45 -43 52 -55 42 -65 -11 -11 -19 -7 -43 22 -31 37 -39 34 -13 -5 10 -15
12 -25 5 -25 -6 0 -11 7 -11 15 0 8 -5 15 -11 15 -5 0 -7 -4 -4 -10 12 -19 -4
-10 -30 17 -14 15 -25 32 -25 37 0 5 10 -4 22 -19 l22 -28 8 23 c9 24 -10 58
-53 95 -19 17 -21 17 -16 3 3 -10 2 -20 -3 -23 -5 -3 -6 -13 -3 -22 4 -11 3
-14 -6 -9 -7 5 -10 15 -7 23 7 18 -12 45 -26 37 -11 -7 -48 24 -48 39 0 6 12
0 27 -14 19 -16 23 -18 12 -4 -31 38 -32 50 -2 23 16 -16 32 -28 36 -28z m52
-260 c-10 -11 -25 -20 -33 -20 -12 0 -12 4 3 20 10 11 25 20 33 20 12 0 12 -4
-3 -20z m170 -8 c-3 -3 -11 0 -18 7 -9 10 -8 11 6 5 10 -3 15 -9 12 -12z m-58
-57 c-14 -15 -22 -1 -12 23 5 13 8 14 15 3 5 -8 3 -19 -3 -26z m-427 -225 c0
-5 -2 -10 -4 -10 -3 0 -8 5 -11 10 -3 6 -1 10 4 10 6 0 11 -4 11 -10z m-550
-1411 c0 -6 -4 -7 -10 -4 -5 3 -10 11 -10 16 0 6 5 7 10 4 6 -3 10 -11 10 -16z
m-145 -149 c-3 -5 -10 -10 -16 -10 -5 0 -9 5 -9 10 0 6 7 10 16 10 8 0 12 -4
9 -10z m-35 -39 c0 -9 -80 -21 -144 -21 -57 0 -39 10 35 19 90 12 109 12 109
2z m13 -28 c-7 -2 -21 -2 -30 0 -10 3 -4 5 12 5 17 0 24 -2 18 -5z m-113 -23
c-8 -5 -44 -9 -80 -8 l-65 1 60 7 c100 11 102 11 85 0z m53 3 c-7 -2 -19 -2
-25 0 -7 3 -2 5 12 5 14 0 19 -2 13 -5z m407 3 c0 -3 -4 -8 -10 -11 -5 -3 -10
-1 -10 4 0 6 5 11 10 11 6 0 10 -2 10 -4z m-622 -51 c-3 -3 -31 -10 -63 -15
-31 -5 -67 -12 -78 -16 -33 -10 -10 9 26 23 32 11 125 18 115 8z m402 -15 c-8
-5 -31 -9 -50 -9 l-35 1 30 8 c17 4 39 8 50 9 16 1 17 -1 5 -9z m96 -4 c27
-21 14 -27 -31 -15 -28 8 -35 13 -24 20 20 12 32 11 55 -5z m-356 0 c0 -2 -10
-11 -23 -19 -24 -15 -148 -36 -135 -22 13 14 158 52 158 41z"/>
<path d="M6285 5418 c-11 -7 -49 -13 -86 -14 -50 -1 -76 -7 -112 -28 -26 -14
-58 -26 -70 -26 -24 0 -109 -89 -121 -126 -4 -12 -15 -29 -26 -39 -11 -10 -20
-26 -20 -36 0 -10 -4 -21 -10 -24 -14 -9 -12 -47 5 -88 23 -55 20 -68 -14 -61
-23 5 -33 1 -48 -16 -10 -13 -26 -31 -35 -41 -31 -32 -48 -77 -48 -124 0 -84
34 -109 82 -60 14 14 44 31 67 39 42 15 53 9 26 -14 -41 -34 0 -91 49 -69 20
10 37 8 83 -6 79 -24 84 -30 77 -77 -6 -34 -3 -43 22 -69 l28 -29 -21 -68
c-18 -56 -20 -78 -13 -137 8 -72 33 -209 50 -280 5 -22 12 -53 15 -70 17 -79
42 -136 91 -208 30 -43 54 -81 54 -84 0 -2 25 -38 56 -79 67 -89 160 -186 229
-240 28 -21 68 -55 91 -75 22 -20 63 -47 90 -61 27 -14 65 -33 84 -43 291
-150 354 -172 630 -216 36 -6 90 -17 120 -25 30 -8 91 -19 135 -24 115 -13
279 -45 327 -65 15 -6 42 -23 60 -38 77 -63 124 -94 135 -90 21 7 79 -16 102
-41 19 -20 21 -28 12 -44 -6 -12 -11 -38 -11 -59 0 -22 -7 -48 -15 -59 -17
-22 -19 -34 -6 -34 10 0 44 80 40 96 -4 22 2 55 10 52 4 -1 27 -25 50 -52 50
-58 49 -68 -20 -146 -27 -30 -43 -57 -38 -59 15 -5 99 90 99 112 0 9 6 17 14
17 17 0 40 -63 34 -94 -3 -12 1 -28 9 -34 9 -9 13 -9 13 -2 0 6 6 8 13 4 10
-6 10 -4 0 7 -7 7 -13 29 -13 49 0 22 -11 51 -30 79 -17 24 -30 40 -30 35 0
-5 -7 4 -15 20 -8 15 -15 35 -15 42 0 8 -5 14 -11 14 -6 0 -9 6 -6 13 7 18
-12 47 -20 29 -9 -23 -23 -1 -23 36 0 27 -3 33 -10 22 -11 -17 -14 -14 -28 25
l-10 30 -2 -30 c-1 -29 -1 -29 -15 -11 -8 11 -15 16 -15 11 0 -5 -5 -4 -11 2
-6 6 -17 9 -23 7 -7 -3 -17 11 -24 33 l-11 38 4 -37 c4 -44 -12 -52 -21 -10
-3 15 -10 36 -15 47 -8 17 -9 16 -6 -7 3 -16 0 -28 -4 -28 -8 0 -14 18 -22 70
-3 16 -5 11 -6 -14 -1 -45 -7 -43 -27 11 -14 37 -15 37 -10 6 3 -18 2 -33 -3
-33 -5 0 -14 15 -21 33 -24 64 -31 75 -25 39 l5 -34 -31 26 c-17 14 -37 26
-44 26 -15 0 -70 22 -118 47 -16 8 -56 17 -90 20 -34 3 -72 12 -84 19 -12 8
-33 14 -46 14 -41 0 -61 53 -54 141 8 95 67 265 102 294 15 12 37 76 30 83 -3
3 -11 -9 -17 -26 -15 -38 -28 -42 -28 -7 0 44 -15 27 -18 -22 -2 -25 -8 -56
-15 -67 -10 -19 -12 -16 -20 29 -4 28 -11 75 -15 105 l-8 55 -8 -47 c-4 -27
-4 -53 0 -59 18 -29 12 -80 -18 -166 -18 -51 -37 -93 -42 -93 -5 0 -6 20 -4
45 3 25 2 45 -3 45 -5 0 -9 -11 -9 -25 0 -14 -4 -25 -10 -25 -5 0 -7 13 -3 30
3 18 1 30 -5 30 -6 0 -13 -10 -15 -22 -3 -16 -5 -12 -6 12 -2 33 -3 33 -12 11
-8 -19 -12 -21 -24 -11 -8 7 -15 20 -15 30 0 29 62 174 79 184 5 4 7 22 4 41
-4 28 -2 36 13 42 11 3 21 9 24 12 12 14 78 34 114 35 35 1 43 -4 63 -33 13
-19 30 -58 39 -87 13 -47 13 -55 -2 -88 -10 -20 -23 -36 -30 -36 -10 0 -12
-13 -7 -50 6 -48 5 -50 -30 -70 -38 -23 -52 -53 -36 -82 12 -22 23 -23 38 -4
6 8 23 16 37 19 22 4 28 -1 39 -27 16 -37 13 -43 -25 -51 -39 -9 -91 -52 -84
-70 6 -15 42 -30 94 -40 19 -4 43 -14 53 -23 9 -8 20 -12 23 -9 9 9 -3 37 -18
41 -7 2 -33 9 -58 16 -25 7 -51 14 -59 16 -26 8 19 44 55 44 45 0 57 23 40 81
-13 41 -16 44 -47 43 -19 0 -42 -4 -51 -8 -13 -6 -18 -4 -18 8 0 9 6 16 13 16
24 0 57 45 57 76 0 17 9 49 20 72 27 56 25 119 -5 186 -27 59 -65 96 -99 96
-27 0 -106 -24 -144 -44 -32 -16 -42 -34 -42 -72 0 -27 -21 -32 -40 -9 -9 10
-9 15 -1 15 6 0 11 14 11 30 0 17 -4 30 -8 30 -5 0 -8 -10 -8 -22 1 -16 -5
-23 -18 -23 -11 0 -21 6 -23 13 -3 6 2 12 10 12 26 0 50 81 27 95 -6 4 -9 19
-8 33 2 32 -9 55 -23 47 -5 -4 -9 8 -9 26 0 34 -14 30 -23 -6 -3 -11 -5 4 -6
33 -1 37 -5 54 -16 59 -13 4 -14 15 -9 49 7 49 -6 74 -39 74 -28 0 -81 -35
-96 -64 -16 -29 -69 -60 -95 -55 -11 2 -24 12 -30 21 -9 14 -2 25 37 62 51 50
58 75 27 106 -24 24 -54 25 -94 5 -15 -8 -32 -15 -36 -15 -5 0 -14 24 -20 54
-11 54 -31 83 -49 72 -5 -3 -21 -2 -35 4 -28 10 -59 1 -109 -33 -19 -13 -36
-17 -53 -13 -29 8 -30 -10 -1 -28 12 -8 23 -7 38 3 75 46 91 52 135 45 45 -6
47 -9 58 -75 10 -55 26 -64 74 -40 41 21 77 19 86 -6 8 -19 -19 -57 -49 -71
-14 -7 -30 -24 -35 -38 -7 -18 -15 -24 -26 -20 -9 3 -20 6 -25 6 -5 0 -9 13
-9 29 0 16 -9 39 -21 52 l-21 24 5 -22 c3 -13 1 -26 -4 -29 -5 -3 -9 11 -9 30
0 35 -19 62 -21 29 -1 -12 -3 -10 -8 7 -4 14 -13 24 -18 23 -6 -1 -9 6 -6 17
3 12 0 20 -7 20 -9 0 -11 -11 -7 -36 7 -40 -14 -44 -23 -4 -3 13 -14 24 -24
26 -15 2 -17 -2 -12 -26 8 -41 -11 -47 -20 -8 l-8 33 -7 -30 c-6 -29 -7 -29
-8 -4 -1 22 -17 39 -37 39 -2 0 -4 -15 -5 -32 l-1 -33 -15 35 c-9 19 -18 30
-20 23 -2 -7 0 -19 4 -28 13 -23 4 -75 -13 -75 -9 0 -14 12 -14 37 0 38 -14
36 -23 -2 -2 -11 -4 4 -3 34 1 36 -3 56 -11 58 -15 5 -17 49 -3 58 6 3 10 -3
10 -14 0 -26 15 -34 30 -16 7 8 18 15 25 15 8 0 12 21 11 73 -1 61 -5 76 -26
100 -29 33 -52 34 -80 5 -25 -27 -53 -15 -58 24 -2 17 -14 30 -38 42 -35 16
-36 16 -63 -11 -18 -18 -30 -44 -35 -72 -3 -23 -13 -49 -21 -57 -17 -17 -31
-19 -17 -1 15 19 25 77 13 77 -6 0 -11 11 -11 24 0 31 -18 43 -35 25 -10 -11
-11 -25 -5 -59 13 -64 13 -97 -1 -83 -5 5 -13 36 -16 67 -6 57 -9 62 -29 48
-16 -10 -27 -69 -15 -77 7 -4 11 7 11 29 0 60 16 40 18 -21 2 -54 -14 -130
-25 -120 -2 3 -6 16 -7 29 -2 12 -8 41 -14 63 -6 22 -10 65 -8 95 2 30 0 63
-3 72 -5 14 -8 15 -25 3 -15 -12 -18 -23 -14 -66 3 -28 10 -54 16 -58 5 -3 15
-35 22 -71 6 -36 16 -76 21 -90 5 -14 5 -40 0 -60 -9 -34 -10 -33 -16 27 -2
24 -22 53 -36 53 -13 0 -11 -32 5 -62 11 -22 20 -74 26 -153 0 -5 4 -4 9 4 6
10 12 3 21 -24 7 -20 33 -64 60 -98 26 -35 56 -83 68 -109 20 -45 53 -75 72
-63 9 6 6 50 -12 133 -12 55 -28 79 -28 42 0 -31 -17 -15 -25 23 -4 17 -13 35
-19 39 -8 5 -8 13 1 27 12 19 6 59 -15 97 -13 23 5 64 28 64 21 0 40 19 40 41
0 21 -12 30 -47 34 -14 1 -29 8 -33 15 -10 17 -1 50 15 50 19 0 42 32 50 70
11 60 16 70 37 81 23 12 55 -10 60 -43 2 -11 15 -27 30 -36 26 -15 28 -15 51
6 29 27 39 27 61 3 16 -18 20 -73 4 -61 -3 3 -22 -15 -42 -40 -37 -47 -47 -96
-22 -106 22 -8 -11 -89 -41 -103 -13 -6 -21 -16 -18 -21 11 -17 42 -11 59 13
16 22 16 21 13 -18 -1 -24 -7 -40 -14 -40 -7 0 -13 -3 -13 -7 0 -5 2 -8 5 -8
3 0 14 0 24 0 11 0 22 8 25 18 3 10 15 18 26 18 20 0 24 -7 21 -37 -1 -9 10
-26 25 -38 21 -17 25 -26 19 -48 -3 -15 -11 -33 -17 -40 -14 -17 -40 16 -60
74 l-14 41 -44 -33 c-46 -35 -57 -56 -59 -112 -1 -18 -5 -33 -11 -33 -5 0 -10
2 -10 4 0 2 -9 41 -21 87 -16 65 -19 100 -14 151 6 71 -2 141 -15 133 -5 -3
-8 -35 -7 -71 1 -47 -2 -67 -13 -74 -11 -7 -12 -13 -3 -32 7 -13 14 -39 16
-58 3 -19 10 -53 17 -75 6 -22 15 -53 19 -70 5 -23 13 -30 30 -29 16 0 20 -3
15 -15 -28 -70 0 -152 78 -228 43 -41 129 -93 155 -93 18 0 31 36 29 83 -1 20
2 37 7 37 5 0 7 -27 6 -60 l-3 -61 75 -70 c79 -75 159 -132 187 -134 9 -1 27
-5 39 -9 18 -6 23 -3 29 19 12 50 -7 177 -33 223 -14 23 -28 42 -32 42 -7 0
-31 44 -31 56 0 2 20 -18 45 -46 25 -28 45 -59 45 -69 0 -10 7 -25 16 -32 15
-12 22 -7 61 36 28 30 40 51 33 53 -7 3 -24 -10 -37 -27 -13 -17 -30 -31 -38
-31 -17 0 -27 27 -13 36 7 4 8 3 4 -4 -4 -7 -2 -12 3 -12 6 0 11 7 11 15 0 14
-12 20 -34 16 -5 -1 -5 6 -2 16 14 36 18 73 8 73 -5 0 -15 -13 -21 -30 -14
-41 -17 -38 -13 12 4 36 3 39 -11 27 -8 -8 -11 -16 -6 -19 4 -3 5 -11 1 -17
-5 -8 -17 0 -36 23 -25 31 -28 42 -23 82 4 26 9 59 13 75 4 17 2 27 -5 27 -6
0 -11 -9 -11 -19 0 -11 -4 -23 -10 -26 -5 -3 -10 -22 -10 -42 0 -33 -2 -35
-25 -29 -27 7 -35 -11 -9 -21 8 -3 26 -29 38 -57 13 -29 39 -75 60 -103 37
-52 49 -114 24 -129 -8 -5 -9 -2 -5 9 9 23 -17 69 -31 55 -7 -7 -14 -4 -24 11
-7 11 -22 21 -34 21 -31 0 -49 27 -45 66 2 27 -4 43 -28 69 -32 36 -32 49 -1
92 8 11 24 22 35 24 12 3 21 14 24 29 5 38 -20 133 -41 153 -13 13 -18 30 -16
55 3 40 22 51 24 14 2 -31 9 -36 50 -34 48 4 67 -13 59 -50 -8 -34 8 -58 39
-58 12 0 35 -13 51 -30 33 -34 74 -39 97 -12 8 9 20 36 27 60 10 36 16 43 34
40 24 -3 73 -70 81 -111 5 -24 -3 -36 -60 -93 -49 -49 -64 -69 -58 -82 4 -9 6
-25 5 -35 -1 -10 2 -24 7 -30 23 -30 20 -57 -9 -81 -18 -16 -33 -43 -43 -77
-8 -30 -14 -47 -15 -39 -1 23 25 124 38 148 17 32 -3 27 -31 -7 -13 -16 -33
-34 -45 -40 -21 -11 -23 -19 -23 -100 0 -62 4 -92 13 -100 18 -15 79 -36 222
-77 67 -19 126 -42 133 -52 12 -15 13 -8 8 48 -3 36 -5 69 -5 73 -1 4 -32 39
-71 78 -38 38 -70 76 -70 84 0 8 -7 15 -15 15 -9 0 -15 9 -15 21 0 19 2 20 17
8 14 -12 16 -12 11 1 -2 8 -17 21 -31 28 -29 14 -36 32 -12 32 8 0 15 5 15 11
0 5 -10 9 -22 7 -14 -2 -24 3 -26 13 -2 11 4 15 20 15 22 -1 23 2 20 52 -3 60
15 77 48 47 26 -23 25 -34 -2 -44 -15 -5 -18 -10 -9 -15 7 -5 20 -1 30 8 16
15 20 15 30 2 11 -13 9 -21 -9 -46 -15 -22 -24 -52 -28 -95 l-5 -64 64 -60
c35 -33 67 -57 70 -53 4 4 14 29 23 56 19 56 36 90 42 84 2 -3 -8 -38 -23 -79
-35 -99 -38 -215 -5 -237 12 -8 22 -19 22 -24 0 -13 -69 2 -106 24 -17 10 -36
18 -40 16 -11 -3 -115 31 -129 42 -5 4 -32 13 -60 19 -83 19 -144 36 -151 44
-4 4 -17 7 -29 7 -12 0 -41 13 -63 30 -23 17 -46 30 -50 30 -5 0 -19 11 -32
25 -13 14 -29 25 -35 25 -6 0 -31 18 -55 40 -24 22 -51 40 -58 40 -8 0 -29 9
-48 20 -21 13 -35 17 -39 10 -3 -5 1 -13 9 -16 21 -8 21 -24 0 -24 -9 0 -27
-9 -41 -20 -14 -11 -30 -17 -37 -13 -7 5 -6 8 4 11 8 1 23 16 32 32 16 29 16
30 -8 49 -24 19 -120 132 -157 185 -10 14 -24 26 -32 26 -9 0 -15 10 -15 25 0
15 -9 31 -25 41 -14 9 -38 38 -53 65 -15 29 -32 47 -39 44 -7 -2 -13 0 -13 6
0 6 -18 32 -39 58 -38 45 -91 163 -91 202 0 10 -5 42 -12 71 -10 45 -12 49
-18 28 -5 -22 -8 -20 -18 22 -7 26 -12 62 -12 80 0 18 -5 40 -11 48 -7 11 -9
-13 -6 -83 5 -110 -11 -123 -19 -16 -3 35 -9 81 -14 103 -5 21 -6 44 -4 51 3
7 1 16 -5 19 -6 4 -8 21 -4 39 7 40 12 45 24 27 11 -17 2 71 -12 107 -5 13 -6
28 -4 35 3 7 -8 36 -23 63 -26 47 -31 51 -101 74 -61 19 -77 21 -96 11 -13 -7
-28 -9 -34 -6 -17 11 -1 34 19 29 12 -3 22 3 31 19 6 12 16 25 20 28 12 8 -2
24 -34 38 -25 11 -32 10 -59 -9 -22 -16 -32 -19 -41 -10 -9 9 -8 14 3 21 12 7
12 12 2 22 -9 9 -12 9 -12 -5 0 -11 -12 -18 -35 -23 -19 -3 -35 -10 -35 -15 0
-12 7 -11 30 1 33 18 35 -10 2 -43 l-31 -30 -18 38 c-18 37 -18 38 5 53 12 8
22 25 22 38 0 14 6 24 14 24 7 0 16 9 19 20 3 14 17 21 46 26 39 6 42 9 47 46
4 21 11 37 15 36 20 -7 0 -77 -27 -95 -13 -8 -24 -22 -24 -29 0 -19 19 -18 26
1 4 8 14 15 24 15 13 0 19 11 24 39 3 22 8 45 11 53 7 19 -9 39 -33 41 -37 2
-36 34 2 99 22 36 34 68 31 78 -4 13 4 26 27 43 92 68 114 58 75 -35 -15 -35
-27 -80 -27 -100 0 -20 -4 -39 -10 -43 -5 -3 -7 -12 -4 -19 8 -20 104 -15 137
7 14 9 31 17 37 17 19 0 85 59 76 68 -4 3 -12 0 -18 -6 -15 -15 -38 -16 -38
-2 0 6 7 10 15 10 25 0 18 46 -10 68 -14 11 -25 24 -25 30 0 6 -6 12 -12 14
-9 3 -6 18 12 51 21 40 27 45 50 40 16 -3 41 3 64 15 37 20 38 20 79 2 46 -21
46 -22 29 -64 -13 -30 -3 -56 23 -56 7 0 20 -11 29 -25 9 -14 23 -25 31 -25 8
0 19 -17 25 -40 6 -24 17 -40 25 -40 16 0 20 16 6 24 -18 11 -21 67 -5 98 11
22 13 33 5 41 -26 26 -1 87 36 87 12 0 28 -11 37 -25 13 -20 25 -25 57 -25 50
0 67 -31 38 -69 -23 -29 -24 -59 -4 -88 13 -19 13 -23 -1 -37 -8 -9 -19 -16
-24 -16 -5 0 -16 -13 -25 -29 -13 -27 -13 -31 1 -45 21 -21 34 -12 34 25 0 18
5 29 14 29 7 0 21 11 29 24 13 19 14 30 5 60 -10 31 -9 42 5 66 9 15 17 37 17
47 0 29 -42 63 -78 63 -20 0 -36 7 -45 20 -8 11 -30 25 -48 31 -31 9 -36 7
-62 -22 -25 -27 -28 -37 -25 -87 3 -47 0 -57 -14 -60 -13 -2 -18 3 -18 18 0
13 -8 24 -20 27 -23 6 -24 13 -8 48 11 24 9 29 -18 50 -16 13 -39 24 -51 25
-12 0 -25 5 -28 10 -8 13 -25 12 -50 -2z m-135 -61 c0 -12 -9 -40 -20 -62 -21
-42 -14 -65 21 -65 11 0 19 -7 19 -15 0 -8 -9 -15 -19 -15 -11 0 -23 -4 -26
-10 -3 -5 -15 -10 -25 -10 -17 0 -18 8 -17 78 2 68 5 79 27 99 32 28 40 28 40
0z m7 -194 c-9 -9 -19 -14 -23 -11 -10 10 6 28 24 28 15 0 15 -1 -1 -17z m-39
-66 c3 -12 -3 -17 -22 -17 -25 0 -35 18 -19 34 12 12 38 2 41 -17z m-183 -307
c-3 -5 -10 -10 -16 -10 -5 0 -9 5 -9 10 0 6 7 10 16 10 8 0 12 -4 9 -10z m188
-200 c3 -11 1 -20 -4 -20 -5 0 -9 9 -9 20 0 11 2 20 4 20 2 0 6 -9 9 -20z
m283 -409 c22 -10 23 -13 12 -33 -10 -20 -13 -21 -16 -5 -2 9 -8 17 -13 17 -5
0 -9 7 -9 16 0 8 -4 12 -10 9 -6 -3 -7 1 -4 9 4 9 1 16 -6 16 -9 0 -9 4 1 17
13 15 14 14 17 -9 2 -15 13 -30 28 -37z m54 -21 c0 -5 -4 -10 -10 -10 -5 0
-10 5 -10 10 0 6 5 10 10 10 6 0 10 -4 10 -10z m-103 -42 c-3 -7 -5 -2 -5 12
0 14 2 19 5 13 2 -7 2 -19 0 -25z m533 -24 c0 -8 -5 -12 -10 -9 -6 4 -8 11 -5
16 9 14 15 11 15 -7z m-520 -44 c0 -17 -2 -19 -14 -8 -14 13 -12 28 5 28 5 0
9 -9 9 -20z m470 0 c0 -5 -2 -10 -4 -10 -3 0 -8 5 -11 10 -3 6 -1 10 4 10 6 0
11 -4 11 -10z m-417 -57 c8 -41 -11 -40 -32 0 -12 25 -12 30 0 37 18 12 25 3
32 -37z m540 21 c18 -24 16 -64 -4 -64 -5 0 -9 -10 -9 -23 0 -12 -9 -30 -20
-40 -11 -9 -20 -26 -20 -36 0 -11 -4 -23 -10 -26 -5 -3 -10 1 -10 9 0 9 -4 16
-10 16 -10 0 -5 -43 10 -91 9 -28 -2 -54 -34 -82 -20 -17 -20 -17 -38 15 -9
18 -17 45 -18 60 0 14 -4 28 -9 30 -6 2 -1 28 9 58 11 30 19 65 20 78 0 12 11
44 25 71 22 45 27 49 62 49 29 0 42 -5 56 -24z m397 -9 c7 -8 9 -23 4 -37 -4
-13 -6 -46 -5 -75 1 -28 -3 -54 -9 -58 -6 -4 -10 6 -10 24 0 33 -14 41 -24 15
-3 -9 -6 -29 -6 -45 0 -34 -2 -34 -35 -13 -13 9 -30 12 -36 8 -8 -5 -9 -3 -5
5 5 8 0 14 -13 18 -12 3 -21 9 -21 14 0 5 -7 9 -16 9 -8 0 -12 -4 -9 -10 3 -5
1 -18 -4 -27 -9 -15 -10 -12 -11 17 0 26 -3 31 -10 20 -8 -13 -10 -12 -10 3 0
9 7 17 17 17 26 0 101 48 108 69 5 17 60 60 76 61 4 0 12 -7 19 -15z m-1003
-47 c-2 -13 -4 -5 -4 17 -1 22 1 32 4 23 2 -10 2 -28 0 -40z m422 15 c0 -33
-1 -35 -9 -15 -8 20 -4 52 6 52 2 0 4 -17 3 -37z m281 -68 c0 -17 -2 -17 -10
-5 -5 8 -10 24 -10 35 0 17 2 17 10 5 5 -8 10 -24 10 -35z m-650 4 c0 -20 -4
-29 -12 -27 -18 6 -22 39 -6 49 18 12 18 12 18 -22z m702 -21 c-9 -9 -12 -7
-12 12 0 19 3 21 12 12 9 -9 9 -15 0 -24z m-412 -32 c0 -7 8 -21 19 -30 12
-11 20 -35 23 -71 3 -38 13 -66 34 -97 16 -23 32 -48 36 -54 5 -7 1 -14 -7
-18 -11 -4 -17 3 -22 25 -4 20 -10 28 -19 25 -9 -3 -14 2 -14 14 0 27 -18 25
-23 -2 -3 -17 -5 -14 -6 10 -1 21 -6 32 -16 32 -18 0 -18 4 -3 46 11 30 9 35
-15 60 -15 15 -27 25 -28 23 0 -2 -2 -13 -3 -24 -2 -11 -7 -33 -11 -50 -8 -27
-7 -29 8 -16 10 7 17 20 17 27 0 8 5 14 10 14 17 0 11 -29 -10 -47 -11 -10
-20 -28 -20 -41 0 -13 -4 -21 -9 -18 -29 18 -14 155 20 192 22 24 39 24 39 0z
m268 -28 c-2 -5 -12 -2 -23 6 -17 12 -17 16 -5 31 13 16 15 15 22 -6 5 -12 7
-26 6 -31z m-471 -30 c-3 -8 -6 -5 -6 6 -1 11 2 17 5 13 3 -3 4 -12 1 -19z
m478 -15 c20 -22 25 -35 20 -57 -7 -39 -33 -77 -55 -83 -10 -3 -21 -12 -24
-20 -5 -12 -8 -12 -22 2 -9 9 -15 17 -13 19 2 1 16 10 32 19 32 20 38 44 7 27
-24 -13 -27 2 -5 24 17 17 19 33 6 38 -5 2 -13 15 -16 31 -6 24 -4 27 19 27
15 0 36 -11 51 -27z m235 -13 c0 -5 -2 -10 -4 -10 -3 0 -8 5 -11 10 -3 6 -1
10 4 10 6 0 11 -4 11 -10z m97 -22 c-3 -7 -5 -2 -5 12 0 14 2 19 5 13 2 -7 2
-19 0 -25z m-501 -70 c8 -16 11 -28 7 -28 -9 0 -53 74 -53 87 1 10 28 -24 46
-59z m224 17 c0 -8 -4 -17 -10 -20 -6 -3 -9 4 -8 19 2 25 18 26 18 1z m-675
-11 c13 -8 47 -16 75 -17 37 -2 54 -7 61 -20 12 -21 6 -33 -21 -40 -25 -6 -27
8 -2 18 12 5 -3 12 -48 21 -36 8 -73 22 -84 34 -24 24 -15 26 19 4z m349 -56
c10 -53 -9 -48 -23 6 -14 58 -14 63 3 46 7 -8 17 -32 20 -52z m153 -45 l1 -58
-14 50 c-17 62 -17 65 -1 65 10 0 14 -17 14 -57z m-467 37 c0 -5 -2 -10 -4
-10 -3 0 -8 5 -11 10 -3 6 -1 10 4 10 6 0 11 -4 11 -10z m558 -32 c-21 -64
-21 -64 -26 -39 -5 33 6 71 22 71 12 0 12 -6 4 -32z m-208 13 c0 -5 3 -16 6
-25 3 -9 2 -16 -4 -16 -5 0 -12 11 -14 25 -3 14 -1 25 3 25 5 0 9 -4 9 -9z
m162 -29 c3 -9 1 -26 -3 -37 -6 -15 -8 -11 -8 18 -1 40 4 48 11 19z m-122 -27
c0 -14 -4 -25 -10 -25 -5 0 -10 11 -10 25 0 14 5 25 10 25 6 0 10 -11 10 -25z
m54 -8 c4 -19 3 -26 -4 -22 -5 3 -10 18 -10 32 0 32 5 28 14 -10z m556 -1 c0
-8 3 -21 6 -30 4 -10 1 -16 -9 -16 -17 0 -32 34 -22 50 9 15 25 12 25 -4z
m-435 -53 c-7 -41 -12 -50 -21 -41 -9 9 7 78 18 78 6 0 8 -14 3 -37z m41 2 c3
-8 -1 -24 -10 -37 -16 -22 -16 -22 -16 15 0 37 16 50 26 22z m-266 -5 c0 -5
-2 -10 -4 -10 -3 0 -8 5 -11 10 -3 6 -1 10 4 10 6 0 11 -4 11 -10z m40 -30 c0
-5 -4 -10 -10 -10 -5 0 -10 5 -10 10 0 6 5 10 10 10 6 0 10 -4 10 -10z m30
-16 c0 -8 -5 -12 -10 -9 -6 4 -8 11 -5 16 9 14 15 11 15 -7z m35 -4 c3 -5 1
-10 -4 -10 -6 0 -11 5 -11 10 0 6 2 10 4 10 3 0 8 -4 11 -10z m175 -49 c0 -6
-4 -13 -10 -16 -5 -3 -10 1 -10 9 0 9 5 16 10 16 6 0 10 -4 10 -9z m80 -15 c0
-2 -7 -19 -15 -37 l-15 -34 4 30 c2 17 5 33 5 38 1 7 21 10 21 3z m319 -34
c11 -21 40 -61 66 -90 26 -29 42 -52 36 -52 -6 0 -19 9 -28 20 -12 13 -20 16
-29 9 -8 -6 -14 -5 -18 6 -3 9 -11 13 -18 9 -8 -5 -9 -2 -5 9 3 9 2 19 -3 22
-4 3 -11 -1 -13 -7 -3 -7 -6 -3 -6 8 -1 14 -12 26 -31 34 -35 15 -37 23 -10
50 28 28 37 25 59 -18z m-142 -14 c-3 -8 -6 -5 -6 6 -1 11 2 17 5 13 3 -3 4
-12 1 -19z m-287 2 c0 -5 -2 -10 -4 -10 -3 0 -8 5 -11 10 -3 6 -1 10 4 10 6 0
11 -4 11 -10z m-200 -30 c0 -5 -7 -7 -15 -4 -8 4 -12 10 -9 15 6 11 24 2 24
-11z m250 0 c8 -5 11 -12 8 -16 -10 -9 -38 3 -38 16 0 12 10 13 30 0z m245
-110 c3 -5 1 -10 -4 -10 -6 0 -11 5 -11 10 0 6 2 10 4 10 3 0 8 -4 11 -10z
m465 -210 c13 -9 13 -10 0 -9 -8 0 -24 4 -35 9 l-20 9 20 0 c11 0 27 -4 35 -9z
m-253 -6 c-3 -3 -12 -4 -19 -1 -8 3 -5 6 6 6 11 1 17 -2 13 -5z m399 -36 c-9
-5 -24 -4 -36 2 -33 18 -23 29 15 17 28 -8 33 -13 21 -19z m89 -18 c3 -5 -3
-10 -14 -10 -11 0 -23 5 -26 10 -3 6 3 10 14 10 11 0 23 -4 26 -10z"/>
<path d="M6826 3838 c-5 -16 -5 -36 0 -45 7 -16 8 -15 11 5 3 12 3 32 0 45 -3
21 -4 20 -11 -5z"/>
<path d="M6205 5295 c-28 -23 -28 -25 -8 -25 12 0 25 5 28 11 4 6 20 7 38 3
52 -11 62 -42 22 -64 -28 -15 -34 -33 -8 -23 13 5 15 3 9 -13 -11 -29 -17 -84
-8 -84 20 1 34 20 29 40 -3 13 3 38 15 61 17 34 18 44 8 68 -8 19 -21 31 -38
34 -15 2 -34 7 -42 10 -8 4 -28 -4 -45 -18z"/>
<path d="M6645 5260 c-4 -12 -5 -24 -2 -27 3 -2 8 5 12 17 4 12 5 24 2 27 -3
2 -8 -5 -12 -17z"/>
<path d="M6574 5186 c-7 -28 2 -49 17 -41 12 8 12 65 -1 65 -5 0 -12 -11 -16
-24z"/>
<path d="M1936 5181 c-10 -11 -30 -23 -45 -26 -31 -7 -116 -92 -145 -144 -28
-50 1 -35 46 25 48 62 96 82 148 60 47 -19 100 -28 100 -16 0 6 -3 10 -8 10
-12 0 -72 58 -72 70 0 17 38 2 87 -33 24 -17 48 -27 57 -24 21 8 21 27 0 27
-9 0 -28 8 -42 18 -30 21 -91 52 -102 52 -4 0 -15 -9 -24 -19z m-16 -46 c-47
-18 -58 -18 -34 0 10 8 30 14 44 14 22 0 21 -2 -10 -14z"/>
<path d="M6417 5183 c-12 -11 -8 -23 8 -23 8 0 15 7 15 15 0 16 -12 20 -23 8z"/>
<path d="M6632 5148 c-10 -37 -6 -50 8 -28 10 15 14 60 5 60 -2 0 -8 -15 -13
-32z"/>
<path d="M6415 5130 c-3 -5 1 -10 9 -10 9 0 16 5 16 10 0 6 -4 10 -9 10 -6 0
-13 -4 -16 -10z"/>
<path d="M2270 5100 c0 -5 9 -14 20 -20 11 -6 20 -7 20 -3 0 5 -9 14 -20 21
-11 7 -20 8 -20 2z"/>
<path d="M6963 5097 c-52 -12 -58 -32 -8 -24 l35 6 -3 -52 c-2 -45 -5 -52 -24
-55 -23 -3 -27 4 -24 40 1 9 -13 28 -31 42 -33 25 -34 25 -88 9 -41 -12 -58
-13 -72 -4 -10 6 -25 11 -34 11 -14 0 -14 -3 -4 -15 21 -25 71 -33 119 -19 38
11 45 11 61 -4 10 -9 20 -33 22 -52 3 -32 6 -35 39 -38 42 -4 61 14 63 60 2
46 26 47 82 4 26 -20 53 -36 62 -36 14 0 14 -9 -4 -99 -4 -23 -3 -32 4 -27 6
3 13 2 17 -4 3 -5 15 -10 26 -10 35 0 67 30 85 81 15 41 25 53 53 65 42 18 48
12 33 -29 -7 -19 -12 -42 -12 -52 0 -11 -21 -41 -47 -67 -26 -26 -45 -50 -42
-52 11 -11 88 71 94 99 9 43 37 105 47 105 4 0 8 -4 8 -8 0 -5 11 -14 25 -20
32 -15 35 -70 5 -97 -11 -10 -20 -24 -20 -30 0 -7 -6 -15 -14 -18 -8 -3 -25
-24 -38 -46 -13 -23 -31 -44 -41 -47 -25 -8 -39 -41 -32 -75 7 -29 8 -30 48
-24 67 10 72 13 98 55 13 22 27 40 31 40 9 0 38 54 38 70 0 5 -4 10 -10 10 -5
0 -10 -7 -10 -15 0 -8 -8 -23 -18 -33 -10 -10 -28 -34 -41 -55 -17 -28 -30
-37 -52 -38 -16 -1 -34 -2 -41 -3 -25 -2 -18 25 11 41 16 10 33 28 36 41 3 13
19 31 35 40 17 9 30 24 30 33 0 9 9 28 20 42 26 33 27 97 0 123 -50 49 -94 65
-133 46 -12 -5 -29 -13 -38 -15 -10 -3 -22 -23 -29 -44 -15 -48 -51 -103 -67
-103 -13 0 -16 17 -17 105 l-1 50 -35 0 c-29 0 -36 4 -38 23 -2 12 -7 22 -12
22 -5 0 -21 11 -37 24 -37 31 -59 35 -110 23z"/>
<path d="M6170 5020 c0 -5 -11 -26 -25 -46 -18 -27 -22 -40 -14 -50 8 -10 14
-9 30 7 33 33 62 21 72 -30 11 -54 3 -98 -23 -131 -16 -20 -20 -21 -20 -8 0
25 -30 37 -67 26 -42 -11 -44 -38 -3 -38 17 0 30 -5 30 -10 0 -6 11 -15 24
-20 13 -5 31 -22 38 -37 9 -18 21 -27 33 -26 11 1 23 -4 27 -10 4 -6 10 -8 15
-4 10 11 -24 63 -38 59 -11 -3 -28 15 -29 29 0 3 11 11 23 16 23 11 26 7 65
-77 47 -99 85 -150 112 -150 10 0 32 11 49 25 l30 26 3 -38 c3 -35 4 -36 20
-20 11 11 19 42 24 87 3 39 10 70 14 70 9 0 0 59 -11 66 -5 3 -9 -10 -9 -29 0
-47 -11 -97 -21 -97 -4 0 -6 24 -4 53 4 47 3 50 -10 33 -14 -19 -15 -18 -15
12 0 27 7 37 35 53 19 12 35 23 35 25 0 2 -18 2 -41 0 -35 -3 -45 -9 -69 -46
-52 -79 -48 -140 9 -140 l26 0 -32 -32 c-27 -27 -34 -29 -47 -18 -9 7 -16 17
-16 21 0 5 -17 38 -39 72 -21 34 -41 78 -45 97 -10 51 27 140 71 168 26 18 33
29 33 55 -1 34 -19 67 -39 67 -15 0 -14 -21 3 -46 17 -24 14 -30 -39 -69 -22
-16 -45 -36 -52 -45 -6 -8 -14 -12 -18 -9 -3 4 8 20 25 37 21 21 30 40 30 62
0 29 -2 32 -26 27 -18 -3 -24 -1 -20 9 10 26 -11 14 -23 -13 -9 -19 -15 -23
-23 -15 -8 8 -17 8 -30 1 -26 -14 -29 -9 -19 29 6 20 6 32 0 32 -5 0 -9 -4 -9
-10z m120 -105 c0 -1 -6 -8 -14 -15 -12 -9 -15 -8 -13 8 0 12 6 18 14 15 7 -3
13 -6 13 -8z m-7 -90 c-19 -26 -49 -44 -37 -22 13 22 37 47 46 47 5 0 1 -11
-9 -25z"/>
<path d="M1879 4997 c-70 -23 -159 -107 -159 -149 0 -10 13 -18 35 -22 58 -11
106 24 159 115 40 71 36 79 -35 56z m11 -27 c0 -5 -5 -10 -11 -10 -5 0 -7 5
-4 10 3 6 8 10 11 10 2 0 4 -4 4 -10z m-40 -51 c0 -6 -4 -7 -10 -4 -5 3 -10
11 -10 16 0 6 5 7 10 4 6 -3 10 -11 10 -16z m-60 -55 c0 -8 -7 -14 -15 -14
-15 0 -21 21 -9 33 10 9 24 -2 24 -19z"/>
<path d="M2210 4979 c0 -31 33 -64 56 -55 9 3 23 1 30 -5 21 -18 17 -3 -13 42
-27 41 -45 40 -23 0 9 -17 8 -21 -5 -21 -9 0 -22 15 -30 33 -14 31 -14 31 -15
6z"/>
<path d="M5971 4980 c-13 -11 -19 -21 -15 -21 5 -1 16 -2 24 -3 8 0 18 -18 23
-38 5 -21 12 -38 17 -38 9 0 100 86 100 95 0 3 -10 -1 -21 -9 -12 -8 -28 -12
-36 -9 -8 3 -19 0 -24 -8 -8 -12 -11 -12 -19 1 -5 8 -10 23 -10 33 0 22 -9 21
-39 -3z"/>
<path d="M6539 4970 c-6 -16 -15 -30 -21 -30 -5 0 -8 -8 -6 -17 2 -13 13 -18
34 -18 24 -1 37 7 58 37 15 21 22 38 16 38 -6 0 -13 -6 -16 -14 -8 -21 -37 -7
-31 15 9 32 -23 22 -34 -11z"/>
<path d="M6079 4973 c-13 -16 -12 -17 4 -4 16 13 21 21 13 21 -2 0 -10 -8 -17
-17z"/>
<path d="M6745 4960 l-30 -6 29 -7 c29 -8 41 -5 35 10 -2 5 -17 6 -34 3z"/>
<path d="M6689 4932 c-8 -9 -25 -32 -38 -50 l-23 -34 28 -29 c15 -16 36 -31
46 -35 23 -7 24 -57 3 -98 -8 -15 -15 -38 -15 -50 0 -12 -6 -31 -14 -42 -24
-31 -50 -7 -56 52 -6 61 -24 64 -27 5 -3 -50 26 -101 58 -101 24 0 62 58 88
136 24 74 22 91 -18 132 -34 34 -39 53 -16 72 16 14 20 46 6 54 -4 3 -15 -2
-22 -12z"/>
<path d="M5957 4917 c-11 -29 -9 -43 4 -30 6 6 9 19 7 29 -3 18 -4 18 -11 1z"/>
<path d="M6480 4900 c0 -11 6 -20 14 -20 9 0 12 7 9 20 -3 11 -9 20 -14 20 -5
0 -9 -9 -9 -20z"/>
<path d="M7040 4911 c1 -3 11 -25 23 -48 l22 -42 0 44 c0 37 -3 44 -22 48 -13
2 -23 1 -23 -2z"/>
<path d="M2346 4887 c3 -10 9 -15 12 -12 3 3 0 11 -7 18 -10 9 -11 8 -5 -6z"/>
<path d="M6440 4883 c0 -13 5 -23 10 -23 13 0 13 11 0 30 -8 12 -10 11 -10 -7z"/>
<path d="M2076 4861 c-11 -12 -13 -21 -7 -25 13 -8 52 15 48 28 -6 18 -23 17
-41 -3z"/>
<path d="M2400 4866 c0 -18 16 -29 30 -21 6 4 5 12 -4 21 -18 18 -26 18 -26 0z"/>
<path d="M3975 4859 c-25 -12 -80 -88 -70 -97 3 -4 15 4 27 18 l20 25 -7 -25
c-3 -14 -9 -33 -12 -42 -9 -28 26 -22 54 10 68 75 60 146 -12 111z m30 -41
c-3 -13 -7 -28 -7 -35 -1 -7 -5 -10 -10 -7 -5 3 -6 14 -3 25 5 14 3 17 -9 13
-9 -3 -16 -2 -16 4 0 11 16 20 39 21 9 1 11 -6 6 -21z"/>
<path d="M7566 4829 c-18 -36 -13 -53 7 -25 9 12 23 17 42 14 46 -5 45 -39 -4
-108 -23 -32 -41 -61 -41 -63 0 -3 10 -7 22 -9 34 -5 34 -28 0 -40 -37 -14
-52 -44 -52 -103 0 -54 -20 -61 -21 -7 l-1 37 -13 -31 c-10 -23 -23 -33 -46
-38 -20 -4 -35 -2 -40 5 -3 6 -9 0 -13 -15 -3 -14 -13 -26 -21 -26 -11 0 -12
6 -5 28 4 15 11 39 14 55 6 24 5 26 -11 16 -13 -8 -18 -24 -18 -59 0 -27 3
-51 6 -55 8 -8 -9 -87 -22 -99 -5 -6 -9 -21 -9 -34 0 -18 -4 -22 -19 -17 -25
7 -34 -9 -38 -62 -2 -49 6 -57 53 -49 25 5 35 13 40 32 3 13 13 28 22 33 11 6
17 23 17 47 0 36 2 38 30 39 36 0 44 28 21 74 -22 42 -20 58 10 65 19 5 33 2
48 -12 37 -33 81 -56 99 -54 10 2 17 -3 17 -12 0 -9 4 -16 10 -16 6 0 6 -9 0
-25 -8 -21 -6 -29 10 -42 11 -10 20 -25 20 -35 0 -10 5 -18 10 -18 12 0 3 -48
-12 -67 -6 -7 -22 -19 -37 -26 -23 -11 -32 -11 -66 5 -51 22 -68 22 -88 0 -23
-25 -21 -38 10 -77 19 -24 33 -33 45 -29 10 3 18 1 18 -5 0 -6 -4 -11 -10 -11
-20 0 -9 -21 16 -32 22 -10 28 -10 40 6 11 16 16 17 44 5 25 -12 30 -19 28
-44 -3 -26 1 -31 30 -40 48 -16 59 -31 39 -53 -23 -25 -22 -78 2 -99 52 -49
86 -61 147 -54 20 2 25 -45 9 -82 -13 -31 -13 -41 1 -88 12 -40 13 -58 5 -76
-20 -44 -13 -67 39 -117 55 -53 76 -56 40 -6 -18 26 -21 39 -15 77 5 34 4 43
-6 38 -9 -6 -10 2 -5 34 4 24 2 50 -5 62 -7 14 -7 34 -1 65 6 27 6 47 0 50 -5
3 -6 14 -3 25 3 10 8 28 11 39 7 27 -13 26 -21 -1 -12 -38 -16 -12 -5 36 6 29
7 52 2 57 -6 6 -12 -11 -16 -42 -4 -31 -11 -48 -17 -44 -6 4 -8 22 -4 46 5 29
4 39 -4 34 -6 -4 -11 -21 -11 -37 0 -17 -4 -28 -10 -24 -5 3 -7 19 -3 35 3 18
1 30 -5 30 -6 0 -12 8 -15 18 -2 10 -9 -2 -17 -30 -15 -59 -35 -53 -26 8 3 24
2 45 -3 48 -4 3 -6 19 -3 37 3 17 0 34 -7 38 -7 5 -8 17 -1 41 12 43 13 67 2
55 -17 -20 -35 -99 -23 -103 6 -2 11 -11 11 -19 0 -14 -3 -14 -19 1 -15 13
-18 24 -12 39 14 38 22 97 13 97 -4 0 -14 -27 -20 -60 -10 -49 -16 -60 -32
-60 -15 0 -20 7 -20 24 0 32 18 43 22 14 3 -15 9 -2 17 35 18 82 8 88 -36 20
-10 -15 -11 -11 -7 22 4 40 -4 32 -21 -20 -6 -19 -7 -19 -19 -2 -17 22 -33 22
-46 -3 -6 -11 -17 -20 -25 -20 -22 0 -18 18 5 30 14 8 19 17 15 33 -5 17 0 25
22 34 15 7 39 23 53 36 14 13 32 26 41 29 9 4 19 16 22 28 4 15 2 20 -8 17 -9
-4 -14 7 -18 36 -3 23 -13 47 -22 53 -9 7 -15 21 -14 31 8 49 -36 102 -78 94
-7 -1 -14 8 -14 21 -1 18 -2 19 -6 5 -6 -23 -28 -16 -28 9 0 15 8 20 38 22 40
3 32 -7 121 158 15 30 23 35 48 32 23 -2 36 -12 52 -40 21 -37 21 -37 2 -70
-11 -18 -30 -44 -43 -57 -21 -22 -23 -22 -24 -5 -1 11 -5 3 -9 -16 -4 -19 -11
-50 -15 -69 -6 -25 -5 -32 4 -27 6 4 18 2 26 -4 14 -12 95 -9 143 6 12 3 22 2
22 -3 0 -14 46 -33 80 -33 17 0 30 -5 30 -12 0 -8 5 -7 15 3 15 15 11 54 -5
44 -4 -3 -11 6 -14 20 -9 37 -27 31 -19 -6 6 -31 5 -32 -23 -25 -16 4 -35 16
-43 26 -14 21 -51 27 -51 9 0 -5 -8 -9 -17 -8 -10 1 -25 -1 -35 -5 -9 -4 -29
-6 -45 -4 -23 2 -29 8 -31 35 -2 25 3 37 24 55 85 72 93 99 45 165 -35 48 -82
62 -113 31 -10 -10 -18 -24 -18 -31 0 -8 -8 -22 -19 -31 -10 -9 -26 -37 -36
-61 -15 -41 -20 -45 -51 -45 -37 0 -46 19 -18 42 8 7 23 21 32 32 9 10 23 25
30 32 17 17 9 44 -13 44 -22 0 -19 16 14 63 16 23 31 51 33 62 6 29 -19 75
-41 75 -11 0 -26 3 -34 6 -10 3 -20 -6 -31 -27z m-151 -471 c-7 -31 -30 -67
-38 -57 -5 5 32 89 39 89 3 0 3 -15 -1 -32z m-32 -131 c-20 -22 -28 -9 -18 31
6 26 7 26 21 8 12 -17 12 -22 -3 -39z m-43 -48 c0 -5 -7 -9 -15 -9 -15 0 -20
12 -9 23 8 8 24 -1 24 -14z m199 -84 c4 -17 0 -35 -9 -35 -5 0 -10 12 -10 26
0 21 14 28 19 9z m33 -37 c-8 -8 -9 -4 -5 13 4 13 8 18 11 10 2 -7 -1 -18 -6
-23z m217 -266 c1 -7 -3 -10 -9 -7 -5 3 -10 21 -9 38 1 31 1 31 9 7 4 -14 8
-31 9 -38z m71 -22 c0 -11 -4 -20 -9 -20 -5 0 -7 9 -4 20 3 11 7 20 9 20 2 0
4 -9 4 -20z m76 -208 c-13 -12 -17 8 -10 40 l9 33 3 -33 c2 -19 1 -36 -2 -40z
m8 -37 c-4 -8 -8 -15 -10 -15 -2 0 -4 7 -4 15 0 8 4 15 10 15 5 0 7 -7 4 -15z
m-4 -96 c0 -5 5 -7 10 -4 11 7 14 -38 3 -48 -3 -4 -12 -2 -20 4 -15 13 -18 59
-3 59 6 0 10 -5 10 -11z"/>
<path d="M2540 4843 c1 -12 71 -63 87 -63 19 0 16 14 -6 25 -10 6 -33 18 -50
28 -17 10 -31 14 -31 10z"/>
<path d="M6935 4828 c-2 -13 -6 -39 -8 -58 l-4 -35 -1 38 c-2 48 -31 53 -34 5
-2 -58 -3 -61 -15 -65 -7 -3 -10 3 -8 14 12 60 13 83 5 83 -5 0 -11 -17 -13
-37 l-4 -38 -1 43 c-3 68 -22 49 -22 -22 0 -36 -4 -67 -10 -71 -5 -3 -7 15 -4
47 l6 53 -18 -30 c-13 -22 -18 -53 -19 -115 -2 -79 -17 -140 -36 -140 -5 0 -4
12 2 27 6 16 12 57 14 93 4 62 4 64 -11 37 -8 -15 -15 -52 -16 -83 -1 -49 -3
-54 -15 -38 -7 9 -15 15 -18 12 -9 -9 22 -78 35 -78 13 0 60 45 60 59 0 5 18
0 40 -10 33 -16 40 -24 40 -49 0 -35 -7 -39 -18 -9 l-8 21 -26 -23 c-29 -26
-46 -69 -29 -69 6 0 11 9 11 20 0 10 9 24 19 30 27 14 31 13 31 -11 0 -14 5
-19 18 -17 30 6 20 77 -16 109 -82 73 -67 151 33 170 40 7 52 6 67 -8 22 -20
23 -42 3 -82 -8 -17 -22 -45 -30 -62 -17 -34 -14 -43 28 -78 l28 -24 -37 -38
c-29 -30 -35 -43 -30 -63 3 -13 1 -28 -4 -31 -6 -4 -8 -11 -4 -16 3 -5 10 -6
16 -3 6 4 26 8 45 9 25 1 44 12 72 42 46 47 55 71 52 139 -3 58 6 69 63 79
l38 8 -7 -49 c-4 -27 -6 -77 -6 -111 0 -35 -3 -63 -8 -63 -21 0 -71 -53 -71
-76 0 -35 38 -56 80 -44 18 5 36 13 39 18 12 16 61 42 81 42 13 0 20 7 20 19
0 10 3 34 6 52 4 26 3 30 -5 19 -6 -8 -11 -25 -11 -37 0 -14 -6 -23 -16 -23
-10 0 -14 6 -10 18 3 9 8 31 11 47 l5 30 -14 -30 c-9 -16 -15 -40 -16 -51 0
-12 -11 -29 -25 -38 -34 -22 -43 -20 -18 4 28 26 39 97 27 182 -5 37 -6 77 -2
87 4 11 3 23 -3 26 -5 4 -12 -7 -15 -24 -4 -17 -11 -31 -16 -31 -6 0 -8 13 -4
33 4 17 9 48 11 67 4 31 3 31 -3 6 -11 -45 -32 -45 -33 1 l-1 38 -9 -40 c-10
-40 -24 -63 -34 -54 -2 3 -1 20 4 37 6 19 6 34 0 37 -5 4 -10 -4 -10 -17 -1
-19 -3 -17 -8 7 -6 28 -7 26 -20 -28 -8 -32 -19 -56 -25 -54 -6 2 -10 11 -8
21 2 9 -2 16 -8 16 -5 0 -10 -17 -10 -39 0 -21 -6 -56 -13 -77 -7 -22 -13 -45
-13 -51 -3 -44 -5 -53 -15 -53 -5 0 -8 4 -5 9 4 5 7 29 8 53 0 23 5 54 10 67
5 13 10 62 13 109 3 74 2 82 -10 66 -14 -18 -14 -17 -15 9 0 15 -4 27 -9 27
-6 0 -12 -12 -14 -27 -3 -22 -4 -22 -1 2 1 17 6 42 9 58 5 16 3 27 -3 27 -5 0
-13 -16 -16 -35 -4 -19 -11 -35 -16 -35 -5 0 -5 14 1 32 5 18 9 46 8 63 l-1
30 -10 -35 c-6 -19 -13 -42 -16 -50 -3 -8 -4 -18 -4 -22 1 -5 -2 -8 -6 -8 -5
0 -7 29 -5 65 4 65 -2 86 -12 43z m95 -298 c0 -16 -4 -30 -10 -30 -5 0 -10 14
-10 30 0 17 5 30 10 30 6 0 10 -13 10 -30z m-53 -22 c-3 -8 -6 -5 -6 6 -1 11
2 17 5 13 3 -3 4 -12 1 -19z m265 -42 c-6 -13 -8 -33 -5 -45 3 -13 1 -21 -7
-21 -7 0 -11 16 -9 48 3 56 8 67 22 53 7 -7 7 -18 -1 -35z m-167 -32 c-1 -14
-8 -31 -14 -37 -10 -9 -11 -5 -5 18 12 50 24 63 19 19z m-65 -41 c-18 -71 -20
-76 -26 -70 -3 3 2 33 12 66 21 70 32 74 14 4z m230 -29 c0 -8 -4 -12 -10 -9
-5 3 -10 10 -10 16 0 5 5 9 10 9 6 0 10 -7 10 -16z m-28 -64 c-2 -17 -8 -33
-14 -36 -5 -3 -6 6 -2 23 12 50 23 59 16 13z m-34 -30 c-1 -18 -6 -30 -15 -30
-16 0 -17 32 -1 48 16 16 17 16 16 -18z"/>
<path d="M2375 4820 c3 -5 13 -10 21 -10 8 0 12 5 9 10 -3 6 -13 10 -21 10 -8
0 -12 -4 -9 -10z"/>
<path d="M7240 4795 c-7 -9 -8 -15 -2 -15 5 0 12 7 16 15 3 8 4 15 2 15 -2 0
-9 -7 -16 -15z"/>
<path d="M2445 4790 c-5 -9 41 -50 56 -50 5 0 9 6 9 13 0 15 -58 49 -65 37z"/>
<path d="M2670 4781 c0 -13 61 -63 68 -56 6 6 -48 65 -60 65 -4 0 -8 -4 -8 -9z"/>
<path d="M6650 4776 c0 -2 7 -6 15 -10 8 -3 15 -1 15 4 0 6 -7 10 -15 10 -8 0
-15 -2 -15 -4z"/>
<path d="M2331 4746 c-15 -18 -2 -27 27 -19 26 6 28 18 6 27 -21 8 -20 8 -33
-8z"/>
<path d="M6573 4747 c-9 -14 13 -29 38 -25 13 1 25 10 27 19 2 12 -5 16 -28
15 -18 -1 -34 -5 -37 -9z"/>
<path d="M7170 4735 c-15 -18 -37 -19 -43 -2 -3 7 -6 5 -6 -6 -1 -24 27 -33
42 -14 7 8 21 19 32 25 16 9 17 11 4 12 -9 0 -22 -7 -29 -15z"/>
<path d="M2607 4719 c11 -12 29 -19 39 -17 16 3 13 7 -13 21 -43 23 -52 21
-26 -4z"/>
<path d="M2090 4702 c0 -13 30 -52 41 -52 16 0 10 25 -11 43 -22 19 -30 21
-30 9z"/>
<path d="M1912 4673 c2 -9 9 -18 16 -21 18 -6 15 25 -4 32 -11 4 -14 1 -12
-11z"/>
<path d="M2200 4681 c0 -16 31 -42 41 -35 6 4 3 14 -7 25 -18 20 -34 25 -34
10z"/>
<path d="M1995 4670 c-10 -16 16 -43 28 -31 11 11 2 41 -12 41 -5 0 -13 -5
-16 -10z"/>
<path d="M2550 4660 c0 -5 4 -10 9 -10 6 0 13 5 16 10 3 6 -1 10 -9 10 -9 0
-16 -4 -16 -10z"/>
<path d="M1826 4636 c3 -9 11 -16 16 -16 13 0 5 23 -10 28 -7 2 -10 -2 -6 -12z"/>
<path d="M2460 4625 c13 -16 50 -21 50 -6 0 5 -10 11 -22 15 -36 9 -41 7 -28
-9z"/>
<path d="M1740 4615 c0 -8 5 -15 10 -15 6 0 10 7 10 15 0 8 -4 15 -10 15 -5 0
-10 -7 -10 -15z"/>
<path d="M2770 4615 c0 -8 16 -19 35 -25 55 -18 62 -7 11 17 -34 15 -46 17
-46 8z"/>
<path d="M6261 4602 c-12 -22 11 -62 35 -62 17 0 19 51 2 68 -17 17 -26 15
-37 -6z"/>
<path d="M2895 4600 c3 -5 13 -10 22 -10 8 0 31 -17 49 -37 43 -46 45 -26 3
22 -20 22 -40 35 -56 35 -13 0 -21 -4 -18 -10z"/>
<path d="M7510 4600 c0 -5 5 -10 10 -10 6 0 10 5 10 10 0 6 -4 10 -10 10 -5 0
-10 -4 -10 -10z"/>
<path d="M2686 4591 c-3 -5 0 -13 7 -18 24 -18 97 -46 104 -40 8 8 9 7 -49 40
-52 30 -54 31 -62 18z"/>
<path d="M3040 4562 c0 -12 91 -94 98 -88 2 3 -1 13 -8 21 -22 26 -90 77 -90
67z"/>
<path d="M2290 4543 c-83 -32 -127 -127 -121 -268 2 -65 33 -169 66 -225 66
-114 108 -171 173 -238 40 -41 89 -94 109 -118 31 -39 122 -102 241 -170 21
-11 69 -31 107 -43 39 -12 88 -31 110 -41 22 -11 81 -31 130 -46 50 -15 101
-33 115 -40 68 -34 134 -56 138 -45 6 17 59 13 88 -6 20 -13 56 -17 157 -20
141 -4 177 0 177 20 0 9 -37 12 -147 11 -82 -1 -126 1 -99 5 27 3 51 11 53 18
6 18 -27 32 -124 52 -111 23 -211 55 -288 91 -33 16 -78 34 -100 40 -53 16
-115 59 -126 87 -5 13 -17 26 -26 29 -101 31 -173 65 -281 131 -41 25 -16 25
35 0 26 -13 73 -30 103 -37 52 -11 172 -67 251 -116 53 -33 129 -57 143 -45 7
6 16 7 22 2 9 -9 49 -26 166 -71 71 -27 66 -44 -10 -34 -68 8 -61 -7 11 -25
47 -11 87 -3 87 18 0 18 -92 71 -123 71 -7 0 -22 6 -32 14 -16 12 -14 13 28
12 91 -1 74 29 -23 38 -36 4 -85 12 -109 17 -28 6 -46 6 -50 0 -11 -18 -169
49 -273 116 -24 15 -49 26 -55 25 -18 -4 -89 21 -162 57 -58 28 -66 29 -61 6
1 -5 -4 -4 -11 3 -15 14 -39 16 -39 3 0 -9 113 -101 124 -101 7 0 90 -56 144
-97 24 -18 51 -33 59 -33 13 0 76 -30 237 -113 21 -11 53 -23 70 -28 17 -4 63
-19 101 -33 39 -14 85 -26 104 -26 29 0 107 -18 161 -38 26 -9 -100 -20 -137
-12 -19 5 -42 6 -49 3 -8 -3 -21 0 -29 7 -8 6 -18 9 -23 6 -12 -7 -114 42
-132 64 -15 17 -154 81 -175 79 -5 0 26 -18 70 -40 43 -21 75 -39 70 -39 -15
0 -101 27 -137 43 -98 42 -95 40 -70 45 12 2 22 7 22 12 0 5 -10 12 -22 16
-76 23 -281 138 -305 171 -14 18 -30 12 -18 -7 10 -17 137 -99 217 -141 86
-46 94 -54 43 -44 -57 10 -270 152 -326 217 -24 29 -65 74 -91 101 -27 27 -48
53 -48 59 0 5 -4 6 -10 3 -5 -3 -27 20 -48 52 -20 32 -52 78 -70 102 -44 61
-64 137 -67 253 -3 126 17 178 80 208 38 18 49 20 87 10 65 -17 112 -33 126
-44 19 -14 23 -3 10 32 -13 34 -16 36 -36 23 -8 -5 -29 -3 -50 5 -38 13 -105
17 -132 7z"/>
<path d="M6240 4528 c0 -15 5 -30 11 -33 18 -12 20 1 4 31 l-15 29 0 -27z"/>
<path d="M6180 4506 c0 -14 5 -28 10 -31 6 -3 10 5 10 19 0 14 -4 28 -10 31
-6 3 -10 -5 -10 -19z"/>
<path d="M7702 4485 c0 -16 2 -22 5 -12 2 9 2 23 0 30 -3 6 -5 -1 -5 -18z"/>
<path d="M7884 4485 c-4 -8 -12 -15 -20 -15 -17 0 -19 -16 -3 -25 6 -4 20 2
32 13 22 20 23 20 56 1 44 -24 54 -14 18 17 -32 27 -75 32 -83 9z"/>
<path d="M1885 4481 c-9 -16 17 -61 37 -61 25 0 24 46 -1 60 -24 12 -28 12
-36 1z"/>
<path d="M1980 4476 c0 -18 16 -29 30 -21 13 8 1 35 -16 35 -8 0 -14 -6 -14
-14z"/>
<path d="M2894 4477 c11 -7 28 -20 38 -29 23 -23 28 -22 28 0 0 19 -38 42 -68
41 -15 0 -15 -2 2 -12z"/>
<path d="M2970 4482 c0 -10 60 -45 66 -39 5 5 -49 47 -60 47 -3 0 -6 -4 -6 -8z"/>
<path d="M3200 4460 c36 -30 50 -36 50 -22 0 11 -56 52 -72 52 -7 0 3 -13 22
-30z"/>
<path d="M2852 4425 c21 -19 43 -35 50 -35 7 0 -4 16 -24 35 -21 19 -43 35
-50 35 -7 0 4 -16 24 -35z"/>
<path d="M2250 4399 c0 -5 5 -7 10 -4 6 3 10 8 10 11 0 2 -4 4 -10 4 -5 0 -10
-5 -10 -11z"/>
<path d="M2730 4384 c15 -40 12 -46 -16 -28 -18 13 -28 14 -36 6 -9 -9 -2 -15
25 -27 45 -19 57 -19 57 -1 0 23 -21 76 -31 76 -5 0 -4 -12 1 -26z"/>
<path d="M3280 4396 c0 -7 16 -26 35 -40 43 -33 46 -18 5 24 -33 33 -40 36
-40 16z"/>
<path d="M6193 4394 c3 -11 11 -41 17 -69 14 -53 30 -81 30 -51 0 29 -30 125
-42 132 -6 4 -8 -1 -5 -12z"/>
<path d="M2560 4390 c0 -13 28 -25 38 -16 3 4 0 11 -8 16 -20 13 -30 12 -30 0z"/>
<path d="M6844 4378 c-5 -7 -2 -9 8 -5 9 3 21 0 27 -6 8 -8 11 -8 11 0 0 6 -7
14 -16 17 -21 8 -22 8 -30 -6z"/>
<path d="M3030 4371 c0 -5 5 -13 10 -16 6 -3 10 -2 10 4 0 5 -4 13 -10 16 -5
3 -10 2 -10 -4z"/>
<path d="M1757 4363 c-13 -13 -7 -100 8 -113 11 -9 19 -7 40 14 34 34 33 106
-2 106 -11 0 -13 -4 -5 -12 13 -17 3 -80 -12 -75 -6 2 -10 21 -8 46 3 38 -5
51 -21 34z"/>
<path d="M2233 4362 c-7 -5 -9 -13 -4 -21 12 -19 30 -10 22 11 -3 10 -11 14
-18 10z"/>
<path d="M6820 4350 c-13 -8 -12 -10 3 -10 9 0 17 5 17 10 0 12 -1 12 -20 0z"/>
<path d="M2430 4335 c0 -8 -11 -17 -25 -21 -14 -3 -25 -10 -25 -14 0 -4 11
-10 25 -12 19 -4 25 -1 25 13 0 11 5 19 10 19 6 0 10 7 10 15 0 8 -4 15 -10
15 -5 0 -10 -7 -10 -15z"/>
<path d="M3120 4316 c0 -14 29 -31 38 -21 6 6 -18 35 -29 35 -5 0 -9 -6 -9
-14z"/>
<path d="M1917 4314 c-8 -8 2 -54 16 -71 15 -21 27 -15 42 19 16 39 12 48 -15
41 -11 -3 -20 0 -20 6 0 12 -13 15 -23 5z"/>
<path d="M2293 4273 c1 -21 8 -38 16 -41 10 -3 12 0 8 12 -4 10 -7 29 -7 42 0
13 -4 24 -9 24 -5 0 -8 -17 -8 -37z"/>
<path d="M2910 4297 c0 -10 -8 -13 -27 -9 -25 4 -26 3 -13 -11 8 -8 25 -18 38
-22 19 -5 22 -3 22 19 0 14 -4 28 -10 31 -5 3 -10 0 -10 -8z"/>
<path d="M8043 4303 c-7 -3 -13 -14 -13 -25 0 -16 -5 -19 -24 -14 -16 4 -29 0
-41 -14 -10 -11 -24 -20 -31 -20 -33 0 -70 -89 -44 -105 16 -10 12 -28 -4 -22
-10 4 -13 1 -10 -8 7 -17 57 -10 93 12 34 21 81 65 81 75 0 16 -17 8 -58 -28
-25 -21 -49 -34 -57 -30 -16 6 -20 43 -7 62 10 15 71 44 92 44 27 0 55 37 44
59 -5 10 -15 16 -21 14z"/>
<path d="M7880 4280 c-12 -23 -35 -27 -26 -5 3 8 1 15 -4 15 -6 0 -10 -4 -10
-10 0 -5 -7 -7 -16 -3 -18 7 -34 -13 -33 -42 1 -17 2 -16 8 4 4 14 13 27 20
29 9 3 11 0 6 -8 -6 -10 -4 -12 8 -7 9 3 17 1 20 -6 2 -8 12 -6 32 7 26 17 29
18 41 2 8 -12 14 -14 19 -6 11 17 -15 41 -38 34 -13 -4 -17 -2 -13 5 4 6 5 11
2 11 -3 0 -10 -9 -16 -20z"/>
<path d="M3226 4277 c5 -14 44 -41 50 -35 2 2 -3 14 -12 26 -16 23 -47 31 -38
9z"/>
<path d="M3452 4263 c15 -15 31 -24 34 -20 10 10 -26 47 -45 47 -11 0 -8 -7
11 -27z"/>
<path d="M2758 4248 c12 -12 25 -18 29 -14 4 4 -1 14 -11 22 -31 22 -43 17
-18 -8z"/>
<path d="M2720 4249 c0 -8 6 -21 13 -28 10 -11 7 -12 -15 -7 -14 3 -33 9 -42
12 -19 7 -21 -9 -3 -24 12 -10 40 -16 63 -13 21 2 23 29 3 52 -13 15 -19 18
-19 8z"/>
<path d="M3360 4242 c0 -4 11 -20 25 -37 24 -30 34 -20 15 14 -10 19 -40 36
-40 23z"/>
<path d="M6555 4223 c9 -37 23 -53 48 -53 l20 0 -20 23 c-11 12 -23 30 -26 40
-11 29 -30 20 -22 -10z"/>
<path d="M3047 4233 c-14 -4 -16 -8 -6 -19 17 -20 39 -17 39 6 0 20 -2 21 -33
13z"/>
<path d="M2100 4202 c0 -12 -4 -22 -10 -22 -5 0 -10 7 -10 15 0 8 -4 15 -10
15 -5 0 -10 -6 -10 -14 0 -28 12 -46 31 -46 22 0 37 46 20 63 -8 8 -11 5 -11
-11z"/>
<path d="M2265 4210 c-8 -12 13 -52 24 -46 10 7 2 56 -10 56 -4 0 -11 -4 -14
-10z"/>
<path d="M8090 4191 c6 -12 21 -26 32 -30 13 -5 26 -23 34 -50 11 -40 11 -43
-13 -67 -24 -24 -27 -24 -78 -14 -58 12 -87 4 -99 -26 -10 -27 4 -36 30 -20
30 20 73 20 94 1 16 -14 21 -11 59 30 26 28 41 54 41 71 0 43 -29 92 -63 105
-18 7 -36 15 -40 17 -5 2 -4 -5 3 -17z"/>
<path d="M2595 4181 c6 -20 4 -23 -9 -18 -44 18 -50 18 -26 -2 14 -11 31 -21
38 -21 21 0 26 30 7 48 -16 16 -17 16 -10 -7z"/>
<path d="M1827 4159 c-10 -39 16 -119 40 -119 8 0 21 16 29 36 12 30 13 42 3
65 -16 41 -25 36 -21 -11 2 -22 0 -40 -6 -40 -11 0 -22 33 -22 68 0 28 -16 29
-23 1z"/>
<path d="M2867 4173 c-13 -12 -7 -33 8 -33 8 0 15 9 15 20 0 20 -11 26 -23 13z"/>
<path d="M2990 4162 c0 -10 22 -32 32 -32 15 0 8 15 -12 28 -11 7 -20 9 -20 4z"/>
<path d="M3100 4162 c0 -10 22 -32 32 -32 15 0 8 28 -8 34 -21 8 -24 8 -24 -2z"/>
<path d="M3277 4155 c-14 -10 -15 -14 -3 -24 10 -8 16 -8 24 2 17 20 1 38 -21
22z"/>
<path d="M3190 4151 c0 -13 29 -35 37 -28 7 8 -15 37 -28 37 -5 0 -9 -4 -9 -9z"/>
<path d="M3436 4142 c12 -10 26 -28 33 -40 11 -21 31 -22 31 -1 0 17 -48 59
-67 59 -16 -1 -16 -2 3 -18z"/>
<path d="M1758 4073 c4 -51 3 -56 -11 -45 -8 7 -18 28 -21 47 -11 56 -30 43
-23 -15 7 -61 12 -70 37 -70 34 0 50 57 34 118 -12 42 -21 22 -16 -35z"/>
<path d="M3583 4103 c-10 -4 -10 -10 -1 -26 6 -12 12 -31 13 -42 4 -36 34 -97
45 -90 6 3 8 12 4 18 -7 15 17 -15 32 -40 7 -10 15 -15 19 -11 10 9 -38 76
-51 71 -7 -2 -14 16 -18 45 -7 53 -24 82 -43 75z"/>
<path d="M2372 4078 c5 -15 58 -24 58 -10 0 11 -24 22 -47 22 -8 0 -13 -6 -11
-12z"/>
<path d="M2593 4075 c-7 -8 -13 -19 -13 -26 0 -6 -8 -9 -20 -6 -15 4 -20 0
-20 -15 0 -13 4 -17 13 -11 6 4 20 6 29 5 19 -3 53 42 43 58 -8 13 -17 12 -32
-5z"/>
<path d="M2870 4075 c0 -8 4 -15 9 -15 5 0 18 -3 28 -7 17 -6 17 -5 -1 15 -22
26 -36 28 -36 7z"/>
<path d="M3126 4075 c7 -17 -11 -21 -21 -5 -3 6 -11 10 -17 10 -6 0 -1 -11 12
-25 27 -29 36 -31 44 -10 6 18 -2 45 -15 45 -4 0 -6 -7 -3 -15z"/>
<path d="M2010 4065 c0 -24 22 -64 39 -70 21 -8 51 29 44 55 -8 32 -24 35 -21
4 4 -38 -18 -41 -30 -4 -11 31 -32 41 -32 15z"/>
<path d="M2796 4059 c-15 -9 -16 -13 -5 -20 18 -11 59 -12 59 -1 0 9 -21 32
-29 32 -4 0 -14 -5 -25 -11z"/>
<path d="M3190 4055 c-10 -12 -8 -16 11 -24 28 -10 44 6 27 26 -14 17 -23 16
-38 -2z"/>
<path d="M2693 4025 c5 -13 59 -13 64 1 2 6 -11 10 -32 10 -19 -1 -33 -5 -32
-11z"/>
<path d="M2471 4011 c-11 -20 11 -62 25 -49 4 4 1 14 -6 23 -20 24 5 18 38
-10 26 -21 68 -37 49 -18 -4 3 -2 12 4 20 9 10 6 13 -12 13 -13 0 -39 9 -56
20 -31 19 -33 19 -42 1z"/>
<path d="M2960 4010 c0 -5 5 -10 10 -10 6 0 10 5 10 10 0 6 -4 10 -10 10 -5 0
-10 -4 -10 -10z"/>
<path d="M3520 4014 c0 -3 6 -12 14 -20 8 -7 16 -19 19 -26 2 -7 8 -10 12 -6
9 9 -21 58 -35 58 -6 0 -10 -3 -10 -6z"/>
<path d="M7926 3988 c-18 -25 -20 -38 -7 -38 5 0 14 14 20 30 12 36 8 38 -13
8z"/>
<path d="M2827 3993 c-12 -11 -8 -23 8 -23 8 0 15 7 15 15 0 16 -12 20 -23 8z"/>
<path d="M2410 3982 c0 -12 106 -113 116 -111 5 2 19 -1 32 -5 14 -5 28 -3 37
4 10 8 16 7 23 -5 11 -21 46 -16 50 8 3 12 -3 17 -20 16 -13 -1 -36 3 -51 10
-36 14 -50 14 -41 0 4 -7 -2 -9 -17 -7 -18 2 -23 9 -22 26 2 15 -3 22 -15 22
-10 0 -33 11 -52 25 -37 27 -40 29 -40 17z"/>
<path d="M1916 3971 c-21 -33 31 -128 56 -103 14 14 21 72 9 72 -6 0 -11 -7
-11 -15 0 -8 -4 -15 -10 -15 -5 0 -10 8 -10 18 0 27 -25 58 -34 43z"/>
<path d="M2740 3963 c1 -38 110 -75 110 -38 0 10 -10 15 -33 15 -18 0 -43 7
-55 16 -12 8 -22 12 -22 7z"/>
<path d="M7452 3958 c-20 -20 -14 -24 33 -23 25 0 45 3 45 7 0 18 -63 31 -78
16z"/>
<path d="M7944 3945 c-7 -17 14 -48 26 -40 10 6 0 55 -11 55 -6 0 -12 -7 -15
-15z"/>
<path d="M1686 3925 c-7 -19 10 -65 25 -65 6 0 8 7 5 16 -3 9 -6 27 -6 40 0
27 -15 32 -24 9z"/>
<path d="M2660 3925 c0 -31 76 -48 87 -19 8 22 -15 43 -27 24 -8 -12 -13 -13
-30 -2 -25 16 -30 15 -30 -3z"/>
<path d="M3372 3921 c7 -11 19 -23 27 -26 11 -5 11 -2 -1 17 -20 30 -45 39
-26 9z"/>
<path d="M7562 3901 c0 -22 -10 -60 -22 -86 -18 -37 -20 -48 -10 -61 11 -13
15 -13 30 1 10 9 30 17 46 18 15 1 30 9 32 16 4 11 -5 13 -42 8 -51 -7 -51 -8
-13 47 16 23 18 32 9 47 -7 10 -12 26 -12 34 0 8 -4 15 -9 15 -6 0 -10 -18 -9
-39z"/>
<path d="M6600 3909 c0 -11 5 -17 10 -14 6 3 10 13 10 21 0 8 -4 14 -10 14 -5
0 -10 -9 -10 -21z"/>
<path d="M8123 3916 c-12 -9 -27 -14 -35 -11 -7 3 -20 0 -28 -5 -13 -8 -13
-11 2 -26 16 -16 19 -16 56 10 46 31 82 28 102 -9 20 -37 15 -73 -12 -98 -14
-13 -27 -30 -30 -38 -4 -11 -10 -9 -30 9 -13 12 -31 22 -39 22 -23 0 -59 -43
-59 -71 0 -37 18 -49 76 -49 95 0 132 -31 79 -66 -14 -9 -25 -22 -25 -30 0
-21 -22 -28 -35 -11 -13 18 -30 24 -20 6 4 -5 0 -18 -9 -27 -34 -39 23 -98 83
-86 25 5 29 3 34 -23 6 -33 6 -32 -22 -38 -27 -5 -73 -40 -64 -49 10 -10 53
-7 53 4 0 6 12 21 26 33 22 20 25 27 19 60 -7 35 -10 38 -39 36 -37 -3 -72 14
-62 30 4 6 13 11 20 11 18 0 96 95 96 117 0 41 -22 54 -95 56 -63 2 -70 4 -73
23 -2 11 3 26 11 32 11 9 18 8 32 -8 23 -25 51 -26 65 0 6 11 22 31 35 44 34
35 35 103 1 135 -31 29 -84 37 -113 17z"/>
<path d="M3450 3912 c0 -12 19 -26 26 -19 2 2 -2 10 -11 17 -9 8 -15 8 -15 2z"/>
<path d="M8008 3908 c9 -9 15 -9 24 0 9 9 7 12 -12 12 -19 0 -21 -3 -12 -12z"/>
<path d="M2950 3902 c0 -5 7 -15 15 -22 8 -7 15 -17 15 -23 0 -13 -74 -1 -112
19 -16 9 -33 12 -36 8 -4 -4 -1 -9 6 -11 6 -3 12 -10 12 -16 0 -6 10 -21 22
-34 12 -13 19 -25 17 -28 -5 -4 -50 11 -109 37 -19 8 -36 14 -38 13 -1 -1 16
-21 38 -45 26 -28 40 -38 40 -27 0 14 4 15 25 5 13 -6 22 -15 19 -19 -3 -5 1
-6 9 -3 8 3 43 -8 78 -25 79 -36 147 -53 168 -41 13 7 11 11 -12 19 -16 6 -32
11 -36 11 -38 0 -115 36 -146 68 -38 40 -45 58 -17 47 95 -40 163 -58 174 -47
9 9 7 13 -8 18 -23 8 -64 44 -64 56 0 4 7 8 15 8 8 0 15 7 15 15 0 9 -9 15
-22 15 -13 0 -33 3 -45 6 -13 4 -23 2 -23 -4z"/>
<path d="M3305 3881 c7 -23 7 -23 -16 -7 -25 17 -39 20 -39 9 0 -9 57 -43 71
-43 14 0 10 23 -7 45 -16 20 -16 19 -9 -4z"/>
<path d="M2098 3884 c-8 -8 1 -64 15 -94 8 -17 20 -25 37 -25 39 0 39 39 1 74
-17 16 -31 34 -31 40 0 12 -13 15 -22 5z m52 -69 c0 -8 -2 -15 -4 -15 -2 0 -6
7 -10 15 -3 8 -1 15 4 15 6 0 10 -7 10 -15z"/>
<path d="M6340 3880 c0 -14 41 -70 52 -70 15 0 8 15 -22 48 -16 18 -30 28 -30
22z"/>
<path d="M2301 3822 c-13 -24 11 -62 40 -62 28 0 22 47 -8 67 -19 13 -23 13
-32 -5z"/>
<path d="M1794 3771 c11 -83 22 -103 53 -99 19 2 32 12 41 30 11 24 10 33 -7
67 -23 44 -48 67 -39 35 3 -10 13 -35 22 -56 13 -31 13 -38 1 -48 -17 -14 -40
18 -49 72 -11 61 -30 60 -22 -1z"/>
<path d="M3160 3791 c0 -5 7 -12 16 -15 24 -9 28 -7 14 9 -14 17 -30 20 -30 6z"/>
<path d="M3260 3780 c0 -5 5 -10 10 -10 6 0 10 5 10 10 0 6 -4 10 -10 10 -5 0
-10 -4 -10 -10z"/>
<path d="M3580 3762 c0 -5 11 -14 25 -20 26 -12 33 -4 13 16 -14 14 -38 16
-38 4z"/>
<path d="M3530 3745 c7 -8 19 -15 27 -15 13 0 13 3 3 15 -7 8 -19 15 -27 15
-13 0 -13 -3 -3 -15z"/>
<path d="M3102 3737 c43 -33 178 -46 178 -17 0 12 -26 17 -120 24 -63 5 -72 4
-58 -7z"/>
<path d="M3332 3698 c5 -15 27 -18 31 -3 1 5 -6 11 -17 13 -12 3 -17 -1 -14
-10z"/>
<path d="M2036 3691 c-4 -5 -4 -15 -2 -23 2 -7 7 -25 10 -39 7 -33 30 -43 51
-23 21 22 19 41 -10 69 -25 26 -40 31 -49 16z m48 -46 c3 -8 1 -15 -3 -15 -5
0 -11 7 -15 15 -3 8 -1 15 3 15 5 0 11 -7 15 -15z"/>
<path d="M3180 3682 c0 -4 25 -17 55 -29 30 -11 55 -18 55 -15 0 4 -25 17 -55
29 -30 11 -55 18 -55 15z"/>
<path d="M2330 3654 c0 -29 21 -54 45 -54 34 0 41 18 10 30 -14 5 -28 17 -31
25 -8 20 -24 19 -24 -1z"/>
<path d="M2240 3644 c0 -5 11 -26 25 -44 38 -52 9 -52 -36 0 -37 43 -61 42
-38 -2 39 -76 119 -95 119 -28 0 12 -70 87 -70 74z"/>
<path d="M7294 3583 c-10 -74 -21 -85 -38 -36 -6 17 -23 41 -38 53 -26 20 -28
20 -28 3 1 -23 22 -51 36 -46 6 2 16 -14 23 -36 16 -54 29 -59 46 -17 19 44
31 146 18 146 -5 0 -14 -30 -19 -67z"/>
<path d="M3387 3634 c-9 -10 2 -24 19 -24 8 0 14 7 14 15 0 15 -21 21 -33 9z"/>
<path d="M1923 3585 c8 -49 29 -89 49 -93 24 -5 52 52 38 77 -16 30 -41 52
-52 45 -5 -3 0 -12 11 -21 13 -9 21 -25 21 -44 0 -43 -13 -35 -33 21 -21 58
-43 68 -34 15z"/>
<path d="M1770 3600 c0 -23 25 -60 40 -60 25 0 44 26 35 47 -8 17 -8 17 -12 1
-6 -24 -20 -23 -33 2 -11 21 -30 27 -30 10z"/>
<path d="M3465 3600 c-3 -6 6 -15 22 -22 24 -10 25 -12 8 -15 -49 -10 -49 -15
-2 -39 54 -27 101 -34 53 -7 -26 14 -27 16 -12 25 14 8 15 12 5 24 -20 24 -67
45 -74 34z"/>
<path d="M2410 3523 c0 -31 43 -72 83 -79 30 -5 37 -3 37 10 0 17 -36 40 -50
31 -5 -3 -19 8 -31 25 -26 34 -39 38 -39 13z"/>
<path d="M8060 3507 c0 -22 41 -130 47 -124 6 6 -27 118 -39 132 -5 5 -8 2 -8
-8z"/>
<path d="M2665 3460 c-8 -13 32 -60 50 -60 22 0 35 22 23 43 -8 15 -12 17 -18
6 -7 -11 -12 -10 -28 5 -14 12 -22 14 -27 6z"/>
<path d="M3463 3457 c2 -6 20 -15 40 -18 20 -3 42 -11 49 -17 8 -6 52 -23 98
-38 47 -14 93 -33 103 -42 10 -9 17 -11 17 -4 0 17 -40 40 -99 58 -49 14 -52
17 -46 42 l5 27 -86 2 c-64 2 -85 0 -81 -10z"/>
<path d="M8020 3451 c0 -6 5 -13 10 -16 6 -3 10 1 10 9 0 9 -4 16 -10 16 -5 0
-10 -4 -10 -9z"/>
<path d="M2123 3423 c4 -3 2 -12 -5 -20 -15 -19 17 -63 59 -80 28 -11 33 -10
52 11 20 22 21 25 6 40 -23 22 -38 20 -23 -4 20 -32 1 -35 -37 -6 -26 20 -34
33 -30 47 5 14 2 19 -11 19 -10 0 -14 -3 -11 -7z"/>
<path d="M4110 3412 c0 -10 21 -32 32 -32 16 0 8 19 -12 30 -11 6 -20 7 -20 2z"/>
<path d="M8030 3409 c0 -8 7 -24 15 -35 11 -15 14 -16 15 -3 0 8 -7 24 -15 35
-11 15 -14 16 -15 3z"/>
<path d="M2350 3389 c0 -38 69 -84 93 -60 13 13 0 42 -24 50 -12 4 -12 2 0
-12 22 -27 -3 -20 -29 8 -25 27 -40 32 -40 14z"/>
<path d="M8145 3390 c-3 -6 1 -7 9 -4 18 7 21 14 7 14 -6 0 -13 -4 -16 -10z"/>
<path d="M8448 3360 c-4 -14 -8 -38 -7 -55 0 -30 0 -30 10 -5 6 13 9 38 7 55
-3 29 -3 30 -10 5z"/>
<path d="M8557 3363 c-4 -3 -7 -16 -6 -27 0 -19 1 -19 10 3 10 24 8 36 -4 24z"/>
<path d="M1970 3343 c0 -34 38 -83 64 -83 32 0 41 16 25 46 -13 26 -35 33 -25
9 10 -27 -15 -16 -32 15 -19 34 -32 39 -32 13z"/>
<path d="M8710 3335 c-7 -18 -6 -31 3 -45 18 -30 27 -24 27 19 0 48 -16 62
-30 26z"/>
<path d="M2872 3323 c4 -21 45 -44 64 -36 17 6 18 39 3 49 -6 3 -15 0 -20 -7
-6 -11 -11 -11 -21 -1 -17 17 -30 15 -26 -5z"/>
<path d="M2690 3316 c0 -8 13 -23 30 -32 16 -10 31 -25 33 -33 3 -9 4 1 4 22
0 31 -5 40 -24 48 -34 13 -43 11 -43 -5z"/>
<path d="M8220 3310 c13 -9 12 -13 -5 -26 -19 -15 -19 -16 11 -10 36 8 65 -14
42 -33 -7 -6 -26 -21 -41 -33 -25 -20 -29 -31 -31 -85 -2 -35 0 -60 4 -58 16
10 68 -46 94 -100 29 -61 42 -71 32 -24 -5 28 -4 30 10 18 8 -7 24 -29 34 -48
10 -20 34 -54 54 -76 31 -35 35 -36 24 -12 -6 15 -15 27 -19 27 -5 0 -20 22
-33 48 -24 48 -93 137 -105 137 -3 -1 -18 10 -32 22 -19 17 -26 34 -28 68 -2
39 2 49 34 80 47 48 47 81 0 101 -40 17 -68 19 -45 4z"/>
<path d="M3820 3291 c0 -11 31 -24 39 -16 3 3 -1 10 -9 15 -19 12 -30 12 -30
1z"/>
<path d="M3117 3273 c-12 -11 -8 -21 11 -27 9 -2 0 -2 -21 1 -31 4 -36 3 -31
-11 8 -20 57 -21 74 -1 18 22 -13 58 -33 38z"/>
<path d="M4065 3270 c3 -5 13 -10 21 -10 8 0 12 5 9 10 -3 6 -13 10 -21 10 -8
0 -12 -4 -9 -10z"/>
<path d="M4214 3266 c-8 -21 1 -61 12 -56 13 7 17 70 4 70 -6 0 -13 -6 -16
-14z"/>
<path d="M8045 3262 c9 -30 37 -59 58 -59 10 0 17 3 17 6 -1 13 -28 41 -40 41
-7 0 -19 8 -27 18 -13 16 -13 15 -8 -6z"/>
<path d="M2490 3253 c0 -31 38 -73 65 -73 36 0 49 32 25 62 -11 12 -19 18 -20
11 0 -6 5 -15 10 -18 14 -8 13 -35 -1 -35 -6 0 -27 17 -45 37 -29 31 -34 34
-34 16z"/>
<path d="M7996 3223 c19 -62 18 -63 -16 -63 -25 0 -32 6 -45 37 -8 20 -18 34
-21 31 -11 -12 26 -79 49 -87 13 -5 31 -27 42 -51 19 -42 19 -43 -1 -59 -20
-16 -44 -52 -44 -65 0 -15 19 -4 25 15 4 12 16 30 26 40 10 10 19 30 19 44 0
15 6 25 15 25 8 0 21 14 30 30 9 17 11 30 6 30 -5 0 -13 -9 -16 -20 -13 -40
-31 -20 -45 48 -15 79 -19 92 -30 92 -4 0 -2 -21 6 -47z m21 -105 c-3 -8 -6
-5 -6 6 -1 11 2 17 5 13 3 -3 4 -12 1 -19z"/>
<path d="M4268 3254 c-5 -4 -8 -16 -8 -28 0 -14 3 -17 11 -9 6 6 9 19 7 28 -1
9 -6 13 -10 9z"/>
<path d="M4300 3229 c0 -11 5 -17 10 -14 6 3 10 13 10 21 0 8 -4 14 -10 14 -5
0 -10 -9 -10 -21z"/>
<path d="M3750 3222 c0 -10 70 -36 77 -29 5 6 -50 37 -67 37 -5 0 -10 -4 -10
-8z"/>
<path d="M3968 3150 c55 -44 107 -91 116 -105 10 -15 26 -25 39 -25 13 0 36
-13 52 -30 16 -16 35 -30 43 -30 7 0 29 -12 48 -26 26 -20 34 -23 34 -11 0 22
-61 68 -76 56 -7 -6 -17 -2 -30 12 -10 12 -46 42 -79 68 -78 60 -91 70 -134
106 -44 38 -87 65 -101 65 -6 0 34 -36 88 -80z"/>
<path d="M4360 3221 c0 -6 5 -13 10 -16 6 -3 10 1 10 9 0 9 -4 16 -10 16 -5 0
-10 -4 -10 -9z"/>
<path d="M8664 3214 c-3 -10 -9 -29 -14 -40 -16 -41 -23 -114 -11 -114 14 0
15 4 31 93 12 64 8 103 -6 61z"/>
<path d="M6290 3205 c-10 -12 -10 -21 -2 -40 17 -38 32 -30 25 13 -7 46 -7 46
-23 27z"/>
<path d="M6431 3201 c-9 -16 -10 -26 -2 -34 13 -13 25 12 19 40 -3 16 -5 15
-17 -6z"/>
<path d="M6487 3197 c-9 -14 -17 -31 -17 -37 0 -15 36 -12 50 5 7 8 21 15 31
15 21 0 25 15 8 26 -6 3 -16 1 -22 -5 -16 -16 -25 -14 -29 6 -2 14 -6 12 -21
-10z"/>
<path d="M6355 3190 c-7 -23 2 -43 16 -35 12 8 12 55 0 55 -5 0 -12 -9 -16
-20z"/>
<path d="M8591 3205 c-1 -5 -4 -41 -6 -80 -3 -53 -1 -64 6 -45 6 13 8 49 6 80
-2 30 -4 51 -6 45z"/>
<path d="M2710 3191 c0 -5 12 -19 26 -30 44 -35 83 -24 69 19 -7 22 -40 27
-49 8 -5 -10 -7 -10 -12 0 -7 14 -34 17 -34 3z"/>
<path d="M8118 3185 c-3 -6 -14 -38 -23 -73 -10 -34 -22 -65 -26 -68 -19 -11
2 -94 23 -94 13 0 9 20 -7 36 -16 17 -20 54 -6 54 5 0 11 -6 14 -12 2 -7 8
-10 12 -6 4 3 2 14 -3 24 -10 17 -3 54 20 101 10 21 7 55 -4 38z"/>
<path d="M2931 3171 c-10 -7 -10 -10 -1 -16 6 -4 16 -3 22 3 13 13 -4 23 -21
13z"/>
<path d="M3800 3172 c0 -8 183 -132 195 -132 4 0 30 -15 58 -34 62 -41 111
-62 105 -44 -2 6 -17 18 -34 27 -16 9 -42 26 -56 37 -15 12 -41 27 -58 34 -16
7 -30 16 -30 21 0 5 -4 9 -10 9 -5 0 -44 20 -86 45 -81 48 -84 49 -84 37z"/>
<path d="M3267 3157 c-59 -11 -72 -29 -24 -35 20 -2 27 1 27 13 0 9 5 13 10
10 18 -11 90 -15 90 -5 0 8 -34 32 -42 29 -2 -1 -29 -6 -61 -12z"/>
<path d="M8532 3138 c1 -20 5 -35 9 -32 4 2 5 17 3 31 -8 42 -15 42 -12 1z"/>
<path d="M8718 3110 c-16 -35 -23 -62 -17 -66 14 -9 39 15 32 32 -3 8 2 25 11
39 17 25 21 55 9 55 -5 -1 -20 -27 -35 -60z"/>
<path d="M3070 3141 c0 -17 30 -25 43 -12 8 8 8 11 0 11 -6 0 -18 3 -27 6 -9
3 -16 1 -16 -5z"/>
<path d="M3700 3140 c0 -5 7 -10 15 -10 8 0 40 -11 72 -25 70 -31 106 -28 46
3 -24 12 -43 20 -43 17 0 -3 -13 1 -30 10 -33 17 -60 20 -60 5z"/>
<path d="M2400 3120 c0 -45 107 -117 134 -90 13 13 -10 61 -32 68 -10 3 -9 -3
3 -22 20 -30 18 -31 -24 -10 -17 9 -38 29 -46 45 -18 33 -35 38 -35 9z"/>
<path d="M6180 3132 c0 -22 13 -42 26 -42 20 0 17 14 -6 35 -11 10 -20 13 -20
7z"/>
<path d="M8439 3099 c-8 -16 -8 -24 2 -33 9 -8 10 -8 5 1 -4 7 -2 22 4 33 6
11 8 20 6 20 -3 0 -10 -9 -17 -21z"/>
<path d="M8772 3082 c-12 -17 -18 -33 -13 -36 11 -7 44 41 39 56 -2 6 -14 -2
-26 -20z"/>
<path d="M6050 3078 c0 -31 13 -57 31 -61 22 -6 25 10 7 48 -12 26 -38 35 -38
13z"/>
<path d="M8537 3060 c8 -30 21 -34 15 -5 -2 14 -8 25 -12 25 -5 0 -6 -9 -3
-20z"/>
<path d="M1684 3035 c-6 -20 -8 -38 -4 -40 12 -7 33 23 36 51 4 37 -20 29 -32
-11z"/>
<path d="M1626 3034 c-10 -25 -7 -34 9 -34 9 0 15 9 15 25 0 28 -15 34 -24 9z"/>
<path d="M1781 3036 c-8 -9 -11 -19 -7 -23 9 -9 29 13 24 27 -2 8 -8 7 -17 -4z"/>
<path d="M1530 3007 c0 -26 22 -52 33 -40 14 13 6 43 -13 53 -17 9 -20 8 -20
-13z"/>
<path d="M6430 2963 c0 -26 36 -100 45 -91 6 6 -28 118 -37 118 -4 0 -8 -12
-8 -27z"/>
<path d="M6490 2935 c0 -19 5 -35 10 -35 6 0 10 16 10 35 0 19 -4 35 -10 35
-5 0 -10 -16 -10 -35z"/>
<path d="M6551 2937 c-23 -37 -25 -47 -13 -47 12 0 48 68 40 75 -3 3 -15 -9
-27 -28z"/>
<path d="M6604 2935 c-18 -28 -12 -67 8 -47 7 7 13 17 14 24 1 7 5 21 9 31 11
26 -12 21 -31 -8z"/>
<path d="M6675 2940 c-3 -5 -2 -10 4 -10 5 0 13 5 16 10 3 6 2 10 -4 10 -5 0
-13 -4 -16 -10z"/>
<path d="M4152 2920 c20 -11 40 -24 43 -30 3 -5 11 -10 16 -10 19 0 -2 20 -41
40 -22 11 -43 20 -47 20 -4 -1 9 -10 29 -20z"/>
<path d="M2367 2914 c-7 -8 11 -45 27 -56 14 -10 26 -10 26 0 -1 14 -46 62
-53 56z"/>
<path d="M2448 2914 c-5 -4 -8 -19 -8 -33 1 -23 2 -24 11 -8 11 19 9 53 -3 41z"/>
<path d="M2511 2906 c-8 -9 -11 -19 -7 -23 9 -9 29 13 24 27 -2 8 -8 7 -17 -4z"/>
<path d="M3675 2887 c-8 -28 -3 -42 12 -36 5 2 6 18 2 34 l-6 30 -8 -28z"/>
<path d="M2540 2884 c0 -8 5 -12 10 -9 6 3 10 10 10 16 0 5 -4 9 -10 9 -5 0
-10 -7 -10 -16z"/>
<path d="M4376 2873 c4 -15 11 -33 16 -39 11 -15 -22 -28 -36 -14 -12 12 -26
13 -26 2 0 -8 58 -32 77 -32 13 0 11 17 -5 47 -7 12 -12 28 -12 37 0 8 -5 18
-10 21 -7 4 -8 -3 -4 -22z"/>
<path d="M2970 2880 c0 -5 5 -10 11 -10 5 0 7 5 4 10 -3 6 -8 10 -11 10 -2 0
-4 -4 -4 -10z"/>
<path d="M8592 2855 c-7 -14 -12 -31 -12 -38 1 -7 7 3 16 22 17 39 13 54 -4
16z"/>
<path d="M8830 2866 c0 -29 13 -76 21 -76 10 0 12 50 3 74 -8 20 -24 21 -24 2z"/>
<path d="M8895 2830 c-31 -62 -16 -66 19 -6 29 49 31 56 16 56 -5 0 -21 -22
-35 -50z"/>
<path d="M8976 2845 c-9 -13 -16 -29 -16 -35 0 -17 20 -11 26 8 3 9 10 25 15
35 14 26 -6 20 -25 -8z"/>
<path d="M3400 2849 c0 -44 53 -67 64 -26 10 38 6 43 -11 12 l-16 -30 -9 28
c-9 26 -28 38 -28 16z"/>
<path d="M1667 2843 c-8 -14 12 -53 27 -53 12 0 13 5 5 30 -11 29 -23 38 -32
23z"/>
<path d="M1743 2815 c-1 -19 3 -35 8 -35 11 0 23 46 14 59 -12 20 -20 11 -22
-24z"/>
<path d="M3494 2825 c-20 -31 -13 -41 15 -23 22 14 28 28 10 28 -5 0 -7 5 -4
10 14 22 -6 8 -21 -15z"/>
<path d="M9044 2815 c-18 -39 -14 -52 13 -40 10 5 24 7 31 6 18 -3 42 18 42
36 0 12 -3 12 -22 -1 -32 -23 -51 -21 -38 3 6 12 6 22 1 26 -6 3 -17 -11 -27
-30z"/>
<path d="M1580 2828 c1 -20 38 -64 47 -55 9 10 -17 59 -34 65 -7 2 -13 -2 -13
-10z"/>
<path d="M1826 2814 c-10 -14 -15 -28 -13 -31 3 -2 13 7 23 21 9 15 14 29 12
32 -3 2 -13 -7 -22 -22z"/>
<path d="M3360 2821 c0 -19 26 -48 36 -39 7 7 -17 58 -28 58 -4 0 -8 -8 -8
-19z"/>
<path d="M4300 2825 c0 -8 4 -15 10 -15 5 0 7 7 4 15 -4 8 -8 15 -10 15 -2 0
-4 -7 -4 -15z"/>
<path d="M3940 2770 c0 -5 4 -10 9 -10 6 0 13 5 16 10 3 6 -1 10 -9 10 -9 0
-16 -4 -16 -10z"/>
<path d="M6037 2773 c-9 -8 12 -33 29 -33 20 0 28 21 13 31 -17 10 -33 11 -42
2z"/>
<path d="M8490 2775 c0 -15 18 -40 24 -34 3 3 -1 14 -9 25 -8 10 -14 15 -15 9z"/>
<path d="M3860 2761 c0 -5 7 -14 15 -21 13 -10 15 -9 15 9 0 12 -6 21 -15 21
-8 0 -15 -4 -15 -9z"/>
<path d="M3965 2741 c-3 -6 5 -15 19 -20 22 -9 24 -15 22 -58 -2 -27 1 -58 5
-68 7 -19 8 -18 8 3 1 26 27 30 35 5 2 -10 8 -54 12 -98 6 -79 17 -115 33
-115 14 0 18 84 5 97 -6 7 -15 45 -19 85 -7 67 -6 73 15 90 12 10 26 16 30 13
4 -2 15 4 25 15 21 23 15 27 -60 33 -50 4 -75 9 -106 22 -10 3 -20 2 -24 -4z
m128 -48 c11 -10 -24 -43 -46 -43 -13 0 -17 5 -13 16 3 9 6 20 6 25 0 10 43
12 53 2z"/>
<path d="M8810 2735 c10 -12 10 -21 2 -40 -7 -15 -8 -25 -2 -25 6 0 10 -10 10
-22 0 -18 2 -20 10 -8 6 9 5 19 -2 28 -9 10 -8 16 3 22 8 5 18 5 23 0 5 -5 15
-3 24 6 8 8 21 13 28 10 8 -3 14 -1 14 4 0 6 -12 10 -27 10 -16 0 -37 7 -47
15 -28 21 -53 20 -36 0z"/>
<path d="M9134 2738 c-4 -7 -14 -24 -23 -38 -14 -23 -13 -23 17 4 18 17 32 33
32 38 0 12 -18 9 -26 -4z"/>
<path d="M3694 2699 c-15 -20 -62 -153 -85 -238 -22 -86 -21 -81 -10 -81 5 0
25 34 46 76 20 41 39 73 42 71 2 -3 -5 -30 -15 -61 l-19 -56 25 0 c19 0 22 3
13 13 -8 10 -5 27 9 65 18 46 18 52 4 52 -15 0 -15 2 0 25 9 13 16 30 16 37
-1 18 -35 -29 -56 -74 -9 -21 -21 -38 -25 -38 -10 0 1 35 41 129 29 71 36 108
14 80z"/>
<path d="M4603 2633 l-58 -78 -5 35 c-6 39 -25 42 -48 9 -19 -28 -30 -23 -28
12 0 18 -4 34 -11 36 -7 3 -12 -17 -15 -62 -3 -66 6 -93 19 -58 3 10 19 31 35
48 l29 30 -3 -54 c-2 -36 1 -55 10 -58 7 -3 12 4 12 19 0 15 11 33 30 47 40
29 120 151 99 151 -5 0 -35 -35 -66 -77z"/>
<path d="M8972 2678 c-14 -45 -26 -104 -19 -98 12 11 44 121 36 125 -4 3 -12
-9 -17 -27z"/>
<path d="M4221 2640 c0 -36 3 -73 5 -82 8 -28 25 -21 18 7 -3 14 -2 25 3 25 5
0 16 11 23 25 8 14 20 23 27 21 8 -4 13 3 13 17 -1 20 -4 18 -33 -16 -18 -20
-34 -37 -37 -37 -3 0 -4 18 -2 41 3 22 -1 46 -7 52 -8 8 -11 -6 -10 -53z"/>
<path d="M7574 2686 c-9 -23 4 -195 17 -215 6 -10 7 26 3 104 -4 66 -8 122
-10 124 -2 2 -7 -4 -10 -13z"/>
<path d="M8210 2695 c0 -6 5 -16 11 -22 8 -8 8 -25 1 -57 -5 -25 -6 -46 -1
-46 8 0 12 12 24 73 2 9 -5 27 -16 40 -10 12 -18 17 -19 12z"/>
<path d="M9044 2673 c-32 -44 -39 -57 -26 -49 16 10 15 1 -4 -35 -8 -17 -14
-38 -12 -47 4 -17 38 74 38 100 0 7 9 19 20 26 11 7 20 17 20 22 0 18 -16 10
-36 -17z"/>
<path d="M9270 2651 c-17 -27 -38 -55 -46 -61 -16 -14 -19 -30 -4 -30 6 0 14
8 17 17 4 10 18 27 32 39 15 12 34 36 44 53 15 25 16 31 4 31 -8 0 -29 -22
-47 -49z"/>
<path d="M7213 2647 c-17 -61 -27 -154 -17 -144 5 5 14 34 20 65 7 31 15 72
19 90 11 48 -9 39 -22 -11z"/>
<path d="M9151 2667 c-11 -14 -41 -107 -41 -130 0 -10 33 8 55 29 25 26 28 10
4 -30 -12 -20 -19 -39 -16 -42 6 -7 45 61 53 94 4 15 16 40 27 55 10 16 16 31
12 35 -4 4 -12 -1 -19 -12 -24 -39 -78 -107 -82 -103 -3 2 3 25 11 51 18 53
16 77 -4 53z"/>
<path d="M1216 2645 c-3 -9 -6 -28 -6 -42 0 -34 24 -24 28 11 4 33 -12 56 -22
31z"/>
<path d="M3587 2593 c-4 -38 -13 -88 -20 -113 l-14 -45 -8 55 c-9 65 -21 100
-34 100 -12 0 -22 -43 -11 -50 15 -9 30 -59 30 -101 0 -38 13 -52 23 -26 3 6
6 2 6 -10 2 -43 18 -23 18 21 0 24 10 79 23 123 22 76 22 113 2 113 -5 0 -12
-30 -15 -67z"/>
<path d="M4350 2650 c0 -5 1 -12 3 -14 1 -2 -7 -14 -18 -27 l-20 -24 25 21
c14 12 33 24 43 27 26 9 21 27 -8 27 -14 0 -25 -4 -25 -10z"/>
<path d="M6741 2623 c-16 -57 -14 -103 6 -110 19 -8 44 21 80 90 36 73 20 69
-19 -4 -18 -35 -38 -64 -45 -66 -18 -6 -21 28 -6 77 15 54 15 50 3 50 -5 0
-14 -17 -19 -37z"/>
<path d="M8787 2640 c-3 -11 -1 -23 4 -26 5 -3 9 6 9 20 0 31 -6 34 -13 6z"/>
<path d="M1277 2644 c-11 -11 -9 -52 4 -59 16 -10 18 -3 11 33 -4 19 -10 30
-15 26z"/>
<path d="M6628 2645 c-15 -16 46 -155 72 -163 15 -5 14 1 -23 98 -23 61 -36
78 -49 65z"/>
<path d="M7147 2615 c-3 -19 -3 -60 -1 -92 5 -57 5 -58 -10 -28 -8 17 -21 54
-29 84 -7 30 -19 57 -26 59 -15 5 -12 -10 26 -108 25 -65 50 -97 65 -82 4 4 3
25 -3 47 -6 22 -9 63 -7 93 5 59 -6 80 -15 27z"/>
<path d="M7651 2627 c-15 -39 -25 -143 -13 -132 11 10 42 116 42 142 0 22 -20
15 -29 -10z"/>
<path d="M7726 2623 c-21 -42 -35 -99 -26 -113 9 -15 13 -8 30 53 7 26 17 50
21 53 12 7 11 34 -1 34 -5 0 -16 -12 -24 -27z"/>
<path d="M1114 2618 c3 -13 6 -29 6 -35 0 -7 7 -13 15 -13 17 0 20 23 5 51
-15 27 -34 24 -26 -3z"/>
<path d="M8878 2634 c-5 -4 -8 -16 -8 -28 0 -14 3 -17 11 -9 6 6 9 19 7 28 -1
9 -6 13 -10 9z"/>
<path d="M8590 2621 c0 -5 5 -13 10 -16 6 -3 10 -2 10 4 0 5 -4 13 -10 16 -5
3 -10 2 -10 -4z"/>
<path d="M7259 2555 c-19 -42 -27 -71 -21 -77 5 -5 19 18 35 64 14 40 24 74
22 77 -3 2 -18 -27 -36 -64z"/>
<path d="M4130 2593 c0 -20 17 -50 24 -43 2 3 2 17 -1 33 -6 30 -23 37 -23 10z"/>
<path d="M6850 2580 c0 -18 -9 -45 -21 -62 -28 -39 -17 -48 16 -12 l25 29 21
-27 c35 -47 40 -31 9 34 -34 72 -50 84 -50 38z"/>
<path d="M1454 2585 c3 -9 6 -19 6 -21 0 -9 39 -3 45 7 9 13 7 15 -29 23 -24
6 -27 4 -22 -9z"/>
<path d="M4367 2573 c-6 -31 0 -46 14 -38 12 8 12 65 0 65 -5 0 -11 -12 -14
-27z"/>
<path d="M7786 2578 c-19 -26 -21 -74 -5 -84 7 -4 20 4 30 17 23 29 24 43 4
35 -17 -6 -19 7 -5 35 15 27 -5 25 -24 -3z"/>
<path d="M4280 2581 c0 -6 5 -13 10 -16 6 -3 10 1 10 9 0 9 -4 16 -10 16 -5 0
-10 -4 -10 -9z"/>
<path d="M8621 2574 c0 -11 3 -14 6 -6 3 7 2 16 -1 19 -3 4 -6 -2 -5 -13z"/>
<path d="M6570 2565 c0 -8 4 -15 9 -15 5 0 12 -13 16 -30 7 -31 25 -42 25 -15
0 22 -29 75 -40 75 -6 0 -10 -7 -10 -15z"/>
<path d="M8791 2568 c0 -9 -4 -25 -7 -35 -5 -17 -5 -17 6 0 6 10 9 25 7 35 -4
15 -5 15 -6 0z"/>
<path d="M1750 2563 c0 -4 9 -39 20 -78 11 -38 20 -73 20 -77 0 -5 5 -8 11 -8
8 0 9 11 4 33 -4 17 -10 54 -14 82 -4 36 -11 51 -23 53 -10 2 -18 0 -18 -5z"/>
<path d="M1838 2562 c-2 -4 -1 -34 2 -67 6 -64 15 -59 25 16 4 36 3 48 -9 52
-9 4 -17 3 -18 -1z"/>
<path d="M3922 2510 c-30 -33 -52 -65 -50 -71 2 -6 23 14 47 46 23 31 45 54
48 51 10 -10 -19 -65 -38 -71 -18 -6 -27 -35 -11 -35 16 0 52 42 67 77 35 82
9 84 -63 3z"/>
<path d="M7503 2560 c-27 -11 -31 -34 -5 -26 12 4 21 -1 27 -16 17 -37 31 -31
27 12 -4 41 -11 45 -49 30z"/>
<path d="M9057 2564 c-4 -4 -7 -14 -7 -23 0 -11 3 -12 11 -4 6 6 10 16 7 23
-2 6 -7 8 -11 4z"/>
<path d="M1924 2543 c-3 -10 -12 -32 -20 -50 -17 -37 -18 -56 -3 -51 15 5 49
107 38 114 -5 3 -12 -3 -15 -13z"/>
<path d="M9225 2514 c-19 -45 -19 -50 -1 -35 18 15 38 71 26 71 -6 0 -17 -16
-25 -36z"/>
<path d="M4580 2504 c0 -31 23 -28 28 4 2 15 -2 22 -12 22 -11 0 -16 -9 -16
-26z"/>
<path d="M3846 2505 c-9 -24 -7 -65 3 -65 13 0 23 49 13 66 -8 15 -10 14 -16
-1z"/>
<path d="M1977 2493 c-2 -10 -8 -26 -12 -35 -11 -28 11 -21 23 7 7 14 12 30
12 35 0 17 -17 11 -23 -7z"/>
<path d="M8627 2490 c3 -11 7 -20 9 -20 2 0 4 9 4 20 0 11 -4 20 -9 20 -5 0
-7 -9 -4 -20z"/>
<path d="M6497 2476 c-9 -22 4 -56 20 -56 11 0 14 6 9 23 -3 12 -6 28 -6 35 0
16 -17 15 -23 -2z"/>
<path d="M8411 2463 c-7 -18 -11 -38 -8 -45 3 -7 6 -3 6 9 1 12 6 23 12 25 6
2 10 13 7 23 -3 16 -6 14 -17 -12z"/>
<path d="M2020 2459 c-13 -24 -4 -41 10 -19 10 16 13 40 5 40 -2 0 -9 -9 -15
-21z"/>
<path d="M4185 2430 c-13 -26 -13 -30 -1 -30 8 0 21 14 30 30 12 25 12 30 0
30 -7 0 -20 -13 -29 -30z"/>
<path d="M3416 2441 c-4 -6 -1 -21 6 -33 10 -20 13 -20 16 -6 5 23 -13 54 -22
39z"/>
<path d="M3456 2441 c-7 -10 31 -61 45 -61 11 0 -15 55 -30 65 -5 3 -12 1 -15
-4z"/>
<path d="M4257 2443 c-10 -9 -9 -23 2 -23 5 0 11 7 15 15 5 15 -5 20 -17 8z"/>
<path d="M2469 2418 c-1 -7 -2 -17 -4 -23 -1 -5 -3 -27 -3 -49 -2 -33 -4 -37
-17 -26 -8 7 -25 30 -37 51 -22 40 -43 55 -54 38 -6 -11 73 -118 94 -126 7 -3
18 -1 24 5 14 14 30 101 22 124 -6 21 -23 24 -25 6z"/>
<path d="M3786 2421 c-4 -7 -5 -15 -2 -18 9 -9 19 4 14 18 -4 11 -6 11 -12 0z"/>
<path d="M1565 2410 c-3 -5 2 -24 10 -41 15 -28 18 -30 32 -16 14 14 13 18 -3
41 -21 28 -30 31 -39 16z"/>
<path d="M2544 2363 c-14 -32 -28 -61 -30 -65 -2 -4 0 -10 6 -13 6 -4 17 10
26 32 8 21 21 50 29 65 10 18 12 29 5 33 -6 4 -21 -18 -36 -52z"/>
<path d="M3362 2393 c2 -9 8 -18 15 -20 7 -3 9 3 6 16 -6 25 -26 28 -21 4z"/>
<path d="M8030 2390 c0 -11 5 -20 10 -20 6 0 10 9 10 20 0 11 -4 20 -10 20 -5
0 -10 -9 -10 -20z"/>
<path d="M7924 2386 c-7 -19 15 -61 26 -50 11 11 1 64 -11 64 -6 0 -12 -6 -15
-14z"/>
<path d="M1162 2343 c-1 -27 -4 -59 -7 -73 -3 -14 0 -32 5 -40 9 -13 12 -12
25 4 8 10 11 24 7 30 -4 6 -7 35 -7 65 0 68 -20 79 -23 14z"/>
<path d="M8170 2380 c0 -5 5 -10 10 -10 6 0 10 5 10 10 0 6 -4 10 -10 10 -5 0
-10 -4 -10 -10z"/>
<path d="M8446 2374 c-8 -22 -6 -75 4 -99 6 -14 9 1 9 48 1 68 -2 80 -13 51z"/>
<path d="M2585 2321 c-32 -40 -38 -62 -17 -68 7 -3 12 5 12 20 0 13 7 30 16
37 19 16 38 50 27 50 -4 -1 -21 -18 -38 -39z"/>
<path d="M8645 2351 c3 -5 1 -12 -5 -16 -6 -4 -2 -21 11 -47 23 -46 33 -46 20
0 -5 17 -7 40 -4 52 4 14 1 20 -11 20 -10 0 -15 -4 -11 -9z"/>
<path d="M1086 2335 c-14 -36 -2 -155 15 -155 10 0 7 155 -2 165 -4 3 -9 -1
-13 -10z"/>
<path d="M8498 2343 c7 -3 16 -2 19 1 4 3 -2 6 -13 5 -11 0 -14 -3 -6 -6z"/>
<path d="M3061 2309 c-13 -38 -14 -79 -2 -79 8 0 24 100 17 107 -2 2 -9 -10
-15 -28z"/>
<path d="M7646 2331 c-3 -5 0 -11 8 -14 15 -6 26 1 26 15 0 11 -27 10 -34 -1z"/>
<path d="M8200 2330 c0 -5 5 -10 10 -10 6 0 10 5 10 10 0 6 -4 10 -10 10 -5 0
-10 -4 -10 -10z"/>
<path d="M2977 2318 c-6 -19 10 -68 29 -89 28 -31 35 -22 13 15 -11 19 -19 41
-18 48 3 24 -1 38 -10 38 -5 0 -11 -6 -14 -12z"/>
<path d="M3872 2314 c1 -9 9 -19 16 -22 9 -3 13 2 10 14 -1 9 -9 19 -16 22 -9
3 -13 -2 -10 -14z"/>
<path d="M3947 2323 c-12 -11 -8 -23 8 -23 8 0 15 7 15 15 0 16 -12 20 -23 8z"/>
<path d="M8570 2294 c0 -8 5 -12 10 -9 6 4 8 11 5 16 -9 14 -15 11 -15 -7z"/>
<path d="M1226 2269 c-9 -47 -7 -59 7 -59 10 0 14 13 13 45 -1 52 -11 59 -20
14z"/>
<path d="M2650 2285 c-7 -9 -11 -18 -8 -20 3 -3 11 1 18 10 7 9 11 18 8 20 -3
3 -11 -1 -18 -10z"/>
<path d="M3786 2291 c-4 -6 -1 -21 6 -33 l13 -23 3 24 c4 26 -12 49 -22 32z"/>
<path d="M973 2272 c10 -10 17 -23 17 -28 0 -5 11 -22 23 -38 18 -22 29 -27
43 -22 18 7 18 8 1 17 -9 6 -26 28 -37 50 -14 27 -27 39 -42 39 -20 0 -20 -1
-5 -18z"/>
<path d="M2696 2274 c-4 -9 -4 -19 -2 -21 8 -8 26 8 26 23 0 19 -16 18 -24 -2z"/>
<path d="M3128 2255 c-5 -43 7 -57 15 -17 7 34 6 41 -3 47 -4 3 -10 -10 -12
-30z"/>
<path d="M8686 2270 c4 -14 7 -31 7 -37 0 -7 4 -13 9 -13 13 0 8 34 -8 55 -16
19 -16 19 -8 -5z"/>
<path d="M7715 2260 c4 -6 11 -8 16 -5 14 9 11 15 -7 15 -8 0 -12 -5 -9 -10z"/>
<path d="M1298 2235 c-8 -18 -8 -29 -1 -36 16 -16 33 -2 33 26 0 34 -18 40
-32 10z"/>
<path d="M1955 2247 c-5 -12 0 -26 14 -41 19 -20 26 -22 46 -12 35 16 44 62 9
49 -8 -3 -14 -13 -14 -22 0 -11 -7 -7 -24 14 -22 27 -25 28 -31 12z"/>
<path d="M3211 2241 c-9 -16 -10 -26 -2 -34 13 -13 25 12 19 40 -3 16 -5 15
-17 -6z"/>
<path d="M1881 2232 c-8 -15 -5 -24 17 -44 38 -36 56 -26 30 18 -26 44 -35 49
-47 26z"/>
<path d="M8627 2235 c-8 -19 4 -45 28 -65 9 -8 24 -31 32 -53 11 -26 19 -35
26 -28 7 7 6 16 -5 28 -14 15 -14 20 -2 31 17 15 19 36 2 26 -6 -4 -8 -3 -5 3
4 6 -1 17 -10 24 -15 12 -16 11 -11 -8 4 -13 2 -26 -3 -29 -5 -3 -9 5 -9 18 0
13 -9 34 -19 47 -16 21 -19 21 -24 6z"/>
<path d="M6961 2199 c-6 -18 -11 -40 -11 -50 0 -32 17 -21 23 14 3 17 8 40 12
50 4 9 3 17 -3 17 -6 0 -15 -14 -21 -31z"/>
<path d="M8717 2223 c-13 -12 -7 -33 8 -33 8 0 16 -8 16 -17 1 -10 4 -4 8 12
8 34 -12 58 -32 38z"/>
<path d="M7065 2197 c-8 -30 0 -47 14 -31 4 5 5 20 1 34 l-7 25 -8 -28z"/>
<path d="M8555 2208 c-9 -30 -12 -68 -5 -68 4 0 10 18 12 40 4 40 1 51 -7 28z"/>
<path d="M6856 2201 c-7 -11 23 -71 36 -71 5 0 7 7 4 16 -3 9 -9 27 -12 40 -6
24 -18 31 -28 15z"/>
<path d="M7117 2204 c-4 -4 -7 -14 -7 -23 0 -11 3 -12 11 -4 6 6 10 16 7 23
-2 6 -7 8 -11 4z"/>
<path d="M8770 2201 c0 -15 30 -41 46 -41 20 0 18 9 -8 31 -25 20 -38 24 -38
10z"/>
<path d="M8449 2173 c-7 -16 -15 -31 -17 -35 -2 -5 0 -8 5 -8 9 0 35 61 29 67
-1 2 -9 -9 -17 -24z"/>
<path d="M3762 2179 c3 -8 8 -13 11 -11 9 3 7 11 -5 18 -6 4 -8 0 -6 -7z"/>
<path d="M8481 2147 c-1 -30 23 -47 42 -28 8 8 7 11 -6 11 -10 0 -22 10 -27
23 -8 21 -9 21 -9 -6z"/>
<path d="M8570 2120 c-6 -11 -8 -20 -6 -20 3 0 10 9 16 20 6 11 8 20 6 20 -3
0 -10 -9 -16 -20z"/>
<path d="M8725 2120 c3 -5 8 -10 11 -10 2 0 4 5 4 10 0 6 -5 10 -11 10 -5 0
-7 -4 -4 -10z"/>
<path d="M8610 2091 c-12 -24 -13 -41 -1 -41 5 0 11 14 13 30 5 35 3 37 -12
11z"/>
<path d="M8691 2018 c-21 -43 -36 -80 -31 -83 10 -6 25 13 34 43 4 12 12 22
17 22 5 0 9 9 9 19 0 12 7 18 18 17 11 -1 17 6 17 19 0 11 3 25 8 32 5 8 1 11
-12 10 -14 -1 -32 -24 -60 -79z"/>
<path d="M8788 2053 c12 -9 22 -21 22 -27 0 -12 38 -40 55 -41 6 0 11 -15 13
-32 2 -21 9 -33 18 -33 8 0 14 5 14 11 0 5 -3 8 -7 6 -5 -3 -9 10 -10 28 -1
32 1 34 35 38 l37 4 -42 1 c-23 1 -45 7 -49 13 -4 8 -9 7 -15 -2 -7 -11 -15
-8 -36 16 -14 16 -33 30 -42 31 -11 2 -9 -3 7 -13z"/>
<path d="M8776 1934 c3 -79 14 -99 14 -26 0 29 4 52 8 52 15 0 48 -44 70 -91
13 -28 38 -58 66 -80 25 -19 54 -51 63 -71 18 -37 43 -51 43 -25 0 17 -48 91
-89 136 -17 19 -32 46 -32 60 -1 25 -2 25 -9 -4 -4 -16 -8 -23 -9 -15 -1 11
-115 130 -125 130 -1 0 -1 -30 0 -66z"/>
<path d="M8930 1928 c0 -16 47 -34 58 -23 3 3 -1 5 -8 5 -7 0 -22 7 -32 17
-16 14 -18 14 -18 1z"/>
<path d="M7673 994 c-60 -85 -136 -175 -146 -171 -7 2 -12 23 -13 48 -1 53
-21 119 -37 120 -31 3 -83 -4 -92 -11 -7 -6 -10 -117 -10 -312 l0 -303 49 -3
c27 -2 53 1 58 6 9 9 14 54 22 199 5 87 20 123 49 123 21 0 31 -23 66 -165 36
-143 48 -169 85 -173 42 -5 76 6 76 25 0 9 -13 51 -29 92 -30 79 -40 109 -67
223 -18 76 -15 90 22 133 52 59 74 92 74 110 0 18 -63 85 -80 85 -5 0 -17 -12
-27 -26z m-201 -46 c6 -13 12 -54 12 -93 1 -58 4 -70 19 -73 23 -5 80 46 140
125 26 35 53 63 59 63 16 0 48 -30 48 -45 0 -6 -12 -22 -26 -36 -14 -13 -42
-46 -61 -72 l-36 -48 27 -87 c14 -48 31 -114 37 -147 6 -33 17 -71 24 -85 7
-14 16 -35 19 -47 11 -34 -19 -30 -32 5 -5 15 -19 52 -30 82 -12 30 -24 71
-28 90 -9 45 -48 135 -63 145 -7 3 -33 1 -60 -6 l-48 -12 0 -71 c0 -39 -2
-111 -4 -161 -4 -84 -6 -90 -26 -93 -27 -4 -34 18 -31 98 1 30 1 149 -1 264
-2 167 0 210 10 217 23 14 38 10 51 -13z"/>
<path d="M8085 1007 c-4 -8 5 -31 19 -51 41 -62 66 -217 66 -423 0 -114 1
-124 24 -150 20 -23 32 -28 70 -28 29 0 51 6 62 16 15 16 15 18 -6 39 -34 34
-40 72 -40 245 0 171 -12 243 -50 308 -25 42 -72 66 -95 47 -12 -10 -18 -10
-30 0 -12 10 -16 9 -20 -3z m97 -40 c9 -7 26 -41 37 -75 18 -52 21 -86 21
-230 0 -176 7 -220 43 -259 l20 -23 -20 0 c-69 0 -80 30 -82 219 -1 85 -4 158
-7 162 -2 4 -7 34 -10 66 -4 32 -13 73 -20 92 -23 57 -17 74 18 48z"/>
<path d="M3894 946 c-10 -40 -1 -61 28 -64 19 -2 30 3 38 17 6 12 7 21 3 21
-4 0 -1 5 7 10 13 9 12 12 -4 25 -31 23 -65 19 -72 -9z m52 -35 c-10 -16 -23
-14 -30 5 -9 25 4 38 21 21 9 -8 12 -20 9 -26z"/>
<path d="M6505 960 c-10 -16 5 -30 30 -30 24 0 25 -2 22 -71 -2 -66 0 -72 25
-94 22 -19 35 -22 67 -18 74 10 107 -3 130 -50 12 -26 21 -64 21 -93 0 -27 4
-76 9 -110 11 -76 5 -114 -20 -114 -23 0 -37 26 -34 65 3 37 -13 159 -26 203
-6 17 -19 37 -29 42 -28 15 -96 12 -110 -5 -14 -16 -16 -106 -6 -210 8 -87 0
-102 -46 -89 -25 8 -32 15 -29 30 3 10 5 126 5 256 1 231 0 238 -21 259 -14
14 -28 19 -39 15 -15 -6 -15 -9 6 -31 22 -23 22 -26 20 -272 -2 -136 -2 -254
-1 -260 2 -19 55 -43 82 -36 49 12 50 18 49 162 -1 75 -1 142 -1 149 1 7 15
12 36 12 49 0 58 -23 66 -168 7 -132 12 -145 61 -157 19 -5 32 -1 48 15 21 21
21 28 16 153 -6 155 -15 193 -56 232 -28 26 -39 30 -106 33 -87 5 -98 15 -84
78 12 50 12 75 1 93 -11 17 -78 25 -86 11z"/>
<path d="M5943 944 c-52 -13 -72 -37 -73 -85 0 -53 23 -69 103 -69 100 0 98 6
90 -233 -7 -239 -9 -233 87 -222 33 4 63 12 68 18 4 7 7 111 7 232 l0 220 65
7 c84 8 118 22 132 53 15 33 -4 70 -41 81 -40 13 -388 11 -438 -2z m418 -21
c25 -7 35 -42 16 -60 -11 -11 -37 -15 -93 -15 -105 1 -112 -6 -103 -95 5 -38
8 -139 8 -225 l1 -158 -40 0 c-33 0 -42 4 -49 23 -5 12 -5 26 -1 31 5 5 6 14
4 21 -3 6 -1 73 5 147 6 92 6 150 -1 177 -11 44 -9 43 -131 56 -58 7 -58 7
-55 38 3 36 14 40 138 55 79 10 269 13 301 5z"/>
<path d="M1690 935 c-42 -15 -48 -29 -19 -48 21 -15 21 -17 14 -239 -4 -123
-9 -226 -12 -230 -5 -9 16 -50 31 -60 17 -11 79 2 94 20 8 11 12 54 12 129 l0
113 56 0 57 0 -7 -57 c-20 -172 -20 -179 5 -197 33 -23 54 -20 75 12 16 23 19
45 18 142 -2 153 -3 158 -41 187 -27 20 -45 26 -88 25 -30 0 -58 4 -61 10 -4
6 -7 48 -8 95 -1 71 -5 87 -21 99 -22 17 -57 16 -105 -1z m84 -52 c3 -10 5
-47 5 -82 0 -52 4 -68 22 -87 20 -21 28 -23 74 -18 97 12 121 -28 112 -183 -6
-101 -21 -139 -43 -108 -7 9 -11 26 -9 38 10 66 15 170 10 187 -6 17 -15 20
-74 20 -45 0 -72 -5 -80 -13 -7 -9 -8 -46 -4 -108 7 -112 -3 -142 -45 -137
l-27 3 5 135 c3 74 5 188 5 252 0 115 1 118 22 118 12 0 24 -8 27 -17z"/>
<path d="M2820 941 c-56 -9 -76 -21 -120 -77 -94 -119 -91 -341 7 -436 16 -14
40 -38 56 -52 19 -18 27 -35 27 -58 -1 -47 -18 -64 -75 -72 -89 -13 -135 -86
-85 -136 26 -26 33 -25 78 5 20 14 42 25 49 25 7 0 30 7 52 16 53 21 81 77 81
161 0 58 2 63 33 85 82 58 108 118 110 254 2 88 -1 107 -22 152 -14 29 -28 52
-33 52 -4 0 -8 6 -8 14 0 19 -70 76 -90 75 -8 -1 -35 -5 -60 -8z m87 -36 c12
-8 36 -40 53 -70 40 -69 51 -158 33 -263 -14 -82 -41 -129 -81 -138 -15 -3
-37 -10 -48 -16 -28 -13 -59 -7 -59 12 0 10 12 16 35 18 46 5 75 33 100 99 24
65 27 169 5 200 -8 12 -16 30 -18 40 -5 37 -41 63 -87 65 -37 1 -47 -3 -71
-29 -34 -39 -53 -125 -44 -198 6 -49 15 -74 45 -121 13 -22 7 -74 -9 -74 -5 0
-26 25 -47 56 -36 53 -38 59 -42 150 -6 125 8 174 66 230 41 40 57 47 127 52
11 1 30 -5 42 -13z m5 -146 c19 -50 23 -127 8 -180 -9 -32 -14 -36 -62 -46
-49 -10 -54 -9 -68 11 -22 31 -28 54 -29 121 -1 100 8 135 43 156 29 18 31 18
61 1 19 -12 36 -34 47 -63z m-58 -395 c3 -9 6 -40 6 -69 0 -68 -31 -110 -93
-125 -36 -9 -56 -17 -99 -38 -5 -2 -8 8 -8 23 0 20 8 29 33 40 19 8 43 12 54
9 14 -4 27 5 49 33 24 32 29 46 27 91 -1 38 2 52 12 52 7 0 16 -7 19 -16z"/>
<path d="M4167 937 c-2 -6 2 -20 11 -29 31 -37 40 -107 34 -290 -6 -207 0
-232 57 -248 47 -13 61 -13 61 1 0 6 -7 9 -15 5 -8 -3 -21 1 -29 9 -8 8 -19
15 -25 15 -18 0 -24 43 -21 169 4 260 4 275 -13 306 -22 39 -21 54 2 48 38
-10 46 -48 45 -212 -1 -86 -6 -177 -12 -203 -7 -37 -6 -52 4 -65 12 -16 13
-15 14 10 0 16 4 26 10 22 6 -3 11 4 11 17 1 13 2 32 3 43 1 11 -2 32 -6 48
-4 16 -3 25 3 22 9 -6 15 115 9 199 -2 40 -20 89 -43 118 -17 21 -93 33 -100
15z m120 -419 c-3 -8 -6 -5 -6 6 -1 11 2 17 5 13 3 -3 4 -12 1 -19z"/>
<path d="M1154 916 c-4 -10 -7 -43 -8 -74 l-1 -57 99 4 99 3 -8 -103 c-8 -127
-9 -305 0 -319 8 -13 84 -13 122 0 l29 11 -2 117 c-1 64 -5 153 -10 196 -6 69
-5 81 11 92 11 8 25 10 39 4 30 -11 73 -1 82 19 17 41 21 91 8 102 -9 8 -66
10 -176 8 -90 -2 -189 1 -220 5 -50 8 -58 6 -64 -8z m136 -32 c25 -3 86 -2
135 4 120 13 165 7 165 -22 0 -37 -14 -45 -80 -48 l-65 -3 0 -75 c0 -41 4
-135 8 -207 5 -90 4 -133 -3 -134 -5 -1 -17 -1 -25 -1 -60 0 -55 -18 -55 212
l0 211 -77 -4 c-43 -2 -85 -7 -94 -11 -14 -6 -18 0 -21 31 -7 56 -1 66 36 58
17 -3 51 -8 76 -11z"/>
<path d="M3593 802 c-42 -17 -83 -59 -83 -85 0 -7 8 -22 19 -31 25 -23 70 -3
78 35 6 29 19 30 79 3 48 -21 57 -37 50 -91 -13 -95 -37 -159 -67 -177 -58
-34 -98 -7 -81 56 11 43 33 56 72 41 37 -14 49 0 18 21 -27 19 -48 20 -83 4
-30 -13 -38 -37 -33 -99 2 -36 8 -46 30 -57 24 -11 33 -11 64 4 38 18 53 11
54 -27 0 -40 94 -78 139 -56 31 15 55 60 46 87 -5 15 -15 20 -40 20 -18 0 -35
6 -38 13 -3 7 -1 48 3 90 14 141 -7 224 -62 253 -36 19 -113 17 -165 -4z m155
-26 c7 -4 19 -21 28 -39 14 -26 15 -51 10 -155 -8 -140 0 -162 56 -162 25 0
29 -4 26 -22 -3 -21 -8 -23 -56 -23 -35 1 -56 6 -62 15 -17 27 -22 98 -11 133
35 106 28 199 -16 213 -10 3 -33 13 -50 20 -29 13 -36 13 -62 -1 -17 -8 -34
-22 -39 -31 -6 -10 -12 -13 -16 -6 -23 38 57 82 131 72 27 -3 54 -9 61 -14z"/>
<path d="M3980 810 c0 -5 13 -16 29 -25 38 -19 44 -41 41 -139 -5 -135 -4
-173 9 -205 15 -35 8 -51 -18 -44 -23 6 -42 46 -41 88 1 17 1 79 0 140 0 99
-2 113 -25 147 -25 37 -48 48 -60 28 -3 -6 1 -13 10 -16 36 -14 45 -57 45
-218 0 -146 1 -156 23 -181 21 -25 24 -26 69 -15 56 14 64 30 35 67 -19 24
-22 38 -20 113 2 47 4 98 6 114 5 37 -10 104 -26 120 -29 29 -77 45 -77 26z"/>
<path d="M3369 793 c-10 -11 -14 -52 -15 -143 -1 -70 -4 -140 -8 -154 -6 -24
-11 -27 -44 -24 l-37 3 -5 120 c-4 98 -9 127 -26 155 -18 30 -26 35 -56 34
-57 -2 -71 -10 -58 -34 6 -12 11 -63 10 -118 -1 -53 -2 -123 -3 -155 -1 -73
21 -106 83 -121 56 -14 160 -5 193 17 29 19 37 68 36 232 -1 55 2 117 6 138 4
22 3 43 -2 48 -18 18 -60 20 -74 2z m-176 -38 c28 -27 38 -81 35 -185 -3 -101
-3 -103 24 -122 20 -16 34 -19 62 -14 60 11 70 39 76 195 5 123 7 136 24 139
14 3 17 0 12 -13 -3 -9 -9 -58 -12 -109 -8 -125 -21 -246 -28 -253 -12 -13
-93 -21 -121 -13 -16 5 -42 12 -57 15 -15 3 -29 14 -33 25 -9 28 -12 350 -4
350 4 0 14 -7 22 -15z"/>
<path d="M8428 790 c-37 -29 -55 -75 -64 -165 -10 -100 -7 -139 16 -191 19
-45 72 -84 114 -84 39 0 90 24 107 51 26 40 38 84 27 102 -14 26 -70 22 -98
-8 -13 -14 -29 -25 -35 -25 -16 0 -35 44 -35 80 0 27 3 30 33 31 60 3 76 6
101 23 31 20 42 72 26 121 -24 72 -135 110 -192 65z m136 -45 c26 -28 38 -70
30 -103 -5 -16 -18 -22 -61 -30 -31 -5 -64 -7 -74 -5 -11 3 -19 1 -20 -3 -12
-109 8 -154 66 -154 24 0 38 6 45 20 15 29 50 26 50 -4 0 -39 -36 -76 -75 -76
-53 0 -82 19 -107 69 -20 40 -23 58 -20 146 3 124 6 133 45 150 51 22 95 19
121 -10z"/>
<path d="M8450 718 c-11 -18 -20 -44 -20 -57 0 -22 2 -23 57 -19 42 4 61 10
74 27 17 21 17 22 -4 45 -12 13 -36 27 -54 30 -29 7 -34 4 -53 -26z m88 -30
c2 -10 -8 -17 -29 -22 -42 -8 -58 7 -35 33 20 22 59 15 64 -11z"/>
<path d="M7910 784 c-52 -11 -70 -20 -92 -46 -33 -38 -34 -49 -10 -71 25 -23
48 -21 69 3 36 42 113 11 113 -45 0 -30 -5 -31 -36 -6 -31 24 -89 13 -120 -23
-40 -46 -40 -160 1 -222 20 -32 70 -32 108 0 l29 23 -31 31 c-49 48 -38 131
16 120 15 -3 18 -12 15 -65 -4 -65 7 -97 42 -125 65 -53 160 19 104 79 -21 22
-24 37 -29 147 -6 137 -17 165 -78 195 -33 17 -42 17 -101 5z m111 -50 c22
-24 24 -34 26 -132 1 -59 2 -115 2 -125 1 -11 15 -32 33 -49 25 -24 30 -33 21
-46 -16 -27 -47 -25 -73 3 -21 23 -25 37 -26 93 -1 37 3 79 9 95 11 34 2 89
-21 117 -9 11 -33 23 -53 26 -28 5 -41 1 -66 -20 -35 -29 -49 -21 -32 17 15
33 43 46 105 46 42 1 55 -3 75 -25z m-87 -130 c21 -8 20 -24 -1 -24 -53 0 -75
-109 -33 -163 13 -17 17 -28 10 -32 -34 -21 -70 44 -70 128 0 57 13 82 45 90
31 7 32 7 49 1z"/>
<path d="M7010 779 c-70 -28 -100 -84 -107 -200 -10 -153 39 -229 146 -229 67
0 106 21 131 70 25 50 26 92 1 114 -24 22 -70 10 -86 -21 -14 -27 -36 -53 -45
-53 -12 0 -30 50 -30 86 l0 35 71 -3 c65 -2 73 0 91 22 16 20 18 33 13 70 -9
62 -17 72 -68 98 -48 24 -78 26 -117 11z m100 -40 c0 -7 -11 -9 -27 -6 -35 7
-82 -20 -90 -51 -8 -32 2 -38 67 -45 74 -9 86 0 73 52 -12 45 -5 51 21 22 12
-13 16 -32 14 -62 l-3 -44 -87 3 c-87 3 -87 3 -94 -23 -9 -37 2 -95 25 -125
26 -34 59 -29 97 17 54 62 88 22 41 -48 -28 -42 -73 -56 -126 -40 -33 9 -44
20 -65 63 -29 59 -31 88 -12 170 15 67 38 105 69 118 32 13 97 12 97 -1z m-2
-55 c3 -18 -2 -20 -40 -20 -24 1 -42 4 -40 9 1 4 2 11 2 16 0 10 34 19 60 17
8 -1 16 -10 18 -22z"/>
<path d="M2164 718 c-32 -22 -52 -45 -60 -68 -16 -45 -17 -137 -3 -181 24 -70
113 -136 166 -123 63 16 116 83 111 142 -5 63 -64 70 -104 11 l-22 -31 -20 22
c-22 24 -37 79 -24 92 5 5 42 11 82 13 82 5 100 15 100 56 0 42 -38 79 -90 90
-71 13 -85 11 -136 -23z m159 -18 c15 -7 27 -16 27 -19 0 -3 3 -16 6 -27 4
-17 0 -22 -20 -26 -14 -3 -26 -1 -26 3 0 5 5 9 10 9 15 0 12 21 -7 42 -20 22
-61 23 -91 2 -29 -20 -21 -31 28 -39 62 -10 49 -28 -14 -20 -49 6 -55 5 -66
-15 -22 -41 15 -146 60 -170 15 -8 27 -2 61 26 48 40 63 35 48 -19 -21 -77
-102 -88 -167 -23 -39 38 -48 84 -37 194 6 57 9 64 38 80 60 32 83 33 150 2z
m-33 -30 c0 -5 -7 -7 -15 -4 -8 4 -15 8 -15 10 0 2 7 4 15 4 8 0 15 -4 15 -10z"/>
<path d="M3567 633 c-33 -17 -57 -81 -57 -152 0 -49 5 -65 25 -89 14 -16 36
-33 50 -36 32 -8 95 18 95 39 0 15 -2 15 -22 1 -32 -23 -59 -20 -91 9 -19 19
-27 36 -28 63 -2 81 2 97 33 125 27 26 35 28 77 22 25 -4 52 -12 59 -17 8 -7
12 -7 12 0 0 33 -109 59 -153 35z"/>
<path d="M4517 473 c-51 -8 -60 -83 -12 -105 30 -14 88 17 93 49 3 21 -30 65
-45 62 -5 -1 -21 -4 -36 -6z m43 -49 c0 -12 -7 -25 -16 -28 -21 -8 -44 11 -44
35 0 15 6 19 30 17 23 -2 30 -7 30 -24z"/>
<path d="M8686 448 c-19 -27 -21 -69 -4 -86 14 -14 62 -16 87 -2 10 5 24 23
31 40 16 40 3 55 -56 65 -36 6 -44 3 -58 -17z m62 -36 c3 -16 -2 -22 -16 -22
-25 0 -31 7 -25 31 7 27 37 20 41 -9z"/>
<path d="M4313 428 c11 -15 22 -28 23 -28 2 0 -1 13 -7 28 -5 16 -16 29 -23
29 -10 0 -8 -8 7 -29z"/>
<path d="M4346 384 c-5 -12 -2 -15 10 -10 8 3 18 6 20 6 2 0 4 5 4 10 0 16
-27 11 -34 -6z"/>
</g>
</svg>
