<?xml version="1.0" standalone="no"?>
<!DOCTYPE svg PUBLIC "-//W3C//DTD SVG 20010904//EN"
 "http://www.w3.org/TR/2001/REC-SVG-20010904/DTD/svg10.dtd">
<svg version="1.0" xmlns="http://www.w3.org/2000/svg"
 width="500.000000pt" height="144.000000pt" viewBox="0 0 500.000000 144.000000"
 preserveAspectRatio="xMidYMid meet">
<metadata>
Created by potrace 1.16, written by Peter Selinger 2001-2019
</metadata>
<g transform="translate(0.000000,144.000000) scale(0.100000,-0.100000)"
fill="#000000" stroke="none">
<path d="M2470 1341 c0 -21 47 -85 87 -118 l27 -22 -19 -40 c-15 -35 -23 -41
-49 -42 -24 -1 -26 -3 -8 -6 18 -4 21 -9 16 -29 -9 -37 17 -31 72 16 25 23 51
39 58 37 6 -2 12 -18 14 -35 4 -40 -20 -52 -48 -27 -12 11 -20 13 -20 7 0 -7
5 -12 10 -12 6 0 10 -7 10 -15 0 -18 31 -20 48 -3 7 7 12 34 12 61 0 40 -3 50
-20 54 -11 3 -20 12 -20 19 0 8 -6 14 -13 14 -18 0 -98 77 -126 123 -26 42
-31 45 -31 18z"/>
<path d="M2500 1352 c0 -5 14 -22 32 -37 25 -21 39 -26 65 -22 24 4 36 2 40
-9 3 -7 9 -14 15 -14 5 0 7 4 3 9 -7 13 43 51 68 51 15 0 18 3 11 10 -10 10
-60 -4 -74 -21 -10 -12 -119 7 -139 26 -12 10 -21 13 -21 7z"/>
<path d="M2766 1345 c-6 -16 2 -25 25 -25 23 0 26 -13 19 -72 -5 -36 -15 -57
-38 -81 -23 -24 -34 -46 -38 -80 -6 -44 -5 -47 15 -47 29 0 59 17 86 48 21 24
24 25 53 13 18 -8 55 -36 84 -64 45 -44 50 -51 33 -57 -14 -5 -15 -9 -6 -14 7
-5 15 -5 18 -2 3 3 12 1 20 -6 26 -21 26 2 -1 40 -48 69 -123 132 -157 132
-10 0 -39 -16 -64 -36 -27 -20 -51 -32 -56 -27 -13 13 9 81 31 93 21 11 45 73
36 95 -3 8 -1 17 4 20 14 9 12 62 -2 71 -21 13 -56 13 -62 -1z"/>
<path d="M2722 1258 c-20 -20 -14 -38 12 -38 30 0 42 16 26 35 -15 18 -22 19
-38 3z"/>
<path d="M2433 1075 c-15 -19 -43 -52 -61 -71 -18 -20 -31 -39 -28 -41 10 -10
44 18 71 59 16 24 38 53 49 66 11 12 15 22 9 22 -6 0 -24 -16 -40 -35z"/>
<path d="M2930 1017 c0 -9 9 -21 21 -27 31 -17 33 -7 4 20 -20 19 -25 20 -25
7z"/>
<path d="M2435 994 c-22 -19 -25 -25 -11 -22 10 2 25 13 34 26 18 28 14 27
-23 -4z"/>
<path d="M2900 999 c0 -25 28 -45 42 -31 9 9 9 12 -1 12 -8 0 -20 8 -27 18
-12 15 -13 15 -14 1z"/>
<path d="M2473 986 c-13 -6 -23 -14 -23 -18 0 -15 27 -8 45 12 20 22 13 24
-22 6z"/>
<path d="M2522 977 c-23 -11 -31 -33 -8 -24 7 3 18 1 24 -5 11 -11 42 5 42 22
0 13 -34 17 -58 7z"/>
<path d="M2632 977 c-6 -6 -19 -35 -31 -63 -17 -44 -18 -57 -9 -89 7 -20 24
-45 40 -56 52 -38 27 -70 -62 -81 -14 -2 -26 -11 -28 -20 -3 -15 5 -18 52 -18
51 0 57 2 71 30 8 16 15 41 15 55 0 18 4 24 12 19 6 -4 33 -6 59 -5 40 2 48
-1 54 -19 9 -28 3 -33 -53 -40 -39 -4 -47 -9 -47 -25 0 -27 47 -27 97 0 41 22
43 26 27 57 -10 18 -6 25 29 57 22 20 50 53 62 74 l22 38 -39 -7 c-38 -6 -39
-5 -61 41 -27 55 -40 54 -22 -2 17 -52 28 -63 62 -63 l29 0 -27 -35 c-33 -44
-84 -60 -149 -45 -25 6 -50 8 -55 5 -5 -3 -14 1 -22 8 -7 8 -19 12 -25 10 -11
-4 -15 5 -28 71 -2 10 0 26 5 35 16 30 38 81 35 81 -1 0 -7 -6 -13 -13z"/>
<path d="M2852 978 c3 -7 13 -15 24 -17 16 -3 17 -1 5 13 -16 19 -34 21 -29 4z"/>
<path d="M2358 943 c7 -3 16 -2 19 1 4 3 -2 6 -13 5 -11 0 -14 -3 -6 -6z"/>
<path d="M2965 940 c3 -5 13 -10 21 -10 8 0 12 5 9 10 -3 6 -13 10 -21 10 -8
0 -12 -4 -9 -10z"/>
<path d="M3760 812 c0 -4 5 -13 11 -19 7 -7 5 -15 -6 -27 -21 -20 -38 -11 -29
16 4 15 2 19 -7 16 -21 -7 -17 -52 4 -56 23 -5 67 24 67 43 0 8 -9 19 -20 25
-11 6 -20 7 -20 2z"/>
<path d="M2186 794 c-27 -19 -16 -48 20 -52 l31 -3 10 -87 c5 -48 8 -89 7 -91
-2 -2 -15 4 -28 13 -54 35 -122 4 -164 -74 -23 -42 -24 -52 -19 -168 5 -124 5
-124 38 -158 38 -39 84 -51 131 -35 28 10 36 9 60 -9 22 -16 36 -19 73 -13
l46 6 -8 46 c-4 25 -7 87 -6 136 1 50 -2 115 -7 145 -5 30 -10 117 -12 193 -1
83 -6 141 -12 146 -20 15 -141 19 -160 5z m127 -24 c5 -4 11 -97 13 -206 7
-311 10 -377 18 -406 10 -34 -4 -36 -60 -9 -28 14 -44 16 -57 9 -10 -5 -36 -7
-57 -3 -58 10 -96 58 -106 131 -9 75 1 185 21 223 27 53 100 77 141 46 40 -30
44 -21 39 86 -3 55 -7 105 -10 110 -4 5 -19 9 -36 9 -28 0 -37 9 -22 24 9 9
104 -3 116 -14z"/>
<path d="M2151 494 c-64 -53 -73 -202 -16 -251 43 -37 70 -39 116 -7 l40 27
-7 106 c-6 98 -8 108 -33 128 -34 29 -63 29 -100 -3z m54 -5 c4 -5 18 -14 31
-19 17 -7 24 -18 25 -37 1 -16 3 -46 5 -68 4 -43 -31 -125 -53 -125 -6 0 -25
11 -40 24 -27 23 -28 29 -28 109 0 69 3 89 19 106 21 23 32 26 41 10z"/>
<path d="M3418 803 c-24 -6 -23 -15 7 -59 33 -48 32 -69 -5 -96 -21 -15 -30
-30 -30 -49 0 -32 16 -47 33 -30 6 6 17 11 25 11 12 0 14 -31 12 -177 -1 -98
-2 -190 -1 -205 1 -40 34 -68 76 -68 35 0 44 5 87 44 l21 19 -24 17 c-33 26
-47 108 -45 280 l1 145 25 3 c37 5 43 16 30 56 -11 35 -32 47 -45 26 -11 -17
-20 -11 -32 19 -17 45 -85 78 -135 64z m71 -33 c4 0 14 -12 23 -28 13 -22 17
-64 19 -221 3 -214 14 -298 43 -330 18 -20 18 -21 -9 -31 -36 -14 -64 -4 -75
26 -5 13 -10 120 -10 237 0 195 -6 271 -26 336 -6 21 -4 23 10 18 10 -4 21 -7
25 -7z m121 -96 c0 -17 -6 -24 -19 -24 -26 0 -32 21 -13 42 18 22 32 14 32
-18z m-150 -48 c0 -22 -16 -36 -41 -36 -16 0 -10 39 9 49 26 16 32 13 32 -13z"/>
<path d="M110 735 c-16 -19 -6 -45 20 -52 11 -3 22 -13 25 -22 6 -19 25 -347
25 -438 0 -42 -5 -66 -15 -77 -18 -18 -20 -50 -2 -63 7 -6 49 -8 100 -5 82 4
89 6 97 28 8 19 5 28 -14 47 -20 21 -24 37 -34 182 -7 88 -10 198 -8 244 3 78
6 85 32 106 24 20 27 27 18 42 -9 15 -27 18 -121 21 -89 2 -112 0 -123 -13z
m213 -22 c11 -6 -12 -33 -28 -33 -20 0 -27 -28 -31 -120 -3 -90 11 -321 25
-405 5 -27 8 -51 7 -51 0 -1 -27 -4 -59 -7 -47 -5 -59 -3 -64 10 -3 8 -1 18 4
22 26 16 31 84 21 302 -5 122 -13 232 -18 245 -6 14 -18 24 -30 24 -12 0 -20
7 -20 16 0 14 11 15 93 9 50 -4 96 -9 100 -12z"/>
<path d="M843 730 c-28 -12 -29 -26 -3 -40 23 -12 56 -73 61 -110 2 -16 -7
-39 -25 -63 -23 -30 -26 -40 -16 -52 7 -8 21 -15 31 -15 11 0 19 -7 19 -17 3
-115 12 -237 20 -258 18 -46 60 -74 113 -75 34 0 47 4 47 14 0 8 6 17 13 20 8
3 6 10 -9 23 -43 38 -57 91 -69 256 -6 83 -6 83 20 95 23 11 26 16 19 45 -15
70 -32 94 -49 67 -4 -6 -18 12 -31 39 -14 27 -31 54 -39 61 -19 16 -76 21
-102 10z m80 -35 c8 -8 26 -31 38 -52 22 -35 24 -51 29 -233 5 -170 8 -199 25
-228 11 -17 23 -32 27 -32 4 0 8 -7 8 -15 0 -19 -6 -18 -49 3 -50 25 -61 68
-67 257 -6 184 -17 253 -45 289 -20 26 -20 26 0 26 11 0 26 -7 34 -15z m112
-142 c5 -26 3 -33 -9 -33 -12 0 -16 10 -16 42 0 47 14 42 25 -9z m-125 -58 c0
-16 -6 -25 -15 -25 -28 0 -18 40 13 49 1 1 2 -10 2 -24z"/>
<path d="M4030 608 c-56 -39 -69 -65 -81 -169 -14 -119 0 -231 33 -266 24 -25
75 -43 125 -43 42 0 107 57 124 108 15 46 5 247 -14 294 -16 37 -99 98 -134
98 -11 0 -35 -10 -53 -22z m109 -27 c41 -41 50 -71 68 -229 6 -54 -22 -148
-53 -181 -22 -23 -25 -24 -77 -12 -31 7 -63 21 -75 34 -30 31 -42 130 -31 240
9 88 18 116 47 150 22 24 96 23 121 -2z"/>
<path d="M4050 512 c-39 -38 -50 -71 -50 -148 0 -111 41 -169 103 -145 101 38
96 278 -6 314 -12 4 -27 -3 -47 -21z m84 -42 c25 -42 29 -147 7 -197 -29 -70
-83 -45 -97 43 -9 60 1 161 17 180 19 23 51 12 73 -26z"/>
<path d="M4455 613 c-36 -11 -57 -13 -76 -6 -15 6 -35 6 -49 1 -15 -6 -33 -5
-46 1 -39 17 -35 -1 7 -40 l41 -38 -7 -189 c-8 -205 -8 -205 45 -208 14 -1 40
3 58 8 32 9 32 11 28 56 -3 26 -8 95 -11 153 -3 58 -10 120 -15 137 l-9 32 49
0 c44 0 48 -2 55 -27 3 -15 3 -91 -1 -170 -8 -162 -2 -181 59 -200 31 -9 40
-8 67 11 34 23 34 13 10 166 -7 45 -6 89 1 143 13 86 5 118 -36 157 -31 29
-102 35 -170 13z m29 -27 c134 -3 141 -8 135 -114 -2 -37 -4 -127 -4 -200 0
-141 -3 -148 -46 -113 -23 19 -24 23 -21 153 1 73 0 152 -3 175 -6 39 -8 42
-43 47 -86 13 -107 12 -106 -6 1 -9 5 -88 8 -175 4 -87 9 -168 13 -181 5 -21
2 -22 -33 -19 l-39 3 0 196 c0 144 -3 200 -12 209 -24 24 -16 42 15 34 15 -3
76 -8 136 -9z"/>
<path d="M3719 604 c-10 -13 -10 -20 5 -45 15 -25 18 -54 17 -185 -1 -190 6
-214 72 -236 38 -12 49 -13 71 -1 14 8 26 16 26 19 0 2 -12 23 -27 47 -25 39
-27 52 -33 192 -4 124 -9 155 -24 178 -30 44 -83 60 -107 31z m64 -46 c22 -38
25 -59 30 -187 5 -125 9 -149 27 -173 18 -24 26 -48 16 -48 -20 0 -69 27 -79
44 -7 13 -14 86 -18 191 -3 94 -10 180 -14 193 -13 38 12 25 38 -20z"/>
<path d="M515 580 c-5 -8 -20 -9 -41 -5 -26 4 -36 2 -40 -10 -8 -21 14 -72 38
-90 18 -12 20 -28 23 -195 2 -100 5 -184 8 -186 12 -12 68 -6 93 11 24 16 26
21 20 64 -19 122 -29 282 -19 291 4 5 24 11 43 15 l35 6 1 -151 c2 -149 10
-194 41 -232 12 -13 20 -15 46 -6 18 6 42 19 53 30 l22 19 -26 67 c-22 58 -25
84 -26 192 -1 104 -5 130 -20 153 -18 27 -21 27 -100 25 -44 -1 -95 1 -113 5
-20 5 -34 4 -38 -3z m222 -55 c11 -15 14 -45 12 -125 -3 -118 12 -202 41 -241
l19 -27 -29 -12 c-16 -7 -36 -10 -44 -7 -23 9 -36 93 -39 242 l-2 140 -57 0
c-32 0 -63 -6 -70 -13 -15 -15 -14 -223 2 -262 6 -15 10 -45 8 -66 -3 -34 -6
-39 -28 -39 l-25 0 -6 165 c-7 183 -14 236 -35 244 -39 15 -2 22 112 21 113 0
127 -2 141 -20z"/>
<path d="M2761 581 c-31 -8 -44 -50 -35 -111 5 -39 6 -252 1 -256 -1 -1 -16 1
-34 3 -22 4 -41 17 -59 40 -25 33 -27 44 -30 138 -3 123 -18 162 -67 172 -18
4 -36 6 -42 4 -5 -2 -19 -5 -30 -7 -11 -1 -22 -3 -24 -3 -3 -1 5 -10 17 -21
12 -12 23 -33 23 -48 1 -15 2 -90 4 -168 1 -80 7 -150 14 -162 17 -32 74 -44
149 -31 49 9 69 9 87 -1 17 -9 28 -9 43 -1 11 6 28 8 38 4 15 -6 16 -2 10 28
-4 19 -9 119 -12 223 -2 104 -7 192 -10 197 -6 10 -8 10 -43 0z m-227 -50 c9
-16 18 -55 20 -87 20 -215 28 -233 115 -242 82 -8 83 -4 81 178 -3 191 -4 180
20 180 19 0 20 -4 14 -37 -10 -50 -10 -310 -1 -346 6 -21 4 -29 -9 -34 -10 -4
-20 0 -25 10 -9 16 -64 15 -121 -3 -37 -12 -95 6 -109 32 -7 13 -13 84 -14
172 -1 83 -6 163 -10 179 -10 38 19 37 39 -2z"/>
<path d="M2983 559 c-58 -37 -76 -81 -80 -199 -6 -133 7 -175 63 -208 32 -19
48 -22 88 -17 72 9 103 28 115 73 15 51 14 60 -8 72 -27 14 -26 14 -66 -21
-33 -30 -36 -30 -59 -15 -13 8 -27 29 -31 46 -8 39 2 108 22 139 13 20 20 22
60 16 54 -8 72 9 73 68 0 43 -11 50 -95 60 -40 5 -56 3 -82 -14z m135 -36 c16
-17 21 -31 16 -46 -10 -33 -14 -34 -33 -8 -23 30 -62 23 -102 -20 -34 -36 -43
-75 -34 -145 11 -93 63 -119 122 -62 18 17 35 30 37 27 2 -2 7 -20 11 -40 8
-44 -12 -68 -58 -71 -117 -5 -157 39 -157 174 1 134 27 205 81 219 42 10 93
-2 117 -28z"/>
<path d="M1331 552 c-36 -12 -50 -13 -78 -3 -27 10 -41 10 -64 1 -33 -14 -37
-27 -12 -45 31 -23 44 -276 18 -350 -17 -48 -10 -58 46 -57 82 1 99 54 77 245
-10 83 -9 100 3 108 25 16 37 10 44 -21 5 -25 12 -30 35 -30 45 0 54 20 39 87
-12 55 -31 84 -53 82 -6 -1 -31 -8 -55 -17z m-22 -46 c23 4 44 11 47 15 12 21
32 6 43 -32 7 -23 15 -47 18 -55 3 -8 -1 -14 -10 -14 -16 0 -27 20 -27 52 0
15 -4 18 -17 13 -10 -4 -31 -13 -48 -19 -16 -6 -32 -14 -35 -18 -3 -3 -1 -67
4 -141 11 -170 8 -187 -40 -187 -35 0 -36 1 -28 28 11 35 12 261 1 329 l-9 52
30 -15 c21 -10 43 -12 71 -8z"/>
<path d="M1547 544 c-56 -37 -70 -78 -71 -210 -1 -105 0 -112 27 -153 73 -110
188 -77 230 66 18 59 12 201 -9 251 -17 37 -24 44 -70 57 -65 19 -61 19 -107
-11z m96 -19 c31 -5 41 -12 52 -38 46 -114 16 -300 -57 -346 -31 -19 -82 10
-115 66 -26 44 -28 55 -26 141 1 52 7 108 13 125 10 34 54 67 80 62 8 -2 32
-6 53 -10z"/>
<path d="M1561 473 c-59 -74 -40 -254 30 -283 38 -16 62 3 79 65 17 62 5 186
-22 220 -26 33 -61 32 -87 -2z m75 -14 c16 -18 19 -37 19 -113 0 -147 -21
-182 -66 -110 -18 29 -22 51 -22 117 0 45 3 92 7 105 9 28 37 28 62 1z"/>
<path d="M3282 437 c-25 -8 -32 -15 -30 -31 2 -16 11 -21 42 -24 21 -1 47 -7
58 -13 28 -15 39 0 32 43 -6 33 -9 36 -38 35 -17 0 -46 -5 -64 -10z m58 -17
c0 -21 -6 -24 -35 -21 -37 4 -44 9 -25 21 20 13 60 13 60 0z"/>
<path d="M1861 381 c-65 -18 -46 -74 23 -69 40 3 41 4 41 38 0 38 -15 45 -64
31z m27 -39 c3 -23 -5 -27 -32 -16 -19 7 -21 30 -3 37 20 9 32 2 35 -21z"/>
<path d="M4785 204 c-43 -22 -48 -29 -41 -59 6 -22 11 -25 44 -24 20 1 47 8
60 16 28 17 29 58 3 73 -26 13 -30 13 -66 -6z m40 -44 c0 -10 -12 -16 -32 -18
-28 -3 -33 0 -33 18 0 18 5 21 33 18 20 -2 32 -8 32 -18z"/>
</g>
</svg>
