<?xml version="1.0" standalone="no"?>
<!DOCTYPE svg PUBLIC "-//W3C//DTD SVG 20010904//EN"
 "http://www.w3.org/TR/2001/REC-SVG-20010904/DTD/svg10.dtd">
<svg version="1.0" xmlns="http://www.w3.org/2000/svg"
 width="1000.000000pt" height="589.000000pt" viewBox="0 0 1000.000000 589.000000"
 preserveAspectRatio="xMidYMid meet">
<metadata>
Created by potrace 1.16, written by Peter Selinger 2001-2019
</metadata>
<g transform="translate(0.000000,589.000000) scale(0.100000,-0.100000)"
fill="#000000" stroke="none">
<path d="M2159 5798 c-40 -63 -12 -239 69 -440 18 -43 39 -110 48 -150 27
-122 37 -148 120 -308 13 -25 55 -80 94 -123 38 -43 70 -82 70 -88 0 -5 -9
-22 -20 -37 -18 -26 -40 -85 -54 -144 -7 -32 1 -58 19 -58 7 0 16 -7 19 -16 3
-8 10 -12 16 -9 6 4 7 13 1 24 -15 27 3 132 24 148 18 13 18 13 0 26 -12 10
-14 16 -7 21 16 10 32 -1 32 -22 0 -11 3 -13 11 -5 21 21 -25 118 -100 207
-39 47 -80 106 -91 132 -11 25 -29 57 -40 71 -10 13 -24 48 -30 77 -6 29 -17
62 -25 72 -8 11 -14 30 -14 44 l0 25 20 -27 c11 -16 27 -28 35 -28 19 0 18 5
-10 46 -16 23 -26 31 -31 24 -8 -13 -45 60 -45 89 0 9 -6 25 -13 36 -7 11 -21
47 -32 80 -10 33 -22 65 -27 71 -23 31 -40 226 -21 245 19 19 39 -2 91 -91 29
-49 57 -92 62 -95 6 -3 10 -20 10 -37 0 -37 36 -90 59 -86 20 5 66 -53 50 -63
-13 -7 -3 -49 12 -49 5 0 9 10 9 22 0 21 0 21 18 2 23 -26 116 -181 130 -219
27 -69 54 -194 58 -270 4 -88 10 -123 27 -172 10 -30 27 -45 27 -24 0 4 17 8
38 7 33 -1 37 2 37 24 0 33 -30 38 -54 9 l-18 -23 -13 24 c-7 14 -14 68 -15
129 -3 103 -6 122 -40 245 -24 86 -101 231 -159 297 -92 107 -186 241 -186
264 0 8 -3 15 -8 15 -4 0 -13 14 -21 32 -18 40 -79 108 -97 108 -8 0 -24 -15
-35 -32z"/>
<path d="M3463 5778 c-12 -13 -48 -75 -80 -139 -94 -187 -122 -229 -221 -329
-104 -105 -180 -197 -207 -249 -9 -19 -30 -52 -45 -73 -33 -46 -90 -196 -90
-239 0 -34 20 -40 20 -6 1 36 67 182 84 185 9 2 19 16 22 30 16 77 68 154 181
269 63 64 122 127 130 140 15 22 16 22 28 6 12 -16 14 -13 20 22 3 22 16 58
28 80 11 22 48 94 81 160 41 81 67 121 80 124 17 3 18 -1 13 -43 -8 -58 -26
-94 -37 -76 -4 7 -13 9 -19 6 -14 -9 -15 -76 -1 -76 6 0 10 5 10 10 0 6 4 10
9 10 11 0 11 2 -19 -136 -32 -151 -75 -284 -91 -284 -5 0 -17 -19 -26 -42 -52
-131 -162 -283 -246 -339 -41 -28 -131 -118 -124 -125 23 -24 285 227 330 316
37 74 95 180 113 207 15 24 77 260 100 387 8 44 19 98 24 120 5 23 10 56 10
74 0 29 -3 32 -28 32 -17 0 -37 -9 -49 -22z"/>
<path d="M6524 5738 c-4 -6 -10 -61 -15 -122 -4 -61 -14 -158 -23 -216 -16
-111 -14 -246 3 -293 6 -16 11 -39 11 -53 0 -40 58 -201 116 -320 31 -63 57
-132 60 -160 4 -27 14 -57 22 -66 12 -14 14 -36 9 -110 -8 -118 -14 -140 -37
-133 -19 6 -36 -20 -20 -30 18 -11 10 -26 -10 -20 -24 8 -25 2 -4 -20 10 -9
13 -22 9 -33 -6 -15 -8 -14 -18 6 -5 12 -14 22 -19 22 -12 0 -10 -13 8 -38 10
-14 12 -27 6 -38 -6 -12 -11 -6 -21 26 -7 23 -15 39 -18 36 -3 -3 2 -28 11
-55 15 -48 15 -53 -5 -118 -36 -116 -34 -115 -59 -15 -25 102 -45 133 -36 56
l6 -49 -17 48 c-18 51 -38 64 -31 20 8 -47 40 -167 51 -191 16 -35 12 -121 -9
-197 -30 -104 -96 -246 -112 -240 -10 3 -12 -1 -7 -18 6 -21 6 -21 -9 -3 -15
19 -16 18 -29 -12 -10 -25 -16 -29 -25 -20 -15 15 -15 6 0 -26 6 -14 19 -28
30 -31 20 -7 25 -25 6 -25 -7 0 -24 16 -37 35 -30 44 -41 44 -41 2 0 -39 -8
-51 -26 -36 -14 11 -44 -23 -44 -52 0 -9 -9 -24 -19 -33 -16 -15 -22 -16 -43
-4 -12 7 -26 18 -31 23 -4 6 -4 -19 -1 -55 5 -52 3 -68 -9 -78 -10 -9 -17 -10
-22 -2 -3 5 -13 10 -21 10 -31 0 9 -183 46 -210 3 -3 17 -21 31 -41 39 -58
100 -130 157 -183 28 -28 52 -54 52 -60 0 -5 -3 -6 -7 -3 -10 11 -33 -13 -33
-34 0 -23 8 -24 31 -3 17 15 18 14 24 -12 40 -181 93 -245 313 -382 46 -29 92
-62 101 -72 9 -11 31 -23 48 -26 30 -6 37 -1 95 61 53 56 215 185 234 185 9 0
88 64 102 83 7 9 30 26 50 36 20 11 44 28 52 38 58 71 81 105 96 144 10 24 36
71 58 104 76 113 117 224 148 395 12 67 16 190 6 197 -5 2 -8 -8 -8 -23 0 -15
-4 -54 -10 -86 -5 -32 -15 -86 -21 -120 -5 -35 -16 -67 -22 -73 -7 -5 -29 -36
-50 -67 -20 -32 -42 -58 -48 -58 -14 0 -1 38 21 60 21 21 92 141 87 146 -2 3
-23 -24 -45 -59 -62 -96 -68 -98 -77 -32 -6 48 -4 58 13 73 25 22 115 152 109
158 -5 5 -66 -76 -86 -114 -6 -12 -20 -26 -31 -32 -18 -9 -20 -8 -20 15 0 15
4 24 10 20 5 -3 20 10 32 28 13 19 41 61 62 93 22 33 48 69 59 81 20 23 18 41
-3 28 -12 -8 -83 -102 -123 -163 -15 -24 -31 -41 -35 -38 -5 3 -14 31 -22 63
-7 32 -26 110 -43 173 -16 63 -38 153 -47 200 -10 47 -23 104 -30 126 -10 35
-10 50 3 90 29 93 36 141 38 300 1 61 -1 116 -4 121 -13 20 -46 1 -62 -35 -27
-61 -46 -92 -55 -92 -5 0 -14 26 -20 58 -6 31 -15 72 -20 90 -4 18 -7 82 -5
143 3 108 4 111 44 178 22 37 47 73 55 81 9 7 16 16 16 20 0 8 80 143 97 165
19 24 89 163 122 240 45 109 70 262 75 476 3 103 1 129 -10 129 -7 0 -20 -21
-28 -47 -85 -265 -154 -383 -297 -508 -147 -129 -219 -241 -283 -439 -5 -15
-12 -10 -39 30 -49 72 -187 328 -187 347 0 7 -7 26 -16 42 -8 17 -25 57 -36
90 -11 33 -23 65 -27 70 -4 6 -13 30 -21 55 -7 25 -21 72 -30 105 -10 33 -28
98 -40 145 -39 154 -57 190 -76 158z m45 -114 c9 -33 9 -50 2 -57 -6 -6 -10
-27 -10 -46 2 -31 3 -32 6 -8 2 15 8 27 12 27 8 0 61 -186 61 -212 0 -10 -3
-9 -11 2 -9 13 -10 13 -6 -2 3 -9 20 -65 38 -125 47 -158 212 -551 232 -552 5
-1 5 9 1 22 -4 12 -7 28 -7 35 0 6 -3 12 -7 12 -11 0 -60 107 -148 320 -38 94
-76 219 -68 227 3 4 6 1 6 -6 0 -11 15 -46 113 -266 18 -38 42 -86 54 -105 13
-19 23 -46 23 -60 0 -14 4 -30 10 -36 5 -5 16 -27 25 -49 12 -31 14 -34 11
-12 -4 34 -6 35 44 -42 35 -55 54 -69 55 -43 3 32 20 91 37 125 64 131 88 170
138 228 30 35 62 70 71 79 9 8 51 49 93 90 75 73 76 74 54 31 -13 -24 -31 -53
-40 -65 -10 -11 -39 -48 -66 -81 -56 -68 -110 -155 -166 -265 -21 -41 -43 -80
-48 -87 -6 -7 -8 -17 -6 -24 2 -6 23 27 47 72 61 118 147 248 263 397 18 23
31 43 28 45 -3 1 5 16 18 34 12 17 21 37 19 45 -2 7 -2 10 0 5 3 -4 13 3 24
15 12 15 18 18 19 9 0 -8 3 -11 7 -8 3 4 -2 17 -13 28 -19 22 -19 22 3 11 19
-10 22 -8 32 18 8 24 7 30 -4 30 -13 0 -10 34 5 55 4 6 20 47 36 93 24 71 29
80 37 60 10 -26 5 -99 -17 -263 -22 -163 -63 -276 -171 -470 -21 -38 -108
-170 -148 -224 -56 -76 -75 -132 -77 -227 -2 -105 13 -201 85 -519 9 -38 20
-94 25 -124 5 -30 14 -68 19 -85 6 -17 15 -60 21 -95 6 -36 22 -99 35 -140 43
-143 91 -385 100 -506 10 -135 -7 -212 -77 -362 -6 -11 -31 -41 -55 -65 -30
-29 -41 -35 -33 -20 20 40 3 36 -23 -5 -26 -41 -68 -77 -152 -130 -95 -60
-140 -97 -211 -170 -38 -40 -77 -73 -86 -73 -22 0 -30 41 -18 92 6 24 12 51
15 60 2 10 20 63 39 119 20 56 36 108 36 117 0 9 10 26 22 39 22 23 15 31 -12
13 -11 -7 -23 -2 -43 18 -28 26 -29 27 -43 8 -18 -26 -18 -42 1 -26 21 17 48
4 42 -20 -3 -11 -1 -23 4 -26 5 -3 9 -12 9 -21 0 -13 -3 -13 -15 -3 -12 10
-15 10 -15 -2 0 -8 5 -19 11 -25 14 -14 3 -33 -18 -33 -10 0 -13 -5 -8 -17 12
-32 10 -38 -8 -36 -15 1 -17 -4 -12 -20 12 -41 10 -52 -8 -51 -13 2 -16 -3
-12 -17 7 -21 -3 -99 -14 -118 -6 -9 -21 -4 -57 17 -27 16 -63 38 -80 48 -59
35 -191 153 -218 195 -34 50 -45 86 -51 157 -3 29 -13 79 -22 110 -14 46 -18
92 -17 232 0 154 3 191 28 305 29 134 66 245 116 350 25 55 46 124 87 290 25
99 83 271 125 368 29 67 40 107 40 147 2 77 -11 152 -24 144 -7 -5 -9 13 -6
57 4 51 0 77 -18 128 -13 35 -24 71 -24 81 0 10 -7 23 -16 30 -13 12 -14 10
-6 -11 19 -50 34 -101 30 -105 -7 -6 -72 140 -108 240 -34 93 -51 184 -30 156
9 -12 10 -10 8 10 -2 14 -9 24 -16 22 -8 -1 -11 2 -8 7 4 5 1 29 -5 53 -9 34
-8 77 5 203 10 88 19 169 20 180 2 11 4 39 5 63 1 54 15 47 30 -14z m778
-1518 c-2 -79 -6 -109 -18 -123 -9 -10 -20 -31 -24 -48 l-8 -30 -12 30 c-7 17
-16 49 -20 72 -6 36 -4 43 14 53 19 9 51 58 51 76 0 13 -39 -28 -45 -47 -4
-11 -11 -19 -16 -19 -17 0 -9 25 20 60 15 19 31 45 35 58 16 49 25 16 23 -82z
m-828 -172 c1 -12 8 -27 16 -34 17 -14 20 -56 6 -65 -5 -3 -12 3 -15 12 -6 22
-26 134 -25 142 1 13 18 -36 18 -55z m817 -14 c-8 -58 -15 -80 -26 -80 -15 0
-19 44 -6 60 7 8 16 27 20 43 11 46 19 30 12 -23z m-968 -558 c2 -14 -2 -22
-12 -22 -19 0 -28 14 -20 35 9 21 28 14 32 -13z m-24 -131 c-9 -47 -10 -48
-35 -25 -35 32 -42 53 -28 85 l12 30 29 -27 c24 -24 27 -33 22 -63z m-101 39
c3 -11 3 -20 1 -20 -2 0 -8 9 -14 20 -6 11 -7 20 -2 20 6 0 12 -9 15 -20z m45
-111 c18 -20 32 -47 32 -61 0 -44 -12 -118 -20 -118 -6 0 -98 132 -123 176 -3
5 5 23 19 39 13 15 24 33 25 39 0 6 8 0 17 -14 9 -14 32 -41 50 -61z m-97 -55
c30 -47 69 -106 87 -131 35 -46 36 -77 1 -33 -55 70 -149 224 -149 245 0 13
11 -1 61 -81z m15 -99 c9 -16 34 -50 54 -75 35 -41 39 -53 49 -137 6 -51 14
-99 17 -108 10 -25 -3 -17 -54 33 -53 51 -160 189 -184 237 -16 30 -39 105
-33 105 2 0 21 -33 43 -73 62 -113 203 -280 202 -239 0 4 -21 30 -46 57 -67
73 -125 153 -152 209 -21 45 -22 50 -7 58 9 5 21 22 26 36 l10 27 29 -50 c16
-28 36 -63 46 -80z m1364 -76 c-12 -24 -30 -59 -42 -77 -11 -18 -18 -36 -15
-39 4 -3 12 6 18 21 7 14 16 26 20 26 11 0 -38 -85 -59 -102 -14 -11 -14 -9 2
16 13 20 15 31 8 34 -21 7 -13 39 24 93 20 30 41 60 46 67 20 23 18 5 -2 -39z"/>
<path d="M6533 5424 c-3 -8 -1 -20 6 -27 8 -8 11 -4 9 16 -3 31 -6 34 -15 11z"/>
<path d="M6574 5395 c3 -17 10 -68 17 -115 10 -74 25 -127 86 -294 7 -21 11
-41 9 -44 -3 -2 -10 8 -16 24 -6 16 -15 38 -20 49 -6 11 -17 38 -25 60 -14 38
-15 38 -9 6 8 -41 90 -261 103 -274 6 -6 8 -1 4 14 -11 43 5 16 37 -66 17 -44
34 -82 37 -85 10 -9 -9 65 -27 105 -10 22 -30 81 -45 130 -15 50 -45 133 -67
185 -32 73 -44 120 -56 205 -8 60 -18 114 -23 120 -6 6 -8 -2 -5 -20z m146
-538 c0 -5 -4 -5 -10 -2 -5 3 -10 14 -10 23 0 15 2 15 10 2 5 -8 10 -19 10
-23z"/>
<path d="M7549 5363 c-6 -21 -21 -57 -32 -81 -11 -23 -17 -45 -15 -48 3 -2 11
10 18 28 7 18 19 40 25 48 13 15 30 90 21 90 -2 0 -10 -17 -17 -37z"/>
<path d="M6539 5315 c-4 -80 1 -178 11 -190 4 -5 10 -28 14 -50 11 -62 37
-135 66 -185 28 -47 94 -206 105 -252 4 -16 11 -28 16 -28 5 0 6 12 3 28 -11
41 -72 190 -104 253 -57 110 -90 234 -100 379 -6 92 -7 98 -11 45z"/>
<path d="M7444 5208 c-10 -24 -21 -45 -25 -48 -3 -3 -22 -30 -42 -60 -20 -30
-43 -62 -49 -70 -69 -81 -239 -372 -225 -386 6 -6 35 42 68 111 29 60 80 144
126 205 87 116 192 290 175 290 -5 0 -17 -19 -28 -42z"/>
<path d="M7515 5204 c-9 -50 0 -53 13 -4 5 22 6 40 2 40 -4 0 -11 -16 -15 -36z"/>
<path d="M7480 5195 c-6 -15 -8 -30 -6 -33 3 -3 10 8 16 23 6 15 8 30 6 33 -3
3 -10 -8 -16 -23z"/>
<path d="M7431 5089 c-33 -64 -36 -73 -23 -65 12 7 65 116 60 122 -3 2 -19
-23 -37 -57z"/>
<path d="M7482 5130 c-13 -22 -17 -60 -4 -44 14 16 32 64 24 64 -4 0 -13 -9
-20 -20z"/>
<path d="M7426 5004 c-10 -26 -35 -67 -54 -93 -20 -25 -68 -93 -106 -150 -39
-57 -78 -113 -86 -124 -8 -11 -10 -18 -3 -16 15 5 228 310 259 370 26 52 28
59 17 59 -5 0 -17 -21 -27 -46z"/>
<path d="M7187 4977 c-30 -35 -73 -99 -95 -143 -36 -73 -58 -134 -48 -134 7 0
46 80 46 94 0 8 7 16 15 20 8 3 15 12 15 19 0 8 7 20 15 27 8 7 15 21 15 32 0
11 23 45 50 75 43 47 60 73 46 73 -2 0 -28 -28 -59 -63z"/>
<path d="M7336 4938 c-158 -232 -207 -310 -202 -315 3 -3 22 22 43 57 21 34
73 110 116 168 82 111 113 162 100 162 -5 0 -30 -33 -57 -72z"/>
<path d="M6610 4875 c0 -5 5 -17 10 -25 5 -8 10 -10 10 -5 0 6 -5 17 -10 25
-5 8 -10 11 -10 5z"/>
<path d="M6826 4683 c9 -38 14 -42 14 -10 0 14 -5 29 -10 32 -7 4 -8 -3 -4
-22z"/>
<path d="M6923 4618 c-23 -30 -22 -45 3 -45 21 0 23 3 17 26 -8 33 -8 34 -20
19z"/>
<path d="M7006 4608 c-19 -27 -21 -44 -3 -29 10 8 17 7 25 -1 9 -9 12 -6 12
14 0 36 -15 43 -34 16z"/>
<path d="M6843 4603 c-3 -10 -8 -21 -10 -25 -2 -4 3 -5 11 -2 11 4 16 0 16
-12 0 -12 3 -15 10 -8 7 7 8 19 1 37 -12 31 -19 34 -28 10z"/>
<path d="M7097 4592 c-19 -21 -23 -37 -6 -27 6 4 13 -2 16 -14 8 -33 20 -25
19 13 -2 44 -9 51 -29 28z"/>
<path d="M6750 4551 c-13 -26 -13 -52 1 -28 9 15 13 16 27 5 14 -11 15 -10 9
5 -4 10 -7 23 -7 28 0 16 -19 10 -30 -10z"/>
<path d="M6953 4539 c-9 -9 -8 -15 3 -27 19 -19 27 -11 16 17 -6 16 -10 19
-19 10z"/>
<path d="M7022 4520 c-16 -25 -15 -31 2 -24 8 3 16 -4 19 -17 9 -34 15 -19 9
24 -5 42 -12 46 -30 17z"/>
<path d="M7113 4492 c-1 -10 8 -24 19 -31 30 -19 35 -4 7 24 -22 22 -25 23
-26 7z"/>
<path d="M6814 4489 c-6 -10 12 -29 29 -29 9 0 9 4 1 24 -7 19 -20 21 -30 5z"/>
<path d="M6886 4474 c-5 -14 -4 -15 8 -5 11 9 15 8 20 -4 3 -8 10 -15 16 -15
8 0 8 6 0 20 -13 24 -36 26 -44 4z"/>
<path d="M7030 4430 c0 -5 5 -10 10 -10 6 0 10 5 10 10 0 6 -4 10 -10 10 -5 0
-10 -4 -10 -10z"/>
<path d="M7090 4421 c-13 -26 -14 -26 16 -27 19 -2 24 2 20 13 -3 8 -6 19 -6
24 0 16 -19 10 -30 -10z"/>
<path d="M6779 4404 c-10 -13 -10 -17 2 -25 22 -14 27 -11 21 16 -5 29 -6 30
-23 9z"/>
<path d="M6866 4411 c-4 -6 -13 -8 -21 -5 -10 4 -12 0 -8 -15 3 -12 9 -21 13
-21 5 0 15 -2 22 -5 10 -4 14 2 13 19 0 28 -10 42 -19 27z"/>
<path d="M6957 4402 c-23 -25 -21 -39 2 -18 12 11 21 14 26 7 3 -6 13 -11 21
-11 12 0 12 4 4 20 -13 25 -32 25 -53 2z"/>
<path d="M6805 4310 c-18 -20 -19 -22 -2 -31 9 -6 17 -19 17 -31 0 -17 3 -18
15 -8 10 8 13 21 9 39 -12 48 -19 54 -39 31z"/>
<path d="M6951 4292 c-12 -23 9 -59 27 -48 16 10 15 41 -2 55 -12 10 -17 8
-25 -7z"/>
<path d="M6722 4230 c-14 -23 -16 -42 -2 -20 8 12 11 13 19 1 11 -17 25 3 17
24 -7 20 -19 19 -34 -5z"/>
<path d="M7101 4236 c-7 -8 -9 -20 -5 -27 5 -8 9 -7 16 4 5 10 15 14 25 10 11
-4 14 -2 11 8 -7 20 -33 23 -47 5z"/>
<path d="M6877 4213 c-8 -7 11 -33 24 -33 5 0 9 9 9 20 0 19 -20 27 -33 13z"/>
<path d="M6780 4155 c-13 -14 -20 -28 -16 -32 4 -4 11 -1 15 6 5 7 13 11 19 7
15 -9 25 11 15 29 -8 13 -13 12 -33 -10z"/>
<path d="M6893 4157 c-25 -31 -26 -39 -4 -32 15 5 21 2 21 -9 0 -9 8 -16 17
-16 13 0 14 3 5 12 -7 7 -12 20 -12 29 0 23 -15 32 -27 16z"/>
<path d="M6960 4155 c0 -8 5 -15 10 -15 6 0 10 7 10 15 0 8 -4 15 -10 15 -5 0
-10 -7 -10 -15z"/>
<path d="M6700 4114 c-13 -33 -12 -54 1 -31 14 24 33 22 19 -2 -15 -29 -12
-48 5 -25 8 11 15 14 15 7 0 -7 5 -13 11 -13 12 0 2 58 -13 78 -16 19 -28 15
-38 -14z"/>
<path d="M7063 4105 c-3 -9 -3 -18 0 -21 9 -9 27 6 27 22 0 19 -19 18 -27 -1z"/>
<path d="M6806 4088 c-19 -26 -21 -47 -4 -30 16 16 28 15 28 -2 0 -15 18 -31
25 -24 7 7 -16 78 -25 78 -5 0 -16 -10 -24 -22z"/>
<path d="M6945 4061 c-3 -5 -1 -12 5 -16 5 -3 10 1 10 9 0 18 -6 21 -15 7z"/>
<path d="M7110 4035 c0 -13 4 -14 20 -5 11 6 20 13 20 15 0 3 -9 5 -20 5 -11
0 -20 -7 -20 -15z"/>
<path d="M6636 3988 c-9 -12 -16 -29 -15 -38 0 -10 4 -7 11 8 16 33 42 29 34
-5 -6 -26 -5 -27 8 -10 12 16 17 16 34 6 20 -13 20 -13 1 -40 -10 -15 -19 -35
-18 -46 0 -15 2 -15 11 5 13 26 23 28 32 6 3 -8 11 -12 17 -9 8 5 8 10 0 18
-6 6 -11 21 -11 33 0 12 -7 27 -15 34 -8 7 -15 21 -15 32 0 15 -5 18 -20 13
-11 -4 -20 -2 -20 4 0 18 -18 12 -34 -11z"/>
<path d="M6772 3990 c-10 -17 -10 -20 3 -20 8 0 15 -7 15 -15 0 -8 5 -15 10
-15 6 0 10 -12 10 -27 1 -24 2 -26 13 -12 10 14 14 14 25 2 7 -7 18 -11 24 -7
6 4 7 9 0 13 -5 3 -12 16 -16 29 -4 12 -11 20 -16 17 -18 -11 -37 6 -32 31 5
30 -18 33 -36 4z"/>
<path d="M6877 3993 c-11 -10 14 -33 36 -33 19 0 20 1 2 20 -19 21 -28 24 -38
13z"/>
<path d="M6940 3960 c0 -5 5 -10 10 -10 6 0 10 5 10 10 0 6 -4 10 -10 10 -5 0
-10 -4 -10 -10z"/>
<path d="M6910 3929 c0 -5 5 -7 10 -4 6 3 10 8 10 11 0 2 -4 4 -10 4 -5 0 -10
-5 -10 -11z"/>
<path d="M7032 3918 c-19 -19 -14 -29 8 -16 20 13 27 28 12 28 -4 0 -13 -5
-20 -12z"/>
<path d="M7154 3915 c-18 -15 -18 -15 5 -13 14 2 26 9 29 16 5 17 -10 15 -34
-3z"/>
<path d="M6930 3885 c0 -9 5 -15 10 -13 12 4 11 16 -1 24 -5 3 -9 -2 -9 -11z"/>
<path d="M6601 3827 c-13 -26 -22 -50 -19 -53 4 -3 9 4 13 15 4 14 15 21 31
21 13 0 24 5 24 10 0 6 -4 10 -9 10 -5 0 -11 10 -13 22 -2 18 -7 14 -27 -25z"/>
<path d="M6850 3840 c-7 -17 -10 -33 -6 -37 3 -3 6 -1 6 6 0 8 6 11 16 7 25
-10 33 2 21 29 -15 32 -22 31 -37 -5z"/>
<path d="M6767 3832 c-22 -24 -23 -56 -1 -48 9 3 20 6 25 6 11 0 12 30 1 48
-7 10 -12 8 -25 -6z"/>
<path d="M6930 3810 c0 -5 5 -10 10 -10 6 0 10 5 10 10 0 6 -4 10 -10 10 -5 0
-10 -4 -10 -10z"/>
<path d="M6642 3780 c-6 -11 -12 -27 -12 -36 0 -13 3 -14 15 -4 8 6 19 9 24 6
15 -9 20 6 10 32 -10 27 -20 28 -37 2z"/>
<path d="M6837 3752 c-22 -24 -24 -50 -3 -33 10 8 16 9 21 1 12 -20 21 -10 17
20 -5 35 -12 37 -35 12z"/>
<path d="M6728 3718 c-19 -29 -13 -47 12 -41 14 4 20 14 20 34 0 35 -12 37
-32 7z"/>
<path d="M6925 3730 c-7 -12 2 -30 16 -30 12 0 12 27 0 35 -5 3 -12 1 -16 -5z"/>
<path d="M7111 3721 c-12 -12 -21 -25 -21 -31 0 -16 20 -12 26 5 4 10 13 13
26 9 15 -4 19 -2 16 12 -5 26 -24 28 -47 5z"/>
<path d="M6582 3700 c-16 -27 -16 -27 18 -27 17 0 30 4 30 9 0 4 -4 8 -10 8
-5 0 -10 7 -10 15 0 21 -13 19 -28 -5z"/>
<path d="M6869 3679 c-9 -17 -8 -23 2 -30 16 -10 29 -8 29 4 0 4 0 16 0 27 0
26 -16 26 -31 -1z"/>
<path d="M6785 3650 c-20 -22 -19 -25 13 -34 19 -6 22 -4 22 18 0 34 -14 40
-35 16z"/>
<path d="M6626 3638 c-18 -26 -21 -48 -6 -48 6 0 10 5 10 10 0 7 6 7 19 0 14
-7 22 -7 27 2 4 6 2 14 -4 16 -7 2 -12 12 -12 23 0 25 -15 24 -34 -3z"/>
<path d="M6544 3639 c-20 -28 -37 -69 -31 -75 4 -4 11 5 16 20 8 19 18 26 36
26 14 0 25 5 25 10 0 6 -6 10 -14 10 -8 0 -16 5 -18 11 -2 7 -7 7 -14 -2z"/>
<path d="M7227 3643 c-4 -3 -7 -12 -7 -20 0 -11 4 -11 20 -3 11 6 18 15 15 21
-7 11 -19 12 -28 2z"/>
<path d="M6921 3607 c-6 -8 -8 -17 -5 -20 10 -9 45 13 39 24 -9 13 -21 11 -34
-4z"/>
<path d="M6767 3589 c-30 -17 -20 -32 19 -26 31 5 34 4 29 -14 -7 -23 13 -26
21 -4 5 12 9 13 20 4 19 -16 31 -2 17 19 -7 10 -22 16 -39 15 -15 -1 -33 2
-39 7 -6 5 -17 4 -28 -1z"/>
<path d="M6671 3546 c-29 -31 -26 -35 17 -29 28 5 47 23 23 23 -5 0 -11 7 -13
16 -2 13 -8 11 -27 -10z"/>
<path d="M6535 3500 c-9 -17 -11 -30 -5 -30 5 0 10 5 10 10 0 6 11 10 25 10
29 0 31 6 11 26 -20 19 -23 18 -41 -16z"/>
<path d="M6905 3520 c-3 -5 -1 -10 4 -10 6 0 11 5 11 10 0 6 -2 10 -4 10 -3 0
-8 -4 -11 -10z"/>
<path d="M6751 3501 c-16 -28 -14 -31 15 -31 20 0 25 4 22 22 -4 29 -24 34
-37 9z"/>
<path d="M6475 3467 c-22 -35 -15 -48 11 -20 13 12 18 26 14 33 -6 9 -13 5
-25 -13z"/>
<path d="M7117 3473 c-4 -3 -7 -12 -7 -20 0 -11 4 -11 20 -1 11 7 20 16 20 20
0 10 -24 10 -33 1z"/>
<path d="M6597 3456 c-3 -9 -15 -12 -31 -9 -30 6 -34 -7 -8 -23 17 -10 80 -14
74 -4 -1 3 -5 15 -8 28 -7 25 -19 29 -27 8z"/>
<path d="M6767 3432 c-19 -21 -22 -32 -7 -32 10 0 34 39 27 46 -2 2 -11 -4
-20 -14z"/>
<path d="M6834 3436 c-3 -8 -4 -25 -1 -38 l4 -23 8 23 c7 21 9 22 25 7 17 -16
19 -15 30 5 13 24 4 43 -10 20 -8 -12 -10 -12 -16 3 -8 21 -33 22 -40 3z"/>
<path d="M6677 3390 c-20 -29 -23 -55 -4 -43 6 4 18 8 25 9 20 3 28 14 16 22
-6 4 -13 13 -16 21 -3 11 -9 9 -21 -9z"/>
<path d="M6435 3379 c-10 -15 3 -25 16 -12 7 7 7 13 1 17 -6 3 -14 1 -17 -5z"/>
<path d="M6477 3360 c-26 -31 -20 -45 8 -19 13 13 25 27 25 32 0 13 -15 7 -33
-13z"/>
<path d="M6822 3346 c-13 -18 -25 -23 -41 -19 -15 4 -21 1 -21 -11 0 -10 4
-15 9 -11 5 3 13 0 16 -6 5 -7 15 -3 30 11 12 11 29 18 37 15 20 -8 34 25 16
37 -20 12 -25 10 -46 -16z"/>
<path d="M7290 3362 c0 -4 9 -13 20 -20 22 -13 27 -3 8 16 -14 14 -28 16 -28
4z"/>
<path d="M6902 3349 c3 -8 8 -13 11 -11 9 3 7 11 -5 18 -6 4 -8 0 -6 -7z"/>
<path d="M6500 3340 c0 -5 5 -10 10 -10 6 0 10 5 10 10 0 6 -4 10 -10 10 -5 0
-10 -4 -10 -10z"/>
<path d="M6561 3307 c-16 -16 -15 -50 2 -40 6 4 17 8 22 8 16 0 17 15 2 30
-11 10 -17 11 -26 2z"/>
<path d="M7040 3294 c0 -8 5 -12 10 -9 6 4 8 11 5 16 -9 14 -15 11 -15 -7z"/>
<path d="M7182 3298 c-7 -7 -12 -19 -12 -27 0 -11 3 -12 12 -3 7 7 17 8 29 2
25 -14 36 8 13 25 -23 18 -27 18 -42 3z"/>
<path d="M6636 3279 c-20 -29 -21 -46 -2 -30 10 8 16 9 21 1 12 -19 26 -10 20
13 -11 36 -22 40 -39 16z"/>
<path d="M6417 3264 c-10 -13 -13 -24 -7 -24 5 0 10 5 10 11 0 6 9 8 20 4 22
-7 27 7 8 23 -10 7 -18 3 -31 -14z"/>
<path d="M6708 3255 c-10 -13 -18 -30 -18 -37 1 -9 5 -8 14 4 8 11 20 15 34
11 27 -7 28 2 5 26 -18 19 -18 18 -35 -4z"/>
<path d="M6910 3270 c0 -5 5 -10 10 -10 6 0 10 5 10 10 0 6 -4 10 -10 10 -5 0
-10 -4 -10 -10z"/>
<path d="M6837 3256 c-4 -9 3 -16 16 -20 26 -6 31 -2 24 19 -8 19 -33 20 -40
1z"/>
<path d="M7082 3208 c-15 -15 -16 -38 -2 -38 6 0 10 7 10 15 0 8 7 15 16 15 8
0 12 5 9 10 -8 13 -18 13 -33 -2z"/>
<path d="M6452 3187 c-12 -13 -22 -30 -22 -38 1 -11 4 -10 14 4 8 10 20 15 30
11 17 -7 19 0 7 29 -6 17 -8 16 -29 -6z"/>
<path d="M6910 3200 c0 -5 5 -10 10 -10 6 0 10 5 10 10 0 6 -4 10 -10 10 -5 0
-10 -4 -10 -10z"/>
<path d="M6560 3175 c-26 -27 -21 -47 5 -22 8 9 22 14 30 11 19 -8 19 3 1 21
-11 12 -17 10 -36 -10z"/>
<path d="M6781 3179 c-16 -26 -12 -30 23 -21 27 7 27 8 9 24 -18 16 -19 16
-32 -3z"/>
<path d="M7110 3170 c0 -5 6 -10 14 -10 8 0 18 5 21 10 3 6 -3 10 -14 10 -12
0 -21 -4 -21 -10z"/>
<path d="M6906 3163 c-11 -11 -6 -23 9 -23 8 0 15 4 15 9 0 13 -16 22 -24 14z"/>
<path d="M6692 3148 c-7 -7 -12 -21 -12 -32 0 -16 3 -17 12 -8 7 7 20 12 30
12 16 0 16 3 6 20 -15 23 -20 24 -36 8z"/>
<path d="M7266 3131 c-6 -10 31 -47 40 -39 6 7 -17 48 -28 48 -4 0 -9 -4 -12
-9z"/>
<path d="M7106 3114 c-5 -13 16 -35 51 -53 28 -14 37 0 22 32 -12 28 -65 43
-73 21z"/>
<path d="M6477 3093 c-11 -11 -8 -20 9 -27 23 -9 37 3 23 20 -13 15 -22 18
-32 7z"/>
<path d="M6552 3076 c-12 -16 -19 -32 -16 -35 4 -3 9 0 11 6 3 9 10 10 22 3
18 -9 31 -4 31 12 0 5 -4 7 -9 3 -5 -3 -11 5 -13 17 -3 22 -4 22 -26 -6z"/>
<path d="M6797 3082 c-20 -22 -22 -37 -4 -25 6 4 20 6 30 5 20 -4 22 11 4 27
-11 8 -18 7 -30 -7z"/>
<path d="M6672 3068 c-19 -19 -14 -28 13 -28 27 0 32 12 12 29 -10 8 -17 7
-25 -1z"/>
<path d="M6927 3073 c-12 -20 38 -130 109 -238 28 -43 26 -190 -5 -264 -21
-53 -23 -73 -4 -49 29 37 48 117 48 203 0 86 -2 93 -38 155 -21 36 -45 76 -53
90 -8 14 -23 45 -32 69 -10 25 -21 40 -25 34z"/>
<path d="M6870 3053 c-50 -34 -164 -139 -181 -167 -16 -27 -17 -27 -24 -7 -8
26 -23 27 -41 4 -16 -21 -18 -43 -4 -43 6 0 10 9 10 20 0 11 4 20 8 20 13 0
35 -47 28 -58 -16 -27 -15 -155 3 -234 10 -46 22 -101 26 -123 6 -32 9 -36 15
-20 4 11 -2 57 -13 105 -22 95 -24 208 -5 282 12 49 55 98 177 201 45 38 46
51 1 20z"/>
<path d="M7372 3029 c3 -8 8 -13 11 -11 9 3 7 11 -5 18 -6 4 -8 0 -6 -7z"/>
<path d="M6387 3012 c-10 -10 -17 -25 -17 -33 0 -12 2 -12 9 0 5 8 18 12 30 8
28 -7 35 7 12 27 -16 15 -19 15 -34 -2z"/>
<path d="M6500 3000 c-6 -12 -8 -25 -4 -28 4 -4 9 -1 11 6 3 6 11 12 20 12 8
0 13 5 11 12 -7 21 -26 20 -38 -2z"/>
<path d="M6613 2995 c-5 -15 21 -44 40 -45 10 0 9 5 -5 35 -13 28 -26 32 -35
10z"/>
<path d="M7235 2950 c3 -5 10 -10 16 -10 5 0 9 5 9 10 0 6 -7 10 -16 10 -8 0
-12 -4 -9 -10z"/>
<path d="M6495 2913 c-18 -42 -19 -53 -5 -53 6 0 10 11 10 23 0 33 10 40 32
20 23 -21 33 -11 16 16 -21 34 -37 33 -53 -6z"/>
<path d="M6890 2920 c0 -5 5 -10 10 -10 6 0 10 5 10 10 0 6 -4 10 -10 10 -5 0
-10 -4 -10 -10z"/>
<path d="M7125 2909 c-10 -15 3 -25 16 -12 7 7 7 13 1 17 -6 3 -14 1 -17 -5z"/>
<path d="M6381 2882 c-8 -15 -5 -18 21 -17 17 0 33 6 35 13 3 7 -1 10 -11 6
-9 -3 -16 -1 -16 5 0 17 -18 13 -29 -7z"/>
<path d="M6800 2809 c0 -51 2 -90 5 -87 9 9 12 169 4 174 -5 3 -9 -36 -9 -87z"/>
<path d="M7330 2871 c0 -10 30 -24 37 -17 3 3 2 9 -2 15 -8 13 -35 15 -35 2z"/>
<path d="M6870 2807 c-7 -26 -10 -50 -7 -53 7 -8 29 74 24 89 -2 6 -9 -10 -17
-36z"/>
<path d="M6957 2713 c-21 -60 -37 -115 -37 -123 0 -29 18 7 50 105 18 55 35
106 38 113 2 6 0 12 -5 12 -5 0 -26 -48 -46 -107z"/>
<path d="M6734 2742 c2 -34 6 -65 10 -69 15 -15 15 8 1 68 l-14 64 3 -63z"/>
<path d="M6495 2764 c-34 -22 -39 -24 -47 -10 -13 23 -23 20 -36 -9 -14 -31
-15 -45 -3 -45 5 0 11 12 13 28 l3 27 15 -29 c18 -36 46 -49 36 -18 -9 26 24
48 42 30 9 -9 12 -8 12 5 0 23 17 21 32 -3 14 -23 28 -26 28 -7 -1 15 -35 57
-48 57 -5 0 -26 -12 -47 -26z"/>
<path d="M7172 2718 c-7 -7 -12 -19 -12 -27 0 -11 5 -9 20 7 11 12 20 24 20
27 0 9 -16 5 -28 -7z"/>
<path d="M7035 2699 c-4 -6 -5 -12 -2 -15 2 -3 7 2 10 11 7 17 1 20 -8 4z"/>
<path d="M7290 2695 c-18 -22 -2 -37 19 -17 17 17 18 32 2 32 -5 0 -14 -7 -21
-15z"/>
<path d="M6986 2601 c-9 -16 -16 -36 -16 -43 1 -7 10 5 20 26 11 22 18 41 16
44 -3 2 -12 -10 -20 -27z"/>
<path d="M6570 2603 c0 -8 4 -12 9 -8 5 3 12 1 16 -5 7 -12 25 -14 25 -2 0 4
-11 12 -25 19 -21 9 -25 9 -25 -4z"/>
<path d="M6514 2594 c-17 -14 -17 -15 -1 -10 10 3 23 6 28 6 5 0 9 5 9 10 0
14 -13 12 -36 -6z"/>
<path d="M6560 2571 c-55 -13 -82 -46 -85 -105 -2 -37 1 -45 18 -50 13 -3 18
-10 13 -22 -5 -12 -2 -15 10 -10 9 4 22 2 28 -4 15 -12 68 -16 84 -6 18 11 14
26 -5 19 -16 -5 -17 -4 -2 8 35 30 47 60 38 91 -4 17 -6 35 -3 39 3 5 0 9 -5
9 -6 0 -11 10 -12 23 0 12 -3 17 -5 10 -4 -8 -13 -9 -27 -4 -12 4 -33 5 -47 2z
m45 -33 c33 -15 40 -44 21 -90 -18 -42 -39 -50 -78 -31 -47 23 -61 70 -32 111
17 24 49 28 89 10z"/>
<path d="M6547 2512 c-32 -35 -14 -72 34 -72 35 0 49 43 23 71 -21 24 -36 24
-57 1z"/>
<path d="M6765 2265 c7 -33 12 -41 21 -33 3 4 -2 19 -11 35 l-16 28 6 -30z"/>
<path d="M7302 4044 c-13 -26 -21 -48 -18 -51 4 -5 56 78 56 90 0 21 -19 1
-38 -39z"/>
<path d="M6065 5713 c-11 -2 -27 -6 -35 -9 -25 -9 9 -23 44 -18 74 9 112 13
134 14 12 0 22 5 22 10 0 10 -74 5 -92 -6 -3 -2 -9 0 -13 6 -6 10 -24 11 -60
3z"/>
<path d="M2220 5677 c0 -16 32 -47 48 -47 19 0 14 14 -11 38 -27 25 -37 28
-37 9z"/>
<path d="M6910 5668 l-25 -11 23 -5 c30 -5 55 5 47 18 -8 12 -13 12 -45 -2z"/>
<path d="M8015 5631 c-4 -7 -5 -14 -3 -17 10 -10 298 -12 337 -2 49 12 56 29
8 18 -40 -9 -212 -6 -283 5 -36 5 -53 4 -59 -4z"/>
<path d="M7840 5620 c0 -5 14 -10 31 -10 17 0 28 4 24 10 -3 6 -17 10 -31 10
-13 0 -24 -4 -24 -10z"/>
<path d="M2227 5553 c-13 -13 -7 -32 14 -44 15 -8 24 -8 32 0 8 8 8 11 0 11
-7 0 -15 9 -18 20 -6 20 -16 25 -28 13z"/>
<path d="M7335 5500 c-3 -5 3 -10 14 -10 12 0 21 5 21 10 0 6 -6 10 -14 10 -8
0 -18 -4 -21 -10z"/>
<path d="M3393 5487 c-13 -16 -33 -97 -24 -97 11 0 50 99 41 105 -4 3 -12 -1
-17 -8z"/>
<path d="M7070 5481 c0 -10 69 -23 82 -15 4 3 6 10 3 15 -8 11 -85 12 -85 0z"/>
<path d="M7240 5480 c0 -5 4 -10 9 -10 6 0 13 5 16 10 3 6 -1 10 -9 10 -9 0
-16 -4 -16 -10z"/>
<path d="M6858 5473 c-21 -2 -38 -9 -38 -15 0 -7 18 -9 53 -4 28 3 60 6 70 6
9 0 17 5 17 10 0 10 -28 11 -102 3z"/>
<path d="M2284 5456 c-6 -16 22 -76 36 -76 19 0 19 20 -1 54 -23 40 -27 42
-35 22z"/>
<path d="M2360 5427 c0 -18 27 -53 34 -46 9 9 -11 59 -24 59 -5 0 -10 -6 -10
-13z"/>
<path d="M6050 5350 c-24 -6 -24 -7 9 -13 51 -11 171 -8 171 3 0 6 -3 11 -7
11 -27 5 -152 5 -173 -1z"/>
<path d="M3378 5344 c-5 -4 -8 -16 -8 -28 0 -14 3 -17 11 -9 6 6 9 19 7 28 -1
9 -6 13 -10 9z"/>
<path d="M2307 5334 c-8 -9 11 -44 23 -44 6 0 10 6 10 14 0 16 -24 38 -33 30z"/>
<path d="M2370 5330 c0 -5 7 -10 15 -10 8 0 15 5 15 10 0 6 -7 10 -15 10 -8 0
-15 -4 -15 -10z"/>
<path d="M6763 5334 c-29 -13 -9 -21 52 -22 36 -1 65 3 65 8 0 6 -15 10 -32
10 -18 0 -42 2 -53 5 -11 2 -26 2 -32 -1z"/>
<path d="M6913 5333 c-49 -9 -20 -20 45 -17 37 2 71 4 75 4 5 0 5 5 2 10 -6
10 -78 12 -122 3z"/>
<path d="M8356 5312 c-39 -2 -64 -7 -61 -12 11 -17 165 -7 165 11 0 4 -9 7
-19 6 -11 -1 -49 -3 -85 -5z"/>
<path d="M7858 5302 c-10 -2 -18 -8 -18 -13 0 -6 53 -9 135 -7 107 2 135 6
135 17 0 11 -14 12 -72 7 -78 -7 -76 -7 -128 -3 -19 2 -43 1 -52 -1z"/>
<path d="M2400 5275 c0 -29 24 -65 43 -65 18 0 19 2 5 18 -9 9 -19 27 -22 40
-8 25 -26 30 -26 7z"/>
<path d="M3247 5261 c-18 -31 -23 -71 -9 -71 5 0 14 17 21 38 7 20 15 43 17
50 11 24 -12 11 -29 -17z"/>
<path d="M3321 5257 c-15 -38 -15 -95 0 -80 15 15 28 79 18 94 -6 10 -11 6
-18 -14z"/>
<path d="M2560 5197 c0 -19 27 -53 36 -45 9 10 -12 58 -26 58 -5 0 -10 -6 -10
-13z"/>
<path d="M2480 5161 c0 -10 11 -26 25 -35 28 -18 31 -12 13 27 -15 31 -38 36
-38 8z"/>
<path d="M3107 5143 c-19 -36 -32 -103 -21 -103 10 0 48 120 40 127 -2 3 -11
-8 -19 -24z"/>
<path d="M3196 5091 c-20 -63 -21 -81 -2 -61 18 20 47 96 39 104 -14 13 -21 4
-37 -43z"/>
<path d="M2380 5108 c0 -17 47 -75 54 -67 11 10 -24 79 -39 79 -8 0 -15 -6
-15 -12z"/>
<path d="M3017 5083 c-8 -10 -18 -31 -22 -48 -6 -26 -4 -25 19 14 28 47 30 63
3 34z"/>
<path d="M2461 5075 c0 -20 21 -55 33 -55 13 0 5 29 -14 51 -18 23 -19 23 -19
4z"/>
<path d="M2536 5052 c-3 -6 5 -23 19 -39 18 -21 24 -24 25 -12 0 24 -35 65
-44 51z"/>
<path d="M8251 5031 c-24 -15 6 -22 69 -15 33 4 60 11 60 15 0 12 -111 11
-129 0z"/>
<path d="M3022 5003 c-6 -10 -13 -36 -17 -57 -11 -55 9 -38 24 20 13 50 9 68
-7 37z"/>
<path d="M3105 4979 c-9 -17 -15 -40 -13 -52 2 -17 8 -9 25 31 23 56 14 72
-12 21z"/>
<path d="M6866 5002 c-6 -10 25 -22 59 -22 25 0 8 17 -26 25 -15 4 -30 2 -33
-3z"/>
<path d="M2455 4990 c-12 -19 36 -103 50 -88 2 2 -3 25 -12 51 -15 46 -26 57
-38 37z"/>
<path d="M7856 4983 c-1 -2 -59 -3 -129 -4 -119 -1 -159 -8 -121 -23 9 -4 44
-4 78 -1 33 3 123 7 199 9 83 2 143 8 150 15 8 8 -14 10 -82 9 -51 -2 -94 -4
-95 -5z"/>
<path d="M3197 4973 c-4 -3 -7 -16 -7 -27 1 -21 1 -21 15 -2 8 11 15 23 15 28
0 10 -14 11 -23 1z"/>
<path d="M2614 4918 c4 -24 14 -48 23 -55 12 -10 14 -23 9 -63 -7 -50 4 -90
25 -90 6 0 8 4 5 9 -3 4 -6 35 -7 67 -1 32 -6 65 -12 72 -5 6 -6 12 -2 12 4 0
3 6 -3 13 -5 6 -13 27 -17 45 -10 49 -29 40 -21 -10z"/>
<path d="M5964 4926 c-17 -13 -11 -15 55 -18 65 -3 104 4 91 15 -3 2 -32 7
-66 10 -44 5 -66 3 -80 -7z"/>
<path d="M6215 4931 c-7 -12 31 -25 45 -16 6 4 8 11 5 16 -8 12 -42 12 -50 0z"/>
<path d="M3101 4881 c-13 -24 -14 -51 -2 -51 13 0 32 58 21 65 -5 3 -14 -3
-19 -14z"/>
<path d="M2901 4839 c-14 -40 -14 -89 -1 -89 5 0 12 12 15 28 3 15 10 42 14
60 12 43 -13 44 -28 1z"/>
<path d="M2546 4831 c-7 -10 25 -71 37 -71 10 0 9 11 -4 49 -11 31 -23 39 -33
22z"/>
<path d="M3007 4783 c-4 -3 -7 -13 -7 -21 0 -12 3 -12 15 -2 8 7 15 16 15 21
0 11 -14 12 -23 2z"/>
<path d="M8340 4750 c-11 -7 1 -10 42 -10 31 0 60 5 63 10 8 13 -85 13 -105 0z"/>
<path d="M7600 4722 c-88 -2 -120 -9 -120 -22 0 -6 21 -8 53 -5 59 7 168 12
275 14 41 1 72 5 72 11 0 10 -52 10 -280 2z"/>
<path d="M2996 4642 c-3 -6 -2 -22 3 -35 18 -46 23 -140 11 -172 -19 -49 -39
-129 -33 -138 3 -4 6 -31 8 -58 1 -34 9 -57 24 -73 11 -12 21 -31 21 -42 0
-10 11 -59 25 -109 14 -49 34 -135 45 -190 12 -55 27 -125 35 -155 7 -30 16
-76 20 -102 3 -26 28 -91 54 -145 47 -96 56 -125 82 -248 16 -75 15 -266 -2
-296 -6 -12 -18 -53 -26 -91 -8 -38 -23 -89 -33 -114 -11 -25 -20 -54 -20 -64
0 -9 -7 -23 -15 -30 -8 -7 -15 -24 -15 -38 l0 -26 17 24 c9 14 20 27 25 30 4
3 9 15 11 27 1 12 9 28 15 36 7 8 15 35 17 59 6 69 15 99 43 156 22 43 24 56
15 71 -9 14 -9 28 -1 55 8 24 14 32 19 24 9 -15 24 19 48 112 10 39 21 64 29
63 6 -2 12 6 12 16 0 11 3 28 7 38 6 15 5 16 -9 5 -14 -12 -16 -10 -11 10 8
34 43 68 69 68 17 0 25 -9 34 -36 18 -53 6 -125 -35 -210 -19 -41 -35 -81 -35
-88 0 -7 -13 -42 -29 -77 -16 -35 -42 -104 -58 -154 -33 -99 -97 -256 -143
-351 -33 -66 -35 -74 -20 -74 6 0 21 22 33 48 13 27 28 47 34 45 7 -3 18 5 25
16 24 39 78 15 78 -36 0 -26 -93 -153 -112 -153 -5 0 -25 -15 -44 -33 -30 -28
-34 -36 -26 -57 l10 -25 10 27 c6 14 20 29 31 33 12 3 21 10 21 15 0 5 31 45
69 88 68 76 69 80 61 116 -16 70 -63 98 -93 54 -25 -38 -33 -9 -9 32 12 21 22
47 22 56 0 9 9 31 19 48 11 17 29 63 41 101 25 83 43 128 81 213 16 35 29 65
29 68 0 3 12 31 26 62 36 79 67 209 59 249 -4 24 -15 38 -37 49 -30 15 -34 15
-66 -2 -30 -16 -53 -45 -116 -148 -23 -37 -35 -24 -47 50 -16 99 -17 105 -27
117 -6 7 -16 31 -23 55 -6 23 -16 42 -20 42 -10 0 -56 127 -63 175 -3 22 -10
58 -15 80 -41 177 -47 215 -37 219 6 2 3 5 -7 5 -10 1 -16 5 -12 11 3 5 -1 25
-9 45 -20 47 -6 91 23 75 11 -5 27 -7 35 -4 12 5 22 -8 41 -47 14 -30 25 -65
25 -78 0 -24 0 -24 -15 -5 -14 18 -14 17 -15 -13 0 -38 15 -51 29 -26 9 16 10
14 11 -9 0 -18 -6 -29 -15 -29 -8 -1 -21 -2 -27 -3 -7 -1 -15 14 -18 34 -6 44
-24 45 -28 2 -4 -43 10 -59 57 -64 63 -6 71 26 36 149 -26 89 -50 116 -108
117 -45 1 -48 3 -58 36 -11 38 -31 82 -39 90 -3 3 -10 23 -16 45 -9 40 6 136
27 160 4 6 7 54 6 108 -2 74 -6 100 -18 113 -10 10 -19 12 -23 6z m394 -1463
c0 -18 -2 -20 -15 -9 -13 11 -13 15 -3 21 18 12 18 12 18 -12z m-30 -19 c0 -5
-5 -10 -11 -10 -5 0 -7 5 -4 10 3 6 8 10 11 10 2 0 4 -4 4 -10z m17 -32 c-3
-8 -6 -5 -6 6 -1 11 2 17 5 13 3 -3 4 -12 1 -19z m-7 -30 c0 -7 -7 -21 -14
-31 -13 -17 -14 -17 -18 0 -7 25 1 43 18 43 8 0 14 -6 14 -12z"/>
<path d="M2609 4592 c-20 -23 -42 -123 -33 -156 10 -40 17 -23 20 43 2 63 9
85 25 76 5 -4 9 0 9 9 0 8 3 21 6 30 8 21 -8 20 -27 -2z"/>
<path d="M2802 4558 c6 -18 28 -21 28 -4 0 9 -7 16 -16 16 -9 0 -14 -5 -12
-12z"/>
<path d="M6363 4564 c-26 -11 -12 -22 25 -20 20 1 37 6 37 11 0 11 -43 17 -62
9z"/>
<path d="M5893 4554 c-31 -13 -8 -24 47 -22 33 1 60 5 60 10 0 4 -8 8 -19 8
-10 0 -31 2 -47 5 -16 2 -35 2 -41 -1z"/>
<path d="M6124 4549 c-2 -5 10 -11 28 -14 48 -9 181 -2 185 10 3 12 -206 15
-213 4z"/>
<path d="M2907 4518 c-8 -22 7 -91 21 -96 10 -3 12 9 10 49 -3 50 -20 75 -31
47z"/>
<path d="M2650 4500 c0 -11 5 -20 10 -20 6 0 10 9 10 20 0 11 -4 20 -10 20 -5
0 -10 -9 -10 -20z"/>
<path d="M2500 4427 c0 -25 34 -107 44 -107 10 0 12 7 8 23 -9 34 -52 104 -52
84z"/>
<path d="M2800 4396 c0 -19 4 -38 10 -41 12 -7 24 39 16 60 -10 27 -26 16 -26
-19z"/>
<path d="M8177 4413 c-14 -14 -5 -18 43 -21 40 -2 50 0 50 12 0 12 -11 16 -43
16 -24 0 -47 -3 -50 -7z"/>
<path d="M2640 4360 c-14 -26 -4 -60 17 -60 10 0 14 6 10 20 -3 13 0 20 10 20
10 0 13 6 9 16 -3 9 -6 18 -6 20 0 13 -31 1 -40 -16z"/>
<path d="M7525 4372 c-22 -2 -44 -7 -49 -12 -12 -12 196 -12 214 0 13 8 12 10
-5 11 -62 3 -125 4 -160 1z"/>
<path d="M2544 4264 c-4 -10 -13 -35 -21 -54 -7 -19 -16 -52 -19 -73 -6 -54
-8 -56 -52 -50 -36 5 -40 2 -83 -48 -49 -58 -91 -161 -82 -201 8 -38 26 -68
40 -68 7 0 22 -9 33 -20 11 -11 26 -17 35 -14 21 8 19 21 -5 27 -17 4 -20 14
-20 65 0 49 -3 60 -18 64 -15 4 -17 13 -14 42 2 20 12 42 21 49 9 6 22 25 29
40 13 30 45 47 74 39 22 -5 25 -23 14 -92 -3 -14 -5 -39 -5 -57 -1 -25 -6 -32
-23 -35 -18 -2 -24 -11 -26 -36 -3 -31 -5 -32 -17 -15 -7 10 -15 16 -18 13 -8
-8 5 -70 14 -70 8 0 44 61 41 68 -6 9 0 14 7 6 13 -12 -30 -174 -56 -211 -28
-39 -78 -179 -108 -297 -14 -54 -25 -101 -25 -105 -1 -3 -9 16 -20 42 -23 58
-77 132 -108 146 -29 14 -82 -7 -103 -40 -25 -39 -51 -119 -45 -135 3 -9 11
-57 16 -107 6 -50 15 -96 20 -102 5 -6 13 -29 19 -50 24 -102 72 -279 77 -287
3 -5 11 -5 18 1 9 8 18 -9 36 -72 13 -45 29 -94 36 -108 7 -15 18 -44 23 -65
49 -187 56 -208 70 -200 9 6 -32 180 -46 199 -6 6 -18 44 -28 82 -10 39 -21
75 -25 80 -4 6 -11 28 -15 50 -3 22 -13 47 -20 55 -22 25 -85 187 -85 219 0
17 -11 56 -25 87 -33 74 -51 221 -33 273 19 56 45 88 75 94 38 7 73 -26 73
-68 0 -18 11 -48 24 -67 13 -19 26 -50 30 -69 20 -97 29 -168 22 -184 -6 -18
-7 -18 -19 1 -8 10 -22 47 -32 82 -19 63 -35 89 -35 55 0 -29 41 -143 51 -143
13 0 11 -28 -2 -32 -6 -2 -8 -14 -4 -30 5 -17 12 -25 21 -21 10 4 14 -3 14
-20 0 -14 -5 -27 -12 -29 -9 -3 -8 -16 2 -52 10 -38 11 -49 0 -56 -13 -8 -6
-45 15 -70 36 -44 65 -127 55 -155 -9 -24 5 -55 26 -55 16 0 14 18 -17 112
-11 32 -19 68 -19 82 0 13 -6 35 -13 49 -27 52 -8 547 21 566 5 3 15 38 22 76
7 39 23 95 35 125 13 30 27 66 30 79 4 13 20 44 36 69 16 25 29 56 29 69 0 12
11 66 25 120 14 54 25 118 25 143 0 25 7 68 16 95 29 94 54 274 28 199z m-223
-411 c0 -5 2 -18 5 -30 2 -13 0 -23 -5 -23 -5 0 -11 14 -13 30 -3 17 -1 30 4
30 4 0 8 -3 9 -7z m-92 -604 c9 -27 9 -30 -4 -19 -8 7 -15 21 -15 31 0 28 7
23 19 -12z"/>
<path d="M6318 4263 c-81 -2 -138 -8 -138 -13 0 -9 31 -14 69 -12 8 0 59 3
114 5 54 3 104 10 110 16 8 8 7 10 -3 9 -8 -1 -77 -4 -152 -5z"/>
<path d="M2880 4242 c0 -11 9 -27 20 -37 22 -20 25 -11 14 33 -8 27 -34 30
-34 4z"/>
<path d="M5930 4243 c-54 -8 -70 -14 -70 -24 0 -8 12 -9 38 -4 33 6 56 9 117
14 17 1 18 3 5 11 -15 10 -43 11 -90 3z"/>
<path d="M2750 4196 c0 -24 16 -43 26 -33 8 7 -7 57 -17 57 -5 0 -9 -11 -9
-24z"/>
<path d="M5705 4210 c-11 -4 -23 -6 -27 -3 -13 7 -9 -14 5 -24 14 -12 59 -2
64 14 5 15 -18 22 -42 13z"/>
<path d="M8485 4183 c-80 -6 -80 -24 0 -20 61 3 78 9 56 20 -3 2 -28 2 -56 0z"/>
<path d="M8295 4170 c-6 -10 2 -12 55 -12 53 0 61 2 56 11 -8 12 -104 13 -111
1z"/>
<path d="M7757 4164 c-4 -4 -4 -10 -2 -14 6 -10 55 0 55 11 0 10 -43 12 -53 3z"/>
<path d="M6548 4155 c-7 -7 17 -104 28 -114 8 -7 -5 89 -15 107 -4 7 -10 10
-13 7z"/>
<path d="M2570 4080 c-13 -31 -8 -60 10 -60 5 0 10 13 10 29 0 16 3 36 6 45
11 30 -13 16 -26 -14z"/>
<path d="M6525 4068 c7 -24 17 -56 21 -73 5 -19 9 -24 11 -13 5 21 -26 128
-37 128 -5 0 -3 -19 5 -42z"/>
<path d="M2854 4039 c6 -33 21 -57 30 -48 9 9 -10 73 -23 77 -11 4 -13 -3 -7
-29z"/>
<path d="M2690 4016 c0 -24 16 -43 26 -33 8 7 -7 57 -17 57 -5 0 -9 -11 -9
-24z"/>
<path d="M2942 4011 c2 -14 9 -26 16 -29 17 -5 15 10 -3 34 -15 18 -15 18 -13
-5z"/>
<path d="M5963 4003 c-28 -11 -11 -21 25 -16 57 9 74 22 27 22 -22 0 -46 -3
-52 -6z"/>
<path d="M8085 3940 c-15 -7 -10 -9 23 -9 26 -1 41 3 37 9 -7 12 -32 12 -60 0z"/>
<path d="M7725 3930 c-7 -11 2 -30 13 -30 4 0 14 5 22 10 13 9 13 11 0 20 -19
12 -27 12 -35 0z"/>
<path d="M7513 3913 c-26 -10 -12 -21 28 -21 23 -1 38 3 33 7 -13 12 -47 20
-61 14z"/>
<path d="M2595 3860 c-7 -12 2 -30 16 -30 5 0 9 9 9 20 0 21 -15 27 -25 10z"/>
<path d="M2716 3801 c-8 -12 3 -41 15 -41 5 0 9 11 9 25 0 25 -14 34 -24 16z"/>
<path d="M2966 3802 c-9 -15 1 -69 15 -77 10 -7 10 28 0 65 -5 17 -9 21 -15
12z"/>
<path d="M6020 3772 c-14 -2 -29 -8 -35 -14 -7 -7 1 -9 27 -5 24 4 39 1 42 -6
2 -7 5 -4 5 5 1 21 -7 25 -39 20z"/>
<path d="M6245 3771 c-3 -6 2 -12 12 -12 78 -5 123 -4 123 3 0 4 -22 8 -49 8
-27 0 -56 3 -64 6 -8 3 -18 1 -22 -5z"/>
<path d="M5733 3760 c-13 -5 -23 -12 -23 -14 0 -10 249 -5 255 4 3 6 -4 9 -17
9 -13 -1 -61 1 -108 5 -48 3 -95 2 -107 -4z"/>
<path d="M2747 3743 c-12 -11 -7 -40 8 -53 20 -17 24 -12 18 28 -5 31 -13 39
-26 25z"/>
<path d="M7913 3713 c-70 -4 -91 -14 -57 -27 9 -3 20 -3 25 0 6 3 48 6 95 5
61 0 84 4 81 12 -4 13 -36 15 -144 10z"/>
<path d="M8298 3713 c-43 -11 -10 -18 84 -18 62 0 103 4 105 11 4 11 -154 17
-189 7z"/>
<path d="M2558 3698 c-7 -16 8 -58 21 -58 12 0 6 63 -6 67 -6 2 -13 -2 -15 -9z"/>
<path d="M7410 3700 c-18 -12 -20 -11 55 -14 65 -2 85 1 85 15 0 12 -121 11
-140 -1z"/>
<path d="M3044 3564 c11 -58 28 -68 24 -15 -2 27 -9 46 -17 49 -11 4 -12 -3
-7 -34z"/>
<path d="M2870 3548 c0 -35 15 -67 25 -56 10 9 -5 88 -16 88 -5 0 -9 -15 -9
-32z"/>
<path d="M2487 3530 c-3 -10 1 -27 9 -37 12 -16 13 -14 14 20 0 39 -14 50 -23
17z"/>
<path d="M2608 3544 c-12 -11 -9 -62 3 -69 16 -10 18 -4 10 38 -3 21 -9 35
-13 31z"/>
<path d="M7468 3433 c-55 -6 -46 -24 10 -21 26 2 45 6 43 11 -6 12 -14 14 -53
10z"/>
<path d="M7903 3423 c-13 -3 -23 -9 -23 -15 0 -6 12 -8 31 -4 17 3 58 6 90 6
33 0 59 4 59 9 0 9 -113 12 -157 4z"/>
<path d="M2646 3411 c-4 -7 -5 -15 -2 -18 9 -9 19 4 14 18 -4 11 -6 11 -12 0z"/>
<path d="M5913 3393 c-73 -7 -47 -23 35 -23 70 1 75 2 58 15 -11 8 -27 14 -35
13 -9 -1 -35 -3 -58 -5z"/>
<path d="M2451 3372 c-14 -25 -14 -62 -1 -62 10 0 26 68 17 76 -3 3 -10 -3
-16 -14z"/>
<path d="M5366 3381 c-3 -5 9 -11 27 -14 36 -5 50 0 42 14 -8 12 -62 12 -69 0z"/>
<path d="M5542 3383 c-19 -7 -4 -23 24 -23 27 0 32 15 8 24 -9 3 -16 6 -17 5
-1 0 -8 -3 -15 -6z"/>
<path d="M5760 3380 c0 -5 4 -10 9 -10 6 0 13 5 16 10 3 6 -1 10 -9 10 -9 0
-16 -4 -16 -10z"/>
<path d="M2118 3368 c-4 -9 0 -25 9 -37 8 -12 23 -50 33 -86 10 -35 23 -72 30
-82 11 -17 11 -17 5 2 -4 11 -10 38 -14 60 -4 22 -17 60 -29 85 -11 25 -22 52
-24 59 -4 13 -5 12 -10 -1z"/>
<path d="M3140 3368 c0 -25 12 -58 21 -58 10 0 12 31 3 54 -7 19 -24 21 -24 4z"/>
<path d="M6035 3370 c3 -5 8 -10 11 -10 2 0 4 5 4 10 0 6 -5 10 -11 10 -5 0
-7 -4 -4 -10z"/>
<path d="M2818 3335 c-8 -8 3 -65 13 -65 5 0 9 16 9 35 0 32 -8 43 -22 30z"/>
<path d="M2616 3323 c-3 -3 -6 -17 -6 -30 0 -30 22 -26 26 5 4 21 -8 37 -20
25z"/>
<path d="M8244 3310 c-24 -9 -54 -47 -54 -67 0 -23 18 -14 24 12 8 33 49 53
71 35 12 -10 15 -10 15 3 0 11 -23 30 -33 26 -1 0 -12 -4 -23 -9z"/>
<path d="M3024 3296 c-7 -18 13 -49 26 -41 10 6 1 43 -11 51 -5 3 -12 -2 -15
-10z"/>
<path d="M8240 3266 c0 -9 5 -16 10 -16 6 0 10 4 10 9 0 6 -4 13 -10 16 -5 3
-10 -1 -10 -9z"/>
<path d="M3472 3250 c0 -14 2 -19 5 -12 2 6 2 18 0 25 -3 6 -5 1 -5 -13z"/>
<path d="M3788 3254 c-16 -16 -7 -61 15 -81 23 -20 24 -20 36 -1 6 10 24 24
39 30 15 6 22 12 15 15 -7 3 -25 -5 -39 -16 -35 -27 -42 -20 -15 15 11 15 21
31 21 35 0 18 -15 8 -35 -21 l-20 -30 -5 31 c-3 17 -8 27 -12 23z"/>
<path d="M2928 3224 c-11 -10 -10 -52 1 -59 14 -8 18 6 12 38 -3 16 -9 25 -13
21z"/>
<path d="M3746 3212 c-6 -11 17 -82 28 -82 4 0 6 10 2 23 -3 12 -6 32 -6 45 0
21 -14 30 -24 14z"/>
<path d="M8127 3210 c-16 -5 -35 -17 -43 -27 -20 -26 -17 -39 4 -15 40 46 83
31 62 -22 -10 -28 -5 -36 27 -36 16 0 23 -6 23 -19 0 -22 -9 -30 -41 -36 -25
-5 -49 -23 -49 -37 0 -6 -13 -22 -29 -37 -32 -30 -56 -100 -47 -138 5 -19 1
-25 -19 -33 -39 -15 -94 -60 -110 -89 -11 -23 -11 -31 6 -61 l18 -35 1 33 c0
17 5 32 10 32 6 0 10 -7 10 -15 0 -8 5 -15 10 -15 13 0 13 63 -1 77 -8 8 -5
16 11 31 27 25 56 33 69 18 15 -18 47 -119 47 -146 -1 -21 -7 -26 -41 -31
l-40 -5 35 -5 c31 -3 35 -7 32 -29 -6 -39 -25 -62 -89 -106 -54 -37 -61 -40
-79 -27 -13 10 -37 13 -77 11 -46 -4 -63 -10 -88 -34 -42 -40 -71 -82 -67 -96
3 -7 14 6 27 28 12 21 36 49 54 61 36 25 102 32 132 15 20 -11 20 -11 -2 -54
-22 -43 -32 -104 -21 -123 3 -6 11 -28 18 -50 7 -22 16 -44 20 -50 4 -5 10
-30 14 -54 6 -39 5 -43 -11 -36 -50 21 -90 34 -107 35 -69 1 -164 -63 -170
-115 -2 -16 -1 -23 1 -15 11 32 58 82 91 96 45 18 115 18 152 -1 33 -17 36
-28 15 -65 -8 -14 -14 -32 -14 -40 0 -8 14 12 32 45 32 59 32 61 20 115 -7 30
-19 73 -27 95 -9 26 -11 42 -4 46 5 4 3 9 -6 12 -37 14 2 98 65 142 147 102
176 185 124 360 -35 121 -27 163 43 214 76 56 102 83 102 107 0 12 6 25 13 27
9 4 9 8 0 14 -6 4 -15 21 -18 36 -4 15 -17 34 -28 42 -24 17 -21 16 -60 5z
m77 -81 c-9 -15 -44 -10 -44 6 0 8 4 15 10 15 5 0 7 8 4 18 -4 12 0 11 15 -7
12 -12 18 -27 15 -32z"/>
<path d="M2120 3196 c0 -8 5 -18 10 -21 6 -3 10 3 10 14 0 12 -4 21 -10 21 -5
0 -10 -6 -10 -14z"/>
<path d="M3446 3165 c-18 -43 -19 -45 -8 -45 9 0 34 71 27 78 -2 2 -11 -13
-19 -33z"/>
<path d="M3888 3169 c-51 -26 -49 -42 2 -18 21 10 44 19 50 19 5 0 10 5 10 10
0 15 -21 11 -62 -11z"/>
<path d="M7587 3163 c-3 -10 -27 -46 -52 -80 -25 -35 -42 -63 -37 -63 15 0
112 134 112 154 0 14 -18 4 -23 -11z"/>
<path d="M8129 3163 c-13 -16 -12 -17 4 -4 9 7 17 15 17 17 0 8 -8 3 -21 -13z"/>
<path d="M2208 3152 c-3 -11 0 -19 7 -19 7 0 10 8 7 19 -2 10 -6 18 -7 18 -1
0 -5 -8 -7 -18z"/>
<path d="M2510 3158 c0 -19 18 -43 25 -36 9 9 -4 48 -16 48 -5 0 -9 -6 -9 -12z"/>
<path d="M3121 3146 c-8 -20 -8 -33 -2 -39 13 -13 24 13 19 45 -4 22 -5 22
-17 -6z"/>
<path d="M2396 3134 c-9 -24 -7 -62 4 -69 6 -4 10 12 10 39 0 48 -4 56 -14 30z"/>
<path d="M3700 3136 c0 -7 10 -17 23 -21 21 -6 21 -7 -10 -20 -33 -15 -60 -44
-30 -32 9 3 18 -1 21 -10 5 -12 9 -13 21 -3 19 15 19 9 1 -49 -21 -66 -34
-133 -46 -236 -6 -49 -15 -124 -20 -165 -5 -41 -12 -119 -16 -172 -3 -54 -10
-98 -14 -98 -7 0 -50 -83 -50 -96 0 -2 8 -1 18 3 11 4 14 3 7 -4 -5 -6 -29
-14 -52 -18 l-42 -7 -6 39 c-4 21 -10 49 -15 63 -7 21 -9 18 -10 -20 l-1 -45
-15 30 c-12 26 -14 27 -9 5 2 -14 5 -28 5 -32 0 -5 7 -8 15 -8 8 0 15 -5 15
-11 0 -7 -10 -9 -27 -4 -72 18 -133 1 -157 -46 -7 -14 -19 -23 -29 -21 -9 2
-17 -2 -17 -8 0 -5 6 -10 14 -10 8 0 23 -3 33 -7 15 -6 16 -4 6 8 -10 12 -9
18 7 32 17 14 24 14 62 2 37 -11 39 -13 16 -14 -19 -1 -28 -6 -28 -17 0 -9
-10 -25 -22 -35 -23 -20 -23 -20 17 -4 25 10 53 14 74 10 23 -4 38 -2 51 10
14 13 23 14 38 6 11 -6 23 -7 27 -3 4 4 16 7 28 7 14 0 23 7 25 20 6 31 13 35
111 55 l92 19 52 -23 c83 -37 114 -41 129 -17 7 12 20 21 30 21 26 0 31 18 9
30 -11 5 -24 10 -28 9 -26 -4 -73 2 -73 11 0 5 17 12 38 16 20 4 45 11 55 16
19 10 24 42 5 35 -7 -2 -23 0 -35 4 -14 5 -38 3 -64 -6 -46 -17 -58 -15 -34 5
15 13 21 50 7 50 -48 0 -208 -100 -235 -146 -12 -21 -47 -18 -47 4 0 10 4 22
10 28 12 12 37 165 44 273 4 46 8 87 11 91 2 4 7 42 10 85 3 43 12 105 20 139
8 34 17 84 21 111 7 59 12 66 28 42 18 -24 26 -21 26 9 0 14 4 23 10 19 6 -3
10 3 10 14 0 12 -6 20 -12 19 -7 -2 -12 5 -12 15 2 13 -3 16 -19 11 -15 -5
-19 -3 -14 10 4 9 -2 21 -16 31 -27 19 -37 19 -37 1z m179 -802 c-19 -24 -69
-46 -87 -39 -31 12 27 46 92 54 5 1 3 -6 -5 -15z m111 -30 c0 -5 -63 -34 -75
-34 -3 0 0 9 7 20 11 18 68 30 68 14z m-105 -24 c-3 -5 -13 -10 -21 -10 -8 0
-14 5 -14 10 0 6 9 10 21 10 11 0 17 -4 14 -10z m-166 -41 c-24 -15 -45 -11
-24 5 11 8 24 12 28 9 5 -3 3 -9 -4 -14z m170 0 c17 -6 31 -17 31 -25 0 -17 0
-17 -44 1 -20 9 -34 20 -31 25 8 12 5 12 44 -1z m-335 -48 c6 -8 -43 -35 -51
-28 -5 6 26 37 37 37 5 0 11 -4 14 -9z m14 -33 c-2 -6 -10 -14 -16 -16 -7 -2
-10 2 -6 12 7 18 28 22 22 4z m-88 -22 c0 -11 -19 -15 -25 -6 -3 5 1 10 9 10
9 0 16 -2 16 -4z"/>
<path d="M8107 3121 c-3 -12 -1 -21 3 -21 14 0 19 15 11 29 -6 9 -10 7 -14 -8z"/>
<path d="M3870 3121 c0 -16 19 -23 40 -16 30 10 24 25 -10 25 -16 0 -30 -4
-30 -9z"/>
<path d="M3798 3113 c7 -3 16 -2 19 1 4 3 -2 6 -13 5 -11 0 -14 -3 -6 -6z"/>
<path d="M3417 3084 c-10 -14 -17 -32 -15 -42 2 -12 9 -5 22 21 21 46 18 55
-7 21z"/>
<path d="M2214 3075 c4 -16 12 -34 17 -39 5 -6 5 4 -1 24 -12 42 -25 55 -16
15z"/>
<path d="M2666 3084 c-7 -17 3 -64 13 -64 3 0 6 18 6 40 0 41 -8 52 -19 24z"/>
<path d="M3850 3092 c0 -13 23 -32 39 -32 11 0 10 4 -4 20 -19 21 -35 26 -35
12z"/>
<path d="M5714 3079 c-18 -20 -18 -20 10 -13 28 7 29 6 22 -22 -22 -86 -21
-92 19 -108 37 -16 38 -22 8 -58 -20 -22 -1 -58 31 -58 30 0 37 -8 24 -30 -16
-25 -3 -50 26 -50 32 0 56 -10 56 -22 0 -5 -9 -21 -20 -35 -27 -35 -26 -40 15
-64 42 -25 43 -35 8 -82 -38 -50 -57 -49 -50 3 3 22 2 40 -3 40 -4 0 -18 24
-30 53 -12 28 -37 73 -55 99 -19 25 -43 64 -54 86 -19 38 -19 41 -3 45 14 4
14 6 -5 12 -18 6 -23 17 -29 61 -3 30 -4 68 0 84 6 35 2 37 -24 12 -30 -28
-40 -65 -29 -106 13 -47 5 -59 -36 -52 -19 4 -36 2 -40 -4 -4 -6 8 -10 30 -10
35 0 37 -2 31 -25 -5 -19 0 -32 18 -50 21 -21 23 -28 14 -53 -14 -36 -5 -62
21 -62 22 0 32 -19 24 -49 -7 -28 13 -51 44 -51 21 0 24 -4 20 -22 -2 -13 -8
-31 -12 -40 -4 -11 0 -23 14 -35 25 -21 27 -40 6 -63 -13 -15 -14 -22 -1 -58
l15 -41 -30 -18 c-29 -17 -30 -20 -24 -67 3 -27 11 -58 17 -69 7 -14 6 -32 -2
-63 -25 -87 6 -180 72 -218 59 -35 75 -69 38 -81 -11 -3 -20 -11 -20 -17 0 -5
7 -8 15 -4 11 4 15 -2 15 -21 l0 -27 20 22 c11 12 20 25 20 30 0 21 36 37 87
39 51 2 54 1 51 -20 -2 -16 -11 -23 -33 -25 -16 -2 -34 -8 -39 -13 -6 -5 -18
-9 -27 -9 -10 0 -20 -4 -23 -8 -2 -4 25 -8 62 -9 37 0 75 -1 86 -2 29 -3 57
29 54 61 -2 17 3 32 11 37 9 6 -12 13 -60 21 -41 7 -92 16 -113 21 -22 4 -44
5 -49 2 -18 -11 -97 29 -119 60 -20 27 -23 44 -22 112 0 89 35 205 61 205 8 0
11 5 8 10 -4 6 3 26 14 45 11 19 17 35 12 35 -5 0 -6 11 -3 25 6 32 11 31 38
-2 12 -16 26 -24 31 -20 4 5 0 13 -10 18 -15 9 -12 14 24 49 26 25 39 45 36
54 -4 9 1 20 11 25 13 8 6 10 -30 11 -55 0 -60 11 -23 50 30 32 25 54 -16 76
-34 17 -36 30 -9 64 11 14 20 31 20 38 0 16 -42 32 -68 25 -26 -6 -36 11 -21
35 18 29 4 52 -31 52 -36 0 -37 7 -8 55 23 40 16 55 -29 55 -32 0 -35 12 -17
69 14 41 14 53 4 66 -16 20 -23 19 -46 -6z m-50 -146 c7 -46 -8 -60 -18 -17
-6 22 1 71 9 62 1 -2 5 -22 9 -45z m32 -120 c9 -27 26 -58 37 -70 12 -14 17
-28 12 -42 -5 -17 -2 -21 14 -21 15 0 23 -11 33 -42 6 -24 17 -52 24 -63 23
-39 25 -73 7 -84 -17 -10 -17 -10 -1 -11 38 0 34 -109 -7 -190 -12 -25 -28
-64 -35 -87 -13 -43 -36 -50 -26 -8 3 13 2 27 -4 30 -18 11 -11 38 17 67 24
25 26 31 15 64 -9 30 -8 41 3 58 21 29 19 57 -6 63 -16 4 -19 11 -14 27 16 50
17 76 4 78 -8 0 -18 2 -24 3 -5 2 -16 3 -23 4 -9 1 -12 14 -10 44 3 37 1 42
-20 45 -30 5 -37 25 -21 64 9 21 9 33 2 35 -5 2 -18 10 -29 17 -16 12 -16 18
-6 40 18 39 38 32 58 -21z m218 -332 c3 -5 15 -7 26 -4 33 9 26 -39 -8 -59
-32 -19 -59 -10 -49 17 4 9 3 14 -3 10 -6 -3 -10 3 -10 14 0 25 33 41 44 22z"/>
<path d="M7780 3090 c-8 -5 -12 -12 -9 -15 7 -6 179 12 187 20 9 9 -163 5
-178 -5z"/>
<path d="M3247 3084 c-10 -11 -8 -74 2 -74 11 0 21 62 12 73 -4 4 -10 4 -14 1z"/>
<path d="M3820 3071 c0 -19 26 -48 36 -39 7 7 -17 58 -28 58 -4 0 -8 -8 -8
-19z"/>
<path d="M2918 3054 c-5 -4 -8 -21 -8 -38 1 -26 2 -28 11 -13 11 19 8 63 -3
51z"/>
<path d="M2950 3008 c0 -49 5 -47 13 5 3 20 2 37 -4 37 -5 0 -9 -19 -9 -42z"/>
<path d="M2764 3013 c-10 -16 -26 -45 -36 -65 -9 -20 -39 -74 -67 -120 -82
-134 -95 -180 -93 -334 1 -88 6 -141 16 -165 19 -46 70 -93 91 -85 9 3 14 10
10 15 -3 6 -12 8 -20 5 -9 -4 -19 4 -26 20 -7 14 -15 26 -19 26 -11 0 -33 57
-26 68 3 6 2 48 -3 95 -9 87 1 185 21 222 6 10 28 53 50 95 21 41 52 96 67
121 16 26 31 55 33 65 7 36 25 23 53 -38 15 -35 38 -83 50 -108 12 -25 30 -72
39 -105 10 -33 23 -73 31 -90 l14 -30 -1 30 c0 17 -3 44 -7 60 -4 18 -1 49 9
80 16 51 16 95 -1 95 -5 0 -9 -19 -9 -42 0 -50 -13 -78 -26 -57 -4 7 -3 14 4
17 7 2 12 18 12 35 -1 30 -1 31 -15 13 -15 -19 -15 -19 -15 1 0 12 -8 23 -20
26 -20 5 -28 27 -10 27 15 0 12 29 -5 46 -13 14 -15 14 -15 0 0 -9 5 -16 10
-16 6 0 10 -4 10 -10 0 -17 -20 -11 -27 8 -12 34 -53 122 -57 122 -2 0 -12
-12 -22 -27z"/>
<path d="M1804 2974 c3 -9 6 -25 6 -35 0 -11 4 -18 8 -15 12 7 2 66 -10 66 -6
0 -7 -7 -4 -16z"/>
<path d="M2529 2973 c-5 -47 -2 -77 9 -80 15 -6 17 73 2 82 -5 3 -10 3 -11 -2z"/>
<path d="M3000 2955 c0 -14 5 -25 10 -25 6 0 10 11 10 25 0 14 -4 25 -10 25
-5 0 -10 -11 -10 -25z"/>
<path d="M3347 2962 c-19 -21 -22 -42 -7 -42 10 0 34 49 27 56 -2 2 -11 -4
-20 -14z"/>
<path d="M1776 2962 c-4 -6 -1 -22 5 -34 7 -13 12 -25 13 -28 0 -3 9 -9 20
-15 24 -12 29 -25 16 -45 -12 -20 -44 -2 -48 27 -4 27 -42 64 -42 41 0 -9 7
-21 15 -28 15 -13 20 -42 8 -53 -3 -4 -11 3 -17 15 -6 13 -20 24 -30 26 -17 4
-17 2 3 -26 15 -22 20 -39 15 -56 -8 -35 2 -33 21 4 18 34 35 31 35 -6 0 -13
5 -23 12 -21 8 1 15 -18 19 -53 7 -68 25 -125 45 -140 7 -7 14 -22 14 -33 0
-17 -4 -15 -33 14 -19 19 -36 41 -39 49 -3 8 -8 12 -12 9 -15 -14 15 -59 53
-81 45 -25 48 -32 27 -54 -25 -24 -40 -16 -69 37 -16 28 -31 49 -34 46 -10
-11 7 -55 33 -87 21 -24 33 -30 58 -28 l31 3 6 -63 c3 -35 11 -68 16 -73 17
-17 25 6 13 36 -6 15 -11 46 -12 68 0 23 -3 46 -6 52 -9 16 -12 65 -4 65 4 0
6 19 4 41 -4 36 0 45 24 66 23 19 25 23 10 21 -11 -2 -29 -21 -41 -46 -32 -63
-46 -40 -69 114 l-12 86 31 34 c18 19 40 34 49 34 9 0 16 5 16 11 0 7 -11 8
-30 4 -19 -4 -36 -2 -45 5 -8 6 -19 9 -25 5 -5 -3 -13 2 -16 12 -15 47 -21 57
-28 45z"/>
<path d="M1847 2964 c-4 -4 -7 -17 -7 -28 1 -19 1 -20 11 -3 11 19 8 43 -4 31z"/>
<path d="M2910 2963 c0 -5 5 -15 10 -23 8 -12 10 -11 10 8 0 12 -4 22 -10 22
-5 0 -10 -3 -10 -7z"/>
<path d="M3053 2935 c0 -22 2 -30 4 -17 2 12 2 30 0 40 -3 9 -5 -1 -4 -23z"/>
<path d="M2352 2940 c7 -11 17 -20 22 -20 5 0 1 9 -9 20 -10 11 -20 20 -22 20
-2 0 2 -9 9 -20z"/>
<path d="M8103 2943 c-10 -8 -13 -12 -7 -9 16 8 74 -4 74 -15 0 -5 -7 -9 -15
-9 -18 0 -31 -48 -17 -62 13 -13 32 -2 32 20 1 15 2 15 15 -2 15 -20 15 -20
14 0 -2 43 -16 66 -46 79 -27 11 -34 11 -50 -2z"/>
<path d="M1880 2930 c-13 -11 -19 -20 -13 -20 5 0 18 9 28 20 10 11 16 20 13
20 -3 0 -15 -9 -28 -20z"/>
<path d="M3130 2925 c-13 -35 -13 -48 2 -43 15 5 29 56 17 64 -5 3 -14 -7 -19
-21z"/>
<path d="M2647 2933 c-3 -5 -2 -15 2 -22 5 -7 11 -9 14 -4 3 5 2 15 -2 22 -5
7 -11 9 -14 4z"/>
<path d="M8200 2923 c0 -10 4 -24 9 -31 6 -11 9 -10 13 5 3 10 3 24 1 31 -7
18 -23 15 -23 -5z"/>
<path d="M2886 2885 c-3 -8 -1 -15 4 -15 6 0 10 7 10 15 0 8 -2 15 -4 15 -2 0
-6 -7 -10 -15z"/>
<path d="M5895 2879 c-11 -4 -38 -8 -60 -9 -25 -1 -34 -4 -23 -8 22 -9 128 -2
128 8 0 13 -24 18 -45 9z"/>
<path d="M3214 2865 c-8 -20 3 -48 16 -40 13 8 13 55 0 55 -6 0 -13 -7 -16
-15z"/>
<path d="M1856 2835 c-7 -19 0 -35 16 -35 5 0 7 7 4 16 -5 13 -2 15 14 11 14
-3 20 -1 17 6 -6 19 -44 20 -51 2z"/>
<path d="M3348 2844 c-5 -4 -8 -19 -8 -33 1 -23 2 -24 11 -8 11 19 9 53 -3 41z"/>
<path d="M1448 2815 c-10 -10 4 -54 23 -71 25 -23 25 -54 -1 -54 -20 0 -28
-24 -10 -35 14 -9 50 18 50 38 0 10 13 26 30 35 35 20 38 32 9 32 -18 0 -19 2
-9 15 22 26 1 30 -25 5 l-25 -24 -12 32 c-12 31 -19 38 -30 27z"/>
<path d="M2771 2693 c-12 -140 -13 -169 -6 -162 3 4 35 260 35 285 0 2 -4 4
-8 4 -5 0 -14 -57 -21 -127z"/>
<path d="M2408 2804 c-11 -11 -10 -43 4 -81 13 -37 35 -46 23 -10 -4 12 -10
39 -13 60 -4 22 -10 35 -14 31z"/>
<path d="M2542 2789 c1 -12 8 -24 15 -26 7 -3 9 3 6 17 -8 29 -25 37 -21 9z"/>
<path d="M2975 2789 c-14 -21 -23 -79 -14 -85 5 -3 7 -17 4 -32 -3 -15 6 -4
20 27 14 29 23 56 21 59 -3 3 -12 -10 -20 -29 -12 -27 -15 -29 -16 -12 0 12 5
34 10 49 11 28 7 44 -5 23z"/>
<path d="M1386 2755 c4 -22 2 -35 -4 -35 -6 0 -12 5 -14 12 -3 7 -12 9 -24 4
-18 -7 -18 -8 5 -27 21 -17 23 -22 10 -30 -11 -8 -11 -12 -1 -16 19 -7 14 -29
-10 -46 -18 -13 -20 -16 -6 -16 11 -1 15 -7 11 -23 -4 -22 -3 -21 19 5 31 36
41 34 33 -5 l-6 -33 16 28 c16 28 35 29 35 1 0 -23 18 -16 22 9 3 19 8 22 41
19 44 -3 46 0 12 22 -20 13 -30 14 -46 5 -15 -8 -24 -8 -32 0 -6 6 -19 11 -28
11 -22 0 -36 55 -19 75 16 20 50 19 50 -1 0 -8 5 -12 11 -9 10 7 -57 84 -74
85 -4 0 -5 -16 -1 -35z"/>
<path d="M3147 2783 c-10 -9 -8 -43 2 -43 5 0 11 11 13 25 5 24 -2 32 -15 18z"/>
<path d="M3310 2775 c0 -8 2 -15 4 -15 2 0 6 7 10 15 3 8 1 15 -4 15 -6 0 -10
-7 -10 -15z"/>
<path d="M2699 2753 c-5 -177 -8 -206 -19 -213 -7 -4 -9 -13 -5 -21 15 -23 27
32 32 149 3 61 3 112 -1 112 -3 0 -6 -12 -7 -27z"/>
<path d="M1555 2715 l-30 -13 27 -1 c15 -1 30 4 33 10 11 17 2 18 -30 4z"/>
<path d="M3057 2698 c-10 -33 -8 -60 2 -54 12 8 19 52 11 66 -5 7 -10 3 -13
-12z"/>
<path d="M3165 2711 c-6 -11 9 -23 19 -14 9 9 7 23 -3 23 -6 0 -12 -4 -16 -9z"/>
<path d="M1866 2703 c-11 -11 -6 -40 9 -53 13 -11 15 -8 15 18 0 31 -11 47
-24 35z"/>
<path d="M3586 2703 c-12 -12 -6 -33 9 -33 8 0 15 6 15 14 0 17 -14 28 -24 19z"/>
<path d="M3876 2702 c-4 -7 -5 -15 -3 -19 3 -5 10 -60 17 -123 6 -63 15 -119
20 -124 6 -6 8 10 5 40 -2 27 -6 81 -9 119 -5 78 -18 125 -30 107z"/>
<path d="M1415 2690 c3 -5 11 -10 16 -10 6 0 7 5 4 10 -3 6 -11 10 -16 10 -6
0 -7 -4 -4 -10z"/>
<path d="M1520 2671 c0 -11 39 -25 47 -18 3 3 2 10 -2 16 -8 13 -45 15 -45 2z"/>
<path d="M3000 2655 c-6 -15 -13 -32 -16 -36 -3 -5 -3 -9 0 -9 9 0 38 61 32
67 -3 3 -10 -7 -16 -22z"/>
<path d="M3966 2654 c-3 -9 -6 -33 -6 -53 0 -21 -7 -60 -15 -87 -19 -62 -19
-73 0 -48 14 18 14 18 15 -11 1 -23 7 -13 29 47 15 42 34 84 41 93 11 13 10
15 -2 10 -8 -3 -25 -23 -37 -43 -20 -33 -22 -34 -17 -9 15 66 18 117 8 117 -5
0 -13 -7 -16 -16z"/>
<path d="M2820 2603 c-11 -59 -23 -110 -35 -150 -4 -13 -3 -23 2 -23 5 0 19
44 32 98 12 53 25 105 28 115 2 9 0 17 -6 17 -5 0 -15 -26 -21 -57z"/>
<path d="M3510 2637 c0 -15 29 -57 30 -42 0 6 -3 20 -6 33 -7 24 -24 31 -24 9z"/>
<path d="M8148 2643 c39 -5 42 -19 5 -27 -22 -5 -28 -13 -30 -34 l-1 -27 15
29 c19 36 38 21 23 -19 -6 -15 -8 -30 -6 -33 3 -3 8 3 12 12 8 21 21 21 27 -1
4 -17 5 -17 6 0 0 9 6 17 11 17 15 0 12 43 -6 68 -11 17 -24 22 -52 20 -37 -1
-37 -1 -4 -5z"/>
<path d="M1953 2618 c-12 -14 -28 -98 -20 -98 6 0 38 103 33 107 -2 2 -8 -2
-13 -9z"/>
<path d="M3590 2606 c0 -14 5 -28 10 -31 6 -4 10 7 10 24 0 17 -4 31 -10 31
-5 0 -10 -11 -10 -24z"/>
<path d="M3000 2582 c-16 -38 -16 -77 1 -67 5 4 9 -2 9 -11 0 -29 17 -3 24 36
7 34 6 34 -7 11 l-14 -24 -1 29 c0 16 4 37 9 47 6 9 6 17 2 17 -4 0 -15 -17
-23 -38z"/>
<path d="M4050 2591 c-14 -36 -7 -51 21 -44 16 5 19 11 14 32 -10 41 -21 45
-35 12z"/>
<path d="M7637 2613 c-16 -16 -1 -19 88 -21 53 -1 99 -3 103 -5 4 -1 9 3 12 8
8 15 -189 33 -203 18z"/>
<path d="M8282 2612 c-18 -2 -30 -8 -26 -13 3 -5 9 -7 13 -4 5 2 38 5 75 6 36
1 66 6 66 11 0 8 -41 8 -128 0z"/>
<path d="M2633 2570 c0 -25 2 -35 4 -22 2 12 2 32 0 45 -2 12 -4 2 -4 -23z"/>
<path d="M2450 2592 c0 -5 6 -17 14 -28 16 -21 30 -16 20 9 -6 16 -34 32 -34
19z"/>
<path d="M2927 2501 c-10 -58 -22 -110 -27 -116 -5 -7 -16 -31 -25 -54 -20
-58 2 -49 25 9 10 25 20 43 24 40 3 -3 12 4 19 15 17 25 31 88 17 80 -6 -3
-10 -17 -10 -30 0 -13 -4 -27 -10 -30 -13 -8 -13 14 1 52 5 17 9 55 7 84 -3
52 -4 50 -21 -50z"/>
<path d="M3466 2592 c-7 -12 4 -52 15 -52 12 0 12 47 0 55 -5 3 -12 2 -15 -3z"/>
<path d="M2880 2570 c0 -11 -1 -23 -2 -27 -1 -5 -5 -26 -9 -48 -4 -22 -11 -48
-14 -57 -4 -10 -3 -18 3 -18 5 0 15 30 22 68 6 37 14 75 17 85 2 9 0 17 -6 17
-6 0 -11 -9 -11 -20z"/>
<path d="M3051 2534 c0 -11 3 -14 6 -6 3 7 2 16 -1 19 -3 4 -6 -2 -5 -13z"/>
<path d="M1488 2515 c-3 -3 1 -31 8 -63 22 -94 22 -96 -35 -89 -40 5 -49 3
-45 -8 4 -9 25 -15 57 -17 48 -3 52 -5 55 -30 3 -21 -3 -30 -27 -42 -40 -21
-46 -34 -25 -57 22 -25 38 -25 24 0 -16 30 -12 41 14 41 17 0 30 -11 46 -37
13 -21 25 -33 27 -26 5 14 -23 102 -38 120 -6 6 -9 20 -7 30 1 10 -1 23 -5 29
-4 7 4 14 22 17 21 4 37 19 55 49 l26 43 -26 9 c-20 6 -32 4 -52 -11 -38 -29
-41 -51 -3 -24 18 13 34 21 37 18 10 -10 -9 -57 -26 -62 -33 -10 -49 6 -60 61
-12 55 -13 58 -22 49z"/>
<path d="M4025 2510 c-9 -14 -45 -121 -45 -134 0 -6 4 -6 11 1 15 15 59 143
49 143 -5 0 -12 -4 -15 -10z"/>
<path d="M6083 2513 c-18 -7 -16 -23 2 -23 8 0 15 7 15 15 0 8 -1 15 -2 14 -2
0 -9 -3 -15 -6z"/>
<path d="M3060 2476 c0 -31 6 -34 13 -6 3 11 1 23 -4 26 -5 3 -9 -6 -9 -20z"/>
<path d="M3710 2493 c0 -13 30 -53 40 -53 15 0 -6 55 -23 58 -9 2 -17 0 -17
-5z"/>
<path d="M3027 2477 c-11 -29 -9 -53 4 -40 6 6 9 21 7 34 -3 21 -4 22 -11 6z"/>
<path d="M3816 2473 c-7 -18 21 -64 44 -71 11 -4 10 1 -3 21 -9 15 -17 35 -17
47 0 24 -15 26 -24 3z"/>
<path d="M2620 2455 c0 -16 16 -20 24 -6 3 5 -1 11 -9 15 -9 3 -15 0 -15 -9z"/>
<path d="M2155 2452 c-48 -10 -82 -73 -65 -118 12 -30 37 -53 60 -54 8 0 26
-15 39 -33 13 -18 35 -41 48 -50 22 -17 23 -17 23 2 0 11 -18 33 -42 52 -108
82 -131 124 -92 163 17 18 64 22 64 6 0 -5 5 -10 10 -10 17 0 11 29 -7 38 -10
5 -27 7 -38 4z"/>
<path d="M2410 2436 c0 -14 4 -27 9 -31 12 -7 25 31 16 45 -11 18 -25 10 -25
-14z"/>
<path d="M4037 2443 c-4 -3 -7 -23 -7 -43 0 -34 2 -37 30 -37 23 0 29 4 25 14
-3 8 -5 22 -5 31 -1 15 -3 14 -16 -3 -14 -19 -15 -18 -9 13 5 30 -3 41 -18 25z"/>
<path d="M2968 2405 c-3 -14 -1 -25 3 -25 5 0 9 4 9 9 0 5 3 16 6 25 3 9 2 16
-4 16 -5 0 -12 -11 -14 -25z"/>
<path d="M1400 2412 c0 -10 60 -25 68 -17 8 8 0 12 -35 20 -19 4 -33 3 -33 -3z"/>
<path d="M3000 2399 c0 -11 4 -18 10 -14 5 3 7 12 3 20 -7 21 -13 19 -13 -6z"/>
<path d="M2770 2395 c0 -8 2 -15 4 -15 2 0 6 7 10 15 3 8 1 15 -4 15 -6 0 -10
-7 -10 -15z"/>
<path d="M3330 2391 c0 -6 5 -13 10 -16 6 -3 10 1 10 9 0 9 -4 16 -10 16 -5 0
-10 -4 -10 -9z"/>
<path d="M3546 2372 c-21 -41 -31 -108 -17 -116 7 -5 11 2 11 18 0 14 7 46 16
72 18 54 12 69 -10 26z"/>
<path d="M2490 2382 c-19 -7 -40 -28 -40 -40 0 -5 7 -16 16 -23 15 -12 16 -11
9 10 -6 20 -4 23 9 18 9 -4 23 -10 31 -13 10 -4 15 0 15 11 0 22 -22 43 -40
37z"/>
<path d="M3026 2375 c-3 -9 -6 -22 -5 -28 0 -7 5 -1 10 12 5 13 8 26 5 28 -2
2 -6 -3 -10 -12z"/>
<path d="M2010 2361 c0 -11 5 -23 10 -26 6 -4 10 5 10 19 0 14 -4 26 -10 26
-5 0 -10 -9 -10 -19z"/>
<path d="M3055 2360 c-9 -29 8 -46 25 -25 11 13 11 19 -2 32 -14 14 -17 13
-23 -7z"/>
<path d="M7717 2348 c-13 -18 -27 -45 -31 -60 -3 -16 -12 -28 -19 -29 -6 0
-41 -2 -77 -2 -36 -1 -66 -5 -67 -9 -2 -5 -1 -8 2 -8 3 0 40 0 83 0 l78 0 10
37 c13 51 38 58 32 9 -2 -20 0 -36 4 -36 4 0 8 9 8 20 0 27 18 25 23 -2 2 -13
4 3 4 35 0 31 -1 57 -3 57 -2 0 -8 -15 -14 -32 -10 -32 -10 -32 -6 10 2 23 3
42 1 42 -2 0 -15 -15 -28 -32z"/>
<path d="M1796 2361 c-8 -12 3 -41 15 -41 12 0 12 37 0 45 -5 3 -12 1 -15 -4z"/>
<path d="M3571 2311 c-23 -65 -27 -91 -11 -75 14 14 50 134 40 134 -4 0 -17
-26 -29 -59z"/>
<path d="M8607 2358 c-9 -4 -42 -11 -74 -14 -57 -6 -100 -21 -90 -30 3 -3 31
0 64 6 32 7 69 12 82 11 34 -1 101 18 101 29 0 11 -62 10 -83 -2z"/>
<path d="M2385 2349 c-4 -6 -5 -12 -2 -15 7 -7 37 7 37 17 0 13 -27 11 -35 -2z"/>
<path d="M3305 2350 c3 -5 8 -10 11 -10 2 0 4 5 4 10 0 6 -5 10 -11 10 -5 0
-7 -4 -4 -10z"/>
<path d="M2045 2330 c-3 -5 -1 -10 4 -10 6 0 11 5 11 10 0 6 -2 10 -4 10 -3 0
-8 -4 -11 -10z"/>
<path d="M7958 2292 c-25 -21 -43 -44 -40 -49 5 -7 15 -5 31 8 13 10 20 19 16
19 -5 0 0 9 10 20 21 23 66 24 73 1 3 -9 0 -11 -7 -7 -19 12 -39 -12 -33 -40
3 -19 7 -22 13 -12 6 9 9 4 10 -17 2 -29 2 -29 8 5 8 44 25 45 29 3 2 -18 8
-33 14 -33 6 0 8 12 5 29 -4 18 -2 31 5 33 24 8 -47 78 -79 78 -4 0 -29 -17
-55 -38z"/>
<path d="M2495 2310 c-3 -5 -1 -10 4 -10 6 0 11 5 11 10 0 6 -2 10 -4 10 -3 0
-8 -4 -11 -10z"/>
<path d="M5882 2300 c-30 -18 -32 -24 -26 -54 5 -31 3 -36 -25 -50 -17 -9 -31
-21 -31 -26 0 -11 63 24 80 45 8 10 8 19 -2 35 -12 19 -10 24 17 46 36 29 31
31 -13 4z"/>
<path d="M1616 2276 c-6 -23 7 -76 19 -76 3 0 5 23 5 50 0 53 -14 67 -24 26z"/>
<path d="M1984 2266 c-3 -14 -1 -33 5 -43 8 -15 10 -10 11 25 0 47 -6 55 -16
18z"/>
<path d="M1679 2268 c-7 -55 -6 -79 2 -84 5 -3 9 4 9 14 0 11 3 34 6 51 4 20
3 31 -5 31 -6 0 -12 -6 -12 -12z"/>
<path d="M2860 2260 c0 -5 5 -10 10 -10 6 0 10 5 10 10 0 6 -4 10 -10 10 -5 0
-10 -4 -10 -10z"/>
<path d="M1920 2245 c0 -21 32 -85 43 -85 5 0 6 6 3 13 -2 6 -10 29 -17 50
-12 37 -29 50 -29 22z"/>
<path d="M2026 2244 c-9 -25 -7 -64 4 -64 6 0 10 11 10 24 0 13 3 31 6 40 3 9
2 16 -4 16 -5 0 -13 -7 -16 -16z"/>
<path d="M1741 2229 c-9 -25 -4 -56 10 -65 5 -3 9 4 9 15 0 12 5 21 11 21 14
0 7 42 -9 48 -6 2 -16 -7 -21 -19z"/>
<path d="M7223 2233 c-62 -4 -91 -23 -34 -23 50 0 121 12 121 21 0 5 -6 8 -12
7 -7 -1 -41 -3 -75 -5z"/>
<path d="M2086 2193 c8 -54 12 -65 24 -58 14 9 13 68 -2 83 -21 21 -27 13 -22
-25z"/>
<path d="M1230 2200 c0 -27 27 -80 41 -80 6 0 8 9 4 21 -5 13 -2 25 6 30 10 6
9 12 -5 28 -24 27 -46 27 -46 1z"/>
<path d="M2430 2205 c0 -8 5 -15 10 -15 6 0 10 7 10 15 0 8 -4 15 -10 15 -5 0
-10 -7 -10 -15z"/>
<path d="M2960 2201 c-15 -28 -13 -33 10 -21 11 6 20 17 20 25 0 21 -17 18
-30 -4z"/>
<path d="M990 2192 c0 -30 30 -63 53 -60 25 3 35 41 17 64 -18 21 -70 19 -70
-4z"/>
<path d="M1385 2201 c-3 -5 -1 -12 5 -16 5 -3 10 1 10 9 0 18 -6 21 -15 7z"/>
<path d="M3142 2194 c2 -11 8 -18 13 -16 15 3 12 25 -3 30 -9 3 -13 -2 -10
-14z"/>
<path d="M2451 2183 c-8 -14 -23 -17 -85 -16 -42 0 -76 -3 -76 -7 0 -19 31
-32 62 -26 18 4 44 8 58 9 14 1 31 6 38 10 6 5 17 5 22 2 6 -4 10 5 10 19 0
30 -15 34 -29 9z"/>
<path d="M2517 2193 c-10 -9 -9 -41 1 -47 5 -3 9 8 10 24 1 32 -1 34 -11 23z"/>
<path d="M2577 2178 c-4 -14 -1 -29 9 -38 13 -13 14 -11 8 20 -9 44 -10 46
-17 18z"/>
<path d="M3074 2189 c-6 -11 13 -39 27 -39 5 0 9 9 9 19 0 21 -26 36 -36 20z"/>
<path d="M1417 2184 c-10 -10 12 -44 28 -44 8 0 15 4 15 8 0 13 -36 43 -43 36z"/>
<path d="M1141 2158 c-9 -25 3 -58 20 -58 6 0 8 7 5 16 -4 9 -1 23 5 30 11 14
5 34 -12 34 -5 0 -13 -10 -18 -22z"/>
<path d="M5958 2171 c-61 -9 -77 -24 -18 -18 25 3 64 6 88 6 23 1 42 6 42 11
0 11 -38 11 -112 1z"/>
<path d="M6243 2167 c-3 -5 -3 -11 0 -13 7 -7 57 7 57 16 0 10 -50 7 -57 -3z"/>
<path d="M2980 2149 c7 -11 14 -18 17 -15 8 8 -5 36 -17 36 -7 0 -7 -6 0 -21z"/>
<path d="M5440 2161 c-14 -4 -20 -9 -15 -12 17 -9 80 -4 85 6 6 12 -36 16 -70
6z"/>
<path d="M950 2149 c0 -10 27 -19 34 -12 11 12 6 19 -14 19 -11 0 -20 -3 -20
-7z"/>
<path d="M2624 2136 c-7 -31 -7 -31 24 -41 22 -6 23 -5 17 17 -4 12 -13 29
-20 37 -12 12 -15 10 -21 -13z"/>
<path d="M2680 2141 c0 -11 5 -23 10 -26 6 -4 10 5 10 19 0 14 -4 26 -10 26
-5 0 -10 -9 -10 -19z"/>
<path d="M2720 2148 c1 -7 7 -35 14 -63 11 -41 14 -46 20 -28 8 26 -10 103
-24 103 -6 0 -10 -6 -10 -12z"/>
<path d="M2782 2133 c2 -14 8 -28 14 -30 7 -2 9 8 6 27 -5 37 -25 40 -20 3z"/>
<path d="M2837 2148 c-7 -21 4 -34 34 -41 24 -6 26 -4 21 18 -5 28 -22 34 -22
8 -1 -14 -4 -13 -14 6 -10 18 -14 20 -19 9z"/>
<path d="M2920 2146 c0 -9 7 -16 16 -16 17 0 14 22 -4 28 -7 2 -12 -3 -12 -12z"/>
<path d="M2550 2131 c0 -13 26 -32 33 -24 8 7 -11 33 -24 33 -5 0 -9 -4 -9 -9z"/>
<path d="M2187 2093 c-12 -12 -7 -22 8 -17 8 4 15 10 15 15 0 11 -14 12 -23 2z"/>
<path d="M2390 2076 c-5 -15 -10 -35 -9 -44 0 -9 7 1 15 22 8 22 12 41 9 44
-2 3 -9 -7 -15 -22z"/>
<path d="M2115 2080 c-3 -5 5 -16 17 -24 27 -19 39 -20 32 -3 -7 18 -42 38
-49 27z"/>
<path d="M2496 2079 c-11 -36 -13 -58 -6 -69 5 -8 11 4 15 29 7 40 0 69 -9 40z"/>
<path d="M2320 2049 c0 -25 17 -59 31 -59 6 0 6 7 -1 19 -5 11 -10 29 -10 40
0 12 -4 21 -10 21 -5 0 -10 -9 -10 -21z"/>
<path d="M2438 2060 c-4 -8 -9 -24 -13 -35 -6 -19 -5 -19 10 -4 9 9 15 25 13
35 -4 15 -6 16 -10 4z"/>
<path d="M2660 2049 c0 -11 4 -18 10 -14 5 3 7 12 3 20 -7 21 -13 19 -13 -6z"/>
<path d="M7830 2029 c0 -11 4 -18 10 -14 5 3 7 12 3 20 -7 21 -13 19 -13 -6z"/>
<path d="M7724 2030 c-25 -10 -41 -30 -25 -30 6 0 12 -19 12 -42 l2 -43 6 46
c4 26 13 54 20 63 15 18 15 18 -15 6z"/>
<path d="M7787 2033 c-4 -3 -7 -20 -6 -37 l1 -31 8 35 c9 36 8 45 -3 33z"/>
<path d="M8360 2032 c-44 -2 -80 -7 -80 -12 0 -11 140 -14 189 -4 40 8 41 25
1 22 -17 -2 -67 -4 -110 -6z"/>
<path d="M7468 1998 c-35 -12 -37 -27 -3 -20 15 2 25 0 25 -8 0 -6 -8 -9 -18
-6 -19 6 -66 -29 -57 -43 2 -5 16 -6 30 -3 15 3 42 -4 68 -18 37 -20 47 -21
87 -11 l45 11 -53 -5 -54 -4 7 37 c5 30 2 42 -15 60 -23 24 -24 25 -62 10z"/>
<path d="M1480 1987 c-28 -14 -37 -63 -23 -131 14 -64 29 -54 45 31 8 43 18
86 23 96 9 21 -9 22 -45 4z m7 -44 c-10 -32 -13 -34 -15 -15 -4 28 4 52 17 52
5 0 4 -16 -2 -37z"/>
<path d="M3815 1991 c-64 -6 -135 -42 -135 -67 0 -21 11 -17 45 15 19 18 46
32 73 36 46 7 51 2 25 -27 -22 -25 -2 -23 31 3 20 16 30 19 39 10 8 -8 7 -11
-6 -11 -10 0 -29 -7 -42 -16 -13 -9 -28 -13 -34 -10 -13 9 -59 -13 -66 -31 -4
-11 -1 -13 12 -9 10 4 49 1 87 -5 54 -10 71 -10 74 -1 4 14 32 16 32 2 0 -5 7
-10 15 -10 11 0 15 12 15 48 0 42 -3 50 -29 65 -30 18 -36 18 -136 8z m50 -81
c-10 -11 -22 -17 -28 -13 -6 4 -3 12 8 20 28 20 41 16 20 -7z"/>
<path d="M1552 1978 c-14 -19 -42 -105 -42 -133 0 -48 18 -33 29 24 6 31 17
65 24 75 11 15 13 4 12 -65 0 -51 4 -84 11 -86 7 -2 10 21 9 72 -1 41 0 75 2
75 17 0 41 -23 37 -34 -3 -8 -1 -17 5 -21 6 -3 11 -2 11 3 0 13 107 9 122 -5
14 -15 48 -17 48 -3 0 5 -16 20 -36 34 -30 20 -40 22 -63 13 -22 -8 -35 -6
-62 8 -19 10 -44 23 -56 29 -13 6 -23 14 -23 19 0 11 -17 8 -28 -5z"/>
<path d="M1360 1971 c0 -5 14 -46 31 -90 43 -114 64 -107 26 9 -18 55 -35 90
-43 90 -8 0 -14 -4 -14 -9z"/>
<path d="M3010 1944 c-6 -14 -15 -34 -20 -45 -6 -10 -7 -19 -3 -19 7 0 25 30
51 83 2 4 -2 7 -8 7 -6 0 -15 -12 -20 -26z"/>
<path d="M6742 1962 c-13 -4 -23 -10 -23 -14 1 -5 1 -20 1 -34 0 -24 3 -26 40
-22 22 2 40 0 40 -4 0 -18 39 -6 46 14 5 16 0 27 -20 45 -28 23 -43 26 -84 15z
m52 -28 c28 -11 17 -30 -19 -32 -37 -3 -38 -2 -29 22 6 17 22 20 48 10z"/>
<path d="M6190 1953 c-8 -3 -21 -14 -28 -25 -9 -13 -26 -18 -58 -18 -24 0 -44
-4 -44 -9 0 -18 38 -22 110 -10 40 6 86 8 102 5 26 -5 29 -3 23 12 -4 9 -8 23
-8 30 0 6 -6 12 -12 12 -7 0 -25 2 -41 5 -16 2 -36 1 -44 -2z m55 -28 c0 -5
-12 -11 -27 -13 -27 -3 -36 7 -21 22 10 10 48 3 48 -9z"/>
<path d="M7085 1929 c-12 -19 5 -23 22 -6 16 16 16 17 1 17 -9 0 -20 -5 -23
-11z"/>
<path d="M940 1907 c0 -7 6 -22 14 -33 14 -18 16 -18 32 -2 14 14 15 20 4 32
-15 19 -50 21 -50 3z"/>
<path d="M2095 1901 c-34 -20 -86 -106 -82 -136 1 -14 9 -20 27 -20 22 0 25 4
22 33 -7 66 30 122 81 122 12 0 47 -53 47 -71 0 -5 -16 -15 -35 -23 -39 -17
-49 -42 -12 -32 53 15 105 18 112 7 5 -9 10 -9 21 0 19 15 18 25 -5 46 -11 10
-30 34 -43 52 -19 28 -30 35 -63 37 -25 2 -52 -4 -70 -15z"/>
<path d="M2450 1893 c1 -16 11 -41 24 -56 l23 -28 14 23 c16 25 39 75 39 85 0
12 -33 -23 -41 -44 -9 -24 -31 -32 -28 -10 4 33 -2 57 -16 57 -10 0 -15 -10
-15 -27z"/>
<path d="M2896 1883 c-3 -21 -5 -51 -5 -68 1 -25 4 -21 14 20 16 61 18 85 6
85 -4 0 -11 -17 -15 -37z"/>
<path d="M3046 1903 c-7 -20 -70 -93 -80 -93 -4 0 -2 9 4 21 7 11 9 23 6 26
-3 3 -10 -6 -16 -21 -20 -53 -7 -76 19 -34 13 21 15 21 21 4 6 -17 9 -16 40
13 37 33 49 35 29 2 -15 -23 -7 -36 16 -27 19 7 34 44 27 68 -6 25 -13 23 -60
-18 -42 -36 -54 -35 -29 1 39 56 48 75 39 75 -6 0 -13 -8 -16 -17z m50 -79
c-4 -9 -9 -15 -11 -12 -3 3 -3 13 1 22 4 9 9 15 11 12 3 -3 3 -13 -1 -22z"/>
<path d="M6426 1913 c-11 -3 -37 -16 -59 -30 -33 -21 -38 -28 -35 -56 2 -21 9
-33 20 -35 15 -3 17 2 12 27 -9 41 6 57 67 71 58 14 82 3 58 -26 -7 -9 -12
-32 -10 -51 2 -30 0 -34 -21 -32 -37 3 -60 0 -54 -9 2 -4 39 -3 82 3 73 10 78
12 92 43 15 32 25 36 70 32 12 -1 22 4 22 11 0 8 -13 10 -45 6 -38 -6 -46 -4
-55 13 -16 29 -90 46 -144 33z"/>
<path d="M7805 1910 c-3 -5 -2 -10 4 -10 5 0 13 5 16 10 3 6 2 10 -4 10 -5 0
-13 -4 -16 -10z"/>
<path d="M1103 1903 c-21 -8 -13 -73 8 -73 7 0 39 62 39 76 0 5 -32 4 -47 -3z"/>
<path d="M1164 1894 c3 -9 6 -18 6 -20 0 -2 5 -4 12 -4 7 0 29 -17 50 -37 28
-27 41 -34 49 -26 9 9 5 20 -12 45 -32 45 -49 57 -83 58 -22 0 -27 -4 -22 -16z"/>
<path d="M3284 1887 c-41 -16 -76 -45 -93 -80 -18 -34 -4 -55 26 -39 10 6 39
9 64 6 l44 -4 -52 16 c-29 9 -53 22 -53 30 0 15 47 54 66 54 21 0 28 -22 11
-35 -21 -15 -22 -35 -3 -35 8 0 24 -12 35 -26 21 -26 21 -26 56 -10 57 27 60
93 5 121 -34 18 -64 18 -106 2z m75 -16 c18 -11 5 -31 -20 -31 -18 0 -26 20
-12 33 8 9 15 9 32 -2z"/>
<path d="M7833 1888 c-13 -6 -23 -15 -23 -20 0 -11 17 -10 25 2 3 6 17 10 31
10 14 0 22 4 19 10 -8 12 -23 12 -52 -2z"/>
<path d="M7182 1879 c-52 -11 -50 -19 6 -19 29 0 52 4 52 9 0 14 -22 18 -58
10z"/>
<path d="M7470 1876 c7 -7 14 -6 21 1 9 9 7 12 -9 10 -14 -1 -18 -5 -12 -11z"/>
<path d="M2564 1855 c-8 -13 -13 -28 -11 -33 8 -12 100 -9 104 4 5 14 -49 26
-61 13 -20 -19 -28 -8 -12 16 9 14 12 25 6 25 -5 0 -17 -11 -26 -25z"/>
<path d="M2830 1871 c0 -12 49 -101 55 -101 2 0 -3 20 -11 44 -15 45 -44 81
-44 57z"/>
<path d="M5578 1873 c7 -3 16 -2 19 1 4 3 -2 6 -13 5 -11 0 -14 -3 -6 -6z"/>
<path d="M7083 1873 c9 -2 25 -2 35 0 9 3 1 5 -18 5 -19 0 -27 -2 -17 -5z"/>
<path d="M7630 1872 c-14 -2 -35 -14 -47 -26 l-23 -23 23 -11 c12 -6 43 -13
69 -16 45 -5 47 -5 53 25 4 18 3 35 -4 42 -6 6 -11 8 -11 4 0 -4 -8 -4 -17 1
-10 4 -29 6 -43 4z m40 -22 c0 -5 -6 -10 -14 -10 -8 0 -18 5 -21 10 -3 6 3 10
14 10 12 0 21 -4 21 -10z"/>
<path d="M5487 1864 c-4 -4 -7 -18 -7 -32 0 -13 -9 -63 -21 -110 -25 -106 -20
-124 48 -145 43 -14 126 -17 138 -5 3 2 -29 10 -70 17 -41 7 -75 16 -75 21 0
4 19 4 43 -2 23 -5 56 -7 72 -4 17 3 36 2 43 -2 17 -11 98 1 92 13 -3 6 -20 8
-38 7 -18 -2 -39 1 -46 7 -9 7 -22 7 -46 -2 -24 -9 -34 -9 -37 -1 -2 6 -15 9
-29 6 -25 -4 -26 -3 -19 27 8 37 0 39 -25 9 -25 -31 -35 -17 -15 22 9 17 14
37 11 43 -2 7 -8 2 -11 -10 -4 -13 -11 -23 -14 -23 -4 0 1 32 11 71 16 64 13
111 -5 93z"/>
<path d="M6938 1841 c-35 -26 -36 -29 -22 -49 12 -17 24 -22 62 -21 26 1 60
-2 75 -6 29 -8 67 15 67 41 0 22 -31 44 -63 45 -27 0 -29 2 -12 9 15 7 9 9
-25 9 -34 0 -54 -6 -82 -28z m112 -13 c24 0 24 0 5 -14 -24 -18 -67 -21 -104
-8 -11 3 -11 7 0 20 9 11 21 14 43 8 17 -3 42 -7 56 -6z"/>
<path d="M7263 1853 c-13 -8 -23 -22 -23 -29 0 -18 16 -18 23 0 6 16 64 30 94
24 12 -3 4 -9 -24 -17 -48 -13 -51 -18 -25 -37 20 -16 54 -18 68 -5 5 5 20 11
34 13 17 2 25 9 25 22 0 39 -128 60 -172 29z"/>
<path d="M5600 1831 c0 -11 69 -20 75 -10 3 3 -9 9 -26 13 -42 8 -49 8 -49 -3z"/>
<path d="M5406 1759 c14 -61 13 -89 -4 -89 -4 0 -13 12 -19 28 l-11 27 -2 -30
c-2 -26 -4 -23 -18 23 -10 30 -21 55 -27 55 -17 3 -17 -40 0 -73 15 -29 15
-33 -7 -73 -25 -45 -56 -58 -78 -32 -8 10 -9 15 -1 15 16 0 13 26 -5 41 -13
10 -20 10 -36 0 -13 -8 -23 -9 -32 -2 -8 7 -23 7 -42 2 l-29 -9 35 -2 c29 -1
32 -3 15 -10 -28 -12 -88 -12 -80 0 10 15 -14 12 -46 -7 -16 -10 -29 -23 -29
-30 0 -17 36 -16 105 1 54 15 56 14 79 -9 33 -33 89 -42 122 -20 19 12 29 14
37 6 29 -29 77 11 77 64 0 16 6 25 15 25 12 0 15 7 10 33 -3 17 -9 52 -13 76
-4 25 -13 46 -19 48 -8 3 -7 -13 3 -58z m-26 -165 c0 -16 -16 -19 -25 -4 -8
13 4 32 16 25 5 -4 9 -13 9 -21z"/>
<path d="M5560 1804 c0 -8 5 -12 10 -9 6 4 8 11 5 16 -9 14 -15 11 -15 -7z"/>
<path d="M5613 1789 c-18 -5 -33 -14 -33 -19 0 -14 10 -12 50 10 38 21 33 23
-17 9z"/>
<path d="M6705 1780 c-4 -6 6 -10 24 -10 16 0 33 5 36 10 4 6 -6 10 -24 10
-16 0 -33 -4 -36 -10z"/>
<path d="M5650 1760 c-31 -24 -17 -24 35 0 35 16 37 19 15 19 -14 0 -36 -8
-50 -19z"/>
<path d="M8409 1766 c-2 -2 -46 -6 -98 -9 -87 -6 -111 -11 -100 -21 2 -2 51
-1 108 3 70 4 106 10 109 19 3 11 -9 17 -19 8z"/>
<path d="M6865 1750 c-8 -12 20 -24 35 -15 5 3 10 10 10 16 0 12 -37 12 -45
-1z"/>
<path d="M7775 1734 c-42 -7 -55 -13 -43 -18 10 -5 30 -4 45 1 16 6 77 10 136
9 60 -1 111 2 114 7 5 8 -1 8 -112 11 -44 1 -107 -3 -140 -10z"/>
<path d="M6716 1729 c26 -10 102 -11 108 -1 3 5 -25 8 -61 8 -39 0 -58 -3 -47
-7z"/>
<path d="M6575 1712 c-16 -16 2 -22 61 -21 36 1 61 5 57 10 -10 9 -110 19
-118 11z"/>
<path d="M8094 1695 c3 -8 1 -27 -5 -42 -6 -17 -6 -30 0 -36 6 -6 12 3 16 27
4 21 13 36 21 36 16 0 18 -12 4 -26 -13 -13 -1 -54 16 -54 16 0 19 16 3 25 -7
5 -5 15 5 31 21 31 21 30 -15 43 -43 15 -52 14 -45 -4z"/>
<path d="M8586 1688 c-3 -7 -7 -26 -11 -41 -7 -35 -28 -30 -35 9 l-6 29 -19
-35 -20 -35 -5 40 c-4 30 -7 35 -13 22 -9 -25 -9 -69 2 -86 7 -10 12 -8 24 9
13 19 18 20 35 9 29 -18 57 9 60 56 3 34 -5 47 -12 23z"/>
<path d="M8257 1673 c-3 -5 -8 -29 -11 -54 -8 -57 13 -73 40 -31 11 16 19 22
22 14 2 -7 12 -17 23 -22 16 -9 22 -5 39 22 11 18 20 44 20 57 0 31 -9 22 -16
-15 -7 -36 -12 -44 -31 -44 -12 0 -14 9 -11 40 2 22 0 40 -3 40 -4 0 -17 -20
-29 -45 -12 -25 -26 -45 -32 -45 -7 0 -8 17 -4 45 7 42 4 56 -7 38z"/>
<path d="M6408 1661 c-73 -10 -71 -24 2 -17 36 3 66 5 68 6 1 0 2 5 2 10 0 11
-1 11 -72 1z"/>
<path d="M5705 1649 c58 -12 124 -11 105 1 -8 5 -44 9 -80 9 -61 -1 -63 -2
-25 -10z"/>
<path d="M5862 1653 c-25 -5 -67 -41 -58 -50 3 -3 21 4 40 15 l36 21 28 -24
c25 -21 35 -23 84 -18 33 3 63 1 76 -6 17 -9 28 -8 49 2 16 8 55 17 88 20 33
4 61 6 63 7 1 0 2 4 2 9 0 16 -139 8 -145 -8 -4 -10 -17 -11 -53 -6 -26 4 -63
7 -83 6 -23 -1 -45 6 -61 19 -15 11 -30 19 -35 19 -4 -1 -18 -4 -31 -6z"/>
<path d="M7080 1653 c-81 -12 -93 -15 -82 -22 6 -4 50 -3 97 1 55 5 92 5 105
-2 27 -15 32 -12 20 10 -9 16 -20 20 -63 19 -29 -1 -63 -3 -77 -6z"/>
<path d="M8190 1630 c0 -5 5 -10 10 -10 6 0 10 5 10 10 0 6 -4 10 -10 10 -5 0
-10 -4 -10 -10z"/>
<path d="M6640 1616 c0 -19 22 -24 118 -28 54 -3 72 0 72 9 0 8 -15 13 -42 14
-53 2 -74 4 -115 13 -26 6 -33 4 -33 -8z"/>
<path d="M8630 1614 c0 -8 5 -12 10 -9 6 4 8 11 5 16 -9 14 -15 11 -15 -7z"/>
<path d="M2578 1064 c-38 -20 -35 -25 15 -23 68 3 97 0 97 -11 0 -5 -13 -10
-29 -10 -17 0 -33 -4 -36 -10 -4 -6 8 -10 28 -10 52 0 80 -28 81 -81 l1 -44
-50 -3 c-27 -1 -56 2 -63 6 -8 5 -14 32 -15 65 -3 89 -27 68 -27 -23 0 -66 16
-80 90 -80 51 0 62 3 75 23 28 44 29 79 0 121 -14 21 -24 40 -22 43 3 2 21
-10 40 -26 56 -50 65 -130 21 -188 -14 -18 -32 -33 -40 -33 -20 0 -18 -4 20
-46 62 -68 81 -207 37 -277 -20 -33 -27 -38 -60 -36 -40 2 -168 -10 -191 -17
-29 -10 15 -24 92 -30 61 -5 76 -4 87 10 7 9 24 16 37 16 15 0 33 13 51 37 52
68 45 247 -13 315 -21 26 -23 32 -10 42 8 6 24 33 35 59 18 41 19 55 10 95 -5
26 -18 55 -27 65 -47 53 -178 81 -234 51z"/>
<path d="M1717 1033 c-16 -16 -5 -32 21 -30 l27 2 5 -95 c3 -52 9 -101 13
-108 6 -9 28 -12 78 -9 42 3 74 0 83 -7 20 -16 35 -94 40 -218 7 -146 -16
-207 -52 -137 -8 16 -11 64 -10 149 1 69 -1 130 -5 137 -9 14 -94 15 -119 2
-16 -8 -18 -25 -18 -121 0 -114 -14 -188 -35 -188 -33 0 -36 29 -40 305 -4
261 -7 295 -23 295 -10 0 -9 -570 1 -597 17 -47 88 -36 103 16 4 14 8 80 8
146 l1 120 50 0 50 0 -3 -90 c-7 -167 16 -242 68 -228 28 7 40 33 44 95 3 70
-13 277 -24 305 -16 40 -50 53 -107 44 -78 -12 -83 -6 -82 100 0 56 -4 96 -12
105 -12 14 -51 19 -62 7z"/>
<path d="M2489 1033 c-3 -20 4 -49 14 -62 9 -10 11 -94 10 -293 -2 -216 0
-279 10 -275 14 4 17 60 20 362 1 168 -1 206 -15 238 -15 33 -36 49 -39 30z"/>
<path d="M1250 1022 c-6 -2 -10 -9 -10 -16 0 -16 112 -26 263 -23 l107 2 0
-37 c0 -38 0 -38 -43 -38 -75 0 -83 -13 -91 -142 -3 -62 -6 -158 -7 -213 -1
-121 -5 -142 -30 -148 -32 -9 -51 20 -44 67 11 83 14 409 4 428 -8 16 -19 18
-71 14 -89 -6 -108 4 -108 55 0 57 -24 46 -28 -13 -5 -70 11 -80 109 -72 l79
7 0 -34 c0 -19 -5 -123 -10 -232 -12 -244 -4 -270 75 -249 42 12 51 37 54 154
2 57 4 119 5 138 1 19 3 74 4 123 l2 87 49 0 c57 0 81 22 81 75 0 62 22 57
-328 68 -28 1 -57 1 -62 -1z"/>
<path d="M6500 1015 c-15 -18 -6 -143 11 -160 6 -5 45 -10 87 -10 l76 0 7 -32
c5 -28 -3 -139 -26 -339 -7 -58 -6 -62 21 -88 16 -14 36 -24 44 -21 8 3 33 9
57 12 37 5 43 9 49 37 4 17 6 94 4 171 -2 77 -4 174 -4 215 l-1 75 55 1 c30 1
64 -2 75 -6 23 -9 52 3 72 29 20 26 16 85 -8 107 -20 18 -35 19 -213 15 -260
-6 -259 -6 -277 2 -10 5 -21 2 -29 -8z m465 -23 c39 -8 40 -8 37 -47 -2 -22
-6 -43 -10 -47 -4 -4 -35 -3 -69 2 -134 19 -146 0 -134 -206 5 -82 7 -181 4
-219 l-5 -71 -39 -1 c-27 -1 -42 3 -48 15 -5 10 -3 89 5 200 7 102 10 199 6
220 l-8 37 -81 -2 -81 -1 -6 30 c-3 17 -6 43 -6 58 l0 27 142 2 c78 1 144 4
147 6 7 7 100 5 146 -3z"/>
<path d="M5086 1008 c-9 -5 -21 -6 -27 -2 -18 11 -29 -17 -29 -71 0 -83 0 -83
167 -70 48 3 53 2 58 -18 9 -40 23 -381 18 -435 l-6 -52 76 1 76 1 -4 57 c-2
31 -8 103 -14 161 -5 58 -13 146 -16 197 l-6 92 77 3 c73 3 78 4 84 28 4 14 5
42 2 63 -3 28 -9 38 -26 42 -42 9 -414 12 -430 3z m405 -28 c21 0 28 -18 22
-53 -5 -26 -7 -27 -79 -27 -62 0 -75 -3 -84 -19 -5 -11 -8 -26 -5 -33 2 -7 9
-85 15 -173 5 -88 12 -188 16 -222 l7 -63 -37 0 c-22 0 -36 5 -37 13 0 6 0 62
1 122 1 145 -16 343 -32 362 -10 13 -30 14 -109 9 l-96 -6 -1 48 -2 47 203 -2
c111 -2 209 -3 218 -3z"/>
<path d="M5602 1010 c-23 -10 -24 -13 -16 -73 5 -34 7 -176 6 -314 l-3 -253
50 0 c41 0 53 4 65 23 20 31 25 121 11 212 -12 72 -11 77 6 84 32 11 97 1 104
-17 4 -10 6 -75 6 -145 -1 -142 6 -167 48 -167 60 0 75 63 60 252 -12 163 -55
214 -161 190 -59 -14 -67 -9 -68 48 -1 19 -7 64 -14 100 -11 62 -13 65 -41 67
-17 1 -41 -2 -53 -7z m63 -27 c3 -10 10 -56 15 -101 10 -98 21 -116 63 -106
106 23 148 -4 166 -109 16 -93 15 -262 -3 -276 -28 -23 -38 13 -40 151 -2 73
-6 141 -10 150 -9 20 -23 25 -87 32 -37 4 -50 1 -68 -15 -20 -19 -21 -27 -14
-77 9 -72 7 -202 -4 -212 -4 -5 -21 -12 -37 -16 l-29 -7 7 59 c16 144 17 379
3 454 -8 41 -13 78 -10 83 8 14 41 7 48 -10z"/>
<path d="M8165 897 c-16 -5 -64 -10 -105 -11 -42 0 -75 -5 -75 -11 0 -12 146
-12 187 0 22 6 29 2 44 -20 16 -24 18 -53 19 -219 0 -132 4 -198 13 -213 11
-19 10 -24 -7 -32 -15 -9 -22 -6 -35 14 -13 20 -16 56 -16 198 l0 174 -26 27
c-35 35 -97 37 -118 4 -13 -20 -13 -31 1 -88 8 -37 16 -116 17 -183 1 -107 -1
-120 -18 -133 -22 -16 -54 -18 -74 -5 -15 9 -16 32 -10 261 4 157 -3 201 -33
227 -9 7 -20 8 -29 3 -11 -7 -9 -12 11 -28 23 -19 24 -26 24 -124 0 -56 -3
-155 -7 -219 -6 -96 -5 -119 8 -137 11 -16 23 -21 42 -18 15 2 37 5 49 5 32 1
51 37 58 109 7 62 -9 226 -26 271 -15 39 -2 61 36 61 61 0 68 -23 69 -235 1
-214 4 -222 76 -210 49 8 55 19 40 73 -6 23 -12 105 -15 183 -5 165 -13 226
-32 256 -19 28 -32 32 -68 20z"/>
<path d="M8368 901 c-30 -8 -37 -32 -20 -69 14 -30 17 -70 17 -207 0 -93 4
-182 9 -197 11 -36 84 -73 128 -64 38 8 58 -8 58 -45 0 -32 -28 -56 -82 -69
-89 -22 -122 -42 -138 -85 -16 -42 -12 -70 14 -98 31 -33 62 -26 81 19 12 28
27 40 92 69 87 40 106 54 139 107 21 32 40 119 42 185 0 11 8 62 16 112 20
112 21 290 3 315 -10 13 -24 17 -67 14 l-55 -3 3 -90 c1 -49 0 -141 -4 -202
l-6 -113 -32 0 c-32 0 -76 30 -76 53 -9 214 -26 353 -44 364 -12 8 -58 10 -78
4z m67 -32 c7 -7 13 -85 20 -254 6 -144 15 -160 95 -160 83 0 85 4 85 224 l0
189 33 -1 c26 -1 34 -6 39 -25 7 -28 -3 -222 -16 -307 -5 -33 -14 -100 -20
-148 -15 -120 -35 -156 -105 -190 -30 -15 -58 -27 -62 -27 -15 0 -94 -72 -94
-86 0 -22 -38 -17 -45 6 -4 12 -4 38 0 60 7 41 16 47 130 81 60 17 85 45 85
93 0 23 -4 46 -8 52 -4 6 -34 14 -66 17 -45 4 -66 12 -84 31 -25 25 -25 27
-24 179 1 108 -3 171 -13 211 -8 31 -15 58 -15 60 0 6 58 1 65 -5z"/>
<path d="M7310 885 c-9 -11 -10 -26 -3 -57 11 -50 11 -282 -1 -315 -6 -18 -15
-23 -40 -23 -54 0 -61 18 -62 159 -1 137 -12 193 -42 224 -18 18 -24 18 -71 6
-51 -13 -61 -25 -39 -47 16 -16 19 -132 7 -264 -9 -93 -8 -112 6 -143 21 -42
36 -46 202 -42 98 2 124 5 129 17 11 29 3 437 -10 478 -9 26 -56 31 -76 7z
m60 -248 c3 -122 4 -225 2 -229 -1 -4 -16 -2 -32 3 -19 7 -50 7 -90 1 -37 -5
-63 -5 -66 0 -3 5 -12 7 -20 4 -22 -8 -64 15 -69 38 -3 12 -4 95 -3 186 2 91
0 177 -5 193 -7 25 -5 27 22 27 35 0 38 -3 56 -74 10 -36 13 -90 10 -165 -4
-129 6 -152 65 -154 90 -3 101 26 96 245 -2 86 -1 160 2 163 20 20 27 -35 32
-238z"/>
<path d="M7484 885 c-3 -8 2 -22 11 -32 16 -16 17 -37 13 -233 -3 -118 -2
-225 3 -237 6 -18 16 -23 41 -23 42 0 51 7 68 50 16 39 20 253 6 326 l-8 42
43 4 c24 3 47 3 51 1 4 -2 7 -86 6 -186 -1 -161 1 -186 17 -210 15 -24 24 -28
57 -25 l39 3 3 220 c4 236 2 247 -47 294 -21 19 -32 22 -59 16 -18 -4 -68 -9
-110 -12 -74 -4 -99 -16 -60 -27 18 -5 92 -1 157 9 35 6 43 3 68 -23 l28 -29
-7 -211 c-6 -170 -10 -212 -21 -212 -26 0 -36 55 -37 223 -2 197 -3 197 -86
188 l-55 -6 2 -40 c10 -264 3 -355 -32 -369 -30 -11 -34 20 -32 234 1 197 0
218 -18 248 -21 35 -33 40 -41 17z"/>
<path d="M3527 858 c-6 -4 -35 -10 -64 -14 -29 -3 -53 -11 -53 -16 0 -7 21 -8
58 -4 171 19 176 19 201 -8 20 -21 23 -33 21 -98 -2 -40 -3 -126 -4 -191 -1
-113 -2 -117 -22 -117 -28 0 -37 45 -34 160 1 47 3 108 4 135 1 28 -2 60 -6
73 -11 31 -47 44 -75 26 -12 -8 -35 -14 -51 -14 -43 0 -53 -17 -41 -70 6 -25
8 -72 5 -105 -3 -33 -5 -91 -5 -128 -1 -75 -16 -94 -51 -62 -19 17 -19 28 -13
199 l6 182 -28 22 c-16 13 -33 21 -39 19 -21 -7 -15 -23 16 -40 l31 -18 -8
-142 c-15 -254 -15 -249 36 -262 45 -11 67 24 69 104 0 36 1 91 2 121 1 30 0
78 -2 105 -4 47 -3 50 20 53 14 2 35 8 48 14 17 9 28 9 40 1 15 -9 17 -29 14
-169 -2 -137 0 -164 15 -194 15 -30 22 -35 48 -32 17 2 38 10 47 19 14 13 15
19 4 51 -10 27 -11 66 -5 145 11 156 2 215 -36 247 -18 15 -127 21 -148 8z"/>
<path d="M4451 854 c-20 -14 -21 -24 -21 -165 0 -85 -5 -159 -10 -170 -12 -21
-52 -26 -67 -6 -10 12 -27 127 -38 252 -3 33 -12 66 -19 74 -15 14 -120 20
-133 7 -4 -3 3 -16 15 -29 28 -30 40 -97 34 -190 -7 -116 5 -205 33 -233 18
-18 30 -21 62 -17 46 6 60 -6 41 -36 -20 -32 -53 -41 -169 -42 -110 -2 -112
-2 -140 -32 -35 -36 -45 -70 -33 -106 14 -39 54 -36 74 5 l15 32 95 -1 c75 0
105 5 143 21 26 12 47 25 47 29 0 4 18 19 38 31 21 13 47 40 57 60 11 21 27
49 37 64 21 31 27 85 30 297 l3 144 -37 13 c-30 10 -39 10 -57 -2z m-172 -38
c7 -8 12 -31 11 -53 -1 -112 18 -260 36 -278 17 -17 80 -20 89 -5 4 6 11 8 16
5 21 -14 32 54 30 193 -2 121 0 143 14 148 33 13 47 -16 41 -81 -3 -33 -8
-114 -12 -180 -5 -108 -9 -126 -37 -183 -60 -121 -138 -165 -292 -166 -91 -1
-100 -3 -103 -21 -6 -30 -21 -42 -32 -25 -16 26 -11 56 15 84 23 25 29 26 126
26 57 0 116 5 133 11 36 13 65 47 69 81 2 20 -4 23 -51 31 -76 12 -81 23 -86
204 -4 102 -10 164 -20 188 l-15 35 28 0 c16 0 34 -6 40 -14z"/>
<path d="M2943 843 c-28 -5 -28 -11 -5 -36 15 -17 17 -42 17 -197 0 -163 2
-180 20 -200 16 -17 26 -20 50 -14 16 4 67 7 112 8 45 1 86 6 91 11 5 6 12 82
16 170 3 88 8 176 11 195 5 33 3 36 -36 54 -34 16 -43 16 -50 5 -5 -8 -7 -70
-5 -138 5 -166 -12 -222 -64 -206 -18 6 -20 14 -20 104 0 118 -20 197 -58 228
-27 23 -36 24 -79 16z m57 -33 c33 -18 46 -77 49 -227 1 -91 13 -113 60 -113
15 0 36 9 45 19 23 25 36 134 29 233 -5 66 -4 78 11 84 27 10 46 -14 40 -49
-3 -18 -8 -100 -11 -183 l-5 -151 -110 3 c-79 2 -113 6 -119 16 -5 7 -8 72 -8
145 0 72 -3 154 -7 182 -7 53 -4 57 26 41z"/>
<path d="M3975 839 c-16 -5 -65 -8 -107 -7 -42 2 -80 -1 -84 -5 -4 -4 -2 -19
5 -33 8 -18 11 -85 11 -208 -1 -99 1 -189 5 -198 9 -23 34 -27 66 -12 23 12
28 22 34 72 4 32 6 103 4 158 -1 54 -1 104 0 111 2 17 71 29 81 14 4 -7 5 -64
2 -126 -7 -180 10 -225 87 -225 54 0 67 19 44 62 -15 28 -18 58 -18 189 -1
131 -4 160 -18 182 -10 15 -23 27 -30 27 -6 0 -21 2 -32 5 -11 2 -33 -1 -50
-6z m76 -38 c23 -19 24 -23 24 -178 0 -87 4 -170 9 -185 7 -25 6 -28 -13 -28
-38 0 -51 53 -51 200 0 96 -3 132 -13 135 -7 3 -37 6 -67 8 l-55 2 0 -167 c0
-175 -5 -196 -43 -184 -18 6 -19 16 -18 205 l1 199 45 -4 c25 -3 59 -1 75 5
48 15 81 12 106 -8z"/>
<path d="M2178 830 c-49 -9 -62 -21 -88 -83 -32 -73 -35 -226 -5 -276 28 -47
65 -72 116 -78 45 -5 106 14 126 39 17 21 34 84 28 100 -13 34 -66 29 -85 -7
-18 -33 -46 -40 -76 -20 -21 13 -25 23 -22 53 l3 37 52 -3 c89 -6 123 26 123
115 0 35 -29 92 -54 108 -29 17 -74 23 -118 15z m129 -59 c25 -36 31 -98 13
-132 -9 -16 -22 -19 -73 -19 -64 0 -94 -12 -97 -40 -6 -46 2 -66 36 -88 42
-28 71 -21 100 23 18 27 22 29 43 16 11 -7 11 -16 1 -47 -16 -51 -34 -64 -89
-63 -96 1 -151 67 -151 182 0 87 16 150 46 182 22 23 30 26 86 23 58 -3 64 -5
85 -37z"/>
<path d="M2183 745 c-23 -23 -33 -42 -31 -57 3 -20 10 -24 63 -29 33 -3 63 -4
68 -2 13 7 7 78 -9 101 -22 31 -51 27 -91 -13z m82 -15 c9 -41 2 -47 -46 -46
-51 1 -59 17 -25 51 35 35 63 33 71 -5z"/>
<path d="M6064 788 c-61 -42 -82 -97 -83 -216 -1 -105 16 -144 78 -183 49 -32
92 -36 151 -16 60 21 105 134 65 167 -20 17 -50 4 -90 -38 l-35 -37 -29 30
c-16 17 -31 41 -33 55 -3 25 -2 25 76 25 76 0 80 1 96 27 13 22 15 40 9 82
-17 126 -105 171 -205 104z m152 -25 c25 -37 41 -102 34 -133 -6 -24 -10 -25
-93 -28 -68 -2 -89 -6 -94 -18 -10 -27 16 -92 48 -119 38 -31 62 -26 102 21
16 19 33 34 38 34 16 0 10 -52 -11 -85 -24 -39 -49 -47 -110 -35 -96 18 -134
107 -110 255 16 99 50 133 136 134 35 1 45 -4 60 -26z"/>
<path d="M6107 726 c-26 -24 -45 -71 -34 -83 11 -10 119 -3 133 8 21 17 17 47
-11 74 -30 31 -55 32 -88 1z m80 -26 c11 -23 10 -26 -10 -32 -70 -20 -98 1
-56 43 25 25 50 21 66 -11z"/>
<path d="M2606 714 c-3 -9 -6 -60 -6 -114 0 -118 8 -131 72 -123 84 11 118 52
118 138 -1 36 -14 54 -64 89 -45 30 -110 36 -120 10z m127 -39 c40 -38 46 -66
26 -123 -11 -31 -17 -35 -77 -47 -60 -12 -71 19 -56 153 7 50 8 52 38 52 23 0
43 -10 69 -35z"/>
<path d="M4661 484 c-37 -48 -19 -104 34 -104 47 0 79 62 59 114 -10 27 -69
20 -93 -10z m59 -40 c0 -28 -3 -35 -17 -32 -12 2 -19 14 -21 36 -3 27 0 32 17
32 17 0 21 -6 21 -36z"/>
<path d="M8805 458 c-46 -25 -59 -73 -28 -103 12 -12 25 -15 52 -10 43 8 47
11 55 50 11 50 -36 87 -79 63z m39 -51 c13 -35 -6 -57 -32 -41 -22 14 -27 41
-11 60 16 20 32 13 43 -19z"/>
</g>
</svg>
