<?xml version="1.0" standalone="no"?>
<!DOCTYPE svg PUBLIC "-//W3C//DTD SVG 20010904//EN"
 "http://www.w3.org/TR/2001/REC-SVG-20010904/DTD/svg10.dtd">
<svg version="1.0" xmlns="http://www.w3.org/2000/svg"
 width="1000.000000pt" height="238.000000pt" viewBox="0 0 1000.000000 238.000000"
 preserveAspectRatio="xMidYMid meet">
<metadata>
Created by potrace 1.16, written by Peter Selinger 2001-2019
</metadata>
<g transform="translate(0.000000,238.000000) scale(0.100000,-0.100000)"
fill="#000000" stroke="none">
<path d="M7555 2270 c-11 -5 -48 -35 -82 -68 -35 -33 -80 -72 -100 -88 -21
-15 -43 -35 -50 -44 -6 -8 -14 -12 -17 -9 -3 3 2 14 12 25 88 96 81 134 -8 44
-27 -27 -52 -55 -57 -63 -13 -20 -76 -56 -129 -72 -62 -19 -61 -19 -39 5 10
11 23 20 29 20 6 0 21 18 33 41 19 34 20 41 7 46 -9 3 -27 -5 -42 -20 -15 -14
-44 -32 -64 -41 -21 -8 -43 -26 -49 -40 -14 -30 -39 -42 -39 -19 0 10 12 27
28 39 15 12 24 25 21 28 -6 6 -71 -30 -157 -88 -23 -16 -45 -26 -49 -23 -3 4
2 9 11 13 9 3 16 10 16 15 0 5 -24 0 -52 -11 -61 -23 -61 -23 -53 -10 13 21
-20 9 -47 -17 -19 -19 -28 -22 -28 -12 0 8 16 30 35 49 19 18 32 37 28 42 -3
6 -22 -6 -42 -26 -41 -41 -67 -50 -31 -11 14 15 18 25 11 25 -7 0 -22 -11 -33
-25 -18 -23 -86 -65 -104 -65 -4 0 9 12 28 28 35 26 88 84 88 96 0 3 -30 -18
-67 -46 -83 -63 -136 -87 -188 -88 -22 0 -49 -7 -59 -15 -26 -20 -65 -19 -87
1 -20 18 -46 10 -30 -10 7 -8 4 -16 -10 -24 -17 -11 -20 -10 -17 5 2 10 -4 19
-14 21 -10 2 -18 -1 -18 -7 0 -6 5 -11 10 -11 23 0 8 -16 -25 -26 -19 -6 -32
-7 -30 -4 3 4 -2 13 -9 19 -11 9 -16 9 -22 0 -4 -7 -2 -15 4 -17 7 -2 12 -8
12 -13 0 -16 -30 -10 -59 12 -29 21 -61 23 -68 3 -2 -5 9 -15 24 -20 l28 -11
-27 -13 c-22 -10 -39 -11 -84 -1 -52 10 -60 9 -78 -8 -12 -10 -39 -24 -61 -31
-52 -16 -72 -35 -27 -27 17 4 32 3 32 -1 -1 -21 -20 -32 -56 -30 -50 1 -84 -9
-84 -28 0 -12 4 -12 21 -4 11 7 23 9 27 6 11 -12 -16 -28 -54 -33 -44 -5 -71
-23 -36 -23 23 0 30 -18 10 -24 -59 -18 -108 -40 -108 -48 0 -6 7 -8 15 -4 8
3 15 1 15 -4 0 -6 -12 -10 -26 -10 -18 0 -25 -5 -23 -17 3 -23 -19 -71 -45
-100 -24 -28 -16 -37 32 -36 l37 0 -34 -14 c-19 -8 -44 -12 -57 -9 -13 3 -26
2 -29 -4 -10 -17 -33 -11 -40 10 -9 29 -28 25 -21 -4 4 -17 1 -26 -10 -30 -22
-9 -22 -9 -39 24 -17 33 -36 33 -28 0 8 -29 -24 -26 -49 5 -22 28 -39 25 -31
-5 8 -29 -17 -25 -45 8 l-23 27 6 -27 c4 -24 2 -28 -15 -28 -12 0 -32 12 -45
26 l-25 27 -8 -22 -8 -22 -28 22 c-20 16 -30 19 -35 10 -6 -9 -11 -8 -21 4
-19 23 -40 18 -40 -10 0 -16 -6 -25 -15 -25 -8 0 -15 5 -15 10 0 6 5 10 10 10
6 0 10 9 10 19 0 11 -4 23 -10 26 -5 3 -10 -3 -10 -14 0 -28 -40 -39 -57 -15
-7 10 -13 26 -13 35 0 26 -17 32 -29 12 -10 -17 -11 -16 -17 5 -4 14 -12 21
-20 18 -8 -3 -14 1 -14 9 0 8 -4 15 -10 15 -5 0 -10 -4 -10 -10 0 -20 -33 -9
-60 20 -15 16 -32 30 -38 30 -5 0 -15 7 -22 15 -7 8 -28 17 -49 21 -20 4 -61
19 -91 34 -30 14 -75 32 -100 39 -25 7 -55 17 -68 22 -60 23 -277 3 -449 -42
-65 -17 -122 -32 -128 -33 -58 -14 -115 -33 -190 -61 -50 -19 -158 -57 -240
-84 -83 -28 -168 -57 -190 -65 -145 -55 -400 -140 -454 -152 -35 -7 -74 -20
-87 -29 -13 -8 -32 -15 -44 -15 -26 0 -26 -16 0 -30 22 -12 81 -1 145 26 22 9
69 25 105 34 36 10 106 30 157 45 134 39 159 30 58 -22 -110 -57 -123 -67
-107 -86 15 -18 24 -15 192 65 58 27 121 52 140 55 l35 6 -32 -32 c-18 -17
-40 -31 -48 -31 -17 0 -20 -16 -6 -25 5 -3 42 10 83 28 98 45 119 50 218 52
47 0 93 5 103 9 9 5 17 4 17 -1 0 -5 -19 -15 -42 -23 -24 -8 -43 -19 -42 -25
1 -17 36 -18 69 -3 100 47 127 58 195 78 119 36 230 59 235 49 3 -5 -10 -15
-30 -23 -45 -19 -38 -39 8 -24 64 20 97 26 97 18 0 -5 -16 -14 -35 -20 -41
-14 -47 -34 -7 -26 72 13 124 17 118 8 -3 -5 -37 -20 -76 -32 -38 -12 -70 -25
-70 -27 0 -3 23 -2 50 2 29 4 56 3 63 -3 29 -23 127 -24 127 -1 0 5 -11 9 -25
9 -14 0 -25 4 -25 9 0 5 37 11 83 14 108 8 156 16 191 33 33 16 66 18 66 5 0
-5 -18 -11 -40 -15 -21 -3 -43 -13 -48 -22 -7 -13 -29 -18 -86 -22 -82 -5
-103 -16 -62 -32 27 -10 33 -24 15 -35 -16 -11 -25 5 -9 16 11 7 6 8 -15 3
-16 -4 -36 -14 -44 -22 -13 -13 -11 -18 14 -38 29 -23 36 -23 85 -6 10 4 9 -2
-5 -18 l-20 -23 23 7 c14 5 22 3 22 -4 0 -7 8 -9 21 -5 15 5 19 4 15 -4 -4 -6
-14 -11 -22 -11 -8 0 -14 -4 -14 -10 0 -6 9 -6 26 0 33 13 87 13 79 0 -3 -6
-14 -10 -23 -10 -23 0 -48 -17 -39 -26 3 -4 13 -1 22 6 8 7 24 10 35 7 13 -3
20 0 20 9 0 8 4 14 9 14 4 0 6 -10 4 -22 -7 -32 -118 -104 -197 -128 -35 -11
-66 -26 -69 -34 -5 -13 -147 -86 -168 -86 -6 0 -34 -11 -62 -24 -29 -13 -70
-29 -91 -36 -22 -7 -53 -21 -70 -30 -17 -10 -85 -39 -151 -65 -81 -32 -130
-58 -154 -81 -19 -18 -32 -36 -29 -39 3 -4 40 7 82 23 114 45 150 26 79 -43
l-36 -35 34 0 c21 1 49 11 74 30 54 39 159 100 173 100 26 0 9 -27 -38 -60
-27 -19 -50 -38 -50 -42 0 -12 58 -10 81 2 13 7 31 8 55 1 54 -15 234 31 234
61 0 4 5 8 11 8 6 0 32 18 58 40 45 38 71 50 71 32 0 -5 -45 -52 -100 -106
-55 -53 -98 -101 -95 -106 14 -22 60 -9 97 27 42 41 54 26 17 -21 -22 -28 -18
-49 9 -39 19 7 32 20 84 85 45 55 60 91 52 122 -4 19 1 26 31 40 20 10 40 28
45 40 10 27 75 86 95 86 38 0 203 102 272 168 17 16 31 20 49 16 13 -3 24 -9
24 -13 0 -8 -67 -51 -79 -51 -14 0 -21 -44 -8 -53 8 -6 7 -7 -4 -4 -17 6 -88
-58 -77 -68 3 -3 11 1 18 10 7 8 19 15 28 15 13 0 12 -3 -3 -20 -10 -11 -15
-23 -12 -27 4 -4 14 2 22 13 14 18 14 18 15 -8 0 -15 -5 -30 -11 -34 -7 -4 -8
-19 -4 -38 3 -17 12 -70 19 -118 8 -52 20 -94 30 -103 20 -20 12 -35 -18 -35
-25 0 -86 -58 -86 -82 0 -18 24 -41 33 -31 4 3 7 19 7 34 0 32 28 53 50 39 12
-8 12 -17 2 -57 -12 -47 -23 -61 -73 -94 -35 -24 -16 -35 23 -12 30 17 53 51
75 108 6 17 8 15 11 -11 4 -43 -13 -83 -43 -94 -25 -10 -35 -30 -14 -30 25 0
77 66 84 108 7 44 25 58 25 20 0 -30 -22 -91 -39 -112 -18 -21 -6 -33 14 -16
47 39 60 132 29 205 -17 38 -23 69 -39 180 -4 28 -14 64 -23 82 -13 26 -13 34
-3 47 8 9 20 16 27 16 8 0 20 15 28 33 14 32 14 32 15 5 1 -15 -3 -29 -9 -33
-5 -3 -6 -13 -3 -22 6 -14 8 -14 20 3 7 10 13 31 13 46 0 18 6 31 18 35 9 4
20 11 24 17 6 9 97 10 106 1 2 -2 -10 -24 -28 -49 -34 -50 -24 -64 12 -16 12
16 31 33 42 36 12 3 30 14 41 24 25 22 85 43 85 29 0 -5 -7 -9 -15 -9 -17 0
-33 -11 -73 -51 -15 -15 -34 -29 -42 -33 -8 -3 -1 -4 15 -1 28 5 29 4 11 -10
-11 -8 -32 -26 -47 -39 l-28 -25 24 -43 c13 -24 28 -65 34 -93 5 -27 14 -68
20 -90 9 -34 8 -42 -7 -53 -42 -31 -52 -43 -52 -64 0 -20 3 -19 28 12 17 20
33 30 40 26 14 -9 16 -42 2 -51 -8 -5 -60 -100 -60 -111 0 -2 4 -4 9 -4 6 0
25 27 44 60 32 57 47 67 47 31 0 -9 -19 -44 -41 -79 -23 -35 -38 -66 -35 -69
10 -10 30 16 66 82 l32 60 -6 -42 c-7 -49 8 -59 24 -17 13 32 4 90 -19 124
-16 25 -35 92 -50 180 -5 25 -13 58 -20 73 -18 44 -13 57 23 72 19 8 38 19 41
25 4 6 11 8 16 5 5 -4 12 1 15 9 8 21 26 20 22 0 -2 -10 3 -19 10 -21 7 -3 12
5 12 22 0 30 16 65 39 82 23 18 33 16 26 -6 -3 -11 -1 -22 5 -26 7 -4 14 2 17
14 7 27 23 27 23 1 0 -11 5 -20 10 -20 6 0 10 6 10 14 0 20 28 46 48 46 12 0
13 -3 4 -12 -14 -14 -16 -38 -3 -38 5 0 13 10 17 23 7 26 33 57 46 57 5 0 7
-14 3 -31 -5 -22 -4 -29 4 -25 6 4 11 13 11 19 0 19 13 34 38 41 20 7 21 5 12
-18 -6 -17 -6 -26 0 -26 6 0 13 14 17 30 3 17 10 30 15 30 6 0 23 10 40 21 22
16 32 19 41 10 8 -8 8 -14 -1 -23 -17 -17 -15 -31 4 -24 11 4 8 -5 -11 -29
-38 -51 -26 -54 14 -4 19 22 37 37 41 32 4 -4 18 -35 31 -68 26 -67 82 -135
110 -135 11 0 19 -7 19 -15 0 -22 27 -18 44 7 9 12 19 38 22 58 4 19 10 40 14
45 9 13 36 92 44 127 5 22 2 27 -16 30 -19 2 -24 10 -26 41 -4 46 15 50 30 6
8 -22 13 -27 19 -18 6 11 11 10 23 -6 23 -32 30 -10 11 37 -9 24 -19 49 -22
55 -3 8 3 13 13 13 16 0 16 2 4 10 -12 8 -12 10 3 16 16 6 16 7 1 18 -13 10
-14 17 -5 34 8 14 8 22 1 22 -14 0 -13 27 3 34 10 5 10 7 0 12 -19 8 -16 45 5
61 15 12 14 13 -10 7 -24 -5 -28 -3 -28 14 0 12 5 24 10 27 19 12 10 26 -12
20 -15 -6 -20 -4 -15 6 3 8 8 22 12 32 4 10 3 17 -3 17 -6 0 -16 -8 -21 -17
-10 -17 -10 -16 -11 2 0 13 21 37 57 65 32 25 97 81 145 125 114 105 152 135
173 135 9 0 34 15 55 33 21 17 53 39 72 48 65 33 188 60 285 65 54 3 126 6
160 8 36 2 73 10 87 20 14 9 38 16 54 16 36 0 188 77 260 133 95 72 310 299
312 328 0 12 -25 17 -45 9z m-109 -145 c-37 -32 -46 -32 -16 0 13 14 28 25 34
25 6 0 -2 -11 -18 -25z m-216 -135 c0 -5 -7 -10 -16 -10 -8 0 -12 5 -9 10 3 6
10 10 16 10 5 0 9 -4 9 -10z m-132 -75 c-42 -29 -88 -48 -88 -37 1 12 84 61
105 62 15 0 11 -6 -17 -25z m-213 -14 c-3 -5 -21 -15 -41 -21 -23 -8 -34 -17
-30 -25 5 -15 -55 -40 -77 -32 -6 2 3 7 22 12 23 5 30 10 20 15 -9 6 2 16 37
33 52 26 79 33 69 18z m240 -11 c-3 -5 -11 -10 -16 -10 -6 0 -7 5 -4 10 3 6
11 10 16 10 6 0 7 -4 4 -10z m-435 -8 c0 -4 -23 -17 -50 -30 -28 -13 -62 -34
-77 -48 -30 -28 -33 -29 -59 -9 -26 19 -46 19 -70 -3 -11 -10 -31 -22 -46 -25
-30 -8 -43 -34 -27 -53 9 -11 5 -16 -16 -24 -34 -13 -32 -14 -31 11 1 12 -5
24 -13 27 -10 3 -12 -2 -7 -22 3 -14 2 -26 -2 -26 -5 0 -39 -23 -76 -50 -36
-28 -66 -49 -66 -47 0 2 5 18 11 36 9 25 17 31 39 31 26 0 40 15 40 41 0 12
-39 2 -60 -16 -8 -7 -28 -15 -44 -19 -24 -6 -28 -4 -22 10 4 11 2 15 -8 11 -9
-4 -17 2 -21 14 -4 10 -11 17 -16 13 -6 -3 -8 -12 -5 -20 4 -10 -3 -13 -27
-11 -18 1 -32 -2 -32 -8 0 -5 9 -8 21 -7 11 2 28 -6 37 -16 12 -13 26 -17 42
-14 18 3 25 0 25 -12 0 -10 -9 -16 -25 -16 -30 0 -33 -16 -4 -23 12 -3 19 -11
16 -19 -5 -15 -48 -13 -58 3 -5 8 -13 8 -28 0 -26 -14 -27 -31 -2 -31 28 0 52
-11 45 -21 -3 -5 -30 -9 -60 -9 -35 0 -53 -4 -49 -10 4 -6 11 -8 16 -4 17 10
39 -4 32 -22 -5 -13 -14 -15 -49 -9 -29 4 -44 2 -44 -4 0 -6 6 -11 13 -11 17
0 57 -34 57 -47 0 -6 -7 -16 -15 -23 -12 -10 -15 -10 -15 2 0 18 -55 38 -134
49 -76 11 -65 11 -170 2 -67 -7 -92 -6 -105 4 -15 12 -14 14 3 28 21 16 39 17
204 17 61 0 102 4 102 10 0 6 14 8 30 6 19 -3 29 -1 27 6 -2 6 -23 12 -48 14
-74 4 -89 10 -89 36 0 20 8 26 46 35 38 10 48 9 58 -3 6 -8 25 -17 42 -21 26
-5 37 -1 65 24 l33 31 -27 0 c-15 0 -30 -6 -33 -14 -4 -11 -13 -12 -40 -5 -20
6 -59 6 -96 1 -35 -4 -74 -5 -88 -2 l-25 6 23 13 c33 18 116 25 151 13 17 -6
31 -8 31 -3 0 9 -61 31 -88 31 -27 0 -152 -51 -152 -62 0 -4 -8 -8 -17 -8 -15
1 -13 4 7 20 14 11 31 25 39 32 23 20 121 48 170 49 25 1 38 3 29 6 -10 2 -18
10 -18 17 0 23 226 40 290 22 21 -6 26 -3 27 12 1 15 -7 21 -35 26 -56 9 -137
7 -148 -3 -5 -5 -31 -12 -59 -15 -41 -4 -45 -3 -25 6 14 5 34 15 45 21 18 10
73 22 150 33 17 2 36 6 43 9 7 3 10 0 7 -5 -3 -6 -13 -10 -21 -10 -8 0 -14 -4
-14 -9 0 -5 35 -11 78 -14 42 -3 88 -9 101 -13 16 -5 22 -4 18 4 -4 5 -36 21
-72 33 -60 22 -63 24 -42 36 27 15 57 17 57 3 0 -5 10 -10 23 -10 12 0 35 -7
51 -15 33 -17 45 -13 27 9 -14 17 -2 21 84 29 41 4 47 3 32 -7 -9 -7 -14 -16
-10 -19 14 -14 51 -6 94 21 62 40 99 53 99 34z m310 -6 c0 -2 -7 -6 -15 -10
-8 -3 -15 -1 -15 4 0 6 7 10 15 10 8 0 15 -2 15 -4z m75 -25 c-3 -6 -11 -11
-17 -11 -6 0 -6 6 2 15 14 17 26 13 15 -4z m-748 3 c-3 -3 -12 -4 -19 -1 -8 3
-5 6 6 6 11 1 17 -2 13 -5z m593 -24 c0 -5 -19 -10 -42 -10 -32 0 -39 3 -28
10 20 13 70 13 70 0z m-260 -30 c0 -5 -12 -10 -27 -10 -22 0 -25 2 -13 10 20
13 40 13 40 0z m297 4 c-3 -3 -12 -4 -19 -1 -8 3 -5 6 6 6 11 1 17 -2 13 -5z
m-1067 -59 c0 -9 -11 -20 -24 -25 -13 -5 -25 -13 -27 -19 -5 -14 -59 -26 -59
-13 0 6 9 14 20 17 11 3 20 11 20 16 0 6 -6 7 -12 3 -7 -4 -9 -3 -5 2 7 7 61
30 80 33 4 0 7 -6 7 -14z m-1883 -141 c-3 -3 -12 -4 -19 -1 -8 3 -5 6 6 6 11
1 17 -2 13 -5z m2233 -8 c0 -9 -30 -14 -35 -6 -4 6 3 10 14 10 12 0 21 -2 21
-4z m-2112 -25 c10 -6 4 -10 -18 -15 -48 -9 -96 -8 -84 3 8 8 23 12 79 19 6 1
16 -2 23 -7z m102 -17 c0 -2 -13 -4 -30 -4 -20 0 -30 5 -30 14 0 12 6 13 30 5
17 -6 30 -13 30 -15z m-255 -4 c-3 -5 -12 -10 -20 -10 -8 0 -17 5 -20 10 -4 6
5 10 20 10 15 0 24 -4 20 -10z m1785 -5 c0 -10 -10 -15 -29 -15 -15 0 -56 -9
-91 -20 -34 -11 -66 -17 -71 -15 -13 9 2 35 20 35 10 0 26 7 37 15 27 20 134
21 134 0z m382 -27 c-7 -7 -12 -8 -12 -2 0 14 12 26 19 19 2 -3 -1 -11 -7 -17z
m-1966 3 c-3 -4 -33 -14 -66 -21 -33 -7 -58 -15 -56 -18 3 -2 26 1 52 7 25 7
49 10 51 7 6 -6 -59 -24 -112 -32 -32 -4 -37 -3 -25 6 12 10 10 11 -10 6 -14
-3 -32 -6 -40 -7 -8 0 -4 -4 9 -8 13 -3 -11 -7 -58 -8 -78 -1 -109 8 -74 21
15 6 15 9 3 17 -12 9 -11 9 5 4 50 -17 85 -18 85 -2 0 17 21 27 57 27 33 0 24
-10 -19 -21 -24 -6 -19 -7 21 -2 30 3 73 11 95 18 48 15 89 18 82 6z m274 -17
c14 -15 12 -16 -19 -10 -19 3 -39 2 -45 -3 -6 -4 -42 -11 -81 -15 -38 -3 -91
-9 -117 -12 -30 -4 -48 -3 -48 4 0 14 144 45 191 40 29 -3 39 0 39 10 0 19 59
8 80 -14z m-655 -23 c-8 -13 -45 -15 -45 -2 0 5 10 11 23 13 27 5 31 3 22 -11z
m1708 -17 c-9 -15 -19 -21 -21 -15 -4 13 16 41 29 41 5 0 2 -12 -8 -26z
m-2069 -10 c-28 -13 -66 -26 -85 -29 l-34 -6 30 14 c38 18 117 46 130 45 6 0
-13 -11 -41 -24z m1131 0 c82 -58 238 -155 267 -168 18 -7 41 -20 51 -28 17
-12 12 -16 -52 -32 -39 -10 -71 -22 -71 -27 0 -5 5 -9 12 -9 9 0 9 -3 1 -11
-12 -12 -227 -14 -245 -3 -14 9 2 24 26 24 16 0 26 7 29 21 5 18 11 20 34 15
15 -4 39 -8 53 -9 14 -1 28 -6 31 -10 6 -8 128 19 139 30 5 5 -60 -5 -92 -14
-10 -2 -18 0 -18 6 0 6 8 11 18 12 14 0 14 2 -3 9 -11 5 -14 9 -7 9 6 1 12 6
12 11 0 6 -19 10 -42 10 -42 0 -44 13 -3 23 11 3 -13 3 -52 0 -51 -4 -73 -2
-73 6 0 10 21 15 57 14 7 -1 10 4 7 9 -3 5 -19 6 -35 3 -46 -10 -34 11 14 23
l42 11 -50 -3 c-27 -1 -58 -6 -67 -10 -11 -5 -18 -4 -18 3 0 6 18 14 41 17 23
4 36 10 29 14 -7 4 -20 5 -30 3 -12 -3 -19 3 -24 19 -4 14 -9 19 -13 12 -5 -6
-30 -14 -57 -18 -27 -3 -57 -13 -66 -21 -24 -21 -60 -19 -60 3 0 21 68 49 95
38 9 -3 13 -2 10 4 -3 6 -23 10 -43 10 -35 1 -36 1 -17 16 29 22 131 15 170
-12z m-945 7 c0 -12 -88 -38 -160 -47 -75 -9 -57 4 42 31 93 26 118 29 118 16z
m50 -21 c0 -5 -4 -10 -10 -10 -5 0 -10 5 -10 10 0 6 5 10 10 10 6 0 10 -4 10
-10z m109 -9 c12 -8 8 -11 -15 -16 -16 -3 -45 -14 -64 -24 -19 -10 -50 -22
-68 -26 -18 -3 -45 -13 -60 -21 -16 -8 -44 -16 -63 -19 -19 -3 -27 -2 -19 1
58 24 99 47 95 54 -3 4 28 18 68 30 39 11 77 23 82 25 17 6 30 5 44 -4z m-184
-10 c-15 -14 -95 -40 -95 -31 0 5 19 15 43 23 51 19 65 20 52 8z m-310 -11 c3
-6 -4 -10 -17 -10 -18 0 -20 2 -8 10 19 12 18 12 25 0z m954 6 c-10 -9 -79
-14 -74 -5 4 5 22 9 42 9 20 0 34 -2 32 -4z m1537 -17 c3 -5 29 -9 57 -9 61 0
91 -14 67 -30 -8 -5 -19 -10 -25 -11 -5 0 -23 -2 -40 -4 -16 -2 -35 1 -43 7
-8 7 -41 11 -75 10 -34 -1 -78 2 -97 7 -33 8 -31 9 22 10 45 1 59 5 67 20 7
13 18 17 36 13 14 -2 28 -8 31 -13z m-2380 4 c-4 -4 -32 -15 -64 -25 -98 -30
-115 -20 -20 13 55 18 97 24 84 12z m454 -10 c0 -17 -120 -66 -190 -78 -41 -7
-86 -16 -100 -20 -56 -14 -95 -18 -85 -8 16 17 294 103 310 97 8 -4 15 -1 15
5 0 6 11 11 25 11 14 0 25 -3 25 -7z m-655 -13 c-27 -12 -43 -12 -25 0 8 5 22
9 30 9 10 0 8 -3 -5 -9z m845 2 c0 -12 -99 -41 -157 -45 -48 -4 -51 -3 -44 17
5 13 20 23 42 27 51 9 159 10 159 1z m487 -32 c2 0 3 -9 3 -19 0 -12 9 -21 25
-25 14 -4 25 -13 25 -20 0 -12 6 -12 30 -3 34 13 53 1 27 -18 -20 -14 -94 -28
-107 -20 -5 3 -7 12 -3 20 4 11 -2 15 -22 15 -14 0 -24 4 -21 9 3 5 16 7 29 3
21 -5 21 -5 4 15 -11 13 -26 19 -41 16 -28 -6 -43 12 -26 32 8 10 19 11 43 4
18 -5 33 -9 34 -9z m1028 10 c-3 -5 -14 -10 -23 -10 -15 0 -15 2 -2 10 20 13
33 13 25 0z m-1375 -17 c0 -9 -18 -13 -59 -13 -32 0 -72 -5 -89 -11 -50 -17
-61 -3 -14 17 50 22 162 27 162 7z m-1096 -8 c-4 -10 0 -15 11 -15 9 0 13 -4
10 -10 -3 -5 -15 -10 -26 -10 -11 0 -17 5 -14 10 4 6 -6 10 -22 11 l-28 1 30
13 c39 18 46 18 39 0z m2561 5 c-3 -5 -30 -10 -58 -9 -38 0 -47 3 -32 9 29 12
98 12 90 0z m-2215 -10 c0 -5 -37 -20 -82 -34 -117 -34 -168 -45 -168 -36 0
12 99 49 150 56 25 4 52 10 60 15 20 11 40 11 40 -1z m834 -12 c-3 -13 -8 -24
-9 -26 -1 -2 -42 -7 -91 -12 -103 -11 -135 2 -48 20 33 6 68 14 79 18 11 3 26
7 33 8 8 1 16 5 20 8 13 14 23 4 16 -16z m1616 -4 c0 -8 -4 -12 -10 -9 -5 3
-10 10 -10 16 0 5 5 9 10 9 6 0 10 -7 10 -16z m-2880 0 c0 -8 -91 -46 -97 -40
-3 3 5 9 18 15 13 5 35 13 49 19 31 13 30 13 30 6z m180 2 c0 -3 -4 -8 -10
-11 -5 -3 -10 -1 -10 4 0 6 5 11 10 11 6 0 10 -2 10 -4z m575 -5 c-6 -5 -23
-12 -40 -15 l-30 -6 30 14 c35 18 54 20 40 7z m1995 -1 c12 -8 11 -10 -7 -10
-13 0 -23 5 -23 10 0 13 11 13 30 0z m-740 -19 c0 -5 -3 -11 -7 -14 -5 -2 -1
-2 7 1 8 3 29 7 45 9 23 3 27 2 15 -6 -8 -6 -23 -11 -33 -11 -11 0 -17 -6 -14
-12 4 -15 72 -18 100 -5 22 10 60 -1 51 -15 -3 -5 -17 -7 -29 -4 -13 3 -25 1
-27 -5 -10 -29 -168 -17 -168 12 0 12 7 11 30 -1 13 -7 21 -7 26 2 4 6 3 13
-2 15 -5 2 -16 8 -24 13 -13 9 -13 11 0 20 19 12 30 13 30 1z m336 -16 c-3
-10 1 -15 13 -15 31 0 32 -13 4 -42 -15 -15 -21 -28 -15 -28 7 0 12 4 12 8 0
12 53 40 67 35 7 -2 9 -11 6 -19 -6 -16 12 -19 22 -4 3 6 23 10 43 10 33 -1
35 -2 20 -14 -30 -22 -20 -29 11 -7 35 25 61 27 61 5 0 -13 3 -14 15 -4 8 6
23 9 34 5 23 -7 39 14 20 26 -19 12 -8 11 29 -2 22 -7 29 -15 25 -26 -5 -12
-1 -14 16 -8 15 5 23 2 28 -12 7 -21 43 -63 53 -63 4 0 6 12 3 28 -2 20 1 17
12 -13 9 -22 16 -55 17 -72 1 -37 9 -41 32 -17 12 12 16 12 16 2 0 -18 -36
-39 -55 -32 -9 4 -15 0 -15 -10 0 -10 6 -13 15 -10 18 7 20 -7 4 -23 -15 -15
-3 -33 23 -33 15 0 18 -4 13 -17 -4 -10 -11 -30 -17 -45 -5 -15 -18 -30 -28
-33 -17 -6 -18 -9 -3 -50 8 -24 13 -52 11 -62 -3 -10 -12 7 -22 42 -10 33 -22
64 -26 69 -5 4 1 24 11 43 16 29 17 34 5 30 -9 -4 -16 -2 -16 3 0 6 5 10 12
10 6 0 8 3 5 6 -4 4 -13 2 -20 -5 -18 -15 -47 -4 -40 15 4 10 -1 13 -18 10
-13 -3 -26 -5 -28 -5 -9 -2 39 -41 49 -41 7 0 5 -7 -4 -16 -17 -16 -21 -34 -9
-34 4 0 18 12 31 28 l23 27 -7 -25 c-4 -14 -11 -26 -15 -28 -5 -2 -9 -12 -9
-22 0 -9 -7 -23 -15 -30 -13 -11 -15 -8 -15 16 0 22 -3 25 -12 16 -32 -32 -39
7 -7 41 l20 22 -26 3 c-21 3 -25 7 -19 24 5 18 3 20 -25 16 -35 -5 -37 -3 -16
18 14 15 21 64 9 64 -15 0 -42 -47 -38 -66 4 -15 -2 -26 -22 -39 -26 -17 -27
-17 -20 0 6 15 2 17 -29 12 -19 -3 -37 -1 -41 4 -3 5 -9 7 -13 5 -4 -3 -7 12
-8 32 0 20 2 31 4 25 6 -15 33 -17 33 -3 0 6 9 10 20 10 13 0 20 -7 20 -20 0
-25 16 -26 30 -1 14 28 13 44 -4 38 -8 -3 -17 1 -20 8 -3 9 -12 12 -22 8 -9
-3 -20 0 -24 7 -6 10 -10 8 -18 -7 -9 -16 -20 -19 -84 -17 -40 1 -77 3 -81 3
-5 1 -5 11 -2 22 5 15 3 20 -6 17 -8 -3 -15 -14 -17 -26 -2 -12 -7 -22 -11
-22 -4 0 -29 -14 -56 -32 -33 -22 -50 -28 -53 -20 -3 9 -14 5 -37 -13 -36 -27
-45 -30 -45 -17 0 5 12 15 27 23 15 8 35 22 45 32 10 9 27 17 38 17 10 0 24 9
30 20 14 27 -2 26 -39 -1 -20 -14 -36 -19 -51 -14 -20 6 -21 7 -3 21 10 7 13
14 6 14 -24 0 -43 -13 -43 -30 0 -11 -14 -23 -37 -33 -44 -18 -53 -14 -30 11
40 44 5 43 -40 0 -25 -24 -33 -28 -33 -15 0 9 6 17 13 18 9 0 9 2 -1 6 -7 3
-25 -5 -38 -18 -21 -19 -27 -21 -34 -9 -5 8 -6 18 -4 22 15 23 -91 -22 -137
-59 -14 -10 -69 -27 -69 -20 0 2 19 24 43 49 33 34 52 45 75 46 36 1 81 21 49
22 -10 0 -16 4 -13 8 3 5 -15 9 -39 9 -36 0 -45 -4 -43 -16 2 -12 -5 -15 -30
-13 -18 1 -43 -3 -55 -10 -12 -6 -53 -15 -92 -20 -38 -4 -90 -10 -115 -14 -34
-5 -42 -3 -34 6 6 6 42 15 80 20 122 16 170 30 193 56 18 20 28 24 54 19 33
-7 37 -4 101 64 19 21 19 21 -15 22 l-34 2 40 7 c22 4 52 12 68 18 18 8 35 8
53 2 37 -14 95 -12 144 5 32 11 46 12 56 4 11 -9 14 -7 14 11 0 19 4 21 26 16
22 -6 25 -4 20 9 -4 13 -1 15 14 10 12 -4 20 -2 20 6 0 9 4 8 15 -1 8 -7 16
-10 16 -6 1 3 3 11 4 16 1 6 3 12 4 15 0 3 6 5 12 5 6 0 9 -7 5 -15z m374 5
c0 -5 -9 -10 -19 -10 -11 0 -23 5 -26 10 -4 6 5 10 19 10 14 0 26 -4 26 -10z
m200 -6 c0 -8 -4 -12 -10 -9 -5 3 -10 10 -10 16 0 5 5 9 10 9 6 0 10 -7 10
-16z m-1883 0 c-3 -3 -12 -4 -19 -1 -8 3 -5 6 6 6 11 1 17 -2 13 -5z m323 -4
c0 -5 -4 -10 -10 -10 -5 0 -10 5 -10 10 0 6 5 10 10 10 6 0 10 -4 10 -10z
m1090 -9 c0 -11 -26 -22 -34 -14 -12 12 -5 23 14 23 11 0 20 -4 20 -9z m-770
-5 c0 -3 -4 -8 -10 -11 -5 -3 -10 -1 -10 4 0 6 5 11 10 11 6 0 10 -2 10 -4z
m890 -6 c0 -5 -7 -10 -16 -10 -8 0 -12 5 -9 10 3 6 10 10 16 10 5 0 9 -4 9
-10z m60 -4 c0 -3 -4 -8 -10 -11 -5 -3 -10 -1 -10 4 0 6 5 11 10 11 6 0 10 -2
10 -4z m95 -6 c3 -5 1 -10 -4 -10 -6 0 -11 5 -11 10 0 6 2 10 4 10 3 0 8 -4
11 -10z m-1605 -4 c0 -2 -9 -6 -20 -9 -11 -3 -20 -1 -20 4 0 5 9 9 20 9 11 0
20 -2 20 -4z m809 -10 c9 -11 5 -15 -20 -20 -17 -3 -43 -6 -58 -5 -24 1 -22 2
14 20 48 22 50 23 64 5z m-496 -41 c-2 -13 -38 -23 -83 -24 l-35 -1 27 14 c48
25 95 31 91 11z m72 -18 c22 -17 15 -22 -55 -35 -71 -14 -123 -18 -136 -10 -5
4 -16 3 -24 -3 -8 -5 -26 -9 -39 -9 -20 0 -22 2 -11 15 8 10 28 15 59 14 53
-2 158 18 166 32 8 12 18 11 40 -4z m325 -37 c0 -5 -3 -10 -7 -10 -5 0 -19 -3
-33 -6 l-25 -5 25 15 c30 18 40 20 40 6z m1090 -6 c0 -8 -5 -12 -10 -9 -6 4
-8 11 -5 16 9 14 15 11 15 -7z m-1354 -5 c4 -7 19 -8 37 -5 19 4 28 3 22 -3
-11 -10 -103 -31 -135 -31 -31 0 -24 18 13 34 40 18 54 19 63 5z m119 1 c-3
-5 -13 -10 -21 -10 -8 0 -14 5 -14 10 0 6 9 10 21 10 11 0 17 -4 14 -10z m65
-11 c0 -6 -9 -13 -20 -16 -11 -3 -20 -11 -20 -17 0 -16 -84 -35 -185 -43 -92
-6 -96 10 -5 26 94 17 154 32 185 46 37 18 45 18 45 4z m-430 -29 c0 -5 -5
-10 -11 -10 -5 0 -7 5 -4 10 3 6 8 10 11 10 2 0 4 -4 4 -10z m125 -10 c-3 -5
-13 -10 -21 -10 -8 0 -12 5 -9 10 3 6 13 10 21 10 8 0 12 -4 9 -10z m1489 -19
c3 -4 -4 -17 -16 -27 -12 -11 -19 -14 -16 -9 3 6 8 18 11 28 7 19 13 21 21 8z
m36 -16 c0 -8 -4 -15 -10 -15 -5 0 -7 7 -4 15 4 8 8 15 10 15 2 0 4 -7 4 -15z
m-560 -35 c-8 -5 -11 -13 -6 -17 4 -4 13 -1 19 8 7 8 19 18 28 21 12 5 15 -2
15 -36 -1 -41 -11 -56 -51 -70 -14 -4 -11 1 10 18 33 28 25 34 -15 11 -14 -8
-38 -14 -53 -15 -25 0 -27 2 -17 20 8 16 8 20 -4 20 -8 0 -18 -4 -21 -10 -8
-12 -45 -13 -45 -1 0 5 16 12 37 16 20 3 52 17 72 30 19 14 37 22 40 19 3 -3
-1 -9 -9 -14z m-660 -17 c0 -11 -6 -14 -22 -9 -13 3 -30 6 -38 6 -9 1 -5 6 9
14 29 16 51 11 51 -11z m395 7 c3 -5 -1 -10 -10 -10 -9 0 -13 5 -10 10 3 6 8
10 10 10 2 0 7 -4 10 -10z m825 0 c0 -5 -7 -10 -16 -10 -8 0 -12 5 -9 10 3 6
10 10 16 10 5 0 9 -4 9 -10z m-76 -15 c-6 -16 -24 -21 -24 -7 0 11 11 22 21
22 5 0 6 -7 3 -15z m-1022 -3 c-22 -15 -2 -39 37 -46 20 -3 66 -3 102 -1 59 5
62 4 45 -10 -11 -8 -33 -15 -49 -15 -15 0 -37 -5 -48 -10 -11 -6 -25 -8 -31
-4 -8 5 -5 10 8 15 14 6 10 8 -16 7 -36 -1 -90 16 -90 28 0 12 32 44 44 44 6
0 6 -4 -2 -8z m-372 -12 c17 -11 17 -11 -42 -14 -15 -1 -35 -11 -45 -21 -10
-11 -43 -33 -73 -48 -30 -15 -73 -39 -95 -52 -44 -27 -55 -30 -55 -15 0 5 23
21 50 35 28 14 83 48 123 75 71 49 107 59 137 40z m751 -13 c-13 -13 -26 -3
-16 12 3 6 11 8 17 5 6 -4 6 -10 -1 -17z m69 -25 c0 -4 -18 -13 -40 -20 -22
-7 -49 -21 -60 -32 -18 -18 -60 -28 -60 -15 0 5 141 75 152 75 5 0 8 -3 8 -8z
m-95 -12 c-3 -5 -11 -10 -16 -10 -6 0 -7 5 -4 10 3 6 11 10 16 10 6 0 7 -4 4
-10z m-735 -4 c0 -3 -4 -8 -10 -11 -5 -3 -10 -1 -10 4 0 6 5 11 10 11 6 0 10
-2 10 -4z m886 -21 c-11 -8 -29 -15 -40 -14 -17 0 -15 3 9 14 39 18 55 18 31
0z m-960 -10 c-36 -19 -47 -19 -22 0 11 8 27 15 35 15 9 0 3 -7 -13 -15z m124
5 c0 -5 -5 -10 -11 -10 -5 0 -7 5 -4 10 3 6 8 10 11 10 2 0 4 -4 4 -10z m365
0 c-3 -5 -13 -10 -21 -10 -8 0 -12 5 -9 10 3 6 13 10 21 10 8 0 12 -4 9 -10z
m224 -6 c-8 -10 -23 -14 -41 -12 -16 3 -33 -1 -39 -9 -13 -15 -39 -18 -39 -4
0 5 11 12 25 15 14 4 25 11 25 16 0 6 19 10 41 10 37 0 40 -2 28 -16z m768
-46 c-29 -22 -33 -16 -11 17 13 20 19 23 25 13 6 -8 1 -19 -14 -30z m-1427 28
c0 -2 -7 -7 -16 -10 -8 -3 -12 -2 -9 4 6 10 25 14 25 6z m150 -25 c0 -5 -7
-11 -14 -14 -10 -4 -13 -1 -9 9 6 15 23 19 23 5z m606 -6 c-19 -15 -46 -20
-46 -10 0 6 40 24 55 24 6 0 1 -6 -9 -14z m-391 -19 c-1 -12 -7 -32 -13 -46
-11 -23 -12 -22 -6 10 6 29 4 33 -7 23 -11 -9 -19 -8 -33 2 -25 19 -13 33 27
32 27 -1 33 -5 32 -21z m55 14 c0 -5 -7 -10 -15 -10 -8 0 -15 5 -15 10 0 6 7
10 15 10 8 0 15 -4 15 -10z m1047 -27 c-3 -10 -5 -4 -5 12 0 17 2 24 5 18 2
-7 2 -21 0 -30z m-497 2 c-14 -8 -34 -14 -45 -14 -18 -1 -17 1 5 13 14 8 34
14 45 15 17 0 17 -2 -5 -14z m-1280 -10 c0 -5 -55 -35 -65 -35 -16 0 -1 20 23
28 32 12 42 14 42 7z m1145 -5 c-3 -5 -13 -10 -21 -10 -8 0 -12 5 -9 10 3 6
13 10 21 10 8 0 12 -4 9 -10z m-208 -6 c-3 -3 -12 -4 -19 -1 -8 3 -5 6 6 6 11
1 17 -2 13 -5z m-670 -23 c11 -17 9 -23 -16 -40 -16 -12 -35 -21 -43 -21 -9 1
-8 4 4 10 9 6 19 24 23 40 8 35 16 37 32 11z m1503 -2 c0 -5 -4 -9 -10 -9 -5
0 -10 7 -10 16 0 8 5 12 10 9 6 -3 10 -10 10 -16z m-1675 3 c-39 -34 -95 -72
-95 -65 0 15 15 30 50 52 35 21 63 29 45 13z m524 -34 c-12 -20 -14 -21 -17
-5 -2 10 2 25 9 34 18 21 23 0 8 -29z m-699 26 c0 -5 -64 -34 -77 -34 -4 0 6
9 22 19 30 19 55 26 55 15z m1804 -18 c-6 -15 -24 -23 -24 -11 0 8 24 34 28
30 1 -1 0 -10 -4 -19z m-1877 8 c-3 -3 -12 -4 -19 -1 -8 3 -5 6 6 6 11 1 17
-2 13 -5z m163 -8 c-20 -19 -91 -58 -97 -53 -7 7 79 67 96 67 13 0 13 -2 1
-14z m946 -33 c-10 -10 -19 5 -10 18 6 11 8 11 12 0 2 -7 1 -15 -2 -18z
m-1200 -2 c-4 -5 -41 -23 -84 -40 -42 -18 -98 -41 -124 -53 -27 -12 -50 -19
-53 -16 -5 5 74 46 195 101 38 18 74 22 66 8z m344 -9 c0 -10 -130 -106 -136
-100 -6 7 67 73 102 91 35 19 34 19 34 9z m-255 -22 c-8 -13 -76 -42 -83 -35
-8 8 3 16 45 30 47 17 46 17 38 5z m95 -15 c-7 -9 -15 -13 -19 -10 -3 3 1 10
9 15 21 14 24 12 10 -5z m1773 -25 c3 -11 1 -18 -4 -14 -5 3 -9 12 -9 20 0 20
7 17 13 -6z m-1844 -26 c-6 -8 -21 -14 -33 -14 -20 0 -20 1 4 19 27 21 48 18
29 -5z m-239 -25 c0 -21 -25 -26 -36 -8 -4 6 -19 9 -36 5 -18 -3 -27 -2 -23 4
3 6 14 10 24 10 10 0 24 7 31 15 16 19 40 3 40 -26z m334 -23 c-3 -8 -18 -22
-32 -32 -27 -17 -27 -17 2 15 33 35 38 37 30 17z m-164 0 c0 -2 -12 -11 -27
-20 l-28 -17 24 20 c23 21 31 25 31 17z m-230 -26 c-20 -13 -33 -13 -25 0 3 6
14 10 23 10 15 0 15 -2 2 -10z m285 -10 c-10 -11 -23 -20 -28 -20 -6 0 -2 9 8
20 10 11 23 20 28 20 6 0 2 -9 -8 -20z m37 -2 c-7 -7 -12 -8 -12 -2 0 14 12
26 19 19 2 -3 -1 -11 -7 -17z"/>
<path d="M5272 1225 c-32 -14 -47 -35 -40 -55 2 -7 15 0 31 14 16 14 37 26 48
26 10 0 19 7 19 15 0 18 -15 18 -58 0z"/>
<path d="M5380 1205 c-8 -9 -8 -15 -2 -15 12 0 26 19 19 26 -2 2 -10 -2 -17
-11z"/>
<path d="M4940 1173 c-16 -7 -39 -33 -40 -45 0 -13 21 -9 36 7 9 8 24 15 35
15 10 0 19 4 19 9 0 5 8 12 18 14 9 3 1 5 -18 5 -19 0 -42 -2 -50 -5z"/>
<path d="M5710 1159 c0 -6 -7 -9 -15 -5 -8 3 -22 -2 -31 -11 -19 -19 -12 -99
11 -122 21 -22 85 -18 99 5 30 52 22 98 -22 120 -12 6 -19 14 -15 17 3 4 -1 7
-10 7 -9 0 -17 -5 -17 -11z m38 -49 c25 -23 24 -22 15 -47 -6 -16 -8 -15 -13
7 -3 14 -14 26 -23 28 -13 3 -17 -4 -17 -27 0 -21 5 -31 16 -31 8 0 13 -4 9
-10 -19 -31 -62 48 -44 81 13 24 30 24 57 -1z"/>
<path d="M5085 1150 c-3 -5 -1 -10 4 -10 6 0 11 5 11 10 0 6 -2 10 -4 10 -3 0
-8 -4 -11 -10z"/>
<path d="M5157 1147 c-4 -11 3 -19 24 -26 18 -6 29 -6 29 0 0 5 -5 9 -11 9 -7
0 -17 7 -24 16 -11 15 -12 15 -18 1z"/>
<path d="M5285 1146 c-10 -7 -15 -18 -11 -25 6 -9 11 -9 22 0 8 6 25 9 38 7
17 -4 26 0 29 12 3 13 -3 17 -28 18 -18 1 -40 -5 -50 -12z"/>
<path d="M5606 1151 c-4 -7 -5 -15 -2 -18 9 -9 19 4 14 18 -4 11 -6 11 -12 0z"/>
<path d="M5530 1130 c0 -5 5 -10 10 -10 6 0 10 5 10 10 0 6 -4 10 -10 10 -5 0
-10 -4 -10 -10z"/>
<path d="M5427 1123 c-10 -9 -9 -23 2 -23 5 0 11 7 15 15 5 15 -5 20 -17 8z"/>
<path d="M4967 1103 c-10 -9 -8 -33 2 -33 5 0 11 9 14 20 5 20 -3 26 -16 13z"/>
<path d="M5073 1103 c-20 -8 -15 -23 7 -23 11 0 20 7 20 15 0 15 -6 17 -27 8z"/>
<path d="M5586 1091 c-4 -7 -5 -15 -2 -18 9 -9 19 4 14 18 -4 11 -6 11 -12 0z"/>
<path d="M5427 1083 c-10 -9 -9 -23 2 -23 5 0 11 7 15 15 5 15 -5 20 -17 8z"/>
<path d="M5470 1075 c-21 -25 -1 -31 23 -7 17 18 18 22 5 22 -8 0 -21 -7 -28
-15z"/>
<path d="M5620 1060 c0 -5 5 -10 10 -10 6 0 10 5 10 10 0 6 -4 10 -10 10 -5 0
-10 -4 -10 -10z"/>
<path d="M5808 1053 c7 -3 16 -2 19 1 4 3 -2 6 -13 5 -11 0 -14 -3 -6 -6z"/>
<path d="M5684 985 c-9 -22 1 -29 15 -11 8 10 9 16 1 21 -5 3 -13 -1 -16 -10z"/>
<path d="M5830 911 c-5 -11 -10 -27 -10 -35 0 -28 15 -17 26 19 12 37 1 48
-16 16z"/>
<path d="M5609 813 c-13 -16 -12 -17 4 -4 9 7 17 15 17 17 0 8 -8 3 -21 -13z"/>
<path d="M5560 780 c-8 -15 -9 -25 -1 -33 7 -7 12 -2 17 17 8 35 -1 44 -16 16z"/>
</g>
</svg>
