<?xml version="1.0" standalone="no"?>
<!DOCTYPE svg PUBLIC "-//W3C//DTD SVG 20010904//EN"
 "http://www.w3.org/TR/2001/REC-SVG-20010904/DTD/svg10.dtd">
<svg version="1.0" xmlns="http://www.w3.org/2000/svg"
 width="1000.000000pt" height="522.000000pt" viewBox="0 0 1000.000000 522.000000"
 preserveAspectRatio="xMidYMid meet">
<metadata>
Created by potrace 1.16, written by Peter Selinger 2001-2019
</metadata>
<g transform="translate(0.000000,522.000000) scale(0.100000,-0.100000)"
fill="#000000" stroke="none">
<path d="M2855 5143 c-10 -3 -29 -12 -42 -20 -25 -16 -103 -20 -175 -8 -42 7
-50 5 -91 -25 -42 -30 -50 -32 -128 -32 -95 0 -112 -8 -176 -75 -22 -23 -46
-43 -52 -43 -6 0 -22 -24 -37 -52 -14 -29 -38 -66 -53 -81 -22 -25 -26 -38
-29 -106 l-4 -77 -69 -73 c-38 -40 -72 -84 -75 -98 -4 -13 -4 -50 -1 -80 4
-39 1 -67 -10 -95 -18 -44 -13 -110 12 -158 8 -16 15 -44 15 -63 0 -62 29
-120 43 -84 7 18 -12 117 -30 154 -9 18 -15 54 -15 80 1 27 3 96 5 154 l4 107
54 65 c68 81 88 93 172 100 37 4 81 14 96 23 27 16 33 16 95 -1 53 -14 71 -16
92 -7 47 22 80 14 137 -32 30 -24 63 -47 75 -50 27 -9 62 -69 62 -109 0 -31
37 -115 64 -146 25 -29 28 -59 9 -111 -15 -42 -16 -53 -5 -71 11 -18 11 -24
-3 -39 -8 -9 -13 -24 -10 -32 4 -10 -1 -17 -14 -21 -12 -3 -21 -12 -21 -20 0
-9 -9 -19 -20 -22 -23 -7 -29 -55 -6 -55 19 0 8 -47 -15 -63 -46 -33 -45 -113
2 -129 16 -5 29 -17 29 -25 0 -13 2 -13 15 1 20 19 19 26 -3 26 -26 0 -62 37
-62 63 0 13 6 31 13 41 12 17 14 17 20 2 4 -9 15 -16 26 -16 13 0 18 5 15 13
-2 7 2 21 10 32 14 18 15 18 16 3 0 -10 5 -18 12 -18 6 0 4 -7 -5 -18 -10 -10
-17 -22 -17 -25 0 -4 13 7 28 24 l28 31 13 -25 c8 -15 10 -34 6 -44 -6 -16 -8
-16 -16 5 -10 25 -24 29 -33 7 -3 -8 0 -15 6 -15 6 0 5 -6 -3 -17 -13 -15 -12
-15 9 -4 12 6 22 9 22 5 0 -3 7 -1 16 7 13 10 17 10 25 -2 5 -8 9 -9 9 -4 0 6
14 18 31 27 27 16 30 21 24 50 -4 18 -14 41 -22 50 -8 9 -16 34 -16 55 -2 28
-6 38 -18 37 -11 -1 -15 4 -11 18 4 17 6 17 22 3 9 -8 20 -12 24 -8 4 4 9 -2
12 -13 3 -11 20 -26 38 -32 45 -17 52 -15 31 8 -10 11 -24 20 -32 20 -7 0 -16
7 -19 15 -4 8 -13 15 -20 15 -8 0 -19 11 -24 25 -5 14 -22 30 -36 35 -25 10
-26 12 -10 29 18 20 22 51 6 51 -5 0 -10 -8 -10 -19 0 -22 -25 -45 -40 -36
-16 10 -12 61 8 82 9 10 14 14 10 8 -4 -6 -3 -17 1 -24 18 -28 33 29 30 112
-2 45 -3 133 -2 195 1 104 3 116 24 138 16 17 33 24 62 24 22 0 54 9 72 20 30
18 36 19 73 6 34 -12 48 -12 84 -2 47 14 76 12 153 -9 28 -7 70 -17 95 -21 25
-3 57 -15 72 -25 14 -11 37 -19 50 -19 23 0 55 -18 92 -52 11 -10 23 -18 27
-18 4 0 10 -20 13 -44 4 -25 16 -56 28 -71 18 -24 20 -35 14 -113 -4 -48 -9
-118 -12 -157 -8 -117 -12 -130 -61 -184 -44 -49 -61 -73 -82 -116 -15 -33
-78 -88 -91 -80 -7 4 -27 -8 -50 -30 -35 -34 -60 -40 -60 -14 0 25 -53 90 -85
104 -20 8 -47 28 -61 44 -13 16 -41 35 -62 42 -20 6 -56 25 -80 41 -24 17 -46
27 -50 23 -11 -11 59 -63 108 -80 24 -8 58 -29 76 -46 17 -16 46 -38 64 -47
51 -26 128 -186 114 -238 -3 -11 2 -40 10 -64 29 -84 22 -135 -35 -245 -68
-132 -92 -163 -146 -186 -37 -16 -52 -17 -89 -9 -25 6 -50 7 -56 4 -22 -14
-88 -4 -134 21 -26 14 -58 25 -71 25 -26 0 -98 -34 -121 -57 -14 -14 -28 -14
-79 2 -13 4 -23 3 -23 -2 0 -5 17 -15 38 -21 32 -10 40 -9 62 7 78 57 128 64
184 26 32 -21 50 -25 139 -28 91 -3 108 -1 159 21 50 21 63 33 97 87 22 34 47
78 56 96 8 19 23 48 32 64 24 44 29 135 9 195 -9 27 -14 60 -11 72 3 13 -1 42
-9 66 l-15 43 36 32 c20 18 47 32 59 32 30 1 90 59 114 111 11 23 38 61 61 85
59 64 71 92 71 168 -1 36 6 100 14 141 17 82 13 137 -13 177 -9 14 -19 44 -23
67 -4 36 -12 46 -69 88 -48 36 -67 45 -80 38 -13 -6 -25 -2 -45 15 -17 14 -47
27 -75 30 -25 4 -71 15 -101 25 -68 22 -92 23 -154 9 -37 -9 -57 -9 -86 1 -21
7 -47 10 -57 6 -10 -4 -18 -6 -19 -4 0 2 -8 -5 -18 -14 -11 -12 -33 -18 -62
-18 -36 0 -50 -5 -70 -27 -13 -14 -26 -36 -29 -47 -11 -54 -11 -161 -1 -223 7
-37 9 -81 6 -97 l-5 -28 -27 42 c-16 23 -28 47 -28 53 0 7 -9 27 -21 46 -13
22 -19 44 -16 60 7 36 -31 101 -74 124 -19 10 -47 31 -64 46 -47 42 -78 54
-122 46 -87 -16 -178 0 -167 29 5 12 49 14 61 3 11 -12 21 -8 28 12 4 13 12
17 25 14 11 -3 20 -9 20 -14 0 -15 64 -5 78 11 11 13 14 13 26 -2 18 -24 26
-23 26 3 0 11 5 17 10 14 6 -3 10 -14 10 -24 0 -23 26 -58 36 -48 5 4 3 11 -3
15 -15 10 -27 72 -13 72 5 0 10 -4 10 -10 0 -5 7 -10 15 -10 8 0 15 7 15 16 0
13 3 14 14 5 8 -7 27 -14 42 -15 32 -4 48 -41 40 -88 -3 -15 -1 -30 5 -34 7
-4 10 13 9 52 -1 33 -2 75 -1 94 2 32 3 33 12 12 10 -25 29 -21 29 6 1 16 1
16 11 0 14 -25 29 -22 29 5 1 20 2 20 11 4 7 -13 14 -15 23 -8 8 7 15 2 25
-20 13 -29 35 -42 25 -14 -5 11 0 14 17 13 19 -2 24 2 22 17 -1 19 -1 19 11 3
18 -24 26 -23 27 5 l0 22 9 -22 c11 -27 30 -31 30 -7 0 14 3 14 15 4 13 -10
15 -9 15 8 0 19 2 20 28 6 16 -7 35 -25 42 -39 16 -30 30 -32 30 -5 0 23 18
27 26 6 7 -19 53 -29 69 -16 10 8 19 8 34 1 27 -15 51 -14 51 2 0 12 -115 137
-126 137 -2 0 -4 -8 -5 -17 0 -14 -2 -13 -9 4 -6 16 -14 21 -26 16 -10 -4 -20
0 -26 11 -8 13 -13 15 -24 5 -11 -9 -14 -8 -14 5 0 18 -15 21 -25 5 -5 -6 -12
-4 -21 8 -11 14 -13 15 -14 3 0 -11 -3 -10 -12 4 -10 18 -12 17 -24 -10 l-12
-29 -1 34 c-1 25 -5 32 -16 28 -8 -4 -17 -2 -20 4 -4 5 -10 7 -15 4 -5 -3 -12
0 -16 6 -5 9 -11 7 -21 -6 -7 -11 -13 -13 -13 -7 0 19 -18 14 -23 -5 -4 -17
-5 -17 -6 0 -1 24 -16 21 -29 -5 -9 -20 -11 -20 -11 -4 -1 11 -6 16 -15 13 -8
-3 -16 2 -19 14 -3 10 -11 19 -19 18 -8 0 -9 -2 -2 -5 7 -3 9 -14 7 -25 -4
-14 -8 -17 -13 -9 -9 15 -50 -8 -50 -27 0 -7 -7 -13 -15 -13 -8 0 -15 5 -15
10 0 23 -21 7 -27 -20 -5 -28 -7 -29 -19 -13 -7 10 -14 13 -14 7 0 -21 -130 4
-130 26 0 4 10 11 23 15 l22 8 -22 4 c-28 5 -31 33 -4 33 11 0 22 4 25 8 3 5
-11 8 -29 8 -21 -1 -35 -6 -35 -13 0 -21 -20 -15 -30 10 l-9 22 0 -23 c-1 -15
7 -26 24 -32 20 -8 25 -16 25 -46 0 -27 -5 -37 -20 -41 -11 -3 -20 -12 -20
-20 0 -9 -5 -11 -12 -6 -24 14 -40 12 -45 -7 -3 -12 -11 -16 -24 -13 -10 3
-19 0 -19 -6 0 -6 -4 -11 -10 -11 -5 0 -10 6 -10 14 0 16 -18 31 -26 23 -3 -3
0 -15 6 -27 9 -17 8 -29 -5 -56 -9 -20 -23 -38 -31 -41 -8 -3 -14 -10 -14 -17
0 -6 -15 -21 -33 -33 -26 -18 -47 -23 -99 -23 -64 0 -66 1 -71 29 -9 44 8 88
53 137 22 24 40 50 40 58 0 8 16 29 37 48 20 18 54 50 75 71 38 38 39 38 112
36 67 -2 78 1 132 31 60 35 102 40 155 19 28 -11 61 -5 168 32 60 20 65 21 98
5 18 -9 41 -16 51 -16 9 -1 31 -7 47 -16 l30 -14 -37 4 c-47 6 -49 0 -5 -14
l32 -10 -36 4 c-32 4 -36 2 -32 -14 3 -11 14 -22 24 -25 11 -4 17 -11 14 -16
-4 -5 -1 -9 4 -9 10 0 16 21 12 43 0 4 3 7 8 7 5 0 12 9 16 19 3 12 17 21 33
23 15 2 25 8 22 13 -3 6 -9 9 -15 7 -11 -4 -84 14 -138 34 -37 14 -93 17 -132
7z m-285 -263 c0 -5 -2 -10 -4 -10 -3 0 -8 5 -11 10 -3 6 -1 10 4 10 6 0 11
-4 11 -10z m-16 -106 c3 -8 2 -12 -4 -9 -6 3 -10 10 -10 16 0 14 7 11 14 -7z
m291 -684 c3 -5 -1 -10 -9 -10 -9 0 -16 5 -16 10 0 6 4 10 9 10 6 0 13 -4 16
-10z m40 -20 c3 -5 -3 -10 -15 -10 -12 0 -18 5 -15 10 3 6 10 10 15 10 5 0 12
-4 15 -10z m-55 -75 c0 -8 -4 -15 -10 -15 -5 0 -7 7 -4 15 4 8 8 15 10 15 2 0
4 -7 4 -15z m-93 -37 c-3 -8 -6 -5 -6 6 -1 11 2 17 5 13 3 -3 4 -12 1 -19z
m114 -31 c-10 -9 -11 -8 -5 6 3 10 9 15 12 12 3 -3 0 -11 -7 -18z m-91 -27 c0
-5 -5 -10 -11 -10 -5 0 -7 5 -4 10 3 6 8 10 11 10 2 0 4 -4 4 -10z m140 -60
c0 -5 -5 -10 -11 -10 -5 0 -7 5 -4 10 3 6 8 10 11 10 2 0 4 -4 4 -10z"/>
<path d="M3189 5071 c13 -12 32 -22 42 -22 10 -1 22 -2 27 -3 4 -1 27 -6 50
-10 37 -7 48 -15 73 -54 30 -47 41 -88 17 -64 -7 7 -15 12 -18 12 -11 0 -9
-44 2 -57 8 -10 7 -12 -6 -7 -20 8 -21 -9 -1 -26 8 -7 13 -16 10 -20 -2 -4 8
-5 23 -2 15 3 21 7 15 9 -19 7 -15 20 7 26 18 4 19 9 10 33 -14 36 -1 48 36
34 41 -16 64 -44 64 -79 0 -16 10 -42 23 -58 17 -20 23 -37 20 -60 -3 -25 0
-33 11 -33 24 0 21 71 -4 98 -11 12 -20 35 -20 51 0 42 -50 97 -95 105 -26 5
-44 18 -68 51 -36 49 -57 60 -137 74 -30 5 -66 12 -80 16 l-25 7 24 -21z"/>
<path d="M2720 5049 c0 -5 4 -8 8 -5 4 2 14 1 22 -5 11 -6 8 -9 -14 -9 -24 0
-27 -2 -16 -15 16 -19 51 -19 76 1 18 14 18 15 -3 4 -13 -6 -23 -7 -23 -1 0 5
8 12 18 16 15 7 14 9 -8 15 -37 12 -60 11 -60 -1z"/>
<path d="M2510 5020 c-12 -8 -12 -10 5 -10 11 0 27 5 35 10 12 8 12 10 -5 10
-11 0 -27 -5 -35 -10z"/>
<path d="M3239 5000 c27 -23 37 -25 47 -8 4 6 3 8 -3 5 -6 -4 -19 0 -29 8 -29
22 -42 17 -15 -5z"/>
<path d="M2700 4974 c0 -14 4 -23 10 -19 6 3 10 15 10 26 0 10 -4 19 -10 19
-5 0 -10 -12 -10 -26z"/>
<path d="M2995 4990 c3 -5 13 -10 21 -10 8 0 14 5 14 10 0 6 -9 10 -21 10 -11
0 -17 -4 -14 -10z"/>
<path d="M3189 4982 c8 -15 8 -21 -1 -24 -7 -3 -9 -12 -5 -22 6 -14 13 -17 35
-11 36 9 36 9 20 42 -8 16 -23 29 -36 31 -21 3 -22 1 -13 -16z"/>
<path d="M7214 4990 c-20 -8 -37 -11 -134 -27 -19 -3 -46 -6 -60 -5 -170 5
-217 1 -285 -25 -54 -20 -83 -40 -128 -84 -65 -66 -83 -100 -103 -208 -18
-100 -32 -170 -39 -200 -6 -22 -9 -23 -58 -17 -47 6 -57 4 -99 -24 -69 -46
-87 -91 -83 -205 3 -108 19 -192 49 -260 12 -27 31 -77 42 -110 19 -61 28 -71
165 -201 61 -58 73 -64 144 -70 48 -4 49 -3 25 11 -14 8 -41 14 -61 15 -31 0
-47 12 -132 94 -96 93 -97 95 -142 210 -92 233 -99 415 -18 486 46 40 74 45
144 25 64 -17 85 -14 54 9 -16 12 -17 18 -7 57 7 24 21 91 32 148 29 144 63
205 148 262 90 61 127 69 295 68 87 -1 161 3 173 8 29 15 90 25 178 28 146 6
370 -65 402 -127 8 -15 26 -35 39 -44 14 -9 25 -24 25 -33 1 -9 8 -34 16 -56
15 -40 32 -120 39 -184 3 -28 -3 -39 -36 -71 -39 -37 -49 -60 -26 -60 6 0 23
16 36 35 13 19 30 35 37 35 7 0 30 11 50 25 20 14 44 25 54 25 47 0 134 -24
157 -43 48 -42 55 -69 49 -187 -6 -120 -22 -168 -106 -315 -25 -44 -58 -110
-75 -145 -16 -36 -41 -80 -55 -99 -26 -36 -89 -70 -127 -71 -13 0 -23 -4 -23
-10 0 -13 25 -13 75 1 54 15 95 63 155 183 29 56 69 133 90 171 52 93 108 274
96 311 -3 11 -8 38 -11 62 -7 57 -28 95 -69 127 -28 21 -45 25 -112 27 -43 1
-91 -1 -106 -5 -16 -4 -28 -4 -29 0 0 5 -2 25 -5 46 -2 21 -11 63 -19 95 -9
31 -20 72 -25 91 -5 19 -24 50 -42 68 -18 19 -47 48 -64 65 -31 31 -97 62
-164 78 -19 5 -53 13 -75 19 -48 13 -221 13 -251 1z"/>
<path d="M2730 4981 c0 -15 33 -22 44 -9 6 7 7 10 2 6 -5 -4 -17 -3 -27 3 -11
6 -19 6 -19 0z"/>
<path d="M2280 4940 c-12 -8 -12 -10 -1 -10 10 0 10 -5 -3 -25 -9 -14 -12 -25
-7 -25 14 0 33 37 29 55 -2 10 -7 12 -18 5z"/>
<path d="M7226 4933 c-4 -9 -2 -21 4 -27 7 -7 10 -2 10 17 0 31 -5 34 -14 10z"/>
<path d="M7391 4889 c-13 -22 -21 -43 -18 -46 3 -3 15 14 27 37 28 55 20 62
-9 9z"/>
<path d="M2297 4887 l-17 -32 20 24 c17 20 26 41 18 41 -2 0 -11 -15 -21 -33z"/>
<path d="M6861 4915 c0 -13 28 -50 33 -44 3 2 -4 15 -14 29 -11 14 -20 21 -19
15z"/>
<path d="M7030 4898 c0 -14 7 -32 17 -39 15 -13 16 -11 9 16 -10 41 -26 56
-26 23z"/>
<path d="M2312 4870 c-7 -11 -8 -20 -3 -20 9 0 24 30 18 36 -1 2 -8 -6 -15
-16z"/>
<path d="M6930 4880 c0 -5 5 -10 11 -10 5 0 7 5 4 10 -3 6 -8 10 -11 10 -2 0
-4 -4 -4 -10z"/>
<path d="M7571 4859 c-7 -12 -10 -23 -8 -26 3 -3 11 5 17 17 15 28 8 35 -9 9z"/>
<path d="M7190 4822 c-40 -2 -64 -10 -90 -29 -19 -14 -29 -20 -22 -13 18 21
15 29 -10 24 -24 -6 -70 -13 -100 -16 -9 -1 -15 -4 -13 -6 6 -6 -41 -42 -54
-42 -6 0 -11 -4 -11 -10 0 -5 7 -10 15 -10 8 0 15 -8 15 -17 0 -10 4 -14 8 -8
10 14 27 17 97 20 33 2 73 8 88 14 36 14 37 14 37 -4 0 -17 16 -20 25 -5 3 6
16 10 28 10 l22 -1 -22 -18 -21 -18 34 1 c43 2 61 18 40 38 -13 13 -6 15 59
11 40 -2 76 0 79 5 6 11 56 4 56 -8 0 -4 20 -6 44 -5 38 3 43 1 39 -15 -7 -28
32 -32 56 -6 26 28 17 40 -15 19 -14 -9 -24 -11 -24 -5 0 6 5 14 11 18 8 4 7
9 -2 15 -11 6 -10 9 4 15 9 3 14 10 11 15 -3 5 -18 2 -34 -6 -37 -19 -46 -19
-30 0 17 21 8 19 -35 -6 -20 -12 -38 -19 -41 -16 -3 3 4 10 15 17 12 6 21 15
21 20 0 17 -30 11 -76 -16 -38 -22 -49 -25 -67 -15 -12 7 -14 9 -4 7 23 -7 67
13 67 31 0 7 -5 13 -11 13 -5 0 -7 -5 -3 -12 4 -7 3 -8 -4 -4 -7 4 -39 -4 -72
-17 -33 -14 -60 -23 -60 -20 0 9 45 42 58 43 6 0 12 4 12 8 0 8 -29 9 -120 4z
m48 -34 c-14 -14 -23 -18 -26 -10 -2 7 -9 10 -15 6 -7 -3 -3 2 7 10 11 9 28
16 38 16 16 0 16 -2 -4 -22z m-64 -3 c-4 -8 -11 -15 -16 -15 -6 0 -5 6 2 15 7
8 14 15 16 15 2 0 1 -7 -2 -15z m-164 -20 c0 -12 -19 -12 -23 0 -4 9 -1 12 9
8 7 -3 14 -7 14 -8z m-36 -31 c5 -12 2 -15 -10 -10 -8 3 -18 6 -20 6 -3 0 -2
5 1 10 9 15 22 12 29 -6z"/>
<path d="M7670 4795 c-13 -14 -21 -25 -17 -25 3 0 18 11 33 25 15 14 23 25 17
25 -5 0 -20 -11 -33 -25z"/>
<path d="M3445 4775 c-9 -20 -14 -40 -11 -43 3 -3 13 12 21 33 9 20 14 40 11
43 -3 3 -13 -12 -21 -33z"/>
<path d="M6784 4799 c-39 -11 -54 -28 -59 -68 -4 -37 5 -39 31 -9 19 22 19 23
-1 8 -18 -13 -19 -13 -8 0 22 28 87 60 103 50 12 -7 8 -12 -17 -21 -32 -11
-45 -40 -24 -53 15 -10 40 5 34 20 -3 8 3 16 13 20 38 12 84 39 89 51 3 10 0
11 -13 5 -17 -8 -61 -8 -97 1 -11 2 -34 0 -51 -4z m101 -29 c3 -5 1 -10 -4
-10 -6 0 -11 5 -11 10 0 6 2 10 4 10 3 0 8 -4 11 -10z"/>
<path d="M2166 4754 c-10 -25 1 -29 14 -5 6 12 7 21 1 21 -5 0 -12 -7 -15 -16z"/>
<path d="M6642 4750 c7 -11 16 -20 21 -20 4 0 3 9 -3 20 -6 11 -15 20 -20 20
-6 0 -5 -9 2 -20z"/>
<path d="M6668 4705 c-22 -15 -35 -31 -34 -42 4 -23 18 -26 41 -7 17 13 17 15
3 10 -27 -8 -22 12 10 39 35 32 26 32 -20 0z"/>
<path d="M2225 4710 c-4 -6 -3 -16 3 -22 13 -13 23 4 13 21 -7 10 -10 10 -16
1z"/>
<path d="M7035 4700 c-3 -5 -2 -10 4 -10 5 0 13 5 16 10 3 6 2 10 -4 10 -5 0
-13 -4 -16 -10z"/>
<path d="M7744 4696 c-10 -8 -16 -17 -12 -21 8 -8 48 13 48 25 0 14 -13 12
-36 -4z"/>
<path d="M7670 4670 c0 -5 5 -10 10 -10 6 0 10 5 10 10 0 6 -4 10 -10 10 -5 0
-10 -4 -10 -10z"/>
<path d="M6940 4660 c0 -5 10 -10 23 -10 18 0 19 2 7 10 -19 13 -30 13 -30 0z"/>
<path d="M7008 4648 c11 -11 231 -17 238 -7 8 13 -31 20 -75 12 -25 -4 -50 -5
-56 -4 -26 9 -116 8 -107 -1z"/>
<path d="M3280 4630 c-27 -21 -45 -26 -35 -10 8 14 -8 13 -22 -1 -6 -6 -25
-13 -43 -15 -17 -2 -41 -9 -53 -16 -12 -7 -26 -12 -32 -13 -20 0 -105 -60
-105 -74 0 -17 67 -8 111 14 22 12 38 13 72 6 23 -6 54 -7 67 -4 16 4 21 3 16
-5 -5 -8 2 -12 19 -12 20 0 26 -4 21 -15 -3 -9 0 -15 9 -15 8 0 15 -4 15 -10
0 -5 9 -10 19 -10 11 0 22 -4 26 -10 3 -5 12 -7 20 -3 11 4 13 1 9 -12 -6 -14
-3 -16 14 -11 17 6 21 4 16 -8 -4 -11 -1 -16 10 -16 14 0 15 -4 6 -20 -9 -17
-8 -20 7 -20 17 -1 17 -1 1 -11 -25 -14 -23 -33 3 -26 16 4 18 3 8 -9 -9 -11
-8 -14 5 -14 9 0 16 -4 16 -10 0 -5 8 -6 17 -3 14 5 13 1 -5 -24 -27 -38 -28
-47 -3 -33 27 14 35 -3 11 -25 -20 -18 -18 -40 3 -29 7 4 -1 -7 -17 -24 -15
-17 -25 -35 -22 -40 3 -6 -1 -12 -9 -16 -18 -7 -20 -43 -2 -49 8 -3 3 -11 -13
-25 -19 -16 -22 -24 -12 -30 9 -6 4 -15 -19 -35 -36 -30 -35 -42 2 -28 36 13
141 120 135 137 -3 7 3 18 14 24 10 5 22 24 25 42 4 18 13 36 19 40 6 4 11 12
11 17 0 6 9 17 20 25 17 13 18 17 5 25 -12 8 -12 13 -2 23 12 12 17 48 6 48
-3 0 -14 -5 -25 -11 -21 -11 -22 -15 12 52 5 11 6 26 2 32 -5 7 -8 21 -8 32 1
22 -53 65 -71 58 -8 -3 -11 10 -9 37 2 39 1 41 -22 35 -16 -4 -22 -2 -18 5 3
5 -1 10 -9 10 -9 0 -16 5 -16 11 0 7 -10 9 -25 5 -18 -5 -25 -2 -25 9 0 8 -6
14 -12 13 -8 -2 -12 6 -10 19 2 17 -1 20 -18 16 -11 -3 -23 -9 -26 -14 -8 -14
-24 -11 -21 4 1 6 -4 11 -10 10 -7 -2 -13 4 -13 12 0 20 -10 19 -40 -5z"/>
<path d="M7364 4633 c-13 -6 -24 -10 -24 -7 0 2 -15 -3 -32 -13 -44 -24 -167
-43 -194 -31 -14 7 -28 7 -40 0 -23 -12 -59 0 -72 23 -7 13 -29 18 -95 22 -58
4 -87 2 -87 -5 0 -6 23 -10 58 -10 102 0 109 -1 115 -20 6 -25 40 -30 167 -26
94 3 111 7 163 34 46 24 71 30 120 30 43 1 57 3 46 10 -21 12 -96 8 -125 -7z"/>
<path d="M7450 4588 c0 -5 -15 -8 -33 -8 -22 0 -47 -11 -75 -32 -51 -39 -48
-49 5 -14 20 14 48 26 61 26 45 0 161 23 156 31 -6 10 -114 7 -114 -3z"/>
<path d="M2263 4546 c5 -12 0 -16 -16 -16 -12 0 -28 4 -35 9 -16 10 -62 -9
-62 -25 0 -7 -10 -14 -22 -18 -19 -5 -21 -8 -8 -16 12 -8 9 -10 -12 -10 -29 0
-38 -14 -15 -23 6 -3 -2 -6 -19 -6 -31 -1 -50 -21 -45 -48 1 -7 -5 -13 -13
-13 -18 0 -40 -36 -31 -50 3 -6 1 -10 -4 -10 -6 0 -11 -4 -11 -10 0 -5 7 -10
15 -10 8 0 15 -7 15 -15 0 -8 7 -15 16 -15 14 0 14 -3 4 -15 -10 -12 -10 -18
0 -30 9 -10 9 -15 1 -15 -17 0 -13 -18 9 -40 11 -11 16 -20 11 -20 -5 0 -9
-13 -9 -30 1 -16 5 -30 11 -30 5 0 4 -6 -2 -14 -8 -9 -8 -16 -2 -20 6 -4 8
-13 5 -21 -4 -8 1 -18 10 -21 9 -3 14 -9 12 -13 -6 -10 38 -61 53 -61 6 0 11
-4 11 -10 0 -5 9 -10 20 -10 11 0 20 -4 20 -10 0 -5 9 -10 21 -10 12 0 18 -4
13 -11 -10 -16 16 -29 59 -29 21 0 45 -7 53 -15 8 -8 21 -12 28 -9 8 3 17 1
21 -5 3 -6 18 -11 32 -11 l27 0 -21 20 c-12 10 -24 28 -28 40 -3 11 -11 20
-16 20 -13 0 -39 25 -39 38 0 5 -17 17 -37 28 -38 19 -79 54 -65 54 4 0 0 6
-9 13 -9 7 -19 24 -23 40 -5 20 -13 27 -30 27 -27 0 -31 28 -7 47 14 11 13 15
-14 37 -25 20 -27 26 -13 31 17 7 32 45 17 45 -5 0 -6 12 -3 27 5 19 2 30 -11
40 -12 8 -14 13 -6 13 7 0 26 11 42 24 29 25 29 25 9 39 -20 14 -20 15 16 22
26 4 40 3 46 -7 7 -10 8 -8 7 7 -3 36 1 44 16 39 8 -3 24 1 37 10 12 9 33 16
45 16 14 0 23 6 23 15 0 9 10 19 22 24 29 11 14 17 -61 25 -55 6 -63 5 -58 -8z"/>
<path d="M6772 4549 c-35 -13 -26 -18 30 -15 28 2 71 -3 96 -10 24 -8 49 -11
54 -8 5 3 26 -5 46 -19 37 -24 106 -35 116 -19 3 5 -12 9 -34 10 -22 1 -54 11
-72 22 -18 11 -47 20 -65 20 -17 0 -34 4 -37 8 -3 5 -18 10 -33 10 -15 1 -40
3 -54 5 -14 2 -35 0 -47 -4z"/>
<path d="M7184 4502 c3 -5 27 -9 53 -10 34 -1 44 1 33 8 -18 12 -93 13 -86 2z"/>
<path d="M2480 4471 c0 -13 47 -41 69 -41 32 0 69 -21 74 -41 3 -11 14 -19 24
-19 10 0 29 -7 41 -16 13 -9 25 -14 28 -11 9 8 -27 37 -46 37 -11 0 -24 9 -30
20 -13 23 -67 53 -84 47 -7 -3 -23 4 -37 14 -26 20 -39 24 -39 10z"/>
<path d="M7331 4449 c-12 -19 -21 -44 -21 -55 0 -12 -10 -33 -21 -48 -12 -15
-19 -29 -17 -32 10 -10 39 36 56 87 17 53 18 54 52 51 19 -1 58 -4 87 -6 28
-1 59 -8 68 -16 21 -18 33 -3 13 16 -10 11 -38 18 -75 19 -32 2 -72 6 -90 10
-29 6 -34 4 -52 -26z"/>
<path d="M7920 4469 c-28 -12 -60 -38 -60 -51 0 -5 12 0 28 12 15 11 42 23 60
26 28 6 34 4 39 -15 3 -11 9 -21 14 -21 5 0 8 -10 6 -22 -2 -13 -2 -17 0 -10
5 15 29 16 38 2 4 -6 11 -8 16 -5 5 4 9 -14 9 -41 0 -44 -16 -105 -47 -184 -7
-19 -15 -51 -17 -70 -2 -19 -15 -61 -29 -93 -15 -32 -27 -60 -27 -63 0 -4 -12
-20 -26 -37 -24 -29 -25 -32 -8 -44 10 -7 21 -13 24 -13 9 0 28 43 51 115 21
64 39 108 68 165 25 48 54 204 48 256 -5 49 -19 66 -72 88 -42 18 -78 19 -115
5z m160 -234 c-6 -15 -13 -25 -17 -21 -3 3 0 17 7 31 17 32 24 26 10 -10z"/>
<path d="M7236 4418 c-20 -39 -20 -44 -1 -28 12 10 15 9 15 -6 0 -14 3 -15 12
-6 10 10 10 15 -1 21 -10 7 -11 13 -2 30 7 12 8 21 2 21 -5 0 -17 -14 -25 -32z"/>
<path d="M6900 4430 c0 -5 11 -10 25 -10 14 0 28 -7 32 -16 3 -8 16 -20 29
-25 14 -5 24 -17 24 -28 0 -18 17 -38 24 -30 8 10 -16 69 -28 69 -7 0 -23 11
-36 25 -23 25 -70 35 -70 15z"/>
<path d="M7100 4431 c0 -5 9 -13 20 -16 11 -3 20 -10 20 -14 0 -18 40 -53 54
-48 12 5 6 15 -24 47 -36 37 -70 52 -70 31z"/>
<path d="M3034 4408 c-5 -7 -18 -30 -28 -50 -11 -23 -30 -41 -47 -47 -16 -5
-29 -15 -29 -21 0 -7 7 -7 23 1 31 16 67 50 67 64 0 7 9 24 21 39 11 14 16 26
11 26 -5 0 -14 -6 -18 -12z"/>
<path d="M6746 4401 c-10 -16 24 -36 42 -25 22 13 101 9 115 -5 6 -6 19 -11
29 -11 11 0 28 -15 39 -35 12 -19 25 -32 31 -29 10 6 -30 64 -53 75 -68 33
-126 44 -146 27 -8 -6 -19 -6 -32 1 -11 6 -22 7 -25 2z"/>
<path d="M7377 4396 c-22 -23 -60 -86 -54 -92 2 -3 18 16 33 41 20 31 36 45
51 45 12 0 23 -5 25 -10 2 -7 14 -7 36 -1 21 7 43 6 59 0 29 -11 45 -3 23 11
-8 6 -37 9 -65 8 -27 -1 -59 2 -71 6 -14 5 -26 2 -37 -8z"/>
<path d="M6360 4383 c-26 -10 -51 -36 -65 -70 -11 -26 -12 -53 -4 -125 12
-121 39 -259 54 -278 6 -8 17 -28 24 -45 25 -58 103 -175 117 -175 8 0 17 -6
20 -14 6 -17 64 -40 64 -26 0 5 -10 15 -22 21 -13 7 -27 18 -31 25 -4 8 -13
14 -20 14 -7 0 -36 36 -64 79 -53 79 -65 103 -39 82 17 -14 22 -7 25 42 2 23
-2 37 -9 37 -9 0 -11 -10 -6 -30 3 -17 1 -30 -4 -30 -6 0 -10 9 -10 19 0 11
-5 21 -11 23 -10 3 -18 34 -36 136 -3 18 -9 34 -13 37 -4 3 -5 34 -2 70 3 45
1 65 -7 65 -22 0 -10 27 24 56 34 28 46 54 25 54 -5 0 -10 -4 -10 -8 0 -5 -7
-9 -15 -9 -8 0 -15 4 -15 8 0 18 40 28 96 23 38 -3 54 -2 44 4 -19 12 -91 22
-110 15z"/>
<path d="M3053 4361 c-16 -13 -43 -61 -43 -76 0 -3 9 -5 21 -5 15 0 19 -5 14
-19 -6 -20 18 -46 35 -36 14 8 13 -8 -2 -23 -9 -9 -7 -13 6 -18 11 -4 26 2 40
15 15 14 26 19 30 12 5 -7 16 -5 34 6 34 22 43 34 37 52 -3 7 0 20 6 27 9 11
8 14 -6 14 -10 0 -15 5 -12 13 3 7 -3 24 -13 37 -15 21 -20 22 -34 11 -9 -7
-16 -9 -16 -4 0 17 -75 12 -97 -6z"/>
<path d="M7838 4355 c-9 -19 -8 -31 2 -52 16 -34 25 -93 13 -93 -5 0 -8 -48
-7 -107 0 -71 -4 -119 -13 -141 -7 -18 -11 -37 -8 -41 2 -5 -3 -11 -14 -14
-21 -5 -77 -74 -68 -84 4 -3 13 -1 21 6 8 6 18 10 23 9 22 -7 109 105 118 152
2 10 15 36 28 57 26 41 47 104 47 138 -1 19 -1 19 -14 3 -20 -27 -30 -21 -12
7 9 13 16 38 16 54 0 16 4 33 10 36 5 3 15 16 21 28 6 14 -3 8 -25 -15 -20
-21 -36 -34 -36 -30 0 4 6 14 12 20 10 10 10 15 -1 21 -10 7 -11 13 -2 30 8
14 8 21 1 21 -5 0 -10 -5 -10 -11 0 -6 -13 -9 -29 -7 -16 1 -36 -4 -45 -11
-22 -19 -22 6 1 31 15 17 15 18 -1 18 -9 0 -22 -11 -28 -25z m42 -49 c0 -3 -4
-8 -10 -11 -5 -3 -10 -1 -10 4 0 6 5 11 10 11 6 0 10 -2 10 -4z m50 -60 c0 -3
-4 -8 -10 -11 -5 -3 -10 -1 -10 4 0 6 5 11 10 11 6 0 10 -2 10 -4z m15 -133
c-14 -41 -29 -52 -38 -29 -3 8 1 17 10 20 9 4 13 13 9 22 -3 8 -2 12 3 9 5 -3
12 -1 16 5 12 20 12 9 0 -27z"/>
<path d="M2294 4355 c11 -8 25 -15 32 -15 7 0 26 -12 43 -26 35 -29 43 -18 9
13 -30 27 -62 43 -85 43 -17 -1 -17 -2 1 -15z"/>
<path d="M2452 4316 c-16 -17 -38 -36 -48 -42 -11 -7 -16 -15 -12 -19 5 -5 16
0 27 9 12 11 21 13 25 7 4 -5 1 -13 -6 -18 -12 -7 -38 -47 -38 -57 0 -2 9 -2
19 1 11 3 28 -4 40 -16 11 -11 27 -18 36 -15 10 4 15 0 15 -10 0 -9 3 -16 6
-16 16 0 85 78 95 108 10 30 8 36 -12 60 -13 15 -25 29 -27 31 -1 3 -23 6 -47
6 -38 2 -49 -3 -73 -29z"/>
<path d="M7235 4340 c-3 -5 -1 -10 4 -10 6 0 11 5 11 10 0 6 -2 10 -4 10 -3 0
-8 -4 -11 -10z"/>
<path d="M7415 4341 c-16 -6 -10 -9 25 -13 50 -5 62 -2 40 12 -18 11 -38 12
-65 1z"/>
<path d="M3307 4323 c-16 -8 -26 -17 -23 -20 7 -8 66 17 66 28 0 12 -9 10 -43
-8z"/>
<path d="M6840 4330 c-8 -5 -30 -10 -48 -10 -20 0 -31 -4 -27 -10 9 -14 38
-12 71 5 16 8 39 15 51 15 22 0 53 -24 53 -42 0 -5 9 -21 20 -35 13 -17 20
-21 20 -11 0 9 -7 21 -15 28 -8 7 -15 21 -15 31 0 33 -73 53 -110 29z"/>
<path d="M7364 4316 c-9 -15 -14 -29 -11 -32 3 -3 13 6 23 20 9 15 14 29 11
32 -3 3 -13 -6 -23 -20z"/>
<path d="M6453 4317 c-4 -8 -16 -16 -25 -20 -37 -13 -88 -127 -58 -127 6 0 8
-11 4 -25 -5 -21 -3 -24 11 -19 16 7 17 6 1 -19 -10 -15 -13 -28 -7 -31 12 -8
48 -83 57 -121 10 -41 42 -97 65 -113 11 -7 19 -23 19 -35 0 -12 9 -28 20 -35
15 -9 20 -9 20 0 0 6 6 4 13 -7 8 -10 19 -15 25 -11 7 4 12 1 12 -9 0 -21 24
-45 44 -45 24 0 28 17 5 23 -11 3 -23 15 -26 26 -3 12 -9 21 -14 21 -19 0 -61
50 -55 66 4 11 2 15 -8 11 -22 -9 -28 5 -10 24 15 17 15 19 -1 35 -14 15 -18
15 -26 3 -5 -9 -9 -10 -9 -2 0 6 5 15 10 18 6 3 10 13 10 22 0 13 -3 13 -15 3
-8 -7 -15 -19 -15 -26 0 -8 -4 -14 -10 -14 -13 0 -13 6 5 40 9 17 11 30 6 30
-5 0 -12 -7 -15 -16 -13 -33 -17 -4 -5 30 15 41 6 58 -17 30 -11 -14 -11 -10
2 16 10 19 17 43 15 53 -1 10 4 17 13 17 9 0 16 5 16 10 0 6 7 10 16 10 14 0
15 7 10 45 -8 49 10 89 44 98 11 3 20 10 20 16 0 11 -19 15 -58 12 -12 -1 -25
5 -28 14 -7 18 -50 20 -61 2z m47 -26 c0 -5 -10 -11 -22 -13 -16 -2 -25 -13
-33 -40 -6 -20 -16 -43 -23 -50 -16 -16 -15 -3 3 32 8 16 14 34 13 39 -4 11
32 40 50 41 6 0 12 -4 12 -9z m-27 -86 c-3 -9 -8 -14 -10 -11 -3 3 -2 9 2 15
9 16 15 13 8 -4z"/>
<path d="M8030 4319 c0 -5 5 -7 10 -4 6 3 10 8 10 11 0 2 -4 4 -10 4 -5 0 -10
-5 -10 -11z"/>
<path d="M7412 4300 c-21 -9 -42 -46 -42 -76 0 -22 38 -54 65 -54 18 0 29 9
41 33 9 17 22 35 28 39 8 5 7 8 -1 8 -7 0 -13 6 -13 14 0 8 -10 22 -22 30 -25
18 -25 18 -56 6z m28 -35 c0 -8 -4 -15 -10 -15 -5 0 -10 7 -10 15 0 8 5 15 10
15 6 0 10 -7 10 -15z"/>
<path d="M6848 4283 c-36 -43 -28 -96 17 -107 34 -9 64 25 65 71 0 49 -51 71
-82 36z m47 -23 c0 -7 -6 -15 -12 -17 -8 -3 -13 4 -13 17 0 13 5 20 13 18 6
-3 12 -11 12 -18z"/>
<path d="M7200 4235 c-13 -14 -20 -25 -15 -25 4 0 18 11 31 25 13 14 20 25 15
25 -4 0 -18 -11 -31 -25z"/>
<path d="M7142 4223 c-7 -12 -14 -38 -17 -59 -2 -20 -12 -46 -22 -57 -14 -15
-15 -19 -3 -15 15 5 42 51 45 78 1 8 6 23 10 32 11 28 0 46 -13 21z"/>
<path d="M2680 4210 c0 -5 4 -10 9 -10 6 0 13 5 16 10 3 6 -1 10 -9 10 -9 0
-16 -4 -16 -10z"/>
<path d="M3339 4191 c-14 -5 -35 -14 -48 -20 -13 -7 -39 -14 -58 -16 -19 -2
-40 -8 -47 -15 -15 -15 68 -3 104 16 14 7 42 15 63 19 20 4 40 11 43 16 6 11
-21 10 -57 0z"/>
<path d="M7260 4185 c0 -39 81 -137 99 -119 3 3 -8 18 -25 32 -17 15 -37 44
-45 65 -13 38 -29 50 -29 22z"/>
<path d="M2980 4175 c-7 -9 -10 -18 -7 -21 6 -7 47 18 47 28 0 14 -27 9 -40
-7z"/>
<path d="M7652 4134 c-1 -31 -4 -65 -7 -75 -4 -11 -2 -19 3 -19 14 0 29 62 24
108 -6 60 -18 52 -20 -14z"/>
<path d="M7756 4154 c-9 -24 -7 -28 9 -14 17 14 20 30 6 30 -5 0 -12 -7 -15
-16z"/>
<path d="M7220 4150 c0 -5 7 -7 15 -4 8 4 15 8 15 10 0 2 -7 4 -15 4 -8 0 -15
-4 -15 -10z"/>
<path d="M7045 4131 c-3 -5 -1 -12 5 -16 5 -3 10 1 10 9 0 18 -6 21 -15 7z"/>
<path d="M2290 4113 c0 -16 75 -19 85 -3 3 6 3 10 -2 11 -4 0 -25 1 -45 3 -27
2 -38 -1 -38 -11z"/>
<path d="M7568 4105 c-5 -25 3 -40 16 -28 9 10 7 53 -3 53 -5 0 -11 -11 -13
-25z"/>
<path d="M2615 4111 c-3 -5 -1 -12 4 -15 5 -3 11 1 15 9 6 16 -9 21 -19 6z"/>
<path d="M6734 4063 c6 -55 19 -83 31 -71 3 3 1 17 -5 32 -5 15 -10 43 -10 62
0 19 -5 34 -11 34 -8 0 -10 -17 -5 -57z"/>
<path d="M7182 4098 c-6 -6 -12 -18 -12 -25 0 -7 -8 -13 -19 -13 -10 0 -25 -7
-32 -16 -12 -15 -11 -16 11 -9 31 9 74 49 69 64 -3 9 -8 8 -17 -1z"/>
<path d="M7220 4090 c0 -5 6 -14 13 -19 75 -63 107 -79 107 -57 0 8 -10 16
-22 20 -13 3 -38 19 -56 36 -36 32 -42 35 -42 20z"/>
<path d="M6843 4061 c-1 -17 5 -35 14 -43 15 -12 16 -10 10 21 -4 18 -7 37 -7
42 0 24 -15 5 -17 -20z"/>
<path d="M3045 4050 c-14 -6 0 -9 51 -9 39 -1 75 -6 82 -13 9 -9 21 -9 50 0
22 7 58 12 81 12 24 0 41 5 41 11 0 8 -18 10 -62 4 -68 -8 -84 -8 -168 0 -30
2 -64 0 -75 -5z"/>
<path d="M7060 4015 c-18 -21 -5 -31 15 -12 8 9 11 18 6 21 -5 3 -14 -1 -21
-9z"/>
<path d="M7238 4008 c12 -12 25 -18 29 -14 4 4 -1 14 -11 22 -31 22 -43 17
-18 -8z"/>
<path d="M6655 4008 c-9 -22 7 -70 24 -76 10 -3 11 4 6 29 -4 19 -11 41 -15
49 -8 13 -10 13 -15 -2z"/>
<path d="M7160 4010 c-8 -5 -11 -12 -7 -16 4 -4 13 -2 19 4 6 6 10 14 7 16 -2
3 -11 1 -19 -4z"/>
<path d="M2474 4000 c-12 -5 -25 -13 -28 -19 -10 -15 66 -1 84 15 12 12 11 14
-10 13 -14 0 -35 -4 -46 -9z"/>
<path d="M7472 3946 c-15 -35 -4 -51 43 -62 25 -5 28 -4 18 7 -7 7 -14 22 -14
34 -1 16 -2 17 -6 3 -7 -29 -21 -21 -25 15 l-4 32 -12 -29z"/>
<path d="M2638 3910 c-27 -31 -51 -50 -65 -50 -36 0 -75 -30 -123 -92 -25 -32
-65 -73 -89 -90 l-43 -30 -47 22 c-25 13 -57 33 -71 46 -14 12 -50 35 -80 51
-54 28 -62 37 -95 120 -10 23 -24 44 -33 48 -19 7 -31 -4 -15 -13 7 -4 19 -25
28 -45 24 -58 73 -120 104 -133 15 -6 48 -27 72 -45 25 -19 61 -41 82 -48 27
-11 36 -19 31 -30 -43 -109 -41 -204 7 -289 29 -52 39 -80 56 -166 3 -17 31
-56 67 -92 68 -70 97 -80 153 -51 18 9 40 17 50 17 17 1 17 1 0 11 -13 8 -25
5 -50 -10 -47 -29 -79 -21 -132 33 -62 64 -73 83 -79 139 -3 26 -22 82 -42
123 -28 59 -36 87 -35 129 0 73 20 144 42 156 11 5 19 16 19 23 0 8 12 19 28
25 15 6 52 44 83 84 50 64 62 74 111 90 45 14 61 25 82 57 14 22 31 40 36 40
6 0 10 5 10 10 0 21 -21 8 -62 -40z"/>
<path d="M6940 3940 c0 -11 -7 -23 -15 -26 -8 -4 -15 -18 -16 -33 0 -23 -1
-24 -8 -6 l-8 20 -6 -20 c-3 -11 -8 -37 -12 -57 -3 -21 -10 -40 -15 -43 -6 -4
-7 6 -4 25 4 19 2 30 -5 30 -8 0 -17 -60 -10 -72 6 -11 -48 -93 -90 -136 -28
-29 -51 -57 -51 -62 0 -5 -12 -22 -26 -39 -16 -20 -20 -29 -10 -25 22 9 20 -2
-6 -26 -12 -11 -17 -20 -12 -20 22 0 55 46 47 66 -6 18 -6 18 10 2 24 -23 21
-43 -8 -56 -14 -6 -25 -17 -25 -23 0 -8 7 -6 18 4 27 24 35 21 27 -10 -4 -16
-8 -38 -10 -51 -1 -12 -11 -32 -21 -44 -16 -18 -17 -20 -2 -15 25 9 30 -21 7
-44 l-21 -21 24 4 c17 2 23 -2 23 -17 0 -13 -8 -21 -22 -23 -13 -2 -23 -8 -23
-13 0 -12 27 -12 35 1 10 17 25 11 25 -10 0 -10 -8 -24 -17 -29 -16 -9 -15
-10 6 -11 20 0 22 -3 13 -12 -17 -17 -15 -33 2 -19 21 18 41 -11 26 -39 -9
-16 -9 -25 -1 -33 8 -8 11 -3 11 17 l0 28 33 -26 c17 -14 41 -35 52 -46 12
-11 25 -20 31 -20 6 0 19 -6 29 -14 15 -11 17 -17 8 -27 -12 -15 -53 -118 -53
-133 0 -20 15 7 40 72 29 74 22 72 129 54 30 -5 71 -6 92 -2 l39 7 0 -59 c0
-41 4 -60 14 -64 16 -6 14 -40 -3 -37 -6 2 -11 -2 -11 -7 0 -6 5 -10 10 -10 6
0 11 -21 11 -47 1 -27 4 -39 6 -28 3 11 9 25 14 31 5 6 7 19 3 27 -3 9 -1 48
6 87 14 85 7 102 -14 34 l-15 -49 0 63 c-1 47 3 64 14 68 8 4 13 10 10 15 -3
4 -18 4 -33 -2 -83 -32 -280 8 -316 64 -6 9 -16 17 -21 17 -6 0 -28 18 -49 39
-31 32 -42 54 -56 113 -9 40 -16 87 -14 103 2 17 4 66 5 109 1 64 -2 81 -16
88 -14 8 -11 15 20 50 20 22 54 66 75 99 21 32 62 89 91 125 48 58 54 71 55
115 0 27 -3 49 -8 49 -4 0 -8 -9 -8 -20z m-20 -100 c-6 -11 -15 -20 -20 -20
-16 0 -11 18 8 29 24 14 24 14 12 -9z"/>
<path d="M7106 3935 c-27 -28 11 -95 54 -95 20 0 28 43 12 68 -23 35 -48 45
-66 27z"/>
<path d="M7266 3928 c-20 -28 -21 -64 -2 -71 18 -7 55 19 66 47 16 44 -36 64
-64 24z"/>
<path d="M7552 3903 c1 -10 -1 -23 -5 -30 -8 -13 25 -36 56 -38 19 -2 22 12 7
35 -6 10 -10 11 -10 3 0 -26 -21 -12 -26 17 -7 31 -27 43 -22 13z"/>
<path d="M7205 3860 c-3 -5 -1 -10 4 -10 6 0 11 5 11 10 0 6 -2 10 -4 10 -3 0
-8 -4 -11 -10z"/>
<path d="M7640 3810 c0 -11 4 -20 9 -20 21 0 82 -147 96 -235 24 -149 16 -303
-17 -330 -7 -5 -22 -26 -32 -45 -21 -37 -71 -90 -86 -90 -4 0 -10 -4 -12 -9
-1 -5 -26 -20 -55 -35 -42 -21 -76 -28 -180 -37 -70 -6 -130 -13 -132 -15 -1
-1 0 -7 4 -13 3 -7 21 -9 43 -5 20 3 78 9 127 13 103 8 150 29 232 98 29 25
57 42 63 38 13 -8 60 32 60 51 0 8 6 11 16 7 12 -4 14 0 8 21 -4 16 -1 32 6
41 10 12 9 15 -4 15 -9 0 -16 5 -16 10 0 6 4 10 9 10 5 0 7 19 3 43 -4 36 -3
40 10 30 11 -9 17 -10 26 -1 9 9 6 14 -11 22 -12 7 -23 20 -25 31 -3 16 -1 18
9 8 16 -15 49 -17 49 -3 0 6 -8 10 -19 10 -25 0 -45 25 -38 50 3 11 0 23 -6
27 -7 4 -2 10 13 14 24 7 25 7 3 14 -20 7 -33 33 -32 65 0 8 4 5 9 -7 5 -13
16 -23 24 -23 13 0 13 4 1 26 -7 14 -23 35 -36 47 -12 11 -18 22 -12 24 6 2
-4 27 -23 55 -19 28 -33 56 -31 61 3 9 -38 57 -48 57 -3 0 -5 -9 -5 -20z m90
-654 c0 -11 -19 -15 -25 -6 -3 5 1 10 9 10 9 0 16 -2 16 -4z"/>
<path d="M3110 3801 c0 -5 20 -26 43 -49 24 -22 47 -47 50 -56 4 -10 18 -16
36 -16 16 0 31 -6 34 -12 2 -7 8 -10 12 -6 12 12 -5 28 -30 28 -16 0 -38 17
-71 54 -45 53 -74 75 -74 57z"/>
<path d="M2930 3781 c-6 -12 -18 -21 -27 -21 -9 0 -14 -3 -10 -6 9 -10 45 6
51 23 10 24 -1 27 -14 4z"/>
<path d="M7877 3783 c-13 -14 -21 -14 -42 -5 -20 9 -25 9 -25 -3 0 -31 72 -30
84 2 9 23 2 25 -17 6z"/>
<path d="M2860 3760 c0 -5 5 -10 10 -10 6 0 10 5 10 10 0 6 -4 10 -10 10 -5 0
-10 -4 -10 -10z"/>
<path d="M2990 3751 c0 -11 35 -62 70 -102 33 -38 41 -50 66 -96 32 -61 44
-73 44 -46 0 11 -7 26 -15 33 -8 7 -15 19 -15 27 0 8 -9 25 -20 37 -11 11 -43
50 -71 86 -63 80 -59 76 -59 61z"/>
<path d="M6796 3736 c-20 -31 -20 -36 -1 -36 8 0 17 11 21 25 9 36 0 40 -20
11z"/>
<path d="M7510 3751 c0 -4 8 -19 19 -32 22 -29 67 -123 76 -161 8 -30 25 -38
25 -12 0 23 -59 155 -84 186 -21 27 -36 35 -36 19z"/>
<path d="M2518 3723 c-21 -24 -58 -103 -48 -103 11 0 27 22 35 50 4 14 17 35
28 48 11 12 16 22 10 22 -5 0 -17 -8 -25 -17z"/>
<path d="M4350 3669 c-87 -116 -135 -152 -202 -154 -27 -1 -43 2 -37 6 8 4 4
11 -11 19 -26 14 -32 9 -36 -26 -2 -14 -9 -34 -17 -43 -26 -30 -29 -46 -3 -18
27 30 63 36 72 12 4 -8 12 -15 20 -15 18 0 19 4 -21 -84 -19 -43 -35 -84 -35
-92 0 -8 -5 -12 -11 -9 -6 4 -8 13 -5 21 3 8 1 14 -4 14 -6 0 -10 -10 -11 -22
-1 -45 -7 -64 -38 -137 -18 -40 -31 -75 -29 -76 2 -2 19 31 38 73 32 73 103
162 128 162 6 0 24 19 40 43 16 23 40 51 52 62 12 11 26 29 31 40 6 11 -6 2
-25 -20 -31 -35 -35 -37 -29 -15 3 14 13 34 22 45 8 11 -6 0 -32 -25 -45 -42
-65 -67 -32 -40 36 30 -7 -45 -46 -81 -22 -21 -38 -32 -35 -26 3 7 18 44 34
82 17 41 36 71 45 73 9 2 21 18 25 35 5 20 24 44 52 66 24 18 60 55 79 82 33
48 51 61 51 37 0 -29 -37 -119 -50 -123 -8 -3 -16 -19 -17 -37 -4 -60 -202
-378 -236 -378 -16 0 -53 -56 -49 -74 1 -8 -2 -17 -8 -21 -5 -3 -10 -1 -10 5
0 6 -5 8 -11 5 -6 -4 -8 -13 -5 -21 3 -7 0 -16 -6 -20 -7 -5 -8 -2 -3 7 14 24
-64 -45 -217 -193 -66 -63 -228 -181 -228 -165 0 6 -13 -2 -28 -19 -15 -18
-47 -43 -72 -57 -25 -14 -68 -45 -97 -69 -28 -24 -70 -58 -93 -76 l-41 -34 7
29 c4 15 11 30 15 33 11 8 50 102 45 108 -3 3 -10 -6 -15 -19 -5 -13 -14 -36
-20 -51 -11 -29 -30 -38 -32 -15 -3 35 -7 73 -8 85 0 7 -5 11 -9 8 -7 -4 -1
-109 8 -141 6 -21 -21 -63 -89 -134 -39 -41 -71 -77 -71 -80 0 -3 -31 -31 -70
-61 -38 -30 -69 -58 -70 -62 0 -16 19 -7 50 25 20 19 30 25 27 15 -11 -31 10
-20 33 17 19 31 148 139 281 236 26 19 63 47 81 62 18 15 71 56 118 91 103 78
228 175 301 235 126 101 381 409 469 566 61 108 89 179 141 350 16 52 -5 45
-51 -16z m-279 -577 c-5 -10 -18 -25 -28 -33 -12 -10 -11 -5 6 19 24 35 38 43
22 14z m-157 -184 c-91 -96 -156 -150 -362 -303 -147 -109 -271 -205 -417
-324 -10 -9 -4 3 14 27 46 60 259 230 337 270 22 11 66 41 99 66 33 25 70 54
83 64 13 9 87 76 165 149 78 73 143 130 146 127 2 -2 -27 -37 -65 -76z"/>
<path d="M7375 3713 c31 -71 56 -152 58 -182 3 -44 27 -55 27 -12 0 49 -62
211 -82 211 -6 0 -7 -7 -3 -17z"/>
<path d="M6920 3649 c-38 -59 -72 -144 -68 -168 4 -15 58 90 58 111 0 6 8 22
19 36 28 42 43 72 33 72 -5 0 -23 -23 -42 -51z"/>
<path d="M2944 3670 c4 -14 12 -46 16 -73 10 -56 30 -118 43 -132 11 -12 6 21
-21 128 -11 44 -25 84 -32 90 -10 10 -11 7 -6 -13z"/>
<path d="M7230 3591 c0 -61 4 -101 10 -101 6 0 10 38 10 94 0 53 -4 98 -10
101 -6 4 -10 -30 -10 -94z"/>
<path d="M7070 3660 c-16 -30 -40 -173 -30 -183 13 -14 19 6 26 79 4 38 11 80
16 93 11 31 3 39 -12 11z"/>
<path d="M2690 3651 c-5 -11 -10 -37 -10 -58 0 -21 -4 -54 -10 -72 -5 -19 -8
-36 -6 -39 10 -9 24 37 29 93 3 33 9 68 12 78 10 23 -2 22 -15 -2z"/>
<path d="M2818 3573 c-5 -80 -3 -92 9 -79 12 12 17 156 5 156 -5 0 -12 -35
-14 -77z"/>
<path d="M2070 3633 c-1 -62 -15 -254 -25 -325 -5 -37 -4 -58 3 -58 13 0 20
43 27 175 3 61 9 121 12 135 5 22 7 21 18 -19 8 -24 19 -83 26 -132 6 -49 16
-89 20 -89 12 0 11 9 -6 120 -19 120 -44 200 -61 200 -8 0 -14 -3 -14 -7z"/>
<path d="M2568 3609 c-10 -17 -18 -36 -18 -43 0 -8 -8 -24 -19 -37 -24 -31
-45 -102 -28 -96 6 2 14 17 18 34 3 17 16 43 28 58 11 15 21 35 21 44 0 9 7
25 15 35 16 22 19 36 8 36 -5 0 -16 -14 -25 -31z"/>
<path d="M3270 3625 c0 -8 5 -15 10 -15 6 0 10 7 10 15 0 8 -4 15 -10 15 -5 0
-10 -7 -10 -15z"/>
<path d="M2370 3605 c-7 -9 -10 -18 -7 -21 3 -3 10 4 17 15 13 25 8 27 -10 6z"/>
<path d="M2425 3583 c-15 -41 -23 -104 -11 -100 6 2 14 19 18 38 3 19 9 44 13
57 9 26 -10 31 -20 5z"/>
<path d="M3311 3562 c-1 -20 23 -92 31 -92 5 0 8 6 8 13 -1 17 -38 95 -39 79z"/>
<path d="M7381 3554 c0 -11 3 -14 6 -6 3 7 2 16 -1 19 -3 4 -6 -2 -5 -13z"/>
<path d="M1020 3490 c0 -6 7 -13 15 -16 8 -4 15 -12 15 -18 0 -7 11 -23 25
-36 l25 -23 0 21 c0 12 -6 22 -14 22 -8 0 -18 9 -21 20 -7 23 -45 48 -45 30z"/>
<path d="M7792 3468 c3 -7 13 -15 24 -17 16 -3 17 -1 5 13 -16 19 -34 21 -29
4z"/>
<path d="M8721 3457 c-6 -8 -17 -31 -25 -53 -24 -69 -91 -197 -138 -265 -25
-37 -48 -73 -50 -80 -3 -8 -8 -11 -12 -8 -4 4 22 66 58 138 53 107 64 140 64
181 1 37 -3 53 -15 57 -22 9 -42 -21 -123 -182 -65 -129 -129 -224 -210 -315
l-31 -35 18 35 c10 19 20 37 23 40 18 17 120 186 120 199 0 9 9 40 20 69 41
107 7 197 -40 106 -8 -16 -28 -51 -44 -79 -16 -27 -45 -79 -65 -115 -58 -104
-155 -260 -163 -260 -5 0 -8 11 -8 25 0 14 -5 44 -12 68 -9 34 -18 46 -40 55
-22 8 -28 7 -28 -4 0 -7 8 -18 19 -23 17 -10 22 -24 41 -113 6 -34 4 -40 -29
-71 -52 -49 -75 -60 -104 -46 -36 16 -51 54 -32 82 8 12 22 51 31 86 8 35 25
84 36 110 44 104 39 187 -11 174 -21 -5 -73 -80 -86 -122 -4 -12 -18 -39 -31
-58 -13 -20 -21 -40 -18 -45 6 -10 59 68 75 110 15 39 49 82 65 82 8 0 14 -4
14 -10 0 -5 -6 -7 -13 -4 -8 3 -18 -6 -25 -21 -15 -33 -16 -95 -1 -95 13 0 12
-4 -35 -130 -24 -63 -34 -104 -30 -122 7 -35 48 -68 83 -68 39 0 143 100 199
192 26 42 78 128 116 190 38 62 80 134 93 161 13 26 28 47 34 47 14 0 11 -9
-10 -37 -16 -19 -18 -29 -10 -47 15 -31 -19 -114 -95 -231 -32 -49 -65 -101
-74 -115 -9 -14 -28 -38 -44 -55 -15 -16 -28 -33 -28 -37 0 -13 15 -9 32 10 9
9 31 28 50 41 33 25 110 111 159 180 27 38 99 169 156 284 18 37 38 67 44 67
6 0 1 -15 -11 -34 -17 -28 -19 -38 -9 -53 9 -16 2 -38 -45 -134 -30 -63 -71
-133 -91 -156 -19 -23 -35 -46 -35 -51 0 -19 28 -6 57 24 15 17 33 33 38 35 6
2 26 26 45 54 19 27 49 68 65 90 17 22 50 84 75 138 60 131 81 130 40 -2 -43
-138 -132 -265 -276 -397 -52 -48 -109 -96 -127 -107 -17 -11 -38 -28 -45 -38
-7 -10 -34 -33 -60 -51 -26 -18 -53 -38 -60 -45 -14 -13 -25 -16 -53 -14 -10
1 -16 -5 -15 -15 0 -11 -29 -39 -78 -74 -80 -58 -124 -105 -111 -118 3 -4 12
1 19 11 7 9 20 17 27 17 14 0 39 20 117 94 38 36 45 39 63 28 26 -16 37 -8 19
14 -12 13 -11 17 1 25 8 5 17 9 20 9 3 0 17 10 30 21 13 12 40 33 59 47 196
147 401 363 440 466 5 14 16 26 24 26 9 0 13 6 10 13 -2 7 6 46 20 85 13 40
23 80 21 90 -16 78 -21 86 -44 59z m-731 -307 c0 -5 -5 -10 -11 -10 -5 0 -7 5
-4 10 3 6 8 10 11 10 2 0 4 -4 4 -10z m-10 -35 c0 -8 -4 -15 -10 -15 -5 0 -7
7 -4 15 4 8 8 15 10 15 2 0 4 -7 4 -15z"/>
<path d="M2830 3421 c0 -11 -4 -23 -10 -26 -5 -3 -10 -1 -10 4 0 6 -4 11 -10
11 -5 0 -10 -7 -10 -15 0 -8 -4 -15 -10 -15 -5 0 -10 5 -10 11 0 8 -4 9 -13 0
-8 -6 -17 -8 -20 -5 -4 4 -11 -5 -16 -18 -8 -20 -15 -25 -35 -21 -18 4 -28 0
-32 -11 -3 -9 -11 -13 -16 -10 -6 4 -13 1 -17 -5 -6 -10 -72 -26 -143 -35 -26
-3 -34 -16 -18 -26 19 -12 53 -13 46 -1 -9 13 29 20 49 9 9 -6 30 -8 46 -4 15
3 31 1 34 -4 4 -6 20 -4 41 5 18 7 34 11 34 7 0 -4 7 2 15 12 8 11 15 15 15 9
0 -16 80 -10 91 8 5 7 9 9 9 3 0 -11 152 -11 237 0 25 3 55 0 73 -8 27 -11 38
-11 76 3 47 17 57 35 23 44 -15 4 -23 0 -26 -14 -7 -25 -29 -24 -36 2 -5 17
-11 20 -32 15 -18 -5 -27 -2 -31 9 -5 11 -10 13 -19 5 -9 -8 -17 -6 -29 6 -19
19 -21 18 -35 -16 l-10 -25 0 26 c-1 33 -14 38 -81 35 -45 -3 -54 0 -80 25
-34 34 -40 36 -40 10z m20 -61 c0 -5 -8 -10 -17 -10 -15 0 -16 2 -3 10 19 12
20 12 20 0z"/>
<path d="M3913 3383 c-47 -51 -51 -65 -10 -32 15 11 37 19 49 17 16 -2 28 5
41 25 23 38 22 45 -4 13 -26 -33 -43 -34 -35 -1 4 14 5 25 4 25 -2 0 -22 -22
-45 -47z"/>
<path d="M4060 3422 c0 -5 -19 -31 -42 -58 -24 -27 -51 -61 -61 -74 -17 -24
-17 -24 -2 14 18 46 18 46 5 46 -13 0 -54 -86 -46 -98 6 -10 -41 -82 -54 -82
-5 0 2 25 16 56 14 31 23 61 22 66 -2 5 -12 -13 -22 -41 -12 -35 -22 -48 -32
-44 -8 3 -14 9 -14 15 0 5 5 6 10 3 6 -4 10 7 10 24 0 45 -13 38 -41 -20 l-24
-51 -11 27 c-11 26 -11 26 -32 -30 -12 -31 -22 -65 -22 -74 0 -10 -9 -26 -20
-36 -25 -23 -25 -12 1 42 11 23 19 51 17 60 -3 11 -9 1 -17 -26 -7 -24 -19
-54 -27 -67 -12 -18 -12 -23 -2 -27 10 -3 9 -9 -5 -23 -16 -18 -17 -15 -14 54
1 40 -1 72 -5 72 -10 0 -48 -51 -47 -64 0 -7 3 -6 6 2 2 6 9 12 15 12 6 0 9
-26 7 -67 -3 -55 -1 -68 11 -68 8 0 51 54 96 121 l82 121 8 -41 c5 -23 14 -41
19 -41 6 0 53 57 105 127 124 166 124 166 116 103 -5 -39 -4 -46 5 -32 6 10
12 38 14 63 3 34 1 44 -10 44 -8 0 -15 -4 -15 -8z m-299 -249 c-12 -20 -14
-14 -5 12 4 9 9 14 11 11 3 -2 0 -13 -6 -23z m-19 -55 c-8 -8 -9 -4 -5 13 4
13 8 18 11 10 2 -7 -1 -18 -6 -23z"/>
<path d="M7580 3408 c-145 -52 -263 -63 -314 -29 l-30 20 -44 -26 c-39 -23
-54 -26 -145 -26 -112 0 -187 6 -231 18 -43 12 -29 -14 26 -46 50 -29 93 -40
266 -64 137 -20 173 -16 326 36 139 48 191 73 211 102 30 43 19 45 -65 15z
m-350 -42 c0 -2 -8 -10 -17 -17 -16 -13 -17 -12 -4 4 13 16 21 21 21 13z
m-280 -35 c12 -1 12 -3 2 -9 -16 -11 -74 -3 -66 9 3 5 15 7 27 5 12 -3 29 -5
37 -5z m210 -6 c-7 -8 -18 -15 -24 -15 -6 0 -2 7 8 15 25 19 32 19 16 0z m-85
-5 c-3 -5 -12 -10 -18 -10 -7 0 -6 4 3 10 19 12 23 12 15 0z m-87 -16 c-10
-10 -21 -13 -29 -8 -12 7 0 14 41 23 2 1 -3 -6 -12 -15z m442 11 c0 -2 -13
-11 -30 -20 -16 -9 -30 -12 -30 -7 0 4 12 13 28 19 15 6 28 11 30 12 1 1 2 -1
2 -4z m-400 -15 c0 -5 -8 -10 -17 -10 -15 0 -16 2 -3 10 19 12 20 12 20 0z
m208 -4 c-24 -18 -23 -25 4 -18 13 3 19 1 15 -5 -7 -11 -77 -14 -77 -4 0 6 60
39 70 40 3 0 -3 -6 -12 -13z m-72 -11 c-24 -18 -62 -19 -69 -2 -3 9 8 13 42
14 42 2 44 1 27 -12z m154 1 c0 -2 -7 -7 -16 -10 -8 -3 -12 -2 -9 4 6 10 25
14 25 6z"/>
<path d="M7860 3415 c-10 -12 -8 -16 13 -24 14 -6 31 -22 39 -38 14 -30 43
-42 61 -24 7 7 3 13 -15 20 -14 5 -35 26 -48 45 -24 40 -32 43 -50 21z"/>
<path d="M1460 3401 c0 -22 32 -81 43 -79 18 4 77 -43 93 -74 18 -35 18 -38
-5 -38 -10 0 -43 28 -76 65 -32 37 -68 68 -83 72 -15 3 -30 11 -34 17 -6 8 -8
8 -8 -1 0 -16 30 -44 40 -38 4 3 31 -21 59 -52 63 -70 99 -95 126 -87 28 9 28
9 11 43 -23 44 -19 61 6 26 36 -48 140 -155 152 -155 27 1 39 20 38 59 -1 23
0 41 2 41 9 0 116 -147 125 -172 11 -29 31 -38 31 -15 0 23 -21 182 -26 200
-10 32 14 17 31 -20 10 -21 27 -50 37 -64 16 -22 79 -181 121 -306 5 -18 16
-33 23 -33 7 0 14 15 16 33 l3 32 30 -48 c44 -72 80 -111 93 -103 7 4 12 27
12 52 0 24 4 44 8 44 8 0 62 -111 62 -127 0 -5 19 -38 42 -74 23 -35 49 -84
59 -109 26 -69 39 -62 40 22 1 118 10 123 49 27 34 -86 42 -166 25 -251 -5
-24 -4 -29 4 -18 6 8 11 34 11 58 0 68 15 49 34 -45 32 -155 56 -287 55 -308
0 -16 -3 -15 -15 8 -9 16 -18 27 -21 24 -6 -7 17 -49 35 -63 9 -6 12 -21 9
-42 -3 -18 -2 -32 3 -32 16 0 18 43 5 128 -8 48 -16 102 -19 121 -11 78 -39
220 -54 271 -9 30 -17 61 -18 69 -2 7 -7 18 -13 24 -6 6 -11 19 -11 28 0 24
-45 123 -63 137 -22 19 -31 -1 -32 -70 0 -31 -4 -60 -7 -64 -4 -3 -17 14 -29
38 -12 23 -35 62 -50 85 -16 23 -29 47 -29 54 0 7 -21 56 -47 108 -32 63 -49
89 -51 76 -8 -47 -13 -49 -37 -12 -14 20 -25 43 -25 53 0 24 -33 114 -43 114
-7 0 -1 -36 14 -77 5 -13 5 -23 1 -23 -9 0 -62 104 -62 121 0 17 -30 82 -36
77 -3 -3 2 -22 10 -42 8 -20 12 -34 7 -32 -10 7 -27 48 -41 104 -6 23 -15 40
-21 37 -5 -4 -7 -10 -4 -15 3 -4 7 -32 10 -62 l5 -53 -54 99 c-60 110 -82 132
-92 91 -3 -14 -4 -32 0 -40 13 -35 -17 -11 -50 41 -20 31 -38 53 -41 51 -3 -3
-2 -24 2 -47 5 -31 10 -38 19 -30 10 7 17 0 31 -29 9 -22 26 -41 36 -44 13 -4
19 -14 19 -36 0 -17 -3 -31 -8 -31 -10 0 -107 128 -138 184 -39 71 -50 44 -19
-48 26 -76 26 -96 1 -96 -12 0 -73 61 -163 165 -34 39 -45 46 -56 36 -12 -9
-22 -3 -55 34 -39 44 -52 53 -52 36z m680 -419 c13 -47 13 -72 0 -72 -11 0
-34 51 -45 99 -7 31 -6 32 14 22 11 -6 25 -28 31 -49z m104 -136 c9 3 18 -6
24 -25 6 -17 16 -31 21 -31 6 0 11 -14 11 -31 0 -41 -11 -32 -73 60 -30 42
-50 84 -53 108 -5 36 -3 35 26 -24 20 -40 36 -60 44 -57z"/>
<path d="M2207 3393 c-2 -5 -7 -26 -11 -48 -4 -22 -9 -48 -12 -57 -3 -10 -1
-18 4 -18 4 0 13 17 19 38 10 34 11 30 12 -45 0 -46 5 -83 9 -83 10 0 15 153
7 192 -6 27 -19 36 -28 21z"/>
<path d="M6670 3380 c0 -5 4 -10 9 -10 6 0 13 5 16 10 3 6 -1 10 -9 10 -9 0
-16 -4 -16 -10z"/>
<path d="M3805 3348 c-23 -53 -140 -157 -134 -120 1 4 1 26 0 49 -2 62 -18 48
-74 -61 -26 -51 -57 -102 -68 -112 l-21 -19 3 58 c2 31 1 57 -2 57 -9 0 -59
-74 -59 -87 0 -8 -76 -129 -97 -153 -11 -12 -20 26 -12 48 20 52 -17 13 -74
-79 -32 -52 -63 -93 -70 -92 -18 3 -83 -132 -79 -165 2 -21 1 -24 -8 -12 -8
13 -11 11 -16 -8 -4 -13 -12 -21 -18 -19 -10 4 -12 9 -15 50 -2 34 -29 16 -53
-35 -13 -29 -32 -82 -42 -118 -49 -178 -59 -210 -87 -277 -16 -39 -29 -79 -29
-87 0 -29 29 -4 55 47 15 29 30 59 35 67 8 15 37 84 65 155 l16 40 16 -33 c8
-17 21 -32 28 -32 16 0 88 137 108 205 20 65 56 149 62 143 3 -3 9 -31 13 -63
4 -32 12 -60 18 -62 7 -2 21 22 32 54 11 32 36 93 56 136 19 42 32 77 28 77
-5 0 -25 -35 -45 -77 -39 -84 -46 -86 -22 -7 17 58 18 61 6 49 -14 -15 -41
-126 -28 -118 7 4 8 0 4 -11 -4 -10 -7 -20 -7 -22 0 -2 -4 -4 -10 -4 -14 0
-12 38 4 85 21 62 28 97 18 91 -5 -3 -15 -26 -22 -51 -7 -25 -17 -45 -21 -45
-14 0 -11 28 6 60 8 16 12 35 9 44 -6 16 39 90 49 80 3 -3 3 -12 0 -20 -5 -15
13 -44 28 -44 5 0 11 12 15 28 3 15 19 43 34 62 15 20 37 54 48 77 30 58 42
62 42 14 0 -30 -4 -41 -15 -41 -8 0 -15 -6 -15 -12 -1 -7 -7 -26 -16 -43 l-14
-30 5 28 c7 36 -1 34 -18 -5 -27 -59 -29 -71 -12 -64 11 4 15 -1 15 -17 0 -36
11 -67 24 -67 27 1 138 200 141 255 2 35 1 37 -7 15 -17 -42 -26 -55 -36 -53
-6 1 -20 -28 -33 -65 -12 -37 -25 -71 -30 -76 -13 -14 -11 -3 6 37 8 20 15 48
15 62 0 14 5 25 10 25 6 0 10 4 10 9 0 5 16 33 36 62 20 30 48 78 62 108 l25
54 16 -44 c12 -31 15 -56 10 -84 -8 -46 -3 -62 6 -19 10 48 33 86 84 142 44
48 50 52 59 35 9 -15 13 -16 24 -5 11 11 10 14 -1 21 -8 6 -12 19 -9 35 7 37
-10 32 -27 -6z m-270 -347 c3 -5 1 -12 -5 -16 -5 -3 -10 1 -10 9 0 18 6 21 15
7z m-68 -15 c-3 -8 -2 -16 2 -18 4 -2 1 -19 -8 -38 -14 -32 -15 -33 -19 -12
-3 23 15 82 25 82 3 0 3 -6 0 -14z m-217 -142 c-11 -25 -20 -52 -20 -59 0 -7
-9 -23 -20 -36 -14 -17 -18 -19 -14 -6 3 9 1 17 -5 17 -6 0 -11 -8 -11 -17 -1
-10 -14 -52 -30 -93 -17 -43 -26 -76 -20 -78 6 -2 2 -19 -9 -40 -10 -21 -24
-49 -30 -64 -6 -16 -15 -28 -21 -28 -12 0 -14 52 -2 65 14 16 45 106 38 112
-3 4 -6 0 -6 -7 0 -7 -2 -11 -5 -8 -9 8 6 38 16 32 10 -6 28 36 34 76 5 39 16
60 36 71 11 5 19 16 19 24 0 8 5 15 10 15 6 0 18 16 27 35 25 52 36 43 13 -11z
m-67 -159 c-3 -9 -8 -14 -10 -11 -3 3 -2 9 2 15 9 16 15 13 8 -4z m-116 -115
c2 -2 8 2 13 10 6 8 10 11 10 5 0 -18 -40 -75 -52 -75 -8 0 -24 -24 -36 -52
-63 -143 -105 -229 -109 -224 -6 5 68 219 80 235 6 7 16 28 23 46 9 27 9 32
-2 28 -18 -7 -18 -3 7 53 34 80 43 85 53 28 5 -27 11 -51 13 -54z"/>
<path d="M1250 3361 c0 -5 5 -13 10 -16 6 -3 10 -2 10 4 0 5 -4 13 -10 16 -5
3 -10 2 -10 -4z"/>
<path d="M6570 3333 c-48 -25 -72 -46 -93 -79 -15 -24 -26 -47 -25 -51 0 -5
-2 -16 -7 -26 -4 -10 -5 -21 -1 -24 3 -3 9 3 13 13 3 10 13 30 22 43 8 13 16
31 18 40 3 21 40 50 108 85 30 15 55 29 55 32 0 10 -30 -1 -90 -33z"/>
<path d="M1650 3356 c0 -3 17 -33 37 -68 26 -44 38 -58 41 -45 2 10 -2 25 -8
33 -7 8 -20 29 -29 46 -14 27 -41 50 -41 34z"/>
<path d="M1365 3330 c3 -5 8 -10 11 -10 2 0 4 5 4 10 0 6 -5 10 -11 10 -5 0
-7 -4 -4 -10z"/>
<path d="M8000 3326 c0 -2 7 -20 15 -39 14 -35 35 -58 35 -39 0 20 -31 82 -40
82 -6 0 -10 -2 -10 -4z"/>
<path d="M1385 3300 c3 -5 8 -10 11 -10 2 0 4 5 4 10 0 6 -5 10 -11 10 -5 0
-7 -4 -4 -10z"/>
<path d="M1290 3280 c0 -5 5 -10 11 -10 5 0 7 5 4 10 -3 6 -8 10 -11 10 -2 0
-4 -4 -4 -10z"/>
<path d="M1430 3275 c0 -8 4 -15 10 -15 5 0 7 7 4 15 -4 8 -8 15 -10 15 -2 0
-4 -7 -4 -15z"/>
<path d="M6591 3251 c-24 -46 -25 -51 -11 -51 6 0 10 8 10 18 0 10 7 28 16 40
9 13 14 26 11 29 -3 3 -15 -13 -26 -36z"/>
<path d="M5884 3266 c-6 -16 34 -101 43 -92 3 3 0 12 -6 20 -7 8 -11 27 -9 43
l3 27 39 -39 c21 -22 48 -60 61 -85 27 -51 106 -131 214 -213 66 -51 88 -63
114 -58 5 1 11 -8 14 -19 3 -11 12 -20 19 -20 35 0 -2 44 -77 93 -30 20 -61
43 -69 52 -8 9 -20 13 -32 9 -23 -7 -137 104 -168 166 -50 98 -129 161 -146
116z"/>
<path d="M1230 3265 c0 -7 61 -47 66 -42 3 2 -11 14 -31 25 -19 12 -35 20 -35
17z"/>
<path d="M7610 3238 c-7 -18 -24 -48 -38 -66 -28 -39 -22 -56 7 -21 23 27 57
107 49 115 -3 2 -11 -10 -18 -28z"/>
<path d="M6366 3197 c-61 -85 -76 -127 -45 -127 8 0 24 40 21 53 -2 8 56 97
64 97 2 0 -3 -16 -11 -36 -17 -42 -18 -44 -7 -44 5 0 15 19 22 43 7 23 17 46
22 52 12 14 10 25 -6 25 -8 0 -35 -28 -60 -63z"/>
<path d="M1430 3215 c19 -19 35 -35 37 -35 7 0 2 46 -7 60 -8 12 -11 13 -19 1
-6 -9 -11 -10 -15 -2 -4 6 -12 11 -19 11 -6 0 4 -16 23 -35z"/>
<path d="M6057 3243 c-16 -15 -5 -53 26 -94 18 -24 48 -70 67 -101 32 -54 50
-71 50 -48 0 6 -4 10 -9 10 -5 0 -11 8 -15 18 -3 9 -28 52 -56 95 -52 82 -60
107 -35 107 8 0 15 -4 15 -9 0 -5 6 -16 14 -23 7 -8 21 -29 31 -48 55 -105
162 -206 285 -268 36 -18 82 -43 103 -55 38 -22 38 -22 53 -2 17 23 11 81 -12
127 -18 35 -18 44 0 29 11 -9 20 -9 34 -2 18 9 23 4 49 -52 17 -34 33 -72 37
-85 13 -38 110 -214 133 -239 7 -7 24 -36 39 -63 36 -66 58 -75 37 -15 -8 24
-13 56 -11 72 4 27 5 26 25 -18 11 -25 31 -81 43 -125 12 -46 31 -90 45 -104
14 -15 30 -54 40 -95 23 -91 29 -95 22 -15 -5 61 -5 63 8 34 7 -18 20 -65 28
-105 18 -88 33 -129 46 -129 5 0 11 8 14 18 6 25 24 -24 39 -104 7 -35 16 -64
20 -64 12 0 9 38 -6 94 -8 28 -19 67 -24 86 -5 19 -14 34 -20 33 -7 -2 -9 14
-7 43 2 36 10 53 36 80 44 45 54 43 29 -6 -29 -57 -8 -50 56 19 31 33 61 58
68 55 14 -5 48 32 100 110 38 59 71 78 38 22 -26 -43 -9 -49 26 -8 13 15 42
47 66 72 48 52 89 117 77 125 -5 2 -30 -27 -55 -65 -46 -68 -80 -105 -57 -62
14 27 14 42 -1 42 -17 0 -114 -108 -134 -148 -9 -20 -21 -31 -29 -28 -8 3 -37
-20 -69 -55 -31 -33 -56 -56 -56 -51 0 4 5 13 11 19 23 23 -1 34 -33 16 -31
-19 -88 -83 -88 -101 0 -5 -7 -15 -15 -22 -12 -10 -15 -7 -20 17 -19 87 -27
119 -40 143 -8 15 -11 37 -8 48 3 13 1 22 -6 22 -6 0 -11 -9 -11 -20 0 -27
-18 -25 -22 3 -2 12 -10 22 -18 22 -9 0 -21 25 -35 75 -24 85 -83 203 -97 194
-6 -4 -7 -19 -4 -35 3 -16 2 -29 -3 -29 -12 0 -51 67 -51 87 0 8 -8 17 -18 20
-18 4 -82 121 -118 213 -9 25 -22 52 -28 60 -6 8 -22 37 -36 63 -29 56 -84
112 -99 103 -18 -12 -12 -74 14 -139 23 -58 44 -137 45 -164 0 -15 -45 0 -70
22 -8 7 -43 25 -78 39 -35 14 -86 44 -115 68 -28 24 -60 50 -70 58 -10 8 -36
47 -59 85 -71 120 -82 135 -104 135 -11 0 -24 -3 -27 -7z m501 -166 c4 -29
-12 -37 -22 -11 -10 26 -7 46 7 42 6 -3 13 -17 15 -31z m42 -65 c0 -38 -25
-11 -28 30 -2 31 -1 32 13 14 8 -11 15 -31 15 -44z m770 -692 c0 -5 -5 -10
-11 -10 -5 0 -7 5 -4 10 3 6 8 10 11 10 2 0 4 -4 4 -10z m-220 -207 c-1 -24
-2 -26 -11 -10 -5 9 -7 22 -4 27 10 17 15 11 15 -17z"/>
<path d="M6632 3225 c-7 -15 -11 -30 -8 -32 7 -7 28 36 24 49 -2 6 -9 -2 -16
-17z"/>
<path d="M7846 3227 c-5 -15 -6 -31 -2 -34 11 -11 18 5 14 34 l-4 28 -8 -28z"/>
<path d="M2837 3228 c-15 -11 -13 -13 18 -14 28 0 32 2 24 13 -14 16 -21 16
-42 1z"/>
<path d="M2947 3234 c-4 -4 -7 -14 -7 -23 0 -11 3 -12 11 -4 6 6 10 16 7 23
-2 6 -7 8 -11 4z"/>
<path d="M3095 3225 c-5 -11 -15 -36 -23 -55 -9 -19 -18 -39 -20 -45 -3 -5 6
0 19 11 13 12 31 24 39 27 12 4 11 6 -2 6 -21 1 -22 5 -7 32 6 11 8 25 6 32
-3 7 -8 4 -12 -8z"/>
<path d="M5800 3225 c-7 -8 -12 -31 -12 -51 0 -29 8 -44 37 -73 37 -36 38 -30
3 21 -10 14 -18 40 -18 58 0 49 28 35 70 -35 41 -69 162 -201 193 -211 12 -3
31 -14 42 -24 23 -20 55 -33 55 -22 -1 10 -75 62 -89 62 -23 0 -167 156 -195
211 -31 62 -66 88 -86 64z"/>
<path d="M6830 3203 c0 -49 38 -127 65 -132 20 -3 19 -3 -1 20 -32 35 -44 64
-46 104 -2 49 -18 56 -18 8z"/>
<path d="M2650 3220 c-13 -8 -12 -10 3 -10 9 0 17 5 17 10 0 12 -1 12 -20 0z"/>
<path d="M8060 3224 c0 -6 12 -42 26 -80 14 -38 28 -81 31 -96 6 -32 33 -60
33 -35 0 22 -57 175 -75 200 -8 12 -15 17 -15 11z"/>
<path d="M3240 3201 c-5 -11 -15 -32 -21 -48 -15 -41 6 -15 25 30 16 39 14 50
-4 18z"/>
<path d="M7452 3169 c-13 -26 -32 -51 -43 -54 -19 -6 -18 -25 1 -25 16 0 84
110 74 119 -5 5 -19 -11 -32 -40z"/>
<path d="M1320 3201 c0 -12 147 -110 176 -117 13 -3 24 -10 24 -14 0 -5 24
-20 53 -34 51 -26 133 -81 172 -116 11 -9 36 -23 56 -29 20 -7 45 -21 55 -32
11 -12 36 -30 57 -41 39 -19 75 -45 205 -146 65 -50 230 -224 286 -302 12 -15
53 -66 92 -112 39 -46 79 -99 89 -118 10 -19 27 -47 39 -61 12 -15 27 -35 34
-45 11 -17 12 -17 5 6 -3 14 -6 34 -6 45 1 11 -1 14 -4 7 -4 -10 -9 -9 -24 4
-10 9 -19 22 -19 28 -1 16 -167 230 -268 344 -26 30 -56 71 -67 93 -12 22 -24
37 -28 33 -4 -4 -28 13 -55 37 -117 108 -288 233 -387 284 -27 14 -77 44 -110
65 -33 22 -67 43 -75 47 -8 4 -17 9 -20 12 -8 10 -173 108 -212 127 -21 10
-38 21 -38 25 0 4 -7 9 -15 13 -8 3 -15 2 -15 -3z"/>
<path d="M2283 3177 c-15 -18 -23 -57 -12 -57 5 0 9 6 9 14 0 8 4 18 10 21 6
3 8 -14 6 -45 -3 -51 5 -63 23 -32 9 16 10 16 16 -1 7 -18 3 -48 -10 -79 -4
-11 -3 -18 4 -18 12 0 27 46 23 70 -7 46 -14 60 -27 60 -10 0 -15 11 -15 34 0
38 -12 53 -27 33z"/>
<path d="M2633 3183 c9 -2 23 -2 30 0 6 3 -1 5 -18 5 -16 0 -22 -2 -12 -5z"/>
<path d="M2827 3177 c-27 -12 -26 -12 21 -12 41 0 46 2 33 12 -19 15 -19 15
-54 0z"/>
<path d="M6860 3182 c0 -13 49 -56 56 -50 3 3 -7 18 -21 32 -27 27 -35 31 -35
18z"/>
<path d="M7035 3133 c22 -53 44 -85 54 -78 11 6 -46 115 -60 115 -5 0 -2 -17
6 -37z"/>
<path d="M1580 3152 c0 -4 19 -17 43 -30 23 -12 54 -33 67 -45 14 -12 50 -42
80 -67 30 -25 63 -53 73 -63 22 -22 36 -15 16 9 -21 26 -158 136 -213 172 -51
32 -66 38 -66 24z"/>
<path d="M5930 3151 c0 -13 83 -123 111 -146 50 -42 150 -108 155 -102 3 3
-13 17 -35 32 -78 49 -172 140 -196 191 -15 31 -35 46 -35 25z"/>
<path d="M2620 3140 c-24 -15 -7 -18 30 -4 31 11 32 13 10 13 -14 0 -32 -3
-40 -9z"/>
<path d="M2800 3130 c-24 -15 -7 -18 20 -3 14 7 18 13 10 13 -8 0 -22 -4 -30
-10z"/>
<path d="M7175 3120 c-3 -5 -1 -18 4 -27 9 -16 10 -14 11 10 0 28 -5 34 -15
17z"/>
<path d="M3110 3110 c-18 -12 -2 -12 25 0 13 6 15 9 5 9 -8 0 -22 -4 -30 -9z"/>
<path d="M7760 3080 c0 -25 4 -39 10 -35 6 3 10 19 10 35 0 16 -4 32 -10 35
-6 4 -10 -10 -10 -35z"/>
<path d="M2640 3096 c0 -2 7 -6 15 -10 8 -3 15 -1 15 4 0 6 -7 10 -15 10 -8 0
-15 -2 -15 -4z"/>
<path d="M3861 3003 c-44 -53 -81 -101 -81 -105 0 -11 89 90 143 165 49 66 22
40 -62 -60z"/>
<path d="M7710 3075 c-4 -20 2 -70 11 -85 6 -11 8 -7 8 15 -1 32 -16 87 -19
70z"/>
<path d="M6381 3031 c-23 -45 -25 -51 -13 -51 10 0 44 81 38 88 -3 2 -14 -14
-25 -37z"/>
<path d="M3746 2925 c-72 -147 -85 -184 -31 -90 19 33 35 54 35 47 0 -7 5 -10
11 -6 8 5 8 8 0 13 -15 10 5 67 25 75 9 3 12 10 9 16 -4 6 3 26 15 45 12 19
17 35 12 35 -5 0 -39 -61 -76 -135z"/>
<path d="M5860 3052 c0 -11 27 -42 37 -42 3 0 -2 10 -13 23 -10 12 -20 24 -21
26 -2 2 -3 -1 -3 -7z"/>
<path d="M6780 3048 c0 -8 5 -19 11 -25 8 -8 7 -23 -6 -57 -22 -57 -13 -73 10
-20 19 44 32 113 20 102 -5 -4 -14 -3 -22 3 -10 9 -13 8 -13 -3z"/>
<path d="M1830 3048 c0 -9 41 -78 46 -78 2 0 4 6 4 14 0 15 -49 78 -50 64z"/>
<path d="M2829 3035 c-4 -3 -5 -32 -2 -64 3 -31 0 -97 -7 -146 -13 -99 -23
-351 -10 -275 4 25 10 90 14 145 4 55 10 129 14 165 7 69 1 186 -9 175z"/>
<path d="M2868 2895 c-2 -80 0 -145 5 -145 8 0 9 22 11 177 1 62 -2 113 -6
113 -4 0 -8 -65 -10 -145z"/>
<path d="M7636 3012 c-9 -14 14 -92 26 -92 9 0 3 44 -12 84 -4 13 -9 16 -14 8z"/>
<path d="M5860 2991 c0 -13 141 -143 148 -137 3 4 -18 28 -46 54 -58 53 -70
77 -19 38 19 -15 39 -26 45 -26 6 0 12 -4 14 -10 2 -5 35 -30 73 -56 39 -25
59 -43 45 -39 l-25 6 25 -22 c14 -12 24 -26 22 -31 -8 -29 106 -99 233 -142
28 -9 86 -36 130 -59 84 -45 141 -104 152 -158 3 -16 12 -34 20 -40 8 -7 21
-28 28 -46 8 -19 19 -32 24 -28 18 10 116 -163 127 -226 4 -19 15 -43 24 -54
16 -18 120 -267 120 -288 0 -4 22 -55 49 -112 27 -57 52 -118 56 -137 4 -18
21 -62 38 -98 16 -36 34 -75 40 -87 13 -28 82 -77 96 -68 18 10 12 25 -9 25
-10 0 -24 9 -30 21 -7 12 -18 18 -26 15 -9 -3 -17 1 -20 12 -3 9 -18 49 -34
87 -16 39 -34 92 -40 119 -6 27 -20 61 -30 77 -11 15 -20 33 -20 41 0 8 -4 18
-9 24 -9 9 -111 263 -111 276 0 5 -11 31 -25 60 -14 28 -25 57 -25 62 0 12
-42 95 -124 246 -32 58 -55 89 -63 86 -14 -6 -43 42 -43 71 -2 63 -179 174
-368 232 -51 15 -85 33 -110 57 l-37 35 39 -21 c51 -28 70 -20 23 9 -20 12
-37 28 -37 35 0 7 -30 33 -67 57 -38 23 -89 60 -114 81 -25 21 -50 38 -56 38
-6 0 -13 5 -15 11 -4 13 -68 22 -68 10z"/>
<path d="M6814 2937 c-18 -40 -21 -54 -11 -65 9 -12 14 -7 29 27 19 44 34 57
18 15 -22 -56 -8 -55 15 1 14 33 25 61 25 61 0 1 -12 4 -26 7 -23 4 -29 -1
-50 -46z"/>
<path d="M7543 2960 c4 -19 9 -59 13 -88 4 -31 10 -50 16 -44 11 11 -7 142
-23 156 -9 8 -10 3 -6 -24z"/>
<path d="M7821 2956 c-8 -20 -8 -33 -2 -39 13 -13 24 13 19 45 -4 22 -5 22
-17 -6z"/>
<path d="M6936 2925 c-17 -36 -46 -113 -46 -123 0 -16 19 18 30 53 7 22 21 55
32 73 11 17 15 32 10 32 -5 0 -17 -16 -26 -35z"/>
<path d="M7462 2893 c14 -108 29 -142 23 -54 -6 83 -14 121 -24 121 -4 0 -4
-30 1 -67z"/>
<path d="M6436 2925 c-3 -8 -1 -15 4 -15 6 0 10 7 10 15 0 8 -2 15 -4 15 -2 0
-6 -7 -10 -15z"/>
<path d="M6963 2897 c-26 -53 -40 -112 -24 -103 6 4 11 17 11 29 0 12 11 43
24 70 13 26 20 47 17 47 -4 0 -16 -19 -28 -43z"/>
<path d="M7345 2920 c3 -14 9 -49 12 -77 3 -29 10 -53 16 -53 16 0 -1 122 -19
140 -15 14 -16 13 -9 -10z"/>
<path d="M1941 2920 c-1 -8 13 -31 30 -50 17 -19 38 -45 46 -57 22 -32 36 -28
19 5 -22 41 -95 119 -95 102z"/>
<path d="M8300 2920 c0 -5 5 -10 10 -10 6 0 10 5 10 10 0 6 -4 10 -10 10 -5 0
-10 -4 -10 -10z"/>
<path d="M7046 2910 c-20 -34 -49 -183 -34 -174 4 3 8 15 8 27 0 25 26 126 34
135 16 15 16 -15 2 -99 -19 -107 -20 -143 -6 -134 6 3 10 27 10 53 0 26 7 78
15 117 8 38 15 72 15 75 0 7 -41 7 -44 0z"/>
<path d="M2345 2877 c-5 -11 -1 -23 12 -35 29 -25 83 -98 83 -111 0 -12 13
-15 22 -6 3 3 -3 22 -13 43 -11 20 -19 45 -20 57 -1 17 -2 16 -8 -5 l-7 -25
-19 33 c-11 17 -23 32 -26 32 -4 0 -9 8 -12 18 -4 16 -4 16 -12 -1z"/>
<path d="M3579 2865 c-6 -79 -17 -135 -29 -135 -5 0 -12 20 -16 45 -3 25 -10
45 -15 45 -5 0 -6 -12 -4 -27 7 -39 13 -76 14 -88 1 -5 6 -3 12 5 8 11 9 6 5
-20 -5 -29 -4 -32 6 -16 24 43 50 183 37 206 -6 11 -9 7 -10 -15z"/>
<path d="M6997 2883 c-2 -4 -8 -30 -11 -58 -4 -27 -10 -61 -12 -75 -4 -18 -3
-21 4 -10 11 18 35 140 29 147 -3 2 -7 1 -10 -4z"/>
<path d="M7256 2853 c-7 -45 -8 -88 -1 -82 8 9 22 119 15 119 -4 0 -10 -17
-14 -37z"/>
<path d="M7390 2830 c-1 -36 -1 -69 1 -75 2 -5 2 -38 1 -72 -2 -39 1 -63 7
-63 7 0 11 40 10 113 -1 129 -16 203 -19 97z"/>
<path d="M7297 2863 c-4 -3 -7 -29 -7 -56 0 -63 13 -53 18 13 3 49 2 56 -11
43z"/>
<path d="M7527 2823 c5 -67 12 -93 24 -93 6 0 8 7 5 16 -3 9 -9 40 -12 70 -8
67 -22 72 -17 7z"/>
<path d="M7120 2841 c-5 -11 -12 -59 -14 -108 l-5 -88 9 68 c6 37 14 85 19
107 10 44 7 50 -9 21z"/>
<path d="M7731 2758 c-43 -97 -46 -108 -33 -108 9 0 92 172 92 190 0 30 -22
-1 -59 -82z"/>
<path d="M6050 2830 c0 -6 7 -10 15 -10 8 0 15 2 15 4 0 2 -7 6 -15 10 -8 3
-15 1 -15 -4z"/>
<path d="M2185 2743 c4 -10 14 -38 22 -63 15 -43 33 -74 39 -68 1 2 -6 28 -17
58 -11 30 -23 63 -26 73 -3 9 -10 17 -15 17 -6 0 -7 -8 -3 -17z"/>
<path d="M7145 2740 c-10 -11 -13 -20 -7 -20 6 0 16 9 22 20 6 11 9 20 7 20
-2 0 -12 -9 -22 -20z"/>
<path d="M2852 2612 c-15 -156 -15 -312 -1 -267 6 17 7 59 4 94 -4 40 0 106
11 174 10 66 13 112 7 118 -5 5 -14 -41 -21 -119z"/>
<path d="M3422 2728 c-7 -7 -12 -16 -12 -21 0 -8 -48 -123 -76 -181 -14 -28
-14 -29 5 -12 11 10 22 30 26 44 3 15 22 60 41 101 34 73 39 92 16 69z"/>
<path d="M1750 2641 c0 -53 4 -91 10 -91 12 0 11 168 -1 176 -5 3 -9 -36 -9
-85z"/>
<path d="M1816 2712 c-12 -11 -5 -50 10 -63 13 -10 17 -10 25 2 15 25 10 56
-10 62 -11 3 -22 2 -25 -1z"/>
<path d="M3865 2709 c-4 -6 -2 -15 5 -19 9 -5 11 -21 6 -52 -5 -32 -3 -48 6
-56 10 -8 13 4 13 60 0 68 -13 96 -30 67z"/>
<path d="M2070 2653 c52 -42 262 -253 333 -336 34 -39 72 -83 85 -97 19 -21
100 -158 156 -265 8 -16 15 -24 16 -16 0 16 -43 102 -94 185 -35 58 -159 214
-226 285 -19 21 -73 79 -120 129 -55 60 -103 101 -135 117 l-50 25 35 -27z"/>
<path d="M1791 2650 c-2 -60 12 -102 35 -111 14 -5 24 -17 24 -29 0 -21 67
-196 82 -217 5 -6 18 -33 28 -60 14 -36 19 -42 19 -23 0 14 -9 45 -20 70 -57
122 -91 220 -96 278 -6 67 -23 86 -23 25 0 -35 -1 -36 -15 -17 -8 10 -15 30
-15 44 -1 14 -5 34 -10 45 -8 18 -9 18 -9 -5z"/>
<path d="M6093 2648 c-23 -31 -51 -178 -34 -178 6 0 11 11 11 25 0 35 22 115
32 115 5 0 5 -18 2 -40 -5 -33 -4 -40 10 -40 17 0 19 6 16 60 -2 65 -16 85
-37 58z"/>
<path d="M6262 2627 c-11 -13 -22 -50 -27 -94 -16 -133 -17 -151 -6 -157 7 -5
11 8 11 41 0 45 18 114 33 129 4 4 7 17 7 28 0 17 -2 18 -10 6 -8 -13 -10 -12
-10 3 0 10 5 27 10 38 12 22 8 25 -8 6z"/>
<path d="M3789 2593 c-1 -4 -2 -30 -3 -58 -2 -27 -6 -58 -10 -67 -5 -10 -4
-18 1 -18 10 0 33 79 33 115 0 22 -18 47 -21 28z"/>
<path d="M1976 2569 c-6 -18 -26 -164 -26 -186 0 -11 3 -13 9 -7 9 9 20 91 21
147 0 15 4 27 8 27 13 0 31 -67 41 -153 9 -73 15 -97 25 -86 8 9 -15 166 -29
206 -18 48 -42 73 -49 52z"/>
<path d="M3706 2569 c-43 -119 -106 -327 -103 -339 5 -18 -3 -37 67 178 29 89
50 165 47 169 -4 3 -9 0 -11 -8z"/>
<path d="M6182 2528 c-13 -43 -21 -101 -27 -218 -3 -52 -8 -114 -11 -137 -3
-23 -1 -44 5 -47 5 -4 12 34 15 91 4 54 13 152 21 217 15 124 14 151 -3 94z"/>
<path d="M3827 2478 c-19 -29 -44 -62 -56 -72 -22 -20 -28 -36 -13 -36 5 0 26
25 47 55 20 30 41 55 46 55 5 0 0 -21 -10 -47 -11 -27 -29 -73 -41 -103 -12
-30 -25 -59 -30 -65 -4 -5 -15 -28 -24 -50 l-16 -40 20 25 c10 14 36 63 56
110 21 47 48 108 61 137 21 48 22 83 2 83 -5 0 -24 -24 -42 -52z"/>
<path d="M2435 2490 c10 -19 28 -64 41 -100 12 -36 23 -57 23 -48 1 27 -46
149 -64 167 -16 15 -16 13 0 -19z"/>
<path d="M8170 2465 c0 -15 -6 -25 -14 -25 -10 0 -16 -19 -21 -61 -8 -67 0
-93 10 -33 4 22 9 48 12 59 l6 20 8 -20 c4 -11 5 -30 2 -42 -2 -11 1 -32 8
-45 22 -38 46 -302 34 -364 -6 -33 -9 -36 -15 -19 -5 11 -9 39 -9 63 -1 24 -8
57 -17 74 -14 27 -18 29 -26 15 -5 -10 -7 -21 -4 -26 3 -5 1 -46 -6 -92 -11
-80 -13 -84 -75 -158 -35 -42 -80 -101 -100 -131 -20 -30 -46 -68 -57 -85 -17
-26 -18 -28 -2 -15 10 8 30 33 44 55 41 65 103 147 108 142 8 -8 -37 -87 -59
-102 -11 -8 -18 -18 -14 -21 4 -4 2 -13 -4 -21 -6 -7 -9 -13 -6 -13 4 0 32 33
64 73 32 39 69 82 83 94 16 15 20 22 11 23 -8 0 -26 -10 -39 -22 l-25 -23 26
45 c16 27 33 44 42 42 12 -2 15 10 16 60 0 35 4 72 8 83 7 18 9 17 14 -10 11
-58 20 -110 21 -117 1 -5 6 -9 11 -10 6 -2 15 28 21 65 6 37 14 70 17 73 5 6
3 -90 -6 -241 -6 -95 -6 -98 7 -50 l13 50 7 -45 c19 -105 41 -86 26 21 -6 41
-13 141 -16 224 -3 82 -9 154 -15 160 -6 5 -9 5 -9 -3 0 -7 -4 -12 -9 -12 -12
0 -19 143 -8 151 4 3 -1 39 -12 80 -11 41 -23 93 -26 117 -7 45 -25 58 -25 17z"/>
<path d="M2790 2308 c0 -83 2 -149 5 -146 9 9 12 298 3 298 -4 0 -8 -68 -8
-152z"/>
<path d="M1670 2409 c0 -11 4 -39 9 -62 5 -23 15 -69 21 -102 21 -109 42 -175
56 -175 19 0 17 19 -6 65 -11 22 -20 51 -20 65 0 14 -5 42 -11 64 -16 57 -27
138 -18 129 4 -4 28 -48 53 -98 50 -101 70 -132 78 -119 7 11 -108 225 -130
242 -23 17 -32 15 -32 -9z"/>
<path d="M1803 2405 c9 -51 41 -200 44 -204 2 -3 7 0 12 5 10 11 -34 204 -51
219 -7 7 -9 1 -5 -20z"/>
<path d="M6057 2413 c-6 -10 -3 -54 8 -124 6 -43 6 -43 -10 -21 -24 33 -38 28
-31 -13 4 -19 7 -71 7 -115 0 -63 3 -80 15 -80 8 0 14 -10 14 -25 0 -33 26
-95 40 -95 7 0 8 6 0 19 -5 11 -10 38 -10 60 0 40 -15 91 -29 101 -11 7 -20
120 -10 120 5 0 11 -16 15 -35 3 -19 11 -35 16 -35 10 0 9 30 -8 185 -7 64 -9
71 -17 58z"/>
<path d="M6516 2386 c-10 -16 -16 -47 -16 -85 0 -49 -3 -59 -15 -55 -10 4 -16
-3 -20 -23 -4 -15 -13 -49 -22 -76 -19 -61 -15 -71 20 -43 25 20 30 35 43 117
8 52 19 114 25 138 12 52 7 60 -15 27z m-24 -186 c-2 -17 -8 -32 -12 -35 -7
-5 -5 18 6 53 7 23 11 12 6 -18z"/>
<path d="M6556 2359 c-8 -30 -18 -90 -21 -133 -8 -87 -29 -182 -47 -203 -12
-15 -2 -32 11 -17 18 19 40 112 51 209 6 55 15 119 22 143 6 23 8 45 5 48 -3
4 -13 -18 -21 -47z"/>
<path d="M7717 2308 c-51 -51 -112 -113 -134 -138 -22 -25 -73 -76 -113 -115
-40 -38 -97 -101 -127 -138 -30 -38 -57 -66 -60 -64 -2 3 -7 25 -9 49 -3 23
-7 50 -10 58 -4 13 -6 13 -14 0 -14 -21 -13 -111 1 -108 9 3 27 -49 56 -159 8
-33 25 -16 18 17 -6 26 8 50 22 37 2 -3 11 -47 19 -98 13 -89 25 -121 41 -105
4 4 2 16 -5 26 -7 11 -12 38 -12 61 0 50 -30 139 -47 139 -7 0 -16 -7 -21 -16
-11 -19 -17 -11 -26 32 -6 27 0 39 49 100 63 77 412 433 462 472 18 13 33 28
33 33 0 26 -39 -1 -123 -83z"/>
<path d="M7935 2391 c-3 -5 -1 -12 5 -16 12 -7 30 2 30 16 0 12 -27 12 -35 0z"/>
<path d="M6124 2255 c0 -60 1 -84 3 -52 2 32 2 81 0 110 -2 29 -3 3 -3 -58z"/>
<path d="M7904 2312 c-12 -10 -24 -34 -27 -56 -4 -21 -18 -56 -31 -77 -14 -21
-22 -40 -17 -43 12 -8 22 6 66 87 20 38 35 77 33 87 -3 18 -4 18 -24 2z"/>
<path d="M3512 2303 c-16 -29 -42 -159 -41 -200 1 -27 5 -15 15 42 24 133 54
174 54 75 0 -27 5 -52 10 -55 11 -7 12 50 2 109 -8 44 -26 57 -40 29z"/>
<path d="M2837 2271 c-4 -19 -5 -36 -2 -39 10 -11 16 7 13 40 l-3 33 -8 -34z"/>
<path d="M3727 2273 c-4 -3 -7 -13 -7 -22 1 -13 3 -13 11 2 11 19 8 33 -4 20z"/>
<path d="M2084 2170 c8 -87 25 -160 37 -160 9 0 7 17 -12 90 -5 19 -9 56 -9
82 0 26 -5 50 -12 54 -8 5 -9 -12 -4 -66z"/>
<path d="M2116 2224 c-3 -8 1 -25 8 -37 8 -12 20 -49 26 -81 7 -32 25 -100 41
-149 16 -50 29 -98 29 -108 0 -57 30 -64 49 -12 14 37 14 37 24 13 5 -14 10
-82 11 -152 1 -119 6 -149 19 -114 3 7 4 72 1 142 -6 199 -23 246 -56 149 -9
-27 -18 -43 -21 -35 -2 8 -12 44 -22 80 -21 79 -62 231 -76 283 -10 39 -23 47
-33 21z"/>
<path d="M2607 2192 c1 -8 3 -18 3 -23 0 -6 4 -8 10 -4 5 3 14 -9 19 -27 6
-20 9 -25 10 -13 1 33 -11 65 -24 65 -7 0 -15 3 -18 8 -2 4 -2 1 0 -6z"/>
<path d="M1760 2190 c0 -5 5 -10 10 -10 6 0 10 5 10 10 0 6 -4 10 -10 10 -5 0
-10 -4 -10 -10z"/>
<path d="M3731 2132 c-21 -32 -46 -64 -54 -71 -9 -7 -14 -18 -11 -25 3 -7 -15
-29 -40 -49 -46 -39 -61 -46 -51 -24 3 6 -2 1 -12 -13 -10 -14 -46 -54 -80
-90 -43 -43 -63 -59 -63 -46 0 9 4 25 9 34 5 9 11 42 15 72 5 52 4 50 -19 -30
-13 -47 -24 -95 -25 -108 0 -12 -17 -41 -38 -65 -63 -70 -162 -213 -162 -234
0 -3 7 0 15 7 8 7 15 18 15 25 0 31 305 405 331 405 13 0 139 122 134 130 -2
4 13 31 35 60 22 30 40 49 41 44 6 -53 -35 -159 -92 -239 -38 -52 -33 -73 5
-23 44 59 98 177 105 233 12 86 -3 88 -58 7z"/>
<path d="M1917 2164 c-8 -8 3 -62 20 -94 16 -31 17 -47 1 -53 -10 -3 -10 -8
-2 -16 8 -9 14 -8 24 4 11 14 10 28 -12 91 -13 40 -28 71 -31 68z"/>
<path d="M3671 2143 c-10 -26 -10 -27 4 -9 8 11 15 23 15 28 0 15 -7 8 -19
-19z"/>
<path d="M7781 2145 c-8 -16 -29 -62 -48 -102 -38 -79 -41 -126 -3 -53 22 43
23 44 33 23 11 -24 31 -30 42 -13 3 6 -1 13 -9 16 -19 7 -22 65 -5 95 5 11 9
30 7 42 -4 20 -5 20 -17 -8z"/>
<path d="M1842 2130 c0 -14 2 -19 5 -12 2 6 2 18 0 25 -3 6 -5 1 -5 -13z"/>
<path d="M1974 2125 c25 -165 62 -288 125 -414 35 -69 36 -71 18 -71 -19 0
-194 161 -276 255 -19 22 -48 96 -53 134 -2 14 -8 26 -15 28 -13 5 -10 -14 19
-105 21 -68 43 -94 157 -191 35 -30 76 -67 90 -83 14 -16 43 -35 64 -42 21 -7
48 -26 60 -43 48 -67 131 -163 136 -158 2 3 -4 16 -15 29 -92 115 -117 153
-159 235 -52 105 -102 247 -114 331 -5 30 -16 71 -25 90 -16 35 -16 35 -12 5z"/>
<path d="M8075 2083 c-44 -92 -95 -214 -95 -226 0 -20 16 7 40 66 12 31 36 83
52 115 39 74 50 102 39 102 -5 0 -21 -26 -36 -57z"/>
<path d="M6198 2110 c-4 -14 -8 -38 -7 -55 0 -30 0 -30 10 -5 6 13 9 38 7 55
-3 29 -3 30 -10 5z"/>
<path d="M3355 2103 c-10 -26 -45 -164 -45 -177 1 -28 29 30 34 72 4 26 12 59
18 74 11 30 28 29 28 -1 0 -10 7 -24 15 -31 20 -16 20 -1 1 45 -16 38 -40 46
-51 18z"/>
<path d="M3639 2088 c-6 -12 -23 -43 -37 -68 -18 -31 -21 -41 -9 -31 9 7 17
17 17 22 0 5 12 27 26 49 15 22 24 43 21 46 -3 3 -11 -5 -18 -18z"/>
<path d="M1847 2068 c7 -41 35 -96 65 -134 13 -16 32 -46 43 -67 23 -45 35
-55 35 -31 0 9 -24 53 -54 98 -30 44 -60 100 -67 124 -14 49 -31 57 -22 10z"/>
<path d="M2817 2083 c-4 -3 -7 -11 -7 -17 0 -6 5 -5 12 2 6 6 9 14 7 17 -3 3
-9 2 -12 -2z"/>
<path d="M2887 2053 c-4 -3 -7 -11 -7 -17 0 -6 5 -5 12 2 6 6 9 14 7 17 -3 3
-9 2 -12 -2z"/>
<path d="M3545 2049 c-9 -28 -26 -112 -22 -116 2 -2 12 24 21 58 10 33 15 63
12 66 -3 3 -8 0 -11 -8z"/>
<path d="M8078 1952 c-26 -48 -56 -97 -68 -110 -12 -13 -19 -26 -15 -30 3 -4
15 4 26 18 24 31 118 210 110 210 -3 0 -27 -40 -53 -88z"/>
<path d="M2786 2014 c-8 -22 -7 -52 2 -58 4 -2 9 13 9 35 2 42 -1 49 -11 23z"/>
<path d="M2868 1980 c-13 -24 -29 -52 -35 -64 -7 -11 -13 -29 -13 -38 0 -10
-10 -46 -21 -80 -13 -38 -18 -63 -12 -65 7 -3 6 -25 -3 -66 -13 -63 -18 -114
-9 -106 2 3 14 63 25 133 20 122 57 245 88 294 8 12 12 25 9 28 -3 3 -16 -13
-29 -36z"/>
<path d="M6801 1934 c-28 -30 -58 -68 -68 -85 -9 -16 -25 -31 -35 -34 -26 -9
-126 -122 -143 -162 -18 -44 -18 -43 0 -43 13 0 14 -4 5 -21 -17 -30 -8 -41
18 -23 13 9 21 22 18 30 -3 8 4 30 15 49 29 48 20 67 -14 31 -15 -16 -27 -25
-27 -20 0 14 79 103 102 115 19 10 19 10 2 -16 -9 -14 -13 -29 -9 -33 8 -8 66
58 59 69 -2 4 23 44 57 88 59 78 77 97 65 66 -3 -8 -1 -15 5 -15 11 0 29 41
22 53 -9 15 -22 6 -72 -49z"/>
<path d="M7610 1863 c-18 -53 -42 -103 -52 -112 -10 -8 -18 -21 -18 -27 0 -7
-6 -14 -13 -17 -14 -5 -37 -96 -34 -135 1 -22 2 -22 14 -6 7 10 14 24 14 31 1
7 3 18 4 23 1 6 3 14 4 19 0 5 10 11 21 14 11 3 20 13 20 24 0 19 54 181 64
190 3 4 6 -13 6 -36 0 -30 4 -41 13 -38 13 4 12 145 -2 159 -4 4 -22 -36 -41
-89z"/>
<path d="M6037 1933 c-10 -16 31 -177 61 -242 31 -65 41 -53 14 16 -11 26 -25
77 -32 113 -15 79 -34 129 -43 113z"/>
<path d="M3212 1861 c-33 -50 -39 -71 -23 -71 10 0 64 110 58 117 -2 1 -18
-19 -35 -46z"/>
<path d="M2648 1869 c-3 -8 -1 -27 4 -44 5 -16 12 -84 16 -150 5 -94 7 -111
13 -80 14 76 -16 324 -33 274z"/>
<path d="M6458 1840 c-8 -19 -18 -43 -21 -52 -4 -10 -11 -18 -17 -18 -5 0 -10
-9 -10 -20 0 -11 -6 -29 -12 -40 -9 -14 -9 -23 -2 -30 13 -13 64 58 64 88 0
11 5 33 11 50 16 45 4 64 -13 22z"/>
<path d="M1810 1839 c0 -9 9 -24 20 -34 26 -23 26 -8 0 25 -14 18 -20 21 -20
9z"/>
<path d="M3566 1767 c-25 -45 -57 -93 -71 -106 -14 -13 -58 -67 -98 -120 -39
-53 -96 -120 -126 -150 -44 -43 -48 -50 -23 -37 29 15 212 231 320 379 72 99
74 104 57 110 -10 4 -28 -19 -59 -76z"/>
<path d="M3274 1808 c-4 -13 -8 -34 -9 -48 -1 -14 -6 -38 -10 -55 -6 -24 -5
-28 5 -18 12 11 19 39 23 90 1 12 5 25 10 29 10 10 9 24 -2 24 -5 0 -13 -10
-17 -22z"/>
<path d="M3462 1735 c-29 -24 -61 -47 -72 -50 -27 -9 -26 -25 1 -18 19 5 142
112 129 112 -3 1 -29 -19 -58 -44z"/>
<path d="M8083 1699 c-68 -85 -148 -162 -209 -202 -35 -23 -48 -38 -46 -52 1
-13 -9 -28 -31 -42 -39 -27 -67 -32 -47 -8 22 26 -3 16 -62 -24 -57 -40 -70
-43 -62 -13 3 10 -1 7 -7 -5 -7 -13 -20 -23 -29 -23 -9 0 -25 -6 -35 -14 -10
-7 -27 -11 -37 -8 -10 2 -18 -1 -18 -7 0 -6 5 -11 10 -11 6 0 10 -4 10 -9 0
-10 -56 -25 -82 -23 -10 1 -18 -3 -18 -8 0 -6 7 -10 15 -10 25 0 149 42 160
55 21 24 109 65 139 65 19 0 46 11 67 26 19 14 44 30 57 35 12 5 22 13 22 19
0 6 15 26 33 43 32 33 151 165 202 225 15 17 25 37 23 43 -2 7 -27 -17 -55
-52z m-193 -225 c-19 -21 -50 -37 -50 -25 0 6 12 17 28 25 35 19 37 19 22 0z"/>
<path d="M7929 1693 c-19 -32 -36 -62 -38 -68 -11 -27 -68 -104 -99 -132 -21
-21 -29 -33 -19 -33 18 0 73 67 112 135 15 28 41 72 58 98 16 26 27 50 24 53
-2 3 -20 -21 -38 -53z"/>
<path d="M1885 1711 c31 -62 77 -121 92 -121 14 0 13 4 -4 23 -12 12 -35 46
-53 75 -33 55 -61 73 -35 23z"/>
<path d="M2756 1675 c-3 -9 -5 -29 -5 -43 1 -20 3 -17 9 13 8 43 7 57 -4 30z"/>
<path d="M7812 1594 c-17 -33 -51 -87 -76 -122 -47 -64 -57 -84 -31 -62 34 28
152 226 142 237 -3 3 -19 -21 -35 -53z"/>
<path d="M6171 1623 c-8 -14 -12 -15 -25 -4 -22 18 -21 -3 1 -24 16 -16 17
-16 30 1 13 17 18 44 8 44 -2 0 -8 -8 -14 -17z"/>
<path d="M6417 1614 c-4 -4 -7 -14 -7 -23 0 -11 3 -12 11 -4 6 6 10 16 7 23
-2 6 -7 8 -11 4z"/>
<path d="M3354 1582 c-17 -15 -56 -49 -87 -76 -31 -27 -57 -55 -57 -62 0 -7
28 15 63 49 34 35 78 75 97 90 19 15 31 27 25 27 -5 -1 -24 -13 -41 -28z"/>
<path d="M8616 1583 c-10 -41 -34 -63 -47 -42 -5 8 -9 20 -9 27 0 22 -18 13
-24 -14 -9 -36 -32 -24 -28 14 2 18 -1 32 -7 32 -14 0 -14 -77 -1 -85 6 -4 17
-1 25 5 10 9 19 9 28 2 29 -24 82 26 75 71 -3 18 -5 17 -12 -10z"/>
<path d="M3072 1508 c-51 -102 -74 -158 -63 -158 8 0 91 172 105 218 13 41 0
23 -42 -60z"/>
<path d="M8296 1568 c-18 -89 -15 -113 14 -98 10 6 25 7 33 4 8 -3 22 2 31 11
18 18 22 55 6 55 -5 0 -10 -9 -10 -20 0 -11 -4 -20 -10 -20 -5 0 -10 11 -10
25 0 35 -17 31 -25 -5 -11 -51 -28 -35 -20 20 7 49 0 71 -9 28z"/>
<path d="M2385 1570 c-3 -5 -1 -10 4 -10 6 0 11 5 11 10 0 6 -2 10 -4 10 -3 0
-8 -4 -11 -10z"/>
<path d="M8113 1542 c-36 -31 -69 -122 -44 -122 5 0 12 19 16 42 5 25 17 50
33 65 29 27 44 13 18 -16 -9 -10 -16 -27 -16 -39 0 -32 19 -74 30 -67 7 5 8
11 1 19 -7 8 -6 25 1 51 23 92 12 111 -39 67z"/>
<path d="M2495 1520 c4 -19 7 -61 6 -92 0 -31 3 -60 9 -63 6 -4 8 7 4 27 l-5
33 15 -25 c20 -32 20 -17 0 67 -16 71 -43 119 -29 53z"/>
<path d="M2020 1533 c0 -6 24 -32 53 -60 58 -55 93 -105 122 -173 24 -58 39
-75 32 -35 -8 42 -83 162 -132 211 -51 51 -75 69 -75 57z"/>
<path d="M6995 1532 c-11 -2 -28 -13 -38 -23 -9 -10 -50 -40 -90 -66 -39 -26
-88 -62 -107 -80 -19 -18 -47 -38 -62 -44 -16 -6 -28 -15 -28 -20 0 -19 21 -7
131 77 51 38 120 83 173 111 25 13 52 41 45 46 -2 2 -13 1 -24 -1z"/>
<path d="M2759 1490 c-6 -45 -4 -58 7 -48 3 3 4 26 2 49 l-3 44 -6 -45z"/>
<path d="M8420 1495 c0 -8 5 -15 10 -15 6 0 10 7 10 15 0 8 -4 15 -10 15 -5 0
-10 -7 -10 -15z"/>
<path d="M8666 1501 c-4 -7 -5 -15 -2 -18 9 -9 19 4 14 18 -4 11 -6 11 -12 0z"/>
<path d="M2406 1478 c19 -33 57 -78 66 -78 11 0 -54 89 -65 90 -5 0 -5 -6 -1
-12z"/>
<path d="M6590 952 c0 -7 11 -11 31 -10 44 4 69 -44 69 -129 l0 -63 53 1 c72
2 91 -6 110 -44 15 -30 40 -272 30 -289 -2 -5 -12 -8 -22 -8 -25 0 -31 27 -31
151 0 133 -5 141 -89 145 l-63 3 6 -42 c12 -89 18 -216 12 -241 -7 -28 -36
-35 -55 -13 -7 10 -9 82 -6 238 l5 224 -31 38 c-17 20 -37 37 -46 37 -11 0 -6
-10 16 -35 36 -41 34 -25 31 -315 l-2 -206 25 -13 c63 -33 101 27 92 142 -3
40 -11 89 -16 111 -6 21 -9 39 -7 41 2 1 22 5 44 9 61 9 65 0 62 -153 -3 -144
2 -157 52 -145 51 11 53 21 41 155 -13 159 -22 188 -65 217 -29 19 -42 22 -79
17 l-44 -7 -1 67 c-1 56 -6 73 -27 101 -22 28 -32 34 -60 31 -20 -1 -35 -7
-35 -15z"/>
<path d="M2368 949 c-16 -10 32 -19 104 -19 56 0 71 -4 95 -24 26 -22 28 -29
28 -98 -1 -40 -4 -85 -8 -100 -10 -37 -53 -58 -103 -51 -58 7 -64 -6 -67 -133
-3 -117 -8 -134 -37 -134 -18 0 -19 13 -19 257 l0 256 -24 25 c-15 15 -30 21
-37 17 -9 -6 -6 -13 11 -26 l24 -18 2 -248 c1 -136 2 -256 2 -265 2 -34 71
-34 87 0 4 9 10 69 13 132 l6 115 52 0 c46 0 57 4 84 32 30 29 33 38 37 111 5
98 -9 149 -46 163 -30 12 -188 17 -204 8z"/>
<path d="M6348 952 c-32 -14 -80 -64 -94 -99 -9 -19 -19 -83 -24 -142 -20
-250 15 -335 146 -348 61 -7 105 11 138 54 34 46 34 144 -1 157 -19 8 -37 -7
-62 -55 -14 -27 -25 -35 -52 -37 -50 -4 -62 22 -70 153 -5 82 -3 117 7 142 16
38 17 43 5 43 -5 0 -16 -19 -24 -43 -28 -82 -6 -288 33 -312 6 -4 31 -3 56 1
42 6 47 10 65 50 21 50 36 56 45 19 10 -39 -4 -86 -33 -117 -55 -57 -188 -25
-215 51 -9 24 -13 87 -12 181 1 116 5 155 20 194 35 89 107 114 193 65 30 -17
41 -29 42 -48 1 -28 -1 -54 -6 -59 -8 -9 -34 14 -46 41 -12 28 -19 32 -48 30
-18 0 -41 -8 -49 -17 -22 -22 -6 -33 17 -12 28 25 52 16 65 -24 10 -31 15 -35
46 -35 32 0 35 3 42 40 10 45 -8 78 -58 107 -34 20 -102 31 -126 20z"/>
<path d="M6940 947 c-36 -18 -38 -59 -4 -82 23 -15 30 -15 51 -4 41 22 47 46
19 74 -29 29 -32 29 -66 12z m48 -30 c7 -8 7 -18 2 -27 -7 -11 -13 -12 -35 -2
-22 10 -25 15 -15 27 15 18 34 19 48 2z"/>
<path d="M1140 932 c-27 -4 -49 -28 -50 -54 0 -31 29 -48 83 -49 29 0 63 0 76
-1 l23 -2 -7 -121 c-8 -130 -8 -290 1 -317 9 -30 111 -47 115 -19 6 42 2 373
-4 394 -13 40 5 57 62 57 52 0 71 13 71 46 0 38 -24 51 -107 58 -104 10 -232
14 -263 8z m165 -28 c50 -4 107 -8 128 -9 67 -3 76 -50 11 -51 -21 0 -50 -3
-64 -7 l-26 -6 1 -223 0 -223 -24 -3 c-13 -2 -28 2 -32 10 -5 7 -9 101 -8 208
0 282 3 259 -23 258 -13 -1 -49 -1 -80 0 -54 2 -58 4 -58 26 0 26 18 35 60 30
14 -2 66 -6 115 -10z"/>
<path d="M1574 923 c-20 -13 -21 -16 -7 -43 12 -24 13 -69 9 -249 -5 -208 -4
-221 15 -245 17 -22 23 -24 49 -14 40 13 45 37 44 181 l-1 117 29 0 c16 0 38
-5 49 -11 19 -10 20 -18 14 -107 -7 -122 2 -164 37 -176 51 -18 58 1 58 153
-1 210 -18 246 -111 242 -85 -3 -89 1 -89 73 0 48 -4 67 -17 78 -23 19 -53 20
-79 1z m65 -34 c6 -18 11 -53 11 -79 0 -41 3 -48 26 -59 16 -7 45 -9 73 -5 45
6 49 4 69 -24 19 -25 23 -49 28 -169 7 -144 1 -170 -30 -144 -10 9 -14 44 -15
129 -1 84 -6 121 -15 131 -15 15 -92 32 -112 24 -8 -3 -13 -46 -16 -143 -2
-98 -7 -143 -16 -152 -11 -11 -16 -10 -27 5 -10 14 -13 57 -11 175 1 86 -1
195 -4 242 -6 79 -1 99 22 100 3 0 11 -14 17 -31z"/>
<path d="M5073 933 c-17 -3 -23 -11 -23 -31 0 -65 71 -105 142 -81 49 16 61 3
50 -56 -4 -22 -6 -116 -6 -210 2 -158 3 -170 22 -186 24 -19 65 -15 84 8 9 11
12 70 11 224 l-2 209 58 0 c36 0 63 5 69 13 17 20 0 68 -32 91 -25 19 -43 21
-189 23 -89 1 -172 -1 -184 -4z m356 -37 c40 -21 41 -51 2 -59 -15 -3 -37 -3
-48 -1 -12 3 -30 1 -41 -5 -20 -10 -20 -20 -20 -222 1 -217 -2 -236 -39 -222
-11 4 -13 49 -12 229 0 123 -2 227 -5 232 -3 6 -25 6 -53 1 -27 -5 -61 -7 -76
-5 -29 5 -59 33 -53 51 7 25 297 26 345 1z"/>
<path d="M5528 933 c-28 -4 -40 -35 -19 -48 6 -3 8 -101 4 -252 -6 -232 -5
-247 12 -259 29 -22 63 -17 81 11 14 21 15 44 10 148 -3 67 -2 127 2 132 13
19 58 16 77 -5 14 -15 18 -42 22 -127 5 -130 8 -149 29 -157 16 -6 54 9 67 28
12 17 -4 267 -20 307 -16 40 -57 59 -132 59 -45 0 -41 -8 -46 95 -3 72 -12 79
-87 68z m53 -20 c1 -5 2 -37 3 -72 2 -80 21 -99 97 -99 81 -1 94 -20 104 -145
13 -160 12 -178 -7 -190 -9 -6 -20 -8 -23 -5 -4 3 -7 57 -9 120 -1 85 -6 121
-19 146 -16 29 -21 32 -67 32 -71 0 -78 -16 -70 -150 7 -130 4 -160 -20 -160
-30 0 -36 22 -34 110 1 47 3 160 4 253 2 157 3 167 21 167 10 0 20 -3 20 -7z"/>
<path d="M2416 888 c-3 -7 -7 -39 -10 -71 -5 -52 -3 -61 17 -81 46 -46 112
-14 121 58 6 46 -6 81 -31 90 -37 15 -93 17 -97 4z m102 -36 c45 -58 -31 -147
-82 -96 -19 18 -19 11 -5 74 11 51 11 51 42 45 18 -4 38 -14 45 -23z"/>
<path d="M3762 820 c-22 -9 -22 -13 -21 -154 1 -178 -5 -193 -56 -141 -22 21
-25 33 -25 89 0 90 -18 153 -53 182 -27 23 -48 22 -76 -2 -2 -2 7 -19 19 -38
19 -32 22 -49 21 -148 -1 -151 11 -177 92 -196 38 -10 62 -11 68 -5 9 9 -2 14
-102 39 -23 6 -39 88 -36 190 2 64 -1 97 -10 110 -17 23 -17 57 0 52 27 -9 50
-81 56 -179 5 -74 10 -103 23 -115 19 -19 73 -23 89 -7 12 12 15 248 4 282 -9
28 33 40 52 15 16 -22 17 -134 2 -219 -5 -33 -12 -107 -13 -164 -3 -99 -5
-104 -33 -133 -24 -24 -43 -31 -102 -40 -52 -8 -75 -8 -83 0 -17 17 9 42 43
42 38 0 69 13 102 43 26 25 38 77 17 77 -5 0 -10 -11 -10 -25 0 -38 -32 -63
-91 -71 -78 -10 -118 -64 -62 -85 52 -20 177 14 218 60 16 18 21 43 26 139 3
64 12 164 19 222 12 98 11 108 -6 145 -20 42 -35 50 -72 35z"/>
<path d="M2955 800 c-3 -5 -17 -10 -31 -10 -32 0 -30 -8 8 -40 l32 -27 -2
-161 c-2 -146 -1 -162 15 -170 20 -11 57 0 68 19 11 16 7 184 -5 234 -11 48 4
65 57 65 48 0 56 -28 48 -170 -6 -106 -5 -117 13 -140 17 -21 23 -23 45 -13
31 15 41 55 33 139 -7 77 -24 177 -36 208 -14 37 -49 57 -86 50 -18 -3 -56 1
-87 10 -65 19 -64 19 -72 6z m182 -36 c31 -5 34 -9 53 -72 12 -43 20 -104 22
-172 3 -92 1 -105 -14 -108 -21 -4 -33 33 -30 93 5 155 4 176 -12 200 -13 20
-25 25 -57 25 -22 0 -49 -5 -61 -11 -19 -10 -20 -16 -12 -112 9 -114 7 -188
-5 -200 -4 -4 -15 -5 -24 -1 -15 5 -16 25 -14 164 2 138 0 160 -15 177 -10 11
-18 23 -18 26 0 7 124 1 187 -9z"/>
<path d="M3309 781 c-24 -25 -29 -38 -29 -79 0 -56 13 -73 95 -125 58 -37 70
-72 36 -106 -27 -27 -44 -26 -72 4 -29 30 -45 31 -59 6 -20 -38 14 -86 72
-102 58 -15 119 16 149 77 21 44 21 46 4 92 -23 60 -49 90 -102 113 -37 16
-43 23 -43 48 0 38 20 45 45 15 18 -21 23 -23 45 -11 15 8 26 23 28 39 4 36
-30 58 -91 58 -40 0 -53 -5 -78 -29z m145 -7 c16 -42 -16 -63 -44 -29 -19 23
-49 18 -62 -11 -17 -36 7 -75 52 -90 58 -19 102 -105 86 -170 -10 -39 -50 -74
-86 -74 -37 0 -85 23 -94 45 -12 33 -5 36 25 11 41 -35 61 -33 98 9 51 58 36
102 -51 146 -31 16 -62 39 -69 50 -15 29 -5 100 17 116 26 19 120 17 128 -3z"/>
<path d="M2690 791 c-27 -8 -70 -64 -70 -92 0 -10 10 -23 21 -30 18 -9 25 -7
46 15 28 31 31 31 61 10 36 -25 24 -46 -28 -51 -56 -5 -82 -22 -104 -66 -31
-67 -16 -152 32 -180 31 -18 32 -18 76 3 43 22 45 22 95 5 51 -17 51 -17 71 7
26 31 25 44 -5 70 -25 21 -25 24 -20 127 6 95 4 109 -14 139 -31 48 -88 63
-161 43z m133 -52 l29 -31 -7 -111 -7 -111 26 -21 c23 -18 25 -23 13 -39 -14
-18 -16 -19 -64 -1 -46 16 -51 16 -81 1 -41 -21 -58 -20 -82 4 -16 16 -20 33
-20 83 0 79 21 104 96 113 72 8 93 33 56 67 -35 32 -68 38 -95 16 -14 -10 -30
-19 -36 -19 -29 0 5 71 39 83 8 2 35 3 60 1 36 -2 51 -9 73 -35z"/>
<path d="M2776 583 c-4 -5 -26 -8 -49 -8 -49 0 -68 -26 -58 -78 5 -26 12 -33
35 -35 28 -3 85 14 87 27 0 3 2 27 3 54 1 46 -3 55 -18 40z m-20 -31 c6 -4 13
-17 16 -30 5 -18 0 -26 -22 -37 -48 -25 -60 -20 -60 23 0 21 3 42 7 45 9 9 45
9 59 -1z"/>
<path d="M8040 792 c-42 -4 -70 -27 -70 -58 0 -32 13 -37 61 -24 23 6 52 9 64
6 23 -6 45 -43 45 -77 0 -19 -1 -19 -38 3 -35 19 -42 20 -71 8 -76 -31 -108
-174 -59 -260 13 -21 31 -41 42 -44 21 -6 80 16 90 33 12 19 41 12 64 -14 25
-29 53 -32 76 -9 21 21 20 33 -5 60 -24 25 -25 43 -14 179 8 98 0 129 -44 169
-23 21 -85 33 -141 28z m120 -41 c48 -34 55 -64 43 -185 -12 -114 -7 -149 24
-171 9 -7 13 -17 9 -23 -13 -21 -42 -13 -64 18 -27 37 -34 37 -77 4 -65 -50
-116 -9 -123 99 -6 114 51 173 128 130 28 -14 42 -17 49 -10 38 38 -24 136
-77 122 -63 -15 -80 -16 -87 -6 -12 21 16 40 63 44 59 4 81 0 112 -22z"/>
<path d="M8035 565 c-27 -26 -32 -63 -14 -114 12 -35 29 -40 46 -12 7 11 25
26 40 33 17 8 28 21 28 33 0 11 3 25 7 32 5 7 -6 19 -28 32 -45 27 -50 26 -79
-4z m56 -15 c33 -24 30 -40 -14 -84 -23 -24 -30 -27 -38 -15 -13 21 -11 93 3
107 15 15 15 16 49 -8z"/>
<path d="M2005 771 c-69 -42 -101 -117 -91 -217 7 -71 16 -95 50 -132 48 -54
118 -67 170 -33 52 35 74 104 41 131 -20 16 -57 -1 -75 -35 -16 -30 -46 -22
-70 18 -30 49 -14 66 57 60 50 -5 61 -2 77 16 15 17 18 31 13 79 -6 70 -19 95
-64 116 -44 21 -71 20 -108 -3z m118 -32 c39 -42 43 -143 6 -154 -10 -4 -39
-3 -63 0 -40 6 -46 5 -62 -20 -16 -24 -16 -29 -1 -60 9 -19 30 -41 47 -50 30
-16 32 -15 60 14 15 17 33 31 39 31 20 0 11 -51 -14 -75 -43 -44 -111 -28
-164 37 -30 37 -39 140 -19 208 26 85 120 123 171 69z"/>
<path d="M2029 703 c-32 -27 -39 -67 -13 -77 9 -3 33 -6 54 -6 46 0 63 22 54
68 -8 42 -54 49 -95 15z m55 -9 c9 -8 16 -24 16 -35 0 -17 -5 -20 -37 -17 -44
5 -51 20 -24 47 25 25 25 25 45 5z"/>
<path d="M8675 783 c-33 -8 -85 -80 -85 -118 0 -43 39 -90 88 -106 52 -16 62
-27 62 -65 0 -42 -27 -52 -77 -29 -36 17 -37 17 -54 -4 -43 -53 29 -120 113
-106 31 5 46 16 68 47 42 57 45 86 18 154 -19 49 -30 61 -68 81 -61 32 -65 38
-47 63 l15 22 17 -26 c20 -29 46 -33 69 -10 24 24 20 59 -10 79 -28 18 -77 26
-109 18z m103 -35 c17 -15 15 -48 -3 -48 -8 0 -24 9 -35 20 -30 30 -70 10 -70
-37 0 -16 15 -32 53 -57 89 -56 110 -146 51 -216 -22 -25 -33 -30 -70 -30 -47
0 -84 25 -84 56 0 16 10 16 65 0 12 -4 33 2 53 14 26 16 32 26 32 54 0 41 -17
60 -67 76 -81 26 -111 86 -71 141 13 17 32 35 43 40 23 10 84 2 103 -13z"/>
<path d="M9083 780 c-22 -9 -23 -15 -25 -122 0 -62 -1 -120 0 -128 1 -30 -19
-51 -46 -48 l-27 3 -1 101 c-2 140 -27 184 -101 184 -45 0 -56 -12 -25 -29 15
-8 17 -29 19 -158 3 -173 13 -198 76 -198 43 -1 52 -9 60 -52 8 -41 -4 -48
-102 -62 -80 -11 -105 -27 -116 -73 -9 -36 14 -46 50 -22 15 10 50 19 80 20
77 4 126 20 161 52 29 27 31 32 42 157 11 113 16 251 13 321 -2 36 -32 64 -58
54z m32 -140 c1 -122 -19 -331 -34 -366 -14 -33 -78 -58 -155 -60 -38 -2 -74
-8 -79 -13 -16 -16 -37 -13 -37 4 0 20 51 45 92 45 45 0 104 17 123 36 18 18
20 63 3 99 -9 20 -18 25 -49 25 -29 0 -42 6 -59 27 -20 25 -21 35 -15 129 5
70 3 114 -5 139 -14 41 -10 50 19 40 29 -9 41 -59 40 -169 -2 -111 1 -116 68
-116 37 0 43 3 49 24 3 13 5 32 4 42 -1 11 -2 68 -1 127 1 98 3 108 19 105 15
-3 17 -17 17 -118z"/>
<path d="M5927 761 c-55 -36 -91 -124 -90 -219 1 -72 13 -102 63 -149 28 -27
42 -33 78 -33 24 0 56 7 71 16 58 34 84 135 39 150 -18 5 -28 -1 -53 -30 -35
-41 -58 -46 -79 -13 -18 27 -24 71 -11 75 6 2 34 0 62 -4 64 -8 97 10 106 55
11 54 -35 133 -90 156 -46 19 -62 19 -96 -4z m107 -32 c34 -27 56 -70 56 -109
0 -39 -29 -51 -91 -39 -85 16 -89 15 -89 -37 0 -39 5 -51 33 -79 40 -40 67
-38 100 6 11 16 27 29 34 29 22 0 14 -47 -13 -79 -33 -40 -83 -42 -135 -7 -66
45 -86 133 -53 233 32 95 98 129 158 82z"/>
<path d="M5955 698 c-25 -20 -33 -52 -16 -63 5 -3 30 -9 56 -14 54 -10 75 3
68 43 -9 48 -68 66 -108 34z m83 -42 c4 -20 -46 -22 -73 -3 -17 13 -17 15 6
30 20 14 26 15 44 3 11 -7 21 -21 23 -30z"/>
<path d="M6954 765 c-13 -10 -15 -17 -8 -22 22 -15 27 -59 26 -198 -1 -77 2
-145 6 -151 13 -20 47 -30 82 -25 42 7 52 38 22 76 -13 17 -18 36 -16 62 2 21
6 66 9 101 7 88 -7 137 -47 156 -39 20 -49 20 -74 1z m64 -25 c32 0 41 -70 28
-202 -7 -69 -6 -80 13 -106 11 -17 21 -33 21 -36 0 -10 -40 -7 -61 4 -17 10
-19 23 -19 153 -1 93 -6 155 -15 180 -12 36 -12 38 4 23 10 -9 23 -16 29 -16z"/>
<path d="M7282 765 c-16 -12 -25 -12 -51 -2 -27 10 -33 9 -41 -3 -7 -12 -12
-12 -22 -2 -16 16 -28 15 -28 -2 0 -8 9 -18 20 -21 22 -7 21 7 26 -224 3 -150
7 -163 47 -155 48 9 49 17 43 200 -4 147 -3 174 10 185 16 13 19 11 45 -34 6
-10 9 -77 8 -160 -2 -177 -3 -166 24 -176 29 -11 57 4 56 32 -3 129 3 297 12
302 5 4 16 1 24 -5 12 -10 15 -9 15 3 0 9 -10 19 -22 23 -22 8 -21 8 7 14 54
12 60 -4 63 -171 4 -159 0 -191 -21 -170 -8 8 -12 52 -12 136 0 69 -3 125 -6
125 -22 0 -27 -255 -6 -284 11 -14 17 -15 42 -6 15 6 41 8 56 5 37 -8 47 12
12 27 -15 7 -29 13 -31 14 -2 1 -5 60 -8 130 -6 169 -10 191 -39 210 -20 13
-30 14 -59 4 -27 -8 -40 -8 -57 1 -33 17 -84 19 -107 4z m117 -193 c-2 -170
-4 -182 -25 -182 -11 0 -14 30 -16 153 -1 177 -1 173 -11 183 -4 4 -7 13 -7
21 0 11 6 10 31 -2 l30 -16 -2 -157z m-146 123 c11 -52 1 -295 -13 -309 -22
-22 -28 14 -32 182 -5 170 -5 173 16 170 15 -2 22 -14 29 -43z"/>
<path d="M7745 764 c-23 -23 -15 -25 30 -9 35 12 43 11 68 -3 58 -34 62 -45
62 -161 0 -65 -5 -118 -13 -137 -16 -37 -51 -59 -80 -50 -27 9 -62 -25 -63
-61 -1 -16 -3 -66 -5 -113 -4 -104 -10 -130 -29 -130 -12 0 -14 15 -11 88 3
48 8 189 11 313 8 239 4 269 -35 269 -26 0 -25 -16 1 -31 21 -11 22 -14 15
-211 -3 -110 -8 -203 -11 -208 -8 -14 -10 -224 -2 -237 11 -18 52 -16 68 3 10
12 15 58 17 155 l4 139 42 0 c57 0 82 21 100 83 36 128 22 254 -33 295 -37 27
-111 30 -136 6z"/>
<path d="M8475 769 c-16 -5 -54 -7 -82 -5 -29 2 -53 0 -53 -5 0 -14 40 -21
103 -17 l61 3 8 -35 c13 -58 5 -340 -9 -340 -7 0 -13 8 -14 18 0 9 -2 33 -4
52 -2 19 0 71 4 116 7 88 0 142 -21 155 -21 14 -88 11 -89 -3 0 -7 0 -78 0
-158 1 -153 -5 -184 -34 -160 -14 12 -16 31 -10 158 7 158 1 190 -41 213 -22
11 -27 11 -34 -1 -7 -12 -3 -16 18 -20 23 -5 28 -11 34 -55 5 -28 4 -105 -2
-172 -5 -67 -7 -129 -4 -137 9 -24 42 -29 70 -11 l25 16 -2 156 c-1 129 1 157
13 164 23 13 51 -13 51 -47 0 -16 -3 -83 -7 -149 -9 -142 -2 -162 55 -151 l34
6 -1 187 c0 127 -4 195 -13 211 -13 24 -13 24 -56 11z"/>
<path d="M7781 704 c-19 -24 -21 -38 -18 -132 2 -115 10 -131 61 -118 83 21
73 273 -11 276 -6 0 -21 -12 -32 -26z m68 -21 c7 -15 15 -57 18 -93 5 -57 2
-69 -17 -92 -25 -32 -45 -36 -58 -10 -7 13 -10 208 -3 220 0 1 12 2 24 2 16 0
28 -9 36 -27z"/>
<path d="M7476 685 c-3 -8 -1 -15 4 -15 6 0 10 7 10 15 0 8 -2 15 -4 15 -2 0
-6 -7 -10 -15z"/>
<path d="M7580 621 c-12 -23 -13 -58 -2 -64 4 -3 25 -7 46 -8 40 -4 40 -4 41
34 1 27 -3 41 -16 48 -28 15 -57 11 -69 -10z m60 -32 c0 -15 -5 -20 -22 -17
-34 5 -37 38 -4 38 20 0 26 -5 26 -21z"/>
<path d="M3913 494 c-2 -6 -3 -29 -1 -50 3 -38 4 -39 47 -42 28 -2 47 1 52 10
13 20 10 74 -4 87 -18 14 -88 11 -94 -5z m78 -14 c5 -40 3 -45 -23 -48 -16 -2
-29 0 -29 5 -8 49 -6 53 22 53 16 0 30 -4 30 -10z"/>
<path d="M9194 434 c-19 -46 -11 -82 20 -90 44 -11 60 -1 78 48 l17 46 -27 10
c-68 26 -71 26 -88 -14z m59 -6 c22 -17 12 -58 -14 -58 -24 0 -32 16 -25 46 7
27 15 29 39 12z"/>
</g>
</svg>
