<?xml version="1.0" standalone="no"?>
<!DOCTYPE svg PUBLIC "-//W3C//DTD SVG 20010904//EN"
 "http://www.w3.org/TR/2001/REC-SVG-20010904/DTD/svg10.dtd">
<svg version="1.0" xmlns="http://www.w3.org/2000/svg"
 width="1354.000000pt" height="822.000000pt" viewBox="0 0 1354.000000 822.000000"
 preserveAspectRatio="xMidYMid meet">
<metadata>
Created by potrace 1.16, written by Peter Selinger 2001-2019
</metadata>
<g transform="translate(0.000000,822.000000) scale(0.100000,-0.100000)"
fill="#000000" stroke="none">
<path d="M1850 8100 c0 -5 5 -10 10 -10 6 0 10 5 10 10 0 6 -4 10 -10 10 -5 0
-10 -4 -10 -10z"/>
<path d="M7086 8098 c-17 -54 -15 -53 -31 -32 -13 16 -16 17 -25 4 -5 -8 -10
-22 -10 -31 0 -22 -38 -69 -55 -69 -9 0 -15 14 -17 38 -2 25 -8 37 -18 37 -11
0 -15 -11 -14 -42 1 -46 0 -48 -19 -33 -57 48 -74 60 -88 60 -23 0 -32 -28
-12 -38 19 -11 11 -42 -12 -42 -8 0 -37 -15 -65 -32 -38 -26 -49 -39 -49 -60
-1 -45 17 -79 49 -91 17 -6 30 -16 30 -22 0 -20 61 -85 80 -85 11 0 20 -8 22
-22 8 -52 52 -22 62 43 5 30 3 45 -6 50 -14 9 -7 12 47 24 l30 7 -22 -24 c-16
-16 -22 -38 -24 -74 -3 -57 4 -74 31 -74 24 0 36 18 21 33 -6 6 -11 22 -11 35
0 22 3 24 32 18 31 -6 31 -6 13 14 -20 22 -20 22 15 36 18 8 34 7 58 -3 17 -7
32 -17 32 -21 0 -5 18 -16 39 -25 44 -20 67 -53 29 -44 -12 4 -27 2 -34 -4
-15 -12 -44 -1 -44 17 0 15 -12 19 -23 8 -10 -10 12 -44 28 -44 9 0 24 -5 35
-12 15 -10 22 -9 38 5 21 19 42 22 42 7 0 -5 6 -10 14 -10 7 0 20 -8 27 -17
10 -11 10 -14 2 -9 -8 4 -13 2 -13 -8 0 -8 5 -18 10 -21 6 -4 8 -11 4 -16 -3
-5 7 -35 22 -66 34 -72 43 -103 54 -178 15 -105 52 -259 69 -290 9 -16 26 -45
39 -64 15 -23 21 -43 17 -60 -4 -21 3 -35 42 -73 27 -26 63 -60 81 -75 63 -53
127 -252 111 -340 -5 -26 -7 -53 -4 -60 6 -17 42 -16 48 1 25 65 12 228 -23
293 -22 41 -26 73 -10 73 6 0 10 7 10 15 0 8 -8 15 -19 15 -10 0 -30 15 -44
33 -15 17 -47 55 -72 82 -25 28 -55 69 -66 92 -11 24 -24 45 -28 47 -20 13
-63 121 -76 196 -23 124 -24 133 -14 152 7 12 5 27 -6 47 -9 18 -12 41 -9 59
5 26 3 31 -17 34 -17 2 -24 10 -25 27 -1 15 -15 36 -35 52 l-34 28 32 1 c37 0
93 29 93 48 0 20 31 10 44 -13 6 -11 15 -23 21 -27 15 -11 36 13 32 38 -3 27
-44 74 -64 74 -17 0 -16 4 3 41 14 28 14 34 -1 66 -20 41 -15 60 16 65 12 2
24 9 27 15 6 19 -28 28 -50 14 -16 -10 -22 -8 -41 13 -20 23 -32 26 -121 30
-55 3 -104 2 -110 -3 -6 -4 -24 -11 -41 -15 l-30 -7 33 33 c34 36 33 48 -4 48
-21 0 -23 4 -21 56 1 38 -2 58 -10 61 -7 3 -15 -1 -17 -9z m-194 -206 c-12
-32 -44 -59 -83 -72 -47 -16 -72 -6 -77 29 -5 32 16 51 57 51 20 0 42 4 49 9
22 14 62 1 54 -17z m370 -24 c-5 -21 -6 -21 -12 -2 -8 21 -3 37 10 29 4 -3 6
-15 2 -27z m-42 -4 c0 -8 -4 -12 -10 -9 -5 3 -10 13 -10 21 0 8 5 12 10 9 6
-3 10 -13 10 -21z m-294 -35 c-14 -11 -38 -41 -52 -65 -28 -48 -42 -51 -61
-13 -12 23 -10 25 44 52 32 15 62 32 67 37 6 6 14 10 19 10 5 0 -2 -9 -17 -21z
m249 -19 c-3 -5 -13 -10 -21 -10 -8 0 -14 5 -14 10 0 6 9 10 21 10 11 0 17 -4
14 -10z m35 -54 c0 -2 -8 -10 -17 -17 -16 -13 -17 -12 -4 4 13 16 21 21 21 13z
m90 -30 c0 -3 -4 -8 -10 -11 -5 -3 -10 -1 -10 4 0 6 5 11 10 11 6 0 10 -2 10
-4z"/>
<path d="M1970 8089 c0 -6 -7 -8 -16 -5 -27 10 -44 -13 -44 -60 l0 -44 -41 0
c-29 0 -50 -7 -71 -25 -21 -18 -34 -22 -46 -16 -46 23 -252 -24 -252 -59 0 -5
-9 -12 -20 -15 -43 -14 -11 -85 38 -85 24 0 38 -15 22 -25 -15 -9 -12 -31 7
-50 13 -14 27 -15 76 -10 43 5 58 4 53 -4 -14 -23 7 -53 50 -73 25 -10 52 -18
62 -17 9 2 37 0 63 -4 35 -6 49 -14 62 -36 9 -16 37 -50 62 -76 45 -46 95
-130 95 -160 0 -8 4 -15 9 -15 5 0 13 -10 17 -22 4 -13 26 -63 50 -113 28 -58
47 -115 54 -160 16 -107 32 -165 61 -218 38 -70 148 -181 206 -208 l50 -22
-24 -81 c-31 -107 -54 -224 -60 -316 -7 -88 11 -285 37 -420 10 -52 21 -106
23 -120 13 -66 51 -171 94 -259 86 -174 235 -415 320 -517 202 -242 501 -538
582 -575 20 -9 51 -29 70 -43 19 -14 38 -26 43 -26 4 0 32 -16 63 -35 30 -20
81 -44 112 -54 96 -32 177 -63 187 -72 6 -5 18 -9 28 -9 21 0 138 -39 154 -51
6 -5 42 -13 80 -18 71 -10 164 -35 197 -52 10 -6 27 -7 37 -4 11 3 32 0 47 -8
29 -15 94 -28 151 -31 18 0 36 -6 40 -12 4 -5 16 -11 27 -11 39 -3 189 -34
199 -42 11 -8 100 -38 190 -63 102 -28 249 -187 263 -285 4 -28 12 -47 24 -54
11 -5 26 -36 37 -77 28 -100 90 -333 97 -365 6 -29 26 -35 44 -13 9 11 8 28
-4 76 -17 65 -17 125 0 125 6 0 15 -21 21 -46 7 -25 17 -56 24 -68 9 -19 9
-26 -5 -41 -11 -13 -15 -28 -11 -43 3 -14 2 -46 -3 -73 -5 -26 -7 -53 -4 -60
14 -38 98 -15 124 34 10 18 19 22 38 19 36 -7 71 9 71 33 0 11 4 28 9 38 6 9
13 31 18 47 l7 30 4 -38 c2 -21 10 -41 18 -44 20 -8 64 38 64 67 0 36 28 87
89 164 34 43 54 77 56 98 1 18 6 41 10 51 5 11 3 17 -6 17 -17 -1 -88 -104
-125 -180 -68 -142 -81 -160 -70 -91 7 43 78 226 107 276 13 22 16 36 9 40
-18 11 -34 -17 -90 -157 -31 -78 -56 -128 -58 -117 -2 11 1 58 7 106 6 48 8
89 6 92 -19 19 -40 -71 -59 -250 -7 -74 -8 -76 -84 -141 -80 -70 -106 -75 -97
-21 10 58 13 63 35 63 21 0 28 28 11 46 -23 24 -100 303 -106 384 -1 14 -7 35
-14 48 -7 13 -14 33 -17 45 -2 11 -15 44 -29 73 -14 28 -25 62 -25 76 0 38
-59 194 -97 257 -18 30 -33 59 -33 63 0 19 -70 116 -134 187 -36 40 -66 79
-66 87 0 7 -22 41 -48 76 -51 67 -78 112 -113 193 -12 28 -37 83 -55 123 -19
40 -34 76 -34 81 0 4 -8 23 -17 42 -9 19 -20 54 -24 79 -3 25 -18 90 -32 145
-43 171 -75 317 -86 392 -6 39 -15 83 -21 98 -5 14 -10 43 -10 63 -1 20 -9 55
-20 77 -11 22 -19 50 -20 61 0 12 -7 27 -15 34 -8 7 -20 31 -27 54 -7 22 -29
66 -50 97 -21 31 -38 63 -38 72 0 9 -10 24 -23 34 -12 10 -31 31 -41 47 -11
17 -36 48 -57 70 -21 21 -41 51 -44 66 -3 14 -22 47 -43 73 -20 26 -59 79 -87
118 -61 87 -99 129 -145 160 -19 12 -52 40 -72 60 -20 21 -51 45 -69 54 -17 9
-47 32 -66 51 -18 19 -39 34 -46 34 -7 0 -25 16 -40 36 -17 20 -35 33 -43 30
-7 -3 -16 0 -20 5 -11 19 -113 79 -133 79 -11 0 -50 16 -88 35 -75 39 -101 43
-110 19 -7 -19 21 -43 85 -74 28 -13 42 -27 42 -39 0 -19 52 -71 71 -71 13 0
11 34 -3 49 -11 10 -7 10 16 1 16 -6 33 -13 37 -16 9 -5 -25 -44 -39 -44 -4 0
-16 -11 -26 -25 -10 -14 -25 -25 -32 -25 -7 0 -18 -9 -24 -20 -9 -17 -7 -22
12 -29 19 -7 27 -4 46 18 l22 26 16 -22 c17 -23 50 -31 56 -14 2 6 24 15 49
22 l46 12 71 -54 c39 -30 82 -62 96 -72 31 -22 33 -37 6 -37 -26 0 -26 -1 10
-66 24 -43 29 -62 25 -88 -9 -47 18 -57 40 -14 20 42 19 60 -6 81 -26 23 -19
33 11 15 17 -10 24 -10 27 -1 2 7 11 9 19 6 17 -6 19 -44 2 -41 -8 2 -13 -8
-13 -27 0 -23 5 -31 22 -33 17 -3 20 1 16 16 -3 12 1 22 11 25 11 4 26 -8 50
-41 19 -26 42 -55 50 -64 9 -10 16 -26 16 -36 0 -19 29 -52 46 -52 5 0 17 -14
27 -31 9 -17 26 -33 37 -36 11 -3 20 -11 20 -18 0 -6 18 -38 41 -70 31 -44 39
-64 34 -82 -7 -29 9 -53 35 -53 24 0 42 -24 46 -62 2 -17 13 -41 23 -52 50
-56 85 -164 126 -390 39 -210 116 -550 146 -639 21 -62 141 -334 168 -379 29
-48 152 -222 207 -292 30 -38 54 -75 54 -82 0 -6 6 -14 13 -17 7 -3 28 -32 46
-66 17 -33 40 -65 50 -71 27 -14 48 -78 43 -132 -3 -42 -6 -46 -28 -44 -25 3
-46 16 -26 16 7 0 12 8 12 18 -1 21 -50 94 -67 100 -19 6 -16 -28 4 -50 36
-40 2 -26 -63 26 -38 31 -72 56 -76 56 -5 0 -8 8 -8 18 0 10 -5 23 -11 29 -8
8 -8 13 0 17 17 11 -4 41 -44 65 -38 22 -75 28 -75 11 0 -14 37 -50 53 -51 6
0 2 -4 -11 -9 -19 -8 -21 -13 -13 -29 9 -17 8 -18 -12 -14 -12 3 -26 9 -32 13
-5 4 -22 10 -37 14 -29 7 -36 20 -18 31 6 3 10 10 10 16 0 10 -51 35 -91 43
-14 3 -36 15 -49 26 -13 11 -34 20 -47 20 -13 0 -41 9 -63 20 -22 11 -50 20
-63 20 -12 0 -28 5 -35 12 -17 17 -40 -7 -27 -28 10 -15 94 -54 175 -80 25 -7
52 -18 60 -24 24 -16 -31 -13 -71 4 -33 13 -267 66 -319 72 -14 1 -59 14 -100
29 -41 14 -88 27 -105 27 -16 0 -34 4 -40 8 -5 4 -32 13 -60 19 -27 7 -59 18
-70 25 -11 8 -35 17 -52 20 -17 4 -37 14 -44 22 -8 10 -21 13 -41 9 -15 -4
-28 -2 -28 3 0 9 -23 19 -64 28 -80 17 -174 70 -199 112 -7 10 -12 10 -22 2
-11 -9 -25 3 -69 55 -65 79 -78 89 -136 105 -25 7 -60 25 -80 41 -19 16 -39
33 -45 38 -29 25 -253 268 -283 309 -20 26 -50 63 -67 83 -35 39 -110 152
-142 214 -11 22 -40 78 -63 125 -23 47 -46 89 -51 94 -5 6 -9 19 -9 29 0 10
-22 62 -48 116 -46 90 -60 127 -68 176 -17 106 -27 158 -40 202 -9 29 -13 57
-9 63 3 5 1 38 -6 72 -14 74 -13 167 2 298 19 174 58 272 122 317 21 15 42 34
47 43 8 15 20 17 77 13 l68 -5 58 46 c31 26 57 52 57 59 0 8 3 8 12 -1 19 -19
87 -14 118 8 16 11 43 23 62 26 18 4 40 12 48 19 24 19 47 24 58 13 7 -7 20
-7 40 0 16 5 41 8 55 5 39 -8 75 4 82 26 3 11 23 26 45 35 31 12 45 27 66 67
33 67 42 200 18 291 -17 68 -100 248 -113 248 -5 0 -12 13 -16 29 -3 16 -15
37 -26 47 -10 9 -19 22 -19 28 0 6 -34 43 -75 82 -53 50 -101 83 -163 114 -48
24 -91 49 -95 57 -4 7 -20 13 -36 13 -15 0 -46 9 -69 20 -22 11 -46 20 -52 20
-5 0 -10 4 -10 9 0 13 -77 24 -160 22 -278 -7 -295 -9 -350 -34 -30 -14 -73
-31 -95 -38 -22 -7 -46 -18 -54 -23 -17 -13 -211 -22 -211 -10 0 5 7 18 15 28
19 25 19 75 2 82 -10 3 -13 22 -11 64 1 53 0 60 -17 60 -11 0 -19 -5 -19 -11z
m931 -223 c121 -47 223 -97 250 -122 8 -8 20 -14 25 -14 30 -1 164 -155 194
-223 12 -26 32 -58 45 -72 14 -13 25 -29 25 -35 0 -6 9 -30 19 -54 26 -55 45
-166 38 -223 -3 -26 -13 -54 -26 -67 -11 -12 -21 -30 -21 -39 0 -25 -37 -21
-45 4 -5 16 1 29 23 51 29 30 29 31 13 59 -17 31 -36 36 -64 15 -14 -11 -16
-19 -7 -40 8 -21 6 -33 -6 -51 -9 -14 -13 -32 -10 -41 6 -17 -9 -44 -25 -44
-5 0 -9 6 -9 14 0 8 -5 16 -10 18 -8 2 -6 21 3 58 8 30 15 76 15 101 1 43 -1
46 -31 56 -33 10 -68 1 -99 -25 -13 -10 -18 -9 -28 3 -10 12 -9 18 6 32 26 27
60 41 75 33 7 -5 21 -4 30 1 10 5 26 9 37 9 20 0 36 25 26 41 -3 5 -12 9 -20
9 -8 0 -14 9 -14 20 0 35 -30 22 -49 -22 -16 -37 -20 -40 -26 -23 -3 11 -11
28 -16 37 -13 26 -11 36 9 34 12 -1 18 7 20 27 4 32 -15 36 -39 10 -34 -39
-120 -115 -125 -111 -2 3 5 13 16 23 11 10 20 28 20 40 0 12 7 36 16 53 18 37
15 77 -6 77 -8 0 -18 -15 -24 -32 -8 -31 -12 -33 -52 -33 -24 0 -44 -4 -44 -9
0 -5 -13 -14 -30 -20 -34 -11 -37 -26 -11 -59 16 -22 19 -23 34 -7 9 9 17 25
17 36 0 14 7 19 25 19 23 0 25 -4 25 -41 0 -34 -3 -40 -18 -35 -10 4 -40 -5
-68 -19 -27 -14 -51 -25 -54 -25 -5 0 -20 33 -35 75 -6 19 -7 19 -19 3 -14
-18 -26 -14 -26 9 0 7 8 13 18 14 21 0 66 55 57 69 -10 15 -17 12 -52 -20 -28
-27 -34 -28 -62 -19 -17 6 -31 16 -31 21 0 19 54 58 70 51 22 -10 70 -5 86 8
19 16 17 42 -6 82 l-20 34 30 13 c16 7 30 19 30 26 0 18 -14 18 -49 -1 -30
-15 -48 -66 -35 -99 3 -9 2 -16 -4 -16 -6 0 -16 -2 -24 -5 -8 -3 -18 6 -25 25
-11 29 -10 32 13 41 28 10 30 43 4 45 -8 1 -19 2 -25 3 -5 0 -11 12 -11 25 -1
18 6 28 26 36 33 14 46 38 26 46 -15 6 -90 -29 -101 -47 -4 -6 -3 -15 3 -21 5
-5 7 -19 5 -29 -5 -18 -8 -17 -34 13 -15 18 -28 41 -29 51 0 10 -8 17 -19 17
-23 0 -36 -17 -36 -45 0 -30 -36 -25 -54 7 -14 24 -14 28 2 46 26 28 23 46 -5
30 -13 -6 -35 -11 -49 -9 -16 1 -38 -7 -56 -23 -17 -14 -33 -23 -36 -20 -3 3
-15 0 -27 -6 -18 -10 -24 -9 -31 1 -15 24 -10 38 17 41 15 2 30 10 34 18 4 8
15 29 24 47 29 56 -1 47 -70 -20 -50 -50 -64 -70 -60 -85 9 -28 -15 -46 -39
-28 -16 12 -17 16 -6 29 14 18 7 37 -15 37 -17 0 -17 2 -2 35 9 19 9 28 0 37
-17 17 -62 -27 -54 -54 3 -15 1 -19 -9 -16 -8 2 -15 14 -17 26 -4 24 -21 29
-40 10 -17 -17 -15 -42 8 -71 29 -37 25 -40 -25 -15 -24 13 -43 29 -42 36 1 7
-10 20 -25 30 -26 16 -28 15 -53 -8 -20 -19 -25 -20 -25 -7 0 13 -7 16 -29 14
-17 -2 -37 -9 -45 -16 -10 -8 -20 -9 -33 -3 -23 12 -90 7 -109 -9 -15 -13 -17
-9 -8 16 15 37 61 47 233 50 178 2 206 9 360 81 76 36 169 51 301 49 111 -3
120 -5 231 -49z m-1150 10 c-6 -7 -10 -24 -9 -37 2 -19 -2 -25 -22 -27 -20 -3
-23 -1 -12 9 6 7 12 19 12 26 0 18 -45 16 -60 -2 -7 -8 -21 -15 -32 -15 -17 0
-16 3 9 30 23 24 36 29 77 30 40 0 46 -2 37 -14z m-191 -25 c0 -24 -12 -32
-30 -21 -11 7 -11 11 -1 24 18 22 31 20 31 -3z m117 -98 c-9 -9 -20 -13 -24
-9 -4 4 -1 11 7 16 25 16 35 11 17 -7z m873 -78 c0 -25 -23 -35 -35 -15 -10
16 2 40 20 40 9 0 15 -9 15 -25z m-83 -31 c-9 -9 -28 6 -21 18 4 6 10 6 17 -1
6 -6 8 -13 4 -17z m-197 -28 c16 -21 59 -20 82 1 10 9 21 14 23 11 5 -4 -10
-48 -21 -66 -1 -2 -11 2 -23 10 -16 9 -23 10 -32 1 -15 -15 -49 1 -49 23 0 8
-7 17 -15 20 -8 4 -15 13 -15 20 0 17 28 5 50 -20z m440 -1 c10 -12 10 -18 -1
-31 -9 -11 -10 -20 -2 -32 11 -18 2 -55 -16 -67 -7 -4 -11 4 -11 20 0 14 -7
28 -15 31 -23 9 -1 94 25 94 4 0 13 -7 20 -15z m-635 -38 c71 -38 83 -62 30
-62 -30 0 -40 6 -56 33 -12 17 -27 32 -35 32 -8 0 -14 7 -14 15 0 20 5 19 75
-18z m523 23 c14 -1 13 -3 -3 -12 -11 -6 -33 -22 -48 -35 -40 -32 -50 -29 -31
10 19 37 34 49 52 42 8 -3 21 -5 30 -5z m-148 -15 c14 -17 6 -45 -13 -45 -19
0 -50 36 -42 49 9 16 41 13 55 -4z m165 -69 c22 -45 14 -56 -41 -56 l-44 0 20
39 c10 22 25 41 32 44 7 3 14 6 15 6 1 1 9 -15 18 -33z m170 -17 c0 -28 -29
-38 -39 -13 -7 19 11 47 28 41 6 -2 11 -14 11 -28z m-550 -40 c-4 -12 2 -23
18 -34 14 -9 30 -29 37 -45 7 -17 16 -30 21 -30 4 0 24 -21 44 -47 20 -27 46
-55 59 -63 13 -8 49 -33 81 -55 94 -65 155 -102 230 -140 102 -52 135 -84 151
-145 10 -39 11 -58 2 -74 -36 -70 -92 -91 -151 -56 -43 25 -49 62 -19 100 16
19 21 21 41 11 28 -15 61 -5 61 19 0 23 -19 30 -79 30 -41 0 -52 -5 -80 -34
-26 -27 -32 -41 -29 -61 4 -18 0 -29 -13 -36 -25 -13 -25 -42 -1 -35 21 7 70
-38 53 -48 -5 -4 -13 -2 -16 4 -4 6 -15 8 -24 5 -11 -3 -25 3 -36 15 -15 17
-16 24 -7 46 16 34 15 36 -10 33 -13 -2 -33 2 -45 9 -12 7 -29 12 -38 12 -24
0 -31 -31 -11 -46 17 -12 17 -14 2 -36 l-16 -23 -7 23 c-3 14 -11 21 -19 18
-8 -3 -14 1 -14 10 0 19 76 94 96 94 8 0 14 2 14 4 0 2 2 11 6 19 8 22 -43 38
-90 28 -30 -7 -42 -6 -53 5 -8 8 -25 14 -39 14 -30 0 -30 3 0 33 l25 25 10
-29 c11 -32 32 -37 51 -14 10 12 9 20 -5 41 -16 24 -16 27 1 45 9 10 23 19 29
19 7 0 15 6 18 14 6 16 -2 56 -12 56 -28 -1 -51 -17 -60 -41 -15 -43 -58 -36
-63 11 -3 21 1 25 25 26 34 1 49 21 36 46 -12 22 -27 23 -51 1 -14 -13 -21
-14 -30 -5 -7 7 -20 12 -30 12 -9 0 -22 8 -27 18 -7 14 -5 21 10 30 27 17 24
35 -16 95 -19 28 -35 58 -35 66 0 13 -4 13 -62 -6 -22 -7 -24 13 -3 33 8 9 15
24 15 34 0 19 24 30 48 22 7 -3 10 -12 7 -23z m-95 7 c0 -3 -4 -8 -10 -11 -5
-3 -10 -1 -10 4 0 6 5 11 10 11 6 0 10 -2 10 -4z m578 -28 c28 -28 8 -58 -39
-58 -25 0 -26 45 -1 59 22 13 26 13 40 -1z m-158 -39 c0 -15 -30 -23 -42 -11
-6 6 -8 18 -4 27 4 13 10 14 26 5 11 -6 20 -15 20 -21z m248 -51 c16 -21 -4
-58 -30 -58 -25 1 -58 21 -58 37 0 9 43 30 66 32 6 1 16 -5 22 -11z m-604 -21
c15 -24 -2 -34 -19 -11 -8 10 -15 23 -15 27 0 13 22 3 34 -16z m457 -40 c-10
-9 -11 -8 -5 6 3 10 9 15 12 12 3 -3 0 -11 -7 -18z m507 3 c11 -18 10 -20 -13
-20 -24 0 -34 18 -18 33 10 11 17 8 31 -13z m-315 -86 c-28 -43 -53 -57 -53
-30 0 7 7 19 15 26 8 7 15 23 15 36 0 14 5 33 12 43 11 18 12 18 25 -6 12 -23
10 -30 -14 -69z m186 62 c13 -16 4 -43 -22 -65 -23 -19 -39 36 -18 61 19 22
25 22 40 4z m-277 -30 c19 -5 26 -11 21 -21 -5 -13 -7 -14 -17 -2 -16 21 -58
28 -75 14 -12 -10 -13 -9 -2 10 9 18 16 21 29 14 9 -6 29 -12 44 -15z m188
-47 c0 -22 -6 -30 -24 -35 -14 -3 -30 -3 -35 1 -14 8 -14 42 -1 50 6 3 10 15
10 26 0 18 1 19 25 3 17 -11 25 -25 25 -45z m170 27 c0 -11 -52 -56 -65 -56
-11 0 -4 32 12 54 18 23 53 25 53 2z m162 -65 c7 -19 5 -22 -8 -17 -8 3 -22 6
-30 6 -8 0 -14 10 -14 25 0 21 3 23 22 16 12 -4 25 -18 30 -30z m-117 -15 l30
-25 -25 -9 c-18 -7 -31 -6 -44 4 -13 9 -24 10 -32 3 -16 -13 -28 19 -13 37 17
21 50 17 84 -10z m-133 -10 c9 -45 -36 -64 -51 -23 -10 26 3 47 29 47 11 0 19
-10 22 -24z m-742 -56 c0 -20 -2 -22 -10 -10 -5 8 -10 26 -10 40 0 20 2 22 10
10 5 -8 10 -26 10 -40z m645 22 c-8 -8 -25 10 -19 20 4 6 9 5 15 -3 4 -7 6
-15 4 -17z m317 -17 c19 -25 15 -55 -8 -55 -10 0 -12 8 -7 31 6 30 5 31 -16
19 -12 -6 -25 -18 -28 -26 -4 -11 -8 -12 -20 -3 -12 10 -10 16 8 36 28 29 49
29 71 -2z m-128 -54 c14 -48 -6 -61 -34 -21 -18 25 -20 33 -9 46 17 21 32 13
43 -25z m-104 -15 c0 -28 -27 -56 -34 -35 -16 51 -14 59 10 59 19 0 24 -5 24
-24z m189 -50 c-11 -12 -29 2 -29 25 0 18 1 18 19 2 10 -10 15 -22 10 -27z
m181 4 c0 -5 -4 -10 -10 -10 -5 0 -10 5 -10 10 0 6 5 10 10 10 6 0 10 -4 10
-10z m-973 -86 c2 -7 -7 -25 -21 -40 l-25 -29 -1 43 c0 39 2 43 22 40 12 -2
23 -8 25 -14z m129 -159 c10 -32 10 -37 -7 -46 -15 -8 -19 -6 -19 9 0 10 -5
23 -11 29 -8 8 -7 17 2 31 16 25 19 23 35 -23z m953 -2336 c13 -11 21 -22 19
-25 -3 -3 -19 6 -34 20 -34 30 -20 35 15 5z m1943 -811 c18 -14 30 -100 13
-95 -5 2 -12 17 -13 33 -2 16 -12 37 -23 47 -10 10 -19 20 -19 22 0 10 27 5
42 -7z m81 -170 c14 -49 47 -194 47 -210 0 -3 -9 -4 -19 -1 -27 7 -46 86 -30
124 13 34 5 63 -16 55 -18 -7 -48 45 -39 68 13 35 40 17 57 -36z"/>
<path d="M2724 7886 c-3 -8 2 -31 12 -51 15 -31 15 -38 3 -46 -28 -17 -46 -9
-64 30 -20 44 -38 56 -55 36 -18 -21 16 -91 53 -110 40 -20 41 -20 82 16 27
24 35 39 35 65 0 21 -6 37 -17 43 -10 5 -16 13 -13 18 3 4 -3 9 -13 11 -9 2
-20 -3 -23 -12z"/>
<path d="M2510 7845 c-10 -12 -10 -19 -2 -27 7 -7 12 -22 12 -35 0 -28 24 -40
45 -23 19 16 19 45 -1 75 -19 29 -36 32 -54 10z"/>
<path d="M2373 7833 c-16 -6 -17 -39 -2 -49 6 -3 17 0 25 8 12 11 12 17 2 30
-7 9 -19 14 -25 11z"/>
<path d="M2887 7813 c-10 -9 -9 -45 4 -102 7 -36 16 -52 31 -57 12 -3 24 -1
28 6 7 11 -6 61 -25 90 -5 8 -8 27 -6 42 2 27 -15 38 -32 21z"/>
<path d="M2813 7803 c-15 -5 -18 -33 -4 -33 21 0 41 13 41 26 0 14 -14 17 -37
7z"/>
<path d="M3009 7783 c-9 -62 -6 -123 4 -123 32 0 45 122 14 128 -10 2 -17 0
-18 -5z"/>
<path d="M3099 7704 c-11 -14 -10 -16 11 -12 14 1 23 6 21 11 -8 16 -19 17
-32 1z"/>
<path d="M3126 7671 c-10 -10 -27 -22 -39 -25 -20 -5 -22 -12 -24 -77 l-1 -71
36 7 c46 8 49 11 57 58 8 41 1 46 -27 20 -17 -15 -21 -15 -29 -3 -6 11 -4 18
7 25 10 6 29 20 43 32 24 20 25 23 10 38 -14 14 -17 14 -33 -4z"/>
<path d="M2987 7624 c-8 -8 11 -57 26 -66 27 -17 50 35 25 60 -13 13 -41 16
-51 6z"/>
<path d="M3250 7580 c0 -5 -11 -19 -25 -32 l-24 -23 20 -32 c12 -18 24 -33 27
-33 4 0 22 16 40 35 33 33 35 55 7 55 -8 0 -11 7 -8 20 4 15 0 20 -16 20 -11
0 -21 -4 -21 -10z"/>
<path d="M3012 7508 c-17 -17 -15 -48 3 -48 17 0 39 36 30 50 -8 13 -18 13
-33 -2z"/>
<path d="M3070 7470 c0 -5 5 -10 10 -10 6 0 10 5 10 10 0 6 -4 10 -10 10 -5 0
-10 -4 -10 -10z"/>
<path d="M3293 7449 c-41 -12 -47 -49 -10 -49 25 0 57 28 57 48 0 14 -3 14
-47 1z"/>
<path d="M3366 7261 c-17 -19 -22 -51 -8 -51 12 0 42 34 42 48 0 20 -17 22
-34 3z"/>
<path d="M3440 7190 c-12 -7 -12 -12 -3 -21 9 -9 16 -9 27 1 26 21 5 39 -24
20z"/>
<path d="M2317 7268 c-7 -21 15 -58 35 -58 27 0 34 27 13 50 -21 23 -41 26
-48 8z"/>
<path d="M2526 7121 c-3 -4 -7 -23 -8 -42 -2 -22 -12 -42 -32 -60 -33 -29 -29
-57 5 -38 27 14 49 5 49 -21 0 -32 30 -21 52 19 21 38 17 63 -9 60 -38 -3 -41
0 -37 46 4 41 -6 59 -20 36z"/>
<path d="M2550 6887 c0 -21 12 -28 27 -16 19 16 16 29 -7 29 -11 0 -20 -6 -20
-13z"/>
<path d="M7790 8069 c-25 -5 -70 -14 -100 -20 -30 -5 -66 -14 -80 -18 -14 -5
-45 -14 -70 -22 -58 -16 -110 -47 -110 -65 0 -19 7 -18 97 15 102 39 191 57
206 42 18 -18 37 -13 37 9 0 19 7 20 115 20 63 0 124 -4 137 -9 13 -5 57 -17
98 -26 112 -27 224 -87 296 -161 81 -81 164 -182 164 -197 0 -7 9 -29 20 -50
11 -20 19 -40 18 -44 -1 -5 7 -26 18 -48 33 -69 24 -347 -14 -445 -4 -10 -7
-5 -10 13 -2 15 -7 27 -11 27 -17 0 -32 -30 -26 -50 4 -12 1 -27 -5 -35 -18
-22 -8 -60 15 -60 16 0 20 6 19 32 -2 28 1 31 16 23 10 -5 21 -5 26 0 5 5 26
-3 49 -20 22 -16 50 -34 62 -39 11 -5 24 -15 28 -20 3 -6 14 -11 24 -11 38 0
292 -168 406 -270 17 -14 43 -34 58 -44 30 -18 49 -34 126 -101 25 -22 74 -61
108 -87 136 -105 249 -295 343 -578 5 -14 18 -50 30 -80 12 -30 28 -80 37
-110 8 -30 21 -77 29 -105 8 -27 20 -88 28 -135 42 -260 62 -348 126 -565 54
-183 62 -236 59 -415 -3 -144 -1 -352 4 -445 2 -22 8 -31 22 -33 11 -1 30 -21
43 -43 13 -23 46 -72 74 -110 47 -65 50 -71 33 -83 -17 -12 -15 -18 25 -106
61 -132 102 -199 124 -202 15 -2 22 -17 32 -63 26 -119 28 -139 15 -131 -24
15 -71 112 -71 146 0 24 -12 53 -37 90 -20 30 -62 104 -92 165 -31 61 -71 131
-88 155 -18 25 -44 66 -57 92 -50 91 -73 63 -31 -36 15 -35 25 -70 23 -78 -3
-7 -14 14 -26 47 -12 33 -25 66 -30 73 -29 53 -47 -35 -18 -93 26 -53 84 -125
101 -125 20 0 29 20 16 33 -6 6 -11 15 -11 21 0 23 62 -62 80 -111 11 -30 20
-56 20 -58 0 -3 -48 21 -107 52 -144 75 -165 85 -253 126 -144 66 -288 118
-395 142 -84 19 -133 36 -225 77 -30 14 -92 37 -137 51 -129 42 -288 140 -404
249 -25 24 -88 79 -139 123 -51 44 -112 100 -134 124 -23 25 -49 52 -58 60
-10 9 -26 23 -35 32 -19 17 -101 110 -149 169 -16 19 -32 36 -36 38 -21 9
-147 199 -155 232 -3 14 -11 34 -18 45 -6 11 -18 38 -25 60 -10 33 -100 221
-131 275 -5 8 -11 20 -13 25 -2 6 -13 37 -24 70 -12 33 -30 85 -40 115 -11 30
-27 80 -35 110 -9 30 -23 79 -32 109 -21 71 -22 223 -1 424 3 28 0 40 -11 44
-37 14 -41 -10 -58 -332 -2 -44 3 -118 11 -165 23 -135 107 -366 205 -564 49
-98 89 -186 89 -195 0 -23 83 -174 122 -222 93 -115 212 -251 269 -304 35 -33
93 -90 128 -127 l65 -67 -27 -10 c-14 -6 -32 -19 -39 -31 -17 -26 -50 -25 -85
3 -67 53 -215 110 -285 108 -27 -1 -38 3 -38 14 0 8 -30 34 -67 58 -38 25 -80
59 -96 76 -15 17 -34 31 -43 31 -9 0 -34 14 -56 31 -37 30 -40 31 -56 15 -16
-17 -16 -19 6 -34 110 -80 222 -178 222 -194 0 -12 7 -18 21 -18 17 0 19 3 10
14 -8 10 -9 16 -1 21 12 7 25 -19 16 -34 -7 -10 -85 -23 -235 -40 -93 -10
-110 -15 -98 -28 7 -6 203 16 325 37 44 8 69 5 148 -15 52 -13 107 -31 122
-39 37 -20 7 -20 -49 0 -70 24 -408 21 -456 -4 -10 -6 -64 -12 -120 -14 l-102
-4 -17 38 c-18 39 -44 51 -44 20 0 -28 67 -120 100 -137 26 -13 30 -14 30 -1
0 8 -4 18 -10 21 -5 3 -10 13 -10 21 0 11 20 14 105 14 70 0 115 5 133 14 26
13 134 29 197 29 46 0 129 -14 141 -24 6 -5 55 -13 110 -19 136 -14 130 -11
137 -78 7 -67 29 -92 58 -66 16 14 18 14 24 -6 4 -11 18 -28 31 -37 23 -14 26
-14 43 1 13 11 21 14 26 7 9 -16 45 -13 51 3 3 8 1 24 -6 35 -9 18 -8 21 12
21 14 0 27 -9 33 -22 15 -34 43 -35 51 -2 8 31 -12 51 -59 61 -31 6 -43 24
-33 49 5 13 18 6 69 -38 68 -59 126 -102 201 -150 l49 -32 -33 -28 c-33 -27
-33 -28 -15 -48 10 -11 15 -23 10 -28 -4 -4 -10 -1 -12 6 -7 18 -40 15 -52 -5
-14 -25 -30 -6 -38 43 l-6 39 22 -23 c18 -18 26 -20 41 -12 24 13 25 28 5 57
-13 19 -20 21 -42 12 -24 -9 -25 -8 -20 17 3 18 -2 33 -16 47 -18 18 -23 19
-45 6 -13 -8 -31 -26 -40 -42 -14 -22 -14 -31 -4 -47 7 -11 8 -20 3 -20 -16 0
-33 -57 -23 -77 19 -35 85 -57 170 -55 52 1 54 1 68 -33 8 -20 38 -60 67 -89
28 -30 77 -81 107 -115 56 -62 151 -127 170 -116 15 10 12 25 -7 32 -19 7 -52
42 -53 55 0 13 34 -4 58 -28 13 -13 26 -24 31 -24 4 0 20 -11 35 -25 30 -28
56 -33 56 -11 0 17 -46 56 -66 56 -7 0 -19 9 -26 19 -8 11 -38 30 -68 44 -32
15 -64 39 -79 61 -14 19 -52 73 -85 118 -32 46 -70 95 -84 110 -20 22 -23 33
-18 62 7 37 15 43 32 27 5 -5 54 -23 109 -41 55 -17 120 -42 145 -55 58 -32
86 -42 195 -72 50 -13 123 -33 162 -44 40 -11 107 -38 149 -60 42 -21 82 -39
89 -39 7 0 89 -38 181 -84 93 -46 178 -87 189 -90 31 -10 74 -76 187 -285 22
-41 51 -88 64 -104 13 -16 24 -38 24 -50 0 -24 46 -118 63 -129 20 -12 49 12
44 35 -3 12 -14 60 -25 107 -11 47 -27 114 -35 150 -9 36 -26 108 -38 160 -12
52 -26 106 -32 120 -6 14 -11 40 -13 58 -2 19 -11 45 -21 59 -26 37 -29 43
-53 95 -12 26 -33 62 -48 82 -72 93 -136 191 -147 224 -8 23 -20 38 -32 40
-18 3 -19 11 -17 125 1 67 6 163 12 212 11 107 7 196 -13 287 -8 37 -15 81
-15 98 0 17 -12 56 -26 87 -20 42 -23 57 -14 63 9 5 9 9 1 11 -17 6 -72 196
-77 267 -2 35 -9 82 -15 105 -6 23 -19 85 -30 137 -38 189 -62 286 -80 322
-11 21 -19 46 -19 56 0 10 -11 42 -25 70 -14 29 -25 57 -25 63 0 6 -6 23 -14
37 -7 15 -21 52 -31 82 -20 62 -87 190 -122 235 -13 17 -42 54 -63 84 -21 29
-69 77 -107 105 -37 28 -97 79 -133 114 -35 34 -80 69 -99 78 -19 9 -51 33
-71 53 -81 79 -203 161 -375 251 -27 15 -66 36 -85 48 -19 12 -47 22 -62 22
-38 0 -41 11 -12 54 19 28 25 49 24 82 -2 55 -1 66 6 132 4 34 2 58 -5 65 -6
6 -11 24 -11 40 0 55 -34 172 -68 236 -19 35 -56 86 -83 113 -27 27 -55 62
-63 77 -33 62 -157 138 -291 176 -33 9 -68 24 -77 32 -27 24 -262 39 -348 22z
m830 -3797 c0 -11 -41 -34 -48 -27 -4 4 2 13 12 21 22 15 36 18 36 6z m70 -58
c0 -8 -9 -14 -20 -14 -23 0 -44 -34 -37 -61 3 -10 -1 -23 -8 -29 -10 -8 -14
-1 -18 32 -4 38 -1 46 25 70 31 27 58 28 58 2z m-144 -69 c1 -34 0 -36 -13
-20 -16 24 -17 68 -1 63 7 -3 13 -22 14 -43z m279 -255 c3 -5 1 -10 -4 -10 -6
0 -11 5 -11 10 0 6 2 10 4 10 3 0 8 -4 11 -10z m252 -140 c11 -16 10 -18 -1
-14 -15 6 -30 34 -18 34 4 0 13 -9 19 -20z m1319 -106 c14 -31 23 -58 20 -61
-3 -4 -56 102 -56 113 0 17 15 -5 36 -52z m59 -104 c19 -37 19 -51 -1 -25 -26
34 -36 55 -25 55 6 0 17 -13 26 -30z"/>
<path d="M7700 7945 c-17 -21 -2 -50 26 -50 14 0 19 7 19 30 0 34 -24 45 -45
20z"/>
<path d="M7572 7858 c-15 -15 -16 -64 0 -74 11 -7 38 21 38 41 0 6 -6 19 -13
28 -10 14 -15 15 -25 5z"/>
<path d="M8213 7828 c-25 -40 -33 -65 -33 -109 0 -26 4 -50 9 -53 14 -9 33 21
27 41 -3 10 1 31 9 47 25 48 15 115 -12 74z"/>
<path d="M7919 7808 c0 -2 -6 -23 -12 -47 -13 -49 -35 -65 -44 -32 -9 34 -43
22 -65 -21 -32 -62 -22 -162 18 -180 15 -7 22 -18 21 -31 -3 -30 19 -32 48 -3
31 31 35 32 35 5 0 -32 34 -19 41 16 4 17 7 22 8 13 1 -20 41 -26 41 -6 0 6 7
19 16 29 15 16 15 20 0 41 -18 26 -22 48 -5 31 16 -16 39 -5 39 18 0 21 -20
25 -37 8 -15 -15 -30 56 -15 74 11 13 5 67 -8 67 -15 0 -32 -29 -26 -47 3 -10
2 -24 -3 -32 -7 -11 -11 -9 -20 7 -9 16 -9 26 0 40 15 23 6 52 -16 52 -8 0
-15 -1 -16 -2z m-10 -158 c9 -28 9 -29 -9 -20 -20 11 -26 31 -13 43 10 10 10
10 22 -23z"/>
<path d="M7542 7663 c3 -50 21 -64 41 -32 13 21 -9 79 -30 79 -11 0 -13 -12
-11 -47z"/>
<path d="M8024 7699 c-3 -6 -2 -15 4 -21 13 -13 32 -2 32 18 0 16 -26 19 -36
3z"/>
<path d="M8382 7635 c-6 -14 -9 -39 -5 -56 5 -26 10 -30 30 -26 13 2 26 1 29
-4 9 -16 34 3 34 26 0 31 -20 42 -36 21 -11 -16 -13 -14 -16 20 -4 45 -20 54
-36 19z"/>
<path d="M8297 7603 c-4 -3 -7 -17 -7 -30 0 -33 24 -24 28 10 3 26 -7 35 -21
20z"/>
<path d="M7453 7483 c-21 -8 -15 -28 18 -59 18 -16 42 -52 55 -81 21 -46 28
-53 60 -59 30 -5 40 -3 51 11 12 18 13 17 13 -7 0 -26 24 -45 35 -28 3 5 2 52
-1 105 -6 80 -10 95 -23 93 -12 -2 -17 -17 -19 -56 -2 -28 -7 -52 -11 -52 -11
0 -21 36 -21 73 0 16 -5 27 -14 27 -8 0 -17 6 -20 13 -3 9 -9 7 -19 -5 -18
-23 -21 -23 -51 7 -25 25 -31 27 -53 18z"/>
<path d="M8218 7463 c-2 -5 -4 -24 -3 -43 0 -28 4 -35 19 -35 20 0 41 48 31
73 -5 13 -42 17 -47 5z"/>
<path d="M8540 7390 c-14 -26 -15 -26 31 -50 73 -37 82 12 11 52 -30 17 -32
17 -42 -2z"/>
<path d="M8005 7390 c-8 -12 20 -24 35 -15 5 3 10 10 10 16 0 12 -37 12 -45
-1z"/>
<path d="M7724 7379 c-7 -11 3 -119 13 -145 4 -12 0 -14 -21 -8 -23 5 -26 3
-26 -19 0 -19 12 -32 48 -56 27 -17 55 -31 63 -31 8 0 28 -9 46 -19 17 -11 49
-25 70 -31 41 -13 133 -74 133 -89 0 -5 -8 -8 -17 -7 -13 1 -18 -7 -19 -29 -1
-16 -5 -49 -9 -73 -7 -38 -6 -42 11 -41 11 1 29 1 41 1 30 -3 20 -27 -18 -42
-19 -8 -29 -19 -27 -29 4 -21 42 -26 61 -7 8 8 28 14 43 13 29 -2 29 -2 35 68
3 39 11 80 18 93 6 12 9 28 4 35 -4 6 -10 38 -14 70 -8 66 -10 70 -33 61 -12
-5 -16 -20 -17 -63 l0 -56 -14 50 c-8 28 -14 67 -15 88 0 35 -2 37 -25 31 -23
-6 -25 -4 -25 30 0 39 -25 60 -41 35 -6 -10 -9 -7 -9 13 0 15 -5 30 -11 34
-21 13 -40 -22 -41 -75 0 -63 -10 -59 -18 7 -7 64 -33 65 -40 2 -6 -56 -16
-43 -25 33 -11 88 -40 94 -36 7 2 -39 -1 -50 -14 -50 -10 0 -15 11 -16 38 -3
78 -8 104 -24 138 -17 37 -20 39 -31 23z"/>
<path d="M7445 7340 c-3 -11 -4 -24 0 -30 3 -5 8 -25 10 -44 6 -45 37 -100 58
-104 22 -5 22 16 -3 78 -11 28 -20 66 -20 85 0 28 -4 35 -19 35 -11 0 -22 -9
-26 -20z"/>
<path d="M8450 7246 c0 -10 9 -16 21 -16 24 0 21 23 -4 28 -10 2 -17 -3 -17
-12z"/>
<path d="M7562 7225 c-16 -35 -15 -53 3 -71 8 -9 15 -24 15 -33 0 -25 28 -47
41 -34 12 12 -21 155 -37 160 -6 2 -16 -8 -22 -22z"/>
<path d="M7651 7158 c2 -46 15 -73 34 -73 15 0 21 -11 29 -49 10 -44 36 -77
36 -45 0 10 3 10 12 1 7 -7 20 -12 29 -12 9 0 19 -7 23 -15 3 -8 16 -14 28
-14 13 1 31 -2 41 -6 14 -6 17 -2 17 29 0 40 -8 46 -64 49 -27 2 -36 6 -36 20
0 20 -11 22 -28 5 -9 -9 -13 -5 -18 20 -7 34 -25 54 -44 50 -7 -2 -17 12 -22
30 -10 37 -39 44 -37 10z"/>
<path d="M7507 7113 c-11 -10 -8 -54 6 -100 15 -51 27 -65 46 -54 12 8 12 17
1 58 -7 26 -17 52 -21 58 -5 5 -9 17 -9 27 0 18 -11 24 -23 11z"/>
<path d="M7940 6987 c0 -18 6 -39 13 -46 10 -11 8 -13 -10 -8 -32 7 -47 -14
-32 -47 12 -26 42 -35 55 -15 3 6 12 37 18 69 11 52 10 59 -6 69 -29 18 -38
13 -38 -22z"/>
<path d="M7595 7000 c-7 -12 20 -119 34 -133 21 -21 33 7 22 49 -5 22 -13 51
-16 67 -5 26 -28 37 -40 17z"/>
<path d="M8343 6983 c-3 -10 -13 -26 -21 -36 -19 -22 -5 -92 18 -92 12 0 14
10 12 44 -3 33 -1 42 10 39 7 -3 15 -18 18 -34 4 -20 12 -30 28 -32 12 -2 22
2 22 8 0 7 7 5 16 -5 20 -19 37 -15 44 11 3 11 14 19 25 19 17 0 20 8 23 48 3
42 1 48 -15 45 -11 -2 -19 -14 -21 -31 -3 -27 -16 -35 -27 -17 -14 22 -35 10
-35 -21 0 -17 -4 -28 -10 -24 -5 3 -10 19 -10 35 0 46 -63 81 -77 43z"/>
<path d="M8261 6952 c-15 -28 -14 -42 3 -42 18 0 31 39 18 52 -7 7 -14 3 -21
-10z"/>
<path d="M7693 6944 c-8 -23 29 -108 50 -112 22 -4 22 15 1 79 -16 49 -39 64
-51 33z"/>
<path d="M7804 6915 c-10 -25 21 -90 45 -93 25 -4 26 8 5 65 -17 43 -40 56
-50 28z"/>
<path d="M8280 6885 c0 -8 5 -15 10 -15 6 0 10 7 10 15 0 8 -4 15 -10 15 -5 0
-10 -7 -10 -15z"/>
<path d="M8191 6856 c-27 -44 -28 -76 -1 -76 15 0 20 7 20 27 0 14 7 34 16 44
15 17 12 39 -6 39 -5 0 -18 -15 -29 -34z"/>
<path d="M7907 6814 c-4 -4 -7 -16 -7 -26 0 -14 6 -19 23 -16 14 2 22 10 22
23 0 20 -25 32 -38 19z"/>
<path d="M3131 6776 c-24 -29 16 -96 56 -96 19 0 16 27 -4 34 -14 6 -14 8 3
20 18 14 18 15 0 35 -22 24 -39 27 -55 7z"/>
<path d="M3054 6766 c-9 -24 3 -47 21 -40 18 7 16 45 -2 52 -7 2 -16 -3 -19
-12z"/>
<path d="M3506 6763 c-8 -21 8 -38 29 -29 13 4 14 10 5 26 -13 24 -26 26 -34
3z"/>
<path d="M8130 6740 c0 -5 5 -10 10 -10 6 0 10 5 10 10 0 6 -4 10 -10 10 -5 0
-10 -4 -10 -10z"/>
<path d="M3490 6720 c0 -5 5 -10 10 -10 6 0 10 5 10 10 0 6 -4 10 -10 10 -5 0
-10 -4 -10 -10z"/>
<path d="M8494 6704 c-7 -29 11 -47 53 -51 29 -2 155 -77 211 -123 67 -56 222
-249 280 -347 28 -49 59 -99 69 -112 22 -31 69 -108 85 -141 6 -14 19 -34 28
-45 9 -11 29 -49 44 -85 30 -69 32 -76 94 -215 22 -49 47 -115 57 -145 9 -30
23 -69 30 -85 8 -17 27 -78 44 -135 31 -111 72 -219 95 -254 7 -12 16 -37 20
-56 l7 -35 -18 28 c-10 15 -25 27 -35 27 -9 0 -19 4 -22 8 -3 5 -26 9 -51 10
-32 0 -48 -5 -54 -16 -9 -15 -11 -15 -31 3 -12 11 -26 28 -32 38 -17 33 -88
244 -88 264 0 25 -28 63 -46 63 -22 0 -17 -26 31 -165 24 -72 45 -144 45 -161
0 -16 7 -39 15 -50 18 -24 19 -34 2 -34 -16 0 -57 82 -57 114 0 31 -22 50 -38
34 -7 -7 -12 -23 -12 -37 0 -19 -3 -22 -12 -13 -6 6 -12 40 -12 76 -1 44 -6
70 -18 82 -19 23 -40 70 -79 184 -34 100 -35 110 -9 110 10 0 23 8 28 17 8 13
4 23 -17 43 -14 14 -39 43 -56 63 -16 20 -41 49 -54 64 -13 16 -32 46 -42 68
-11 22 -26 51 -34 65 -9 14 -20 37 -25 52 -6 18 -14 26 -24 22 -17 -7 -31 -55
-18 -63 5 -3 24 -33 42 -66 35 -66 77 -126 129 -186 32 -37 33 -42 35 -126 2
-88 7 -108 67 -242 11 -24 17 -46 14 -49 -3 -3 -5 0 -5 6 0 15 -33 15 -48 0
-8 -8 -16 -5 -31 13 -11 13 -20 30 -21 37 0 6 -4 12 -9 12 -14 0 -20 53 -9 74
6 12 7 26 0 40 -26 59 -56 139 -76 209 -29 98 -46 119 -46 57 0 -51 17 -120
50 -200 35 -87 35 -249 0 -214 -6 6 -23 44 -38 84 -15 40 -32 75 -39 77 -19 7
-24 -32 -8 -70 20 -47 19 -57 -4 -57 -24 0 -57 -29 -66 -57 -4 -15 0 -28 14
-42 12 -12 21 -29 21 -38 0 -33 -65 54 -88 118 -28 79 -71 166 -88 180 -23 19
-32 1 -23 -43 6 -34 5 -45 -8 -55 -14 -11 -13 -14 10 -22 22 -9 47 -38 47 -56
0 -3 -11 -3 -25 1 -28 7 -29 5 -14 -30 7 -14 26 -30 43 -36 24 -8 36 -21 50
-56 28 -70 105 -109 93 -48 -8 45 8 24 48 -63 27 -58 39 -97 37 -119 -3 -31 0
-34 62 -64 36 -18 72 -42 80 -55 28 -42 106 -58 106 -21 0 19 -89 186 -100
186 -15 0 -17 -38 -4 -70 17 -38 12 -49 -11 -26 -9 9 -19 16 -23 16 -10 0 -35
44 -115 203 -56 112 -67 140 -57 152 20 24 44 17 63 -16 9 -17 26 -33 36 -36
10 -3 23 -19 28 -36 6 -23 16 -33 32 -35 22 -4 23 -2 16 35 -4 21 -11 43 -17
50 -6 8 -6 19 2 33 11 20 13 18 35 -26 36 -71 38 -88 12 -99 -25 -11 -25 -45
0 -84 12 -18 21 -22 44 -17 26 5 32 1 55 -35 27 -44 57 -49 62 -11 2 12 6 22
10 22 13 -1 57 -46 74 -77 17 -30 17 -31 -3 -36 -17 -5 -19 -9 -10 -26 25 -46
3 -83 -32 -53 -49 43 -29 -56 22 -106 20 -20 46 -52 56 -69 18 -31 45 -45 45
-23 0 13 26 13 48 -1 21 -13 72 4 72 24 0 8 -15 31 -33 52 -38 44 -62 41 -52
-6 9 -40 -23 -36 -38 5 -6 14 -10 16 -21 7 -11 -9 -15 -7 -20 11 -16 62 1 120
32 111 32 -8 32 23 1 81 -17 31 -35 58 -40 61 -19 12 -8 21 22 17 19 -3 33
-12 39 -26 12 -31 45 -57 64 -50 22 8 20 17 -8 59 -23 33 -26 65 -6 65 4 0 24
-27 45 -60 40 -64 54 -71 84 -41 14 14 27 17 52 12 37 -7 48 -25 99 -150 17
-41 30 -60 40 -59 23 5 23 32 2 80 -61 133 -105 237 -111 263 -4 17 -17 48
-28 70 -17 35 -44 115 -73 220 -25 91 -84 271 -91 280 -5 5 -9 17 -9 26 0 9
-18 57 -41 105 -22 49 -49 116 -60 149 -11 33 -29 76 -39 95 -10 19 -25 46
-32 60 -6 14 -25 44 -40 67 -15 23 -28 47 -28 53 0 6 -13 30 -29 53 -15 23
-38 62 -51 87 -57 113 -216 314 -325 411 -99 88 -160 119 -237 119 -54 0 -58
-2 -64 -26z m686 -1783 c0 -6 -4 -13 -10 -16 -5 -3 -10 1 -10 9 0 9 5 16 10
16 6 0 10 -4 10 -9z"/>
<path d="M3224 6705 c-9 -23 3 -45 25 -45 29 0 36 18 15 41 -21 23 -33 24 -40
4z"/>
<path d="M2956 6684 c-15 -14 -14 -18 14 -44 16 -15 30 -38 30 -50 0 -27 26
-77 46 -88 10 -6 17 -27 19 -62 5 -63 20 -84 40 -56 16 22 17 21 35 -62 13
-57 24 -70 44 -53 11 9 15 6 20 -16 23 -94 27 -103 46 -103 16 0 20 -7 20 -30
0 -20 6 -32 18 -36 39 -12 47 -22 47 -60 0 -51 20 -87 45 -79 13 4 24 -3 39
-28 24 -40 26 -48 9 -44 -15 2 -14 -51 1 -66 18 -18 44 1 39 28 -7 33 -4 32
27 -9 21 -28 24 -38 15 -53 -8 -13 -9 -26 -1 -45 11 -28 40 -39 43 -15 2 19 4
30 12 59 10 34 -23 94 -83 153 -23 21 -41 45 -41 51 0 7 -22 42 -49 77 -27 36
-56 86 -66 111 -10 26 -29 55 -42 65 -28 23 -29 27 -3 34 27 7 27 47 1 47 -11
0 -23 -5 -27 -11 -3 -6 -14 3 -26 22 -17 27 -18 36 -7 56 17 31 -2 54 -30 36
-16 -10 -21 -6 -40 27 -11 21 -21 47 -21 58 0 11 -13 33 -30 49 -16 15 -30 32
-30 37 0 20 -46 76 -62 76 -10 0 -18 6 -18 14 0 23 -17 28 -34 10z"/>
<path d="M2896 6683 c-12 -12 -6 -43 9 -43 8 0 15 9 15 19 0 21 -13 34 -24 24z"/>
<path d="M3312 6671 c-7 -4 -17 -26 -22 -47 -14 -59 7 -82 164 -182 27 -18 56
-32 63 -32 8 0 37 -26 66 -57 91 -101 115 -123 131 -123 9 0 28 -7 41 -16 20
-13 25 -25 25 -55 0 -40 29 -126 74 -215 22 -47 41 -64 67 -64 17 0 9 47 -11
65 -21 19 -75 124 -67 131 6 6 59 -61 77 -96 7 -14 28 -43 47 -66 18 -23 33
-45 33 -49 0 -4 14 -26 30 -49 58 -79 147 -221 158 -253 6 -18 22 -48 35 -65
29 -41 68 -124 93 -202 10 -33 29 -74 41 -90 53 -73 66 -117 99 -326 31 -203
51 -281 88 -360 33 -68 60 -86 85 -56 10 12 9 18 -6 34 -29 30 -73 124 -83
178 -5 27 -13 69 -19 94 -10 47 -24 132 -40 258 -6 46 -21 98 -41 139 -17 36
-34 81 -37 102 -3 20 -22 65 -41 101 -58 107 -62 114 -62 129 0 7 -18 40 -40
72 -22 33 -50 84 -61 114 -11 30 -25 57 -30 60 -5 4 -9 13 -9 21 0 9 -11 30
-24 47 -14 18 -29 44 -35 59 -5 15 -35 63 -66 107 -30 45 -55 85 -55 89 0 5
-12 23 -27 41 -16 17 -44 52 -63 77 -19 25 -55 67 -80 93 -25 27 -59 64 -76
83 -17 19 -56 56 -88 82 -31 25 -67 56 -79 67 -12 12 -37 32 -54 46 -18 14
-33 31 -33 38 0 7 -13 15 -30 18 -16 4 -44 20 -61 37 -32 30 -53 36 -77 21z"/>
<path d="M7745 6670 c3 -5 8 -10 11 -10 2 0 4 5 4 10 0 6 -5 10 -11 10 -5 0
-7 -4 -4 -10z"/>
<path d="M2717 6628 c-6 -19 11 -48 29 -48 20 0 29 27 14 45 -15 18 -37 19
-43 3z"/>
<path d="M2790 6615 c0 -18 5 -25 20 -25 15 0 20 7 20 25 0 18 -5 25 -20 25
-15 0 -20 -7 -20 -25z"/>
<path d="M2848 6557 c-44 -39 -33 -172 15 -179 17 -3 21 -11 22 -56 2 -54 15
-80 34 -68 6 4 11 14 11 23 0 9 3 13 8 9 4 -4 7 -32 8 -61 0 -57 15 -85 45
-85 23 0 30 -12 44 -79 8 -44 15 -56 29 -56 10 0 29 -15 41 -33 18 -26 21 -42
17 -82 -4 -41 -2 -50 12 -50 11 0 16 9 16 28 1 23 2 25 11 9 6 -10 18 -48 27
-85 15 -59 20 -67 40 -66 12 0 21 -4 19 -10 -6 -16 28 -77 57 -104 14 -13 29
-44 36 -75 15 -61 25 -77 51 -77 14 0 19 -7 19 -27 0 -40 22 -78 45 -78 11 0
21 -7 22 -15 10 -78 15 -90 37 -96 16 -4 31 -22 47 -57 13 -29 33 -65 45 -82
11 -16 24 -37 28 -45 23 -51 48 -79 69 -80 14 0 7 47 -12 66 -10 11 -24 38
-32 60 -7 21 -18 45 -23 53 -6 7 -29 49 -51 92 -50 98 -121 215 -153 253 -13
17 -28 39 -33 50 -5 12 -18 35 -29 51 -10 17 -38 66 -60 110 -23 44 -48 87
-56 96 -8 8 -14 26 -14 38 0 13 -20 45 -45 73 -35 39 -44 57 -42 81 2 25 -2
32 -23 37 -32 8 -71 75 -61 104 10 26 4 46 -14 46 -7 0 -27 28 -44 63 -32 65
-42 83 -78 134 -17 24 -21 39 -17 63 6 26 4 31 -11 28 -21 -4 -47 32 -27 39
14 5 17 49 3 57 -4 3 -19 -4 -33 -17z"/>
<path d="M3730 6546 c0 -13 20 -26 41 -26 15 0 10 27 -7 34 -24 9 -34 7 -34
-8z"/>
<path d="M2582 6533 c-5 -10 -13 -45 -17 -77 -4 -33 -13 -69 -20 -80 -7 -12
-15 -41 -18 -65 -5 -36 -2 -44 13 -48 22 -6 33 -71 15 -93 -6 -8 -13 -34 -14
-57 -2 -37 1 -43 18 -43 15 0 20 -9 26 -49 4 -28 4 -59 1 -69 -5 -13 2 -30 19
-50 14 -16 25 -36 25 -44 0 -8 9 -41 20 -73 11 -32 20 -74 20 -94 0 -44 13
-66 33 -58 17 6 47 -61 47 -105 0 -27 22 -53 34 -41 13 14 46 -42 46 -78 0
-39 19 -63 42 -54 10 4 25 -14 48 -60 19 -37 41 -70 50 -75 9 -5 22 -27 29
-50 6 -22 25 -55 41 -74 16 -18 42 -60 58 -92 15 -32 42 -73 59 -90 17 -17 36
-49 42 -71 7 -25 20 -44 35 -53 14 -7 27 -23 30 -35 3 -13 22 -42 41 -65 19
-23 35 -46 35 -51 0 -12 27 -12 35 1 7 12 -22 70 -35 70 -6 0 -10 5 -10 10 0
18 -43 70 -57 70 -7 0 -13 9 -13 19 0 11 -4 23 -10 26 -5 3 -10 16 -10 29 0
12 -35 76 -78 142 -44 66 -92 148 -107 182 -16 35 -37 70 -48 77 -18 13 -19
17 -8 39 15 28 9 56 -13 56 -8 0 -17 9 -21 19 -3 12 -17 21 -33 23 -25 3 -27
6 -24 46 3 42 1 46 -57 104 -56 55 -75 88 -51 88 6 0 10 9 10 20 0 20 -47 70
-66 70 -7 0 -19 18 -28 40 -19 49 -19 50 -2 50 8 0 17 8 21 17 4 13 -5 28 -33
53 -38 34 -54 69 -67 143 -5 30 -3 37 10 37 31 0 29 32 -3 59 -26 22 -31 34
-33 78 -2 28 2 57 8 65 24 31 26 63 3 63 -10 0 -16 13 -18 43 -2 33 0 42 13
42 25 0 28 25 10 80 -18 53 -29 61 -43 33z"/>
<path d="M2690 6489 c-9 -16 -9 -32 -1 -63 6 -22 11 -52 11 -66 -1 -104 7
-140 34 -140 20 0 27 -35 26 -117 -1 -60 1 -73 14 -73 11 0 16 10 16 33 1 32
1 32 27 -18 21 -41 25 -61 24 -122 -1 -57 1 -73 13 -73 7 0 17 12 21 28 7 26
9 25 36 -32 18 -38 26 -68 23 -83 -8 -29 13 -58 31 -43 17 14 35 -30 35 -86 0
-41 2 -45 22 -42 17 2 27 -5 40 -32 9 -19 17 -46 18 -59 0 -14 15 -38 35 -58
21 -21 37 -47 41 -71 9 -48 19 -67 37 -67 15 0 93 -98 122 -154 9 -18 39 -63
68 -101 29 -38 65 -91 81 -117 59 -96 143 -193 167 -193 32 0 21 29 -32 88
-28 32 -67 86 -86 122 -20 36 -63 100 -94 143 -33 43 -61 93 -65 112 -6 33
-31 68 -99 135 -30 30 -33 45 -6 31 22 -12 31 -5 31 23 -1 13 -16 32 -41 49
-43 30 -59 34 -59 15 0 -7 -8 3 -16 22 -9 19 -20 43 -25 53 -5 10 -5 17 0 17
18 0 21 33 6 57 -9 13 -28 29 -43 36 -15 6 -33 17 -39 24 -15 14 -17 33 -3 33
6 0 10 13 10 28 0 22 -7 32 -34 45 -44 20 -63 52 -40 65 24 14 10 44 -32 67
-32 17 -35 22 -29 52 5 29 3 35 -20 45 -34 15 -55 56 -55 108 0 32 -4 40 -18
40 -19 0 -32 20 -52 73 -8 22 -7 29 5 33 26 10 17 48 -15 66 -28 16 -42 48
-20 48 20 0 10 47 -15 70 -14 13 -25 31 -25 41 0 27 -18 32 -30 8z"/>
<path d="M3210 6491 c0 -22 37 -38 51 -24 16 16 -2 43 -27 43 -17 0 -24 -6
-24 -19z"/>
<path d="M8094 6491 c-37 -22 -61 -73 -59 -121 2 -32 6 -36 34 -31 6 0 11 22
13 48 3 42 7 50 33 62 37 18 47 32 33 48 -14 17 -17 16 -54 -6z"/>
<path d="M3899 6453 c-6 -44 20 -98 53 -109 34 -10 42 11 14 34 -14 11 -26 29
-26 41 0 19 -39 51 -41 34z"/>
<path d="M3780 6417 c0 -10 64 -73 92 -91 24 -16 29 -16 34 -3 3 9 -3 24 -14
35 -11 11 -24 27 -28 35 -8 14 -84 36 -84 24z"/>
<path d="M8263 6383 c-9 -26 0 -119 12 -131 10 -10 40 15 36 30 -2 7 -4 38 -5
68 -1 42 -5 55 -17 58 -11 2 -20 -7 -26 -25z"/>
<path d="M8031 6282 c-10 -19 -1 -117 13 -140 4 -6 14 -12 23 -12 14 0 15 10
10 68 -8 98 -23 126 -46 84z"/>
<path d="M9329 6278 c-3 -37 6 -67 35 -113 45 -69 59 -80 80 -60 22 22 21 25
-24 69 -23 23 -45 56 -51 78 -9 36 -38 54 -40 26z"/>
<path d="M2628 6200 c2 -27 8 -50 13 -50 10 0 12 44 3 78 -11 39 -19 24 -16
-28z"/>
<path d="M8300 6201 c-8 -16 -7 -34 4 -73 8 -29 17 -80 21 -113 4 -33 17 -91
29 -130 39 -121 50 -175 37 -188 -17 -17 -13 -59 15 -139 14 -40 30 -86 35
-103 5 -16 28 -68 52 -115 36 -72 46 -85 67 -85 39 0 36 34 -8 101 -21 32 -55
104 -76 159 -21 55 -42 111 -47 124 -11 28 7 59 25 41 21 -21 43 -10 59 31 15
39 37 46 37 13 0 -13 20 -67 51 -139 4 -11 18 -48 29 -83 37 -114 52 -143 76
-153 15 -5 33 -5 48 2 23 11 28 23 41 99 4 19 11 45 17 57 9 17 8 31 -5 60
-20 51 -47 122 -47 129 0 2 9 0 20 -6 30 -16 58 -3 65 30 9 42 -2 56 -27 33
-19 -17 -20 -17 -35 2 -27 37 -61 111 -69 150 -7 37 -36 91 -70 129 -16 17
-17 18 -26 2 -7 -13 4 -49 43 -139 38 -89 53 -138 56 -180 2 -32 13 -81 24
-109 13 -33 18 -61 14 -77 -4 -14 -8 -45 -9 -68 -1 -23 -5 -45 -9 -49 -12 -13
-37 18 -47 60 -6 22 -20 59 -30 81 -52 111 -72 163 -81 209 -16 90 -18 98 -30
133 -6 19 -9 35 -7 36 35 19 43 28 46 54 2 24 -1 31 -14 29 -12 -1 -27 23 -54
89 -23 54 -44 91 -54 93 -28 6 -20 -63 16 -129 27 -53 30 -62 18 -84 -11 -20
-10 -34 5 -89 15 -56 16 -72 5 -111 -7 -25 -17 -48 -22 -51 -29 -18 -110 186
-123 310 -10 88 -29 169 -42 173 -7 3 -17 -5 -23 -16z"/>
<path d="M8147 6177 c-7 -19 9 -90 73 -312 42 -149 68 -188 100 -150 10 12 9
20 -3 39 -23 34 -113 312 -132 404 -7 32 -29 43 -38 19z"/>
<path d="M4250 6146 c0 -20 39 -66 56 -66 22 0 16 31 -12 56 -28 27 -44 31
-44 10z"/>
<path d="M4224 6085 c8 -41 0 -46 -14 -9 -8 20 -14 24 -33 19 -12 -4 -26 -11
-31 -15 -13 -13 1 -40 21 -40 10 0 24 -9 31 -21 10 -16 19 -19 40 -14 56 14
59 34 16 88 -29 36 -38 34 -30 -8z"/>
<path d="M3440 6070 c0 -15 5 -20 18 -18 9 2 17 10 17 18 0 8 -8 16 -17 18
-13 2 -18 -3 -18 -18z"/>
<path d="M7796 5995 c-7 -18 4 -67 37 -175 19 -60 28 -76 45 -78 18 -3 22 2
22 21 0 14 -7 40 -15 59 -8 20 -23 68 -33 109 -19 73 -42 99 -56 64z"/>
<path d="M8034 5986 c-7 -31 7 -101 48 -230 25 -78 39 -106 68 -135 36 -35 42
-48 80 -156 12 -36 22 -50 36 -50 16 0 19 7 18 41 -1 58 -42 161 -79 198 -33
33 -47 60 -75 146 -10 30 -26 73 -35 94 -9 22 -14 52 -11 66 9 47 -38 71 -50
26z"/>
<path d="M4535 5980 c3 -5 8 -10 11 -10 2 0 4 5 4 10 0 6 -5 10 -11 10 -5 0
-7 -4 -4 -10z"/>
<path d="M3570 5671 c0 -41 20 -67 45 -57 19 7 19 29 0 66 -23 44 -45 39 -45
-9z"/>
<path d="M9162 5577 c-6 -7 -14 -32 -18 -55 -5 -34 -4 -42 9 -42 9 0 18 -9 22
-20 3 -10 18 -29 33 -42 15 -13 35 -35 45 -50 23 -37 57 -38 57 -1 0 19 -14
40 -49 72 -42 39 -51 54 -58 95 -9 52 -22 66 -41 43z"/>
<path d="M3664 5536 c-7 -19 35 -126 53 -133 8 -3 19 -1 26 6 8 8 3 26 -18 70
-28 60 -51 82 -61 57z"/>
<path d="M4597 5543 c-13 -13 -7 -73 7 -73 18 0 27 26 20 56 -6 24 -15 30 -27
17z"/>
<path d="M7997 5533 c-10 -10 -8 -81 2 -88 5 -3 12 -18 16 -34 10 -47 62 -121
85 -121 28 0 26 29 -8 87 -15 26 -36 69 -45 95 -19 48 -39 73 -50 61z"/>
<path d="M3958 5475 c-3 -3 -3 -15 -1 -26 7 -26 38 -21 38 6 0 19 -25 32 -37
20z"/>
<path d="M8331 5377 c-16 -21 5 -80 41 -116 59 -58 77 -17 23 53 -19 25 -35
50 -35 55 0 17 -17 21 -29 8z"/>
<path d="M9360 5311 c0 -24 25 -45 45 -37 20 7 19 42 -1 50 -28 11 -44 6 -44
-13z"/>
<path d="M8262 5293 c2 -20 9 -29 26 -31 30 -5 42 26 17 44 -31 23 -47 17 -43
-13z"/>
<path d="M8324 5176 c-9 -24 4 -48 23 -44 12 2 18 12 18 28 0 29 -32 41 -41
16z"/>
<path d="M8157 5158 c-7 -22 13 -75 55 -149 41 -72 61 -90 80 -71 9 9 -48 139
-93 210 -15 24 -35 29 -42 10z"/>
<path d="M9345 5159 c-4 -6 -5 -13 -2 -16 7 -7 27 6 27 18 0 12 -17 12 -25 -2z"/>
<path d="M8485 5129 c-8 -23 19 -59 43 -59 27 0 170 -155 195 -212 26 -57 59
-94 76 -83 16 9 13 41 -4 59 -8 8 -15 18 -15 22 0 36 -200 264 -231 264 -9 0
-22 7 -29 15 -17 21 -27 19 -35 -6z"/>
<path d="M3740 4900 c0 -5 13 -36 29 -67 16 -32 39 -80 52 -108 48 -104 194
-295 225 -295 28 0 9 50 -38 101 -30 33 -58 71 -134 183 -12 17 -24 42 -29 56
-7 24 -45 87 -75 122 -16 20 -30 23 -30 8z"/>
<path d="M8383 4814 c-7 -20 12 -63 33 -71 8 -3 22 1 31 10 14 13 13 18 -8 46
-25 34 -46 40 -56 15z"/>
<path d="M8687 4807 c-10 -25 5 -67 23 -67 23 0 32 24 20 55 -10 27 -35 33
-43 12z"/>
<path d="M9435 4700 c-8 -14 23 -70 39 -70 23 0 24 23 3 53 -22 29 -32 33 -42
17z"/>
<path d="M9540 4661 c0 -12 6 -21 13 -21 15 0 17 -16 17 -132 -1 -72 4 -95 25
-140 15 -32 37 -60 55 -70 16 -9 36 -32 43 -50 16 -37 81 -98 104 -98 11 0 14
9 12 34 -2 19 0 38 4 42 12 12 8 34 -8 51 -21 21 -14 37 18 41 34 4 34 24 3
65 -14 18 -34 58 -46 90 -18 49 -25 58 -43 55 -16 -2 -21 -9 -19 -25 2 -13 1
-23 -2 -23 -17 0 -85 82 -91 109 -4 17 -12 34 -18 38 -7 5 -12 17 -12 28 0 14
-8 21 -27 23 -23 3 -28 -1 -28 -17z m200 -251 c20 -42 21 -43 2 -25 -11 11
-23 33 -27 50 -8 37 -4 32 25 -25z m-72 -25 c14 -31 15 -35 3 -35 -5 0 -14 14
-20 30 -12 36 1 40 17 5z m85 -81 c12 -4 17 -17 17 -40 0 -48 -25 -43 -48 9
-15 36 -15 50 1 43 6 -3 20 -9 30 -12z"/>
<path d="M8535 4637 c-12 -30 41 -117 72 -117 20 0 15 40 -10 85 -23 41 -53
57 -62 32z"/>
<path d="M9360 4610 c0 -5 5 -10 10 -10 6 0 10 5 10 10 0 6 -4 10 -10 10 -5 0
-10 -4 -10 -10z"/>
<path d="M8936 4554 c-6 -17 9 -54 23 -54 17 0 32 30 26 50 -8 24 -40 27 -49
4z"/>
<path d="M9540 4490 c0 -5 5 -10 11 -10 5 0 7 5 4 10 -3 6 -8 10 -11 10 -2 0
-4 -4 -4 -10z"/>
<path d="M4664 4445 c-3 -8 7 -37 22 -65 21 -38 35 -53 56 -57 18 -3 28 -12
28 -23 0 -23 26 -44 45 -36 21 8 19 39 -3 59 -10 10 -22 17 -26 17 -9 0 -51
47 -77 88 -22 35 -36 40 -45 17z"/>
<path d="M9977 4454 c-16 -16 -7 -44 14 -44 15 0 20 5 17 22 -3 22 -19 33 -31
22z"/>
<path d="M8727 4413 c-24 -23 44 -122 76 -110 24 9 21 28 -14 75 -29 40 -47
50 -62 35z"/>
<path d="M9427 4363 c-15 -14 -7 -43 12 -43 26 0 36 17 21 35 -14 16 -23 19
-33 8z"/>
<path d="M10011 4337 c-15 -19 -3 -47 21 -47 15 0 19 6 16 27 -4 31 -20 40
-37 20z"/>
<path d="M8980 4250 c-8 -5 -10 -17 -6 -35 5 -21 12 -26 34 -23 15 2 28 10 30
19 4 20 -40 50 -58 39z"/>
<path d="M9086 4194 c-9 -22 17 -49 39 -40 10 3 15 15 13 28 -4 29 -42 37 -52
12z"/>
<path d="M9235 4140 c-8 -26 -1 -35 20 -26 18 7 17 37 -2 43 -6 2 -14 -5 -18
-17z"/>
<path d="M10030 4125 c-10 -12 -10 -21 0 -45 10 -25 17 -29 34 -24 31 9 31 11
10 49 -21 39 -26 42 -44 20z"/>
<path d="M9981 4083 c-8 -21 -16 -44 -18 -50 -3 -7 2 -13 10 -13 15 0 37 53
37 88 0 25 -16 11 -29 -25z"/>
<path d="M9384 4037 c-8 -22 11 -46 26 -31 7 7 5 17 -4 30 -14 18 -15 18 -22
1z"/>
<path d="M9476 4012 c-7 -12 31 -52 48 -52 8 0 20 7 27 16 11 14 10 18 -6 30
-21 16 -61 19 -69 6z"/>
<path d="M10025 3860 c-11 -17 25 -64 38 -51 8 8 7 18 -3 36 -14 27 -25 31
-35 15z"/>
<path d="M5214 3836 c-9 -24 15 -66 38 -66 26 0 23 32 -7 60 -22 21 -25 21
-31 6z"/>
<path d="M9367 3433 c-12 -20 -18 -93 -8 -93 5 0 13 5 16 10 10 16 32 12 60
-12 24 -22 24 -24 10 -52 -18 -34 -19 -64 -4 -139 10 -47 17 -60 43 -75 17
-10 47 -20 66 -21 19 -1 39 -6 44 -11 15 -15 72 -12 86 5 17 21 5 32 -40 40
-36 6 -40 10 -40 35 0 16 5 32 10 35 15 9 12 61 -4 74 -7 6 -27 8 -45 5 -24
-5 -31 -3 -31 9 0 8 7 20 16 28 11 9 14 22 9 48 -9 50 -23 63 -55 56 -22 -5
-35 1 -65 29 -37 35 -59 44 -68 29z m140 -115 c-3 -8 -6 -5 -6 6 -1 11 2 17 5
13 3 -3 4 -12 1 -19z m-17 -94 c0 -19 6 -26 29 -30 27 -6 29 -8 19 -29 -8 -19
-7 -27 6 -41 10 -10 14 -20 8 -26 -13 -13 -42 2 -42 22 0 11 -4 21 -9 24 -13
8 -39 88 -34 104 7 20 23 3 23 -24z"/>
<path d="M9854 3372 c-36 -45 -65 -112 -67 -151 -1 -20 -10 -43 -19 -51 -10
-8 -21 -30 -24 -48 -6 -31 -5 -33 16 -30 13 1 28 12 34 23 6 11 17 24 24 28 6
4 12 15 12 23 0 9 14 35 30 59 46 67 38 91 -11 33 -54 -63 -24 21 32 93 34 43
35 49 12 48 -10 0 -27 -12 -39 -27z"/>
<path d="M6618 3370 c-35 -39 -49 -69 -72 -164 -24 -99 -36 -127 -36 -88 0 24
-19 29 -38 10 -9 -9 -12 -7 -12 10 0 26 -26 30 -34 5 -3 -10 -8 -39 -11 -64
-8 -53 3 -66 37 -47 13 6 33 11 45 9 12 -1 30 2 39 7 11 6 26 5 43 -4 18 -9
44 -11 80 -7 56 6 81 23 81 53 0 10 4 21 9 24 4 3 11 26 14 51 7 49 36 114 61
134 23 19 20 33 -6 29 -38 -5 -85 -99 -113 -222 -7 -32 -21 -25 -27 14 -2 14
-10 25 -18 25 -8 0 -20 4 -26 8 -13 8 -44 -33 -44 -57 0 -15 -18 -31 -26 -23
-3 2 0 24 5 48 5 24 12 66 16 94 7 52 31 101 73 148 l26 27 -25 -1 c-13 0 -32
-9 -41 -19z"/>
<path d="M9752 3377 c-7 -8 -20 -40 -30 -73 -14 -46 -22 -60 -40 -62 -30 -5
-28 -18 4 -26 40 -10 67 22 83 95 13 63 5 93 -17 66z"/>
<path d="M6383 3368 c-17 -21 -22 -70 -10 -95 17 -39 31 -20 30 41 -1 62 -5
73 -20 54z"/>
<path d="M6462 3358 c-5 -7 -12 -40 -14 -73 -2 -49 0 -60 13 -63 11 -2 23 9
33 29 18 37 21 59 6 59 -5 0 -10 14 -10 30 0 32 -11 38 -28 18z"/>
<path d="M6182 3348 c-25 -25 -7 -98 23 -98 11 0 15 11 15 39 0 64 -13 84 -38
59z"/>
<path d="M5006 3308 c-15 -8 -17 -18 -11 -61 4 -29 14 -64 21 -79 8 -15 14
-36 14 -48 0 -13 7 -20 19 -20 27 0 33 26 15 68 -10 25 -13 52 -9 84 6 39 4
48 -12 56 -12 7 -25 7 -37 0z"/>
<path d="M5210 3280 c-11 -21 -20 -44 -20 -50 0 -14 27 -13 33 3 7 19 16 4 21
-34 3 -19 8 -47 11 -62 6 -21 4 -27 -9 -27 -22 0 -21 -48 3 -74 10 -12 26 -46
37 -76 23 -71 30 -78 51 -57 16 16 16 19 0 52 -9 20 -17 47 -17 60 0 14 -4 33
-9 43 -5 9 -14 60 -20 113 -17 155 -41 187 -81 109z"/>
<path d="M5754 3312 c-25 -16 -34 -56 -34 -153 0 -96 1 -101 20 -96 13 3 20 0
20 -9 0 -26 30 -14 36 14 3 15 9 38 14 52 8 24 18 94 23 155 2 33 -16 42 -20
10 -7 -49 -38 -165 -44 -165 -11 0 -10 139 2 161 12 23 1 43 -17 31z"/>
<path d="M9013 3300 c-56 -30 -63 -40 -63 -86 0 -47 -2 -49 -30 -34 -16 8 -26
5 -51 -18 -34 -30 -35 -57 -3 -69 19 -7 33 12 27 38 -5 16 0 19 35 19 22 0 52
-4 65 -9 31 -12 42 -3 22 19 -22 25 -35 76 -22 89 18 18 45 -6 52 -49 8 -46
36 -87 53 -76 15 9 16 43 2 51 -13 8 -13 38 1 33 6 -2 20 -20 31 -39 l20 -36
-26 -26 c-32 -32 -35 -67 -6 -67 11 0 20 6 20 13 0 6 4 18 9 26 7 11 14 10 37
-5 16 -10 38 -28 49 -41 25 -29 68 -35 73 -11 3 18 -43 67 -64 68 -12 0 -52
40 -40 40 4 0 -2 12 -13 26 -25 32 -26 44 -6 44 22 0 18 13 -9 40 -16 14 -31
20 -42 16 -20 -8 -43 10 -55 41 -10 27 -22 27 -66 3z"/>
<path d="M6629 3249 c-9 -17 -8 -23 2 -30 21 -13 34 -5 37 24 4 33 -22 37 -39
6z"/>
<path d="M9949 3221 c-24 -23 -31 -35 -27 -55 3 -16 1 -26 -7 -26 -6 0 -20 -9
-30 -20 -15 -16 -15 -20 -3 -25 17 -7 55 12 85 42 13 13 29 20 41 16 22 -5 31
5 48 55 13 36 2 51 -22 31 -11 -9 -18 -9 -26 -1 -17 17 -23 15 -59 -17z"/>
<path d="M10092 3227 c-28 -30 -30 -87 -4 -87 10 0 23 -5 29 -11 18 -18 43 -2
43 27 0 23 -3 25 -25 20 -29 -7 -33 8 -10 40 13 20 11 34 -5 34 -4 0 -16 -10
-28 -23z"/>
<path d="M8688 3229 c-29 -16 -22 -39 12 -39 24 0 35 -8 55 -40 l26 -41 29 17
c27 17 28 18 12 40 -19 25 -90 74 -107 74 -5 0 -18 -5 -27 -11z"/>
<path d="M6258 3213 c-54 -3 -80 -8 -89 -19 -19 -23 15 -47 59 -40 34 5 41 -4
17 -24 -8 -7 -15 -19 -15 -27 0 -8 -20 -34 -45 -59 -43 -41 -56 -76 -36 -89 5
-3 12 -1 16 4 3 5 18 16 34 24 28 14 28 14 29 -16 0 -17 8 -37 16 -45 14 -14
16 -14 22 2 4 9 2 28 -5 42 -6 14 -8 37 -5 52 6 26 6 26 -10 7 -14 -19 -15
-17 -3 25 7 25 17 45 22 45 6 0 13 -25 17 -55 4 -34 13 -59 24 -67 25 -18 45
1 38 36 -5 24 -3 28 18 27 17 -1 24 5 26 22 3 22 1 23 -26 17 -28 -6 -31 -4
-37 25 -4 17 -5 32 -3 33 56 30 70 53 44 73 -11 8 -22 13 -25 12 -3 -1 -40 -4
-83 -5z"/>
<path d="M4889 3194 c-11 -13 -10 -22 9 -57 25 -48 42 -145 24 -133 -6 4 -17
24 -23 45 -11 38 -51 91 -69 91 -12 0 -60 -59 -60 -74 0 -22 62 -137 77 -143
28 -11 36 13 14 44 -24 33 -48 119 -37 130 11 11 34 -24 46 -68 11 -42 45 -89
64 -89 7 0 19 -21 27 -47 9 -31 20 -49 32 -51 26 -5 31 24 12 64 -9 20 -14 46
-11 59 4 17 1 24 -14 28 -16 4 -20 14 -20 50 0 39 3 46 22 49 34 5 32 24 -7
47 -19 11 -40 32 -45 46 -11 29 -22 31 -41 9z"/>
<path d="M9290 3189 c-16 -29 37 -124 70 -124 35 0 35 19 1 58 -18 20 -31 46
-31 61 0 32 -24 35 -40 5z"/>
<path d="M4203 3154 c-3 -9 -1 -19 5 -23 5 -3 10 -17 11 -31 2 -78 8 -107 29
-128 29 -29 57 -28 90 3 33 31 43 28 62 -14 13 -29 18 -32 44 -27 16 4 31 8
34 10 11 11 -14 45 -61 84 -42 34 -58 42 -92 42 -35 0 -44 4 -54 26 -6 14 -9
30 -5 35 8 14 -15 39 -38 39 -10 0 -21 -7 -25 -16z"/>
<path d="M5399 3119 c-16 -30 -7 -178 11 -189 8 -5 17 -7 21 -4 11 7 3 208 -9
212 -6 2 -16 -7 -23 -19z"/>
<path d="M8387 3133 c-12 -12 -7 -41 7 -46 8 -3 28 -2 44 3 22 6 34 4 45 -7
13 -13 21 -14 48 -4 20 7 36 8 42 2 14 -14 -28 -32 -61 -25 -33 7 -54 -12 -31
-27 22 -14 60 -10 117 10 59 22 82 19 75 -8 -6 -25 22 -47 42 -31 8 7 12 16 9
21 -9 15 46 22 71 9 13 -7 32 -10 41 -6 33 13 -9 39 -67 42 -28 2 -57 8 -65
15 -7 6 -26 8 -43 4 -25 -5 -30 -3 -33 17 -3 22 -7 23 -101 24 -54 1 -101 5
-104 8 -8 8 -28 8 -36 -1z"/>
<path d="M6032 3107 c-23 -25 -29 -52 -12 -62 6 -3 10 -26 10 -51 0 -30 4 -44
13 -44 15 0 83 147 73 157 -3 4 -17 -4 -31 -17 -31 -29 -33 -15 -3 17 l21 23
-25 0 c-13 0 -34 -10 -46 -23z"/>
<path d="M9962 3118 c-16 -16 -15 -38 2 -38 18 0 39 27 31 40 -8 13 -18 13
-33 -2z"/>
<path d="M8957 3072 c-30 -16 -47 -32 -47 -44 0 -25 23 -23 58 7 17 14 34 25
40 25 15 0 22 28 8 33 -7 3 -34 -7 -59 -21z"/>
<path d="M5168 3079 c-8 -23 13 -154 28 -176 16 -25 40 -30 47 -10 2 6 -3 28
-11 47 -8 19 -20 59 -26 89 -10 52 -29 76 -38 50z"/>
<path d="M4503 3064 c-3 -9 -1 -39 5 -67 7 -29 13 -61 14 -71 4 -25 19 -30 41
-13 16 11 17 17 5 61 -10 39 -10 50 0 53 18 7 14 31 -7 43 -28 15 -51 12 -58
-6z"/>
<path d="M5050 3055 c-10 -12 -10 -21 0 -46 10 -22 10 -33 1 -42 -20 -20 -12
-44 24 -71 25 -19 41 -25 60 -20 28 7 34 29 10 38 -8 3 -15 13 -15 21 0 20
-52 135 -61 135 -4 0 -12 -7 -19 -15z"/>
<path d="M6768 3033 c-23 -28 -29 -53 -14 -59 8 -3 16 -14 19 -25 4 -14 14
-19 41 -19 20 0 36 5 36 10 0 6 -7 10 -15 10 -9 0 -15 9 -15 25 0 14 -5 25
-11 25 -5 0 -9 10 -7 22 4 27 -14 33 -34 11z"/>
<path d="M6860 3003 c-29 -37 -10 -55 25 -23 14 13 25 29 25 37 0 22 -27 15
-50 -14z"/>
<path d="M8555 2991 c-7 -12 12 -24 25 -16 11 7 4 25 -10 25 -5 0 -11 -4 -15
-9z"/>
<path d="M6450 2960 c-69 -28 -89 -57 -35 -52 17 2 50 5 74 7 50 4 65 15 57
43 -10 30 -25 31 -96 2z"/>
<path d="M6597 2983 c-11 -10 -8 -41 4 -49 16 -9 43 21 36 40 -7 16 -28 21
-40 9z"/>
<path d="M6655 2899 c-8 -23 7 -39 38 -39 24 0 22 37 -2 50 -27 14 -29 13 -36
-11z"/>
<path d="M4622 2898 c-24 -24 -11 -78 18 -78 26 0 32 14 24 55 -6 36 -21 44
-42 23z"/>
<path d="M5496 2877 c-32 -23 3 -97 39 -83 17 6 20 48 5 77 -13 22 -20 24 -44
6z"/>
<path d="M5980 2865 c-16 -19 -16 -63 -1 -78 19 -19 47 6 43 39 -5 41 -25 60
-42 39z"/>
<path d="M5812 2814 c1 -9 9 -19 16 -22 9 -3 13 2 10 14 -1 9 -9 19 -16 22 -9
3 -13 -2 -10 -14z"/>
<path d="M5780 2110 c0 -5 5 -10 11 -10 5 0 7 5 4 10 -3 6 -8 10 -11 10 -2 0
-4 -4 -4 -10z"/>
<path d="M11358 2101 c-20 -20 -14 -33 10 -24 21 8 32 24 26 35 -8 12 -17 9
-36 -11z"/>
<path d="M9450 1800 c0 -5 5 -10 10 -10 6 0 10 5 10 10 0 6 -4 10 -10 10 -5 0
-10 -4 -10 -10z"/>
<path d="M7746 1423 c-9 -9 -7 -33 3 -33 12 0 22 28 12 34 -5 3 -11 3 -15 -1z"/>
<path d="M9298 1414 c-24 -13 -122 -20 -204 -14 -56 3 -82 -7 -99 -39 -12 -24
-12 -42 5 -142 28 -174 33 -262 32 -534 0 -277 2 -285 62 -285 39 0 68 20 95
63 17 29 19 44 15 127 -3 52 -10 122 -15 155 -14 93 -14 92 41 116 59 25 70
41 70 102 0 53 -16 70 -61 65 -31 -3 -32 -2 -45 52 -7 30 -15 79 -18 108 l-5
52 94 0 c106 0 140 9 150 40 8 24 -1 98 -14 118 -13 22 -74 31 -103 16z m50
-66 c7 -7 12 -19 12 -27 0 -14 -15 -15 -107 -10 -60 3 -113 4 -120 1 -17 -6
-26 -38 -15 -59 5 -10 15 -71 22 -135 14 -134 26 -155 80 -143 31 7 31 6 28
-27 -3 -32 -5 -33 -53 -38 -47 -5 -50 -7 -56 -40 -4 -19 -3 -73 2 -120 14
-125 15 -258 1 -272 -9 -9 -18 -9 -38 1 -25 11 -26 15 -19 54 13 69 16 142 16
327 0 170 -15 290 -51 410 -5 19 -10 45 -10 57 0 20 4 21 58 17 31 -3 77 -1
102 5 66 13 134 13 148 -1z"/>
<path d="M2736 1399 c-10 -6 -34 -9 -56 -5 -53 8 -68 -11 -47 -62 13 -31 16
-98 19 -343 2 -167 -1 -369 -6 -449 -11 -177 -10 -180 7 -197 16 -16 86 -26
103 -15 5 4 19 21 31 37 19 28 21 43 21 247 0 119 3 222 7 227 3 6 19 11 34
11 45 0 109 27 136 57 30 35 43 92 51 231 8 124 -5 199 -39 230 -15 13 -42 21
-82 25 -33 3 -82 9 -110 12 -30 3 -57 1 -69 -6z m139 -75 c83 -9 98 -24 106
-112 7 -83 -8 -226 -27 -264 -16 -30 -33 -36 -108 -40 -41 -3 -53 -8 -70 -31
-20 -26 -21 -43 -24 -245 -2 -122 -8 -222 -14 -229 -5 -6 -16 -9 -24 -6 -13 5
-14 39 -8 252 3 135 8 248 9 251 2 3 -1 91 -5 195 -5 105 -6 200 -3 212 4 17
14 23 41 26 21 2 43 2 50 1 7 -2 41 -6 77 -10z"/>
<path d="M2773 1300 c-12 -5 -24 -17 -27 -27 -15 -51 -4 -269 16 -306 9 -17
18 -19 68 -14 32 3 71 11 86 19 l29 13 0 132 c0 128 -1 133 -25 157 -27 26
-108 40 -147 26z m100 -79 c19 -19 34 -131 23 -175 -5 -22 -12 -26 -45 -26
-35 0 -39 3 -45 31 -8 42 -8 184 1 192 9 10 45 -2 66 -22z"/>
<path d="M1705 1384 c-11 -9 -35 -22 -52 -30 -38 -16 -44 -48 -17 -89 9 -13
13 -32 10 -42 -2 -10 -7 -90 -11 -178 -3 -88 -8 -180 -10 -205 -2 -25 -9 -119
-14 -210 -6 -91 -13 -193 -16 -227 -4 -60 -3 -63 22 -77 24 -12 31 -12 61 2
20 10 42 32 52 53 19 37 49 252 54 389 1 38 5 72 7 75 3 2 16 6 30 7 l24 3 0
-242 0 -242 25 -25 c38 -37 69 -41 110 -14 40 27 42 49 20 173 -11 63 -9 247
5 405 10 123 -76 190 -192 148 -18 -6 -35 -10 -38 -7 -2 3 2 56 10 118 18 133
12 184 -23 211 -29 24 -31 24 -57 4z m28 -96 c6 -21 -10 -168 -19 -177 -10
-10 -13 10 -14 94 -2 112 -3 105 14 105 7 0 16 -10 19 -22z m-8 -308 c11 -9
26 -9 62 0 107 26 120 25 143 -11 12 -20 18 -43 15 -56 -11 -46 -15 -429 -5
-472 12 -50 7 -62 -18 -38 -15 16 -17 44 -17 256 0 221 -1 240 -19 260 -28 30
-101 29 -141 -3 -28 -22 -30 -29 -32 -102 -4 -110 -24 -375 -29 -396 -3 -10
-10 -18 -16 -18 -8 0 -8 34 -3 113 5 61 9 132 10 157 2 25 5 88 9 140 4 52 9
124 11 160 5 77 7 84 12 48 2 -14 10 -32 18 -38z"/>
<path d="M10410 1372 c-42 -21 -61 -37 -79 -71 -42 -76 -51 -140 -50 -361 1
-194 0 -205 -18 -202 -38 7 -119 10 -135 5 -31 -8 -20 -39 20 -57 46 -20 78
-22 115 -7 16 6 30 11 31 11 2 0 6 -18 9 -41 6 -47 47 -135 79 -170 38 -41 57
-52 105 -59 78 -12 128 19 174 110 46 92 58 212 25 249 -45 50 -101 3 -125
-103 -14 -65 -29 -71 -64 -23 -26 33 -30 62 -43 277 -7 111 9 248 32 270 14
13 19 11 47 -23 36 -42 71 -48 107 -19 25 20 40 104 21 116 -6 4 -11 15 -11
25 0 24 -36 54 -97 79 -65 28 -76 27 -143 -6z m141 -72 c14 -17 30 -30 36 -30
12 0 23 -23 23 -46 0 -23 -20 -16 -54 21 -39 41 -53 43 -91 13 -61 -48 -84
-185 -66 -393 16 -184 31 -235 79 -275 26 -22 45 -30 67 -28 26 3 32 9 44 48
7 25 22 65 33 90 17 39 21 42 30 26 6 -10 8 -38 4 -62 -7 -53 -59 -159 -81
-168 -27 -10 -73 -7 -87 6 -8 7 -23 18 -33 24 -26 14 -83 100 -95 144 -27 91
-37 430 -16 523 12 54 37 103 58 116 61 38 110 35 149 -9z"/>
<path d="M5407 1381 c-55 -5 -72 -11 -96 -33 -28 -26 -28 -30 -35 -165 -6
-131 -21 -686 -19 -746 0 -34 27 -64 64 -72 42 -9 65 2 90 42 22 34 23 46 21
225 l-2 188 50 0 c64 0 88 10 132 56 46 47 58 97 58 243 0 107 0 108 -38 172
-41 67 -86 100 -132 97 -14 -1 -55 -4 -93 -7z m104 -71 c24 -7 45 -23 66 -53
42 -59 45 -71 44 -172 -1 -72 -6 -99 -24 -135 -29 -60 -55 -72 -138 -64 -50 4
-69 2 -75 -8 -5 -7 -9 -106 -10 -221 0 -121 -5 -212 -10 -217 -7 -7 -16 -6
-27 2 -14 11 -17 35 -16 183 1 334 6 591 13 631 7 40 9 42 59 51 71 14 77 14
118 3z"/>
<path d="M5386 1251 c-9 -10 -17 -27 -16 -37 0 -11 2 -48 4 -84 1 -36 4 -89 4
-118 2 -42 7 -58 28 -79 37 -37 97 -28 140 22 39 44 43 63 34 163 -10 114 -43
152 -134 152 -29 0 -48 -6 -60 -19z m121 -63 c20 -19 23 -31 23 -102 0 -45 -4
-86 -8 -92 -13 -20 -47 -25 -68 -10 -16 12 -20 31 -25 108 -3 51 -4 99 -1 106
7 19 54 14 79 -10z"/>
<path d="M9455 1374 c-12 -12 -14 -25 -8 -52 10 -46 10 -205 1 -337 -4 -55
-10 -170 -14 -255 l-6 -155 33 -64 c44 -83 85 -109 147 -92 l42 12 0 59 c0 56
-2 60 -30 75 -54 28 -56 66 -34 493 7 140 -12 244 -54 290 -34 38 -57 45 -77
26z m76 -404 c-13 -126 -15 -313 -5 -374 4 -26 17 -49 37 -68 23 -20 28 -31
20 -39 -26 -26 -72 37 -91 126 -12 55 10 545 26 585 3 8 10 -14 15 -50 7 -45
7 -99 -2 -180z"/>
<path d="M1277 1373 c-4 -4 -64 -7 -133 -8 -142 -2 -172 -14 -187 -76 -18 -73
3 -118 48 -104 30 9 126 6 163 -6 21 -7 32 -17 32 -29 0 -10 5 -22 11 -26 8
-5 10 -48 5 -153 -4 -80 -6 -244 -6 -364 0 -230 5 -263 49 -287 27 -14 26 -14
65 25 49 49 53 60 55 145 0 41 4 127 9 190 8 114 8 187 3 350 -2 47 -3 90 -2
96 1 17 27 26 95 33 38 4 61 11 66 21 4 8 12 25 18 36 19 39 25 94 12 119 -11
21 -16 22 -100 18 -64 -3 -101 0 -134 11 -52 18 -60 19 -69 9z m150 -84 c96 3
106 -1 92 -33 -9 -19 -22 -25 -63 -30 -28 -3 -66 -6 -83 -6 -24 0 -37 -7 -49
-26 -16 -23 -16 -40 -5 -200 7 -96 10 -214 7 -262 -4 -48 -9 -138 -11 -201 -3
-63 -7 -116 -10 -119 -2 -2 -11 -2 -20 2 -14 5 -16 23 -11 143 3 76 7 256 8
399 3 289 1 298 -53 287 -25 -5 -31 -2 -36 16 -5 21 -23 30 -23 11 0 -6 -32
-10 -76 -10 -56 0 -75 3 -71 13 3 9 38 12 126 13 67 1 125 4 128 8 4 4 21 3
38 -1 16 -4 67 -6 112 -4z"/>
<path d="M7768 1365 c-4 -4 -61 -8 -127 -10 -78 -1 -126 -7 -136 -15 -11 -9
-15 -32 -15 -81 0 -38 3 -69 8 -70 4 0 54 -2 111 -4 57 -3 105 -6 107 -7 6 -7
16 -293 19 -529 1 -141 6 -262 10 -269 5 -8 27 -11 68 -8 85 6 100 26 91 122
-3 39 -7 208 -8 376 l-1 305 65 0 c101 1 131 29 116 110 -10 52 -42 68 -139
71 -45 2 -100 5 -123 9 -22 3 -43 3 -46 0z m242 -85 c5 -8 10 -23 10 -33 0
-16 -8 -18 -62 -17 -94 2 -96 2 -109 -22 -11 -20 -13 -331 -5 -708 1 -52 0
-55 -24 -55 l-25 0 0 200 c0 303 -14 567 -31 585 -11 11 -44 16 -117 20 -85 4
-102 8 -105 22 -4 23 11 24 251 23 172 0 210 -3 217 -15z"/>
<path d="M8158 1362 c-63 -5 -58 41 -73 -642 -4 -209 2 -268 32 -302 21 -23
66 -23 85 0 42 47 46 71 42 249 -1 95 -5 177 -9 183 -9 15 14 50 33 50 10 0
23 5 30 12 6 6 15 9 19 5 4 -4 7 -108 7 -231 1 -212 2 -226 22 -253 25 -34 68
-42 95 -18 37 35 52 98 44 187 -4 46 -6 125 -6 177 1 52 -1 126 -5 165 -6 59
-12 75 -36 99 -25 26 -33 28 -76 24 -26 -3 -62 -9 -81 -13 l-34 -7 8 79 c15
155 2 226 -42 235 -10 2 -35 3 -55 1z m43 -79 c10 -27 9 -76 -7 -219 -6 -57
-5 -62 14 -68 12 -4 48 -2 81 5 71 14 106 7 122 -23 10 -18 32 -349 30 -450 0
-36 -18 -68 -36 -68 -27 0 -36 74 -31 262 5 203 -3 251 -42 256 -12 2 -29 -3
-37 -11 -8 -9 -33 -18 -55 -22 -23 -4 -44 -14 -50 -25 -8 -16 -6 -171 4 -305
5 -64 -6 -137 -21 -142 -32 -11 -37 39 -34 342 2 165 3 340 3 390 0 49 2 93 5
97 11 19 44 7 54 -19z"/>
<path d="M3892 1340 c-38 -24 -40 -43 -7 -85 13 -18 34 -70 47 -116 21 -79 22
-102 20 -392 -2 -336 2 -360 53 -373 76 -19 124 142 110 367 l-7 116 32 23
c17 12 34 19 38 16 3 -4 6 -110 7 -236 0 -216 1 -230 21 -257 24 -32 48 -40
78 -24 11 6 33 15 49 21 30 11 31 13 16 120 -5 41 -11 120 -14 175 -11 262
-17 319 -41 366 -34 69 -76 71 -152 7 -18 -15 -37 -28 -42 -28 -6 0 -10 33
-10 73 0 41 -3 77 -7 81 -4 4 -9 19 -10 34 -5 38 -42 110 -62 117 -39 16 -88
13 -119 -5z m94 -65 c27 -27 44 -84 45 -152 2 -113 8 -127 52 -131 29 -3 47 4
83 29 83 61 97 26 114 -287 15 -276 15 -273 1 -287 -8 -8 -16 -6 -29 6 -15 16
-17 40 -14 233 1 169 -1 222 -12 249 -18 42 -31 43 -93 7 -26 -16 -56 -31 -66
-35 -17 -7 -18 -17 -12 -140 8 -161 8 -179 -6 -242 -17 -73 -17 -75 -29 -75
-9 0 -15 45 -12 95 2 37 -1 450 -3 490 -1 22 -6 63 -11 90 -4 28 -7 54 -6 58
1 5 -9 30 -22 58 -21 40 -22 49 -10 49 9 0 22 -7 30 -15z"/>
<path d="M5671 1347 c-17 -17 -13 -32 14 -73 26 -38 28 -57 26 -224 -1 -92
-19 -306 -31 -369 -5 -25 -9 -84 -9 -131 0 -110 18 -151 72 -164 28 -7 43 -6
55 2 9 7 34 20 54 30 21 9 40 23 43 30 4 12 -20 41 -70 81 -15 13 -17 26 -11
105 3 50 9 102 12 116 3 14 8 131 11 260 6 255 4 269 -49 316 -26 24 -101 37
-117 21z m120 -174 c12 -105 -2 -453 -22 -529 -11 -44 -8 -136 5 -167 12 -25
-30 -23 -44 2 -13 25 -12 143 1 241 5 41 12 116 15 165 3 50 7 106 8 125 2 19
4 82 5 140 1 81 4 101 13 92 7 -7 15 -38 19 -69z"/>
<path d="M11847 1327 c-20 -18 -37 -38 -37 -45 0 -7 13 -30 29 -50 47 -61 52
-91 50 -282 -6 -435 -5 -444 14 -473 33 -51 84 -50 124 2 21 29 33 264 19 382
-7 66 -7 67 23 89 39 27 66 19 81 -25 8 -26 7 -59 -4 -145 -31 -216 -17 -342
39 -356 51 -13 95 55 100 150 23 416 12 492 -76 559 -25 18 -28 18 -91 1 -36
-10 -72 -15 -80 -11 -15 5 -30 84 -29 155 1 20 -4 32 -12 32 -8 0 -24 11 -37
25 -32 34 -67 31 -113 -8z m95 -75 c8 -20 21 -70 28 -110 19 -102 35 -113 125
-81 74 27 88 23 116 -32 15 -28 32 -129 31 -174 0 -5 -1 -62 -2 -125 -1 -129
-17 -233 -34 -227 -13 4 -14 226 -1 355 7 72 6 85 -10 102 -10 11 -23 30 -29
43 -16 30 -59 31 -123 1 -60 -27 -68 -45 -59 -126 11 -85 15 -251 8 -308 -13
-100 -55 -62 -56 50 0 36 1 169 3 296 3 204 1 238 -14 280 -10 27 -25 57 -34
67 -13 15 -13 20 -2 27 22 13 36 2 53 -38z"/>
<path d="M11100 1310 c-27 -27 -25 -32 11 -59 28 -21 68 -89 69 -118 0 -6 -11
-25 -25 -41 -14 -17 -28 -43 -31 -60 -6 -29 -4 -30 35 -37 22 -4 43 -11 47
-16 3 -5 8 -96 10 -202 7 -228 16 -297 44 -337 25 -35 40 -36 96 -11 66 30
100 132 47 139 -41 6 -53 56 -64 274 -5 111 -8 207 -5 214 3 7 23 25 46 39 33
21 40 31 40 58 0 34 -33 97 -50 97 -6 0 -21 -12 -34 -27 l-23 -27 -49 51 c-42
44 -106 83 -135 83 -5 0 -18 -9 -29 -20z m179 -213 c5 -34 13 -155 16 -269 3
-114 7 -213 9 -220 3 -7 7 -25 10 -40 4 -15 16 -37 28 -48 19 -18 21 -22 8
-30 -24 -16 -43 -7 -63 28 -17 29 -21 64 -28 265 -5 128 -15 270 -24 317 -19
109 -19 107 9 81 17 -16 27 -41 35 -84z m81 60 c0 -23 -17 -47 -32 -47 -10 0
-11 54 -1 63 14 15 33 6 33 -16z m-160 -98 c0 -5 -7 -9 -15 -9 -15 0 -20 12
-9 23 8 8 24 -1 24 -14z"/>
<path d="M3108 1277 c-33 -30 -47 -102 -25 -124 17 -17 89 -10 106 11 12 14
17 108 7 124 -12 20 -62 13 -88 -11z m32 -57 c0 -5 -5 -10 -11 -10 -5 0 -7 5
-4 10 3 6 8 10 11 10 2 0 4 -4 4 -10z"/>
<path d="M6772 1292 c-29 -3 -31 -6 -25 -29 3 -15 17 -42 30 -61 28 -42 28
-47 3 -95 -24 -44 -19 -74 13 -79 l22 -3 1 -280 c1 -154 2 -288 3 -297 2 -30
38 -58 76 -58 30 0 41 8 85 61 27 33 50 64 50 69 0 6 -16 16 -35 24 l-35 15 3
258 c4 253 8 293 30 293 6 0 27 17 48 37 41 41 40 62 -6 96 -23 16 -25 16 -60
-4 l-36 -22 -33 32 c-35 34 -79 48 -134 43z m100 -104 c33 -59 37 -100 31
-342 -6 -299 -6 -293 17 -330 13 -23 16 -36 9 -49 -12 -20 -34 -22 -46 -4 -4
6 -8 149 -9 317 -1 300 -5 364 -24 400 -13 23 -13 30 0 30 5 0 15 -10 22 -22z
m128 -5 c0 -10 -32 -43 -42 -43 -15 0 -8 29 10 39 20 12 32 14 32 4z"/>
<path d="M3292 1240 c-38 -24 -39 -27 -8 -69 33 -45 41 -97 21 -145 -15 -35
-15 -40 0 -62 13 -21 16 -53 13 -202 -4 -325 -4 -347 15 -375 10 -15 30 -30
45 -33 15 -4 32 -10 38 -15 21 -17 70 27 86 77 19 59 14 76 -18 68 -23 -6 -24
-4 -25 52 -1 33 -3 113 -5 179 -9 313 -10 301 44 328 57 27 58 71 4 130 -30
32 -42 34 -42 8 0 -27 -27 -34 -44 -10 -7 11 -31 35 -53 54 l-40 34 -31 -19z
m97 -180 c-1 -32 -2 -33 -9 -10 -4 14 -8 36 -9 50 -1 20 1 22 9 10 5 -8 9 -31
9 -50z m91 40 c0 -5 -9 -14 -20 -20 -22 -12 -27 -1 -8 18 14 14 28 16 28 2z
m-86 -230 c3 -54 1 -101 -4 -110 -7 -10 -10 23 -10 99 0 63 2 112 4 110 2 -2
7 -47 10 -99z m2 -295 c5 -101 10 -133 22 -142 14 -12 14 -13 -1 -13 -9 0 -24
11 -32 24 -14 21 -15 44 -9 145 4 67 8 120 10 118 2 -1 6 -61 10 -132z"/>
<path d="M13008 1210 c-21 -4 -46 -14 -56 -23 -23 -21 -56 -22 -72 -2 -23 27
-77 19 -115 -19 -39 -37 -42 -48 -20 -66 8 -7 25 -33 36 -59 20 -44 20 -57 14
-293 -8 -274 -7 -281 54 -313 27 -13 31 -13 56 7 50 39 53 63 44 283 -4 110
-11 221 -14 246 -6 45 -5 47 28 68 49 30 57 27 57 -23 0 -45 10 -59 47 -68 50
-13 83 47 83 147 -1 55 -17 81 -65 105 -39 18 -34 18 -77 10z m80 -87 c8 -11
11 -30 8 -47 -3 -16 -6 -35 -6 -42 0 -8 -4 -14 -10 -14 -5 0 -10 11 -10 25 0
35 -27 85 -46 85 -17 0 -124 -66 -137 -84 -8 -12 -3 -150 14 -365 12 -158 9
-191 -21 -191 -35 0 -40 32 -38 217 3 273 0 341 -18 375 -22 42 -8 52 50 36
39 -10 51 -10 69 2 54 34 69 38 100 29 18 -5 38 -17 45 -26z"/>
<path d="M11632 1160 c-64 -29 -116 -90 -137 -160 -15 -49 -17 -79 -11 -177
13 -233 24 -293 66 -343 26 -32 33 -35 82 -34 51 0 102 9 120 20 5 3 26 33 48
67 29 43 40 72 40 98 0 53 -15 87 -45 101 -37 17 -70 -2 -94 -56 -31 -72 -41
-58 -35 50 3 55 0 120 -7 155 -10 51 -10 63 3 75 13 14 19 12 46 -11 60 -50
116 -8 114 86 -1 47 -5 56 -44 95 -54 53 -88 61 -146 34z m93 -56 c19 -8 45
-55 45 -84 0 -21 -19 -27 -36 -10 -5 5 -30 13 -55 16 -43 6 -47 4 -69 -26 -13
-18 -22 -44 -22 -59 1 -21 11 -339 12 -362 0 -4 11 -14 25 -23 34 -22 61 -8
108 60 41 59 57 62 57 10 0 -93 -140 -165 -200 -102 -30 33 -39 82 -47 263 -6
163 -2 188 45 251 41 56 95 82 137 66z"/>
<path d="M12477 1156 c-53 -20 -85 -52 -99 -100 -7 -26 -12 -126 -12 -266 -1
-209 0 -228 20 -271 36 -78 98 -111 188 -98 72 9 107 40 136 116 22 60 25 109
9 166 -8 32 -14 37 -38 37 -39 0 -89 -57 -97 -110 -11 -66 -35 -47 -54 40 -6
30 -10 75 -8 100 3 45 3 45 48 52 117 19 139 35 140 99 0 31 -25 120 -46 164
-31 65 -117 97 -187 71z m129 -82 c46 -48 47 -79 2 -38 -18 16 -36 35 -41 42
-12 18 -22 15 -56 -14 -37 -31 -60 -96 -42 -118 6 -8 39 -19 73 -25 66 -11 82
-6 93 30 9 27 25 13 25 -21 0 -41 -28 -53 -118 -49 -100 5 -100 5 -77 -155 20
-142 38 -181 85 -191 40 -9 47 -2 80 77 15 35 31 63 36 63 16 0 15 -89 -1
-127 -29 -71 -109 -93 -176 -48 -63 42 -71 66 -77 241 -6 209 1 277 39 329 27
37 33 40 75 40 40 0 51 -5 80 -36z m-22 -81 c8 -21 3 -25 -29 -25 -34 0 -49
15 -41 40 6 18 11 19 36 11 15 -6 31 -17 34 -26z"/>
<path d="M5015 1152 c-2 -2 -2 -9 1 -16 3 -7 -7 -18 -22 -24 -23 -11 -29 -10
-51 12 -13 14 -33 23 -43 21 -23 -4 -80 -45 -80 -57 0 -5 9 -36 21 -70 23 -70
28 -232 10 -357 -16 -109 -16 -212 0 -247 21 -43 61 -45 99 -4 17 18 30 40 30
50 0 10 7 45 15 77 8 32 16 76 17 98 2 22 9 45 17 51 13 10 13 14 -1 27 -11
11 -16 38 -17 90 -1 41 -6 89 -11 108 -8 26 -6 37 7 51 21 23 33 23 33 -1 0
-41 70 -42 99 -2 33 46 25 124 -16 165 -21 21 -95 40 -108 28z m75 -93 c6 -11
10 -30 7 -42 -3 -21 -4 -21 -15 5 -6 14 -16 29 -22 33 -11 7 -4 25 10 25 5 0
14 -9 20 -21z m-113 -16 l48 7 -24 -20 c-13 -11 -29 -20 -37 -20 -30 0 -44
-72 -24 -125 6 -15 11 -86 13 -159 2 -146 -21 -276 -50 -276 -15 0 -14 64 6
265 7 66 0 213 -15 315 l-6 45 21 -19 c17 -15 30 -18 68 -13z"/>
<path d="M10890 1138 c-106 -16 -170 -65 -170 -131 0 -13 8 -31 18 -39 32 -28
63 -29 149 -3 16 5 25 1 39 -20 22 -34 8 -45 -48 -37 -86 11 -130 -51 -134
-190 -1 -48 3 -127 10 -175 12 -75 17 -90 41 -109 42 -33 94 -36 123 -7 29 29
36 29 56 -2 20 -30 46 -32 95 -6 20 11 44 22 54 25 34 11 32 37 -4 67 l-34 28
-1 218 c-2 208 -3 220 -27 273 -25 58 -66 105 -95 112 -9 2 -42 0 -72 -4z m92
-90 c43 -58 51 -93 48 -196 -6 -156 -1 -318 10 -348 17 -43 -4 -54 -38 -21
-15 15 -37 27 -47 27 -16 0 -13 6 15 35 33 34 33 35 14 56 -15 17 -19 36 -19
112 l0 91 -34 13 c-44 18 -85 3 -112 -41 -16 -26 -19 -28 -19 -10 0 32 20 84
33 86 7 1 35 2 64 2 66 1 86 19 85 76 -1 80 -47 114 -114 85 -21 -8 -44 -15
-52 -15 -20 0 -49 31 -39 41 15 15 96 37 139 38 36 1 45 -4 66 -31z m-73 -278
c16 -8 18 -20 13 -107 -2 -54 -8 -102 -11 -106 -17 -18 -40 8 -55 62 -20 73
-20 120 1 143 18 21 27 22 52 8z m-70 -263 c6 -6 30 -11 54 -10 39 2 41 1 23
-13 -42 -31 -105 18 -112 87 l-4 44 14 -49 c8 -27 19 -53 25 -59z"/>
<path d="M9693 1123 c-30 -20 -29 -38 2 -75 14 -16 26 -37 27 -46 1 -9 2 -124
2 -254 1 -268 3 -277 81 -304 34 -11 43 -11 63 2 27 18 67 12 76 -11 7 -18
-12 -116 -25 -129 -4 -5 -35 -8 -69 -7 -54 2 -62 -1 -86 -26 -43 -47 -46 -57
-21 -93 22 -33 85 -58 148 -60 29 0 119 72 119 96 0 8 4 14 10 14 22 0 36 108
50 395 5 99 14 227 20 285 20 200 -9 262 -99 215 -37 -18 -42 -46 -31 -170 12
-132 12 -288 1 -318 -7 -18 -20 -26 -47 -30 -21 -4 -43 -2 -48 3 -5 5 -10 100
-11 212 -1 112 -5 220 -10 241 -13 66 -96 99 -152 60z m102 -89 c12 -29 14
-72 11 -212 -4 -247 12 -290 106 -276 61 9 70 17 89 71 l17 48 0 -65 c1 -36
-3 -85 -7 -110 -6 -37 -8 -41 -14 -23 -14 40 -52 55 -122 48 -61 -7 -64 -6
-82 21 -16 25 -18 52 -19 254 0 146 -4 235 -12 253 -10 22 -9 27 3 27 8 0 21
-16 30 -36z m245 21 c9 -11 11 -37 6 -98 -4 -45 -9 -111 -12 -147 -10 -119
-19 -81 -21 91 -2 93 1 169 6 169 5 0 14 -7 21 -15z m-23 -377 c-3 -7 -5 -2
-5 12 0 14 2 19 5 13 2 -7 2 -19 0 -25z m-20 -305 c-3 -10 -5 -2 -5 17 0 19 2
27 5 18 2 -10 2 -26 0 -35z m-29 -110 c-13 -26 -35 -55 -49 -66 -22 -16 -31
-17 -73 -6 -34 8 -46 16 -44 28 2 12 16 16 57 18 43 1 59 7 82 29 16 15 29 35
29 44 0 23 14 35 18 15 2 -9 -7 -37 -20 -62z"/>
<path d="M4526 1114 c-95 -52 -138 -210 -129 -474 7 -197 27 -245 116 -275
l55 -18 65 28 c91 38 113 67 133 170 16 83 -1 135 -46 135 -35 0 -83 -53 -103
-115 -19 -57 -52 -61 -66 -8 -13 45 -14 153 -2 171 8 14 80 9 126 -8 31 -12
71 15 89 60 21 53 20 106 -4 155 -11 22 -19 47 -20 55 0 19 -55 82 -99 115
-40 29 -73 31 -115 9z m88 -70 c19 -9 40 -29 46 -43 7 -14 21 -42 31 -61 27
-53 40 -120 27 -143 -8 -15 -17 -18 -41 -14 -148 27 -150 27 -170 9 -17 -15
-19 -29 -15 -144 3 -110 6 -130 24 -155 41 -55 110 -36 144 40 10 23 25 51 34
62 14 19 15 16 16 -41 0 -53 -3 -63 -27 -86 -36 -34 -91 -49 -140 -38 -73 17
-88 69 -88 295 1 186 13 247 62 305 28 34 48 37 97 14z"/>
<path d="M4565 1018 c-30 -14 -74 -76 -81 -114 -7 -40 8 -64 40 -64 11 0 49
-6 83 -14 58 -12 64 -11 80 6 14 16 15 23 5 38 -7 11 -12 25 -12 32 0 17 -56
98 -78 113 -11 8 -24 9 -37 3z m34 -84 c12 -19 21 -37 21 -40 0 -2 -18 -4 -40
-4 -36 0 -40 3 -40 24 0 64 28 73 59 20z"/>
<path d="M6050 1109 c-14 -4 -44 -7 -67 -8 -24 -1 -43 -6 -43 -12 0 -6 -9 -22
-20 -36 -26 -34 -27 -89 -1 -103 29 -15 83 -12 109 5 25 18 54 8 72 -25 23
-42 14 -51 -49 -48 -98 4 -137 -36 -154 -157 -10 -67 -9 -85 14 -176 29 -122
53 -154 107 -144 19 4 47 16 63 27 l28 21 26 -32 c37 -43 64 -40 114 14 43 46
44 58 9 83 -23 17 -24 107 -3 275 14 115 14 120 -7 180 -20 61 -55 113 -86
131 -20 12 -80 14 -112 5z m109 -86 c34 -41 54 -111 46 -163 -3 -19 -10 -99
-17 -177 -10 -124 -9 -148 4 -182 9 -22 13 -42 10 -46 -3 -3 -22 11 -43 31
l-37 36 -44 -26 c-25 -14 -52 -26 -61 -26 -18 0 -37 29 -37 55 0 12 4 14 19 5
32 -16 86 -12 105 9 13 15 18 42 20 124 l3 105 -33 16 c-38 18 -68 11 -97 -22
-19 -21 -37 -110 -30 -146 4 -18 3 -19 -6 -5 -16 24 -16 97 0 148 17 58 42 68
114 51 72 -17 90 -3 89 68 -1 70 -26 120 -68 137 -33 14 -39 13 -74 -5 -40
-21 -72 -18 -72 6 0 15 16 20 95 33 79 14 82 13 114 -26z m-94 -306 c10 -37 1
-140 -12 -144 -24 -8 -43 110 -23 148 14 26 28 24 35 -4z"/>
<path d="M6569 1105 c-17 -18 -149 -30 -149 -15 0 13 -37 13 -45 0 -4 -7 -13
-6 -26 1 -46 24 -66 -17 -28 -57 32 -34 41 -133 34 -354 -7 -198 -3 -231 30
-263 40 -40 106 -1 120 71 4 20 9 122 10 225 1 110 7 193 12 198 6 6 23 9 39
7 l29 -3 -5 -85 c-3 -47 -4 -140 -3 -208 1 -107 4 -129 25 -170 13 -26 35 -54
51 -62 25 -14 30 -13 65 6 41 24 54 62 28 84 -9 7 -16 21 -16 32 0 11 -4 27
-10 37 -11 21 -12 220 -2 309 5 38 14 67 22 72 10 7 11 10 3 10 -7 0 -13 7
-13 15 0 41 -62 125 -112 151 -34 18 -40 18 -59 -1z m43 -66 c13 -6 32 -22 43
-37 22 -30 24 -69 11 -242 -8 -98 -5 -134 20 -275 l5 -30 -19 22 c-32 36 -43
149 -31 307 13 176 7 192 -69 189 -29 -1 -65 -8 -80 -15 l-27 -13 -5 -227 c-4
-163 -9 -231 -17 -240 -31 -30 -36 7 -37 279 l-1 268 75 3 c41 2 81 7 90 12
19 12 15 12 42 -1z"/>
<path d="M3677 1080 c-74 -58 -111 -186 -111 -380 0 -223 15 -281 87 -334 22
-16 43 -21 92 -21 62 0 65 2 99 39 52 59 82 187 56 237 -6 10 -21 19 -35 19
-28 0 -85 -54 -85 -80 0 -19 -17 -36 -27 -27 -27 28 -33 293 -8 354 13 30 18
35 25 23 5 -8 10 -22 10 -30 0 -17 47 -25 66 -12 23 16 44 59 44 91 0 29 -9
44 -53 86 -43 42 -59 51 -93 53 -29 2 -48 -4 -67 -18z m106 -71 c26 -17 47
-37 47 -44 0 -9 -9 -5 -25 10 -32 33 -48 31 -80 -7 -34 -40 -42 -62 -55 -144
-25 -157 -6 -294 49 -357 25 -27 32 -30 53 -20 21 10 44 45 64 98 7 19 8 19
11 -3 7 -40 -17 -91 -54 -117 -34 -23 -38 -23 -72 -9 -50 21 -60 33 -77 95
-19 69 -22 295 -4 370 19 80 63 159 89 159 4 0 29 -14 54 -31z"/>
<path d="M2271 1076 c-7 -9 -24 -16 -36 -16 -50 0 -99 -78 -146 -230 -19 -62
-23 -98 -23 -215 -1 -121 2 -145 19 -180 47 -94 176 -140 269 -97 82 39 120
111 114 219 -3 55 -4 57 -37 66 -30 7 -37 5 -69 -25 -19 -18 -45 -55 -57 -82
l-23 -48 -18 27 c-13 20 -18 48 -19 104 l0 76 87 0 c76 0 89 3 110 23 28 25
48 98 48 170 0 37 -8 62 -37 111 -21 35 -51 72 -66 83 -39 28 -99 35 -116 14z
m74 -68 c14 -6 25 -20 25 -30 0 -11 14 -34 31 -51 30 -30 31 -33 27 -99 -3
-37 -10 -74 -16 -81 -8 -9 -31 -11 -94 -6 -46 4 -90 10 -99 14 -29 11 -49 -22
-49 -80 0 -106 20 -201 50 -236 26 -32 28 -33 68 -21 35 11 44 20 67 67 31 66
61 77 50 18 -12 -64 -32 -91 -75 -104 -80 -24 -164 24 -190 107 -29 97 -13
280 34 393 27 66 36 77 75 98 50 26 60 27 96 11z"/>
<path d="M2245 937 c-19 -19 -42 -51 -51 -72 -23 -56 -6 -69 95 -72 67 -3 80
0 96 17 32 35 24 78 -23 121 -23 22 -51 39 -62 39 -12 0 -36 -15 -55 -33z m77
-44 c30 -27 22 -43 -22 -43 -44 0 -61 19 -40 45 16 20 39 19 62 -2z"/>
<path d="M3075 1070 c-3 -11 -1 -37 6 -57 8 -26 10 -69 4 -147 -13 -191 -15
-429 -4 -464 11 -33 51 -62 86 -62 27 0 61 27 79 61 14 28 14 33 -1 56 -22 33
-33 189 -25 368 9 197 -8 238 -107 259 -26 6 -32 4 -38 -14z m89 -200 c-6
-175 -4 -380 6 -410 13 -45 13 -50 -4 -50 -24 0 -29 37 -28 180 2 189 14 390
22 360 3 -14 5 -50 4 -80z"/>
<path d="M8650 1063 c-31 -21 -43 -37 -68 -88 -40 -81 -48 -418 -11 -498 7
-15 27 -36 44 -47 90 -56 226 16 249 130 15 78 23 135 20 139 -3 3 -26 5 -51
5 -47 1 -48 0 -74 -49 -37 -68 -49 -81 -60 -63 -10 16 -11 63 -3 107 6 27 10
31 41 31 52 0 106 32 127 76 28 60 32 132 10 173 -43 76 -168 123 -224 84z
m118 -59 c36 -21 58 -52 66 -94 7 -35 7 -35 -16 9 -18 33 -33 47 -60 57 -33
11 -40 11 -63 -8 -53 -42 -72 -118 -34 -138 26 -15 128 -3 152 18 14 13 17 13
17 1 0 -8 -7 -24 -15 -36 -12 -16 -28 -21 -80 -25 -85 -5 -94 -17 -95 -123 0
-45 6 -91 13 -105 27 -54 103 -25 134 51 27 67 55 39 33 -34 -19 -66 -54 -97
-111 -97 -90 0 -109 42 -109 241 0 160 12 228 47 269 29 35 78 40 121 14z
m-16 -81 c32 -29 17 -53 -33 -53 -25 0 -34 22 -19 49 13 25 27 26 52 4z"/>
<path d="M4350 973 c0 -5 5 -15 10 -23 8 -12 10 -11 10 8 0 12 -4 22 -10 22
-5 0 -10 -3 -10 -7z"/>
<path d="M13053 574 c-9 -14 -18 -50 -21 -79 -4 -47 -2 -54 18 -65 27 -14 92
-4 121 19 18 14 20 21 10 39 -6 11 -11 38 -11 60 0 36 -3 40 -31 46 -53 10
-68 7 -86 -20z m62 -59 c0 -23 -4 -30 -20 -30 -21 0 -31 25 -21 51 11 28 41
12 41 -21z"/>
<path d="M7169 574 c-1 -5 -1 -12 0 -16 0 -4 -10 -10 -24 -14 -32 -8 -41 -25
-50 -91 -6 -45 -4 -53 14 -62 13 -8 28 -8 46 -1 14 5 37 10 50 10 38 0 55 26
55 81 0 47 -23 89 -49 89 -5 0 -16 3 -25 6 -9 3 -17 2 -17 -2z m28 -89 c7 -19
5 -22 -30 -30 -31 -8 -36 5 -11 29 20 20 33 20 41 1z"/>
<path d="M2020 344 c0 -8 5 -12 10 -9 6 3 10 10 10 16 0 5 -4 9 -10 9 -5 0
-10 -7 -10 -16z"/>
</g>
</svg>
