<?xml version="1.0" standalone="no"?>
<!DOCTYPE svg PUBLIC "-//W3C//DTD SVG 20010904//EN"
 "http://www.w3.org/TR/2001/REC-SVG-20010904/DTD/svg10.dtd">
<svg version="1.0" xmlns="http://www.w3.org/2000/svg"
 width="1000.000000pt" height="707.000000pt" viewBox="0 0 1000.000000 707.000000"
 preserveAspectRatio="xMidYMid meet">
<metadata>
Created by potrace 1.16, written by Peter Selinger 2001-2019
</metadata>
<g transform="translate(0.000000,707.000000) scale(0.100000,-0.100000)"
fill="#000000" stroke="none">
<path d="M2596 6968 c-8 -13 -16 -61 -19 -108 -3 -58 -11 -99 -24 -125 -11
-22 -18 -46 -16 -52 3 -7 -8 -18 -24 -24 -68 -26 -96 -44 -132 -90 -53 -67
-70 -154 -52 -272 7 -45 12 -99 12 -120 -1 -31 2 -37 16 -35 16 3 18 -5 18
-57 0 -47 6 -70 28 -107 25 -44 27 -54 27 -170 0 -68 4 -141 9 -163 5 -22 12
-76 16 -120 3 -44 10 -109 16 -145 11 -76 14 -150 10 -277 -1 -52 2 -100 8
-111 6 -12 11 -36 11 -54 0 -19 5 -39 12 -46 9 -9 9 -12 -1 -12 -17 0 -6 -211
12 -222 7 -4 12 -29 13 -55 1 -86 4 -113 12 -113 17 0 32 79 32 170 0 107 9
118 11 14 1 -45 5 -62 10 -49 4 11 8 99 8 195 1 187 12 307 40 425 5 22 12 67
15 100 3 33 8 74 11 90 25 152 35 229 36 276 0 30 6 72 12 94 6 22 11 56 12
75 3 89 6 110 16 110 17 0 38 32 39 57 0 12 5 25 10 28 44 27 100 194 100 294
0 55 -17 128 -41 173 -19 36 -76 88 -109 100 -21 7 -30 17 -30 31 0 12 -16 40
-36 62 -20 24 -33 47 -30 57 2 10 0 20 -5 23 -5 3 -6 25 -3 49 6 38 4 44 -15
49 -18 4 -20 9 -11 32 19 49 3 64 -24 23z m34 -218 c0 -22 5 -40 10 -40 6 0
10 -7 10 -15 0 -8 6 -12 14 -9 7 3 16 -1 19 -9 4 -12 -2 -14 -32 -10 -23 3
-41 1 -45 -6 -5 -7 1 -10 16 -9 49 3 131 -35 175 -81 50 -52 55 -82 16 -97
-29 -11 -73 -80 -73 -114 0 -23 -26 -44 -45 -36 -17 6 -21 -19 -5 -29 21 -13
58 24 76 76 34 94 88 127 106 64 11 -38 3 -174 -13 -208 -10 -22 -13 -24 -26
-11 -16 16 -33 10 -33 -12 0 -8 -4 -14 -10 -14 -5 0 -10 14 -10 30 0 38 31 70
59 63 12 -3 21 -1 21 5 0 5 -12 13 -27 17 -54 13 -91 -65 -61 -130 14 -31 43
-33 53 -2 6 19 8 19 12 4 5 -18 -53 -107 -75 -115 -7 -2 -12 5 -12 18 0 13 -5
20 -12 17 -7 -2 -13 -19 -14 -38 0 -31 -10 -99 -34 -234 -5 -27 -12 -98 -15
-158 -4 -59 -10 -109 -14 -112 -4 -2 -7 -19 -6 -37 1 -18 -2 -44 -8 -58 -11
-26 -17 -60 -17 -95 0 -11 0 -38 0 -60 -1 -22 -5 -53 -9 -70 -5 -16 -15 -90
-22 -163 -15 -159 -32 -157 -27 3 2 58 1 105 -2 105 -3 0 -3 33 1 73 4 39 7
158 8 262 1 172 6 277 16 360 5 39 -16 205 -25 205 -12 0 -21 -33 -12 -42 5
-5 7 -138 5 -296 -7 -544 -9 -867 -5 -844 5 30 26 23 30 -9 2 -19 1 -21 -7 -9
-8 11 -11 3 -12 -35 -1 -46 -1 -48 -10 -20 -13 42 -26 110 -34 174 -3 30 -8
57 -10 61 -2 3 -5 42 -6 86 0 43 -8 147 -15 229 -28 292 -33 352 -39 490 -9
187 -11 205 -35 237 -16 22 -17 28 -6 35 8 4 24 25 36 45 24 41 21 64 -14 111
-17 23 -26 27 -53 24 -40 -6 -46 18 -8 27 14 4 23 11 20 16 -4 6 -14 6 -27 -1
-20 -11 -21 -10 -14 27 4 22 7 50 7 64 -1 29 22 82 55 125 24 31 88 69 138 80
22 5 26 9 16 15 -11 7 -10 11 3 25 10 9 17 23 17 30 0 23 19 65 30 65 5 0 10
-18 10 -40z m-212 -472 c7 -7 12 -22 12 -35 0 -20 -5 -23 -35 -23 -29 0 -36 4
-41 26 -10 38 35 61 64 32z m-8 -218 c6 -11 8 -20 6 -20 -3 0 -10 9 -16 20 -6
11 -8 20 -6 20 3 0 10 -9 16 -20z m14 -65 c3 -8 1 -15 -3 -15 -5 0 -11 7 -15
15 -3 8 -1 15 3 15 5 0 11 -7 15 -15z"/>
<path d="M2550 6608 c-7 -12 -26 -38 -43 -55 -17 -18 -26 -33 -19 -33 16 0 70
57 78 82 9 29 -2 33 -16 6z"/>
<path d="M2605 6620 c-3 -5 -1 -10 4 -10 6 0 11 5 11 10 0 6 -2 10 -4 10 -3 0
-8 -4 -11 -10z"/>
<path d="M2640 6585 c0 -8 2 -15 4 -15 2 0 6 7 10 15 3 8 1 15 -4 15 -6 0 -10
-7 -10 -15z"/>
<path d="M2680 6563 c0 -16 -11 -39 -27 -55 -28 -29 -17 -40 12 -11 29 29 46
93 25 93 -5 0 -10 -12 -10 -27z"/>
<path d="M2570 6519 c0 -5 5 -7 10 -4 6 3 10 8 10 11 0 2 -4 4 -10 4 -5 0 -10
-5 -10 -11z"/>
<path d="M2390 6421 c0 -6 15 -11 33 -13 29 -3 34 -9 52 -55 24 -62 50 -77 77
-43 19 24 24 50 9 50 -5 0 -11 -10 -13 -22 -6 -41 -33 -33 -47 14 -7 24 -20
51 -29 61 -16 18 -82 24 -82 8z"/>
<path d="M2415 6351 c-3 -5 -1 -12 5 -16 5 -3 10 1 10 9 0 18 -6 21 -15 7z"/>
<path d="M2515 5980 c-8 -13 5 -13 25 0 13 8 13 10 -2 10 -9 0 -20 -4 -23 -10z"/>
<path d="M7598 6942 c-4 -13 -3 -36 2 -52 4 -16 6 -31 3 -34 -3 -3 -2 -13 2
-23 4 -10 7 -31 6 -48 -1 -23 1 -26 8 -15 8 12 13 8 25 -21 8 -19 18 -47 21
-60 3 -14 32 -55 64 -90 41 -46 61 -77 69 -111 14 -56 16 -140 3 -119 -5 8 -7
24 -5 35 2 12 -3 41 -11 66 -14 47 -20 20 -6 -30 4 -14 3 -47 -2 -75 -5 -27
-8 -60 -8 -72 2 -44 -16 -22 -22 27 -10 80 -22 86 -22 12 -1 -37 -4 -87 -8
-112 l-8 -45 19 22 c11 12 22 19 26 16 10 -10 7 -43 -5 -43 -5 0 -7 5 -4 10 3
6 1 10 -4 10 -6 0 -11 -6 -11 -14 0 -8 -3 -16 -7 -18 -15 -6 -73 -87 -73 -101
0 -8 -9 -26 -20 -39 -10 -14 -17 -28 -13 -32 3 -3 26 29 50 72 50 88 73 116
73 90 0 -8 -6 -21 -14 -27 -8 -7 -18 -27 -22 -44 -3 -17 -13 -42 -22 -55 -8
-12 -12 -25 -9 -28 3 -3 11 5 17 18 7 12 24 38 38 57 14 19 26 46 27 60 2 14
14 51 28 81 31 65 47 123 47 167 0 17 5 33 11 35 8 3 10 19 5 52 -6 38 -20 63
-70 124 -34 42 -69 91 -78 107 -24 44 -68 187 -61 198 3 5 1 12 -3 16 -5 3
-14 17 -20 31 l-11 24 -5 -22z"/>
<path d="M7554 6938 c-4 -6 -9 -26 -11 -45 -5 -44 -40 -138 -69 -185 -13 -20
-40 -49 -61 -64 -90 -67 -167 -166 -190 -243 -26 -92 -15 -147 78 -386 28 -71
49 -203 54 -337 2 -65 8 -134 14 -155 10 -41 27 -219 23 -243 -2 -8 -5 -78 -7
-155 -4 -124 5 -254 22 -322 9 -39 25 -26 19 15 -19 121 -31 342 -18 342 7 0
12 -28 14 -72 2 -60 6 -73 19 -72 14 1 20 -21 37 -125 11 -69 17 -130 14 -135
-10 -18 -31 41 -32 92 0 28 -4 52 -9 52 -5 0 -8 -13 -6 -30 2 -16 0 -32 -6
-35 -5 -4 -6 -12 -2 -18 4 -7 8 -35 9 -62 1 -28 11 -71 22 -95 17 -38 24 -87
34 -230 5 -65 -4 -270 -11 -270 -5 0 -12 8 -15 18 -5 17 0 -18 11 -69 9 -44
-95 -216 -154 -254 -14 -9 -22 -19 -19 -22 10 -10 73 40 91 72 10 16 28 41 41
55 13 14 23 27 22 30 -3 14 15 50 22 45 10 -6 0 -869 -11 -905 0 -3 -1 -38 -1
-77 0 -40 -3 -73 -6 -73 -4 0 -20 25 -36 55 -15 30 -33 52 -38 49 -5 -3 -26 6
-46 20 -37 25 -61 64 -103 165 -13 30 -25 49 -27 43 -2 -6 15 -47 37 -91 22
-45 38 -81 35 -81 -4 0 -19 11 -36 25 -16 14 -35 25 -41 25 -12 -1 62 -70 75
-70 4 0 32 -16 63 -35 83 -54 153 -176 114 -201 -14 -8 -56 42 -64 78 -4 15
-11 30 -16 33 -15 10 -10 -29 6 -51 33 -44 8 -46 -46 -3 -44 34 -139 171 -139
199 0 10 -7 31 -15 46 -8 16 -15 43 -16 59 -1 33 -16 89 -18 66 -2 -24 -14 -3
-18 31 -3 18 -4 81 -4 141 1 66 -3 107 -9 107 -11 0 -12 -9 -12 -136 0 -51 6
-118 12 -150 11 -56 21 -82 75 -217 34 -83 76 -145 106 -156 15 -5 46 -23 69
-40 24 -17 49 -31 55 -31 26 0 35 -30 40 -126 3 -66 0 -108 -8 -123 -7 -14
-40 -39 -76 -57 -35 -18 -68 -37 -74 -43 -18 -18 1 -25 20 -8 11 9 45 18 82
21 l64 6 -8 -42 c-17 -99 -23 -196 -24 -423 -1 -132 -6 -394 -11 -582 -10
-365 -13 -383 -64 -426 -19 -17 -19 -18 -2 -15 11 2 26 18 35 35 33 68 36 38
13 -157 -9 -71 0 -196 11 -160 4 14 9 59 11 100 2 41 8 100 14 130 6 30 14 72
17 92 7 47 25 50 25 6 0 -18 7 -46 15 -62 9 -16 15 -55 15 -93 0 -47 3 -63 13
-60 8 3 11 21 10 51 -4 59 10 59 33 0 14 -36 15 -47 5 -54 -10 -6 -10 -9 -1
-15 6 -4 12 -5 13 -4 1 2 8 14 15 27 7 13 11 26 8 30 -6 11 13 174 23 197 13
28 63 247 58 252 -3 2 -14 -33 -26 -79 -12 -46 -30 -114 -41 -153 -11 -38 -22
-98 -26 -133 -4 -34 -11 -62 -15 -62 -5 0 -9 8 -9 18 0 10 -5 23 -11 29 -29
29 -28 85 3 209 17 68 35 121 39 119 4 -3 9 16 12 43 2 26 7 56 9 67 3 11 3
14 1 8 -3 -7 -10 -13 -18 -13 -8 0 -11 -7 -8 -19 4 -16 -32 -165 -54 -221 -3
-8 -7 -19 -8 -25 -1 -5 -3 -13 -5 -17 -1 -5 -3 -12 -4 -17 -3 -21 -15 -21 -26
-2 -6 12 -17 21 -25 21 -18 0 -17 -7 -5 145 6 66 12 223 15 349 3 156 9 232
16 237 8 5 9 44 3 140 -11 187 -12 552 -2 566 5 6 22 14 37 18 38 8 89 47 84
63 -5 12 56 31 67 21 18 -15 59 -160 60 -211 0 -24 6 -40 17 -47 13 -7 18 -26
21 -80 5 -80 21 -105 50 -78 51 48 90 212 87 374 -3 189 -2 181 -35 198 -24
13 -38 14 -69 5 -21 -6 -41 -16 -44 -24 -3 -8 -23 -19 -44 -26 -21 -7 -55 -25
-75 -41 -20 -16 -41 -29 -46 -29 -5 0 -31 -20 -58 -45 -26 -25 -48 -45 -49
-45 -3 0 7 240 11 258 3 15 14 24 33 28 41 9 213 172 239 228 30 63 62 161 62
189 0 14 7 44 15 67 8 23 15 62 15 85 0 76 20 95 58 55 21 -23 92 -40 92 -22
0 6 -16 14 -36 18 -19 4 -38 13 -41 20 -3 8 -11 14 -18 14 -8 0 -20 6 -27 13
-18 18 -48 29 -48 17 0 -5 5 -12 11 -15 6 -4 7 -14 3 -24 -12 -30 -33 -136
-34 -172 0 -28 -7 -40 -31 -58 -40 -29 -47 -21 -20 24 11 20 21 39 21 43 0 11
-60 -82 -60 -93 0 -5 -16 -25 -34 -43 l-34 -33 12 40 c6 22 15 43 19 47 4 4 7
16 7 26 0 10 20 77 45 150 25 72 43 134 40 136 -2 3 -9 -8 -15 -24 -6 -16 -22
-58 -35 -94 -14 -36 -41 -114 -60 -175 -36 -108 -42 -121 -99 -204 -16 -23
-26 -44 -23 -47 3 -3 16 11 30 33 28 44 138 153 191 189 28 20 36 21 36 9 0
-8 -4 -15 -10 -15 -5 0 -10 -5 -10 -11 0 -28 -57 -150 -94 -199 -42 -58 -103
-120 -117 -120 -4 0 -14 9 -22 20 -14 19 -15 20 -21 3 -4 -10 -2 -19 3 -21 16
-5 13 -22 -3 -22 -8 0 -16 -7 -20 -15 -14 -37 -26 -10 -27 63 -2 60 -3 68 -8
37 -6 -36 -7 -38 -15 -16 -8 23 -2 220 11 376 4 44 6 99 4 123 -3 42 -2 43 24
36 27 -7 27 -6 20 32 -15 83 -6 171 31 282 38 117 57 152 79 152 8 0 15 6 15
13 0 18 61 81 91 94 32 14 65 10 61 -7 -1 -6 2 -9 8 -5 5 3 10 -1 10 -10 0 -9
5 -13 11 -9 11 6 93 -73 165 -161 38 -47 55 -54 33 -13 -12 23 -12 23 9 4 12
-10 37 -44 57 -75 129 -201 157 -242 198 -290 26 -30 52 -70 58 -90 16 -50 31
-63 17 -15 -15 47 -45 97 -90 145 -32 34 -128 179 -128 194 0 10 -57 91 -127
180 -90 115 -127 155 -138 152 -13 -5 -8 -22 5 -22 6 0 19 -15 30 -32 26 -44
11 -42 -28 3 -33 37 -40 58 -22 69 6 4 7 13 1 24 -9 16 -6 53 15 196 8 55 52
158 81 190 42 46 105 86 156 99 49 13 60 12 121 -4 72 -20 110 -43 151 -91 31
-38 44 -32 19 8 -45 71 -93 97 -196 108 -95 9 -160 -13 -230 -79 -77 -72 -116
-155 -130 -279 -7 -53 -15 -97 -19 -97 -4 0 -31 22 -61 50 -29 27 -60 50 -68
50 -8 0 -39 9 -69 21 -32 12 -71 19 -95 17 -39 -3 -41 -1 -38 22 2 14 4 77 6
140 2 63 8 127 14 142 10 24 57 206 68 263 2 11 10 47 19 80 24 95 44 235 33
241 -9 6 -2 200 8 215 6 11 16 133 16 209 0 41 4 89 9 105 5 17 21 70 35 118
14 49 52 140 84 202 68 130 90 219 70 279 -6 20 -9 40 -5 46 19 31 -88 211
-111 187 -4 -3 6 -21 21 -39 47 -56 67 -115 65 -188 -1 -36 -3 -90 -4 -120 -1
-41 -10 -74 -35 -125 -19 -39 -37 -72 -40 -75 -16 -12 -82 -174 -77 -187 3 -8
0 -26 -8 -41 -8 -15 -21 -58 -29 -97 -9 -38 -18 -81 -22 -95 l-6 -25 15 25
c18 30 18 25 6 -60 -5 -36 -10 -94 -11 -130 -1 -35 -6 -76 -10 -90 -12 -40
-38 -189 -44 -258 -7 -75 7 -76 25 -2 12 49 35 84 26 38 -3 -12 -10 -48 -16
-78 -6 -30 -13 -65 -16 -78 -6 -32 -24 -17 -24 20 0 49 -9 27 -11 -26 -1 -26
-6 -49 -10 -51 -8 -6 -19 -78 -21 -153 -2 -29 -8 -58 -15 -64 -8 -6 -13 -34
-13 -71 0 -108 -14 -49 -21 91 -5 94 -14 157 -28 201 -23 71 -26 91 -11 91 6
0 10 -9 10 -20 0 -11 5 -20 10 -20 6 0 10 32 10 75 0 91 19 190 31 160 11 -29
11 -156 -1 -255 -10 -79 -4 -227 8 -215 9 9 17 172 16 353 0 154 -2 175 -17
183 -14 8 -17 24 -17 81 0 95 -14 78 -17 -20 -3 -102 -38 -335 -42 -283 -1 11
-5 10 -16 -5 -14 -18 -14 -17 -3 9 9 21 9 42 -1 93 -6 37 -10 69 -7 72 3 3 1
11 -4 17 -6 7 -13 52 -16 101 -4 49 -10 96 -14 104 -4 8 -11 51 -14 95 -4 44
-13 121 -21 170 -7 50 -14 117 -14 150 0 62 -19 139 -66 260 -58 154 -69 238
-39 311 19 46 105 163 120 164 5 0 25 16 44 35 37 38 57 46 40 16 -15 -28 -12
-39 4 -16 7 11 13 27 13 35 0 19 34 73 41 66 2 -3 -1 -27 -8 -53 -13 -47 -51
-117 -116 -214 -51 -76 -60 -116 -44 -199 15 -78 30 -101 30 -46 0 20 4 36 9
36 12 0 21 -108 13 -155 l-8 -40 -17 30 c-22 41 -21 14 2 -38 10 -23 25 -70
32 -104 14 -67 36 -89 25 -25 -19 110 -21 161 -10 222 14 80 13 76 89 235 69
142 86 204 81 280 -8 110 -19 191 -28 201 -4 6 -6 18 -4 25 12 40 15 69 7 69
-5 0 -13 -5 -17 -12z m19 -160 c3 -35 1 -71 -5 -81 -8 -15 -7 -18 3 -12 9 6
10 3 4 -11 -4 -10 -9 -28 -10 -39 -1 -14 -1 -14 2 -2 2 9 8 17 13 17 5 0 8 -6
6 -12 -2 -7 -10 -34 -16 -60 -7 -27 -17 -48 -22 -48 -5 0 -16 -17 -25 -37 -8
-21 -24 -50 -34 -65 -11 -14 -19 -29 -19 -34 0 -4 13 11 29 34 38 51 55 63 39
25 -6 -15 -16 -33 -20 -39 -5 -7 -22 -38 -38 -70 -16 -33 -29 -53 -29 -46 -1
7 4 22 10 34 6 11 8 22 5 25 -3 3 -10 -6 -15 -21 -6 -14 -15 -26 -21 -26 -5 0
-10 -8 -10 -17 0 -15 -2 -14 -14 2 -8 11 -12 23 -10 27 3 5 0 8 -6 8 -6 0 -14
10 -19 22 -9 26 12 74 64 148 59 82 110 211 95 238 -7 14 20 102 31 102 3 0 9
-28 12 -62z m90 -1590 c-3 -16 -10 -28 -15 -28 -6 0 -8 10 -4 23 3 12 6 29 6
37 0 9 3 10 9 5 5 -6 7 -22 4 -37z m-124 -716 c-1 -33 -2 -34 -9 -12 -12 36
-12 62 0 55 6 -3 10 -23 9 -43z m136 -176 c28 -13 57 -29 65 -37 8 -8 23 -20
33 -28 16 -12 17 -12 11 5 -3 10 15 -3 40 -31 43 -46 57 -75 38 -75 -4 0 -13
5 -19 11 -16 16 -67 2 -93 -27 -13 -13 -28 -24 -34 -24 -6 0 -22 -16 -35 -35
-13 -19 -27 -35 -32 -35 -5 0 -27 -35 -48 -77 -29 -57 -40 -71 -40 -53 0 14
13 49 29 79 17 30 30 58 30 64 0 5 26 35 58 67 46 45 67 59 100 65 23 4 42 11
42 16 0 10 -55 1 -85 -14 -39 -18 -131 -123 -152 -172 -31 -72 -43 -124 -32
-131 6 -3 7 -15 3 -27 -4 -12 -14 -42 -21 -67 l-13 -45 5 55 c2 30 0 61 -4 69
-6 9 -5 21 1 31 7 11 7 35 1 74 -6 34 -7 74 -2 95 4 20 10 81 12 136 2 66 8
100 16 103 7 2 17 10 24 18 17 19 45 17 102 -10z m233 -1499 c12 -15 23 -175
12 -182 -10 -6 -23 -113 -24 -197 -1 -36 -4 -70 -8 -74 -5 -4 -8 -15 -8 -23 0
-18 -34 -44 -44 -34 -3 4 -6 30 -6 59 0 35 -4 54 -14 57 -8 3 -16 25 -19 49
-3 24 -10 63 -17 88 -6 25 -14 60 -17 78 -3 17 -9 32 -14 32 -5 0 -9 6 -9 13
0 7 -6 22 -14 32 -13 18 -14 18 -41 -3 -41 -32 -62 -27 -23 6 18 15 35 30 36
35 2 4 15 7 28 7 13 0 24 4 24 9 0 17 35 18 54 2 18 -15 18 -15 9 3 -17 31 4
54 48 54 21 0 42 -5 47 -11z m-288 -172 c-7 -8 -17 -15 -23 -15 -5 0 -2 9 8
20 21 23 35 19 15 -5z m-160 -75 c-20 -13 -33 -13 -25 0 3 6 14 10 23 10 15 0
15 -2 2 -10z m467 -52 c-3 -8 -6 -5 -6 6 -1 11 2 17 5 13 3 -3 4 -12 1 -19z
m-450 -250 c-3 -7 -5 -2 -5 12 0 14 2 19 5 13 2 -7 2 -19 0 -25z m12 -425 c1
-7 -3 -13 -9 -13 -5 0 -10 15 -9 33 0 27 2 29 9 12 5 -11 9 -26 9 -32z m1 -85
c0 -16 -3 -19 -11 -11 -6 6 -8 16 -5 22 11 17 16 13 16 -11z m-13 -280 c-3 -8
-6 -5 -6 6 -1 11 2 17 5 13 3 -3 4 -12 1 -19z"/>
<path d="M7461 6483 c-1 -6 -4 -20 -7 -30 -5 -17 -5 -17 6 0 6 10 9 23 6 30
-3 9 -5 9 -5 0z"/>
<path d="M7411 6427 c-16 -41 -13 -57 5 -24 8 16 13 34 11 40 -3 7 -10 -1 -16
-16z"/>
<path d="M7872 2760 c-12 -16 -22 -34 -22 -39 0 -7 -9 -7 -26 0 -15 5 -29 8
-31 5 -3 -2 4 -7 15 -10 36 -12 39 -82 6 -168 -8 -21 -10 -38 -5 -38 5 0 11 9
14 21 10 37 25 11 32 -56 4 -36 11 -65 16 -65 12 0 12 2 -6 93 -8 43 -15 95
-15 115 l0 35 25 -23 c14 -13 27 -21 30 -18 6 6 -33 48 -45 48 -6 0 -10 10
-10 23 0 21 5 32 38 86 19 31 9 26 -16 -9z"/>
<path d="M7789 2669 l-24 -20 28 17 c15 9 27 18 27 20 0 8 -8 4 -31 -17z"/>
<path d="M7621 6735 c0 -11 4 -48 9 -83 8 -48 7 -75 -4 -117 -12 -47 -12 -55
0 -55 8 0 14 -8 15 -17 1 -12 4 -10 9 7 8 24 8 24 9 -6 1 -44 -18 -139 -34
-171 -8 -16 -15 -33 -15 -39 0 -13 -29 -74 -35 -74 -3 0 0 11 5 25 8 20 6 25
-6 25 -8 0 -12 -5 -9 -10 4 -6 -3 -29 -14 -51 -23 -44 -28 -78 -6 -39 8 14 14
19 15 12 0 -7 -12 -25 -27 -39 -16 -15 -22 -23 -15 -19 15 9 15 5 1 -31 -6
-15 -13 -38 -14 -51 -2 -13 -10 -44 -18 -70 -27 -83 -38 -145 -44 -232 -7
-111 6 -98 17 17 16 158 54 282 168 538 54 122 60 181 32 326 -24 132 -37 184
-39 154z m31 -210 c3 -14 1 -25 -3 -25 -5 0 -9 11 -9 25 0 14 2 25 4 25 2 0 6
-11 8 -25z"/>
<path d="M7372 6529 c-13 -16 -21 -35 -19 -42 4 -8 6 -8 6 2 1 8 13 28 28 43
15 15 23 28 17 27 -5 0 -19 -13 -32 -30z"/>
<path d="M7700 6461 c0 -6 5 -13 10 -16 6 -3 10 1 10 9 0 9 -4 16 -10 16 -5 0
-10 -4 -10 -9z"/>
<path d="M7631 6424 c0 -11 3 -14 6 -6 3 7 2 16 -1 19 -3 4 -6 -2 -5 -13z"/>
<path d="M7615 6391 c-3 -6 -7 -28 -9 -51 -2 -23 -9 -47 -15 -53 -13 -13 -15
-27 -3 -27 11 0 30 49 38 98 6 40 2 53 -11 33z"/>
<path d="M7340 6140 c0 -5 5 -10 11 -10 5 0 7 5 4 10 -3 6 -8 10 -11 10 -2 0
-4 -4 -4 -10z"/>
<path d="M7754 6035 c-15 -20 -25 -37 -23 -39 2 -3 17 13 32 35 35 49 28 52
-9 4z"/>
<path d="M7486 6033 c-6 -14 -5 -15 5 -6 7 7 10 15 7 18 -3 3 -9 -2 -12 -12z"/>
<path d="M7651 5954 c-6 -15 -9 -29 -7 -32 3 -2 10 8 16 23 6 15 9 29 7 31 -2
2 -9 -8 -16 -22z"/>
<path d="M7711 5953 c-10 -26 -10 -27 4 -9 8 11 15 23 15 28 0 15 -7 8 -19
-19z"/>
<path d="M7600 5936 c0 -8 -3 -22 -7 -32 -4 -11 -3 -15 4 -11 13 8 23 57 12
57 -5 0 -9 -6 -9 -14z"/>
<path d="M7613 5853 c-19 -45 -38 -127 -48 -203 -4 -30 -14 -68 -22 -83 -17
-34 -25 -104 -13 -112 9 -5 29 79 59 248 11 60 24 114 29 120 11 15 24 67 17
67 -3 0 -13 -17 -22 -37z"/>
<path d="M7446 5543 c9 -52 14 -54 12 -5 -1 23 -5 42 -10 42 -5 0 -6 -17 -2
-37z"/>
<path d="M7620 5540 c0 -5 5 -10 10 -10 6 0 10 5 10 10 0 6 -4 10 -10 10 -5 0
-10 -4 -10 -10z"/>
<path d="M7451 5454 c0 -11 3 -14 6 -6 3 7 2 16 -1 19 -3 4 -6 -2 -5 -13z"/>
<path d="M1820 4898 c-30 -5 -70 -9 -89 -9 -19 0 -46 -6 -60 -14 -14 -8 -37
-19 -51 -25 -14 -6 -43 -22 -65 -35 -22 -14 -55 -33 -72 -42 -18 -9 -35 -25
-39 -35 -3 -10 -9 -16 -13 -13 -10 6 -102 -98 -155 -174 -21 -31 -57 -82 -78
-113 -22 -31 -37 -61 -34 -66 3 -6 -1 -12 -9 -16 -8 -3 -15 -13 -15 -22 0 -9
-9 -31 -19 -48 -11 -17 -24 -49 -30 -71 -21 -83 -42 -162 -57 -208 -8 -26 -15
-71 -15 -100 1 -28 -3 -77 -7 -107 -16 -113 -3 -341 24 -440 24 -87 84 -252
105 -288 10 -18 19 -40 19 -48 0 -8 18 -53 39 -99 31 -64 47 -88 71 -100 49
-25 59 -15 54 52 -3 32 -9 73 -14 92 -5 19 -7 37 -5 41 2 4 -2 28 -10 53 -8
27 -10 47 -5 47 6 0 10 -8 10 -18 0 -33 24 -56 52 -49 19 5 28 16 35 45 6 21
6 47 2 58 -7 21 -12 71 -10 108 1 17 3 17 26 2 13 -9 29 -16 34 -16 23 0 35
48 36 135 0 86 17 135 23 68 3 -34 25 -59 42 -48 24 15 40 80 40 168 0 50 2
88 5 85 3 -3 14 -29 24 -59 14 -38 25 -54 37 -54 23 0 32 33 32 115 0 62 -1
63 -10 25 -5 -22 -12 -58 -16 -80 l-7 -40 -24 65 c-13 36 -25 71 -27 78 -4 13
-25 18 -22 5 5 -19 -15 -249 -23 -271 -13 -33 -23 -20 -37 46 -17 76 -16 88 5
71 15 -13 16 -11 9 16 -10 40 -12 71 -15 255 -3 147 -4 152 -16 105 -19 -75
-29 -34 -22 88 7 117 -6 104 -23 -22 -9 -66 -8 -86 4 -115 8 -20 20 -36 25
-36 18 0 14 -239 -5 -291 -9 -26 -17 -89 -19 -153 -3 -61 -9 -114 -15 -120
-16 -16 -38 17 -46 70 -3 25 -10 47 -15 50 -5 3 -9 15 -9 27 -1 12 -7 33 -15
47 -14 24 -14 23 -15 -25 0 -28 5 -56 11 -62 5 -5 9 -36 7 -69 -2 -32 -6 -52
-9 -44 -15 37 -30 122 -35 199 -3 46 -10 93 -15 103 -6 10 -13 71 -16 136 -5
103 -3 126 17 190 21 70 22 111 0 61 -9 -21 -10 -19 -7 16 1 29 -2 40 -12 40
-10 0 -14 -21 -16 -88 -3 -84 -8 -107 -21 -95 -9 9 -8 174 1 265 4 44 5 89 1
100 -16 41 -26 -19 -30 -192 -5 -172 0 -215 24 -200 15 9 19 -10 25 -121 4
-60 13 -138 21 -173 8 -35 13 -69 10 -76 -9 -23 25 -170 42 -183 9 -7 17 -16
17 -20 1 -4 4 -28 9 -54 8 -55 -1 -120 -18 -115 -6 2 -27 51 -46 110 -19 58
-38 109 -42 113 -16 16 -7 -144 12 -216 12 -41 23 -109 26 -150 l6 -75 -20 24
c-45 56 -164 335 -201 476 -51 190 -51 500 0 695 68 263 187 477 358 647 24
23 50 43 58 43 7 0 16 6 19 13 2 7 26 24 52 37 26 14 49 28 52 31 7 7 89 35
172 58 131 36 248 -13 350 -147 24 -31 46 -59 49 -62 4 -3 19 -31 34 -63 17
-37 39 -66 61 -80 36 -24 43 -37 19 -37 -17 0 -21 -35 -5 -45 5 -3 26 -1 47 4
20 6 39 9 41 7 2 -3 -8 -22 -22 -43 -14 -20 -26 -34 -26 -29 0 5 -7 3 -15 -4
-8 -7 -15 -20 -15 -29 1 -14 2 -14 14 1 7 10 15 15 18 12 16 -16 96 104 84
125 -4 5 3 7 14 4 16 -4 20 0 21 18 0 13 4 47 8 76 4 29 4 50 -1 47 -4 -3 -8
-16 -8 -29 0 -13 -12 -42 -27 -64 -20 -31 -33 -41 -53 -41 -34 0 -109 58 -117
90 -3 14 -9 27 -12 30 -4 3 -24 32 -45 65 -48 74 -99 129 -151 163 -98 65
-139 75 -235 60z m570 -428 c0 -10 -39 -24 -47 -17 -9 10 5 23 26 24 12 1 21
-2 21 -7z"/>
<path d="M3029 4897 c-86 -33 -171 -111 -245 -228 -51 -81 -67 -129 -44 -129
6 0 10 7 10 16 0 23 71 145 115 199 49 60 134 115 192 127 74 14 254 -8 328
-40 33 -15 62 -29 65 -32 3 -4 23 -17 45 -29 43 -24 95 -84 133 -153 13 -24
30 -53 39 -66 8 -13 23 -73 33 -133 19 -117 37 -161 27 -69 l-6 55 15 -40 c9
-22 21 -67 29 -100 7 -33 21 -88 30 -122 12 -47 16 -114 17 -275 2 -193 0
-222 -22 -308 -40 -163 -130 -423 -191 -555 -50 -109 -125 -206 -114 -147 9
46 39 172 51 212 12 41 26 121 17 93 -3 -7 -11 -13 -18 -13 -7 0 -16 -14 -20
-31 -4 -19 -15 -33 -26 -36 -10 -3 -19 -9 -19 -14 0 -5 -7 -9 -15 -9 -21 0
-19 47 5 148 11 46 18 88 14 93 -6 11 -34 -14 -34 -31 0 -22 -31 -70 -45 -70
-24 0 -28 46 -11 132 11 55 13 93 8 113 -9 28 -10 27 -21 -30 -18 -87 -19 -91
-34 -76 -14 14 -15 72 -3 195 6 65 6 87 -3 82 -7 -5 -11 3 -11 23 0 17 -4 31
-10 31 -5 0 -10 -16 -10 -36 0 -52 -22 -38 -39 25 -12 44 -12 63 -1 117 7 36
10 68 6 71 -3 4 -6 -1 -6 -10 0 -9 -7 -20 -15 -24 -8 -5 -18 -32 -22 -62 -5
-30 -12 -55 -18 -55 -6 -1 -12 35 -15 79 l-5 80 -7 -64 c-5 -49 -3 -72 8 -94
17 -33 35 -31 45 4 6 20 7 17 8 -14 1 -50 26 -108 50 -114 23 -6 35 -74 20
-126 -13 -47 3 -114 31 -134 16 -12 21 -22 17 -42 -9 -45 3 -81 30 -87 16 -4
28 -2 34 7 15 24 21 2 10 -38 -21 -75 -13 -102 35 -117 16 -5 23 0 33 20 22
48 20 19 -4 -72 -32 -126 -35 -164 -11 -164 16 0 80 64 95 95 55 116 86 187
103 238 11 34 26 70 34 81 8 11 14 30 14 42 0 26 38 132 55 154 15 18 24 51
31 110 3 25 9 74 14 110 12 99 6 437 -9 490 -7 25 -17 61 -22 80 -29 113 -62
216 -93 295 -20 49 -36 94 -36 99 0 8 -25 40 -104 132 -54 62 -202 133 -290
139 -23 2 -79 6 -126 9 -61 5 -95 3 -121 -7z m298 -1324 c-3 -10 -5 -4 -5 12
0 17 2 24 5 18 2 -7 2 -21 0 -30z"/>
<path d="M1838 4739 c-19 -11 -24 -29 -8 -29 5 0 14 9 20 20 12 23 12 23 -12
9z"/>
<path d="M1527 4643 c-37 -36 -67 -71 -67 -77 0 -6 16 8 36 31 19 23 54 58 77
77 23 20 37 36 31 36 -6 0 -41 -30 -77 -67z"/>
<path d="M6729 4680 c-37 -10 -82 -29 -100 -42 -54 -40 -77 -49 -137 -55 -93
-7 -116 -29 -226 -206 -10 -16 -15 -31 -12 -34 9 -9 57 51 81 102 13 27 38 65
57 82 30 29 41 33 101 36 60 4 73 9 128 47 51 36 73 44 136 53 72 11 75 10 91
-11 10 -12 40 -36 69 -54 90 -57 270 -243 293 -302 12 -32 7 -43 -23 -57 -51
-24 -89 -47 -156 -98 -39 -30 -71 -57 -71 -61 0 -3 -10 -16 -23 -30 -12 -14
-58 -65 -101 -115 -43 -49 -103 -116 -134 -148 -30 -32 -53 -60 -50 -62 5 -5
30 20 141 140 26 28 47 45 47 38 0 -11 -94 -130 -115 -145 -6 -5 -6 -8 2 -8 6
0 31 23 56 51 l44 50 5 -28 c3 -15 6 -53 7 -83 2 -58 17 -118 34 -135 6 -7 7
1 1 25 -4 19 -8 54 -8 78 0 23 -4 42 -8 42 -5 0 -8 27 -8 59 0 44 5 65 20 82
18 23 19 23 20 4 1 -17 3 -17 12 5 6 14 12 28 12 32 1 11 128 138 137 138 5 0
30 22 57 48 88 87 122 108 122 76 0 -13 5 -11 24 7 17 16 21 26 13 31 -16 10
18 45 67 69 49 23 99 24 121 3 22 -22 32 -9 11 15 -35 38 -108 31 -181 -19
-40 -27 -48 -25 -64 11 -31 70 -172 212 -332 334 -69 52 -81 55 -160 35z m502
-453 c-8 -8 -11 -7 -11 4 0 20 13 34 18 19 3 -7 -1 -17 -7 -23z m-41 -12 c0
-7 -62 -62 -125 -112 -27 -22 -84 -74 -125 -116 -64 -66 -100 -91 -100 -72 0
7 70 84 142 157 69 70 208 165 208 143z"/>
<path d="M1594 4638 c-17 -18 -47 -57 -68 -85 -38 -54 -60 -74 -30 -28 9 14
14 28 12 31 -7 7 -31 -33 -51 -84 -23 -57 -13 -49 58 45 32 43 74 95 94 116
19 20 31 37 25 37 -6 0 -24 -15 -40 -32z"/>
<path d="M1713 4651 c-3 -12 -12 -21 -19 -21 -20 0 -125 -115 -153 -167 -9
-19 -9 -22 3 -17 8 3 19 18 26 34 7 16 20 36 30 45 17 15 19 15 25 -4 3 -12
13 -21 21 -21 14 0 54 55 54 75 0 6 -9 -5 -20 -22 -11 -18 -26 -33 -34 -33
-12 0 -13 7 -5 33 9 33 42 67 65 67 18 0 37 37 23 45 -6 4 -13 -2 -16 -14z"/>
<path d="M6710 4612 c0 -17 40 -95 46 -89 3 3 -6 27 -20 54 -14 26 -25 42 -26
35z"/>
<path d="M1771 4577 c-24 -39 -27 -62 -9 -73 7 -5 9 -2 5 9 -3 8 3 32 13 53
25 48 19 56 -9 11z"/>
<path d="M2620 4579 c0 -9 10 -29 22 -45 13 -15 17 -25 10 -20 -6 4 -12 2 -12
-3 0 -6 7 -11 15 -11 8 0 15 -7 15 -16 0 -9 5 -12 12 -8 8 5 9 2 5 -9 -3 -9
-2 -19 3 -22 11 -7 50 -87 50 -103 0 -7 -4 -12 -9 -12 -6 0 -3 -20 6 -45 8
-25 19 -43 23 -40 10 6 2 44 -13 63 -8 10 -7 16 2 22 11 6 9 21 -8 76 -16 53
-18 69 -9 76 10 6 9 8 -3 8 -9 0 -19 7 -23 15 -3 8 -12 15 -21 15 -8 0 -15 3
-15 8 -1 4 -12 21 -25 37 -17 21 -25 25 -25 14z"/>
<path d="M3535 4540 c5 -38 4 -42 -6 -25 -18 30 -19 31 -29 15 -15 -24 -13
-45 4 -31 11 9 15 7 19 -10 3 -12 10 -18 16 -14 13 8 13 62 0 90 -6 14 -7 7
-4 -25z"/>
<path d="M6880 4543 c0 -16 7 -53 14 -83 13 -50 13 -53 -1 -32 -8 12 -21 22
-27 22 -7 0 -27 11 -45 25 -19 13 -55 27 -80 31 -25 4 -54 11 -65 16 -14 8
-17 7 -14 -4 3 -7 20 -14 39 -16 57 -5 67 -11 45 -28 -24 -17 -13 -19 14 -2
16 10 24 9 49 -10 17 -12 34 -22 39 -22 5 0 18 -11 30 -25 12 -14 26 -25 31
-25 5 0 13 -9 16 -20 4 -11 17 -32 29 -48 13 -15 26 -39 30 -54 6 -25 62 -76
72 -65 3 3 -9 15 -25 27 -20 13 -31 30 -31 45 0 13 -11 35 -25 48 -30 28 -75
152 -75 208 0 21 -4 39 -10 39 -5 0 -10 -12 -10 -27z"/>
<path d="M1430 4538 c-12 -22 -12 -22 6 -6 10 10 15 20 12 24 -4 3 -12 -5 -18
-18z"/>
<path d="M8187 4523 c-4 -3 -7 -11 -7 -17 0 -6 5 -5 12 2 6 6 9 14 7 17 -3 3
-9 2 -12 -2z"/>
<path d="M8481 4522 c-2 -23 19 -51 47 -66 15 -8 38 -25 52 -38 14 -13 40 -34
59 -47 33 -24 33 -24 22 -2 -14 26 -85 79 -124 93 -16 6 -34 23 -42 42 -7 17
-14 25 -14 18z"/>
<path d="M1291 4420 c-39 -75 -53 -112 -54 -147 -1 -27 3 -48 10 -50 6 -2 27
18 47 44 70 95 68 93 61 48 -4 -22 -3 -36 1 -32 10 10 43 169 37 180 -10 18
-18 4 -21 -37 -2 -38 -10 -52 -57 -103 -44 -47 -55 -54 -55 -37 0 33 27 101
65 164 36 60 40 70 27 70 -4 0 -31 -45 -61 -100z"/>
<path d="M3280 4506 c0 -9 5 -16 10 -16 6 0 10 4 10 9 0 6 -4 13 -10 16 -5 3
-10 -1 -10 -9z"/>
<path d="M2581 4495 c1 -19 18 -51 18 -35 0 8 -4 22 -9 30 -5 8 -9 11 -9 5z"/>
<path d="M8165 4479 c-4 -6 -5 -12 -2 -15 2 -3 7 2 10 11 7 17 1 20 -8 4z"/>
<path d="M1810 4448 c-26 -29 -71 -118 -64 -129 3 -5 11 -9 17 -9 15 0 79 81
71 89 -6 6 -28 -19 -50 -55 -7 -11 -15 -16 -19 -12 -10 10 31 84 60 106 14 11
25 23 25 26 0 13 -20 5 -40 -16z"/>
<path d="M3170 4461 c0 -5 5 -13 10 -16 6 -3 10 -2 10 4 0 5 -4 13 -10 16 -5
3 -10 2 -10 -4z"/>
<path d="M3421 4463 c0 -6 -4 -20 -7 -30 -5 -14 -4 -15 5 -7 7 7 11 20 8 30
-3 11 -5 14 -6 7z"/>
<path d="M2613 4425 c0 -22 2 -30 4 -17 2 12 2 30 0 40 -3 9 -5 -1 -4 -23z"/>
<path d="M2643 4410 c0 -25 2 -35 4 -22 2 12 2 32 0 45 -2 12 -4 2 -4 -23z"/>
<path d="M2871 4440 c0 -18 17 -60 18 -45 1 6 6 3 11 -5 8 -13 10 -13 10 2 0
9 -6 21 -14 25 -7 4 -16 15 -19 23 -5 13 -5 13 -6 0z"/>
<path d="M1443 4380 c-27 -60 -44 -148 -31 -156 11 -7 29 16 71 88 39 65 20
61 -21 -4 -17 -29 -32 -46 -32 -37 0 15 27 100 45 142 4 9 3 17 -1 17 -5 0
-19 -22 -31 -50z"/>
<path d="M1719 4417 c-20 -15 -53 -66 -47 -72 2 -3 19 15 36 40 17 25 31 45
29 45 -1 0 -9 -6 -18 -13z"/>
<path d="M6486 4421 c-4 -7 -5 -15 -2 -18 9 -9 19 4 14 18 -4 11 -6 11 -12 0z"/>
<path d="M8136 4415 c-9 -26 -7 -32 5 -12 6 10 9 21 6 23 -2 3 -7 -2 -11 -11z"/>
<path d="M1590 4398 c-12 -22 -12 -22 6 -6 10 10 15 20 12 24 -4 3 -12 -5 -18
-18z"/>
<path d="M7012 4395 c-17 -37 -14 -45 4 -12 9 16 14 31 11 33 -2 2 -9 -7 -15
-21z"/>
<path d="M2941 4390 c0 -14 4 -32 9 -40 8 -12 10 -12 9 5 0 11 -4 29 -9 40 -8
18 -9 18 -9 -5z"/>
<path d="M2285 4390 c-3 -6 1 -7 9 -4 18 7 21 14 7 14 -6 0 -13 -4 -16 -10z"/>
<path d="M8428 4383 c6 -2 18 -2 25 0 6 3 1 5 -13 5 -14 0 -19 -2 -12 -5z"/>
<path d="M6436 4358 c31 -36 64 -86 64 -97 0 -5 -25 -13 -55 -16 -30 -4 -55
-11 -55 -15 0 -4 17 -4 38 -1 36 7 134 6 257 -2 76 -5 138 -31 156 -64 18 -34
99 -70 99 -44 0 5 -14 12 -30 16 -17 4 -41 21 -55 39 -26 35 -99 66 -153 66
-18 0 -65 5 -105 12 -55 9 -76 17 -94 37 -12 14 -23 31 -23 37 0 12 -42 54
-55 54 -5 0 0 -10 11 -22z"/>
<path d="M6475 4371 c-3 -5 -1 -12 5 -16 5 -3 10 1 10 9 0 18 -6 21 -15 7z"/>
<path d="M8118 4365 c-3 -11 -9 -29 -13 -40 -3 -11 1 -7 10 8 9 16 15 33 12
40 -2 6 -6 3 -9 -8z"/>
<path d="M1890 4357 c-26 -20 -50 -60 -50 -82 1 -16 9 -11 45 28 53 58 61 83
9 29 -37 -38 -37 -25 -1 16 22 24 21 28 -3 9z"/>
<path d="M3672 4287 c1 -72 -19 -137 -42 -137 -6 0 -18 17 -26 38 -9 20 -21
45 -26 56 -7 12 -6 21 0 25 7 4 5 15 -3 31 -8 14 -15 21 -15 15 -1 -5 -4 -30
-7 -55 -2 -25 -6 -46 -8 -48 -2 -2 -13 18 -24 44 -12 26 -24 45 -27 42 -8 -8
48 -118 58 -112 4 3 8 17 8 32 0 33 14 19 29 -30 7 -20 19 -42 27 -49 13 -11
19 -8 39 17 21 26 40 86 38 122 0 6 -1 28 -2 47 0 19 -5 35 -11 35 -6 0 -9
-30 -8 -73z"/>
<path d="M3448 4304 l-3 -49 -18 35 c-9 19 -15 26 -11 15 13 -46 16 -83 5 -89
-6 -4 -11 -26 -11 -49 0 -51 -14 -78 -24 -50 -15 38 -19 153 -6 177 7 13 10
30 7 38 -3 8 -8 3 -15 -13 -7 -18 -9 -106 -6 -253 3 -124 1 -226 -3 -226 -5 0
-7 -17 -4 -37 l5 -38 7 40 c4 22 8 91 10 153 2 80 6 115 15 119 19 7 37 60 30
87 -4 15 -1 30 9 39 8 8 11 17 8 21 -3 3 -1 11 5 18 12 15 19 94 10 104 -4 3
-8 -16 -10 -42z"/>
<path d="M8280 4340 c-66 -15 -94 -26 -98 -39 -3 -9 5 -8 27 4 17 9 36 13 41
10 11 -7 98 14 106 26 6 11 -27 10 -76 -1z"/>
<path d="M8460 4331 c0 -11 5 -23 10 -26 6 -4 10 5 10 19 0 14 -4 26 -10 26
-5 0 -10 -9 -10 -19z"/>
<path d="M1516 4278 c-9 -29 -17 -71 -18 -93 -4 -59 20 -52 59 18 18 32 27 57
21 55 -7 -3 -22 -23 -33 -46 -11 -22 -23 -41 -27 -42 -11 0 2 79 18 119 16 39
17 41 5 41 -4 0 -16 -24 -25 -52z"/>
<path d="M3317 4323 c-4 -3 -7 -39 -7 -79 0 -126 -21 -141 -40 -29 -16 96 -25
91 -11 -6 6 -48 16 -78 26 -86 13 -9 17 -30 18 -97 1 -119 12 -97 14 27 1 56
4 141 7 190 5 88 4 92 -7 80z"/>
<path d="M1948 4281 c-21 -44 -23 -71 -5 -71 18 1 41 21 62 55 l18 30 -31 -32
c-39 -41 -56 -43 -40 -5 7 15 15 31 20 37 10 11 10 25 1 25 -5 0 -16 -18 -25
-39z"/>
<path d="M2343 4304 c-3 -8 2 -23 11 -32 15 -15 16 -14 16 16 0 33 -16 43 -27
16z"/>
<path d="M3208 4314 c-5 -4 -9 -26 -9 -48 -2 -57 -12 -99 -25 -103 -16 -5 -54
59 -54 91 0 17 -5 26 -16 26 -12 0 -15 -6 -10 -22 15 -52 17 -85 6 -113 l-11
-30 -19 25 c-11 14 -21 34 -23 45 -2 11 -5 4 -6 -16 -1 -28 4 -38 23 -48 13
-8 28 -11 34 -7 11 7 25 -70 16 -87 -5 -9 -3 -9 6 0 10 9 11 23 4 55 -5 24 -8
58 -6 76 l3 33 32 -33 c30 -32 31 -36 37 -148 6 -113 6 -114 14 -56 5 32 6 91
3 130 -4 39 -2 101 4 138 11 70 9 105 -3 92z"/>
<path d="M6147 4280 c-46 -40 -75 -105 -96 -210 -11 -58 -25 -100 -43 -126
-59 -84 -66 -134 -42 -306 7 -54 4 -62 -85 -233 -21 -42 -26 -63 -26 -130 0
-44 6 -93 12 -110 7 -16 15 -46 18 -65 6 -37 21 -68 29 -60 4 5 -13 149 -29
245 -5 29 -1 58 15 105 12 36 25 67 29 70 12 8 69 133 73 161 3 14 -1 63 -8
109 -13 97 -4 143 42 213 28 43 36 67 59 177 19 93 32 121 68 151 18 15 29 30
26 34 -4 3 -23 -8 -42 -25z"/>
<path d="M8677 4304 c-20 -21 13 -112 74 -200 26 -38 30 -53 27 -90 -3 -38 -1
-42 9 -27 26 34 15 85 -34 163 -26 41 -52 94 -58 118 -6 23 -14 39 -18 36z"/>
<path d="M6320 4280 c-9 -6 -10 -10 -3 -10 6 0 15 5 18 10 8 12 4 12 -15 0z"/>
<path d="M8295 4271 c-31 -4 -44 -9 -34 -13 9 -3 41 -1 70 7 57 14 46 16 -36
6z"/>
<path d="M2067 4248 c-4 -13 -13 -32 -22 -43 -16 -20 -16 -19 -10 5 5 24 5 23
-11 -4 -23 -40 -3 -56 24 -19 20 28 39 83 29 83 -3 0 -7 -10 -10 -22z"/>
<path d="M2941 4260 c0 -8 4 -24 9 -35 5 -13 9 -14 9 -5 0 8 -4 24 -9 35 -5
13 -9 14 -9 5z"/>
<path d="M7384 4256 c-3 -8 -4 -23 -2 -33 3 -11 6 -6 9 15 6 34 2 42 -7 18z"/>
<path d="M1347 4253 c-4 -3 -7 -53 -7 -110 0 -80 -4 -108 -15 -120 -8 -8 -12
-20 -8 -26 4 -7 9 -4 14 9 7 19 14 -63 11 -131 -2 -40 20 -145 30 -145 5 0 8
-30 8 -67 -2 -132 14 -213 40 -213 13 0 13 23 1 36 -5 5 -15 77 -21 159 -12
146 -12 153 13 275 14 69 29 134 33 145 5 13 4 17 -3 10 -11 -11 -23 -57 -49
-183 -9 -45 -19 -81 -20 -79 -2 2 -6 102 -10 223 -3 120 -7 220 -8 222 -2 1
-6 -1 -9 -5z"/>
<path d="M1615 4243 c-4 -10 -11 -54 -16 -98 -5 -44 -12 -114 -17 -155 -9 -86
-6 -120 14 -120 17 0 18 -24 2 -53 -15 -29 -28 -97 -17 -97 4 0 9 12 11 28 4
27 8 24 23 -24 11 -33 12 -7 5 96 -5 76 -3 117 7 150 15 51 11 79 -6 35 -25
-67 -30 -71 -24 -20 3 28 16 84 29 125 28 88 29 102 8 75 -16 -19 -16 -19 -11
10 2 17 8 38 12 48 4 9 3 17 -3 17 -5 0 -13 -8 -17 -17z"/>
<path d="M2676 4235 c7 -33 24 -58 24 -34 -1 7 -7 25 -15 39 l-15 25 6 -30z"/>
<path d="M8092 4249 c-13 -5 -35 -18 -49 -29 -14 -11 -37 -20 -50 -20 -13 0
-32 -7 -41 -17 -16 -15 -14 -16 27 -10 24 3 56 14 70 25 15 11 41 23 59 27 28
6 37 2 67 -28 19 -19 43 -37 52 -41 12 -4 10 0 -4 10 -13 9 -23 22 -23 29 0 6
-12 17 -26 24 -19 8 -23 15 -16 24 13 15 -32 19 -66 6z"/>
<path d="M2710 4249 c0 -4 7 -22 15 -40 8 -19 14 -27 14 -19 0 14 -28 72 -29
59z"/>
<path d="M2330 4205 c-6 -15 -8 -30 -6 -33 3 -3 10 8 16 23 6 15 8 30 6 33 -3
3 -10 -8 -16 -23z"/>
<path d="M3727 4173 c6 -52 5 -57 -9 -45 -12 9 -18 10 -23 2 -7 -11 21 -39 38
-40 4 0 7 32 7 70 0 40 -4 70 -10 70 -6 0 -8 -21 -3 -57z"/>
<path d="M2771 4204 c0 -11 3 -14 6 -6 3 7 2 16 -1 19 -3 4 -6 -2 -5 -13z"/>
<path d="M6264 4205 c-17 -13 -16 -14 15 -5 41 11 51 20 25 20 -11 0 -29 -7
-40 -15z"/>
<path d="M1136 4199 c-25 -81 -23 -507 3 -579 5 -14 12 -45 15 -70 17 -147 51
-317 67 -335 10 -10 2 69 -12 125 -5 19 -9 63 -9 98 0 34 -4 62 -9 62 -12 0
-21 72 -23 183 -1 49 -5 90 -9 93 -4 2 1 36 12 74 23 85 23 86 2 69 -15 -13
-15 -11 -9 25 7 36 6 38 -8 26 -9 -7 -18 -11 -21 -9 -2 3 0 58 5 124 8 110 7
149 -4 114z m14 -315 c0 -8 -4 -14 -10 -14 -5 0 -10 9 -10 21 0 11 5 17 10 14
6 -3 10 -13 10 -21z"/>
<path d="M1816 4188 c-4 -9 -14 -14 -22 -11 -10 4 -14 -3 -13 -23 1 -17 3 -22
6 -11 5 20 19 23 26 5 8 -22 19 -1 15 29 -3 22 -6 24 -12 11z"/>
<path d="M6500 4122 c-41 -44 -86 -86 -99 -95 -14 -9 -22 -19 -19 -22 2 -3 16
4 29 16 13 11 36 28 50 36 15 9 33 27 42 42 9 14 32 43 51 64 19 20 32 37 28
37 -4 0 -41 -35 -82 -78z"/>
<path d="M7290 4197 c0 -4 9 -26 21 -49 17 -33 20 -52 15 -102 l-5 -61 13 56
c7 30 16 61 20 67 4 7 3 12 -2 12 -6 0 -22 19 -36 43 -14 23 -25 38 -26 34z"/>
<path d="M1886 4181 c-4 -7 -5 -15 -2 -18 9 -9 19 4 14 18 -4 11 -6 11 -12 0z"/>
<path d="M1977 4177 c-11 -29 -9 -43 4 -30 6 6 9 19 7 29 -3 18 -4 18 -11 1z"/>
<path d="M1740 4153 c0 -14 3 -23 7 -19 10 10 11 46 1 46 -4 0 -8 -12 -8 -27z"/>
<path d="M2291 4146 c-1 -26 2 -37 9 -30 6 6 6 21 1 39 -9 30 -9 30 -10 -9z"/>
<path d="M2781 4164 c0 -11 3 -14 6 -6 3 7 2 16 -1 19 -3 4 -6 -2 -5 -13z"/>
<path d="M6728 4169 c-5 -4 3 -9 19 -12 16 -3 33 0 40 6 10 9 5 12 -18 12 -17
0 -35 -3 -41 -6z"/>
<path d="M2252 4150 c0 -14 2 -19 5 -12 2 6 2 18 0 25 -3 6 -5 1 -5 -13z"/>
<path d="M1689 4148 c-2 -25 3 -53 12 -62 5 -6 9 6 9 32 0 23 -4 42 -10 42 -5
0 -11 -6 -11 -12z"/>
<path d="M8343 4149 c14 -8 22 -8 30 0 8 8 3 11 -18 11 -26 -1 -28 -2 -12 -11z"/>
<path d="M8475 4140 c10 -11 29 -19 44 -19 23 2 23 2 4 6 -12 2 -27 11 -33 19
-7 8 -17 14 -23 14 -5 0 -2 -9 8 -20z"/>
<path d="M2682 4130 c0 -14 3 -34 8 -45 l9 -20 -1 20 c0 11 -4 31 -8 45 l-8
25 0 -25z"/>
<path d="M2983 4100 c0 -30 2 -43 4 -27 2 15 2 39 0 55 -2 15 -4 2 -4 -28z"/>
<path d="M2726 4115 c8 -37 14 -45 14 -19 0 10 -5 26 -10 34 -8 11 -9 7 -4
-15z"/>
<path d="M7179 4095 c-11 -26 -20 -60 -21 -78 0 -18 -6 -68 -14 -111 -8 -44
-12 -81 -10 -83 2 -3 12 22 21 53 14 49 18 55 27 40 6 -10 6 -21 2 -25 -5 -3
-10 -13 -10 -21 -1 -8 -9 -32 -18 -52 -9 -22 -12 -38 -6 -38 5 0 10 5 10 12 0
6 2 9 5 6 3 -3 -9 -32 -26 -66 -18 -34 -29 -68 -25 -77 8 -23 23 -10 32 28 12
57 36 94 68 108 24 11 30 19 28 39 -1 14 7 36 18 50 l21 25 -7 -30 c-3 -16 -8
-38 -11 -47 -2 -10 0 -18 6 -18 5 0 13 16 17 35 3 20 12 42 19 49 19 18 -9 72
-47 92 -16 8 -33 25 -38 37 -6 16 -9 17 -9 5 -1 -17 20 -43 39 -50 10 -3 -9
-81 -24 -95 -5 -4 -6 -3 -3 4 4 6 2 13 -5 15 -8 3 -7 11 5 28 21 31 22 47 1
26 -21 -21 -32 -13 -26 20 3 18 0 30 -11 35 -12 7 -13 16 -5 51 6 24 18 51 26
61 10 12 11 17 3 17 -7 0 -21 -20 -32 -45z m105 -152 c5 -11 1 -22 -10 -30
-22 -16 -23 -14 -17 20 6 31 18 35 27 10z m-91 -88 c-3 -9 -8 -14 -10 -11 -3
3 -2 9 2 15 9 16 15 13 8 -4z m21 -20 c-9 -14 -18 -25 -20 -25 -2 0 2 11 8 25
6 14 15 25 20 25 5 0 1 -11 -8 -25z"/>
<path d="M8240 4134 c0 -5 14 -25 31 -44 l31 -35 -19 33 c-19 35 -43 61 -43
46z"/>
<path d="M2215 4110 c-7 -23 2 -43 16 -35 12 8 12 42 0 50 -5 3 -12 -4 -16
-15z"/>
<path d="M7370 4126 c0 -2 7 -9 15 -16 12 -10 15 -10 15 4 0 9 -7 16 -15 16
-8 0 -15 -2 -15 -4z"/>
<path d="M8560 4120 c8 -5 24 -9 35 -9 l20 0 -20 9 c-11 5 -27 9 -35 9 -13 1
-13 0 0 -9z"/>
<path d="M3457 4050 c7 -96 15 -141 28 -140 13 1 24 42 29 115 4 49 3 53 -4
25 -5 -19 -12 -53 -16 -75 -5 -33 -8 -37 -14 -20 -5 11 -9 40 -10 65 -2 25 -6
59 -10 75 -5 18 -6 1 -3 -45z"/>
<path d="M6540 4100 c-6 -11 -8 -20 -6 -20 3 0 10 9 16 20 6 11 8 20 6 20 -3
0 -10 -9 -16 -20z"/>
<path d="M7420 4089 c7 -11 14 -19 16 -16 7 7 -7 37 -17 37 -6 0 -5 -9 1 -21z"/>
<path d="M3053 4065 c0 -22 2 -30 4 -17 2 12 2 30 0 40 -3 9 -5 -1 -4 -23z"/>
<path d="M3432 4070 c0 -19 2 -27 5 -17 2 9 2 25 0 35 -3 9 -5 1 -5 -18z"/>
<path d="M2146 4074 c-8 -21 -8 -24 3 -24 5 0 11 9 14 20 6 24 -8 27 -17 4z"/>
<path d="M2770 4074 c0 -10 5 -26 10 -34 8 -11 9 -7 4 15 -8 37 -14 45 -14 19z"/>
<path d="M8140 4070 c6 -12 8 -31 4 -43 -6 -21 -5 -21 12 -5 16 15 16 20 4 43
-7 14 -17 25 -22 25 -5 0 -4 -9 2 -20z"/>
<path d="M1698 4048 c-21 -17 -33 -74 -18 -83 18 -11 37 15 43 58 6 39 1 45
-25 25z"/>
<path d="M2670 4025 c0 -19 4 -35 8 -35 4 0 6 16 4 35 -2 19 -6 35 -8 35 -2 0
-4 -16 -4 -35z"/>
<path d="M7756 4045 c-3 -9 -6 -26 -5 -38 1 -14 4 -9 9 13 9 37 7 52 -4 25z"/>
<path d="M1837 4043 c-10 -10 -8 -101 2 -108 5 -3 10 21 10 55 0 61 -1 65 -12
53z"/>
<path d="M2810 4031 c0 -13 5 -19 14 -15 18 7 30 -12 21 -34 -6 -15 -8 -15
-16 3 -6 14 -7 6 -3 -25 11 -86 14 -269 4 -275 -6 -4 -8 -36 -4 -83 7 -96 -19
-215 -70 -319 -20 -40 -36 -74 -36 -77 0 -3 -15 -31 -34 -63 -27 -45 -37 -77
-46 -143 -6 -47 -17 -107 -25 -135 -7 -27 -13 -87 -13 -132 1 -74 -2 -85 -25
-113 -14 -16 -28 -27 -30 -23 -4 7 -15 173 -23 348 -3 66 -12 107 -23 101 -4
-3 -3 -44 1 -93 3 -48 9 -133 13 -188 3 -55 8 -119 11 -142 4 -36 1 -49 -21
-78 -15 -19 -25 -40 -22 -47 4 -8 6 -6 6 5 1 24 21 22 21 -2 0 -26 -39 -91
-53 -91 -35 1 -45 45 -31 133 8 46 -11 50 -21 5 -18 -89 -17 -117 5 -153 23
-38 40 -44 60 -20 7 9 21 13 35 9 15 -4 24 0 28 10 4 11 1 13 -10 9 -13 -5
-11 1 7 28 38 54 89 109 94 101 8 -14 10 -111 2 -119 -4 -5 -22 -13 -39 -20
-30 -11 -31 -12 -9 -19 12 -3 22 -10 22 -15 0 -12 -14 -11 -26 1 -8 8 -15 6
-25 -6 -12 -14 -13 -105 -10 -565 3 -543 3 -547 -17 -553 -12 -4 -26 -22 -32
-41 -14 -42 -35 -47 -27 -8 5 26 4 27 -9 8 -8 -11 -18 -31 -21 -45 -3 -14 -14
-41 -25 -60 -10 -19 -18 -40 -18 -45 0 -6 -8 -20 -17 -31 -25 -28 -74 -126
-67 -133 4 -3 9 -1 11 6 2 6 13 21 24 34 l19 22 1 -34 c1 -31 2 -32 8 -9 7 23
8 22 15 -15 4 -22 8 -71 7 -110 0 -38 4 -77 9 -85 6 -10 8 0 6 33 -4 49 2 61
27 51 11 -4 14 -21 11 -77 -2 -51 -1 -63 5 -42 5 17 9 58 10 91 1 60 1 61 -24
56 -30 -5 -32 -1 -40 103 l-6 80 36 39 c19 22 35 44 35 49 0 8 42 67 72 101 4
6 7 -10 7 -35 -1 -24 -4 -34 -6 -21 -2 12 -9 22 -15 22 -6 0 -8 -19 -4 -53 8
-69 8 -77 5 -184 -2 -63 1 -97 9 -105 7 -7 12 -36 12 -65 0 -29 3 -53 8 -53 4
0 5 38 3 85 -2 69 0 84 10 80 11 -4 13 11 11 77 -4 97 6 228 18 228 4 0 11
-15 14 -33 3 -18 15 -50 25 -70 15 -29 17 -45 10 -79 -4 -24 -8 -65 -7 -93 0
-47 1 -45 9 20 5 39 11 81 14 94 10 41 18 13 16 -56 -1 -38 2 -74 7 -81 5 -7
7 11 4 44 -3 41 -2 55 7 50 6 -4 11 -15 11 -25 0 -20 19 -41 37 -41 7 0 13 8
13 18 0 10 13 57 29 105 17 48 26 87 22 87 -4 0 -17 -33 -30 -72 -34 -110 -32
-106 -41 -82 -15 38 32 237 115 489 46 137 64 180 51 120 -28 -131 -46 -239
-43 -248 2 -7 9 20 16 58 19 102 59 268 87 359 14 43 22 81 19 84 -3 3 -6 3
-8 1 -5 -9 -49 -136 -54 -159 -3 -14 -9 -27 -12 -30 -7 -6 -39 -90 -56 -150
-7 -25 -20 -62 -29 -83 -20 -45 -86 -287 -93 -339 -3 -21 -9 -35 -14 -32 -12
7 -11 60 1 98 5 17 18 65 29 106 15 61 64 206 116 345 6 14 5 17 -3 10 -16
-15 -132 -339 -132 -368 0 -30 -32 -117 -41 -112 -5 4 -7 11 -4 16 3 5 13 55
21 111 33 224 88 458 117 496 5 7 7 15 4 18 -8 9 -37 -52 -59 -125 -23 -76
-40 -169 -64 -331 -9 -63 -19 -121 -23 -128 -8 -14 -34 39 -45 91 -4 15 -12
27 -20 27 -10 0 -11 11 -4 53 5 28 8 278 8 554 l0 502 25 27 c28 30 31 57 13
115 -7 25 -8 46 -2 58 9 19 232 260 268 290 11 9 36 31 58 50 21 18 38 29 38
23 0 -6 3 -19 7 -29 6 -16 5 -17 -12 -3 -17 14 -18 13 -9 -15 5 -16 8 -101 6
-187 -1 -102 1 -158 8 -158 5 0 10 10 11 23 2 86 10 206 14 225 3 12 2 30 -3
40 -4 9 -5 40 -2 67 l6 50 16 -38 c10 -21 18 -55 20 -75 1 -20 5 -39 9 -42 24
-17 17 -220 -7 -245 -15 -15 -19 -45 -6 -45 4 0 18 20 30 45 26 54 30 178 9
290 -15 78 -29 109 -64 144 -28 28 -44 23 -105 -34 -20 -19 -41 -35 -47 -35
-6 0 -11 -4 -11 -9 0 -5 -9 -13 -20 -16 -20 -6 -212 -196 -206 -203 4 -3 59
44 148 127 32 30 72 63 89 73 l32 20 -28 -34 c-62 -74 -106 -118 -119 -118 -7
0 -31 -21 -52 -47 -21 -27 -47 -57 -57 -68 -11 -11 -30 -34 -44 -52 -13 -17
-30 -30 -37 -27 -6 2 -22 -9 -35 -27 -12 -17 -25 -28 -27 -26 -10 9 38 81 80
121 l44 41 -8 85 c-8 87 -6 139 10 200 5 19 14 58 20 85 7 28 30 88 52 135 23
47 51 108 64 135 29 61 64 188 64 232 0 17 5 35 10 38 6 4 8 16 4 28 -4 12 -8
76 -9 142 -1 66 -5 142 -10 169 -7 40 -6 48 6 44 8 -2 15 -14 17 -26 4 -27 22
-29 22 -3 0 11 3 27 6 35 5 12 2 15 -10 10 -11 -4 -16 0 -16 14 0 11 -13 30
-30 42 -30 21 -30 21 -30 1z m218 -1070 c3 -8 -1 -12 -9 -9 -8 3 -22 -1 -32
-10 -24 -21 -34 -6 -12 18 20 23 46 23 53 1z m-73 -51 c-3 -5 -11 -10 -16 -10
-6 0 -7 5 -4 10 3 6 11 10 16 10 6 0 7 -4 4 -10z m-404 -423 c-38 -52 -76 -90
-56 -56 35 57 86 121 93 115 2 -3 -15 -29 -37 -59z m49 -197 c0 -8 -5 -22 -10
-30 -8 -13 -10 -12 -10 4 0 12 -5 16 -15 12 -16 -6 -18 -4 -10 16 7 19 45 17
45 -2z m-36 -95 c-4 -8 -8 -15 -10 -15 -2 0 -4 7 -4 15 0 8 4 15 10 15 5 0 7
-7 4 -15z m23 -67 c-3 -7 -5 -2 -5 12 0 14 2 19 5 13 2 -7 2 -19 0 -25z m-17
-38 c0 -5 -4 -10 -10 -10 -5 0 -10 5 -10 10 0 6 5 10 10 10 6 0 10 -4 10 -10z
m7 -77 c2 -6 -3 -13 -12 -16 -10 -5 -15 0 -15 14 0 21 21 22 27 2z m13 -124
c0 -6 -4 -7 -10 -4 -5 3 -10 11 -10 16 0 6 5 7 10 4 6 -3 10 -11 10 -16z m-6
-36 c-5 -5 -12 -12 -16 -18 -4 -6 -8 -2 -8 8 0 9 7 17 17 17 9 0 12 -3 7 -7z
m10 -68 l7 -40 -15 28 c-8 15 -13 34 -9 43 7 20 9 16 17 -31z m-4 -65 c0 -5
-4 -10 -10 -10 -5 0 -10 5 -10 10 0 6 5 10 10 10 6 0 10 -4 10 -10z m-3 -252
c-3 -8 -6 -5 -6 6 -1 11 2 17 5 13 3 -3 4 -12 1 -19z m0 -110 c-3 -7 -5 -2 -5
12 0 14 2 19 5 13 2 -7 2 -19 0 -25z m-20 -110 c-3 -7 -5 -2 -5 12 0 14 2 19
5 13 2 -7 2 -19 0 -25z m-30 -40 c-3 -8 -6 -5 -6 6 -1 11 2 17 5 13 3 -3 4
-12 1 -19z m57 -4 c4 -9 4 -19 2 -21 -8 -8 -26 8 -26 23 0 19 16 18 24 -2z
m-148 -110 c-4 -9 -9 -15 -11 -12 -3 3 -3 13 1 22 4 9 9 15 11 12 3 -3 3 -13
-1 -22z m204 -4 c0 -5 -2 -10 -4 -10 -3 0 -8 5 -11 10 -3 6 -1 10 4 10 6 0 11
-4 11 -10z"/>
<path d="M6654 4034 c-18 -14 -18 -15 4 -4 12 6 22 13 22 15 0 8 -5 6 -26 -11z"/>
<path d="M7832 4017 c-1 -21 -6 -36 -10 -33 -11 7 -38 -11 -29 -20 4 -4 17 -3
29 2 13 6 41 10 63 10 33 -1 40 -5 46 -26 6 -23 7 -23 8 8 1 17 -2 31 -6 31
-5 -1 -20 -1 -35 0 -23 1 -28 6 -28 27 0 14 -4 23 -9 20 -5 -3 -7 -15 -4 -26
3 -11 1 -20 -5 -20 -6 0 -13 15 -15 33 -4 31 -4 31 -5 -6z"/>
<path d="M2722 3994 c-3 -75 9 -174 21 -174 5 0 6 15 2 38 -5 20 -11 71 -15
112 -6 65 -7 68 -8 24z"/>
<path d="M7891 4024 c0 -11 3 -14 6 -6 3 7 2 16 -1 19 -3 4 -6 -2 -5 -13z"/>
<path d="M1936 4008 c-2 -7 -11 -37 -20 -67 -9 -29 -16 -61 -16 -70 -1 -10 -7
-5 -16 13 -20 36 -37 17 -22 -25 21 -61 51 -42 63 38 10 71 17 80 29 42 6 -19
18 -34 26 -34 8 0 21 -4 28 -8 15 -10 17 30 2 53 -8 13 -11 12 -25 -5 -16 -19
-16 -18 -12 22 4 31 1 43 -10 47 -21 8 -23 8 -27 -6z"/>
<path d="M2096 4005 c-3 -9 0 -15 9 -15 8 0 15 7 15 15 0 8 -4 15 -9 15 -5 0
-11 -7 -15 -15z"/>
<path d="M3061 3998 c-1 -14 -6 -28 -12 -30 -5 -2 -13 -23 -16 -47 l-6 -44
-14 27 c-8 15 -15 43 -16 62 -2 37 -17 48 -17 12 0 -29 23 -95 38 -110 8 -8
14 -4 22 16 5 15 10 36 10 46 0 28 18 34 23 8 3 -17 4 -16 5 7 0 17 -4 41 -8
55 l-8 25 -1 -27z"/>
<path d="M7723 3985 c0 -22 2 -30 4 -17 2 12 2 30 0 40 -3 9 -5 -1 -4 -23z"/>
<path d="M2220 3986 c-15 -41 -10 -56 6 -17 8 18 13 36 10 39 -3 2 -10 -7 -16
-22z"/>
<path d="M2281 3983 c0 -10 4 -27 9 -38 7 -16 9 -13 9 18 1 20 -3 37 -9 37 -5
0 -10 -8 -9 -17z"/>
<path d="M6989 3983 c-17 -20 -43 -113 -34 -121 3 -3 5 3 5 14 0 16 2 17 10 4
5 -8 10 -44 10 -80 0 -43 -3 -60 -9 -51 -7 11 -11 4 -16 -25 -4 -21 -11 -50
-16 -64 -5 -14 -5 -38 -1 -55 8 -29 9 -28 16 19 10 61 25 96 43 96 8 0 12 4 9
8 -3 5 -10 50 -16 100 -13 101 -3 157 28 165 14 4 15 5 1 6 -9 0 -22 -7 -30
-16z"/>
<path d="M1729 3938 c-2 -24 -1 -58 2 -74 4 -22 7 -15 10 31 3 33 2 66 -2 74
-4 8 -8 -4 -10 -31z"/>
<path d="M3580 3946 c0 -18 -3 -48 -6 -66 -9 -42 -23 -20 -25 40 -2 40 -3 41
-6 11 -6 -49 5 -101 22 -101 16 0 22 20 28 98 2 28 0 52 -4 52 -5 0 -9 -15 -9
-34z"/>
<path d="M6490 3976 c0 -2 7 -20 15 -39 14 -35 7 -56 -14 -43 -5 3 -26 -1 -46
-10 -31 -13 -39 -13 -46 -2 -7 10 -9 8 -9 -6 0 -14 5 -17 23 -12 12 4 45 11
72 17 43 8 51 7 60 -7 28 -47 43 -59 56 -46 11 10 10 12 -3 12 -8 0 -21 13
-28 30 -7 16 -23 42 -36 57 -13 16 -24 34 -24 41 0 6 -4 12 -10 12 -5 0 -10
-2 -10 -4z"/>
<path d="M6590 3958 c0 -19 2 -20 10 -8 13 19 13 30 0 30 -5 0 -10 -10 -10
-22z"/>
<path d="M2652 3950 c0 -14 2 -19 5 -12 2 6 2 18 0 25 -3 6 -5 1 -5 -13z"/>
<path d="M2960 3955 c0 -8 -6 -15 -14 -15 -9 0 -12 -8 -8 -25 8 -42 32 -31 32
15 0 22 -2 40 -5 40 -3 0 -5 -7 -5 -15z"/>
<path d="M8106 3952 c23 -23 97 -29 207 -16 92 10 73 19 -41 20 -59 0 -124 3
-144 6 -34 5 -36 4 -22 -10z"/>
<path d="M2055 3950 c-3 -5 -2 -10 4 -10 5 0 13 5 16 10 3 6 2 10 -4 10 -5 0
-13 -4 -16 -10z"/>
<path d="M3273 3920 c0 -25 2 -35 4 -22 2 12 2 32 0 45 -2 12 -4 2 -4 -23z"/>
<path d="M8420 3950 c8 -5 24 -10 34 -10 26 0 18 6 -19 14 -22 5 -26 4 -15 -4z"/>
<path d="M8725 3950 c3 -5 8 -10 11 -10 2 0 4 5 4 10 0 6 -5 10 -11 10 -5 0
-7 -4 -4 -10z"/>
<path d="M3423 3868 c1 -46 -1 -114 -5 -153 -6 -53 -5 -64 3 -45 15 36 25 265
11 274 -7 4 -10 -20 -9 -76z"/>
<path d="M7686 3907 c3 -26 12 -64 21 -85 25 -60 124 -175 138 -160 2 2 -21
36 -51 76 -63 85 -84 122 -101 177 l-13 40 6 -48z"/>
<path d="M7951 3934 c0 -11 3 -14 6 -6 3 7 2 16 -1 19 -3 4 -6 -2 -5 -13z"/>
<path d="M8648 3943 c12 -2 32 -2 45 0 12 2 2 4 -23 4 -25 0 -35 -2 -22 -4z"/>
<path d="M3700 3873 c-3 -95 -1 -88 -31 -112 -30 -23 -39 -19 -40 18 0 14 -5
35 -10 46 -6 15 -8 8 -5 -25 5 -69 23 -99 41 -70 4 6 15 8 25 5 15 -5 19 3 27
59 5 36 6 85 2 108 -6 39 -7 36 -9 -29z"/>
<path d="M8555 3924 c16 -8 37 -22 46 -30 8 -8 19 -14 24 -14 4 0 -9 14 -30
30 -21 17 -45 30 -54 30 -9 0 -3 -7 14 -16z"/>
<path d="M8794 3914 c4 -16 20 -55 37 -86 l29 -57 -18 -68 c-21 -76 -17 -171
12 -233 l15 -35 1 35 c0 19 -7 53 -16 77 -14 37 -15 52 -4 115 24 142 24 140
-10 206 -35 70 -57 91 -46 46z"/>
<path d="M2765 3901 c3 -18 5 -48 5 -66 0 -21 5 -32 15 -32 9 0 15 10 15 24 0
13 -4 23 -10 23 -5 0 -10 10 -11 23 0 12 -5 31 -10 42 -7 16 -8 12 -4 -14z"/>
<path d="M3308 3875 c-1 -30 0 -55 5 -55 4 0 7 25 7 55 0 71 -7 71 -12 0z"/>
<path d="M8367 3924 c-11 -11 -9 -18 11 -40 69 -76 112 -153 112 -202 0 -16 7
-45 15 -63 16 -34 16 -34 10 -4 -4 17 -10 55 -14 85 -8 60 -36 115 -86 170
-18 19 -34 41 -36 48 -3 7 -8 10 -12 6z"/>
<path d="M6921 3898 c-5 -13 -12 -38 -16 -57 -5 -22 -10 -29 -15 -21 -12 20
-22 -42 -12 -71 8 -22 10 -20 20 26 7 28 18 71 26 98 15 47 13 66 -3 25z m-34
-120 c-3 -8 -6 -5 -6 6 -1 11 2 17 5 13 3 -3 4 -12 1 -19z"/>
<path d="M7892 3900 c0 -14 2 -19 5 -12 2 6 2 18 0 25 -3 6 -5 1 -5 -13z"/>
<path d="M2209 3890 c-2 -32 -5 -71 -14 -145 -9 -81 28 -290 56 -319 5 -6 9
-18 9 -28 0 -27 48 -159 64 -177 36 -42 59 -154 71 -347 13 -212 18 -260 26
-268 5 -5 11 -7 14 -5 15 16 -38 532 -58 557 -5 7 -16 36 -23 65 -7 28 -24 84
-37 122 -18 51 -28 111 -37 217 -7 81 -16 145 -21 142 -5 -3 -9 6 -9 20 0 14
-4 27 -9 30 -5 3 -8 35 -8 71 0 38 -4 70 -11 77 -9 9 -12 6 -13 -12z m25 -242
c4 -46 10 -94 13 -108 4 -17 2 -22 -5 -15 -22 21 -45 224 -23 211 4 -3 11 -43
15 -88z m23 -70 c-3 -7 -5 -2 -5 12 0 14 2 19 5 13 2 -7 2 -19 0 -25z"/>
<path d="M3085 3855 c6 -25 16 -50 22 -56 13 -13 33 -4 33 17 0 8 5 14 10 14
6 0 10 9 10 21 0 26 -24 20 -28 -7 -8 -40 -22 -36 -34 9 -7 26 -15 47 -19 47
-3 0 -1 -20 6 -45z"/>
<path d="M7872 3880 c0 -14 2 -19 5 -12 2 6 2 18 0 25 -3 6 -5 1 -5 -13z"/>
<path d="M6203 3882 c-13 -2 -23 -8 -23 -14 0 -6 11 -8 25 -6 17 4 25 1 25 -8
0 -8 -9 -14 -20 -14 -15 0 -102 -39 -149 -67 -2 -2 -2 -5 0 -8 6 -6 89 35 107
52 7 7 24 13 37 13 13 0 35 4 48 9 43 17 38 0 -20 -68 l-56 -66 71 72 71 72
107 -36 c71 -23 118 -33 138 -29 79 14 103 20 124 34 12 8 22 19 22 24 0 5
-11 1 -25 -10 -14 -11 -34 -18 -44 -15 -10 3 -30 -2 -43 -11 -21 -14 -30 -14
-83 -1 -33 8 -89 24 -125 35 -36 12 -83 22 -104 21 -21 -1 -44 5 -50 12 -6 7
-21 11 -33 9z"/>
<path d="M1668 3874 c-12 -12 -9 -74 3 -74 7 0 10 -14 7 -35 -2 -19 0 -35 4
-35 4 0 8 10 9 23 1 21 1 21 9 -3 5 -14 11 -41 14 -60 10 -57 21 -68 45 -46
12 11 21 29 21 40 0 12 7 34 15 50 8 15 15 37 15 49 0 19 1 20 20 2 28 -25 32
-16 13 28 -18 38 -31 47 -37 25 -2 -7 -14 -50 -26 -95 -13 -46 -26 -83 -31
-83 -7 0 -21 38 -34 95 -4 16 -11 32 -16 36 -5 3 -13 25 -17 48 -4 23 -10 39
-14 35z"/>
<path d="M7936 3826 c-22 -28 -49 -49 -68 -54 -18 -4 -33 -13 -36 -20 -6 -20
55 11 94 47 19 18 34 36 34 41 0 5 16 6 35 3 23 -4 35 -2 35 6 0 6 -6 11 -14
11 -8 0 -21 2 -29 5 -8 4 -28 -11 -51 -39z"/>
<path d="M8080 3867 c0 -9 64 -133 71 -137 4 -3 19 -21 32 -40 13 -19 38 -55
55 -80 56 -78 99 -144 115 -175 9 -16 16 -26 17 -22 0 15 -40 83 -109 182 -38
55 -93 139 -122 188 -45 77 -59 96 -59 84z"/>
<path d="M8620 3852 c0 -5 7 -15 15 -22 10 -8 15 -9 15 -2 0 6 25 0 56 -14 31
-14 62 -23 68 -21 6 2 -7 10 -29 17 -22 7 -52 21 -67 32 -18 12 -28 15 -28 7
0 -9 -4 -8 -15 1 -8 7 -15 8 -15 2z"/>
<path d="M6936 3831 c-4 -7 -5 -15 -2 -18 9 -9 19 4 14 18 -4 11 -6 11 -12 0z"/>
<path d="M7068 3805 c-38 -35 -48 -67 -27 -81 8 -5 10 1 7 20 -4 19 0 29 12
36 14 8 57 61 48 60 -2 0 -20 -16 -40 -35z"/>
<path d="M3484 3715 c0 -66 1 -92 3 -57 2 34 2 88 0 120 -2 31 -3 3 -3 -63z"/>
<path d="M3302 3780 c0 -14 2 -19 5 -12 2 6 2 18 0 25 -3 6 -5 1 -5 -13z"/>
<path d="M2764 3765 c3 -16 9 -41 12 -55 3 -14 11 -56 19 -95 9 -48 13 -59 14
-35 0 43 -31 196 -43 207 -5 4 -5 -5 -2 -22z"/>
<path d="M2807 3745 c3 -27 7 -52 9 -54 7 -8 2 54 -6 79 -6 17 -7 9 -3 -25z"/>
<path d="M6916 3775 c-9 -26 -7 -32 5 -12 6 10 9 21 6 23 -2 3 -7 -2 -11 -11z"/>
<path d="M8082 3758 c-1 -20 -5 -45 -8 -55 -5 -17 -5 -17 6 0 6 9 9 34 7 55
l-4 37 -1 -37z"/>
<path d="M7934 3765 c-3 -8 -4 -20 -2 -27 3 -7 7 -1 10 15 6 29 1 36 -8 12z"/>
<path d="M6510 3740 c-6 -11 -21 -20 -33 -20 -12 -1 -35 -12 -52 -26 -16 -14
-25 -24 -20 -22 13 5 67 28 84 37 15 8 47 51 38 51 -4 0 -11 -9 -17 -20z"/>
<path d="M3532 3700 c0 -19 2 -27 5 -17 2 9 2 25 0 35 -3 9 -5 1 -5 -18z"/>
<path d="M8511 3714 c0 -11 3 -14 6 -6 3 7 2 16 -1 19 -3 4 -6 -2 -5 -13z"/>
<path d="M6631 3663 c-82 -94 -137 -173 -282 -408 -113 -182 -154 -259 -179
-340 -12 -38 -27 -80 -33 -92 -13 -29 -2 -42 12 -15 6 11 25 62 42 113 17 51
42 109 55 130 13 21 24 41 24 44 0 10 72 117 76 113 4 -5 -12 -140 -22 -178
-5 -17 -3 -22 4 -15 6 6 12 21 14 35 2 17 8 24 20 22 15 -2 16 0 1 28 -13 27
-13 39 -3 78 18 69 37 118 64 160 12 20 26 48 31 61 4 13 15 33 25 45 10 11
27 32 38 46 27 34 33 24 20 -34 -8 -39 -7 -59 7 -105 10 -31 22 -60 27 -66 11
-12 -1 72 -14 98 -5 9 -6 51 -2 93 7 74 8 78 63 143 79 93 85 101 73 101 -6 0
-33 -26 -61 -57z"/>
<path d="M7950 3700 c0 -5 5 -10 11 -10 5 0 7 5 4 10 -3 6 -8 10 -11 10 -2 0
-4 -4 -4 -10z"/>
<path d="M1217 3670 c-9 -40 2 -87 20 -95 13 -4 15 1 9 32 -3 21 -6 50 -6 66
0 36 -16 35 -23 -3z"/>
<path d="M3597 3570 c-3 -74 -9 -151 -12 -170 -5 -30 -4 -32 5 -11 18 42 33
212 23 266 -9 45 -10 37 -16 -85z"/>
<path d="M7930 3683 c0 -10 -3 -28 -6 -40 -4 -13 -2 -23 2 -23 5 0 10 18 12
40 1 22 0 40 -3 40 -3 0 -5 -8 -5 -17z"/>
<path d="M8115 3689 c-9 -28 -26 -112 -22 -116 5 -5 36 121 31 126 -2 2 -6 -2
-9 -10z"/>
<path d="M2744 3659 c3 -19 10 -60 15 -93 12 -71 23 -87 17 -23 -8 87 -18 137
-28 144 -7 4 -8 -6 -4 -28z"/>
<path d="M8056 3653 c-4 -16 -9 -37 -13 -48 -3 -13 -2 -17 5 -10 10 10 26 85
19 85 -3 0 -8 -12 -11 -27z"/>
<path d="M8535 3670 c3 -5 14 -10 24 -10 10 0 34 -19 55 -41 20 -23 39 -39 42
-36 10 10 -84 97 -106 97 -12 0 -18 -4 -15 -10z"/>
<path d="M7760 3650 c-6 -11 -26 -26 -45 -34 -31 -13 -105 -84 -114 -110 -2
-6 14 6 37 26 22 20 55 44 73 53 31 16 78 63 79 78 0 15 -20 6 -30 -13z"/>
<path d="M3523 3615 c0 -27 2 -38 4 -22 2 15 2 37 0 50 -2 12 -4 0 -4 -28z"/>
<path d="M6529 3594 c-30 -37 -70 -89 -90 -114 -38 -49 -139 -232 -139 -251 0
-18 41 47 88 139 23 45 73 120 112 165 38 45 70 87 70 94 0 6 6 13 13 16 6 2
9 7 6 11 -4 4 -31 -23 -60 -60z"/>
<path d="M6793 3603 c-9 -48 -8 -54 3 -38 8 10 14 29 14 41 0 12 3 29 6 38 3
9 2 16 -3 16 -5 0 -14 -26 -20 -57z"/>
<path d="M6650 3635 c-6 -8 -14 -34 -17 -57 -2 -24 -11 -60 -19 -80 -15 -40
-10 -54 6 -15 l9 22 0 -22 c1 -12 -3 -25 -9 -28 -5 -3 -10 -14 -10 -23 1 -12
5 -10 15 8 8 14 14 20 15 14 0 -13 -26 -105 -41 -142 -12 -30 -11 -52 1 -52 6
0 10 9 10 20 0 11 11 44 24 74 14 30 22 64 19 76 -3 11 0 27 7 35 9 11 9 21 0
47 -12 32 -8 65 15 121 9 21 -8 23 -25 2z m-3 -167 c-3 -8 -6 -5 -6 6 -1 11 2
17 5 13 3 -3 4 -12 1 -19z"/>
<path d="M8161 3634 c0 -11 3 -14 6 -6 3 7 2 16 -1 19 -3 4 -6 -2 -5 -13z"/>
<path d="M1076 3631 c-4 -6 -3 -28 3 -48 5 -21 13 -69 17 -108 6 -62 26 -135
37 -135 2 0 0 19 -4 43 -5 23 -16 89 -24 147 -17 111 -19 117 -29 101z"/>
<path d="M7230 3637 c0 -4 6 -20 14 -35 7 -15 14 -54 15 -86 2 -75 11 -88 11
-16 0 48 1 51 17 39 15 -13 15 -12 4 6 -7 11 -23 38 -36 60 -14 22 -25 36 -25
32z"/>
<path d="M8123 3588 c-7 -29 -15 -64 -18 -78 -5 -19 -4 -21 4 -10 5 8 13 33
17 55 l8 40 7 -30 7 -30 0 35 c1 66 -13 76 -25 18z"/>
<path d="M2726 3575 c8 -67 7 -141 -2 -197 -4 -24 -2 -38 5 -38 6 0 11 10 11
23 0 12 9 40 20 62 11 22 20 46 19 55 0 8 -6 1 -12 -17 -19 -50 -22 -46 -24
35 -1 43 -7 91 -12 107 -9 24 -10 19 -5 -30z"/>
<path d="M8174 3564 c-1 -25 2 -40 7 -33 4 7 10 -6 14 -34 5 -30 11 -44 19
-41 16 6 8 66 -10 77 -8 4 -14 24 -14 42 0 52 -15 42 -16 -11z"/>
<path d="M3402 3580 c0 -14 2 -19 5 -12 2 6 2 18 0 25 -3 6 -5 1 -5 -13z"/>
<path d="M3422 3575 c0 -16 2 -22 5 -12 2 9 2 23 0 30 -3 6 -5 -1 -5 -18z"/>
<path d="M6973 3570 c-13 -5 -23 -14 -23 -19 0 -7 9 -6 25 1 14 6 25 15 25 20
0 9 2 9 -27 -2z"/>
<path d="M3392 3530 c0 -14 2 -19 5 -12 2 6 2 18 0 25 -3 6 -5 1 -5 -13z"/>
<path d="M6833 3516 c1 -24 8 -41 16 -44 9 -3 11 0 6 8 -5 7 -12 27 -16 44 -7
29 -8 29 -6 -8z"/>
<path d="M6755 3507 c-18 -43 -18 -47 -5 -47 6 0 10 10 10 23 0 13 5 28 12 35
6 6 9 15 5 18 -4 4 -14 -9 -22 -29z"/>
<path d="M6280 3511 c-31 -10 -90 -40 -90 -46 0 -3 24 5 53 16 34 14 65 19 90
16 40 -6 51 7 15 17 -27 7 -35 7 -68 -3z"/>
<path d="M7150 3509 c0 -16 56 -109 65 -109 3 0 -9 26 -27 58 -38 69 -38 69
-38 51z"/>
<path d="M7310 3516 c0 -5 12 -22 27 -40 14 -17 39 -58 54 -91 23 -49 27 -54
22 -25 -3 19 -17 49 -30 66 -12 17 -23 35 -23 41 0 5 -11 20 -25 33 -14 13
-25 20 -25 16z"/>
<path d="M2697 3420 c6 -123 11 -138 12 -30 0 47 -4 94 -8 105 -5 11 -6 -23
-4 -75z"/>
<path d="M3411 3494 c0 -11 3 -14 6 -6 3 7 2 16 -1 19 -3 4 -6 -2 -5 -13z"/>
<path d="M7829 3488 c-6 -13 -23 -35 -37 -50 -14 -15 -23 -30 -20 -33 6 -6 78
83 78 97 0 15 -9 8 -21 -14z"/>
<path d="M2674 3405 c0 -55 1 -76 3 -47 2 29 2 74 0 100 -2 26 -3 2 -3 -53z"/>
<path d="M3499 3483 c-3 -70 -1 -135 5 -140 3 -3 6 18 7 48 0 30 2 66 3 82 1
15 -2 27 -6 27 -4 0 -8 -8 -9 -17z"/>
<path d="M6091 3491 c-9 -6 -5 -10 14 -15 33 -9 44 -1 18 12 -11 6 -25 7 -32
3z"/>
<path d="M8054 3485 c-4 -9 7 -30 25 -50 20 -23 31 -46 31 -65 0 -17 4 -30 9
-30 5 0 19 -24 31 -52 13 -29 25 -47 27 -41 8 21 -18 83 -38 93 -12 7 -19 21
-19 40 0 18 -11 42 -31 64 -17 20 -28 40 -24 46 3 5 4 10 0 10 -3 0 -8 -7 -11
-15z"/>
<path d="M8154 3463 c-4 -19 -4 -37 0 -40 3 -4 6 1 6 11 0 9 7 27 15 40 13 20
13 23 0 23 -9 0 -17 -14 -21 -34z"/>
<path d="M8453 3466 c15 -14 40 -28 55 -31 15 -3 41 -9 57 -13 l30 -8 11 -107
c6 -59 15 -111 19 -115 6 -6 4 25 -10 176 -6 60 17 56 90 -18 33 -33 63 -60
68 -60 5 0 4 7 -3 15 -6 8 -9 19 -5 25 3 5 2 10 -4 10 -5 0 -31 16 -57 36 -45
35 -126 66 -168 65 -11 0 -40 11 -65 25 l-46 26 28 -26z"/>
<path d="M8615 3480 c3 -5 16 -10 28 -9 21 0 21 1 2 9 -28 12 -37 12 -30 0z"/>
<path d="M6908 3452 c-26 -44 -61 -79 -87 -87 -22 -7 -23 -5 -18 21 3 16 8 40
12 54 5 19 1 17 -14 -10 -19 -33 -20 -34 -22 -10 -1 21 -2 19 -9 -10 -5 -22
-5 -40 2 -48 6 -7 9 -14 7 -15 -39 -26 -91 -57 -100 -59 -7 -2 -16 8 -20 22
-7 25 -7 25 -8 -4 -1 -42 -109 -171 -151 -181 -27 -7 -130 -102 -130 -121 0
-6 -33 -45 -72 -86 -68 -70 -85 -93 -142 -187 -36 -61 3 -22 51 51 25 38 77
100 114 136 38 37 69 72 69 79 0 21 65 84 109 106 25 12 54 27 64 32 10 6 32
34 49 63 23 42 42 59 86 83 32 16 71 38 87 49 17 10 38 19 47 19 22 1 54 35
80 84 23 45 20 59 -4 19z"/>
<path d="M1230 3434 c0 -21 5 -46 10 -54 8 -11 10 -2 7 32 -4 59 -17 76 -17
22z"/>
<path d="M6102 3401 c-32 -32 -82 -71 -112 -86 -30 -16 -50 -30 -43 -32 7 -3
29 7 49 21 21 14 41 23 45 20 4 -2 28 20 54 51 26 30 55 57 66 60 10 4 19 11
19 16 0 21 -25 5 -78 -50z"/>
<path d="M8280 3445 c0 -8 4 -15 10 -15 5 0 7 7 4 15 -4 8 -8 15 -10 15 -2 0
-4 -7 -4 -15z"/>
<path d="M6241 3424 c-7 -16 -8 -31 -3 -36 6 -6 12 4 16 23 8 41 3 46 -13 13z"/>
<path d="M6376 3441 c-4 -7 -5 -15 -2 -18 9 -9 19 4 14 18 -4 11 -6 11 -12 0z"/>
<path d="M3647 3426 c-4 -10 -7 -34 -6 -54 l1 -37 9 45 c10 48 7 75 -4 46z"/>
<path d="M6676 3395 c-23 -54 -18 -68 5 -16 11 24 17 46 15 49 -3 2 -12 -13
-20 -33z"/>
<path d="M8170 3427 c0 -4 9 -25 20 -47 11 -22 20 -45 20 -52 0 -20 21 -90 26
-86 10 10 -29 155 -47 173 -10 11 -19 16 -19 12z"/>
<path d="M8326 3378 c19 -73 18 -124 -3 -138 -11 -7 -12 -10 -4 -7 29 7 35 33
25 113 -5 42 -14 79 -20 81 -8 3 -7 -12 2 -49z"/>
<path d="M6596 3384 c-4 -14 -5 -29 -2 -31 3 -3 8 7 12 21 3 15 4 29 1 32 -2
3 -8 -7 -11 -22z"/>
<path d="M7562 3393 c-15 -29 -23 -71 -14 -77 5 -3 13 17 18 45 11 52 10 60
-4 32z"/>
<path d="M8370 3394 c0 -5 7 -18 15 -28 8 -11 15 -16 15 -10 0 5 -7 18 -15 28
-8 11 -15 16 -15 10z"/>
<path d="M8426 3375 c4 -16 11 -37 15 -45 6 -10 7 -4 3 15 -4 17 -11 37 -15
45 -6 10 -7 4 -3 -15z"/>
<path d="M3472 3360 c0 -19 2 -27 5 -17 2 9 2 25 0 35 -3 9 -5 1 -5 -18z"/>
<path d="M7320 3374 c0 -8 5 -12 10 -9 6 4 8 11 5 16 -9 14 -15 11 -15 -7z"/>
<path d="M6706 3364 c-8 -21 -8 -34 2 -34 4 0 8 11 8 25 2 29 -1 32 -10 9z"/>
<path d="M8831 3367 c-18 -22 -41 -97 -41 -133 0 -19 7 -51 15 -72 15 -38 15
-40 -18 -108 -32 -65 -87 -226 -87 -255 0 -26 22 9 30 48 25 121 75 246 102
255 10 4 10 13 1 44 -25 84 -26 127 -4 182 21 53 22 62 2 39z"/>
<path d="M7290 3355 c0 -5 5 -17 10 -25 5 -8 10 -10 10 -5 0 6 -5 17 -10 25
-5 8 -10 11 -10 5z"/>
<path d="M2643 3295 c0 -27 2 -38 4 -22 2 15 2 37 0 50 -2 12 -4 0 -4 -28z"/>
<path d="M6037 3260 c-25 -44 -42 -78 -37 -75 15 9 93 145 88 151 -3 2 -26
-31 -51 -76z"/>
<path d="M6500 3293 c-6 -27 -19 -57 -28 -67 -14 -15 -14 -18 -2 -14 16 5 64
128 50 128 -4 0 -13 -21 -20 -47z"/>
<path d="M7428 3293 c5 -21 7 -23 10 -9 2 10 0 22 -6 28 -6 6 -7 0 -4 -19z"/>
<path d="M7310 3305 c0 -5 5 -17 10 -25 5 -8 10 -10 10 -5 0 6 -5 17 -10 25
-5 8 -10 11 -10 5z"/>
<path d="M8451 3300 c0 -8 4 -33 9 -55 13 -56 29 -217 35 -365 4 -68 8 -127
11 -129 3 -3 4 49 2 117 -2 67 -2 122 -1 122 14 0 75 -84 83 -112 6 -21 13
-38 16 -38 3 0 2 10 -1 21 -5 15 -4 19 4 15 22 -14 10 8 -36 63 -25 31 -52 61
-58 66 -17 14 -28 97 -15 105 8 5 7 17 -4 41 -8 19 -22 63 -29 99 -8 36 -15
58 -16 50z"/>
<path d="M1131 3283 c-1 -12 4 -25 9 -28 12 -7 12 2 0 30 -8 19 -9 19 -9 -2z"/>
<path d="M2691 3288 c0 -9 -4 -25 -7 -35 -5 -14 -4 -15 5 -7 7 7 11 22 8 35
-2 13 -5 16 -6 7z"/>
<path d="M3566 3244 c-4 -20 -5 -38 -2 -41 2 -3 8 11 12 31 3 21 4 39 1 42 -2
3 -8 -11 -11 -32z"/>
<path d="M6211 3258 c-1 -32 -133 -168 -194 -199 -22 -11 -37 -23 -34 -25 3
-3 19 2 35 10 38 20 44 8 26 -51 -11 -36 -11 -43 1 -43 8 0 14 8 14 18 0 9 3
38 7 64 6 44 14 55 92 129 47 45 80 84 75 87 -6 4 -13 14 -16 22 -3 9 -6 4 -6
-12z"/>
<path d="M6530 3259 c0 -14 7 -34 15 -45 14 -18 15 -17 9 11 -10 46 -23 65
-24 34z"/>
<path d="M8422 3240 c-1 -14 8 -68 18 -120 15 -73 18 -81 14 -36 -7 68 -32
193 -32 156z"/>
<path d="M7422 3225 c0 -16 2 -22 5 -12 2 9 2 23 0 30 -3 6 -5 -1 -5 -18z"/>
<path d="M8640 3245 c0 -3 14 -18 30 -32 17 -13 30 -32 30 -41 0 -8 3 -13 6
-9 12 11 -8 47 -37 67 -16 12 -29 19 -29 15z"/>
<path d="M7340 3231 c0 -15 42 -113 46 -108 4 3 -34 109 -42 116 -2 2 -4 -1
-4 -8z"/>
<path d="M1150 3216 c0 -19 26 -86 34 -86 5 0 -23 91 -30 99 -2 2 -4 -3 -4
-13z"/>
<path d="M2642 3200 c0 -14 2 -19 5 -12 2 6 2 18 0 25 -3 6 -5 1 -5 -13z"/>
<path d="M8190 3212 c0 -5 9 -17 19 -26 11 -10 25 -32 31 -49 7 -18 18 -45 24
-62 6 -16 26 -59 45 -95 19 -36 37 -76 42 -90 6 -20 7 -21 8 -5 0 11 -13 45
-30 75 -17 30 -41 87 -54 127 -31 92 -52 133 -70 133 -8 0 -15 -4 -15 -8z"/>
<path d="M6280 3200 c-8 -5 -12 -12 -9 -15 4 -3 12 1 19 10 14 17 11 19 -10 5z"/>
<path d="M8331 3179 c-1 -19 5 -58 13 -85 8 -27 17 -60 20 -74 2 -14 3 -5 1
20 -2 25 -10 74 -18 110 -12 54 -15 59 -16 29z"/>
<path d="M8360 3201 c0 -5 5 -13 10 -16 6 -3 10 -2 10 4 0 5 -4 13 -10 16 -5
3 -10 2 -10 -4z"/>
<path d="M1211 3174 c0 -11 3 -14 6 -6 3 7 2 16 -1 19 -3 4 -6 -2 -5 -13z"/>
<path d="M7525 3157 c-10 -25 -12 -43 -6 -59 9 -21 10 -20 10 10 1 18 6 42 12
54 6 11 8 22 5 25 -3 4 -12 -10 -21 -30z"/>
<path d="M8291 3164 c0 -11 3 -14 6 -6 3 7 2 16 -1 19 -3 4 -6 -2 -5 -13z"/>
<path d="M6236 3137 c-35 -59 -77 -149 -91 -191 -7 -22 -30 -86 -50 -141 -85
-233 -94 -261 -95 -276 0 -9 -11 -33 -25 -53 -13 -20 -20 -36 -15 -36 13 0 50
42 50 57 0 7 4 13 8 13 4 0 16 23 26 50 10 28 24 50 31 50 16 0 66 61 59 72
-3 4 -16 -4 -29 -20 -31 -35 -31 -19 0 46 31 64 31 70 3 46 -21 -19 -21 -19
-13 1 4 11 13 38 20 60 33 99 75 206 109 274 38 75 45 105 12 48z"/>
<path d="M7710 3115 c-13 -14 -38 -28 -57 -31 -18 -3 -36 -10 -39 -15 -18 -29
86 15 109 46 23 32 17 32 -13 0z"/>
<path d="M1200 3105 c0 -5 5 -17 10 -25 5 -8 10 -10 10 -5 0 6 -5 17 -10 25
-5 8 -10 11 -10 5z"/>
<path d="M6176 3095 c-3 -8 -1 -15 4 -15 6 0 10 7 10 15 0 8 -2 15 -4 15 -2 0
-6 -7 -10 -15z"/>
<path d="M6276 3024 c-15 -30 -25 -61 -23 -67 3 -7 10 1 16 18 7 16 19 45 28
63 9 18 14 35 11 37 -3 3 -17 -20 -32 -51z"/>
<path d="M1220 3044 c0 -28 19 -92 29 -99 5 -3 3 20 -4 50 -13 59 -25 82 -25
49z"/>
<path d="M8462 2960 c0 -14 2 -19 5 -12 2 6 2 18 0 25 -3 6 -5 1 -5 -13z"/>
<path d="M5924 2819 c4 -85 9 -180 12 -213 4 -38 2 -67 -6 -82 -13 -23 -10
-118 4 -131 16 -16 25 14 14 45 -9 24 -9 39 -1 64 17 46 18 117 4 223 -6 50
-11 122 -11 162 0 42 -5 75 -11 79 -9 5 -10 -34 -5 -147z"/>
<path d="M8460 2895 c-1 -16 -1 -34 0 -40 1 -5 5 -48 10 -95 7 -83 7 -84 8
-20 0 77 -14 200 -18 155z"/>
<path d="M2955 2858 c-2 -13 -11 -81 -19 -153 -8 -71 -15 -134 -16 -140 -5
-22 0 -45 10 -45 6 0 10 8 10 18 0 10 5 23 10 28 12 12 27 314 17 314 -4 0 -9
-10 -12 -22z"/>
<path d="M8360 2831 c0 -16 6 -34 14 -40 22 -18 26 30 4 52 -17 16 -18 16 -18
-12z"/>
<path d="M8500 2683 c0 -21 5 -45 10 -53 7 -11 10 0 10 38 0 28 -4 52 -10 52
-5 0 -10 -17 -10 -37z"/>
<path d="M8580 2660 c-23 -34 -39 -64 -37 -67 3 -2 13 8 21 24 l16 28 -6 -40
c-3 -22 -8 -48 -11 -57 -2 -10 -2 -18 1 -18 9 0 33 87 35 127 0 12 8 29 17 38
9 9 14 18 11 21 -3 3 -24 -22 -47 -56z"/>
<path d="M7432 2698 c-11 -15 -52 -95 -52 -103 0 -3 4 -5 9 -5 9 0 71 100 71
114 0 10 -17 7 -28 -6z"/>
<path d="M8478 2618 c2 -18 10 -47 18 -65 8 -17 14 -56 14 -87 0 -31 4 -56 9
-56 11 0 19 124 9 128 -5 2 -8 20 -8 39 0 30 -2 34 -15 23 -13 -11 -15 -8 -15
19 0 17 -4 31 -8 31 -5 0 -7 -15 -4 -32z"/>
<path d="M8541 2474 c0 -11 3 -14 6 -6 3 7 2 16 -1 19 -3 4 -6 -2 -5 -13z"/>
<path d="M2166 2009 c-10 -32 -14 -89 -7 -94 5 -2 11 19 14 47 6 50 2 76 -7
47z"/>
<path d="M8054 1954 c-8 -20 -24 -78 -35 -128 -11 -50 -22 -100 -25 -111 -4
-11 -3 -17 1 -13 3 3 22 62 40 130 19 67 37 131 40 141 14 34 -6 16 -21 -19z"/>
<path d="M7154 1905 c-3 -19 -4 -84 -1 -144 4 -75 3 -111 -5 -113 -15 -5 -15
-127 1 -213 7 -38 14 -115 17 -170 3 -55 10 -104 16 -110 7 -7 9 -1 4 20 -6
23 -5 27 4 18 7 -6 14 -42 17 -80 6 -97 10 -113 29 -106 11 4 13 13 9 33 -3
16 -8 46 -10 68 -2 21 -11 63 -19 92 -22 74 -20 114 7 158 38 60 50 85 38 77
-6 -3 -23 -29 -36 -56 -14 -27 -27 -49 -29 -49 -5 0 -23 112 -32 199 -3 35 -2
61 2 58 5 -3 9 75 9 174 0 172 -7 219 -21 144z"/>
<path d="M2317 1900 c-24 -90 -56 -267 -61 -335 -9 -112 -10 -640 -2 -653 3
-6 2 -13 -3 -16 -14 -9 -46 139 -46 212 0 34 -3 62 -7 62 -13 0 -9 44 7 90 20
56 18 63 -5 20 l-19 -35 0 80 c-1 59 5 92 19 124 11 24 18 46 15 49 -2 3 -13
-12 -22 -34 -18 -39 -18 -38 -23 201 -3 140 -9 234 -14 227 -4 -8 -5 -52 -1
-98 6 -73 4 -88 -12 -116 -11 -18 -28 -61 -38 -96 -10 -36 -22 -58 -26 -51 -4
6 -15 49 -25 95 -10 46 -21 84 -25 84 -4 0 0 -28 7 -62 39 -175 38 -156 8
-284 l-28 -119 -8 50 c-5 28 -6 74 -2 104 4 37 2 51 -5 47 -6 -4 -11 1 -12 11
-1 46 -11 109 -18 116 -4 4 -1 -41 6 -100 10 -80 10 -123 2 -166 -5 -33 -11
-124 -12 -203 l-1 -145 -17 43 c-9 24 -31 103 -49 176 -29 121 -31 140 -23
208 5 41 6 77 1 80 -4 3 -8 -18 -8 -47 0 -67 -13 -53 -29 31 -7 36 -17 69 -22
75 -12 12 -12 12 7 -70 19 -80 29 -239 19 -292 -3 -19 -8 -33 -11 -30 -10 9
-52 179 -48 191 2 6 -3 20 -12 31 -14 18 -15 18 -10 2 3 -10 6 -41 6 -68 0
-28 4 -48 9 -45 10 7 41 -102 48 -169 2 -27 1 -60 -4 -73 -8 -22 -10 -21 -31
21 -17 33 -22 64 -23 123 -1 59 -3 70 -8 44 l-7 -35 -18 43 c-26 62 -30 46 -5
-24 14 -41 21 -84 21 -144 0 -70 2 -76 7 -35 l6 50 28 -59 c15 -32 27 -66 27
-76 0 -10 7 -23 15 -30 13 -10 15 -9 15 9 0 12 -4 30 -9 39 -5 9 -6 35 -2 57
l7 40 19 -35 c10 -19 27 -51 36 -70 10 -19 18 -30 19 -23 0 7 -16 44 -36 84
l-36 72 9 91 c5 50 12 84 15 76 3 -8 13 -40 22 -70 46 -159 80 -260 87 -260 5
0 9 6 9 13 0 6 2 46 5 87 3 55 2 64 -4 35 l-8 -40 -2 45 c-4 78 0 184 8 220 8
34 8 34 15 -22 5 -31 5 -76 2 -100 -3 -25 -3 -35 2 -24 12 27 36 -111 29 -160
-4 -23 -3 -31 1 -20 8 18 9 18 15 2 4 -10 7 -26 7 -37 0 -10 4 -19 9 -19 4 0
4 24 -1 53 -11 55 -4 146 12 175 5 9 17 43 26 75 9 32 18 57 20 54 6 -6 24
-113 29 -172 3 -36 1 -43 -5 -25 -5 15 -8 18 -9 9 -1 -9 -4 -31 -7 -48 -5 -24
-3 -31 10 -31 9 0 16 7 16 16 0 34 19 0 30 -54 15 -78 29 -120 42 -128 7 -5 9
0 5 12 -30 101 -57 211 -57 237 1 43 16 17 25 -43 9 -62 25 -112 42 -128 11
-11 13 -11 13 0 0 141 11 711 15 733 17 103 28 157 41 211 9 34 14 73 12 85
l-4 24 -7 -25z m-166 -392 c0 -133 -7 -208 -20 -208 -4 0 -14 30 -23 68 -10
37 -15 54 -13 37 18 -122 17 -150 -10 -245 -30 -104 -43 -136 -46 -110 -1 8
-3 26 -6 40 -11 67 -5 162 17 250 13 52 26 97 30 100 4 3 10 26 13 51 6 47 46
164 53 156 2 -2 4 -64 5 -139z m18 -290 c1 -32 -3 -58 -8 -58 -16 0 -29 100
-17 132 11 29 11 29 17 6 4 -13 7 -49 8 -80z m13 -122 c-9 -18 -11 -16 -11 19
0 33 1 37 10 21 8 -12 8 -25 1 -40z"/>
<path d="M1991 1858 c1 -7 5 -24 9 -38 8 -24 8 -24 9 7 1 17 -3 35 -9 38 -5 3
-10 0 -9 -7z"/>
<path d="M8506 1844 c-4 -14 -5 -28 -3 -31 3 -2 8 8 11 23 4 14 5 28 3 31 -3
2 -8 -8 -11 -23z"/>
<path d="M2011 1773 c-1 -12 4 -25 9 -28 12 -7 12 2 0 30 -8 19 -9 19 -9 -2z"/>
<path d="M7703 1768 c-11 -14 -34 -78 -28 -78 2 0 15 20 28 45 23 41 23 62 0
33z"/>
<path d="M7864 1744 c-19 -46 -35 -173 -23 -194 5 -9 9 13 9 57 0 49 6 86 20
119 11 26 18 49 16 51 -3 3 -12 -12 -22 -33z"/>
<path d="M8461 1717 c-13 -34 -48 -106 -79 -160 -30 -54 -52 -100 -49 -104 4
-3 10 3 13 13 4 10 27 53 50 96 45 78 100 206 92 213 -2 2 -14 -24 -27 -58z"/>
<path d="M8176 1714 c-3 -26 -4 -49 -2 -52 3 -2 8 17 11 43 4 25 5 48 3 51 -3
2 -8 -17 -12 -42z"/>
<path d="M7302 1686 c-6 -31 -9 -76 -6 -99 3 -26 0 -58 -10 -86 -19 -53 -20
-62 -1 -37 7 10 18 15 24 11 7 -4 11 7 11 31 0 22 11 55 25 81 30 50 27 58 -4
11 l-21 -33 0 53 c0 29 4 61 10 71 6 13 5 24 -4 36 -11 16 -14 11 -24 -39z"/>
<path d="M7641 1704 c-7 -19 -10 -38 -7 -41 3 -4 6 -4 6 -1 0 3 7 22 15 42 8
20 12 36 7 36 -4 0 -14 -16 -21 -36z"/>
<path d="M8291 1713 c-16 -34 -49 -234 -37 -222 3 2 12 49 21 103 8 54 20 107
26 118 6 11 9 22 6 24 -2 2 -9 -8 -16 -23z"/>
<path d="M6870 1664 c0 -16 4 -34 8 -39 4 -6 19 -43 32 -82 l24 -73 -17 -157
c-19 -172 -21 -200 -10 -189 8 8 9 13 21 146 6 58 13 113 17 123 7 17 8 17 25
0 19 -21 28 -76 44 -273 2 -25 -2 -94 -10 -154 -16 -127 -16 -132 -6 -122 4 4
12 44 18 89 l11 82 7 -51 c8 -53 21 -83 30 -73 3 3 -1 43 -10 88 -12 65 -14
101 -6 165 5 44 6 85 2 90 -5 4 -8 2 -7 -5 1 -37 -4 -82 -9 -77 -5 6 -15 73
-30 199 -3 26 -9 60 -15 75 l-9 29 4 -27 c2 -16 -1 -28 -5 -28 -11 0 -20 38
-17 75 2 22 -1 29 -12 28 -12 -2 -22 20 -39 85 -27 96 -41 123 -41 76z"/>
<path d="M7981 1674 c0 -11 3 -14 6 -6 3 7 2 16 -1 19 -3 4 -6 -2 -5 -13z"/>
<path d="M7661 1664 c0 -11 3 -14 6 -6 3 7 2 16 -1 19 -3 4 -6 -2 -5 -13z"/>
<path d="M1601 1634 c0 -11 3 -14 6 -6 3 7 2 16 -1 19 -3 4 -6 -2 -5 -13z"/>
<path d="M7617 1583 c-9 -91 -9 -163 1 -163 4 0 8 52 9 115 2 63 1 115 -1 115
-2 0 -6 -30 -9 -67z"/>
<path d="M8162 1620 c0 -19 2 -27 5 -17 2 9 2 25 0 35 -3 9 -5 1 -5 -18z"/>
<path d="M7652 1620 c0 -14 2 -19 5 -12 2 6 2 18 0 25 -3 6 -5 1 -5 -13z"/>
<path d="M7956 1594 c-4 -14 -5 -28 -3 -31 3 -2 8 8 11 23 4 14 5 28 3 31 -3
2 -8 -8 -11 -23z"/>
<path d="M1596 1585 c-3 -9 -5 -38 -5 -63 l1 -47 9 59 c9 60 7 81 -5 51z"/>
<path d="M7635 1541 c-4 -31 -2 -57 5 -71 16 -29 25 -18 13 17 -6 15 -8 45 -5
66 2 20 2 37 -1 37 -3 0 -8 -22 -12 -49z"/>
<path d="M8096 1565 c-9 -26 -7 -32 5 -12 6 10 9 21 6 23 -2 3 -7 -2 -11 -11z"/>
<path d="M8152 1560 c0 -14 2 -19 5 -12 2 6 2 18 0 25 -3 6 -5 1 -5 -13z"/>
<path d="M7916 1499 c-18 -34 -31 -47 -36 -39 -5 8 -14 -6 -26 -36 -10 -27
-24 -60 -31 -74 -7 -14 -13 -32 -14 -40 -1 -8 -5 1 -9 20 l-7 35 -2 -35 c-5
-82 -17 -130 -32 -130 -5 0 -9 -10 -9 -22 -1 -13 -9 -41 -20 -63 -11 -22 -19
-47 -19 -55 0 -8 7 1 16 20 16 35 16 35 23 10 6 -20 8 -16 9 22 2 80 19 64 20
-18 0 -42 3 -79 6 -82 3 -3 5 43 5 101 0 103 1 109 40 192 21 47 37 92 34 100
-3 7 -1 22 5 32 9 15 10 13 6 -12 -6 -30 -6 -30 8 -6 11 18 16 20 20 10 5 -12
6 -12 6 0 1 8 7 19 15 25 10 8 31 96 23 96 -1 0 -15 -23 -31 -51z"/>
<path d="M8142 1510 c0 -14 2 -19 5 -12 2 6 2 18 0 25 -3 6 -5 1 -5 -13z"/>
<path d="M3007 1487 c-8 -13 -27 -53 -42 -88 -14 -35 -30 -73 -34 -84 -11 -26
-31 -143 -31 -182 0 -17 -7 -36 -15 -43 -9 -7 -25 -35 -37 -62 -11 -26 -25
-48 -30 -48 -6 0 -7 7 -4 16 3 8 2 12 -4 9 -5 -3 -17 -31 -26 -63 -9 -31 -20
-67 -25 -80 -12 -32 -11 -62 2 -62 6 0 9 6 6 13 -6 15 9 48 73 162 45 80 45
80 48 45 2 -19 8 -39 13 -45 7 -7 8 8 3 43 -6 49 -3 60 35 140 84 174 111 226
104 202 -3 -14 -21 -81 -40 -150 -18 -69 -35 -134 -38 -145 -2 -11 -11 -48
-19 -82 -9 -34 -13 -69 -10 -78 4 -8 1 -45 -6 -81 -7 -35 -10 -67 -7 -70 3 -3
10 21 16 53 7 32 16 76 22 98 5 22 11 59 13 82 2 24 16 64 30 90 21 39 22 43
5 23 l-21 -24 8 39 c4 22 18 83 32 135 14 52 26 107 26 123 1 15 4 27 7 27 4
0 10 8 13 17 6 16 5 16 -12 0 -11 -10 -36 -52 -57 -95 -20 -42 -47 -96 -58
-120 -22 -46 -43 -68 -34 -36 3 11 11 46 17 79 13 63 61 194 87 233 8 13 13
26 10 28 -2 3 -11 -6 -20 -19z"/>
<path d="M7113 1421 c-1 -49 -7 -124 -13 -166 -18 -120 -17 -244 3 -282 16
-31 47 -46 47 -23 0 6 -5 10 -11 10 -5 0 -17 17 -26 37 -12 29 -14 58 -9 128
13 197 18 240 27 243 13 5 11 50 -4 100 -13 42 -13 42 -14 -47z"/>
<path d="M7731 1466 c-6 -27 -10 -51 -7 -53 7 -7 28 76 23 90 -2 6 -9 -10 -16
-37z"/>
<path d="M6640 1496 c0 -6 30 -78 42 -103 21 -42 27 -23 8 25 -10 26 -21 55
-24 65 -4 14 -26 25 -26 13z"/>
<path d="M1631 1343 c1 -82 4 -158 7 -171 4 -13 7 54 7 147 0 94 -3 171 -7
171 -5 0 -8 -66 -7 -147z"/>
<path d="M7812 1470 c0 -14 2 -19 5 -12 2 6 2 18 0 25 -3 6 -5 1 -5 -13z"/>
<path d="M8012 1435 c-30 -62 -27 -71 4 -12 14 27 24 51 22 53 -3 2 -14 -17
-26 -41z"/>
<path d="M1579 1360 c-6 -108 10 -263 28 -279 3 -3 2 10 -2 29 -4 19 -11 109
-14 200 l-6 165 -6 -115z"/>
<path d="M7300 1249 c1 -210 10 -296 20 -189 8 90 0 400 -11 400 -6 0 -9 -81
-9 -211z"/>
<path d="M8131 1444 c0 -11 3 -14 6 -6 3 7 2 16 -1 19 -3 4 -6 -2 -5 -13z"/>
<path d="M3162 1403 c-18 -45 -80 -238 -103 -328 -6 -22 -15 -50 -20 -63 -13
-33 -11 -65 3 -56 11 7 10 4 -9 -44 -3 -8 0 -10 9 -7 11 4 17 28 21 84 2 43
13 104 22 137 53 176 66 217 90 265 28 60 28 59 16 59 -5 0 -18 -21 -29 -47z"/>
<path d="M8227 1436 c-4 -10 -7 -25 -6 -34 0 -11 4 -9 10 7 5 13 8 29 6 35 -2
5 -6 2 -10 -8z"/>
<path d="M7803 1405 c0 -22 2 -30 4 -17 2 12 2 30 0 40 -3 9 -5 -1 -4 -23z"/>
<path d="M8316 1423 c-6 -14 -5 -15 5 -6 7 7 10 15 7 18 -3 3 -9 -2 -12 -12z"/>
<path d="M7563 1385 c0 -22 2 -30 4 -17 2 12 2 30 0 40 -3 9 -5 -1 -4 -23z"/>
<path d="M7886 1395 c-3 -9 -6 -24 -5 -33 0 -9 5 -4 10 12 9 32 6 48 -5 21z"/>
<path d="M7711 1384 c0 -11 3 -14 6 -6 3 7 2 16 -1 19 -3 4 -6 -2 -5 -13z"/>
<path d="M8322 1385 c-1 -11 -15 -37 -32 -57 -29 -35 -110 -187 -110 -207 0
-5 -4 -11 -8 -13 -11 -4 -66 -147 -59 -154 2 -3 14 15 26 38 12 24 25 50 30
58 5 8 16 38 25 65 20 68 106 219 118 207 9 -9 -24 -179 -42 -212 -15 -27 -30
-174 -19 -184 5 -6 9 9 9 40 0 27 7 74 15 104 32 117 56 251 52 292 -2 24 -4
34 -5 23z"/>
<path d="M6770 1367 c0 -5 4 -17 10 -27 16 -30 39 -188 45 -320 6 -119 15
-160 35 -160 5 0 4 14 -1 33 -6 17 -14 93 -19 167 -9 143 -32 265 -55 296 -8
11 -15 15 -15 11z"/>
<path d="M7662 1350 c0 -14 2 -19 5 -12 2 6 2 18 0 25 -3 6 -5 1 -5 -13z"/>
<path d="M7962 1318 c-29 -75 -75 -229 -69 -234 2 -2 14 28 26 68 12 40 33
104 47 142 28 82 26 100 -4 24z"/>
<path d="M7137 1330 c3 -11 7 -20 9 -20 2 0 4 9 4 20 0 11 -4 20 -9 20 -5 0
-7 -9 -4 -20z"/>
<path d="M8068 1331 c-28 -33 -68 -143 -59 -160 7 -11 12 -5 20 25 6 21 11 44
11 50 0 6 12 32 26 58 28 49 28 57 2 27z"/>
<path d="M8157 1330 c-3 -11 -1 -20 4 -20 5 0 9 9 9 20 0 11 -2 20 -4 20 -2 0
-6 -9 -9 -20z"/>
<path d="M2357 1333 c-10 -16 -46 -151 -61 -227 -16 -80 -22 -271 -8 -279 4
-3 7 47 7 111 0 65 5 135 12 157 6 22 18 72 26 110 9 39 20 85 25 103 10 30 9
42 -1 25z"/>
<path d="M6595 1331 c-3 -5 1 -27 10 -48 13 -33 13 -45 1 -88 -8 -27 -15 -42
-15 -32 -1 9 -5 17 -10 17 -4 0 -7 -43 -5 -95 3 -69 8 -100 19 -111 8 -9 20
-24 25 -35 11 -20 40 -26 40 -9 0 6 -4 10 -10 10 -14 0 -40 55 -40 84 0 14 -4
28 -10 31 -5 3 -10 16 -10 28 0 20 3 19 31 -13 17 -19 46 -52 64 -72 18 -21
43 -54 56 -75 12 -21 23 -39 23 -39 1 -1 12 -5 26 -9 25 -8 25 -7 7 13 -11 11
-31 57 -47 101 -30 89 -91 220 -102 221 -3 0 9 -37 28 -82 31 -76 42 -118 29
-118 -8 0 -79 80 -92 104 -12 23 2 116 19 116 4 0 8 17 8 38 0 25 -3 33 -9 23
-7 -11 -10 -9 -16 8 -3 11 -3 25 0 31 3 5 2 10 -4 10 -5 0 -12 -4 -16 -9z"/>
<path d="M7860 1288 c-6 -29 -13 -78 -15 -108 -1 -30 -1 -41 1 -25 3 17 11 63
20 103 9 41 14 76 11 78 -3 3 -10 -19 -17 -48z"/>
<path d="M8179 1317 c-14 -13 -28 -31 -32 -41 -4 -9 -10 -15 -15 -12 -4 2 -18
-22 -31 -54 -13 -33 -27 -57 -31 -55 -4 3 -10 -5 -13 -18 -3 -12 -10 -39 -16
-59 -41 -142 -32 -136 39 27 28 66 58 127 66 136 8 8 14 19 14 23 0 4 12 23
26 42 31 40 29 42 -7 11z"/>
<path d="M2876 1293 c-6 -14 -5 -15 5 -6 7 7 10 15 7 18 -3 3 -9 -2 -12 -12z"/>
<path d="M6958 1268 c4 -47 -6 -109 -37 -238 -21 -87 -28 -200 -12 -200 4 0 8
31 8 68 0 37 5 83 11 102 30 91 54 310 34 310 -4 0 -6 -19 -4 -42z"/>
<path d="M7137 1281 c-3 -14 -2 -31 2 -39 13 -22 21 1 12 34 -7 29 -7 29 -14
5z"/>
<path d="M7996 1275 c-9 -26 -7 -32 5 -12 6 10 9 21 6 23 -2 3 -7 -2 -11 -11z"/>
<path d="M2834 1210 c-8 -54 -8 -77 0 -82 7 -5 13 9 17 40 4 26 10 58 14 72 5
18 4 21 -3 11 -8 -11 -11 -9 -14 10 -2 13 -8 -10 -14 -51z"/>
<path d="M3154 1244 c-4 -15 -4 -68 -2 -118 3 -50 3 -77 -1 -61 -6 26 -8 21
-16 -35 -14 -106 -15 -172 -2 -167 12 3 24 24 81 142 18 39 52 103 75 144 23
41 44 86 47 100 7 27 -59 -91 -148 -268 -37 -72 -54 -98 -56 -83 -7 47 67 247
122 327 19 30 19 30 0 13 -11 -10 -33 -45 -49 -79 -26 -54 -31 -58 -36 -38 -3
13 -4 52 -2 87 5 64 -2 82 -13 36z"/>
<path d="M7631 1208 c-6 -35 -14 -76 -18 -93 -3 -16 -3 -27 1 -24 8 7 38 170
33 175 -2 3 -10 -24 -16 -58z"/>
<path d="M8453 1233 c-27 -44 -29 -51 -11 -28 9 11 24 28 32 38 9 9 12 17 6
17 -5 0 -17 -12 -27 -27z"/>
<path d="M8534 1217 c-36 -41 -86 -118 -81 -124 3 -2 18 15 33 39 15 23 39 55
53 70 13 15 22 30 19 33 -2 3 -13 -5 -24 -18z"/>
<path d="M2212 1205 c0 -16 2 -22 5 -12 2 9 2 23 0 30 -3 6 -5 -1 -5 -18z"/>
<path d="M7151 1204 c0 -11 3 -14 6 -6 3 7 2 16 -1 19 -3 4 -6 -2 -5 -13z"/>
<path d="M7544 1199 c-3 -6 -1 -16 5 -22 8 -8 11 -5 11 11 0 24 -5 28 -16 11z"/>
<path d="M8131 1184 c0 -11 3 -14 6 -6 3 7 2 16 -1 19 -3 4 -6 -2 -5 -13z"/>
<path d="M8391 1129 c-13 -22 -21 -42 -19 -45 3 -2 14 15 26 38 29 53 22 60
-7 7z"/>
<path d="M7174 1106 c-3 -21 -4 -39 -1 -42 3 -4 9 10 13 30 3 21 4 39 1 42 -3
4 -9 -10 -13 -30z"/>
<path d="M7966 1103 c-9 -21 -21 -46 -26 -55 -14 -26 -12 -32 5 -18 8 7 15 20
15 29 0 9 7 29 15 45 9 16 14 31 11 33 -2 2 -11 -13 -20 -34z"/>
<path d="M1652 1100 c0 -19 2 -27 5 -17 2 9 2 25 0 35 -3 9 -5 1 -5 -18z"/>
<path d="M8116 1115 c-9 -26 -7 -32 5 -12 6 10 9 21 6 23 -2 3 -7 -2 -11 -11z"/>
<path d="M7832 1090 c0 -14 2 -19 5 -12 2 6 2 18 0 25 -3 6 -5 1 -5 -13z"/>
<path d="M1400 1066 c0 -7 7 -20 17 -27 9 -8 36 -54 60 -104 41 -84 63 -120
63 -101 0 24 -122 246 -135 246 -3 0 -5 -6 -5 -14z"/>
<path d="M3408 1058 c-9 -7 -37 -46 -63 -85 -26 -40 -51 -73 -56 -73 -5 0 -9
-7 -9 -16 0 -14 3 -14 16 -3 13 11 135 189 130 189 -1 0 -9 -6 -18 -12z"/>
<path d="M7601 1054 c0 -11 3 -14 6 -6 3 7 2 16 -1 19 -3 4 -6 -2 -5 -13z"/>
<path d="M7882 1045 c0 -16 2 -22 5 -12 2 9 2 23 0 30 -3 6 -5 -1 -5 -18z"/>
<path d="M8090 1060 c-9 -6 -10 -10 -3 -10 6 0 15 5 18 10 8 12 4 12 -15 0z"/>
<path d="M8341 1014 c-12 -31 -20 -62 -18 -68 5 -12 16 13 37 77 19 61 4 54
-19 -9z"/>
<path d="M1657 1041 c-8 -33 37 -156 54 -146 4 3 1 18 -6 33 -8 15 -20 52 -28
81 -11 43 -15 49 -20 32z"/>
<path d="M3434 1024 c-36 -44 -68 -94 -61 -94 9 0 99 122 94 126 -2 3 -17 -12
-33 -32z"/>
<path d="M1698 1012 c25 -55 39 -69 18 -17 -10 22 -22 45 -27 50 -6 6 -2 -9 9
-33z"/>
<path d="M3291 995 c-36 -41 -96 -155 -82 -155 6 0 20 21 31 48 12 26 39 68
61 95 46 54 37 65 -10 12z"/>
<path d="M7592 1005 c0 -16 2 -22 5 -12 2 9 2 23 0 30 -3 6 -5 -1 -5 -18z"/>
<path d="M1371 1015 c-1 -17 60 -159 75 -174 26 -28 19 -6 -28 89 -26 52 -47
90 -47 85z"/>
<path d="M7833 985 c0 -22 2 -30 4 -17 2 12 2 30 0 40 -3 9 -5 -1 -4 -23z"/>
<path d="M1540 1001 c0 -5 7 -15 16 -22 9 -8 26 -34 37 -59 10 -25 21 -40 24
-33 2 7 -12 37 -31 67 -34 54 -46 66 -46 47z"/>
<path d="M7869 970 c-6 -45 -4 -58 7 -48 3 3 4 26 2 49 l-3 44 -6 -45z"/>
<path d="M3489 993 c-1 -5 -1 -12 0 -16 1 -5 -2 -6 -7 -4 -4 3 -19 -3 -32 -14
l-25 -20 30 7 c36 8 55 22 55 40 0 14 -19 20 -21 7z"/>
<path d="M7318 978 c-7 -13 -17 -30 -23 -39 -31 -50 -44 -79 -35 -79 5 0 10 7
10 15 0 8 16 33 36 55 21 23 33 44 28 51 -4 7 -3 9 4 5 6 -3 13 -2 17 4 3 5
-1 10 -9 10 -8 0 -21 -10 -28 -22z"/>
<path d="M7762 990 c3 -8 13 -45 24 -82 11 -42 24 -68 33 -68 9 0 10 4 4 13
-6 6 -13 28 -16 48 -3 19 -15 51 -27 70 -12 19 -20 27 -18 19z"/>
<path d="M6510 984 c0 -10 33 -33 48 -34 21 0 13 16 -13 28 -30 14 -35 15 -35
6z"/>
<path d="M2857 908 c-6 -50 -5 -83 2 -95 9 -16 10 -16 11 5 0 12 12 45 26 73
14 28 23 53 20 56 -3 3 -13 -12 -23 -32 l-18 -38 -5 54 -5 54 -8 -77z"/>
<path d="M6371 962 c-13 -24 -2 -39 32 -47 31 -8 38 10 8 20 -11 3 -18 12 -15
20 8 21 -14 28 -25 7z"/>
<path d="M7674 952 c-7 -35 -13 -39 -32 -20 -8 8 -12 8 -12 1 0 -6 7 -16 16
-24 9 -7 14 -22 11 -36 -2 -13 -1 -23 2 -23 8 0 32 122 26 129 -3 2 -8 -10
-11 -27z"/>
<path d="M6440 956 c0 -21 34 -76 51 -81 32 -11 32 -1 -1 35 -16 18 -30 36
-30 41 0 5 -4 9 -10 9 -5 0 -10 -2 -10 -4z"/>
<path d="M1735 930 c11 -46 27 -80 37 -80 6 0 7 7 4 16 -3 9 -6 27 -6 40 0 14
-4 23 -9 19 -6 -3 -15 3 -21 12 -9 15 -10 14 -5 -7z"/>
<path d="M1260 931 c0 -12 49 -51 63 -51 6 0 -2 14 -18 30 -29 30 -45 38 -45
21z"/>
<path d="M7178 917 c-3 -13 -1 -32 3 -43 5 -13 8 -7 8 24 1 46 -4 55 -11 19z"/>
<path d="M1340 924 c1 -17 60 -79 60 -63 0 8 -6 22 -12 30 -20 23 -48 43 -48
33z"/>
<path d="M3012 865 c-7 -15 -11 -30 -8 -32 7 -7 28 36 24 49 -2 6 -9 -2 -16
-17z"/>
<path d="M2977 866 c-4 -9 -9 -39 -11 -68 -5 -52 -5 -52 8 12 14 63 15 87 3
56z"/>
<path d="M2646 790 c-4 -19 -10 -43 -12 -52 -3 -10 -1 -18 5 -18 12 0 25 59
19 87 -3 12 -7 6 -12 -17z"/>
<path d="M7107 702 c-24 -26 -21 -38 12 -63 25 -18 28 -25 18 -40 -6 -10 -20
-20 -31 -23 -16 -4 -17 -7 -6 -20 40 -49 130 24 130 104 0 52 -88 81 -123 42z
m88 -19 c30 -30 -5 -123 -46 -123 l-20 0 20 26 c27 34 26 42 -4 66 -14 11 -25
26 -25 34 0 20 54 18 75 -3z"/>
<path d="M7868 676 c-23 -17 -24 -72 -2 -80 38 -14 75 35 54 74 -12 23 -28 25
-52 6z m37 -26 c4 -6 1 -18 -6 -26 -11 -13 -14 -13 -27 0 -8 8 -11 19 -8 25 9
14 33 14 41 1z"/>
<path d="M7532 668 c-18 -18 -15 -43 10 -85 21 -36 22 -49 21 -232 l-1 -193
26 5 c14 3 36 -2 49 -10 46 -30 121 8 150 77 22 51 19 169 -6 217 -27 53 -44
65 -87 61 -35 -3 -36 -2 -39 32 -5 89 -82 169 -123 128z m83 -55 c4 -10 10
-43 14 -73 l6 -55 41 3 c48 2 66 -13 89 -77 27 -79 14 -196 -27 -228 -7 -6
-28 -13 -47 -17 -42 -8 -101 25 -102 57 0 12 -2 94 -2 182 -2 131 -5 166 -19
194 -27 52 -24 65 11 47 16 -9 32 -23 36 -33z"/>
<path d="M7634 416 c-3 -8 -4 -56 -2 -108 l3 -93 38 -3 c52 -4 66 16 67 95 0
52 -4 66 -26 92 -27 33 -70 42 -80 17z m65 -28 c7 -12 16 -49 19 -83 5 -67
-10 -92 -48 -80 -18 6 -20 14 -19 96 1 76 3 89 18 89 9 0 22 -10 30 -22z"/>
<path d="M7323 662 c-39 -2 -55 -8 -62 -21 -13 -23 12 -61 40 -61 26 0 25 6
15 -222 l-8 -167 -27 -3 c-19 -2 -27 -10 -29 -27 -6 -41 17 -49 96 -36 38 7
74 15 79 18 20 13 21 46 2 63 -13 12 -16 24 -12 46 3 16 6 97 7 180 1 140 2
151 20 154 10 1 26 10 34 18 13 12 13 20 4 41 -12 27 -3 26 -159 17z m142 -37
c0 -16 -7 -20 -30 -20 l-30 0 -6 -200 c-4 -157 -2 -202 8 -211 19 -16 16 -34
-6 -34 -10 0 -38 -7 -61 -15 -32 -11 -46 -12 -56 -4 -22 18 -16 31 14 27 27
-3 27 -3 34 77 14 160 14 353 0 367 -10 10 -14 10 -22 -1 -7 -12 -11 -12 -24
-2 -27 23 -18 30 42 33 122 7 137 5 137 -17z"/>
<path d="M3313 629 c-12 -4 -27 -17 -33 -28 -15 -28 20 -64 58 -59 29 3 38 23
28 63 -7 28 -23 35 -53 24z m37 -44 c0 -33 -14 -38 -35 -15 -14 16 -15 23 -6
34 17 20 41 9 41 -19z"/>
<path d="M2620 617 c-34 -17 -38 -53 -8 -63 13 -4 32 -8 43 -8 16 -1 20 -8 21
-41 0 -22 2 -71 2 -108 2 -48 6 -67 14 -65 8 3 11 26 9 69 -2 35 -4 89 -5 119
-1 30 -5 62 -10 71 -6 15 1 17 55 18 58 1 89 -10 89 -30 0 -5 -11 -9 -24 -9
-13 0 -29 -6 -35 -13 -6 -9 -13 -76 -15 -170 -5 -155 -4 -157 20 -186 13 -16
24 -37 24 -47 0 -16 -9 -19 -63 -20 -34 0 -75 -4 -91 -8 -25 -6 -27 -4 -24 16
2 19 9 23 36 23 41 0 52 17 51 75 -3 99 -29 113 -29 15 l0 -65 -33 0 c-39 0
-57 -15 -57 -47 0 -33 29 -44 88 -33 27 5 65 7 84 4 65 -11 88 41 42 96 -25
29 -26 37 -25 128 0 53 3 122 5 152 4 51 6 55 33 60 31 6 43 40 23 66 -16 18
-184 19 -220 1z m45 -33 c0 -12 -8 -20 -22 -22 -17 -3 -23 2 -23 16 0 20 16
33 35 28 6 -2 10 -11 10 -22z"/>
<path d="M2930 612 c0 -4 10 -13 21 -21 22 -13 22 -16 15 -199 -4 -103 -9
-196 -12 -208 -3 -11 3 -29 13 -42 17 -19 25 -20 105 -15 82 5 87 7 109 36 19
27 22 42 20 111 -1 75 -4 83 -33 113 -24 25 -37 31 -57 27 -50 -10 -60 11 -48
100 9 72 8 80 -9 93 -19 14 -124 19 -124 5z m108 -115 l-3 -92 45 -3 c57 -4
86 -30 98 -89 18 -82 -9 -163 -53 -161 -11 1 -45 -2 -76 -6 -69 -9 -72 -4 -64
98 3 39 8 136 10 216 2 80 4 146 4 148 1 1 10 -2 22 -8 18 -10 20 -19 17 -103z"/>
<path d="M3054 353 c-14 -10 -26 -124 -15 -142 12 -18 81 -8 98 15 19 26 16
88 -4 107 -22 19 -64 30 -79 20z m51 -33 c27 -29 26 -69 -2 -87 -31 -21 -53
-10 -53 26 0 35 16 81 28 81 5 0 17 -9 27 -20z"/>
<path d="M6073 613 c-17 -3 -24 -14 -29 -41 -3 -20 -8 -44 -10 -54 -7 -23 13
-32 75 -34 76 -3 83 -13 65 -99 -14 -65 -21 -241 -10 -252 12 -12 83 -13 99
-1 24 18 28 42 34 201 l6 138 28 14 c15 8 48 15 72 15 56 0 80 17 75 55 -5 46
-37 57 -148 50 -52 -3 -118 -8 -146 -11 -39 -4 -53 -2 -63 10 -8 9 -16 15 -20
15 -3 -1 -16 -4 -28 -6z m369 -39 c4 -3 8 -14 8 -25 0 -16 -7 -19 -40 -19 -47
0 -107 -23 -126 -48 -9 -12 -14 -56 -15 -142 -2 -170 -5 -184 -48 -188 l-34
-3 6 128 c4 70 9 147 13 170 6 40 5 42 -22 50 -16 4 -48 7 -71 7 -40 -1 -43 1
-43 25 0 43 14 57 43 44 24 -11 152 -1 166 13 6 6 151 -5 163 -12z"/>
<path d="M6550 610 c0 -5 9 -10 19 -10 28 0 35 -17 36 -80 l0 -55 58 -6 c33
-4 65 -13 73 -21 16 -16 48 -230 38 -260 -4 -13 -13 -18 -27 -16 -20 3 -23 12
-32 105 -5 56 -15 107 -21 113 -6 6 -27 10 -45 8 l-34 -3 -2 -90 c-3 -93 -16
-145 -38 -145 -28 0 -35 27 -30 106 11 142 12 309 3 327 -10 20 -38 23 -38 4
0 -7 5 -18 11 -24 14 -14 13 -147 -2 -290 -13 -122 -6 -143 47 -143 31 0 37 4
50 36 11 26 14 62 12 120 l-3 84 26 0 c34 0 39 -14 39 -115 0 -100 17 -131 63
-119 42 10 47 37 34 175 l-12 122 -38 28 c-30 22 -45 26 -72 22 l-35 -6 4 57
c4 41 1 60 -10 71 -17 17 -74 21 -74 5z"/>
<path d="M1262 599 c-42 -9 -42 -7 -49 -67 -5 -49 -4 -51 20 -57 14 -4 30 -4
35 -1 11 7 85 -15 94 -29 4 -5 5 -26 2 -45 -11 -79 -10 -196 2 -227 10 -25 19
-33 38 -33 42 0 66 33 68 93 0 28 2 57 3 62 2 6 3 49 4 97 l1 87 33 9 c17 5
41 6 52 2 50 -18 89 33 69 89 l-10 26 -164 1 c-91 0 -180 -3 -198 -7z m346
-50 c3 -25 1 -26 -69 -32 -40 -3 -76 -10 -80 -14 -5 -5 -10 -71 -12 -148 -3
-136 -15 -193 -38 -180 -5 4 -9 69 -8 155 0 82 -2 154 -6 160 -3 5 -37 10 -76
10 -60 0 -69 2 -69 18 0 51 31 57 290 57 63 0 65 -1 68 -26z"/>
<path d="M1686 603 c-11 -12 -6 -35 7 -30 11 4 13 -36 13 -205 0 -224 1 -228
52 -228 31 0 40 27 49 145 9 108 13 115 69 101 23 -6 24 -9 24 -97 0 -76 3
-96 21 -120 58 -82 99 27 74 197 -15 102 -34 127 -94 123 -82 -5 -91 -2 -91
35 0 55 -16 86 -44 86 -14 0 -28 -5 -31 -10 -4 -7 -12 -7 -24 0 -10 5 -21 6
-25 3z m89 -71 c10 -60 18 -67 84 -69 33 0 67 -5 76 -10 11 -7 22 -39 33 -105
14 -81 14 -102 3 -139 -12 -40 -14 -42 -27 -24 -9 12 -14 46 -14 101 0 107
-14 127 -89 128 -62 1 -59 6 -65 -142 -2 -57 -6 -105 -9 -109 -4 -3 -13 -3
-21 0 -20 8 -24 403 -4 410 20 7 26 0 33 -41z"/>
<path d="M8973 540 c-38 -15 -56 -54 -49 -104 6 -35 16 -52 51 -84 35 -31 45
-48 45 -71 0 -36 -17 -40 -60 -14 -23 13 -32 14 -43 4 -58 -48 7 -141 99 -141
37 0 84 49 95 99 13 59 -10 133 -56 185 -33 36 -45 66 -27 66 4 0 13 -9 20
-20 15 -25 34 -25 56 -1 16 18 16 21 -14 55 -33 38 -68 45 -117 26z m89 -27
c18 -16 25 -43 11 -43 -3 0 -14 7 -24 16 -10 9 -25 14 -34 11 -25 -10 -17 -47
19 -87 65 -73 81 -176 35 -234 -31 -39 -70 -35 -122 13 -38 36 -41 41 -26 56
14 14 19 14 51 0 33 -13 38 -13 58 3 20 16 21 21 11 59 -8 30 -20 47 -46 62
-50 29 -70 94 -45 142 14 25 85 26 112 2z"/>
<path d="M3621 518 c-49 -24 -67 -57 -52 -100 11 -32 58 -97 83 -116 23 -17
23 -45 0 -65 -25 -23 -59 -21 -67 2 -9 29 -40 52 -59 45 -45 -17 -37 -83 14
-129 27 -25 116 -25 154 0 32 21 56 73 56 123 0 33 -6 46 -31 69 -17 15 -42
38 -55 51 -42 38 -6 53 38 15 13 -12 20 -12 37 -1 48 29 35 65 -37 106 l-38
21 -43 -21z m88 -34 c52 -43 36 -79 -20 -45 -36 22 -59 18 -59 -11 0 -22 30
-78 42 -78 15 0 48 -65 48 -93 0 -40 -25 -83 -52 -91 -56 -15 -96 -7 -122 25
-25 29 -35 69 -18 69 4 0 19 -13 34 -30 33 -38 70 -39 103 -4 33 35 31 59 -4
92 -15 15 -40 48 -55 73 -21 38 -25 51 -17 72 20 52 73 61 120 21z"/>
<path d="M8421 526 c-75 -26 -99 -97 -81 -239 9 -74 28 -129 50 -142 20 -12
98 -7 128 9 33 17 42 34 42 77 0 43 -24 46 -66 9 -21 -18 -40 -28 -45 -23 -13
13 -39 118 -39 157 0 21 8 40 23 54 l24 22 18 -20 c23 -25 51 -26 65 -1 18 35
12 68 -17 88 -33 23 -56 25 -102 9z m95 -30 c17 -17 18 -52 2 -62 -6 -4 -16 0
-23 9 -17 23 -51 21 -76 -4 -19 -19 -21 -30 -17 -110 3 -68 8 -93 23 -109 24
-26 41 -25 71 5 28 28 40 31 47 13 7 -21 -10 -56 -35 -69 -27 -15 -86 -13
-105 3 -23 19 -44 111 -44 197 0 78 2 86 27 112 22 23 36 29 72 29 24 0 50 -6
58 -14z"/>
<path d="M8678 535 c-4 -4 -40 -12 -62 -14 -5 -1 -2 -8 5 -18 11 -12 14 -56
15 -175 0 -153 1 -159 25 -184 20 -22 30 -25 65 -21 47 5 87 31 103 65 27 57
41 275 21 313 -14 25 -46 25 -60 0 -5 -11 -9 -60 -8 -108 2 -151 -19 -211 -60
-170 -13 14 -16 40 -15 157 0 97 -3 143 -12 150 -6 5 -14 8 -17 5z m11 -154
c-1 -79 4 -148 10 -159 14 -26 57 -34 74 -13 25 29 29 54 28 174 -1 109 0 117
18 117 13 0 21 -8 23 -22 5 -40 -10 -242 -21 -270 -15 -41 -51 -68 -88 -68
-49 0 -73 29 -73 90 0 27 -2 101 -4 165 -3 109 0 121 26 124 4 1 7 -62 7 -138z"/>
<path d="M8115 521 c-41 -17 -57 -47 -50 -90 7 -43 24 -61 88 -96 30 -16 37
-25 37 -51 0 -19 -9 -39 -24 -53 -26 -24 -41 -22 -64 11 -28 39 -72 11 -72
-45 0 -55 71 -79 151 -51 40 15 55 26 70 56 37 73 19 145 -48 194 -60 44 -79
74 -48 74 9 0 18 -7 21 -15 8 -21 39 -36 58 -29 22 9 20 46 -5 78 -16 20 -29
26 -57 25 -20 0 -46 -4 -57 -8z m99 -27 c16 -15 22 -54 9 -54 -3 0 -19 15 -34
33 -27 32 -27 32 -48 13 -32 -29 -23 -57 27 -84 68 -38 100 -122 70 -186 -16
-37 -84 -67 -128 -58 -42 9 -73 53 -52 74 11 11 17 9 32 -9 34 -43 96 -20 121
43 13 35 -7 75 -49 96 -18 9 -42 24 -52 33 -25 22 -32 75 -12 98 20 22 94 23
116 1z"/>
<path d="M7882 504 c-23 -16 -23 -17 -5 -36 15 -17 18 -41 21 -166 2 -131 4
-149 22 -166 16 -16 25 -18 47 -10 25 9 28 14 26 49 -2 22 -5 83 -7 135 -3 52
-7 114 -11 137 -10 69 -46 90 -93 57z m55 -16 c18 -23 25 -72 24 -166 -1 -51
4 -111 10 -133 14 -44 9 -54 -20 -44 -28 9 -31 26 -35 177 -1 73 -6 143 -10
156 -6 16 -5 22 7 22 8 0 19 -6 24 -12z"/>
<path d="M2196 498 c-33 -19 -64 -58 -77 -96 -18 -53 -5 -167 23 -208 62 -90
180 -66 207 42 10 39 10 50 -2 62 -19 19 -48 9 -86 -30 -40 -41 -61 -33 -61
26 0 38 3 45 25 50 14 4 36 4 49 0 14 -3 37 1 55 10 25 14 31 23 31 50 0 27
-8 41 -40 70 -42 38 -86 47 -124 24z m106 -45 c33 -31 37 -63 9 -63 -11 0 -23
-5 -27 -11 -4 -6 -19 -9 -37 -5 -72 14 -111 -121 -43 -152 26 -11 43 -4 82 35
23 23 27 24 36 10 6 -11 2 -29 -12 -57 -16 -31 -27 -40 -48 -42 -50 -3 -67 2
-92 28 -23 23 -25 31 -25 125 l0 101 33 29 c42 38 86 39 124 2z"/>
<path d="M2207 442 c-29 -31 -21 -42 29 -40 51 2 69 22 39 44 -26 19 -49 17
-68 -4z m53 -12 c0 -5 -9 -10 -21 -10 -11 0 -17 5 -14 10 3 6 13 10 21 10 8 0
14 -4 14 -10z"/>
<path d="M3332 484 c-12 -8 -27 -12 -32 -9 -17 10 -11 -22 6 -36 13 -11 16
-33 14 -129 -4 -150 -4 -147 27 -164 24 -12 31 -12 60 2 18 9 33 18 33 22 0 3
-9 24 -21 45 -18 35 -20 51 -14 130 5 79 3 94 -14 123 -24 37 -28 38 -59 16z
m38 -28 c7 -10 12 -58 13 -133 1 -65 6 -126 11 -135 11 -24 -20 -36 -41 -15
-12 12 -16 44 -17 156 -1 142 4 162 34 127z"/>
<path d="M6985 492 c-64 -4 -91 -28 -111 -101 -18 -61 -13 -144 11 -191 18
-35 103 -69 155 -63 60 8 99 94 60 133 -24 24 -46 17 -66 -21 -13 -25 -18 -28
-35 -19 -11 6 -24 22 -29 36 -19 49 -14 54 49 54 35 0 62 5 68 13 31 39 18
116 -25 144 -19 13 -42 17 -77 15z m67 -34 c23 -19 40 -76 28 -97 -6 -13 -23
-18 -65 -19 -31 -1 -60 -4 -65 -7 -6 -4 -10 -24 -10 -45 0 -31 6 -43 29 -59
38 -28 59 -26 73 3 26 57 58 32 42 -33 -8 -30 -14 -36 -39 -39 -16 -1 -50 3
-75 11 -58 16 -80 56 -80 145 0 74 20 129 52 142 34 13 92 12 110 -2z"/>
<path d="M6957 430 c-40 -32 -25 -50 39 -50 47 0 54 3 54 19 0 20 -34 51 -56
51 -6 0 -23 -9 -37 -20z m71 -17 c2 -9 -8 -13 -32 -13 -34 0 -44 8 -29 24 11
11 56 2 61 -11z"/>
<path d="M3835 214 c-9 -9 -15 -28 -13 -43 3 -23 8 -26 49 -29 30 -2 50 2 58
11 13 17 6 43 -15 51 -11 4 -13 0 -8 -19 6 -23 3 -25 -25 -25 -24 0 -31 4 -31
20 0 11 7 23 15 26 8 4 15 10 15 15 0 15 -27 10 -45 -7z"/>
<path d="M9189 209 c-14 -14 -19 -30 -17 -52 2 -27 8 -33 31 -35 52 -6 82 41
57 89 -14 25 -45 24 -71 -2z m54 -26 c6 -34 -7 -53 -33 -46 -22 6 -25 24 -10
54 15 28 37 23 43 -8z"/>
</g>
</svg>
