<?xml version="1.0" standalone="no"?>
<!DOCTYPE svg PUBLIC "-//W3C//DTD SVG 20010904//EN"
 "http://www.w3.org/TR/2001/REC-SVG-20010904/DTD/svg10.dtd">
<svg version="1.0" xmlns="http://www.w3.org/2000/svg"
 width="1000.000000pt" height="493.000000pt" viewBox="0 0 1000.000000 493.000000"
 preserveAspectRatio="xMidYMid meet">
<metadata>
Created by potrace 1.16, written by Peter Selinger 2001-2019
</metadata>
<g transform="translate(0.000000,493.000000) scale(0.100000,-0.100000)"
fill="#000000" stroke="none">
<path d="M2573 4824 c-4 -11 6 -27 30 -48 40 -34 94 -142 109 -216 5 -25 13
-90 18 -145 15 -148 28 -218 49 -270 7 -16 15 -46 18 -65 3 -19 12 -55 19 -79
8 -24 12 -52 9 -62 -4 -11 2 -34 15 -54 13 -21 17 -35 10 -35 -13 0 -11 -58 3
-77 6 -9 5 -13 -3 -13 -16 0 -5 -58 14 -74 15 -13 34 -82 28 -108 -6 -32 -22
-19 -22 19 0 29 -3 34 -12 25 -13 -13 -4 -87 27 -217 9 -38 20 -94 25 -123 4
-29 13 -58 18 -65 5 -7 17 -41 27 -77 9 -36 33 -96 52 -135 43 -85 137 -239
161 -263 26 -26 108 -72 116 -65 12 12 6 21 -29 37 -19 9 -35 23 -35 31 0 8
-5 15 -11 15 -6 0 -21 12 -33 26 -40 51 -154 262 -181 339 -9 28 -21 59 -25
70 -5 11 -14 44 -20 73 -12 53 -7 79 10 52 14 -22 12 -2 -6 55 -20 66 -36 217
-24 225 6 4 6 23 1 50 -7 37 -9 40 -10 15 -1 -23 -4 -26 -11 -15 -5 9 -8 47
-7 85 1 52 -3 77 -16 96 -10 15 -20 55 -24 93 -3 37 -10 69 -14 72 -5 3 -9 13
-9 24 0 23 37 16 43 -9 4 -14 5 -14 6 1 1 23 -28 58 -44 52 -8 -4 -22 34 -43
113 -26 98 -31 141 -34 253 -2 74 -6 138 -10 141 -5 3 -19 34 -33 69 l-25 65
54 -54 c30 -30 59 -50 65 -47 7 5 8 13 2 25 -15 27 -129 135 -153 144 -38 14
-10 20 38 8 53 -14 161 -64 184 -87 12 -12 12 -14 -3 -14 -9 0 -17 -4 -17 -10
0 -5 6 -10 14 -10 27 0 46 12 46 29 0 13 9 15 48 12 26 -2 52 -6 57 -10 12 -8
23 -7 48 4 31 13 140 -11 222 -49 74 -34 192 -122 180 -134 -3 -3 -11 0 -17 6
-7 7 -27 12 -45 12 -44 0 -43 -23 2 -44 19 -9 35 -21 35 -26 0 -6 11 -10 24
-10 26 0 43 -15 28 -24 -5 -3 -23 -1 -41 4 -17 5 -31 5 -31 1 0 -14 44 -28 82
-27 20 1 35 -1 32 -3 -2 -2 1 -10 7 -18 14 -16 5 -17 -22 -3 -15 9 -19 7 -19
-6 0 -16 -1 -16 -18 -1 -22 20 -52 22 -52 4 0 -17 20 -37 39 -37 8 0 28 -11
45 -24 28 -21 38 -23 90 -17 60 6 86 25 73 52 -14 29 -73 103 -91 113 -11 6
-28 19 -38 29 -10 9 -23 17 -29 17 -5 0 -7 4 -4 10 3 5 -14 23 -37 40 -24 16
-65 46 -93 65 -28 20 -101 53 -165 75 -96 33 -128 40 -193 40 -43 0 -87 -5
-98 -11 -16 -8 -25 -7 -37 4 -34 30 -143 78 -209 92 -89 19 -122 19 -130 -1z
m982 -474 c3 -6 -1 -7 -9 -4 -18 7 -21 14 -7 14 6 0 13 -4 16 -10z m93 -6 c14
-15 14 -16 -3 -13 -10 2 -20 10 -23 17 -5 17 6 15 26 -4z"/>
<path d="M6827 4783 c-14 -13 -6 -61 18 -108 31 -62 19 -72 -47 -39 -26 13
-55 24 -65 24 -10 0 -50 17 -88 38 -53 30 -86 40 -137 45 -70 6 -96 -5 -65
-28 10 -7 17 -23 17 -36 0 -13 6 -35 13 -49 64 -119 123 -216 168 -277 85
-112 109 -167 112 -255 1 -52 -2 -80 -12 -91 -7 -10 -10 -17 -6 -17 4 0 2 -7
-5 -15 -17 -20 21 -78 89 -135 53 -45 69 -77 75 -153 2 -32 -1 -47 -9 -47 -7
0 -24 -11 -40 -26 -15 -14 -29 -23 -32 -21 -2 3 4 24 13 48 22 59 28 102 20
145 -9 44 -31 40 -31 -7 -1 -19 -9 -76 -20 -126 -17 -80 -17 -99 -6 -135 7
-24 15 -56 19 -73 15 -64 51 -113 107 -147 30 -18 55 -40 55 -49 0 -18 42 -59
90 -88 36 -22 100 -29 100 -11 0 6 19 10 43 10 37 0 45 -4 60 -29 9 -16 17
-31 17 -34 0 -9 -27 -1 -53 16 -26 17 -57 23 -57 11 0 -4 25 -30 55 -58 38
-36 69 -79 105 -147 27 -54 50 -106 50 -116 0 -47 102 -285 139 -324 10 -11
31 -43 46 -72 15 -29 58 -92 96 -142 37 -49 78 -110 92 -135 13 -25 38 -70 56
-101 17 -30 40 -87 51 -125 11 -38 25 -85 31 -103 7 -19 18 -58 25 -85 11 -46
61 -194 79 -238 12 -31 44 -32 70 -3 24 25 25 30 20 138 -3 62 -8 168 -11 237
-2 69 -5 134 -6 145 -10 185 -15 392 -8 400 16 19 30 196 29 346 -2 130 -4
148 -17 136 -8 -8 -18 -30 -22 -48 -5 -23 -9 18 -11 124 -1 86 -3 169 -3 184
-1 24 4 29 34 34 88 16 134 65 149 157 8 51 -2 216 -17 282 -8 36 -59 80 -92
80 -25 0 -67 -36 -96 -82 -14 -22 -27 -38 -29 -36 -2 1 -6 21 -9 43 -11 75
-19 100 -51 170 -60 131 -127 174 -332 210 -81 15 -143 31 -154 41 -10 9 -20
38 -24 67 -13 93 -38 132 -117 175 -56 32 -58 2 -2 -43 51 -42 74 -81 74 -124
0 -41 28 -109 49 -121 21 -10 127 -35 196 -45 58 -8 99 -27 138 -64 53 -48 53
-54 2 -157 -48 -97 -59 -112 -70 -94 -4 6 12 44 34 85 22 41 37 75 32 75 -4 0
-15 -15 -24 -32 -31 -61 -66 -121 -77 -132 -23 -23 -8 24 35 107 25 48 45 90
45 93 0 18 -35 -36 -75 -117 l-47 -94 6 52 c3 33 15 67 32 93 15 22 25 43 22
45 -10 10 -39 -33 -56 -85 -10 -30 -24 -56 -32 -58 -13 -5 -12 10 5 51 4 10 3
17 -4 17 -6 0 -18 -25 -26 -55 -9 -30 -18 -55 -20 -55 -2 0 -2 18 1 40 3 26 1
40 -7 40 -8 0 -8 4 -2 13 6 6 13 26 17 42 l6 30 -20 -24 c-21 -25 -27 -13 -9
21 10 19 5 38 -7 25 -4 -3 -17 -37 -30 -74 -16 -50 -23 -60 -23 -40 -1 16 4
37 10 49 6 11 8 22 5 25 -3 4 -13 -10 -21 -30 -8 -21 -17 -37 -20 -37 -10 0 9
67 32 118 14 29 23 56 20 59 -12 11 -27 -10 -43 -62 -18 -57 -38 -76 -29 -27
3 15 -6 0 -19 -33 -15 -35 -25 -51 -25 -38 -1 34 37 113 54 113 8 0 15 5 15
10 0 6 -6 10 -13 10 -29 0 -62 -60 -91 -162 -18 -63 -35 -78 -29 -25 3 24 2
29 -6 17 -6 -8 -11 -30 -11 -48 0 -22 -4 -31 -11 -26 -8 4 -10 30 -7 75 3 38
2 69 -2 69 -4 0 -12 -26 -18 -57 -8 -45 -10 -49 -7 -15 2 23 -1 42 -6 42 -5 0
-9 -6 -9 -12 -1 -27 -18 19 -40 107 -12 50 -28 110 -36 135 -9 29 -15 102 -16
200 -2 99 -7 153 -13 150 -10 -5 -10 -109 2 -270 8 -117 9 -131 18 -162 5 -22
4 -28 -8 -28 -10 0 -18 20 -27 68 -14 72 -29 113 -30 77 0 -44 43 -261 54
-270 6 -5 18 -30 25 -55 8 -25 20 -55 28 -68 8 -13 12 -29 10 -35 -4 -12 -79
129 -92 173 -4 14 -18 53 -31 87 -14 35 -26 80 -28 100 -2 21 -14 65 -25 97
-12 33 -21 65 -21 73 0 7 -22 59 -49 116 -27 56 -52 117 -56 135 -9 42 -50 84
-79 80 -18 -3 -21 -9 -20 -50 0 -52 29 -94 67 -100 37 -5 153 -254 148 -318
-1 -14 5 -38 13 -55 37 -76 58 -169 62 -275 3 -61 1 -110 -4 -110 -23 0 -74
35 -102 68 -36 43 -50 88 -50 157 0 45 -4 55 -37 87 -50 50 -123 108 -134 108
-5 0 -4 12 2 28 28 70 40 139 33 187 -9 71 -73 200 -136 271 -29 34 -70 93
-90 130 l-38 69 43 -48 c46 -52 112 -93 122 -76 7 11 -20 59 -33 59 -4 0 -41
33 -81 73 -69 68 -72 72 -48 75 26 3 92 -23 200 -78 39 -20 73 -30 103 -30 43
0 45 -1 64 -44 17 -41 40 -68 40 -48 0 5 -11 34 -24 63 -66 153 -77 180 -71
189 11 19 22 1 59 -93 20 -51 49 -107 66 -125 25 -28 28 -36 19 -59 -7 -19 -6
-31 4 -47 14 -20 39 -112 52 -188 9 -55 29 -61 22 -7 -7 54 -21 122 -36 169
-6 19 -11 52 -11 72 0 21 -4 38 -10 38 -5 0 -10 14 -10 32 0 36 27 153 42 182
16 30 29 -2 14 -33 -15 -31 -40 -141 -33 -147 2 -3 14 11 25 30 25 42 62 62
121 65 24 1 60 9 79 16 19 8 36 15 37 15 2 0 3 -21 3 -47 -1 -27 2 -63 4 -82
7 -41 -11 -104 -58 -213 -20 -43 -41 -112 -48 -153 -7 -41 -19 -81 -26 -90
-10 -12 -10 -19 -2 -27 7 -7 12 -35 12 -64 0 -66 18 -84 50 -49 25 26 21 47
-5 25 -13 -11 -15 -9 -16 11 -3 85 4 124 32 170 34 58 37 74 7 39 l-21 -25 6
30 c13 67 21 92 42 125 45 73 70 152 68 215 -4 186 -14 207 -72 166 -19 -14
-57 -26 -94 -32 -34 -4 -73 -11 -86 -15 -21 -6 -23 -5 -16 12 22 54 34 109 26
117 -5 5 -19 7 -32 5 -18 -2 -27 -12 -35 -43 -6 -22 -13 -48 -17 -57 -4 -10
-9 -25 -12 -33 -2 -8 -16 -15 -30 -15 -21 0 -29 8 -45 46 -11 25 -20 52 -20
59 0 30 -53 58 -73 38z m153 -200 c-1 -27 -1 -27 -15 -9 -19 25 -19 36 0 36
10 0 15 -10 15 -27z m882 -870 c19 -49 38 -105 42 -126 8 -43 -1 -50 -58 -45
l-36 3 15 29 c9 16 14 34 12 40 -2 5 -12 -9 -23 -32 -19 -41 -34 -54 -34 -29
0 7 9 30 20 52 25 49 25 53 0 30 -10 -9 -24 -33 -31 -52 -7 -23 -14 -32 -21
-25 -9 9 5 46 50 135 2 4 0 7 -5 7 -4 0 -21 -24 -37 -53 -43 -77 -43 -40 0 50
39 83 52 103 64 103 3 0 23 -39 42 -87z m-666 -30 c9 -32 19 -65 21 -73 5 -20
-43 83 -52 109 -4 12 -2 21 4 21 6 0 18 -26 27 -57z m929 -39 c35 -14 53 -95
57 -255 2 -88 -14 -141 -49 -165 -15 -9 -63 -23 -107 -31 -45 -8 -85 -18 -90
-23 -6 -6 -22 -10 -38 -10 -37 0 -51 29 -53 112 -1 72 12 89 33 43 16 -34 29
-31 47 10 14 36 14 36 44 20 39 -20 38 -20 56 16 14 27 21 30 53 27 42 -3 43
1 17 72 -22 58 -30 157 -14 176 13 16 20 17 44 8z m-668 -36 c-3 -7 -5 -2 -5
12 0 14 2 19 5 13 2 -7 2 -19 0 -25z m-526 -35 c51 -77 185 -143 293 -143 54
0 70 5 112 32 27 18 52 37 56 44 4 6 35 23 69 39 75 33 130 31 229 -9 35 -14
79 -26 97 -26 l34 0 -3 -51 c-2 -36 1 -53 10 -57 9 -3 13 3 12 19 -1 13 -2 37
-1 52 2 46 25 26 29 -24 4 -54 8 -69 22 -69 13 0 13 60 1 93 -8 19 -6 27 5 31
10 4 14 -2 14 -22 1 -15 7 -44 14 -64 12 -33 11 -39 -4 -53 -27 -24 -51 -17
-113 33 -35 27 -71 28 -97 2 -22 -22 -27 -40 -33 -119 -3 -39 -9 -57 -23 -64
-11 -6 -64 -12 -119 -12 -55 0 -116 -4 -136 -9 -31 -7 -41 -4 -81 24 -37 26
-57 33 -104 35 -174 8 -287 57 -343 149 -30 48 -39 145 -16 179 24 37 47 34
76 -10z m223 1 c5 -14 4 -15 -9 -4 -17 14 -19 20 -6 20 5 0 12 -7 15 -16z
m136 -26 c0 -10 -4 -18 -10 -18 -5 0 -10 15 -10 33 0 24 3 28 10 17 5 -8 10
-23 10 -32z m756 -8 c1 -33 -1 -38 -12 -29 -21 17 -17 69 5 69 4 0 7 -18 7
-40z m-796 -6 c0 -14 -4 -23 -9 -20 -5 3 -7 15 -4 26 7 28 13 25 13 -6z m-116
1 c3 -8 1 -15 -4 -15 -6 0 -10 7 -10 15 0 8 2 15 4 15 2 0 6 -7 10 -15z m875
-32 c11 -21 29 -44 40 -51 24 -14 28 -32 7 -32 -7 0 -25 -11 -40 -25 -19 -18
-34 -24 -48 -19 -11 3 -17 8 -15 10 3 3 -2 26 -9 51 -18 58 -18 73 0 73 9 0
16 -17 21 -46 3 -25 13 -48 21 -51 26 -10 28 6 6 52 -12 25 -19 51 -16 60 9
21 11 20 33 -22z m-832 5 c-3 -8 -6 -5 -6 6 -1 11 2 17 5 13 3 -3 4 -12 1 -19z
m587 -178 l6 -35 -15 30 c-16 34 -20 64 -6 50 5 -6 12 -26 15 -45z m38 -73
c-5 -20 -5 -20 -13 1 -12 33 -39 18 -30 -16 4 -15 12 -27 18 -27 5 0 30 -20
55 -45 43 -43 69 -105 48 -112 -11 -3 10 -68 22 -68 4 0 3 12 -2 26 -13 32
-13 47 -1 39 5 -3 12 -19 16 -35 4 -17 11 -30 17 -30 6 0 7 8 3 18 -17 41 -17
52 -1 52 18 0 20 17 6 55 -9 23 -7 27 16 35 34 13 34 14 33 -17 -1 -17 -3 -21
-6 -10 -2 9 -9 17 -13 17 -11 0 7 -52 20 -60 5 -3 12 -26 15 -50 l6 -45 -16
30 -15 30 6 -30 c3 -16 10 -32 14 -35 15 -9 16 -241 2 -274 -16 -38 -24 -29
-33 42 -10 69 -41 182 -51 182 -4 0 -11 -8 -16 -17 -12 -22 -32 -170 -32 -230
0 -27 -4 -42 -10 -38 -5 3 -10 14 -10 23 0 9 -24 64 -54 122 -52 101 -79 129
-92 95 -6 -13 6 -194 21 -320 4 -40 4 -40 -13 11 -14 43 -46 106 -82 164 -6 8
-21 36 -35 63 -25 46 -57 63 -68 34 -6 -17 7 -100 27 -167 20 -69 21 -68 -10
-39 -46 43 -84 108 -217 374 -9 18 -9 19 14 4 13 -9 37 -40 52 -70 25 -49 27
-51 22 -19 -4 19 -13 45 -21 58 -13 19 -13 22 0 22 8 0 26 -21 38 -47 13 -26
30 -49 38 -51 9 -3 6 5 -7 24 -11 16 -26 47 -33 69 -14 46 -71 145 -82 145
-13 0 -9 -9 20 -53 36 -53 46 -80 30 -75 -7 2 -28 33 -45 68 -18 36 -33 59
-33 52 0 -16 40 -101 51 -108 5 -3 9 -10 9 -16 0 -20 -33 17 -52 58 -10 23
-24 44 -32 47 -8 3 -19 15 -25 25 -10 19 -7 20 51 19 l62 -2 30 -62 c31 -62
55 -87 36 -37 -12 31 -12 34 -2 34 4 0 14 -17 22 -37 9 -26 15 -32 18 -21 2
10 -4 28 -12 40 -18 25 -20 38 -7 38 5 0 15 -16 21 -36 7 -19 18 -38 25 -40 7
-3 25 -24 40 -46 15 -22 29 -37 32 -34 3 3 -2 17 -11 30 -9 14 -16 34 -16 44
0 10 -4 22 -8 28 -18 21 -31 63 -21 69 5 4 19 -14 30 -40 11 -26 29 -55 39
-65 9 -9 20 -24 22 -31 3 -8 8 -11 12 -7 4 3 2 17 -5 30 -7 12 -14 34 -15 48
0 14 -8 42 -18 63 -9 20 -14 37 -11 37 3 0 15 -21 26 -46 11 -26 22 -44 25
-41 3 3 -2 19 -11 37 -9 17 -14 37 -12 43 3 7 12 -5 21 -25 17 -41 32 -51 23
-17 -4 16 -3 18 9 8 16 -13 17 -6 5 38 -6 21 -5 35 2 42 17 17 24 13 32 -16 4
-16 10 -22 12 -15 3 6 11 12 19 12 19 0 18 10 -3 26 -14 11 -15 15 -5 22 9 6
11 18 6 37 -6 25 -5 27 13 23 12 -3 27 -2 34 3 17 10 28 -7 21 -34z m-703 -27
c36 -5 86 -10 111 -10 25 0 54 -8 65 -16 19 -14 15 -15 -50 -13 -38 1 -82 -1
-97 -5 -20 -6 -38 -1 -72 19 -48 28 -74 54 -41 41 10 -3 48 -11 84 -16z m421
-60 c0 -5 -4 -10 -10 -10 -5 0 -10 5 -10 10 0 6 5 10 10 10 6 0 10 -4 10 -10z
m-30 -10 c0 -5 -2 -10 -4 -10 -3 0 -8 5 -11 10 -3 6 -1 10 4 10 6 0 11 -4 11
-10z m37 -81 c14 -31 17 -49 10 -46 -13 4 -46 64 -47 85 -1 27 17 9 37 -39z
m388 -8 c-10 -9 -25 14 -24 37 l1 27 13 -30 c7 -16 12 -32 10 -34z m13 34 c-3
-3 -9 2 -12 12 -6 14 -5 15 5 6 7 -7 10 -15 7 -18z m-333 -22 c9 -36 -2 -42
-15 -8 -6 15 -13 32 -16 36 -3 5 2 6 10 3 8 -3 17 -17 21 -31z m321 -240 c-11
-11 -19 6 -11 24 8 17 8 17 12 0 3 -10 2 -21 -1 -24z m-126 -118 c26 -55 58
-121 70 -147 12 -27 25 -48 28 -48 4 0 6 55 6 122 -1 68 2 137 6 153 5 20 8
-8 10 -80 1 -60 5 -130 10 -155 5 -27 6 15 3 109 -4 108 -3 152 5 147 5 -3 13
-25 17 -49 22 -142 28 -167 40 -167 7 0 15 18 18 42 3 23 13 48 23 55 9 7 18
22 19 35 4 36 5 38 13 38 4 0 8 -33 9 -74 1 -65 -3 -81 -32 -142 -37 -76 -39
-98 -3 -38 17 30 24 34 26 21 2 -10 -3 -26 -11 -35 -8 -9 -29 -41 -47 -71 -28
-48 -30 -56 -16 -69 14 -14 16 -14 22 1 13 34 21 16 23 -48 1 -43 -3 -65 -10
-65 -9 0 -10 -32 -4 -122 11 -181 11 -183 0 -188 -6 -3 -13 27 -17 74 -4 44
-11 82 -16 85 -5 3 -12 15 -17 26 -8 18 -9 17 -13 -10 -2 -16 3 -43 11 -60 8
-16 20 -79 26 -140 6 -60 15 -111 21 -113 5 -2 11 -29 11 -60 1 -31 4 -47 6
-34 8 42 20 22 26 -45 14 -143 5 -200 -26 -175 -19 16 -81 229 -117 398 -22
102 -139 308 -243 427 -32 37 -69 85 -80 106 -12 22 -41 66 -64 99 -45 64 -73
119 -98 191 -16 46 -13 72 4 29 5 -13 43 -67 84 -120 40 -52 87 -118 102 -146
16 -29 29 -51 31 -49 2 1 -4 25 -12 52 -8 28 -22 73 -29 100 -8 28 -24 82 -36
121 -27 93 -23 124 10 69 13 -22 25 -51 26 -65 5 -40 49 -200 56 -200 4 0 -4
41 -17 91 -14 50 -23 93 -21 96 3 2 24 -35 47 -82 38 -76 72 -116 87 -101 3 2
-2 49 -10 103 -21 133 -30 267 -15 233 6 -14 32 -70 58 -125z m245 -273 c-10
-10 -16 -12 -13 -7 3 6 8 19 13 30 5 14 9 16 12 7 3 -8 -3 -21 -12 -30z m-2
-222 c3 -11 1 -23 -4 -26 -5 -3 -9 6 -9 20 0 31 6 34 13 6z m9 -395 c3 -14 1
-25 -3 -25 -5 0 -9 11 -9 25 0 14 2 25 4 25 2 0 6 -11 8 -25z"/>
<path d="M7682 3165 c6 -14 13 -24 14 -22 6 6 -9 47 -17 47 -5 0 -3 -11 3 -25z"/>
<path d="M7820 3141 c0 -5 11 -22 25 -37 24 -26 31 -22 19 11 -5 13 -8 14 -15
3 -7 -10 -9 -9 -9 4 0 9 -4 20 -10 23 -5 3 -10 2 -10 -4z"/>
<path d="M7780 3096 c0 -15 21 -56 29 -56 5 0 4 13 -2 30 -9 25 -27 42 -27 26z"/>
<path d="M7955 3010 c13 -42 24 -70 29 -70 8 0 -15 74 -26 85 -7 7 -8 2 -3
-15z"/>
<path d="M7845 3000 c14 -46 24 -58 25 -29 0 15 -7 33 -16 40 -15 12 -16 11
-9 -11z"/>
<path d="M7470 3004 c0 -11 42 -75 47 -71 2 3 -6 21 -18 41 -20 34 -29 44 -29
30z"/>
<path d="M7957 2920 c7 -25 23 -37 23 -17 0 8 -6 20 -14 26 -12 10 -13 8 -9
-9z"/>
<path d="M7776 2600 c3 -19 10 -42 15 -50 5 -9 6 -2 2 20 -3 19 -10 42 -15 50
-6 10 -7 3 -2 -20z"/>
<path d="M8025 2600 c-4 -12 -5 -24 -2 -27 3 -2 8 5 12 17 4 12 5 24 2 27 -3
2 -8 -5 -12 -17z"/>
<path d="M7928 2325 c-2 -26 0 -49 5 -52 13 -8 17 0 19 47 4 60 -19 65 -24 5z"/>
<path d="M7989 2320 c-5 -36 -3 -73 4 -77 4 -2 7 16 7 41 0 25 -2 46 -5 46 -3
0 -6 -4 -6 -10z"/>
<path d="M3110 4671 c0 -5 5 -13 10 -16 6 -3 10 -2 10 4 0 5 -4 13 -10 16 -5
3 -10 2 -10 -4z"/>
<path d="M6565 4660 c10 -11 26 -20 36 -20 10 0 21 -4 24 -10 3 -5 11 -10 17
-10 17 0 -11 28 -45 45 -41 21 -54 19 -32 -5z"/>
<path d="M3160 4654 c0 -9 7 -14 17 -12 25 5 28 28 4 28 -12 0 -21 -6 -21 -16z"/>
<path d="M3215 4630 c3 -5 10 -10 16 -10 5 0 9 5 9 10 0 6 -7 10 -16 10 -8 0
-12 -4 -9 -10z"/>
<path d="M2970 4620 c0 -5 5 -10 10 -10 6 0 10 5 10 10 0 6 -4 10 -10 10 -5 0
-10 -4 -10 -10z"/>
<path d="M3065 4621 c-6 -11 9 -23 19 -14 9 9 7 23 -3 23 -6 0 -12 -4 -16 -9z"/>
<path d="M3230 4600 c0 -5 13 -10 29 -10 17 0 33 5 36 10 4 6 -8 10 -29 10
-20 0 -36 -4 -36 -10z"/>
<path d="M6680 4596 c0 -2 7 -9 15 -16 12 -10 15 -10 15 4 0 9 -7 16 -15 16
-8 0 -15 -2 -15 -4z"/>
<path d="M2910 4580 c0 -5 5 -10 10 -10 6 0 10 5 10 10 0 6 -4 10 -10 10 -5 0
-10 -4 -10 -10z"/>
<path d="M3120 4580 c0 -5 5 -10 10 -10 6 0 10 5 10 10 0 6 -4 10 -10 10 -5 0
-10 -4 -10 -10z"/>
<path d="M3180 4574 c0 -8 5 -12 10 -9 6 3 10 10 10 16 0 5 -4 9 -10 9 -5 0
-10 -7 -10 -16z"/>
<path d="M3325 4580 c-14 -5 -8 -9 24 -14 24 -4 45 -5 47 -3 8 8 -54 23 -71
17z"/>
<path d="M3270 4550 c0 -5 16 -10 36 -10 21 0 33 4 29 10 -3 6 -19 10 -36 10
-16 0 -29 -4 -29 -10z"/>
<path d="M3224 4535 c-18 -15 -18 -15 5 -13 14 2 26 9 29 16 5 17 -10 15 -34
-3z"/>
<path d="M2806 4521 c-4 -7 -5 -15 -2 -18 9 -9 19 4 14 18 -4 11 -6 11 -12 0z"/>
<path d="M3145 4510 c-3 -5 -1 -10 4 -10 6 0 11 5 11 10 0 6 -2 10 -4 10 -3 0
-8 -4 -11 -10z"/>
<path d="M3310 4509 c0 -20 95 -64 105 -49 4 6 -7 13 -24 16 -33 7 -37 14 -20
31 9 9 3 11 -25 10 -20 -1 -36 -5 -36 -8z"/>
<path d="M2976 4503 c-4 -4 -17 -8 -29 -8 -17 0 -22 -7 -25 -39 -3 -31 1 -41
20 -54 29 -21 51 -17 83 12 27 25 26 45 -3 79 -16 18 -34 22 -46 10z"/>
<path d="M2890 4480 c0 -5 7 -10 16 -10 8 0 12 5 9 10 -3 6 -10 10 -16 10 -5
0 -9 -4 -9 -10z"/>
<path d="M3290 4470 c0 -5 5 -10 11 -10 5 0 7 5 4 10 -3 6 -8 10 -11 10 -2 0
-4 -4 -4 -10z"/>
<path d="M3126 4461 c-4 -7 -5 -15 -2 -18 9 -9 19 4 14 18 -4 11 -6 11 -12 0z"/>
<path d="M6945 4418 c13 -29 36 -96 50 -148 43 -158 69 -234 82 -237 7 -3 6
10 -4 39 -8 24 -23 75 -33 113 -33 131 -52 190 -78 238 -34 64 -47 60 -17 -5z"/>
<path d="M7125 4454 c-9 -10 -15 -34 -15 -64 0 -39 4 -52 20 -60 17 -9 23 -6
40 22 27 44 23 98 -7 109 -16 6 -27 3 -38 -7z"/>
<path d="M3235 4431 c-19 -8 -19 -8 2 -15 24 -8 43 -1 43 15 0 11 -17 11 -45
0z"/>
<path d="M3190 4419 c0 -5 5 -7 10 -4 6 3 10 8 10 11 0 2 -4 4 -10 4 -5 0 -10
-5 -10 -11z"/>
<path d="M3355 4410 c3 -5 15 -10 26 -10 10 0 19 5 19 10 0 6 -12 10 -26 10
-14 0 -23 -4 -19 -10z"/>
<path d="M2820 4401 c0 -12 29 -35 36 -28 11 10 -5 37 -21 37 -8 0 -15 -4 -15
-9z"/>
<path d="M3173 4373 c-21 -8 -15 -35 7 -31 10 2 25 -5 32 -14 11 -15 15 -15
32 -3 19 15 13 40 -9 31 -8 -3 -19 2 -25 10 -13 15 -17 16 -37 7z"/>
<path d="M3090 4347 c0 -23 36 -49 62 -44 20 4 19 5 -9 12 -18 4 -33 13 -33
21 0 7 -4 16 -10 19 -5 3 -10 0 -10 -8z"/>
<path d="M2880 4330 c0 -5 5 -10 10 -10 6 0 10 -4 10 -9 0 -4 -23 -4 -52 0
-29 5 -54 6 -57 4 -10 -10 11 -18 60 -23 54 -5 78 10 57 35 -12 15 -28 17 -28
3z"/>
<path d="M3270 4326 c0 -9 7 -16 16 -16 9 0 14 5 12 12 -6 18 -28 21 -28 4z"/>
<path d="M3208 4285 c13 -9 26 -14 29 -11 8 8 3 12 -27 21 l-25 7 23 -17z"/>
<path d="M3496 4253 c-8 -27 -10 -52 -5 -57 5 -6 4 -15 -3 -23 -9 -11 -7 -15
8 -19 10 -3 30 -23 44 -45 13 -22 36 -47 50 -56 14 -9 29 -22 33 -30 4 -7 22
-20 40 -29 52 -27 196 -190 272 -308 62 -97 130 -244 175 -376 23 -69 47 -134
53 -145 14 -24 37 -87 37 -99 0 -5 -9 -1 -20 9 -27 24 -26 2 2 -35 13 -18 31
-30 45 -30 26 0 29 12 9 43 -8 12 -49 124 -90 249 -42 125 -90 253 -107 285
-18 32 -42 77 -55 101 -65 122 -239 320 -330 378 -66 41 -126 120 -119 155 7
30 -3 79 -16 79 -5 0 -15 -21 -23 -47z"/>
<path d="M2984 4275 c-3 -8 -3 -18 0 -24 9 -14 62 -24 86 -16 27 9 25 25 -3
25 -13 0 -32 7 -43 15 -24 18 -33 19 -40 0z"/>
<path d="M1538 4249 c-17 -9 -17 -12 -2 -42 16 -30 67 -87 78 -87 14 0 4 31
-19 58 -14 17 -24 40 -23 52 3 26 -10 34 -34 19z"/>
<path d="M2830 4240 c0 -5 5 -10 11 -10 5 0 7 5 4 10 -3 6 -8 10 -11 10 -2 0
-4 -4 -4 -10z"/>
<path d="M3357 4244 c-10 -11 3 -24 24 -24 23 0 25 15 3 24 -19 7 -19 7 -27 0z"/>
<path d="M3090 4199 c17 -11 117 -62 143 -72 9 -3 17 -3 17 1 0 11 -141 82
-160 82 -13 0 -13 -1 0 -11z"/>
<path d="M2850 4190 c0 -5 5 -10 10 -10 6 0 10 5 10 10 0 6 -4 10 -10 10 -5 0
-10 -4 -10 -10z"/>
<path d="M2953 4190 c-30 -12 -29 -30 1 -30 13 0 35 -9 49 -20 33 -26 44 -10
20 30 -18 31 -32 35 -70 20z"/>
<path d="M2896 4181 c-4 -5 -2 -12 3 -15 5 -4 12 -2 15 3 4 5 2 12 -3 15 -5 4
-12 2 -15 -3z"/>
<path d="M3100 4173 c0 -5 5 -14 11 -20 14 -14 2 -53 -17 -53 -8 0 -14 -4 -14
-10 0 -5 7 -10 15 -10 8 0 15 4 15 8 0 5 6 17 14 27 13 18 16 17 80 -18 36
-20 66 -32 66 -27 0 6 -4 10 -9 10 -5 0 -40 21 -78 46 -37 25 -71 48 -75 50
-5 3 -8 1 -8 -3z"/>
<path d="M3425 4171 c-3 -5 -1 -12 5 -16 5 -3 10 1 10 9 0 18 -6 21 -15 7z"/>
<path d="M7244 4138 c-4 -7 -14 -23 -22 -35 -23 -36 0 -27 31 12 20 25 24 35
13 35 -8 0 -18 -6 -22 -12z"/>
<path d="M2840 4121 c0 -11 4 -22 9 -25 5 -3 8 5 7 19 -1 29 -16 34 -16 6z"/>
<path d="M2955 4130 c3 -5 8 -10 11 -10 2 0 4 5 4 10 0 6 -5 10 -11 10 -5 0
-7 -4 -4 -10z"/>
<path d="M3415 4130 c-8 -13 4 -50 16 -50 5 0 9 9 9 20 0 11 5 20 10 20 6 0
10 5 10 10 0 13 -37 13 -45 0z"/>
<path d="M3060 4114 c0 -17 22 -14 28 4 2 7 -3 12 -12 12 -9 0 -16 -7 -16 -16z"/>
<path d="M3260 4120 c0 -10 41 -30 58 -30 10 1 -39 40 -49 40 -5 0 -9 -5 -9
-10z"/>
<path d="M1392 4107 c-14 -17 30 -67 59 -67 21 0 21 1 6 18 -10 10 -17 23 -17
28 0 5 -9 15 -19 21 -15 9 -22 9 -29 0z"/>
<path d="M2910 4110 c0 -5 5 -10 10 -10 6 0 10 5 10 10 0 6 -4 10 -10 10 -5 0
-10 -4 -10 -10z"/>
<path d="M1626 4091 c-3 -5 17 -46 45 -90 29 -45 50 -83 48 -86 -3 -2 -32 14
-66 36 -34 21 -66 39 -71 39 -5 0 -15 7 -22 15 -7 8 -16 12 -21 9 -18 -10 -8
-23 29 -40 20 -10 53 -30 72 -46 19 -15 40 -28 46 -28 6 0 17 -7 24 -15 7 -8
21 -15 31 -15 10 0 21 -4 24 -10 4 -6 -1 -7 -11 -3 -14 5 -15 3 -5 -15 7 -12
18 -22 26 -22 18 0 59 -77 45 -85 -22 -14 90 -229 164 -316 116 -134 196 -233
196 -240 0 -10 -84 -19 -145 -18 -27 1 -69 -1 -91 -5 -28 -5 -44 -4 -49 4 -5
7 -11 8 -19 1 -13 -11 -180 -26 -259 -23 -38 1 -61 10 -118 47 -59 38 -74 54
-94 98 -15 33 -49 76 -92 117 -103 99 -149 126 -181 107 -20 -13 5 -49 28 -42
25 8 73 -17 137 -72 52 -45 108 -127 97 -144 -7 -12 -120 -11 -169 2 -96 26
-104 25 -85 -10 8 -16 24 -18 144 -17 128 1 136 0 145 -20 5 -11 15 -21 23
-21 18 0 108 -52 108 -63 0 -12 -157 -140 -164 -133 -8 9 -46 -27 -46 -44 0
-33 31 -23 77 25 27 27 74 70 105 95 31 25 53 48 50 52 -4 4 9 -1 28 -11 27
-14 55 -18 123 -17 50 0 94 6 100 12 8 8 -10 11 -68 11 -103 0 -89 12 20 17
70 3 84 1 79 -11 -8 -21 12 -29 29 -11 12 12 17 12 26 1 15 -18 244 -21 259
-4 8 10 -13 13 -103 13 -78 0 -118 4 -127 13 -10 9 8 12 88 14 100 2 163 5
177 7 13 2 -20 56 -65 108 -23 26 -61 75 -86 108 -24 33 -59 77 -78 97 -19 20
-34 41 -34 45 1 4 19 -12 40 -37 53 -60 51 -37 -4 37 -24 33 -60 96 -80 142
-21 45 -60 119 -88 164 -28 45 -77 127 -109 182 -56 98 -71 115 -83 96z"/>
<path d="M3162 4080 c13 -20 28 -27 28 -12 0 10 -22 32 -32 32 -5 0 -3 -9 4
-20z"/>
<path d="M3511 4084 c0 -11 3 -14 6 -6 3 7 2 16 -1 19 -3 4 -6 -2 -5 -13z"/>
<path d="M3120 4080 c0 -5 5 -10 10 -10 6 0 10 5 10 10 0 6 -4 10 -10 10 -5 0
-10 -4 -10 -10z"/>
<path d="M7232 4063 c-6 -16 -14 -39 -18 -53 l-6 -25 24 23 c16 14 25 33 25
52 0 37 -11 39 -25 3z"/>
<path d="M2905 4070 c3 -5 8 -10 11 -10 2 0 4 5 4 10 0 6 -5 10 -11 10 -5 0
-7 -4 -4 -10z"/>
<path d="M2980 4050 c0 -5 5 -10 10 -10 6 0 10 5 10 10 0 6 -4 10 -10 10 -5 0
-10 -4 -10 -10z"/>
<path d="M3475 4040 c-3 -6 1 -13 10 -16 19 -8 30 0 20 15 -8 14 -22 14 -30 1z"/>
<path d="M3106 4019 c-23 -27 -17 -32 13 -10 13 10 19 21 14 24 -5 3 -17 -3
-27 -14z"/>
<path d="M3040 4006 c0 -21 36 -53 68 -59 25 -5 25 -4 7 9 -10 8 -24 14 -31
14 -7 0 -14 10 -16 22 -3 25 -28 37 -28 14z"/>
<path d="M3000 3990 c0 -11 5 -20 10 -20 6 0 10 9 10 20 0 11 -4 20 -10 20 -5
0 -10 -9 -10 -20z"/>
<path d="M2900 3990 c0 -6 4 -9 9 -5 6 3 15 -3 21 -12 10 -17 11 -16 8 2 -3
21 -38 35 -38 15z"/>
<path d="M2960 3981 c0 -17 18 -21 24 -6 3 9 0 15 -9 15 -8 0 -15 -4 -15 -9z"/>
<path d="M3240 3965 c0 -8 4 -15 9 -15 5 0 11 7 15 15 3 9 0 15 -9 15 -8 0
-15 -7 -15 -15z"/>
<path d="M3195 3960 c3 -5 10 -10 16 -10 5 0 9 5 9 10 0 6 -7 10 -16 10 -8 0
-12 -4 -9 -10z"/>
<path d="M3332 3923 c-7 -10 -10 -12 -7 -5 4 8 -4 12 -26 12 l-33 0 21 -20
c18 -16 27 -17 55 -10 18 6 52 10 75 10 24 0 43 4 43 9 0 26 -109 29 -128 4z"/>
<path d="M2880 3913 c0 -12 5 -25 10 -28 13 -8 13 15 0 35 -8 12 -10 11 -10
-7z"/>
<path d="M3050 3923 c0 -4 5 -15 10 -23 8 -13 10 -13 10 2 0 9 -4 20 -10 23
-5 3 -10 3 -10 -2z"/>
<path d="M3100 3912 c0 -4 9 -8 20 -8 11 0 20 4 20 8 0 4 -9 8 -20 8 -11 0
-20 -4 -20 -8z"/>
<path d="M2937 3890 c-23 -28 -22 -30 17 -30 19 0 39 7 47 16 12 15 11 16 -8
10 -14 -5 -24 -2 -30 8 -8 14 -11 13 -26 -4z"/>
<path d="M3253 3896 c5 -12 0 -16 -18 -16 -14 0 -25 -4 -25 -9 0 -8 33 -21 56
-21 16 0 11 53 -5 58 -10 3 -12 0 -8 -12z"/>
<path d="M3020 3888 c0 -18 18 -34 28 -24 3 4 -2 14 -11 23 -16 16 -17 16 -17
1z"/>
<path d="M7210 3880 c0 -5 4 -10 9 -10 6 0 13 5 16 10 3 6 -1 10 -9 10 -9 0
-16 -4 -16 -10z"/>
<path d="M7268 3873 c-9 -2 -24 -15 -32 -28 -25 -38 0 -41 34 -5 39 42 39 44
-2 33z"/>
<path d="M3497 3836 c-39 -12 -106 -70 -94 -82 4 -4 22 7 41 25 28 28 40 32
85 33 43 0 51 3 51 19 0 22 -24 23 -83 5z"/>
<path d="M3330 3824 c0 -8 5 -12 10 -9 6 4 8 11 5 16 -9 14 -15 11 -15 -7z"/>
<path d="M3143 3814 c-7 -19 4 -47 16 -39 6 3 8 12 4 20 -4 11 -1 13 12 9 12
-5 16 -3 13 6 -6 18 -38 21 -45 4z"/>
<path d="M2980 3803 c0 -20 17 -50 24 -43 2 3 2 17 -1 33 -6 30 -23 37 -23 10z"/>
<path d="M3100 3809 c0 -21 25 -54 33 -43 3 5 -3 21 -14 34 -13 18 -19 20 -19
9z"/>
<path d="M3020 3803 c0 -22 19 -63 30 -63 6 0 5 10 -2 28 -14 33 -28 50 -28
35z"/>
<path d="M3060 3786 c0 -7 7 -19 15 -26 16 -13 20 -3 9 24 -8 20 -24 21 -24 2z"/>
<path d="M2946 3767 c3 -10 9 -15 12 -12 3 3 0 11 -7 18 -10 9 -11 8 -5 -6z"/>
<path d="M3307 3760 c3 -11 9 -20 14 -20 5 0 9 9 9 20 0 11 -6 20 -14 20 -9 0
-12 -7 -9 -20z"/>
<path d="M7317 3773 c-11 -18 -19 -78 -9 -68 5 6 12 25 15 43 6 30 3 41 -6 25z"/>
<path d="M3381 3704 c-7 -19 -11 -38 -8 -41 6 -5 37 50 37 67 0 23 -17 8 -29
-26z"/>
<path d="M3130 3705 c0 -8 5 -15 10 -15 6 0 10 7 10 15 0 8 -4 15 -10 15 -5 0
-10 -7 -10 -15z"/>
<path d="M3310 3696 c0 -8 5 -18 10 -21 6 -3 10 3 10 14 0 12 -4 21 -10 21 -5
0 -10 -6 -10 -14z"/>
<path d="M2971 3678 c-1 -15 4 -30 9 -33 12 -7 12 12 0 40 -8 18 -9 17 -9 -7z"/>
<path d="M3070 3681 c0 -11 5 -23 10 -26 6 -3 10 3 10 14 0 11 -4 23 -10 26
-5 3 -10 -3 -10 -14z"/>
<path d="M3020 3673 c0 -12 5 -25 10 -28 13 -8 13 15 0 35 -8 12 -10 11 -10
-7z"/>
<path d="M2951 3654 c0 -11 3 -14 6 -6 3 7 2 16 -1 19 -3 4 -6 -2 -5 -13z"/>
<path d="M3762 3648 c6 -16 36 -34 44 -25 9 9 -15 37 -33 37 -8 0 -13 -5 -11
-12z"/>
<path d="M3357 3638 c-7 -20 12 -149 29 -193 8 -22 29 -70 46 -108 31 -67 32
-91 3 -67 -16 13 -18 10 -9 -14 3 -9 10 -13 15 -10 16 10 79 -73 79 -104 0 -8
16 -34 36 -58 20 -25 34 -48 30 -52 -7 -7 -31 19 -39 41 -2 7 -9 7 -20 1 -15
-9 -15 -13 8 -46 14 -20 25 -50 25 -67 0 -16 5 -33 10 -36 6 -3 10 -15 10 -26
0 -10 5 -19 10 -19 6 0 8 11 4 25 -4 17 -2 25 6 25 9 0 8 7 -4 23 -33 46 -38
57 -23 57 7 0 24 -22 37 -50 26 -56 37 -62 46 -25 5 21 9 23 21 14 8 -8 12
-22 8 -38 -4 -21 1 -30 27 -49 19 -13 34 -18 36 -12 5 14 -44 60 -54 51 -4 -3
-4 0 0 7 8 13 21 6 115 -66 24 -18 76 -49 115 -68 39 -20 91 -46 116 -59 25
-14 79 -38 120 -55 41 -17 91 -40 111 -50 76 -41 115 -12 60 44 -35 36 -38 46
-16 46 27 0 16 42 -23 89 -72 88 -71 86 -32 62 66 -40 95 -19 52 37 -27 35
-49 44 -32 12 14 -27 6 -25 -45 10 -76 52 -75 34 6 -77 33 -46 59 -88 57 -93
-6 -17 -85 28 -104 59 -17 29 -34 41 -34 23 0 -4 36 -45 80 -91 44 -47 80 -91
80 -99 0 -7 -3 -12 -7 -10 -73 34 -124 65 -128 78 -5 14 -51 52 -190 154 -112
82 -281 273 -322 363 -9 21 -22 45 -28 53 -6 8 -20 41 -30 73 -11 32 -21 54
-23 49 -3 -10 40 -135 66 -192 60 -129 258 -342 392 -420 67 -39 141 -98 110
-86 -62 21 -148 61 -165 75 -11 9 -36 25 -55 34 -115 57 -293 201 -360 292
-22 30 -40 58 -40 62 0 4 -7 22 -16 38 -35 66 -105 231 -124 292 -11 36 -20
87 -20 114 0 46 -12 65 -23 37z m286 -685 c2 -12 1 -20 -4 -17 -10 6 -39 64
-39 78 1 18 38 -36 43 -61z"/>
<path d="M3520 3636 c0 -1 5 -17 11 -34 12 -35 35 -48 55 -31 20 17 17 29 -7
29 -12 0 -23 8 -26 20 -3 11 -12 20 -19 20 -8 0 -14 -2 -14 -4z"/>
<path d="M3715 3631 c-6 -11 33 -36 42 -27 7 7 -16 36 -28 36 -4 0 -10 -4 -14
-9z"/>
<path d="M3088 3605 c-4 -20 -2 -35 8 -45 12 -12 14 -12 13 5 -1 11 -4 31 -8
45 l-7 25 -6 -30z"/>
<path d="M3140 3614 c0 -8 5 -12 10 -9 6 4 8 11 5 16 -9 14 -15 11 -15 -7z"/>
<path d="M3454 3618 c-3 -5 -2 -14 4 -20 12 -12 42 -4 42 11 0 13 -39 21 -46
9z"/>
<path d="M3630 3599 c0 -31 32 -79 52 -79 27 0 22 27 -7 34 -20 5 -25 13 -25
36 0 17 -4 30 -10 30 -5 0 -10 -9 -10 -21z"/>
<path d="M3870 3612 c0 -5 6 -16 13 -27 16 -20 31 -7 21 19 -6 16 -34 23 -34
8z"/>
<path d="M2944 3555 c3 -22 8 -62 12 -90 4 -27 11 -57 15 -65 6 -10 8 -3 5 20
-3 19 -8 60 -11 90 -3 30 -10 62 -16 70 -7 11 -9 4 -5 -25z"/>
<path d="M3305 3570 c-8 -13 13 -60 27 -60 11 0 10 2 -6 40 -9 22 -16 28 -21
20z"/>
<path d="M3040 3553 c0 -13 5 -23 10 -23 13 0 13 11 0 30 -8 12 -10 11 -10 -7z"/>
<path d="M3000 3530 c0 -11 4 -20 9 -20 5 0 7 9 4 20 -3 11 -7 20 -9 20 -2 0
-4 -9 -4 -20z"/>
<path d="M3487 3533 c-8 -7 1 -79 13 -108 5 -11 18 -49 30 -85 11 -36 30 -76
41 -90 l20 -25 -14 30 c-7 17 -19 50 -26 75 -8 25 -20 62 -27 83 -18 49 -18
53 4 35 28 -25 62 -32 62 -13 0 9 -8 19 -18 21 -9 3 -27 23 -40 45 -22 38 -32
46 -45 32z"/>
<path d="M3730 3518 c0 -7 9 -28 20 -45 22 -36 53 -43 69 -15 9 16 11 15 26
-5 18 -26 45 -31 45 -9 0 18 -72 48 -84 35 -19 -17 -37 -9 -47 21 -11 30 -29
41 -29 18z"/>
<path d="M3590 3483 c0 -12 24 -75 37 -98 6 -12 23 -27 38 -35 15 -8 51 -57
90 -125 78 -134 200 -281 286 -346 35 -26 66 -45 69 -42 3 3 -32 39 -77 81
-90 84 -165 172 -238 276 -41 60 -46 70 -31 78 24 13 20 28 -8 28 -20 0 -27 8
-39 43 -11 32 -19 42 -34 40 -26 -3 -54 27 -62 68 -6 28 -31 55 -31 32z"/>
<path d="M3077 3473 c-7 -11 10 -40 18 -31 4 4 3 14 -3 24 -5 9 -12 12 -15 7z"/>
<path d="M3227 3474 c-8 -8 1 -24 14 -24 5 0 9 7 9 15 0 15 -12 20 -23 9z"/>
<path d="M3915 3460 c3 -5 10 -10 16 -10 5 0 9 5 9 10 0 6 -7 10 -16 10 -8 0
-12 -4 -9 -10z"/>
<path d="M3040 3430 c0 -5 5 -10 11 -10 5 0 7 5 4 10 -3 6 -8 10 -11 10 -2 0
-4 -4 -4 -10z"/>
<path d="M3170 3418 c0 -9 5 -20 11 -23 17 -11 20 0 4 21 -13 17 -14 17 -15 2z"/>
<path d="M3341 3398 c-1 -15 4 -30 9 -33 12 -7 12 12 0 40 -8 18 -9 17 -9 -7z"/>
<path d="M2057 3386 c28 -37 113 -136 164 -191 26 -27 59 -65 74 -83 35 -42
113 -115 236 -223 111 -96 227 -168 314 -194 132 -39 216 -67 212 -71 -7 -7
-150 32 -248 66 -92 33 -194 97 -279 176 -30 29 -83 73 -118 99 -35 26 -87 70
-117 96 -29 27 -56 49 -59 49 -15 0 -4 -30 15 -40 11 -7 82 -65 156 -131 164
-143 332 -259 376 -259 10 0 17 -3 17 -7 0 -7 38 -20 160 -55 19 -6 43 -14 52
-19 10 -5 26 -9 35 -9 10 0 37 -7 61 -15 24 -9 48 -13 53 -10 5 4 9 -5 9 -18
0 -14 7 -30 15 -37 13 -11 15 -6 15 37 0 36 6 58 21 77 11 14 19 31 17 38 -6
16 -58 -43 -58 -65 0 -13 -5 -17 -16 -13 -9 3 -21 6 -27 6 -6 0 -3 6 8 13 21
16 13 37 -14 37 -10 0 -62 16 -117 35 -54 19 -108 35 -119 35 -37 0 -171 66
-236 115 -60 46 -94 76 -224 201 -30 29 -69 61 -87 72 -18 12 -42 35 -53 52
-11 17 -41 49 -67 70 -26 22 -75 74 -109 115 -34 41 -66 75 -71 75 -5 0 -1
-11 9 -24z m1040 -772 c-3 -3 -12 -4 -19 -1 -8 3 -5 6 6 6 11 1 17 -2 13 -5z"/>
<path d="M2997 3379 c-9 -34 -9 -77 1 -83 5 -3 8 9 7 27 -1 18 1 34 5 37 4 3
4 14 0 24 -6 18 -7 18 -13 -5z"/>
<path d="M3110 3360 c0 -5 5 -10 10 -10 6 0 10 5 10 10 0 6 -4 10 -10 10 -5 0
-10 -4 -10 -10z"/>
<path d="M3807 3289 c10 -17 27 -38 38 -48 11 -9 39 -48 63 -88 49 -84 101
-144 191 -220 102 -87 85 -50 -25 55 -86 83 -124 129 -189 229 -7 11 -6 17 3
20 6 3 12 11 12 19 0 8 7 14 15 14 8 0 15 5 15 10 0 17 -15 11 -39 -14 -28
-30 -44 -25 -61 19 -8 19 -20 35 -27 35 -11 0 -10 -7 4 -31z"/>
<path d="M2960 3289 c0 -25 21 -79 31 -79 13 0 11 10 -11 55 -11 22 -19 33
-20 24z"/>
<path d="M3994 3285 c-4 -9 -2 -26 4 -38 5 -12 13 -30 16 -39 3 -10 10 -18 16
-18 15 0 12 36 -4 49 -8 7 -12 20 -9 30 6 24 -15 38 -23 16z"/>
<path d="M3380 3258 c0 -15 5 -30 10 -33 13 -8 13 25 0 45 -8 12 -10 9 -10
-12z"/>
<path d="M3380 3205 c0 -2 7 -8 15 -15 12 -10 15 -10 15 2 0 8 -7 15 -15 15
-8 0 -15 -1 -15 -2z"/>
<path d="M3587 3193 c18 -48 66 -111 146 -193 26 -27 47 -54 47 -60 0 -5 5
-10 10 -10 20 0 9 20 -43 77 -63 69 -117 142 -117 158 0 12 -32 45 -43 45 -3
0 -3 -8 0 -17z"/>
<path d="M3950 3205 c0 -17 105 -128 117 -124 6 2 -18 33 -53 69 -35 35 -64
60 -64 55z"/>
<path d="M3462 3125 c6 -14 13 -23 16 -21 7 7 -9 46 -18 46 -5 0 -4 -11 2 -25z"/>
<path d="M3451 3085 c-1 -20 27 -89 38 -93 6 -2 11 -2 11 0 0 10 -49 102 -49
93z"/>
<path d="M3480 3081 c0 -5 5 -13 10 -16 6 -3 10 -2 10 4 0 5 -4 13 -10 16 -5
3 -10 2 -10 -4z"/>
<path d="M4836 3038 c-9 -49 -6 -557 4 -563 4 -3 11 -67 15 -142 4 -76 12
-147 18 -157 5 -11 13 -52 18 -90 29 -255 40 -387 36 -427 -5 -37 -2 -51 14
-68 37 -40 49 -24 38 54 -4 27 -12 109 -19 180 -14 154 -38 328 -50 370 -17
57 -33 241 -36 400 -1 88 -4 231 -5 318 -2 112 -6 157 -15 157 -6 0 -14 -15
-18 -32z"/>
<path d="M4705 3037 c-4 -13 -4 -84 -2 -158 7 -180 8 -572 1 -578 -2 -3 -33 3
-67 13 -34 10 -98 26 -142 36 -184 42 -233 52 -280 62 -75 14 -90 28 -103 94
-7 31 -12 80 -12 108 0 37 -3 47 -10 36 -12 -18 -12 -99 -1 -158 5 -23 5 -45
1 -47 -8 -5 -30 71 -30 104 0 12 -4 21 -10 21 -12 0 -12 -13 1 -69 5 -24 8
-45 6 -48 -3 -2 -24 3 -48 11 -24 8 -87 21 -139 30 -52 9 -108 20 -125 25
l-30 8 40 7 c106 18 121 26 144 71 25 50 26 65 6 65 -10 0 -15 -10 -15 -34 0
-18 -6 -39 -13 -45 -13 -10 -159 -42 -165 -36 -2 2 1 13 8 24 7 14 21 21 39
21 30 0 45 18 31 39 -5 9 -15 6 -35 -13 -32 -30 -87 -43 -120 -28 -29 13 -105
4 -127 -16 -39 -33 -31 -149 9 -145 13 1 24 -7 31 -22 7 -14 16 -25 21 -25 20
0 23 23 6 54 -17 31 -17 35 -1 66 19 38 20 43 6 35 -5 -3 -10 -2 -10 3 0 5 12
10 26 10 18 0 24 -5 20 -15 -4 -9 -1 -13 6 -10 7 2 12 11 10 21 -3 19 -3 20
38 2 30 -12 31 -14 14 -24 -24 -13 -19 -15 96 -37 142 -27 179 -36 340 -82 85
-25 225 -62 310 -83 85 -21 180 -46 210 -55 64 -20 130 -27 130 -14 0 5 -5 9
-10 9 -7 0 -7 7 0 20 8 16 8 22 -3 26 -12 4 -14 44 -14 217 1 334 -6 520 -20
524 -7 3 -15 -7 -18 -20z m-1153 -502 c3 -14 1 -28 -3 -31 -5 -3 -9 -14 -9
-25 0 -10 -4 -19 -9 -19 -22 0 -29 78 -9 98 15 15 25 8 30 -23z"/>
<path d="M3669 2820 c13 -11 28 -20 33 -20 6 0 -1 9 -15 20 -33 26 -49 26 -18
0z"/>
<path d="M3752 2764 c2 -11 8 -18 13 -16 15 3 12 25 -3 30 -9 3 -13 -2 -10
-14z"/>
<path d="M3408 2684 c-23 -12 -38 -34 -25 -34 13 0 67 33 67 41 0 12 -10 11
-42 -7z"/>
<path d="M3272 2647 c-41 -44 -52 -137 -17 -150 21 -9 23 1 13 45 -10 46 3 92
29 103 24 9 26 0 8 -35 -15 -28 -18 -65 -12 -140 1 -14 8 -20 24 -20 25 0 30
19 13 51 -13 23 -4 24 51 7 26 -7 39 -17 39 -29 0 -28 11 -49 26 -49 11 0 12
13 8 59 -6 52 -4 61 16 81 12 12 19 25 15 28 -10 10 -39 -13 -54 -42 -12 -25
-17 -27 -50 -22 -20 4 -44 7 -54 8 -15 2 -17 8 -13 32 4 17 13 34 22 39 10 6
12 12 5 20 -5 7 -9 17 -8 22 4 21 -39 15 -61 -8z"/>
<path d="M3438 2657 c-27 -10 -38 -27 -18 -27 16 0 60 23 60 32 0 10 -7 9 -42
-5z"/>
<path d="M3375 2621 c-6 -11 33 -36 42 -27 7 7 -16 36 -28 36 -4 0 -10 -4 -14
-9z"/>
<path d="M3330 2581 c0 -5 14 -14 31 -20 39 -13 39 -13 39 -2 0 5 -14 14 -31
20 -39 13 -39 13 -39 2z"/>
<path d="M3960 2554 c0 -8 5 -12 10 -9 6 3 10 10 10 16 0 5 -4 9 -10 9 -5 0
-10 -7 -10 -16z"/>
<path d="M3996 2533 c8 -32 12 -39 19 -31 9 8 -6 58 -16 58 -5 0 -6 -12 -3
-27z"/>
<path d="M3572 2478 c3 -7 36 -18 74 -25 156 -29 443 -97 450 -106 1 -1 4 -33
8 -72 3 -38 10 -95 15 -125 5 -30 12 -104 16 -165 11 -158 11 -165 25 -218 12
-44 9 -69 -7 -54 -3 4 -34 91 -69 194 -35 104 -63 183 -64 176 0 -6 24 -91 54
-190 61 -201 75 -260 57 -249 -6 4 -11 13 -11 19 0 20 -59 203 -126 392 -16
44 -35 85 -41 90 -7 6 -22 35 -33 65 -14 39 -18 45 -14 20 11 -60 58 -194 69
-193 12 0 49 -88 71 -171 9 -33 23 -76 31 -94 8 -18 12 -38 10 -45 -5 -12 -47
75 -47 96 0 7 -20 53 -45 102 -25 50 -45 95 -45 101 0 20 -81 176 -124 239
-57 84 -154 181 -168 167 -8 -8 7 -30 51 -79 64 -69 142 -189 181 -278 12 -27
27 -63 35 -80 15 -35 62 -150 100 -250 15 -38 50 -132 76 -208 57 -161 74
-197 94 -197 17 0 21 35 5 45 -5 3 -10 14 -10 24 0 10 -13 47 -29 82 -40 89
-46 111 -29 108 37 -5 40 0 34 54 -6 51 -6 51 9 25 19 -34 65 -248 65 -304 0
-25 -5 -44 -12 -47 -10 -3 -10 -8 -2 -17 9 -9 16 -9 33 2 18 11 21 19 15 58
-9 70 -42 233 -75 366 -16 66 -28 132 -28 145 1 13 -6 83 -14 154 -22 176 -35
299 -31 304 3 4 139 -40 319 -104 123 -43 251 -101 262 -118 11 -17 33 -199
38 -312 3 -66 11 -135 17 -154 6 -19 8 -57 4 -87 -5 -41 -2 -56 10 -69 30 -30
39 -12 36 71 -2 43 -11 142 -22 219 -31 233 -34 258 -34 301 -1 33 2 40 14 36
57 -20 -111 70 -175 94 -84 32 -432 145 -470 154 -22 5 -71 18 -110 30 -38 11
-95 25 -125 31 -30 6 -100 21 -154 35 -110 27 -170 31 -164 12z"/>
<path d="M3200 2467 c0 -8 7 -18 16 -21 11 -4 14 -1 12 11 -4 21 -28 30 -28
10z"/>
<path d="M3971 2300 c0 -22 47 -208 48 -191 2 22 -30 174 -40 191 -7 13 -8 13
-8 0z"/>
<path d="M4065 2215 c3 -44 10 -96 15 -115 l10 -35 -5 38 c-3 28 0 37 12 37
11 0 13 5 8 18 -4 9 -12 35 -18 57 -20 81 -28 81 -22 0z"/>
<path d="M4770 2220 c0 -5 5 -10 11 -10 5 0 7 5 4 10 -3 6 -8 10 -11 10 -2 0
-4 -4 -4 -10z"/>
<path d="M4091 2045 c0 -11 4 -27 9 -35 9 -13 10 -13 9 0 0 8 -4 24 -9 35 l-9
20 0 -20z"/>
<path d="M3810 871 c-10 -19 -4 -51 9 -51 3 0 15 -3 27 -6 25 -7 47 33 32 59
-12 23 -55 22 -68 -2z m50 -22 c0 -20 -15 -26 -25 -9 -9 15 3 43 15 35 5 -3
10 -15 10 -26z"/>
<path d="M3485 869 c-4 -6 5 -36 19 -68 25 -57 26 -61 22 -249 -4 -206 1 -227
42 -201 16 10 29 10 58 1 39 -12 77 0 101 30 28 34 37 149 18 236 -11 47 -59
84 -104 80 l-36 -3 -7 58 c-11 87 -40 126 -95 127 -6 0 -15 -5 -18 -11z m69
-38 c11 -12 19 -44 23 -90 6 -73 16 -92 36 -72 26 26 80 2 106 -46 14 -27 14
-145 0 -196 -13 -49 -49 -73 -81 -56 -13 7 -26 17 -30 22 -4 7 -12 6 -22 -3
-9 -7 -20 -10 -24 -6 -4 4 -7 89 -7 189 0 169 -2 185 -23 225 -12 23 -22 45
-22 47 0 12 29 3 44 -14z"/>
<path d="M3611 641 c-8 -5 -12 -41 -12 -106 0 -84 3 -101 18 -112 47 -35 75
12 71 119 -2 42 -8 82 -14 88 -14 14 -48 20 -63 11z m48 -25 c8 -9 11 -45 9
-98 -3 -75 -5 -83 -23 -83 -18 0 -21 9 -26 85 -7 99 8 135 40 96z"/>
<path d="M4472 868 c-7 -7 -12 -40 -12 -80 l0 -67 -42 -12 c-82 -21 -108 -64
-108 -179 0 -77 10 -117 34 -132 10 -7 82 -18 138 -22 55 -4 58 3 59 194 3
283 3 285 -26 298 -31 15 -28 15 -43 0z m48 -248 l0 -220 -67 5 c-102 8 -109
15 -117 94 -4 37 -5 74 -2 82 2 8 7 26 10 41 8 35 70 78 114 78 l33 0 -7 59
c-7 62 -2 81 22 81 12 0 14 -35 14 -220z"/>
<path d="M4375 616 c-17 -41 -20 -119 -5 -146 8 -15 21 -19 54 -18 l44 1 4 51
c1 28 1 71 -2 96 -5 44 -6 45 -43 48 -35 3 -39 1 -52 -32z m75 -12 c9 -23 5
-108 -7 -126 -2 -5 -15 -8 -29 -8 -18 0 -24 6 -25 23 -2 40 2 102 7 120 8 26
43 21 54 -9z"/>
<path d="M6991 870 c-48 -11 -77 -53 -97 -139 -18 -81 -15 -220 6 -278 25 -69
143 -109 196 -65 64 51 74 182 12 156 -7 -3 -25 -23 -40 -44 -15 -22 -34 -40
-41 -40 -35 0 -61 208 -33 271 27 64 69 75 83 20 9 -37 24 -43 50 -19 65 61
-34 162 -136 138z m75 -30 c15 -6 33 -18 40 -28 14 -18 19 -62 6 -62 -4 0 -12
10 -17 23 -15 32 -59 34 -89 4 -36 -36 -49 -98 -41 -187 14 -146 45 -172 117
-99 34 34 42 39 50 25 20 -35 -47 -126 -94 -126 -26 0 -68 23 -96 53 -31 33
-51 187 -34 253 7 25 12 54 12 65 0 12 15 36 34 55 36 36 64 42 112 24z"/>
<path d="M8251 855 c-38 -33 -39 -52 -5 -67 24 -11 29 -9 50 15 29 34 29 39 5
61 -17 16 -20 15 -50 -9z m37 -27 c-3 -7 -13 -15 -24 -17 -16 -3 -17 -1 -5 13
16 19 34 21 29 4z"/>
<path d="M6059 855 c-3 -2 -47 -5 -98 -6 -77 -1 -97 -5 -112 -20 -44 -44 -11
-86 71 -91 l55 -3 0 -105 c0 -58 -4 -136 -8 -175 -7 -60 -6 -71 9 -82 23 -17
69 -17 81 0 10 12 28 85 25 99 -3 13 -13 163 -14 209 -2 63 5 70 64 68 39 -2
54 2 64 16 35 48 -6 95 -82 95 -28 0 -53 -2 -55 -5z m109 -37 c7 -7 12 -21 12
-31 0 -18 -5 -19 -55 -13 -49 5 -56 4 -69 -16 -17 -27 -20 -87 -10 -249 7
-123 3 -136 -37 -124 -19 6 -20 13 -15 68 9 115 9 274 -2 293 -7 13 -26 20
-63 24 -41 4 -55 9 -57 23 -3 14 5 17 50 18 29 0 73 4 98 8 70 13 135 12 148
-1z"/>
<path d="M6265 849 c-4 -6 -13 -8 -21 -5 -20 8 -28 -12 -12 -31 10 -12 14 -69
16 -223 l3 -207 25 -13 c20 -11 27 -11 42 3 14 13 18 35 20 114 2 53 6 101 8
105 3 4 21 8 40 8 l34 0 0 -102 c0 -80 3 -105 16 -119 12 -14 21 -16 35 -9 24
14 33 93 21 199 -12 98 -28 118 -102 123 l-45 3 -7 68 c-3 37 -12 75 -18 83
-15 16 -46 19 -55 3z m43 -75 c5 -95 14 -106 91 -108 53 -2 70 -33 77 -143 6
-81 5 -93 -10 -99 -9 -4 -19 -4 -23 -1 -3 4 -6 48 -7 99 l-1 93 -50 6 c-27 3
-53 4 -57 2 -5 -2 -8 -56 -8 -119 0 -107 -1 -114 -20 -114 -12 0 -21 8 -24 23
-11 49 -12 407 -1 411 22 9 30 -3 33 -50z"/>
<path d="M2481 832 c-19 -9 -43 -28 -53 -42 -23 -32 -42 -193 -33 -278 6 -56
11 -67 43 -97 30 -28 45 -35 81 -35 37 0 49 5 82 39 32 32 39 46 39 77 0 74
-37 85 -78 24 -28 -42 -32 -44 -57 -26 -40 29 -26 256 17 264 9 2 19 -5 23
-17 4 -15 15 -21 34 -21 34 0 51 17 51 50 0 29 -19 49 -63 68 -37 16 -46 15
-86 -6z m89 -27 c7 -8 16 -13 20 -10 11 7 21 -22 14 -40 -9 -22 -22 -19 -49
13 l-25 27 -29 -32 c-33 -36 -47 -105 -39 -198 8 -95 62 -125 107 -60 32 47
51 46 51 -4 0 -77 -71 -123 -129 -82 -59 42 -73 80 -70 188 3 126 12 163 44
191 30 26 86 30 105 7z"/>
<path d="M1292 823 c-13 -23 -4 -69 15 -84 7 -7 42 -13 76 -14 34 -1 66 -2 71
-3 5 -1 5 -30 2 -64 -11 -95 -8 -279 5 -295 18 -21 53 -15 79 12 23 25 24 31
25 183 l0 157 41 -3 c29 -2 44 2 56 15 23 27 28 59 11 82 -12 18 -25 21 -94
21 -44 0 -89 -5 -100 -10 -12 -7 -26 -7 -36 -2 -10 5 -46 12 -80 16 -54 6 -63
4 -71 -11z m160 -36 c15 -23 8 -27 -51 -27 -60 0 -99 19 -85 42 9 14 125 2
136 -15z m207 -6 c15 -27 4 -32 -55 -25 -84 10 -84 10 -81 -184 2 -147 0 -167
-14 -170 -23 -4 -25 17 -21 221 l4 177 79 0 c66 0 80 -3 88 -19z"/>
<path d="M2997 833 c-13 -12 -7 -23 12 -23 11 0 33 -17 50 -37 l31 -37 31 18
c42 25 48 13 7 -15 -18 -12 -35 -24 -37 -26 -2 -1 2 -9 9 -17 8 -11 11 -48 8
-123 l-3 -108 28 -3 c24 -3 27 -7 21 -25 -8 -28 -22 -37 -56 -37 -36 0 -41 18
-43 180 -3 180 -2 177 -25 200 -21 21 -50 27 -50 10 0 -5 7 -10 15 -10 32 0
40 -41 40 -207 0 -182 5 -197 66 -195 40 1 69 29 72 67 2 25 -2 30 -28 35 -23
4 -29 10 -27 25 2 11 6 63 9 115 5 83 9 97 29 113 27 21 32 55 9 64 -9 3 -24
-2 -34 -11 -24 -22 -31 -21 -60 13 -27 30 -62 47 -74 34z"/>
<path d="M7464 825 c-4 -8 5 -24 21 -37 15 -13 30 -40 35 -63 8 -36 7 -42 -17
-60 -26 -22 -29 -55 -5 -63 9 -3 13 3 10 18 -2 13 3 25 10 27 9 4 12 -22 12
-107 0 -113 14 -170 43 -170 6 0 22 -3 34 -6 16 -4 26 1 38 20 16 25 16 26 -9
48 -26 23 -27 25 -20 110 7 83 8 87 34 97 19 6 29 18 33 38 8 40 -7 51 -43 29
-34 -19 -36 -17 -43 47 -8 63 -30 87 -83 87 -30 0 -46 -5 -50 -15z m81 -13
c19 -13 35 -62 35 -104 0 -37 2 -40 23 -35 12 2 30 8 40 12 12 5 17 3 17 -8 0
-9 -9 -18 -19 -22 -34 -10 -42 -32 -48 -123 -5 -82 -4 -91 16 -111 27 -27 26
-31 -3 -31 -42 0 -49 21 -53 168 -4 137 -17 227 -34 238 -10 6 -3 24 9 24 4 0
12 -4 17 -8z"/>
<path d="M1723 822 c-8 -5 -9 -12 -2 -22 5 -9 6 -93 3 -210 -6 -173 -5 -197 9
-209 10 -8 27 -11 42 -7 25 6 25 8 25 111 0 57 4 107 10 110 5 3 19 1 30 -5
18 -10 20 -21 20 -104 0 -76 4 -98 18 -116 15 -19 22 -21 40 -11 30 16 37 67
25 179 -9 85 -14 98 -37 119 -15 13 -38 23 -50 23 -31 0 -42 16 -49 69 -3 24
-11 49 -19 56 -18 18 -51 26 -65 17z m57 -52 c6 -12 8 -30 5 -41 -11 -33 18
-65 65 -72 49 -6 66 -26 74 -86 8 -57 8 -155 0 -175 -20 -53 -48 32 -39 117 8
70 -3 91 -51 103 -41 10 -49 -8 -49 -114 0 -80 -3 -97 -15 -97 -12 0 -16 21
-20 105 -6 135 -1 280 10 280 5 0 14 -9 20 -20z"/>
<path d="M7925 727 c-52 -14 -53 -15 -27 -33 44 -31 53 -66 50 -195 -2 -98 0
-121 12 -129 22 -14 56 -12 69 3 14 17 18 137 7 202 -8 49 -7 51 18 63 37 17
63 15 70 -4 4 -10 4 -56 0 -103 -7 -111 4 -165 35 -169 41 -6 45 9 43 163 -1
122 -4 149 -19 170 -25 34 -46 39 -102 24 -42 -10 -51 -10 -72 4 -26 19 -27
19 -84 4z m73 -29 c9 -9 27 -9 78 1 99 20 103 14 105 -167 2 -134 -2 -164 -17
-149 -14 14 -23 113 -15 171 15 110 -14 138 -104 100 l-37 -15 8 -52 c14 -84
11 -196 -5 -206 -36 -23 -42 -3 -40 144 0 89 -4 151 -11 164 -9 18 -8 21 8 21
10 0 23 -5 30 -12z"/>
<path d="M8263 725 c-27 -11 -29 -23 -7 -39 25 -18 35 -84 28 -183 -8 -115 5
-143 64 -143 58 0 80 34 46 71 -12 14 -17 47 -21 141 -4 87 -10 128 -20 139
-18 21 -61 27 -90 14z m75 -27 c8 -8 12 -51 12 -127 0 -83 4 -124 15 -145 8
-15 15 -30 15 -32 0 -10 -60 -2 -67 9 -4 6 -7 68 -5 135 2 100 0 129 -13 148
-15 23 -14 24 8 24 13 0 28 -5 35 -12z"/>
<path d="M8578 727 c-33 -13 -38 -32 -5 -22 51 16 73 15 106 -5 l33 -21 -3
-114 c-4 -106 -6 -116 -29 -137 -16 -15 -37 -23 -60 -23 l-35 0 0 -152 c0 -83
-3 -155 -7 -159 -4 -4 -15 9 -23 29 -13 31 -15 84 -13 312 3 229 1 277 -11
284 -8 5 -20 7 -28 4 -11 -4 -10 -9 4 -25 21 -23 22 -54 10 -355 -7 -169 -6
-207 7 -237 20 -48 52 -49 71 -3 13 32 13 207 0 265 -5 22 -3 23 29 16 31 -5
39 -2 66 27 37 41 45 77 45 197 0 86 -2 95 -24 113 -26 21 -88 24 -133 6z"/>
<path d="M4070 720 c0 -5 -10 -10 -22 -10 -21 0 -21 0 -2 -21 17 -18 19 -40
22 -171 3 -147 4 -149 28 -160 20 -9 28 -8 41 5 14 14 17 35 14 127 -2 94 0
110 13 110 9 0 25 9 35 19 13 13 27 18 42 14 27 -7 49 19 49 58 0 24 -4 27
-47 33 -44 6 -50 4 -67 -19 l-18 -26 -24 26 c-23 25 -64 34 -64 15z m54 -35
c20 -30 37 -32 61 -5 11 13 31 20 52 20 30 0 34 -3 31 -22 -2 -18 -8 -22 -27
-20 -13 2 -32 -5 -45 -16 -11 -11 -32 -23 -45 -27 -23 -7 -23 -8 -18 -114 6
-115 -2 -151 -27 -118 -11 14 -15 53 -15 147 0 71 -3 141 -7 155 -8 34 18 34
40 0z"/>
<path d="M2990 705 c-13 -15 -6 -35 13 -35 7 0 13 11 13 25 2 28 -8 32 -26 10z"/>
<path d="M7249 691 c-33 -34 -35 -43 -14 -61 13 -11 22 -10 52 4 42 20 63 9
63 -36 0 -36 -21 -45 -66 -29 -26 9 -37 9 -54 -1 -43 -27 -42 -108 2 -155 27
-29 51 -29 78 -1 20 21 20 21 35 2 8 -10 15 -22 15 -26 0 -3 13 -11 30 -16 24
-9 33 -7 55 9 31 25 32 45 4 68 -18 15 -21 26 -19 87 4 134 1 147 -44 168 -54
26 -103 21 -137 -13z m143 -19 c21 -21 23 -35 17 -155 -3 -56 -1 -71 14 -81
23 -17 22 -33 -4 -46 -17 -10 -25 -6 -54 25 l-33 37 -23 -21 c-13 -12 -31 -21
-41 -21 -43 0 -70 103 -36 137 15 15 19 15 53 -1 36 -18 37 -17 62 6 20 18 24
30 19 56 -9 61 -36 75 -88 48 -33 -17 -34 -14 -11 20 15 23 22 26 61 21 26 -3
53 -13 64 -25z"/>
<path d="M7237 524 c-11 -11 -8 -59 4 -71 9 -9 22 -8 53 4 22 9 44 21 48 27
10 15 -11 36 -36 35 -11 0 -30 2 -41 6 -11 3 -24 3 -28 -1z m38 -24 c4 -6 16
-8 27 -4 14 4 19 2 16 -7 -6 -18 -57 -34 -70 -21 -12 12 -4 42 11 42 5 0 13
-5 16 -10z"/>
<path d="M2753 695 c-33 -14 -48 -41 -37 -69 8 -20 15 -20 52 1 29 17 31 17
51 -1 35 -31 27 -46 -24 -46 -35 0 -52 -6 -70 -24 -73 -73 -21 -187 70 -155
32 12 36 11 60 -15 32 -35 73 -33 94 5 13 23 12 28 -9 57 -21 28 -22 38 -17
103 7 83 -6 120 -53 144 -36 18 -75 19 -117 0z m92 -19 c48 -21 57 -43 49
-132 -6 -68 -5 -78 16 -106 21 -28 21 -31 5 -47 -15 -15 -19 -13 -48 21 -30
35 -33 36 -57 23 -29 -17 -76 -19 -85 -5 -3 6 -7 28 -7 50 -1 52 24 80 69 80
50 0 76 16 67 43 -15 47 -74 73 -102 45 -9 -9 -12 -9 -12 0 0 7 15 19 33 27
40 18 32 17 72 1z"/>
<path d="M2759 522 c-22 -15 -25 -42 -7 -60 18 -18 38 -15 75 14 28 21 31 28
23 45 -12 22 -60 23 -91 1z m71 -9 c0 -12 -33 -43 -47 -43 -7 0 -13 2 -13 4 0
2 -3 11 -6 19 -4 11 2 17 18 20 38 7 48 7 48 0z"/>
<path d="M3790 691 c0 -5 10 -11 22 -13 40 -6 50 -42 44 -166 -4 -105 -3 -114
17 -138 20 -23 25 -24 57 -13 44 15 45 16 32 32 -6 7 -12 55 -12 107 -2 105
-13 161 -36 185 -17 17 -124 22 -124 6z m104 -17 c22 -22 25 -42 28 -177 3
-105 1 -117 -14 -117 -23 0 -26 20 -31 160 -2 63 -7 123 -11 133 -10 21 7 23
28 1z"/>
<path d="M6613 686 c-54 -24 -78 -98 -67 -199 9 -82 43 -117 112 -117 45 0 53
4 81 35 35 41 34 36 21 69 -12 31 -31 33 -55 6 -13 -14 -29 -20 -49 -18 -27 3
-31 8 -34 34 -3 30 -2 31 45 37 81 9 107 66 56 125 -34 38 -67 46 -110 28z
m97 -43 c13 -17 20 -38 18 -57 -3 -29 -6 -31 -57 -38 -70 -8 -89 -37 -55 -86
19 -28 65 -29 89 -2 25 27 35 25 35 -7 0 -41 -26 -63 -75 -63 -31 0 -47 6 -64
24 -48 51 -50 185 -3 231 35 35 84 34 112 -2z"/>
<path d="M6616 624 c-31 -30 -14 -54 39 -54 32 0 49 23 35 49 -13 25 -52 28
-74 5z m48 0 c28 -11 18 -34 -14 -34 -30 0 -43 23 -17 33 6 3 13 6 14 6 1 1 8
-2 17 -5z"/>
<path d="M2075 683 c-122 -30 -108 -323 16 -323 60 0 109 49 109 108 0 63 -40
71 -63 12 -8 -22 -20 -40 -25 -40 -20 0 -43 39 -40 67 3 26 6 28 46 28 34 0
48 5 63 24 28 34 24 56 -18 96 -35 34 -47 38 -88 28z m80 -44 c42 -45 17 -94
-41 -83 -63 12 -84 -38 -44 -103 27 -46 54 -43 74 7 19 48 36 52 36 9 0 -86
-87 -115 -133 -45 -36 55 -38 181 -3 225 13 16 92 9 111 -10z"/>
<path d="M2072 624 c-12 -8 -22 -24 -22 -35 0 -18 6 -20 47 -17 53 3 67 23 38
52 -20 20 -35 20 -63 0z m56 -21 c2 -9 -7 -13 -27 -13 -30 0 -39 9 -24 24 11
10 46 3 51 -11z"/>
<path d="M8588 673 c-19 -23 -17 -175 2 -198 19 -23 52 -14 72 21 14 24 16 43
11 98 -3 37 -12 74 -20 82 -19 19 -47 18 -65 -3z m56 -25 c23 -33 21 -120 -3
-149 -11 -13 -23 -20 -27 -16 -10 10 -19 151 -10 172 8 21 22 19 40 -7z"/>
<path d="M7748 623 c-19 -5 -34 -45 -24 -62 4 -5 29 -10 56 -9 44 0 51 3 56
24 11 44 -26 63 -88 47z m65 -33 c4 -17 0 -20 -29 -20 -23 0 -34 5 -34 14 0
29 55 35 63 6z"/>
<path d="M3239 601 c-20 -16 -22 -23 -13 -38 9 -14 24 -18 75 -18 61 0 64 1
64 25 0 46 -83 67 -126 31z m111 -26 c0 -11 -12 -15 -50 -15 -38 0 -50 4 -50
15 0 11 12 15 50 15 38 0 50 -4 50 -15z"/>
<path d="M8793 460 c-27 -11 -40 -54 -23 -75 7 -9 29 -15 51 -15 32 0 42 5 51
25 8 19 8 31 0 50 -12 26 -38 31 -79 15z m48 -31 c13 -25 0 -43 -27 -37 -23 4
-31 37 -12 49 20 13 26 11 39 -12z"/>
<path d="M4588 424 c-16 -34 0 -59 38 -59 22 0 31 6 38 28 11 31 4 41 -37 51
-23 5 -29 2 -39 -20z m50 -23 c-5 -24 -23 -19 -26 6 -3 18 0 21 13 17 9 -4 15
-14 13 -23z"/>
</g>
</svg>
