<?xml version="1.0" standalone="no"?>
<!DOCTYPE svg PUBLIC "-//W3C//DTD SVG 20010904//EN"
 "http://www.w3.org/TR/2001/REC-SVG-20010904/DTD/svg10.dtd">
<svg version="1.0" xmlns="http://www.w3.org/2000/svg"
 width="1000.000000pt" height="677.000000pt" viewBox="0 0 1000.000000 677.000000"
 preserveAspectRatio="xMidYMid meet">
<metadata>
Created by potrace 1.16, written by Peter Selinger 2001-2019
</metadata>
<g transform="translate(0.000000,677.000000) scale(0.100000,-0.100000)"
fill="#000000" stroke="none">
<path d="M6417 6683 c-3 -5 -5 -48 -6 -98 -1 -49 -6 -126 -11 -170 -10 -84
-26 -293 -35 -455 -2 -52 -9 -180 -15 -285 -6 -104 -13 -212 -15 -240 -3 -27
-8 -75 -10 -105 -2 -30 -6 -64 -8 -75 -3 -11 -8 -40 -12 -65 -10 -62 -38 -113
-103 -189 -54 -65 -83 -118 -97 -180 l-7 -33 -24 23 c-19 17 -26 20 -38 10
-22 -18 -83 -149 -102 -218 l-17 -62 -66 -7 c-83 -8 -120 -27 -201 -102 -55
-50 -73 -76 -115 -163 l-49 -103 0 -120 c0 -239 53 -351 89 -190 15 70 21 81
73 133 40 39 78 66 125 86 67 29 84 45 48 45 -33 0 -78 -24 -150 -80 -74 -58
-104 -101 -115 -162 -10 -55 -23 -46 -35 25 -36 212 4 368 128 493 71 73 125
101 201 106 l55 3 -1 -45 c0 -25 -6 -85 -12 -135 -22 -165 -9 -469 24 -578 3
-10 7 -33 9 -50 6 -54 34 -237 52 -340 14 -85 15 -113 5 -195 -20 -159 -13
-252 17 -252 5 0 20 17 32 38 34 54 34 62 1 22 l-30 -35 -7 38 c-4 20 -4 52
-1 70 8 41 12 77 14 124 1 22 6 33 11 28 8 -10 60 -181 111 -370 15 -55 41
-143 58 -195 16 -52 35 -113 40 -135 38 -147 56 -204 74 -229 l21 -29 -23 -19
c-12 -10 -30 -18 -40 -18 -29 0 -98 -57 -135 -113 -42 -63 -54 -133 -35 -202
21 -76 31 -76 113 -2 40 36 91 74 113 85 52 27 164 36 229 19 49 -13 174 -91
205 -129 57 -69 86 121 39 248 -15 38 -42 79 -86 127 l-65 71 6 50 c3 28 29
146 56 261 28 116 60 251 71 300 11 50 24 99 29 110 5 11 16 54 25 95 9 41 23
102 30 135 7 33 17 78 21 100 8 46 6 38 29 130 9 39 23 90 32 115 32 95 45
170 53 314 8 139 3 196 -17 196 -5 0 -8 -35 -8 -78 0 -136 -30 -369 -52 -405
-6 -10 -17 -57 -77 -327 -20 -91 -52 -226 -71 -300 -19 -74 -41 -166 -50 -205
-9 -38 -22 -95 -30 -125 -8 -30 -19 -82 -24 -115 -10 -54 -40 -164 -47 -174
-2 -2 -10 2 -19 9 -9 7 -18 10 -22 7 -8 -8 17 -38 27 -32 7 4 19 -51 23 -105
1 -14 9 -26 19 -28 18 -3 93 -75 108 -102 40 -75 55 -225 25 -250 -8 -7 -15
-9 -15 -4 -3 185 -10 208 -79 282 -47 50 -56 46 -11 -4 47 -54 67 -103 73
-181 3 -40 3 -73 0 -73 -15 0 -64 44 -59 55 7 19 -30 151 -56 196 -21 37 -38
50 -38 29 0 -5 4 -10 8 -10 21 0 83 -192 67 -208 -10 -11 -55 34 -60 61 -14
68 -48 166 -56 161 -5 -3 -5 -13 0 -23 8 -14 41 -141 41 -157 0 -5 -52 6 -59
13 -3 2 -6 22 -8 46 -1 23 -5 51 -7 62 -3 11 -5 28 -5 38 -1 9 -5 17 -11 17
-6 0 -7 -31 -3 -80 5 -70 4 -80 -11 -80 -13 0 -16 12 -16 80 0 52 -4 80 -11
80 -8 0 -10 -26 -7 -80 l3 -80 -32 0 c-39 0 -40 6 -18 99 9 35 13 66 11 68 -6
6 -36 -95 -36 -121 0 -29 -12 -45 -45 -62 -36 -18 -45 -18 -45 3 0 26 31 106
50 128 24 28 42 65 32 65 -24 0 -102 -155 -102 -204 0 -28 -130 -150 -145
-135 -5 5 -10 47 -10 92 0 78 2 84 35 130 36 50 111 107 140 107 24 0 50 32
50 62 0 14 7 31 15 38 22 18 19 67 -5 80 -17 9 -22 7 -30 -12 -5 -13 -9 -17
-9 -9 -1 13 -12 50 -91 306 -15 50 -35 117 -45 150 -9 33 -23 80 -31 105 -16
47 -43 140 -93 320 -33 119 -58 239 -66 320 -2 30 -12 81 -20 113 -8 32 -15
75 -15 95 0 20 -7 62 -16 92 -21 74 -30 356 -16 452 7 40 14 98 17 128 3 30
10 66 14 80 5 14 14 52 21 85 7 33 23 84 36 113 13 29 24 57 24 62 0 21 23 21
45 0 33 -31 51 -20 58 34 9 61 36 112 98 183 28 32 63 82 76 111 17 36 30 52
44 52 10 0 19 7 19 15 0 11 7 14 25 9 33 -8 32 4 -2 17 -21 8 -28 7 -35 -6 -5
-8 -14 -13 -19 -10 -5 4 -7 10 -5 14 6 10 16 64 21 116 8 80 25 322 30 419 2
54 7 112 9 130 8 48 20 333 24 549 2 105 4 117 20 117 16 0 18 -11 16 -107 -1
-76 3 -117 13 -136 16 -33 11 -46 -12 -27 -21 17 -19 1 5 -38 23 -37 28 -64 8
-44 -7 7 -15 12 -19 12 -11 0 2 -38 17 -51 8 -6 14 -19 14 -27 0 -12 -3 -13
-12 -4 -24 24 -25 11 -2 -35 12 -26 20 -52 16 -57 -3 -5 -10 0 -15 12 -9 19
-27 31 -27 17 0 -12 35 -75 42 -75 4 0 8 -12 8 -27 l0 -28 -20 25 -20 25 11
-30 c6 -16 18 -38 26 -47 9 -10 11 -18 5 -18 -6 0 -12 6 -15 13 -2 6 -7 9 -11
6 -8 -8 14 -69 25 -69 5 0 9 -14 9 -31 0 -27 -2 -30 -16 -18 -13 11 -14 9 -8
-17 4 -16 13 -36 21 -46 8 -9 13 -29 11 -45 l-4 -28 -12 28 c-6 15 -13 27 -16
27 -13 0 4 -100 23 -130 11 -19 21 -46 21 -60 l-1 -25 -25 30 c-25 29 -25 29
-18 5 4 -14 15 -36 25 -49 11 -13 19 -29 19 -35 0 -6 -9 0 -20 14 -33 43 -30
17 4 -37 41 -66 45 -110 10 -119 -19 -5 -23 -11 -19 -28 5 -18 5 -19 -5 -3
-12 19 -30 23 -30 6 0 -6 7 -17 15 -26 9 -8 14 -20 12 -26 -4 -13 -37 -18 -37
-6 0 5 -4 9 -10 9 -5 0 -10 -7 -10 -16 0 -13 7 -15 35 -11 25 4 37 2 44 -10 5
-10 22 -16 48 -16 29 0 43 -5 52 -20 10 -16 10 -21 0 -27 -16 -11 -4 -41 14
-34 9 3 23 -6 34 -23 26 -37 117 -224 143 -292 l21 -53 -27 6 c-19 5 -25 3
-22 -6 3 -7 14 -14 25 -16 23 -3 33 -28 33 -83 0 -22 9 -47 21 -63 27 -35 36
-27 12 10 -18 28 -18 28 2 20 11 -4 34 -10 50 -12 84 -14 204 -49 231 -68 38
-26 90 -93 124 -161 23 -45 25 -61 24 -165 -1 -102 -11 -165 -39 -257 -5 -17
-3 -23 8 -23 10 0 20 23 32 78 9 42 21 96 26 119 27 125 -4 259 -88 368 -67
87 -136 120 -300 142 -41 5 -43 7 -58 58 -8 29 -22 58 -30 65 -8 7 -15 24 -15
39 0 32 -100 239 -173 358 -30 49 -60 99 -67 111 -21 42 -51 295 -55 472 -3
134 -14 352 -25 504 -6 72 -10 168 -10 215 0 110 -19 241 -38 264 -16 18 -38
23 -45 10z m135 -1459 c-2 -13 -8 -24 -13 -24 -10 0 -12 31 -3 55 10 24 22 0
16 -31z m-22 -44 c0 -5 -4 -10 -10 -10 -5 0 -10 5 -10 10 0 6 5 10 10 10 6 0
10 -4 10 -10z m-196 -2866 c3 -8 2 -12 -4 -9 -6 3 -10 10 -10 16 0 14 7 11 14
-7z"/>
<path d="M2199 5508 c-1 -7 -1 -19 0 -25 1 -7 -3 -13 -9 -13 -8 0 -11 -58 -10
-192 1 -308 -3 -333 -85 -448 -60 -85 -87 -172 -84 -270 2 -55 -2 -86 -15
-115 -10 -22 -22 -50 -27 -62 -13 -34 -33 -28 -48 15 -17 45 -80 108 -128 128
-41 18 -113 10 -156 -17 -41 -24 -113 -114 -143 -177 -63 -134 -87 -330 -71
-597 5 -89 13 -125 26 -125 14 0 48 45 55 73 3 15 12 27 20 27 20 0 45 33 65
86 14 35 25 50 40 52 26 4 77 71 86 113 4 16 13 29 20 29 15 0 65 60 65 78 0
11 61 42 82 42 6 0 8 -10 5 -22 -47 -201 -62 -325 -48 -404 6 -33 12 -79 12
-104 3 -82 43 -290 66 -339 8 -18 26 -74 39 -125 14 -50 29 -100 34 -111 14
-29 59 -170 75 -235 8 -30 17 -64 20 -75 7 -25 -52 -90 -91 -99 -32 -8 -134
-87 -134 -104 0 -8 5 -10 13 -6 12 8 -19 -33 -40 -51 -12 -10 -16 -32 -14 -75
l1 -25 23 26 c12 15 39 36 59 48 31 19 41 20 60 10 13 -7 29 -20 36 -31 18
-25 31 -23 38 10 14 58 38 61 86 9 15 -16 32 -26 38 -22 5 3 9 38 9 76 -2 102
19 114 66 38 29 -45 45 -43 77 8 21 36 21 36 31 12 5 -13 6 -57 2 -96 -6 -77
1 -89 32 -53 10 11 25 20 34 20 9 0 23 10 32 23 l15 22 29 -27 c45 -43 63 -33
63 33 0 41 36 43 83 3 52 -44 62 -24 25 51 -19 40 -32 51 -93 81 -39 19 -84
47 -99 63 -29 30 -32 66 -6 66 11 0 15 12 17 40 0 22 13 76 28 120 32 98 71
244 84 316 5 30 15 72 21 94 6 22 20 99 30 170 11 72 24 151 29 177 17 78 14
274 -4 382 -9 54 -15 111 -13 127 3 16 0 30 -6 32 -7 3 -3 13 8 25 l18 21 52
-57 c28 -31 61 -67 74 -80 12 -13 29 -39 37 -58 8 -18 19 -34 25 -34 17 0 96
-86 110 -120 7 -16 21 -32 31 -35 12 -4 23 -22 30 -50 12 -46 33 -63 54 -45
17 14 23 4 31 -49 6 -39 26 -62 41 -47 9 9 33 178 28 196 -2 8 -5 65 -6 125
-1 97 -11 236 -24 345 -10 87 -69 169 -150 206 -53 25 -170 33 -217 15 -13 -5
-59 -38 -103 -75 -44 -36 -85 -66 -92 -66 -6 0 -20 17 -29 38 -10 20 -28 52
-41 70 -20 26 -26 53 -35 135 -5 56 -16 116 -24 134 -8 17 -14 36 -14 43 0 6
-27 44 -61 83 -46 55 -59 78 -56 96 6 31 -10 240 -24 311 -13 71 -48 179 -67
208 -15 24 -41 30 -43 10z m61 -155 c0 -5 7 -42 16 -83 8 -41 17 -134 19 -206
5 -143 3 -138 80 -238 17 -22 30 -49 30 -61 1 -20 -3 -21 -37 -15 -33 6 -41 4
-53 -14 -8 -11 -15 -26 -15 -33 0 -7 -7 -10 -15 -7 -9 4 -15 0 -15 -10 0 -9 8
-16 19 -16 18 0 35 -15 36 -32 0 -18 15 -18 15 0 0 12 5 22 10 22 6 0 10 -4
10 -10 0 -5 5 -10 11 -10 6 0 8 7 5 15 -3 9 1 18 9 21 17 7 21 34 5 34 -5 0
-10 5 -10 10 0 6 11 10 25 10 l25 0 -3 -102 c-2 -75 1 -109 11 -125 17 -27 37
-20 22 7 -13 24 -13 30 0 30 6 0 10 -6 10 -13 0 -7 11 -32 25 -57 14 -25 34
-64 45 -87 28 -61 53 -58 132 16 70 65 103 84 172 102 41 10 53 9 109 -11 105
-39 151 -96 173 -213 l7 -39 -44 4 c-39 3 -46 7 -58 36 -15 33 -39 47 -26 15
13 -31 23 -82 18 -87 -15 -14 -41 17 -46 55 -8 64 -29 76 -25 15 4 -62 -16
-72 -28 -14 -5 24 -13 41 -19 38 -5 -3 -9 -12 -7 -20 1 -8 -7 -21 -19 -28 -18
-11 -20 -11 -19 5 4 33 0 53 -10 53 -5 0 -10 -9 -10 -19 0 -11 -5 -23 -10 -26
-8 -5 -7 -12 1 -22 7 -8 16 -39 20 -70 5 -35 15 -64 28 -77 28 -28 38 -13 12
20 -22 28 -29 98 -11 109 14 9 42 -15 36 -30 -6 -16 22 -147 34 -159 13 -13
13 -63 0 -71 -20 -12 -40 17 -40 59 l0 41 -18 -28 c-21 -30 -32 -26 -32 11 0
26 -25 62 -42 62 -9 0 -45 31 -80 68 -44 46 -58 65 -58 77 0 8 -4 17 -10 20
-9 6 -14 -7 -11 -31 1 -6 -8 -19 -19 -29 -20 -18 -20 -17 -20 8 0 30 -14 36
-24 11 -4 -9 0 -24 9 -34 8 -9 15 -20 15 -24 0 -15 -31 -38 -45 -32 -17 6 -20
-9 -4 -20 7 -4 9 -32 4 -85 -5 -55 -4 -79 4 -79 6 0 11 11 11 25 0 14 4 25 9
25 11 0 21 -63 11 -70 -4 -3 -10 -26 -13 -52 -5 -39 -4 -46 8 -42 12 5 15 -6
15 -62 0 -49 3 -65 10 -54 12 19 4 168 -10 185 -8 9 -8 15 0 20 5 3 10 18 10
32 0 28 11 24 17 -5 2 -9 7 -67 10 -128 6 -112 0 -169 -16 -159 -5 3 -11 -39
-14 -92 -3 -54 -11 -125 -17 -158 -7 -33 -12 -67 -12 -75 0 -8 -6 -35 -13 -60
-7 -25 -21 -84 -30 -132 -13 -63 -21 -85 -30 -81 -8 2 -11 11 -8 19 3 8 1 14
-4 14 -11 0 -34 -60 -27 -72 3 -5 12 -4 20 3 19 16 19 -11 -2 -82 -18 -60 -33
-84 -35 -53 0 12 -4 9 -10 -11 -6 -20 -5 -31 3 -36 7 -5 4 -16 -11 -36 -13
-15 -26 -26 -29 -23 -4 3 -8 -3 -10 -12 -2 -10 0 -18 5 -18 11 0 10 -59 -1
-62 -5 -2 -16 16 -24 40 -7 23 -18 40 -23 36 -30 -18 16 -94 123 -205 l74 -77
-23 -26 c-12 -14 -24 -26 -27 -26 -3 0 -17 20 -31 44 -27 46 -50 69 -77 79
-28 10 -22 -7 22 -62 44 -56 46 -61 25 -61 -8 0 -19 -9 -25 -20 -6 -11 -18
-20 -26 -20 -14 0 -15 8 -9 45 4 27 2 60 -5 80 -13 39 -31 48 -24 13 3 -13 -7
0 -22 27 -31 59 -32 60 -40 52 -3 -3 1 -20 10 -37 15 -31 14 -33 -11 -65 l-27
-34 -28 32 c-31 36 -35 59 -13 77 17 14 21 60 5 60 -5 0 -10 -8 -10 -18 0 -10
-18 -36 -40 -57 -39 -38 -40 -38 -40 -15 -1 22 -2 23 -11 7 -6 -9 -11 -44 -11
-76 l-1 -60 -23 15 c-16 11 -21 23 -19 42 l4 27 -12 -24 c-15 -31 -57 -74 -65
-67 -3 3 18 40 47 82 29 42 50 78 48 81 -10 9 -46 -18 -41 -31 3 -7 -2 -16
-11 -20 -9 -3 -14 -10 -10 -15 3 -5 1 -12 -5 -16 -16 -10 -12 17 7 37 9 10 11
18 5 18 -17 0 -52 -51 -52 -76 0 -43 -9 -53 -45 -47 -25 4 -42 0 -65 -17 l-32
-23 16 30 c21 42 83 104 136 137 54 34 95 77 121 128 22 42 23 48 10 48 -5 0
-13 -9 -16 -21 -10 -30 -19 -14 -39 71 -24 100 -46 181 -57 205 -15 34 -48
142 -55 182 -3 21 -12 47 -19 58 -7 11 -16 35 -19 53 -4 17 -11 32 -15 32 -4
0 -8 12 -8 28 -1 15 -10 98 -22 185 -12 87 -21 190 -21 230 1 85 21 236 45
326 9 35 14 66 11 68 -8 8 -74 -25 -79 -40 -4 -9 -8 -9 -15 2 -9 12 -13 12
-26 2 -13 -11 -16 -11 -16 -1 0 7 -9 21 -21 31 -18 15 -20 25 -14 60 6 33 4
40 -6 37 -10 -3 -14 -22 -14 -59 0 -46 3 -54 18 -51 11 2 17 -4 17 -17 0 -11
5 -21 11 -23 12 -4 -25 -88 -39 -88 -18 0 -32 26 -32 57 0 18 -4 33 -9 33 -11
0 -19 -87 -10 -102 7 -11 -15 -81 -34 -108 -12 -17 -13 -17 -34 0 -17 14 -22
27 -20 61 0 24 -3 46 -8 49 -13 7 -19 -75 -7 -96 11 -19 -33 -164 -49 -164 -5
0 -9 21 -9 46 0 69 -22 51 -40 -33 -18 -85 -30 -102 -30 -43 0 24 -5 71 -11
105 -9 56 -8 66 10 101 26 47 28 73 6 54 -13 -11 -15 -7 -15 28 0 26 5 44 15
50 12 6 16 27 16 85 0 72 9 101 24 77 4 -6 11 -8 16 -5 11 8 11 3 -5 -70 -7
-33 -11 -72 -9 -86 2 -14 -3 -43 -10 -65 -17 -49 -22 -154 -8 -154 6 0 12 17
13 38 0 20 2 42 3 47 2 6 3 25 4 43 1 23 7 35 19 39 21 5 57 52 47 61 -4 4
-13 -2 -21 -12 -13 -18 -14 -18 -23 6 -6 16 -6 39 1 64 5 22 15 60 21 86 10
38 14 44 22 32 7 -11 18 -14 38 -9 28 7 38 25 13 25 -8 0 -16 7 -20 15 -3 8
-12 12 -21 9 -11 -5 -14 -2 -9 12 4 11 10 24 14 29 14 20 19 45 10 45 -6 0
-21 -24 -34 -54 -26 -58 -53 -87 -43 -45 20 82 28 104 58 144 40 51 94 85 138
85 68 0 144 -54 177 -125 17 -35 24 -40 57 -43 34 -3 37 -1 37 23 0 14 13 51
29 83 21 43 30 77 34 137 7 104 27 160 94 267 30 48 52 92 48 97 -3 6 1 25 9
43 13 31 14 31 15 8 2 -40 12 -70 25 -70 10 0 12 207 3 393 -1 26 1 47 6 47 4
0 7 -3 7 -7z m880 -1169 c0 -27 -4 -43 -10 -39 -5 3 -10 15 -10 25 0 10 -5 22
-11 26 -17 10 -2 -68 15 -81 10 -8 16 -59 21 -180 4 -94 8 -186 10 -205 5 -48
-11 -75 -20 -35 -3 17 -11 48 -16 70 -5 22 -13 76 -17 120 -4 48 -11 78 -17
75 -12 -6 -13 -26 -3 -64 8 -33 0 -136 -12 -136 -14 0 -30 79 -30 149 0 39 -4
71 -10 71 -5 0 -9 -20 -8 -44 1 -68 -21 -89 -40 -38 -11 30 -10 120 2 140 11
18 23 15 29 -8 3 -12 14 -20 26 -20 31 0 45 43 30 89 -16 50 -33 66 -23 21 11
-51 11 -83 -2 -87 -12 -4 -44 71 -44 104 0 12 -5 25 -11 29 -8 4 -10 -10 -8
-46 3 -36 0 -55 -8 -57 -15 -5 -29 27 -38 90 -7 46 -6 47 18 47 14 0 29 -4 32
-10 9 -14 36 -12 54 4 16 14 66 34 89 35 8 1 12 -14 12 -45z m-515 -142 c-6
-14 -9 -11 -16 13 -6 20 -5 32 4 37 14 9 22 -25 12 -50z m-170 -1522 c3 -5 1
-10 -4 -10 -6 0 -11 5 -11 10 0 6 2 10 4 10 3 0 8 -4 11 -10z m157 -5 c2 2 12
-9 22 -25 18 -31 8 -42 -14 -15 -7 8 -18 15 -25 15 -7 0 -15 9 -18 20 -4 16
-2 18 13 10 9 -5 19 -7 22 -5z m-235 -42 c-3 -10 -5 -2 -5 17 0 19 2 27 5 18
2 -10 2 -26 0 -35z"/>
<path d="M2170 4820 c0 -5 5 -10 10 -10 6 0 10 5 10 10 0 6 -4 10 -10 10 -5 0
-10 -4 -10 -10z"/>
<path d="M2350 4780 c0 -5 5 -10 10 -10 6 0 10 5 10 10 0 6 -4 10 -10 10 -5 0
-10 -4 -10 -10z"/>
<path d="M2155 4769 c-4 -6 -3 -15 3 -21 6 -6 11 -4 15 6 7 18 -9 31 -18 15z"/>
<path d="M2096 4704 c-4 -10 -2 -22 3 -27 7 -7 13 -5 17 7 4 10 2 22 -3 27 -7
7 -13 5 -17 -7z"/>
<path d="M2082 4594 c2 -16 8 -28 13 -26 15 3 12 45 -3 50 -10 3 -13 -4 -10
-24z"/>
<path d="M2140 4595 c0 -8 7 -15 15 -15 8 0 15 7 15 15 0 8 -7 15 -15 15 -8 0
-15 -7 -15 -15z"/>
<path d="M2145 4500 c-7 -12 2 -30 16 -30 12 0 12 27 0 35 -5 3 -12 1 -16 -5z"/>
<path d="M2080 4471 c0 -6 5 -13 10 -16 6 -3 10 1 10 9 0 9 -4 16 -10 16 -5 0
-10 -4 -10 -9z"/>
<path d="M1677 4436 c-6 -16 2 -28 14 -20 12 7 11 34 0 34 -5 0 -11 -6 -14
-14z"/>
<path d="M1750 4430 c0 -11 4 -20 9 -20 11 0 22 26 14 34 -12 12 -23 5 -23
-14z"/>
<path d="M2930 4440 c0 -5 7 -10 15 -10 8 0 15 5 15 10 0 6 -7 10 -15 10 -8 0
-15 -4 -15 -10z"/>
<path d="M2990 4440 c0 -5 7 -10 16 -10 8 0 12 5 9 10 -3 6 -10 10 -16 10 -5
0 -9 -4 -9 -10z"/>
<path d="M2490 4426 c0 -9 -7 -16 -15 -16 -9 0 -12 -6 -9 -15 10 -26 44 -18
44 9 0 14 -4 28 -10 31 -5 3 -10 -1 -10 -9z"/>
<path d="M2852 4428 c3 -7 13 -15 24 -17 16 -3 17 -1 5 13 -16 19 -34 21 -29
4z"/>
<path d="M1804 4400 c5 -19 8 -43 8 -52 -1 -10 6 -18 14 -18 16 0 19 16 4 25
-6 3 -8 16 -4 29 3 15 -1 27 -12 37 -16 13 -17 11 -10 -21z"/>
<path d="M2040 4415 c0 -8 5 -15 10 -15 6 0 10 7 10 15 0 8 -4 15 -10 15 -5 0
-10 -7 -10 -15z"/>
<path d="M2830 4411 c0 -5 5 -13 10 -16 6 -3 10 -2 10 4 0 5 -4 13 -10 16 -5
3 -10 2 -10 -4z"/>
<path d="M1633 4399 c-18 -18 -16 -36 3 -47 14 -8 15 -15 6 -41 -6 -17 -8 -31
-4 -31 17 0 30 -52 21 -82 -17 -60 10 -100 42 -62 11 13 10 17 -4 26 -14 7
-16 17 -11 46 4 20 14 45 22 55 9 10 17 33 19 50 1 18 3 41 5 52 3 21 -17 25
-59 11 -17 -5 -22 -3 -25 14 -2 17 -5 19 -15 9z m64 -76 c-2 -31 -7 -39 -25
-41 -27 -4 -28 4 -2 46 25 41 31 40 27 -5z"/>
<path d="M2760 4388 c0 -18 18 -34 28 -24 3 4 -2 14 -11 23 -16 16 -17 16 -17
1z"/>
<path d="M1763 4379 c-11 -11 -6 -49 7 -49 13 0 21 31 12 46 -6 10 -11 11 -19
3z"/>
<path d="M2006 4374 c-9 -22 -8 -24 9 -24 8 0 15 6 15 14 0 22 -17 28 -24 10z"/>
<path d="M2400 4361 c0 -16 3 -36 6 -45 10 -27 24 -7 24 35 0 28 -4 39 -15 39
-10 0 -15 -10 -15 -29z"/>
<path d="M2898 4382 c-20 -4 -23 -17 -7 -28 12 -7 33 10 28 23 -2 5 -12 7 -21
5z"/>
<path d="M3065 4380 c-3 -5 -1 -10 4 -10 6 0 11 5 11 10 0 6 -2 10 -4 10 -3 0
-8 -4 -11 -10z"/>
<path d="M2980 4369 c0 -5 5 -7 10 -4 6 3 10 8 10 11 0 2 -4 4 -10 4 -5 0 -10
-5 -10 -11z"/>
<path d="M3025 4370 c3 -5 10 -10 16 -10 5 0 9 5 9 10 0 6 -7 10 -16 10 -8 0
-12 -4 -9 -10z"/>
<path d="M1850 4360 c0 -5 5 -10 11 -10 5 0 7 5 4 10 -3 6 -8 10 -11 10 -2 0
-4 -4 -4 -10z"/>
<path d="M2822 4353 c2 -10 11 -19 21 -21 24 -5 21 15 -4 28 -18 10 -20 9 -17
-7z"/>
<path d="M2347 4353 c-9 -8 -9 -46 -1 -67 12 -31 24 -16 24 29 0 42 -7 54 -23
38z"/>
<path d="M3050 4313 c0 -16 7 -38 15 -49 13 -18 14 -17 15 17 0 21 -7 42 -15
49 -13 11 -15 8 -15 -17z"/>
<path d="M2202 4294 c2 -15 9 -29 16 -32 10 -3 13 4 10 24 -2 15 -9 29 -16 32
-10 3 -13 -4 -10 -24z"/>
<path d="M1750 4285 c0 -8 6 -15 14 -15 7 0 19 7 26 15 11 13 8 15 -14 15 -16
0 -26 -5 -26 -15z"/>
<path d="M2717 4293 c-8 -12 11 -95 25 -108 7 -7 8 5 3 40 -8 55 -19 83 -28
68z"/>
<path d="M2770 4286 c0 -14 28 -42 35 -34 2 2 2 14 -2 26 -6 24 -33 31 -33 8z"/>
<path d="M2447 4266 c-7 -18 3 -56 14 -56 5 0 9 16 9 35 0 35 -13 47 -23 21z"/>
<path d="M2525 4270 c-4 -6 -3 -16 3 -22 6 -6 12 -6 17 2 4 6 3 16 -3 22 -6 6
-12 6 -17 -2z"/>
<path d="M1792 4243 c-8 -15 -9 -24 -1 -28 15 -10 21 0 17 27 l-3 23 -13 -22z"/>
<path d="M1850 4236 c0 -9 5 -16 10 -16 6 0 10 4 10 9 0 6 -4 13 -10 16 -5 3
-10 -1 -10 -9z"/>
<path d="M2097 4233 c-4 -3 -7 -19 -7 -35 0 -40 24 -31 28 10 3 30 -6 41 -21
25z"/>
<path d="M2366 4213 c-9 -23 12 -43 24 -23 5 8 10 21 10 28 0 18 -27 15 -34
-5z"/>
<path d="M2500 4200 c0 -5 5 -10 10 -10 6 0 10 5 10 10 0 6 -4 10 -10 10 -5 0
-10 -4 -10 -10z"/>
<path d="M1600 4175 c-6 -16 -12 -48 -13 -70 -2 -33 1 -40 19 -43 14 -2 24 5
32 23 14 31 15 35 3 35 -5 0 -13 -9 -16 -21 -13 -38 -24 -5 -14 40 12 54 6 77
-11 36z"/>
<path d="M2788 4182 c-6 -23 -1 -32 19 -32 17 0 17 11 0 35 -13 17 -14 17 -19
-3z"/>
<path d="M2304 4176 c-8 -21 3 -49 16 -41 5 3 10 15 10 25 0 25 -18 36 -26 16z"/>
<path d="M2470 4150 c0 -19 11 -26 23 -14 8 8 -3 34 -14 34 -5 0 -9 -9 -9 -20z"/>
<path d="M2330 4120 c0 -5 5 -10 10 -10 6 0 10 5 10 10 0 6 -4 10 -10 10 -5 0
-10 -4 -10 -10z"/>
<path d="M2400 4095 c0 -8 5 -15 10 -15 6 0 10 7 10 15 0 8 -4 15 -10 15 -5 0
-10 -7 -10 -15z"/>
<path d="M2538 4003 c3 -116 10 -178 19 -169 7 7 4 223 -4 254 -12 50 -18 16
-15 -85z"/>
<path d="M2366 4063 c-12 -12 -6 -33 9 -33 8 0 15 6 15 14 0 17 -14 28 -24 19z"/>
<path d="M1975 4020 c-8 -13 3 -50 16 -50 12 0 12 47 0 55 -5 3 -12 1 -16 -5z"/>
<path d="M2469 3965 c-9 -8 3 -75 12 -69 11 7 12 74 1 74 -5 0 -11 -2 -13 -5z"/>
<path d="M2327 3928 c-7 -25 0 -41 14 -33 12 8 12 42 0 49 -5 3 -11 -4 -14
-16z"/>
<path d="M2397 3933 c-11 -10 -8 -53 3 -53 6 0 10 14 10 30 0 31 -2 35 -13 23z"/>
<path d="M2065 3909 c-10 -16 4 -61 18 -56 7 2 12 9 11 15 -1 7 -2 21 -2 32
-2 22 -17 27 -27 9z"/>
<path d="M2195 3880 c-8 -13 4 -50 16 -50 5 0 9 14 9 30 0 30 -13 40 -25 20z"/>
<path d="M2470 3805 c0 -22 4 -34 10 -30 6 3 10 17 10 30 0 13 -4 27 -10 30
-6 4 -10 -8 -10 -30z"/>
<path d="M2310 3760 c0 -16 5 -30 10 -30 6 0 10 14 10 30 0 17 -4 30 -10 30
-5 0 -10 -13 -10 -30z"/>
<path d="M2380 3766 c0 -14 5 -28 10 -31 6 -4 10 7 10 24 0 17 -4 31 -10 31
-5 0 -10 -11 -10 -24z"/>
<path d="M2528 3734 c-4 -34 3 -50 16 -37 9 10 7 73 -3 73 -5 0 -11 -16 -13
-36z"/>
<path d="M1940 3722 c0 -21 7 -47 15 -58 14 -19 14 -19 15 1 0 38 -13 95 -21
95 -5 0 -9 -17 -9 -38z"/>
<path d="M2598 3704 c-5 -4 -8 -16 -8 -28 0 -14 3 -17 11 -9 6 6 9 19 7 28 -1
9 -6 13 -10 9z"/>
<path d="M2076 3685 c-3 -9 1 -18 10 -22 19 -7 28 2 21 22 -8 19 -23 19 -31 0z"/>
<path d="M2550 3660 c0 -11 5 -20 10 -20 6 0 10 9 10 20 0 11 -4 20 -10 20 -5
0 -10 -9 -10 -20z"/>
<path d="M2437 3648 c-7 -25 0 -41 14 -33 12 8 12 55 0 55 -5 0 -11 -10 -14
-22z"/>
<path d="M2510 3625 c0 -8 5 -15 10 -15 6 0 10 7 10 15 0 8 -4 15 -10 15 -5 0
-10 -7 -10 -15z"/>
<path d="M2577 3616 c-3 -8 -4 -22 -2 -32 2 -11 4 -28 5 -39 l1 -20 9 20 c12
27 12 72 1 79 -5 3 -11 0 -14 -8z"/>
<path d="M2130 3552 c0 -28 10 -52 22 -52 14 0 5 63 -9 68 -8 2 -13 -5 -13
-16z"/>
<path d="M2485 3547 c-10 -40 0 -56 15 -24 10 20 11 30 2 39 -8 8 -13 4 -17
-15z"/>
<path d="M2392 3508 c-15 -15 -16 -38 -2 -38 12 0 23 25 18 40 -2 7 -7 7 -16
-2z"/>
<path d="M1992 3444 c2 -15 9 -29 16 -32 10 -3 13 4 10 24 -2 15 -9 29 -16 32
-10 3 -13 -4 -10 -24z"/>
<path d="M2577 3457 c-11 -29 -9 -53 4 -40 6 6 9 21 7 34 -3 21 -4 22 -11 6z"/>
<path d="M2432 3443 c-15 -26 -15 -53 -2 -53 11 0 24 43 18 62 -3 8 -9 5 -16
-9z"/>
<path d="M2497 3413 c-3 -16 -3 -30 -1 -33 7 -7 24 23 24 43 0 27 -17 20 -23
-10z"/>
<path d="M2306 3411 c-7 -11 3 -41 14 -41 11 0 21 30 14 41 -3 5 -9 9 -14 9
-5 0 -11 -4 -14 -9z"/>
<path d="M2104 3326 c-4 -11 0 -24 9 -34 15 -14 17 -14 23 2 4 11 0 24 -9 34
-15 14 -17 14 -23 -2z"/>
<path d="M2413 3325 c-8 -22 6 -33 17 -15 13 20 12 30 0 30 -6 0 -13 -7 -17
-15z"/>
<path d="M2546 3321 c-4 -6 -3 -18 2 -27 8 -15 10 -14 16 2 8 20 -8 42 -18 25z"/>
<path d="M2464 3275 c-8 -20 3 -48 16 -40 13 8 13 55 0 55 -6 0 -13 -7 -16
-15z"/>
<path d="M2521 3223 c-7 -18 -17 -33 -22 -33 -5 0 -9 -7 -9 -15 0 -8 7 -15 15
-15 18 0 38 45 32 74 -3 18 -6 16 -16 -11z"/>
<path d="M2340 3215 c0 -8 7 -15 15 -15 8 0 15 7 15 15 0 8 -7 15 -15 15 -8 0
-15 -7 -15 -15z"/>
<path d="M2085 3200 c-3 -5 1 -13 10 -16 22 -9 29 1 11 15 -10 8 -16 9 -21 1z"/>
<path d="M2405 3169 c-8 -23 -1 -34 14 -24 13 8 15 45 2 45 -5 0 -13 -9 -16
-21z"/>
<path d="M2062 3153 c4 -34 23 -40 38 -12 7 12 8 19 2 15 -5 -3 -12 1 -16 9
-9 25 -28 17 -24 -12z"/>
<path d="M2260 3136 c-9 -12 -7 -17 9 -26 18 -9 21 -8 21 9 0 26 -15 34 -30
17z"/>
<path d="M2446 3104 c-4 -9 -4 -19 -2 -21 8 -8 26 8 26 23 0 19 -16 18 -24 -2z"/>
<path d="M2390 3005 c0 -8 5 -15 10 -15 6 0 10 7 10 15 0 8 -4 15 -10 15 -5 0
-10 -7 -10 -15z"/>
<path d="M2469 3010 c0 -3 -2 -13 -4 -22 -2 -10 0 -20 5 -23 12 -8 22 27 10
39 -5 5 -10 8 -11 6z"/>
<path d="M2150 2956 c0 -16 24 -38 33 -30 8 9 -11 44 -23 44 -6 0 -10 -6 -10
-14z"/>
<path d="M2335 2950 c-3 -5 -1 -10 4 -10 6 0 11 5 11 10 0 6 -2 10 -4 10 -3 0
-8 -4 -11 -10z"/>
<path d="M2397 2953 c-13 -12 -7 -33 8 -33 8 0 15 9 15 20 0 20 -11 26 -23 13z"/>
<path d="M2420 2888 c0 -7 -3 -24 -7 -37 -4 -16 -2 -22 4 -18 14 9 23 56 12
63 -5 3 -9 -1 -9 -8z"/>
<path d="M2247 2724 c-4 -4 -7 -16 -7 -27 0 -15 3 -17 13 -9 10 8 16 3 27 -21
16 -38 25 -22 12 25 -8 31 -30 47 -45 32z"/>
<path d="M2166 2693 c-6 -14 -5 -15 5 -6 7 7 10 15 7 18 -3 3 -9 -2 -12 -12z"/>
<path d="M2200 2660 c-7 -13 -7 -20 -1 -20 6 0 15 9 21 20 7 13 7 20 1 20 -6
0 -15 -9 -21 -20z"/>
<path d="M2276 2545 c-3 -8 -1 -15 4 -15 6 0 10 7 10 15 0 8 -2 15 -4 15 -2 0
-6 -7 -10 -15z"/>
<path d="M3110 4009 c0 -6 -9 -8 -20 -4 -12 4 -20 2 -20 -5 0 -17 29 -23 45
-10 17 14 20 30 5 30 -5 0 -10 -5 -10 -11z"/>
<path d="M6460 5313 c0 -14 19 -38 25 -32 8 8 -5 39 -16 39 -5 0 -9 -3 -9 -7z"/>
<path d="M6460 5110 c0 -5 5 -10 10 -10 6 0 10 5 10 10 0 6 -4 10 -10 10 -5 0
-10 -4 -10 -10z"/>
<path d="M6524 5105 c-9 -22 12 -43 27 -28 9 9 8 16 -5 28 -15 15 -17 15 -22
0z"/>
<path d="M6475 5041 c-10 -17 15 -45 29 -31 7 7 5 15 -6 26 -11 11 -18 13 -23
5z"/>
<path d="M6550 5036 c0 -9 7 -16 16 -16 9 0 14 5 12 12 -6 18 -28 21 -28 4z"/>
<path d="M6357 4946 c-6 -16 2 -28 14 -20 12 7 11 34 0 34 -5 0 -11 -6 -14
-14z"/>
<path d="M6570 4950 c0 -5 5 -10 10 -10 6 0 10 5 10 10 0 6 -4 10 -10 10 -5 0
-10 -4 -10 -10z"/>
<path d="M6620 4950 c0 -5 5 -10 10 -10 6 0 10 5 10 10 0 6 -4 10 -10 10 -5 0
-10 -4 -10 -10z"/>
<path d="M6530 4940 c0 -5 5 -10 10 -10 6 0 10 5 10 10 0 6 -4 10 -10 10 -5 0
-10 -4 -10 -10z"/>
<path d="M6670 4920 c0 -5 5 -10 10 -10 6 0 10 5 10 10 0 6 -4 10 -10 10 -5 0
-10 -4 -10 -10z"/>
<path d="M6558 4907 c-22 -18 -38 -60 -38 -102 0 -25 8 -40 31 -59 59 -50 124
-20 139 64 6 33 3 47 -14 73 -18 26 -29 32 -61 34 -22 2 -48 -3 -57 -10z m53
-86 c15 -38 -6 -49 -25 -13 -9 17 -16 39 -16 48 0 14 2 14 16 3 9 -7 20 -24
25 -38z"/>
<path d="M6495 4899 c-10 -15 3 -25 16 -12 7 7 7 13 1 17 -6 3 -14 1 -17 -5z"/>
<path d="M6260 4860 c0 -19 11 -26 23 -14 8 8 -3 34 -14 34 -5 0 -9 -9 -9 -20z"/>
<path d="M6706 4872 c-3 -6 -1 -14 5 -17 14 -9 20 -2 10 14 -6 8 -11 9 -15 3z"/>
<path d="M6482 4839 c3 -8 8 -13 11 -11 9 3 7 11 -5 18 -6 4 -8 0 -6 -7z"/>
<path d="M6710 4809 c0 -5 5 -7 10 -4 6 3 10 8 10 11 0 2 -4 4 -10 4 -5 0 -10
-5 -10 -11z"/>
<path d="M6490 4770 c0 -5 5 -10 10 -10 6 0 10 5 10 10 0 6 -4 10 -10 10 -5 0
-10 -4 -10 -10z"/>
<path d="M6690 4760 c0 -5 5 -10 10 -10 6 0 10 5 10 10 0 6 -4 10 -10 10 -5 0
-10 -4 -10 -10z"/>
<path d="M6516 4723 c-11 -11 -6 -23 9 -23 8 0 15 4 15 9 0 13 -16 22 -24 14z"/>
<path d="M6577 4704 c-8 -8 1 -24 14 -24 5 0 9 7 9 15 0 15 -12 20 -23 9z"/>
<path d="M6650 4699 c0 -5 5 -7 10 -4 6 3 10 8 10 11 0 2 -4 4 -10 4 -5 0 -10
-5 -10 -11z"/>
<path d="M6720 4637 c0 -21 26 -29 40 -11 8 9 9 14 2 14 -6 0 -17 3 -26 6 -10
4 -16 1 -16 -9z"/>
<path d="M6374 4624 c17 -44 102 -114 138 -114 6 0 16 -7 23 -17 7 -10 14 -12
18 -6 4 6 -23 29 -59 53 -35 23 -74 55 -86 71 -23 31 -44 39 -34 13z"/>
<path d="M6460 4596 c0 -9 5 -16 10 -16 6 0 10 4 10 9 0 6 -4 13 -10 16 -5 3
-10 -1 -10 -9z"/>
<path d="M6234 4577 c-3 -9 -3 -25 1 -34 6 -16 8 -16 18 5 7 16 7 26 -1 34 -8
8 -13 7 -18 -5z"/>
<path d="M6680 4565 c0 -16 27 -32 37 -21 7 7 -16 36 -28 36 -5 0 -9 -7 -9
-15z"/>
<path d="M6512 4559 c3 -8 8 -13 11 -11 9 3 7 11 -5 18 -6 4 -8 0 -6 -7z"/>
<path d="M6555 4520 c3 -5 13 -10 21 -10 8 0 14 5 14 10 0 6 -9 10 -21 10 -11
0 -17 -4 -14 -10z"/>
<path d="M6596 4505 c-10 -8 -15 -18 -12 -23 10 -16 65 -32 71 -21 4 5 -1 11
-9 14 -52 16 -51 16 -36 25 8 5 12 11 10 14 -3 2 -13 -2 -24 -9z"/>
<path d="M6795 4499 c-5 -16 -10 -18 -21 -8 -11 9 -14 8 -14 -4 0 -23 25 -40
37 -25 16 20 25 58 14 58 -5 0 -13 -9 -16 -21z"/>
<path d="M6920 4507 c0 -16 11 -21 74 -32 49 -8 101 -32 149 -68 40 -31 51
-21 15 14 -27 25 -106 63 -166 79 -24 6 -50 14 -58 17 -8 3 -14 -1 -14 -10z"/>
<path d="M6884 4485 c-9 -22 12 -43 27 -28 9 9 8 16 -5 28 -15 15 -17 15 -22
0z"/>
<path d="M6425 4470 c7 -22 6 -23 -9 -11 -9 8 -19 11 -23 8 -8 -8 14 -35 40
-49 19 -10 19 -8 13 23 -3 18 -11 38 -17 44 -8 7 -9 3 -4 -15z"/>
<path d="M6477 4430 c3 -11 0 -20 -6 -20 -22 0 -11 -18 14 -22 28 -6 30 -1 15
36 -11 30 -31 35 -23 6z"/>
<path d="M6876 4431 c-4 -6 -13 -8 -21 -4 -9 3 -15 -1 -15 -11 0 -9 6 -16 14
-16 16 0 42 28 33 36 -3 3 -8 1 -11 -5z"/>
<path d="M6540 4430 c-9 -43 -6 -58 13 -70 15 -9 22 -10 25 -1 2 6 13 11 24
11 17 0 18 2 8 15 -11 13 -15 13 -22 3 -7 -9 -11 -10 -14 -2 -7 16 -33 50 -34
44z"/>
<path d="M6130 4395 c0 -15 6 -25 14 -25 19 0 27 25 13 39 -18 18 -27 13 -27
-14z"/>
<path d="M6900 4398 c0 -19 26 -25 32 -8 2 6 18 5 43 -1 22 -6 58 -14 80 -18
49 -9 79 -24 129 -67 45 -39 62 -37 25 2 -51 55 -175 106 -266 109 -35 1 -43
-2 -43 -17z"/>
<path d="M6770 4400 c0 -6 -7 -10 -16 -8 -23 4 -30 -20 -8 -29 11 -4 22 0 30
12 17 22 18 35 4 35 -5 0 -10 -5 -10 -10z"/>
<path d="M5738 4382 c-30 -4 -39 -22 -10 -22 18 0 50 17 42 22 -3 2 -17 2 -32
0z"/>
<path d="M6836 4355 c-4 -14 -13 -25 -21 -25 -8 0 -15 -7 -15 -16 0 -9 7 -14
17 -12 19 3 47 64 34 72 -5 3 -12 -5 -15 -19z"/>
<path d="M6946 4343 c-6 -15 -8 -15 -16 -3 -7 11 -10 9 -10 -12 0 -23 4 -27
28 -26 32 0 121 -22 177 -46 22 -9 64 -42 93 -73 28 -32 52 -51 52 -44 0 18
-55 80 -99 111 -35 26 -159 70 -194 70 -14 0 -17 5 -12 20 8 24 -10 27 -19 3z"/>
<path d="M5722 4311 c-61 -23 -122 -58 -122 -72 0 -5 28 5 62 22 35 18 85 35
113 38 27 3 50 11 50 16 0 17 -48 15 -103 -4z"/>
<path d="M6523 4289 c-28 -10 -29 -25 -3 -39 16 -9 22 -7 27 7 3 10 8 21 10
25 6 12 -12 16 -34 7z"/>
<path d="M6870 4286 c0 -9 7 -16 16 -16 9 0 14 5 12 12 -6 18 -28 21 -28 4z"/>
<path d="M6670 4270 c0 -4 7 -13 15 -20 12 -10 18 -10 30 0 23 19 18 27 -15
27 -16 0 -30 -4 -30 -7z"/>
<path d="M6927 4265 c-6 -15 42 -45 74 -45 10 0 46 -14 79 -32 61 -32 102 -73
134 -136 24 -46 31 -34 10 17 -22 55 -97 120 -180 154 -37 16 -74 35 -81 43
-18 18 -29 18 -36 -1z"/>
<path d="M6038 4244 c-8 -7 3 -54 13 -54 12 0 12 47 0 54 -4 3 -10 3 -13 0z"/>
<path d="M6338 4244 c-5 -4 -8 -16 -8 -28 0 -14 3 -17 11 -9 6 6 9 19 7 28 -1
9 -6 13 -10 9z"/>
<path d="M6845 4240 c-3 -5 -12 -7 -20 -3 -9 3 -15 -1 -15 -10 0 -8 6 -17 13
-20 15 -6 47 15 47 32 0 13 -17 15 -25 1z"/>
<path d="M5740 4221 c-19 -4 -48 -15 -65 -23 -39 -21 -95 -73 -95 -89 0 -6 18
5 39 24 48 43 83 62 134 71 20 4 37 11 37 16 0 11 1 11 -50 1z"/>
<path d="M6237 4223 c-10 -16 4 -53 20 -53 10 0 12 6 8 23 -9 28 -21 41 -28
30z"/>
<path d="M6540 4195 c0 -8 5 -15 10 -15 6 0 10 7 10 15 0 8 -4 15 -10 15 -5 0
-10 -7 -10 -15z"/>
<path d="M6731 4191 c-1 -8 -8 -11 -21 -8 -15 4 -20 0 -20 -14 0 -10 6 -19 14
-19 18 0 39 26 33 42 -4 10 -6 10 -6 -1z"/>
<path d="M6948 4194 c-4 -5 -6 -26 -5 -46 1 -35 2 -36 32 -31 77 12 186 -56
224 -141 10 -24 24 -47 30 -50 35 -22 -22 99 -71 151 -34 35 -106 73 -138 73
-12 0 -31 12 -44 27 -12 14 -25 22 -28 17z"/>
<path d="M6805 4163 c-4 -13 -12 -19 -21 -16 -16 6 -19 -13 -3 -23 16 -9 42
21 36 42 -4 17 -5 17 -12 -3z"/>
<path d="M5700 4132 c-39 -19 -94 -71 -85 -80 3 -3 16 5 28 19 23 27 83 59
112 59 9 0 13 5 10 10 -8 14 -24 12 -65 -8z"/>
<path d="M6480 4126 c0 -7 -9 -16 -20 -19 -13 -3 -18 -10 -14 -21 8 -22 31
-20 44 3 13 25 13 51 0 51 -5 0 -10 -6 -10 -14z"/>
<path d="M6562 4109 c-7 -12 -11 -23 -8 -26 8 -9 36 17 36 33 0 20 -13 17 -28
-7z"/>
<path d="M6890 4122 c0 -7 -7 -12 -15 -12 -8 0 -15 -7 -15 -15 0 -20 24 -19
40 0 10 12 10 19 2 27 -9 9 -12 9 -12 0z"/>
<path d="M6643 4098 c2 -7 10 -13 17 -13 7 0 15 6 18 13 2 7 -5 12 -18 12 -13
0 -20 -5 -17 -12z"/>
<path d="M6768 4043 c-20 -5 -23 -18 -8 -28 12 -7 40 12 40 26 0 9 -4 10 -32
2z"/>
<path d="M5570 4000 c-35 -69 -22 -67 19 3 13 20 18 37 12 37 -6 0 -20 -18
-31 -40z"/>
<path d="M6592 4018 c5 -15 27 -18 31 -3 1 5 -6 11 -17 13 -12 3 -17 -1 -14
-10z"/>
<path d="M6662 4013 c5 -25 42 -23 46 2 2 15 1 17 -6 6 -7 -9 -12 -10 -16 -2
-11 17 -28 13 -24 -6z"/>
<path d="M6130 4000 c0 -5 7 -10 15 -10 8 0 15 5 15 10 0 6 -7 10 -15 10 -8 0
-15 -4 -15 -10z"/>
<path d="M6189 3999 c14 -6 28 -6 33 -1 5 5 -5 9 -24 10 -31 0 -31 -1 -9 -9z"/>
<path d="M6915 3989 c-4 -6 -5 -13 -2 -16 7 -7 27 6 27 18 0 12 -17 12 -25 -2z"/>
<path d="M6230 3976 c0 -16 28 -42 36 -33 8 7 -14 47 -26 47 -6 0 -10 -6 -10
-14z"/>
<path d="M6845 3979 c-4 -6 -5 -13 -2 -16 7 -7 27 6 27 18 0 12 -17 12 -25 -2z"/>
<path d="M6046 3971 c-11 -17 5 -91 20 -91 11 0 13 10 8 43 -7 46 -18 65 -28
48z"/>
<path d="M6538 3974 c-5 -4 -8 -16 -8 -27 0 -16 -3 -17 -14 -8 -21 17 -33 -7
-13 -26 13 -14 17 -13 32 10 16 25 18 67 3 51z"/>
<path d="M6776 3955 c-12 -9 -16 -20 -12 -31 6 -16 8 -16 22 -2 9 9 14 23 12
31 -3 14 -6 14 -22 2z"/>
<path d="M6657 3944 c-9 -9 5 -45 17 -41 17 6 19 34 2 40 -8 3 -16 3 -19 1z"/>
<path d="M6591 3864 c-1 -17 2 -34 5 -37 12 -12 44 14 44 35 0 21 0 21 -14 2
-14 -18 -15 -18 -25 6 -10 25 -10 25 -10 -6z"/>
<path d="M6907 3877 c-4 -10 -12 -14 -22 -11 -16 7 -22 -20 -6 -30 12 -8 44
30 39 45 -3 9 -6 8 -11 -4z"/>
<path d="M6050 3860 c0 -5 5 -10 10 -10 6 0 10 5 10 10 0 6 -4 10 -10 10 -5 0
-10 -4 -10 -10z"/>
<path d="M6720 3809 c0 -14 -5 -19 -15 -16 -21 9 -27 -9 -9 -24 14 -11 18 -10
30 6 16 22 19 55 4 55 -5 0 -10 -9 -10 -21z"/>
<path d="M6560 3810 c0 -5 -7 -10 -15 -10 -19 0 -19 -14 -1 -29 12 -10 17 -8
25 8 14 25 14 41 1 41 -5 0 -10 -4 -10 -10z"/>
<path d="M6910 3790 c0 -5 5 -10 10 -10 6 0 10 5 10 10 0 6 -4 10 -10 10 -5 0
-10 -4 -10 -10z"/>
<path d="M6476 3771 c-4 -5 -2 -12 3 -15 5 -4 12 -2 15 3 4 5 2 12 -3 15 -5 4
-12 2 -15 -3z"/>
<path d="M6825 3770 c-3 -5 -12 -7 -20 -3 -10 3 -15 -2 -15 -16 0 -12 4 -21 9
-21 5 0 16 -2 24 -5 10 -4 14 2 15 25 1 31 -3 37 -13 20z"/>
<path d="M6884 3726 c-10 -8 -15 -18 -11 -22 4 -4 17 2 30 14 24 25 12 30 -19
8z"/>
<path d="M6636 3703 c-4 -14 -12 -20 -22 -16 -16 6 -19 -13 -3 -23 16 -9 42
20 37 42 -4 17 -5 17 -12 -3z"/>
<path d="M6232 3673 c2 -20 8 -38 15 -40 8 -3 11 5 9 24 -2 15 -4 34 -5 41 0
6 -6 12 -12 12 -6 0 -9 -16 -7 -37z"/>
<path d="M6725 3680 c-4 -16 -11 -30 -16 -30 -6 0 -8 4 -4 9 3 5 1 12 -5 16
-6 4 -10 -4 -10 -19 0 -39 18 -40 40 -4 21 35 26 58 11 58 -5 0 -12 -13 -16
-30z"/>
<path d="M6100 3651 c0 -31 14 -49 25 -32 8 13 -5 61 -16 61 -5 0 -9 -13 -9
-29z"/>
<path d="M6830 3635 c0 -9 -7 -15 -16 -13 -23 4 -30 -20 -9 -28 19 -8 30 2 40
34 4 13 2 22 -4 22 -6 0 -11 -7 -11 -15z"/>
<path d="M6464 3629 c-8 -14 11 -33 25 -25 6 4 11 11 11 16 0 13 -29 20 -36 9z"/>
<path d="M6630 3580 c-11 -7 -12 -12 -3 -21 13 -13 33 -4 33 17 0 16 -9 18
-30 4z"/>
<path d="M6750 3549 c0 -15 -5 -19 -15 -15 -9 3 -15 0 -15 -9 0 -23 22 -29 37
-10 15 22 17 55 3 55 -5 0 -10 -9 -10 -21z"/>
<path d="M6855 3531 c-3 -6 -15 -11 -26 -11 -23 0 -21 -23 2 -28 14 -2 45 36
36 45 -3 2 -8 0 -12 -6z"/>
<path d="M6457 3514 c-4 -4 -7 -18 -7 -31 0 -29 25 -31 40 -3 8 16 8 20 -4 20
-8 0 -16 5 -18 11 -2 5 -7 7 -11 3z"/>
<path d="M6650 3455 c0 -8 -7 -15 -15 -15 -8 0 -15 -7 -15 -15 0 -22 27 -19
40 4 13 25 13 41 0 41 -5 0 -10 -7 -10 -15z"/>
<path d="M6732 3428 c7 -19 38 -22 38 -4 0 10 -9 16 -21 16 -12 0 -19 -5 -17
-12z"/>
<path d="M6808 3402 c-19 -4 -33 -32 -15 -32 18 0 40 16 36 27 -2 5 -11 7 -21
5z"/>
<path d="M6472 3358 c-15 -15 -16 -51 0 -46 6 2 16 12 22 21 14 22 -4 43 -22
25z"/>
<path d="M6661 3335 c5 -23 40 -27 47 -6 3 9 0 11 -7 7 -7 -4 -19 -2 -28 5
-13 11 -15 11 -12 -6z"/>
<path d="M6578 3333 c-25 -6 -23 -33 2 -33 11 0 20 2 20 4 0 2 3 11 6 20 6 16
3 17 -28 9z"/>
<path d="M6160 3270 c0 -5 5 -10 10 -10 6 0 10 5 10 10 0 6 -4 10 -10 10 -5 0
-10 -4 -10 -10z"/>
<path d="M6328 3268 c-6 -17 1 -38 13 -38 5 0 9 11 9 25 0 26 -14 34 -22 13z"/>
<path d="M6720 3241 c0 -17 5 -22 22 -19 14 2 24 11 26 23 2 16 1 17 -7 6 -8
-12 -12 -12 -25 -2 -14 12 -16 10 -16 -8z"/>
<path d="M6630 3236 c0 -20 13 -27 30 -15 13 8 13 10 0 19 -21 14 -30 12 -30
-4z"/>
<path d="M6452 3191 c4 -18 39 -22 45 -5 2 6 -8 14 -22 16 -20 4 -25 2 -23
-11z"/>
<path d="M6590 3146 c0 -9 -7 -12 -21 -9 -15 4 -20 2 -17 -7 7 -21 24 -23 42
-5 18 18 21 35 6 35 -5 0 -10 -6 -10 -14z"/>
<path d="M6664 3138 c-3 -5 -2 -14 4 -20 12 -12 42 -4 42 11 0 13 -39 21 -46
9z"/>
<path d="M6200 3082 c0 -10 7 -27 15 -38 14 -19 14 -19 15 3 0 28 -10 53 -21
53 -5 0 -9 -8 -9 -18z"/>
<path d="M6710 3078 c0 -8 3 -18 6 -21 9 -9 44 11 44 26 0 8 -3 7 -9 -2 -8
-12 -12 -12 -25 -2 -13 11 -16 11 -16 -1z"/>
<path d="M6590 3070 c0 -5 4 -10 9 -10 6 0 13 5 16 10 3 6 -1 10 -9 10 -9 0
-16 -4 -16 -10z"/>
<path d="M6452 3043 c4 -22 38 -30 38 -10 0 8 -7 18 -16 21 -23 9 -26 8 -22
-11z"/>
<path d="M6016 3023 c-6 -14 -5 -15 5 -6 7 7 10 15 7 18 -3 3 -9 -2 -12 -12z"/>
<path d="M6548 3023 c-25 -6 -23 -33 2 -33 13 0 20 7 20 20 0 11 -1 19 -2 19
-2 -1 -11 -3 -20 -6z"/>
<path d="M6615 2997 c-11 -25 10 -45 32 -31 9 6 19 17 21 25 4 11 2 12 -9 2
-18 -18 -27 -16 -32 5 -4 16 -4 16 -12 -1z"/>
<path d="M6720 2980 c0 -5 5 -10 10 -10 6 0 10 5 10 10 0 6 -4 10 -10 10 -5 0
-10 -4 -10 -10z"/>
<path d="M6690 2910 c-8 -5 -11 -12 -8 -16 10 -9 38 3 38 16 0 12 -10 13 -30
0z"/>
<path d="M6460 2892 c0 -14 11 -21 26 -15 21 8 17 23 -6 23 -11 0 -20 -4 -20
-8z"/>
<path d="M6616 2892 c-4 -8 -16 -10 -28 -6 -15 4 -19 2 -16 -12 1 -9 8 -19 13
-21 17 -5 48 22 43 37 -3 11 -6 11 -12 2z"/>
<path d="M6270 2837 c0 -8 7 -18 16 -21 11 -4 14 -1 12 11 -4 21 -28 30 -28
10z"/>
<path d="M6660 2809 c0 -6 -9 -8 -20 -4 -21 7 -25 -1 -11 -24 10 -16 26 -8 41
20 7 13 7 19 0 19 -5 0 -10 -5 -10 -11z"/>
<path d="M6466 2772 c-9 -15 4 -42 20 -42 7 0 18 9 24 19 14 28 12 35 -6 20
-13 -10 -17 -10 -24 0 -5 8 -10 9 -14 3z"/>
<path d="M6640 2730 c0 -5 7 -10 15 -10 8 0 15 5 15 10 0 6 -7 10 -15 10 -8 0
-15 -4 -15 -10z"/>
<path d="M6610 2690 c0 -5 5 -10 10 -10 6 0 10 5 10 10 0 6 -4 10 -10 10 -5 0
-10 -4 -10 -10z"/>
<path d="M6565 2680 c-3 -6 1 -13 10 -16 19 -8 30 0 20 15 -8 14 -22 14 -30 1z"/>
<path d="M6470 2641 c0 -12 6 -21 16 -21 9 0 14 7 12 17 -5 25 -28 28 -28 4z"/>
<path d="M6605 2560 c-3 -5 -1 -10 4 -10 6 0 11 5 11 10 0 6 -2 10 -4 10 -3 0
-8 -4 -11 -10z"/>
<path d="M6476 2533 c-9 -9 -7 -25 3 -42 8 -12 12 -12 25 -2 9 8 16 17 16 22
0 12 -36 30 -44 22z"/>
<path d="M6600 2515 c0 -8 5 -15 10 -15 6 0 10 7 10 15 0 8 -4 15 -10 15 -5 0
-10 -7 -10 -15z"/>
<path d="M6490 2388 c0 -32 15 -52 34 -45 9 4 19 -1 24 -10 10 -17 42 -12 42
6 0 6 -6 8 -14 5 -7 -3 -20 1 -27 9 -8 7 -18 13 -24 13 -5 -1 -11 9 -13 22 -2
12 -8 22 -13 22 -5 0 -9 -10 -9 -22z"/>
<path d="M6390 2362 c0 -13 30 -52 41 -52 5 0 9 12 9 26 0 14 -4 23 -9 19 -5
-3 -12 -1 -16 5 -7 12 -25 13 -25 2z"/>
<path d="M6380 2285 c-1 -5 -3 -20 -6 -32 -2 -12 0 -24 5 -27 12 -8 51 23 51
40 0 20 -18 18 -23 -3 -3 -15 -6 -14 -15 7 -6 14 -11 21 -12 15z"/>
<path d="M6440 2258 c0 -13 4 -29 9 -37 13 -20 41 3 41 33 -1 21 -1 21 -15 2
-13 -17 -15 -17 -15 -4 0 9 -4 20 -10 23 -6 3 -10 -4 -10 -17z"/>
<path d="M6540 2260 c0 -22 -15 -27 -23 -7 -3 6 -6 1 -6 -12 -1 -19 3 -22 19
-18 11 3 23 1 26 -4 3 -5 11 -9 17 -9 7 0 4 7 -7 15 -12 9 -17 22 -13 35 3 11
1 20 -4 20 -5 0 -9 -9 -9 -20z"/>
<path d="M6583 2265 c3 -23 18 -27 25 -6 3 8 0 11 -6 7 -6 -3 -13 0 -16 6 -3
7 -5 4 -3 -7z"/>
<path d="M6275 2161 c-64 -39 -115 -129 -115 -202 0 -27 5 -49 10 -49 6 0 10
21 10 48 1 64 28 120 85 170 52 46 57 62 10 33z"/>
<path d="M6240 2000 c-6 -12 -9 -24 -7 -27 3 -2 11 5 17 17 6 12 9 24 7 27 -3
2 -11 -5 -17 -17z"/>
<path d="M7664 985 c-17 -12 -20 -42 -12 -145 1 -8 0 -27 0 -43 -2 -26 -3 -27
-24 -13 -14 8 -35 12 -51 9 -33 -7 -82 -63 -92 -107 -3 -17 -9 -44 -13 -61 -9
-44 -8 -235 1 -268 9 -32 60 -67 97 -67 14 0 38 11 54 23 29 23 30 23 48 5 33
-33 96 3 83 47 -21 74 -26 158 -20 356 6 193 5 219 -10 242 -21 33 -39 39 -61
22z m43 -37 c4 -7 8 -134 8 -283 0 -148 4 -284 8 -301 12 -41 -14 -53 -43 -22
l-20 22 -22 -21 c-46 -41 -92 -36 -124 12 -46 71 -33 310 21 381 29 38 75 46
106 18 34 -31 42 -8 35 102 -6 88 -4 104 8 104 8 0 18 -6 23 -12z"/>
<path d="M7573 692 c-27 -17 -43 -82 -43 -172 0 -83 2 -93 25 -115 30 -31 57
-32 88 -2 24 22 24 24 20 155 -3 72 -9 132 -14 132 -13 0 -15 -163 -3 -242 5
-34 4 -36 -27 -43 -53 -12 -69 17 -69 127 0 94 17 148 46 148 8 0 12 5 9 10
-7 12 -16 12 -32 2z"/>
<path d="M5453 969 c-36 -23 -39 -29 -22 -46 13 -13 17 -196 10 -443 -5 -165
1 -193 40 -203 14 -4 29 2 46 19 25 25 25 27 22 167 l-4 142 49 0 50 0 3 -125
c3 -134 13 -177 43 -205 18 -16 21 -17 45 -1 14 9 26 22 26 29 8 90 -5 298
-21 345 -14 39 -48 58 -117 68 l-51 6 -6 46 c-3 24 -6 60 -6 78 0 58 -42 145
-69 144 -3 0 -21 -10 -38 -21z m58 -26 c8 -9 14 -30 15 -47 1 -53 15 -150 26
-178 9 -24 16 -28 52 -28 22 0 57 -8 76 -18 30 -15 36 -25 47 -72 14 -60 20
-271 9 -289 -11 -17 -24 -13 -41 13 -11 17 -17 60 -20 157 -3 73 -9 136 -13
140 -4 4 -38 10 -75 14 l-69 6 5 -148 c2 -81 0 -158 -4 -170 -10 -27 -35 -21
-46 10 -12 34 -10 616 2 621 18 8 22 6 36 -11z"/>
<path d="M6215 962 c-115 -80 -103 -233 26 -330 82 -62 116 -100 123 -136 12
-61 -15 -93 -94 -111 -36 -8 -76 25 -84 70 -8 42 -27 45 -55 9 -58 -74 14
-173 132 -180 74 -5 116 18 158 85 32 50 37 102 18 193 -16 75 -33 103 -83
137 -104 72 -129 122 -85 170 27 29 60 24 77 -11 15 -33 51 -37 75 -10 23 25
21 64 -4 91 -26 27 -49 37 -114 45 -44 5 -55 3 -90 -22z m152 -17 c31 -7 53
-32 53 -60 0 -40 -21 -40 -54 0 l-32 38 -46 -21 c-52 -23 -76 -69 -59 -114 10
-27 63 -76 120 -113 47 -29 68 -78 75 -172 5 -58 2 -75 -19 -119 -37 -76 -105
-95 -191 -54 -50 25 -76 61 -72 98 4 37 20 34 30 -5 5 -18 20 -40 34 -49 22
-15 32 -15 78 -5 84 19 123 76 103 153 -9 36 -32 61 -133 143 -59 47 -85 95
-87 158 -1 62 17 97 64 126 31 19 36 19 136 -4z"/>
<path d="M8575 965 l-30 -25 28 -22 c15 -13 32 -39 37 -58 6 -21 8 -138 6
-297 -5 -253 -4 -263 15 -273 26 -14 53 1 69 40 8 20 13 80 14 158 l1 126 39
9 c59 14 70 -6 60 -108 -14 -139 -10 -182 16 -210 28 -30 55 -32 70 -6 6 11
10 89 11 180 0 173 -4 192 -56 244 -28 27 -78 37 -90 17 -10 -16 -43 -11 -49
8 -2 9 -7 48 -11 85 -12 141 -60 189 -130 132z m73 -17 c13 -17 28 -75 43
-170 7 -43 16 -78 20 -78 4 0 30 5 58 12 47 10 53 10 70 -8 42 -46 46 -64 46
-226 0 -145 -1 -158 -18 -158 -30 0 -39 46 -32 163 9 141 0 167 -60 167 -27 0
-51 -7 -66 -18 -21 -18 -22 -25 -20 -138 2 -127 -8 -164 -43 -151 -15 6 -16
27 -10 224 6 229 -2 331 -31 363 -13 14 -13 19 -3 23 22 9 35 8 46 -5z"/>
<path d="M4988 948 c-22 -22 -23 -71 -2 -92 12 -12 38 -16 116 -16 l101 0 -5
-265 c-4 -185 -2 -270 6 -280 6 -9 27 -18 47 -21 30 -5 41 -2 59 16 22 22 22
28 16 129 -3 58 -9 177 -13 264 l-6 158 39 -7 c51 -8 69 11 61 64 -11 68 -25
72 -225 69 -153 -2 -179 -4 -194 -19z m152 -10 c207 9 250 -1 250 -56 0 -23
-3 -24 -39 -19 -66 8 -65 13 -56 -225 13 -345 14 -321 -17 -332 -19 -7 -31 -6
-42 3 -14 12 -15 46 -13 255 2 132 2 255 -1 271 l-4 30 -94 0 c-107 0 -130 12
-118 59 6 26 9 27 48 20 22 -5 61 -7 86 -6z"/>
<path d="M2245 947 c-28 -22 -3 -27 45 -11 28 10 58 13 84 8 44 -7 96 -33 96
-47 0 -5 7 -15 15 -23 16 -17 18 -31 17 -137 -1 -44 -8 -82 -19 -105 -17 -36
-20 -37 -83 -42 l-65 -5 -2 -144 c-1 -80 -7 -149 -12 -154 -6 -6 -20 -6 -38 0
l-28 10 4 270 c3 275 -2 326 -34 353 -8 7 -22 10 -30 6 -14 -5 -13 -9 5 -34
26 -35 42 -142 35 -226 -12 -137 -14 -380 -3 -393 15 -18 93 -17 108 2 8 10
14 64 18 150 l5 136 37 -3 c77 -4 121 58 128 182 6 98 -9 150 -53 189 -34 30
-40 31 -123 31 -58 0 -94 -5 -107 -13z"/>
<path d="M8015 946 c-65 -28 -106 -130 -99 -244 3 -55 7 -76 41 -206 16 -64
22 -185 10 -227 -4 -16 -18 -31 -34 -37 -16 -5 -42 -15 -60 -22 -45 -17 -53
-48 -19 -77 86 -73 223 25 225 162 1 38 -39 251 -54 286 -4 12 4 23 29 39 31
19 36 27 36 61 0 44 -21 61 -49 41 -29 -22 -43 -25 -51 -13 -10 17 12 131 26
131 2 0 13 -5 23 -12 25 -15 49 -4 62 29 12 32 -4 78 -32 93 -21 12 -17 12
-54 -4z m63 -54 c2 -13 1 -31 -3 -40 -5 -15 -9 -14 -24 7 l-18 24 -29 -38
c-22 -30 -29 -50 -32 -101 -5 -75 12 -92 53 -54 13 12 28 19 34 15 15 -9 14
-65 -1 -65 -7 0 -24 -9 -37 -19 l-24 -18 21 -84 c40 -163 47 -216 34 -266 -15
-56 -57 -109 -93 -118 -32 -7 -99 18 -99 37 0 8 19 19 43 26 59 18 77 35 88
79 18 78 8 170 -36 340 -29 110 -10 254 38 288 33 23 81 16 85 -13z"/>
<path d="M1078 925 c-2 -2 -41 -6 -87 -8 -67 -4 -87 -9 -98 -23 -19 -26 -16
-71 7 -94 18 -18 31 -20 108 -18 l87 3 2 -170 c3 -312 7 -344 46 -358 29 -11
86 18 98 50 6 17 9 112 7 253 l-3 225 48 0 c57 0 80 22 71 64 -9 39 -28 53
-81 63 -50 10 -199 19 -205 13z m210 -48 c32 -4 52 -19 52 -43 0 -6 -25 -14
-57 -17 -71 -7 -85 -20 -74 -68 13 -56 13 -416 1 -439 -7 -13 -21 -20 -40 -20
-24 0 -30 4 -31 23 0 12 -2 118 -5 236 -3 118 -9 224 -14 236 -7 20 -18 23
-96 28 -88 6 -104 14 -104 49 0 14 13 18 78 21 76 4 225 1 290 -6z"/>
<path d="M4270 911 c-24 -45 0 -80 49 -73 23 3 31 10 36 33 8 35 0 49 -28 49
-20 -1 -20 -2 -4 -11 23 -14 22 -35 -4 -42 -23 -6 -34 12 -26 43 7 26 -9 26
-23 1z"/>
<path d="M1455 913 c-54 -7 -60 -11 -41 -32 16 -17 17 -46 14 -287 -1 -148 1
-279 6 -292 9 -26 58 -54 79 -46 31 11 39 60 36 206 l-4 143 32 3 c25 3 35 -2
49 -23 15 -22 15 -35 5 -118 -15 -116 -7 -175 25 -189 46 -21 104 32 90 81 -3
9 -7 48 -10 86 -17 203 -23 239 -46 257 -23 18 -39 21 -97 18 -18 -1 -33 2
-34 7 0 4 -1 40 -3 78 -1 40 -8 80 -16 93 -14 21 -23 23 -85 15z m63 -110 c3
-97 11 -107 91 -110 75 -3 86 -18 96 -130 19 -211 11 -272 -32 -256 -14 5 -15
22 -9 141 l7 135 -27 28 c-22 23 -36 29 -71 29 -59 0 -64 -16 -52 -161 14
-172 -1 -225 -49 -165 -17 22 -18 43 -18 288 1 144 5 269 10 276 4 7 18 12 29
10 20 -3 22 -10 25 -85z"/>
<path d="M2319 874 c-19 -20 -21 -27 -10 -33 9 -6 16 -39 20 -92 l6 -84 31 -3
c22 -2 40 4 60 22 26 22 29 30 29 90 0 58 -3 69 -26 92 -37 37 -80 40 -110 8z
m93 -21 c23 -27 31 -60 24 -108 -5 -33 -13 -45 -33 -54 -37 -17 -47 -2 -48 67
0 31 -4 69 -9 85 -8 25 -6 27 21 27 17 0 37 -8 45 -17z"/>
<path d="M7368 795 c-3 -3 -41 -6 -84 -7 -72 0 -134 -17 -134 -35 0 -4 10 -18
23 -31 21 -23 22 -29 19 -208 -2 -173 -1 -185 18 -204 25 -25 52 -26 73 -2 22
24 33 229 18 321 -6 36 -9 66 -8 67 1 1 17 5 35 9 l32 7 0 -54 c0 -30 5 -59
12 -66 23 -23 48 -13 64 24 30 71 -27 220 -68 179z m41 -48 c15 -38 22 -121
12 -136 -17 -27 -40 6 -43 62 l-3 52 -40 -2 c-60 -4 -69 -18 -55 -91 13 -65 6
-277 -10 -302 -7 -12 -12 -11 -29 4 -20 18 -21 31 -21 180 -1 112 -5 173 -15
201 -8 21 -10 42 -5 45 4 3 52 6 104 7 92 3 97 2 105 -20z"/>
<path d="M3620 773 c-79 -13 -150 -67 -150 -114 0 -50 67 -119 116 -119 13 0
3 14 -34 48 -74 68 -70 116 13 147 52 20 124 17 174 -8 19 -9 37 -15 41 -12
10 6 30 -41 30 -71 0 -14 -12 -36 -26 -51 -32 -32 -27 -38 9 -9 41 33 50 75
23 122 -16 29 -31 41 -61 50 -56 16 -105 22 -135 17z"/>
<path d="M3925 760 c-10 -11 -22 -17 -26 -14 -5 3 -14 2 -21 -2 -7 -5 -5 -11
8 -21 18 -13 19 -26 16 -183 -3 -136 0 -174 12 -198 20 -38 31 -42 138 -43
139 -1 150 15 170 262 11 144 11 147 -11 183 -14 21 -31 36 -42 36 -33 0 -41
-44 -34 -180 8 -150 1 -180 -45 -180 -19 0 -40 9 -54 23 -22 22 -23 31 -23
155 0 106 -3 135 -17 156 -20 31 -46 33 -71 6z m57 -36 c5 -16 8 -83 7 -149
-1 -66 2 -128 6 -137 9 -24 65 -47 97 -41 56 11 63 31 63 187 1 166 2 176 16
176 22 0 40 -71 35 -134 -3 -33 -8 -92 -11 -131 -7 -88 -21 -139 -41 -156 -21
-17 -129 -22 -172 -8 -20 7 -37 21 -43 36 -14 38 -12 366 3 381 18 18 31 10
40 -24z"/>
<path d="M4284 769 c-2 -4 3 -21 12 -38 13 -27 15 -65 12 -232 -3 -191 -2
-201 17 -215 13 -10 32 -14 54 -10 49 8 56 18 42 65 -7 24 -11 99 -10 189 1
133 -1 154 -21 200 -22 51 -23 52 -62 50 -22 -2 -42 -6 -44 -9z m95 -77 c6
-26 11 -112 10 -192 -1 -82 3 -156 9 -171 17 -43 -13 -54 -48 -19 -18 18 -20
33 -19 227 0 114 3 211 6 215 10 17 31 -14 42 -60z"/>
<path d="M4455 769 c-4 -6 0 -16 9 -22 29 -23 36 -69 36 -256 0 -183 1 -188
23 -209 52 -49 85 -16 88 88 3 108 -2 187 -16 252 -7 31 -10 59 -7 62 3 3 26
6 52 6 66 0 72 -16 76 -218 2 -90 6 -172 9 -182 5 -16 15 -20 49 -20 55 0 69
15 56 61 -6 20 -11 115 -12 213 l-3 178 -33 29 c-33 29 -35 30 -105 23 -40 -5
-93 -8 -119 -8 -27 0 -48 -5 -48 -10 0 -5 -8 -2 -18 7 -22 20 -28 21 -37 6z
m305 -29 c32 -17 41 -70 38 -216 -2 -77 1 -161 5 -187 l8 -48 -28 3 -28 3 -8
155 c-4 85 -14 179 -23 208 l-15 52 -70 0 c-78 0 -90 -10 -70 -58 21 -51 31
-346 13 -364 -7 -7 -19 -2 -35 14 -25 25 -25 27 -25 199 1 96 -2 188 -6 206
l-7 32 41 -1 c22 0 44 2 47 6 10 10 143 7 163 -4z"/>
<path d="M6496 761 c-15 -16 -16 -25 -6 -62 8 -29 9 -83 5 -164 -6 -106 -5
-126 10 -156 10 -19 25 -39 34 -46 22 -16 62 -8 82 17 15 18 39 119 39 164 0
10 6 16 13 14 8 -3 14 -35 17 -92 4 -72 9 -90 24 -102 65 -47 122 32 131 179
3 45 8 117 11 159 6 86 3 98 -25 91 -31 -8 -51 -63 -52 -145 -1 -40 -4 -84 -8
-98 -7 -22 -9 -19 -24 31 -38 129 -122 121 -146 -14 -11 -62 -16 -75 -27 -64
-4 4 0 42 10 84 20 95 10 145 -38 201 -24 27 -28 27 -50 3z m57 -52 c17 -29
19 -47 14 -124 -4 -49 -9 -100 -12 -111 -5 -16 -1 -23 14 -27 27 -7 35 9 51
91 16 81 42 104 77 69 13 -13 31 -52 41 -87 17 -65 34 -84 46 -53 4 10 9 63
12 118 6 108 18 155 41 155 8 0 11 -5 7 -11 -4 -7 -10 -78 -14 -158 -7 -143
-13 -173 -46 -205 -42 -42 -74 -1 -74 93 0 43 -5 65 -19 82 -28 34 -40 17 -55
-81 -15 -88 -30 -112 -67 -103 -40 11 -54 50 -50 137 6 138 5 190 -4 225 -11
44 11 39 38 -10z"/>
<path d="M8150 767 c0 -8 10 -22 21 -33 21 -18 21 -24 13 -149 -14 -227 -9
-254 54 -281 36 -15 37 -14 57 10 l20 25 23 -24 c25 -25 88 -41 124 -30 33 10
67 44 90 89 16 31 19 50 13 92 -7 61 -26 88 -95 139 -30 22 -50 44 -50 56 0
23 23 25 40 4 16 -19 64 -19 80 0 9 11 9 22 0 49 -13 40 -23 45 -99 48 -48 2
-56 0 -77 -27 -32 -39 -47 -96 -35 -128 11 -28 55 -63 93 -72 58 -15 92 -91
57 -126 -22 -22 -58 -18 -101 12 -15 10 -29 19 -32 19 -8 0 -27 -38 -31 -62
-7 -35 -14 -33 -31 7 -13 31 -14 59 -9 141 8 124 -1 188 -29 219 -25 28 -96
44 -96 22z m102 -228 c-3 -142 -2 -163 14 -180 20 -23 14 -33 -16 -24 -47 15
-52 39 -44 230 l7 176 21 -21 c20 -20 21 -29 18 -181z m259 181 c22 -12 26
-50 5 -50 -7 0 -19 7 -26 15 -15 18 -61 20 -78 3 -7 -7 -12 -21 -12 -31 0 -20
63 -83 93 -93 24 -8 57 -76 57 -118 0 -73 -38 -124 -100 -132 -34 -5 -47 -1
-75 21 -24 17 -35 34 -35 51 l0 25 29 -20 c64 -46 140 -16 148 60 6 57 -19 92
-86 114 -54 18 -81 48 -81 92 0 33 8 46 35 61 25 14 100 15 126 2z"/>
<path d="M6971 735 c-117 -106 -108 -354 16 -418 28 -15 35 -15 66 -2 39 16
77 58 77 84 0 10 5 22 11 28 16 16 16 222 -1 263 -34 85 -104 104 -169 45z
m121 -11 c38 -20 52 -71 45 -168 -8 -106 -31 -180 -64 -205 -14 -12 -31 -21
-39 -21 -22 0 -74 51 -96 94 -37 71 -22 232 25 285 40 42 68 46 129 15z"/>
<path d="M7040 673 c-67 -20 -85 -55 -78 -153 6 -84 26 -120 67 -120 40 0 59
34 67 119 8 98 -16 166 -56 154z m26 -45 c13 -25 15 -47 10 -105 -8 -90 -13
-103 -37 -103 -30 0 -51 55 -51 133 1 101 43 142 78 75z"/>
<path d="M2990 750 c-19 -5 -38 -6 -43 -3 -14 8 -97 -7 -97 -19 0 -5 12 -19
26 -31 l27 -21 -6 -174 c-5 -174 -5 -175 18 -198 29 -29 45 -30 76 -5 23 18
24 25 24 138 0 65 -2 138 -5 162 -5 41 -3 45 23 54 34 11 73 3 81 -18 3 -8 1
-63 -5 -122 -13 -139 -1 -206 41 -228 38 -19 42 -19 69 6 19 18 21 27 15 63
-4 22 -8 52 -9 66 -1 14 -5 45 -8 70 -4 25 -9 80 -12 123 -6 84 -24 124 -59
132 -51 10 -124 12 -156 5z m143 -28 c4 -1 11 -2 16 -2 16 0 30 -54 36 -140 4
-46 11 -107 16 -134 5 -27 9 -68 9 -92 0 -35 -3 -44 -17 -44 -51 1 -64 52 -56
225 l5 120 -27 16 c-22 13 -37 14 -69 7 -65 -14 -72 -27 -59 -100 11 -61 9
-230 -2 -249 -4 -5 -14 -9 -24 -9 -38 0 -43 22 -39 192 1 90 -1 173 -5 186 -8
20 -5 22 30 23 21 1 49 4 63 8 20 6 92 2 123 -7z"/>
<path d="M2636 735 c-44 -23 -72 -59 -89 -112 -40 -123 -33 -205 22 -266 49
-54 87 -69 148 -58 79 15 124 84 93 142 -14 26 -47 24 -95 -6 -36 -23 -41 -23
-57 -8 -11 10 -18 30 -18 55 l0 38 63 -2 c83 -3 118 15 130 65 14 58 -14 122
-64 147 -46 24 -93 25 -133 5z m130 -30 c24 -16 54 -73 54 -102 0 -11 -6 -28
-14 -39 -12 -16 -27 -19 -97 -19 -82 0 -83 0 -93 -28 -15 -41 11 -108 46 -119
21 -7 35 -4 67 18 34 22 44 24 56 14 23 -19 18 -57 -12 -85 -50 -46 -136 -27
-188 41 -28 36 -30 45 -30 125 0 97 25 162 73 192 33 20 110 22 138 2z"/>
<path d="M2640 638 c-10 -17 -17 -35 -14 -40 6 -9 92 -9 127 -1 9 2 17 14 17
25 0 29 -28 47 -73 48 -31 0 -40 -5 -57 -32z m100 8 c0 -2 2 -11 5 -18 5 -11
-6 -15 -45 -16 -51 -1 -59 5 -38 26 11 11 78 18 78 8z"/>
<path d="M1864 726 c-17 -8 -42 -31 -55 -52 -20 -33 -24 -54 -27 -154 -4 -104
-2 -121 17 -156 40 -76 66 -94 134 -94 88 0 155 99 117 171 -17 31 -47 23 -75
-21 -43 -68 -99 -49 -93 32 l3 43 65 2 c56 2 68 6 88 28 36 43 24 130 -27 184
-24 26 -37 31 -73 31 -23 -1 -57 -7 -74 -14z m126 -44 c47 -47 61 -99 36 -138
-15 -22 -23 -25 -74 -23 -78 2 -77 2 -90 -26 -22 -49 -15 -93 20 -126 18 -16
36 -29 41 -29 5 0 30 22 57 50 37 38 49 46 54 34 13 -33 5 -63 -23 -93 -40
-43 -87 -43 -136 0 -55 49 -65 76 -65 178 0 129 27 186 95 204 39 9 46 7 85
-31z"/>
<path d="M1908 660 c-14 -10 -31 -34 -38 -51 -12 -28 -12 -33 6 -46 12 -9 29
-12 49 -7 17 3 40 6 52 5 11 0 24 6 27 15 9 24 -39 104 -63 104 -5 0 -20 -9
-33 -20z m58 -35 c9 -14 15 -28 12 -30 -2 -2 -23 -7 -46 -11 -36 -6 -42 -4
-42 11 0 22 28 55 46 55 8 0 21 -11 30 -25z"/>
<path d="M5863 709 c-53 -34 -78 -99 -77 -205 1 -136 40 -199 133 -211 32 -4
46 -1 62 13 51 46 66 124 27 145 -19 10 -25 8 -49 -21 -31 -37 -54 -35 -69 5
-17 44 -4 55 61 55 51 0 61 3 75 25 25 38 29 98 9 132 -19 33 -93 83 -121 83
-10 0 -33 -10 -51 -21z m83 -15 c47 -23 76 -73 72 -126 l-3 -43 -67 -3 c-55
-2 -68 0 -68 12 0 11 14 16 53 18 44 3 52 6 55 24 4 29 -35 76 -61 72 -38 -5
-67 -63 -67 -133 0 -121 41 -166 100 -110 16 15 33 24 39 21 18 -11 13 -51
-11 -81 -18 -24 -26 -27 -61 -22 -50 7 -95 50 -107 103 -13 55 -6 173 13 216
12 29 45 58 75 67 2 1 19 -6 38 -15z m14 -104 c0 -16 -7 -20 -35 -20 -39 0
-42 6 -19 38 12 18 19 20 35 12 10 -6 19 -20 19 -30z"/>
<path d="M3629 683 c-15 -2 -35 -13 -44 -23 -16 -18 -16 -20 10 -44 26 -24 65
-35 65 -18 0 4 -15 15 -32 25 -31 18 -32 19 -13 33 10 8 37 14 59 14 21 0 37
2 35 4 -9 7 -55 12 -80 9z"/>
<path d="M3720 661 c0 -6 5 -13 11 -16 6 -4 8 -13 5 -21 -3 -8 -1 -14 5 -14
16 0 22 29 9 45 -14 17 -30 20 -30 6z"/>
<path d="M7782 617 c-32 -33 -29 -75 5 -88 49 -18 76 -8 85 31 13 67 -46 104
-90 57z m68 -42 c0 -31 -3 -34 -22 -31 -13 3 -26 5 -30 5 -5 1 -8 15 -8 31 0
27 3 30 30 30 28 0 30 -3 30 -35z"/>
<path d="M3326 601 c-44 -5 -51 -10 -63 -38 -18 -46 2 -63 76 -63 51 0 59 3
71 25 10 18 11 33 4 53 -10 30 -17 32 -88 23z m72 -47 c3 -24 -20 -33 -73 -31
-23 2 -30 7 -30 22 0 15 9 22 35 26 52 10 65 6 68 -17z"/>
<path d="M3705 539 c-11 -11 -36 -32 -55 -48 -30 -25 -33 -31 -21 -45 10 -11
28 -16 62 -15 58 3 84 -16 101 -73 21 -72 -17 -140 -105 -184 -71 -37 -121
-40 -192 -12 -33 14 -61 31 -63 40 -3 13 3 13 55 0 69 -18 124 -7 173 34 60
51 71 101 31 138 -16 15 -29 16 -78 9 -81 -12 -103 -7 -103 21 0 13 7 29 15
36 8 7 15 18 15 25 0 8 14 19 30 27 31 13 40 28 18 28 -32 0 -87 -46 -75 -64
1 -2 -6 -13 -16 -24 -52 -57 60 -104 144 -61 11 6 21 3 31 -9 27 -31 29 -53 8
-82 -46 -64 -129 -87 -204 -56 -37 16 -66 6 -66 -23 0 -27 29 -47 94 -66 70
-20 112 -16 186 18 87 40 130 100 130 182 0 38 -6 52 -34 82 -30 33 -39 37
-77 36 -23 -1 -47 1 -52 4 -5 3 12 25 38 48 26 23 43 45 38 48 -5 3 -18 -3
-28 -14z"/>
<path d="M4935 387 c-52 -45 -21 -125 42 -108 41 11 50 33 33 83 -18 51 -38
57 -75 25z m61 -43 c8 -30 -2 -44 -31 -44 -28 0 -41 30 -26 59 14 25 49 16 57
-15z"/>
<path d="M8971 384 c-26 -33 -27 -56 -3 -77 21 -19 45 -21 73 -7 21 12 25 41
8 73 -24 44 -49 48 -78 11z m56 -33 c17 -22 16 -31 -5 -31 -23 0 -56 35 -48
49 8 13 37 3 53 -18z"/>
</g>
</svg>
