<svg xmlns="http://www.w3.org/2000/svg" height="389.0pt" version="1.1" width="1000.0pt" viewBox="0 0 1000 389" fill-rule="evenodd">
	<path d="M 331.59 9.46 C 331.01 11.22 331.36 12.25 331.80 13.96 C 331.30 15.69 329.75 17.20 328.50 18.45 C 326.91 18.78 325.52 16.28 324.05 17.87 C 323.87 19.65 325.39 19.63 326.52 20.52 C 326.86 22.10 325.07 22.62 324.37 23.88 C 325.06 26.64 324.02 29.30 324.98 32.02 C 325.82 34.74 325.34 37.31 324.80 40.01 C 325.77 43.19 326.12 46.70 326.16 50.02 C 325.74 51.88 324.93 52.86 326.31 54.56 C 326.42 59.05 326.32 64.68 327.88 68.92 C 329.13 68.99 330.33 69.16 331.47 69.45 C 331.81 70.97 332.04 71.66 333.33 72.61 C 334.12 74.69 335.89 76.11 337.71 77.29 C 339.68 80.56 341.75 84.19 342.41 87.99 C 342.50 90.53 341.78 94.42 343.22 96.83 C 344.08 96.42 344.92 96.24 345.73 96.29 C 346.77 97.18 346.91 98.96 348.18 99.79 C 349.29 99.72 351.04 96.95 351.92 99.00 C 353.41 101.20 348.70 102.40 350.38 104.63 C 351.17 105.53 352.36 107.21 353.75 106.80 C 353.86 105.32 354.14 103.89 354.46 102.44 C 355.18 102.30 355.88 102.29 356.55 102.40 C 357.30 103.61 357.00 106.03 358.40 106.56 C 357.19 107.12 356.09 108.29 355.40 109.42 C 354.93 110.77 357.31 111.56 357.90 112.70 C 359.67 112.72 359.83 110.97 361.57 111.42 C 362.65 114.47 357.88 116.90 355.43 116.56 C 355.56 118.03 356.88 119.95 358.54 119.64 C 359.06 118.67 359.32 117.49 360.63 117.41 C 363.38 119.66 361.29 122.26 363.35 124.69 C 364.75 126.37 365.21 127.38 365.39 129.61 C 366.40 130.24 367.53 132.00 368.79 131.81 C 369.46 130.54 368.88 128.72 370.94 129.18 C 372.09 129.56 371.68 132.00 372.22 132.99 C 372.64 135.28 369.96 136.49 370.69 139.01 C 371.19 140.77 370.14 141.02 369.35 142.27 C 368.94 143.66 369.31 146.56 371.00 146.98 C 372.76 146.72 372.31 144.26 374.51 144.50 C 376.12 145.81 375.42 148.88 374.39 150.38 C 373.35 152.37 371.27 152.04 369.38 152.37 C 368.87 153.74 369.90 156.35 368.01 156.68 C 365.14 155.06 367.81 152.37 367.76 150.04 C 366.30 147.44 366.25 144.60 364.65 142.00 C 365.65 140.03 367.25 137.39 365.72 135.34 C 364.43 134.58 363.76 133.36 362.71 132.38 C 360.97 133.05 359.36 132.72 357.92 134.17 L 356.78 134.04 C 356.61 133.18 356.59 132.27 356.72 131.29 C 356.30 130.88 355.85 130.59 355.38 130.42 C 354.10 131.38 353.66 133.53 353.65 135.02 C 354.40 136.59 354.51 137.89 354.50 139.59 C 356.55 141.06 356.11 137.15 357.21 136.22 C 358.62 135.64 360.32 135.02 361.86 135.14 C 362.14 135.82 362.01 136.60 361.47 137.48 L 363.18 137.58 C 364.78 140.21 363.02 142.35 362.40 145.02 C 363.57 147.65 367.07 150.38 364.78 153.80 C 363.48 154.14 361.71 152.02 361.38 150.95 C 361.54 149.02 360.34 147.83 360.23 146.09 C 360.90 145.53 361.36 144.88 361.59 144.15 C 359.82 142.97 361.62 138.65 358.44 140.39 C 358.23 142.44 357.68 144.36 356.14 145.80 C 357.36 147.91 356.69 149.33 356.35 151.52 C 355.00 152.14 354.77 150.89 354.23 149.96 C 353.64 148.53 354.75 147.38 354.98 145.98 C 351.27 143.75 351.85 139.71 350.69 135.98 C 351.16 134.01 352.89 133.18 352.37 130.98 C 351.10 127.44 359.54 127.73 358.78 124.15 C 358.16 123.70 357.38 123.48 356.44 123.49 C 353.08 121.50 353.82 118.35 351.26 116.27 C 348.60 117.87 351.68 119.30 351.35 121.71 C 352.25 121.72 353.13 121.78 354.00 121.90 C 354.50 123.41 354.73 125.45 353.84 126.87 C 351.54 127.52 351.73 124.31 349.47 123.52 C 348.44 120.80 346.76 119.31 347.78 116.32 C 347.17 115.59 346.96 114.88 347.15 114.22 C 347.81 113.92 348.74 114.14 349.93 114.85 C 349.49 113.86 349.42 111.99 347.99 112.05 C 347.28 112.34 346.60 112.69 345.94 113.11 C 344.11 112.98 343.86 111.72 344.22 110.16 C 346.60 108.34 347.58 110.06 349.81 110.87 C 350.36 109.28 348.87 108.97 348.31 107.77 C 347.21 105.99 345.94 104.16 345.58 102.05 C 345.28 101.36 345.15 98.84 344.14 99.21 C 343.82 101.39 347.09 106.02 344.02 106.99 C 343.20 106.42 342.55 105.67 342.06 104.73 C 337.42 103.76 336.38 100.59 333.63 97.33 C 332.76 95.27 330.28 94.11 329.33 91.95 C 328.83 90.50 329.69 89.33 330.21 88.03 C 329.30 86.10 329.24 83.96 328.43 81.95 C 328.66 78.38 326.57 76.34 325.89 73.05 C 323.54 66.53 322.62 58.89 322.24 52.00 C 322.27 50.06 322.79 47.80 321.77 46.09 C 320.72 42.07 321.68 37.82 320.88 34.01 C 320.64 30.64 320.41 27.34 320.57 23.99 C 321.08 22.40 320.23 19.92 318.23 20.21 C 316.32 23.15 317.26 25.86 317.92 28.99 C 316.76 35.51 316.95 42.40 316.67 49.01 C 317.30 50.42 317.31 51.71 316.71 52.90 C 315.89 55.46 316.30 58.32 315.83 60.99 C 314.92 64.47 316.58 67.56 315.23 71.08 C 314.05 75.73 313.20 81.20 312.17 85.88 C 313.12 87.98 312.65 91.02 311.40 92.95 C 310.70 95.30 313.46 96.01 312.54 98.56 C 310.39 99.71 311.49 103.44 308.24 102.75 C 305.77 100.00 311.30 93.34 307.40 91.27 C 306.79 94.42 301.98 94.33 302.45 98.37 C 304.29 98.38 304.86 98.65 304.59 100.57 C 302.95 102.04 301.25 100.67 299.69 101.65 C 297.55 103.51 295.06 103.53 292.38 103.33 L 291.51 104.50 C 288.08 106.44 285.94 110.53 283.31 113.28 C 281.04 116.13 279.35 121.57 275.55 123.53 C 273.15 124.05 268.47 122.83 269.61 119.50 C 271.30 116.73 272.86 120.48 274.83 119.83 C 275.49 119.16 275.76 118.23 275.66 117.04 C 275.43 115.69 277.83 115.28 278.67 114.73 C 279.61 112.97 281.55 111.86 282.60 110.35 C 280.65 108.43 278.67 106.45 279.48 103.46 C 282.33 102.55 282.00 105.05 283.30 106.66 C 285.18 105.83 287.74 103.02 289.53 101.59 C 290.54 99.16 292.99 99.27 294.30 97.22 C 295.92 94.60 294.37 91.76 295.98 88.96 C 297.77 86.16 297.09 83.56 297.66 80.51 C 298.42 78.89 299.98 77.52 301.19 76.20 C 304.06 75.62 306.20 73.53 309.08 73.16 C 312.85 71.94 310.90 69.14 311.72 65.99 C 311.60 60.06 312.51 53.91 313.51 48.01 C 313.98 44.52 312.89 41.35 313.81 37.93 C 314.68 34.27 314.40 30.64 313.73 27.00 C 314.01 25.09 314.73 23.39 314.57 21.42 C 313.17 21.55 312.01 21.47 311.10 21.19 C 310.96 20.18 311.04 19.25 311.36 18.39 C 312.78 16.87 315.34 17.54 317.02 18.22 C 320.57 17.57 322.42 15.58 324.63 12.89 C 325.26 11.55 328.03 11.67 327.94 10.02 C 326.80 9.08 323.57 10.71 323.35 12.31 C 321.33 13.46 320.05 15.60 317.51 14.51 C 317.51 13.84 317.53 13.16 317.58 12.49 C 318.60 10.71 320.12 11.69 321.65 10.63 C 322.71 9.56 324.08 9.16 325.26 8.25 C 326.88 6.30 329.85 8.74 331.59 9.46 Z M 330.13 76.15 C 331.34 76.03 334.03 78.15 333.52 79.53 C 331.42 81.06 330.19 77.65 330.13 76.15 Z M 306.52 78.46 L 307.62 78.34 C 308.63 81.26 303.91 82.13 304.43 85.53 L 303.50 85.52 C 303.46 84.81 303.43 84.10 303.42 83.39 C 304.78 81.81 305.72 80.40 306.52 78.46 Z M 334.60 89.51 C 336.06 91.25 336.85 91.49 339.15 91.11 C 339.56 91.87 339.66 92.84 339.44 94.01 C 339.53 96.36 340.76 98.32 340.69 100.73 C 338.86 101.46 338.60 99.40 337.61 98.36 C 335.72 96.35 335.63 92.63 332.48 92.38 C 331.88 91.51 334.61 90.03 334.60 89.51 Z M 300.63 90.54 C 301.70 90.25 302.64 90.23 303.47 90.49 C 303.53 91.14 303.52 91.78 303.42 92.41 C 300.98 94.07 300.35 97.60 298.61 99.56 C 298.12 99.53 297.67 99.27 297.26 98.79 C 296.60 96.93 298.78 96.01 299.56 94.67 C 299.79 93.24 300.43 91.98 300.63 90.54 Z"/>
	<path d="M 660.53 9.56 C 662.15 8.52 662.90 8.21 664.50 9.52 C 668.43 12.12 667.72 17.39 667.79 21.45 C 668.68 23.92 668.20 26.52 669.05 29.00 C 669.49 33.00 668.66 36.95 669.56 40.99 C 670.13 43.29 668.97 45.86 670.27 48.01 C 670.52 49.82 669.47 51.63 669.58 53.53 C 670.40 53.24 671.17 52.80 671.90 52.19 C 674.78 53.27 675.96 56.24 679.60 56.46 C 681.23 59.20 684.18 60.62 685.49 63.51 C 686.20 63.80 686.90 64.10 687.59 64.41 C 688.58 67.22 690.20 68.09 692.38 69.78 C 692.94 72.19 693.28 74.64 694.06 77.00 C 694.93 80.76 693.70 85.27 693.02 89.00 C 692.55 90.41 690.64 91.86 691.57 93.43 C 694.18 95.43 694.85 98.67 697.25 100.92 C 699.10 103.45 701.90 104.53 701.57 108.07 C 702.88 109.96 703.84 112.04 705.21 113.89 C 706.18 115.33 706.29 117.33 707.31 118.72 C 709.19 121.29 710.11 124.24 712.44 126.50 C 713.00 129.10 713.35 131.99 715.23 134.02 C 717.24 138.77 715.62 142.76 715.74 147.47 C 716.37 148.97 717.80 149.12 717.58 150.99 C 717.05 153.09 717.75 155.11 716.58 156.93 C 716.88 160.38 715.92 163.60 715.77 167.02 C 718.10 172.33 713.23 176.39 714.33 182.43 C 713.40 183.47 712.61 184.53 712.57 185.99 C 712.49 189.08 711.20 191.87 709.26 194.23 C 707.53 196.30 707.45 198.63 706.19 201.13 L 706.77 202.15 C 708.61 202.46 710.22 200.66 712.05 200.35 C 714.28 199.97 715.72 198.27 718.00 198.27 C 722.38 197.71 725.79 195.09 729.99 193.92 C 734.62 192.53 738.78 190.08 743.49 189.51 C 744.69 187.43 747.00 187.23 748.43 185.42 C 750.59 183.26 753.35 181.46 756.05 180.07 C 758.30 177.72 760.39 175.88 763.89 176.12 C 764.72 177.67 762.21 178.34 761.50 179.49 C 758.23 182.27 754.28 184.30 751.06 187.18 C 747.80 188.01 745.72 191.43 742.48 192.56 C 739.77 194.54 736.70 195.41 734.00 197.41 C 731.96 196.49 733.76 195.29 734.66 194.41 C 731.92 194.17 730.94 196.17 728.48 196.54 C 726.38 197.68 724.07 198.25 722.05 199.55 C 719.25 199.52 717.03 201.38 714.18 201.29 C 711.80 202.37 709.61 203.66 707.06 204.33 C 706.27 204.64 704.37 205.01 704.40 206.05 C 704.42 208.00 702.08 206.58 702.51 208.50 C 705.66 207.86 709.20 206.18 711.94 204.33 C 714.58 204.87 716.01 203.18 718.36 202.46 C 720.43 202.55 722.60 201.46 724.34 200.38 C 726.50 199.84 730.09 202.51 730.75 199.14 C 729.51 198.80 727.90 200.67 727.30 198.83 C 727.08 197.38 730.12 196.90 731.07 196.63 C 732.95 197.40 733.83 198.96 735.97 199.33 C 738.35 198.90 739.22 197.63 741.04 199.95 C 741.69 199.37 742.35 198.80 743.03 198.26 C 746.19 199.02 749.02 197.70 752.08 198.80 C 755.28 200.89 759.15 199.75 763.08 200.57 C 763.83 201.12 764.05 201.86 763.75 202.79 C 762.11 204.62 760.75 203.53 759.06 202.53 C 757.40 202.80 755.59 202.49 754.00 203.04 C 750.26 204.19 747.78 202.14 744.00 202.44 C 741.50 202.77 739.03 201.79 736.98 203.08 C 733.02 203.11 728.94 203.74 724.98 203.13 C 723.32 203.04 722.84 204.75 721.00 204.47 C 717.24 204.45 715.06 207.34 711.31 207.38 C 708.49 209.08 704.09 210.75 700.93 211.79 C 699.98 213.32 699.61 214.74 698.27 216.06 C 698.23 219.56 696.27 222.59 696.95 226.00 C 698.72 230.57 700.27 235.04 701.28 239.83 C 704.08 242.10 703.92 245.09 706.26 247.57 C 706.89 249.71 707.44 251.92 708.33 253.96 C 708.43 256.30 708.22 258.70 708.16 261.04 C 707.15 264.50 703.21 265.06 701.60 267.62 C 699.68 268.44 697.58 269.77 695.47 269.48 C 694.30 268.96 694.00 266.86 692.61 267.49 C 691.68 271.36 688.84 272.67 686.38 275.26 C 684.79 275.30 683.19 275.25 681.59 275.29 C 680.58 274.30 678.85 273.48 678.57 272.03 C 679.08 270.96 679.49 269.85 679.78 268.68 C 681.12 267.95 682.54 268.61 684.01 267.88 C 684.12 269.17 684.25 270.42 684.41 271.61 C 687.28 271.09 690.79 268.66 689.70 265.26 C 688.84 264.11 687.48 263.28 686.38 262.35 L 686.20 263.01 C 686.86 265.12 686.67 268.28 683.71 266.33 L 683.44 264.41 C 682.30 264.40 681.74 265.67 680.43 265.57 C 680.21 267.69 679.62 268.50 678.30 270.05 C 678.57 272.18 677.86 272.96 676.33 274.23 C 675.78 275.70 675.29 277.21 674.62 278.63 C 672.19 279.69 667.62 280.33 665.49 278.46 C 664.59 277.99 663.49 277.27 662.42 277.37 C 661.54 278.57 661.17 279.64 659.46 279.55 C 658.53 277.60 660.31 274.24 658.83 272.19 C 657.99 271.98 657.13 271.84 656.26 271.76 C 655.32 270.45 654.66 266.13 652.36 267.36 C 652.40 268.05 652.46 268.74 652.55 269.43 C 655.43 270.79 654.71 273.11 656.86 275.05 C 656.78 276.94 654.98 278.57 654.44 280.45 C 652.29 280.60 650.11 281.34 647.97 281.14 C 644.39 279.45 640.47 278.51 639.47 274.10 C 641.54 272.10 641.25 268.18 641.30 265.52 C 640.98 264.31 638.46 263.42 637.32 263.30 C 636.88 265.06 639.09 266.05 638.64 268.00 C 637.98 269.82 639.66 273.36 636.99 273.66 C 634.46 272.91 636.32 270.27 634.48 270.35 C 635.27 271.73 635.10 272.59 633.97 272.92 C 632.71 272.80 632.20 271.97 632.43 270.42 C 630.89 271.89 629.66 273.30 627.40 273.54 C 628.16 274.42 629.81 275.78 630.98 275.82 C 631.63 275.32 632.27 274.80 632.89 274.26 C 635.10 273.89 636.43 275.61 638.70 275.34 C 639.44 278.66 634.99 278.22 632.94 278.51 C 631.31 279.68 629.81 280.21 628.00 279.02 C 626.06 277.82 622.95 276.31 622.38 273.93 C 621.48 271.94 622.25 269.92 621.35 267.93 C 620.78 266.88 620.51 265.72 620.51 264.44 C 617.31 262.27 618.33 262.70 618.78 259.24 C 616.61 259.21 615.37 259.45 613.53 260.61 C 613.35 261.18 613.33 261.81 613.47 262.49 C 614.68 262.41 615.90 262.17 617.10 261.97 C 618.46 264.65 614.33 264.14 613.91 266.01 C 614.32 266.94 615.01 267.72 615.97 268.37 C 617.18 268.31 618.38 268.33 619.57 268.43 C 620.24 269.83 619.83 271.04 619.49 272.45 C 618.13 272.67 616.28 273.85 615.14 272.74 C 613.46 271.46 612.09 270.07 610.87 268.35 C 609.32 267.89 607.84 267.57 606.60 266.48 C 606.52 265.15 606.49 263.83 606.60 262.50 C 608.31 260.23 610.36 258.13 611.60 255.59 C 612.97 254.32 613.22 253.40 613.46 251.55 C 615.86 250.89 616.96 248.19 618.27 246.27 C 619.94 243.38 621.89 240.85 622.65 237.52 C 623.87 234.83 625.01 232.19 625.23 229.20 C 626.16 228.45 627.83 226.84 628.95 227.99 C 628.73 228.91 628.49 229.84 628.23 230.76 C 630.87 231.10 630.81 228.84 633.14 229.00 C 633.87 230.94 633.67 233.92 633.36 236.01 C 632.84 237.98 634.41 239.57 633.37 241.42 C 632.42 241.67 631.44 241.66 630.40 241.38 C 629.58 242.41 628.63 246.90 630.82 246.79 C 633.02 244.93 632.65 242.51 634.23 240.37 C 634.65 238.42 634.56 236.87 635.48 235.01 C 634.66 233.75 634.00 232.61 634.01 231.06 C 634.62 230.22 635.24 228.98 636.47 229.54 C 637.90 231.49 639.24 229.50 639.49 232.64 C 640.20 231.87 642.91 229.66 642.47 228.66 C 639.70 227.75 641.15 225.78 640.01 223.98 C 638.80 222.72 640.34 220.87 639.65 219.28 C 638.49 220.00 638.62 221.59 637.46 222.44 C 636.05 223.65 635.36 222.40 634.61 221.30 C 633.60 221.61 632.70 221.59 631.91 221.24 C 631.80 220.23 631.78 219.22 631.84 218.19 C 630.73 218.51 629.69 218.56 628.70 218.34 C 628.39 217.30 628.47 216.15 628.97 214.92 L 628.07 214.58 C 625.98 215.64 624.94 215.03 623.18 213.85 C 622.42 212.31 624.98 211.10 625.95 212.08 C 627.84 213.32 630.82 212.41 633.02 212.47 C 634.88 212.16 634.69 214.29 636.49 213.51 C 636.76 212.19 635.42 211.34 634.67 210.38 C 631.23 210.33 628.50 208.84 625.01 209.48 C 623.30 209.73 621.78 208.79 620.01 209.20 C 617.82 209.58 616.38 208.10 614.20 209.28 C 613.98 210.22 614.21 211.22 614.90 212.28 C 616.60 212.89 619.99 210.28 621.85 212.17 C 622.57 214.15 618.47 214.27 617.32 214.35 C 617.90 215.45 618.48 216.21 618.65 217.50 C 619.22 218.93 620.69 218.89 621.96 219.44 C 623.92 220.60 624.62 217.87 626.32 220.00 C 626.09 222.49 623.49 222.50 624.42 225.35 C 623.04 225.14 621.47 226.36 620.36 225.58 C 618.48 223.81 616.16 223.47 614.93 221.00 C 612.82 219.44 613.13 217.20 611.80 215.21 C 608.54 213.46 607.52 216.98 603.94 216.53 C 601.12 217.89 597.95 218.80 594.96 219.72 C 593.69 219.97 591.13 219.30 592.48 217.59 C 594.17 216.95 595.91 216.48 597.53 215.69 C 601.18 215.33 603.88 213.14 608.06 213.38 C 610.16 212.23 607.93 208.89 605.94 209.59 C 604.61 210.60 603.54 210.36 601.97 210.47 C 596.77 212.81 591.77 211.81 586.45 213.59 C 584.88 211.74 585.98 209.98 588.04 209.53 C 591.53 210.24 594.51 208.70 598.01 209.39 C 600.53 208.58 603.10 208.37 605.62 207.65 C 607.64 206.13 605.19 205.06 605.63 203.01 C 605.17 199.91 604.55 197.23 604.63 194.05 C 602.79 191.04 602.74 187.18 600.69 184.45 C 600.74 182.25 600.13 180.19 600.63 178.02 C 601.33 173.93 597.01 170.02 599.36 166.02 C 598.88 159.41 599.45 153.11 602.11 147.01 C 603.00 144.82 602.47 142.78 602.65 140.54 C 603.92 139.17 603.86 137.37 604.77 135.84 C 606.26 133.86 605.91 131.21 607.18 129.05 C 606.52 125.45 609.26 123.67 609.70 120.56 C 612.31 118.27 614.42 115.67 615.34 112.25 C 617.46 111.04 617.31 108.68 619.37 107.35 C 621.01 105.12 622.66 103.53 624.98 101.99 C 627.17 98.38 630.64 98.80 632.70 94.99 C 632.92 93.93 631.26 93.15 630.65 92.42 C 629.70 86.43 630.84 81.02 629.93 74.99 C 630.56 73.32 631.11 71.55 631.98 69.98 C 632.63 69.68 633.27 69.37 633.91 69.05 C 635.12 65.99 636.38 62.92 637.78 59.95 C 639.16 57.55 641.57 56.98 643.90 55.79 C 646.94 54.56 651.11 54.87 653.53 52.64 C 654.37 52.49 655.14 52.21 655.84 51.82 C 654.97 47.48 657.50 44.12 656.63 39.94 C 658.26 37.40 656.68 34.71 658.01 31.99 C 659.15 29.11 657.41 26.78 658.65 23.95 C 658.07 21.78 658.11 19.03 659.27 17.03 C 659.38 14.47 660.18 12.24 660.53 9.56 Z M 662.47 21.58 C 663.11 21.58 663.75 21.58 664.39 21.57 C 663.95 23.87 664.97 26.17 664.58 28.54 C 663.90 28.53 663.23 28.51 662.55 28.48 C 662.32 26.15 663.26 23.76 662.47 21.58 Z M 661.50 32.44 C 662.97 31.99 664.27 32.53 664.70 34.04 C 664.53 41.38 665.73 48.61 665.54 56.00 C 665.28 58.54 666.51 60.56 666.84 63.06 C 668.46 65.25 668.81 67.30 668.70 70.01 C 668.47 72.05 671.14 73.92 670.79 75.79 C 669.51 76.57 668.71 76.89 669.44 78.57 C 671.37 79.03 671.42 77.05 673.18 77.01 C 673.56 77.73 673.70 78.55 673.61 79.49 C 675.39 81.62 677.83 83.27 679.55 85.41 C 681.01 88.46 683.90 90.28 685.75 93.17 C 686.78 94.82 687.85 96.44 688.72 98.19 C 694.22 102.16 697.55 109.52 700.81 115.04 C 701.28 117.35 702.93 119.07 703.64 121.34 C 704.30 121.71 704.97 122.07 705.65 122.42 C 705.89 122.99 705.84 123.66 705.51 124.41 C 703.79 124.48 703.39 124.43 702.07 123.23 C 699.26 124.04 700.76 126.69 701.44 128.52 C 702.55 130.91 705.78 130.85 706.33 128.11 C 709.49 128.93 710.88 132.01 710.29 135.10 C 709.72 137.24 710.87 139.89 710.05 142.00 C 709.54 143.45 710.08 145.85 712.05 145.72 C 712.29 149.19 712.56 153.91 711.99 157.31 L 711.05 157.55 C 710.12 155.50 707.91 154.61 707.09 157.02 C 706.87 160.62 710.57 159.91 711.47 162.56 C 713.25 163.72 712.83 164.76 712.67 166.64 C 712.12 166.24 711.58 165.83 711.05 165.41 C 709.00 166.58 705.98 169.11 709.98 170.32 C 710.95 169.80 711.75 169.16 712.56 168.43 C 711.91 170.81 711.62 173.36 710.54 175.56 C 708.38 174.68 705.32 177.88 707.27 179.72 C 707.92 180.16 708.70 180.41 709.61 180.47 C 710.00 183.85 709.58 187.15 707.51 189.94 L 707.38 191.47 C 706.56 192.03 705.71 192.55 704.83 193.03 C 705.20 196.15 702.40 196.76 701.70 199.73 C 699.60 200.33 700.03 197.92 701.00 197.01 C 702.39 196.22 702.91 195.96 703.38 194.31 C 705.14 192.50 706.13 190.30 707.24 188.07 C 707.12 186.11 707.80 184.48 708.54 182.72 C 706.51 181.43 705.51 182.07 705.53 184.64 C 703.36 186.24 701.97 188.52 701.26 191.10 C 700.80 191.68 700.09 192.04 699.12 192.19 C 699.28 192.83 699.54 193.45 699.89 194.05 C 699.97 195.61 698.66 196.05 697.70 197.03 C 698.05 198.26 699.08 199.83 697.96 200.97 C 696.83 202.96 695.22 204.44 694.59 206.63 C 693.17 207.05 689.38 206.81 690.74 209.28 C 693.06 210.70 695.53 206.95 698.62 208.41 C 698.90 209.75 696.90 210.11 695.94 210.44 C 693.85 210.40 692.57 211.82 690.52 211.53 C 690.58 210.66 690.62 209.80 690.63 208.93 C 689.43 207.19 688.37 205.49 688.38 203.30 C 689.67 204.11 689.16 205.62 690.95 205.78 C 691.96 204.03 693.62 204.26 694.88 202.87 C 696.25 201.60 699.10 199.66 697.27 197.64 C 695.00 197.04 695.55 201.58 693.00 201.77 C 691.57 199.46 693.43 197.47 695.17 196.01 C 695.76 194.12 696.77 192.47 697.83 190.81 C 702.34 189.24 701.46 185.36 704.32 182.15 C 704.75 179.44 707.02 178.16 706.52 175.49 C 709.25 176.18 709.60 173.64 709.39 171.59 C 708.46 171.21 707.48 171.56 706.45 172.63 C 706.77 170.37 706.50 168.47 705.58 166.38 C 701.73 165.80 704.07 168.96 703.86 170.84 L 703.06 170.83 C 703.17 169.78 703.24 168.72 703.27 167.67 L 702.07 167.02 C 699.68 168.11 699.02 172.50 700.51 174.56 C 698.82 175.81 698.34 177.12 698.99 179.19 C 699.76 179.58 700.69 179.60 701.78 179.25 C 701.93 180.34 700.82 181.97 699.61 181.50 C 699.30 180.52 698.78 179.90 698.03 179.66 C 696.36 180.04 697.20 181.91 695.94 183.04 C 694.73 184.66 696.08 187.71 698.34 186.25 C 698.42 185.27 698.40 184.28 698.31 183.29 C 699.03 183.27 699.76 183.35 700.49 183.53 C 700.88 185.65 697.26 186.05 699.34 188.01 C 697.34 191.50 697.71 184.15 694.85 186.82 C 695.82 189.40 695.81 190.14 694.55 192.62 C 693.95 192.86 693.27 192.85 692.51 192.57 C 692.38 191.02 693.36 187.67 690.96 187.62 C 688.71 188.17 689.53 189.82 689.40 191.52 C 688.04 193.58 687.77 193.31 688.69 195.67 C 687.83 196.55 687.66 197.31 688.20 197.93 C 688.98 197.96 689.74 197.47 690.46 196.44 C 692.15 195.56 692.16 197.39 690.97 197.79 C 689.18 198.92 687.51 198.76 685.91 197.38 C 684.45 198.42 683.71 198.46 681.95 198.53 C 681.20 199.54 680.20 199.93 678.95 199.69 C 677.30 200.36 676.42 202.76 674.58 202.57 C 673.37 200.51 676.66 196.91 674.00 196.04 C 673.17 196.56 672.71 197.46 672.62 198.74 C 669.80 198.70 671.39 193.26 668.98 192.70 C 667.75 192.95 667.28 193.92 666.41 194.69 C 664.77 192.69 666.67 190.58 665.14 188.84 C 664.11 187.86 662.56 188.72 662.55 190.05 C 662.51 193.44 661.12 196.80 664.93 198.54 C 666.37 198.83 667.78 197.78 668.55 199.38 C 669.67 201.55 672.20 201.30 673.62 203.65 C 672.92 204.33 672.16 204.68 671.36 204.71 C 671.24 203.50 671.55 201.02 669.62 202.59 C 668.56 203.33 668.18 204.48 668.47 206.03 C 668.72 207.41 667.60 208.35 668.37 209.65 C 669.22 210.35 670.71 209.47 671.70 209.32 C 669.96 211.71 664.69 212.14 662.11 210.70 C 659.83 210.44 657.43 208.27 655.80 210.99 C 656.41 213.41 660.26 211.86 661.99 213.06 C 663.12 214.07 665.13 213.52 666.56 213.56 C 666.89 214.85 665.21 214.63 664.42 215.26 C 662.16 215.60 658.98 215.79 657.06 214.35 C 655.05 214.16 654.59 215.56 653.36 216.61 C 651.77 215.23 653.19 213.30 653.65 211.71 C 654.24 210.73 654.42 209.09 655.46 208.52 C 656.34 208.49 657.20 208.36 658.02 208.13 C 659.34 204.78 655.85 205.09 653.70 205.65 C 650.40 209.93 648.30 214.17 649.67 219.70 C 647.96 219.86 648.22 217.25 646.49 216.48 C 645.99 214.28 646.46 210.48 647.44 208.42 C 648.91 207.53 651.68 208.50 651.26 206.00 C 649.75 203.71 647.88 202.86 645.41 204.42 C 645.19 205.21 645.10 206.06 645.14 206.98 C 642.81 210.24 643.02 213.76 642.55 217.46 C 641.88 217.47 641.21 217.47 640.54 217.48 C 639.36 214.05 638.74 210.82 640.57 207.47 C 641.48 206.74 643.46 207.08 643.64 205.68 C 644.03 204.10 642.58 202.88 641.04 203.32 C 638.64 203.89 638.29 205.56 637.52 207.61 C 632.78 207.59 627.62 207.25 623.02 206.09 C 620.13 207.36 616.56 206.71 613.49 206.43 C 611.17 204.24 611.21 201.15 609.29 198.94 C 609.31 195.88 607.46 193.04 607.42 189.91 C 604.58 187.32 603.46 182.58 604.98 178.99 C 604.29 176.89 604.04 176.09 605.08 174.02 C 604.83 173.37 604.26 172.89 603.37 172.59 C 602.35 169.88 603.46 167.71 603.14 164.99 C 603.07 163.02 604.85 162.01 604.86 160.01 C 604.32 157.79 603.93 155.70 604.41 153.41 C 605.18 152.85 605.90 152.25 606.57 151.60 C 606.24 147.55 606.26 143.76 608.20 140.08 C 608.64 138.73 608.27 137.30 608.90 135.98 C 610.65 132.21 611.28 127.95 612.19 123.91 C 612.87 123.58 613.66 123.45 614.55 123.52 C 615.91 119.77 616.14 116.03 620.42 114.48 C 620.91 112.17 623.28 111.18 623.45 108.95 C 623.57 106.21 625.56 105.29 627.89 104.70 C 630.48 103.90 629.45 101.34 631.66 99.67 C 633.85 96.93 636.87 95.70 639.48 93.56 C 640.29 90.30 642.83 89.68 645.56 88.54 C 648.03 85.88 648.27 82.52 651.49 80.49 C 651.60 78.71 651.80 78.44 650.02 77.74 C 646.49 80.42 642.99 83.80 640.36 87.38 C 638.62 87.98 637.57 88.95 636.59 90.47 C 636.01 91.76 636.24 93.11 634.38 92.64 C 634.29 91.20 634.02 89.90 634.63 88.53 C 635.66 86.38 633.20 83.97 634.43 81.55 C 637.43 81.02 636.91 78.24 636.67 75.94 C 637.25 75.13 637.82 74.30 638.38 73.47 C 637.62 69.05 640.64 65.27 641.72 60.91 C 645.42 57.24 649.81 57.90 654.53 58.57 C 655.17 61.24 653.84 63.26 652.56 65.46 C 652.82 67.86 650.30 68.72 650.08 71.18 C 651.78 72.14 651.74 72.93 652.41 74.58 C 653.11 74.57 653.81 74.53 654.50 74.48 C 657.08 71.11 656.92 67.38 658.62 63.70 C 659.30 59.90 660.84 55.80 660.21 52.00 C 661.18 47.11 660.99 40.96 662.10 35.99 C 661.77 34.81 661.61 33.65 661.50 32.44 Z M 670.47 57.46 C 671.57 57.53 673.25 57.02 673.98 58.01 C 675.91 59.93 679.17 60.39 680.87 63.02 C 681.74 64.29 683.26 64.47 683.90 66.01 C 686.57 69.39 689.29 73.65 689.81 78.01 C 691.00 80.86 689.62 83.04 689.37 85.99 C 689.32 87.32 689.11 88.44 688.65 89.69 C 686.08 88.05 684.51 84.52 681.93 83.16 C 679.89 81.03 677.69 79.26 676.25 76.64 C 675.54 76.44 674.82 76.26 674.09 76.11 C 673.52 74.48 673.69 72.73 673.06 71.07 C 673.38 70.38 673.69 69.68 673.99 68.99 C 673.30 66.86 672.92 64.64 672.53 62.44 C 672.09 60.14 670.13 60.00 670.47 57.46 Z M 702.29 175.30 C 703.74 174.86 705.09 176.26 704.84 177.69 C 703.62 177.97 701.62 176.82 702.29 175.30 Z M 702.24 201.91 C 702.39 202.74 702.12 203.60 701.42 204.47 C 700.32 204.76 699.26 204.85 698.22 204.74 C 698.34 202.84 700.14 200.44 702.24 201.91 Z M 678.40 206.41 C 680.06 206.13 679.74 208.08 681.47 208.59 C 682.10 211.27 681.57 214.21 681.63 216.96 C 681.73 217.96 680.38 218.49 679.56 218.54 C 679.76 215.72 679.71 212.82 679.69 209.99 C 679.92 208.45 678.38 207.85 678.40 206.41 Z M 673.54 212.54 C 673.36 215.24 671.39 214.65 669.39 214.52 C 669.02 211.92 671.95 212.70 673.54 212.54 Z M 677.60 223.38 C 677.95 225.22 677.07 225.39 676.28 226.84 C 676.33 228.00 678.39 229.30 677.24 230.20 C 675.81 231.08 677.49 233.94 678.75 232.93 C 679.34 232.18 679.96 231.98 680.59 232.35 C 680.47 233.62 680.57 234.84 680.17 236.06 C 679.56 237.63 680.67 239.38 680.38 241.06 C 679.66 242.03 678.91 242.99 678.14 243.94 C 678.54 244.97 679.71 245.44 681.67 245.36 C 681.76 246.16 681.52 246.57 680.94 246.59 C 679.36 246.75 679.79 248.87 678.42 249.64 C 678.08 248.32 678.08 247.07 678.41 245.88 C 677.27 243.91 677.18 242.23 677.11 239.98 C 676.97 238.70 678.25 237.46 677.70 236.30 C 676.76 235.29 675.79 235.13 674.78 235.82 C 674.36 238.43 673.91 237.88 672.01 236.80 C 671.48 237.11 670.93 237.40 670.37 237.64 C 669.47 236.79 668.63 235.98 667.48 235.45 C 668.25 234.75 669.10 232.81 670.31 233.51 C 670.50 235.56 671.44 235.60 673.02 236.47 C 673.72 236.08 674.22 235.43 674.52 234.52 C 676.72 234.10 676.97 233.01 676.46 230.99 C 676.34 229.37 674.74 228.30 675.78 226.67 C 677.24 225.69 676.18 224.26 677.60 223.38 Z M 666.50 225.58 C 667.17 225.59 667.84 225.60 668.52 225.61 C 668.61 226.48 668.24 227.31 667.41 228.11 C 667.75 228.68 668.15 229.33 668.61 230.08 C 668.23 230.87 667.88 231.65 667.55 232.41 C 665.64 229.53 663.17 233.19 663.46 235.49 C 662.75 236.08 662.02 236.53 661.25 236.86 C 659.78 234.92 658.04 234.22 658.45 231.44 C 659.53 231.83 660.45 231.83 661.22 231.43 C 662.15 229.51 662.88 231.28 664.20 231.73 C 665.33 230.57 666.53 230.66 667.12 228.99 C 666.75 227.85 666.38 226.81 666.50 225.58 Z M 692.48 226.60 L 692.62 226.44 C 692.02 228.67 688.78 230.06 689.30 233.00 C 689.22 237.35 691.51 240.18 693.19 243.90 C 694.79 247.31 694.09 252.36 696.89 255.02 C 698.61 256.77 697.85 259.12 699.17 260.93 C 699.76 262.10 701.17 262.48 700.88 263.97 C 699.89 264.83 697.91 265.71 696.55 265.51 C 695.45 263.73 693.68 261.95 692.04 260.63 C 689.72 260.45 687.79 259.21 685.47 259.36 C 685.16 258.62 685.09 257.93 685.26 257.27 C 686.68 257.45 690.20 258.62 689.50 255.93 C 687.61 253.86 687.68 252.77 684.43 252.60 C 684.54 251.03 683.79 249.96 683.47 248.51 C 685.36 248.24 686.78 249.34 688.67 249.36 C 688.57 252.04 689.66 255.41 691.11 257.67 C 691.38 259.10 692.02 259.70 693.02 259.46 C 694.32 257.95 692.82 255.09 693.70 253.02 C 691.74 246.84 688.90 240.62 687.73 234.24 C 687.05 233.98 686.30 234.04 685.46 234.41 C 685.98 236.64 685.43 237.48 683.79 236.93 C 683.64 235.24 684.00 233.92 683.29 232.23 C 683.83 230.65 686.63 231.69 687.91 230.87 C 687.58 229.60 687.11 228.85 687.51 227.49 C 688.19 227.39 688.63 227.68 688.82 228.36 C 690.04 229.56 691.61 227.45 692.48 226.60 Z M 656.67 227.48 C 657.36 228.41 658.08 229.82 656.50 230.33 C 654.72 230.86 653.50 233.59 654.73 235.10 C 657.42 236.16 657.51 238.77 660.80 238.17 C 661.74 240.75 661.10 242.20 660.73 244.73 C 659.45 244.35 660.28 241.84 658.05 241.61 C 654.96 243.22 657.21 248.39 660.60 247.48 C 661.16 249.83 659.72 251.87 660.36 254.05 C 660.56 256.59 659.91 258.96 660.42 261.51 C 657.78 262.07 657.16 257.22 654.75 256.01 C 654.77 255.08 654.96 254.16 655.32 253.25 C 657.11 252.97 658.90 256.16 659.98 253.13 C 658.86 249.44 654.78 249.35 655.51 244.90 C 654.89 243.94 654.27 243.92 653.64 244.83 C 652.72 247.80 652.81 250.53 652.64 253.59 C 651.37 254.13 649.99 253.00 648.38 253.57 C 648.31 251.28 652.16 250.29 651.63 247.34 C 650.94 245.79 650.30 244.70 650.50 242.90 C 651.45 241.22 653.32 242.32 653.65 239.92 C 653.30 239.19 652.50 238.82 651.25 238.79 C 651.50 236.89 652.57 236.05 653.95 234.92 C 654.56 232.87 651.68 233.33 650.52 233.57 L 650.30 231.73 C 649.56 232.06 648.85 232.45 648.17 232.90 C 648.01 231.65 649.68 230.28 650.49 229.42 C 650.58 230.65 651.08 231.38 651.98 231.61 C 654.41 230.98 653.07 228.77 656.24 229.36 C 656.27 228.30 656.41 227.68 656.67 227.48 Z M 684.30 227.32 L 685.01 227.26 L 685.47 228.00 L 684.93 228.84 C 684.00 228.95 683.79 228.44 684.30 227.32 Z M 647.79 229.10 C 647.45 231.74 642.94 233.75 643.30 236.44 C 642.64 237.38 642.30 238.38 642.28 239.44 C 640.81 241.11 640.52 242.40 640.63 244.61 C 637.66 244.11 636.89 246.18 634.39 246.70 C 636.46 243.01 638.07 239.77 637.39 235.42 C 642.49 235.49 643.25 230.10 647.79 229.10 Z M 627.48 232.44 C 628.60 232.51 629.42 233.41 630.54 233.66 C 629.18 236.56 628.23 239.42 627.53 242.55 C 626.72 242.74 625.91 242.84 625.11 242.83 C 624.87 240.86 627.98 241.63 627.69 239.00 C 626.78 236.80 627.69 234.77 627.48 232.44 Z M 692.53 232.46 C 693.52 232.36 694.53 232.37 695.56 232.47 C 695.97 233.58 694.13 235.28 693.32 235.66 C 692.40 234.69 692.66 233.67 692.53 232.46 Z M 647.67 234.31 C 649.45 235.00 648.79 236.10 648.49 237.54 C 647.12 237.87 646.51 236.32 645.52 235.56 L 645.49 235.41 C 646.13 234.63 646.85 234.27 647.67 234.31 Z M 694.37 238.37 C 696.35 237.50 699.38 240.39 696.79 241.80 C 694.73 241.77 694.35 240.11 694.37 238.37 Z M 667.85 239.22 C 668.82 241.45 668.22 242.92 666.44 244.40 C 665.57 246.28 662.82 248.55 666.02 249.86 C 668.47 249.48 666.91 245.65 668.72 245.29 C 668.73 250.08 668.49 254.71 668.37 259.54 C 667.95 260.57 666.81 261.32 666.04 262.11 C 664.76 263.10 664.29 264.75 662.45 264.54 C 662.53 263.12 663.94 262.51 663.64 261.01 C 663.18 258.38 664.33 256.08 663.51 253.40 C 666.07 255.30 661.82 258.79 665.98 259.00 C 668.57 258.02 667.59 255.06 667.37 252.99 C 667.62 251.77 667.58 250.71 667.24 249.82 C 665.66 249.70 665.35 250.80 664.37 251.70 C 664.36 250.80 664.41 249.90 664.50 248.99 C 664.08 248.33 663.69 247.65 663.32 246.96 C 663.54 245.80 663.62 244.64 663.59 243.48 C 665.38 242.47 666.16 239.66 667.85 239.22 Z M 643.44 241.43 C 645.00 240.84 647.52 241.94 646.83 243.97 C 646.52 245.02 645.43 248.12 644.29 245.94 C 643.22 244.28 643.06 243.41 643.44 241.43 Z M 683.38 241.35 C 685.53 242.23 688.41 242.47 687.57 245.59 C 685.96 245.76 685.38 244.27 683.61 244.41 C 683.35 243.34 683.27 242.32 683.38 241.35 Z M 697.29 244.27 C 699.89 244.09 701.58 247.94 703.25 249.58 C 703.38 251.10 704.79 252.22 704.63 253.63 C 703.70 255.16 702.17 254.14 700.42 254.52 C 699.57 253.91 699.18 253.16 699.23 252.26 C 701.03 251.79 702.40 253.36 703.49 251.04 C 702.23 247.55 700.07 249.13 697.49 248.55 C 697.26 247.13 696.78 245.67 697.29 244.27 Z M 625.60 246.34 C 625.13 247.27 624.69 248.24 624.10 249.09 C 622.54 249.82 621.24 250.52 619.46 250.44 C 619.90 249.44 620.40 248.56 620.62 247.46 C 622.71 247.56 623.75 246.59 625.60 246.34 Z M 639.03 247.15 C 639.83 248.69 638.78 252.21 637.62 253.60 C 635.81 253.22 635.13 253.69 633.68 254.67 C 632.44 255.49 630.25 256.47 631.75 258.20 C 633.86 259.37 634.29 256.12 636.58 256.43 C 636.20 258.93 635.27 261.40 634.69 263.87 C 634.24 263.75 633.84 263.27 633.52 262.44 C 632.02 262.54 630.35 263.27 629.13 264.11 C 627.80 265.10 627.65 266.22 628.96 267.35 C 630.78 267.26 632.11 265.29 633.87 264.99 C 633.94 265.83 633.83 266.68 633.53 267.53 C 631.21 268.24 629.45 269.00 627.50 270.49 C 626.73 270.77 626.21 270.62 625.93 270.04 C 624.96 268.35 626.93 265.74 627.41 264.07 C 627.69 262.80 628.63 262.30 629.48 261.43 C 630.50 257.58 631.74 253.49 634.28 250.32 C 636.76 250.14 637.39 247.87 639.03 247.15 Z M 671.33 247.38 C 672.91 249.04 674.58 247.74 675.40 249.50 C 676.23 253.70 676.74 257.71 676.37 262.02 C 677.19 264.73 676.65 267.22 675.76 269.82 C 675.00 269.96 674.44 269.69 674.08 269.01 C 672.79 266.87 670.90 266.12 670.52 263.39 C 670.76 262.98 671.09 262.64 671.53 262.36 C 672.30 263.58 673.40 266.47 675.24 265.31 C 676.40 263.11 674.45 259.75 672.37 258.65 C 671.02 258.10 670.96 256.43 671.24 255.21 C 672.95 255.84 674.25 255.83 675.14 255.18 C 675.07 251.23 670.48 251.13 671.33 247.38 Z M 627.60 249.49 C 630.11 251.21 628.19 254.31 627.39 256.47 L 626.45 256.56 C 626.26 254.78 625.42 250.21 627.60 249.49 Z M 642.31 249.52 C 642.33 250.87 643.12 251.52 644.66 251.46 C 644.91 252.76 644.42 254.23 644.50 255.58 C 641.68 256.93 642.87 253.44 641.41 251.95 C 641.61 251.11 640.76 248.84 642.31 249.52 Z M 616.40 253.43 C 618.26 253.65 619.96 253.37 621.80 253.23 C 621.72 254.88 620.34 255.81 620.44 257.62 C 619.13 257.18 617.61 256.32 616.28 255.76 C 616.17 255.00 616.21 254.23 616.40 253.43 Z M 651.84 255.01 C 652.44 257.34 649.90 260.24 651.97 262.26 C 653.94 262.31 653.55 259.84 653.60 258.51 L 654.35 258.51 C 653.95 260.89 656.82 265.52 659.64 264.42 C 659.46 266.16 659.07 267.78 659.40 269.53 L 658.63 269.48 C 657.53 267.34 656.09 264.37 653.98 263.10 C 652.28 261.82 651.51 263.41 650.64 264.62 C 648.33 264.34 647.36 266.45 645.13 266.73 C 643.67 264.74 645.33 261.90 645.84 259.82 C 648.82 258.89 649.83 256.98 651.84 255.01 Z M 679.47 256.66 C 680.51 256.66 681.55 256.58 682.58 256.40 C 683.12 258.61 681.93 262.47 679.36 262.65 C 679.91 262.10 680.43 261.54 680.94 260.97 C 680.67 259.46 679.80 258.14 679.47 256.66 Z M 702.55 257.54 C 703.54 257.98 704.59 258.27 705.69 258.42 C 706.43 259.43 703.36 261.86 702.44 261.66 C 702.15 260.55 701.82 259.47 701.50 258.38 C 701.91 257.79 702.26 257.51 702.55 257.54 Z M 623.39 258.35 C 624.17 258.99 624.90 259.70 625.60 260.43 C 625.55 261.46 624.78 264.12 623.37 263.67 C 623.60 261.87 623.25 260.11 623.39 258.35 Z M 667.73 264.26 C 668.03 267.03 667.39 271.44 669.21 273.69 C 671.35 274.25 670.84 272.67 671.32 271.23 C 672.18 271.19 672.99 272.85 673.51 273.47 C 673.61 274.67 672.38 275.82 671.69 276.71 C 668.75 277.13 668.45 274.19 665.42 274.46 C 664.12 272.33 667.04 271.72 665.91 270.12 C 664.47 269.67 663.88 271.27 662.49 270.56 C 662.37 269.17 662.14 267.90 662.44 266.51 C 663.70 266.75 664.92 266.79 666.12 266.62 C 666.70 265.67 667.24 264.88 667.73 264.26 Z M 649.99 267.16 C 650.65 268.68 649.33 271.24 649.12 272.96 C 649.45 274.87 651.14 274.36 652.57 274.50 C 652.84 275.29 652.92 276.05 652.80 276.80 C 650.89 276.87 648.97 276.46 647.04 276.51 C 645.96 276.51 644.90 275.32 645.24 274.19 C 646.58 273.34 648.32 273.13 647.87 271.05 C 646.66 270.01 645.24 272.12 643.44 271.57 C 643.45 270.51 643.28 268.36 644.70 268.12 L 646.00 269.23 C 647.83 269.81 648.49 267.11 649.99 267.16 Z"/>
	
	
	
	<path d="M 646.90 65.15 C 648.29 66.34 649.13 68.23 649.26 70.03 C 648.12 72.60 647.95 75.65 644.97 76.80 C 641.62 77.27 641.46 73.32 641.89 71.00 C 641.45 68.19 643.55 64.07 646.90 65.15 Z"/>
	<path d="M 681.56 68.44 C 682.85 70.66 685.39 74.51 684.26 77.11 C 682.72 79.64 680.17 77.67 678.97 76.00 C 678.05 73.90 675.68 71.75 677.44 69.47 C 678.03 67.73 680.17 68.21 681.56 68.44 Z"/>
	<path d="M 663.33 71.32 C 664.49 69.85 666.51 70.97 665.72 72.74 C 664.72 74.67 662.45 73.06 663.33 71.32 Z"/>
	<path d="M 659.45 73.53 L 659.59 73.45 C 661.97 74.55 661.44 79.95 658.42 79.65 C 657.57 78.09 657.46 77.28 657.68 75.54 C 658.25 74.85 658.84 74.18 659.45 73.53 Z"/>
	
	<path d="M 664.38 77.44 C 665.71 77.69 665.73 78.92 666.00 80.00 C 666.29 81.11 667.12 82.50 666.61 83.63 C 665.88 83.70 665.19 83.65 664.55 83.47 C 663.35 82.25 661.93 77.91 664.38 77.44 Z"/>
	
	<path d="M 321.44 78.44 C 323.76 77.78 323.16 80.61 323.07 81.96 C 323.82 83.75 325.21 86.12 323.94 87.97 C 323.60 88.49 323.42 89.04 323.38 89.60 C 324.76 90.19 325.52 88.78 326.98 89.10 C 328.52 91.51 327.48 93.51 327.24 96.11 C 326.15 97.92 324.84 98.60 324.86 100.99 C 325.04 103.43 324.50 105.65 322.01 106.58 C 320.17 106.17 320.08 104.25 319.34 102.81 C 317.99 100.44 318.91 97.86 317.71 95.47 C 317.81 91.06 316.85 86.84 317.48 82.44 C 318.73 81.03 320.36 80.17 321.44 78.44 Z M 321.28 92.26 C 322.03 92.10 322.81 92.14 323.63 92.37 C 323.94 94.78 322.35 96.19 322.62 98.68 L 321.54 98.59 C 321.89 96.29 320.62 94.39 321.28 92.26 Z"/>
	<path d="M 657.31 85.31 C 659.74 85.03 660.73 88.06 659.82 89.86 C 657.20 91.12 654.97 87.12 657.31 85.31 Z"/>
	<path d="M 670.49 88.49 C 672.52 88.12 674.15 87.61 675.83 89.16 C 676.27 90.65 674.67 91.87 673.51 92.43 C 671.41 92.65 669.94 90.48 670.49 88.49 Z"/>
	
	
	
	<path d="M 650.71 94.25 C 652.13 95.91 650.81 97.87 651.21 99.78 C 652.05 99.94 652.88 100.12 653.71 100.31 C 654.23 102.94 651.42 105.71 648.80 104.41 C 646.34 102.61 648.01 98.95 648.23 96.48 C 648.15 95.03 649.10 92.63 650.71 94.25 Z"/>
	<path d="M 665.49 94.66 C 666.64 96.09 665.98 97.00 665.56 98.54 C 664.56 99.01 663.37 99.93 662.23 99.81 C 660.75 98.29 660.23 97.43 660.30 95.26 C 661.32 93.22 663.75 94.75 665.49 94.66 Z"/>
	<path d="M 678.52 96.46 C 680.40 95.05 684.13 98.15 681.77 99.79 C 679.50 100.30 678.02 98.77 678.52 96.46 Z"/>
	<path d="M 671.72 98.23 L 672.34 99.72 C 675.03 99.21 674.82 99.60 675.22 102.09 C 676.23 102.28 676.80 103.00 676.93 104.23 C 678.79 104.38 680.70 104.39 682.57 104.44 C 683.54 106.10 682.18 109.10 680.04 108.65 C 677.13 108.62 677.09 103.74 674.05 104.12 C 673.39 104.48 672.71 104.81 672.03 105.12 C 669.93 104.34 669.18 103.08 668.59 100.99 C 669.09 99.76 669.95 97.41 671.72 98.23 Z"/>
	<path d="M 639.56 99.46 C 639.90 102.12 637.23 102.37 635.30 101.66 C 635.05 99.23 637.77 98.86 639.56 99.46 Z"/>
	<path d="M 685.58 100.41 C 685.89 101.39 685.87 102.43 685.52 103.53 C 682.68 103.89 682.88 100.10 685.58 100.41 Z"/>
	<path d="M 659.43 105.43 C 663.50 104.50 664.68 110.64 662.09 112.54 C 658.13 113.39 655.27 106.98 659.43 105.43 Z"/>
	<path d="M 295.95 105.25 C 298.60 106.02 296.46 109.71 296.68 111.71 C 295.24 113.28 294.65 113.71 292.48 113.52 C 291.48 112.21 290.41 110.38 292.10 109.11 C 293.85 108.09 294.72 106.78 295.95 105.25 Z"/>
	<path d="M 333.57 108.45 C 335.52 107.30 335.75 107.98 336.37 109.81 C 337.78 110.74 338.60 111.39 339.36 112.97 C 338.88 114.15 338.58 115.35 338.47 116.58 C 337.61 117.38 336.42 117.68 334.90 117.48 C 331.60 114.71 333.73 112.11 333.57 108.45 Z"/>
	<path d="M 308.35 111.42 C 308.07 112.00 307.56 112.50 306.84 112.90 C 307.05 114.25 308.00 115.13 309.69 115.54 C 310.68 114.19 311.29 112.65 312.37 111.35 C 313.42 111.17 314.48 111.99 314.46 113.05 C 314.54 115.21 313.54 117.57 312.23 119.26 C 311.14 120.34 308.91 119.79 309.17 117.99 C 310.57 115.36 307.79 115.56 306.11 115.12 C 303.99 116.52 302.34 113.27 303.89 111.88 C 305.26 110.49 306.63 112.55 308.35 111.42 Z"/>
	<path d="M 633.08 111.18 C 635.68 110.57 635.03 114.08 635.42 115.61 C 637.11 115.94 636.79 114.47 637.94 113.60 C 639.05 113.44 639.72 113.91 639.94 115.02 C 640.80 117.06 638.24 118.74 636.80 119.69 C 631.92 121.74 629.92 113.24 633.08 111.18 Z"/>
	<path d="M 689.95 110.33 C 692.33 110.48 691.10 112.30 692.36 113.48 C 692.87 113.33 693.38 113.17 693.89 113.01 C 695.59 115.10 694.03 119.46 690.92 118.48 C 688.10 116.85 687.24 112.48 689.95 110.33 Z"/>
	<path d="M 324.40 116.48 C 324.32 117.48 324.47 118.42 324.85 119.28 C 325.87 119.53 327.76 119.42 327.54 121.00 C 327.42 123.30 325.43 125.79 322.97 125.21 C 320.97 123.86 321.25 120.14 321.38 118.04 C 321.75 116.25 322.72 115.89 324.40 116.48 Z"/>
	<path d="M 676.44 116.40 C 677.53 116.22 678.61 116.18 679.67 116.30 C 679.92 118.17 681.71 119.19 681.55 120.95 C 681.51 122.74 679.31 122.98 678.21 121.76 C 675.99 120.29 676.51 118.71 676.44 116.40 Z"/>
	<path d="M 657.52 117.50 C 659.70 116.81 662.47 118.92 662.94 121.04 C 662.42 122.85 662.58 125.73 660.01 125.65 C 657.59 125.84 656.22 125.12 656.33 122.50 C 655.59 120.56 656.70 119.19 657.52 117.50 Z"/>
	<path d="M 284.00 118.22 C 285.81 119.12 284.69 120.74 284.13 122.05 C 283.36 123.70 282.14 126.47 279.97 126.34 C 277.49 124.57 279.15 121.88 281.73 121.69 C 282.55 120.40 282.45 118.82 284.00 118.22 Z"/>
	<path d="M 289.37 120.42 C 291.26 120.85 290.40 122.70 290.11 124.00 C 290.16 127.44 288.98 131.53 286.29 133.78 L 286.49 134.54 C 286.39 133.09 284.30 132.60 283.82 134.24 C 283.22 132.49 280.68 132.72 280.56 134.57 C 279.67 134.70 278.73 134.69 277.72 134.54 C 277.34 137.17 277.56 139.86 277.36 142.51 C 276.64 143.70 275.35 145.30 273.95 145.61 C 271.66 145.94 270.17 143.36 271.43 141.46 C 272.34 141.54 273.20 141.46 274.02 141.22 C 274.45 138.28 274.49 137.46 275.70 134.72 C 278.31 134.92 277.33 133.16 279.04 132.15 C 280.28 133.25 283.76 132.07 283.25 130.06 C 283.63 128.50 285.43 126.56 287.14 126.37 C 287.35 124.25 287.40 121.75 289.37 120.42 Z"/>
	<path d="M 305.00 120.46 C 306.33 121.07 306.60 121.89 305.82 122.92 C 305.10 124.57 306.34 127.22 304.86 128.94 C 303.97 130.02 301.46 129.38 300.54 128.51 C 300.25 126.50 300.88 126.27 302.27 125.03 C 302.51 123.40 303.26 121.00 305.00 120.46 Z"/>
	<path d="M 340.28 123.22 C 343.30 122.11 341.98 127.82 343.31 128.71 C 344.22 128.50 345.10 128.15 345.97 127.67 C 347.62 129.09 345.53 131.86 345.42 133.54 C 344.69 134.73 343.79 134.33 342.61 134.39 C 341.63 132.92 340.26 131.90 340.46 130.01 C 340.51 127.77 340.02 125.43 340.28 123.22 Z"/>
	<path d="M 669.61 123.49 C 670.51 122.80 671.33 122.66 672.07 123.08 C 672.54 124.26 672.88 125.41 673.55 126.51 C 674.31 126.39 675.07 126.25 675.83 126.09 C 676.64 127.91 676.28 129.65 675.31 131.32 C 674.31 131.93 671.79 132.03 671.03 131.00 C 668.76 129.25 669.28 125.99 669.61 123.49 Z"/>
	<path d="M 687.13 123.39 C 687.65 124.05 688.07 124.79 688.38 125.62 C 688.93 125.37 689.47 125.10 689.99 124.79 C 692.04 125.52 691.04 128.10 690.56 129.58 C 689.35 130.34 687.23 131.13 686.12 129.84 C 683.83 128.57 683.86 123.17 687.13 123.39 Z"/>
	<path d="M 273.95 126.97 C 272.82 129.30 272.80 133.97 269.99 134.91 C 267.78 135.74 267.59 138.26 264.90 137.26 C 263.19 135.85 260.33 131.49 263.98 130.59 C 265.84 130.92 265.58 132.51 266.99 133.28 C 269.36 131.74 270.11 128.65 271.27 126.20 C 272.11 124.80 274.30 124.94 273.95 126.97 Z"/>
	<path d="M 318.53 125.46 C 318.69 127.34 318.70 129.03 317.63 130.67 C 316.98 130.90 316.25 130.86 315.46 130.54 C 314.86 128.63 315.54 124.08 318.53 125.46 Z"/>
	<path d="M 623.02 124.71 C 624.48 125.06 626.35 126.43 626.53 128.00 C 626.33 129.72 625.42 131.48 624.12 132.63 C 622.53 132.85 621.27 132.53 620.34 131.66 C 619.56 129.43 621.01 125.79 623.02 124.71 Z"/>
	<path d="M 642.18 126.97 C 642.34 128.52 641.85 130.61 643.34 131.62 C 644.65 130.92 644.52 129.44 646.62 130.39 C 646.95 133.10 645.28 134.35 643.01 135.29 C 639.59 134.12 638.26 130.26 638.94 127.01 C 639.50 124.84 642.09 124.29 642.18 126.97 Z"/>
	<path d="M 629.49 128.49 C 632.82 126.84 632.20 130.08 632.04 132.18 C 632.88 132.30 633.74 132.38 634.60 132.41 C 635.18 134.24 634.10 136.57 632.01 136.51 C 627.70 137.03 628.04 130.77 629.49 128.49 Z"/>
	<path d="M 655.62 130.35 C 656.47 132.33 655.81 134.23 657.09 135.96 C 658.47 135.87 659.08 134.73 660.54 135.45 C 661.08 138.11 659.73 139.55 658.07 141.36 C 655.10 142.72 653.56 138.13 652.93 136.02 C 652.48 134.31 652.77 129.50 655.62 130.35 Z"/>
	<path d="M 311.04 130.35 C 313.59 132.10 311.61 137.26 310.45 139.48 C 309.79 139.52 309.13 139.54 308.47 139.53 C 308.04 137.94 307.12 136.76 308.27 135.21 C 309.62 133.47 308.76 130.96 311.04 130.35 Z"/>
	<path d="M 328.22 132.30 C 330.59 132.30 329.70 135.05 329.45 136.51 C 330.16 136.85 330.86 137.17 331.57 137.48 C 332.20 140.15 330.80 141.45 329.44 143.47 C 326.08 143.84 326.20 141.67 326.30 139.01 C 327.01 136.44 325.09 133.45 328.22 132.30 Z"/>
	<path d="M 699.63 135.37 C 701.24 137.65 702.10 142.39 698.97 143.76 C 694.85 144.77 693.54 138.42 696.35 136.34 C 697.23 135.43 698.40 135.14 699.63 135.37 Z"/>
	<path d="M 291.54 136.47 C 293.04 137.47 292.31 138.91 292.29 140.47 C 291.32 143.72 291.55 146.93 289.89 149.98 C 288.43 150.62 288.48 152.96 289.39 154.06 C 289.40 155.87 288.30 161.05 285.55 159.52 C 285.75 157.67 285.92 154.45 287.60 153.37 C 288.29 150.89 286.82 150.97 285.42 149.60 C 285.42 148.58 285.47 147.57 285.56 146.56 C 286.61 146.93 287.57 146.90 288.42 146.47 C 289.07 143.99 288.45 141.48 289.20 139.00 C 289.34 137.70 289.92 136.10 291.54 136.47 Z"/>
	<path d="M 615.60 137.40 C 617.02 139.49 615.77 142.02 616.58 144.47 C 617.19 144.99 617.84 145.37 618.54 145.60 C 618.61 144.30 619.18 141.41 620.98 143.05 C 623.59 145.40 620.48 148.89 617.99 149.57 C 613.89 149.51 612.65 144.25 612.90 141.00 C 612.56 139.26 613.16 136.17 615.60 137.40 Z"/>
	<path d="M 318.50 138.49 C 318.32 141.15 319.31 145.00 317.44 147.11 C 317.61 147.70 317.91 148.17 318.33 148.50 C 315.16 149.53 319.10 151.11 319.64 152.63 C 315.48 152.66 314.02 148.63 313.23 145.21 C 314.20 144.17 315.61 143.71 315.29 142.01 C 315.12 139.84 315.73 137.30 318.50 138.49 Z"/>
	<path d="M 684.63 139.38 C 685.77 139.95 685.74 141.88 686.12 142.98 C 685.41 144.50 684.94 146.52 683.64 147.62 C 682.34 148.07 680.85 147.79 679.53 147.51 C 678.80 145.45 677.84 143.11 678.52 140.91 C 679.33 139.88 680.20 139.59 681.10 140.06 C 682.52 141.59 680.39 142.85 683.18 142.98 C 683.42 142.14 683.46 141.23 683.31 140.26 C 683.67 139.80 684.11 139.51 684.63 139.38 Z"/>
	<path d="M 267.00 141.17 C 268.93 141.31 268.21 143.40 267.50 144.47 C 267.02 147.42 267.56 150.17 266.27 153.10 C 264.70 155.21 262.09 156.00 259.55 155.48 C 258.96 153.68 256.16 152.02 258.30 150.29 C 260.53 148.56 261.09 151.82 262.77 151.75 C 264.14 150.23 263.07 148.65 264.26 147.02 C 264.73 145.21 264.78 141.71 267.00 141.17 Z"/>
	<path d="M 666.49 141.47 C 667.60 141.08 668.58 141.07 669.44 141.44 C 669.43 143.37 669.09 145.07 670.35 146.71 C 671.21 145.87 671.11 144.80 672.69 145.31 C 674.46 147.93 672.38 152.07 668.95 151.51 C 665.19 150.31 664.94 144.41 666.49 141.47 Z"/>
	<path d="M 350.83 142.17 C 352.27 143.56 352.77 147.03 349.68 146.65 C 349.50 148.63 348.71 150.16 346.97 151.18 C 342.99 151.04 344.18 143.13 348.07 144.34 C 349.48 143.65 348.90 141.88 350.83 142.17 Z"/>
	<path d="M 298.45 143.42 C 299.72 143.36 300.60 143.33 301.31 144.52 C 301.27 146.52 301.32 148.51 301.36 150.51 C 300.48 152.22 299.80 154.25 297.42 153.58 C 295.87 152.21 294.03 150.67 295.50 148.49 C 296.30 148.45 297.09 148.36 297.86 148.22 C 297.65 146.46 297.90 145.09 298.45 143.42 Z"/>
	<path d="M 337.00 146.15 C 337.43 146.80 337.55 147.65 337.36 148.68 C 338.37 148.46 339.20 148.56 339.85 148.97 C 341.09 150.55 339.28 153.05 338.52 154.54 C 337.69 154.86 336.85 155.07 335.99 155.17 C 333.05 154.41 333.37 151.30 334.18 149.00 C 334.63 147.43 334.98 145.94 337.00 146.15 Z"/>
	<path d="M 704.57 148.42 C 705.50 152.46 703.72 155.38 701.03 158.17 C 698.49 159.75 696.07 160.56 693.48 158.52 C 692.75 156.75 692.45 154.87 691.72 153.09 C 691.24 151.92 691.27 151.16 692.15 150.17 C 695.54 149.50 695.48 153.37 696.88 155.23 C 699.80 157.10 700.87 154.20 701.71 151.96 C 702.24 150.32 702.08 147.78 704.57 148.42 Z"/>
	<path d="M 276.82 151.02 C 276.47 154.63 276.75 158.33 276.66 161.96 C 276.07 163.53 275.16 164.99 274.53 166.55 C 271.42 168.36 268.29 163.90 270.46 161.42 C 271.32 161.54 272.17 161.70 273.02 161.89 C 274.06 160.02 273.52 156.80 272.52 154.93 C 272.15 153.17 273.51 152.65 274.09 151.01 C 274.39 149.67 276.67 149.64 276.82 151.02 Z"/>
	<path d="M 628.96 149.55 C 632.45 151.56 626.73 158.75 623.77 156.23 C 622.37 154.27 622.39 152.87 624.24 151.27 C 626.11 151.05 627.52 150.87 628.96 149.55 Z"/>
	<path d="M 642.46 152.03 C 642.25 153.84 641.24 158.88 643.51 159.64 C 644.39 158.15 645.41 156.78 646.20 155.23 C 647.34 154.90 647.91 155.16 647.90 156.01 C 648.12 158.40 645.84 160.71 644.47 162.47 C 642.13 163.16 639.92 162.52 639.37 159.95 C 638.17 156.52 638.22 153.97 639.55 150.59 C 641.03 148.71 643.43 149.63 642.46 152.03 Z"/>
	<path d="M 355.57 153.48 C 357.97 152.31 357.46 155.79 357.89 157.01 C 358.23 159.05 359.95 160.68 361.44 158.43 C 362.66 158.41 365.67 157.95 365.57 159.87 C 364.63 161.74 366.29 163.77 364.00 164.87 C 362.61 165.37 362.89 167.10 361.21 166.83 C 359.59 165.14 362.87 163.13 361.05 161.76 C 359.02 161.72 358.43 163.16 356.46 161.54 C 355.39 159.86 355.20 157.85 354.49 155.98 C 354.85 155.15 355.22 154.32 355.57 153.48 Z"/>
	<path d="M 325.39 156.48 C 325.54 158.87 324.65 160.86 325.56 163.07 C 326.52 165.29 325.27 168.39 323.00 169.34 C 320.74 168.15 321.28 166.02 321.83 163.99 C 322.69 161.48 322.03 159.02 322.57 156.46 C 323.35 155.09 324.62 155.13 325.39 156.48 Z"/>
	<path d="M 655.86 156.17 C 657.83 158.10 655.33 162.25 657.88 163.76 C 660.95 163.81 661.60 157.30 664.67 157.29 C 665.66 160.11 662.28 163.61 660.69 165.71 C 659.55 167.44 656.85 168.27 655.23 166.74 C 653.19 164.10 653.55 161.14 653.26 158.03 C 653.52 156.69 654.40 155.67 655.86 156.17 Z"/>
	<path d="M 353.03 156.55 C 354.17 157.62 354.72 158.81 354.70 160.10 C 354.24 162.01 352.88 161.40 351.42 161.51 C 348.80 160.21 350.79 156.51 353.03 156.55 Z"/>
	<path d="M 374.67 157.95 C 373.54 160.08 371.24 162.41 373.29 164.73 C 374.02 165.95 375.24 166.43 376.09 165.00 C 376.98 163.55 378.42 164.71 378.48 166.05 C 379.11 168.67 377.68 170.73 375.05 171.14 C 373.15 170.70 371.99 168.01 370.28 168.27 C 370.37 169.25 371.14 170.68 370.54 171.54 C 368.86 172.20 368.43 171.80 367.71 170.30 C 366.33 170.64 364.34 170.95 364.28 168.97 C 364.28 167.20 363.39 164.88 366.30 165.65 C 366.64 167.78 366.17 167.92 368.48 167.54 C 368.49 166.84 368.49 166.15 368.48 165.45 C 367.87 164.48 366.72 163.95 366.18 162.95 C 365.59 160.98 366.05 158.54 368.54 158.45 C 370.27 157.90 373.92 154.77 374.67 157.95 Z"/>
	<path d="M 683.00 156.86 C 685.23 157.54 684.35 159.41 683.88 160.99 C 684.21 163.87 682.94 168.38 679.99 169.53 C 676.38 168.49 675.37 162.98 677.97 160.71 C 680.51 159.80 679.85 161.44 679.51 163.01 C 679.19 163.66 680.58 165.36 681.09 164.11 C 682.43 162.38 680.29 157.31 683.00 156.86 Z"/>
	<path d="M 265.31 158.35 C 266.31 158.31 266.92 160.14 266.70 160.98 C 265.90 164.49 267.72 168.37 265.35 171.45 C 264.18 174.13 260.15 172.56 259.46 170.42 C 260.22 169.30 261.32 168.94 262.51 168.44 C 263.29 165.46 262.65 160.46 265.31 158.35 Z"/>
	<path d="M 303.53 159.46 C 303.25 162.67 303.95 167.19 301.75 169.73 C 299.21 170.76 298.96 167.68 298.85 165.98 C 299.48 164.07 300.61 162.59 300.66 160.49 C 301.18 158.93 302.18 159.16 303.53 159.46 Z"/>
	<path d="M 700.40 160.38 C 702.74 159.36 702.66 160.71 702.50 162.55 C 701.82 162.66 701.15 162.66 700.50 162.56 C 700.45 161.83 700.42 161.11 700.40 160.38 Z"/>
	<path d="M 313.33 163.29 C 313.87 162.86 314.59 162.91 315.50 163.43 C 315.01 166.94 316.89 172.38 314.08 175.09 C 312.28 177.19 308.75 173.91 309.09 171.93 C 309.88 171.31 311.05 171.18 312.59 171.54 C 313.38 169.04 311.79 165.41 313.33 163.29 Z"/>
	<path d="M 342.55 163.48 C 343.34 163.10 344.09 162.99 344.81 163.14 C 345.83 165.83 345.01 167.90 344.45 170.57 C 345.31 170.42 346.14 170.10 346.96 169.62 C 348.47 170.74 346.70 172.80 346.28 174.10 C 345.47 176.64 342.40 176.42 343.23 178.98 C 344.80 179.24 344.81 177.08 346.56 177.42 C 346.79 178.81 346.72 180.28 346.73 181.69 C 346.11 182.73 344.75 183.13 343.98 182.02 C 343.10 180.86 341.77 181.09 340.44 180.57 C 339.14 176.98 342.42 176.40 341.83 173.00 C 341.54 169.69 341.79 166.70 342.55 163.48 Z"/>
	<path d="M 352.39 163.47 C 354.37 164.00 353.56 168.31 351.17 167.81 C 349.09 166.68 350.45 163.80 352.39 163.47 Z"/>
	<path d="M 631.00 162.46 L 631.76 163.16 C 632.41 166.34 629.85 170.42 626.96 171.80 C 622.96 171.84 621.87 168.56 622.27 165.20 C 622.75 164.05 624.66 163.63 625.33 164.86 C 625.68 165.96 625.47 167.72 627.01 167.83 C 628.52 168.04 628.95 165.56 629.37 164.51 C 629.48 163.19 630.02 162.51 631.00 162.46 Z"/>
	<path d="M 290.48 164.49 C 292.62 168.03 292.20 174.10 288.85 176.83 C 286.58 179.01 283.33 173.74 285.05 172.03 C 285.69 170.93 287.21 171.90 288.14 171.96 C 289.28 170.23 286.51 163.94 290.48 164.49 Z"/>
	<path d="M 611.26 164.93 C 611.25 166.23 611.36 167.13 611.61 167.62 C 611.80 165.85 611.11 164.47 613.64 165.36 C 614.79 166.84 613.80 170.42 612.12 171.30 C 610.44 171.78 607.81 172.06 607.14 169.97 C 606.20 168.29 607.08 167.18 607.54 165.56 C 607.96 163.83 610.21 163.93 611.26 164.93 Z"/>
	<path d="M 359.63 166.33 C 359.73 167.24 359.72 168.15 359.59 169.09 C 360.29 169.84 360.96 170.61 361.61 171.39 C 361.53 173.19 361.05 174.86 361.37 176.67 C 362.30 176.00 362.66 174.81 363.95 175.03 C 365.60 176.30 362.98 180.87 360.98 180.32 C 359.14 179.02 359.02 178.82 356.79 179.79 C 356.06 178.95 355.32 178.51 354.54 178.45 C 354.42 179.21 354.32 179.97 354.23 180.74 C 355.95 182.36 355.39 183.65 355.29 185.73 C 358.24 187.04 356.92 181.77 359.73 182.23 C 359.99 183.06 360.16 183.92 360.25 184.80 C 361.35 185.06 362.45 185.48 363.59 185.61 C 364.76 184.81 365.30 183.96 365.21 183.05 C 364.10 181.75 363.92 180.63 364.66 179.68 C 368.44 177.68 365.51 182.73 369.49 182.57 C 369.78 181.41 369.82 180.36 369.61 179.42 C 368.56 179.65 367.55 179.63 366.58 179.38 L 366.35 178.06 C 367.47 176.91 368.31 173.45 370.24 173.85 C 370.29 174.89 370.55 175.54 371.02 175.81 C 372.76 175.43 375.03 175.50 373.83 177.92 C 372.75 180.47 371.72 182.87 372.35 185.70 C 372.80 186.28 373.55 186.54 374.61 186.49 C 376.03 187.36 375.80 188.65 374.65 189.63 C 373.38 191.17 372.13 192.41 370.38 190.63 C 367.74 188.61 369.23 186.98 368.70 184.34 C 367.26 185.38 367.10 187.66 368.43 189.01 C 367.04 190.40 367.55 192.69 367.31 194.54 C 368.18 194.24 368.91 194.22 369.50 194.46 C 370.88 197.67 368.44 199.53 370.24 202.73 C 370.76 202.56 371.28 202.39 371.80 202.23 C 374.63 203.96 371.44 207.54 369.05 206.71 C 366.30 205.80 365.94 203.47 365.58 200.92 C 366.01 200.12 366.36 199.32 366.61 198.49 C 365.08 198.48 364.48 197.77 363.22 197.22 C 363.09 198.59 364.39 199.85 364.69 201.21 C 365.21 202.82 361.90 203.42 361.41 201.59 C 360.89 199.67 357.56 200.19 357.25 201.74 C 360.90 200.60 360.51 204.99 360.07 207.13 C 357.48 208.40 357.73 207.78 355.90 206.30 C 353.93 205.57 354.10 204.33 353.10 202.86 C 351.87 202.65 351.27 201.99 350.29 201.34 C 350.31 202.92 352.12 203.18 352.12 204.99 C 352.04 206.21 352.81 206.74 354.40 206.58 C 354.60 207.54 354.64 208.53 354.51 209.54 C 356.29 209.72 355.22 207.74 357.23 207.93 C 357.62 208.93 357.96 209.95 358.26 210.99 C 357.33 212.94 356.92 215.05 357.88 217.07 C 355.47 219.05 355.11 215.07 355.41 213.46 C 354.71 213.24 354.04 213.22 353.42 213.41 C 352.74 216.24 355.43 216.68 353.59 219.42 C 353.93 220.60 353.79 221.38 353.52 222.52 C 355.02 222.40 356.25 220.39 357.96 220.47 C 359.94 223.18 355.35 227.01 355.46 229.35 C 356.99 229.66 358.28 230.51 358.86 232.01 C 358.19 232.47 356.08 234.34 358.04 234.52 C 360.85 234.03 362.52 237.04 363.87 239.04 C 363.72 240.15 362.97 241.52 363.35 242.60 C 367.12 242.54 366.94 245.35 365.94 248.00 C 366.05 249.64 369.15 249.77 370.25 250.77 C 371.19 252.93 372.32 254.77 372.67 257.09 C 374.42 258.08 375.62 259.58 377.16 260.86 C 379.26 262.42 375.67 265.73 374.03 263.88 C 372.76 263.40 373.04 261.04 371.52 260.57 C 369.27 259.88 367.13 260.88 366.20 263.02 C 366.42 265.45 367.36 267.68 367.84 270.08 C 368.58 272.66 370.93 273.23 370.27 276.04 C 369.90 278.76 365.27 278.34 365.25 275.98 C 365.84 272.04 365.43 268.04 363.53 264.48 C 362.47 263.94 361.68 263.25 360.42 263.35 C 362.13 265.39 361.07 267.19 361.59 269.46 C 363.35 270.89 363.29 274.93 360.40 274.67 C 358.85 271.66 359.80 268.34 358.70 265.36 C 357.30 264.72 355.90 264.09 354.50 263.45 C 354.19 260.68 352.58 258.65 352.20 255.99 C 352.69 254.71 352.43 251.00 354.73 252.26 L 354.49 254.16 C 356.60 255.71 356.19 257.39 356.38 259.65 C 357.39 261.64 358.47 261.07 359.53 259.53 C 362.20 258.49 361.19 260.69 362.79 260.75 C 363.63 259.86 364.70 255.77 363.03 255.67 C 361.99 256.52 361.69 258.20 360.08 257.85 C 358.96 256.58 360.44 255.08 361.72 254.71 C 361.95 253.60 361.99 252.44 361.83 251.23 C 360.65 251.03 361.12 253.56 359.71 253.65 C 357.23 254.49 356.02 250.80 358.67 249.64 C 359.10 246.94 357.35 246.67 355.52 245.42 C 353.48 244.23 355.24 241.66 354.23 239.92 C 352.55 237.55 356.20 236.27 353.60 234.41 C 352.52 233.02 351.15 233.34 349.59 233.47 C 349.66 235.43 350.11 237.70 347.35 237.48 C 347.12 238.45 347.11 239.52 347.35 240.68 C 348.46 239.45 350.17 238.51 351.79 238.19 C 353.14 239.43 352.60 243.02 350.52 243.50 C 350.40 245.56 349.24 247.48 351.59 248.66 C 352.27 247.44 351.73 245.69 353.67 246.32 C 354.50 249.68 351.79 250.79 352.21 254.01 C 351.44 255.76 350.72 258.57 348.41 258.49 C 349.28 259.83 350.46 260.70 352.07 260.97 C 352.94 262.87 352.98 264.54 352.53 266.57 C 351.68 267.40 350.60 268.56 349.36 267.68 C 347.08 266.38 349.21 264.26 348.73 262.24 C 346.40 261.22 344.82 260.27 344.46 257.50 C 342.69 255.78 343.26 253.36 340.98 252.02 C 339.75 251.33 340.43 249.93 341.25 249.21 C 342.09 248.08 343.65 248.71 344.68 247.71 C 343.78 245.25 343.57 242.56 342.78 240.05 C 341.71 238.73 340.40 236.84 338.43 237.42 C 338.64 238.75 339.13 239.81 338.33 241.07 C 336.71 243.47 339.54 244.01 338.70 246.71 C 336.26 247.58 337.40 249.47 338.41 251.02 C 337.86 252.72 336.77 253.12 337.48 255.07 C 338.73 257.89 337.99 260.61 338.46 263.57 C 336.94 264.82 335.47 263.94 334.63 262.44 C 331.85 263.39 330.40 261.16 332.14 258.98 C 331.88 258.32 331.28 257.85 330.33 257.59 C 329.73 255.73 331.19 254.12 329.54 252.49 C 326.25 251.20 328.63 247.57 328.15 245.00 C 327.73 242.65 328.97 241.82 329.97 240.00 C 330.32 238.28 332.64 237.31 331.22 235.76 L 329.72 235.75 C 328.99 236.96 330.01 239.48 327.99 239.50 C 326.76 238.11 326.59 237.11 326.64 235.30 C 325.85 234.63 325.03 234.30 324.19 234.31 C 323.59 235.36 323.17 236.41 322.38 237.36 C 321.47 239.05 322.27 240.29 322.37 242.05 C 321.23 243.88 321.56 245.82 321.16 248.01 C 321.51 252.26 321.11 256.00 322.88 260.05 C 324.67 263.80 321.67 265.29 321.33 268.69 C 321.97 269.60 323.41 270.05 324.40 269.53 C 324.84 267.47 325.20 264.86 328.01 265.94 C 329.60 266.07 329.69 267.35 330.70 267.70 C 332.75 266.42 332.03 263.70 334.00 263.21 C 334.91 265.19 336.47 263.86 337.61 265.19 C 338.86 266.67 337.78 268.37 340.05 268.48 C 341.72 268.82 342.38 267.05 344.03 267.65 C 346.05 267.61 347.28 270.72 349.06 268.44 C 350.07 268.28 350.54 268.99 350.47 270.58 C 352.53 271.42 352.20 273.13 352.29 275.01 C 352.70 277.18 351.00 277.02 349.49 277.47 C 349.80 278.56 349.69 279.50 349.18 280.31 C 348.24 279.98 347.30 279.65 346.36 279.31 C 347.05 281.37 349.91 283.50 348.67 285.72 C 347.61 286.96 344.97 286.98 343.56 286.50 C 343.45 284.89 344.02 283.53 344.28 281.98 C 343.17 279.81 343.80 277.21 343.14 275.11 C 339.85 273.57 341.23 278.82 339.95 279.93 C 339.10 279.85 338.26 279.69 337.43 279.44 C 337.30 280.38 337.72 281.26 338.70 282.09 C 338.11 282.73 337.58 283.38 337.11 284.02 C 337.04 285.38 338.61 286.67 337.82 287.83 C 336.34 288.49 334.97 288.65 333.69 288.30 C 332.33 286.11 334.76 285.22 334.50 283.01 C 334.77 281.24 334.72 278.31 336.06 277.01 C 336.89 277.14 337.72 277.33 338.53 277.57 C 338.60 276.86 338.59 276.16 338.51 275.48 C 337.02 274.34 336.92 273.11 334.76 273.04 C 334.64 272.23 334.37 271.64 333.94 271.26 C 331.35 270.33 332.62 274.56 332.15 275.98 C 332.83 276.09 333.34 276.31 333.66 276.64 C 331.66 276.36 331.03 277.80 329.13 278.03 C 328.76 279.73 331.35 280.18 331.37 281.99 C 331.04 282.77 330.72 283.56 330.42 284.35 C 329.03 285.78 327.61 284.78 326.14 284.10 C 326.40 280.99 327.58 276.25 325.41 273.32 C 324.91 275.35 325.35 277.10 323.55 278.52 C 321.99 277.71 322.02 275.98 321.47 274.45 C 319.92 273.95 319.41 275.78 317.99 274.97 C 317.53 274.49 317.19 273.89 316.97 273.16 C 315.79 272.95 314.82 274.40 313.87 274.98 C 313.33 276.41 313.92 278.07 313.59 279.62 C 309.72 278.77 311.57 281.99 308.22 281.24 C 308.42 283.99 307.81 287.46 304.42 287.60 C 302.74 287.04 303.07 284.14 304.22 283.20 C 306.17 281.21 307.21 278.29 305.13 275.98 C 303.95 275.01 304.57 272.99 303.03 272.64 C 301.59 273.31 300.83 276.37 299.19 275.86 C 298.18 274.50 298.65 272.85 297.62 271.40 C 295.97 271.59 294.51 271.38 293.05 272.34 C 291.60 271.56 291.14 270.91 290.47 269.44 C 289.60 269.17 289.16 269.36 289.16 269.99 C 289.63 271.65 290.83 271.97 289.96 274.00 C 289.54 275.29 290.05 277.01 288.08 276.81 C 286.69 275.69 288.13 272.88 287.82 271.26 L 287.17 271.24 C 287.08 272.16 287.12 273.09 287.29 274.05 C 285.33 276.35 285.84 278.84 284.34 281.28 C 283.62 282.43 281.50 281.61 280.35 281.60 C 277.83 279.16 280.78 275.77 283.56 275.51 C 285.18 274.19 284.74 270.28 284.57 268.38 C 283.04 267.93 281.64 269.01 280.20 267.72 C 279.25 267.08 278.44 267.12 277.78 267.82 C 275.68 271.47 277.65 276.00 275.08 279.08 C 273.69 280.80 271.09 279.95 270.39 278.09 C 270.27 275.72 271.63 273.56 274.05 273.18 C 274.82 270.44 275.83 266.91 277.51 264.49 C 278.37 264.33 279.22 264.11 280.05 263.84 C 280.59 263.00 280.64 261.96 280.20 260.71 C 279.14 261.33 278.05 261.83 276.93 262.21 C 276.01 260.82 277.64 259.50 278.52 258.52 C 282.47 255.89 276.42 249.08 281.05 247.02 C 282.42 247.14 283.48 248.15 284.33 246.50 C 284.50 244.38 286.22 243.45 286.32 241.10 C 286.85 239.00 286.03 233.75 289.30 233.78 C 289.80 234.54 289.84 235.49 289.43 236.63 C 289.96 236.00 290.44 235.33 290.87 234.61 C 291.87 234.31 292.87 234.48 293.57 233.59 C 292.47 233.48 291.84 232.96 291.68 232.03 C 291.11 230.50 292.66 229.95 292.67 228.43 C 292.14 228.79 291.61 229.16 291.08 229.54 C 288.51 228.40 289.36 227.25 290.93 225.66 C 292.00 225.60 293.07 225.50 294.13 225.36 C 295.01 226.02 295.85 226.55 296.64 226.94 C 296.91 225.73 297.15 224.52 297.36 223.30 C 299.76 222.55 299.15 226.74 299.28 228.06 C 298.80 228.61 297.95 228.83 296.73 228.71 C 296.98 230.81 296.39 231.22 295.57 232.94 C 296.23 233.58 296.87 234.24 297.49 234.92 C 297.52 237.31 297.32 239.11 294.38 238.47 C 295.46 240.25 297.42 240.53 298.61 241.98 C 297.44 243.25 296.05 245.16 294.33 245.67 C 293.50 244.82 294.69 243.49 294.63 242.41 C 293.52 242.25 292.39 242.19 291.25 242.23 C 291.13 243.31 292.89 243.86 293.16 245.00 C 292.13 246.68 290.70 248.57 289.14 249.73 C 287.58 249.50 285.01 249.28 285.37 251.63 C 286.21 251.84 286.69 251.30 286.82 250.00 L 288.01 250.04 C 289.60 252.29 287.78 256.60 285.38 257.80 C 285.83 259.53 285.44 262.26 284.99 264.05 C 286.91 264.42 286.70 265.07 287.43 266.68 C 289.35 267.13 289.27 264.07 290.98 263.62 C 292.50 264.25 292.14 266.26 292.44 267.61 C 294.08 268.32 294.04 266.87 295.00 265.99 C 297.88 262.61 298.64 256.79 295.83 253.10 C 294.94 251.84 295.56 249.84 295.40 248.35 C 297.99 246.57 297.61 249.26 298.22 250.86 C 299.23 251.30 300.88 249.02 300.77 248.20 C 300.12 247.54 299.72 246.80 299.55 245.99 C 300.39 244.66 300.98 243.21 301.70 241.82 C 300.94 241.39 300.16 241.00 299.36 240.64 C 299.38 239.89 299.40 239.15 299.44 238.40 C 300.73 238.25 301.95 237.90 303.10 237.35 C 304.52 238.36 303.93 241.28 306.01 242.17 C 306.87 241.87 307.74 241.57 308.60 241.26 C 308.02 242.99 307.86 245.71 309.38 247.01 L 308.94 247.96 C 308.40 247.74 307.85 247.55 307.30 247.36 C 307.25 250.47 304.46 252.62 306.64 255.31 C 306.63 255.81 306.28 256.34 305.58 256.91 C 305.87 259.66 304.74 262.00 303.07 264.10 C 302.26 265.56 300.73 266.87 301.30 268.70 C 301.93 269.29 302.63 269.55 303.39 269.49 C 304.04 267.64 306.11 266.86 307.88 267.16 C 307.89 268.35 307.29 269.47 307.39 270.65 C 307.87 269.40 309.24 266.37 310.88 267.92 C 311.10 268.87 311.22 269.83 311.25 270.82 C 312.67 271.43 312.93 269.30 314.56 269.40 C 314.79 267.94 314.51 265.99 314.70 264.34 C 313.62 263.64 312.81 263.00 312.15 261.86 C 312.73 259.91 312.26 258.01 312.56 256.01 C 312.33 254.05 314.31 252.77 314.66 250.96 C 314.95 248.28 314.37 245.65 314.85 242.99 C 315.15 240.56 313.97 238.12 315.18 236.05 C 315.43 234.74 317.43 235.02 317.87 234.00 C 317.71 233.30 317.31 232.65 316.66 232.05 C 316.75 230.34 317.38 229.38 315.60 228.41 C 314.15 227.55 314.41 224.85 312.36 225.35 C 312.28 226.16 312.52 226.54 313.07 226.52 C 315.42 226.64 313.89 229.72 315.36 230.95 C 316.38 232.65 315.07 234.67 314.04 236.05 C 313.01 237.53 312.03 236.23 311.18 235.35 C 308.59 235.88 308.08 235.36 307.34 238.25 C 308.37 238.73 308.87 239.29 308.84 239.93 L 308.05 239.87 C 306.62 237.89 305.08 239.26 304.38 236.68 C 303.56 234.36 306.29 233.36 305.63 231.47 C 303.10 231.83 302.78 229.84 300.76 229.02 C 299.49 227.73 301.09 226.61 299.60 225.04 C 301.18 221.88 299.89 217.05 302.69 214.39 C 301.03 213.32 298.84 212.43 299.95 210.00 C 300.54 208.86 302.12 206.31 303.66 207.34 C 304.15 209.06 304.13 210.82 304.46 212.55 C 306.31 213.71 304.91 215.51 306.31 216.64 C 309.83 217.97 305.26 221.10 308.05 223.50 C 309.22 222.68 310.10 221.18 310.81 219.93 C 311.31 218.14 308.71 217.92 309.20 216.05 C 309.39 215.24 310.02 215.02 311.10 215.38 C 313.16 215.77 312.17 211.99 311.69 211.00 C 311.52 207.80 313.65 209.59 315.48 209.48 C 315.56 207.56 314.91 206.70 316.97 205.72 C 317.85 205.99 318.73 206.22 319.63 206.42 C 320.26 207.25 320.55 208.14 320.51 209.08 C 320.12 209.59 319.74 210.10 319.37 210.63 C 320.26 210.53 321.16 210.47 322.05 210.44 C 324.28 211.18 324.85 213.45 327.20 213.93 C 327.53 215.17 327.82 216.33 328.45 217.46 C 331.42 217.50 330.23 218.71 330.22 220.79 C 332.19 221.05 333.62 220.72 335.14 219.42 C 335.62 219.88 336.10 220.25 336.58 220.51 C 337.44 219.13 338.12 217.58 338.53 216.01 C 337.73 214.98 338.16 212.85 337.36 212.37 C 337.25 213.31 337.27 214.30 337.41 215.32 L 335.37 215.47 C 335.89 215.61 336.41 215.75 336.93 215.88 C 337.16 217.54 335.62 219.08 334.00 219.20 C 332.30 218.44 331.80 216.73 330.20 215.84 C 329.05 214.33 330.64 212.08 330.66 210.36 C 328.02 209.99 328.80 211.59 327.26 212.93 C 323.75 213.40 322.88 209.57 324.12 207.03 C 325.04 205.05 326.54 203.46 327.58 201.52 C 329.18 200.92 329.72 202.97 330.40 203.97 C 329.71 205.15 329.49 206.20 329.75 207.10 C 331.98 207.47 332.65 207.10 332.37 209.75 C 333.72 209.42 333.81 207.56 333.61 206.45 C 332.24 205.82 330.89 203.50 331.11 202.04 C 332.34 200.79 332.86 199.25 334.57 198.59 C 334.93 197.27 335.69 194.14 337.66 195.38 C 339.91 196.90 337.50 199.33 335.63 199.58 C 334.27 200.86 335.64 204.16 337.67 203.76 C 338.93 202.28 338.40 201.54 337.61 200.01 C 338.13 198.72 338.96 197.78 340.10 197.20 C 340.72 197.68 341.35 198.12 341.99 198.52 C 343.44 197.90 343.70 197.82 345.09 198.62 C 347.19 199.19 348.45 197.16 347.63 195.32 C 346.08 196.06 345.72 197.85 343.84 198.02 L 342.89 197.28 C 342.36 193.15 342.10 188.45 343.52 184.46 C 345.24 183.95 345.61 185.65 345.42 187.00 C 345.31 188.91 345.34 190.81 345.37 192.71 C 347.00 191.68 347.87 189.30 349.48 188.06 C 349.94 185.82 347.45 183.36 347.72 180.97 C 348.27 179.89 349.22 179.01 349.68 177.90 C 349.65 176.37 349.81 175.06 350.94 173.94 C 352.40 172.65 352.24 170.00 353.95 169.05 C 357.31 169.88 355.54 173.37 353.37 174.53 C 355.37 174.97 356.24 174.45 358.06 174.09 C 358.22 174.93 358.27 175.79 358.20 176.69 L 358.79 176.72 C 358.65 175.39 359.07 173.65 358.65 172.47 C 357.72 172.21 357.01 171.76 356.50 171.11 C 356.70 168.53 356.43 166.51 359.63 166.33 Z M 354.54 189.45 C 355.38 189.45 356.05 189.78 356.53 190.43 C 356.37 191.26 356.24 192.10 356.16 192.94 C 356.53 193.95 358.09 194.64 357.80 195.74 C 356.62 196.90 356.30 196.85 354.94 196.06 C 353.98 195.37 352.04 195.32 352.47 193.70 C 355.49 193.80 354.65 191.48 354.54 189.45 Z M 344.58 202.49 C 344.22 203.88 343.89 205.26 343.67 206.68 C 340.72 206.97 341.58 208.98 340.31 210.67 C 340.68 208.86 340.29 207.63 341.57 206.14 C 341.66 204.03 341.89 201.94 344.58 202.49 Z M 348.52 208.47 C 349.04 209.67 349.20 212.54 347.05 211.83 C 346.63 211.37 346.37 210.73 346.26 209.92 C 345.62 210.13 344.97 210.34 344.33 210.53 L 344.39 209.49 C 346.94 210.50 346.54 208.45 348.52 208.47 Z M 315.59 209.56 L 316.97 209.43 L 317.78 210.20 C 317.88 212.99 316.72 215.09 317.96 217.99 C 317.60 218.58 317.11 219.08 316.49 219.50 C 315.60 220.87 318.16 222.68 318.87 223.69 C 320.41 223.78 321.79 223.59 323.01 223.12 C 322.81 222.24 322.64 221.36 322.52 220.48 C 323.25 219.47 324.47 218.84 325.70 219.30 C 326.25 220.20 327.37 221.42 326.62 222.49 C 323.55 221.70 323.78 224.21 323.64 226.39 C 325.84 228.08 325.67 225.32 327.60 225.36 C 327.42 226.59 327.48 227.72 326.65 228.71 C 325.72 228.53 324.79 228.32 323.87 228.08 C 323.68 230.02 321.88 230.36 320.29 230.79 C 320.22 229.07 323.99 228.73 323.56 226.65 C 321.03 226.56 321.05 225.99 319.83 224.08 C 318.36 223.59 318.38 225.69 317.32 225.73 C 316.90 223.62 316.10 224.17 314.38 223.60 C 314.68 220.68 313.84 219.87 311.76 218.09 C 311.41 216.57 311.78 215.75 312.86 215.66 C 313.95 216.40 314.90 216.43 315.73 215.74 C 315.85 213.69 315.33 211.61 315.59 209.56 Z M 305.69 219.33 C 307.48 220.06 305.26 222.14 304.22 221.66 C 304.35 220.46 303.82 218.75 305.69 219.33 Z M 306.82 224.27 C 306.69 225.02 306.56 225.77 306.42 226.51 C 305.72 226.84 305.02 226.90 304.33 226.67 C 304.16 224.76 304.35 222.52 306.82 224.27 Z M 343.21 224.28 C 344.04 224.16 344.23 224.65 343.80 225.76 C 342.92 225.89 342.72 225.39 343.21 224.28 Z M 311.34 230.28 C 313.34 229.59 313.93 233.21 311.98 233.64 C 311.04 233.20 310.83 232.08 311.34 230.28 Z M 330.21 231.28 C 331.07 231.18 331.28 231.67 330.83 232.75 C 329.91 232.89 329.70 232.39 330.21 231.28 Z M 334.77 232.14 C 334.62 233.29 334.53 234.44 334.51 235.60 C 331.53 235.99 332.03 231.45 334.77 232.14 Z M 300.21 253.21 C 301.86 254.39 303.41 255.60 302.87 257.99 C 302.86 259.73 302.71 262.80 300.33 262.78 C 300.84 259.54 300.49 256.41 300.21 253.21 Z M 315.52 255.46 L 316.63 255.33 C 317.20 257.33 316.61 258.34 315.55 259.97 C 316.05 262.68 318.93 260.62 320.62 261.39 C 320.83 263.53 319.97 265.20 319.01 267.03 C 318.75 267.87 318.17 268.11 317.28 267.75 C 317.06 265.30 319.29 262.08 315.51 261.39 C 315.31 259.37 315.03 257.46 315.52 255.46 Z M 348.95 272.88 L 348.25 273.35 C 346.51 273.26 347.53 277.20 346.20 276.79 C 346.15 275.62 346.19 274.46 346.30 273.31 C 346.73 272.39 349.15 270.67 348.95 272.88 Z M 308.27 273.26 C 309.48 273.68 310.88 278.17 308.44 277.68 C 308.79 276.11 308.04 274.74 308.27 273.26 Z"/>
	<path d="M 634.64 166.49 C 635.58 166.40 636.54 166.39 637.51 166.46 C 637.40 167.74 637.33 168.93 636.60 170.05 C 636.95 171.64 637.77 172.61 639.05 172.96 C 639.76 172.26 641.32 170.04 642.05 171.99 C 642.85 176.52 635.67 178.54 634.07 173.99 C 632.82 170.96 634.27 169.36 634.64 166.49 Z"/>
	<path d="M 665.64 166.33 C 666.39 168.43 666.48 170.66 667.29 172.74 C 667.96 172.98 668.68 172.91 669.47 172.53 C 670.12 170.91 669.89 168.41 671.28 167.29 C 673.22 166.99 672.83 168.68 672.67 170.00 C 672.26 172.68 670.77 176.24 668.06 177.29 C 666.34 177.74 664.38 175.96 663.70 174.49 C 663.80 172.31 663.39 170.20 663.40 168.03 C 663.49 166.71 664.25 165.85 665.64 166.33 Z"/>
	<path d="M 335.52 168.58 C 336.58 169.51 337.80 170.38 337.66 171.95 C 337.60 173.14 336.18 173.13 336.45 174.46 C 337.51 174.80 337.96 175.28 337.81 175.89 C 337.20 177.47 334.79 176.32 333.44 176.50 C 331.50 175.63 332.60 171.75 332.44 170.04 C 332.61 167.98 334.00 168.44 335.52 168.58 Z"/>
	<path d="M 691.60 170.37 C 692.46 172.58 691.98 175.23 692.48 177.56 C 693.33 177.53 694.06 177.24 694.68 176.71 C 695.48 175.09 693.66 173.30 694.86 172.02 C 695.89 172.07 696.85 172.48 697.75 173.25 C 697.91 176.11 696.32 180.88 693.00 181.19 C 688.79 181.02 687.67 176.28 689.06 173.03 C 689.74 171.72 689.61 169.97 691.60 170.37 Z"/>
	<path d="M 275.44 171.55 C 277.15 174.75 276.71 177.79 274.80 180.75 C 272.14 181.81 269.91 178.15 271.98 176.00 C 273.33 174.63 272.74 171.07 275.44 171.55 Z"/>
	
	<path d="M 301.57 176.41 C 301.83 179.65 300.72 182.37 300.30 185.50 C 299.90 186.82 298.43 186.92 297.27 186.71 C 296.52 185.30 295.71 183.58 295.43 182.01 C 295.63 180.30 296.94 180.65 298.22 180.35 C 298.44 179.43 298.55 178.48 298.57 177.52 C 299.55 176.71 300.19 175.89 301.57 176.41 Z"/>
	<path d="M 612.18 175.94 C 613.42 177.40 611.75 179.68 612.45 181.51 C 613.15 181.54 613.85 181.55 614.54 181.54 C 615.37 180.02 615.22 177.99 617.54 178.42 C 620.30 181.62 614.15 187.83 611.01 184.92 C 607.98 183.42 608.68 179.47 609.79 176.92 C 610.45 175.95 611.25 175.62 612.18 175.94 Z"/>
	<path d="M 320.95 176.50 C 322.67 176.38 325.54 179.15 324.42 181.02 C 324.14 183.00 320.71 188.38 319.28 184.08 C 319.77 181.71 318.89 178.06 320.95 176.50 Z"/>
	<path d="M 265.55 178.51 L 266.94 177.43 C 269.36 177.29 269.15 180.42 270.03 181.98 C 271.41 184.76 270.66 187.19 270.71 190.08 C 269.74 191.12 269.17 192.28 268.50 193.51 C 265.40 194.59 265.25 192.12 262.54 192.37 C 260.57 190.06 261.31 188.67 263.95 187.59 C 265.20 188.77 266.30 188.99 267.27 188.24 C 268.82 185.29 265.17 181.82 265.55 178.51 Z"/>
	<path d="M 329.47 178.47 C 329.70 180.08 329.02 181.36 330.36 182.59 C 331.98 184.18 329.13 185.94 329.78 188.00 C 329.72 188.99 329.75 189.92 329.86 190.79 C 331.56 191.48 333.13 192.92 331.75 194.79 C 330.07 196.57 327.55 193.51 329.46 191.90 C 329.59 191.08 328.93 190.60 327.47 190.46 C 326.57 188.35 327.73 185.33 327.93 183.08 C 327.38 181.44 325.96 180.96 327.19 179.03 C 327.47 178.19 328.23 178.00 329.47 178.47 Z"/>
	<path d="M 654.68 180.32 C 655.36 182.03 653.43 183.15 655.35 184.65 C 657.30 185.30 656.97 181.63 657.48 180.45 C 659.17 180.37 659.76 181.42 659.59 183.00 C 659.82 185.06 658.60 186.19 657.74 187.90 C 656.35 189.37 654.20 188.89 652.44 188.53 C 651.45 187.33 651.26 185.48 650.76 184.01 C 650.96 181.82 652.07 179.62 654.68 180.32 Z"/>
	<path d="M 279.43 182.42 C 280.25 182.09 280.98 182.08 281.60 182.41 C 282.94 183.41 282.22 185.50 282.48 187.00 C 282.42 188.13 283.06 190.25 282.03 191.02 C 280.98 191.91 279.92 193.96 278.37 193.62 C 276.59 192.82 276.79 190.22 278.01 189.00 C 279.51 186.96 279.32 184.74 279.43 182.42 Z"/>
	<path d="M 337.58 182.39 C 338.48 185.13 336.51 187.01 336.82 189.26 C 340.55 188.89 338.54 194.90 335.97 194.35 C 333.97 193.01 336.04 191.51 335.26 190.16 C 331.79 190.12 330.08 186.87 332.13 184.03 C 332.87 184.08 333.61 184.23 334.35 184.48 C 334.86 182.80 335.65 181.51 337.58 182.39 Z"/>
	<path d="M 684.40 183.68 C 686.46 184.22 685.40 181.57 687.51 182.46 C 689.48 184.80 687.17 184.67 687.52 186.93 C 688.25 187.56 688.65 188.24 688.72 188.97 C 687.33 190.54 683.89 189.21 684.31 186.94 C 683.62 185.36 680.41 185.02 681.69 182.86 C 683.06 181.35 683.82 182.04 684.40 183.68 Z"/>
	<path d="M 691.52 183.52 C 692.18 183.40 692.86 183.37 693.56 183.43 C 694.18 184.72 694.44 185.99 694.32 187.24 C 691.39 188.34 689.14 186.15 691.52 183.52 Z"/>
	<path d="M 626.64 184.36 C 627.27 186.78 625.76 188.53 627.96 190.49 C 630.55 190.52 630.35 187.25 630.47 185.45 L 631.53 185.50 C 634.17 187.79 632.35 191.36 630.51 193.50 C 628.15 194.19 626.20 193.55 623.93 192.98 C 623.56 195.27 621.62 194.90 620.44 196.36 C 619.56 198.58 619.85 200.82 617.04 201.49 C 614.22 202.14 612.70 200.26 611.43 198.10 C 611.58 196.58 610.87 193.20 613.01 192.92 C 614.83 193.11 614.80 196.15 615.59 197.46 C 618.77 197.52 617.84 193.20 618.35 191.31 C 620.51 191.08 621.09 193.71 624.01 192.21 C 623.54 190.12 623.35 188.20 623.62 186.05 C 623.56 184.51 625.34 183.51 626.64 184.36 Z"/>
	<path d="M 303.46 186.43 C 304.08 186.16 304.78 186.16 305.54 186.43 C 306.05 190.36 305.41 194.47 305.32 198.49 C 304.71 199.41 303.64 200.94 302.35 200.65 C 301.49 199.82 300.27 199.14 299.75 198.04 C 299.50 195.61 300.13 194.68 302.59 195.48 C 303.15 192.56 302.07 189.05 303.46 186.43 Z"/>
	<path d="M 639.28 189.99 C 639.00 191.77 640.48 195.47 642.73 194.74 C 642.74 193.80 642.66 192.86 642.48 191.91 C 643.50 190.41 645.11 190.31 645.80 192.03 C 646.69 193.93 644.84 196.29 643.89 197.84 C 642.20 199.38 640.59 198.67 638.56 198.43 C 636.09 195.00 635.54 191.95 636.83 187.87 C 638.48 186.20 639.28 188.55 639.28 189.99 Z"/>
	<path d="M 292.44 188.46 C 295.27 187.14 295.29 192.55 292.96 192.98 C 290.09 193.46 291.13 189.46 292.44 188.46 Z"/>
	
	<path d="M 678.18 189.67 C 678.66 191.63 677.70 193.87 678.30 195.78 C 680.54 196.50 679.85 191.38 681.32 190.29 C 683.07 189.59 683.13 191.45 683.78 192.53 L 686.00 192.09 C 687.53 192.05 686.55 194.30 685.63 194.57 C 684.79 194.56 684.24 192.85 683.28 193.10 C 682.35 194.26 682.41 195.58 681.82 196.90 C 680.48 198.59 679.41 200.19 676.96 199.28 C 674.58 197.64 676.11 195.33 674.85 193.00 C 674.95 191.29 675.87 187.71 678.18 189.67 Z"/>
	<path d="M 270.73 192.69 L 271.94 192.04 C 274.89 192.69 273.69 197.18 275.64 199.28 C 275.92 202.60 276.79 205.48 273.74 207.73 C 272.33 207.81 270.51 207.74 269.85 206.27 C 268.14 205.50 269.18 204.03 267.43 203.48 C 268.89 204.01 271.42 203.12 272.49 202.10 C 272.60 199.12 269.35 195.35 270.73 192.69 Z"/>
	<path d="M 321.85 193.18 C 323.52 195.84 320.12 197.52 322.26 199.90 C 323.48 202.43 321.47 204.27 318.89 203.89 C 317.75 201.51 319.12 196.68 319.51 193.92 C 320.09 192.94 320.87 192.69 321.85 193.18 Z"/>
	<path d="M 286.62 194.38 C 287.18 196.72 287.43 198.64 286.74 200.99 C 286.76 202.72 286.08 205.04 284.03 205.18 C 282.65 204.76 281.84 203.31 281.53 202.00 C 281.49 200.78 282.98 200.52 283.75 199.87 C 284.21 198.30 283.61 197.02 283.54 195.49 C 284.18 193.88 285.13 193.98 286.62 194.38 Z"/>
	<path d="M 316.85 196.18 C 317.56 197.40 317.94 199.59 318.05 200.99 C 316.63 202.83 314.03 201.71 313.06 199.99 C 311.68 197.70 313.35 197.11 315.40 197.39 C 315.80 196.51 316.28 196.11 316.85 196.18 Z"/>
	<path d="M 665.59 203.01 C 665.64 204.53 664.20 205.19 664.34 206.71 C 665.24 206.79 666.13 206.31 667.02 205.27 C 668.91 205.66 667.54 207.90 667.18 209.03 C 666.56 210.03 664.41 210.50 664.08 209.00 C 663.45 207.26 662.00 208.37 662.27 205.94 C 661.42 204.22 660.77 203.30 661.33 201.28 C 662.89 199.57 665.44 200.82 665.59 203.01 Z"/>
	<path d="M 310.39 201.46 C 312.07 201.72 313.06 205.04 312.54 206.55 C 310.69 208.20 309.07 206.99 308.55 205.00 C 308.89 203.87 309.01 201.69 310.39 201.46 Z"/>
	
	
	<path d="M 290.53 204.57 C 291.17 204.56 291.80 204.55 292.44 204.55 C 292.65 206.67 292.43 208.65 293.29 210.54 C 293.91 212.82 291.85 215.07 290.76 216.94 C 290.58 217.41 290.18 217.61 289.55 217.54 C 288.57 214.69 285.81 216.02 286.42 212.43 C 287.67 212.33 288.93 212.28 290.19 212.30 C 290.79 209.53 288.21 207.56 290.53 204.57 Z"/>
	<path d="M 363.64 206.36 C 364.51 209.22 361.07 212.02 363.36 214.68 C 365.25 214.85 366.09 211.83 367.34 215.00 C 366.42 216.89 364.93 218.44 363.01 219.31 C 358.65 218.76 359.43 213.12 360.32 210.12 C 360.63 208.54 361.37 205.31 363.64 206.36 Z"/>
	
	<path d="M 279.42 207.48 C 280.25 209.93 281.93 213.45 280.87 215.98 C 280.10 218.17 276.45 218.62 275.27 216.74 C 274.78 214.93 276.58 215.10 277.64 214.13 C 277.38 212.29 276.58 210.88 276.89 208.99 C 277.35 207.75 277.99 206.82 279.42 207.48 Z"/>
	
	
	
	<path d="M 294.48 215.45 C 297.46 214.81 296.49 219.91 296.41 221.51 C 295.27 223.06 295.25 224.85 293.06 225.18 C 290.66 223.72 291.22 220.76 293.64 219.64 C 293.95 218.25 294.18 216.84 294.48 215.45 Z"/>
	
	<path d="M 281.49 221.42 C 282.28 221.04 283.02 221.01 283.70 221.33 C 285.74 224.51 283.31 226.61 284.85 229.98 C 284.49 233.12 282.97 236.48 280.58 238.58 C 278.67 241.12 278.94 245.04 274.88 245.26 C 274.18 246.26 274.41 247.57 273.63 248.64 C 272.22 249.21 271.26 249.01 270.59 250.57 C 269.28 251.25 268.28 251.48 267.71 252.99 C 268.11 254.59 270.36 256.57 271.89 256.89 C 272.77 256.10 273.27 254.44 274.72 255.28 C 275.20 256.21 275.69 257.13 276.18 258.04 C 275.85 259.80 274.23 261.75 276.93 262.21 C 276.40 264.00 274.95 266.00 273.28 263.83 C 273.25 262.91 273.06 262.05 272.72 261.27 C 271.63 261.25 270.53 261.37 269.42 261.60 C 268.00 262.36 268.92 263.63 267.86 264.70 C 266.14 267.21 264.21 269.36 263.45 272.41 C 263.00 274.36 260.75 275.35 259.12 274.85 C 258.57 274.03 258.35 273.06 258.45 271.92 L 259.69 270.66 C 262.06 269.91 264.35 267.01 264.41 264.63 C 261.40 264.39 263.09 264.22 262.09 262.07 C 259.65 261.85 259.46 263.92 258.57 265.59 C 257.83 267.55 254.73 268.36 253.50 266.55 C 253.18 265.15 253.09 262.88 254.96 262.68 C 256.80 262.85 257.31 261.45 258.94 260.87 C 260.04 260.35 261.44 258.23 262.83 258.95 C 262.69 262.24 264.59 260.24 265.31 262.88 C 266.27 263.15 267.86 260.20 267.80 259.31 C 264.41 259.45 263.99 256.61 263.64 253.94 C 264.93 252.11 266.35 250.43 267.55 248.53 C 269.42 246.97 269.88 245.77 270.53 243.45 C 271.72 242.72 272.92 242.69 274.22 242.39 C 275.84 240.06 276.75 237.07 278.90 234.99 C 280.60 233.41 283.00 230.23 282.10 227.85 L 280.43 227.45 C 278.56 225.78 281.50 223.59 281.49 221.42 Z"/>
	<path d="M 631.98 222.58 C 633.72 222.17 634.96 225.58 633.62 226.61 C 632.67 227.24 631.79 227.98 631.00 228.83 C 628.18 227.90 629.99 226.57 630.63 224.93 C 630.84 223.89 631.29 223.11 631.98 222.58 Z"/>
	
	
	
	
	
	
	
	
	
	<path d="M 300.51 231.46 C 301.22 232.48 301.57 233.27 301.50 234.51 C 300.14 235.35 299.24 234.77 298.39 233.62 C 298.70 232.63 299.25 231.18 300.51 231.46 Z"/>
	
	
	
	
	
	<path d="M 642.20 235.66 L 642.80 236.90 C 641.24 238.17 640.83 240.57 638.40 239.65 C 636.83 236.70 640.41 236.54 642.20 235.66 Z"/>
	
	<path d="M 325.74 239.23 C 328.00 243.04 325.27 248.96 325.62 252.97 C 325.62 254.72 322.74 255.53 323.03 253.02 C 323.93 250.04 324.49 247.08 324.96 244.01 C 324.73 243.43 324.18 242.99 323.31 242.70 C 323.10 241.69 324.32 238.67 325.74 239.23 Z"/>
	
	
	
	
	
	
	
	
	
	
	
	<path d="M 290.24 255.18 C 292.41 254.41 292.52 258.52 290.37 257.63 C 288.98 257.35 288.96 255.66 290.24 255.18 Z"/>
	
	
	
	
	
	<path d="M 649.95 258.91 C 651.35 260.18 649.06 261.35 648.32 262.37 C 647.08 263.25 645.33 263.21 646.07 261.23 C 647.21 259.86 648.15 259.13 649.95 258.91 Z"/>
	<path d="M 271.25 261.92 C 271.35 262.89 271.29 263.91 271.08 264.99 C 271.49 265.68 272.00 266.32 272.61 266.90 C 272.91 268.72 270.97 273.00 269.62 269.30 C 268.80 269.45 267.98 269.66 267.16 269.92 C 266.77 268.52 267.68 266.64 268.44 265.47 C 268.57 263.65 269.21 262.12 271.25 261.92 Z"/>
	<path d="M 369.00 261.65 C 370.31 263.27 370.64 264.43 372.79 265.19 C 373.37 266.25 375.50 267.59 374.90 268.86 C 372.30 267.84 370.87 269.91 369.51 267.50 C 368.97 266.14 367.59 265.45 367.30 264.05 C 367.21 262.43 367.77 261.63 369.00 261.65 Z"/>
	
	
	<path d="M 354.55 270.43 C 355.13 271.61 355.16 272.71 354.66 273.71 C 352.40 274.68 352.67 269.62 354.55 270.43 Z"/>
	<path d="M 281.38 271.41 C 282.55 270.55 285.06 270.99 283.90 272.71 C 282.00 273.26 281.84 276.08 279.92 275.59 C 278.32 273.90 279.80 272.26 281.38 271.41 Z"/>
	
	
	<path d="M 295.53 274.43 C 295.64 276.00 295.30 277.47 295.05 279.00 C 295.51 280.88 296.57 282.25 294.90 283.91 C 293.46 285.54 291.52 285.66 290.21 283.80 C 289.89 280.95 292.21 280.09 292.49 277.44 C 292.99 275.84 293.38 273.90 295.53 274.43 Z"/>
	<path d="M 302.27 276.30 C 305.80 275.10 303.88 282.62 301.17 280.82 C 300.28 279.41 300.80 277.10 302.27 276.30 Z"/>
	<path d="M 320.27 276.89 C 322.41 278.96 318.12 281.51 320.28 283.85 C 321.83 286.76 318.10 290.08 315.51 287.52 C 315.53 286.48 315.15 284.76 316.06 284.05 C 318.27 282.11 316.51 277.29 320.27 276.89 Z"/>
	<path d="M 714.51 319.48 C 716.26 317.69 719.23 318.56 720.50 320.46 C 721.46 322.76 721.53 325.56 721.24 328.00 C 722.10 335.13 720.33 341.89 721.61 348.99 C 722.12 351.74 721.09 354.27 721.53 357.01 C 721.85 359.27 721.10 361.20 719.04 362.31 C 717.34 362.13 717.23 363.33 716.01 363.55 C 714.14 362.79 712.46 363.82 710.60 363.27 C 709.76 362.55 708.72 362.28 707.47 362.45 C 703.28 360.63 699.36 355.80 700.25 351.00 C 699.22 345.54 700.69 340.24 702.08 335.00 C 702.65 332.52 704.56 331.82 706.35 330.34 C 708.13 328.38 712.07 330.61 713.77 328.81 C 714.11 325.83 712.90 322.15 714.51 319.48 Z M 718.46 323.43 C 718.50 326.48 718.06 329.45 718.33 332.49 C 717.92 334.01 717.00 335.40 717.40 337.01 C 718.13 340.04 717.64 342.98 717.75 346.02 C 718.75 349.95 718.44 353.51 718.47 357.55 C 717.98 358.33 717.29 358.70 716.38 358.66 C 715.74 352.21 716.77 347.79 716.19 342.00 C 716.68 339.72 716.33 337.21 717.25 335.07 C 716.72 334.39 716.45 333.69 716.47 332.97 C 716.42 329.74 716.47 326.54 716.34 323.32 C 717.28 322.12 717.79 321.78 718.46 323.43 Z M 710.78 332.19 C 710.54 333.61 708.69 334.62 708.26 336.04 C 707.66 338.21 707.51 340.40 706.60 342.50 C 706.27 346.18 706.35 349.84 706.59 353.51 C 706.95 355.26 708.44 356.79 708.58 358.57 C 706.14 359.49 704.94 355.58 703.65 354.15 C 702.53 348.73 702.21 343.34 703.88 337.98 C 704.50 334.85 707.15 331.21 710.78 332.19 Z M 713.03 333.66 L 713.73 334.12 C 714.07 337.44 713.72 340.69 713.61 344.00 C 714.07 349.22 713.44 354.44 713.49 359.60 C 711.67 360.25 711.26 355.68 710.43 354.58 C 707.83 350.95 709.43 348.03 709.57 343.98 C 710.57 339.85 708.91 336.32 713.03 333.66 Z"/>
	
	<path d="M 262.99 324.50 C 264.66 324.80 266.88 325.62 267.81 327.12 C 268.30 329.12 269.45 331.79 268.63 333.77 C 267.69 336.25 268.51 339.35 268.28 342.00 C 268.46 346.16 267.30 349.82 267.78 354.01 C 268.10 356.57 267.08 359.21 267.28 361.72 C 270.03 361.73 272.69 361.10 273.39 358.04 C 273.45 352.97 272.59 348.32 271.74 343.35 C 269.17 341.28 270.77 340.02 272.33 338.14 C 273.20 334.59 272.32 331.93 271.38 328.59 C 270.48 328.27 269.80 327.75 269.35 327.04 C 269.47 326.17 269.85 325.35 270.50 324.61 C 271.70 324.53 272.88 324.25 274.03 323.77 C 276.15 325.48 279.30 324.29 280.30 326.77 C 282.15 329.27 281.97 332.98 281.78 335.92 C 281.45 338.64 279.44 340.05 278.15 342.00 C 279.96 344.88 280.92 347.75 281.81 351.00 C 281.71 355.95 282.83 360.04 278.73 363.70 C 276.11 365.62 272.80 363.34 269.98 364.97 C 268.58 365.73 267.04 365.90 265.52 365.39 C 264.62 364.68 264.04 363.93 262.94 364.86 C 261.54 366.16 259.89 365.34 258.74 364.18 C 257.14 360.64 258.03 357.80 257.69 354.04 C 258.89 350.43 258.98 346.09 259.46 342.46 C 261.19 339.32 259.63 337.19 258.70 334.20 C 257.50 331.79 254.83 332.86 254.26 330.01 C 254.17 327.49 257.23 327.72 258.96 327.73 C 260.33 327.08 260.84 324.50 262.99 324.50 Z M 275.98 327.64 C 279.59 330.23 279.16 333.61 278.44 337.53 C 277.91 338.61 276.33 339.08 275.33 339.65 C 275.06 336.81 276.26 333.90 275.64 330.87 C 274.66 329.28 273.10 328.31 275.98 327.64 Z M 262.43 329.45 C 263.13 329.42 263.83 329.42 264.53 329.43 C 265.04 330.49 266.10 331.27 265.44 332.48 C 264.63 334.10 264.70 335.77 264.45 337.52 L 263.57 337.49 C 262.53 335.05 262.12 332.05 262.43 329.45 Z M 264.56 339.34 C 264.46 342.84 264.92 346.68 263.74 349.99 C 264.49 353.02 264.22 355.98 264.30 359.06 C 263.85 360.09 263.44 361.04 262.42 361.63 C 260.77 359.30 261.89 356.68 261.86 353.99 C 262.39 351.44 261.76 348.19 263.28 346.04 C 263.48 344.11 262.55 340.45 264.56 339.34 Z M 274.41 344.42 C 277.63 344.21 277.57 348.32 278.54 350.41 C 279.11 353.63 279.11 357.64 277.54 360.62 L 276.32 360.72 C 276.67 357.11 275.96 353.75 276.78 350.28 C 275.46 348.79 274.66 346.38 274.41 344.42 Z"/>
	<path d="M 656.44 324.51 C 658.10 324.29 659.87 324.44 661.54 324.51 C 661.61 325.20 661.61 325.88 661.55 326.55 C 660.49 327.45 659.54 328.47 658.50 329.39 C 657.54 329.33 656.58 329.33 655.63 329.37 C 655.23 327.64 654.51 325.60 656.44 324.51 Z"/>
	<path d="M 637.54 325.63 C 639.28 324.73 640.64 326.05 642.05 326.90 C 645.19 330.40 645.90 334.90 645.30 339.42 C 644.36 340.77 643.61 342.21 642.53 343.47 C 643.95 345.59 644.87 347.69 645.85 350.03 C 647.51 352.22 646.50 354.98 646.34 357.50 C 645.14 360.59 644.13 363.09 640.94 364.49 C 639.09 364.64 637.89 366.11 636.04 364.95 C 634.46 364.20 633.09 365.45 632.36 362.97 C 632.65 360.90 634.83 361.32 636.36 361.34 C 638.50 358.61 637.80 354.30 637.66 351.03 C 637.50 349.05 635.39 348.64 635.72 346.34 C 634.84 346.02 634.00 345.87 633.20 345.87 C 631.59 349.46 633.77 353.30 633.35 357.00 C 633.43 359.96 631.83 361.96 630.74 364.79 C 629.19 366.04 625.79 366.26 624.49 364.50 C 621.92 362.97 623.70 358.54 624.44 356.32 C 625.43 349.57 624.15 341.66 624.38 334.99 C 624.50 333.17 623.51 331.69 623.41 329.90 C 624.45 328.86 625.86 328.10 627.02 327.14 C 629.09 326.08 630.47 328.87 632.08 328.94 C 632.64 326.01 635.50 327.05 637.54 325.63 Z M 636.27 328.37 C 637.02 328.44 637.76 328.53 638.50 328.63 C 641.66 330.88 642.78 334.23 641.93 338.00 C 641.86 338.77 641.38 342.12 640.17 341.77 C 640.56 339.20 640.41 336.57 640.51 333.98 C 640.15 330.97 638.01 330.34 636.27 328.37 Z M 634.62 329.47 C 637.20 330.89 637.66 336.33 637.53 339.00 C 637.74 341.43 635.77 344.47 633.15 343.99 C 632.79 338.99 632.77 334.95 632.75 330.01 C 633.36 329.77 633.99 329.59 634.62 329.47 Z M 628.98 330.58 C 629.95 331.28 630.49 332.08 630.59 332.97 C 629.99 336.90 630.29 341.05 630.40 345.01 C 629.58 351.10 631.65 356.58 629.55 362.60 C 628.85 362.62 628.16 362.61 627.47 362.56 C 625.36 359.44 628.24 357.34 627.70 354.01 C 627.37 350.73 628.19 347.30 627.72 344.01 C 627.50 340.47 626.95 337.08 627.30 333.51 C 627.15 331.54 627.71 330.56 628.98 330.58 Z M 640.52 346.44 C 643.18 349.92 644.81 353.68 642.97 358.00 C 642.52 359.07 641.83 361.80 640.19 360.91 C 640.44 359.59 640.80 358.28 641.20 356.99 C 640.15 354.31 641.32 351.68 640.19 348.97 C 640.07 347.98 638.16 345.71 640.52 346.44 Z"/>
	
	<path d="M 368.02 327.80 C 371.82 329.62 371.92 335.00 371.53 338.56 C 369.41 339.47 362.32 340.83 363.50 336.41 C 361.30 335.53 360.92 338.25 358.44 337.57 C 357.95 341.84 358.96 346.57 358.50 351.02 C 360.02 354.37 360.96 359.68 358.10 362.57 C 356.57 362.69 355.03 362.65 353.50 362.62 C 351.80 363.49 350.07 363.62 348.42 362.57 C 347.36 360.55 348.46 358.73 349.74 357.14 C 349.52 350.15 349.78 342.99 349.29 335.95 C 348.47 334.59 347.00 334.22 346.46 332.58 C 346.77 331.18 347.29 329.65 349.04 330.66 C 352.77 333.36 351.57 339.91 352.51 343.99 C 352.09 346.36 352.20 348.62 352.35 351.00 C 352.37 353.24 351.73 356.74 352.96 358.74 C 353.85 359.00 354.73 359.24 355.59 359.46 C 357.80 358.10 356.59 353.49 355.36 351.70 C 355.46 349.68 355.41 347.95 354.79 346.00 C 356.13 343.12 354.76 340.92 354.71 338.00 C 354.34 336.50 355.65 335.70 355.80 334.26 C 354.62 333.42 353.08 333.76 351.81 333.05 C 349.97 331.42 352.38 329.54 354.08 329.49 C 354.90 330.13 355.69 330.81 356.45 331.53 C 357.89 331.78 359.17 330.02 360.47 329.51 C 362.78 328.79 365.60 327.28 368.02 327.80 Z M 366.51 331.62 C 367.82 332.74 368.83 334.08 367.75 335.79 C 365.17 336.06 367.80 332.78 364.54 332.32 C 363.87 330.78 365.65 331.79 366.51 331.62 Z"/>
	
	
	<path d="M 333.01 329.05 C 334.94 330.22 336.80 331.94 338.53 333.44 C 339.39 337.03 337.68 339.02 335.57 341.60 C 333.21 342.53 331.90 341.19 330.51 339.51 C 328.96 338.81 327.23 340.15 326.27 341.29 C 327.55 345.54 327.22 349.83 328.37 354.06 C 329.07 357.06 328.23 359.76 327.66 362.72 C 325.98 364.75 324.33 362.57 321.99 364.03 C 320.58 364.99 318.65 363.33 317.54 362.48 C 317.35 360.18 318.41 358.25 320.38 357.08 C 320.84 353.83 320.66 350.22 320.03 347.00 C 319.31 343.58 320.46 340.68 318.60 337.50 C 318.17 335.24 317.13 335.52 315.39 334.60 C 315.39 333.89 315.42 333.18 315.46 332.48 C 317.18 331.76 318.28 332.45 319.94 332.67 C 322.43 331.01 322.80 330.89 324.59 333.45 C 328.55 333.34 330.02 330.94 333.01 329.05 Z M 332.55 333.55 C 335.11 333.90 336.85 336.87 334.65 338.69 C 332.64 339.20 333.02 335.87 331.00 335.46 C 330.23 336.19 329.43 336.89 328.60 337.54 C 328.07 337.28 327.55 337.02 327.03 336.74 C 325.37 337.69 323.89 338.85 324.46 341.01 C 324.54 345.41 324.41 349.72 325.75 353.99 C 325.65 355.83 326.19 357.81 325.53 359.50 C 324.07 360.56 323.18 360.58 321.45 360.50 C 322.73 356.77 324.45 353.55 322.58 349.52 C 322.73 346.75 322.53 343.69 321.70 341.03 C 322.10 339.57 320.87 337.17 321.99 336.20 C 325.98 337.25 329.35 335.57 332.55 333.55 Z"/>
	
	<path d="M 691.94 329.35 C 694.10 329.89 695.03 332.95 696.44 334.50 C 697.22 336.46 695.38 338.82 694.46 340.48 C 692.90 342.73 689.64 341.66 688.68 339.31 C 687.22 339.70 685.29 339.04 684.56 340.50 C 684.34 341.72 685.68 342.71 685.54 344.03 C 685.88 349.65 684.95 355.53 685.94 361.01 C 685.62 364.14 683.66 364.15 681.02 363.73 C 678.72 362.85 676.78 364.04 674.53 363.52 C 674.51 362.86 674.52 362.21 674.54 361.56 C 675.35 360.86 676.80 360.25 676.58 358.97 C 676.32 355.45 677.76 352.52 677.39 349.00 C 677.71 343.72 678.26 338.82 675.63 334.00 C 676.37 332.72 677.51 331.64 678.54 330.58 C 681.48 329.81 682.26 331.95 685.02 331.66 C 687.18 331.56 689.50 329.07 691.94 329.35 Z M 690.01 332.53 C 691.18 332.51 692.32 334.19 693.16 334.90 C 694.28 336.16 693.89 338.08 692.02 338.37 C 691.27 337.59 690.62 336.70 690.06 335.69 C 688.39 335.19 687.89 337.18 686.01 336.72 C 683.06 336.60 681.43 337.97 681.75 341.04 C 683.09 343.61 683.68 347.17 683.14 350.01 C 682.13 353.12 683.59 356.09 683.00 359.00 C 683.04 361.12 680.55 360.31 679.48 359.52 C 679.20 358.69 679.13 357.88 679.27 357.09 C 680.33 351.99 679.29 346.67 680.48 341.51 C 680.92 339.53 678.47 335.72 680.12 334.18 C 682.20 334.16 683.89 335.16 686.02 334.53 C 687.74 334.45 688.59 333.06 690.01 332.53 Z"/>
	
	
	<path d="M 291.05 331.65 C 292.62 332.88 294.62 333.97 295.28 335.93 C 297.20 339.40 296.40 344.08 297.09 347.98 C 296.04 350.96 297.30 354.42 297.44 357.61 C 297.88 358.94 299.73 359.99 300.94 360.54 C 302.22 360.35 303.49 360.11 304.75 359.83 C 305.87 353.05 305.30 345.89 305.61 339.00 C 305.91 336.65 304.15 333.66 307.00 332.38 C 307.96 333.02 308.43 333.91 308.41 335.03 C 308.42 340.48 308.15 348.50 307.97 354.00 C 308.36 357.82 307.29 363.00 303.04 364.26 C 299.71 362.46 296.17 364.02 292.94 363.14 C 287.34 357.82 290.00 350.80 289.72 343.91 C 288.03 341.79 286.23 338.84 286.45 336.04 C 286.55 333.79 288.93 331.76 291.05 331.65 Z M 289.47 335.48 C 291.20 335.20 292.51 337.28 293.34 338.52 C 293.87 340.84 294.80 342.64 293.84 345.03 C 294.67 346.62 294.51 348.27 294.33 349.99 C 294.09 352.90 294.25 355.75 294.62 358.64 L 293.53 358.53 C 292.31 356.47 292.45 354.28 291.79 352.02 C 292.57 348.42 292.87 344.49 291.67 340.95 C 291.88 338.46 289.18 337.82 289.47 335.48 Z"/>
	<path d="M 657.50 332.69 C 659.90 332.89 661.96 331.31 663.60 333.37 C 665.96 339.30 665.32 345.02 665.14 351.21 C 665.45 351.83 665.84 352.42 666.32 352.98 C 665.83 355.78 665.89 357.05 668.45 358.58 C 669.38 362.59 665.57 361.27 665.33 364.40 C 663.36 364.60 662.46 363.23 660.51 363.41 C 657.47 359.61 657.46 355.64 657.80 350.99 C 657.91 348.54 658.55 346.34 657.56 343.99 C 658.53 341.55 658.18 338.85 657.69 336.28 C 656.09 335.52 655.83 333.51 657.50 332.69 Z M 661.54 336.36 C 661.59 337.89 661.57 339.57 662.15 340.99 C 662.87 343.77 662.11 346.26 662.33 349.00 C 661.93 352.73 663.43 355.99 663.63 359.63 C 662.77 359.88 662.12 359.76 661.68 359.26 C 660.44 356.10 660.17 352.30 661.06 349.00 C 660.36 345.94 660.82 342.81 660.69 339.53 L 661.31 337.93 C 660.97 336.83 659.43 336.04 661.54 336.36 Z"/>
	
	
	
	
	
	
	
	
	
	<path d="M 386.63 350.35 C 387.32 351.51 387.97 352.58 387.86 353.99 C 387.68 356.07 388.26 358.82 385.95 359.85 C 384.55 361.08 382.70 359.08 381.02 359.45 C 379.76 359.86 378.63 359.84 377.62 359.39 C 377.04 357.94 377.03 352.44 378.49 351.48 C 381.07 350.77 383.97 349.72 386.63 350.35 Z M 380.40 353.43 C 381.46 353.47 382.53 353.49 383.59 353.49 C 384.32 354.03 384.61 354.65 384.46 355.33 C 382.92 356.38 382.38 357.00 380.40 356.59 C 380.13 355.48 380.13 354.42 380.40 353.43 Z"/>
	
	<path d="M 740.56 353.43 C 741.21 354.21 741.78 355.05 742.27 355.96 C 741.97 357.59 741.51 358.02 742.36 359.58 C 741.37 360.11 740.41 360.74 739.44 361.31 C 737.49 361.22 735.58 361.49 733.64 361.47 C 733.24 359.47 731.52 357.47 731.40 355.48 C 734.79 354.25 736.68 352.47 740.56 353.43 Z"/>
</svg>