<?xml version="1.0" standalone="no"?>
<!DOCTYPE svg PUBLIC "-//W3C//DTD SVG 20010904//EN"
 "http://www.w3.org/TR/2001/REC-SVG-20010904/DTD/svg10.dtd">
<svg version="1.0" xmlns="http://www.w3.org/2000/svg"
 width="1000.000000pt" height="602.000000pt" viewBox="0 0 1000.000000 602.000000"
 preserveAspectRatio="xMidYMid meet">
<metadata>
Created by potrace 1.16, written by Peter Selinger 2001-2019
</metadata>
<g transform="translate(0.000000,602.000000) scale(0.100000,-0.100000)"
fill="#000000" stroke="none">
<path d="M3180 5814 c-8 -9 -64 -60 -125 -112 -167 -143 -267 -242 -261 -258
3 -8 2 -13 -2 -12 -13 4 -97 -55 -127 -89 -16 -19 -55 -60 -85 -91 -30 -31
-48 -52 -40 -47 25 14 93 67 130 102 19 18 40 33 47 33 7 0 24 17 38 37 14 21
25 34 25 30 0 -19 -140 -218 -193 -274 -17 -18 -39 -33 -48 -33 -10 0 -76 -48
-147 -107 -71 -60 -165 -135 -208 -168 -175 -134 -293 -239 -282 -250 3 -3 32
19 64 49 32 30 73 65 91 78 85 61 214 162 368 288 112 92 115 94 115 82 0 -6
-18 -30 -40 -54 -22 -24 -40 -46 -40 -50 0 -5 -8 -8 -17 -8 -18 0 -90 -53
-218 -160 -38 -32 -139 -113 -223 -180 -85 -67 -151 -124 -148 -127 5 -5 65
40 117 87 10 8 65 51 124 95 59 44 144 109 188 145 150 123 157 124 47 13 -34
-35 -66 -63 -72 -63 -5 0 -38 -24 -71 -53 -34 -30 -85 -71 -114 -93 -157 -118
-292 -226 -318 -254 -46 -50 -15 -29 214 150 117 91 217 167 223 169 6 2 -1
-12 -16 -32 -15 -20 -37 -39 -49 -43 -11 -3 -41 -25 -66 -49 -45 -41 -68 -60
-256 -204 -93 -72 -132 -108 -124 -116 3 -2 38 23 79 55 87 70 71 57 185 144
50 38 109 86 132 108 24 21 45 38 47 38 3 0 -1 -14 -8 -31 -7 -17 -41 -53 -77
-80 -35 -27 -75 -58 -89 -69 -64 -53 -162 -131 -227 -183 -40 -32 -73 -63 -73
-69 0 -6 7 -5 19 3 87 65 109 82 126 97 11 10 45 37 76 59 30 23 84 66 120 98
77 67 99 81 99 62 0 -15 -172 -155 -309 -252 -79 -57 -127 -103 -117 -112 12
-13 265 139 347 208 51 42 59 46 59 26 0 -8 -12 -19 -27 -26 -16 -7 -46 -26
-68 -43 -139 -104 -200 -147 -282 -201 -51 -33 -93 -66 -93 -73 0 -11 228 134
310 198 92 71 144 108 151 108 5 0 9 -15 9 -33 0 -26 -10 -42 -47 -78 -44 -42
-211 -178 -357 -289 -32 -24 -53 -46 -47 -48 6 -2 33 14 59 35 26 21 57 45 69
53 12 8 92 70 177 137 121 95 156 118 156 103 0 -11 -4 -20 -9 -20 -5 0 -16
-6 -23 -13 -56 -53 -188 -161 -302 -247 -76 -56 -135 -104 -132 -107 4 -5 24
9 145 95 25 18 57 40 71 50 14 9 39 28 55 42 17 14 44 34 59 45 16 11 52 41
80 67 52 49 70 58 64 35 -3 -13 -159 -143 -273 -227 -87 -64 -166 -132 -161
-138 5 -5 52 26 102 67 17 14 66 51 108 81 43 30 113 84 157 119 64 51 82 61
92 51 9 -10 9 -14 -1 -17 -17 -7 -75 -49 -260 -188 -87 -66 -180 -135 -205
-152 -26 -18 -47 -37 -47 -43 0 -6 20 4 45 22 25 18 60 42 78 53 45 28 113 77
230 165 167 126 174 131 182 112 3 -9 2 -18 -4 -20 -15 -5 -138 -99 -230 -176
-108 -91 -272 -216 -283 -216 -4 0 -8 -4 -8 -10 0 -17 119 58 215 136 158 127
311 247 322 251 7 3 13 -2 13 -11 0 -9 -6 -16 -14 -16 -16 0 -148 -103 -271
-210 -44 -39 -117 -100 -162 -138 -76 -62 -95 -82 -75 -82 7 0 273 213 435
348 42 34 82 62 91 62 23 0 30 -19 9 -27 -10 -4 -62 -43 -117 -87 -102 -84
-246 -198 -280 -222 -11 -7 -17 -16 -15 -19 6 -5 33 14 188 129 107 79 127 94
192 154 49 44 59 50 59 30 0 -7 -35 -38 -76 -68 -42 -30 -111 -84 -154 -120
-181 -151 -265 -224 -268 -232 -7 -17 15 -7 45 20 68 60 316 257 410 326 29
21 58 36 65 34 11 -4 -79 -81 -233 -200 -41 -31 -83 -65 -94 -75 -11 -11 -45
-36 -75 -57 -33 -22 -45 -35 -30 -30 36 10 139 84 372 265 69 53 98 65 98 40
0 -4 -33 -30 -72 -57 -40 -27 -77 -54 -83 -60 -9 -10 -149 -122 -240 -192 -74
-56 -72 -54 -50 -47 20 6 55 31 168 118 34 26 80 61 102 77 22 17 73 56 114
87 55 42 75 53 81 42 6 -9 -5 -22 -40 -44 -82 -51 -450 -322 -450 -332 0 -7
65 34 170 108 52 37 116 83 143 101 26 18 77 54 113 80 69 50 94 58 94 33 0
-8 -4 -15 -9 -15 -11 0 -232 -160 -363 -262 -53 -42 -102 -78 -110 -81 -7 -2
-10 -7 -7 -11 7 -7 31 8 119 72 25 18 54 40 65 48 89 64 151 109 155 114 19
22 164 109 173 103 7 -4 2 -12 -13 -22 -13 -9 -58 -43 -100 -76 -41 -33 -95
-75 -120 -93 -135 -99 -231 -175 -227 -178 5 -5 350 240 420 298 33 28 52 38
65 33 16 -7 16 -8 -2 -18 -102 -64 -109 -69 -231 -166 -97 -77 -207 -181 -191
-181 4 0 42 30 85 68 91 79 202 163 308 236 75 50 68 22 -8 -36 -41 -31 -81
-63 -90 -71 -9 -8 -49 -39 -90 -69 -75 -56 -177 -146 -149 -132 23 11 164 115
175 128 6 7 42 34 80 61 39 26 87 62 107 78 20 16 42 27 49 25 7 -2 -2 -14
-22 -28 -19 -13 -59 -45 -89 -70 -55 -47 -155 -121 -264 -198 -33 -23 -54 -42
-47 -42 13 0 138 81 216 139 22 17 51 38 65 48 14 10 54 41 89 70 36 29 71 53
77 53 30 0 20 -19 -26 -49 -27 -18 -118 -93 -202 -168 -188 -166 -206 -183
-191 -183 9 0 167 128 354 288 52 44 93 71 101 65 7 -3 5 -9 -4 -14 -9 -5 -30
-22 -48 -39 -108 -101 -222 -201 -267 -235 -62 -46 -68 -56 -15 -24 27 17 33
18 23 6 -7 -9 -9 -17 -3 -17 12 0 33 25 26 32 -4 5 52 53 84 72 29 17 8 -5
-33 -35 -25 -18 -43 -34 -40 -37 5 -5 103 66 229 165 44 34 82 60 84 58 3 -3
-8 -15 -24 -27 -16 -13 -38 -32 -50 -43 -11 -11 -40 -36 -65 -55 -24 -19 -49
-39 -56 -45 -6 -5 -50 -37 -97 -70 -47 -33 -86 -64 -86 -68 0 -17 314 207 359
257 14 14 30 26 38 26 18 0 16 -13 -4 -26 -10 -6 -65 -51 -123 -100 -58 -49
-136 -111 -173 -138 -58 -42 -80 -66 -62 -66 5 0 192 137 211 155 6 5 28 24
50 40 21 17 56 45 77 63 22 18 44 31 50 29 20 -6 18 -25 -3 -32 -12 -4 -54
-35 -93 -69 -40 -34 -123 -102 -185 -150 -62 -49 -110 -91 -108 -94 3 -3 14 1
25 9 44 31 248 190 281 219 49 42 52 45 82 64 26 17 48 15 48 -5 0 -5 -5 -9
-11 -9 -6 0 -36 -22 -68 -50 -58 -51 -182 -141 -283 -207 -32 -21 -58 -42 -58
-46 0 -5 12 0 28 11 15 10 32 21 37 23 28 11 221 147 290 205 44 36 81 60 83
54 6 -17 -31 -53 -162 -153 -170 -131 -249 -197 -238 -197 16 0 345 245 381
284 23 25 51 35 51 18 0 -4 -8 -12 -19 -19 -10 -6 -74 -60 -141 -120 -68 -59
-147 -127 -176 -151 -30 -24 -54 -46 -54 -48 0 -14 75 42 229 171 151 126 176
144 189 132 12 -13 11 -20 -10 -56 -12 -22 -28 -41 -33 -41 -6 0 -51 -35 -101
-77 -50 -43 -117 -98 -149 -123 -32 -25 -72 -58 -89 -73 -94 -85 161 98 287
205 36 31 57 44 57 34 0 -8 -25 -34 -56 -58 -86 -66 -294 -239 -294 -244 0 -8
52 30 175 126 143 112 175 134 183 126 3 -4 -9 -19 -28 -34 -19 -15 -42 -34
-51 -43 -9 -9 -59 -51 -113 -94 -53 -43 -94 -80 -92 -82 3 -3 63 40 134 95
147 113 168 127 177 112 3 -5 1 -10 -6 -10 -13 0 -272 -207 -278 -222 -4 -13
27 4 54 29 11 10 47 38 80 62 33 25 62 47 65 51 13 16 101 73 105 68 3 -3 -22
-26 -57 -51 -101 -74 -291 -231 -296 -245 -4 -12 27 9 127 87 19 14 39 31 45
36 26 24 204 155 210 155 3 0 6 -7 6 -15 0 -8 -4 -15 -8 -15 -4 0 -69 -51
-144 -112 -75 -62 -153 -126 -173 -141 -20 -16 -34 -31 -31 -34 4 -5 229 165
341 258 32 27 65 49 73 49 7 0 10 4 7 10 -3 6 -16 10 -28 10 -37 0 -93 62
-101 111 -6 36 -2 49 24 93 37 61 108 144 90 106 -10 -20 -6 -18 19 10 16 19
28 41 26 47 -2 7 1 12 7 10 7 -1 13 7 14 18 1 11 5 29 9 40 l7 20 -16 -20
c-35 -45 -102 -129 -121 -152 l-21 -25 -54 72 c-79 103 -134 184 -159 233 -12
24 -40 66 -62 93 -21 27 -51 69 -66 93 -16 24 -46 71 -67 105 -92 144 -138
238 -132 268 5 23 0 34 -21 54 -23 21 -27 35 -34 117 -9 107 -4 166 22 258 18
62 63 139 96 166 8 6 26 26 39 44 13 18 66 76 117 129 127 130 265 302 394
492 13 18 34 56 47 83 34 71 132 170 198 199 74 32 145 40 191 21 40 -16 101
-92 137 -169 12 -25 25 -46 29 -46 4 0 18 -23 30 -50 12 -28 46 -80 74 -118
29 -37 77 -101 106 -142 62 -85 99 -127 190 -214 35 -34 89 -95 119 -136 31
-41 68 -89 83 -107 15 -18 47 -72 70 -120 41 -84 43 -92 42 -173 -2 -107 -40
-217 -130 -370 -39 -67 -239 -362 -343 -507 -25 -34 -72 -100 -105 -147 -33
-47 -62 -86 -65 -86 -3 1 -27 32 -55 70 -27 38 -53 69 -57 69 -19 2 -4 -29 40
-84 131 -164 152 -208 131 -273 -6 -20 -23 -50 -38 -65 -22 -24 -32 -28 -62
-24 -27 4 -38 0 -47 -14 -6 -10 -21 -23 -32 -29 -30 -16 -27 14 5 46 l25 25
-36 147 c-39 159 -58 214 -50 148 3 -22 2 -45 -3 -50 -12 -15 4 -135 19 -150
10 -8 11 -6 6 14 -9 34 -20 146 -13 140 5 -5 42 -154 52 -211 7 -40 -8 -36
-29 7 -9 20 -19 34 -23 31 -3 -4 4 -25 16 -49 20 -41 20 -43 2 -63 -30 -33
-101 -170 -101 -196 0 -13 -9 -42 -19 -64 -10 -22 -16 -46 -14 -52 5 -14 -34
-321 -47 -373 -5 -19 -11 -105 -15 -190 -6 -167 -10 -218 -26 -378 -5 -56 -7
-107 -4 -112 9 -15 -18 -50 -38 -50 -11 0 -24 14 -35 38 -15 33 -17 90 -18
557 0 286 -4 543 -8 570 -4 28 -26 88 -48 135 -23 47 -47 100 -55 118 -13 31
-41 47 -29 17 3 -8 2 -15 -2 -15 -9 0 -33 -19 -159 -122 -51 -42 -110 -90
-131 -105 -20 -15 -39 -30 -42 -33 -3 -3 -29 -23 -58 -44 -29 -21 -51 -41 -48
-43 4 -4 222 152 286 204 79 65 156 123 162 123 16 0 7 -20 -14 -31 -55 -28
-385 -297 -367 -299 6 0 156 113 312 235 59 47 108 74 77 43 -13 -13 -202
-176 -355 -307 -32 -26 -34 -30 -10 -16 27 16 102 73 131 100 6 5 28 24 49 40
21 17 77 62 124 102 76 64 101 78 101 55 0 -4 -15 -16 -32 -27 -18 -10 -53
-37 -78 -60 -25 -23 -94 -86 -155 -140 -242 -216 -149 -153 143 98 109 92 132
108 132 88 0 -11 -199 -203 -253 -243 -23 -17 -34 -28 -24 -25 31 11 18 -2
-70 -68 -112 -85 -95 -84 22 1 50 36 101 73 115 82 29 19 142 108 185 146 17
14 37 26 45 26 9 0 5 -7 -10 -17 -14 -10 -52 -39 -85 -66 -33 -27 -100 -82
-150 -122 -49 -40 -103 -88 -120 -106 l-30 -33 35 27 c19 15 77 60 129 100 51
39 127 98 168 130 41 32 77 56 81 53 3 -4 -3 -13 -14 -20 -10 -8 -35 -28 -54
-45 -19 -18 -80 -67 -135 -110 -55 -43 -120 -97 -145 -121 l-45 -41 40 28 c22
15 84 63 139 105 102 79 139 97 69 35 -58 -53 -261 -215 -284 -228 -12 -6 -18
-13 -15 -16 7 -7 317 226 356 267 22 23 93 71 98 66 7 -8 6 -9 -148 -137 -69
-58 -162 -131 -207 -162 -46 -32 -83 -61 -83 -63 0 -13 188 119 322 226 61 50
115 90 120 90 15 0 8 -19 -12 -33 -11 -8 -40 -32 -63 -53 -85 -78 -183 -161
-234 -198 -29 -21 -53 -40 -53 -43 0 -16 95 56 341 255 21 17 29 19 29 9 0 -7
-24 -30 -53 -50 -29 -20 -61 -44 -72 -54 -11 -10 -40 -34 -65 -53 -25 -19 -58
-47 -75 -63 -16 -15 -45 -37 -62 -50 -18 -12 -35 -28 -38 -35 -5 -15 73 38
125 83 56 51 221 175 231 175 21 0 7 -27 -23 -44 -41 -25 -352 -259 -403 -304
-43 -38 -61 -66 -28 -42 12 8 83 62 159 119 254 191 296 222 300 218 14 -13
-26 -52 -180 -174 -94 -75 -173 -138 -175 -140 -2 -2 -2 -5 0 -7 5 -6 262 184
304 225 34 32 45 36 45 15 0 -7 -18 -25 -39 -39 -44 -29 -315 -249 -346 -280
l-20 -21 22 15 c23 15 85 62 228 174 143 112 155 120 155 98 0 -10 -16 -29
-34 -43 -159 -120 -266 -202 -266 -206 0 -7 16 3 75 45 103 72 200 146 203
153 6 13 22 9 22 -4 -1 -7 -20 -25 -43 -40 -43 -27 -228 -168 -282 -214 -30
-26 107 66 245 163 41 29 77 48 79 42 1 -5 1 -11 0 -13 -2 -1 -53 -38 -114
-83 -60 -44 -138 -99 -172 -123 -35 -23 -63 -44 -63 -46 0 -6 17 3 55 31 17
11 55 36 85 54 30 18 87 57 126 87 39 30 74 54 78 54 3 0 6 -9 6 -19 0 -13
-18 -30 -52 -49 -48 -28 -206 -147 -304 -230 -33 -28 -30 -27 21 8 33 22 118
83 188 135 71 52 133 95 138 95 19 0 8 -29 -13 -35 -13 -4 -36 -20 -53 -35
-16 -15 -79 -67 -140 -115 -118 -95 -139 -113 -115 -100 26 14 222 157 271
197 46 37 69 47 69 29 0 -8 -84 -72 -265 -199 -41 -30 -75 -56 -75 -58 0 -5
36 18 207 133 108 73 123 80 123 60 -1 -15 -24 -40 -76 -82 -160 -127 -234
-189 -230 -193 3 -2 42 25 88 60 46 35 97 72 113 83 17 10 44 31 60 47 36 34
45 35 44 6 0 -18 -13 -29 -57 -50 -37 -18 -83 -54 -132 -103 -41 -41 -72 -75
-68 -75 4 0 14 8 24 17 9 9 53 47 96 84 84 71 138 100 138 74 0 -12 -31 -37
-170 -138 l-25 -18 25 12 c14 7 55 32 93 56 37 24 69 43 72 43 19 0 -7 -25
-80 -79 -47 -35 -85 -65 -85 -67 0 -3 102 61 148 93 21 14 22 14 22 -4 0 -13
-23 -38 -62 -68 -104 -80 -103 -86 1 -13 30 21 56 36 58 34 2 -2 6 -14 8 -27
18 -92 18 -88 -7 -98 -23 -9 -58 -41 -44 -41 4 0 19 9 34 20 26 19 31 20 56 7
37 -20 66 -10 78 24 5 16 17 29 26 29 10 0 62 37 117 81 55 44 123 95 150 114
28 19 62 46 75 62 l25 27 -30 -19 c-16 -10 -59 -41 -95 -69 -78 -62 -173 -133
-217 -163 -24 -16 -33 -18 -37 -8 -3 8 12 25 37 41 92 61 357 289 357 307 0 6
-15 -3 -32 -19 -69 -64 -290 -246 -323 -265 -30 -18 -35 -19 -35 -5 0 27 187
183 347 289 51 34 90 63 89 65 -8 7 -167 -97 -256 -168 -24 -19 -53 -42 -64
-50 -11 -8 -38 -32 -61 -52 -48 -44 -55 -46 -55 -18 0 11 6 20 14 20 8 0 48
27 88 60 40 32 105 85 144 117 39 32 84 68 100 81 26 20 27 21 4 11 -26 -13
-124 -86 -245 -185 -38 -31 -75 -61 -82 -66 -25 -20 -22 12 4 37 38 36 320
255 328 255 3 0 23 12 43 27 20 15 39 28 41 30 2 2 2 5 -1 8 -4 5 -144 -84
-183 -116 -63 -53 -236 -189 -240 -189 -3 0 -5 6 -5 14 0 7 33 40 73 72 39 33
74 61 77 64 3 3 39 30 80 62 41 31 89 69 105 84 l30 27 -30 -18 c-39 -24 -218
-158 -276 -206 -41 -34 -59 -40 -59 -19 0 3 28 24 63 47 34 23 74 52 89 65 60
52 227 178 235 178 5 0 20 11 33 25 13 14 20 25 17 25 -11 0 -178 -121 -383
-278 -32 -25 -44 -30 -44 -18 0 8 10 21 23 27 12 6 56 41 97 78 139 123 218
188 299 248 2 2 1 6 -2 9 -4 4 -26 -9 -50 -29 -24 -20 -66 -53 -93 -73 -27
-20 -97 -79 -156 -131 -59 -51 -109 -93 -113 -93 -3 0 -5 10 -4 23 0 16 37 51
141 132 77 61 152 120 167 133 64 56 -84 -46 -224 -155 -38 -29 -73 -53 -79
-53 -13 1 21 32 192 180 67 58 122 110 122 116 0 7 6 11 13 10 6 0 13 4 15 9
2 6 11 18 19 28 24 25 7 21 -33 -9 -18 -14 -31 -31 -27 -37 3 -6 1 -7 -6 -3
-13 9 -68 -23 -97 -55 -18 -22 -18 -21 13 1 18 13 35 22 37 19 7 -7 -26 -42
-69 -74 -22 -16 -70 -56 -107 -88 l-68 -59 0 30 c0 26 13 43 80 103 77 70 210
174 233 182 7 2 9 7 6 11 -12 13 -222 -144 -282 -211 -25 -28 -37 -29 -37 -4
0 34 209 208 352 293 69 41 95 70 36 40 -59 -31 -263 -170 -278 -191 -15 -20
-92 -72 -98 -66 -4 3 2 13 13 21 11 8 44 36 73 61 29 26 117 93 194 148 78 56
144 107 146 115 4 12 2 12 -15 0 -12 -8 -70 -49 -130 -91 -59 -42 -144 -106
-188 -142 -62 -51 -81 -62 -84 -49 -2 9 5 21 14 27 10 5 48 35 84 65 90 75
240 193 274 215 15 9 27 22 27 27 0 16 -199 -131 -332 -245 -56 -47 -58 -48
-58 -24 0 21 26 45 153 139 83 63 175 130 202 148 55 38 93 70 82 70 -4 0 -49
-28 -99 -62 -50 -35 -100 -69 -112 -77 -11 -8 -40 -30 -63 -48 -23 -18 -46
-33 -51 -33 -5 0 -17 -9 -28 -21 -10 -12 -31 -30 -46 -41 -22 -15 -28 -16 -28
-5 0 20 311 253 402 302 46 24 65 42 55 51 -7 7 -214 -133 -361 -243 -38 -29
-73 -53 -78 -53 -17 0 -7 27 15 37 12 6 54 36 92 68 72 59 145 112 244 177 31
20 65 44 76 52 20 15 20 15 -3 13 -13 -2 -27 -8 -30 -14 -4 -5 -54 -40 -112
-78 -58 -37 -107 -71 -110 -74 -3 -4 -23 -20 -45 -36 -22 -16 -58 -45 -79 -64
-29 -25 -41 -31 -44 -21 -3 8 3 19 13 25 10 5 52 35 94 66 224 164 329 238
357 252 27 14 51 44 42 52 -3 3 -170 -115 -370 -260 -64 -47 -121 -85 -127
-85 -6 0 -11 9 -11 20 0 12 5 17 13 14 8 -3 38 15 68 39 30 23 95 72 144 107
50 35 110 80 135 100 25 20 55 42 66 50 66 46 134 102 134 112 0 6 -7 5 -19
-3 -10 -8 -101 -76 -202 -151 -101 -75 -201 -150 -222 -165 -21 -15 -54 -41
-73 -57 -18 -15 -34 -23 -34 -17 0 15 55 62 198 168 41 30 71 57 68 60 -2 3
-56 -33 -118 -80 -62 -47 -114 -84 -115 -83 -7 7 12 46 22 46 7 0 48 26 91 58
44 33 94 66 111 76 18 9 40 30 48 46 9 17 20 30 25 30 5 0 69 45 142 100 73
55 139 100 145 100 7 0 34 16 60 36 61 46 63 48 35 39 -32 -10 -71 -35 -234
-152 -78 -57 -144 -100 -147 -97 -3 3 3 12 14 19 11 8 35 24 53 37 19 13 66
48 105 79 105 81 198 144 234 158 35 14 60 38 50 48 -8 7 -239 -145 -354 -234
-45 -35 -86 -63 -92 -63 -22 0 -10 17 32 47 23 17 67 50 97 74 30 23 97 73
149 111 104 76 113 93 11 23 -36 -25 -74 -51 -84 -58 -20 -12 -181 -131 -203
-149 -8 -7 -13 -7 -13 -1 0 6 48 48 107 94 58 46 129 102 157 125 28 22 73 53
99 68 26 15 50 33 53 38 14 23 -221 -131 -321 -209 -6 -4 -18 -14 -28 -22 -10
-8 -20 -12 -22 -9 -3 3 30 32 72 66 43 33 94 75 113 92 19 17 75 59 124 93 94
66 119 87 113 93 -4 5 -145 -89 -211 -141 -99 -77 -243 -191 -260 -207 -25
-23 -32 -23 -50 3 -13 19 -13 24 1 45 8 13 21 24 28 24 11 0 39 20 120 89 11
9 38 30 60 46 22 17 54 42 71 58 17 15 82 65 145 112 63 46 126 93 141 105 14
11 33 20 41 20 7 0 22 9 32 20 12 13 14 20 6 20 -15 0 -40 -16 -256 -169 -27
-19 -72 -53 -100 -76 -27 -22 -54 -43 -60 -47 -5 -4 -44 -36 -85 -70 -94 -80
-110 -90 -81 -50 12 17 46 47 74 67 29 19 83 61 121 95 38 33 75 60 82 60 7 0
17 6 21 14 11 18 194 156 208 156 6 0 20 8 31 18 10 10 30 25 44 35 13 9 19
17 12 17 -10 0 -186 -115 -258 -169 -12 -9 -32 -23 -44 -31 -20 -14 -133 -102
-202 -158 -15 -13 -28 -19 -28 -14 0 12 47 62 58 62 5 0 53 39 108 86 105 91
293 230 330 244 12 5 25 14 29 20 9 15 -64 -22 -117 -60 -24 -17 -53 -38 -66
-47 -12 -8 -25 -13 -28 -10 -3 3 11 17 33 31 73 50 186 136 177 136 -8 0 -263
-176 -274 -189 -17 -21 -83 -62 -93 -58 -7 3 -4 8 8 13 11 4 67 44 124 88 128
99 219 166 289 212 28 19 52 39 52 45 0 12 -36 -10 -115 -71 -33 -25 -96 -71
-140 -103 -44 -31 -101 -72 -127 -92 -27 -19 -48 -31 -48 -26 0 17 301 249
428 330 45 29 82 57 82 62 0 12 -38 -7 -66 -33 -12 -11 -36 -27 -53 -36 -42
-23 -212 -147 -280 -204 -30 -26 -57 -45 -59 -43 -5 5 40 65 49 65 6 0 120 82
169 121 14 12 81 58 150 104 69 45 132 91 140 101 14 16 12 16 -15 -2 -31 -19
-174 -116 -323 -217 -45 -32 -85 -57 -87 -57 -15 0 -1 17 23 28 15 6 61 39
102 73 121 98 220 170 299 219 79 48 114 88 45 51 -44 -23 -64 -38 -286 -204
-87 -64 -158 -115 -158 -112 0 17 37 58 64 69 17 8 42 25 56 39 14 13 73 62
130 108 58 46 120 98 139 114 145 126 169 150 158 161 -9 9 -36 -8 -42 -26 -3
-11 -36 -41 -72 -67 -101 -73 -105 -71 -20 9 86 81 104 112 30 51 -27 -22 -78
-61 -116 -88 -52 -38 -66 -53 -61 -67 3 -11 0 -25 -6 -33 -17 -21 -1 -19 24 2
14 12 13 9 -4 -10 -13 -16 -26 -23 -28 -18 -6 19 -17 13 -87 -49 -65 -58 -95
-75 -78 -46 4 7 43 41 85 75 82 66 97 81 77 81 -6 0 -38 -23 -71 -51 -32 -29
-62 -49 -65 -45 -16 16 302 270 402 320 56 29 99 66 75 66 -18 0 -244 -154
-315 -215 -102 -88 -135 -110 -135 -91 0 9 6 16 13 16 13 0 179 129 242 188
22 21 69 60 104 88 91 70 101 81 101 109 l0 26 -27 -19 c-16 -10 -57 -38 -92
-62 -36 -24 -112 -82 -170 -128 -58 -47 -111 -87 -118 -89 -7 -3 -15 -14 -19
-25 -4 -12 -10 -16 -15 -11 -10 10 -2 43 10 43 8 0 38 25 138 111 29 26 95 80
147 120 96 75 122 105 64 72 -39 -22 -40 -22 -166 -125 -172 -139 -184 -148
-193 -148 -19 0 -7 19 24 37 17 11 84 64 147 118 103 88 193 158 246 192 15 9
16 12 4 12 -13 1 -50 -25 -225 -159 -18 -14 -62 -50 -97 -81 -65 -58 -113 -90
-107 -70 4 10 244 209 362 300 31 24 57 48 57 53 0 6 -17 -2 -37 -17 -47 -35
-176 -137 -183 -145 -3 -3 -21 -17 -40 -31 -19 -15 -52 -43 -73 -63 -21 -20
-42 -36 -46 -36 -5 0 -14 -7 -21 -15 -7 -8 -17 -12 -22 -9 -5 4 5 19 24 34 18
15 45 38 59 51 38 35 132 110 227 180 84 63 98 76 89 86 -3 2 -41 -24 -84 -59
-43 -35 -118 -95 -168 -133 -49 -38 -103 -82 -120 -97 -29 -27 -55 -36 -55
-20 0 4 17 18 37 32 87 59 313 283 313 311 0 6 -46 -36 -102 -93 -171 -172
-252 -238 -269 -221 -7 7 -1 18 17 32 72 57 314 301 298 301 -6 0 -80 -65
-163 -145 -84 -80 -156 -145 -162 -145 -27 0 9 40 171 190 98 91 174 167 169
168 -10 4 -121 -93 -270 -235 -75 -73 -109 -97 -109 -77 0 3 28 33 63 67 118
117 277 290 272 295 -3 3 -16 -5 -30 -18 -14 -13 -25 -19 -25 -14 0 5 17 23
37 41 21 18 32 32 24 33 -7 0 -46 -32 -87 -72 -41 -39 -74 -68 -74 -64 0 5 27
39 61 77 93 105 57 83 -56 -34 -55 -57 -86 -87 -69 -68 86 101 98 121 69 121
-8 0 -15 -5 -15 -10 0 -6 -24 -36 -52 -68 -29 -32 -79 -91 -111 -131 -32 -40
-61 -70 -64 -67 -8 8 59 93 161 205 47 52 86 103 86 113 0 24 -15 23 -26 -2
-5 -11 -50 -64 -101 -118 -50 -53 -100 -108 -112 -122 -11 -14 -20 -20 -21
-13 0 14 51 77 143 173 108 113 120 128 112 140 -4 6 -25 -10 -53 -42 -26 -29
-80 -86 -121 -128 -40 -41 -85 -90 -99 -108 -14 -18 -27 -31 -29 -28 -3 2 9
19 25 38 16 18 67 76 112 128 46 52 107 121 137 152 32 35 53 65 53 80 l0 23
-23 -25 c-81 -88 -239 -264 -278 -309 -30 -36 -50 -51 -59 -46 -7 4 -8 10 -2
14 5 3 32 33 60 66 27 33 91 103 141 155 50 52 91 98 91 102 0 18 -20 5 -67
-44 -28 -29 -63 -64 -79 -79 -16 -14 -62 -61 -101 -104 -40 -43 -73 -73 -73
-66 0 7 83 95 185 196 102 101 185 187 185 192 0 22 -26 63 -37 58 -7 -2 -15
0 -18 5 -3 5 -27 -12 -53 -38 -26 -27 -64 -61 -84 -78 -20 -16 -65 -53 -100
-83 -39 -34 -18 -9 57 67 113 114 142 150 117 141 -14 -5 -159 -137 -282 -256
-52 -51 -96 -90 -99 -87 -6 5 376 384 388 384 13 0 22 28 11 35 -5 3 -46 -27
-92 -67 -76 -66 -81 -66 -21 1 27 30 57 111 42 111 -11 0 -89 -59 -122 -92
-10 -10 -21 -18 -25 -18 -3 0 15 22 41 48 26 26 47 51 47 55 0 25 -118 -76
-327 -280 -30 -29 -56 -47 -59 -41 -4 5 6 22 22 37 71 68 195 181 263 241 92
81 131 121 131 138 0 23 -17 12 -65 -43 -26 -30 -55 -57 -64 -60 -10 -4 -6 4
9 22 52 57 63 73 52 73 -7 0 -24 -14 -39 -31 -16 -18 -68 -64 -118 -104 -49
-40 -121 -102 -160 -139 -38 -36 -73 -66 -77 -66 -19 0 -5 21 31 47 60 44 256
219 301 270 71 81 43 79 -42 -3 -46 -43 -121 -113 -167 -154 -47 -41 -96 -85
-109 -97 -24 -23 -52 -30 -52 -15 0 4 28 32 62 62 34 30 99 89 143 130 44 41
98 91 120 111 49 43 86 86 65 74 -14 -9 -80 -61 -185 -148 -27 -23 -89 -77
-138 -121 -48 -43 -91 -75 -95 -72 -3 4 6 17 20 29 30 25 283 246 337 294 20
17 33 35 28 39 -4 4 -22 -6 -40 -23 -17 -17 -88 -77 -157 -135 -69 -57 -143
-121 -165 -141 -22 -20 -42 -32 -43 -27 -2 6 20 32 49 58 29 26 60 54 69 62 8
8 27 25 42 36 15 12 64 55 109 95 44 41 87 78 95 82 13 8 20 37 8 37 -3 0 -36
-27 -72 -59 -252 -223 -321 -279 -325 -267 -3 7 18 31 47 54 193 155 262 214
265 224 3 9 -3 8 -17 -2 -36 -26 -217 -164 -222 -170 -3 -3 -25 -21 -49 -40
-63 -49 -47 -19 20 37 235 198 277 238 266 249 -3 4 -37 -21 -74 -54 -130
-115 -266 -221 -277 -215 -5 4 1 13 14 22 36 23 147 117 213 180 89 85 67 92
-25 9 -120 -108 -197 -168 -214 -168 -9 0 22 28 68 62 98 74 156 126 170 151
19 36 -1 28 -49 -20 -26 -27 -74 -68 -105 -91 -31 -23 -59 -46 -63 -52 -3 -5
-18 -10 -33 -10 l-27 0 26 18 c14 9 34 26 45 37 11 11 42 38 69 60 82 66 121
104 108 105 -10 0 -160 -115 -245 -187 -9 -8 -19 -10 -22 -5 -3 5 46 51 109
103 63 51 115 100 114 109 0 10 -2 11 -6 3 -2 -7 -11 -13 -19 -13 -8 0 -17 -7
-20 -15 -4 -8 -12 -15 -19 -15 -7 0 -15 -3 -17 -7 -6 -14 -156 -133 -167 -133
-22 0 -10 19 32 51 57 45 130 110 140 126 18 29 -16 10 -71 -40 -80 -73 -131
-111 -140 -103 -4 4 0 13 9 19 63 48 125 114 116 124 -4 3 -38 -24 -76 -60
-38 -37 -74 -67 -80 -67 -25 0 -7 27 45 68 30 24 54 49 54 57 0 8 -1 15 -2 15
-2 0 -32 -27 -68 -60 -36 -33 -74 -60 -85 -60 -15 0 -4 15 45 59 36 33 62 63
58 67 -6 5 -68 -42 -152 -118 -11 -10 -25 -18 -30 -18 -6 0 20 28 58 63 38 34
67 69 65 76 -4 10 -8 9 -19 -5z m567 -440 c-38 -36 -71 -63 -75 -60 -3 4 12
21 33 39 22 17 53 44 70 59 59 53 39 27 -28 -38z m115 -66 c-176 -171 -212
-211 -212 -232 0 -15 -3 -17 -11 -9 -9 9 -6 19 9 40 30 41 307 313 319 313 6
0 -41 -51 -105 -112z m193 -65 c-39 -36 -123 -117 -187 -180 -65 -63 -118
-110 -118 -104 0 22 90 113 270 274 110 98 138 107 35 10z m-403 45 c-7 -7
-12 -8 -12 -2 0 14 12 26 19 19 2 -3 -1 -11 -7 -17z m-22 -11 c0 -2 -17 -19
-37 -38 l-38 -34 34 38 c33 34 41 42 41 34z m99 -39 c-2 -2 -17 -14 -34 -28
l-30 -25 29 32 c16 18 32 31 34 28 3 -3 3 -6 1 -7z m361 -12 c0 -3 -4 -8 -10
-11 -5 -3 -10 -1 -10 4 0 6 5 11 10 11 6 0 10 -2 10 -4z m-452 -75 c-13 -16
-29 -26 -37 -23 -11 4 -9 7 5 13 11 4 26 14 33 23 7 9 15 16 18 16 2 0 -6 -13
-19 -29z m231 -138 c-18 -21 -42 -48 -53 -60 -11 -13 -27 -23 -35 -22 -14 0
-14 1 -1 7 9 4 37 31 64 60 56 59 75 71 25 15z m-124 -3 c-3 -5 -11 -10 -16
-10 -6 0 -7 5 -4 10 3 6 11 10 16 10 6 0 7 -4 4 -10z m515 -45 c-7 -9 -15 -13
-19 -10 -3 3 1 10 9 15 21 14 24 12 10 -5z m-55 -55 c-10 -11 -21 -17 -24 -14
-3 3 3 12 13 20 28 20 32 17 11 -6z m-45 -34 c0 -2 -8 -10 -17 -17 -16 -13
-17 -12 -4 4 13 16 21 21 21 13z m-103 -67 c-22 -21 -42 -37 -45 -34 -9 9 59
84 72 79 9 -3 0 -18 -27 -45z m36 -11 c-57 -64 -103 -108 -114 -108 -22 0 -5
27 32 50 22 14 54 42 71 62 17 21 35 38 40 38 5 0 -8 -19 -29 -42z m392 -198
c-3 -6 -39 -34 -78 -64 -40 -30 -102 -79 -139 -111 -38 -31 -65 -49 -62 -41 3
9 10 16 15 16 5 0 42 33 83 73 41 40 95 84 121 97 25 13 48 27 51 32 3 4 7 8
10 8 3 0 2 -5 -1 -10z m-2405 -194 c0 -18 -15 -36 -30 -36 -9 0 -28 -9 -41
-21 -91 -80 -284 -207 -296 -195 -3 3 17 18 43 35 82 51 243 169 282 208 12
12 42 18 42 9z m2070 -81 c-36 -38 -50 -43 -50 -21 0 11 51 47 79 55 3 0 -10
-15 -29 -34z m120 -39 c0 -2 -8 -10 -17 -17 -16 -13 -17 -12 -4 4 13 16 21 21
21 13z m-240 -221 c-7 -9 -15 -13 -17 -11 -7 7 7 26 19 26 6 0 6 -6 -2 -15z
m-145 -355 c-10 -11 -23 -20 -28 -20 -6 0 -2 9 8 20 10 11 23 20 28 20 6 0 2
-9 -8 -20z m-180 -140 c-16 -16 -31 -27 -34 -24 -6 6 45 54 56 54 4 0 -6 -13
-22 -30z m-1230 -114 c-11 -8 -52 -41 -91 -74 -95 -79 -115 -88 -35 -15 36 32
79 72 95 90 20 20 34 28 41 22 6 -6 2 -14 -10 -23z m1060 -273 c-18 -16 -31
-21 -33 -14 -5 14 26 40 48 40 10 0 4 -9 -15 -26z m-147 -253 c-3 -10 -131
-101 -135 -96 -2 2 2 16 8 32 6 16 13 23 16 17 7 -19 14 -16 58 22 40 34 60
44 53 25z m-482 -175 c-21 -16 -32 -13 -21 4 3 6 14 11 23 11 15 -1 15 -2 -2
-15z m-37 -27 c-2 -2 -17 -14 -34 -28 l-30 -25 24 28 c14 15 29 27 34 27 6 0
8 -1 6 -2z m81 -71 c0 -2 -15 -14 -32 -27 l-33 -23 24 26 c21 23 41 35 41 24z
m-180 -10 c0 -2 -10 -12 -22 -23 l-23 -19 19 23 c18 21 26 27 26 19z m-55 -47
c-3 -5 -20 -19 -38 -30 l-32 -22 35 31 c35 32 46 38 35 21z m165 7 c0 -2 -10
-12 -22 -23 l-23 -19 19 23 c18 21 26 27 26 19z m515 -276 c-3 -6 -11 -11 -17
-11 -6 0 -6 6 2 15 14 17 26 13 15 -4z"/>
<path d="M2892 5666 c-87 -85 -176 -170 -199 -191 -60 -52 -118 -108 -298
-284 -88 -86 -220 -208 -292 -271 -73 -63 -133 -119 -133 -123 0 -5 15 4 34
20 19 15 85 71 148 123 140 118 169 139 97 69 -31 -30 -58 -61 -61 -70 -8 -22
-112 -109 -130 -109 -17 0 -41 -24 -33 -32 3 -3 -12 -21 -33 -40 -22 -20 -42
-41 -46 -47 -14 -22 10 -10 44 22 19 18 58 51 85 72 28 22 77 63 111 92 34 29
65 53 70 53 5 0 1 -6 -8 -13 -15 -12 -150 -134 -242 -219 -23 -21 -44 -38 -48
-38 -10 0 -49 -43 -43 -48 5 -5 171 128 236 189 25 24 67 62 94 84 26 22 55
47 65 55 9 8 76 64 149 124 72 59 131 112 131 117 0 19 -22 7 -72 -39 -102
-91 -294 -246 -243 -195 14 14 122 111 168 151 21 18 37 38 35 44 -3 7 -14 2
-29 -13 -23 -23 -68 -56 -99 -73 -8 -4 1 5 20 20 33 27 112 101 241 225 30 30
89 83 130 118 41 35 81 71 89 80 8 9 56 52 105 96 109 95 185 171 185 185 0 5
-1 10 -3 10 -2 0 -34 -30 -73 -66 -189 -179 -274 -258 -329 -306 -33 -28 -108
-97 -166 -152 -129 -123 -160 -150 -179 -160 -21 -11 328 331 370 362 34 26
64 54 244 240 149 152 76 104 -92 -62z"/>
<path d="M2799 5627 c-52 -50 -142 -132 -198 -182 -57 -49 -118 -103 -135
-120 -18 -16 -54 -48 -81 -70 -28 -21 -70 -58 -95 -81 -25 -23 -79 -69 -120
-102 -100 -80 -130 -108 -130 -124 0 -7 -15 -23 -33 -35 -45 -31 -102 -91 -94
-99 4 -4 32 15 63 42 64 56 179 149 243 196 63 47 128 108 115 108 -6 0 -19
-10 -30 -21 -25 -28 -104 -82 -110 -76 -3 3 11 16 31 30 20 14 69 55 108 91
40 36 99 89 132 117 126 107 334 299 406 374 25 25 36 45 27 45 -2 0 -46 -42
-99 -93z m-635 -598 c-10 -12 -32 -30 -49 -41 -21 -14 -17 -8 13 21 46 43 68
56 36 20z"/>
<path d="M2718 5618 c-13 -13 -64 -59 -112 -103 -49 -44 -103 -93 -120 -110
-17 -16 -56 -50 -86 -75 -29 -25 -92 -78 -139 -119 -122 -106 -121 -105 -127
-99 -3 3 26 31 63 62 66 56 190 169 319 292 55 52 77 84 60 84 -3 0 -42 -37
-88 -83 -116 -115 -255 -240 -278 -251 -10 -5 -41 -36 -67 -69 -26 -34 -41
-57 -33 -53 8 5 -13 -19 -47 -53 -35 -34 -63 -66 -63 -71 0 -18 18 -11 37 14
11 13 64 62 119 107 95 80 216 184 279 240 80 71 315 291 320 300 11 17 -12 9
-37 -13z"/>
<path d="M6869 5583 c-1 -5 -1 -11 0 -15 2 -12 -27 -10 -34 2 -10 15 -28 12
-22 -4 7 -18 -17 -28 -32 -13 -8 8 -14 6 -25 -8 -8 -11 -19 -16 -30 -12 -10 4
-19 1 -22 -8 -4 -8 -17 -15 -30 -15 -17 0 -22 -4 -18 -15 5 -11 -1 -15 -25
-15 -17 0 -31 -4 -31 -10 0 -5 -5 -10 -10 -10 -6 0 -20 -9 -32 -20 -24 -22
-10 -27 24 -9 16 9 19 8 16 -2 -2 -7 -18 -17 -35 -21 -38 -10 -65 -38 -37 -38
13 -1 8 -6 -13 -15 -38 -16 -46 -40 -11 -29 20 6 21 5 9 -10 -7 -9 -21 -16
-31 -16 -19 0 -43 -23 -34 -33 3 -3 13 -3 22 0 16 4 16 3 1 -9 -18 -15 -32
-52 -33 -88 -1 -21 -5 -24 -26 -22 -65 8 -75 7 -72 -6 1 -8 -2 -11 -7 -8 -13
9 -92 -60 -146 -129 -26 -33 -60 -73 -74 -90 -15 -16 -33 -42 -40 -57 -8 -15
-32 -46 -54 -70 -21 -24 -50 -68 -64 -98 -13 -30 -40 -86 -60 -124 -44 -87
-59 -170 -37 -203 10 -17 13 -37 8 -71 -4 -36 -1 -59 15 -95 12 -28 18 -58 15
-75 -3 -16 3 -45 14 -71 18 -40 20 -42 27 -20 7 22 8 22 21 4 10 -13 11 -22 4
-29 -18 -18 -12 -38 10 -31 23 7 26 -6 8 -35 -16 -25 0 -41 17 -17 19 26 31 2
14 -29 -15 -28 -2 -48 13 -20 17 31 29 -3 12 -35 -19 -39 -18 -52 6 -46 15 4
20 0 20 -15 0 -14 5 -18 16 -14 12 5 15 2 9 -11 -7 -20 -8 -23 -6 -40 2 -18
21 -16 21 2 0 8 4 15 9 15 16 0 19 -24 5 -52 -16 -31 -2 -47 23 -26 14 11 15
9 10 -22 -3 -19 -8 -45 -12 -57 -9 -28 10 -31 38 -5 19 17 19 16 14 -23 -2
-22 -8 -48 -12 -57 -4 -11 -3 -18 3 -18 6 0 14 9 17 20 3 11 11 20 16 20 12 0
11 -12 -1 -46 -8 -21 -7 -31 6 -45 9 -10 13 -23 9 -28 -3 -6 0 -11 7 -11 8 0
22 19 31 43 l17 42 -6 -40 c-4 -22 -8 -56 -9 -75 -1 -22 -7 -35 -16 -35 -8 0
-14 -7 -14 -15 0 -8 6 -15 13 -14 6 1 23 2 36 3 19 1 26 10 37 46 7 25 17 45
21 45 12 0 10 -8 -16 -100 -18 -60 -22 -89 -15 -102 11 -20 34 -24 44 -8 12
19 25 10 25 -17 1 -91 9 -114 34 -94 18 15 26 -4 16 -40 -9 -30 3 -59 15 -39
4 6 15 34 25 61 l17 50 47 -79 c54 -93 57 -112 19 -112 -16 -1 -39 -7 -53 -15
-14 -7 -37 -11 -51 -8 -15 3 -32 -1 -40 -9 -8 -7 -23 -14 -34 -14 -11 0 -41
-7 -67 -14 -34 -10 -48 -19 -48 -32 0 -10 5 -18 10 -18 14 0 231 69 252 81 38
20 48 11 48 -41 0 -33 -4 -50 -12 -51 -7 -1 -29 -3 -48 -5 -19 -2 -43 -4 -52
-4 -10 -1 -18 -5 -18 -11 0 -5 -10 -9 -23 -9 -31 0 -65 -25 -52 -39 7 -7 24
-4 54 10 25 11 61 22 80 25 20 3 44 10 54 16 10 5 20 8 21 6 1 -2 7 -16 14
-31 9 -21 18 -28 35 -26 27 4 70 -18 62 -32 -4 -5 -15 -9 -26 -9 -10 0 -19 -4
-19 -10 0 -5 7 -10 15 -10 10 0 15 -11 16 -32 0 -18 2 -46 4 -63 2 -16 6 -61
10 -100 6 -72 13 -137 20 -190 3 -16 7 -66 9 -110 3 -44 10 -136 16 -205 5
-69 15 -192 20 -275 12 -190 20 -221 60 -229 67 -13 110 25 110 96 0 28 4 67
9 87 6 20 15 97 21 171 7 74 16 149 21 165 5 17 11 71 14 120 4 50 8 97 10
105 3 8 7 51 10 95 5 75 17 223 32 392 l6 72 36 5 c20 3 81 4 136 3 96 -3 143
6 230 42 11 5 32 13 48 20 15 6 27 15 27 20 0 11 -18 6 -60 -16 -14 -7 -32
-13 -40 -13 -8 0 -33 -6 -55 -14 -23 -8 -86 -14 -149 -14 -60 -1 -120 -4 -135
-7 -37 -8 -59 13 -67 63 -6 37 -4 42 13 42 10 0 24 -5 30 -11 8 -8 20 -8 45 0
18 6 62 9 97 6 43 -2 94 3 150 16 50 12 100 18 119 14 24 -4 32 -2 32 8 0 8
-10 17 -22 20 -23 6 -98 -7 -127 -22 -9 -5 -69 -12 -133 -15 l-118 -7 6 33 c4
18 12 40 19 48 12 14 44 81 58 123 4 10 14 17 23 15 11 -2 21 12 34 46 25 65
40 79 40 39 0 -32 18 -47 39 -33 10 6 29 102 31 154 0 6 5 5 12 -2 18 -18 36
-15 43 8 3 11 15 20 26 20 23 0 25 22 4 40 -9 7 -15 29 -15 51 0 36 1 38 20
27 25 -16 35 -5 20 22 -14 26 -9 33 25 33 25 0 25 0 10 24 -19 28 -11 93 8 74
6 -6 18 -11 26 -11 11 0 9 6 -7 23 -27 29 -28 41 -3 27 11 -5 24 -10 29 -10
12 0 12 31 0 57 -14 29 -8 35 37 36 28 1 34 4 29 16 -9 23 -9 32 0 73 8 35 10
37 38 31 l30 -6 -17 26 c-12 18 -15 36 -10 54 l6 27 23 -29 23 -28 6 33 c4 18
2 51 -4 73 -8 29 -7 42 1 51 9 8 11 5 5 -14 -4 -14 -4 -22 0 -18 4 4 16 3 26
-3 22 -12 26 8 16 76 -1 6 9 9 22 7 19 -2 22 1 16 15 -4 10 -10 29 -13 42 -4
21 -2 23 17 18 23 -6 27 3 11 19 -8 8 -6 15 5 24 8 7 15 21 15 32 0 11 5 28
10 38 14 27 -13 217 -43 306 -29 82 -117 265 -150 309 -36 48 -148 155 -163
155 -8 0 -14 4 -14 9 0 5 -21 12 -46 16 -39 5 -52 3 -75 -14 -29 -21 -29 -21
-29 -1 0 11 9 25 20 32 24 15 28 50 5 42 -8 -4 -15 -2 -15 4 0 5 8 13 18 17
16 6 16 7 -2 21 -11 8 -14 14 -8 14 7 0 12 5 12 10 0 6 -10 10 -22 10 -22 1
-23 1 -4 15 17 13 18 15 3 15 -20 0 -22 11 -5 28 9 9 7 12 -13 12 -22 1 -23 2
-6 14 24 19 21 29 -4 15 -21 -11 -22 -10 -17 29 5 35 4 39 -12 35 -15 -4 -17
-1 -13 16 4 15 1 21 -12 21 -11 0 -15 5 -11 15 3 10 -1 18 -12 22 -9 4 -30 16
-47 28 -16 12 -38 25 -47 28 -10 4 -18 11 -18 18 0 6 -7 8 -16 5 -9 -4 -27 0
-39 8 -12 8 -32 12 -44 9 -13 -3 -21 -1 -21 7 0 7 -8 10 -20 7 -11 -3 -23 -1
-26 5 -3 5 -15 8 -25 5 -10 -3 -22 -1 -25 4 -6 11 -24 12 -25 2z m-168 -230
c-8 -15 -10 -15 -11 -2 0 17 10 32 18 25 2 -3 -1 -13 -7 -23z m583 -99 c3 -8
2 -12 -4 -9 -6 3 -10 10 -10 16 0 14 7 11 14 -7z m-421 -89 c4 -8 2 -17 -3
-20 -6 -4 -10 3 -10 14 0 25 6 27 13 6z m289 -42 c19 -17 24 -68 9 -91 -8 -14
-61 -7 -61 8 0 4 -3 21 -6 37 -4 21 -1 35 11 46 20 21 24 21 47 0z m-412 -29
c0 -48 -16 -74 -44 -74 -30 0 -42 41 -25 82 9 21 18 28 40 28 27 0 29 -3 29
-36z m77 -16 c-3 -7 -5 -2 -5 12 0 14 2 19 5 13 2 -7 2 -19 0 -25z m384 -65
c-9 -15 -10 -11 -11 19 0 54 14 83 18 36 2 -21 -1 -46 -7 -55z m-740 45 c11
-21 11 -22 -4 -9 -10 7 -17 17 -17 22 0 15 9 10 21 -13z m892 -45 c-46 -76
-60 -120 -70 -223 -3 -36 -12 -85 -19 -110 -11 -36 -13 -127 -10 -465 2 -231
0 -429 -5 -440 -5 -12 -5 5 -2 39 5 43 3 57 -5 52 -7 -4 -12 -3 -12 3 0 5 -3
17 -7 27 -5 13 -3 16 9 11 13 -4 15 1 12 31 -2 20 -6 90 -10 155 -4 75 -10
120 -18 123 -7 3 -11 42 -10 122 1 102 7 160 30 287 4 23 3 26 -5 15 -14 -20
-15 3 -1 28 10 18 41 168 45 214 1 16 10 37 20 48 20 22 8 28 -15 8 -8 -8 -6
-2 3 12 10 14 25 36 34 50 25 37 56 71 61 65 2 -2 -9 -26 -25 -52z m-843 -8
c0 -20 39 -82 55 -89 10 -3 15 -19 15 -43 0 -28 -3 -34 -10 -23 -5 8 -15 15
-22 15 -7 0 -12 9 -11 19 0 10 -10 41 -23 70 -25 54 -31 81 -14 71 6 -3 10
-12 10 -20z m761 -8 c-10 -9 -11 -8 -5 6 3 10 9 15 12 12 3 -3 0 -11 -7 -18z
m-561 -1 c0 -3 -4 -8 -10 -11 -5 -3 -10 -1 -10 4 0 6 5 11 10 11 6 0 10 -2 10
-4z m-110 -42 c0 -8 -4 -14 -10 -14 -5 0 -10 9 -10 21 0 11 5 17 10 14 6 -3
10 -13 10 -21z m652 -6 c-8 -8 -9 -4 -5 13 4 13 8 18 11 10 2 -7 -1 -18 -6
-23z m-478 -44 c3 -8 2 -12 -4 -9 -6 3 -10 10 -10 16 0 14 7 11 14 -7z m85
-43 c-7 -2 -18 4 -26 15 -22 30 -15 39 13 13 16 -15 21 -25 13 -28z m361 19
c-8 -16 -8 -20 4 -20 8 0 16 3 19 8 2 4 2 0 -1 -8 -2 -8 -6 -39 -8 -69 -2 -30
-8 -59 -15 -65 -9 -8 -10 1 -5 37 3 29 1 55 -6 66 -12 20 -3 71 13 71 6 0 6
-7 -1 -20z m-451 -34 c23 -37 26 -46 11 -46 -8 0 -40 61 -40 76 0 11 11 0 29
-30z m191 30 c0 -3 -4 -8 -10 -11 -5 -3 -10 -1 -10 4 0 6 5 11 10 11 6 0 10
-2 10 -4z m201 -19 c-10 -9 -11 -8 -5 6 3 10 9 15 12 12 3 -3 0 -11 -7 -18z
m-351 -19 c0 -6 -7 -5 -15 2 -8 7 -15 17 -15 22 0 6 7 5 15 -2 8 -7 15 -17 15
-22z m290 17 c0 -8 -4 -15 -10 -15 -5 0 -7 7 -4 15 4 8 8 15 10 15 2 0 4 -7 4
-15z m420 -49 c-1 -19 -2 -19 -15 4 -20 35 -19 62 0 36 8 -11 15 -29 15 -40z
m-935 4 c8 0 15 -5 15 -11 0 -5 -4 -8 -9 -4 -14 8 -22 -28 -16 -66 3 -23 2
-29 -4 -19 -5 8 -12 44 -15 80 -4 46 -3 58 4 43 5 -13 16 -23 25 -23z m416 16
c32 -17 79 -70 79 -90 0 -4 -24 9 -52 30 -79 56 -124 57 -211 4 -38 -23 -71
-40 -73 -37 -3 2 20 27 51 55 50 46 61 51 108 54 65 4 56 5 98 -16z m59 8 c0
-8 -5 -12 -10 -9 -6 4 -8 11 -5 16 9 14 15 11 15 -7z m139 -69 c-1 -34 2 -71
5 -82 3 -10 0 -39 -8 -63 l-14 -45 -2 95 c-1 75 -3 90 -11 70 -10 -23 -5 -144
7 -174 3 -8 1 -17 -5 -21 -6 -3 -11 -16 -11 -29 0 -12 -4 -26 -9 -31 -6 -6
-14 -39 -20 -74 -11 -66 -21 -91 -21 -51 0 17 -3 21 -10 14 -7 -7 -8 -30 -2
-70 6 -32 8 -77 5 -99 -10 -85 -7 -212 5 -265 10 -38 11 -66 5 -90 -5 -19 -6
-46 -1 -60 4 -14 14 -47 22 -75 l15 -50 -5 80 c-3 44 -7 100 -9 125 -1 25 -8
72 -14 105 -6 33 -11 78 -10 100 l0 40 14 -45 c8 -25 14 -58 14 -75 -1 -73 14
-225 28 -275 8 -30 17 -65 20 -77 3 -13 9 -23 13 -23 8 0 14 -91 12 -175 -1
-59 -14 -110 -34 -131 -10 -12 -20 -31 -21 -43 -1 -11 -4 -21 -8 -21 -6 0 -17
93 -24 202 -7 99 22 45 42 -77 8 -49 8 -47 13 40 7 126 2 185 -16 178 -16 -6
-18 6 -4 41 6 16 6 26 0 26 -13 0 -30 -34 -30 -62 0 -13 -7 -41 -15 -63 -8
-22 -14 -55 -15 -73 0 -22 -4 -32 -12 -29 -16 5 -11 148 4 158 6 4 7 38 3 86
-5 54 -4 83 3 87 12 7 5 37 -11 47 -10 7 -30 225 -23 253 3 11 1 25 -4 30 -4
6 -10 63 -13 126 -4 90 -3 105 5 70 5 -25 13 -61 18 -80 4 -19 6 63 3 185 -2
121 -2 218 0 215 4 -5 16 -124 17 -170 0 -16 3 -21 8 -12 5 7 7 30 5 53 -2 26
1 38 7 34 7 -4 10 16 9 59 -1 37 1 69 5 73 3 3 6 -21 6 -55 0 -33 4 -63 9 -66
5 -4 9 36 9 94 0 54 -3 99 -7 98 -17 -2 -25 3 -16 10 17 12 45 69 45 91 0 14
5 19 15 15 11 -5 14 -22 14 -69z m441 40 c0 -5 -5 -3 -10 5 -5 8 -10 20 -10
25 0 6 5 3 10 -5 5 -8 10 -19 10 -25z m-892 -10 c-3 -3 -9 2 -12 12 -6 14 -5
15 5 6 7 -7 10 -15 7 -18z m-19 -9 c7 -8 8 -17 3 -20 -6 -3 -12 3 -15 14 -6
24 -4 25 12 6z m870 -31 c0 -5 -4 -3 -9 5 -5 8 -9 22 -9 30 0 16 17 -16 18
-35z m-1335 13 c-3 -13 -13 -34 -20 -48 -17 -31 -19 -6 -3 39 12 35 34 43 23
9z m386 11 c0 20 17 11 29 -15 15 -34 12 -37 -23 -19 -25 13 -27 13 -24 -3 2
-9 13 -18 24 -20 12 -2 26 -14 33 -28 8 -18 17 -24 27 -20 12 4 15 2 10 -9 -3
-8 7 -43 23 -78 24 -52 26 -65 15 -75 -10 -9 -14 -40 -15 -95 -1 -45 -3 -106
-5 -135 -2 -29 0 -51 5 -48 4 3 12 47 17 98 l9 93 5 -90 c5 -80 6 -86 14 -51
5 21 6 69 2 107 -7 74 3 89 25 37 10 -24 10 -33 1 -36 -8 -2 -12 -36 -12 -108
0 -68 4 -103 10 -99 6 3 10 50 10 106 0 90 9 122 23 85 3 -8 3 -128 0 -266 -4
-183 -3 -254 5 -259 13 -8 19 -234 7 -262 -4 -11 -14 -15 -26 -12 -16 5 -19
11 -13 27 3 11 6 61 4 109 -1 76 1 90 17 102 10 7 14 17 10 21 -4 5 -12 3 -16
-4 -13 -22 -20 96 -12 213 8 108 7 125 -5 112 -6 -6 -27 -312 -25 -352 6 -81
5 -125 -2 -125 -5 0 -7 19 -5 42 2 34 -1 43 -14 46 -24 5 -32 -34 -18 -88 24
-96 20 -223 -6 -213 -12 4 -13 37 -10 189 2 108 0 182 -5 178 -5 -3 -9 -17 -9
-32 0 -15 -5 -34 -10 -42 -7 -11 -10 3 -10 46 0 48 -4 63 -16 68 -9 4 -18 5
-20 4 -3 -3 -9 -56 -19 -158 -10 -93 -16 -121 -25 -115 -11 7 -30 -26 -31 -57
-1 -23 -1 -23 -9 2 -7 23 -8 21 -21 -22 -7 -27 -17 -48 -21 -48 -9 0 -3 35 12
80 12 36 31 214 31 296 -1 107 9 172 26 178 13 5 14 -15 8 -161 -3 -93 -11
-183 -16 -201 -14 -42 -5 -66 10 -29 6 16 16 92 21 170 6 78 15 144 20 145 6
2 10 10 10 18 0 9 5 12 10 9 6 -4 8 -11 4 -16 -8 -13 5 -69 17 -69 4 0 6 14 3
30 -4 19 -2 30 5 30 6 0 11 -9 11 -19 0 -11 4 -22 8 -25 5 -3 9 51 10 121 1
69 4 134 7 144 4 10 2 19 -4 19 -5 0 -12 -15 -15 -32 -13 -78 -14 -79 -13 -15
2 63 -4 83 -17 55 -3 -7 -3 -3 0 10 6 24 -20 33 -30 10 -3 -7 -3 7 0 32 5 35
3 42 -6 34 -6 -7 -17 -64 -22 -128 -6 -64 -13 -114 -15 -112 -2 2 -4 56 -4
120 0 100 3 122 20 150 12 18 28 69 37 112 9 43 19 81 21 84 8 7 -7 -125 -18
-162 -11 -38 -3 -50 11 -17 7 18 8 9 4 -36 -10 -98 11 -52 30 65 19 122 20
176 5 186 -6 3 -9 18 -6 32 6 32 -20 63 -34 41 -6 -10 -9 -7 -9 14 0 20 -5 27
-20 27 -15 0 -20 7 -20 25 0 14 -4 25 -10 25 -5 0 -10 -6 -10 -14 0 -8 -4 -17
-8 -20 -5 -3 -10 16 -11 41 -1 49 13 70 36 51 9 -7 13 -7 13 1z m306 3 c6 -4
14 -19 17 -33 7 -28 43 -79 57 -79 4 0 11 12 15 27 6 24 8 26 18 12 7 -9 17
-17 22 -17 27 -5 28 -12 7 -33 -17 -17 -21 -19 -16 -6 3 9 2 17 -3 17 -5 0
-26 -37 -47 -82 -42 -89 -63 -113 -83 -96 -7 6 -13 15 -13 21 0 7 4 7 12 -1
16 -16 28 -15 28 3 0 8 4 15 10 15 5 0 7 7 4 15 -4 10 0 15 11 15 17 0 17 1 2
18 -19 21 -23 42 -5 24 8 -8 15 -8 24 -1 9 7 5 23 -16 67 -34 71 -52 88 -70
67 -7 -8 -10 -21 -7 -30 4 -8 2 -17 -3 -20 -4 -3 -10 20 -12 50 -3 50 -1 55
17 55 11 0 25 -4 31 -8z m175 -15 c-10 -9 -11 -8 -5 6 3 10 9 15 12 12 3 -3 0
-11 -7 -18z m339 -17 c0 -13 -1 -13 -10 0 -5 8 -10 22 -10 30 0 13 1 13 10 0
5 -8 10 -22 10 -30z m-932 -46 l-3 -49 -5 57 c-3 31 -1 53 3 49 5 -5 7 -30 5
-57z m1132 21 c0 -17 -2 -17 -10 -5 -5 8 -10 24 -10 35 0 17 2 17 10 5 5 -8
10 -24 10 -35z m-1083 -295 c-2 -63 -7 -137 -12 -165 -7 -46 -9 -73 -13 -195
-2 -32 -5 -41 -11 -30 -6 8 -8 17 -6 20 6 10 19 289 20 445 1 88 3 167 5 175
7 38 20 -147 17 -250z m-180 203 c-3 -10 -5 -2 -5 17 0 19 2 27 5 18 2 -10 2
-26 0 -35z m523 7 c12 -23 12 -24 -3 -11 -10 7 -17 20 -17 29 0 18 3 16 20
-18z m621 -22 c-9 -20 -10 -18 -10 17 0 31 2 36 9 23 6 -10 7 -25 1 -40z
m-914 20 c-3 -8 -6 -5 -6 6 -1 11 2 17 5 13 3 -3 4 -12 1 -19z m844 -35 c-9
-16 -10 -14 -11 12 0 21 3 26 11 18 8 -8 8 -16 0 -30z m-1008 7 c-3 -11 -7
-20 -9 -20 -2 0 -4 9 -4 20 0 11 4 20 9 20 5 0 7 -9 4 -20z m884 -53 c1 -47
-2 -65 -7 -52 -11 25 -13 125 -2 125 4 0 8 -33 9 -73z m-930 26 c-3 -10 -5 -4
-5 12 0 17 2 24 5 18 2 -7 2 -21 0 -30z m1033 -2 c0 -46 -8 -71 -22 -71 -9 0
-8 17 4 98 4 29 18 9 18 -27z m157 7 c-3 -8 -6 -5 -6 6 -1 11 2 17 5 13 3 -3
4 -12 1 -19z m-980 -10 c-3 -8 -6 -5 -6 6 -1 11 2 17 5 13 3 -3 4 -12 1 -19z
m20 -45 c-3 -10 -5 -4 -5 12 0 17 2 24 5 18 2 -7 2 -21 0 -30z m730 5 c-3 -7
-5 -2 -5 12 0 14 2 19 5 13 2 -7 2 -19 0 -25z m163 1 c0 -28 -12 -44 -24 -32
-3 3 -1 12 5 19 7 8 7 14 -1 19 -15 9 -12 22 5 22 10 0 15 -10 15 -28z m-1193
-11 c-3 -7 -5 -2 -5 12 0 14 2 19 5 13 2 -7 2 -19 0 -25z m-150 -10 c-3 -8 -6
-5 -6 6 -1 11 2 17 5 13 3 -3 4 -12 1 -19z m427 -133 c-12 -81 -23 -69 -20 20
6 135 8 146 17 80 5 -33 6 -78 3 -100z m558 108 c-7 -65 -12 -67 -12 -5 0 29
4 52 9 52 5 0 6 -21 3 -47z m-687 17 c3 -5 1 -10 -4 -10 -6 0 -11 5 -11 10 0
6 2 10 4 10 3 0 8 -4 11 -10z m511 -17 c-10 -10 -19 5 -10 18 6 11 8 11 12 0
2 -7 1 -15 -2 -18z m-226 -5 c0 -13 -5 -30 -10 -38 -7 -11 -9 -5 -8 23 1 39
18 53 18 15z m539 -50 c1 -15 -4 -30 -11 -34 -8 -5 -9 0 -5 15 3 12 2 35 -3
51 -4 16 -5 31 -2 35 8 8 20 -29 21 -67z m357 50 c3 -5 -1 -17 -9 -26 -8 -9
-17 -39 -20 -67 -3 -27 -6 -51 -6 -52 -1 -2 -5 -3 -9 -3 -5 0 -5 28 -1 63 4
34 5 72 2 84 -4 18 -1 21 16 16 12 -3 24 -10 27 -15z m-1039 -10 c-3 -8 -6 -5
-6 6 -1 11 2 17 5 13 3 -3 4 -12 1 -19z m973 5 c0 -10 -5 -25 -10 -33 -7 -11
-10 -7 -10 18 0 17 5 32 10 32 6 0 10 -8 10 -17z m-1583 -25 c-3 -7 -5 -2 -5
12 0 14 2 19 5 13 2 -7 2 -19 0 -25z m893 -1 c0 -5 -4 -5 -10 -2 -5 3 -10 14
-10 23 0 15 2 15 10 2 5 -8 10 -19 10 -23z m-648 -22 c0 -20 -3 -39 -6 -42 -3
-4 -6 15 -6 42 0 27 3 46 6 42 3 -3 6 -22 6 -42z m1172 -23 c-6 -14 -8 -11
-14 13 -9 42 1 67 13 32 5 -15 6 -35 1 -45z m-1097 36 c-3 -8 -6 -5 -6 6 -1
11 2 17 5 13 3 -3 4 -12 1 -19z m627 -9 c-23 -26 -21 -152 6 -299 6 -36 15
-69 18 -75 3 -5 8 -38 9 -72 2 -35 4 -92 6 -128 3 -77 17 -99 18 -29 0 43 2
46 10 24 6 -14 7 -40 3 -60 -5 -19 -8 -41 -7 -47 0 -7 -5 -13 -13 -13 -8 0
-14 -4 -14 -10 0 -5 5 -10 10 -10 20 0 10 -78 -15 -121 l-25 -44 0 82 c0 76
-1 81 -20 76 -13 -3 -20 0 -21 8 -1 8 -3 34 -5 59 -3 25 -5 81 -7 125 -1 44
-5 82 -8 85 -3 3 -3 57 1 120 5 106 13 124 23 60 2 -14 5 1 6 32 0 31 -4 91
-10 132 -11 70 -10 75 12 105 12 16 26 28 31 25 5 -3 2 -14 -8 -25z m553 9
c-3 -8 -6 -5 -6 6 -1 11 2 17 5 13 3 -3 4 -12 1 -19z m-820 -10 c-3 -8 -6 -5
-6 6 -1 11 2 17 5 13 3 -3 4 -12 1 -19z m-710 -25 c-3 -10 -5 -4 -5 12 0 17 2
24 5 18 2 -7 2 -21 0 -30z m33 17 c0 -5 -2 -10 -4 -10 -3 0 -8 5 -11 10 -3 6
-1 10 4 10 6 0 11 -4 11 -10z m210 6 c0 -3 -4 -8 -10 -11 -5 -3 -10 -1 -10 4
0 6 5 11 10 11 6 0 10 -2 10 -4z m1170 -47 c0 -31 -4 -48 -10 -44 -5 3 -10 26
-10 51 0 24 5 44 10 44 6 0 10 -23 10 -51z m393 36 c-3 -9 -8 -14 -10 -11 -3
3 -2 9 2 15 9 16 15 13 8 -4z m-1333 -10 c0 -9 -6 -12 -15 -9 -8 4 -15 10 -15
15 0 5 7 9 15 9 8 0 15 -7 15 -15z m435 5 c3 -5 1 -10 -4 -10 -6 0 -11 5 -11
10 0 6 2 10 4 10 3 0 8 -4 11 -10z m587 -12 c-7 -7 -12 -8 -12 -2 0 14 12 26
19 19 2 -3 -1 -11 -7 -17z m197 -7 c-15 -5 -22 6 -14 19 6 9 10 9 16 -1 5 -8
4 -15 -2 -18z m-1170 -38 c-2 -54 -2 -55 -8 -18 -6 38 -3 75 5 75 2 0 3 -26 3
-57z m178 35 c-3 -8 -6 -5 -6 6 -1 11 2 17 5 13 3 -3 4 -12 1 -19z m893 -13
c0 -13 -4 -27 -10 -30 -6 -4 -10 8 -10 30 0 22 4 34 10 30 6 -3 10 -17 10 -30z
m-1231 -22 c1 -7 -3 -13 -9 -13 -5 0 -10 15 -9 33 0 27 2 29 9 12 5 -11 9 -26
9 -32z m788 -20 c-2 -16 -4 -5 -4 22 0 28 2 40 4 28 2 -13 2 -35 0 -50z
m-1130 25 c-3 -8 -6 -5 -6 6 -1 11 2 17 5 13 3 -3 4 -12 1 -19z m873 12 c0 -5
-4 -10 -10 -10 -5 0 -10 5 -10 10 0 6 5 10 10 10 6 0 10 -4 10 -10z m791 -13
c-10 -9 -11 -8 -5 6 3 10 9 15 12 12 3 -3 0 -11 -7 -18z m-764 -29 c1 -24 -3
-48 -8 -54 -6 -7 -7 -118 -3 -280 8 -364 5 -530 -11 -579 -10 -30 -12 -58 -5
-110 9 -71 7 -85 -12 -85 -8 0 -9 60 -3 208 4 114 8 243 7 287 -2 220 -4 259
-12 240 -8 -21 -19 106 -11 141 3 18 4 18 12 -1 5 -12 8 29 7 105 -1 83 2 133
10 148 19 33 28 27 29 -20z m581 22 c-7 -11 -16 -20 -20 -20 -5 0 -8 9 -8 20
0 13 7 20 20 20 18 0 19 -2 8 -20z m-491 -22 c-3 -7 -5 -2 -5 12 0 14 2 19 5
13 2 -7 2 -19 0 -25z m-907 18 c0 -3 -4 -8 -10 -11 -5 -3 -10 -1 -10 4 0 6 5
11 10 11 6 0 10 -2 10 -4z m1427 -28 c-3 -7 -5 -2 -5 12 0 14 2 19 5 13 2 -7
2 -19 0 -25z m277 1 c-6 -11 -24 -2 -24 11 0 5 7 7 15 4 8 -4 12 -10 9 -15z
m-627 -21 c-3 -7 -5 -2 -5 12 0 14 2 19 5 13 2 -7 2 -19 0 -25z m-173 -95 c5
-4 6 17 2 51 -4 33 -4 57 0 53 4 -4 8 -17 9 -29 13 -130 15 -172 10 -189 -17
-54 -32 2 -39 151 -3 62 -3 70 2 28 4 -31 11 -60 16 -65z m-824 64 c0 -5 -4
-5 -10 -2 -5 3 -10 14 -10 23 0 15 2 15 10 2 5 -8 10 -19 10 -23z m1400 12 c0
-5 -4 -9 -10 -9 -5 0 -10 7 -10 16 0 8 5 12 10 9 6 -3 10 -10 10 -16z m-1543
-21 c-3 -7 -5 -2 -5 12 0 14 2 19 5 13 2 -7 2 -19 0 -25z m383 6 c0 -14 -4
-23 -10 -19 -5 3 -10 15 -10 26 0 10 5 19 10 19 6 0 10 -12 10 -26z m90 6 c0
-5 -4 -10 -10 -10 -5 0 -10 5 -10 10 0 6 5 10 10 10 6 0 10 -4 10 -10z m879
-44 c-6 -21 -13 -36 -15 -33 -3 2 -2 23 2 46 4 23 11 38 15 34 5 -5 4 -26 -2
-47z m-215 -3 c-10 -58 -24 -63 -24 -10 0 36 4 47 15 47 13 0 15 -7 9 -37z
m385 -26 c0 -27 -2 -29 -9 -12 -12 28 -12 57 0 50 6 -3 10 -21 9 -38z m97 -52
c-10 -18 -11 -15 -14 24 -5 61 9 88 18 36 5 -25 4 -47 -4 -60z m71 73 c-3 -8
-6 -5 -6 6 -1 11 2 17 5 13 3 -3 4 -12 1 -19z m-1514 -8 c-3 -11 -7 -20 -9
-20 -2 0 -4 9 -4 20 0 11 4 20 9 20 5 0 7 -9 4 -20z m168 -92 c-9 -31 -9 -30
-10 24 -1 31 2 65 7 75 11 29 15 -59 3 -99z m1116 45 c-3 -10 -5 -2 -5 17 0
19 2 27 5 18 2 -10 2 -26 0 -35z m-1180 15 c-3 -8 -6 -5 -6 6 -1 11 2 17 5 13
3 -3 4 -12 1 -19z m550 -15 c-3 -10 -5 -4 -5 12 0 17 2 24 5 18 2 -7 2 -21 0
-30z m451 -10 c-2 -27 -7 -48 -13 -48 -5 0 -11 21 -13 48 -3 38 0 47 13 47 13
0 16 -9 13 -47z m-1081 15 c-3 -8 -6 -5 -6 6 -1 11 2 17 5 13 3 -3 4 -12 1
-19z m110 -30 c-2 -13 -4 -5 -4 17 -1 22 1 32 4 23 2 -10 2 -28 0 -40z m-23 7
c3 -8 1 -15 -4 -15 -6 0 -10 7 -10 15 0 8 2 15 4 15 2 0 6 -7 10 -15z m1106
-19 c0 -14 -4 -28 -10 -31 -5 -3 -10 0 -10 9 0 8 -3 21 -6 30 -4 11 -1 16 10
16 10 0 16 -9 16 -24z m-778 -40 c-6 -48 -12 -46 -12 5 0 22 4 38 8 35 4 -3 6
-21 4 -40z m522 -121 c-4 -81 -2 -125 5 -130 13 -7 14 -94 2 -113 -9 -14 -18
54 -26 198 -2 41 -9 99 -15 129 -15 82 -14 88 14 62 24 -23 25 -26 20 -146z
m390 149 c8 -20 8 -109 0 -102 -9 10 -21 118 -13 118 4 0 10 -7 13 -16z
m-1337 -16 c-3 -8 -6 -5 -6 6 -1 11 2 17 5 13 3 -3 4 -12 1 -19z m-298 -7 c9
-6 10 -11 2 -15 -13 -8 -31 1 -31 15 0 11 11 11 29 0z m251 -28 c-11 -17 -11
-17 -6 0 3 10 6 24 7 30 0 9 2 9 5 0 3 -7 0 -20 -6 -30z m-60 -12 c9 -31 -3
-54 -14 -25 -7 19 -8 69 -1 62 3 -3 10 -19 15 -37z m147 17 c-3 -8 -6 -5 -6 6
-1 11 2 17 5 13 3 -3 4 -12 1 -19z m1043 -14 c0 -13 -4 -24 -10 -24 -5 0 -10
14 -10 31 0 17 4 28 10 24 6 -3 10 -17 10 -31z m-893 -6 c-3 -7 -5 -2 -5 12 0
14 2 19 5 13 2 -7 2 -19 0 -25z m-337 2 c0 -11 -4 -20 -9 -20 -6 0 -9 9 -8 20
1 11 5 20 9 20 4 0 8 -9 8 -20z m277 -12 c-3 -8 -6 -5 -6 6 -1 11 2 17 5 13 3
-3 4 -12 1 -19z m1150 -10 c-3 -8 -6 -5 -6 6 -1 11 2 17 5 13 3 -3 4 -12 1
-19z m-860 -35 c-3 -10 -5 -2 -5 17 0 19 2 27 5 18 2 -10 2 -26 0 -35z m-396
-21 c-4 -67 -11 -66 -11 3 0 32 3 55 7 51 4 -4 6 -28 4 -54z m265 31 c-10 -10
-19 5 -10 18 6 11 8 11 12 0 2 -7 1 -15 -2 -18z m164 11 c0 -8 -5 -12 -10 -9
-6 4 -8 11 -5 16 9 14 15 11 15 -7z m-483 -51 c-3 -10 -5 -4 -5 12 0 17 2 24
5 18 2 -7 2 -21 0 -30z m1234 -75 c2 -54 0 -101 -4 -104 -8 -9 -9 -5 -11 118
0 53 2 94 6 90 3 -4 8 -51 9 -104z m-1411 93 c0 -5 3 -18 7 -28 6 -16 5 -16
-10 -4 -19 15 -23 41 -7 41 6 0 10 -4 10 -9z m427 -23 c-3 -7 -5 -2 -5 12 0
14 2 19 5 13 2 -7 2 -19 0 -25z m913 -288 c6 -74 13 -147 15 -162 7 -56 -13
-26 -28 45 -25 108 -42 361 -29 411 7 24 23 -94 42 -294z m-1023 268 c-3 -7
-5 -2 -5 12 0 14 2 19 5 13 2 -7 2 -19 0 -25z m1263 18 c0 -8 -7 -16 -15 -20
-10 -4 -15 1 -15 14 0 11 7 20 15 20 8 0 15 -6 15 -14z m-1159 -136 l-9 -55 3
75 c5 97 8 113 12 70 2 -19 -1 -60 -6 -90z m1026 98 c-3 -8 -6 -5 -6 6 -1 11
2 17 5 13 3 -3 4 -12 1 -19z m-1390 -35 c-3 -10 -5 -4 -5 12 0 17 2 24 5 18 2
-7 2 -21 0 -30z m248 -23 c-4 -28 -9 -49 -12 -46 -3 2 -2 28 2 56 4 28 9 49
12 46 3 -2 2 -28 -2 -56z m222 24 c3 -8 1 -43 -4 -77 -7 -41 -7 -64 -1 -68 6
-4 7 -28 3 -60 -6 -49 -14 -86 -46 -213 -5 -22 -8 -45 -5 -51 2 -6 0 -34 -6
-61 -5 -27 -11 -59 -12 -72 -3 -24 -22 -49 -30 -41 -3 2 4 51 15 109 33 182
51 322 54 405 4 139 5 145 15 145 6 0 13 -7 17 -16z m1013 -38 c0 -3 -9 -6
-20 -6 -16 0 -20 7 -20 31 l0 32 20 -26 c11 -14 20 -28 20 -31z m-1183 -38
c-3 -8 -6 -5 -6 6 -1 11 2 17 5 13 3 -3 4 -12 1 -19z m-229 -16 c2 -12 0 -22
-5 -22 -15 0 -28 15 -29 33 -3 27 30 17 34 -11z m132 2 c0 -8 -4 -12 -10 -9
-5 3 -10 13 -10 21 0 8 5 12 10 9 6 -3 10 -13 10 -21z m-15 -110 c-7 -61 -25
-64 -25 -4 0 48 21 105 28 76 2 -10 1 -43 -3 -72z m-75 31 c-9 -11 -9 -15 -1
-15 6 0 11 -7 11 -16 0 -14 -1 -14 -16 0 -13 14 -14 20 -2 47 9 20 14 25 16
14 2 -9 -2 -22 -8 -30z m175 -31 c-4 -42 -12 -95 -19 -117 -11 -38 -11 -34
-11 59 0 72 4 104 15 117 8 9 16 17 18 17 3 0 1 -34 -3 -76z m1085 40 c0 -14
-4 -22 -10 -19 -5 3 -10 17 -10 31 0 14 4 22 10 19 6 -3 10 -17 10 -31z m-738
-71 c2 -34 1 -60 -4 -57 -4 3 -8 35 -7 72 1 79 6 72 11 -15z m-245 0 c-3 -10
-5 -4 -5 12 0 17 2 24 5 18 2 -7 2 -21 0 -30z m493 8 c0 -9 -7 -26 -15 -37
-13 -18 -14 -17 -15 17 0 20 3 39 6 42 10 10 24 -2 24 -22z m113 -33 c4 -29 2
-38 -9 -38 -10 0 -14 13 -14 47 0 54 14 48 23 -9z m-276 0 c-3 -7 -5 -2 -5 12
0 14 2 19 5 13 2 -7 2 -19 0 -25z m480 -30 c-3 -7 -5 -2 -5 12 0 14 2 19 5 13
2 -7 2 -19 0 -25z m-854 -145 c-3 -13 -10 -23 -15 -23 -6 0 -8 10 -4 23 3 12
6 49 7 82 l2 60 8 -60 c4 -33 5 -70 2 -82z m237 55 c0 -10 -4 -18 -9 -18 -11
0 -21 36 -20 70 1 24 1 24 14 -5 8 -16 14 -38 15 -47z m369 25 c0 -42 -1 -45
-10 -23 -9 23 -5 70 6 70 3 0 5 -21 4 -47z m258 5 c-3 -7 -5 -2 -5 12 0 14 2
19 5 13 2 -7 2 -19 0 -25z m-587 -68 c1 -92 -7 -150 -21 -150 -4 0 -6 39 -4
88 3 82 14 157 20 150 2 -2 4 -41 5 -88z m-380 65 c0 -8 -4 -15 -10 -15 -5 0
-10 7 -10 15 0 8 5 15 10 15 6 0 10 -7 10 -15z m530 -39 c0 -25 -4 -48 -10
-51 -6 -4 -10 13 -10 44 0 28 5 51 10 51 6 0 10 -20 10 -44z m389 -19 c1 -5
-3 -5 -9 -2 -5 3 -10 16 -9 28 0 21 1 21 9 2 5 -11 9 -24 9 -28z m61 -5 c0
-13 10 -37 21 -54 18 -24 20 -34 10 -54 -23 -52 -40 -17 -46 97 -1 37 1 56 6
48 5 -8 9 -25 9 -37z m-300 -7 c0 -7 6 -15 13 -18 9 -3 9 -11 -2 -38 -8 -19
-15 -54 -16 -79 -3 -69 -5 -78 -14 -55 -10 25 -14 155 -5 189 6 26 24 27 24 1z
m-403 -22 c-3 -10 -5 -4 -5 12 0 17 2 24 5 18 2 -7 2 -21 0 -30z m43 17 c-6
-11 -13 -20 -15 -20 -3 0 -5 9 -5 20 0 11 7 20 15 20 13 0 14 -4 5 -20z m311
-17 c-10 -17 -10 -16 -11 3 0 23 13 41 18 25 2 -6 -1 -18 -7 -28z m308 -71 c1
-7 -3 -10 -9 -7 -5 3 -10 21 -9 38 1 31 1 31 9 7 4 -14 8 -31 9 -38z m-649 -9
c0 -13 5 -23 10 -23 6 0 13 0 18 -1 13 -1 26 -33 32 -81 5 -36 3 -48 -7 -48
-9 0 -13 16 -13 57 0 40 -3 54 -11 46 -5 -5 -10 -29 -11 -52 0 -22 -4 -41 -9
-41 -5 0 -9 23 -9 50 0 45 -13 67 -22 39 -5 -14 -38 0 -38 17 0 8 6 11 15 8
12 -5 15 2 15 28 0 19 3 38 7 41 9 10 23 -14 23 -40z m27 5 c-3 -7 -5 -2 -5
12 0 14 2 19 5 13 2 -7 2 -19 0 -25z m183 20 c0 -5 -6 -8 -14 -8 -8 0 -16 -5
-18 -12 -5 -15 -28 -1 -28 16 0 9 11 13 30 12 17 0 30 -4 30 -8z m15 -150 c-8
-13 -15 -18 -16 -13 0 6 -2 29 -5 53 -3 23 -2 48 4 55 5 7 13 26 18 42 7 25 9
18 12 -43 2 -53 -1 -78 -13 -94z m-416 135 c0 -10 -4 -27 -9 -38 -7 -16 -9
-13 -9 18 -1 20 4 37 9 37 6 0 10 -8 9 -17z m508 -5 c-3 -8 -6 -5 -6 6 -1 11
2 17 5 13 3 -3 4 -12 1 -19z m143 18 c0 -3 -4 -8 -10 -11 -5 -3 -10 -1 -10 4
0 6 5 11 10 11 6 0 10 -2 10 -4z m-549 -39 c-8 -8 -11 -7 -11 4 0 20 13 34 18
19 3 -7 -1 -17 -7 -23z m706 21 c0 -7 5 -38 12 -69 l12 -56 -44 -72 c-33 -53
-46 -67 -51 -55 -8 20 2 56 14 49 17 -11 32 28 37 99 4 63 8 99 12 114 3 7 8
0 8 -10z m-178 -73 c0 -11 -7 -36 -14 -55 -10 -27 -14 -30 -14 -13 -1 12 4 34
11 48 9 19 9 28 0 37 -7 7 -12 23 -11 38 1 25 1 25 14 -5 8 -16 14 -39 14 -50z
m51 14 c0 -27 -4 -49 -9 -49 -13 0 -17 26 -13 72 6 54 22 37 22 -23z m277 39
c-3 -8 -6 -5 -6 6 -1 11 2 17 5 13 3 -3 4 -12 1 -19z m-592 -65 c3 -29 11 -55
16 -59 18 -11 28 -52 19 -81 l-8 -28 -1 32 c-1 25 -5 30 -19 26 -15 -4 -17 1
-14 38 4 36 2 41 -12 36 -11 -4 -16 -1 -17 11 0 9 -2 36 -4 59 -3 39 -2 41 15
31 12 -8 20 -29 25 -65z m149 -66 c-5 -34 -7 -72 -6 -84 2 -13 -2 -23 -8 -23
-11 0 -14 112 -3 124 4 4 6 24 5 44 -2 31 -1 34 9 19 7 -12 8 -39 3 -80z m385
61 c-10 -38 -29 -60 -29 -35 0 9 5 17 12 17 6 0 8 3 5 6 -6 6 9 44 18 44 2 0
-1 -14 -6 -32z m-599 -26 c0 -15 -5 -34 -10 -42 -7 -11 -10 -2 -10 33 0 30 4
46 10 42 6 -3 10 -18 10 -33z m-217 -55 c4 -39 2 -46 -9 -36 -15 12 -18 40 -7
79 8 28 10 23 16 -43z m581 24 c-13 -53 -23 -57 -24 -9 0 38 3 46 15 42 10 -4
13 -14 9 -33z m-534 -26 c0 -25 -4 -45 -10 -45 -11 0 -14 73 -3 83 11 12 13 8
13 -38z m40 -6 c0 -52 -16 -42 -18 11 -1 25 2 39 8 35 6 -3 10 -24 10 -46z
m400 32 c0 -5 -7 -14 -16 -21 -12 -11 -14 -27 -8 -94 6 -72 5 -80 -8 -68 -29
24 -8 190 25 192 4 0 7 -4 7 -9z m132 -58 c-3 -50 0 -63 13 -71 16 -8 15 -13
-9 -48 -14 -21 -26 -45 -27 -54 0 -8 -5 -1 -10 15 -5 17 -6 48 -3 70 7 38 10
67 13 128 0 18 6 27 14 24 8 -2 11 -22 9 -64z m68 41 c0 -8 -4 -14 -10 -14 -5
0 -10 9 -10 21 0 11 5 17 10 14 6 -3 10 -13 10 -21z m-316 -25 c-10 -16 -24
-9 -24 12 0 18 2 19 15 9 8 -7 12 -16 9 -21z m-115 -68 c0 -25 -3 -40 -6 -33
-2 6 -8 10 -11 8 -4 -2 -8 21 -9 52 -2 52 0 55 13 38 8 -11 14 -40 13 -65z
m-132 47 c-3 -8 -6 -5 -6 6 -1 11 2 17 5 13 3 -3 4 -12 1 -19z m395 -70 c0
-39 -8 -61 -21 -53 -7 4 -8 99 -2 130 4 20 22 -41 23 -77z m-155 40 c-3 -7 -5
-2 -5 12 0 14 2 19 5 13 2 -7 2 -19 0 -25z m-177 -13 c0 -5 -5 -3 -10 5 -5 8
-10 20 -10 25 0 6 5 3 10 -5 5 -8 10 -19 10 -25z m-103 -17 c-3 -7 -5 -2 -5
12 0 14 2 19 5 13 2 -7 2 -19 0 -25z m111 -58 c-1 -22 1 -43 5 -46 4 -4 -3
-12 -14 -18 -12 -6 -32 -31 -45 -56 -21 -39 -24 -55 -20 -117 2 -40 0 -73 -5
-73 -13 0 -27 32 -29 70 -5 65 -1 90 15 90 11 0 14 7 9 25 -8 34 3 75 21 75 8
0 15 7 15 15 0 8 5 15 11 15 7 0 8 14 4 41 -7 39 -6 40 14 29 17 -9 21 -19 19
-50z m101 -14 c-9 -8 -10 -5 -5 14 3 14 7 34 7 45 1 11 4 5 6 -14 3 -19 -1
-39 -8 -45z m61 19 c0 -44 -3 -55 -16 -55 -14 0 -15 7 -10 38 3 20 6 45 6 55
0 9 5 17 10 17 6 0 10 -25 10 -55z m-300 -12 c0 -24 -19 -13 -36 18 l-16 31
26 -18 c14 -11 26 -25 26 -31z m493 22 c-7 -21 -13 -19 -13 6 0 11 4 18 10 14
5 -3 7 -12 3 -20z m-434 -15 c15 0 11 -32 -5 -37 -6 -2 -16 8 -22 22 -16 35
-15 54 2 33 7 -10 19 -18 25 -18z m139 -97 c-6 -8 -18 -11 -28 -8 -11 4 -23
-6 -38 -34 -27 -48 -28 -85 -1 -122 20 -29 19 -49 -4 -49 -7 0 -20 11 -30 25
-15 20 -16 33 -8 89 10 71 22 100 43 102 44 3 45 4 40 29 -2 15 0 25 7 25 6 0
12 12 12 28 1 16 5 7 10 -23 5 -32 4 -54 -3 -62z m152 56 c0 -5 -7 -9 -15 -9
-9 0 -12 6 -9 15 6 15 24 11 24 -6z m153 -44 c-3 -9 -8 -14 -10 -11 -3 3 -2 9
2 15 9 16 15 13 8 -4z m-135 -18 c4 6 7 -38 7 -98 0 -83 -3 -109 -13 -109 -31
0 -57 158 -35 216 6 16 7 15 20 -2 10 -13 16 -15 21 -7z m62 -23 c-7 -22 -10
-61 -7 -95 3 -33 1 -59 -3 -59 -11 0 -17 22 -25 90 -5 49 -3 59 17 82 29 32
33 29 18 -18z m-134 -46 c0 -46 4 -98 8 -115 7 -27 6 -33 -7 -33 -18 0 -23 14
-32 92 -6 56 8 138 24 138 4 0 8 -37 7 -82z m-128 22 c-11 -33 -28 -49 -28
-28 0 13 27 58 35 58 2 0 -1 -14 -7 -30z m300 8 c-6 -18 -28 -21 -28 -4 0 9 7
16 16 16 9 0 14 -5 12 -12z m-234 -84 c9 -34 6 -36 -32 -23 -36 12 -37 14 -19
34 20 23 44 18 51 -11z m-69 -103 c-3 -6 -11 -11 -17 -11 -6 0 -6 6 2 15 14
17 26 13 15 -4z m-18 -258 c-2 -16 -4 -3 -4 27 0 30 2 43 4 28 2 -16 2 -40 0
-55z m66 -35 c2 -26 1 -45 -4 -42 -5 3 -9 29 -8 57 1 59 5 54 12 -15z m204 10
c-3 -7 -5 -2 -5 12 0 14 2 19 5 13 2 -7 2 -19 0 -25z m-76 -103 l-9 -60 -1 55
c-1 59 11 122 16 85 2 -11 -1 -47 -6 -80z m72 43 c-4 -58 -22 -279 -29 -355
-4 -35 -9 -63 -13 -63 -4 0 -4 30 0 68 8 74 15 160 25 300 4 50 10 92 13 92 4
0 5 -19 4 -42z m-229 -138 c1 -60 22 -81 29 -28 2 18 4 6 4 -27 0 -33 -1 -52
-4 -42 -2 9 -9 17 -14 17 -6 0 -7 -25 -4 -62 3 -36 1 -70 -5 -78 -7 -11 -10
-7 -10 20 -1 55 -10 202 -15 233 -3 19 -1 27 7 25 6 -2 11 -27 12 -58z m147
-17 c-4 -28 -6 -32 -9 -15 -3 22 3 52 11 52 1 0 1 -17 -2 -37z m-54 -75 c-3
-8 -6 -5 -6 6 -1 11 2 17 5 13 3 -3 4 -12 1 -19z m-48 -98 c-1 -39 -4 -72 -8
-75 -9 -5 -14 123 -5 136 11 19 14 7 13 -61z m47 -18 c-11 -10 -14 3 -8 33 l7
30 3 -28 c2 -16 1 -31 -2 -35z m59 -44 c-3 -46 -10 -96 -15 -113 -7 -22 -8 -6
-4 60 5 90 12 135 21 135 2 0 1 -37 -2 -82z m-43 -23 c-4 -52 -9 -68 -22 -60
-5 3 -10 29 -10 56 0 43 3 50 18 47 13 -3 16 -12 14 -43z m-69 -55 c3 -11 1
-20 -4 -20 -5 0 -9 -7 -9 -15 0 -32 -16 -13 -17 20 -1 38 21 49 30 15z m144
-17 c-3 -10 -5 -4 -5 12 0 17 2 24 5 18 2 -7 2 -21 0 -30z m-51 -161 c-12 -11
-14 4 -7 58 l6 55 3 -54 c2 -29 1 -56 -2 -59z m-104 36 c-8 -8 -9 -4 -5 13 4
13 8 18 11 10 2 -7 -1 -18 -6 -23z m25 0 c-3 -7 -5 -2 -5 12 0 14 2 19 5 13 2
-7 2 -19 0 -25z m14 -212 c1 -40 -2 -71 -8 -73 -6 -2 -10 40 -10 114 -1 89 1
107 7 73 4 -25 9 -76 11 -114z m76 82 c-2 -13 -4 -5 -4 17 -1 22 1 32 4 23 2
-10 2 -28 0 -40z m-50 0 c-3 -8 -6 -5 -6 6 -1 11 2 17 5 13 3 -3 4 -12 1 -19z
m28 -138 c8 -24 -1 -40 -21 -40 -15 0 -18 18 -8 44 8 22 21 20 29 -4z"/>
<path d="M7120 5075 c0 -9 5 -15 10 -13 12 4 11 16 -1 24 -5 3 -9 -2 -9 -11z"/>
<path d="M6690 5085 c-6 -8 -9 -19 -6 -24 9 -14 36 -2 36 14 0 21 -16 26 -30
10z"/>
<path d="M6772 4165 c-14 -30 -17 -368 -3 -346 5 7 9 43 10 80 4 172 6 291 5
291 0 0 -6 -11 -12 -25z"/>
<path d="M6968 4105 c-8 -14 -3 -305 6 -337 16 -57 22 -14 20 134 -2 143 -13
225 -26 203z"/>
<path d="M2633 5238 c-19 -25 -35 -61 -24 -54 6 4 18 20 26 37 16 30 15 38 -2
17z"/>
<path d="M3348 5117 c27 -32 72 -139 78 -186 4 -29 15 -62 25 -74 19 -22 19
-22 17 25 -1 28 -6 46 -12 45 -12 -2 -12 0 -1 48 5 24 4 27 -5 15 -9 -12 -10
-9 -6 15 6 29 6 29 -10 10 -15 -19 -16 -17 -9 36 5 44 3 58 -8 62 -8 3 -20 0
-26 -6 -9 -9 -15 -8 -22 6 -6 9 -15 17 -21 17 -7 0 -7 -4 0 -13z"/>
<path d="M3022 5104 c-17 -7 -60 -34 -96 -61 -35 -26 -76 -56 -90 -66 -35 -24
-35 -57 0 -57 27 0 84 49 84 72 0 18 35 51 78 72 32 16 32 16 32 -8 0 -22 3
-24 40 -22 22 2 43 -1 46 -6 3 -5 13 -6 23 -2 9 3 30 6 48 5 17 -1 34 3 37 8
7 10 -22 24 -34 16 -4 -3 -11 3 -15 13 -6 15 -8 15 -25 -6 -19 -23 -19 -23
-30 -2 -6 11 -9 20 -8 21 56 17 128 -8 129 -44 0 -12 3 -16 6 -10 8 20 92 -48
93 -74 0 -33 -15 -28 -39 13 -12 19 -25 33 -30 29 -14 -8 40 -85 59 -85 23 0
40 20 40 46 0 22 -57 77 -136 130 -43 29 -162 40 -212 18z m67 -41 c-12 -13
-14 -13 -26 3 -17 23 -6 37 18 23 17 -9 18 -13 8 -26z m-209 -98 c-24 -25 -50
-33 -50 -15 0 9 47 39 64 40 5 0 -1 -11 -14 -25z"/>
<path d="M3505 5054 c8 -20 11 -28 45 -139 18 -61 25 -100 29 -168 1 -11 6
-15 12 -11 8 4 10 27 6 65 -3 33 -2 57 3 54 9 -6 23 25 15 34 -3 3 -10 -1 -15
-9 -7 -12 -12 -12 -22 -2 -9 9 -10 15 -2 20 15 10 37 52 30 59 -3 3 -11 -6
-17 -21 -11 -23 -14 -25 -22 -11 -6 11 -5 21 2 28 14 14 14 40 0 31 -8 -4 -9
3 -4 26 5 23 4 30 -4 26 -6 -4 -11 -15 -12 -24 0 -10 -6 -4 -15 15 -15 35 -43
61 -29 27z"/>
<path d="M2787 5053 c-10 -3 -16 -11 -13 -18 7 -19 -20 -41 -28 -23 -3 7 -4 0
-3 -17 2 -24 -2 -29 -16 -27 -16 3 -18 -1 -12 -30 5 -24 4 -29 -4 -18 -12 17
-14 9 -11 -34 1 -23 -1 -28 -15 -22 -13 4 -16 1 -13 -17 4 -30 30 -28 38 3 8
29 72 154 96 188 17 22 14 24 -19 15z"/>
<path d="M2966 5023 c-12 -13 -5 -20 33 -38 41 -18 47 -18 219 3 6 1 12 6 12
10 0 5 -19 7 -42 5 -24 -1 -65 -5 -93 -7 -35 -3 -60 1 -86 15 -20 10 -39 15
-43 12z"/>
<path d="M2633 4960 c-3 -11 -13 -20 -22 -20 -12 0 -13 -2 -4 -8 10 -6 7 -17
-12 -43 -14 -19 -29 -32 -32 -29 -9 7 -21 -36 -22 -80 -2 -33 -2 -34 -16 -16
-15 19 -15 19 -15 -2 0 -12 4 -22 9 -22 5 0 7 -10 4 -21 -4 -16 -2 -20 8 -17
7 2 23 37 35 76 12 40 39 101 59 137 20 36 31 65 25 65 -7 0 -14 -9 -17 -20z"/>
<path d="M1963 4767 c-23 -18 -42 -36 -42 -40 -1 -8 87 52 95 65 10 16 -12 5
-53 -25z"/>
<path d="M2400 4776 c0 -9 5 -16 10 -16 6 0 10 4 10 9 0 6 -4 13 -10 16 -5 3
-10 -1 -10 -9z"/>
<path d="M3680 4730 l-25 -20 31 0 c33 0 93 17 109 31 5 5 -12 9 -40 9 -34 0
-58 -7 -75 -20z"/>
<path d="M4515 4720 c-3 -5 -2 -10 4 -10 5 0 13 5 16 10 3 6 2 10 -4 10 -5 0
-13 -4 -16 -10z"/>
<path d="M3785 4699 c-44 -10 -90 -15 -102 -12 -17 4 -23 1 -23 -12 0 -14 6
-16 33 -12 17 3 59 9 92 13 63 7 95 18 95 34 0 12 6 12 -95 -11z"/>
<path d="M2370 4671 c0 -5 28 -19 63 -31 34 -13 66 -27 72 -32 12 -11 45 -10
45 1 0 5 -15 12 -32 15 -18 3 -55 17 -82 31 -53 27 -66 30 -66 16z"/>
<path d="M3858 4627 c-12 -4 -51 -10 -87 -13 -82 -6 -113 -12 -107 -22 4 -8
236 12 262 22 8 3 14 10 14 15 0 11 -50 10 -82 -2z"/>
<path d="M2290 4603 c0 -9 185 -53 220 -53 36 0 -12 19 -90 35 -47 10 -95 20
-107 23 -13 2 -23 0 -23 -5z"/>
<path d="M2196 4532 c-15 -14 -3 -22 36 -22 23 0 39 2 36 5 -10 10 -66 23 -72
17z"/>
<path d="M2290 4512 c0 -5 26 -13 58 -16 135 -16 157 -17 142 -8 -8 5 -42 13
-75 16 -33 4 -75 10 -92 13 -19 3 -33 1 -33 -5z"/>
<path d="M3715 4507 c-38 -6 -72 -12 -75 -16 -3 -3 -14 -13 -25 -21 -19 -14
-19 -14 -6 3 11 14 11 17 -1 17 -8 0 -23 -6 -33 -14 -17 -13 -16 -14 21 -20
39 -6 133 0 142 9 3 3 -2 5 -11 5 -9 0 -17 5 -17 10 0 6 12 10 28 10 26 0 61
15 52 22 -3 2 -36 0 -75 -5z m-22 -34 c-7 -2 -19 -2 -25 0 -7 3 -2 5 12 5 14
0 19 -2 13 -5z"/>
<path d="M3828 4513 c7 -3 16 -2 19 1 4 3 -2 6 -13 5 -11 0 -14 -3 -6 -6z"/>
<path d="M3923 4490 c-13 -5 -53 -11 -89 -14 -91 -7 -93 -16 -3 -15 84 1 121
9 127 27 4 14 -4 14 -35 2z"/>
<path d="M3909 4426 c-2 -2 -26 -6 -53 -9 -81 -10 -66 -20 18 -13 87 8 138 25
75 26 -20 0 -38 -2 -40 -4z"/>
<path d="M3635 4410 c23 -10 162 -13 152 -3 -4 4 -44 8 -90 9 -54 2 -75 0 -62
-6z"/>
<path d="M2215 4399 c81 -12 316 -16 312 -6 -1 5 -86 10 -187 12 -136 2 -169
0 -125 -6z"/>
<path d="M3540 4381 c0 -12 8 -13 105 -16 33 -1 137 -5 231 -9 120 -5 174 -4
178 3 5 8 -32 11 -121 13 -70 0 -139 2 -153 4 -112 12 -240 15 -240 5z"/>
<path d="M2450 4320 c-19 -5 -81 -11 -139 -14 -57 -3 -107 -8 -110 -12 -6 -6
214 2 259 10 14 2 31 5 38 5 6 1 12 6 12 11 0 11 -11 11 -60 0z"/>
<path d="M3630 4313 c0 -11 145 -42 230 -49 8 0 32 -4 53 -9 25 -5 42 -4 50 4
6 6 7 11 2 12 -70 4 -197 23 -307 46 -16 3 -28 1 -28 -4z"/>
<path d="M1917 4175 c-69 -58 -130 -105 -136 -105 -6 0 -11 -5 -11 -10 0 -6
-31 -31 -70 -56 -68 -44 -80 -54 -61 -54 16 0 245 163 287 205 6 6 39 33 73
60 58 47 72 65 52 65 -4 0 -65 -47 -134 -105z"/>
<path d="M3580 4254 c0 -5 26 -14 58 -21 31 -6 66 -14 77 -17 11 -3 0 3 -23
15 -50 23 -112 36 -112 23z"/>
<path d="M2428 4220 c-14 -4 -75 -13 -135 -20 -100 -12 -169 -29 -118 -30 28
0 287 39 292 44 10 9 -14 13 -39 6z"/>
<path d="M3540 4200 c0 -5 12 -13 26 -16 14 -4 48 -17 76 -31 28 -13 53 -22
56 -19 4 5 -140 76 -154 76 -2 0 -4 -4 -4 -10z"/>
<path d="M3760 4201 c8 -5 40 -14 70 -19 30 -6 63 -14 73 -17 9 -4 17 -3 17 2
0 9 -49 22 -140 38 -24 4 -30 3 -20 -4z"/>
<path d="M3710 4125 c0 -8 92 -46 97 -41 3 2 -17 14 -42 25 -51 23 -55 24 -55
16z"/>
<path d="M2475 4090 c-11 -4 -45 -13 -75 -20 -80 -17 -90 -20 -90 -30 0 -4 26
-2 58 6 31 8 83 20 115 26 31 6 57 15 57 20 0 10 -38 9 -65 -2z"/>
<path d="M3554 4091 c3 -5 18 -12 33 -16 16 -4 53 -21 83 -39 104 -62 170 -96
170 -89 0 8 -122 84 -204 127 -48 26 -93 35 -82 17z"/>
<path d="M3870 4050 c20 -13 33 -13 25 0 -3 6 -14 10 -23 10 -15 0 -15 -2 -2
-10z"/>
<path d="M3530 4025 c0 -8 5 -15 10 -15 6 0 10 7 10 15 0 8 -4 15 -10 15 -5 0
-10 -7 -10 -15z"/>
<path d="M3600 3983 c1 -12 153 -104 159 -97 3 4 -2 11 -13 18 -10 6 -44 28
-75 48 -56 38 -71 44 -71 31z"/>
<path d="M2530 3963 c-8 -3 -46 -20 -85 -38 -38 -18 -80 -36 -92 -39 -13 -4
-23 -12 -23 -17 0 -11 6 -11 28 0 9 6 58 27 107 47 91 37 122 55 95 53 -8 0
-22 -3 -30 -6z"/>
<path d="M3580 3924 c20 -23 130 -105 130 -96 0 4 -16 21 -36 37 -20 17 -48
40 -63 52 -30 26 -50 31 -31 7z"/>
<path d="M2510 3864 c-67 -31 -123 -65 -117 -71 3 -2 31 9 63 26 33 16 76 36
97 45 20 8 37 17 37 20 0 12 -27 5 -80 -20z"/>
<path d="M1580 3851 c0 -6 5 -13 10 -16 6 -3 10 1 10 9 0 9 -4 16 -10 16 -5 0
-10 -4 -10 -9z"/>
<path d="M3562 3832 c5 -13 95 -92 104 -92 4 0 -14 23 -41 50 -44 45 -72 64
-63 42z"/>
<path d="M2536 3794 c-38 -13 -74 -29 -80 -35 -8 -9 -6 -10 9 -5 11 4 47 14
80 23 57 16 110 45 75 42 -8 -1 -46 -12 -84 -25z"/>
<path d="M2547 3727 c-21 -13 -35 -26 -31 -30 4 -3 18 3 32 13 13 11 31 20 38
20 8 0 14 5 14 10 0 15 -11 12 -53 -13z"/>
<path d="M3599 3710 c25 -21 41 -26 41 -12 0 9 -44 32 -58 32 -4 -1 4 -10 17
-20z"/>
<path d="M3996 3654 c-22 -15 -49 -35 -60 -45 -12 -10 -46 -37 -77 -61 -65
-49 -262 -208 -269 -217 -3 -3 -31 -26 -64 -51 -32 -24 -54 -46 -48 -48 18 -6
53 17 146 97 205 174 303 255 336 277 50 34 97 74 85 74 -6 0 -28 -12 -49 -26z"/>
<path d="M2867 3340 c-10 -16 -15 -30 -12 -30 8 0 44 42 45 53 0 17 -17 5 -33
-23z"/>
<path d="M3320 3331 c0 -5 7 -15 17 -22 15 -13 15 -12 4 9 -12 23 -21 28 -21
13z"/>
<path d="M3320 3296 c0 -14 113 -235 130 -255 33 -39 36 -15 3 27 -16 20 -50
81 -76 135 -39 83 -57 112 -57 93z"/>
<path d="M2805 3279 c-4 -6 -5 -12 -2 -15 2 -3 7 2 10 11 7 17 1 20 -8 4z"/>
<path d="M2926 3220 c-10 -39 -19 -83 -21 -98 -2 -15 -9 -42 -14 -59 -5 -18
-6 -33 -2 -33 13 0 31 50 37 102 3 28 11 69 19 93 7 24 9 48 5 55 -4 6 -15
-21 -24 -60z"/>
<path d="M3364 3263 c9 -17 20 -35 26 -38 18 -11 10 9 -16 40 l-26 30 16 -32z"/>
<path d="M2862 3251 c-17 -48 -14 -63 4 -22 8 19 13 39 11 45 -2 6 -9 -5 -15
-23z"/>
<path d="M2896 3244 c-4 -14 -5 -29 -2 -31 3 -3 8 7 12 21 3 15 4 29 1 32 -2
3 -8 -7 -11 -22z"/>
<path d="M3301 3264 c-1 -7 6 -27 14 -45 8 -19 14 -27 14 -19 0 18 -27 79 -28
64z"/>
<path d="M2772 3229 c-19 -30 -8 -34 12 -4 9 14 13 25 9 25 -5 0 -14 -9 -21
-21z"/>
<path d="M2796 3195 c-9 -26 -7 -32 5 -12 6 10 9 21 6 23 -2 3 -7 -2 -11 -11z"/>
<path d="M2445 3029 c-108 -95 -194 -174 -191 -176 5 -5 89 58 111 82 6 6 48
42 95 80 47 38 107 90 133 115 27 25 53 47 58 48 12 5 12 22 -1 22 -5 0 -98
-77 -205 -171z"/>
<path d="M2857 3117 c-26 -77 -34 -117 -22 -105 3 3 8 16 10 28 3 13 14 52 26
87 11 36 19 66 17 68 -2 3 -16 -33 -31 -78z"/>
<path d="M2736 3173 c-3 -10 -17 -31 -31 -47 -14 -16 -25 -34 -25 -40 0 -12
40 35 65 77 9 15 12 27 6 27 -5 0 -12 -8 -15 -17z"/>
<path d="M2831 3163 c-10 -26 -10 -27 4 -9 8 11 15 23 15 28 0 15 -7 8 -19
-19z"/>
<path d="M3760 3169 c-104 -64 -279 -199 -257 -199 3 0 54 36 112 80 58 44
110 80 114 80 5 0 25 14 46 30 44 35 36 39 -15 9z"/>
<path d="M3336 3150 c9 -49 50 -144 64 -148 9 -3 9 2 -1 19 -7 13 -25 56 -41
94 -18 45 -26 58 -22 35z"/>
<path d="M2746 3084 c-9 -20 -15 -39 -12 -41 3 -3 12 12 21 32 20 49 14 56 -9
9z"/>
<path d="M2786 3050 c-17 -43 -21 -68 -9 -56 9 9 34 89 29 94 -2 1 -11 -15
-20 -38z"/>
<path d="M7965 3000 c-7 -32 -19 -39 -29 -15 -8 22 -26 18 -26 -5 0 -27 -18
-25 -30 3 l-9 22 0 -22 c-2 -51 30 -73 44 -30 6 19 8 19 12 5 5 -20 28 -24 38
-8 14 22 23 70 15 75 -5 3 -11 -8 -15 -25z"/>
<path d="M7574 2953 c-17 -15 -19 -26 -13 -63 l6 -45 1 42 c2 31 7 45 22 53
16 8 20 8 20 -4 0 -8 -4 -17 -9 -20 -12 -8 -1 -56 14 -56 8 0 11 17 11 52 -1
59 -18 72 -52 41z"/>
<path d="M7734 2945 c-7 -29 -20 -33 -28 -7 -2 9 -4 4 -3 -13 2 -36 17 -39 33
-7 l11 23 15 -23 c15 -22 15 -22 26 -2 7 12 7 26 1 35 -6 10 -9 10 -9 2 0 -7
-4 -13 -10 -13 -5 0 -10 7 -10 15 0 24 -19 17 -26 -10z"/>
<path d="M7991 2936 c-9 -11 -10 -20 -3 -33 9 -16 11 -15 17 10 9 33 2 43 -14
23z"/>
<path d="M2335 2724 c-18 -16 -22 -22 -9 -15 18 9 53 42 43 41 -2 -1 -17 -12
-34 -26z"/>
<path d="M2564 2064 c-18 -14 -18 -15 4 -4 12 6 22 13 22 15 0 8 -5 6 -26 -11z"/>
<path d="M3475 2040 c-3 -5 -1 -10 4 -10 6 0 11 5 11 10 0 6 -2 10 -4 10 -3 0
-8 -4 -11 -10z"/>
<path d="M2596 1990 c-22 -17 -35 -30 -30 -30 10 0 83 59 74 59 -3 0 -23 -13
-44 -29z"/>
<path d="M2496 1925 c-11 -8 -18 -17 -15 -19 2 -3 15 4 29 14 14 11 21 20 15
19 -5 0 -19 -6 -29 -14z"/>
<path d="M2570 1890 c-9 -6 -10 -10 -3 -10 6 0 15 5 18 10 8 12 4 12 -15 0z"/>
<path d="M2890 1606 c-34 -22 -68 -56 -57 -56 5 0 107 67 116 76 15 14 -30 -1
-59 -20z"/>
<path d="M2891 1559 c-24 -17 -40 -33 -38 -36 3 -3 23 8 44 23 54 40 59 44 47
44 -6 0 -30 -14 -53 -31z"/>
<path d="M1271 1000 c-41 -5 -45 -8 -60 -47 -19 -53 -7 -100 25 -95 39 7 139
1 149 -9 12 -12 10 -208 -3 -339 -5 -47 -7 -90 -5 -97 6 -16 59 -36 80 -29 41
13 47 41 51 269 l4 218 56 -6 c30 -3 59 -8 63 -11 5 -3 20 6 33 19 25 25 45
103 30 117 -11 9 -360 18 -423 10z m397 -52 c2 -15 -2 -37 -8 -49 -11 -19 -18
-21 -64 -16 -28 3 -57 7 -64 9 -8 1 -22 -8 -32 -22 -16 -22 -19 -51 -23 -234
-5 -216 -11 -241 -45 -220 -19 12 -19 26 -10 269 5 117 -1 177 -17 194 -4 3
-41 8 -83 11 -76 5 -77 5 -80 33 -6 54 -9 53 214 52 l209 -1 3 -26z"/>
<path d="M1756 997 c-15 -11 -16 -19 -7 -56 9 -42 2 -218 -17 -430 -7 -75 -6
-87 10 -103 10 -10 31 -18 48 -18 45 0 58 36 66 179 l7 121 26 1 c74 4 78 -4
86 -151 3 -68 11 -130 17 -138 18 -21 61 -10 75 19 19 39 28 225 14 276 -20
73 -45 93 -126 101 l-70 7 -7 90 c-5 68 -11 92 -24 102 -23 17 -75 17 -98 0z
m72 -13 c19 -13 22 -24 22 -79 0 -109 12 -123 111 -130 93 -7 108 -38 105
-205 -4 -149 -14 -184 -44 -147 -9 11 -21 131 -22 220 0 63 -50 91 -127 71
-29 -8 -32 -18 -38 -147 -3 -62 -8 -120 -11 -129 -6 -21 -59 -25 -67 -5 -3 8
1 84 9 170 16 186 20 339 10 356 -7 11 9 41 23 41 4 0 17 -7 29 -16z"/>
<path d="M2770 980 c-21 -13 -1 -18 101 -24 47 -3 92 -8 101 -11 24 -9 58 -88
58 -134 0 -47 -34 -91 -69 -91 -26 0 -51 -10 -51 -21 0 -5 8 -9 18 -9 9 0 33
-11 53 -24 38 -26 50 -56 67 -161 5 -33 12 -67 16 -76 5 -12 0 -18 -20 -23
-15 -4 -31 -3 -36 2 -4 4 -14 43 -22 85 -14 85 -35 124 -69 131 -70 15 -115
16 -124 4 -6 -7 -13 -49 -15 -94 -5 -88 -11 -106 -33 -98 -13 5 -14 44 -10
257 4 220 2 254 -12 269 -19 21 -40 13 -22 -8 13 -16 14 -207 3 -420 l-6 -120
40 0 c23 1 46 6 52 12 5 5 11 50 13 100 l2 89 52 3 c66 4 87 -15 103 -95 28
-134 47 -157 108 -129 l40 18 -18 37 c-11 20 -22 65 -25 100 -7 77 -26 116
-66 137 l-31 16 29 18 c32 19 63 82 63 126 0 27 -23 78 -47 106 -9 9 -34 19
-57 22 -97 12 -173 14 -186 6z"/>
<path d="M6557 936 c-24 -21 -26 -27 -16 -43 9 -15 7 -70 -10 -252 -20 -217
-21 -235 -5 -252 21 -24 53 -28 86 -12 21 10 29 24 38 70 7 31 10 79 7 106 -7
77 -2 87 48 87 40 0 44 -2 50 -30 4 -17 4 -73 0 -124 -6 -80 -5 -95 10 -110
24 -23 64 -17 86 14 15 21 19 48 21 154 l2 128 -32 29 c-18 16 -42 30 -55 31
-12 0 -33 2 -47 3 -14 1 -40 3 -59 3 l-34 2 7 43 c3 23 9 57 12 75 5 25 1 39
-20 67 -32 41 -51 44 -89 11z m79 -42 c3 -19 2 -58 -4 -87 -13 -67 -3 -87 46
-87 57 -1 140 -23 159 -43 15 -15 18 -35 17 -125 -1 -137 -7 -162 -39 -162
-28 0 -28 -2 -25 130 1 47 -3 97 -9 113 -10 25 -15 27 -63 27 -79 0 -81 -3
-85 -125 -4 -139 -23 -174 -67 -126 -15 17 -17 34 -11 138 3 65 8 130 11 146
6 28 15 155 14 196 0 31 7 41 30 41 14 0 21 -10 26 -36z"/>
<path d="M7495 953 c-144 -12 -173 -32 -42 -31 102 2 116 -3 146 -47 48 -72
35 -167 -30 -203 -16 -10 -29 -19 -29 -22 0 -3 15 -12 32 -20 48 -22 69 -67
78 -168 4 -48 9 -94 11 -102 5 -21 -44 -26 -60 -6 -7 8 -15 53 -18 98 -8 118
-50 182 -115 176 -46 -4 -57 -33 -60 -169 -2 -93 -6 -114 -18 -114 -13 0 -15
37 -15 270 0 289 -4 315 -48 315 -19 -1 -20 -2 -6 -13 31 -24 42 -100 35 -230
-19 -342 -19 -347 -7 -361 10 -11 19 -12 42 -4 16 5 32 15 37 21 4 7 9 68 12
137 l5 125 28 3 c16 2 35 -2 43 -9 25 -21 44 -78 44 -134 0 -70 8 -106 30
-135 l18 -24 46 18 c25 10 46 18 46 19 0 1 -7 20 -15 42 -8 22 -14 64 -15 94
0 75 -18 128 -53 157 l-30 25 26 27 c47 50 53 143 13 205 -15 21 -82 71 -89
65 -1 -1 -20 -3 -42 -5z"/>
<path d="M6028 927 c-21 -16 -40 -105 -27 -129 8 -15 20 -16 93 -11 103 7 112
-2 90 -87 -8 -30 -16 -71 -18 -90 -3 -19 -8 -53 -13 -75 -12 -60 -7 -156 8
-166 24 -15 89 -11 89 6 0 9 -9 15 -24 15 -43 0 -48 18 -36 135 6 58 16 127
21 153 16 67 13 114 -6 129 -11 7 -44 11 -91 9 l-74 -3 -6 33 c-3 18 -3 38 1
44 4 7 71 10 205 9 109 0 204 2 210 6 8 5 10 -6 8 -36 -2 -36 -7 -44 -28 -50
-19 -6 -16 -7 15 -6 l40 2 3 51 c3 45 0 52 -18 57 -11 3 -23 1 -26 -4 -3 -5
-10 -6 -16 -3 -6 4 -65 8 -132 10 -66 2 -151 6 -187 9 -44 3 -71 1 -81 -8z"/>
<path d="M2815 921 c-29 -6 -30 -8 -32 -71 -4 -108 -4 -108 74 -108 103 1 143
31 128 97 -13 62 -92 100 -170 82z m113 -48 c35 -26 41 -57 18 -89 -11 -15
-27 -19 -75 -19 l-61 -1 0 67 c0 42 4 69 12 71 24 8 74 -5 106 -29z"/>
<path d="M7470 880 c-12 -7 -7 -10 18 -10 42 0 78 -35 88 -85 9 -50 -13 -69
-70 -60 -53 8 -56 11 -56 54 0 54 -11 102 -21 95 -5 -3 -9 -34 -9 -70 0 -79
19 -104 79 -104 87 0 123 85 64 149 -31 33 -70 46 -93 31z"/>
<path d="M6300 820 c-11 -7 -17 -38 -22 -117 -3 -59 -10 -156 -14 -215 -7
-106 -2 -127 23 -95 9 10 22 204 27 372 1 40 1 40 46 45 39 4 41 6 20 12 -34
10 -62 10 -80 -2z"/>
<path d="M3564 807 c-8 -5 -22 -6 -29 -3 -28 10 -26 -15 3 -42 38 -35 47 -89
38 -217 -7 -90 -6 -93 20 -125 27 -31 30 -32 91 -28 60 4 64 3 70 -20 11 -45
-20 -88 -87 -118 -68 -30 -89 -65 -54 -91 35 -26 142 6 199 58 44 41 80 116
68 144 -5 15 11 156 28 235 18 83 15 166 -5 189 -22 24 -54 27 -80 8 -16 -12
-18 -27 -17 -119 1 -58 -1 -117 -4 -131 -12 -47 -91 -58 -99 -13 -3 11 -7 61
-10 109 -10 141 -60 204 -132 164z m57 -20 c32 -25 44 -63 49 -165 6 -114 16
-132 73 -132 73 0 89 35 88 188 l-2 112 24 0 c41 0 52 -44 38 -153 -44 -344
-50 -367 -104 -411 -50 -41 -85 -51 -111 -32 -25 20 -16 37 25 51 49 17 81 67
77 125 l-3 45 -64 -2 c-58 -2 -65 0 -93 28 -29 29 -30 32 -23 87 12 82 8 161
-10 209 -22 57 -5 81 36 50z m44 -606 c19 -11 19 -11 -5 -9 -16 2 -26 10 -28
23 -2 12 0 16 5 9 4 -6 17 -16 28 -23z"/>
<path d="M3184 787 c-46 -40 -28 -115 21 -83 11 7 35 16 53 19 38 8 72 -18 72
-54 0 -20 -4 -21 -50 -16 -43 5 -53 3 -80 -19 -32 -28 -50 -77 -50 -141 0 -63
13 -87 60 -108 40 -18 44 -18 87 -2 25 9 49 15 53 12 5 -3 12 0 16 6 12 20
-18 28 -47 13 -38 -19 -92 -18 -118 4 -33 26 -39 106 -13 165 23 51 22 51 102
51 50 1 55 3 58 25 2 12 1 34 -2 46 -10 40 -83 50 -130 20 -23 -15 -26 -16
-32 -2 -21 56 38 79 130 50 53 -16 62 -23 83 -63 22 -42 23 -53 17 -148 -6
-97 -5 -104 16 -127 15 -16 20 -30 15 -44 -9 -28 9 -27 22 2 9 18 6 27 -14 48
-24 26 -24 30 -16 112 15 141 -25 237 -104 250 -76 13 -121 8 -149 -16z"/>
<path d="M8450 780 c-6 -11 -17 -20 -25 -20 -8 0 -15 -4 -15 -10 0 -15 16 -12
30 5 7 8 18 15 24 15 6 0 -5 -14 -24 -29 -19 -16 -39 -27 -45 -24 -5 4 -7 3
-3 -2 4 -4 -4 -30 -18 -57 -27 -53 -42 -159 -30 -220 8 -43 64 -101 114 -117
36 -12 44 -11 79 5 43 22 88 92 78 123 -3 11 -17 27 -32 36 -14 9 -23 12 -19
7 9 -15 -42 -72 -64 -72 -30 0 -51 29 -48 64 3 30 4 31 55 32 72 1 94 18 100
77 6 48 -19 137 -38 137 -5 0 -9 7 -9 16 0 8 -4 13 -9 10 -5 -3 -12 2 -16 12
-6 16 -7 16 -16 0 -11 -19 -39 -25 -39 -8 0 6 7 10 16 10 14 0 14 2 0 15 -20
20 -33 19 -46 -5z m83 -61 c33 -15 57 -60 57 -107 0 -51 -16 -64 -86 -68 -31
-3 -60 -7 -65 -10 -5 -3 -9 -25 -9 -50 0 -83 59 -107 122 -47 48 46 68 -2 22
-56 -20 -25 -34 -31 -63 -31 -45 0 -97 24 -115 53 -24 37 -35 118 -25 172 23
126 84 180 162 144z"/>
<path d="M8462 663 c-10 -16 -22 -40 -26 -55 -5 -23 -3 -28 17 -34 33 -8 94
19 102 46 9 29 -19 70 -50 70 -15 0 -31 -10 -43 -27z m71 -20 c7 -34 1 -41
-38 -45 -27 -3 -30 0 -27 21 6 54 56 72 65 24z"/>
<path d="M8660 785 c-15 -18 1 -20 19 -2 11 10 11 8 0 -10 -7 -12 -17 -19 -21
-17 -13 9 -8 -20 7 -40 18 -24 19 -73 4 -221 -10 -100 -10 -115 6 -148 21 -45
56 -50 81 -12 16 25 17 51 9 280 -1 22 0 45 3 52 4 13 60 38 68 31 15 -15 19
-115 9 -194 -17 -126 -13 -180 14 -207 l22 -22 25 28 c21 24 24 38 24 102 0
41 7 124 15 185 9 61 13 119 10 129 -3 10 -19 32 -35 49 -27 29 -31 30 -69 20
-39 -10 -55 -27 -28 -29 6 -1 -8 -5 -32 -10 -36 -7 -48 -5 -63 8 -10 9 -18 22
-18 30 0 18 -35 17 -50 -2z m67 -56 c9 -9 32 -8 91 1 112 19 116 16 108 -73
-3 -39 -9 -132 -12 -205 -6 -114 -9 -132 -23 -130 -14 3 -16 26 -16 178 0 186
-9 229 -43 214 -9 -4 -32 -12 -49 -18 -27 -9 -33 -16 -34 -41 0 -16 -1 -91 -2
-167 -1 -75 -5 -140 -10 -144 -4 -4 -17 2 -29 13 -20 21 -21 25 -10 174 6 94
7 160 1 171 -18 34 1 54 28 27z"/>
<path d="M2294 781 c-31 -13 -83 -81 -94 -122 -6 -21 -11 -64 -12 -96 -1 -51
3 -66 27 -99 32 -44 86 -74 135 -74 36 0 95 32 110 60 14 27 12 83 -3 104 -16
22 -45 11 -70 -27 -35 -54 -101 -29 -95 36 l3 32 85 5 c84 5 84 5 93 35 13 48
-11 107 -53 127 -45 22 -100 30 -126 19z m111 -31 c31 -12 58 -69 49 -105 -6
-24 -9 -25 -89 -25 -66 0 -84 -3 -89 -16 -17 -44 3 -106 38 -122 31 -14 74 5
92 40 19 38 38 31 42 -14 5 -54 -33 -93 -86 -91 -55 2 -96 25 -127 70 -28 41
-31 75 -14 155 16 75 58 118 115 118 24 0 54 -4 69 -10z"/>
<path d="M2312 707 c-36 -38 -28 -47 38 -47 70 0 87 18 50 50 -30 26 -62 25
-88 -3z m77 -6 c21 -14 3 -31 -33 -31 -39 0 -50 8 -35 27 13 15 47 17 68 4z"/>
<path d="M8071 767 c-7 -7 -17 -12 -24 -12 -15 -1 -13 -16 13 -88 11 -31 25
-106 31 -165 12 -127 23 -160 56 -168 54 -14 94 29 108 116 4 25 12 51 18 58
6 7 12 30 14 50 2 20 13 65 25 100 17 50 19 67 10 87 -7 14 -18 25 -27 25 -19
0 -52 -66 -66 -132 -17 -85 -40 -160 -47 -153 -3 3 -7 54 -9 112 -3 116 -13
142 -62 167 -22 12 -31 12 -40 3z m59 -47 c12 -12 21 -35 22 -57 1 -21 3 -49
4 -63 1 -14 2 -51 3 -82 1 -42 5 -58 15 -58 24 0 46 48 66 142 21 96 46 150
60 128 4 -7 1 -35 -7 -64 -7 -28 -22 -82 -33 -121 -24 -90 -51 -168 -61 -179
-4 -5 -18 -6 -31 -3 -31 8 -45 49 -53 157 -4 47 -16 112 -26 144 -10 33 -16
63 -13 68 9 14 33 9 54 -12z"/>
<path d="M8177 399 c-9 -6 -17 -14 -17 -19 0 -17 27 -11 34 6 8 22 5 25 -17
13z"/>
<path d="M8765 770 c-3 -5 3 -10 14 -10 12 0 21 5 21 10 0 6 -6 10 -14 10 -8
0 -18 -4 -21 -10z"/>
<path d="M7758 736 c-55 -66 -30 -108 41 -72 16 9 36 16 43 16 20 0 51 -61 38
-74 -7 -7 -10 -7 -10 1 0 16 -67 -1 -92 -24 -33 -29 -48 -77 -48 -150 1 -92
20 -119 79 -109 23 3 50 12 61 18 14 9 27 9 58 -1 49 -17 92 0 106 41 8 24 6
32 -19 58 -28 29 -28 31 -22 114 6 72 4 91 -13 132 -31 71 -51 84 -129 83 -62
0 -68 -2 -93 -33z m172 -11 c28 -17 41 -76 38 -175 -2 -96 -1 -101 24 -127 21
-22 25 -32 17 -45 -11 -20 -47 -23 -82 -7 -19 9 -33 7 -69 -10 -52 -24 -86
-18 -94 15 -3 13 -4 58 -2 100 3 65 7 79 27 95 13 10 38 19 56 19 72 0 84 28
36 82 l-29 33 -36 -18 c-47 -22 -66 -22 -66 1 0 17 24 35 59 44 23 6 108 1
121 -7z"/>
<path d="M7897 544 c-3 -4 -23 -8 -43 -9 -22 -1 -42 -9 -51 -20 -19 -28 -16
-82 7 -105 19 -19 20 -19 62 -1 l43 18 3 61 c3 56 -4 73 -21 56z m-10 -38 c0
-1 4 -18 8 -38 7 -35 6 -37 -26 -46 -43 -11 -59 0 -59 42 0 41 16 57 49 49 14
-3 27 -6 28 -7z"/>
<path d="M7008 733 c-22 -6 -64 -71 -77 -121 -7 -23 -13 -67 -14 -100 -2 -49
2 -65 25 -100 44 -65 124 -75 191 -22 27 22 44 83 32 120 -11 35 -55 23 -79
-22 -35 -67 -92 -37 -84 43 l3 34 68 0 c56 0 71 4 83 20 33 45 8 108 -54 135
-44 20 -61 22 -94 13z m88 -33 c31 0 60 -55 50 -94 -5 -21 -12 -26 -39 -26
-18 0 -38 5 -43 10 -7 7 -23 5 -48 -5 -38 -16 -38 -16 -34 -66 9 -94 73 -117
118 -44 24 39 43 41 48 6 13 -90 -93 -134 -164 -68 -31 28 -37 42 -41 84 -7
67 13 146 45 185 21 25 30 29 55 24 16 -3 40 -6 53 -6z"/>
<path d="M7033 678 c-56 -27 -32 -70 36 -66 54 4 65 24 30 57 -25 23 -34 24
-66 9z m51 -14 c9 -3 16 -15 16 -26 0 -14 -5 -18 -16 -14 -9 3 -24 6 -35 6
-21 0 -26 25 -6 33 18 8 23 8 41 1z"/>
<path d="M3298 602 c-42 -4 -88 -41 -88 -72 0 -11 7 -36 14 -55 18 -41 42 -45
92 -14 l34 20 -7 62 c-3 34 -6 62 -7 62 -1 0 -17 -1 -38 -3z m14 -54 c3 -18 8
-40 12 -49 5 -12 -1 -20 -23 -29 -42 -17 -59 -8 -67 36 -8 43 3 66 37 75 32 8
36 5 41 -33z"/>
<path d="M4027 482 c-20 -22 -22 -73 -5 -90 20 -20 66 -15 78 9 16 29 15 79
-1 90 -23 14 -55 10 -72 -9z m61 -45 c3 -31 0 -37 -15 -37 -40 0 -58 50 -25
69 27 16 37 8 40 -32z"/>
<path d="M8976 389 c-18 -89 2 -128 53 -106 64 27 76 58 39 107 -16 22 -30 30
-54 30 -27 0 -32 -4 -38 -31z m92 -33 c6 -7 -11 -36 -22 -36 -22 0 -49 26 -41
39 6 11 51 8 63 -3z"/>
</g>
</svg>
