<?xml version="1.0" standalone="no"?>
<!DOCTYPE svg PUBLIC "-//W3C//DTD SVG 20010904//EN"
 "http://www.w3.org/TR/2001/REC-SVG-20010904/DTD/svg10.dtd">
<svg version="1.0" xmlns="http://www.w3.org/2000/svg"
 width="1000.000000pt" height="529.000000pt" viewBox="0 0 1000.000000 529.000000"
 preserveAspectRatio="xMidYMid meet">
<metadata>
Created by potrace 1.16, written by Peter Selinger 2001-2019
</metadata>
<g transform="translate(0.000000,529.000000) scale(0.100000,-0.100000)"
fill="#000000" stroke="none">
<path d="M2521 5173 c-10 -26 -10 -27 4 -9 8 11 15 23 15 28 0 15 -7 8 -19
-19z"/>
<path d="M2632 5165 c23 -22 43 -32 53 -29 12 5 13 9 4 21 -7 7 -18 12 -26 9
-7 -3 -22 3 -33 14 -11 11 -23 20 -27 20 -5 0 9 -16 29 -35z"/>
<path d="M2470 5165 c1 -26 2 -28 11 -12 8 14 8 22 0 30 -8 8 -11 3 -11 -18z"/>
<path d="M2960 5181 c0 -6 5 -13 11 -17 6 -3 9 -18 6 -31 -4 -22 1 -28 40 -45
56 -25 50 -32 -13 -16 -52 13 -68 26 -55 43 5 6 1 18 -9 27 -16 17 -16 16 -12
-12 4 -25 1 -30 -17 -30 -21 0 -61 32 -61 50 0 5 -7 7 -15 4 -8 -4 -12 -11 -8
-17 4 -6 0 -8 -10 -4 -10 4 -24 10 -32 13 -11 4 -13 2 -9 -9 4 -12 -8 -16 -68
-19 -44 -3 -79 -1 -87 6 -11 8 -13 8 -7 -2 8 -13 2 -16 -46 -26 -35 -8 -37 12
-7 57 20 31 20 31 -10 -3 -26 -29 -32 -33 -41 -20 -7 11 -10 12 -10 2 0 -19
-41 -5 -62 22 -10 11 -18 16 -18 10 0 -6 10 -23 21 -38 24 -31 25 -29 -21 -43
-30 -9 -32 -11 -16 -18 11 -5 27 -3 38 4 11 7 22 10 24 8 7 -6 -15 -22 -71
-51 -43 -23 -53 -25 -77 -15 -16 6 -32 9 -35 5 -4 -4 3 -9 15 -13 12 -3 22 -9
22 -14 0 -8 -7 -10 -49 -13 -17 -1 -23 -46 -6 -46 7 0 18 7 25 15 7 8 18 15
25 15 6 0 38 17 71 38 104 67 230 102 364 102 105 0 279 -55 349 -110 56 -45
104 -130 123 -222 10 -47 9 -62 -4 -97 -24 -59 -15 -76 61 -115 105 -54 114
-59 155 -91 l38 -29 -33 -28 c-45 -38 -95 -54 -115 -37 -11 9 -54 13 -147 13
-125 -1 -136 -3 -217 -34 -84 -33 -132 -70 -145 -112 -16 -47 27 -41 90 13 11
9 37 26 58 38 l37 21 0 -24 c0 -31 20 -86 31 -86 12 0 11 16 -2 63 -7 28 -7
42 1 52 17 21 99 31 124 15 11 -7 46 -15 77 -17 50 -5 68 -1 131 28 66 29 126
70 183 122 19 18 20 18 23 -1 5 -30 -41 -111 -88 -159 -35 -35 -60 -48 -151
-77 -92 -31 -123 -36 -200 -36 -68 0 -90 -3 -87 -12 7 -19 152 -22 213 -5 28
8 85 25 128 38 l77 23 22 -21 c15 -16 23 -38 26 -78 5 -63 15 -66 50 -15 27
40 31 140 7 197 -10 24 -12 40 -5 48 6 7 17 34 25 61 31 101 12 128 -46 65
-21 -22 -43 -41 -48 -41 -5 0 -20 13 -33 29 -13 15 -68 52 -123 81 -55 29
-102 55 -104 56 -2 2 4 31 13 65 20 70 16 106 -19 189 -13 30 -27 71 -32 90
-6 23 -15 35 -26 34 -10 -1 -23 13 -34 36 -14 29 -26 40 -53 46 -33 9 -35 11
-38 57 -3 48 -14 59 -30 31 -10 -19 -32 -11 -32 12 0 8 -4 14 -10 14 -5 0 -10
-4 -10 -9z m158 -152 c7 -10 10 -19 7 -19 -11 0 -55 32 -55 40 0 15 36 -1 48
-21z m179 -667 c41 -8 13 -22 -45 -22 -65 0 -102 8 -102 22 0 9 103 10 147 0z
m-252 -12 c-3 -5 -15 -10 -25 -10 -11 0 -55 -25 -100 -55 -44 -30 -80 -51 -80
-47 1 13 27 42 39 42 6 0 11 4 11 10 0 10 40 31 105 54 49 18 58 19 50 6z
m499 -56 c10 -26 7 -154 -4 -154 -5 0 -10 12 -10 28 0 15 -9 41 -20 57 -23 34
-25 56 -8 73 17 17 35 15 42 -4z"/>
<path d="M2580 5135 c-8 -9 -8 -15 -2 -15 12 0 26 19 19 26 -2 2 -10 -2 -17
-11z"/>
<path d="M7131 5068 c-5 -13 -12 -38 -15 -55 -10 -43 -23 -50 -38 -19 -15 34
-28 33 -28 -1 0 -38 -10 -73 -21 -73 -5 0 -9 11 -9 25 0 29 -16 33 -24 7 -4
-10 -8 -52 -11 -94 -4 -75 4 -128 30 -183 16 -34 55 -126 55 -130 0 -2 -17 1
-37 6 -49 11 -53 11 -53 -1 0 -5 13 -10 29 -10 16 0 34 -6 40 -14 7 -8 22 -17
34 -20 12 -3 35 -24 51 -47 18 -25 32 -37 38 -31 6 6 -2 22 -22 43 -44 48 -90
119 -96 149 -3 14 -12 41 -20 60 -8 19 -17 61 -19 93 -3 32 -7 62 -10 67 -2 4
4 10 14 13 13 3 21 17 26 46 7 43 13 49 33 29 15 -15 19 -11 41 53 22 62 37
70 33 18 -4 -45 15 -61 24 -22 12 55 16 63 25 58 5 -4 9 4 9 17 l0 23 -18 -23
c-19 -24 -32 -20 -32 9 0 28 -19 33 -29 7z"/>
<path d="M7237 5044 c-10 -19 -22 -32 -27 -29 -6 3 -10 -3 -10 -14 0 -33 17
-25 37 17 16 32 18 34 21 15 4 -28 18 -29 32 -3 13 25 30 17 30 -13 0 -21 1
-21 18 -3 12 13 14 20 5 23 -7 3 -13 13 -13 24 0 24 -26 25 -35 2 -6 -17 -7
-17 -16 0 -15 25 -23 21 -42 -19z"/>
<path d="M2605 5060 c-3 -6 1 -7 9 -4 18 7 21 14 7 14 -6 0 -13 -4 -16 -10z"/>
<path d="M7356 5062 c-7 -11 4 -52 14 -52 4 0 13 7 21 16 12 14 14 14 26 -2
12 -16 13 -16 13 8 0 32 -16 44 -35 28 -11 -9 -15 -9 -15 -1 0 13 -16 15 -24
3z"/>
<path d="M7470 5044 c-15 -38 -13 -59 3 -45 8 6 16 8 20 5 3 -3 12 3 19 15 14
23 33 29 25 8 -3 -8 -2 -20 3 -27 6 -10 11 -8 21 9 19 29 29 27 29 -6 1 -25 2
-26 14 -10 20 26 29 21 23 -13 -7 -31 9 -43 19 -15 4 8 10 15 15 15 5 0 9 -7
9 -15 0 -20 10 -19 27 3 12 15 13 15 8 -8 -5 -19 -1 -27 16 -35 12 -5 30 -24
39 -42 15 -29 16 -40 4 -105 -23 -125 -85 -268 -134 -313 -21 -19 -26 -35 -10
-35 17 0 61 54 81 100 11 25 34 55 52 67 17 13 50 40 71 60 24 23 41 33 44 25
2 -6 13 -12 24 -12 16 0 18 3 9 14 -10 11 -7 18 11 31 l23 17 -24 -7 c-30 -9
-122 -67 -140 -89 -27 -32 -29 -14 -7 57 36 111 46 178 31 202 -7 11 -15 32
-19 46 -7 31 -52 82 -65 74 -5 -3 -13 0 -16 6 -4 5 -13 8 -20 5 -7 -2 -16 1
-18 9 -7 18 -66 30 -80 16 -7 -7 -14 -5 -23 6 -10 14 -15 15 -27 5 -10 -9 -17
-10 -22 -2 -11 17 -25 11 -35 -16z"/>
<path d="M2350 5045 l-25 -14 26 -1 c15 0 29 7 33 15 7 18 -2 18 -34 0z"/>
<path d="M2664 5040 c-12 -5 -25 -13 -29 -19 -3 -6 -17 -11 -31 -11 -17 0 -23
4 -18 12 4 7 -7 3 -26 -8 -18 -10 -35 -26 -38 -34 -3 -9 4 -6 17 8 23 23 37
28 43 13 4 -11 88 16 108 35 16 16 6 17 -26 4z"/>
<path d="M2824 5024 c-18 -14 -18 -15 4 -4 12 6 22 13 22 15 0 8 -5 6 -26 -11z"/>
<path d="M2905 4980 c-3 -6 1 -7 9 -4 18 7 21 14 7 14 -6 0 -13 -4 -16 -10z"/>
<path d="M2710 4956 c0 -9 7 -16 16 -16 9 0 14 5 12 12 -6 18 -28 21 -28 4z"/>
<path d="M2590 4949 c0 -5 9 -9 20 -9 11 0 20 2 20 4 0 2 -9 6 -20 9 -11 3
-20 1 -20 -4z"/>
<path d="M2388 4933 c7 -3 16 -2 19 1 4 3 -2 6 -13 5 -11 0 -14 -3 -6 -6z"/>
<path d="M2755 4929 c-11 -16 -2 -17 25 -2 24 12 24 13 3 13 -12 0 -25 -5 -28
-11z"/>
<path d="M2406 4882 c-24 -16 -33 -28 -25 -31 8 -2 18 -9 22 -15 6 -7 7 -4 3
6 -3 10 0 21 7 25 12 8 42 43 36 42 -2 0 -21 -12 -43 -27z"/>
<path d="M2860 4885 c0 -8 5 -15 10 -15 6 0 10 7 10 15 0 8 -4 15 -10 15 -5 0
-10 -7 -10 -15z"/>
<path d="M2110 4879 c-14 -6 -39 -8 -56 -6 -21 4 -49 -3 -83 -19 -29 -13 -71
-28 -94 -35 -54 -14 -176 -81 -158 -87 7 -2 39 7 70 21 154 68 226 91 303 94
45 2 79 -1 83 -7 3 -5 15 -10 26 -10 32 0 112 -45 146 -83 39 -43 63 -120 63
-203 0 -62 -34 -288 -50 -334 -5 -14 -19 -59 -31 -100 -37 -127 -245 -525
-338 -649 -14 -19 -44 -62 -66 -96 -67 -104 -93 -141 -107 -156 -8 -8 -52 -64
-99 -124 -144 -188 -158 -204 -391 -435 -258 -255 -335 -326 -428 -396 -120
-91 -131 -97 -142 -86 -21 21 24 83 155 212 72 71 128 132 125 136 -4 4 -30
-14 -58 -40 -55 -52 -77 -55 -72 -11 4 31 37 79 112 160 25 28 81 96 123 152
42 56 85 108 95 115 21 15 92 108 116 153 9 17 30 53 46 80 34 59 37 75 10 50
-11 -10 -20 -25 -20 -34 0 -21 -35 -73 -43 -65 -4 4 -17 -15 -29 -42 -30 -64
-47 -86 -81 -104 -16 -8 -36 -28 -44 -45 -22 -43 -80 -120 -141 -189 -83 -93
-142 -120 -142 -63 0 23 87 162 165 264 68 87 127 175 122 179 -3 3 -21 -18
-42 -46 -20 -27 -41 -50 -45 -50 -5 0 -21 -20 -35 -44 -30 -50 -97 -116 -120
-116 -20 0 -18 48 3 81 9 14 32 47 50 74 17 27 32 55 32 63 0 8 22 38 50 66
51 53 132 167 124 176 -6 5 -48 -45 -66 -80 -14 -27 -33 -50 -42 -50 -3 0 -25
-21 -50 -47 -48 -52 -70 -52 -44 0 22 42 31 87 18 87 -5 0 -13 -12 -16 -27 -4
-16 -15 -43 -26 -60 -25 -42 -21 -79 8 -76 21 2 21 2 4 -32 -9 -19 -30 -48
-45 -66 -37 -45 -49 -78 -36 -106 9 -19 16 -22 36 -17 14 3 25 2 25 -4 0 -5
-23 -43 -51 -84 -46 -68 -50 -78 -43 -112 5 -30 10 -37 25 -33 29 8 31 -8 6
-40 -50 -61 -58 -80 -45 -108 6 -14 16 -25 22 -25 6 0 -12 -23 -39 -50 -28
-28 -56 -48 -63 -45 -7 3 -48 -11 -90 -31 -42 -20 -90 -42 -107 -49 -211 -97
-325 -163 -296 -173 10 -3 116 51 191 97 25 15 75 39 111 54 37 14 93 39 125
56 32 16 60 28 62 26 2 -2 -10 -21 -28 -43 -22 -28 -31 -48 -28 -68 3 -25 7
-29 32 -27 16 1 43 12 61 25 76 53 152 113 185 144 37 35 78 51 200 79 41 10
97 29 123 42 27 13 54 22 60 20 7 -2 23 3 37 13 31 20 105 50 126 50 22 0 205
91 282 140 l63 40 15 -36 c22 -54 12 -99 -26 -113 -16 -5 -49 -23 -74 -40 -57
-40 -338 -157 -446 -187 -98 -27 -219 -70 -305 -109 -81 -36 -319 -156 -375
-189 -25 -14 -52 -26 -60 -26 -23 0 -170 -88 -209 -125 -58 -55 -31 -62 34 -9
86 70 119 92 151 100 15 4 53 21 83 38 31 17 81 42 111 56 30 13 71 35 90 47
19 13 40 23 46 23 6 0 28 11 48 25 20 14 48 28 62 31 14 4 48 17 75 30 71 35
82 32 102 -23 9 -27 17 -56 17 -66 0 -10 12 -44 26 -75 14 -31 30 -77 34 -102
12 -63 41 -171 54 -199 13 -28 14 -150 2 -205 -6 -26 -5 -37 1 -33 6 4 13 25
17 47 3 22 10 40 15 40 17 0 22 -37 12 -81 -6 -24 -10 -55 -10 -69 1 -21 3
-19 11 10 14 50 33 65 24 20 -4 -19 -9 -53 -11 -75 -4 -40 -4 -40 8 7 20 76
30 70 23 -14 -5 -52 -3 -78 4 -78 5 0 10 16 10 35 0 19 4 35 8 35 5 0 5 -30 0
-66 -5 -36 -7 -73 -5 -82 2 -10 7 11 12 45 10 80 30 100 44 46 6 -21 8 -60 6
-88 -3 -34 -1 -42 4 -25 4 14 13 24 19 23 16 -4 15 0 -13 90 -31 98 -31 109 0
74 39 -41 40 -33 4 20 -18 26 -28 48 -23 50 10 3 -58 152 -74 162 -5 3 -16 26
-23 51 -7 25 -21 54 -31 66 -14 16 -16 26 -9 45 l9 24 12 -30 c6 -16 17 -36
23 -43 7 -8 20 -35 29 -61 9 -25 17 -38 17 -28 1 9 4 17 9 17 19 -1 32 -19 41
-60 6 -25 17 -63 26 -85 l15 -40 -5 48 c-2 26 -3 47 -1 47 12 0 56 -93 56
-118 0 -16 5 -43 11 -61 6 -18 9 -34 6 -37 -3 -3 -11 14 -18 38 -12 41 -49 95
-49 71 0 -6 7 -18 15 -27 8 -8 15 -18 15 -23 0 -4 16 -40 36 -80 20 -40 37
-92 39 -115 2 -23 8 -44 14 -46 19 -6 41 19 41 45 0 21 3 23 14 14 20 -16 27
9 15 51 -12 44 -10 71 3 33 14 -41 15 -41 38 -20 20 18 21 18 49 -9 35 -34 66
-31 65 4 0 14 -3 57 -7 95 l-6 70 19 -50 c10 -27 19 -59 19 -70 2 -35 22 -96
30 -90 5 2 3 22 -5 42 -7 21 -13 51 -14 67 l0 29 20 -26 c18 -22 72 -57 89
-57 3 0 -15 21 -41 48 -34 35 -44 52 -39 66 7 17 9 16 38 -8 17 -14 37 -26 44
-26 7 0 -2 13 -21 29 -30 25 -33 31 -21 45 11 13 11 16 0 16 -11 0 -14 24 -12
122 2 81 0 116 -6 103 -7 -15 -10 -1 -12 53 -3 90 -4 108 -14 206 -5 54 -4 76
4 72 5 -4 13 -23 17 -42 4 -22 10 -31 14 -24 17 27 29 -49 18 -115 -5 -37 -7
-69 -5 -72 3 -3 9 23 13 57 10 90 26 53 18 -42 -4 -52 -3 -78 4 -78 6 0 13
-10 15 -22 3 -14 5 -9 6 15 0 20 5 37 10 37 5 0 9 -41 9 -92 -1 -61 3 -93 10
-96 7 -2 12 -12 12 -23 0 -10 5 -19 10 -19 6 0 10 -7 10 -15 0 -8 4 -15 9 -15
9 0 5 97 -5 128 -6 20 -22 14 -27 -10 -2 -13 -5 -3 -5 22 -1 32 1 41 8 30 8
-12 10 -9 10 13 0 41 16 32 36 -20 10 -27 35 -78 56 -115 21 -36 38 -71 38
-77 0 -6 5 -11 10 -11 14 0 12 11 -5 34 -25 33 -17 41 13 13 15 -15 35 -27 43
-27 10 1 9 3 -3 11 -10 5 -18 17 -18 25 0 9 -13 29 -30 44 -36 34 -39 60 -7
61 22 0 22 0 1 9 -26 10 -68 66 -60 79 4 5 -3 26 -15 46 -16 27 -24 33 -30 23
-5 -8 -3 -17 6 -24 8 -6 15 -20 15 -30 0 -11 13 -35 30 -54 30 -36 39 -57 19
-44 -6 3 -15 1 -19 -5 -4 -8 -11 0 -19 21 -7 18 -21 53 -31 78 -9 25 -26 70
-35 100 -10 30 -26 65 -36 78 -10 13 -21 36 -24 52 -4 17 -13 30 -21 30 -16 0
-29 42 -21 72 4 14 -8 50 -33 101 -22 44 -40 90 -40 104 0 39 -32 153 -42 153
-6 0 -8 -17 -4 -42 3 -24 8 -68 12 -98 l6 -55 -21 30 c-11 17 -33 58 -47 93
-26 59 -54 87 -40 40 18 -61 19 -88 3 -88 -8 0 -17 -6 -20 -12 -6 -17 -38 58
-45 105 -2 20 -9 37 -14 37 -12 0 -1 -72 17 -117 7 -17 24 -39 38 -47 27 -18
51 -100 45 -151 l-3 -30 -22 36 c-13 20 -23 39 -23 42 0 3 10 3 23 0 l22 -5
-21 16 c-12 8 -30 35 -39 58 -13 30 -20 38 -22 25 -3 -10 4 -32 14 -50 12 -20
17 -41 13 -57 -5 -23 -7 -22 -24 20 -10 25 -26 70 -36 102 -18 56 -66 153 -55
111 3 -12 1 -41 -5 -63 -9 -34 -8 -46 3 -64 9 -12 13 -34 10 -49 -3 -16 -1
-27 6 -27 6 0 11 13 11 29 0 17 4 32 9 35 4 3 6 -25 3 -63 -3 -45 -1 -71 7
-75 6 -4 11 -25 11 -47 0 -53 17 -49 26 6 3 25 10 45 14 45 9 0 60 -131 58
-150 -9 -96 14 -211 38 -187 5 4 3 12 -4 16 -16 10 -29 121 -15 121 6 0 15
-10 21 -22 6 -13 11 -17 11 -9 1 7 21 -6 46 -30 33 -32 45 -52 45 -72 0 -29
-1 -29 -46 22 -63 70 -69 56 -7 -16 28 -33 50 -69 51 -83 0 -14 4 -40 7 -57 6
-32 -6 -45 -20 -23 -4 6 -11 8 -16 4 -5 -3 -8 -2 -7 3 4 13 -32 73 -43 73 -8
0 -8 -5 1 -15 6 -8 9 -23 5 -34 -4 -15 6 -31 42 -65 26 -25 43 -46 38 -46 -5
0 -21 12 -37 27 -34 33 -44 26 -24 -18 8 -19 15 -27 15 -19 1 9 9 3 21 -15 24
-36 25 -46 5 -39 -8 4 -15 12 -15 20 0 8 -6 14 -14 14 -14 0 -36 50 -72 162
-19 62 -32 73 -16 14 6 -20 7 -36 3 -36 -9 0 -29 -110 -20 -115 3 -3 12 16 19
41 18 62 29 38 18 -39 -5 -34 -5 -73 0 -87 4 -14 5 -43 2 -64 -4 -35 -6 -37
-19 -23 -7 10 -22 17 -32 17 -18 0 -34 33 -27 56 1 5 -10 27 -24 50 -28 44
-51 114 -46 142 1 9 -2 19 -7 22 -6 3 -11 -5 -13 -17 -5 -32 -17 -28 -32 9
-16 41 -60 138 -71 158 -5 8 -11 20 -12 25 -37 113 -56 160 -64 158 -11 -2
-73 180 -73 215 0 14 -4 21 -11 17 -6 -4 -8 -14 -5 -22 3 -8 -1 -27 -9 -43 -8
-16 -15 -39 -15 -51 0 -22 0 -22 -15 -3 -14 19 -14 18 -9 -2 3 -12 19 -36 35
-53 21 -24 31 -46 35 -84 3 -29 10 -56 15 -61 5 -6 9 -24 10 -40 1 -17 5 -42
9 -56 5 -14 6 15 3 70 -4 86 -3 93 11 76 11 -14 14 -31 9 -63 -6 -43 13 -149
28 -159 17 -10 18 18 4 78 -17 72 -19 96 -7 82 5 -5 14 -34 21 -64 6 -30 19
-69 27 -85 9 -17 34 -65 56 -107 22 -43 43 -78 48 -78 11 0 55 -88 48 -96 -21
-20 -126 120 -144 191 -3 12 -16 28 -30 35 -13 7 -26 21 -29 31 -3 10 -12 16
-19 13 -9 -3 -28 24 -56 77 -23 45 -53 97 -66 116 -25 37 -49 110 -60 183 -4
25 -18 58 -31 73 -12 16 -23 39 -23 51 0 12 -5 27 -10 32 -13 13 39 36 120 54
30 6 78 22 105 35 28 13 66 30 85 38 19 8 51 22 70 30 19 9 64 26 100 38 36
12 70 26 76 30 6 5 19 7 28 3 11 -4 15 -2 11 7 -3 8 8 21 26 32 38 21 60 22
53 2 -4 -8 -2 -15 4 -15 5 0 12 6 15 13 3 9 21 12 58 10 48 -3 59 1 99 30 l45
34 -1 64 c-2 130 -3 134 -33 169 -24 28 -32 33 -42 23 -10 -10 -8 -18 13 -40
39 -41 52 -80 37 -116 -12 -29 -13 -29 -21 -7 -5 13 -6 32 -2 42 13 42 -42
108 -90 108 -28 0 -17 -20 18 -35 20 -8 36 -24 40 -37 9 -34 7 -191 -3 -206
-13 -21 -47 -10 -42 13 10 56 3 152 -12 182 -20 37 -29 44 -63 48 -25 2 -25 2
9 -31 29 -29 36 -44 42 -93 5 -42 2 -68 -9 -94 -8 -21 -17 -37 -20 -37 -3 0
-5 24 -5 53 1 85 -11 132 -43 171 -35 43 -55 46 -68 10 -12 -31 -13 -44 -1
-25 7 10 13 11 30 2 27 -15 27 -25 -4 -45 -32 -21 -38 -20 -30 4 4 14 2 20 -9
20 -22 0 -30 -19 -15 -36 6 -8 10 -16 8 -18 -2 -1 -44 -24 -92 -50 -71 -38
-95 -47 -119 -42 -26 5 -29 4 -18 -9 19 -23 -13 -20 -33 3 -21 23 -22 46 -2
62 8 7 15 17 15 22 0 5 -14 -7 -31 -27 -18 -20 -34 -33 -37 -31 -3 3 1 12 7
20 7 8 10 20 6 25 -3 6 2 25 11 43 22 44 24 45 34 28 6 -10 3 -21 -8 -35 -16
-20 21 14 128 115 l55 52 -64 -51 c-36 -28 -67 -48 -70 -45 -3 3 3 12 13 20
11 8 15 14 8 14 -8 0 -7 11 5 34 9 20 21 32 28 29 7 -2 16 1 21 8 4 8 3 10 -4
5 -30 -18 -7 20 34 57 26 23 77 83 113 132 85 115 95 132 40 71 -24 -27 -50
-61 -57 -75 -7 -14 -28 -44 -47 -66 -29 -34 -34 -37 -35 -19 0 12 7 27 15 34
8 6 17 22 21 33 3 12 16 33 29 47 12 14 30 39 40 55 l17 30 -28 -31 c-63 -68
-120 -140 -137 -174 -11 -19 -27 -44 -37 -55 -9 -11 -20 -28 -23 -38 -4 -10
-20 -23 -36 -28 -16 -6 -31 -19 -34 -30 -3 -10 -1 -17 4 -13 12 7 11 2 -4 -32
-20 -48 -48 -84 -64 -84 -13 0 -13 3 1 25 24 37 20 39 -19 8 -19 -15 -39 -28
-44 -28 -15 0 -126 -118 -123 -131 1 -7 -3 -16 -9 -20 -9 -5 -10 -2 -6 9 4 10
1 17 -5 17 -17 0 203 205 221 206 32 3 36 6 18 12 -15 6 -12 14 25 53 24 24
59 65 78 89 19 24 46 56 59 70 13 14 39 50 59 80 19 30 53 74 76 98 22 24 53
62 68 85 15 23 31 47 35 52 5 6 19 27 33 48 14 20 31 35 37 32 15 -5 37 31 29
50 -2 7 2 21 9 32 8 10 15 13 15 8 0 -6 -3 -15 -7 -21 -5 -5 -2 -4 6 3 8 7 15
20 16 30 1 23 54 113 66 113 5 0 2 -11 -7 -25 -9 -14 -14 -28 -11 -32 8 -7
-14 -49 -79 -150 -29 -45 -51 -83 -48 -85 2 -3 -12 -23 -31 -45 -19 -23 -35
-45 -35 -49 0 -14 42 32 66 71 12 22 43 57 68 78 25 20 56 60 70 87 35 69 86
141 95 136 15 -9 50 38 86 116 42 92 45 114 5 38 -32 -61 -39 -63 -15 -5 9 20
18 53 21 73 10 80 12 90 25 113 7 13 14 33 15 44 1 11 5 31 10 45 10 35 -2 21
-21 -24 -11 -25 -12 -35 -4 -30 8 4 9 3 5 -5 -4 -6 -12 -8 -18 -5 -8 5 -9 1
-4 -12 4 -10 4 -15 0 -11 -4 4 -13 -1 -21 -11 -12 -16 -12 -15 -5 3 16 41 52
121 62 137 5 10 14 34 19 55 5 21 19 74 30 118 34 132 46 375 23 460 -7 23
-26 56 -44 74 -48 49 -137 113 -151 108 -7 -2 -29 2 -51 9 -21 8 -39 14 -40
13 0 0 -12 -5 -26 -10z m150 -1075 c-41 -71 -55 -90 -44 -59 9 24 73 125 79
125 2 0 -14 -30 -35 -66z m-50 -89 c0 -2 -14 -18 -31 -36 -20 -20 -28 -37 -24
-48 4 -11 3 -13 -5 -5 -15 15 2 57 32 78 24 17 28 19 28 11z m-14 -93 c-18
-16 -18 -16 -6 6 6 13 14 21 18 18 3 -4 -2 -14 -12 -24z m-37 -57 c-12 -19
-25 -38 -30 -41 -5 -3 -9 -12 -9 -21 0 -22 -63 -119 -68 -104 -6 18 107 201
124 201 2 0 -6 -16 -17 -35z m-149 -149 c0 -3 -4 -8 -10 -11 -5 -3 -10 -1 -10
4 0 6 5 11 10 11 6 0 10 -2 10 -4z m-440 -656 c0 -5 -5 -10 -11 -10 -5 0 -7 5
-4 10 3 6 8 10 11 10 2 0 4 -4 4 -10z m-70 -109 c0 -11 -82 -52 -89 -45 -9 9
52 54 72 54 9 0 17 -4 17 -9z m610 -13 c0 -7 -5 -20 -10 -28 -8 -12 -10 -9
-10 13 0 15 5 27 10 27 6 0 10 -6 10 -12z m-734 -44 c-5 -14 -4 -15 9 -4 9 7
18 10 21 7 3 -3 -3 -12 -15 -19 -12 -7 -21 -17 -21 -22 0 -6 -15 -26 -32 -45
-25 -27 -26 -30 -5 -12 16 14 27 19 27 12 0 -8 12 -2 30 12 30 26 68 43 76 35
7 -8 -84 -68 -143 -94 -51 -23 -182 -63 -207 -64 -5 0 1 11 14 25 12 13 26 22
30 20 3 -2 28 14 54 35 44 37 76 46 59 17 -4 -7 0 -6 10 2 9 7 17 20 17 27 0
8 11 19 24 24 13 5 28 15 32 22 5 9 2 9 -12 -2 -12 -9 -11 -5 5 13 28 31 36
34 27 11z m63 -11 c-21 -26 -63 -62 -72 -63 -13 0 36 57 58 68 28 15 29 14 14
-5z m121 -33 c0 -5 -2 -10 -4 -10 -3 0 -8 5 -11 10 -3 6 -1 10 4 10 6 0 11 -4
11 -10z m-330 -45 c-13 -14 -28 -25 -34 -25 -5 0 3 13 19 30 16 16 31 28 33
25 3 -3 -5 -16 -18 -30z m450 -220 c0 -14 -4 -25 -10 -25 -11 0 -14 33 -3 43
11 11 13 8 13 -18z m215 -85 c26 -41 35 -108 13 -94 -8 5 -9 2 -3 -12 13 -28
18 -124 7 -124 -18 0 -44 39 -39 60 3 11 1 23 -4 26 -5 3 -9 35 -8 72 l0 67
19 -40 c17 -34 18 -36 13 -10 -3 17 -12 45 -20 63 -18 44 -9 40 22 -8z m-165
-37 c0 -5 -5 -15 -10 -23 -8 -12 -10 -11 -10 8 0 12 5 22 10 22 6 0 10 -3 10
-7z m234 -38 l6 -30 -15 25 c-8 14 -14 32 -15 40 0 23 17 -2 24 -35z m-544
-51 c0 -32 -4 -44 -12 -42 -16 5 -22 41 -14 74 10 38 26 18 26 -32z m390 -14
c0 -9 5 -21 12 -28 6 -6 14 -31 18 -54 4 -32 10 -42 21 -40 9 1 22 -5 29 -13
7 -8 20 -15 30 -15 18 0 30 -19 30 -48 -1 -12 -12 -4 -35 23 -40 46 -48 33 -9
-17 22 -28 21 -27 -9 5 -19 20 -39 37 -44 37 -6 0 -16 15 -23 33 -17 46 -41
108 -51 135 -13 34 -11 37 11 17 11 -10 20 -26 20 -35z m140 40 c0 -5 -4 -10
-10 -10 -5 0 -10 5 -10 10 0 6 5 10 10 10 6 0 10 -4 10 -10z m0 -97 c0 -36 -2
-64 -5 -61 -10 10 -14 128 -4 128 5 0 9 -30 9 -67z m-487 -15 c3 -11 -1 -30
-9 -42 -13 -19 -14 -18 -14 22 0 44 14 57 23 20z m455 -47 c3 -8 -1 -12 -9 -9
-7 2 -15 10 -17 17 -3 8 1 12 9 9 7 -2 15 -10 17 -17z m176 -131 c7 -24 6 -24
-8 -6 -11 13 -16 15 -16 6 0 -7 -3 -11 -6 -7 -3 3 -3 15 1 27 8 25 20 17 29
-20z m-37 -52 c-3 -7 -5 -2 -5 12 0 14 2 19 5 13 2 -7 2 -19 0 -25z m-642
-103 c8 -49 -9 -28 -20 25 -5 24 -4 32 3 25 6 -5 13 -28 17 -50z m65 -121 c0
-8 -4 -14 -9 -14 -11 0 -17 18 -26 75 l-6 40 20 -44 c12 -24 21 -49 21 -57z
m-46 61 c3 -8 1 -15 -4 -15 -6 0 -10 7 -10 15 0 8 2 15 4 15 2 0 6 -7 10 -15z
m443 -91 c-9 -9 -28 6 -21 18 4 6 10 6 17 -1 6 -6 8 -13 4 -17z m-2 -151 c-3
-18 -11 -33 -17 -33 -11 0 -2 146 11 165 8 14 14 -92 6 -132z m-177 65 c7 -7
10 -19 6 -32 -4 -11 -7 -33 -6 -48 0 -16 -3 -28 -8 -28 -9 0 -20 35 -20 68 0
12 -4 22 -10 22 -5 0 -14 10 -21 21 -10 20 -9 21 17 15 16 -4 35 -12 42 -18z
m46 -147 c-7 -8 -12 4 -18 44 l-5 40 13 -40 c7 -22 12 -42 10 -44z"/>
<path d="M1219 2459 l-24 -20 28 17 c15 9 27 18 27 20 0 8 -8 4 -31 -17z"/>
<path d="M2469 4853 l-24 -27 33 23 c32 23 39 31 24 31 -5 0 -19 -12 -33 -27z"/>
<path d="M2504 4829 c-22 -24 -24 -29 -8 -21 24 13 49 40 42 47 -2 3 -18 -9
-34 -26z"/>
<path d="M2750 4845 c0 -8 5 -15 10 -15 6 0 10 7 10 15 0 8 -4 15 -10 15 -5 0
-10 -7 -10 -15z"/>
<path d="M2695 4830 c-3 -5 -2 -10 4 -10 5 0 13 5 16 10 3 6 2 10 -4 10 -5 0
-13 -4 -16 -10z"/>
<path d="M3001 4811 c-18 -17 -37 -31 -42 -31 -5 0 -9 -4 -9 -10 0 -13 6 -13
33 1 43 23 65 45 58 58 -6 9 -17 3 -40 -18z"/>
<path d="M3060 4811 c0 -5 9 -19 20 -32 15 -19 19 -21 20 -7 0 9 -7 24 -16 32
-18 18 -24 20 -24 7z"/>
<path d="M2560 4796 c0 -9 5 -16 10 -16 6 0 10 4 10 9 0 6 -4 13 -10 16 -5 3
-10 -1 -10 -9z"/>
<path d="M2995 4758 c-2 -7 -5 -22 -7 -33 -3 -19 -10 -20 -98 -18 -52 2 -108
8 -123 14 -15 7 -31 8 -35 5 -12 -13 27 -34 76 -41 26 -4 54 -14 62 -25 27
-32 57 -34 85 -6 14 14 30 26 34 26 14 0 28 23 34 58 5 25 3 32 -9 32 -8 0
-16 -6 -19 -12z"/>
<path d="M3135 4750 c3 -5 13 -10 21 -10 8 0 14 5 14 10 0 6 -9 10 -21 10 -11
0 -17 -4 -14 -10z"/>
<path d="M7375 4709 c-4 -6 -11 -23 -15 -37 l-8 -27 -1 28 c-1 33 -21 36 -21
3 0 -14 -4 -28 -10 -31 -6 -4 -10 8 -10 30 0 22 -4 34 -10 30 -5 -3 -10 -34
-11 -68 0 -44 -3 -56 -9 -42 -5 11 -9 32 -9 48 -1 24 -21 41 -21 17 0 -5 -6
-7 -14 -4 -19 7 -25 -22 -13 -64 4 -18 7 -43 4 -55 -3 -21 -4 -21 -11 -2 -12
30 -43 117 -50 139 -5 13 -10 16 -17 9 -14 -14 38 -170 59 -178 8 -3 22 1 31
9 9 7 26 17 39 20 12 4 22 11 22 16 0 5 16 17 35 26 34 16 60 15 128 -2 21 -5
32 -2 43 12 15 18 15 18 11 -3 -6 -27 1 -29 18 -6 12 16 12 14 8 -10 -6 -29 5
-35 26 -14 10 10 11 8 5 -7 -6 -16 -4 -18 9 -13 15 5 16 3 7 -13 -15 -27 -13
-32 13 -28 19 3 22 9 23 45 0 24 3 45 7 49 3 3 -1 13 -9 21 -12 12 -18 13 -29
3 -17 -14 -19 -7 -5 20 9 17 7 19 -22 17 -18 -1 -39 -6 -46 -11 -10 -6 -11 -1
-6 18 5 21 3 25 -10 20 -10 -4 -16 -1 -16 7 -1 10 -5 9 -14 -3 -19 -25 -23
-22 -18 12 7 47 -26 34 -66 -26 -11 -17 -12 -14 -7 19 6 37 2 47 -10 26z"/>
<path d="M2627 4693 c-4 -3 -7 -13 -7 -22 1 -13 3 -13 11 2 11 19 8 33 -4 20z"/>
<path d="M7907 4664 c-20 -27 -19 -28 17 -14 15 5 28 6 31 0 5 -9 -2 -17 -40
-45 -19 -15 -19 -15 7 -9 41 9 55 -5 27 -28 l-24 -19 28 7 c32 7 39 -15 7 -23
-11 -3 -17 -9 -15 -14 3 -4 13 -5 22 -2 13 5 15 2 10 -17 -3 -13 -1 -33 6 -44
11 -20 12 -19 17 14 4 19 3 43 -2 52 -5 10 -4 19 2 23 8 5 7 11 -1 21 -6 8 -8
14 -3 14 4 0 -2 10 -14 23 -15 15 -19 26 -12 33 7 7 1 17 -18 31 l-27 20 -18
-23z"/>
<path d="M1587 4622 c-60 -63 -65 -72 -44 -72 16 0 110 107 105 121 -2 6 -29
-16 -61 -49z"/>
<path d="M2720 4660 c0 -5 5 -10 10 -10 6 0 10 5 10 10 0 6 -4 10 -10 10 -5 0
-10 -4 -10 -10z"/>
<path d="M2570 4610 c0 -5 5 -10 10 -10 6 0 10 5 10 10 0 6 -4 10 -10 10 -5 0
-10 -4 -10 -10z"/>
<path d="M6844 4608 c-3 -4 3 -8 13 -8 13 -1 10 -5 -11 -17 l-30 -16 23 -19
c13 -10 22 -20 20 -21 -2 -1 -12 -6 -22 -12 -24 -13 -27 -29 -6 -33 22 -4 55
46 40 61 -18 18 -13 37 9 37 11 0 20 4 20 8 0 12 80 12 104 0 20 -10 20 -10 3
8 -14 15 -33 19 -88 20 -38 0 -72 -3 -75 -8z"/>
<path d="M2225 4600 c-3 -5 1 -10 9 -10 9 0 16 5 16 10 0 6 -4 10 -9 10 -6 0
-13 -4 -16 -10z"/>
<path d="M2510 4591 c0 -5 5 -13 10 -16 6 -3 10 -2 10 4 0 5 -4 13 -10 16 -5
3 -10 2 -10 -4z"/>
<path d="M2870 4575 c0 -8 4 -15 10 -15 5 0 7 7 4 15 -4 8 -8 15 -10 15 -2 0
-4 -7 -4 -15z"/>
<path d="M2975 4581 c-3 -5 -1 -12 5 -16 5 -3 10 1 10 9 0 18 -6 21 -15 7z"/>
<path d="M3178 4553 c-31 -36 -38 -59 -24 -78 24 -33 46 -12 46 45 0 27 -2 50
-3 50 -2 0 -11 -8 -19 -17z"/>
<path d="M2540 4539 c0 -11 4 -18 10 -14 5 3 7 12 3 20 -7 21 -13 19 -13 -6z"/>
<path d="M2686 4534 c-8 -22 -7 -34 3 -34 5 0 11 11 13 25 6 28 -6 34 -16 9z"/>
<path d="M2357 4533 c-4 -3 -7 -11 -7 -17 0 -6 5 -5 12 2 6 6 9 14 7 17 -3 3
-9 2 -12 -2z"/>
<path d="M1902 4498 c-14 -14 -16 -45 -2 -53 11 -7 70 34 70 49 0 5 -10 0 -23
-12 -30 -29 -40 -28 -35 3 6 29 6 29 -10 13z"/>
<path d="M1487 4493 c-10 -9 -9 -23 2 -23 5 0 11 7 15 15 5 15 -5 20 -17 8z"/>
<path d="M2805 4490 c-3 -5 -1 -10 4 -10 6 0 11 5 11 10 0 6 -2 10 -4 10 -3 0
-8 -4 -11 -10z"/>
<path d="M2023 4464 c-8 -22 5 -30 23 -12 14 14 14 16 -1 21 -9 4 -18 1 -22
-9z"/>
<path d="M2913 4458 c-61 -68 -230 -344 -218 -356 9 -9 43 42 84 125 39 76 66
116 140 204 17 20 31 39 31 43 0 13 -17 5 -37 -16z"/>
<path d="M1770 4440 c-40 -35 -54 -38 -47 -10 7 27 -10 26 -18 -1 -12 -38 11
-45 54 -15 22 15 42 34 45 42 7 18 7 18 -34 -16z"/>
<path d="M1456 4451 c-4 -7 -5 -15 -2 -18 9 -9 19 4 14 18 -4 11 -6 11 -12 0z"/>
<path d="M2532 4420 c-5 -22 -6 -42 -2 -45 7 -4 22 76 16 83 -2 1 -8 -15 -14
-38z"/>
<path d="M6767 4453 c-13 -12 -7 -33 8 -33 24 0 18 -16 -11 -29 -25 -11 -25
-13 -10 -30 15 -16 15 -19 1 -31 -19 -16 -19 -34 0 -50 9 -7 13 -21 10 -30 -4
-13 3 -22 24 -33 16 -8 32 -12 35 -9 12 12 5 42 -10 42 -11 0 -14 6 -9 20 4
14 2 20 -9 20 -24 0 -29 20 -11 40 14 15 15 23 6 33 -8 11 -7 18 8 31 27 24
25 66 -4 66 -12 0 -25 -3 -28 -7z"/>
<path d="M7692 4437 c-28 -12 -50 -26 -49 -32 2 -5 25 -10 50 -9 57 0 61 -9
10 -22 -48 -11 -49 -27 -3 -35 l35 -6 -43 -2 c-42 -1 -53 -21 -11 -21 10 0 19
-4 19 -10 0 -5 -5 -9 -12 -7 -7 1 -12 -2 -13 -8 0 -5 -4 -15 -8 -21 -10 -16
18 -37 41 -30 23 8 65 63 57 76 -3 5 -1 11 5 15 5 3 10 17 10 30 0 13 5 27 10
30 15 9 12 25 -4 25 -8 0 -17 11 -20 25 -7 29 -6 29 -74 2z"/>
<path d="M7053 4427 c20 -17 22 -29 5 -26 -41 5 -55 -30 -20 -50 16 -10 16
-10 0 -11 -10 0 -18 -4 -18 -9 0 -5 8 -11 18 -14 13 -3 11 -6 -12 -16 -28 -11
-28 -11 -10 -39 21 -33 53 -62 68 -62 6 0 22 7 35 16 16 12 21 22 16 38 -13
44 -13 56 -4 61 14 9 11 18 -16 47 -24 26 -24 27 -5 33 20 6 26 20 13 28 -5 2
-26 7 -48 11 -35 6 -38 5 -22 -7z"/>
<path d="M2703 4399 c-13 -34 -33 -31 -34 4 0 22 0 22 -10 -1 -18 -47 17 -58
50 -16 22 28 27 44 13 44 -4 0 -13 -14 -19 -31z"/>
<path d="M1568 4395 c-6 -14 -9 -28 -6 -31 8 -8 46 18 53 35 4 10 -1 8 -16 -5
-22 -19 -22 -19 -17 4 8 29 0 28 -14 -3z"/>
<path d="M7965 4397 c-13 -10 -15 -16 -6 -21 9 -6 7 -12 -6 -22 -11 -8 -13
-13 -5 -14 21 0 13 -18 -10 -22 -16 -2 -22 -9 -20 -21 2 -9 -4 -20 -12 -23 -9
-3 -14 -10 -11 -15 3 -4 13 -5 22 -2 11 4 14 2 11 -8 -2 -7 -24 -18 -49 -24
-29 -7 -45 -17 -47 -29 -2 -10 -9 -15 -18 -12 -8 3 -14 1 -14 -3 0 -22 50 -15
70 8 3 3 23 15 45 26 34 17 40 25 40 53 0 18 6 36 13 41 7 4 14 25 15 47 1 21
7 42 12 46 7 5 6 8 -1 8 -5 0 -18 -6 -29 -13z"/>
<path d="M7497 4393 c-15 -15 -5 -23 21 -17 41 10 51 24 16 24 -17 0 -34 -3
-37 -7z"/>
<path d="M1393 4358 c-36 -70 -81 -164 -88 -188 -4 -14 -31 -79 -61 -146 -30
-67 -54 -126 -54 -133 0 -6 -7 -23 -16 -36 -9 -14 -14 -25 -11 -25 3 0 -8 -33
-24 -72 -33 -81 -51 -147 -42 -161 3 -5 20 6 39 24 19 18 36 31 38 28 3 -2
-16 -50 -41 -107 -26 -56 -44 -105 -41 -108 7 -6 58 24 70 40 4 6 10 8 13 4
10 -10 53 16 76 46 26 33 18 45 -12 17 -20 -18 -109 -56 -109 -46 0 3 12 30
26 62 28 63 46 133 33 133 -4 0 -22 -19 -40 -41 -19 -24 -35 -37 -37 -30 -5
14 39 123 74 186 12 22 25 58 29 80 6 35 29 88 75 175 25 47 30 60 30 74 0 20
76 183 100 213 24 30 25 43 5 43 -8 0 -22 -15 -32 -32z"/>
<path d="M7280 4380 c0 -5 13 -10 29 -10 17 0 33 5 36 10 4 6 -8 10 -29 10
-20 0 -36 -4 -36 -10z"/>
<path d="M1961 4329 c-18 -24 -25 -28 -37 -18 -11 9 -16 7 -23 -12 -13 -34 4
-47 30 -23 27 24 62 74 57 79 -2 3 -15 -9 -27 -26z"/>
<path d="M2627 4293 c-9 -9 -9 -43 1 -43 4 0 18 -3 32 -7 22 -6 24 -5 12 10
-8 9 -19 15 -25 14 -7 -1 -11 6 -9 16 3 18 0 21 -11 10z"/>
<path d="M7396 4271 c-20 -22 -14 -41 13 -41 24 0 40 18 34 41 -7 24 -25 24
-47 0z"/>
<path d="M7210 4231 c0 -17 76 -59 125 -69 28 -6 58 -14 68 -17 11 -5 17 -2
17 7 0 9 -21 17 -61 25 -35 7 -74 22 -94 37 -34 26 -55 33 -55 17z"/>
<path d="M7531 4204 c-24 -13 -49 -25 -55 -27 -6 -2 -8 -7 -5 -11 8 -8 119 43
119 55 0 12 -8 10 -59 -17z"/>
<path d="M2089 4159 c-18 -29 -48 -67 -67 -84 -22 -22 -29 -36 -22 -40 11 -7
69 50 70 67 0 14 52 68 60 63 12 -8 21 11 14 29 -10 26 -20 19 -55 -35z"/>
<path d="M7680 4188 c0 -18 42 -108 51 -108 11 0 79 -106 79 -124 0 -9 11 -18
25 -22 33 -8 36 -47 3 -42 -19 2 -24 -2 -26 -27 -2 -16 -15 -38 -28 -50 -13
-11 -24 -29 -24 -39 0 -18 -1 -18 -19 -2 -22 20 -36 7 -26 -25 6 -18 5 -19
-14 -10 -17 9 -22 8 -31 -10 -7 -11 -9 -27 -6 -35 7 -18 -8 -18 -24 1 -7 8
-17 12 -24 8 -6 -4 -19 -6 -28 -5 -12 2 -18 -5 -20 -25 l-4 -28 -13 27 c-15
30 -31 28 -31 -3 0 -25 -16 -25 -23 1 -6 23 -27 27 -27 5 0 -8 -4 -15 -10 -15
-5 0 -10 8 -10 18 0 12 -9 18 -30 19 -26 2 -30 -1 -30 -23 0 -14 -7 -32 -15
-40 -10 -11 -13 -27 -8 -59 3 -25 2 -45 -3 -45 -5 0 -35 21 -67 46 l-59 46 23
26 c37 42 49 50 67 46 9 -2 28 4 41 14 19 16 25 33 33 93 15 127 21 239 11
239 -12 0 -32 -122 -37 -223 -2 -55 -8 -84 -20 -95 -15 -15 -16 -15 -16 5 0
29 -34 36 -51 10 -8 -11 -22 -27 -31 -36 -10 -8 -18 -23 -18 -33 0 -10 -4 -18
-8 -18 -5 0 -7 14 -4 30 5 35 -5 40 -18 8 -8 -22 -9 -21 -10 7 l0 30 -21 -25
-21 -25 6 28 c5 20 3 27 -9 27 -8 0 -15 5 -15 11 0 26 -19 -6 -30 -51 -12 -48
-12 -49 -43 -42 -18 4 -75 7 -127 6 -77 0 -109 -6 -169 -27 -41 -15 -77 -27
-79 -27 -5 0 3 51 14 89 5 17 3 22 -6 19 -8 -2 -21 -31 -30 -64 -19 -69 -15
-66 -246 -174 -113 -53 -177 -76 -253 -92 -55 -12 -104 -18 -108 -13 -5 4 -2
10 5 12 53 19 150 127 203 226 21 41 98 121 164 173 54 42 162 74 250 73 39 0
89 0 112 0 25 1 45 -4 50 -12 4 -8 16 -16 26 -20 9 -3 17 -14 17 -23 0 -15 4
-13 26 7 l26 24 -7 -30 c-11 -44 -17 -47 -79 -40 -40 5 -57 12 -61 25 -3 10
-15 20 -27 24 -28 7 -38 -3 -15 -15 9 -6 17 -14 17 -19 0 -8 -8 -11 -62 -26
-11 -3 -18 0 -18 9 0 18 -78 69 -86 56 -7 -12 -8 -11 29 -27 19 -8 27 -18 23
-27 -3 -8 0 -15 7 -15 7 -1 -13 -14 -43 -30 -36 -19 -69 -29 -95 -28 -22 0
-71 -11 -109 -26 -37 -14 -78 -27 -90 -27 -18 -1 -19 -2 -2 -6 10 -3 51 7 92
22 102 37 120 30 50 -20 -49 -35 -67 -55 -51 -55 3 0 29 18 57 41 78 61 178
107 289 133 44 10 161 -10 217 -37 28 -14 52 -21 52 -17 0 5 -8 13 -17 19 -14
7 -15 13 -6 21 8 9 16 7 32 -9 12 -12 26 -21 31 -21 16 0 23 27 16 56 -7 25
-8 26 -22 8 -15 -18 -15 -18 -11 4 7 29 -1 28 -35 -5 l-28 -27 0 39 0 38 -22
-19 c-20 -18 -21 -18 -15 -1 22 61 18 84 -11 55 -9 -9 -12 -8 -12 6 0 12 -5
16 -15 12 -8 -3 -22 -9 -30 -12 -10 -4 -15 0 -15 12 1 25 107 174 124 174 7 0
33 24 57 52 80 95 50 118 -52 43 -64 -47 -79 -53 -79 -32 0 15 -35 47 -52 47
-6 0 -3 10 8 22 19 21 19 21 -6 15 -14 -4 -30 -7 -36 -7 -13 0 -13 -48 -1 -67
5 -7 17 -13 28 -13 10 0 19 -7 19 -15 0 -8 8 -18 18 -24 13 -7 30 1 75 36 32
24 69 48 83 53 22 9 24 8 14 -9 -5 -11 -31 -37 -56 -57 -44 -36 -134 -144
-134 -161 0 -4 -9 -19 -19 -33 -19 -23 -23 -24 -126 -22 -181 4 -299 -41 -406
-156 -56 -59 -149 -191 -149 -210 0 -25 -134 -132 -164 -132 -19 0 -21 -14 -3
-28 12 -10 87 -7 117 4 8 3 29 8 45 11 75 12 169 50 379 154 54 27 103 49 109
49 6 0 29 8 51 18 101 45 169 63 251 65 65 1 165 -21 165 -37 0 -5 11 1 25 14
14 13 25 18 25 12 0 -7 19 -21 43 -32 23 -11 65 -41 93 -68 l51 -47 -2 -130
c-2 -71 -7 -186 -12 -255 -5 -69 -7 -165 -5 -215 6 -134 4 -274 -5 -325 -17
-96 3 -270 22 -187 7 34 18 197 16 247 -10 268 21 355 199 548 58 63 116 130
129 150 13 21 37 56 54 80 16 24 26 46 23 49 -10 10 -32 -15 -61 -69 -26 -49
-87 -122 -221 -265 -28 -30 -66 -84 -85 -119 -19 -35 -36 -64 -39 -64 -13 0
10 455 23 466 62 54 99 77 143 90 50 14 62 14 152 -2 53 -10 121 -17 150 -17
52 1 54 0 69 -34 8 -20 12 -45 9 -57 -7 -27 11 -194 29 -266 41 -167 59 -400
39 -505 -24 -131 -127 -266 -259 -338 -85 -47 -132 -54 -241 -37 -87 14 -133
8 -141 -17 -3 -9 12 -12 54 -11 65 1 226 -13 219 -19 -2 -2 3 -32 10 -66 8
-34 16 -98 17 -142 2 -77 0 -82 -37 -142 -24 -39 -49 -66 -67 -73 -16 -7 -32
-17 -36 -23 -4 -7 0 -8 13 -3 10 5 33 12 49 16 17 4 39 11 50 14 11 4 0 -4
-25 -18 -25 -14 -55 -25 -67 -26 -13 0 -23 -4 -23 -10 0 -16 22 -11 80 19 30
15 54 34 52 41 -2 8 3 10 13 6 16 -6 64 14 95 38 12 10 97 38 220 73 10 3 9 0
-4 -11 -18 -14 -18 -15 0 -34 32 -33 155 -49 232 -32 66 15 99 36 37 23 -80
-16 -220 -2 -247 25 -12 12 1 42 18 42 28 0 109 48 164 97 133 118 161 148
154 166 -5 15 -10 12 -33 -18 -32 -43 -186 -182 -221 -200 -14 -6 -59 -20
-100 -29 -41 -10 -97 -26 -125 -35 -27 -10 -63 -22 -80 -28 -16 -5 -29 -15
-28 -21 3 -14 -34 -35 -47 -27 -5 3 -23 -1 -39 -10 -17 -8 -35 -15 -40 -15
-10 0 18 57 44 90 7 8 22 42 35 75 16 40 44 82 84 125 33 36 54 59 46 53 -8
-7 -18 -13 -22 -13 -19 0 -5 20 37 51 51 39 60 59 14 32 -51 -29 -138 -138
-150 -189 -6 -24 -14 -44 -18 -44 -4 0 -12 42 -19 93 -7 50 -16 103 -18 118
-4 20 0 27 20 37 19 8 26 8 29 -1 3 -9 7 -9 18 -1 18 15 120 39 244 60 55 9
114 23 130 31 44 21 128 53 132 50 6 -7 -66 -117 -115 -176 -29 -34 -52 -66
-52 -70 0 -4 -23 -34 -50 -65 -54 -61 -87 -116 -71 -116 6 0 18 14 27 32 9 17
35 52 58 77 112 121 226 286 226 327 0 18 66 82 170 166 48 38 88 62 239 139
107 55 132 76 169 139 19 32 28 40 30 27 6 -32 19 -18 62 70 28 57 59 103 91
134 51 49 88 120 90 167 1 34 14 69 21 56 14 -21 48 -130 48 -151 0 -31 -26
-126 -46 -168 -9 -20 -28 -43 -40 -52 -13 -8 -24 -18 -24 -22 0 -3 -34 -42
-75 -86 -80 -84 -181 -226 -204 -285 -28 -70 -104 -216 -129 -245 -25 -31 -92
-60 -172 -75 -75 -14 -142 -43 -158 -70 l-16 -25 25 23 c14 12 31 22 38 22 6
0 26 8 44 17 18 9 48 18 67 19 19 1 58 11 87 23 29 11 54 17 56 13 9 -14 -143
-238 -217 -322 -91 -102 -273 -219 -415 -267 -90 -30 -98 -31 -221 -39 -80 -5
-107 -3 -170 16 -41 12 -95 25 -120 29 -25 4 -65 19 -90 32 l-45 24 0 254 c0
180 -3 255 -11 258 -21 7 -25 -79 -9 -196 18 -135 18 -154 5 -146 -5 3 -10 22
-10 42 0 84 -18 -13 -19 -106 -1 -43 -1 -44 -21 -26 -11 10 -20 25 -21 34 0
10 -3 11 -5 4 -3 -7 -36 11 -87 49 -45 33 -92 65 -104 71 -13 6 -23 17 -23 26
0 9 -13 22 -30 29 -27 12 -81 47 -257 168 -29 20 -53 39 -53 44 0 4 -19 35
-41 69 -47 70 -56 102 -65 216 -9 110 -24 120 -24 15 l0 -84 -65 64 c-36 35
-65 62 -65 58 0 -12 113 -128 125 -128 7 0 16 -15 19 -33 3 -19 19 -54 36 -80
16 -25 25 -49 20 -52 -13 -8 -127 98 -181 168 -24 33 -53 66 -64 75 -12 10
-44 48 -73 86 -29 39 -79 98 -112 132 -32 34 -67 75 -76 91 -26 40 -176 214
-181 209 -10 -9 174 -240 283 -356 39 -41 84 -93 100 -115 41 -58 109 -138
182 -215 34 -37 62 -69 62 -72 0 -5 -116 8 -163 18 -15 3 -41 17 -57 31 -17
14 -30 20 -30 14 0 -26 70 -63 139 -73 61 -9 69 -13 62 -27 -15 -26 -60 -64
-78 -66 -24 -1 -31 -19 -10 -23 19 -4 107 74 107 96 0 23 57 7 105 -28 22 -17
53 -38 70 -47 16 -9 66 -42 110 -74 44 -32 94 -67 110 -79 17 -11 59 -42 94
-68 35 -26 74 -54 87 -62 13 -8 24 -19 24 -23 0 -5 -4 -6 -9 -3 -14 9 -172
-13 -189 -26 -9 -8 -44 -13 -91 -13 -79 0 -122 15 -168 58 -13 11 -23 16 -23
10 0 -18 44 -51 96 -71 56 -22 156 -21 204 3 35 17 168 27 208 16 65 -19 163
-123 138 -148 -10 -10 -226 -12 -323 -3 -76 7 -116 16 -152 35 -28 14 -58 25
-67 25 -37 0 -186 92 -284 175 -20 16 -51 41 -70 55 -62 44 -140 135 -140 162
0 8 -5 19 -12 26 -13 13 -34 65 -54 137 -25 89 -65 207 -84 249 -84 188 -109
244 -115 265 -11 34 -43 86 -54 86 -14 0 -71 76 -65 87 3 5 -9 26 -28 47 -18
21 -55 66 -83 100 -27 34 -64 79 -81 99 -94 113 -161 262 -149 333 4 21 9 39
11 39 3 0 15 -9 27 -21 12 -12 38 -33 57 -48 69 -52 100 -85 112 -118 13 -35
28 -44 28 -15 0 42 -64 116 -157 180 -17 12 -37 38 -43 57 -6 19 -15 35 -20
35 -18 0 -35 -69 -34 -140 1 -64 5 -83 31 -130 52 -94 99 -163 156 -227 56
-63 174 -230 214 -305 12 -22 31 -49 41 -58 10 -10 46 -82 80 -161 66 -155 76
-183 117 -328 47 -167 136 -317 220 -371 17 -10 64 -46 105 -79 82 -66 189
-126 290 -161 36 -13 74 -29 85 -36 23 -15 145 -25 315 -26 65 -1 118 -6 122
-11 3 -6 16 5 27 24 12 19 21 27 21 18 0 -12 18 -21 58 -32 31 -9 98 -30 147
-48 83 -28 97 -30 181 -25 89 5 229 40 286 71 14 8 32 15 40 16 12 0 107 57
245 146 104 68 229 232 362 478 49 90 84 149 92 155 9 7 89 141 89 150 0 4 13
25 29 47 16 22 36 54 45 71 9 18 57 74 106 124 113 118 150 187 152 284 2 42
-4 86 -14 114 -14 40 -20 61 -43 146 -8 31 -42 37 -60 11 -18 -25 -20 -61 -4
-51 8 5 10 -3 5 -27 -3 -19 -10 -61 -15 -94 -9 -52 -15 -65 -49 -95 -22 -19
-66 -73 -97 -120 -71 -105 -147 -197 -189 -228 -38 -29 -180 -98 -218 -106
-15 -4 -42 -19 -60 -34 -18 -16 -49 -38 -68 -50 -19 -11 -52 -41 -73 -66 -41
-50 -128 -112 -192 -138 -62 -26 -103 -35 -205 -48 -52 -6 -104 -13 -115 -15
-20 -3 -20 -3 0 8 57 35 143 131 184 207 39 73 44 91 51 178 9 104 8 126 -9
271 -12 96 -17 121 -45 226 -15 56 -25 290 -12 302 3 3 42 18 88 33 159 54
180 67 378 223 26 21 113 56 155 63 52 9 58 13 44 30 -14 17 -129 19 -199 3
-100 -22 -105 -21 -240 30 -92 35 -231 24 -294 -24 -33 -25 -9 -28 30 -4 64
39 219 33 296 -11 10 -6 27 -10 37 -10 11 0 22 -4 25 -9 14 -23 -168 -71 -269
-71 -39 0 -95 -7 -125 -15 -30 -9 -70 -20 -87 -24 -46 -12 -223 -103 -223
-114 0 -5 12 -2 26 8 14 9 32 14 41 11 8 -4 33 -1 54 4 37 10 110 1 207 -26
12 -4 22 -2 22 3 0 11 -147 43 -197 43 -17 0 -44 -5 -60 -11 -49 -18 -11 7 47
31 97 40 175 58 312 70 138 12 182 24 246 63 20 13 54 24 75 25 22 2 62 9 90
16 31 8 73 11 102 7 l50 -6 -56 -13 c-58 -13 -151 -71 -255 -158 -34 -29 -87
-57 -165 -88 -135 -53 -155 -58 -151 -33 2 9 -2 17 -8 17 -5 0 -10 -9 -10 -20
0 -24 -33 -25 -185 -4 -152 21 -212 18 -262 -11 -24 -13 -43 -20 -43 -16 0 9
111 145 122 149 4 2 8 10 8 18 0 19 16 18 24 -1 10 -26 29 -17 22 10 -7 29 0
32 25 9 22 -20 39 -11 32 16 -3 11 -2 28 2 37 6 16 8 16 25 -4 24 -30 30 -29
30 7 0 27 2 29 19 18 16 -10 25 -8 53 14 18 14 42 28 53 31 18 4 18 5 2 6 -11
0 -31 -8 -47 -19 -26 -18 -40 -18 -40 2 0 4 6 8 13 8 17 0 37 42 37 79 0 25 3
28 25 23 55 -10 41 45 -36 138 -47 57 -106 144 -114 170 -7 22 -25 28 -25 8z
m-710 -439 c0 -11 -4 -18 -10 -14 -5 3 -7 12 -3 20 7 21 13 19 13 -6z m541
-139 c4 0 11 9 14 20 3 11 11 20 16 20 16 0 10 -26 -12 -46 -12 -10 -43 -50
-70 -89 -28 -38 -52 -68 -55 -65 -2 3 -6 45 -8 93 -2 62 0 85 7 78 17 -17 27
-13 27 10 0 17 3 19 14 10 12 -10 17 -8 27 11 l13 23 9 -32 c6 -18 13 -33 18
-33z m279 -1503 c0 -2 -10 -12 -21 -23 -22 -19 -22 -19 -8 4 12 19 29 30 29
19z"/>
<path d="M2446 4182 c-10 -16 1 -62 15 -62 12 0 29 41 22 54 -3 4 -9 3 -13 -4
-6 -9 -9 -8 -12 6 -3 14 -6 16 -12 6z"/>
<path d="M2580 4181 c0 -5 7 -14 15 -21 12 -10 19 -10 27 -2 9 9 8 12 -5 12
-9 0 -17 5 -17 10 0 6 -4 10 -10 10 -5 0 -10 -4 -10 -9z"/>
<path d="M2925 4160 c-8 -14 9 -34 23 -29 7 3 6 11 -3 22 -9 13 -15 15 -20 7z"/>
<path d="M3007 4163 c-2 -5 -7 -20 -11 -35 -5 -21 -3 -28 8 -28 15 0 28 58 15
66 -4 2 -10 1 -12 -3z"/>
<path d="M7635 4099 c20 -55 19 -56 -10 -20 -30 35 -59 32 -52 -5 2 -13 0 -24
-4 -24 -5 0 -9 9 -9 19 0 24 -18 37 -31 24 -5 -5 -13 -29 -18 -54 -6 -31 -9
-36 -10 -16 -1 15 -6 27 -12 27 -7 0 -18 8 -25 17 -18 25 -21 17 -25 -57 l-4
-65 38 -3 c23 -2 37 1 37 9 0 7 10 9 30 6 20 -5 30 -3 30 6 0 7 14 18 31 26
36 16 99 78 99 98 0 31 -21 53 -50 53 l-29 0 14 -41z m36 -6 c13 -16 12 -17
-3 -4 -10 7 -18 15 -18 17 0 8 8 3 21 -13z m-57 -49 c3 -8 2 -12 -4 -9 -6 3
-10 10 -10 16 0 14 7 11 14 -7z m-54 -32 c0 -15 -2 -15 -10 -2 -13 20 -13 33
0 25 6 -3 10 -14 10 -23z"/>
<path d="M7101 4076 c-18 -26 -30 -50 -26 -54 4 -4 12 1 19 10 10 13 15 15 24
6 7 -7 12 -17 12 -23 0 -20 45 -40 114 -51 89 -14 112 -9 131 28 17 36 13 48
-15 41 -12 -3 -20 0 -20 7 0 7 -6 10 -14 7 -8 -3 -20 1 -26 8 -7 8 -16 12 -21
9 -5 -2 -26 0 -48 6 -29 8 -39 15 -35 25 7 17 -4 19 -25 6 -10 -7 -19 -5 -26
6 -10 14 -17 9 -44 -31z"/>
<path d="M1877 4028 c-37 -37 -72 -68 -77 -68 -5 0 -10 10 -12 23 -3 22 -3 22
-9 1 -4 -12 -3 -28 2 -35 6 -11 14 -9 36 8 15 13 55 41 87 63 36 25 60 49 61
61 3 31 -16 20 -88 -53z"/>
<path d="M2827 4064 c-3 -3 -3 -12 0 -20 7 -19 39 -18 47 2 3 9 2 12 -5 9 -5
-4 -16 -2 -23 4 -7 6 -15 8 -19 5z"/>
<path d="M2979 4063 c-1 -5 0 -20 1 -35 1 -14 -5 -30 -12 -35 -17 -11 -38 -71
-31 -89 3 -9 -2 -14 -15 -14 -17 0 -21 -9 -27 -60 -5 -43 -11 -60 -22 -60 -17
0 -47 -27 -34 -32 4 -2 11 -18 14 -35 5 -26 2 -35 -13 -43 -17 -9 -20 -21 -20
-71 0 -38 4 -58 10 -54 6 3 10 19 10 34 0 16 7 34 15 41 8 7 15 22 15 34 0 11
5 28 10 36 16 23 31 -7 19 -37 -5 -14 -9 -34 -8 -46 0 -19 2 -19 11 6 10 27
28 37 28 15 0 -6 2 -9 5 -7 2 3 -2 23 -10 44 -19 53 -18 65 2 65 15 0 15 1 0
18 -23 25 -21 64 3 80 14 8 20 23 20 47 0 32 2 35 23 30 21 -6 22 -3 22 57 1
35 4 75 8 91 6 21 4 27 -8 27 -8 0 -15 -3 -16 -7z m-92 -345 c-3 -7 -5 -2 -5
12 0 14 2 19 5 13 2 -7 2 -19 0 -25z"/>
<path d="M2472 4000 c0 -19 2 -27 5 -17 2 9 2 25 0 35 -3 9 -5 1 -5 -18z"/>
<path d="M2509 4013 c-13 -16 -12 -17 4 -4 16 13 21 21 13 21 -2 0 -10 -8 -17
-17z"/>
<path d="M1710 3969 c-30 -28 -67 -53 -82 -56 -16 -3 -28 -9 -28 -14 0 -17 27
-9 66 20 57 42 121 100 109 100 -5 0 -35 -23 -65 -50z"/>
<path d="M1564 3992 c-10 -10 -37 -31 -58 -47 -38 -29 -39 -29 -34 -7 9 33
-14 38 -55 13 -19 -11 -36 -18 -39 -16 -3 3 -11 -2 -19 -11 -12 -15 -11 -16
11 -9 14 4 35 13 47 21 33 21 44 17 37 -11 -5 -22 -4 -24 12 -17 43 17 113 68
117 85 6 21 5 21 -19 -1z"/>
<path d="M2600 3971 c0 -14 18 -23 31 -15 8 4 7 9 -2 15 -18 11 -29 11 -29 0z"/>
<path d="M2747 3920 c-11 -41 42 -49 64 -9 10 20 -4 28 -16 9 -9 -15 -25 -12
-25 5 0 22 -17 18 -23 -5z"/>
<path d="M2072 3896 c-17 -37 -15 -45 4 -18 8 12 14 27 12 33 -2 6 -9 -1 -16
-15z"/>
<path d="M2540 3840 c-12 -17 -20 -33 -17 -36 3 -3 15 9 27 26 12 17 20 33 17
36 -3 3 -15 -9 -27 -26z"/>
<path d="M2047 3843 c-14 -23 -37 -86 -28 -78 12 12 43 85 37 85 -3 0 -7 -3
-9 -7z"/>
<path d="M2825 3785 c-20 -38 -35 -45 -35 -18 0 13 -3 14 -11 6 -13 -13 -5
-43 11 -43 11 0 65 78 59 85 -3 2 -13 -11 -24 -30z"/>
<path d="M3446 3760 c-26 -33 -51 -60 -55 -60 -11 0 -131 -165 -160 -220 -20
-37 -61 -82 -151 -167 -30 -28 -86 -88 -125 -133 l-70 -81 -190 -95 c-173 -85
-219 -100 -184 -58 8 10 9 18 2 25 -15 15 -55 -39 -48 -63 4 -10 2 -18 -3 -18
-5 0 -12 9 -15 20 -5 21 -33 37 -44 26 -4 -3 1 -12 11 -19 23 -17 32 -147 10
-147 -10 0 -14 14 -15 43 -3 66 -3 71 -12 85 -5 6 -26 21 -47 31 -34 16 -41
17 -59 4 -12 -8 -21 -21 -21 -29 0 -12 4 -13 21 -3 17 8 31 8 60 0 l38 -11 -5
-98 c-4 -82 -8 -100 -26 -114 -26 -23 -30 -22 -46 2 -10 17 -8 26 14 62 l27
42 -22 41 c-22 41 -62 68 -87 58 -8 -3 -23 2 -34 12 -14 12 -23 14 -37 6 -44
-23 -46 -36 -14 -98 35 -66 37 -81 16 -109 -19 -25 -19 -34 0 -34 8 0 15 -4
15 -8 0 -5 11 -14 25 -20 72 -33 169 9 189 81 6 22 14 36 17 32 4 -3 55 18
115 48 280 138 289 141 409 153 38 4 97 18 130 31 33 14 89 33 125 45 72 22
341 123 380 143 14 7 41 15 60 19 39 7 140 61 140 75 0 5 -29 -7 -65 -26 -36
-19 -77 -36 -91 -39 -15 -3 -40 -12 -55 -20 -31 -15 -114 -47 -319 -121 -217
-78 -228 -82 -322 -92 -122 -14 -151 -23 -272 -83 -55 -27 -122 -60 -148 -73
-42 -21 -47 -22 -51 -6 -9 35 5 80 27 87 11 4 76 33 144 65 68 33 125 59 126
59 19 0 162 95 176 116 25 40 166 184 217 223 36 27 58 55 136 175 64 98 220
276 232 264 3 -2 -4 -21 -15 -41 -27 -50 -17 -47 15 4 21 32 24 43 14 55 -20
24 -34 16 -83 -46z m-1221 -912 c22 -20 26 -32 28 -83 2 -50 6 -64 27 -82 19
-16 22 -24 13 -33 -13 -14 -33 -5 -33 16 0 17 -5 18 -30 2 -26 -16 -36 -4 -22
27 18 39 15 58 -17 105 -43 64 -21 95 34 48z m75 -25 c23 -29 21 -57 -7 -99
-21 -32 -27 -24 -15 18 7 25 6 46 -3 71 -15 44 -5 48 25 10z"/>
<path d="M8055 3789 c-33 -11 -66 -28 -72 -36 -20 -25 -6 -29 20 -6 12 12 41
26 64 32 23 7 45 16 48 21 8 12 11 13 -60 -11z"/>
<path d="M2672 3784 c3 -19 34 -41 43 -32 7 6 -29 48 -41 48 -3 0 -4 -7 -2
-16z"/>
<path d="M1468 3773 c-14 -13 -20 -14 -32 -3 -9 7 -16 11 -17 9 0 -2 -2 -19
-4 -37 l-3 -34 41 39 c23 21 44 39 46 41 2 1 0 2 -5 2 -5 0 -17 -7 -26 -17z"/>
<path d="M7898 3783 c7 -3 16 -2 19 1 4 3 -2 6 -13 5 -11 0 -14 -3 -6 -6z"/>
<path d="M1680 3774 c0 -6 -23 -33 -52 -62 -44 -44 -57 -52 -89 -52 -21 0 -41
-4 -44 -10 -3 -5 -11 -10 -16 -10 -9 0 -8 10 9 60 4 13 2 12 -12 -1 -10 -9
-21 -33 -26 -53 -7 -30 -5 -36 9 -36 9 0 25 7 35 15 11 8 33 15 48 15 42 0
164 117 144 138 -3 3 -6 1 -6 -4z"/>
<path d="M6545 3751 c-25 -4 -35 -9 -28 -14 12 -7 93 9 93 18 0 5 -6 5 -65 -4z"/>
<path d="M1985 3719 c-9 -17 -15 -33 -13 -35 3 -2 12 12 21 31 21 43 13 47 -8
4z"/>
<path d="M1755 3686 c-27 -30 -57 -56 -65 -58 -8 -3 -12 -8 -8 -12 16 -19 95
48 132 112 16 28 -12 8 -59 -42z"/>
<path d="M2476 3729 c-2 -8 -7 -22 -10 -31 -3 -10 -2 -18 3 -18 5 0 11 12 14
28 6 29 0 45 -7 21z"/>
<path d="M2975 3700 c3 -5 11 -10 16 -10 6 0 7 5 4 10 -3 6 -11 10 -16 10 -6
0 -7 -4 -4 -10z"/>
<path d="M2943 3675 c-9 -25 4 -29 17 -6 7 15 7 21 0 21 -6 0 -13 -7 -17 -15z"/>
<path d="M1966 3603 c-58 -119 -178 -283 -207 -283 -6 0 -7 4 -4 10 3 6 -1 7
-9 4 -19 -7 -20 3 -5 61 20 79 8 86 -38 20 -50 -72 -198 -232 -207 -224 -3 3
1 23 9 44 23 53 11 55 -15 1 -22 -43 -22 -76 0 -76 21 0 162 158 232 260 16
24 16 23 2 -27 -8 -29 -12 -63 -9 -76 5 -17 -4 -38 -31 -78 -21 -29 -29 -47
-19 -39 10 8 29 32 42 53 13 21 36 42 51 48 39 15 87 64 145 149 48 71 107
181 107 201 0 24 -19 4 -44 -48z"/>
<path d="M3419 3632 c-13 -15 -17 -21 -9 -14 8 6 24 12 37 12 25 0 31 15 9 23
-8 3 -24 -6 -37 -21z"/>
<path d="M7897 3648 c-11 -7 27 -12 65 -9 9 1 42 -5 72 -14 55 -16 102 -13 90
6 -3 5 -9 7 -14 4 -5 -3 -30 0 -57 6 -58 14 -140 17 -156 7z"/>
<path d="M6515 3620 c-4 -6 -10 -24 -15 -41 -13 -44 9 -32 25 14 12 34 5 51
-10 27z"/>
<path d="M6995 3578 c-9 -29 -30 -66 -45 -83 -37 -39 -143 -261 -165 -345 -27
-104 -25 -295 4 -397 13 -46 21 -89 18 -97 -3 -8 0 -16 6 -19 7 -2 18 -22 26
-43 51 -142 186 -295 310 -351 42 -19 91 -49 109 -66 37 -35 43 -21 10 24 -14
18 -54 46 -98 67 -101 50 -182 128 -251 244 -30 51 -61 113 -68 138 -7 25 -19
61 -27 80 -33 86 -43 290 -19 403 20 93 114 301 158 348 21 22 39 53 43 74 3
20 12 39 20 42 13 5 8 33 -6 33 -4 0 -15 -24 -25 -52z"/>
<path d="M2461 3588 c-15 -43 -8 -45 12 -3 9 19 13 35 8 35 -5 0 -14 -14 -20
-32z"/>
<path d="M7059 3613 c-15 -125 63 -330 175 -456 14 -16 28 -42 31 -58 4 -16
13 -33 21 -37 8 -5 17 -31 21 -60 3 -29 10 -52 16 -52 6 0 7 17 3 43 -15 97
-19 105 -126 261 -56 82 -107 212 -115 294 -4 39 -11 72 -16 72 -5 0 -9 -3
-10 -7z"/>
<path d="M1874 3543 c-20 -38 -44 -78 -52 -90 -8 -13 -12 -23 -9 -23 4 0 25
33 48 73 24 39 49 80 57 90 9 9 10 17 4 17 -5 0 -27 -30 -48 -67z"/>
<path d="M3344 3550 c-22 -25 -67 -85 -99 -133 -36 -55 -96 -123 -154 -178
-93 -89 -161 -168 -161 -188 0 -19 41 -33 79 -26 20 4 81 22 136 39 55 18 109
33 120 33 33 1 270 89 315 118 24 15 71 37 105 49 60 22 107 45 93 46 -16 0
-162 -51 -168 -59 -19 -31 -245 -119 -385 -150 -27 -7 -91 -25 -141 -41 -89
-29 -134 -30 -134 -4 0 17 65 90 164 184 70 67 139 153 174 215 6 13 33 46 58
74 25 28 44 54 42 58 -1 5 -21 -12 -44 -37z"/>
<path d="M2580 3570 c0 -12 -5 -31 -11 -42 -8 -16 -8 -24 3 -34 12 -13 17 -12
33 6 10 11 13 20 7 20 -7 0 -12 -5 -12 -12 0 -8 -3 -9 -10 -2 -6 6 -6 21 -1
42 6 19 6 34 0 37 -5 4 -9 -3 -9 -15z"/>
<path d="M2284 3543 c-42 -53 -52 -75 -15 -33 31 35 55 70 48 70 -2 0 -17 -17
-33 -37z"/>
<path d="M2157 3483 c-30 -49 -57 -97 -59 -108 -2 -11 -8 -20 -14 -20 -6 0
-32 -27 -59 -60 -45 -57 -46 -58 -9 -23 21 20 44 38 49 40 6 1 8 9 7 18 -2 8
-1 12 3 8 14 -13 45 12 65 52 14 27 27 40 41 40 15 0 19 5 15 18 -4 11 4 33
18 55 14 20 19 34 11 31 -7 -3 -23 -26 -35 -51 -12 -25 -24 -43 -27 -40 -3 3
9 33 26 66 17 34 29 61 27 61 -2 0 -28 -39 -59 -87z"/>
<path d="M2707 3564 c-4 -4 -7 -16 -7 -27 0 -22 -35 -86 -58 -104 -14 -12 -14
-13 1 -13 10 0 28 24 48 65 27 57 36 99 16 79z"/>
<path d="M6353 3544 c-18 -14 -33 -30 -33 -36 0 -6 6 -6 15 2 20 17 21 -9 0
-36 -16 -21 -19 -34 -7 -34 11 1 43 70 36 81 -3 6 2 19 12 30 23 26 15 24 -23
-7z"/>
<path d="M2440 3538 c0 -3 -7 -22 -15 -42 -8 -20 -11 -36 -6 -36 11 0 34 71
26 79 -3 2 -5 2 -5 -1z"/>
<path d="M2780 3493 c0 -26 -6 -53 -14 -62 -18 -20 -33 -151 -18 -151 6 0 14
17 18 38 4 20 11 46 17 57 6 11 12 31 14 45 1 14 3 32 4 40 1 8 1 30 1 48 -3
50 -22 38 -22 -15z"/>
<path d="M2069 3513 c-13 -16 -12 -17 4 -4 9 7 17 15 17 17 0 8 -8 3 -21 -13z"/>
<path d="M6257 3468 c-26 -17 -45 -33 -43 -35 5 -6 82 43 91 57 8 13 7 13 -48
-22z"/>
<path d="M6995 3424 c-8 -86 -1 -208 16 -269 16 -55 37 -159 34 -163 -1 -1
-22 21 -46 49 -30 35 -48 69 -56 103 l-12 51 3 -47 c2 -27 2 -48 0 -48 -8 0
-57 58 -70 83 -9 16 -18 27 -20 24 -14 -14 42 -90 99 -135 38 -30 71 -65 82
-88 10 -22 22 -41 26 -44 10 -7 29 -90 20 -90 -3 0 -22 10 -41 22 -74 45 -100
57 -100 48 0 -6 8 -14 18 -17 9 -4 43 -24 74 -46 56 -38 78 -73 78 -129 0 -9
5 -20 10 -23 14 -9 12 10 -10 94 -11 41 -20 88 -20 104 0 29 -25 135 -57 247
-12 39 -16 99 -17 203 0 81 -1 147 -2 147 -1 0 -6 -34 -9 -76z"/>
<path d="M2215 3439 c-9 -17 -15 -33 -13 -35 3 -2 12 12 21 31 21 43 13 47 -8
4z"/>
<path d="M5610 3434 c0 -5 25 -52 55 -104 31 -52 66 -117 79 -145 29 -62 184
-220 164 -168 -7 18 -21 34 -33 37 -32 8 -80 64 -128 151 -89 159 -137 239
-137 229z"/>
<path d="M2235 3421 c-6 -11 9 -23 19 -14 9 9 7 23 -3 23 -6 0 -12 -4 -16 -9z"/>
<path d="M1301 3404 c0 -11 3 -14 6 -6 3 7 2 16 -1 19 -3 4 -6 -2 -5 -13z"/>
<path d="M1509 3373 c-93 -101 -99 -105 -124 -100 -19 3 -25 0 -25 -15 0 -15
5 -17 28 -12 34 9 75 44 131 112 55 68 47 79 -10 15z"/>
<path d="M1110 3400 c0 -5 5 -10 10 -10 6 0 10 5 10 10 0 6 -4 10 -10 10 -5 0
-10 -4 -10 -10z"/>
<path d="M7829 3334 c-17 -38 -36 -80 -42 -94 -10 -24 -11 -23 -17 20 l-7 45
-3 -55 c-2 -30 -5 -68 -6 -85 -1 -16 -9 -59 -18 -95 -8 -36 -20 -96 -26 -133
-6 -37 -17 -85 -26 -107 -9 -21 -14 -51 -12 -67 4 -35 28 52 68 248 15 75 33
147 40 159 7 13 16 35 20 49 5 14 23 59 39 100 40 94 32 106 -10 15z"/>
<path d="M1966 3356 c-23 -36 -20 -44 5 -12 12 15 19 29 16 32 -2 2 -12 -7
-21 -20z"/>
<path d="M2172 3325 c-17 -25 -28 -45 -24 -45 9 1 65 81 59 86 -2 2 -18 -16
-35 -41z"/>
<path d="M2535 3354 c-19 -20 -15 -63 12 -103 l16 -25 28 32 c29 32 38 62 20
62 -5 0 -12 -8 -14 -17 -4 -17 -5 -17 -6 0 0 9 -5 17 -11 17 -14 0 -12 -37 3
-43 9 -3 9 -7 0 -17 -6 -7 -16 -9 -21 -6 -17 10 -24 63 -12 86 15 28 7 36 -15
14z"/>
<path d="M1277 3336 c-6 -14 22 -46 39 -46 5 0 18 7 29 16 18 13 17 14 -13 8
-28 -6 -32 -4 -32 15 0 24 -15 28 -23 7z"/>
<path d="M2380 3300 c-32 -40 -60 -52 -60 -26 0 8 6 17 13 19 7 3 6 6 -5 6
-23 1 -31 -15 -18 -39 14 -27 32 -25 60 5 13 14 29 24 36 21 13 -5 26 42 14
49 -5 3 -23 -13 -40 -35z"/>
<path d="M2088 3277 c-48 -54 -72 -60 -43 -10 l17 28 -19 -25 c-10 -13 -31
-40 -48 -60 l-29 -35 31 28 c20 19 32 24 35 16 4 -11 82 64 101 97 13 23 4 15
-45 -39z"/>
<path d="M2698 3325 c-3 -3 -3 -33 -1 -67 4 -57 4 -61 -12 -48 -15 13 -17 12
-13 -10 2 -19 8 -24 23 -22 26 5 24 2 31 55 9 65 -6 114 -28 92z"/>
<path d="M1056 3285 c-22 -34 2 -34 27 0 14 20 15 25 4 25 -8 0 -22 -11 -31
-25z"/>
<path d="M2655 3270 c-3 -5 -2 -10 4 -10 5 0 13 5 16 10 3 6 2 10 -4 10 -5 0
-13 -4 -16 -10z"/>
<path d="M6923 3240 c0 -25 2 -35 4 -22 2 12 2 32 0 45 -2 12 -4 2 -4 -23z"/>
<path d="M7062 3227 c-8 -32 -11 -61 -9 -64 8 -8 29 75 25 100 -2 13 -9 -2
-16 -36z"/>
<path d="M2126 3201 c-9 -30 -14 -56 -12 -58 6 -6 38 87 33 100 -2 6 -12 -12
-21 -42z"/>
<path d="M2633 3238 c-6 -7 -18 -28 -27 -45 -17 -33 -41 -43 -49 -20 -2 6 -8
9 -12 5 -4 -4 -2 -14 5 -23 16 -20 45 -4 65 35 9 17 20 30 25 30 16 0 11 -57
-5 -64 -8 -3 -15 -12 -15 -20 0 -19 -32 -90 -43 -94 -13 -6 -48 -82 -38 -82
17 0 84 88 103 133 26 64 19 180 -9 145z"/>
<path d="M5800 3240 c0 -6 12 -34 28 -62 15 -28 34 -64 43 -81 10 -20 18 -26
21 -17 3 11 16 8 54 -14 65 -38 107 -78 151 -148 20 -32 41 -58 46 -58 8 0
-22 60 -68 135 -23 38 -86 88 -151 119 -51 25 -104 81 -104 110 0 8 -4 18 -10
21 -5 3 -10 1 -10 -5z"/>
<path d="M2083 3218 c-11 -13 -24 -30 -28 -38 -4 -8 6 0 24 19 17 19 31 36 31
38 0 7 -8 2 -27 -19z"/>
<path d="M1582 3150 c-18 -22 -29 -40 -24 -40 7 0 36 34 56 68 13 23 1 12 -32
-28z"/>
<path d="M1304 3165 c4 -12 -3 -32 -19 -57 -14 -21 -23 -38 -20 -38 11 0 73
75 65 80 -4 3 -9 8 -10 13 -2 4 -7 10 -13 13 -6 4 -8 0 -3 -11z"/>
<path d="M1918 3146 c-31 -39 -39 -72 -10 -41 16 17 46 75 39 75 -1 0 -14 -16
-29 -34z"/>
<path d="M7841 3131 c-23 -44 -27 -77 -11 -83 6 -2 -10 -25 -35 -52 -76 -83
-50 -71 35 16 44 45 80 86 80 92 0 5 -15 -5 -34 -23 -43 -42 -55 -26 -26 35
28 56 19 71 -9 15z"/>
<path d="M2019 3143 c-13 -16 -12 -17 4 -4 9 7 17 15 17 17 0 8 -8 3 -21 -13z"/>
<path d="M2316 3148 c-14 -46 -23 -125 -15 -138 4 -8 9 -10 9 -5 1 6 3 35 6
65 3 31 11 60 19 66 19 14 19 24 0 24 -9 0 -17 -6 -19 -12z"/>
<path d="M1595 3130 c-3 -5 -2 -10 4 -10 5 0 13 5 16 10 3 6 2 10 -4 10 -5 0
-13 -4 -16 -10z"/>
<path d="M1955 3120 c-10 -11 -16 -22 -14 -24 2 -2 12 7 22 20 22 29 17 32 -8
4z"/>
<path d="M2020 3105 c-19 -19 -30 -35 -24 -34 9 0 70 69 62 69 -2 0 -19 -16
-38 -35z"/>
<path d="M7052 3120 c0 -14 2 -19 5 -12 2 6 2 18 0 25 -3 6 -5 1 -5 -13z"/>
<path d="M7145 3113 c2 -16 7 -58 10 -95 4 -41 12 -71 20 -75 11 -7 11 -17 -1
-63 -8 -30 -14 -65 -14 -77 0 -13 -4 -23 -10 -23 -5 0 -10 -7 -10 -15 0 -8 4
-15 9 -15 11 0 36 69 28 77 -3 2 4 30 14 61 11 32 25 84 30 117 5 33 12 68 15
78 3 9 1 17 -4 17 -5 0 -15 -34 -23 -75 -19 -111 -37 -97 -46 38 -3 42 -10 77
-14 77 -5 0 -7 -12 -4 -27z"/>
<path d="M7631 3115 c-1 -38 21 -135 31 -135 11 0 10 14 -3 47 -6 15 -14 48
-19 73 -6 35 -8 38 -9 15z"/>
<path d="M7803 3128 c-11 -14 -28 -77 -19 -67 8 7 37 79 32 79 -2 0 -8 -6 -13
-12z"/>
<path d="M2157 3106 c-15 -39 -4 -73 20 -58 7 5 7 17 -2 41 -9 28 -13 31 -18
17z"/>
<path d="M2463 3092 c-3 -13 0 -29 6 -35 8 -8 11 -6 11 8 0 10 7 26 15 35 13
14 12 16 -6 16 -12 0 -22 -9 -26 -24z"/>
<path d="M2361 3084 c0 -11 3 -14 6 -6 3 7 2 16 -1 19 -3 4 -6 -2 -5 -13z"/>
<path d="M1857 3054 c-11 -14 -16 -28 -13 -31 7 -7 56 36 56 49 0 17 -26 6
-43 -18z"/>
<path d="M1910 3069 c0 -5 5 -7 10 -4 6 3 10 8 10 11 0 2 -4 4 -10 4 -5 0 -10
-5 -10 -11z"/>
<path d="M7674 2965 c-1 -69 2 -107 6 -90 10 40 11 120 2 170 -5 27 -8 0 -8
-80z"/>
<path d="M2092 3059 c2 -7 10 -15 17 -17 8 -3 12 1 9 9 -2 7 -10 15 -17 17 -8
3 -12 -1 -9 -9z"/>
<path d="M1940 3025 c-19 -19 -32 -35 -29 -35 10 0 72 60 68 65 -3 2 -21 -11
-39 -30z"/>
<path d="M2380 3036 c0 -8 5 -18 10 -21 6 -3 10 3 10 14 0 12 -4 21 -10 21 -5
0 -10 -6 -10 -14z"/>
<path d="M1503 3033 c-15 -5 -17 -23 -4 -23 5 0 11 7 15 15 3 8 4 15 3 14 -1
0 -8 -3 -14 -6z"/>
<path d="M2017 3013 c-11 -10 -8 -43 3 -43 6 0 10 11 10 25 0 26 -2 29 -13 18z"/>
<path d="M2105 3000 c-10 -11 -16 -22 -13 -25 3 -3 13 6 22 20 20 30 16 32 -9
5z"/>
<path d="M1475 2990 c3 -5 0 -10 -8 -10 -8 0 -21 -8 -28 -17 -11 -15 -11 -16
1 -5 21 18 35 14 19 -6 -8 -10 -4 -7 9 6 24 25 28 42 11 42 -5 0 -7 -4 -4 -10z"/>
<path d="M2441 2984 c0 -11 3 -14 6 -6 3 7 2 16 -1 19 -3 4 -6 -2 -5 -13z"/>
<path d="M9050 2991 c0 -16 -147 -188 -227 -266 -13 -12 -23 -28 -23 -34 0
-12 182 173 189 192 2 6 15 23 28 37 31 32 57 80 43 80 -5 0 -10 -4 -10 -9z"/>
<path d="M1840 2975 c-11 -13 -10 -14 4 -9 9 3 16 10 16 15 0 13 -6 11 -20 -6z"/>
<path d="M6990 2984 c1 -13 29 -48 34 -43 2 2 -4 15 -15 28 -10 13 -19 19 -19
15z"/>
<path d="M1879 2963 c-13 -16 -12 -17 4 -4 9 7 17 15 17 17 0 8 -8 3 -21 -13z"/>
<path d="M7581 2905 c-26 -80 -41 -88 -41 -22 0 23 -5 49 -11 57 -10 15 -9 5
7 -95 3 -20 14 -56 24 -80 21 -48 17 -54 -18 -29 -12 8 -22 11 -22 6 0 -15 36
-43 51 -40 10 2 15 -9 17 -34 2 -21 7 -38 13 -38 16 0 10 41 -16 107 l-26 63
27 85 c15 47 25 88 22 90 -2 2 -14 -29 -27 -70z"/>
<path d="M2247 2963 c-12 -11 -8 -33 6 -33 7 0 18 9 25 20 10 17 10 20 -6 20
-10 0 -22 -3 -25 -7z"/>
<path d="M1794 2928 l-19 -23 23 19 c21 18 27 26 19 26 -2 0 -12 -10 -23 -22z"/>
<path d="M1811 2916 l-24 -31 28 27 c16 15 27 29 24 31 -2 3 -15 -10 -28 -27z"/>
<path d="M1297 2808 c-63 -73 -129 -146 -146 -162 -17 -17 -31 -36 -31 -45 0
-16 105 94 204 213 32 39 69 81 82 92 13 12 24 24 24 28 0 21 -32 -9 -133
-126z"/>
<path d="M1892 2924 c-12 -8 -22 -11 -22 -6 0 5 -19 -9 -42 -32 -24 -23 -63
-59 -88 -80 -25 -21 -39 -35 -32 -32 7 4 12 2 12 -6 0 -7 12 4 26 25 14 21 31
36 38 35 6 -2 41 23 77 54 63 57 75 73 31 42z"/>
<path d="M2016 2915 c-3 -8 -1 -15 4 -15 6 0 10 7 10 15 0 8 -2 15 -4 15 -2 0
-6 -7 -10 -15z"/>
<path d="M5910 2905 c13 -14 25 -25 27 -25 2 0 -4 11 -13 25 -9 14 -21 25 -27
25 -6 0 0 -11 13 -25z"/>
<path d="M1719 2903 c-13 -16 -12 -17 4 -4 9 7 17 15 17 17 0 8 -8 3 -21 -13z"/>
<path d="M1754 2868 l-19 -23 23 19 c21 18 27 26 19 26 -2 0 -12 -10 -23 -22z"/>
<path d="M1895 2870 c3 -5 8 -10 11 -10 2 0 4 5 4 10 0 6 -5 10 -11 10 -5 0
-7 -4 -4 -10z"/>
<path d="M7823 2838 c-17 -23 -46 -98 -41 -104 4 -3 11 10 18 30 6 19 20 46
31 60 11 14 16 26 11 26 -5 0 -14 -6 -19 -12z"/>
<path d="M7250 2805 c-2 -22 -3 -47 -2 -55 5 -77 3 -117 -12 -188 -13 -61 -15
-87 -7 -95 8 -8 11 0 11 30 0 31 5 44 23 56 18 13 19 16 5 16 -10 1 -18 3 -18
6 0 16 43 130 56 151 9 13 14 28 12 35 -2 6 -13 -7 -23 -30 -11 -22 -23 -41
-27 -41 -4 0 -9 35 -11 78 -2 47 -4 62 -7 37z"/>
<path d="M7423 2824 c-8 -21 13 -42 28 -27 13 13 5 43 -11 43 -6 0 -13 -7 -17
-16z"/>
<path d="M6212 2813 c8 -10 25 -47 38 -83 12 -36 27 -70 32 -76 5 -7 23 -40
40 -75 17 -35 33 -59 35 -52 2 6 -16 52 -41 102 -26 50 -46 95 -46 101 0 5 24
-5 53 -22 28 -17 99 -56 157 -85 58 -29 112 -62 122 -73 20 -25 29 -26 21 -2
-11 30 -53 69 -96 88 -23 10 -53 25 -67 35 -14 9 -36 20 -48 24 -39 12 -137
73 -167 105 -30 32 -59 42 -33 13z"/>
<path d="M7840 2761 c-54 -56 -111 -102 -164 -131 -35 -19 -38 -19 -31 -3 11
27 24 87 20 91 -2 2 -9 -16 -15 -39 -12 -43 -83 -156 -107 -172 -7 -4 -13 -14
-13 -21 0 -8 -36 -46 -80 -86 -44 -40 -80 -77 -80 -82 0 -6 16 4 35 21 38 33
47 33 138 12 62 -15 139 -5 200 26 56 28 63 40 10 17 -59 -26 -141 -35 -200
-23 -29 6 -53 15 -53 20 0 17 22 53 55 90 18 21 41 53 50 74 13 26 32 43 69
62 28 14 62 34 75 44 13 11 36 19 50 19 15 0 36 7 47 15 18 15 18 15 -8 9 -38
-8 -35 3 14 53 23 23 40 45 37 47 -2 2 -24 -17 -49 -43z"/>
<path d="M1743 2750 c-23 -22 -39 -40 -35 -40 5 0 14 6 21 13 10 10 11 8 5 -7
-9 -24 13 -38 37 -23 13 8 15 14 7 18 -8 5 -9 12 -2 21 9 11 17 59 11 58 -1 0
-21 -18 -44 -40z"/>
<path d="M6850 2766 c0 -3 23 -15 50 -27 43 -19 50 -25 50 -50 0 -31 -9 -36
-28 -17 -9 9 -12 8 -12 -4 0 -9 4 -19 9 -22 12 -8 73 13 86 29 9 10 18 10 48
0 31 -11 37 -10 37 1 0 8 -8 14 -19 14 -22 0 -103 28 -111 38 -3 4 -23 13 -45
21 -22 8 -46 16 -52 18 -7 3 -13 3 -13 -1z m140 -76 c0 -5 -4 -10 -10 -10 -5
0 -10 5 -10 10 0 6 5 10 10 10 6 0 10 -4 10 -10z"/>
<path d="M1688 2742 c-1 -4 -15 -17 -30 -29 -20 -14 -24 -22 -15 -26 8 -3 26
10 41 29 15 19 23 34 17 34 -5 0 -11 -3 -13 -8z"/>
<path d="M1636 2673 c-3 -3 -6 -14 -6 -24 0 -10 -9 -19 -22 -22 -16 -3 -12 -5
11 -6 19 0 31 2 28 5 -3 4 -2 15 3 25 10 17 -1 35 -14 22z"/>
<path d="M7130 2642 c0 -6 13 -50 29 -99 17 -48 29 -88 28 -89 -1 -1 -28 -4
-60 -8 -59 -6 -59 -6 -99 34 -53 53 -61 45 -10 -10 l39 -43 74 2 74 2 46 -88
c42 -81 79 -118 79 -79 0 9 -6 16 -14 16 -17 0 -106 172 -142 275 -26 77 -44
112 -44 87z"/>
<path d="M7427 2639 c-21 -12 -23 -39 -2 -39 16 0 39 36 27 44 -4 2 -15 0 -25
-5z"/>
<path d="M8725 2626 c-24 -27 -146 -172 -153 -181 -62 -83 -120 -153 -176
-212 -105 -111 -63 -87 61 35 60 59 153 138 206 176 53 39 97 74 97 79 0 11
-12 4 -102 -65 -43 -32 -82 -58 -88 -58 -9 0 41 73 61 90 3 3 12 16 19 29 7
13 30 44 53 68 22 24 38 45 36 47 -2 2 -9 -1 -14 -8z"/>
<path d="M7056 2549 c4 -7 7 -25 6 -41 0 -15 4 -26 9 -23 17 11 7 75 -13 75
-5 0 -6 -5 -2 -11z"/>
<path d="M6640 2532 c0 -10 44 -50 85 -78 17 -11 84 -46 150 -79 66 -32 126
-66 133 -74 8 -11 8 -5 -2 15 -16 33 -43 60 -52 52 -3 -3 -34 14 -71 38 -36
24 -77 46 -92 49 -15 3 -50 23 -79 45 -51 39 -72 48 -72 32z"/>
<path d="M7730 2505 c-7 -9 -11 -18 -8 -20 3 -3 11 1 18 10 7 9 11 18 8 20 -3
3 -11 -1 -18 -10z"/>
<path d="M6235 2485 c4 -11 11 -34 16 -51 8 -26 23 -39 80 -69 39 -20 73 -35
75 -32 3 2 -27 21 -65 41 -81 42 -89 51 -61 66 24 13 27 32 4 23 -11 -4 -24 3
-36 18 -17 20 -19 21 -13 4z"/>
<path d="M7415 2488 c-9 -22 4 -43 17 -30 7 7 7 16 0 29 -10 17 -11 17 -17 1z"/>
<path d="M7660 2425 c-19 -19 -30 -35 -24 -34 9 0 70 69 62 69 -2 0 -19 -16
-38 -35z"/>
<path d="M1835 2440 c3 -5 8 -10 11 -10 2 0 4 5 4 10 0 6 -5 10 -11 10 -5 0
-7 -4 -4 -10z"/>
<path d="M6824 2338 c8 -18 16 -58 17 -88 5 -77 -15 -78 -86 -6 -29 31 -60 56
-67 56 -19 0 105 -121 128 -124 14 -2 21 -14 26 -44 15 -89 25 -72 23 40 -2
109 -23 198 -46 198 -4 0 -2 -15 5 -32z"/>
<path d="M8326 2320 c-33 -50 -54 -77 -85 -107 -29 -28 -20 -44 10 -17 33 29
119 140 119 153 0 22 -18 10 -44 -29z"/>
<path d="M1513 2318 c-15 -19 -25 -96 -13 -103 5 -3 10 -19 10 -35 0 -31 15
-49 23 -28 3 7 8 -15 12 -49 9 -72 25 -84 25 -19 0 25 5 48 11 51 7 5 8 -12 3
-54 -7 -61 19 -191 37 -191 5 0 9 -19 10 -42 0 -36 2 -39 9 -20 5 12 9 38 8
57 -1 19 2 38 5 42 4 3 7 -5 7 -18 0 -17 3 -20 9 -10 6 10 12 4 21 -23 12 -36
6 -76 -11 -76 -5 0 -8 -26 -8 -57 1 -32 4 -49 6 -38 3 11 12 29 20 40 13 18
14 14 8 -37 -5 -40 -4 -58 4 -58 6 0 11 11 11 24 0 27 16 43 23 24 2 -7 -2
-34 -8 -59 -12 -44 -5 -90 8 -58 3 8 3 -6 0 -30 -9 -64 11 -44 26 26 18 85 21
94 32 87 9 -5 -21 66 -32 76 -5 4 -26 43 -51 93 -27 55 -58 155 -58 187 0 21
-5 40 -11 42 -12 4 -59 123 -58 148 1 16 -1 19 21 -39 12 -33 20 -21 9 15 -5
16 -12 41 -15 55 -4 20 -12 27 -31 27 -21 0 -26 -6 -31 -37 -9 -57 -12 -59
-13 -9 -1 25 3 48 8 50 11 4 2 58 -9 58 -4 0 -12 -6 -17 -12z m57 -142 c0 -8
-4 -18 -10 -21 -5 -3 -10 3 -10 14 0 12 5 21 10 21 6 0 10 -6 10 -14z m63
-137 c13 -43 13 -55 2 -82 l-14 -32 -1 48 c0 26 -4 47 -9 47 -5 0 -9 16 -8 35
3 49 13 44 30 -16z m138 -376 c-8 -15 -10 -15 -11 -2 0 17 10 32 18 25 2 -3
-1 -13 -7 -23z"/>
<path d="M7020 2223 c0 -6 10 -24 23 -40 41 -50 99 -144 93 -150 -3 -4 -15 2
-26 12 -12 11 -20 13 -20 6 0 -7 13 -24 29 -39 34 -32 51 -63 51 -91 0 -17 6
-21 30 -21 20 0 30 5 30 15 0 8 -7 15 -15 15 -8 0 -18 12 -21 28 -13 52 -84
178 -129 227 -24 28 -44 45 -45 38z"/>
<path d="M1316 2194 c-8 -20 -8 -24 2 -24 4 0 8 9 9 20 2 24 -3 26 -11 4z"/>
<path d="M1371 2182 c-6 -12 -10 -33 -10 -49 1 -20 3 -22 6 -8 2 11 9 30 15
42 14 29 3 42 -11 15z"/>
<path d="M6944 2167 c-9 -24 25 -85 91 -162 64 -76 75 -105 32 -84 -21 10 -21
10 -3 -5 25 -20 35 -20 42 -1 4 8 -14 38 -44 72 -64 75 -106 148 -99 173 6 22
-11 28 -19 7z"/>
<path d="M7575 2140 c-10 -11 -24 -20 -31 -20 -31 0 -144 -171 -144 -219 0
-36 15 -23 39 34 14 34 46 79 87 122 67 70 91 103 76 103 -5 0 -17 -9 -27 -20z"/>
<path d="M1656 2117 c3 -10 9 -15 12 -12 3 3 0 11 -7 18 -10 9 -11 8 -5 -6z"/>
<path d="M1640 2091 c0 -6 4 -13 10 -16 6 -3 7 1 4 9 -7 18 -14 21 -14 7z"/>
<path d="M1747 2053 c-11 -10 -8 -131 3 -138 6 -3 10 -24 10 -45 0 -21 5 -42
10 -45 6 -4 10 20 9 67 -1 40 -3 65 -6 56 -11 -42 -22 -13 -19 47 1 36 2 65 1
65 -1 0 -5 -3 -8 -7z"/>
<path d="M6650 2003 c0 -23 85 -104 170 -161 50 -34 96 -62 102 -62 16 0 8 6
-65 53 -131 85 -148 98 -177 139 -17 22 -30 36 -30 31z"/>
<path d="M6350 1991 c0 -8 67 -29 178 -55 61 -14 137 -12 126 5 -2 5 -18 6
-34 2 -28 -5 -197 27 -247 47 -13 5 -23 6 -23 1z"/>
<path d="M1701 1980 c0 -8 4 -24 9 -35 5 -13 9 -14 9 -5 0 8 -4 24 -9 35 -5
13 -9 14 -9 5z"/>
<path d="M7900 1980 c0 -5 5 -10 11 -10 5 0 7 5 4 10 -3 6 -8 10 -11 10 -2 0
-4 -4 -4 -10z"/>
<path d="M2001 1944 c0 -11 3 -14 6 -6 3 7 2 16 -1 19 -3 4 -6 -2 -5 -13z"/>
<path d="M1731 1874 c0 -11 3 -14 6 -6 3 7 2 16 -1 19 -3 4 -6 -2 -5 -13z"/>
<path d="M1741 1834 c0 -11 3 -14 6 -6 3 7 2 16 -1 19 -3 4 -6 -2 -5 -13z"/>
<path d="M1777 1789 c4 -13 8 -18 11 -10 2 7 -1 18 -6 23 -8 8 -9 4 -5 -13z"/>
<path d="M8577 1803 c-3 -5 -8 -24 -12 -43 -11 -58 -16 -71 -26 -65 -5 4 -9
16 -9 28 -1 22 -1 22 -15 3 -8 -11 -15 -14 -15 -8 0 7 -5 12 -11 12 -6 0 -9
-10 -7 -22 2 -14 13 -24 31 -29 41 -11 56 -2 66 40 14 59 13 109 -2 84z"/>
<path d="M1991 1754 c0 -11 3 -14 6 -6 3 7 2 16 -1 19 -3 4 -6 -2 -5 -13z"/>
<path d="M1470 1751 c0 -6 4 -13 10 -16 6 -3 7 1 4 9 -7 18 -14 21 -14 7z"/>
<path d="M1796 1747 c3 -10 9 -15 12 -12 3 3 0 11 -7 18 -10 9 -11 8 -5 -6z"/>
<path d="M7470 1710 c-14 -10 -22 -21 -19 -24 3 -3 16 5 29 19 28 30 24 32
-10 5z"/>
<path d="M7675 1712 c-6 -7 83 -57 131 -72 23 -8 39 -9 46 -2 6 6 -1 11 -20
15 -16 3 -57 19 -90 35 -34 17 -63 27 -67 24z"/>
<path d="M2200 1702 c0 -5 7 -13 16 -16 10 -4 14 -1 12 6 -5 15 -28 23 -28 10z"/>
<path d="M8427 1703 c-3 -5 -8 -23 -12 -41 -4 -18 -11 -29 -17 -26 -5 3 -8 15
-5 25 7 26 -10 24 -18 -1 -4 -12 -14 -19 -23 -18 -10 2 -17 -4 -17 -12 0 -11
9 -14 33 -12 33 3 99 32 73 32 -10 0 -12 8 -7 30 5 29 2 39 -7 23z"/>
<path d="M8580 1690 c0 -5 5 -10 10 -10 6 0 10 5 10 10 0 6 -4 10 -10 10 -5 0
-10 -4 -10 -10z"/>
<path d="M2061 1664 c0 -11 3 -14 6 -6 3 7 2 16 -1 19 -3 4 -6 -2 -5 -13z"/>
<path d="M8255 1660 c-19 -8 -19 -9 3 -9 33 -1 27 -21 -7 -21 -30 0 -41 -14
-41 -56 0 -21 20 -37 20 -16 0 4 4 14 10 22 8 12 11 12 27 -2 24 -22 52 -9 30
14 -12 12 -13 17 -1 33 29 39 9 56 -41 35z"/>
<path d="M2160 1567 c0 -14 5 -29 10 -32 7 -4 8 3 4 22 -9 38 -14 42 -14 10z"/>
<path d="M2196 1506 c7 -51 21 -86 34 -86 7 0 7 7 -1 21 -6 12 -17 40 -25 63
l-14 41 6 -39z"/>
<path d="M2170 1492 c0 -17 4 -34 10 -37 6 -4 7 6 3 27 -8 44 -13 48 -13 10z"/>
<path d="M1490 1230 c-6 -65 -5 -78 6 -68 3 3 4 34 2 69 l-3 64 -5 -65z"/>
<path d="M7223 738 c-26 -13 -27 -16 -12 -55 20 -55 39 -190 45 -328 6 -170 9
-181 35 -196 33 -17 67 6 81 55 6 23 19 66 29 96 9 30 20 81 24 113 4 31 11
57 15 57 4 0 10 -26 14 -57 9 -81 45 -229 61 -250 11 -14 18 -16 32 -7 26 16
40 49 58 144 9 47 21 108 26 135 6 28 19 75 29 105 11 30 21 80 22 110 3 49 1
55 -16 55 -36 0 -73 -97 -100 -260 -12 -67 -17 -80 -27 -64 -5 8 -9 30 -9 49
0 31 -50 183 -64 198 -3 3 -17 0 -30 -6 -25 -11 -31 -25 -66 -159 -12 -46 -25
-83 -29 -83 -3 0 -6 30 -6 68 0 82 -12 218 -21 252 -12 41 -44 51 -91 28z m65
-20 c17 -21 24 -85 27 -251 2 -87 6 -161 8 -164 11 -10 27 9 36 45 6 20 22 87
37 149 25 106 44 138 65 116 10 -12 47 -140 54 -195 4 -26 13 -55 20 -64 12
-17 13 -16 22 2 6 10 21 73 33 139 30 154 58 224 82 200 6 -6 -10 -80 -51
-235 -16 -58 -34 -132 -40 -165 -16 -76 -29 -108 -40 -101 -12 8 -35 84 -56
181 -31 149 -56 169 -75 63 -18 -104 -58 -234 -76 -249 -12 -10 -18 -9 -30 3
-12 12 -17 47 -20 154 -2 77 -11 180 -20 229 -8 50 -18 105 -21 123 -5 27 -3
32 14 32 12 0 25 -6 31 -12z"/>
<path d="M7741 737 c-6 -8 -12 -24 -13 -37 -2 -17 4 -25 25 -32 15 -6 34 -7
42 -4 21 8 19 50 -3 69 -22 20 -36 21 -51 4z m37 -19 c18 -18 15 -28 -8 -28
-13 0 -20 7 -20 20 0 23 10 26 28 8z"/>
<path d="M7890 742 c0 -4 9 -26 20 -47 19 -36 20 -57 19 -220 -2 -239 18 -307
92 -311 16 -1 29 0 29 1 0 1 -7 19 -15 39 -15 35 -39 380 -28 399 21 37 -49
147 -93 147 -13 0 -24 -4 -24 -8z m97 -261 c2 -91 8 -193 13 -225 15 -93 -10
-90 -35 5 -11 41 -12 55 -2 61 9 6 8 8 -2 8 -11 0 -13 25 -8 144 3 79 2 160
-3 179 -10 45 0 56 18 21 10 -20 16 -77 19 -193z"/>
<path d="M8085 740 c-4 -6 3 -26 15 -45 20 -32 21 -47 20 -197 -4 -346 -6
-338 69 -338 57 0 67 7 44 33 -16 17 -18 43 -18 231 0 116 -4 225 -8 243 -14
53 -102 106 -122 73z m73 -38 c7 -5 17 -24 22 -43 12 -39 14 -479 3 -479 -5 0
-15 5 -23 10 -13 8 -15 46 -15 237 0 125 -4 240 -9 256 -8 27 -2 33 22 19z"/>
<path d="M8267 732 c-24 -26 -21 -51 6 -61 30 -11 46 -4 54 27 4 18 1 29 -12
39 -24 17 -29 17 -48 -5z m33 -28 c0 -9 -5 -14 -12 -12 -18 6 -21 28 -4 28 9
0 16 -7 16 -16z"/>
<path d="M5480 729 c-12 -9 -10 -10 8 -6 44 10 116 -20 155 -64 20 -22 37 -49
37 -59 0 -28 -29 -33 -50 -7 -89 102 -103 106 -157 52 -27 -27 -33 -40 -28
-57 14 -46 36 -67 105 -104 48 -25 75 -46 86 -68 22 -44 29 -126 14 -172 -24
-74 -59 -96 -152 -95 -87 0 -148 38 -148 92 0 42 23 46 67 10 58 -46 83 -52
129 -32 71 33 93 79 67 143 -15 38 -81 98 -107 98 -6 0 -28 11 -48 25 -30 20
-39 34 -49 79 -14 65 -8 94 28 131 20 20 22 25 8 17 -47 -24 -78 -82 -69 -130
4 -20 8 -46 10 -56 5 -29 44 -65 92 -89 24 -11 59 -35 78 -52 28 -27 34 -40
34 -73 0 -33 -5 -44 -29 -61 -16 -12 -39 -21 -51 -21 -27 0 -70 22 -94 49 -26
28 -50 26 -75 -5 -28 -36 -26 -68 7 -103 74 -79 240 -68 304 21 33 47 38 159
10 214 -24 48 -43 65 -108 97 -60 30 -73 45 -80 89 -5 25 -1 38 15 52 31 28
64 15 87 -36 23 -51 67 -70 110 -47 22 11 25 18 20 44 -8 38 -76 99 -135 119
-52 19 -71 20 -91 5z"/>
<path d="M6814 717 c-10 -5 -20 -11 -22 -12 -2 -2 9 -20 24 -41 l26 -39 -5
-203 c-4 -186 -3 -205 14 -226 26 -34 94 -41 131 -15 34 25 35 37 4 49 -39 14
-50 47 -49 141 1 109 14 148 58 177 29 18 35 28 35 57 0 19 -3 35 -7 35 -3 0
-21 -11 -38 -25 -37 -28 -45 -24 -45 19 0 17 -4 36 -8 41 -26 36 -89 58 -118
42z m89 -44 c11 -11 17 -31 17 -60 0 -48 13 -54 63 -29 24 13 27 13 27 0 0 -8
-10 -18 -22 -23 -43 -16 -58 -45 -69 -131 -15 -107 -8 -174 20 -203 29 -32 27
-37 -14 -37 -61 0 -65 17 -62 246 2 177 0 203 -16 233 l-19 34 29 -7 c15 -4
36 -15 46 -23z"/>
<path d="M3248 693 c-22 -5 -22 -8 -4 -36 26 -41 36 -127 36 -303 0 -173 0
-175 25 -200 20 -20 29 -23 44 -14 11 5 29 10 40 10 30 0 31 23 2 46 -29 24
-28 21 -30 249 0 77 -5 154 -11 172 -9 26 -70 86 -82 82 -2 -1 -11 -3 -20 -6z
m66 -57 c19 -25 21 -46 26 -232 4 -138 10 -208 18 -216 19 -19 14 -28 -13 -28
-43 0 -48 27 -40 210 7 165 3 200 -31 284 -11 28 15 16 40 -18z"/>
<path d="M827 683 c-35 -6 -102 -73 -117 -117 -31 -95 -28 -282 6 -351 29 -61
73 -85 154 -85 85 0 114 20 128 87 18 84 -27 112 -83 53 -39 -40 -71 -37 -103
10 -22 32 -23 42 -18 112 7 89 18 123 49 156 39 42 53 45 97 20 l39 -23 21 21
c11 11 23 32 25 47 5 23 0 29 -40 47 -47 22 -112 31 -158 23z m115 -40 c47
-18 59 -29 51 -50 -7 -19 -31 -16 -55 7 -25 23 -47 19 -97 -18 -44 -33 -68
-90 -77 -184 -6 -72 -5 -80 20 -122 32 -55 76 -73 116 -48 14 8 29 21 33 29 4
7 17 13 27 13 29 0 26 -52 -4 -87 -21 -24 -31 -27 -78 -27 -123 2 -166 63
-168 235 0 76 30 182 63 218 25 27 72 50 104 51 13 0 42 -8 65 -17z"/>
<path d="M3070 681 c0 -5 -9 -7 -20 -4 -19 5 -19 5 1 -36 30 -62 37 -119 39
-301 1 -152 2 -166 22 -187 16 -17 28 -21 52 -17 58 10 60 13 32 35 -23 18
-26 28 -26 80 0 37 -4 59 -11 59 -8 0 -10 -22 -5 -75 5 -61 4 -75 -8 -75 -34
0 -39 27 -41 228 -1 157 -5 205 -18 235 -18 42 -10 48 20 15 28 -31 43 -109
43 -223 0 -63 4 -95 11 -95 14 0 6 242 -10 282 -10 27 -62 88 -75 88 -3 0 -6
-4 -6 -9z"/>
<path d="M2477 670 c5 -6 48 -11 94 -11 47 0 89 -3 94 -7 39 -28 60 -105 44
-163 -11 -43 -26 -58 -65 -65 -36 -7 -44 -14 -15 -14 51 0 75 -36 84 -125 5
-47 -6 -81 -35 -112 -18 -20 -32 -23 -89 -23 -37 0 -70 3 -73 8 -8 13 -8 152
-1 287 9 145 -1 185 -51 207 -36 16 -43 1 -11 -25 39 -31 50 -89 42 -222 -3
-60 -8 -144 -9 -187 l-3 -76 31 -5 c17 -3 58 -6 91 -7 54 -1 63 2 87 27 15 15
32 41 38 57 13 36 5 124 -16 169 -16 34 -16 37 5 70 36 59 23 168 -26 207 -22
17 -40 20 -126 20 -71 0 -98 -3 -90 -10z"/>
<path d="M2842 668 c-7 -7 -12 -22 -12 -35 0 -20 5 -23 35 -23 30 0 35 3 35
23 0 24 -17 47 -35 47 -6 0 -16 -5 -23 -12z m28 -23 c0 -8 -4 -15 -10 -15 -5
0 -10 7 -10 15 0 8 5 15 10 15 6 0 10 -7 10 -15z"/>
<path d="M2559 633 c0 -5 -1 -46 -2 -93 l-2 -85 36 -3 c105 -9 124 132 23 174
-37 16 -54 18 -55 7z m66 -29 c63 -41 49 -134 -20 -134 l-34 0 2 75 c2 81 8
88 52 59z"/>
<path d="M6125 597 c-14 -16 -26 -57 -39 -137 -13 -79 -22 -108 -27 -95 -4 11
-8 37 -8 58 -3 129 -111 171 -141 55 -6 -24 -15 -54 -19 -68 l-8 -25 -6 30
c-3 17 -9 65 -12 107 -7 82 -16 94 -56 74 -20 -10 -24 -18 -22 -51 2 -22 7
-107 11 -190 5 -82 12 -157 16 -167 10 -21 51 -31 75 -18 25 13 47 76 61 170
6 41 13 76 15 78 5 5 11 -20 30 -132 15 -91 33 -126 66 -126 23 0 53 44 67
100 6 25 20 82 32 127 28 109 36 199 20 218 -17 21 -32 18 -55 -8z m45 -57 c0
-35 -37 -194 -66 -282 -16 -50 -39 -77 -54 -62 -8 9 -37 124 -47 191 -6 40
-35 69 -51 51 -5 -7 -17 -55 -26 -107 -16 -97 -35 -141 -61 -141 -25 0 -29 22
-37 175 -4 83 -9 165 -11 184 -2 39 19 55 28 19 3 -13 9 -70 13 -128 6 -88 10
-105 25 -108 12 -3 17 3 17 19 0 12 9 58 21 101 20 73 23 78 49 78 39 0 49
-17 61 -108 7 -44 15 -86 20 -93 17 -29 36 14 53 119 18 111 41 167 57 141 5
-8 9 -30 9 -49z"/>
<path d="M6301 585 c-100 -91 -98 -378 4 -421 41 -17 114 -9 139 15 30 30 52
92 46 131 -4 29 -9 35 -30 35 -19 0 -27 -7 -33 -30 -19 -61 -27 -75 -46 -75
-25 0 -36 16 -49 69 -14 56 -7 74 25 66 13 -3 46 -3 74 1 41 6 52 12 64 35 34
65 7 161 -55 191 -55 28 -94 23 -139 -17z m161 -17 c18 -26 23 -46 23 -91 0
-75 -16 -89 -100 -85 -79 3 -88 -3 -80 -56 12 -69 30 -103 60 -110 35 -9 56
10 70 61 14 51 35 55 35 6 0 -45 -30 -99 -65 -115 -42 -19 -97 4 -124 52 -34
60 -39 186 -12 265 31 85 52 105 117 105 48 0 55 -3 76 -32z"/>
<path d="M6337 536 c-27 -25 -43 -68 -33 -85 4 -6 39 -9 79 -8 l72 2 -3 40
c-5 71 -65 97 -115 51z m87 -5 c20 -22 18 -77 -1 -75 -7 1 -33 2 -58 3 -39 1
-45 4 -45 23 0 29 38 68 65 68 12 0 30 -9 39 -19z"/>
<path d="M8512 609 c-12 -5 -29 -20 -38 -35 -18 -26 -17 -27 5 -45 26 -22 52
-24 68 -8 18 18 41 3 58 -37 16 -39 21 -68 7 -48 -13 20 -68 43 -89 38 -11 -3
-30 -23 -42 -44 -35 -63 -27 -237 12 -262 26 -16 66 -8 86 18 l21 26 26 -31
c27 -32 52 -38 83 -21 30 15 33 38 8 63 -21 21 -22 31 -22 157 0 91 -4 142
-13 158 -28 48 -123 88 -170 71z m110 -49 c46 -38 56 -82 47 -210 -6 -100 -1
-133 25 -143 9 -4 16 -11 16 -17 0 -18 -43 -11 -67 12 -28 27 -30 80 -5 154
15 42 16 56 5 92 -16 55 -50 102 -74 102 -12 0 -19 7 -19 20 0 29 29 25 72
-10z m-95 -5 c3 -9 3 -19 -1 -22 -8 -9 -37 18 -30 28 8 14 24 11 31 -6z m76
-132 c9 -3 17 -14 17 -24 0 -23 -15 -25 -24 -4 -7 19 -60 20 -76 0 -17 -20
-24 -84 -13 -125 10 -40 40 -51 67 -25 19 19 21 6 4 -29 -13 -30 -43 -42 -63
-26 -32 27 -46 155 -24 217 13 40 47 56 74 37 11 -8 28 -17 38 -21z m-23 -42
c0 -5 8 -11 18 -13 15 -2 17 -8 10 -33 -11 -39 -53 -89 -67 -81 -12 8 -16 118
-4 129 10 10 43 8 43 -2z"/>
<path d="M6591 585 c-41 -35 -66 -145 -58 -257 6 -91 22 -123 73 -144 52 -22
97 -9 139 38 28 31 35 46 33 71 -2 26 -8 33 -29 35 -21 2 -31 -4 -47 -32 -37
-63 -82 -38 -82 45 0 54 15 69 68 69 53 0 92 21 92 50 0 46 -33 101 -75 125
-53 32 -76 31 -114 0z m107 -15 c30 -21 44 -41 52 -71 16 -60 9 -69 -52 -69
-76 0 -98 -18 -98 -80 0 -58 16 -97 42 -106 22 -7 63 17 78 46 13 24 40 27 40
5 0 -33 -32 -77 -66 -91 -32 -14 -39 -13 -72 3 -49 24 -62 53 -62 144 0 108
17 184 51 220 15 16 31 29 37 29 5 0 27 -13 50 -30z"/>
<path d="M6642 543 c-7 -3 -19 -18 -28 -35 -21 -40 -8 -52 59 -53 47 0 52 2
55 23 5 32 -54 76 -86 65z m58 -40 l22 -28 -24 -5 c-40 -10 -68 0 -68 24 0 45
38 49 70 9z"/>
<path d="M7729 601 c-1 -3 0 -10 1 -16 2 -5 2 -82 1 -171 -2 -162 3 -197 34
-227 22 -23 68 -21 90 3 16 18 17 22 3 38 -28 31 -38 86 -37 206 1 103 -1 122
-18 145 -18 23 -71 39 -74 22z m55 -34 c11 -16 16 -60 19 -164 3 -116 6 -146
20 -161 25 -27 21 -42 -12 -42 -22 0 -31 7 -40 28 -13 30 -21 362 -9 362 4 0
14 -10 22 -23z"/>
<path d="M8873 590 c-27 -16 -32 -17 -46 -3 -12 12 -19 13 -37 3 -12 -6 -28
-9 -37 -6 -28 11 -32 -4 -13 -42 25 -49 28 -73 29 -234 1 -122 3 -138 19 -147
31 -17 67 9 69 49 6 104 4 250 -5 287 -11 50 5 83 42 83 40 0 48 -38 46 -231
-1 -170 0 -178 20 -184 11 -3 29 -3 40 0 33 10 40 37 29 101 -6 33 -11 109
-13 170 l-2 111 27 16 c26 15 30 14 54 -5 l26 -20 -3 -179 c-3 -201 -1 -208
55 -190 41 14 79 51 59 58 -30 11 -42 61 -42 183 0 67 -4 129 -10 139 -5 10
-32 26 -60 35 -47 15 -52 15 -76 0 -23 -16 -28 -16 -52 -2 -46 26 -86 29 -119
8z m-52 -37 c14 -38 17 -365 3 -370 -23 -8 -33 56 -35 217 -1 91 -1 168 0 173
3 17 22 5 32 -20z m170 -12 c1 -14 2 -73 3 -131 1 -58 6 -129 10 -157 7 -45 6
-54 -8 -59 -9 -4 -20 -4 -23 -1 -3 4 -7 83 -9 177 -1 93 -6 174 -9 180 -9 15
4 30 20 23 8 -3 16 -17 16 -32z m172 -8 c3 -15 3 -78 0 -140 -5 -100 -4 -115
15 -146 20 -36 15 -57 -15 -57 -17 0 -17 -2 -18 197 0 162 6 209 18 146z"/>
<path d="M8291 581 c-13 -8 -12 -15 2 -48 11 -27 18 -82 22 -187 6 -167 13
-186 70 -186 50 0 60 20 34 66 -22 38 -26 84 -29 295 0 50 -59 85 -99 60z m63
-27 c13 -12 16 -40 16 -137 0 -133 9 -188 36 -218 16 -18 16 -19 -8 -19 -46 0
-59 37 -58 158 1 59 1 109 0 112 -1 3 -3 16 -4 30 -1 14 -6 40 -10 58 -8 35 3
42 28 16z"/>
<path d="M1130 550 c0 -14 55 -40 82 -40 13 1 40 7 61 14 32 12 40 12 52 -1
17 -16 20 -63 5 -63 -6 0 -13 6 -16 14 -3 8 -11 17 -19 19 -13 6 -79 -14 -92
-27 -5 -4 -10 -76 -13 -159 -4 -136 -7 -152 -23 -155 -38 -8 -46 3 -32 45 18
54 27 214 15 270 -10 43 -36 77 -51 67 -4 -2 2 -21 13 -41 17 -34 19 -51 14
-157 -4 -83 -11 -127 -22 -143 -23 -36 -10 -60 36 -65 71 -6 75 3 75 167 0
132 2 145 20 159 26 20 49 20 65 1 15 -18 59 -20 66 -2 7 20 -19 89 -38 101
-13 8 -30 6 -68 -8 -46 -17 -52 -17 -75 -2 -27 18 -55 21 -55 6z"/>
<path d="M1495 549 c-72 -42 -115 -121 -115 -211 1 -110 55 -188 132 -188 111
0 176 292 85 378 -28 27 -75 36 -102 21z m84 -30 c40 -43 41 -201 2 -277 -34
-68 -80 -80 -123 -34 -37 38 -50 77 -50 148 1 75 27 132 74 163 42 26 72 27
97 0z"/>
<path d="M1498 479 c-20 -11 -48 -97 -48 -147 0 -63 63 -133 93 -103 33 33 48
163 24 210 -17 34 -48 52 -69 40z m35 -27 c38 -42 28 -207 -12 -200 -29 6 -42
49 -38 124 5 95 17 113 50 76z"/>
<path d="M1778 544 c-33 -17 -48 -43 -48 -81 1 -38 18 -66 68 -108 30 -26 42
-44 42 -64 0 -53 -41 -67 -80 -26 -28 30 -55 32 -70 6 -26 -50 51 -125 126
-124 80 1 126 50 126 132 -1 65 -30 120 -81 154 -23 15 -41 32 -41 37 0 16 16
12 35 -10 23 -25 47 -25 69 -1 53 59 -67 128 -146 85z m114 -21 c20 -18 24
-48 7 -59 -6 -3 -23 6 -39 21 -33 32 -60 28 -60 -9 0 -18 12 -33 46 -57 67
-46 93 -126 62 -194 -13 -29 -55 -55 -87 -55 -53 0 -124 60 -106 90 5 8 16 3
35 -15 23 -22 34 -26 59 -20 17 4 38 16 46 28 28 39 18 65 -45 128 -46 45 -60
66 -60 88 0 58 97 95 142 54z"/>
<path d="M2086 545 c-44 -15 -53 -26 -62 -73 -8 -40 15 -76 64 -102 55 -30 63
-41 60 -79 -2 -29 -8 -38 -30 -45 -23 -8 -34 -6 -60 14 -39 29 -63 18 -63 -30
0 -49 39 -74 115 -75 55 0 62 3 85 30 34 42 40 69 25 132 -13 59 -38 90 -98
122 -12 6 -22 18 -22 26 0 26 22 27 49 1 29 -28 60 -33 79 -14 21 21 13 43
-30 76 -46 36 -56 37 -112 17z m109 -35 c25 -26 26 -30 11 -36 -11 -4 -31 3
-54 20 l-37 27 -22 -26 c-13 -14 -23 -30 -23 -35 0 -5 22 -24 50 -42 53 -34
90 -94 90 -144 0 -33 -27 -80 -54 -91 -43 -19 -146 18 -146 52 0 8 9 15 20 15
11 0 20 -4 20 -9 0 -18 58 -23 89 -7 32 17 42 37 37 77 -4 37 -11 45 -66 76
-78 44 -91 111 -26 139 49 21 79 17 111 -16z"/>
<path d="M2834 548 c-4 -6 -1 -14 6 -18 21 -13 29 -89 24 -210 -3 -70 -1 -126
5 -142 9 -25 16 -28 55 -28 25 0 48 4 51 10 3 5 -2 24 -12 42 -15 27 -18 58
-18 170 0 113 -3 140 -16 153 -21 21 -87 37 -95 23z m77 -34 c10 -12 16 -61
20 -158 3 -78 10 -151 14 -163 7 -21 4 -23 -24 -23 -41 0 -44 14 -39 189 2 77
0 147 -4 156 -12 21 15 20 33 -1z"/>
<path d="M2556 371 c-7 -11 -10 -181 -3 -187 2 -3 26 -1 53 3 43 7 51 12 67
45 25 50 13 117 -23 135 -29 15 -86 17 -94 4z m102 -28 c12 -32 8 -102 -8
-117 -8 -9 -31 -17 -50 -18 l-35 -3 3 60 c4 87 8 95 48 95 24 0 37 -6 42 -17z"/>
<path d="M9298 233 c-37 -43 -28 -83 18 -83 28 0 46 30 42 68 -4 33 -37 41
-60 15z m32 -23 c0 -11 -4 -20 -9 -20 -11 0 -22 26 -14 34 12 12 23 5 23 -14z"/>
<path d="M3517 223 c-14 -13 -7 -62 11 -71 31 -16 67 1 70 32 2 16 -2 33 -10
37 -16 10 -62 12 -71 2z m63 -34 c0 -12 -7 -19 -19 -19 -23 0 -35 15 -27 35 7
20 46 7 46 -16z"/>
</g>
</svg>
