<?xml version="1.0" standalone="no"?>
<!DOCTYPE svg PUBLIC "-//W3C//DTD SVG 20010904//EN"
 "http://www.w3.org/TR/2001/REC-SVG-20010904/DTD/svg10.dtd">
<svg version="1.0" xmlns="http://www.w3.org/2000/svg"
 width="1000.000000pt" height="659.000000pt" viewBox="0 0 1000.000000 659.000000"
 preserveAspectRatio="xMidYMid meet">
<metadata>
Created by potrace 1.16, written by Peter Selinger 2001-2019
</metadata>
<g transform="translate(0.000000,659.000000) scale(0.100000,-0.100000)"
fill="#000000" stroke="none">
<path d="M8406 6485 c-11 -8 -31 -15 -44 -15 -14 0 -22 -5 -19 -12 2 -7 14
-12 26 -10 19 3 22 -1 19 -19 -2 -13 -12 -28 -23 -34 -37 -18 -45 -26 -40 -35
3 -5 19 -4 36 2 21 7 36 22 46 47 8 20 27 48 41 64 l26 27 -25 0 c-13 0 -33
-7 -43 -15z"/>
<path d="M8050 6466 c0 -9 -23 -27 -50 -41 -55 -28 -94 -61 -86 -73 3 -5 -22
-21 -54 -36 -105 -50 -209 -181 -264 -333 -30 -84 -96 -252 -124 -315 -11 -25
-18 -48 -16 -51 3 -3 -8 -32 -24 -64 -16 -33 -32 -75 -36 -94 -3 -19 -27 -64
-51 -101 -25 -37 -45 -70 -45 -73 0 -7 -120 -188 -129 -195 -20 -16 -75 -108
-110 -185 -46 -99 -79 -222 -82 -305 -1 -30 -6 -66 -11 -80 -11 -30 -54 -188
-75 -279 -18 -74 -139 -315 -220 -436 -47 -71 -162 -205 -175 -205 -3 0 -8 39
-12 88 -9 107 -34 219 -57 253 -10 14 -21 38 -25 55 -4 16 -10 34 -14 39 -4 6
-10 21 -14 35 -4 14 -12 41 -17 60 -6 19 -12 55 -14 80 -8 95 -30 184 -52 217
-13 19 -23 36 -23 39 0 2 -21 47 -47 99 -49 100 -71 117 -94 73 -16 -30 4
-115 51 -208 39 -78 47 -113 56 -239 5 -67 43 -208 64 -236 4 -5 13 -28 20
-50 7 -22 23 -61 36 -87 13 -26 24 -60 24 -75 l0 -27 -28 27 c-15 15 -32 27
-36 27 -4 0 -28 15 -54 32 -26 18 -64 41 -84 50 -21 9 -66 45 -100 81 -69 69
-103 133 -138 257 -59 205 -201 394 -240 320 -13 -25 4 -77 40 -121 47 -59 85
-130 99 -184 7 -27 19 -77 28 -110 21 -83 97 -220 153 -276 31 -31 84 -65 160
-103 63 -32 120 -62 127 -67 6 -6 22 -32 35 -57 21 -44 23 -45 26 -20 4 30
-22 87 -48 105 -17 12 -45 73 -34 73 3 0 19 -9 35 -21 33 -23 77 -104 89 -161
7 -39 0 -47 -50 -53 -15 -2 -110 -18 -120 -20 -163 -39 -289 -136 -312 -239
-21 -93 -21 -102 7 -152 15 -27 40 -63 57 -81 l31 -32 -23 -35 c-22 -36 -34
-42 -65 -30 -13 5 -10 12 19 39 39 36 47 51 17 36 -11 -6 -31 -7 -52 -1 -46
11 -112 7 -117 -8 -4 -13 3 -15 68 -16 39 -1 45 -4 42 -21 -5 -26 -1 -24 -53
-29 -81 -9 -124 -22 -166 -51 -24 -15 -43 -34 -43 -41 0 -20 14 -17 35 6 19
21 78 44 97 38 6 -2 -5 -22 -27 -46 -21 -24 -35 -45 -31 -49 8 -9 44 25 72 70
31 48 48 49 41 1 -5 -30 -4 -34 8 -24 8 7 15 26 15 42 0 29 19 44 44 35 12 -5
12 -12 1 -44 -7 -21 -11 -41 -8 -46 8 -14 22 4 29 37 7 40 39 55 54 26 11 -20
-6 -84 -20 -75 -11 7 -60 -16 -60 -28 0 -5 8 -6 18 -2 9 4 23 10 31 13 10 4
13 1 8 -11 -3 -9 -2 -17 4 -17 9 0 6 -45 -8 -92 -2 -10 0 -18 5 -18 17 0 32
45 36 111 6 70 18 113 35 124 6 3 11 14 11 25 0 10 7 20 15 24 13 5 13 1 0
-31 -17 -41 -19 -53 -6 -53 5 0 14 14 20 31 6 17 15 28 20 24 6 -3 2 -20 -10
-40 -26 -44 -9 -45 31 -4 16 18 30 27 30 21 0 -26 -52 -117 -84 -147 -34 -31
-46 -55 -27 -55 5 0 11 7 15 15 10 28 26 16 20 -15 -5 -23 -3 -30 9 -30 10 0
13 6 10 20 -3 11 2 31 11 45 9 13 16 28 16 33 0 16 51 125 55 120 3 -3 -1 -39
-8 -81 -7 -42 -10 -77 -6 -77 18 0 31 34 33 85 3 53 17 87 29 68 3 -5 8 -37
12 -70 5 -55 2 -67 -22 -107 -22 -36 -32 -44 -48 -40 -13 3 -27 -1 -36 -12
-13 -16 -12 -17 14 -10 38 9 32 -12 -11 -39 -39 -25 -41 -37 -5 -33 16 2 33
14 42 29 69 115 74 121 83 106 4 -9 4 -26 -1 -40 -10 -27 1 -53 18 -43 6 4 9
12 5 17 -3 6 0 23 6 40 10 23 10 32 0 44 -6 8 -9 18 -6 23 3 5 -1 31 -8 58
-13 48 -11 114 3 114 4 0 12 -5 17 -10 14 -14 113 9 171 38 102 53 142 133
125 255 -8 61 -7 65 9 56 23 -12 59 -58 59 -75 0 -7 6 -17 14 -21 8 -4 24 -26
37 -48 27 -46 81 -121 108 -150 10 -11 33 -42 51 -70 66 -102 203 -200 310
-222 14 -3 31 -10 38 -16 13 -10 82 -26 142 -33 95 -11 302 -58 335 -76 25
-14 63 -24 195 -51 105 -21 227 -27 287 -15 l32 7 7 -57 c3 -31 13 -64 20 -73
8 -9 19 -62 25 -125 7 -60 16 -112 21 -115 5 -3 9 -32 9 -65 -1 -58 -3 -74
-13 -104 -3 -8 -13 -58 -23 -110 -10 -52 -28 -117 -40 -145 -12 -27 -25 -62
-28 -76 -6 -25 -91 -118 -134 -146 -12 -8 -30 -12 -40 -9 -10 3 -58 47 -108
96 -76 77 -98 93 -142 106 -57 17 -85 12 -148 -25 -42 -24 -76 -111 -76 -197
-1 -70 -13 -80 -37 -31 -13 27 -23 33 -35 20 -4 -3 11 -24 33 -45 22 -22 40
-41 40 -44 0 -10 -23 -2 -60 21 -47 29 -59 32 -38 8 35 -42 28 -45 -28 -14
-32 18 -70 46 -84 61 -14 16 -37 32 -52 36 -34 8 -38 -11 -5 -22 12 -4 31 -17
42 -28 11 -12 29 -25 39 -29 26 -10 5 -34 -37 -42 -60 -12 -70 -16 -59 -27 6
-6 17 -6 30 1 11 6 30 11 41 11 12 0 21 5 21 10 0 6 16 10 35 10 19 0 35 -4
35 -9 0 -16 -56 -51 -82 -52 -21 0 -22 -1 -3 -8 11 -5 26 -6 34 -3 8 3 19 -1
25 -9 9 -12 16 -12 46 4 l35 19 -37 -5 c-21 -3 -38 -2 -38 4 0 5 6 9 14 9 8 0
16 7 20 15 8 21 99 21 116 0 7 -9 9 -19 5 -23 -4 -4 -10 -1 -12 6 -5 14 -49
16 -58 3 -3 -5 3 -11 12 -13 12 -3 6 -8 -19 -17 -38 -13 -51 -31 -22 -31 8 0
24 5 36 11 29 16 35 2 8 -21 -17 -15 -39 -20 -89 -22 -63 -2 -64 -2 -13 -5 28
-2 52 -8 52 -12 0 -12 -123 -66 -142 -63 -10 2 -18 -2 -18 -7 0 -6 14 -12 30
-12 17 -1 36 -2 43 -3 6 -1 11 4 10 11 -3 15 34 36 47 28 16 -10 50 5 50 21 0
19 38 56 50 49 11 -7 13 6 10 43 -1 20 2 23 27 20 24 -2 28 1 27 20 0 12 3 22
8 22 4 0 8 -4 8 -10 0 -5 7 -7 15 -4 21 8 19 -13 -2 -25 -16 -9 -16 -10 5 -11
12 0 22 -4 22 -10 0 -5 -5 -10 -12 -10 -6 0 -3 -7 8 -15 10 -8 26 -14 34 -15
13 0 13 1 0 10 -11 7 -6 10 20 11 35 1 35 1 7 9 -36 11 -57 28 -57 47 0 10 4
11 19 3 30 -16 36 -12 15 11 -12 13 -25 18 -41 15 -35 -9 -47 23 -20 53 l22
25 -27 -17 c-36 -23 -49 -21 -20 2 14 12 20 25 16 36 -4 11 5 29 27 52 36 38
26 36 -28 -3 -35 -27 -43 -29 -43 -14 0 6 10 15 23 20 27 11 76 49 63 50 -5 0
-24 -9 -42 -21 -40 -24 -46 -12 -8 16 35 26 113 59 121 52 3 -4 -4 -15 -17
-25 l-23 -18 39 3 39 3 -34 -13 c-19 -7 -37 -20 -40 -28 -3 -11 -1 -12 11 -2
8 7 17 10 21 7 3 -3 16 0 29 7 21 11 22 11 9 -5 -18 -21 -8 -31 17 -17 12 6
31 11 44 11 19 -1 17 -4 -15 -21 -40 -21 -45 -46 -8 -42 23 3 29 -12 9 -20 -7
-2 -10 -8 -6 -12 4 -4 13 -3 20 2 7 5 24 7 38 3 24 -6 24 -7 -7 -14 -18 -4
-33 -12 -33 -17 0 -12 17 -11 40 1 10 6 21 6 24 2 8 -13 -23 -52 -42 -53 -10
0 -12 -3 -5 -6 19 -7 83 36 83 55 0 14 2 14 9 3 7 -11 11 -10 20 6 6 11 22 23
37 26 25 4 24 3 -13 -32 -22 -20 -48 -42 -59 -49 -18 -12 -18 -12 4 -7 29 8
31 -21 2 -30 -13 -4 -20 -15 -20 -31 0 -14 4 -23 9 -20 5 3 11 -6 14 -20 3
-20 -1 -28 -19 -36 -13 -6 -24 -17 -24 -24 0 -6 -7 -15 -16 -18 -8 -3 -12 -10
-9 -16 3 -5 0 -10 -7 -11 -7 0 -33 -2 -56 -4 -41 -3 -43 -2 -39 18 7 26 -18
47 -80 67 -25 7 -45 21 -48 32 -4 10 -11 18 -17 18 -5 0 -7 -7 -4 -16 4 -10
-1 -25 -10 -35 -10 -11 -13 -19 -7 -19 23 0 -1 -50 -33 -69 -36 -21 -45 -14
-18 13 29 29 9 36 -21 8 -16 -16 -49 -39 -72 -52 -23 -13 -40 -27 -37 -32 3
-4 17 0 31 9 26 17 26 17 21 -5 -8 -30 8 -28 28 3 11 17 22 24 35 20 11 -4 25
3 38 16 11 13 24 19 28 16 3 -4 -3 -17 -14 -30 -11 -12 -24 -32 -27 -44 -4
-11 -13 -27 -21 -33 -17 -14 -20 -50 -5 -50 5 0 19 23 31 50 12 28 25 50 30
50 5 0 6 -7 2 -16 -4 -12 -2 -15 8 -12 8 2 15 18 17 34 5 39 40 78 59 63 7 -6
13 -17 13 -24 0 -31 91 -45 162 -23 52 15 108 77 108 121 1 17 9 50 20 72 11
22 19 47 20 55 0 24 21 40 53 40 20 0 30 6 34 18 2 10 14 25 25 33 68 46 171
173 183 226 2 10 20 63 39 118 19 55 42 129 51 165 9 36 21 73 26 83 6 10 24
57 41 105 16 48 36 99 44 113 7 15 25 71 39 125 15 55 32 104 38 111 7 6 77
16 167 22 85 5 173 12 195 15 22 3 70 8 108 11 114 11 64 25 -91 25 -81 1
-160 2 -177 4 -16 1 -62 3 -102 4 l-72 2 15 48 c8 26 21 68 29 93 8 26 15 55
15 66 0 10 11 52 26 93 14 41 31 95 39 120 8 25 37 110 64 190 27 80 47 148
45 152 -7 11 36 131 51 142 14 12 44 107 75 241 11 50 23 97 25 105 17 59 43
185 39 195 -3 6 0 24 6 39 9 26 37 146 46 206 27 169 24 356 -7 450 -10 30
-25 100 -34 155 -9 55 -21 108 -26 118 -14 26 -69 161 -69 169 0 15 -143 298
-156 309 -11 9 -18 9 -29 -1 -19 -16 -19 -16 -39 47 -10 29 -22 56 -27 59 -21
13 -21 -7 0 -57 13 -28 32 -85 42 -127 16 -61 18 -77 7 -83 -9 -6 -15 1 -20
26 -4 19 -20 53 -34 75 -27 41 -40 42 -66 5 -9 -13 -15 -6 -23 28 -5 17 -3 27
4 27 6 0 11 -4 11 -10 0 -25 18 -6 28 29 15 47 15 64 2 56 -5 -3 -10 1 -10 10
0 23 -24 13 -28 -11 -8 -41 -22 -37 -23 6 -1 53 -30 162 -44 166 -17 5 -39
-18 -78 -83 -32 -53 -42 -61 -64 -60 -23 2 -32 -7 -60 -53 -37 -61 -40 -72
-17 -63 14 5 16 2 10 -23 -4 -16 -12 -31 -17 -35 -6 -3 -12 -26 -14 -51 -2
-24 -9 -56 -15 -69 -8 -19 -9 -14 -6 31 2 30 7 63 11 73 4 10 3 17 -4 17 -15
0 -32 36 -25 54 3 9 12 16 20 16 7 0 20 13 29 30 19 37 19 41 -2 34 -15 -5
-15 -3 2 11 11 8 38 30 60 48 22 18 58 50 81 72 23 22 56 54 74 70 41 38 75
90 101 158 50 126 76 276 45 264 -11 -5 -13 10 -8 79 2 46 2 84 -2 84 -11 0
-76 -54 -76 -64 0 -4 9 -6 20 -3 71 19 16 -140 -70 -200 -20 -14 -20 -13 -14
14 3 17 -7 5 -26 -32 -18 -33 -40 -71 -50 -85 -29 -44 -32 -50 -18 -50 7 0 23
20 34 43 12 23 31 47 42 53 11 5 40 33 64 62 46 55 55 54 39 -2 -12 -45 3 -56
24 -19 l15 28 -6 -30 c-10 -54 -46 -160 -59 -175 -7 -8 -22 -34 -34 -57 -12
-24 -26 -43 -32 -43 -6 0 -7 5 -4 10 3 6 1 10 -4 10 -6 0 -11 -5 -11 -10 0 -6
-17 -33 -37 -60 -25 -34 -45 -50 -59 -50 -14 0 -36 -16 -56 -39 -36 -43 -134
-111 -158 -111 -8 0 -40 -15 -71 -34 -31 -19 -67 -37 -80 -41 -13 -4 -31 -13
-39 -19 -8 -7 -78 -41 -154 -76 -135 -63 -142 -67 -240 -165 -56 -55 -113
-116 -128 -136 -28 -37 -168 -181 -229 -234 -19 -16 -60 -60 -92 -97 -33 -37
-64 -66 -69 -65 -6 1 -13 -4 -15 -10 -3 -7 2 -13 11 -13 13 0 13 -5 1 -42 -24
-69 -69 -222 -70 -238 -5 -47 -28 -130 -40 -146 -8 -11 -15 -26 -15 -34 0 -8
-11 -35 -25 -60 -13 -25 -32 -61 -41 -80 -17 -37 -137 -212 -167 -245 -10 -11
-37 -45 -60 -75 -23 -30 -54 -68 -69 -85 -33 -36 -58 -104 -58 -159 0 -30 -3
-37 -10 -26 -5 8 -10 28 -10 43 0 16 -4 26 -9 23 -10 -7 -1 -110 10 -114 12
-5 11 -39 -1 -47 -5 -3 -10 -22 -10 -40 0 -46 -44 -154 -78 -193 -27 -31 -140
-98 -149 -88 -3 2 17 16 44 30 47 23 50 27 51 66 1 23 4 46 8 51 3 5 0 9 -5 9
-6 0 -11 -4 -11 -10 0 -5 -6 -7 -14 -4 -9 4 -15 -7 -20 -35 -7 -48 -34 -68
-68 -50 l-22 12 22 17 c12 10 22 22 22 26 0 4 6 15 14 23 7 9 17 34 20 56 7
37 6 39 -9 24 -8 -8 -17 -29 -19 -46 -6 -41 -23 -73 -41 -73 -8 0 -18 -7 -23
-16 -6 -11 -11 -13 -16 -5 -4 6 -3 11 3 11 5 0 13 9 16 20 3 11 12 20 20 20
12 0 25 21 25 41 0 17 -18 9 -23 -11 -3 -11 -12 -20 -20 -20 -12 0 -14 8 -10
35 4 23 2 35 -6 35 -6 0 -11 -15 -11 -34 0 -19 -5 -38 -11 -42 -11 -7 -9 26 8
95 5 20 3 22 -15 17 -15 -5 -22 -2 -27 15 -4 11 -2 26 4 32 6 6 11 15 11 21 0
20 -43 -31 -58 -68 -9 -22 -17 -35 -20 -28 -4 14 56 124 75 135 7 5 11 13 8
18 -4 5 -12 6 -18 2 -7 -4 -6 1 2 10 8 10 11 20 7 24 -3 3 1 15 11 25 21 24
-3 25 -29 1 -10 -9 -18 -11 -18 -5 0 24 75 72 129 83 65 13 177 43 205 54 16
7 18 5 13 -14 -3 -14 -1 -21 6 -18 7 2 13 13 15 24 2 12 46 66 99 120 99 101
178 211 240 336 19 40 47 95 62 122 34 62 58 128 67 180 4 22 12 51 19 65 7
14 13 27 13 30 -1 11 15 80 38 160 13 47 26 112 28 145 3 33 9 73 15 88 6 16
11 43 11 61 0 18 11 56 25 84 14 29 25 56 25 61 0 5 13 20 29 33 28 22 61 76
61 98 0 7 15 30 33 53 18 23 55 77 81 120 27 43 57 84 68 90 21 13 52 77 63
128 6 32 19 69 71 204 13 33 42 110 64 170 23 61 46 118 52 129 5 10 16 36 23
57 32 90 190 269 237 269 20 0 90 59 70 60 -20 0 -5 17 30 34 37 19 38 19 38
5 0 -7 -8 -18 -17 -25 -16 -12 -14 -13 17 -8 19 3 52 12 73 20 20 8 37 10 37
5 0 -16 -101 -141 -114 -141 -7 0 -30 -16 -52 -36 l-39 -35 40 25 c46 30 65
34 42 8 -10 -10 -17 -22 -17 -27 0 -5 -8 -17 -17 -27 -16 -18 -27 -88 -14 -88
6 0 39 62 60 114 10 23 14 27 21 16 7 -12 14 -10 38 13 15 15 34 27 41 27 7 0
25 9 41 20 15 11 30 17 33 14 9 -10 107 67 107 85 0 9 7 27 16 39 8 12 14 32
12 45 -3 20 -8 22 -51 20 -56 -2 -65 -7 -48 -27 10 -12 17 -13 32 -3 14 9 21
9 31 -1 22 -22 -23 -83 -89 -118 -32 -17 -78 -45 -103 -62 -25 -17 -46 -29
-48 -27 -5 4 24 49 75 117 48 64 51 74 24 81 -15 4 -18 11 -14 27 6 21 3 22
-23 17 -16 -3 -37 -1 -46 4 -14 7 -18 6 -18 -5z m34 -50 c-3 -9 -10 -13 -15
-10 -6 3 -16 0 -24 -6 -12 -10 -15 -10 -15 2 0 8 12 19 28 24 32 12 34 12 26
-10z m405 -830 c14 -17 21 -175 10 -226 -20 -90 -38 -159 -53 -199 -19 -51
-19 -54 -7 -46 13 7 58 152 60 193 1 7 6 10 11 7 6 -3 10 3 10 14 0 44 19 28
30 -25 9 -40 16 -54 25 -50 24 9 33 -92 22 -246 -3 -44 -1 -78 4 -78 5 0 9 24
9 54 0 59 15 111 29 102 18 -11 2 -132 -28 -214 -17 -46 -31 -92 -31 -103 0
-11 -4 -18 -9 -15 -11 7 -21 -42 -21 -108 0 -28 -4 -68 -9 -89 -7 -30 -6 -37
4 -34 12 5 19 -33 31 -188 13 -170 16 -205 21 -255 3 -30 6 -130 6 -222 0 -93
3 -168 6 -168 15 0 -1 -165 -29 -315 -6 -33 -13 -104 -15 -158 -3 -54 -6 -101
-9 -106 -3 -4 -6 -47 -7 -96 -1 -48 -7 -110 -14 -137 -7 -26 -9 -46 -4 -43 14
9 27 73 34 165 3 47 13 127 21 178 8 52 12 97 9 102 -3 4 4 59 15 121 40 223
49 395 36 702 -4 100 3 131 18 72 4 -14 14 -33 24 -43 9 -9 27 -31 39 -47 15
-20 22 -25 23 -14 0 9 -14 36 -32 60 -18 24 -45 70 -60 101 l-28 57 9 163 c5
90 7 193 4 229 -6 74 14 202 52 334 13 45 24 90 23 101 0 21 24 177 28 183 7
8 45 -45 74 -101 l30 -58 -17 -62 c-9 -35 -22 -69 -29 -77 -8 -9 -9 -22 -4
-40 10 -28 18 -261 10 -261 -3 0 -13 14 -22 30 -9 17 -22 30 -28 30 -19 0 -10
-22 26 -58 l35 -35 -5 -176 c-3 -97 -7 -187 -10 -201 -15 -82 -46 -333 -42
-337 7 -7 14 25 32 152 38 268 42 321 37 490 -3 94 -5 186 -4 205 1 19 -3 68
-9 109 -6 41 -7 77 -2 80 14 11 32 62 33 94 0 32 0 32 11 7 9 -24 19 -46 55
-130 8 -19 19 -43 24 -52 5 -10 9 -27 9 -37 0 -11 4 -22 9 -25 5 -3 7 -15 4
-26 -3 -11 -2 -28 2 -37 4 -10 7 -41 6 -69 -2 -37 2 -53 12 -57 28 -11 40
-111 33 -272 -7 -155 -10 -180 -45 -375 -38 -215 -42 -232 -81 -315 -5 -11
-11 -38 -14 -60 -2 -22 -11 -60 -20 -85 -9 -25 -16 -53 -16 -62 0 -10 -9 -32
-19 -50 -11 -17 -18 -35 -15 -40 3 -4 1 -8 -4 -8 -5 0 -19 -48 -32 -107 -12
-60 -31 -127 -41 -150 -11 -24 -18 -46 -17 -50 0 -5 -2 -17 -6 -28 -30 -78
-36 -97 -36 -113 0 -9 -6 -28 -13 -42 -13 -24 -51 -140 -50 -150 0 -3 -4 -16
-9 -30 -5 -14 -12 -36 -14 -50 -9 -53 -50 -142 -86 -189 -22 -29 -23 -45 -2
-37 19 7 20 9 -30 -129 -20 -55 -36 -110 -36 -122 0 -24 -19 -33 -21 -10 -1 6
-5 -4 -9 -23 -4 -19 -14 -57 -23 -85 -8 -27 -24 -86 -36 -130 -12 -44 -26 -89
-31 -100 -4 -11 -16 -45 -25 -75 -9 -30 -25 -74 -36 -97 -10 -24 -19 -49 -19
-57 0 -8 -13 -35 -30 -59 -16 -25 -30 -49 -30 -54 0 -14 -82 -89 -120 -111
l-35 -19 -1 24 c-1 12 4 23 10 23 21 0 140 123 160 165 10 22 22 47 26 56 12
24 57 199 65 249 4 25 10 54 13 65 3 11 7 62 9 114 4 82 2 93 -11 88 -12 -5
-16 1 -17 26 -1 18 -1 36 0 41 3 14 -22 108 -36 135 -6 14 -10 28 -7 32 8 14
-47 220 -76 284 -11 24 -20 53 -20 65 0 11 -8 46 -19 78 -10 31 -24 82 -31
112 -6 30 -20 71 -30 90 -10 19 -28 82 -40 140 -12 58 -29 120 -36 139 -8 18
-21 59 -29 90 -22 90 -55 204 -66 226 -9 20 -23 69 -55 190 -31 124 -67 235
-76 235 -4 0 -8 -6 -8 -12 0 -25 53 -234 87 -343 19 -60 40 -135 48 -165 14
-60 48 -171 70 -235 8 -22 21 -71 29 -110 20 -96 37 -157 47 -175 5 -8 12 -23
15 -32 4 -10 9 -18 13 -18 4 0 7 -8 8 -17 5 -52 73 -295 87 -308 9 -9 16 -19
17 -23 0 -4 3 -16 6 -27 2 -11 5 -36 6 -55 l2 -35 -70 -7 c-56 -6 -97 -2 -200
18 -130 25 -182 38 -220 54 -23 10 -187 50 -225 55 -14 2 -46 7 -72 10 -40 5
-48 10 -49 28 -1 17 -2 18 -6 5 -6 -24 -26 -23 -114 6 -212 70 -287 134 -480
414 -35 51 -73 107 -83 124 l-20 31 32 -18 c18 -11 32 -23 32 -28 0 -4 24 -32
54 -62 29 -30 74 -87 100 -128 45 -74 105 -142 115 -132 2 3 -4 12 -16 20 -11
8 -26 28 -33 45 -7 16 -16 30 -20 30 -4 0 -18 21 -31 47 -30 60 -188 233 -213
233 -5 0 -33 16 -63 37 -40 27 -55 45 -63 72 -14 52 -12 71 8 78 9 4 37 19 62
33 25 14 74 36 110 49 36 13 80 32 99 42 18 11 36 17 39 14 10 -9 -39 -38
-128 -76 -115 -48 -170 -77 -170 -89 0 -17 16 -12 109 35 49 25 93 45 98 45
10 0 86 40 93 49 3 3 30 23 61 43 82 53 256 217 283 266 5 10 22 32 38 50 15
18 39 54 52 80 13 26 33 56 45 66 12 11 21 24 21 30 0 17 137 128 197 161 62
33 82 53 85 86 3 22 0 24 -44 23 -38 0 -58 -8 -115 -47 -37 -27 -88 -64 -113
-83 -44 -36 -149 -162 -199 -239 -63 -97 -236 -281 -291 -310 -19 -10 -46 -26
-60 -36 -14 -11 -72 -37 -130 -60 -58 -22 -113 -48 -124 -57 -32 -29 -14 6 32
62 119 143 259 332 279 376 87 186 141 338 134 378 -1 8 5 24 14 38 8 13 14
24 11 24 -2 0 4 28 15 63 10 34 19 71 19 82 0 22 69 101 255 291 66 68 128
139 139 158 29 54 195 207 257 237 93 45 169 79 178 79 5 0 -18 -53 -50 -117
-32 -65 -66 -145 -76 -178 -9 -33 -21 -65 -26 -72 -16 -22 -26 -73 -16 -79 15
-9 19 -2 35 67 16 68 47 143 64 154 5 3 10 14 10 23 0 9 7 31 16 47 9 17 29
62 44 100 l28 70 86 45 c46 24 87 42 90 39 4 -3 1 -19 -4 -36 -9 -25 -15 -29
-39 -25 -35 5 -37 2 -45 -78 -4 -35 -11 -67 -15 -70 -5 -3 -11 -44 -15 -92
-11 -139 -15 -168 -39 -268 -21 -89 -22 -92 -25 -50 -6 108 24 340 49 365 14
14 11 28 -5 22 -9 -4 -13 0 -10 11 10 52 12 92 4 92 -4 0 -10 -17 -13 -37 -2
-21 -12 -78 -20 -128 -21 -119 -40 -389 -28 -393 5 -2 6 -15 1 -32 -4 -16 -6
-31 -3 -34 3 -2 6 -76 7 -163 1 -87 6 -174 10 -193 8 -33 8 -34 -8 -15 -8 11
-20 37 -26 58 -6 20 -16 37 -22 37 -12 0 -11 -3 31 -118 17 -46 31 -92 31
-102 0 -10 6 -20 14 -23 10 -4 21 19 41 93 15 54 25 105 22 112 -3 7 -8 -2
-12 -19 -13 -58 -27 -37 -22 33 3 50 1 67 -9 71 -18 7 -18 41 -1 73 8 15 17
42 20 60 3 19 9 46 13 60 6 24 6 24 -9 5 -15 -19 -16 -17 -11 30 9 94 25 200
36 235 6 19 10 51 10 70 -3 66 36 224 82 334 25 59 46 116 46 126 0 10 14 25
35 34 19 9 37 21 40 26 3 6 13 10 22 10 16 0 -9 -22 -52 -46 -21 -12 -19 -30
3 -28 6 1 12 -4 12 -12 0 -8 -9 -14 -20 -14 -12 0 -20 -7 -20 -16 0 -9 5 -14
12 -12 17 6 58 -37 58 -59 0 -14 -2 -15 -9 -4 -11 18 -31 5 -31 -20 0 -10 -5
-28 -12 -39 -10 -15 -10 -27 1 -55 7 -19 12 -63 11 -98 -2 -88 -1 -97 10 -97
6 0 10 20 10 45 0 76 20 50 22 -27 2 -95 3 -82 -16 -171 -29 -140 -22 -653 9
-627 10 8 14 -8 18 -67 6 -105 62 -262 84 -239 1 1 -2 81 -8 176 -8 132 -14
179 -26 192 -9 10 -15 36 -15 65 0 26 -9 109 -19 183 -21 152 -23 223 -8 325
6 39 10 78 10 88 0 9 6 29 14 43 15 29 18 23 30 -51 10 -60 15 -75 27 -75 6 0
8 11 4 28 -4 15 -13 63 -20 107 -7 44 -16 73 -19 65 -3 -8 -8 -22 -11 -30 -9
-28 5 105 20 180 34 167 35 183 17 202 -9 10 -13 21 -9 25 4 4 11 1 16 -7 10
-17 12 -16 36 30 34 63 108 180 115 180 4 0 12 -6 18 -14z m247 -219 c3 -8 0
-27 -7 -43 l-12 -29 -7 25 c-13 41 -11 60 5 60 9 0 18 -6 21 -13z m-32 -191
c-3 -21 -9 -35 -11 -32 -3 3 -2 21 1 42 4 20 10 34 12 31 3 -3 2 -21 -2 -41z
m-439 -61 c-13 -69 -19 -72 -15 -6 2 35 18 87 24 80 2 -2 -2 -35 -9 -74z
m-1075 -418 c0 -2 -19 -21 -42 -42 -40 -38 -37 -26 6 23 17 19 36 29 36 19z
m734 -73 c3 -9 2 -23 -4 -32 -9 -16 -9 -16 -10 0 0 9 -3 23 -6 32 -3 9 -2 16
4 16 5 0 13 -7 16 -16z m-1711 -114 c23 -46 50 -99 60 -118 10 -19 23 -71 28
-115 18 -144 30 -200 61 -275 29 -71 44 -157 28 -167 -5 -3 -16 19 -25 47 -10
29 -21 58 -25 63 -4 6 -13 26 -18 45 -6 19 -18 55 -27 80 -10 25 -21 88 -25
140 -7 93 -43 240 -59 240 -12 0 -40 67 -47 113 -9 54 -2 47 49 -53z m-405
-100 c57 -92 100 -199 126 -312 4 -16 11 -28 17 -28 6 0 8 -4 4 -9 -3 -5 -1
-12 5 -16 5 -3 10 -13 10 -21 0 -16 13 -34 48 -67 12 -11 20 -27 18 -34 -6
-15 8 -34 74 -99 53 -53 37 -58 -30 -9 -45 33 -130 143 -130 168 0 7 8 0 18
-15 19 -31 35 -38 25 -10 -11 29 -46 72 -59 72 -15 0 -29 36 -48 122 -18 80
-75 207 -116 258 -17 21 -30 45 -30 54 0 27 37 -2 68 -54z m2429 -2 c-2 -13
-4 -5 -4 17 -1 22 1 32 4 23 2 -10 2 -28 0 -40z m10 -90 c-3 -7 -5 -2 -5 12 0
14 2 19 5 13 2 -7 2 -19 0 -25z m-663 -53 c-10 -8 -39 -25 -64 -37 -91 -45
-136 -86 -231 -215 -22 -29 -39 -57 -39 -63 0 -5 -5 -10 -12 -10 -6 0 -26 -11
-44 -25 -18 -14 -35 -25 -38 -25 -8 0 84 131 133 189 70 83 221 200 271 212
34 8 49 -7 24 -26z m364 -78 c-6 -20 -15 -37 -18 -37 -14 0 -20 61 -9 82 9 17
13 18 25 7 11 -12 11 -22 2 -52z m326 -53 c3 -26 6 -61 5 -78 -1 -26 -3 -24
-10 14 -18 99 -20 110 -11 110 5 0 12 -21 16 -46z m-1086 -270 c-35 -48 -171
-194 -181 -194 -4 0 -4 8 -1 18 3 9 -9 0 -28 -21 -18 -20 -37 -37 -42 -37 -15
0 -56 -42 -56 -57 0 -7 -4 -13 -10 -13 -5 0 -10 5 -10 11 0 6 -17 1 -37 -10
-21 -11 -67 -31 -103 -45 -36 -13 -79 -32 -95 -40 -17 -9 -37 -16 -45 -16 -29
0 13 27 85 54 161 61 243 110 310 185 36 39 63 55 50 29 -3 -7 7 3 22 22 49
61 149 160 162 160 6 0 -3 -21 -21 -46z m-732 -163 c15 -115 16 -134 3 -142
-27 -17 -26 -19 -44 121 -7 58 0 42 15 -34 7 -34 16 -54 21 -49 5 5 1 51 -11
110 -11 56 -20 106 -21 110 -1 4 -1 17 0 28 4 48 21 -18 37 -144z m-249 94
c23 -14 43 -28 43 -30 0 -6 -80 31 -93 44 -19 19 4 12 50 -14z m12 -46 c24
-11 41 -23 38 -25 -3 -3 -27 6 -53 20 -58 31 -46 35 15 5z m329 -296 c-2 -9
-8 -18 -15 -20 -7 -3 -9 3 -6 16 6 25 26 28 21 4z m-28 -183 c0 -5 -2 -10 -4
-10 -3 0 -8 5 -11 10 -3 6 -1 10 4 10 6 0 11 -4 11 -10z m-489 -47 c-12 -20
-14 -14 -5 12 4 9 9 14 11 11 3 -2 0 -13 -6 -23z m450 -66 c-13 -13 -14 5 -3
43 l7 25 3 -29 c2 -16 -1 -33 -7 -39z m-450 10 c-8 -8 -11 -7 -11 4 0 20 13
34 18 19 3 -7 -1 -17 -7 -23z m95 -32 c-4 -14 -11 -25 -16 -25 -13 0 -13 16 1
42 14 26 23 16 15 -17z m-85 -22 c-8 -15 -10 -15 -11 -2 0 17 10 32 18 25 2
-3 -1 -13 -7 -23z m425 -9 c-4 -9 -9 -15 -11 -12 -3 3 -3 13 1 22 4 9 9 15 11
12 3 -3 3 -13 -1 -22z m-346 -53 c0 -5 -7 -11 -15 -15 -15 -5 -20 5 -8 17 9
10 23 9 23 -2z m23 -51 c10 0 15 -4 12 -10 -9 -14 -41 -12 -54 3 -13 17 -2 32
13 17 5 -5 18 -10 29 -10z m277 6 c0 -2 -7 -7 -16 -10 -8 -3 -12 -2 -9 4 6 10
25 14 25 6z m-214 -25 c-8 -12 -46 -21 -46 -11 0 9 18 18 38 19 7 1 11 -3 8
-8z m2559 -501 c11 -4 -21 -10 -81 -14 -55 -4 -111 -9 -125 -11 -28 -5 -54 8
-45 23 7 11 220 13 251 2z m-995 -940 c0 -5 -2 -10 -4 -10 -3 0 -8 5 -11 10
-3 6 -1 10 4 10 6 0 11 -4 11 -10z m120 -61 c0 -6 -7 -17 -15 -25 -8 -8 -12
-21 -9 -29 4 -8 2 -15 -3 -15 -19 0 -22 13 -6 36 10 16 11 24 4 24 -7 0 -9 5
-6 10 8 13 35 13 35 -1z m20 -60 c0 -5 -4 -9 -8 -9 -5 0 -9 7 -9 15 0 8 4 12
9 9 4 -3 8 -9 8 -15z m-95 1 c3 -5 2 -10 -4 -10 -5 0 -13 5 -16 10 -3 6 -2 10
4 10 5 0 13 -4 16 -10z m-175 -270 c0 -5 -4 -10 -10 -10 -5 0 -10 5 -10 10 0
6 5 10 10 10 6 0 10 -4 10 -10z m-30 -27 c0 -3 -7 -15 -17 -25 -19 -21 -41
-25 -24 -5 6 8 7 18 3 22 -4 5 -1 5 6 1 6 -4 12 -2 12 3 0 6 5 11 10 11 6 0
10 -3 10 -7z"/>
<path d="M8155 5310 c-3 -5 -2 -10 4 -10 5 0 13 5 16 10 3 6 2 10 -4 10 -5 0
-13 -4 -16 -10z"/>
<path d="M8125 5280 c3 -5 8 -10 11 -10 2 0 4 5 4 10 0 6 -5 10 -11 10 -5 0
-7 -4 -4 -10z"/>
<path d="M8422 5240 c0 -19 2 -27 5 -17 2 9 2 25 0 35 -3 9 -5 1 -5 -18z"/>
<path d="M8136 5244 c-9 -23 -7 -44 3 -44 5 0 11 14 13 30 5 32 -6 41 -16 14z"/>
<path d="M8405 5112 c-9 -120 -20 -131 -36 -41 -10 55 -14 66 -17 44 -5 -35
17 -165 30 -179 4 -6 8 -65 8 -131 0 -165 11 -335 21 -329 5 3 9 29 9 59 0 29
4 55 8 57 7 2 62 113 62 124 0 2 -4 4 -9 4 -5 0 -19 -25 -32 -55 -13 -30 -27
-55 -31 -55 -5 0 -8 60 -9 133 0 72 -1 157 -1 187 -1 30 2 103 6 163 5 59 6
107 3 107 -3 0 -8 -40 -12 -88z"/>
<path d="M8097 5113 c-6 -11 -16 -83 -22 -163 -3 -39 -1 -59 4 -50 5 8 12 58
16 110 4 53 12 98 18 102 9 6 9 8 0 8 -6 0 -14 -3 -16 -7z"/>
<path d="M8478 4997 c-9 -23 -20 -55 -23 -72 -6 -29 -6 -29 9 -11 9 11 16 27
16 36 0 9 7 25 15 36 15 20 20 54 8 54 -5 0 -16 -19 -25 -43z"/>
<path d="M8738 5014 c-5 -4 -8 -16 -8 -26 0 -27 40 -147 51 -154 13 -8 11 10
-7 55 -8 21 -18 60 -22 86 -4 26 -10 43 -14 39z"/>
<path d="M8119 4968 c-7 -26 -7 -53 1 -66 8 -15 9 -15 10 3 0 11 3 30 6 43 4
13 2 22 -5 22 -6 0 -11 -1 -12 -2z"/>
<path d="M7800 4852 c0 -5 9 -17 20 -27 11 -10 20 -31 20 -47 0 -19 4 -27 11
-22 13 8 5 69 -12 90 -13 15 -39 19 -39 6z"/>
<path d="M8127 4784 c-25 -107 -31 -168 -19 -190 9 -15 11 -7 12 43 0 41 5 65
14 70 14 9 32 153 18 153 -4 0 -16 -34 -25 -76z"/>
<path d="M8063 4755 c0 -44 2 -61 4 -37 2 23 2 59 0 80 -2 20 -4 1 -4 -43z"/>
<path d="M8926 4812 c-3 -6 -15 -56 -26 -111 -11 -56 -25 -113 -31 -127 -5
-15 -7 -29 -4 -32 8 -8 34 61 41 110 3 23 13 69 21 102 13 54 13 80 -1 58z"/>
<path d="M7694 4758 c-8 -25 -7 -379 1 -443 13 -95 28 -165 36 -165 17 0 18
20 5 121 -13 97 -18 209 -20 421 -1 88 -8 108 -22 66z"/>
<path d="M7828 4683 c-6 -22 0 -43 13 -43 11 0 12 31 0 48 -6 11 -9 10 -13 -5z"/>
<path d="M7823 4591 c9 -42 37 -101 48 -101 13 0 11 6 -11 50 -11 22 -20 46
-20 54 0 8 -5 18 -12 22 -8 5 -9 -2 -5 -25z"/>
<path d="M8059 4413 c-1 -93 -2 -213 -3 -268 0 -57 3 -102 9 -105 6 -3 11 92
13 268 2 188 0 272 -7 272 -7 0 -11 -56 -12 -167z"/>
<path d="M8714 4498 c7 -45 12 -55 22 -45 10 9 -7 87 -18 87 -7 0 -8 -15 -4
-42z"/>
<path d="M8336 4472 c-7 -21 2 -52 14 -52 4 0 11 -10 15 -22 11 -36 17 0 8 47
-9 43 -28 57 -37 27z"/>
<path d="M8520 4411 c0 -33 -3 -68 -6 -78 -5 -12 -4 -15 3 -8 15 14 26 145 13
145 -6 0 -10 -25 -10 -59z"/>
<path d="M8741 4420 c-1 -8 8 -26 19 -40 15 -19 20 -21 20 -9 0 9 -9 27 -20
40 -13 17 -19 19 -19 9z"/>
<path d="M8447 4381 c-19 -32 -21 -41 -9 -41 5 0 16 16 25 35 20 42 8 47 -16
6z"/>
<path d="M8900 4353 c-7 -21 -30 -73 -51 -115 -22 -43 -36 -78 -32 -78 15 0
92 147 103 197 11 45 -6 42 -20 -4z"/>
<path d="M8396 4362 c-4 -7 -5 -34 -1 -60 7 -44 8 -292 1 -357 -7 -68 -17
-152 -22 -175 -4 -20 -3 -23 7 -12 19 17 28 109 35 317 5 181 -4 312 -20 287z"/>
<path d="M8466 4261 c-4 -7 -5 -15 -2 -18 9 -9 19 4 14 18 -4 11 -6 11 -12 0z"/>
<path d="M8472 4182 c-7 -24 -11 -46 -9 -49 10 -9 28 38 25 65 -3 24 -4 22
-16 -16z"/>
<path d="M7920 4078 c0 -40 22 -177 36 -220 8 -25 22 -52 31 -60 14 -11 16
-11 11 3 -4 10 -12 45 -19 80 -7 35 -18 75 -26 89 -7 14 -13 41 -13 60 0 19
-5 42 -10 50 -8 13 -10 13 -10 -2z"/>
<path d="M8840 4078 c0 -2 -9 -28 -21 -58 -24 -65 -9 -56 20 13 11 26 16 47
11 47 -6 0 -10 -1 -10 -2z"/>
<path d="M8076 3853 c2 -87 5 -170 8 -185 2 -16 4 -33 5 -40 1 -9 5 -8 16 2
11 12 12 24 4 58 -5 24 -9 67 -8 95 1 67 -1 157 -5 182 -2 11 -4 26 -5 33 0 6
-5 12 -10 12 -6 0 -8 -65 -5 -157z"/>
<path d="M8853 3908 c-38 -77 -96 -228 -87 -228 2 0 16 26 30 57 13 32 31 64
38 73 16 19 40 94 34 110 -2 7 -9 2 -15 -12z"/>
<path d="M8747 3850 c-6 -14 -12 -83 -23 -237 -3 -40 -9 -73 -13 -73 -4 0 -13
28 -20 63 -15 73 -29 118 -30 97 -1 -8 8 -62 19 -120 22 -116 23 -165 3 -195
-7 -11 -13 -31 -13 -45 0 -14 -6 -32 -12 -38 -10 -10 -10 -15 1 -21 9 -6 12
-18 7 -37 -3 -16 -9 -40 -11 -54 -3 -14 -10 -38 -15 -55 -13 -44 -33 -145 -36
-180 -2 -29 -13 -65 -40 -130 -6 -16 -15 -41 -19 -55 -4 -14 -18 -46 -31 -71
-13 -26 -25 -62 -28 -80 -2 -19 -18 -61 -35 -93 -17 -33 -29 -62 -26 -64 12
-12 54 74 97 198 9 25 26 70 38 100 43 107 52 136 66 216 22 124 51 227 68
240 9 6 16 20 16 30 0 16 -2 17 -11 4 -8 -11 -9 1 -5 45 3 33 7 67 9 75 12 49
16 80 42 318 15 141 16 200 2 162z"/>
<path d="M8446 3839 c-10 -32 -15 -109 -7 -113 9 -6 26 113 17 121 -3 3 -8 0
-10 -8z"/>
<path d="M8325 3745 c4 -38 9 -86 12 -105 2 -19 5 -59 6 -88 1 -28 5 -52 9
-52 12 0 21 68 13 98 -3 15 -10 61 -15 103 -4 43 -13 85 -20 95 -9 15 -10 4
-5 -51z"/>
<path d="M8388 3570 c2 -47 6 -86 7 -88 9 -11 8 94 -1 130 -10 39 -11 34 -6
-42z"/>
<path d="M8150 3593 c0 -4 9 -54 20 -112 10 -58 25 -164 31 -236 14 -145 27
-210 28 -137 2 109 -53 492 -71 492 -4 0 -8 -3 -8 -7z"/>
<path d="M8794 3528 c-20 -30 -34 -61 -30 -65 2 -2 13 13 25 33 12 20 20 39
17 41 -2 2 -8 -2 -12 -9z"/>
<path d="M8070 3473 c0 -17 41 -193 61 -263 12 -41 31 -133 44 -205 14 -82 26
-129 34 -127 9 2 16 -25 12 -50 0 -5 3 -8 9 -8 11 0 14 79 3 107 -6 16 -8 15
-14 -7 -4 -19 -8 -10 -13 35 -4 33 -11 76 -16 95 -17 63 -59 233 -82 332 -13
54 -26 98 -30 98 -5 0 -8 -3 -8 -7z"/>
<path d="M8338 3439 c-2 -24 0 -76 4 -116 3 -39 3 -88 -2 -107 -4 -20 -4 -39
1 -41 15 -10 19 36 16 167 -3 127 -13 178 -19 97z"/>
<path d="M6600 3362 c0 -4 12 -15 28 -24 44 -27 114 -99 157 -163 37 -56 104
-139 213 -263 26 -30 52 -60 58 -68 12 -16 228 -109 277 -120 18 -3 64 -19
102 -35 39 -15 102 -33 140 -39 67 -11 147 -34 169 -47 5 -4 1 -10 -10 -13
-15 -6 -9 -10 26 -19 25 -7 59 -18 75 -26 17 -7 50 -19 75 -26 25 -7 51 -17
58 -22 8 -6 12 -6 12 2 0 6 -4 11 -10 11 -5 0 -10 5 -10 11 0 11 62 9 158 -4
23 -4 42 -2 42 3 0 16 -69 31 -132 29 -76 -2 -157 14 -207 40 -94 51 -159 72
-266 85 -16 2 -57 14 -90 26 -33 12 -91 32 -130 45 -63 20 -171 69 -248 111
-15 9 -39 33 -54 55 -14 21 -29 39 -33 39 -4 0 -33 30 -64 68 -31 37 -64 76
-75 87 -10 11 -34 48 -55 81 -45 77 -152 184 -183 184 -13 0 -23 -4 -23 -8z"/>
<path d="M8376 3158 c-12 -95 -12 -108 -4 -108 4 0 8 10 9 23 0 12 2 46 5 75
5 62 -3 70 -10 10z"/>
<path d="M8360 2962 c0 -38 -5 -94 -11 -125 -6 -37 -7 -63 0 -74 8 -14 10 -12
15 17 10 52 12 250 4 250 -5 0 -8 -31 -8 -68z"/>
<path d="M8468 2993 c0 -5 -2 -19 -3 -33 -2 -14 -6 -56 -9 -94 -4 -39 -4 -67
0 -64 10 10 31 198 22 198 -4 0 -9 -3 -10 -7z"/>
<path d="M7094 2771 c9 -14 153 -81 173 -80 14 0 12 3 -7 12 -14 6 -56 26 -94
44 -75 36 -80 37 -72 24z"/>
<path d="M8238 2698 c-2 -35 2 -88 9 -118 7 -30 12 -85 13 -122 0 -38 4 -68
10 -68 16 0 16 112 0 150 -9 22 -14 69 -14 128 0 104 -12 124 -18 30z"/>
<path d="M8351 2675 c-10 -74 -11 -139 -1 -129 7 7 10 39 7 80 -1 38 -4 60 -6
49z"/>
<path d="M7382 2664 c6 -5 167 -56 238 -74 22 -6 39 -5 44 0 7 7 -1 10 -20 10
-17 0 -77 16 -134 35 -97 33 -141 43 -128 29z"/>
<path d="M2780 6420 c-147 -40 -272 -121 -430 -280 -116 -115 -194 -284 -246
-530 -6 -27 -82 -192 -93 -200 -3 -3 -29 -39 -56 -80 -28 -41 -86 -113 -131
-160 -94 -99 -174 -205 -174 -230 0 -10 -7 -23 -15 -30 -12 -10 -15 -9 -15 8
0 31 -11 52 -26 52 -18 0 -64 -69 -64 -96 0 -29 28 -94 40 -94 6 0 4 -15 -5
-36 -19 -46 -19 -103 0 -128 43 -56 -20 -314 -122 -507 -26 -48 -58 -100 -72
-116 -14 -15 -39 -47 -55 -71 -30 -43 -64 -76 -126 -122 -19 -14 -53 -42 -76
-63 -29 -26 -45 -34 -49 -26 -4 6 -20 53 -36 104 -15 51 -39 117 -53 147 -14
30 -26 62 -26 72 0 18 -69 229 -94 289 -16 37 -47 50 -61 26 -7 -10 17 -98 57
-209 11 -30 23 -68 28 -85 17 -64 53 -181 60 -200 31 -82 70 -194 70 -203 0
-6 -3 -12 -7 -14 -5 -1 -21 -22 -37 -45 -22 -33 -35 -43 -56 -43 -15 0 -33 -7
-40 -15 -7 -8 -20 -15 -29 -15 -20 0 -79 -60 -109 -111 -43 -72 -20 -154 63
-227 61 -54 132 -71 191 -46 87 36 133 92 158 192 l11 42 43 -98 c23 -54 63
-129 88 -168 25 -38 73 -122 106 -187 56 -110 114 -205 145 -235 7 -7 13 -18
13 -23 0 -5 15 -15 33 -24 17 -8 39 -19 47 -24 33 -20 138 -59 180 -66 25 -4
54 -9 65 -12 27 -6 114 -12 275 -18 146 -6 271 3 277 21 4 11 -19 11 -172 0
-56 -4 -247 9 -372 24 -78 10 -171 39 -237 73 -75 40 -158 150 -246 327 -29
58 -68 125 -86 150 -17 25 -44 70 -58 100 -15 30 -31 62 -36 70 -5 8 -28 54
-50 102 -33 70 -50 95 -87 123 -25 19 -50 35 -54 35 -37 0 30 80 126 150 80
58 265 239 265 258 0 6 16 32 36 57 54 71 102 163 141 272 48 134 52 155 56
279 l3 109 58 28 c31 15 59 34 62 42 4 8 10 15 16 15 9 0 197 152 256 208 19
18 51 45 71 60 20 15 38 29 41 32 5 5 34 30 137 119 24 20 67 60 97 89 59 57
105 75 131 49 20 -21 19 -30 -6 -53 -12 -10 -36 -41 -55 -69 -18 -27 -55 -82
-82 -121 -60 -88 -113 -245 -118 -349 -6 -115 -6 -388 0 -415 20 -93 23 -111
14 -116 -5 -3 -5 -11 1 -18 6 -7 13 -32 17 -56 8 -54 28 -134 43 -172 6 -15 8
-34 5 -41 -3 -8 2 -20 11 -27 19 -16 19 -27 1 -46 -8 -8 -13 -24 -10 -37 3
-12 7 -35 10 -51 2 -16 8 -34 13 -40 4 -6 11 -40 14 -76 4 -46 15 -84 36 -124
17 -32 31 -65 31 -74 0 -14 11 -48 51 -147 39 -100 68 -190 79 -240 6 -33 16
-67 20 -76 8 -16 29 -148 34 -212 3 -35 -27 -59 -61 -51 -16 4 -37 -2 -66 -22
-52 -35 -109 -44 -302 -49 -254 -5 -383 18 -493 89 -58 36 -149 117 -177 157
-5 8 -23 32 -40 54 -51 67 -70 99 -85 135 -7 19 -22 45 -31 58 -10 13 -21 37
-24 54 -4 17 -22 52 -39 77 -41 59 -131 211 -139 233 -5 13 5 19 46 29 29 8
57 14 62 14 18 1 145 67 173 89 15 13 47 36 72 53 85 58 260 255 260 292 0 14
115 126 165 161 51 36 75 65 75 90 0 19 -2 20 -35 6 -92 -39 -261 -198 -302
-285 -21 -44 -160 -181 -232 -230 -61 -41 -109 -60 -244 -96 l-87 -23 -19 24
c-25 31 -33 31 -21 -2 6 -14 7 -36 4 -50 -7 -28 -2 -30 29 -10 12 8 63 24 112
36 50 11 110 30 135 42 45 21 120 67 130 79 3 3 25 20 50 38 24 18 63 53 86
79 76 86 96 107 88 92 -13 -25 -113 -147 -133 -161 -10 -8 -61 -47 -114 -86
-100 -76 -184 -115 -275 -128 -51 -7 -74 -21 -55 -34 5 -3 17 -28 27 -54 10
-27 36 -79 59 -115 43 -71 127 -234 127 -247 0 -4 35 -59 77 -122 82 -124 168
-223 211 -246 15 -8 52 -28 82 -45 77 -43 150 -58 340 -72 124 -9 186 -9 250
0 150 19 135 24 132 -48 -1 -34 2 -71 8 -82 13 -25 47 -35 66 -19 11 9 18 9
26 1 15 -15 65 -16 73 -2 3 5 20 10 36 10 33 0 45 19 53 91 3 22 13 47 22 54
17 12 11 40 -7 30 -18 -12 -9 7 13 25 21 16 21 18 5 34 -21 21 -21 24 -2 42
22 22 18 36 -5 22 -26 -16 -34 -39 -18 -51 8 -5 1 -7 -21 -3 -19 4 -36 8 -38
9 -4 5 27 68 42 87 7 8 19 38 27 65 12 42 12 57 2 85 -15 41 -15 41 -18 -31
-4 -93 -65 -156 -66 -67 0 63 -54 283 -86 348 -13 28 -24 57 -24 65 0 8 -4 15
-8 15 -5 0 -9 6 -10 13 -2 38 -60 316 -69 330 -3 5 -7 38 -9 74 -2 35 -10 78
-19 95 -8 17 -14 47 -14 67 l2 36 6 -35 c7 -39 27 -39 25 0 -2 27 -4 206 -5
330 0 41 -4 93 -8 115 -4 22 -7 128 -5 235 3 212 31 441 61 486 17 26 27 80
18 103 -4 11 -8 11 -20 1 -26 -22 -16 2 23 54 21 28 41 59 45 69 3 9 11 17 17
17 17 0 11 29 -11 51 -11 11 -36 23 -55 26 -29 5 -43 0 -81 -27 -25 -18 -63
-52 -84 -75 -48 -52 -204 -181 -169 -139 14 16 59 63 100 105 41 42 102 105
135 140 36 39 80 74 110 88 156 75 204 102 225 128 25 33 26 32 -9 73 l-29 35
-43 -22 c-44 -23 -61 -33 -111 -65 -14 -10 -32 -18 -39 -18 -29 0 -158 -102
-233 -185 -45 -49 -200 -210 -345 -356 -179 -181 -275 -285 -301 -327 -20 -34
-39 -59 -43 -56 -18 19 25 157 85 271 52 99 77 131 189 248 48 50 92 101 99
115 7 14 26 41 41 60 66 85 165 314 185 433 3 20 10 37 15 37 5 0 9 6 9 14 0
8 9 36 21 63 11 26 22 55 24 64 5 26 52 98 104 159 55 66 64 74 164 147 42 31
77 60 77 64 0 4 14 11 32 14 18 4 49 16 70 27 41 21 92 36 146 42 28 4 32 2
27 -15 -5 -14 0 -20 19 -25 26 -6 46 1 46 17 0 5 -6 8 -12 7 -8 -2 -12 6 -11
17 3 39 -34 44 -137 15z m-199 -860 c-13 -11 -31 -20 -40 -20 -10 0 -6 7 14
20 39 26 57 25 26 0z m-141 -87 c-23 -21 -46 -39 -51 -41 -5 -2 -9 -10 -9 -17
0 -8 -9 -17 -20 -20 -11 -4 -28 -19 -37 -33 -9 -15 -24 -34 -32 -43 -9 -9 -38
-42 -66 -73 -73 -83 -359 -364 -442 -435 -40 -34 -73 -68 -73 -75 0 -7 -11
-18 -25 -24 -18 -8 -25 -8 -25 -1 0 12 305 316 469 468 50 47 108 110 130 141
22 31 71 83 110 115 39 33 71 62 71 66 0 7 32 18 38 13 2 -1 -15 -20 -38 -41z
m1 -490 c-6 -43 -19 -140 -31 -215 -17 -117 -20 -170 -16 -360 3 -139 1 -217
-4 -208 -5 8 -10 24 -10 35 -1 17 -2 17 -10 4 -11 -19 -1 -171 11 -163 5 3 9
15 9 27 0 12 4 28 9 36 14 22 11 -171 -3 -197 l-13 -24 -11 29 c-13 34 -19 62
-42 208 -7 39 -14 81 -17 95 -8 39 -14 128 -13 205 2 105 3 119 15 127 6 5 6
8 -2 8 -7 0 -13 6 -13 14 0 9 7 12 20 9 17 -5 20 0 20 31 0 25 5 36 14 36 22
0 29 17 33 89 3 36 5 75 6 86 1 11 -2 22 -8 25 -5 2 -15 -23 -21 -55 -13 -66
-38 -130 -54 -140 -8 -5 -10 4 -6 27 3 18 8 51 11 73 17 112 109 322 127 290
5 -8 4 -49 -1 -92z m-851 -75 c0 -17 -18 -44 -24 -37 -8 7 5 49 15 49 5 0 9
-6 9 -12z m1 -91 c-8 -8 -11 -5 -11 9 0 27 14 41 18 19 2 -9 -1 -22 -7 -28z
m29 -247 l-8 -45 1 52 c1 29 5 49 8 45 4 -4 3 -27 -1 -52z m-4 -102 c-4 -29
-12 -69 -18 -88 -12 -42 -34 -68 -24 -30 3 14 12 58 18 98 14 82 34 99 24 20z
m-42 -175 c-11 -44 -85 -194 -117 -238 -36 -49 -35 -45 29 80 27 55 56 119 64
143 15 46 35 59 24 15z m-714 -44 c0 -8 16 -65 35 -125 19 -60 35 -113 35
-119 0 -5 6 -22 14 -36 7 -15 30 -76 51 -135 20 -60 41 -115 47 -121 12 -14 3
-47 -11 -39 -4 3 -25 58 -46 123 -21 65 -66 204 -101 309 -35 106 -64 196 -64
200 1 16 40 -41 40 -57z m1085 -102 c-16 -12 -49 -39 -73 -61 -23 -21 -45 -36
-48 -33 -3 3 5 14 18 25 78 67 111 92 121 92 7 0 -1 -11 -18 -23z m-145 -126
c-11 -21 -30 -37 -30 -25 0 8 30 44 37 44 2 0 -1 -9 -7 -19z m-396 -46 c-4 -8
-11 -15 -16 -15 -6 0 -5 6 2 15 7 8 14 15 16 15 2 0 1 -7 -2 -15z m346 -25
c-6 -11 -13 -20 -16 -20 -2 0 0 9 6 20 6 11 13 20 16 20 2 0 0 -9 -6 -20z
m-390 -33 c0 -2 -19 -21 -42 -42 -40 -38 -36 -26 7 22 17 19 35 29 35 20z
m1020 -125 c0 -15 -2 -15 -10 -2 -13 20 -13 33 0 25 6 -3 10 -14 10 -23z
m-1200 -52 c-19 -17 -39 -30 -45 -30 -5 0 6 14 25 30 19 16 40 29 45 29 6 0
-6 -13 -25 -29z m1227 -107 c-3 -10 -5 -4 -5 12 0 17 2 24 5 18 2 -7 2 -21 0
-30z m-1363 5 c-4 -7 -18 -26 -30 -43 -12 -16 -30 -50 -40 -75 -20 -54 -34
-72 -34 -45 0 26 36 99 60 120 11 10 20 24 20 31 0 10 10 19 28 23 2 1 0 -5
-4 -11z m1386 -56 c0 -15 -2 -15 -10 -2 -13 20 -13 33 0 25 6 -3 10 -14 10
-23z m-1351 -161 c16 -56 15 -115 -3 -108 -10 4 -16 -2 -18 -16 -2 -12 -14
-27 -28 -34 -21 -11 -26 -10 -31 5 -6 15 -8 15 -13 1 -4 -9 -6 -20 -4 -25 2
-5 -5 -20 -16 -34 -14 -20 -17 -21 -12 -5 3 11 2 26 -3 34 -12 19 -34 3 -28
-20 3 -11 1 -19 -4 -19 -5 0 -9 14 -9 31 0 17 -6 37 -14 45 -19 18 -26 18 -26
-1 0 -8 -5 -15 -11 -15 -7 0 -9 10 -5 25 5 19 2 25 -10 25 -13 0 -15 6 -10 33
4 17 8 45 9 61 1 16 8 31 16 34 9 3 11 -1 7 -15 -4 -12 -2 -20 6 -20 35 -2 75
-10 86 -17 7 -4 12 -2 12 3 0 6 9 11 20 11 11 0 20 7 20 15 0 8 7 15 16 15 14
0 14 -3 4 -15 -15 -18 -7 -30 14 -22 11 4 12 14 6 41 -11 48 13 38 29 -13z
m-259 -50 c0 -6 -4 -13 -10 -16 -5 -3 -10 1 -10 9 0 9 5 16 10 16 6 0 10 -4
10 -9z m1780 -707 c0 -10 -27 -33 -33 -28 -3 3 -15 -9 -27 -25 -16 -23 -21
-46 -21 -86 0 -30 -4 -55 -9 -55 -19 0 -30 42 -26 96 6 70 33 104 83 104 18 0
33 -3 33 -6z m91 -95 c-4 -81 -12 -97 -35 -73 -13 13 -16 26 -11 53 18 106 52
120 46 20z m-77 55 c11 -4 13 -11 5 -31 -5 -13 -10 -49 -10 -79 -1 -30 -4 -54
-8 -54 -24 1 -51 50 -51 96 0 13 -6 24 -12 24 -7 0 -4 6 7 12 11 7 26 18 33
25 15 15 15 15 36 7z"/>
<path d="M2358 4425 c-6 -10 -11 -90 -9 -142 2 -47 19 -21 23 35 4 62 -4 123
-14 107z"/>
<path d="M1017 3358 c-4 -12 -4 -24 -1 -27 6 -7 24 20 24 37 0 21 -17 13 -23
-10z"/>
<path d="M980 3320 c0 -5 5 -10 10 -10 6 0 10 5 10 10 0 6 -4 10 -10 10 -5 0
-10 -4 -10 -10z"/>
<path d="M2973 6380 c-14 -21 -3 -33 21 -24 19 7 22 44 3 44 -7 0 -18 -9 -24
-20z"/>
<path d="M8401 6334 c-6 -32 -11 -75 -11 -96 0 -24 -5 -38 -13 -38 -7 0 -18
-9 -25 -20 -7 -12 -42 -35 -78 -52 -35 -17 -67 -35 -71 -40 -7 -13 35 0 62 18
34 24 44 18 38 -23 -5 -35 -12 -50 -51 -110 -14 -22 -13 -23 14 -23 21 0 32 7
40 25 7 13 8 25 3 27 -12 4 25 81 66 138 31 43 37 64 51 175 3 28 7 54 8 59 0
5 -4 10 -10 13 -7 2 -16 -20 -23 -53z"/>
<path d="M8465 6380 c-9 -15 23 -43 41 -36 9 3 14 14 12 23 -4 20 -43 30 -53
13z"/>
<path d="M3043 6344 c-26 -19 -5 -35 32 -26 16 5 30 13 32 19 6 16 -45 22 -64
7z"/>
<path d="M2916 6320 c-16 -17 -27 -32 -25 -35 8 -7 79 47 73 56 -8 14 -17 10
-48 -21z"/>
<path d="M3124 6314 c-8 -31 12 -57 26 -34 5 8 10 25 10 38 0 31 -28 28 -36
-4z"/>
<path d="M8519 6323 c0 -10 -2 -38 -5 -63 -5 -40 -4 -43 9 -30 20 21 29 110
11 110 -8 0 -14 -8 -15 -17z"/>
<path d="M2775 6306 c-31 -13 -85 -69 -85 -87 0 -17 20 -9 35 15 9 13 29 29
45 36 35 15 70 50 49 50 -8 -1 -28 -7 -44 -14z"/>
<path d="M7955 6293 c-8 -10 -47 -54 -86 -98 -66 -73 -108 -140 -109 -173 0
-26 20 0 30 39 7 26 33 64 78 112 36 40 80 87 96 105 16 17 25 32 18 32 -7 0
-19 -8 -27 -17z"/>
<path d="M2588 6235 c-58 -55 -84 -95 -62 -95 9 0 144 143 144 153 0 16 -18 4
-82 -58z"/>
<path d="M7847 6263 c-15 -24 -36 -94 -27 -88 14 8 41 76 37 89 -2 6 -6 6 -10
-1z"/>
<path d="M3160 6242 c0 -11 -3 -28 -6 -37 -5 -11 0 -18 13 -21 24 -7 43 -50
39 -92 -1 -18 3 -37 10 -43 7 -6 10 -24 7 -48 -6 -41 11 -86 28 -75 6 3 8 12
5 20 -3 7 -1 16 3 19 18 11 18 -24 0 -54 -20 -32 -16 -61 7 -61 16 0 33 36 41
87 4 22 0 42 -12 59 -14 22 -15 30 -5 49 17 32 5 48 -31 40 -32 -7 -34 -4 -18
26 8 16 7 28 -6 52 -45 89 -75 120 -75 79z"/>
<path d="M8263 6246 c-21 -37 -74 -85 -88 -80 -9 4 -15 0 -16 -10 -1 -9 -2
-20 -3 -25 -4 -30 -113 -131 -142 -131 -3 0 -3 12 0 28 6 26 6 26 -9 8 -8 -11
-15 -26 -15 -33 0 -16 -16 -17 -26 -2 -3 6 -14 9 -23 6 -16 -4 -41 14 -41 30
0 4 9 19 20 33 63 80 -23 8 -159 -133 -42 -44 -114 -158 -105 -166 4 -3 11 2
18 13 28 47 99 136 108 136 5 0 -4 -25 -21 -55 -17 -30 -31 -60 -31 -67 0 -16
21 14 55 77 19 37 22 50 13 57 -10 6 -9 8 4 8 18 0 48 -25 48 -41 0 -6 -16
-17 -36 -25 -25 -11 -34 -20 -30 -30 6 -15 -20 -60 -51 -92 -7 -7 -13 -20 -13
-28 0 -8 -7 -28 -15 -44 -9 -17 -12 -30 -8 -30 11 0 54 68 58 91 2 11 13 32
24 48 12 16 21 34 21 39 0 5 11 17 25 26 23 15 25 15 26 -1 1 -10 0 -22 -1
-28 -1 -5 -2 -19 -4 -30 -1 -11 -10 -35 -20 -53 -9 -19 -14 -37 -10 -40 4 -4
9 -2 11 4 11 32 64 104 77 104 7 0 20 7 27 16 9 11 23 14 45 11 42 -7 49 1 23
29 l-21 22 20 11 c12 6 30 11 41 11 25 0 38 19 21 30 -15 9 30 31 122 58 32 9
58 20 58 25 0 14 -28 7 -114 -28 -48 -19 -90 -35 -93 -35 -3 0 40 47 95 105
99 104 170 195 152 195 -5 0 -13 -6 -17 -14z m-383 -267 c0 -23 -27 -36 -42
-21 -9 9 -7 17 7 32 20 22 35 18 35 -11z m90 -19 c0 -19 -5 -31 -15 -31 -8 -1
-21 -2 -27 -3 -8 -1 -12 8 -10 19 5 37 11 45 32 45 16 0 20 -7 20 -30z"/>
<path d="M2880 6225 c-7 -9 -10 -18 -7 -21 7 -8 47 14 47 26 0 15 -26 12 -40
-5z"/>
<path d="M8285 6230 c-3 -5 1 -10 9 -10 8 0 18 5 21 10 3 6 -1 10 -9 10 -8 0
-18 -4 -21 -10z"/>
<path d="M2960 6215 c-14 -16 -10 -18 14 -9 9 3 16 10 16 15 0 14 -16 11 -30
-6z"/>
<path d="M2464 6178 c-44 -50 -103 -136 -97 -142 13 -13 30 -5 44 22 7 15 31
50 51 79 21 29 38 55 38 58 0 12 -18 4 -36 -17z"/>
<path d="M8115 6156 c-9 -21 -14 -43 -12 -49 2 -6 11 9 21 32 9 24 14 46 12
49 -3 3 -13 -12 -21 -32z"/>
<path d="M8500 6164 c0 -8 5 -12 10 -9 6 3 10 10 10 16 0 5 -4 9 -10 9 -5 0
-10 -7 -10 -16z"/>
<path d="M8439 6124 c-9 -8 -24 -16 -33 -18 -9 -1 -23 -15 -31 -30 -18 -33
-18 -36 -5 -36 11 0 100 83 100 93 0 12 -15 8 -31 -9z"/>
<path d="M7722 6081 c-22 -72 -10 -83 15 -13 15 44 16 52 5 52 -5 0 -14 -17
-20 -39z"/>
<path d="M7853 6099 c-13 -5 -23 -13 -23 -19 0 -14 11 -12 34 5 24 18 18 25
-11 14z"/>
<path d="M2942 6031 c-9 -15 -32 -40 -50 -55 -33 -29 -41 -46 -19 -46 25 1
107 89 107 116 0 23 -19 16 -38 -15z"/>
<path d="M2515 5979 c-63 -56 -67 -147 -7 -182 30 -18 32 -18 73 3 55 28 89
64 89 92 0 45 -33 90 -75 104 -22 8 -41 14 -42 14 -1 0 -18 -14 -38 -31z m94
-56 c22 -49 12 -59 -20 -20 -23 28 -36 36 -50 32 -27 -9 -24 14 3 24 27 10 52
-4 67 -36z"/>
<path d="M2335 5990 c-3 -6 1 -13 10 -16 21 -9 26 -2 10 13 -9 8 -16 9 -20 3z"/>
<path d="M8380 5950 c0 -5 5 -10 10 -10 6 0 10 5 10 10 0 6 -4 10 -10 10 -5 0
-10 -4 -10 -10z"/>
<path d="M3113 5928 c-11 -13 -23 -31 -26 -40 -10 -30 17 -21 42 13 28 38 15
60 -16 27z"/>
<path d="M7652 5925 c-14 -31 -16 -83 -3 -69 9 9 26 94 18 94 -2 0 -9 -11 -15
-25z"/>
<path d="M8540 5904 c-13 -32 -13 -51 -1 -38 10 11 24 64 16 64 -3 0 -10 -12
-15 -26z"/>
<path d="M8135 5878 c-86 -62 -137 -103 -146 -120 -14 -26 5 -23 33 5 13 12
53 46 91 75 37 30 67 56 67 58 0 9 -16 2 -45 -18z"/>
<path d="M8226 5865 c-14 -21 -14 -25 -2 -25 13 0 36 28 36 44 0 15 -19 4 -34
-19z"/>
<path d="M8448 5854 c-41 -21 -63 -44 -41 -44 8 0 103 61 103 66 0 8 -16 2
-62 -22z"/>
<path d="M2950 5806 c-14 -19 -37 -42 -52 -51 -31 -18 -35 -30 -14 -38 16 -6
126 92 126 111 0 24 -36 10 -60 -22z"/>
<path d="M3211 5775 c-28 -75 -48 -106 -110 -173 -32 -35 -49 -72 -32 -72 5 0
13 5 16 10 12 19 26 11 15 -9 -5 -11 -10 -32 -10 -46 0 -34 31 -31 41 5 l6 25
10 -25 c6 -14 7 -26 2 -28 -21 -8 -7 -27 21 -29 31 -2 90 -39 90 -57 0 -6 9
-22 20 -36 11 -14 20 -31 20 -38 0 -7 14 -33 30 -57 38 -56 38 -80 0 -100 -38
-20 -76 -77 -89 -135 -29 -128 -42 -218 -50 -342 -5 -75 -12 -142 -16 -149 -8
-12 -11 -47 -20 -239 -9 -186 -7 -302 5 -403 7 -53 10 -115 8 -139 -8 -73 15
-548 27 -568 11 -18 25 -10 25 14 0 14 5 28 10 31 10 6 3 52 -11 70 -27 35
-38 1165 -12 1211 7 12 15 62 18 110 3 49 8 116 10 149 8 95 44 257 66 293 10
18 19 39 19 46 0 23 26 37 54 30 20 -5 28 -16 37 -46 6 -22 30 -93 54 -157 24
-64 45 -138 47 -165 5 -54 23 -71 37 -34 14 38 25 -237 12 -303 -6 -30 -13
-100 -16 -156 -7 -110 -17 -183 -35 -253 -6 -25 -13 -52 -15 -60 -21 -82 -57
-202 -68 -229 -19 -46 -26 -23 -26 89 0 81 9 112 22 78 3 -9 8 -10 15 -3 12
12 4 125 -9 125 -10 0 -11 -2 -13 -52 -3 -58 -14 -55 -21 6 -13 100 -22 50
-21 -110 1 -141 3 -157 20 -170 18 -13 18 -16 -17 -111 -19 -54 -41 -114 -48
-133 -6 -19 -21 -58 -31 -87 -11 -28 -21 -62 -23 -75 -1 -12 -12 -43 -24 -68
-11 -25 -21 -53 -21 -62 0 -10 -4 -18 -10 -18 -5 0 -12 -17 -16 -37 -18 -104
-49 -217 -81 -298 -27 -68 -36 -106 -37 -155 l-1 -65 95 -11 c52 -6 113 -19
134 -28 42 -19 70 -25 266 -55 117 -19 182 -34 205 -51 6 -4 33 -13 60 -19 93
-24 150 -43 223 -78 70 -32 75 -33 104 -18 40 20 45 19 59 -7 9 -17 9 -24 -3
-32 -15 -11 -41 -106 -32 -116 11 -11 40 20 58 62 20 50 17 79 -12 117 -19 23
-19 23 -56 6 -38 -18 -42 -18 -131 21 -43 19 -213 74 -228 74 -6 0 -25 7 -40
15 -16 8 -56 20 -90 26 -34 6 -89 17 -122 24 -33 7 -85 16 -115 20 -30 4 -73
16 -95 27 -43 20 -209 53 -229 45 -7 -3 -18 -2 -25 3 -18 11 5 117 30 138 10
9 19 28 19 43 0 14 3 29 7 33 9 9 25 70 54 206 12 52 27 102 35 111 8 9 12 18
9 21 -3 3 5 30 19 59 21 46 75 203 80 234 1 5 9 26 18 45 38 85 148 416 148
445 0 9 11 51 24 93 27 87 34 131 42 287 3 61 9 126 14 145 20 79 -15 338 -54
399 -5 8 -12 28 -15 45 -4 17 -16 35 -26 41 -11 6 -21 17 -23 25 -2 8 -10 28
-18 44 -8 16 -14 37 -14 46 0 37 -88 207 -112 218 -5 2 -8 17 -8 33 0 22 -13
44 -47 82 -62 66 -105 107 -115 107 -5 0 -8 16 -8 35 0 24 -5 38 -16 42 -15 5
-14 8 3 22 25 20 113 185 113 212 0 12 -7 19 -19 19 -15 0 -25 -15 -40 -55z"/>
<path d="M8280 5815 c0 -8 5 -15 10 -15 6 0 10 7 10 15 0 8 -4 15 -10 15 -5 0
-10 -7 -10 -15z"/>
<path d="M7604 5764 c-4 -10 -9 -22 -11 -26 -2 -5 0 -8 6 -8 11 0 26 39 17 47
-3 3 -9 -3 -12 -13z"/>
<path d="M3025 5760 c-3 -5 -1 -10 4 -10 6 0 11 5 11 10 0 6 -2 10 -4 10 -3 0
-8 -4 -11 -10z"/>
<path d="M8200 5751 c-13 -26 -13 -31 4 -31 7 0 16 11 18 25 6 30 -7 33 -22 6z"/>
<path d="M7676 5701 c-11 -23 -25 -46 -32 -52 -12 -10 -44 -66 -44 -77 0 -2 7
1 15 8 21 17 87 139 83 152 -2 6 -12 -8 -22 -31z"/>
<path d="M7879 5720 l-24 -21 35 17 c43 21 47 24 28 24 -9 0 -26 -9 -39 -20z"/>
<path d="M8336 5726 c-23 -7 -35 -15 -28 -20 11 -7 82 18 82 28 0 8 -7 7 -54
-8z"/>
<path d="M8121 5684 c-23 -39 -26 -54 -11 -54 6 0 10 6 10 14 0 7 9 25 20 39
22 28 25 37 11 37 -5 0 -18 -16 -30 -36z"/>
<path d="M7754 5668 c-16 -18 -21 -26 -11 -19 9 8 20 11 23 9 5 -6 -38 -78
-71 -117 -11 -13 -43 -51 -72 -85 -60 -71 -54 -89 7 -22 23 25 52 48 63 52 25
7 57 33 57 46 0 5 -9 4 -20 -2 -27 -15 -25 -6 12 48 17 26 40 59 50 75 19 28
12 37 -11 15 -11 -11 -11 -9 -2 10 16 30 10 28 -25 -10z"/>
<path d="M7889 5670 c-37 -19 -69 -50 -52 -50 6 0 20 9 33 20 12 11 31 22 41
25 11 4 19 11 19 16 0 11 2 12 -41 -11z"/>
<path d="M2216 5658 c-3 -7 -9 -44 -14 -83 -11 -79 -1 -104 26 -67 21 27 24
153 5 159 -7 3 -15 -1 -17 -9z"/>
<path d="M8189 5642 c-14 -9 -46 -34 -71 -54 -24 -21 -60 -44 -80 -52 -19 -9
-57 -31 -83 -51 -26 -20 -50 -34 -53 -31 -3 4 3 23 13 44 29 55 30 58 13 44
-9 -7 -25 -35 -37 -62 -24 -56 -46 -75 -181 -149 -72 -40 -367 -325 -420 -406
-19 -27 -46 -65 -62 -83 -32 -38 -62 -92 -50 -92 4 0 15 12 24 28 15 25 120
152 150 180 7 6 32 28 55 48 24 20 52 51 63 69 30 48 234 225 305 264 33 19
85 46 117 62 31 15 71 41 90 56 18 16 62 50 98 76 77 55 145 115 139 122 -3 2
-16 -4 -30 -13z"/>
<path d="M7580 5624 c0 -14 4 -23 10 -19 6 3 10 15 10 26 0 10 -4 19 -10 19
-5 0 -10 -12 -10 -26z"/>
<path d="M8038 5633 c-21 -24 -51 -84 -45 -89 3 -3 19 18 36 47 33 52 37 74 9
42z"/>
<path d="M8175 5570 c-31 -14 -35 -19 -18 -19 13 -1 37 8 55 19 41 25 17 25
-37 0z"/>
<path d="M7775 5550 c-3 -5 -1 -10 4 -10 6 0 11 5 11 10 0 6 -2 10 -4 10 -3 0
-8 -4 -11 -10z"/>
<path d="M3017 5514 c-10 -11 3 -24 24 -24 10 0 19 7 19 15 0 15 -31 21 -43 9z"/>
<path d="M7536 5495 c-4 -11 -15 -36 -24 -55 -9 -19 -18 -39 -21 -44 -2 -5 2
-6 8 -2 18 12 53 86 48 104 -3 15 -5 14 -11 -3z"/>
<path d="M8085 5480 c-23 -11 -32 -19 -22 -19 18 -1 77 25 77 34 0 8 -13 4
-55 -15z"/>
<path d="M2977 5484 c-8 -8 1 -24 14 -24 5 0 9 7 9 15 0 15 -12 20 -23 9z"/>
<path d="M2875 5440 c-8 -13 4 -32 16 -25 12 8 12 35 0 35 -6 0 -13 -4 -16
-10z"/>
<path d="M2950 5410 c-14 -27 -9 -65 9 -65 8 0 15 14 17 37 4 43 -10 58 -26
28z"/>
<path d="M3046 5422 c-12 -12 -5 -52 9 -52 12 0 35 28 35 43 0 7 -38 15 -44 9z"/>
<path d="M2812 5408 c-18 -18 -14 -28 8 -28 11 0 20 6 20 14 0 21 -15 27 -28
14z"/>
<path d="M2997 5403 c-13 -13 -7 -53 8 -53 10 0 15 10 15 30 0 29 -9 38 -23
23z"/>
<path d="M3140 5371 c-13 -24 -13 -61 -1 -61 13 0 17 8 26 48 7 36 -8 44 -25
13z"/>
<path d="M2712 5355 c-16 -34 -15 -35 7 -35 11 0 21 9 24 22 11 42 -13 52 -31
13z"/>
<path d="M7552 5368 c-21 -27 -82 -148 -74 -148 9 0 94 151 88 157 -2 2 -8 -2
-14 -9z"/>
<path d="M2873 5335 c-3 -9 -6 -35 -7 -58 -1 -31 3 -42 15 -45 14 -2 18 7 20
48 2 27 3 55 1 60 -5 15 -22 12 -29 -5z"/>
<path d="M2670 5320 c0 -5 5 -10 10 -10 6 0 10 5 10 10 0 6 -4 10 -10 10 -5 0
-10 -4 -10 -10z"/>
<path d="M3216 5298 c-12 -54 -10 -81 6 -76 14 5 20 86 7 94 -5 3 -11 -5 -13
-18z"/>
<path d="M3015 5288 c-2 -7 -6 -26 -8 -43 -3 -16 -8 -47 -12 -67 -7 -34 -5
-38 13 -38 16 0 21 9 26 45 4 25 4 54 1 66 -4 11 -1 26 5 34 10 12 9 15 -4 15
-9 0 -18 -6 -21 -12z"/>
<path d="M7420 5275 c0 -8 -16 -33 -36 -55 -20 -22 -32 -40 -26 -40 15 0 93
91 86 101 -8 14 -24 10 -24 -6z"/>
<path d="M3124 5269 c-8 -13 -34 -109 -34 -126 0 -29 28 -10 38 25 19 66 25
112 14 112 -6 0 -14 -5 -18 -11z"/>
<path d="M2652 5223 c-11 -21 -17 -44 -15 -50 7 -20 33 -15 33 6 0 11 4 21 9
23 14 5 17 51 4 55 -7 2 -21 -13 -31 -34z"/>
<path d="M7424 5177 c-36 -41 -84 -106 -84 -113 0 -12 28 16 71 72 41 53 51
86 13 41z"/>
<path d="M2772 5173 c-18 -36 -22 -99 -8 -119 12 -16 15 -16 20 -4 4 13 12 60
19 114 3 25 -19 32 -31 9z"/>
<path d="M3187 5153 c-11 -10 -8 -53 3 -53 6 0 10 14 10 30 0 31 -2 35 -13 23z"/>
<path d="M2816 5063 c8 -87 13 -103 30 -103 12 0 15 6 11 23 -3 12 -11 48 -17
80 -6 31 -16 57 -21 57 -5 0 -7 -24 -3 -57z"/>
<path d="M7276 5094 c-11 -28 -6 -38 9 -18 8 10 15 22 15 27 0 13 -18 7 -24
-9z"/>
<path d="M7225 4992 c-18 -12 -65 -80 -75 -106 -14 -37 3 -32 24 7 42 78 48
87 62 87 7 0 14 5 14 10 0 12 -11 13 -25 2z"/>
<path d="M2642 4978 c-17 -17 -16 -98 2 -98 17 0 26 22 26 65 0 38 -11 50 -28
33z"/>
<path d="M2729 4970 c0 -3 -3 -32 -6 -65 -3 -41 -11 -67 -25 -82 -14 -15 -20
-35 -20 -68 0 -53 4 -60 28 -51 12 5 15 15 11 39 -2 17 1 47 9 65 20 49 28
127 15 148 -6 11 -11 17 -12 14z"/>
<path d="M2950 4940 c0 -16 2 -30 4 -30 2 0 11 -3 20 -6 17 -6 22 19 10 50
-11 28 -34 18 -34 -14z"/>
<path d="M2841 4881 c-14 -25 2 -73 22 -65 17 6 17 76 0 81 -6 2 -16 -5 -22
-16z"/>
<path d="M3276 4871 c-9 -15 -28 -177 -31 -271 -4 -106 17 -148 51 -102 10 14
12 -3 8 -98 -3 -66 -1 -121 4 -129 14 -20 42 -6 42 20 0 12 3 19 8 15 4 -4 7
-33 7 -64 0 -51 2 -57 22 -60 25 -4 44 35 23 48 -8 5 -13 33 -14 76 -1 44 -5
69 -14 72 -6 2 -12 -3 -12 -12 0 -9 -9 -25 -20 -36 -20 -20 -20 -20 -26 3 -3
13 -3 50 0 83 2 32 5 74 5 92 1 22 5 31 12 26 19 -11 27 16 17 58 -5 23 -6 83
-3 134 4 60 3 94 -4 94 -13 0 -25 -120 -18 -186 3 -30 1 -56 -4 -59 -5 -4 -9
-14 -9 -24 0 -10 -9 -21 -20 -24 -19 -5 -20 0 -19 96 0 56 4 134 8 172 8 66 2
100 -13 76z"/>
<path d="M3122 4818 c2 -24 8 -43 13 -43 6 0 11 19 13 43 3 33 0 42 -13 42
-13 0 -16 -9 -13 -42z"/>
<path d="M2536 4831 c-31 -34 -42 -111 -16 -111 14 0 37 45 44 88 7 46 -1 53
-28 23z"/>
<path d="M2784 4805 c-6 -36 -1 -65 14 -65 4 0 8 23 8 50 0 58 -12 66 -22 15z"/>
<path d="M2870 4793 c0 -10 -3 -35 -6 -55 -5 -31 -4 -38 10 -38 13 0 16 10 16
49 0 28 -4 53 -10 56 -5 3 -10 -2 -10 -12z"/>
<path d="M3407 4723 c-21 -36 -12 -253 11 -261 10 -3 12 24 8 128 -5 127 -8
151 -19 133z"/>
<path d="M2732 4688 c-15 -15 -16 -41 0 -36 13 5 31 48 20 48 -5 0 -13 -5 -20
-12z"/>
<path d="M2567 4638 c-9 -52 -4 -82 14 -86 14 -3 17 6 16 57 0 67 -21 86 -30
29z"/>
<path d="M7075 4642 c-29 -38 -37 -52 -28 -52 8 1 56 71 51 75 -2 2 -12 -9
-23 -23z"/>
<path d="M2875 4649 c-9 -24 -2 -104 10 -104 14 0 19 80 6 102 -9 16 -10 16
-16 2z"/>
<path d="M2774 4640 c-14 -14 -3 -72 14 -78 13 -4 15 27 4 66 -5 17 -10 20
-18 12z"/>
<path d="M3469 4638 c0 -2 -2 -16 -3 -31 -1 -16 -8 -32 -15 -36 -11 -7 -10
-14 4 -35 21 -32 41 -33 49 -3 9 35 7 77 -4 77 -5 0 -10 7 -10 15 0 12 -18 22
-21 13z"/>
<path d="M2696 4616 c3 -9 11 -16 16 -16 13 0 5 23 -10 28 -7 2 -10 -2 -6 -12z"/>
<path d="M354 4550 c6 -66 50 -210 97 -316 15 -33 31 -78 35 -100 22 -125 126
-246 364 -425 19 -15 49 -39 65 -53 31 -27 45 -32 45 -17 0 9 -149 138 -182
156 -10 6 -61 53 -113 104 -101 100 -121 133 -161 264 -14 45 -33 98 -43 117
-17 33 -35 100 -27 100 12 0 59 -100 90 -195 44 -132 71 -179 145 -258 78 -84
82 -88 136 -127 26 -19 74 -59 106 -89 57 -52 81 -59 38 -10 -12 13 -32 36
-44 52 -13 15 -35 31 -49 37 -14 5 -26 14 -26 19 0 6 -20 22 -45 37 -25 14
-45 29 -45 33 0 4 -20 29 -46 57 -69 75 -109 142 -154 256 -23 56 -59 139 -80
183 -21 44 -46 107 -54 139 -8 33 -25 69 -36 80 l-22 21 6 -65z"/>
<path d="M3037 4603 c-11 -10 -8 -71 3 -78 18 -11 26 3 22 44 -4 39 -11 49
-25 34z"/>
<path d="M2674 4505 c-9 -22 4 -65 20 -65 9 0 13 10 10 33 -1 17 -3 35 -3 40
-2 13 -21 7 -27 -8z"/>
<path d="M2496 4484 c-13 -34 -3 -94 15 -94 5 0 9 25 9 55 0 53 -11 72 -24 39z"/>
<path d="M2892 4406 c5 -50 13 -65 27 -50 13 13 -1 86 -18 92 -10 3 -12 -6 -9
-42z"/>
<path d="M2787 4404 c-18 -34 -11 -84 10 -84 11 0 13 7 9 25 -4 14 -2 33 3 43
5 10 6 24 1 31 -6 11 -12 7 -23 -15z"/>
<path d="M3082 4418 c-18 -18 -15 -68 3 -68 11 0 15 11 15 40 0 44 -1 45 -18
28z"/>
<path d="M2566 4354 c-10 -25 4 -65 22 -62 9 2 15 6 14 11 -1 4 -2 21 -2 37 0
32 -23 42 -34 14z"/>
<path d="M3248 4304 c-11 -17 -14 -671 -5 -858 6 -101 10 -126 22 -115 8 8 10
229 6 594 -3 322 -8 404 -23 379z"/>
<path d="M2673 4264 c-7 -18 12 -64 27 -64 5 0 10 11 10 24 0 49 -23 75 -37
40z"/>
<path d="M2970 4256 c-13 -36 -18 -100 -8 -125 7 -19 11 -21 23 -11 9 7 13 21
10 30 -3 10 -6 43 -7 74 -1 31 -3 56 -5 56 -2 0 -8 -11 -13 -24z"/>
<path d="M1605 4257 c-10 -25 -1 -62 15 -62 10 0 14 9 13 29 -3 36 -20 56 -28
33z"/>
<path d="M3436 4189 c-7 -74 -2 -84 30 -63 27 18 32 44 8 44 -11 0 -15 8 -14
28 3 40 1 52 -9 52 -4 0 -11 -27 -15 -61z"/>
<path d="M3501 4232 c-14 -26 -14 -42 -1 -42 11 0 25 48 17 56 -3 3 -10 -3
-16 -14z"/>
<path d="M2494 4225 c-8 -20 16 -49 29 -36 11 11 0 51 -14 51 -5 0 -12 -7 -15
-15z"/>
<path d="M2846 4212 c-8 -14 -10 -87 -2 -100 13 -22 22 -4 24 52 2 50 -8 71
-22 48z"/>
<path d="M2736 4154 c-16 -41 -3 -104 21 -104 12 0 14 7 9 31 -3 17 -6 44 -6
60 0 31 -14 39 -24 13z"/>
<path d="M2595 4086 c-8 -48 -2 -66 20 -66 20 0 30 21 15 30 -9 5 -11 20 -7
44 4 27 2 36 -8 36 -9 0 -16 -17 -20 -44z"/>
<path d="M3309 4088 c-3 -50 20 -460 26 -467 11 -11 16 11 18 85 2 88 -11 359
-19 387 -7 24 -24 21 -25 -5z"/>
<path d="M3446 4054 c-3 -9 -1 -34 6 -56 9 -31 13 -36 18 -22 9 23 1 94 -10
94 -4 0 -11 -7 -14 -16z"/>
<path d="M3054 4026 c-8 -33 -2 -69 14 -74 8 -2 12 11 12 47 0 53 -15 69 -26
27z"/>
<path d="M2501 4026 c-14 -17 -11 -48 5 -53 14 -5 26 36 15 54 -6 12 -10 12
-20 -1z"/>
<path d="M2870 3900 c-6 -38 -9 -74 -5 -80 13 -20 23 -9 29 33 3 23 9 59 12
80 5 29 3 37 -9 37 -11 0 -18 -19 -27 -70z"/>
<path d="M2726 3894 c-11 -27 -6 -61 9 -74 13 -11 15 -6 15 39 0 50 -12 67
-24 35z"/>
<path d="M3047 3854 c-8 -8 1 -24 14 -24 5 0 9 7 9 15 0 15 -12 20 -23 9z"/>
<path d="M2530 3811 c0 -34 13 -61 25 -49 7 7 -8 88 -16 88 -5 0 -9 -18 -9
-39z"/>
<path d="M2547 3743 c-11 -10 -8 -70 5 -98 16 -36 32 -32 23 8 -4 17 -9 45
-11 61 -5 33 -8 39 -17 29z"/>
<path d="M3047 3693 c-12 -11 -7 -50 7 -62 19 -16 25 -4 19 37 -5 31 -13 39
-26 25z"/>
<path d="M2965 3581 c2 -102 13 -137 36 -114 8 8 8 13 0 17 -6 4 -11 40 -11
85 0 49 -5 84 -14 96 -12 16 -13 5 -11 -84z"/>
<path d="M2686 3594 c-11 -38 4 -94 26 -94 7 0 9 16 4 47 -7 53 -21 75 -30 47z"/>
<path d="M2520 3557 c0 -43 22 -89 36 -75 6 7 -23 118 -32 118 -2 0 -4 -19 -4
-43z"/>
<path d="M2580 3515 c0 -8 5 -15 10 -15 6 0 10 7 10 15 0 8 -4 15 -10 15 -5 0
-10 -7 -10 -15z"/>
<path d="M2780 3502 c0 -37 9 -62 22 -62 14 0 5 83 -9 88 -9 2 -13 -7 -13 -26z"/>
<path d="M6218 3432 c-32 -19 -38 -38 -7 -22 11 7 23 9 26 6 3 -3 15 0 26 5
16 9 17 13 6 20 -18 11 -19 11 -51 -9z"/>
<path d="M3000 3431 c0 -5 9 -19 20 -32 21 -26 27 -11 10 22 -11 19 -30 26
-30 10z"/>
<path d="M2870 3392 c0 -23 35 -57 44 -43 9 14 -15 61 -31 61 -7 0 -13 -8 -13
-18z"/>
<path d="M2566 3338 c8 -61 24 -98 41 -98 11 0 13 5 8 18 -4 9 -11 35 -14 57
-8 45 -17 65 -32 65 -5 0 -7 -18 -3 -42z"/>
<path d="M2696 3364 c-15 -40 -1 -114 21 -114 11 0 14 6 9 23 -3 12 -6 41 -6
65 0 42 -13 56 -24 26z"/>
<path d="M6214 3346 c-10 -8 -16 -17 -13 -20 3 -4 17 2 30 13 27 23 13 28 -17
7z"/>
<path d="M6165 3340 c-3 -5 -1 -10 4 -10 6 0 11 5 11 10 0 6 -2 10 -4 10 -3 0
-8 -4 -11 -10z"/>
<path d="M6324 3305 c-7 -18 3 -35 22 -35 15 0 17 9 8 34 -8 20 -23 21 -30 1z"/>
<path d="M6195 3280 c3 -5 11 -10 16 -10 6 0 7 5 4 10 -3 6 -11 10 -16 10 -6
0 -7 -4 -4 -10z"/>
<path d="M3046 3272 c-9 -16 15 -82 29 -82 17 0 19 27 5 64 -10 26 -24 33 -34
18z"/>
<path d="M4084 3218 c-3 -12 -8 -130 -9 -262 -2 -133 -6 -308 -10 -390 -3 -83
-4 -161 0 -174 8 -32 30 -22 31 14 3 136 4 149 18 132 7 -10 15 -18 18 -18 6
0 1 81 -11 175 -9 69 -6 101 6 57 9 -35 28 -19 25 19 -1 19 -12 71 -22 115
-22 91 -26 139 -10 114 5 -8 10 -24 10 -36 0 -22 25 -62 34 -54 3 3 -1 24 -9
45 -8 22 -14 74 -14 115 l1 75 13 -48 c27 -99 30 -66 8 86 -5 36 -23 53 -23
22 0 -8 -4 -15 -10 -15 -6 0 -7 -23 -3 -60 4 -45 3 -60 -7 -60 -9 0 -11 22 -9
85 3 61 1 85 -8 85 -6 0 -15 -10 -19 -22z m66 -58 c0 -5 -5 -10 -11 -10 -5 0
-7 5 -4 10 3 6 8 10 11 10 2 0 4 -4 4 -10z m-42 -565 c-3 -3 -9 2 -12 12 -6
14 -5 15 5 6 7 -7 10 -15 7 -18z"/>
<path d="M6217 3233 c-4 -3 -7 -11 -7 -17 0 -6 5 -5 12 2 6 6 9 14 7 17 -3 3
-9 2 -12 -2z"/>
<path d="M6320 3206 c0 -9 7 -16 16 -16 9 0 14 5 12 12 -6 18 -28 21 -28 4z"/>
<path d="M6235 3199 c-4 -6 -5 -13 -2 -16 7 -7 27 6 27 18 0 12 -17 12 -25 -2z"/>
<path d="M2610 3183 c0 -13 5 -23 10 -23 13 0 13 11 0 30 -8 12 -10 11 -10 -7z"/>
<path d="M2777 3193 c-12 -12 -7 -60 7 -72 19 -16 26 -1 19 42 -5 36 -13 44
-26 30z"/>
<path d="M4365 3171 c-8 -25 -9 -172 -2 -197 4 -10 0 -91 -8 -179 -22 -247
-30 -804 -13 -885 10 -49 19 -66 32 -68 17 -4 18 1 11 55 -15 107 -8 686 10
828 3 22 7 86 8 142 2 57 6 106 10 109 3 4 0 16 -8 28 -11 16 -13 43 -9 104 4
68 2 82 -10 82 -8 0 -17 -8 -21 -19z"/>
<path d="M6341 3159 c-25 -21 -24 -33 2 -23 14 5 31 33 25 40 -2 1 -14 -6 -27
-17z"/>
<path d="M6388 3131 c-30 -52 -33 -61 -20 -61 11 0 55 85 51 98 -2 7 -16 -10
-31 -37z"/>
<path d="M2655 3138 c-11 -28 -1 -73 15 -73 11 0 14 9 12 35 -4 41 -19 61 -27
38z"/>
<path d="M2943 2993 c-7 -2 -13 -9 -13 -15 0 -14 43 -6 48 10 4 12 -12 15 -35
5z"/>
<path d="M3118 2948 c10 -12 9 -22 -5 -49 -9 -19 -19 -36 -22 -39 -3 -3 -18
-22 -34 -42 -27 -37 -37 -86 -24 -124 6 -18 3 -21 -27 -22 -20 -1 -38 3 -41 8
-3 6 -17 10 -31 10 -14 0 -34 5 -45 10 -23 13 -69 -15 -68 -40 1 -8 1 -17 0
-20 -1 -3 -4 -42 -7 -87 -4 -81 -4 -83 20 -89 14 -3 30 -3 35 1 6 3 17 3 24
-2 6 -4 27 -8 45 -9 19 0 37 -5 40 -11 4 -6 16 -7 29 -2 16 6 27 24 38 63 21
71 28 175 14 192 -15 18 -4 75 20 105 19 27 82 141 78 144 -1 2 -13 6 -27 10
-21 7 -23 6 -12 -7z m-220 -314 c4 -53 -34 -159 -52 -145 -12 10 -7 95 10 169
9 40 39 23 42 -24z m66 -4 c-2 -48 -28 -150 -39 -150 -5 0 -17 4 -25 10 -11 7
-12 13 -3 32 7 13 17 49 23 81 9 46 15 57 28 55 11 -2 17 -12 16 -28z m69 -71
c-7 -40 -19 -79 -29 -90 -18 -20 -18 -20 -26 0 -9 27 9 129 29 160 11 17 18
20 26 12 8 -8 8 -30 0 -82z"/>
<path d="M2956 2866 l7 -85 -33 -31 c-25 -23 -30 -34 -22 -42 16 -16 44 11 67
62 15 32 16 50 9 106 -5 39 -14 69 -22 72 -9 3 -11 -15 -6 -82z"/>
<path d="M2860 2876 c-6 -8 -17 -13 -23 -11 -14 4 -73 -63 -63 -72 4 -4 13 3
22 15 21 31 40 28 20 -3 -18 -27 -7 -35 14 -10 7 8 18 15 24 15 13 1 47 65 39
74 -10 10 -20 7 -33 -8z"/>
<path d="M2770 2730 c0 -5 5 -10 11 -10 5 0 7 5 4 10 -3 6 -8 10 -11 10 -2 0
-4 -4 -4 -10z"/>
<path d="M5879 2694 c-12 -14 -11 -16 5 -13 11 2 21 10 24 17 5 17 -13 15 -29
-4z"/>
<path d="M6257 2583 c-9 -15 7 -66 23 -71 10 -4 11 3 6 29 -7 37 -21 56 -29
42z"/>
<path d="M6227 2544 c-4 -4 -7 -14 -7 -23 0 -11 3 -12 11 -4 6 6 10 16 7 23
-2 6 -7 8 -11 4z"/>
<path d="M3080 2506 c-6 -9 -14 -32 -17 -53 -3 -21 -16 -52 -29 -68 l-24 -30
0 33 c0 50 -16 30 -24 -30 -16 -120 -18 -188 -7 -188 6 0 11 15 12 33 1 50 9
131 14 135 9 10 26 -44 27 -88 1 -34 -4 -56 -15 -68 -9 -10 -17 -22 -17 -25 0
-4 -8 -25 -17 -46 -16 -36 -58 -70 -71 -56 -3 3 0 29 7 58 19 84 35 317 22
330 -8 8 -11 -6 -12 -51 -1 -34 -2 -65 -3 -69 -1 -5 -6 -48 -11 -98 -5 -49 -9
-92 -10 -95 -1 -3 -5 -18 -10 -35 -4 -16 -28 -90 -51 -163 -24 -73 -44 -147
-44 -163 0 -17 -11 -58 -24 -92 -13 -34 -27 -71 -30 -82 -3 -12 -27 -41 -53
-65 -33 -32 -39 -36 -21 -13 15 18 38 57 52 86 25 53 35 85 61 198 7 31 22 81
33 110 29 80 60 197 66 257 4 30 11 84 16 120 5 37 9 87 9 112 l-1 45 -13 -30
c-8 -16 -14 -55 -15 -85 -1 -122 -21 -224 -71 -356 -27 -73 -56 -163 -64 -200
-38 -167 -82 -248 -174 -317 -70 -54 -161 -107 -182 -107 -8 0 -31 16 -53 35
-32 30 -46 35 -86 35 -63 0 -108 -16 -148 -54 -45 -42 -62 -77 -62 -128 0 -51
35 -117 70 -135 14 -7 63 -13 114 -13 l89 0 39 41 c23 24 43 58 50 85 9 32 21
51 40 62 16 9 28 20 28 24 0 4 6 8 14 8 8 0 16 3 18 8 2 4 28 26 58 49 30 22
65 52 77 65 24 25 57 58 90 90 11 11 29 39 38 62 10 22 24 55 32 73 7 18 21
72 30 120 8 48 24 105 35 126 11 22 17 41 15 44 -3 2 1 19 8 36 10 24 23 35
52 43 23 6 42 19 48 32 5 12 16 22 23 22 22 0 48 92 57 200 10 125 14 149 25
169 11 22 39 28 56 12 5 -5 38 -15 74 -21 36 -7 83 -18 105 -26 23 -8 50 -14
62 -14 12 0 25 -4 28 -10 3 -5 18 -10 33 -10 28 0 195 -24 278 -41 29 -5 88
-25 133 -44 44 -19 97 -39 118 -44 21 -6 53 -23 71 -38 l33 -28 -16 -38 c-8
-21 -19 -85 -24 -143 -4 -58 -12 -109 -17 -112 -9 -6 -34 -57 -34 -67 0 -3 9
-5 19 -5 37 0 62 63 66 170 3 89 9 131 22 170 3 11 8 8 19 -12 16 -31 35 -36
54 -13 15 19 0 40 -28 40 -13 0 -17 8 -16 38 1 41 -3 45 -21 20 -11 -15 -15
-15 -29 -4 -9 7 -16 19 -16 26 0 8 -8 11 -18 9 -12 -4 -21 4 -30 28 -8 18 -16
27 -19 21 -7 -20 -23 -15 -23 7 0 11 -5 20 -11 20 -7 0 -8 -11 -4 -31 l7 -32
-33 24 c-19 13 -39 23 -45 21 -6 -1 -16 10 -23 25 -12 26 -14 27 -26 9 -13
-17 -17 -17 -62 -3 -26 9 -126 28 -222 42 -96 15 -183 32 -195 40 -12 7 -70
22 -131 35 -60 12 -115 28 -121 36 -10 12 -13 12 -24 0z m-475 -1076 c-16 -16
-33 -30 -38 -30 -8 0 -69 -43 -94 -66 -6 -6 -34 -26 -62 -44 -39 -25 -64 -33
-101 -34 -36 -1 -50 3 -50 13 0 8 6 11 16 7 9 -3 37 4 62 16 26 11 49 22 52
22 3 1 26 13 52 29 26 15 50 27 53 27 8 0 93 58 113 78 27 25 25 11 -3 -18z
m-483 -135 c-4 -26 -22 -35 -22 -12 0 10 18 37 26 37 1 0 -1 -11 -4 -25z m44
-20 c-26 -19 -42 -19 -26 0 7 8 20 15 29 15 13 -1 13 -3 -3 -15z m-16 -43 c0
-13 -12 -22 -22 -16 -10 6 -1 24 13 24 5 0 9 -4 9 -8z m220 -23 c-13 -22 -27
-25 -27 -4 0 8 4 12 9 9 4 -3 8 2 8 11 0 9 5 13 10 10 7 -4 7 -13 0 -26z
m-110 2 c0 -11 -40 -22 -52 -15 -5 3 -6 10 -3 15 8 12 55 12 55 0z m-105 -20
c-3 -6 -11 -11 -17 -11 -6 0 -6 6 2 15 14 17 26 13 15 -4z m105 -5 c0 -3 -4
-8 -10 -11 -5 -3 -10 -1 -10 4 0 6 5 11 10 11 6 0 10 -2 10 -4z m38 -31 c-3
-3 -9 2 -12 12 -6 14 -5 15 5 6 7 -7 10 -15 7 -18z m-128 5 c0 -5 -5 -10 -11
-10 -5 0 -7 5 -4 10 3 6 8 10 11 10 2 0 4 -4 4 -10z m90 -20 c-6 -12 -14 -20
-17 -17 -2 3 1 14 8 26 17 26 24 19 9 -9z m60 -4 c0 -3 -4 -8 -10 -11 -5 -3
-10 -1 -10 4 0 6 5 11 10 11 6 0 10 -2 10 -4z"/>
<path d="M2747 2454 c-8 -8 0 -102 14 -159 5 -22 11 -83 13 -135 2 -52 5 -103
5 -112 1 -10 7 -18 15 -18 20 0 30 38 16 55 -6 7 -13 47 -16 87 -2 40 -7 88
-9 105 -3 18 -1 41 4 52 8 14 6 32 -6 67 -17 54 -26 68 -36 58z"/>
<path d="M3617 2444 c-4 -4 -7 -14 -7 -23 0 -11 3 -12 11 -4 6 6 10 16 7 23
-2 6 -7 8 -11 4z"/>
<path d="M3650 2435 c-10 -12 -10 -15 3 -15 19 0 31 16 18 24 -5 3 -14 -1 -21
-9z"/>
<path d="M4115 2440 c-3 -5 1 -10 10 -10 9 0 13 5 10 10 -3 6 -8 10 -10 10 -2
0 -7 -4 -10 -10z"/>
<path d="M2814 2273 c3 -91 8 -168 10 -170 10 -11 16 115 10 218 -11 185 -27
146 -20 -48z"/>
<path d="M2696 2422 c-2 -4 2 -46 10 -92 8 -47 14 -105 12 -130 -2 -35 0 -45
12 -45 12 0 14 12 12 59 -2 32 -8 72 -13 89 -5 18 -9 53 -9 79 0 43 -11 61
-24 40z"/>
<path d="M3730 2405 c0 -15 38 -40 47 -31 9 9 -6 38 -17 31 -5 -3 -10 -1 -10
4 0 6 -4 11 -10 11 -5 0 -10 -7 -10 -15z"/>
<path d="M4168 2223 c-6 -21 0 -43 11 -43 4 0 8 14 8 30 0 33 -12 40 -19 13z"/>
<path d="M2940 2111 c0 -17 5 -31 10 -31 6 0 10 11 10 24 0 14 -4 28 -10 31
-6 4 -10 -7 -10 -24z"/>
<path d="M7755 1310 c-7 -12 2 -12 30 0 19 8 19 9 -2 9 -12 1 -25 -3 -28 -9z"/>
<path d="M7795 1250 c-3 -5 3 -10 14 -10 11 0 23 5 26 10 3 6 -3 10 -14 10
-11 0 -23 -4 -26 -10z"/>
<path d="M7337 1226 c-14 -11 -15 -15 -3 -19 8 -3 16 2 19 14 3 10 4 19 4 19
-1 0 -10 -7 -20 -14z"/>
<path d="M7520 1220 c0 -5 6 -10 14 -10 8 0 18 5 21 10 3 6 -3 10 -14 10 -12
0 -21 -4 -21 -10z"/>
<path d="M7810 1210 c0 -5 7 -7 15 -4 8 4 15 8 15 10 0 2 -7 4 -15 4 -8 0 -15
-4 -15 -10z"/>
<path d="M7270 1204 c0 -4 8 -13 18 -20 16 -12 16 -14 -3 -28 -11 -8 -15 -16
-9 -16 21 0 39 30 28 48 -11 17 -34 28 -34 16z"/>
<path d="M7524 1193 c3 -3 -2 -11 -11 -18 -10 -8 -12 -14 -6 -18 6 -4 21 1 34
11 l22 19 -22 6 c-13 3 -20 3 -17 0z"/>
<path d="M7830 1175 c-8 -10 -4 -12 15 -12 31 0 42 13 15 20 -10 3 -24 -1 -30
-8z"/>
<path d="M8027 1094 c-3 -3 -3 -12 0 -20 3 -7 -3 -33 -12 -58 -21 -54 -15 -99
6 -48 14 34 29 42 29 16 0 -29 33 -74 55 -74 19 1 18 2 -6 23 -40 36 -42 63
-8 101 35 41 36 46 5 46 -14 0 -28 5 -31 10 -7 11 -28 13 -38 4z m73 -32 c0
-14 -23 -32 -42 -32 -18 0 -25 20 -11 33 9 10 53 9 53 -1z"/>
<path d="M8166 1023 c-4 -18 -5 -42 -1 -53 6 -18 12 -20 43 -14 40 7 71 29 58
41 -4 4 -12 0 -17 -10 -14 -24 -30 -11 -23 19 9 35 -9 29 -25 -8 l-14 -33 -6
45 -7 45 -8 -32z"/>
<path d="M8372 1029 c-30 -48 -1 -111 40 -88 12 6 24 5 38 -3 26 -16 47 -4 65
40 18 40 1 42 -20 2 -20 -39 -34 -38 -42 1 l-6 32 -19 -27 c-11 -14 -26 -26
-34 -26 -16 0 -19 33 -4 60 14 25 -3 34 -18 9z"/>
<path d="M7435 970 c-8 -13 15 -13 35 0 12 8 11 10 -7 10 -12 0 -25 -4 -28
-10z"/>
<path d="M8100 965 c0 -8 5 -15 10 -15 6 0 10 7 10 15 0 8 -4 15 -10 15 -5 0
-10 -7 -10 -15z"/>
<path d="M8296 971 c-4 -7 -5 -15 -2 -18 9 -9 19 4 14 18 -4 11 -6 11 -12 0z"/>
<path d="M8640 964 c0 -8 5 -12 10 -9 6 3 10 10 10 16 0 5 -4 9 -10 9 -5 0
-10 -7 -10 -16z"/>
<path d="M7268 777 c-45 -14 -102 -66 -127 -116 -60 -119 -69 -422 -14 -484
29 -32 89 -66 135 -76 85 -19 182 31 207 107 12 36 12 44 -3 67 -24 36 -53 31
-96 -15 -42 -46 -68 -50 -104 -17 -67 59 -81 154 -41 292 28 95 48 126 97 146
41 17 61 -5 67 -74 1 -4 13 -12 27 -18 36 -13 60 9 73 69 11 53 5 68 -40 106
-25 22 -40 26 -87 25 -31 0 -74 -6 -94 -12z m176 -54 c25 -30 27 -36 16 -68
-15 -46 -34 -44 -49 5 -15 50 -41 66 -84 50 -36 -12 -97 -67 -97 -87 0 -8 -7
-24 -14 -36 -22 -33 -46 -134 -46 -194 0 -75 47 -169 96 -189 43 -18 74 -10
110 27 35 36 74 39 74 5 0 -30 -33 -72 -73 -92 -76 -40 -206 10 -234 91 -20
55 -20 262 0 337 31 116 76 165 167 184 71 14 101 6 134 -33z"/>
<path d="M2443 744 c-80 -28 -115 -86 -136 -229 -37 -243 -11 -368 86 -414 60
-28 100 -34 146 -21 98 26 173 144 141 221 -24 56 -86 22 -119 -64 -13 -35
-33 -43 -71 -27 -47 20 -68 78 -65 182 1 48 7 93 12 100 6 7 13 35 17 62 7 61
29 85 81 89 34 2 41 -2 54 -28 29 -55 62 -61 87 -14 22 43 11 73 -39 106 -81
55 -120 62 -194 37z m142 -41 c56 -29 79 -63 57 -85 -8 -8 -14 -4 -21 15 -14
35 -77 55 -119 38 -48 -20 -68 -51 -93 -141 -54 -192 -8 -361 98 -360 46 1 61
12 88 65 12 22 29 42 39 43 17 4 18 -1 13 -37 -14 -110 -118 -161 -223 -110
-83 40 -104 127 -83 334 5 44 9 100 10 124 3 53 31 90 92 120 55 27 77 27 142
-6z"/>
<path d="M5684 736 c-152 -13 -166 -20 -162 -80 4 -57 28 -67 131 -53 42 6 80
8 83 4 9 -8 5 -326 -5 -432 -5 -50 -6 -94 -4 -99 8 -12 109 -2 126 12 12 10
14 55 10 272 -3 209 -2 260 9 261 7 1 29 3 49 4 94 6 120 31 87 83 -18 29 -24
32 -71 32 -29 0 -68 2 -87 4 -19 2 -94 -1 -166 -8z m56 -59 l0 -33 -74 -10
c-90 -11 -106 -8 -106 19 0 37 13 46 75 50 33 2 70 4 83 5 19 2 22 -3 22 -31z
m234 17 c33 -32 7 -47 -74 -43 -28 2 -55 -2 -60 -7 -11 -11 -15 -469 -4 -497
9 -25 -14 -47 -48 -47 l-30 0 7 63 c4 35 8 169 10 298 2 129 3 237 4 242 1 4
41 7 90 7 68 0 93 -4 105 -16z"/>
<path d="M6056 734 c-9 -8 -16 -16 -16 -17 0 -1 7 -26 14 -54 8 -29 12 -74 10
-100 -21 -286 -32 -389 -50 -465 -5 -24 -2 -29 21 -38 35 -13 89 3 110 33 13
18 14 43 9 143 -4 75 -3 124 3 127 6 4 29 9 51 13 l42 7 0 -67 c0 -36 -5 -86
-12 -110 -17 -63 5 -120 48 -124 21 -2 36 4 49 18 17 19 19 38 20 190 0 165
-1 169 -24 194 -28 30 -53 32 -106 10 -20 -8 -38 -14 -40 -12 -2 2 -5 52 -8
111 -4 95 -7 111 -27 132 -27 29 -71 33 -94 9z m76 -41 c6 -16 12 -75 13 -133
3 -120 6 -123 80 -95 52 21 69 16 89 -24 13 -25 15 -54 8 -178 -7 -139 -8
-148 -27 -148 -19 0 -20 6 -17 135 4 166 0 174 -76 164 -85 -11 -85 -11 -86
-169 -1 -115 -4 -139 -17 -148 -9 -6 -23 -8 -31 -4 -13 4 -14 14 -7 49 11 54
41 446 35 456 -8 14 -17 103 -11 112 12 19 36 10 47 -17z"/>
<path d="M900 727 c-75 -6 -128 -14 -132 -20 -4 -7 -8 -28 -8 -49 0 -33 4 -38
43 -56 28 -13 65 -20 111 -21 38 0 71 -3 74 -5 8 -9 2 -166 -8 -192 -15 -38
-13 -267 2 -282 17 -17 73 -15 108 3 36 19 39 39 42 278 2 104 5 192 8 196 13
21 55 31 124 31 l76 0 0 44 c0 49 -18 75 -53 77 -114 4 -284 2 -387 -4z m388
-39 c23 -12 31 -48 10 -48 -131 -3 -149 -7 -172 -31 -22 -22 -24 -34 -30 -174
-3 -82 -6 -180 -6 -217 0 -74 -14 -98 -56 -98 l-25 0 5 113 c3 61 8 164 11
227 9 149 7 152 -106 158 -94 5 -119 14 -119 42 0 27 10 31 96 32 42 0 87 3
100 7 38 10 267 2 292 -11z"/>
<path d="M1389 736 c-4 -28 0 -68 11 -106 7 -28 10 -70 6 -110 -3 -36 -8 -112
-12 -170 -3 -58 -9 -118 -13 -135 -10 -41 -2 -112 14 -125 22 -18 66 -7 87 20
14 19 19 48 22 115 7 138 12 155 50 155 49 0 55 -9 45 -65 -4 -27 -8 -86 -8
-131 -1 -85 4 -96 56 -123 33 -17 37 4 7 36 l-26 28 6 132 6 132 -35 11 c-19
6 -49 9 -65 5 -43 -9 -59 -51 -63 -167 -3 -97 -14 -128 -44 -128 -13 0 -14 19
-7 147 9 143 10 377 3 418 -3 15 1 20 16 20 16 0 21 -9 27 -50 3 -27 7 -75 7
-105 1 -30 5 -61 9 -67 10 -16 42 -18 109 -9 48 7 53 6 68 -17 14 -22 16 -46
10 -179 -6 -149 -1 -189 23 -174 7 4 10 35 8 79 -2 40 1 112 6 160 5 49 7 100
4 113 -10 37 -58 56 -135 52 l-66 -3 -2 65 c-2 98 -9 140 -25 157 -15 15 -97
31 -99 19z"/>
<path d="M8400 623 c-35 -14 -72 -47 -89 -81 -23 -44 -46 -218 -37 -270 4 -20
9 -50 11 -65 6 -40 40 -92 70 -105 89 -41 205 36 205 135 0 75 -60 87 -96 18
-30 -59 -57 -55 -66 10 -8 63 0 211 14 248 13 33 26 31 48 -8 22 -39 55 -50
80 -25 54 54 -63 174 -140 143z m91 -50 c18 -11 29 -26 29 -40 0 -35 -14 -34
-43 3 -16 19 -34 34 -42 34 -21 0 -51 -49 -62 -100 -22 -111 3 -300 40 -300
23 0 57 31 72 67 18 42 39 39 43 -5 7 -71 -72 -126 -140 -98 -44 19 -51 28
-73 94 -17 53 -16 144 2 252 6 39 37 96 56 104 27 11 91 5 118 -11z"/>
<path d="M9150 621 c0 -5 -9 -11 -19 -14 -23 -6 -61 -76 -61 -111 0 -35 36
-104 77 -147 53 -56 57 -149 6 -149 -8 0 -32 18 -54 40 -22 22 -44 40 -49 40
-18 0 -50 -54 -50 -85 0 -37 27 -67 82 -90 63 -26 119 -14 176 38 25 23 54
108 47 141 -2 11 -6 34 -10 50 -3 15 -28 51 -54 80 -86 91 -88 129 -6 85 49
-26 66 -20 83 31 9 24 7 31 -18 55 -36 34 -150 62 -150 36z m73 -25 c15 -4 36
-15 47 -26 24 -24 26 -60 4 -60 -9 0 -27 9 -41 20 -49 39 -97 14 -86 -44 5
-26 64 -96 80 -96 5 0 17 -19 27 -42 20 -46 22 -115 5 -158 -32 -80 -175 -85
-218 -8 -13 22 -13 29 -2 42 13 15 17 13 46 -19 18 -19 42 -35 53 -35 23 0 68
33 82 61 15 28 -4 92 -40 133 -17 18 -30 37 -30 42 0 4 -10 18 -22 31 -34 37
-19 135 23 148 10 4 19 13 19 22 0 11 4 13 13 6 6 -6 24 -13 40 -17z"/>
<path d="M8890 595 c-19 -21 -22 -34 -21 -107 1 -116 -14 -233 -34 -264 -15
-23 -19 -25 -32 -11 -8 8 -15 25 -15 38 0 13 1 86 1 162 2 189 -12 215 -103
186 -54 -17 -54 -17 -24 -42 33 -27 37 -65 25 -258 -10 -152 -6 -168 46 -199
101 -62 204 18 222 170 11 93 14 294 5 316 -13 32 -45 36 -70 9z m-133 -38
c10 -21 9 -59 -1 -254 -4 -71 -2 -85 15 -107 29 -37 54 -33 84 12 28 43 46
155 41 253 -4 70 3 109 20 109 8 0 17 -12 20 -26 8 -30 -3 -217 -16 -289 -5
-27 -9 -55 -9 -62 -1 -7 -15 -28 -32 -48 -35 -39 -70 -45 -119 -20 -41 21 -54
71 -43 165 4 41 5 122 2 180 -3 58 -4 108 -2 112 6 12 30 -2 40 -25z"/>
<path d="M8040 599 c-76 -30 -107 -100 -119 -270 -7 -100 -6 -119 11 -159 30
-73 101 -100 171 -64 38 20 55 43 80 104 27 65 30 281 4 327 -37 68 -83 87
-147 62z m107 -61 c25 -36 28 -53 31 -135 7 -175 -52 -294 -137 -278 -75 14
-95 55 -88 184 8 153 14 182 45 220 26 33 56 46 104 50 10 1 29 -17 45 -41z"/>
<path d="M8044 513 c-25 -18 -45 -78 -56 -173 -11 -95 -11 -102 8 -127 21 -27
65 -46 89 -37 7 3 25 31 39 63 21 47 26 74 26 132 -1 95 -22 143 -65 147 -17
1 -35 -1 -41 -5z m65 -54 c23 -68 3 -234 -31 -255 -5 -4 -22 2 -36 13 -19 14
-27 30 -29 59 -3 53 16 164 33 192 21 32 50 28 63 -9z"/>
<path d="M7805 588 c-10 -6 -39 -15 -64 -20 -36 -6 -48 -5 -63 9 -16 14 -23
15 -59 3 -50 -17 -58 -28 -31 -49 35 -27 44 -67 37 -171 -3 -52 -10 -113 -15
-135 -17 -72 -13 -123 11 -136 26 -13 82 -4 100 17 8 10 12 62 13 172 1 121 4
162 16 180 20 30 32 28 52 -8 34 -60 88 -26 88 56 0 37 -6 56 -20 72 -23 25
-36 27 -65 10z m51 -42 c8 -32 1 -89 -11 -93 -5 -1 -18 11 -28 28 -15 27 -21
30 -45 24 -15 -3 -37 -16 -50 -28 -23 -21 -23 -26 -21 -177 3 -156 -2 -181
-33 -193 -36 -13 -41 16 -24 135 20 137 20 220 1 273 -19 52 -11 57 36 23 13
-9 29 -7 75 9 80 27 93 27 100 -1z"/>
<path d="M3484 523 c-13 -31 -14 -46 -5 -88 6 -27 14 -84 17 -125 17 -220 60
-270 145 -167 19 23 41 61 49 85 7 23 18 41 24 39 6 -2 21 -28 33 -58 38 -97
45 -109 63 -119 15 -8 22 -3 42 33 13 23 34 78 46 122 13 44 32 109 44 143 22
70 20 134 -5 160 -35 35 -69 -11 -92 -123 -24 -116 -29 -120 -60 -50 -27 62
-60 105 -81 105 -19 0 -38 -29 -64 -101 -14 -38 -29 -70 -35 -70 -12 -1 -47
158 -41 186 6 25 -12 50 -42 59 -19 6 -25 2 -38 -31z m67 -139 c11 -66 24
-123 29 -127 12 -13 48 10 55 35 22 72 60 143 77 143 14 0 68 -99 68 -126 0
-9 6 -22 13 -28 25 -20 47 11 67 94 33 132 51 163 64 110 4 -14 -2 -57 -14
-98 -35 -123 -70 -231 -79 -246 -11 -17 -31 -6 -31 17 0 10 -9 34 -19 53 -11
20 -27 62 -36 93 -10 34 -22 56 -31 56 -8 0 -14 -8 -14 -18 0 -33 -35 -117
-68 -162 -59 -80 -77 -77 -87 20 -4 30 -13 89 -20 130 -22 116 -24 154 -13
168 6 7 13 11 15 9 2 -3 13 -58 24 -123z"/>
<path d="M3020 535 c-6 -8 -27 -19 -47 -26 -30 -10 -37 -9 -57 10 -17 16 -35
21 -79 21 -65 0 -76 -11 -46 -41 21 -21 22 -27 15 -148 -4 -69 -10 -144 -15
-167 -9 -48 0 -79 29 -94 27 -14 57 -5 77 26 12 18 16 55 18 147 2 67 4 128 4
135 1 19 45 14 71 -8 26 -22 42 -25 71 -10 15 9 19 22 19 66 0 30 -4 63 -10
73 -13 25 -36 33 -50 16z m-131 -39 c21 -26 71 -28 108 -5 40 25 51 18 53 -31
4 -68 -7 -79 -40 -37 -14 18 -27 22 -71 22 l-54 0 -1 -108 c-1 -59 -5 -132 -9
-163 -6 -49 -9 -55 -28 -52 -20 3 -22 7 -17 53 3 28 5 111 5 185 0 78 4 138
10 142 15 12 31 9 44 -6z"/>
<path d="M3224 536 c-67 -29 -98 -111 -97 -257 0 -83 4 -100 24 -132 33 -50
75 -71 129 -64 87 11 129 92 137 262 4 83 1 106 -14 134 -33 63 -109 87 -179
57z m109 -52 c6 -11 12 -12 21 -5 33 28 47 -140 21 -244 -22 -87 -33 -104 -77
-116 -33 -8 -45 -7 -71 8 -54 32 -68 73 -63 183 5 103 15 142 49 178 19 20 28
23 67 17 25 -4 49 -13 53 -21z"/>
<path d="M3238 453 c-28 -31 -38 -72 -39 -160 -1 -93 13 -128 56 -139 37 -9
50 -1 75 53 33 67 35 188 4 230 -26 34 -73 42 -96 16z m77 -33 c13 -21 11
-136 -3 -183 -16 -55 -34 -67 -63 -41 -17 16 -20 29 -18 103 2 111 10 131 48
131 16 0 33 -5 36 -10z"/>
<path d="M6517 510 c-50 -44 -75 -111 -83 -222 -8 -107 2 -136 58 -183 30 -26
37 -27 106 -23 63 4 77 9 102 33 38 36 55 86 40 115 -16 30 -48 24 -83 -15
-37 -42 -77 -47 -101 -13 -37 52 -5 84 73 73 59 -8 96 6 121 47 30 50 26 112
-10 171 l-30 47 -80 0 c-74 0 -82 -2 -113 -30z m168 -8 c51 -36 64 -144 22
-186 -21 -21 -28 -22 -97 -15 -80 8 -97 1 -100 -36 -7 -71 27 -115 89 -115 34
0 45 5 68 35 15 19 31 35 36 35 14 0 6 -55 -12 -79 -15 -20 -30 -25 -80 -29
-73 -5 -105 11 -128 66 -35 83 -4 266 52 310 24 19 130 29 150 14z"/>
<path d="M6553 443 c-59 -66 -35 -93 75 -83 50 4 58 8 66 31 7 21 4 33 -13 58
-33 46 -82 44 -128 -6z m109 -18 c6 -14 9 -27 7 -29 -2 -2 -26 -6 -52 -9 -56
-5 -71 11 -42 43 26 29 73 26 87 -5z"/>
<path d="M1922 512 c-41 -4 -105 -66 -123 -120 -8 -21 -13 -86 -14 -149 0
-109 1 -113 27 -140 23 -23 38 -28 93 -31 87 -6 118 8 145 65 41 87 3 130 -60
68 -49 -48 -80 -46 -98 8 -6 22 -10 43 -6 48 7 12 54 11 91 -2 25 -8 37 -7 64
9 35 19 46 43 48 103 1 38 -21 103 -38 114 -24 14 -99 30 -129 27z m96 -56
c38 -38 44 -155 8 -169 -8 -3 -29 -2 -48 3 -18 5 -51 10 -73 12 -35 3 -40 0
-49 -23 -12 -35 0 -95 25 -120 25 -25 83 -17 120 17 33 31 43 30 34 -3 -14
-61 -30 -73 -96 -73 -53 0 -64 4 -88 28 -36 35 -45 93 -31 192 12 85 48 156
83 163 41 9 91 -2 115 -27z"/>
<path d="M1920 443 c-32 -22 -40 -33 -40 -61 0 -28 29 -40 94 -40 54 0 65 13
46 58 -21 52 -62 69 -100 43z m68 -50 c3 -20 -1 -23 -27 -23 -33 0 -46 13 -37
36 9 25 60 14 64 -13z"/>
<path d="M9391 223 c-29 -25 -33 -100 -6 -119 22 -16 71 -10 93 11 8 7 14 33
14 60 0 29 -6 51 -14 56 -22 14 -65 10 -87 -8z m53 -19 c20 -8 21 -48 1 -64
-22 -19 -45 -5 -45 28 0 40 11 49 44 36z"/>
<path d="M3992 188 c-17 -17 -15 -83 3 -98 18 -15 88 -8 110 10 17 14 19 53 5
81 -8 15 -21 19 -58 19 -27 0 -53 -5 -60 -12z m86 -45 c-2 -22 -9 -29 -30 -31
-24 -3 -28 0 -28 21 0 30 7 37 37 37 21 0 24 -4 21 -27z"/>
</g>
</svg>
