<?xml version="1.0" standalone="no"?>
<!DOCTYPE svg PUBLIC "-//W3C//DTD SVG 20010904//EN"
 "http://www.w3.org/TR/2001/REC-SVG-20010904/DTD/svg10.dtd">
<svg version="1.0" xmlns="http://www.w3.org/2000/svg"
 width="1000.000000pt" height="718.000000pt" viewBox="0 0 1000.000000 718.000000"
 preserveAspectRatio="xMidYMid meet">
<metadata>
Created by potrace 1.16, written by Peter Selinger 2001-2019
</metadata>
<g transform="translate(0.000000,718.000000) scale(0.100000,-0.100000)"
fill="#000000" stroke="none">
<path d="M6695 7028 c-27 -5 -79 -15 -115 -24 -36 -8 -74 -14 -85 -13 -33 1
-115 -22 -115 -32 0 -5 6 -11 13 -13 133 -40 164 -51 177 -65 33 -35 52 -43
117 -48 37 -3 75 -9 83 -13 8 -4 41 -11 72 -14 33 -4 68 -16 82 -27 14 -11 47
-30 75 -42 35 -16 62 -39 95 -81 42 -55 54 -76 100 -178 9 -21 21 -38 27 -38
5 0 15 -12 21 -27 7 -16 18 -35 25 -44 8 -9 16 -28 19 -43 2 -14 22 -63 44
-108 22 -46 40 -86 40 -90 0 -4 17 -33 38 -65 21 -32 47 -74 58 -93 10 -19 29
-49 41 -67 12 -19 31 -63 43 -100 17 -54 19 -71 10 -94 -13 -31 -10 -119 10
-232 13 -74 13 -78 -7 -105 -72 -93 -113 -172 -119 -226 -4 -50 -2 -59 20 -81
20 -20 35 -25 75 -25 l50 0 -23 -25 c-13 -14 -31 -46 -41 -72 -10 -27 -27 -61
-37 -78 -10 -16 -18 -37 -18 -45 0 -8 -18 -41 -40 -74 -45 -65 -46 -62 -25 51
16 83 13 129 -12 179 -15 29 -15 35 0 73 11 25 17 70 17 115 0 40 7 93 15 116
9 26 16 86 18 149 l2 106 -39 64 c-22 36 -56 82 -77 103 -20 21 -62 86 -93
146 -84 162 -150 248 -238 312 -52 38 -94 77 -158 146 -63 68 -172 160 -198
168 -9 3 -44 10 -77 15 -33 6 -71 20 -85 31 -14 11 -54 35 -90 53 -36 18 -76
40 -90 49 -14 9 -43 20 -65 24 -22 4 -55 15 -73 24 -25 14 -47 16 -96 13 -47
-4 -72 -1 -99 12 -32 15 -47 16 -109 7 -81 -12 -121 -39 -102 -70 14 -21 90
-50 169 -64 33 -6 66 -15 73 -21 16 -13 29 0 14 15 -15 15 -81 38 -112 38 -29
1 -115 41 -115 54 0 21 124 31 177 14 28 -9 64 -12 103 -8 51 5 66 2 100 -17
22 -13 54 -23 71 -23 17 0 43 -9 57 -20 14 -11 31 -20 37 -20 7 0 -5 -19 -26
-42 -22 -24 -48 -65 -58 -93 -34 -97 -39 -105 -51 -105 -6 0 -22 9 -35 20 -13
11 -29 20 -37 20 -7 0 -16 7 -19 15 -5 12 -10 13 -20 4 -21 -17 -18 -22 30
-42 76 -31 80 -41 50 -128 -14 -41 -26 -97 -28 -124 -1 -28 -12 -75 -24 -105
-45 -117 -72 -219 -67 -257 3 -21 8 -74 11 -118 3 -44 9 -94 15 -111 5 -17 9
-44 8 -60 -1 -16 8 -49 19 -74 12 -25 22 -54 22 -65 0 -36 53 -159 82 -193 15
-18 28 -36 28 -41 0 -5 43 -52 95 -105 52 -54 95 -101 95 -106 0 -5 17 -18 38
-29 21 -11 44 -27 51 -35 13 -16 67 -46 82 -46 5 0 31 -13 59 -30 28 -16 59
-30 69 -30 10 0 24 -7 32 -16 29 -36 63 -44 114 -28 52 15 92 38 113 63 33 41
62 92 62 111 0 11 5 20 11 20 5 0 9 8 8 18 -3 33 1 40 21 35 13 -4 20 0 20 10
0 13 27 27 56 27 7 0 34 -32 60 -71 l49 -71 0 -91 c0 -109 -13 -146 -65 -182
l-37 -26 -79 21 c-85 22 -154 20 -206 -6 -15 -8 -34 -11 -42 -8 -11 4 -16 0
-16 -11 0 -12 -5 -15 -17 -10 -21 8 -25 9 -78 6 -27 -1 -35 -4 -26 -10 7 -5
21 -6 31 -4 35 9 34 -19 -1 -52 -31 -28 -64 -89 -142 -265 -10 -22 -16 -28
-16 -16 -1 12 -6 16 -17 12 -9 -3 -18 -6 -20 -6 -13 0 -1 -20 16 -25 33 -11
25 -50 -15 -75 -33 -21 -36 -21 -96 -6 -68 18 -109 20 -109 7 0 -5 21 -11 48
-14 26 -3 66 -9 90 -13 32 -5 47 -3 61 10 27 24 31 10 9 -34 -20 -39 -20 -39
-76 -38 -35 0 -64 7 -74 16 -24 20 -23 0 0 -21 13 -12 31 -15 65 -12 29 3 47
1 47 -6 0 -25 -89 -113 -160 -159 -43 -27 -80 -58 -83 -69 -6 -26 -44 -49
-105 -63 -55 -14 -66 -24 -29 -30 26 -4 117 42 165 84 51 44 63 21 36 -69 -9
-33 11 -28 25 6 7 16 10 43 6 63 -6 30 -3 37 19 52 28 18 29 16 26 -26 -1 -16
3 -28 8 -28 5 0 9 19 10 42 2 47 25 79 43 61 6 -6 13 -29 16 -52 3 -22 10 -41
16 -41 9 0 5 51 -8 97 -6 18 0 25 34 43 36 18 42 18 46 5 3 -8 7 -22 10 -31 3
-8 9 -12 15 -9 7 4 7 12 0 25 -5 10 -10 26 -10 34 0 21 52 47 71 35 20 -13 29
-11 23 5 -3 8 -1 16 4 19 4 3 66 7 137 8 104 1 137 5 174 21 47 21 114 25 199
12 25 -4 42 -2 42 4 0 12 -58 23 -115 23 -35 0 -38 2 -21 12 103 65 112 73
140 133 l29 62 141 6 c77 4 206 9 286 12 236 8 355 18 350 29 -6 12 -61 13
-146 3 -33 -4 -141 -10 -240 -13 -98 -3 -192 -8 -209 -10 -16 -2 -64 -4 -105
-6 l-75 -2 1 34 c1 49 13 94 40 155 21 49 27 54 56 56 18 0 40 1 48 2 8 1 13
6 10 11 -3 6 -20 8 -39 7 -22 -3 -31 0 -27 7 4 6 13 11 20 11 13 0 86 103 86
121 0 6 7 21 16 34 9 14 12 25 8 26 -5 0 1 4 14 9 14 6 22 18 22 34 0 38 35
108 70 141 18 17 40 49 50 72 26 58 52 63 90 19 50 -56 78 -56 220 1 25 10 52
23 61 28 30 19 99 117 99 141 0 13 9 28 19 34 11 5 29 25 40 44 42 68 53 123
57 301 4 186 9 157 -70 391 -36 107 -51 136 -111 224 -49 72 -68 125 -90 251
-12 65 -81 164 -130 185 -18 7 -60 36 -92 63 -33 26 -72 55 -89 64 -31 17 -93
76 -161 154 -64 74 -138 114 -231 125 -107 12 -124 15 -152 22 -85 21 -214 35
-218 24 -4 -10 -37 -10 -82 -2 -22 5 -28 9 -18 15 16 11 -18 10 -87 -3z m203
-28 c39 1 77 -2 84 -6 7 -4 28 -9 48 -11 19 -2 46 -8 60 -13 51 -21 167 -37
185 -27 12 7 27 5 50 -6 40 -19 136 -108 195 -181 25 -30 48 -55 52 -56 9 0
170 -110 178 -121 3 -3 24 -16 47 -28 59 -29 116 -117 128 -196 18 -114 37
-167 91 -252 38 -58 67 -118 85 -176 15 -48 35 -100 45 -115 21 -30 43 -98 51
-154 4 -30 2 -38 -11 -38 -9 0 -16 -3 -16 -7 0 -13 -109 -127 -115 -121 -4 3
8 34 25 68 40 79 52 110 41 110 -4 0 -25 -35 -45 -77 -20 -43 -40 -85 -45 -93
-4 -8 -31 -27 -59 -41 -29 -14 -58 -31 -64 -37 -7 -7 -15 -12 -18 -12 -9 0 2
235 11 238 5 2 9 13 9 25 1 33 20 61 73 107 58 51 108 140 79 140 -5 0 -17
-18 -27 -40 -22 -48 -35 -51 -36 -7 l-1 32 -13 -35 c-7 -19 -14 -43 -14 -53
-1 -10 -17 -33 -36 -53 -19 -19 -35 -43 -35 -54 0 -10 -4 -22 -10 -25 -6 -4
-10 10 -10 35 0 62 -20 181 -36 212 -8 15 -14 41 -14 59 0 28 2 31 24 25 14
-3 28 -2 31 4 4 6 -5 10 -19 10 -14 0 -26 3 -26 7 0 4 19 24 42 45 31 28 37
38 24 38 -13 0 -16 5 -11 18 4 9 10 41 13 70 2 28 9 52 14 52 6 0 5 7 -3 16
-18 21 -27 3 -35 -72 -7 -62 -30 -122 -63 -163 l-19 -24 -11 21 c-6 11 -11 26
-11 31 0 6 -12 35 -26 64 -14 28 -31 68 -39 87 -7 19 -27 57 -44 85 -24 37
-31 44 -31 27 0 -12 5 -22 10 -22 6 0 10 -6 10 -13 0 -7 8 -22 18 -33 15 -16
42 -86 42 -107 0 -12 -36 7 -83 45 -27 21 -53 38 -58 38 -4 0 -22 14 -39 30
-17 17 -38 30 -46 30 -18 0 -9 -20 9 -20 7 0 20 -12 31 -26 15 -22 16 -28 5
-35 -10 -6 -4 -9 19 -9 38 0 39 -6 11 -37 -22 -22 -22 -23 -4 -70 10 -26 22
-52 26 -57 15 -17 10 17 -10 61 l-19 41 23 22 c26 24 24 24 76 -8 28 -17 39
-33 48 -65 6 -23 16 -62 22 -87 6 -25 14 -39 16 -32 3 7 0 26 -6 42 -6 18 -7
40 -2 53 8 20 10 18 20 -18 6 -22 20 -55 31 -73 35 -57 58 -144 64 -247 4 -55
9 -112 12 -127 8 -41 -10 -34 -48 20 -34 46 -50 58 -115 82 -20 8 -34 21 -38
38 -4 18 -9 22 -14 13 -15 -24 1 -53 38 -67 82 -32 100 -46 117 -89 9 -24 14
-51 11 -61 -3 -13 -5 -10 -6 9 0 15 -6 27 -11 27 -6 0 -8 -17 -5 -42 l4 -43
-10 48 c-6 26 -15 47 -19 47 -4 0 -4 -17 1 -37 12 -52 11 -133 -1 -133 -5 0
-10 -11 -10 -24 0 -14 -4 -28 -10 -31 -5 -3 -10 -26 -10 -51 0 -24 -4 -44 -10
-44 -5 0 -10 9 -10 19 0 11 -4 22 -9 25 -4 3 -11 28 -15 56 -4 27 -11 50 -17
50 -11 0 -8 -47 6 -117 8 -38 -3 -42 -30 -13 -19 21 -45 27 -45 11 0 -13 68
-54 78 -47 5 3 18 -2 30 -10 33 -23 30 -82 -6 -120 -33 -33 -57 -74 -44 -74 5
0 19 12 31 26 17 19 25 23 31 14 5 -9 9 -9 14 -1 4 6 4 16 1 22 -8 12 28 41
64 51 14 4 43 3 66 -2 43 -10 169 10 189 30 12 12 56 13 56 2 0 -5 -9 -17 -20
-27 -11 -10 -20 -26 -20 -36 0 -23 -79 -109 -100 -109 -9 0 -20 -4 -25 -9 -15
-13 -105 -41 -133 -41 -13 0 -41 14 -62 30 -29 23 -48 30 -80 30 -34 0 -40 -3
-32 -13 9 -10 5 -22 -16 -47 -43 -53 -96 -102 -100 -91 -2 6 13 40 32 75 20
36 36 72 36 80 0 8 14 20 30 28 17 7 30 19 30 27 0 9 -6 11 -17 6 -91 -39
-135 -41 -168 -9 -20 20 -11 109 14 139 10 11 32 44 50 73 32 51 51 65 51 40
1 -31 18 21 24 72 6 46 2 66 -20 120 -23 56 -25 73 -19 120 11 77 7 169 -9
199 -43 85 -80 149 -97 167 -11 11 -28 36 -37 55 -10 19 -23 43 -29 54 -25 47
-43 97 -37 106 3 5 -5 19 -19 29 -14 11 -27 34 -31 53 -3 18 -23 62 -45 98
-21 37 -43 81 -50 99 -6 18 -44 77 -84 131 -60 82 -79 100 -117 114 -25 10
-52 26 -60 35 -20 25 -157 60 -230 60 -47 0 -69 6 -107 28 -55 32 -130 62
-156 62 -9 0 -17 7 -17 15 0 11 12 15 44 15 25 0 57 5 73 12 41 17 129 26 198
22 33 -3 93 -4 133 -4z m-529 -474 c7 -8 14 -45 17 -83 3 -37 9 -81 14 -96 10
-32 2 -90 -11 -81 -5 3 -9 -5 -9 -18 0 -13 -9 -36 -20 -53 -12 -16 -30 -51
-42 -78 -11 -26 -27 -51 -35 -55 -16 -10 -19 -43 -9 -137 l7 -70 -30 35 c-25
27 -31 43 -31 78 0 29 -4 41 -11 36 -6 -3 -9 -19 -5 -35 3 -16 1 -29 -4 -29
-14 0 -24 41 -23 90 1 43 1 43 -9 -13 l-10 -58 49 -52 c56 -59 66 -81 88 -192
8 -44 24 -91 34 -105 16 -23 49 -115 65 -184 4 -16 18 -45 32 -65 31 -45 30
-50 -5 -49 -25 1 -30 6 -36 35 -3 18 -10 31 -15 28 -5 -3 -5 -19 1 -38 5 -17
9 -33 9 -33 0 -1 -14 -7 -31 -13 -21 -7 -37 -7 -49 -1 -10 6 -34 10 -53 10
-25 0 -39 6 -50 23 -8 12 -18 19 -23 15 -13 -14 28 -47 65 -53 20 -4 47 -11
59 -16 l24 -9 -36 -40 c-43 -48 -49 -69 -6 -23 16 17 34 33 40 35 6 2 12 12
14 23 2 11 14 22 31 27 35 9 36 8 45 -39 l8 -38 1 41 c1 29 6 44 17 48 9 4 18
5 18 4 1 -2 9 -14 18 -28 8 -14 18 -54 21 -89 3 -35 9 -66 13 -70 4 -3 4 18 1
47 -3 28 -4 52 -1 52 16 0 85 -43 97 -60 8 -11 35 -36 60 -56 39 -31 45 -39
36 -55 -9 -18 -4 -82 9 -104 4 -5 9 1 13 15 l7 25 1 -24 c1 -14 -6 -33 -16
-43 -22 -24 -2 -23 31 3 14 11 30 18 35 14 6 -3 19 0 30 7 15 9 23 9 35 -1 18
-15 21 -42 7 -57 -11 -11 -15 -43 -12 -99 2 -32 4 -36 11 -20 5 11 9 40 9 63
1 35 5 45 21 49 22 6 26 18 9 29 -6 3 -8 15 -6 26 4 14 2 18 -9 14 -20 -7 -31
23 -13 35 8 5 29 9 47 9 20 0 31 4 27 10 -3 6 -19 10 -34 10 -16 0 -40 9 -53
20 -14 10 -47 28 -74 39 -32 12 -48 24 -46 34 1 9 -5 18 -15 21 -24 8 -203
180 -203 195 0 6 -11 17 -25 23 -14 6 -25 19 -25 28 0 10 -7 31 -15 46 -18 34
-20 97 -4 127 16 30 60 66 82 67 10 0 20 7 23 15 4 8 10 15 15 15 10 0 65 -82
99 -149 26 -48 107 -137 143 -156 30 -15 100 -29 139 -28 39 2 54 -20 39 -55
-16 -34 -73 -111 -83 -112 -5 0 -8 24 -8 54 0 56 -7 89 -19 82 -3 -2 -4 -39
-1 -83 4 -70 9 -84 45 -139 54 -83 79 -93 144 -60 37 19 58 24 83 19 51 -9
103 -39 132 -75 14 -18 31 -39 37 -46 33 -40 38 -168 10 -249 -19 -57 -12 -74
10 -20 7 17 18 35 23 39 25 18 24 5 -5 -42 -17 -27 -29 -58 -26 -67 3 -14 7
-11 16 11 7 17 21 36 32 44 11 8 35 46 53 86 34 73 77 127 61 76 -4 -14 -11
-29 -15 -35 -4 -5 -10 -26 -14 -45 -3 -19 -17 -48 -31 -63 -14 -15 -22 -27
-18 -27 4 -1 -3 -7 -16 -14 -13 -7 -32 -29 -40 -47 -13 -27 -22 -34 -46 -34
-25 -1 -31 -6 -39 -33 -6 -23 -14 -32 -27 -30 -10 2 -25 -6 -33 -17 -14 -19
-15 -19 -34 -2 -20 18 -21 18 -41 -2 -12 -12 -23 -21 -26 -21 -10 0 -5 36 8
49 10 11 8 12 -10 7 -27 -9 -40 11 -21 31 11 10 25 12 51 8 l37 -7 -23 -19
c-22 -19 -22 -19 16 -2 20 9 37 20 37 25 0 4 6 8 13 8 40 0 101 164 91 245
-10 82 -28 113 -125 229 -4 5 -30 3 -58 -4 -69 -16 -97 -51 -156 -195 -16 -39
-17 -40 -33 -19 -9 11 -24 31 -33 45 -9 13 -20 21 -23 18 -4 -4 5 -24 19 -45
14 -20 24 -42 22 -48 -2 -6 -21 -19 -42 -29 -43 -21 -64 -16 -150 38 -28 18
-76 42 -108 53 -51 20 -187 114 -187 130 0 10 -90 101 -135 137 -20 16 -39 42
-42 56 -3 15 -13 29 -23 32 -27 7 -47 53 -81 189 -17 67 -34 129 -39 138 -16
31 -42 303 -32 345 22 91 54 199 66 224 8 14 19 57 24 95 6 37 14 71 17 74 7
8 63 -56 80 -93 l14 -30 1 36 c0 28 -5 38 -24 47 -21 9 -23 15 -18 61 3 34 1
51 -7 51 -6 0 -11 -16 -11 -36 0 -21 -4 -33 -10 -29 -17 10 -11 48 16 116 14
35 32 86 40 112 15 48 59 106 80 107 6 0 17 -6 23 -14z m88 -16 c15 -16 34
-30 40 -30 7 0 13 -6 13 -12 0 -18 40 -82 46 -75 3 3 -2 17 -12 32 -25 38 -9
48 54 34 29 -7 52 -16 52 -20 0 -4 22 -21 49 -37 27 -17 63 -50 79 -74 25 -37
85 -96 127 -126 16 -12 116 -95 142 -118 13 -12 23 -26 23 -31 0 -5 10 -18 21
-29 35 -31 80 -103 109 -172 15 -35 51 -93 79 -129 79 -99 102 -141 122 -221
23 -89 24 -164 5 -195 -8 -12 -20 -71 -27 -132 -16 -141 -22 -159 -52 -149
-12 4 -24 10 -27 14 -3 3 -13 9 -22 13 -11 4 -18 17 -18 31 0 13 -4 26 -10 28
-5 2 -11 66 -13 143 -4 109 -1 148 10 178 10 25 19 35 27 29 6 -5 25 -1 46 9
38 20 28 25 -16 9 -15 -6 -28 -9 -30 -7 -2 2 5 29 16 60 11 31 19 71 19 89 -1
20 -3 25 -6 13 -20 -92 -59 -195 -74 -195 -4 0 -20 37 -37 83 -52 139 -91 227
-112 254 -11 14 -20 32 -20 40 0 8 -35 50 -79 93 -55 55 -81 90 -89 117 -12
45 -76 201 -87 211 -9 9 5 -59 15 -73 4 -5 20 -44 35 -85 32 -84 57 -123 131
-195 27 -27 56 -66 64 -85 8 -19 21 -43 29 -52 16 -19 51 -106 51 -127 0 -10
-12 -4 -32 16 -27 25 -43 32 -86 35 -51 3 -67 -4 -36 -16 9 -3 33 -6 54 -6 30
0 44 -6 63 -30 14 -16 32 -30 40 -30 9 0 26 -34 46 -92 29 -85 32 -105 34
-236 1 -98 -1 -142 -9 -142 -6 0 -25 -7 -43 -16 -17 -9 -39 -17 -48 -18 -9 -2
-19 -8 -21 -14 -6 -19 31 -13 58 8 32 25 70 26 77 2 2 -10 22 -33 44 -51 40
-35 71 -91 84 -152 7 -34 7 -34 -24 12 -66 98 -117 130 -211 130 -52 1 -60 3
-60 19 0 11 11 31 25 46 22 24 23 29 11 43 -8 9 -17 32 -21 51 -4 21 -25 56
-54 88 -46 52 -50 54 -115 62 -101 12 -166 63 -226 175 -18 33 -57 93 -86 134
-30 40 -54 83 -54 95 0 12 -10 49 -21 81 -14 40 -23 92 -25 155 -2 52 -10 118
-18 145 -7 28 -12 52 -10 54 7 8 84 -74 84 -90 0 -10 13 -28 29 -41 36 -28 96
-105 155 -195 24 -38 63 -86 87 -109 42 -39 65 -65 119 -135 31 -40 62 -119
47 -119 -5 0 -3 -8 6 -18 15 -17 15 -20 1 -41 -13 -19 -14 -28 -5 -48 l12 -26
17 24 c9 13 16 32 15 41 0 10 -1 32 -2 48 -1 20 -6 30 -16 30 -10 0 -15 10
-15 28 0 15 -8 39 -18 54 -36 56 -99 133 -143 177 -26 25 -64 73 -85 106 -43
68 -138 183 -166 203 -10 7 -25 28 -32 46 -8 19 -40 59 -71 90 -45 44 -58 64
-62 95 -7 48 9 59 43 32 15 -12 33 -21 40 -21 7 0 18 -9 24 -20 6 -11 31 -30
56 -41 24 -12 47 -25 50 -30 3 -5 10 -9 17 -9 13 0 -19 31 -78 75 -22 16 -45
36 -51 44 -6 8 -18 12 -27 8 -8 -3 -21 1 -27 9 -7 8 -20 14 -30 14 -22 0 -30
19 -37 94 -5 52 -3 58 11 53 17 -7 22 8 6 18 -5 3 -10 10 -10 16 0 17 18 9 47
-21z m-47 -284 c0 -2 14 -50 30 -106 20 -65 30 -121 29 -154 -2 -53 16 -166
31 -195 28 -56 52 -121 48 -131 -2 -7 -19 -18 -37 -26 l-33 -14 5 48 c6 44 5
45 -4 12 -6 -19 -23 -61 -37 -93 l-26 -58 -18 23 c-20 25 -53 91 -62 124 -4
11 1 40 9 64 8 23 15 62 15 85 0 37 6 48 41 84 23 23 39 44 36 48 -4 3 -16 -6
-28 -20 -40 -52 -52 -27 -18 37 11 21 18 43 16 49 -7 22 -57 -102 -58 -145 -1
-60 -19 -148 -30 -148 -5 0 -9 6 -10 13 0 6 -2 21 -5 32 -2 11 -7 75 -10 142
-8 143 -2 163 62 217 25 21 43 41 40 44 -3 3 -15 -3 -26 -13 -11 -10 -22 -16
-25 -13 -7 7 45 98 56 98 5 0 9 -2 9 -4z m1786 -753 c-9 -178 -37 -270 -77
-258 -10 3 -32 -1 -49 -10 -17 -9 -43 -15 -57 -13 l-27 3 32 35 c18 19 32 38
32 43 0 5 8 6 19 2 21 -6 51 3 51 17 0 5 -5 6 -10 3 -6 -4 -18 -4 -26 -1 -12
5 -11 12 10 43 14 20 23 39 21 42 -6 5 -21 -14 -72 -89 -69 -104 -101 -125
-166 -111 -23 6 -53 8 -65 4 -29 -7 -28 3 8 79 16 34 30 68 30 75 0 20 81 78
149 107 69 29 119 67 166 128 16 21 31 38 33 38 3 0 1 -62 -2 -137z m-330 32
c2 -51 -33 -185 -48 -185 -4 0 -8 -7 -8 -15 0 -17 -31 -85 -39 -85 -10 0 -28
45 -23 58 2 6 10 8 19 5 14 -6 15 2 10 61 -4 42 -3 65 3 61 6 -3 11 -21 11
-38 1 -27 3 -25 10 13 4 25 8 68 9 95 0 40 3 46 11 32 6 -10 8 -25 5 -32 -3
-8 0 -17 6 -21 7 -5 9 10 6 50 -4 47 -2 56 11 54 10 -2 15 -17 17 -53z m-436
0 c0 -8 -2 -15 -4 -15 -2 0 -6 7 -10 15 -3 8 -1 15 4 15 6 0 10 -7 10 -15z
m-913 -236 c17 -27 28 -49 23 -49 -9 0 -70 80 -70 92 0 19 17 3 47 -43z m528
-77 c20 -47 21 -82 3 -117 -8 -16 -13 -36 -11 -43 15 -41 -59 -47 -81 -7 -6
11 -21 33 -34 48 l-22 29 20 29 c12 15 25 31 31 34 5 4 18 24 30 46 17 34 23
39 35 28 8 -7 22 -28 29 -47z m-253 -167 c49 -20 54 -32 26 -56 l-23 -21 -6
29 -5 28 -8 -33 c-9 -38 -30 -38 -34 1 -2 18 -8 24 -18 20 -10 -4 -14 3 -14
27 0 36 8 36 82 5z m585 -62 c18 -44 19 -139 3 -219 -18 -86 -34 -79 -26 12 3
43 10 80 16 82 15 5 12 26 -10 89 -23 66 -24 73 -9 73 5 0 17 -17 26 -37z
m-378 -462 c9 -6 5 -8 -13 -8 -15 0 -29 3 -32 8 -7 11 27 11 45 0z m61 -9 c0
-5 -6 -16 -13 -27 -10 -13 -16 -15 -21 -6 -4 6 -2 18 4 26 13 16 30 20 30 7z
m-76 -76 c17 0 24 -6 21 -13 -2 -7 2 -13 9 -13 8 0 17 7 20 16 7 19 47 15 54
-5 3 -10 0 -12 -12 -8 -10 4 -16 1 -16 -8 0 -9 10 -15 24 -15 26 0 36 -16 36
-57 0 -26 9 -27 14 -1 10 50 19 69 29 59 7 -7 1 -28 -18 -66 -34 -66 -47 -78
-45 -39 4 50 1 56 -22 52 -28 -4 -38 -45 -13 -54 12 -5 14 -15 10 -43 -6 -34
-5 -35 8 -12 l14 23 21 -27 c23 -29 21 -45 -4 -45 -9 0 -29 -14 -46 -31 -59
-58 -148 -109 -193 -109 -23 0 -46 -5 -52 -11 -7 -7 -40 -11 -80 -10 -62 1
-71 -1 -103 -29 -19 -16 -41 -30 -48 -30 -7 0 -24 -7 -37 -16 -44 -29 -45 -10
-2 38 51 56 80 106 70 121 -4 8 -1 7 9 -1 14 -11 19 -8 38 19 16 21 25 27 30
19 6 -9 12 -6 20 11 10 17 10 24 1 27 -21 7 -11 32 21 48 22 11 33 13 36 5 2
-6 10 -11 18 -11 9 0 13 4 9 9 -3 5 -1 12 4 16 11 6 3 36 -12 46 -5 4 7 13 27
20 39 14 50 33 13 24 -12 -3 -34 -2 -47 4 -22 8 -22 10 -5 11 11 0 32 17 48
39 25 36 30 39 56 31 27 -7 29 -6 35 23 7 30 8 31 21 13 7 -10 25 -19 39 -20z
m186 -136 c0 -22 -5 -30 -17 -29 -11 0 -13 3 -5 6 6 2 12 16 12 29 0 13 2 24
5 24 3 0 5 -13 5 -30z m-4 -72 c-3 -13 -6 -30 -6 -39 0 -8 -7 -24 -15 -35 -14
-18 -14 -17 -5 9 5 16 10 42 10 58 0 16 5 29 11 29 7 0 9 -9 5 -22z m-36 -108
c0 -5 -5 -10 -11 -10 -5 0 -7 5 -4 10 3 6 8 10 11 10 2 0 4 -4 4 -10z m-80
-35 c-19 -19 -40 -35 -48 -35 -8 0 5 16 29 34 56 45 61 45 19 1z m-459 -18
c-8 -8 -11 -7 -11 4 0 20 13 34 18 19 3 -7 -1 -17 -7 -23z m272 -67 c4 -17 0
-20 -24 -20 -28 0 -28 1 -12 20 10 11 20 20 24 20 4 0 9 -9 12 -20z"/>
<path d="M6630 6940 c0 -11 71 -18 100 -9 22 6 20 8 -15 9 -22 2 -50 4 -62 5
-13 1 -23 -1 -23 -5z"/>
<path d="M6945 6898 c17 -5 47 -9 67 -8 39 1 98 -23 98 -41 0 -14 51 -32 63
-20 5 5 -15 21 -52 40 -47 23 -78 32 -134 35 -58 4 -66 3 -42 -6z"/>
<path d="M7310 6854 c0 -15 9 -42 21 -60 12 -20 19 -46 17 -65 l-3 -31 -40 31
c-22 17 -48 38 -57 47 -10 10 -20 15 -23 13 -2 -3 6 -15 18 -26 99 -95 108
-106 102 -130 -3 -14 -1 -31 6 -39 18 -22 31 -17 19 7 -7 11 -10 22 -8 24 4 4
118 -99 118 -108 0 -3 -13 -1 -29 4 -21 7 -36 7 -50 0 -11 -6 -40 -11 -66 -11
-30 0 -44 -4 -40 -11 4 -5 19 -8 33 -5 15 3 33 2 41 -3 11 -7 10 -14 -8 -40
-12 -17 -18 -31 -13 -31 6 0 19 18 29 40 21 46 33 53 80 44 26 -5 33 -10 28
-23 -5 -13 -4 -14 6 -3 7 6 16 12 21 12 6 0 51 -56 101 -125 5 -7 10 -6 15 3
8 11 7 64 0 227 -1 11 2 28 7 39 6 14 5 18 -6 14 -14 -5 -15 -25 -8 -176 3
-60 -15 -74 -40 -31 -12 19 -49 61 -83 93 -148 139 -137 125 -133 174 6 55 41
116 63 107 12 -4 13 -3 2 10 -15 18 -30 20 -30 2 0 -7 -7 -22 -15 -33 -15 -19
-15 -19 -35 5 -11 13 -20 36 -20 52 0 16 -4 29 -10 29 -5 0 -10 -12 -10 -26z"/>
<path d="M6924 6855 c21 -16 78 -19 111 -5 14 6 7 8 -25 7 -25 -1 -58 1 -75 6
-28 7 -29 6 -11 -8z"/>
<path d="M7160 6751 c-21 -7 -19 -8 20 -13 43 -5 59 -3 49 6 -11 10 -46 13
-69 7z"/>
<path d="M7203 6683 c-83 -6 -62 -18 32 -18 47 0 85 3 85 6 0 9 -28 19 -48 17
-9 -1 -41 -3 -69 -5z"/>
<path d="M7680 6548 c-17 -22 -27 -44 -24 -47 4 -3 9 0 11 7 3 7 10 18 17 25
16 16 39 57 31 57 -2 0 -18 -19 -35 -42z"/>
<path d="M7440 6440 c-1 -24 -1 -24 -15 -6 -8 11 -15 14 -15 7 0 -19 20 -51
32 -51 6 0 16 -7 23 -17 8 -11 14 -13 19 -5 4 7 2 12 -3 12 -6 0 -11 8 -11 18
-1 9 -7 28 -15 42 l-14 25 -1 -25z"/>
<path d="M7480 6450 c0 -17 44 -104 47 -94 2 6 -6 31 -17 57 -20 46 -30 58
-30 37z"/>
<path d="M7767 6438 c-3 -13 -15 -50 -26 -82 -23 -65 -26 -80 -12 -72 5 3 12
22 16 43 4 20 15 54 26 75 21 41 24 58 10 58 -5 0 -11 -10 -14 -22z"/>
<path d="M7520 6440 c0 -14 43 -80 53 -80 11 0 9 5 -14 50 -20 38 -39 52 -39
30z"/>
<path d="M7793 6373 c-13 -8 -23 -20 -23 -26 0 -5 8 -3 18 6 10 10 26 17 35
17 9 0 17 5 17 10 0 14 -22 11 -47 -7z"/>
<path d="M7465 6200 c-7 -12 12 -12 40 0 18 8 17 9 -7 9 -15 1 -30 -3 -33 -9z"/>
<path d="M7503 6135 c7 -39 37 -109 43 -102 8 7 -17 88 -34 112 -13 19 -14 18
-9 -10z"/>
<path d="M7600 6144 c0 -36 24 -104 42 -121 19 -17 19 -17 14 27 -6 59 -6 58
-15 36 -6 -16 -10 -11 -19 27 -12 47 -22 61 -22 31z"/>
<path d="M7674 6115 c3 -11 12 -47 21 -79 17 -67 29 -88 20 -36 -9 54 -27 114
-38 125 -6 6 -7 3 -3 -10z"/>
<path d="M7540 5993 c14 -2 36 -8 50 -13 14 -4 37 -11 53 -14 37 -8 34 -17
-14 -44 -22 -13 -38 -26 -35 -29 3 -3 25 6 50 21 55 32 64 32 110 1 41 -28 46
-29 46 -15 0 13 -114 72 -170 87 -25 7 -61 12 -80 11 -26 0 -29 -2 -10 -5z"/>
<path d="M7880 5911 c-6 -13 -6 -22 -1 -26 9 -5 31 24 31 39 0 14 -20 4 -30
-13z"/>
<path d="M7701 5873 c-7 -8 -10 -17 -7 -20 9 -9 29 13 25 25 -2 6 -10 3 -18
-5z"/>
<path d="M7657 5644 c-19 -10 -27 -21 -23 -31 3 -8 6 -28 6 -44 0 -16 4 -29 9
-29 5 0 7 17 5 38 -6 51 6 66 55 64 22 -1 43 3 46 8 10 16 -67 11 -98 -6z"/>
<path d="M7682 5568 c2 -27 0 -48 -4 -48 -11 0 -10 -48 1 -55 5 -3 12 3 14 12
3 11 5 6 6 -11 0 -16 4 -26 8 -22 14 14 2 140 -14 156 -13 13 -14 10 -11 -32z"/>
<path d="M7732 5480 c0 -38 4 -70 9 -70 5 0 9 32 9 70 0 39 -4 70 -9 70 -5 0
-9 -31 -9 -70z"/>
<path d="M6292 6373 c-20 -89 -24 -133 -13 -133 6 0 12 15 13 33 3 60 5 72 12
105 4 18 6 36 3 38 -3 3 -10 -17 -15 -43z"/>
<path d="M6177 5855 c-20 -14 -37 -30 -37 -36 0 -14 36 7 44 26 3 8 12 15 21
15 8 0 15 5 15 10 0 14 0 13 -43 -15z"/>
<path d="M6124 5734 c3 -9 6 -20 6 -25 0 -5 18 -21 40 -35 38 -25 39 -28 22
-40 -10 -7 -31 -16 -45 -19 -15 -4 -27 -12 -27 -17 0 -6 7 -7 16 -4 9 4 24 1
32 -6 13 -11 15 -10 9 4 -4 12 1 23 18 34 22 15 26 14 61 -10 36 -24 54 -26
54 -5 0 5 -9 9 -20 9 -11 0 -20 3 -20 8 0 4 -27 22 -61 41 -36 20 -64 43 -69
57 -5 13 -12 24 -16 24 -3 0 -3 -7 0 -16z"/>
<path d="M6201 5519 c-10 -18 -9 -21 8 -26 13 -3 21 -15 24 -37 3 -25 4 -23 5
12 1 26 -2 41 -8 37 -5 -3 -7 0 -4 8 9 24 -11 28 -25 6z"/>
<path d="M6622 5435 c0 -70 0 -70 8 -22 5 27 5 59 0 70 -6 16 -9 1 -8 -48z"/>
<path d="M6258 5435 c-3 -44 -1 -63 10 -70 7 -5 26 -20 40 -32 18 -15 28 -19
31 -11 2 7 -4 17 -14 23 -35 19 -56 46 -51 63 3 9 2 33 -3 52 -7 33 -8 32 -13
-25z"/>
<path d="M6530 5391 c0 -11 63 -52 69 -45 6 5 -49 53 -61 54 -5 0 -8 -4 -8 -9z"/>
<path d="M6661 5320 c-11 -22 -17 -40 -13 -40 10 0 45 70 39 77 -3 2 -14 -14
-26 -37z"/>
<path d="M6621 5298 c0 -26 4 -50 10 -53 5 -4 15 -18 20 -32 5 -14 12 -23 15
-20 3 3 -2 21 -11 39 -10 18 -21 51 -25 73 l-7 40 -2 -47z"/>
<path d="M6737 5245 c-14 -20 -15 -25 -4 -25 19 0 29 -38 21 -82 -4 -25 -3
-29 5 -18 11 15 12 150 2 150 -3 0 -14 -12 -24 -25z"/>
<path d="M6444 5192 c3 -28 9 -59 15 -69 9 -14 10 -9 4 22 -3 22 -7 50 -7 62
-1 12 -4 25 -8 29 -5 4 -6 -16 -4 -44z"/>
<path d="M6356 5214 c-18 -17 -22 -54 -6 -54 6 0 10 10 10 23 0 13 5 28 12 35
7 7 9 12 6 12 -4 0 -14 -7 -22 -16z"/>
<path d="M6552 5113 c-2 -41 -3 -43 -34 -43 -18 0 -46 -7 -62 -15 -15 -8 -38
-15 -49 -15 -17 0 -18 -3 -9 -12 10 -10 17 -10 33 1 12 7 46 15 76 18 29 3 56
10 59 14 10 17 24 9 25 -13 1 -18 3 -16 8 8 4 17 11 36 15 42 11 17 -9 15 -24
-3 -20 -24 -29 -18 -33 23 l-4 37 -1 -42z"/>
<path d="M6636 5051 c-4 -7 -5 -15 -2 -18 9 -9 19 4 14 18 -4 11 -6 11 -12 0z"/>
<path d="M6663 5038 c2 -15 6 -30 10 -34 10 -10 8 17 -3 41 -8 17 -9 16 -7 -7z"/>
<path d="M6482 4975 c-26 -54 -27 -62 -7 -45 8 7 15 18 15 24 0 6 7 23 14 39
8 15 11 27 7 27 -4 0 -17 -20 -29 -45z"/>
<path d="M6630 5005 c0 -8 5 -15 10 -15 6 0 10 7 10 15 0 8 -4 15 -10 15 -5 0
-10 -7 -10 -15z"/>
<path d="M6596 4983 c-9 -10 -7 -55 3 -49 12 8 21 45 11 51 -4 2 -10 2 -14 -2z"/>
<path d="M6707 4848 c-8 -28 2 -38 14 -15 6 9 19 17 29 17 11 0 20 5 20 10 0
6 -13 10 -29 10 -21 0 -30 -6 -34 -22z"/>
<path d="M6790 4809 c-6 -11 -9 -25 -7 -32 2 -7 11 3 21 21 9 17 12 32 7 32
-6 0 -15 -9 -21 -21z"/>
<path d="M6437 6434 c-11 -11 -8 -42 4 -49 16 -10 19 -2 11 29 -4 15 -11 24
-15 20z"/>
<path d="M6495 6390 c3 -5 10 -10 16 -10 5 0 9 5 9 10 0 6 -7 10 -16 10 -8 0
-12 -4 -9 -10z"/>
<path d="M6755 6200 c3 -5 14 -10 23 -10 15 0 15 2 2 10 -20 13 -33 13 -25 0z"/>
<path d="M6896 6149 c-11 -29 -14 -69 -7 -69 5 0 11 17 14 37 6 37 2 57 -7 32z"/>
<path d="M6610 6141 c0 -26 100 -50 131 -30 16 10 8 12 -38 9 -17 -1 -45 6
-62 15 -17 8 -31 11 -31 6z"/>
<path d="M6676 6068 c-9 -12 -16 -32 -16 -43 1 -14 6 -10 21 18 23 44 20 60
-5 25z"/>
<path d="M6798 6054 c23 -33 50 -59 56 -53 2 2 -14 22 -36 44 -36 35 -38 36
-20 9z"/>
<path d="M7010 5993 c0 -14 19 -38 25 -32 8 8 -5 39 -16 39 -5 0 -9 -3 -9 -7z"/>
<path d="M6770 5931 c0 -5 26 -17 58 -26 93 -27 163 -66 185 -103 24 -41 34
-35 12 7 -21 42 -74 75 -169 105 -90 30 -86 29 -86 17z"/>
<path d="M7110 5886 c0 -10 43 -77 47 -73 6 7 -29 77 -39 77 -4 0 -8 -2 -8 -4z"/>
<path d="M7190 5724 c0 -2 9 -8 20 -14 11 -6 20 -7 20 -2 0 6 -9 12 -20 15
-11 3 -20 3 -20 1z"/>
<path d="M7252 5620 c0 -14 2 -19 5 -12 2 6 2 18 0 25 -3 6 -5 1 -5 -13z"/>
<path d="M7150 5410 c0 -5 5 -10 11 -10 5 0 7 5 4 10 -3 6 -8 10 -11 10 -2 0
-4 -4 -4 -10z"/>
<path d="M7055 5370 c-8 -13 3 -30 21 -30 18 0 18 14 0 29 -10 8 -16 9 -21 1z"/>
<path d="M7270 5350 c-11 -7 -7 -10 17 -10 17 0 35 5 38 10 8 13 -35 13 -55 0z"/>
<path d="M6410 5780 c0 -11 5 -20 10 -20 6 0 10 9 10 20 0 11 -4 20 -10 20 -5
0 -10 -9 -10 -20z"/>
<path d="M6380 5769 c0 -5 5 -7 10 -4 6 3 10 8 10 11 0 2 -4 4 -10 4 -5 0 -10
-5 -10 -11z"/>
<path d="M6492 5720 c0 -14 2 -19 5 -12 2 6 2 18 0 25 -3 6 -5 1 -5 -13z"/>
<path d="M6936 5104 c-10 -25 1 -29 14 -5 6 12 7 21 1 21 -5 0 -12 -7 -15 -16z"/>
<path d="M6950 4331 c0 -6 5 -13 10 -16 6 -3 10 1 10 9 0 9 -4 16 -10 16 -5 0
-10 -4 -10 -9z"/>
<path d="M6992 4291 c-24 -33 -32 -65 -10 -43 19 19 29 14 22 -13 -4 -15 -2
-25 5 -25 8 0 8 -6 -1 -19 -7 -11 -15 -18 -19 -15 -15 9 -51 -56 -45 -81 4
-14 3 -25 -1 -25 -5 0 -18 -3 -30 -6 -17 -5 -23 -2 -23 10 0 9 -5 16 -11 16
-6 0 -9 7 -5 15 3 9 0 15 -9 15 -8 0 -15 -5 -15 -12 0 -6 -7 -20 -17 -30 -9
-10 -11 -18 -5 -18 6 0 14 5 17 10 10 16 22 12 28 -10 3 -11 12 -20 20 -20 23
0 106 53 107 68 0 7 15 19 33 27 33 14 68 45 51 45 -5 0 -24 -9 -43 -21 -42
-25 -48 -20 -16 15 29 32 36 78 8 55 -15 -13 -16 -11 -11 16 3 17 2 40 -1 53
-6 24 -6 23 -29 -7z"/>
<path d="M6947 4293 c-10 -9 -8 -33 2 -33 5 0 11 9 14 20 5 20 -3 26 -16 13z"/>
<path d="M6826 4281 c-9 -15 4 -38 30 -56 22 -14 24 -14 24 3 0 10 -9 28 -20
40 -23 25 -26 26 -34 13z"/>
<path d="M6807 4170 c-3 -11 -1 -23 4 -26 5 -3 9 -1 9 5 0 5 3 16 6 25 3 9 2
16 -4 16 -5 0 -12 -9 -15 -20z"/>
<path d="M6906 4154 c-3 -9 -6 -25 -6 -37 1 -22 1 -22 20 2 11 13 20 29 20 37
0 19 -26 18 -34 -2z"/>
<path d="M6720 4065 c0 -8 5 -15 10 -15 6 0 10 7 10 15 0 8 -4 15 -10 15 -5 0
-10 -7 -10 -15z"/>
<path d="M6766 4064 c-9 -8 -16 -18 -16 -20 0 -7 38 15 45 26 10 16 -12 12
-29 -6z"/>
<path d="M2362 7019 c-29 -5 -62 -14 -72 -19 -10 -6 -27 -10 -38 -10 -11 0
-30 -9 -43 -19 -22 -17 -22 -21 -10 -45 11 -21 22 -26 50 -26 45 0 168 -25
184 -38 7 -5 43 -26 81 -47 38 -20 91 -52 118 -71 26 -19 52 -34 57 -34 16 0
33 -28 21 -35 -6 -4 -7 -12 -1 -24 14 -26 73 -86 104 -106 45 -29 30 -1 -24
45 -55 46 -54 67 1 49 64 -21 101 -43 121 -71 11 -15 39 -36 62 -46 46 -21
101 -72 76 -72 -8 0 -34 10 -59 21 -25 12 -54 22 -65 24 -11 2 -32 6 -47 9
-15 4 -29 3 -32 -2 -5 -9 30 -92 39 -92 3 0 3 6 -1 13 -11 17 24 -10 59 -46
32 -33 32 -36 10 -52 -14 -11 -13 -17 17 -61 34 -48 78 -93 93 -94 4 0 -11 25
-34 55 -23 31 -39 58 -36 61 6 6 85 -32 110 -54 9 -8 17 -21 17 -28 0 -7 33
-46 73 -86 40 -40 79 -81 86 -90 12 -16 11 -18 -11 -18 -15 0 -40 14 -61 35
-20 19 -39 35 -42 35 -4 0 -19 9 -34 19 -15 11 -40 23 -56 27 -23 6 -27 4 -22
-9 7 -18 -22 -47 -46 -47 -9 0 -24 14 -32 31 -20 38 -47 35 -56 -8 -6 -31 -47
-91 -62 -92 -5 -1 -6 3 -2 8 3 5 -3 12 -12 16 -10 3 -34 26 -53 51 -19 26 -57
73 -83 105 -73 88 -33 72 56 -23 43 -46 77 -75 75 -66 -3 15 -135 163 -239
268 -20 20 -38 41 -40 47 -4 11 -122 73 -139 73 -6 0 -39 20 -73 44 -81 57
-159 100 -227 125 -71 26 -276 81 -360 96 -163 30 -419 -16 -408 -72 4 -22 53
-34 103 -26 22 4 43 6 47 5 4 -1 22 -4 40 -6 18 -2 69 -13 113 -24 44 -11 94
-17 112 -15 17 3 63 -2 102 -11 86 -20 99 -20 83 -4 -18 18 -15 28 8 28 11 0
20 -3 20 -6 0 -10 -60 -113 -69 -118 -5 -3 -23 -1 -42 5 -77 23 -257 27 -318
8 -81 -26 -101 -38 -101 -63 0 -35 28 -40 99 -21 56 16 100 16 176 1 125 -26
135 -30 135 -46 0 -9 -4 -20 -10 -26 -20 -20 -63 -155 -81 -254 -34 -189 -21
-345 46 -540 28 -84 105 -239 169 -339 22 -36 47 -77 54 -91 24 -47 116 -164
178 -226 120 -120 326 -186 429 -137 19 9 35 20 35 24 0 4 12 21 26 39 21 24
25 38 21 65 -8 50 10 67 69 67 110 0 182 -74 191 -197 7 -85 0 -107 -50 -158
-49 -50 -228 -142 -296 -151 -72 -11 -153 -42 -219 -86 -91 -61 -104 -84 -107
-191 -3 -96 -8 -109 -69 -175 -19 -21 -46 -61 -60 -89 -44 -85 -28 -155 19
-85 31 46 49 57 225 143 30 15 69 30 85 33 66 15 144 86 223 203 62 92 143
180 237 256 156 126 215 213 234 350 33 228 33 227 75 267 46 45 86 49 168 17
79 -31 183 -23 241 18 53 38 130 168 157 265 38 137 47 373 18 467 -6 19 -14
59 -18 90 -11 78 -82 270 -127 342 -115 183 -143 222 -227 307 -50 51 -116
112 -146 135 -30 22 -72 56 -92 75 -37 35 -85 67 -148 99 -19 10 -48 27 -63
37 -32 22 -128 51 -237 72 -91 18 -375 27 -448 13z m354 -24 c60 -9 129 -22
154 -29 25 -8 59 -17 75 -21 40 -9 145 -62 173 -88 12 -11 22 -17 22 -13 0 4
28 -14 63 -41 34 -27 85 -64 112 -83 89 -61 235 -220 299 -327 33 -54 74 -120
92 -148 33 -51 90 -219 105 -310 4 -27 13 -66 19 -85 13 -39 14 -364 2 -420
-5 -23 -14 -36 -27 -39 -21 -4 -35 -18 -35 -38 0 -7 7 -10 15 -7 26 10 17 -18
-25 -80 -22 -32 -40 -65 -40 -72 0 -20 -17 -17 -29 3 -13 24 -24 11 -25 -29
-1 -29 -5 -34 -41 -44 -61 -19 -94 -16 -160 12 -84 36 -101 39 -137 20 -46
-23 -72 -39 -81 -51 -5 -5 -5 1 -2 14 11 39 -9 16 -35 -38 -18 -40 -27 -50
-42 -45 -22 6 -24 -4 -4 -20 42 -32 21 -247 -25 -259 -17 -5 -18 -8 -8 -24 18
-29 -22 -97 -98 -168 -218 -203 -246 -232 -289 -305 -23 -41 -74 -106 -111
-145 -58 -60 -76 -72 -123 -84 -30 -7 -97 -36 -149 -62 -52 -27 -96 -48 -98
-46 -4 5 63 57 119 92 45 28 63 50 36 43 -33 -8 -138 -88 -167 -125 -17 -24
-36 -43 -41 -43 -23 0 -11 20 83 141 31 41 47 71 47 90 0 32 24 49 43 30 18
-18 55 -13 67 9 6 11 8 36 4 55 -4 25 -1 43 15 68 21 35 36 44 137 82 140 53
293 137 363 199 42 37 71 114 71 186 0 36 -5 82 -11 103 -15 54 -63 105 -112
118 -23 6 -48 16 -55 22 -8 6 -36 11 -63 11 -61 0 -99 -31 -99 -79 0 -52 -20
-93 -55 -115 -52 -32 -208 -19 -266 21 -15 10 -37 23 -50 28 -36 14 -109 69
-109 83 0 6 7 4 18 -5 32 -29 34 -18 3 15 -28 30 -59 84 -81 142 -6 16 -13 26
-16 23 -3 -3 -1 -14 5 -25 6 -12 11 -29 11 -39 0 -10 11 -35 25 -55 14 -20 25
-39 25 -42 0 -10 -67 68 -80 93 -7 14 -17 30 -21 35 -5 6 -19 25 -33 41 -13
17 -32 44 -42 61 -11 17 -35 58 -55 90 -70 117 -147 296 -163 382 -9 46 -18
87 -21 91 -2 5 -7 42 -11 85 -7 88 10 107 21 24 4 -29 12 -60 17 -68 6 -10 7
2 3 35 -3 28 -7 59 -8 69 -1 10 3 21 10 23 12 4 21 -22 83 -252 57 -213 61
-224 80 -247 l19 -23 1 33 c0 40 18 42 33 2 6 -16 15 -30 20 -30 12 0 0 59
-16 78 -6 8 -17 45 -24 81 -16 92 -14 130 3 51 22 -99 32 -91 26 19 -5 115 5
129 39 54 15 -31 24 -75 27 -125 5 -80 21 -108 23 -40 1 20 1 40 0 45 -2 12
29 8 34 -5 2 -7 12 -42 23 -78 20 -67 35 -82 40 -42 2 12 8 22 13 22 18 0 41
-71 34 -107 -4 -20 -2 -33 5 -33 5 0 22 -25 37 -55 15 -30 34 -55 42 -55 12 0
12 -3 3 -12 -16 -16 -15 -28 2 -28 8 0 16 -7 20 -15 10 -26 26 -16 26 15 0 34
14 39 30 10 11 -20 30 -27 30 -11 0 5 -11 22 -24 38 -14 16 -34 55 -45 86 -18
53 -66 125 -83 126 -5 1 -8 -14 -9 -31 0 -30 -1 -31 -9 -10 -5 12 -12 45 -14
72 -3 28 -10 58 -15 68 -14 26 -26 182 -14 182 16 0 31 -22 39 -55 4 -17 10
-34 14 -40 4 -5 13 -48 20 -95 12 -82 26 -127 36 -117 3 3 0 24 -6 47 -8 31
-8 45 1 56 15 18 32 5 49 -36 7 -17 18 -30 24 -30 6 0 23 -7 38 -14 15 -8 48
-17 73 -19 25 -3 52 -10 59 -16 16 -14 65 -4 67 13 3 26 -4 50 -17 63 -18 19
-18 34 1 27 8 -4 15 -1 15 6 0 9 7 7 20 -5 17 -15 20 -16 20 -3 0 9 -7 21 -15
28 -8 7 -15 22 -15 34 0 12 -6 30 -13 41 -22 32 -79 204 -72 216 8 13 -23 38
-47 39 -10 0 -18 5 -18 11 0 6 9 8 20 4 37 -12 20 10 -23 29 -41 19 -42 20
-14 24 23 3 35 -4 62 -35 l33 -38 -5 45 -6 45 32 -29 c21 -21 31 -25 31 -15 0
9 -11 26 -24 38 -15 14 -25 37 -28 62 -2 21 -1 39 2 39 11 -1 71 -136 70 -160
0 -15 4 -30 9 -35 11 -11 3 -65 -9 -65 -13 0 -20 44 -9 51 11 7 -9 49 -23 49
-13 0 -22 -24 -10 -28 7 -2 10 -13 6 -28 -3 -13 -3 -36 0 -50 5 -19 11 -24 26
-19 18 6 20 2 20 -44 0 -42 3 -51 18 -51 9 0 30 -16 45 -36 16 -19 31 -34 33
-32 1 2 -3 22 -11 43 -8 26 -19 39 -28 37 -20 -3 -45 67 -28 77 7 4 9 16 5 26
-5 13 -3 16 7 13 15 -5 17 -27 6 -69 -6 -24 -4 -26 24 -27 31 -1 31 0 24 36
-4 20 -7 45 -6 56 0 10 -13 45 -30 77 -16 32 -29 60 -29 63 0 2 13 -1 29 -7
29 -11 47 -42 31 -52 -5 -3 0 -31 11 -63 10 -31 21 -78 25 -104 5 -50 9 -54
33 -39 12 8 13 12 1 25 -7 9 -16 33 -20 54 -4 20 -11 45 -15 55 -5 12 -2 17 9
17 9 0 16 -7 16 -15 0 -8 14 -24 30 -37 22 -16 30 -30 30 -52 0 -17 4 -26 8
-20 4 6 15 13 25 17 26 10 21 19 -29 52 -24 17 -47 40 -50 53 -4 12 -12 22
-20 22 -7 0 -18 9 -24 19 -14 27 -13 36 4 22 10 -9 15 -8 19 2 8 21 37 14 84
-19 25 -17 40 -35 37 -43 -7 -21 6 -51 22 -51 12 0 12 4 4 20 -13 25 -5 25 24
2 13 -9 21 -22 19 -29 -2 -6 2 -24 10 -40 8 -15 12 -33 10 -40 -2 -6 1 -14 6
-18 6 -3 11 -17 11 -31 0 -18 -5 -24 -16 -22 -10 2 -19 -2 -21 -8 -5 -16 64
-45 93 -38 18 5 29 1 38 -11 12 -17 14 -17 34 3 12 12 22 24 22 27 0 3 9 14
20 25 24 24 25 44 5 100 -18 52 -18 50 0 50 8 0 19 -9 25 -19 13 -25 39 -51
51 -51 16 0 10 19 -11 37 -24 21 -26 33 -5 33 8 0 15 -6 15 -13 0 -8 11 -19
25 -25 19 -9 25 -9 25 1 0 16 -38 49 -72 62 -25 9 -118 131 -118 155 0 32 77
-24 116 -85 10 -16 24 -34 31 -38 7 -4 13 -17 13 -27 0 -12 7 -20 16 -20 12 0
15 7 12 25 -6 31 5 33 20 3 8 -18 11 -19 11 -5 1 9 8 17 16 17 8 0 15 7 15 15
0 8 -7 15 -14 15 -19 0 -66 61 -66 86 0 10 -17 35 -37 56 -23 24 -32 38 -22
38 8 0 20 -5 27 -12 18 -18 28 0 13 25 -8 12 -21 33 -30 47 l-15 25 27 -24
c15 -14 27 -20 27 -15 0 5 -37 46 -82 91 -46 46 -78 83 -73 83 20 -1 90 -56
111 -87 37 -55 36 -23 -1 44 -19 35 -35 73 -35 84 0 11 -22 50 -50 86 -51 68
-71 115 -22 54 49 -61 91 -106 92 -96 0 6 -16 28 -35 50 -45 51 -44 60 3 36
20 -11 49 -24 65 -30 15 -6 36 -25 46 -42 20 -32 67 -63 75 -50 3 4 -8 21 -24
36 -38 36 -39 51 -2 28 53 -34 102 -87 116 -127 7 -23 17 -49 21 -58 5 -13 2
-18 -9 -18 -9 0 -16 -8 -16 -19 0 -28 39 -149 50 -156 14 -9 12 6 -5 55 -19
53 -19 60 -1 60 19 0 15 51 -8 104 -21 49 -20 56 4 56 11 0 20 5 20 10 0 6
-11 10 -25 10 -16 0 -38 15 -66 45 -23 25 -48 45 -55 45 -8 0 -14 5 -14 10 0
6 -9 10 -19 10 -11 0 -23 5 -26 10 -4 6 -12 9 -18 8 -7 -1 -26 5 -43 15 -17 9
-34 14 -37 11 -3 -3 -35 8 -70 25 -36 17 -69 31 -75 31 -5 0 -43 32 -83 71
-41 39 -68 67 -60 63 9 -5 12 -3 7 4 -4 7 -18 12 -32 12 -13 0 -48 13 -77 29
-28 16 -65 32 -81 35 -31 8 -138 76 -118 76 7 0 10 5 7 10 -3 6 -3 10 0 10 18
0 135 -61 151 -78 11 -11 39 -25 64 -32 25 -6 72 -28 105 -49 85 -52 121 -71
137 -71 8 0 25 -11 38 -25 13 -14 30 -23 37 -21 7 3 31 -13 52 -34 48 -48 63
-51 55 -10 -4 19 -2 30 5 30 6 0 11 9 11 20 0 11 -7 20 -15 20 -7 0 -18 6 -22
13 -14 22 -111 88 -135 91 -13 2 -31 7 -41 11 -11 4 -23 3 -29 -3 -8 -8 -23
-1 -53 26 -23 20 -57 50 -76 65 -32 27 -30 26 35 -7 38 -20 71 -34 73 -33 1 2
-29 25 -67 53 -38 27 -69 57 -70 66 0 9 -10 20 -22 23 -21 6 -46 17 -188 83
l-45 21 35 1 35 2 -32 14 c-24 10 -39 11 -60 3 -16 -6 -43 -7 -63 -3 -43 10
-310 11 -310 2 0 -3 5 -8 10 -10 6 -1 -15 -3 -45 -3 -44 0 -55 3 -52 15 2 10
13 14 35 12 21 -1 39 5 51 17 13 13 40 22 78 26 32 3 65 8 73 9 40 9 168 4
266 -9z m-206 -79 c36 -2 86 -9 112 -15 54 -12 158 -57 158 -67 0 -8 -50 -1
-120 19 -30 8 -82 18 -115 21 -84 9 -158 30 -163 45 -3 10 4 12 29 8 19 -4 63
-8 99 -11z m135 -86 c18 -9 55 -23 82 -30 71 -20 315 -150 280 -150 -15 0
-107 52 -107 61 0 6 -8 9 -18 7 -11 -2 -25 2 -33 8 -26 20 -123 52 -194 65
-38 7 -90 23 -115 36 l-45 23 59 -2 c32 -1 73 -9 91 -18z m212 -22 c15 -7 39
-20 52 -30 l24 -18 -24 0 c-23 0 -93 31 -113 51 -15 13 28 11 61 -3z m-1252
-98 c3 -5 -1 -10 -9 -10 -8 0 -18 5 -21 10 -3 6 1 10 9 10 8 0 18 -4 21 -10z
m75 0 c13 -8 13 -10 -2 -10 -9 0 -20 5 -23 10 -8 13 5 13 25 0z m95 -10 c14
-15 15 -20 4 -20 -15 1 -49 23 -49 34 0 13 28 5 45 -14z m-225 -4 c0 -8 12
-17 28 -19 23 -3 22 -4 -8 -5 -43 -2 -80 7 -80 20 0 5 9 6 20 3 11 -4 20 -2
20 4 0 6 5 11 10 11 6 0 10 -6 10 -14z m289 -9 c6 -8 8 -16 5 -20 -10 -9 -34
4 -34 19 0 18 14 18 29 1z m78 -22 c15 -13 22 -25 15 -25 -17 0 -62 30 -62 41
0 16 18 10 47 -16z m-227 5 c0 -5 -6 -10 -12 -10 -7 0 -22 -3 -34 -6 -14 -4
-21 -1 -21 10 0 11 10 16 34 16 18 0 33 -4 33 -10z m63 -7 c13 -12 -54 -34
-71 -23 -15 8 -14 9 6 10 12 0 22 5 22 10 0 11 33 14 43 3z m67 -12 c0 -11
-26 -22 -34 -14 -12 12 -5 23 14 23 11 0 20 -4 20 -9z m206 -3 c43 -12 85 -50
71 -64 -8 -8 -49 16 -75 44 -18 19 -26 22 -32 12 -9 -14 -40 -7 -40 10 0 13
20 13 76 -2z m-126 -24 c0 -2 -7 -4 -15 -4 -8 0 -15 4 -15 10 0 5 7 7 15 4 8
-4 15 -8 15 -10z m245 -35 c9 -17 14 -33 12 -36 -7 -7 -47 39 -47 54 0 23 19
14 35 -18z m-135 -4 c0 -8 -4 -15 -10 -15 -5 0 -10 7 -10 15 0 8 5 15 10 15 6
0 10 -7 10 -15z m1272 -74 c12 -20 27 -42 31 -49 14 -22 -21 1 -73 47 -25 23
-50 41 -57 41 -6 0 -15 5 -19 11 -4 8 1 9 17 4 20 -6 22 -5 12 6 -26 27 -12
28 27 3 21 -14 50 -43 62 -63z m-1087 73 c18 -7 61 -84 46 -84 -13 0 -47 31
-66 63 -17 27 -12 33 20 21z m-135 -12 c0 -5 -7 -9 -15 -9 -8 0 -15 4 -15 9 0
4 7 8 15 8 8 0 15 -4 15 -8z m-70 -44 c0 -12 -19 -60 -41 -107 -40 -82 -57
-143 -75 -261 -4 -30 -9 -58 -10 -62 -1 -5 -2 -42 -3 -84 -1 -76 -1 -76 -25
-70 -14 3 -28 1 -31 -4 -15 -25 -25 7 -21 68 4 68 36 214 53 248 6 11 25 62
43 114 31 93 87 193 103 183 4 -2 7 -14 7 -25z m297 0 c11 -13 23 -35 27 -50
3 -16 10 -28 15 -28 4 0 6 12 4 28 l-4 27 20 -24 c12 -13 21 -31 21 -40 0 -10
7 -26 15 -37 17 -22 19 -15 5 20 -5 14 -6 26 -1 26 14 0 28 -23 36 -57 3 -18
11 -36 17 -39 8 -5 9 3 5 25 -5 24 -3 31 6 29 6 -3 13 -18 15 -34 2 -16 8 -33
14 -39 7 -7 9 -2 4 18 -3 15 -3 27 1 27 14 0 43 -34 43 -51 0 -23 19 -73 26
-67 2 3 0 18 -6 33 -14 37 -5 44 22 15 20 -22 38 -100 22 -100 -4 0 -36 26
-71 58 -36 31 -82 71 -103 87 -114 89 -146 120 -161 156 -21 45 -6 54 28 17z
m-207 -9 c19 -12 46 -32 60 -45 44 -41 73 -64 80 -64 5 0 147 -130 205 -189
12 -12 25 -21 31 -21 12 0 122 -109 137 -136 6 -11 -3 -5 -20 11 -16 17 -63
55 -102 85 -40 30 -92 72 -116 93 -23 20 -53 37 -66 37 -13 0 -40 14 -59 30
-19 17 -65 49 -102 71 -36 22 -69 47 -72 55 -3 8 -17 14 -31 14 -27 0 -31 13
-15 54 12 31 25 32 70 5z m135 -27 c17 -15 26 -24 21 -19 -6 4 -18 7 -28 7
-10 0 -18 6 -18 14 0 8 -13 17 -30 21 -16 4 -30 10 -30 15 0 15 53 -9 85 -38z
m-542 1 c-7 -2 -21 -2 -30 0 -10 3 -4 5 12 5 17 0 24 -2 18 -5z m-115 -25 c-3
-7 -20 -14 -39 -16 -50 -5 -19 19 34 27 5 0 7 -5 5 -11z m323 -21 c-8 -8 -11
-7 -11 4 0 20 13 34 18 19 3 -7 -1 -17 -7 -23z m-43 -7 c17 -7 32 -16 32 -20
0 -5 -15 -4 -32 2 -18 6 -59 15 -90 22 -31 6 -59 13 -62 16 -9 10 117 -7 152
-20z m17 20 c3 -5 2 -10 -4 -10 -5 0 -13 5 -16 10 -3 6 -2 10 4 10 5 0 13 -4
16 -10z m1085 -8 c72 -36 177 -112 234 -171 58 -59 71 -90 24 -57 -12 9 -29
16 -37 16 -8 0 -24 9 -35 19 -12 11 -41 30 -66 43 -25 13 -73 53 -107 89 -80
83 -82 95 -13 61z m-594 -70 c-6 -6 -46 18 -46 27 0 5 -11 12 -25 15 -16 4
-22 11 -19 21 5 11 16 6 50 -22 24 -20 42 -39 40 -41z m-362 23 c-19 -29 -29
-27 -19 4 3 12 13 21 21 21 12 0 12 -4 -2 -25z m1131 0 c17 -13 26 -24 20 -25
-5 0 -23 11 -40 25 -16 13 -25 24 -20 25 6 0 24 -11 40 -25z m-1072 2 c-2 -4
-3 -12 -3 -18 0 -5 -4 -8 -9 -4 -5 3 -9 -7 -9 -22 0 -16 -7 -57 -16 -93 -29
-111 -46 -222 -47 -306 l-1 -82 -31 -5 c-18 -2 -34 -3 -37 0 -12 12 -1 320 14
373 l15 55 -4 -60 c-2 -33 0 -112 4 -175 4 -63 9 -97 9 -74 1 22 5 44 8 47 4
4 8 64 10 135 3 135 10 167 47 212 19 23 57 36 50 17z m53 -33 c-3 -9 -6 -20
-6 -26 0 -6 -6 -5 -15 2 -12 10 -13 16 -4 26 16 19 33 18 25 -2z m464 -4 c0
-5 -2 -10 -4 -10 -3 0 -8 5 -11 10 -3 6 -1 10 4 10 6 0 11 -4 11 -10z m-444
-26 c-4 -9 -9 -15 -11 -12 -3 3 -3 13 1 22 4 9 9 15 11 12 3 -3 3 -13 -1 -22z
m261 8 c30 -4 69 -32 45 -32 -6 0 -14 5 -17 10 -7 12 -25 13 -25 2 0 -4 15
-16 34 -26 22 -11 32 -24 29 -32 -3 -9 6 -18 26 -25 28 -10 43 -29 23 -29 -8
0 -146 110 -172 137 -13 14 -13 15 5 8 11 -4 34 -10 52 -13z m-191 -36 c23
-21 32 -36 25 -40 -6 -4 -11 -1 -11 8 0 15 -5 18 -40 20 -13 1 -29 46 -16 46
3 0 21 -15 42 -34z m-111 14 c3 -5 2 -10 -4 -10 -5 0 -13 5 -16 10 -3 6 -2 10
4 10 5 0 13 -4 16 -10z m95 -128 c104 -87 127 -110 285 -286 85 -96 105 -124
103 -145 -4 -36 -67 -53 -108 -29 -37 21 -42 14 -24 -31 11 -28 12 -44 5 -64
-12 -31 -12 -31 -46 -15 -21 9 -28 9 -35 -1 -6 -10 -10 -7 -14 10 -15 53 -40
99 -56 104 -11 3 -21 20 -24 40 -4 18 -20 48 -36 65 -16 17 -36 53 -45 81 -9
27 -27 60 -39 72 -13 13 -26 42 -30 67 -4 24 -12 50 -18 57 -6 8 -14 41 -17
75 -4 39 -11 63 -20 66 -11 4 -12 -9 -6 -74 4 -44 11 -83 16 -88 5 -6 9 -53 9
-105 0 -53 5 -123 11 -156 5 -33 12 -76 15 -95 4 -32 3 -33 -7 -12 -7 12 -20
22 -29 22 -10 0 -21 -10 -24 -22 -10 -37 -23 -4 -39 103 -20 126 -21 236 -3
246 10 5 17 37 22 98 3 50 11 96 16 102 13 17 25 9 138 -85z m320 67 c0 -5 -7
-6 -15 -3 -8 4 -15 13 -15 21 0 13 3 13 15 3 8 -7 15 -16 15 -21z m-336 15 c9
-3 16 -10 16 -15 0 -15 -37 -10 -50 6 -10 12 -10 15 3 15 8 0 22 -3 31 -6z
m120 -29 c13 -10 16 -19 10 -32 -7 -16 -8 -16 -11 5 -4 22 -23 32 -23 11 0 -5
-4 -7 -10 -4 -14 9 -12 35 3 35 6 0 20 -7 31 -15z m376 -64 c0 -14 5 -33 10
-41 8 -12 10 -10 10 9 0 20 2 21 15 11 8 -7 15 -27 15 -46 0 -18 5 -36 10 -39
6 -3 10 1 10 9 0 9 4 16 9 16 11 0 21 -25 21 -56 0 -15 6 -24 15 -24 9 0 16
-10 16 -22 1 -18 3 -17 9 7 6 27 8 28 14 10 15 -40 24 -50 47 -47 13 1 19 -1
13 -5 -6 -5 -16 -26 -22 -48 l-10 -40 -1 43 c-1 48 -21 55 -31 11 -3 -13 -14
-25 -24 -27 -16 -4 -18 1 -12 33 6 31 3 41 -21 70 -88 105 -128 168 -130 209
l-2 41 19 -24 c11 -13 20 -35 20 -50z m-414 24 c26 -19 -1 -20 -36 0 -23 13
-23 14 -4 15 11 0 29 -7 40 -15z m92 -31 l-3 -29 -13 23 c-8 13 -11 31 -7 39
9 26 27 0 23 -33z m217 36 c3 -5 2 -10 -4 -10 -5 0 -13 5 -16 10 -3 6 -2 10 4
10 5 0 13 -4 16 -10z m6 -30 c5 0 9 -4 9 -10 0 -16 -26 -12 -41 7 -12 15 -12
16 4 10 10 -4 23 -7 28 -7z m-179 -36 c-3 -15 0 -24 8 -24 7 0 10 7 6 16 -4
10 -1 14 6 11 12 -4 14 -44 3 -55 -2 -2 -16 7 -30 21 -20 18 -25 30 -21 45 10
29 34 17 28 -14z m232 11 c15 -23 15 -24 -3 -17 -19 7 -21 10 -21 32 0 16 6
12 24 -15z m-309 -2 c18 -14 18 -15 2 -9 -10 3 -25 6 -33 6 -9 0 -12 5 -9 10
8 14 16 12 40 -7z m365 -65 c0 -6 -10 -8 -22 -4 -13 3 -28 6 -33 6 -6 0 -16 9
-22 19 -12 19 -11 19 32 4 25 -8 45 -19 45 -25z m-306 16 c4 -11 0 -15 -16
-12 -12 2 -23 9 -26 16 -6 18 35 15 42 -4z m101 -14 c14 -16 16 -23 7 -32 -9
-9 -12 -8 -12 5 0 9 -4 17 -10 17 -5 0 -10 -5 -10 -12 0 -19 -14 1 -15 22 -2
26 17 26 40 0z m82 -32 c-3 -8 -6 -5 -6 6 -1 11 2 17 5 13 3 -3 4 -12 1 -19z
m-88 -38 c19 -16 33 -32 30 -34 -3 -3 -21 -3 -41 1 -42 6 -61 33 -25 34 21 0
21 1 2 9 -11 5 -29 11 -40 15 -16 5 -17 8 -5 15 16 10 31 3 79 -40z m207 35
c14 -11 15 -14 4 -15 -21 -1 30 -39 51 -40 9 0 19 -7 23 -15 6 -18 -5 -20 -21
-4 -6 6 -19 9 -29 6 -15 -3 -12 -7 14 -17 17 -6 32 -16 32 -20 0 -5 3 -15 6
-23 3 -10 -1 -17 -13 -19 -13 -3 -29 15 -60 70 -24 41 -43 78 -43 83 0 13 14
11 36 -6z m550 -52 c50 -44 70 -66 119 -139 34 -50 34 -76 0 -44 -14 13 -25
27 -25 32 0 5 -17 25 -37 44 -34 31 -82 52 -123 55 -10 0 -11 2 -2 6 17 7 15
21 -8 50 -11 14 -20 32 -20 40 0 23 39 5 96 -44z m-706 33 c0 -8 -4 -18 -10
-21 -5 -3 -10 3 -10 14 0 12 5 21 10 21 6 0 10 -6 10 -14z m67 -18 c-3 -7 -5
-2 -5 12 0 14 2 19 5 13 2 -7 2 -19 0 -25z m363 12 c0 -5 -4 -10 -10 -10 -5 0
-10 5 -10 10 0 6 5 10 10 10 6 0 10 -4 10 -10z m-406 -35 c-4 -8 -10 -13 -15
-10 -4 3 -6 12 -3 20 4 8 10 13 15 10 4 -3 6 -12 3 -20z m78 -10 c3 -13 1 -22
-3 -19 -9 5 -13 44 -5 44 2 0 6 -11 8 -25z m300 -7 c-7 -7 -12 -8 -12 -2 0 14
12 26 19 19 2 -3 -1 -11 -7 -17z m103 -35 c8 -32 20 -69 26 -83 7 -18 7 -22 0
-15 -15 15 -61 155 -51 155 5 0 16 -26 25 -57z m-445 23 c0 -8 -4 -18 -10 -21
-5 -3 -10 -4 -10 -1 0 2 -3 11 -6 20 -4 11 -1 16 10 16 9 0 16 -6 16 -14z
m-42 -19 c22 -17 13 -30 -15 -22 -30 7 -53 23 -53 35 0 10 51 0 68 -13z m-372
-49 c6 -27 12 -79 12 -116 0 -38 5 -95 12 -126 6 -32 9 -60 6 -64 -14 -14 -35
27 -45 88 -6 36 -18 99 -25 140 -22 111 -21 132 6 128 17 -2 25 -14 34 -50z
m444 9 c0 -18 -2 -19 -10 -7 -13 20 -13 43 0 35 6 -3 10 -16 10 -28z m596
-151 c3 -17 13 -40 20 -51 20 -28 17 -95 -5 -124 -25 -33 -54 -24 -62 19 -4
19 -13 55 -21 80 -12 39 -12 54 -1 110 8 36 17 72 19 80 6 16 37 -57 50 -114z
m-1217 52 c11 -36 26 -136 23 -154 -1 -6 4 -40 11 -75 15 -73 15 -74 -2 -114
-15 -36 -27 -22 -37 45 -3 25 -15 71 -26 104 -15 43 -17 60 -9 66 9 5 9 19 2
51 -17 72 -14 109 8 109 13 0 23 -11 30 -32z m1226 22 c3 -5 1 -10 -4 -10 -6
0 -11 5 -11 10 0 6 2 10 4 10 3 0 8 -4 11 -10z m-137 -37 c9 -21 19 -54 20
-73 l2 -35 -20 30 c-11 17 -19 41 -19 55 1 14 -2 33 -6 43 -14 33 5 17 23 -20z
m-839 -5 c6 -17 14 -57 17 -87 2 -31 9 -81 14 -111 5 -30 11 -70 14 -87 6 -36
-9 -45 -19 -13 -3 11 -12 20 -19 20 -7 0 -18 39 -30 108 -23 135 -26 185 -12
194 19 13 24 9 35 -24z m1031 -38 c0 -5 -4 -10 -10 -10 -5 0 -10 5 -10 10 0 6
5 10 10 10 6 0 10 -4 10 -10z m-730 -95 c26 -28 19 -48 -8 -21 -9 9 -26 23
-37 31 -20 14 -20 14 1 15 11 0 31 -11 44 -25z m603 -72 c14 -30 14 -33 0 -33
-9 0 -13 3 -10 7 4 3 0 11 -9 17 -9 7 -12 18 -8 29 8 21 6 22 27 -20z m-549 2
c9 -14 15 -25 13 -25 -2 0 -14 11 -27 25 -13 14 -19 25 -13 25 6 0 18 -11 27
-25z m-150 -61 c64 -26 159 -54 184 -54 21 0 42 -31 42 -61 0 -14 -43 -11
-107 9 -42 12 -70 29 -102 62 -25 25 -54 50 -65 55 -13 7 -22 22 -23 40 l-3
30 17 -32 c10 -21 31 -38 57 -49z m11 46 c3 -5 2 -10 -4 -10 -5 0 -13 5 -16
10 -3 6 -2 10 4 10 5 0 13 -4 16 -10z m60 -30 c3 -5 2 -10 -4 -10 -5 0 -13 5
-16 10 -3 6 -2 10 4 10 5 0 13 -4 16 -10z m158 -10 c-5 -20 -15 -25 -26 -13
-5 4 18 30 30 33 0 0 -1 -9 -4 -20z m-63 -10 c0 -12 -27 -12 -55 0 -16 7 -13
9 18 9 20 1 37 -3 37 -9z m-225 -180 c18 -20 18 -21 -1 -35 -27 -21 -30 -19
-31 20 -1 40 6 43 32 15z m41 -118 c9 -33 -1 -37 -30 -11 -25 22 -34 58 -19
73 9 9 41 -31 49 -62z m824 -172 c-6 -11 -15 -20 -20 -20 -6 0 -5 9 2 20 7 11
16 20 21 20 4 0 3 -9 -3 -20z"/>
<path d="M2805 6940 c3 -5 17 -10 31 -10 14 0 22 4 19 10 -3 6 -17 10 -31 10
-14 0 -22 -4 -19 -10z"/>
<path d="M3000 6807 c0 -7 28 -39 62 -72 49 -47 59 -47 13 0 -6 5 -21 22 -34
38 -24 27 -24 27 -3 27 12 0 37 -14 57 -31 38 -33 50 -26 13 8 -45 41 -108 58
-108 30z"/>
<path d="M3180 6734 c0 -8 6 -22 14 -29 12 -12 15 -12 19 5 5 18 -9 40 -25 40
-4 0 -8 -7 -8 -16z"/>
<path d="M3170 6670 c0 -5 6 -10 13 -10 15 -1 45 -26 76 -65 13 -16 21 -22 18
-13 -3 9 -1 19 6 22 8 4 6 10 -7 18 -87 60 -106 68 -106 48z"/>
<path d="M3397 6535 c45 -52 63 -65 63 -47 0 10 -93 102 -103 102 -5 0 13 -25
40 -55z"/>
<path d="M3383 6436 c3 -7 0 -19 -6 -26 -10 -10 -7 -12 10 -8 12 3 33 -3 50
-13 31 -21 43 -24 43 -10 0 9 -85 71 -97 71 -3 0 -3 -6 0 -14z"/>
<path d="M3510 6409 c0 -15 5 -19 15 -15 10 4 25 -9 45 -37 16 -23 40 -55 52
-70 30 -37 43 -62 61 -122 13 -43 15 -46 16 -20 2 52 -114 251 -159 275 -26
14 -30 13 -30 -11z"/>
<path d="M3305 6280 c-3 -5 11 -16 30 -26 20 -9 63 -43 96 -75 32 -33 64 -59
69 -59 18 0 10 19 -15 37 -14 10 -50 41 -81 70 -55 51 -89 69 -99 53z"/>
<path d="M3304 6229 c-3 -6 11 -36 32 -66 29 -42 39 -51 44 -38 5 13 18 4 68
-46 35 -34 66 -59 69 -55 11 11 -137 146 -160 146 -16 0 -18 3 -10 11 9 9 8
18 -4 35 -17 26 -28 30 -39 13z"/>
<path d="M3590 6191 c0 -5 6 -14 14 -20 8 -6 19 -31 25 -54 12 -46 27 -74 35
-66 5 5 -32 114 -47 137 -9 14 -27 16 -27 3z"/>
<path d="M3370 6026 c0 -36 27 -94 50 -106 26 -14 26 2 1 24 -19 17 -46 76
-35 76 5 0 41 -22 95 -57 32 -21 37 -30 43 -76 3 -29 9 -62 12 -74 6 -21 4
-22 -25 -17 -22 5 -32 2 -36 -8 -7 -19 19 -91 35 -96 9 -3 11 1 7 13 -16 40
-19 65 -8 65 6 0 14 -7 17 -15 5 -13 11 -11 31 10 23 23 24 27 11 47 -19 30
-29 68 -17 68 5 0 9 -7 9 -15 0 -17 12 -19 26 -5 11 11 64 -60 64 -86 0 -8 5
-14 10 -14 15 0 12 19 -8 48 -11 15 -27 46 -37 70 -20 44 -41 58 -32 20 5 -17
-3 -11 -30 20 -19 24 -60 58 -89 77 -30 19 -54 39 -54 45 0 5 -9 10 -20 10
-14 0 -20 -7 -20 -24z"/>
<path d="M3585 6022 c31 -28 79 -127 72 -147 -5 -11 -3 -15 5 -12 8 2 12 16
10 33 -5 42 -64 138 -87 142 -20 3 -20 2 0 -16z"/>
<path d="M3720 5922 c0 -35 2 -38 28 -37 31 0 32 8 5 47 -25 38 -33 35 -33
-10z"/>
<path d="M3456 5882 c-8 -14 24 -61 42 -62 14 0 7 17 -21 54 -9 13 -16 15 -21
8z"/>
<path d="M2878 5828 c6 -25 20 -38 40 -38 9 0 7 9 -8 30 -25 36 -40 39 -32 8z"/>
<path d="M2620 5796 c0 -9 5 -16 10 -16 6 0 10 4 10 9 0 6 -4 13 -10 16 -5 3
-10 -1 -10 -9z"/>
<path d="M3770 5794 c0 -8 5 -12 10 -9 6 4 8 11 5 16 -9 14 -15 11 -15 -7z"/>
<path d="M3706 5782 c-10 -17 -14 -62 -5 -62 5 0 9 9 9 20 0 26 14 25 33 -2
16 -23 16 -23 16 -2 1 11 -7 28 -17 37 -21 19 -28 21 -36 9z"/>
<path d="M3560 5742 c0 -14 30 -71 41 -77 15 -10 10 21 -8 54 -17 30 -33 40
-33 23z"/>
<path d="M3395 5692 c-12 -13 -3 -42 16 -52 27 -15 38 -4 14 14 -12 9 -15 15
-7 20 7 4 12 11 12 15 0 8 -27 11 -35 3z"/>
<path d="M2963 5655 c-6 -17 11 -35 35 -35 9 0 10 5 2 19 -15 29 -29 35 -37
16z"/>
<path d="M2895 5618 c11 -57 15 -66 32 -72 25 -10 26 -1 4 35 -12 19 -21 42
-21 52 0 9 -5 17 -11 17 -7 0 -8 -12 -4 -32z"/>
<path d="M1850 5616 c0 -5 6 -17 14 -25 7 -9 24 -44 36 -79 13 -34 25 -60 28
-58 8 9 -40 130 -59 151 -11 11 -19 15 -19 11z"/>
<path d="M3437 5613 c-4 -3 -7 -18 -7 -33 0 -14 -5 -31 -12 -38 -9 -9 -9 -12
0 -12 7 0 19 14 26 32 l14 32 14 -30 c9 -16 13 -35 11 -42 -5 -14 14 -42 29
-42 13 0 1 49 -23 100 -18 37 -37 49 -52 33z"/>
<path d="M2700 5580 c0 -25 4 -30 25 -30 24 0 24 0 7 30 -22 38 -32 38 -32 0z"/>
<path d="M3726 5596 c3 -9 11 -16 16 -16 13 0 5 23 -10 28 -7 2 -10 -2 -6 -12z"/>
<path d="M3332 5588 c-15 -15 -16 -58 -2 -58 6 0 10 9 10 21 0 29 33 21 40
-10 3 -14 11 -26 18 -29 17 -5 15 2 -8 48 -21 41 -37 49 -58 28z"/>
<path d="M3530 5588 c0 -30 13 -58 26 -58 8 0 14 -5 14 -11 0 -5 4 -8 9 -5 5
4 5 23 -1 46 -8 29 -16 40 -29 40 -11 0 -19 -6 -19 -12z"/>
<path d="M3620 5574 c0 -14 4 -23 9 -20 5 3 14 -1 21 -9 16 -19 30 -19 30 0 0
8 -4 15 -9 15 -5 0 -13 9 -16 20 -9 29 -35 25 -35 -6z"/>
<path d="M2846 5582 c-3 -6 -1 -23 5 -39 l11 -28 11 23 c8 18 7 26 -5 38 -10
10 -18 12 -22 6z"/>
<path d="M3777 5552 c-21 -23 -22 -42 -2 -42 8 0 15 7 15 16 0 13 3 14 13 5
19 -15 28 -3 14 20 -15 24 -20 24 -40 1z"/>
<path d="M3247 5513 c-10 -9 -9 -25 2 -19 4 3 15 -2 24 -12 50 -53 56 -63 51
-77 -4 -8 -1 -15 5 -15 6 0 11 5 11 10 0 6 7 10 15 10 21 0 19 19 -2 27 -10 4
-34 24 -54 45 -38 40 -42 42 -52 31z"/>
<path d="M2815 5502 c-3 -3 -5 -14 -5 -24 0 -13 4 -17 13 -11 6 4 20 6 30 5 9
-2 17 0 17 5 0 10 -47 32 -55 25z"/>
<path d="M3060 5475 c0 -34 12 -46 25 -24 9 14 -3 59 -15 59 -6 0 -10 -16 -10
-35z"/>
<path d="M2977 5463 c-7 -35 0 -50 24 -56 16 -4 19 -2 14 11 -4 9 -10 27 -12
40 -8 33 -20 36 -26 5z"/>
<path d="M2755 5449 c-4 -12 -2 -26 4 -32 8 -8 11 -8 11 1 0 7 7 12 16 12 11
0 14 5 10 16 -3 9 -6 18 -6 20 0 14 -30 0 -35 -17z"/>
<path d="M3706 5454 c-9 -23 -7 -34 4 -34 6 0 10 7 10 15 0 8 5 15 10 15 6 0
10 -7 10 -15 0 -8 5 -15 10 -15 13 0 13 6 0 31 -13 23 -36 25 -44 3z"/>
<path d="M3800 5460 c-13 -9 -13 -11 0 -20 10 -6 16 -6 18 0 7 20 -3 30 -18
20z"/>
<path d="M2096 5452 c-8 -13 2 -136 14 -166 8 -21 7 -28 -6 -33 -18 -7 -16 -9
-47 52 -14 28 -26 42 -27 32 0 -19 24 -72 45 -97 7 -8 16 -28 20 -45 l8 -30
10 26 10 27 23 -27 c23 -25 23 -25 24 -4 0 12 -5 25 -10 28 -6 4 -7 11 -4 17
4 6 2 13 -3 17 -28 19 -61 184 -34 166 13 -8 57 -88 64 -117 4 -14 18 -30 32
-36 21 -10 26 -9 35 8 16 29 12 58 -12 93 -13 18 -24 34 -26 36 -1 3 -9 -4
-17 -15 -8 -10 -15 -14 -15 -7 0 15 -58 83 -70 83 -5 0 -11 -4 -14 -8z m142
-145 c2 -18 -1 -27 -11 -27 -18 0 -29 24 -20 45 8 23 28 12 31 -18z"/>
<path d="M2896 5445 c-7 -18 10 -65 23 -65 5 0 16 -3 25 -6 13 -5 11 3 -7 40
-23 49 -31 55 -41 31z"/>
<path d="M3567 5444 c-16 -16 -6 -50 19 -61 25 -11 25 -11 22 25 -3 35 -24 53
-41 36z"/>
<path d="M2390 5411 c0 -11 4 -22 9 -25 11 -7 20 14 13 32 -7 19 -22 14 -22
-7z"/>
<path d="M3167 5424 c-13 -13 -7 -51 10 -65 15 -13 16 -11 9 15 -6 24 -4 27 9
22 12 -4 16 -1 13 11 -3 19 -29 29 -41 17z"/>
<path d="M2714 5377 c-8 -21 1 -47 16 -47 19 0 23 31 7 48 -15 14 -17 14 -23
-1z"/>
<path d="M3441 5376 c-15 -17 -11 -73 4 -66 6 3 9 15 7 28 -3 27 14 29 28 2
12 -22 30 -27 30 -7 -1 15 -35 57 -48 57 -5 0 -15 -6 -21 -14z"/>
<path d="M1987 5353 c-3 -5 7 -39 24 -74 33 -70 37 -75 44 -67 3 3 -9 38 -28
78 -19 40 -37 68 -40 63z"/>
<path d="M2420 5342 c0 -20 36 -59 46 -50 8 8 -24 68 -36 68 -6 0 -10 -8 -10
-18z"/>
<path d="M3256 5335 c-4 -14 -4 -30 -1 -36 9 -14 37 18 33 38 -5 27 -25 26
-32 -2z"/>
<path d="M3702 5348 c-7 -7 -12 -16 -12 -22 0 -6 5 -5 12 2 10 10 15 7 25 -10
13 -23 13 -22 11 6 -3 33 -18 42 -36 24z"/>
<path d="M2814 5337 c-10 -27 13 -64 39 -64 27 0 27 11 -1 55 -16 25 -30 28
-38 9z m36 -48 c0 -6 -4 -7 -10 -4 -5 3 -10 11 -10 16 0 6 5 7 10 4 6 -3 10
-11 10 -16z"/>
<path d="M2975 5318 c-4 -21 -2 -44 4 -55 10 -17 10 -16 11 5 0 23 16 30 22
10 2 -6 9 -8 16 -4 8 5 9 11 2 19 -6 7 -19 23 -29 37 l-19 25 -7 -37z"/>
<path d="M2560 5320 c0 -5 5 -10 10 -10 6 0 10 5 10 10 0 6 -4 10 -10 10 -5 0
-10 -4 -10 -10z"/>
<path d="M3127 5323 c-11 -10 -8 -53 4 -53 6 0 8 9 4 23 l-6 22 20 -23 c11
-13 25 -21 31 -17 7 4 2 16 -12 31 -24 25 -31 28 -41 17z"/>
<path d="M2552 5283 c-11 -11 -11 -17 -2 -28 20 -24 38 -18 32 10 -6 32 -14
37 -30 18z"/>
<path d="M3566 5293 c-3 -3 -6 -19 -6 -35 0 -26 3 -29 23 -22 29 8 35 16 20
21 -7 3 -13 11 -13 18 0 16 -14 27 -24 18z"/>
<path d="M3626 5291 c-11 -17 4 -37 29 -39 25 -2 25 -1 9 23 -17 26 -29 31
-38 16z"/>
<path d="M2917 5283 c-11 -10 -8 -71 3 -78 6 -3 10 1 10 11 0 13 3 14 15 4 19
-16 19 -11 0 34 -16 38 -18 40 -28 29z"/>
<path d="M2274 5219 c0 -27 2 -47 5 -44 2 3 17 -6 32 -21 36 -35 46 -15 14 32
-14 20 -25 42 -25 49 0 7 -6 17 -12 23 -10 8 -13 -1 -14 -39z"/>
<path d="M3466 5258 c-15 -49 -16 -68 -1 -68 9 0 15 9 15 21 0 18 2 19 15 9
18 -15 18 -10 5 24 -10 28 -28 34 -34 14z"/>
<path d="M2206 5223 c-3 -3 -6 -19 -6 -34 0 -18 6 -28 20 -32 12 -3 20 -14 20
-27 0 -19 23 -66 61 -128 8 -13 20 -20 30 -17 9 3 22 -1 29 -10 7 -8 16 -15
21 -15 17 0 9 19 -21 52 -25 27 -32 30 -40 18 -11 -17 -12 -16 -40 34 -13 25
-18 42 -12 48 7 7 1 23 -14 45 -13 20 -24 42 -24 49 0 15 -15 26 -24 17z"/>
<path d="M2770 5215 c0 -8 5 -15 10 -15 6 0 10 7 10 15 0 8 -4 15 -10 15 -5 0
-10 -7 -10 -15z"/>
<path d="M2530 5201 c0 -26 27 -48 42 -33 8 8 7 13 -5 18 -9 3 -17 12 -17 20
0 8 -4 14 -10 14 -5 0 -10 -8 -10 -19z"/>
<path d="M3160 5201 c-13 -25 -14 -69 -1 -55 5 5 11 20 13 34 l4 25 12 -27
c11 -27 32 -46 32 -30 0 5 -5 23 -11 41 -12 35 -33 40 -49 12z"/>
<path d="M3525 5189 c-4 -6 -5 -13 -2 -16 7 -7 27 6 27 18 0 12 -17 12 -25 -2z"/>
<path d="M2950 5155 c-13 -14 -19 -25 -13 -25 12 0 48 38 41 45 -2 3 -15 -6
-28 -20z"/>
<path d="M3055 5167 c-13 -10 -16 -21 -11 -40 3 -15 11 -27 17 -27 7 0 9 10 5
25 -7 27 11 36 20 10 4 -8 10 -15 15 -15 5 0 3 14 -6 30 -18 35 -16 34 -40 17z"/>
<path d="M3576 5155 c4 -8 10 -15 15 -15 5 0 9 7 9 15 0 8 -7 15 -15 15 -9 0
-12 -6 -9 -15z"/>
<path d="M2490 5134 c0 -22 28 -54 48 -54 7 0 12 14 12 30 0 17 -4 30 -10 30
-5 0 -10 -8 -10 -17 0 -15 -4 -13 -20 7 -19 24 -20 24 -20 4z"/>
<path d="M2307 5124 c-10 -10 34 -74 51 -74 12 0 11 5 -6 23 -12 13 -22 28
-22 35 0 13 -15 24 -23 16z"/>
<path d="M2656 5105 c4 -8 8 -15 10 -15 2 0 4 7 4 15 0 8 -4 15 -10 15 -5 0
-7 -7 -4 -15z"/>
<path d="M2807 5103 c-4 -3 -7 -12 -7 -20 0 -11 5 -11 20 -3 11 6 20 15 20 20
0 11 -23 13 -33 3z"/>
<path d="M2855 5100 c3 -5 8 -10 11 -10 2 0 4 5 4 10 0 6 -5 10 -11 10 -5 0
-7 -4 -4 -10z"/>
<path d="M2200 5099 c0 -5 12 -28 62 -122 5 -10 12 -17 14 -14 3 2 -7 26 -20
53 -25 49 -55 94 -56 83z"/>
<path d="M2590 5067 c0 -25 27 -42 45 -27 16 14 20 40 6 40 -5 0 -11 -6 -14
-12 -3 -10 -7 -10 -20 1 -15 11 -17 11 -17 -2z"/>
<path d="M2483 5048 c-27 -13 -29 -23 -8 -32 9 -3 24 2 35 11 36 31 19 43 -27
21z"/>
<path d="M2670 5028 c0 -9 -3 -23 -6 -32 -3 -9 -2 -16 4 -16 14 0 21 35 11 51
-7 11 -9 11 -9 -3z"/>
<path d="M2400 5011 c0 -5 9 -13 20 -16 11 -3 20 -13 20 -21 0 -8 7 -14 15
-14 20 0 19 15 -2 40 -18 20 -53 28 -53 11z"/>
<path d="M3115 4970 c-7 -11 43 -46 52 -36 7 7 -25 46 -38 46 -4 0 -10 -4 -14
-10z"/>
<path d="M2560 4919 c17 -14 26 -17 28 -9 5 14 -16 30 -38 30 -10 -1 -7 -7 10
-21z"/>
<path d="M2409 4903 c13 -25 61 -69 61 -56 0 13 -51 73 -63 73 -4 0 -3 -8 2
-17z"/>
<path d="M3120 4910 c0 -5 5 -10 10 -10 6 0 10 5 10 10 0 6 -4 10 -10 10 -5 0
-10 -4 -10 -10z"/>
<path d="M2523 4896 c-7 -12 -13 -15 -17 -7 -13 20 -27 12 -16 -9 13 -23 38
-26 46 -5 10 24 -1 42 -13 21z"/>
<path d="M3077 4904 c-7 -8 4 -44 14 -44 12 0 12 37 0 44 -4 3 -11 3 -14 0z"/>
<path d="M3157 4873 c-3 -5 -2 -15 2 -22 5 -7 11 -9 14 -4 3 5 2 15 -2 22 -5
7 -11 9 -14 4z"/>
<path d="M2502 4294 c-40 -28 -22 -94 26 -94 30 0 72 32 72 54 0 36 -66 63
-98 40z m48 -24 c0 -11 -40 -34 -47 -26 -3 3 -3 12 0 21 7 16 47 21 47 5z"/>
<path d="M6040 6511 c0 -5 16 -16 36 -26 20 -9 33 -19 30 -22 -3 -3 -25 4 -50
16 -60 29 -147 30 -209 2 -46 -21 -64 -37 -53 -48 3 -3 11 -2 18 3 60 45 199
51 253 12 6 -4 30 -10 53 -14 l43 -7 -17 29 c-20 36 -104 80 -104 55z"/>
<path d="M5835 6430 c-9 -14 49 -29 108 -28 32 0 63 -4 70 -11 6 -6 18 -11 27
-11 9 0 3 8 -15 20 -17 11 -47 20 -70 20 -22 0 -57 4 -78 9 -20 5 -39 5 -42 1z"/>
<path d="M8749 5068 c0 -7 0 -45 0 -84 0 -39 -4 -86 -9 -104 -11 -38 -9 -43
14 -34 12 4 16 19 16 55 0 29 4 49 11 49 7 0 9 9 5 24 -3 14 -1 26 5 28 8 3 6
15 -4 41 -16 36 -36 50 -38 25z"/>
<path d="M8694 4966 c-10 -25 0 -38 13 -17 8 13 9 22 3 26 -6 4 -13 -1 -16 -9z"/>
<path d="M8222 4949 c1 -13 8 -23 13 -21 15 3 12 35 -3 40 -9 3 -13 -3 -10
-19z"/>
<path d="M8178 4953 c6 -2 18 -2 25 0 6 3 1 5 -13 5 -14 0 -19 -2 -12 -5z"/>
<path d="M5940 4940 c0 -5 18 -21 39 -36 38 -25 51 -47 51 -91 0 -12 9 -37 19
-55 11 -18 29 -67 41 -108 35 -120 35 -120 12 -120 -43 0 -52 10 -52 59 0 25
-11 78 -25 116 -13 39 -25 81 -25 95 -1 23 -2 23 -11 7 -8 -14 -5 -36 14 -90
26 -73 30 -96 28 -132 -1 -17 -5 -15 -29 13 -25 30 -29 32 -41 18 -7 -9 -13
-34 -13 -56 l1 -40 -57 -2 c-47 -1 -50 -2 -17 -5 22 -3 46 -10 54 -16 11 -9
15 -9 18 1 3 7 22 12 48 12 34 0 47 -5 55 -20 6 -11 8 -25 5 -30 -4 -6 1 -13
10 -17 15 -5 16 -15 11 -65 -5 -37 -4 -58 2 -54 5 3 13 30 16 59 6 45 4 60
-15 91 l-22 38 29 -4 c21 -2 29 -8 27 -22 -1 -17 4 -18 59 -12 34 3 102 6 152
7 70 1 84 3 61 10 -32 9 -168 5 -222 -6 -22 -5 -33 -4 -33 4 0 6 7 11 15 11
16 0 75 75 75 94 0 6 -10 -4 -21 -21 -20 -31 -39 -43 -39 -25 0 14 30 71 41
77 5 4 14 16 20 28 6 14 -2 9 -25 -15 -33 -34 -35 -35 -39 -15 -4 22 -4 22 -6
0 0 -13 -5 -23 -10 -23 -12 0 -25 121 -18 172 4 27 2 37 -5 30 -11 -11 -13
-81 -3 -145 7 -49 -8 -32 -20 22 -4 19 -18 54 -31 79 -13 25 -24 61 -24 80 0
26 -8 41 -32 64 -42 37 -68 52 -68 38z m90 -412 c0 -5 -14 -8 -30 -8 -35 0
-45 17 -35 57 l7 28 29 -35 c15 -19 29 -38 29 -42z"/>
<path d="M8705 4921 c-6 -11 9 -23 19 -14 9 9 7 23 -3 23 -6 0 -12 -4 -16 -9z"/>
<path d="M5910 4912 c0 -13 59 -66 66 -59 9 8 -38 66 -53 66 -7 1 -13 -3 -13
-7z"/>
<path d="M8108 4913 c-10 -2 -18 -9 -18 -14 0 -6 4 -8 9 -5 12 8 28 -14 33
-43 1 -14 8 -26 15 -28 8 -3 11 5 8 26 -5 41 -15 71 -23 70 -4 -1 -15 -3 -24
-6z"/>
<path d="M6169 4853 c-6 -61 -5 -129 0 -151 6 -19 8 -5 9 46 0 40 4 82 7 92 4
12 2 20 -4 20 -6 0 -11 -3 -12 -7z"/>
<path d="M8168 4797 l-27 -30 -12 26 c-15 32 -34 35 -49 6 -17 -30 -5 -64 27
-79 41 -19 12 -24 -32 -6 -72 30 -75 -6 -5 -49 48 -29 50 -31 50 -77 0 -25 3
-53 6 -62 5 -13 -2 -16 -45 -16 -28 0 -51 -4 -51 -10 0 -5 20 -10 45 -10 43 0
45 -1 45 -30 0 -24 -4 -30 -22 -31 -13 0 -32 -2 -43 -5 -11 -2 -144 -11 -295
-19 -151 -9 -288 -17 -305 -19 -16 -2 -38 -4 -47 -5 -10 0 -18 -5 -18 -9 0 -4
48 -7 108 -5 194 4 466 14 497 17 39 4 107 8 121 7 6 -1 14 -25 17 -54 5 -42
2 -67 -19 -122 -14 -39 -26 -90 -27 -115 -2 -43 -3 -45 -34 -48 -35 -3 -46
-22 -14 -22 26 0 34 -15 22 -37 -14 -26 -51 -140 -51 -158 0 -9 -11 -20 -25
-27 -34 -15 -57 -69 -55 -131 1 -29 1 -64 1 -79 l-1 -28 -132 -1 c-263 -2
-270 -3 -251 -17 14 -10 67 -12 213 -11 107 1 210 4 228 6 37 6 43 23 8 23
-49 0 -52 5 -46 88 6 79 31 142 57 142 7 0 15 12 19 28 3 15 14 50 24 77 11
28 23 66 28 85 7 30 12 35 38 35 23 0 30 -5 32 -23 2 -13 9 -21 15 -19 15 5
11 41 -9 85 -9 18 -18 45 -20 59 -3 15 -7 29 -9 32 -1 3 7 37 19 75 19 58 21
76 12 113 -7 32 -7 50 2 63 9 14 8 19 -3 24 -15 5 -16 31 -2 54 5 7 29 12 58
12 37 0 49 4 49 15 0 13 -7 15 -37 9 -41 -7 -40 -7 -65 -5 -26 2 -20 118 7
134 11 6 33 23 48 39 23 23 26 31 17 48 -16 29 -27 25 -55 -20 -14 -22 -27
-40 -30 -40 -3 0 -5 18 -5 41 0 22 4 38 8 35 10 -6 55 51 50 63 -2 4 -15 -6
-30 -22z m-50 -19 c16 -16 15 -38 -2 -38 -13 0 -26 20 -26 41 0 13 14 11 28
-3z m92 -62 c0 -7 -7 -19 -15 -26 -16 -13 -20 -3 -9 24 8 20 24 21 24 2z m-80
-648 c0 -10 -7 -18 -15 -18 -11 0 -15 11 -15 38 1 35 2 36 15 18 8 -11 15 -28
15 -38z"/>
<path d="M8739 4755 c-19 -32 -25 -35 -69 -35 -41 0 -53 -5 -90 -38 -27 -23
-41 -43 -36 -50 17 -27 98 -4 155 44 l31 26 0 -26 c0 -33 -14 -40 -155 -76
-87 -22 -126 -38 -153 -60 -31 -25 -45 -30 -90 -30 -33 0 -51 -4 -47 -10 3 -5
19 -10 34 -10 15 0 36 -9 46 -20 29 -33 98 -27 165 13 102 62 105 60 37 -31
-22 -29 -38 -55 -35 -58 7 -6 54 14 91 39 24 17 27 17 27 2 0 -9 8 -30 17 -46
16 -27 16 -33 -1 -102 l-18 -73 25 -41 c14 -22 32 -66 41 -98 17 -65 20 -70
39 -62 11 4 13 14 6 44 -5 21 -11 50 -14 66 -4 18 -12 27 -24 27 -21 0 -36 39
-21 54 6 6 10 32 10 58 0 28 5 48 11 48 7 0 8 7 4 18 -4 9 -9 37 -12 62 -5 48
-23 80 -23 41 0 -12 -4 -19 -10 -16 -17 10 -11 44 9 54 10 6 21 24 24 41 8 36
27 40 27 6 0 -29 24 -56 49 -56 10 0 32 -7 49 -16 24 -11 36 -13 52 -4 26 14
26 30 -1 23 -11 -3 -36 3 -55 13 -29 16 -34 24 -34 53 0 19 -3 31 -7 27 -8 -8
-9 -13 -12 -42 -2 -30 -21 -2 -21 32 0 43 23 54 53 27 28 -26 113 -73 132 -73
20 0 65 -22 65 -32 0 -4 -13 -8 -30 -8 -31 0 -43 -19 -12 -21 9 -1 35 -3 58
-5 35 -3 43 0 54 21 12 22 11 30 -3 60 -18 37 -75 78 -122 88 -50 10 -105 36
-105 51 0 8 -9 16 -21 19 -11 3 -23 15 -26 26 -3 12 -14 21 -24 21 -15 0 -17
6 -12 35 3 19 3 35 -1 35 -4 0 -16 -16 -27 -35z m-59 -64 c0 -12 -88 -46 -97
-38 -3 4 4 16 17 27 23 20 80 28 80 11z m90 -8 c0 -5 -5 -15 -10 -23 -7 -12
-9 -10 -7 8 1 19 17 33 17 15z m-50 -70 c-1 -15 -27 -43 -41 -43 -7 0 -57 -22
-111 -50 -62 -32 -110 -50 -132 -50 -92 0 -27 66 97 99 45 12 102 28 127 36
56 16 60 17 60 8z m215 -34 c83 -32 115 -53 115 -76 0 -15 -26 -18 -35 -3 -3
5 -30 17 -59 25 -46 14 -146 69 -146 81 0 12 55 0 125 -27z m-235 -47 c0 -5
-24 -29 -54 -55 -51 -44 -76 -57 -76 -39 1 10 65 78 87 91 22 13 43 14 43 3z
m-6 -244 c-7 -59 -23 -99 -24 -60 0 26 20 112 27 112 2 0 1 -24 -3 -52z"/>
<path d="M6845 4530 c3 -5 8 -10 11 -10 2 0 4 5 4 10 0 6 -5 10 -11 10 -5 0
-7 -4 -4 -10z"/>
<path d="M7570 4506 c5 -7 74 -12 180 -14 138 -3 171 -1 168 10 -4 10 -45 13
-181 14 -125 0 -174 -3 -167 -10z"/>
<path d="M6528 4505 c-3 -3 -26 -6 -52 -7 -30 0 -45 -5 -43 -12 2 -6 17 -10
33 -9 16 1 68 3 117 4 56 2 86 6 84 13 -4 11 -129 21 -139 11z"/>
<path d="M7460 4500 c-8 -5 -12 -11 -10 -13 8 -8 70 5 70 14 0 12 -41 11 -60
-1z"/>
<path d="M6115 4378 c-4 -29 -7 -74 -6 -100 0 -26 -3 -50 -9 -53 -5 -3 -10 2
-10 12 0 10 -8 27 -16 38 -16 20 -16 19 -11 -5 2 -14 7 -32 11 -41 6 -14 -4
-17 -66 -22 -40 -3 -117 -3 -171 1 -54 4 -101 4 -103 0 -10 -16 190 -28 267
-15 26 4 54 4 63 1 23 -9 20 -33 -6 -44 -23 -9 -23 -9 -2 -15 11 -4 25 -20 31
-36 6 -16 16 -29 21 -29 8 0 25 349 17 358 -1 1 -6 -21 -10 -50z m-18 -220
c-3 -8 -6 -5 -6 6 -1 11 2 17 5 13 3 -3 4 -12 1 -19z"/>
<path d="M8811 4401 c-17 -11 -6 -17 45 -26 28 -4 44 -2 49 5 4 6 5 13 4 14
-11 9 -86 14 -98 7z"/>
<path d="M6247 4373 c-3 -4 39 -9 94 -11 54 -1 99 1 99 6 0 11 -187 16 -193 5z"/>
<path d="M6300 4250 c-11 -7 3 -10 47 -10 34 0 65 -5 68 -10 5 -8 11 -7 21 1
7 6 12 14 9 18 -6 11 -128 12 -145 1z"/>
<path d="M8796 4242 c-11 -11 6 -22 34 -22 16 0 33 -7 38 -16 6 -11 16 -14 31
-9 25 8 29 28 4 23 -10 -2 -23 3 -30 11 -11 15 -66 24 -77 13z"/>
<path d="M8430 4231 c-50 -9 -23 -21 44 -19 39 1 56 6 56 15 0 14 -37 15 -100
4z"/>
<path d="M7544 4130 c-49 -7 -192 -16 -287 -19 -10 -1 -16 -5 -13 -10 6 -9
187 -5 369 8 9 0 17 8 17 16 0 8 -6 14 -12 14 -7 -1 -40 -5 -74 -9z"/>
<path d="M8648 4064 c-5 -4 -8 -17 -8 -28 0 -12 -9 -48 -20 -80 -21 -63 -26
-101 -11 -92 12 8 53 163 49 187 -2 12 -6 17 -10 13z"/>
<path d="M8370 4040 l-25 -7 25 -10 c14 -6 34 -7 45 -3 21 7 75 13 138 14 20
0 37 4 37 8 0 10 -186 9 -220 -2z"/>
<path d="M6076 4024 c-3 -9 -6 -29 -6 -46 0 -19 -8 -37 -22 -49 l-23 -19 30 6
c17 4 31 7 31 8 1 1 4 27 6 59 4 55 -3 74 -16 41z"/>
<path d="M5641 4022 c-1 -7 8 -16 18 -20 30 -11 281 -3 281 9 0 7 -49 10 -145
7 -91 -2 -147 1 -149 7 -3 6 -5 4 -5 -3z"/>
<path d="M7755 4010 c-16 -4 -47 -8 -67 -9 -21 0 -38 -5 -38 -11 0 -6 38 -10
95 -10 75 0 95 3 95 14 0 25 -30 30 -85 16z"/>
<path d="M5970 3984 c0 -8 9 -14 20 -14 11 0 20 4 20 9 0 5 -9 11 -20 14 -13
3 -20 0 -20 -9z"/>
<path d="M8662 3958 c-17 -36 -24 -78 -12 -78 5 0 10 10 10 23 0 13 7 32 15
43 16 22 19 34 7 34 -5 0 -14 -10 -20 -22z"/>
<path d="M8769 3943 c-4 -64 8 -116 24 -110 12 4 15 83 4 111 -8 21 -27 20
-28 -1z"/>
<path d="M6335 3940 c3 -5 15 -10 26 -10 10 0 19 5 19 10 0 6 -12 10 -26 10
-14 0 -23 -4 -19 -10z"/>
<path d="M8686 3901 c-4 -7 -5 -15 -2 -18 9 -9 19 4 14 18 -4 11 -6 11 -12 0z"/>
<path d="M6338 3885 c-2 -3 -25 -6 -49 -8 -38 -3 -44 -6 -48 -27 -3 -24 -2
-24 17 -7 11 10 36 21 56 24 20 3 36 10 36 14 0 10 -4 11 -12 4z"/>
<path d="M5676 3860 c31 -20 134 -35 212 -31 45 2 20 17 -31 17 -30 1 -78 7
-108 13 -108 24 -108 24 -73 1z"/>
<path d="M6073 3837 c5 -35 3 -44 -12 -52 -63 -34 -121 -71 -121 -77 0 -17 30
-6 71 27 50 40 75 45 65 15 -3 -11 -9 -30 -12 -42 -6 -23 -6 -23 14 1 15 19
18 35 15 75 -3 28 -5 61 -5 74 0 12 -5 22 -10 22 -7 0 -8 -16 -5 -43z"/>
<path d="M7128 3865 c-3 -3 -59 -8 -124 -11 -154 -6 -222 -13 -229 -24 -3 -5
53 -7 132 -3 209 9 298 17 298 28 0 11 -67 20 -77 10z"/>
<path d="M8153 3847 c-63 -5 -113 -14 -113 -19 0 -7 20 -8 58 -3 31 5 98 9
147 11 107 2 104 2 85 14 -17 11 -20 11 -177 -3z"/>
<path d="M6360 3841 c0 -5 5 -13 10 -16 6 -3 10 -2 10 4 0 5 -4 13 -10 16 -5
3 -10 2 -10 -4z"/>
<path d="M8726 3842 c-3 -6 -8 -25 -10 -42 -4 -37 -66 -105 -103 -115 -40 -10
-147 -95 -119 -95 2 0 34 20 70 45 37 25 72 45 78 45 7 0 20 8 31 18 19 16 20
16 13 -8 -3 -14 -16 -56 -28 -95 -11 -38 -20 -90 -20 -115 1 -24 -4 -51 -12
-60 -7 -8 -20 -36 -30 -62 -18 -48 -104 -138 -153 -161 -13 -6 -23 -14 -23
-19 0 -17 27 -7 60 22 19 16 39 29 44 30 5 0 6 -27 3 -60 -3 -33 -2 -60 3 -60
12 0 22 102 11 113 -7 7 0 23 22 51 19 23 42 56 52 74 11 17 23 32 28 32 11 0
-1 -224 -14 -258 -5 -13 -9 -34 -9 -47 0 -29 -25 -109 -45 -146 -8 -14 -12
-29 -9 -32 12 -12 44 35 55 80 7 27 16 54 22 61 12 15 17 87 17 252 1 175 0
181 -10 199 -6 11 -3 27 10 51 36 70 52 113 56 152 2 22 6 43 8 47 12 18 23
90 16 101 -5 8 -10 9 -14 2z"/>
<path d="M8800 3810 c0 -5 6 -10 14 -10 8 0 18 5 21 10 3 6 -3 10 -14 10 -12
0 -21 -4 -21 -10z"/>
<path d="M7311 3767 c-8 -10 -9 -17 -2 -22 6 -3 105 -7 221 -9 170 -2 210 0
210 11 0 10 -21 13 -82 14 -244 3 -295 5 -314 13 -14 5 -24 3 -33 -7z"/>
<path d="M8030 3740 c0 -37 24 -150 32 -150 12 0 10 26 -8 86 -9 31 -13 62
-10 70 3 7 1 14 -4 14 -6 0 -10 -9 -10 -20z"/>
<path d="M8360 3735 c0 -8 4 -15 9 -15 5 0 16 -3 25 -6 10 -4 16 -1 16 9 0 14
-20 27 -41 27 -5 0 -9 -7 -9 -15z"/>
<path d="M6128 3729 c11 -10 112 -17 112 -8 0 9 -51 18 -92 16 -15 -1 -24 -5
-20 -8z"/>
<path d="M8210 3730 c0 -5 11 -10 24 -10 13 0 38 -3 55 -6 24 -5 31 -3 31 10
0 13 -11 16 -55 16 -30 0 -55 -4 -55 -10z"/>
<path d="M6678 3703 c-21 -2 -38 -9 -38 -14 0 -6 14 -7 33 -4 17 3 47 7 64 8
18 1 33 5 33 10 0 7 -22 7 -92 0z"/>
<path d="M5767 3663 c-2 -1 -42 -3 -90 -4 -51 -1 -87 -6 -87 -12 0 -7 53 -8
157 -3 162 7 232 23 98 22 -42 0 -77 -2 -78 -3z"/>
<path d="M6760 3629 c-41 -5 -92 -6 -112 -3 -39 6 -54 -10 -18 -19 21 -5 168
1 208 9 23 5 32 25 10 23 -7 -1 -47 -6 -88 -10z"/>
<path d="M6008 3613 c-13 -15 -29 -90 -32 -153 -1 -12 -21 -16 -91 -21 -49 -4
-107 -2 -127 3 -27 6 -45 5 -60 -4 -21 -11 -19 -13 32 -19 30 -4 96 -4 145 1
50 4 93 5 97 2 3 -4 8 -83 10 -177 l3 -170 -90 -3 c-49 -1 -97 -5 -105 -8 -32
-13 26 -23 99 -17 65 5 76 4 88 -12 12 -17 13 -17 13 -2 0 22 13 22 33 -1 10
-11 17 -35 17 -60 0 -42 14 -62 32 -44 6 6 6 12 -1 16 -6 4 -11 25 -11 46 0
21 -4 42 -10 45 -24 15 -6 24 48 24 77 -1 174 11 170 22 -4 11 -10 11 -63 4
-73 -9 -174 -12 -184 -5 -11 6 -30 208 -23 230 2 6 13 -2 23 -19 18 -30 39
-41 39 -21 0 6 -4 10 -10 10 -5 0 -10 12 -10 26 0 16 -11 36 -25 50 -25 23
-31 44 -18 57 3 4 8 41 9 82 2 48 8 82 18 97 27 38 14 55 -16 21z"/>
<path d="M8448 3553 c-10 -2 -18 -10 -18 -18 0 -10 9 -11 34 -5 19 4 55 5 80
3 48 -6 65 10 24 21 -26 6 -94 6 -120 -1z"/>
<path d="M5911 3502 c-7 -13 -11 -28 -8 -35 2 -7 9 -2 16 11 7 13 11 28 8 35
-2 7 -9 2 -16 -11z"/>
<path d="M8595 3490 c-10 -11 -15 -20 -11 -20 11 0 39 30 34 36 -3 2 -13 -5
-23 -16z"/>
<path d="M6976 3488 c3 -5 -28 -8 -68 -7 -105 2 -293 -29 -276 -46 3 -3 52 2
109 10 57 8 161 15 231 15 74 0 129 4 133 10 8 13 -7 18 -77 23 -31 2 -55 0
-52 -5z"/>
<path d="M8025 3479 c-10 -15 3 -25 16 -12 7 7 7 13 1 17 -6 3 -14 1 -17 -5z"/>
<path d="M1878 3445 c-2 -2 -45 -6 -96 -9 -51 -3 -100 -10 -110 -14 -17 -9
-175 -30 -269 -36 -28 -2 -56 -6 -61 -10 -5 -3 -12 1 -15 8 -8 19 -72 3 -103
-25 -24 -23 -35 -24 -28 -4 4 8 1 15 -6 15 -6 0 -14 -9 -17 -20 -3 -11 -13
-20 -23 -20 -10 0 -30 -6 -45 -14 l-28 -15 28 -7 c16 -4 36 -2 45 4 9 5 23 7
30 2 7 -5 23 -5 34 -1 12 4 55 4 96 -1 41 -4 134 -10 205 -14 72 -3 141 -6
155 -7 54 -2 100 3 100 13 0 6 -36 7 -95 3 -68 -4 -95 -3 -95 5 0 7 11 14 25
18 14 3 23 10 20 14 -6 10 90 24 105 15 5 -3 10 -2 10 3 0 17 -44 22 -102 12
-31 -5 -82 -6 -113 -4 -38 4 -55 2 -50 -5 3 -6 -1 -11 -9 -11 -10 0 -13 6 -10
15 7 18 2 17 90 20 40 2 81 8 92 14 25 13 79 14 87 2 11 -18 89 -22 130 -7 40
15 39 15 -43 10 -70 -4 -81 -2 -71 9 7 7 34 15 59 16 67 3 119 15 98 23 -9 4
-18 5 -20 3z m-504 -85 c-12 -5 -25 -13 -29 -19 -3 -6 -15 -11 -26 -11 -30 0
-17 24 17 31 43 10 62 9 38 -1z m-89 -30 c3 -5 1 -10 -4 -10 -6 0 -11 5 -11
10 0 6 2 10 4 10 3 0 8 -4 11 -10z m291 -12 c-27 -15 -186 -24 -186 -10 0 13
23 17 125 19 60 1 75 -1 61 -9z"/>
<path d="M737 3418 c-9 -12 -21 -36 -29 -53 -14 -32 -22 -45 -52 -77 -16 -18
-16 -22 -4 -35 13 -12 21 -2 63 82 26 53 45 98 42 101 -3 3 -12 -5 -20 -18z"/>
<path d="M8259 3394 c-18 -9 -69 -14 -155 -15 -71 -1 -138 -6 -149 -10 -27
-10 -24 -11 159 -12 121 -2 163 1 173 11 28 29 10 46 -28 26z"/>
<path d="M960 3365 c-9 -11 -34 -15 -94 -15 -99 0 -121 -13 -137 -76 l-12 -46
-86 2 c-118 3 -145 1 -137 -7 7 -7 19 -11 71 -20 17 -3 35 -9 40 -13 12 -8
594 -4 603 4 11 11 -5 14 -138 21 -74 4 -136 8 -138 10 -2 2 4 17 12 34 9 16
16 36 16 43 0 7 17 21 37 31 30 15 34 16 24 3 -11 -13 -11 -16 1 -16 8 0 23 6
33 14 18 13 17 15 -19 30 -48 20 -60 20 -76 1z m-120 -50 c0 -8 -6 -33 -12
-55 -11 -34 -17 -40 -40 -40 -16 0 -28 2 -28 4 0 9 33 82 42 94 14 17 38 15
38 -3z m85 -12 c-4 -16 -8 -40 -8 -55 -2 -23 -7 -28 -29 -28 -34 0 -34 7 -6
65 25 51 55 63 43 18z"/>
<path d="M645 3334 c-22 -20 -50 -43 -62 -51 -24 -16 -30 -33 -13 -33 13 0
126 108 119 114 -3 3 -23 -11 -44 -30z"/>
<path d="M1096 3354 c-17 -17 -21 -34 -8 -34 5 0 19 11 32 25 19 20 20 25 7
25 -8 0 -23 -7 -31 -16z"/>
<path d="M6460 3343 c-96 -6 -150 -15 -150 -23 0 -12 172 1 200 16 14 7 18 13
10 12 -8 -1 -35 -3 -60 -5z"/>
<path d="M7784 3341 c-15 -14 -182 -30 -314 -31 -104 -1 -289 -6 -337 -9 -7
-1 -13 -6 -13 -13 0 -8 46 -9 178 -4 97 4 222 8 277 10 102 3 221 22 230 37 8
11 -10 20 -21 10z"/>
<path d="M2190 3316 c-13 -35 -43 -96 -60 -123 -8 -12 -12 -24 -10 -27 10 -10
595 -11 595 -1 0 13 7 13 -268 14 l-239 1 6 28 c3 15 6 49 8 76 3 56 -16 74
-32 32z"/>
<path d="M1030 3290 c0 -5 7 -10 15 -10 8 0 15 5 15 10 0 6 -7 10 -15 10 -8 0
-15 -4 -15 -10z"/>
<path d="M3123 3203 l-9 -38 -134 3 c-74 2 -148 6 -165 9 -29 5 -29 4 -12 -13
14 -15 34 -19 95 -20 42 0 122 -2 177 -4 l100 -3 1 29 c1 36 -15 74 -32 74 -6
0 -16 -17 -21 -37z"/>
<path d="M1349 3199 c-7 -4 -11 -10 -9 -13 10 -9 445 -11 450 -1 3 6 -29 11
-85 12 -49 1 -147 4 -216 6 -70 3 -133 1 -140 -4z"/>
<path d="M1883 3194 c-33 -14 -6 -24 67 -24 47 0 80 4 80 10 0 6 -15 10 -32
10 -18 0 -49 2 -68 5 -19 2 -41 2 -47 -1z"/>
<path d="M205 3170 c-11 -18 15 -40 47 -40 25 0 49 23 37 35 -12 11 -78 15
-84 5z"/>
<path d="M414 3165 c-17 -14 -12 -15 65 -13 57 2 86 7 89 16 6 19 -129 16
-154 -3z"/>
<path d="M1178 3163 c-131 -5 -111 -24 22 -22 61 1 110 5 110 9 0 9 -28 21
-38 18 -4 -1 -46 -4 -94 -5z"/>
<path d="M790 3151 c0 -8 176 -21 189 -14 1 1 0 6 -4 12 -8 14 -185 15 -185 2z"/>
<path d="M1909 3139 c-5 -3 0 -14 12 -25 20 -18 21 -18 31 0 9 16 19 17 89 11
55 -5 79 -4 79 4 0 6 -12 11 -27 12 -99 4 -176 3 -184 -2z"/>
<path d="M3290 3142 c0 -11 342 -23 353 -12 5 4 -9 10 -30 13 -62 9 -323 8
-323 -1z"/>
<path d="M1536 3131 c-4 -5 -1 -11 6 -13 18 -6 58 3 58 13 0 12 -57 12 -64 0z"/>
<path d="M3754 3129 c-3 -5 -17 -9 -32 -9 -20 0 -23 -3 -14 -12 8 -8 34 -9 99
-1 81 10 202 9 281 -1 23 -4 32 -1 32 10 0 9 -11 14 -32 15 -199 6 -329 5
-334 -2z"/>
<path d="M1188 3122 c-21 -2 -38 -8 -38 -13 0 -7 39 -8 108 -5 59 3 110 6 115
6 4 0 7 5 7 10 0 10 -96 11 -192 2z"/>
<path d="M2284 3118 c-6 -9 124 -14 166 -7 l35 6 -30 3 c-59 6 -167 5 -171 -2z"/>
<path d="M4280 3121 c-68 -9 -37 -19 74 -22 73 -3 100 -1 103 9 3 8 -9 12 -44
12 -26 0 -57 2 -68 4 -11 2 -40 1 -65 -3z"/>
<path d="M1110 3109 c0 -5 5 -7 10 -4 6 3 10 8 10 11 0 2 -4 4 -10 4 -5 0 -10
-5 -10 -11z"/>
<path d="M3205 3111 c-3 -6 2 -11 12 -12 10 0 35 -1 56 -3 20 -2 37 1 37 6 0
10 5 8 -52 14 -27 3 -49 1 -53 -5z"/>
<path d="M1715 3103 c-66 -10 -41 -20 50 -20 63 0 94 4 92 11 -4 11 -90 17
-142 9z"/>
<path d="M2932 3098 c-21 -8 -19 -8 96 -12 51 -2 90 0 86 3 -9 9 -162 17 -182
9z"/>
<path d="M3437 3100 c23 -5 54 -5 70 0 21 6 12 8 -42 8 -64 0 -66 -1 -28 -8z"/>
<path d="M7480 3099 c-51 -9 -80 -23 -69 -33 2 -3 22 0 44 6 23 6 164 11 334
12 226 1 295 4 298 14 4 9 -36 12 -179 11 -100 0 -207 -4 -235 -8 -29 -4 -53
-4 -53 1 0 10 -68 9 -140 -3z"/>
<path d="M2113 3092 c-104 -6 -50 -17 82 -17 74 0 135 2 135 5 0 3 -12 6 -27
6 -16 1 -53 3 -83 5 -30 2 -79 3 -107 1z"/>
<path d="M2463 3093 c-7 -2 -13 -8 -13 -11 0 -10 306 -9 316 1 4 4 -15 7 -42
8 -27 1 -94 2 -149 4 -55 2 -106 1 -112 -2z"/>
<path d="M3838 3089 c-5 -3 -1 -8 9 -10 21 -5 213 6 198 10 -19 6 -197 6 -207
0z"/>
<path d="M963 3082 c-54 -5 -37 -19 31 -26 63 -6 96 -1 96 14 0 9 -79 17 -127
12z"/>
<path d="M3620 3082 c-87 -5 -79 -18 15 -26 87 -6 165 0 165 14 0 10 -102 16
-180 12z"/>
<path d="M8296 3081 c-3 -5 -3 -16 0 -25 5 -13 26 -16 135 -16 137 0 182 16
52 19 -143 2 -182 5 -172 12 8 4 8 9 1 13 -6 3 -13 2 -16 -3z"/>
<path d="M710 3070 c0 -5 9 -10 21 -10 11 0 17 5 14 10 -3 6 -13 10 -21 10 -8
0 -14 -4 -14 -10z"/>
<path d="M6830 3071 c-22 -4 -35 -12 -35 -21 0 -8 7 -13 15 -12 8 2 64 5 124
7 107 4 132 9 109 23 -15 10 -166 12 -213 3z"/>
<path d="M1425 3055 c-19 -14 -16 -15 35 -13 61 3 75 21 20 26 -20 2 -43 -4
-55 -13z"/>
<path d="M3245 3060 c-7 -11 191 -7 202 4 4 3 -39 6 -95 6 -58 0 -104 -4 -107
-10z"/>
<path d="M3475 3060 c-19 -8 -19 -9 3 -9 12 -1 22 4 22 9 0 6 -1 10 -2 9 -2 0
-12 -4 -23 -9z"/>
<path d="M3870 3060 c0 -15 46 -19 206 -19 88 0 166 -1 174 -3 7 -2 15 3 17
10 4 9 -17 12 -84 12 -48 0 -139 2 -200 4 -62 1 -113 0 -113 -4z"/>
<path d="M575 3049 c-22 -4 -59 -6 -82 -2 -34 4 -43 2 -43 -10 0 -9 13 -17 33
-21 33 -6 142 6 153 17 7 7 -4 28 -14 26 -4 -1 -25 -5 -47 -10z"/>
<path d="M1735 3050 c-17 -7 -15 -9 12 -9 17 -1 39 -4 49 -8 12 -4 15 -2 12 8
-5 17 -45 22 -73 9z"/>
<path d="M4343 3053 c-7 -2 -13 -9 -13 -14 0 -12 87 -12 94 0 11 17 -49 27
-81 14z"/>
<path d="M1995 3040 c-4 -6 8 -10 29 -10 20 0 36 5 36 10 0 6 -13 10 -29 10
-17 0 -33 -4 -36 -10z"/>
<path d="M901 3030 c-65 -3 -96 -9 -99 -18 -3 -11 17 -12 104 -9 79 4 109 9
109 18 0 16 -2 16 -114 9z"/>
<path d="M2106 3030 c-20 -7 -20 -7 0 -11 10 -2 62 -2 114 2 52 3 86 7 75 8
-52 7 -172 7 -189 1z"/>
<path d="M2685 3030 c-4 -6 22 -10 69 -10 42 0 79 -1 83 -2 3 -2 8 3 11 10 5
15 -153 17 -163 2z"/>
<path d="M2985 3031 c-14 -6 -5 -9 35 -14 80 -10 148 -8 155 3 4 6 -19 10 -62
10 -37 0 -77 2 -88 5 -11 2 -29 1 -40 -4z"/>
<path d="M1303 3012 c-46 -2 -83 -7 -83 -12 0 -6 6 -10 13 -11 37 -2 162 3
166 7 13 13 -23 19 -96 16z"/>
<path d="M1613 3003 c-13 -2 -23 -9 -23 -14 0 -16 172 -7 178 9 3 9 -14 12
-65 11 -37 -1 -78 -4 -90 -6z"/>
<path d="M6435 3000 c-3 -5 -5 -10 -3 -10 79 -7 148 -4 148 7 0 16 -135 19
-145 3z"/>
<path d="M5952 2919 c-57 -129 -52 -123 -107 -131 -28 -3 -108 -9 -180 -12
-71 -3 -140 -8 -152 -12 -36 -10 -28 -27 10 -20 17 4 97 11 177 16 80 5 154
11 164 12 14 2 22 -5 27 -22 7 -24 7 -24 14 -3 4 11 16 24 28 27 20 5 21 6 4
18 -17 13 -17 17 8 73 15 33 31 70 37 82 6 11 8 27 6 33 -2 7 -18 -21 -36 -61z"/>
<path d="M434 2967 c-29 -16 -12 -24 59 -30 67 -5 97 2 97 23 0 11 -138 17
-156 7z"/>
<path d="M2083 2973 c-77 -3 -93 -6 -93 -20 0 -14 11 -15 88 -8 48 4 99 7 115
7 15 1 27 4 27 8 0 9 -28 21 -38 18 -4 -1 -49 -4 -99 -5z"/>
<path d="M2404 2945 c-19 -15 5 -16 161 -5 6 0 3 5 -5 10 -24 16 -134 12 -156
-5z"/>
<path d="M2870 2950 c-19 -12 -20 -12 73 -14 88 -2 103 8 25 18 -70 8 -80 7
-98 -4z"/>
<path d="M4080 2948 l-25 -11 23 -5 c30 -5 55 5 47 18 -8 12 -13 12 -45 -2z"/>
<path d="M800 2940 c-29 -20 11 -30 95 -23 81 6 93 8 82 19 -11 11 -162 15
-177 4z"/>
<path d="M1235 2940 c-20 -4 -26 -8 -17 -13 14 -9 106 2 97 12 -8 8 -41 8 -80
1z"/>
<path d="M4337 2944 c-8 -8 1 -24 14 -24 5 0 9 7 9 15 0 15 -12 20 -23 9z"/>
<path d="M3180 2899 c-6 -11 -8 -33 -5 -49 5 -22 2 -31 -14 -39 -10 -6 -22
-24 -26 -41 -6 -29 -21 -47 -31 -37 -3 2 2 24 10 48 8 24 14 45 12 46 -2 2
-18 -19 -36 -47 -39 -60 -53 -58 -21 3 l22 42 -43 -48 c-27 -30 -51 -47 -65
-47 -13 0 -23 -4 -23 -10 0 -5 7 -10 15 -10 18 0 20 -26 3 -37 -7 -4 -26 -6
-43 -4 -36 3 -24 -14 17 -24 22 -6 29 -3 34 11 10 27 45 64 56 58 4 -3 1 -15
-7 -27 -8 -12 -15 -30 -15 -40 0 -10 -4 -16 -9 -12 -5 3 -12 1 -15 -4 -9 -14
12 -24 53 -26 20 -2 44 -6 54 -10 10 -4 50 -5 88 -1 44 4 69 2 69 -4 0 -5 -6
-10 -13 -10 -7 0 -22 -7 -33 -16 -18 -14 -18 -15 6 -8 14 4 32 7 40 7 88 -2
138 -7 154 -15 12 -7 22 -6 29 1 14 14 -16 20 -141 30 -26 2 0 21 29 21 16 0
29 3 30 8 0 4 2 17 5 30 3 19 1 22 -20 16 -14 -3 -29 -3 -34 0 -6 3 0 49 13
110 20 96 20 107 6 130 -17 28 -41 35 -41 11 0 -11 -11 -15 -35 -15 -22 0 -38
6 -41 15 -8 21 -21 19 -34 -6z m110 -33 c0 -2 3 -12 7 -21 5 -14 2 -16 -15
-11 -18 6 -22 2 -27 -31 -13 -73 -43 -148 -61 -152 -17 -3 -17 -2 0 14 12 12
16 31 15 64 -3 66 28 141 59 141 12 0 22 -2 22 -4z m-180 -186 c0 -11 -7 -20
-15 -20 -15 0 -21 21 -8 33 12 13 23 7 23 -13z"/>
<path d="M3530 2913 c-52 -10 -39 -20 22 -18 35 1 65 6 68 11 6 10 -51 14 -90
7z"/>
<path d="M1345 2886 c-27 -6 -48 -16 -45 -21 3 -6 12 -9 20 -7 8 2 45 6 83 9
65 5 83 15 51 27 -21 8 -50 6 -109 -8z"/>
<path d="M7670 2897 c-3 -3 -32 -9 -65 -12 -33 -4 -62 -9 -64 -11 -12 -11 12
-12 84 -3 44 6 89 8 101 5 29 -8 284 -9 292 -2 3 3 3 8 1 10 -6 6 -343 18
-349 13z"/>
<path d="M3662 2878 c-24 -9 -17 -11 66 -13 48 -1 71 2 69 9 -4 12 -107 15
-135 4z"/>
<path d="M2191 2858 c-24 -4 -46 -9 -48 -11 -7 -8 193 -14 212 -7 19 7 18 8
-5 13 -49 11 -116 13 -159 5z"/>
<path d="M4197 2864 c-14 -14 3 -19 57 -16 31 2 56 8 56 13 0 10 -103 13 -113
3z"/>
<path d="M2528 2852 c-31 -4 -38 -21 -10 -23 65 -5 146 1 155 10 8 8 0 11 -28
13 -22 0 -51 2 -65 2 -14 1 -37 0 -52 -2z"/>
<path d="M2948 2843 c-81 -4 -111 -23 -35 -23 66 0 147 12 147 21 0 5 -8 8
-17 7 -10 -1 -53 -4 -95 -5z"/>
<path d="M6614 2839 c-9 -15 39 -19 239 -19 154 0 208 3 200 11 -12 12 -432
19 -439 8z"/>
<path d="M1643 2832 c-13 -2 -23 -8 -23 -14 0 -14 170 -1 185 13 9 10 -100 10
-162 1z"/>
<path d="M610 2809 c-22 -9 -23 -11 -8 -20 24 -13 97 -14 110 -1 8 8 4 14 -16
22 -33 12 -53 12 -86 -1z"/>
<path d="M1065 2811 c-4 -7 -5 -14 -2 -17 6 -7 168 -7 175 0 11 12 -7 17 -85
23 -57 4 -82 2 -88 -6z"/>
<path d="M3733 2784 c-30 -13 -8 -20 65 -20 47 1 75 5 72 11 -5 11 -117 18
-137 9z"/>
<path d="M8053 2743 c0 -21 -2 -47 -4 -57 -2 -10 2 -21 8 -23 8 -3 15 10 19
36 4 23 12 41 18 41 13 0 36 -46 36 -71 0 -9 7 -19 15 -22 11 -5 13 0 8 24 -4
21 0 35 12 49 17 19 17 20 -1 26 -11 3 -27 10 -37 15 -9 5 -29 6 -44 3 -18 -5
-24 -4 -19 5 4 6 3 11 -1 11 -5 0 -9 -17 -10 -37z"/>
<path d="M8375 2770 c3 -5 10 -10 16 -10 5 0 9 5 9 10 0 6 -7 10 -16 10 -8 0
-12 -4 -9 -10z"/>
<path d="M4145 2750 c-3 -5 0 -10 9 -10 8 0 21 -3 30 -6 11 -4 16 -1 16 10 0
18 -45 23 -55 6z"/>
<path d="M8300 2719 c0 -44 16 -68 40 -62 11 3 27 0 35 -7 12 -10 20 -9 40 4
30 20 33 40 5 31 -12 -4 -28 -1 -36 6 -11 9 -18 9 -26 1 -20 -20 -28 -13 -28
23 0 24 -5 35 -15 35 -10 0 -15 -10 -15 -31z"/>
<path d="M3383 2733 c-44 -8 -22 -23 32 -22 39 1 55 6 55 15 0 14 -37 17 -87
7z"/>
<path d="M2577 2714 c-13 -14 5 -24 44 -24 28 0 39 4 37 13 -5 13 -69 22 -81
11z"/>
<path d="M1510 2690 c-41 -10 -25 -25 25 -23 28 1 62 2 78 2 15 1 27 5 27 10
0 10 -98 19 -130 11z"/>
<path d="M2196 2691 c-9 -14 14 -18 79 -13 96 7 101 21 8 22 -45 0 -84 -4 -87
-9z"/>
<path d="M8250 2680 c0 -5 5 -10 10 -10 6 0 10 5 10 10 0 6 -4 10 -10 10 -5 0
-10 -4 -10 -10z"/>
<path d="M8510 2677 c0 -7 6 -22 14 -32 12 -16 18 -17 39 -8 20 10 28 9 37 -3
18 -21 51 -17 83 11 15 13 27 27 27 30 0 13 -27 3 -43 -15 -9 -11 -26 -20 -37
-20 -18 0 -19 3 -10 20 13 24 4 25 -43 5 -33 -13 -35 -13 -40 5 -6 22 -27 27
-27 7z"/>
<path d="M1220 2671 l-25 -7 22 -12 c26 -14 143 -16 143 -3 0 18 -100 34 -140
22z"/>
<path d="M932 2658 c3 -8 24 -14 52 -16 36 -2 47 0 44 10 -3 8 -24 14 -52 16
-36 2 -47 0 -44 -10z"/>
<path d="M6345 2660 c-15 -6 -5 -9 37 -15 52 -7 98 -1 86 10 -8 9 -104 13
-123 5z"/>
<path d="M7739 2666 c-2 -2 -75 -6 -163 -9 -87 -3 -161 -8 -164 -11 -15 -15
19 -17 177 -10 134 5 171 10 171 20 0 13 -11 19 -21 10z"/>
<path d="M1775 2634 c-27 -7 -54 -13 -58 -14 -5 0 -5 -5 -2 -10 7 -12 73 -3
91 12 7 5 22 4 38 -3 20 -10 29 -10 38 -1 6 6 10 13 7 15 -14 13 -71 13 -114
1z"/>
<path d="M6960 2641 c0 -13 37 -20 76 -14 58 9 49 23 -15 23 -34 0 -61 -4 -61
-9z"/>
<path d="M4160 2609 c-19 -4 -52 -5 -72 -2 -44 7 -52 -11 -10 -23 37 -11 65
-11 79 0 7 4 41 5 75 2 75 -8 78 -8 78 2 1 6 -17 11 -95 26 -11 2 -36 0 -55
-5z"/>
<path d="M8480 2604 c0 -8 5 -12 10 -9 6 3 10 10 10 16 0 5 -4 9 -10 9 -5 0
-10 -7 -10 -16z"/>
<path d="M8737 2613 c-12 -11 -8 -23 8 -23 8 0 15 7 15 15 0 16 -12 20 -23 8z"/>
<path d="M2792 2571 c-23 -4 -48 -13 -55 -20 -10 -11 -2 -11 43 -5 59 10 178
9 216 0 26 -7 33 8 9 18 -27 10 -169 15 -213 7z"/>
<path d="M3678 2562 c-49 -30 -30 -44 22 -17 21 11 48 14 95 10 49 -4 66 -2
63 7 -7 20 -147 20 -180 0z"/>
<path d="M1395 2545 c-22 -7 -38 -14 -35 -15 18 -7 220 -8 220 -1 0 8 -111 32
-136 30 -5 0 -27 -6 -49 -14z"/>
<path d="M634 2529 c-10 -17 2 -21 80 -23 72 -1 90 4 64 20 -18 12 -137 14
-144 3z"/>
<path d="M8067 2520 c-70 -4 -131 -11 -135 -15 -12 -12 308 1 321 14 12 12 19
12 -186 1z"/>
<path d="M2246 2498 c-20 -10 -36 -23 -36 -28 0 -14 17 -12 43 4 13 9 47 14
85 14 57 0 82 6 71 16 -2 2 -32 6 -66 8 -46 3 -70 0 -97 -14z"/>
<path d="M5793 2513 c-32 -12 -6 -18 84 -18 123 0 137 19 15 22 -48 1 -93 -1
-99 -4z"/>
<path d="M6825 2507 c-22 -4 -58 -6 -80 -4 -22 2 -65 0 -95 -4 -30 -5 -119
-11 -196 -14 -78 -2 -152 -9 -165 -13 -27 -10 164 -7 416 7 88 4 172 8 188 7
20 -2 27 2 27 16 0 20 -21 21 -95 5z"/>
<path d="M3337 2457 c-15 -5 -27 -13 -27 -18 0 -11 27 -12 34 0 3 4 29 6 57 3
41 -4 51 -2 47 9 -5 16 -70 20 -111 6z"/>
<path d="M714 2379 c-12 -19 12 -30 87 -38 72 -8 109 -1 109 19 0 12 -7 13
-92 10 -38 -1 -69 3 -73 9 -8 14 -22 14 -31 0z"/>
<path d="M2665 2379 c-10 -15 -6 -16 47 -11 27 2 45 8 42 13 -7 13 -81 11 -89
-2z"/>
<path d="M1825 2349 c-20 -12 -48 -19 -82 -19 -28 0 -55 -5 -58 -10 -12 -19
27 -23 89 -10 74 16 115 16 181 1 50 -12 95 -8 95 8 0 4 -24 11 -54 15 -29 3
-69 13 -89 21 -44 18 -45 18 -82 -6z"/>
<path d="M2975 2355 c-33 -11 -93 -21 -152 -24 -7 -1 -13 -5 -13 -11 0 -17 61
-10 231 26 16 4 40 -1 60 -12 22 -11 64 -18 119 -21 47 -2 95 -6 107 -8 12 -3
24 -1 28 5 8 13 -23 19 -122 24 -46 3 -96 12 -112 21 -37 18 -93 19 -146 0z"/>
<path d="M3547 2349 c-10 -6 -30 -13 -44 -15 -33 -6 -43 -12 -43 -25 0 -12 65
-1 102 17 23 12 36 12 89 -1 59 -13 79 -13 79 3 0 8 -115 32 -147 32 -10 0
-26 -5 -36 -11z"/>
<path d="M2327 2333 c-16 -3 -27 -9 -25 -14 4 -12 5 -12 76 -4 47 5 68 3 85
-7 38 -24 108 -41 120 -29 14 14 15 13 -69 39 -66 21 -120 25 -187 15z"/>
<path d="M1187 2284 c-2 -3 -17 -7 -33 -10 -60 -9 -74 -15 -74 -29 0 -7 3 -16
8 -18 11 -8 192 15 192 23 0 9 -86 40 -93 34z"/>
<path d="M423 2267 c-30 -13 -29 -25 1 -33 28 -7 46 1 46 21 0 18 -21 24 -47
12z"/>
<path d="M4070 2265 c0 -18 24 -46 49 -60 32 -16 139 -35 158 -28 27 10 11 21
-39 28 -29 4 -75 19 -103 34 -65 34 -65 34 -65 26z"/>
<path d="M8216 2223 c-4 -5 -74 -8 -154 -8 -95 0 -154 -5 -167 -12 -16 -10 13
-12 148 -13 161 0 215 8 202 31 -7 11 -19 12 -29 2z"/>
<path d="M3903 2187 c-49 -18 -52 -30 -8 -24 48 6 75 16 75 28 0 12 -28 10
-67 -4z"/>
<path d="M5855 2189 c-104 -15 -125 -20 -125 -31 0 -7 12 -8 33 -4 17 4 57 9
87 13 30 3 62 7 70 9 8 1 41 3 73 3 31 1 57 6 57 11 0 12 -108 11 -195 -1z"/>
<path d="M6943 2177 c4 -12 403 -31 440 -21 41 12 10 22 -85 28 -160 11 -360
6 -355 -7z"/>
<path d="M6486 2111 c-3 -5 11 -11 32 -12 58 -6 162 2 162 12 0 12 -187 12
-194 0z"/>
<path d="M434 2099 c-12 -20 9 -24 103 -21 74 2 101 -1 120 -13 13 -9 48 -17
76 -18 42 -2 52 1 55 16 3 14 -4 17 -45 17 -27 0 -54 5 -61 12 -16 16 -239 22
-248 7z"/>
<path d="M1674 2088 c-9 -14 21 -36 60 -43 42 -8 201 -2 201 8 0 4 -41 9 -91
11 -49 2 -107 11 -127 19 -26 11 -39 13 -43 5z"/>
<path d="M2980 2088 c0 -30 187 -97 236 -86 15 4 12 8 -18 21 -21 10 -47 17
-58 17 -19 0 -91 27 -132 50 -23 13 -28 13 -28 -2z"/>
<path d="M2935 2082 c-21 -19 -123 -52 -177 -58 -67 -8 -78 -24 -15 -24 83 0
217 50 217 82 0 10 -13 10 -25 0z"/>
<path d="M1547 2074 c-1 -2 -38 -5 -82 -8 -44 -3 -83 -5 -87 -5 -5 -1 -8 -5
-8 -11 0 -11 136 -12 214 -2 65 9 73 30 12 30 -25 -1 -47 -2 -49 -4z"/>
<path d="M2260 2064 c-14 -7 -42 -14 -62 -14 -28 0 -38 -4 -38 -16 0 -14 8
-16 47 -10 26 3 57 13 69 21 17 11 24 12 32 2 10 -11 73 -33 116 -39 10 -2 21
3 23 10 3 7 -4 12 -19 12 -14 0 -47 11 -74 25 -55 28 -59 28 -94 9z"/>
<path d="M3572 2063 c4 -23 83 -62 126 -62 18 -1 42 -6 52 -11 21 -11 77 -2
63 10 -4 4 -39 15 -76 24 -38 10 -89 26 -113 37 -56 23 -56 23 -52 2z"/>
<path d="M3510 2055 c-25 -13 -83 -24 -128 -25 -14 0 -21 -4 -16 -11 6 -10 66
-8 114 3 29 7 73 35 64 41 -5 3 -20 -1 -34 -8z"/>
<path d="M5975 1936 c-18 -13 -15 -14 30 -12 29 0 48 5 45 11 -8 16 -54 17
-75 1z"/>
<path d="M1488 1864 c-8 -8 25 -41 49 -47 10 -3 32 0 48 8 l30 13 -38 1 c-21
1 -48 8 -61 16 -12 8 -25 12 -28 9z"/>
<path d="M2739 1855 c-8 -9 -37 -24 -65 -34 -34 -13 -44 -21 -33 -26 18 -7 67
10 91 32 16 14 21 13 53 -6 20 -11 53 -21 73 -21 20 -1 55 -7 77 -15 22 -8 41
-15 42 -15 1 0 8 10 14 23 6 12 8 19 4 15 -4 -3 -25 0 -48 8 -23 8 -48 14 -57
12 -25 -3 -91 12 -114 28 -19 12 -24 12 -37 -1z"/>
<path d="M1393 1844 c-18 -8 -33 -19 -33 -25 0 -6 3 -9 8 -7 4 2 24 10 45 18
20 8 37 18 37 22 0 11 -20 9 -57 -8z"/>
<path d="M825 1843 c-87 -10 -137 -43 -66 -43 35 0 121 29 121 41 0 5 -6 8
-12 8 -7 -1 -26 -4 -43 -6z"/>
<path d="M930 1841 c0 -6 5 -13 10 -16 6 -4 8 -10 5 -15 -7 -12 44 -50 66 -50
11 0 19 7 19 15 0 11 10 14 43 10 39 -5 78 7 66 19 -3 3 -38 10 -78 16 -40 6
-81 15 -91 20 -23 13 -40 13 -40 1z"/>
<path d="M2092 1833 c5 -27 85 -62 141 -63 46 0 62 12 31 24 -9 3 -28 6 -43 6
-16 0 -49 11 -75 25 -56 30 -58 30 -54 8z"/>
<path d="M6690 1839 c-74 -10 -205 -13 -219 -5 -12 8 -51 -10 -51 -24 0 -14
354 0 369 16 16 16 -31 22 -99 13z"/>
<path d="M7479 1846 c-3 -3 -35 -6 -72 -7 -43 -1 -67 -6 -67 -13 0 -15 564
-16 579 -1 7 7 -49 11 -167 12 -97 1 -197 5 -222 8 -25 4 -48 4 -51 1z"/>
<path d="M2008 1833 c-35 -4 -55 -23 -24 -23 29 0 76 13 76 21 0 5 -3 8 -7 7
-5 -1 -25 -3 -45 -5z"/>
<path d="M3275 1830 c-3 -5 -15 -10 -25 -10 -17 0 -37 -17 -28 -25 1 -2 24 1
49 7 41 10 49 8 75 -11 33 -24 116 -42 135 -30 10 6 8 10 -6 14 -11 4 -36 13
-55 22 -35 15 -119 43 -132 43 -4 0 -10 -4 -13 -10z"/>
<path d="M3881 1829 c-25 -5 -49 -13 -54 -18 -17 -17 10 -21 68 -10 48 9 64 8
94 -5 45 -20 152 -26 158 -9 3 7 -13 14 -44 18 -26 4 -65 13 -86 21 -41 15
-70 16 -136 3z"/>
<path d="M3070 1800 c0 -5 5 -10 10 -10 6 0 10 5 10 10 0 6 -4 10 -10 10 -5 0
-10 -4 -10 -10z"/>
<path d="M3110 1775 c0 -17 2 -18 24 -9 23 9 20 24 -4 24 -11 0 -20 -7 -20
-15z"/>
<path d="M8156 1691 c-7 -11 22 -23 35 -15 5 3 9 9 9 15 0 12 -37 12 -44 0z"/>
<path d="M3867 1683 c-13 -13 -7 -21 13 -16 11 3 20 9 20 14 0 10 -24 12 -33
2z"/>
<path d="M3175 1653 c-16 -2 -37 -6 -45 -9 -32 -11 16 -24 67 -18 48 6 56 4
91 -24 21 -17 50 -34 65 -37 15 -4 30 -11 33 -16 7 -12 164 -12 164 0 0 6 -21
12 -47 15 -69 9 -179 46 -215 73 -31 22 -48 25 -113 16z"/>
<path d="M6285 1640 c-14 -6 -2 -9 42 -9 34 -1 69 -4 77 -7 12 -5 15 -2 10 10
-5 12 -19 16 -58 15 -28 0 -60 -4 -71 -9z"/>
<path d="M7785 1638 c-60 -5 -113 -12 -118 -17 -8 -8 263 -2 273 6 6 5 -22 23
-35 21 -5 0 -59 -5 -120 -10z"/>
<path d="M1746 1627 c-15 -11 -16 -18 -8 -34 15 -28 60 -44 118 -43 161 2 194
5 194 18 0 14 4 13 -85 16 -55 2 -79 8 -115 29 -50 30 -77 33 -104 14z m74
-32 c19 -14 42 -25 52 -25 10 0 18 -4 18 -9 0 -13 -82 7 -102 26 -10 9 -15 20
-12 24 7 12 5 12 44 -16z"/>
<path d="M3830 1620 c0 -5 5 -10 11 -10 5 0 7 5 4 10 -3 6 -8 10 -11 10 -2 0
-4 -4 -4 -10z"/>
<path d="M1603 1607 c-40 -6 -73 -15 -73 -20 0 -6 16 -7 38 -3 20 3 49 6 63 6
14 0 34 7 45 15 10 8 15 14 9 13 -5 -1 -43 -6 -82 -11z"/>
<path d="M6943 1604 c-16 -12 -10 -13 52 -10 39 3 141 5 228 5 101 1 157 5
157 11 0 7 -71 10 -209 10 -164 -1 -213 -5 -228 -16z"/>
<path d="M2610 1595 c-19 -7 -56 -14 -82 -14 -27 -1 -48 -5 -48 -10 0 -18 42
-18 103 0 71 22 100 23 129 8 38 -20 157 -49 204 -49 63 0 53 23 -12 27 -27 2
-65 8 -84 14 -124 37 -163 42 -210 24z"/>
<path d="M3747 1599 c-9 -6 -15 -15 -12 -20 4 -5 12 -6 18 -2 7 4 17 8 22 9 6
0 16 2 23 2 6 1 12 7 12 12 0 13 -40 12 -63 -1z"/>
<path d="M7113 987 c-23 -10 -28 -30 -23 -87 5 -56 13 -59 110 -55 83 5 90 3
100 -16 14 -25 9 -113 -14 -264 -20 -128 -21 -211 -5 -231 16 -19 52 -18 78 4
21 17 26 35 36 142 2 30 8 87 12 125 3 39 7 106 7 150 l1 80 45 1 c55 2 80 29
80 85 0 29 -5 41 -17 45 -10 3 -25 9 -35 14 -9 5 -32 4 -55 -2 -55 -16 -190
-14 -248 4 -36 11 -56 12 -72 5z m77 -30 c49 -17 158 -20 228 -7 79 16 106 3
96 -43 -3 -18 -7 -33 -9 -35 -2 -2 -67 -9 -109 -11 -17 -1 -18 -6 -11 -63 10
-82 11 -69 -9 -258 -18 -169 -27 -197 -63 -183 -18 7 -14 97 12 288 30 226 28
230 -115 226 -92 -2 -102 -1 -96 14 3 9 6 32 6 51 0 38 11 42 70 21z"/>
<path d="M5858 965 c-20 -11 -28 -23 -28 -43 0 -52 21 -66 102 -72 69 -5 74
-7 88 -35 20 -39 17 -268 -4 -378 -8 -43 -13 -84 -10 -92 3 -7 19 -18 36 -24
26 -9 35 -8 51 6 45 42 49 65 51 348 1 77 5 146 9 153 5 8 33 12 77 12 82 0
105 15 94 64 -13 64 -21 67 -193 65 -86 -1 -176 2 -201 5 -31 4 -53 1 -72 -9z
m423 -36 c5 -8 9 -24 9 -36 0 -22 -4 -23 -69 -23 -63 0 -72 -2 -90 -26 -18
-23 -20 -41 -21 -167 0 -170 -13 -314 -29 -330 -8 -8 -15 -7 -28 5 -14 15 -15
25 -4 90 17 107 20 291 5 348 -23 87 -26 90 -105 90 -65 0 -70 1 -79 26 -6 14
-10 28 -10 32 0 4 93 7 206 6 166 -1 208 -3 215 -15z"/>
<path d="M8588 953 c-26 -31 -29 -41 -17 -66 21 -45 83 -45 99 -1 13 32 4 51
-33 69 -37 18 -31 18 -49 -2z m50 -25 c19 -19 15 -48 -8 -48 -23 0 -35 22 -26
45 7 18 18 19 34 3z"/>
<path d="M6346 951 c-4 -6 1 -25 10 -43 23 -44 22 -175 -1 -328 -23 -148 -21
-219 6 -243 28 -23 43 -22 74 6 25 21 26 26 27 144 l0 121 46 7 c66 10 71 0
65 -144 -5 -134 3 -156 54 -142 25 7 29 13 33 57 3 27 3 111 0 186 -5 125 -8
140 -27 160 -22 21 -70 27 -138 16 -19 -3 -20 3 -21 85 -1 75 -4 91 -22 109
-12 12 -27 18 -36 15 -20 -8 -21 -27 -1 -27 25 0 35 -36 33 -114 -4 -95 3
-104 72 -88 42 10 56 9 80 -3 36 -19 42 -54 38 -230 -2 -108 -6 -130 -18 -130
-12 0 -15 20 -15 120 0 66 -4 131 -9 144 -8 22 -11 23 -75 16 -36 -4 -70 -11
-75 -15 -5 -5 -9 -65 -10 -134 -1 -138 -10 -164 -46 -131 -25 23 -26 76 -5
236 19 142 20 250 3 308 -13 44 -31 61 -42 42z"/>
<path d="M1498 924 c-31 -17 -35 -29 -13 -41 15 -9 16 -33 11 -458 l-1 -90 34
0 c58 0 72 31 71 161 0 60 -1 118 -3 129 -2 17 5 20 39 23 29 2 43 -1 47 -11
3 -8 1 -67 -5 -132 -8 -92 -8 -122 2 -141 17 -31 64 -33 80 -4 6 12 12 89 13
181 l2 161 -37 33 c-34 29 -43 32 -88 27 l-50 -5 0 64 c0 105 -34 139 -102
103z m70 -31 c5 -10 8 -46 7 -81 -1 -37 3 -67 10 -72 7 -6 34 -8 61 -6 40 4
54 0 79 -19 l29 -24 -2 -128 c-3 -140 -11 -188 -33 -188 -12 0 -13 24 -11 138
2 96 0 143 -9 153 -15 19 -115 19 -122 1 -3 -7 -3 -61 0 -119 4 -110 -8 -188
-30 -188 -28 0 -33 20 -25 97 7 66 13 401 7 429 -5 29 25 34 39 7z"/>
<path d="M2530 930 c-25 -5 -92 -9 -150 -9 -87 -1 -111 -5 -138 -21 -30 -19
-33 -24 -27 -53 11 -47 11 -48 79 -45 34 1 67 -1 73 -5 15 -10 8 -152 -14
-295 -19 -122 -9 -178 31 -188 26 -6 84 19 103 45 7 11 12 83 12 221 1 165 4
208 16 220 13 12 48 18 132 19 31 1 54 74 31 98 -19 18 -87 25 -148 13z m104
-26 c20 -8 21 -38 2 -53 -7 -6 -33 -11 -57 -10 -49 2 -83 -12 -98 -39 -5 -10
-11 -100 -12 -200 -3 -231 -4 -238 -39 -250 -43 -16 -55 -1 -52 65 2 62 4 74
20 168 13 76 10 211 -5 226 -6 6 -41 14 -77 16 -61 5 -66 8 -66 29 0 30 11 33
179 38 79 3 146 7 149 10 7 8 36 8 56 0z"/>
<path d="M1015 910 c-20 -22 -19 -74 1 -91 12 -10 40 -13 88 -12 116 4 109 17
101 -175 -11 -279 -6 -302 56 -302 48 0 53 23 57 263 l4 217 53 0 c32 0 57 5
62 12 10 18 4 70 -10 85 -8 8 -73 13 -204 16 -171 4 -194 2 -208 -13z m256
-14 c69 1 130 -1 136 -4 6 -4 13 -16 15 -27 2 -16 -5 -20 -51 -27 -30 -5 -60
-13 -66 -18 -9 -8 -11 -50 -8 -158 6 -182 -3 -291 -24 -299 -34 -13 -38 12
-35 241 l4 222 -49 11 c-26 6 -64 8 -85 6 -46 -6 -85 26 -68 56 9 18 14 18 58
7 29 -8 95 -12 173 -10z"/>
<path d="M8067 784 c-44 -18 -62 -22 -77 -14 -10 5 -23 10 -29 10 -19 0 -12
-16 12 -29 18 -10 33 -8 82 9 33 12 67 23 75 26 28 9 65 -98 37 -109 -18 -7
-31 2 -46 31 -10 19 -17 21 -54 16 -72 -11 -73 -12 -67 -101 3 -43 3 -123 0
-178 l-5 -100 -27 -3 c-41 -5 -54 30 -33 88 34 96 31 288 -5 332 -26 33 -38
14 -16 -26 23 -44 25 -188 4 -266 -38 -133 -28 -167 45 -157 22 3 45 11 51 17
7 7 11 69 11 188 -1 154 1 178 15 178 8 0 24 3 35 7 17 6 23 1 32 -23 9 -25
17 -30 45 -30 49 0 66 14 51 40 -7 11 -13 32 -13 48 0 34 -26 72 -48 71 -9 0
-43 -12 -75 -25z"/>
<path d="M8425 785 c-15 -10 -31 -11 -65 -5 -25 5 -64 9 -87 10 l-41 0 15 -39
c14 -36 14 -57 0 -218 -15 -176 -15 -178 5 -195 30 -26 65 -23 85 9 15 23 18
52 19 188 1 200 -1 187 31 183 21 -2 32 -13 47 -43 17 -36 17 -48 7 -120 -23
-170 -24 -210 -6 -228 24 -24 95 -23 95 1 0 10 -5 23 -11 29 -8 8 -9 41 -5
105 4 51 8 134 9 185 2 89 1 92 -27 122 -33 34 -42 36 -71 16z m-58 -26 c26
-1 60 2 74 6 23 6 28 2 43 -30 15 -30 17 -53 12 -124 -4 -47 -9 -128 -12 -178
-5 -70 -9 -93 -20 -93 -12 0 -18 16 -16 40 0 3 3 37 6 75 3 39 8 97 12 131 5
50 3 67 -14 101 -22 42 -38 53 -77 53 -40 0 -46 -28 -39 -178 5 -114 4 -143
-10 -175 -11 -27 -21 -38 -33 -35 -20 4 -19 -13 -12 265 4 147 5 160 21 152 9
-5 38 -10 65 -10z"/>
<path d="M8630 781 c-8 -6 -17 -8 -21 -5 -4 2 -10 0 -14 -5 -3 -6 3 -15 14
-21 30 -16 35 -66 22 -248 -14 -185 -13 -189 51 -194 39 -2 68 15 68 40 0 8
-9 29 -20 47 -19 30 -19 41 -11 180 8 149 7 179 -12 203 -11 14 -56 16 -77 3z
m64 -106 c0 -49 -2 -129 -4 -176 -2 -68 0 -90 15 -112 29 -45 3 -74 -39 -44
-21 16 -22 28 -12 222 4 87 3 151 -3 167 -11 30 -5 40 24 36 18 -3 20 -10 19
-93z"/>
<path d="M8928 782 c-54 -6 -27 -22 37 -22 74 0 97 -15 113 -72 12 -46 -4
-269 -20 -280 -7 -5 -35 -7 -63 -6 l-50 2 -6 -124 c-7 -137 -14 -170 -35 -170
-10 0 -14 14 -15 43 -3 84 2 263 9 332 9 84 8 222 -2 252 -4 11 -14 24 -22 27
-14 5 -15 0 -7 -36 12 -63 10 -207 -6 -427 -14 -186 -14 -194 4 -207 29 -21
52 -17 74 14 16 23 20 47 22 128 4 147 4 147 50 139 54 -9 85 23 93 96 7 63
10 158 8 211 -3 58 -44 96 -107 100 -27 2 -62 2 -77 0z"/>
<path d="M7555 773 c-49 -11 -51 -14 -25 -35 22 -18 25 -28 25 -82 0 -33 -3
-99 -8 -144 -9 -101 3 -155 40 -179 32 -21 93 -18 143 7 31 16 41 29 54 67 9
27 18 66 20 88 2 22 7 54 9 70 16 95 19 186 7 200 -16 19 -44 19 -59 1 -14
-17 -27 -102 -35 -234 -7 -105 -9 -112 -36 -112 -30 0 -42 35 -36 103 17 173
17 181 -1 217 -18 36 -47 45 -98 33z m77 -52 c9 -24 7 -81 -7 -216 -8 -74 9
-100 65 -100 42 0 44 1 51 35 4 19 9 93 12 163 6 130 15 161 44 150 17 -7 16
-30 -7 -218 -15 -129 -25 -152 -71 -175 -41 -21 -75 -19 -115 7 -29 19 -36 81
-23 201 7 63 7 112 1 139 -5 23 -8 44 -5 46 11 12 46 -8 55 -32z"/>
<path d="M1954 760 c-42 -7 -78 -52 -95 -118 -16 -65 0 -203 29 -242 27 -35
95 -53 141 -38 20 7 43 18 52 25 37 30 46 137 14 163 -20 17 -52 -8 -75 -58
-17 -36 -23 -41 -39 -33 -24 13 -31 33 -31 81 l0 39 66 -2 c58 0 69 2 85 22
21 26 25 78 8 114 -20 44 -72 60 -155 47z m116 -35 c30 -30 35 -76 12 -105
-16 -20 -28 -23 -83 -24 l-64 -1 0 -66 c0 -49 4 -70 18 -83 24 -24 60 -14 76
21 7 16 17 35 21 43 4 8 15 16 24 18 38 8 7 -103 -36 -126 -38 -21 -98 -12
-120 18 -28 38 -45 175 -29 233 14 48 43 82 76 89 43 9 86 2 105 -17z"/>
<path d="M1961 694 c-12 -15 -21 -31 -21 -36 0 -14 41 -25 90 -24 53 1 62 18
30 59 -29 36 -71 36 -99 1z m73 1 c29 -22 14 -42 -28 -37 -40 5 -44 13 -20 36
19 19 24 19 48 1z"/>
<path d="M2948 753 c-34 -17 -35 -31 -4 -42 20 -8 24 -18 29 -78 4 -37 4 -102
2 -143 -7 -113 18 -169 68 -156 28 7 54 62 56 118 1 20 -6 71 -14 113 -15 72
-15 78 1 96 24 27 38 24 51 -11 9 -24 17 -30 42 -30 41 0 56 30 44 91 l-9 44
-59 -1 c-33 0 -77 -4 -97 -9 -28 -6 -41 -4 -53 9 -19 19 -21 19 -57 -1z m57
-29 c23 -15 28 -15 72 0 25 9 61 16 79 16 29 0 35 -4 42 -32 11 -42 -2 -75
-24 -57 -8 6 -14 22 -14 36 0 22 -3 23 -37 17 -64 -11 -76 -29 -69 -99 15
-152 10 -235 -15 -235 -20 0 -29 46 -32 172 -2 107 -6 140 -20 161 -27 41 -22
47 18 21z"/>
<path d="M3479 765 c-3 -2 -33 -5 -67 -6 -45 -1 -62 -5 -62 -15 0 -11 17 -14
77 -12 76 3 78 3 91 -26 10 -20 15 -73 16 -175 2 -80 6 -154 11 -164 6 -16 4
-18 -16 -15 -24 3 -24 5 -29 143 -3 87 -10 149 -18 163 -15 26 -37 30 -27 5
17 -43 20 -74 18 -173 -2 -58 -4 -113 -4 -123 0 -21 36 -56 54 -53 42 9 73 20
79 29 4 6 -2 23 -13 39 -18 24 -20 42 -18 156 2 116 0 133 -20 175 -13 26 -27
47 -31 47 -5 0 -15 2 -22 5 -8 3 -16 3 -19 0z"/>
<path d="M6805 751 c-22 -10 -45 -24 -51 -32 -24 -29 -35 -90 -35 -187 0 -109
19 -170 61 -192 58 -31 164 -8 191 41 11 22 15 112 4 129 -20 32 -92 -10 -81
-47 3 -10 1 -25 -4 -33 -21 -34 -80 32 -80 91 0 16 6 17 49 12 76 -9 97 0 115
49 31 80 -1 158 -72 178 -48 13 -50 13 -97 -9z m113 -31 c37 -27 42 -35 42
-69 0 -22 -4 -51 -10 -65 -8 -23 -15 -25 -82 -28 l-73 -3 -3 -48 c-3 -42 1
-51 27 -78 22 -22 38 -29 58 -27 24 3 30 10 39 48 6 25 14 44 17 43 4 -2 11
-3 17 -3 11 0 2 -85 -12 -112 -7 -14 -22 -18 -69 -18 -52 0 -63 4 -84 26 -28
30 -39 83 -37 179 1 95 20 144 63 167 46 24 59 23 107 -12z"/>
<path d="M6832 690 c-27 -16 -33 -26 -30 -48 3 -25 7 -27 56 -32 71 -7 80 -1
63 47 -21 59 -37 64 -89 33z m62 -22 c20 -28 10 -37 -31 -31 -34 5 -42 20 -21
41 18 18 35 15 52 -10z"/>
<path d="M2715 750 c-50 -15 -84 -59 -96 -126 -21 -110 5 -228 61 -279 29 -26
107 -25 144 1 26 20 69 115 64 143 -4 21 -45 40 -70 33 -11 -3 -27 -20 -34
-38 -8 -19 -21 -34 -29 -34 -20 0 -42 37 -50 86 l-6 41 55 -5 c74 -6 105 3
116 34 15 38 -1 84 -40 115 -41 33 -74 41 -115 29z m113 -52 c24 -24 31 -82
10 -95 -7 -4 -46 -6 -85 -5 l-73 2 0 -45 c0 -51 18 -103 44 -124 22 -19 60 -2
78 36 8 17 21 28 33 28 31 0 29 -43 -3 -90 -22 -32 -35 -41 -62 -43 -80 -6
-108 43 -116 198 -6 111 8 145 66 165 40 14 72 5 108 -27z"/>
<path d="M2707 682 c-28 -31 -21 -49 21 -56 74 -12 92 -8 92 18 0 49 -80 75
-113 38z m77 -8 c9 -3 16 -12 16 -20 0 -10 -9 -12 -32 -8 -50 9 -60 13 -53 24
7 11 45 13 69 4z"/>
<path d="M3270 745 c0 -3 7 -16 15 -29 13 -20 15 -50 10 -184 -5 -144 -4 -162
13 -182 15 -18 24 -21 49 -16 17 4 35 15 39 24 4 9 8 85 9 167 1 144 2 150 23
160 29 13 28 25 -1 25 -43 0 -56 -27 -46 -100 9 -72 2 -206 -12 -232 -5 -10
-16 -15 -24 -12 -16 7 -18 24 -15 214 2 127 -8 170 -40 170 -11 0 -20 -2 -20
-5z"/>
<path d="M8970 723 c-25 -10 -29 -25 -29 -99 0 -39 -3 -87 -6 -108 -5 -23 -3
-41 5 -51 15 -18 74 -20 88 -2 6 7 11 66 11 133 1 103 -1 123 -15 128 -18 7
-33 7 -54 -1z m46 -134 c-1 -59 -6 -112 -10 -116 -4 -4 -14 -3 -23 3 -12 8
-16 32 -19 116 -2 94 -1 107 14 111 37 8 41 -2 38 -114z"/>
<path d="M3696 405 c-19 -51 5 -79 66 -77 23 1 43 4 45 6 2 2 5 21 6 42 l2 39
-56 3 c-45 2 -58 0 -63 -13z m77 -19 c8 -19 -11 -35 -34 -29 -19 5 -25 24 -12
36 11 12 41 8 46 -7z"/>
<path d="M9144 381 c-19 -45 -18 -57 8 -75 45 -32 88 -12 101 45 10 38 -14 64
-58 64 -32 0 -39 -4 -51 -34z m71 -1 c9 -15 -4 -50 -19 -50 -20 0 -37 25 -30
44 7 18 39 22 49 6z"/>
</g>
</svg>
