<?xml version="1.0" standalone="no"?>
<!DOCTYPE svg PUBLIC "-//W3C//DTD SVG 20010904//EN"
 "http://www.w3.org/TR/2001/REC-SVG-20010904/DTD/svg10.dtd">
<svg version="1.0" xmlns="http://www.w3.org/2000/svg"
 width="1000.000000pt" height="636.000000pt" viewBox="0 0 1000.000000 636.000000"
 preserveAspectRatio="xMidYMid meet">
<metadata>
Created by potrace 1.16, written by Peter Selinger 2001-2019
</metadata>
<g transform="translate(0.000000,636.000000) scale(0.100000,-0.100000)"
fill="#000000" stroke="none">
<path d="M2200 6084 c0 -14 10 -38 23 -54 12 -15 38 -47 57 -70 40 -50 64 -75
105 -109 l29 -24 -22 -10 c-15 -7 -30 -7 -45 0 -12 5 -48 11 -80 12 -32 1 -70
6 -83 12 -14 5 -39 9 -55 9 -37 0 -40 -30 -5 -53 31 -21 145 -54 226 -67 115
-18 154 -27 190 -42 19 -9 52 -23 73 -32 33 -14 37 -20 37 -50 0 -19 -5 -38
-10 -41 -7 -4 -9 -153 -5 -453 l5 -446 41 -37 c60 -56 89 -62 53 -11 -8 12
-31 29 -51 37 l-35 15 7 65 c3 35 6 162 5 282 -1 120 -1 227 0 238 1 11 1 27
0 35 0 8 -2 74 -3 145 -2 157 15 232 53 227 17 -3 21 0 16 15 -7 24 2 36 41
55 93 46 174 23 214 -59 12 -24 19 -46 16 -49 -5 -5 -49 15 -122 53 -27 15
-32 15 -64 -3 -20 -11 -49 -41 -66 -68 l-30 -50 2 -185 c3 -237 11 -423 23
-531 6 -47 10 -111 10 -142 0 -37 4 -58 11 -58 11 0 8 143 -6 315 -2 22 -6
146 -10 275 -4 129 -9 238 -11 242 -2 3 -1 9 4 12 5 3 23 -11 41 -29 18 -19
39 -35 47 -35 27 0 113 32 125 46 13 16 41 18 67 5 9 -5 35 -17 57 -26 22 -10
47 -21 56 -26 9 -4 34 -11 54 -15 l38 -7 -29 38 -28 38 30 -7 c19 -4 36 -2 49
8 20 14 20 15 -4 40 -14 14 -29 26 -35 26 -6 0 -52 16 -102 35 -91 35 -91 36
-97 74 -6 50 -31 83 -83 111 -33 18 -49 21 -86 16 l-45 -7 -7 53 c-17 126 -18
139 -7 152 18 22 2 46 -30 46 -22 0 -34 -8 -50 -32 -21 -35 -21 -47 1 -162 6
-33 9 -65 6 -71 -3 -8 -29 0 -80 26 -124 62 -239 158 -324 272 -35 47 -48 57
-73 57 -25 0 -29 -4 -29 -26z m90 -45 c12 -16 20 -33 17 -35 -3 -3 -13 6 -23
21 -10 15 -28 31 -41 36 -13 5 -21 13 -18 19 9 15 39 -4 65 -41z m453 -90
c-22 -41 -22 -41 -3 -67 20 -27 30 -108 16 -130 -14 -23 -26 -11 -26 26 0 21
-7 63 -15 94 -15 59 -8 114 17 129 27 17 33 -12 11 -52z m-278 -89 c12 -19
-12 -10 -31 11 -19 22 -19 22 3 10 12 -6 25 -16 28 -21z m-255 -50 c0 -13 -11
-13 -30 0 -12 8 -11 10 8 10 12 0 22 -4 22 -10z m225 -20 c-3 -5 -12 -7 -20
-3 -21 7 -19 13 6 13 11 0 18 -4 14 -10z m145 -54 c0 -3 -4 -8 -10 -11 -5 -3
-10 -1 -10 4 0 6 5 11 10 11 6 0 10 -2 10 -4z m100 -58 c0 -6 -6 -5 -15 2 -8
7 -15 14 -15 16 0 2 7 1 15 -2 8 -4 15 -11 15 -16z m109 -124 c11 -14 22 -30
25 -37 3 -9 7 -8 14 2 8 11 15 11 42 -3 18 -9 44 -16 57 -16 25 0 31 -14 11
-27 -7 -4 -33 -13 -58 -20 -54 -13 -83 -1 -118 53 -22 34 -27 55 -15 67 11 12
21 8 42 -19z m137 -29 c18 -13 18 -14 -4 -8 -12 3 -25 9 -28 14 -8 14 10 11
32 -6z"/>
<path d="M6529 6066 c-9 -18 -6 -37 11 -87 12 -35 26 -72 31 -81 12 -24 -4
-23 -58 2 -23 10 -61 21 -85 24 -77 9 -143 33 -159 58 -3 5 -21 8 -40 6 -28
-2 -34 -7 -35 -28 -2 -35 46 -80 86 -80 30 0 146 -56 180 -87 8 -7 40 -30 71
-51 53 -35 102 -72 156 -117 19 -16 26 -35 33 -85 4 -36 4 -70 -1 -76 -7 -8
-12 -514 -9 -866 l0 -57 -34 20 c-26 15 -43 19 -72 13 -29 -5 -33 -9 -20 -16
9 -5 20 -6 26 -3 13 8 72 -18 89 -39 32 -39 17 -224 -20 -247 -6 -3 -7 -18 -3
-32 3 -16 2 -27 -4 -27 -5 0 -44 -34 -86 -75 -76 -75 -96 -88 -96 -61 0 8 -7
16 -15 20 -22 8 -18 -7 8 -36 24 -25 24 -26 5 -62 -10 -20 -20 -36 -22 -36 -2
0 -3 12 -3 28 -1 48 -15 112 -24 106 -12 -7 -11 -51 1 -59 6 -3 10 -24 10 -46
0 -27 -4 -38 -11 -33 -11 6 -8 -10 12 -63 10 -27 29 -39 39 -23 5 8 9 7 14 -5
9 -25 -1 -35 -37 -35 -64 0 -180 -41 -215 -76 -7 -8 -18 -14 -23 -14 -17 0
-61 -115 -70 -185 -7 -54 -6 -81 6 -122 8 -29 14 -56 13 -60 -2 -5 3 -15 9
-23 7 -8 24 -29 38 -46 37 -47 116 -94 156 -94 32 1 33 1 15 15 -11 8 -27 15
-36 15 -18 0 -96 54 -122 85 -34 40 -60 147 -55 226 9 154 111 248 276 255
l74 3 4 96 c2 70 8 109 23 142 11 25 20 51 20 57 1 21 111 99 168 118 70 23
183 18 281 -14 63 -20 64 -21 89 -80 17 -38 28 -54 33 -46 5 7 1 24 -8 38
l-16 25 24 -22 c26 -24 49 -66 68 -124 16 -49 26 -195 14 -202 -5 -3 -8 10 -6
31 l3 37 -18 -45 c-25 -65 -41 -90 -57 -90 -17 0 -20 26 -5 35 6 3 10 16 10
28 -1 18 -3 16 -15 -10 -8 -18 -19 -33 -26 -33 -6 0 -9 -6 -6 -14 7 -18 -34
-13 -122 15 -79 24 -133 19 -186 -17 -20 -13 -39 -24 -42 -24 -3 0 -21 17 -39
39 -35 40 -81 67 -133 77 -46 10 -37 -8 15 -31 137 -59 215 -244 159 -378 -8
-20 -19 -36 -23 -35 -4 1 -23 -8 -42 -20 -28 -17 -31 -22 -15 -22 12 0 26 5
33 12 7 7 12 8 12 4 0 -5 7 -3 15 4 13 11 15 8 15 -20 0 -27 -3 -31 -17 -24
-28 12 -73 9 -138 -10 -58 -16 -127 -28 -172 -30 -26 -1 -19 -16 8 -16 24 0
24 -4 -6 -48 -20 -30 -35 -39 -75 -48 -39 -9 -50 -8 -50 1 0 7 7 12 16 11 9 0
19 4 21 10 2 6 -6 10 -18 9 -12 -1 -26 -11 -30 -22 -5 -15 -20 -22 -53 -27
-42 -7 -130 -62 -151 -96 -8 -13 -46 -13 -65 1 -12 8 -10 9 9 4 15 -5 21 -3
17 3 -3 6 -19 13 -35 17 -16 3 -35 13 -42 21 -15 18 -4 18 57 -1 31 -9 52 -11
58 -5 7 7 0 10 -19 10 -17 0 -39 7 -49 15 -11 9 -29 12 -43 9 -29 -8 -65 22
-94 76 -10 19 -18 29 -19 21 0 -7 18 -40 40 -72 22 -33 38 -59 34 -59 -3 0
-25 21 -48 46 -119 128 -97 352 43 438 15 9 69 24 115 31 17 3 43 -2 60 -10
32 -17 45 -13 28 8 -7 8 -10 16 -8 18 8 10 15 69 7 65 -5 -3 -11 -19 -14 -36
-6 -29 -27 -43 -27 -17 0 17 -47 18 -54 1 -6 -16 -46 -19 -46 -5 0 5 4 21 10
35 10 27 5 32 -19 17 -8 -5 -10 -14 -6 -21 5 -9 4 -11 -3 -6 -7 4 -12 1 -12
-8 0 -9 5 -16 12 -16 9 0 9 -3 0 -12 -10 -10 -15 -10 -21 0 -6 10 -10 8 -15
-10 l-6 -23 -20 25 c-11 14 -20 20 -20 14 0 -5 5 -15 12 -22 16 -16 -13 -48
-35 -39 -31 12 -28 126 4 161 12 13 11 36 -1 36 -5 0 -19 -32 -31 -72 -19 -63
-21 -77 -10 -119 11 -42 10 -51 -7 -86 -50 -97 -49 -201 3 -303 39 -78 148
-159 213 -160 27 0 27 -1 2 -42 -43 -74 -32 -208 25 -298 42 -67 122 -124 187
-133 13 -2 35 -21 51 -45 33 -49 113 -109 170 -129 78 -27 129 -27 214 -2 66
20 86 32 130 76 42 41 56 63 69 112 12 42 21 58 28 51 5 -5 24 -10 40 -9 l31
1 -28 8 c-16 5 -35 17 -42 26 -14 20 -17 111 -4 120 5 3 9 15 8 27 0 14 -2 17
-6 7 -15 -45 -15 -45 -24 -21 -7 19 -3 33 21 72 16 27 30 55 30 61 0 9 3 9 11
1 14 -14 3 -86 -12 -78 -5 4 -9 -9 -9 -28 0 -22 6 -37 16 -41 9 -4 13 -2 8 5
-4 6 -1 15 6 19 9 6 13 28 11 72 -3 74 -3 110 -1 159 l1 37 47 -3 c88 -4 108
-14 155 -68 48 -58 77 -134 71 -187 -11 -82 -16 -100 -27 -100 -7 0 -36 -24
-64 -53 -34 -35 -67 -58 -94 -66 -22 -7 -39 -14 -36 -17 11 -12 119 40 139 67
22 29 38 37 38 19 0 -15 -78 -83 -113 -98 -33 -14 -77 -4 -77 18 0 5 -17 10
-38 10 -21 0 -43 5 -50 12 -9 9 -12 9 -12 0 0 -17 38 -34 60 -27 15 5 20 2 20
-11 0 -14 -7 -16 -40 -11 -37 5 -39 4 -29 -14 9 -17 20 -20 72 -18 71 1 141
31 195 83 35 32 72 102 72 133 0 11 5 24 11 30 15 15 -3 128 -29 182 l-20 41
26 6 c27 6 76 25 120 47 31 15 109 133 115 175 3 18 11 39 17 47 26 31 12 140
-28 218 -2 4 6 7 18 7 58 0 170 94 191 160 6 19 17 49 25 67 29 64 12 226 -31
293 -29 46 -113 119 -145 126 -47 10 -50 13 -50 48 0 93 -75 203 -171 251 -61
31 -73 34 -146 31 -73 -3 -86 -6 -144 -42 -35 -21 -68 -38 -73 -36 -25 8 -86
-82 -67 -101 10 -10 15 0 13 24 -1 3 12 21 28 40 29 34 29 34 30 9 0 -14 -9
-40 -21 -59 -20 -33 -21 -33 -72 -27 -60 8 -83 24 -49 33 15 3 21 11 18 20
-15 39 -26 158 -31 341 -2 112 -7 207 -10 211 -7 12 -7 245 1 336 10 129 10
131 12 215 2 75 3 80 24 80 27 0 104 -44 112 -65 3 -8 12 -15 21 -15 8 0 33
-11 54 -24 24 -15 47 -23 60 -19 14 4 30 -3 50 -23 56 -55 96 -84 116 -84 30
0 26 36 -7 74 -61 68 -69 78 -64 84 4 3 16 -4 29 -15 12 -11 40 -28 62 -38 22
-10 46 -26 53 -37 16 -22 32 -24 32 -3 0 23 -29 49 -82 73 -25 12 -49 26 -53
32 -3 5 -13 10 -21 10 -8 0 -28 10 -45 22 -23 17 -32 19 -38 10 -12 -19 -32
-6 -74 49 -22 27 -53 57 -70 66 -138 70 -277 203 -277 263 0 25 -75 187 -98
213 -31 33 -49 34 -63 3z m76 -73 c15 -30 24 -60 21 -66 -2 -7 -10 3 -17 21
-15 36 -26 41 -31 15 -2 -10 -10 4 -20 32 -8 28 -14 53 -12 57 10 17 35 -8 59
-59z m-315 -69 c0 -2 -13 -4 -30 -4 -26 0 -30 4 -30 26 l0 25 30 -21 c17 -12
30 -23 30 -26z m347 -36 c-3 -8 -6 -5 -6 6 -1 11 2 17 5 13 3 -3 4 -12 1 -19z
m-227 -7 c0 -6 -4 -13 -10 -16 -5 -3 -10 1 -10 9 0 9 5 16 10 16 6 0 10 -4 10
-9z m118 -21 c43 -23 79 -57 69 -66 -3 -4 -34 14 -68 40 -65 49 -65 59 -1 26z
m199 -145 c12 -24 5 -20 -36 22 -28 28 -51 57 -51 64 0 17 68 -50 87 -86z
m-147 33 c0 -5 -9 -3 -20 4 -11 7 -20 16 -20 20 0 5 9 3 20 -4 11 -7 20 -16
20 -20z m35 12 c3 -5 1 -10 -4 -10 -6 0 -11 5 -11 10 0 6 2 10 4 10 3 0 8 -4
11 -10z m98 -87 c61 -98 62 -100 45 -117 -14 -14 -16 -11 -22 26 -4 22 -20 60
-37 84 -16 24 -25 44 -20 44 6 0 21 -17 34 -37z m102 -24 c56 -42 67 -59 40
-59 -8 0 -15 5 -15 10 0 6 -7 10 -15 10 -18 0 -85 41 -85 53 0 4 5 7 11 7 5 0
7 5 4 10 -11 18 4 10 60 -31z m67 -79 c46 -1 132 -50 136 -78 2 -12 7 -20 11
-17 5 2 16 -4 26 -15 10 -11 23 -20 28 -20 23 0 77 -52 77 -73 -1 -19 -5 -17
-35 18 -19 22 -35 33 -35 25 0 -8 -13 0 -30 20 -16 19 -29 30 -30 24 0 -6 7
-17 15 -24 16 -14 20 -30 6 -30 -4 0 -21 19 -37 43 -34 49 -45 58 -61 52 -7
-2 -17 5 -23 15 -6 12 -21 20 -35 20 -13 0 -27 5 -31 11 -3 6 -16 8 -27 5 -26
-6 -47 10 -47 35 0 18 2 19 30 4 16 -8 44 -15 62 -15z m-87 -40 c3 -10 1 -28
-4 -39 -6 -11 -11 -45 -11 -75 0 -31 -4 -56 -10 -56 -5 0 -10 -9 -10 -21 0
-11 5 -17 10 -14 6 3 10 0 10 -9 0 -8 -4 -16 -10 -18 -5 -1 -12 -37 -14 -78
-6 -114 -5 -107 -16 -90 -11 18 -12 210 0 210 14 0 17 34 4 45 -17 14 -6 125
12 125 8 0 14 9 14 20 0 26 17 26 25 0z m135 -41 c0 -6 -4 -7 -10 -4 -5 3 -10
11 -10 16 0 6 5 7 10 4 6 -3 10 -11 10 -16z m45 -39 c3 -5 2 -10 -4 -10 -5 0
-13 5 -16 10 -3 6 -2 10 4 10 5 0 13 -4 16 -10z m-198 -207 c-3 -10 -5 -4 -5
12 0 17 2 24 5 18 2 -7 2 -21 0 -30z m-23 -201 c0 -28 3 -49 8 -46 5 3 7 -18
4 -48 -2 -29 -5 -71 -6 -93 -2 -40 -2 -40 -11 -10 -5 18 -5 43 0 62 7 26 6 33
-5 33 -8 0 -14 5 -14 11 0 5 4 8 9 5 5 -3 12 1 15 10 4 11 2 15 -8 11 -11 -5
-14 7 -14 59 1 43 4 64 12 61 6 -2 11 -26 10 -55z m15 -337 c0 -46 2 -89 6
-95 3 -5 1 -10 -4 -10 -6 0 -11 15 -11 33 0 44 -10 78 -21 71 -5 -3 -9 15 -9
40 0 41 13 60 32 49 4 -2 7 -42 7 -88z m-33 -82 c-11 -29 -17 -6 -9 33 7 36 8
37 11 11 2 -16 1 -36 -2 -44z m4 -43 c0 -11 -4 -20 -8 -20 -4 0 -8 9 -8 20 0
11 4 20 8 20 4 0 8 -9 8 -20z m40 -110 c0 -5 -7 -7 -15 -4 -8 4 -15 8 -15 10
0 2 7 4 15 4 8 0 15 -4 15 -10z m490 -75 c10 -27 30 -34 30 -10 0 12 5 10 20
-5 12 -12 18 -25 14 -31 -3 -6 3 -17 15 -25 12 -8 21 -26 21 -38 0 -13 7 -30
16 -37 15 -12 16 -11 9 11 -8 25 -7 25 13 6 15 -13 19 -23 13 -34 -5 -9 -5
-26 0 -40 19 -50 -38 -95 -76 -60 -20 19 -20 19 -23 -9 -2 -15 -8 -32 -13 -38
-28 -29 2 -25 98 14 29 11 55 17 57 12 3 -5 25 -13 48 -19 50 -13 136 -88 164
-142 12 -24 19 -66 22 -133 4 -89 2 -101 -22 -151 -48 -99 -196 -216 -213
-168 -3 8 6 12 26 12 21 0 43 12 78 45 26 24 42 45 35 45 -7 0 -11 4 -7 9 3 5
-1 16 -9 24 -8 8 -12 17 -9 21 4 3 1 6 -6 6 -7 0 -11 -6 -8 -14 3 -8 -11 -29
-35 -50 -22 -20 -38 -40 -34 -43 12 -12 -17 -33 -45 -33 -34 0 -47 16 -19 25
11 3 20 10 20 15 0 5 21 26 48 46 34 26 40 34 22 29 -14 -4 -46 -27 -72 -51
-52 -49 -67 -53 -92 -25 -17 18 -17 20 1 29 10 6 14 14 10 19 -5 4 -14 0 -21
-10 -18 -24 -96 -24 -96 0 0 9 7 25 17 35 15 17 15 18 -1 18 -10 0 -23 -15
-32 -37 -14 -32 -17 -35 -26 -19 -7 12 -7 21 1 29 6 6 11 15 11 21 0 5 -6 1
-14 -9 -13 -18 -14 -18 -25 3 -10 19 -7 26 26 60 41 41 75 134 62 168 -4 10
-8 36 -8 56 -1 50 -34 135 -79 205 -20 31 -36 63 -34 70 2 8 -3 13 -10 12 -20
-2 -58 12 -58 23 0 5 -10 6 -21 3 -20 -7 -21 -4 -15 21 l6 29 -16 -22 c-19
-27 -34 -30 -34 -7 0 8 -4 12 -10 9 -5 -3 -10 -1 -10 5 0 6 8 10 17 8 10 -2
19 4 21 14 5 26 -37 10 -50 -18 -6 -13 -15 -24 -20 -24 -12 0 -10 9 12 40 11
15 17 30 13 34 -9 8 55 65 92 82 17 7 66 13 113 14 79 0 83 -1 92 -25z m-480
-15 c0 -13 -5 -18 -15 -14 -20 8 -21 -42 -1 -62 15 -14 11 -54 -5 -54 -15 0
-49 39 -49 56 0 8 5 12 10 9 8 -5 13 23 9 63 0 4 10 10 23 14 13 3 24 6 26 7
1 1 2 -8 2 -19z m611 -62 c19 -28 20 -30 4 -18 -41 32 -56 50 -41 50 8 0 25
-15 37 -32z m49 -168 c0 -11 -4 -20 -9 -20 -5 0 -7 9 -4 20 3 11 7 20 9 20 2
0 4 -9 4 -20z m-949 -197 c-8 -15 -10 -15 -11 -2 0 17 10 32 18 25 2 -3 -1
-13 -7 -23z m520 -243 c34 -12 76 -32 94 -45 67 -52 113 -207 99 -335 -10 -97
-86 -218 -145 -233 -20 -5 -20 -5 -3 14 9 10 15 21 12 24 -3 3 -13 -4 -23 -15
-12 -13 -31 -20 -54 -20 l-36 0 32 20 c17 10 37 29 43 42 l11 23 -18 -21 c-10
-12 -28 -24 -40 -27 -22 -5 -22 -4 -5 19 9 13 20 24 25 24 4 0 7 5 7 10 0 6
-13 1 -29 -11 -16 -12 -34 -18 -41 -14 -8 5 -1 14 20 26 18 11 28 24 24 30 -5
8 -10 6 -16 -5 -10 -17 -43 -22 -53 -7 -3 5 4 12 15 16 11 3 20 13 20 22 0 12
-3 13 -14 3 -18 -14 -58 -10 -64 8 -2 7 6 12 22 12 14 0 26 5 26 10 0 12 -2
12 -58 1 -33 -7 -40 -6 -32 4 8 9 4 15 -12 20 -24 8 -38 12 -51 14 -4 0 -4 9
2 18 6 11 6 24 0 34 -6 12 -3 31 11 61 11 23 20 60 20 80 0 46 -19 139 -32
155 -16 20 6 38 82 67 24 9 94 -2 161 -24z m544 -140 c-10 -11 -23 -20 -28
-20 -6 0 -2 9 8 20 10 11 23 20 28 20 6 0 2 -9 -8 -20z m-280 -30 c3 -5 2 -10
-4 -10 -5 0 -18 -3 -28 -7 -16 -6 -16 -5 -4 10 15 19 27 22 36 7z m51 -5 c4
-8 15 -15 25 -15 19 0 25 -11 12 -23 -3 -4 -12 -2 -20 4 -21 18 -15 -3 9 -28
12 -13 27 -23 35 -23 7 0 13 -2 13 -4 0 -2 3 -13 7 -23 7 -17 6 -17 -20 0
l-27 18 6 -58 c4 -32 9 -60 11 -63 8 -9 22 25 17 42 -6 19 14 34 27 21 6 -6
12 -39 15 -74 9 -97 -30 -184 -110 -248 -20 -17 -116 -26 -116 -11 0 6 -11 10
-25 10 -18 0 -23 4 -18 16 5 14 3 15 -15 5 -11 -6 -26 -11 -32 -11 -18 0 0 20
26 30 20 8 23 14 18 34 -4 17 1 34 14 53 44 62 55 104 56 213 l1 105 33 0 c29
0 33 2 29 22 -5 26 20 33 29 8z m153 -218 c1 -10 -3 -15 -9 -12 -5 3 -10 21
-9 38 0 27 2 29 9 12 5 -11 9 -28 9 -38z m-724 -34 c22 -8 47 -21 56 -29 8 -8
22 -14 30 -14 53 -2 102 -108 101 -222 0 -60 -5 -80 -39 -146 -29 -58 -49 -83
-84 -108 -64 -45 -141 -58 -211 -37 -75 22 -143 58 -167 89 -23 29 -28 49 -9
38 7 -4 8 -3 4 5 -4 6 -11 9 -16 6 -14 -9 -30 21 -42 79 -16 83 7 177 66 261
28 39 33 43 61 38 12 -3 35 3 50 13 38 25 127 54 145 47 8 -3 33 -12 55 -20z
m709 -85 c-19 -36 -29 -31 -14 6 5 15 10 39 11 54 l1 27 8 -29 c7 -21 5 -37
-6 -58z m-1125 -92 c24 -22 18 -80 -10 -112 -25 -27 -24 -62 1 -84 17 -14 18
-19 6 -23 -8 -3 -17 -1 -20 6 -3 7 -3 2 -1 -9 4 -14 0 -24 -10 -27 -12 -5 -15
4 -15 51 0 31 -1 65 -1 75 -1 35 -18 16 -33 -37 -20 -67 -20 -82 -1 -90 17 -6
21 -76 5 -76 -5 0 -10 10 -10 22 0 21 -1 21 -14 3 -13 -18 -14 -18 -21 6 -4
13 -8 33 -9 44 -1 11 -5 18 -11 15 -5 -3 -9 -7 -9 -10 12 -50 13 -60 4 -60
-22 0 -8 -16 22 -25 36 -11 54 -35 45 -59 -6 -16 -9 -16 -29 -2 -31 22 -45 20
-23 -4 10 -11 24 -20 32 -20 9 0 13 -13 13 -40 0 -35 -3 -40 -22 -41 -22 -1
-22 -1 1 -8 14 -4 26 -12 29 -19 6 -19 -23 -14 -43 8 -10 11 -23 20 -29 20
-15 0 -100 87 -116 119 -10 19 -9 25 1 32 12 8 6 13 -13 11 -3 -1 -9 5 -12 13
-3 9 0 12 10 8 10 -4 14 3 14 25 0 17 -6 32 -12 35 -10 3 -8 9 5 24 17 20 25
79 8 69 -14 -9 -7 52 8 67 10 10 11 6 5 -18 -10 -42 9 -22 21 22 8 27 24 46
65 75 49 34 60 38 103 35 26 -2 56 -12 66 -21z m762 -25 c-22 -22 -41 -27 -41
-11 0 9 52 41 58 35 2 -2 -6 -13 -17 -24z m-104 -7 c-3 -3 -12 -4 -19 -1 -8 3
-5 6 6 6 11 1 17 -2 13 -5z m293 -64 c0 -6 -14 -10 -31 -10 -16 0 -28 3 -25 8
7 11 56 13 56 2z m-940 -155 c-13 -14 -25 -23 -27 -21 -6 6 30 46 41 46 5 0
-1 -11 -14 -25z m35 -37 c-4 -15 -3 -18 2 -11 7 10 22 1 57 -32 32 -30 65 -49
101 -60 36 -10 56 -22 60 -35 4 -11 10 -20 15 -20 5 0 7 7 4 15 -8 19 6 19 33
0 12 -9 24 -11 27 -6 4 5 0 12 -6 14 -7 3 -3 6 10 6 12 1 22 -5 22 -11 0 -9 3
-8 10 2 5 8 21 16 36 17 23 2 25 -1 20 -23 -4 -13 -2 -24 4 -24 5 0 10 11 10
24 0 32 10 56 22 56 6 0 7 -12 4 -27 -5 -21 -4 -24 4 -13 5 8 10 25 10 36 0
30 28 53 41 33 4 -8 7 -21 4 -29 -15 -55 -17 -73 -6 -66 14 9 15 -45 1 -96
-20 -69 -58 -114 -124 -146 -33 -16 -79 -33 -101 -38 -55 -13 -122 -2 -140 22
-8 10 -15 14 -15 8 0 -7 -11 -9 -27 -6 -30 5 -133 98 -133 119 0 7 -4 13 -8
13 -14 0 -41 74 -43 120 -3 75 22 155 51 163 13 3 17 0 13 -9 -3 -8 -1 -14 5
-14 5 0 12 9 15 20 3 11 10 20 17 20 7 0 9 -8 5 -22z m-325 2 c0 -5 -4 -10
-10 -10 -5 0 -10 5 -10 10 0 6 5 10 10 10 6 0 10 -4 10 -10z m1160 -150 c0 -5
-5 -10 -11 -10 -5 0 -7 5 -4 10 3 6 8 10 11 10 2 0 4 -4 4 -10z"/>
<path d="M7180 4290 c0 -19 20 -27 33 -13 8 7 -11 33 -24 33 -5 0 -9 -9 -9
-20z"/>
<path d="M7330 4301 c0 -7 4 -20 9 -29 4 -9 11 -30 15 -46 6 -23 4 -27 -9 -23
-12 5 -14 1 -9 -21 8 -33 15 -41 21 -24 6 17 33 15 33 -3 0 -8 5 -15 11 -15 6
0 8 9 4 23 -4 12 -9 30 -11 40 -3 9 -9 17 -14 17 -5 0 -14 17 -20 38 -13 40
-30 65 -30 43z"/>
<path d="M7295 4210 c3 -5 8 -10 11 -10 2 0 4 5 4 10 0 6 -5 10 -11 10 -5 0
-7 -4 -4 -10z"/>
<path d="M7266 4121 c-4 -7 -5 -15 -2 -18 9 -9 19 4 14 18 -4 11 -6 11 -12 0z"/>
<path d="M7623 3845 c-6 -27 -10 -51 -8 -53 9 -9 26 43 23 71 -3 29 -4 28 -15
-18z"/>
<path d="M7537 3794 c-4 -4 -7 -20 -7 -35 0 -46 -18 -78 -55 -100 -42 -25 -47
-46 -6 -24 38 19 68 58 80 103 10 34 2 70 -12 56z"/>
<path d="M7640 3725 c0 -9 -9 -34 -20 -55 -11 -22 -16 -40 -11 -40 7 0 17 19
48 98 3 6 0 12 -6 12 -6 0 -11 -7 -11 -15z"/>
<path d="M7406 3704 c-8 -22 1 -31 16 -16 9 9 9 15 1 23 -7 7 -12 5 -17 -7z"/>
<path d="M7387 3583 c-10 -9 -9 -23 2 -23 5 0 11 7 15 15 5 15 -5 20 -17 8z"/>
<path d="M7070 3585 c0 -8 7 -15 16 -15 14 0 14 3 4 15 -7 8 -14 15 -16 15 -2
0 -4 -7 -4 -15z"/>
<path d="M6960 3569 c0 -5 5 -7 10 -4 6 3 10 8 10 11 0 2 -4 4 -10 4 -5 0 -10
-5 -10 -11z"/>
<path d="M7040 3471 c0 -17 5 -31 10 -31 6 0 10 11 10 24 0 14 -4 28 -10 31
-6 4 -10 -7 -10 -24z"/>
<path d="M6990 3465 c0 -15 4 -24 10 -20 6 3 10 12 10 20 0 8 -4 17 -10 20 -6
4 -10 -5 -10 -20z"/>
<path d="M7110 3465 c1 -26 2 -28 11 -12 8 14 8 22 0 30 -8 8 -11 3 -11 -18z"/>
<path d="M7160 3468 c0 -7 5 -20 10 -28 8 -12 10 -11 10 7 0 12 -4 25 -10 28
-5 3 -10 0 -10 -7z"/>
<path d="M6935 3440 c3 -5 8 -10 11 -10 2 0 4 5 4 10 0 6 -5 10 -11 10 -5 0
-7 -4 -4 -10z"/>
<path d="M6950 3361 c0 -12 5 -21 10 -21 6 0 10 6 10 14 0 8 -4 18 -10 21 -5
3 -10 -3 -10 -14z"/>
<path d="M7037 3293 c-4 -3 -7 -11 -7 -17 0 -6 5 -5 12 2 6 6 9 14 7 17 -3 3
-9 2 -12 -2z"/>
<path d="M7071 3259 c-13 -17 -21 -33 -18 -35 6 -6 47 45 47 57 0 14 -5 11
-29 -22z"/>
<path d="M7107 3225 c-10 -14 -13 -25 -8 -25 6 0 15 9 21 21 9 16 14 18 26 8
11 -9 14 -8 14 5 0 24 -33 19 -53 -9z"/>
<path d="M7130 3195 c-7 -9 -11 -18 -8 -20 3 -3 11 1 18 10 7 9 11 18 8 20 -3
3 -11 -1 -18 -10z"/>
<path d="M7297 3474 c-9 -10 13 -62 30 -68 25 -10 26 1 3 24 -22 22 -22 22 -1
15 27 -8 28 11 2 25 -23 12 -26 12 -34 4z"/>
<path d="M7418 3294 c-5 -4 -8 -20 -8 -36 0 -42 -27 -100 -58 -125 -19 -16
-22 -22 -11 -23 19 0 59 41 59 61 0 8 7 25 16 37 15 22 17 102 2 86z"/>
<path d="M7353 3223 c-10 -16 -25 -33 -33 -40 -13 -11 -13 -12 1 -13 18 0 49
30 49 48 0 7 5 12 10 12 6 0 10 5 10 10 0 19 -20 10 -37 -17z"/>
<path d="M7280 3099 c-8 -4 -24 -11 -35 -15 -19 -7 -19 -7 -1 -11 10 -3 23 0
29 6 14 14 30 14 21 0 -4 -7 2 -9 17 -7 13 1 22 8 19 13 -3 6 -9 9 -14 7 -5
-2 -12 1 -15 6 -3 5 -13 6 -21 1z"/>
<path d="M6425 3030 c-9 -15 -8 -131 2 -141 4 -4 8 28 9 72 1 80 0 87 -11 69z"/>
<path d="M6807 2915 c-10 -7 -14 -16 -9 -19 5 -3 15 1 22 9 17 21 9 27 -13 10z"/>
<path d="M6460 2892 c0 -12 56 -88 71 -97 15 -10 11 -1 -26 57 -28 44 -45 59
-45 40z"/>
<path d="M6560 2894 c0 -14 41 -57 48 -49 3 3 -6 18 -21 33 -15 14 -27 22 -27
16z"/>
<path d="M6660 2850 c-29 -6 -24 -7 27 -7 34 0 60 4 57 9 -6 9 -34 9 -84 -2z"/>
<path d="M6684 2808 c-3 -5 11 -8 30 -8 20 0 39 0 44 0 4 0 8 3 10 8 1 4 -16
7 -39 7 -22 0 -43 -3 -45 -7z"/>
<path d="M6580 2803 c0 -16 32 -41 63 -48 17 -5 27 -3 27 4 0 6 -10 11 -22 11
-12 0 -32 10 -45 22 -13 12 -23 17 -23 11z"/>
<path d="M6114 2755 c4 -65 54 -135 96 -135 18 0 11 17 -10 23 -11 3 -23 13
-27 24 -3 10 -11 24 -17 32 -6 7 -19 32 -28 55 l-17 41 3 -40z"/>
<path d="M6371 2774 c0 -11 3 -14 6 -6 3 7 2 16 -1 19 -3 4 -6 -2 -5 -13z"/>
<path d="M6407 2753 c-5 -26 -2 -42 7 -32 9 11 15 59 7 59 -5 0 -11 -12 -14
-27z"/>
<path d="M6855 2730 c3 -5 8 -10 11 -10 2 0 4 5 4 10 0 6 -5 10 -11 10 -5 0
-7 -4 -4 -10z"/>
<path d="M6440 2715 c0 -8 4 -15 10 -15 5 0 7 7 4 15 -4 8 -8 15 -10 15 -2 0
-4 -7 -4 -15z"/>
<path d="M6490 2701 c0 -11 4 -22 9 -25 4 -3 6 6 3 19 -5 30 -12 33 -12 6z"/>
<path d="M6540 2692 c0 -12 19 -26 26 -19 2 2 -2 10 -11 17 -9 8 -15 8 -15 2z"/>
<path d="M6835 2660 c-4 -12 -5 -24 -2 -27 3 -2 8 5 12 17 4 12 5 24 2 27 -3
2 -8 -5 -12 -17z"/>
<path d="M6326 2603 c4 -16 11 -35 16 -43 7 -11 8 -8 4 10 -3 14 -6 33 -6 43
0 9 -5 17 -10 17 -6 0 -8 -11 -4 -27z"/>
<path d="M6801 2531 c-24 -18 -24 -19 -6 -37 15 -15 18 -16 13 -3 -4 11 2 21
18 29 13 8 24 17 24 22 0 14 -24 9 -49 -11z"/>
<path d="M6449 2470 c24 -21 71 -27 71 -10 0 6 -13 10 -29 10 -17 0 -33 5 -36
10 -3 6 -12 10 -18 10 -7 -1 -1 -10 12 -20z"/>
<path d="M6553 2453 c9 -2 23 -2 30 0 6 3 -1 5 -18 5 -16 0 -22 -2 -12 -5z"/>
<path d="M2399 5473 c-35 -38 -52 -102 -53 -198 -1 -44 -4 -85 -9 -92 -10 -16
13 -63 31 -63 8 0 12 6 9 14 -14 36 -19 178 -7 225 18 74 28 62 18 -21 -5 -40
-6 -89 -2 -108 7 -28 9 -17 14 60 4 52 14 117 24 144 20 59 9 76 -25 39z"/>
<path d="M2276 5360 c-28 -49 -19 -150 30 -312 3 -10 23 -40 45 -68 53 -67 73
-129 66 -203 -6 -62 3 -65 22 -8 20 62 -5 145 -74 241 -44 62 -76 152 -82 236
-8 100 12 134 22 37 10 -104 24 -109 18 -7 -7 127 -14 140 -47 84z"/>
<path d="M2441 5372 c-6 -11 -8 -37 -6 -58 4 -33 3 -35 -3 -9 -8 28 -9 29 -15
8 -5 -12 -5 -46 -2 -77 4 -39 3 -56 -5 -56 -7 0 -9 -8 -5 -22 10 -34 24 -45
34 -29 6 9 11 2 15 -23 9 -48 48 -70 71 -40 8 10 15 29 15 42 0 13 6 22 16 22
10 0 14 -6 11 -14 -23 -60 -44 -330 -27 -356 12 -18 11 -27 14 110 1 63 11
155 21 203 18 93 12 137 -19 137 -20 0 -27 -13 -32 -58 -6 -57 -14 -82 -24
-82 -13 0 -33 39 -35 70 -1 14 -3 33 -3 42 -1 11 -7 15 -17 12 -10 -4 -15 0
-15 16 0 11 4 19 9 16 4 -3 12 31 18 75 9 80 3 106 -16 71z"/>
<path d="M2928 5354 c-10 -10 4 -44 26 -62 26 -21 51 -67 59 -107 6 -29 6 -29
-5 -5 -22 46 -98 139 -119 145 -13 5 -27 1 -37 -8 -13 -14 -11 -20 19 -59 18
-24 36 -45 39 -48 32 -28 67 -156 48 -176 -4 -3 -25 8 -46 25 -85 66 -115 16
-41 -67 56 -63 67 -94 81 -217 14 -126 32 -131 25 -6 -8 131 -15 156 -60 207
-46 52 -40 77 11 50 28 -14 32 -14 47 0 11 12 14 25 9 48 -10 49 -54 149 -75
172 -22 24 -24 34 -6 34 29 0 88 -96 107 -178 11 -48 25 -71 36 -60 11 12 -17
156 -40 200 -27 52 -33 73 -16 63 19 -12 60 -92 66 -130 3 -22 10 -47 14 -55
19 -36 21 -105 4 -145 -21 -50 -21 -139 1 -226 22 -89 24 -94 35 -83 6 6 3 33
-8 74 -25 89 -26 145 -3 242 10 46 22 119 25 163 5 68 3 86 -14 120 -12 23
-18 29 -14 15 12 -48 17 -186 6 -175 -6 6 -13 43 -15 83 -2 40 -9 78 -14 83
-6 6 -8 -2 -6 -23 4 -32 3 -31 -31 20 -19 30 -42 63 -52 73 -16 18 -45 25 -56
13z m-58 -299 c0 -8 -4 -15 -9 -15 -5 0 -11 7 -15 15 -3 9 0 15 9 15 8 0 15
-7 15 -15z"/>
<path d="M6317 5349 c-11 -6 -25 -25 -32 -41 -14 -34 -2 -90 35 -160 10 -20
26 -63 35 -95 9 -32 23 -80 30 -108 8 -27 30 -87 49 -133 41 -99 51 -138 36
-147 -6 -3 -33 -8 -61 -10 -85 -6 -190 -74 -249 -160 -35 -50 -39 -66 -10 -40
11 10 20 24 20 31 0 8 12 21 28 31 15 10 39 30 54 45 42 44 104 68 179 68 53
0 72 -4 93 -21 41 -32 42 -16 2 24 -23 23 -33 41 -30 54 3 11 -7 46 -21 79
-30 66 -75 208 -75 236 0 34 41 106 63 112 37 9 74 -41 55 -77 -11 -21 -28
-13 -28 14 0 25 -17 24 -25 -1 -14 -46 42 -67 69 -28 30 42 11 101 -36 117
-41 15 -65 -1 -89 -55 -22 -49 -39 -57 -39 -18 0 15 -9 41 -20 58 -32 52 -52
146 -39 179 13 31 48 37 70 11 10 -12 10 -20 1 -35 -16 -25 -15 -30 3 -23 32
12 37 42 15 74 -22 31 -51 38 -83 19z"/>
<path d="M7385 5340 c3 -5 8 -10 11 -10 2 0 4 5 4 10 0 6 -5 10 -11 10 -5 0
-7 -4 -4 -10z"/>
<path d="M3030 5310 c0 -5 5 -10 10 -10 6 0 10 5 10 10 0 6 -4 10 -10 10 -5 0
-10 -4 -10 -10z"/>
<path d="M7346 5281 c-4 -5 -2 -12 3 -15 5 -4 12 -2 15 3 4 5 2 12 -3 15 -5 4
-12 2 -15 -3z"/>
<path d="M7027 5197 c-26 -20 -37 -60 -23 -88 14 -29 63 -39 72 -15 10 27 21
18 30 -26 9 -50 7 -80 -8 -128 l-11 -34 -21 44 c-37 78 -116 74 -116 -5 0 -57
55 -85 84 -43 20 28 11 40 -27 36 -26 -2 -32 1 -32 17 0 14 8 21 26 23 23 3
31 -4 54 -45 25 -44 26 -52 16 -93 -13 -56 -16 -162 -6 -255 7 -68 3 -88 -33
-158 -2 -4 3 -5 10 -2 42 16 58 105 43 236 -5 47 -3 93 10 165 25 139 54 181
105 154 44 -24 48 -100 5 -100 -18 0 -22 4 -18 20 4 14 0 20 -11 20 -11 0 -16
-9 -16 -29 0 -22 5 -30 23 -33 33 -6 54 1 62 20 32 80 -15 147 -90 128 -23 -6
-24 -4 -19 24 4 19 2 30 -5 30 -6 0 -11 12 -11 28 -1 35 -29 91 -56 108 -16
11 -23 11 -37 1z m33 -25 c0 -4 -6 -14 -12 -20 -10 -10 -10 -15 2 -22 8 -5 11
-12 7 -16 -3 -4 -13 -1 -22 6 -15 13 -20 42 -8 53 9 10 33 9 33 -1z"/>
<path d="M5066 5173 c-3 -4 2 -15 11 -26 14 -14 19 -41 21 -108 4 -95 19 -121
24 -41 3 43 5 47 28 47 23 0 25 -4 28 -57 4 -79 22 -74 22 6 0 68 -6 76 -56
76 -13 0 -24 6 -24 13 0 50 -35 108 -54 90z"/>
<path d="M4444 5159 c-3 -5 0 -17 8 -26 7 -9 15 -48 18 -86 3 -44 10 -72 18
-75 8 -2 12 8 12 31 0 23 6 37 16 41 26 10 34 -2 34 -50 0 -32 4 -44 15 -44
18 0 21 63 5 106 -9 22 -15 26 -39 21 -27 -6 -30 -3 -40 37 -10 43 -34 65 -47
45z"/>
<path d="M3572 5132 c-52 -2 -72 -6 -69 -15 2 -7 18 -13 35 -15 l32 -3 0 -65
c0 -98 26 -81 32 21 3 37 5 40 37 45 38 5 53 25 24 31 -10 2 -51 3 -91 1z"/>
<path d="M3941 5084 c-37 -26 -26 -49 20 -45 19 2 33 -36 15 -42 -6 -2 -22 0
-35 5 -18 6 -28 5 -39 -5 -12 -13 -7 -15 34 -22 40 -6 50 -4 61 11 26 36 10
72 -29 66 -10 -2 -18 2 -18 7 0 6 9 11 20 11 11 0 20 4 20 9 0 17 -28 19 -49
5z"/>
<path d="M4103 5089 c-39 -14 -59 -84 -30 -107 11 -9 53 -16 85 -13 26 2 11
21 -17 21 -35 0 -61 9 -61 21 0 5 13 9 29 9 39 0 64 25 51 50 -12 23 -30 29
-57 19z m37 -34 c0 -16 -45 -21 -54 -6 -8 12 4 21 31 21 14 0 23 -6 23 -15z"/>
<path d="M4237 5081 c-45 -51 -10 -120 52 -106 17 4 31 11 31 16 0 5 -10 7
-22 4 -13 -3 -32 1 -43 9 -19 15 -19 15 11 16 34 0 54 16 54 41 0 33 -60 47
-83 20z m53 -26 c0 -9 -9 -15 -25 -15 -16 0 -25 6 -25 15 0 9 9 15 25 15 16 0
25 -6 25 -15z"/>
<path d="M6241 5076 c-26 -28 -23 -69 5 -80 24 -9 33 3 11 15 -23 13 -22 32 3
54 20 18 21 18 45 -5 33 -31 44 -18 12 14 -32 32 -47 33 -76 2z"/>
<path d="M3699 5061 c-35 -35 -36 -53 -7 -81 29 -27 54 -25 83 6 31 34 31 49
0 79 -31 32 -40 31 -76 -4z m63 -26 c14 -31 0 -50 -31 -40 -23 7 -28 34 -9 53
18 18 27 15 40 -13z"/>
<path d="M4626 5068 c-36 -52 3 -123 63 -116 23 3 34 22 14 23 -5 1 -20 4 -35
8 -35 9 -37 27 -4 27 24 0 56 23 56 39 0 15 -37 41 -58 41 -11 0 -28 -10 -36
-22z m57 -18 c4 -16 0 -20 -17 -20 -28 0 -36 8 -29 26 8 21 40 17 46 -6z"/>
<path d="M5006 5074 c-20 -19 -21 -14 9 -54 28 -39 19 -66 -13 -37 -20 19 -42
22 -42 7 0 -13 41 -50 55 -50 19 0 45 34 45 58 0 12 -9 27 -20 34 -11 7 -20
19 -20 27 0 11 3 11 15 1 9 -7 18 -10 22 -7 7 7 -15 37 -28 37 -4 0 -15 -7
-23 -16z"/>
<path d="M4810 5071 c-8 -6 -28 -7 -45 -4 -29 6 -29 5 -13 -13 9 -10 18 -35
20 -54 4 -41 23 -43 24 -1 1 40 10 49 39 43 28 -5 36 21 9 32 -19 7 -16 8 -34
-3z"/>
<path d="M5260 5065 c-9 -10 -4 -13 22 -12 23 2 33 -3 36 -15 3 -13 -3 -18
-22 -18 -36 0 -59 -26 -45 -52 8 -16 17 -19 40 -14 15 3 31 1 34 -4 3 -6 13
-10 21 -10 11 0 12 4 4 19 -5 11 -10 35 -10 53 0 18 -4 39 -9 47 -12 18 -57
22 -71 6z m60 -70 c0 -8 -9 -19 -20 -25 -15 -8 -21 -6 -29 9 -12 22 -5 31 26
31 13 0 23 -6 23 -15z"/>
<path d="M5437 5059 c-9 -5 -21 -8 -25 -5 -4 2 -8 -39 -7 -91 0 -68 4 -98 13
-100 8 -3 12 9 12 39 0 39 4 45 33 58 27 13 32 20 30 48 -1 30 -18 62 -32 62
-3 0 -14 -5 -24 -11z m21 -31 c19 -19 15 -48 -8 -48 -16 0 -20 7 -20 30 0 32
9 37 28 18z"/>
<path d="M5524 5035 c-12 -30 -13 -40 -2 -63 11 -22 20 -27 47 -27 21 0 36 6
39 14 3 10 0 12 -13 7 -21 -8 -55 1 -55 15 0 5 13 9 29 9 36 0 55 22 47 55 -5
21 -12 25 -42 25 -31 0 -37 -4 -50 -35z m64 3 c19 -19 14 -28 -12 -28 -29 0
-44 19 -25 31 18 12 23 11 37 -3z"/>
<path d="M5692 4958 c-13 -13 -16 -38 -4 -38 4 0 13 9 19 20 14 22 2 35 -15
18z"/>
<path d="M6330 4899 c0 -5 5 -7 10 -4 6 3 10 8 10 11 0 2 -4 4 -10 4 -5 0 -10
-5 -10 -11z"/>
<path d="M5157 4814 c-4 -4 -19 -7 -34 -8 -25 -1 -28 -5 -39 -66 -7 -36 -19
-83 -28 -104 -19 -46 -20 -59 -4 -54 7 3 20 27 29 54 14 40 22 50 43 52 14 2
26 0 26 -5 1 -4 2 -38 3 -75 2 -60 17 -101 32 -86 3 3 2 32 -4 65 -6 37 -6 87
-1 129 5 38 9 77 10 87 0 17 -20 23 -33 11z m1 -57 c6 -30 -5 -46 -27 -40 -21
5 -29 41 -14 57 12 12 38 1 41 -17z"/>
<path d="M5615 4748 c-8 -54 -4 -93 10 -93 6 0 11 27 13 59 4 73 -13 98 -23
34z"/>
<path d="M3560 4765 c0 -7 7 -16 16 -19 13 -5 16 -18 12 -68 -3 -35 -10 -64
-16 -66 -28 -9 -8 -22 33 -22 48 0 64 23 24 33 -17 5 -20 12 -18 56 2 35 9 57
21 68 27 24 23 28 -27 29 -30 1 -45 -3 -45 -11z"/>
<path d="M4250 4771 c0 -6 4 -12 10 -16 5 -3 7 -12 4 -19 -3 -8 0 -17 6 -21 7
-4 8 -28 4 -69 -7 -71 7 -93 51 -82 35 9 33 38 -2 34 -28 -3 -28 -3 -28 57 0
50 3 60 16 57 28 -4 32 27 5 38 -13 5 -27 14 -31 19 -8 14 -35 14 -35 2z"/>
<path d="M4650 4773 c0 -3 8 -15 18 -26 12 -14 17 -36 17 -85 0 -45 4 -67 13
-70 10 -3 13 5 11 31 -3 36 14 67 37 67 13 0 19 -19 14 -49 -4 -29 11 -82 23
-78 9 3 13 72 7 138 0 12 -44 19 -54 9 -17 -17 -26 -11 -26 16 0 15 -8 33 -17
40 -19 14 -43 18 -43 7z"/>
<path d="M6410 4769 c0 -5 5 -7 10 -4 6 3 10 8 10 11 0 2 -4 4 -10 4 -5 0 -10
-5 -10 -11z"/>
<path d="M4555 4751 c3 -11 1 -22 -5 -26 -7 -4 -7 -12 0 -25 5 -10 10 -37 10
-60 0 -34 4 -42 25 -52 18 -8 29 -8 36 -1 15 15 3 33 -22 33 -14 0 -19 7 -19
28 0 32 9 46 33 55 20 8 23 27 4 27 -8 0 -22 9 -32 20 -23 25 -38 26 -30 1z"/>
<path d="M3942 4721 c-6 -4 -20 -25 -31 -46 l-19 -39 -17 35 c-11 20 -20 29
-23 21 -6 -19 27 -102 42 -102 6 0 18 21 25 47 6 26 19 56 28 65 18 20 15 31
-5 19z"/>
<path d="M5250 4640 c0 -56 4 -90 10 -90 6 0 10 6 9 13 -4 31 2 47 19 47 24 0
62 41 62 67 0 29 -31 53 -68 53 l-32 0 0 -90z m60 42 c0 -19 -18 -42 -32 -42
-10 0 -11 44 -1 53 13 14 33 7 33 -11z"/>
<path d="M5418 4719 c-10 -5 -22 -28 -29 -51 -10 -39 -9 -44 12 -61 17 -14 33
-17 58 -13 61 10 56 27 -8 28 -52 1 -49 17 5 33 41 11 55 35 34 60 -14 17 -47
19 -72 4z m52 -29 c0 -5 -3 -10 -7 -10 -5 0 -18 -3 -30 -6 -17 -5 -23 -2 -23
10 0 11 9 16 30 16 17 0 30 -4 30 -10z"/>
<path d="M3670 4710 c0 -6 7 -13 15 -16 10 -4 15 -20 15 -45 0 -21 5 -39 10
-39 6 0 10 13 10 28 0 20 7 33 24 41 37 20 47 7 40 -55 -6 -45 -4 -54 9 -54
13 0 16 11 14 65 -3 77 -15 94 -53 76 -19 -8 -30 -9 -38 -1 -13 13 -46 13 -46
0z"/>
<path d="M4002 4703 c-31 -27 -34 -54 -12 -91 14 -22 27 -32 44 -32 35 0 56
10 56 26 0 17 -5 17 -29 2 -15 -9 -23 -9 -35 1 -24 20 -19 29 17 33 41 4 50
38 15 62 -28 20 -31 20 -56 -1z m46 -30 c2 -8 -6 -13 -22 -13 -25 0 -33 10
-19 24 10 10 36 3 41 -11z"/>
<path d="M4842 4697 c-29 -31 -28 -72 3 -103 19 -19 31 -23 48 -18 29 8 30 10
22 24 -4 6 -14 10 -23 9 -30 -3 -42 1 -42 12 0 6 6 9 14 6 19 -8 56 20 56 42
0 19 -29 51 -47 51 -5 0 -19 -10 -31 -23z m45 -23 c5 -15 -28 -27 -40 -15 -5
5 -6 14 -2 21 8 13 37 9 42 -6z"/>
<path d="M2203 4698 c-44 -7 -146 -58 -181 -91 -37 -35 -82 -121 -89 -172 -5
-41 -15 -57 -70 -114 -137 -143 -148 -253 -38 -393 12 -14 40 -35 63 -47 23
-12 42 -26 42 -31 0 -5 17 -17 38 -27 20 -9 40 -19 44 -21 3 -2 6 3 4 10 -3
23 -17 38 -35 38 -10 0 -26 9 -37 21 -10 12 -34 29 -53 38 -40 19 -68 55 -75
95 -3 16 -9 32 -14 35 -36 24 -31 113 11 182 22 37 113 139 123 139 3 0 20 10
37 23 56 39 138 67 199 67 58 0 108 15 108 33 0 5 -8 6 -17 1 -10 -4 -45 -8
-78 -9 -62 -1 -140 -25 -187 -57 -14 -10 -31 -18 -37 -18 -26 0 16 126 57 174
10 10 34 30 56 43 70 45 114 55 228 54 60 0 110 4 113 9 3 6 0 10 -7 11 -7 0
-47 4 -89 7 -42 4 -94 4 -116 0z"/>
<path d="M4148 4703 c-31 -5 -36 -18 -12 -27 13 -5 15 -15 11 -46 -3 -27 -1
-43 9 -51 16 -13 17 -11 18 51 1 43 2 45 29 42 23 -2 28 1 25 15 -3 19 -30 24
-80 16z"/>
<path d="M2545 4693 c-63 -6 -97 -15 -89 -22 11 -10 154 -1 154 9 0 10 -29 16
-65 13z"/>
<path d="M3075 4634 c-11 -3 -49 -12 -85 -20 -76 -18 -96 -30 -168 -98 -75
-70 -107 -135 -61 -123 16 4 19 2 14 -11 -14 -35 -17 -70 -7 -76 6 -3 31 20
55 51 60 77 97 112 97 90 0 -9 -5 -19 -11 -22 -6 -4 -8 -13 -5 -21 3 -8 -1
-14 -9 -14 -8 0 -15 -9 -15 -21 0 -24 4 -22 80 37 54 43 140 70 140 46 0 -8
-47 -47 -67 -56 -1 -1 -5 -14 -8 -29 -7 -27 -7 -28 34 -26 47 3 54 -2 71 -55
9 -29 9 -40 1 -45 -6 -4 -9 -15 -5 -25 5 -14 9 -15 15 -4 6 8 9 2 9 -20 0 -18
-4 -31 -9 -27 -5 3 -12 1 -16 -5 -3 -6 1 -13 9 -16 9 -3 16 -17 16 -30 0 -27
-20 -33 -21 -6 -1 20 -37 -77 -48 -130 -9 -43 -27 -68 -47 -68 -17 0 -18 12
-2 28 6 6 9 14 6 18 -4 3 -18 -13 -32 -35 -19 -30 -33 -41 -51 -41 -24 0 -24
1 -9 35 17 41 17 45 4 45 -8 0 -26 -66 -22 -82 1 -5 -9 -8 -22 -8 -27 0 -96
-37 -96 -51 0 -5 -7 -9 -15 -9 -18 0 -20 21 -2 39 10 11 8 11 -11 2 -18 -10
-23 -9 -28 4 -4 9 -2 21 3 26 14 14 53 20 53 8 0 -6 5 -7 10 -4 6 3 10 11 10
16 0 6 -4 7 -10 4 -5 -3 -10 -1 -10 5 0 6 -5 8 -10 5 -6 -4 -17 -2 -25 5 -11
9 -17 6 -30 -14 -19 -29 -40 -25 -32 6 5 16 3 17 -10 7 -10 -9 -17 -9 -21 -2
-9 13 -25 15 -137 16 -83 2 -90 4 -101 25 -8 16 -13 19 -16 10 -9 -25 -30 34
-31 86 -1 98 9 162 31 194 12 16 22 38 22 47 0 30 20 55 45 55 28 0 40 15 37
50 -1 20 7 30 48 53 28 15 57 27 65 27 17 0 65 -79 65 -108 0 -28 16 -37 23
-12 3 11 0 20 -5 20 -6 0 -8 12 -5 30 9 41 0 58 -37 74 -70 32 -186 47 -186
25 0 -6 7 -9 15 -5 8 3 15 1 15 -5 0 -6 -9 -13 -21 -16 -15 -4 -19 -11 -14
-27 24 -82 10 -121 -19 -53 -13 32 -59 77 -77 77 -18 0 -8 -16 21 -32 32 -18
42 -64 16 -74 -38 -15 -82 -201 -74 -311 2 -32 14 -79 27 -105 22 -46 22 -68
-1 -68 -17 0 -77 -70 -94 -110 -39 -90 -34 -208 13 -306 19 -40 24 -65 21
-104 -1 -27 0 -50 3 -50 10 0 21 49 14 60 -4 6 -1 10 4 10 6 0 11 -14 11 -32
0 -30 1 -31 16 -12 11 13 17 15 20 6 3 -6 10 -9 16 -6 11 7 6 -47 -7 -78 -4
-10 -5 -18 -1 -18 7 0 46 80 46 94 0 6 -18 22 -40 35 -53 33 -108 136 -117
220 -5 50 -3 64 10 74 17 13 41 97 27 97 -4 0 -15 -17 -23 -37 l-16 -38 6 35
c8 48 68 133 90 128 4 -1 26 2 48 7 36 8 38 9 15 15 -21 6 -16 9 32 20 49 11
65 11 125 -4 114 -29 167 -85 179 -188 4 -32 11 -58 15 -58 14 0 16 51 4 110
-7 35 -6 36 45 64 28 15 57 25 64 23 8 -3 18 -1 24 5 33 33 175 -10 245 -75
113 -103 105 -292 -17 -405 -25 -23 -54 -42 -65 -42 -11 0 -23 -5 -27 -11 -4
-7 4 -10 22 -7 27 3 29 1 26 -26 -3 -26 -1 -28 12 -17 9 8 16 23 16 34 0 11
20 41 44 67 64 68 88 122 94 207 7 112 -24 180 -121 260 -15 13 -38 25 -52 29
-38 9 -40 23 -9 55 32 34 49 37 41 9 -7 -26 9 -26 23 0 9 16 8 22 -5 26 -18 7
-20 25 -3 42 6 6 13 53 15 108 3 63 10 105 19 118 20 29 17 42 -5 22 -17 -16
-19 -15 -24 21 -5 26 -2 42 8 53 22 25 18 36 -6 14 -17 -16 -22 -16 -29 -4
-16 24 -12 37 21 64 29 25 32 25 67 11 36 -15 44 -23 68 -62 7 -10 15 -14 20
-10 23 22 -72 106 -119 107 -10 0 -28 -10 -40 -23 -31 -32 -73 -57 -97 -57
-29 0 -25 9 20 47 49 42 53 73 11 73 -34 0 -104 -30 -143 -62 -43 -34 -47 -10
-5 28 34 31 47 54 31 54 -4 0 -27 -12 -53 -26 -40 -22 -89 -73 -121 -124 -14
-22 -22 -6 -11 23 11 27 83 105 116 123 11 7 17 15 14 18 -11 12 -58 -13 -104
-55 -25 -23 -49 -39 -53 -34 -10 11 123 130 166 148 64 26 149 40 209 34 58
-5 174 -50 218 -85 56 -44 145 -193 145 -241 0 -12 5 -21 11 -21 38 0 -40 186
-107 255 -76 78 -245 140 -329 119z m68 -586 c-6 -32 -40 -98 -50 -98 -9 0 10
45 23 53 8 4 14 21 14 36 0 24 7 41 16 41 2 0 1 -15 -3 -32z"/>
<path d="M2647 4623 c-10 -9 12 -43 28 -43 8 0 30 -16 50 -37 19 -20 38 -33
41 -30 10 10 -25 57 -52 69 -13 6 -24 15 -24 19 0 11 -36 30 -43 22z"/>
<path d="M5624 4606 c-8 -22 -2 -27 16 -16 12 7 12 12 3 21 -10 10 -14 9 -19
-5z"/>
<path d="M6456 4548 c-21 -11 -36 -22 -33 -24 3 -3 19 2 36 10 16 9 43 16 60
16 41 0 48 16 8 17 -18 0 -49 -8 -71 -19z"/>
<path d="M2630 4550 c0 -5 4 -10 10 -10 5 0 25 -14 45 -31 39 -34 60 -33 29 2
-17 19 -65 49 -79 49 -3 0 -5 -4 -5 -10z"/>
<path d="M6381 4514 c0 -11 3 -14 6 -6 3 7 2 16 -1 19 -3 4 -6 -2 -5 -13z"/>
<path d="M2285 4505 c21 -17 37 -15 43 3 2 8 -8 12 -30 12 -31 -1 -32 -1 -13
-15z"/>
<path d="M6333 4476 c1 -10 -4 -21 -10 -23 -7 -3 -13 3 -13 14 -1 10 -7 0 -15
-21 -7 -21 -19 -42 -26 -46 -6 -5 -10 -19 -7 -34 4 -18 1 -26 -8 -26 -10 0
-14 15 -15 48 -1 26 -4 35 -6 21 -2 -15 -14 -31 -26 -37 -12 -6 -16 -11 -9
-11 8 -1 27 -14 44 -31 40 -41 58 -39 58 5 0 19 3 35 8 35 4 0 16 16 26 35 11
19 22 35 25 35 4 0 7 9 8 21 1 14 -3 19 -12 15 -7 -2 -16 0 -19 7 -3 7 -4 3
-3 -7z m-19 -61 c-4 -8 -11 -12 -16 -9 -6 4 -5 10 3 15 19 12 19 11 13 -6z"/>
<path d="M6398 4483 c-21 -5 -24 -23 -5 -23 7 0 22 7 33 15 20 15 9 18 -28 8z"/>
<path d="M6176 4471 c-4 -7 -5 -15 -2 -18 9 -9 19 4 14 18 -4 11 -6 11 -12 0z"/>
<path d="M6200 4434 c0 -8 5 -12 10 -9 6 3 10 10 10 16 0 5 -4 9 -10 9 -5 0
-10 -7 -10 -16z"/>
<path d="M5986 4395 c-28 -14 -55 -25 -60 -25 -25 -1 -92 -65 -128 -121 -104
-165 -65 -353 94 -455 48 -31 148 -64 193 -64 21 0 35 -5 35 -12 0 -7 7 -2 16
10 8 12 22 22 30 22 18 0 19 -26 1 -37 -8 -5 -11 -19 -7 -38 l6 -30 22 48 c11
26 19 54 16 61 -3 7 2 16 10 19 9 4 16 11 16 18 0 6 -15 2 -36 -10 -41 -25
-81 -30 -49 -7 17 12 16 13 -18 12 -36 -2 -66 -16 -34 -16 9 0 17 -5 17 -11 0
-10 -17 -9 -75 5 -5 1 -26 6 -45 10 -41 9 -88 36 -147 84 -32 26 -46 47 -62
95 -25 74 -28 157 -6 157 8 0 15 6 15 13 0 6 11 36 25 66 14 30 23 56 21 58
-6 7 -46 -73 -46 -92 0 -8 -4 -15 -10 -15 -26 0 9 81 60 137 45 48 177 115
230 117 48 1 47 20 -1 23 -20 2 -54 -8 -83 -22z"/>
<path d="M2317 4298 c-59 -91 -111 -198 -96 -198 18 0 24 5 21 20 -2 14 32 88
74 157 10 18 26 33 35 33 9 0 19 8 22 18 2 9 8 25 12 35 4 10 3 17 -3 17 -6 0
-35 -37 -65 -82z"/>
<path d="M3255 4350 c4 -19 16 -49 26 -66 25 -41 24 -56 -1 -24 -16 21 -20 22
-20 7 0 -10 7 -20 15 -23 8 -4 13 -9 10 -14 -2 -4 15 -32 39 -63 57 -74 83
-137 90 -222 5 -59 3 -77 -14 -110 -25 -50 -26 -65 -1 -33 30 38 44 104 36
178 -9 86 -35 144 -90 195 -40 37 -63 77 -34 59 14 -8 3 31 -17 63 -8 12 -14
31 -14 41 0 11 -7 26 -16 33 -15 12 -16 10 -9 -21z"/>
<path d="M6079 4357 c15 -19 41 -23 41 -7 0 6 -4 10 -9 10 -5 0 -18 3 -28 7
-16 6 -16 5 -4 -10z"/>
<path d="M6155 4350 c-3 -5 1 -10 9 -10 9 0 16 5 16 10 0 6 -4 10 -9 10 -6 0
-13 -4 -16 -10z"/>
<path d="M3180 4295 c-7 -9 -8 -15 -2 -15 5 0 12 7 16 15 3 8 4 15 2 15 -2 0
-9 -7 -16 -15z"/>
<path d="M6630 4264 c0 -5 7 -19 15 -30 8 -10 15 -14 15 -8 0 5 -7 19 -15 30
-8 10 -15 14 -15 8z"/>
<path d="M3470 4241 c0 -7 11 -38 25 -71 24 -58 41 -145 39 -206 -3 -117 -4
-121 -43 -180 -22 -32 -50 -72 -62 -88 -19 -24 -20 -27 -3 -16 24 15 85 94
109 140 23 45 36 186 23 265 -9 61 -53 156 -75 163 -7 2 -13 -1 -13 -7z"/>
<path d="M6590 4237 c0 -8 7 -20 15 -27 12 -10 15 -10 15 3 0 8 -7 20 -15 27
-12 10 -15 10 -15 -3z"/>
<path d="M3075 4213 c4 -10 10 -28 12 -41 7 -29 23 -39 23 -13 0 30 -18 71
-31 71 -7 0 -8 -7 -4 -17z"/>
<path d="M6385 4199 c-5 -16 -2 -25 11 -32 10 -6 28 -21 41 -35 l23 -25 0 43
c0 35 -2 40 -14 31 -20 -17 -48 -3 -41 20 4 11 2 19 -4 19 -5 0 -13 -10 -16
-21z"/>
<path d="M6542 4203 c2 -9 8 -18 15 -20 7 -3 9 3 6 16 -6 25 -26 28 -21 4z"/>
<path d="M2420 4148 c0 -49 5 -47 13 5 3 20 2 37 -4 37 -5 0 -9 -19 -9 -42z"/>
<path d="M3260 4180 c0 -4 7 -11 16 -14 22 -9 26 -8 22 6 -5 13 -38 20 -38 8z"/>
<path d="M6330 4166 c0 -14 5 -28 10 -31 6 -3 10 5 10 19 0 14 -4 28 -10 31
-6 3 -10 -5 -10 -19z"/>
<path d="M6950 4180 c0 -7 6 -10 14 -7 8 3 27 -5 41 -19 15 -14 29 -23 32 -20
8 7 -17 46 -30 46 -7 0 -22 3 -34 6 -15 4 -23 2 -23 -6z"/>
<path d="M3217 4173 c-4 -3 -7 -13 -7 -22 1 -13 3 -13 11 2 11 19 8 33 -4 20z"/>
<path d="M6500 4160 c0 -11 6 -20 14 -20 9 0 12 7 9 20 -3 11 -9 20 -14 20 -5
0 -9 -9 -9 -20z"/>
<path d="M6816 4171 c-9 -15 37 -61 61 -61 23 0 14 19 -16 35 -16 8 -31 20
-33 27 -3 9 -6 9 -12 -1z"/>
<path d="M3047 4140 c3 -11 9 -20 14 -20 11 0 11 3 3 24 -9 23 -23 20 -17 -4z"/>
<path d="M2174 4124 c-4 -10 -9 -22 -11 -26 -2 -5 0 -8 6 -8 11 0 26 39 17 47
-3 3 -9 -3 -12 -13z"/>
<path d="M2260 4095 c-13 -14 -29 -25 -36 -25 -14 0 -34 -30 -34 -52 0 -17 37
-21 46 -6 5 7 1 9 -9 5 -29 -11 -19 9 29 57 26 25 42 46 37 46 -5 0 -20 -11
-33 -25z"/>
<path d="M6379 4110 c-3 -29 3 -65 11 -74 10 -10 6 -24 -28 -95 -15 -29 -32
-56 -40 -58 -7 -3 -22 -23 -33 -44 -11 -22 -25 -39 -31 -39 -6 0 -9 -3 -5 -6
17 -18 73 47 125 146 37 71 47 110 28 110 -9 0 -12 7 -9 19 3 11 0 28 -6 38
-8 14 -11 15 -12 3z"/>
<path d="M3021 4094 c0 -11 3 -14 6 -6 3 7 2 16 -1 19 -3 4 -6 -2 -5 -13z"/>
<path d="M3080 4081 c0 -17 2 -31 4 -31 8 0 13 51 5 56 -5 3 -9 -9 -9 -25z"/>
<path d="M5780 4085 c7 -9 15 -13 17 -11 7 7 -7 26 -19 26 -6 0 -6 -6 2 -15z"/>
<path d="M2411 4068 c0 -13 4 -32 9 -43 7 -15 9 -10 9 23 1 23 -3 42 -9 42 -5
0 -10 -10 -9 -22z"/>
<path d="M3190 4074 c0 -8 5 -12 10 -9 6 3 10 10 10 16 0 5 -4 9 -10 9 -5 0
-10 -7 -10 -16z"/>
<path d="M6350 4080 c0 -5 5 -10 10 -10 6 0 10 5 10 10 0 6 -4 10 -10 10 -5 0
-10 -4 -10 -10z"/>
<path d="M6630 4075 c-20 -24 -6 -28 15 -5 10 11 13 20 8 20 -6 0 -16 -7 -23
-15z"/>
<path d="M7070 4063 c0 -23 17 -49 26 -41 9 10 -4 58 -16 58 -6 0 -10 -8 -10
-17z"/>
<path d="M2266 4051 c-23 -25 -32 -93 -11 -85 18 7 37 57 33 84 l-3 22 -19
-21z"/>
<path d="M2468 4023 c-3 -21 -2 -49 2 -63 5 -20 8 -13 12 30 3 30 3 59 -2 63
-4 5 -10 -9 -12 -30z"/>
<path d="M6295 4023 c-29 -57 -29 -60 -2 -33 26 26 45 70 30 70 -5 0 -18 -17
-28 -37z"/>
<path d="M5792 4025 c0 -16 2 -22 5 -12 2 9 2 23 0 30 -3 6 -5 -1 -5 -18z"/>
<path d="M6714 4019 c-19 -22 -19 -22 4 -10 12 6 22 16 22 21 0 15 -5 12 -26
-11z"/>
<path d="M7140 4013 c0 -15 7 -37 15 -47 16 -21 22 -20 25 4 5 33 -1 50 -20
60 -18 10 -20 8 -20 -17z"/>
<path d="M3021 4000 c0 -33 1 -34 11 -12 8 17 8 26 0 34 -9 9 -12 4 -11 -22z"/>
<path d="M2574 3999 c-3 -6 -1 -16 5 -22 8 -8 11 -5 11 11 0 24 -5 28 -16 11z"/>
<path d="M2987 4003 c-4 -3 -7 -24 -7 -46 0 -51 10 -43 15 12 4 42 3 46 -8 34z"/>
<path d="M5850 4001 c0 -9 44 -41 56 -41 9 0 -39 50 -48 50 -5 0 -8 -4 -8 -9z"/>
<path d="M6194 3986 c-10 -8 -16 -17 -13 -20 3 -3 14 3 24 14 21 23 17 26 -11
6z"/>
<path d="M6337 3993 c-4 -3 -7 -11 -7 -17 0 -6 5 -5 12 2 6 6 9 14 7 17 -3 3
-9 2 -12 -2z"/>
<path d="M6586 3985 c-3 -8 -1 -15 4 -15 6 0 10 7 10 15 0 8 -2 15 -4 15 -2 0
-6 -7 -10 -15z"/>
<path d="M2500 3970 c0 -11 4 -20 9 -20 5 0 7 9 4 20 -3 11 -7 20 -9 20 -2 0
-4 -9 -4 -20z"/>
<path d="M5790 3979 c0 -16 52 -110 58 -104 2 2 -5 20 -17 40 -11 20 -21 45
-21 56 0 10 -4 19 -10 19 -5 0 -10 -5 -10 -11z"/>
<path d="M6680 3970 c0 -5 5 -10 10 -10 6 0 10 5 10 10 0 6 -4 10 -10 10 -5 0
-10 -4 -10 -10z"/>
<path d="M5965 3950 c-8 -12 25 -21 42 -11 12 6 10 9 -11 13 -15 3 -29 2 -31
-2z"/>
<path d="M6312 3923 c-17 -20 -30 -38 -28 -40 4 -5 66 59 66 69 0 12 -3 10
-38 -29z"/>
<path d="M6590 3943 c0 -13 5 -23 10 -23 13 0 13 11 0 30 -8 12 -10 11 -10 -7z"/>
<path d="M2160 3920 c-7 -13 -7 -20 -1 -20 6 0 15 9 21 20 7 13 7 20 1 20 -6
0 -15 -9 -21 -20z"/>
<path d="M6213 3912 c-34 -18 -43 -32 -20 -32 8 0 24 11 37 25 27 29 26 29
-17 7z"/>
<path d="M7194 3880 c0 -28 3 -45 7 -38 14 25 14 88 1 88 -5 0 -8 -23 -8 -50z"/>
<path d="M2153 3889 c-24 -17 -43 -35 -43 -40 0 -13 13 -11 38 7 13 9 35 19
50 23 29 8 37 34 12 38 -8 1 -34 -12 -57 -28z"/>
<path d="M6035 3910 c-3 -5 1 -10 10 -10 9 0 13 5 10 10 -3 6 -8 10 -10 10 -2
0 -7 -4 -10 -10z"/>
<path d="M3175 3900 c-3 -5 -2 -10 4 -10 5 0 13 5 16 10 3 6 2 10 -4 10 -5 0
-13 -4 -16 -10z"/>
<path d="M5919 3890 c21 -18 51 -27 51 -16 0 5 -60 36 -69 36 -3 -1 5 -10 18
-20z"/>
<path d="M6384 3894 c3 -9 6 -20 6 -24 0 -5 9 -14 21 -21 31 -16 46 3 25 32
-10 16 -16 18 -16 9 -1 -12 -3 -11 -14 3 -16 21 -30 22 -22 1z"/>
<path d="M6668 3904 c-8 -7 3 -54 13 -54 12 0 12 47 0 54 -4 3 -10 3 -13 0z"/>
<path d="M7156 3872 c-5 -18 -5 -36 -2 -39 7 -7 19 43 13 59 -2 7 -7 -2 -11
-20z"/>
<path d="M5892 3860 c12 -17 26 -30 30 -30 12 0 -23 48 -40 54 -7 3 -2 -8 10
-24z"/>
<path d="M2825 3869 c-11 -17 0 -20 21 -4 17 13 17 14 2 15 -9 0 -20 -5 -23
-11z"/>
<path d="M3280 3865 c0 -8 7 -15 15 -15 8 0 15 4 15 9 0 5 -7 11 -15 15 -9 3
-15 0 -15 -9z"/>
<path d="M6354 3866 c-8 -22 -2 -27 16 -16 12 7 12 12 3 21 -10 10 -14 9 -19
-5z"/>
<path d="M6259 3854 c-7 -8 -26 -22 -42 -30 -16 -9 -26 -18 -23 -21 7 -8 86
44 86 57 0 14 -6 12 -21 -6z"/>
<path d="M7035 3860 c-3 -5 -1 -10 4 -10 6 0 11 5 11 10 0 6 -2 10 -4 10 -3 0
-8 -4 -11 -10z"/>
<path d="M7110 3860 c0 -5 5 -10 10 -10 6 0 10 5 10 10 0 6 -4 10 -10 10 -5 0
-10 -4 -10 -10z"/>
<path d="M3210 3850 c0 -5 5 -10 10 -10 6 0 10 5 10 10 0 6 -4 10 -10 10 -5 0
-10 -4 -10 -10z"/>
<path d="M6047 3853 c-14 -14 -6 -23 21 -23 40 0 60 16 30 23 -30 9 -43 9 -51
0z"/>
<path d="M6175 3850 c-3 -5 1 -10 10 -10 9 0 13 5 10 10 -3 6 -8 10 -10 10 -2
0 -7 -4 -10 -10z"/>
<path d="M2625 3840 c3 -5 11 -10 16 -10 6 0 7 5 4 10 -3 6 -11 10 -16 10 -6
0 -7 -4 -4 -10z"/>
<path d="M5970 3840 c19 -13 30 -13 30 0 0 6 -10 10 -22 10 -19 0 -20 -2 -8
-10z"/>
<path d="M2057 3828 c-15 -5 -25 -14 -22 -18 7 -11 65 8 65 21 0 11 -7 10 -43
-3z"/>
<path d="M2465 3814 c-16 -8 -32 -18 -35 -21 -8 -8 64 8 73 17 17 16 -10 19
-38 4z"/>
<path d="M7065 3822 c-12 -8 -37 -63 -32 -69 6 -5 21 16 35 50 12 29 12 30 -3
19z"/>
<path d="M1877 3813 c-27 -26 21 -207 71 -265 12 -14 12 -26 3 -65 -6 -26 -12
-78 -13 -114 -2 -55 3 -75 27 -123 16 -31 38 -66 49 -76 38 -36 72 -65 76 -66
24 -5 80 -29 80 -35 0 -4 -7 -23 -15 -42 -8 -20 -18 -67 -21 -106 -8 -79 3
-117 48 -169 15 -18 28 -37 28 -42 0 -14 68 -40 105 -40 34 0 45 -13 45 -51 0
-32 47 -114 81 -143 17 -15 54 -39 82 -52 45 -23 59 -25 141 -22 87 3 95 5
156 43 35 23 80 61 99 85 33 44 35 45 90 46 42 0 72 8 121 33 83 41 95 52 152
137 49 73 71 144 62 200 -10 68 -37 134 -69 171 -26 30 -31 43 -22 52 6 6 15
11 20 11 16 0 118 113 141 155 18 34 21 56 20 140 0 84 -4 107 -23 143 -40 73
-58 61 -34 -23 31 -112 34 -132 29 -177 -10 -88 -63 -168 -143 -215 -44 -26
-57 -25 -160 3 -7 2 -13 13 -13 24 0 27 -31 88 -62 121 -83 90 -234 127 -367
92 -52 -14 -75 -27 -122 -70 -31 -30 -72 -76 -89 -103 -30 -47 -39 -54 -67
-51 -24 3 -129 -55 -164 -90 l-37 -37 -40 23 c-74 42 -123 89 -147 140 -34 73
-38 97 -21 130 9 17 16 50 15 75 0 34 -2 40 -9 25 -8 -18 -9 -18 -9 -2 -1 10
4 28 10 39 8 15 8 22 0 27 -34 21 -104 232 -86 261 7 11 -8 14 -18 3z m90
-375 c-3 -8 -6 -5 -6 6 -1 11 2 17 5 13 3 -3 4 -12 1 -19z m916 -39 c75 -25
140 -80 167 -142 44 -102 30 -253 -31 -346 -16 -25 -29 -47 -29 -50 0 -3 -16
-17 -36 -31 l-36 -24 21 -17 c18 -15 21 -28 20 -86 0 -51 -3 -62 -9 -45 -13
31 -15 28 -15 -17 0 -22 3 -37 7 -35 14 9 8 -7 -13 -37 -11 -16 -25 -26 -31
-23 -6 4 -8 2 -4 -4 8 -14 -46 -68 -87 -86 -91 -41 -191 -45 -244 -11 -12 8
-29 15 -38 15 -20 0 -89 63 -115 105 -11 18 -24 61 -29 96 -7 54 -5 72 12 119
23 63 47 99 65 100 16 0 15 25 -2 53 -22 34 -39 136 -32 193 14 124 105 240
201 257 11 2 36 11 55 20 49 22 128 21 203 -4z m-477 -225 c-3 -9 -6 -20 -6
-25 0 -5 -9 -9 -19 -9 -11 0 -23 -5 -27 -11 -4 -8 0 -9 15 -4 17 5 21 2 21
-13 0 -15 -5 -19 -19 -15 -22 6 -33 -8 -21 -27 7 -11 11 -11 24 -1 14 12 16
10 16 -10 0 -30 -30 -50 -61 -42 -24 6 -24 6 -5 -15 10 -12 24 -19 30 -15 6 4
5 -1 -3 -10 -8 -10 -23 -16 -34 -15 -11 2 -22 -3 -25 -10 -2 -7 0 -12 5 -11
19 3 25 -2 14 -15 -16 -19 11 -40 44 -34 14 3 25 1 25 -3 0 -5 -18 -12 -40
-15 -22 -4 -40 -10 -40 -15 0 -5 7 -6 15 -3 21 8 19 -16 -2 -33 -18 -15 -11
-14 30 2 10 4 17 3 17 -4 0 -6 -6 -11 -13 -11 -16 0 -53 -38 -45 -45 3 -3 11
1 18 10 22 26 31 17 28 -27 -4 -52 -22 -59 -63 -24 -15 13 -33 22 -40 20 -6
-3 -27 15 -45 38 -30 37 -35 51 -38 110 -3 47 0 76 12 99 9 18 16 42 16 53 0
34 59 96 114 122 61 28 111 32 102 8z m763 -20 c79 -46 109 -82 132 -157 23
-76 19 -166 -8 -189 -8 -6 -28 -38 -44 -70 -28 -55 -34 -61 -111 -98 -60 -30
-93 -40 -129 -40 l-48 0 10 32 c5 18 9 48 9 65 0 23 5 33 15 33 13 0 13 3 3
20 -10 15 -10 22 -1 31 9 9 15 6 24 -14 7 -15 16 -27 21 -27 13 0 9 16 -7 30
-8 7 -15 17 -15 22 0 6 7 5 15 -2 26 -22 30 -1 5 25 -17 19 -20 25 -8 25 8 0
18 -3 22 -7 10 -10 96 -11 96 -1 0 8 -30 12 -57 9 -6 -1 -14 3 -18 9 -3 5 1
10 9 10 24 0 19 17 -6 25 -22 8 -22 8 5 12 37 6 34 23 -4 23 -26 0 -30 3 -24
18 28 64 46 135 48 185 1 31 6 57 11 57 5 0 30 -12 55 -26z m-759 -174 c0 -5
-4 -10 -9 -10 -6 0 -13 5 -16 10 -3 6 1 10 9 10 9 0 16 -4 16 -10z m-50 -44
c0 -2 -7 -6 -15 -10 -8 -3 -15 -1 -15 4 0 6 7 10 15 10 8 0 15 -2 15 -4z m10
-20 c0 -2 -7 -7 -16 -10 -8 -3 -12 -2 -9 4 6 10 25 14 25 6z m630 -100 c0 -9
-30 -14 -35 -6 -4 6 3 10 14 10 12 0 21 -2 21 -4z"/>
<path d="M2632 3328 c-13 -13 2 -38 23 -38 7 0 18 -7 25 -15 7 -8 17 -15 23
-15 6 0 1 10 -10 23 -11 12 -23 30 -26 40 -7 20 -18 22 -35 5z"/>
<path d="M2765 3240 c-3 -5 11 -16 31 -25 41 -17 99 -20 89 -5 -3 6 -17 10
-31 10 -14 0 -38 7 -54 15 -17 9 -31 11 -35 5z"/>
<path d="M2994 3216 c-5 -12 -16 -14 -52 -10 -35 4 -43 3 -32 -5 8 -6 41 -11
73 -11 50 0 58 2 55 17 -4 23 -36 29 -44 9z"/>
<path d="M2755 3023 c11 -46 25 -51 25 -10 0 27 -4 37 -16 37 -13 0 -15 -6 -9
-27z"/>
<path d="M2830 3019 c-18 -33 -6 -42 13 -9 10 16 14 30 8 30 -6 0 -15 -9 -21
-21z"/>
<path d="M2617 3004 c-9 -9 16 -44 30 -44 7 0 13 4 13 8 0 13 -36 43 -43 36z"/>
<path d="M2610 2926 c0 -19 26 -27 39 -12 13 15 4 26 -21 26 -10 0 -18 -6 -18
-14z"/>
<path d="M2865 2930 c-4 -7 3 -8 22 -4 38 9 42 14 10 14 -14 0 -29 -5 -32 -10z"/>
<path d="M2846 2885 c-6 -17 17 -31 34 -20 5 3 10 13 10 21 0 19 -36 18 -44
-1z"/>
<path d="M2614 2865 c-20 -15 -11 -18 20 -6 11 4 15 10 9 14 -5 3 -19 0 -29
-8z"/>
<path d="M2525 2840 c3 -5 8 -10 11 -10 2 0 4 5 4 10 0 6 -5 10 -11 10 -5 0
-7 -4 -4 -10z"/>
<path d="M2850 2825 c0 -18 19 -40 26 -32 4 4 0 15 -9 24 -9 10 -17 13 -17 8z"/>
<path d="M2644 2796 c-10 -8 -15 -18 -11 -22 4 -4 17 2 30 14 24 25 12 30 -19
8z"/>
<path d="M2407 2793 c-4 -3 -7 -13 -7 -22 1 -13 3 -13 11 2 11 19 8 33 -4 20z"/>
<path d="M2446 2751 c-10 -11 -13 -21 -7 -25 10 -7 14 -3 24 27 8 22 4 22 -17
-2z"/>
<path d="M2810 2760 c0 -5 5 -10 11 -10 5 0 7 5 4 10 -3 6 -8 10 -11 10 -2 0
-4 -4 -4 -10z"/>
<path d="M2560 2733 c0 -14 14 -30 38 -42 37 -19 35 -8 -3 22 -19 15 -35 24
-35 20z"/>
<path d="M2397 2703 c-12 -11 -8 -48 8 -69 13 -17 14 -16 4 14 -6 18 -8 39 -5
47 6 16 3 19 -7 8z"/>
<path d="M2705 2700 c-3 -5 0 -10 8 -10 8 0 20 -7 27 -15 14 -17 60 -20 60 -4
0 5 -5 7 -11 4 -6 -4 -19 2 -30 14 -21 23 -44 27 -54 11z"/>
<path d="M2550 2679 c0 -8 5 -20 12 -27 14 -14 64 -16 72 -3 3 5 -6 9 -20 9
-13 0 -34 8 -44 17 -16 15 -20 15 -20 4z"/>
<path d="M2688 2663 c6 -2 12 -13 12 -24 0 -10 3 -20 8 -20 43 -7 62 -6 62 2
0 5 -10 9 -23 9 -12 0 -28 9 -35 20 -7 11 -18 20 -25 19 -9 0 -9 -2 1 -6z"/>
<path d="M2435 2609 c-4 -6 0 -18 9 -27 15 -15 16 -15 16 5 0 25 -15 38 -25
22z"/>
<path d="M2643 2599 c22 -11 42 -18 45 -15 10 10 -32 35 -58 35 -22 0 -21 -2
13 -20z"/>
<path d="M2822 2565 c0 -16 2 -22 5 -12 2 9 2 23 0 30 -3 6 -5 -1 -5 -18z"/>
<path d="M2871 2571 c0 -14 -8 -33 -18 -43 -9 -10 -11 -18 -5 -18 17 0 34 38
29 63 -4 21 -4 21 -6 -2z"/>
<path d="M2500 2546 c0 -9 5 -16 10 -16 6 0 10 4 10 9 0 6 -4 13 -10 16 -5 3
-10 -1 -10 -9z"/>
<path d="M2800 2504 c0 -8 5 -12 10 -9 6 3 10 10 10 16 0 5 -4 9 -10 9 -5 0
-10 -7 -10 -16z"/>
<path d="M2360 3045 c-8 -9 -8 -15 -2 -15 12 0 26 19 19 26 -2 2 -10 -2 -17
-11z"/>
<path d="M3125 3030 c-3 -5 1 -10 9 -10 9 0 16 5 16 10 0 6 -4 10 -9 10 -6 0
-13 -4 -16 -10z"/>
<path d="M3095 2980 c-3 -5 -1 -10 4 -10 6 0 11 5 11 10 0 6 -2 10 -4 10 -3 0
-8 -4 -11 -10z"/>
<path d="M3105 2938 c11 -6 23 -16 27 -22 4 -6 10 -7 14 -3 9 9 -25 36 -46 36
-10 0 -9 -3 5 -11z"/>
<path d="M5987 3810 c13 -13 56 -23 49 -12 -3 5 -17 12 -32 15 -14 2 -22 1
-17 -3z"/>
<path d="M6760 3801 c0 -11 4 -22 9 -25 11 -7 20 14 13 32 -7 19 -22 14 -22
-7z"/>
<path d="M6830 3801 c0 -6 5 -13 10 -16 6 -3 10 1 10 9 0 9 -4 16 -10 16 -5 0
-10 -4 -10 -9z"/>
<path d="M7075 3760 c-10 -11 -14 -20 -8 -20 5 0 18 9 28 20 10 11 14 20 8 20
-5 0 -18 -9 -28 -20z"/>
<path d="M2711 3750 c14 -31 19 -36 19 -24 0 6 -7 19 -16 30 -14 18 -14 18 -3
-6z"/>
<path d="M6225 3760 c-3 -5 -1 -10 4 -10 6 0 11 5 11 10 0 6 -2 10 -4 10 -3 0
-8 -4 -11 -10z"/>
<path d="M6535 3740 c3 -5 10 -10 16 -10 5 0 9 5 9 10 0 6 -7 10 -16 10 -8 0
-12 -4 -9 -10z"/>
<path d="M3170 3730 c0 -5 5 -10 11 -10 5 0 7 5 4 10 -3 6 -8 10 -11 10 -2 0
-4 -4 -4 -10z"/>
<path d="M6311 3712 c-23 -33 -26 -42 -12 -42 10 0 44 61 37 67 -2 2 -13 -9
-25 -25z"/>
<path d="M2751 3714 c0 -11 3 -14 6 -6 3 7 2 16 -1 19 -3 4 -6 -2 -5 -13z"/>
<path d="M6466 3721 c15 -14 54 -23 54 -13 0 11 -24 22 -48 22 -10 0 -12 -3
-6 -9z"/>
<path d="M6642 3703 c14 -16 30 -37 36 -48 11 -20 11 -20 12 1 0 11 -13 32
-28 47 -37 35 -53 35 -20 0z"/>
<path d="M5880 3690 c-16 -29 -15 -89 0 -103 10 -9 11 -4 6 24 -4 20 -2 49 4
64 13 34 6 45 -10 15z"/>
<path d="M5949 3683 c-13 -16 -12 -17 4 -4 16 13 21 21 13 21 -2 0 -10 -8 -17
-17z"/>
<path d="M6072 3680 c-7 -11 -8 -20 -2 -20 5 0 14 9 20 20 6 11 7 20 3 20 -5
0 -14 -9 -21 -20z"/>
<path d="M6106 3673 c-6 -14 -5 -15 5 -6 7 7 10 15 7 18 -3 3 -9 -2 -12 -12z"/>
<path d="M2386 3658 c-9 -34 -7 -68 3 -68 5 0 11 20 13 45 3 47 -6 61 -16 23z"/>
<path d="M2326 3654 c-15 -38 3 -104 29 -104 4 0 2 7 -5 15 -6 8 -12 35 -12
60 0 48 -2 54 -12 29z"/>
<path d="M6015 3650 c-3 -5 -1 -10 4 -10 6 0 11 5 11 10 0 6 -2 10 -4 10 -3 0
-8 -4 -11 -10z"/>
<path d="M3184 3615 c3 -22 5 -55 5 -74 1 -19 4 -31 8 -27 9 9 3 107 -8 126
-6 10 -8 2 -5 -25z"/>
<path d="M6590 3640 c0 -5 5 -10 10 -10 6 0 10 5 10 10 0 6 -4 10 -10 10 -5 0
-10 -4 -10 -10z"/>
<path d="M6655 3630 c2 -14 5 -29 5 -35 0 -5 5 -3 10 5 7 11 10 5 10 -22 0
-21 -4 -38 -10 -38 -5 0 -10 -6 -10 -14 0 -8 -5 -16 -12 -18 -7 -3 -8 -9 -3
-18 14 -22 58 75 50 111 -4 16 -13 29 -20 29 -7 0 -16 6 -19 13 -4 6 -4 1 -1
-13z"/>
<path d="M6716 3610 c8 -31 24 -50 24 -29 0 8 -7 24 -16 35 -14 18 -15 18 -8
-6z"/>
<path d="M6610 3606 c0 -9 5 -16 10 -16 6 0 10 4 10 9 0 6 -4 13 -10 16 -5 3
-10 -1 -10 -9z"/>
<path d="M6387 3593 c-4 -3 -7 -11 -7 -17 0 -6 5 -5 12 2 6 6 9 14 7 17 -3 3
-9 2 -12 -2z"/>
<path d="M6020 3580 c-11 -7 -5 -9 23 -8 20 1 37 5 37 10 0 11 -41 10 -60 -2z"/>
<path d="M5933 3545 c-36 -32 -17 -32 22 0 17 14 25 25 18 25 -7 0 -25 -11
-40 -25z"/>
<path d="M6105 3560 c3 -5 8 -10 11 -10 2 0 4 5 4 10 0 6 -5 10 -11 10 -5 0
-7 -4 -4 -10z"/>
<path d="M6280 3540 c0 -11 5 -20 10 -20 6 0 10 9 10 20 0 11 -4 20 -10 20 -5
0 -10 -9 -10 -20z"/>
<path d="M6021 3536 c-9 -11 -7 -14 11 -13 13 0 32 -4 43 -8 20 -8 20 -8 1 13
-22 25 -39 28 -55 8z"/>
<path d="M6122 3529 c3 -8 8 -13 11 -11 9 3 7 11 -5 18 -6 4 -8 0 -6 -7z"/>
<path d="M6594 3505 c-6 -19 -7 -35 -3 -35 10 0 23 44 17 60 -1 5 -8 -6 -14
-25z"/>
<path d="M6738 3515 c-6 -30 -3 -43 8 -33 3 4 4 19 2 35 l-3 28 -7 -30z"/>
<path d="M2203 3511 c-32 -16 -43 -31 -23 -31 18 0 70 30 70 40 0 13 -7 11
-47 -9z"/>
<path d="M2108 3493 c-28 -7 -21 -21 7 -15 14 2 25 8 25 13 0 9 -4 10 -32 2z"/>
<path d="M3056 3469 c-8 -42 -8 -51 3 -45 11 7 20 65 11 71 -4 3 -10 -9 -14
-26z"/>
<path d="M6450 3490 c0 -5 7 -10 16 -10 8 0 12 5 9 10 -3 6 -10 10 -16 10 -5
0 -9 -4 -9 -10z"/>
<path d="M6075 3480 c3 -5 13 -10 21 -10 8 0 14 5 14 10 0 6 -9 10 -21 10 -11
0 -17 -4 -14 -10z"/>
<path d="M6210 3464 c0 -8 5 -12 10 -9 6 4 8 11 5 16 -9 14 -15 11 -15 -7z"/>
<path d="M2242 3448 c5 -32 28 -35 28 -4 0 17 -5 26 -16 26 -10 0 -14 -7 -12
-22z"/>
<path d="M6691 3441 c-8 -17 -28 -43 -45 -56 -30 -23 -31 -43 -2 -32 18 7 69
93 64 109 -2 6 -10 -3 -17 -21z"/>
<path d="M2002 3444 c2 -11 8 -18 13 -16 15 3 12 25 -3 30 -9 3 -13 -2 -10
-14z"/>
<path d="M5890 3449 c0 -5 5 -7 10 -4 6 3 10 8 10 11 0 2 -4 4 -10 4 -5 0 -10
-5 -10 -11z"/>
<path d="M6046 3446 c3 -9 11 -16 16 -16 13 0 5 23 -10 28 -7 2 -10 -2 -6 -12z"/>
<path d="M2037 3437 c-3 -9 -2 -19 4 -23 15 -9 18 -2 9 20 -6 17 -7 18 -13 3z"/>
<path d="M2120 3435 c0 -8 2 -15 4 -15 2 0 6 7 10 15 3 8 1 15 -4 15 -6 0 -10
-7 -10 -15z"/>
<path d="M2410 3443 c0 -5 5 -15 10 -23 8 -12 10 -11 10 8 0 12 -4 22 -10 22
-5 0 -10 -3 -10 -7z"/>
<path d="M2076 3422 c-4 -13 -5 -26 -2 -29 10 -11 18 4 14 29 l-4 23 -8 -23z"/>
<path d="M2280 3419 c0 -11 5 -17 10 -14 6 3 10 -3 10 -15 0 -12 5 -18 10 -15
16 10 12 52 -6 59 -23 9 -24 8 -24 -15z"/>
<path d="M6600 3415 c-13 -14 -19 -25 -13 -25 12 0 48 38 41 45 -2 3 -15 -6
-28 -20z"/>
<path d="M6242 3400 c12 -37 66 -80 99 -80 13 0 37 -7 53 -15 30 -16 64 -19
90 -9 30 12 16 21 -21 14 -25 -4 -45 -1 -60 8 -12 7 -38 15 -57 18 -51 6 -115
64 -71 64 23 0 18 17 -7 24 -36 9 -38 8 -26 -24z"/>
<path d="M5857 3389 c-4 -16 -3 -18 9 -8 16 13 19 29 5 29 -5 0 -11 -9 -14
-21z"/>
<path d="M6130 3379 c0 -5 5 -7 10 -4 6 3 10 8 10 11 0 2 -4 4 -10 4 -5 0 -10
-5 -10 -11z"/>
<path d="M3222 3367 c-14 -17 -18 -49 -8 -65 12 -20 36 5 36 39 0 32 -13 44
-28 26z"/>
<path d="M6244 3349 c25 -40 90 -79 128 -78 l33 1 -37 12 c-20 6 -43 17 -50
24 -6 6 -16 12 -22 12 -5 0 -23 12 -39 28 l-30 27 17 -26z"/>
<path d="M5846 3327 c3 -10 9 -15 12 -12 3 3 0 11 -7 18 -10 9 -11 8 -5 -6z"/>
<path d="M2382 3309 c-7 -12 -11 -24 -7 -27 7 -8 25 17 25 36 0 17 -3 15 -18
-9z"/>
<path d="M6240 3229 c0 -5 5 -7 10 -4 6 3 10 8 10 11 0 2 -4 4 -10 4 -5 0 -10
-5 -10 -11z"/>
<path d="M5927 3196 c29 -35 47 -44 58 -26 3 6 -3 10 -14 10 -11 0 -28 11 -39
25 -11 14 -23 25 -27 25 -4 0 6 -15 22 -34z"/>
<path d="M6148 3225 c-3 -3 -25 -9 -49 -13 -24 -4 -37 -10 -29 -13 20 -7 100
10 100 22 0 10 -13 12 -22 4z"/>
<path d="M6264 3217 c-2 -7 -1 -24 5 -38 8 -22 10 -22 16 -5 5 11 3 21 -5 26
-7 4 -9 13 -6 19 4 6 5 11 1 11 -3 0 -8 -6 -11 -13z"/>
<path d="M6168 3183 c-14 -2 -29 -11 -32 -19 -4 -11 0 -13 22 -8 25 6 68 36
47 33 -6 -1 -22 -4 -37 -6z"/>
<path d="M6040 3159 c0 -13 49 -31 73 -27 12 2 2 9 -27 19 -25 9 -46 12 -46 8z"/>
<path d="M7190 2856 c0 -9 5 -16 10 -16 6 0 10 4 10 9 0 6 -4 13 -10 16 -5 3
-10 -1 -10 -9z"/>
<path d="M6998 2798 c-5 -48 0 -67 13 -47 11 18 11 89 0 89 -5 0 -11 -19 -13
-42z"/>
<path d="M7115 2810 c-3 -5 1 -10 9 -10 9 0 16 5 16 10 0 6 -4 10 -9 10 -6 0
-13 -4 -16 -10z"/>
<path d="M7089 2732 c-8 -10 -18 -25 -22 -35 -5 -14 -3 -15 13 -5 10 7 21 21
24 32 7 27 3 29 -15 8z"/>
<path d="M7126 2675 c-19 -15 -19 -15 1 -15 11 0 23 7 27 15 7 19 -3 19 -28 0z"/>
<path d="M7010 2649 c-40 -7 -39 -8 13 -15 22 -3 37 -2 37 5 0 15 -12 18 -50
10z"/>
<path d="M7047 2617 c-25 -7 -37 -16 -35 -26 5 -24 21 -22 58 9 38 32 35 33
-23 17z"/>
<path d="M6925 1163 c-40 -6 -91 -46 -109 -86 -47 -103 -64 -361 -30 -477 36
-124 127 -182 253 -159 57 11 100 45 101 80 0 9 9 24 20 34 19 17 20 17 29 -9
6 -14 17 -26 24 -26 20 0 27 69 15 147 -5 36 -8 81 -6 99 l4 34 -51 0 c-27 0
-67 4 -87 9 l-38 9 0 -47 c0 -25 7 -59 15 -75 8 -15 15 -39 15 -52 0 -27 -32
-64 -56 -64 -31 0 -82 41 -109 85 -24 43 -26 52 -24 168 1 67 4 136 6 153 6
37 46 64 96 64 30 0 44 -9 85 -50 l48 -49 32 19 c23 14 33 29 38 57 4 21 13
50 20 65 23 44 18 49 -38 47 -35 -2 -64 3 -85 14 -31 16 -96 20 -168 10z m125
-26 c8 0 28 -9 44 -20 16 -11 42 -20 58 -20 29 0 29 -1 23 -41 -6 -37 -26 -66
-47 -66 -4 0 -8 6 -8 13 0 29 -82 77 -132 77 -23 0 -45 -11 -71 -33 -37 -31
-39 -35 -47 -117 -14 -151 -8 -229 22 -275 60 -92 119 -121 175 -86 40 25 53
79 30 125 -8 17 -17 43 -20 58 l-4 28 56 -6 c31 -4 57 -7 58 -8 1 -1 7 -33 13
-71 6 -39 13 -78 16 -87 8 -28 -14 -21 -28 9 -19 40 -38 41 -38 2 0 -50 -36
-115 -71 -129 -16 -7 -54 -13 -84 -13 -131 0 -202 105 -197 293 3 104 34 284
54 313 31 44 85 68 138 61 25 -4 52 -7 60 -7z"/>
<path d="M2697 1122 c-10 -11 -17 -35 -17 -59 0 -22 -9 -66 -19 -99 -11 -32
-22 -81 -26 -109 -3 -27 -13 -75 -21 -105 -34 -123 -56 -197 -70 -233 -8 -20
-14 -48 -14 -61 0 -44 78 -56 121 -19 25 21 59 129 72 228 2 11 9 37 17 58 12
33 18 37 47 37 19 0 35 -6 37 -12 22 -84 36 -152 37 -180 0 -18 8 -55 17 -83
l17 -50 50 -2 c55 -2 85 16 85 51 0 11 -11 50 -24 86 -34 92 -53 159 -60 205
-3 22 -9 58 -12 80 -3 22 -12 63 -19 90 -8 28 -17 67 -20 88 -3 21 -19 52 -37
72 -28 32 -34 35 -87 35 -43 0 -62 -5 -74 -18z m123 -19 c34 -23 49 -44 50
-68 0 -11 7 -51 15 -90 9 -38 27 -122 40 -185 13 -63 35 -149 49 -190 35 -100
34 -110 -8 -110 -18 0 -39 7 -46 15 -7 9 -21 55 -31 103 -38 190 -49 212 -104
212 -42 0 -49 -10 -73 -105 -57 -228 -72 -254 -136 -229 -17 6 -22 35 -8 48 4
4 7 11 8 14 0 4 12 45 26 92 23 73 47 173 64 270 3 14 14 57 24 96 11 38 20
84 20 101 0 17 6 34 13 36 26 11 74 6 97 -10z"/>
<path d="M2765 1026 c-14 -10 -19 -30 -23 -95 l-5 -81 53 1 c30 1 54 7 57 15
2 6 -1 32 -8 55 -7 24 -14 54 -15 67 -3 24 -21 52 -33 52 -4 0 -15 -6 -26 -14z
m33 -43 c14 -37 24 -98 17 -105 -4 -3 -15 -4 -26 -1 -16 5 -19 14 -19 69 0 68
11 82 28 37z"/>
<path d="M5446 1133 c-1 -1 -30 -3 -64 -4 -34 -1 -62 -6 -62 -10 0 -5 6 -9 13
-10 6 0 37 -1 67 -2 l55 -2 1 -312 c1 -288 2 -314 19 -333 22 -25 77 -27 96
-3 8 9 15 28 16 42 5 54 4 248 -2 306 -3 33 -7 92 -10 132 l-5 72 52 -4 c29
-3 67 -9 85 -14 37 -11 69 -5 77 14 16 43 -49 140 -78 116 -10 -9 -30 -9 -82
-1 -62 10 -173 18 -178 13z m179 -36 c11 -1 26 -6 33 -10 7 -5 26 -6 42 -2 24
5 32 2 46 -20 23 -35 8 -49 -35 -34 -36 13 -147 7 -163 -9 -6 -6 -6 -53 1
-133 5 -68 13 -171 17 -229 9 -156 -17 -230 -60 -168 -12 17 -15 58 -16 207 0
102 -2 200 -4 216 -3 17 2 40 10 52 18 29 18 34 -2 26 -14 -5 -16 -2 -10 20 3
14 2 28 -4 32 -5 3 -7 13 -4 23 3 9 7 22 9 29 4 11 27 11 140 0z"/>
<path d="M1635 1109 c-25 -21 -26 -23 -20 -103 10 -137 12 -290 5 -423 -4 -73
-4 -136 2 -145 9 -19 62 -25 85 -10 27 17 36 71 37 217 1 164 -4 151 61 147
36 -3 47 -34 52 -147 8 -201 23 -238 80 -203 l28 17 -2 153 c-2 159 -13 224
-45 271 -18 25 -25 27 -86 27 -37 0 -72 4 -79 8 -7 4 -15 35 -19 67 -8 70 -26
115 -53 132 -16 10 -24 9 -46 -8z m53 -31 c5 -7 13 -44 17 -83 5 -53 12 -76
29 -93 20 -21 27 -22 79 -14 51 8 58 7 75 -12 35 -38 41 -62 52 -214 12 -162
9 -192 -20 -192 -23 0 -27 18 -29 141 -2 109 -12 174 -30 192 -6 6 -33 13 -61
17 -82 10 -83 8 -85 -171 -1 -163 -12 -213 -43 -207 -16 3 -17 23 -15 278 2
174 -1 287 -8 308 -6 18 -8 39 -5 47 7 18 30 19 44 3z"/>
<path d="M5838 1123 c-22 -6 -23 -17 -2 -48 13 -21 17 -69 19 -307 2 -156 4
-289 4 -295 1 -7 12 -20 25 -28 19 -13 28 -14 50 -4 34 16 43 53 38 159 -2 47
-4 114 -5 150 l-2 65 38 -1 c65 -2 70 -14 74 -181 3 -143 4 -149 28 -170 16
-14 32 -19 47 -16 49 12 49 15 42 197 -8 210 -23 258 -90 287 -33 15 -51 17
-89 10 -53 -10 -52 -12 -58 72 -6 91 -48 130 -119 110z m81 -58 c6 -19 13 -54
15 -77 2 -24 6 -50 10 -59 8 -20 57 -32 71 -18 12 12 59 11 89 -2 37 -17 54
-91 62 -265 7 -154 3 -171 -30 -158 -23 9 -27 30 -30 174 -5 152 -12 172 -78
188 -39 10 -45 9 -66 -11 -23 -22 -24 -24 -17 -159 9 -160 3 -208 -25 -208
-10 0 -22 5 -26 11 -3 6 -8 131 -9 277 -2 147 -5 283 -8 302 -2 19 -2 38 0 42
8 15 30 -4 42 -37z"/>
<path d="M5248 1109 c-38 -21 -16 -82 36 -99 39 -13 154 -11 162 2 10 16 -9
27 -46 29 -104 3 -128 10 -135 36 -4 17 -1 29 7 34 19 12 -4 10 -24 -2z"/>
<path d="M1110 1090 c-38 -4 -46 -9 -54 -33 -8 -21 -7 -35 5 -55 14 -26 19
-27 94 -27 l80 0 0 -253 0 -254 24 -19 c13 -10 38 -19 56 -19 34 0 61 22 50
40 -3 5 -1 10 5 10 7 0 9 72 6 244 l-5 245 44 7 c25 3 61 3 80 0 19 -4 44 -2
55 4 41 22 13 92 -42 105 -31 7 -342 11 -398 5z m231 -26 c145 -5 175 -8 186
-22 7 -9 13 -20 13 -24 0 -5 -36 -8 -79 -8 -75 0 -81 -2 -101 -27 -21 -27 -22
-34 -18 -270 3 -229 2 -243 -15 -243 -10 0 -27 5 -38 11 -19 10 -20 19 -17
157 2 81 1 195 -1 254 l-4 107 -36 4 c-20 3 -58 5 -86 6 -59 2 -68 9 -59 46 6
25 10 27 44 21 21 -3 115 -8 211 -12z"/>
<path d="M8640 1011 c-59 -17 -86 -34 -108 -67 -49 -75 -68 -278 -36 -383 8
-29 30 -68 47 -87 29 -31 39 -36 95 -40 56 -4 67 -2 89 18 56 52 80 159 43
193 -24 22 -42 10 -71 -47 -11 -21 -25 -38 -32 -38 -27 0 -77 71 -77 109 0 17
6 21 38 21 67 1 124 17 149 42 21 22 24 34 26 109 3 106 -10 139 -63 162 -42
18 -59 19 -100 8z m99 -50 c40 -40 52 -181 17 -210 -14 -12 -135 -33 -147 -25
-5 3 -18 0 -29 -6 -45 -24 5 -157 68 -181 23 -9 30 -7 49 16 13 14 23 32 23
39 0 8 6 19 14 25 12 10 17 8 26 -9 16 -30 4 -74 -31 -111 -28 -30 -32 -31
-85 -26 -62 6 -88 24 -109 73 -20 49 -27 161 -15 264 10 86 13 98 41 124 51
48 143 62 178 27z"/>
<path d="M8623 918 c-37 -39 -68 -146 -43 -149 55 -7 119 -3 138 8 19 11 22
22 22 71 0 31 -4 62 -8 69 -4 7 -25 15 -47 18 -34 6 -43 3 -62 -17z m64 -16
c24 -18 39 -70 26 -88 -10 -13 -113 -27 -113 -15 0 16 30 94 41 108 15 17 19
16 46 -5z"/>
<path d="M7312 992 c-29 -9 -29 -9 -5 -57 27 -52 36 -193 24 -340 -12 -138 -1
-165 65 -165 19 0 39 9 53 24 20 21 23 34 22 111 0 47 -3 90 -5 94 -3 4 -8 39
-11 77 -3 38 -8 76 -11 85 -7 24 24 51 55 47 21 -2 27 -9 31 -38 4 -29 10 -36
32 -38 38 -4 76 23 72 51 -6 37 -31 135 -39 146 -9 15 -36 14 -78 -4 -46 -19
-96 -19 -121 0 -21 16 -45 17 -84 7z m145 -52 c28 0 54 4 57 9 3 5 15 11 26
14 28 7 60 -44 60 -95 0 -31 -4 -38 -20 -38 -13 0 -20 7 -20 20 0 38 -31 57
-86 51 l-49 -6 -3 -45 c-2 -24 -8 -50 -13 -57 -7 -8 -5 -19 5 -36 11 -16 18
-60 22 -144 7 -118 7 -120 -17 -136 -20 -14 -26 -15 -44 -3 -15 11 -20 24 -19
57 8 296 7 376 -5 398 -17 31 3 46 33 25 11 -8 44 -14 73 -14z"/>
<path d="M7718 982 c-43 -19 -68 -64 -51 -91 11 -17 49 -20 94 -7 22 6 33 2
60 -22 l33 -29 -24 -13 c-13 -7 -40 -10 -61 -7 -135 18 -203 -231 -94 -340 41
-41 86 -44 138 -9 19 13 44 27 56 31 12 3 21 13 21 21 0 28 -30 26 -67 -5 -42
-35 -61 -38 -102 -17 -41 21 -59 56 -66 123 -11 106 40 178 122 169 23 -2 45
0 48 5 4 5 15 9 25 9 24 0 36 40 21 69 -18 32 -48 43 -114 39 -49 -2 -62 0
-64 12 -7 37 124 54 192 26 65 -28 76 -77 60 -276 l-7 -95 36 -42 c20 -22 36
-46 36 -52 0 -16 -40 -13 -74 4 -34 18 -36 18 -36 3 0 -25 18 -40 60 -49 47
-11 66 -2 81 39 12 32 3 59 -21 65 -11 3 -27 21 -36 40 -15 31 -16 48 -7 134
17 160 1 232 -59 264 -35 19 -158 20 -200 1z"/>
<path d="M8180 985 c-14 -8 -33 -14 -42 -15 -10 0 -18 -7 -18 -16 0 -13 6 -15
33 -9 64 14 111 10 162 -15 41 -21 52 -32 63 -65 35 -103 22 -310 -20 -347
-28 -24 -58 -31 -106 -24 -68 9 -78 -6 -72 -116 2 -51 4 -122 5 -158 0 -59 -2
-65 -22 -68 -39 -6 -47 29 -44 188 2 80 4 240 5 355 1 195 0 213 -20 245 -21
37 -64 54 -64 26 0 -9 5 -16 11 -16 5 0 19 -21 31 -47 19 -44 20 -57 13 -272
-15 -467 -15 -453 1 -483 16 -31 58 -47 83 -31 31 19 42 55 35 113 -3 30 -7
94 -9 142 l-3 88 28 0 c15 0 33 -6 39 -14 10 -12 19 -10 60 9 26 13 55 35 64
49 29 44 51 286 28 301 -6 3 -8 14 -6 25 7 36 -15 89 -48 114 -29 22 -124 57
-151 56 -6 -1 -22 -7 -36 -15z"/>
<path d="M3582 980 c-39 -8 -77 -39 -105 -86 -13 -22 -37 -237 -31 -274 10
-56 62 -135 106 -160 32 -18 47 -20 92 -15 45 6 60 14 90 44 30 31 37 46 39
81 2 42 0 44 -31 54 -21 6 -36 6 -41 0 -3 -5 -20 -22 -38 -37 -26 -24 -34 -27
-52 -18 -27 15 -63 85 -55 106 5 13 19 15 78 12 91 -6 112 3 136 55 25 56 24
102 -3 157 -37 76 -93 100 -185 81z m108 -23 c72 -36 95 -196 35 -239 -5 -4
-41 -5 -80 -3 -97 6 -105 3 -105 -48 0 -46 27 -99 59 -116 26 -14 63 0 84 33
22 33 62 35 70 4 8 -28 -28 -93 -60 -107 -51 -23 -118 -5 -165 45 -31 34 -58
110 -58 162 1 66 30 206 49 232 30 41 123 61 171 37z"/>
<path d="M3571 881 c-33 -31 -43 -85 -19 -109 13 -13 145 -16 165 -4 34 22 12
97 -37 125 -41 25 -74 21 -109 -12z m113 -4 c18 -13 29 -79 14 -84 -5 -2 -35
-3 -68 -3 -70 0 -79 10 -56 64 14 33 19 36 54 36 21 0 46 -6 56 -13z"/>
<path d="M3167 973 c-48 -3 -57 -7 -47 -18 8 -10 30 -12 88 -8 l77 6 37 -37
c45 -45 53 -78 52 -206 0 -77 -4 -103 -22 -137 -29 -57 -59 -75 -99 -64 -21 6
-35 5 -42 -2 -19 -19 -13 -22 45 -22 50 0 58 3 84 32 38 43 62 127 62 222 1
153 -54 244 -143 239 -19 -1 -60 -3 -92 -5z"/>
<path d="M3060 953 c0 -10 7 -43 15 -73 13 -46 14 -109 9 -395 -7 -334 -6
-340 14 -358 30 -27 73 -19 92 18 15 30 26 258 14 298 -14 45 -19 5 -16 -115
2 -80 0 -144 -7 -161 -14 -37 -40 -46 -60 -21 -13 17 -16 46 -15 170 5 524 5
526 -14 613 -8 37 -32 55 -32 24z"/>
<path d="M6394 959 c-37 -11 -80 -63 -105 -129 -27 -72 -21 -237 12 -305 25
-52 52 -72 114 -82 82 -13 143 21 170 96 19 55 19 85 -1 105 -14 14 -18 14
-44 1 -16 -8 -32 -25 -35 -37 -9 -28 -44 -68 -61 -68 -19 0 -34 24 -43 76 -11
59 -5 68 49 66 48 -2 96 20 105 47 10 34 9 125 -4 161 -21 61 -85 90 -157 69z
m105 -39 c37 -32 45 -90 25 -187 -4 -20 -11 -23 -54 -23 -60 0 -100 -17 -100
-42 0 -45 24 -115 47 -135 22 -21 26 -22 52 -8 17 8 35 30 44 54 20 48 36 60
52 37 10 -13 10 -26 2 -54 -23 -79 -80 -106 -167 -77 -42 14 -52 23 -71 62
-18 37 -22 64 -23 152 -1 90 2 113 21 153 13 26 32 56 45 67 29 28 94 28 127
1z"/>
<path d="M6395 856 c-9 -13 -18 -39 -22 -58 -6 -42 2 -46 70 -40 72 6 79 29
31 101 -2 1 -7 0 -13 -4 -7 -4 -5 -14 5 -30 15 -23 15 -25 -9 -36 -35 -16 -71
4 -61 34 10 32 24 47 40 40 8 -3 14 0 14 6 0 20 -39 11 -55 -13z"/>
<path d="M2140 922 c-39 -17 -61 -43 -86 -96 -25 -54 -26 -66 -22 -160 3 -60
11 -116 21 -139 31 -72 109 -118 163 -96 16 7 31 13 34 14 44 15 80 68 80 120
0 35 -21 65 -45 65 -15 0 -55 -38 -55 -52 0 -5 -12 -13 -27 -19 -24 -9 -31 -7
-50 16 -16 18 -23 39 -23 67 0 40 0 40 33 33 86 -18 112 -17 138 4 33 26 44
76 28 133 -14 54 -33 76 -87 99 -45 20 -76 23 -102 11z m122 -45 c31 -23 48
-64 48 -114 0 -73 -29 -87 -126 -61 -42 12 -47 11 -60 -7 -8 -10 -14 -39 -14
-63 0 -35 6 -49 30 -73 37 -37 72 -32 116 19 26 30 32 33 37 18 19 -49 2 -98
-43 -121 -49 -25 -92 -19 -127 18 -44 44 -54 77 -60 187 -5 86 -3 100 20 152
21 47 31 59 59 67 42 12 84 4 120 -22z"/>
<path d="M2162 855 c-36 -16 -59 -59 -42 -80 6 -7 28 -13 50 -13 21 0 49 -6
61 -12 17 -10 24 -9 36 3 20 20 11 54 -22 90 -29 31 -37 32 -83 12z m88 -51
c14 -35 13 -36 -12 -28 -13 4 -39 10 -58 13 -46 8 -50 43 -5 52 38 7 63 -5 75
-37z"/>
<path d="M3215 893 c-40 -10 -41 -16 -30 -155 2 -16 3 -53 4 -83 1 -66 23 -85
72 -65 48 20 65 55 68 140 3 88 -15 140 -54 158 -27 13 -28 13 -60 5z m76 -50
c18 -45 20 -154 4 -189 -14 -31 -45 -47 -69 -38 -7 3 -12 40 -13 110 -1 58 -5
114 -8 125 -6 17 -1 19 35 19 35 0 42 -4 51 -27z"/>
<path d="M8204 888 c-12 -20 -6 -309 7 -324 20 -25 56 -16 81 19 21 29 23 43
23 148 0 138 -13 169 -70 169 -18 0 -37 -5 -41 -12z m78 -40 c7 -13 13 -61 14
-108 2 -95 -15 -150 -47 -150 -16 0 -19 8 -20 43 -1 23 -2 86 -4 140 -3 96 -3
97 21 97 14 0 28 -9 36 -22z"/>
<path d="M7840 740 c-10 -19 -17 -21 -55 -15 -41 6 -45 4 -59 -24 -20 -39 -20
-110 0 -139 21 -31 58 -28 110 10 40 29 51 47 44 73 -2 6 -4 32 -6 60 -2 54
-16 68 -34 35z m-6 -51 c2 -2 6 -19 9 -37 6 -28 2 -37 -20 -58 -14 -13 -38
-24 -53 -24 -22 0 -29 5 -33 28 -6 32 2 84 15 93 10 6 76 4 82 -2z"/>
<path d="M8883 553 c-24 -5 -57 -81 -43 -102 4 -7 25 -15 48 -18 37 -5 41 -3
57 26 15 30 15 34 -2 63 -20 34 -26 37 -60 31z m35 -59 c2 -14 -3 -23 -16 -26
-28 -8 -42 4 -35 30 7 30 47 26 51 -4z"/>
</g>
</svg>
