<?xml version="1.0" encoding="UTF-8" standalone="no"?>
<!DOCTYPE svg PUBLIC "-//W3C//DTD SVG 1.1//EN" "http://www.w3.org/Graphics/SVG/1.1/DTD/svg11.dtd">
<svg xmlns="http://www.w3.org/2000/svg" version="1.1" viewBox="0 0 1000 125" width="1000.0pt" height="125.0pt">
<path d="M 0.00 0.00 L 1000.00 0.00 L 1000.00 125.00 L 0.00 125.00 L 0.00 0.00 Z" fill="#fbfbfb" />
<path d="M 97.64 13.53 C 100.85 12.11 103.75 12.64 107.09 12.53 C 110.47 14.49 115.25 18.79 113.57 23.18 C 114.28 24.51 114.83 25.91 115.52 27.25 C 117.84 27.44 119.96 26.79 122.17 27.60 C 124.85 26.91 127.29 27.73 130.01 27.11 C 134.85 27.77 139.66 27.11 144.53 27.44 C 145.36 26.92 146.23 26.46 147.13 26.07 C 147.72 26.28 148.24 26.71 148.67 27.37 C 156.14 27.13 163.41 28.15 171.03 27.45 C 173.75 28.09 177.45 28.80 180.06 27.61 C 186.37 27.18 192.79 27.98 199.03 27.11 C 211.25 27.64 223.31 26.96 235.01 28.16 C 240.61 27.51 246.63 27.68 252.22 28.42 C 253.09 27.31 253.52 25.97 253.25 24.56 C 252.28 21.23 253.46 17.85 252.39 14.48 C 254.06 13.95 256.46 15.09 256.41 16.96 C 256.23 20.01 256.61 23.00 256.69 26.01 C 256.39 26.98 256.44 27.72 256.82 28.21 C 263.92 27.97 270.98 29.18 277.99 28.33 C 283.32 28.19 288.66 28.54 294.00 28.28 C 297.77 28.11 301.27 28.87 305.00 28.21 C 319.33 28.40 333.64 28.38 347.99 28.67 C 351.67 27.98 355.28 29.07 359.00 28.58 C 360.82 28.61 362.93 28.34 364.51 29.31 C 367.75 29.15 370.76 29.72 373.95 28.74 C 377.40 29.32 380.91 28.12 384.20 29.17 C 387.83 29.34 391.41 29.10 395.02 28.73 C 400.05 29.37 405.89 29.57 410.99 28.75 C 414.38 28.21 417.61 29.14 420.99 28.57 C 427.11 29.14 433.75 28.35 440.00 28.99 C 447.49 29.81 455.52 28.85 463.03 29.78 C 469.94 29.77 476.79 29.38 483.73 29.65 C 485.93 25.63 482.66 24.12 483.35 20.39 C 484.48 20.11 485.49 20.19 486.38 20.61 C 487.40 23.59 487.34 26.53 487.24 29.63 C 496.50 29.61 505.62 29.50 515.01 29.50 C 519.50 28.87 524.01 29.28 528.56 29.22 C 529.23 25.97 529.13 25.54 527.08 23.10 C 527.67 22.45 528.33 21.87 529.06 21.36 C 530.36 21.84 530.83 23.22 531.92 24.12 C 533.60 25.22 532.45 28.43 533.89 29.38 C 537.25 29.18 540.63 29.37 544.00 29.30 C 548.45 29.79 552.79 28.72 557.06 29.77 C 558.71 29.82 560.37 29.77 562.03 29.88 C 567.26 28.65 572.54 29.78 578.01 29.34 C 592.70 29.32 607.32 29.64 622.00 29.80 C 625.42 29.04 628.75 30.17 631.99 29.28 C 634.79 30.10 637.20 28.96 640.00 29.61 C 643.68 29.63 647.36 29.55 651.04 29.66 C 653.34 30.73 656.13 30.84 658.60 30.48 C 658.99 27.20 658.42 23.28 658.25 19.81 C 658.93 19.00 659.73 17.73 660.76 17.34 C 661.64 18.14 662.15 19.03 662.32 20.01 C 661.03 22.92 661.93 26.34 661.60 29.48 L 662.83 30.39 C 673.81 30.71 684.71 30.12 695.69 30.64 C 696.34 27.95 695.43 25.38 695.70 22.87 L 697.07 22.64 C 699.84 24.59 699.67 27.54 699.50 30.59 C 704.29 30.59 709.20 30.29 713.99 30.39 C 717.76 31.15 721.22 30.25 725.00 30.44 C 727.23 30.17 729.74 31.21 731.41 29.50 C 732.09 26.46 730.94 23.96 730.60 21.01 C 731.90 19.25 731.47 16.97 734.16 17.02 L 734.74 17.89 C 733.44 21.91 735.43 25.37 734.70 29.50 C 736.18 29.87 737.44 30.43 739.00 30.02 C 742.00 29.45 745.02 30.07 748.06 29.55 C 750.76 31.12 753.13 29.91 756.01 30.34 C 760.21 29.31 764.71 30.01 769.01 29.67 C 771.55 30.48 772.94 30.19 775.44 29.54 C 776.38 24.11 772.35 17.87 776.10 13.43 C 776.87 14.01 777.68 14.48 778.54 14.84 C 777.74 19.98 779.17 24.70 778.49 29.71 C 784.68 29.91 790.81 29.52 797.01 29.80 C 800.01 30.35 803.03 31.16 806.01 30.43 C 809.58 29.85 813.36 30.64 816.91 30.20 C 816.73 27.79 816.41 25.41 816.07 23.02 C 816.06 21.33 817.37 20.92 818.79 21.23 C 820.05 21.94 818.98 23.90 820.04 25.00 C 821.03 27.03 819.37 28.71 821.79 30.30 C 824.53 30.40 827.28 30.46 830.01 30.69 C 835.53 31.25 840.23 29.54 846.00 30.88 C 848.73 30.49 851.28 31.28 853.99 30.50 C 858.35 30.81 862.65 30.66 867.01 30.65 C 878.20 30.52 889.34 30.85 900.53 30.43 C 900.91 29.94 900.30 26.97 901.37 27.42 C 901.49 28.40 901.60 29.38 901.69 30.35 C 905.33 30.85 906.92 30.44 909.87 28.42 C 910.84 29.81 912.32 30.59 914.00 30.72 C 918.05 30.04 922.30 30.56 926.41 30.54 L 926.73 33.77 C 922.50 32.97 918.40 33.48 914.14 33.28 C 912.06 34.11 910.42 33.46 908.31 33.42 C 908.15 34.20 908.27 34.82 908.67 35.28 C 910.49 37.47 910.59 40.21 912.51 42.36 C 913.94 43.79 913.12 45.48 914.87 46.55 C 917.72 45.52 920.08 47.09 922.99 46.66 C 925.34 46.23 926.59 46.50 928.73 47.47 C 928.75 48.06 928.72 48.66 928.65 49.26 C 927.57 49.49 926.52 49.86 925.52 50.38 C 924.41 50.69 923.05 49.84 921.98 49.61 C 920.16 49.39 919.73 50.65 918.90 51.83 C 917.52 52.32 916.71 50.37 915.42 49.98 C 915.87 50.57 916.34 51.16 916.80 51.75 C 916.46 53.95 917.37 55.94 915.50 57.51 C 914.56 57.65 913.67 57.52 912.85 57.13 C 910.21 55.98 907.51 55.36 904.87 54.27 C 904.02 54.00 903.47 54.30 903.20 55.16 C 903.49 57.55 902.28 59.30 903.00 61.81 C 901.84 61.63 900.68 61.50 899.51 61.41 C 899.97 57.41 900.11 53.64 898.95 49.75 C 890.50 49.97 882.13 49.30 873.38 49.48 C 871.57 50.95 872.96 55.38 872.71 57.55 C 873.09 58.88 871.59 61.99 873.44 62.37 C 876.92 62.84 880.47 62.20 884.00 62.66 C 889.31 61.95 894.90 63.27 900.14 62.22 C 901.98 62.27 903.52 62.05 904.98 63.41 C 906.30 62.86 907.49 62.34 908.96 62.49 C 916.25 62.91 923.19 62.60 930.43 62.49 L 930.54 65.54 C 926.64 65.65 922.87 65.82 918.96 65.73 C 913.76 66.84 908.88 65.29 903.65 65.66 C 903.26 67.37 903.27 68.81 903.52 70.52 C 901.74 72.92 901.91 74.79 904.35 76.54 C 904.49 77.35 904.56 78.18 904.58 79.02 C 913.35 79.94 922.76 79.03 931.66 79.50 C 931.81 80.26 931.86 81.04 931.80 81.84 L 931.04 82.25 C 923.19 82.42 914.80 82.42 906.96 82.37 C 905.03 82.15 905.00 83.59 903.42 84.21 C 902.95 87.40 901.54 87.72 898.98 88.98 C 894.07 92.73 887.88 91.90 882.61 89.42 C 880.65 87.39 879.07 85.82 878.35 82.99 C 876.48 83.00 874.56 82.47 872.72 82.79 C 871.66 86.02 872.84 90.34 872.62 93.71 C 872.24 95.34 872.20 96.84 872.46 98.50 C 880.51 98.79 890.26 98.35 899.00 98.48 C 909.15 98.85 921.44 98.79 931.59 98.40 C 931.54 99.04 931.48 99.69 931.40 100.33 C 929.83 101.07 928.79 101.53 926.99 101.31 C 919.01 100.91 911.77 101.80 904.00 101.66 C 898.27 101.54 891.73 100.98 886.00 101.66 C 877.45 101.59 868.46 101.19 860.02 101.80 C 853.68 100.87 849.07 103.84 843.01 101.65 C 839.80 102.02 837.13 101.25 834.02 102.35 C 821.15 102.16 808.92 102.55 795.99 102.23 C 794.92 102.12 793.95 102.57 793.09 103.59 C 788.96 102.92 785.21 102.20 780.98 102.21 C 777.36 101.21 773.86 101.94 770.25 101.25 C 767.85 101.71 765.28 101.83 762.87 101.35 C 758.44 101.13 754.27 101.73 749.92 102.48 C 747.33 100.56 745.08 101.50 742.21 101.69 C 733.43 100.89 725.24 101.84 717.00 101.75 C 709.27 100.94 700.78 102.22 693.01 101.51 C 688.06 102.06 683.02 101.10 678.09 101.73 C 674.31 100.29 670.76 102.77 666.82 101.40 C 663.65 101.78 660.96 100.85 658.00 102.14 C 654.35 102.73 650.75 101.08 646.99 101.71 C 640.61 101.51 634.39 101.25 627.98 101.36 C 625.72 100.76 624.02 101.35 622.03 102.36 C 617.52 101.30 612.57 101.60 607.98 101.84 C 605.66 101.32 603.39 102.04 601.00 101.84 C 598.03 103.15 595.79 100.96 593.05 101.54 C 590.00 102.05 587.05 101.48 584.00 101.63 C 577.73 101.24 571.18 102.09 564.98 101.19 C 562.61 102.16 559.75 101.89 557.25 101.66 C 554.44 100.61 551.85 101.85 548.99 101.27 C 543.93 101.23 539.00 101.49 533.97 100.80 C 529.51 102.01 525.47 99.96 520.99 101.11 C 519.41 101.78 518.49 100.90 517.05 100.69 C 515.34 102.11 513.97 101.40 511.99 101.21 C 509.30 101.44 507.05 100.73 504.47 101.68 C 503.11 102.25 501.53 101.01 500.04 101.16 C 494.73 101.78 489.36 100.88 484.01 101.40 C 480.00 100.99 476.01 101.48 472.00 101.14 C 463.51 102.10 452.93 100.60 443.96 101.36 C 441.58 100.25 438.60 101.09 435.99 100.91 C 430.38 100.32 424.68 101.02 419.01 100.73 C 414.90 100.18 410.00 102.30 405.97 101.18 C 404.60 100.72 403.52 101.79 402.19 101.55 C 398.57 100.78 394.68 101.64 391.00 101.40 C 380.46 101.01 369.47 102.46 359.00 101.19 C 355.35 101.08 351.59 102.07 348.00 101.44 C 336.94 101.31 326.09 101.56 314.99 101.53 C 308.14 100.77 301.03 102.40 294.00 101.72 C 288.36 101.71 282.67 101.97 276.97 101.74 C 272.93 102.90 268.05 102.39 263.99 101.50 C 258.92 102.16 254.05 101.28 249.00 101.40 C 236.81 101.23 223.17 101.53 211.00 101.42 C 206.63 101.14 202.22 101.97 197.88 101.41 L 196.00 102.75 C 191.75 99.74 188.45 103.69 184.00 102.29 C 180.36 102.29 176.57 102.91 172.98 102.46 C 170.92 101.74 169.09 102.42 167.00 102.46 C 160.99 102.03 155.05 102.77 149.00 102.32 C 145.59 102.08 142.36 102.90 138.99 102.46 C 135.03 102.59 130.97 103.09 127.01 102.65 C 119.09 102.77 111.35 102.65 103.49 102.35 C 102.93 103.86 102.29 105.25 101.34 106.56 C 98.32 108.74 95.11 111.36 91.46 112.31 C 89.88 112.77 88.47 114.17 86.84 114.42 C 85.10 114.35 83.39 114.14 81.65 114.13 C 80.66 113.14 79.18 111.67 79.38 110.15 C 79.69 107.45 81.45 105.55 83.96 104.61 C 85.48 105.47 86.90 105.92 87.99 107.39 C 89.56 108.82 92.46 106.79 94.22 106.49 C 96.86 106.30 98.46 104.48 99.70 102.33 C 96.43 102.49 93.37 102.58 90.12 102.06 C 90.09 100.72 90.42 99.03 91.87 98.59 C 93.26 98.60 94.62 98.82 95.98 99.27 C 97.84 98.86 99.72 98.65 101.61 98.43 C 101.67 97.09 101.65 95.73 101.57 94.39 C 98.34 94.12 95.26 94.98 92.02 94.18 C 87.66 95.83 85.19 92.44 81.53 91.39 C 79.04 88.28 75.89 86.73 75.49 82.45 C 73.21 79.80 73.24 78.35 73.82 74.99 C 74.56 72.22 71.63 69.73 74.40 67.74 C 74.06 66.01 73.66 64.94 75.26 63.73 C 77.17 62.18 78.27 59.53 79.28 57.34 C 81.62 55.68 83.02 52.86 85.02 50.81 C 87.00 50.14 89.02 48.97 90.67 47.71 C 92.78 43.49 90.47 41.00 90.19 36.80 C 88.87 32.62 91.56 27.39 91.40 23.16 C 92.79 19.46 95.53 16.83 97.64 13.53 Z" fill="#414141" />
<path d="M 100.88 16.61 C 102.03 16.98 103.19 17.31 104.36 17.59 C 105.81 20.68 106.72 23.17 107.53 26.47 C 105.30 26.94 103.15 26.31 101.01 27.31 C 99.72 27.35 96.82 27.96 97.03 25.84 C 97.16 24.84 96.75 24.31 95.81 24.27 C 98.19 22.10 97.04 18.25 100.88 16.61 Z" fill="#fbfbfb" />
<path d="M 818.02 25.28 C 819.63 24.77 819.38 27.95 818.20 27.57 C 817.65 26.61 817.59 25.85 818.02 25.28 Z" fill="#fbfbfb" />
<path d="M 145.48 30.74 C 144.83 35.51 145.56 40.67 144.98 44.78 C 140.11 45.10 135.07 43.97 129.85 45.00 C 126.18 46.15 121.80 45.63 118.01 45.29 C 113.38 45.75 108.78 45.05 104.16 45.71 C 104.31 44.42 104.72 43.18 104.96 41.90 C 105.92 41.65 106.90 41.44 107.90 41.26 C 108.97 38.34 110.52 35.75 112.24 33.18 C 112.68 31.40 114.11 30.37 115.97 30.55 C 119.94 31.17 124.03 30.22 128.00 30.55 C 134.41 30.72 139.11 28.63 145.48 30.74 Z" fill="#fbfbfb" />
<path d="M 96.58 30.49 C 99.67 30.51 102.64 30.41 105.73 30.64 C 105.85 31.34 105.86 32.02 105.75 32.69 C 104.06 36.04 101.76 38.55 98.94 40.98 C 98.65 41.36 98.22 41.53 97.64 41.50 C 96.19 39.68 97.53 36.81 95.52 35.98 C 97.68 34.97 96.25 32.37 96.58 30.49 Z" fill="#fbfbfb" />
<path d="M 148.16 30.29 C 151.49 30.38 154.68 29.92 158.00 30.53 C 163.57 30.71 168.63 29.87 173.96 31.17 C 175.75 31.14 177.27 31.03 179.00 31.60 C 180.31 30.03 181.16 30.42 183.00 30.64 C 189.13 30.64 195.09 30.72 201.19 30.15 C 219.03 30.89 234.48 30.53 252.11 30.61 L 252.62 31.17 C 252.56 35.18 253.06 40.53 252.07 44.37 C 240.08 44.78 227.83 43.95 215.82 44.52 C 215.83 41.46 217.23 39.36 215.53 36.39 C 213.35 35.97 212.95 36.28 211.58 37.97 C 211.62 40.18 212.14 42.12 211.62 44.34 C 204.35 43.95 197.25 44.22 190.00 44.69 C 184.44 44.11 179.48 44.78 174.00 44.85 C 169.59 43.78 165.42 44.91 161.00 44.55 C 159.29 44.18 157.72 44.88 156.00 44.61 C 153.65 44.22 150.81 45.38 148.66 44.38 C 146.91 41.19 149.24 36.88 147.97 33.38 C 147.57 32.56 147.53 30.98 148.16 30.29 Z" fill="#fbfbfb" />
<path d="M 307.98 30.68 C 311.76 30.76 315.24 30.37 318.97 31.18 C 323.62 31.14 328.35 31.26 333.00 31.28 C 338.43 30.72 343.59 31.96 349.00 31.42 C 352.38 31.11 355.66 31.71 359.00 31.41 C 361.14 31.75 363.26 31.02 364.96 32.29 C 367.11 32.22 369.47 32.52 371.52 31.78 C 375.05 31.49 378.68 31.64 382.23 31.72 L 383.36 32.85 C 382.62 37.03 384.25 40.45 382.54 44.53 C 378.28 45.33 373.93 43.71 370.01 45.19 C 367.50 45.01 365.34 45.79 363.08 44.50 C 358.40 44.73 353.68 44.40 349.00 44.40 C 346.04 44.58 341.55 45.12 338.86 44.13 C 338.53 41.73 338.23 39.37 338.31 36.95 C 337.66 35.40 337.82 33.37 336.03 32.79 C 333.25 34.25 335.22 36.07 334.69 38.50 C 335.85 40.73 335.00 42.39 334.65 44.66 C 327.42 44.46 320.22 44.45 313.00 44.45 C 308.03 43.93 303.36 44.87 298.45 44.71 C 296.74 40.19 299.16 36.02 297.58 31.35 C 299.41 30.99 301.18 31.23 303.02 31.21 C 304.64 30.45 306.25 30.72 307.98 30.68 Z" fill="#fbfbfb" />
<path d="M 256.62 30.64 C 259.49 31.22 265.37 29.95 267.33 32.00 C 266.68 36.11 267.56 40.25 267.37 44.23 C 263.93 44.34 260.19 44.32 256.75 44.18 C 256.56 39.83 255.96 34.89 256.62 30.64 Z" fill="#fbfbfb" />
<path d="M 278.96 30.73 C 282.35 31.19 285.61 30.28 289.02 30.91 C 290.23 31.14 291.46 31.25 292.71 31.25 C 292.79 32.51 292.97 33.77 293.25 35.01 C 292.24 38.27 292.64 41.31 292.64 44.66 C 287.78 43.96 282.85 44.67 277.96 44.23 C 275.58 43.76 272.59 45.94 270.59 44.10 C 270.68 40.69 269.71 34.72 270.77 31.67 C 273.63 31.52 276.16 31.72 278.96 30.73 Z" fill="#fbfbfb" />
<path d="M 387.91 32.18 C 392.56 31.07 396.32 32.58 401.00 32.20 C 404.17 31.96 408.16 33.02 410.96 31.43 C 415.60 31.58 420.41 31.97 425.02 31.46 C 427.33 32.01 429.66 31.87 432.00 31.58 C 437.11 31.94 442.46 32.02 447.57 32.36 C 447.53 36.54 447.02 40.50 447.57 44.71 C 437.73 44.97 427.83 44.53 417.98 44.78 C 412.84 44.00 408.23 45.19 403.00 44.82 C 397.49 44.51 392.00 45.00 386.51 44.53 C 384.91 42.61 386.59 39.58 386.45 37.18 C 387.54 35.41 387.50 34.16 387.91 32.18 Z" fill="#fbfbfb" />
<path d="M 450.63 32.40 C 454.63 31.97 458.81 32.70 462.79 32.80 C 470.22 32.80 476.15 32.35 484.17 32.67 C 484.82 34.42 484.09 35.84 483.52 37.47 C 483.51 39.82 485.04 43.26 483.69 45.41 C 478.71 44.91 474.01 44.62 469.00 44.90 C 466.78 45.68 464.27 45.10 461.93 45.51 C 458.39 43.48 454.34 45.42 450.52 44.52 C 450.82 40.49 450.26 36.45 450.63 32.40 Z" fill="#fbfbfb" />
<path d="M 487.30 32.60 C 492.63 33.26 497.86 32.11 503.15 32.80 L 503.70 33.19 C 504.91 37.38 503.61 41.17 503.73 45.45 C 501.13 44.76 498.74 45.73 496.11 45.23 C 493.31 44.73 490.54 44.89 487.70 44.87 C 486.84 41.07 487.41 36.56 487.30 32.60 Z" fill="#fbfbfb" />
<path d="M 529.37 32.33 C 529.22 36.40 529.91 40.77 528.84 44.72 C 525.61 45.41 523.16 44.74 519.98 44.81 C 516.41 45.56 511.15 45.62 507.72 44.99 C 507.29 42.71 507.12 40.31 507.47 38.00 C 507.49 36.47 506.73 33.82 507.88 32.61 C 515.41 32.94 521.86 31.66 529.37 32.33 Z" fill="#fbfbfb" />
<path d="M 533.19 32.21 C 540.77 32.01 548.27 32.77 555.84 32.34 C 561.31 33.67 567.39 31.89 573.01 32.53 C 584.51 32.54 594.65 32.80 606.45 32.72 C 608.50 33.75 610.92 33.57 612.92 32.55 C 617.80 33.42 623.76 32.31 628.65 32.50 C 629.83 33.81 629.25 35.35 629.31 37.01 C 628.78 39.74 629.70 42.52 629.13 45.19 C 626.68 45.56 624.29 44.96 621.84 45.64 C 616.84 45.27 611.91 46.07 606.99 45.17 C 599.74 46.04 592.29 44.86 585.00 45.40 C 581.15 45.02 575.91 45.56 572.37 44.89 C 572.12 41.79 572.76 38.29 571.28 35.52 C 569.88 35.45 569.40 36.94 568.77 37.92 C 568.96 40.38 568.87 42.83 568.55 45.28 C 560.32 45.99 552.24 44.99 544.00 45.12 C 540.27 44.52 536.50 44.88 532.79 45.38 C 532.89 44.08 532.76 42.80 532.71 41.50 C 533.67 38.58 533.00 35.30 533.19 32.21 Z" fill="#fbfbfb" />
<path d="M 735.39 32.77 C 739.30 32.99 743.15 32.73 747.05 32.79 C 748.91 33.62 750.98 33.33 752.75 34.02 C 753.17 35.75 753.45 37.25 752.95 39.00 C 752.43 41.25 753.17 43.68 752.79 45.97 C 751.93 47.03 749.49 46.27 748.50 45.57 C 743.88 45.66 739.16 45.85 734.56 45.48 C 734.50 42.98 735.85 40.35 735.02 38.01 C 734.39 36.43 735.10 34.42 735.39 32.77 Z" fill="#fbfbfb" />
<path d="M 774.69 32.53 C 774.71 34.93 774.90 37.27 774.45 39.65 C 772.07 39.82 770.44 38.25 768.04 38.40 C 763.87 39.44 759.44 40.65 758.28 45.42 C 757.64 45.53 756.99 45.61 756.35 45.67 C 756.00 44.02 756.64 42.63 756.68 41.00 C 756.00 38.68 756.48 36.10 756.51 33.68 C 758.23 32.04 759.88 33.11 762.00 32.90 C 766.25 32.57 770.44 33.03 774.69 32.53 Z" fill="#fbfbfb" />
<path d="M 778.53 32.53 C 783.09 32.80 787.49 32.65 792.02 33.29 C 794.63 32.15 798.37 33.48 800.95 34.41 C 803.57 34.11 806.40 32.75 808.99 33.38 C 811.21 33.93 815.11 32.53 816.84 34.07 C 816.42 37.90 817.05 41.69 816.42 45.43 C 814.78 46.39 813.88 46.52 811.99 46.26 C 809.36 45.92 806.76 46.48 804.11 46.35 C 801.18 46.43 799.30 48.11 796.44 46.91 C 790.78 45.90 784.44 46.74 778.76 45.50 C 778.22 41.41 778.20 36.67 778.53 32.53 Z" fill="#fbfbfb" />
<path d="M 633.96 32.63 C 640.01 32.46 646.01 32.69 652.03 32.66 C 654.15 33.81 656.16 33.31 658.42 33.44 C 658.45 37.48 658.61 41.44 658.59 45.56 C 657.06 45.78 655.55 45.87 654.00 45.80 C 646.91 44.79 639.56 45.59 632.39 45.33 C 632.21 42.87 632.89 40.47 632.63 38.00 C 632.94 36.12 631.89 33.63 633.96 32.63 Z" fill="#fbfbfb" />
<path d="M 662.15 33.25 C 673.36 33.48 684.53 33.28 695.73 33.60 C 696.16 37.44 695.63 41.08 695.59 44.78 L 695.07 45.35 C 683.91 45.70 673.55 45.35 662.31 45.65 C 661.51 42.04 661.63 36.89 662.15 33.25 Z" fill="#fbfbfb" />
<path d="M 873.41 33.63 C 882.37 33.36 890.70 33.34 899.82 33.33 C 900.79 34.27 900.18 36.75 900.06 38.00 C 899.04 40.79 900.23 43.89 899.24 46.59 C 890.63 46.32 882.04 46.36 873.44 46.30 C 871.70 45.41 872.98 40.97 872.75 39.20 C 872.92 37.79 871.64 34.16 873.41 33.63 Z" fill="#fbfbfb" />
<path d="M 700.02 33.70 C 710.43 33.54 720.98 33.42 731.28 33.52 C 731.10 37.48 731.16 41.21 731.42 45.15 C 726.70 47.03 722.13 45.93 717.20 46.16 C 711.39 44.99 705.21 46.53 699.48 45.22 C 699.27 42.76 700.03 40.44 699.77 37.96 C 700.35 36.25 700.51 35.50 700.02 33.70 Z" fill="#fbfbfb" />
<path d="M 832.00 33.52 C 836.88 34.18 841.12 32.58 846.01 34.06 C 848.54 33.95 850.93 35.06 852.95 33.53 C 858.41 33.63 863.74 33.61 869.19 33.52 C 869.99 35.05 869.39 37.29 869.56 39.00 C 869.36 41.05 870.43 44.67 869.04 46.32 C 863.33 46.63 857.20 46.22 851.51 46.30 C 851.40 43.32 853.95 37.30 850.92 35.42 C 848.17 37.49 849.64 42.95 849.26 45.98 C 847.17 47.84 844.44 45.66 842.19 46.12 C 839.45 46.86 837.63 44.73 835.04 46.37 C 830.32 46.33 825.57 46.35 820.84 46.43 C 820.40 43.74 820.17 40.75 820.32 38.00 C 820.68 36.05 819.04 34.84 821.18 33.59 C 825.02 33.39 828.35 34.33 832.00 33.52 Z" fill="#fbfbfb" />
<path d="M 903.20 34.25 C 905.99 35.73 906.52 38.24 908.28 40.67 C 908.94 42.43 910.16 43.64 909.79 45.67 C 908.16 47.53 906.14 45.99 903.76 46.65 C 901.83 45.00 902.67 43.18 902.91 41.00 C 903.03 38.84 902.33 36.26 903.20 34.25 Z" fill="#fbfbfb" />
<path d="M 139.47 47.62 C 141.68 48.14 143.98 46.56 145.26 48.93 C 145.44 53.52 145.67 58.09 145.65 62.69 C 143.60 62.07 141.71 62.66 139.70 62.29 C 139.89 57.30 140.68 52.57 139.47 47.62 Z" fill="#fbfbfb" />
<path d="M 148.17 47.26 C 155.65 48.30 163.54 47.45 171.03 47.74 C 173.45 48.96 175.86 48.15 178.63 48.25 C 178.98 51.37 179.77 54.34 179.86 57.48 C 179.94 59.41 180.95 60.89 179.54 62.55 C 176.46 62.79 173.08 62.71 170.02 62.21 C 162.93 62.38 155.83 62.34 148.74 62.52 C 148.28 57.37 148.97 52.41 148.17 47.26 Z" fill="#fbfbfb" />
<path d="M 199.17 47.44 C 203.38 47.47 207.59 47.33 211.81 47.37 C 211.89 52.08 211.45 56.86 211.45 61.60 C 207.31 61.63 203.18 61.70 199.04 61.56 C 197.75 61.91 196.97 62.59 195.56 62.17 C 191.27 60.53 187.92 63.77 183.61 61.53 C 184.11 58.64 183.34 55.90 183.61 53.00 C 183.75 51.37 183.64 49.78 183.39 48.17 L 183.91 47.58 C 188.89 47.41 194.29 48.31 199.17 47.44 Z" fill="#fbfbfb" />
<path d="M 216.19 47.26 C 225.49 47.95 234.94 47.28 244.31 47.32 C 244.32 48.09 244.43 48.84 244.64 49.56 C 244.32 48.86 243.87 48.31 243.28 47.91 C 239.71 48.65 236.31 52.19 236.52 56.00 C 235.83 58.51 237.89 59.46 237.98 61.67 C 233.08 61.49 227.87 61.86 223.04 61.18 C 220.82 61.88 218.94 61.86 216.69 61.44 C 215.33 59.70 216.94 56.04 216.41 53.99 C 215.89 51.74 216.28 49.55 216.19 47.26 Z" fill="#fbfbfb" />
<path d="M 256.39 47.19 C 260.25 47.52 263.52 46.44 267.42 47.44 C 267.72 52.11 267.96 56.89 267.60 61.55 C 262.53 61.82 257.38 61.30 252.27 61.60 C 252.84 60.03 253.74 58.56 254.55 57.11 C 254.49 56.06 254.42 55.01 254.36 53.96 C 257.23 51.90 256.53 50.37 256.39 47.19 Z" fill="#fbfbfb" />
<path d="M 270.95 47.16 C 274.03 48.15 276.68 47.04 279.79 47.15 C 284.05 47.33 288.33 47.28 292.60 47.49 C 292.63 50.95 293.92 53.89 293.30 57.19 C 292.26 56.65 291.26 56.02 290.30 55.31 C 287.24 54.78 283.94 55.36 280.87 55.63 C 278.58 56.92 276.98 58.77 276.36 61.36 C 274.16 62.37 271.97 63.32 270.61 60.62 C 270.72 58.38 270.27 56.22 270.76 54.00 C 270.63 51.66 270.13 49.50 270.95 47.16 Z" fill="#fbfbfb" />
<path d="M 334.64 47.74 C 334.60 51.99 334.45 56.32 334.41 60.59 C 333.73 62.29 329.94 61.25 328.51 61.57 C 327.49 62.33 328.95 65.79 327.70 65.59 C 327.83 64.34 328.41 62.27 327.36 61.36 C 319.96 61.47 312.39 61.46 304.99 61.26 C 302.89 62.10 300.79 61.78 298.56 61.59 C 298.49 58.38 298.05 55.21 298.07 51.98 C 298.24 50.78 297.83 48.44 298.98 47.73 C 306.78 47.10 314.34 47.99 322.01 47.35 C 326.12 47.68 330.47 47.72 334.64 47.74 Z" fill="#fbfbfb" />
<path d="M 414.44 47.60 C 422.67 48.12 430.73 47.43 439.00 47.94 C 441.70 48.59 444.47 47.50 447.25 47.88 C 446.84 52.54 446.63 57.09 446.82 61.78 C 436.01 61.80 425.17 61.48 414.36 61.44 C 412.94 59.81 414.00 56.58 413.85 54.52 C 414.64 52.27 413.59 49.55 414.44 47.60 Z" fill="#fbfbfb" />
<path d="M 99.16 48.35 C 109.89 48.03 118.32 48.31 129.00 48.56 C 131.09 48.53 132.88 47.21 134.68 48.12 C 134.92 52.61 135.79 57.94 135.56 62.52 C 131.70 62.64 127.85 62.58 123.99 62.79 C 122.24 62.23 120.78 62.45 119.00 62.65 C 115.59 62.07 112.28 62.68 108.86 62.56 C 107.03 61.35 104.97 60.70 103.06 59.62 C 101.63 59.39 100.57 59.55 99.46 58.44 C 99.24 56.86 98.34 55.72 98.56 54.02 C 98.67 52.49 97.54 49.27 99.16 48.35 Z" fill="#fbfbfb" />
<path d="M 338.35 48.21 L 338.95 47.61 C 347.31 47.91 355.58 47.32 363.99 47.84 C 366.70 48.48 369.91 48.36 372.73 48.23 C 372.13 52.21 372.65 56.03 372.90 60.01 C 372.86 62.33 371.08 62.35 369.26 62.19 C 366.95 61.69 365.07 62.85 362.95 61.61 C 355.20 61.40 347.56 61.29 339.82 61.52 L 339.26 61.01 C 338.77 56.78 338.41 52.46 338.35 48.21 Z" fill="#fbfbfb" />
<path d="M 377.51 47.68 C 379.15 47.93 382.61 46.84 383.22 48.97 C 383.40 51.67 382.93 54.32 383.35 56.99 C 383.20 58.37 383.98 60.69 382.67 61.58 C 380.86 61.66 379.05 61.55 377.24 61.67 C 377.23 60.08 377.38 58.54 377.65 56.97 C 376.54 54.06 377.62 50.79 377.51 47.68 Z" fill="#fbfbfb" />
<path d="M 386.21 48.14 C 388.01 47.12 389.87 48.63 392.00 48.21 C 398.12 48.22 404.45 48.27 410.58 48.32 C 410.84 52.66 410.38 57.24 410.30 61.61 C 407.95 62.06 405.40 61.80 403.01 61.83 C 398.07 61.38 391.40 62.39 386.72 61.25 C 386.47 56.94 386.17 52.45 386.21 48.14 Z" fill="#fbfbfb" />
<path d="M 450.57 48.38 C 456.17 47.77 461.49 48.85 467.03 48.68 C 469.71 47.81 472.25 48.44 475.01 48.27 C 474.98 49.46 473.30 49.78 472.51 50.50 C 471.61 52.01 470.59 53.26 470.28 55.03 C 469.78 57.46 470.87 60.45 473.75 60.50 C 474.74 60.89 478.02 60.96 477.65 62.45 C 473.64 62.34 469.96 61.92 466.03 62.59 C 460.84 62.35 455.70 61.99 450.54 61.65 C 450.01 57.05 450.68 52.89 450.57 48.38 Z" fill="#fbfbfb" />
<path d="M 517.97 48.16 C 521.55 48.55 525.19 48.07 528.77 48.25 C 528.85 51.16 528.35 54.63 527.79 57.47 C 522.59 55.33 516.36 56.96 514.59 62.68 C 512.17 62.71 509.75 62.63 507.32 62.57 C 506.92 58.40 508.22 53.50 506.58 49.65 C 509.87 47.48 514.18 49.59 517.97 48.16 Z" fill="#fbfbfb" />
<path d="M 533.35 48.24 C 542.82 48.65 552.49 48.30 562.00 48.80 C 564.13 48.88 567.00 47.90 568.94 48.85 C 568.42 53.06 568.08 57.25 568.37 61.50 C 564.81 62.35 561.61 62.57 557.97 62.44 C 553.47 60.70 547.82 62.66 543.01 61.61 C 539.42 61.75 535.92 62.11 532.33 61.71 C 531.39 60.65 532.44 59.57 530.99 58.99 C 532.03 58.07 531.88 56.38 533.40 55.15 C 533.00 52.60 532.28 50.77 533.35 48.24 Z" fill="#fbfbfb" />
<path d="M 572.40 48.34 C 583.10 48.75 594.78 48.36 605.42 48.51 C 606.13 53.03 605.86 57.90 605.68 62.48 C 601.09 62.32 596.56 61.99 592.01 62.28 C 588.62 61.90 585.37 62.57 582.04 61.70 C 579.19 61.22 574.13 62.77 571.86 61.13 C 571.68 56.88 571.53 52.49 572.40 48.34 Z" fill="#fbfbfb" />
<path d="M 609.13 48.27 C 615.57 49.23 622.72 48.31 628.91 48.20 C 629.18 49.10 629.40 50.03 629.56 50.97 C 628.98 54.49 629.48 57.96 629.36 61.50 C 623.34 62.68 616.93 62.79 610.82 62.41 L 609.41 61.20 C 609.39 56.92 609.68 52.53 609.13 48.27 Z" fill="#fbfbfb" />
<path d="M 632.28 48.40 C 637.32 48.36 643.73 48.55 648.85 48.63 C 647.50 49.80 645.46 50.21 643.79 50.80 C 642.61 52.41 640.83 54.70 641.11 56.80 C 641.51 58.84 643.39 59.64 644.01 61.51 C 645.31 61.45 646.29 61.62 646.97 62.03 C 644.23 62.44 640.79 62.40 637.98 62.19 C 636.62 62.33 634.50 62.69 633.33 61.75 C 632.76 57.31 632.65 52.85 632.28 48.40 Z" fill="#fbfbfb" />
<path d="M 662.43 48.52 C 673.60 49.08 684.15 48.38 695.54 49.23 C 695.41 51.35 695.51 53.45 695.48 55.56 C 689.79 55.28 682.33 55.46 679.35 61.37 C 676.89 62.17 674.86 62.66 672.24 62.10 L 672.44 60.45 C 672.06 63.10 669.96 61.44 668.19 61.83 C 665.24 62.78 662.00 61.69 658.96 62.84 C 659.49 58.91 662.86 59.05 662.11 55.02 C 661.12 53.25 661.01 50.04 662.43 48.52 Z" fill="#fbfbfb" />
<path d="M 490.94 48.46 C 495.10 48.85 500.06 48.06 504.04 48.72 C 504.23 51.63 504.73 54.38 503.74 57.20 C 504.01 59.19 505.07 60.64 503.84 62.71 C 495.89 62.29 488.10 62.64 480.18 62.40 C 480.73 61.51 482.05 61.93 482.89 61.25 C 484.41 59.78 487.65 58.22 487.86 55.93 C 487.51 54.23 487.64 52.58 487.64 50.85 C 488.68 49.24 488.48 47.77 490.94 48.46 Z" fill="#fbfbfb" />
<path d="M 699.37 49.29 C 701.66 49.33 703.74 49.10 706.00 48.75 C 710.61 49.57 715.19 49.12 719.82 49.44 C 717.50 51.22 716.09 52.32 714.40 54.87 C 714.96 56.49 715.49 58.10 715.94 59.76 C 716.57 59.53 717.20 59.31 717.84 59.10 C 718.75 60.23 719.93 61.16 720.76 62.35 C 715.09 62.35 709.47 62.28 703.80 62.12 C 701.99 62.36 699.89 61.87 699.42 59.85 C 698.91 56.36 699.61 52.81 699.37 49.29 Z" fill="#fbfbfb" />
<path d="M 740.01 48.79 C 744.80 49.57 748.09 48.75 753.00 50.05 C 753.71 50.93 752.93 52.92 752.89 53.99 C 752.27 56.91 753.31 59.73 752.42 62.56 C 750.85 62.52 749.42 62.60 748.04 61.71 C 742.75 61.65 737.48 61.77 732.19 61.41 C 732.37 59.44 734.15 59.22 734.74 57.56 C 735.82 55.61 736.13 54.44 735.82 52.18 C 735.26 51.42 734.69 50.68 734.09 49.95 C 735.01 47.93 738.17 49.14 740.01 48.79 Z" fill="#fbfbfb" />
<path d="M 756.43 49.41 C 758.90 48.42 758.87 51.21 760.91 52.14 C 764.03 55.02 767.81 55.04 771.76 54.25 C 774.66 53.18 777.30 50.51 780.01 49.52 C 783.87 50.14 788.36 48.85 791.96 50.05 C 794.98 50.30 798.31 49.91 801.24 50.73 C 801.38 53.04 800.25 55.31 800.33 57.61 C 801.55 58.84 802.71 61.02 804.35 61.52 C 804.69 60.47 803.68 58.12 805.42 58.21 C 805.26 59.78 805.47 61.30 805.64 62.86 C 803.68 62.61 801.99 62.06 799.98 62.28 C 796.63 63.16 793.39 62.19 789.99 62.90 C 779.00 61.22 766.58 61.56 755.48 62.35 C 756.17 58.04 755.92 53.66 756.43 49.41 Z" fill="#fbfbfb" />
<path d="M 820.18 49.20 C 826.81 49.24 833.50 50.01 840.01 48.75 C 842.99 49.65 846.22 49.26 849.18 49.82 C 850.15 53.70 848.90 58.53 849.53 62.71 C 844.27 62.63 839.29 61.82 833.99 62.72 C 828.03 62.74 822.05 62.46 816.10 62.67 C 816.21 61.86 816.54 61.36 817.11 61.16 C 818.75 60.56 819.34 59.09 820.90 58.30 C 820.06 55.25 820.74 52.27 820.18 49.20 Z" fill="#fbfbfb" />
<path d="M 852.80 49.49 C 858.27 49.05 863.96 49.91 869.50 49.57 C 869.17 52.35 869.94 55.04 869.66 57.80 C 869.84 59.21 870.34 61.80 868.57 62.37 C 864.07 62.22 859.64 62.34 855.14 62.48 C 854.31 62.43 853.82 62.12 853.68 61.55 C 853.45 58.66 853.28 55.89 852.53 53.06 C 853.01 51.86 852.69 50.75 852.80 49.49 Z" fill="#fbfbfb" />
<path d="M 903.21 49.53 C 906.58 50.17 909.50 49.26 912.62 50.38 C 913.69 51.83 915.43 52.55 914.63 54.64 C 914.01 54.91 913.33 54.84 912.60 54.43 C 909.93 52.86 907.59 52.15 904.61 52.51 C 904.17 51.49 903.57 50.58 903.21 49.53 Z" fill="#fbfbfb" />
<path d="M 91.50 53.29 C 92.24 53.27 92.97 53.28 93.71 53.31 C 94.69 54.58 95.52 56.99 95.63 58.63 C 90.09 61.47 85.43 66.00 84.51 72.47 C 83.65 76.39 84.96 79.77 88.03 82.30 C 89.17 82.49 90.32 82.57 91.50 82.56 C 93.41 85.33 99.31 82.45 101.58 84.31 C 101.65 85.50 101.72 86.70 101.76 87.89 C 100.39 89.41 96.92 87.95 94.98 88.33 C 93.69 87.38 92.55 87.29 91.01 87.17 C 88.51 86.11 86.04 84.82 84.49 82.51 C 83.30 80.69 83.77 78.86 83.36 76.82 C 82.32 74.95 80.26 72.27 80.66 70.08 C 82.08 68.51 80.81 65.95 82.12 64.17 C 83.62 62.08 84.43 59.71 86.01 57.68 C 88.45 56.96 90.64 55.87 91.50 53.29 Z" fill="#fbfbfb" />
<path d="M 97.44 65.46 C 99.55 69.39 98.45 73.35 99.71 77.48 C 100.04 78.46 100.37 79.42 100.50 80.46 C 98.21 80.50 93.00 81.51 91.77 79.11 C 91.10 79.12 90.43 79.14 89.76 79.19 C 91.66 78.65 90.69 77.43 90.15 76.13 C 88.47 73.65 89.41 71.31 89.57 68.48 C 90.62 67.42 90.85 65.84 91.90 64.86 C 93.86 64.01 95.21 65.75 97.44 65.46 Z" fill="#fbfbfb" />
<path d="M 222.19 64.87 C 233.26 64.76 242.54 64.79 253.49 64.81 C 258.17 65.09 263.11 64.36 267.72 65.26 C 267.89 70.11 267.14 75.10 267.71 79.89 C 264.42 80.69 260.25 80.20 256.82 80.13 C 252.25 79.01 248.47 80.96 244.00 79.88 C 240.66 79.89 236.99 79.40 233.83 80.26 C 231.38 79.79 229.00 80.87 226.90 79.62 C 221.83 80.02 216.65 79.75 211.56 79.78 L 211.19 79.25 C 212.19 78.08 213.25 77.34 214.57 76.57 C 215.18 75.39 215.81 74.22 216.48 73.06 C 216.57 70.46 216.04 67.86 216.30 65.23 C 217.78 64.21 220.47 64.78 222.19 64.87 Z" fill="#fbfbfb" />
<path d="M 332.87 64.43 C 334.35 64.46 334.79 65.01 334.21 66.08 C 332.34 67.24 329.08 63.82 332.87 64.43 Z" fill="#fbfbfb" />
<path d="M 377.56 64.65 C 379.48 64.84 381.44 65.06 383.31 65.50 C 383.34 68.70 383.46 71.75 382.55 74.84 C 383.21 76.84 383.70 78.18 383.44 80.45 C 381.59 80.50 379.74 80.43 377.89 80.41 C 376.68 78.61 376.04 76.16 376.63 74.00 C 377.16 70.66 376.21 67.70 377.56 64.65 Z" fill="#fbfbfb" />
<path d="M 414.52 64.61 C 420.03 64.84 425.51 64.60 431.00 64.85 C 434.47 64.43 437.51 65.79 441.11 65.11 C 440.38 66.36 438.35 66.35 437.21 67.20 C 434.63 69.08 431.77 71.79 433.77 75.19 C 435.42 77.81 437.64 76.99 439.94 78.45 C 444.09 78.66 447.48 78.82 450.48 75.56 C 451.57 73.04 452.83 70.58 451.02 67.98 C 450.15 66.97 450.47 65.80 450.45 64.56 C 453.46 65.36 455.91 65.40 459.02 65.17 C 464.60 66.70 469.42 64.64 475.00 65.56 C 480.31 65.04 485.64 66.16 491.01 65.57 C 495.10 66.19 499.00 65.46 503.11 65.90 C 504.47 67.26 503.99 70.06 504.35 71.88 C 502.62 74.81 505.57 78.46 503.60 80.88 C 499.04 81.29 494.82 81.45 490.19 81.14 C 485.27 81.95 480.92 79.84 476.03 81.22 C 473.79 80.55 471.33 80.82 468.94 80.66 C 466.74 81.86 464.48 81.18 461.99 81.15 C 458.06 80.16 454.07 80.81 450.00 80.58 C 437.83 81.08 426.88 80.50 414.76 80.29 C 414.23 79.72 413.99 78.85 414.06 77.67 C 413.52 77.10 412.57 76.92 411.22 77.15 C 412.05 76.88 412.93 76.75 413.87 76.78 C 413.73 72.75 414.05 68.58 414.52 64.61 Z" fill="#fbfbfb" />
<path d="M 101.64 65.35 C 102.31 65.26 102.93 65.32 103.49 65.55 C 106.25 67.79 107.73 70.85 108.77 74.18 C 109.12 76.31 107.89 78.76 107.24 80.77 C 105.98 80.86 104.78 80.73 103.65 80.37 C 103.05 78.59 102.65 76.73 102.18 74.91 C 102.05 73.44 103.02 71.34 102.03 70.15 C 101.07 68.73 101.51 66.94 101.64 65.35 Z" fill="#fbfbfb" />
<path d="M 198.01 65.35 C 200.04 65.09 202.11 65.19 204.15 65.11 C 202.35 66.73 199.77 67.21 199.02 69.97 C 197.71 72.96 197.32 77.94 201.12 79.23 C 202.32 79.60 204.05 78.90 204.99 79.72 C 202.23 79.65 199.66 79.29 197.03 80.41 C 193.32 80.45 189.57 80.24 185.84 80.39 C 185.00 79.66 183.47 79.16 183.50 77.86 C 183.25 75.84 183.99 74.06 183.24 71.99 C 183.62 69.84 183.95 67.70 184.63 65.62 C 188.90 64.74 193.67 65.92 198.01 65.35 Z" fill="#fbfbfb" />
<path d="M 275.71 65.32 C 277.19 67.21 278.26 69.20 280.55 70.24 C 281.89 70.27 282.79 71.02 283.98 71.25 C 285.53 70.94 286.95 71.47 288.48 71.38 C 290.47 70.01 292.95 69.68 294.85 67.91 C 296.15 66.94 296.35 65.46 298.14 65.32 C 300.80 64.79 302.75 66.53 304.90 64.43 C 311.29 64.76 317.71 64.49 324.11 64.67 L 324.99 65.17 C 324.06 65.93 323.15 66.40 321.99 66.74 C 318.18 69.46 317.38 74.25 319.80 78.23 C 320.76 78.98 321.83 79.44 322.91 79.99 C 316.19 80.98 308.79 79.64 302.01 80.47 C 294.70 79.90 287.43 80.77 280.20 80.20 C 276.92 80.09 273.88 80.97 270.64 80.49 C 270.96 75.60 270.14 70.51 270.73 65.73 C 272.23 65.15 274.11 65.38 275.71 65.32 Z" fill="#fbfbfb" />
<path d="M 338.63 64.65 C 344.11 64.89 349.53 64.29 355.01 64.40 C 358.28 64.89 361.89 64.09 365.00 65.10 C 367.68 65.74 370.26 65.55 372.94 65.04 C 371.93 68.67 372.96 72.04 372.62 75.68 C 369.03 76.40 366.43 74.78 363.04 74.32 C 358.63 74.87 356.13 77.54 353.21 80.55 C 347.28 79.96 340.85 80.79 334.85 80.12 C 335.66 77.95 337.33 76.48 337.83 74.10 C 340.12 71.65 337.50 67.44 338.63 64.65 Z" fill="#fbfbfb" />
<path d="M 386.51 65.31 C 392.94 64.96 399.57 65.59 406.01 65.20 C 407.26 65.38 409.60 64.79 410.45 65.81 C 410.19 68.93 410.69 72.15 410.37 75.22 C 407.16 74.63 403.75 73.78 400.52 74.70 C 397.90 76.10 396.44 78.40 394.63 80.64 C 391.94 80.66 389.11 80.87 386.45 80.65 C 386.61 75.52 386.65 70.45 386.51 65.31 Z" fill="#fbfbfb" />
<path d="M 532.31 65.38 C 542.61 65.57 552.84 65.02 563.14 65.77 C 564.81 65.29 566.82 65.10 568.52 65.40 L 568.78 66.81 C 565.70 66.32 562.98 66.64 559.89 66.62 C 557.44 68.25 554.95 69.07 553.66 71.94 C 553.79 76.54 558.13 81.31 562.96 80.14 C 566.14 78.71 569.40 78.32 572.33 76.26 C 572.54 74.91 572.83 73.58 573.20 72.26 C 572.23 72.19 571.28 72.03 570.36 71.77 C 571.20 71.76 572.04 71.80 572.88 71.88 C 571.99 69.66 572.39 67.54 572.33 65.24 C 583.43 65.31 594.44 65.55 605.54 65.51 C 605.87 69.34 605.91 73.08 605.73 76.93 C 603.63 76.60 602.17 75.19 599.98 75.31 C 595.63 74.49 592.53 78.03 589.60 80.63 C 582.19 80.72 574.41 80.73 567.00 80.62 C 565.16 80.82 563.63 80.00 562.08 81.32 C 559.60 81.02 557.30 81.79 555.05 80.68 C 550.02 80.61 545.01 80.82 539.98 80.78 C 536.48 81.64 532.57 81.25 529.03 80.75 C 521.70 80.65 514.61 81.75 507.25 81.44 C 507.21 76.38 507.66 71.44 507.30 66.35 C 509.73 65.78 511.14 65.50 513.54 66.48 C 513.99 67.07 514.39 67.69 514.75 68.36 C 518.19 70.24 522.17 70.70 526.03 70.70 C 528.38 70.73 529.51 69.38 531.38 68.26 C 531.62 67.28 531.93 66.32 532.31 65.38 Z" fill="#fbfbfb" />
<path d="M 628.49 65.66 L 629.34 66.90 C 629.28 71.39 628.94 76.07 629.48 80.50 C 623.45 80.13 615.76 81.49 609.43 80.46 C 608.98 78.94 610.07 77.58 609.62 76.00 C 609.17 72.56 610.09 69.25 609.68 65.79 C 613.79 65.04 618.51 66.10 622.73 65.70 C 624.49 65.00 626.61 65.61 628.49 65.66 Z" fill="#fbfbfb" />
<path d="M 677.49 65.50 C 678.98 67.44 680.95 68.70 682.79 70.26 C 684.99 71.38 687.60 71.86 690.02 72.29 C 694.18 72.58 697.03 69.42 700.22 68.09 C 700.06 67.17 700.21 66.22 700.66 65.24 C 705.76 65.48 710.89 65.53 716.00 65.71 C 720.61 64.96 725.61 66.26 730.21 65.22 C 738.03 65.18 744.74 65.17 752.54 65.84 C 752.94 68.57 752.45 71.24 752.71 74.00 C 752.49 76.07 753.31 78.49 752.45 80.39 C 750.84 80.56 749.37 80.29 748.05 79.60 C 741.80 79.90 736.15 79.29 729.99 79.83 C 726.27 80.97 721.90 79.86 718.01 80.49 C 703.85 80.10 688.31 80.64 674.00 80.47 C 669.56 80.85 664.93 79.94 660.51 80.63 C 657.03 82.16 653.34 80.46 650.04 80.40 C 644.46 80.73 638.88 80.05 633.35 80.53 L 632.66 79.56 C 632.77 74.83 632.61 70.40 632.78 65.63 C 637.65 65.20 642.98 65.68 648.00 65.35 C 653.71 66.17 659.28 65.59 665.00 65.57 C 669.25 66.19 673.31 65.37 677.49 65.50 Z" fill="#fbfbfb" />
<path d="M 755.55 65.60 C 757.40 65.10 759.10 65.19 761.00 65.36 C 770.57 65.24 780.46 65.25 790.01 65.71 C 792.12 65.53 793.84 64.85 796.03 65.30 C 798.66 63.84 798.46 64.17 800.90 65.61 C 803.46 64.61 804.36 64.64 806.99 65.27 C 816.01 65.19 823.11 65.62 832.00 65.50 C 832.91 65.26 833.67 65.78 834.26 67.05 C 836.10 66.01 836.72 65.15 839.01 65.14 C 838.63 66.68 837.73 66.91 836.31 65.83 C 834.28 67.91 835.10 69.87 833.48 71.93 C 833.52 74.60 833.71 76.63 836.34 77.92 C 837.36 79.11 838.55 77.98 839.07 79.73 C 835.51 78.62 832.23 80.09 828.71 78.24 C 827.78 79.62 826.80 80.41 825.05 80.24 C 819.97 80.36 815.04 80.41 809.99 80.19 C 807.73 79.50 806.28 79.51 804.06 80.33 C 799.69 79.42 795.41 80.08 791.00 79.76 C 778.70 79.88 767.90 79.66 755.63 79.64 C 755.78 74.93 755.74 70.30 755.55 65.60 Z" fill="#fbfbfb" />
<path d="M 111.71 65.67 C 117.37 65.28 123.29 65.94 129.00 65.75 C 131.12 66.13 133.97 64.95 135.81 65.94 C 135.41 69.49 136.07 73.08 135.28 76.55 C 132.64 76.38 130.97 74.41 127.99 74.85 C 123.88 74.61 121.46 77.32 119.43 80.49 C 117.88 81.00 115.94 80.63 114.30 80.64 C 113.95 78.16 114.61 75.68 114.41 73.17 C 113.36 70.71 112.69 68.15 111.71 65.67 Z" fill="#fbfbfb" />
<path d="M 139.68 65.47 C 141.59 65.20 143.58 65.59 145.51 65.61 C 145.77 70.16 144.80 75.16 145.95 79.60 C 144.23 80.47 140.49 81.24 139.25 79.35 C 139.87 74.86 139.35 70.17 139.68 65.47 Z" fill="#fbfbfb" />
<path d="M 147.83 67.00 C 148.57 66.70 149.20 66.12 149.72 65.27 C 152.52 66.06 155.19 65.13 158.01 65.58 C 161.64 65.86 165.38 65.46 169.00 65.36 C 172.69 65.95 176.26 65.97 179.97 65.52 C 179.69 68.92 179.87 72.34 179.48 75.72 C 177.65 76.28 176.76 74.58 175.04 74.77 C 172.51 75.07 170.48 73.81 167.91 74.52 C 165.83 75.70 164.30 77.02 162.91 78.97 C 161.51 80.68 159.74 80.21 157.81 80.11 C 154.96 79.96 150.82 80.99 148.28 79.75 C 147.99 76.77 148.88 73.95 148.20 70.98 C 148.03 69.32 149.40 68.09 147.66 67.02 L 147.83 67.00 Z" fill="#fbfbfb" />
<path d="M 853.38 66.22 C 854.49 65.11 857.43 65.80 859.01 65.51 C 862.48 66.00 865.84 65.65 869.33 65.80 C 870.13 69.90 869.70 74.87 869.73 78.92 C 867.68 80.21 864.44 78.92 861.99 79.51 C 857.05 79.07 852.15 79.88 847.29 79.67 C 848.09 78.55 849.97 78.11 851.14 77.40 C 852.27 76.08 852.72 74.52 853.47 73.00 C 853.20 70.66 852.96 68.58 853.38 66.22 Z" fill="#fbfbfb" />
<path d="M 872.99 65.68 C 877.72 65.69 881.99 66.59 887.00 66.18 C 888.91 66.11 891.26 66.70 893.01 65.87 C 895.39 65.77 897.82 65.91 900.23 65.75 C 900.49 67.74 900.47 69.98 900.29 71.98 C 898.07 71.63 895.73 71.06 893.84 69.77 C 893.12 69.65 892.36 69.87 891.55 70.45 C 890.72 70.31 889.89 70.01 889.05 69.55 C 884.90 71.58 881.28 73.67 878.62 77.58 C 877.48 79.19 875.76 79.79 873.79 79.62 C 871.91 77.28 872.88 72.75 872.56 69.98 C 872.48 68.70 872.09 66.74 872.99 65.68 Z" fill="#fbfbfb" />
<path d="M 894.61 72.36 C 896.21 74.29 899.72 76.90 899.30 79.59 C 895.52 79.10 891.78 79.36 888.00 79.55 C 885.93 79.38 884.02 79.21 881.95 79.54 C 881.52 75.44 884.50 73.74 888.02 73.15 C 890.27 72.30 892.24 72.28 894.61 72.36 Z" fill="#fbfbfb" />
<path d="M 331.00 83.26 C 333.28 83.58 334.87 82.17 336.99 83.18 C 338.98 83.91 340.94 82.87 343.01 83.63 C 346.61 82.97 349.85 83.74 353.49 83.27 C 353.79 85.48 354.24 86.75 356.05 88.12 C 358.38 89.24 360.30 90.74 362.99 90.82 C 365.35 92.19 367.00 91.82 369.29 90.63 C 372.39 89.93 373.82 86.77 375.80 84.73 C 378.35 83.62 380.94 83.51 383.61 84.36 C 383.13 88.85 384.29 93.07 383.67 97.51 C 382.77 97.74 381.88 97.99 381.00 98.26 C 376.81 96.92 372.01 98.76 368.01 98.65 C 365.00 98.87 362.23 97.84 359.22 98.14 C 356.99 98.35 354.75 98.38 352.52 98.22 C 350.81 97.64 349.75 97.47 348.01 98.14 C 345.04 98.29 341.82 98.78 339.03 97.72 C 334.69 98.73 330.40 97.79 326.00 98.30 C 319.41 97.56 312.63 97.69 305.99 97.73 C 302.68 98.55 299.38 98.33 296.00 98.29 C 289.53 98.65 282.94 98.15 276.40 98.47 C 274.33 98.77 272.50 99.14 270.49 98.29 C 270.05 93.36 271.13 88.30 270.55 83.37 C 273.51 84.27 276.04 83.25 278.98 83.55 C 284.89 83.66 291.16 83.78 297.00 83.36 C 299.35 83.20 301.74 83.95 304.01 83.46 C 307.73 82.72 311.34 83.80 315.00 83.31 C 317.67 83.25 320.33 83.15 323.00 83.17 C 325.84 82.03 328.00 83.67 331.00 83.26 Z" fill="#fbfbfb" />
<path d="M 860.13 83.29 C 863.19 83.37 866.20 82.63 869.23 82.55 C 870.47 83.33 869.28 85.71 869.82 87.00 C 870.61 90.73 869.73 94.78 869.58 98.59 C 864.16 98.66 859.27 98.48 853.99 98.42 C 847.88 99.69 841.92 97.81 835.98 98.66 C 829.38 99.04 822.60 98.52 816.00 98.78 C 811.99 98.59 808.00 98.95 804.01 98.49 C 797.00 98.99 789.96 97.94 783.00 98.59 C 774.01 98.17 764.82 97.83 755.87 98.65 L 755.12 98.15 C 755.66 94.72 755.23 91.36 755.77 87.96 C 755.24 86.26 755.16 84.85 756.34 83.41 C 758.26 83.26 760.10 82.70 762.03 82.69 C 766.13 84.09 770.60 82.55 774.97 83.35 C 778.11 82.87 780.92 83.41 784.01 83.34 C 799.10 83.07 816.97 83.94 831.00 83.65 C 836.02 83.93 841.87 82.47 847.00 83.59 C 848.68 83.20 850.24 83.40 851.93 83.44 C 854.59 82.67 857.45 82.52 860.13 83.29 Z" fill="#fbfbfb" />
<path d="M 882.74 82.52 C 886.91 81.83 890.83 82.88 895.00 82.39 C 896.83 82.49 899.59 81.67 901.02 83.04 C 900.27 85.10 897.97 87.26 895.71 87.46 C 893.88 89.61 892.24 88.41 890.12 87.52 C 888.47 87.80 886.08 87.47 884.84 86.20 C 883.81 86.29 882.97 86.84 882.13 85.95 C 882.37 84.81 882.57 83.67 882.74 82.52 Z" fill="#fbfbfb" />
<path d="M 151.96 83.42 C 155.04 83.77 158.21 82.92 161.24 83.73 C 162.33 86.28 164.86 90.06 168.00 89.83 C 168.93 89.61 169.87 89.43 170.81 89.30 C 174.39 90.66 175.80 88.66 179.07 88.12 C 179.75 86.33 180.14 84.67 181.99 83.73 C 186.66 83.94 191.35 83.63 195.99 83.88 C 205.61 82.65 216.38 84.14 226.00 83.54 C 240.12 83.39 253.28 83.38 267.57 83.36 C 268.52 88.70 266.18 93.22 266.73 98.54 C 264.13 98.51 261.58 98.11 259.00 98.32 C 256.28 98.59 254.05 97.16 251.46 98.12 C 249.13 98.28 246.28 98.44 244.01 97.80 C 234.76 97.85 225.41 97.65 216.02 97.80 C 211.48 97.64 206.72 97.47 202.21 97.82 C 200.01 97.66 198.11 97.33 196.05 98.36 C 190.72 97.96 185.35 98.28 180.01 98.16 C 175.89 99.33 172.22 97.82 168.01 98.16 C 161.53 98.63 155.12 98.54 148.65 98.76 C 147.62 97.57 147.28 96.33 147.63 95.04 C 148.52 91.72 148.19 88.51 148.34 85.13 C 148.77 83.11 150.41 83.75 151.96 83.42 Z" fill="#fbfbfb" />
<path d="M 385.40 83.48 C 388.60 85.35 392.27 83.39 395.13 84.83 C 398.15 89.50 402.89 90.11 408.04 89.30 C 410.43 88.06 411.79 85.34 413.96 83.70 C 420.27 83.68 426.59 83.75 432.90 83.65 C 436.41 84.79 440.29 83.71 443.99 84.22 C 449.37 83.39 454.63 83.93 460.04 83.57 C 462.10 85.02 465.16 84.21 467.60 84.64 C 471.02 82.54 476.11 84.67 479.98 84.28 C 487.51 84.59 496.48 84.22 504.39 84.38 L 504.13 87.00 C 504.97 88.82 503.31 89.59 503.52 91.17 C 503.69 93.40 503.82 95.62 503.77 97.86 C 500.72 97.52 498.01 98.52 494.98 98.14 C 492.48 97.78 490.42 98.88 488.02 97.78 C 481.82 97.80 475.16 97.82 468.94 97.64 C 466.84 99.25 463.81 97.99 461.19 98.41 C 457.83 97.39 454.50 97.85 451.00 97.56 C 442.74 97.92 436.04 97.52 428.09 97.63 C 415.10 96.86 400.40 98.35 386.68 97.62 C 386.30 93.36 386.99 89.13 386.58 84.84 C 386.21 84.37 385.82 83.92 385.40 83.48 Z" fill="#fbfbfb" />
<path d="M 543.98 84.29 C 546.74 84.21 549.41 83.96 552.16 84.52 C 552.76 84.17 553.37 83.83 553.98 83.51 C 554.97 83.90 556.00 84.95 557.07 84.72 C 559.93 84.40 562.42 85.11 565.07 84.22 C 572.87 84.53 581.33 84.15 588.70 84.27 C 589.97 86.52 592.08 89.60 594.99 89.46 C 598.79 89.32 603.66 90.81 606.42 87.34 C 607.37 85.47 608.80 84.21 610.98 84.15 C 614.68 84.47 618.31 84.03 622.02 84.36 C 624.49 83.60 626.96 83.98 629.50 83.78 C 628.64 88.27 629.95 93.41 628.77 97.65 C 626.48 98.47 624.35 98.15 622.02 98.49 C 617.64 98.10 613.30 99.12 608.99 98.32 C 594.39 99.06 578.95 97.95 564.20 98.17 C 561.72 98.64 559.03 98.59 556.55 98.28 C 554.98 96.83 553.84 97.79 551.98 97.85 C 540.94 97.68 529.04 97.58 517.99 97.56 C 514.21 98.26 511.30 98.56 507.50 97.73 C 507.68 96.43 507.33 95.38 506.47 94.58 C 506.83 92.59 508.40 90.57 506.56 88.66 C 507.54 87.65 507.57 87.00 507.72 85.65 C 509.90 83.54 514.18 85.15 517.01 84.31 C 524.24 84.55 531.81 83.89 539.05 84.34 C 541.10 83.45 541.90 83.68 543.98 84.29 Z" fill="#fbfbfb" />
<path d="M 689.01 83.80 C 690.76 83.26 692.25 83.62 694.01 83.82 C 701.91 82.99 710.08 84.09 717.96 83.64 C 722.37 83.82 726.63 83.83 731.00 83.18 C 738.16 83.74 745.13 82.65 752.21 83.73 C 752.87 88.33 751.91 93.42 752.30 97.96 C 751.59 98.93 749.79 98.56 748.77 98.33 C 744.44 97.16 739.44 98.31 735.01 97.65 C 732.94 97.19 731.00 97.63 729.03 98.32 C 720.84 98.42 712.16 98.31 703.97 98.23 C 689.56 97.98 675.25 98.42 661.00 98.41 C 656.15 99.24 651.92 98.09 647.00 98.38 C 643.31 98.54 639.64 98.02 635.96 98.32 C 634.96 98.20 633.03 98.69 632.41 97.68 C 632.24 93.25 633.08 88.70 632.48 84.32 C 633.89 82.53 636.85 84.55 638.99 83.67 C 643.60 84.11 648.56 83.12 652.97 84.38 C 657.61 85.01 660.59 83.20 665.01 83.86 C 672.54 83.76 681.12 83.96 689.01 83.80 Z" fill="#fbfbfb" />
<path d="M 104.54 84.14 C 105.15 83.59 105.80 83.85 106.49 84.93 C 105.89 86.38 103.70 85.69 104.54 84.14 Z" fill="#fbfbfb" />
<path d="M 113.43 84.54 C 115.22 84.38 117.03 84.33 118.83 84.24 C 120.03 85.95 121.26 87.63 122.62 89.26 C 126.65 90.36 131.04 89.31 135.23 89.30 C 137.59 87.57 138.24 84.96 140.98 83.65 C 142.39 83.66 143.81 83.68 145.22 83.70 C 145.36 86.85 145.74 89.98 144.71 92.93 C 144.81 94.71 144.64 96.50 144.36 98.26 C 139.30 99.67 132.21 97.99 127.03 99.30 C 126.02 98.85 125.01 98.66 124.01 98.71 C 117.14 98.66 110.30 98.98 103.43 98.68 C 105.19 96.83 103.82 95.00 104.83 92.72 C 108.57 90.86 110.06 86.56 113.43 84.54 Z" fill="#fbfbfb" />
</svg>