<?xml version="1.0" standalone="no"?>
<!DOCTYPE svg PUBLIC "-//W3C//DTD SVG 20010904//EN"
 "http://www.w3.org/TR/2001/REC-SVG-20010904/DTD/svg10.dtd">
<svg version="1.0" xmlns="http://www.w3.org/2000/svg"
 width="1000.000000pt" height="652.000000pt" viewBox="0 0 1000.000000 652.000000"
 preserveAspectRatio="xMidYMid meet">
<metadata>
Created by potrace 1.16, written by Peter Selinger 2001-2019
</metadata>
<g transform="translate(0.000000,652.000000) scale(0.100000,-0.100000)"
fill="#000000" stroke="none">
<path d="M6997 6393 c-4 -3 -7 -25 -7 -47 0 -23 -10 -68 -21 -101 -30 -91 -35
-143 -15 -151 10 -4 23 -1 29 6 9 10 9 14 0 17 -17 6 -16 38 2 90 32 92 40
214 12 186z"/>
<path d="M2863 6358 c-15 -20 -34 -77 -44 -138 -21 -126 -35 -180 -49 -194 -8
-9 -48 -44 -89 -78 -125 -106 -179 -224 -188 -408 -6 -113 -11 -127 -76 -218
-32 -44 -69 -122 -68 -142 2 -17 -15 -47 -34 -62 -15 -12 -32 -48 -50 -106
-29 -97 -43 -138 -56 -167 -32 -72 -56 -411 -35 -500 2 -11 5 -23 5 -27 1 -5
7 -8 14 -8 9 0 12 41 13 168 2 212 32 418 70 479 8 12 14 28 14 35 0 27 21 88
36 103 19 19 55 20 48 2 -2 -7 3 -42 12 -78 25 -101 36 -179 28 -197 -4 -9 -6
-51 -4 -92 8 -159 -4 -447 -25 -597 -8 -64 -10 -588 -1 -663 8 -72 30 -143 46
-148 8 -3 10 2 6 14 -33 107 -38 176 -37 444 2 151 4 291 7 310 2 19 7 87 10
150 2 63 9 135 15 160 11 47 13 268 3 295 -3 8 -1 15 5 15 7 0 7 8 0 26 -5 15
-6 36 -2 48 10 30 4 158 -9 173 -6 7 -8 13 -4 13 3 0 -3 23 -14 50 -24 61 -24
61 -5 54 13 -5 14 -2 5 22 -6 16 -18 34 -26 41 -13 9 -14 15 -3 35 7 13 14 33
15 45 1 12 9 33 16 46 25 45 73 119 91 139 9 12 17 24 17 27 0 3 10 17 23 31
30 33 127 179 127 192 0 5 9 23 20 38 12 16 27 48 34 72 8 24 29 77 46 118 17
41 33 92 34 112 1 21 5 40 9 44 4 4 7 23 7 43 0 43 35 202 50 231 14 27 30 25
30 -3 0 -13 4 -27 9 -32 5 -6 23 -65 40 -133 28 -113 65 -198 116 -262 13 -17
57 -187 61 -240 4 -50 22 -172 27 -190 5 -18 38 -93 42 -99 2 -1 9 0 15 4 8 5
6 14 -5 31 -9 14 -13 33 -10 43 3 11 0 21 -8 24 -8 3 -17 27 -20 59 -28 235
-55 342 -108 428 -19 30 -37 57 -40 60 -7 6 -20 53 -25 90 -2 14 -12 43 -24
65 -11 21 -20 49 -20 60 0 27 -32 119 -49 139 -16 19 -25 20 -38 4z m-89 -383
c6 -16 -2 -42 -33 -110 -11 -22 -31 -73 -46 -114 -15 -40 -60 -121 -99 -180
l-71 -106 -3 65 c-7 149 40 268 154 384 41 42 78 76 83 76 5 0 11 -7 15 -15z"/>
<path d="M2643 5778 c-9 -11 -33 -74 -33 -84 0 -2 6 -4 14 -4 11 0 46 74 46
97 0 8 -19 2 -27 -9z"/>
<path d="M7040 6342 c0 -13 6 -35 14 -50 7 -15 21 -56 30 -92 15 -60 15 -66
-1 -80 -8 -8 -13 -9 -9 -2 4 6 2 12 -5 12 -8 0 -10 12 -5 41 8 48 -9 45 -19
-4 -3 -17 -11 -45 -17 -60 -12 -30 -3 -50 12 -27 7 11 10 12 10 2 0 -7 4 -10
10 -7 6 4 7 -6 3 -27 -8 -46 9 -27 24 25 10 36 11 38 12 14 1 -16 -5 -43 -13
-60 -55 -128 -55 -127 -47 -243 9 -116 16 -139 62 -191 l27 -32 -20 -43 c-36
-80 -43 -91 -57 -96 -10 -3 -12 2 -7 21 3 14 1 29 -4 32 -6 4 -8 16 -5 28 6
21 6 22 -9 3 -9 -11 -16 -24 -16 -30 0 -5 -2 -7 -5 -4 -3 3 0 18 6 34 15 38
13 69 -8 105 -23 38 -33 37 -33 -6 0 -41 -15 -47 -23 -8 -3 18 2 36 16 54 20
27 22 39 31 144 3 28 8 58 11 68 4 10 3 17 -4 17 -6 0 -11 -7 -11 -15 0 -8 -5
-15 -11 -15 -7 0 -9 29 -5 95 5 80 3 95 -9 95 -8 0 -15 9 -15 21 0 29 -17 15
-25 -21 -4 -17 -10 -30 -14 -30 -13 0 -94 -172 -93 -199 0 -14 -7 -38 -14 -53
-8 -15 -14 -36 -14 -48 0 -11 -7 -20 -14 -20 -18 0 -76 -60 -76 -78 0 -8 -8
-26 -18 -40 -20 -30 -52 -128 -52 -160 0 -11 -4 -24 -10 -27 -5 -3 -10 -22
-10 -40 0 -24 -4 -33 -13 -29 -7 2 -20 -3 -29 -13 -24 -27 -61 -180 -55 -227
3 -22 2 -47 -3 -56 -17 -31 -19 -124 -4 -145 18 -24 18 -46 0 -87 -49 -116
-74 -359 -45 -435 5 -13 9 -38 9 -56 0 -17 9 -40 20 -52 17 -18 18 -26 9 -56
-13 -45 -14 -198 -1 -241 6 -18 14 -60 17 -93 9 -92 23 -135 41 -128 10 3 13
12 8 22 -4 9 -18 77 -31 151 -23 126 -24 143 -14 255 6 66 14 131 16 145 l5
25 -12 -26 c-7 -15 -17 -28 -22 -30 -5 -2 -17 43 -27 100 -16 95 -16 113 -2
209 8 58 20 117 27 131 7 14 16 46 20 70 4 24 15 54 25 67 l19 24 18 -65 c12
-42 24 -65 34 -66 10 0 11 -2 3 -6 -15 -6 -17 -33 -3 -33 6 0 10 -25 10 -56 0
-30 -4 -53 -9 -50 -14 9 -20 -33 -7 -47 8 -7 11 -27 8 -52 -5 -36 -6 -37 -13
-15 l-7 25 -1 -25 c-1 -14 -6 -32 -11 -40 -7 -11 -10 -2 -10 33 0 46 -14 64
-24 30 -12 -45 -17 -155 -7 -149 6 4 11 14 11 22 0 8 5 12 10 9 6 -3 10 -19
10 -35 0 -47 30 -112 73 -155 21 -22 49 -60 61 -85 12 -25 32 -61 42 -80 38
-66 54 -120 64 -215 9 -80 9 -99 -5 -124 -17 -34 -20 -55 -6 -46 6 3 14 -2 19
-11 8 -14 13 -9 31 32 12 27 20 57 17 67 -7 29 4 48 24 42 14 -4 18 3 24 41 3
25 3 50 0 55 -8 14 -24 10 -24 -6 0 -8 -7 -15 -15 -15 -8 0 -15 7 -15 16 0 11
-5 14 -16 10 -14 -5 -16 -1 -11 21 3 16 -1 39 -8 53 -8 14 -14 42 -15 62 0 21
-11 57 -25 82 -14 25 -25 52 -25 60 0 9 -7 16 -15 16 -8 0 -15 9 -15 19 0 11
-4 23 -10 26 -5 3 -10 15 -10 26 0 10 -4 19 -9 19 -5 0 -11 9 -14 21 -3 12
-10 18 -16 14 -17 -10 -13 67 4 89 15 19 15 19 15 -5 0 -13 5 -31 10 -39 7
-11 10 0 10 37 0 29 6 70 14 90 8 21 17 51 21 67 8 38 45 90 55 79 5 -4 10
-28 13 -53 3 -25 14 -76 26 -114 22 -74 32 -231 18 -301 -7 -37 -6 -39 8 -21
17 22 18 16 6 -36 -12 -52 -2 -55 27 -8 31 54 45 102 31 111 -8 5 -8 12 0 27
6 11 11 33 11 49 l0 28 -20 -25 c-22 -28 -26 -16 -9 27 6 15 13 39 15 53 4 24
4 24 -11 6 -22 -28 -29 -13 -11 23 19 37 20 53 2 28 -13 -16 -14 -16 -28 5
-19 29 -41 139 -30 150 4 4 18 -5 30 -22 18 -23 22 -39 17 -68 -4 -28 -3 -32
4 -16 12 27 35 36 66 24 26 -10 55 -4 55 11 0 19 -6 24 -24 21 -36 -7 -63 8
-91 48 -25 36 -27 46 -22 98 5 56 16 87 46 124 7 10 11 23 8 31 -8 21 19 157
42 211 12 27 20 54 17 60 -2 6 -10 -4 -17 -21 -14 -34 -23 -40 -34 -23 -3 6 1
17 9 26 17 16 22 54 7 54 -5 0 -15 -14 -24 -32 l-15 -32 -15 49 c-15 52 -32
68 -40 38 -4 -14 -5 -13 -6 5 0 12 4 22 9 22 15 0 12 37 -4 43 -11 4 -12 16
-4 57 5 29 6 55 3 59 -9 8 -55 -46 -55 -65 0 -8 -4 -14 -10 -14 -16 0 -23 50
-12 88 13 40 9 54 -6 25 -18 -34 -19 -143 -1 -143 5 0 7 5 4 10 -3 6 -1 10 5
10 11 0 5 -55 -11 -95 -7 -17 -8 -15 -9 10 -1 28 -2 29 -10 8 -5 -13 -12 -23
-15 -23 -4 0 -3 5 1 11 8 13 8 89 -1 97 -3 4 -10 0 -16 -8 -8 -13 -12 -12 -24
4 -15 19 -15 19 -15 -1 0 -12 -4 -23 -10 -25 -10 -3 -20 -76 -13 -95 3 -7 11
-13 19 -13 9 0 14 -11 14 -30 0 -16 5 -50 12 -75 13 -48 7 -65 -17 -45 -23 19
-31 -14 -11 -53 13 -27 16 -29 16 -9 0 12 5 22 10 22 12 0 4 -36 -17 -89 -8
-18 -12 -35 -9 -38 10 -10 25 8 31 37 9 39 18 38 33 -5 11 -29 10 -39 -3 -65
-9 -17 -14 -37 -12 -43 3 -7 12 5 22 27 15 36 17 37 30 19 11 -16 11 -28 -2
-77 -8 -32 -23 -73 -32 -90 -10 -17 -23 -48 -30 -68 -15 -46 -31 -49 -31 -8 0
19 7 34 20 42 15 10 20 24 20 57 0 49 -16 46 -23 -4 -3 -24 -4 -21 -6 13 0 28
-6 45 -16 48 -8 4 -15 12 -15 20 0 8 7 14 15 14 9 0 15 9 15 23 -1 20 -2 21
-14 5 -19 -25 -26 -22 -26 11 0 17 -5 33 -11 37 -6 3 -8 15 -6 26 7 24 -30 60
-55 52 -13 -4 -18 0 -18 15 0 12 6 21 14 21 11 0 13 11 10 43 l-5 42 16 -28
c20 -35 29 -30 15 8 -6 15 -8 50 -4 79 4 37 3 47 -5 36 -10 -13 -11 -13 -11 0
0 35 67 207 83 213 7 2 16 6 22 8 5 2 12 -7 16 -21 7 -25 7 -25 8 3 1 18 -7
35 -20 46 -17 14 -22 29 -22 74 -1 40 -5 57 -14 57 -17 0 -16 6 5 65 21 61 59
128 70 121 9 -6 8 -224 -2 -256 -4 -14 -4 -20 1 -14 4 6 18 16 31 23 17 9 22
9 22 -1 0 -8 5 -6 11 4 13 22 4 94 -21 168 -5 14 -11 42 -14 63 -4 32 -2 38
10 33 21 -8 47 57 45 109 -1 22 6 53 14 69 8 15 15 34 15 40 0 18 70 126 82
126 6 0 7 -16 2 -42 -4 -24 -8 -65 -10 -93 -1 -27 -5 -67 -7 -87 -3 -21 -1
-38 3 -38 11 0 18 -46 10 -60 -6 -9 -9 -9 -15 0 -5 9 -14 0 -27 -26 -11 -22
-21 -44 -22 -51 -4 -21 -16 -27 -16 -8 0 26 -17 7 -25 -27 -5 -18 -3 -28 4
-28 6 0 11 5 11 12 0 6 3 9 6 5 3 -3 -2 -31 -11 -62 -9 -32 -14 -60 -11 -63 8
-8 18 5 20 25 8 77 42 171 57 156 15 -15 62 -183 63 -223 0 -19 -2 -44 -4 -56
-3 -11 -1 -20 5 -20 6 1 9 4 8 9 -4 11 15 9 22 -3 3 -5 1 -26 -4 -47 -7 -26
-7 -41 0 -50 6 -7 9 -20 5 -28 -3 -9 0 -15 10 -15 9 0 14 6 11 13 -6 17 36
184 57 222 9 17 16 36 16 43 0 6 5 12 10 12 6 0 12 -6 14 -12 2 -7 11 -44 20
-83 10 -38 26 -83 36 -100 13 -23 16 -36 8 -55 -10 -26 -3 -70 11 -70 4 0 12
14 17 32 5 17 15 33 21 35 20 7 -1 -47 -44 -118 -22 -35 -45 -89 -52 -119 -8
-38 -19 -61 -37 -73 l-25 -19 15 36 c18 43 13 47 -8 9 -14 -26 -21 -20 -17 15
1 6 -2 12 -8 12 -5 0 -15 24 -21 53 -13 52 -29 92 -30 71 -2 -71 73 -283 119
-337 11 -14 16 -42 16 -108 0 -82 -2 -90 -23 -105 -17 -11 -20 -20 -13 -27 7
-7 15 -6 25 2 42 35 95 201 60 187 -17 -7 -18 6 -1 23 9 10 9 15 0 18 -7 2
-10 10 -7 18 3 7 -2 30 -12 50 -21 44 -23 151 -3 186 7 13 12 30 10 37 -1 8 4
21 12 30 19 22 48 80 57 112 6 22 9 19 24 -30 9 -30 29 -92 44 -138 23 -71 24
-86 13 -104 -7 -12 -9 -23 -4 -27 5 -3 12 -13 15 -22 7 -18 -10 -119 -22 -135
-5 -5 -7 -20 -3 -32 3 -12 0 -28 -6 -36 -6 -7 -13 -32 -16 -55 -2 -22 -7 -50
-10 -61 -4 -12 -2 -20 6 -20 7 0 6 -8 -5 -22 -9 -13 -21 -34 -27 -48 -8 -18
-12 -21 -18 -11 -6 9 -12 2 -21 -25 -7 -22 -19 -50 -27 -63 -9 -14 -13 -35 -9
-55 3 -17 1 -38 -4 -46 -7 -11 -10 -5 -11 25 -1 46 -8 98 -15 104 -10 11 -11
-11 -3 -119 6 -78 15 -130 29 -163 22 -51 27 -136 14 -271 -7 -78 9 -85 20 -9
17 117 17 188 0 242 -16 51 -16 57 -1 84 19 32 21 47 8 47 -5 0 -13 -9 -16
-21 -5 -16 -10 -18 -21 -8 -18 15 -19 63 -1 56 21 -8 40 29 27 53 -15 28 -12
60 5 60 9 0 15 9 15 23 0 12 5 29 10 37 8 12 10 9 10 -12 0 -16 5 -28 10 -28
6 0 10 11 10 24 0 14 4 27 9 30 5 3 11 23 14 43 12 79 20 109 34 125 9 10 12
25 8 38 -4 13 -1 28 8 38 8 9 19 40 23 67 4 28 15 61 25 74 19 24 26 46 11 37
-4 -2 -14 -1 -22 4 -12 7 -12 13 0 37 8 15 16 32 19 37 2 5 -3 7 -11 3 -12 -4
-15 3 -14 34 0 21 5 39 9 39 11 0 -1 70 -14 86 -21 25 -21 128 0 217 12 48 21
101 21 117 0 17 5 30 11 30 8 0 10 -19 6 -62 -4 -35 -4 -57 -1 -50 15 33 21 3
17 -79 -3 -61 -1 -99 7 -114 9 -17 9 -28 1 -43 -14 -26 -14 -52 -1 -52 6 0 10
9 10 21 0 11 8 33 18 47 15 22 18 44 17 115 -1 48 -5 90 -9 94 -3 3 -6 17 -6
29 0 13 -5 36 -11 51 -34 82 -49 111 -62 116 -9 3 -16 27 -19 64 -6 60 -44
153 -65 161 -18 5 -16 -19 6 -69 11 -24 23 -72 27 -106 3 -35 10 -63 14 -63 5
0 13 -21 18 -47 11 -49 6 -88 -22 -192 -8 -30 -12 -59 -9 -64 3 -5 -3 -6 -16
-2 -12 4 -21 2 -21 -4 0 -17 -17 -13 -24 5 -3 8 1 22 9 30 19 20 19 44 0 44
-8 0 -15 5 -15 11 0 5 -5 7 -11 3 -9 -5 -10 2 -6 22 3 16 4 23 1 16 -9 -21
-33 33 -27 60 3 13 14 31 24 41 11 10 19 25 19 33 0 28 -44 92 -76 109 -91 49
-149 158 -139 262 3 34 1 61 -6 69 -8 10 -6 22 9 48 11 18 23 47 27 64 3 17
12 36 20 42 11 9 16 4 23 -24 6 -20 8 -46 5 -58 -4 -18 -2 -20 6 -8 8 12 11
12 17 -3 4 -10 2 -28 -3 -40 -6 -15 -6 -30 3 -46 7 -14 10 -37 7 -53 -3 -18
-1 -28 6 -28 8 0 9 -5 1 -19 -13 -26 -13 -44 1 -35 9 5 10 -1 5 -20 -9 -36 2
-76 20 -69 9 3 14 -2 14 -17 0 -13 4 -19 11 -14 6 3 9 24 7 48 -2 25 2 54 12
74 31 62 7 173 -50 241 -22 26 -40 56 -40 67 0 11 -8 30 -17 44 -9 13 -18 42
-20 64 -4 38 -19 84 -43 128 -6 10 -10 26 -10 36 0 10 -7 27 -15 38 -14 18
-14 18 -15 -4z m191 -518 c9 -41 9 -59 0 -76 l-12 -23 5 23 c5 28 -19 80 -28
60 -3 -7 -4 3 -2 22 2 19 0 44 -5 55 -4 11 -8 14 -8 6 -1 -8 -3 -12 -6 -9 -3
3 -3 13 1 22 10 27 41 -17 55 -80z m-258 -29 c-3 -9 -8 -14 -10 -11 -3 3 -2 9
2 15 9 16 15 13 8 -4z m-2 -112 c-12 -20 -14 -14 -5 12 4 9 9 14 11 11 3 -2 0
-13 -6 -23z m262 -203 c15 -24 16 -34 7 -45 -6 -8 -10 -18 -8 -22 3 -4 -1 -26
-8 -48 l-12 -40 -1 36 c-1 19 -7 47 -13 62 -14 29 -37 44 -39 24 -2 -22 -17
37 -18 71 l-1 32 38 -19 c20 -10 45 -33 55 -51z m-556 -62 c-3 -8 -6 -5 -6 6
-1 11 2 17 5 13 3 -3 4 -12 1 -19z m373 -35 c0 -14 -15 -28 -33 -31 -16 -3
-16 -1 -5 17 12 20 38 29 38 14z m-445 -178 c4 -23 -1 -79 -10 -129 -9 -49
-14 -97 -12 -107 3 -11 1 -22 -4 -25 -5 -3 -9 4 -9 14 0 11 -7 23 -16 26 -14
5 -16 18 -10 91 6 82 21 168 33 188 8 14 22 -13 28 -58z m35 30 c0 -5 -5 -3
-10 5 -5 8 -10 20 -10 25 0 6 5 3 10 -5 5 -8 10 -19 10 -25z m817 3 c-3 -8 -6
-5 -6 6 -1 11 2 17 5 13 3 -3 4 -12 1 -19z m-575 -198 c12 -30 30 -66 40 -80
16 -22 17 -33 7 -90 -9 -61 -37 -139 -50 -140 -14 0 -74 53 -92 82 -31 50 -35
161 -9 221 11 25 28 81 37 124 10 43 20 83 24 88 3 6 9 -26 14 -70 4 -44 17
-105 29 -135z m-155 118 c-3 -8 -6 -5 -6 6 -1 11 2 17 5 13 3 -3 4 -12 1 -19z
m-13 -14 c3 -8 2 -12 -4 -9 -6 3 -10 10 -10 16 0 14 7 11 14 -7z m628 -46 c-7
-7 -12 -8 -12 -2 0 14 12 26 19 19 2 -3 -1 -11 -7 -17z m-592 -3 c0 -8 -2 -15
-4 -15 -2 0 -6 7 -10 15 -3 8 -1 15 4 15 6 0 10 -7 10 -15z m610 -32 c0 -5 -5
-15 -10 -23 -8 -12 -10 -11 -10 8 0 12 5 22 10 22 6 0 10 -3 10 -7z m-429 -56
c-8 -8 -11 -7 -11 4 0 20 13 34 18 19 3 -7 -1 -17 -7 -23z m-377 -56 c8 -12
-14 -71 -25 -71 -5 0 -9 18 -9 40 0 28 4 40 14 40 8 0 17 -4 20 -9z m594 -113
c8 -10 9 -18 3 -22 -6 -4 -17 7 -26 23 -25 49 -16 49 23 -1z m34 -52 c7 4 8 2
4 -4 -4 -6 -13 -9 -21 -6 -8 4 -12 11 -8 17 5 8 8 7 11 -1 2 -7 9 -9 14 -6z
m-324 -96 c4 -21 2 -22 -12 -7 -19 19 -21 40 -3 35 6 -3 14 -15 15 -28z m-148
-245 c0 -8 -4 -15 -10 -15 -5 0 -7 7 -4 15 4 8 8 15 10 15 2 0 4 -7 4 -15z
m-46 -13 c3 -5 -4 -21 -15 -38 -11 -17 -19 -23 -20 -14 0 8 -4 5 -10 -8 -5
-13 -13 -20 -19 -17 -12 7 -13 45 -2 61 13 20 57 30 66 16z m13 -224 c-3 -7
-5 -2 -5 12 0 14 2 19 5 13 2 -7 2 -19 0 -25z m73 -90 c0 -16 -3 -19 -11 -11
-6 6 -8 16 -5 22 11 17 16 13 16 -11z m20 -43 c0 -8 -2 -15 -4 -15 -2 0 -6 7
-10 15 -3 8 -1 15 4 15 6 0 10 -7 10 -15z m93 -275 c-7 -28 -13 -25 -13 6 0
14 4 23 9 20 5 -3 7 -15 4 -26z m37 10 c0 -11 -4 -20 -10 -20 -5 0 -10 9 -10
20 0 11 5 20 10 20 6 0 10 -9 10 -20z m-40 -100 c0 -5 -4 -10 -10 -10 -5 0
-10 5 -10 10 0 6 5 10 10 10 6 0 10 -4 10 -10z"/>
<path d="M6862 4819 c3 -8 8 -13 11 -11 9 3 7 11 -5 18 -6 4 -8 0 -6 -7z"/>
<path d="M7014 5993 c-12 -27 -25 -61 -28 -77 -13 -53 19 -12 34 44 8 28 18
53 22 56 10 7 10 24 0 24 -4 0 -17 -21 -28 -47z"/>
<path d="M7191 6031 c-8 -5 -10 -14 -6 -21 6 -9 10 -8 17 4 12 21 7 28 -11 17z"/>
<path d="M2870 6010 c-18 -14 -20 -20 -9 -20 8 0 21 6 27 12 9 9 15 10 20 2 9
-14 62 -24 62 -12 0 5 -8 11 -17 14 -10 3 -26 10 -35 15 -22 11 -18 12 -48
-11z"/>
<path d="M6996 6015 c-9 -26 -7 -32 5 -12 6 10 9 21 6 23 -2 3 -7 -2 -11 -11z"/>
<path d="M3030 5851 c0 -5 5 -13 10 -16 6 -3 10 -2 10 4 0 5 -4 13 -10 16 -5
3 -10 2 -10 -4z"/>
<path d="M2996 5818 c3 -13 15 -39 25 -58 15 -29 18 -31 19 -13 0 27 -30 93
-43 93 -4 0 -5 -10 -1 -22z"/>
<path d="M2920 5756 c0 -20 5 -36 10 -36 6 0 10 13 10 29 0 17 -4 33 -10 36
-6 4 -10 -8 -10 -29z"/>
<path d="M2850 5741 c0 -6 5 -13 10 -16 6 -3 10 1 10 9 0 9 -4 16 -10 16 -5 0
-10 -4 -10 -9z"/>
<path d="M2810 5710 c0 -5 5 -10 10 -10 6 0 10 5 10 10 0 6 -4 10 -10 10 -5 0
-10 -4 -10 -10z"/>
<path d="M3020 5653 c0 -23 15 -39 24 -25 3 5 -1 18 -9 28 -14 18 -14 18 -15
-3z"/>
<path d="M2955 5620 c-3 -5 1 -10 9 -10 9 0 16 5 16 10 0 6 -4 10 -9 10 -6 0
-13 -4 -16 -10z"/>
<path d="M7292 5525 c1 -14 5 -25 9 -25 10 0 20 30 13 41 -11 18 -24 9 -22
-16z"/>
<path d="M7293 5395 c0 -33 2 -45 4 -27 2 18 2 45 0 60 -2 15 -4 0 -4 -33z"/>
<path d="M2921 5433 c0 -5 4 -17 9 -28 8 -18 9 -17 9 8 1 15 -3 27 -9 27 -5 0
-10 -3 -9 -7z"/>
<path d="M2971 5403 c0 -18 1 -33 3 -33 20 0 36 16 36 37 0 14 -4 22 -10 18
-6 -4 -8 -11 -5 -16 4 -5 2 -9 -4 -9 -5 0 -12 8 -14 18 -3 9 -5 2 -6 -15z"/>
<path d="M3095 5410 c3 -5 8 -10 11 -10 2 0 4 5 4 10 0 6 -5 10 -11 10 -5 0
-7 -4 -4 -10z"/>
<path d="M3055 5400 c-3 -6 1 -7 9 -4 18 7 21 14 7 14 -6 0 -13 -4 -16 -10z"/>
<path d="M3224 5334 c11 -26 54 -153 66 -189 5 -16 12 -47 16 -68 3 -20 11
-40 17 -44 6 -4 8 4 3 21 -4 16 -3 25 2 22 10 -6 24 -98 26 -171 1 -49 16 -73
36 -60 16 10 -11 175 -32 201 -5 7 -7 16 -6 20 2 5 -9 34 -24 64 -15 30 -39
91 -55 134 -15 44 -34 81 -42 84 -10 3 -12 0 -7 -14z"/>
<path d="M2779 5281 c-10 -16 -14 -40 -12 -55 5 -22 8 -25 21 -14 12 10 16 10
19 1 7 -21 23 -15 23 9 0 25 -21 88 -30 88 -3 0 -12 -13 -21 -29z"/>
<path d="M3190 5290 c0 -5 5 -10 10 -10 6 0 10 5 10 10 0 6 -4 10 -10 10 -5 0
-10 -4 -10 -10z"/>
<path d="M3030 5238 c1 -7 7 -31 15 -53 8 -22 15 -51 16 -65 1 -14 5 2 9 35 5
34 4 67 -1 78 -11 20 -39 23 -39 5z"/>
<path d="M2557 5224 c-9 -10 2 -24 19 -24 8 0 14 7 14 15 0 15 -21 21 -33 9z"/>
<path d="M2995 5193 c6 -26 21 -43 38 -43 4 0 4 12 1 28 -9 37 -13 42 -31 42
-12 0 -14 -6 -8 -27z"/>
<path d="M3200 5205 c-15 -18 -9 -50 10 -50 10 0 16 12 18 33 3 34 -8 41 -28
17z"/>
<path d="M2605 5200 c3 -5 8 -10 11 -10 2 0 4 5 4 10 0 6 -5 10 -11 10 -5 0
-7 -4 -4 -10z"/>
<path d="M3120 5196 c0 -8 5 -18 10 -21 6 -3 10 3 10 14 0 12 -4 21 -10 21 -5
0 -10 -6 -10 -14z"/>
<path d="M7486 5068 c-2 -18 -9 -71 -15 -118 -5 -47 -20 -119 -32 -160 -12
-41 -23 -93 -25 -115 -3 -28 3 -15 22 45 14 47 32 96 39 110 37 65 53 105 45
108 -5 2 -6 10 -3 19 4 11 2 14 -5 9 -8 -5 -12 0 -12 13 0 21 15 37 23 24 3
-5 12 -31 20 -60 14 -45 14 -53 1 -64 -12 -10 -13 -9 -8 7 3 10 -3 5 -14 -12
-15 -24 -18 -39 -12 -65 8 -37 7 -38 33 31 4 11 6 9 6 -5 0 -11 -11 -42 -24
-70 -14 -27 -25 -56 -25 -63 0 -7 -7 -26 -15 -42 -9 -17 -11 -30 -6 -30 6 0
16 18 22 40 7 22 21 48 32 57 20 18 20 17 13 -22 -4 -22 -12 -44 -17 -49 -5
-6 -9 -21 -9 -35 0 -15 -5 -33 -11 -41 -8 -11 -9 -5 -5 25 l5 40 -13 -40 c-7
-22 -18 -40 -25 -40 -17 0 -29 -23 -24 -49 3 -13 0 -27 -6 -30 -6 -4 -11 -15
-11 -24 0 -10 -11 -33 -24 -52 -27 -40 -122 -287 -132 -342 -10 -59 12 -46 26
15 22 91 125 337 142 337 8 0 13 -143 9 -230 -4 -75 -32 -183 -59 -223 -17
-26 -22 -41 -15 -48 14 -14 47 40 63 101 16 63 39 127 40 113 0 -7 6 -13 13
-13 16 0 42 74 38 107 -1 13 1 28 5 34 3 6 8 29 10 52 1 22 6 43 11 46 4 3 8
20 9 36 1 17 8 59 16 95 15 68 13 224 -3 214 -5 -3 -9 -42 -9 -87 0 -92 -9
-159 -20 -152 -19 12 5 236 34 318 18 52 0 130 -55 253 -11 23 -19 46 -19 53
0 26 -19 8 -24 -21z m25 -577 c-14 -26 -15 -52 -1 -31 15 24 12 1 -6 -36 -9
-19 -14 -38 -10 -41 3 -3 6 1 6 10 0 10 4 17 10 17 6 0 7 -15 4 -37 -7 -47
-11 -53 -32 -53 -16 0 -17 11 -14 103 2 56 8 106 13 112 6 5 9 1 10 -10 0 -15
4 -12 12 10 l12 30 3 -27 c2 -15 -2 -36 -7 -47z m33 -98 c-3 -27 -11 -55 -15
-63 -9 -14 -5 28 7 88 8 42 15 22 8 -25z m-36 -119 c12 7 6 -51 -9 -91 -15
-42 -26 -24 -23 40 3 77 2 75 13 58 5 -7 14 -11 19 -7z"/>
<path d="M3065 5023 c8 -54 12 -63 26 -63 6 0 8 8 6 18 -3 9 -8 34 -12 55 -9
57 -29 47 -20 -10z"/>
<path d="M3280 5043 c0 -10 5 -25 10 -33 8 -12 10 -9 10 12 0 15 -4 30 -10 33
-5 3 -10 -2 -10 -12z"/>
<path d="M2603 5015 c-15 -17 -17 -55 -3 -55 6 0 10 7 10 16 0 8 5 12 10 9 6
-4 8 -15 5 -26 -4 -11 -2 -19 4 -19 6 0 11 9 11 20 0 11 7 20 15 20 16 0 19 9
9 34 -8 20 -45 20 -61 1z"/>
<path d="M3203 4992 c4 -39 17 -72 17 -43 0 8 7 11 15 7 12 -4 15 3 15 29 0
34 -20 62 -20 28 -1 -17 -2 -17 -15 2 -14 18 -15 16 -12 -23z"/>
<path d="M2830 4974 c0 -23 5 -46 10 -49 6 -4 10 6 10 22 1 27 1 26 19 -12
l18 -40 8 28 c10 38 -11 84 -41 90 -22 4 -24 1 -24 -39z"/>
<path d="M2357 5003 c-4 -3 -8 -25 -9 -47 -1 -37 -2 -38 -5 -8 -2 18 -9 30
-14 27 -14 -9 -11 -75 4 -75 24 0 33 16 34 63 1 49 0 51 -10 40z"/>
<path d="M2812 4975 c0 -16 2 -22 5 -12 2 9 2 23 0 30 -3 6 -5 -1 -5 -18z"/>
<path d="M2266 4803 c-10 -82 -21 -202 -23 -268 -2 -66 -8 -142 -12 -168 -9
-52 1 -119 18 -125 17 -6 13 -64 -5 -77 -14 -9 -14 -16 -5 -34 12 -22 6 -111
-8 -111 -4 0 -13 48 -20 108 -12 99 -32 172 -46 172 -4 0 -3 -10 1 -22 4 -13
8 -45 9 -73 1 -27 6 -90 13 -140 6 -49 12 -126 13 -170 1 -44 5 -84 8 -90 3
-5 6 -17 8 -25 8 -56 15 -80 25 -80 7 0 8 15 4 43 -4 23 -9 86 -13 140 -5 79
-3 101 8 108 8 5 17 35 21 76 3 37 11 93 17 123 6 30 14 91 18 134 5 53 13 81
22 84 11 4 12 -3 7 -29 -21 -100 -10 -772 13 -833 19 -48 22 -24 11 75 -15
123 -22 662 -11 714 20 85 34 269 23 305 -9 32 -10 30 -10 -30 0 -92 -12 -170
-27 -170 -7 0 -16 7 -19 16 -11 28 -17 10 -26 -81 -9 -86 -14 -104 -26 -92 -8
7 -7 28 6 247 5 96 10 184 10 195 1 10 5 24 10 30 12 14 24 195 13 195 -5 0
-17 -66 -27 -147z"/>
<path d="M2355 4874 c-4 -16 -8 -39 -11 -51 -2 -12 -1 -30 4 -40 4 -12 9 4 13
47 6 71 3 89 -6 44z"/>
<path d="M6640 4885 c0 -8 5 -15 10 -15 6 0 10 7 10 15 0 8 -4 15 -10 15 -5 0
-10 -7 -10 -15z"/>
<path d="M3384 4798 c3 -18 9 -73 13 -123 3 -49 12 -99 19 -110 7 -12 12 -32
10 -45 -3 -14 -7 -87 -11 -164 -6 -113 -4 -137 7 -134 8 3 16 29 20 64 11 88
12 289 2 305 -5 8 -10 37 -10 64 -3 73 -11 126 -25 152 -18 34 -32 28 -25 -9z"/>
<path d="M6727 4797 c-4 -10 -7 -28 -7 -40 1 -20 2 -20 11 -4 6 10 9 28 7 40
-3 20 -4 20 -11 4z"/>
<path d="M3260 4760 c0 -27 -4 -39 -12 -37 -17 3 -17 -65 0 -70 7 -3 12 5 12
22 0 22 3 25 20 20 15 -5 21 0 26 19 7 31 -2 60 -16 51 -5 -3 -10 3 -10 14 0
12 -4 21 -10 21 -5 0 -10 -18 -10 -40z"/>
<path d="M3205 4740 c-4 -6 -3 -16 3 -22 6 -6 12 -6 17 2 4 6 3 16 -3 22 -6 6
-12 6 -17 -2z"/>
<path d="M2640 4716 c0 -49 35 -63 42 -16 4 26 1 30 -19 30 -13 0 -23 -6 -23
-14z"/>
<path d="M2300 4684 c-17 -44 -8 -210 10 -199 7 5 9 225 2 225 -1 0 -7 -12
-12 -26z"/>
<path d="M2700 4695 c0 -16 16 -20 24 -6 3 5 -1 11 -9 15 -9 3 -15 0 -15 -9z"/>
<path d="M3040 4673 c0 -19 7 -41 15 -49 10 -10 15 -11 15 -4 0 7 6 10 14 7
19 -8 27 28 13 56 -7 12 -22 22 -34 23 -20 0 -23 -5 -23 -33z"/>
<path d="M6577 4657 c8 -61 19 -77 28 -39 8 37 0 68 -19 75 -11 4 -13 -4 -9
-36z"/>
<path d="M2871 4575 c-1 -17 -3 -17 -11 -5 -7 11 -10 0 -10 -37 0 -30 5 -53
10 -53 6 0 8 11 4 26 -5 19 -4 25 5 20 6 -4 11 -16 11 -27 0 -35 25 -15 27 22
1 20 -1 26 -4 14 -5 -16 -9 -12 -19 20 -7 22 -13 31 -13 20z"/>
<path d="M2815 4537 c-4 -10 -5 -21 -1 -24 10 -10 18 4 13 24 -4 17 -4 17 -12
0z"/>
<path d="M2587 4526 c-25 -19 -21 -41 8 -41 19 0 25 5 25 22 0 28 -11 34 -33
19z"/>
<path d="M3310 4510 c0 -5 -7 -7 -15 -4 -10 4 -15 0 -15 -15 0 -22 14 -28 25
-11 4 6 10 8 15 5 4 -3 10 4 13 15 3 13 0 20 -9 20 -8 0 -14 -4 -14 -10z"/>
<path d="M7175 4466 c-24 -62 -14 -79 13 -23 24 51 27 67 13 67 -5 0 -17 -20
-26 -44z"/>
<path d="M7210 4459 c-11 -24 -19 -55 -19 -69 0 -22 2 -21 20 13 11 21 17 42
14 48 -4 5 -1 17 6 25 6 8 9 17 6 21 -4 3 -16 -14 -27 -38z"/>
<path d="M2551 4474 c0 -11 3 -14 6 -6 3 7 2 16 -1 19 -3 4 -6 -2 -5 -13z"/>
<path d="M2570 4452 c0 -5 9 -17 21 -28 21 -19 21 -19 18 6 -4 23 -39 43 -39
22z"/>
<path d="M3060 4441 c0 -6 5 -13 10 -16 6 -3 10 1 10 9 0 9 -4 16 -10 16 -5 0
-10 -4 -10 -9z"/>
<path d="M2980 4423 c0 -13 5 -23 10 -23 13 0 13 11 0 30 -8 12 -10 11 -10 -7z"/>
<path d="M2676 4353 c-3 -3 -5 -20 -5 -37 1 -17 3 -23 6 -14 2 9 10 15 18 12
10 -4 12 0 8 15 -6 24 -17 34 -27 24z"/>
<path d="M2628 4309 c-6 -40 0 -61 16 -56 17 5 19 50 3 71 -13 18 -15 17 -19
-15z"/>
<path d="M3256 4322 c-9 -15 10 -77 24 -77 18 0 30 44 18 68 -9 17 -33 23 -42
9z"/>
<path d="M7113 4299 c-6 -8 -14 -25 -18 -39 -4 -14 -23 -59 -42 -100 -40 -86
-47 -102 -62 -149 -13 -41 -13 -41 -1 -41 6 0 10 8 10 18 0 9 22 62 49 117 64
131 84 181 79 195 -3 9 -7 9 -15 -1z"/>
<path d="M3226 4268 c-9 -35 -7 -50 6 -46 11 4 18 68 7 68 -4 0 -9 -10 -13
-22z"/>
<path d="M3050 4215 c0 -14 5 -25 10 -25 6 0 10 11 10 25 0 14 -4 25 -10 25
-5 0 -10 -11 -10 -25z"/>
<path d="M7380 4220 c0 -5 5 -10 10 -10 6 0 10 5 10 10 0 6 -4 10 -10 10 -5 0
-10 -4 -10 -10z"/>
<path d="M3406 4168 c-4 -18 -9 -55 -12 -83 -8 -69 -29 -162 -48 -214 -17 -44
-15 -71 3 -71 5 0 12 15 16 33 4 17 15 57 25 87 10 30 21 82 25 115 4 33 9 69
11 80 2 11 7 35 10 53 5 24 3 32 -9 32 -8 0 -17 -13 -21 -32z"/>
<path d="M7385 4184 c-4 -10 -13 -34 -21 -52 -15 -34 -19 -70 -7 -58 10 10 43
119 38 125 -3 2 -7 -5 -10 -15z"/>
<path d="M6555 4158 c-3 -7 -1 -26 4 -43 9 -29 9 -29 10 13 1 41 -5 54 -14 30z"/>
<path d="M2526 4131 c-4 -7 -5 -15 -2 -18 9 -9 19 4 14 18 -4 11 -6 11 -12 0z"/>
<path d="M2520 4085 c0 -8 5 -15 10 -15 6 0 10 -7 10 -15 0 -8 5 -15 10 -15 6
0 10 7 10 15 0 8 -4 15 -10 15 -5 0 -10 7 -10 15 0 8 -4 15 -10 15 -5 0 -10
-7 -10 -15z"/>
<path d="M7480 4075 c-6 -16 -14 -63 -17 -102 -3 -40 -10 -73 -15 -73 -5 0 -8
-6 -6 -12 3 -7 -6 -42 -20 -78 -13 -36 -28 -90 -32 -120 -4 -30 -8 -46 -9 -34
0 11 -5 24 -11 30 -5 5 -10 43 -12 84 -3 65 -5 72 -15 54 -9 -15 -10 -31 -3
-54 5 -18 10 -73 11 -123 1 -50 6 -99 12 -107 7 -12 0 -42 -27 -115 -20 -53
-35 -100 -32 -103 3 -2 -1 -17 -9 -33 -19 -36 -19 -45 0 -29 19 16 19 7 -1
-32 -21 -41 -35 -88 -25 -88 4 0 22 30 41 67 18 38 35 63 37 56 4 -11 -53
-122 -68 -133 -3 -3 -9 -21 -13 -40 -4 -27 3 -18 31 40 29 58 38 70 41 53 2
-13 -6 -36 -17 -52 -12 -16 -21 -32 -21 -35 0 -4 -11 -24 -25 -46 -26 -41 -33
-66 -15 -55 6 3 10 -1 10 -9 0 -8 -4 -17 -9 -20 -11 -7 -20 -55 -11 -61 3 -2
18 20 33 50 19 38 31 53 41 49 15 -6 20 10 30 101 2 22 9 74 15 115 25 165 32
310 18 380 -5 26 -4 31 4 18 14 -24 25 -22 32 4 4 15 1 26 -9 31 -17 9 -13 28
17 92 10 22 24 65 30 95 6 30 17 64 24 75 7 11 16 44 19 73 4 29 9 58 12 65 2
7 -2 21 -10 32 -14 19 -15 19 -26 -10z m-136 -780 c-10 -16 -21 -22 -26 -17
-5 5 0 20 14 35 28 31 36 19 12 -18z"/>
<path d="M2570 4070 c0 -5 5 -10 10 -10 6 0 10 5 10 10 0 6 -4 10 -10 10 -5 0
-10 -4 -10 -10z"/>
<path d="M6601 4054 c0 -11 3 -14 6 -6 3 7 2 16 -1 19 -3 4 -6 -2 -5 -13z"/>
<path d="M7103 3885 c-7 -99 -9 -183 -4 -188 5 -5 9 35 10 90 2 136 10 193 28
193 11 0 13 -8 8 -32 l-6 -33 20 35 c24 42 26 57 6 40 -19 -16 -19 -9 0 36 8
19 11 32 6 30 -5 -3 -14 -19 -21 -36 -17 -40 -28 -38 -32 8 -2 20 -8 -44 -15
-143z"/>
<path d="M2762 4021 c-13 -14 -21 -20 -17 -13 3 6 1 12 -4 12 -12 0 -15 -52
-5 -63 9 -8 31 15 36 39 4 16 8 13 20 -15 15 -32 16 -33 23 -12 4 14 0 32 -12
50 l-18 28 -23 -26z"/>
<path d="M3054 4039 c-3 -6 -1 -16 5 -22 8 -8 11 -5 11 11 0 24 -5 28 -16 11z"/>
<path d="M6640 4015 c0 -19 4 -35 8 -35 4 0 6 16 4 35 -2 19 -6 35 -8 35 -2 0
-4 -16 -4 -35z"/>
<path d="M3080 4013 c0 -25 -10 -29 -28 -11 -17 17 -35 -3 -30 -33 4 -32 48
-33 64 -2 8 17 13 20 22 11 9 -9 12 -4 12 23 0 26 -3 30 -10 19 -9 -13 -11
-13 -20 0 -8 12 -10 11 -10 -7z"/>
<path d="M7019 4004 c-7 -16 -18 -44 -26 -62 -18 -41 -27 -119 -27 -237 -1
-138 18 -122 24 20 3 67 11 130 18 142 6 12 9 28 6 37 -3 8 2 38 11 66 18 55
13 81 -6 34z"/>
<path d="M6612 3990 c0 -19 2 -27 5 -17 2 9 2 25 0 35 -3 9 -5 1 -5 -18z"/>
<path d="M2254 3933 c3 -21 6 -49 6 -62 0 -18 3 -22 11 -14 14 14 2 113 -13
113 -7 0 -8 -14 -4 -37z"/>
<path d="M6652 3920 c0 -19 2 -27 5 -17 2 9 2 25 0 35 -3 9 -5 1 -5 -18z"/>
<path d="M2760 3931 c0 -16 15 -20 40 -14 22 6 23 7 4 14 -27 11 -44 11 -44 0z"/>
<path d="M7172 3920 c-7 -11 -12 -30 -12 -42 1 -16 5 -11 15 17 16 44 15 53
-3 25z"/>
<path d="M6681 3883 c0 -28 2 -54 7 -57 4 -2 6 14 4 37 -5 68 -10 76 -11 20z"/>
<path d="M6757 3884 c-10 -10 -9 -42 2 -49 14 -8 19 6 12 33 -3 13 -9 20 -14
16z"/>
<path d="M6631 3862 c-1 -6 15 -72 34 -145 19 -73 37 -159 41 -190 7 -57 24
-90 24 -45 -1 49 -97 416 -99 380z"/>
<path d="M7151 3824 c0 -11 3 -14 6 -6 3 7 2 16 -1 19 -3 4 -6 -2 -5 -13z"/>
<path d="M2558 3786 c-3 -14 -2 -28 1 -32 3 -3 6 -13 6 -22 0 -10 4 -17 10
-17 10 0 7 63 -5 84 -5 10 -9 6 -12 -13z"/>
<path d="M2597 3804 c-9 -10 4 -40 23 -52 16 -10 21 -8 31 9 6 11 9 22 7 23
-16 10 -57 24 -61 20z"/>
<path d="M6753 3770 c0 -25 2 -35 4 -22 2 12 2 32 0 45 -2 12 -4 2 -4 -23z"/>
<path d="M2940 3780 c0 -11 5 -20 10 -20 6 0 10 9 10 20 0 11 -4 20 -10 20 -5
0 -10 -9 -10 -20z"/>
<path d="M7140 3799 c0 -2 -4 -19 -9 -37 -5 -17 -6 -32 -1 -32 8 0 21 62 14
69 -2 2 -4 2 -4 0z"/>
<path d="M7177 3793 c-4 -3 -7 -16 -6 -27 0 -19 1 -19 10 3 10 24 8 36 -4 24z"/>
<path d="M2910 3762 c0 -5 7 -17 15 -28 15 -19 20 -8 9 20 -6 17 -24 22 -24 8z"/>
<path d="M3136 3761 c-8 -13 11 -61 24 -61 11 0 13 30 4 54 -7 18 -20 21 -28
7z"/>
<path d="M6718 3758 c-8 -21 -2 -62 10 -66 7 -2 9 9 5 35 -7 44 -9 48 -15 31z"/>
<path d="M3200 3730 c0 -16 5 -30 10 -30 6 0 10 14 10 30 0 17 -4 30 -10 30
-5 0 -10 -13 -10 -30z"/>
<path d="M3310 3714 c-6 -14 -10 -35 -10 -46 0 -11 -4 -37 -9 -57 -5 -20 -17
-67 -26 -106 -10 -38 -33 -103 -51 -143 -19 -40 -34 -76 -34 -80 0 -4 -9 -25
-20 -47 -11 -22 -20 -48 -20 -58 0 -10 -7 -40 -16 -67 -9 -27 -14 -55 -12 -62
3 -7 17 28 32 77 28 92 41 124 106 256 23 47 43 106 50 150 7 41 14 81 17 89
3 8 6 26 7 40 2 14 6 37 10 53 11 35 -11 37 -24 1z"/>
<path d="M2605 3720 c-3 -5 -1 -10 4 -10 6 0 11 5 11 10 0 6 -2 10 -4 10 -3 0
-8 -4 -11 -10z"/>
<path d="M6567 3714 c-3 -3 1 -25 10 -47 9 -27 13 -63 10 -102 -2 -33 -1 -71
2 -84 9 -33 31 -39 31 -9 1 22 1 22 12 4 7 -12 11 -72 12 -148 0 -114 3 -129
18 -134 20 -6 23 -19 8 -29 -6 -4 -5 -16 1 -33 6 -15 10 -93 9 -177 0 -82 2
-146 6 -142 4 3 9 73 11 154 3 101 9 157 19 177 8 16 14 41 14 55 1 38 46 168
52 150 9 -24 27 34 34 108 4 50 3 64 -5 53 -6 -8 -11 -30 -11 -49 0 -19 -6
-39 -14 -45 -19 -14 -54 -114 -70 -198 -7 -37 -15 -70 -18 -73 -3 -3 -9 60
-13 140 -4 80 -11 145 -16 145 -5 0 -9 9 -9 20 0 12 -6 31 -14 43 -7 12 -16
45 -20 72 -7 55 -33 142 -45 150 -5 2 -11 2 -14 -1z"/>
<path d="M6628 3695 c2 -14 6 -25 8 -25 2 0 4 11 4 25 0 14 -4 25 -9 25 -4 0
-6 -11 -3 -25z"/>
<path d="M7282 3678 c-7 -7 -12 -18 -12 -25 0 -7 -13 -43 -30 -80 -16 -36 -30
-74 -30 -85 0 -19 -33 -91 -54 -118 -14 -17 -14 -36 -1 -64 5 -11 4 -21 -4
-25 -7 -5 1 -18 23 -38 22 -19 37 -43 41 -66 4 -21 12 -37 17 -37 6 0 8 10 4
23 -3 12 -6 27 -6 34 0 6 -11 25 -25 42 l-26 30 17 73 c12 58 52 177 111 336
6 15 -9 16 -25 0z"/>
<path d="M6860 3640 c-18 -43 -9 -45 18 -4 16 25 18 34 8 34 -7 0 -19 -14 -26
-30z"/>
<path d="M2237 3653 c-11 -18 15 -218 38 -293 12 -41 30 -100 39 -131 9 -30
25 -63 36 -72 11 -9 22 -29 25 -44 8 -34 31 -78 42 -78 4 0 9 20 11 45 2 30
-1 40 -7 31 -10 -16 -31 -6 -31 15 0 8 -11 36 -25 62 -14 26 -25 54 -25 63 0
9 -11 50 -25 91 -14 41 -27 88 -29 104 -2 16 -9 64 -15 107 -11 80 -24 117
-34 100z"/>
<path d="M6640 3648 c0 -9 5 -20 10 -23 13 -8 13 5 0 25 -8 13 -10 13 -10 -2z"/>
<path d="M6821 3594 c0 -11 3 -14 6 -6 3 7 2 16 -1 19 -3 4 -6 -2 -5 -13z"/>
<path d="M6854 3565 c-12 -19 -14 -37 -9 -85 4 -37 3 -60 -3 -60 -15 0 1 -53
17 -58 10 -3 11 0 2 16 -14 26 -14 32 -1 32 6 0 10 -9 10 -20 0 -11 5 -20 10
-20 6 0 10 -11 10 -25 0 -15 -5 -24 -12 -22 -7 1 -12 -2 -11 -8 1 -5 6 -42 11
-81 6 -39 18 -86 27 -104 9 -18 19 -58 22 -89 3 -31 10 -64 15 -74 15 -30 31
-8 24 34 -6 38 8 56 17 22 3 -10 5 -5 6 12 1 17 3 48 6 70 2 22 2 32 -1 22 -3
-9 -9 -15 -14 -12 -4 3 -2 29 6 58 16 62 17 80 4 72 -5 -3 -10 -19 -10 -35 0
-16 -4 -32 -10 -35 -14 -9 -25 44 -11 58 14 14 15 61 1 52 -6 -4 -8 -11 -5
-16 4 -5 1 -9 -4 -9 -6 0 -11 -16 -11 -36 0 -21 -4 -33 -10 -29 -17 10 -11
-32 6 -50 14 -13 19 -14 26 -3 6 8 7 4 2 -12 -9 -35 -14 -38 -30 -15 -21 28
-35 86 -25 104 6 10 5 19 -4 26 -18 15 -30 68 -13 63 7 -3 16 -18 19 -34 6
-27 7 -26 9 11 1 22 4 34 7 28 7 -18 23 -16 23 2 0 8 -7 15 -16 15 -11 0 -14
6 -9 20 3 11 2 20 -4 20 -5 0 -12 -10 -14 -22 -2 -13 -5 -4 -6 20 0 23 4 42 9
42 6 0 10 5 10 11 0 5 -5 7 -11 4 -6 -4 -13 2 -16 14 -3 11 -10 18 -16 14 -18
-11 3 51 23 69 11 9 20 27 20 40 -1 22 -1 22 -15 4 -15 -20 -37 -13 -28 9 8
23 -5 17 -23 -10z m21 -44 c3 -5 1 -12 -5 -16 -5 -3 -10 1 -10 9 0 18 6 21 15
7z"/>
<path d="M3085 3510 c-4 -18 -2 -36 4 -44 8 -9 7 -21 -3 -42 -7 -16 -20 -45
-29 -64 -9 -19 -17 -29 -17 -21 0 20 -7 11 -25 -31 -9 -24 -11 -39 -5 -43 6
-3 15 6 20 20 5 14 14 23 20 20 5 -3 10 2 10 11 0 10 3 15 6 11 3 -3 19 6 35
21 27 24 29 30 24 71 -5 33 -3 42 4 31 18 -27 21 -4 5 43 -18 54 -39 61 -49
17z"/>
<path d="M2530 3508 c0 -20 26 -53 33 -42 3 5 -3 20 -14 33 -12 15 -19 18 -19
9z"/>
<path d="M2605 3511 c-3 -5 -1 -12 5 -16 5 -3 10 1 10 9 0 18 -6 21 -15 7z"/>
<path d="M2910 3502 c0 -16 55 -102 66 -102 2 0 -1 11 -6 24 -6 16 -5 27 3 35
9 9 6 13 -10 17 -12 4 -25 15 -28 25 -8 24 -25 25 -25 1z"/>
<path d="M2686 3479 c-9 -48 -6 -57 9 -24 16 35 19 55 6 55 -5 0 -11 -14 -15
-31z"/>
<path d="M2767 3487 c-4 -10 -11 -15 -17 -12 -13 8 -40 -55 -40 -93 0 -15 -9
-45 -20 -67 -21 -41 -26 -81 -11 -87 4 -1 20 -23 35 -46 15 -24 30 -41 33 -38
10 9 -19 66 -38 77 -20 10 -26 39 -9 39 6 0 10 7 10 15 0 8 10 26 22 41 13 14
23 31 23 37 1 7 4 19 7 27 18 43 24 78 18 100 -5 22 -7 23 -13 7z m-17 -63 c0
-8 -5 -12 -10 -9 -6 4 -8 11 -5 16 9 14 15 11 15 -7z"/>
<path d="M7296 3411 c-28 -55 -30 -61 -18 -61 11 0 56 99 49 107 -3 3 -17 -18
-31 -46z"/>
<path d="M2570 3411 c0 -12 7 -24 15 -27 27 -11 30 1 8 25 -23 24 -23 24 -23
2z"/>
<path d="M2987 3358 c-15 -23 -27 -47 -27 -53 0 -12 -53 -62 -85 -81 -11 -6
-25 -25 -32 -42 -11 -27 -11 -32 2 -32 11 0 13 -8 8 -32 -7 -37 -24 -53 -35
-35 -13 21 -20 -1 -14 -40 9 -48 20 -68 35 -59 8 5 8 13 1 26 -13 24 -13 53 0
45 5 -3 12 -29 16 -57 7 -52 31 -88 59 -88 8 0 15 5 15 11 0 6 9 9 20 6 10 -3
27 1 37 8 14 10 15 16 5 27 -7 8 -12 26 -12 39 0 13 -3 52 -6 85 -7 65 4 86
31 64 10 -8 12 -25 8 -56 -5 -47 2 -53 38 -34 39 21 19 146 -25 152 -11 2 -26
14 -33 28 -9 18 -13 20 -13 8 0 -10 -7 -18 -15 -18 -16 0 -39 -32 -50 -70 -6
-24 -6 -24 18 5 29 35 44 30 24 -8 -15 -29 -15 -89 0 -159 8 -37 7 -48 -3 -52
-9 -4 -14 2 -14 17 -1 12 -7 33 -15 47 -8 14 -15 43 -15 65 -1 36 -2 38 -14
22 -12 -15 -11 -26 1 -70 9 -29 20 -57 25 -64 13 -16 1 -34 -17 -26 -8 3 -15
16 -15 30 0 13 -7 37 -15 52 -17 34 -11 88 16 145 11 22 19 46 19 53 0 7 4 13
9 13 18 0 61 55 71 90 6 21 17 43 25 50 16 13 20 30 7 30 -4 0 -20 -19 -35
-42z m-105 -160 c-7 -7 -12 -8 -12 -2 0 6 3 14 7 17 3 4 9 5 12 2 2 -3 -1 -11
-7 -17z m158 -24 c13 -33 13 -87 0 -79 -6 3 -7 17 -4 30 4 18 0 27 -21 41 -20
13 -23 19 -13 25 21 14 28 11 38 -17z"/>
<path d="M2359 3375 c-9 -8 3 -75 13 -75 5 0 6 16 2 38 -7 41 -9 44 -15 37z"/>
<path d="M2604 3319 c-3 -6 1 -18 10 -27 15 -15 16 -14 16 11 0 27 -13 36 -26
16z"/>
<path d="M2400 3285 c0 -47 12 -105 22 -105 10 0 0 97 -13 120 -6 11 -8 6 -9
-15z"/>
<path d="M6806 3263 c-10 -31 -15 -226 -6 -217 7 7 20 234 13 234 -1 0 -4 -8
-7 -17z"/>
<path d="M2610 3245 c1 -26 2 -28 11 -12 8 14 8 22 0 30 -8 8 -11 3 -11 -18z"/>
<path d="M6830 3203 c0 -22 2 -25 10 -13 13 20 13 40 0 40 -5 0 -10 -12 -10
-27z"/>
<path d="M2544 3210 c-27 -11 -74 -74 -74 -99 0 -30 14 -26 26 7 8 22 10 15
10 -43 -1 -83 25 -148 62 -153 16 -3 22 2 22 17 0 11 -4 23 -10 26 -5 3 -10
-1 -10 -11 0 -36 -29 8 -41 62 -10 43 -10 63 -1 88 7 18 12 39 12 47 0 19 46
64 53 52 7 -11 -10 -53 -22 -53 -16 0 -31 -71 -25 -112 4 -21 12 -38 18 -38 6
0 19 -14 28 -30 9 -17 22 -30 28 -30 14 0 12 15 -4 29 -8 7 -17 23 -20 37 -5
17 -12 24 -21 20 -18 -7 -21 48 -5 90 15 38 23 24 9 -15 -6 -18 -9 -35 -5 -38
10 -10 16 1 20 43 2 21 9 52 15 68 9 23 9 31 -1 38 -16 10 -37 9 -64 -2z"/>
<path d="M2635 3170 c-3 -5 0 -10 8 -10 7 0 23 -9 35 -20 29 -27 30 -82 1
-109 -12 -11 -18 -24 -14 -30 10 -17 40 -13 58 7 21 23 22 36 2 28 -9 -3 -15
0 -15 8 0 16 24 38 33 30 3 -3 8 4 12 16 7 23 -4 44 -12 23 -8 -21 -20 -15
-33 17 -17 41 -60 64 -75 40z"/>
<path d="M6841 3119 c-13 -38 -13 -39 -2 -39 9 0 24 60 17 67 -2 2 -9 -10 -15
-28z"/>
<path d="M6639 3095 c-12 -20 -7 -304 5 -314 8 -7 12 23 13 113 2 120 -7 221
-18 201z"/>
<path d="M2465 3060 c-21 -34 6 -140 35 -140 15 0 12 15 -11 55 -15 25 -20 45
-15 65 6 30 2 38 -9 20z"/>
<path d="M6842 3042 c-19 -50 -23 -70 -14 -76 6 -3 16 2 23 11 12 14 12 16 0
9 -10 -7 -12 -2 -6 25 4 19 12 37 17 40 7 4 7 9 0 13 -5 3 -14 -7 -20 -22z"/>
<path d="M6790 3009 c0 -11 5 -17 10 -14 6 3 10 13 10 21 0 8 -4 14 -10 14 -5
0 -10 -9 -10 -21z"/>
<path d="M3104 3006 c-4 -10 -4 -63 0 -119 4 -56 9 -142 11 -192 8 -156 15
-219 26 -230 8 -7 10 3 6 35 -4 25 -11 151 -18 280 -6 129 -13 237 -15 239 -2
2 -6 -4 -10 -13z"/>
<path d="M6740 2947 c0 -20 5 -39 11 -42 7 -5 8 5 3 32 -9 51 -14 54 -14 10z"/>
<path d="M6795 2971 c-8 -13 15 -204 25 -215 15 -15 24 23 12 50 -9 19 -9 24
2 24 9 0 17 16 21 43 3 23 9 50 11 60 3 9 1 17 -5 17 -5 0 -15 -25 -22 -56
-15 -65 -26 -55 -31 29 -3 60 -4 62 -13 48z"/>
<path d="M7271 2888 c-40 -61 -41 -62 -41 -30 0 34 -14 43 -24 16 -3 -9 -6
-27 -6 -40 0 -13 -5 -23 -12 -21 -11 2 -25 -21 -46 -73 -5 -14 -18 -43 -28
-65 -9 -22 -24 -71 -32 -110 -16 -80 -24 -114 -48 -207 -17 -65 -14 -105 6
-93 5 3 10 21 10 38 1 18 7 50 15 72 8 22 15 47 15 55 0 8 7 27 15 43 8 15 16
46 19 70 7 57 61 220 73 224 11 4 33 -48 33 -78 0 -25 32 -89 41 -83 4 2 1 23
-7 47 -10 27 -11 43 -4 45 5 2 10 13 11 25 1 12 7 -21 15 -73 8 -52 21 -111
30 -130 18 -42 16 -156 -3 -153 -6 1 -19 -14 -28 -33 -9 -20 -19 -33 -22 -30
-3 3 6 30 21 60 23 46 26 62 20 110 -4 31 -10 59 -15 62 -4 2 -6 10 -4 17 5
13 -11 44 -19 37 -2 -3 0 -26 4 -52 8 -42 6 -55 -20 -110 -31 -64 -36 -88 -22
-88 5 0 17 26 27 58 13 38 20 50 23 36 1 -12 -10 -54 -26 -95 -30 -74 -32
-101 -6 -65 21 29 17 14 -11 -42 -27 -54 -29 -62 -17 -62 5 0 15 14 24 32 l15
32 1 -32 c0 -17 -4 -34 -9 -37 -14 -10 -11 -25 5 -19 16 6 56 97 56 128 -1 20
-2 20 -16 -4 l-15 -25 7 25 c13 49 34 91 42 86 5 -3 12 -61 15 -128 4 -101 3
-127 -11 -150 -17 -29 -42 -40 -62 -28 -18 11 -70 -9 -70 -26 0 -17 -5 -16 59
-4 35 6 59 6 71 0 25 -13 36 5 13 20 -15 9 -14 11 11 7 l28 -5 -6 47 c-18 136
-19 151 -6 167 11 13 11 17 0 24 -14 8 -17 77 -23 519 -1 101 -6 146 -14 148
-6 2 -30 -24 -52 -59z m41 19 c-16 -19 -33 -67 -23 -67 5 0 12 10 16 23 l8 22
4 -25 c3 -13 1 -26 -4 -27 -5 -2 -6 -28 -3 -58 5 -50 4 -55 -13 -55 -16 0 -18
6 -15 33 3 17 8 40 13 50 6 15 4 18 -11 15 -29 -5 -28 26 2 72 15 22 29 38 32
35 3 -2 0 -10 -6 -18z m8 -254 c-1 -28 -3 -34 -10 -22 -8 14 -3 59 6 59 2 0 4
-17 4 -37z"/>
<path d="M2751 2838 c-9 -25 -3 -58 10 -58 5 0 9 11 9 24 0 13 3 31 6 40 3 9
1 16 -5 16 -7 0 -15 -10 -20 -22z"/>
<path d="M2504 2786 c-3 -8 -3 -19 0 -24 5 -8 -2 -62 -24 -192 -6 -36 -13 -81
-15 -100 -3 -31 -13 -105 -32 -245 -3 -22 -10 -46 -17 -54 -6 -8 -16 -39 -23
-70 -9 -48 -9 -60 5 -85 19 -32 81 -58 106 -44 10 6 16 5 16 -1 0 -9 60 -31
86 -31 14 0 44 61 43 87 0 10 -9 -1 -20 -26 -15 -34 -23 -42 -37 -36 -9 4 -26
10 -37 13 -31 8 -34 20 -19 76 8 28 14 69 14 91 0 22 11 111 25 198 28 180 28
177 16 177 -5 0 -12 -28 -16 -62 -7 -58 -8 -60 -21 -37 l-13 24 -1 -27 c0 -16
5 -28 10 -28 13 0 13 -57 1 -65 -6 -3 -14 3 -20 12 -6 10 -11 13 -11 6 0 -6 8
-19 17 -28 15 -16 15 -25 0 -137 -19 -132 -22 -142 -44 -134 -11 4 -13 2 -9
-9 3 -8 9 -22 12 -30 8 -19 -9 -19 -45 0 -49 25 -58 92 -16 115 14 7 25 17 25
22 0 5 -4 6 -10 3 -5 -3 -10 3 -10 14 0 11 4 22 9 25 4 3 6 17 4 30 -3 16 2
35 15 51 17 21 19 32 11 52 -7 19 -6 30 4 42 25 29 29 41 13 35 -21 -8 -20 15
1 38 10 11 18 34 19 51 1 18 5 41 9 52 7 20 6 20 -9 1 -25 -31 -29 -14 -16 71
25 168 27 184 18 189 -4 3 -11 -2 -14 -10z m6 -305 c0 -6 -4 -13 -10 -16 -5
-3 -10 1 -10 9 0 9 5 16 10 16 6 0 10 -4 10 -9z"/>
<path d="M2880 2750 c-2 -30 -4 -83 -6 -118 -1 -35 -7 -76 -13 -90 -7 -18 -8
-38 -2 -57 l9 -30 1 39 c2 75 13 27 16 -67 1 -52 4 -98 7 -103 2 -5 4 -48 3
-96 -2 -72 1 -88 13 -88 11 0 12 -3 3 -14 -9 -10 -9 -20 0 -40 12 -25 28 -35
30 -18 9 71 8 94 -6 88 -12 -4 -14 0 -9 20 4 15 2 29 -4 33 -8 5 -7 15 3 35
19 35 19 46 1 46 -11 0 -14 20 -14 98 0 53 -1 104 -2 112 -1 8 1 49 5 90 4 48
3 71 -3 65 -6 -5 -12 -19 -15 -30 -3 -13 -5 -10 -6 11 -1 20 5 34 14 38 8 3
15 13 15 22 0 13 -3 14 -14 4 -13 -10 -16 -3 -19 47 l-3 58 -4 -55z"/>
<path d="M3077 2779 c-10 -37 -8 -67 4 -75 8 -5 10 3 7 24 -2 17 0 33 5 35 7
2 7 9 0 21 -9 17 -11 16 -16 -5z"/>
<path d="M8000 2788 c0 -22 10 -26 40 -17 21 6 22 7 5 8 -12 1 -26 6 -33 13
-9 9 -12 8 -12 -4z"/>
<path d="M2586 2771 c-4 -5 -2 -12 4 -16 15 -9 8 -56 -7 -51 -18 7 -16 -29 2
-44 12 -10 16 -9 22 6 19 51 1 141 -21 105z"/>
<path d="M2977 2728 c3 -18 10 -38 15 -45 5 -7 5 -14 -2 -18 -5 -3 -7 -17 -4
-31 8 -32 -19 -33 -34 -1 -6 12 -11 16 -11 9 -2 -24 19 -51 34 -46 9 4 15 1
15 -7 0 -10 3 -10 14 1 19 19 32 70 18 70 -6 0 -8 10 -4 22 3 14 2 19 -7 14
-7 -5 -13 3 -17 24 -4 17 -10 33 -15 36 -5 3 -6 -10 -2 -28z"/>
<path d="M6644 2752 c-12 -8 -33 -194 -40 -357 -5 -110 -23 -222 -50 -303 -17
-52 -5 -91 16 -52 7 13 16 49 21 79 4 31 13 80 18 110 10 52 14 89 27 276 8
98 9 106 18 126 11 26 3 130 -10 121z"/>
<path d="M7950 2740 c0 -11 5 -20 10 -20 6 0 10 9 10 20 0 11 -4 20 -10 20 -5
0 -10 -9 -10 -20z"/>
<path d="M2540 2735 c-7 -9 -11 -18 -8 -20 3 -3 11 1 18 10 7 9 11 18 8 20 -3
3 -11 -1 -18 -10z"/>
<path d="M2750 2726 c-13 -34 -13 -56 0 -56 10 0 25 68 16 77 -3 3 -10 -6 -16
-21z"/>
<path d="M2787 2703 c-4 -18 -4 -48 -1 -65 5 -32 5 -32 -11 -13 -17 19 -17 19
-10 -10 3 -16 16 -40 27 -52 16 -17 18 -25 9 -40 -10 -17 -10 -17 -11 0 0 9
-4 17 -10 17 -13 0 -13 -3 2 -35 22 -48 33 -22 30 70 -2 49 -6 105 -11 124
l-7 36 -7 -32z"/>
<path d="M2947 2700 c3 -11 9 -20 14 -20 11 0 11 3 3 24 -9 23 -23 20 -17 -4z"/>
<path d="M2670 2700 c0 -5 5 -10 10 -10 6 0 10 5 10 10 0 6 -4 10 -10 10 -5 0
-10 -4 -10 -10z"/>
<path d="M7913 2685 c-3 -9 -3 -18 0 -21 9 -9 27 6 27 22 0 19 -19 18 -27 -1z"/>
<path d="M3075 2658 c4 -13 12 -27 18 -33 7 -7 8 -4 3 8 -3 10 -6 25 -6 33 0
8 -5 14 -11 14 -6 0 -8 -9 -4 -22z"/>
<path d="M2529 2653 c-13 -16 -12 -17 4 -4 9 7 17 15 17 17 0 8 -8 3 -21 -13z"/>
<path d="M2670 2636 c0 -9 5 -16 10 -16 6 0 10 4 10 9 0 6 -4 13 -10 16 -5 3
-10 -1 -10 -9z"/>
<path d="M2560 2600 c0 -11 4 -20 9 -20 5 0 7 9 4 20 -3 11 -7 20 -9 20 -2 0
-4 -9 -4 -20z"/>
<path d="M2523 2593 c-3 -10 -8 -22 -11 -27 -3 -5 0 -6 5 -3 11 7 25 47 17 47
-3 0 -7 -8 -11 -17z"/>
<path d="M2706 2594 c-3 -9 -6 -31 -6 -50 0 -36 -8 -42 -28 -22 -9 9 -12 8
-12 -8 0 -11 11 -24 28 -31 l28 -13 -3 -97 c-4 -126 -6 -150 -16 -159 -5 -5
-6 48 -3 116 4 100 3 113 -5 65 -5 -33 -11 -105 -13 -160 -3 -55 -8 -137 -11
-183 -7 -79 1 -112 25 -112 9 0 21 56 25 120 1 25 3 47 5 50 1 3 4 30 5 60 2
30 5 66 8 80 2 14 7 44 11 66 4 23 3 44 -2 48 -5 3 -7 40 -4 83 4 74 3 77 -13
58 -15 -19 -16 -17 -12 43 3 66 3 71 -7 46z m4 -408 c0 -3 -4 -8 -10 -11 -5
-3 -10 -1 -10 4 0 6 5 11 10 11 6 0 10 -2 10 -4z m-19 -143 c-12 -20 -14 -14
-5 12 4 9 9 14 11 11 3 -2 0 -13 -6 -23z"/>
<path d="M3078 2604 c-7 -10 20 -80 27 -72 3 3 -1 22 -8 43 -8 21 -16 34 -19
29z"/>
<path d="M3020 2584 c0 -9 -9 -18 -20 -21 -12 -3 -20 -14 -20 -27 -1 -20 -2
-20 -14 -3 -18 23 -29 22 -16 -3 6 -11 17 -20 25 -20 10 0 15 -10 15 -31 0
-18 4 -28 10 -24 13 8 30 -37 19 -51 -9 -11 6 -283 17 -293 4 -3 4 27 0 67 -5
64 -4 73 10 70 9 -2 20 6 25 20 5 12 5 22 0 22 -5 0 -10 17 -10 38 -6 166 -18
272 -32 272 -5 0 -9 -7 -9 -16z m-10 -66 c0 -36 -4 -35 -14 5 -4 16 -2 27 4
27 5 0 10 -14 10 -32z"/>
<path d="M2737 2584 c-4 -4 -7 -14 -7 -23 0 -11 3 -12 11 -4 6 6 10 16 7 23
-2 6 -7 8 -11 4z"/>
<path d="M8122 2528 c6 -18 28 -21 28 -4 0 9 -7 16 -16 16 -9 0 -14 -5 -12
-12z"/>
<path d="M7692 2510 c-41 -9 -46 -15 -38 -36 5 -12 9 -14 20 -5 8 7 32 9 57 6
50 -5 75 5 66 29 -7 17 -48 20 -105 6z"/>
<path d="M2550 2501 c0 -6 5 -13 10 -16 6 -3 10 1 10 9 0 9 -4 16 -10 16 -5 0
-10 -4 -10 -9z"/>
<path d="M3091 2488 c-2 -27 10 -48 27 -48 14 0 14 2 0 18 -9 9 -18 24 -21 32
-4 12 -6 12 -6 -2z"/>
<path d="M8080 2490 c0 -5 7 -10 16 -10 8 0 12 -5 9 -10 -3 -6 1 -13 10 -17
10 -3 21 0 26 8 17 27 10 39 -26 39 -19 0 -35 -4 -35 -10z"/>
<path d="M2940 2478 c0 -15 24 -58 32 -58 8 0 1 17 -22 50 -5 8 -10 12 -10 8z"/>
<path d="M2781 2445 c0 -11 6 -31 14 -45 13 -22 14 -23 14 -5 0 11 -6 31 -14
45 -13 22 -14 23 -14 5z"/>
<path d="M6841 2442 c-10 -18 -8 -41 9 -120 11 -53 30 -114 40 -135 12 -22 20
-58 20 -87 0 -30 4 -50 11 -50 8 0 10 20 7 60 -2 33 -1 60 4 60 4 0 8 20 8 45
0 25 -4 45 -10 45 -5 0 -10 11 -10 24 0 14 -4 28 -10 31 -5 3 -10 21 -11 38 0
27 -2 29 -9 12 -8 -18 -9 -17 -11 8 -2 31 -2 34 -16 67 l-10 24 -12 -22z m46
-199 c-3 -10 -5 -4 -5 12 0 17 2 24 5 18 2 -7 2 -21 0 -30z"/>
<path d="M2862 2430 c0 -14 2 -19 5 -12 2 6 2 18 0 25 -3 6 -5 1 -5 -13z"/>
<path d="M6798 2436 c-9 -7 -26 -35 -36 -62 -27 -67 -71 -252 -70 -290 1 -17
-2 -36 -6 -42 -7 -12 3 -42 15 -42 5 0 9 24 9 53 0 97 47 282 71 282 8 0 15 8
17 18 2 9 -2 17 -8 17 -7 0 -4 14 9 36 24 41 24 48 -1 30z"/>
<path d="M7435 2439 c-11 -16 -2 -19 39 -12 26 4 33 9 24 14 -18 12 -56 11
-63 -2z"/>
<path d="M2641 2425 c-1 -24 14 -50 22 -38 3 4 -1 19 -9 33 -12 22 -13 23 -13
5z"/>
<path d="M3140 2417 c0 -15 6 -71 14 -125 8 -53 13 -130 11 -170 -3 -64 -6
-76 -30 -98 -21 -20 -30 -22 -41 -13 -11 9 -14 7 -14 -10 0 -12 6 -24 14 -27
20 -8 64 23 80 55 15 31 13 143 -4 261 -7 47 -13 97 -14 112 -1 35 -16 49 -16
15z"/>
<path d="M2858 2239 c-3 -180 8 -259 40 -292 l22 -21 44 21 c29 15 47 31 53
50 10 30 1 90 -10 63 -4 -8 -6 -22 -5 -30 3 -34 -3 -50 -24 -61 -17 -9 -24 -9
-33 4 -9 13 -14 14 -23 5 -35 -35 -51 48 -51 257 0 86 -2 160 -5 162 -3 3 -6
-68 -8 -158z"/>
<path d="M6150 2374 c0 -9 5 -14 12 -12 18 6 21 28 4 28 -9 0 -16 -7 -16 -16z"/>
<path d="M3100 2368 c0 -9 5 -20 11 -23 17 -11 18 -2 3 19 -12 17 -14 17 -14
4z"/>
<path d="M2780 2364 c0 -4 7 -16 17 -26 9 -11 11 -18 5 -18 -16 0 -15 -45 1
-70 9 -16 9 -22 0 -28 -16 -10 -14 -89 3 -103 16 -13 19 -54 4 -44 -16 10 -12
-21 5 -35 23 -19 18 -31 -10 -24 -31 8 -32 -2 -2 -27 19 -16 20 -20 7 -29 -20
-13 -53 -13 -67 1 -6 6 -16 8 -23 4 -19 -12 21 -34 62 -35 26 0 40 5 46 18 12
24 14 294 1 287 -5 -4 -9 19 -9 54 0 50 -3 62 -20 71 -11 6 -20 8 -20 4z"/>
<path d="M2960 2365 c0 -5 5 -17 10 -25 5 -8 10 -10 10 -5 0 6 -5 17 -10 25
-5 8 -10 11 -10 5z"/>
<path d="M7630 2342 c-24 -20 -20 -45 5 -35 8 3 15 0 15 -6 0 -20 15 -11 27
16 10 21 10 28 0 35 -17 11 -22 10 -47 -10z"/>
<path d="M7908 2323 c-25 -27 -32 -43 -29 -70 2 -24 21 -13 21 12 0 35 50 61
82 43 13 -7 26 -17 30 -23 11 -15 32 11 25 29 -4 9 -15 16 -26 16 -11 0 -23 5
-26 10 -12 19 -51 10 -77 -17z"/>
<path d="M2632 2309 c1 -12 8 -24 15 -26 7 -3 9 3 6 17 -8 29 -25 37 -21 9z"/>
<path d="M6073 2313 c-19 -7 -15 -33 5 -33 18 1 52 22 52 34 0 7 -39 7 -57 -1z"/>
<path d="M2960 2293 c0 -5 9 -18 20 -28 11 -10 20 -15 20 -11 0 4 -9 16 -20
28 -11 12 -20 17 -20 11z"/>
<path d="M3100 2292 c0 -5 7 -15 15 -22 8 -7 15 -8 15 -2 0 5 -7 15 -15 22 -8
7 -15 8 -15 2z"/>
<path d="M2511 2273 c-1 -12 4 -25 9 -28 12 -7 12 2 0 30 -8 19 -9 19 -9 -2z"/>
<path d="M6348 2265 c-61 -41 -65 -60 -4 -24 20 11 41 22 48 23 19 2 25 20 8
23 -8 1 -32 -9 -52 -22z"/>
<path d="M8044 2268 c-9 -14 25 -40 46 -36 8 2 15 10 15 17 0 18 -52 34 -61
19z"/>
<path d="M7695 2235 c-20 -9 -36 -10 -48 -3 -23 12 -90 -21 -96 -47 -2 -13 1
-16 14 -11 9 3 26 6 36 6 11 0 17 5 14 10 -11 18 24 23 41 6 8 -9 20 -14 25
-11 14 9 11 17 -3 10 -7 -4 -4 1 6 9 22 18 38 20 52 7 5 -5 20 -11 34 -13 36
-5 38 -37 4 -66 l-29 -24 30 7 c87 19 85 19 83 -5 -4 -28 17 -38 26 -13 8 19
-24 53 -49 53 -8 0 -15 10 -17 23 -2 13 -15 28 -35 37 -18 8 -33 21 -33 28 0
15 -16 14 -55 -3z"/>
<path d="M3061 2216 c-8 -14 -12 -29 -8 -32 7 -7 29 34 25 47 -2 6 -10 -1 -17
-15z"/>
<path d="M7465 2231 c-6 -11 9 -23 19 -14 9 9 7 23 -3 23 -6 0 -12 -4 -16 -9z"/>
<path d="M5985 2225 c-5 -2 -31 -6 -57 -10 -28 -4 -48 -11 -48 -19 0 -9 15
-10 65 -2 43 6 65 14 65 23 0 13 -5 15 -25 8z"/>
<path d="M2620 2208 c0 -9 5 -20 10 -23 13 -8 13 5 0 25 -8 13 -10 13 -10 -2z"/>
<path d="M2970 2201 c0 -13 29 -41 42 -41 7 0 1 11 -12 25 -26 27 -30 30 -30
16z"/>
<path d="M6475 2180 c19 -21 65 -28 65 -10 0 6 -9 10 -19 10 -11 0 -23 5 -26
10 -3 6 -13 10 -22 10 -14 0 -14 -3 2 -20z"/>
<path d="M7285 2170 c-9 -16 -13 -30 -11 -30 3 0 12 14 21 30 9 17 13 30 11
30 -3 0 -12 -13 -21 -30z"/>
<path d="M2501 2164 c0 -11 3 -14 6 -6 3 7 2 16 -1 19 -3 4 -6 -2 -5 -13z"/>
<path d="M3060 2161 c-7 -15 -7 -21 0 -21 12 0 25 28 17 36 -3 3 -10 -4 -17
-15z"/>
<path d="M6951 2148 c-1 -21 4 -38 9 -38 11 0 11 14 0 50 -7 22 -8 21 -9 -12z"/>
<path d="M3120 2151 c0 -5 5 -13 10 -16 6 -3 10 -2 10 4 0 5 -4 13 -10 16 -5
3 -10 2 -10 -4z"/>
<path d="M7293 2123 c-26 -58 -26 -59 -11 -43 15 15 41 80 33 80 -3 0 -12 -17
-22 -37z"/>
<path d="M7520 2130 c0 -5 5 -10 10 -10 6 0 10 5 10 10 0 6 -4 10 -10 10 -5 0
-10 -4 -10 -10z"/>
<path d="M3066 2114 c-9 -23 -2 -28 13 -10 7 8 8 17 3 20 -6 3 -13 -1 -16 -10z"/>
<path d="M6330 2120 c0 -5 18 -9 40 -7 52 3 52 17 0 17 -22 0 -40 -4 -40 -10z"/>
<path d="M7256 2113 c-6 -14 -5 -15 5 -6 7 7 10 15 7 18 -3 3 -9 -2 -12 -12z"/>
<path d="M2610 2113 c0 -4 5 -15 10 -23 8 -13 10 -13 10 2 0 9 -4 20 -10 23
-5 3 -10 3 -10 -2z"/>
<path d="M2980 2112 c0 -12 19 -26 26 -19 2 2 -2 10 -11 17 -9 8 -15 8 -15 2z"/>
<path d="M3120 2109 c0 -8 7 -24 15 -35 18 -24 19 -7 0 26 -9 16 -14 19 -15 9z"/>
<path d="M2487 2089 c4 -13 8 -18 11 -10 2 7 -1 18 -6 23 -8 8 -9 4 -5 -13z"/>
<path d="M6030 2089 c-11 -19 -10 -20 9 -10 27 15 36 31 17 31 -8 0 -20 -9
-26 -21z"/>
<path d="M6222 2090 c-19 -32 -13 -47 8 -20 11 14 20 28 20 33 0 14 -15 7 -28
-13z"/>
<path d="M7513 2091 c-8 -13 -29 -21 -62 -26 -66 -9 -70 -32 -6 -31 25 1 45 5
45 9 0 5 12 8 28 7 51 -4 62 -1 56 15 -4 8 -12 15 -20 15 -7 0 -17 7 -21 15
-7 12 -10 12 -20 -4z"/>
<path d="M2601 2053 c-1 -17 4 -35 9 -38 11 -7 11 9 0 45 -8 24 -8 24 -9 -7z"/>
<path d="M3062 2056 c-7 -16 -8 -26 -1 -26 12 0 22 25 17 41 -2 6 -9 0 -16
-15z"/>
<path d="M5936 2054 c-11 -8 -28 -14 -38 -14 -10 0 -18 -4 -18 -10 0 -17 36
-11 61 9 28 23 23 36 -5 15z"/>
<path d="M2931 2036 c-8 -9 -11 -19 -7 -23 9 -9 29 13 24 27 -2 8 -8 7 -17 -4z"/>
<path d="M6506 2021 c-4 -5 0 -11 6 -14 10 -3 9 -8 -2 -22 -14 -17 -13 -18 25
-10 22 4 52 8 68 9 61 5 67 6 67 16 0 6 -22 8 -54 5 -40 -3 -57 -1 -66 10 -14
17 -36 20 -44 6z"/>
<path d="M7033 2012 c-59 -4 -54 -22 5 -22 26 0 53 -5 59 -11 8 -8 13 -8 17 0
16 26 -14 38 -81 33z"/>
<path d="M6360 1995 c-7 -9 -10 -18 -7 -22 7 -7 65 15 73 28 9 16 -53 10 -66
-6z"/>
<path d="M6758 1998 c-21 -6 -38 -14 -38 -19 0 -12 22 -11 56 1 21 9 31 7 46
-7 16 -14 23 -15 38 -5 11 7 33 12 49 12 17 0 32 4 35 9 11 17 -25 21 -61 6
-32 -14 -38 -14 -53 0 -19 17 -20 17 -72 3z"/>
<path d="M5511 1972 c-60 -23 -65 -42 -9 -35 47 6 78 27 63 42 -6 6 -27 3 -54
-7z"/>
<path d="M7615 1974 c-22 -8 -41 -14 -42 -14 -2 0 -3 -5 -3 -11 0 -7 13 -9 38
-5 54 10 72 16 72 26 0 16 -27 18 -65 4z"/>
<path d="M7690 1976 c0 -18 35 -27 49 -13 18 18 12 27 -19 27 -19 0 -30 -5
-30 -14z"/>
<path d="M5920 1960 c0 -5 5 -10 11 -10 5 0 7 5 4 10 -3 6 -8 10 -11 10 -2 0
-4 -4 -4 -10z"/>
<path d="M5975 1950 c-3 -5 3 -10 14 -10 12 0 21 5 21 10 0 6 -6 10 -14 10 -8
0 -18 -4 -21 -10z"/>
<path d="M6098 1953 c-10 -2 -18 -8 -18 -13 0 -11 101 -1 115 11 9 9 -65 11
-97 2z"/>
<path d="M5711 1903 c-36 -18 -43 -39 -8 -26 12 4 42 8 67 9 68 1 75 3 65 13
-18 18 -91 20 -124 4z"/>
<path d="M7380 1889 c-36 -10 -83 -18 -104 -17 -45 3 -61 -18 -22 -28 15 -3
53 3 93 16 37 12 74 24 82 26 8 3 11 -1 7 -11 -3 -8 -1 -15 5 -15 5 0 12 7 16
16 3 9 12 13 22 8 28 -11 81 -15 81 -5 0 12 -56 31 -89 30 -14 0 -55 -9 -91
-20z"/>
<path d="M6830 1890 c0 -20 75 -27 100 -9 12 9 11 10 -7 6 -13 -3 -38 -1 -58
3 -19 4 -35 4 -35 0z"/>
<path d="M7573 1878 c2 -7 10 -13 17 -13 7 0 15 6 18 13 2 7 -5 12 -18 12 -13
0 -20 -5 -17 -12z"/>
<path d="M7147 1853 c-14 -13 -6 -23 18 -23 28 0 34 15 9 24 -19 7 -19 7 -27
-1z"/>
<path d="M6422 1839 c-35 -3 -68 -11 -74 -17 -7 -7 21 -9 93 -6 57 2 105 7
107 13 4 12 -52 17 -126 10z"/>
<path d="M6710 1810 c-8 -5 -11 -12 -8 -16 10 -9 38 3 38 16 0 12 -10 13 -30
0z"/>
<path d="M6053 1798 c2 -7 10 -13 17 -13 7 0 15 6 18 13 2 7 -5 12 -18 12 -13
0 -20 -5 -17 -12z"/>
<path d="M6140 1760 c0 -5 5 -10 10 -10 6 0 10 5 10 10 0 6 -4 10 -10 10 -5 0
-10 -4 -10 -10z"/>
<path d="M5663 998 c-6 -7 -17 -40 -26 -73 -8 -33 -29 -90 -46 -127 -17 -37
-31 -74 -31 -83 0 -8 -4 -23 -9 -33 -5 -9 -33 -64 -62 -122 -29 -58 -60 -117
-68 -131 -22 -38 -2 -59 54 -59 58 0 76 18 134 130 45 88 51 95 80 97 38 2 42
-5 70 -116 11 -46 23 -86 25 -89 12 -11 95 -13 115 -3 24 14 26 31 5 86 -16
45 -41 158 -49 225 -11 83 -34 218 -45 259 -11 41 -11 41 -60 41 -26 0 -55 2
-63 5 -7 3 -18 0 -24 -7z m86 -28 c24 0 30 -6 39 -37 6 -21 14 -76 17 -123 8
-98 37 -245 66 -327 25 -73 25 -74 -13 -66 -44 8 -46 10 -65 83 -26 104 -41
124 -96 128 -53 4 -52 5 -123 -135 -21 -43 -43 -81 -47 -84 -9 -6 -67 -2 -75
5 -2 2 14 31 35 63 41 63 117 213 128 253 0 3 19 60 40 128 29 87 44 121 53
117 8 -3 26 -5 41 -5z"/>
<path d="M5702 860 c-6 -11 -12 -29 -12 -40 0 -11 -9 -42 -19 -70 -11 -27 -16
-52 -11 -55 4 -3 31 -4 60 -4 51 2 52 2 46 28 -3 14 -9 51 -12 81 -9 77 -28
98 -52 60z m32 -81 c5 -47 3 -58 -10 -63 -23 -9 -35 2 -28 28 9 36 12 59 13
86 2 42 18 8 25 -51z"/>
<path d="M1852 984 c-45 -20 -90 -72 -97 -115 -9 -54 27 -124 84 -163 86 -59
112 -88 118 -132 4 -35 2 -44 -18 -58 -13 -9 -36 -16 -51 -16 -29 0 -78 19
-78 30 0 4 -12 12 -26 19 -65 29 -103 -57 -46 -105 36 -32 123 -64 174 -64 95
0 170 83 166 185 -3 80 -27 123 -107 189 -76 64 -88 84 -71 116 13 25 20 25
65 -1 33 -20 37 -20 60 -5 31 20 33 60 4 84 -11 9 -30 25 -41 35 -25 21 -89
21 -136 1z m127 -31 c34 -20 49 -49 33 -65 -7 -7 -20 -3 -39 12 -36 26 -74 20
-102 -16 -26 -33 -18 -55 46 -116 122 -117 127 -126 121 -220 -5 -59 -10 -74
-34 -99 -25 -26 -34 -29 -90 -29 -48 0 -72 6 -109 26 -49 28 -61 44 -51 69 5
13 15 10 61 -16 88 -49 153 -29 176 54 14 55 -2 90 -65 138 -28 21 -64 48 -79
60 -31 24 -57 78 -57 118 0 27 33 66 75 89 30 17 79 14 114 -5z"/>
<path d="M1257 957 c-19 -16 -30 -37 -37 -74 -5 -29 -16 -66 -24 -81 -8 -15
-17 -46 -21 -67 -7 -43 -36 -125 -65 -190 -66 -144 -69 -155 -46 -174 33 -28
146 17 146 58 0 8 10 45 22 82 20 64 23 67 55 71 48 6 60 -23 63 -149 1 -62
108 -89 148 -38 21 27 19 54 -7 103 -6 11 -11 34 -11 50 0 15 -6 48 -14 73 -8
24 -24 89 -36 144 -40 177 -61 215 -120 215 -14 0 -37 -10 -53 -23z m85 -25
c13 -12 58 -173 79 -277 10 -55 28 -129 39 -165 11 -36 20 -70 20 -76 0 -6
-16 -11 -35 -12 -42 -2 -49 9 -65 105 -16 99 -26 109 -102 105 -32 -2 -60 -46
-84 -130 -9 -31 -21 -63 -26 -69 -9 -11 -88 -19 -88 -9 0 2 20 46 44 97 43 92
76 184 131 362 26 87 27 89 53 82 15 -3 30 -10 34 -13z"/>
<path d="M1289 838 c0 -2 -3 -15 -5 -30 -2 -14 -12 -51 -22 -80 -10 -30 -16
-60 -14 -66 6 -18 107 -15 122 3 10 12 8 24 -9 64 -11 28 -21 56 -21 65 0 22
-45 61 -51 44z m28 -54 c-3 -3 1 -24 9 -46 19 -55 18 -58 -16 -58 -30 0 -31 1
-24 38 7 40 21 72 31 72 3 0 4 -3 0 -6z"/>
<path d="M3534 890 c-48 -27 -53 -28 -74 -13 -13 9 -38 18 -56 20 -28 3 -34 0
-34 -15 0 -10 6 -24 12 -30 9 -9 13 -73 15 -233 2 -225 6 -249 42 -249 9 0 30
9 47 19 31 19 32 21 29 88 -12 268 -11 315 9 327 14 9 20 7 30 -8 32 -52 41
-59 64 -47 23 12 27 25 36 102 5 42 3 47 -20 58 -35 16 -43 14 -100 -19z m86
-55 c0 -30 -3 -55 -7 -55 -5 0 -16 14 -25 30 -20 34 -37 37 -76 13 -42 -27
-43 -32 -38 -118 10 -143 9 -286 -3 -298 -19 -19 -50 20 -46 57 3 17 5 114 6
215 1 134 4 180 12 172 16 -16 59 -13 85 5 21 14 62 31 85 33 4 1 7 -24 7 -54z"/>
<path d="M2695 889 c-49 -25 -65 -45 -65 -79 0 -52 41 -64 99 -29 32 19 34 19
47 2 45 -57 40 -64 -41 -60 -52 2 -59 0 -85 -30 -39 -43 -47 -102 -25 -191 30
-121 89 -144 169 -66 21 20 39 35 40 33 2 -2 10 -24 18 -49 18 -55 49 -76 100
-66 52 10 88 41 88 77 0 30 -3 33 -51 43 -40 9 -52 60 -41 171 13 139 0 176
-82 236 -49 36 -112 39 -171 8z m151 -40 c55 -44 66 -70 64 -153 -5 -188 -5
-195 16 -223 14 -18 32 -29 52 -31 56 -6 34 -48 -30 -58 -40 -7 -47 0 -81 81
-14 32 -29 61 -35 63 -5 1 -22 -18 -36 -43 -15 -25 -38 -52 -52 -61 -23 -16
-26 -16 -49 6 -16 15 -29 46 -39 90 -17 72 -13 120 11 159 14 22 19 23 83 18
81 -7 104 4 92 44 -9 33 -56 89 -75 89 -8 0 -26 -9 -40 -20 -32 -26 -54 -25
-62 1 -11 33 43 63 121 68 12 0 39 -13 60 -30z"/>
<path d="M2795 664 c-5 -1 -27 -5 -47 -9 -28 -4 -42 -13 -53 -35 -27 -53 -11
-160 24 -160 34 0 105 95 114 152 4 30 2 40 -11 47 -9 4 -21 7 -27 5z m11 -56
c-3 -17 -13 -39 -21 -48 -8 -9 -15 -21 -15 -27 0 -5 -11 -20 -24 -32 l-23 -22
-7 23 c-22 85 4 135 73 137 21 1 23 -2 17 -31z"/>
<path d="M3210 890 c-49 -12 -81 -15 -92 -9 -24 13 -56 11 -61 -3 -3 -10 -9
-10 -27 0 -14 9 -26 10 -32 4 -15 -15 -5 -46 17 -50 36 -7 63 -42 70 -90 4
-26 7 -112 6 -191 -2 -123 1 -146 15 -162 35 -39 87 -12 99 52 3 12 5 96 6
185 0 141 3 163 17 169 15 5 35 -10 44 -35 2 -4 18 -5 36 -3 32 5 32 6 32 60
0 62 -13 93 -38 92 -9 0 -51 -9 -92 -19z m106 -56 c8 -58 -5 -73 -34 -35 -20
27 -23 29 -61 19 l-39 -10 -1 -174 c-1 -184 -5 -224 -26 -224 -31 0 -38 29
-30 123 16 175 8 250 -32 297 l-25 31 26 -5 c14 -2 29 -7 34 -9 4 -3 37 3 72
13 103 28 108 27 116 -26z"/>
<path d="M4248 904 c-3 -3 -34 -12 -68 -20 -45 -10 -67 -11 -81 -3 -22 11 -75
4 -85 -12 -3 -6 1 -18 9 -27 8 -9 24 -36 36 -59 20 -39 21 -52 14 -155 -12
-190 -10 -249 8 -261 28 -18 74 9 88 51 19 57 26 270 11 332 -12 49 -11 54 6
67 26 19 38 11 45 -31 7 -46 26 -60 54 -42 28 18 34 119 9 147 -17 19 -36 24
-46 13z m38 -48 c8 -32 1 -81 -11 -81 -5 0 -12 16 -15 35 -4 30 -9 35 -36 38
-19 2 -40 -4 -54 -16 -24 -19 -24 -20 -11 -113 19 -141 -6 -328 -42 -316 -9 3
-11 51 -8 183 3 148 1 186 -13 218 -9 21 -16 41 -16 45 0 3 26 7 58 8 31 1 68
6 82 12 41 16 59 13 66 -13z"/>
<path d="M6771 900 c-64 -16 -89 -83 -44 -118 14 -10 21 -8 43 13 29 28 47 31
85 13 28 -13 44 -53 27 -70 -6 -6 -34 -13 -62 -16 -69 -6 -94 -37 -108 -131
-24 -162 42 -237 140 -160 37 30 40 31 53 13 8 -11 15 -24 15 -31 0 -6 14 -14
30 -18 17 -4 30 -11 30 -16 0 -5 5 -9 11 -9 5 0 8 4 5 9 -3 5 3 11 14 14 11 3
25 17 31 31 11 23 9 29 -10 50 -20 22 -22 31 -17 83 23 224 21 240 -41 310
-25 29 -35 33 -98 37 -38 3 -85 1 -104 -4z m142 -29 c14 -6 38 -26 53 -46 35
-46 41 -113 21 -215 -18 -84 -13 -126 15 -153 25 -25 17 -43 -18 -40 -38 3
-54 27 -54 80 0 32 -4 43 -15 43 -8 0 -15 -5 -15 -11 0 -19 -55 -79 -72 -79
-9 0 -20 -4 -23 -10 -12 -19 -35 -10 -50 20 -10 19 -15 57 -15 109 0 74 2 82
26 104 16 15 44 27 72 31 119 16 107 122 -16 140 -38 5 -44 3 -54 -19 -13 -28
-26 -32 -34 -10 -7 18 12 44 41 55 28 12 109 12 138 1z"/>
<path d="M6885 680 c-11 -12 -31 -20 -51 -20 -31 0 -33 -3 -48 -54 -19 -65
-20 -78 -4 -94 22 -22 44 -12 91 42 39 46 47 61 47 95 0 48 -11 57 -35 31z m5
-57 c0 -18 -61 -93 -75 -93 -8 0 1 85 11 101 3 5 18 9 35 9 21 0 29 -5 29 -17z"/>
<path d="M7483 895 c-68 -29 -85 -115 -23 -115 17 0 39 9 50 20 12 12 33 20
54 20 29 0 36 -5 44 -29 6 -16 8 -39 5 -50 -5 -19 -10 -20 -73 -15 -64 6 -68
5 -100 -23 -29 -26 -33 -36 -42 -113 -9 -77 -8 -90 10 -131 18 -40 25 -47 63
-57 31 -8 48 -8 63 1 12 6 24 10 29 9 4 -1 7 4 7 11 0 16 38 40 50 32 6 -4 10
-16 10 -28 0 -14 11 -28 28 -38 49 -28 150 11 152 58 0 6 -16 21 -36 32 l-36
21 7 109 c5 72 3 131 -5 178 -12 66 -15 72 -53 97 -34 21 -52 26 -107 26 -36
-1 -79 -7 -97 -15z m188 -43 c42 -46 55 -125 40 -243 -6 -53 -9 -103 -5 -113
3 -9 19 -23 35 -32 52 -26 33 -54 -37 -54 -36 0 -46 11 -48 53 -2 34 -38 33
-87 -2 -48 -35 -77 -39 -109 -13 -28 23 -37 70 -29 150 5 45 13 70 27 85 21
20 33 22 125 16 52 -4 71 17 62 69 -9 57 -25 74 -73 78 -33 3 -47 -2 -72 -23
-34 -28 -57 -21 -46 15 9 28 66 48 133 46 50 -2 61 -6 84 -32z"/>
<path d="M7492 654 c-19 -13 -22 -24 -22 -77 1 -88 27 -115 83 -86 55 28 66
48 61 107 -2 31 -10 59 -16 64 -22 13 -82 9 -106 -8z m87 -22 c15 -29 1 -101
-23 -117 -11 -8 -26 -15 -32 -15 -18 0 -36 63 -28 96 11 51 63 73 83 36z"/>
<path d="M6470 889 c-76 -22 -115 -27 -124 -18 -13 12 -36 11 -36 -1 0 -6 9
-20 19 -32 11 -11 22 -37 26 -57 6 -38 -2 -457 -9 -469 -4 -7 -10 -150 -7
-184 2 -30 65 -24 90 8 19 24 21 40 21 167 l0 140 23 -21 c34 -32 73 -28 123
13 57 47 68 85 69 225 0 96 -3 122 -20 154 -35 68 -99 96 -175 75z m107 -45
c41 -26 57 -72 56 -164 0 -198 -61 -287 -159 -235 -54 28 -54 27 -54 -129 0
-79 -3 -151 -6 -160 -8 -21 -30 -20 -38 1 -4 9 -2 122 5 252 11 241 10 382 -5
414 -6 13 -3 17 15 17 13 1 38 7 54 15 35 16 99 11 132 -11z"/>
<path d="M6470 813 c-14 -9 -27 -18 -29 -20 -3 -2 -4 -63 -3 -135 2 -144 5
-151 59 -161 39 -8 75 20 91 70 14 43 6 177 -13 213 -26 50 -63 62 -105 33z
m66 -21 c17 -10 25 -44 29 -116 6 -104 -13 -156 -55 -156 -34 0 -40 16 -46
132 -5 113 -5 116 17 132 26 18 38 20 55 8z"/>
<path d="M7070 891 c-38 -6 -47 -22 -16 -27 10 -1 25 -9 33 -16 27 -28 49
-270 33 -371 -6 -42 -5 -55 8 -69 23 -27 58 -22 81 10 18 26 20 44 19 202 0
135 3 174 13 181 25 16 39 9 52 -23 8 -18 21 -39 30 -46 14 -12 18 -9 31 16 8
16 16 48 18 71 2 35 -2 46 -22 62 -30 23 -32 23 -77 4 -44 -19 -80 -19 -113 0
-27 15 -35 16 -90 6z m134 -41 c23 -5 50 -4 65 1 39 15 81 2 81 -26 0 -29 -10
-55 -20 -55 -5 0 -14 16 -20 36 -10 30 -16 35 -34 29 -11 -4 -34 -10 -51 -14
l-29 -7 -1 -194 c0 -192 0 -195 -21 -198 -21 -3 -22 -1 -17 100 4 94 -11 248
-33 327 -7 22 -5 23 17 17 13 -4 42 -11 63 -16z"/>
<path d="M8715 891 c-33 -14 -57 -48 -65 -92 -15 -83 20 -134 112 -165 59 -19
74 -34 83 -81 16 -88 -66 -124 -131 -59 -42 42 -68 49 -90 25 -37 -41 13 -139
72 -139 11 0 24 -3 27 -7 11 -10 106 -10 104 1 -1 5 12 13 29 19 16 5 35 18
41 30 40 76 46 96 45 152 -1 56 -3 62 -38 93 -21 18 -62 44 -91 57 -52 25 -59
36 -47 69 9 23 32 20 66 -9 25 -21 33 -23 45 -13 42 35 31 100 -21 118 -34 12
-113 12 -141 1z m136 -38 c4 -4 4 -14 0 -22 -7 -11 -15 -11 -41 -3 -36 13 -66
0 -77 -33 -14 -41 1 -60 81 -100 22 -11 53 -37 70 -58 25 -31 30 -46 30 -90 0
-103 -65 -159 -165 -142 -46 8 -99 48 -99 76 0 22 25 26 37 5 13 -22 75 -54
105 -54 15 0 42 13 60 28 29 24 33 34 33 76 0 63 -26 98 -86 119 -64 22 -113
74 -111 120 2 45 17 74 45 85 26 10 105 6 118 -7z"/>
<path d="M6054 871 c-55 -33 -74 -67 -74 -130 0 -53 3 -60 38 -93 20 -20 53
-44 72 -53 50 -25 80 -55 80 -80 0 -24 -38 -65 -61 -65 -17 0 -59 36 -59 50 0
5 -9 14 -21 20 -33 18 -69 -11 -69 -56 0 -74 88 -123 184 -102 79 16 108 51
121 145 11 87 -43 173 -109 173 -27 0 -56 41 -56 81 0 50 27 61 57 23 19 -25
26 -27 50 -18 75 26 9 124 -84 124 -21 0 -52 -9 -69 -19z m119 -20 c24 -10 45
-46 33 -58 -3 -4 -16 3 -29 15 -30 29 -62 28 -92 -3 -55 -54 -28 -114 71 -159
62 -29 77 -52 78 -126 1 -44 -4 -62 -22 -85 -29 -37 -44 -43 -103 -44 -51 -1
-111 31 -117 62 -6 29 26 32 52 4 60 -64 143 -33 162 60 5 25 1 35 -23 57 -15
15 -49 38 -75 51 -62 33 -88 67 -88 119 1 22 6 51 14 64 24 44 86 63 139 43z"/>
<path d="M7888 860 c-48 -30 -56 -43 -60 -95 -3 -59 18 -98 65 -117 23 -10 48
-18 55 -18 18 0 14 -20 -5 -27 -33 -11 -53 -36 -53 -63 0 -34 28 -70 55 -72
11 -1 41 2 66 6 55 8 72 -6 63 -52 -8 -38 -36 -70 -72 -78 -15 -4 -31 -10 -37
-14 -5 -4 -32 -11 -58 -14 -37 -6 -54 -4 -73 9 -37 24 -78 16 -82 -16 -4 -31
16 -49 87 -77 65 -27 105 -28 139 -4 15 10 46 24 69 30 76 22 131 101 132 189
2 83 -46 130 -119 118 -23 -4 -40 -3 -40 2 0 13 38 46 78 69 43 25 87 110 77
152 -8 37 -27 55 -85 81 -68 31 -144 28 -202 -9z m207 -23 c5 -7 18 -16 28
-20 41 -16 2 -141 -53 -169 -29 -14 -90 -74 -90 -89 0 -9 20 -13 53 -9 64 6
117 -45 117 -113 0 -36 -45 -108 -84 -137 -40 -29 -139 -61 -171 -55 -49 10
-105 37 -105 52 0 16 32 17 48 1 31 -31 202 20 240 72 32 43 37 91 13 117 -19
20 -28 22 -85 16 -64 -6 -64 -6 -80 26 -16 30 -16 32 6 40 32 12 60 46 56 67
-1 10 -19 22 -38 28 -63 20 -90 51 -90 104 0 34 22 56 76 77 46 17 143 13 159
-8z"/>
<path d="M7938 803 c-35 -41 -25 -80 22 -89 97 -17 96 -17 119 11 27 35 26 40
-4 70 -31 31 -113 36 -137 8z m121 -32 c13 -24 -6 -42 -47 -43 -36 -1 -52 8
-52 31 0 26 9 31 51 31 27 0 41 -5 48 -19z"/>
<path d="M8224 875 c-4 -10 1 -22 12 -30 18 -12 19 -27 16 -195 l-4 -182 41
-37 c36 -33 45 -37 88 -35 26 1 56 4 66 6 27 6 95 78 95 101 1 12 5 60 11 107
21 170 24 262 10 271 -28 17 -58 9 -80 -22 -19 -28 -22 -44 -23 -163 -2 -150
-14 -186 -63 -186 l-26 0 7 118 c4 68 3 130 -3 147 -5 17 -12 42 -15 56 -7 35
-52 65 -71 49 -10 -8 -19 -8 -35 0 -16 9 -21 8 -26 -5z m121 -123 c4 -32 2
-93 -4 -135 -13 -89 -4 -123 34 -133 14 -3 38 -1 54 5 33 14 69 75 64 111 -1
14 -4 68 -5 121 -3 99 6 129 40 129 13 0 14 -12 7 -77 -4 -43 -8 -115 -10
-160 -2 -83 -23 -138 -63 -170 -27 -22 -94 -16 -135 12 -36 25 -41 37 -39 95
1 14 1 83 1 153 0 71 4 133 7 139 14 22 42 -31 49 -90z"/>
<path d="M3757 861 c-83 -54 -121 -212 -83 -340 30 -103 71 -141 149 -141 95
0 207 172 123 188 -10 2 -40 -15 -67 -38 -33 -28 -55 -39 -67 -35 -19 5 -46
71 -36 87 3 4 36 8 75 8 75 0 99 14 119 66 27 69 -6 181 -61 209 -40 21 -118
19 -152 -4z m156 -37 c31 -37 43 -92 33 -148 -10 -54 -28 -66 -100 -66 -81 0
-100 -13 -91 -63 9 -44 40 -87 64 -87 9 0 39 20 66 44 71 64 88 46 35 -37 -29
-45 -31 -47 -78 -47 -67 0 -103 34 -127 118 -28 97 -23 179 16 258 24 49 48
63 109 63 39 0 49 -5 73 -35z"/>
<path d="M3784 776 c-29 -29 -35 -42 -32 -68 3 -33 3 -33 64 -36 50 -2 63 1
79 18 16 18 17 25 6 60 -13 43 -14 44 -54 54 -24 6 -34 1 -63 -28z m86 -15
c20 -38 12 -58 -25 -65 -33 -7 -79 7 -72 22 25 55 32 62 58 62 18 0 32 -7 39
-19z"/>
<path d="M8130 870 c0 -5 5 -10 10 -10 6 0 10 5 10 10 0 6 -4 10 -10 10 -5 0
-10 -4 -10 -10z"/>
<path d="M2395 850 c-47 -24 -55 -25 -55 -5 0 20 -44 20 -64 -1 -10 -9 -24
-13 -36 -9 -32 10 -44 -4 -23 -27 20 -22 20 -54 12 -548 l-4 -225 29 -14 c26
-12 33 -12 55 0 41 23 54 78 55 220 l1 127 55 4 c122 9 153 52 158 225 5 141
-11 199 -66 236 -54 37 -73 39 -117 17z m91 -53 c46 -42 68 -135 58 -247 -11
-126 -47 -164 -142 -149 -26 4 -51 3 -56 -1 -4 -5 -8 -59 -7 -122 2 -128 -9
-203 -34 -227 -15 -15 -17 -15 -31 4 -13 17 -14 56 -8 260 3 132 7 299 9 370
2 114 4 130 20 133 9 2 22 -1 28 -7 16 -16 52 -14 67 4 20 24 58 17 96 -18z"/>
<path d="M2380 747 c-24 -12 -25 -15 -27 -135 -2 -131 5 -152 50 -152 57 0 97
61 97 148 0 83 -15 121 -56 138 -40 17 -33 17 -64 1z m70 -37 c15 -15 20 -33
20 -79 0 -87 -9 -121 -37 -134 -14 -6 -27 -7 -32 -1 -10 10 -22 220 -13 228
12 12 43 5 62 -14z"/>
<path d="M9012 504 c-17 -12 -22 -25 -22 -60 l0 -44 43 0 c52 0 67 13 67 60 0
58 -40 78 -88 44z m53 -35 c8 -25 -7 -44 -28 -36 -10 3 -13 14 -10 31 6 31 29
34 38 5z"/>
<path d="M4250 455 c-7 -9 -14 -31 -16 -51 -2 -30 2 -37 23 -45 25 -9 43 -5
43 10 0 5 -9 11 -20 14 -26 7 -25 21 3 47 l22 21 3 -35 c4 -46 28 -48 35 -3 2
17 2 38 0 45 -7 17 -78 15 -93 -3z"/>
<path d="M9018 383 c7 -3 16 -2 19 1 4 3 -2 6 -13 5 -11 0 -14 -3 -6 -6z"/>
</g>
</svg>
