<?xml version="1.0" standalone="no"?>
<!DOCTYPE svg PUBLIC "-//W3C//DTD SVG 20010904//EN"
 "http://www.w3.org/TR/2001/REC-SVG-20010904/DTD/svg10.dtd">
<svg version="1.0" xmlns="http://www.w3.org/2000/svg"
 width="1000.000000pt" height="519.000000pt" viewBox="0 0 1000.000000 519.000000"
 preserveAspectRatio="xMidYMid meet">
<metadata>
Created by potrace 1.16, written by Peter Selinger 2001-2019
</metadata>
<g transform="translate(0.000000,519.000000) scale(0.100000,-0.100000)"
fill="#000000" stroke="none">
<path d="M2714 5063 c-82 -24 -142 -76 -187 -163 -21 -41 -44 -82 -51 -90 -49
-61 -62 -190 -26 -267 10 -24 24 -43 29 -43 12 0 -21 -96 -39 -114 -8 -8 -12
-4 -16 11 -4 15 -11 19 -27 16 -22 -5 -22 -5 -2 10 11 9 15 17 8 17 -7 0 -10
7 -6 15 3 9 2 15 -3 14 -5 -1 -22 -1 -39 0 -23 1 -26 4 -15 11 8 5 12 10 10
12 -42 27 -84 40 -113 35 -22 -3 -45 0 -63 10 -69 37 -162 34 -248 -6 -252
-119 -281 -128 -303 -92 -7 11 -35 32 -63 48 -40 22 -59 43 -96 103 -62 103
-122 139 -188 114 -22 -9 -20 -61 4 -109 55 -109 78 -188 77 -273 -1 -75 2
-85 24 -108 14 -13 41 -27 61 -30 51 -9 88 28 88 86 0 22 1 40 3 40 1 0 31 -9
65 -20 35 -11 83 -20 105 -20 43 0 131 23 151 39 6 4 37 23 69 40 78 43 166
52 223 23 22 -11 47 -28 55 -38 21 -25 86 -64 108 -64 10 0 24 -7 31 -15 18
-21 40 -19 40 4 0 16 -13 24 -59 37 -41 11 -76 30 -110 59 -53 45 -106 68
-153 67 -17 0 -28 5 -28 13 0 15 80 27 95 14 5 -5 17 -9 26 -9 17 0 137 -77
175 -111 30 -28 77 -23 80 9 2 27 4 32 14 32 15 0 12 -18 -9 -64 -36 -78 -48
-111 -67 -183 -18 -72 -18 -73 3 -95 12 -13 23 -38 25 -57 4 -44 18 -48 57
-15 30 25 32 25 56 10 14 -9 25 -23 25 -30 0 -31 27 -38 66 -16 21 11 44 20
50 20 13 0 39 59 49 112 5 29 3 38 -12 47 -16 11 -15 11 5 6 13 -4 46 -21 73
-38 37 -23 62 -31 98 -31 46 -1 50 -3 61 -34 11 -33 6 -92 -10 -92 -4 0 -11
10 -15 23 -9 30 -19 4 -11 -28 8 -30 19 -31 45 -4 l19 21 16 -59 c9 -32 25
-75 36 -95 l20 -38 -29 6 c-66 13 -137 -65 -162 -179 -21 -97 15 -301 72 -410
20 -36 103 -122 174 -178 86 -68 107 -94 180 -216 85 -142 93 -153 114 -153
33 0 46 44 33 109 -7 31 -12 70 -12 85 0 15 -4 36 -10 46 -12 22 -3 50 16 50
17 0 18 16 3 26 -8 4 -10 28 -6 69 5 48 2 75 -13 114 -10 28 -16 60 -13 70 3
11 -2 34 -11 52 -9 18 -16 41 -16 52 0 25 -49 124 -72 149 -10 10 -18 22 -18
26 0 5 -11 14 -25 20 -14 6 -25 17 -25 23 0 6 -20 39 -44 73 -43 60 -81 136
-69 136 4 0 -2 9 -14 19 -11 10 -32 50 -47 87 -15 38 -41 101 -57 139 -16 39
-29 73 -29 78 0 4 11 5 25 3 14 -3 51 0 83 5 81 15 207 11 253 -8 49 -19 67
-52 78 -142 5 -37 13 -77 19 -87 6 -10 45 -52 87 -91 l76 -73 -2 -89 c-1 -77
2 -95 22 -132 25 -44 53 -68 65 -56 13 13 25 100 30 220 l5 117 -74 73 c-73
71 -75 75 -82 133 -11 94 -32 155 -72 208 -67 87 -121 111 -209 95 -60 -11
-136 -15 -149 -8 -28 17 -67 18 -96 3 -20 -10 -28 -11 -24 -3 6 9 2 11 -15 6
-21 -5 -22 -4 -17 39 2 24 16 67 31 96 14 29 42 105 61 168 19 63 41 133 49
155 21 57 19 108 -8 207 -34 124 -81 177 -182 203 -69 18 -92 18 -160 -2z
m146 -28 c24 -8 62 -31 86 -50 35 -29 47 -49 69 -113 27 -77 45 -191 27 -163
-8 11 -12 10 -21 -7 -14 -26 -15 -54 -1 -32 19 31 19 1 0 -56 -12 -32 -30 -86
-40 -119 -31 -94 -31 -93 -40 -70 -7 19 -8 19 -15 1 -5 -11 -3 -21 5 -26 11
-7 8 -21 -13 -72 -15 -35 -27 -68 -27 -75 0 -6 -13 -18 -29 -26 -26 -13 -29
-13 -24 1 5 12 2 14 -13 8 -10 -5 -28 -11 -39 -14 -18 -5 -19 -4 -5 13 14 17
13 18 -12 12 -35 -9 -39 0 -22 48 41 115 38 164 -12 236 -26 37 -50 45 -37 12
4 -10 2 -14 -4 -10 -5 3 -17 -3 -26 -13 -15 -18 -15 -25 -3 -74 17 -63 38
-106 43 -89 3 7 -1 21 -7 32 -9 17 -8 20 6 14 14 -5 16 -2 11 18 -13 55 -19
99 -13 99 9 0 46 -81 46 -101 0 -9 -14 -47 -31 -85 -31 -67 -31 -68 -45 -44
-16 30 -20 65 -4 40 5 -8 11 -12 14 -9 8 7 -45 152 -58 161 -15 10 44 80 85
100 44 22 76 24 60 4 -9 -11 -9 -16 -1 -21 7 -4 10 -17 8 -29 -3 -14 5 -32 22
-50 33 -34 68 -30 116 13 38 35 47 53 51 116 4 67 -12 105 -48 112 -25 5 -28
9 -23 32 4 14 12 35 19 46 7 11 14 35 17 53 6 40 -12 58 -41 42 -24 -12 -28
-40 -6 -40 19 0 19 4 -5 -65 -23 -67 -72 -135 -114 -161 -29 -17 -29 -17 -23
5 4 17 -8 10 -53 -29 -52 -45 -58 -48 -58 -28 1 13 -5 58 -12 100 -11 66 -10
92 4 173 21 126 37 163 73 170 15 4 37 10 48 15 31 13 68 12 115 -5z m-269
-183 c-19 -48 -22 -140 -5 -185 32 -85 31 -90 -24 -120 -27 -15 -57 -27 -66
-27 -21 0 -21 24 1 41 31 26 53 91 53 161 0 51 -4 69 -16 76 -13 8 -13 13 8
45 13 20 29 36 36 37 7 0 10 5 7 10 -3 6 -3 16 2 23 13 20 16 -31 4 -61z m-71
-199 c-10 -15 -11 -14 -6 7 3 14 7 43 8 65 2 39 2 39 5 -7 2 -26 -1 -56 -7
-65z m403 50 c14 -17 13 -18 -30 -18 -44 -1 -45 0 -23 17 28 22 33 22 53 1z
m-1541 -53 c20 -16 47 -51 59 -77 24 -51 131 -163 154 -163 8 0 18 -6 22 -14
24 -41 151 -46 202 -8 17 12 37 22 45 22 8 0 38 13 66 30 27 16 57 27 65 24
17 -7 20 -24 5 -24 -5 0 -10 -7 -10 -15 0 -8 -7 -15 -15 -15 -9 0 -50 -20 -93
-45 -122 -71 -206 -79 -328 -34 -44 17 -55 27 -72 62 -26 54 -49 84 -57 75 -4
-3 1 -20 10 -37 9 -17 11 -31 5 -31 -5 0 -10 -5 -10 -12 0 -20 44 -128 52
-128 11 0 10 17 -4 43 -23 45 -28 57 -28 67 0 6 5 8 10 5 15 -9 41 -76 42
-107 1 -26 -16 -58 -31 -58 -7 0 -26 59 -37 114 l-7 40 -25 -30 -25 -29 7 30
c15 58 16 125 2 125 -20 0 -52 78 -38 92 19 19 14 41 -18 77 -51 55 -10 72 52
21z m1446 -15 c-6 -14 -13 -23 -16 -21 -7 7 9 46 18 46 5 0 4 -11 -2 -25z m44
-55 c-13 -35 -21 -10 -9 30 8 27 12 30 14 15 2 -12 0 -32 -5 -45z m-372 15
c-7 -8 -17 -15 -23 -15 -5 0 -2 9 8 20 21 23 35 19 15 -5z m307 -42 c-3 -10
-5 -2 -5 17 0 19 2 27 5 18 2 -10 2 -26 0 -35z m-692 -33 c-4 -6 -21 -10 -38
-9 -34 1 -169 -50 -268 -102 -20 -10 -50 -19 -65 -19 -22 0 -7 11 67 48 53 26
111 54 130 62 59 25 186 40 174 20z m475 5 c0 -2 -13 -11 -30 -20 -16 -9 -30
-12 -30 -7 0 5 10 14 23 20 25 12 37 14 37 7z m272 -19 c9 0 14 -4 12 -8 -9
-14 -41 -9 -55 9 -12 15 -12 16 6 8 11 -4 28 -8 37 -9z m-173 -56 l-1 -25 -8
25 c-4 14 -8 32 -9 40 -1 13 0 13 9 0 5 -8 9 -26 9 -40z m-475 26 c-3 -8 -13
-17 -22 -21 -13 -5 -13 -2 3 15 21 24 26 25 19 6z m366 4 c0 -5 -2 -10 -4 -10
-3 0 -8 5 -11 10 -3 6 -1 10 4 10 6 0 11 -4 11 -10z m-343 -25 c-4 -8 -11 -15
-17 -15 -6 0 -6 7 2 20 14 22 24 19 15 -5z m393 -18 c0 -5 -4 -5 -10 -2 -5 3
-10 14 -10 23 0 15 2 15 10 2 5 -8 10 -19 10 -23z m-62 11 c-3 -7 -9 -12 -14
-11 -5 1 -15 -3 -22 -9 -7 -6 -15 -8 -18 -5 -3 3 7 12 23 21 35 19 36 19 31 4z
m-308 -23 c-7 -8 -17 -12 -23 -8 -6 4 -3 11 8 19 23 17 32 10 15 -11z m363
-37 c49 -156 48 -148 35 -184 -7 -19 -16 -34 -20 -34 -10 0 -9 18 1 45 8 20
-24 161 -40 179 -15 16 -21 -1 -9 -24 6 -11 9 -29 7 -38 -3 -13 -7 -11 -15 11
-13 31 -27 37 -19 7 3 -11 1 -18 -4 -14 -5 3 -9 12 -9 19 0 21 41 96 49 90 4
-2 15 -28 24 -57z m-333 32 c-12 -22 -1 -27 17 -9 6 6 16 8 22 5 6 -4 2 -15
-10 -27 l-21 -21 -21 21 c-21 21 -21 21 -2 36 26 19 28 19 15 -5z m90 16 c0
-2 -7 -6 -15 -10 -8 -3 -15 -1 -15 4 0 6 7 10 15 10 8 0 15 -2 15 -4z m279
-76 c0 -10 -3 -8 -9 5 -12 27 -12 43 0 25 5 -8 9 -22 9 -30z m-154 20 c-3 -5
-11 -10 -16 -10 -6 0 -7 5 -4 10 3 6 11 10 16 10 6 0 7 -4 4 -10z m-165 -10
c0 -5 -4 -10 -10 -10 -5 0 -10 5 -10 10 0 6 5 10 10 10 6 0 10 -4 10 -10z m50
1 c0 -13 -29 -35 -37 -28 -7 8 15 37 28 37 5 0 9 -4 9 -9z m132 -23 c-7 -7
-12 -8 -12 -2 0 14 12 26 19 19 2 -3 -1 -11 -7 -17z m-12 -28 c0 -5 -4 -10 -9
-10 -5 0 -18 -3 -28 -6 -16 -6 -16 -5 2 9 23 19 35 21 35 7z m58 -58 c13 -31
32 -73 42 -93 18 -36 18 -37 -7 -78 -13 -23 -30 -41 -36 -41 -7 0 -21 26 -32
58 -10 31 -25 70 -33 86 -11 23 -12 33 -1 52 7 13 15 24 19 24 8 0 41 -92 35
-98 -3 -3 -12 12 -21 34 -9 21 -19 33 -22 26 -5 -17 47 -162 59 -162 12 0 11
17 -1 41 -7 13 -7 19 0 19 5 0 10 -4 10 -10 0 -5 5 -10 10 -10 17 0 12 22 -25
105 -19 44 -35 86 -35 93 0 28 16 8 38 -46z m22 25 c0 -5 -4 -5 -10 -2 -5 3
-10 14 -10 23 0 15 2 15 10 2 5 -8 10 -19 10 -23z m-111 -19 c-7 -16 -19 -23
-39 -24 -17 -1 -30 0 -30 2 0 3 70 42 77 44 2 0 -2 -10 -8 -22z m-1041 -20 c9
-37 -7 -50 -33 -28 -19 16 -19 30 0 30 9 0 12 6 9 15 -4 8 -1 15 5 15 6 0 14
-15 19 -32z m1022 -23 c0 -17 -26 -55 -38 -55 -13 0 -13 3 1 18 10 10 17 24
17 30 0 7 5 12 10 12 6 0 10 -2 10 -5z m250 -30 c0 -20 92 -65 130 -65 17 0
41 -5 52 -11 32 -17 169 -2 175 20 9 34 208 54 263 26 28 -14 78 -71 113 -128
10 -15 24 -71 32 -125 l14 -97 62 -56 c40 -36 66 -70 75 -95 17 -49 17 -46 -5
-39 -27 8 -33 -6 -15 -39 17 -33 19 -60 2 -31 -7 11 -17 26 -24 33 -7 7 -11
18 -8 25 2 7 -12 32 -32 55 -28 33 -35 48 -30 68 6 22 5 23 -12 13 -16 -10
-24 -8 -45 7 -40 30 -59 71 -67 145 -9 84 -28 115 -85 140 -59 26 -181 35
-249 19 -84 -20 -252 -2 -305 33 -23 15 -49 28 -58 30 -40 6 -44 16 -23 58 20
38 40 45 40 14z m124 -30 c11 -8 15 -15 10 -15 -6 0 -19 7 -30 15 -10 8 -14
14 -9 14 6 0 19 -6 29 -14z m-404 -18 c0 -7 -9 -13 -21 -13 -19 0 -19 1 -3 13
10 7 19 13 21 13 2 0 3 -6 3 -13z m487 -3 c-3 -3 -12 -4 -19 -1 -8 3 -5 6 6 6
11 1 17 -2 13 -5z m46 -11 c-7 -2 -19 -2 -25 0 -7 3 -2 5 12 5 14 0 19 -2 13
-5z m-463 -47 c0 -5 -7 -1 -15 10 -8 10 -14 24 -14 29 0 6 6 1 14 -9 8 -11 15
-24 15 -30z m-85 15 c-3 -6 -14 -11 -23 -11 -13 0 -13 2 4 14 21 15 30 14 19
-3z m70 -57 c7 -28 7 -28 -8 -8 -9 11 -19 34 -22 50 -7 28 -7 28 8 8 9 -11 19
-34 22 -50z m-86 5 c-7 -14 -14 -18 -21 -11 -13 13 -2 32 18 32 12 0 13 -4 3
-21z m121 0 c0 -6 -4 -7 -10 -4 -5 3 -10 11 -10 16 0 6 5 7 10 4 6 -3 10 -11
10 -16z m-66 -14 c3 -8 1 -15 -4 -15 -6 0 -10 7 -10 15 0 8 2 15 4 15 2 0 6
-7 10 -15z m-18 -26 c8 -14 -11 -33 -25 -25 -11 7 -4 36 9 36 5 0 12 -5 16
-11z m591 -326 c13 -9 23 -23 23 -32 0 -20 36 -74 115 -171 92 -113 119 -158
117 -190 -1 -16 5 -35 14 -44 9 -10 13 -24 9 -36 -3 -11 2 -39 13 -64 31 -68
36 -102 17 -110 -12 -4 -14 -10 -5 -25 5 -11 10 -42 10 -69 0 -47 -1 -50 -27
-50 -19 0 -40 12 -66 39 -21 21 -42 39 -46 39 -5 0 -28 26 -52 58 -24 31 -55
71 -70 87 -55 60 -101 137 -125 209 l-14 41 5 -47 c2 -26 19 -76 36 -110 49
-96 235 -309 301 -342 25 -13 75 -132 80 -191 4 -55 -23 -60 -45 -8 -17 40
-57 112 -100 180 -15 23 -55 68 -89 100 -183 170 -214 205 -241 279 -51 133
-65 278 -35 374 30 97 102 131 175 83z m543 -160 c-11 -17 -11 -17 -6 0 3 10
6 24 7 30 0 9 2 9 5 0 3 -7 0 -20 -6 -30z m30 -13 c0 -5 -5 -10 -11 -10 -5 0
-7 5 -4 10 3 6 8 10 11 10 2 0 4 -4 4 -10z m20 -46 c0 -8 -4 -12 -10 -9 -5 3
-10 1 -10 -6 0 -7 -2 -10 -5 -7 -8 7 5 38 16 38 5 0 9 -7 9 -16z m-13 -76 c-3
-7 -5 -2 -5 12 0 14 2 19 5 13 2 -7 2 -19 0 -25z"/>
<path d="M2790 4997 c-10 -21 -11 -30 -2 -39 20 -20 36 5 24 39 l-9 28 -13
-28z"/>
<path d="M2712 4993 c-14 -26 -15 -33 -3 -52 8 -12 12 -13 25 -2 10 9 13 18 7
25 -5 6 -11 20 -13 31 -4 19 -4 19 -16 -2z"/>
<path d="M2880 4979 c0 -11 5 -17 10 -14 6 3 10 13 10 21 0 8 -4 14 -10 14 -5
0 -10 -9 -10 -21z"/>
<path d="M2653 4865 c-3 -9 -3 -18 0 -21 9 -9 27 6 27 22 0 19 -19 18 -27 -1z"/>
<path d="M2800 4857 c0 -27 13 -36 26 -16 3 6 -1 18 -10 27 -15 15 -16 14 -16
-11z"/>
<path d="M2706 4841 c-3 -5 1 -14 9 -21 12 -10 15 -10 15 3 0 19 -16 31 -24
18z"/>
<path d="M2664 4782 c-9 -13 -8 -20 2 -30 12 -11 14 -8 14 18 0 35 -1 36 -16
12z"/>
<path d="M2730 4745 c0 -16 16 -20 24 -6 3 5 -1 11 -9 15 -9 3 -15 0 -15 -9z"/>
<path d="M2850 4356 c0 -16 5 -26 15 -26 8 0 15 6 15 14 0 7 -7 19 -15 26 -13
11 -15 8 -15 -14z"/>
<path d="M1377 4594 c-15 -15 -6 -42 15 -48 30 -7 46 9 32 32 -12 19 -36 27
-47 16z"/>
<path d="M3300 4150 c14 -11 28 -20 33 -20 4 0 7 -5 7 -10 0 -6 15 -26 34 -45
19 -19 34 -44 34 -57 -1 -39 24 -148 32 -143 4 2 1 31 -6 62 -8 32 -16 73 -19
92 -6 45 -27 75 -77 111 -45 33 -78 41 -38 10z"/>
<path d="M3150 3447 c0 -16 40 -61 47 -53 6 6 -29 66 -39 66 -4 0 -8 -6 -8
-13z"/>
<path d="M3180 3322 c0 -10 79 -106 91 -110 17 -7 9 11 -28 65 -32 46 -63 69
-63 45z"/>
<path d="M3100 3291 c0 -23 77 -139 117 -178 39 -39 73 -55 73 -35 0 4 -22 26
-48 49 -27 23 -66 71 -88 107 -36 61 -54 80 -54 57z"/>
<path d="M3080 3201 c0 -16 22 -71 29 -71 4 0 15 -15 26 -32 19 -34 133 -148
147 -148 19 0 4 21 -68 96 -41 43 -86 98 -100 122 -26 42 -34 50 -34 33z"/>
<path d="M7261 4973 c-90 -33 -146 -81 -165 -141 -43 -136 -45 -283 -6 -437
11 -43 20 -81 20 -85 0 -4 -25 -6 -56 -5 -68 3 -106 34 -123 101 -14 54 -43
74 -72 48 -16 -14 -19 -15 -24 -2 -3 8 -5 19 -4 24 4 23 -3 32 -33 44 -18 7
-47 24 -65 37 -61 44 -221 18 -290 -49 -19 -18 -36 -32 -39 -30 -13 7 -28 -4
-91 -67 l-70 -70 -82 5 c-66 4 -95 11 -141 34 -32 16 -65 38 -72 47 -7 10 -21
23 -31 28 -10 6 -33 37 -50 70 -18 33 -36 60 -42 60 -5 0 -15 4 -22 8 -6 4
-15 3 -18 -3 -4 -6 -19 -9 -33 -8 -23 3 -27 -1 -30 -27 -1 -16 -7 -39 -11 -50
-23 -51 -22 -55 24 -83 25 -15 47 -34 50 -43 10 -30 73 -81 113 -90 22 -5 66
-24 98 -43 79 -46 165 -70 231 -63 54 6 70 16 241 152 28 22 54 35 73 35 41 0
138 -35 164 -60 12 -11 27 -20 34 -20 7 0 38 -20 69 -44 88 -68 117 -79 178
-72 l53 6 -16 -37 c-21 -52 -29 -197 -13 -263 l13 -53 -47 -43 c-25 -24 -49
-44 -54 -44 -11 0 -42 55 -42 73 0 9 -4 17 -10 19 -5 2 -11 20 -13 42 -3 21
-10 42 -17 46 -7 4 -11 14 -8 22 8 21 -12 42 -70 77 -45 26 -63 31 -118 31
-55 0 -71 -4 -99 -25 -38 -30 -110 -133 -163 -236 -47 -91 -117 -165 -208
-217 -173 -100 -303 -280 -336 -465 -9 -50 -8 -64 8 -98 13 -30 22 -39 38 -37
14 2 22 12 24 28 2 14 9 39 17 55 8 17 28 63 46 103 39 88 131 182 178 182 20
0 39 11 62 37 109 118 104 114 138 102 39 -14 39 -22 -2 -48 -68 -42 -99 -118
-58 -141 15 -7 23 -6 35 6 19 18 12 36 -9 27 -11 -3 -15 2 -15 19 0 23 55 88
76 88 17 0 36 40 25 54 -7 8 -6 21 5 41 33 63 -25 43 -112 -41 -91 -87 -124
-112 -165 -125 -42 -15 -69 -38 -126 -112 -63 -81 -113 -181 -113 -225 0 -51
-17 -28 -21 28 -6 95 18 171 88 275 7 11 28 43 46 70 37 54 117 128 175 161
103 57 137 85 193 160 33 43 62 90 66 104 10 41 94 161 127 182 17 10 42 17
55 14 14 -2 32 1 41 7 10 5 26 7 36 3 18 -7 18 -8 1 -17 -27 -16 -48 -65 -42
-100 7 -37 22 -69 34 -69 17 0 20 14 5 24 -26 19 -33 77 -15 109 14 26 20 28
54 24 41 -6 66 -29 67 -62 0 -12 5 -26 12 -33 6 -6 11 -32 11 -57 0 -25 4 -45
8 -45 4 0 15 -23 25 -51 11 -28 25 -54 31 -56 20 -8 15 -23 -7 -23 -24 0 -120
-92 -120 -115 0 -13 -26 -21 -54 -16 -5 1 -14 -6 -21 -17 -12 -17 -76 -52
-117 -66 -10 -3 -18 -14 -18 -25 0 -20 -25 -35 -41 -25 -5 3 -6 17 -3 31 8 28
-12 29 -29 1 -15 -23 -2 -46 29 -54 22 -6 32 -2 48 17 28 32 74 61 91 57 20
-4 -14 -77 -64 -137 -50 -60 -98 -147 -106 -193 -4 -20 -14 -39 -21 -42 -32
-12 -83 -169 -84 -258 0 -26 -6 -62 -14 -80 -25 -60 -36 -132 -32 -218 5 -108
12 -135 50 -188 32 -46 47 -43 23 5 -44 87 -59 222 -36 336 12 60 28 72 44 35
6 -12 15 -23 22 -26 8 -2 4 21 -11 65 -23 65 -24 72 -11 153 12 84 30 138 49
152 14 9 26 0 26 -19 0 -18 38 -73 51 -73 15 0 10 23 -11 50 -23 29 -27 111
-7 158 18 44 80 132 93 132 7 0 19 -16 28 -35 32 -67 42 -36 16 48 -21 65 62
207 120 207 12 0 19 4 16 9 -6 9 44 84 65 97 7 4 26 10 43 13 22 5 32 13 34
29 2 12 15 32 30 45 15 13 28 30 30 38 4 17 32 49 43 49 5 0 15 -21 23 -47 8
-27 24 -73 36 -103 12 -30 32 -84 45 -120 23 -67 45 -90 45 -47 0 28 39 81 96
129 89 77 131 119 144 145 8 15 25 39 37 52 21 22 23 22 29 5 3 -11 16 -44 29
-74 43 -106 47 -120 43 -150 -5 -33 5 -39 21 -12 9 15 13 14 35 -13 51 -62
103 -185 79 -185 -5 0 -25 19 -44 42 -81 99 -119 133 -136 122 -42 -26 -48
-61 -48 -264 0 -217 -1 -211 83 -340 37 -56 153 -179 207 -219 18 -14 35 -39
42 -64 26 -87 9 -247 -27 -267 -13 -7 -20 -27 -25 -68 -7 -64 -11 -72 -40 -88
-12 -7 -27 -35 -38 -75 -21 -71 -48 -115 -76 -124 -12 -4 -21 -19 -25 -45 -4
-28 -17 -49 -41 -71 -19 -18 -35 -40 -35 -49 0 -22 -26 -44 -44 -37 -7 3 -35
-10 -61 -29 -27 -19 -56 -34 -65 -34 -9 0 -25 -7 -36 -16 -37 -30 47 -6 95 27
24 17 56 33 69 35 14 3 29 7 33 10 7 4 18 -263 11 -279 -2 -4 -15 1 -30 12
-38 27 -93 57 -197 109 l-90 45 -145 -2 c-173 -2 -234 11 -362 77 -5 2 -8 -3
-8 -12 0 -13 -13 -16 -67 -16 -38 0 -106 -7 -153 -15 -124 -22 -334 -18 -548
11 -48 6 -52 5 -52 -14 0 -12 8 -22 23 -25 69 -17 295 -118 337 -152 15 -12
239 -122 318 -156 24 -11 51 -19 60 -19 9 0 30 -7 45 -15 15 -8 45 -17 65 -21
20 -4 48 -12 62 -19 23 -11 80 -23 256 -54 73 -13 290 -13 359 0 28 5 69 12
92 15 l42 6 11 -43 c43 -170 100 -279 183 -352 88 -75 130 -97 202 -104 64 -6
155 3 155 15 0 4 -37 6 -83 4 -117 -5 -171 17 -262 106 -52 51 -82 91 -116
158 -50 97 -76 181 -65 210 5 13 18 -13 44 -91 56 -163 106 -230 226 -301 72
-43 136 -53 186 -29 33 15 33 15 5 9 -62 -16 -117 -5 -175 34 -76 51 -132 101
-152 137 -42 72 -57 104 -78 168 -15 45 -20 71 -13 78 21 21 141 17 251 -8 95
-22 212 -54 251 -70 9 -4 11 -1 7 6 -13 20 -78 42 -236 77 -144 33 -162 35
-260 29 -57 -4 -127 -13 -155 -20 -115 -30 -296 -35 -410 -12 -44 9 -120 24
-169 32 -49 9 -103 23 -120 30 -17 8 -76 28 -131 45 -98 31 -411 180 -462 220
-14 11 -30 20 -35 20 -5 0 -33 11 -61 23 -29 13 -65 27 -82 32 -56 14 1 21 88
11 118 -14 375 -13 416 2 19 7 77 15 130 18 87 6 103 4 176 -21 67 -23 91 -26
147 -22 37 3 80 2 95 -2 15 -5 52 -5 82 -1 63 8 115 -5 208 -53 102 -52 264
-149 259 -155 -8 -7 -89 15 -199 54 -54 20 -103 33 -110 31 -7 -2 11 -11 38
-20 28 -9 77 -26 110 -38 76 -27 176 -48 168 -36 -7 11 27 1 82 -25 38 -17 25
-19 -32 -3 -10 3 -3 -2 16 -11 19 -8 59 -17 90 -18 66 -3 323 -90 401 -136 27
-16 50 -26 50 -22 0 17 -129 84 -210 108 -122 38 -260 84 -297 100 -17 8 -36
14 -42 14 -6 0 -26 8 -46 17 -26 12 -34 21 -28 32 4 9 8 96 10 194 1 98 5 182
7 185 2 4 9 25 16 47 7 22 26 53 42 68 36 36 68 98 68 131 0 14 10 33 23 43
33 26 44 50 52 115 4 31 13 59 20 62 29 11 47 70 46 146 0 41 -4 87 -7 103 -3
15 -1 27 4 27 11 0 92 -134 92 -151 0 -6 10 -20 23 -33 28 -28 52 -89 68 -173
15 -79 28 -82 18 -5 -10 83 -35 162 -69 216 -17 26 -30 52 -30 59 0 7 -10 28
-21 47 l-21 35 31 -29 c17 -17 31 -27 31 -23 0 11 -204 288 -242 328 -10 11
-18 24 -18 31 0 6 -6 19 -14 27 -19 22 -91 168 -104 211 -6 19 -16 72 -23 118
-13 96 -23 110 -14 20 11 -106 35 -190 77 -268 23 -41 48 -88 56 -105 8 -16
55 -83 104 -147 48 -64 88 -119 88 -122 0 -13 -230 225 -254 264 -16 25 -38
58 -50 75 -11 16 -30 51 -43 76 -21 45 -22 56 -17 221 4 147 7 175 21 186 9 6
19 12 22 11 3 -1 27 -25 54 -54 38 -42 48 -60 50 -93 1 -25 7 -42 14 -42 7 0
19 -13 28 -30 9 -16 18 -30 21 -30 2 0 -2 14 -11 30 -9 17 -11 30 -7 30 12 0
58 -70 64 -96 2 -10 9 -18 15 -17 18 4 97 -95 131 -163 17 -33 38 -89 47 -125
9 -35 19 -73 22 -84 13 -47 -16 4 -36 64 -32 94 -105 221 -118 207 -3 -3 5
-23 19 -43 14 -21 29 -49 33 -63 4 -14 11 -30 16 -36 19 -24 81 -224 94 -303
8 -46 17 -86 21 -90 3 -3 4 12 0 34 -3 22 -8 64 -12 94 -3 30 -10 65 -15 78
-16 43 7 23 30 -24 28 -61 40 -140 35 -226 -3 -62 8 -127 42 -252 3 -11 9
-141 14 -290 7 -246 21 -398 39 -418 4 -4 4 19 0 50 -15 110 -28 379 -24 488
3 97 0 124 -26 225 -26 98 -30 129 -26 205 4 81 1 102 -31 210 -20 66 -39 122
-43 125 -4 3 -10 31 -13 64 -4 32 -16 75 -27 95 -10 19 -19 43 -19 51 0 8 -10
31 -21 50 -15 23 -23 55 -24 92 -1 32 -8 65 -15 73 -19 23 -23 12 -10 -34 16
-59 5 -66 -42 -26 -28 23 -48 53 -63 92 -40 101 -56 167 -51 198 4 17 6 83 6
148 1 73 4 116 10 112 6 -3 10 -15 10 -26 0 -11 25 -43 55 -73 60 -58 67 -84
41 -156 -10 -30 -9 -41 6 -78 10 -24 21 -62 24 -84 5 -26 10 -36 17 -29 16 16
11 65 -11 108 -16 32 -19 52 -14 122 l5 84 -56 51 c-43 40 -57 60 -62 91 -4
22 -13 47 -20 55 -7 8 -16 44 -20 78 -4 35 -13 76 -21 90 -7 14 -12 28 -9 30
2 2 25 -6 50 -17 26 -12 60 -21 76 -21 47 0 67 -40 72 -150 6 -111 8 -120 19
-120 10 0 11 47 0 54 -5 3 -7 42 -5 88 4 79 3 84 -24 114 -16 17 -43 35 -61
39 -18 4 -45 13 -60 21 -15 8 -39 14 -54 14 -23 0 -32 8 -54 53 -15 28 -30 54
-34 57 -4 3 -19 29 -34 58 -24 48 -25 52 -8 52 10 0 29 -11 42 -25 34 -36 73
-45 186 -42 112 2 140 -7 167 -53 21 -35 14 -40 -47 -34 -36 3 -47 1 -44 -8 3
-9 24 -13 61 -12 56 1 57 1 57 -28 0 -21 -7 -31 -25 -40 -14 -6 -25 -15 -25
-19 0 -4 -15 -3 -32 2 -40 11 -38 11 -38 -1 0 -15 68 -24 85 -10 20 16 45 6
45 -19 0 -25 -18 -36 -49 -32 -15 2 -21 -1 -17 -8 4 -6 13 -11 21 -11 7 0 17
-10 20 -22 4 -13 21 -38 39 -57 l31 -34 -33 7 c-25 4 -32 2 -29 -7 2 -6 18
-11 35 -11 27 2 31 -2 40 -37 9 -37 9 -39 -13 -39 -13 0 -27 -5 -31 -11 -5 -9
10 -10 56 -5 53 6 65 5 79 -11 9 -10 15 -26 13 -37 -3 -13 0 -16 9 -11 7 5 17
1 25 -10 7 -10 20 -15 28 -12 18 7 49 -20 41 -34 -6 -8 8 -13 27 -10 12 1 81
-109 84 -134 1 -14 12 -37 24 -52 12 -16 19 -36 16 -48 -3 -11 4 -38 14 -60
13 -28 15 -43 8 -52 -6 -7 -8 -26 -5 -43 5 -21 -2 -46 -23 -87 l-29 -58 -16
40 c-10 22 -25 45 -35 52 -15 11 -17 19 -9 45 11 41 11 51 0 44 -5 -3 -12 -22
-15 -41 -6 -28 -1 -46 20 -85 38 -71 93 -81 94 -17 0 9 9 26 20 37 22 22 26
50 10 66 -8 8 -7 19 1 38 10 21 10 34 1 60 -7 18 -12 42 -12 55 0 12 -9 39
-20 61 -11 22 -20 48 -20 58 0 41 -123 178 -186 208 -20 9 -45 30 -57 46 -14
19 -30 28 -48 28 -28 0 -39 15 -39 56 0 13 -10 32 -21 42 -43 35 -49 44 -49
71 0 15 5 32 11 38 7 7 9 22 3 40 -4 15 -6 46 -5 69 3 51 -30 125 -72 160 -31
26 -32 26 -149 19 -117 -7 -119 -7 -159 19 -22 15 -39 30 -37 34 2 4 18 35 36
69 48 94 65 179 59 298 -6 111 -21 156 -69 210 -75 86 -196 108 -327 58z m229
-31 c13 -8 33 -24 44 -34 11 -10 23 -18 26 -18 8 0 50 -74 50 -89 0 -6 -7 -8
-15 -5 -8 4 -15 12 -15 20 0 8 -9 14 -20 14 -13 0 -20 7 -20 20 0 17 -3 19
-19 10 -29 -15 -41 -12 -41 10 0 11 -4 20 -10 20 -15 0 -12 -36 5 -50 8 -6 20
-10 27 -8 7 3 27 -10 44 -29 17 -18 41 -33 53 -33 12 0 20 -4 16 -9 -3 -5 -1
-12 5 -16 12 -7 13 -174 2 -193 -5 -8 -13 6 -21 37 -13 51 -44 88 -98 115 -29
14 -37 15 -66 2 -19 -7 -44 -24 -55 -36 l-21 -23 -41 37 c-75 68 -175 34 -201
-69 -17 -66 -30 -44 -23 38 4 52 10 75 22 82 9 6 33 26 53 45 21 19 48 42 61
51 13 10 19 21 14 25 -5 5 -11 3 -13 -3 -6 -18 -42 -16 -49 2 -11 28 -25 15
-19 -18 5 -26 2 -37 -19 -56 -34 -32 -42 -22 -26 35 17 61 59 98 139 123 108
33 182 34 231 3z m-189 -281 c26 -26 29 -36 29 -91 0 -42 4 -60 11 -58 7 2 13
16 15 31 1 15 14 51 27 81 18 39 31 55 51 60 36 9 96 -25 96 -54 0 -6 4 -9 9
-5 13 7 41 -34 41 -62 0 -12 7 -29 15 -37 19 -18 9 -65 -26 -131 -20 -37 -115
-135 -131 -135 -4 0 -14 13 -22 29 -9 16 -29 40 -46 54 -16 14 -30 30 -30 36
0 6 -6 11 -14 11 -12 0 -13 7 -5 32 16 57 11 59 -50 18 -32 -22 -65 -40 -73
-40 -18 0 -54 -38 -45 -47 4 -3 15 1 25 10 18 16 42 23 42 12 0 -4 -7 -20 -16
-37 -12 -23 -12 -29 -3 -26 8 3 20 25 28 50 13 42 52 81 66 66 3 -3 -2 -38
-10 -78 -12 -56 -22 -78 -43 -96 -15 -13 -30 -24 -34 -24 -4 0 -12 -9 -18 -20
-8 -15 2 -11 41 17 l52 37 -6 -44 c-4 -25 -9 -61 -12 -80 -5 -31 -4 -33 6 -12
14 27 25 28 38 5 5 -10 13 -15 16 -11 4 4 -2 19 -13 33 -18 23 -20 37 -17 104
3 43 8 87 12 97 8 18 9 18 30 -3 12 -13 18 -23 13 -23 -6 0 -10 -21 -10 -47 0
-48 15 -50 22 -3 4 31 17 30 42 -4 16 -21 17 -29 8 -48 -28 -55 -101 -159
-123 -175 -9 -7 -22 -26 -29 -43 -7 -16 -16 -30 -20 -30 -12 0 -50 131 -116
395 -16 64 -14 139 6 218 24 93 111 128 171 68z m-1527 -116 c15 -11 22 -12
27 -4 12 20 37 2 58 -39 28 -54 96 -119 151 -143 25 -11 58 -27 74 -35 20 -10
45 -12 76 -8 34 4 49 2 58 -9 11 -13 24 -4 87 60 41 41 75 79 75 84 0 5 9 9
21 9 11 0 36 15 55 33 19 17 46 33 60 34 14 1 32 7 39 13 22 18 144 14 165 -5
10 -9 33 -20 53 -26 29 -8 36 -15 41 -42 3 -19 13 -42 21 -53 14 -18 16 -18
26 -1 16 27 36 20 43 -17 14 -72 80 -122 147 -111 43 7 50 -2 20 -29 -11 -10
-21 -28 -23 -40 -3 -19 -9 -21 -56 -19 -41 1 -65 10 -113 40 -33 21 -82 52
-109 68 -77 48 -103 67 -137 98 -26 24 -31 26 -27 10 5 -17 1 -19 -31 -15 -45
5 -109 -25 -157 -74 -94 -97 -165 -122 -269 -93 -35 10 -73 18 -84 19 -11 0
-40 14 -65 30 -25 16 -61 33 -80 36 -56 9 -70 15 -70 27 0 7 -16 29 -35 49
-19 20 -35 42 -35 48 0 6 -10 8 -25 4 -32 -8 -43 17 -22 49 9 15 12 29 6 45
-10 26 6 29 35 7z m1356 -296 c0 -5 -4 -9 -10 -9 -5 0 -10 7 -10 16 0 8 5 12
10 9 6 -3 10 -10 10 -16z m430 -73 c32 -61 17 -53 -28 13 -22 33 -37 63 -34
66 8 7 34 -26 62 -79z m-450 44 c0 -21 -22 -166 -27 -180 -3 -8 -5 -23 -4 -34
2 -11 -2 -17 -11 -14 -15 5 -13 50 4 113 6 22 10 48 9 59 -4 26 8 66 19 66 6
0 10 -4 10 -10z m32 -17 c0 -10 0 -25 -1 -33 -1 -8 -4 -31 -6 -50 -2 -19 -10
-78 -19 -130 -8 -52 -18 -117 -22 -145 -3 -27 -8 -52 -10 -54 -12 -12 -11 14
1 94 8 50 20 145 26 213 7 67 16 122 21 122 4 0 9 -8 10 -17z m338 -36 c0 -5
-4 -5 -10 -2 -5 3 -10 14 -10 23 0 15 2 15 10 2 5 -8 10 -19 10 -23z m118
-177 c34 -100 36 -112 36 -242 1 -75 -2 -139 -6 -143 -9 -9 -45 28 -53 57 -8
24 -15 42 -60 147 -25 59 -26 66 -14 110 15 50 18 195 7 251 -14 63 50 -64 90
-180z m-142 165 c9 -19 8 -50 -5 -137 -9 -62 -22 -122 -28 -133 -16 -27 -16
-12 2 105 16 103 19 147 9 137 -7 -6 -16 -53 -34 -167 -4 -30 -13 -73 -19 -95
-6 -22 -11 -54 -11 -71 0 -17 -7 -38 -16 -45 -15 -12 -16 -11 -10 8 6 18 15
63 31 158 2 11 9 65 16 120 11 89 29 145 48 145 3 0 11 -11 17 -25z m-401 -37
c-10 -61 -25 -83 -19 -28 7 53 11 70 20 70 3 0 3 -19 -1 -42z m109 -92 c-4
-34 -11 -72 -16 -85 -17 -47 -20 -11 -7 89 10 74 15 95 21 79 5 -12 6 -50 2
-83z m465 15 c32 -63 51 -193 51 -354 0 -107 -3 -138 -12 -134 -10 3 -13 47
-13 178 0 182 -8 231 -56 337 -36 79 -15 60 30 -27z m-139 19 c2 -74 -15 -170
-30 -170 -4 0 -1 33 6 73 7 39 13 87 13 106 1 44 10 36 11 -9z m-119 -50 c-14
-102 -33 -117 -26 -20 5 65 20 109 32 96 2 -2 0 -37 -6 -76z m-45 -17 c-3 -16
-8 -48 -11 -72 -3 -24 -9 -49 -14 -55 -6 -6 -13 -35 -17 -64 -3 -28 -11 -52
-16 -52 -5 0 -7 9 -3 19 3 11 12 65 19 120 11 86 26 131 43 131 3 0 2 -12 -1
-27z m-134 -35 c-2 -29 -11 -60 -19 -68 -14 -13 -15 -12 -10 10 3 14 9 44 13
68 9 60 22 52 16 -10z m-125 -25 c-3 -10 -5 -4 -5 12 0 17 2 24 5 18 2 -7 2
-21 0 -30z m203 -15 c-3 -24 -11 -52 -17 -63 -6 -11 -14 -48 -18 -83 -4 -34
-10 -64 -14 -66 -8 -6 22 210 34 237 13 31 22 18 15 -25z m-40 -13 c0 -18 -5
-35 -11 -37 -6 -2 -13 -19 -15 -38 -2 -18 -7 -36 -10 -39 -6 -6 -3 28 12 121
7 45 24 40 24 -7z m-173 -32 c-3 -10 -5 -4 -5 12 0 17 2 24 5 18 2 -7 2 -21 0
-30z m73 -4 c0 -16 -4 -28 -9 -25 -8 5 -3 56 5 56 2 0 4 -14 4 -31z m216 5
c-4 -9 -9 -15 -11 -12 -3 3 -3 13 1 22 4 9 9 15 11 12 3 -3 3 -13 -1 -22z
m-191 -102 c-10 -80 -17 -57 -8 29 4 41 9 63 11 50 2 -14 1 -49 -3 -79z m285
68 c0 -11 -4 -20 -9 -20 -5 0 -7 9 -4 20 3 11 7 20 9 20 2 0 4 -9 4 -20z
m-114 -37 c-10 -26 -18 -8 -9 23 5 21 8 24 11 11 2 -10 1 -25 -2 -34z m80 10
c-11 -11 -17 4 -9 23 7 18 8 18 11 1 2 -10 1 -21 -2 -24z m-289 -20 c-3 -10
-5 -4 -5 12 0 17 2 24 5 18 2 -7 2 -21 0 -30z m100 -135 c-3 -7 -5 -2 -5 12 0
14 2 19 5 13 2 -7 2 -19 0 -25z m63 3 c0 -6 -4 -13 -10 -16 -5 -3 -10 1 -10 9
0 9 5 16 10 16 6 0 10 -4 10 -9z m-66 -66 c-4 -8 -8 -15 -10 -15 -2 0 -4 7 -4
15 0 8 4 15 10 15 5 0 7 -7 4 -15z m-824 -64 c0 -13 -29 -41 -41 -41 -10 0 -5
13 14 38 11 14 27 16 27 3z m1340 -181 c0 -5 -4 -10 -10 -10 -5 0 -10 5 -10
10 0 6 5 10 10 10 6 0 10 -4 10 -10z m-190 -1444 c0 -3 -4 -8 -10 -11 -5 -3
-10 -1 -10 4 0 6 5 11 10 11 6 0 10 -2 10 -4z m-6 -143 c-3 -43 -5 -96 -5
-118 1 -22 -3 -47 -9 -55 -10 -15 -11 -1 -14 192 0 44 3 79 9 81 20 7 25 -23
19 -100z"/>
<path d="M7390 4935 c0 -8 -6 -15 -13 -15 -7 0 -20 -9 -30 -20 -19 -22 -63
-27 -70 -7 -2 6 -7 9 -11 6 -3 -3 -4 -14 0 -23 10 -26 61 -20 90 11 23 24 25
25 42 10 10 -10 27 -17 38 -16 17 0 17 1 -3 16 -13 8 -23 24 -23 34 0 11 -4
19 -10 19 -5 0 -10 -7 -10 -15z"/>
<path d="M7265 4660 c-3 -5 -1 -10 4 -10 6 0 11 5 11 10 0 6 -2 10 -4 10 -3 0
-8 -4 -11 -10z"/>
<path d="M7166 4620 c-20 -24 -25 -40 -24 -80 1 -28 3 -50 4 -50 2 0 10 12 19
28 l15 27 -6 -29 c-12 -50 14 -20 31 36 29 97 12 127 -39 68z m14 -31 c-7 -11
-14 -19 -16 -16 -7 7 7 37 17 37 6 0 5 -9 -1 -21z m13 -24 c-3 -9 -8 -14 -10
-11 -3 3 -2 9 2 15 9 16 15 13 8 -4z"/>
<path d="M7485 4603 c-32 -8 -55 -34 -55 -62 1 -25 1 -26 16 -6 15 19 16 18
10 -18 -4 -21 -10 -45 -13 -53 -3 -8 1 -14 11 -14 18 0 29 22 47 90 6 25 14
39 16 32 3 -8 -1 -35 -8 -60 -7 -26 -12 -57 -11 -69 2 -11 -2 -24 -7 -28 -6
-3 -11 -13 -11 -21 0 -12 4 -13 21 -4 17 10 20 18 15 51 -3 21 -1 49 4 61 7
19 9 16 10 -22 2 -63 18 -23 19 47 1 48 -16 85 -37 82 -4 -1 -16 -4 -27 -6z
m-18 -125 c-3 -8 -6 -5 -6 6 -1 11 2 17 5 13 3 -3 4 -12 1 -19z"/>
<path d="M7230 4577 c0 -7 -9 -29 -20 -50 -22 -41 -25 -57 -10 -57 6 0 10 6
10 13 0 7 7 22 15 33 14 18 14 18 8 -3 -6 -25 6 -30 25 -11 17 17 16 62 -2 55
-10 -4 -12 0 -9 14 3 10 0 19 -6 19 -6 0 -11 -6 -11 -13z"/>
<path d="M7360 4483 c0 -13 29 -38 35 -31 3 3 -4 13 -15 23 -11 10 -20 13 -20
8z"/>
<path d="M7217 4180 c-3 -11 -1 -20 4 -20 5 0 9 9 9 20 0 11 -2 20 -4 20 -2 0
-6 -9 -9 -20z"/>
<path d="M6560 4505 c0 -11 32 -67 36 -63 6 7 -19 68 -28 68 -4 0 -8 -2 -8 -5z"/>
<path d="M6671 4467 c-1 -41 22 -97 41 -97 6 0 3 8 -6 19 -10 11 -21 41 -26
68 -7 47 -8 47 -9 10z"/>
<path d="M6762 4470 c0 -8 4 -26 8 -40 6 -20 8 -21 8 -5 0 11 -3 29 -8 40 -5
12 -8 14 -8 5z"/>
<path d="M6490 4441 c0 -10 31 -31 45 -31 11 0 -5 20 -26 30 -12 7 -19 7 -19
1z"/>
<path d="M6430 4403 c0 -12 5 -25 11 -28 16 -11 17 -2 2 25 -12 24 -13 24 -13
3z"/>
<path d="M6310 4344 c0 -7 9 -22 20 -35 25 -31 26 -12 0 21 -11 14 -20 20 -20
14z"/>
<path d="M7540 3850 c0 -5 7 -10 15 -10 8 0 15 -4 15 -10 0 -11 40 -34 47 -26
3 2 -6 16 -20 30 -26 26 -57 35 -57 16z"/>
<path d="M7816 4181 c-3 -5 -23 -12 -43 -16 -21 -4 -32 -10 -26 -12 17 -6 83
16 83 28 0 11 -7 12 -14 0z"/>
<path d="M1975 4121 c-50 -35 -119 -114 -195 -228 -40 -59 -78 -115 -85 -123
-35 -41 -118 -206 -194 -381 -23 -52 -58 -118 -79 -147 -58 -80 -83 -123 -89
-154 -5 -27 -4 -28 30 -28 26 0 41 7 56 26 12 15 21 33 21 41 0 8 12 30 26 49
24 31 28 33 39 17 23 -31 64 -6 120 74 37 53 55 71 67 67 33 -10 73 22 103 85
28 56 45 76 45 51 0 -25 39 -5 85 43 28 30 62 56 77 59 22 4 27 1 32 -23 8
-40 -3 -98 -27 -146 -17 -33 -19 -47 -11 -60 19 -30 37 -29 31 2 -5 28 4 53
32 87 7 10 11 27 8 40 -6 21 26 88 45 96 4 2 8 16 8 31 0 17 11 38 29 55 16
15 31 41 35 57 3 16 28 52 56 81 27 28 50 59 50 69 0 10 16 31 35 46 19 15 35
31 35 36 0 14 -24 7 -47 -15 l-23 -21 -20 49 c-57 138 -94 172 -196 180 -58 5
-74 2 -99 -15z m142 -28 c47 -22 81 -67 108 -146 24 -67 24 -67 5 -110 -11
-24 -29 -52 -41 -63 -11 -10 -30 -36 -40 -56 -26 -51 -60 -82 -71 -66 -6 10
-12 8 -23 -7 -33 -46 -40 -51 -43 -32 -5 26 -18 21 -49 -19 -34 -45 -80 -94
-88 -94 -11 0 -4 46 10 64 8 11 22 44 31 75 9 30 27 76 40 101 27 50 29 60 13
60 -13 0 -38 -30 -39 -46 0 -6 -13 -35 -30 -65 -21 -38 -30 -48 -30 -32 0 12
7 28 15 37 9 8 16 32 17 53 0 23 10 51 24 70 23 31 31 53 18 53 -10 0 -54 -50
-54 -61 0 -21 -32 -58 -46 -52 -10 4 -14 -3 -14 -25 0 -17 -5 -34 -10 -37 -6
-4 -25 -31 -41 -61 -31 -54 -52 -64 -42 -21 11 51 50 131 80 163 13 14 23 27
23 30 0 2 13 22 29 44 15 21 34 53 41 69 9 22 18 30 33 28 17 -2 21 4 23 35 2
29 0 35 -14 33 -9 -2 -20 -4 -25 -4 -4 -1 -5 -12 -1 -26 4 -18 2 -25 -9 -25
-8 0 -25 -20 -38 -45 -15 -29 -31 -45 -43 -45 -12 0 -16 -5 -12 -15 9 -23 -15
-65 -46 -81 -16 -8 -28 -23 -28 -34 0 -24 -31 -90 -42 -90 -31 0 -9 78 32 115
12 11 30 36 40 55 44 87 55 107 77 130 13 14 23 27 23 30 0 16 109 119 130
123 50 9 73 7 107 -10z m-240 -375 c-3 -8 -6 -5 -6 6 -1 11 2 17 5 13 3 -3 4
-12 1 -19z m-17 -39 c0 -22 -21 -48 -35 -43 -12 5 -12 9 2 30 16 25 33 32 33
13z m-170 -64 c0 -19 -20 -29 -32 -17 -15 15 -2 43 17 36 8 -3 15 -12 15 -19z
m170 -13 c0 -5 -7 -17 -15 -28 -15 -19 -20 -8 -9 20 6 17 24 22 24 8z m229
-34 c1 -5 -3 -8 -9 -8 -5 0 -10 12 -9 28 0 24 1 25 9 7 5 -11 9 -23 9 -27z
m-283 5 c-10 -10 -19 5 -10 18 6 11 8 11 12 0 2 -7 1 -15 -2 -18z m-154 -28
c-7 -14 -23 -30 -37 -35 -27 -10 -31 -20 -15 -36 18 -18 -115 -260 -177 -322
-7 -8 -21 -28 -30 -45 -12 -23 -18 -27 -20 -16 -2 9 30 71 72 138 41 66 75
125 75 130 0 5 11 29 25 52 14 24 25 51 25 60 0 25 73 119 84 109 6 -6 5 -19
-2 -35z m47 9 c-11 -13 -10 -17 4 -25 13 -8 14 -15 7 -35 -13 -32 -12 -37 0
-29 6 3 10 4 10 0 0 -9 -46 -96 -68 -127 l-18 -28 -13 35 c-14 40 -8 84 20
129 10 17 29 51 41 75 12 25 24 39 26 32 2 -6 -2 -19 -9 -27z m81 -29 c0 -16
-6 -25 -15 -25 -15 0 -21 31 -8 43 13 14 23 6 23 -18z m27 -7 c-3 -8 -6 -5 -6
6 -1 11 2 17 5 13 3 -3 4 -12 1 -19z m-25 -65 c-5 -29 -50 -98 -59 -90 -9 10
14 72 28 72 8 0 14 7 15 15 2 35 4 41 13 36 4 -3 6 -18 3 -33z m-175 -148 c-4
-34 -18 -59 -47 -82 -22 -17 -23 -10 -5 43 26 78 59 103 52 39z"/>
<path d="M2026 3944 c-4 -10 -1 -14 6 -12 15 5 23 28 10 28 -5 0 -13 -7 -16
-16z"/>
<path d="M2044 3856 c-8 -22 3 -33 18 -18 9 9 9 15 0 24 -9 9 -13 7 -18 -6z"/>
<path d="M2151 3846 c-11 -13 -16 -14 -22 -4 -6 9 -13 1 -24 -25 -9 -21 -20
-35 -25 -32 -5 3 -12 0 -15 -6 -8 -13 -6 -15 23 -23 16 -6 22 -3 22 8 0 9 4
16 9 16 14 0 53 58 49 71 -2 7 -9 5 -17 -5z"/>
<path d="M2010 3720 c-11 -21 -6 -40 10 -40 5 0 7 7 4 15 -4 8 1 17 10 21 20
8 21 24 1 24 -8 0 -19 -9 -25 -20z"/>
<path d="M2075 3711 c3 -5 1 -12 -5 -16 -17 -11 -11 -25 11 -25 15 0 19 4 15
16 -3 9 -6 20 -6 25 0 5 -5 9 -11 9 -5 0 -8 -4 -4 -9z"/>
<path d="M1925 3619 c-4 -11 -4 -23 -1 -27 10 -9 39 25 32 37 -11 17 -24 13
-31 -10z"/>
<path d="M1666 3481 c-8 -13 4 -42 15 -35 12 7 12 44 0 44 -6 0 -12 -4 -15 -9z"/>
<path d="M1630 3396 c0 -14 5 -28 10 -31 6 -4 10 7 10 24 0 17 -4 31 -10 31
-5 0 -10 -11 -10 -24z"/>
<path d="M2760 3976 c0 -12 -5 -16 -16 -12 -11 4 -15 0 -12 -16 4 -31 26 -34
40 -4 9 20 9 29 0 38 -9 9 -12 8 -12 -6z"/>
<path d="M6541 3933 c-17 -16 -33 -41 -36 -58 -5 -25 -4 -27 4 -8 14 31 43 63
58 63 7 0 13 7 13 15 0 21 -5 19 -39 -12z"/>
<path d="M2697 3864 c-14 -14 -7 -82 11 -104 20 -24 33 -16 46 28 8 23 -7 31
-20 10 -5 -8 -12 3 -19 30 -5 24 -13 40 -18 36z"/>
<path d="M2290 3784 c0 -8 5 -12 10 -9 6 3 10 10 10 16 0 5 -4 9 -10 9 -5 0
-10 -7 -10 -16z"/>
<path d="M2542 3788 c-15 -15 -16 -55 0 -64 14 -9 48 31 48 57 0 22 -29 26
-48 7z"/>
<path d="M2364 3764 c-4 -17 -1 -31 9 -41 13 -14 17 -13 32 11 21 32 12 48
-11 20 -15 -18 -15 -18 -9 9 7 35 -12 36 -21 1z"/>
<path d="M2789 3758 c-2 -22 3 -43 13 -55 16 -19 48 3 48 32 0 31 -17 33 -23
3 -3 -22 -4 -22 -15 5 -12 29 -21 35 -23 15z"/>
<path d="M7871 3727 c-1 -39 41 -82 68 -68 16 9 20 6 26 -17 13 -55 65 -81 97
-49 27 27 48 28 58 2 8 -21 14 -24 35 -19 23 6 25 3 25 -24 0 -43 9 -62 31
-62 12 0 19 -7 19 -20 0 -11 -4 -20 -8 -20 -9 0 1 -84 14 -115 10 -25 33 -49
40 -42 3 2 -4 20 -15 38 -11 18 -17 37 -13 43 4 6 7 30 8 53 1 32 -4 49 -22
68 -13 14 -27 43 -30 65 -6 37 -5 38 17 34 l24 -5 -23 13 c-17 8 -25 9 -30 1
-10 -17 -59 -4 -65 17 -3 13 -11 16 -32 13 -14 -3 -29 -12 -32 -19 -6 -17 -37
-18 -64 -4 -12 7 -19 21 -19 40 0 34 -13 45 -38 31 -15 -8 -24 -5 -40 12 -11
12 -22 31 -25 42 -3 15 -5 13 -6 -8z"/>
<path d="M6586 3705 c-12 -9 -15 -15 -7 -15 8 0 11 -6 7 -15 -4 -10 1 -15 15
-15 16 0 18 3 10 17 -7 13 -5 21 7 30 14 10 15 12 2 12 -8 0 -24 -6 -34 -14z"/>
<path d="M8010 3716 c0 -2 7 -6 15 -10 8 -3 15 -1 15 4 0 6 -7 10 -15 10 -8 0
-15 -2 -15 -4z"/>
<path d="M6636 3681 c-4 -5 3 -7 14 -4 23 6 26 13 6 13 -8 0 -17 -4 -20 -9z"/>
<path d="M2281 3662 c-5 -10 -8 -27 -6 -38 2 -10 4 -27 4 -36 1 -26 16 -22 29
7 15 33 15 48 1 39 -7 -4 -9 0 -5 14 9 27 -10 38 -23 14z"/>
<path d="M6393 3673 c-28 -5 -53 -33 -30 -33 9 0 19 5 22 10 4 6 18 9 32 8 14
-2 28 3 30 10 5 12 -10 13 -54 5z"/>
<path d="M8088 3663 c7 -3 16 -2 19 1 4 3 -2 6 -13 5 -11 0 -14 -3 -6 -6z"/>
<path d="M6579 3623 c-13 -16 -12 -17 4 -4 9 7 17 15 17 17 0 8 -8 3 -21 -13z"/>
<path d="M2471 3601 c-25 -46 -5 -122 26 -103 17 10 45 81 38 92 -12 19 -21
10 -23 -22 -2 -18 -7 -37 -12 -42 -18 -18 -24 4 -13 45 11 42 1 62 -16 30z"/>
<path d="M7740 3588 c0 -7 5 -20 10 -28 8 -12 10 -9 10 13 0 15 -4 27 -10 27
-5 0 -10 -6 -10 -12z"/>
<path d="M2625 3556 c-10 -53 8 -72 39 -40 17 16 22 44 8 44 -5 0 -14 -10 -21
-22 -11 -21 -11 -21 -7 9 7 44 -11 52 -19 9z"/>
<path d="M2771 3563 c-6 -11 -11 -13 -11 -5 0 27 -20 -1 -20 -29 0 -40 18 -37
36 7 16 39 13 58 -5 27z"/>
<path d="M7100 3494 c0 -40 42 -133 75 -167 34 -34 46 -64 39 -94 -9 -39 -22
-52 -44 -46 -24 6 -24 7 -5 -47 26 -74 1 -150 -50 -150 -29 0 -68 37 -96 91
-29 56 -37 31 -16 -50 8 -31 18 -85 22 -121 3 -35 13 -80 21 -100 31 -73 6
-181 -45 -188 -48 -7 -67 6 -95 65 -15 32 -32 65 -37 73 -5 8 -13 25 -19 38
-13 30 -60 99 -60 88 0 -5 13 -32 28 -60 16 -28 35 -67 42 -86 6 -19 18 -48
25 -65 42 -97 49 -121 49 -183 1 -89 -5 -102 -48 -102 -26 0 -41 8 -66 36 -17
20 -34 33 -37 30 -8 -8 67 -86 82 -86 13 0 45 -78 45 -111 0 -14 -5 -30 -12
-37 -9 -9 -9 -12 0 -12 7 0 12 -4 12 -9 0 -15 -52 -61 -71 -61 -27 0 -116 106
-124 147 -3 19 -4 37 -2 39 2 2 35 -9 73 -25 91 -38 114 -44 114 -32 0 5 -13
12 -30 16 -32 7 -41 25 -12 26 11 0 12 2 4 6 -7 3 -19 0 -26 -6 -33 -27 -142
49 -190 133 -16 28 -34 55 -40 62 -6 6 -31 32 -54 58 -24 26 -46 46 -48 43 -8
-7 27 -67 40 -67 12 0 23 -13 91 -110 21 -30 45 -61 52 -68 7 -7 13 -32 14
-55 0 -44 14 -70 83 -151 51 -61 60 -123 24 -176 -39 -57 -94 -54 -154 10 -21
22 -46 40 -55 40 -10 0 -27 12 -38 28 -13 17 -20 22 -21 12 0 -24 29 -60 49
-60 9 0 32 -16 51 -35 43 -45 89 -60 133 -46 53 18 71 62 77 194 0 4 9 7 19 7
12 0 21 -8 24 -22 3 -18 5 -16 6 7 0 17 6 36 11 41 6 6 13 33 16 61 5 38 2 61
-15 98 -26 58 -25 55 -1 55 21 0 40 27 40 59 0 12 6 21 14 21 15 0 32 37 23
47 -3 2 -8 -5 -12 -16 -11 -35 -27 -24 -24 17 1 20 -1 44 -4 52 -19 53 -17 58
25 53 44 -6 77 16 98 68 14 32 4 203 -10 194 -5 -3 -12 9 -15 27 -5 21 -4 33
4 36 6 2 11 8 11 13 0 6 -4 8 -9 4 -10 -6 -15 8 -26 65 l-7 35 24 -27 c45 -52
92 -61 125 -25 27 30 32 55 22 117 -7 47 -6 55 11 67 11 8 24 30 29 50 12 41
-5 91 -43 133 -48 53 -69 92 -69 131 0 21 -4 39 -8 39 -5 0 -9 -16 -9 -36z"/>
<path d="M2205 3470 c-3 -5 -1 -10 4 -10 6 0 11 5 11 10 0 6 -2 10 -4 10 -3 0
-8 -4 -11 -10z"/>
<path d="M2312 3468 c-15 -15 -15 -48 -2 -68 9 -13 13 -12 30 9 11 13 20 33
20 45 -1 20 -2 20 -14 4 -18 -24 -25 -23 -19 2 6 23 2 25 -15 8z"/>
<path d="M6967 3422 c-4 -5 7 -44 24 -86 25 -62 29 -84 24 -117 -5 -29 -4 -40
4 -35 6 4 11 19 11 34 1 38 14 12 30 -58 15 -63 46 -130 61 -130 5 0 1 12 -10
28 -21 30 -36 72 -26 72 4 0 16 -11 27 -26 11 -14 22 -23 25 -20 4 4 -15 31
-48 66 -9 9 -19 31 -22 49 -4 17 -19 57 -33 89 -15 31 -35 77 -44 101 -9 24
-20 39 -23 33z"/>
<path d="M2677 3413 c-11 -11 -8 -111 4 -119 20 -12 41 23 45 72 l4 49 -16
-48 c-19 -58 -33 -54 -26 8 4 44 2 52 -11 38z"/>
<path d="M6435 3400 c-4 -13 -15 -20 -31 -20 -30 0 -32 -16 -2 -26 24 -7 48
17 48 48 0 24 -7 23 -15 -2z"/>
<path d="M2455 3373 c-4 -15 -8 -37 -10 -47 -2 -11 0 -28 6 -38 8 -15 13 -16
32 -7 12 7 25 17 29 23 11 16 10 64 -2 71 -6 4 -10 -6 -10 -23 0 -30 -24 -61
-33 -44 -3 4 -2 25 3 45 4 21 4 39 -1 42 -5 3 -11 -7 -14 -22z"/>
<path d="M7571 3390 c0 -8 4 -22 9 -30 12 -18 12 -2 0 25 -6 13 -9 15 -9 5z"/>
<path d="M7373 3327 c-44 -47 -64 -78 -77 -120 -10 -31 -22 -59 -27 -63 -14
-8 -11 -72 6 -104 9 -16 27 -33 40 -36 14 -3 29 -14 34 -23 5 -8 13 -12 17 -8
14 13 -11 41 -44 49 -27 7 -32 14 -37 52 -10 63 33 167 103 251 29 36 51 65
49 65 -3 0 -31 -29 -64 -63z"/>
<path d="M2155 3350 c-3 -11 -3 -24 0 -30 12 -19 22 -10 22 20 0 34 -13 40
-22 10z"/>
<path d="M7089 3342 c6 -12 17 -25 25 -29 7 -4 24 -24 36 -43 18 -29 21 -31
16 -10 -3 14 -6 28 -6 31 0 3 -18 21 -41 39 -31 25 -38 28 -30 12z"/>
<path d="M7590 3305 c0 -24 5 -35 15 -35 9 0 36 -43 67 -107 79 -162 176 -342
196 -363 9 -10 33 -49 51 -87 41 -80 40 -78 46 -71 8 8 -20 69 -59 128 -20 30
-36 61 -36 70 -1 8 -10 31 -21 50 -11 19 -18 27 -15 18 3 -10 1 -18 -4 -18 -5
0 -59 101 -120 225 -62 124 -114 225 -116 225 -2 0 -4 -16 -4 -35z"/>
<path d="M6957 3291 c-4 -17 -3 -21 5 -13 5 5 8 16 6 23 -3 8 -7 3 -11 -10z"/>
<path d="M1959 3255 c-11 -25 -19 -56 -18 -68 1 -12 -5 -38 -13 -57 -42 -94
-58 -150 -58 -199 0 -29 -7 -78 -16 -108 -14 -47 -14 -65 -4 -112 8 -40 9 -64
1 -83 -11 -29 -5 -84 11 -105 6 -7 11 -59 13 -116 3 -96 14 -147 33 -147 9 0
5 75 -9 185 -5 44 -12 148 -15 231 -5 129 -3 156 11 184 9 18 16 52 15 78 -2
66 -2 66 20 92 11 13 20 35 20 49 0 41 11 101 20 101 4 0 11 21 15 48 4 26 12
53 17 60 8 9 6 12 -6 12 -11 0 -25 -18 -37 -45z"/>
<path d="M6780 3252 c0 -7 5 -12 10 -12 6 0 10 -4 10 -10 0 -5 11 -26 25 -46
14 -20 25 -45 25 -55 0 -10 9 -33 19 -51 47 -82 86 -253 77 -334 -4 -39 -4
-42 3 -16 13 48 17 48 46 2 40 -64 41 -41 1 27 -50 85 -62 183 -16 128 7 -8
20 -15 29 -14 14 0 14 1 0 7 -25 11 -69 49 -69 60 0 15 -67 179 -98 240 -27
54 -62 95 -62 74z"/>
<path d="M7720 3251 c0 -6 4 -13 10 -16 6 -3 7 1 4 9 -7 18 -14 21 -14 7z"/>
<path d="M2365 3220 c-6 -9 -1 -44 10 -80 7 -23 28 -26 44 -7 17 21 26 77 12
77 -6 0 -11 -11 -11 -24 0 -14 -5 -28 -11 -32 -16 -10 -30 16 -26 49 3 26 -6
36 -18 17z"/>
<path d="M2065 3189 c-5 -22 -3 -36 8 -46 13 -13 15 -10 18 31 5 53 -15 65
-26 15z"/>
<path d="M2235 3201 c-7 -22 15 -93 31 -98 15 -5 46 44 41 65 -3 13 -7 10 -15
-11 -16 -37 -32 -25 -32 24 0 41 -14 53 -25 20z"/>
<path d="M2770 3187 c0 -13 6 -32 14 -43 13 -17 16 -17 30 -4 19 19 32 70 18
70 -6 0 -12 -10 -14 -22 -2 -13 -7 -23 -13 -23 -5 0 -11 10 -13 23 -4 29 -22
29 -22 -1z"/>
<path d="M7381 3194 c0 -11 3 -14 6 -6 3 7 2 16 -1 19 -3 4 -6 -2 -5 -13z"/>
<path d="M7747 3189 c4 -13 8 -18 11 -10 2 7 -1 18 -6 23 -8 8 -9 4 -5 -13z"/>
<path d="M2538 3163 c-20 -5 -22 -12 -9 -32 12 -19 41 -6 41 19 0 20 -2 21
-32 13z"/>
<path d="M2656 3139 c-13 -29 -3 -104 14 -104 16 0 51 65 43 79 -3 5 -13 -7
-21 -25 l-16 -34 -6 50 c-4 34 -9 45 -14 34z"/>
<path d="M7364 3089 c-19 -22 -19 -22 4 -10 12 6 22 16 22 21 0 15 -5 12 -26
-11z"/>
<path d="M2137 3073 c-10 -10 -8 -61 2 -68 12 -7 51 42 51 64 0 12 -6 10 -21
-9 -20 -24 -21 -24 -16 -2 5 21 -3 29 -16 15z"/>
<path d="M2852 3050 c4 -31 41 -35 46 -5 3 16 1 18 -9 8 -10 -10 -15 -9 -26 5
-12 15 -13 15 -11 -8z"/>
<path d="M2345 2981 c-8 -15 4 -91 15 -91 11 0 48 47 56 72 11 36 -5 32 -21
-5 -17 -42 -40 -50 -33 -13 6 29 -6 54 -17 37z"/>
<path d="M6782 2930 c0 -19 2 -27 5 -17 2 9 2 25 0 35 -3 9 -5 1 -5 -18z"/>
<path d="M7286 2924 c-22 -26 -27 -41 -23 -63 5 -23 1 -31 -19 -41 -13 -7 -24
-17 -24 -22 0 -5 5 -6 11 -2 28 17 -3 -45 -45 -90 -78 -83 -80 -148 -6 -186
52 -27 52 -52 -1 -102 -22 -21 -46 -53 -53 -71 -20 -48 -28 -104 -16 -112 6
-4 10 7 10 27 1 46 33 114 71 145 17 15 38 42 45 60 8 18 27 39 42 47 34 17
82 65 82 80 0 6 -10 -2 -21 -17 -49 -66 -116 -70 -168 -11 -27 30 -29 37 -19
65 6 17 28 49 50 72 21 22 41 52 45 66 3 14 15 38 26 53 17 23 18 30 7 43 -11
13 -8 22 19 55 18 22 28 40 24 39 -4 0 -21 -16 -37 -35z"/>
<path d="M2200 2916 c0 -25 5 -36 14 -36 19 0 33 23 18 28 -7 2 -12 10 -12 17
0 8 -4 17 -10 20 -6 4 -10 -8 -10 -29z"/>
<path d="M6661 2934 c0 -11 3 -14 6 -6 3 7 2 16 -1 19 -3 4 -6 -2 -5 -13z"/>
<path d="M1937 2933 c-12 -11 -7 -40 8 -53 20 -17 24 -12 18 28 -5 31 -13 39
-26 25z"/>
<path d="M2876 2931 c-8 -12 13 -48 31 -55 14 -6 28 11 37 44 l7 25 -19 -24
-19 -24 -15 22 c-10 13 -19 18 -22 12z"/>
<path d="M6867 2918 c-4 -14 -9 -34 -13 -45 -3 -10 2 -5 11 10 9 16 15 36 13
45 -3 12 -6 9 -11 -10z"/>
<path d="M2527 2913 c-12 -11 -8 -58 6 -77 12 -16 14 -15 37 9 l24 25 -25 -2
c-19 -2 -24 2 -24 19 0 24 -8 36 -18 26z"/>
<path d="M2036 2869 c-7 -38 15 -79 44 -79 19 0 50 25 50 41 0 13 -6 11 -25
-7 -21 -21 -34 -8 -38 36 -3 44 -23 50 -31 9z"/>
<path d="M2734 2887 c-10 -27 20 -55 40 -37 9 7 16 19 16 27 0 12 -3 13 -14 4
-11 -10 -17 -8 -25 6 -9 17 -10 17 -17 0z"/>
<path d="M6621 2897 c-1 -4 16 -38 37 -75 36 -64 55 -144 53 -226 0 -14 3 -16
11 -8 9 9 8 25 0 64 -7 28 -9 55 -4 60 12 12 81 -87 120 -174 20 -43 38 -76
40 -73 3 3 -3 23 -13 45 -22 48 -15 59 21 36 14 -10 28 -15 31 -12 3 3 -16 18
-41 35 -44 27 -115 115 -103 127 3 3 14 1 25 -5 12 -6 28 -11 37 -11 30 0 6
16 -45 30 -49 13 -100 59 -100 90 0 7 -10 25 -22 40 -13 15 -28 36 -35 46 -6
11 -12 15 -12 11z"/>
<path d="M3070 2876 c0 -21 21 -31 30 -15 5 7 6 17 4 21 -9 14 -34 9 -34 -6z"/>
<path d="M7355 2880 c-3 -5 -2 -10 4 -10 5 0 13 5 16 10 3 6 2 10 -4 10 -5 0
-13 -4 -16 -10z"/>
<path d="M7093 2847 c-4 -6 -1 -7 7 -2 10 6 12 4 6 -10 -5 -15 -4 -16 9 -5 8
7 15 16 15 20 0 10 -30 8 -37 -3z"/>
<path d="M7117 2813 c-4 -3 -7 -11 -7 -17 0 -6 5 -5 12 2 6 6 9 14 7 17 -3 3
-9 2 -12 -2z"/>
<path d="M7425 2777 c-14 -21 -29 -32 -45 -33 -14 -1 -33 -5 -42 -9 -11 -4
-18 -3 -18 4 0 6 -7 11 -16 11 -12 0 -11 -4 7 -19 20 -16 21 -21 10 -35 -7 -9
-22 -16 -33 -16 -10 0 -38 -18 -61 -41 l-42 -41 40 30 c57 44 92 56 98 34 3
-10 5 -6 6 10 1 23 10 32 53 54 65 33 112 85 76 84 -7 -1 -22 -15 -33 -33z"/>
<path d="M2320 2757 c0 -18 7 -42 15 -53 15 -19 15 -19 30 0 8 11 15 29 15 40
-1 20 -2 20 -14 4 -16 -21 -26 -13 -26 19 0 13 -4 23 -10 23 -5 0 -10 -15 -10
-33z"/>
<path d="M6636 2775 c-3 -9 -5 -29 -5 -43 1 -20 3 -17 9 13 8 43 7 57 -4 30z"/>
<path d="M3042 2768 c9 -25 37 -33 54 -17 11 11 12 19 5 23 -6 4 -11 2 -11 -3
0 -6 -7 -11 -15 -11 -8 0 -15 5 -15 10 0 6 -5 10 -11 10 -6 0 -9 -5 -7 -12z"/>
<path d="M2208 2764 c-12 -12 -9 -92 4 -100 15 -10 58 41 57 69 0 19 -3 17
-16 -10 -22 -44 -31 -41 -35 8 -2 22 -6 37 -10 33z"/>
<path d="M2927 2744 c-13 -13 -7 -42 13 -65 l20 -24 20 24 c11 13 20 33 20 44
0 25 -16 11 -22 -18 -5 -30 -22 -24 -34 13 -5 18 -13 29 -17 26z"/>
<path d="M3150 2714 c0 -31 3 -35 22 -32 12 2 23 9 26 16 2 7 -2 10 -12 6 -12
-5 -16 0 -16 20 0 14 -4 26 -10 26 -5 0 -10 -16 -10 -36z"/>
<path d="M3217 2684 c-3 -33 -2 -63 3 -68 16 -16 12 -82 -5 -96 -11 -9 -14
-23 -9 -46 4 -23 0 -44 -14 -71 -11 -21 -23 -61 -26 -89 -4 -40 -12 -58 -35
-82 -17 -17 -31 -41 -31 -54 0 -30 -8 -41 -48 -63 -17 -11 -35 -27 -38 -37 -3
-10 -23 -33 -45 -51 -21 -19 -39 -38 -39 -44 0 -16 -88 -73 -94 -60 -3 9 -7 8
-15 -3 -5 -8 -7 -18 -5 -22 3 -4 -3 -8 -14 -8 -18 0 -45 -31 -71 -82 -15 -29
-31 -28 -31 1 0 20 -30 51 -49 51 -6 0 -29 -11 -50 -25 -21 -14 -49 -28 -62
-30 -13 -3 -37 -7 -52 -11 -35 -7 -93 19 -100 46 -6 25 -27 27 -27 3 0 -27 32
-68 55 -70 67 -6 86 -5 137 10 31 10 59 21 63 26 7 12 45 1 45 -13 0 -16 -59
-86 -73 -86 -24 0 -138 -60 -144 -75 -5 -13 -13 -9 -44 21 -44 43 -70 102 -72
164 -2 39 -5 43 -30 46 -19 2 -30 -3 -38 -17 -5 -11 -18 -18 -27 -17 -12 2
-18 -7 -23 -37 -7 -49 -39 -155 -46 -155 -2 0 -2 19 2 43 23 147 28 167 41
167 8 0 14 7 14 15 0 10 -9 14 -25 13 -14 -1 -25 -6 -25 -10 0 -4 -13 -8 -30
-8 -26 0 -30 -4 -30 -28 0 -63 -92 -121 -192 -122 -31 0 -59 -4 -62 -8 -3 -4
-42 -4 -88 0 -51 5 -106 5 -143 -1 -54 -9 -177 -22 -215 -23 -8 0 -37 -7 -65
-14 l-50 -14 65 5 c154 12 191 16 232 23 41 7 92 8 186 4 39 -2 42 -4 32 -21
-5 -11 -10 -31 -10 -44 0 -28 28 -45 35 -22 3 8 7 22 10 30 14 46 91 28 155
-36 37 -37 54 -48 65 -41 13 7 6 17 -35 51 -27 23 -50 46 -50 50 0 5 17 11 37
14 26 5 51 21 85 54 41 41 48 44 48 26 0 -45 -23 -130 -51 -188 -18 -38 -26
-69 -23 -83 9 -31 30 -28 39 6 9 37 34 74 45 67 5 -3 23 1 39 10 64 33 165 13
195 -39 l18 -30 19 24 c10 14 22 35 25 48 9 31 46 45 82 30 15 -6 29 -12 32
-13 3 -1 19 -6 37 -10 41 -9 90 -53 98 -87 4 -15 15 -34 25 -43 17 -16 19 -15
29 4 6 11 11 36 11 56 0 30 5 37 27 46 23 8 40 5 95 -17 57 -23 68 -31 68 -51
0 -29 16 -30 41 0 30 36 23 57 -39 116 -31 31 -70 74 -87 96 -16 22 -42 51
-57 65 -15 14 -32 40 -37 58 -9 29 -7 34 13 41 12 5 35 20 52 33 16 14 41 28
56 31 17 5 30 17 37 37 5 17 28 48 51 70 22 21 40 42 40 47 0 5 17 19 39 31
36 20 49 41 67 102 4 14 13 29 20 35 14 11 45 110 37 118 -2 3 3 17 12 31 33
51 56 286 32 332 -14 26 -14 26 -20 -32z m-1067 -881 c0 -10 -27 -41 -60 -69
-53 -47 -66 -53 -121 -59 -36 -4 -65 -3 -70 2 -7 7 14 12 57 16 75 7 122 33
164 92 29 40 30 41 30 18z m150 -5 c0 -47 21 -97 59 -139 21 -24 41 -54 45
-67 7 -20 5 -22 -16 -17 -85 20 -149 21 -188 4 -22 -10 -40 -16 -40 -14 0 3 6
22 14 42 8 21 20 60 28 87 7 27 20 51 28 54 27 9 59 44 53 58 -3 8 0 14 6 14
6 0 11 -10 11 -22z m-60 -13 c0 -8 -4 -15 -10 -15 -5 0 -7 7 -4 15 4 8 8 15
10 15 2 0 4 -7 4 -15z m585 -89 c40 -48 82 -91 132 -135 15 -14 22 -26 16 -28
-19 -7 -97 54 -117 91 -22 41 -80 78 -74 48 2 -9 10 -17 18 -17 11 0 70 -74
70 -88 0 -8 -86 -1 -92 7 -4 6 -10 35 -14 65 -5 40 -3 55 7 62 12 7 11 11 -3
26 -24 23 -32 11 -30 -45 2 -38 0 -43 -9 -29 -6 10 -8 25 -5 34 15 38 -54 61
-74 24 -5 -11 -37 -30 -70 -43 -33 -12 -60 -28 -60 -34 0 -7 -13 -14 -29 -16
-49 -7 -17 23 70 66 44 21 84 47 90 57 7 13 17 18 32 14 13 -3 32 3 47 14 24
19 25 19 40 -3 8 -13 33 -44 55 -70z m-124 12 c0 -2 3 -41 6 -87 4 -69 3 -82
-8 -75 -88 55 -127 74 -148 75 l-26 1 25 7 c40 12 105 48 119 65 12 14 30 21
32 14z m-550 -105 c-12 -20 -14 -14 -5 12 4 9 9 14 11 11 3 -2 0 -13 -6 -23z
m599 -88 c-4 -11 -5 -27 -3 -35 2 -8 -3 -4 -11 10 -15 25 -15 35 0 95 l7 30 7
-40 c4 -22 4 -49 0 -60z m-610 55 c0 -5 -5 -10 -11 -10 -5 0 -7 5 -4 10 3 6 8
10 11 10 2 0 4 -4 4 -10z"/>
<path d="M7400 2711 c0 -6 5 -13 10 -16 6 -3 10 1 10 9 0 9 -4 16 -10 16 -5 0
-10 -4 -10 -9z"/>
<path d="M2487 2687 c-9 -31 -2 -47 18 -47 13 0 45 37 45 52 0 17 -19 7 -25
-13 -8 -23 -21 -15 -27 16 -3 17 -5 15 -11 -8z"/>
<path d="M2779 2708 c-7 -26 -7 -53 1 -69 13 -24 25 -24 50 1 21 21 27 50 10
50 -5 0 -10 -9 -10 -20 0 -11 -7 -20 -15 -20 -10 0 -15 10 -15 30 0 17 -4 30
-10 30 -5 0 -10 -1 -11 -2z"/>
<path d="M2017 2666 c-3 -8 1 -20 8 -26 16 -14 45 -7 45 10 0 6 -5 8 -12 4 -6
-4 -17 1 -23 10 -11 14 -14 14 -18 2z"/>
<path d="M1905 2660 c-9 -15 16 -43 27 -32 10 10 0 42 -12 42 -5 0 -12 -5 -15
-10z"/>
<path d="M2646 2628 c-4 -9 -6 -29 -4 -45 4 -39 40 -44 56 -8 14 31 15 35 3
35 -5 0 -11 -9 -14 -20 -8 -33 -26 -23 -29 18 -3 27 -6 32 -12 20z"/>
<path d="M7322 2620 c0 -14 2 -19 5 -12 2 6 2 18 0 25 -3 6 -5 1 -5 -13z"/>
<path d="M7242 2605 c-17 -37 -14 -45 4 -12 9 16 14 31 11 33 -2 2 -9 -7 -15
-21z"/>
<path d="M3070 2561 c0 -46 11 -52 34 -19 19 26 21 47 4 30 -17 -17 -31 -15
-25 3 4 8 2 17 -3 20 -6 4 -10 -11 -10 -34z"/>
<path d="M6784 2559 c3 -17 6 -35 6 -40 0 -5 3 -9 8 -9 4 0 6 18 4 40 -2 22
-9 40 -14 40 -6 0 -8 -13 -4 -31z"/>
<path d="M2380 2545 c0 -23 5 -38 15 -42 17 -6 44 23 44 47 0 12 -2 12 -13 -2
-17 -23 -26 -23 -26 1 0 11 -4 23 -10 26 -6 4 -10 -8 -10 -30z"/>
<path d="M3150 2536 c0 -42 16 -55 35 -30 20 27 20 51 0 34 -13 -10 -15 -9
-15 9 0 11 -4 21 -10 21 -5 0 -10 -15 -10 -34z"/>
<path d="M6990 2550 c-6 -12 -9 -24 -7 -27 3 -2 11 5 17 17 6 12 9 24 7 27 -3
2 -11 -5 -17 -17z"/>
<path d="M7510 2519 c-25 -21 -59 -53 -77 -71 -29 -29 -35 -31 -93 -29 -38 1
-60 -2 -56 -7 3 -6 24 -8 46 -5 32 5 40 3 40 -10 0 -20 -39 -40 -107 -56 -46
-11 -133 -61 -106 -61 7 0 19 7 27 16 9 8 23 14 31 12 13 -3 13 -9 -5 -42 -29
-58 -18 -55 14 4 31 56 29 55 75 65 l34 7 -6 -38 c-3 -22 -9 -49 -13 -61 -4
-15 -2 -23 5 -23 7 0 10 4 7 9 -3 5 1 26 10 46 8 21 13 43 10 50 -4 11 103
125 118 125 3 0 7 -28 8 -62 l1 -63 6 68 c5 59 10 70 36 92 17 13 44 29 62 35
17 6 34 17 37 25 6 18 5 18 -28 6 -14 -6 -26 -6 -28 -1 -2 5 -23 -9 -48 -31z"/>
<path d="M2898 2524 c-11 -10 -10 -46 2 -64 8 -13 12 -12 31 6 12 12 19 28 16
35 -3 9 -8 5 -15 -11 -10 -26 -17 -19 -24 23 -2 11 -6 15 -10 11z"/>
<path d="M2260 2456 c0 -19 4 -37 9 -40 12 -8 58 30 49 40 -4 4 -14 1 -23 -6
-13 -11 -15 -9 -15 14 0 14 -4 26 -10 26 -5 0 -10 -15 -10 -34z"/>
<path d="M6490 2471 c0 -5 5 -13 10 -16 6 -3 10 -2 10 4 0 5 -4 13 -10 16 -5
3 -10 2 -10 -4z"/>
<path d="M2036 2461 c-3 -5 2 -19 12 -31 16 -19 22 -21 40 -11 12 6 22 19 22
28 0 13 -2 13 -16 2 -14 -11 -18 -11 -29 4 -14 19 -21 21 -29 8z"/>
<path d="M6440 2456 c0 -8 4 -17 9 -21 5 -3 12 -19 16 -35 4 -17 10 -30 15
-30 16 0 30 -65 27 -120 -3 -30 -2 -41 0 -25 6 39 20 54 30 29 4 -10 15 -28
25 -38 12 -13 18 -35 18 -67 0 -26 5 -51 11 -55 7 -4 10 5 7 26 -1 18 -1 33 2
33 3 1 30 -17 60 -39 65 -47 107 -74 115 -74 15 0 -11 22 -75 65 -39 26 -70
52 -70 60 0 7 -7 19 -16 26 -9 7 -26 33 -39 59 -56 110 -70 136 -81 147 -6 6
-17 25 -24 42 -13 32 -30 42 -30 17z"/>
<path d="M2716 2442 c-9 -15 3 -80 17 -89 11 -7 67 50 67 70 0 6 -11 -1 -23
-17 -23 -28 -54 -30 -44 -2 7 18 -8 52 -17 38z"/>
<path d="M6986 2435 c-9 -26 -7 -32 5 -12 6 10 9 21 6 23 -2 3 -7 -2 -11 -11z"/>
<path d="M3104 2406 c-7 -31 -2 -58 12 -63 14 -5 44 23 44 40 0 8 -4 7 -12 -1
-21 -21 -31 -13 -24 18 7 36 -11 41 -20 6z"/>
<path d="M2556 2395 c-26 -74 -45 -85 -60 -33 -9 30 -10 31 -14 9 -13 -76 39
-96 71 -28 10 22 16 46 14 55 -3 14 -5 14 -11 -3z"/>
<path d="M6748 2403 c7 -3 16 -2 19 1 4 3 -2 6 -13 5 -11 0 -14 -3 -6 -6z"/>
<path d="M7431 2357 c-13 -21 -12 -21 5 -5 10 10 16 20 13 22 -3 3 -11 -5 -18
-17z"/>
<path d="M2077 2327 c-12 -32 -8 -47 19 -72 21 -19 30 -22 45 -14 11 5 19 14
19 20 0 6 -7 6 -19 -1 -23 -12 -30 -4 -46 50 -9 29 -12 32 -18 17z"/>
<path d="M2990 2316 c0 -27 15 -42 25 -26 8 13 -3 50 -16 50 -5 0 -9 -11 -9
-24z"/>
<path d="M7604 2317 c-12 -12 -42 -55 -67 -94 -45 -71 -59 -83 -72 -63 -3 6
-19 10 -35 10 -19 0 -35 9 -49 26 -15 18 -21 22 -21 11 0 -25 26 -44 70 -51
55 -9 44 -22 -58 -72 -95 -47 -144 -75 -139 -80 2 -3 20 3 40 11 29 12 37 12
37 3 0 -7 10 -1 23 14 12 14 33 30 47 34 14 4 40 18 58 32 18 14 34 23 36 21
2 -2 11 -19 20 -36 23 -45 29 -41 10 6 -15 39 -15 40 16 83 17 23 38 47 47 52
10 6 12 11 4 15 -7 5 4 22 29 49 22 23 40 44 40 47 0 11 -16 3 -36 -18z"/>
<path d="M1940 2306 c0 -20 37 -49 55 -42 19 7 11 26 -11 26 -8 0 -14 4 -14 9
0 5 -7 11 -15 15 -9 3 -15 0 -15 -8z"/>
<path d="M2810 2292 c0 -12 7 -25 15 -29 27 -10 30 6 7 30 l-22 21 0 -22z"/>
<path d="M6364 2299 c-15 -18 -14 -43 2 -106 15 -62 25 -82 53 -107 12 -11 21
-31 21 -46 0 -38 58 -146 97 -180 30 -27 109 -57 119 -47 3 3 -15 16 -40 31
-58 34 -95 74 -132 141 -23 44 -26 57 -16 67 10 10 17 10 32 0 29 -18 35 -15
15 8 -11 12 -33 27 -49 36 -32 14 -56 52 -57 88 0 12 -8 45 -17 75 -14 43 -19
51 -28 40z"/>
<path d="M6590 2296 c0 -2 7 -9 15 -16 13 -11 14 -10 9 4 -5 14 -24 23 -24 12z"/>
<path d="M2610 2265 c0 -21 17 -45 32 -45 13 0 9 13 -12 40 -18 23 -20 24 -20
5z"/>
<path d="M2908 2264 c-13 -13 -9 -61 7 -74 20 -16 35 -4 34 28 0 15 -3 21 -6
15 -8 -22 -21 -14 -25 13 -2 14 -6 22 -10 18z"/>
<path d="M3058 2264 c-5 -4 -8 -18 -8 -31 0 -29 35 -32 50 -4 13 25 13 31 0
31 -5 0 -10 -7 -10 -15 0 -23 -18 -18 -22 6 -2 11 -6 17 -10 13z"/>
<path d="M6810 2255 c0 -5 5 -17 10 -25 5 -8 10 -10 10 -5 0 6 -5 17 -10 25
-5 8 -10 11 -10 5z"/>
<path d="M1908 2235 c-8 -8 9 -81 26 -114 17 -32 76 -70 76 -48 0 8 -7 21 -17
28 -17 14 -68 118 -65 132 2 8 -12 10 -20 2z"/>
<path d="M2240 2215 c-7 -8 -8 -15 -2 -15 5 0 15 7 22 15 7 8 8 15 2 15 -5 0
-15 -7 -22 -15z"/>
<path d="M6626 2207 c10 -26 54 -48 54 -27 0 6 -5 10 -12 10 -6 0 -20 8 -30
17 -18 16 -18 16 -12 0z"/>
<path d="M2430 2181 c0 -60 22 -78 52 -43 20 22 32 62 20 62 -6 0 -13 -11 -16
-25 -9 -36 -36 -32 -36 5 0 17 -4 30 -10 30 -5 0 -10 -13 -10 -29z"/>
<path d="M8032 2190 c0 -14 2 -19 5 -12 2 6 2 18 0 25 -3 6 -5 1 -5 -13z"/>
<path d="M7160 2143 c0 -10 -9 -44 -20 -76 -30 -85 -27 -142 9 -178 26 -25 37
-29 85 -29 41 0 60 5 73 19 10 10 37 24 61 30 23 7 42 14 42 17 0 7 -51 -7
-85 -23 -16 -8 -49 -17 -72 -20 -36 -5 -48 -1 -78 21 -33 25 -35 30 -35 85 0
51 4 64 36 105 31 41 33 47 17 53 -10 3 -21 8 -25 10 -5 2 -8 -4 -8 -14z"/>
<path d="M2735 2120 c-8 -24 -35 -27 -35 -4 0 19 -24 13 -27 -7 -9 -46 54 -50
75 -4 14 31 15 35 3 35 -5 0 -13 -9 -16 -20z"/>
<path d="M6730 2126 c0 -2 7 -7 16 -10 8 -3 12 -2 9 4 -6 10 -25 14 -25 6z"/>
<path d="M2130 2106 c0 -13 20 -26 41 -26 18 0 8 17 -16 28 -20 9 -25 9 -25
-2z"/>
<path d="M8033 2015 c-1 -66 2 -103 7 -95 6 10 10 -2 13 -35 2 -36 4 -27 5 31
1 44 -2 84 -7 90 -6 5 -11 34 -13 64 -2 30 -5 6 -5 -55z"/>
<path d="M2326 2086 c7 -18 32 -28 39 -16 3 5 -3 14 -14 19 -26 15 -31 14 -25
-3z"/>
<path d="M2857 2093 c-4 -3 -7 -21 -7 -40 0 -26 4 -33 20 -33 22 0 46 35 30
45 -5 3 -10 -1 -10 -9 0 -9 -5 -16 -11 -16 -7 0 -9 11 -5 30 5 28 -2 38 -17
23z"/>
<path d="M6681 2054 c0 -11 3 -14 6 -6 3 7 2 16 -1 19 -3 4 -6 -2 -5 -13z"/>
<path d="M7200 2052 c0 -4 9 -8 20 -9 11 -1 20 2 20 8 0 5 -9 9 -20 9 -11 0
-20 -4 -20 -8z"/>
<path d="M2020 2016 c0 -19 73 -82 78 -67 5 14 -48 79 -65 80 -7 1 -13 -5 -13
-13z"/>
<path d="M6695 2005 c7 -31 12 -41 19 -34 2 2 -3 18 -11 34 l-14 30 6 -30z"/>
<path d="M2495 1993 c4 -16 8 -30 11 -32 7 -7 54 18 54 29 0 7 -6 8 -19 0 -16
-8 -21 -6 -26 10 -10 31 -28 24 -20 -7z"/>
<path d="M7411 1994 c0 -11 3 -14 6 -6 3 7 2 16 -1 19 -3 4 -6 -2 -5 -13z"/>
<path d="M2250 1989 c0 -7 -10 -9 -25 -5 -27 7 -32 -3 -13 -22 16 -16 23 -15
42 4 18 18 21 34 6 34 -5 0 -10 -5 -10 -11z"/>
<path d="M7284 1964 c-8 -20 -13 -38 -11 -40 2 -2 11 14 20 36 19 50 12 53 -9
4z"/>
<path d="M2110 1930 c0 -11 33 -30 52 -30 7 1 3 9 -11 20 -25 22 -41 26 -41
10z"/>
<path d="M6781 1887 c-6 -6 -11 -20 -10 -31 0 -19 1 -18 10 4 8 18 12 21 18
11 5 -7 13 -12 18 -10 5 2 1 11 -8 21 -12 12 -20 13 -28 5z"/>
<path d="M1895 1872 c-1 -1 -67 -7 -146 -13 -203 -14 -202 -14 -224 -23 -67
-27 -103 -38 -125 -41 -14 -2 -36 -8 -50 -13 -14 -5 -86 -19 -160 -31 -177
-29 -245 -48 -230 -65 6 -8 20 -14 33 -14 33 0 150 -40 159 -55 4 -6 8 -22 8
-34 0 -13 6 -23 14 -23 9 0 12 8 9 25 -5 23 -4 24 26 12 17 -6 31 -17 31 -23
0 -6 7 -18 16 -25 15 -12 16 -11 10 9 -7 21 -5 22 21 16 49 -11 113 -47 119
-66 4 -13 12 -17 23 -13 12 3 30 -5 51 -25 18 -16 38 -30 45 -30 6 0 20 -9 30
-20 9 -10 38 -27 64 -35 25 -9 69 -25 96 -35 28 -9 77 -23 110 -30 33 -7 80
-18 105 -26 68 -20 233 -44 309 -44 38 0 88 -7 111 -15 52 -18 460 -22 562 -5
35 5 125 17 200 25 76 8 147 19 157 25 11 5 27 10 36 10 9 0 31 6 48 14 18 7
73 27 122 43 50 17 128 45 175 62 47 17 91 31 98 31 7 0 12 -13 12 -32 0 -39
17 -26 22 17 4 35 33 42 33 8 0 -12 4 -25 8 -29 4 -4 7 9 7 28 0 23 6 38 15
42 18 7 30 -16 22 -44 -3 -11 -1 -20 3 -20 5 0 11 18 15 41 l7 41 42 -4 c22
-3 52 -1 65 4 l24 8 -23 20 c-12 11 -39 22 -59 26 -20 3 -54 11 -76 17 -22 6
-49 12 -60 13 -11 1 -66 18 -123 38 -57 20 -110 36 -119 36 -8 0 -52 11 -97
24 -44 14 -110 30 -146 36 -36 6 -92 25 -125 42 -35 18 -93 36 -140 44 -44 7
-104 18 -133 23 -38 8 -60 8 -74 0 -28 -15 -17 -21 44 -24 108 -6 204 -28 289
-66 48 -22 97 -39 110 -39 31 0 198 -43 226 -58 12 -7 39 -12 61 -12 22 0 59
-9 83 -20 24 -11 55 -20 69 -20 14 0 35 -6 46 -14 12 -8 45 -18 75 -21 100
-11 119 -16 119 -29 0 -9 -21 -15 -63 -19 -57 -5 -359 -95 -567 -168 -184 -64
-487 -103 -745 -94 -99 4 -202 11 -229 16 -27 5 -76 9 -110 9 -65 0 -274 32
-316 48 -14 5 -64 17 -110 27 -47 9 -96 23 -110 30 -14 8 -47 22 -75 31 -27
10 -99 51 -160 91 -78 53 -132 81 -190 99 -44 14 -105 36 -135 49 -30 13 -73
30 -95 38 l-40 15 40 11 c22 6 69 16 105 22 85 14 298 65 380 91 38 12 102 22
155 24 50 2 128 8 175 14 47 6 97 9 113 6 30 -6 37 9 8 19 -18 5 -99 3 -106
-3z"/>
<path d="M8056 1735 c6 -90 28 -188 64 -280 15 -39 53 -95 64 -95 5 0 2 8 -6
18 -50 56 -105 237 -109 355 -2 43 -7 83 -11 90 -4 7 -5 -33 -2 -88z"/>
<path d="M1833 1799 c-18 -5 -33 -11 -33 -12 0 -1 24 -2 52 -2 29 -1 69 -5 88
-9 49 -12 26 7 -26 22 -23 7 -43 12 -45 11 -2 0 -19 -5 -36 -10z"/>
<path d="M2430 1720 c8 -5 20 -10 25 -10 6 0 3 5 -5 10 -8 5 -19 10 -25 10 -5
0 -3 -5 5 -10z"/>
<path d="M2474 1723 c7 -7 77 -5 85 3 2 2 -17 4 -44 4 -27 0 -45 -3 -41 -7z"/>
<path d="M6430 1680 c0 -6 7 -10 15 -10 8 0 15 2 15 4 0 2 -7 6 -15 10 -8 3
-15 1 -15 -4z"/>
<path d="M6565 1671 c44 -5 121 -11 170 -15 50 -4 121 -12 158 -17 38 -6 71
-9 73 -6 13 12 -179 34 -356 41 -101 4 -110 3 -45 -3z"/>
<path d="M3035 1659 c17 -6 62 -10 100 -10 39 1 88 -4 110 -10 77 -20 85 -21
85 -11 0 17 -92 34 -210 37 -86 3 -107 1 -85 -6z"/>
<path d="M977 1648 c-8 -23 -2 -121 8 -125 6 -2 10 25 10 67 0 65 -7 87 -18
58z"/>
<path d="M1037 1581 c6 -86 20 -86 29 0 5 51 4 53 -10 29 l-14 -25 -5 25 c-2
14 -3 0 0 -29z"/>
<path d="M6206 1632 c13 -12 107 -47 204 -78 47 -14 117 -37 157 -50 40 -13
91 -26 115 -30 24 -3 65 -12 91 -20 27 -7 83 -16 125 -18 l77 -5 -75 13 c-86
15 -276 63 -400 101 -47 14 -111 32 -142 40 -56 14 -67 18 -115 43 -26 14 -52
16 -37 4z"/>
<path d="M6395 1630 c123 -20 216 -33 295 -40 99 -9 342 -52 449 -80 40 -10
70 -15 65 -11 -10 9 -133 41 -279 72 -49 11 -142 24 -205 29 -63 5 -131 14
-150 19 -19 5 -78 11 -130 14 -69 4 -81 3 -45 -3z"/>
<path d="M6980 1626 c0 -6 102 -38 107 -33 2 3 -17 12 -43 21 -48 16 -64 19
-64 12z"/>
<path d="M1099 1599 c-14 -27 4 -50 23 -31 9 9 9 12 -1 12 -8 0 -10 7 -6 20 8
26 -1 26 -16 -1z"/>
<path d="M7190 1595 c14 -8 30 -14 35 -14 6 0 -1 6 -15 14 -14 8 -29 14 -35
14 -5 0 1 -6 15 -14z"/>
<path d="M7110 1580 c8 -5 20 -10 25 -10 6 0 3 5 -5 10 -8 5 -19 10 -25 10 -5
0 -3 -5 5 -10z"/>
<path d="M8130 1565 c0 -5 5 -17 10 -25 5 -8 10 -10 10 -5 0 6 -5 17 -10 25
-5 8 -10 11 -10 5z"/>
<path d="M3100 1541 c0 -9 181 -23 189 -15 2 2 1 7 -3 11 -9 10 -186 13 -186
4z"/>
<path d="M1703 1503 c-18 -2 -33 -9 -33 -15 0 -6 12 -8 31 -4 17 3 55 7 83 7
44 1 47 2 21 9 -33 8 -53 9 -102 3z"/>
<path d="M2233 1463 c-35 -2 -63 -8 -63 -13 0 -11 92 -13 128 -4 23 7 32 25
10 22 -7 -1 -41 -3 -75 -5z"/>
<path d="M8399 1456 c8 -10 9 -16 1 -21 -6 -3 -8 -10 -5 -15 3 -5 1 -11 -5
-15 -6 -4 -10 6 -10 24 0 23 -4 29 -15 24 -23 -8 -47 -62 -41 -89 7 -27 21
-31 30 -9 9 23 23 18 34 -12 l10 -28 1 31 c1 17 10 43 21 57 24 30 24 34 6 53
-20 19 -43 19 -27 0z m-48 -53 c-8 -15 -10 -15 -11 -2 0 17 10 32 18 25 2 -3
-1 -13 -7 -23z"/>
<path d="M3333 1453 c-13 -2 -23 -9 -23 -14 0 -11 54 -3 80 12 11 6 9 8 -10 7
-14 0 -35 -3 -47 -5z"/>
<path d="M7355 1453 c11 -2 52 -14 90 -25 39 -12 97 -22 130 -24 33 -2 73 -8
90 -13 51 -15 95 -21 95 -12 0 8 -79 24 -339 71 -54 10 -106 12 -66 3z"/>
<path d="M3190 1440 c0 -13 40 -13 60 0 11 7 5 10 -22 10 -21 0 -38 -4 -38
-10z"/>
<path d="M6990 1429 c0 -4 21 -9 48 -11 26 -3 56 -8 67 -13 15 -6 17 -5 9 4
-13 14 -124 32 -124 20z"/>
<path d="M3690 1386 c0 -14 5 -28 10 -31 6 -4 10 7 10 24 0 17 -4 31 -10 31
-5 0 -10 -11 -10 -24z"/>
<path d="M8470 1384 c-16 -41 -13 -56 10 -49 14 5 20 2 20 -9 0 -23 37 -20 50
5 7 11 9 23 6 26 -3 3 -8 -2 -12 -11 -10 -27 -24 -18 -24 16 0 31 0 31 -21 12
-22 -19 -22 -19 -15 9 8 34 -1 35 -14 1z"/>
<path d="M7231 1386 c9 -9 297 -18 302 -10 3 5 -65 10 -151 11 -85 2 -153 1
-151 -1z"/>
<path d="M1994 1371 c15 -23 82 -26 409 -18 111 2 161 7 170 16 10 11 6 12
-19 7 -46 -10 -515 -11 -543 -2 -16 6 -21 5 -17 -3z"/>
<path d="M3637 1373 c-4 -3 -7 -11 -7 -17 0 -6 5 -5 12 2 6 6 9 14 7 17 -3 3
-9 2 -12 -2z"/>
<path d="M8241 1325 c25 -46 76 -102 84 -93 5 5 -13 29 -80 103 l-27 30 23
-40z"/>
<path d="M8597 1338 c-8 -29 0 -40 24 -33 12 4 21 1 25 -9 3 -9 12 -16 20 -16
17 0 47 45 41 62 -3 8 -9 2 -16 -14 -14 -38 -31 -35 -31 5 -1 26 -2 29 -11 15
-12 -22 -44 -24 -35 -3 3 8 2 15 -3 15 -5 0 -11 -10 -14 -22z"/>
<path d="M2768 1333 c-87 -2 -158 -7 -158 -11 0 -10 181 -15 268 -7 39 4 72
11 72 16 0 5 -6 8 -12 7 -7 -1 -84 -4 -170 -5z"/>
<path d="M7155 1330 c-74 -4 -88 -7 -55 -10 65 -7 180 0 180 11 0 5 -6 8 -12
7 -7 -1 -58 -4 -113 -8z"/>
<path d="M8710 1280 c0 -5 5 -10 11 -10 5 0 7 5 4 10 -3 6 -8 10 -11 10 -2 0
-4 -4 -4 -10z"/>
<path d="M8550 1240 c0 -5 5 -10 10 -10 6 0 10 5 10 10 0 6 -4 10 -10 10 -5 0
-10 -4 -10 -10z"/>
<path d="M8150 1206 c0 -2 7 -9 15 -16 9 -7 15 -8 15 -2 0 5 -7 12 -15 16 -8
3 -15 4 -15 2z"/>
<path d="M8932 851 c-10 -6 -11 -28 -3 -110 6 -57 11 -104 11 -106 0 -1 -23
-5 -51 -8 -67 -8 -110 -34 -134 -82 -16 -33 -19 -62 -20 -165 0 -185 18 -214
135 -215 36 0 71 -4 78 -8 16 -11 92 -6 115 7 22 14 22 25 0 41 -25 18 -35
161 -21 300 14 150 2 303 -26 334 -17 18 -64 25 -84 12z m70 -44 c13 -23 15
-158 8 -437 -2 -98 0 -152 8 -167 10 -19 9 -23 -9 -28 -12 -4 -25 -3 -29 2 -4
4 -11 107 -14 228 -3 121 -9 265 -12 320 -6 98 -6 101 15 102 12 1 26 -7 33
-20z m-97 -218 c-4 -5 -12 -9 -20 -9 -7 0 -25 -24 -40 -52 -31 -60 -35 -136
-13 -243 12 -54 16 -61 45 -70 51 -17 50 -25 -1 -25 -54 0 -102 21 -110 48
-24 73 -9 278 23 322 25 34 136 62 116 29z m34 -56 c5 -21 10 -98 11 -170 l1
-133 -29 0 c-51 0 -61 17 -71 119 -12 110 -7 144 26 189 32 42 50 41 62 -5z"/>
<path d="M3283 843 c-29 -5 -29 -5 3 -60 29 -49 30 -55 8 -484 -7 -124 -6
-126 17 -142 36 -26 55 -21 81 20 20 34 23 50 23 145 l0 108 27 0 c23 0 29 -7
48 -57 12 -32 28 -81 35 -110 25 -94 44 -113 107 -106 59 8 60 18 22 128 -65
189 -74 219 -71 229 2 5 19 15 38 21 19 7 40 23 48 37 12 21 12 30 -4 71 -10
26 -22 47 -27 47 -5 0 -45 -25 -91 -55 -84 -56 -120 -67 -131 -39 -3 9 -6 62
-6 119 0 77 -4 106 -14 114 -16 13 -77 20 -113 14z m102 -56 c4 -18 5 -75 3
-127 -3 -91 -2 -94 21 -106 21 -11 32 -9 75 13 28 14 68 39 89 55 42 34 63 31
73 -8 6 -22 2 -31 -15 -43 -13 -9 -36 -28 -53 -42 l-31 -25 26 -65 c47 -121
78 -221 73 -236 -4 -9 -16 -13 -33 -11 -26 3 -31 11 -74 138 l-45 135 -35 -3
c-58 -6 -67 -22 -62 -112 7 -122 -29 -211 -66 -166 -16 19 -16 45 -2 269 13
187 12 257 -5 335 -6 31 -5 32 24 32 27 0 32 -4 37 -33z"/>
<path d="M2486 808 c-8 -13 -24 -70 -36 -127 -11 -57 -27 -126 -34 -155 -40
-149 -60 -218 -83 -283 -30 -86 -24 -103 38 -103 50 0 60 15 108 167 l38 118
39 3 40 3 17 -54 c9 -30 17 -67 17 -83 0 -43 27 -136 42 -146 18 -11 69 0 91
21 17 16 17 21 -7 112 -14 52 -30 121 -36 154 -7 33 -18 78 -25 100 -7 22 -16
74 -20 115 -7 74 -38 159 -59 165 -6 2 -34 6 -63 9 -47 6 -54 4 -67 -16z m140
-53 c9 -22 18 -62 20 -90 2 -27 8 -68 13 -90 5 -22 16 -76 25 -120 10 -44 28
-122 42 -173 13 -52 22 -98 18 -103 -3 -5 -16 -9 -29 -9 -20 0 -26 8 -39 54
-9 30 -19 76 -22 103 -7 56 -22 101 -41 124 -11 13 -22 15 -48 9 -19 -4 -36
-5 -39 -2 -11 10 -35 -20 -41 -51 -11 -53 -67 -211 -82 -228 -19 -22 -53 -13
-53 15 0 11 9 45 20 74 11 30 31 95 45 145 13 51 30 117 38 147 8 30 23 91 32
135 9 44 18 85 20 91 2 6 26 10 54 10 50 -1 51 -2 67 -41z"/>
<path d="M2530 718 c-1 -2 -2 -29 -5 -62 -2 -32 -9 -71 -15 -87 -20 -48 -8
-62 48 -54 64 9 78 24 63 66 -6 17 -11 44 -11 59 0 32 -26 66 -57 75 -13 3
-23 5 -23 3z m54 -65 c20 -103 20 -100 -14 -108 -17 -4 -33 -5 -36 -2 -4 4 11
93 21 125 7 21 23 13 29 -15z"/>
<path d="M5366 808 c-10 -13 -16 -44 -16 -75 0 -69 14 -76 145 -77 l100 -1 8
-90 c4 -49 5 -160 1 -247 -7 -177 -6 -178 75 -178 74 0 76 11 56 411 -5 97 -3
107 15 124 16 15 30 17 77 12 78 -8 93 4 93 72 0 33 -4 52 -12 53 -7 1 -56 3
-108 4 -52 2 -111 3 -130 4 -19 1 -83 -1 -142 -5 -68 -3 -109 -2 -113 5 -10
17 -33 11 -49 -12z m135 -28 c35 -1 137 0 227 3 l163 4 -3 -41 c-3 -35 -6 -41
-23 -38 -102 15 -109 15 -135 -13 l-25 -27 3 -250 2 -249 -37 3 -38 3 2 65 c1
36 3 145 4 243 3 221 9 212 -132 212 -88 0 -102 2 -115 19 -28 39 -9 95 26 76
10 -5 46 -10 81 -10z"/>
<path d="M5956 815 c-17 -13 -18 -16 -3 -47 13 -28 15 -70 10 -289 -6 -290 -1
-329 45 -329 15 0 36 7 47 16 18 14 20 27 20 165 l0 150 55 -3 c53 -3 54 -4
62 -38 4 -19 5 -81 1 -137 -5 -86 -3 -106 11 -128 20 -30 54 -33 86 -7 44 36
36 260 -13 347 -33 58 -66 77 -144 84 l-68 6 0 93 c0 86 -2 95 -24 113 -27 22
-59 24 -85 4z m70 -19 c17 -13 19 -25 17 -100 -2 -76 0 -89 18 -107 17 -17 30
-20 72 -16 93 8 133 -33 156 -163 12 -65 10 -198 -3 -219 -12 -19 -52 -13 -62
10 -6 13 -6 55 -1 108 9 94 3 164 -16 179 -7 5 -44 12 -82 14 l-70 5 0 -141
c0 -100 -4 -148 -13 -165 -12 -20 -16 -21 -28 -9 -12 12 -16 69 -19 297 -2
155 -7 286 -10 291 -7 11 2 30 14 30 4 0 16 -6 27 -14z"/>
<path d="M6991 795 c-25 -23 -49 -59 -67 -103 -24 -58 -28 -84 -32 -200 -4
-117 -2 -141 18 -202 26 -80 39 -95 100 -110 39 -10 52 -9 95 7 40 15 54 26
69 58 29 58 45 164 45 296 1 122 -13 186 -53 244 -28 41 -34 45 -88 45 -41 0
-54 -5 -87 -35z m139 -15 c18 -22 39 -62 46 -88 18 -59 20 -220 5 -332 -16
-108 -39 -146 -96 -155 -119 -17 -169 67 -167 281 1 169 46 284 125 318 47 21
52 20 87 -24z"/>
<path d="M7001 696 c-21 -43 -41 -167 -41 -257 0 -26 9 -76 20 -112 17 -54 25
-66 46 -71 74 -19 110 26 120 151 7 83 -17 264 -39 293 -41 56 -78 54 -106 -4z
m66 9 c30 -21 42 -70 50 -191 10 -167 -13 -245 -68 -231 -55 14 -72 143 -45
324 19 121 22 126 63 98z"/>
<path d="M1026 794 c-17 -12 -22 -89 -8 -112 6 -8 37 -14 86 -16 42 -2 79 -6
83 -9 3 -4 6 -120 7 -258 1 -248 1 -252 23 -266 20 -13 27 -13 62 3 29 12 42
25 45 43 3 14 5 127 5 251 0 124 0 228 0 233 1 4 29 7 64 7 36 0 71 6 81 13
23 17 34 101 15 113 -22 14 -444 12 -463 -2z m419 -24 c21 -8 26 -16 23 -38
-3 -26 -5 -27 -80 -32 -42 -3 -80 -8 -84 -13 -4 -4 -6 -119 -5 -256 2 -241 2
-250 -18 -260 -11 -6 -27 -11 -36 -11 -15 0 -16 19 -12 208 6 288 -2 334 -58
331 -11 -1 -43 -1 -71 0 -44 1 -53 4 -57 22 -12 45 -3 48 141 48 74 1 138 3
140 6 9 9 90 5 117 -5z"/>
<path d="M1560 799 l-25 -9 -2 -312 c-2 -277 -1 -314 14 -330 21 -23 45 -23
74 1 23 19 24 24 24 167 l1 148 49 -3 c28 -1 53 -5 57 -7 5 -3 8 -65 8 -138 0
-116 2 -135 18 -149 24 -22 48 -21 70 1 16 16 19 36 20 128 2 196 -28 248
-157 269 l-66 10 -5 103 c-4 88 -8 106 -24 118 -22 16 -22 16 -56 3z m53 -56
c3 -15 3 -58 1 -97 -3 -39 -1 -77 4 -84 5 -7 40 -17 78 -23 81 -11 111 -28
130 -74 19 -46 19 -221 -1 -255 l-13 -25 -10 25 c-5 14 -9 70 -9 126 -1 148
-1 149 -98 160 -79 8 -84 -3 -78 -169 4 -108 2 -136 -10 -152 -13 -16 -18 -18
-29 -7 -10 10 -13 77 -13 308 0 293 0 294 21 294 16 0 23 -8 27 -27z"/>
<path d="M8003 783 c-24 -2 -43 -7 -43 -10 0 -3 15 -20 34 -39 51 -51 58 -95
50 -314 -7 -205 -4 -235 26 -245 60 -19 76 20 79 190 2 69 7 114 14 121 17 17
106 24 115 10 4 -6 7 -67 7 -136 0 -141 13 -180 60 -180 35 0 47 31 42 103 -8
112 -27 279 -32 287 -3 5 0 12 7 16 25 16 -56 23 -129 12 -100 -14 -104 -12
-101 66 3 60 1 67 -26 95 -17 17 -37 30 -45 29 -9 -1 -35 -3 -58 -5z m93 -34
c15 -17 19 -34 17 -83 -2 -33 2 -67 6 -75 10 -16 61 -18 146 -6 79 11 77 15
100 -285 6 -79 -5 -120 -25 -90 -22 33 -32 99 -27 181 4 83 -2 115 -27 131 -9
6 -136 -1 -145 -8 -2 -2 -6 -71 -10 -153 -7 -154 -14 -181 -44 -159 -18 15
-20 39 -18 288 1 157 0 167 -24 216 -14 28 -25 54 -25 57 0 16 59 5 76 -14z"/>
<path d="M8490 781 c0 -5 5 -13 10 -16 6 -3 10 -15 10 -26 0 -14 -7 -19 -25
-19 -24 0 -30 10 -26 50 1 11 -3 10 -14 -4 -43 -55 21 -105 72 -56 17 15 20
26 14 47 -7 26 -41 46 -41 24z"/>
<path d="M7815 652 c-33 -6 -92 -71 -116 -126 -69 -159 -3 -356 123 -368 69
-6 119 25 136 87 18 62 -30 86 -87 44 -16 -12 -37 -19 -46 -17 -26 5 -46 71
-48 160 -1 69 1 79 22 102 28 30 41 32 82 10 28 -14 33 -14 55 1 17 11 24 24
22 38 -5 34 -97 79 -143 69z m95 -37 c32 -17 35 -22 20 -45 -8 -12 -13 -13
-30 -2 -31 19 -76 14 -107 -12 -25 -21 -28 -31 -31 -101 -6 -112 24 -205 66
-205 8 0 31 10 52 21 61 35 94 3 51 -48 -53 -64 -149 -46 -200 36 -49 80 -50
164 -4 276 28 67 60 95 110 95 24 0 57 -7 73 -15z"/>
<path d="M7358 633 c-10 -2 -18 -9 -18 -14 0 -5 -12 -9 -26 -9 -22 0 -25 -2
-14 -15 7 -8 18 -15 26 -15 18 0 33 -30 35 -71 4 -59 -12 -263 -23 -297 -14
-47 3 -64 61 -60 64 4 73 25 67 148 -3 52 -8 116 -12 143 -5 37 -4 47 7 47 8
0 30 8 49 19 l35 18 12 -28 c12 -29 35 -37 62 -20 12 8 13 16 3 49 -7 22 -12
51 -12 65 0 33 -30 43 -69 23 -40 -21 -74 -20 -121 4 -22 11 -41 19 -42 19 -2
-1 -11 -3 -20 -6z m152 -46 c16 3 35 12 41 19 16 20 39 17 40 -3 0 -10 2 -25
4 -33 16 -67 17 -80 7 -80 -7 0 -18 14 -27 30 -9 17 -18 30 -21 30 -3 0 -33
-12 -66 -27 -59 -28 -60 -28 -54 -63 4 -19 10 -86 13 -149 6 -103 4 -115 -12
-127 -20 -15 -61 -19 -68 -6 -5 7 2 81 22 267 10 87 9 91 -14 127 -30 46 -19
51 53 27 31 -11 65 -16 82 -12z"/>
<path d="M2800 617 c0 -8 9 -22 20 -32 31 -28 40 -79 40 -230 0 -109 3 -145
15 -162 21 -30 78 -47 123 -37 20 4 61 8 90 9 80 2 84 9 88 166 1 73 6 150 9
171 4 20 1 53 -5 73 -10 31 -16 35 -44 35 l-33 0 1 -144 c1 -164 -2 -171 -65
-170 -65 2 -73 18 -75 140 -1 125 -16 157 -77 162 -19 2 -41 10 -47 18 -16 18
-40 18 -40 1z m352 -153 c-2 -60 -7 -145 -10 -189 l-7 -80 -60 -8 c-74 -10
-137 -1 -165 21 -18 15 -21 30 -24 152 -2 74 -7 152 -11 173 -6 33 -5 37 13
37 36 0 45 -26 51 -153 l6 -122 38 -19 c41 -20 89 -17 123 8 17 13 19 29 21
153 2 162 0 146 16 140 9 -3 11 -32 9 -113z"/>
<path d="M8510 613 c-9 -2 -21 -12 -28 -23 -9 -15 -8 -22 5 -36 15 -14 16 -39
14 -186 -3 -197 1 -208 74 -208 31 0 47 6 65 25 l23 25 -26 24 c-15 14 -28 26
-28 28 -1 2 -5 66 -9 143 -9 175 -29 221 -90 208z m52 -75 c11 -34 17 -91 17
-161 1 -101 9 -142 34 -158 19 -13 -2 -39 -31 -39 -49 0 -52 13 -51 191 0 90
-2 176 -6 192 -5 20 -3 27 7 27 9 0 21 -21 30 -52z"/>
<path d="M6429 558 c-43 -48 -54 -90 -54 -221 l0 -119 33 -29 c66 -59 205 -34
231 43 15 42 14 70 -3 93 -13 18 -15 18 -40 2 -14 -10 -29 -28 -32 -42 -8 -33
-46 -43 -79 -21 -21 14 -25 24 -25 65 l0 49 75 0 c94 0 110 12 118 85 7 67 -8
90 -69 111 -77 26 -120 22 -155 -16z m147 1 c33 -9 48 -18 55 -36 11 -29 1
-100 -15 -111 -6 -4 -47 -9 -91 -12 l-80 -5 -3 -56 c-4 -73 16 -99 75 -102 45
-1 72 19 73 55 0 23 20 34 31 17 5 -8 8 -30 7 -49 -4 -42 -54 -82 -96 -75
-108 17 -103 15 -119 53 -12 29 -14 61 -10 142 9 182 38 213 173 179z"/>
<path d="M6471 516 c-39 -41 -25 -61 45 -64 46 -2 64 1 74 13 11 13 9 20 -15
45 -35 37 -73 39 -104 6z m92 -14 c23 -25 13 -32 -45 -32 -33 0 -48 4 -48 13
0 37 65 50 93 19z"/>
<path d="M2011 562 c-47 -23 -72 -76 -80 -170 -7 -82 1 -152 20 -189 16 -30
87 -64 119 -57 46 11 90 35 105 58 24 36 30 109 11 125 -23 20 -60 1 -82 -41
-37 -72 -68 -67 -78 11 -9 66 -1 83 31 70 40 -15 96 -10 123 11 22 16 25 26
24 74 -1 66 -25 100 -83 116 -49 13 -70 12 -110 -8z m153 -45 c16 -22 18 -30
7 -36 -9 -6 -10 -11 -2 -15 16 -10 13 -52 -4 -66 -11 -9 -35 -11 -79 -7 -47 4
-67 3 -75 -7 -14 -16 -8 -124 8 -154 22 -41 76 -17 109 48 33 68 68 28 38 -44
-17 -40 -46 -56 -105 -56 -72 0 -101 54 -100 180 1 156 25 193 122 188 52 -3
63 -7 81 -31z"/>
<path d="M2042 512 c-28 -14 -33 -21 -30 -47 l3 -30 65 0 c64 0 65 0 68 28 4
34 -22 67 -52 66 -12 0 -36 -8 -54 -17z m81 -23 c6 -21 3 -23 -46 -33 -35 -8
-50 20 -22 40 28 21 62 17 68 -7z"/>
<path d="M9175 256 c-46 -46 -22 -106 43 -106 61 0 69 86 11 115 -28 15 -31
14 -54 -9z m51 -32 c13 -19 14 -28 5 -37 -17 -17 -45 4 -49 37 -4 34 22 35 44
0z"/>
<path d="M3774 235 c-16 -40 -10 -81 14 -90 25 -9 102 6 102 21 0 7 -4 15 -10
19 -5 3 -7 11 -5 18 3 7 1 17 -3 23 -6 9 -69 44 -79 44 -2 0 -11 -16 -19 -35z
m65 -47 c-12 -23 -32 -19 -37 7 -5 22 18 37 35 23 9 -7 10 -15 2 -30z"/>
</g>
</svg>
