<?xml version="1.0" standalone="no"?>
<!DOCTYPE svg PUBLIC "-//W3C//DTD SVG 20010904//EN"
 "http://www.w3.org/TR/2001/REC-SVG-20010904/DTD/svg10.dtd">
<svg version="1.0" xmlns="http://www.w3.org/2000/svg"
 width="1350.000000pt" height="760.000000pt" viewBox="0 0 1350.000000 760.000000"
 preserveAspectRatio="xMidYMid meet">
<metadata>
Created by potrace 1.16, written by Peter Selinger 2001-2019
</metadata>
<g transform="translate(0.000000,760.000000) scale(0.100000,-0.100000)"
fill="#000000" stroke="none">
<path d="M45 3800 c0 -2605 1 -2903 2 -946 3 2721 4 2858 21 2844 9 -9 34 -21
54 -27 21 -7 40 -21 43 -32 7 -22 30 -35 130 -74 39 -15 75 -32 82 -37 8 -6
24 -4 47 7 26 12 39 14 53 6 17 -10 17 -10 0 -11 -14 0 -18 -7 -15 -27 2 -21
9 -29 28 -31 105 -11 107 -12 102 -37 -2 -14 -8 -25 -13 -25 -5 0 -9 -6 -9
-14 0 -16 44 -27 80 -20 19 4 27 0 35 -17 9 -20 18 -23 73 -24 41 0 66 -5 71
-14 5 -7 19 -18 32 -25 19 -9 24 -19 24 -51 l0 -40 55 -2 c30 -1 73 -2 95 -3
l40 -1 -35 -13 c-34 -13 -35 -15 -32 -57 4 -48 16 -61 48 -53 12 3 25 0 29 -6
8 -13 66 -3 77 13 4 6 2 17 -4 25 -9 10 -3 22 25 50 21 21 37 41 37 45 0 13
-41 48 -68 58 -15 6 -45 8 -68 4 -33 -5 -44 -2 -59 15 -17 19 -17 21 0 40 10
11 34 23 54 26 50 9 91 32 91 50 0 25 -49 36 -125 27 -85 -10 -105 -7 -105 17
0 10 -6 21 -12 23 -7 3 -1 6 14 6 16 1 37 10 49 22 19 19 29 20 88 16 36 -3
78 -9 93 -12 24 -6 29 -3 38 21 9 22 8 31 -4 43 -13 13 -21 13 -49 3 -46 -16
-68 -15 -82 5 -8 11 -26 17 -49 17 -48 0 -46 12 4 20 46 7 54 31 15 46 -21 8
-36 5 -74 -15 -27 -13 -51 -31 -55 -40 -8 -21 10 -55 29 -55 8 0 15 -4 15 -10
0 -15 -37 -12 -43 4 -4 9 -30 16 -76 21 -39 4 -71 10 -71 15 0 4 21 15 47 25
27 10 68 30 93 46 25 15 57 32 71 37 46 18 147 88 194 136 26 25 50 46 54 46
4 0 16 8 27 18 10 9 35 29 54 43 19 15 47 38 63 53 26 24 171 106 188 106 4 0
34 17 66 38 32 21 78 46 103 56 46 19 81 33 209 86 40 16 77 30 82 30 5 0 -16
-25 -47 -55 -32 -30 -62 -55 -69 -55 -7 0 -20 -9 -30 -20 -14 -16 -15 -23 -6
-34 10 -12 8 -17 -9 -26 -32 -17 -23 -53 15 -60 24 -4 26 -7 13 -12 -28 -11
-23 -48 6 -48 22 0 24 -4 21 -37 -1 -21 -6 -46 -10 -56 -18 -43 43 -62 88 -27
15 12 40 23 58 25 38 5 43 9 36 30 -4 9 -19 15 -42 15 -19 0 -35 5 -35 11 0 7
20 10 58 7 51 -3 57 -1 57 16 0 13 -10 23 -30 29 -36 12 -31 8 -39 33 -5 18
-1 24 24 32 17 7 30 18 30 28 0 14 -7 15 -41 10 -23 -4 -60 -15 -82 -26 -32
-16 -43 -17 -49 -8 -4 7 -6 17 -5 22 5 16 162 66 236 75 94 12 115 26 69 49
-15 7 -18 11 -8 12 8 1 24 4 35 6 11 3 46 7 78 11 61 6 62 8 47 47 -9 24 -7
26 19 26 16 0 39 8 51 18 20 16 21 19 6 31 -9 8 -29 15 -44 16 -63 4 -64 7
-12 20 98 23 286 35 405 24 61 -5 148 -11 195 -14 47 -3 103 -11 125 -19 22
-8 65 -17 95 -20 30 -3 66 -14 80 -25 14 -10 40 -22 58 -26 17 -3 34 -11 37
-16 4 -5 17 -9 30 -9 13 0 26 -4 29 -9 3 -4 26 -16 52 -26 43 -16 178 -102
249 -159 17 -13 71 -45 120 -71 50 -26 113 -62 140 -80 47 -31 139 -73 195
-90 14 -4 32 -13 40 -20 40 -33 278 -95 392 -102 69 -4 79 -2 99 18 20 20 21
23 6 34 -10 7 -36 10 -64 8 -28 -3 -74 3 -108 12 -33 9 -86 23 -118 31 -32 8
-85 28 -118 45 -33 18 -75 35 -92 39 -18 4 -31 12 -30 18 2 7 -9 12 -26 12
-17 0 -32 4 -36 9 -3 5 -18 12 -35 16 -16 3 -39 14 -52 24 -13 10 -38 23 -55
29 -18 6 -54 27 -79 46 -26 20 -52 36 -57 36 -6 0 -31 17 -56 38 -70 57 -119
92 -129 92 -5 0 -15 7 -23 16 -14 17 -128 77 -169 88 -14 4 -67 29 -119 54
-100 50 -114 53 -341 72 -63 5 -158 13 -211 19 -53 5 -119 7 -145 5 -94 -8
-229 -25 -264 -34 -19 -5 -57 -11 -85 -14 -59 -6 -431 -127 -500 -162 -11 -6
-58 -26 -105 -44 -47 -19 -125 -60 -175 -92 -49 -32 -95 -58 -102 -58 -22 0
-108 -50 -148 -87 -104 -94 -352 -270 -457 -323 -35 -17 -73 -37 -84 -44 -15
-8 -66 -11 -155 -9 -180 3 -263 17 -316 54 -23 16 -50 29 -60 29 -20 0 -69 23
-116 54 -16 11 -37 16 -52 14 l-25 -5 -3 916 c-1 504 -2 -796 -2 -2889z m2155
2420 c0 -5 -7 -10 -16 -10 -8 0 -12 5 -9 10 3 6 10 10 16 10 5 0 9 -4 9 -10z
m-1410 -729 c0 -43 -53 -56 -84 -22 -17 19 -17 20 6 24 43 8 78 7 78 -2z"/>
<path d="M13390 7569 c0 -17 4 -28 10 -24 6 3 10 17 10 31 0 13 -4 24 -10 24
-5 0 -10 -14 -10 -31z"/>
<path d="M13470 7513 c0 -28 3 -34 10 -23 13 20 13 47 0 55 -6 4 -10 -9 -10
-32z"/>
<path d="M13392 7435 c0 -16 2 -22 5 -12 2 9 2 23 0 30 -3 6 -5 -1 -5 -18z"/>
<path d="M13390 7130 c0 -19 3 -21 12 -12 9 9 9 15 0 24 -9 9 -12 7 -12 -12z"/>
<path d="M13100 7120 c0 -5 5 -10 10 -10 6 0 10 5 10 10 0 6 -4 10 -10 10 -5
0 -10 -4 -10 -10z"/>
<path d="M13391 7074 c0 -11 3 -14 6 -6 3 7 2 16 -1 19 -3 4 -6 -2 -5 -13z"/>
<path d="M12315 6318 c-59 -32 -164 -181 -151 -214 13 -34 38 -15 110 85 16
22 32 38 35 36 2 -3 -4 -18 -15 -33 -24 -33 -57 -137 -56 -174 0 -16 -5 -28
-12 -28 -17 0 -36 -58 -36 -113 0 -32 4 -47 13 -47 22 0 8 -56 -17 -70 -18 -9
-30 -9 -58 3 l-35 15 5 58 c2 34 15 80 28 107 38 76 25 127 -20 82 -27 -28
-71 -130 -76 -179 -12 -117 -54 -17 -51 122 3 152 -33 239 -116 278 -26 13
-35 13 -53 2 -18 -10 -24 -10 -27 0 -18 48 -133 -56 -133 -121 0 -13 -5 -28
-12 -35 -8 -8 -8 -15 2 -27 7 -8 10 -18 7 -21 -15 -15 74 -231 99 -241 7 -2
10 -11 7 -20 -3 -8 4 -27 15 -43 l21 -28 -57 -32 c-98 -55 -183 -125 -280
-229 -155 -167 -203 -196 -353 -216 -39 -5 -56 0 -125 34 -44 22 -101 59 -126
83 -83 76 -139 120 -181 143 -23 12 -69 49 -103 81 -94 91 -182 154 -216 154
-7 0 -25 11 -40 25 -15 14 -30 25 -34 25 -3 0 -45 26 -92 57 -48 32 -96 62
-107 68 -11 6 -29 25 -40 42 -11 17 -35 39 -53 49 -19 10 -46 28 -60 41 -15
13 -49 35 -77 48 -27 14 -66 35 -85 46 -66 41 -178 77 -385 123 -124 27 -379
26 -525 -4 -30 -6 -77 -13 -104 -16 -27 -3 -57 -9 -67 -15 -10 -5 -30 -9 -45
-9 -15 0 -41 -4 -58 -10 -63 -20 -202 -53 -231 -55 -16 -1 -41 -7 -55 -12
-152 -65 -207 -92 -280 -136 -47 -28 -87 -54 -90 -57 -3 -3 -30 -25 -60 -49
-64 -52 -135 -116 -202 -183 -46 -46 -62 -67 -143 -193 -82 -126 -157 -187
-306 -245 -108 -43 -388 -64 -482 -36 -29 8 -81 20 -117 26 -36 7 -69 15 -75
20 -5 4 -24 11 -41 14 -23 5 -34 2 -48 -13 -18 -20 -18 -21 0 -50 27 -42 115
-99 181 -117 124 -34 151 -38 243 -38 100 0 208 12 225 24 18 12 98 29 174 35
44 4 96 16 129 31 30 13 56 24 58 24 1 0 13 -18 25 -40 13 -22 26 -40 30 -40
5 0 15 -21 23 -47 35 -116 69 -161 96 -127 11 12 9 25 -6 71 -10 32 -29 72
-41 90 -13 19 -23 42 -23 53 0 10 -4 21 -10 25 -5 3 -7 12 -3 20 7 20 -15 45
-40 45 -11 0 -25 8 -32 17 -12 16 -15 16 -51 0 -22 -9 -59 -21 -84 -28 -25 -6
-53 -18 -63 -27 -15 -14 -20 -14 -27 -2 -6 9 -2 17 13 25 12 6 33 18 47 27 14
9 37 18 52 22 15 3 57 34 93 68 50 46 69 58 78 49 8 -8 7 -19 -7 -42 -20 -34
-15 -43 32 -55 12 -4 22 -14 22 -24 0 -12 10 -21 29 -25 20 -4 31 -13 33 -28
2 -16 11 -23 31 -25 17 -2 27 1 27 10 1 9 4 9 13 -3 7 -9 23 -22 36 -29 22
-11 23 -14 8 -25 -22 -16 -22 -35 1 -35 9 0 23 -9 30 -20 17 -27 59 -26 67 1
4 12 2 26 -4 32 -6 6 -11 23 -11 39 0 19 -9 34 -29 49 -24 18 -29 27 -24 49 3
15 0 31 -6 34 -17 11 -50 -12 -57 -40 l-6 -25 -14 26 c-12 23 -11 30 2 50 24
37 5 152 -31 177 -5 4 -1 15 10 28 12 13 19 38 21 71 2 46 1 49 -18 43 -29 -9
-20 4 44 64 l56 53 7 -30 c9 -40 28 -55 54 -42 32 17 36 -5 7 -40 -33 -38 -32
-45 1 -63 18 -9 28 -22 28 -37 0 -18 5 -24 21 -23 18 0 20 -3 11 -16 -14 -24
-2 -50 23 -50 13 0 28 12 38 30 16 29 32 39 32 21 0 -4 -12 -26 -26 -47 -29
-43 -24 -67 17 -72 13 -2 29 -13 37 -23 7 -10 20 -19 29 -19 12 0 14 -7 10
-29 -8 -38 14 -58 47 -43 17 8 25 21 29 53 7 52 3 59 -29 59 -13 0 -24 5 -24
10 0 6 9 10 21 10 52 0 84 55 39 67 -19 5 -28 23 -12 23 8 0 32 43 32 56 0 3
-13 10 -30 15 -26 10 -28 13 -15 26 16 16 20 53 6 53 -5 0 -25 -7 -44 -15 -20
-8 -41 -15 -48 -15 -21 0 -2 24 27 34 41 15 94 77 94 110 0 22 -4 26 -27 26
-16 0 -37 -7 -47 -15 -25 -19 -37 -19 -30 0 4 8 13 15 20 15 36 0 64 32 70 81
5 34 17 64 40 94 48 62 45 76 -11 55 -19 -7 -26 -7 -23 1 2 6 19 17 38 24 19
7 59 23 89 34 61 25 76 19 66 -27 -4 -20 -20 -39 -46 -56 -21 -15 -39 -32 -39
-39 0 -7 20 -23 44 -36 l43 -24 -25 -22 c-22 -19 -24 -25 -14 -38 11 -13 10
-20 -4 -43 -17 -25 -17 -27 1 -40 10 -8 22 -14 26 -14 4 0 5 -9 2 -20 -4 -15
2 -22 21 -30 26 -9 26 -10 10 -35 -13 -20 -14 -28 -4 -40 16 -20 45 -19 65 1
22 23 45 3 24 -22 -12 -14 -11 -19 8 -34 12 -9 23 -27 25 -40 2 -15 12 -26 24
-30 12 -3 34 -20 49 -37 35 -43 69 -43 113 -2 43 40 39 64 -10 63 -33 -1 -36
1 -35 25 2 19 -3 26 -15 25 -10 -1 -18 5 -18 13 0 10 6 13 16 9 27 -10 56 12
52 42 -4 38 -43 43 -52 8 -4 -17 -13 -26 -26 -26 -13 0 -18 5 -14 15 4 8 10
15 14 15 5 0 23 26 40 57 26 46 30 60 21 75 -6 10 -11 30 -11 44 0 23 -3 26
-25 22 -14 -3 -25 -3 -25 0 0 2 11 15 25 28 14 13 25 34 25 46 0 13 9 31 20
41 24 20 28 77 5 77 -25 0 -17 17 30 64 25 26 45 55 45 66 0 16 7 20 37 20 28
0 42 -7 65 -32 l29 -33 -23 -5 c-59 -14 -6 -65 55 -53 33 6 34 0 5 -26 -17
-17 -19 -23 -8 -36 11 -13 8 -15 -17 -15 -53 0 -68 -42 -38 -100 29 -56 107
-22 84 37 -6 16 -6 31 1 41 8 15 9 15 10 -2 0 -11 7 -28 17 -38 15 -17 15 -20
-7 -43 -13 -14 -20 -30 -16 -40 3 -9 -1 -23 -9 -31 -20 -20 -8 -44 25 -50 24
-5 27 -10 26 -47 -1 -36 2 -42 21 -45 16 -2 26 3 32 20 5 13 21 36 35 51 35
40 24 63 -27 57 -16 -1 -17 2 -8 19 6 11 11 29 11 41 0 11 7 23 15 26 8 3 17
16 21 27 3 12 20 34 36 50 16 15 28 35 26 45 -4 20 -45 29 -61 13 -14 -14 -37
-14 -37 -1 0 6 6 10 14 10 7 0 19 6 26 14 6 8 25 16 42 18 47 5 46 26 -1 46
-23 9 -43 25 -46 34 -3 9 -16 18 -27 20 -12 2 -23 9 -26 17 -3 10 7 12 44 9
27 -3 56 -8 65 -12 19 -8 53 20 43 36 -5 8 7 9 37 4 24 -3 67 -9 94 -12 80 -9
81 -10 40 -55 -38 -42 -42 -65 -13 -83 15 -9 25 -3 63 34 41 40 47 43 66 31
12 -7 31 -14 42 -17 34 -6 45 -23 25 -38 -41 -30 -9 -69 38 -47 23 10 29 8 58
-24 36 -38 52 -42 81 -21 19 14 19 15 -8 40 -15 14 -34 26 -42 26 -12 0 -55
66 -55 85 0 11 38 -5 106 -45 36 -21 61 -41 55 -45 -19 -11 -12 -47 9 -52 26
-7 25 -17 -6 -48 -28 -28 -29 -62 -3 -78 12 -7 31 -6 63 3 56 15 60 37 14 74
-18 14 -29 28 -26 32 13 12 56 -6 61 -26 3 -11 14 -20 24 -20 29 0 76 -58 77
-94 1 -22 8 -34 26 -43 30 -15 80 -17 80 -3 0 13 35 -4 64 -31 11 -11 27 -19
36 -19 11 0 16 -9 15 -27 0 -22 5 -28 21 -29 12 -1 37 -13 55 -26 59 -44 117
-70 137 -59 22 12 55 -10 47 -31 -7 -18 10 -33 48 -42 35 -8 31 -30 -6 -34
-18 -2 -27 -9 -27 -22 0 -25 24 -31 49 -13 23 15 36 9 76 -33 5 -6 26 -17 45
-23 63 -23 79 -34 82 -55 2 -12 13 -25 26 -31 12 -5 22 -15 22 -22 0 -7 4 -13
10 -13 5 0 16 -15 25 -33 16 -34 44 -49 117 -61 27 -5 41 -14 50 -34 18 -37
46 -40 72 -8 19 23 25 25 60 16 22 -5 43 -7 47 -4 4 2 14 -7 23 -21 19 -29 51
-24 43 7 -4 13 7 32 33 58 40 40 64 52 54 26 -6 -16 43 -46 64 -39 26 10 13
41 -20 49 -31 6 -32 7 -10 15 12 5 26 19 31 33 6 13 34 43 63 67 29 24 91 84
138 132 88 91 130 127 155 131 8 1 24 14 35 29 12 15 28 27 36 27 8 0 14 5 14
11 0 17 21 -1 31 -28 6 -18 15 -24 32 -21 53 7 20 137 -48 191 -24 19 -39 39
-37 48 3 14 -24 83 -60 157 -19 36 4 171 32 194 21 17 23 17 46 0 21 -15 24
-23 19 -62 -18 -170 -18 -180 0 -180 15 0 17 -6 12 -44 -8 -56 2 -116 19 -116
7 0 17 -7 22 -16 5 -9 18 -14 28 -12 14 3 19 12 18 36 -3 49 13 38 21 -15 4
-27 12 -54 17 -61 6 -7 8 -28 5 -46 -11 -69 50 -74 77 -6 9 22 18 40 21 40 5
0 29 -12 146 -76 21 -11 56 -39 78 -62 23 -23 50 -42 61 -42 11 0 20 -4 20 -8
0 -5 11 -15 25 -22 26 -14 75 -101 75 -133 0 -10 10 -33 23 -50 12 -17 27 -40
32 -51 17 -34 109 -90 240 -146 107 -45 104 -43 92 -61 -14 -22 -3 -47 25 -58
23 -9 23 -9 -5 -16 -15 -4 -40 -4 -55 0 -60 15 -212 30 -297 29 -73 -1 -108
-7 -185 -33 -52 -17 -124 -36 -160 -42 -36 -6 -96 -17 -135 -24 -38 -8 -96
-16 -127 -20 -50 -6 -67 -14 -155 -79 -96 -71 -140 -117 -165 -171 -10 -22
-17 -26 -38 -22 -33 7 -42 1 -64 -46 -15 -33 -16 -42 -4 -68 20 -45 89 -55 97
-14 2 11 17 38 34 59 31 39 54 76 81 132 18 37 117 106 166 116 85 17 179 38
225 52 189 54 289 76 373 83 84 7 272 -6 272 -19 0 -18 -118 -130 -125 -118
-11 18 -36 -10 -29 -32 4 -13 -4 -32 -23 -56 -41 -51 -44 -58 -37 -76 11 -28
27 -17 94 60 115 134 121 141 113 119 -8 -24 -71 -147 -98 -191 -21 -34 -15
-64 12 -64 25 0 69 74 107 180 9 25 28 59 42 75 25 30 25 30 21 5 -9 -50 -37
-142 -52 -172 -18 -38 -19 -68 -2 -68 18 0 56 54 64 90 3 17 10 33 14 36 5 3
9 16 9 30 0 13 4 32 9 42 5 9 15 37 21 62 19 71 28 84 74 108 43 23 66 55 72
101 5 39 -13 60 -64 74 -26 8 -45 18 -42 23 3 5 12 8 20 7 35 -6 71 10 84 36
23 43 56 148 56 175 0 14 5 37 12 51 10 21 9 28 -2 35 -22 13 -37 -6 -49 -58
-5 -26 -16 -60 -24 -76 -14 -26 -15 -20 -15 89 -1 125 -11 157 -38 121 -9 -14
-14 -49 -15 -110 -1 -81 -13 -209 -18 -196 -3 6 -24 255 -30 338 -1 25 -23 29
-41 7 -9 -11 -9 -38 -1 -117 13 -119 17 -265 8 -275 -9 -9 -112 25 -139 46
-13 10 -33 21 -45 25 -13 4 -23 11 -23 16 0 5 -9 11 -20 15 -19 6 -110 126
-110 146 0 30 -103 188 -123 189 -5 0 -28 14 -52 30 -24 17 -48 30 -54 30 -5
0 -14 6 -18 13 -4 7 -20 18 -35 24 -35 16 -35 25 2 63 33 34 70 100 70 126 0
9 8 23 17 29 17 13 17 14 0 33 -27 30 -32 90 -12 137 47 111 56 180 28 214
-15 17 -22 18 -38 9z m-2840 -178 c3 -5 -1 -10 -9 -10 -9 0 -16 5 -16 10 0 6
4 10 9 10 6 0 13 -4 16 -10z m-848 -25 c-36 -32 -52 -32 -24 0 12 13 29 25 37
25 10 -1 5 -9 -13 -25z m323 -34 c0 -13 -28 -22 -35 -11 -3 4 1 11 7 13 20 8
28 8 28 -2z m-337 -83 c-25 -12 -29 -29 -12 -59 9 -18 8 -20 -13 -17 -17 2
-24 10 -26 31 -5 44 4 57 40 56 31 0 32 -1 11 -11z m-543 -188 c0 -5 -2 -10
-4 -10 -2 0 -12 -3 -20 -6 -12 -5 -15 -2 -10 10 7 17 34 22 34 6z m350 -34 c0
-2 -8 -10 -17 -17 -16 -13 -17 -12 -4 4 13 16 21 21 21 13z m79 -39 c-47 -37
-79 -57 -79 -50 0 12 72 64 79 58 2 -3 2 -6 0 -8z m-519 -117 c0 -5 -5 -10
-11 -10 -5 0 -7 5 -4 10 3 6 8 10 11 10 2 0 4 -4 4 -10z m25 -65 c-29 -23 -45
-31 -45 -20 0 6 62 45 70 45 3 0 -8 -11 -25 -25z m105 -4 c0 -5 -7 -12 -16
-15 -14 -5 -15 -4 -4 9 14 17 20 19 20 6z m-455 -211 c3 -5 -1 -10 -10 -10 -9
0 -13 5 -10 10 3 6 8 10 10 10 2 0 7 -4 10 -10z m-970 -172 c7 -7 2 -8 -15 -3
-42 13 -70 24 -70 29 0 8 74 -15 85 -26z m345 2 c-20 -13 -33 -13 -25 0 3 6
14 10 23 10 15 0 15 -2 2 -10z m-230 -20 c0 -5 -15 -10 -34 -10 -19 0 -38 5
-41 10 -4 6 10 10 34 10 23 0 41 -4 41 -10z m97 4 c-3 -3 -12 -4 -19 -1 -8 3
-5 6 6 6 11 1 17 -2 13 -5z m5948 -274 c-4 -12 -9 -19 -12 -17 -3 3 -2 15 2
27 4 12 9 19 12 17 3 -3 2 -15 -2 -27z"/>
<path d="M5735 6245 c-49 -7 -106 -18 -125 -25 -19 -7 -55 -19 -80 -28 -111
-36 -193 -89 -355 -227 -66 -56 -158 -115 -179 -115 -7 0 -19 -6 -25 -14 -22
-26 -95 -59 -133 -59 -48 0 -71 -23 -43 -43 26 -19 80 -18 112 4 15 9 54 28
88 43 76 32 199 112 246 159 66 68 239 180 277 180 7 0 24 8 38 17 14 9 44 20
67 24 23 4 65 11 92 16 28 5 60 16 72 23 18 12 35 11 125 -9 150 -32 258 -90
294 -156 28 -51 34 -63 58 -114 14 -30 26 -60 26 -67 0 -19 40 -39 130 -63
199 -54 338 -111 380 -157 l25 -27 -30 7 c-98 22 -290 36 -480 35 -278 -2
-282 -2 -296 -16 -27 -26 7 -36 118 -35 340 4 529 0 541 -13 4 -3 0 -10 -8
-16 -33 -21 -93 -29 -255 -33 -188 -6 -283 -22 -386 -66 -83 -35 -208 -70
-252 -70 -83 1 -216 -20 -260 -40 -99 -45 -272 -190 -307 -259 -11 -23 -24
-41 -28 -41 -5 0 -32 -24 -61 -52 -52 -53 -64 -89 -30 -96 25 -5 161 128 188
184 14 27 34 56 45 64 12 8 32 26 46 40 29 31 142 110 185 129 17 8 84 18 150
22 122 7 207 26 321 72 112 45 330 81 401 66 84 -17 253 16 306 60 15 12 25
12 78 -4 63 -19 82 -16 103 17 14 22 -42 106 -96 145 -41 29 -280 123 -313
123 -8 0 -34 9 -58 19 -23 11 -53 21 -67 23 -16 2 -26 10 -28 23 -2 11 -17 54
-34 95 -31 78 -77 135 -138 173 -19 12 -42 29 -50 39 -10 13 -51 24 -133 38
-133 22 -137 22 -262 5z"/>
<path d="M6170 6199 c0 -5 5 -7 10 -4 6 3 10 8 10 11 0 2 -4 4 -10 4 -5 0 -10
-5 -10 -11z"/>
<path d="M2493 6159 c-28 -15 -36 -35 -23 -60 14 -25 37 -24 45 0 8 26 42 36
71 21 12 -7 31 -10 40 -6 16 6 16 8 -3 27 -24 25 -97 34 -130 18z"/>
<path d="M5855 6049 c-49 -12 -92 -52 -107 -100 -9 -31 -8 -43 8 -76 24 -49
58 -64 144 -66 85 -2 106 14 126 99 12 54 12 60 -8 92 -21 34 -71 63 -105 61
-10 -1 -36 -5 -58 -10z m40 -49 c3 -5 -1 -10 -9 -10 -9 0 -16 5 -16 10 0 6 4
10 9 10 6 0 13 -4 16 -10z"/>
<path d="M9457 6044 c-3 -4 -23 -9 -44 -11 -51 -5 -83 -28 -83 -58 0 -31 33
-34 64 -7 21 17 21 17 4 -4 -24 -27 -23 -55 2 -61 11 -3 20 -9 20 -13 0 -5 3
-15 6 -24 4 -11 0 -16 -13 -16 -26 0 -76 -53 -71 -77 5 -27 54 -30 76 -3 9 11
28 22 42 25 14 2 38 19 54 36 27 30 27 33 11 45 -9 7 -24 10 -33 8 -13 -4 -12
-2 2 8 64 43 67 72 7 70 l-29 -1 14 35 c8 19 12 39 9 44 -7 11 -29 13 -38 4z"/>
<path d="M3792 5993 c2 -11 45 -41 114 -78 114 -62 155 -88 212 -137 18 -15
37 -28 42 -28 21 0 8 18 -35 50 -25 19 -45 39 -45 44 0 6 -19 22 -42 36 -22
14 -64 40 -92 58 -28 18 -62 35 -76 39 -14 3 -38 12 -53 20 -27 13 -28 13 -25
-4z"/>
<path d="M1469 5961 c-129 -33 -172 -64 -137 -99 8 -8 8 -15 -1 -26 -8 -9 -10
-24 -5 -38 4 -13 7 -33 5 -45 -2 -21 8 -28 32 -24 4 0 7 -9 7 -21 0 -39 23
-86 44 -92 59 -16 87 1 123 72 19 39 9 52 -39 52 -18 0 -28 5 -28 14 0 11 15
16 53 18 44 3 52 6 52 23 0 17 -8 20 -50 23 -65 4 -88 24 -25 22 25 -1 51 -1
58 -1 20 2 14 32 -8 38 -11 3 -20 8 -20 12 0 9 76 31 109 31 39 0 61 9 61 26
0 37 -116 45 -231 15z"/>
<path d="M2009 5843 c-15 -2 -35 -13 -45 -24 -15 -17 -16 -24 -6 -39 7 -11 12
-26 12 -33 0 -8 8 -21 18 -30 14 -13 21 -14 30 -5 7 7 12 18 12 26 0 7 16 20
35 28 31 12 34 18 32 47 -2 28 -6 32 -32 33 -17 1 -42 0 -56 -3z"/>
<path d="M12144 5825 c-9 -23 3 -45 26 -45 23 0 27 29 8 48 -16 16 -27 15 -34
-3z"/>
<path d="M2163 5683 c-23 -9 -15 -43 10 -43 31 0 51 15 44 34 -6 16 -29 20
-54 9z"/>
<path d="M9032 5637 c-15 -15 -25 -42 -29 -75 -5 -49 -5 -51 21 -58 20 -5 32
-1 46 14 17 18 18 29 12 78 -4 32 -12 59 -18 61 -5 2 -20 -7 -32 -20z"/>
<path d="M10115 5627 c-60 -25 -61 -27 -63 -77 -1 -30 2 -40 18 -45 26 -8 83
33 77 57 -3 11 2 20 13 23 26 8 41 30 34 49 -8 20 -17 19 -79 -7z"/>
<path d="M1433 5524 c-3 -8 -1 -20 5 -26 16 -16 42 -2 42 22 0 24 -38 28 -47
4z"/>
<path d="M10270 5520 c-24 -24 -25 -34 -5 -50 13 -10 19 -10 35 5 11 10 20 26
20 35 0 27 -28 32 -50 10z"/>
<path d="M2809 5506 c-13 -13 -29 -22 -36 -19 -7 3 -13 0 -13 -6 0 -6 -7 -11
-16 -11 -9 0 -14 -7 -12 -17 5 -28 62 -24 66 3 2 15 9 20 20 17 25 -6 54 19
46 40 -9 24 -28 21 -55 -7z"/>
<path d="M3230 5480 c-28 -28 -16 -42 28 -34 42 7 68 27 58 43 -12 18 -65 12
-86 -9z"/>
<path d="M1400 5460 c0 -5 5 -10 10 -10 6 0 10 5 10 10 0 6 -4 10 -10 10 -5 0
-10 -4 -10 -10z"/>
<path d="M3397 5460 c-27 -5 -56 -15 -65 -23 -10 -8 -25 -17 -34 -20 -23 -8
-23 -26 -2 -34 14 -5 86 5 172 24 24 6 29 32 10 51 -13 13 -12 13 -81 2z"/>
<path d="M4234 5403 c-27 -63 -3 -129 69 -191 22 -19 27 -32 25 -56 -2 -19 -9
-32 -20 -34 -12 -2 -15 2 -12 15 4 12 -9 30 -40 56 -63 52 -75 49 -74 -15 1
-29 6 -56 12 -60 7 -5 7 -10 1 -16 -6 -6 -60 -4 -135 4 -69 7 -150 13 -180 13
l-55 1 38 26 c40 27 43 40 11 60 -16 11 -26 9 -63 -8 -35 -16 -49 -18 -68 -9
-13 6 -64 10 -113 10 -82 -1 -90 -2 -90 -20 0 -10 4 -19 8 -19 5 0 15 -6 23
-12 8 -7 12 -12 10 -11 -2 2 -9 -1 -15 -6 -6 -4 -48 -11 -93 -15 -45 -3 -90
-9 -99 -13 -12 -4 -15 -1 -12 13 2 12 12 18 33 19 83 3 95 5 95 20 0 23 -35
35 -97 33 -54 -3 -58 -5 -55 -26 2 -21 -1 -23 -25 -18 -54 10 -123 10 -134 -1
-6 -6 -26 -9 -44 -6 -18 3 -41 0 -52 -5 -15 -8 -26 -6 -49 8 -43 29 -114 37
-130 16 -11 -15 -17 -16 -53 -5 -26 8 -41 18 -41 29 0 20 -19 40 -38 40 -9 0
-11 -7 -7 -20 9 -27 -5 -25 -73 9 -38 19 -85 32 -142 39 -47 6 -106 20 -131
31 -25 11 -72 23 -105 27 -32 3 -68 12 -79 19 -19 12 -191 12 -222 0 -16 -6
-17 -41 -2 -51 7 -4 72 -8 146 -10 125 -2 136 -4 150 -24 10 -14 22 -20 35
-17 11 3 32 1 47 -5 14 -6 62 -14 107 -18 88 -9 143 -31 151 -61 8 -30 91 -71
153 -74 80 -5 129 -27 185 -82 49 -48 176 -143 191 -143 4 0 20 -11 34 -25 74
-71 508 -64 725 11 38 14 78 29 87 34 10 6 23 10 28 10 6 0 28 11 48 25 20 14
47 25 59 25 13 0 23 5 23 10 0 6 8 10 18 10 11 0 27 10 38 21 10 12 36 32 56
45 47 30 75 60 99 106 29 56 24 79 -26 134 -25 27 -45 56 -45 64 0 9 -5 21
-11 27 -8 8 -8 21 1 47 14 44 7 56 -31 56 -25 0 -33 -6 -45 -37z m-1192 -308
c29 -14 63 -25 76 -25 12 0 25 -7 28 -15 4 -8 17 -15 30 -15 15 0 24 -6 24
-15 0 -23 16 -23 121 0 87 19 270 45 316 45 26 0 31 -3 26 -16 -5 -13 -15 -15
-48 -11 -28 4 -49 2 -61 -7 -18 -14 -18 -15 -1 -34 27 -29 10 -34 -97 -30 -62
2 -98 -1 -107 -9 -8 -6 -27 -16 -42 -22 -29 -11 -35 -26 -14 -33 6 -3 46 -2
87 2 41 3 91 3 110 0 64 -11 269 16 378 51 21 6 64 24 97 39 109 51 153 64
169 50 10 -7 27 -9 47 -5 24 5 30 4 27 -6 -5 -15 -91 -47 -213 -79 -44 -11
-98 -30 -120 -40 -22 -11 -65 -26 -95 -33 -30 -8 -74 -25 -98 -37 -39 -20 -53
-22 -130 -17 -61 4 -94 2 -111 -7 -37 -20 -171 -1 -171 24 0 8 -58 48 -141 98
-20 12 -59 44 -86 71 -27 26 -63 56 -81 65 -77 40 -4 50 80 11z m286 8 c-10
-2 -28 -2 -40 0 -13 2 -5 4 17 4 22 1 32 -1 23 -4z m462 -12 c0 -5 -14 -11
-31 -15 -51 -10 -66 -5 -29 9 42 16 60 18 60 6z m515 0 c-16 -14 -75 -31 -75
-21 0 4 12 13 28 18 35 13 59 15 47 3z m-371 -20 c7 -11 -58 -51 -81 -51 -14
0 -14 2 3 15 16 12 17 16 5 24 -11 7 -6 11 20 14 19 2 37 5 41 5 4 1 9 -2 12
-7z m-144 -53 c0 -7 -18 -13 -73 -21 -20 -3 -25 -1 -17 8 5 6 7 15 3 18 -3 4
15 6 40 5 26 -1 47 -6 47 -10z m-153 -24 c-3 -3 -12 -4 -19 -1 -8 3 -5 6 6 6
11 1 17 -2 13 -5z"/>
<path d="M12222 5400 c-37 -36 -42 -46 -42 -85 0 -35 6 -52 28 -76 23 -26 36
-31 88 -36 l60 -5 27 52 c31 59 33 77 13 124 -10 24 -25 38 -55 49 -59 24 -72
22 -119 -23z"/>
<path d="M2718 5383 c-9 -2 -20 -13 -23 -25 -5 -15 -12 -18 -28 -13 -12 4 -46
9 -74 12 -47 4 -53 2 -53 -14 0 -24 19 -43 41 -43 9 0 19 -7 23 -15 7 -20 32
-19 40 1 4 10 13 13 25 9 11 -3 25 1 34 9 12 13 17 13 34 1 10 -7 36 -16 56
-20 21 -4 40 -12 43 -17 11 -17 57 -30 64 -18 5 8 26 7 74 -4 37 -9 73 -13 79
-9 7 4 37 6 68 5 41 -2 58 1 62 11 5 13 18 14 92 7 17 -1 -25 -22 -53 -26 -15
-2 -52 -5 -82 -7 -55 -4 -100 -20 -100 -37 0 -12 33 -22 51 -15 8 2 59 11 114
19 143 21 259 47 267 60 13 19 9 26 -14 26 -13 0 -41 7 -64 15 -22 7 -63 16
-90 19 -183 19 -181 19 -191 1 -8 -14 -17 -15 -61 -7 -29 5 -55 5 -60 0 -14
-14 -70 2 -75 22 -5 21 -77 44 -114 37 -15 -3 -27 1 -30 9 -5 14 -22 16 -55 7z"/>
<path d="M8161 5264 c-30 -39 -27 -69 8 -84 41 -17 50 -8 47 52 -2 63 -22 74
-55 32z"/>
<path d="M2712 5243 c4 -22 38 -30 38 -10 0 8 -7 18 -16 21 -23 9 -26 8 -22
-11z"/>
<path d="M4057 5223 c-4 -3 -7 -15 -7 -25 0 -14 -8 -18 -32 -18 -42 0 -63 -13
-55 -34 5 -12 21 -16 66 -16 62 0 81 11 62 34 -13 15 4 26 40 26 22 0 24 11 7
28 -13 13 -70 17 -81 5z"/>
<path d="M1142 5034 c-18 -7 -32 -19 -32 -27 0 -14 41 -27 85 -28 19 0 19 -1
3 -13 -42 -31 -8 -68 43 -49 32 13 34 11 17 -16 -31 -50 38 -71 89 -27 27 24
28 24 9 45 -11 12 -29 21 -41 21 -16 0 -22 6 -21 18 1 13 -5 16 -28 14 -27 -3
-28 -2 -12 14 14 14 15 19 4 30 -25 23 -82 33 -116 18z"/>
<path d="M8396 4901 c-46 -48 -11 -71 40 -28 18 16 25 30 21 40 -9 25 -30 21
-61 -12z"/>
<path d="M1365 4854 c-24 -25 -16 -59 15 -59 27 0 50 -11 50 -24 0 -5 -13 -14
-30 -21 -16 -7 -39 -26 -49 -44 -20 -31 -269 -273 -300 -290 -9 -5 -31 -22
-49 -38 -19 -16 -44 -28 -61 -28 -41 0 -63 -30 -67 -92 l-4 -53 64 -65 c77
-79 102 -100 118 -100 7 0 21 -9 33 -20 31 -31 119 -100 127 -100 4 0 5 -7 2
-15 -4 -10 0 -15 11 -15 10 0 32 -12 50 -27 17 -16 42 -35 55 -43 28 -18 42
-32 100 -100 85 -101 184 -190 210 -190 29 -1 108 -52 100 -64 -3 -5 -35 -10
-71 -12 -37 -1 -84 -10 -105 -19 -35 -14 -36 -17 -22 -32 15 -14 22 -14 62 -3
58 16 156 16 187 0 34 -18 79 -61 79 -77 0 -17 -12 -16 -57 2 -19 8 -46 15
-60 15 -41 0 -24 -32 27 -51 26 -10 39 -19 30 -22 -8 -2 -31 -9 -50 -16 -20
-6 -58 -14 -85 -17 -51 -6 -99 -32 -125 -68 -8 -11 -29 -36 -47 -55 -39 -41
-42 -61 -10 -61 22 0 48 26 89 91 12 20 28 29 60 34 24 4 52 12 62 17 15 8 22
7 31 -6 16 -21 24 -20 92 4 68 24 63 23 63 5 0 -11 11 -15 39 -15 22 0 44 -6
51 -15 7 -8 20 -15 29 -15 13 -1 13 -3 -4 -16 -15 -12 -39 -15 -100 -12 -80 3
-80 3 -80 -22 0 -23 5 -25 50 -30 l50 -5 7 -54 c3 -29 15 -65 25 -80 11 -14
26 -41 34 -58 15 -35 24 -41 32 -20 4 10 7 10 18 0 7 -7 38 -13 70 -13 42 0
58 -4 63 -15 10 -27 73 -7 119 36 22 22 43 39 48 39 17 0 69 83 69 109 0 41
-45 126 -79 150 -17 12 -36 31 -42 43 -26 49 68 78 138 43 29 -14 30 -18 23
-51 -5 -19 -16 -45 -26 -56 -18 -19 -18 -20 1 -34 27 -20 52 -17 65 7 10 17
14 18 27 7 13 -10 18 -9 34 11 11 13 19 30 19 38 0 8 4 12 9 9 4 -3 6 -17 3
-31 -5 -30 13 -33 42 -6 12 10 31 22 44 26 21 6 21 5 11 -19 -14 -29 -6 -58
14 -51 7 3 21 19 31 35 13 23 22 29 40 24 18 -4 36 9 95 71 52 55 70 81 66 94
-3 10 1 24 10 31 17 14 20 50 4 50 -24 0 -69 -42 -69 -64 0 -13 -10 -34 -22
-47 -27 -29 -92 -54 -110 -42 -9 5 -1 10 22 13 23 3 36 11 38 23 3 14 -4 17
-33 17 -20 0 -45 -5 -56 -10 -22 -12 -79 12 -79 33 0 16 61 97 72 97 14 0 8
30 -7 36 -11 5 -12 11 -4 26 8 15 13 17 24 8 21 -17 55 -3 55 24 0 12 5 27 11
33 18 18 1 65 -41 111 -43 47 -48 63 -27 81 15 12 167 -15 179 -33 3 -5 0 -27
-8 -49 -18 -50 -18 -68 1 -93 14 -18 16 -18 29 -1 7 9 12 27 10 40 -2 12 4 38
14 57 14 27 23 34 42 32 13 -1 25 -4 27 -6 2 -2 -2 -26 -8 -53 -22 -94 9 -108
41 -20 11 30 24 46 47 57 33 16 56 51 48 72 -3 7 -22 22 -43 33 -38 20 -53 54
-34 78 5 7 12 25 16 41 10 41 47 86 84 101 24 11 32 20 32 39 0 21 -7 27 -57
41 -61 18 -109 15 -303 -20 -41 -8 -116 -14 -167 -14 -78 0 -100 4 -144 26
-76 36 -174 59 -202 46 -20 -10 -26 -7 -47 26 -13 20 -35 49 -47 64 -13 16
-23 39 -23 53 0 13 -6 24 -13 24 -25 0 -111 115 -152 204 l-32 70 31 28 c33
30 56 36 56 14 0 -18 64 -56 94 -56 12 0 27 5 34 12 18 18 56 -20 40 -40 -10
-11 -9 -17 6 -27 21 -16 101 -35 149 -36 18 0 25 -3 17 -6 -8 -2 -21 -7 -29
-9 -23 -7 8 -34 40 -34 22 0 29 5 29 20 0 24 28 26 73 6 106 -47 144 -68 164
-89 22 -24 61 -34 191 -52 39 -5 44 -3 49 16 5 19 11 21 57 16 28 -3 79 -15
114 -27 39 -14 87 -22 125 -22 34 0 76 -5 94 -11 23 -8 42 -7 70 1 25 7 51 8
78 2 31 -7 45 -6 63 6 12 8 27 12 32 9 5 -3 20 1 32 9 13 8 65 28 117 45 52
17 100 36 106 41 8 7 18 3 31 -11 18 -20 26 -21 118 -16 54 4 103 10 110 15 6
5 45 15 86 22 41 7 83 19 93 28 12 10 34 15 67 13 32 -1 75 7 123 24 40 14 79
25 86 25 8 0 43 20 80 44 36 24 83 51 104 61 22 10 41 24 44 32 3 7 10 13 16
13 5 0 33 21 62 48 28 26 73 65 100 87 70 58 74 63 68 85 -12 46 -63 15 -216
-133 -44 -42 -95 -79 -136 -99 -36 -18 -77 -39 -91 -49 -51 -34 -163 -72 -219
-73 -31 -1 -72 -9 -91 -18 -19 -9 -57 -20 -85 -24 -27 -4 -64 -13 -81 -20 -48
-20 -215 -25 -235 -7 -14 12 -25 11 -80 -10 -35 -13 -84 -30 -109 -36 -25 -6
-70 -19 -100 -27 -95 -26 -322 -19 -445 14 -44 12 -93 22 -110 23 -16 1 -41 5
-55 9 -14 4 -54 16 -90 26 -36 10 -78 26 -95 35 -28 16 -111 31 -258 48 -50 6
-63 12 -92 44 -36 40 -45 43 -76 27 -16 -9 -19 -7 -19 10 0 13 -7 20 -20 20
-13 0 -28 12 -38 30 -31 54 -92 29 -71 -29 9 -24 8 -25 -6 -7 -11 15 -17 16
-28 7 -11 -9 -21 -9 -43 0 -23 10 -25 13 -11 16 20 5 22 26 5 41 -21 17 -94
20 -146 7 -81 -21 -156 -84 -136 -116 3 -5 -6 -20 -20 -33 -28 -25 -33 -42
-14 -48 8 -3 8 -9 1 -22 -11 -20 -15 -17 -38 29 -11 21 -52 33 -65 18 -10 -11
-24 -70 -14 -61 4 4 29 -24 57 -63 35 -51 46 -73 38 -79 -9 -5 -6 -9 9 -13 17
-4 20 -10 15 -27 -6 -18 -4 -20 18 -15 17 5 28 2 34 -8 16 -29 235 -247 248
-247 19 0 75 -58 75 -77 0 -27 26 -55 72 -79 18 -9 37 -23 41 -30 7 -13 90
-54 109 -54 5 0 33 -15 61 -33 29 -19 68 -41 87 -50 48 -23 85 -24 -525 23
-130 10 -172 21 -282 75 -45 21 -170 123 -237 192 -46 48 -52 53 -183 181 -78
76 -100 93 -122 90 -35 -4 -39 -34 -7 -59 30 -24 37 -55 9 -41 -10 6 -38 13
-63 17 -24 4 -52 12 -61 18 -16 10 -16 12 -1 23 13 10 14 15 5 24 -8 9 -20 9
-46 1 -32 -11 -37 -9 -67 19 -27 25 -30 33 -20 45 7 8 23 15 36 15 15 0 28 9
38 28 14 28 25 38 118 114 85 71 348 339 348 355 0 5 -16 28 -36 51 -38 45
-71 54 -99 26z m983 -334 c10 -16 10 -20 0 -20 -22 0 -41 17 -34 29 10 16 20
14 34 -9z m-400 -57 c-10 -2 -28 -2 -40 0 -13 2 -5 4 17 4 22 1 32 -1 23 -4z
m-101 -62 c-4 -16 2 -21 24 -26 16 -4 34 -15 39 -26 7 -12 22 -19 43 -20 18
-1 43 -4 57 -8 25 -8 25 -8 -7 -15 -17 -4 -34 -14 -37 -21 -7 -19 31 -45 64
-45 22 0 26 -5 25 -27 0 -22 7 -31 32 -43 19 -9 33 -23 33 -33 0 -15 6 -17 33
-12 28 6 38 2 65 -26 28 -29 34 -31 57 -21 26 12 29 8 26 -30 -2 -19 14 -25
23 -9 6 10 41 3 225 -44 66 -17 250 -5 382 25 92 21 139 25 139 12 0 -5 -24
-14 -52 -21 -29 -8 -59 -18 -66 -24 -18 -14 -87 -26 -202 -36 -139 -11 -213
-8 -243 12 -31 20 -53 22 -63 5 -9 -14 23 -38 53 -38 13 0 26 -6 29 -14 8 -22
63 -41 77 -27 14 14 67 15 67 0 0 -6 8 -8 18 -5 12 4 26 -1 36 -13 17 -19 73
-42 206 -86 83 -28 123 -46 116 -52 -3 -4 -23 -1 -43 5 -48 14 -164 39 -220
47 -32 5 -48 14 -64 36 -22 31 -69 41 -69 14 0 -19 -14 -19 -65 0 -22 8 -59
14 -82 15 -36 0 -43 -3 -43 -20 0 -11 7 -20 16 -20 8 0 27 -13 40 -30 14 -16
39 -38 55 -47 27 -16 40 -43 20 -43 -5 0 -40 20 -77 45 -36 25 -72 45 -80 45
-17 0 -72 31 -96 53 -10 9 -25 17 -33 17 -9 0 -18 7 -21 15 -4 8 -12 15 -19
15 -17 0 -58 57 -50 70 3 5 -2 24 -11 41 -15 31 -15 33 2 46 13 10 15 16 6 25
-8 8 -15 8 -25 0 -11 -9 -21 -8 -44 3 -28 14 -219 201 -264 259 -13 16 -34 41
-46 54 -29 31 -29 42 -2 42 16 0 20 -5 16 -19z m98 9 c4 -6 -5 -10 -19 -10
-14 0 -26 5 -26 10 0 6 9 10 19 10 11 0 23 -4 26 -10z m849 -39 c31 -14 46
-25 40 -31 -15 -15 -85 9 -111 37 -37 39 -34 39 71 -6z m-699 -111 c8 -13 -5
-13 -25 0 -13 8 -13 10 2 10 9 0 20 -4 23 -10z m-756 -230 c33 -23 77 -61 98
-87 21 -25 52 -55 69 -67 18 -11 70 -55 116 -96 47 -41 102 -81 124 -89 21 -7
53 -19 69 -26 71 -29 108 -35 255 -40 85 -4 171 -10 190 -14 19 -4 68 -6 108
-3 42 2 113 -3 170 -13 140 -23 144 -24 136 -36 -6 -11 -97 -9 -312 7 -80 6
-95 4 -112 -11 -10 -9 -24 -14 -30 -10 -16 10 -70 -5 -70 -20 0 -22 -61 -27
-98 -8 -33 18 -61 12 -70 -15 -5 -16 79 -52 98 -42 8 4 35 4 60 -1 25 -5 66
-13 91 -17 25 -5 61 -18 80 -29 19 -11 45 -24 57 -28 46 -14 121 -67 115 -81
-10 -27 -51 -14 -193 61 -45 24 -114 33 -124 16 -3 -4 -24 -11 -46 -15 -58 -9
-52 -32 30 -109 39 -36 70 -70 70 -76 0 -5 14 -20 31 -32 51 -36 109 -139 79
-139 -13 0 -145 131 -187 185 -51 66 -97 111 -142 139 -23 15 -44 33 -47 40
-3 7 -37 37 -77 67 -110 81 -180 143 -303 267 -62 62 -135 130 -163 151 -67
50 -141 119 -141 131 0 6 -8 10 -18 10 -10 0 -27 6 -37 14 -19 14 -19 15 5 35
35 29 53 26 119 -19z m1701 -78 c0 -4 -7 -17 -15 -29 -8 -11 -17 -39 -21 -62
-5 -33 -10 -41 -23 -36 -9 4 -31 9 -48 12 -39 7 -57 25 -49 50 9 30 156 91
156 65z m-240 -46 c0 -3 -4 -8 -10 -11 -5 -3 -10 -1 -10 4 0 6 5 11 10 11 6 0
10 -2 10 -4z m-460 -411 c0 -2 -10 -10 -22 -16 -21 -11 -22 -11 -9 4 13 16 31
23 31 12z m242 -55 c-33 -33 -67 -60 -75 -60 -26 0 -47 30 -47 66 0 43 17 51
113 53 l69 1 -60 -60z m-372 -105 c0 -2 -9 -9 -20 -15 -12 -6 -20 -7 -20 -1 0
5 8 12 18 14 9 3 18 5 20 6 1 0 2 -1 2 -4z m-202 -65 c12 -12 22 -23 22 -26 0
-10 -54 6 -62 18 -21 33 7 39 40 8z m542 11 c0 -6 -4 -13 -10 -16 -5 -3 -10 1
-10 9 0 9 5 16 10 16 6 0 10 -4 10 -9z m84 -58 c-15 -11 -20 -11 -32 1 -8 8
-12 22 -9 31 6 14 9 14 33 -2 25 -16 25 -17 8 -30z m-578 -1 c14 -9 66 -92 58
-92 -4 0 -16 10 -28 23 -12 12 -32 29 -45 38 -15 9 -21 20 -17 27 8 14 16 15
32 4z m458 -53 c-8 -17 -17 -29 -20 -27 -8 8 18 68 27 62 5 -3 2 -19 -7 -35z
m-354 -85 c26 -16 27 -18 14 -43 -8 -14 -19 -38 -24 -53 -13 -37 -29 -35 -37
3 -6 31 -6 31 -60 27 -62 -5 -78 9 -47 43 14 16 28 20 63 18 28 -2 46 1 49 9
5 16 8 15 42 -4z m118 -113 c-2 -5 -27 -35 -57 -67 -30 -33 -52 -51 -48 -41 4
10 7 24 7 31 0 7 14 34 31 59 27 41 33 45 50 36 11 -6 19 -14 17 -18z m-211
-7 c5 -15 -50 -25 -59 -11 -4 6 -4 15 -1 20 7 12 56 4 60 -9z m38 -64 c11 -13
14 -20 6 -20 -21 0 -52 21 -46 31 9 14 20 11 40 -11z"/>
<path d="M2290 4010 c0 -5 7 -10 16 -10 8 0 12 5 9 10 -3 6 -10 10 -16 10 -5
0 -9 -4 -9 -10z"/>
<path d="M2470 3890 c0 -5 5 -10 10 -10 6 0 10 5 10 10 0 6 -4 10 -10 10 -5 0
-10 -4 -10 -10z"/>
<path d="M2626 3883 c-11 -11 -6 -23 9 -23 8 0 15 4 15 9 0 13 -16 22 -24 14z"/>
<path d="M1874 3609 c-8 -14 11 -33 25 -25 6 4 11 14 11 22 0 16 -26 19 -36 3z"/>
<path d="M1920 3565 c0 -28 21 -33 40 -10 15 18 5 35 -21 35 -14 0 -19 -7 -19
-25z"/>
<path d="M1972 3437 c-23 -25 -20 -37 8 -37 10 0 23 -7 30 -16 17 -20 64 -14
68 8 2 11 -11 26 -37 42 -22 15 -42 26 -44 26 -2 0 -13 -10 -25 -23z"/>
<path d="M8692 4858 c6 -18 28 -21 28 -4 0 9 -7 16 -16 16 -9 0 -14 -5 -12
-12z"/>
<path d="M7649 4826 c-10 -21 -5 -31 40 -87 28 -35 64 -90 81 -121 32 -61 45
-69 66 -40 28 36 15 79 -40 143 -17 19 -46 56 -63 82 -37 53 -67 61 -84 23z"/>
<path d="M8750 4828 c-22 -24 -26 -43 -9 -54 12 -7 69 44 69 63 0 21 -37 15
-60 -9z"/>
<path d="M2097 4833 c-15 -14 -6 -43 20 -63 23 -18 28 -19 35 -6 17 31 -33 92
-55 69z"/>
<path d="M1713 4803 c-27 -31 -27 -33 -9 -58 11 -15 17 -17 27 -8 29 24 79 17
79 -10 0 -8 -23 -12 -73 -13 -62 0 -79 -4 -122 -30 -27 -17 -51 -39 -53 -50
-2 -12 -26 -29 -69 -49 -36 -16 -70 -39 -75 -51 -5 -11 -28 -27 -51 -36 -28
-10 -43 -21 -45 -35 -2 -15 -15 -24 -46 -32 -48 -12 -68 -30 -70 -64 -1 -16
-8 -22 -26 -24 -14 -1 -45 -7 -70 -14 -85 -23 -90 -49 -9 -49 47 0 66 -14 34
-26 -8 -4 -15 -15 -15 -26 0 -17 5 -19 33 -13 17 4 53 20 80 36 26 16 52 29
57 29 6 0 10 6 10 13 0 10 212 160 314 221 17 10 41 27 55 37 13 10 29 19 37
19 7 0 33 16 58 35 26 19 50 35 54 35 5 0 21 17 36 38 22 31 24 39 12 48 -9 6
-13 19 -9 32 3 15 -2 30 -18 47 -26 27 -49 31 -67 13 -9 -9 -12 -9 -12 0 0 20
-24 12 -47 -15z"/>
<path d="M8243 4744 c-41 -24 -54 -46 -33 -59 10 -6 110 43 110 54 0 8 -22 31
-29 31 -4 0 -25 -12 -48 -26z"/>
<path d="M2143 4723 c-23 -9 -15 -35 10 -31 12 2 22 9 22 17 0 16 -14 22 -32
14z"/>
<path d="M8311 4670 c-19 -16 -32 -32 -28 -36 18 -19 106 33 93 54 -11 18 -28
14 -65 -18z"/>
<path d="M8524 4647 c-30 -23 -50 -46 -47 -54 8 -21 33 -15 70 17 18 17 38 30
44 30 13 0 8 43 -6 46 -5 1 -33 -16 -61 -39z"/>
<path d="M2146 4671 c-4 -5 -2 -12 3 -15 5 -4 12 -2 15 3 4 5 2 12 -3 15 -5 4
-12 2 -15 -3z"/>
<path d="M9436 4654 c-8 -20 8 -40 46 -60 56 -29 66 10 14 50 -40 30 -52 32
-60 10z"/>
<path d="M9008 4654 c-15 -14 -8 -55 10 -60 18 -5 51 -21 349 -174 121 -62
230 -110 295 -130 57 -17 128 -40 158 -50 56 -19 173 -46 265 -61 28 -4 63
-11 79 -14 45 -9 127 -10 169 -1 47 10 47 3 6 -95 -17 -41 -36 -90 -41 -109
-12 -40 -36 -97 -84 -194 -19 -38 -34 -76 -34 -86 0 -26 21 -80 31 -80 5 0 32
-16 60 -35 28 -19 59 -35 70 -35 10 0 21 -4 24 -10 3 -5 13 -10 21 -10 8 0 42
-26 75 -58 33 -33 81 -69 107 -81 26 -12 54 -26 63 -31 20 -10 125 -51 208
-80 35 -12 78 -31 95 -41 17 -10 39 -19 49 -19 21 0 21 -9 2 -34 -18 -24 -11
-36 20 -36 30 0 39 14 25 40 -10 18 -8 20 17 20 41 0 91 35 99 67 10 41 12 43
42 32 44 -18 155 -29 169 -17 7 5 21 7 31 4 29 -10 52 3 52 29 0 24 -28 55
-50 55 -8 0 -29 5 -47 12 -24 9 -32 17 -28 29 4 11 -2 18 -17 23 -35 9 -76 7
-83 -4 -10 -16 -52 -12 -59 6 -5 14 -17 16 -79 10 -39 -4 -82 -14 -95 -22 -30
-20 -122 -8 -140 17 -7 11 -31 20 -60 24 -26 3 -56 10 -68 15 -35 14 -221 190
-263 249 l-21 30 30 35 c17 19 30 38 29 43 -4 22 3 34 30 48 20 10 28 20 25
32 -3 12 13 41 44 80 l50 62 -3 -147 -3 -147 49 -32 c27 -18 52 -33 56 -33 3
0 14 -6 22 -14 34 -30 198 -116 221 -116 9 0 20 -4 26 -8 14 -13 142 -51 204
-61 30 -5 66 -13 80 -19 14 -5 59 -10 101 -11 60 -1 80 2 93 15 13 12 27 14
64 9 37 -5 51 -3 61 9 10 12 8 19 -9 36 -29 29 -22 32 24 9 51 -24 73 -24 86
2 9 16 8 26 -4 44 -24 36 -68 55 -152 65 -41 4 -78 10 -81 13 -3 3 4 17 15 31
11 14 23 43 27 63 4 20 13 46 21 57 17 24 18 52 4 61 -22 13 -60 -25 -71 -71
-12 -48 -21 -51 -23 -7 -1 36 -39 45 -56 14 -9 -17 -6 -34 14 -83 14 -34 24
-63 23 -65 -10 -10 -149 -14 -180 -5 -45 12 -63 8 -78 -20 -17 -32 2 -40 105
-46 83 -4 96 -7 96 -22 0 -19 26 -34 41 -24 5 3 9 -2 9 -10 0 -25 -47 -20 -53
5 -5 17 -11 20 -29 15 -41 -13 -125 -6 -185 16 -32 11 -76 21 -98 22 -24 0
-46 8 -55 18 -8 9 -46 34 -85 54 -38 20 -78 43 -88 52 -10 9 -41 28 -70 43
l-52 26 -1 107 c-1 58 3 106 8 106 5 0 5 7 0 16 -5 9 -7 25 -5 35 7 25 -14 50
-34 42 -13 -5 -13 -3 1 19 13 20 28 27 70 32 62 8 92 26 83 50 -5 12 -20 16
-69 16 -75 0 -108 -15 -127 -55 -19 -43 -121 -192 -168 -249 -13 -15 -30 -42
-39 -60 -8 -17 -23 -47 -34 -66 -34 -63 -15 -98 124 -233 110 -108 133 -123
196 -133 23 -4 54 -17 68 -29 32 -26 181 -47 258 -35 l48 7 -23 -18 c-13 -11
-33 -19 -45 -19 -12 0 -31 -6 -42 -14 -18 -13 -33 -10 -134 24 -148 49 -262
103 -297 142 -63 70 -148 127 -189 128 -12 0 -27 7 -35 16 -7 8 -25 22 -41 30
-40 21 -36 52 22 169 27 55 50 106 50 113 0 8 6 28 14 45 7 18 21 52 31 77 10
25 32 76 48 113 25 55 28 70 17 77 -7 4 -23 4 -34 0 -76 -31 -194 -29 -341 4
-33 8 -95 22 -138 31 -42 10 -80 21 -83 26 -3 5 -14 9 -24 9 -56 0 -385 132
-505 202 -11 6 -45 25 -75 40 -30 16 -73 39 -95 53 -74 45 -141 66 -157 49z"/>
<path d="M8845 4600 c-30 -31 -45 -40 -62 -35 -12 3 -25 0 -28 -5 -7 -12 -111
-90 -120 -90 -16 0 0 23 30 42 46 30 47 58 3 58 -44 0 -218 -111 -218 -139 0
-16 10 -14 48 9 19 12 31 16 27 10 -13 -21 23 -20 60 2 22 12 35 17 31 10 -4
-7 -28 -24 -54 -37 -26 -14 -65 -36 -87 -50 -23 -14 -56 -24 -77 -25 -43 0
-120 -29 -274 -101 -22 -10 -49 -19 -60 -19 -11 0 -35 -13 -54 -28 -41 -34
-74 -52 -92 -52 -7 1 -3 9 10 20 15 13 22 26 18 38 -8 24 27 57 78 74 22 7 42
19 44 27 4 11 -5 13 -42 9 -56 -7 -116 -49 -116 -82 0 -13 -12 -31 -30 -44
-34 -26 -37 -39 -12 -58 9 -7 12 -14 6 -14 -6 0 -36 -11 -65 -25 -161 -75
-189 -104 -168 -175 15 -50 32 -68 122 -129 40 -27 79 -56 86 -65 7 -9 21 -16
31 -16 10 0 52 -22 94 -50 42 -27 79 -50 82 -50 3 0 14 -8 25 -18 10 -11 32
-25 47 -33 15 -8 29 -17 32 -20 3 -3 43 -31 90 -62 47 -30 114 -82 149 -115
42 -39 69 -58 81 -55 10 3 31 -2 48 -11 39 -20 83 -20 146 -1 74 22 87 21 73
-10 -10 -21 -18 -25 -50 -23 -45 2 -83 -26 -57 -43 11 -7 3 -8 -25 -4 -62 10
-192 81 -280 154 -44 37 -93 76 -110 88 -41 27 -171 95 -220 113 -87 33 -160
75 -159 93 1 13 -3 16 -16 12 -11 -4 -35 8 -66 32 -49 37 -192 113 -213 113
-15 0 -131 79 -131 90 0 4 -7 11 -16 14 -20 8 -54 -20 -54 -43 1 -26 185 -141
225 -141 9 0 43 -19 77 -42 33 -24 75 -52 93 -63 18 -11 54 -35 81 -52 47 -31
94 -52 229 -103 33 -13 70 -33 83 -46 12 -13 55 -46 96 -73 40 -27 80 -61 90
-75 9 -14 21 -26 27 -26 5 0 46 -20 90 -45 54 -31 95 -47 127 -50 86 -8 137
-16 147 -25 5 -4 33 -6 60 -4 67 5 140 -13 176 -43 28 -24 31 -24 54 -9 29 19
31 42 10 92 -25 60 -4 67 100 36 47 -14 61 -23 63 -40 2 -13 11 -22 20 -22 19
0 82 36 83 47 0 5 2 18 3 30 5 46 -57 75 -194 93 -52 7 -104 16 -115 20 -84
34 -130 35 -280 10 -54 -10 -81 -10 -117 0 -26 6 -52 9 -57 6 -5 -4 -33 17
-63 45 -29 28 -73 65 -98 82 -25 17 -56 41 -70 54 -14 13 -29 23 -34 23 -5 0
-52 29 -105 64 -147 97 -183 120 -216 134 -16 7 -39 22 -50 32 -11 10 -31 25
-45 32 -77 41 -140 105 -140 142 0 7 33 31 73 54 102 58 104 59 112 24 9 -42
32 -59 122 -91 43 -16 101 -36 128 -46 131 -46 234 -106 333 -193 24 -20 48
-39 54 -41 19 -6 83 -54 140 -103 31 -27 60 -48 67 -48 6 0 11 -7 11 -15 0
-11 11 -15 39 -15 22 0 42 -4 45 -9 3 -4 25 -11 48 -15 23 -4 47 -11 53 -15
10 -8 104 -22 175 -26 19 -1 45 -7 57 -13 36 -20 84 -15 90 8 6 23 16 25 35 7
7 -7 21 -16 31 -20 11 -4 21 -16 24 -27 6 -23 45 -27 62 -6 8 9 8 21 0 45 -8
22 -8 35 0 44 5 7 8 22 5 34 -6 23 -39 33 -106 33 -26 0 -37 4 -32 11 16 26
180 -21 169 -48 -7 -21 13 -25 45 -8 23 12 30 22 30 45 0 24 -8 35 -42 57 -43
28 -45 28 -208 28 -91 0 -183 -2 -205 -5 -96 -13 -164 16 -295 130 -36 31 -82
66 -102 78 -42 24 -291 209 -325 241 -28 26 -28 35 -4 69 10 15 32 56 49 92
27 58 35 68 79 87 81 36 209 108 234 131 12 12 33 22 47 22 13 0 33 5 45 11
33 18 147 137 147 154 0 29 -45 16 -85 -25z m-495 -303 c0 -8 -92 -183 -101
-191 -16 -17 -10 -54 14 -79 12 -13 47 -41 77 -62 30 -21 60 -43 66 -49 30
-27 87 -72 118 -90 76 -47 144 -96 191 -140 63 -59 129 -106 148 -106 33 0 73
-25 69 -43 -3 -15 -10 -18 -30 -13 -15 3 -51 9 -79 12 -40 5 -53 11 -53 23 0
17 -39 50 -153 128 -34 24 -82 60 -106 80 -24 21 -54 45 -66 53 -12 8 -35 29
-52 45 -32 33 -139 88 -190 100 -18 3 -35 11 -38 16 -4 5 -17 9 -30 9 -13 0
-26 4 -29 9 -3 5 -21 9 -40 9 -72 0 -138 65 -108 107 15 22 109 73 143 78 21
3 81 28 135 55 96 48 114 56 114 49z m813 -774 c34 -21 -65 -32 -156 -17 -30
5 -35 9 -26 20 9 11 30 13 93 8 44 -3 84 -8 89 -11z m-200 -250 c-7 -2 -19 -2
-25 0 -7 3 -2 5 12 5 14 0 19 -2 13 -5z m-113 -13 c0 -5 -10 -10 -22 -9 -22 0
-22 1 -3 9 11 5 21 9 23 9 1 1 2 -3 2 -9z"/>
<path d="M11280 4616 c-5 -14 -14 -26 -19 -26 -5 0 -11 -7 -15 -15 -18 -49 48
-63 84 -18 29 38 24 77 -12 81 -22 3 -30 -2 -38 -22z"/>
<path d="M3370 4616 c0 -16 64 -41 80 -31 15 9 12 32 -6 39 -30 11 -74 7 -74
-8z"/>
<path d="M8174 4530 c-24 -36 -27 -70 -6 -70 13 0 72 77 72 94 0 31 -39 17
-66 -24z"/>
<path d="M3578 4547 c-21 -6 -38 -16 -38 -22 0 -17 213 -11 218 5 3 7 -2 16
-9 21 -19 12 -125 9 -171 -4z"/>
<path d="M8456 4551 c-3 -5 -49 -30 -101 -56 -52 -26 -95 -53 -95 -59 0 -7
-15 -16 -32 -21 -18 -6 -34 -18 -36 -27 -3 -14 4 -18 30 -18 45 0 268 143 268
172 0 18 -24 25 -34 9z"/>
<path d="M7775 4520 c-33 -22 -43 -41 -44 -85 -1 -24 -18 -47 -80 -110 -288
-292 -331 -340 -331 -369 0 -38 33 -30 79 20 25 27 102 109 171 183 69 74 143
153 165 176 22 23 47 57 56 76 9 19 22 46 29 60 13 29 11 60 -5 66 -5 1 -23
-6 -40 -17z"/>
<path d="M9420 4516 c0 -7 6 -18 13 -23 25 -21 108 -63 122 -63 32 0 12 31
-40 65 -58 36 -95 45 -95 21z"/>
<path d="M11120 4502 c-57 -28 -75 -92 -25 -92 14 0 37 16 59 41 30 32 35 43
25 55 -14 17 -16 17 -59 -4z"/>
<path d="M3579 4495 c-6 -5 -186 -16 -266 -16 -49 0 -53 -2 -59 -26 -5 -19 -2
-30 12 -40 16 -12 20 -12 30 2 8 11 29 15 75 15 35 0 80 5 99 10 19 6 54 11
78 12 47 1 79 19 68 36 -7 12 -29 16 -37 7z"/>
<path d="M11270 4418 c-17 -15 -30 -36 -30 -46 0 -11 -7 -25 -15 -32 -8 -7
-15 -19 -15 -28 0 -12 8 -13 38 -8 20 4 56 10 80 13 35 5 49 13 77 47 24 29
32 48 29 63 -5 20 -12 22 -70 20 -55 -2 -69 -6 -94 -29z"/>
<path d="M8162 4411 c-19 -27 -20 -41 -1 -41 11 0 39 59 30 65 -4 2 -17 -9
-29 -24z"/>
<path d="M2157 4414 c-8 -8 1 -24 14 -24 5 0 9 7 9 15 0 15 -12 20 -23 9z"/>
<path d="M10755 4397 c-4 -10 -5 -21 -1 -24 10 -10 18 4 13 24 -4 17 -4 17
-12 0z"/>
<path d="M7817 4388 c-22 -18 -34 -68 -15 -68 17 0 68 51 68 68 0 16 -32 15
-53 0z"/>
<path d="M11104 4358 c-56 -44 -64 -53 -64 -69 0 -10 6 -20 13 -23 6 -3 2 -3
-10 0 -32 7 -132 -21 -158 -46 -16 -15 -24 -37 -28 -76 -3 -30 -15 -69 -26
-88 -20 -32 -50 -170 -51 -228 0 -24 10 -35 24 -25 1 1 15 -12 29 -29 14 -17
54 -46 89 -64 35 -18 70 -39 78 -46 28 -23 99 -46 125 -40 44 11 32 43 -27 71
-29 14 -87 46 -128 70 -41 25 -82 48 -91 51 -21 7 -31 67 -18 100 5 14 9 38 9
54 0 15 9 45 19 67 11 21 25 59 31 84 12 48 36 68 83 70 38 1 170 53 181 71
18 29 -6 44 -44 28 -17 -7 -33 -10 -37 -6 -7 6 35 46 49 46 4 0 8 11 8 25 0
31 -18 32 -56 3z"/>
<path d="M7943 4355 c-29 -12 -52 -49 -39 -62 4 -4 65 19 115 46 54 28 -15 43
-76 16z"/>
<path d="M8175 4309 c-4 -6 -5 -13 -2 -16 7 -7 27 6 27 18 0 12 -17 12 -25 -2z"/>
<path d="M1800 4060 c-11 -7 -16 -33 -18 -100 -3 -77 -2 -91 13 -96 27 -11 32
6 37 109 5 99 2 109 -32 87z"/>
<path d="M1927 3984 c-11 -11 -8 -73 3 -95 6 -10 19 -19 29 -19 15 0 17 8 16
58 -2 48 -5 57 -21 60 -11 2 -23 0 -27 -4z"/>
<path d="M2002 3907 c-16 -19 13 -57 44 -57 28 0 28 -1 8 38 -16 34 -35 40
-52 19z"/>
<path d="M9041 3846 c-6 -8 -16 -40 -21 -71 -10 -61 -17 -77 -24 -54 -2 8 -10
31 -16 51 -14 45 -23 52 -56 44 -32 -8 -30 -27 7 -92 24 -42 36 -54 55 -54 13
0 24 4 24 10 0 5 7 7 16 3 21 -8 44 22 44 58 0 14 7 43 15 63 9 20 13 41 10
46 -9 15 -41 12 -54 -4z"/>
<path d="M11583 3842 c-28 -21 -59 -81 -55 -104 4 -22 31 -31 48 -17 11 9 14
7 14 -14 0 -27 23 -52 40 -42 5 3 10 15 10 27 0 11 9 33 21 49 40 56 0 81 -45
28 -36 -42 -33 -20 3 25 44 56 18 90 -36 48z"/>
<path d="M9132 3837 c-10 -11 -32 -100 -32 -126 0 -3 12 -19 26 -34 20 -22 29
-26 40 -16 8 6 14 21 14 33 0 22 17 46 32 46 5 0 3 -8 -3 -19 -14 -22 -6 -49
16 -58 20 -7 32 4 40 38 5 20 0 33 -23 57 -26 28 -34 31 -56 22 -31 -12 -33
-6 -6 22 11 12 19 27 17 33 -5 16 -52 18 -65 2z"/>
<path d="M1981 3831 c-21 -13 -41 -84 -28 -100 9 -11 16 -7 39 18 15 17 28 42
28 55 0 26 -19 39 -39 27z"/>
<path d="M2073 3800 c-14 -23 -19 -41 -13 -45 22 -14 86 44 77 70 -11 27 -41
16 -64 -25z"/>
<path d="M965 3784 c-9 -9 -14 -23 -11 -31 3 -8 6 -29 6 -47 0 -45 23 -75 47
-60 14 9 21 8 30 -5 18 -24 47 -2 51 40 2 19 8 38 13 44 5 5 9 20 9 33 0 18
-5 23 -22 20 -16 -2 -24 -12 -29 -36 -11 -56 -26 -58 -32 -6 -6 60 -31 79 -62
48z"/>
<path d="M3180 3785 c-7 -8 -9 -22 -6 -32 6 -15 9 -15 28 4 11 12 17 26 14 32
-10 15 -21 14 -36 -4z"/>
<path d="M1867 3774 c-4 -4 -7 -14 -7 -23 0 -11 3 -12 11 -4 6 6 10 16 7 23
-2 6 -7 8 -11 4z"/>
<path d="M3413 3764 c-3 -10 -1 -30 5 -47 10 -25 8 -34 -13 -65 -36 -52 -32
-105 4 -69 10 10 14 9 22 -5 6 -10 21 -18 33 -18 20 0 25 6 30 45 4 25 3 53
-3 64 -6 11 -11 29 -11 40 0 55 -51 96 -67 55z"/>
<path d="M9392 3757 c-40 -42 -19 -87 22 -48 12 12 29 21 38 21 24 0 40 24 26
38 -19 19 -63 14 -86 -11z"/>
<path d="M3528 3764 c-10 -9 3 -158 15 -172 19 -24 34 7 39 80 3 40 3 78 1 85
-5 13 -45 18 -55 7z"/>
<path d="M3922 3748 c-29 -37 -85 -88 -97 -88 -18 0 -48 -37 -40 -49 3 -6 11
-11 16 -11 6 0 17 -7 26 -15 20 -20 38 -6 47 35 3 17 26 51 51 76 25 26 45 52
45 60 0 21 -28 17 -48 -8z"/>
<path d="M1184 3721 c-71 -67 -104 -144 -69 -157 18 -7 45 12 45 32 0 8 20 42
45 76 43 58 50 78 29 85 -5 1 -27 -15 -50 -36z"/>
<path d="M3693 3748 c-4 -7 -14 -24 -21 -38 -11 -23 -12 -23 -8 -2 5 24 -22
46 -41 34 -29 -18 -48 -217 -22 -232 24 -15 39 10 39 65 0 49 1 52 23 48 21
-4 26 2 45 54 12 32 23 62 24 68 5 15 -29 18 -39 3z"/>
<path d="M11684 3715 c-19 -36 -14 -63 14 -73 14 -4 56 83 47 98 -13 21 -42 9
-61 -25z"/>
<path d="M1316 3663 c-49 -51 -59 -83 -27 -83 25 0 91 80 91 109 0 32 -13 26
-64 -26z"/>
<path d="M9559 3678 c-8 -15 -5 -88 3 -86 17 6 41 55 35 72 -5 13 -33 23 -38
14z"/>
<path d="M3265 3660 c-4 -6 -5 -30 -3 -53 2 -31 0 -41 -10 -39 -14 3 -115 -80
-163 -132 -24 -27 -29 -66 -9 -66 4 0 37 30 74 68 58 59 68 65 77 50 9 -17 12
-17 34 -2 14 9 25 21 25 27 0 5 11 25 25 43 31 41 32 70 3 95 -26 21 -44 24
-53 9z"/>
<path d="M4026 3626 c-20 -23 -36 -50 -36 -60 0 -27 27 -18 49 17 11 18 29 41
40 51 11 10 18 23 15 27 -11 19 -34 7 -68 -35z"/>
<path d="M1367 3608 c-39 -41 -48 -56 -44 -77 3 -15 -1 -33 -8 -41 -16 -18
-78 -299 -73 -332 4 -30 26 -34 37 -6 5 13 17 59 26 103 28 141 58 269 68 290
6 11 25 37 44 58 32 36 36 57 10 57 -7 0 -34 -24 -60 -52z"/>
<path d="M3067 3567 c-44 -41 -67 -70 -67 -85 0 -29 33 -29 53 1 8 12 36 44
61 71 44 46 52 66 30 73 -5 2 -40 -25 -77 -60z"/>
<path d="M4083 3613 c-7 -2 -13 -11 -13 -18 0 -8 -8 -20 -17 -27 -10 -7 -26
-23 -37 -35 -16 -19 -17 -23 -4 -28 20 -8 111 82 104 101 -6 15 -12 16 -33 7z"/>
<path d="M9698 3595 c-15 -14 -46 -65 -69 -113 -23 -48 -45 -89 -49 -92 -4 -3
-10 -14 -13 -25 -3 -14 -5 -11 -5 10 -1 17 5 48 13 70 20 54 19 65 -5 65 -25
0 -37 -29 -56 -133 -16 -92 -10 -110 39 -113 33 -3 35 -1 41 34 3 21 19 59 36
85 16 26 30 53 30 59 0 15 48 98 73 125 18 20 18 53 0 53 -5 0 -20 -11 -35
-25z"/>
<path d="M4500 3591 c0 -7 5 -22 11 -33 11 -20 16 -20 242 -14 128 4 265 3
305 -2 75 -9 87 -5 78 26 -6 17 -24 18 -254 17 -136 0 -277 4 -314 9 -51 6
-68 5 -68 -3z"/>
<path d="M4293 3555 c-16 -21 -37 -35 -50 -35 -22 0 -62 -43 -138 -149 -32
-45 -37 -56 -27 -72 7 -10 12 -32 12 -49 0 -16 4 -30 10 -30 11 0 40 53 40 72
-1 21 54 127 68 133 15 6 11 -17 -15 -78 -17 -39 -8 -67 16 -52 14 8 51 80 51
98 0 8 23 49 51 92 27 43 48 84 45 91 -9 24 -34 15 -63 -21z"/>
<path d="M5533 3573 c-3 -7 -3 -16 0 -19 9 -9 389 -10 420 -1 16 4 27 12 25
18 -2 6 -84 11 -221 14 -183 2 -219 0 -224 -12z"/>
<path d="M10050 3565 c-28 -34 -29 -115 -1 -115 4 0 14 19 20 43 7 23 17 47
23 54 12 14 2 33 -16 33 -8 0 -19 -7 -26 -15z"/>
<path d="M8527 3563 c-12 -11 -8 -68 5 -81 17 -17 48 -15 55 4 3 8 1 20 -6 27
-6 6 -11 21 -11 34 0 22 -27 33 -43 16z"/>
<path d="M9874 3555 c-8 -21 3 -78 20 -101 14 -18 15 -18 25 9 17 44 14 85 -8
97 -26 13 -31 13 -37 -5z"/>
<path d="M8612 3493 c2 -30 7 -38 23 -38 24 0 33 38 15 61 -24 28 -41 17 -38
-23z"/>
<path d="M7631 3507 c-17 -17 -13 -52 7 -78 28 -34 49 -20 48 31 -1 34 -5 44
-22 51 -13 4 -26 3 -33 -4z"/>
<path d="M3885 3430 c-25 -38 -48 -70 -52 -70 -17 -1 -104 -90 -98 -100 5 -8
14 -6 31 4 13 9 26 16 29 16 12 0 3 -29 -16 -54 -15 -19 -18 -31 -11 -38 21
-21 40 2 102 119 34 65 71 130 82 145 11 16 16 32 13 38 -14 23 -38 6 -80 -60z"/>
<path d="M7557 3483 c-14 -13 -7 -60 11 -76 28 -25 42 -21 42 14 0 51 -30 86
-53 62z"/>
<path d="M10107 3472 c-32 -35 -15 -74 22 -50 24 15 33 42 18 57 -15 15 -21
14 -40 -7z"/>
<path d="M3735 3449 c-30 -37 -65 -102 -65 -123 0 -7 6 -16 13 -19 16 -6 87
66 87 88 0 8 9 23 20 32 11 10 20 25 20 35 0 30 -45 22 -75 -13z"/>
<path d="M3384 3429 c-9 -17 -17 -49 -19 -71 -1 -21 -10 -47 -20 -58 -32 -36
-60 -150 -36 -150 5 0 16 19 25 41 9 23 28 56 41 74 14 17 25 41 25 53 0 12 9
38 19 59 11 21 22 48 26 61 5 19 3 22 -19 22 -18 0 -30 -9 -42 -31z"/>
<path d="M2754 3439 c-9 -15 12 -33 30 -26 9 4 16 13 16 22 0 17 -35 21 -46 4z"/>
<path d="M4327 3422 c-15 -16 -27 -33 -27 -39 0 -7 -17 -32 -37 -57 -21 -25
-55 -66 -75 -92 -44 -53 -47 -72 -15 -102 33 -31 50 -28 91 16 30 30 38 34 46
22 6 -10 3 -21 -12 -37 -11 -12 -17 -26 -13 -32 10 -16 41 -13 56 6 18 21 89
73 101 73 20 0 5 -22 -28 -42 -23 -14 -33 -26 -29 -36 3 -8 -2 -23 -11 -33
-36 -40 25 -52 106 -21 44 17 68 52 36 52 -15 0 -15 2 -1 24 16 24 6 44 -14
31 -16 -9 -18 29 -3 53 26 40 1 47 -56 15 -37 -20 -54 -25 -62 -17 -15 15 5
59 37 79 24 16 30 39 13 50 -10 6 -121 -78 -182 -139 -21 -21 -42 -35 -48 -31
-9 6 111 129 173 177 15 11 27 28 27 37 0 10 5 22 12 29 15 15 3 27 -33 35
-20 5 -32 0 -52 -21z"/>
<path d="M11577 3443 c-23 -22 19 -103 54 -103 25 0 25 35 -1 78 -19 30 -39
40 -53 25z"/>
<path d="M11691 3436 c-19 -23 -10 -71 14 -71 17 0 20 7 20 39 0 42 -14 56
-34 32z"/>
<path d="M3513 3391 c-47 -55 -53 -71 -24 -71 23 0 91 76 91 102 0 31 -23 20
-67 -31z"/>
<path d="M10435 3429 c-10 -15 3 -25 16 -12 7 7 7 13 1 17 -6 3 -14 1 -17 -5z"/>
<path d="M11845 3404 c-27 -29 -28 -34 -19 -58 8 -20 34 -21 34 -1 0 9 11 21
25 27 30 14 32 33 5 48 -17 9 -24 6 -45 -16z"/>
<path d="M1428 3368 c-49 -65 -179 -321 -168 -332 7 -7 16 -7 28 0 16 10 27
30 65 109 19 42 98 186 114 210 34 50 -2 62 -39 13z"/>
<path d="M7800 3380 c-8 -15 -8 -36 -1 -75 6 -30 16 -80 22 -111 11 -55 30
-77 51 -56 12 12 -9 230 -25 250 -14 18 -35 15 -47 -8z"/>
<path d="M11963 3381 c-39 -24 -46 -36 -38 -61 8 -25 43 -26 52 -2 4 9 16 25
28 34 18 15 18 18 5 32 -14 14 -18 14 -47 -3z"/>
<path d="M4764 3379 c-10 -17 28 -23 186 -31 426 -21 1022 -27 1027 -10 4 9
-28 12 -134 13 -76 0 -147 3 -158 5 -11 3 -94 4 -185 4 -91 -1 -244 4 -340 10
-245 15 -390 18 -396 9z"/>
<path d="M1157 3292 c-11 -155 7 -226 49 -191 11 9 14 22 9 48 -6 29 -10 89
-15 224 0 4 -8 7 -19 7 -16 0 -19 -11 -24 -88z"/>
<path d="M7936 3362 c-10 -16 -36 -125 -36 -150 0 -17 5 -23 17 -20 16 3 51
97 56 153 2 20 -27 33 -37 17z"/>
<path d="M9647 3328 c-34 -31 -49 -51 -50 -72 -3 -41 19 -43 39 -4 9 18 33 47
52 64 20 18 32 36 28 42 -11 18 -18 15 -69 -30z"/>
<path d="M877 3354 c-14 -15 -6 -52 27 -120 19 -38 45 -79 59 -92 24 -23 24
-23 58 -4 l34 19 3 85 c3 90 -9 118 -44 104 -14 -6 -16 -18 -11 -86 8 -115
-13 -105 -58 29 -16 48 -27 67 -41 69 -11 2 -23 0 -27 -4z"/>
<path d="M6343 3353 c-7 -3 -13 -18 -13 -34 0 -37 22 -43 131 -32 64 6 84 12
84 23 0 12 -14 15 -77 13 -61 -2 -78 0 -78 11 0 15 -27 25 -47 19z"/>
<path d="M8034 3328 c-34 -39 -52 -73 -54 -104 -4 -53 0 -64 19 -64 11 0 23
-4 26 -10 12 -20 44 -10 51 14 3 14 14 32 25 42 10 9 19 24 19 31 0 19 -60 7
-77 -16 -11 -15 -12 -14 -13 2 0 25 24 68 50 90 11 10 18 22 15 27 -11 17 -41
11 -61 -12z"/>
<path d="M12036 3319 c-11 -16 -12 -26 -5 -35 16 -20 61 4 57 30 -4 29 -33 31
-52 5z"/>
<path d="M3240 3300 c-15 -15 -20 -33 -20 -77 0 -32 5 -65 10 -73 9 -13 12
-12 25 4 8 11 15 32 15 47 0 14 3 47 6 73 7 51 -3 59 -36 26z"/>
<path d="M9713 3305 c-19 -8 -41 -31 -57 -58 -31 -53 -33 -77 -6 -77 12 0 20
7 20 17 0 9 18 34 41 55 25 24 39 46 37 57 -3 18 -6 18 -35 6z"/>
<path d="M3005 3276 c-17 -25 -11 -56 11 -56 19 0 48 46 40 65 -8 22 -33 18
-51 -9z"/>
<path d="M3929 3243 c-78 -89 -93 -127 -63 -158 13 -12 14 -19 5 -28 -17 -17
-13 -37 9 -37 31 0 170 70 170 86 0 18 -6 18 -63 -2 -44 -15 -47 -15 -68 4
-21 20 -21 21 -3 51 10 16 27 32 38 35 30 8 68 66 54 83 -18 22 -35 15 -79
-34z"/>
<path d="M7644 3275 c-17 -44 34 -181 58 -157 13 13 -6 138 -24 159 -14 17
-27 16 -34 -2z"/>
<path d="M10383 3274 c-6 -17 22 -113 42 -141 8 -10 19 -14 29 -10 15 6 17 14
11 49 -13 75 -30 113 -53 116 -14 2 -25 -3 -29 -14z"/>
<path d="M10510 3248 c-24 -54 -26 -116 -4 -125 20 -8 31 9 39 63 3 24 10 46
16 49 5 4 9 17 9 31 0 18 -5 24 -20 24 -15 0 -27 -13 -40 -42z"/>
<path d="M11882 3267 c-6 -7 -27 -62 -47 -122 -20 -61 -41 -122 -47 -137 -11
-30 -27 -38 -24 -13 1 21 -71 62 -84 49 -7 -7 -8 -33 -4 -68 6 -52 9 -58 35
-63 18 -3 26 -10 22 -19 -3 -8 1 -14 11 -14 9 0 16 6 16 13 1 6 15 21 33 32
17 11 33 29 35 40 9 59 12 66 29 56 13 -7 23 -2 42 18 53 56 53 57 35 76 -16
15 -19 14 -45 -11 -21 -20 -29 -23 -29 -12 0 26 39 131 56 149 17 19 12 39
-10 39 -8 0 -18 -6 -24 -13z"/>
<path d="M3423 3252 c-16 -26 0 -51 21 -33 19 16 21 51 3 51 -7 0 -17 -8 -24
-18z"/>
<path d="M9345 3249 c-18 -19 -18 -22 -4 -32 8 -7 18 -20 22 -29 10 -28 34
-21 51 14 21 41 20 58 -3 58 -11 0 -26 2 -33 5 -8 3 -23 -4 -33 -16z"/>
<path d="M10611 3248 c-47 -43 -67 -128 -31 -128 14 0 22 10 29 38 6 20 20 45
31 54 23 21 25 31 7 47 -10 8 -19 5 -36 -11z"/>
<path d="M1418 3176 c-43 -47 -78 -92 -78 -100 0 -33 35 -14 94 50 63 69 85
100 86 122 0 28 -29 7 -102 -72z"/>
<path d="M9902 3238 c-12 -12 -22 -17 -22 -10 0 23 -38 12 -64 -19 -29 -34
-34 -70 -12 -88 16 -13 25 -5 52 54 l19 40 5 -29 c3 -16 10 -31 16 -33 14 -5
77 85 69 98 -10 16 -40 10 -63 -13z"/>
<path d="M840 3226 c-5 -14 -7 -38 -4 -53 4 -22 1 -30 -17 -38 -35 -15 -46
-71 -21 -104 10 -14 28 -26 38 -26 16 0 19 7 17 44 l-2 44 23 -22 c37 -35 69
-20 47 22 -6 12 -17 51 -23 87 -10 47 -18 66 -30 68 -12 2 -21 -6 -28 -22z"/>
<path d="M7426 3223 c-10 -25 54 -154 74 -150 24 4 23 49 -4 110 -27 59 -57
76 -70 40z"/>
<path d="M11642 3218 c-5 -7 -13 -29 -17 -48 -3 -19 -16 -58 -27 -87 -22 -55
-53 -72 -90 -50 -27 18 -42 -5 -42 -64 0 -37 5 -55 17 -64 9 -7 17 -15 17 -18
0 -4 14 -29 31 -57 49 -80 72 -61 37 32 -16 44 8 62 45 34 16 -12 16 -15 2
-29 -20 -20 -20 -73 1 -81 11 -4 21 7 36 41 18 40 19 48 6 57 -12 9 -13 15 -4
29 13 21 -4 53 -28 51 -20 -2 -20 -8 8 78 36 113 49 165 41 177 -8 14 -20 14
-33 -1z"/>
<path d="M10690 3213 c-25 -9 -70 -56 -70 -74 0 -9 7 -22 15 -29 15 -13 35 -6
35 13 0 7 14 24 32 39 29 24 31 29 18 41 -8 8 -22 12 -30 10z"/>
<path d="M8133 3202 c-19 -12 -26 -57 -10 -70 19 -16 42 -7 62 25 13 19 14 27
4 39 -12 15 -37 18 -56 6z"/>
<path d="M663 3188 c-31 -40 -15 -82 28 -76 21 3 24 8 24 43 0 33 -4 41 -21
43 -11 2 -25 -3 -31 -10z"/>
<path d="M5187 3194 c-1 -1 -81 -4 -178 -7 -223 -8 -289 -16 -289 -33 0 -17
65 -18 250 -4 69 5 230 10 359 11 245 3 302 7 308 24 2 7 -73 10 -223 10 -124
0 -226 -1 -227 -1z"/>
<path d="M7303 3193 c-21 -8 -15 -48 10 -71 45 -42 59 -23 32 42 -15 36 -19
39 -42 29z"/>
<path d="M6064 3179 c-14 -23 13 -28 126 -24 119 4 140 8 140 25 0 12 -258 11
-266 -1z"/>
<path d="M7113 3174 c-10 -27 14 -64 42 -64 20 0 25 5 25 24 0 13 -3 31 -6 40
-8 21 -53 21 -61 0z"/>
<path d="M8282 3154 c-2 -35 -1 -36 26 -31 16 3 34 1 41 -6 15 -15 36 6 27 28
-4 13 -13 15 -32 11 -20 -5 -27 -3 -31 14 -9 33 -28 23 -31 -16z"/>
<path d="M10785 3174 c-20 -20 -19 -53 1 -61 19 -7 44 21 44 48 0 24 -26 31
-45 13z"/>
<path d="M2978 3159 c-10 -5 -18 -16 -18 -24 0 -7 -8 -16 -18 -19 -18 -6 -50
-52 -50 -71 0 -5 -14 -8 -32 -7 -27 3 -39 -3 -76 -44 -37 -40 -44 -43 -44 -25
0 12 -7 24 -15 27 -19 8 -45 -13 -45 -36 0 -18 -19 -30 -46 -30 -11 0 -13 8
-9 34 9 46 -9 54 -41 19 -22 -24 -25 -35 -21 -76 5 -62 22 -80 45 -51 9 12 32
26 51 33 30 10 35 9 53 -14 13 -16 29 -25 49 -25 23 0 32 7 49 40 11 22 24 40
28 40 4 0 31 23 61 50 42 39 61 50 87 50 45 0 84 16 84 35 0 10 -10 15 -35 15
-25 0 -33 4 -29 14 3 8 14 16 25 19 15 4 20 12 17 29 -3 26 -41 35 -70 17z"/>
<path d="M3481 3144 c-16 -12 -21 -22 -17 -39 4 -15 1 -25 -9 -29 -20 -7 -19
-35 1 -43 9 -3 31 1 50 10 28 14 42 15 89 5 64 -12 92 0 75 32 -7 13 -7 21 1
25 23 15 0 29 -50 31 -41 3 -55 -1 -69 -16 -9 -11 -21 -20 -26 -20 -5 0 -2 8
7 18 10 10 17 24 17 30 0 17 -42 15 -69 -4z"/>
<path d="M10270 3156 c0 -2 -7 -40 -15 -83 -8 -43 -15 -84 -15 -90 0 -25 20
-13 40 25 l21 37 -5 -45 c-5 -48 6 -82 22 -65 5 6 15 31 22 58 17 65 30 68 30
8 0 -51 0 -51 33 -51 37 0 57 15 57 42 0 12 -8 18 -25 18 -22 0 -24 3 -15 25
11 28 0 39 -30 30 -23 -7 -25 -2 -9 27 7 14 8 23 0 31 -14 14 -61 -18 -61 -43
0 -10 -5 -22 -11 -26 -9 -5 -10 1 -5 22 20 82 20 84 -8 84 -14 0 -26 -2 -26
-4z"/>
<path d="M11474 3116 c-9 -22 -1 -48 18 -60 24 -15 32 -1 22 36 -10 35 -31 48
-40 24z"/>
<path d="M11703 3119 c-8 -8 -9 -18 0 -36 10 -22 24 -25 76 -14 4 1 -60 61
-64 61 0 0 -6 -5 -12 -11z"/>
<path d="M10158 3094 c-11 -23 -9 -33 13 -73 15 -25 34 -48 44 -49 15 -4 17 1
11 35 -20 110 -44 140 -68 87z"/>
<path d="M4063 3080 c-10 -11 -25 -43 -34 -72 -15 -46 -16 -56 -3 -100 19 -63
37 -69 74 -28 16 18 33 29 39 25 6 -3 11 1 11 11 0 10 14 33 32 51 23 24 29
36 21 44 -8 8 -27 0 -68 -31 -62 -46 -82 -42 -63 11 8 25 13 27 43 22 19 -3
41 -3 49 0 21 8 9 35 -17 39 -14 2 -23 11 -25 26 -4 28 -36 29 -59 2z"/>
<path d="M8747 3084 c-4 -4 -7 -25 -7 -46 0 -34 3 -38 26 -38 23 0 25 3 22 42
-3 41 -22 60 -41 42z"/>
<path d="M8563 3073 c-27 -10 -2 -83 29 -83 23 0 25 52 2 74 -8 9 -16 16 -17
15 -1 0 -8 -3 -14 -6z"/>
<path d="M1188 3039 c-25 -14 -22 -36 8 -55 17 -12 21 -19 13 -24 -15 -10 -3
-30 17 -30 15 0 53 37 54 51 0 4 -9 9 -19 12 -11 2 -21 15 -23 28 -3 27 -24
34 -50 18z"/>
<path d="M9406 3029 c-9 -13 -16 -31 -16 -41 0 -9 -4 -20 -10 -23 -6 -3 -10 5
-10 19 0 29 -19 44 -31 25 -20 -32 22 -179 50 -179 27 0 40 21 34 52 -3 16 0
56 7 89 15 69 4 97 -24 58z"/>
<path d="M9793 3040 c-24 -10 -29 -30 -13 -59 7 -14 3 -22 -20 -40 -18 -13
-30 -31 -30 -45 0 -37 10 -37 45 0 30 31 37 34 69 28 43 -7 46 4 15 48 -16 22
-19 32 -10 41 31 31 -5 48 -56 27z"/>
<path d="M1398 3023 c-48 -25 -32 -52 38 -67 23 -5 36 -2 48 10 16 16 15 18
-10 45 -31 32 -37 33 -76 12z"/>
<path d="M8175 2997 c-31 -54 -36 -131 -8 -125 11 2 20 16 24 39 3 20 16 50
28 68 13 17 20 38 17 46 -10 27 -35 15 -61 -28z"/>
<path d="M10948 3009 c-20 -10 -59 -48 -88 -84 -66 -84 -104 -82 -76 3 5 16 3
24 -10 29 -20 8 -53 -32 -54 -65 0 -12 -7 -25 -15 -28 -8 -4 -15 -15 -15 -26
0 -18 5 -20 45 -16 39 5 45 3 45 -13 0 -29 21 -34 41 -8 21 28 36 20 18 -9
-17 -27 -5 -55 21 -47 11 3 20 2 20 -2 0 -5 6 -18 14 -28 13 -17 15 -17 48 8
19 15 39 27 45 27 5 0 18 6 28 14 16 11 17 16 7 29 -12 14 -17 14 -49 1 -26
-11 -34 -12 -31 -3 5 15 56 45 84 51 10 2 19 10 19 18 0 11 -10 15 -37 14 -21
-1 -38 0 -38 1 0 2 20 12 45 24 43 20 57 43 34 57 -6 3 -23 0 -37 -7 -30 -15
-104 -69 -113 -82 -4 -5 -12 -8 -19 -5 -18 6 48 82 93 108 63 36 41 73 -25 39z"/>
<path d="M11305 3020 c-3 -5 -17 -10 -30 -10 -28 0 -44 -26 -65 -102 -14 -55
-9 -78 19 -78 15 0 22 9 27 38 9 51 23 75 24 40 0 -33 20 -78 33 -78 12 0 97
40 97 45 0 2 -5 16 -12 32 -6 15 -10 32 -9 38 1 5 -7 1 -18 -9 -12 -11 -21
-30 -21 -44 0 -28 -10 -25 -15 5 -1 10 9 30 22 45 20 21 24 32 18 57 -5 26
-11 31 -35 31 -16 0 -32 -4 -35 -10z"/>
<path d="M8035 2997 c-9 -33 12 -107 30 -107 18 0 21 13 15 73 -4 38 -9 53
-22 55 -11 2 -19 -5 -23 -21z"/>
<path d="M8276 2973 c-53 -69 -45 -110 22 -104 15 1 16 33 1 48 -8 8 0 22 30
51 42 41 43 52 6 52 -15 0 -35 -16 -59 -47z"/>
<path d="M2990 2989 c-19 -10 -39 -19 -45 -19 -12 0 -65 -64 -65 -78 0 -26 34
-18 77 19 27 23 58 50 71 60 45 39 21 51 -38 18z"/>
<path d="M5010 2993 c-120 -3 -153 -9 -148 -25 6 -17 918 -15 959 2 40 17 37
34 -3 26 -29 -6 -404 -7 -628 -3 -41 1 -122 1 -180 0z"/>
<path d="M4229 2967 c-44 -29 -44 -51 -1 -55 22 -2 34 2 38 13 5 12 17 16 43
14 47 -4 54 10 16 32 -40 24 -56 23 -96 -4z"/>
<path d="M7770 2975 c-14 -17 -7 -45 13 -45 17 0 59 44 50 53 -12 12 -50 7
-63 -8z"/>
<path d="M7930 2957 c0 -22 9 -44 25 -63 14 -16 25 -32 25 -36 0 -5 9 -8 20
-8 26 0 25 18 -4 85 -19 41 -30 55 -45 55 -17 0 -21 -6 -21 -33z"/>
<path d="M2471 2967 c-6 -6 -11 -16 -11 -23 0 -6 -21 -28 -46 -49 -36 -30 -44
-43 -42 -64 4 -32 41 -41 69 -15 15 13 22 14 33 5 8 -7 24 -10 36 -6 23 7 28
45 6 45 -24 0 -28 17 -11 49 16 31 12 56 -10 64 -7 3 -18 0 -24 -6z"/>
<path d="M3464 2969 c-18 -5 -39 -20 -48 -34 -9 -13 -34 -30 -57 -36 -43 -13
-59 -33 -41 -51 15 -15 90 17 119 51 22 25 26 26 150 26 106 0 128 3 131 15 4
24 -79 46 -106 29 -17 -11 -28 -11 -55 -1 -38 14 -49 14 -93 1z"/>
<path d="M9446 2959 c-14 -20 -13 -26 9 -68 14 -25 33 -56 43 -68 18 -20 22
-21 56 -9 23 8 46 27 62 49 14 21 29 37 34 37 16 0 11 30 -5 37 -9 3 -26 -3
-38 -13 l-22 -19 18 22 c11 12 16 27 12 32 -13 21 -35 10 -60 -29 -30 -48 -41
-50 -49 -8 -6 32 -23 58 -37 58 -4 0 -15 -10 -23 -21z"/>
<path d="M8353 2960 c-47 -19 -15 -70 44 -70 33 0 35 1 28 27 -12 51 -28 60
-72 43z"/>
<path d="M8441 2956 c-9 -11 -8 -17 3 -29 8 -8 12 -17 9 -21 -4 -3 -1 -6 6 -6
18 0 35 52 19 62 -18 11 -24 10 -37 -6z"/>
<path d="M3225 2943 c-29 -8 -65 -34 -65 -48 0 -7 6 -17 13 -23 10 -9 22 -4
50 19 20 17 37 37 37 45 0 15 -2 15 -35 7z"/>
<path d="M9007 2943 c-12 -11 -8 -40 8 -53 19 -15 55 -3 55 19 0 31 -43 55
-63 34z"/>
<path d="M10582 2938 c-19 -19 -14 -54 11 -84 32 -37 49 -25 41 29 -10 61 -27
80 -52 55z"/>
<path d="M11841 2932 c-20 -37 -14 -62 14 -62 19 0 25 5 25 23 0 13 -6 32 -14
42 -13 18 -14 18 -25 -3z"/>
<path d="M3868 2933 c-40 -3 -48 -7 -48 -24 0 -18 4 -20 47 -13 67 10 92 18
95 29 3 11 -25 14 -94 8z"/>
<path d="M4421 2927 c-54 -19 -51 -37 7 -37 35 0 54 5 65 18 10 10 17 22 17
25 0 11 -51 7 -89 -6z"/>
<path d="M6301 2929 c-35 -4 -66 -11 -69 -14 -16 -15 23 -21 113 -16 84 5 100
9 103 24 3 14 -4 17 -40 16 -24 -1 -72 -5 -107 -10z"/>
<path d="M10440 2920 c-14 -27 -13 -37 16 -97 45 -96 82 -84 64 20 -11 58 -16
68 -41 81 -27 13 -30 13 -39 -4z"/>
<path d="M1022 2899 c3 -8 8 -13 11 -11 9 3 7 11 -5 18 -6 4 -8 0 -6 -7z"/>
<path d="M5438 2882 c-22 -4 -23 -16 -3 -32 8 -7 15 -19 15 -26 0 -8 5 -14 10
-14 6 0 10 6 10 14 0 22 8 24 120 31 106 6 120 9 120 25 0 9 -234 11 -272 2z"/>
<path d="M9837 2883 c-14 -22 14 -34 87 -37 72 -3 100 5 80 24 -13 12 -161 23
-167 13z"/>
<path d="M9227 2873 c-24 -23 10 -83 46 -83 18 0 20 11 11 59 -5 23 -12 31
-29 31 -12 0 -25 -3 -28 -7z"/>
<path d="M4096 2841 c-30 -6 -48 -30 -24 -32 33 -3 85 4 100 12 45 24 -2 36
-76 20z"/>
<path d="M4950 2844 c0 -3 4 -14 10 -24 14 -26 -2 -28 -185 -18 -169 9 -205 6
-205 -17 0 -24 20 -28 144 -32 67 -2 150 -5 186 -7 121 -8 435 -8 453 -1 10 4
17 15 15 24 -3 14 -21 16 -149 12 -189 -4 -222 1 -236 40 -10 24 -33 41 -33
23z"/>
<path d="M6327 2824 c-3 -3 -137 -7 -299 -7 -262 -2 -293 -4 -296 -18 -3 -15
25 -17 296 -17 165 -1 312 3 328 7 40 11 45 41 6 41 -16 0 -31 -3 -35 -6z"/>
<path d="M3731 2795 c-41 -14 -49 -30 -23 -44 14 -7 29 -7 51 2 26 9 36 9 60
-6 55 -32 200 -15 177 21 -4 6 -12 9 -19 7 -7 -2 -33 -6 -59 -9 -38 -4 -51 -2
-65 13 -23 24 -78 31 -122 16z"/>
<path d="M3183 2745 c-9 -7 -14 -19 -10 -27 5 -13 31 -15 177 -13 170 3 209
10 183 36 -16 16 -329 19 -350 4z"/>
<path d="M4066 2711 c-61 -6 -84 -24 -45 -36 43 -14 179 14 179 37 0 9 -38 8
-134 -1z"/>
<path d="M3434 2607 c-118 -18 -115 -17 -112 -40 4 -29 50 -34 111 -13 52 18
295 20 494 5 67 -5 129 -6 138 -3 16 6 21 29 8 37 -25 16 -556 27 -639 14z"/>
<path d="M4536 2604 c-10 -27 12 -35 85 -32 67 3 74 5 77 25 3 21 0 22 -77 20
-47 -1 -82 -7 -85 -13z"/>
<path d="M6562 2199 c3 -8 8 -13 11 -11 9 3 7 11 -5 18 -6 4 -8 0 -6 -7z"/>
<path d="M599 1965 c-42 -22 -51 -55 -37 -136 12 -74 27 -92 71 -88 12 1 35
-1 50 -6 16 -4 63 -10 105 -14 l77 -6 -3 -245 c-2 -135 -5 -359 -8 -498 -4
-198 -3 -257 7 -269 19 -22 162 -9 200 18 15 10 34 19 43 19 18 0 21 11 6 26
-14 14 -16 159 -6 403 4 113 9 277 10 365 l1 161 60 -1 c33 -1 85 -5 116 -9
38 -5 69 -3 95 5 66 21 72 32 73 123 0 125 7 118 -117 113 -59 -2 -112 0 -118
5 -9 7 -76 16 -149 20 -5 0 -29 -3 -52 -7 -36 -5 -43 -4 -43 10 0 21 -16 21
-29 -1 -8 -14 -12 -15 -25 -4 -11 9 -29 11 -55 7 -23 -3 -52 -1 -68 6 -43 17
-173 20 -204 3z m266 -80 c220 -10 303 -17 339 -26 22 -6 70 -8 114 -3 l75 7
-7 -49 c-3 -26 -10 -52 -15 -57 -7 -7 -113 3 -146 13 -25 8 -145 -13 -159 -29
-12 -13 -16 -61 -20 -231 -3 -118 -8 -325 -12 -460 -6 -265 -7 -270 -64 -283
-54 -13 -53 -19 -39 354 7 189 12 355 11 369 -7 110 -2 224 10 231 9 6 7 13
-10 32 -24 26 -28 43 -10 49 15 5 1 28 -18 28 -8 0 -14 -6 -14 -14 0 -18 -55
-40 -77 -31 -10 5 -31 9 -48 11 -122 12 -153 31 -135 78 9 26 11 26 77 21 38
-3 104 -8 148 -10z"/>
<path d="M1553 1933 c-41 -8 -46 -27 -48 -181 -1 -81 -5 -163 -8 -182 -4 -19
-10 -87 -15 -150 -10 -129 -11 -137 -16 -200 -2 -25 -9 -145 -16 -268 -13
-244 -13 -243 44 -262 27 -9 41 -7 79 9 85 36 114 141 118 416 1 39 5 77 10
86 8 15 58 39 81 39 10 0 2 -271 -13 -397 -11 -100 -1 -141 40 -163 43 -23 89
-12 136 31 47 44 55 70 30 103 -17 23 -20 147 -5 211 5 22 12 90 16 151 6 103
5 116 -15 157 -12 25 -41 62 -63 83 -38 34 -44 36 -88 31 -26 -3 -62 -15 -81
-26 -18 -11 -36 -18 -39 -16 -7 4 19 222 39 332 16 83 -3 174 -40 193 -17 10
-103 11 -146 3z m116 -85 c11 -27 4 -189 -8 -233 -14 -47 -35 -250 -28 -269 9
-23 48 -20 118 9 33 14 68 23 78 20 9 -3 34 -22 54 -43 44 -45 58 -102 46
-183 -26 -164 -30 -211 -25 -279 2 -41 7 -83 11 -92 9 -23 -26 -41 -58 -29
-29 11 -40 59 -27 117 5 21 10 120 11 219 2 181 -4 225 -35 225 -19 0 -150
-65 -164 -82 -6 -8 -12 -37 -13 -64 -5 -135 -22 -319 -31 -338 -6 -11 -14 -28
-18 -36 -4 -8 -20 -15 -36 -15 l-29 0 1 120 c2 186 18 385 32 385 4 0 7 35 7
77 0 43 6 155 14 248 7 94 13 191 13 218 l0 47 39 0 c32 0 41 -4 48 -22z"/>
<path d="M5575 1892 c-33 -24 -50 -175 -25 -222 15 -28 82 -43 167 -36 66 4
74 3 84 -15 6 -11 8 -28 4 -37 -3 -8 -8 -129 -10 -269 -4 -249 -19 -400 -54
-572 -13 -64 1 -87 59 -101 37 -9 54 -9 71 0 12 7 37 10 55 7 19 -3 37 -1 42
6 6 7 11 123 11 277 1 191 6 294 17 370 12 73 15 139 11 217 -6 134 -5 135 95
140 83 3 141 27 146 61 2 12 7 22 11 22 15 0 30 -77 36 -187 3 -61 10 -126 15
-143 10 -35 -10 -348 -40 -638 -14 -139 2 -166 88 -143 85 23 101 69 133 381
6 58 16 111 22 118 6 8 16 24 22 35 13 28 38 32 59 12 18 -19 22 -128 6 -205
-5 -25 -12 -103 -15 -175 -7 -144 0 -172 47 -187 22 -8 32 -5 50 12 13 12 35
24 50 27 40 8 49 23 37 65 -8 33 -6 216 6 323 2 22 4 79 5 127 1 103 -12 140
-71 193 -51 46 -81 52 -138 30 -25 -9 -57 -20 -70 -23 l-23 -5 7 175 c7 164 6
177 -14 221 -11 25 -21 50 -21 56 0 36 -102 53 -170 29 -30 -10 -35 -9 -52 15
-26 36 -62 41 -154 21 -53 -11 -133 -17 -244 -18 -157 -1 -167 0 -194 22 -30
23 -44 27 -61 14z m599 -94 c9 -12 16 -32 16 -44 0 -27 -39 -41 -115 -43 -68
-3 -117 -28 -127 -66 -4 -16 -5 -78 -2 -137 5 -95 4 -108 -10 -108 -9 0 -16
-4 -16 -10 0 -5 5 -10 11 -10 7 0 9 -21 5 -62 -3 -35 -9 -184 -12 -333 -4
-165 -10 -272 -16 -276 -6 -4 -28 -7 -49 -7 -48 -1 -72 20 -60 52 8 19 35 189
40 251 1 11 4 98 7 193 4 109 9 172 16 172 7 0 8 12 4 33 -4 17 -7 85 -6 149
1 140 4 137 -132 139 -117 1 -128 7 -128 65 l0 46 63 -9 c93 -12 392 1 403 18
3 5 25 9 49 9 34 0 47 -5 59 -22z m229 -56 c16 -38 20 -64 18 -142 -6 -228 -6
-302 1 -313 7 -12 65 -1 124 23 46 19 96 5 139 -38 l37 -37 -6 -170 c-4 -93
-11 -188 -16 -210 -5 -22 -10 -71 -10 -108 l0 -68 -27 3 c-17 2 -27 8 -25 16
1 7 4 50 7 95 2 45 9 140 15 212 13 151 8 195 -27 229 -39 39 -59 41 -104 11
-58 -38 -75 -73 -83 -168 -25 -305 -42 -387 -82 -387 -28 0 -37 41 -30 143 4
55 9 104 12 109 14 22 33 355 29 511 -4 149 -8 184 -29 248 -13 41 -23 76 -21
79 2 3 15 6 30 7 23 1 30 -6 48 -45z"/>
<path d="M3087 1860 c-89 -56 -138 -110 -179 -196 -21 -45 -38 -89 -38 -97 0
-27 -12 -47 -27 -47 -11 0 -14 -8 -11 -31 3 -18 1 -52 -4 -78 -5 -25 -11 -62
-13 -81 -3 -19 -8 -57 -12 -85 -4 -27 -6 -53 -5 -57 1 -5 5 -59 8 -120 3 -62
7 -129 9 -148 1 -19 3 -66 4 -103 1 -65 2 -69 31 -85 17 -9 32 -24 35 -33 9
-26 105 -69 175 -78 92 -12 206 3 246 32 36 25 91 93 118 144 9 18 23 66 32
107 17 82 11 124 -26 184 -16 26 -26 32 -55 32 -32 0 -39 -5 -70 -55 -20 -30
-40 -76 -45 -102 -19 -102 -29 -113 -105 -113 -117 0 -131 30 -138 299 -5 196
-4 206 20 290 14 47 29 91 33 96 4 6 10 22 13 36 4 15 25 45 47 67 38 37 43
40 71 30 35 -12 36 -14 55 -85 8 -32 22 -65 31 -75 26 -29 68 -22 112 18 l40
35 -1 79 c-1 77 -2 79 -49 144 -59 80 -106 106 -194 106 -51 0 -69 -5 -108
-30z m220 -84 c54 -36 67 -68 58 -150 -11 -97 -36 -98 -49 -2 -9 72 -26 93
-89 106 -67 14 -90 5 -143 -52 -54 -59 -68 -81 -92 -153 -38 -114 -43 -146
-42 -339 0 -100 -4 -154 -12 -163 -9 -11 -9 -16 1 -22 7 -5 11 -17 10 -27 -4
-29 52 -134 86 -159 36 -27 121 -40 173 -26 53 15 88 56 101 119 12 60 32 102
56 122 26 21 37 -5 32 -75 -8 -104 -80 -231 -147 -257 -14 -6 -63 -10 -110
-10 -67 -1 -94 4 -125 20 -43 22 -91 76 -105 120 -37 109 -49 470 -19 582 9
36 24 83 33 104 9 21 16 45 16 53 0 34 63 149 93 171 126 90 183 98 274 38z"/>
<path d="M9985 1865 c-38 -37 -33 -75 15 -119 23 -20 54 -39 71 -43 42 -8 51
-33 52 -145 1 -114 -7 -130 -49 -95 -42 35 -82 41 -154 22 -78 -20 -111 -44
-144 -105 -43 -79 -56 -171 -59 -418 -1 -122 1 -222 6 -222 4 0 7 -9 7 -20 0
-53 71 -132 133 -149 52 -13 133 -4 180 21 l38 20 34 -35 c19 -20 44 -38 55
-42 27 -8 118 44 148 85 32 43 26 64 -20 68 -20 2 -42 10 -49 18 -12 14 -16
93 -12 204 2 30 0 136 -3 235 -4 135 -1 214 11 315 23 183 20 237 -13 301 -24
45 -36 57 -101 90 -86 45 -113 48 -146 14z m115 -83 c39 -20 60 -37 72 -62 19
-41 31 -107 22 -122 -10 -16 -24 13 -24 53 0 45 -37 102 -70 109 -28 6 -70 31
-70 42 0 13 12 9 70 -20z m80 -419 c-7 -98 -9 -250 -5 -425 6 -252 8 -275 26
-294 26 -28 24 -34 -11 -34 -20 0 -33 6 -38 18 -19 45 -49 82 -64 82 -10 0
-18 -6 -18 -14 0 -23 -28 -45 -73 -57 -54 -14 -106 1 -157 47 -53 48 -64 102
-63 327 1 221 19 313 72 369 14 15 36 28 49 28 12 0 22 5 22 10 0 6 25 10 55
10 47 0 55 -3 55 -18 0 -18 53 -42 92 -42 19 0 44 67 55 145 14 107 16 11 3
-152z"/>
<path d="M9920 1358 c-76 -52 -106 -164 -95 -358 4 -74 6 -154 5 -178 -1 -54
29 -106 72 -121 55 -19 120 -13 151 14 15 13 27 29 27 35 0 5 5 10 10 10 7 0
9 81 6 237 -4 190 -2 244 10 271 14 36 12 52 -10 52 -7 0 -25 14 -41 30 -36
38 -87 40 -135 8z m113 -64 c21 -22 23 -31 16 -63 -5 -20 -9 -132 -8 -250 0
-223 -1 -230 -43 -231 -59 0 -101 48 -105 119 -1 25 -5 107 -9 182 -6 118 -4
137 10 151 9 10 12 19 7 23 -12 7 -5 30 21 68 26 37 77 38 111 1z"/>
<path d="M7811 1857 c-64 -11 -90 -41 -72 -85 29 -75 43 -617 21 -852 -5 -58
-9 -144 -10 -192 0 -73 3 -89 18 -96 28 -16 109 -23 274 -24 l157 -2 42 29
c33 24 46 42 61 85 25 75 36 280 18 347 -12 45 -46 119 -72 154 -9 13 -6 23
14 50 39 53 50 94 58 222 8 128 1 173 -40 260 -29 61 -69 94 -123 101 -73 10
-292 11 -346 3z m372 -89 c10 -5 33 -40 50 -76 27 -57 32 -79 32 -147 1 -176
-22 -246 -88 -263 -47 -13 -52 -4 -18 32 35 36 60 131 62 234 2 79 -31 165
-74 190 -49 30 -215 44 -243 21 -28 -23 -37 -96 -36 -269 2 -165 3 -176 23
-193 32 -26 60 -30 149 -20 44 5 80 6 80 3 0 -3 -16 -13 -36 -22 -28 -13 -41
-14 -54 -5 -22 13 -50 -5 -50 -32 0 -19 52 -42 69 -31 15 9 142 -9 158 -22 7
-6 23 -31 35 -57 17 -37 22 -71 26 -174 4 -114 2 -133 -18 -186 -12 -33 -29
-63 -38 -66 -10 -4 -89 -9 -177 -12 l-161 -5 -33 28 -34 28 8 126 c4 69 7 136
7 150 -1 50 18 144 30 152 10 6 10 10 -2 17 -11 8 -15 52 -18 238 -1 125 -7
260 -11 298 -6 48 -5 72 3 78 15 11 335 -2 359 -15z m-99 -81 c32 -9 42 -19
58 -55 21 -46 24 -88 13 -187 -11 -101 -31 -115 -160 -115 l-62 0 -7 38 c-8
53 -8 327 2 336 8 9 101 -1 156 -17z"/>
<path d="M7923 1148 c-48 -10 -48 -10 -58 -128 -22 -265 -17 -317 30 -286 27
18 78 21 156 11 95 -13 124 22 136 159 15 197 -81 286 -264 244z m111 -57 c21
-5 50 -21 65 -35 48 -46 64 -190 27 -241 -11 -16 -24 -16 -117 -9 l-104 9 3
130 c1 72 4 136 7 143 5 14 63 16 119 3z"/>
<path d="M4783 1820 c-26 -24 -30 -62 -8 -80 8 -7 20 -30 27 -51 11 -38 10
-41 -23 -75 -19 -19 -48 -44 -66 -55 -31 -19 -58 -72 -47 -91 7 -10 95 -9 136
3 18 5 30 3 35 -4 7 -11 6 -290 -2 -359 -2 -20 -7 -94 -11 -162 -10 -178 11
-239 89 -265 49 -17 89 3 167 82 69 70 82 100 54 127 -17 17 -25 18 -67 8 -53
-11 -55 -10 -59 18 -5 34 29 597 38 625 2 9 22 24 44 34 60 27 65 37 51 100
-21 95 -67 127 -127 88 -25 -16 -26 -15 -50 10 -27 29 -75 52 -127 62 -24 5
-37 1 -54 -15z m129 -87 c17 -16 36 -53 49 -95 l22 -68 -17 -309 c-9 -169 -21
-334 -27 -365 -5 -31 -7 -61 -4 -66 8 -13 54 -13 94 1 18 6 35 9 38 6 8 -9
-37 -61 -72 -84 -77 -51 -132 53 -115 215 26 245 21 517 -14 717 -14 86 -4 96
46 48z m153 -43 c20 -39 19 -57 -4 -70 -16 -8 -23 -6 -35 12 -19 27 -21 59 -4
76 18 18 26 15 43 -18z m-235 -127 c0 -23 -29 -53 -51 -53 -31 0 -30 18 3 44
39 30 48 32 48 9z"/>
<path d="M10403 1772 c-15 -9 -43 -86 -43 -117 0 -30 28 -63 60 -70 15 -3 40
2 60 12 32 16 35 22 37 63 4 85 -4 95 -77 113 -14 3 -31 3 -37 -1z m51 -88 c7
-19 -2 -37 -15 -29 -12 8 -12 45 0 45 5 0 12 -7 15 -16z"/>
<path d="M12557 1752 c-24 -26 -21 -56 10 -103 26 -40 26 -40 8 -72 -10 -18
-34 -51 -53 -74 -28 -35 -33 -47 -27 -73 9 -40 44 -58 80 -42 14 7 29 12 32
12 6 0 -4 -556 -13 -655 -6 -69 -5 -71 28 -115 18 -25 50 -53 70 -63 32 -16
42 -17 80 -5 69 20 125 65 144 115 10 24 26 50 37 58 19 13 18 14 -13 45 -29
28 -38 31 -70 26 -62 -10 -65 -1 -63 220 0 119 5 206 13 228 8 24 8 41 2 49
-5 7 -14 38 -19 69 -10 59 -3 88 22 88 8 0 15 8 15 18 0 9 9 23 20 30 18 11
20 19 14 65 -4 28 -10 57 -14 62 -5 6 -13 29 -19 53 -9 33 -16 42 -34 42 -12
0 -33 -7 -46 -16 -21 -15 -23 -15 -37 5 -8 11 -23 21 -33 21 -10 0 -35 7 -54
15 -47 19 -60 19 -80 -3z m136 -125 c33 -63 41 -158 39 -452 -3 -272 -5 -294
-33 -295 -14 0 -18 94 -14 325 4 226 -10 422 -31 457 -4 6 -1 9 6 6 8 -2 22
-21 33 -41z m-83 -152 c0 -8 -7 -15 -15 -15 -16 0 -20 12 -8 23 11 12 23 8 23
-8z m100 -618 c10 -8 16 -36 19 -87 4 -92 12 -103 63 -95 31 6 38 4 38 -9 0
-11 -9 -16 -27 -16 -16 0 -38 -3 -50 -6 -17 -5 -23 -2 -23 10 0 9 -7 16 -16
16 -19 0 -42 55 -39 95 1 17 3 47 3 68 2 39 8 44 32 24z"/>
<path d="M11026 1508 c-50 -6 -66 -14 -99 -45 -90 -86 -138 -198 -156 -363
-23 -206 -24 -262 -6 -329 48 -186 203 -271 356 -194 52 26 119 81 119 99 0 5
7 23 16 39 25 45 25 166 0 194 -43 48 -110 8 -154 -93 -24 -53 -48 -63 -98
-39 -57 27 -77 86 -78 228 -1 90 2 116 17 138 9 14 17 33 17 41 0 8 5 27 12
43 6 15 12 34 14 42 1 7 13 24 25 37 47 50 121 16 135 -62 10 -58 21 -74 52
-74 33 0 42 6 70 47 19 27 21 40 16 95 -13 142 -109 216 -258 196z m119 -83
c52 -21 77 -58 82 -119 2 -32 0 -56 -5 -56 -12 0 -22 24 -22 54 0 42 -75 96
-133 96 -77 0 -167 -131 -198 -289 -18 -95 -7 -234 24 -304 24 -52 32 -60 82
-83 79 -36 118 -26 163 41 17 28 38 50 45 50 7 0 11 10 9 23 -2 15 2 22 12 22
33 0 15 -117 -26 -169 -21 -27 -89 -61 -122 -61 -32 0 -116 30 -148 52 -16 11
-40 39 -54 64 -22 37 -27 60 -31 144 -4 99 20 344 37 365 4 5 11 21 15 35 10
32 74 110 90 110 6 0 20 9 30 20 15 16 30 20 69 19 28 -1 65 -7 81 -14z"/>
<path d="M9335 1480 c-66 -32 -122 -39 -131 -15 -8 20 -37 19 -57 -3 -15 -16
-15 -20 -2 -39 8 -12 31 -27 51 -33 31 -10 46 -9 107 10 40 12 78 27 85 32 30
25 144 -31 165 -82 24 -60 35 -172 25 -284 -5 -61 -12 -145 -15 -186 -3 -41
-7 -108 -7 -148 -1 -57 -4 -72 -16 -72 -38 1 -45 17 -45 112 0 130 15 278 31
312 8 16 12 32 9 36 -2 4 -7 36 -11 71 -10 97 -35 172 -64 186 -45 23 -80 16
-136 -29 -70 -57 -80 -76 -64 -124 26 -79 -14 -554 -47 -554 -2 0 -11 7 -19
14 -16 16 -16 28 -12 361 3 227 -2 270 -45 346 -52 92 -121 136 -145 93 -14
-26 -4 -47 38 -76 80 -56 99 -138 93 -411 -3 -105 -5 -241 -6 -302 l-2 -110
40 -3 c49 -4 141 16 156 35 7 8 9 27 4 51 -10 52 -6 179 9 302 7 58 11 145 9
193 -4 97 9 134 55 158 21 12 26 11 42 -9 31 -37 45 -154 31 -247 -35 -230
-37 -393 -7 -440 22 -33 75 -42 131 -21 91 35 122 85 60 96 l-30 5 3 115 c2
63 8 142 13 175 6 33 11 121 12 196 0 131 -1 139 -27 190 -31 58 -52 79 -108
109 -51 27 -102 24 -173 -10z"/>
<path d="M10470 1495 c0 -13 -4 -14 -21 -4 -34 18 -69 -6 -69 -47 0 -18 5 -36
11 -40 6 -3 19 -26 30 -51 22 -51 26 -195 9 -318 -5 -38 -13 -136 -16 -216 -6
-141 -6 -148 17 -188 13 -24 33 -44 47 -48 54 -13 126 16 152 62 23 43 36 63
47 77 16 18 5 58 -16 59 -73 4 -66 -4 -62 84 2 44 7 82 12 85 4 3 4 23 -1 45
-4 22 -7 87 -6 145 2 93 -6 184 -20 230 -2 9 -22 35 -44 59 -22 23 -40 51 -40
62 0 10 -7 19 -15 19 -8 0 -15 -7 -15 -15z m72 -241 c8 -58 7 -131 -3 -284
-19 -273 -20 -251 19 -264 l33 -12 -25 -27 c-32 -34 -40 -34 -66 4 -27 36 -29
89 -15 269 6 69 10 194 10 277 0 148 1 152 18 134 12 -12 22 -45 29 -97z"/>
<path d="M2285 1490 c-3 -5 -14 -10 -23 -10 -22 0 -110 -46 -141 -74 -56 -50
-104 -231 -103 -391 1 -198 50 -294 178 -343 49 -19 123 -18 209 4 74 18 121
84 150 209 l16 67 -26 34 c-30 40 -44 42 -96 12 -36 -20 -58 -53 -87 -129 -10
-27 -47 -41 -80 -32 -43 11 -81 127 -67 200 9 47 31 53 181 46 122 -5 130 -4
148 15 21 24 33 106 19 124 -6 7 -16 42 -23 78 -8 36 -21 78 -30 93 -39 64
-202 134 -225 97z m112 -86 c44 -22 83 -76 83 -113 -1 -25 -1 -25 -18 7 -23
43 -93 82 -158 89 -50 5 -51 5 -86 -38 -38 -47 -58 -101 -58 -160 0 -46 7 -52
36 -32 17 11 55 16 136 18 62 1 121 5 130 9 11 5 20 1 27 -13 6 -11 11 -22 11
-24 0 -3 -39 -3 -87 -1 -203 8 -253 -13 -258 -106 -4 -82 20 -176 56 -222 31
-38 32 -39 93 -37 69 2 116 30 116 69 0 12 14 42 32 66 27 38 34 42 46 31 11
-12 11 -22 2 -58 -22 -80 -55 -124 -112 -148 -86 -36 -146 -23 -214 47 -58 60
-79 101 -93 183 -15 89 5 237 47 347 15 38 25 47 87 78 78 38 116 40 182 8z
m-57 -79 c7 -8 17 -15 23 -15 20 0 47 -33 47 -57 0 -21 -4 -23 -59 -23 -32 0
-73 -3 -90 -6 -30 -6 -31 -5 -31 28 0 59 78 111 110 73z"/>
<path d="M3840 1479 c-14 -5 -41 -11 -61 -14 -72 -11 -177 -134 -203 -238 -30
-118 -36 -260 -16 -367 14 -72 80 -167 140 -202 44 -25 59 -28 136 -28 78 0
91 3 120 25 41 32 89 129 104 215 25 135 6 410 -35 495 -40 84 -65 104 -145
120 -8 1 -26 -1 -40 -6z m68 -82 c49 -37 74 -74 78 -120 4 -36 3 -38 -6 -18
-32 73 -45 93 -71 106 -95 49 -182 -33 -230 -217 -24 -93 -24 -126 1 -223 24
-94 38 -117 90 -151 34 -23 46 -25 85 -19 40 6 50 12 73 49 16 24 37 86 51
145 20 84 26 99 33 80 16 -42 -7 -176 -43 -256 -28 -62 -69 -87 -129 -80 -60
7 -106 30 -143 69 -36 39 -52 70 -71 146 -19 75 -20 131 -5 239 13 93 46 167
99 221 38 40 46 43 136 50 11 1 34 -9 52 -21z m-24 -117 c31 -33 38 -49 42
-92 10 -99 -27 -338 -58 -375 -16 -19 -25 -16 -59 20 -69 71 -103 200 -78 298
8 30 14 59 15 64 0 6 6 23 12 38 7 16 12 34 12 41 0 16 39 45 60 45 9 1 33
-17 54 -39z m113 -82 c-3 -7 -5 -2 -5 12 0 14 2 19 5 13 2 -7 2 -19 0 -25z"/>
<path d="M8605 1476 c-16 -7 -56 -38 -87 -69 -54 -51 -58 -58 -58 -101 0 -51
17 -68 78 -81 36 -7 67 8 108 52 12 13 38 27 57 30 47 7 81 -25 91 -86 4 -24
5 -45 4 -47 -2 -2 -23 2 -46 8 -82 21 -188 -34 -235 -120 -36 -67 -61 -204
-53 -295 9 -103 70 -188 145 -203 39 -8 124 18 157 47 20 19 21 18 54 -16 28
-29 41 -35 77 -35 34 0 49 6 73 30 17 17 35 30 39 30 5 0 12 7 15 17 4 11 -5
27 -29 48 -39 37 -42 54 -25 165 6 36 13 119 17 185 3 66 10 123 15 126 6 4 6
9 -1 13 -6 4 -11 37 -11 79 0 55 -6 84 -24 122 -28 60 -49 80 -102 99 -52 18
-219 19 -259 2z m260 -90 c31 -17 42 -30 53 -66 17 -58 16 -219 -3 -378 -23
-188 -23 -237 3 -272 29 -38 28 -42 -8 -36 -17 2 -41 17 -56 35 -32 38 -62 40
-104 4 -23 -19 -46 -28 -84 -31 -51 -4 -53 -3 -84 35 -57 73 -62 103 -36 253
19 108 30 130 82 155 20 10 45 22 54 26 27 13 45 11 89 -12 37 -18 43 -19 64
-5 31 20 39 76 21 148 -16 70 -37 103 -78 124 -53 27 -130 4 -191 -58 -20 -21
-56 -24 -58 -5 -4 40 -2 42 84 89 45 25 54 27 130 21 56 -4 95 -12 122 -27z"/>
<path d="M8655 1056 c-61 -27 -96 -145 -80 -271 11 -89 60 -115 154 -82 62 22
81 74 98 269 l6 68 -36 15 c-44 18 -102 19 -142 1z m85 -52 l32 -7 -6 -51
c-19 -156 -23 -178 -36 -186 -29 -19 -70 -15 -87 8 -19 24 -16 146 3 185 31
61 34 62 94 51z"/>
<path d="M11533 1452 c-111 -73 -158 -177 -183 -407 -11 -101 -10 -118 8 -209
28 -132 61 -195 123 -236 62 -40 164 -58 212 -39 46 19 110 95 125 148 44 157
46 175 45 366 -1 212 -9 251 -75 339 -39 51 -65 65 -138 72 -52 6 -59 3 -117
-34z m138 -52 c65 -18 105 -88 119 -206 11 -103 3 -293 -16 -361 -8 -28 -14
-59 -14 -69 0 -10 -9 -37 -20 -60 -33 -68 -111 -87 -185 -46 -72 39 -132 153
-143 271 -7 76 5 221 27 315 19 81 78 142 151 157 19 4 37 7 40 8 3 0 21 -4
41 -9z"/>
<path d="M11569 1348 c-20 -11 -46 -38 -58 -59 -44 -77 -63 -286 -40 -428 19
-117 42 -156 111 -192 37 -19 38 -19 73 0 82 44 115 142 114 346 0 118 -16
201 -53 270 -46 87 -81 102 -147 63z m83 -76 c44 -66 61 -160 55 -299 -7 -149
-35 -236 -77 -241 -31 -3 -60 27 -78 79 -18 52 -24 239 -11 312 6 34 12 74 14
90 3 28 49 97 64 97 5 0 20 -17 33 -38z"/>
<path d="M4440 1474 c-59 -20 -99 -42 -124 -68 -70 -75 -154 -339 -141 -446
14 -118 34 -177 88 -254 34 -49 51 -61 107 -77 59 -16 94 -13 157 13 61 25 87
58 126 163 44 119 60 223 52 347 -11 187 -44 269 -123 307 -40 20 -106 26
-142 15z m112 -70 c49 -23 67 -63 85 -188 13 -92 14 -127 5 -206 -17 -140 -54
-246 -103 -291 -50 -47 -73 -51 -145 -25 -51 18 -64 29 -97 76 -31 45 -38 65
-41 113 -1 31 -6 60 -9 64 -15 14 -6 119 19 211 29 108 58 176 90 209 47 50
135 67 196 37z"/>
<path d="M4448 1373 c-46 -7 -85 -56 -98 -121 -6 -31 -19 -82 -27 -112 -11
-37 -16 -91 -15 -162 1 -93 5 -114 26 -155 32 -63 73 -87 131 -78 58 8 86 42
115 136 30 99 41 169 41 265 0 76 -3 86 -37 142 -19 34 -41 65 -47 71 -16 13
-56 19 -89 14z m51 -64 c11 -12 30 -42 41 -66 18 -39 20 -58 16 -151 -5 -119
-37 -258 -64 -279 -36 -27 -102 -4 -102 37 0 9 -5 21 -11 27 -15 15 -17 80 -7
193 12 121 42 224 71 245 28 20 32 19 56 -6z"/>
<path d="M12096 1414 c-92 -113 -143 -246 -147 -385 -5 -175 26 -273 119 -387
97 -120 256 -100 347 43 29 44 55 105 55 126 0 10 4 20 9 24 15 9 3 220 -20
340 -26 137 -44 180 -98 228 -51 46 -72 55 -154 63 l-63 6 -48 -58z m167 -40
c45 -23 66 -44 87 -85 28 -53 50 -162 49 -232 -1 -68 -2 -67 -19 43 -12 78
-48 164 -88 207 -20 22 -29 24 -65 19 -22 -4 -47 -12 -55 -18 -37 -31 -77
-164 -88 -290 -13 -144 37 -278 124 -333 32 -21 37 -38 11 -43 -25 -5 -118 88
-144 142 -34 72 -59 206 -52 280 8 97 68 251 122 313 15 18 81 16 118 -3z m-3
-136 c11 -18 20 -43 20 -55 0 -13 4 -23 9 -23 15 0 31 -120 31 -234 0 -115
-16 -176 -45 -176 -33 0 -76 35 -97 80 -49 99 -10 440 50 440 7 0 21 -15 32
-32z m148 -351 c-3 -40 -10 -82 -17 -92 -10 -17 -11 -8 -6 45 13 132 31 169
23 47z m-78 -202 c-7 -8 -17 -15 -23 -15 -5 0 -2 9 8 20 21 23 35 19 15 -5z"/>
<path d="M7068 1423 c-45 -7 -132 -111 -156 -185 -42 -133 -50 -333 -17 -465
19 -78 78 -144 148 -166 90 -28 141 -23 218 23 93 55 139 120 139 195 0 46 -4
60 -25 81 -41 41 -66 30 -95 -45 -20 -50 -33 -68 -60 -83 -19 -10 -42 -18 -51
-18 -21 0 -67 24 -104 54 -29 23 -30 26 -30 111 l0 87 110 4 c116 4 205 22
235 49 10 9 21 33 25 53 4 20 12 40 17 43 7 5 6 23 -5 55 -9 27 -20 67 -26 90
-10 36 -46 77 -98 107 -14 9 -187 16 -225 10z m231 -94 c44 -35 45 -37 43
-164 l0 -60 -49 -12 c-26 -7 -99 -13 -161 -14 -123 -3 -130 -6 -151 -68 -25
-77 -8 -194 37 -245 32 -36 105 -76 140 -76 68 0 154 63 167 123 4 15 11 27
16 27 15 0 10 -50 -5 -56 -8 -3 -19 -18 -25 -34 -12 -36 -81 -81 -133 -88 -21
-2 -66 1 -99 8 -48 10 -65 19 -85 45 -45 59 -59 126 -58 285 1 167 16 234 67
302 47 61 67 69 169 64 80 -3 89 -6 127 -37z"/>
<path d="M7056 1304 c-60 -65 -84 -154 -46 -174 56 -30 299 -2 314 35 10 26
-31 104 -61 117 -15 7 -36 18 -45 26 -9 7 -43 16 -76 19 -55 5 -61 4 -86 -23z
m136 -55 c87 -41 92 -65 15 -74 -29 -4 -77 -5 -107 -3 -48 4 -55 7 -52 24 6
30 34 73 51 77 9 3 18 5 20 6 3 0 35 -13 73 -30z"/>
<path d="M7010 741 c0 -6 5 -13 10 -16 6 -3 10 1 10 9 0 9 -4 16 -10 16 -5 0
-10 -4 -10 -9z"/>
<path d="M1741 1024 c0 -11 3 -14 6 -6 3 7 2 16 -1 19 -3 4 -6 -2 -5 -13z"/>
<path d="M5242 837 c-15 -16 -24 -41 -28 -84 -6 -55 -5 -61 17 -77 36 -24 140
-22 164 4 17 19 17 21 1 39 -14 15 -15 23 -5 44 16 34 -8 72 -49 80 -16 3 -40
9 -54 12 -17 4 -30 0 -46 -18z m93 -58 c21 -33 -30 -84 -55 -54 -18 22 -1 65
25 65 13 0 27 -5 30 -11z"/>
<path d="M10960 850 c0 -5 5 -10 10 -10 6 0 10 5 10 10 0 6 -4 10 -10 10 -5 0
-10 -4 -10 -10z"/>
<path d="M7152 808 c2 -13 10 -23 18 -23 8 0 16 10 18 23 3 17 -2 22 -18 22
-16 0 -21 -5 -18 -22z"/>
<path d="M12987 742 c-23 -25 -47 -86 -47 -120 0 -44 39 -74 103 -80 74 -6 87
9 87 96 -1 72 -9 90 -53 110 -39 17 -71 15 -90 -6z m59 -90 c1 -21 -4 -32 -12
-32 -9 0 -14 12 -14 36 0 45 25 41 26 -4z"/>
<path d="M1126 673 c-11 -11 -6 -23 9 -23 8 0 15 4 15 9 0 13 -16 22 -24 14z"/>
</g>
</svg>
