<?xml version="1.0" encoding="utf-8"?>
<svg xmlns="http://www.w3.org/2000/svg" height="990.0pt" version="1.1" width="1010.0pt" viewBox="0 0 1010 990">
	<path d="M 0.00 0.00 L 296.33 0.00 C 298.57 2.50 300.10 5.99 304.02 5.69 C 307.35 6.11 309.90 1.95 312.12 0.00 L 1010.00 0.00 L 1010.00 990.00 L 0.00 990.00 L 0.00 0.00 Z" fill="#ffffff"/>
	<path d="M 446.73 65.89 C 453.11 67.95 458.99 72.35 464.79 75.65 C 470.36 78.82 474.63 83.49 477.97 88.91 C 480.20 92.47 483.24 94.71 486.25 97.53 C 489.83 95.54 493.44 93.55 497.18 91.89 C 501.82 89.74 507.27 90.17 512.28 90.26 C 516.69 90.30 521.32 93.02 525.61 92.29 C 532.82 89.78 535.56 81.30 542.70 79.40 C 547.52 77.77 552.23 76.11 556.53 73.31 C 559.21 71.75 561.25 69.72 564.59 70.23 C 566.78 70.26 567.71 73.17 567.65 74.98 C 567.51 80.04 565.43 85.33 562.65 89.53 C 560.98 91.97 559.06 92.70 556.20 93.18 C 556.26 89.09 557.06 85.16 557.98 81.19 C 552.69 83.35 547.51 86.36 543.14 90.05 C 538.17 94.14 537.25 101.62 532.09 105.31 C 530.18 106.86 527.75 107.02 525.64 105.78 C 521.87 103.63 517.92 100.16 513.46 98.53 C 510.05 98.06 506.43 98.58 502.98 98.68 C 498.11 98.91 495.02 101.91 490.62 103.13 C 487.95 103.57 484.13 103.56 481.43 103.22 C 477.09 100.32 473.40 95.89 470.24 91.77 C 467.38 88.22 464.94 84.82 460.40 83.29 C 462.28 89.92 466.13 95.35 470.74 100.37 C 473.47 103.09 475.58 106.71 476.96 110.28 C 477.13 112.26 476.00 114.60 475.11 116.34 C 473.97 116.71 472.78 116.82 471.58 116.75 C 470.17 114.72 469.16 112.39 467.98 110.22 C 465.57 105.31 461.80 101.37 459.58 96.34 C 458.52 94.80 457.81 91.98 455.72 91.76 C 455.33 94.13 456.37 96.49 457.03 98.77 C 457.98 101.60 458.55 104.52 459.31 107.40 C 460.37 112.14 464.52 115.49 466.94 119.95 C 465.30 120.91 463.28 122.85 461.29 122.61 C 459.64 121.83 458.23 120.46 457.18 118.99 C 452.04 110.81 453.07 101.83 448.76 93.58 C 446.74 89.02 444.22 84.74 441.95 80.31 C 440.21 77.12 442.17 72.64 442.96 69.38 C 443.44 67.71 444.49 64.95 446.73 65.89 Z"/>
	<path d="M 450.23 78.58 C 451.94 78.50 453.65 78.43 455.37 78.36 C 456.14 79.61 457.01 80.85 457.59 82.20 C 457.76 85.08 456.80 88.11 455.23 90.51 C 452.94 86.89 451.61 82.60 450.23 78.58 Z" fill="#ffffff"/>
	<path d="M 292.07 92.63 C 293.40 92.39 294.71 92.32 295.98 92.43 C 299.23 94.49 301.47 98.01 304.53 100.39 C 309.63 104.39 314.90 108.18 320.10 112.06 C 323.44 114.54 326.07 118.09 328.64 121.34 C 332.96 126.63 334.29 133.81 336.01 140.32 C 337.77 140.51 339.62 140.51 341.34 140.95 C 344.12 143.22 345.30 147.47 348.21 149.68 C 350.51 151.46 353.12 152.79 355.40 154.61 C 361.28 159.52 367.29 163.90 372.26 169.81 C 375.47 173.28 377.84 177.47 381.13 180.83 C 383.64 182.73 386.79 183.69 389.39 185.51 C 395.98 190.09 402.96 193.86 409.90 197.87 C 413.54 200.00 417.38 201.83 421.35 203.24 C 426.32 204.93 431.53 204.13 436.95 204.86 C 442.30 205.95 448.25 204.04 453.12 201.90 C 459.19 198.33 465.55 194.27 471.22 190.11 C 472.91 189.08 472.81 187.19 472.33 185.50 C 470.88 181.50 468.13 178.05 466.68 173.97 C 465.14 169.60 464.08 165.05 462.99 160.56 C 461.29 153.12 463.19 146.07 461.52 138.61 C 461.28 136.42 459.87 133.44 461.17 131.46 C 461.98 129.54 463.97 128.73 465.44 130.54 C 467.99 135.33 468.72 140.60 468.50 145.99 C 468.28 152.90 469.15 159.77 471.11 166.41 C 472.60 170.89 475.20 174.95 476.86 179.39 C 478.92 184.82 481.06 190.14 483.95 195.19 C 487.45 201.58 488.65 208.18 490.43 215.09 C 491.51 219.40 493.97 222.49 496.30 226.14 C 496.51 221.18 498.39 217.77 501.65 214.16 C 503.53 215.21 505.36 216.47 507.35 217.30 C 511.05 216.55 514.63 215.17 518.36 214.42 C 520.07 209.57 521.48 204.72 522.69 199.72 C 526.43 188.34 531.83 177.75 535.56 166.41 C 536.51 166.42 537.46 166.43 538.41 166.44 C 538.76 170.21 538.32 174.13 538.90 177.84 C 540.84 181.14 543.62 184.03 546.17 186.87 C 550.92 192.13 557.03 195.23 563.06 198.79 C 568.83 202.36 575.60 204.56 582.02 206.70 C 588.74 208.92 595.10 208.35 602.05 208.32 C 606.83 208.32 611.03 206.79 615.46 205.17 C 619.45 203.61 623.33 202.22 626.86 199.74 C 631.73 196.37 635.86 192.19 639.64 187.65 C 644.69 182.01 650.47 177.22 655.03 171.09 C 658.99 166.52 660.88 161.86 665.54 158.38 C 669.59 155.01 674.27 152.59 678.44 149.44 C 680.60 146.70 680.34 141.77 681.13 138.45 C 681.93 133.09 685.22 129.55 688.85 125.84 C 694.07 120.39 699.18 113.95 705.74 109.53 C 711.11 105.91 715.89 101.73 720.90 97.75 C 723.35 95.72 726.36 95.60 729.38 95.10 C 731.30 100.27 728.68 103.85 727.17 108.63 C 726.90 109.84 725.35 112.86 727.59 112.88 C 733.36 110.09 735.58 104.44 742.49 104.26 C 742.72 106.24 743.19 108.45 742.77 110.42 C 739.31 122.39 732.88 132.59 729.75 144.58 C 729.49 145.78 729.15 147.28 729.61 148.45 C 731.74 152.75 735.46 155.07 738.65 158.37 C 745.39 166.04 751.45 174.22 758.14 181.93 C 762.58 186.98 763.65 192.78 766.64 198.60 C 768.21 201.66 769.34 204.78 770.25 208.09 C 772.13 215.51 777.48 221.41 781.20 227.99 C 783.87 232.81 787.35 236.76 789.32 242.00 C 791.20 246.16 790.69 251.51 790.58 256.01 C 790.15 261.61 786.48 265.30 782.10 268.32 C 779.15 270.24 775.93 273.12 772.20 272.56 C 766.32 272.09 761.95 269.32 757.01 266.52 C 750.84 263.97 744.54 261.80 738.58 258.71 C 735.52 257.08 733.24 254.70 730.61 252.50 C 725.40 247.92 718.35 245.67 712.73 241.35 C 711.25 240.18 709.97 238.72 708.42 237.64 C 704.65 236.76 702.21 239.44 699.48 241.51 C 697.09 243.58 694.14 245.39 692.18 247.89 C 691.10 251.00 690.89 254.46 690.10 257.67 C 688.83 262.88 689.40 267.73 689.56 273.00 C 689.79 279.09 689.19 284.95 689.92 291.03 C 690.64 296.50 690.58 302.02 691.33 307.50 C 691.83 310.96 690.58 313.81 690.18 317.16 C 690.37 323.37 691.93 329.66 691.70 336.01 C 691.67 338.86 690.98 341.54 691.31 344.31 C 691.96 350.26 691.68 355.99 691.72 362.03 C 691.71 368.54 691.37 374.78 689.32 381.02 C 687.60 386.74 684.57 391.65 681.54 396.76 C 677.56 403.34 672.85 409.21 666.58 413.75 C 662.10 416.90 656.45 418.76 651.38 420.82 C 647.39 422.40 642.70 422.53 639.73 418.94 C 638.32 415.33 639.46 412.97 641.79 410.15 C 643.88 410.56 645.95 411.01 648.02 411.50 C 648.33 409.32 648.24 406.59 649.43 404.68 C 650.98 402.55 653.23 400.85 655.11 399.01 C 657.06 397.20 658.83 395.01 661.01 393.50 C 662.64 393.35 664.28 393.29 665.92 393.32 C 665.45 395.05 665.30 396.69 664.06 398.08 C 660.54 402.49 656.42 405.70 653.45 410.56 C 657.54 409.49 661.89 408.04 665.05 405.09 C 667.94 402.34 670.07 398.54 672.41 395.29 C 676.09 390.34 678.64 384.38 681.10 378.73 C 683.92 370.84 683.43 361.29 683.50 353.00 C 683.18 344.66 683.84 336.33 683.41 327.99 C 683.09 318.76 684.07 309.18 682.73 300.16 C 681.99 293.46 681.37 286.80 681.23 280.06 C 680.22 272.69 680.76 265.43 680.51 258.00 C 680.65 254.05 679.93 249.61 682.33 246.21 C 684.36 243.29 686.58 240.47 688.82 237.71 C 692.92 232.73 698.83 229.64 705.13 228.54 C 709.23 227.62 710.99 233.09 714.19 234.85 C 722.30 239.23 730.20 243.71 737.08 249.94 C 740.48 253.03 744.50 254.98 748.82 256.42 C 750.39 253.76 752.15 251.23 753.97 248.74 C 756.49 249.92 758.66 251.39 760.81 253.14 C 763.93 255.77 767.92 255.50 771.02 257.93 C 773.64 259.94 776.18 262.06 778.56 264.35 C 779.63 263.30 780.70 262.26 781.77 261.22 C 779.53 258.41 775.54 254.36 777.01 250.45 C 777.51 246.79 781.09 246.42 783.86 244.96 C 780.96 237.81 776.55 231.07 772.10 224.79 C 768.00 219.44 766.51 212.85 762.36 207.50 C 758.19 202.03 760.54 196.04 757.33 190.38 C 755.54 187.24 752.25 184.89 749.75 182.27 C 746.15 178.47 742.64 174.67 739.41 170.55 C 736.84 167.35 734.85 164.12 731.72 161.42 C 728.40 158.53 725.19 155.89 722.76 152.13 C 721.49 149.92 722.92 146.29 723.62 144.04 C 726.90 135.31 729.96 126.48 733.34 117.79 C 729.96 120.21 725.90 121.21 722.44 123.36 C 720.86 126.27 720.26 129.81 719.25 132.95 C 717.93 137.42 715.49 140.85 713.52 145.01 C 712.08 147.45 712.06 150.07 708.50 149.83 C 709.19 146.41 710.43 143.43 712.10 140.39 C 716.04 132.96 715.84 125.23 719.08 117.42 C 720.51 113.84 720.80 111.11 720.27 107.34 C 714.39 110.37 709.75 114.88 704.29 118.51 C 700.92 120.84 698.22 124.43 695.65 127.60 C 692.46 131.82 689.00 135.20 688.12 140.65 C 686.99 146.80 684.65 152.56 685.74 158.58 C 686.18 161.95 689.21 164.61 691.14 167.28 C 688.67 168.86 686.37 170.88 683.46 168.81 C 679.56 166.19 679.17 162.34 678.04 158.16 C 672.51 161.87 667.81 166.40 664.00 171.87 C 659.18 178.68 653.54 184.78 647.52 190.54 C 640.87 197.51 634.82 204.14 626.33 209.03 C 621.93 211.10 617.10 212.07 612.62 213.98 C 606.37 216.59 600.59 215.41 594.00 215.55 C 588.69 215.43 583.84 216.17 578.80 214.66 C 573.21 213.09 567.84 210.83 562.30 209.06 C 557.37 207.49 554.45 203.29 549.89 200.34 C 543.82 196.35 538.96 191.24 533.89 186.12 C 530.06 192.39 529.07 199.01 527.41 206.03 C 526.26 211.33 524.38 216.44 522.81 221.66 C 521.93 224.65 520.41 227.02 518.25 229.23 C 515.33 232.22 511.97 235.36 507.76 236.26 C 502.16 237.28 495.67 235.50 491.84 231.15 C 487.17 226.33 484.87 218.95 482.85 212.68 C 481.44 206.56 479.97 200.64 476.53 195.29 C 467.35 200.59 459.19 208.36 449.40 211.85 C 446.07 213.17 441.82 212.63 438.31 212.42 C 434.19 212.11 430.41 212.74 426.33 212.08 C 421.08 211.18 415.51 210.01 410.87 207.32 C 407.62 205.40 404.26 203.96 401.21 201.75 C 394.84 197.21 386.94 194.90 380.52 190.47 C 374.95 185.87 371.07 179.18 366.11 173.83 C 362.43 169.13 357.52 166.80 353.02 163.08 C 349.69 160.32 346.38 157.77 343.41 154.61 C 342.01 153.22 340.69 151.54 339.03 150.46 C 337.57 150.25 336.01 150.52 334.54 150.64 C 334.64 147.00 333.17 145.96 330.70 143.70 C 330.04 146.88 329.74 150.45 328.34 153.41 C 327.03 154.08 325.70 154.31 324.29 154.64 C 323.41 151.99 322.28 149.47 321.14 146.94 C 320.17 145.05 320.93 143.32 321.22 141.35 C 324.37 141.28 327.51 141.35 330.66 141.38 C 329.47 135.04 326.91 129.10 322.79 124.12 C 320.38 121.26 317.14 119.09 314.06 117.00 C 312.07 115.84 310.57 114.26 308.10 115.06 C 310.63 118.36 313.35 120.93 314.92 124.85 C 316.97 129.65 316.35 134.29 317.23 139.76 C 317.86 143.99 317.74 147.41 316.41 151.48 C 315.22 151.44 314.03 151.40 312.84 151.36 C 311.99 148.96 311.30 146.31 309.95 144.14 C 308.30 142.44 305.44 142.05 303.60 140.53 C 302.52 138.78 301.87 136.74 301.05 134.86 C 297.95 140.12 293.94 144.40 289.48 148.51 C 287.26 150.51 284.09 151.05 281.86 152.82 C 278.47 156.33 277.01 160.78 272.99 163.86 C 267.07 168.34 262.35 173.87 259.39 180.73 C 255.55 187.51 253.32 194.93 249.86 201.87 C 248.11 205.44 245.48 207.86 243.08 210.94 C 240.64 214.00 239.16 217.57 236.46 220.46 C 233.80 223.35 231.42 226.25 230.30 230.11 C 229.14 233.64 229.61 238.07 232.12 240.91 C 235.78 244.45 241.00 245.46 245.86 244.21 C 251.63 242.60 256.95 242.09 262.11 238.90 C 266.35 236.25 271.21 235.61 275.60 233.36 C 284.58 228.29 292.67 223.21 303.28 222.27 C 309.12 221.91 315.27 225.00 320.17 227.90 C 318.65 229.61 317.32 231.95 314.88 232.38 C 311.26 232.99 307.91 230.19 304.22 230.29 C 300.82 230.44 297.53 229.93 294.16 229.75 C 289.87 230.65 285.71 233.90 282.09 236.25 C 277.57 239.26 271.90 240.97 266.86 243.11 C 262.25 244.92 258.21 247.52 253.40 248.87 C 249.63 249.94 245.77 250.93 241.89 251.47 C 237.84 251.95 234.01 250.76 230.73 248.40 C 226.67 245.27 222.82 242.61 222.55 236.97 C 221.47 230.94 224.32 226.40 227.52 221.65 C 230.01 218.70 233.08 216.62 235.20 213.30 C 237.65 209.45 240.28 205.71 242.60 201.78 C 244.79 198.04 245.90 193.98 247.92 190.16 C 249.19 187.74 250.35 185.27 251.26 182.68 C 253.16 176.93 257.47 172.16 260.97 167.03 C 265.95 161.14 271.98 155.96 276.58 149.74 C 277.93 148.06 277.53 146.05 277.60 144.02 C 277.66 138.91 275.37 134.52 274.18 129.27 C 272.44 122.26 266.93 115.91 268.63 108.38 C 269.20 106.42 270.16 102.68 272.90 103.47 C 276.38 103.90 278.46 108.84 280.99 111.00 C 284.65 114.21 288.69 116.97 292.24 120.35 C 292.83 114.12 290.67 108.78 289.67 102.77 C 289.06 99.08 289.84 95.64 292.07 92.63 Z"/>
	<path d="M 546.00 93.33 C 546.91 94.02 547.76 94.77 548.54 95.59 C 549.11 98.60 548.55 101.94 548.44 104.99 C 551.42 102.53 554.21 99.92 557.50 97.84 C 558.64 101.81 559.24 106.41 558.17 110.45 C 556.82 113.99 554.98 117.63 550.91 118.46 C 548.24 118.97 546.42 117.67 544.22 116.44 C 544.93 113.42 545.65 110.39 546.45 107.39 C 543.41 108.23 540.58 108.66 537.41 108.72 C 537.40 105.37 536.84 101.04 538.73 98.09 C 540.35 95.79 543.52 94.45 546.00 93.33 Z"/>
	<path d="M 295.14 102.25 C 297.16 103.76 299.12 105.43 301.07 107.05 C 299.78 108.35 298.49 109.65 297.20 110.96 C 296.50 108.06 295.71 105.17 295.14 102.25 Z" fill="#ffffff"/>
	<path d="M 274.99 115.36 C 282.43 119.78 288.83 125.58 293.18 133.13 C 290.80 135.15 288.63 137.32 286.86 139.90 C 285.70 141.11 285.27 143.11 283.27 142.58 C 282.00 137.60 282.61 132.51 280.56 127.56 C 278.76 123.42 276.23 119.77 274.99 115.36 Z" fill="#ffffff"/>
	<path d="M 297.75 115.30 C 300.21 117.24 302.86 119.26 304.27 122.14 C 304.35 125.57 302.67 129.28 301.86 132.63 C 300.33 131.24 298.34 129.99 297.80 127.89 C 296.91 123.87 297.39 119.37 297.75 115.30 Z" fill="#ffffff"/>
	<path d="M 707.87 121.45 C 708.84 122.42 709.76 123.44 710.63 124.50 C 711.09 128.85 709.34 133.43 709.00 137.80 C 708.50 143.62 705.93 148.50 703.16 153.51 C 702.24 153.05 701.31 152.59 700.39 152.14 C 701.08 150.00 701.88 147.84 702.31 145.64 C 702.82 142.61 701.58 139.39 702.28 136.47 C 703.55 131.13 704.58 126.00 707.87 121.45 Z"/>
	<path d="M 284.74 126.49 C 285.89 126.46 287.03 126.43 288.18 126.41 C 288.95 127.94 289.81 129.46 290.41 131.06 C 290.18 132.29 289.89 133.51 289.53 134.71 C 288.25 134.67 286.96 134.63 285.68 134.58 C 284.67 131.52 282.34 129.55 284.74 126.49 Z"/>
	<path d="M 704.69 127.21 C 701.34 131.36 696.73 134.20 696.55 140.04 C 696.03 144.05 698.38 147.08 698.63 150.84 C 697.78 152.61 696.54 154.24 695.42 155.85 C 694.10 155.75 692.78 155.66 691.45 155.56 C 691.46 148.18 690.59 140.44 691.70 133.15 C 694.49 129.66 699.90 124.06 704.69 127.21 Z"/>
	<path d="M 548.43 134.00 C 548.48 139.57 547.73 146.21 543.26 150.10 C 542.35 149.32 541.43 148.56 540.51 147.79 C 540.91 144.87 541.34 141.96 541.44 139.00 C 541.66 136.39 541.34 134.09 542.81 131.77 C 545.05 130.48 548.00 131.15 548.43 134.00 Z"/>
	<path d="M 488.90 145.00 C 490.46 146.48 492.99 147.62 492.76 150.12 C 492.53 155.42 488.97 160.40 484.05 162.40 C 482.57 162.75 481.10 163.33 479.93 162.00 C 477.60 159.63 475.77 156.32 475.51 152.97 C 475.38 151.60 476.89 150.34 477.54 149.20 C 479.69 150.08 481.83 150.98 484.02 151.79 C 485.31 149.23 486.72 146.91 488.90 145.00 Z"/>
	<path d="M 531.03 149.32 C 533.95 149.25 536.73 150.01 539.52 150.72 C 539.92 155.59 539.90 159.90 535.64 163.08 C 533.51 163.86 530.54 164.11 528.87 162.23 C 527.13 160.57 524.91 158.39 524.43 155.96 C 524.49 152.57 527.60 149.35 531.03 149.32 Z"/>
	<path d="M 282.57 179.96 C 287.19 178.97 292.15 178.69 295.80 182.20 C 298.09 183.79 298.27 186.79 296.84 189.02 C 294.74 192.22 291.67 195.38 288.50 197.53 C 286.60 198.00 284.42 196.86 282.72 196.11 C 278.98 194.54 275.50 191.17 273.51 187.73 C 273.08 183.63 279.43 181.00 282.57 179.96 Z"/>
	<path d="M 739.89 194.70 C 742.27 196.78 745.48 199.30 744.39 202.88 C 743.42 206.45 739.00 208.37 735.76 209.33 C 733.23 210.39 731.00 207.59 729.78 205.73 C 728.83 202.95 729.34 199.55 729.33 196.64 C 732.59 195.87 736.55 194.18 739.89 194.70 Z"/>
	<path d="M 322.23 229.94 C 324.66 231.41 327.16 232.11 328.17 235.03 C 331.98 245.49 329.94 255.02 330.78 266.03 C 331.62 272.52 331.95 279.18 331.32 285.70 C 329.18 299.01 328.25 312.47 326.03 325.78 C 324.96 331.63 325.50 337.09 325.65 343.00 C 326.00 351.55 330.38 358.09 331.47 366.41 C 332.68 374.21 336.28 380.82 340.26 387.49 C 344.18 385.07 347.95 385.53 352.32 385.18 C 350.29 382.81 348.03 380.74 345.61 378.79 C 345.59 375.62 345.67 372.27 345.20 369.13 C 344.78 366.44 344.19 363.84 344.51 361.08 C 345.02 358.14 346.41 355.75 346.36 352.67 C 346.37 349.45 346.65 346.26 345.57 343.21 C 343.54 337.41 341.16 331.17 340.68 325.01 C 341.09 321.51 343.94 318.25 345.18 314.93 C 347.74 308.19 350.57 301.61 354.36 295.45 C 355.74 295.50 357.12 295.55 358.50 295.60 C 359.46 302.21 356.14 306.69 354.15 312.68 C 352.35 318.16 348.61 321.58 348.10 327.31 C 349.75 327.84 351.52 328.24 353.08 329.01 C 354.32 333.60 353.24 339.13 352.96 343.84 C 351.68 350.70 353.67 357.02 353.35 363.91 C 353.54 368.09 352.18 373.24 355.51 376.48 C 357.78 377.99 360.33 379.74 362.93 380.56 C 367.64 380.21 372.85 379.58 376.97 377.16 C 380.94 375.00 384.78 373.36 388.05 370.12 C 391.65 366.82 393.61 362.66 395.68 358.32 C 399.27 350.82 399.24 341.51 400.99 333.84 C 402.71 325.39 402.15 316.80 403.96 308.40 C 404.96 303.25 404.24 298.18 404.97 293.05 C 405.51 289.36 405.76 285.63 405.81 281.90 C 408.14 282.73 412.16 282.87 413.14 285.44 C 412.57 291.25 411.98 297.14 411.22 302.94 C 409.60 312.05 409.63 321.27 407.83 330.37 C 407.28 338.17 405.12 345.57 403.43 353.17 C 401.43 361.57 396.47 368.49 391.02 375.02 C 387.83 378.49 383.80 379.54 380.04 381.98 C 377.66 385.60 375.90 389.28 372.49 392.16 C 377.78 390.09 382.65 387.77 386.67 383.64 C 389.52 380.80 391.54 377.17 394.50 374.50 C 395.54 373.49 397.17 373.65 398.54 373.39 C 398.42 374.84 398.62 376.71 397.84 377.99 C 394.19 383.88 390.67 389.47 384.43 392.95 C 386.25 396.92 388.05 400.73 390.77 404.20 C 388.51 406.78 387.43 407.56 383.91 407.83 C 383.28 405.98 382.69 404.12 382.12 402.25 C 378.78 405.58 374.56 409.25 369.98 410.57 C 367.43 411.12 366.47 409.50 364.74 408.04 C 366.81 405.82 368.89 403.89 371.72 402.68 C 374.91 401.25 376.88 399.52 378.98 396.73 C 375.69 397.20 372.43 397.64 369.09 397.56 C 368.73 392.56 365.24 390.30 362.82 386.26 C 360.22 387.12 357.61 387.97 355.01 388.84 C 356.66 390.23 358.54 391.48 359.99 393.08 C 360.72 394.22 360.46 396.02 360.65 397.34 C 358.89 397.65 356.94 398.45 355.15 398.22 C 350.41 396.02 348.43 391.61 342.86 391.01 C 345.45 394.02 348.44 396.90 351.88 398.93 C 356.28 401.35 361.46 401.64 364.55 406.09 C 364.32 407.80 363.66 409.51 363.10 411.14 C 365.00 412.20 368.03 412.16 367.57 415.01 C 365.65 417.08 362.98 418.91 360.04 418.77 C 356.22 418.97 352.57 416.70 349.05 415.33 C 344.21 413.56 340.01 411.29 336.96 407.01 C 333.91 402.38 331.32 397.43 328.36 392.73 C 325.99 388.84 328.62 386.58 329.63 382.92 C 328.71 379.53 326.72 376.67 326.23 373.08 C 325.15 365.66 322.86 358.65 321.04 351.41 C 319.92 347.22 320.57 343.43 320.03 339.05 C 319.63 335.81 319.31 332.62 319.72 329.36 C 320.41 324.54 320.53 319.72 321.70 314.97 C 323.62 306.81 323.13 298.56 324.73 290.30 C 326.52 282.24 324.32 274.72 324.38 266.03 C 324.51 258.01 324.51 250.23 323.08 242.29 C 321.77 238.69 319.33 235.95 318.96 231.94 C 320.05 231.27 321.14 230.61 322.23 229.94 Z"/>
	<path d="M 467.51 277.39 C 469.32 277.33 471.09 277.76 472.84 278.12 C 472.10 282.77 470.84 287.27 470.46 291.98 C 469.99 297.41 467.12 301.59 466.21 306.89 C 465.42 311.37 465.04 315.91 464.18 320.39 C 463.29 324.74 464.37 328.62 464.34 332.98 C 464.35 339.40 466.07 345.62 466.29 352.05 C 466.50 361.82 470.59 370.43 469.46 380.36 C 467.86 380.39 466.27 380.43 464.68 380.47 C 462.61 372.95 461.34 365.32 459.55 357.76 C 457.64 352.21 459.31 346.73 457.85 341.07 C 456.63 335.58 457.51 330.58 457.50 325.02 C 457.53 317.23 457.38 308.03 460.48 300.74 C 464.22 292.78 461.27 284.76 467.51 277.39 Z"/>
	<path d="M 364.82 279.85 C 367.39 281.34 366.73 284.37 366.15 286.77 C 364.40 289.44 362.45 289.46 359.51 289.69 C 359.56 287.33 359.15 284.61 359.90 282.35 C 360.67 280.77 363.08 278.26 364.82 279.85 Z"/>
	<path d="M 545.68 283.37 C 548.43 284.01 551.02 284.79 551.47 288.00 C 552.48 295.76 553.74 303.49 555.39 311.15 C 556.14 315.56 556.66 319.95 558.15 324.21 C 561.05 333.26 560.38 341.71 560.45 351.04 C 560.69 360.39 556.25 369.95 552.56 378.39 C 549.12 384.99 546.27 392.81 541.05 398.04 C 536.82 402.56 531.06 406.15 524.95 407.32 C 520.98 407.73 517.02 408.40 513.04 408.57 C 510.49 408.77 508.45 407.50 506.61 405.89 C 505.70 403.56 507.75 402.08 508.78 400.16 C 510.90 400.45 513.01 400.82 515.14 401.07 C 523.45 401.36 530.51 397.78 536.90 392.81 C 538.79 391.19 539.47 388.67 540.52 386.49 C 541.65 383.95 543.73 381.80 545.19 379.39 C 548.11 374.73 549.06 369.78 551.36 364.61 C 553.77 359.00 554.43 353.05 554.37 346.99 C 554.29 340.14 554.74 332.90 552.44 326.31 C 551.01 322.47 549.28 318.95 549.08 314.78 C 548.57 307.70 545.91 301.12 545.29 294.09 C 544.90 290.23 543.59 287.03 545.68 283.37 Z"/>
	<path d="M 367.73 288.51 C 370.39 294.13 366.10 298.40 361.51 300.92 C 361.07 296.86 362.21 293.92 364.75 290.80 C 365.73 290.03 366.73 289.27 367.73 288.51 Z"/>
	<path d="M 488.70 289.11 C 490.44 289.56 492.17 290.03 493.89 290.54 C 493.18 297.53 492.33 304.67 491.03 311.57 C 488.39 319.48 487.53 327.70 487.74 336.00 C 487.80 342.54 486.41 350.43 488.85 356.61 C 491.90 363.23 495.46 369.67 499.25 375.89 C 501.71 380.04 507.28 380.65 511.15 383.03 C 512.77 385.69 511.15 386.99 509.26 388.74 C 505.89 387.44 502.43 386.38 499.08 385.05 C 496.84 384.25 495.71 382.25 494.38 380.42 C 489.40 373.10 484.61 365.08 481.98 356.59 C 480.13 345.71 482.01 333.14 482.77 322.09 C 485.52 311.31 485.12 299.58 488.70 289.11 Z"/>
	<path d="M 526.20 289.57 C 530.70 294.56 531.49 300.58 531.84 307.03 C 532.06 310.87 534.69 312.68 536.26 315.99 C 538.69 321.61 538.58 327.10 538.51 333.06 C 538.32 337.13 540.23 340.91 540.19 344.88 C 538.81 352.75 537.77 362.27 533.17 369.06 C 530.57 368.84 530.41 368.07 529.50 365.87 C 530.15 362.79 531.82 360.06 532.28 356.89 C 532.76 353.45 533.41 350.04 533.87 346.60 C 534.23 344.24 533.02 341.64 532.39 339.37 C 530.48 333.89 532.40 328.41 530.72 322.79 C 529.99 319.84 528.41 317.50 527.10 314.81 C 525.74 312.07 525.28 308.92 524.75 305.92 C 524.10 301.44 522.77 297.21 521.78 292.79 C 523.25 291.70 524.72 290.63 526.20 289.57 Z"/>
	<path d="M 615.34 298.06 C 616.80 298.19 618.27 298.32 619.73 298.45 C 619.84 306.63 619.94 314.95 618.79 323.07 C 618.38 327.01 619.62 331.00 619.63 335.00 C 619.67 339.58 620.14 344.12 621.05 348.60 C 621.99 353.00 624.24 357.21 625.93 361.38 C 627.74 365.79 630.45 369.76 634.14 372.81 C 637.24 375.27 641.09 376.45 644.76 377.76 C 644.74 379.68 644.83 381.50 644.23 383.36 C 635.90 385.56 627.08 379.65 623.50 372.27 C 620.22 365.80 616.59 358.80 614.62 351.80 C 613.28 343.20 612.33 334.65 611.72 325.98 C 612.20 320.92 613.45 316.19 613.33 311.02 C 613.43 306.33 612.59 302.22 615.34 298.06 Z"/>
	<path d="M 668.02 301.44 C 669.49 302.99 670.61 304.80 670.68 306.99 C 670.94 312.06 670.33 316.99 669.72 322.01 C 669.24 326.02 671.05 329.76 670.57 333.65 C 669.28 334.97 667.42 335.88 665.83 336.80 C 663.56 330.72 660.72 323.11 662.22 316.60 C 663.04 312.06 661.44 307.69 661.50 302.87 C 663.68 301.51 665.43 300.85 668.02 301.44 Z"/>
	<path d="M 591.91 307.20 C 593.03 308.73 594.17 310.11 594.44 312.05 C 595.47 317.83 597.03 323.48 599.50 328.82 C 601.56 333.05 601.41 337.34 602.69 341.78 C 604.10 346.88 605.73 351.50 605.53 356.88 C 605.23 361.56 605.85 366.16 607.74 370.48 C 609.71 373.95 614.18 376.27 616.86 379.12 C 617.34 380.03 617.52 381.12 617.80 382.11 C 615.11 382.75 611.68 384.77 609.19 382.68 C 604.46 379.33 601.47 373.21 599.43 367.92 C 597.79 364.11 599.99 360.94 599.49 356.63 C 599.32 349.29 595.26 344.07 593.97 337.10 C 592.57 329.68 587.06 325.12 584.60 317.84 C 583.79 312.45 586.29 308.05 591.91 307.20 Z"/>
	<path d="M 425.98 337.36 C 427.71 338.12 430.05 339.57 429.29 341.78 C 428.73 345.08 428.38 348.40 427.87 351.70 C 427.10 356.90 423.81 361.47 421.96 366.58 C 419.88 372.38 416.42 377.03 413.50 382.43 C 410.92 386.87 407.13 389.50 403.16 392.55 C 402.31 392.08 401.47 391.61 400.62 391.14 C 400.37 390.04 400.12 388.95 399.87 387.86 C 403.50 384.43 407.37 382.10 409.80 377.99 C 413.91 371.26 417.05 363.52 420.03 356.24 C 422.11 350.60 423.07 344.63 422.47 338.63 C 423.62 338.11 424.79 337.69 425.98 337.36 Z"/>
	<path d="M 667.99 345.45 C 670.46 344.88 671.52 348.15 671.56 350.06 C 672.17 355.53 669.14 359.09 666.54 363.50 C 665.14 363.53 663.74 363.57 662.34 363.59 C 662.32 358.77 663.22 354.11 663.82 349.33 C 664.17 347.26 665.82 345.49 667.99 345.45 Z"/>
	<path d="M 527.37 369.61 C 528.88 372.36 530.24 375.18 531.64 377.99 C 529.27 381.39 526.89 384.74 525.03 388.47 C 529.86 387.26 533.00 383.66 537.52 381.92 C 537.47 383.70 537.62 385.64 537.14 387.36 C 535.54 390.71 531.88 392.12 528.77 393.70 C 524.03 395.97 519.87 398.42 514.41 397.44 C 514.99 395.78 515.58 394.13 516.18 392.48 C 515.34 390.96 512.75 388.58 513.76 386.77 C 516.80 381.98 522.66 382.40 525.78 377.48 C 522.94 377.50 520.10 377.62 517.26 377.57 C 517.58 374.96 517.08 372.39 519.52 370.67 C 521.75 369.41 524.87 369.70 527.37 369.61 Z"/>
	<path d="M 657.99 367.33 C 659.10 368.55 660.18 369.79 661.23 371.07 C 659.51 374.90 656.93 378.07 654.19 381.20 C 651.37 384.56 648.73 386.75 644.07 386.81 C 644.44 384.32 644.63 382.26 646.69 380.56 C 650.30 377.36 652.97 373.67 655.75 369.78 C 656.49 368.96 657.23 368.14 657.99 367.33 Z"/>
	<path d="M 666.99 371.57 C 665.73 375.10 664.27 377.91 660.80 379.69 C 656.18 377.39 662.94 367.20 666.99 371.57 Z"/>
	<path d="M 449.58 374.64 C 453.44 375.07 458.40 376.83 460.27 380.54 C 461.05 382.06 462.08 384.14 460.54 385.54 C 457.23 388.68 450.24 387.29 447.35 391.45 C 442.91 396.45 444.60 404.91 444.23 411.21 C 443.89 419.80 449.16 424.50 451.61 432.15 C 454.27 440.13 456.89 448.06 458.24 456.38 C 458.81 460.64 461.24 463.95 462.52 467.91 C 461.80 470.04 460.05 474.17 457.23 473.64 C 456.13 473.90 455.36 472.09 454.81 471.36 C 452.41 467.15 451.66 461.83 450.19 457.18 C 447.75 449.46 446.79 442.10 443.80 434.61 C 442.01 430.07 440.08 425.07 437.25 421.07 C 435.96 419.67 432.83 418.77 432.35 416.90 C 433.21 413.75 435.40 411.58 435.41 408.09 C 435.73 401.27 435.41 395.01 437.85 388.46 C 439.19 385.17 442.70 382.63 444.98 379.95 C 446.56 378.25 447.80 376.12 449.58 374.64 Z"/>
	<path d="M 486.97 375.58 C 489.78 378.83 492.47 382.50 495.62 385.39 C 498.41 388.01 502.73 389.20 506.18 390.86 C 505.20 392.55 504.66 394.22 502.98 395.33 C 500.86 395.36 498.69 394.99 496.58 394.74 C 499.16 396.72 501.59 397.74 502.21 401.29 C 499.91 401.87 497.57 402.99 495.18 402.31 C 490.66 401.12 486.50 398.99 482.79 396.16 C 480.02 393.79 476.75 394.96 473.64 393.22 C 472.05 392.16 472.65 389.44 472.45 387.76 C 475.90 387.75 479.19 386.90 482.58 386.58 C 484.31 388.05 485.82 390.10 487.68 391.44 C 489.37 392.62 491.58 393.23 493.51 393.88 C 491.61 387.27 485.09 385.27 482.98 378.95 C 484.27 377.78 485.61 376.67 486.97 375.58 Z"/>
	<path d="M 625.87 382.33 C 626.93 382.32 627.99 382.33 629.05 382.34 C 631.89 384.47 634.18 386.92 637.38 388.57 C 640.20 390.03 643.01 391.51 645.79 393.03 C 647.77 394.20 650.36 393.75 651.67 391.81 C 653.44 389.30 654.66 386.19 656.69 383.73 C 657.92 382.06 659.60 382.29 661.43 381.73 C 663.18 385.97 662.35 389.20 660.17 393.01 C 658.57 394.86 656.08 396.00 654.07 397.38 C 651.03 399.43 648.04 401.47 644.68 403.01 C 643.62 401.09 642.77 399.10 641.96 397.07 C 638.36 397.48 636.60 399.95 634.07 402.18 C 635.68 404.47 637.33 406.73 638.91 409.03 C 637.99 410.30 637.09 411.58 636.03 412.74 C 631.18 412.71 629.18 408.52 626.67 405.14 C 624.11 400.98 620.38 398.81 620.23 393.53 C 623.59 393.17 626.27 393.43 629.51 394.32 C 629.95 393.89 630.39 393.45 630.82 393.02 C 628.60 390.77 626.40 388.51 624.24 386.20 C 624.79 384.91 625.33 383.62 625.87 382.33 Z"/>
	<path d="M 577.38 384.31 C 580.88 386.81 583.39 390.96 585.52 394.64 C 590.11 405.15 585.88 415.82 583.99 426.41 C 583.02 433.30 579.37 438.23 576.59 444.37 C 573.46 451.32 569.57 458.00 565.81 464.63 C 564.80 466.50 563.80 468.66 563.64 470.81 C 564.59 472.97 567.09 474.57 568.84 476.07 C 571.76 478.29 573.89 481.12 576.08 484.01 C 582.58 492.03 588.72 499.66 596.69 506.32 C 598.33 507.65 600.07 508.28 602.13 508.62 C 601.19 504.89 600.41 501.21 600.47 497.34 C 602.27 497.42 604.16 497.45 605.93 497.79 C 608.51 500.25 608.88 505.21 611.61 507.42 C 615.59 509.18 620.03 509.64 624.07 511.29 C 630.32 513.38 635.62 516.95 641.49 519.80 C 647.25 522.59 652.63 526.46 658.47 528.86 C 661.75 530.32 665.25 531.25 668.50 532.77 C 671.94 534.73 674.68 537.68 678.21 539.57 C 682.19 541.72 685.01 545.25 689.06 547.23 C 693.11 549.26 697.32 550.99 701.42 552.94 C 708.95 556.94 718.10 557.13 725.73 562.39 C 729.68 565.51 733.64 569.19 736.18 573.58 C 739.17 578.55 742.59 583.24 746.40 587.60 C 747.39 588.87 748.84 590.36 749.14 591.99 C 749.04 593.25 748.75 594.51 748.53 595.76 C 747.10 595.51 745.29 595.61 744.01 594.85 C 738.41 590.78 734.07 585.42 730.87 579.30 C 726.62 571.75 719.56 568.12 711.75 565.18 C 707.35 563.93 702.98 562.78 698.83 560.84 C 691.99 557.51 685.12 554.42 678.86 550.04 C 672.55 546.25 667.08 541.57 660.37 539.12 C 653.63 536.21 647.07 533.14 641.00 528.99 C 636.95 527.01 632.98 525.14 629.17 522.70 C 623.37 519.99 618.56 516.84 611.96 517.06 C 613.93 521.80 616.36 526.27 619.71 530.18 C 624.78 535.91 628.70 542.44 633.92 548.04 C 638.29 553.65 643.64 558.29 648.15 563.76 C 657.60 574.52 668.01 582.89 676.22 594.85 C 680.72 600.87 685.19 606.39 687.83 613.56 C 692.57 623.72 697.79 634.74 698.50 646.07 C 698.87 651.17 700.56 655.91 700.38 660.95 C 700.29 665.66 700.39 670.36 700.26 675.07 C 700.13 681.20 697.88 686.82 697.52 692.96 C 697.22 694.53 697.57 696.09 695.96 696.98 C 694.49 697.95 692.98 697.38 691.75 696.30 C 690.72 689.45 692.73 681.88 693.24 674.98 C 693.59 668.12 695.24 662.14 694.29 655.20 C 693.58 650.67 693.05 646.15 691.78 641.73 C 690.21 634.70 686.84 628.50 684.57 621.66 C 681.71 615.24 677.91 609.03 674.00 603.19 C 667.42 593.76 657.92 585.29 650.25 576.78 C 644.75 571.19 640.08 565.01 634.32 559.69 C 628.62 554.42 624.51 548.20 619.79 542.13 C 612.77 533.60 608.29 524.56 599.69 517.30 C 596.43 514.01 592.09 512.45 589.01 509.01 C 584.57 504.44 580.31 499.70 575.89 495.11 C 571.60 490.69 568.22 485.62 563.58 481.51 C 560.01 478.20 555.90 474.26 555.62 469.08 C 556.41 463.87 560.85 459.20 563.11 454.34 C 566.30 447.73 570.58 442.38 573.06 435.44 C 574.14 432.39 575.64 429.76 576.27 426.56 C 577.55 420.20 579.77 414.69 579.53 408.05 C 579.35 403.74 580.12 398.36 577.13 394.86 C 574.48 391.56 571.70 388.98 570.80 384.61 C 573.21 383.92 575.04 382.64 577.38 384.31 Z"/>
	<path d="M 415.90 392.49 C 417.41 393.37 418.72 394.72 420.01 395.90 C 418.68 397.30 417.33 398.68 415.98 400.05 C 413.68 398.89 411.61 397.56 409.56 396.00 C 411.49 394.51 413.15 392.01 415.90 392.49 Z"/>
	<path d="M 338.77 397.07 C 342.95 399.60 345.59 403.36 350.31 405.07 C 354.20 406.58 356.97 408.34 359.42 411.78 C 356.43 411.16 353.50 410.33 350.72 409.03 C 345.45 406.88 341.28 402.07 338.77 397.07 Z" fill="#ffffff"/>
	<path d="M 424.90 401.97 C 426.03 404.20 424.52 407.41 424.08 409.71 C 422.69 409.19 420.71 409.00 419.71 407.85 C 419.42 406.28 419.21 404.88 420.37 403.59 C 421.93 402.05 422.56 400.30 424.90 401.97 Z"/>
	<path d="M 662.60 417.15 C 664.67 417.52 667.69 417.03 669.14 418.79 C 673.69 423.23 674.59 430.25 675.48 436.25 C 675.74 441.50 675.56 446.82 675.51 452.08 C 675.48 456.16 673.52 459.12 672.22 462.89 C 670.73 466.72 669.99 470.46 668.19 474.05 C 665.88 478.78 662.79 483.16 659.89 487.65 C 658.01 490.14 656.57 492.69 652.97 491.41 C 652.27 490.34 650.84 488.38 651.64 487.09 C 654.04 482.27 657.63 478.12 659.96 473.22 C 663.07 466.71 665.21 459.63 667.38 452.76 C 669.58 446.34 668.26 438.64 667.35 432.05 C 666.87 427.64 663.59 425.67 661.78 421.94 C 661.80 420.33 662.29 418.72 662.60 417.15 Z"/>
	<path d="M 345.84 418.81 C 347.47 419.43 349.69 419.75 349.54 422.00 C 349.75 427.30 348.69 432.00 350.15 437.27 C 351.66 442.69 352.02 448.18 353.89 453.44 C 355.34 457.57 357.19 461.56 358.63 465.70 C 360.13 470.18 362.03 474.13 361.84 479.00 C 362.43 486.88 357.73 495.11 354.06 501.85 C 351.74 506.31 347.94 508.26 344.19 511.29 C 341.36 513.44 339.00 516.04 336.42 518.46 C 332.79 521.89 328.30 523.25 324.39 526.37 C 318.52 531.13 311.41 533.57 305.77 538.67 C 300.69 543.17 295.06 546.21 288.82 548.80 C 283.36 551.54 277.31 551.77 271.88 554.61 C 268.03 556.70 264.13 558.94 260.71 561.70 C 255.68 566.47 251.37 571.68 246.89 576.90 C 242.10 581.61 237.98 586.91 234.35 592.55 C 229.96 600.81 231.79 609.08 231.35 618.02 C 231.02 624.04 232.40 629.61 233.91 635.39 C 235.82 641.58 237.83 647.69 240.46 653.63 C 242.14 657.65 244.67 661.93 245.37 666.23 C 246.06 668.45 243.17 670.01 241.97 671.56 C 237.45 666.19 235.04 658.85 233.41 652.12 C 231.97 646.81 229.46 641.96 228.03 636.67 C 226.70 631.40 224.99 626.57 225.38 621.03 C 225.78 612.18 224.03 601.57 226.74 593.08 C 229.77 585.08 237.40 578.44 242.62 571.73 C 246.78 566.17 251.39 561.09 256.79 556.70 C 262.35 552.37 267.60 548.21 274.43 546.05 C 278.75 544.31 283.25 544.44 287.31 542.23 C 289.81 540.96 292.37 539.79 294.84 538.46 C 299.80 535.75 302.88 531.31 307.80 528.65 C 311.34 526.75 314.97 525.73 318.17 523.16 C 321.78 520.29 325.77 518.04 329.55 515.42 C 333.86 512.42 337.11 508.34 341.45 505.36 C 344.40 503.28 347.20 501.44 348.88 498.10 C 351.03 493.73 353.69 489.40 355.15 484.73 C 356.14 479.54 354.70 473.85 352.68 469.05 C 349.32 461.34 346.13 453.21 344.29 444.98 C 342.83 438.92 343.45 432.35 343.25 425.96 C 343.04 423.12 344.42 421.11 345.84 418.81 Z"/>
	<path d="M 403.94 424.08 C 405.29 427.99 405.41 431.96 407.23 435.65 C 407.78 437.06 408.56 438.17 408.26 439.74 C 406.83 446.59 405.93 453.49 403.90 460.21 C 403.40 464.86 403.06 469.05 401.11 473.39 C 399.99 473.43 398.87 473.46 397.75 473.50 C 397.07 471.35 395.77 468.76 396.14 466.49 C 397.45 457.54 400.37 449.64 399.66 440.94 C 399.62 436.14 397.63 432.41 398.80 427.60 C 399.87 425.92 402.25 425.03 403.94 424.08 Z"/>
	<path d="M 593.07 462.66 C 596.12 461.30 599.10 465.11 598.50 467.93 C 597.50 473.00 596.55 478.18 595.31 483.19 C 593.97 487.04 592.69 488.33 588.55 489.12 C 587.87 480.83 589.75 470.27 593.07 462.66 Z"/>
	<path d="M 288.91 468.18 C 289.47 468.37 290.02 468.58 290.57 468.79 C 290.13 470.41 289.59 472.01 289.08 473.61 C 287.52 472.56 285.96 471.54 284.38 470.53 C 285.88 469.73 287.37 468.89 288.91 468.18 Z"/>
	<path d="M 461.99 475.61 C 462.62 476.41 463.23 477.22 463.84 478.03 C 459.48 486.77 451.66 494.15 444.15 500.23 C 438.53 505.04 433.70 510.48 427.48 514.60 C 418.83 520.57 411.95 528.19 404.41 535.41 C 398.71 541.19 392.66 546.34 387.75 552.88 C 385.07 556.51 381.79 559.44 378.44 562.43 C 373.47 567.46 368.91 572.93 364.24 578.25 C 360.11 582.82 357.35 587.64 352.66 591.60 C 349.86 593.96 347.89 596.87 345.63 599.70 C 337.59 609.37 329.01 619.20 322.90 630.22 C 320.04 636.46 316.51 641.60 315.05 648.37 C 313.76 654.84 311.96 660.47 312.31 667.04 C 312.32 672.32 314.27 676.79 314.87 682.05 C 315.41 686.53 315.94 690.82 318.22 694.82 C 320.81 699.38 323.01 704.53 326.47 708.49 C 327.84 710.12 329.39 711.73 330.49 713.56 C 331.38 715.98 330.08 717.80 329.14 719.94 C 324.73 715.89 319.82 711.53 317.00 706.22 C 314.99 702.39 311.58 699.41 309.85 695.49 C 308.64 691.79 308.56 687.78 307.54 684.00 C 306.17 678.74 305.23 673.38 304.55 667.99 C 303.86 660.94 306.70 653.26 307.77 646.19 C 309.08 638.40 313.15 632.69 316.51 625.74 C 319.57 619.71 324.14 615.61 328.01 610.17 C 330.79 606.25 333.58 602.40 336.95 598.95 C 340.49 595.45 343.35 591.39 347.01 588.00 C 352.70 582.55 357.15 576.24 362.49 570.50 C 370.19 562.19 377.56 553.55 385.46 545.42 C 387.72 542.97 389.50 540.26 391.89 537.91 C 394.02 535.76 396.55 533.83 398.41 531.45 C 398.88 529.13 398.72 526.68 398.90 524.32 C 400.61 525.15 402.29 526.03 403.98 526.90 C 407.07 524.19 410.56 521.40 413.01 518.10 C 413.47 517.61 413.55 517.01 413.24 516.30 C 411.00 510.74 407.11 503.96 408.60 497.77 C 410.61 495.68 413.10 496.17 414.76 498.38 C 417.54 502.22 417.50 508.35 417.96 512.90 C 423.66 511.10 426.88 506.88 431.51 503.49 C 434.98 500.84 438.78 500.24 441.44 496.58 C 443.83 493.24 446.45 490.30 449.29 487.34 C 453.01 483.36 456.80 477.65 461.99 475.61 Z"/>
	<path d="M 508.25 476.65 C 513.47 475.71 519.67 478.38 524.79 479.43 C 526.67 479.88 529.03 480.12 530.45 481.54 C 533.35 484.23 535.22 487.71 537.16 491.08 C 542.88 500.44 549.38 509.18 556.65 517.38 C 562.29 522.96 567.57 529.09 573.64 534.19 C 577.90 537.30 581.86 540.77 585.92 544.14 C 590.04 547.70 594.25 551.02 597.60 555.37 C 603.01 561.30 608.61 567.03 613.60 573.39 C 620.24 581.00 628.39 587.38 635.12 594.89 C 638.01 598.71 640.46 602.69 644.08 605.92 C 647.01 608.48 648.48 611.70 649.84 615.26 C 648.28 616.44 647.34 617.97 645.17 617.76 C 643.19 617.86 642.92 616.17 641.85 614.88 C 639.78 611.35 636.64 608.93 634.18 605.73 C 630.89 601.47 627.72 596.83 624.09 592.85 C 620.72 589.14 616.57 586.61 613.05 582.98 C 610.43 580.26 607.84 577.51 605.10 574.90 C 599.72 569.85 595.83 563.61 590.53 558.46 C 583.15 550.59 574.36 543.86 566.07 536.96 C 559.71 531.51 554.37 525.40 548.90 519.09 C 545.44 515.12 542.75 510.62 539.44 506.52 C 535.78 501.63 532.07 497.12 529.37 491.61 C 527.48 491.98 525.59 492.33 523.68 492.62 C 523.49 489.92 523.36 487.22 523.08 484.53 C 519.79 485.10 516.96 486.04 513.76 484.50 C 510.50 483.22 505.85 480.61 503.01 484.04 C 499.86 487.98 496.81 491.69 492.92 494.95 C 487.81 500.30 481.44 503.98 476.41 509.40 C 472.10 513.16 468.97 517.78 464.26 521.07 C 463.22 520.38 462.18 519.70 461.15 519.01 C 462.82 516.12 464.52 513.30 466.91 510.94 C 473.76 504.10 480.35 497.03 487.49 490.49 C 493.17 484.36 499.92 478.60 508.25 476.65 Z"/>
	<path d="M 399.67 484.07 C 403.07 485.31 405.96 487.33 408.72 489.63 C 406.99 492.39 405.26 495.14 403.34 497.77 C 402.25 497.38 401.15 497.00 400.05 496.61 C 399.06 492.58 396.66 487.82 399.67 484.07 Z"/>
	<path d="M 526.69 496.57 C 528.02 496.53 529.36 496.48 530.69 496.44 C 530.61 498.94 530.37 501.46 530.42 503.96 C 530.48 506.99 532.70 509.78 532.76 512.74 C 531.88 515.55 529.96 517.93 529.19 520.82 C 527.57 526.66 526.57 532.69 525.21 538.58 C 524.16 543.07 521.91 546.93 521.17 551.48 C 520.02 557.24 520.96 562.68 520.18 568.54 C 519.12 575.22 519.39 582.25 519.36 589.02 C 519.10 595.65 521.11 602.20 521.80 608.86 C 523.33 616.67 522.69 624.16 522.56 632.05 C 522.42 639.56 519.82 646.52 519.52 653.99 C 519.36 657.78 518.17 661.29 518.92 664.83 C 520.88 674.82 518.48 684.27 519.44 694.29 C 520.00 699.83 519.28 705.30 519.52 710.83 C 520.53 719.56 514.52 728.17 513.77 737.07 C 513.47 742.58 513.16 748.31 514.10 753.77 C 514.57 756.63 514.73 759.49 514.71 762.39 C 514.70 767.73 516.34 772.70 516.45 777.95 C 516.83 789.30 516.97 800.67 516.60 812.03 C 516.38 816.65 517.14 820.96 515.89 825.51 C 514.29 831.92 515.05 838.28 514.30 844.74 C 513.24 849.53 511.84 854.13 511.63 859.08 C 511.44 865.77 510.01 872.31 509.64 878.99 C 509.23 884.93 509.92 890.97 509.34 896.89 C 508.69 901.76 505.54 905.33 501.61 908.00 C 497.18 910.03 491.03 907.60 489.98 902.60 C 488.43 892.37 486.66 882.42 487.35 872.00 C 487.75 868.11 487.38 864.21 488.04 860.37 C 489.24 853.80 488.21 846.66 488.35 840.00 C 488.61 834.34 488.30 828.65 488.18 822.98 C 487.01 811.91 486.13 800.60 483.74 789.82 C 482.17 780.47 480.43 771.18 478.68 761.87 C 478.49 754.07 477.38 746.39 476.59 738.65 C 476.23 734.39 477.53 730.30 477.49 726.00 C 477.56 719.32 480.26 713.44 480.63 706.76 C 481.60 696.92 482.00 687.31 479.81 677.59 C 478.92 670.27 479.40 662.66 479.66 655.30 C 480.89 648.15 479.81 641.01 481.31 633.89 C 484.14 615.68 480.33 596.72 478.64 578.56 C 477.72 570.46 478.65 562.38 477.80 554.28 C 477.30 547.54 477.55 540.73 477.47 533.97 C 477.39 529.24 478.59 524.74 478.83 520.03 C 479.30 516.13 479.16 512.20 479.52 508.30 C 479.56 506.85 481.09 505.59 481.95 504.52 C 484.58 504.06 486.85 504.96 486.77 507.93 C 486.10 515.86 484.26 524.00 484.60 531.99 C 484.82 542.66 484.84 553.33 484.58 564.00 C 484.19 574.52 486.13 584.52 486.81 594.98 C 488.34 603.64 487.49 611.95 487.76 620.68 C 487.79 624.78 487.95 628.90 487.68 633.00 C 487.07 639.59 485.59 646.35 485.65 652.98 C 485.69 658.82 485.26 664.32 485.99 669.95 C 486.80 675.96 486.36 682.00 486.85 688.01 C 487.70 694.79 488.13 701.40 486.99 708.18 C 485.84 717.32 482.89 725.18 483.21 734.56 C 483.86 740.83 483.23 747.08 484.26 753.33 C 484.55 759.17 486.43 764.58 487.39 770.30 C 489.28 783.95 492.62 797.29 494.31 811.00 C 494.87 820.67 494.72 830.34 493.93 840.00 C 495.30 852.33 494.72 864.62 494.70 876.99 C 495.48 885.62 495.57 894.22 496.82 902.79 C 497.68 902.45 498.81 902.30 499.50 901.66 C 501.60 898.11 502.67 894.14 502.81 890.03 C 503.89 880.14 502.37 869.75 504.82 860.34 C 505.67 856.77 506.08 853.12 507.01 849.56 C 508.91 841.91 508.24 834.62 509.14 826.90 C 509.56 822.16 509.16 817.47 509.78 812.73 C 510.84 804.97 510.42 796.83 510.43 789.00 C 510.47 784.30 509.73 779.83 509.18 775.17 C 507.76 766.66 507.75 758.06 506.63 749.56 C 505.93 742.04 506.74 734.83 509.29 727.72 C 511.41 721.91 512.03 715.93 512.64 709.83 C 514.11 699.84 511.46 689.98 512.37 679.90 C 513.01 675.14 510.87 670.87 511.76 666.07 C 512.90 659.34 512.95 652.52 513.83 645.77 C 515.08 638.95 515.74 631.99 516.35 625.07 C 516.82 619.58 515.61 614.47 515.31 609.01 C 514.99 603.62 513.41 598.51 512.73 593.20 C 512.20 585.02 511.89 577.01 512.83 568.85 C 513.63 562.73 513.02 556.97 514.35 550.97 C 515.09 547.22 516.85 544.10 517.98 540.34 C 520.54 532.18 519.81 523.73 522.25 515.51 C 524.27 509.25 524.32 502.73 526.69 496.57 Z"/>
	<path d="M 660.16 497.38 C 664.06 499.14 667.28 502.50 670.86 504.99 C 675.78 508.43 679.81 512.70 684.41 516.53 C 688.49 519.88 693.18 522.20 697.56 525.27 C 701.80 528.33 706.69 529.99 711.07 532.82 C 714.26 534.88 717.69 536.26 721.29 537.43 C 725.93 538.87 728.78 542.51 733.27 544.33 C 738.63 546.61 743.74 548.92 748.32 552.62 C 753.02 556.40 758.01 559.60 763.01 562.94 C 767.57 566.05 770.06 570.30 773.72 574.28 C 775.74 576.55 777.87 578.29 779.36 580.99 C 781.81 585.43 784.52 589.63 786.00 594.45 C 786.86 597.23 787.51 600.05 788.51 602.78 C 790.11 606.84 789.70 611.83 789.67 616.15 C 789.41 620.62 790.16 625.44 788.98 629.68 C 786.76 638.28 786.15 648.03 782.37 656.01 C 780.89 659.49 779.21 662.91 777.31 666.19 C 776.03 668.31 774.40 670.46 772.08 671.51 C 770.74 671.19 769.42 670.80 768.11 670.37 C 768.31 668.67 768.36 666.87 768.87 665.23 C 770.12 662.76 772.29 660.64 774.08 658.52 C 772.62 652.74 774.92 648.25 775.80 642.62 C 776.32 640.11 776.34 637.51 776.92 635.02 C 777.78 633.38 779.99 632.46 781.28 631.09 C 782.18 628.30 781.68 624.93 781.69 622.03 C 781.29 614.59 782.75 607.72 779.84 600.63 C 777.59 595.41 775.19 590.13 771.98 585.41 C 768.99 580.53 764.46 576.58 760.56 572.41 C 758.61 570.23 756.07 569.67 753.65 568.29 C 751.68 566.15 750.30 563.76 747.79 562.12 C 743.96 559.61 740.09 557.24 736.44 554.44 C 731.90 551.09 726.37 550.45 721.78 547.21 C 718.75 545.21 715.50 544.59 712.15 543.39 C 709.57 542.49 707.89 540.78 705.75 539.19 C 702.02 536.24 697.41 535.20 693.56 532.37 C 686.98 527.78 679.96 523.35 674.05 517.94 C 668.46 513.07 662.52 509.95 658.00 503.70 C 657.24 502.27 657.37 500.38 657.11 498.80 C 658.12 498.32 659.14 497.85 660.16 497.38 Z"/>
	<path d="M 401.56 502.47 C 402.27 503.16 403.02 504.44 402.20 505.32 C 396.78 511.78 389.79 517.00 382.72 521.55 C 376.92 525.21 370.68 526.21 364.60 529.32 C 352.53 535.64 339.98 541.16 327.55 546.73 C 322.73 549.64 317.35 551.51 312.94 554.96 C 308.49 558.26 303.72 561.17 299.01 564.09 C 295.49 566.26 291.37 566.71 287.87 568.99 C 282.20 572.64 277.71 577.25 273.35 582.32 C 269.70 586.52 265.06 590.14 261.92 594.73 C 260.47 598.39 262.37 605.05 259.09 608.15 C 257.90 608.51 256.61 608.68 255.38 608.90 C 253.41 602.79 255.05 597.30 256.89 591.44 C 258.18 587.51 261.24 584.00 264.03 581.03 C 268.69 576.35 273.43 571.73 278.16 567.12 C 282.40 563.00 287.35 561.49 292.42 558.73 C 299.18 555.13 306.13 552.11 312.52 547.83 C 328.31 537.99 346.17 533.45 362.24 524.32 C 366.77 521.76 371.83 521.23 376.54 518.96 C 382.72 516.32 387.16 511.94 392.70 507.83 C 395.27 505.92 398.25 502.78 401.56 502.47 Z"/>
	<path d="M 547.04 520.02 C 547.95 520.88 548.78 521.79 549.53 522.77 C 550.23 525.68 549.28 529.11 548.98 532.06 C 548.19 539.86 547.83 547.88 546.34 555.58 C 544.39 566.96 544.57 578.31 544.82 589.81 C 544.96 593.88 546.15 597.52 547.08 601.44 C 547.91 604.89 547.28 608.47 547.75 611.94 C 548.19 614.55 549.07 616.91 549.83 619.41 C 551.55 624.98 552.06 630.59 554.32 636.03 C 555.98 639.93 557.57 643.81 558.56 647.95 C 561.31 659.01 565.67 669.42 569.19 680.22 C 571.07 685.57 573.71 689.65 574.48 695.01 C 575.68 703.95 578.85 712.26 579.37 721.33 C 579.58 730.06 582.24 738.28 582.69 747.03 C 582.67 749.21 581.71 751.48 581.09 753.55 C 578.57 760.94 578.87 768.59 576.72 776.10 C 575.62 783.50 573.29 790.86 573.63 798.25 C 573.46 804.18 573.58 810.11 573.69 816.05 C 573.83 823.41 576.43 830.90 578.39 838.10 C 578.97 840.42 580.55 841.69 582.33 843.09 C 582.93 841.09 583.59 839.18 583.58 837.05 C 583.55 827.45 582.81 817.76 583.50 808.17 C 584.02 800.67 586.96 794.53 588.93 787.43 C 592.44 775.43 596.00 763.38 598.58 751.15 C 599.70 747.11 600.65 743.17 600.82 738.95 C 601.22 732.75 602.88 725.23 600.34 719.40 C 597.45 711.51 597.18 703.48 594.05 695.66 C 591.78 690.11 591.01 684.23 589.06 678.58 C 587.53 674.10 586.61 669.49 585.59 664.88 C 584.28 658.94 582.48 653.17 581.14 647.24 C 579.23 638.78 575.45 631.25 573.71 622.73 C 570.79 610.18 572.94 595.94 572.52 582.96 C 572.26 577.83 573.85 573.37 574.93 568.45 C 576.02 564.42 576.58 559.56 578.92 556.05 C 580.14 554.24 582.49 554.69 584.41 554.25 C 584.77 556.13 585.60 557.64 584.95 559.54 C 583.54 564.75 581.81 569.95 580.70 575.27 C 579.54 580.81 579.77 586.46 578.81 592.04 C 578.39 605.25 578.34 617.66 583.23 630.17 C 587.38 640.82 589.00 652.03 592.58 662.82 C 595.74 674.50 596.95 687.38 602.02 698.29 C 604.42 703.59 604.05 709.07 605.98 714.47 C 607.24 718.02 608.84 721.07 608.61 724.97 C 608.38 730.91 608.01 736.95 607.09 742.83 C 605.67 749.15 604.71 755.56 603.19 761.85 C 600.48 771.72 597.43 781.47 594.57 791.29 C 589.04 804.91 589.44 820.46 589.87 834.91 C 589.95 838.88 589.04 843.21 586.35 846.25 C 584.81 847.70 583.34 849.06 581.05 848.67 C 576.58 848.04 573.85 844.30 572.33 840.35 C 568.35 831.57 567.41 822.46 566.37 813.01 C 565.99 808.39 566.39 803.62 566.34 798.96 C 566.37 794.25 566.22 789.83 567.63 785.27 C 569.66 778.71 570.76 771.97 571.56 765.17 C 572.61 759.35 574.09 753.60 575.25 747.81 C 576.04 741.08 575.05 734.40 573.85 727.82 C 572.73 720.03 571.06 712.34 569.73 704.58 C 569.05 700.39 567.73 696.50 566.05 692.62 C 564.01 687.86 563.33 682.82 561.61 677.97 C 560.05 673.21 557.78 668.90 556.55 664.06 C 553.40 652.13 548.21 641.87 545.78 629.91 C 545.12 626.36 544.23 622.98 543.01 619.58 C 540.86 613.93 541.47 607.97 539.60 602.20 C 537.70 596.76 538.94 590.91 538.34 585.01 C 538.40 576.29 537.68 567.33 538.95 558.70 C 540.14 552.42 540.80 546.08 542.15 539.84 C 543.14 534.89 543.13 529.80 543.91 524.84 C 544.25 522.68 545.51 521.44 547.04 520.02 Z"/>
	<path d="M 458.31 522.57 C 460.36 525.59 461.91 528.98 463.66 532.18 C 466.54 538.84 468.18 546.20 469.09 553.37 C 469.92 560.24 471.06 567.61 470.14 574.49 C 469.56 578.31 469.33 582.09 468.29 585.84 C 467.05 590.40 465.20 594.76 464.11 599.38 C 462.92 604.33 461.46 609.17 459.65 613.93 C 457.30 619.80 456.23 626.04 453.83 631.90 C 451.67 637.16 450.37 642.64 448.70 648.06 C 444.93 661.03 437.87 673.16 433.09 685.96 C 429.66 693.21 429.16 700.60 426.97 708.46 C 425.12 715.18 424.73 721.95 424.29 728.85 C 423.04 733.72 424.49 738.12 424.52 743.00 C 424.66 748.21 426.16 752.89 426.82 758.00 C 427.44 762.19 427.40 766.42 428.05 770.61 C 428.99 776.58 428.67 782.96 428.68 789.04 C 428.71 794.27 427.40 799.67 426.24 804.76 C 423.93 812.68 419.32 820.26 415.23 827.38 C 414.42 828.71 413.63 830.24 412.48 831.30 C 409.64 832.63 406.46 833.02 403.66 834.50 C 399.80 836.17 396.67 839.14 392.75 840.38 C 390.27 841.28 388.37 839.23 386.32 838.16 C 386.53 833.97 386.82 829.46 388.04 825.42 C 390.32 819.10 396.27 814.61 398.39 807.86 C 401.04 799.02 404.53 791.74 403.31 782.18 C 401.97 774.88 399.16 767.50 398.54 760.06 C 398.93 751.41 396.45 743.47 395.67 734.92 C 395.12 726.27 395.32 717.78 396.64 709.21 C 397.85 702.12 396.67 695.13 398.47 688.15 C 401.14 676.33 403.98 664.51 407.63 652.95 C 413.17 638.69 418.09 624.81 419.85 609.49 C 420.40 603.94 421.80 598.31 421.47 592.78 C 420.86 581.09 421.90 569.26 420.84 557.61 C 417.21 559.56 413.50 560.81 410.60 563.58 C 408.17 565.83 405.84 568.17 403.25 570.24 C 400.79 572.29 398.10 573.85 395.88 576.19 C 392.68 579.25 390.05 582.86 386.75 585.79 C 383.49 588.58 379.90 590.98 376.61 593.73 C 373.72 596.08 372.13 600.17 370.09 603.27 C 364.59 611.37 358.26 618.78 352.54 626.69 C 351.24 628.39 349.39 628.41 347.48 628.96 C 347.37 624.50 346.61 620.29 349.69 616.59 C 353.37 612.27 357.89 608.74 361.25 604.05 C 365.04 599.23 367.50 593.16 371.70 588.74 C 375.41 585.40 379.14 582.08 383.23 579.20 C 390.88 573.20 397.15 564.84 405.01 559.12 C 409.95 555.41 414.68 551.40 419.76 547.90 C 422.39 546.08 425.07 544.66 427.57 542.64 C 430.96 539.95 433.52 536.82 437.24 534.53 C 441.21 532.10 444.93 529.36 449.14 527.33 C 452.19 525.89 455.04 523.40 458.31 522.57 Z"/>
	<path d="M 455.17 531.75 C 458.38 537.33 461.00 543.39 461.69 549.84 C 462.29 554.89 463.71 559.90 463.74 564.95 C 463.78 570.24 463.87 575.58 463.48 580.86 C 462.36 588.33 458.65 595.85 456.66 603.21 C 452.95 617.56 447.85 631.52 443.13 645.56 C 438.37 657.37 433.27 669.06 428.41 680.82 C 426.93 684.39 425.31 687.84 424.22 691.56 C 421.58 700.93 419.23 710.30 418.38 720.03 C 417.03 727.37 417.57 734.61 417.50 742.03 C 417.54 747.67 419.35 752.71 420.25 758.19 C 420.83 763.07 421.27 767.99 421.60 772.89 C 422.18 777.53 423.13 782.31 423.15 786.99 C 422.67 793.35 420.93 799.65 419.36 805.81 C 417.17 812.91 413.71 820.12 407.04 823.99 C 403.09 827.63 399.28 830.26 394.10 831.90 C 394.84 827.98 396.14 824.40 398.19 820.98 C 402.25 814.16 405.14 806.84 407.75 799.36 C 409.11 795.69 408.79 791.21 408.88 787.31 C 408.96 777.08 406.31 767.88 404.70 757.91 C 404.01 750.08 402.82 742.33 401.67 734.56 C 401.30 727.03 401.17 719.34 402.41 711.88 C 403.87 701.09 403.12 690.82 406.08 680.29 C 408.64 671.49 410.19 662.56 413.29 653.94 C 414.62 650.33 415.89 646.69 417.36 643.14 C 419.25 638.72 420.21 634.04 421.85 629.51 C 424.15 623.19 424.50 616.79 425.85 610.25 C 426.95 605.11 426.28 599.99 427.11 594.81 C 428.06 587.77 427.33 581.25 427.43 574.12 C 427.46 570.09 427.97 566.39 427.39 562.36 C 427.07 559.77 426.22 556.73 426.80 554.16 C 427.84 552.52 429.51 551.17 430.92 549.83 C 438.14 542.91 446.19 536.24 455.17 531.75 Z" fill="#ffffff"/>
	<path d="M 722.67 552.34 C 723.63 552.28 724.59 552.22 725.55 552.17 C 725.51 553.18 725.47 554.18 725.43 555.19 C 724.49 554.25 723.56 553.32 722.67 552.34 Z"/>
	<path d="M 757.33 598.33 C 758.78 598.35 760.22 598.40 761.66 598.46 C 763.18 603.88 762.55 610.07 762.71 615.68 C 762.91 619.47 761.58 623.78 762.96 627.27 C 763.39 629.01 764.39 630.56 763.45 632.28 C 761.51 636.12 759.01 639.72 756.73 643.36 C 755.51 640.03 753.96 636.34 753.85 632.75 C 754.26 627.87 755.93 623.13 756.53 618.30 C 757.04 612.06 755.07 604.53 757.33 598.33 Z"/>
	<path d="M 249.76 601.87 C 252.73 604.24 252.31 607.62 252.59 611.02 C 252.70 616.49 254.60 621.18 256.15 626.31 C 257.06 629.48 256.50 632.48 255.44 635.52 C 254.14 635.55 252.85 635.58 251.55 635.61 C 248.53 628.92 247.98 622.09 246.59 615.00 C 245.95 611.13 244.62 606.66 245.59 602.76 C 246.52 601.61 248.54 600.75 249.76 601.87 Z"/>
	<path d="M 746.99 601.78 C 748.42 601.52 749.86 601.33 751.31 601.19 C 753.62 607.47 751.52 613.11 749.25 619.04 C 747.79 616.15 746.25 613.09 745.49 609.93 C 745.06 607.25 746.04 604.26 746.99 601.78 Z"/>
	<path d="M 242.38 612.54 C 242.95 614.42 243.33 616.27 243.44 618.24 C 243.79 623.55 245.58 628.91 246.56 634.19 C 247.68 640.47 250.51 645.87 250.79 652.31 C 248.95 652.65 247.03 654.50 245.54 652.62 C 241.99 648.61 242.09 641.66 240.79 636.58 C 239.51 628.99 237.12 621.74 235.15 614.34 C 237.54 613.19 239.72 612.62 242.38 612.54 Z"/>
	<path d="M 772.81 618.13 C 773.83 618.70 774.84 619.27 775.85 619.85 C 775.27 627.57 773.39 635.18 772.51 642.88 C 772.01 647.77 770.44 652.36 768.52 656.85 C 766.71 656.79 764.91 656.71 763.11 656.63 C 763.75 652.53 765.01 648.62 766.14 644.64 C 767.90 637.17 768.82 629.63 769.65 622.01 C 769.81 619.81 771.05 619.10 772.81 618.13 Z"/>
	<path d="M 650.45 633.98 C 652.05 634.13 653.66 634.27 655.25 634.46 C 656.84 637.56 657.97 640.89 659.35 644.09 C 657.81 645.07 656.27 646.04 654.72 647.01 C 653.28 645.39 651.65 643.80 650.82 641.76 C 650.22 639.27 650.47 636.53 650.45 633.98 Z"/>
	<path d="M 664.92 634.05 C 665.84 634.66 666.76 635.28 667.67 635.90 C 667.25 640.65 666.22 645.30 665.73 650.03 C 665.23 655.87 665.81 661.72 665.53 667.62 C 664.16 667.64 662.69 667.82 661.34 667.55 C 659.95 666.61 658.47 664.81 658.57 663.04 C 658.75 659.23 659.88 655.47 660.27 651.66 C 660.69 646.50 660.03 641.15 660.77 636.03 C 662.05 635.16 663.46 634.56 664.92 634.05 Z"/>
	<path d="M 687.21 641.14 C 687.65 646.43 688.04 651.72 688.68 657.00 C 688.99 659.52 689.89 662.11 689.81 664.64 C 689.39 668.11 687.88 671.38 687.69 674.93 C 687.45 680.23 688.13 685.21 687.13 690.51 C 686.29 695.04 685.71 699.63 684.82 704.15 C 684.40 706.77 682.23 709.70 679.67 710.47 C 677.45 710.86 676.73 709.24 675.29 707.96 C 677.71 702.15 680.21 695.91 681.29 689.70 C 682.23 684.05 680.87 678.67 681.53 673.02 C 681.85 668.99 683.79 665.22 682.94 661.28 C 682.26 655.81 681.06 650.02 681.54 644.51 C 682.87 642.39 685.02 641.96 687.21 641.14 Z"/>
	<path d="M 673.03 642.55 C 675.09 642.15 677.08 644.57 677.36 646.42 C 678.07 652.13 677.40 658.25 676.78 663.95 C 676.29 668.72 676.88 673.01 675.69 677.67 C 674.51 682.41 673.77 686.99 673.39 691.86 C 673.29 693.37 672.80 694.61 671.51 695.47 C 668.42 696.14 665.94 692.03 666.74 689.31 C 667.83 683.20 669.62 677.18 670.42 670.99 C 670.93 662.97 670.90 654.85 670.39 646.84 C 670.27 645.10 670.77 642.35 673.03 642.55 Z"/>
	<path d="M 345.63 646.08 C 346.45 647.80 347.89 649.87 347.48 651.84 C 346.72 652.91 345.90 653.95 345.04 654.95 C 342.17 653.41 341.14 651.72 339.75 648.87 C 341.69 647.18 342.97 646.17 345.63 646.08 Z"/>
	<path d="M 338.05 652.31 C 341.78 653.19 343.54 657.06 345.10 660.18 C 346.64 663.67 349.12 667.86 348.81 671.76 C 348.85 673.73 347.17 674.70 346.04 676.16 C 343.62 673.91 342.12 671.88 340.80 668.85 C 339.16 664.92 336.17 661.77 334.57 657.87 C 334.00 655.32 336.11 653.52 338.05 652.31 Z"/>
	<path d="M 319.08 660.01 C 320.98 661.55 322.24 662.91 322.80 665.36 C 323.86 669.64 325.67 673.51 327.44 677.52 C 329.94 684.50 331.10 692.22 334.23 698.99 C 336.01 703.03 338.98 705.91 341.37 709.54 C 345.02 714.92 348.25 720.43 352.99 724.97 C 356.02 727.83 354.69 731.03 352.65 733.97 C 347.65 731.71 344.70 726.16 341.19 721.94 C 336.23 714.19 329.90 706.48 326.12 698.22 C 323.96 692.38 322.47 686.23 320.96 680.19 C 319.50 674.69 315.74 668.85 315.57 663.18 C 316.64 662.00 317.84 661.01 319.08 660.01 Z"/>
	<path d="M 333.48 666.68 C 333.53 667.66 333.57 668.64 333.62 669.61 C 332.70 669.57 331.77 669.53 330.85 669.48 C 331.71 668.54 332.59 667.60 333.48 666.68 Z"/>
	<path d="M 238.54 670.93 C 242.06 673.00 245.03 675.73 247.83 678.67 C 246.10 678.37 244.04 678.25 242.48 677.39 C 240.56 675.90 239.49 673.10 238.54 670.93 Z"/>
	<path d="M 336.06 672.88 C 338.42 675.88 338.22 680.29 340.55 683.46 C 345.26 690.35 351.54 698.63 351.61 707.34 C 350.13 707.66 348.63 708.04 347.13 708.20 C 345.38 707.00 344.69 705.26 343.88 703.39 C 341.64 697.59 338.22 692.18 334.92 686.93 C 333.02 683.92 330.32 680.52 329.63 676.99 C 329.79 675.47 330.26 673.95 330.67 672.48 C 332.25 672.46 334.74 671.88 336.06 672.88 Z"/>
	<path d="M 693.64 699.96 C 694.57 700.66 695.49 701.36 696.42 702.06 C 696.33 707.38 697.33 711.77 693.32 716.02 C 691.56 715.10 689.80 714.17 688.06 713.22 C 689.40 708.45 690.39 703.88 693.64 699.96 Z"/>
</svg>
