<?xml version="1.0" standalone="no"?>
<!DOCTYPE svg PUBLIC "-//W3C//DTD SVG 20010904//EN"
 "http://www.w3.org/TR/2001/REC-SVG-20010904/DTD/svg10.dtd">
<svg version="1.0" xmlns="http://www.w3.org/2000/svg"
 width="1000.000000pt" height="589.000000pt" viewBox="0 0 1000.000000 589.000000"
 preserveAspectRatio="xMidYMid meet">
<metadata>
Created by potrace 1.16, written by Peter Selinger 2001-2019
</metadata>
<g transform="translate(0.000000,589.000000) scale(0.100000,-0.100000)"
fill="#000000" stroke="none">
<path d="M5385 5795 c-26 -11 -27 -13 -8 -14 27 -1 53 9 53 20 0 12 -9 11 -45
-6z"/>
<path d="M7226 5783 c-3 -10 -12 -62 -20 -116 -12 -78 -13 -109 -4 -150 28
-123 -1 -226 -109 -395 -59 -92 -151 -278 -158 -322 -4 -22 -11 -43 -16 -46
-6 -3 -33 17 -60 46 -29 28 -64 53 -79 57 -39 7 -43 26 -14 60 25 27 25 31 20
128 -4 55 -7 105 -8 110 -1 6 2 23 6 38 9 39 -19 36 -40 -5 -9 -18 -32 -56
-51 -84 -27 -41 -34 -60 -32 -95 1 -24 8 -53 16 -64 23 -34 17 -45 -17 -34
-16 6 -30 14 -30 19 0 4 -32 21 -70 39 l-70 31 20 37 c11 21 20 46 20 55 0 10
9 40 19 68 11 28 15 52 10 56 -16 10 -66 -39 -98 -98 -18 -32 -39 -58 -46 -58
-11 0 -12 6 -5 26 16 41 10 76 -21 129 -16 28 -37 65 -46 83 -9 17 -20 32 -25
32 -20 0 -41 -69 -42 -140 -1 -63 3 -80 22 -107 23 -32 30 -59 12 -48 -17 10
-92 -31 -148 -80 -68 -61 -112 -136 -112 -193 0 -47 21 -96 44 -105 22 -9 116
4 145 20 15 7 30 13 36 13 10 0 25 15 109 100 27 27 52 50 56 50 5 0 22 -13
40 -30 39 -37 65 -40 54 -7 -10 31 -11 157 -1 157 9 0 115 -57 135 -73 11 -9
4 -19 -32 -51 -76 -69 -97 -177 -54 -276 28 -64 53 -68 63 -8 5 29 20 55 50
87 59 64 78 103 65 136 -6 15 -10 35 -10 47 0 34 47 13 105 -47 l52 -55 -5
-80 c-4 -65 -1 -90 17 -137 26 -67 47 -116 68 -156 26 -49 53 -165 54 -229 1
-50 3 -58 10 -38 7 20 8 16 5 -18 -3 -28 -12 -51 -25 -63 -23 -22 -28 -34 -8
-23 6 4 -1 -5 -16 -21 -15 -16 -59 -92 -97 -170 -37 -78 -76 -147 -84 -154 -9
-8 -16 -20 -16 -27 0 -8 -4 -22 -9 -32 -5 -9 -15 -31 -21 -49 -7 -18 -20 -35
-29 -38 -9 -3 -32 -23 -50 -45 -38 -46 -48 -49 -61 -16 -10 28 -91 156 -112
176 -8 8 -17 23 -21 33 -3 9 -13 17 -20 17 -8 0 -22 9 -32 20 -10 11 -22 20
-28 20 -16 0 -160 107 -198 147 -37 38 -65 103 -56 127 3 7 -10 38 -29 67 -47
75 -56 96 -65 154 -13 87 -21 108 -66 176 -23 37 -43 72 -43 76 0 11 -64 43
-84 43 -7 0 -21 9 -31 20 -19 21 -113 60 -146 60 -33 0 -325 150 -439 226 -58
38 -116 74 -129 79 -23 10 -24 15 -27 120 -2 61 -7 151 -12 200 -5 50 -6 95
-2 100 4 6 28 48 53 95 82 155 91 170 98 170 4 0 14 18 22 39 9 22 21 42 27
46 5 3 10 13 10 22 0 17 46 65 90 95 21 14 22 17 7 17 -40 2 -125 -95 -156
-174 -2 -5 -23 -40 -48 -77 -24 -36 -53 -90 -65 -120 -11 -29 -33 -69 -48 -88
-27 -35 -27 -38 -19 -120 4 -47 11 -134 15 -194 7 -105 7 -109 -12 -102 -126
51 -350 93 -434 83 -68 -9 -143 -34 -186 -63 -30 -21 -42 -24 -56 -15 -10 6
-25 11 -33 11 -25 0 -17 14 22 35 50 27 71 60 83 125 6 30 13 67 16 81 8 38
-24 48 -51 17 -11 -13 -33 -30 -48 -38 -16 -8 -42 -29 -58 -47 -24 -28 -29
-43 -29 -83 0 -67 -19 -66 -87 6 -37 39 -53 64 -53 82 0 23 15 127 25 172 2 8
4 20 4 26 1 5 9 19 19 30 17 18 32 19 248 18 237 -2 303 -11 447 -61 34 -13
50 -14 58 -6 16 16 1 37 -15 24 -7 -6 -15 -8 -18 -5 -3 3 -52 17 -109 30 -112
27 -220 37 -399 35 -63 -1 -141 2 -172 7 -65 10 -78 3 -78 -39 0 -15 -4 -31
-10 -34 -5 -3 -10 -23 -10 -43 0 -20 -7 -62 -15 -92 -8 -30 -15 -68 -15 -84 0
-16 -11 -52 -24 -80 -13 -28 -32 -71 -42 -96 -10 -25 -29 -59 -41 -76 -13 -17
-23 -35 -23 -40 0 -5 -14 -42 -31 -83 -28 -67 -32 -98 -10 -75 18 17 153 297
167 343 7 26 20 55 29 66 14 20 15 20 21 -2 3 -13 10 -23 15 -23 4 0 20 -11
34 -24 14 -13 36 -31 48 -39 21 -13 20 -14 -12 -15 -18 0 -49 -9 -69 -20 -44
-22 -66 -75 -58 -137 14 -109 20 -135 28 -133 5 2 19 29 32 60 24 60 61 114
69 101 3 -4 8 -22 11 -40 4 -17 14 -37 22 -44 8 -6 14 -17 14 -24 0 -6 19 -27
42 -46 35 -28 51 -33 92 -34 48 0 50 1 59 32 5 18 6 40 2 50 -5 10 -8 21 -7
25 1 4 -8 12 -19 19 -17 9 -25 7 -42 -9 -37 -33 -65 -34 -81 -4 -8 16 -10 35
-6 47 5 11 6 30 3 43 -4 17 -1 22 16 22 25 0 25 -1 7 -45 -18 -41 -9 -49 39
-36 27 7 45 6 71 -5 20 -8 44 -12 55 -9 13 4 19 2 19 -8 0 -18 32 -47 53 -47
10 0 26 -4 37 -10 11 -5 29 -15 40 -20 12 -6 25 -8 30 -5 5 3 12 0 17 -7 10
-16 66 -53 148 -99 65 -36 76 -43 108 -75 12 -11 38 -28 57 -37 44 -21 127
-93 118 -102 -7 -7 -53 16 -303 155 -125 70 -435 138 -435 96 0 -9 8 -19 18
-22 28 -9 161 -75 247 -125 44 -25 110 -59 147 -75 37 -16 66 -34 64 -40 -3
-6 5 -9 17 -7 13 2 53 -15 98 -42 l77 -45 -4 -222 c-4 -233 -9 -304 -24 -313
-5 -3 -9 -38 -8 -78 0 -39 -5 -84 -11 -99 -11 -28 -4 -242 12 -363 3 -16 7
-59 11 -95 16 -154 45 -210 165 -330 53 -52 101 -102 106 -111 6 -9 32 -48 58
-87 26 -39 58 -90 70 -113 22 -41 47 -62 47 -40 0 6 -11 29 -25 51 -14 22 -25
42 -25 45 0 3 -20 35 -45 72 -25 36 -45 68 -45 72 0 4 -47 54 -104 111 -58 57
-114 121 -125 144 -24 48 -48 168 -56 279 -3 43 -9 108 -14 145 -15 104 -11
208 10 312 11 52 24 121 28 153 9 70 7 380 -4 425 -7 32 -6 34 16 27 30 -10
75 -41 91 -64 7 -10 27 -26 43 -35 80 -45 137 -101 149 -146 16 -59 50 -117
85 -145 21 -16 51 -51 66 -77 16 -27 32 -48 36 -48 4 0 10 -18 14 -40 4 -26
12 -40 22 -40 21 0 8 55 -25 105 -15 22 -32 51 -38 65 -6 14 -29 40 -50 58
-21 17 -47 38 -56 47 -10 8 -18 29 -18 46 0 35 -13 64 -45 99 l-23 25 64 77
c46 56 77 83 111 98 26 11 61 31 78 44 l31 24 -4 -33 c-4 -36 27 -75 61 -75
13 0 17 -5 13 -15 -6 -17 7 -19 34 -5 11 6 17 16 14 23 -2 7 4 22 14 33 10 10
17 24 16 29 -1 6 -5 26 -8 46 -6 32 -11 37 -39 42 -17 2 -44 -2 -59 -9 l-27
-14 20 45 c17 38 18 51 9 79 -21 63 14 114 50 72 6 -8 17 -13 24 -10 8 3 16
-21 24 -77 6 -45 9 -85 6 -90 -3 -5 2 -9 11 -9 11 0 15 -5 11 -15 -3 -9 1 -18
9 -21 8 -4 15 -11 15 -18 0 -6 13 -36 29 -66 35 -67 47 -142 31 -199 -8 -33
-8 -46 1 -57 9 -11 8 -18 -6 -34 -10 -11 -15 -26 -12 -34 3 -8 -1 -17 -8 -20
-9 -3 -12 -12 -9 -21 4 -10 2 -15 -7 -13 -10 2 -15 -9 -17 -35 -3 -33 -6 -38
-23 -34 -21 6 -35 -10 -31 -35 3 -19 -33 -43 -49 -32 -6 3 -13 -3 -16 -15 -3
-12 -9 -21 -14 -21 -5 0 -9 -7 -9 -15 0 -8 -8 -15 -18 -15 -22 0 -55 -64 -47
-91 4 -11 2 -19 -4 -19 -6 0 -11 -4 -11 -10 0 -5 7 -7 15 -4 16 7 17 1 15 -86
-1 -37 4 -61 15 -75 16 -20 16 -20 6 2 -6 12 -11 43 -11 68 0 39 3 46 16 41 9
-3 18 -6 20 -6 2 0 4 -9 4 -20 0 -11 5 -20 10 -20 15 0 12 17 -6 45 -9 13 -14
30 -11 37 2 7 0 22 -6 32 -9 18 -7 17 18 -2 33 -26 47 -28 38 -5 -5 13 -3 15
13 9 33 -13 37 -12 50 13 10 20 10 28 -2 45 -8 11 -14 32 -14 46 1 21 2 23 13
9 7 -8 27 -24 45 -34 17 -11 35 -27 38 -37 9 -30 26 -8 20 26 l-6 32 47 -3
c26 -2 53 -9 61 -16 12 -10 14 -5 8 33 l-6 45 17 -35 c10 -22 18 -30 21 -21 3
10 8 7 18 -10 l13 -24 1 25 c1 14 4 19 7 13 2 -7 10 -13 16 -13 17 0 46 -75
40 -99 -8 -31 -39 -10 -54 36 -7 21 -14 33 -16 27 -8 -24 29 -86 57 -97 17 -6
31 -21 35 -34 3 -13 10 -23 16 -23 6 0 9 3 7 8 -2 4 -10 19 -17 35 -19 37 -6
46 20 13 17 -21 24 -24 35 -15 20 16 18 39 -11 104 -14 32 -23 60 -20 63 3 3
7 3 10 0 8 -7 55 -142 55 -156 0 -15 40 -60 41 -46 1 5 0 20 -1 33 -3 33 21
22 33 -15 6 -16 16 -38 23 -49 13 -18 14 -18 15 10 0 26 1 27 9 10 11 -29 33
-205 26 -212 -11 -12 -18 6 -20 54 -3 53 -29 123 -46 123 -7 0 -9 -13 -4 -37
7 -37 6 -37 -12 -22 -10 9 -27 19 -38 23 -17 6 -18 2 -11 -41 3 -27 14 -59 22
-72 14 -22 63 -177 82 -262 5 -21 5 -43 1 -50 -13 -21 -35 10 -49 69 -13 54
-31 79 -31 43 0 -24 -10 -27 -28 -9 -8 8 -12 8 -12 1 0 -6 10 -17 21 -25 19
-12 22 -23 21 -76 0 -34 3 -64 9 -67 10 -7 12 4 10 50 -2 23 0 27 8 15 17 -23
13 -116 -4 -130 -17 -14 -16 -15 -36 60 -14 49 -14 47 -3 75 8 19 7 19 -10 3
-21 -22 -27 -23 -20 -3 4 9 1 15 -7 15 -10 0 -10 3 -1 12 7 7 12 21 12 31 0
17 -2 18 -16 6 -15 -12 -19 -11 -32 9 -8 12 -18 22 -23 22 -16 0 -10 -26 12
-54 17 -21 20 -35 15 -64 -4 -23 -3 -32 2 -24 13 19 42 -46 42 -95 0 -46 -16
-29 -25 29 -4 21 -10 36 -14 33 -5 -2 -21 25 -36 60 -15 36 -32 68 -38 72 -7
4 -8 0 -2 -13 9 -23 45 -187 42 -191 -2 -1 -16 26 -32 60 -18 37 -31 55 -33
44 -4 -22 -21 -22 -29 1 -13 34 -43 43 -43 12 0 -13 5 -18 15 -14 11 5 15 -1
15 -19 0 -13 7 -30 15 -37 8 -7 15 -19 15 -26 0 -8 5 -14 10 -14 6 0 10 -9 10
-20 0 -11 4 -20 8 -20 13 0 32 -48 32 -80 0 -17 5 -30 10 -30 6 0 10 -11 10
-24 0 -13 7 -29 15 -36 13 -11 15 -8 15 14 0 14 -4 26 -10 26 -5 0 -10 11 -10
24 0 13 -5 26 -11 28 -6 2 -9 13 -7 23 4 16 10 10 26 -26 25 -54 41 -159 24
-159 -12 0 -72 113 -72 135 0 20 -90 196 -112 221 -14 16 -19 37 -19 84 -1 63
-23 124 -47 126 -7 1 -15 2 -19 3 -4 0 5 14 20 29 23 23 25 33 18 58 -4 16 -6
44 -3 63 3 22 0 36 -9 42 -22 13 18 24 44 11 12 -6 34 -13 49 -16 14 -3 33 -9
42 -12 11 -4 19 3 27 22 10 23 13 25 16 12 3 -10 9 -18 15 -18 5 0 8 7 4 15
-3 8 -1 25 4 37 8 22 9 22 9 -4 1 -15 5 -29 10 -32 16 -10 40 5 43 27 5 27
-11 77 -23 77 -11 0 -55 -45 -63 -63 -2 -7 -15 0 -30 18 -24 29 -25 29 -26 8
0 -30 -11 -29 -40 2 -26 28 -46 24 -27 -6 10 -16 9 -21 -2 -28 -24 -15 -48 0
-67 40 -19 44 -41 39 -24 -5 7 -19 7 -33 -1 -48 -10 -18 -8 -24 7 -37 14 -12
20 -32 23 -78 2 -38 -1 -63 -7 -63 -15 0 -82 127 -82 155 0 13 5 27 12 31 8 5
9 0 6 -14 -4 -12 -2 -22 3 -22 5 0 9 6 9 14 0 8 7 16 15 20 22 8 18 25 -9 36
-15 5 -33 29 -49 64 -29 62 -39 70 -37 29 3 -41 1 -45 -14 -31 -10 10 -11 16
-3 26 8 11 7 16 -6 23 -9 6 -17 17 -17 24 0 8 -5 15 -11 15 -6 0 -8 -7 -5 -16
14 -36 18 -64 8 -64 -14 0 -35 28 -28 38 3 6 -2 16 -11 23 -14 13 -16 11 -11
-19 2 -18 1 -35 -4 -38 -4 -3 -8 -13 -7 -22 0 -11 3 -12 6 -4 6 16 23 15 23
-2 0 -18 42 -29 52 -13 4 7 8 -2 8 -21 0 -28 3 -32 19 -27 16 5 20 -1 26 -34
7 -43 -1 -101 -14 -101 -11 0 -41 35 -41 47 0 6 -11 31 -25 54 l-25 44 0 -32
c0 -48 -24 -32 -50 33 -25 62 -42 72 -30 17 17 -75 45 -109 86 -104 6 1 19
-16 28 -38 22 -48 61 -70 76 -41 5 10 10 27 10 37 1 16 70 -112 70 -129 0 -15
-19 -8 -25 10 -6 18 -75 56 -75 41 0 -5 -7 -5 -17 -2 -11 4 -14 3 -9 -6 5 -7
14 -10 21 -7 15 6 30 -23 18 -35 -5 -5 -49 29 -99 76 -78 72 -93 91 -107 137
-9 29 -17 73 -18 98 -4 114 -31 115 -30 1 0 -58 6 -81 31 -130 34 -68 43 -79
199 -216 62 -55 127 -120 144 -145 17 -25 44 -62 61 -83 37 -47 28 -57 -54
-57 -66 0 -107 -22 -140 -74 -18 -31 -21 -46 -16 -89 l6 -52 -45 -34 c-25 -18
-62 -50 -84 -70 -35 -33 -153 -106 -172 -106 -4 0 -11 -4 -16 -9 -11 -12 60 2
89 17 39 20 83 54 139 107 30 29 74 65 99 81 42 28 166 149 152 149 -3 0 -16
-10 -29 -22 -13 -12 -25 -19 -28 -16 -10 9 7 38 22 38 8 0 11 5 8 10 -3 6 -20
10 -36 10 -27 0 -30 -3 -24 -22 5 -18 4 -19 -4 -8 -8 11 -14 5 -30 -30 l-20
-45 0 39 c-1 30 6 47 26 68 30 32 57 35 110 13 36 -15 53 -11 75 20 9 13 25
-3 30 -30 2 -14 -3 -21 -19 -23 -12 -2 -37 -22 -55 -45 -44 -56 -70 -77 -87
-72 -10 4 -12 -2 -8 -24 4 -19 1 -33 -8 -41 -12 -10 -15 -9 -16 6 0 13 -5 9
-15 -13 -14 -33 -33 -44 -35 -20 0 6 -5 1 -10 -13 -8 -20 -12 -22 -19 -10 -7
12 -11 8 -16 -17 -8 -42 -34 -66 -34 -32 0 19 -2 21 -10 9 -5 -8 -10 -25 -10
-37 0 -12 -5 -25 -10 -28 -7 -4 -8 3 -4 22 5 20 3 25 -4 18 -6 -6 -13 -26 -16
-45 -5 -37 -20 -75 -51 -127 -23 -39 -35 -42 -36 -10 -1 17 -4 14 -12 -12 -8
-25 -8 -36 0 -38 6 -2 9 -13 6 -23 -3 -12 1 -22 11 -26 10 -4 16 -18 16 -35 0
-17 10 -49 21 -72 12 -23 22 -62 23 -87 0 -25 6 -50 12 -57 6 -6 19 -44 28
-85 9 -40 20 -84 23 -98 3 -14 6 -28 5 -33 -1 -4 9 -39 23 -79 14 -39 25 -88
26 -107 0 -39 20 -140 30 -156 4 -5 12 -34 19 -62 15 -67 35 -71 25 -6 -4 27
-14 66 -22 88 -8 22 -17 68 -19 103 -4 71 -27 168 -55 229 -10 23 -19 54 -19
68 0 15 -4 35 -10 45 -5 10 -12 42 -14 72 -5 59 -17 98 -53 174 -32 69 -36
153 -8 186 28 31 55 83 55 102 0 17 123 144 177 184 23 16 45 22 81 22 29 0
54 6 61 13 6 8 15 44 20 81 5 38 13 71 16 75 10 10 34 -29 41 -68 4 -20 15
-48 25 -63 11 -14 19 -30 19 -36 0 -5 6 -15 14 -21 22 -18 56 3 56 35 0 14 9
37 19 51 16 19 18 30 10 50 -11 28 -6 38 19 38 14 0 17 10 17 50 0 45 2 50 21
48 45 -5 73 -22 79 -50 3 -15 17 -51 31 -80 15 -30 27 -74 29 -105 2 -29 6
-73 10 -98 5 -30 1 -66 -10 -110 -27 -100 -52 -234 -47 -247 2 -7 10 -13 18
-13 8 0 14 -9 14 -20 0 -19 53 -50 85 -50 21 0 52 60 59 114 3 27 13 57 20 65
19 21 35 93 36 154 0 26 7 64 15 84 11 26 15 68 15 143 -1 58 3 135 9 172 9
55 8 75 -5 113 -12 38 -13 53 -4 78 7 18 14 74 16 125 4 89 -4 135 -43 265 -3
9 -1 17 5 17 6 0 19 14 29 31 17 30 20 31 74 26 31 -3 72 -12 90 -20 19 -8 56
-20 83 -27 28 -6 75 -23 105 -37 31 -15 83 -34 116 -42 60 -16 148 -71 113
-71 -9 0 -19 4 -23 9 -3 5 -19 12 -35 16 -17 4 -30 11 -30 16 0 5 -5 9 -11 9
-24 0 12 -28 58 -45 65 -25 113 -54 113 -69 0 -15 106 -177 122 -188 23 -13
13 -117 -20 -223 -18 -54 -32 -107 -32 -117 0 -9 -11 -52 -25 -94 -26 -79 -32
-134 -15 -134 5 0 12 17 15 38 6 38 19 89 56 222 61 218 67 274 33 311 -9 10
-14 22 -11 26 8 8 27 -15 65 -77 29 -49 170 -234 215 -283 15 -16 27 -34 27
-38 0 -4 11 -20 25 -35 14 -15 24 -33 21 -40 -3 -7 0 -15 7 -17 7 -2 8 -8 4
-13 -13 -14 -41 11 -54 47 l-12 34 0 -34 c-1 -26 -4 -32 -17 -27 -24 9 -72
-21 -100 -64 -31 -47 -28 -61 21 -84 30 -14 42 -16 62 -7 37 17 39 15 40 -36
2 -81 38 -161 96 -215 29 -26 68 -53 87 -59 19 -6 45 -18 58 -25 18 -12 23
-12 27 -2 2 7 13 40 25 73 11 32 20 71 20 86 0 44 -69 205 -108 249 l-35 42
27 24 c14 14 36 44 47 67 12 23 30 52 41 63 24 26 15 33 -45 35 -50 2 -79 -14
-70 -37 6 -15 -26 -84 -39 -84 -3 0 -9 -12 -11 -27 -3 -16 -4 -10 -3 14 1 23
-3 41 -9 40 -5 -1 -9 6 -7 16 4 24 -30 96 -46 97 -7 0 -18 -11 -24 -25 -6 -14
-14 -25 -18 -25 -4 0 -20 19 -35 43 -16 23 -65 87 -109 142 -45 55 -92 117
-104 138 -13 20 -27 37 -30 37 -4 0 -18 17 -31 38 -75 115 -97 144 -144 184
-76 65 -119 95 -147 103 -14 4 -43 16 -65 26 -38 17 -192 74 -264 98 -19 6
-54 11 -77 11 -24 0 -44 2 -44 5 0 3 11 23 25 45 14 22 25 44 25 49 0 5 4 11
8 13 12 5 103 157 178 299 21 40 118 143 150 159 16 8 50 29 75 46 26 18 62
40 80 49 19 10 70 43 114 75 44 32 131 84 193 116 l113 59 135 -3 134 -2 58
-44 c55 -42 104 -108 90 -121 -3 -4 -25 3 -48 15 -33 17 -53 20 -85 15 -94
-14 -178 -125 -95 -125 16 0 40 -4 55 -10 20 -8 34 -6 65 10 21 11 45 28 52
37 13 18 51 43 65 43 4 0 -5 -12 -19 -27 -44 -48 -62 -122 -55 -237 6 -105 13
-129 62 -209 28 -45 32 -48 63 -43 30 4 32 3 32 -25 0 -16 3 -29 8 -29 22 1
90 61 107 95 37 74 20 293 -31 396 -7 15 -31 41 -52 58 -35 27 -41 29 -58 16
-17 -12 -18 -17 -6 -47 8 -18 15 -51 17 -73 l4 -40 -11 35 c-19 65 -30 90 -40
90 -6 0 -8 -12 -4 -27 32 -140 44 -277 26 -288 -13 -8 -11 -17 -20 120 -3 66
-13 134 -20 152 -12 28 -12 34 3 51 21 23 22 52 2 78 -20 27 -18 37 5 24 11
-6 20 -17 20 -25 0 -24 13 -17 35 17 24 38 45 47 45 20 0 -20 1 -20 55 1 31
11 54 22 52 24 -2 2 -23 -4 -47 -12 -53 -19 -53 -19 -41 4 7 12 24 20 49 23
50 4 64 -9 46 -44 -15 -29 -28 -35 -39 -18 -12 19 -26 10 -20 -12 6 -18 4 -20
-11 -13 -11 4 -29 10 -41 12 -13 3 -20 9 -17 14 3 5 0 9 -5 9 -19 0 -12 -19
11 -31 22 -12 22 -12 3 -21 -13 -5 -2 -7 32 -4 65 6 89 21 114 69 13 24 26 37
36 35 19 -3 47 -56 79 -142 21 -59 44 -85 44 -50 0 10 -20 60 -45 111 -25 50
-45 95 -45 98 0 4 20 -5 44 -19 51 -30 66 -32 66 -11 0 8 -7 15 -16 15 -9 0
-32 9 -50 21 -25 15 -42 19 -64 14 -16 -4 -30 -3 -30 2 0 16 -113 33 -225 33
-60 1 -183 6 -272 11 -123 7 -169 7 -185 -2 -13 -7 13 26 57 72 44 46 98 116
120 155 22 40 53 81 70 93 16 11 24 21 18 21 -8 0 -6 20 8 68 11 37 26 90 34
117 7 28 21 69 29 93 12 32 12 43 3 40 -6 -3 -32 -65 -57 -139 -26 -74 -56
-152 -68 -174 -11 -22 -28 -54 -36 -71 -8 -17 -22 -36 -30 -44 -9 -7 -16 -17
-16 -22 0 -14 -80 -119 -121 -158 -55 -53 -89 -77 -144 -104 -27 -13 -65 -36
-84 -50 -19 -14 -38 -26 -43 -26 -4 0 -40 -22 -80 -49 -128 -85 -188 -121
-204 -121 -8 0 -28 -7 -43 -14 -15 -8 -37 -13 -48 -10 -17 5 -19 12 -15 56 7
74 -16 216 -43 263 -12 22 -37 81 -55 130 -28 78 -33 104 -34 195 l-1 105 87
175 c49 96 95 186 103 200 8 14 31 60 52 102 70 143 80 160 97 170 9 5 16 17
16 26 0 10 47 62 105 116 58 54 105 103 105 108 0 17 -36 -12 -149 -122 -62
-60 -116 -110 -118 -110 -3 0 -3 6 0 13 2 6 0 21 -6 32 -15 28 -17 77 -5 175
5 47 11 98 11 114 2 33 -18 47 -27 19z m17 -411 c-3 -12 -9 -22 -14 -22 -12 0
-11 7 2 32 13 25 20 19 12 -10z m-845 -277 c-4 -61 15 -67 49 -15 34 55 64 90
74 90 13 0 -1 -53 -18 -66 -7 -7 -12 -16 -11 -21 2 -5 -10 -22 -27 -37 -22
-20 -24 -24 -8 -17 30 15 38 14 23 -4 -7 -8 -21 -15 -31 -15 -27 0 -24 -18 3
-22 29 -4 71 -66 63 -93 -4 -11 -6 -33 -6 -50 l1 -30 -30 33 c-19 20 -30 42
-29 60 1 27 1 27 8 3 4 -14 11 -26 17 -28 8 -3 8 6 0 31 -6 19 -12 33 -15 31
-2 -3 -9 3 -16 12 -11 15 -15 15 -43 -6 -17 -12 -47 -48 -67 -79 -21 -34 -51
-67 -75 -82 -23 -14 -59 -46 -81 -72 -22 -27 -44 -48 -50 -48 -28 0 5 43 131
171 77 78 140 146 140 151 0 5 -20 30 -44 56 -48 52 -65 96 -59 157 9 95 11
95 59 14 39 -65 44 -80 42 -124z m368 38 c2 -15 4 -66 4 -112 0 -65 -3 -88
-16 -103 -28 -30 -34 -21 -19 30 8 26 14 72 13 102 -1 43 -2 46 -5 15 -5 -63
-24 -145 -33 -145 -16 0 -32 71 -25 108 7 38 63 147 72 138 2 -2 6 -17 9 -33z
m-2305 -5 c-5 -13 -15 -23 -22 -23 -8 0 -30 -25 -50 -55 -54 -83 -55 -95 -6
-59 44 32 63 24 31 -12 -21 -23 -84 -52 -93 -44 -10 11 1 80 15 96 8 9 11 19
7 23 -11 10 67 78 83 72 7 -3 15 2 18 10 3 8 10 14 15 14 7 0 7 -9 2 -22z
m-11 -63 c0 -18 -7 -28 -26 -36 -36 -13 -40 -6 -14 30 26 38 40 39 40 6z
m2565 -149 c-15 -31 -30 -56 -35 -56 -11 0 -3 21 29 77 34 60 38 46 6 -21z
m-2735 -10 c0 -16 -14 -36 -25 -36 -8 0 -11 -7 -9 -17 6 -22 -25 -64 -32 -45
-8 18 -27 15 -20 -4 8 -21 -2 -56 -14 -49 -5 3 -7 13 -4 23 5 14 4 14 -4 3 -6
-8 -8 -30 -5 -50 4 -26 3 -33 -5 -26 -21 19 -17 70 8 106 38 53 110 115 110
95z m-80 -25 c0 -12 -41 -63 -47 -57 -7 7 26 66 37 66 6 0 10 -4 10 -9z m2522
-15 c13 -10 18 -29 19 -73 2 -69 -13 -101 -71 -157 -24 -24 -40 -49 -40 -63 0
-34 -14 -28 -33 15 -24 55 -22 119 8 178 22 45 60 82 72 71 8 -9 -35 -97 -47
-97 -7 0 -10 -6 -7 -12 2 -7 0 -21 -5 -32 -7 -13 -7 -17 3 -14 16 5 69 135 69
171 0 30 7 33 32 13z m222 -261 c4 -30 3 -45 -3 -40 -9 9 -15 51 -12 84 2 25
8 7 15 -44z m16 -88 c0 -5 -4 -5 -10 -2 -5 3 -10 14 -10 23 0 15 2 15 10 2 5
-8 10 -19 10 -23z m30 -81 c0 -8 3 -23 6 -33 5 -12 4 -15 -3 -8 -16 15 -26 55
-14 55 6 0 11 -6 11 -14z m59 -156 c0 -10 -3 -8 -9 5 -12 27 -12 43 0 25 5 -8
9 -22 9 -30z m1259 24 c68 -7 64 -27 -7 -36 -38 -4 -61 -14 -81 -33 -26 -25
-28 -26 -33 -6 -5 22 -31 28 -42 11 -5 -8 -115 64 -115 76 0 5 205 -4 278 -12z
m-2598 -15 c-7 -11 -14 -18 -17 -15 -8 8 5 36 17 36 7 0 7 -6 0 -21z m70 -40
c-14 -26 -18 -24 -12 6 2 14 8 22 13 19 5 -3 5 -14 -1 -25z m-28 -71 c-7 -7
-12 -8 -12 -2 0 14 12 26 19 19 2 -3 -1 -11 -7 -17z m2276 -20 c9 -9 15 -9 23
-1 9 9 18 8 36 -4 l24 -16 -23 -16 c-13 -9 -26 -15 -30 -14 -4 2 -9 -6 -13
-16 -6 -20 -33 -36 -43 -26 -3 3 -1 18 4 33 7 19 17 28 37 30 15 2 25 7 22 12
-3 5 -17 5 -32 -1 -27 -10 -58 4 -47 22 7 13 28 11 42 -3z m-58 -29 c0 -4 -8
-13 -17 -18 -23 -13 -8 -14 16 -1 15 8 17 6 13 -15 -5 -29 -5 -29 -49 -13 -38
14 -42 31 -12 52 21 14 49 12 49 -5z m-889 -179 c-25 -22 -48 -37 -53 -34 -4
3 -8 -1 -9 -8 0 -8 -2 -9 -5 -2 -3 6 5 29 18 49 12 21 24 33 26 26 2 -6 -2
-18 -8 -27 -7 -8 -10 -17 -7 -20 3 -3 13 8 23 25 16 28 42 43 54 33 3 -2 -15
-21 -39 -42z m-78 -80 c-3 -11 -9 -23 -14 -26 -10 -6 -12 29 -2 39 13 13 21 7
16 -13z m-946 -212 c-3 -8 -6 -5 -6 6 -1 11 2 17 5 13 3 -3 4 -12 1 -19z
m-113 -4 c9 -24 7 -28 -9 -14 -17 14 -20 30 -6 30 5 0 12 -7 15 -16z m216 -38
c0 -7 9 -24 19 -38 11 -13 23 -37 27 -53 l7 -29 -21 20 c-12 11 -29 43 -37 70
-18 59 -18 57 -5 49 6 -3 10 -12 10 -19z m130 -27 c0 -6 -4 -7 -10 -4 -5 3
-10 11 -10 16 0 6 5 7 10 4 6 -3 10 -11 10 -16z m-488 -34 c3 -14 3 -25 0 -25
-10 0 -42 43 -42 57 0 24 37 -4 42 -32z m937 -134 c-30 -44 -57 -81 -61 -81
-16 0 -7 40 10 49 9 5 35 34 57 64 59 82 55 60 -6 -32z m-246 44 c-7 -21 -13
-19 -13 6 0 11 4 18 10 14 5 -3 7 -12 3 -20z m-33 -26 c0 -6 -4 -7 -10 -4 -5
3 -10 11 -10 16 0 6 5 7 10 4 6 -3 10 -11 10 -16z m-30 -71 c6 -24 15 -52 20
-63 16 -37 17 -50 7 -70 -9 -17 -13 -7 -23 54 -7 41 -15 85 -19 98 -3 12 -3
23 -1 23 3 0 10 -19 16 -42z m27 20 c-3 -8 -6 -5 -6 6 -1 11 2 17 5 13 3 -3 4
-12 1 -19z m340 6 c-3 -3 -12 -4 -19 -1 -8 3 -5 6 6 6 11 1 17 -2 13 -5z
m-167 -14 c0 -5 -2 -10 -4 -10 -3 0 -8 5 -11 10 -3 6 -1 10 4 10 6 0 11 -4 11
-10z m300 -21 c0 -11 -3 -11 -24 -3 -23 9 -20 23 4 17 11 -3 20 -9 20 -14z
m-377 -36 c4 -18 3 -33 -2 -33 -10 0 -21 57 -13 65 7 7 8 5 15 -32z m-53 -19
c0 -14 -4 -22 -10 -19 -5 3 -10 17 -10 31 0 14 4 22 10 19 6 -3 10 -17 10 -31z
m-423 -16 c-3 -7 -5 -2 -5 12 0 14 2 19 5 13 2 -7 2 -19 0 -25z m70 -10 c-3
-8 -6 -5 -6 6 -1 11 2 17 5 13 3 -3 4 -12 1 -19z m436 -142 c3 -47 2 -75 -3
-70 -6 6 -12 57 -15 114 -5 121 9 85 18 -44z m14 122 c-3 -8 -6 -5 -6 6 -1 11
2 17 5 13 3 -3 4 -12 1 -19z m-100 -45 c-3 -10 -5 -2 -5 17 0 19 2 27 5 18 2
-10 2 -26 0 -35z m110 -35 c-3 -7 -5 -2 -5 12 0 14 2 19 5 13 2 -7 2 -19 0
-25z m-154 -73 l6 -70 -14 50 c-15 59 -19 113 -6 100 5 -6 11 -41 14 -80z m19
26 c2 -17 1 -28 -4 -25 -8 5 -12 54 -4 54 2 0 6 -13 8 -29z m49 15 c2 23 18
-35 18 -66 1 -61 -14 -67 -33 -11 -9 27 -16 60 -16 72 0 18 2 19 15 9 8 -7 15
-9 16 -4z m-132 -76 c0 -8 -7 1 -14 20 -18 46 -17 64 0 25 8 -16 14 -37 14
-45z m238 -1 c2 -54 1 -60 -9 -39 -6 14 -13 45 -15 69 -4 34 -2 42 8 39 10 -3
15 -25 16 -69z m-150 -1 c-3 -8 -6 -5 -6 6 -1 11 2 17 5 13 3 -3 4 -12 1 -19z
m973 -31 c0 -6 -9 -2 -20 8 -11 10 -20 23 -20 28 0 6 9 2 20 -8 11 -10 20 -23
20 -28z m-1534 -4 c-4 -4 -11 -1 -16 7 -16 25 -11 35 7 17 9 -9 13 -20 9 -24z
m42 -10 c12 -24 18 -43 13 -43 -10 0 -41 61 -41 81 0 16 2 13 28 -38z m38 12
c9 -20 14 -38 11 -41 -8 -8 -49 55 -42 66 10 15 13 13 31 -25z m1474 -36 c0
-6 -4 -7 -10 -4 -5 3 -10 11 -10 16 0 6 5 7 10 4 6 -3 10 -11 10 -16z m-783
-41 c-3 -7 -5 -2 -5 12 0 14 2 19 5 13 2 -7 2 -19 0 -25z m-657 -19 c0 -19
-16 -15 -33 7 l-18 24 26 -12 c14 -6 25 -15 25 -19z m581 -170 c13 -25 13
-291 0 -349 -5 -24 -10 24 -15 150 -8 208 -14 277 -27 302 -13 24 -11 67 4 82
10 11 13 -3 19 -75 4 -49 12 -99 19 -110z m-141 171 c0 -5 -2 -10 -4 -10 -3 0
-8 5 -11 10 -3 6 -1 10 4 10 6 0 11 -4 11 -10z m37 -47 c-3 -10 -5 -2 -5 17 0
19 2 27 5 18 2 -10 2 -26 0 -35z m130 -20 c-3 -10 -5 -2 -5 17 0 19 2 27 5 18
2 -10 2 -26 0 -35z m33 -22 c0 -27 -20 -47 -34 -34 -12 12 -6 33 10 33 10 0
14 6 10 15 -3 8 -1 15 4 15 6 0 10 -13 10 -29z m-527 -11 c3 -11 1 -23 -4 -26
-5 -3 -9 6 -9 20 0 31 6 34 13 6z m417 5 c0 -8 -2 -15 -4 -15 -2 0 -6 7 -10
15 -3 8 -1 15 4 15 6 0 10 -7 10 -15z m-30 -57 c0 -21 -4 -38 -10 -38 -5 0
-10 24 -10 53 0 37 3 48 10 37 5 -8 10 -32 10 -52z m-304 35 c18 -24 17 -33
-2 -33 -8 0 -13 4 -9 9 3 5 1 12 -5 16 -11 7 -14 25 -4 25 4 0 13 -8 20 -17z
m71 -19 c-3 -4 -3 -14 2 -23 13 -25 21 -81 13 -81 -7 0 -32 78 -32 100 0 6 5
10 12 10 6 0 8 -3 5 -6z m-130 -26 c-3 -8 -6 -5 -6 6 -1 11 2 17 5 13 3 -3 4
-12 1 -19z m320 -10 c-3 -8 -6 -5 -6 6 -1 11 2 17 5 13 3 -3 4 -12 1 -19z
m-257 -19 c0 -5 -4 -9 -10 -9 -5 0 -10 7 -10 16 0 8 5 12 10 9 6 -3 10 -10 10
-16z m-184 0 c3 -6 1 -16 -5 -22 -8 -8 -11 -8 -11 1 0 7 -7 12 -16 12 -8 0
-12 5 -9 10 8 13 32 13 41 -1z m230 -107 c6 -42 1 -62 -13 -48 -4 3 -8 22 -9
41 -2 19 -8 43 -14 54 -17 33 -11 47 10 21 11 -14 22 -44 26 -68z m287 18 c4
-16 4 -37 0 -47 -6 -15 -7 -15 -14 3 -11 27 -11 74 0 74 5 0 11 -13 14 -30z
m107 -42 c0 -21 -4 -38 -10 -38 -5 0 -10 -10 -10 -22 0 -12 -3 -19 -6 -15 -4
3 -3 36 1 73 7 71 25 72 25 2z m-593 -20 c-6 -51 -22 -82 -38 -72 -5 3 -2 16
7 29 9 13 15 39 14 57 -3 46 -2 50 11 42 7 -4 9 -24 6 -56z m-147 26 c0 -14
-12 -19 -23 -8 -9 9 4 35 14 28 5 -3 9 -12 9 -20z m1924 -31 c-9 -39 -15 -46
-26 -35 -5 5 -4 19 3 35 16 35 31 35 23 0z m166 8 c0 -5 9 -7 20 -4 14 4 20 0
20 -11 0 -17 -34 -56 -50 -56 -5 0 -7 -7 -4 -15 4 -8 2 -15 -4 -15 -6 0 -17
-3 -26 -6 -9 -3 -16 -1 -16 5 0 6 6 11 14 11 8 0 13 11 13 28 0 57 3 72 18 72
8 0 15 -4 15 -9z m-1980 -7 c0 -16 -23 -44 -35 -44 -19 0 -19 9 2 32 16 17 33
24 33 12z m1836 -49 c-1 -30 3 -45 11 -45 7 0 13 -7 13 -15 0 -23 -16 -18 -34
10 -12 18 -15 36 -10 60 9 50 22 43 20 -10z m-1297 -32 c0 -38 -4 -86 -9 -108
-6 -31 -8 -15 -7 68 0 59 4 107 9 107 4 0 8 -30 7 -67z m98 -40 c-3 -10 -5 -4
-5 12 0 17 2 24 5 18 2 -7 2 -21 0 -30z m-34 -15 c-8 -46 -13 -48 -13 -5 0 21
4 37 10 37 5 0 7 -14 3 -32z m1337 2 c-12 -22 -50 -27 -50 -7 0 20 10 27 37
27 21 0 22 -3 13 -20z m-1443 -12 c-3 -8 -6 -5 -6 6 -1 11 2 17 5 13 3 -3 4
-12 1 -19z m1243 7 c7 -8 18 -15 24 -15 6 0 17 -4 25 -9 11 -7 10 -14 -5 -40
-20 -35 -40 -40 -48 -13 -2 9 -4 4 -3 -13 1 -21 -3 -30 -13 -30 -11 0 -15 11
-15 41 l0 41 -25 -15 c-36 -23 -38 -26 -12 -19 18 4 22 1 22 -19 0 -39 -34
-26 -45 17 -5 21 0 31 30 57 41 36 48 38 65 17z m140 -31 c0 -4 -8 -13 -17
-20 -17 -12 -17 -14 2 -36 38 -43 61 -83 74 -126 20 -69 7 -58 -25 21 -22 55
-36 76 -59 87 -47 24 -36 74 18 79 4 1 7 -2 7 -5z m-1377 -166 c-3 -15 -12
-33 -19 -39 -12 -9 -14 -4 -14 28 0 22 5 55 12 74 l12 34 7 -35 c4 -19 5 -47
2 -62z m1340 42 c3 -11 1 -20 -4 -20 -5 0 -9 9 -9 20 0 11 2 20 4 20 2 0 6 -9
9 -20z m-1330 -117 c-26 -102 -44 -146 -50 -126 -3 7 7 43 20 80 14 37 28 87
32 111 4 23 10 40 15 37 4 -3 -3 -49 -17 -102z m-37 -19 c-4 -15 -14 -41 -22
-58 l-14 -31 6 30 c14 75 17 85 26 85 6 0 7 -11 4 -26z m69 -56 c-4 -29 -12
-57 -17 -63 -7 -7 -9 3 -4 30 3 22 6 50 6 63 0 12 5 22 11 22 7 0 9 -17 4 -52z"/>
<path d="M7768 2413 c6 -2 18 -2 25 0 6 3 1 5 -13 5 -14 0 -19 -2 -12 -5z"/>
<path d="M5270 5744 c-51 -43 -190 -268 -190 -307 0 -9 -12 -25 -27 -37 -25
-20 -34 -20 -192 -15 -91 3 -179 8 -196 12 -16 3 -55 7 -85 9 -159 12 -285 27
-301 37 -22 14 -90 -21 -199 -103 -41 -31 -96 -72 -121 -91 -26 -19 -74 -54
-107 -79 -34 -25 -61 -53 -61 -62 -1 -19 -31 -26 -31 -8 0 7 -37 10 -102 9
-120 -1 -286 14 -378 35 -36 8 -112 20 -169 26 -57 6 -114 16 -128 21 -13 5
-37 9 -52 9 -16 0 -34 7 -41 15 -14 16 -56 20 -64 6 -3 -5 7 -11 22 -14 15 -3
63 -15 107 -26 44 -11 94 -23 110 -27 l30 -6 -40 -35 c-22 -19 -64 -49 -92
-65 -54 -30 -69 -45 -59 -55 3 -3 13 2 22 12 10 9 36 28 58 43 23 14 64 42 92
63 50 38 51 38 119 33 39 -3 89 -12 112 -20 49 -17 94 -21 298 -31 137 -6 147
-7 115 -19 -29 -10 -31 -13 -11 -13 37 -1 101 21 101 35 0 7 9 18 21 24 11 6
45 34 75 61 30 27 60 49 67 49 7 0 40 26 74 58 74 69 107 93 153 111 43 17 61
17 175 1 50 -7 123 -12 164 -11 40 0 82 -4 92 -9 9 -6 91 -13 181 -16 90 -4
179 -7 198 -8 26 -1 45 6 72 29 21 16 38 35 38 41 0 16 26 72 53 114 12 19 36
57 52 84 17 26 45 68 63 92 17 23 32 45 32 48 0 13 -20 5 -50 -20z"/>
<path d="M4074 5284 c-27 -25 -78 -65 -114 -89 -36 -24 -81 -58 -100 -75 l-35
-32 40 23 c22 12 51 32 65 44 14 12 52 41 85 63 81 56 129 99 117 106 -5 3
-31 -15 -58 -40z"/>
<path d="M4974 5259 c-6 -11 8 -151 28 -267 14 -83 28 -62 22 33 -6 103 -27
245 -35 245 -4 0 -11 -5 -15 -11z"/>
<path d="M3600 5014 c-39 -28 -125 -79 -236 -139 -134 -73 -158 -87 -254 -148
-109 -69 -159 -113 -239 -211 -31 -38 -75 -92 -97 -120 -23 -28 -67 -78 -97
-111 l-55 -60 -7 40 c-15 91 -56 133 -102 106 -15 -9 -12 -10 13 -5 21 4 34 1
43 -10 11 -13 11 -17 -3 -22 -21 -8 -11 -24 15 -24 14 0 19 -6 17 -17 -1 -10
1 -24 5 -30 5 -8 3 -13 -3 -13 -7 0 -14 9 -17 20 -3 11 -9 20 -15 20 -5 0 -21
9 -37 21 -18 13 -38 19 -57 16 l-29 -4 31 -2 c17 0 37 -7 43 -14 9 -11 3 -17
-28 -27 -34 -11 -42 -10 -69 6 -17 10 -29 21 -26 25 7 11 65 39 83 40 12 0 13
2 2 6 -17 7 -111 -37 -111 -52 0 -16 75 -53 121 -60 21 -3 47 -17 63 -34 l28
-29 -35 1 c-65 2 -116 -51 -162 -168 -15 -38 -30 -94 -32 -123 -4 -49 -2 -55
28 -83 30 -28 33 -29 55 -14 23 15 24 14 24 -5 0 -19 1 -20 38 -5 62 25 105
80 141 180 25 68 32 101 28 133 -5 43 -4 43 22 38 21 -5 18 -2 -11 14 -45 24
-48 41 -12 65 14 9 23 19 20 23 -3 3 -17 -5 -31 -18 -14 -13 -27 -21 -30 -18
-3 3 36 51 87 106 51 55 120 133 153 173 120 147 163 182 382 312 61 36 144
83 184 103 40 20 96 53 123 73 28 21 59 40 69 44 9 3 17 11 17 17 0 13 1 13
-40 -16z m-1040 -760 c0 -8 9 -14 19 -14 22 0 35 -26 19 -36 -6 -4 -19 3 -29
15 -10 12 -32 28 -51 35 l-33 15 25 9 c27 11 50 -1 50 -24z m60 -74 c0 -5 -4
-10 -10 -10 -5 0 -10 5 -10 10 0 6 5 10 10 10 6 0 10 -4 10 -10z m0 -42 c0 -5
-27 -62 -60 -127 -33 -65 -60 -122 -60 -128 0 -14 -35 -44 -42 -37 -10 9 30
114 62 164 19 30 28 54 24 66 -5 15 -4 16 5 4 8 -12 13 -8 26 22 8 21 15 42
15 47 0 6 7 8 15 5 8 -4 15 -10 15 -16z m-139 -105 c-8 -15 -10 -15 -11 -2 0
17 10 32 18 25 2 -3 -1 -13 -7 -23z m120 -110 c-8 -15 -10 -15 -11 -2 0 17 10
32 18 25 2 -3 -1 -13 -7 -23z"/>
<path d="M8125 4740 c-33 -16 -69 -31 -79 -35 -10 -3 -16 -8 -12 -12 7 -8 143
45 152 59 12 19 -2 16 -61 -12z"/>
<path d="M3700 4720 c0 -15 23 -60 31 -60 4 0 14 -21 23 -47 9 -26 28 -60 43
-75 22 -23 24 -28 9 -28 -29 0 -92 -37 -121 -72 -43 -50 -65 -112 -65 -179 0
-50 4 -63 28 -88 25 -27 31 -29 82 -24 31 3 63 10 71 17 21 15 98 142 115 190
8 21 11 49 8 62 -9 35 14 30 34 -7 9 -17 25 -41 35 -54 21 -28 84 -52 99 -37
16 16 -16 77 -61 112 -22 18 -38 36 -36 40 3 4 27 10 54 12 27 3 62 14 79 26
16 12 37 22 46 22 31 0 16 16 -36 39 -96 42 -150 37 -211 -20 -30 -27 -13 -23
34 8 31 20 42 24 48 14 7 -10 12 -10 29 0 16 10 28 9 67 -6 l48 -18 -24 -18
c-34 -27 -67 -34 -111 -22 -31 8 -38 8 -38 -4 0 -12 -9 -13 -38 -8 -31 5 -41
2 -56 -14 -11 -12 -16 -29 -13 -41 4 -16 2 -20 -8 -16 -9 3 -12 0 -8 -10 3 -8
-3 -25 -14 -37 -33 -38 -69 -101 -81 -144 -7 -23 -18 -45 -24 -49 -8 -5 -9 -1
-4 12 4 10 10 34 13 53 6 30 65 142 98 181 7 8 15 30 18 47 6 29 3 35 -25 49
-29 15 -30 17 -14 30 10 7 25 10 34 7 14 -5 15 -3 5 8 -15 16 -17 69 -3 69 6
0 10 -10 10 -21 0 -23 25 -48 48 -49 9 0 7 8 -7 26 -12 15 -21 32 -21 39 0 7
-19 31 -41 54 -38 38 -45 41 -95 41 -30 0 -54 -4 -54 -10z m98 -46 c5 -47 -22
-51 -47 -8 -27 45 -27 46 12 42 28 -3 32 -7 35 -34z m41 -19 c4 -17 0 -35 -9
-35 -5 0 -10 12 -10 26 0 21 14 28 19 9z m-20 -54 c19 -27 20 -29 4 -35 -20
-8 -43 17 -43 46 0 26 16 22 39 -11z m148 -142 c13 -11 18 -39 7 -39 -3 0 -15
12 -26 26 -11 14 -26 23 -34 20 -7 -3 -16 0 -20 6 -9 14 53 3 73 -13z m63 -54
c8 -9 8 -15 2 -15 -6 0 -13 6 -16 13 -3 6 -4 -1 0 -18 5 -27 4 -29 -11 -14 -9
9 -13 23 -9 32 8 21 18 21 34 2z m30 -50 c0 -8 -4 -15 -9 -15 -13 0 -22 16
-14 24 11 11 23 6 23 -9z"/>
<path d="M2886 4634 c-26 -9 -46 -18 -43 -21 6 -5 107 25 107 33 0 6 -10 4
-64 -12z"/>
<path d="M2795 4600 c-8 -13 5 -13 25 0 13 8 13 10 -2 10 -9 0 -20 -4 -23 -10z"/>
<path d="M2730 4579 c-14 -6 -53 -17 -88 -25 -78 -18 -235 -74 -228 -82 3 -3
23 2 43 11 21 8 79 28 128 42 132 39 202 63 185 64 -8 0 -26 -5 -40 -10z"/>
<path d="M3980 4539 c-11 -8 -7 -9 18 -4 20 4 38 2 48 -6 8 -6 18 -9 21 -5 21
21 -59 34 -87 15z"/>
<path d="M5730 4421 c0 -12 5 -21 10 -21 6 0 10 6 10 14 0 8 -4 18 -10 21 -5
3 -10 -3 -10 -14z"/>
<path d="M5780 4371 c0 -5 5 -13 10 -16 6 -3 10 -2 10 4 0 5 -4 13 -10 16 -5
3 -10 2 -10 -4z"/>
<path d="M2710 4250 c-13 -8 -12 -10 3 -10 9 0 17 5 17 10 0 12 -1 12 -20 0z"/>
<path d="M2740 4252 c0 -8 70 -32 133 -46 49 -11 29 1 -47 28 -82 29 -86 30
-86 18z"/>
<path d="M4950 4240 c-12 -7 -13 -13 -3 -28 6 -11 12 -66 13 -128 1 -60 2
-113 2 -119 2 -40 -15 -248 -23 -284 -5 -24 -9 -60 -9 -80 5 -147 -3 -370 -14
-402 -10 -27 -11 -66 -6 -136 3 -54 5 -101 3 -106 -5 -9 -63 24 -63 35 0 4 -6
8 -13 8 -8 0 -22 9 -32 20 -30 33 -289 170 -321 170 -7 0 -35 13 -61 28 -59
34 -114 57 -213 87 -67 20 -87 22 -175 15 -59 -5 -121 -16 -150 -28 -27 -11
-70 -23 -95 -27 -25 -4 -57 -13 -71 -21 -15 -7 -58 -20 -97 -28 -77 -16 -144
-46 -176 -80 -11 -12 -50 -53 -85 -90 -68 -74 -75 -74 -86 -4 -9 51 -18 54
-49 17 -28 -32 -34 -77 -14 -97 16 -16 28 -15 28 3 0 8 -7 15 -15 15 -9 0 -15
9 -15 25 0 31 17 33 23 3 2 -14 5 -7 6 17 1 51 19 35 27 -27 6 -42 4 -49 -22
-73 l-28 -26 -27 44 c-33 54 -65 75 -116 78 -76 5 -80 -14 -18 -93 41 -52 43
-58 27 -70 -75 -56 -136 -206 -137 -333 0 -87 9 -121 37 -136 18 -10 24 -8 39
12 15 19 21 21 28 10 20 -30 66 1 143 97 5 8 19 48 30 90 23 90 18 222 -8 222
-8 0 -14 8 -14 18 0 15 9 18 51 19 56 2 82 13 30 13 -28 0 -30 2 -19 14 21 21
50 24 80 9 19 -9 26 -19 22 -31 -5 -16 -5 -16 6 1 12 18 50 24 50 7 0 -17 -59
-41 -85 -34 -20 5 -24 3 -19 -10 4 -10 1 -16 -9 -16 -8 0 -17 7 -21 15 -4 13
-9 13 -25 3 -52 -32 32 -39 100 -8 64 30 72 35 77 48 2 7 -2 14 -10 16 -7 2
-38 11 -70 21 -56 18 -56 18 -94 -5 -20 -13 -35 -19 -33 -13 2 6 61 70 131
142 126 131 127 132 205 157 312 99 385 117 481 121 85 4 101 2 180 -27 48
-17 112 -44 142 -59 30 -16 84 -39 119 -51 79 -28 220 -102 278 -146 23 -18
67 -47 98 -66 30 -18 55 -40 55 -48 0 -9 4 -20 8 -25 18 -22 35 -89 23 -93
-18 -6 -13 -19 11 -25 12 -4 19 -9 15 -13 -3 -4 6 -27 20 -53 15 -25 37 -66
51 -91 13 -25 56 -82 94 -127 39 -46 78 -98 87 -115 10 -18 35 -64 56 -101 26
-48 43 -96 56 -160 10 -51 23 -106 30 -122 11 -25 21 -74 53 -252 2 -12 8 -27
12 -34 4 -7 8 -40 9 -74 2 -34 10 -98 19 -141 10 -43 24 -113 33 -154 9 -41
20 -109 24 -150 13 -127 27 -202 38 -213 20 -20 24 22 8 91 -26 113 -31 178
-13 185 9 4 16 13 16 20 0 8 8 21 17 28 15 12 16 12 10 -6 l-7 -20 16 20 c32
40 36 55 17 55 -10 0 -31 -18 -46 -40 -16 -22 -32 -40 -36 -40 -13 0 -23 82
-12 93 13 13 26 -16 17 -38 -12 -31 4 -13 21 23 9 20 19 41 21 46 3 5 0 6 -6
2 -6 -4 -10 7 -9 29 1 19 4 30 8 24 4 -7 9 -5 12 6 4 9 3 13 -3 10 -6 -3 -10
2 -10 12 -1 12 -5 8 -14 -12 -8 -16 -21 -39 -29 -50 -15 -19 -16 -19 -23 -2
-3 10 -2 23 5 30 6 6 11 16 11 21 0 6 -4 4 -10 -4 -11 -17 -12 -15 -30 69 -8
34 -9 55 -3 60 11 7 43 65 43 78 0 4 -9 -7 -21 -26 -25 -42 -36 -32 -45 37 -5
40 -3 56 8 65 15 12 43 116 34 125 -3 2 -10 -16 -16 -39 -19 -76 -20 -76 -36
-54 -16 21 -13 81 8 141 7 19 8 42 3 60 -5 16 -10 36 -10 44 -1 8 -3 20 -4 25
-2 6 -3 25 -3 43 -1 32 -12 42 -22 20 -3 -7 -5 6 -3 30 1 23 0 42 -4 42 -19 0
-27 -134 -9 -145 6 -3 10 -18 10 -33 -1 -21 -5 -15 -23 28 -17 40 -21 64 -16
90 24 119 16 170 -10 60 -8 -38 -9 -30 -5 50 4 68 2 91 -5 80 -6 -8 -11 -37
-12 -65 l-1 -50 -14 30 c-8 18 -12 46 -9 70 3 22 1 54 -4 70 l-9 30 -1 -35
c-1 -19 -6 -42 -11 -50 -8 -11 -10 1 -9 45 1 86 0 95 -11 95 -5 0 -10 -21 -10
-47 -1 -44 -2 -47 -15 -29 -9 12 -15 43 -15 80 0 43 -3 57 -10 46 -5 -8 -10
-26 -10 -40 -1 -24 -1 -24 -15 -6 -8 11 -15 36 -15 55 0 20 -5 43 -10 51 -7
11 -10 7 -10 -17 0 -58 -20 -35 -22 25 -1 49 -2 51 -5 15 -2 -24 -8 -43 -13
-43 -12 0 -23 37 -15 50 8 13 -25 110 -38 110 -5 0 -6 -18 -2 -40 4 -26 3 -40
-4 -40 -16 0 -24 46 -18 106 5 50 -4 71 -17 42 -3 -7 -5 11 -3 40 1 38 -1 51
-10 47 -9 -3 -13 7 -13 30 0 19 -4 35 -10 35 -5 0 -10 -5 -10 -11 0 -5 -4 -8
-9 -5 -5 4 -5 23 0 47 6 25 6 46 1 53 -5 6 -9 41 -8 79 1 65 -5 84 -18 51 -4
-9 -9 -14 -12 -11 -4 3 4 22 16 41 12 20 17 36 11 36 -6 0 -11 -4 -11 -10 0
-5 -4 -10 -10 -10 -18 0 -11 17 20 50 23 24 28 36 20 45 -8 9 -8 15 0 20 5 3
10 14 10 23 -1 16 -2 16 -14 0 -7 -10 -16 -18 -20 -18 -14 0 -4 24 24 60 34
43 36 50 15 50 -8 0 -15 -5 -15 -11 0 -5 -5 -7 -10 -4 -7 4 -4 19 9 41 11 18
16 36 12 39 -5 3 -12 -2 -15 -11 -3 -8 -11 -12 -16 -9 -7 4 -3 19 11 41 12 19
19 38 15 41 -3 4 -6 1 -6 -5 0 -7 -4 -12 -10 -12 -17 0 -11 29 12 60 12 16 18
33 15 37 -4 3 -14 -2 -22 -13 -14 -19 -14 -19 -14 1 -1 11 8 31 19 45 19 25
26 50 14 50 -4 0 -13 -8 -20 -17 -12 -17 -13 -16 -14 6 0 13 11 36 25 53 25
30 33 58 16 58 -5 0 -11 -6 -14 -12 -2 -7 -7 -10 -11 -6 -4 3 0 18 10 32 9 15
18 45 20 67 3 35 2 39 -11 29 -13 -10 -15 -8 -15 13 0 13 7 30 15 37 8 7 15
18 15 25 0 7 -7 15 -15 19 -18 6 -20 61 -3 72 8 5 9 -2 5 -24 -6 -27 -4 -32
13 -32 13 0 17 5 14 14 -3 8 -1 24 5 35 10 17 9 20 -4 15 -17 -7 -21 21 -5 31
6 4 7 11 4 17 -4 6 -12 1 -20 -13 -19 -34 -17 -4 2 32 14 28 14 31 -8 49 -13
11 -19 19 -15 20 10 0 -11 40 -21 40 -4 0 -14 -5 -22 -10z m20 -990 c0 -5 -5
-10 -11 -10 -5 0 -7 5 -4 10 3 6 8 10 11 10 2 0 4 -4 4 -10z m-20 -189 c0 -6
-4 -13 -10 -16 -5 -3 -10 1 -10 9 0 9 5 16 10 16 6 0 10 -4 10 -9z m8 -41
c-11 -33 -28 -49 -28 -28 0 13 27 58 35 58 2 0 -1 -14 -7 -30z m-1832 -31 c35
-21 74 -75 74 -102 0 -22 -42 -32 -70 -17 -26 14 -22 32 11 41 13 4 18 7 12 8
-7 1 -23 17 -35 36 -13 19 -27 35 -32 35 -5 0 -3 -7 5 -16 10 -13 10 -17 -2
-26 -11 -8 -11 -9 3 -5 19 7 34 -21 19 -36 -7 -7 -18 -1 -33 18 -21 27 -48 72
-48 81 0 13 68 1 96 -17z m1839 -44 c-5 -29 -11 -43 -17 -37 -6 6 -5 25 2 52
15 54 24 45 15 -15z m25 -107 c0 -39 -11 -46 -17 -10 -3 18 5 52 13 52 2 0 4
-19 4 -42z m-1791 -33 c3 -16 1 -17 -12 -7 -8 7 -17 9 -19 5 -6 -11 -24 -78
-38 -138 -7 -27 -16 -59 -20 -70 -5 -11 -14 -48 -21 -83 -6 -35 -15 -59 -20
-55 -8 9 13 118 30 162 6 14 18 59 26 99 8 40 20 82 26 93 13 25 42 21 48 -6z
m1808 -57 c-2 -13 -4 -3 -4 22 0 25 2 35 4 23 2 -13 2 -33 0 -45z m-1857 -163
c0 -8 -4 -15 -10 -15 -5 0 -10 7 -10 15 0 8 5 15 10 15 6 0 10 -7 10 -15z
m2290 -690 c0 -8 -2 -15 -4 -15 -2 0 -6 7 -10 15 -3 8 -1 15 4 15 6 0 10 -7
10 -15z m111 -512 c-8 -15 -10 -15 -11 -2 0 17 10 32 18 25 2 -3 -1 -13 -7
-23z"/>
<path d="M5605 4240 c-3 -5 1 -10 9 -10 9 0 16 5 16 10 0 6 -4 10 -9 10 -6 0
-13 -4 -16 -10z"/>
<path d="M2927 4223 c-9 -2 -14 -9 -11 -15 4 -6 -4 -19 -17 -29 -13 -10 -19
-19 -13 -19 5 0 25 16 44 35 33 34 33 37 -3 28z"/>
<path d="M5550 4200 c0 -5 5 -10 10 -10 6 0 10 5 10 10 0 6 -4 10 -10 10 -5 0
-10 -4 -10 -10z"/>
<path d="M2710 4197 c0 -3 12 -12 26 -22 15 -9 23 -12 20 -6 -5 7 1 11 15 11
12 0 20 2 18 4 -6 6 -79 17 -79 13z"/>
<path d="M5526 4176 c3 -9 11 -16 16 -16 13 0 5 23 -10 28 -7 2 -10 -2 -6 -12z"/>
<path d="M5486 4158 c-20 -23 -9 -42 17 -32 18 6 23 39 9 48 -5 3 -16 -4 -26
-16z"/>
<path d="M5585 4160 c-3 -5 -1 -10 4 -10 6 0 11 5 11 10 0 6 -2 10 -4 10 -3 0
-8 -4 -11 -10z"/>
<path d="M5770 4115 c0 -8 5 -15 10 -15 6 0 10 7 10 15 0 8 -4 15 -10 15 -5 0
-10 -7 -10 -15z"/>
<path d="M5850 4110 c0 -5 5 -10 10 -10 6 0 10 5 10 10 0 6 -4 10 -10 10 -5 0
-10 -4 -10 -10z"/>
<path d="M5434 4088 c3 -13 6 -26 6 -30 0 -5 6 -8 13 -8 8 0 14 12 14 30 0 23
-5 30 -20 30 -15 0 -18 -5 -13 -22z"/>
<path d="M5632 4069 c2 -7 10 -15 17 -17 8 -3 12 1 9 9 -2 7 -10 15 -17 17 -8
3 -12 -1 -9 -9z"/>
<path d="M5702 4028 c7 -19 38 -22 38 -4 0 10 -9 16 -21 16 -12 0 -19 -5 -17
-12z"/>
<path d="M5530 4021 c0 -11 26 -22 34 -14 3 3 3 10 0 14 -7 12 -34 11 -34 0z"/>
<path d="M5807 4015 c-5 -10 0 -15 14 -15 12 0 19 5 17 12 -6 18 -25 20 -31 3z"/>
<path d="M3564 3997 c-8 -22 1 -57 40 -150 53 -128 49 -140 -25 -83 -24 18
-60 36 -79 40 -96 17 -96 17 -75 7 11 -4 38 -14 60 -21 22 -7 63 -28 92 -46
28 -19 54 -34 58 -34 10 0 88 -62 98 -77 5 -8 37 -31 72 -53 34 -22 85 -64
111 -93 55 -59 130 -117 153 -117 8 0 12 -3 8 -6 -3 -3 -43 -8 -89 -11 -45 -2
-87 -8 -93 -12 -5 -4 -29 -13 -51 -19 -45 -13 -161 -65 -129 -58 11 2 64 20
119 40 79 29 112 36 172 36 47 0 78 5 85 13 10 11 31 7 112 -20 55 -18 105
-33 111 -33 29 0 180 -66 461 -201 11 -5 40 -28 64 -50 24 -22 46 -37 50 -34
8 9 -87 93 -114 101 -11 3 -75 33 -142 65 -188 91 -231 109 -323 134 -47 13
-111 33 -142 44 -32 12 -66 21 -76 21 -28 0 -90 45 -141 101 -24 27 -78 75
-120 106 -150 114 -152 116 -183 205 -49 143 -58 172 -58 196 0 24 -18 30 -26
9z"/>
<path d="M5632 3948 c6 -18 28 -21 28 -4 0 9 -7 16 -16 16 -9 0 -14 -5 -12
-12z"/>
<path d="M5556 3913 c-11 -11 -6 -23 9 -23 8 0 15 4 15 9 0 13 -16 22 -24 14z"/>
<path d="M5730 3885 c0 -8 7 -15 15 -15 8 0 15 7 15 15 0 8 -7 15 -15 15 -8 0
-15 -7 -15 -15z"/>
<path d="M5645 3840 c-3 -6 1 -13 10 -16 19 -8 30 0 20 15 -8 14 -22 14 -30 1z"/>
<path d="M5853 3540 c7 -53 23 -73 48 -59 20 10 26 39 9 39 -5 0 -10 -4 -10
-10 0 -5 -4 -10 -9 -10 -5 0 -11 18 -15 40 -8 54 -30 54 -23 0z"/>
<path d="M6043 3548 c4 -12 2 -28 -4 -34 -7 -9 -4 -19 11 -34 31 -31 40 -16
22 40 -17 48 -40 72 -29 28z"/>
<path d="M5941 3528 c-2 -33 11 -48 40 -48 16 0 29 5 29 10 0 6 -8 10 -19 10
-10 0 -26 10 -34 23 -13 17 -16 19 -16 5z"/>
<path d="M6100 3444 c0 -33 2 -35 27 -32 30 3 47 38 19 38 -9 0 -16 4 -16 9 0
5 -7 11 -15 15 -12 4 -15 -3 -15 -30z"/>
<path d="M5996 3455 c-3 -9 0 -15 9 -15 16 0 20 16 6 24 -5 3 -11 -1 -15 -9z"/>
<path d="M6026 3431 c-4 -7 -5 -15 -2 -18 9 -9 19 4 14 18 -4 11 -6 11 -12 0z"/>
<path d="M6057 3426 c-6 -16 2 -28 14 -20 12 7 11 34 0 34 -5 0 -11 -6 -14
-14z"/>
<path d="M2900 3362 c0 -5 17 -14 38 -20 44 -13 242 -45 247 -40 13 13 -24 27
-117 46 -114 23 -168 27 -168 14z"/>
<path d="M3240 3294 c25 -8 68 -17 95 -19 l50 -4 -50 13 c-27 7 -70 15 -95 19
l-45 6 45 -15z"/>
<path d="M3435 3255 c65 -18 93 -18 35 1 -25 7 -54 13 -65 13 -11 0 3 -7 30
-14z"/>
<path d="M3650 3255 c-19 -7 -57 -15 -85 -16 -48 -2 -48 -3 -10 -6 40 -5 121
13 131 28 6 11 8 11 -36 -6z"/>
<path d="M5935 3261 c-3 -5 -1 -12 5 -16 5 -3 10 1 10 9 0 18 -6 21 -15 7z"/>
<path d="M6029 3270 c-11 -64 3 -109 27 -89 11 9 14 8 14 -5 0 -19 5 -20 31
-6 17 9 19 7 19 -16 0 -30 33 -89 54 -97 8 -3 29 5 47 19 18 13 38 24 45 24
15 0 26 27 14 35 -4 3 -10 0 -12 -7 -6 -18 -39 -1 -45 23 -9 31 -23 1 -16 -33
5 -23 2 -28 -15 -28 -20 0 -52 38 -52 64 0 7 7 16 15 20 8 3 15 1 15 -5 0 -20
20 3 21 24 0 12 3 17 5 10 3 -7 12 -9 20 -6 8 3 14 0 14 -6 0 -20 38 -12 45
10 10 29 -3 37 -14 8 -9 -23 -10 -23 -10 -3 -1 30 -71 40 -79 12 -6 -26 -27
-22 -52 10 -19 24 -20 25 -15 5 10 -37 -31 -30 -55 10 -11 17 -20 30 -21 27z"/>
<path d="M5770 3221 c0 -23 45 -79 55 -69 6 5 -42 88 -51 88 -2 0 -4 -9 -4
-19z"/>
<path d="M6310 3120 c0 -5 5 -10 10 -10 6 0 10 5 10 10 0 6 -4 10 -10 10 -5 0
-10 -4 -10 -10z"/>
<path d="M6060 3110 c0 -24 54 -85 68 -76 17 10 15 26 -5 33 -10 3 -28 18 -40
32 -16 18 -22 21 -23 11z"/>
<path d="M6050 3021 c0 -24 30 -69 50 -74 16 -4 20 0 20 18 0 30 -10 55 -21
55 -5 0 -9 -8 -9 -17 -1 -15 -4 -14 -20 6 -11 13 -20 18 -20 12z"/>
<path d="M5248 2674 c-15 -14 -8 -52 13 -75 11 -13 18 -18 14 -12 -3 7 -9 31
-13 54 -4 22 -10 37 -14 33z"/>
<path d="M7931 2572 c-17 -31 -13 -40 5 -14 9 13 14 26 11 29 -3 2 -10 -4 -16
-15z"/>
<path d="M5295 2520 c-3 -5 -2 -10 4 -10 5 0 13 5 16 10 3 6 2 10 -4 10 -5 0
-13 -4 -16 -10z"/>
<path d="M5316 2472 c-8 -14 29 -72 46 -72 6 0 4 8 -5 18 -9 9 -20 28 -25 41
-6 16 -11 20 -16 13z"/>
<path d="M5705 2343 c-4 -13 -11 -23 -16 -23 -4 0 -13 -17 -18 -37 -13 -47
-13 -53 -2 -53 6 0 11 15 13 33 2 19 8 31 15 30 14 -3 28 39 20 59 -4 8 -8 5
-12 -9z"/>
<path d="M5402 2320 c0 -14 2 -19 5 -12 2 6 2 18 0 25 -3 6 -5 1 -5 -13z"/>
<path d="M5441 2314 c-13 -29 -7 -30 18 -5 15 15 16 21 6 24 -7 3 -17 -5 -24
-19z"/>
<path d="M5505 2200 c-7 -11 12 -50 24 -50 4 0 6 14 3 30 -4 30 -16 39 -27 20z"/>
<path d="M5470 2129 c0 -17 26 -57 33 -49 2 3 -4 19 -14 35 -11 17 -19 23 -19
14z"/>
<path d="M5520 2036 c0 -15 18 -31 26 -23 7 7 -7 37 -17 37 -5 0 -9 -6 -9 -14z"/>
<path d="M5662 1975 c1 -23 4 -31 9 -23 12 18 11 46 -1 53 -5 3 -9 -9 -8 -30z"/>
<path d="M5500 1976 c0 -9 5 -16 10 -16 6 0 10 4 10 9 0 6 -4 13 -10 16 -5 3
-10 -1 -10 -9z"/>
<path d="M5544 1938 c-8 -12 21 -38 43 -38 10 0 10 6 -3 25 -18 27 -29 31 -40
13z"/>
<path d="M5470 1866 c-6 -31 -10 -62 -8 -68 3 -7 10 16 17 51 7 34 10 65 8 68
-3 2 -10 -21 -17 -51z"/>
<path d="M5566 1834 c-21 -21 -21 -21 14 -20 21 1 30 6 30 19 0 21 -23 22 -44
1z"/>
<path d="M5640 1806 c0 -15 18 -31 26 -23 7 7 -7 37 -17 37 -5 0 -9 -6 -9 -14z"/>
<path d="M5570 1784 c-24 -13 -24 -14 -4 -14 12 0 24 7 28 15 3 8 4 15 3 14
-1 -1 -13 -7 -27 -15z"/>
<path d="M5500 1729 c-6 -22 -14 -47 -17 -55 -3 -8 -1 -14 5 -14 5 0 13 10 17
23 17 58 22 87 14 87 -4 0 -13 -18 -19 -41z"/>
<path d="M5530 1684 c0 -8 5 -12 10 -9 6 3 10 10 10 16 0 5 -4 9 -10 9 -5 0
-10 -7 -10 -16z"/>
<path d="M5554 1647 c-45 -70 -55 -89 -50 -95 8 -7 7 -8 44 62 35 66 38 83 6
33z"/>
<path d="M5562 1585 c-18 -25 -32 -47 -32 -49 0 -8 80 37 92 52 12 15 10 15
-14 -1 -38 -24 -43 -21 -23 9 29 45 10 36 -23 -11z"/>
<path d="M5710 1620 c0 -5 5 -10 11 -10 5 0 7 5 4 10 -3 6 -8 10 -11 10 -2 0
-4 -4 -4 -10z"/>
<path d="M5755 1560 c4 -6 11 -8 16 -5 14 9 11 15 -7 15 -8 0 -12 -5 -9 -10z"/>
<path d="M5630 1483 c0 -20 -8 -40 -22 -53 -12 -11 -17 -20 -11 -20 25 0 57
68 42 91 -6 10 -9 5 -9 -18z"/>
<path d="M5513 1491 c5 -22 24 -24 31 -5 5 14 4 15 -8 5 -11 -9 -15 -9 -20 1
-4 9 -5 9 -3 -1z"/>
<path d="M5665 1430 c-10 -16 22 -47 34 -35 5 6 2 17 -9 28 -13 13 -20 15 -25
7z"/>
<path d="M5750 1352 c0 -12 19 -26 26 -19 2 2 -2 10 -11 17 -9 8 -15 8 -15 2z"/>
<path d="M5800 1342 c0 -5 7 -16 16 -23 14 -12 16 -11 13 5 -4 20 -29 35 -29
18z"/>
<path d="M5722 1298 c-16 -16 -15 -35 2 -41 11 -4 14 2 14 24 -1 33 0 33 -16
17z"/>
<path d="M6145 1245 c7 -58 -5 -73 -26 -33 l-12 22 -10 -24 -9 -25 -11 23
c-11 24 -22 28 -32 11 -4 -6 3 -21 15 -34 18 -19 29 -23 54 -18 17 3 36 12 42
19 15 18 24 18 24 -1 0 -8 6 -15 14 -15 20 0 15 21 -12 48 -13 13 -22 34 -22
52 0 17 -5 30 -11 30 -8 0 -9 -17 -4 -55z"/>
<path d="M5605 1260 c-4 -6 -11 -7 -17 -4 -7 5 -8 2 -3 -6 4 -7 2 -16 -6 -21
-8 -5 -9 -9 -3 -9 6 0 21 11 34 25 13 14 18 25 12 25 -6 0 -14 -5 -17 -10z"/>
<path d="M5770 1240 c0 -5 5 -10 10 -10 6 0 10 5 10 10 0 6 -4 10 -10 10 -5 0
-10 -4 -10 -10z"/>
<path d="M5601 1193 c-22 -26 -38 -49 -36 -52 3 -2 6 -2 8 0 1 2 20 25 41 52
48 61 40 61 -13 0z"/>
<path d="M5740 1191 c0 -6 5 -13 10 -16 6 -3 10 1 10 9 0 9 -4 16 -10 16 -5 0
-10 -4 -10 -9z"/>
<path d="M5995 1151 c8 -39 -10 -48 -32 -15 l-17 27 -12 -34 -12 -34 -12 33
c-9 24 -16 30 -23 23 -8 -8 -6 -21 7 -46 21 -39 46 -46 46 -15 0 18 3 19 21
10 33 -18 49 -5 49 40 0 22 -5 40 -11 40 -7 0 -8 -11 -4 -29z"/>
<path d="M5614 1135 c-9 -14 -14 -28 -11 -31 3 -3 12 9 20 25 19 38 14 40 -9
6z"/>
<path d="M6030 1120 c0 -5 5 -10 11 -10 5 0 7 5 4 10 -3 6 -8 10 -11 10 -2 0
-4 -4 -4 -10z"/>
<path d="M5770 1109 c-19 -4 -42 -6 -52 -3 -20 6 -33 -12 -14 -19 8 -3 24 -3
35 0 19 5 21 1 21 -46 0 -38 4 -51 15 -51 11 0 13 8 8 31 -8 43 18 35 31 -9 6
-17 16 -34 23 -36 18 -7 16 8 -7 50 l-21 36 26 20 c14 10 25 24 25 29 0 11
-42 10 -90 -2z m58 -11 c-5 -16 -48 -24 -48 -9 0 8 17 16 43 20 5 0 7 -5 5
-11z"/>
<path d="M5605 1079 c-4 -6 -5 -12 -2 -15 2 -3 7 2 10 11 7 17 1 20 -8 4z"/>
<path d="M5658 1079 c-25 -14 -11 -39 23 -39 16 0 29 4 29 9 0 5 -8 8 -17 7
-11 0 -17 6 -17 17 1 9 1 17 0 17 0 0 -9 -5 -18 -11z"/>
<path d="M5850 1050 c0 -5 7 -10 16 -10 8 0 12 5 9 10 -3 6 -10 10 -16 10 -5
0 -9 -4 -9 -10z"/>
<path d="M5620 1025 c-8 -9 -8 -15 -2 -15 12 0 26 19 19 26 -2 2 -10 -2 -17
-11z"/>
<path d="M2725 780 c-16 -6 -41 -19 -55 -29 -24 -19 -24 -19 -5 -41 19 -21 20
-38 21 -280 1 -142 4 -263 8 -269 12 -18 74 -13 95 8 14 14 20 39 25 107 3 49
4 100 3 114 -2 24 1 25 49 25 84 0 106 33 119 171 8 90 -18 152 -73 178 -42
21 -146 29 -187 16z m188 -40 c42 -33 56 -99 42 -200 -2 -14 -4 -33 -4 -42 -2
-36 -38 -58 -91 -56 -28 1 -55 -3 -61 -9 -8 -8 -11 -48 -10 -117 2 -114 -8
-146 -46 -146 l-22 0 2 264 c2 244 1 265 -16 284 -31 34 -13 42 87 42 78 0 97
-3 119 -20z"/>
<path d="M2787 712 c-25 -3 -27 -6 -21 -41 3 -20 7 -55 8 -77 5 -68 5 -71 29
-81 24 -11 83 -1 100 16 6 6 13 39 15 74 3 55 1 64 -20 83 -25 23 -66 33 -111
26z m99 -40 c35 -46 7 -142 -42 -142 -12 0 -26 4 -29 10 -8 12 -13 149 -6 156
11 10 64 -6 77 -24z"/>
<path d="M1198 739 c-22 -12 -23 -47 -3 -75 12 -17 29 -23 95 -28 l81 -7 -5
-220 -5 -219 23 -15 c33 -22 89 -28 82 -9 -3 8 -2 14 2 14 7 0 15 164 16 342
l1 107 70 8 70 8 3 37 c2 27 -1 39 -15 46 -10 5 -94 12 -188 14 -152 5 -165 4
-125 -8 30 -9 82 -12 159 -9 65 2 122 0 133 -6 24 -13 24 -59 1 -60 -58 -3
-127 -10 -129 -12 -1 -1 -4 -102 -6 -225 l-3 -222 -31 0 -31 0 2 240 c1 133
-2 243 -7 246 -4 3 -8 -5 -8 -17 0 -19 -4 -21 -37 -15 -21 3 -52 6 -70 6 -57
0 -88 61 -40 80 20 8 20 9 2 9 -11 0 -28 -4 -37 -10z"/>
<path d="M5827 726 c-10 -10 -18 -11 -25 -4 -20 20 -24 -13 -4 -35 43 -46 46
-79 27 -307 -22 -248 -21 -250 45 -250 66 0 74 19 67 165 -6 116 -5 125 13
135 35 19 70 12 81 -16 5 -15 7 -34 4 -43 -2 -9 -5 -63 -6 -120 -2 -96 0 -106
20 -122 17 -14 28 -16 53 -8 17 5 36 14 40 21 13 19 -1 274 -18 321 -24 68
-38 77 -116 77 -37 0 -68 3 -68 8 1 4 5 27 9 51 13 65 -3 109 -44 127 -43 18
-60 18 -78 0z m87 -32 c12 -12 14 -29 10 -80 -7 -82 1 -93 72 -93 32 0 65 -6
77 -14 30 -20 45 -85 53 -234 7 -119 6 -123 -13 -123 -39 0 -46 24 -44 151 2
149 -3 159 -72 159 -82 0 -82 0 -82 -149 0 -108 -3 -133 -17 -147 -19 -20 -43
-13 -50 13 -2 10 2 79 9 153 18 173 13 316 -12 353 l-17 27 35 0 c20 0 43 -7
51 -16z"/>
<path d="M7029 736 c-2 -3 -99 -6 -214 -8 -194 -3 -211 -4 -233 -23 -21 -18
-23 -26 -17 -68 9 -59 29 -72 101 -63 47 5 57 3 75 -15 21 -21 22 -27 15 -163
-3 -78 -9 -166 -12 -198 -6 -56 -6 -56 26 -73 30 -16 34 -15 78 7 l47 23 0
220 c0 246 -3 236 72 216 71 -20 130 31 114 98 -6 23 -43 56 -52 47z m19 -74
c3 -36 0 -43 -21 -51 -14 -6 -41 -5 -70 2 -42 9 -51 8 -75 -10 -21 -16 -27
-28 -26 -54 8 -192 9 -380 4 -389 -4 -6 -22 -10 -41 -8 l-34 3 0 55 c1 30 4
119 7 197 7 133 6 143 -13 167 -19 24 -26 26 -89 24 -38 -2 -71 0 -75 4 -4 4
-10 27 -12 52 l-5 45 73 3 c41 2 142 3 224 3 l150 0 3 -43z"/>
<path d="M1676 713 c5 -10 9 -135 9 -278 l0 -259 29 -10 c24 -9 31 -7 45 10
13 16 16 44 16 142 0 74 4 122 10 123 6 0 25 2 43 5 28 3 34 0 43 -24 7 -17 8
-51 3 -92 -11 -94 -9 -118 11 -140 21 -23 67 -26 84 -6 8 9 12 62 13 151 0
131 -1 139 -24 161 -15 15 -45 28 -83 35 -86 17 -89 20 -81 106 8 84 0 93 -79
93 -41 0 -46 -2 -39 -17z m90 -57 c-8 -72 2 -116 28 -126 12 -4 46 -13 78 -20
49 -10 58 -15 72 -45 11 -23 15 -49 11 -82 -3 -26 -7 -76 -9 -111 -4 -66 -8
-78 -25 -67 -7 4 -10 46 -10 109 1 109 -8 140 -46 150 -33 9 -93 7 -100 -4 -7
-11 -14 -109 -15 -207 0 -48 -3 -63 -15 -63 -29 0 -38 40 -31 144 3 56 9 163
12 239 l7 137 25 0 c24 0 25 -1 18 -54z"/>
<path d="M5505 709 c-22 -4 -82 -7 -133 -6 -89 1 -95 0 -113 -23 -21 -28 -24
-71 -8 -101 9 -18 20 -20 85 -18 80 2 105 -9 105 -47 1 -28 -10 -220 -16 -284
-7 -68 5 -86 61 -95 49 -8 83 15 89 60 5 38 8 325 3 344 -5 23 42 41 94 36 42
-3 50 -1 68 22 22 29 26 75 8 91 -16 13 -121 32 -167 31 -20 -1 -54 -5 -76
-10z m171 -30 c51 -13 58 -21 50 -55 -6 -22 -11 -24 -72 -24 -55 0 -69 -4 -88
-23 -23 -23 -24 -29 -25 -212 -1 -210 -5 -226 -54 -204 l-27 12 5 101 c3 56 8
134 10 174 5 77 -9 124 -39 135 -9 4 -45 4 -80 0 l-65 -6 -6 37 c-12 59 -6 64
77 61 40 -1 91 1 113 5 61 12 151 11 201 -1z"/>
<path d="M4400 588 c-14 -5 -65 -8 -115 -7 -90 3 -145 -5 -145 -22 0 -5 11
-11 25 -15 20 -5 28 -17 41 -62 16 -54 14 -108 -12 -263 -7 -43 14 -69 56 -69
48 0 55 26 55 192 l0 147 49 7 c36 4 51 3 58 -7 5 -8 6 -80 3 -166 l-6 -152
25 -16 c13 -9 37 -15 53 -13 l28 3 1 202 c1 186 0 203 -18 222 -10 12 -24 21
-31 22 -7 0 -19 2 -27 3 -8 2 -26 -1 -40 -6z m-80 -31 c25 0 66 4 91 8 44 7
48 5 64 -19 15 -23 17 -40 10 -124 -9 -122 -9 -106 -1 -185 6 -57 5 -67 -8
-67 -30 0 -38 37 -31 155 9 167 -10 218 -71 195 -14 -6 -41 -10 -60 -10 l-34
0 0 -139 c0 -154 -6 -201 -26 -201 -27 0 -34 36 -23 121 15 106 8 223 -15 247
-25 28 -19 35 22 27 20 -5 57 -8 82 -8z"/>
<path d="M7797 578 c-74 -20 -104 -92 -108 -267 -3 -110 17 -149 89 -175 46
-16 58 -17 92 -6 43 14 47 19 56 87 5 41 3 51 -16 68 -25 23 -47 13 -68 -28
-16 -33 -35 -34 -50 -3 -16 36 0 191 23 216 21 23 35 26 35 6 0 -22 28 -39 55
-32 55 14 34 105 -30 132 -19 8 -36 14 -37 13 -2 -1 -20 -6 -41 -11z m95 -45
c15 -15 28 -35 28 -44 0 -20 -22 -38 -27 -22 -2 6 -10 19 -18 29 -13 18 -15
18 -48 1 -44 -24 -57 -62 -57 -169 0 -88 11 -118 45 -118 15 0 55 38 55 52 0
4 9 8 20 8 16 0 20 -7 20 -30 0 -46 -26 -90 -53 -90 -42 1 -105 37 -123 71
-23 46 -15 242 12 288 32 55 102 66 146 24z"/>
<path d="M3875 573 c-16 -3 -38 -12 -47 -21 -9 -10 -24 -23 -32 -30 -35 -28
15 -58 78 -47 20 4 47 1 69 -9 31 -13 37 -20 37 -45 0 -36 -8 -38 -52 -11 -43
26 -66 25 -110 -5 -44 -30 -63 -85 -54 -155 11 -81 89 -116 168 -77 37 19 41
19 50 4 20 -36 103 -14 129 35 9 17 7 24 -16 42 -29 23 -29 29 -25 183 1 23
-6 55 -14 71 -24 46 -107 75 -181 65z m111 -48 c40 -31 51 -67 48 -160 -2 -72
12 -117 41 -128 39 -15 2 -57 -50 -57 -48 0 -61 72 -34 193 20 85 -9 120 -101
126 -53 3 -68 14 -50 36 21 26 107 20 146 -10z m-53 -130 c41 -28 40 -27 31
-50 -6 -14 -8 -14 -23 -1 -29 26 -64 29 -89 6 -54 -51 5 -150 67 -111 18 12
41 3 41 -15 0 -17 -45 -47 -62 -42 -8 3 -1 11 17 21 21 11 25 16 12 17 -10 0
-31 -9 -46 -21 -23 -17 -33 -19 -49 -10 -25 13 -42 61 -42 119 0 38 5 49 36
78 43 41 58 42 107 9z m-9 -66 c62 -36 44 -78 -32 -79 -28 0 -47 38 -38 74 8
31 24 33 70 5z"/>
<path d="M7356 565 c-8 -8 -19 -15 -25 -15 -17 0 -13 -19 9 -47 18 -23 19 -38
16 -167 -1 -77 -1 -148 1 -157 8 -31 54 -47 123 -43 88 5 102 10 125 41 16 23
21 52 27 173 8 162 6 190 -23 216 -18 17 -21 17 -36 1 -15 -14 -17 -40 -18
-155 -2 -176 -16 -206 -77 -155 -15 13 -16 31 -11 139 l5 123 -30 31 c-33 33
-62 38 -86 15z m58 -31 c25 -24 29 -56 23 -170 -5 -98 -4 -106 17 -131 19 -22
27 -25 59 -19 54 10 61 31 61 188 1 75 5 140 9 144 21 21 28 -30 25 -171 -3
-138 -6 -154 -27 -183 -21 -30 -26 -32 -85 -32 -99 0 -100 1 -107 187 -4 87
-10 168 -14 181 -9 27 15 31 39 6z"/>
<path d="M8090 568 c-83 -24 -116 -82 -70 -123 21 -19 35 -16 83 17 16 11 22
9 48 -20 18 -20 29 -43 29 -62 0 -35 -10 -38 -35 -10 -40 44 -122 32 -158 -24
-24 -36 -31 -100 -17 -150 10 -36 18 -47 43 -55 40 -15 67 -14 99 3 22 12 29
12 35 2 23 -38 92 -40 118 -3 12 17 12 24 -2 50 -15 30 -14 92 3 196 16 98
-35 192 -105 190 -20 0 -52 -5 -71 -11z m110 -40 c35 -38 51 -128 30 -168 -15
-28 -17 -157 -2 -172 23 -23 14 -48 -16 -48 -48 0 -64 27 -52 88 5 28 16 67
25 88 23 56 19 96 -15 142 -34 48 -62 53 -96 21 -38 -36 -71 -8 -40 33 32 42
132 52 166 16z m-99 -156 c8 -4 28 -17 43 -29 38 -30 24 -48 -17 -23 -57 35
-81 23 -93 -46 -8 -50 12 -74 61 -74 51 0 53 -27 4 -42 -49 -14 -66 -6 -92 43
-43 83 22 202 94 171z m16 -74 c15 -7 30 -13 31 -14 2 -2 -1 -18 -7 -37 -9
-27 -17 -34 -34 -32 -12 1 -27 3 -34 4 -18 2 -25 35 -14 65 12 29 18 31 58 14z"/>
<path d="M8536 573 c-4 -4 -54 -8 -111 -8 -57 0 -107 -3 -111 -7 -3 -4 8 -24
25 -44 33 -36 33 -37 26 -118 -4 -44 -8 -119 -8 -166 -2 -82 -1 -84 24 -94 40
-14 77 0 86 32 7 25 8 222 1 286 -3 27 0 31 36 38 65 14 70 3 61 -132 -5 -63
-8 -130 -8 -148 0 -37 25 -68 63 -76 38 -9 54 7 52 51 -3 68 -3 146 0 229 3
91 -9 127 -54 150 -29 15 -70 19 -82 7z m-90 -34 c5 -2 37 0 72 4 51 7 68 5
92 -10 34 -20 32 -8 34 -215 1 -111 -2 -158 -10 -158 -35 0 -43 63 -30 230 7
89 6 97 -13 114 -17 15 -30 17 -75 12 -69 -9 -81 -22 -71 -84 6 -38 8 -137 5
-254 0 -20 -38 -34 -52 -20 -5 5 -10 92 -11 202 l-2 192 26 -6 c14 -2 29 -6
35 -7z"/>
<path d="M3149 550 c-58 -31 -84 -95 -82 -198 2 -101 20 -137 83 -170 34 -18
56 -22 93 -19 60 5 91 34 109 100 11 44 11 49 -9 68 -19 19 -25 20 -57 9 -29
-9 -36 -17 -36 -38 -1 -64 -44 -69 -73 -9 -27 57 -12 77 59 77 54 0 92 12 106
34 22 32 -5 126 -41 146 -41 22 -113 22 -152 0z m146 -23 c20 -16 28 -35 32
-68 7 -58 -4 -67 -96 -75 -62 -6 -74 -10 -83 -29 -8 -17 -5 -31 10 -62 29 -55
45 -67 79 -56 20 7 30 19 36 46 10 40 34 55 55 33 13 -12 13 -22 2 -60 -15
-54 -23 -62 -70 -68 -53 -8 -97 9 -127 49 -26 34 -28 43 -28 127 0 108 15 153
59 172 48 21 101 17 131 -9z"/>
<path d="M3166 484 c-14 -15 -26 -33 -26 -40 0 -18 59 -27 111 -17 38 8 44 12
41 33 -4 36 -21 50 -62 50 -27 0 -45 -7 -64 -26z m95 6 c42 -23 17 -50 -46
-50 -42 0 -53 15 -29 41 19 21 45 24 75 9z"/>
<path d="M3514 559 c-63 -18 -96 -85 -95 -195 1 -110 57 -188 143 -198 61 -7
135 47 150 110 13 55 -48 73 -96 29 -15 -14 -34 -25 -42 -25 -31 0 -58 112
-40 167 11 34 52 40 81 13 26 -24 52 -24 68 1 18 29 0 64 -46 87 -47 23 -73
26 -123 11z m123 -31 c18 -13 33 -31 33 -40 0 -21 -7 -22 -40 -3 -39 22 -74
18 -104 -12 -33 -33 -40 -60 -31 -120 5 -32 16 -55 36 -75 34 -35 61 -31 100
13 19 22 28 26 37 17 20 -20 13 -51 -19 -86 -34 -36 -63 -40 -115 -16 -49 24
-76 76 -82 161 -6 90 1 119 40 155 39 36 97 38 145 6z"/>
<path d="M7111 553 c-45 -23 -80 -78 -91 -149 -18 -107 -10 -177 26 -238 18
-30 92 -27 142 7 50 33 62 68 68 195 5 109 -10 152 -60 183 -37 23 -42 23 -85
2z m78 -24 c13 -12 29 -37 37 -55 29 -69 9 -239 -33 -277 -46 -41 -111 -29
-134 25 -16 38 -15 166 1 226 18 63 44 89 101 101 3 0 16 -9 28 -20z"/>
<path d="M7116 461 c-33 -36 -48 -149 -27 -204 23 -60 90 -38 111 37 18 67 7
136 -27 163 -34 28 -36 28 -57 4z m57 -28 c11 -25 13 -52 8 -134 0 -14 -7 -34
-15 -44 -14 -19 -14 -19 -36 0 -20 18 -21 26 -15 95 3 41 9 83 11 93 8 26 32
21 47 -10z"/>
<path d="M6311 548 c-46 -13 -87 -45 -103 -82 -17 -40 -16 -233 2 -275 17 -41
52 -62 113 -66 52 -4 126 19 142 45 11 18 13 114 2 128 -23 29 -93 1 -99 -40
-6 -45 -54 -31 -63 17 -8 45 6 58 69 63 71 6 101 36 91 91 -18 94 -76 139
-154 119z m92 -44 c45 -52 55 -128 18 -138 -9 -2 -44 -8 -78 -11 l-63 -7 0
-47 c0 -61 21 -91 64 -91 26 0 35 6 45 27 26 54 28 58 42 58 10 0 14 -15 14
-59 -1 -71 -16 -86 -90 -86 -95 0 -123 41 -127 189 -2 114 9 141 73 173 47 25
75 22 102 -8z"/>
<path d="M6309 480 c-22 -13 -44 -69 -33 -80 13 -13 122 0 128 15 3 8 1 26 -3
42 -6 23 -13 28 -42 30 -19 2 -41 -1 -50 -7z m71 -35 c0 -18 -7 -24 -37 -28
-20 -4 -39 -5 -41 -2 -10 9 12 47 31 54 30 11 47 3 47 -24z"/>
<path d="M2148 529 c-21 -10 -42 -27 -47 -37 -57 -107 -43 -252 30 -305 42
-30 108 -34 142 -7 60 47 68 119 16 135 -18 6 -28 1 -45 -19 -28 -31 -59 -34
-74 -5 -21 37 -9 50 47 53 65 4 100 26 108 68 8 45 -18 104 -55 123 -39 20
-77 18 -122 -6z m126 -21 c26 -30 34 -109 13 -126 -9 -7 -44 -14 -79 -15 l-63
-2 -3 -32 c-4 -44 12 -70 49 -78 25 -6 36 -2 59 20 16 15 33 24 39 21 20 -13
12 -62 -15 -89 -21 -21 -32 -25 -62 -20 -71 10 -112 84 -107 193 1 36 8 78 15
93 27 56 118 77 154 35z"/>
<path d="M2186 489 c-33 -26 -48 -59 -34 -76 14 -18 103 -17 117 1 16 19 4 63
-22 81 -27 19 -29 19 -61 -6z m62 -11 c7 -7 12 -23 12 -36 0 -21 -4 -23 -42
-20 -48 4 -58 18 -29 47 24 24 42 26 59 9z"/>
<path d="M8743 238 c-6 -7 -14 -30 -18 -50 -7 -34 -5 -39 20 -48 41 -15 92
-13 99 6 10 25 7 59 -6 76 -18 23 -81 33 -95 16z m57 -22 c6 -8 10 -25 8 -38
-4 -32 -42 -32 -46 0 -7 46 14 66 38 38z"/>
<path d="M4610 201 c-6 -16 -9 -39 -5 -50 7 -22 50 -35 86 -26 20 5 25 13 27
46 3 42 1 43 -59 53 -33 6 -37 4 -49 -23z m84 -17 c12 -31 6 -44 -18 -44 -25
0 -43 30 -31 50 10 16 42 12 49 -6z"/>
</g>
</svg>
