<?xml version="1.0" standalone="no"?>
<!DOCTYPE svg PUBLIC "-//W3C//DTD SVG 20010904//EN"
 "http://www.w3.org/TR/2001/REC-SVG-20010904/DTD/svg10.dtd">
<svg version="1.0" xmlns="http://www.w3.org/2000/svg"
 width="1000.000000pt" height="707.000000pt" viewBox="0 0 1000.000000 707.000000"
 preserveAspectRatio="xMidYMid meet">
<metadata>
Created by potrace 1.16, written by Peter Selinger 2001-2019
</metadata>
<g transform="translate(0.000000,707.000000) scale(0.100000,-0.100000)"
fill="#000000" stroke="none">
<path d="M7803 7033 c-13 -2 -23 -8 -23 -13 0 -9 118 -1 139 10 15 8 -79 10
-116 3z"/>
<path d="M8630 6980 c-10 -7 6 -9 53 -6 37 1 70 6 74 9 10 11 -111 8 -127 -3z"/>
<path d="M6468 6913 c-73 -4 -96 -24 -25 -22 45 1 155 15 147 18 -12 6 -59 7
-122 4z"/>
<path d="M9325 6889 c-3 -4 -2 -10 3 -13 11 -7 52 4 52 14 0 10 -49 10 -55 -1z"/>
<path d="M7475 6800 c-101 -18 -237 -51 -296 -71 -232 -80 -339 -170 -482
-408 -163 -269 -229 -470 -242 -736 -14 -274 -9 -317 71 -552 82 -240 79 -332
-10 -349 -18 -3 -51 1 -76 10 -60 21 -104 20 -176 -4 -115 -39 -163 -111 -114
-173 21 -27 57 -36 75 -18 6 5 33 19 61 29 87 35 146 11 232 -92 12 -15 22
-36 22 -46 0 -19 17 -36 26 -27 10 10 -41 120 -62 134 -13 8 -26 28 -29 45 -5
23 -9 27 -16 17 -12 -19 -41 0 -50 32 -7 24 -7 24 -8 2 -1 -13 -6 -23 -11 -23
-6 0 -15 10 -20 23 l-9 22 0 -22 c-1 -13 -7 -23 -14 -23 -8 0 -19 10 -26 23
-11 21 -11 21 -8 -6 4 -26 4 -27 -14 -11 -18 16 -19 16 -19 -1 0 -17 -1 -17
-20 0 -11 10 -20 13 -20 7 0 -6 5 -14 10 -17 6 -3 10 -11 10 -17 0 -6 -19 9
-41 32 l-42 43 24 18 c13 10 32 19 41 19 9 0 19 4 23 9 12 20 112 24 165 6 59
-20 122 -16 149 9 13 12 20 38 24 94 7 82 10 70 -74 302 -38 106 -58 189 -47
196 6 4 16 0 22 -8 6 -9 32 -18 56 -22 l45 -6 -38 16 c-30 13 -37 21 -33 36 3
14 -1 22 -15 25 -10 3 -19 13 -20 22 0 10 -2 11 -6 4 -9 -23 -20 -13 -19 17 1
16 1 30 1 30 1 0 18 -9 40 -20 22 -11 46 -20 55 -19 8 0 -3 7 -24 15 -62 22
-76 40 -76 97 0 38 3 48 14 44 12 -5 13 -1 4 24 -5 16 -7 37 -4 46 6 14 10 12
25 -13 10 -16 31 -40 47 -54 l29 -25 -25 30 c-78 92 -84 138 -10 71 22 -20 48
-36 58 -36 10 0 5 6 -14 16 -22 11 -34 25 -38 46 -6 32 9 62 25 52 5 -3 -2 11
-15 31 -28 41 -51 103 -41 113 3 3 10 0 16 -8 6 -10 7 -4 2 19 -4 23 -3 32 4
28 6 -4 13 2 16 13 5 19 27 29 27 13 0 -5 10 -19 21 -33 l21 -25 -16 27 c-9
15 -16 30 -16 33 0 12 24 4 37 -12 9 -11 9 -7 -2 10 -9 16 -14 35 -11 43 3 8
1 14 -4 14 -6 0 -10 7 -10 15 0 8 -7 15 -15 15 -10 0 -15 10 -15 34 0 35 17
58 24 34 13 -41 39 -108 42 -106 1 2 -7 36 -18 76 -30 112 -8 141 27 35 9 -29
21 -55 25 -58 5 -3 -2 24 -15 60 -29 76 -31 92 -10 92 8 0 15 -6 15 -13 0 -8
6 -11 15 -8 11 5 12 11 4 25 -9 18 -5 23 15 20 5 -1 6 6 2 15 -4 11 0 18 14
21 15 4 20 12 18 27 -3 23 -29 29 -36 7 -3 -9 0 -11 8 -6 9 5 11 4 6 -4 -4 -6
-12 -9 -17 -6 -14 9 -11 35 5 41 8 3 17 21 20 40 9 47 34 45 39 -3 3 -28 4
-21 6 22 1 53 17 95 34 95 3 0 8 -8 10 -17 4 -17 5 -17 6 0 2 35 61 9 61 -28
0 -28 9 -55 20 -55 4 0 1 23 -6 51 -20 78 -10 147 29 188 38 40 132 111 147
111 13 0 13 -32 0 -48 -7 -8 -7 -9 1 -3 6 5 24 5 40 1 27 -8 29 -7 23 16 -14
54 -12 56 66 84 41 15 94 30 118 34 36 5 42 4 42 -12 0 -10 3 -21 6 -25 9 -9
43 15 38 27 -7 21 42 44 116 53 94 13 159 5 174 -21 6 -11 19 -28 29 -38 13
-14 17 -15 17 -3 0 7 8 19 18 24 9 6 11 11 5 11 -7 0 -13 7 -13 16 0 13 9 14
58 9 73 -8 92 -14 92 -27 0 -5 -7 -8 -15 -4 -24 9 -17 -9 13 -30 26 -20 28
-20 46 -2 24 23 40 22 95 -2 31 -14 41 -24 37 -35 -4 -11 3 -19 21 -26 33 -12
43 -3 17 16 -17 13 -18 14 -1 15 14 0 54 -21 106 -57 2 -1 -1 -8 -7 -15 -7 -9
-8 -32 -2 -68 5 -36 8 -44 9 -24 1 28 25 53 38 40 13 -13 21 -86 13 -121 -13
-55 -12 -64 5 -35 29 51 12 173 -26 185 -16 5 -28 25 -15 25 25 0 140 -90 157
-122 13 -25 -6 -59 -28 -51 -12 5 -15 2 -10 -10 5 -12 1 -17 -13 -17 -11 0
-20 -4 -20 -10 0 -5 4 -10 8 -10 5 0 17 -6 27 -14 18 -13 18 -15 1 -41 -17
-26 -17 -27 1 -23 10 2 19 12 21 23 2 11 9 25 15 30 7 6 12 28 12 50 0 22 5
40 10 40 6 0 10 -40 10 -99 0 -75 2 -93 9 -73 6 15 14 27 19 27 8 0 4 36 -9
83 -11 36 25 16 53 -30 44 -72 46 -83 23 -105 -12 -11 -27 -17 -34 -15 -8 3
-20 -9 -30 -29 -21 -44 -20 -58 1 -20 l16 30 18 -23 c11 -13 19 -33 19 -45 0
-17 2 -18 10 -6 8 12 10 12 10 -5 0 -25 -27 -77 -45 -87 -8 -5 -13 -26 -12
-55 0 -40 2 -44 10 -25 6 12 14 22 19 22 10 0 11 -23 1 -36 -5 -5 3 1 16 14
50 50 50 -18 -1 -123 -17 -37 -18 -38 -1 -19 32 36 59 130 47 162 -7 18 -7 37
-1 56 6 19 6 31 -2 39 -8 8 -11 5 -11 -10 0 -28 -10 -53 -21 -53 -24 0 6 114
35 135 14 11 14 14 2 24 -15 13 -27 81 -14 81 11 0 47 -79 48 -103 0 -9 9 -36
19 -60 11 -23 22 -60 24 -82 6 -45 54 -215 57 -200 4 21 -3 63 -22 135 -14 51
-17 75 -9 78 15 5 14 22 -2 22 -7 0 -19 21 -26 48 -20 70 -81 188 -142 276
-30 42 -65 93 -78 112 -13 18 -30 34 -36 34 -7 0 -18 7 -26 16 -27 33 -222
152 -299 182 -149 58 -218 71 -385 75 -88 2 -178 0 -200 -3z m253 -39 c3 -8
-1 -12 -9 -9 -7 2 -15 10 -17 17 -3 8 1 12 9 9 7 -2 15 -10 17 -17z m-892
-338 c-10 -10 -19 5 -10 18 6 11 8 11 12 0 2 -7 1 -15 -2 -18z m-293 -712 c13
-22 14 -30 5 -34 -16 -5 -37 21 -38 46 0 26 14 21 33 -12z"/>
<path d="M8345 6770 c-27 -4 -43 -8 -35 -10 8 -1 19 -2 23 -1 4 1 37 2 72 2
36 1 65 5 65 10 0 10 -48 10 -125 -1z"/>
<path d="M2820 6721 c0 -45 -11 -55 -73 -66 l-37 -7 0 36 c0 20 -4 36 -9 36
-12 0 -22 -27 -15 -43 7 -20 -18 -46 -54 -53 -33 -7 -34 -6 -31 27 4 50 -15
51 -22 2 -6 -49 -3 -45 -48 -66 -45 -22 -51 -21 -51 9 0 14 -4 23 -10 19 -5
-3 -10 -19 -10 -34 0 -21 -13 -39 -55 -75 -54 -46 -55 -47 -55 -21 0 37 -25
26 -26 -11 -1 -55 -4 -64 -24 -84 -28 -28 -40 -25 -40 9 0 17 -5 33 -11 36 -7
5 -9 -12 -7 -53 2 -53 -1 -63 -27 -98 -26 -33 -30 -36 -33 -19 -2 11 -9 26
-15 33 -18 23 -26 -2 -14 -45 10 -38 9 -46 -9 -70 -24 -32 -44 -41 -44 -18 0
9 -5 13 -10 10 -6 -3 -9 -26 -8 -49 1 -30 -6 -55 -21 -80 -22 -35 -41 -47 -41
-26 0 6 -5 10 -11 10 -8 0 -9 -14 -5 -43 5 -35 2 -52 -17 -86 -20 -34 -26 -39
-31 -25 -5 12 -10 14 -17 7 -8 -8 -8 -22 1 -48 10 -31 10 -43 -6 -76 -12 -27
-20 -36 -25 -27 -15 24 -30 -5 -20 -40 11 -37 -13 -137 -29 -127 -6 4 -10 13
-10 21 0 8 -4 14 -10 14 -16 0 -12 -67 5 -83 12 -12 12 -22 4 -49 -6 -18 -13
-39 -15 -47 -4 -11 -8 -10 -19 5 -13 17 -14 9 -9 -71 5 -93 -5 -137 -25 -105
-17 25 -26 1 -12 -33 18 -42 29 -130 20 -154 -6 -15 -8 -15 -8 -2 -1 9 -8 22
-16 29 -24 20 -19 -26 5 -50 25 -25 29 -96 5 -86 -13 5 -13 1 0 -31 22 -53 20
-93 -5 -93 -25 0 -73 -23 -118 -57 -32 -24 -34 -24 -48 -7 -13 17 -14 16 -8
-18 5 -30 3 -39 -10 -44 -11 -4 -23 1 -32 12 -14 18 -14 18 -12 -1 3 -18 -4
-21 -67 -26 -72 -6 -133 -27 -153 -52 -15 -18 -4 -28 57 -53 25 -10 53 -25 62
-33 10 -9 38 -32 63 -51 33 -26 45 -42 45 -62 1 -33 38 -147 54 -168 7 -8 32
-31 57 -50 25 -19 46 -37 48 -40 1 -4 16 -4 32 -2 48 7 35 -13 -47 -74 -125
-91 -126 -101 -3 -15 36 25 67 48 68 53 5 11 32 10 32 -1 0 -11 -100 -105
-128 -120 -21 -11 -30 -31 -14 -31 4 0 40 32 80 70 67 65 103 83 116 61 3 -4
27 -11 53 -15 27 -3 64 -9 83 -12 30 -5 41 -1 73 28 30 26 42 47 57 101 22 80
30 92 82 118 21 11 38 21 38 24 0 6 -49 -15 -75 -32 -25 -17 -35 -16 -35 2 0
8 13 21 28 29 16 8 35 22 42 31 10 12 4 11 -22 -5 -28 -16 -38 -18 -44 -8 -4
7 -4 10 -1 7 4 -3 31 17 61 45 58 53 69 78 16 32 -42 -35 -50 -33 -38 10 18
66 -6 202 -44 257 -19 26 -19 31 -4 120 9 50 18 106 21 122 6 29 6 29 -9 11
-9 -11 -16 -17 -16 -13 0 12 -81 -32 -137 -74 -29 -22 -54 -39 -56 -39 -3 0
-7 14 -10 30 -4 17 -11 30 -17 30 -6 0 -6 -9 0 -26 15 -38 13 -41 -29 -42
l-39 -2 -8 77 c-12 136 5 331 42 483 8 30 19 75 25 100 6 25 15 63 21 85 5 22
16 55 24 73 8 18 14 40 14 48 0 9 6 30 14 47 123 284 133 304 239 458 31 46
71 102 87 124 35 46 178 185 191 185 5 0 9 -13 9 -30 0 -16 4 -30 9 -30 6 0 7
16 4 35 -5 33 -3 36 30 50 49 20 63 19 72 -7 7 -21 8 -20 12 9 4 29 9 34 46
43 23 5 62 16 87 24 47 16 141 31 249 40 l63 6 -5 -29 c-4 -18 0 -35 9 -47 14
-17 15 -15 11 29 l-5 47 67 -1 c74 0 128 -9 216 -34 33 -9 78 -21 99 -26 21
-6 52 -21 68 -34 16 -14 35 -25 42 -25 7 0 21 -9 31 -20 10 -11 27 -20 38 -20
20 0 145 -74 160 -94 4 -6 5 -38 1 -71 -4 -41 -3 -57 4 -50 6 6 12 33 14 60
l3 50 49 -49 c73 -73 129 -205 173 -406 20 -94 25 -141 24 -255 -1 -158 -20
-295 -44 -320 -10 -9 -17 -28 -16 -43 0 -26 1 -25 15 8 l14 35 -5 -50 c-10
-112 -27 -204 -44 -250 -14 -37 -20 -44 -24 -30 -4 16 -5 16 -6 3 0 -9 3 -19
8 -22 5 -4 5 -24 -1 -48 -5 -24 -11 -56 -13 -73 -8 -92 -40 -243 -50 -237 -5
3 -4 -1 3 -10 7 -9 10 -27 7 -40 -3 -12 -7 -99 -9 -193 l-3 -170 50 -150 c90
-271 224 -503 396 -685 117 -123 168 -219 179 -336 4 -43 4 -97 1 -119 l-6
-40 -2 49 c-1 62 -9 56 -15 -11 -5 -62 -30 -113 -54 -113 -10 0 -24 -6 -31
-12 -11 -11 -12 -10 -6 1 5 9 -2 7 -21 -6 -54 -38 -123 -72 -151 -75 -15 -2
-33 -9 -38 -16 -6 -7 -29 -16 -50 -19 -38 -4 -42 -2 -72 37 -19 25 -35 60 -39
86 -12 80 20 87 72 14 43 -60 59 -70 114 -70 48 0 89 19 113 52 132 183 132
222 -1 474 -18 33 -46 76 -63 95 -27 30 -29 31 -14 6 9 -16 15 -31 12 -33 -6
-6 -130 123 -168 176 -18 24 -36 49 -41 55 -38 46 -118 170 -118 182 0 2 -13
24 -29 47 -70 102 -131 359 -131 550 1 110 13 192 33 223 4 7 2 21 -5 32 -11
18 -16 10 -51 -82 -21 -56 -51 -138 -66 -182 -16 -44 -41 -108 -56 -143 -31
-74 -47 -161 -47 -253 0 -93 8 -123 56 -207 22 -41 48 -86 56 -100 18 -32 23
-187 10 -283 -5 -35 -12 -100 -15 -144 -3 -44 -7 -87 -10 -95 -2 -8 -7 -37
-10 -65 -10 -95 -37 -236 -60 -320 -37 -132 -63 -235 -74 -289 -10 -54 -22
-75 -43 -76 -5 0 -8 12 -8 26 0 15 -4 23 -10 19 -6 -4 -8 -15 -5 -25 4 -11 -1
-23 -13 -32 -19 -14 -37 -48 -24 -48 4 1 31 13 61 28 43 21 55 33 57 52 1 14
15 77 32 140 17 63 40 153 52 200 12 47 27 110 35 140 40 158 80 497 79 670 0
101 -1 104 -76 225 -44 72 -58 127 -58 232 0 77 5 106 31 180 49 139 79 233
79 246 0 7 7 21 16 32 13 18 14 12 11 -60 -11 -218 41 -474 124 -608 16 -26
29 -50 29 -53 0 -3 17 -34 37 -67 56 -93 156 -219 263 -331 108 -114 148 -169
175 -240 20 -55 25 -153 8 -164 -6 -4 -20 -28 -32 -53 -28 -60 -59 -88 -104
-96 -51 -8 -89 11 -137 68 -47 56 -75 61 -98 19 -25 -48 11 -167 64 -211 32
-26 112 -47 146 -39 123 30 229 97 269 170 10 19 27 46 37 60 9 13 11 21 4 16
-10 -6 -11 -1 -5 21 4 15 8 76 7 136 -1 105 -2 109 -42 190 -29 60 -69 114
-146 201 -58 66 -106 125 -106 132 0 6 -7 18 -16 25 -29 24 -127 182 -171 276
-52 111 -117 311 -134 410 -21 124 2 437 46 643 9 41 18 86 19 100 2 14 10 54
19 90 9 36 25 131 37 211 11 80 23 161 27 180 12 65 10 439 -2 447 -16 9 -29
52 -17 52 14 0 20 32 12 55 -7 18 -9 17 -15 -9 -7 -26 -12 -16 -50 91 -23 66
-52 138 -66 159 -13 21 -24 45 -25 52 -5 29 -14 41 -36 44 -12 2 -32 17 -44
35 -15 23 -24 29 -32 21 -16 -16 -42 8 -42 37 0 12 -7 28 -16 35 -13 11 -16
10 -21 -8 -3 -12 -8 -22 -12 -22 -19 0 -49 33 -54 60 -7 30 -27 42 -27 16 0
-8 -4 -17 -8 -20 -12 -7 -83 43 -81 57 3 23 -1 37 -11 37 -5 0 -7 -6 -4 -14 9
-22 -15 -29 -41 -12 -17 11 -25 26 -25 46 0 17 -4 30 -10 30 -5 0 -10 -13 -10
-30 0 -33 -8 -36 -57 -18 -28 10 -33 17 -33 45 0 18 -4 33 -10 33 -5 0 -10
-14 -10 -30 0 -30 -1 -31 -37 -24 -50 9 -53 11 -53 39 0 36 -19 40 -26 6 -6
-29 -9 -31 -50 -31 -42 0 -44 1 -44 30 0 17 -4 30 -10 30 -5 0 -10 -11 -10
-25 0 -28 -26 -43 -64 -39 -11 1 -26 3 -33 3 -6 1 -14 15 -18 31 -9 41 -25 38
-25 -5 0 -27 -4 -35 -17 -35 -10 0 -35 -3 -55 -6 -38 -7 -38 -7 -38 29 0 20
-4 39 -10 42 -6 4 -10 -10 -10 -34z m-710 -1781 c0 -5 -5 -10 -11 -10 -5 0 -7
-5 -3 -12 4 -7 3 -8 -4 -4 -11 7 -38 -43 -61 -113 -15 -46 -14 -50 9 -22 11
13 20 32 20 42 0 10 5 19 10 19 6 0 10 -23 10 -50 0 -28 4 -58 10 -68 36 -65
50 -116 50 -181 0 -89 -24 -147 -79 -190 -45 -36 -46 -59 -2 -36 l28 14 1 -57
c1 -84 -40 -134 -68 -82 -6 11 -17 20 -25 20 -19 0 -19 10 0 38 12 16 13 26 5
42 -6 11 -15 20 -20 20 -6 0 -5 -9 2 -20 14 -22 6 -34 -30 -45 -17 -5 -24 -1
-31 17 l-10 23 0 -23 c-1 -32 18 -65 34 -58 14 5 25 -14 25 -45 0 -25 -45 -48
-62 -31 -7 7 -20 12 -29 12 -28 0 -33 20 -10 44 32 34 25 44 -9 11 -33 -31
-54 -27 -25 5 10 11 16 23 12 26 -3 3 -12 -3 -19 -15 -15 -25 -36 -27 -44 -6
-4 8 -12 15 -20 15 -20 0 -94 40 -94 51 0 6 -11 21 -24 34 -13 13 -33 37 -45
53 -25 36 -29 74 -6 66 25 -10 18 25 -7 36 -13 5 -41 27 -62 49 l-40 41 37 0
c46 0 48 18 4 47 -35 24 -127 42 -127 25 0 -5 15 -13 33 -16 38 -7 75 -31 65
-42 -4 -4 -42 10 -85 31 l-77 38 45 18 c26 9 77 19 114 20 59 2 70 0 80 -17
38 -63 47 -75 52 -71 2 3 -7 23 -22 45 -15 24 -23 45 -19 56 11 28 25 13 52
-54 28 -72 30 -75 37 -68 3 3 -8 38 -25 78 -17 41 -28 80 -26 87 10 25 25 13
31 -24 7 -43 34 -115 34 -94 1 7 -6 40 -14 72 -22 86 -15 94 112 133 28 9 67
16 85 16 30 0 35 -5 56 -51 12 -28 22 -57 22 -65 0 -8 5 -14 10 -14 11 0 13
23 3 34 -4 4 -15 27 -24 52 -15 39 -16 46 -3 51 8 3 21 -3 29 -13 14 -18 14
-17 10 11 -4 27 0 33 46 63 28 17 55 32 60 32 5 0 9 5 9 10 0 6 5 10 10 10 6
0 10 -4 10 -10z m-10 -54 c0 -8 -4 -18 -10 -21 -5 -3 -10 3 -10 14 0 12 5 21
10 21 6 0 10 -6 10 -14z m2326 -2101 c-69 -64 -149 -99 -202 -89 -19 3 -34 2
-33 -2 1 -5 1 -12 0 -16 -1 -10 -61 12 -61 22 0 13 61 30 103 28 20 -1 40 2
44 5 3 4 -5 7 -18 7 -21 1 -18 4 16 22 22 12 57 25 79 30 21 5 50 18 64 28 13
11 34 20 46 20 17 -1 10 -11 -38 -55z"/>
<path d="M1870 4776 c0 -3 11 -23 25 -44 13 -20 29 -52 36 -69 6 -18 15 -31
19 -28 5 3 -3 27 -18 53 -27 50 -62 99 -62 88z"/>
<path d="M1790 4762 c0 -5 7 -17 15 -28 15 -19 20 -8 9 20 -6 17 -24 22 -24 8z"/>
<path d="M1730 4732 c0 -11 22 -32 32 -32 5 0 4 9 -2 20 -11 20 -30 28 -30 12z"/>
<path d="M2060 4686 c0 -8 5 -18 10 -21 6 -3 10 1 10 9 0 8 -4 18 -10 21 -5 3
-10 -1 -10 -9z"/>
<path d="M2010 4673 c0 -14 19 -38 25 -32 8 8 -5 39 -16 39 -5 0 -9 -3 -9 -7z"/>
<path d="M1760 4634 c0 -16 24 -64 33 -64 15 0 6 38 -13 55 -11 10 -20 14 -20
9z"/>
<path d="M1862 4601 c2 -14 9 -26 16 -29 17 -5 15 10 -3 34 -15 18 -15 18 -13
-5z"/>
<path d="M1992 4580 c-30 -13 -45 -55 -37 -108 12 -78 86 -96 119 -28 9 19 16
42 16 53 0 20 -24 61 -48 81 -18 14 -19 14 -50 2z m52 -29 c20 -22 36 -98 18
-87 -7 4 -12 13 -12 19 0 7 -9 27 -21 46 -15 25 -23 31 -29 21 -9 -15 3 -63
25 -96 14 -22 14 -24 -4 -24 -43 0 -69 91 -35 124 20 21 37 20 58 -3z"/>
<path d="M1686 4536 c3 -9 11 -16 16 -16 13 0 5 23 -10 28 -7 2 -10 -2 -6 -12z"/>
<path d="M1730 4544 c0 -17 18 -36 30 -32 7 2 4 10 -9 22 -12 11 -21 15 -21
10z"/>
<path d="M1900 4540 c0 -5 5 -10 10 -10 6 0 10 5 10 10 0 6 -4 10 -10 10 -5 0
-10 -4 -10 -10z"/>
<path d="M1600 4508 c0 -9 7 -19 16 -22 25 -10 27 -1 4 19 -17 15 -20 16 -20
3z"/>
<path d="M1840 4487 c0 -19 16 -31 24 -18 3 5 -1 14 -9 21 -12 10 -15 10 -15
-3z"/>
<path d="M1705 4450 c-33 -13 -47 -37 -49 -79 -1 -72 66 -114 121 -76 22 15
39 88 27 119 -5 12 -69 50 -78 45 0 0 -10 -4 -21 -9z m73 -37 c15 -20 16 -59
2 -68 -6 -3 -19 14 -29 38 -11 25 -25 48 -33 51 -7 3 1 4 17 1 17 -4 36 -13
43 -22z m-68 -12 c0 -10 11 -35 25 -55 21 -30 22 -38 10 -42 -38 -15 -86 56
-69 101 9 21 34 19 34 -4z"/>
<path d="M7554 6735 c11 -8 29 -15 40 -15 19 1 19 2 -4 15 -35 20 -62 19 -36
0z"/>
<path d="M7515 6670 c-10 -11 -20 -18 -23 -15 -3 3 -20 -12 -38 -32 -18 -20
-31 -39 -28 -42 3 -3 9 1 15 9 8 13 12 11 28 -7 24 -28 31 -29 31 -2 0 12 8
23 20 26 23 6 25 14 8 31 -10 10 -10 17 0 32 16 26 10 25 -13 0z"/>
<path d="M7946 6675 c4 -8 10 -15 15 -15 4 0 6 7 3 15 -4 8 -10 15 -15 15 -4
0 -6 -7 -3 -15z"/>
<path d="M2886 6624 c-3 -9 -6 -25 -6 -36 0 -29 24 -16 27 15 2 30 -12 45 -21
21z"/>
<path d="M7709 6579 c-15 -22 -14 -26 6 -48 l23 -23 22 22 c17 17 19 24 10 35
-7 8 -9 19 -5 26 6 8 2 8 -13 0 -15 -8 -21 -8 -24 0 -2 7 -11 1 -19 -12z"/>
<path d="M8000 6581 c0 -11 -6 -22 -12 -25 -18 -7 19 -29 55 -33 31 -3 31 -3
15 34 -20 45 -58 61 -58 24z"/>
<path d="M7281 6560 c-37 -32 -37 -34 -4 -44 25 -8 36 5 37 46 1 15 1 28 1 28
0 -1 -15 -14 -34 -30z"/>
<path d="M3275 6571 c-8 -14 13 -81 26 -81 6 0 7 15 3 38 -7 42 -19 59 -29 43z"/>
<path d="M2790 6540 c0 -28 13 -40 24 -22 7 12 -5 52 -15 52 -5 0 -9 -13 -9
-30z"/>
<path d="M3117 6563 c-7 -13 4 -73 14 -73 12 0 12 67 0 75 -5 3 -12 2 -14 -2z"/>
<path d="M3441 6539 c-13 -38 -13 -39 -2 -39 9 0 24 60 17 67 -2 2 -9 -10 -15
-28z"/>
<path d="M6310 6560 c-25 -3 -54 -11 -65 -18 l-20 -13 20 5 c11 2 47 8 80 11
33 4 61 8 63 10 7 7 -37 10 -78 5z"/>
<path d="M7111 6563 c-1 -19 21 -63 32 -63 5 0 5 6 -1 13 -6 7 -16 24 -21 38
-5 13 -10 19 -10 12z"/>
<path d="M2947 6544 c-10 -10 -9 -56 3 -74 8 -12 10 -12 15 2 8 19 -8 82 -18
72z"/>
<path d="M2655 6530 c-7 -12 2 -30 16 -30 5 0 9 9 9 20 0 21 -15 27 -25 10z"/>
<path d="M7000 6530 c0 -5 5 -10 11 -10 5 0 7 5 4 10 -3 6 -8 10 -11 10 -2 0
-4 -4 -4 -10z"/>
<path d="M6932 6500 c0 -14 2 -19 5 -12 2 6 2 18 0 25 -3 6 -5 1 -5 -13z"/>
<path d="M3019 6500 c-7 -20 5 -68 14 -54 3 6 3 24 -2 39 -5 19 -9 24 -12 15z"/>
<path d="M7011 6498 c-1 -10 6 -33 15 -52 16 -32 16 -36 0 -51 -25 -26 -19
-33 26 -29 48 4 71 20 44 30 -10 4 -15 13 -11 24 4 14 1 16 -19 13 -20 -4 -26
1 -39 39 -9 23 -16 35 -16 26z"/>
<path d="M8710 6480 c0 -12 30 -12 85 -1 38 8 37 9 -22 10 -36 1 -63 -3 -63
-9z"/>
<path d="M8911 6481 c-10 -7 -10 -10 -1 -16 6 -4 16 -3 22 3 13 13 -4 23 -21
13z"/>
<path d="M2560 6460 c0 -11 5 -20 10 -20 6 0 10 9 10 20 0 11 -4 20 -10 20 -5
0 -10 -9 -10 -20z"/>
<path d="M2752 6439 c2 -24 9 -44 16 -47 10 -3 13 6 10 39 -2 23 -9 44 -16 47
-10 3 -12 -7 -10 -39z"/>
<path d="M3485 6446 c-9 -21 -13 -46 -9 -55 5 -11 11 -4 20 29 18 58 11 76
-11 26z"/>
<path d="M8848 6473 c6 -2 18 -2 25 0 6 3 1 5 -13 5 -14 0 -19 -2 -12 -5z"/>
<path d="M9329 6467 c-48 -12 -31 -16 41 -7 36 4 63 8 60 9 -14 6 -74 5 -101
-2z"/>
<path d="M6941 6458 c-1 -26 39 -128 51 -128 7 0 6 5 -2 15 -6 8 -20 40 -30
72 -10 32 -19 50 -19 41z"/>
<path d="M7754 6433 c-5 -18 -11 -22 -30 -17 -20 5 -24 2 -24 -15 0 -12 7 -24
16 -28 8 -3 13 -11 11 -17 -3 -7 9 -11 34 -11 22 0 39 0 39 0 0 0 -9 25 -20
55 -16 46 -21 51 -26 33z"/>
<path d="M2640 6416 c0 -14 5 -28 11 -31 15 -10 18 -4 12 28 -7 34 -23 36 -23
3z"/>
<path d="M2877 6434 c-10 -11 -9 -62 2 -69 5 -3 12 -2 15 3 7 12 -8 75 -17 66z"/>
<path d="M3642 6398 c-11 -29 -9 -49 3 -36 10 10 24 68 16 68 -3 0 -12 -14
-19 -32z"/>
<path d="M2514 6409 c-3 -6 -1 -16 5 -22 8 -8 11 -5 11 11 0 24 -5 28 -16 11z"/>
<path d="M3207 6378 c-6 -21 -2 -36 7 -27 10 11 16 49 8 49 -5 0 -12 -10 -15
-22z"/>
<path d="M3250 6375 c0 -14 5 -25 10 -25 6 0 10 11 10 25 0 14 -4 25 -10 25
-5 0 -10 -11 -10 -25z"/>
<path d="M8030 6398 c0 -2 -4 -17 -9 -35 -7 -26 -7 -31 5 -26 8 3 14 -1 14
-11 0 -19 9 -20 31 -3 14 11 14 15 -1 41 -13 24 -40 47 -40 34z"/>
<path d="M2380 6351 c0 -34 13 -61 25 -49 7 7 -8 88 -16 88 -5 0 -9 -18 -9
-39z"/>
<path d="M3388 6384 c-5 -4 -8 -19 -8 -33 0 -18 3 -22 11 -14 6 6 9 21 7 33
-1 12 -6 18 -10 14z"/>
<path d="M2449 6368 c-7 -63 -7 -88 1 -88 12 0 12 2 15 58 1 23 -2 42 -6 42
-5 0 -10 -6 -10 -12z"/>
<path d="M2575 6350 c-7 -31 -1 -50 16 -50 11 0 9 69 -2 76 -4 2 -10 -9 -14
-26z"/>
<path d="M7390 6355 c0 -8 -9 -15 -20 -15 -13 0 -20 -7 -20 -20 0 -11 7 -20
15 -20 7 0 18 -8 24 -17 7 -14 13 -15 34 -6 23 11 24 14 14 52 -8 29 -17 41
-29 41 -10 0 -18 -7 -18 -15z"/>
<path d="M3017 6353 c-11 -10 -8 -85 2 -78 14 8 24 66 14 76 -5 5 -12 6 -16 2z"/>
<path d="M6813 6325 c0 -22 2 -30 4 -17 2 12 2 30 0 40 -3 9 -5 -1 -4 -23z"/>
<path d="M3960 6328 c0 -34 11 -68 21 -68 5 0 9 10 9 23 0 33 -11 67 -21 67
-5 0 -9 -10 -9 -22z"/>
<path d="M8475 6310 c4 -55 15 -64 15 -12 0 22 -4 43 -9 46 -5 4 -8 -12 -6
-34z"/>
<path d="M3561 6303 c0 -31 2 -34 9 -18 12 28 12 55 0 55 -5 0 -10 -17 -9 -37z"/>
<path d="M2304 6316 c-3 -8 -4 -23 -2 -33 3 -11 6 -6 9 15 6 34 2 42 -7 18z"/>
<path d="M3682 6303 c-5 -10 -13 -33 -17 -50 -5 -25 -3 -33 8 -33 9 0 16 16
21 47 7 51 3 64 -12 36z"/>
<path d="M2777 6304 c-10 -11 -8 -62 3 -69 13 -8 24 40 13 60 -5 8 -12 12 -16
9z"/>
<path d="M2906 6284 c-7 -18 0 -34 15 -34 5 0 9 11 9 25 0 28 -15 34 -24 9z"/>
<path d="M3321 6258 c-7 -19 -8 -35 -2 -41 10 -10 16 -2 25 35 9 39 -10 44
-23 6z"/>
<path d="M3457 6273 c-11 -10 -8 -53 3 -53 6 0 10 14 10 30 0 31 -2 35 -13 23z"/>
<path d="M3860 6259 c0 -11 5 -17 10 -14 6 3 10 13 10 21 0 8 -4 14 -10 14 -5
0 -10 -9 -10 -21z"/>
<path d="M3160 6240 c0 -16 5 -30 10 -30 6 0 10 14 10 30 0 17 -4 30 -10 30
-5 0 -10 -13 -10 -30z"/>
<path d="M2320 6190 c0 -38 4 -50 15 -50 16 0 21 52 9 84 -12 32 -24 15 -24
-34z"/>
<path d="M6770 6221 c0 -11 4 -22 9 -25 4 -3 6 6 3 19 -5 30 -12 33 -12 6z"/>
<path d="M8273 6229 c-24 -7 -30 -14 -26 -28 3 -10 0 -22 -5 -25 -7 -4 -6 -14
1 -30 11 -23 12 -23 44 -8 33 16 46 53 22 67 -6 4 -8 13 -5 21 3 8 4 14 3 13
-1 0 -16 -5 -34 -10z"/>
<path d="M3801 6190 c-14 -33 -7 -98 8 -70 12 22 22 100 14 100 -5 0 -14 -14
-22 -30z"/>
<path d="M4020 6170 c0 -32 4 -49 10 -45 6 3 10 24 10 45 0 21 -4 42 -10 45
-6 4 -10 -13 -10 -45z"/>
<path d="M7883 6209 c-7 -7 -13 -21 -13 -31 0 -12 -7 -18 -21 -18 -15 0 -19
-4 -15 -16 3 -9 6 -20 6 -25 0 -5 9 -9 21 -9 16 0 19 -4 14 -20 -4 -11 -2 -20
4 -20 6 0 11 7 11 16 0 10 6 14 14 11 7 -3 23 7 35 24 21 28 21 30 4 54 -10
13 -23 23 -30 20 -6 -2 -13 3 -15 11 -2 12 -5 13 -15 3z"/>
<path d="M2565 6199 c-10 -15 4 -81 16 -74 12 8 12 85 0 85 -6 0 -13 -5 -16
-11z"/>
<path d="M2685 6200 c-7 -12 2 -30 16 -30 5 0 9 9 9 20 0 21 -15 27 -25 10z"/>
<path d="M6861 6197 c-26 -13 -37 -57 -14 -57 7 0 13 -9 13 -21 0 -19 3 -18
31 12 28 30 29 34 14 45 -9 7 -14 17 -10 23 8 14 -4 14 -34 -2z"/>
<path d="M2256 6193 c-9 -9 -7 -76 3 -92 5 -7 14 -10 20 -7 6 4 9 11 7 15 -3
4 -6 25 -8 45 -2 38 -10 51 -22 39z"/>
<path d="M3047 6168 c-3 -12 -3 -26 0 -31 9 -14 33 22 26 39 -8 21 -20 17 -26
-8z"/>
<path d="M3374 6163 c-3 -10 -10 -30 -16 -44 -11 -31 -7 -84 6 -84 8 0 33 96
35 133 1 18 -19 14 -25 -5z"/>
<path d="M2192 6145 c0 -16 2 -22 5 -12 2 9 2 23 0 30 -3 6 -5 -1 -5 -18z"/>
<path d="M2435 6138 c-9 -36 2 -85 16 -71 7 7 7 25 1 54 -9 42 -9 43 -17 17z"/>
<path d="M7381 6134 c-25 -31 -26 -40 -7 -47 18 -7 26 1 26 28 0 11 5 26 12
33 8 8 9 12 1 12 -6 0 -21 -12 -32 -26z"/>
<path d="M2766 6118 c-9 -34 -8 -38 9 -38 10 0 15 10 15 30 0 35 -15 40 -24 8z"/>
<path d="M3491 6118 c-17 -44 -17 -78 -2 -78 11 0 27 88 17 97 -3 3 -10 -6
-15 -19z"/>
<path d="M3910 6081 c-5 -11 -10 -27 -10 -35 0 -28 15 -17 26 19 12 37 1 48
-16 16z"/>
<path d="M2156 6062 c-3 -6 -6 -36 -5 -67 2 -67 24 -71 24 -4 1 52 -9 88 -19
71z"/>
<path d="M2630 6030 c0 -16 5 -30 10 -30 6 0 10 14 10 30 0 17 -4 30 -10 30
-5 0 -10 -13 -10 -30z"/>
<path d="M7105 6040 c-4 -6 -14 -9 -23 -8 -11 2 -17 -4 -17 -17 0 -11 -9 -28
-20 -37 -18 -16 -18 -17 -2 -18 9 0 17 -7 17 -15 0 -8 5 -15 10 -15 6 0 10 7
10 16 0 10 6 14 15 10 37 -14 62 24 28 43 -15 8 -16 12 -5 22 6 7 12 17 12 21
0 11 -18 10 -25 -2z"/>
<path d="M3650 6014 c-13 -32 -13 -51 0 -59 5 -3 12 7 16 22 3 15 8 36 11 46
7 27 -16 20 -27 -9z"/>
<path d="M6071 6031 c-19 -3 -37 -12 -39 -20 -4 -11 0 -12 14 -6 11 4 45 10
77 13 31 2 60 8 63 13 6 10 -62 10 -115 0z"/>
<path d="M2485 5997 c-8 -20 -1 -61 11 -62 13 0 18 55 5 68 -7 7 -12 5 -16 -6z"/>
<path d="M2312 5978 c2 -12 11 -24 21 -26 14 -3 18 1 15 20 -2 12 -11 24 -21
26 -14 3 -18 -1 -15 -20z"/>
<path d="M2907 5993 c-4 -3 -7 -17 -7 -30 0 -33 24 -24 28 10 3 26 -7 35 -21
20z"/>
<path d="M2986 5939 c-7 -57 -3 -80 9 -67 8 8 22 102 17 116 -9 28 -20 8 -26
-49z"/>
<path d="M3169 5920 c-7 -22 -10 -43 -6 -46 10 -10 27 6 27 27 0 11 5 29 10
40 8 15 7 19 -4 19 -9 0 -20 -17 -27 -40z"/>
<path d="M8629 5940 c-2 -14 -11 -25 -19 -26 -37 -2 -42 -5 -36 -19 3 -8 1
-15 -3 -15 -5 0 -7 -18 -4 -40 4 -25 1 -46 -7 -55 -11 -13 -10 -14 2 -10 9 3
20 17 26 31 13 27 59 34 68 9 10 -25 -26 -100 -73 -154 -47 -54 -48 -69 -1
-24 l29 27 -2 -34 c-2 -55 -17 -95 -45 -121 -14 -13 -35 -37 -46 -54 -11 -17
1 -7 28 21 94 100 114 127 114 160 0 28 -3 31 -25 26 -32 -6 -32 5 0 48 14 19
30 50 35 70 9 32 7 37 -20 63 -26 24 -28 30 -19 57 6 16 9 37 7 47 -4 14 -6
12 -9 -7z"/>
<path d="M2829 5948 c-12 -46 -25 -126 -22 -135 10 -26 22 -11 28 35 3 26 8
57 11 69 2 12 0 25 -6 28 -5 3 -10 5 -11 3z"/>
<path d="M3387 5913 c-8 -34 -7 -72 3 -78 6 -4 10 8 10 29 0 19 3 41 6 50 3 9
1 16 -4 16 -6 0 -13 -8 -15 -17z"/>
<path d="M3912 5918 c-14 -14 -16 -58 -4 -58 5 0 13 16 19 35 11 36 6 44 -15
23z"/>
<path d="M8949 5919 c-20 -12 23 -28 49 -18 12 5 22 10 22 13 0 8 -60 12 -71
5z"/>
<path d="M2080 5884 c0 -14 4 -23 10 -19 6 3 10 15 10 26 0 10 -4 19 -10 19
-5 0 -10 -12 -10 -26z"/>
<path d="M6862 5889 c-15 -24 -15 -49 -1 -49 7 0 9 -10 5 -27 -6 -27 -6 -27 9
-9 8 11 15 23 15 28 0 4 9 8 20 8 11 0 20 5 20 10 0 6 -4 10 -9 10 -5 0 -12 9
-16 19 -8 27 -29 32 -43 10z"/>
<path d="M3308 5876 c-11 -26 -5 -56 12 -56 5 0 10 18 10 40 0 46 -6 50 -22
16z"/>
<path d="M7534 5885 c-4 -8 -12 -15 -20 -15 -10 0 -12 -9 -7 -32 11 -60 21
-75 50 -81 36 -7 45 0 38 24 -4 11 -1 26 5 34 10 12 9 15 -8 15 -24 0 -37 15
-22 25 15 9 12 19 -10 33 -17 10 -21 10 -26 -3z"/>
<path d="M8243 5862 c-35 -3 -40 -11 -21 -30 10 -10 10 -15 -2 -22 -12 -8 -12
-10 -1 -10 10 0 12 -9 7 -32 -5 -27 -3 -30 7 -18 6 8 29 30 51 48 35 30 36 34
18 39 -12 3 -22 10 -24 17 -2 6 -17 10 -35 8z"/>
<path d="M2340 5835 c0 -14 4 -25 9 -25 12 0 23 29 15 41 -10 18 -24 9 -24
-16z"/>
<path d="M2227 5833 c-10 -10 -8 -85 2 -79 5 3 11 24 13 46 3 38 -1 48 -15 33z"/>
<path d="M3720 5813 c0 -9 -5 -31 -12 -49 -12 -33 -4 -75 11 -58 13 14 23 124
11 124 -5 0 -10 -8 -10 -17z"/>
<path d="M6570 5810 c6 -11 13 -20 16 -20 2 0 0 9 -6 20 -6 11 -13 20 -16 20
-2 0 0 -9 6 -20z"/>
<path d="M6647 5785 c10 -13 22 -25 27 -25 5 0 -1 11 -14 25 -30 32 -36 32
-13 0z"/>
<path d="M7880 5795 c0 -8 -4 -15 -10 -15 -5 0 -10 -9 -10 -20 0 -11 -4 -20
-10 -20 -5 0 -10 -4 -10 -10 0 -5 9 -10 21 -10 16 0 19 -4 14 -22 -7 -22 -6
-22 7 -4 8 10 19 17 24 14 5 -3 17 5 27 17 16 23 16 24 0 34 -10 5 -15 13 -11
17 4 4 0 13 -10 20 -23 18 -32 17 -32 -1z"/>
<path d="M8465 5790 c-10 -11 -16 -23 -13 -26 7 -6 38 24 38 37 0 13 -5 11
-25 -11z"/>
<path d="M3103 5793 c-15 -5 -18 -53 -4 -53 8 0 25 49 19 55 -2 1 -9 0 -15 -2z"/>
<path d="M3203 5777 c-7 -14 -8 -30 -3 -38 11 -17 16 -12 25 29 8 37 -7 43
-22 9z"/>
<path d="M2060 5756 c0 -19 5 -38 10 -41 6 -4 10 8 10 29 0 19 -4 38 -10 41
-6 4 -10 -8 -10 -29z"/>
<path d="M8694 5607 c-1 -155 -4 -193 -23 -257 -12 -41 -28 -98 -36 -127 -8
-29 -35 -104 -59 -167 -69 -176 -114 -415 -102 -545 8 -87 -3 -173 -25 -202
-20 -27 -28 -23 -39 23 l-8 33 -1 -38 c-1 -27 4 -39 17 -44 9 -4 20 -11 24
-17 5 -6 8 -2 8 10 0 12 7 27 15 34 13 10 15 9 15 -8 0 -12 -5 -33 -12 -47
-10 -22 -8 -28 9 -44 13 -12 24 -43 32 -91 6 -39 19 -83 28 -97 12 -18 17 -48
18 -98 0 -57 4 -77 19 -94 11 -12 25 -21 33 -21 7 0 13 -7 13 -16 0 -10 6 -13
18 -10 13 5 27 -6 53 -41 18 -27 35 -50 37 -53 1 -4 -11 -16 -28 -28 l-30 -23
-68 72 c-69 73 -106 123 -60 82 13 -13 33 -23 44 -22 17 0 17 1 -2 9 -27 11
-66 65 -67 93 -1 12 2 33 7 47 7 24 7 25 -9 5 -12 -14 -15 -31 -11 -60 7 -45
0 -39 -39 36 -13 25 -22 55 -19 65 7 28 -20 109 -36 109 -27 0 -74 290 -49
306 10 6 10 10 0 23 -9 10 -11 30 -7 58 6 38 5 40 -6 23 -16 -25 -15 -251 2
-314 7 -26 9 -68 5 -106 -8 -68 8 -114 46 -138 11 -6 34 -37 49 -67 16 -30 37
-67 47 -81 15 -23 135 -158 183 -208 40 -41 159 -179 178 -207 17 -25 20 -40
15 -86 -5 -54 -4 -58 30 -93 40 -41 58 -112 59 -230 1 -255 -50 -398 -162
-454 -87 -44 -153 -31 -184 36 -30 67 -74 73 -104 16 -19 -35 -14 -61 22 -117
49 -77 93 -101 181 -100 100 1 152 27 245 123 81 83 125 157 158 269 15 48 17
72 11 100 -5 20 -12 75 -14 122 -10 170 -37 276 -106 410 -21 41 -41 87 -44
102 -3 15 -22 45 -43 67 -48 50 -174 197 -217 255 -19 24 -39 62 -43 84 -10
40 -46 102 -61 102 -10 0 -61 112 -61 134 0 10 -5 26 -11 37 -8 16 -7 26 6 45
18 28 22 81 8 109 -6 11 -8 25 -6 32 2 7 -5 39 -17 72 -19 51 -21 73 -16 158
6 110 9 138 24 203 34 157 73 292 88 315 8 11 14 30 14 43 0 13 7 38 15 55 22
48 52 183 61 267 9 104 8 314 -2 333 -6 10 -10 -55 -10 -166z m-183 -1249 c11
-21 11 -22 -4 -9 -10 7 -17 17 -17 22 0 15 9 10 21 -13z m89 -488 c0 -5 -2
-10 -4 -10 -3 0 -8 5 -11 10 -3 6 -1 10 4 10 6 0 11 -4 11 -10z m148 -254 c2
-19 0 -26 -8 -21 -6 4 -9 14 -6 22 3 8 1 11 -4 8 -6 -3 -10 1 -10 10 0 28 25
10 28 -19z m101 -59 c15 -25 19 -43 14 -70 -3 -21 -9 -40 -13 -42 -4 -3 -29
20 -54 49 -29 34 -42 57 -36 61 13 8 13 8 28 -20 10 -18 11 -15 12 18 0 47 21
49 49 4z m56 -87 c3 -5 1 -10 -4 -10 -6 0 -11 5 -11 10 0 6 2 10 4 10 3 0 8
-4 11 -10z m15 -60 c0 -5 -2 -10 -4 -10 -3 0 -8 5 -11 10 -3 6 -1 10 4 10 6 0
11 -4 11 -10z m87 -117 c38 -81 39 -89 18 -109 -22 -22 -19 -71 5 -84 10 -6
25 -9 32 -8 8 2 14 -10 16 -35 3 -37 2 -38 -18 -27 -18 9 -25 8 -41 -6 -10 -9
-19 -27 -20 -38 0 -12 -4 -30 -9 -41 -6 -16 -8 -12 -7 15 0 19 -3 67 -8 105
-5 39 -8 72 -7 75 1 3 8 24 17 48 14 39 14 45 -2 79 -10 21 -29 43 -42 49 -44
22 -55 60 -18 66 33 6 47 -9 84 -89z m55 -165 c9 -19 1 -23 -21 -9 -9 6 -11
16 -6 32 6 17 9 20 13 9 3 -8 9 -23 14 -32z m-2 -155 c0 -7 -5 -13 -11 -13 -7
0 -18 -8 -25 -17 -12 -16 -13 -14 -14 18 0 45 19 67 37 42 7 -9 13 -23 13 -30z
m-6 -75 c-3 -5 -12 -4 -20 3 -19 16 -18 18 6 12 11 -3 17 -9 14 -15z m32 -115
c-2 -3 -13 0 -25 6 -24 13 -37 -2 -16 -19 19 -16 19 -30 1 -30 -8 0 -18 -17
-24 -37 -10 -38 -10 -38 -12 -8 -3 37 -3 35 5 60 4 14 2 12 -9 -5 -8 -14 -15
-46 -16 -72 0 -37 4 -50 20 -58 11 -6 20 -7 20 -3 0 4 5 2 10 -3 31 -31 -153
-234 -211 -234 -11 0 -21 10 -25 25 -3 13 -13 30 -21 36 -12 11 -9 16 24 36
46 28 49 28 56 3 12 -47 97 -6 97 47 0 13 -9 32 -19 42 -19 19 -19 20 5 88 13
37 24 83 24 102 0 19 7 43 17 53 9 11 11 18 5 18 -7 0 -12 15 -12 35 0 41 3
42 30 15 25 -25 49 -26 56 -2 15 46 19 42 22 -22 2 -37 1 -70 -2 -73z m15 -30
c-10 -17 -10 -16 -11 3 0 23 13 41 18 25 2 -6 -1 -18 -7 -28z m-46 -83 c-3 -5
-12 -10 -18 -10 -7 0 -6 4 3 10 19 12 23 12 15 0z m-469 -135 c16 -25 16 -27
-5 -46 -11 -11 -21 -25 -21 -32 -1 -24 -40 36 -40 61 0 24 1 24 19 8 21 -19
35 -8 25 18 -9 25 4 19 22 -9z m351 -15 c1 -15 0 -18 -3 -7 -6 20 -25 22 -43
5 -11 -11 -11 -9 -2 10 16 30 45 25 48 -8z m-327 -81 c0 -18 -2 -19 -15 -9 -8
7 -15 16 -15 21 0 5 7 9 15 9 9 0 15 -9 15 -21z m67 2 c26 4 32 -3 27 -31 -4
-18 -1 -36 7 -46 11 -14 9 -15 -27 -8 -21 3 -48 11 -58 17 -18 9 -18 11 -4 21
11 8 14 21 11 40 -5 26 -4 27 15 17 12 -6 25 -11 29 -10z m88 -41 c8 0 15 -4
15 -10 0 -14 -23 -12 -45 3 -11 9 -15 19 -10 27 6 10 10 9 17 -4 5 -9 16 -16
23 -16z"/>
<path d="M3810 5756 c-12 -33 -13 -96 -1 -96 8 0 23 111 16 119 -3 2 -9 -8
-15 -23z"/>
<path d="M6550 5771 c0 -13 28 -71 35 -71 4 0 -24 71 -31 79 -2 2 -4 -1 -4 -8z"/>
<path d="M2446 5743 c-3 -16 -8 -42 -11 -59 -4 -20 -1 -35 8 -42 11 -10 14 -4
15 31 1 23 4 54 8 70 3 15 1 27 -4 27 -6 0 -13 -12 -16 -27z"/>
<path d="M8515 5740 c-19 -12 -24 -20 -14 -20 9 0 24 9 34 20 23 25 18 25 -20
0z"/>
<path d="M1987 5744 c-8 -13 4 -64 14 -64 11 0 11 41 0 59 -5 7 -11 9 -14 5z"/>
<path d="M8450 5740 c0 -5 -9 -18 -20 -28 -23 -22 -17 -55 9 -50 10 2 16 14
16 33 1 17 4 36 8 43 5 6 4 12 -2 12 -6 0 -11 -4 -11 -10z"/>
<path d="M3937 5693 c-19 -37 -22 -53 -7 -53 13 0 32 48 27 69 -2 11 -8 6 -20
-16z"/>
<path d="M2597 5703 c-13 -20 -18 -97 -8 -113 16 -24 22 -6 19 61 -2 35 -6 59
-11 52z"/>
<path d="M3472 5665 c-14 -30 -16 -62 -3 -69 12 -8 35 74 23 86 -5 5 -13 -2
-20 -17z"/>
<path d="M3312 5668 c-10 -12 -10 -22 0 -44 11 -27 12 -28 15 -6 3 12 3 32 1
44 -3 19 -5 19 -16 6z"/>
<path d="M7086 5664 c-3 -9 -6 -24 -6 -33 0 -14 -6 -17 -26 -13 -23 4 -25 2
-19 -17 4 -13 1 -29 -7 -39 -11 -15 -10 -15 8 1 25 21 54 22 54 2 0 -8 5 -15
10 -15 6 0 10 5 10 10 0 6 9 10 20 10 13 0 20 7 20 19 0 11 5 23 12 27 7 5 4
10 -11 16 -12 4 -19 12 -16 18 3 5 -1 10 -9 10 -9 0 -16 5 -16 10 0 16 -17 12
-24 -6z"/>
<path d="M2231 5639 c-14 -40 -14 -66 0 -74 15 -10 16 -7 24 53 8 59 -6 71
-24 21z"/>
<path d="M2042 5626 c-9 -20 -9 -33 -3 -39 16 -16 23 -3 19 35 l-4 33 -12 -29z"/>
<path d="M2820 5639 c0 -5 5 -7 10 -4 6 3 10 8 10 11 0 2 -4 4 -10 4 -5 0 -10
-5 -10 -11z"/>
<path d="M2866 5621 c-8 -12 3 -41 15 -41 5 0 9 11 9 25 0 25 -14 34 -24 16z"/>
<path d="M6763 5619 c-7 -7 -13 -18 -13 -25 0 -7 -6 -15 -12 -17 -7 -3 -4 -6
7 -6 18 -1 18 -3 -5 -21 -14 -11 -20 -20 -14 -20 5 0 15 5 22 12 8 8 15 8 27
-2 13 -11 14 -10 9 4 -7 17 11 23 21 6 3 -5 12 -10 18 -10 7 0 4 5 -6 11 -14
8 -17 18 -12 36 5 20 3 24 -9 20 -8 -3 -16 0 -18 9 -2 12 -5 13 -15 3z"/>
<path d="M3040 5591 c-13 -24 -10 -96 4 -96 5 0 11 11 12 25 2 14 6 34 9 45 2
11 0 26 -4 34 -7 11 -11 9 -21 -8z"/>
<path d="M3850 5591 c-14 -27 -13 -41 5 -41 10 0 15 10 15 30 0 35 -5 38 -20
11z"/>
<path d="M7435 5601 c-11 -5 -26 -6 -32 -4 -7 3 -13 -2 -13 -11 0 -9 4 -16 8
-16 5 0 14 -12 21 -27 11 -25 13 -25 25 -7 14 21 27 74 17 73 -3 0 -15 -4 -26
-8z"/>
<path d="M8222 5603 c-17 -3 -22 -9 -16 -21 3 -9 9 -27 12 -40 6 -32 48 -27
45 6 -2 14 3 22 12 22 8 0 15 3 15 6 0 9 -28 34 -37 33 -4 -1 -18 -4 -31 -6z"/>
<path d="M4000 5585 c0 -8 5 -15 10 -15 6 0 10 7 10 15 0 8 -4 15 -10 15 -5 0
-10 -7 -10 -15z"/>
<path d="M5895 5583 c-61 -6 -70 -24 -10 -22 68 2 105 10 105 20 0 9 -19 9
-95 2z"/>
<path d="M3647 5563 c-10 -10 -8 -63 2 -63 5 0 11 16 13 35 4 34 -1 43 -15 28z"/>
<path d="M1952 5523 c2 -16 8 -28 13 -28 6 0 11 12 13 28 2 20 -1 27 -13 27
-12 0 -15 -7 -13 -27z"/>
<path d="M8928 5523 c-33 -2 -58 -9 -58 -15 0 -6 12 -8 31 -4 17 3 49 6 71 6
24 0 37 4 33 10 -3 6 -9 9 -13 8 -4 -1 -33 -3 -64 -5z"/>
<path d="M9020 5520 c0 -5 7 -10 15 -10 8 0 15 5 15 10 0 6 -7 10 -15 10 -8 0
-15 -4 -15 -10z"/>
<path d="M2745 5479 c-5 -14 -1 -27 9 -37 15 -15 16 -13 16 21 0 40 -15 50
-25 16z"/>
<path d="M3417 5493 c-11 -10 -8 -53 3 -53 6 0 10 14 10 30 0 31 -2 35 -13 23z"/>
<path d="M3929 5473 c-17 -45 -4 -62 14 -19 20 45 20 46 7 46 -6 0 -15 -12
-21 -27z"/>
<path d="M8594 5448 c-5 -39 -15 -61 -42 -90 -36 -40 -78 -53 -68 -20 5 13 0
18 -19 20 -21 1 -25 -3 -25 -23 0 -14 -5 -25 -11 -25 -8 0 -8 -4 -1 -13 6 -7
9 -24 5 -38 l-5 -24 16 23 c10 12 23 22 29 22 14 0 109 94 123 122 6 11 14 14
22 9 11 -7 11 -15 -2 -46 -14 -32 -14 -36 -1 -25 8 7 15 21 15 31 0 12 7 19
18 19 15 0 18 8 18 35 -1 38 -21 55 -29 24 -9 -35 -30 -22 -24 16 3 19 2 35
-3 35 -5 0 -12 -23 -16 -52z"/>
<path d="M2355 5477 c-4 -9 -2 -24 5 -32 28 -33 42 -5 16 31 -14 18 -15 18
-21 1z"/>
<path d="M6532 5458 c16 -16 36 -28 46 -28 11 0 6 6 -13 16 -16 8 -37 21 -46
27 -8 7 -2 0 13 -15z"/>
<path d="M6590 5486 c0 -2 7 -7 16 -10 8 -3 12 -2 9 4 -6 10 -25 14 -25 6z"/>
<path d="M7657 5470 c-3 -11 -16 -24 -29 -29 -22 -9 -22 -9 -3 -16 38 -13 50
-22 53 -44 4 -25 8 -26 28 -7 8 8 11 22 8 30 -4 11 2 19 21 26 29 11 25 30 -6
30 -10 0 -19 5 -19 11 0 5 -4 8 -9 4 -5 -3 -12 -1 -16 5 -10 16 -22 12 -28
-10z"/>
<path d="M2070 5454 c-14 -37 -12 -70 5 -84 13 -11 15 -6 15 33 0 25 3 52 6
61 3 9 1 16 -5 16 -6 0 -16 -12 -21 -26z"/>
<path d="M3754 5416 c-7 -28 2 -49 17 -41 12 8 12 52 -1 60 -5 3 -12 -5 -16
-19z"/>
<path d="M2905 5400 c-8 -13 3 -50 16 -50 12 0 12 47 0 55 -5 3 -12 1 -16 -5z"/>
<path d="M3077 5400 c-12 -32 -16 -79 -7 -85 11 -7 24 55 17 82 -3 14 -5 15
-10 3z"/>
<path d="M7099 5375 c-7 -16 -18 -33 -24 -37 -6 -5 -2 -8 8 -8 10 0 22 -10 26
-22 l9 -23 10 27 c8 20 16 25 31 21 12 -3 21 -3 21 1 0 12 -41 47 -50 41 -4
-3 -10 3 -13 12 -3 14 -7 11 -18 -12z"/>
<path d="M1959 5363 c-11 -31 -8 -68 6 -68 5 0 11 21 13 48 4 53 -3 61 -19 20z"/>
<path d="M3545 5370 c-8 -13 4 -70 15 -70 9 0 7 67 -3 76 -3 3 -8 0 -12 -6z"/>
<path d="M3190 5335 c-12 -37 -6 -76 9 -59 13 14 23 94 12 94 -5 0 -15 -16
-21 -35z"/>
<path d="M8124 5352 c-17 -11 -23 -39 -12 -50 7 -7 6 -16 -1 -30 -13 -25 -14
-32 -2 -32 5 0 11 10 14 22 5 18 9 19 21 9 23 -19 36 -4 30 36 -5 45 -25 62
-50 45z"/>
<path d="M2186 5304 c-9 -23 -7 -62 3 -68 11 -7 21 18 21 55 0 31 -14 39 -24
13z"/>
<path d="M3603 5305 c-8 -22 6 -33 17 -15 13 20 12 30 0 30 -6 0 -13 -7 -17
-15z"/>
<path d="M6850 5302 c0 -18 -4 -22 -19 -17 -16 5 -18 2 -14 -15 3 -11 14 -20
24 -20 20 0 26 -15 9 -25 -5 -3 -10 -12 -10 -18 0 -7 7 -4 15 7 7 10 18 15 24
11 6 -3 11 1 11 9 0 9 9 21 20 28 11 7 20 16 20 19 0 4 -9 5 -20 2 -12 -3 -20
0 -20 6 0 7 -4 10 -9 6 -6 -3 -14 3 -20 12 -9 16 -10 16 -11 -5z"/>
<path d="M7280 5295 c0 -22 -3 -24 -19 -16 -23 13 -29 7 -23 -24 3 -16 11 -25
23 -25 11 0 19 -7 19 -16 0 -11 5 -14 16 -10 9 3 24 6 34 6 17 0 17 2 3 31
-12 25 -13 36 -4 57 11 23 11 24 -5 11 -13 -11 -18 -11 -21 -1 -8 22 -23 13
-23 -13z"/>
<path d="M8570 5290 c-12 -16 -19 -30 -16 -30 2 0 14 14 26 30 12 17 19 30 16
30 -2 0 -14 -13 -26 -30z"/>
<path d="M2054 5266 c-8 -21 -1 -49 13 -53 7 -3 11 9 11 32 0 35 -14 47 -24
21z"/>
<path d="M6154 5268 c-3 -4 6 -8 20 -8 13 0 31 -3 40 -6 9 -3 16 -2 16 4 0 12
-69 21 -76 10z"/>
<path d="M2546 5253 c-3 -3 -6 -19 -6 -35 0 -37 24 -32 27 5 2 27 -9 42 -21
30z"/>
<path d="M8487 5204 c-27 -26 -46 -48 -44 -50 2 -2 25 19 52 46 62 63 56 65
-8 4z"/>
<path d="M2976 5225 c-6 -15 12 -65 23 -65 4 0 5 18 3 40 -4 41 -15 52 -26 25z"/>
<path d="M3035 5230 c-3 -5 -1 -18 4 -27 9 -16 10 -14 11 10 0 28 -5 34 -15
17z"/>
<path d="M3952 5212 c-1 -18 -7 -42 -12 -52 -6 -12 -7 -21 0 -25 13 -8 22 34
17 76 l-4 34 -1 -33z"/>
<path d="M3886 5208 c-18 -26 -20 -38 -6 -38 11 0 34 50 26 57 -2 2 -11 -6
-20 -19z"/>
<path d="M8586 5203 c-6 -14 -5 -15 5 -6 7 7 10 15 7 18 -3 3 -9 -2 -12 -12z"/>
<path d="M2275 5170 c-7 -44 1 -83 17 -78 16 6 18 118 2 118 -7 0 -15 -18 -19
-40z"/>
<path d="M7714 5180 c2 -22 -2 -33 -16 -41 -18 -10 -18 -11 6 -30 29 -23 44
-24 67 -3 21 19 16 36 -22 75 -36 36 -39 36 -35 -1z"/>
<path d="M2746 5191 c-8 -12 3 -41 15 -41 8 0 12 19 8 35 -3 11 -18 15 -23 6z"/>
<path d="M3707 5193 c-10 -10 -8 -53 2 -53 8 0 20 32 21 53 0 9 -14 9 -23 0z"/>
<path d="M7780 5191 c0 -5 5 -13 10 -16 6 -3 10 -2 10 4 0 5 -4 13 -10 16 -5
3 -10 2 -10 -4z"/>
<path d="M8522 5192 c-7 -5 -10 -16 -6 -25 4 -12 1 -17 -10 -17 -18 0 -21 -15
-5 -25 6 -4 8 -14 4 -23 -7 -20 52 35 66 60 7 14 6 16 -6 12 -10 -4 -15 0 -15
10 0 18 -8 20 -28 8z"/>
<path d="M6520 5180 c0 -5 10 -15 23 -21 22 -12 22 -12 3 10 -21 23 -26 26
-26 11z"/>
<path d="M2018 5163 c-6 -29 4 -64 16 -60 9 3 12 32 7 70 -2 14 -20 7 -23 -10z"/>
<path d="M7492 5152 c3 -12 1 -23 -5 -25 -6 -2 -7 -12 -1 -29 8 -25 11 -25 29
-12 13 10 16 17 9 22 -6 4 -11 18 -10 31 0 13 -5 26 -13 29 -10 3 -12 -1 -9
-16z"/>
<path d="M3270 5126 c0 -14 5 -26 10 -26 6 0 10 9 10 19 0 11 -4 23 -10 26 -6
4 -10 -5 -10 -19z"/>
<path d="M6605 5130 c27 -12 43 -12 25 0 -8 5 -22 9 -30 9 -10 0 -8 -3 5 -9z"/>
<path d="M3430 5094 c-7 -16 -14 -42 -16 -59 -5 -29 -5 -29 10 -11 17 21 32
83 22 93 -3 3 -10 -7 -16 -23z"/>
<path d="M3931 5104 c0 -11 3 -14 6 -6 3 7 2 16 -1 19 -3 4 -6 -2 -5 -13z"/>
<path d="M8240 5091 c0 -11 -9 -21 -21 -24 -12 -3 -18 -10 -14 -16 3 -6 -1
-14 -9 -17 -9 -3 -16 -10 -16 -15 0 -4 7 -6 15 -3 9 4 15 0 15 -7 1 -10 5 -9
14 4 8 10 18 17 22 16 14 -3 44 12 44 22 0 5 -9 9 -20 9 -22 0 -26 10 -9 27 7
7 6 12 -5 16 -11 4 -16 1 -16 -12z"/>
<path d="M1920 5078 c0 -13 7 -33 15 -44 14 -18 15 -17 13 20 -3 43 -28 64
-28 24z"/>
<path d="M2437 5093 c-4 -3 -7 -17 -7 -30 0 -33 22 -24 27 10 4 26 -6 35 -20
20z"/>
<path d="M2887 5094 c-11 -11 -8 -74 3 -74 6 0 13 7 16 15 7 18 -9 69 -19 59z"/>
<path d="M6616 5058 c-5 -15 -9 -18 -13 -10 -4 10 -8 9 -18 -4 -14 -20 -8 -54
10 -54 7 0 20 -10 28 -22 15 -22 16 -22 16 -2 1 11 6 25 13 32 9 9 7 13 -5 18
-9 3 -17 12 -17 20 0 10 12 13 48 9 42 -4 43 -4 10 4 -20 4 -43 13 -51 20 -12
9 -16 7 -21 -11z"/>
<path d="M6934 5066 c-3 -9 -10 -13 -15 -10 -5 3 -9 0 -9 -6 0 -6 -10 -15 -22
-20 -16 -6 -18 -9 -7 -9 9 -1 19 -10 22 -21 6 -23 27 -27 27 -5 0 9 7 18 15
21 8 4 15 10 15 15 0 4 -7 6 -15 3 -18 -7 -20 7 -3 24 6 6 9 15 5 18 -4 4 -9
-1 -13 -10z"/>
<path d="M8335 5070 c3 -5 8 -10 11 -10 2 0 4 5 4 10 0 6 -5 10 -11 10 -5 0
-7 -4 -4 -10z"/>
<path d="M8524 5036 c-6 -24 -48 -67 -90 -92 -10 -7 -17 -14 -13 -18 6 -7 106
79 119 104 7 12 7 21 0 25 -5 3 -12 -6 -16 -19z"/>
<path d="M3672 5027 c-9 -22 -9 -33 0 -50 13 -22 13 -22 16 6 2 15 2 37 -1 50
-3 21 -4 21 -15 -6z"/>
<path d="M7227 5009 c4 -15 0 -22 -16 -26 -21 -5 -21 -5 3 -24 14 -11 31 -16
44 -12 24 6 28 18 11 28 -5 4 -14 18 -19 31 -12 29 -30 32 -23 3z"/>
<path d="M3893 4985 c0 -22 2 -30 4 -17 2 12 2 30 0 40 -3 9 -5 -1 -4 -23z"/>
<path d="M9120 4990 c0 -11 136 -8 147 4 3 3 -28 6 -70 6 -45 0 -77 -4 -77
-10z"/>
<path d="M2736 4974 c-9 -23 -7 -64 3 -64 7 0 21 46 21 71 0 15 -18 10 -24 -7z"/>
<path d="M7048 4963 c7 -3 16 -2 19 1 4 3 -2 6 -13 5 -11 0 -14 -3 -6 -6z"/>
<path d="M8072 4950 c0 -14 2 -19 5 -12 2 6 2 18 0 25 -3 6 -5 1 -5 -13z"/>
<path d="M7042 4878 c-64 -132 -71 -179 -58 -391 6 -92 16 -98 16 -10 0 69 1
71 35 94 19 13 37 30 40 37 2 7 -11 1 -31 -14 -29 -23 -37 -25 -45 -13 -11 17
-11 40 -1 54 4 6 34 10 67 10 33 0 103 11 155 24 81 20 101 22 137 12 33 -9
43 -18 52 -43 22 -63 13 -91 -62 -203 -22 -33 -31 -52 -19 -41 12 10 39 48 61
85 71 118 64 209 -18 231 -34 9 -51 7 -118 -16 -97 -33 -229 -40 -246 -12 -15
23 15 125 69 231 13 26 20 47 15 47 -5 0 -27 -37 -49 -82z"/>
<path d="M6975 4905 c-27 -25 -56 -45 -63 -45 -7 0 -24 -11 -38 -25 -30 -30
-62 -48 -73 -41 -12 8 -114 -56 -119 -74 -2 -9 0 -11 5 -4 17 21 79 51 113 53
23 1 45 12 66 32 16 16 33 27 35 24 3 -2 34 25 69 60 75 75 77 83 5 20z"/>
<path d="M3892 4915 c0 -16 2 -22 5 -12 2 9 2 23 0 30 -3 6 -5 -1 -5 -18z"/>
<path d="M3778 4917 c-11 -26 -10 -79 2 -97 14 -22 16 -11 10 55 -3 40 -8 54
-12 42z"/>
<path d="M7540 4901 c0 -11 -6 -21 -14 -21 -8 0 -16 -7 -20 -15 -4 -10 1 -15
16 -15 18 0 20 -4 15 -35 -7 -41 -1 -46 13 -10 6 16 14 23 25 19 16 -6 21 11
7 20 -5 3 -7 20 -4 38 2 18 1 30 -3 26 -5 -4 -14 -3 -22 3 -10 9 -13 7 -13
-10z"/>
<path d="M2937 4880 c-26 -16 -51 -30 -55 -30 -35 0 -127 -161 -147 -256 -7
-38 -23 -107 -33 -154 -11 -47 -23 -116 -27 -155 -4 -38 -15 -119 -25 -180
-35 -214 -48 -325 -70 -634 -7 -87 -15 -138 -23 -143 -9 -6 -9 -12 1 -28 16
-27 15 -73 -3 -118 -10 -24 -12 -38 -5 -40 13 -5 13 -89 0 -97 -13 -8 -13 -58
0 -71 7 -7 7 -56 -1 -155 -6 -79 -10 -155 -9 -169 1 -14 1 -114 1 -223 -1
-150 -5 -206 -16 -233 -8 -19 -19 -33 -24 -30 -13 9 -19 52 -9 70 6 10 5 16
-1 16 -19 0 -33 -42 -28 -81 5 -36 3 -39 -20 -39 -25 0 -25 2 -20 45 4 24 2
47 -3 50 -13 8 -30 -28 -30 -64 0 -16 -4 -32 -8 -35 -16 -10 -80 14 -84 32 -8
29 16 82 42 95 14 7 31 26 39 42 8 17 18 32 22 35 16 11 29 103 35 242 3 78 9
150 15 159 12 23 12 79 -1 79 -6 0 -10 30 -10 71 0 62 2 70 15 59 13 -11 15
-7 15 23 0 28 -3 35 -15 31 -13 -5 -14 43 -13 373 2 402 -3 459 -46 557 -29
66 -43 76 -113 86 -52 7 -61 6 -94 -16 -89 -61 -124 -133 -133 -275 -11 -162
-18 -229 -27 -229 -4 0 -7 -43 -7 -95 0 -75 -3 -101 -18 -122 -12 -19 -17 -44
-16 -83 2 -48 -24 -206 -35 -220 -2 -2 -9 2 -14 10 -8 11 -9 -1 -5 -40 4 -38
-2 -91 -20 -178 -27 -130 -106 -376 -129 -402 -16 -18 -79 -149 -80 -166 0 -6
-8 -22 -18 -37 -10 -15 -14 -27 -9 -27 14 0 39 32 47 60 4 14 28 61 53 105 69
125 110 247 178 540 3 11 11 56 19 100 8 44 21 114 29 155 26 136 54 305 53
325 0 11 5 56 11 100 6 44 14 127 18 185 10 164 26 197 126 267 44 30 87 27
125 -9 27 -25 58 -124 69 -218 10 -90 6 -1235 -5 -1313 -11 -78 -41 -139 -82
-169 -37 -28 -59 -67 -59 -106 0 -24 7 -33 35 -46 51 -25 122 -23 172 2 88 46
102 98 108 398 7 422 27 989 39 1104 23 232 37 352 45 390 31 145 50 261 57
340 8 94 61 304 97 383 27 60 35 70 75 87 49 22 61 19 103 -27 38 -40 67 -98
80 -162 12 -57 7 -227 -10 -391 -35 -323 -22 -466 57 -644 34 -77 34 -81 28
-170 -4 -50 -7 -102 -7 -116 1 -19 -2 -21 -8 -11 -6 10 -9 2 -8 -25 0 -21 -16
-97 -36 -169 -20 -71 -51 -186 -68 -255 -17 -69 -40 -154 -52 -190 -20 -59
-25 -65 -62 -78 -81 -28 -104 -42 -120 -73 -18 -34 -14 -89 8 -107 18 -15 105
-18 119 -4 7 7 27 12 45 12 36 0 44 15 13 25 -13 4 -20 15 -20 31 0 13 -4 24
-10 24 -5 0 -10 -10 -10 -22 0 -34 -15 -52 -35 -44 -15 5 -17 15 -12 59 l7 52
-20 -30 c-11 -17 -20 -40 -20 -53 0 -17 -5 -23 -17 -20 -23 4 -31 77 -11 89 7
5 43 17 79 28 62 20 66 23 86 68 32 75 49 137 57 215 2 14 15 47 30 71 25 43
39 92 16 57 -11 -17 -4 37 10 80 14 39 37 132 44 170 3 19 9 46 12 60 3 14 10
48 14 75 5 28 13 75 19 106 11 64 3 112 -27 163 -12 20 -26 52 -31 73 l-11 38
24 -30 c13 -16 27 -27 31 -23 8 8 -44 74 -56 71 -6 -2 -15 31 -25 92 -2 11 -6
63 -10 115 -4 68 -3 91 5 80 9 -13 11 -12 11 5 0 11 3 37 6 58 6 33 4 37 -10
31 -16 -6 -17 -1 -12 37 3 24 8 75 12 114 4 45 11 73 21 80 17 13 27 95 12 95
-5 0 -9 -16 -9 -35 0 -19 -3 -35 -7 -35 -10 0 -10 293 -1 300 4 3 8 31 9 63 1
31 6 54 11 51 4 -3 8 2 8 10 0 16 19 23 21 9 8 -54 7 -64 -7 -59 -16 6 -18
-17 -4 -49 7 -17 9 -16 10 10 1 26 3 27 10 10 8 -18 9 -18 10 5 4 51 31 -64
30 -125 -2 -82 -2 -92 6 -244 4 -95 3 -131 -5 -127 -14 9 -15 -66 -1 -80 12
-12 2 -74 -11 -74 -10 0 -1 -112 13 -158 15 -49 22 -31 10 25 -19 88 -22 114
-12 108 6 -3 11 2 11 12 2 32 17 -41 18 -90 0 -27 8 -63 16 -80 40 -89 65
-173 65 -226 1 -31 7 -67 15 -81 16 -29 19 -60 6 -60 -5 0 -12 8 -15 18 -3 9
-3 -2 0 -25 4 -29 0 -53 -15 -84 -12 -23 -21 -52 -21 -64 0 -12 -8 -48 -19
-81 -10 -32 -24 -81 -31 -109 -15 -62 -73 -251 -110 -365 -41 -122 -70 -231
-70 -260 0 -14 -9 -42 -20 -63 -20 -37 -20 -38 -1 -28 19 11 44 79 77 211 15
64 38 135 55 175 10 24 43 129 63 200 8 28 39 140 71 250 82 289 87 308 69
301 -7 -3 -18 3 -24 14 -13 24 -13 60 0 60 6 0 10 -5 10 -11 0 -15 56 -64 121
-105 72 -47 82 -63 81 -147 -1 -101 -46 -419 -86 -612 -34 -160 -61 -221 -112
-250 -53 -29 -87 -81 -80 -119 10 -47 34 -68 70 -60 39 8 58 24 28 24 -20 0
-21 4 -18 53 l3 52 -17 -39 c-13 -32 -18 -36 -23 -22 -15 38 -6 55 48 90 71
48 105 117 135 276 12 63 24 122 27 130 3 8 6 31 8 50 2 19 8 73 14 120 6 47
15 123 21 170 14 110 13 216 -3 245 -6 13 -41 47 -77 75 -95 76 -128 114 -159
183 -66 149 -87 301 -92 672 -2 99 -6 194 -10 210 -5 17 -13 58 -20 92 -9 50
-19 70 -48 99 -72 72 -156 84 -234 34z m63 -7 c-1 -19 -18 -33 -34 -27 -13 5
-14 9 -5 20 12 15 39 19 39 7z m96 -11 c14 -9 30 -57 16 -49 -5 4 -9 -21 -8
-63 0 -39 -1 -70 -4 -70 -3 0 -11 12 -17 28 -22 51 -60 111 -67 105 -3 -3 -6
8 -6 25 0 30 2 32 38 32 20 0 42 -4 48 -8z"/>
<path d="M3030 4841 c0 -17 23 -61 32 -61 17 0 7 46 -12 58 -11 7 -20 8 -20 3z"/>
<path d="M3842 4890 c0 -14 2 -19 5 -12 2 6 2 18 0 25 -3 6 -5 1 -5 -13z"/>
<path d="M2340 4865 c-12 -33 -10 -57 6 -62 15 -5 29 66 15 80 -7 7 -14 1 -21
-18z"/>
<path d="M7948 4879 c-10 -5 -18 -15 -18 -20 0 -6 5 -7 10 -4 14 9 12 -2 -4
-28 -8 -12 -15 -40 -15 -62 -1 -36 -6 -70 -26 -177 -8 -42 0 -88 16 -88 6 0 8
9 4 21 -4 11 -4 37 0 56 6 34 7 34 26 17 30 -27 22 -129 -10 -110 -6 4 -11 2
-11 -3 0 -6 9 -11 20 -11 27 0 24 -45 -7 -95 -11 -17 -14 -18 -23 -5 -7 11
-10 7 -10 -20 0 -61 -28 -151 -82 -260 -58 -120 -83 -156 -93 -139 -10 15 -65
3 -86 -19 -9 -10 -20 -28 -24 -40 -9 -30 11 -88 39 -110 21 -16 23 -25 19 -77
-2 -39 5 -104 22 -184 14 -68 23 -126 21 -128 -2 -2 -9 3 -16 12 -18 22 -38
18 -38 -7 0 -13 -3 -33 -7 -45 -6 -20 -4 -23 18 -23 19 0 27 -6 30 -22 2 -14
5 -7 6 16 1 53 12 39 25 -35 11 -57 6 -192 -7 -205 -3 -3 -14 -1 -25 5 -21 11
-52 5 -52 -10 0 -5 6 -9 14 -9 26 0 44 -27 38 -57 -7 -36 -31 -73 -47 -73 -19
0 -35 24 -26 39 6 9 11 10 15 2 10 -16 26 -14 26 4 0 8 4 15 9 15 11 0 2 48
-11 56 -5 3 -20 -2 -33 -10 -29 -19 -29 -20 -11 32 8 22 16 73 18 111 3 65 5
71 25 71 20 0 20 2 -9 30 -25 25 -29 37 -26 65 3 29 1 34 -13 30 -13 -5 -21 7
-38 57 -12 34 -21 72 -21 85 0 21 2 22 25 11 37 -17 55 6 62 76 7 69 -12 99
-62 94 -29 -3 -30 -2 -31 41 -1 60 14 148 32 190 55 128 51 123 79 105 15 -10
32 -13 42 -9 16 7 15 9 -6 14 -36 10 -47 33 -31 70 7 17 18 31 26 31 18 0 37
-37 24 -45 -5 -3 -10 1 -10 10 0 23 -24 13 -28 -12 -4 -24 37 -40 50 -20 15
23 9 76 -9 86 -17 10 -17 12 1 43 68 118 75 135 101 238 35 136 6 263 -69 309
-36 23 -38 23 -89 6 -29 -9 -58 -22 -65 -28 -30 -25 -75 -102 -87 -150 -7 -29
-22 -74 -33 -102 -11 -27 -34 -85 -50 -128 -17 -43 -46 -104 -66 -135 -20 -31
-58 -104 -86 -162 -107 -220 -133 -270 -152 -287 -14 -13 -21 -14 -27 -5 -8
14 -39 -15 -60 -55 -13 -25 -2 -56 24 -71 14 -7 13 -16 -5 -74 -21 -69 -21
-128 0 -287 6 -41 8 -77 5 -80 -3 -3 -16 8 -29 23 -20 26 -24 27 -43 15 -23
-14 -43 -50 -43 -75 0 -30 31 -82 52 -87 17 -5 20 -11 14 -38 -3 -17 -6 -44
-6 -59 0 -23 -3 -27 -24 -23 -51 10 -71 -72 -29 -119 25 -28 51 -23 45 7 -2
14 0 25 6 25 6 0 14 -17 17 -37 3 -21 10 -61 16 -90 12 -62 3 -123 -19 -123
-21 0 -41 -30 -42 -62 0 -19 9 -34 30 -50 22 -16 30 -30 30 -52 -1 -33 -23
-81 -37 -81 -4 0 -7 -11 -6 -24 1 -13 -7 -41 -18 -63 -17 -33 -23 -37 -35 -27
-16 13 -29 6 -29 -18 0 -9 -6 -18 -13 -20 -8 -3 -10 2 -6 14 5 16 4 16 -10 -1
-19 -23 -21 -57 -5 -73 9 -9 9 -23 0 -56 -7 -24 -12 -53 -11 -63 4 -34 0 -43
-15 -38 -9 4 -19 -3 -26 -19 -15 -34 -5 -59 23 -55 26 4 36 -17 12 -26 -22 -9
-62 19 -74 50 -6 14 -10 46 -10 71 0 40 2 45 20 40 11 -3 29 2 41 12 18 15 19
20 8 44 -7 15 -18 27 -26 27 -20 0 -17 13 24 95 34 69 40 75 63 70 27 -5 56
12 61 35 2 8 -1 29 -5 47 -5 24 -11 30 -23 26 -13 -5 -15 -2 -9 18 18 59 18
150 2 208 -9 34 -14 71 -10 86 5 19 1 32 -14 48 -25 28 -42 87 -42 152 0 41
34 167 67 245 8 21 3 149 -8 176 -7 20 -5 23 19 26 36 4 56 46 47 98 -8 47
-41 82 -55 60 -23 -36 -8 26 20 85 57 119 65 230 23 313 -30 58 -40 67 -96 77
-35 7 -40 5 -79 -36 -23 -24 -39 -39 -35 -34 3 6 2 26 -2 45 -7 33 -8 32 -20
-34 -9 -51 -9 -71 -1 -76 8 -5 7 -25 -5 -71 -18 -70 -32 -100 -81 -174 -20
-31 -37 -73 -43 -109 -11 -57 -22 -76 -48 -76 -22 0 -43 -32 -43 -65 0 -27 7
-40 30 -57 36 -26 39 -59 12 -133 -24 -70 -30 -76 -57 -69 -13 3 -30 2 -37 -2
-9 -6 -6 -10 12 -14 14 -3 27 -15 29 -25 3 -17 1 -18 -13 -6 -13 11 -19 11
-33 0 -15 -12 -16 -12 -10 6 6 16 3 15 -13 -5 -24 -30 -25 -53 -5 -74 20 -19
19 -28 -6 -60 -15 -19 -26 -25 -44 -20 -14 3 -34 -1 -50 -12 -25 -17 -27 -16
-47 4 -20 20 -20 22 -5 46 12 17 22 23 34 19 12 -5 15 -2 10 10 -3 9 -2 19 3
22 9 6 11 0 14 -44 1 -20 24 -25 41 -11 21 18 19 35 -2 19 -10 -7 -8 -2 5 12
19 22 21 30 13 52 -12 32 -18 33 -44 10 -20 -18 -20 -18 -1 15 12 21 25 31 35
29 12 -3 15 1 11 18 -2 12 4 37 13 55 14 26 21 31 41 26 50 -13 87 70 48 108
-8 9 -18 16 -22 16 -4 0 -7 54 -7 120 l-1 121 27 -6 c20 -5 32 0 48 16 27 29
27 63 0 101 -20 28 -22 28 -34 11 -8 -11 -18 -35 -23 -54 l-10 -34 -1 31 c-1
17 2 34 6 38 4 4 8 22 9 40 0 20 17 56 47 100 43 62 47 74 47 126 0 32 3 65 6
74 3 9 1 16 -4 16 -9 0 -21 -41 -37 -133 -3 -14 -23 -55 -45 -90 -61 -97 -71
-143 -73 -340 -2 -139 -6 -178 -19 -201 -10 -16 -15 -33 -12 -37 6 -11 -28
-77 -84 -164 -108 -168 -119 -191 -142 -325 -40 -224 -59 -293 -111 -408 -25
-55 -158 -192 -187 -192 -11 0 -24 -4 -27 -10 -8 -13 -82 -13 -90 0 -3 6 -24
10 -45 10 -30 0 -43 -6 -59 -26 -43 -54 -13 -104 61 -104 44 0 164 24 204 42
59 25 162 118 191 173 9 16 22 35 29 43 8 7 29 41 48 75 50 91 87 208 102 327
8 67 33 111 144 260 70 94 92 133 122 215 51 139 68 215 72 325 3 100 11 124
66 205 23 34 63 149 87 252 3 11 18 33 33 48 24 23 34 26 64 21 29 -6 38 -14
60 -58 45 -90 35 -168 -49 -367 -28 -66 -34 -133 -20 -201 5 -19 9 -75 10
-125 1 -73 -3 -101 -21 -150 -44 -114 -49 -148 -36 -224 10 -58 9 -74 -5 -109
-19 -51 -13 -67 32 -86 21 -9 35 -22 36 -33 0 -10 4 -45 8 -77 5 -38 3 -79 -4
-110 -14 -57 -65 -182 -97 -236 -25 -42 -58 -168 -58 -222 0 -44 21 -93 45
-102 37 -14 75 -6 91 19 13 20 15 40 10 107 -6 77 -5 86 18 123 14 22 30 51
37 65 6 14 15 32 20 40 42 74 79 166 89 220 16 89 12 244 -10 373 -10 59 -16
115 -14 125 2 9 5 33 8 52 2 19 11 55 20 80 24 67 30 140 18 212 -6 35 -14 87
-17 117 -5 46 -4 53 9 47 9 -3 23 -9 32 -12 12 -5 15 -2 12 12 -2 13 -12 19
-30 19 -24 -1 -27 2 -22 25 11 49 98 266 128 320 17 30 47 91 67 135 31 71 39
80 65 83 16 2 33 7 37 11 4 4 -6 6 -23 3 -40 -6 -39 10 5 78 20 30 52 88 72
128 21 41 39 68 43 62 5 -8 9 -6 13 5 5 10 3 14 -4 9 -20 -12 10 103 50 191
10 22 24 59 31 83 17 54 50 91 90 98 25 6 29 4 24 -10 -3 -9 -10 -16 -16 -16
-5 0 -7 -4 -3 -9 3 -5 1 -12 -5 -16 -5 -3 -10 -15 -10 -26 0 -24 20 -15 20 9
0 9 8 26 17 37 15 19 15 19 10 -11 -3 -18 -9 -43 -13 -58 -3 -15 -2 -26 4 -26
5 0 12 27 16 59 4 33 13 65 22 72 21 17 28 4 16 -28 -6 -15 -13 -44 -16 -63
-5 -29 -4 -31 3 -10 5 14 12 38 16 54 3 15 8 26 11 23 3 -3 -1 -37 -9 -76 -10
-46 -12 -83 -7 -106 11 -48 18 -53 25 -19 17 84 22 90 23 29 0 -33 5 -72 11
-87 12 -31 0 -73 -39 -143 -12 -22 -31 -57 -43 -77 -11 -21 -24 -38 -29 -38
-4 0 -9 26 -9 58 -1 55 -2 56 -9 17 -4 -21 -5 -56 -3 -77 5 -30 -3 -54 -41
-130 -70 -143 -89 -225 -90 -398 -1 -154 0 -157 68 -346 17 -48 26 -96 27
-147 3 -72 1 -78 -36 -138 -21 -34 -54 -94 -73 -133 -35 -70 -35 -73 -33 -181
7 -261 11 -231 -43 -320 -27 -44 -52 -82 -56 -85 -14 -10 -20 -59 -11 -83 7
-18 19 -26 52 -31 38 -6 45 -4 66 20 13 15 28 44 33 64 5 20 19 45 30 55 11
10 20 24 20 30 0 7 6 18 14 24 51 43 74 155 55 271 -14 89 -1 182 32 225 11
13 19 28 19 34 0 5 11 27 25 47 39 58 69 175 69 269 -1 49 -29 231 -59 370
-19 88 -19 149 -1 206 8 24 17 56 20 72 8 35 18 34 41 -5 21 -38 61 -78 77
-78 6 0 -10 22 -35 49 -26 27 -49 60 -52 73 -4 16 13 63 58 158 35 74 67 149
71 167 4 18 18 47 30 66 61 89 77 270 38 415 -18 65 -20 87 -11 103 9 18 13
19 21 8 6 -10 7 -7 3 10 -6 20 -4 23 10 18 9 -4 19 -7 21 -7 2 0 4 -7 4 -15 0
-8 -4 -15 -9 -15 -5 0 -8 -30 -8 -67 l0 -68 13 48 c6 26 10 56 7 67 -3 11 0
20 6 20 20 0 29 -63 12 -90 -9 -13 -11 -21 -6 -18 6 4 17 3 25 -2 21 -13 16
-274 -6 -345 -18 -55 -28 -332 -13 -341 5 -3 9 -16 9 -30 0 -48 65 -257 90
-289 4 -5 15 -34 25 -63 21 -64 14 -136 -20 -227 -21 -56 -36 -114 -71 -275
-10 -44 -13 -90 -8 -145 5 -71 11 -106 30 -205 9 -43 11 -89 3 -84 -4 2 -10
-3 -13 -12 -10 -27 -7 -59 10 -82 9 -13 13 -31 9 -45 -14 -49 -48 -127 -55
-127 -14 0 -70 -96 -70 -118 0 -34 18 -26 28 12 6 19 27 60 49 92 21 33 45 78
52 100 16 49 20 56 45 70 11 6 20 15 21 20 1 5 0 6 -2 2 -7 -12 -33 -10 -33 2
0 5 11 12 25 16 20 5 25 12 25 38 0 35 -24 76 -45 76 -25 0 -77 318 -56 344 4
6 11 40 15 74 3 35 8 67 11 72 3 5 19 3 35 -3 38 -14 50 -3 57 52 6 45 -8 71
-38 71 -24 0 -23 3 0 68 25 67 35 164 23 225 -9 43 -8 47 8 42 24 -8 50 30 50
71 0 24 -8 39 -31 58 -31 26 -39 26 -71 -1 -15 -14 -19 -8 -38 59 -49 161 -59
371 -26 525 20 93 28 268 15 323 -6 25 -12 50 -13 55 -6 34 -31 74 -55 88 -33
19 -49 21 -73 6z m-168 -199 c19 -37 19 -42 5 -68 l-15 -27 6 28 c4 18 2 27
-6 27 -7 0 -10 6 -7 14 3 8 2 16 -2 18 -5 2 -12 13 -15 26 -12 37 12 25 34
-18z m166 -5 c4 -14 4 -29 0 -32 -3 -4 -6 2 -7 13 0 18 -1 18 -9 -1 -7 -17 -9
-15 -9 13 -1 38 16 43 25 7z m-137 -127 c-1 -18 -5 -46 -9 -63 -6 -24 -8 -17
-9 33 0 35 3 62 9 62 6 0 9 -15 9 -32z m-157 -669 c-4 -34 -1 -41 17 -46 22
-6 27 -18 11 -28 -19 -12 -60 81 -45 104 13 22 20 10 17 -30z m522 -87 c-4
-28 -2 -41 10 -51 13 -11 16 -9 22 13 3 14 10 26 15 26 14 0 11 -24 -5 -46
-12 -15 -18 -17 -33 -8 -33 20 -43 104 -13 104 6 0 8 -14 4 -38z m-1100 -124
c-3 -4 -10 -6 -15 -3 -11 7 -12 49 -2 59 9 9 24 -44 17 -56z m510 -3 c-14 -21
-15 -31 -6 -50 7 -14 16 -25 22 -25 5 0 10 -9 10 -20 0 -41 -38 -8 -54 46 -9
28 10 74 29 74 14 0 14 -3 -1 -25z m-649 -189 c-6 -28 -3 -36 14 -45 24 -13
28 -31 6 -31 -21 0 -48 57 -41 86 10 38 28 29 21 -10z m-335 -51 c10 -12 8
-14 -9 -10 -12 2 -25 -3 -31 -13 -9 -16 -9 -16 -10 0 0 13 20 34 36 38 1 0 7
-7 14 -15z m-20 -70 c14 -19 14 -19 -2 -6 -10 7 -18 18 -18 24 0 6 1 8 3 6 1
-2 9 -13 17 -24z m1570 -24 c-15 -30 -12 -49 10 -56 25 -8 27 -38 3 -33 -29 5
-45 50 -30 81 6 15 16 27 20 27 4 0 3 -9 -3 -19z m-1149 -153 c-10 -42 -4 -58
20 -58 20 0 26 -15 9 -25 -29 -18 -74 81 -50 110 19 22 29 9 21 -27z m-549
-130 c-7 -7 -12 -8 -12 -2 0 14 12 26 19 19 2 -3 -1 -11 -7 -17z m1208 -17 c0
-12 -20 -25 -27 -18 -7 7 6 27 18 27 5 0 9 -4 9 -9z m-56 -47 c-5 -27 -2 -40
13 -57 33 -36 33 -42 8 -95 -28 -59 -30 -75 -21 -242 5 -97 4 -120 -5 -103
-15 28 -45 42 -34 16 4 -10 10 -27 13 -38 5 -17 3 -18 -10 -8 -16 14 -28 8
-28 -15 0 -8 6 -12 15 -8 9 3 15 0 15 -9 0 -18 -24 -20 -38 -2 -7 8 -8 26 -2
50 9 44 6 47 -14 10 -16 -32 -10 -93 10 -93 25 0 25 -21 0 -55 -15 -19 -29
-48 -32 -65 -8 -36 -24 -50 -24 -21 0 28 -34 45 -50 26 -11 -13 -10 -14 4 -9
20 8 22 -19 2 -35 -10 -8 -16 -8 -24 1 -22 27 -18 68 8 98 11 13 20 27 20 31
0 4 6 14 13 21 7 7 24 31 37 53 21 34 25 52 25 127 l0 87 30 -2 c22 -1 29 2
27 12 -2 8 2 25 9 37 18 35 0 94 -38 120 l-31 21 19 44 c18 40 80 139 87 139
2 0 0 -16 -4 -36z m-634 -63 c-5 -11 -7 -28 -3 -38 5 -14 3 -16 -7 -6 -14 13
-6 63 11 63 6 0 6 -6 -1 -19z m-600 -41 c0 -31 -16 -41 -26 -15 -8 19 2 45 16
45 5 0 10 -13 10 -30z m-114 -26 c-4 -9 -9 -15 -11 -12 -3 3 -3 13 1 22 4 9 9
15 11 12 3 -3 3 -13 -1 -22z m62 -87 c-18 -37 -37 -67 -42 -67 -17 0 -56 -43
-56 -60 0 -9 9 -25 20 -35 26 -23 25 -37 -6 -137 -32 -102 -41 -113 -72 -88
-19 16 -22 26 -17 49 4 20 11 28 20 25 42 -17 77 58 48 104 -12 20 -12 36 3
132 l18 109 30 3 c23 2 35 11 44 32 12 24 16 26 28 14 13 -13 11 -23 -18 -81z
m1193 -30 c-13 -13 -15 11 -4 40 7 16 8 15 11 -6 2 -13 -1 -28 -7 -34z m49 3
c5 -32 -1 -51 -16 -57 -9 -3 -20 0 -25 8 -13 21 -11 29 6 23 11 -5 13 -2 9 10
-8 21 4 52 15 40 5 -5 10 -16 11 -24z m-689 -24 c14 -15 11 -26 -6 -20 -18 7
-29 40 -18 56 5 9 9 7 11 -7 2 -11 8 -24 13 -29z m1299 -42 c0 -7 -6 -11 -14
-8 -8 3 -14 14 -13 24 1 14 4 16 14 8 7 -6 13 -17 13 -24z m-1917 -34 c3 -11
1 -20 -4 -20 -5 0 -9 9 -9 20 0 11 2 20 4 20 2 0 6 -9 9 -20z m766 -55 c4 -17
0 -35 -9 -35 -5 0 -10 12 -10 26 0 21 14 28 19 9z m-859 -232 c0 -28 -16 -47
-34 -40 -21 8 -20 33 2 46 25 15 32 13 32 -6z m-32 -69 c1 -1 -10 -25 -25 -54
-24 -46 -28 -50 -39 -35 -7 9 -17 14 -23 10 -17 -10 -13 6 6 27 9 10 28 18 42
18 25 1 25 1 7 15 -11 9 -16 20 -12 31 5 14 9 14 24 3 9 -7 18 -14 20 -15z
m-118 -108 c0 -3 -4 -8 -10 -11 -5 -3 -10 -1 -10 4 0 6 5 11 10 11 6 0 10 -2
10 -4z m-15 -36 c23 -25 12 -40 -58 -73 -63 -31 -122 -43 -131 -28 -11 17 -29
13 -22 -4 4 -11 -2 -15 -28 -15 -38 0 -82 39 -73 64 10 25 27 19 27 -9 0 -14
3 -25 8 -25 24 1 52 14 52 26 0 15 58 14 108 -2 25 -7 52 10 52 34 0 16 28 52
40 52 4 0 15 -9 25 -20z m828 -41 c-8 -29 -13 -23 -13 14 0 22 3 28 9 18 5 -7
6 -22 4 -32z m-913 1 c0 -5 -4 -10 -10 -10 -5 0 -10 5 -10 10 0 6 5 10 10 10
6 0 10 -4 10 -10z m934 -135 c3 -8 1 -15 -4 -15 -6 0 -10 7 -10 15 0 8 2 15 4
15 2 0 6 -7 10 -15z"/>
<path d="M6130 2340 c0 -5 5 -10 11 -10 5 0 7 5 4 10 -3 6 -8 10 -11 10 -2 0
-4 -4 -4 -10z"/>
<path d="M5955 2110 c-3 -5 1 -10 10 -10 9 0 13 5 10 10 -3 6 -8 10 -10 10 -2
0 -7 -4 -10 -10z"/>
<path d="M8110 4870 c0 -19 3 -21 12 -12 9 9 9 15 0 24 -9 9 -12 7 -12 -12z"/>
<path d="M2625 4837 c-4 -10 -5 -21 -1 -24 10 -10 18 4 13 24 -4 17 -4 17 -12
0z"/>
<path d="M8386 4835 c-11 -8 -18 -17 -15 -19 2 -3 15 4 29 14 14 11 21 20 15
19 -5 0 -19 -6 -29 -14z"/>
<path d="M7962 4785 c0 -16 2 -22 5 -12 2 9 2 23 0 30 -3 6 -5 -1 -5 -18z"/>
<path d="M8330 4795 c-17 -10 -20 -14 -9 -15 9 0 22 7 29 15 15 18 12 18 -20
0z"/>
<path d="M2460 4771 c0 -19 26 -48 36 -39 7 8 -14 58 -26 58 -5 0 -10 -8 -10
-19z"/>
<path d="M8248 4784 c-5 -4 -8 -19 -8 -33 1 -23 2 -24 11 -8 11 19 9 53 -3 41z"/>
<path d="M6891 4749 c-13 -11 -30 -18 -38 -15 -7 3 -13 -1 -13 -8 0 -20 34 -9
61 20 27 29 23 31 -10 3z"/>
<path d="M6920 4700 c-14 -10 -22 -21 -19 -24 3 -3 16 5 29 19 28 30 24 32
-10 5z"/>
<path d="M3830 4695 c0 -8 5 -15 10 -15 6 0 10 7 10 15 0 8 -4 15 -10 15 -5 0
-10 -7 -10 -15z"/>
<path d="M5658 4703 c-33 -2 -58 -9 -58 -15 0 -7 17 -9 53 -4 28 3 65 6 80 6
16 0 26 4 22 10 -3 6 -14 9 -23 8 -9 -1 -43 -3 -74 -5z"/>
<path d="M8005 4679 c-4 -6 -5 -12 -2 -15 2 -3 7 2 10 11 7 17 1 20 -8 4z"/>
<path d="M3166 4664 c-11 -30 -18 -250 -7 -234 9 12 11 9 12 -15 1 -29 1 -30
9 -5 11 35 12 96 1 85 -5 -6 -11 -19 -14 -30 -3 -13 -5 -10 -6 11 0 17 6 48
14 67 16 39 21 137 6 137 -5 0 -12 -7 -15 -16z"/>
<path d="M3678 4674 c-5 -4 -8 -21 -8 -38 1 -26 2 -28 11 -13 11 19 8 63 -3
51z"/>
<path d="M2580 4656 c0 -8 5 -18 10 -21 6 -3 10 1 10 9 0 8 -4 18 -10 21 -5 3
-10 -1 -10 -9z"/>
<path d="M8946 4662 c-4 -7 -18 -12 -32 -12 -13 0 -24 -4 -24 -10 0 -5 14 -7
33 -3 39 7 40 8 35 24 -3 10 -6 10 -12 1z"/>
<path d="M3389 4653 c-7 -45 -7 -69 1 -82 7 -11 9 0 10 37 0 28 -2 52 -5 52
-3 0 -6 -3 -6 -7z"/>
<path d="M8984 4653 c4 -5 32 -8 62 -8 30 0 54 3 54 8 0 4 -28 7 -62 7 -34 0
-58 -3 -54 -7z"/>
<path d="M3303 4605 c0 -27 2 -38 4 -22 2 15 2 37 0 50 -2 12 -4 0 -4 -28z"/>
<path d="M3497 4643 c-11 -10 -8 -63 3 -63 6 0 10 16 10 35 0 36 -2 40 -13 28z"/>
<path d="M3127 4578 c8 -46 13 -48 13 -5 0 21 -4 37 -10 37 -5 0 -7 -14 -3
-32z"/>
<path d="M7096 4595 c-11 -8 -15 -15 -9 -15 6 0 16 7 23 15 16 19 11 19 -14 0z"/>
<path d="M7613 4602 c-13 -2 -23 -10 -23 -17 0 -9 6 -12 15 -8 16 6 55 -22 55
-40 0 -5 9 -22 21 -38 19 -26 19 -34 9 -84 -6 -30 -16 -57 -21 -60 -13 -9 -11
-43 3 -47 31 -11 55 172 29 219 -7 14 -7 24 2 33 10 10 8 12 -6 7 -12 -5 -26
1 -40 16 -13 14 -31 21 -44 19z"/>
<path d="M2668 4594 c-5 -4 -8 -16 -8 -28 0 -14 3 -17 11 -9 6 6 9 19 7 28 -1
9 -6 13 -10 9z"/>
<path d="M6720 4590 c0 -5 8 -10 17 -10 13 0 9 -7 -15 -29 -18 -17 -37 -42
-42 -56 -7 -17 -15 -25 -25 -22 -10 5 -13 -2 -11 -30 1 -20 7 -38 14 -41 7 -2
12 -10 12 -18 0 -9 -4 -13 -9 -9 -5 3 -13 0 -16 -6 -4 -6 2 -13 15 -16 18 -5
20 -10 14 -35 -4 -22 -3 -29 7 -26 15 5 81 -65 77 -82 -2 -7 3 -15 10 -17 6
-3 12 0 12 6 0 6 5 11 10 11 6 0 10 -8 8 -17 -3 -19 20 -26 24 -8 1 6 19 18
40 27 26 12 38 23 38 38 0 11 9 38 20 60 37 72 25 161 -29 219 -31 33 -45 41
-89 47 -29 4 -55 11 -58 15 -7 12 -24 11 -24 -1z m108 -58 c33 -29 44 -46 48
-77 l6 -40 -33 55 c-23 36 -42 56 -57 58 -15 2 -22 -2 -22 -12 0 -9 3 -16 8
-16 4 0 13 -10 21 -22 10 -18 11 -20 0 -10 -15 14 -69 17 -69 3 0 -5 7 -11 15
-15 8 -3 15 -13 15 -23 -1 -17 -1 -17 -11 1 -15 25 -29 4 -29 -44 -1 -46 -15
-21 -24 40 -7 54 15 108 54 127 33 17 29 18 78 -25z"/>
<path d="M7129 4573 c-13 -16 -12 -17 4 -4 9 7 17 15 17 17 0 8 -8 3 -21 -13z"/>
<path d="M7199 4573 c-13 -16 -12 -17 4 -4 9 7 17 15 17 17 0 8 -8 3 -21 -13z"/>
<path d="M3840 4555 c0 -8 2 -15 4 -15 2 0 6 7 10 15 3 8 1 15 -4 15 -6 0 -10
-7 -10 -15z"/>
<path d="M6507 4550 c-6 -24 12 -50 35 -50 13 0 9 18 -6 27 -8 4 -16 17 -18
28 -3 18 -5 17 -11 -5z"/>
<path d="M7044 4548 l-19 -23 23 19 c12 11 22 21 22 23 0 8 -8 2 -26 -19z"/>
<path d="M7081 4539 c-13 -11 -22 -21 -20 -23 2 -3 15 4 28 15 13 11 22 21 20
23 -2 3 -15 -4 -28 -15z"/>
<path d="M7920 4553 c0 -5 5 -15 10 -23 8 -12 10 -11 10 8 0 12 -4 22 -10 22
-5 0 -10 -3 -10 -7z"/>
<path d="M8406 4545 c-3 -9 -6 -22 -5 -28 0 -7 5 -1 10 12 5 13 8 26 5 28 -2
2 -6 -3 -10 -12z"/>
<path d="M7149 4529 c-23 -19 -23 -20 -2 -10 12 6 25 16 28 21 10 16 -1 12
-26 -11z"/>
<path d="M7229 4533 c-13 -17 -13 -17 6 -3 11 8 22 16 24 17 2 2 0 3 -6 3 -6
0 -17 -8 -24 -17z"/>
<path d="M2313 4492 c-74 -52 -66 -59 12 -11 36 23 65 43 65 45 0 12 -31 -2
-77 -34z"/>
<path d="M6650 4511 c0 -5 5 -13 10 -16 6 -3 10 -2 10 4 0 5 -4 13 -10 16 -5
3 -10 2 -10 -4z"/>
<path d="M7179 4493 l-24 -26 27 19 c15 10 28 22 28 27 0 12 -5 8 -31 -20z"/>
<path d="M7179 4433 c-57 -48 -123 -102 -147 -120 -24 -18 -38 -33 -32 -33 11
0 73 45 111 80 19 19 125 110 159 139 14 11 22 20 19 21 -3 0 -52 -39 -110
-87z"/>
<path d="M7569 4515 c-4 -15 -7 -23 -24 -60 l-19 -40 -7 30 c-6 26 -7 23 -9
-20 -1 -27 -2 -74 0 -104 2 -65 -24 -131 -52 -131 -10 0 -18 -5 -18 -11 0 -7
10 -9 25 -7 60 12 6 -67 -83 -119 -57 -34 -47 -40 14 -9 87 44 134 113 134
198 1 24 7 54 15 68 20 34 18 42 -5 35 -11 -3 -20 -3 -20 0 0 4 21 40 46 81
25 40 43 78 39 84 -6 10 -34 14 -36 5z"/>
<path d="M7037 4503 c-4 -3 -7 -11 -7 -17 0 -6 5 -5 12 2 6 6 9 14 7 17 -3 3
-9 2 -12 -2z"/>
<path d="M6357 4489 c-52 -30 -65 -166 -23 -255 23 -50 96 -123 125 -125 29
-2 56 3 68 13 39 32 35 176 -7 271 -17 37 -25 46 -43 44 -14 -1 -21 3 -19 12
8 38 -59 65 -101 40z m81 -26 c2 -8 -5 -13 -16 -13 -25 0 -32 -18 -33 -83 -1
-47 -2 -49 -10 -22 -5 17 -8 46 -8 65 1 19 1 40 -1 45 -5 21 1 26 32 23 17 -2
33 -9 36 -15z m-91 -135 c-3 -8 -6 -5 -6 6 -1 11 2 17 5 13 3 -3 4 -12 1 -19z"/>
<path d="M7055 4455 c-27 -24 -47 -46 -45 -49 3 -2 28 18 57 45 64 61 56 64
-12 4z"/>
<path d="M8000 4485 c0 -8 4 -15 10 -15 5 0 7 7 4 15 -4 8 -8 15 -10 15 -2 0
-4 -7 -4 -15z"/>
<path d="M7251 4429 c-47 -34 -99 -74 -115 -90 -17 -16 -34 -29 -37 -29 -3 0
-25 -18 -50 -40 -24 -22 -47 -40 -51 -40 -5 0 -8 -5 -8 -11 0 -6 15 1 33 16
52 43 201 157 261 200 30 22 55 43 56 48 0 10 2 12 -89 -54z"/>
<path d="M2307 4413 c-37 -20 -66 -38 -63 -40 5 -5 146 65 146 72 0 10 -16 4
-83 -32z"/>
<path d="M7998 4444 c-5 -4 -8 -20 -8 -36 0 -16 -11 -54 -25 -85 -14 -30 -24
-58 -21 -60 7 -7 65 88 72 117 3 14 10 36 15 50 9 23 8 23 -5 7 -13 -17 -15
-17 -18 -2 -1 9 -6 13 -10 9z"/>
<path d="M8410 4440 c0 -5 5 -10 10 -10 6 0 10 5 10 10 0 6 -4 10 -10 10 -5 0
-10 -4 -10 -10z"/>
<path d="M2230 4430 c-9 -6 -10 -10 -3 -10 6 0 15 5 18 10 8 12 4 12 -15 0z"/>
<path d="M3336 4424 c-10 -25 -7 -84 4 -84 6 0 10 23 10 50 0 52 -4 61 -14 34z"/>
<path d="M3467 4433 c-4 -3 -7 -20 -7 -36 0 -38 12 -28 17 13 3 31 1 35 -10
23z"/>
<path d="M7078 4413 c-55 -46 -72 -63 -67 -67 2 -2 29 18 59 45 58 52 65 68 8
22z"/>
<path d="M3616 4402 c-5 -18 -5 -36 -2 -39 7 -7 19 43 13 59 -2 7 -7 -2 -11
-20z"/>
<path d="M9330 4403 c0 -5 38 -9 85 -10 51 -1 83 2 80 8 -7 11 -165 12 -165 2z"/>
<path d="M2470 4356 c0 -9 5 -16 10 -16 6 0 10 4 10 9 0 6 -4 13 -10 16 -5 3
-10 -1 -10 -9z"/>
<path d="M3184 4348 c3 -13 6 -30 7 -38 0 -10 3 -8 8 5 9 23 3 55 -11 55 -6 0
-8 -10 -4 -22z"/>
<path d="M3508 4364 c-5 -4 -8 -16 -8 -28 0 -14 3 -17 11 -9 6 6 9 19 7 28 -1
9 -6 13 -10 9z"/>
<path d="M7262 4344 c-18 -14 -30 -29 -27 -34 8 -14 -198 -217 -243 -240 -24
-12 -42 -24 -39 -26 2 -3 24 5 47 17 35 18 43 20 51 8 7 -10 8 -7 7 11 -2 19
2 25 15 24 9 -1 17 5 17 13 0 18 100 124 110 118 4 -3 11 7 15 22 5 21 8 24
16 12 7 -12 9 -12 9 2 0 9 14 33 30 54 43 54 41 58 -8 19z"/>
<path d="M7576 4309 c-15 -29 -25 -53 -23 -55 5 -5 67 84 67 96 0 24 -19 6
-44 -41z"/>
<path d="M7630 4339 c0 -5 5 -7 10 -4 6 3 10 8 10 11 0 2 -4 4 -10 4 -5 0 -10
-5 -10 -11z"/>
<path d="M3140 4321 c0 -10 7 -32 15 -47 l15 -29 0 48 c0 35 -4 47 -15 47 -8
0 -15 -8 -15 -19z"/>
<path d="M7353 4308 c-17 -22 -22 -58 -8 -58 7 0 15 15 18 33 5 37 4 42 -10
25z"/>
<path d="M7476 4302 c-4 -13 -5 -26 -2 -29 10 -11 18 4 14 29 l-4 23 -8 -23z"/>
<path d="M7611 4302 c-6 -12 -11 -27 -11 -34 1 -7 8 0 16 15 9 16 13 31 11 34
-3 2 -10 -4 -16 -15z"/>
<path d="M3841 4269 c0 -13 4 -33 9 -44 7 -14 8 -8 3 20 -7 46 -13 59 -12 24z"/>
<path d="M7095 4249 c-27 -23 -69 -52 -93 -66 -24 -14 -41 -28 -38 -31 7 -7
92 50 146 97 59 52 49 52 -15 0z"/>
<path d="M3110 4229 c0 -22 4 -38 8 -35 8 5 4 76 -4 76 -2 0 -4 -18 -4 -41z"/>
<path d="M7960 4240 c-7 -17 -20 -34 -28 -39 -14 -8 -14 -12 1 -35 10 -14 22
-26 27 -26 15 0 12 11 -7 25 -17 12 -16 16 6 55 13 23 21 43 18 46 -2 3 -10
-9 -17 -26z"/>
<path d="M3451 4245 c-1 -11 -4 -31 -7 -45 -5 -22 -4 -23 6 -7 6 10 9 30 7 45
-3 18 -5 20 -6 7z"/>
<path d="M8310 4235 c0 -34 -18 -105 -26 -105 -3 0 -14 10 -25 23 l-19 22 -30
-35 c-20 -23 -30 -44 -29 -65 2 -27 2 -27 6 -5 8 45 25 48 17 3 -6 -41 -5 -43
30 -59 30 -15 36 -23 36 -50 0 -18 18 -91 41 -161 31 -99 40 -139 36 -176 -5
-52 -14 -69 -26 -48 -6 9 -18 11 -36 7 -15 -4 -25 -10 -21 -13 7 -7 -12 -33
-25 -33 -5 0 -6 8 -3 18 5 14 4 15 -5 2 -12 -16 -15 -69 -5 -94 15 -40 74 1
74 52 0 13 4 21 9 18 14 -9 -6 -82 -45 -165 -19 -41 -39 -90 -44 -110 -4 -20
-20 -63 -34 -97 -14 -33 -27 -84 -30 -113 -3 -29 -12 -63 -20 -76 -21 -31 -21
-44 0 -19 14 17 15 17 10 1 -3 -10 -6 -28 -7 -40 0 -21 -1 -21 -8 -3 -7 19 -8
19 -15 1 -8 -23 20 -64 55 -82 19 -10 25 -23 30 -65 8 -65 -5 -192 -26 -265
-13 -45 -19 -53 -40 -53 -13 0 -27 -5 -31 -12 -4 -6 -3 -8 3 -5 19 12 36 -19
23 -42 -13 -25 -31 -28 -24 -3 3 9 -2 6 -11 -8 l-16 -25 5 35 c4 25 3 31 -4
20 -13 -20 -13 -73 1 -87 9 -9 9 -20 0 -44 -6 -17 -11 -41 -11 -53 0 -18 3
-17 20 9 11 17 20 36 20 43 0 7 16 27 36 44 33 29 35 35 30 70 -4 26 2 67 20
130 19 69 26 117 26 188 1 147 -9 249 -26 275 -26 39 -20 121 12 190 16 33 31
74 35 90 3 17 28 77 56 135 28 58 51 113 51 123 0 10 5 27 10 38 6 11 11 55
11 99 0 67 -6 95 -37 182 -34 91 -38 113 -37 193 0 50 7 115 16 145 9 34 12
60 6 70 -6 11 -8 7 -9 -15z m-40 -125 c0 -5 -9 -6 -19 -3 -12 3 -17 11 -14 19
4 11 9 12 19 3 8 -6 14 -15 14 -19z m-15 -620 c3 -5 2 -10 -4 -10 -5 0 -13 5
-16 10 -3 6 -2 10 4 10 5 0 13 -4 16 -10z m-75 -635 c0 -19 -5 -19 -24 1 -23
22 -20 37 4 24 11 -6 20 -17 20 -25z"/>
<path d="M3183 4205 c0 -27 2 -38 4 -22 2 15 2 37 0 50 -2 12 -4 0 -4 -28z"/>
<path d="M6700 4240 c0 -5 5 -10 10 -10 6 0 10 5 10 10 0 6 -4 10 -10 10 -5 0
-10 -4 -10 -10z"/>
<path d="M2540 4220 c0 -11 5 -20 10 -20 6 0 10 9 10 20 0 11 -4 20 -10 20 -5
0 -10 -9 -10 -20z"/>
<path d="M7986 4225 c-9 -26 -7 -32 5 -12 6 10 9 21 6 23 -2 3 -7 -2 -11 -11z"/>
<path d="M2392 4204 c1 -9 9 -19 16 -22 9 -3 13 2 10 14 -1 9 -9 19 -16 22 -9
3 -13 -2 -10 -14z"/>
<path d="M7066 4195 c-11 -8 -15 -15 -9 -15 6 0 16 7 23 15 16 19 11 19 -14 0z"/>
<path d="M3546 4187 c3 -10 9 -15 12 -12 3 3 0 11 -7 18 -10 9 -11 8 -5 -6z"/>
<path d="M3137 4184 c-4 -4 -7 -23 -6 -43 l1 -36 9 33 c11 36 9 58 -4 46z"/>
<path d="M3861 4174 c0 -11 3 -14 6 -6 3 7 2 16 -1 19 -3 4 -6 -2 -5 -13z"/>
<path d="M7301 4174 c0 -11 3 -14 6 -6 3 7 2 16 -1 19 -3 4 -6 -2 -5 -13z"/>
<path d="M2286 4171 c-9 -14 2 -51 15 -51 11 0 12 30 0 49 -6 9 -11 10 -15 2z"/>
<path d="M7162 4160 c0 -14 2 -19 5 -12 2 6 2 18 0 25 -3 6 -5 1 -5 -13z"/>
<path d="M3342 4135 c0 -22 3 -49 8 -60 7 -16 9 -13 8 15 0 19 -4 46 -8 60 -7
21 -8 19 -8 -15z"/>
<path d="M3520 4149 c0 -11 4 -18 10 -14 5 3 7 12 3 20 -7 21 -13 19 -13 -6z"/>
<path d="M8885 4159 c-4 -6 -5 -13 -2 -15 8 -9 127 8 127 17 0 13 -118 11
-125 -2z"/>
<path d="M1656 4152 c-2 -4 -25 -18 -51 -31 -25 -13 -44 -25 -41 -28 5 -5 116
55 116 63 0 7 -19 4 -24 -4z"/>
<path d="M6560 4141 c0 -10 7 -24 15 -31 8 -7 15 -21 15 -31 0 -10 14 -34 30
-53 24 -27 27 -35 15 -40 -17 -6 -21 -61 -5 -71 6 -3 10 3 10 14 0 25 6 26 26
7 9 -9 12 -26 9 -48 -5 -28 -4 -30 4 -11 6 13 16 20 24 17 11 -4 16 9 20 54 4
32 9 65 12 74 5 11 -2 15 -24 16 -52 1 -55 12 -12 55 29 29 38 44 30 51 -10
10 -27 -5 -80 -72 -14 -17 -34 -1 -60 50 -22 42 -29 47 -29 19z m155 -158
c-10 -61 -17 -72 -25 -38 -3 17 -11 29 -18 28 -7 -2 -12 6 -12 16 0 14 8 21
28 24 15 2 28 5 30 6 2 0 0 -16 -3 -36z"/>
<path d="M6754 4145 c11 -8 27 -15 35 -15 13 1 12 4 -3 15 -11 8 -27 15 -35
15 -13 -1 -12 -4 3 -15z"/>
<path d="M3157 4133 c-8 -15 -7 -212 0 -216 5 -3 9 46 10 109 2 106 1 126 -10
107z"/>
<path d="M7897 4122 c-10 -11 -16 -34 -16 -53 l1 -34 7 37 c4 20 13 44 21 52
18 22 7 20 -13 -2z"/>
<path d="M7979 4118 c-9 -16 -9 -23 0 -26 6 -2 11 -12 11 -22 0 -10 5 -22 11
-26 8 -4 9 3 3 27 -4 19 -8 42 -8 52 0 22 -3 22 -17 -5z"/>
<path d="M5783 4121 c-45 -4 -86 -11 -90 -15 -4 -5 17 -6 47 -2 30 3 77 6 103
6 30 0 46 4 42 10 -3 6 -9 9 -13 8 -4 0 -44 -4 -89 -7z"/>
<path d="M7111 4114 c0 -11 3 -14 6 -6 3 7 2 16 -1 19 -3 4 -6 -2 -5 -13z"/>
<path d="M2155 4110 c-4 -6 -2 -17 4 -23 15 -15 25 -2 13 19 -7 12 -11 13 -17
4z"/>
<path d="M3531 4104 c0 -11 3 -14 6 -6 3 7 2 16 -1 19 -3 4 -6 -2 -5 -13z"/>
<path d="M6815 4110 c3 -5 13 -10 21 -10 8 0 12 5 9 10 -3 6 -13 10 -21 10 -8
0 -12 -4 -9 -10z"/>
<path d="M2417 4097 c-3 -7 -1 -20 3 -28 7 -11 10 -10 16 4 4 10 2 23 -3 28
-7 7 -12 6 -16 -4z"/>
<path d="M2576 4102 c-7 -12 5 -52 15 -52 5 0 9 14 9 30 0 28 -13 40 -24 22z"/>
<path d="M7245 4091 c-3 -5 -1 -12 5 -16 5 -3 10 1 10 9 0 18 -6 21 -15 7z"/>
<path d="M6807 4080 c-53 -10 -58 -20 -10 -20 24 0 46 6 53 15 13 16 13 16
-43 5z"/>
<path d="M7072 4070 c0 -14 2 -19 5 -12 2 6 2 18 0 25 -3 6 -5 1 -5 -13z"/>
<path d="M1779 4054 c-3 -53 2 -127 17 -259 19 -175 31 -313 31 -355 0 -142
-20 -389 -37 -470 -11 -52 -22 -110 -25 -127 -2 -18 -8 -40 -13 -50 -5 -10
-13 -40 -16 -66 -11 -75 -91 -303 -122 -350 -34 -51 -57 -72 -109 -96 -64 -31
-115 -86 -115 -126 0 -42 38 -75 86 -75 33 0 45 12 24 25 -6 4 -7 11 -3 18 4
6 7 32 7 59 1 39 -1 45 -12 34 -8 -7 -16 -32 -19 -55 -5 -40 -7 -41 -24 -25
-23 21 -24 36 -4 75 12 22 27 32 62 42 78 21 170 149 213 297 7 25 18 65 26
90 20 68 95 427 99 475 24 277 21 436 -15 645 -5 30 -12 82 -15 114 -3 32 -7
62 -9 65 -3 3 -7 35 -10 70 -6 69 -15 93 -17 45z"/>
<path d="M2007 4036 c-6 -15 1 -26 15 -26 4 0 8 9 8 20 0 23 -15 27 -23 6z"/>
<path d="M2330 4041 c0 -6 5 -13 10 -16 6 -3 10 1 10 9 0 9 -4 16 -10 16 -5 0
-10 -4 -10 -9z"/>
<path d="M7011 4041 c-8 -5 -10 -14 -6 -21 5 -8 4 -11 -2 -7 -6 4 -13 1 -16
-6 -3 -7 3 -13 14 -13 11 0 20 10 24 24 7 29 4 34 -14 23z"/>
<path d="M7037 4031 c-4 -17 -3 -21 5 -13 5 5 8 16 6 23 -3 8 -7 3 -11 -10z"/>
<path d="M8170 4021 c0 -11 3 -27 6 -36 7 -18 64 -50 64 -36 0 22 -13 39 -25
35 -7 -3 -17 7 -23 25 -12 35 -22 40 -22 12z"/>
<path d="M9350 4030 c20 -13 133 -13 125 0 -3 6 -36 10 -73 10 -47 0 -63 -3
-52 -10z"/>
<path d="M1895 4020 c-4 -6 -2 -17 4 -23 15 -15 25 -2 13 19 -7 12 -11 13 -17
4z"/>
<path d="M7841 4019 c-1 -19 58 -113 66 -106 3 4 14 2 24 -4 11 -5 19 -6 19
-1 0 14 -22 31 -35 26 -11 -5 -45 40 -67 86 -6 13 -7 13 -7 -1z"/>
<path d="M2510 3991 c0 -17 5 -33 10 -36 6 -4 10 8 10 29 0 20 -4 36 -10 36
-5 0 -10 -13 -10 -29z"/>
<path d="M7120 3975 c-17 -53 -7 -62 11 -10 9 25 13 45 9 45 -5 0 -14 -16 -20
-35z"/>
<path d="M3360 3973 c0 -12 5 -25 10 -28 13 -8 13 15 0 35 -8 12 -10 11 -10
-7z"/>
<path d="M3480 3983 c0 -19 22 -73 30 -73 4 0 2 16 -4 35 -13 36 -26 56 -26
38z"/>
<path d="M7969 3942 c23 -29 48 -52 53 -52 11 0 -69 92 -86 99 -6 2 9 -19 33
-47z"/>
<path d="M3115 3944 c5 -51 15 -55 15 -6 0 23 -4 42 -9 42 -5 0 -8 -16 -6 -36z"/>
<path d="M2448 3965 c-8 -8 3 -55 13 -55 5 0 9 8 9 18 0 20 -14 44 -22 37z"/>
<path d="M3880 3951 c0 -6 4 -13 10 -16 6 -3 7 1 4 9 -7 18 -14 21 -14 7z"/>
<path d="M2582 3925 c0 -16 2 -22 5 -12 2 9 2 23 0 30 -3 6 -5 -1 -5 -18z"/>
<path d="M1880 3922 c0 -11 7 -25 16 -33 14 -11 15 -9 12 16 -3 32 -28 47 -28
17z"/>
<path d="M7126 3901 c-11 -17 -27 -66 -19 -56 12 13 34 65 28 65 -2 0 -6 -4
-9 -9z"/>
<path d="M1998 3888 c-6 -18 3 -58 13 -58 5 0 9 16 9 35 0 34 -14 48 -22 23z"/>
<path d="M3420 3881 c0 -25 32 -101 42 -101 11 0 10 18 -1 24 -5 4 -12 24 -16
46 -7 43 -25 65 -25 31z"/>
<path d="M2510 3874 c0 -8 5 -12 10 -9 6 3 10 10 10 16 0 5 -4 9 -10 9 -5 0
-10 -7 -10 -16z"/>
<path d="M2469 3828 c4 -32 5 -32 11 -8 7 26 4 40 -9 40 -4 0 -5 -15 -2 -32z"/>
<path d="M1850 3820 c0 -11 5 -20 10 -20 6 0 10 9 10 20 0 11 -4 20 -10 20 -5
0 -10 -9 -10 -20z"/>
<path d="M2509 3835 c-3 -5 -3 -26 1 -45 3 -20 8 -29 11 -20 6 18 -4 79 -12
65z"/>
<path d="M3970 3837 c0 -17 35 -77 47 -81 15 -6 14 -3 -24 53 -13 19 -23 31
-23 28z"/>
<path d="M3171 3814 c-1 -11 6 -29 15 -40 8 -10 12 -13 9 -6 -4 8 -11 26 -15
40 -7 22 -8 23 -9 6z"/>
<path d="M3241 3815 c0 -11 6 -33 14 -50 l14 -30 -6 30 c-3 17 -10 39 -14 50
l-8 20 0 -20z"/>
<path d="M1926 3811 c-4 -6 -1 -21 6 -33 l13 -23 3 24 c4 26 -12 49 -22 32z"/>
<path d="M3110 3816 c0 -14 21 -58 26 -54 8 8 -7 58 -17 58 -5 0 -9 -2 -9 -4z"/>
<path d="M3585 3770 c10 -11 20 -20 22 -20 2 0 -2 9 -9 20 -7 11 -17 20 -22
20 -5 0 -1 -9 9 -20z"/>
<path d="M6625 3761 c-15 -30 -13 -51 4 -51 10 0 25 69 17 77 -2 3 -12 -9 -21
-26z"/>
<path d="M2554 3746 c-3 -8 -1 -23 5 -33 9 -15 10 -13 11 15 0 34 -7 42 -16
18z"/>
<path d="M4030 3736 c0 -2 8 -10 18 -17 15 -13 16 -12 3 4 -13 16 -21 21 -21
13z"/>
<path d="M2010 3710 c0 -11 5 -20 10 -20 6 0 10 9 10 20 0 11 -4 20 -10 20 -5
0 -10 -9 -10 -20z"/>
<path d="M1885 3700 c-3 -11 -2 -28 4 -37 9 -16 10 -16 11 4 0 12 3 28 6 37 3
9 1 16 -4 16 -6 0 -13 -9 -17 -20z"/>
<path d="M3212 3681 c2 -19 9 -36 16 -39 9 -3 11 4 6 25 -10 44 -26 54 -22 14z"/>
<path d="M3551 3703 c-1 -18 19 -67 25 -61 3 3 -2 21 -10 39 -8 19 -15 29 -15
22z"/>
<path d="M1960 3640 c0 -22 5 -40 10 -40 6 0 10 18 10 40 0 22 -4 40 -10 40
-5 0 -10 -18 -10 -40z"/>
<path d="M2485 3670 c-6 -9 11 -50 20 -50 3 0 5 14 5 30 0 29 -13 40 -25 20z"/>
<path d="M4100 3661 c0 -5 7 -15 17 -22 15 -13 15 -12 4 9 -12 23 -21 28 -21
13z"/>
<path d="M3281 3645 c0 -5 6 -19 14 -29 8 -11 15 -15 15 -10 0 6 -7 19 -15 30
-8 10 -14 15 -14 9z"/>
<path d="M3660 3636 c0 -8 5 -18 10 -21 6 -3 10 1 10 9 0 8 -4 18 -10 21 -5 3
-10 -1 -10 -9z"/>
<path d="M5834 3634 c-17 -14 -17 -15 -1 -10 10 3 35 6 55 7 33 1 35 2 12 9
-38 12 -44 11 -66 -6z"/>
<path d="M3192 3620 c7 -11 16 -20 20 -20 5 0 3 9 -4 20 -7 11 -16 20 -20 20
-5 0 -3 -9 4 -20z"/>
<path d="M4097 3602 c10 -19 33 -50 51 -70 31 -35 32 -35 17 -7 -9 17 -32 48
-52 70 -34 39 -35 39 -16 7z"/>
<path d="M8250 3600 c-10 -19 -10 -20 9 -8 22 13 28 28 11 28 -5 0 -14 -9 -20
-20z"/>
<path d="M1884 3596 c-7 -20 1 -46 16 -46 6 0 8 12 6 26 -6 34 -14 41 -22 20z"/>
<path d="M2537 3578 c-5 -18 3 -48 14 -48 12 0 12 47 0 54 -5 4 -11 0 -14 -6z"/>
<path d="M9328 3553 c-10 -2 -18 -9 -18 -15 0 -7 18 -9 53 -4 28 3 71 6 95 6
23 0 42 5 42 10 0 10 -137 12 -172 3z"/>
<path d="M3643 3510 c0 -25 2 -35 4 -22 2 12 2 32 0 45 -2 12 -4 2 -4 -23z"/>
<path d="M3272 3510 c0 -14 2 -19 5 -12 2 6 2 18 0 25 -3 6 -5 1 -5 -13z"/>
<path d="M1910 3486 c0 -14 5 -28 10 -31 6 -4 10 7 10 24 0 17 -4 31 -10 31
-5 0 -10 -11 -10 -24z"/>
<path d="M7900 3500 c0 -5 23 -10 50 -10 28 0 50 5 50 10 0 6 -22 10 -50 10
-27 0 -50 -4 -50 -10z"/>
<path d="M2480 3454 c0 -21 4 -33 10 -29 6 3 10 19 10 36 0 16 -4 29 -10 29
-5 0 -10 -16 -10 -36z"/>
<path d="M3232 3460 c0 -14 2 -19 5 -12 2 6 2 18 0 25 -3 6 -5 1 -5 -13z"/>
<path d="M4250 3452 c0 -10 26 -34 50 -47 8 -4 2 6 -14 23 -32 34 -36 37 -36
24z"/>
<path d="M7322 3450 c-35 -4 -68 -13 -75 -20 -10 -10 -6 -11 18 -6 17 3 56 9
88 13 31 3 57 10 57 14 0 5 -6 8 -12 8 -7 -1 -41 -5 -76 -9z"/>
<path d="M2530 3438 c0 -7 5 -20 10 -28 8 -12 10 -9 10 13 0 15 -4 27 -10 27
-5 0 -10 -6 -10 -12z"/>
<path d="M3222 3410 c0 -14 2 -19 5 -12 2 6 2 18 0 25 -3 6 -5 1 -5 -13z"/>
<path d="M3261 3403 c0 -6 -4 -20 -7 -30 -5 -14 -4 -15 5 -7 7 7 11 20 8 30
-3 11 -5 14 -6 7z"/>
<path d="M8230 3386 c0 -31 6 -34 13 -6 3 11 1 23 -4 26 -5 3 -9 -6 -9 -20z"/>
<path d="M8464 3394 c-18 -15 -17 -15 11 -8 17 4 47 6 68 5 25 -1 36 2 32 9
-10 16 -89 12 -111 -6z"/>
<path d="M1940 3368 c0 -36 12 -71 19 -59 9 15 1 81 -10 81 -5 0 -9 -10 -9
-22z"/>
<path d="M2460 3338 c0 -7 5 -20 10 -28 8 -12 10 -9 10 13 0 15 -4 27 -10 27
-5 0 -10 -6 -10 -12z"/>
<path d="M1910 3316 c-12 -33 -12 -36 -1 -36 10 0 25 50 17 58 -3 2 -10 -7
-16 -22z"/>
<path d="M1987 3326 c-4 -10 -5 -21 -2 -24 9 -9 17 6 13 25 -3 17 -4 17 -11
-1z"/>
<path d="M2500 3298 c0 -49 9 -45 16 6 2 20 0 36 -6 36 -5 0 -10 -19 -10 -42z"/>
<path d="M3191 3314 c0 -11 3 -14 6 -6 3 7 2 16 -1 19 -3 4 -6 -2 -5 -13z"/>
<path d="M4392 3298 c19 -34 48 -72 48 -63 0 14 -44 85 -52 85 -4 0 -3 -10 4
-22z"/>
<path d="M3617 3303 c-4 -3 -7 -18 -6 -32 1 -26 1 -25 10 3 9 31 7 41 -4 29z"/>
<path d="M3206 3254 c-9 -23 -7 -46 3 -40 11 7 21 56 11 56 -4 0 -11 -7 -14
-16z"/>
<path d="M4380 3261 c0 -15 31 -83 36 -78 4 4 -20 75 -29 83 -4 4 -7 2 -7 -5z"/>
<path d="M7695 3201 c-6 -11 9 -23 19 -14 9 9 7 23 -3 23 -6 0 -12 -4 -16 -9z"/>
<path d="M1880 3166 c0 -14 5 -28 10 -31 6 -3 10 5 10 19 0 14 -4 28 -10 31
-6 3 -10 -5 -10 -19z"/>
<path d="M2481 3173 c0 -10 4 -36 8 -58 6 -30 10 -36 16 -22 4 9 4 25 0 35 -5
9 -7 27 -6 40 1 12 -2 22 -8 22 -6 0 -11 -8 -10 -17z"/>
<path d="M3152 3160 c0 -14 2 -19 5 -12 2 6 2 18 0 25 -3 6 -5 1 -5 -13z"/>
<path d="M3201 3144 c0 -11 3 -14 6 -6 3 7 2 16 -1 19 -3 4 -6 -2 -5 -13z"/>
<path d="M1944 3131 c-6 -13 -8 -35 -6 -49 4 -21 6 -22 14 -8 5 9 8 31 6 49
-4 31 -4 32 -14 8z"/>
<path d="M3142 3095 c0 -16 2 -22 5 -12 2 9 2 23 0 30 -3 6 -5 -1 -5 -18z"/>
<path d="M3166 3109 c-11 -35 -15 -79 -7 -79 11 0 26 79 17 87 -3 3 -7 0 -10
-8z"/>
<path d="M4460 3085 c0 -16 -2 -55 -5 -85 -4 -53 -4 -52 9 15 8 41 10 76 5 85
-6 11 -8 7 -9 -15z"/>
<path d="M7339 3056 c-2 -3 -18 -6 -34 -9 -27 -3 -50 -27 -26 -27 23 0 101 25
101 32 0 8 -33 11 -41 4z"/>
<path d="M2498 3011 c-5 -18 -8 -45 -8 -60 1 -23 2 -24 11 -8 6 9 9 36 7 60
l-3 42 -7 -34z"/>
<path d="M5470 3024 c-25 -8 -57 -13 -72 -10 -28 5 -40 -8 -15 -16 17 -7 167
24 167 34 0 11 -27 9 -80 -8z"/>
<path d="M1877 3003 c-11 -10 -8 -63 3 -63 6 0 10 16 10 35 0 36 -2 40 -13 28z"/>
<path d="M3125 2920 c-10 -33 -16 -62 -13 -65 2 -3 12 22 22 56 10 33 16 62
14 65 -3 2 -13 -23 -23 -56z"/>
<path d="M6600 2940 c-8 -5 -12 -11 -10 -14 8 -8 100 6 100 15 0 12 -71 11
-90 -1z"/>
<path d="M1838 2904 c-5 -4 -8 -16 -8 -28 0 -14 3 -17 11 -9 6 6 9 19 7 28 -1
9 -6 13 -10 9z"/>
<path d="M2516 2868 c-3 -13 -1 -27 4 -32 7 -7 10 1 10 22 0 37 -5 41 -14 10z"/>
<path d="M4406 2873 c-6 -14 -5 -15 5 -6 7 7 10 15 7 18 -3 3 -9 -2 -12 -12z"/>
<path d="M4060 2812 c0 -5 10 -17 22 -28 l21 -19 -18 28 c-18 28 -25 33 -25
19z"/>
<path d="M1818 2794 c-5 -4 -8 -21 -8 -38 0 -21 3 -27 11 -19 6 6 9 23 7 38
-2 15 -6 23 -10 19z"/>
<path d="M1878 2794 c-5 -4 -8 -21 -7 -38 0 -30 0 -30 10 -7 11 27 8 57 -3 45z"/>
<path d="M3057 2753 c-7 -39 -1 -40 11 -4 6 17 7 31 3 31 -5 0 -11 -12 -14
-27z"/>
<path d="M4128 2743 c7 -3 16 -2 19 1 4 3 -2 6 -13 5 -11 0 -14 -3 -6 -6z"/>
<path d="M2484 2704 c-4 -14 -2 -30 5 -37 8 -8 11 -6 11 10 0 12 3 28 6 37 3
9 1 16 -5 16 -6 0 -14 -12 -17 -26z"/>
<path d="M1805 2647 c-4 -8 -5 -26 -3 -39 4 -22 5 -22 17 6 8 20 8 33 2 39 -7
7 -12 5 -16 -6z"/>
<path d="M3045 2620 c-4 -12 -5 -24 -2 -27 3 -2 8 5 12 17 4 12 5 24 2 27 -3
2 -8 -5 -12 -17z"/>
<path d="M5727 2600 c-39 -7 -54 -16 -45 -26 4 -3 28 1 55 8 54 15 48 28 -10
18z"/>
<path d="M7853 2600 c-13 -5 -23 -12 -23 -16 0 -8 80 6 100 17 21 12 -48 11
-77 -1z"/>
<path d="M1827 2586 c-4 -10 -7 -27 -7 -39 0 -20 1 -20 17 -5 13 13 14 22 6
39 -8 20 -10 21 -16 5z"/>
<path d="M2498 2594 c-5 -4 -8 -21 -8 -38 0 -21 3 -27 11 -19 6 6 9 23 7 38
-2 15 -6 23 -10 19z"/>
<path d="M1731 2527 c-7 -20 -11 -43 -8 -50 2 -6 9 5 16 26 7 20 11 43 8 50
-2 6 -9 -5 -16 -26z"/>
<path d="M2986 2535 c-9 -26 -7 -32 5 -12 6 10 9 21 6 23 -2 3 -7 -2 -11 -11z"/>
<path d="M3021 2533 c-1 -6 -4 -20 -7 -30 -5 -17 -5 -17 6 0 6 10 9 23 6 30
-3 9 -5 9 -5 0z"/>
<path d="M2456 2463 c-4 -9 -2 -21 4 -27 7 -7 10 -2 10 17 0 31 -5 34 -14 10z"/>
<path d="M2507 2473 c-4 -5 -3 -23 2 -39 l8 -29 5 27 c5 28 -5 57 -15 41z"/>
<path d="M3395 2450 c-7 -22 13 -66 25 -54 10 11 1 74 -10 74 -5 0 -11 -9 -15
-20z"/>
<path d="M7220 2460 c-12 -8 -10 -10 10 -10 14 0 32 5 40 10 12 8 10 10 -10
10 -14 0 -32 -5 -40 -10z"/>
<path d="M1747 2413 c-11 -20 -18 -67 -8 -58 11 11 26 65 18 65 -3 0 -8 -3
-10 -7z"/>
<path d="M2467 2367 c-3 -8 -1 -20 4 -28 6 -10 9 -7 9 14 0 29 -5 35 -13 14z"/>
<path d="M1667 2343 c-4 -3 -7 -13 -7 -22 1 -13 3 -13 11 2 11 19 8 33 -4 20z"/>
<path d="M6483 2288 c-24 -5 -43 -14 -43 -20 0 -5 8 -7 17 -4 9 4 36 10 60 13
24 3 43 10 43 14 0 11 -21 10 -77 -3z"/>
<path d="M2417 2284 c-3 -3 -3 -13 0 -21 5 -12 7 -12 14 -1 15 23 4 40 -14 22z"/>
<path d="M7967 2262 c-6 -28 -11 -32 -37 -32 -61 0 -104 -55 -79 -101 14 -27
75 -52 107 -44 30 7 82 49 99 79 17 29 16 41 -2 26 -8 -7 -15 -18 -15 -26 0
-13 -37 -44 -52 -44 -5 0 -8 9 -8 21 0 11 -5 29 -11 40 -7 14 -7 30 1 55 6 19
10 40 8 46 -3 7 -7 -2 -11 -20z m-74 -87 c-17 -35 -33 -38 -33 -5 0 17 23 39
42 40 4 0 0 -16 -9 -35z m59 -9 c11 -16 0 -24 -27 -18 -23 4 -33 21 -19 35 8
7 37 -3 46 -17z"/>
<path d="M9176 2249 c-2 -8 -7 -23 -12 -34 -6 -18 -8 -18 -11 -2 -5 21 -22 22
-29 2 -10 -26 -25 -16 -18 11 5 19 4 25 -5 20 -6 -4 -11 -23 -11 -41 0 -33 1
-34 33 -28 51 9 91 53 68 76 -7 7 -12 6 -15 -4z"/>
<path d="M8783 2237 c-24 -5 -43 -14 -43 -20 0 -9 20 -7 83 9 20 5 27 3 27 -9
0 -20 -30 -45 -31 -26 0 8 -4 5 -8 -6 -5 -11 -4 -28 1 -37 12 -24 38 -23 31 0
-2 10 5 34 17 54 18 32 19 36 4 42 -19 7 -26 7 -81 -7z"/>
<path d="M8930 2230 c-1 -14 -4 -35 -5 -48 -3 -27 11 -38 28 -23 7 5 23 8 35
4 17 -4 24 0 31 18 5 13 6 28 3 33 -3 5 -9 -1 -14 -15 l-9 -24 -13 24 -13 24
-14 -24 c-14 -24 -14 -24 -20 16 -4 29 -7 33 -9 15z"/>
<path d="M1566 2202 c-14 -23 -36 -104 -31 -112 8 -13 46 -13 79 0 27 10 35
30 13 30 -24 0 -57 44 -50 68 5 22 -1 30 -11 14z"/>
<path d="M2337 2191 c-5 -22 1 -33 14 -25 12 7 12 44 0 44 -5 0 -11 -9 -14
-19z"/>
<path d="M8778 2180 c-4 -14 -8 -36 -7 -50 l0 -25 10 25 c5 13 9 36 7 50 l-3
25 -7 -25z"/>
<path d="M9250 2154 c0 -9 5 -14 12 -12 18 6 21 28 4 28 -9 0 -16 -7 -16 -16z"/>
<path d="M7180 1092 c-32 -13 -34 -15 -16 -26 83 -48 99 -134 82 -433 -8 -135
-7 -155 8 -178 24 -37 60 -48 99 -31 18 7 38 20 46 30 12 14 11 19 -6 39 -42
45 -53 132 -31 237 9 45 50 100 75 100 7 0 20 11 28 24 13 20 14 32 5 65 -6
23 -16 41 -23 41 -7 0 -25 -16 -40 -35 -15 -19 -32 -35 -37 -35 -6 0 -10 19
-10 41 0 47 -39 127 -72 148 -39 24 -72 28 -108 13z m103 -46 c28 -28 37 -47
46 -98 6 -36 11 -72 11 -81 0 -27 19 -20 53 18 38 43 57 45 57 5 0 -24 -8 -35
-40 -56 -58 -39 -81 -94 -83 -202 -2 -73 2 -94 21 -130 12 -23 22 -47 22 -53
0 -18 -63 1 -83 24 -18 20 -18 36 -12 239 8 232 1 291 -36 334 -43 47 -3 47
44 0z"/>
<path d="M6551 1085 c-57 -18 -88 -48 -118 -114 -44 -98 -53 -312 -17 -422 17
-54 65 -101 117 -116 41 -12 95 2 150 40 71 49 113 229 94 412 -17 166 -100
239 -226 200z m151 -46 c42 -51 62 -220 43 -365 -15 -114 -31 -152 -74 -183
-60 -43 -119 -40 -176 10 -48 43 -66 106 -66 245 0 152 23 246 69 288 47 41
172 44 204 5z"/>
<path d="M6536 969 c-14 -17 -28 -40 -31 -52 -21 -93 -25 -122 -25 -200 0
-105 14 -168 46 -202 45 -49 119 -26 155 49 47 97 45 276 -5 360 -48 81 -96
97 -140 45z m68 -10 c78 -62 108 -263 56 -384 -25 -58 -53 -74 -89 -48 -46 35
-56 68 -59 207 -3 100 0 139 13 180 23 71 37 78 79 45z"/>
<path d="M1874 1047 c-3 -8 3 -30 13 -49 20 -36 22 -128 14 -619 -3 -247 -1
-261 41 -288 23 -14 53 -7 65 17 4 9 8 103 8 209 0 105 2 194 5 196 3 3 34 11
70 18 55 10 71 18 102 52 45 47 56 83 61 199 7 143 -17 200 -104 251 -42 25
-53 27 -130 23 -62 -3 -84 -7 -84 -17 0 -11 21 -14 94 -14 l93 0 47 -51 c42
-46 48 -57 51 -105 8 -114 1 -193 -22 -242 -18 -40 -27 -49 -62 -58 -23 -6
-51 -15 -64 -20 -13 -5 -34 -9 -47 -9 -21 0 -25 -7 -35 -56 -12 -55 -7 -263 6
-298 8 -21 -13 -46 -37 -46 -36 0 -38 53 -25 507 7 244 6 289 -8 336 -17 60
-42 90 -52 64z"/>
<path d="M5558 1053 c-23 -6 -32 -37 -18 -64 12 -21 9 -186 -6 -415 -10 -153
16 -205 84 -170 37 19 43 44 42 165 -2 169 -6 154 43 146 23 -4 47 -12 54 -18
7 -7 14 -57 16 -122 6 -135 16 -165 54 -165 55 0 59 35 37 287 -9 104 -36 132
-137 142 l-62 6 -6 82 c-9 117 -31 145 -101 126z m56 -28 c20 -20 30 -76 22
-124 -9 -57 8 -73 90 -82 108 -14 118 -32 130 -250 7 -134 -1 -162 -32 -114
-12 18 -19 59 -24 141 -6 95 -10 117 -26 128 -41 30 -133 26 -135 -6 0 -7 0
-67 1 -133 1 -133 -3 -155 -31 -155 -41 0 -47 33 -40 235 4 105 6 228 5 275
-2 106 5 120 40 85z"/>
<path d="M668 1045 c-3 -3 -47 -6 -98 -7 -87 -1 -92 -3 -101 -25 -27 -72 0
-98 111 -106 41 -3 88 -10 104 -16 l28 -11 -6 -73 c-5 -62 -10 -327 -7 -394 1
-24 45 -53 80 -53 11 0 30 14 42 31 20 28 21 38 15 117 -4 48 -9 147 -12 221
-2 73 -7 137 -9 141 -11 18 27 32 78 28 65 -4 87 11 87 58 0 45 -27 61 -120
69 -41 4 -93 11 -115 16 -46 10 -69 11 -77 4z m72 -36 c36 -4 93 -10 128 -13
74 -6 82 -10 82 -40 0 -22 -4 -23 -66 -22 -90 1 -98 -10 -89 -124 9 -110 19
-350 16 -387 -1 -15 -39 -17 -60 -4 -17 11 -19 33 -20 284 l-1 207 -27 12
c-16 6 -63 14 -106 17 -62 5 -82 11 -93 26 -22 30 -12 40 45 41 28 1 54 4 58
7 7 8 53 6 133 -4z"/>
<path d="M5026 1027 c-18 -27 -11 -70 14 -92 12 -10 43 -19 82 -21 117 -9 111
-4 102 -87 -4 -40 -7 -148 -6 -241 1 -197 3 -203 76 -192 29 5 50 14 56 25 5
10 9 116 9 237 0 121 1 227 1 237 0 14 8 17 47 15 38 -1 50 3 68 24 30 34 25
69 -11 89 -23 13 -70 18 -226 23 -197 5 -198 5 -212 -17z m276 -7 c64 1 126
-1 137 -5 30 -9 44 -40 30 -66 -10 -19 -17 -21 -63 -16 -29 3 -58 2 -64 -2 -7
-4 -10 -54 -10 -146 1 -77 0 -189 0 -248 -2 -101 -3 -108 -24 -116 -12 -4 -31
-6 -42 -3 -19 5 -19 13 -13 258 6 236 6 253 -11 253 -23 0 -142 20 -165 27
-20 6 -40 41 -34 58 4 9 25 11 74 8 37 -2 121 -3 185 -2z"/>
<path d="M1042 1027 c-18 -8 -22 -15 -16 -31 9 -27 12 -406 4 -482 -14 -117
59 -176 114 -92 12 18 16 55 17 150 1 135 2 138 54 138 42 0 55 -34 55 -141 0
-53 5 -110 11 -127 14 -42 47 -49 79 -16 24 23 25 30 25 142 0 82 -6 134 -18
174 -16 52 -21 58 -60 73 -36 14 -56 18 -113 24 -18 2 -34 49 -34 102 0 80
-52 118 -118 86z m77 -30 c6 -8 13 -40 15 -73 5 -93 22 -114 88 -114 18 0 52
-8 75 -17 41 -18 42 -18 62 -103 18 -72 19 -96 11 -155 -12 -86 -16 -95 -34
-95 -18 0 -24 26 -32 136 -7 103 -26 152 -60 160 -35 9 -91 -4 -98 -22 -3 -9
-6 -69 -6 -134 0 -100 -3 -121 -19 -141 -17 -21 -21 -22 -36 -9 -15 13 -17 33
-12 205 3 104 2 230 -2 278 -3 49 -4 90 -2 93 9 9 39 3 50 -9z"/>
<path d="M2038 963 c-26 -7 -22 -23 6 -23 59 0 105 -77 107 -180 2 -73 -15
-102 -69 -118 -73 -22 -70 -29 -70 139 0 192 -18 222 -22 37 -2 -73 -3 -151
-4 -173 l-1 -40 43 1 c23 0 52 6 65 11 12 6 30 14 39 17 45 14 67 169 33 240
-19 39 -78 97 -98 95 -7 -1 -20 -3 -29 -6z"/>
<path d="M7630 937 c-60 -28 -104 -113 -127 -249 -17 -99 -11 -165 20 -241 30
-70 126 -99 193 -58 37 23 81 96 100 169 28 106 12 270 -33 339 -31 48 -99 65
-153 40z m94 -17 c32 -12 49 -47 70 -140 17 -81 10 -203 -15 -265 -7 -16 -13
-32 -13 -35 -1 -3 -11 -20 -24 -37 -21 -30 -29 -33 -72 -33 -121 0 -169 130
-127 348 18 94 34 124 80 152 35 22 63 25 101 10z"/>
<path d="M7626 828 c-44 -59 -55 -191 -21 -276 29 -71 77 -80 106 -20 32 64
42 116 36 181 -7 78 -21 111 -56 128 -14 7 -29 15 -33 17 -3 2 -18 -12 -32
-30z m51 4 c39 -24 56 -163 32 -257 -20 -78 -42 -79 -74 -5 -27 60 -28 203 -2
243 19 29 25 31 44 19z"/>
<path d="M2838 918 c-46 -26 -62 -64 -55 -126 5 -43 11 -52 76 -112 58 -53 73
-72 78 -103 13 -82 -71 -107 -132 -40 -33 37 -34 37 -54 18 -25 -22 -27 -62
-5 -93 50 -72 189 -72 249 0 21 24 25 40 25 90 0 75 -26 125 -98 185 -50 42
-66 78 -50 107 13 24 33 19 62 -14 20 -25 30 -29 51 -24 44 11 45 74 2 114
-29 27 -100 26 -149 -2z m155 -35 c18 -31 18 -33 1 -40 -10 -4 -19 -2 -22 5
-2 7 -17 19 -33 28 -25 12 -34 13 -57 2 -22 -11 -28 -21 -30 -57 -3 -42 -1
-46 56 -100 73 -68 92 -104 92 -174 0 -91 -50 -122 -159 -101 -33 7 -91 54
-91 73 0 26 31 22 56 -8 31 -37 71 -41 120 -10 36 22 52 68 38 111 -4 12 -7
25 -8 28 0 3 -31 31 -67 63 -72 61 -93 100 -83 153 7 40 57 65 124 61 38 -2
47 -6 63 -34z"/>
<path d="M3225 925 c-70 -33 -98 -83 -85 -154 11 -59 36 -91 96 -121 88 -43
111 -102 60 -147 -26 -22 -29 -22 -64 -7 -20 8 -46 24 -58 34 -26 26 -38 25
-57 -3 -13 -20 -13 -27 -1 -53 19 -42 37 -62 68 -74 77 -29 174 7 214 79 38
67 24 157 -32 213 -51 50 -78 68 -102 68 -25 0 -39 29 -29 60 9 29 48 25 87
-9 18 -15 40 -26 48 -23 29 9 50 35 50 63 0 56 -130 105 -195 74z m148 -39
c19 -13 27 -27 27 -47 0 -37 -21 -38 -62 -4 -36 31 -81 32 -109 4 -33 -33 -22
-70 27 -94 99 -49 143 -108 144 -190 0 -71 -61 -135 -127 -135 -66 0 -143 48
-143 90 0 28 17 25 57 -10 37 -33 69 -38 113 -15 37 19 50 43 50 93 0 46 -17
65 -93 102 -60 30 -86 62 -94 116 -13 97 115 152 210 90z"/>
<path d="M6935 919 c-56 -28 -87 -131 -87 -284 0 -147 22 -196 102 -228 74
-29 170 22 184 99 13 65 -30 97 -70 53 -10 -12 -31 -27 -47 -35 -25 -14 -29
-13 -51 9 -17 17 -25 39 -30 83 -8 78 10 139 57 192 l21 22 21 -26 c27 -34 60
-26 83 22 l16 35 -33 31 c-29 27 -43 32 -90 35 -31 1 -65 -2 -76 -8z m143 -42
c12 -11 22 -29 22 -39 0 -28 -29 -34 -46 -9 -30 42 -70 19 -115 -69 -19 -37
-23 -59 -22 -123 2 -138 70 -183 147 -98 40 44 68 9 42 -53 -35 -83 -168 -71
-206 18 -52 120 -21 370 48 394 40 13 104 3 130 -21z"/>
<path d="M8285 921 c-4 -7 -17 -11 -28 -9 -39 5 -50 -10 -27 -39 16 -20 20
-41 20 -97 0 -93 -28 -466 -40 -537 -14 -80 -13 -144 4 -158 8 -7 27 -10 43
-8 60 10 58 5 59 166 1 183 6 195 86 204 45 5 58 12 89 46 47 52 60 96 66 221
5 98 3 107 -19 140 -13 19 -39 43 -58 52 -45 22 -184 35 -195 19z m170 -42
c59 -29 70 -59 70 -182 -1 -93 -4 -120 -22 -159 -24 -53 -62 -78 -118 -78 -78
0 -103 -66 -104 -277 -1 -82 -1 -83 -27 -83 -25 0 -25 1 -19 58 12 101 13 115
20 232 3 63 8 138 11 165 3 28 7 113 10 190 2 76 9 142 14 145 18 11 135 3
165 -11z"/>
<path d="M8353 838 c-20 -10 -22 -18 -25 -152 -2 -77 0 -148 4 -157 5 -11 23
-18 49 -21 35 -3 44 0 63 23 34 40 50 130 37 208 -16 97 -61 132 -128 99z m74
-32 c27 -23 27 -26 27 -127 0 -119 -10 -149 -52 -149 -16 0 -33 5 -38 10 -10
10 -9 246 1 278 7 19 31 14 62 -12z"/>
<path d="M8675 920 c-4 -6 -21 -10 -37 -8 -18 2 -33 -2 -35 -9 -3 -8 4 -13 15
-13 18 0 21 -8 24 -66 1 -36 -1 -119 -6 -184 -13 -163 -1 -187 104 -221 25 -8
51 -14 58 -13 6 1 23 2 37 3 34 1 99 68 116 118 17 52 19 330 1 360 -16 29
-50 39 -69 21 -11 -12 -15 -52 -17 -179 -2 -184 -9 -209 -56 -209 -47 0 -54
26 -60 212 -3 92 -9 171 -15 176 -17 16 -53 23 -60 12z m36 -56 c4 -16 7 -98
8 -181 1 -139 3 -155 21 -173 23 -23 96 -28 123 -7 21 15 36 119 39 279 3 104
5 115 18 102 12 -12 14 -43 12 -176 -5 -221 -28 -278 -113 -278 -47 0 -126 35
-140 63 -12 21 -14 381 -3 399 10 16 29 2 35 -28z"/>
<path d="M2306 901 c-3 -5 2 -24 12 -42 14 -29 17 -63 17 -214 0 -99 4 -187 8
-196 20 -40 86 -48 175 -23 74 21 86 33 105 102 17 60 33 329 22 362 -8 26
-37 25 -61 -1 -16 -18 -20 -43 -25 -183 -3 -88 -9 -169 -13 -178 -6 -13 -15
-16 -35 -12 -51 12 -55 23 -56 166 0 128 -1 134 -28 176 -25 38 -32 43 -60 41
-18 -2 -38 0 -44 4 -6 4 -14 3 -17 -2z m96 -54 c20 -27 23 -48 28 -177 5 -156
11 -173 56 -184 34 -9 61 8 81 52 13 29 17 68 17 178 1 104 5 145 15 157 24
30 31 7 31 -103 0 -136 -17 -253 -41 -284 -23 -30 -144 -55 -177 -37 -42 22
-54 74 -47 201 6 105 2 142 -20 217 -6 18 -4 21 14 16 12 -3 31 -19 43 -36z"/>
<path d="M9126 887 c-48 -30 -65 -60 -66 -113 0 -46 27 -77 95 -112 48 -24 82
-59 85 -87 5 -49 -1 -66 -26 -76 -28 -10 -44 -3 -93 40 -18 16 -28 18 -42 10
-43 -23 -31 -106 19 -129 15 -7 34 -16 42 -20 14 -7 57 -5 107 6 38 7 82 53
94 97 29 102 -2 177 -96 235 -65 41 -76 57 -53 80 19 19 35 14 42 -12 7 -28
41 -43 60 -27 25 21 25 71 1 99 -32 38 -116 42 -169 9z m142 -19 c14 -14 16
-68 2 -68 -5 0 -10 9 -10 20 0 41 -56 43 -102 3 -24 -21 -7 -52 47 -87 57 -35
91 -77 105 -124 31 -113 -10 -182 -110 -182 -53 0 -98 24 -106 56 -9 35 2 41
30 15 13 -12 39 -24 58 -27 81 -14 132 94 78 163 -12 15 -49 43 -83 61 -68 37
-86 56 -87 90 0 33 16 59 48 76 33 18 113 21 130 4z"/>
<path d="M6003 869 c-18 -11 -41 -35 -52 -52 -38 -63 -49 -245 -18 -319 16
-39 67 -85 104 -94 13 -4 48 -4 76 -1 64 8 101 44 112 108 6 37 4 45 -15 61
-32 26 -44 23 -74 -17 -18 -23 -35 -35 -51 -35 -29 0 -77 55 -73 84 3 18 12
22 70 27 87 7 115 26 123 83 11 71 -16 121 -86 156 -48 25 -76 25 -116 -1z
m142 -42 c36 -31 39 -38 39 -85 0 -29 -6 -58 -12 -64 -7 -7 -46 -14 -88 -16
-62 -4 -76 -8 -85 -24 -16 -30 -2 -79 32 -116 26 -29 34 -32 60 -27 20 5 38
19 51 41 22 37 39 42 58 19 16 -19 -1 -84 -27 -111 -28 -28 -124 -15 -170 23
-51 40 -66 93 -59 203 5 100 17 137 54 167 42 35 100 31 147 -10z"/>
<path d="M6040 793 c-27 -19 -50 -66 -41 -82 11 -17 89 -25 123 -12 24 9 25
13 18 44 -4 19 -10 39 -14 45 -10 16 -65 20 -86 5z m72 -27 c18 -40 5 -56 -39
-49 -59 9 -67 43 -15 62 39 14 41 13 54 -13z"/>
<path d="M1498 803 c-20 -21 -42 -51 -48 -68 -19 -48 -13 -153 11 -217 29 -79
66 -102 151 -96 55 4 64 8 94 41 38 41 45 85 18 111 -21 22 -23 21 -78 -24
-26 -22 -52 -40 -57 -40 -18 0 -49 41 -49 64 0 28 21 36 95 36 40 0 56 5 79
27 27 24 28 30 22 82 -5 47 -12 61 -41 89 -32 29 -40 32 -98 32 -60 0 -65 -2
-99 -37z m165 5 c22 -11 57 -67 57 -91 0 -10 -7 -31 -15 -47 -15 -28 -19 -30
-75 -30 -90 0 -110 -11 -110 -60 0 -30 7 -47 25 -65 13 -14 29 -25 35 -25 17
0 70 29 70 39 0 4 12 13 27 20 21 10 28 9 34 -1 15 -23 10 -38 -23 -69 -69
-63 -173 -23 -210 81 -6 19 -12 67 -12 105 0 57 4 77 21 101 41 58 113 75 176
42z"/>
<path d="M1571 776 c-26 -15 -50 -51 -51 -79 0 -24 44 -39 89 -31 60 11 71 21
71 63 0 35 -3 40 -31 50 -40 14 -48 13 -78 -3z m64 -16 c21 -8 26 -16 23 -38
-3 -30 -27 -38 -83 -28 -27 5 -32 10 -28 27 3 11 17 26 32 34 32 17 25 17 56
5z"/>
<path d="M7941 701 c-21 -21 -28 -74 -13 -98 8 -12 191 -17 193 -5 3 29 9 70
13 87 4 15 0 21 -12 21 -9 0 -49 4 -89 8 -65 6 -74 5 -92 -13z m164 -20 c1 -1
-1 -16 -3 -35 l-4 -34 -66 6 c-70 5 -82 12 -82 50 0 21 3 22 78 18 42 -2 77
-5 77 -5z"/>
<path d="M3484 531 c-2 -2 -4 -22 -4 -43 0 -32 4 -40 25 -48 14 -5 31 -7 38
-4 16 6 41 80 32 94 -6 10 -81 10 -91 1z m60 -20 c9 -14 -4 -41 -19 -41 -18 0
-28 17 -21 35 6 17 32 20 40 6z"/>
<path d="M9391 486 c-7 -13 -11 -32 -9 -42 4 -25 47 -45 69 -34 20 11 31 70
16 88 -15 19 -32 9 -32 -19 0 -13 -4 -24 -10 -24 -5 0 -9 12 -9 28 2 33 -8 35
-25 3z"/>
</g>
</svg>
