<?xml version="1.0" standalone="no"?>
<!DOCTYPE svg PUBLIC "-//W3C//DTD SVG 20010904//EN"
 "http://www.w3.org/TR/2001/REC-SVG-20010904/DTD/svg10.dtd">
<svg version="1.0" xmlns="http://www.w3.org/2000/svg"
 width="1000.000000pt" height="596.000000pt" viewBox="0 0 1000.000000 596.000000"
 preserveAspectRatio="xMidYMid meet">
<metadata>
Created by potrace 1.16, written by Peter Selinger 2001-2019
</metadata>
<g transform="translate(0.000000,596.000000) scale(0.100000,-0.100000)"
fill="#000000" stroke="none">
<path d="M6356 5794 c-128 -21 -320 -128 -425 -238 -27 -28 -71 -73 -98 -101
-49 -51 -72 -80 -119 -150 -15 -22 -30 -42 -33 -45 -21 -16 -53 -76 -74 -136
-37 -105 -67 -208 -67 -227 0 -9 -4 -17 -9 -17 -5 0 -11 -26 -14 -57 -7 -76
-49 -231 -77 -285 -13 -24 -27 -51 -32 -61 -11 -22 -73 -192 -69 -192 1 0 -18
-37 -42 -82 -73 -134 -107 -264 -107 -402 0 -101 15 -147 59 -177 35 -23 101
-33 101 -15 0 5 -15 12 -34 15 -37 7 -83 52 -90 89 -16 80 -14 112 19 307 4
19 31 85 60 145 30 61 61 135 71 165 22 73 55 101 109 95 35 -5 37 -4 15 5
-14 6 -37 9 -52 6 -16 -3 -28 -4 -28 -1 0 11 24 55 30 55 8 0 55 138 65 190 4
19 13 58 20 85 7 28 19 75 25 105 7 30 32 115 57 189 64 189 125 280 319 475
132 133 274 215 419 240 73 13 110 14 208 5 129 -11 150 -17 211 -57 23 -15
53 -33 68 -41 14 -7 40 -26 58 -42 17 -16 45 -36 61 -44 16 -9 57 -36 91 -61
136 -98 171 -118 213 -118 34 -1 40 2 43 20 2 12 11 29 21 38 16 15 18 15 16
-3 -1 -11 -7 -26 -14 -35 -8 -9 -10 -16 -6 -16 4 0 0 -11 -9 -25 -19 -28 -20
-35 -6 -35 5 0 18 17 29 38 22 44 56 79 45 46 -4 -10 -11 -24 -16 -31 -5 -6
-8 -17 -6 -25 1 -7 -10 -35 -26 -61 -20 -33 -25 -52 -18 -59 7 -7 12 0 17 21
7 32 25 43 25 16 0 -8 5 -15 10 -15 6 0 13 7 16 15 8 21 22 19 20 -2 -1 -14 5
-17 27 -15 15 1 27 -2 27 -8 0 -6 5 -8 10 -5 20 12 10 35 -15 35 -20 0 -25 5
-25 25 0 25 -14 33 -25 15 -11 -18 -21 -10 -20 16 1 14 16 39 34 57 l33 32 -6
-27 c-8 -33 -2 -35 32 -7 27 21 46 9 23 -14 -13 -13 -15 -57 -2 -57 5 0 19 11
32 25 32 33 40 31 33 -5 -5 -23 -3 -30 9 -30 8 0 20 7 27 15 15 18 34 20 27 3
-21 -52 -21 -51 1 -46 19 5 20 3 12 -12 -6 -11 -15 -22 -20 -25 -15 -9 -12
-25 5 -25 17 0 55 56 55 83 0 9 -8 17 -17 17 -19 1 -23 -3 44 48 28 22 43 92
19 92 -13 0 -15 4 -6 19 5 11 10 24 10 30 0 15 -33 14 -49 -1 -10 -11 -11 -8
-6 15 6 21 4 27 -8 27 -9 0 -19 -4 -22 -10 -11 -18 -25 -10 -25 15 0 29 -17
33 -37 8 -12 -16 -13 -15 -8 15 8 38 2 39 -33 11 -20 -15 -27 -17 -30 -7 -11
39 -12 41 -27 28 -8 -6 -19 -9 -25 -5 -17 10 -48 -4 -55 -26 -5 -14 -12 -18
-28 -14 -18 5 -25 -1 -35 -27 -22 -53 -43 -92 -63 -116 -18 -23 -19 -23 -56
-5 -21 10 -45 23 -53 30 -81 66 -150 118 -174 130 -16 8 -57 34 -90 57 -110
77 -199 123 -251 130 -92 14 -219 14 -299 0z m1070 -220 c-4 -9 -9 -15 -11
-12 -3 3 -3 13 1 22 4 9 9 15 11 12 3 -3 3 -13 -1 -22z m25 -37 c-6 -6 -11
-25 -11 -43 0 -17 -7 -37 -15 -44 -13 -10 -15 -9 -15 10 0 19 -4 21 -26 16
-26 -7 -25 -6 11 38 20 25 42 47 48 49 16 6 22 -12 8 -26z m49 -2 c-14 -17
-30 -20 -30 -5 0 6 7 10 15 10 8 0 15 5 15 12 0 6 3 8 6 5 4 -4 1 -13 -6 -22z
m70 10 c0 -3 -4 -11 -10 -18 -5 -7 -21 -27 -36 -45 -28 -35 -44 -35 -37 0 6
27 83 85 83 63z m118 -47 c-2 -6 -20 -23 -39 -37 -19 -14 -28 -18 -20 -8 7 9
10 17 6 17 -5 0 0 9 10 20 20 22 49 27 43 8z m-115 -42 c-10 -19 -21 -36 -26
-36 -12 0 4 54 21 67 23 19 25 10 5 -31z m42 4 c-3 -5 -10 -10 -16 -10 -5 0
-9 5 -9 10 0 6 7 10 16 10 8 0 12 -4 9 -10z m95 -10 c0 -5 -7 -10 -16 -10 -8
0 -12 5 -9 10 3 6 10 10 16 10 5 0 9 -4 9 -10z m-80 -45 c-7 -9 -15 -13 -17
-11 -7 7 7 26 19 26 6 0 6 -6 -2 -15z"/>
<path d="M8605 5799 c-16 -4 -66 -15 -110 -25 -44 -10 -89 -24 -100 -31 -11
-7 -27 -13 -37 -13 -24 0 -275 -131 -354 -185 -36 -25 -70 -45 -76 -45 -5 0
-24 -6 -41 -14 -18 -8 -50 -22 -72 -32 -31 -13 -36 -18 -21 -22 19 -4 157 50
186 74 28 22 145 90 180 104 19 7 62 26 95 42 207 99 372 131 535 102 97 -17
117 -24 225 -75 74 -35 104 -56 171 -124 88 -89 131 -150 189 -265 53 -104 61
-119 100 -170 55 -73 158 -246 229 -384 68 -132 140 -311 132 -325 -3 -4 -1
-23 4 -42 16 -61 19 -204 6 -290 -29 -187 -70 -221 -263 -223 -110 -1 -113 -2
-113 -23 0 -38 -54 -78 -142 -107 -58 -19 -104 -25 -224 -32 -110 -7 -221 12
-279 47 -25 15 -95 84 -151 151 -41 48 -158 136 -232 173 -50 26 -201 156
-249 215 -15 19 -50 58 -77 85 -27 28 -67 74 -90 104 -23 30 -50 64 -61 75
-29 29 -124 216 -156 306 -46 131 -108 229 -162 256 -23 13 -28 20 -23 40 8
30 -2 30 -59 -1 -25 -14 -45 -23 -45 -20 0 3 11 23 25 44 13 22 27 51 31 65 3
15 10 29 15 32 15 9 10 27 -6 20 -18 -6 -19 -1 -5 25 15 27 -7 25 -31 -2 -15
-18 -21 -20 -34 -9 -13 10 -15 9 -15 -9 0 -14 8 -23 25 -27 35 -9 31 -19 -12
-39 -21 -9 -50 -23 -65 -30 -24 -12 -28 -11 -28 2 0 8 -6 13 -12 11 -9 -3 -12
-26 -11 -72 1 -74 7 -88 26 -64 16 21 141 36 135 16 -2 -7 -18 -20 -36 -28
-31 -15 -42 -30 -22 -30 18 0 64 27 84 49 11 12 22 21 26 21 16 0 94 -89 118
-135 27 -50 73 -177 67 -183 -4 -4 -25 13 -76 62 -19 17 -38 31 -44 31 -5 0
-32 23 -60 51 -49 50 -95 77 -95 55 0 -6 4 -11 9 -11 5 0 41 -31 80 -69 57
-55 71 -74 71 -98 0 -17 7 -50 15 -73 8 -23 15 -60 15 -82 0 -40 14 -78 29
-78 13 0 0 112 -20 165 -34 89 -24 95 55 35 43 -33 59 -53 77 -98 34 -87 96
-169 230 -307 l78 -79 6 -81 c16 -213 19 -266 19 -345 1 -80 -18 -192 -35
-215 -4 -6 -15 -32 -24 -58 -38 -111 -132 -213 -233 -251 -82 -32 -124 -32
-205 -5 -87 30 -127 39 -127 27 0 -5 -5 -6 -10 -3 -6 4 -8 10 -5 15 3 5 8 89
12 187 3 98 8 179 12 181 4 1 4 31 1 67 -3 36 -2 65 2 65 11 0 240 -174 267
-203 13 -15 27 -44 31 -64 5 -29 9 -34 15 -20 21 50 -41 123 -205 240 -56 41
-97 77 -100 90 -3 12 -12 22 -20 22 -15 0 -23 29 -40 146 -12 83 -30 329 -36
479 l-4 95 25 -40 c13 -22 31 -53 40 -69 26 -44 74 -93 104 -105 24 -11 27
-17 28 -69 1 -32 6 -78 12 -102 5 -25 6 -51 1 -60 -5 -9 -4 -23 2 -34 6 -11 8
-41 4 -73 -5 -42 -3 -54 6 -50 8 2 13 20 13 43 0 21 4 49 8 61 7 19 -2 109
-20 211 -9 51 18 41 89 -34 35 -36 79 -73 97 -82 30 -15 39 -27 62 -94 15 -43
25 -78 23 -78 -3 0 0 -9 6 -20 6 -11 17 -20 24 -20 8 0 19 -7 26 -15 7 -8 18
-15 24 -15 6 0 -3 13 -19 28 -17 15 -36 48 -44 72 -7 25 -19 60 -27 78 -8 18
-14 37 -14 41 0 10 75 -10 109 -29 15 -8 21 -8 21 0 0 13 -87 53 -155 70 -42
11 -57 22 -94 66 -41 52 -91 91 -155 124 -40 20 -76 58 -124 129 -68 99 -73
118 -71 274 1 139 -3 168 -17 125 -8 -24 -9 -39 -12 -160 -2 -76 -3 -78 -29
-85 -16 -3 -46 -14 -68 -24 -22 -10 -56 -20 -75 -22 -19 -2 -48 -10 -65 -18
-53 -24 -146 -90 -140 -99 3 -6 14 -2 25 8 28 26 128 78 135 70 9 -9 -39 -97
-72 -132 -14 -15 -22 -30 -19 -33 16 -16 98 95 112 153 4 17 17 25 55 34 27 7
67 21 89 31 21 10 41 19 43 19 2 0 4 -71 5 -157 1 -87 5 -178 8 -202 15 -101
12 -124 -25 -186 -42 -71 -95 -140 -165 -214 -125 -134 -189 -221 -173 -237
10 -10 22 3 44 48 12 24 36 59 53 78 l30 35 -6 -90 c-10 -138 -10 -140 1 -145
11 -5 23 69 26 165 3 76 9 92 49 135 53 57 136 163 154 198 20 39 36 41 37 5
1 -67 19 -204 28 -222 10 -18 31 -202 30 -259 0 -34 -1 -35 -10 -13 -16 40
-19 19 -8 -50 6 -35 11 -113 11 -172 0 -104 1 -109 20 -103 12 2 39 -4 62 -14
62 -29 126 -50 153 -50 13 0 60 12 105 28 99 33 151 79 231 204 54 85 65 110
91 213 25 99 20 295 -11 443 -8 40 -13 76 -9 79 3 3 31 -19 63 -50 72 -69 157
-137 172 -137 6 0 11 -4 11 -10 0 -5 6 -10 13 -10 7 0 42 -19 77 -42 62 -40
134 -106 217 -199 57 -65 87 -84 173 -109 67 -20 89 -22 210 -17 146 7 158 8
234 33 68 22 122 61 141 102 14 27 20 32 38 25 32 -11 160 -5 204 11 52 17
137 134 152 209 22 108 9 397 -18 431 -5 6 -17 37 -26 69 -9 31 -19 57 -23 57
-4 0 -15 21 -26 48 -10 26 -32 68 -48 93 -16 27 -26 53 -22 63 3 9 1 16 -5 16
-6 0 -15 10 -20 23 -5 12 -21 39 -35 60 -14 21 -26 41 -26 44 0 3 -49 79 -109
167 -59 89 -112 173 -116 186 -4 14 -16 37 -26 52 -11 14 -19 30 -19 36 0 18
-138 188 -182 224 -51 41 -209 123 -288 148 -84 27 -232 42 -285 29z m-1075
-610 c0 -19 -67 -79 -89 -79 -17 0 -21 6 -21 30 0 25 4 30 23 30 13 0 32 7 43
15 23 17 44 19 44 4z m30 -1362 c0 -5 -4 -5 -10 -2 -5 3 -10 14 -10 23 0 15 2
15 10 2 5 -8 10 -19 10 -23z"/>
<path d="M8676 5615 c-54 -23 -113 -51 -130 -61 -17 -10 -34 -18 -37 -17 -3 1
-34 -27 -69 -63 -35 -35 -69 -64 -75 -64 -6 0 -21 -9 -33 -21 -14 -12 -47 -24
-84 -30 -70 -11 -76 -15 -60 -31 8 -8 15 -8 24 0 8 6 27 10 44 10 36 -1 151
59 171 89 12 17 21 21 46 17 47 -7 110 -26 124 -37 7 -5 27 -10 45 -12 18 -1
47 -7 63 -13 83 -29 185 -41 185 -22 0 6 -17 10 -37 10 -45 0 -83 9 -83 20 0
8 150 80 168 80 7 0 12 5 12 10 0 6 -7 10 -15 10 -15 0 -127 -52 -149 -68 -31
-25 -124 -17 -211 18 -16 6 -50 15 -75 19 -41 6 -43 7 -27 21 10 8 24 21 32
28 7 6 17 12 21 12 4 0 16 8 27 17 15 14 34 17 103 15 54 -2 84 1 84 7 0 7
-19 10 -46 8 -26 -1 -48 3 -50 8 -2 6 30 23 71 39 41 16 75 33 75 37 0 13 -5
11 -114 -36z"/>
<path d="M6200 5593 c25 -22 52 -58 65 -88 23 -50 27 -54 117 -95 41 -19 22
-33 -36 -26 -34 3 -44 2 -31 -4 18 -8 124 -26 268 -46 26 -3 47 -10 47 -15 0
-5 -5 -9 -10 -9 -6 0 -29 -8 -53 -19 -23 -10 -67 -26 -97 -35 -54 -16 -98 -41
-89 -51 3 -2 17 2 31 9 14 8 56 24 94 36 38 13 91 34 117 48 42 21 56 23 110
17 l61 -7 -25 -22 c-32 -28 -79 -109 -79 -136 0 -12 -10 -35 -21 -52 -14 -20
-18 -33 -11 -40 10 -10 62 82 62 110 0 20 46 94 74 121 20 18 28 21 44 12 28
-15 42 -14 42 4 0 20 58 24 175 11 76 -8 62 10 -20 25 -45 8 -79 8 -135 0
-120 -19 -144 -19 -166 -4 -12 8 -42 13 -65 12 -24 -1 -82 2 -128 6 -77 7 -86
11 -113 41 -16 18 -42 35 -56 39 -34 8 -92 63 -92 86 0 23 -45 76 -81 94 -46
24 -45 17 1 -22z"/>
<path d="M1180 5588 c-81 -10 -155 -33 -203 -63 -23 -14 -66 -42 -96 -60 -73
-46 -162 -117 -244 -194 -65 -61 -207 -243 -239 -306 -8 -16 -22 -43 -31 -60
-54 -98 -137 -292 -137 -317 0 -19 18 3 25 29 3 15 44 104 90 198 90 182 119
222 290 388 142 140 176 166 300 232 28 15 57 34 67 42 26 23 152 62 219 67
83 6 208 -17 272 -51 52 -28 156 -125 277 -261 64 -71 107 -102 163 -116 44
-10 31 9 -23 34 -49 23 -101 73 -237 227 -34 39 -91 91 -125 115 -103 72 -251
111 -368 96z"/>
<path d="M3215 5586 c-54 -14 -173 -70 -233 -111 -45 -31 -224 -193 -241 -218
-20 -30 -7 -29 28 3 18 17 35 30 38 30 3 0 25 17 48 38 223 198 345 250 553
232 29 -2 56 -13 80 -33 20 -16 64 -42 98 -58 42 -20 79 -48 120 -94 83 -91
144 -156 115 -123 -30 34 -21 36 20 6 42 -31 114 -155 259 -448 69 -139 86
-177 165 -365 51 -120 105 -276 105 -301 0 -9 7 -37 15 -63 21 -67 54 -259 67
-386 15 -145 12 -250 -8 -280 -39 -59 -74 -33 -128 93 -21 48 -42 91 -47 96
-18 19 -9 33 21 33 43 0 70 28 70 75 0 58 -20 128 -37 128 -10 0 -11 -5 -4
-18 5 -10 12 -47 16 -81 6 -70 -3 -91 -42 -91 -28 0 -113 41 -132 64 -8 9 -19
16 -25 16 -15 -1 66 -70 82 -70 7 0 15 -8 19 -17 3 -10 14 -36 23 -58 100
-220 94 -275 -27 -240 -42 12 -67 27 -95 58 -21 23 -38 45 -38 50 0 19 -63
140 -67 129 -6 -16 72 -181 95 -202 37 -34 90 -59 138 -65 47 -7 53 -5 79 21
18 19 29 25 32 17 9 -25 51 -14 77 20 41 53 47 103 35 262 -11 134 -38 336
-49 356 -5 9 -14 45 -20 80 -12 68 -16 83 -54 199 -30 91 -66 190 -93 250 -11
25 -33 77 -48 115 -33 85 -148 317 -198 400 -20 33 -45 78 -56 101 -28 57 -90
138 -132 171 -19 15 -59 55 -89 88 -54 59 -72 74 -120 95 -73 33 -98 46 -126
67 -55 41 -186 54 -289 29z"/>
<path d="M8152 5558 c-64 -122 -93 -167 -130 -194 -22 -18 -38 -35 -34 -38 3
-4 -56 -6 -132 -5 -124 1 -158 -3 -145 -15 2 -2 77 -7 167 -10 125 -5 168 -10
187 -22 14 -9 22 -21 18 -28 -4 -6 -6 -20 -5 -31 3 -30 -42 -75 -96 -95 -106
-41 -132 -54 -132 -67 0 -18 4 -17 50 12 41 26 70 32 70 16 0 -6 -4 -12 -9
-15 -4 -3 -11 -22 -14 -42 -3 -20 -18 -51 -32 -69 -28 -38 -30 -45 -12 -45 6
0 23 16 35 35 21 30 29 51 49 132 3 12 17 26 33 31 31 11 90 90 90 121 0 12 2
21 5 21 15 0 168 -82 215 -116 131 -93 186 -137 217 -174 32 -37 33 -41 28
-100 -3 -34 -10 -72 -15 -86 -15 -38 -67 -102 -167 -208 -18 -19 -33 -37 -33
-39 0 -3 -25 -30 -57 -60 -33 -32 -52 -57 -45 -61 6 -3 18 6 27 22 9 15 29 35
45 44 l28 16 6 -42 c3 -22 2 -66 -3 -96 -6 -35 -5 -62 1 -73 5 -10 11 -17 14
-15 10 11 13 212 2 231 -7 14 -7 22 -1 24 6 2 41 40 79 85 37 44 69 77 70 72
25 -123 39 -181 44 -189 4 -5 11 -31 14 -57 6 -40 3 -55 -24 -108 -17 -34 -29
-69 -27 -78 3 -16 17 9 62 112 l16 40 20 -40 c35 -72 64 -118 76 -121 12 -4
-4 39 -28 77 -5 8 -19 34 -31 58 -12 23 -26 42 -30 42 -4 0 -8 15 -8 34 0 19
-4 37 -9 40 -8 6 -24 68 -26 106 -1 8 -6 27 -13 42 -13 32 -7 82 15 117 9 13
18 53 21 88 2 34 9 63 15 63 8 0 37 -29 114 -115 15 -17 21 -31 14 -33 -22 -7
-11 -22 17 -22 30 0 77 -43 66 -61 -3 -5 -1 -15 4 -22 6 -7 13 -64 16 -129 7
-135 -4 -194 -56 -308 -19 -41 -41 -91 -48 -110 -8 -19 -31 -54 -53 -78 -48
-54 -43 -66 6 -17 20 20 41 34 45 31 5 -3 12 -28 16 -56 4 -28 11 -48 15 -46
8 5 5 29 -14 112 -5 24 1 49 25 105 18 41 42 97 54 125 l21 50 32 -65 c18 -36
39 -83 48 -103 17 -41 41 -53 30 -15 -4 12 -26 60 -48 107 -42 83 -42 85 -47
220 -3 74 -9 143 -14 153 -14 29 14 20 63 -21 25 -21 65 -51 89 -66 23 -14 42
-30 42 -34 0 -4 34 -43 75 -87 64 -67 132 -156 193 -250 30 -48 96 -223 119
-320 l7 -30 3 30 c2 17 -10 68 -27 115 -17 47 -36 101 -43 120 -6 19 -14 37
-17 40 -3 3 -13 21 -23 40 -47 89 -67 118 -111 165 -26 28 -53 61 -60 75 -8
14 -32 42 -54 62 -23 21 -45 44 -49 51 -11 18 -155 137 -166 137 -13 0 -177
166 -177 179 0 9 -160 170 -220 221 l-25 21 32 -6 c32 -6 49 -3 158 32 l51 16
44 -29 c24 -16 57 -37 74 -47 17 -11 45 -32 61 -48 31 -29 91 -56 102 -45 3 3
-6 10 -20 15 -14 6 -43 25 -64 44 -21 19 -53 42 -70 51 -18 9 -49 27 -69 41
-37 25 -36 27 18 39 14 3 39 17 55 30 21 18 45 26 91 30 34 3 71 10 82 16 26
14 86 7 108 -13 22 -20 204 -37 186 -18 -6 7 -41 14 -77 15 -42 2 -82 12 -113
26 -41 20 -52 22 -88 12 -23 -6 -66 -14 -96 -17 -35 -5 -75 -19 -110 -40 -30
-18 -68 -35 -85 -39 -16 -4 -37 -9 -45 -11 -12 -4 -16 7 -17 55 0 33 3 63 8
66 15 9 10 44 -6 44 -17 0 -30 -59 -20 -97 4 -17 0 -38 -11 -59 -14 -26 -27
-34 -71 -44 -41 -9 -57 -9 -68 0 -8 6 -23 9 -35 5 -16 -5 -43 8 -108 53 -85
58 -305 162 -342 162 -35 0 -29 17 20 53 28 21 50 42 50 47 0 6 8 10 19 10 10
0 24 6 30 14 7 8 37 25 67 37 30 13 54 26 54 31 0 14 -18 9 -84 -27 -36 -19
-68 -35 -70 -35 -3 0 4 20 16 45 12 25 28 45 35 45 7 0 12 9 10 20 -5 30 -13
32 -25 8z"/>
<path d="M6700 5529 c0 -23 42 -80 69 -94 38 -19 131 -31 131 -16 0 6 -17 11
-39 11 -22 0 -43 5 -46 10 -3 6 -15 10 -25 10 -12 0 -29 17 -46 45 -25 43 -44
58 -44 34z"/>
<path d="M6130 5408 c-19 -6 -69 -8 -110 -5 -73 4 -140 -12 -140 -35 0 -5 10
-3 23 3 20 11 143 20 307 21 38 1 56 4 45 8 -41 15 -91 18 -125 8z"/>
<path d="M1055 5367 c-9 -33 -3 -42 22 -33 11 5 14 10 6 14 -6 4 -13 16 -15
27 -4 17 -6 16 -13 -8z"/>
<path d="M6174 5329 c-60 -38 -59 -37 -51 -46 4 -3 17 3 30 14 12 11 40 30 62
41 22 12 33 21 24 22 -8 0 -37 -14 -65 -31z"/>
<path d="M9208 5342 c-10 -2 -18 -7 -18 -11 0 -5 -12 -11 -27 -15 -30 -6 -89
-53 -79 -63 3 -3 11 -1 18 5 7 5 36 22 63 37 70 38 87 57 43 47z"/>
<path d="M7227 5293 c7 -94 10 -118 17 -134 11 -25 -13 -34 -29 -13 -13 18
-14 18 -20 1 -4 -9 -2 -24 5 -32 10 -12 8 -24 -9 -60 -11 -25 -21 -48 -21 -52
-1 -8 -73 -126 -128 -209 -87 -131 -329 -383 -492 -513 -52 -41 -101 -84 -109
-94 -18 -24 -29 -12 -40 44 -6 35 -10 40 -16 25 -5 -11 -3 -37 3 -60 11 -40
11 -42 -26 -74 -20 -18 -62 -47 -92 -65 -30 -17 -77 -48 -103 -69 -27 -21 -55
-38 -62 -38 -7 0 -15 -3 -17 -7 -5 -12 -81 -63 -87 -58 -2 3 14 31 36 62 46
65 97 163 90 170 -3 2 -18 -17 -33 -44 -52 -92 -105 -171 -138 -205 -58 -60
-327 -211 -441 -248 -71 -23 -101 -25 -65 -5 24 14 24 14 -15 9 -72 -10 -84
-22 -41 -42 29 -13 147 17 221 57 27 15 66 33 85 41 19 8 61 31 92 52 32 21
68 42 80 47 13 5 68 39 123 74 55 36 147 96 205 133 171 109 177 114 259 188
43 39 93 82 111 96 72 54 162 141 325 315 41 44 42 46 -58 -93 -101 -142 -148
-213 -158 -239 -5 -15 -23 -56 -40 -91 -16 -35 -35 -94 -43 -130 -25 -120 -45
-226 -51 -282 -4 -30 -9 -64 -11 -75 -2 -11 -4 -78 -4 -150 1 -123 16 -237 50
-365 16 -61 72 -190 82 -190 11 0 12 -4 -21 86 -26 71 -72 262 -70 289 1 16
28 -48 29 -68 0 -25 56 -163 83 -206 30 -50 33 -22 3 36 -68 130 -125 343
-126 466 0 93 31 293 72 461 20 83 86 252 112 289 94 131 152 209 181 242 19
22 55 69 78 105 137 206 162 245 167 259 3 9 21 45 39 81 19 36 37 79 41 95 4
17 12 29 18 28 16 -4 15 13 -3 40 -14 22 -11 67 5 67 5 0 11 -23 15 -51 6 -44
9 -49 21 -37 12 12 12 20 -2 60 -9 29 -22 48 -35 51 -15 4 -19 13 -17 38 2 24
-2 34 -13 37 -13 2 -15 -5 -12 -45z"/>
<path d="M7154 5318 c-4 -7 -7 -27 -6 -45 2 -18 -1 -33 -6 -33 -17 0 -189
-175 -240 -245 -67 -91 -55 -76 -152 -186 -282 -317 -347 -383 -575 -579 -48
-41 -115 -100 -149 -130 -34 -30 -73 -62 -86 -70 -12 -8 -45 -32 -71 -53 -27
-20 -62 -45 -78 -55 -16 -9 -68 -43 -114 -74 -46 -31 -103 -67 -126 -79 -23
-12 -40 -23 -38 -26 9 -8 84 33 176 97 100 68 104 65 46 -25 -19 -30 -33 -55
-30 -55 6 0 78 100 93 131 8 14 26 33 40 42 30 17 56 38 146 112 34 28 84 68
111 90 28 21 52 42 55 46 3 3 30 27 60 54 96 83 242 219 274 255 90 99 115
124 122 117 8 -7 -11 -104 -28 -147 -10 -25 -38 -125 -38 -137 0 -3 7 0 15 7
19 16 41 89 65 219 12 59 27 113 37 125 10 12 38 44 63 72 25 29 58 67 74 85
16 19 63 77 103 129 41 52 113 132 161 177 77 74 88 81 102 68 19 -17 40 -20
40 -6 0 5 -5 11 -12 13 -15 5 -20 75 -7 100 7 14 6 18 -5 18 -8 0 -18 -5 -22
-12z"/>
<path d="M6670 5295 c0 -8 7 -15 15 -15 8 0 15 4 15 9 0 5 -7 11 -15 15 -9 3
-15 0 -15 -9z"/>
<path d="M1140 5281 c-10 -21 -4 -51 11 -51 5 0 9 10 9 21 0 12 8 28 18 35 16
12 15 13 -5 14 -12 0 -27 -9 -33 -19z"/>
<path d="M7830 5255 c-18 -19 -20 -25 -8 -25 15 0 48 30 48 43 0 14 -17 6 -40
-18z"/>
<path d="M2761 5233 c-47 -35 -62 -54 -43 -53 8 1 107 90 99 90 -2 0 -27 -17
-56 -37z"/>
<path d="M8715 5260 c3 -5 8 -10 11 -10 2 0 4 5 4 10 0 6 -5 10 -11 10 -5 0
-7 -4 -4 -10z"/>
<path d="M1210 5245 c0 -9 5 -15 10 -13 12 4 11 16 -1 24 -5 3 -9 -2 -9 -11z"/>
<path d="M7040 5227 c-25 -17 -92 -78 -149 -134 -57 -57 -109 -103 -115 -103
-34 0 -216 -85 -271 -126 -57 -43 -154 -84 -219 -93 -36 -5 -70 -12 -76 -16
-5 -3 -10 1 -10 10 0 14 -3 14 -28 1 -24 -13 -32 -13 -53 -1 -39 23 -69 35
-85 35 -35 0 -81 29 -93 59 -8 18 -32 42 -60 59 -62 38 -121 65 -128 59 -10
-11 8 -26 52 -40 51 -18 115 -63 115 -82 0 -24 49 -65 77 -65 15 -1 54 -13 87
-29 l58 -28 -45 -11 c-25 -7 -74 -15 -109 -18 -35 -3 -79 -9 -98 -14 -104 -24
-157 -42 -170 -58 -8 -9 -30 -28 -47 -40 -18 -13 -33 -28 -33 -33 0 -6 20 6
44 26 56 46 154 80 271 96 49 6 126 22 170 35 44 12 103 26 130 29 88 11 155
28 166 42 6 7 16 13 21 13 5 0 30 15 56 32 63 44 95 62 172 99 97 47 110 51
110 35 0 -7 57 44 128 114 70 69 143 138 162 153 49 37 25 32 -30 -6z"/>
<path d="M3340 5230 c0 -18 70 -143 77 -136 3 2 -12 35 -32 73 -43 78 -45 81
-45 63z"/>
<path d="M2680 5205 c-13 -14 -28 -25 -33 -25 -6 0 -45 -20 -87 -45 -43 -24
-97 -50 -120 -57 -25 -8 -45 -20 -48 -30 -5 -19 -37 -24 -47 -8 -3 6 -16 10
-28 10 -22 1 -22 1 -2 16 17 13 18 16 5 24 -8 5 -22 10 -32 10 -12 0 -15 6
-11 21 5 19 3 21 -20 15 -26 -6 -37 6 -17 19 17 10 11 25 -10 25 -11 0 -20 -6
-20 -13 0 -7 -13 -28 -30 -47 -33 -40 -38 -55 -13 -46 9 4 20 1 24 -5 5 -9 14
-9 37 0 17 7 39 11 49 8 14 -3 11 -7 -14 -18 -38 -16 -44 -32 -9 -23 14 3 33
1 43 -5 17 -10 16 -10 -4 -11 -13 0 -23 -5 -23 -10 0 -15 96 -2 145 19 67 30
87 40 156 79 97 55 175 122 141 122 -5 0 -19 -11 -32 -25z"/>
<path d="M3470 5223 c0 -5 16 -18 35 -31 19 -12 35 -29 35 -37 0 -7 5 -17 10
-20 25 -15 7 30 -24 61 -32 32 -56 43 -56 27z"/>
<path d="M850 5179 c-32 -28 -32 -29 -5 -11 17 10 39 24 50 30 15 8 16 11 5
12 -9 0 -31 -14 -50 -31z"/>
<path d="M1671 5194 c0 -11 3 -14 6 -6 3 7 2 16 -1 19 -3 4 -6 -2 -5 -13z"/>
<path d="M6288 5191 c-26 -9 -50 -19 -54 -23 -4 -5 -15 -8 -24 -8 -8 0 -33 -9
-55 -20 -22 -11 -51 -20 -66 -20 -14 0 -43 -11 -63 -25 -20 -13 -70 -38 -110
-55 -41 -17 -80 -38 -87 -46 -11 -13 -9 -14 17 -3 16 7 34 16 39 20 6 3 28 12
50 19 22 7 56 21 75 31 65 34 146 66 248 98 56 17 102 36 102 41 0 13 -15 11
-72 -9z"/>
<path d="M7357 5187 c-10 -26 -9 -95 2 -102 15 -9 18 7 12 65 -4 38 -8 49 -14
37z"/>
<path d="M3780 5187 c0 -3 29 -36 64 -72 36 -37 72 -82 81 -101 8 -18 20 -36
25 -39 33 -20 -25 71 -86 136 -49 53 -84 84 -84 76z"/>
<path d="M6383 5156 c-17 -18 -45 -64 -63 -102 -17 -38 -39 -77 -47 -86 -9
-10 -11 -18 -5 -18 15 0 54 53 86 117 14 29 40 68 57 88 41 46 14 48 -28 1z"/>
<path d="M2083 5135 c-20 -42 -33 -45 -34 -7 0 23 -2 25 -12 10 -10 -15 -12
-15 -22 -1 -16 21 -35 8 -35 -23 0 -16 -6 -24 -18 -24 -19 0 -42 -18 -42 -33
0 -5 7 -7 15 -3 19 7 47 -3 39 -15 -3 -5 -16 -6 -29 -3 -12 3 -26 1 -29 -5 -4
-6 -16 -11 -27 -11 -38 0 -99 -41 -173 -115 -79 -79 -123 -147 -150 -231 -19
-57 -70 -144 -86 -144 -5 0 -12 11 -16 25 -9 35 -22 31 -41 -12 l-16 -38 -14
55 c-18 69 -26 85 -44 85 -10 0 -15 -21 -19 -80 -3 -44 -9 -73 -12 -65 -4 8
-21 53 -37 99 -17 46 -36 90 -42 97 -14 17 -46 18 -51 2 -8 -24 19 -133 50
-198 16 -36 26 -67 21 -68 -5 -2 -25 6 -45 17 -41 25 -54 26 -54 7 0 -13 29
-45 81 -90 21 -18 22 -18 41 1 16 17 17 24 7 49 -22 56 -28 70 -54 145 -15 42
-25 89 -23 105 3 27 5 26 30 -26 15 -30 34 -80 42 -111 30 -106 63 -98 68 16
l3 70 14 -60 c18 -76 27 -87 50 -56 18 23 18 23 24 2 3 -11 10 -21 17 -21 20
0 117 100 130 133 23 59 82 177 89 177 4 0 25 24 46 53 22 28 44 54 49 56 5 2
25 18 45 36 48 43 73 55 114 55 21 0 41 7 52 20 10 11 30 20 44 20 30 1 52 12
104 55 40 33 47 48 20 43 -11 -2 -22 6 -28 20 -13 30 -23 28 -42 -13z m-816
-742 c9 -23 -1 -23 -25 2 -22 23 -22 23 -1 18 11 -3 23 -12 26 -20z"/>
<path d="M1013 5153 c-7 -2 -29 -32 -49 -65 -27 -45 -34 -62 -25 -71 9 -9 16
-8 31 1 11 6 35 12 54 12 19 0 38 5 42 11 4 8 -9 10 -45 8 -28 -2 -51 0 -51 5
0 16 40 74 55 80 8 3 15 10 15 16 0 11 -7 12 -27 3z"/>
<path d="M1555 5149 c-10 -15 3 -25 16 -12 7 7 7 13 1 17 -6 3 -14 1 -17 -5z"/>
<path d="M7898 5153 c-10 -2 -18 -9 -18 -15 0 -6 10 -8 23 -4 12 3 26 6 30 6
5 0 5 5 2 10 -6 10 -9 11 -37 3z"/>
<path d="M790 5135 c-7 -9 -8 -15 -2 -15 5 0 12 7 16 15 3 8 4 15 2 15 -2 0
-9 -7 -16 -15z"/>
<path d="M877 5139 c-37 -22 -187 -289 -187 -334 0 -26 24 -16 55 23 17 22 21
31 10 22 -11 -8 -23 -19 -27 -25 -4 -5 -10 -6 -13 -3 -4 4 2 24 13 45 11 21
37 72 57 113 20 41 55 96 77 123 21 26 38 47 36 47 -2 0 -11 -5 -21 -11z"/>
<path d="M3250 5141 c0 -6 4 -20 9 -33 5 -13 14 -43 21 -67 8 -29 14 -40 20
-31 4 7 1 33 -8 58 -14 42 -14 46 3 59 11 7 17 13 14 14 -43 8 -59 8 -59 0z"/>
<path d="M3720 5124 c0 -3 19 -29 43 -58 24 -29 56 -79 73 -111 16 -32 30 -52
32 -43 4 18 -56 125 -100 178 -30 36 -48 49 -48 34z"/>
<path d="M6440 5120 c0 -5 5 -10 10 -10 6 0 10 5 10 10 0 6 -4 10 -10 10 -5 0
-10 -4 -10 -10z"/>
<path d="M6645 5120 c-3 -5 -28 -19 -55 -31 -54 -23 -84 -49 -57 -49 20 0 137
69 137 81 0 12 -17 11 -25 -1z"/>
<path d="M3517 5094 c-12 -13 -8 -22 14 -27 15 -4 19 -1 17 10 -3 18 -21 27
-31 17z"/>
<path d="M6171 5056 c-25 -25 -61 -53 -80 -63 -24 -11 -31 -18 -20 -21 30 -6
155 94 148 117 -2 6 -24 -9 -48 -33z"/>
<path d="M584 5027 c-33 -35 -64 -74 -71 -87 -40 -83 -83 -184 -79 -188 3 -2
16 22 31 55 56 122 72 148 133 212 34 36 62 67 62 68 0 14 -27 -7 -76 -60z"/>
<path d="M8356 5064 c-9 -33 -76 -123 -113 -150 -40 -29 -100 -58 -160 -78
-28 -9 -54 -24 -57 -32 -3 -7 -12 -14 -20 -14 -7 0 -16 -7 -20 -15 -6 -17 23
-21 40 -6 10 10 122 71 129 71 14 0 2 -67 -20 -110 -28 -56 -33 -100 -10 -100
8 0 15 9 15 20 0 24 22 26 40 5 17 -20 32 -8 20 16 -6 10 -20 19 -30 19 -23 0
-26 17 -6 45 7 11 16 38 19 59 6 36 49 96 69 96 28 0 128 145 128 185 0 25
-17 17 -24 -11z"/>
<path d="M1520 5073 c0 -5 4 -15 10 -23 11 -18 25 -7 17 15 -6 15 -27 21 -27
8z"/>
<path d="M2543 5070 c-13 -5 -23 -14 -23 -20 0 -15 12 -12 40 10 27 21 20 25
-17 10z"/>
<path d="M7333 5035 c-15 -21 -57 -73 -93 -117 -36 -45 -78 -97 -93 -117 -15
-20 -32 -37 -38 -37 -22 -3 -23 -5 -11 -12 9 -6 0 -25 -36 -73 -97 -129 -123
-201 -167 -469 -8 -47 -24 -125 -36 -175 -47 -193 -24 -426 53 -535 69 -99
132 -139 283 -181 96 -26 272 -23 282 6 2 6 -37 9 -109 7 -121 -4 -161 5 -273
58 -81 39 -162 126 -200 216 -19 44 -33 193 -29 299 2 39 13 106 24 150 12 44
37 152 55 240 18 88 44 192 57 230 26 77 113 207 238 357 82 98 135 176 127
184 -3 3 -18 -11 -34 -31z"/>
<path d="M9293 5047 c-21 -9 -28 -24 -24 -53 1 -7 -25 -14 -66 -17 -126 -11
-183 -19 -189 -28 -7 -12 12 -11 120 6 51 8 104 15 117 15 93 1 184 12 207 25
l27 15 -35 -5 c-61 -10 -170 -12 -170 -3 0 4 9 17 21 29 25 25 22 30 -8 16z"/>
<path d="M3120 5026 c0 -24 22 -76 32 -76 5 0 6 9 2 23 -5 12 -8 32 -7 45 0
13 -5 22 -13 22 -8 0 -14 -6 -14 -14z"/>
<path d="M3671 4961 c61 -80 89 -103 89 -76 0 8 -4 15 -8 15 -5 0 -23 19 -40
43 -40 55 -80 97 -93 97 -5 0 18 -36 52 -79z"/>
<path d="M1095 5010 c-18 -20 -14 -55 6 -48 9 3 23 68 14 68 -1 0 -10 -9 -20
-20z"/>
<path d="M2103 5015 c-38 -16 -46 -40 -9 -25 21 8 23 6 19 -13 -5 -18 -3 -20
8 -9 18 17 48 15 55 -3 4 -8 17 -15 29 -15 13 0 27 -4 30 -10 3 -5 15 -10 26
-10 10 0 19 5 19 10 0 6 -9 10 -19 10 -29 0 -36 19 -10 29 19 6 14 9 -29 15
-31 4 -52 12 -52 19 0 17 -29 18 -67 2z"/>
<path d="M1232 4993 c-6 -58 -6 -68 3 -73 5 -3 12 9 16 25 4 17 10 38 14 48 5
13 2 17 -12 17 -10 0 -20 -8 -21 -17z"/>
<path d="M2332 4989 c-37 -14 -16 -29 33 -22 31 4 45 2 45 -6 0 -6 -17 -11
-40 -11 -22 0 -40 -4 -40 -10 0 -5 17 -10 38 -10 20 0 47 -3 59 -6 19 -5 22
-2 20 22 -2 23 -8 30 -27 32 -14 2 -29 8 -34 13 -12 11 -24 11 -54 -2z"/>
<path d="M3527 4994 c-4 -4 14 -25 38 -46 25 -22 48 -51 51 -64 7 -27 8 -28
35 -14 22 12 26 32 5 24 -8 -3 -20 3 -28 13 -27 35 -94 93 -101 87z"/>
<path d="M3895 4989 c-10 -15 3 -25 16 -12 7 7 7 13 1 17 -6 3 -14 1 -17 -5z"/>
<path d="M2994 4914 c7 -46 20 -73 30 -63 10 10 -10 103 -23 107 -11 4 -12 -5
-7 -44z"/>
<path d="M3450 4950 c0 -19 28 -64 54 -89 35 -33 32 -14 -4 29 -17 19 -30 42
-30 52 0 10 -4 18 -10 18 -5 0 -10 -5 -10 -10z"/>
<path d="M1315 4928 c-7 -18 0 -38 14 -38 4 0 16 7 27 16 16 13 16 15 2 10
-10 -3 -21 2 -27 12 -9 16 -10 16 -16 0z"/>
<path d="M2192 4910 c1 -20 7 -32 20 -36 25 -8 12 -25 -15 -19 -15 4 -26 0
-34 -14 -11 -17 -9 -23 14 -41 14 -11 23 -23 19 -27 -3 -4 -12 -1 -18 5 -18
18 -38 14 -38 -6 0 -18 19 -40 49 -57 11 -6 13 -4 8 8 -4 11 -1 17 9 17 8 0
22 6 30 14 12 13 10 17 -12 35 -15 12 -31 21 -35 21 -5 0 -9 5 -9 10 0 15 26
12 40 -5 7 -8 16 -12 22 -9 5 3 4 12 -3 20 -9 11 -6 15 20 20 39 8 40 20 1 29
-46 10 -51 29 -6 22 27 -4 36 -3 33 6 -2 7 -19 14 -38 18 -19 3 -40 8 -46 12
-8 5 -11 -2 -11 -23z"/>
<path d="M6705 4878 c-27 -34 -65 -76 -83 -94 -19 -19 -32 -39 -30 -45 3 -10
178 182 178 195 0 16 -20 -1 -65 -56z"/>
<path d="M7418 4933 c-10 -2 -18 -8 -18 -13 0 -11 30 -34 31 -24 0 5 2 17 4
27 2 9 3 16 2 16 -1 -1 -10 -3 -19 -6z"/>
<path d="M3390 4921 c0 -5 10 -31 22 -58 12 -26 25 -59 29 -73 l7 -25 1 27 c0
15 -10 52 -23 83 -23 51 -36 68 -36 46z"/>
<path d="M6888 4924 c-11 -10 -10 -78 1 -89 5 -6 16 -36 26 -68 10 -32 22 -60
26 -63 16 -9 9 40 -12 101 -12 33 -25 75 -28 93 -3 19 -9 30 -13 26z"/>
<path d="M9020 4919 c0 -5 6 -9 14 -9 8 0 43 -32 78 -71 35 -38 80 -79 100
-90 21 -10 65 -46 99 -80 33 -33 63 -58 66 -55 8 8 -7 26 -23 26 -8 0 -12 4
-9 10 3 5 -4 17 -16 27 -12 10 -33 28 -46 40 -14 12 -47 36 -74 54 -27 17 -49
35 -49 40 0 18 -82 98 -111 108 -18 6 -29 6 -29 0z"/>
<path d="M913 4898 c-29 -37 -34 -108 -8 -108 20 0 28 17 11 23 -15 6 -11 53
7 75 5 7 8 15 5 17 -3 3 -10 0 -15 -7z"/>
<path d="M2903 4903 c-17 -6 -16 -28 2 -43 13 -11 15 -8 15 19 0 17 -1 31 -2
30 -2 0 -9 -3 -15 -6z"/>
<path d="M2350 4891 c0 -6 11 -11 25 -11 14 0 34 -5 45 -12 21 -14 40 -4 23
13 -16 16 -93 24 -93 10z"/>
<path d="M1120 4879 c0 -5 5 -7 10 -4 6 3 10 8 10 11 0 2 -4 4 -10 4 -5 0 -10
-5 -10 -11z"/>
<path d="M3250 4861 c0 -26 16 -51 32 -51 5 0 3 9 -4 20 -14 22 -3 39 14 22 7
-7 16 -12 22 -12 15 0 -24 38 -45 43 -15 4 -19 0 -19 -22z"/>
<path d="M7927 4884 c-8 -8 1 -24 14 -24 5 0 9 7 9 15 0 15 -12 20 -23 9z"/>
<path d="M1022 4864 c-9 -17 -9 -24 2 -33 18 -15 25 -3 16 29 -6 25 -6 25 -18
4z"/>
<path d="M1382 4848 c-12 -12 -17 -38 -6 -38 16 0 44 23 44 35 0 18 -21 20
-38 3z"/>
<path d="M2320 4850 c0 -14 35 -30 64 -30 14 0 28 -5 31 -10 4 -6 11 -8 16 -4
19 12 -41 54 -77 54 -18 0 -34 -4 -34 -10z"/>
<path d="M5660 4853 c1 -34 87 -45 206 -27 80 12 46 21 -65 16 -74 -3 -111 -1
-115 7 -8 12 -26 15 -26 4z"/>
<path d="M9230 4822 c0 -20 30 -33 72 -31 23 1 53 -1 66 -5 13 -4 22 -3 22 3
0 15 -45 24 -81 17 -20 -4 -39 0 -55 10 -13 9 -24 12 -24 6z"/>
<path d="M3140 4810 c0 -5 5 -10 10 -10 6 0 10 5 10 10 0 6 -4 10 -10 10 -5 0
-10 -4 -10 -10z"/>
<path d="M8766 4802 c16 -16 94 -42 121 -42 14 0 34 -7 42 -15 21 -19 101 -32
101 -16 0 6 -10 11 -23 11 -12 0 -39 9 -60 20 -20 11 -50 20 -66 20 -16 0 -45
7 -64 15 -40 17 -67 20 -51 7z"/>
<path d="M2310 4792 c0 -6 -3 -17 -6 -25 -4 -11 4 -17 28 -22 18 -4 41 -14 51
-23 16 -14 17 -13 17 6 0 11 6 22 13 25 9 3 8 8 -3 20 -18 18 -100 34 -100 19z
m53 -19 c-7 -2 -19 -2 -25 0 -7 3 -2 5 12 5 14 0 19 -2 13 -5z"/>
<path d="M9430 4784 c8 -3 24 -9 35 -14 30 -13 124 -20 130 -10 5 8 -32 15
-135 25 -25 2 -38 2 -30 -1z"/>
<path d="M2068 4773 c7 -3 16 -2 19 1 4 3 -2 6 -13 5 -11 0 -14 -3 -6 -6z"/>
<path d="M3341 4764 c0 -11 3 -14 6 -6 3 7 2 16 -1 19 -3 4 -6 -2 -5 -13z"/>
<path d="M6824 4715 c-22 -72 -16 -90 9 -22 24 66 29 87 20 87 -4 0 -17 -30
-29 -65z"/>
<path d="M9442 4748 c6 -18 54 -51 68 -46 6 2 -7 16 -30 31 -23 15 -40 22 -38
15z"/>
<path d="M3460 4737 l-35 -11 33 -4 c31 -3 32 -4 15 -17 -10 -7 -15 -17 -11
-21 11 -11 43 22 45 46 2 22 2 23 -47 7z"/>
<path d="M3666 4716 c-27 -36 -34 -60 -15 -54 15 5 63 88 51 88 -5 0 -21 -15
-36 -34z"/>
<path d="M2083 4728 c-6 -7 -13 -20 -16 -29 -4 -13 -15 -16 -51 -12 -61 7
-125 -18 -157 -60 -31 -41 -59 -103 -59 -131 0 -53 -60 -142 -177 -262 -114
-117 -121 -122 -198 -150 -49 -17 -100 -44 -132 -70 -48 -38 -50 -42 -35 -58
14 -14 15 -20 4 -37 -15 -23 -8 -39 10 -21 8 8 18 3 40 -18 34 -35 34 -72 1
-106 -27 -27 -32 -54 -7 -33 13 11 14 9 9 -14 -11 -41 1 -70 34 -90 39 -23 50
-5 17 28 -29 29 -33 68 -14 121 l12 33 71 -72 c40 -40 77 -82 84 -94 6 -12 10
-50 9 -83 -3 -51 0 -64 16 -76 25 -18 43 -3 52 42 9 51 -41 153 -105 213 -85
78 -111 104 -158 155 -29 30 -53 60 -53 65 0 19 84 70 133 81 29 7 60 14 70
17 15 4 76 63 221 213 23 25 47 54 51 65 l8 20 4 -20 c15 -67 37 -129 53 -145
16 -16 17 -24 8 -52 -6 -18 -15 -42 -21 -53 -6 -11 -14 -27 -18 -35 -15 -31
-71 -186 -79 -220 -43 -184 -46 -209 -45 -350 1 -177 15 -241 57 -271 25 -18
32 -19 39 -8 6 9 9 -4 9 -39 0 -78 62 -182 108 -182 22 0 52 30 52 51 -1 11
-4 10 -14 -3 -23 -31 -44 -20 -89 49 -35 53 -43 75 -43 109 1 39 -1 43 -20 38
-30 -8 -40 10 -60 106 -33 158 -12 412 46 545 10 22 23 59 30 83 7 23 16 42
20 42 12 0 28 50 35 108 7 57 21 68 31 25 12 -57 28 -85 52 -94 35 -13 47 2
24 32 -26 32 -48 137 -33 152 18 18 29 -4 33 -72 5 -67 21 -91 61 -91 16 0 17
2 7 15 -20 24 -6 28 28 8 17 -10 33 -15 37 -12 3 3 -6 26 -20 50 -26 45 -33
93 -15 104 16 10 12 55 -4 55 -8 0 -18 -5 -21 -10 -5 -8 -12 -7 -23 2 -11 10
-16 10 -19 1 -3 -7 -16 -10 -37 -6 -31 5 -34 2 -54 -38 -18 -36 -22 -40 -28
-23 -4 10 -13 26 -20 34 -7 8 -16 33 -20 55 -6 36 -5 39 9 27 13 -11 15 -10
10 10 -4 19 -3 20 7 8 9 -12 10 -9 5 14 -16 75 -15 90 4 41 10 -27 24 -49 30
-48 6 2 11 -3 11 -11 0 -15 28 -42 36 -34 2 3 -12 27 -32 54 -22 29 -42 70
-50 103 -16 69 -16 71 -4 71 6 0 10 -8 10 -18 0 -19 58 -141 80 -167 25 -30
30 -14 6 18 -31 41 -79 143 -74 159 2 6 12 -10 22 -35 10 -26 22 -47 28 -47 5
0 8 3 6 8 -43 85 -59 142 -40 142 5 0 21 -42 36 -92 26 -88 48 -128 68 -128 5
0 0 12 -11 28 -23 31 -38 82 -24 82 5 0 17 -16 26 -36 10 -19 21 -32 27 -29
13 8 -29 75 -47 75 -17 0 -56 83 -50 108 3 15 5 15 12 -3 13 -31 57 -96 62
-91 2 2 -7 27 -21 55 -28 54 -32 71 -17 71 5 0 12 -13 16 -29 3 -16 15 -37 26
-47 23 -21 25 -12 3 21 -20 31 -2 33 19 3 9 -13 16 -18 16 -11 1 6 -3 15 -9
18 -18 11 -10 22 21 29 19 4 33 13 36 26 4 16 11 18 31 13 22 -5 24 -3 19 16
-4 17 -2 21 9 17 15 -6 18 3 8 28 -7 19 -38 21 -51 4z m-263 -305 c0 -21 -3
-24 -9 -14 -5 8 -7 20 -4 28 8 21 13 15 13 -14z m184 -225 c-9 -61 -24 -71
-24 -17 0 25 3 49 7 52 16 17 23 4 17 -35z"/>
<path d="M2255 4717 c-16 -18 -16 -21 -1 -29 9 -5 16 -18 16 -29 0 -15 6 -20
23 -17 15 2 21 9 19 21 -2 10 3 17 13 17 24 0 17 13 -19 36 l-34 22 -17 -21z"/>
<path d="M3903 4733 c-15 -5 -18 -83 -4 -83 5 0 11 19 13 43 6 49 6 45 -9 40z"/>
<path d="M9045 4730 c-3 -5 1 -10 10 -10 9 0 13 5 10 10 -3 6 -8 10 -10 10 -2
0 -7 -4 -10 -10z"/>
<path d="M466 4705 c-10 -15 -22 -51 -29 -81 -9 -46 -9 -56 4 -69 14 -14 21
-8 73 60 31 42 60 84 62 93 4 13 2 12 -10 -3 -62 -79 -102 -125 -108 -125 -14
0 -9 38 12 92 22 59 21 71 -4 33z"/>
<path d="M6235 4705 c-22 -13 -44 -27 -50 -32 -35 -30 -114 -83 -123 -83 -6 0
-24 -17 -41 -39 -34 -42 -29 -41 -211 -70 -125 -21 -187 -38 -237 -67 -31 -18
-60 -61 -49 -72 5 -4 17 9 56 58 12 15 133 49 215 59 50 7 110 18 134 26 52
18 54 21 -61 -98 -43 -44 -77 -82 -75 -84 6 -5 107 75 107 85 0 4 42 49 93
100 87 88 122 117 245 198 73 49 71 62 -3 19z"/>
<path d="M6523 4672 c-28 -31 -62 -70 -75 -87 -71 -93 -237 -258 -398 -397
-133 -113 -227 -190 -271 -220 -27 -18 -51 -39 -54 -46 -6 -16 4 -10 63 32
108 78 205 158 318 262 49 46 110 99 135 118 44 34 166 163 197 207 9 13 44
57 79 97 53 61 74 92 61 92 -2 0 -26 -26 -55 -58z"/>
<path d="M7056 4714 c-18 -17 -20 -24 -8 -24 4 0 13 9 20 20 15 24 9 26 -12 4z"/>
<path d="M621 4687 c-5 -13 -12 -49 -16 -80 -6 -48 -5 -57 8 -57 19 0 117 108
117 129 0 14 -41 -26 -80 -79 -28 -38 -36 -16 -19 50 15 58 8 84 -10 37z"/>
<path d="M3030 4688 c0 -20 53 -68 74 -68 19 1 18 2 -6 17 -14 9 -31 27 -37
40 -11 24 -31 31 -31 11z"/>
<path d="M6750 4673 c-21 -25 -41 -89 -56 -188 -6 -35 -5 -38 9 -27 9 8 19 38
23 70 4 31 8 64 9 72 1 8 8 15 16 15 8 0 16 16 20 40 4 22 6 41 5 42 -2 2 -13
-9 -26 -24z"/>
<path d="M5530 4681 c0 -6 15 -11 33 -11 18 0 50 -9 72 -20 45 -23 45 -23 45
-10 0 15 -50 37 -102 44 -32 5 -48 4 -48 -3z"/>
<path d="M812 4648 c-14 -53 15 -87 46 -56 18 18 14 27 -9 21 -20 -5 -21 -3
-17 31 5 45 -8 47 -20 4z"/>
<path d="M3190 4673 c0 -11 58 -43 76 -43 25 0 14 15 -25 33 -41 19 -51 21
-51 10z"/>
<path d="M1005 4650 c-13 -15 -26 -19 -42 -15 -18 4 -23 1 -23 -15 0 -12 7
-20 18 -20 22 0 75 45 70 60 -2 7 -11 3 -23 -10z"/>
<path d="M2223 4652 c21 -23 21 -32 2 -32 -9 0 -18 7 -21 15 -10 25 -27 17
-20 -10 8 -29 -10 -34 -30 -7 -20 27 -40 -5 -35 -55 1 -15 41 -18 41 -3 0 6
16 10 36 10 27 0 37 5 41 20 3 11 12 20 19 20 20 0 17 17 -6 40 -25 25 -49 27
-27 2z"/>
<path d="M2690 4601 c0 -16 5 -33 10 -36 6 -4 10 6 10 24 0 16 -4 33 -10 36
-6 4 -10 -6 -10 -24z"/>
<path d="M3916 4604 c-3 -9 -6 -31 -6 -49 0 -19 -4 -36 -9 -39 -5 -4 -51 8
-101 25 -50 16 -97 28 -103 26 -14 -5 -16 -4 117 -52 111 -39 116 -38 116 32
0 23 3 48 6 57 3 9 2 16 -4 16 -5 0 -13 -7 -16 -16z"/>
<path d="M6146 4569 c-13 -66 -1 -269 15 -269 12 0 12 287 0 294 -5 3 -11 -8
-15 -25z"/>
<path d="M2280 4571 c0 -12 5 -21 10 -21 6 0 10 6 10 14 0 8 -4 18 -10 21 -5
3 -10 -3 -10 -14z"/>
<path d="M6920 4530 c-23 -34 -40 -64 -37 -66 3 -3 11 5 18 18 6 12 25 40 42
61 16 21 27 40 25 43 -3 2 -24 -23 -48 -56z"/>
<path d="M198 4487 c-15 -45 -29 -95 -32 -112 -3 -16 -11 -52 -16 -80 -52
-245 -84 -560 -58 -576 10 -6 9 -11 -3 -21 -14 -11 -15 -33 -9 -163 4 -82 11
-159 15 -169 8 -19 9 -19 17 0 6 14 7 12 4 -10 -5 -41 35 -82 65 -66 22 12 63
93 57 112 -2 6 -10 -4 -17 -23 -21 -55 -27 -64 -49 -65 -18 -1 -24 9 -38 55
-10 31 -19 85 -22 121 -2 36 -8 69 -13 75 -12 12 -11 55 1 55 6 0 10 17 10 38
0 84 13 172 25 172 7 0 16 7 19 16 5 14 4 15 -9 4 -20 -16 -21 -14 -29 40 -4
27 -3 40 3 32 10 -16 17 15 26 123 6 67 21 154 50 295 18 87 38 221 33 226 -2
2 -16 -34 -30 -79z"/>
<path d="M2060 4559 c0 -9 9 -24 20 -34 26 -23 26 -8 0 25 -14 18 -20 21 -20
9z"/>
<path d="M8462 4548 c-17 -17 -15 -45 3 -52 10 -3 17 3 21 20 8 30 -7 49 -24
32z"/>
<path d="M3384 4536 c-3 -8 -7 -21 -8 -29 -5 -39 -26 -47 -115 -43 -47 1 -97
6 -111 10 -14 3 -7 -3 15 -14 34 -18 52 -20 120 -15 86 6 100 14 114 63 10 32
-4 57 -15 28z"/>
<path d="M2002 4515 c6 -14 15 -25 20 -25 11 0 10 7 -2 31 -16 28 -32 23 -18
-6z"/>
<path d="M3460 4520 c0 -11 55 -52 97 -74 61 -31 94 -19 109 38 5 22 4 28 -7
24 -8 -3 -16 -18 -19 -34 -8 -43 -36 -41 -112 10 -38 24 -68 40 -68 36z"/>
<path d="M9163 4521 c-91 -9 -92 -24 0 -19 57 4 80 2 88 -9 6 -7 23 -13 38
-13 14 -1 40 -1 56 -1 17 -1 71 0 120 2 103 2 224 -18 242 -41 11 -13 12 -13
13 1 0 9 -6 21 -12 26 -21 15 -138 34 -203 33 -158 -4 -212 0 -240 14 -17 9
-32 15 -35 14 -3 0 -33 -4 -67 -7z"/>
<path d="M3077 4513 c-4 -3 -7 -17 -7 -29 0 -42 -42 -47 -123 -15 -36 14 -37
14 -37 -5 0 -9 6 -14 13 -11 6 2 26 -2 44 -10 35 -14 91 -17 110 -5 14 9 29
82 16 82 -5 0 -13 -3 -16 -7z"/>
<path d="M2131 4488 c-1 -15 4 -30 9 -33 12 -7 12 12 0 40 -8 18 -9 17 -9 -7z"/>
<path d="M7710 4501 c0 -5 5 -13 10 -16 6 -3 10 -2 10 4 0 5 -4 13 -10 16 -5
3 -10 2 -10 -4z"/>
<path d="M513 4479 c-6 -8 -16 -32 -23 -54 -7 -22 -17 -45 -22 -52 -5 -6 -10
-37 -11 -70 -2 -58 -2 -58 28 -60 25 -2 36 5 69 48 21 27 36 52 33 55 -6 6
-31 -17 -64 -60 -27 -33 -53 -29 -53 9 0 15 14 60 31 101 30 71 36 112 12 83z"/>
<path d="M8790 4470 c-8 -5 -11 -12 -7 -16 4 -4 13 -2 19 4 6 6 10 14 7 16 -2
3 -11 1 -19 -4z"/>
<path d="M2791 4453 c7 -7 20 -13 30 -13 14 0 19 -7 19 -25 0 -19 9 -31 31
-43 17 -9 44 -27 59 -39 34 -28 40 -28 40 -3 0 11 -4 19 -8 18 -4 -2 -29 8
-55 22 -39 21 -47 30 -47 52 0 16 5 28 10 28 6 0 10 3 10 8 0 4 -22 7 -50 8
-40 0 -47 -2 -39 -13z"/>
<path d="M9505 4397 c63 -61 76 -80 81 -113 7 -51 34 -146 45 -159 11 -11 1
51 -11 75 -7 13 -14 80 -11 102 2 13 101 -43 111 -62 6 -11 15 -20 21 -20 14
0 -23 61 -41 67 -64 22 -158 81 -166 106 -3 10 -18 25 -32 35 -15 9 -31 22
-35 29 -4 7 -15 13 -23 13 -9 0 19 -33 61 -73z"/>
<path d="M261 4422 c-6 -11 -11 -38 -11 -59 0 -22 -4 -43 -10 -49 -14 -14 3
-69 22 -69 16 0 128 132 128 150 -1 6 -11 -1 -23 -15 -12 -14 -41 -48 -65 -75
l-43 -50 4 68 c3 37 10 74 17 83 9 10 10 18 3 25 -8 8 -14 5 -22 -9z"/>
<path d="M702 4422 c-20 -34 -12 -86 14 -90 20 -3 94 59 94 78 0 16 -7 12 -47
-25 l-38 -35 -5 48 c-5 45 -6 46 -18 24z"/>
<path d="M6850 4430 c0 -6 -11 -23 -24 -37 -14 -15 -27 -38 -31 -51 -3 -14
-20 -45 -36 -69 -47 -68 -109 -243 -108 -306 0 -28 2 -47 4 -42 2 6 12 42 23
80 11 39 27 96 37 128 9 33 30 82 47 110 59 98 108 197 98 197 -6 0 -10 -5
-10 -10z"/>
<path d="M7369 4422 c-13 -10 -46 -26 -74 -37 -81 -29 -208 -88 -234 -107 -13
-10 -32 -18 -42 -18 -12 0 -19 -7 -19 -19 0 -11 -5 -21 -12 -23 -6 -2 -8 -10
-4 -16 9 -15 46 2 46 22 0 14 21 30 93 71 l44 24 -23 -47 c-12 -26 -35 -77
-51 -114 -19 -47 -33 -68 -46 -68 -19 0 -117 -69 -117 -82 0 -15 14 -8 61 32
68 57 87 54 49 -7 -15 -25 -16 -33 -6 -33 8 0 22 19 32 43 l18 42 5 -34 c3
-19 12 -36 19 -39 10 -3 12 5 6 34 -3 22 -11 45 -17 52 -7 9 -5 18 7 30 9 10
24 43 35 73 30 86 43 109 63 109 10 0 18 6 18 14 0 7 24 21 58 31 57 18 125
55 137 75 10 17 -20 11 -46 -8z"/>
<path d="M965 4380 c-29 -29 -47 -40 -64 -38 -28 3 -40 -17 -15 -26 20 -8 48
9 105 64 24 22 36 40 28 40 -8 0 -33 -18 -54 -40z"/>
<path d="M1637 4406 c-15 -6 -44 -29 -66 -50 -30 -30 -47 -38 -86 -42 -28 -2
-53 0 -61 7 -11 9 -15 7 -20 -6 -8 -19 10 -35 39 -35 13 0 17 -5 13 -18 -17
-51 86 -86 118 -40 18 25 21 64 6 73 -5 3 -10 10 -10 16 0 16 82 69 107 69 18
0 24 5 21 17 -4 22 -25 25 -61 9z m-107 -136 c0 -11 -7 -20 -15 -20 -27 0 -18
30 13 39 1 1 2 -8 2 -19z"/>
<path d="M3507 4414 c-4 -4 -4 -24 -1 -44 12 -74 -26 -97 -112 -66 -22 7 -71
19 -111 26 -51 8 -84 20 -113 41 -45 33 -54 27 -13 -8 27 -24 70 -38 157 -53
28 -5 74 -16 101 -24 64 -20 71 -20 95 4 13 13 20 33 19 58 -1 43 -11 76 -22
66z"/>
<path d="M3745 4401 c-3 -6 -4 -14 -2 -18 10 -16 17 -122 10 -126 -5 -3 -33 3
-63 14 -80 28 -85 17 -7 -14 100 -40 119 -22 92 85 -19 71 -20 74 -30 59z"/>
<path d="M1043 4388 c-25 -12 -31 -38 -10 -38 14 0 47 31 47 43 0 9 -11 8 -37
-5z"/>
<path d="M6405 4388 c-2 -7 -9 -31 -16 -53 -16 -51 -83 -183 -110 -215 -17
-20 -16 -16 5 24 14 27 26 51 26 53 0 12 -30 -21 -48 -51 -16 -27 -17 -36 -7
-50 12 -15 15 -14 34 17 11 18 32 46 46 61 14 15 25 35 25 44 0 10 9 35 21 57
27 51 50 125 38 125 -5 0 -11 -6 -14 -12z"/>
<path d="M3070 4377 c0 -7 5 -18 12 -25 15 -15 38 -16 38 -2 0 6 -7 10 -15 10
-8 0 -15 7 -15 15 0 8 -4 15 -10 15 -5 0 -10 -6 -10 -13z"/>
<path d="M9119 4368 c10 -25 27 -149 37 -263 3 -38 7 -76 9 -83 3 -7 0 -36 -6
-65 -6 -28 -15 -70 -19 -92 -8 -39 -6 -54 6 -43 3 3 12 35 20 69 24 99 3 435
-30 488 -13 21 -26 12 -17 -11z"/>
<path d="M2032 4360 c-11 -17 -10 -20 8 -20 21 0 25 7 12 27 -6 9 -11 7 -20
-7z"/>
<path d="M2560 4356 c0 -8 5 -16 12 -18 11 -4 13 -11 25 -71 3 -15 19 -38 35
-52 30 -26 48 -25 48 1 0 26 15 14 55 -44 73 -106 135 -162 178 -162 8 0 80
-65 160 -145 138 -136 177 -165 211 -152 9 4 49 -29 104 -83 110 -109 153
-133 215 -121 45 8 46 8 76 -33 62 -82 161 -137 205 -114 12 6 24 16 28 22 5
7 17 1 35 -16 37 -35 108 -56 134 -40 10 7 26 12 34 12 8 0 15 5 15 10 0 13
-23 13 -54 -1 -48 -22 -150 41 -184 115 -21 44 -92 155 -92 144 0 -4 15 -33
34 -65 18 -32 39 -76 46 -97 11 -35 11 -41 -5 -52 -19 -14 -58 -9 -86 10 -51
35 -123 106 -141 138 -11 20 -34 46 -50 58 l-29 21 26 -40 c21 -35 23 -42 10
-46 -8 -3 -22 -7 -30 -10 -23 -7 -95 39 -160 103 -78 75 -89 89 -160 197 -32
50 -70 102 -84 117 -13 15 -22 30 -20 32 3 3 33 -13 67 -34 93 -59 127 -53 92
16 -11 21 -20 46 -20 56 0 9 -4 20 -10 23 -16 10 -11 -26 10 -72 17 -38 17
-43 3 -43 -8 0 -40 15 -70 33 -72 42 -116 66 -126 67 -4 0 16 -28 45 -63 75
-88 131 -174 124 -186 -11 -17 -31 -13 -52 10 -10 12 -32 28 -49 37 -56 29
-225 197 -225 224 0 21 -67 118 -82 118 -12 0 0 -38 23 -72 24 -33 24 -38 0
-38 -20 0 -118 110 -154 173 -19 33 -26 37 -56 35 -31 -3 -35 1 -45 30 -6 18
-16 36 -22 40 -6 4 -13 15 -17 25 -8 20 -27 23 -27 3z"/>
<path d="M4086 4330 c4 -25 10 -54 14 -65 19 -54 -32 -59 -139 -16 -39 17 -71
26 -71 20 0 -5 12 -14 28 -21 15 -6 42 -17 61 -26 49 -21 108 -27 126 -12 18
15 19 62 2 112 -19 55 -29 59 -21 8z"/>
<path d="M5415 4350 c-10 -11 -16 -22 -13 -25 3 -3 13 6 22 20 20 30 16 32 -9
5z"/>
<path d="M2277 4345 c-7 -16 8 -29 23 -20 15 9 12 35 -4 35 -8 0 -16 -7 -19
-15z"/>
<path d="M387 4323 c-4 -3 -7 -17 -7 -30 0 -13 -6 -37 -14 -52 -8 -15 -22 -58
-30 -94 -9 -37 -24 -75 -33 -84 -25 -25 -50 -165 -35 -198 19 -42 46 -31 91
36 43 65 56 103 18 56 -12 -16 -33 -42 -45 -58 -13 -16 -28 -26 -34 -23 -14 9
-2 118 17 152 14 27 73 223 82 275 4 27 2 32 -10 20z"/>
<path d="M1172 4302 c-14 -39 1 -62 41 -62 l32 -1 -40 -21 c-81 -41 -140 -124
-133 -185 4 -30 2 -34 -16 -29 -14 4 -43 -13 -99 -55 -73 -57 -79 -60 -96 -45
-19 17 -41 21 -41 7 0 -5 7 -14 15 -21 23 -19 18 -38 -12 -54 -16 -8 -38 -26
-50 -40 -13 -14 -32 -26 -43 -26 -11 0 -20 -4 -20 -10 0 -17 -26 -11 -45 10
-14 15 -16 30 -12 67 l5 48 -19 -24 c-26 -32 -25 -100 1 -129 13 -13 20 -35
20 -59 0 -22 10 -55 25 -78 58 -97 58 -95 35 -95 -13 0 -20 -7 -20 -20 0 -10
-8 -23 -17 -29 -9 -5 -18 -22 -19 -38 -3 -49 -4 -53 -14 -53 -19 0 0 73 31
118 34 50 37 62 8 36 -27 -24 -69 -114 -69 -147 0 -31 30 -53 48 -35 7 7 12
25 12 41 0 33 47 120 61 111 5 -3 9 -10 9 -16 0 -24 42 -68 65 -68 30 0 50 28
67 95 6 28 13 51 14 53 1 2 12 -5 23 -15 26 -22 27 -53 3 -84 -10 -13 -31 -50
-47 -81 -22 -43 -27 -60 -18 -69 19 -19 53 1 70 39 8 21 19 44 24 52 5 8 21
39 35 68 23 47 25 58 16 95 -6 23 -10 42 -9 42 1 1 26 16 56 34 73 44 99 48
111 17 5 -13 14 -26 21 -28 9 -3 3 -17 -17 -43 -25 -33 -29 -46 -27 -94 2 -43
8 -60 24 -73 26 -22 45 -23 53 -2 10 25 7 31 -13 37 -15 4 -19 12 -16 41 2 19
11 46 19 58 9 12 16 38 16 58 0 22 -3 30 -9 22 -9 -16 -24 -1 -35 36 -5 16 -3
22 7 22 9 0 17 6 20 13 5 15 7 13 35 -45 15 -34 28 -48 42 -48 22 0 26 -20 8
-38 -9 -9 -9 -15 -1 -23 8 -8 13 -5 17 10 3 12 9 30 12 41 4 15 -1 22 -20 30
-48 18 -64 60 -65 169 -1 56 -3 62 -17 50 -12 -10 -14 -23 -8 -63 6 -45 5 -49
-9 -38 -13 11 -16 9 -19 -15 -2 -20 -9 -28 -24 -29 -42 -2 -72 -14 -124 -49
-57 -38 -81 -36 -102 11 -6 13 -15 24 -20 24 -18 0 -6 -24 34 -72 53 -64 53
-96 -3 -204 -44 -86 -54 -100 -62 -87 -4 7 22 70 57 133 8 14 18 40 24 58 12
37 1 54 -51 81 -27 14 -27 17 -21 73 4 36 3 63 -4 71 -8 9 -8 31 1 76 11 61
15 66 66 105 94 71 90 69 104 57 8 -6 17 -8 20 -4 4 3 7 -1 7 -9 0 -26 27 -43
45 -28 13 10 15 9 15 -8 0 -11 7 -28 16 -36 16 -17 36 -13 33 7 -7 46 91 176
157 208 24 11 44 27 44 35 0 17 -14 18 -32 2 -7 -7 -44 -28 -83 -46 -85 -41
-107 -58 -129 -101 -21 -39 -40 -36 -44 7 -8 83 60 187 137 210 22 7 46 23 56
38 22 34 14 55 -10 26 -29 -33 -38 -27 -31 18 l6 40 -39 0 c-34 0 -40 -4 -49
-28z m62 -277 c-16 -24 -44 -34 -44 -16 0 11 39 41 52 41 5 0 1 -11 -8 -25z
m-394 -207 c0 -19 -18 -43 -25 -36 -4 3 -2 16 5 27 12 24 20 27 20 9z m12 -82
c4 -18 -2 -31 -18 -45 -38 -33 -27 -91 16 -91 13 0 17 -11 18 -44 2 -36 -1
-45 -18 -49 -14 -3 -20 -14 -20 -31 0 -19 -5 -26 -20 -26 -13 0 -20 7 -20 19
0 11 -9 26 -19 33 -11 8 -25 26 -32 42 -11 24 -11 29 4 37 17 10 22 44 11 73
-4 9 -18 16 -34 16 -20 0 -31 6 -35 20 -12 37 39 69 111 70 47 0 52 -2 56 -24z
m-125 -111 c8 -22 -6 -33 -17 -15 -13 20 -12 30 0 30 6 0 13 -7 17 -15z m140
-12 c-3 -3 -11 -2 -17 2 -9 6 -9 10 1 16 14 8 27 -7 16 -18z m315 -86 c-6 -12
-12 -29 -14 -37 -3 -7 -7 -10 -10 -5 -3 6 1 27 10 48 9 20 19 32 21 26 2 -6
-1 -21 -7 -32z"/>
<path d="M2190 4308 c-57 -61 -65 -163 -15 -205 28 -25 45 -28 73 -14 9 5 30
14 45 20 15 6 25 16 22 21 -3 6 0 10 8 10 27 0 38 24 21 48 -13 19 -13 28 0
77 l14 55 -41 -2 c-23 -1 -56 1 -74 5 -26 7 -35 4 -53 -15z m30 -44 c-6 -14
-10 -39 -10 -55 0 -20 -4 -29 -12 -27 -20 7 -21 43 -3 77 19 38 39 42 25 5z
m65 -44 c0 -54 -1 -57 -17 -44 -26 24 -31 63 -13 91 22 34 30 22 30 -47z"/>
<path d="M1847 4313 c-10 -9 -8 -43 2 -43 5 0 8 8 7 18 0 9 5 16 12 15 6 -2
12 2 12 7 0 11 -23 14 -33 3z"/>
<path d="M5760 4312 c-8 -2 -26 -15 -40 -27 -14 -12 -43 -28 -65 -35 -22 -7
-58 -25 -80 -40 -22 -14 -60 -34 -85 -43 -56 -21 -114 -56 -106 -64 3 -3 14 1
23 9 10 8 41 24 68 36 28 11 95 44 149 71 55 28 105 51 111 51 13 0 51 38 44
44 -2 2 -11 1 -19 -2z"/>
<path d="M720 4300 c0 -5 5 -10 10 -10 6 0 10 5 10 10 0 6 -4 10 -10 10 -5 0
-10 -4 -10 -10z"/>
<path d="M3090 4291 c0 -5 4 -20 9 -33 20 -55 22 -78 6 -78 -14 0 -159 57
-219 86 -16 8 -31 12 -34 9 -5 -5 133 -71 161 -76 19 -4 44 -55 54 -111 4 -22
1 -28 -12 -28 -26 0 -98 54 -150 112 -26 29 -42 44 -37 33 18 -34 130 -145
158 -155 56 -22 81 14 49 70 -8 14 -14 33 -15 42 0 15 4 16 26 8 34 -13 41
-13 47 5 7 17 -19 112 -33 120 -6 3 -10 2 -10 -4z"/>
<path d="M5887 4282 c-19 -21 -22 -32 -7 -32 10 0 34 39 27 46 -2 2 -11 -4
-20 -14z"/>
<path d="M8633 4256 c-7 -22 -11 -42 -8 -44 8 -8 26 40 23 61 -2 17 -6 13 -15
-17z"/>
<path d="M5407 4274 c-4 -4 -7 -17 -7 -28 1 -19 1 -20 11 -3 11 19 8 43 -4 31z"/>
<path d="M2520 4251 c0 -5 7 -14 15 -21 8 -7 15 -18 15 -25 0 -6 17 -38 38
-71 21 -32 44 -75 52 -94 20 -50 53 -100 67 -100 16 0 106 -191 133 -280 68
-232 44 -510 -45 -510 -14 0 -25 5 -25 12 0 6 -6 19 -14 27 -20 22 -44 90 -71
201 -13 52 -28 109 -33 125 -6 17 -29 90 -52 163 -22 72 -45 132 -50 132 -9 0
4 -51 60 -235 33 -109 73 -264 87 -335 4 -25 14 -45 21 -45 20 0 32 -26 32
-72 0 -77 -32 -113 -94 -105 -21 3 -31 11 -39 33 -6 16 -15 29 -19 29 -13 0
-9 -35 6 -65 23 -44 3 -81 -49 -91 -44 -8 -100 11 -113 39 -6 12 -11 16 -11 9
-3 -44 67 -80 126 -66 39 9 73 43 73 72 0 20 4 23 22 19 24 -7 81 14 94 34 4
7 10 29 14 49 3 19 10 35 15 35 26 1 73 41 93 79 26 50 47 208 38 286 -4 30
-9 79 -12 108 -2 30 -9 62 -14 72 -6 10 -10 27 -10 37 0 23 -112 245 -142 283
-23 29 -44 59 -99 140 -17 25 -45 66 -62 92 -30 45 -47 59 -47 39z"/>
<path d="M9320 4252 c0 -5 27 -29 59 -52 49 -36 62 -51 72 -87 6 -24 16 -46
22 -50 10 -6 7 15 -8 64 -7 23 -7 23 30 7 21 -8 46 -25 56 -37 10 -12 18 -17
18 -12 1 21 -36 54 -82 74 -27 11 -70 36 -95 54 -62 44 -72 50 -72 39z"/>
<path d="M621 4245 c-1 -5 -6 -29 -10 -52 -5 -24 -5 -43 0 -43 11 0 22 63 16
87 -3 10 -5 14 -6 8z"/>
<path d="M3340 4247 c0 -2 9 -30 20 -62 11 -32 20 -64 20 -72 0 -24 -32 -14
-113 38 -43 27 -81 48 -84 45 -5 -4 126 -91 165 -109 17 -8 26 -7 37 4 12 12
12 23 -3 83 -10 38 -23 71 -30 74 -7 2 -12 2 -12 -1z"/>
<path d="M5653 4218 c-5 -7 -15 -28 -23 -46 -7 -18 -28 -52 -46 -75 -33 -41
-43 -67 -25 -67 9 0 69 95 96 153 18 38 16 59 -2 35z"/>
<path d="M476 4160 c-29 -68 -33 -92 -12 -70 15 17 51 119 43 126 -2 2 -16
-23 -31 -56z"/>
<path d="M8456 4178 c-20 -23 -34 -43 -32 -46 8 -7 23 6 56 48 42 53 21 52
-24 -2z"/>
<path d="M8710 4200 c-8 -5 -12 -12 -9 -15 4 -3 12 1 19 10 14 17 11 19 -10 5z"/>
<path d="M8876 4142 c-9 -32 -16 -70 -16 -85 0 -45 18 -30 25 21 4 26 11 60
16 76 11 36 11 46 0 46 -4 0 -16 -26 -25 -58z"/>
<path d="M780 4181 c-17 -5 -24 -13 -22 -25 4 -24 -66 -131 -100 -150 -34 -21
-42 -8 -28 45 11 41 9 56 -8 45 -12 -7 -35 -113 -27 -126 12 -19 55 -10 83 18
15 15 43 51 62 79 19 29 37 53 40 53 3 0 10 -15 15 -32 8 -25 15 -32 30 -30
22 4 62 37 77 65 18 34 1 29 -35 -10 -24 -25 -40 -34 -46 -28 -12 12 -17 77
-7 93 8 13 3 14 -34 3z"/>
<path d="M8508 4160 c-4 -29 14 -61 25 -43 7 12 -4 73 -13 73 -4 0 -10 -14
-12 -30z"/>
<path d="M9650 4173 c0 -14 28 -43 41 -43 5 0 16 -16 24 -37 8 -20 18 -34 21
-31 8 8 -23 78 -35 78 -6 0 -19 10 -31 22 -11 12 -20 17 -20 11z"/>
<path d="M947 4152 c-36 -39 -3 -46 33 -7 23 24 23 25 3 25 -11 0 -27 -8 -36
-18z"/>
<path d="M3590 4152 c0 -4 4 -12 9 -17 16 -17 40 -124 29 -131 -11 -7 -55 3
-71 17 -35 28 -90 69 -95 69 -3 0 7 -13 22 -29 38 -40 122 -84 145 -76 34 10
34 33 0 120 -4 11 -10 28 -13 38 -5 17 -26 24 -26 9z"/>
<path d="M3860 4143 c0 -5 7 -35 15 -68 8 -33 14 -79 15 -102 0 -53 -11 -54
-87 -13 -75 41 -91 38 -21 -4 72 -44 120 -51 132 -20 5 14 -7 92 -29 192 -5
20 -25 32 -25 15z"/>
<path d="M4194 4098 c28 -133 14 -178 -52 -178 -41 0 -122 38 -164 78 -15 14
-30 23 -34 20 -18 -19 146 -118 195 -118 14 0 41 9 59 20 29 18 32 24 32 68 0
85 -11 142 -28 142 -11 0 -13 -7 -8 -32z"/>
<path d="M7740 4110 c0 -16 36 -80 45 -80 3 0 5 9 5 19 0 24 -49 84 -50 61z"/>
<path d="M4280 4084 c0 -8 5 -12 10 -9 6 3 10 10 10 16 0 5 -4 9 -10 9 -5 0
-10 -7 -10 -16z"/>
<path d="M5331 4082 c-7 -13 -11 -26 -8 -28 8 -8 29 25 25 38 -3 8 -9 4 -17
-10z"/>
<path d="M7931 4066 c-6 -16 -10 -34 -8 -40 6 -17 29 33 24 52 -3 13 -7 10
-16 -12z"/>
<path d="M9640 4080 c0 -5 5 -10 10 -10 6 0 10 5 10 10 0 6 -4 10 -10 10 -5 0
-10 -4 -10 -10z"/>
<path d="M9110 4031 c-13 -21 -36 -46 -51 -55 -43 -25 -109 -88 -109 -103 0
-21 17 -15 23 8 3 12 10 18 16 14 6 -3 11 -1 11 5 0 15 14 28 72 69 25 18 52
46 59 62 18 44 6 43 -21 0z"/>
<path d="M5318 4034 c-5 -4 -8 -16 -8 -28 0 -14 3 -17 11 -9 6 6 9 19 7 28 -1
9 -6 13 -10 9z"/>
<path d="M9327 3963 c-3 -38 -8 -80 -12 -95 -4 -16 -3 -28 2 -28 13 0 33 90
33 146 0 69 -18 51 -23 -23z"/>
<path d="M435 3989 c-3 -8 -9 -36 -14 -64 -8 -40 -7 -55 6 -75 l16 -24 44 49
c23 27 43 53 43 57 0 17 -16 6 -39 -27 -41 -61 -69 -38 -50 41 11 41 6 75 -6
43z"/>
<path d="M5305 3960 c-3 -11 -2 -28 4 -37 8 -15 10 -11 11 20 0 41 -5 47 -15
17z"/>
<path d="M3530 3965 c0 -6 9 -34 21 -64 24 -64 19 -98 -16 -107 -29 -7 -76 24
-137 90 -21 22 -38 36 -38 32 0 -19 107 -122 137 -133 28 -10 35 -9 58 8 29
24 31 47 9 115 -16 47 -34 79 -34 59z"/>
<path d="M3330 3941 c0 -5 5 -13 10 -16 6 -3 10 -2 10 4 0 5 -4 13 -10 16 -5
3 -10 2 -10 -4z"/>
<path d="M9480 3935 c14 -8 32 -14 40 -14 9 0 4 6 -10 14 -14 8 -32 14 -40 14
-9 0 -4 -6 10 -14z"/>
<path d="M1986 3859 c-17 -61 -31 -149 -23 -149 7 0 50 191 43 197 -2 3 -12
-19 -20 -48z"/>
<path d="M5662 3879 c-43 -31 -56 -48 -24 -30 23 13 79 60 71 61 -3 0 -24 -14
-47 -31z"/>
<path d="M6631 3849 c-9 -44 -9 -65 -2 -72 8 -8 11 -7 12 4 1 18 5 45 13 92
10 62 -9 41 -23 -24z"/>
<path d="M9047 3903 c-11 -10 -8 -53 3 -53 6 0 10 14 10 30 0 31 -2 35 -13 23z"/>
<path d="M2200 3891 c0 -6 5 -13 10 -16 6 -3 10 1 10 9 0 9 -4 16 -10 16 -5 0
-10 -4 -10 -9z"/>
<path d="M7840 3855 c-47 -19 -76 -34 -65 -34 11 0 47 11 80 24 33 14 68 25
78 25 10 0 15 5 12 10 -8 13 -8 14 -105 -25z"/>
<path d="M1100 3869 c0 -5 5 -7 10 -4 6 3 10 8 10 11 0 2 -4 4 -10 4 -5 0 -10
-5 -10 -11z"/>
<path d="M3790 3855 c0 -11 7 -45 15 -75 16 -61 12 -90 -13 -90 -35 1 -103 54
-141 110 -12 19 -20 26 -16 15 25 -77 131 -156 178 -133 23 12 22 69 -3 138
-10 30 -19 46 -20 35z"/>
<path d="M1020 3842 c0 -4 5 -13 12 -19 6 -7 11 -26 12 -42 1 -17 6 -30 11
-28 13 3 9 45 -6 75 -12 21 -29 30 -29 14z"/>
<path d="M2207 3830 c6 -22 23 -38 23 -21 0 17 -12 41 -20 41 -5 0 -6 -9 -3
-20z"/>
<path d="M7490 3828 c-1 -61 -89 -248 -157 -331 -25 -30 -29 -47 -13 -47 6 0
10 5 10 11 0 8 31 55 60 92 3 4 7 -15 7 -41 1 -57 10 -92 25 -92 5 0 7 7 4 16
-3 9 -9 46 -12 83 -5 54 -4 69 10 80 9 7 16 18 16 23 0 5 9 28 19 52 26 55 51
165 40 172 -5 3 -9 -5 -9 -18z"/>
<path d="M7880 3827 c0 -20 30 -37 66 -37 31 0 25 12 -8 17 -12 2 -30 11 -40
20 -17 15 -18 15 -18 0z"/>
<path d="M1841 3812 c-6 -12 -11 -29 -11 -39 0 -22 -67 -290 -76 -304 -9 -16
-11 -99 -2 -99 7 0 13 33 9 54 -1 4 5 29 13 55 39 128 90 340 83 348 -3 3 -10
-4 -16 -15z"/>
<path d="M4042 3793 c15 -59 27 -146 22 -155 -3 -4 -15 -8 -27 -8 -28 1 -114
24 -123 33 -4 4 -14 7 -23 7 -35 0 11 -24 80 -41 90 -22 109 -15 109 42 0 44
-29 159 -41 159 -4 0 -3 -17 3 -37z"/>
<path d="M5540 3802 c-28 -13 -100 -65 -96 -69 6 -6 56 22 91 51 31 26 32 30
5 18z"/>
<path d="M416 3731 c-9 -39 -15 -96 -15 -128 l2 -58 8 75 c5 41 15 96 24 122
18 55 18 58 6 58 -5 0 -17 -31 -25 -69z"/>
<path d="M960 3790 c0 -5 5 -10 10 -10 6 0 10 5 10 10 0 6 -4 10 -10 10 -5 0
-10 -4 -10 -10z"/>
<path d="M2117 3787 c-4 -10 -2 -39 4 -63 9 -33 9 -52 1 -70 -7 -13 -8 -24 -3
-24 19 0 27 96 12 150 -6 22 -8 23 -14 7z"/>
<path d="M271 3733 c-7 -34 -11 -67 -9 -75 7 -17 31 93 27 117 -2 10 -10 -9
-18 -42z"/>
<path d="M556 3779 c-19 -66 -24 -91 -17 -83 13 14 34 85 27 91 -3 3 -7 0 -10
-8z"/>
<path d="M988 3784 c-5 -4 -8 -21 -8 -38 0 -35 14 -63 23 -48 9 13 -6 95 -15
86z"/>
<path d="M1160 3770 c0 -5 5 -10 10 -10 6 0 10 5 10 10 0 6 -4 10 -10 10 -5 0
-10 -4 -10 -10z"/>
<path d="M6610 3710 c-7 -186 1 -325 23 -387 13 -40 32 -44 23 -5 -27 109 -42
277 -26 287 5 3 10 41 9 83 0 49 -3 70 -8 57 l-8 -20 -5 20 c-3 11 -7 -5 -8
-35z"/>
<path d="M3512 3699 c12 -22 29 -46 37 -52 12 -10 13 -9 5 3 -5 8 -20 32 -33
53 -31 50 -38 47 -9 -4z"/>
<path d="M7734 3693 c3 -10 10 -49 16 -88 6 -38 13 -71 16 -74 11 -12 13 11 3
70 -17 103 -19 109 -30 109 -6 0 -8 -8 -5 -17z"/>
<path d="M5405 3693 c-24 -6 -45 -22 -45 -34 0 -4 12 -2 28 6 15 7 38 18 52
24 21 8 21 10 5 9 -11 0 -29 -3 -40 -5z"/>
<path d="M616 3633 c-13 -13 -20 -15 -23 -5 -8 21 -25 13 -21 -10 5 -34 33
-33 58 1 23 34 15 41 -14 14z"/>
<path d="M1921 3624 c0 -11 3 -14 6 -6 3 7 2 16 -1 19 -3 4 -6 -2 -5 -13z"/>
<path d="M2511 3587 c0 -16 8 -68 20 -115 11 -48 25 -109 31 -137 6 -27 17
-70 24 -95 l13 -45 -5 45 c-4 25 -21 108 -39 185 -18 77 -35 151 -38 165 -4
24 -4 24 -6 -3z"/>
<path d="M2371 3570 c-1 -32 5 -89 39 -379 14 -123 35 -219 46 -208 3 3 -1 43
-10 89 -8 45 -23 146 -32 223 -23 199 -42 316 -43 275z"/>
<path d="M1340 3570 c-21 -21 -37 -67 -26 -77 8 -9 36 17 36 34 0 7 7 25 16
38 20 30 3 34 -26 5z"/>
<path d="M1907 3584 c-4 -4 -7 -17 -7 -28 1 -19 1 -20 11 -3 11 19 8 43 -4 31z"/>
<path d="M2246 3533 c1 -25 5 -62 8 -82 3 -20 11 -128 16 -241 6 -113 15 -220
20 -238 6 -23 5 -40 -2 -52 -26 -42 77 -79 128 -45 14 9 23 19 20 22 -3 3 -12
0 -21 -7 -10 -8 -29 -10 -59 -6 l-44 7 -6 72 c-3 40 -10 142 -16 227 -15 227
-32 390 -40 390 -4 0 -6 -21 -4 -47z"/>
<path d="M420 3551 c-9 -9 -22 -30 -28 -46 -18 -41 -79 -111 -89 -101 -4 4 -8
37 -8 72 0 35 -3 64 -6 64 -3 0 -12 -23 -21 -50 -9 -28 -13 -48 -8 -45 4 3 11
-10 14 -29 4 -19 13 -37 21 -40 17 -6 58 34 82 79 29 56 35 59 49 26 7 -17 17
-31 23 -31 11 0 91 89 91 101 0 19 -18 7 -49 -31 -38 -47 -54 -43 -49 11 4 43
1 46 -22 20z"/>
<path d="M2039 3553 c-1 -21 -1 -25 -23 -203 -9 -74 -21 -162 -26 -195 -6 -33
-9 -85 -9 -115 l2 -55 8 55 c4 30 15 123 24 205 9 83 21 189 28 238 7 48 10
87 5 87 -4 0 -8 -8 -9 -17z"/>
<path d="M7910 3567 c6 -6 120 -67 126 -67 2 0 4 5 4 10 0 6 -6 10 -14 10 -7
0 -24 9 -38 19 -22 18 -90 42 -78 28z"/>
<path d="M2158 3554 c-7 -40 -2 -582 5 -575 10 10 12 570 2 579 -3 3 -6 1 -7
-4z"/>
<path d="M7870 3536 c0 -15 24 -66 31 -66 8 0 3 43 -8 63 -4 7 -23 10 -23 3z"/>
<path d="M1890 3526 c0 -10 -39 -236 -46 -266 -6 -23 -7 -24 -14 -5 -7 16 -9
14 -9 -12 -1 -38 15 -44 28 -10 13 33 53 289 46 295 -3 3 -5 2 -5 -2z"/>
<path d="M1310 3455 c0 -20 28 -31 43 -16 13 13 10 16 -20 25 -17 6 -23 3 -23
-9z"/>
<path d="M1283 3418 c2 -7 7 -13 12 -13 5 0 10 6 13 13 2 6 -4 12 -13 12 -9 0
-15 -6 -12 -12z"/>
<path d="M2601 3174 c0 -11 3 -14 6 -6 3 7 2 16 -1 19 -3 4 -6 -2 -5 -13z"/>
<path d="M1940 3007 c0 -41 24 -91 55 -115 30 -24 74 -29 93 -10 17 17 15 33
-3 18 -26 -22 -85 18 -117 81 -24 46 -28 50 -28 26z"/>
<path d="M2127 2923 c-11 -18 22 -70 47 -77 35 -9 71 -7 84 6 21 21 13 30 -18
23 -48 -11 -85 2 -96 33 -7 19 -12 23 -17 15z"/>
<path d="M9285 921 c-3 -6 4 -15 15 -21 11 -6 30 -30 42 -53 22 -41 23 -51 23
-336 1 -268 2 -294 18 -306 25 -18 55 -7 73 27 16 31 18 163 3 203 -10 26 -11
19 -9 -90 1 -65 -3 -95 -14 -110 -29 -39 -40 -5 -39 117 4 326 3 378 -6 430
-5 31 -15 66 -21 78 -17 31 6 24 29 -9 12 -16 23 -50 25 -77 8 -103 30 -108
101 -25 61 72 88 89 110 71 8 -7 15 -17 15 -23 0 -6 -29 -39 -65 -73 -79 -76
-96 -129 -44 -138 69 -11 134 -159 132 -304 0 -56 -12 -78 -36 -69 -10 4 -19
35 -27 94 -14 98 -49 183 -84 206 -21 14 -26 14 -55 -4 -17 -10 -31 -26 -31
-34 0 -22 17 -18 30 6 17 32 52 21 73 -24 9 -20 22 -70 28 -110 21 -148 31
-166 82 -153 32 8 51 66 42 129 -3 23 -8 57 -10 76 -9 79 -97 211 -141 211
-28 0 -13 31 49 96 76 80 81 89 67 113 -26 49 -70 33 -139 -49 -61 -72 -81
-65 -81 26 0 35 -6 50 -27 73 -42 42 -115 72 -128 52z"/>
<path d="M6584 870 c-69 -34 -90 -63 -102 -145 -17 -104 24 -167 138 -210 75
-28 115 -64 125 -112 5 -27 2 -34 -28 -57 -23 -18 -46 -26 -73 -26 -40 0 -116
29 -128 49 -19 30 -76 -5 -76 -46 0 -34 43 -87 90 -110 57 -28 127 -29 211 -3
60 19 68 25 97 73 35 59 41 114 21 206 -13 63 -59 105 -133 121 -28 7 -59 14
-69 17 -21 6 -67 71 -67 96 0 27 45 67 77 67 15 0 44 -12 64 -26 21 -14 47
-24 61 -22 29 4 47 43 41 87 -5 27 -13 36 -47 52 -62 28 -132 25 -202 -11z
m182 -6 c36 -17 49 -42 39 -74 -8 -26 -23 -25 -67 5 -40 27 -62 30 -102 15
-64 -24 -84 -86 -48 -149 19 -35 55 -55 127 -71 103 -23 129 -60 130 -186 0
-62 -3 -75 -29 -108 -35 -47 -101 -76 -171 -76 -43 0 -61 6 -101 33 -54 36
-70 57 -61 80 5 14 14 12 64 -13 40 -21 73 -30 107 -30 44 0 53 4 94 45 41 41
44 48 39 82 -4 20 -19 49 -34 66 -29 30 -115 77 -144 77 -9 0 -35 18 -58 41
l-42 40 5 64 c7 86 26 120 84 149 56 28 121 32 168 10z"/>
<path d="M6945 890 c-11 -5 -29 -11 -39 -14 -18 -6 -18 -7 2 -29 44 -47 50
-172 26 -504 -5 -66 -3 -88 9 -107 23 -35 65 -39 94 -10 26 26 26 25 23 185
-1 96 2 119 15 133 23 22 48 20 71 -6 36 -41 44 -76 44 -188 0 -100 2 -111 22
-130 12 -11 28 -18 36 -15 7 3 17 5 21 5 21 0 32 75 27 182 -8 138 -14 185
-32 220 -15 29 -53 60 -65 52 -4 -2 -10 0 -14 6 -3 5 -33 10 -65 10 -50 0 -60
3 -65 21 -6 19 -13 81 -14 125 -2 45 -55 81 -96 64z m50 -34 c15 -11 21 -32
26 -97 9 -98 21 -113 84 -103 27 4 55 0 84 -12 59 -23 71 -57 81 -214 11 -179
0 -230 -37 -173 -14 21 -18 44 -16 108 3 106 -11 158 -54 195 -40 35 -61 37
-97 9 -26 -20 -26 -22 -26 -155 0 -133 -8 -174 -34 -174 -27 0 -43 34 -40 85
12 206 11 385 -1 445 -8 36 -14 73 -15 83 0 21 19 22 45 3z"/>
<path d="M5578 877 c-41 -11 -45 -19 -23 -57 18 -32 20 -254 4 -427 -10 -97
-10 -127 1 -152 15 -38 53 -50 89 -30 39 22 52 90 46 230 l-6 117 36 6 c20 4
43 10 50 12 7 3 21 -6 30 -20 18 -27 20 -85 7 -223 -9 -100 3 -133 47 -133 53
0 64 27 73 178 10 183 5 224 -37 267 -36 38 -57 42 -129 23 -62 -16 -80 -1
-73 62 6 48 -5 127 -19 140 -16 14 -58 17 -96 7z m84 -52 c4 -22 7 -68 7 -101
1 -79 12 -89 93 -81 124 11 138 -13 138 -238 0 -144 -2 -166 -16 -172 -23 -8
-46 25 -40 57 13 64 15 171 6 220 -13 73 -36 92 -98 83 -82 -10 -94 -18 -88
-55 27 -162 -7 -339 -56 -290 -10 10 -12 46 -9 145 9 253 6 381 -8 421 -15 43
-8 54 37 52 23 -1 28 -6 34 -41z"/>
<path d="M4929 852 c-5 -13 -9 -45 -9 -71 0 -42 3 -49 25 -59 14 -7 59 -12
100 -12 40 0 80 -3 89 -6 13 -5 15 -35 16 -197 1 -218 5 -286 17 -298 5 -5 30
-11 56 -14 45 -5 50 -4 78 27 34 36 34 26 6 228 -22 157 -24 214 -8 233 10 13
30 17 82 17 103 0 129 20 133 100 2 26 -16 70 -27 70 -7 1 -133 2 -281 3
l-268 3 -9 -24z m482 -12 l69 0 0 -43 c0 -24 -5 -48 -12 -55 -7 -7 -41 -12
-82 -12 -135 0 -146 -22 -126 -239 7 -80 14 -173 14 -206 l1 -60 -30 3 c-16 2
-34 7 -39 12 -10 10 -15 81 -19 293 -3 136 -6 171 -19 183 -11 11 -44 18 -102
23 -60 5 -90 11 -96 21 -11 16 -13 73 -4 82 3 4 89 4 190 2 102 -2 216 -4 255
-4z"/>
<path d="M2300 829 c-40 -22 -40 -22 -20 -46 44 -53 45 -64 42 -348 -3 -234
-1 -273 12 -284 8 -7 20 -10 25 -7 5 4 12 2 16 -4 10 -16 65 21 77 50 6 14 12
82 15 152 5 116 7 127 26 132 20 5 70 -15 81 -32 3 -5 8 -45 11 -88 9 -107 22
-154 53 -186 35 -38 84 -39 100 -3 15 32 15 65 1 102 -6 15 -10 56 -10 90 0
43 -4 65 -15 74 -10 8 -11 14 -4 19 14 9 -23 75 -47 84 -14 6 -14 8 0 24 9 9
16 22 17 27 2 6 6 20 11 33 22 57 1 131 -49 172 -37 32 -37 32 -129 27 -81 -5
-93 -3 -109 14 -21 23 -58 23 -104 -2z m87 -21 c21 -20 33 -22 116 -20 l92 2
29 -37 c41 -51 47 -125 15 -182 l-23 -41 33 -34 c38 -39 50 -84 51 -184 0 -46
6 -84 15 -103 18 -34 13 -49 -16 -49 -52 0 -84 53 -88 144 -6 143 -33 188
-111 183 -55 -3 -58 -10 -59 -169 -1 -107 -3 -119 -23 -138 -19 -17 -24 -18
-42 -6 -19 12 -21 23 -20 109 0 60 -3 94 -9 90 -6 -4 -7 3 -3 18 7 21 18 135
18 179 0 27 -10 97 -17 119 -3 12 -2 21 3 21 17 0 -3 53 -24 64 -10 6 -21 12
-23 13 -9 6 33 43 47 43 9 0 26 -10 39 -22z"/>
<path d="M2463 743 c-21 -4 -23 -10 -23 -72 0 -39 5 -72 12 -79 7 -7 34 -12
60 -12 40 0 53 5 73 26 35 38 33 84 -3 111 -30 22 -80 33 -119 26z m95 -33
c29 -18 33 -25 30 -58 -3 -35 -5 -37 -42 -40 -50 -4 -101 15 -86 33 6 7 10 26
8 41 -3 26 7 34 52 43 3 0 20 -8 38 -19z"/>
<path d="M771 787 c-7 -10 -11 -38 -9 -74 l3 -58 65 -1 c95 -1 107 -3 113 -17
3 -8 1 -63 -3 -123 -16 -207 -20 -304 -14 -329 4 -17 16 -27 41 -34 42 -12 75
1 93 35 14 26 19 96 9 135 -4 14 -2 33 3 42 6 11 5 17 -2 17 -5 0 -10 5 -10
11 0 5 5 7 10 4 12 -8 12 -8 1 33 -7 21 -6 32 1 32 9 0 7 22 -9 74 -3 10 -1
16 4 13 6 -4 9 12 9 36 l-1 42 50 3 c91 4 98 8 92 50 -6 45 -14 79 -22 92 -8
13 -172 13 -180 0 -4 -6 25 -10 78 -10 l85 0 11 -31 c24 -68 20 -73 -64 -66
-72 5 -75 5 -76 -16 -1 -12 -4 -121 -8 -242 -6 -219 -6 -220 -29 -223 -12 -2
-20 -8 -17 -13 3 -5 -1 -6 -10 -3 -9 4 -13 9 -10 12 2 3 -4 11 -15 19 -20 14
-27 43 -13 57 10 10 11 46 1 40 -10 -7 -10 1 2 67 5 30 12 101 14 159 2 58 5
110 6 115 9 43 4 46 -110 48 l-75 2 -6 43 c-7 55 1 58 89 44 37 -5 83 -11 101
-11 60 -3 25 11 -51 20 -40 5 -87 11 -104 15 -20 4 -34 1 -43 -9z"/>
<path d="M1298 787 c-51 -17 -55 -24 -27 -53 l24 -26 0 -266 c0 -147 3 -272 7
-279 5 -6 24 -10 44 -10 28 2 42 9 58 30 19 26 21 42 21 180 l0 152 41 3 c68
5 75 -11 75 -179 -1 -111 3 -148 14 -166 27 -41 62 -27 94 39 10 19 12 49 7
110 -4 46 -8 106 -10 134 -9 108 -20 152 -45 171 -9 7 -49 12 -93 12 -43 0
-82 2 -87 5 -4 3 -11 33 -15 68 -3 34 -9 65 -14 69 -14 15 -58 17 -94 6z m80
-19 c5 -7 13 -39 16 -70 4 -31 13 -61 20 -67 6 -6 50 -11 96 -13 81 -3 85 -4
97 -29 7 -15 18 -97 24 -182 12 -172 5 -211 -38 -213 -19 -1 -21 3 -18 29 2
17 0 36 -5 42 -4 5 -5 43 0 84 10 96 3 139 -28 174 -19 20 -35 27 -63 27 -70
0 -69 3 -69 -155 0 -78 -5 -156 -11 -174 -20 -57 -69 -31 -69 36 0 16 -5 34
-12 41 -8 8 -8 15 1 25 6 8 11 34 10 58 -1 24 1 97 4 161 3 65 2 120 -3 123
-4 3 -6 14 -3 24 3 10 0 28 -6 39 -6 11 -8 28 -5 36 7 19 47 21 62 4z m-61
-500 c-3 -8 -6 -5 -6 6 -1 11 2 17 5 13 3 -3 4 -12 1 -19z"/>
<path d="M3362 720 c-80 -19 -130 -115 -139 -265 -4 -67 -2 -105 11 -146 31
-108 124 -164 228 -138 41 10 52 25 62 79 3 19 3 28 -1 20 -3 -8 -17 -30 -31
-47 -21 -28 -30 -33 -68 -33 -40 0 -58 8 -98 46 -6 6 -16 9 -21 7 -6 -2 -20
30 -33 69 -31 102 -27 250 8 323 22 43 31 51 71 64 57 17 92 9 131 -29 36 -37
37 -93 1 -98 -14 -2 -23 3 -28 17 -3 11 -15 23 -26 26 -51 16 -103 -92 -104
-212 0 -62 3 -76 22 -95 26 -25 44 -17 20 9 -30 33 -36 68 -26 137 10 72 39
140 63 149 11 4 21 -3 31 -23 28 -54 87 -48 99 11 8 39 -19 83 -71 117 -36 23
-48 25 -101 12z"/>
<path d="M8380 718 c-83 -13 -88 -25 -25 -63 29 -18 36 -82 28 -285 -4 -107
-6 -204 -5 -214 7 -55 78 -76 107 -32 13 20 15 59 13 259 l-3 235 28 5 c37 5
57 -15 57 -57 0 -39 19 -59 52 -54 22 3 23 7 26 100 4 129 5 128 -161 102 -20
-4 -43 -2 -50 3 -7 6 -34 6 -67 1z m254 -34 c3 -9 6 -45 6 -81 0 -74 -19 -84
-33 -17 -15 65 -19 69 -81 70 l-57 0 2 -215 c1 -278 1 -293 -11 -311 -8 -13
-12 -13 -27 3 -19 19 -21 77 -14 363 2 97 0 115 -18 148 -12 20 -21 39 -21 41
0 3 29 3 64 0 35 -3 74 -1 87 4 39 16 96 13 103 -5z"/>
<path d="M8792 699 c-125 -92 -142 -387 -26 -478 20 -15 40 -21 78 -20 44 0
54 4 73 28 51 65 74 197 53 308 -7 37 -13 70 -13 73 2 20 -52 102 -73 110 -38
15 -46 13 -92 -21z m115 -39 c42 -82 57 -262 28 -336 -40 -99 -57 -113 -109
-89 -77 37 -106 100 -106 233 0 120 36 196 109 229 40 18 53 12 78 -37z"/>
<path d="M8823 625 c-21 -15 -46 -77 -59 -148 -10 -60 14 -164 44 -187 33 -26
51 -25 62 4 5 13 13 27 19 30 10 7 23 70 26 131 3 68 -37 185 -63 185 -4 0
-17 -7 -29 -15z m50 -63 c22 -55 22 -141 0 -209 -32 -102 -82 -38 -78 101 2
94 11 136 33 154 19 15 24 10 45 -46z"/>
<path d="M9098 714 c-40 -21 -57 -62 -74 -172 -24 -157 -6 -253 56 -313 35
-33 42 -35 91 -32 44 2 58 8 75 29 34 42 46 94 28 121 -20 31 -45 29 -79 -7
-58 -60 -77 -30 -74 118 2 120 12 167 35 176 22 9 44 -11 44 -40 0 -36 43 -54
70 -29 22 20 35 73 25 103 -8 28 -82 62 -131 62 -21 -1 -51 -7 -66 -16z m163
-35 c21 -27 24 -52 9 -80 -16 -29 -37 -23 -50 16 -13 39 -37 51 -73 34 -34
-16 -50 -77 -50 -197 0 -155 35 -197 111 -131 33 29 37 30 48 14 14 -18 5 -54
-22 -90 -23 -31 -96 -26 -133 9 -36 35 -64 127 -57 193 15 159 20 191 33 216
18 37 46 48 112 43 42 -2 57 -8 72 -27z"/>
<path d="M7437 706 c-62 -22 -109 -64 -105 -93 5 -43 31 -51 78 -25 53 28 72
28 106 -1 43 -37 28 -57 -44 -57 -51 0 -62 -4 -85 -28 -33 -35 -47 -79 -47
-153 0 -67 15 -116 40 -129 37 -20 76 -11 110 24 l33 34 22 -32 c29 -43 66
-60 99 -45 36 17 49 60 29 100 -12 25 -14 45 -7 98 21 166 -7 263 -83 293 -60
24 -105 28 -146 14z m138 -45 c48 -27 71 -83 66 -166 -6 -106 -4 -196 4 -233
7 -31 7 -32 -28 -32 -43 0 -67 28 -67 77 0 18 -4 33 -10 33 -5 0 -10 -4 -10
-8 0 -18 -73 -92 -90 -92 -28 0 -65 41 -68 75 -5 60 9 135 32 162 18 20 33 26
76 29 67 3 95 27 86 71 -5 21 -17 35 -42 46 -46 22 -70 21 -110 -4 -36 -22
-54 -19 -54 9 0 18 28 40 70 53 34 11 109 1 145 -20z"/>
<path d="M7463 468 c-41 -11 -57 -40 -55 -102 2 -93 47 -97 95 -8 46 85 30
129 -40 110z m45 -45 c2 -11 -9 -39 -25 -62 -29 -42 -42 -50 -44 -28 -6 66 -4
84 10 100 20 24 55 18 59 -10z"/>
<path d="M2913 690 c-73 -44 -111 -157 -100 -298 8 -100 21 -144 55 -180 24
-25 38 -31 100 -37 59 -6 77 -4 97 9 14 9 25 23 25 31 0 7 6 20 14 27 35 35
62 123 45 148 -6 11 -9 7 -9 -15 0 -38 -39 -121 -74 -158 -24 -26 -31 -28 -79
-23 -44 5 -58 12 -89 46 -21 21 -38 49 -38 60 0 12 -3 19 -7 17 -7 -4 -12 51
-17 168 -1 17 1 35 5 40 3 6 9 27 12 49 8 52 30 82 77 106 57 29 90 26 127
-12 47 -50 71 -106 78 -186 6 -51 12 -72 21 -72 8 0 14 5 14 11 0 5 -4 7 -10
4 -5 -3 -10 1 -10 9 0 8 4 18 10 21 6 4 4 15 -5 29 -8 12 -14 40 -13 62 1 47
-10 86 -23 79 -5 -4 -9 2 -9 12 0 19 -23 43 -59 62 -32 17 -103 13 -138 -9z"/>
<path d="M7684 698 c-4 -7 0 -16 11 -22 37 -21 75 -68 85 -107 6 -23 9 -99 6
-189 -5 -140 -4 -152 14 -170 11 -11 24 -20 30 -20 25 0 60 26 72 54 15 36 15
186 -1 241 -11 42 -3 105 13 105 7 0 21 -9 33 -19 28 -27 37 -106 22 -213 -10
-73 -10 -93 1 -114 18 -32 56 -42 78 -20 15 14 17 42 17 191 l0 175 38 0 38 0
-6 -172 c-7 -184 -1 -219 39 -226 15 -3 96 25 96 33 0 1 -7 16 -15 32 -12 24
-13 44 -7 92 5 35 8 111 8 170 -1 119 -12 148 -67 176 -26 14 -39 15 -82 5
-29 -7 -60 -16 -70 -21 -12 -7 -31 -4 -63 10 -38 17 -58 20 -120 14 -41 -3
-74 -10 -74 -14 0 -15 48 -22 103 -15 43 5 59 2 91 -16 51 -30 56 -49 59 -235
2 -156 -6 -191 -33 -158 -11 13 -11 36 -2 121 10 93 10 110 -6 156 -21 59 -54
79 -99 59 -26 -12 -26 -12 -17 -89 13 -120 11 -256 -4 -275 -17 -20 -39 -12
-48 16 -4 12 -8 92 -9 178 -1 143 -3 158 -24 192 -21 34 -78 87 -94 87 -3 0
-9 -5 -13 -12z m497 -31 c37 -28 40 -52 34 -250 -4 -153 -8 -193 -20 -195 -28
-6 -35 35 -31 195 1 87 -1 168 -5 181 -7 19 -16 22 -58 22 -36 0 -50 4 -55 16
-4 9 -5 18 -4 18 46 25 115 31 139 13z"/>
<path d="M6104 679 c-41 -11 -82 -53 -108 -109 -17 -36 -21 -65 -21 -150 0
-99 2 -107 28 -146 38 -57 90 -79 163 -70 31 3 64 11 74 16 21 11 54 89 48
116 -5 26 -51 30 -91 6 -17 -10 -38 -18 -44 -16 -7 1 -17 2 -23 3 -14 2 -42
60 -35 71 3 6 39 10 78 10 40 0 78 4 84 8 37 23 48 161 17 209 -27 43 -110 68
-170 52z m145 -63 c22 -23 23 -31 18 -93 -4 -36 -10 -70 -15 -75 -4 -4 -46 -9
-92 -10 l-85 -3 -3 -36 c-6 -73 69 -118 133 -79 44 27 55 25 55 -8 0 -31 -30
-69 -65 -82 -56 -21 -157 35 -179 100 -14 42 -12 149 4 208 16 60 66 113 116
122 44 7 77 -5 113 -44z"/>
<path d="M6104 584 c-60 -63 -42 -94 53 -94 58 0 63 2 69 24 9 36 1 69 -20 89
-30 27 -65 21 -102 -19z m94 -1 c5 -10 6 -29 2 -43 -5 -22 -11 -25 -49 -25
-52 0 -61 19 -29 60 23 29 63 33 76 8z"/>
<path d="M1843 626 c-40 -18 -67 -60 -89 -142 -33 -125 8 -239 103 -284 52
-24 119 -24 150 1 28 24 55 96 44 118 -16 29 -39 32 -86 11 -76 -35 -109 -26
-120 31 l-7 37 51 3 c28 2 51 1 51 -2 0 -10 75 0 78 11 2 5 10 10 17 10 15 0
24 33 21 75 -2 17 -4 42 -4 57 -4 61 -134 107 -209 74z m163 -37 c26 -24 38
-75 28 -124 l-6 -35 -82 0 c-104 0 -121 -11 -113 -69 3 -23 11 -48 17 -56 18
-21 63 -18 110 6 22 12 47 19 55 15 31 -12 10 -85 -31 -107 -29 -15 -92 2
-133 37 -14 11 -32 19 -40 16 -8 -3 -11 0 -7 6 4 7 1 22 -6 34 -18 35 -21 47
-21 123 -1 85 32 165 73 177 43 12 132 -1 156 -23z"/>
<path d="M1856 555 c-56 -60 -36 -85 69 -85 69 0 85 11 70 48 -6 14 -8 15 -13
2 -7 -22 -20 -28 -50 -23 -15 2 -36 4 -47 6 -11 1 -23 7 -28 14 -10 17 2 43
22 43 9 0 23 5 31 10 12 8 11 10 -8 10 -13 0 -33 -11 -46 -25z"/>
<path d="M1930 574 c0 -9 32 -33 44 -34 5 0 1 9 -9 20 -18 20 -35 26 -35 14z"/>
<path d="M2951 607 c-65 -80 -53 -321 19 -340 20 -5 26 3 13 17 -5 4 -8 11 -9
14 0 4 -4 16 -8 27 -4 11 -13 32 -18 48 -6 15 -12 61 -13 102 -1 58 3 82 16
105 23 38 41 38 72 0 36 -42 65 -40 33 2 -13 17 -57 38 -80 38 -8 0 -19 -6
-25 -13z m-14 -259 c-3 -7 -5 -2 -5 12 0 14 2 19 5 13 2 -7 2 -19 0 -25z"/>
<path d="M3055 515 c18 -75 17 -162 -2 -201 -13 -26 -24 -38 -36 -36 -9 2 -17
-2 -17 -8 0 -6 12 -10 27 -8 22 3 30 12 48 63 12 34 21 78 19 100 -2 40 -21
119 -23 100 -1 -5 -6 -3 -12 5 -8 11 -9 8 -4 -15z"/>
<path d="M3459 334 c-7 -8 -26 -21 -43 -29 -24 -10 -26 -14 -11 -14 11 -1 35
8 53 19 42 26 62 25 62 -1 0 -11 5 -17 10 -14 6 3 10 17 10 31 0 21 -5 24 -34
24 -18 0 -39 -7 -47 -16z"/>
<path d="M3753 285 c-49 -34 -27 -89 39 -98 l36 -5 7 50 c5 38 4 53 -6 59 -21
13 -52 11 -76 -6z m57 -20 c18 -21 3 -55 -25 -55 -22 0 -35 17 -35 45 0 12 12
18 41 24 4 0 12 -6 19 -14z"/>
<path d="M9761 274 c-26 -33 -27 -66 -3 -87 37 -33 95 -13 71 24 -4 8 -6 31
-3 51 4 35 2 38 -20 38 -15 0 -33 -11 -45 -26z m39 -34 c0 -40 -13 -53 -24
-24 -11 29 -7 64 9 64 11 0 15 -11 15 -40z"/>
</g>
</svg>
