<?xml version="1.0" standalone="no"?>
<!DOCTYPE svg PUBLIC "-//W3C//DTD SVG 20010904//EN"
 "http://www.w3.org/TR/2001/REC-SVG-20010904/DTD/svg10.dtd">
<svg version="1.0" xmlns="http://www.w3.org/2000/svg"
 width="1000.000000pt" height="652.000000pt" viewBox="0 0 1000.000000 652.000000"
 preserveAspectRatio="xMidYMid meet">
<metadata>
Created by potrace 1.16, written by Peter Selinger 2001-2019
</metadata>
<g transform="translate(0.000000,652.000000) scale(0.100000,-0.100000)"
fill="#000000" stroke="none">
<path d="M2650 6420 c-21 -7 -21 -8 -5 -9 11 0 27 4 35 9 18 11 5 11 -30 0z"/>
<path d="M2968 6423 c6 -2 18 -2 25 0 6 3 1 5 -13 5 -14 0 -19 -2 -12 -5z"/>
<path d="M4848 6413 c6 -2 18 -2 25 0 6 3 1 5 -13 5 -14 0 -19 -2 -12 -5z"/>
<path d="M9107 6414 c-2 -2 -54 -8 -117 -14 -117 -12 -144 -14 -262 -26 -74
-8 -103 -25 -69 -43 11 -6 23 -20 26 -32 4 -12 27 -29 53 -41 42 -19 68 -21
247 -22 138 -1 220 3 263 13 59 13 65 13 89 -5 15 -11 33 -43 45 -78 32 -93
18 -162 -67 -317 -71 -131 -92 -184 -106 -264 -5 -27 -11 -65 -15 -83 -7 -36
18 -202 59 -382 8 -36 22 -110 32 -165 9 -55 23 -129 32 -165 44 -193 -10
-498 -126 -707 -34 -62 -49 -90 -72 -133 -51 -95 -98 -233 -98 -290 0 -14 -1
-41 -1 -60 -1 -38 9 -136 34 -360 34 -305 36 -327 26 -382 -5 -29 -16 -97 -25
-150 -8 -53 -31 -138 -51 -190 -38 -99 -121 -262 -160 -314 -69 -90 -145 -290
-143 -375 1 -42 1 -43 10 -14 5 17 7 35 4 42 -4 11 16 82 35 128 40 92 82 180
88 185 15 10 77 105 108 165 17 33 35 69 41 80 6 11 21 47 33 80 12 33 26 71
33 85 6 14 9 29 8 34 -1 5 3 30 8 55 6 25 13 69 16 98 2 28 9 70 14 93 5 23 8
63 6 88 -19 234 -28 338 -31 343 -9 15 -26 245 -25 340 1 97 4 114 36 194 20
48 44 100 54 114 46 64 152 305 172 386 11 48 24 98 30 112 8 21 21 174 22
253 0 28 -13 122 -19 131 -2 3 -6 35 -9 70 -4 35 -10 68 -15 74 -4 5 -11 42
-15 80 -4 39 -14 81 -21 95 -13 24 -50 202 -63 305 -4 28 -1 67 5 90 6 22 14
61 17 86 6 47 24 89 119 269 30 58 56 114 57 125 6 64 -1 121 -19 161 -23 54
-25 65 -7 59 6 -2 44 -6 83 -9 40 -2 81 -9 93 -15 14 -8 21 -8 21 -1 0 6 34
10 88 10 158 -1 212 14 227 60 19 59 -123 101 -420 126 -63 5 -374 12 -378 8z
m119 -24 c24 0 43 -3 42 -7 -1 -5 4 -19 11 -31 7 -13 10 -26 8 -29 -6 -5 -207
34 -241 47 -18 7 -16 9 14 14 60 10 94 13 108 9 8 -1 34 -3 58 -3z m210 -13
c7 -6 -81 -57 -98 -57 -7 1 -23 17 -36 36 l-22 36 75 -5 c42 -2 78 -7 81 -10z
m-456 -9 c0 -4 11 -8 24 -8 34 0 57 -10 50 -22 -4 -5 4 -9 17 -7 36 3 129 -12
135 -23 6 -9 -346 -2 -355 7 -2 3 6 5 18 5 12 0 20 4 17 9 -4 5 -14 8 -24 6
-9 -2 -21 -4 -25 -4 -5 -1 -5 -5 -2 -11 4 -6 -11 -10 -37 -11 -32 0 -38 -2
-23 -8 18 -7 85 -10 380 -16 114 -2 127 -4 90 -16 -50 -16 -361 -19 -440 -5
-39 7 -76 16 -83 20 -17 10 -15 27 3 20 9 -4 16 3 20 19 5 19 15 26 43 31 21
3 60 9 87 13 66 10 105 11 105 1z m594 3 c3 -5 -12 -11 -34 -15 -22 -3 -54
-13 -72 -20 -18 -8 -42 -17 -52 -21 -36 -11 31 -37 78 -30 84 12 136 13 141 5
3 -5 17 -4 31 2 23 11 24 13 7 18 -10 4 -65 3 -123 -1 -109 -8 -140 -5 -74 6
53 9 124 36 124 46 0 19 215 -15 237 -36 7 -7 17 -15 21 -17 5 -1 12 -13 16
-24 6 -19 1 -23 -36 -32 -49 -12 -228 -15 -228 -4 0 4 -51 7 -113 7 -115 0
-161 12 -151 39 3 8 15 17 27 20 12 3 24 6 27 7 3 1 21 15 40 30 27 23 45 29
82 29 26 0 49 -4 52 -9z m-874 -25 c0 -11 -19 -15 -25 -6 -3 5 1 10 9 10 9 0
16 -2 16 -4z"/>
<path d="M8765 6330 c-3 -5 1 -10 9 -10 8 0 18 5 21 10 3 6 -1 10 -9 10 -8 0
-18 -4 -21 -10z"/>
<path d="M9020 6329 c0 -5 5 -7 10 -4 6 3 10 8 10 11 0 2 -4 4 -10 4 -5 0 -10
-5 -10 -11z"/>
<path d="M9797 6290 c-3 -11 -1 -20 4 -20 5 0 9 9 9 20 0 11 -2 20 -4 20 -2 0
-6 -9 -9 -20z"/>
<path d="M4710 6402 c0 -4 10 -9 22 -9 18 -2 20 0 8 7 -18 12 -30 13 -30 2z"/>
<path d="M4063 6393 c9 -2 25 -2 35 0 9 3 1 5 -18 5 -19 0 -27 -2 -17 -5z"/>
<path d="M8111 6373 c-7 -3 -29 -21 -48 -39 -44 -43 -120 -68 -144 -48 -25 22
-45 18 -25 -5 42 -46 99 -34 178 37 37 33 41 34 35 14 -4 -19 -2 -23 16 -20
14 2 21 10 21 21 -2 21 15 18 30 -5 8 -13 0 -28 -32 -71 -23 -29 -42 -59 -42
-64 0 -6 -7 -16 -15 -23 -15 -13 -21 -50 -8 -50 4 0 33 25 64 56 62 62 99 68
55 9 -33 -43 -43 -91 -51 -258 -7 -142 -18 -179 -29 -102 -10 64 -28 57 -20
-7 4 -29 11 -61 15 -70 5 -9 9 -28 9 -42 0 -18 5 -26 18 -26 14 0 15 2 2 10
-12 7 -11 12 9 29 22 19 119 61 141 61 11 0 13 13 4 23 -6 6 -80 -22 -128 -49
l-29 -17 7 29 c4 16 11 55 15 86 6 49 13 64 47 100 56 59 138 167 132 173 -3
3 -23 -16 -44 -42 -102 -124 -124 -142 -124 -103 0 12 35 55 87 106 102 101
138 115 186 70 17 -15 27 -35 27 -52 0 -27 -1 -27 -15 -8 -8 10 -15 24 -15 30
0 14 -45 34 -73 33 -15 0 -17 -2 -7 -6 37 -14 70 -47 78 -76 5 -18 14 -32 20
-32 7 0 11 4 10 9 -2 5 8 13 21 18 19 6 22 11 13 20 -7 7 -12 20 -12 29 0 9
-16 31 -36 49 -20 17 -34 34 -31 37 9 9 87 -72 87 -90 0 -22 29 -22 37 -1 6
16 -13 36 -84 91 -33 25 -80 28 -75 5 1 -7 -9 -12 -23 -12 -14 0 -35 -10 -45
-22 -52 -60 -142 -148 -149 -148 -15 0 18 120 39 147 22 28 26 68 9 79 -6 3
-34 -19 -63 -50 -84 -92 -81 -68 7 51 30 40 37 57 31 75 -12 39 -46 56 -83 41z"/>
<path d="M8390 6354 c-70 -23 -100 -38 -100 -49 0 -7 -10 -16 -22 -20 -14 -4
-18 -8 -10 -12 7 -2 33 9 59 26 45 30 50 31 127 25 64 -4 78 -3 69 7 -7 7 -30
12 -53 11 -22 -1 -40 3 -40 8 0 11 -6 11 -30 4z"/>
<path d="M8580 6340 c0 -5 11 -10 25 -10 14 0 25 5 25 10 0 6 -11 10 -25 10
-14 0 -25 -4 -25 -10z"/>
<path d="M7494 6331 c3 -5 15 -11 26 -14 17 -4 19 -3 9 9 -12 15 -44 20 -35 5z"/>
<path d="M7895 6330 c-3 -5 -1 -10 4 -10 6 0 11 5 11 10 0 6 -2 10 -4 10 -3 0
-8 -4 -11 -10z"/>
<path d="M7945 6330 c3 -5 15 -10 26 -10 10 0 19 5 19 10 0 6 -12 10 -26 10
-14 0 -23 -4 -19 -10z"/>
<path d="M7050 6319 c0 -5 9 -9 20 -9 11 0 20 2 20 4 0 2 -9 6 -20 9 -11 3
-20 1 -20 -4z"/>
<path d="M6953 6313 c9 -2 23 -2 30 0 6 3 -1 5 -18 5 -16 0 -22 -2 -12 -5z"/>
<path d="M7263 6313 c9 -2 23 -2 30 0 6 3 -1 5 -18 5 -16 0 -22 -2 -12 -5z"/>
<path d="M7323 6313 c9 -2 23 -2 30 0 6 3 -1 5 -18 5 -16 0 -22 -2 -12 -5z"/>
<path d="M7588 6313 c6 -2 18 -2 25 0 6 3 1 5 -13 5 -14 0 -19 -2 -12 -5z"/>
<path d="M6730 6299 c-17 -5 -4 -7 38 -8 34 -1 62 2 62 7 0 9 -68 10 -100 1z"/>
<path d="M7140 6300 c20 -13 33 -13 25 0 -3 6 -14 10 -23 10 -15 0 -15 -2 -2
-10z"/>
<path d="M7188 6293 c6 -2 18 -2 25 0 6 3 1 5 -13 5 -14 0 -19 -2 -12 -5z"/>
<path d="M7829 6284 c-7 -8 -21 -13 -31 -11 -11 3 -18 0 -18 -9 0 -19 25 -18
44 2 9 8 20 13 26 9 6 -3 7 1 4 9 -8 20 -9 20 -25 0z"/>
<path d="M7745 6279 c-11 -17 1 -21 15 -4 8 9 8 15 2 15 -6 0 -14 -5 -17 -11z"/>
<path d="M7905 6230 c-3 -5 -1 -10 4 -10 6 0 11 5 11 10 0 6 -2 10 -4 10 -3 0
-8 -4 -11 -10z"/>
<path d="M7635 6199 c-4 -6 -5 -12 -2 -15 2 -3 7 2 10 11 7 17 1 20 -8 4z"/>
<path d="M7845 6185 c-18 -15 -24 -25 -15 -25 15 1 60 33 60 44 0 12 -15 5
-45 -19z"/>
<path d="M7940 6185 c0 -8 9 -24 20 -35 14 -14 16 -20 6 -20 -7 0 -20 10 -29
23 -17 25 -32 18 -23 -10 8 -24 43 -45 64 -39 9 3 22 14 29 25 10 16 9 24 -8
45 -22 28 -59 35 -59 11z"/>
<path d="M8736 6192 c-3 -5 42 -9 100 -10 59 0 104 3 104 9 0 11 -197 12 -204
1z"/>
<path d="M7385 6160 c27 -12 43 -12 25 0 -8 5 -22 9 -30 9 -10 0 -8 -3 5 -9z"/>
<path d="M7750 6155 c7 -9 15 -13 17 -11 7 7 -7 26 -19 26 -6 0 -6 -6 2 -15z"/>
<path d="M7786 6124 c-9 -9 -15 -19 -12 -21 3 -3 13 2 22 11 9 9 14 19 11 22
-2 3 -12 -3 -21 -12z"/>
<path d="M6985 6100 c-3 -6 1 -7 9 -4 18 7 21 14 7 14 -6 0 -13 -4 -16 -10z"/>
<path d="M7715 6100 c3 -5 8 -10 11 -10 2 0 4 5 4 10 0 6 -5 10 -11 10 -5 0
-7 -4 -4 -10z"/>
<path d="M7860 6100 c0 -5 5 -10 10 -10 6 0 10 5 10 10 0 6 -4 10 -10 10 -5 0
-10 -4 -10 -10z"/>
<path d="M5208 6083 c12 -2 32 -2 45 0 12 2 2 4 -23 4 -25 0 -35 -2 -22 -4z"/>
<path d="M5318 6083 c7 -3 16 -2 19 1 4 3 -2 6 -13 5 -11 0 -14 -3 -6 -6z"/>
<path d="M5103 6073 c9 -2 23 -2 30 0 6 3 -1 5 -18 5 -16 0 -22 -2 -12 -5z"/>
<path d="M7762 6060 c-7 -11 -9 -20 -4 -20 10 0 32 22 32 32 0 15 -15 8 -28
-12z"/>
<path d="M7822 6058 c5 -15 27 -18 31 -3 1 5 -6 11 -17 13 -12 3 -17 -1 -14
-10z"/>
<path d="M8730 6060 c0 -5 12 -10 28 -10 21 0 24 2 12 10 -20 13 -40 13 -40 0z"/>
<path d="M7697 6039 c7 -7 15 -10 18 -7 3 3 -2 9 -12 12 -14 6 -15 5 -6 -5z"/>
<path d="M7740 6011 c-7 -15 -7 -21 0 -21 12 0 25 28 17 36 -3 3 -10 -4 -17
-15z"/>
<path d="M6270 6004 l-45 -14 44 4 c24 3 48 9 54 15 13 13 5 12 -53 -5z"/>
<path d="M7325 6010 c-8 -13 5 -13 25 0 13 8 13 10 -2 10 -9 0 -20 -4 -23 -10z"/>
<path d="M7680 6008 c0 -9 5 -20 10 -23 13 -8 13 5 0 25 -8 13 -10 13 -10 -2z"/>
<path d="M7870 6010 c0 -5 7 -10 15 -10 8 0 15 5 15 10 0 6 -7 10 -15 10 -8 0
-15 -4 -15 -10z"/>
<path d="M6020 5998 c0 -4 16 -8 35 -8 19 0 35 2 35 4 0 2 -16 6 -35 8 -19 2
-35 0 -35 -4z"/>
<path d="M6648 5980 c-15 -4 -30 -5 -34 -1 -4 3 -4 0 0 -7 4 -7 12 -10 17 -6
6 3 26 6 45 6 19 0 31 4 28 9 -6 11 -19 10 -56 -1z"/>
<path d="M6810 5980 c19 -13 30 -13 30 0 0 6 -10 10 -22 10 -19 0 -20 -2 -8
-10z"/>
<path d="M8925 5980 c-3 -5 3 -10 14 -10 12 0 21 5 21 10 0 6 -6 10 -14 10 -8
0 -18 -4 -21 -10z"/>
<path d="M6858 5973 c6 -2 18 -2 25 0 6 3 1 5 -13 5 -14 0 -19 -2 -12 -5z"/>
<path d="M8558 5973 c-10 -2 -18 -9 -18 -15 0 -6 10 -8 23 -4 12 3 30 6 40 6
9 0 17 5 17 10 0 10 -30 12 -62 3z"/>
<path d="M8880 5970 c0 -5 7 -10 15 -10 8 0 15 5 15 10 0 6 -7 10 -15 10 -8 0
-15 -4 -15 -10z"/>
<path d="M3490 5960 c-8 -5 -10 -10 -5 -10 6 0 17 5 25 10 8 5 11 10 5 10 -5
0 -17 -5 -25 -10z"/>
<path d="M3568 5963 c12 -2 30 -2 40 0 9 3 -1 5 -23 4 -22 0 -30 -2 -17 -4z"/>
<path d="M7620 5959 c0 -5 5 -7 10 -4 6 3 10 8 10 11 0 2 -4 4 -10 4 -5 0 -10
-5 -10 -11z"/>
<path d="M7726 5955 c-9 -26 -7 -32 5 -12 6 10 9 21 6 23 -2 3 -7 -2 -11 -11z"/>
<path d="M7816 5954 c-10 -25 -7 -31 14 -37 26 -7 34 7 20 33 -13 24 -26 26
-34 4z"/>
<path d="M4125 5951 c-13 -5 12 -11 73 -15 107 -9 136 -2 37 8 -35 4 -70 8
-77 11 -7 2 -22 0 -33 -4z"/>
<path d="M7609 5883 c11 -23 21 -45 21 -49 0 -3 -15 -3 -34 0 -23 5 -36 3 -39
-6 -6 -17 11 -50 35 -66 10 -7 18 -22 18 -34 0 -18 -4 -20 -30 -14 -40 8 -51
-16 -21 -48 22 -24 27 -51 11 -61 -5 -3 -10 -19 -10 -35 0 -20 -8 -35 -23 -45
-13 -8 -41 -52 -62 -98 -21 -45 -51 -97 -66 -115 -16 -18 -29 -44 -29 -57 0
-16 -19 -45 -51 -81 -52 -57 -119 -155 -119 -173 0 -6 -6 -25 -14 -43 -8 -18
-24 -67 -37 -108 -36 -121 -73 -174 -177 -254 -141 -108 -169 -144 -197 -260
-17 -66 -28 -319 -14 -310 3 2 4 -8 1 -21 -7 -40 16 -29 27 13 6 20 11 42 11
48 0 24 87 173 137 236 40 51 71 77 123 106 87 48 195 151 229 217 23 46 25
61 26 185 1 123 3 139 24 177 24 41 75 73 119 73 9 0 35 11 57 25 22 13 44 25
49 25 14 0 -2 -57 -29 -100 -14 -22 -25 -50 -25 -63 0 -53 -30 -125 -65 -156
-20 -17 -40 -31 -45 -31 -6 0 -10 -4 -10 -10 0 -41 117 62 127 112 4 19 9 25
13 17 17 -27 -25 -94 -87 -137 -17 -12 -17 -13 2 -9 11 3 29 8 39 13 14 5 17
4 12 -4 -4 -7 -4 -12 1 -12 4 1 19 18 32 38 18 27 26 57 31 112 5 61 12 85 40
130 19 30 37 57 40 60 3 3 14 16 23 30 14 20 17 21 17 6 0 -10 -14 -37 -31
-61 -31 -43 -31 -45 -24 -124 8 -95 -4 -141 -48 -188 -21 -23 -26 -33 -16 -33
22 0 61 56 81 115 16 49 16 49 17 15 0 -21 -11 -56 -29 -89 -31 -56 -37 -81
-20 -81 6 0 10 8 10 19 0 10 16 45 36 77 27 45 34 52 28 29 -3 -16 -15 -45
-25 -63 -25 -43 -24 -64 1 -33 42 50 57 152 26 173 -6 4 -13 34 -16 67 -5 58
-5 61 28 93 39 37 107 135 117 169 4 12 7 40 7 63 -1 34 5 46 32 71 43 40 78
90 101 145 10 25 24 52 31 60 6 8 17 31 23 51 10 30 16 35 44 36 18 0 57 15
87 33 30 17 72 39 92 48 21 9 38 20 38 25 0 15 -31 6 -78 -23 -27 -16 -54 -30
-61 -30 -6 0 -23 -7 -37 -16 -36 -24 -69 -7 -79 43 -5 21 -9 41 -10 46 -2 4
-3 25 -4 47 0 22 -6 40 -12 40 -17 0 -6 -143 13 -172 14 -22 13 -27 -28 -93
-24 -39 -43 -77 -44 -86 0 -18 -70 -129 -94 -148 -14 -12 -16 -9 -16 25 0 22
-5 46 -10 54 -16 24 -28 -5 -21 -48 4 -20 6 -71 5 -113 -1 -68 -5 -81 -34
-125 -43 -64 -90 -114 -108 -114 -9 0 -1 16 20 42 38 49 41 90 14 193 -9 32
-16 72 -16 87 0 15 -4 28 -10 28 -19 0 -22 -51 -6 -99 9 -28 16 -56 16 -63 0
-16 -63 -68 -83 -68 -8 0 -34 -11 -59 -24 -48 -25 -144 -50 -159 -40 -5 3 -9
-1 -9 -8 -1 -16 -35 -58 -48 -58 -14 0 -26 -98 -26 -220 -1 -128 -20 -176 -98
-255 -52 -52 -122 -105 -139 -105 -5 0 -9 15 -10 33 0 30 -1 31 -10 8 -6 -15
-6 -28 0 -35 7 -8 -3 -18 -32 -34 -52 -28 -121 -118 -177 -232 l-42 -85 5 114
c5 94 9 119 26 142 17 23 18 28 5 31 -12 2 -10 12 12 54 31 61 57 89 147 154
57 42 71 48 86 38 10 -6 26 -8 37 -3 15 6 16 8 4 12 -8 3 -21 6 -28 9 -10 3
-8 11 8 34 12 17 25 28 28 26 12 -7 72 22 72 34 0 7 -15 2 -35 -10 -19 -12
-35 -17 -35 -12 0 17 49 70 70 77 11 4 20 14 20 23 -1 16 -2 16 -14 0 -7 -10
-17 -18 -21 -18 -4 0 -4 8 0 18 4 9 13 42 20 72 29 125 62 195 117 252 60 62
88 101 88 125 0 11 14 35 30 53 17 18 30 40 30 48 0 7 9 25 20 39 11 15 18 34
15 43 -3 11 11 34 40 65 25 27 45 53 45 59 0 5 6 25 12 44 11 28 10 38 -5 63
-9 17 -13 28 -9 26 4 -3 17 -1 30 4 32 12 28 49 -8 84 -39 37 -38 46 4 39 20
-3 37 0 41 6 8 13 -18 72 -41 91 -13 11 -12 5 5 -28z m32 -787 c17 10 9 -7
-26 -54 -61 -81 -75 -97 -75 -84 0 7 9 22 19 33 11 12 22 33 26 47 9 37 37 80
43 64 2 -7 8 -10 13 -6z"/>
<path d="M7755 5901 c-3 -6 3 -15 14 -20 24 -14 31 -14 31 -1 0 14 -38 32 -45
21z"/>
<path d="M7708 5875 c-3 -14 -2 -25 2 -25 11 0 20 39 10 45 -4 3 -10 -6 -12
-20z"/>
<path d="M7742 5818 c6 -17 47 -23 61 -9 16 16 0 26 -18 11 -10 -8 -15 -9 -15
-1 0 6 -7 11 -16 11 -9 0 -14 -6 -12 -12z"/>
<path d="M8330 5805 c0 -10 11 -15 35 -15 19 0 35 -5 35 -10 0 -6 -10 -8 -24
-4 -16 4 -32 -2 -52 -20 -16 -14 -24 -26 -18 -26 6 0 17 6 23 13 6 8 31 14 56
15 51 0 75 -22 75 -69 0 -32 9 -42 27 -28 10 9 13 8 13 -4 0 -8 7 -18 16 -21
17 -7 34 0 34 14 0 16 -72 115 -91 124 -19 9 -26 26 -11 26 19 0 74 -43 82
-65 5 -14 14 -25 19 -25 36 0 7 71 -39 95 -41 21 -180 21 -180 0z"/>
<path d="M7830 5799 c0 -5 5 -7 10 -4 6 3 10 8 10 11 0 2 -4 4 -10 4 -5 0 -10
-5 -10 -11z"/>
<path d="M7687 5783 c-4 -3 -7 -11 -7 -17 0 -6 5 -5 12 2 6 6 9 14 7 17 -3 3
-9 2 -12 -2z"/>
<path d="M2882 5738 c-52 -78 -77 -152 -81 -238 -1 -17 -11 -32 -28 -42 -102
-61 -212 -184 -197 -221 4 -12 12 -13 42 -5 20 6 89 11 152 12 95 1 121 -2
142 -16 78 -51 104 -108 112 -248 3 -58 9 -115 12 -127 l6 -23 -62 24 -63 23
-38 -21 c-36 -19 -59 -56 -59 -92 0 -22 51 -74 73 -74 19 0 17 3 -10 20 -28
17 -33 25 -33 60 0 81 71 103 170 51 22 -11 46 -21 53 -21 7 0 22 -7 33 -16
19 -15 19 -16 -1 -9 -34 11 -185 55 -190 55 -3 0 -5 -3 -5 -8 0 -7 51 -23 140
-42 24 -6 49 -15 55 -22 7 -8 5 -9 -8 -5 -11 4 -16 3 -12 -3 3 -6 0 -10 -7
-10 -7 0 -5 -5 6 -11 19 -12 36 1 36 29 0 15 6 15 31 2 28 -15 25 6 -3 22 -13
7 -36 18 -53 24 -28 10 -31 15 -42 90 -6 43 -12 106 -12 139 -1 41 -7 70 -21
93 -11 18 -18 37 -15 42 8 14 -72 71 -120 86 -44 13 -196 12 -258 -2 -27 -6
-28 -5 -17 17 23 42 103 120 160 155 l56 34 12 81 c19 116 66 223 95 215 15
-4 16 -2 6 10 -18 22 -26 18 -57 -28z"/>
<path d="M6100 5771 c0 -11 49 -21 69 -13 12 5 10 8 -9 13 -36 10 -60 10 -60
0z"/>
<path d="M7800 5766 c0 -9 5 -16 10 -16 6 0 10 4 10 9 0 6 -4 13 -10 16 -5 3
-10 -1 -10 -9z"/>
<path d="M2483 5743 c-13 -2 -23 -9 -23 -14 0 -15 53 -7 58 9 2 6 0 11 -5 11
-4 -1 -18 -4 -30 -6z"/>
<path d="M4840 5740 c36 -12 60 -12 60 0 0 6 -19 10 -42 9 -37 -1 -39 -2 -18
-9z"/>
<path d="M4910 5740 c0 -5 7 -10 16 -10 8 0 12 5 9 10 -3 6 -10 10 -16 10 -5
0 -9 -4 -9 -10z"/>
<path d="M4950 5742 c0 -4 18 -9 40 -10 23 -2 40 2 40 8 0 5 -18 10 -40 10
-22 0 -40 -4 -40 -8z"/>
<path d="M7228 5743 c6 -2 18 -2 25 0 6 3 1 5 -13 5 -14 0 -19 -2 -12 -5z"/>
<path d="M7650 5728 c0 -7 -3 -24 -6 -38 -5 -24 -5 -24 10 -6 18 22 21 56 6
56 -5 0 -10 -6 -10 -12z"/>
<path d="M3378 5723 c18 -2 45 -2 60 0 15 2 0 4 -33 4 -33 0 -45 -2 -27 -4z"/>
<path d="M6736 5721 c-4 -5 3 -7 14 -4 23 6 26 13 6 13 -8 0 -17 -4 -20 -9z"/>
<path d="M7690 5718 c0 -14 28 -21 55 -14 14 4 23 11 20 15 -6 11 -75 10 -75
-1z"/>
<path d="M2971 5715 c0 -12 32 -106 42 -122 4 -6 9 -35 12 -65 3 -29 8 -63 10
-75 3 -14 1 -23 -6 -23 -12 0 -3 -15 9 -15 4 0 18 -8 32 -17 38 -25 108 -30
170 -13 70 19 69 19 63 -5 -3 -12 0 -20 7 -20 7 0 10 11 8 27 -3 26 1 29 62
46 104 29 261 31 347 3 17 -6 25 -1 37 21 l15 28 1 -30 c1 -27 2 -28 10 -9 5
14 20 23 39 26 17 3 31 3 31 2 0 -2 -5 -15 -10 -29 -8 -20 -15 -25 -30 -20
-26 8 -26 -11 0 -25 18 -10 22 -7 34 22 7 18 16 40 20 48 3 8 3 -11 0 -43 -5
-49 -3 -58 13 -64 10 -4 24 -15 31 -25 7 -10 18 -18 23 -18 5 0 25 33 43 73
19 39 35 64 35 54 1 -10 -5 -30 -13 -45 -18 -36 -30 -92 -19 -92 11 0 44 100
50 150 2 19 1 45 -2 58 -5 22 -7 23 -28 9 -34 -22 -108 -32 -118 -16 -6 11
-11 10 -26 -3 -26 -23 -64 -32 -73 -18 -6 9 -12 9 -30 0 -12 -7 -33 -10 -46
-7 -13 2 -24 0 -24 -4 0 -5 14 -9 30 -9 17 0 30 -5 30 -11 0 -8 -11 -9 -31 -5
-17 3 -36 6 -41 6 -5 0 -8 6 -7 13 4 29 -2 42 -11 22 -7 -19 -14 -20 -68 -15
-80 7 -304 -38 -347 -71 -5 -4 -31 -10 -58 -14 -87 -13 -137 28 -137 114 0 36
-15 80 -65 186 -7 17 -14 26 -14 20z m1019 -257 c-28 -108 -33 -114 -71 -86
-24 18 -28 27 -27 64 2 47 -4 43 89 52 14 2 16 -3 9 -30z"/>
<path d="M6698 5713 c7 -3 16 -2 19 1 4 3 -2 6 -13 5 -11 0 -14 -3 -6 -6z"/>
<path d="M5641 5689 c-67 -13 -73 -20 -11 -13 30 3 65 6 77 6 13 0 20 4 17 9
-6 10 -22 10 -83 -2z"/>
<path d="M8733 5686 c2 -6 14 -11 27 -11 13 0 25 5 27 11 2 6 -10 11 -27 11
-17 0 -29 -5 -27 -11z"/>
<path d="M2926 5663 c11 -50 84 -190 84 -164 0 14 -8 34 -19 45 -10 12 -29 49
-41 84 -24 65 -35 81 -24 35z"/>
<path d="M7710 5675 c0 -8 7 -15 15 -15 8 0 15 4 15 9 0 5 -7 11 -15 15 -9 3
-15 0 -15 -9z"/>
<path d="M1920 5672 c0 -5 12 -9 28 -9 15 0 59 -3 97 -8 47 -5 67 -4 60 3 -13
13 -185 27 -185 14z"/>
<path d="M1848 5663 c12 -2 32 -2 45 0 12 2 2 4 -23 4 -25 0 -35 -2 -22 -4z"/>
<path d="M2890 5636 c0 -19 21 -67 37 -84 7 -7 13 -24 13 -37 0 -13 5 -27 10
-30 15 -9 2 40 -21 87 -11 21 -19 44 -19 52 0 8 -4 18 -10 21 -5 3 -10 -1 -10
-9z"/>
<path d="M6670 5600 l-45 -7 47 -1 c26 -1 50 3 53 8 3 6 3 9 -2 8 -4 0 -28 -4
-53 -8z"/>
<path d="M6750 5600 c0 -5 5 -10 10 -10 6 0 10 5 10 10 0 6 -4 10 -10 10 -5 0
-10 -4 -10 -10z"/>
<path d="M7645 5580 c-4 -6 5 -10 19 -10 14 0 26 5 26 10 0 6 -9 10 -19 10
-11 0 -23 -4 -26 -10z"/>
<path d="M7755 5579 c-4 -6 -5 -13 -2 -16 7 -7 27 6 27 18 0 12 -17 12 -25 -2z"/>
<path d="M2906 5509 c38 -77 55 -88 28 -18 -21 53 -43 89 -55 89 -4 0 8 -32
27 -71z"/>
<path d="M7606 5572 c-3 -6 -1 -14 5 -17 15 -10 25 3 12 16 -7 7 -13 7 -17 1z"/>
<path d="M7285 5540 c-19 -8 -19 -9 3 -9 12 -1 22 4 22 9 0 6 -1 10 -2 9 -2 0
-12 -4 -23 -9z"/>
<path d="M7113 5523 c9 -2 23 -2 30 0 6 3 -1 5 -18 5 -16 0 -22 -2 -12 -5z"/>
<path d="M7630 5520 c0 -5 5 -10 10 -10 6 0 10 5 10 10 0 6 -4 10 -10 10 -5 0
-10 -4 -10 -10z"/>
<path d="M4136 5498 c-10 -6 -34 -8 -53 -5 -24 4 -33 2 -30 -6 2 -7 20 -13 40
-15 22 -2 37 -9 37 -16 0 -22 -41 -140 -55 -156 -7 -8 -16 -26 -19 -40 l-7
-25 20 25 c11 14 21 29 21 34 0 5 2 7 5 4 3 -3 -1 -18 -10 -34 -14 -28 -14
-30 19 -63 22 -22 38 -31 47 -26 9 6 4 16 -20 36 l-33 27 17 49 c25 71 55 207
47 215 -4 4 -15 2 -26 -4z"/>
<path d="M8458 5493 c-52 -4 -67 -23 -19 -23 45 0 91 12 85 21 -3 5 -8 8 -12
7 -4 -1 -28 -3 -54 -5z"/>
<path d="M7590 5480 c0 -5 5 -10 10 -10 6 0 10 5 10 10 0 6 -4 10 -10 10 -5 0
-10 -4 -10 -10z"/>
<path d="M8220 5480 c0 -12 27 -12 55 0 16 7 13 9 -17 9 -21 1 -38 -3 -38 -9z"/>
<path d="M8365 5480 c-3 -5 1 -10 9 -10 8 0 18 5 21 10 3 6 -1 10 -9 10 -8 0
-18 -4 -21 -10z"/>
<path d="M8150 5469 c0 -5 9 -9 19 -9 11 0 22 4 25 9 3 5 -6 9 -19 9 -14 0
-25 -4 -25 -9z"/>
<path d="M4170 5461 c0 -16 29 -39 66 -53 31 -11 34 -16 29 -38 -3 -14 -17
-42 -31 -62 -13 -21 -24 -41 -24 -46 0 -4 -14 -30 -31 -56 -16 -27 -28 -51
-25 -54 4 -3 8 -3 10 -1 9 10 107 181 116 201 5 13 9 17 10 8 0 -19 -88 -194
-112 -220 -10 -10 -18 -27 -17 -37 0 -14 2 -13 9 5 12 28 16 28 45 -5 25 -29
33 -49 15 -38 -14 9 -42 -14 -34 -27 4 -6 9 -6 14 1 4 7 17 13 28 14 29 2 28
23 -2 62 l-24 32 52 106 c45 91 55 105 66 92 7 -8 25 -15 41 -15 17 0 29 -5
29 -12 -1 -39 -60 -167 -102 -220 -16 -21 -25 -38 -20 -38 11 0 51 51 75 95 9
17 16 27 17 24 0 -13 -44 -105 -62 -128 -16 -21 -17 -35 -12 -117 5 -69 4 -97
-6 -109 -7 -8 -10 -22 -6 -30 8 -22 -23 -94 -45 -106 -34 -18 -14 -89 25 -89
9 0 16 -4 16 -9 0 -18 -30 -33 -62 -30 -25 2 -40 -4 -60 -24 -15 -15 -34 -27
-43 -27 -9 0 -38 -9 -64 -21 -45 -19 -71 -49 -71 -82 0 -18 -212 -112 -234
-103 -7 3 -7 5 2 5 17 1 15 21 -3 21 -8 0 -15 -4 -15 -8 0 -12 -49 -34 -60
-27 -5 3 -24 -1 -42 -10 -32 -15 -12 -15 27 0 37 15 -27 -30 -80 -55 -97 -47
-195 -21 -195 52 0 32 -16 38 -25 8 -15 -46 41 -99 105 -100 62 0 104 13 181
58 49 29 74 38 96 35 21 -4 64 9 139 41 130 56 141 63 146 101 3 27 11 33 107
71 57 24 114 45 127 48 28 7 61 53 48 66 -5 4 -18 10 -29 12 -28 5 -31 42 -5
77 11 16 27 49 36 73 20 55 23 186 6 219 -12 22 -10 30 21 82 19 31 40 71 47
89 33 88 39 107 50 156 13 58 7 78 -16 47 -24 -33 -94 -7 -94 35 0 26 -21 42
-34 25 -10 -12 -16 -12 -46 3 -19 9 -41 22 -48 29 -16 15 -22 16 -22 4z"/>
<path d="M7560 5460 c0 -5 5 -10 10 -10 6 0 10 5 10 10 0 6 -4 10 -10 10 -5 0
-10 -4 -10 -10z"/>
<path d="M2875 5410 c21 -22 45 -40 52 -40 7 0 -7 18 -31 40 -24 22 -47 40
-52 40 -4 0 10 -18 31 -40z"/>
<path d="M3563 5420 c-9 -23 -8 -32 3 -41 8 -6 14 -10 15 -8 12 69 1 99 -18
49z"/>
<path d="M2990 5431 c0 -6 5 -13 10 -16 6 -3 10 1 10 9 0 9 -4 16 -10 16 -5 0
-10 -4 -10 -9z"/>
<path d="M3476 5413 c-5 -18 -2 -31 8 -42 15 -14 16 -11 16 27 0 47 -14 56
-24 15z"/>
<path d="M3417 5407 c-20 -31 -22 -61 -4 -54 6 2 11 12 9 22 -2 10 2 21 8 25
7 4 11 13 8 20 -2 8 -10 3 -21 -13z"/>
<path d="M3640 5414 c-9 -10 -10 -18 -3 -25 8 -8 14 -5 22 9 13 25 -2 38 -19
16z"/>
<path d="M2810 5417 c0 -8 92 -69 97 -64 2 2 -8 12 -22 21 -14 9 -36 23 -50
32 -14 9 -25 14 -25 11z"/>
<path d="M3370 5409 c0 -5 5 -7 10 -4 6 3 10 8 10 11 0 2 -4 4 -10 4 -5 0 -10
-5 -10 -11z"/>
<path d="M6445 5410 c-162 -10 -130 -12 174 -10 57 0 102 3 99 5 -8 8 -170 11
-273 5z"/>
<path d="M3705 5390 c-7 -12 2 -30 16 -30 5 0 9 9 9 20 0 21 -15 27 -25 10z"/>
<path d="M7560 5391 c0 -5 5 -13 10 -16 6 -3 10 -2 10 4 0 5 -4 13 -10 16 -5
3 -10 2 -10 -4z"/>
<path d="M2755 5379 c-4 -5 0 -9 8 -9 7 0 34 -11 60 -23 25 -13 50 -21 56 -18
5 3 -19 18 -55 33 -35 15 -66 23 -69 17z"/>
<path d="M3040 5374 c0 -8 5 -12 10 -9 6 3 10 10 10 16 0 5 -4 9 -10 9 -5 0
-10 -7 -10 -16z"/>
<path d="M3340 5381 c0 -11 29 -35 35 -29 10 9 -7 38 -21 38 -8 0 -14 -4 -14
-9z"/>
<path d="M3520 5381 c0 -6 5 -13 10 -16 6 -3 10 1 10 9 0 9 -4 16 -10 16 -5 0
-10 -4 -10 -9z"/>
<path d="M3766 5382 c-10 -16 -3 -78 12 -104 13 -22 13 -32 4 -53 -7 -14 -12
-34 -12 -43 1 -9 9 4 20 31 17 44 17 87 0 87 -11 0 -18 60 -8 66 4 3 8 9 8 15
0 11 -17 12 -24 1z"/>
<path d="M7520 5380 c0 -5 5 -10 10 -10 6 0 10 5 10 10 0 6 -4 10 -10 10 -5 0
-10 -4 -10 -10z"/>
<path d="M3000 5369 c0 -5 5 -7 10 -4 6 3 10 8 10 11 0 2 -4 4 -10 4 -5 0 -10
-5 -10 -11z"/>
<path d="M2956 5342 c-5 -18 -5 -36 -2 -39 7 -7 19 43 13 59 -2 7 -7 -2 -11
-20z"/>
<path d="M3240 5351 c0 -11 5 -23 10 -26 6 -4 10 5 10 19 0 14 -4 26 -10 26
-5 0 -10 -9 -10 -19z"/>
<path d="M4990 5353 c-44 -8 -40 -18 5 -15 25 2 42 8 39 13 -3 5 -8 8 -12 8
-4 -1 -18 -4 -32 -6z"/>
<path d="M2700 5341 c0 -5 19 -11 43 -14 23 -2 51 -8 62 -11 11 -3 7 0 -10 7
-39 18 -95 29 -95 18z"/>
<path d="M2996 5341 c-4 -7 -5 -15 -2 -18 9 -9 19 4 14 18 -4 11 -6 11 -12 0z"/>
<path d="M3195 5340 c-4 -6 -2 -17 4 -23 15 -15 25 -2 13 19 -7 12 -11 13 -17
4z"/>
<path d="M3505 5341 c-3 -6 1 -13 8 -18 7 -4 17 -17 21 -28 l8 -20 8 20 c5 15
2 22 -12 27 -11 4 -16 12 -13 18 3 5 2 10 -4 10 -5 0 -12 -4 -16 -9z"/>
<path d="M5073 5343 c9 -2 25 -2 35 0 9 3 1 5 -18 5 -19 0 -27 -2 -17 -5z"/>
<path d="M9061 5335 c-18 -8 -49 -15 -67 -15 -19 0 -34 -5 -34 -11 0 -7 11 -8
33 -3 17 4 56 7 84 6 29 0 56 4 59 9 14 23 -34 31 -75 14z"/>
<path d="M3298 5329 c-23 -13 -24 -44 -2 -35 9 3 20 6 25 6 5 0 9 9 9 20 0 22
-7 24 -32 9z"/>
<path d="M3364 5325 c-7 -17 4 -37 17 -30 12 8 12 45 -1 45 -6 0 -13 -7 -16
-15z"/>
<path d="M3846 5333 c-9 -10 -7 -43 3 -43 11 0 21 39 11 45 -4 2 -10 2 -14 -2z"/>
<path d="M3428 5316 c-20 -14 -25 -56 -7 -56 6 0 13 9 16 19 3 11 12 22 20 25
8 3 11 10 8 16 -8 13 -16 12 -37 -4z"/>
<path d="M3615 5320 c-7 -12 2 -30 16 -30 5 0 9 9 9 20 0 21 -15 27 -25 10z"/>
<path d="M3691 5316 c-8 -9 -11 -19 -7 -23 9 -9 29 13 24 27 -2 8 -8 7 -17 -4z"/>
<path d="M7510 5320 c0 -5 5 -10 11 -10 5 0 7 5 4 10 -3 6 -8 10 -11 10 -2 0
-4 -4 -4 -10z"/>
<path d="M7545 5320 c3 -5 8 -10 11 -10 2 0 4 5 4 10 0 6 -5 10 -11 10 -5 0
-7 -4 -4 -10z"/>
<path d="M1445 5309 c-16 -4 29 -7 100 -7 72 0 126 1 120 3 -22 7 -192 11
-220 4z"/>
<path d="M1735 5310 c-3 -5 -1 -10 4 -10 6 0 11 5 11 10 0 6 -2 10 -4 10 -3 0
-8 -4 -11 -10z"/>
<path d="M2830 5316 c0 -2 7 -7 16 -10 8 -3 12 -2 9 4 -6 10 -25 14 -25 6z"/>
<path d="M2662 5298 c-9 -4 7 -7 38 -8 30 -1 82 -3 115 -5 47 -2 54 -1 30 6
-38 11 -161 16 -183 7z"/>
<path d="M3006 5294 c-9 -24 -7 -28 9 -14 17 14 20 30 6 30 -5 0 -12 -7 -15
-16z"/>
<path d="M3082 5293 c2 -9 8 -18 15 -20 7 -3 9 3 6 16 -6 25 -26 28 -21 4z"/>
<path d="M8160 5300 c-10 -7 9 -10 63 -10 50 0 76 4 72 10 -8 13 -115 13 -135
0z"/>
<path d="M3215 5290 c-4 -6 -2 -17 4 -23 15 -15 25 -2 13 19 -7 12 -11 13 -17
4z"/>
<path d="M3335 5290 c-7 -12 2 -30 16 -30 5 0 9 9 9 20 0 21 -15 27 -25 10z"/>
<path d="M4008 5278 c23 -24 36 -21 26 6 -3 9 -16 16 -27 16 l-21 0 22 -22z"/>
<path d="M7485 5290 c-3 -5 -1 -10 4 -10 6 0 11 5 11 10 0 6 -2 10 -4 10 -3 0
-8 -4 -11 -10z"/>
<path d="M2950 5269 c0 -11 5 -17 10 -14 6 3 10 13 10 21 0 8 -4 14 -10 14 -5
0 -10 -9 -10 -21z"/>
<path d="M3146 5274 c-4 -10 -1 -14 6 -12 15 5 23 28 10 28 -5 0 -13 -7 -16
-16z"/>
<path d="M3896 5261 c-10 -11 -15 -25 -11 -32 6 -8 13 -5 26 12 31 40 18 56
-15 20z"/>
<path d="M3475 5259 c-11 -17 1 -21 15 -4 8 9 8 15 2 15 -6 0 -14 -5 -17 -11z"/>
<path d="M3640 5245 c-10 -12 -10 -19 -2 -27 14 -14 17 -11 26 20 8 25 -5 29
-24 7z"/>
<path d="M5898 5250 c-26 -3 -51 -10 -55 -14 -4 -5 3 -6 17 -3 14 4 51 7 83 7
31 0 57 3 57 8 0 9 -42 10 -102 2z"/>
<path d="M7510 5250 c0 -5 5 -10 10 -10 6 0 10 5 10 10 0 6 -4 10 -10 10 -5 0
-10 -4 -10 -10z"/>
<path d="M3300 5234 c0 -9 5 -14 12 -12 18 6 21 28 4 28 -9 0 -16 -7 -16 -16z"/>
<path d="M3183 5224 c-3 -8 -1 -20 6 -27 8 -8 11 -4 11 16 0 30 -7 35 -17 11z"/>
<path d="M3391 5219 c-13 -11 -20 -23 -16 -27 4 -4 10 -2 12 5 2 7 11 9 19 6
9 -3 14 2 14 16 0 25 1 25 -29 0z"/>
<path d="M5798 5233 c6 -2 18 -2 25 0 6 3 1 5 -13 5 -14 0 -19 -2 -12 -5z"/>
<path d="M3463 5215 c-8 -22 6 -33 17 -15 13 20 12 30 0 30 -6 0 -13 -7 -17
-15z"/>
<path d="M3542 5218 c6 -18 28 -21 28 -4 0 9 -7 16 -16 16 -9 0 -14 -5 -12
-12z"/>
<path d="M3740 5214 c0 -14 3 -14 15 -4 8 7 15 14 15 16 0 2 -7 4 -15 4 -8 0
-15 -7 -15 -16z"/>
<path d="M7460 5210 c0 -5 5 -10 10 -10 6 0 10 5 10 10 0 6 -4 10 -10 10 -5 0
-10 -4 -10 -10z"/>
<path d="M3250 5200 c0 -5 5 -10 10 -10 6 0 10 5 10 10 0 6 -4 10 -10 10 -5 0
-10 -4 -10 -10z"/>
<path d="M3832 5193 c2 -10 8 -18 13 -18 5 0 11 8 13 18 2 10 -3 17 -13 17
-10 0 -15 -7 -13 -17z"/>
<path d="M3943 5195 c-8 -23 4 -30 22 -12 19 20 19 27 0 27 -9 0 -18 -7 -22
-15z"/>
<path d="M4037 5194 c-4 -4 -7 -14 -7 -23 0 -11 3 -12 11 -4 6 6 10 16 7 23
-2 6 -7 8 -11 4z"/>
<path d="M6950 5190 c-11 -7 -7 -10 17 -10 17 0 35 5 38 10 8 13 -35 13 -55 0z"/>
<path d="M7050 5190 c0 -5 6 -10 14 -10 8 0 18 5 21 10 3 6 -3 10 -14 10 -12
0 -21 -4 -21 -10z"/>
<path d="M3605 5181 c-6 -11 9 -23 19 -14 9 9 7 23 -3 23 -6 0 -12 -4 -16 -9z"/>
<path d="M3253 5165 c-8 -22 6 -33 17 -15 13 20 12 30 0 30 -6 0 -13 -7 -17
-15z"/>
<path d="M3310 5165 c0 -8 4 -15 9 -15 5 0 11 7 15 15 3 9 0 15 -9 15 -8 0
-15 -7 -15 -15z"/>
<path d="M8283 5163 c-20 -7 -15 -23 7 -23 11 0 20 4 20 9 0 13 -12 19 -27 14z"/>
<path d="M8348 5162 c-45 -5 -32 -20 15 -17 23 2 51 4 61 4 11 1 16 4 12 9 -8
7 -43 9 -88 4z"/>
<path d="M3447 5153 c-11 -10 -8 -45 3 -38 6 4 8 11 5 16 -4 5 1 9 9 9 9 0 16
5 16 10 0 11 -23 14 -33 3z"/>
<path d="M3734 5145 c-4 -9 -1 -22 6 -28 10 -9 12 -8 7 5 -3 9 -1 18 6 21 8 2
8 5 -1 11 -7 4 -15 1 -18 -9z"/>
<path d="M7435 5150 c-3 -5 -1 -10 4 -10 6 0 11 5 11 10 0 6 -2 10 -4 10 -3 0
-8 -4 -11 -10z"/>
<path d="M3642 5138 c-14 -14 -16 -28 -3 -28 9 0 24 30 18 36 -2 2 -9 -2 -15
-8z"/>
<path d="M3885 5137 c-4 -10 -5 -21 -1 -24 10 -10 18 4 13 24 -4 17 -4 17 -12
0z"/>
<path d="M3366 5122 c-2 -4 -1 -14 4 -21 10 -17 31 -5 23 14 -6 16 -19 20 -27
7z"/>
<path d="M3540 5115 c-12 -15 -6 -35 12 -35 5 0 8 6 5 14 -3 7 0 19 6 25 8 8
8 11 0 11 -6 0 -16 -7 -23 -15z"/>
<path d="M7820 5120 c0 -5 20 -10 44 -10 25 0 48 5 51 10 4 6 -13 10 -44 10
-28 0 -51 -4 -51 -10z"/>
<path d="M3967 5113 c-10 -9 -8 -33 2 -33 5 0 11 9 14 20 5 20 -3 26 -16 13z"/>
<path d="M4083 5105 c-9 -24 1 -27 15 -5 8 13 8 20 2 20 -6 0 -13 -7 -17 -15z"/>
<path d="M3824 5096 c-10 -8 -16 -18 -12 -21 4 -4 15 0 24 9 9 9 14 19 12 21
-2 3 -13 -2 -24 -9z"/>
<path d="M6390 5100 c13 -9 119 -15 109 -6 -2 2 -31 6 -64 10 -41 4 -55 3 -45
-4z"/>
<path d="M6514 5102 c5 -8 76 -4 76 4 0 2 -18 4 -41 4 -22 0 -38 -4 -35 -8z"/>
<path d="M3495 5087 c-4 -10 -5 -21 -1 -24 10 -10 18 4 13 24 -4 17 -4 17 -12
0z"/>
<path d="M3675 5087 c-4 -10 -5 -21 -1 -24 10 -10 18 4 13 24 -4 17 -4 17 -12
0z"/>
<path d="M3895 5050 c-3 -5 -3 -15 1 -21 6 -11 23 6 24 24 0 10 -18 9 -25 -3z"/>
<path d="M3577 5043 c-10 -9 -8 -33 2 -33 5 0 11 9 14 20 5 20 -3 26 -16 13z"/>
<path d="M3740 5035 c0 -8 -7 -15 -16 -15 -9 0 -14 -7 -12 -17 7 -35 -32 -56
-122 -65 -14 -2 -23 -7 -20 -13 3 -5 10 -9 16 -9 13 2 -1 -64 -17 -80 -16 -17
-10 -27 10 -17 10 6 21 24 25 42 5 25 9 30 23 24 17 -7 36 -11 73 -15 11 -1
12 -3 2 -7 -14 -6 -10 -10 61 -52 20 -12 37 -18 37 -12 0 5 -9 13 -21 16 -11
4 -18 9 -15 12 3 3 17 -2 30 -11 28 -17 40 -21 32 -8 -6 11 -162 92 -167 88
-2 -2 -13 5 -23 15 -19 19 -19 19 11 19 17 0 43 10 58 22 l28 22 21 -25 c27
-30 63 -59 52 -41 -13 21 10 13 34 -13 13 -14 28 -25 34 -25 6 1 -21 31 -61
68 -55 52 -70 71 -63 82 13 19 12 30 0 30 -5 0 -10 -7 -10 -15z m50 -95 c6
-11 9 -20 7 -20 -2 0 -12 9 -22 20 -10 11 -13 20 -7 20 6 0 16 -9 22 -20z
m-35 -108 c-3 -3 -11 0 -18 7 -9 10 -8 11 6 5 10 -3 15 -9 12 -12z"/>
<path d="M3960 5025 c0 -8 4 -15 9 -15 5 0 11 7 15 15 3 9 0 15 -9 15 -8 0
-15 -7 -15 -15z"/>
<path d="M4120 5016 c0 -14 5 -28 10 -31 6 -4 10 7 10 24 0 17 -4 31 -10 31
-5 0 -10 -11 -10 -24z"/>
<path d="M3840 5015 c-13 -16 -7 -45 10 -45 5 0 10 14 10 30 0 34 -3 36 -20
15z"/>
<path d="M3621 4996 c-8 -9 -11 -19 -7 -23 9 -9 29 13 24 27 -2 8 -8 7 -17 -4z"/>
<path d="M7268 4979 c-13 -22 -14 -29 -4 -29 8 0 16 12 19 28 7 36 5 36 -15 1z"/>
<path d="M4061 4981 c-6 -11 -7 -22 -2 -25 5 -3 11 4 14 16 8 30 1 35 -12 9z"/>
<path d="M4234 4976 c-3 -8 -2 -22 3 -30 7 -13 11 -10 20 14 9 25 9 30 -3 30
-8 0 -17 -6 -20 -14z"/>
<path d="M4170 4955 c0 -14 4 -25 9 -25 5 0 9 11 9 25 0 14 -4 25 -9 25 -5 0
-9 -11 -9 -25z"/>
<path d="M3950 4945 c0 -8 5 -15 10 -15 6 0 10 7 10 15 0 8 -4 15 -10 15 -5 0
-10 -7 -10 -15z"/>
<path d="M3520 4920 c0 -5 5 -10 10 -10 6 0 10 5 10 10 0 6 -4 10 -10 10 -5 0
-10 -4 -10 -10z"/>
<path d="M5230 4890 c0 -5 5 -10 11 -10 5 0 7 5 4 10 -3 6 -8 10 -11 10 -2 0
-4 -4 -4 -10z"/>
<path d="M3829 4873 c12 -24 31 -39 31 -25 0 5 -10 17 -21 28 -22 19 -22 19
-10 -3z"/>
<path d="M4240 4880 c0 -5 4 -10 9 -10 6 0 13 5 16 10 3 6 -1 10 -9 10 -9 0
-16 -4 -16 -10z"/>
<path d="M4980 4883 c0 -5 28 -7 62 -5 107 5 117 9 26 11 -49 0 -88 -2 -88 -6z"/>
<path d="M7212 4875 c-10 -12 -10 -15 2 -15 7 0 16 7 20 15 7 19 -5 19 -22 0z"/>
<path d="M7254 4874 c-4 -10 -9 -22 -11 -26 -2 -5 0 -8 5 -8 10 0 24 41 17 48
-3 3 -8 -4 -11 -14z"/>
<path d="M4018 4859 c-57 -30 -65 -95 -17 -132 26 -19 27 -19 71 1 72 31 91
114 33 140 -34 16 -43 15 -87 -9z m77 1 c3 -5 2 -10 -4 -10 -6 0 -18 -14 -27
-31 -12 -24 -13 -37 -5 -55 8 -19 7 -24 -11 -29 -57 -19 -71 81 -15 115 36 22
53 25 62 10z"/>
<path d="M4870 4870 l-25 -8 25 0 c14 0 36 4 50 8 l25 8 -25 0 c-14 0 -36 -4
-50 -8z"/>
<path d="M4190 4860 c0 -5 5 -10 10 -10 6 0 10 5 10 10 0 6 -4 10 -10 10 -5 0
-10 -4 -10 -10z"/>
<path d="M6756 4841 c-3 -5 15 -8 39 -7 25 0 45 4 45 9 0 10 -78 9 -84 -2z"/>
<path d="M6690 4830 c-18 -12 -2 -12 25 0 13 6 15 9 5 9 -8 0 -22 -4 -30 -9z"/>
<path d="M4235 4800 c3 -5 8 -10 11 -10 2 0 4 5 4 10 0 6 -5 10 -11 10 -5 0
-7 -4 -4 -10z"/>
<path d="M7230 4799 c0 -5 5 -7 10 -4 6 3 10 8 10 11 0 2 -4 4 -10 4 -5 0 -10
-5 -10 -11z"/>
<path d="M3520 4790 c0 -12 8 -12 35 0 18 8 17 9 -7 9 -16 1 -28 -3 -28 -9z"/>
<path d="M7928 4792 c-79 -5 -54 -22 32 -22 44 0 80 4 80 9 0 11 -50 17 -112
13z"/>
<path d="M2890 4786 c0 -2 7 -6 15 -10 8 -3 15 -1 15 4 0 6 -7 10 -15 10 -8 0
-15 -2 -15 -4z"/>
<path d="M3569 4783 c-13 -3 -16 -14 -14 -51 2 -26 7 -47 12 -47 14 0 15 55 1
73 -9 11 -10 14 0 8 6 -4 12 -2 12 3 0 6 10 11 23 10 18 0 19 -2 4 -7 -13 -6
-6 -10 27 -18 25 -5 43 -6 40 -2 -11 17 54 7 76 -12 13 -11 26 -18 29 -15 3 4
-1 11 -9 16 -11 8 -8 9 13 5 15 -4 27 -2 27 4 0 5 -12 10 -27 10 -16 0 -63 7
-106 15 -43 8 -82 14 -85 14 -4 -1 -14 -3 -23 -6z m98 -19 c-3 -3 -12 -4 -19
-1 -8 3 -5 6 6 6 11 1 17 -2 13 -5z"/>
<path d="M2941 4776 c2 -2 22 -6 44 -9 28 -5 34 -4 20 3 -19 8 -73 14 -64 6z"/>
<path d="M7225 4771 c-3 -5 -1 -12 5 -16 5 -3 10 1 10 9 0 18 -6 21 -15 7z"/>
<path d="M8464 4769 c-3 -5 -14 -9 -25 -9 -10 0 -19 -4 -19 -9 0 -5 26 -7 58
-4 56 5 58 4 130 -48 39 -29 72 -56 72 -60 0 -5 11 -19 24 -32 13 -14 36 -48
51 -77 91 -180 -15 -376 -204 -373 -130 2 -156 62 -64 147 15 14 24 29 19 33
-4 4 -18 -7 -32 -25 -14 -18 -29 -32 -34 -32 -4 0 -11 29 -15 65 -3 36 -11 65
-16 65 -6 0 -8 -8 -5 -17 2 -10 8 -46 11 -81 l7 -63 -36 22 c-21 12 -36 16
-36 10 0 -6 11 -17 25 -23 14 -6 25 -15 25 -20 0 -5 -34 -25 -77 -45 -66 -31
-83 -34 -125 -29 -83 11 -111 31 -143 99 -26 58 -27 61 -9 74 16 12 16 13 1
13 -51 0 18 218 85 270 11 8 41 32 66 53 76 62 118 80 169 72 27 -4 43 -3 39
3 -3 5 -26 12 -52 16 -34 4 -53 2 -75 -11 -16 -10 -29 -21 -29 -25 0 -4 -5 -8
-10 -8 -6 0 -16 -5 -23 -10 -7 -6 -30 -24 -52 -40 -92 -68 -128 -128 -148
-247 l-14 -78 -36 3 c-42 4 -107 -14 -107 -30 0 -7 5 -6 14 1 9 7 39 11 77 9
62 -3 63 -4 71 -35 22 -84 71 -130 163 -153 49 -12 52 -12 130 26 44 22 83 40
87 42 5 2 12 -8 18 -22 19 -50 129 -72 213 -42 89 32 160 124 172 226 9 73
-15 156 -61 213 -18 23 -45 59 -59 80 -14 20 -29 37 -34 37 -6 0 -32 14 -59
31 -54 33 -119 53 -128 38z"/>
<path d="M3030 4766 c0 -2 9 -6 20 -9 11 -3 20 -1 20 4 0 5 -9 9 -20 9 -11 0
-20 -2 -20 -4z"/>
<path d="M4195 4749 c-4 -11 -4 -23 0 -27 7 -7 25 17 25 36 0 20 -18 14 -25
-9z"/>
<path d="M2904 4738 c-3 -4 11 -8 30 -8 20 0 36 2 36 4 0 8 -61 12 -66 4z"/>
<path d="M7237 4733 c-10 -10 -8 -103 2 -103 4 0 9 25 9 55 0 57 0 59 -11 48z"/>
<path d="M3040 4704 c0 -8 -9 -14 -22 -13 -22 0 -22 1 -3 9 16 7 13 9 -15 9
-19 -1 -29 -3 -22 -6 6 -2 9 -10 5 -15 -4 -8 14 -9 60 -5 l66 6 11 -33 c22
-68 240 -256 296 -256 9 0 -17 22 -58 49 -84 57 -122 91 -184 163 -48 56 -56
88 -24 88 11 0 20 3 20 8 0 4 -29 8 -65 9 -51 1 -65 -1 -65 -13z m43 -1 c-7
-2 -19 -2 -25 0 -7 3 -2 5 12 5 14 0 19 -2 13 -5z"/>
<path d="M3748 4689 c-15 -6 -62 -16 -105 -23 -57 -10 -69 -14 -43 -16 l35 -2
-30 -8 c-30 -8 -30 -8 8 -9 25 -1 40 4 43 14 4 8 10 15 16 15 5 0 6 -4 3 -10
-3 -5 -1 -10 4 -10 6 0 11 5 11 11 0 6 7 8 16 5 10 -4 13 -2 8 6 -5 8 5 9 34
6 28 -4 42 -2 46 7 9 25 -4 29 -46 14z"/>
<path d="M2938 4683 c6 -2 18 -2 25 0 6 3 1 5 -13 5 -14 0 -19 -2 -12 -5z"/>
<path d="M2210 4670 l-25 -8 27 -1 c15 -1 30 4 33 9 7 11 0 11 -35 0z"/>
<path d="M1936 4660 c7 -7 24 -7 50 -1 l39 9 -49 1 c-34 1 -47 -2 -40 -9z"/>
<path d="M2098 4663 c7 -3 16 -2 19 1 4 3 -2 6 -13 5 -11 0 -14 -3 -6 -6z"/>
<path d="M3542 4639 c2 -8 16 -20 30 -27 14 -6 29 -23 32 -37 8 -30 26 -33 26
-5 0 12 -13 28 -32 40 -18 10 -39 24 -47 31 -11 10 -13 10 -9 -2z"/>
<path d="M3760 4621 c-55 -26 -120 -70 -120 -81 0 -15 16 -12 33 5 8 8 18 11
22 7 5 -4 5 -2 1 5 -7 14 25 35 46 30 7 -2 9 -2 4 1 -5 3 9 15 30 28 45 27 36
30 -16 5z"/>
<path d="M7156 4621 c-4 -5 -2 -11 3 -13 6 -1 11 -15 13 -30 6 -40 18 -46 18
-9 0 33 -24 69 -34 52z"/>
<path d="M7475 4620 c-28 -3 -48 -9 -45 -15 3 -5 10 -8 15 -6 6 1 36 5 68 8
31 3 57 9 57 13 0 8 -20 8 -95 0z"/>
<path d="M3890 4609 c0 -5 5 -7 10 -4 6 3 10 8 10 11 0 2 -4 4 -10 4 -5 0 -10
-5 -10 -11z"/>
<path d="M7110 4585 c-7 -9 -10 -18 -7 -22 8 -7 37 15 37 28 0 14 -16 11 -30
-6z"/>
<path d="M8373 4558 c8 -62 14 -90 26 -118 9 -21 10 -17 6 24 -3 27 -8 53 -12
59 -3 5 -6 25 -5 44 1 18 -3 33 -9 33 -7 0 -9 -16 -6 -42z"/>
<path d="M3827 4572 c-10 -10 -17 -22 -17 -26 0 -4 -12 -18 -27 -31 -16 -13
-25 -26 -21 -30 8 -9 78 57 78 74 0 6 5 11 10 11 6 0 10 5 10 10 0 16 -15 12
-33 -8z"/>
<path d="M6356 4578 c-56 -12 -54 -15 9 -14 30 1 55 4 55 7 0 13 -25 16 -64 7z"/>
<path d="M6488 4573 c7 -3 16 -2 19 1 4 3 -2 6 -13 5 -11 0 -14 -3 -6 -6z"/>
<path d="M7022 4536 c28 -27 38 -32 38 -18 0 15 -16 30 -40 37 l-25 7 27 -26z"/>
<path d="M7066 4553 c-11 -11 -6 -23 9 -23 8 0 15 4 15 9 0 13 -16 22 -24 14z"/>
<path d="M3845 4530 c-3 -5 -2 -10 4 -10 5 0 13 5 16 10 3 6 2 10 -4 10 -5 0
-13 -4 -16 -10z"/>
<path d="M7113 4505 c0 -22 2 -30 4 -17 2 12 2 30 0 40 -3 9 -5 -1 -4 -23z"/>
<path d="M3691 4497 c19 -13 36 -22 38 -20 9 7 -34 43 -52 43 -16 0 -13 -5 14
-23z"/>
<path d="M7010 4496 c0 -9 5 -16 10 -16 6 0 10 4 10 9 0 6 -4 13 -10 16 -5 3
-10 -1 -10 -9z"/>
<path d="M8470 4496 c0 -8 5 -18 10 -21 6 -3 10 3 10 14 0 12 -4 21 -10 21 -5
0 -10 -6 -10 -14z"/>
<path d="M6966 4471 c-11 -12 -14 -21 -7 -26 15 -9 46 24 34 36 -6 6 -16 3
-27 -10z"/>
<path d="M6885 4450 c3 -5 12 -7 20 -3 21 7 19 13 -6 13 -11 0 -18 -4 -14 -10z"/>
<path d="M5705 4430 c-34 -3 -54 -9 -45 -13 8 -3 24 -5 35 -3 11 3 40 5 65 5
33 1 41 4 30 11 -8 5 -17 9 -20 8 -3 -1 -32 -4 -65 -8z"/>
<path d="M6937 4433 c-4 -3 -7 -11 -7 -17 0 -6 5 -5 12 2 6 6 9 14 7 17 -3 3
-9 2 -12 -2z"/>
<path d="M5575 4420 c-28 -3 -35 -7 -23 -12 19 -8 88 1 88 12 0 8 -8 8 -65 0z"/>
<path d="M8600 4410 c-8 -5 -11 -12 -8 -15 4 -4 17 0 30 9 24 17 5 23 -22 6z"/>
<path d="M6900 4395 c0 -8 5 -15 10 -15 6 0 10 7 10 15 0 8 -4 15 -10 15 -5 0
-10 -7 -10 -15z"/>
<path d="M7305 4389 c22 -4 54 -8 70 -7 22 0 19 3 -15 9 -60 10 -108 9 -55 -2z"/>
<path d="M7418 4393 c7 -3 16 -2 19 1 4 3 -2 6 -13 5 -11 0 -14 -3 -6 -6z"/>
<path d="M3402 4358 c-13 -6 -22 -17 -20 -25 4 -19 238 -24 238 -6 0 8 14 13
35 13 19 0 35 5 35 10 0 6 -17 10 -37 10 -21 0 -81 2 -133 5 -63 3 -103 1
-118 -7z m190 -19 c8 -5 -21 -9 -70 -9 -55 0 -81 4 -77 10 8 12 127 11 147 -1z"/>
<path d="M6870 4349 c-15 -28 -7 -34 14 -10 11 12 13 21 7 25 -5 4 -15 -3 -21
-15z"/>
<path d="M8210 4362 c0 -12 19 -26 26 -19 2 2 -2 10 -11 17 -9 8 -15 8 -15 2z"/>
<path d="M8525 4359 c-11 -17 1 -21 15 -4 8 9 8 15 2 15 -6 0 -14 -5 -17 -11z"/>
<path d="M8255 4320 c9 -15 66 -43 73 -36 3 3 3 7 1 9 -58 34 -85 44 -74 27z"/>
<path d="M8678 4294 c-27 -14 -38 -34 -19 -34 13 0 57 37 51 43 -3 3 -17 -1
-32 -9z"/>
<path d="M3460 4285 c-64 -12 -64 -13 -20 -14 25 0 65 6 90 13 56 18 21 18
-70 1z"/>
<path d="M3560 4260 c-8 -5 -10 -10 -5 -10 6 0 17 5 25 10 8 5 11 10 5 10 -5
0 -17 -5 -25 -10z"/>
<path d="M6820 4254 c0 -8 5 -12 10 -9 6 3 10 10 10 16 0 5 -4 9 -10 9 -5 0
-10 -7 -10 -16z"/>
<path d="M8520 4266 c0 -11 72 -47 85 -42 24 9 17 24 -8 19 -14 -3 -29 2 -36
11 -12 14 -41 23 -41 12z"/>
<path d="M3488 4233 c7 -3 16 -2 19 1 4 3 -2 6 -13 5 -11 0 -14 -3 -6 -6z"/>
<path d="M7140 4150 l-55 -7 57 -1 c31 -1 60 3 63 8 3 6 3 9 -2 8 -4 -1 -33
-4 -63 -8z"/>
<path d="M8390 4134 c-6 -14 -10 -44 -10 -67 0 -23 -7 -89 -14 -147 -8 -58
-11 -109 -6 -113 10 -11 18 33 30 168 6 61 13 127 16 148 7 43 -2 49 -16 11z"/>
<path d="M4772 4098 c-9 -4 40 -7 111 -7 70 -1 127 3 127 7 0 10 -213 10 -238
0z"/>
<path d="M7965 4072 c-148 -4 -145 -22 3 -22 67 0 122 4 122 9 0 14 -19 16
-125 13z"/>
<path d="M2490 4009 c-18 -5 -9 -7 30 -8 30 -1 73 -4 95 -7 27 -5 37 -3 30 4
-12 12 -121 20 -155 11z"/>
<path d="M3626 3991 c-72 -4 -111 -10 -113 -18 -4 -12 78 -11 230 3 70 6 96
26 30 22 -21 -1 -87 -4 -147 -7z"/>
<path d="M8545 3943 c-3 -15 -21 -59 -39 -97 -65 -138 -86 -232 -84 -371 1
-112 15 -167 79 -307 39 -85 40 -90 35 -171 -7 -114 -10 -120 -55 -111 -39 8
-51 8 -93 3 -56 -7 -25 -14 59 -14 80 0 88 2 91 20 2 11 9 26 15 34 7 8 11 51
9 112 -2 92 0 103 26 157 98 195 115 408 45 576 -14 33 -29 84 -33 114 -13 78
-41 107 -55 55z m66 -188 c21 -58 34 -123 45 -213 6 -54 -12 -47 -21 8 -11 63
-36 45 -34 -23 1 -30 1 -30 8 -7 6 22 8 23 14 7 4 -10 9 -51 12 -90 5 -66 2
-79 -31 -157 -19 -47 -41 -97 -47 -112 -12 -29 -27 -38 -27 -15 1 6 7 29 14
49 8 21 10 36 6 33 -17 -11 -25 135 -14 268 6 72 23 98 25 39 0 -15 3 -21 6
-14 7 18 -6 82 -17 82 -12 0 -30 -66 -30 -109 0 -44 -13 -30 -30 32 -13 47
-24 58 -33 35 -9 -23 -7 38 3 93 5 30 14 63 19 74 6 11 26 56 47 100 l37 80
14 -50 c7 -27 23 -77 34 -110z m-118 -305 c10 -41 19 -102 22 -135 3 -33 8
-77 11 -97 3 -21 3 -38 0 -38 -10 0 -55 108 -54 127 2 33 -13 93 -23 93 -6 0
-7 5 -3 12 4 6 6 33 5 60 -2 50 6 76 19 61 4 -4 14 -42 23 -83z"/>
<path d="M8521 3714 c0 -11 3 -14 6 -6 3 7 2 16 -1 19 -3 4 -6 -2 -5 -13z"/>
<path d="M8566 3708 c-8 -33 -7 -78 2 -78 5 0 7 15 5 33 -3 22 -1 28 5 19 7
-11 10 -11 15 2 7 18 -1 46 -13 46 -4 0 -10 -10 -14 -22z"/>
<path d="M8507 3670 c-4 -14 -6 -36 -6 -50 1 -22 2 -20 10 8 6 19 9 41 7 50
-3 12 -6 10 -11 -8z"/>
<path d="M8563 3428 c-1 -44 2 -89 6 -100 4 -12 8 16 8 69 1 49 -2 94 -5 100
-4 6 -8 -25 -9 -69z"/>
<path d="M8490 3296 c0 -8 4 -17 9 -20 5 -4 7 3 4 14 -6 23 -13 26 -13 6z"/>
<path d="M6353 3803 c-26 -10 -12 -19 22 -15 19 2 35 8 35 13 0 9 -36 11 -57
2z"/>
<path d="M7205 3800 l-40 -7 40 -1 c22 0 49 3 60 8 l20 9 -20 -1 c-11 -1 -38
-4 -60 -8z"/>
<path d="M7098 3783 c6 -2 18 -2 25 0 6 3 1 5 -13 5 -14 0 -19 -2 -12 -5z"/>
<path d="M8325 3713 c-15 -43 -35 -101 -45 -130 -30 -83 -117 -232 -204 -347
-141 -185 -179 -257 -201 -380 -31 -181 -16 -332 55 -546 64 -194 82 -282 80
-385 -1 -49 -3 -99 -4 -110 -12 -88 -19 -195 -19 -275 1 -98 7 -120 58 -205
13 -22 34 -59 46 -82 19 -37 56 -81 154 -189 33 -36 36 -40 79 -99 17 -22 33
-42 37 -45 3 -3 14 -20 23 -38 9 -17 21 -32 27 -32 6 0 6 6 0 18 -23 43 -144
198 -207 265 -83 90 -182 259 -194 331 -8 54 -6 125 9 266 25 229 11 339 -74
595 -25 73 -49 169 -56 220 -15 114 -6 316 16 371 51 124 173 314 202 314 7 0
13 7 13 17 0 9 10 30 23 47 69 93 174 310 207 429 26 92 8 85 -25 -10z"/>
<path d="M4510 3632 c0 -4 20 -9 45 -10 25 -1 45 3 45 8 0 6 -20 10 -45 10
-25 0 -45 -4 -45 -8z"/>
<path d="M5520 3520 c-11 -7 6 -10 58 -10 39 0 72 4 72 9 0 12 -112 13 -130 1z"/>
<path d="M7540 3450 c30 -10 96 -12 87 -4 -3 4 -30 8 -59 9 -37 2 -46 1 -28
-5z"/>
<path d="M4342 3395 c-59 -14 -84 -29 -31 -19 90 17 103 20 94 26 -6 3 -34 0
-63 -7z"/>
<path d="M4453 3403 c9 -2 25 -2 35 0 9 3 1 5 -18 5 -19 0 -27 -2 -17 -5z"/>
<path d="M6685 3400 c-4 -6 12 -10 42 -9 36 0 43 3 28 9 -28 12 -63 12 -70 0z"/>
<path d="M6623 3393 c9 -2 23 -2 30 0 6 3 -1 5 -18 5 -16 0 -22 -2 -12 -5z"/>
<path d="M6538 3383 c6 -2 18 -2 25 0 6 3 1 5 -13 5 -14 0 -19 -2 -12 -5z"/>
<path d="M4858 3213 c6 -2 18 -2 25 0 6 3 1 5 -13 5 -14 0 -19 -2 -12 -5z"/>
<path d="M7008 3093 c12 -2 32 -2 45 0 12 2 2 4 -23 4 -25 0 -35 -2 -22 -4z"/>
<path d="M7158 3093 c7 -3 16 -2 19 1 4 3 -2 6 -13 5 -11 0 -14 -3 -6 -6z"/>
<path d="M5523 3023 c15 -2 37 -2 50 0 12 2 0 4 -28 4 -27 0 -38 -2 -22 -4z"/>
<path d="M2313 3013 c-46 -2 -83 -8 -83 -13 0 -11 148 -14 174 -4 15 6 13 26
-2 22 -4 -1 -44 -4 -89 -5z"/>
<path d="M5290 3010 c0 -5 5 -10 11 -10 5 0 7 5 4 10 -3 6 -8 10 -11 10 -2 0
-4 -4 -4 -10z"/>
<path d="M5373 3013 c9 -2 25 -2 35 0 9 3 1 5 -18 5 -19 0 -27 -2 -17 -5z"/>
<path d="M1960 2999 c0 -4 14 -9 32 -11 38 -6 221 3 214 10 -8 7 -246 8 -246
1z"/>
<path d="M4380 2950 c-24 -8 -24 -8 7 -9 17 -1 35 4 38 9 7 11 -9 11 -45 0z"/>
<path d="M4190 2940 c-13 -8 -12 -10 3 -10 9 0 17 5 17 10 0 12 -1 12 -20 0z"/>
<path d="M4048 2923 c6 -2 18 -2 25 0 6 3 1 5 -13 5 -14 0 -19 -2 -12 -5z"/>
<path d="M4098 2923 c6 -2 18 -2 25 0 6 3 1 5 -13 5 -14 0 -19 -2 -12 -5z"/>
<path d="M8248 2857 c-44 -36 -81 -129 -76 -189 6 -61 31 -96 89 -126 36 -19
55 -23 102 -19 33 3 57 1 57 -5 0 -5 4 -7 10 -3 5 3 7 11 4 18 -3 8 -28 13
-72 13 -114 2 -172 54 -172 154 0 34 8 57 33 94 34 53 42 59 97 74 l35 10 -40
1 c-28 1 -48 -6 -67 -22z"/>
<path d="M706 2862 c-9 -14 91 -118 126 -133 18 -7 45 -21 59 -32 19 -13 48
-20 103 -23 42 -2 88 -10 103 -17 16 -8 42 -17 58 -20 17 -3 59 -22 95 -42 35
-20 83 -38 106 -42 43 -6 119 -57 109 -73 -3 -5 -22 -14 -42 -21 -21 -6 -62
-28 -93 -47 -67 -43 -65 -41 -57 -48 3 -4 34 11 69 33 87 55 125 67 145 47 9
-8 14 -16 12 -18 -18 -12 -148 -84 -161 -89 -19 -7 -25 -27 -9 -27 14 0 81 40
121 72 42 34 61 35 86 6 10 -13 15 -20 10 -16 -4 4 -31 -9 -59 -28 -29 -19
-69 -45 -89 -59 -21 -14 -38 -30 -38 -35 0 -17 11 -12 64 29 28 22 70 49 94
61 36 19 47 21 71 10 20 -8 31 -21 35 -43 3 -17 3 -34 -1 -38 -13 -13 -167
-89 -180 -89 -7 0 -13 -4 -13 -10 0 -17 22 -11 115 35 l90 43 26 -27 c33 -36
56 -114 63 -215 3 -43 10 -84 15 -90 9 -11 14 -56 12 -106 -1 -15 -18 -45 -41
-70 -22 -25 -40 -48 -40 -51 0 -3 -11 -4 -25 -2 -22 5 -112 -8 -175 -23 -24
-6 -23 -5 9 29 19 20 31 40 27 44 -4 5 -13 1 -19 -7 -7 -8 -29 -30 -50 -47
-33 -29 -45 -33 -92 -33 -30 0 -55 -4 -55 -10 0 -5 10 -10 22 -10 20 0 19 -3
-12 -30 -19 -16 -60 -47 -90 -67 -67 -46 -95 -71 -89 -78 5 -4 106 70 194 143
53 43 71 41 20 -3 -55 -48 -34 -44 27 5 28 22 56 40 62 41 6 0 20 2 31 4 107
17 186 26 196 23 17 -6 -156 -184 -202 -208 -22 -11 -55 -20 -73 -20 -18 0
-53 -7 -76 -15 -56 -20 -67 -19 -47 3 29 32 20 48 -10 20 -29 -27 -110 -58
-150 -58 -13 0 -26 -7 -29 -15 -3 -8 -25 -24 -49 -35 -50 -24 -60 -35 -69 -72
-3 -16 -13 -28 -21 -28 -12 0 -12 5 -4 26 10 28 7 36 -14 41 -149 36 -157 37
-175 19 -16 -16 -16 -17 1 -10 14 5 133 -12 145 -21 1 -1 -3 -14 -9 -29 -11
-24 -17 -26 -75 -26 -35 0 -65 3 -67 8 -7 11 -121 9 -126 -3 -5 -13 90 -27
162 -23 61 3 67 -3 41 -40 -18 -26 -36 -29 -27 -4 6 16 5 16 -14 -1 -11 -9
-26 -17 -33 -17 -11 0 -11 -3 -2 -12 8 -8 8 -17 1 -30 -6 -11 -8 -24 -6 -31 2
-7 11 3 21 21 9 17 23 32 32 32 13 0 13 -3 -1 -29 -19 -38 -28 -43 -60 -35
-25 6 -25 7 -9 25 10 11 15 22 12 25 -6 5 -71 -55 -74 -68 -1 -5 -2 -12 -3
-17 0 -5 -9 -7 -20 -4 -13 3 -25 -5 -40 -26 -18 -24 -27 -30 -46 -25 -17 4
-32 -1 -51 -20 -16 -14 -25 -29 -20 -33 4 -4 13 0 20 10 16 21 66 23 66 2 0
-24 -37 -38 -72 -26 -17 6 -43 11 -59 11 -15 0 -29 6 -32 13 -3 8 -11 6 -28
-9 -47 -42 -65 -46 -101 -24 -39 24 -58 25 -58 5 0 -8 16 -22 36 -30 44 -18
144 -35 144 -24 0 4 -12 9 -27 11 -16 2 -26 8 -23 13 5 10 61 11 140 3 24 -3
51 -2 60 3 8 4 24 10 35 14 16 5 17 8 5 15 -13 8 -13 12 3 27 15 15 17 16 17
1 0 -14 5 -14 43 5 29 15 37 22 25 25 -31 6 -21 29 11 24 25 -3 29 0 34 27 4
18 13 31 22 31 21 0 19 -37 -2 -58 -27 -26 -90 -72 -101 -72 -13 0 -56 -49
-49 -56 3 -4 23 7 44 23 21 16 49 34 63 41 43 22 56 36 78 79 12 23 43 58 69
77 92 67 101 76 131 128 36 65 113 138 145 138 12 0 32 6 43 14 14 10 54 16
128 17 59 1 109 6 112 10 3 5 23 13 46 20 29 7 59 29 102 72 82 84 132 141
160 185 13 21 31 44 40 51 46 39 57 110 31 197 -8 27 -15 72 -15 100 0 65 -34
171 -64 204 -14 14 -29 43 -35 65 -14 51 -16 53 -78 99 -29 21 -53 43 -53 50
0 7 -14 31 -30 53 -31 42 -99 83 -142 86 -13 1 -53 18 -90 39 -37 21 -75 38
-83 38 -9 0 -36 9 -61 20 -26 13 -67 21 -99 21 -73 1 -184 56 -244 122 -44 47
-55 54 -65 39z m191 -1614 c-3 -7 -5 -2 -5 12 0 14 2 19 5 13 2 -7 2 -19 0
-25z m-31 -83 c-25 -42 -43 -61 -51 -53 -2 2 13 30 33 62 41 68 58 59 18 -9z
m48 21 c-3 -9 -10 -16 -15 -16 -6 0 -5 9 1 21 13 24 24 20 14 -5z m-224 -146
c-9 -17 -30 -28 -30 -16 0 16 15 36 26 36 12 0 12 -4 4 -20z m-70 -49 c0 -12
-20 -25 -27 -18 -7 7 6 27 18 27 5 0 9 -4 9 -9z"/>
<path d="M8601 2814 c32 -31 66 -74 76 -95 9 -22 21 -39 25 -39 5 0 -1 19 -13
43 -23 46 -116 147 -135 147 -7 0 14 -25 47 -56z"/>
<path d="M8457 2794 c-4 -4 -7 -19 -6 -33 l0 -26 10 24 c10 26 8 47 -4 35z"/>
<path d="M8506 2684 c-14 -43 -22 -74 -17 -68 13 14 55 134 49 140 -3 3 -18
-30 -32 -72z"/>
<path d="M8350 2740 c0 -5 5 -10 11 -10 5 0 7 5 4 10 -3 6 -8 10 -11 10 -2 0
-4 -4 -4 -10z"/>
<path d="M1875 2711 c-11 -4 -64 -14 -117 -21 -54 -8 -98 -18 -98 -23 0 -5 24
-6 58 -2 31 4 84 9 117 11 92 7 135 15 135 25 0 5 -8 9 -17 9 -10 0 -27 2 -38
5 -11 2 -29 1 -40 -4z"/>
<path d="M8380 2702 c6 -13 14 -21 18 -18 3 4 -2 14 -12 24 -18 16 -18 16 -6
-6z"/>
<path d="M8580 2670 c0 -6 -13 -24 -30 -42 -39 -41 -39 -50 1 -12 36 34 55 64
39 64 -5 0 -10 -5 -10 -10z"/>
<path d="M8413 2659 c3 -8 11 -33 18 -56 13 -47 23 -53 39 -23 6 12 7 20 1 20
-5 0 -12 -6 -15 -12 -3 -7 -4 -1 -2 15 2 18 -1 27 -10 27 -8 0 -14 6 -14 14 0
8 -5 18 -11 22 -7 4 -9 2 -6 -7z"/>
<path d="M8707 2580 c11 -106 -26 -179 -113 -220 -69 -34 -124 -13 -150 57 -9
23 -14 52 -11 63 9 36 -17 22 -46 -25 -38 -60 -84 -277 -73 -348 4 -26 11 -45
16 -42 5 3 4 22 -2 42 -7 26 -7 53 1 88 6 27 17 85 26 127 8 43 25 97 37 120
l22 43 6 -41 c7 -49 34 -94 61 -101 10 -3 19 -9 19 -14 0 -16 60 -10 98 10 99
51 144 143 121 249 -6 29 -12 52 -15 52 -2 0 -1 -27 3 -60z"/>
<path d="M5478 2623 c7 -3 16 -2 19 1 4 3 -2 6 -13 5 -11 0 -14 -3 -6 -6z"/>
<path d="M5538 2613 c7 -3 16 -2 19 1 4 3 -2 6 -13 5 -11 0 -14 -3 -6 -6z"/>
<path d="M4113 2553 c9 -2 25 -2 35 0 9 3 1 5 -18 5 -19 0 -27 -2 -17 -5z"/>
<path d="M8503 2545 c-13 -10 -5 -11 43 -7 80 6 100 19 30 19 -31 0 -63 -5
-73 -12z"/>
<path d="M3898 2543 c29 -2 74 -2 100 0 26 2 2 3 -53 3 -55 0 -76 -1 -47 -3z"/>
<path d="M7498 2543 c7 -3 16 -2 19 1 4 3 -2 6 -13 5 -11 0 -14 -3 -6 -6z"/>
<path d="M8450 2541 c0 -32 120 -162 150 -160 10 0 9 3 -5 8 -26 11 -99 90
-119 130 -16 31 -26 39 -26 22z"/>
<path d="M5098 2533 c7 -3 16 -2 19 1 4 3 -2 6 -13 5 -11 0 -14 -3 -6 -6z"/>
<path d="M2725 2522 c-11 -2 -24 -8 -30 -12 -5 -5 -48 -28 -95 -51 -108 -55
-159 -106 -237 -239 -43 -74 -77 -118 -114 -150 -194 -163 -217 -199 -259
-402 -21 -98 -49 -175 -50 -136 0 9 -5 20 -11 24 -8 5 -10 0 -6 -17 5 -19 -5
-42 -39 -94 -54 -83 -187 -216 -229 -230 -16 -6 -36 -22 -43 -38 -11 -22 -17
-25 -31 -17 -15 7 -25 4 -46 -16 -25 -23 -30 -24 -53 -13 -22 12 -26 11 -42
-9 -22 -27 -26 -27 -33 -2 -6 24 -29 26 -47 5 -22 -27 -43 -19 -37 14 12 59
-42 64 -57 6 -4 -14 -12 -25 -20 -25 -10 0 -12 11 -8 45 7 66 -23 55 -62 -22
-9 -18 -21 -33 -27 -33 -7 0 -9 12 -5 33 14 66 12 82 -9 82 -11 0 -28 -14 -40
-33 -55 -90 -61 -96 -95 -104 -19 -5 -42 -12 -50 -15 -8 -3 -18 -5 -22 -5 -5
1 -8 -2 -8 -8 0 -5 -7 -10 -15 -10 -8 0 -15 -4 -15 -10 0 -5 -5 -10 -10 -10
-14 0 -87 -78 -106 -112 -8 -16 -21 -28 -29 -28 -25 0 -45 -42 -37 -75 7 -23
15 -31 37 -33 16 -2 41 -14 56 -26 22 -19 40 -23 98 -24 39 0 80 -6 92 -13 12
-6 56 -17 98 -23 l76 -12 -82 -33 c-68 -27 -86 -39 -108 -74 -29 -42 -39 -107
-18 -114 7 -3 14 14 19 44 4 26 13 57 22 68 l14 20 -7 -20 c-23 -58 -17 -135
10 -135 11 0 14 7 10 27 l-6 28 16 -29 c12 -21 20 -25 28 -17 8 8 8 14 -1 23
-16 16 -15 90 1 109 19 24 87 60 122 64 17 3 52 14 79 25 38 17 47 26 44 43
-2 12 5 30 16 41 18 18 19 18 37 0 18 -19 17 -21 -41 -95 -33 -42 -67 -79 -75
-83 -9 -3 -13 -10 -10 -16 3 -5 0 -7 -9 -4 -10 4 -23 -10 -41 -46 -31 -62 -31
-114 0 -116 11 -1 28 -4 37 -8 29 -13 42 4 18 21 -20 14 -22 22 -17 65 4 27
16 62 28 79 28 40 36 30 10 -12 -28 -46 -27 -93 1 -113 25 -18 68 -21 68 -6 0
6 -6 10 -14 10 -8 0 -23 8 -34 17 -34 30 -19 72 64 168 41 48 74 92 74 100 0
7 7 18 15 25 23 19 18 58 -15 107 -16 24 -30 48 -30 54 0 5 -7 9 -15 9 -24 0
-18 -21 20 -74 40 -57 42 -69 15 -113 -24 -40 -100 -119 -100 -105 0 12 48 73
67 85 7 4 13 19 13 32 0 29 -109 130 -125 114 -7 -7 3 -21 29 -43 22 -18 35
-35 30 -38 -75 -46 -91 -51 -164 -51 -51 0 -96 8 -140 22 -38 13 -89 22 -121
22 -38 0 -61 4 -69 14 -10 11 -7 15 12 19 12 2 37 4 53 3 21 -1 30 3 30 13 0
16 -33 17 -126 5 -34 -5 -48 -3 -58 9 -17 20 -8 44 21 55 27 10 58 44 78 85
19 37 93 83 145 91 52 8 77 30 109 93 27 52 55 73 41 30 -4 -13 -8 -36 -9 -53
-1 -24 4 -31 22 -33 18 -3 26 5 42 42 22 52 44 63 30 15 -14 -46 -5 -60 28
-43 14 7 32 23 39 36 12 23 12 22 13 -9 0 -39 31 -54 59 -29 20 18 31 12 31
-16 0 -24 13 -23 48 7 26 22 31 23 42 10 17 -21 29 -19 52 10 23 29 38 32 38
8 1 -13 14 -4 43 30 24 26 51 47 61 47 10 0 42 25 71 55 31 32 61 55 73 55 13
0 19 5 17 13 -3 6 6 24 20 39 14 15 25 31 25 35 0 4 9 19 20 33 16 22 20 23
25 8 9 -22 -4 -45 -15 -28 -4 7 -10 8 -13 4 -3 -5 1 -15 9 -22 11 -10 16 -8
30 13 12 18 13 29 6 38 -8 10 -6 21 8 44 15 25 23 30 47 26 21 -3 24 -2 13 6
-8 5 -18 7 -22 5 -4 -3 -8 4 -8 15 0 23 15 28 23 9 4 -10 8 -9 16 2 8 11 7 16
-3 18 -8 2 -17 10 -20 19 -5 13 -4 13 8 4 16 -13 25 3 27 47 1 17 3 21 6 10 2
-10 9 -18 15 -18 6 0 4 -8 -5 -18 -18 -20 -22 -32 -9 -32 4 0 15 14 24 31 10
16 13 27 8 24 -5 -3 -12 15 -15 40 -7 44 -25 63 -25 26 0 -11 -4 -23 -10 -26
-13 -8 -13 11 0 34 5 10 11 33 13 52 5 39 23 87 40 108 10 12 13 4 17 -39 3
-34 10 -55 19 -58 9 -3 12 0 8 11 -4 10 2 17 16 21 18 4 19 8 9 18 -10 10 -15
10 -22 -2 -12 -20 -18 -12 -21 30 -4 52 7 70 67 120 31 25 64 53 75 63 27 24
31 22 24 -17 -7 -34 7 -57 21 -34 4 6 3 13 -2 15 -12 4 -6 63 8 81 14 17 29
15 22 -3 -4 -8 -1 -15 5 -15 6 0 11 9 11 20 0 49 83 198 153 275 36 40 168
108 192 99 10 -4 13 -2 10 7 -5 14 32 45 42 35 10 -10 -19 -65 -67 -127 -27
-35 -47 -66 -44 -70 6 -11 -7 -40 -16 -34 -4 3 -13 -2 -20 -10 -11 -13 -10
-14 4 -9 28 11 18 -13 -43 -106 -53 -80 -172 -207 -206 -220 -8 -3 -44 -34
-82 -70 -37 -36 -68 -63 -68 -60 -1 3 -19 -10 -40 -28 -31 -25 -41 -29 -43
-17 -3 15 -22 11 -22 -5 0 -20 35 -19 57 1 31 30 29 13 -6 -39 -40 -58 -160
-432 -139 -432 2 0 26 20 52 45 27 25 54 45 60 45 6 0 29 21 51 47 22 26 50
58 63 71 12 13 39 46 61 75 21 29 59 75 85 102 63 66 100 114 93 121 -2 3 -15
-10 -28 -28 -26 -37 -99 -114 -99 -104 0 3 25 47 56 97 31 50 53 93 50 96 -3
3 -11 -6 -17 -21 -7 -14 -15 -26 -19 -26 -3 0 -19 -22 -35 -50 -17 -27 -33
-50 -37 -50 -5 0 -8 -8 -8 -19 0 -27 -38 -78 -121 -163 -68 -70 -141 -128
-159 -128 -9 0 13 80 34 121 8 16 20 53 26 83 19 94 86 190 194 281 186 156
219 189 271 274 5 9 19 32 31 51 12 19 32 63 44 96 12 34 40 83 62 110 34 41
68 100 68 118 0 8 -25 12 -45 8z m-705 -876 c0 -8 -4 -18 -10 -21 -5 -3 -10 3
-10 14 0 12 5 21 10 21 6 0 10 -6 10 -14z m147 -212 c-29 -34 -138 -117 -144
-110 -12 11 8 36 39 50 18 8 51 30 73 50 47 42 64 47 32 10z m-923 -744 c-17
-11 -46 -22 -65 -25 -31 -6 -30 -4 16 19 60 30 93 34 49 6z m-130 -55 c-10 -8
-24 -15 -30 -15 -13 0 -49 -39 -57 -60 -4 -11 -6 -9 -6 5 -1 24 65 84 93 85
20 0 20 0 0 -15z m91 -154 c-7 -28 -10 -52 -7 -55 3 -3 0 -6 -6 -6 -16 0 -15
33 2 75 21 50 26 43 11 -14z"/>
<path d="M4887 2518 c-7 -4 7 -8 31 -8 23 0 42 3 42 8 0 9 -58 9 -73 0z"/>
<path d="M5008 2523 c12 -2 30 -2 40 0 9 3 -1 5 -23 4 -22 0 -30 -2 -17 -4z"/>
<path d="M4838 2513 c6 -2 18 -2 25 0 6 3 1 5 -13 5 -14 0 -19 -2 -12 -5z"/>
<path d="M2633 2415 c-21 -24 -14 -40 7 -17 11 12 20 24 20 27 0 10 -15 4 -27
-10z"/>
<path d="M1896 2385 c-3 -8 -9 -14 -13 -13 -4 2 -10 -1 -13 -7 -3 -6 27 -10
82 -10 90 0 110 13 24 16 -29 2 -50 7 -53 16 -7 17 -19 17 -27 -2z"/>
<path d="M2527 2360 c-3 -11 -1 -20 4 -20 5 0 9 9 9 20 0 11 -2 20 -4 20 -2 0
-6 -9 -9 -20z"/>
<path d="M2590 2360 c0 -5 5 -10 11 -10 5 0 7 5 4 10 -3 6 -8 10 -11 10 -2 0
-4 -4 -4 -10z"/>
<path d="M2546 2300 c-28 -42 -31 -50 -18 -50 10 0 56 80 49 86 -2 2 -16 -14
-31 -36z"/>
<path d="M2515 2320 c-3 -5 -1 -10 4 -10 6 0 11 5 11 10 0 6 -2 10 -4 10 -3 0
-8 -4 -11 -10z"/>
<path d="M2456 2294 c-9 -25 -7 -69 3 -58 14 14 24 74 13 74 -5 0 -13 -7 -16
-16z"/>
<path d="M8497 2270 c-15 -60 -26 -158 -22 -195 3 -22 7 -72 10 -112 3 -40 12
-91 20 -114 8 -23 15 -56 15 -73 0 -17 6 -53 13 -81 8 -27 13 -61 11 -75 -2
-14 -5 -72 -7 -130 -5 -96 -12 -150 -50 -365 -6 -38 -9 -97 -6 -130 5 -57 13
-33 9 28 -1 15 3 49 9 75 11 52 46 245 56 307 12 87 8 269 -8 323 -9 30 -16
57 -15 60 2 12 -14 86 -23 104 -14 26 -20 278 -8 318 6 20 9 47 7 60 l-4 25
-7 -25z"/>
<path d="M2510 2229 c0 -5 5 -7 10 -4 6 3 10 8 10 11 0 2 -4 4 -10 4 -5 0 -10
-5 -10 -11z"/>
<path d="M2396 2209 c-2 -8 -9 -29 -15 -48 -6 -19 -9 -36 -6 -39 2 -3 7 4 11
14 3 10 11 32 16 47 6 15 8 30 5 34 -4 3 -8 0 -11 -8z"/>
<path d="M2481 2191 c-23 -15 24 -35 49 -21 27 15 25 23 -5 18 -13 -3 -26 -1
-27 3 -2 5 -9 4 -17 0z"/>
<path d="M6084 2169 c-3 -5 28 -9 72 -9 43 0 75 3 71 6 -10 10 -137 13 -143 3z"/>
<path d="M3931 2160 c10 -6 34 -6 60 -1 l44 9 -60 1 c-42 0 -55 -2 -44 -9z"/>
<path d="M6253 2163 c9 -2 23 -2 30 0 6 3 -1 5 -18 5 -16 0 -22 -2 -12 -5z"/>
<path d="M2440 2139 c0 -11 5 -17 10 -14 6 3 10 13 10 21 0 8 -4 14 -10 14 -5
0 -10 -9 -10 -21z"/>
<path d="M6603 2130 c-102 -7 -98 -16 7 -16 50 1 90 4 90 7 0 12 -24 14 -97 9z"/>
<path d="M2400 2111 c0 -5 7 -14 15 -21 12 -10 19 -10 27 -2 7 7 21 12 32 12
15 0 17 3 8 12 -8 8 -15 8 -27 -2 -12 -10 -19 -10 -27 -2 -14 14 -28 16 -28 3z"/>
<path d="M1470 2093 c0 -12 79 -23 163 -23 33 0 57 4 57 11 0 6 -25 10 -62 9
-35 -1 -84 2 -110 6 -30 4 -48 3 -48 -3z"/>
<path d="M2366 2071 c-4 -5 -2 -12 3 -15 5 -4 12 -2 15 3 4 5 2 12 -3 15 -5 4
-12 2 -15 -3z"/>
<path d="M7395 2043 c-34 -8 -38 -20 -5 -15 16 2 30 8 30 13 0 5 -1 8 -2 8 -2
-1 -12 -3 -23 -6z"/>
<path d="M4895 2030 c-3 -5 -1 -10 4 -10 6 0 11 5 11 10 0 6 -2 10 -4 10 -3 0
-8 -4 -11 -10z"/>
<path d="M7453 2033 c9 -2 23 -2 30 0 6 3 -1 5 -18 5 -16 0 -22 -2 -12 -5z"/>
<path d="M2370 2021 c0 -5 -10 -12 -22 -14 -22 -4 -22 -4 -2 -6 12 0 27 6 34
14 9 10 9 15 1 15 -6 0 -11 -4 -11 -9z"/>
<path d="M4765 2020 c-3 -5 1 -10 9 -10 9 0 16 5 16 10 0 6 -4 10 -9 10 -6 0
-13 -4 -16 -10z"/>
<path d="M4843 2023 c9 -2 23 -2 30 0 6 3 -1 5 -18 5 -16 0 -22 -2 -12 -5z"/>
<path d="M2300 2010 c0 -5 5 -10 10 -10 6 0 10 5 10 10 0 6 -4 10 -10 10 -5 0
-10 -4 -10 -10z"/>
<path d="M8316 1998 c-3 -13 -7 -43 -11 -68 -6 -48 -28 -126 -50 -175 -46
-105 -56 -208 -29 -303 18 -63 121 -282 133 -282 8 0 25 -38 51 -110 11 -32
27 -103 48 -215 9 -49 4 -97 -9 -90 -5 4 -9 16 -9 29 0 12 -7 31 -16 42 -15
19 -16 19 -9 -1 14 -40 24 -89 19 -97 -9 -13 -24 -9 -24 7 0 17 -26 20 -35 4
-8 -12 -112 -59 -132 -59 -27 0 -92 -40 -98 -61 -8 -26 -109 -124 -147 -145
-15 -8 -47 -16 -70 -19 -56 -5 -122 -43 -175 -99 -24 -25 -62 -55 -85 -67 -55
-27 -128 -103 -122 -127 7 -23 84 -27 84 -5 0 12 7 14 33 9 17 -4 42 -7 55 -6
13 0 20 -5 17 -10 -4 -7 42 -9 132 -6 76 2 138 8 138 13 0 9 -98 10 -158 1
-26 -4 -42 -1 -53 9 -10 11 -27 13 -59 10 -27 -4 -47 -2 -51 5 -4 6 -24 8 -50
4 -47 -6 -66 7 -34 24 11 6 19 16 17 22 -1 6 27 26 63 44 42 22 77 49 100 78
44 56 102 90 137 81 39 -9 121 36 185 102 30 32 59 65 64 73 12 20 59 50 77
50 8 0 36 9 62 21 25 11 72 23 103 25 32 3 62 7 69 9 7 2 15 0 19 -6 4 -6 11
-6 20 2 8 6 17 9 21 5 3 -3 14 1 23 9 11 10 39 16 76 17 32 0 67 5 77 10 10 5
28 10 40 12 44 5 108 27 125 44 10 9 28 23 42 30 14 7 39 21 55 31 17 10 41
22 54 26 22 7 23 5 17 -21 -4 -16 -18 -43 -32 -61 -13 -18 -20 -34 -14 -38 5
-3 16 5 24 17 20 31 46 105 39 112 -3 3 7 10 23 16 16 6 42 18 58 26 37 18 40
18 32 -2 -6 -15 -4 -15 16 -2 39 26 33 37 -14 27 -48 -11 -168 -57 -182 -70
-6 -5 -18 -9 -27 -9 -10 0 -19 -4 -21 -9 -2 -7 -59 -47 -102 -73 -6 -3 -31
-11 -56 -18 -25 -6 -60 -16 -78 -21 -18 -6 -60 -12 -92 -14 -48 -3 -60 -1 -60
11 0 23 -31 30 -45 10 -11 -14 -12 -8 -8 31 5 59 42 183 60 201 7 7 13 19 13
26 0 7 11 27 24 45 13 18 27 47 30 66 5 23 11 32 20 29 10 -4 17 26 31 123 19
139 32 488 17 479 -5 -3 -12 -101 -15 -218 -8 -255 -23 -317 -117 -500 -33
-64 -60 -126 -60 -137 0 -12 -4 -21 -10 -21 -5 0 -10 -20 -10 -45 0 -48 -19
-64 -21 -17 0 15 -2 36 -5 47 -2 11 -5 39 -8 63 -6 66 -64 224 -87 238 -5 3
-16 20 -24 37 -8 18 -19 39 -24 47 -21 32 -44 89 -71 170 -25 76 -27 93 -20
155 7 65 16 98 39 150 20 43 41 113 51 170 6 33 13 70 16 83 2 12 0 22 -6 22
-5 0 -12 -10 -14 -22z m174 -1252 c0 -3 -4 -8 -10 -11 -5 -3 -10 -1 -10 4 0 6
5 11 10 11 6 0 10 -2 10 -4z m-710 -586 c0 -5 -7 -10 -15 -10 -8 0 -15 5 -15
10 0 6 7 10 15 10 8 0 15 -4 15 -10z"/>
<path d="M4648 2003 c6 -2 18 -2 25 0 6 3 1 5 -13 5 -14 0 -19 -2 -12 -5z"/>
<path d="M2207 1977 c-4 -10 -7 -26 -7 -35 1 -15 2 -15 11 1 6 10 9 25 7 35
-3 16 -4 15 -11 -1z"/>
<path d="M1674 1971 c-5 -5 -46 -28 -91 -51 -46 -23 -83 -46 -83 -51 0 -15 9
-11 127 58 48 28 76 28 49 0 -10 -9 -13 -17 -7 -17 6 0 11 -16 11 -35 0 -19 5
-35 10 -35 12 0 14 127 2 134 -5 3 -13 1 -18 -3z"/>
<path d="M1430 1935 c-38 -20 -57 -34 -45 -34 19 -1 125 54 125 64 0 10 -16 4
-80 -30z"/>
<path d="M2147 1909 c-3 -23 -3 -48 0 -55 11 -29 18 -12 18 41 0 65 -10 72
-18 14z"/>
<path d="M2225 1940 c-3 -5 1 -10 9 -10 9 0 16 5 16 10 0 6 -4 10 -9 10 -6 0
-13 -4 -16 -10z"/>
<path d="M2284 1940 c-12 -5 -25 -14 -29 -20 -10 -16 35 -3 55 16 16 16 6 17
-26 4z"/>
<path d="M1220 1926 c0 -9 7 -12 20 -9 11 3 20 9 20 14 0 5 -9 9 -20 9 -11 0
-20 -6 -20 -14z"/>
<path d="M2190 1900 c0 -5 7 -10 16 -10 8 0 12 5 9 10 -3 6 -10 10 -16 10 -5
0 -9 -4 -9 -10z"/>
<path d="M2200 1850 c-14 -11 -20 -20 -14 -20 7 0 22 9 35 20 31 25 12 26 -21
0z"/>
<path d="M1044 1835 c-18 -14 -18 -14 6 -15 35 0 57 15 35 24 -21 8 -18 8 -41
-9z"/>
<path d="M5335 1840 c-3 -4 1 -10 8 -13 17 -7 243 -9 236 -3 -3 3 -45 6 -93 7
-48 0 -101 5 -117 9 -16 5 -31 5 -34 0z"/>
<path d="M1657 1797 c-5 -36 0 -50 14 -42 12 8 12 62 0 69 -5 3 -11 -9 -14
-27z"/>
<path d="M2056 1792 c-10 -17 -14 -62 -5 -62 5 0 9 3 10 8 0 4 2 19 4 35 4 27
1 34 -9 19z"/>
<path d="M2562 1730 c-82 -79 -95 -101 -24 -42 60 51 107 100 101 107 -3 2
-37 -27 -77 -65z"/>
<path d="M2461 1710 c-17 -28 -31 -54 -31 -58 0 -4 -9 -18 -20 -32 -11 -14
-20 -29 -20 -35 0 -18 40 39 74 108 19 37 33 67 31 67 -2 0 -17 -23 -34 -50z"/>
<path d="M790 1721 c0 -5 6 -13 13 -19 15 -12 130 -52 152 -52 28 0 15 16 -22
27 -21 6 -62 20 -90 32 -29 11 -53 17 -53 12z"/>
<path d="M6945 1720 c-3 -5 -1 -10 4 -10 6 0 11 5 11 10 0 6 -2 10 -4 10 -3 0
-8 -4 -11 -10z"/>
<path d="M6853 1713 c9 -2 25 -2 35 0 9 3 1 5 -18 5 -19 0 -27 -2 -17 -5z"/>
<path d="M2070 1700 c0 -5 5 -10 10 -10 6 0 10 5 10 10 0 6 -4 10 -10 10 -5 0
-10 -4 -10 -10z"/>
<path d="M1203 1608 c-32 -29 -89 -78 -127 -108 -37 -30 -63 -56 -57 -58 10
-3 44 23 160 123 25 22 59 50 74 61 15 12 27 25 27 28 0 15 -22 2 -77 -46z"/>
<path d="M1125 1630 c-11 -4 -56 -43 -100 -86 -50 -49 -88 -78 -100 -78 -22 2
-122 19 -172 30 -39 8 -46 -12 -10 -25 33 -13 215 -34 233 -27 7 3 11 11 8 19
-5 13 57 77 141 145 39 32 39 39 0 22z"/>
<path d="M2430 1595 c-18 -19 -37 -32 -41 -29 -4 2 -11 -1 -15 -7 -4 -8 -3 -9
4 -5 16 10 14 -5 -3 -28 -21 -28 -42 -7 -25 24 14 26 8 36 -10 15 -7 -9 -13
-29 -14 -44 -1 -16 -3 -28 -5 -25 -2 2 -16 -13 -31 -34 -16 -20 -40 -50 -54
-66 -14 -16 -26 -32 -26 -36 0 -13 -114 -86 -160 -103 -53 -20 -64 -21 -55 -7
3 6 2 10 -4 10 -9 0 -31 -31 -31 -43 0 -7 40 3 77 19 17 8 36 14 42 14 6 0 29
11 49 24 36 22 54 40 126 120 44 49 29 17 -23 -48 -62 -76 -134 -146 -152
-146 -8 0 -23 -7 -33 -15 -10 -8 -23 -12 -27 -9 -5 3 -9 1 -9 -4 0 -11 -51
-37 -80 -41 -12 -1 -13 -31 -1 -31 4 0 19 8 32 19 13 10 44 29 69 42 44 22 50
25 69 28 16 2 144 140 183 198 41 61 86 117 152 190 47 52 44 67 -4 18z"/>
<path d="M904 1595 c-10 -8 -27 -15 -36 -15 -10 0 -18 -4 -18 -9 0 -5 -13 -14
-29 -21 -32 -13 -46 -35 -30 -46 6 -3 25 7 42 23 18 16 49 38 70 49 21 10 41
22 43 27 9 13 -21 8 -42 -8z"/>
<path d="M5963 1603 c9 -2 23 -2 30 0 6 3 -1 5 -18 5 -16 0 -22 -2 -12 -5z"/>
<path d="M947 1554 c-27 -26 -46 -48 -43 -51 5 -5 116 85 116 93 0 15 -33 -4
-73 -42z"/>
<path d="M1490 1590 c-8 -5 -52 -19 -98 -31 -68 -19 -85 -21 -91 -10 -7 11
-15 8 -40 -10 -17 -12 -31 -26 -31 -30 0 -14 25 -16 41 -3 8 8 35 16 60 19 58
7 166 44 180 61 13 16 2 17 -21 4z"/>
<path d="M5918 1593 c7 -3 16 -2 19 1 4 3 -2 6 -13 5 -11 0 -14 -3 -6 -6z"/>
<path d="M3143 1578 c-2 -5 7 -8 21 -8 14 0 27 3 29 8 3 4 -6 7 -20 7 -14 0
-27 -3 -30 -7z"/>
<path d="M7468 1563 c17 -2 47 -2 65 0 17 2 3 4 -33 4 -36 0 -50 -2 -32 -4z"/>
<path d="M7598 1563 c12 -2 30 -2 40 0 9 3 -1 5 -23 4 -22 0 -30 -2 -17 -4z"/>
<path d="M4725 1489 c-40 -5 -32 -6 43 -7 50 -1 92 1 92 6 0 8 -66 9 -135 1z"/>
<path d="M4595 1480 c-3 -6 1 -7 9 -4 18 7 21 14 7 14 -6 0 -13 -4 -16 -10z"/>
<path d="M4538 1473 c7 -3 16 -2 19 1 4 3 -2 6 -13 5 -11 0 -14 -3 -6 -6z"/>
<path d="M1940 1380 c0 -5 5 -10 10 -10 6 0 10 5 10 10 0 6 -4 10 -10 10 -5 0
-10 -4 -10 -10z"/>
<path d="M1876 1354 c-4 -9 -4 -19 -2 -21 8 -8 26 8 26 23 0 19 -16 18 -24 -2z"/>
<path d="M1900 1310 c0 -5 7 -10 16 -10 8 0 12 -4 9 -10 -3 -5 -1 -10 4 -10
18 0 12 19 -9 30 -14 7 -20 7 -20 0z"/>
<path d="M1875 1280 c-3 -5 1 -10 10 -10 9 0 13 5 10 10 -3 6 -8 10 -10 10 -2
0 -7 -4 -10 -10z"/>
<path d="M2648 1273 c7 -3 16 -2 19 1 4 3 -2 6 -13 5 -11 0 -14 -3 -6 -6z"/>
<path d="M1810 1260 c0 -5 5 -10 10 -10 6 0 10 5 10 10 0 6 -4 10 -10 10 -5 0
-10 -4 -10 -10z"/>
<path d="M1890 1210 c0 -5 7 -10 16 -10 8 0 12 5 9 10 -3 6 -10 10 -16 10 -5
0 -9 -4 -9 -10z"/>
<path d="M1755 1200 c-8 -13 15 -13 35 0 12 8 11 10 -7 10 -12 0 -25 -4 -28
-10z"/>
<path d="M1706 1181 c-4 -7 -5 -15 -2 -18 9 -9 19 4 14 18 -4 11 -6 11 -12 0z"/>
<path d="M1780 1160 c0 -5 5 -10 10 -10 6 0 10 5 10 10 0 6 -4 10 -10 10 -5 0
-10 -4 -10 -10z"/>
<path d="M1705 1135 c-16 -7 -23 -14 -14 -14 8 -1 24 6 35 14 24 18 18 18 -21
0z"/>
<path d="M5581 1126 c10 -8 89 -13 83 -5 -3 5 -24 9 -46 9 -23 0 -39 -2 -37
-4z"/>
<path d="M5508 1113 c6 -2 18 -2 25 0 6 3 1 5 -13 5 -14 0 -19 -2 -12 -5z"/>
<path d="M1545 1100 c-3 -5 1 -10 10 -10 9 0 13 5 10 10 -3 6 -8 10 -10 10 -2
0 -7 -4 -10 -10z"/>
<path d="M1600 1100 c0 -5 7 -10 15 -10 8 0 15 5 15 10 0 6 -7 10 -15 10 -8 0
-15 -4 -15 -10z"/>
<path d="M1880 1078 c-40 -110 -99 -199 -164 -250 -59 -46 -182 -101 -208 -94
-10 2 -16 0 -12 -5 3 -5 -5 -9 -18 -9 -13 0 -30 -4 -38 -10 -12 -8 -12 -10 2
-15 39 -15 222 61 292 122 85 73 176 210 176 264 0 39 -15 37 -30 -3z"/>
<path d="M9327 1085 c-30 -29 -34 -37 -12 -29 8 4 15 10 15 15 0 4 7 6 15 3
18 -7 47 14 39 27 -9 15 -28 10 -57 -16z"/>
<path d="M1650 1089 c0 -5 5 -7 10 -4 6 3 10 8 10 11 0 2 -4 4 -10 4 -5 0 -10
-5 -10 -11z"/>
<path d="M1200 1070 c0 -5 7 -10 16 -10 8 0 12 5 9 10 -3 6 -10 10 -16 10 -5
0 -9 -4 -9 -10z"/>
<path d="M1260 1070 c0 -5 5 -10 10 -10 6 0 10 5 10 10 0 6 -4 10 -10 10 -5 0
-10 -4 -10 -10z"/>
<path d="M1150 1061 c0 -5 -3 -16 -6 -25 -3 -9 -1 -16 5 -16 6 0 11 7 11 15 0
8 5 15 11 15 5 0 7 5 4 10 -8 13 -25 13 -25 1z"/>
<path d="M1125 1050 c3 -5 8 -10 11 -10 2 0 4 5 4 10 0 6 -5 10 -11 10 -5 0
-7 -4 -4 -10z"/>
<path d="M1445 1050 c-3 -5 -1 -10 4 -10 6 0 11 5 11 10 0 6 -2 10 -4 10 -3 0
-8 -4 -11 -10z"/>
<path d="M1575 1050 c3 -5 8 -10 11 -10 2 0 4 5 4 10 0 6 -5 10 -11 10 -5 0
-7 -4 -4 -10z"/>
<path d="M6883 1053 c9 -2 23 -2 30 0 6 3 -1 5 -18 5 -16 0 -22 -2 -12 -5z"/>
<path d="M6930 1056 c0 -2 11 -6 25 -8 13 -3 22 -1 19 3 -5 9 -44 13 -44 5z"/>
<path d="M7025 1050 c3 -5 8 -10 11 -10 2 0 4 5 4 10 0 6 -5 10 -11 10 -5 0
-7 -4 -4 -10z"/>
<path d="M1500 1040 c0 -5 7 -10 15 -10 8 0 15 5 15 10 0 6 -7 10 -15 10 -8 0
-15 -4 -15 -10z"/>
<path d="M1635 1040 c-3 -5 -1 -10 4 -10 6 0 11 5 11 10 0 6 -2 10 -4 10 -3 0
-8 -4 -11 -10z"/>
<path d="M2535 1040 c3 -5 8 -10 11 -10 2 0 4 5 4 10 0 6 -5 10 -11 10 -5 0
-7 -4 -4 -10z"/>
<path d="M6770 1040 c0 -5 7 -10 16 -10 8 0 12 5 9 10 -3 6 -10 10 -16 10 -5
0 -9 -4 -9 -10z"/>
<path d="M6823 1043 c9 -2 23 -2 30 0 6 3 -1 5 -18 5 -16 0 -22 -2 -12 -5z"/>
<path d="M985 1020 c3 -5 8 -10 11 -10 2 0 4 5 4 10 0 6 -5 10 -11 10 -5 0 -7
-4 -4 -10z"/>
<path d="M1100 1016 c0 -9 5 -16 10 -16 6 0 10 4 10 9 0 6 -4 13 -10 16 -5 3
-10 -1 -10 -9z"/>
<path d="M2146 1018 c-32 -4 -62 -10 -65 -14 -6 -6 130 5 137 11 10 9 -20 10
-72 3z"/>
<path d="M1310 1000 c0 -5 5 -10 10 -10 6 0 10 5 10 10 0 6 -4 10 -10 10 -5 0
-10 -4 -10 -10z"/>
<path d="M1440 1000 c0 -5 5 -10 10 -10 6 0 10 5 10 10 0 6 -4 10 -10 10 -5 0
-10 -4 -10 -10z"/>
<path d="M950 990 c0 -5 5 -10 11 -10 5 0 7 5 4 10 -3 6 -8 10 -11 10 -2 0 -4
-4 -4 -10z"/>
<path d="M1046 991 c-4 -5 -2 -12 3 -15 5 -4 12 -2 15 3 4 5 2 12 -3 15 -5 4
-12 2 -15 -3z"/>
<path d="M1160 990 c0 -5 5 -10 10 -10 6 0 10 5 10 10 0 6 -4 10 -10 10 -5 0
-10 -4 -10 -10z"/>
<path d="M1396 991 c-4 -7 -5 -15 -2 -18 9 -9 19 4 14 18 -4 11 -6 11 -12 0z"/>
<path d="M9240 984 c0 -8 5 -12 10 -9 6 4 8 11 5 16 -9 14 -15 11 -15 -7z"/>
<path d="M1240 975 c0 -3 8 -14 18 -25 15 -17 19 -17 37 -3 16 12 16 14 3 10
-10 -3 -24 0 -32 8 -15 15 -26 19 -26 10z"/>
<path d="M1540 969 c0 -5 5 -7 10 -4 6 3 10 8 10 11 0 2 -4 4 -10 4 -5 0 -10
-5 -10 -11z"/>
<path d="M932 963 c-13 -3 -28 -16 -35 -30 -10 -22 -8 -28 11 -44 19 -15 28
-16 48 -7 29 13 41 52 24 73 -7 8 -15 14 -19 14 -3 -1 -16 -4 -29 -6z"/>
<path d="M1130 970 c-7 -24 -7 -60 0 -60 13 0 18 23 9 45 -4 11 -8 18 -9 15z"/>
<path d="M1183 935 c-8 -22 6 -33 17 -15 13 20 12 30 0 30 -6 0 -13 -7 -17
-15z"/>
<path d="M8480 919 c0 -5 5 -7 10 -4 6 3 10 8 10 11 0 2 -4 4 -10 4 -5 0 -10
-5 -10 -11z"/>
<path d="M800 870 c0 -5 5 -10 10 -10 6 0 10 5 10 10 0 6 -4 10 -10 10 -5 0
-10 -4 -10 -10z"/>
<path d="M1080 869 c0 -5 5 -7 10 -4 6 3 10 8 10 11 0 2 -4 4 -10 4 -5 0 -10
-5 -10 -11z"/>
<path d="M391 856 c10 -9 79 -14 79 -5 0 5 -19 9 -42 9 -23 0 -39 -2 -37 -4z"/>
<path d="M506 843 c-18 -9 -51 -15 -86 -14 -54 1 -112 -17 -125 -40 -8 -13 1
-11 33 5 21 11 39 12 80 5 47 -9 56 -8 97 17 25 14 48 30 51 35 8 14 -18 10
-50 -8z"/>
<path d="M970 852 c0 -5 7 -13 16 -16 10 -4 14 -1 12 6 -5 15 -28 23 -28 10z"/>
<path d="M2110 798 c-52 -5 -99 -13 -104 -18 -8 -8 147 -4 199 5 11 2 29 4 39
4 11 1 17 3 14 6 -11 11 -54 12 -148 3z"/>
<path d="M163 792 c-48 -4 -56 -18 -18 -32 30 -11 117 8 112 25 -4 10 -24 12
-94 7z"/>
<path d="M1892 779 c-15 -5 -14 -7 5 -13 12 -4 30 -3 40 2 10 5 24 7 31 5 6
-3 12 0 12 6 0 11 -56 11 -88 0z"/>
<path d="M8894 774 c-18 -14 -18 -15 4 -4 12 6 22 13 22 15 0 8 -5 6 -26 -11z"/>
<path d="M1785 760 c-4 -7 3 -8 22 -4 38 9 42 14 10 14 -14 0 -29 -5 -32 -10z"/>
<path d="M9160 725 c7 -9 15 -13 17 -11 7 7 -7 26 -19 26 -6 0 -6 -6 2 -15z"/>
<path d="M8630 693 c0 -10 7 -27 15 -37 8 -11 15 -28 15 -38 0 -10 5 -18 10
-18 13 0 5 47 -11 66 -6 7 -9 21 -5 29 3 9 0 15 -9 15 -8 0 -15 -8 -15 -17z"/>
<path d="M8445 690 c-3 -5 -1 -10 4 -10 6 0 11 5 11 10 0 6 -2 10 -4 10 -3 0
-8 -4 -11 -10z"/>
<path d="M2845 680 l-30 -8 27 -1 c15 0 30 4 33 9 3 6 5 9 3 9 -2 -1 -16 -5
-33 -9z"/>
<path d="M8400 670 c0 -11 39 -20 45 -10 3 4 -6 10 -20 12 -14 3 -25 2 -25 -2z"/>
<path d="M2610 658 c0 -4 13 -8 29 -8 17 0 32 4 35 8 3 5 -10 9 -29 9 -19 0
-35 -4 -35 -9z"/>
<path d="M2704 663 c7 -7 98 -5 105 3 2 2 -22 4 -54 4 -32 0 -55 -3 -51 -7z"/>
<path d="M8295 505 l-115 -115 -50 0 c-28 0 -50 3 -50 6 0 9 171 174 181 174
5 0 9 5 9 11 0 16 -46 -21 -139 -110 -58 -57 -91 -81 -108 -81 -14 0 -23 4
-21 8 3 8 102 93 162 140 16 12 25 22 21 22 -13 0 -155 -111 -155 -120 0 -9
-80 -50 -107 -55 -10 -2 -22 -4 -28 -5 -5 -1 4 -6 20 -10 26 -7 27 -9 10 -14
-20 -7 -50 -56 -34 -56 5 0 9 5 9 10 0 12 50 13 69 1 10 -7 5 -13 -20 -25 -33
-15 -54 -16 -131 -1 -21 4 -46 4 -55 0 -13 -6 4 -12 52 -20 39 -7 58 -13 43
-14 -15 0 -30 -5 -33 -11 -9 -14 20 -12 58 3 18 8 70 14 117 15 47 1 111 4
143 8 57 6 59 6 48 -14 -26 -49 5 -68 76 -47 27 8 67 15 89 14 54 -1 74 3 68
13 -3 4 -52 6 -110 4 -57 -2 -104 0 -104 4 0 20 13 40 27 40 8 0 12 4 8 10 -9
15 44 45 57 32 8 -8 4 -13 -16 -18 -14 -3 -26 -10 -26 -14 0 -14 30 -18 102
-16 51 2 68 -1 73 -12 6 -16 20 -15 167 17 57 12 114 31 138 46 22 14 44 25
49 25 5 0 12 4 15 9 4 5 -4 7 -16 3 -17 -4 -13 4 20 37 30 31 48 42 62 38 11
-3 27 1 35 9 8 9 37 19 65 23 54 9 78 21 41 21 -46 0 -13 25 40 31 31 3 64 11
75 18 17 11 17 12 -6 7 -14 -3 -44 -6 -67 -6 -32 0 -50 -7 -75 -29 -19 -16
-51 -32 -73 -36 -70 -12 -107 -26 -101 -40 7 -19 -77 -92 -113 -97 -17 -3 -31
-2 -31 1 0 3 36 41 80 84 44 42 74 77 66 77 -18 0 -100 -68 -102 -85 -4 -29
-94 -101 -108 -87 -4 3 -23 5 -42 3 -19 -1 -34 2 -34 8 0 6 11 11 25 11 14 0
25 4 25 8 0 5 13 7 29 4 16 -2 31 0 34 5 5 9 0 10 -55 15 -41 4 -47 19 -8 19
28 0 110 5 129 8 3 1 -3 7 -13 14 -17 12 -17 14 -2 20 9 4 16 11 16 16 0 12
-59 3 -74 -10 -5 -5 -14 -1 -21 8 -10 13 -15 14 -36 2 -13 -8 -32 -20 -41 -28
-12 -10 -25 -11 -45 -4 -15 5 -48 8 -73 6 l-45 -3 31 15 c17 7 44 17 60 21 27
7 28 6 14 -10 -13 -17 -12 -17 25 -2 21 9 45 14 53 11 8 -3 12 0 9 7 -2 7 -13
12 -23 10 -10 -2 -39 -5 -64 -6 -25 -2 -63 -11 -85 -20 -39 -17 -105 -15 -105
3 0 5 34 40 75 79 41 39 70 74 65 77 -5 3 -61 -46 -125 -110z m300 -65 c4 -6
-6 -10 -22 -9 -25 0 -26 1 -8 9 11 5 21 9 22 9 1 1 5 -3 8 -9z m-316 -13 c8
-11 3 -16 -24 -24 -39 -12 -48 0 -17 23 22 17 27 17 41 1z m142 -38 c-14 -6
-32 -9 -40 -8 -9 2 -35 -1 -58 -5 -43 -8 -68 -2 -58 15 4 5 45 8 93 8 65 -1
81 -4 63 -10z m-401 -14 c0 -15 -38 -45 -57 -45 -29 0 -29 14 -1 34 21 15 58
22 58 11z m106 -3 c12 -6 6 -13 -21 -28 -36 -19 -37 -19 -51 0 -8 12 -10 22
-5 26 16 9 62 11 77 2z m344 -5 c0 -5 8 -6 18 -2 32 13 62 15 62 5 0 -10 -11
-12 -87 -15 -30 -1 -39 2 -33 10 12 14 40 15 40 2z m-200 -5 c0 -15 -52 -34
-60 -22 -4 6 -14 3 -28 -10 -11 -11 -25 -20 -30 -20 -5 0 -17 -9 -27 -20 -13
-14 -25 -18 -39 -14 -12 4 -40 7 -63 8 -24 0 -43 1 -43 3 0 13 71 33 118 33
51 0 60 3 58 18 -1 13 8 17 42 18 24 1 46 5 49 8 9 9 23 7 23 -2z m130 -2
c-20 -13 -60 -13 -60 0 0 6 17 10 38 10 27 0 33 -3 22 -10z m245 -56 c-16 -7
-39 -13 -50 -14 -11 0 -41 -7 -68 -15 -51 -15 -74 -12 -74 10 0 10 5 11 18 4
23 -12 57 0 37 13 -8 6 -2 7 20 3 18 -4 32 -2 32 3 0 5 26 9 58 9 56 1 56 0
27 -13z"/>
<path d="M1960 580 c0 -5 7 -10 15 -10 8 0 15 5 15 10 0 6 -7 10 -15 10 -8 0
-15 -4 -15 -10z"/>
<path d="M9162 570 c-7 -11 -8 -20 -3 -20 9 0 24 30 18 36 -1 2 -8 -6 -15 -16z"/>
<path d="M1810 570 c-18 -6 -7 -8 43 -9 38 -1 67 3 67 9 0 12 -74 12 -110 0z"/>
<path d="M2008 573 c7 -3 16 -2 19 1 4 3 -2 6 -13 5 -11 0 -14 -3 -6 -6z"/>
<path d="M2073 573 c15 -2 37 -2 50 0 12 2 0 4 -28 4 -27 0 -38 -2 -22 -4z"/>
<path d="M482 530 c-19 -4 -39 -13 -45 -20 -10 -10 0 -11 43 -5 50 8 132 13
218 14 17 1 32 6 32 11 0 12 -198 12 -248 0z"/>
<path d="M9240 493 c0 -15 47 -70 53 -63 3 3 -8 21 -24 40 -16 19 -29 29 -29
23z"/>
<path d="M9320 410 c19 -13 30 -13 30 0 0 6 -10 10 -22 10 -19 0 -20 -2 -8
-10z"/>
<path d="M9376 395 c4 -10 10 -12 18 -7 6 5 18 12 26 15 8 3 1 6 -17 6 -25 1
-31 -2 -27 -14z"/>
<path d="M9460 395 c9 -10 9 -15 1 -15 -6 0 -11 -5 -11 -11 0 -8 5 -8 15 1 20
16 19 40 -1 40 -14 0 -14 -3 -4 -15z"/>
<path d="M8868 389 c-6 -4 2 -9 18 -11 27 -3 25 -5 -26 -26 -47 -19 -50 -22
-19 -17 19 3 60 0 90 -7 60 -13 228 -17 236 -5 5 9 5 9 -87 11 -111 4 -187 16
-167 28 27 14 21 38 -9 36 -14 -1 -30 -6 -36 -9z"/>
<path d="M9523 371 c4 -18 7 -40 7 -48 0 -11 7 -13 25 -9 14 4 25 2 25 -4 0
-5 9 -10 19 -10 14 0 18 7 17 23 0 15 -7 24 -16 23 -10 -1 -14 7 -12 24 l2 25
-16 -22 c-18 -25 -39 -31 -31 -9 3 8 -1 20 -10 28 -15 12 -16 9 -10 -21z"/>
<path d="M9677 388 c-2 -7 0 -25 4 -40 4 -15 5 -36 2 -48 -6 -23 12 -27 25 -5
7 13 10 11 20 -10 9 -19 17 -25 29 -21 9 4 20 1 24 -6 7 -10 11 -10 21 0 11
11 10 16 -3 25 -11 8 -14 18 -8 32 13 34 10 65 -7 65 -8 0 -13 -4 -10 -9 3 -5
-1 -22 -9 -37 l-15 -29 -1 25 c-3 44 -4 48 -11 56 -4 4 -12 -6 -18 -22 -10
-26 -13 -27 -21 -11 -6 9 -8 21 -4 26 3 5 1 12 -4 15 -5 4 -11 0 -14 -6z"/>
<path d="M9390 336 c0 -9 7 -16 16 -16 9 0 14 5 12 12 -6 18 -28 21 -28 4z"/>
<path d="M9340 321 c-12 -23 -13 -41 -2 -41 4 0 13 14 19 30 12 33 0 41 -17
11z"/>
<path d="M9467 323 c-11 -10 -8 -43 3 -43 6 0 10 11 10 25 0 26 -2 29 -13 18z"/>
<path d="M9060 288 c0 -5 16 -8 36 -8 31 0 35 -3 29 -20 -3 -11 -2 -20 3 -20
14 0 46 39 38 48 -10 9 -106 9 -106 0z"/>
<path d="M9410 281 c0 -20 27 -48 37 -37 8 7 -17 56 -29 56 -4 0 -8 -8 -8 -19z"/>
<path d="M9635 290 c-4 -6 -3 -16 3 -22 6 -6 12 -6 17 2 4 6 3 16 -3 22 -6 6
-12 6 -17 -2z"/>
<path d="M8900 277 c-25 -5 -58 -10 -75 -11 -73 -4 -156 -19 -145 -26 9 -5 6
-10 -9 -15 -11 -3 -21 -11 -21 -16 0 -5 -13 -9 -30 -9 -20 0 -30 5 -30 15 0
24 -17 17 -24 -10 -6 -23 -10 -24 -99 -27 -50 -2 -117 0 -146 4 -32 4 -61 3
-70 -3 -13 -8 -11 -9 6 -4 12 3 24 1 27 -4 10 -15 -44 -21 -105 -13 -55 8
-103 2 -83 -11 15 -9 149 -11 234 -3 41 4 84 7 95 7 51 0 282 -20 298 -26 10
-4 17 -3 17 4 0 6 17 11 39 11 22 0 42 4 45 9 3 5 -16 7 -42 5 -56 -5 -87 -6
-167 -4 -50 1 -56 3 -36 11 14 5 59 9 100 9 42 -1 111 0 154 2 42 2 77 0 77
-3 0 -3 6 -6 13 -6 6 0 24 -4 40 -8 17 -5 27 -3 27 4 0 6 -13 11 -30 11 -16 0
-30 4 -30 10 0 5 -44 11 -97 12 l-98 3 54 28 c59 29 76 33 66 16 -4 -6 12 -1
35 11 62 32 61 16 -2 -19 -29 -17 -47 -31 -40 -31 8 0 26 9 41 19 15 11 52 31
82 45 36 16 47 25 32 25 -12 1 -25 -4 -28 -9 -4 -7 -11 -7 -18 -2 -7 5 -31 5
-57 -1z m-100 -27 c0 -12 -78 -50 -104 -50 -30 0 -8 18 50 39 27 11 50 20 52
20 1 1 2 -3 2 -9z m-205 -70 c-3 -5 -10 -10 -16 -10 -5 0 -9 5 -9 10 0 6 7 10
16 10 8 0 12 -4 9 -10z m52 4 c-3 -3 -12 -4 -19 -1 -8 3 -5 6 6 6 11 1 17 -2
13 -5z m71 -1 c-10 -2 -28 -2 -40 0 -13 2 -5 4 17 4 22 1 32 -1 23 -4z"/>
<path d="M9210 275 c-7 -9 -11 -18 -8 -20 3 -3 11 1 18 10 7 9 11 18 8 20 -3
3 -11 -1 -18 -10z"/>
<path d="M8620 240 c0 -5 6 -10 14 -10 8 0 18 5 21 10 3 6 -3 10 -14 10 -12 0
-21 -4 -21 -10z"/>
<path d="M8935 228 c-27 -18 -28 -19 -5 -13 36 10 54 21 44 27 -5 3 -22 -3
-39 -14z"/>
<path d="M8510 230 c-23 -8 -23 -8 7 -7 17 1 29 5 27 9 -3 4 -6 8 -7 7 -1 -1
-13 -5 -27 -9z"/>
<path d="M8810 220 c-8 -5 -12 -11 -10 -14 3 -2 14 2 24 10 22 15 10 19 -14 4z"/>
<path d="M7925 211 c-14 -7 16 -10 94 -10 63 -1 112 1 109 4 -10 10 -183 15
-203 6z"/>
<path d="M8148 213 c7 -3 16 -2 19 1 4 3 -2 6 -13 5 -11 0 -14 -3 -6 -6z"/>
<path d="M9032 203 c-26 -10 0 -20 43 -15 58 6 58 -4 0 -19 -25 -6 -48 -15
-50 -20 -3 -4 9 -4 27 1 20 6 36 6 44 -1 9 -7 19 -7 35 2 13 6 57 11 100 11
43 -1 80 2 83 6 2 4 -6 8 -17 9 -92 8 -127 13 -157 22 -36 11 -86 13 -108 4z"/>
<path d="M7823 192 c-27 -4 -31 -22 -5 -21 9 0 33 7 52 14 l35 14 -30 -2 c-16
-1 -40 -3 -52 -5z"/>
<path d="M8858 153 c6 -2 18 -2 25 0 6 3 1 5 -13 5 -14 0 -19 -2 -12 -5z"/>
<path d="M8925 132 c6 -5 46 -13 90 -16 52 -4 75 -3 65 3 -21 13 -168 25 -155
13z"/>
</g>
</svg>
