<?xml version="1.0" standalone="no"?>
<!DOCTYPE svg PUBLIC "-//W3C//DTD SVG 20010904//EN"
 "http://www.w3.org/TR/2001/REC-SVG-20010904/DTD/svg10.dtd">
<svg version="1.0" xmlns="http://www.w3.org/2000/svg"
 width="1000.000000pt" height="626.000000pt" viewBox="0 0 1000.000000 626.000000"
 preserveAspectRatio="xMidYMid meet">
<metadata>
Created by potrace 1.16, written by Peter Selinger 2001-2019
</metadata>
<g transform="translate(0.000000,626.000000) scale(0.100000,-0.100000)"
fill="#000000" stroke="none">
<path d="M2680 6170 c-115 -6 -136 -12 -145 -41 -9 -26 6 -42 52 -57 21 -8 47
-17 58 -22 11 -5 94 -32 185 -60 194 -61 215 -68 257 -86 17 -8 35 -14 40 -14
21 0 149 -64 231 -115 102 -64 216 -131 277 -162 246 -125 297 -159 358 -242
73 -96 103 -131 118 -131 5 0 -8 24 -28 53 -21 28 -41 57 -45 62 -57 82 -165
161 -338 249 -41 21 -79 42 -85 46 -5 4 -32 20 -60 35 -27 16 -52 31 -55 35
-3 4 -21 15 -40 25 -19 10 -49 28 -65 41 -17 13 -80 46 -140 75 -153 71 -164
76 -215 90 -73 19 -436 141 -451 150 -29 18 11 29 122 35 70 4 146 1 194 -6
70 -11 237 -56 290 -79 72 -31 176 -72 212 -84 52 -18 216 -112 300 -172 68
-49 167 -144 210 -203 15 -20 53 -68 84 -107 31 -38 65 -86 75 -105 21 -40 66
-102 102 -141 28 -32 13 -49 -22 -25 -22 14 -24 14 -29 -4 -3 -11 -13 -20 -24
-20 -10 0 -78 53 -151 118 -72 65 -144 125 -160 132 -15 8 -34 20 -42 26 -25
20 -189 104 -273 140 -79 34 -181 90 -272 149 -79 52 -193 112 -305 163 -43
19 -121 41 -270 76 -36 9 -100 19 -142 22 -72 6 -76 6 -88 -16 -10 -19 -9 -26
11 -45 24 -23 353 -196 399 -210 30 -9 300 -143 465 -232 87 -46 169 -82 284
-125 176 -65 254 -101 288 -133 15 -14 49 -40 76 -57 26 -17 47 -35 47 -39 0
-4 -21 -19 -47 -34 -47 -26 -52 -26 -168 -21 -66 3 -151 9 -190 15 -77 10
-245 52 -297 75 -18 8 -71 29 -118 46 -47 17 -99 38 -117 45 -18 8 -81 26
-140 40 -59 14 -124 29 -143 34 -63 17 -233 33 -340 33 -113 0 -221 -19 -300
-53 -27 -11 -54 -18 -59 -14 -6 3 -11 22 -11 42 0 26 5 36 20 40 14 4 18 11
14 27 -3 15 4 30 26 51 51 49 35 66 -58 61 -60 -4 -138 -44 -188 -98 -70 -76
-118 -226 -81 -257 19 -15 27 -4 27 36 0 43 64 175 103 214 16 17 46 38 66 49
41 20 111 36 111 25 0 -4 -13 -24 -29 -44 -43 -55 -56 -103 -37 -139 21 -41
39 -45 105 -22 141 47 297 59 483 35 134 -16 171 -23 263 -50 28 -7 70 -19 95
-26 48 -13 174 -55 330 -111 277 -100 541 -118 687 -47 39 19 50 20 84 10 21
-6 43 -21 49 -31 6 -11 17 -20 25 -20 28 0 -6 49 -41 59 -41 11 -194 110 -281
181 -7 6 -15 10 -19 10 -3 0 -36 14 -72 32 -37 17 -80 35 -97 39 -86 22 -174
62 -540 246 -88 44 -185 91 -215 104 -145 63 -440 225 -440 242 0 5 34 5 77 1
67 -6 155 -27 333 -79 75 -22 207 -88 372 -188 87 -52 193 -110 235 -128 247
-108 371 -186 547 -347 59 -54 175 -122 207 -122 20 0 7 20 -16 26 -33 8 -27
27 11 34 96 20 273 -18 404 -86 51 -26 142 -110 195 -179 22 -29 48 -122 39
-137 -3 -5 -18 1 -34 12 -35 25 -40 25 -40 2 0 -10 11 -25 25 -32 45 -24 19
-72 -94 -173 -57 -51 -108 -76 -129 -63 -13 8 -52 -23 -52 -41 0 -9 7 -25 16
-34 16 -17 15 -19 -12 -30 -19 -7 -70 -9 -144 -6 -100 4 -121 8 -160 31 -25
14 -59 26 -75 26 -17 0 -44 4 -62 9 -39 11 -167 -19 -171 -41 -2 -9 18 -25 52
-41 30 -15 58 -27 62 -27 17 0 251 -124 294 -155 51 -37 76 -81 65 -114 -9
-31 -73 -90 -124 -115 -25 -13 -102 -33 -171 -46 -69 -12 -156 -29 -195 -36
-105 -20 -308 -28 -405 -15 -259 32 -233 27 -429 91 -120 40 -253 130 -249
170 4 39 34 36 86 -8 63 -53 209 -128 263 -136 105 -14 214 -23 219 -17 3 4
113 7 245 7 212 0 251 2 337 22 106 24 175 48 196 67 19 17 -1 55 -29 55 -16
0 -19 -4 -14 -20 4 -12 2 -20 -5 -20 -6 0 -8 5 -5 10 3 6 1 10 -5 10 -6 0 -8
10 -4 24 5 20 -1 27 -48 51 -29 15 -60 33 -68 39 -22 18 -160 96 -170 96 -9 0
-99 42 -140 65 -88 50 -165 75 -158 53 5 -13 16 -20 88 -52 19 -8 51 -24 70
-34 19 -11 103 -53 185 -93 83 -41 150 -79 150 -84 0 -28 -159 -60 -346 -70
-119 -7 -330 35 -466 92 -65 28 -183 107 -183 123 0 14 -78 42 -98 36 -39 -13
-38 -34 10 -129 13 -25 7 -28 -31 -17 -44 12 -108 -12 -113 -43 -12 -68 82
-145 268 -221 94 -38 207 -64 342 -80 68 -8 126 -17 130 -21 3 -3 -14 -24 -39
-45 -26 -22 -64 -62 -85 -90 -21 -27 -41 -50 -45 -50 -3 0 -9 23 -13 50 -4 28
-9 50 -12 50 -14 0 -62 -34 -73 -52 -18 -29 7 -55 37 -39 29 15 32 14 32 -12
0 -23 -41 -93 -78 -132 -10 -11 -27 -34 -37 -50 -32 -51 -76 -105 -86 -105 -5
0 -9 18 -9 39 0 22 -4 43 -10 46 -5 3 -10 18 -10 33 0 37 -14 56 -35 48 -12
-4 -23 0 -32 14 -19 27 -37 25 -51 -4 -8 -18 -16 -23 -31 -19 -42 11 -39 -71
3 -87 13 -5 28 -22 34 -39 8 -23 20 -33 51 -42 23 -7 44 -10 47 -6 11 11 -7
27 -32 27 -17 0 -27 8 -34 25 -5 14 -26 35 -45 46 -41 24 -46 49 -11 49 13 0
27 7 30 16 3 8 14 14 23 12 13 -2 18 -14 20 -45 0 -23 6 -50 12 -60 9 -15 11
-9 9 27 -4 57 15 69 23 15 3 -22 10 -49 16 -60 11 -21 -11 -109 -38 -154 -11
-16 -11 -23 -1 -33 18 -18 41 8 44 51 2 23 16 48 45 80 24 25 55 65 70 89 34
52 56 59 149 43 68 -11 74 -11 129 14 32 14 63 25 69 25 14 0 40 85 31 100 -4
6 -13 9 -21 6 -7 -3 -16 -1 -19 4 -7 12 -77 -22 -118 -56 -19 -16 -41 -24 -68
-24 -28 0 -42 -6 -51 -20 -14 -21 -38 -27 -38 -9 0 6 44 62 97 126 111 132
197 207 228 198 32 -10 245 -5 274 7 14 5 51 14 81 18 30 5 96 16 145 24 50 9
107 16 127 16 31 0 36 -3 31 -17 -15 -42 -25 -45 -49 -16 -16 19 -23 23 -24
12 0 -24 43 -59 73 -59 28 0 32 10 28 57 -1 20 3 22 46 22 26 0 65 -2 86 -5
l39 -6 -28 -29 c-22 -24 -24 -29 -10 -29 9 0 28 12 41 26 23 25 25 26 25 6 0
-19 42 -62 60 -62 4 0 23 11 42 23 l34 24 13 -29 c14 -30 45 -53 61 -43 15 10
12 21 -16 54 -14 17 -22 31 -18 31 4 0 -1 7 -12 15 -18 14 -18 14 10 15 21 0
27 -4 22 -15 -6 -17 11 -20 34 -5 17 11 6 26 -25 32 -16 4 -13 7 16 20 60 26
67 63 9 41 -18 -7 -32 -7 -36 -2 -3 5 -1 9 4 9 12 0 62 50 62 63 0 9 -17 7
-54 -8 -16 -7 -17 -6 -7 13 15 29 14 32 -13 32 -16 0 -31 -11 -45 -32 -21 -33
-21 -33 -21 -7 0 54 -35 41 -46 -17 -7 -39 -11 -40 -42 -18 -31 21 -39 11 -24
-29 14 -39 15 -50 4 -43 -5 3 -49 2 -99 -2 -49 -4 -101 -5 -114 -1 -23 5 -22
7 16 26 58 31 123 94 130 128 3 17 10 38 16 47 19 37 10 65 -38 107 -25 23
-62 49 -82 57 -48 21 -198 70 -239 79 -22 5 -36 15 -42 31 -10 26 -20 30 -37
13 -13 -13 -47 -4 -38 10 18 30 201 13 258 -23 12 -8 57 -20 101 -26 119 -18
256 11 256 54 0 8 -7 16 -15 20 -8 3 -15 12 -15 21 0 11 11 15 42 15 46 0 78
20 166 104 49 47 96 116 97 142 0 6 6 18 13 27 8 9 12 32 11 51 -3 25 4 45 21
68 52 69 56 198 10 350 -21 69 -34 88 -51 71 -6 -6 -1 -28 15 -60 49 -96 60
-301 18 -335 -14 -11 -15 -11 -9 5 17 45 18 98 3 158 -18 71 -65 179 -79 179
-9 0 -2 -28 19 -75 27 -61 55 -183 48 -212 -7 -25 -9 -22 -20 32 -12 63 -54
169 -73 188 -22 22 -11 -29 19 -89 31 -64 48 -138 33 -147 -6 -4 -42 29 -80
71 -52 57 -88 86 -134 110 -73 36 -184 67 -279 77 -36 4 -75 11 -87 16 -25 9
-91 78 -112 118 -51 92 -86 148 -101 161 -10 8 -39 42 -65 75 -81 104 -187
204 -278 266 -49 32 -93 59 -98 59 -5 0 -26 12 -47 28 -90 64 -466 200 -612
221 -119 16 -132 17 -250 11z m250 -1854 c0 -31 70 -94 143 -129 118 -57 133
-61 237 -68 58 -4 132 -13 165 -21 33 -8 77 -13 98 -10 33 4 37 2 31 -14 -5
-15 -4 -16 4 -5 12 17 84 19 90 3 2 -6 -11 -12 -30 -14 -18 -2 -31 -7 -28 -13
5 -11 11 -11 85 1 27 4 56 13 63 21 7 7 24 13 37 13 13 0 26 4 29 9 3 5 16 7
27 4 19 -5 19 -7 5 -15 -12 -7 -14 -13 -6 -29 8 -14 7 -19 -2 -20 -7 0 -22 -3
-33 -5 -33 -8 -405 -8 -465 -1 -141 18 -370 118 -370 162 0 6 -15 18 -32 26
-34 15 -54 44 -64 98 -4 20 -3 31 5 31 6 0 11 -11 11 -24z m1295 -4 c-3 -3
-11 0 -18 7 -9 10 -8 11 6 5 10 -3 15 -9 12 -12z m90 -31 c55 -32 102 -77 92
-88 -4 -3 -17 3 -30 14 -12 12 -48 37 -79 57 -32 20 -58 39 -58 41 0 12 29 3
75 -24z m-275 -126 c0 -8 -44 -23 -53 -18 -14 8 4 23 29 23 13 0 24 -2 24 -5z
m-25 -35 c-3 -5 -14 -10 -23 -9 -14 0 -13 2 3 9 27 11 27 11 20 0z m-210 -30
c-11 -5 -36 -8 -55 -8 -32 0 -33 1 -10 8 14 4 39 8 55 8 25 1 27 -1 10 -8z
m194 1 c7 -5 28 -5 47 -1 43 10 43 6 2 -15 -45 -24 -100 -36 -91 -21 4 6 6 19
5 29 -3 18 14 22 37 8z m635 -66 c-9 -14 -19 -24 -21 -21 -7 7 16 46 28 46 5
0 2 -11 -7 -25z m-67 -22 c-3 -10 -5 -4 -5 12 0 17 2 24 5 18 2 -7 2 -21 0
-30z m120 -49 c-3 -3 -12 -4 -19 -1 -8 3 -5 6 6 6 11 1 17 -2 13 -5z m-157
-14 c0 -5 -5 -10 -11 -10 -5 0 -7 5 -4 10 3 6 8 10 11 10 2 0 4 -4 4 -10z
m-14 -59 c0 -11 -4 -17 -8 -15 -4 3 -8 12 -8 20 0 8 4 14 8 14 4 0 8 -9 8 -19z
m47 2 c-7 -2 -19 -2 -25 0 -7 3 -2 5 12 5 14 0 19 -2 13 -5z m-1287 -180 c-10
-10 -19 5 -10 18 6 11 8 11 12 0 2 -7 1 -15 -2 -18z m231 -133 c0 -32 -3 -33
-57 -30 -30 2 -32 0 -21 -14 11 -13 11 -17 -3 -22 -23 -9 -122 16 -105 27 8 5
22 6 32 3 10 -3 26 1 36 10 20 18 91 55 107 56 6 0 11 -13 11 -30z"/>
<path d="M3520 4060 c0 -5 15 -10 33 -10 24 0 28 3 17 10 -20 13 -50 13 -50 0z"/>
<path d="M385 5800 c-48 -19 -72 -84 -50 -136 8 -19 19 -34 24 -34 6 0 13 -11
17 -25 11 -43 130 -131 304 -223 58 -30 134 -71 170 -90 117 -63 184 -94 217
-99 23 -4 44 -18 66 -45 17 -22 44 -46 60 -54 15 -8 58 -43 95 -77 124 -116
173 -147 243 -157 35 -5 65 -7 68 -5 2 3 -1 5 -8 5 -8 0 -11 7 -7 15 4 10 -6
17 -32 25 -20 5 -54 21 -74 35 -20 14 -42 25 -48 25 -14 0 -63 31 -73 47 -4 7
-38 32 -75 56 -37 24 -89 67 -116 95 -38 39 -58 52 -90 58 -22 3 -97 36 -166
72 -69 36 -156 81 -193 99 -37 18 -87 51 -110 73 -22 22 -47 40 -54 40 -7 0
-13 4 -13 8 0 5 -15 16 -34 25 -19 9 -37 25 -41 36 -3 11 -19 25 -35 32 -31
14 -60 56 -60 87 0 33 18 35 34 4 35 -68 232 -222 316 -247 14 -4 52 -20 85
-35 86 -40 220 -87 289 -102 51 -11 67 -21 130 -81 39 -38 94 -84 123 -103 31
-20 53 -43 55 -56 2 -12 9 -23 17 -26 8 -3 11 0 7 7 -11 17 8 13 71 -15 32
-14 69 -30 82 -35 47 -19 14 -17 -43 2 -62 20 -84 24 -73 12 14 -13 150 -51
166 -46 13 4 13 3 2 -5 -11 -8 -6 -12 22 -17 22 -4 37 -13 37 -21 0 -8 10 -19
23 -24 19 -8 20 -9 3 -9 -11 -1 -27 5 -35 13 -15 13 -64 32 -159 62 -48 15
-49 4 -2 -16 16 -7 27 -17 23 -23 -4 -6 -1 -7 6 -3 7 5 24 5 39 1 21 -5 23 -8
11 -16 -10 -8 -7 -9 14 -5 15 4 37 1 50 -6 12 -7 40 -19 62 -25 l40 -13 -42 5
c-87 10 -118 12 -100 8 9 -2 17 -10 17 -18 0 -7 6 -16 13 -19 6 -3 1 -4 -13
-2 -14 3 -42 1 -63 -3 -32 -8 -50 -4 -130 32 -50 22 -114 53 -140 69 -26 15
-52 28 -57 28 -6 0 -10 4 -10 9 0 5 -11 12 -24 15 -37 9 -136 98 -181 162 -42
59 -51 64 -165 95 -67 18 -164 50 -175 59 -5 5 -71 38 -145 75 -118 59 -144
77 -207 140 -39 40 -79 87 -87 104 -18 35 -34 38 -76 16 -38 -20 -60 -63 -60
-118 0 -56 57 -147 110 -176 269 -146 424 -213 517 -226 99 -14 152 -35 179
-70 14 -19 47 -48 73 -64 25 -16 69 -48 96 -70 28 -22 79 -61 115 -87 36 -26
71 -55 78 -66 8 -10 37 -32 65 -49 29 -17 80 -50 115 -74 93 -64 258 -125 352
-131 41 -3 104 -8 140 -12 101 -11 215 8 283 47 56 32 59 32 90 18 34 -16 158
-54 267 -81 89 -23 95 -24 180 -35 41 -5 120 -21 175 -36 88 -24 123 -28 290
-32 182 -5 255 2 262 22 2 6 -67 9 -179 8 -177 -2 -330 12 -389 35 -14 6 -52
13 -85 17 -64 7 -169 32 -195 45 -9 5 -38 11 -65 15 -27 4 -71 16 -99 27 -27
11 -60 24 -73 29 -13 5 -34 9 -47 9 -33 0 -41 18 -18 43 74 83 123 202 123
297 0 53 -3 61 -32 86 -28 23 -33 24 -36 10 -2 -9 1 -23 7 -30 14 -17 15 -102
2 -145 -11 -37 -87 -161 -123 -202 -26 -29 -101 -59 -149 -59 -24 0 -30 -4
-25 -15 6 -17 14 -16 -139 -18 -115 -1 -144 5 -126 27 8 10 -3 17 -49 29 -70
20 -70 20 -70 8 0 -5 14 -12 30 -16 17 -4 30 -11 30 -17 0 -6 -7 -7 -16 -4 -9
4 -37 11 -63 17 -80 19 -141 40 -141 50 0 5 -11 9 -24 9 -14 0 -28 5 -31 10
-3 6 -1 10 6 10 7 0 4 7 -7 15 -25 19 -40 19 -24 0 24 -29 -8 -14 -111 53
-117 75 -247 171 -268 196 -8 10 -40 34 -70 54 -31 20 -77 58 -103 85 -33 32
-57 47 -76 48 -15 0 -34 2 -42 4 -8 1 -42 8 -75 14 -79 16 -165 47 -245 89
-36 19 -92 48 -125 65 -112 56 -197 123 -210 167 -8 26 -8 101 1 109 2 3 36
-28 76 -68 97 -99 178 -150 321 -206 67 -26 137 -53 155 -61 18 -8 58 -16 90
-20 130 -13 147 -20 197 -89 80 -109 168 -166 460 -301 132 -61 249 -55 322
16 58 57 65 80 58 178 -6 84 -23 132 -46 132 -10 0 -7 -68 4 -145 1 -6 -28 -9
-77 -7 -68 2 -94 9 -185 48 -58 25 -113 52 -122 60 -8 8 -19 14 -23 14 -14 0
-82 55 -161 131 -78 74 -82 77 -159 94 -96 21 -195 69 -277 133 -78 60 -147
110 -230 166 -50 33 -74 58 -98 99 -37 66 -53 75 -96 57z m1085 -890 c14 -11
19 -20 12 -20 -8 0 -25 9 -39 20 -15 11 -20 20 -12 20 8 0 25 -9 39 -20z m209
-341 c28 -22 6 -26 -23 -4 -11 8 -27 15 -37 15 -9 0 -22 6 -28 14 -11 13 -7
13 26 4 21 -6 48 -19 62 -29z m56 -29 c3 -5 1 -10 -4 -10 -6 0 -11 5 -11 10 0
6 2 10 4 10 3 0 8 -4 11 -10z"/>
<path d="M1350 5050 c0 -5 9 -14 20 -20 19 -10 20 -10 8 9 -13 22 -28 28 -28
11z"/>
<path d="M1405 5010 c3 -5 14 -10 23 -10 15 0 15 2 2 10 -20 13 -33 13 -25 0z"/>
<path d="M6705 4962 c-44 -2 -84 -7 -89 -12 -5 -5 -3 -18 6 -32 21 -31 157
-62 324 -74 43 -3 86 -10 96 -15 9 -5 21 -8 25 -7 18 4 104 -15 110 -25 4 -6
-4 -7 -23 -2 -44 11 -224 21 -272 14 -65 -8 -78 -44 -26 -68 14 -6 58 -16 97
-21 85 -12 256 -46 310 -62 25 -8 37 -17 35 -27 -4 -27 21 -61 45 -61 12 0 31
-7 42 -16 19 -14 19 -15 -4 -12 -62 7 -10 -61 63 -81 111 -33 156 -54 145 -67
-6 -7 -8 -18 -4 -24 10 -17 80 -58 110 -66 22 -5 25 -11 21 -30 -4 -14 0 -29
10 -38 18 -19 36 -12 27 9 -6 18 8 19 58 5 28 -8 45 -7 72 5 29 12 41 13 62 3
14 -6 25 -15 25 -20 0 -4 18 -8 40 -8 45 0 51 13 18 40 -30 24 -16 38 16 16
18 -11 27 -13 32 -4 8 13 -34 51 -125 111 -37 24 -58 43 -49 45 15 3 80 -10
111 -23 9 -4 17 -3 17 2 0 5 -24 19 -53 31 -132 55 -175 -1 -51 -67 70 -37 71
-38 49 -55 -17 -13 -18 -18 -7 -35 6 -12 12 -22 12 -25 0 -4 -78 20 -125 39
-76 31 -99 35 -107 21 -10 -17 -42 -11 -81 17 -37 25 -27 34 14 13 41 -21 73
-21 65 -1 -7 20 21 20 69 -1 20 -8 40 -13 43 -10 9 10 -2 15 -88 45 -46 16
-86 34 -89 39 -3 6 -33 17 -66 26 -51 13 -57 13 -41 0 27 -20 4 -18 -59 5 -82
30 -103 39 -110 51 -9 15 70 6 168 -20 37 -10 67 -14 67 -10 0 5 -6 11 -12 13
-8 4 -7 6 3 6 9 1 19 -6 23 -14 4 -10 20 -15 51 -15 34 0 45 -4 45 -16 0 -11
8 -14 27 -12 50 6 34 25 -34 42 -37 10 -76 21 -85 26 -28 16 -170 53 -208 55
-42 3 -85 19 -96 36 -9 16 61 7 208 -24 59 -13 111 -20 115 -16 19 16 61 18
74 3 15 -18 111 -68 149 -78 25 -6 25 -6 3 5 -13 7 -23 16 -23 21 0 5 10 8 23
7 12 -1 31 -1 42 0 17 1 18 3 5 11 -8 5 -23 7 -32 4 -9 -3 -20 1 -25 8 -14 22
-57 42 -61 29 -5 -15 -33 -13 -56 4 -31 23 1 28 74 11 56 -13 66 -13 80 -1 24
21 120 17 120 -5 0 -5 -10 -11 -22 -13 -21 -4 -20 -4 3 -6 34 -1 44 23 16 38
-12 6 -56 22 -97 37 -41 15 -92 35 -112 45 -21 11 -46 19 -58 19 -11 0 -20 4
-20 9 0 9 71 -3 99 -18 9 -5 39 -12 66 -15 28 -4 58 -9 68 -12 13 -4 17 1 17
21 l0 27 -72 -4 c-50 -2 -72 1 -75 10 -3 8 6 12 29 12 22 0 28 3 20 9 -8 4
-33 4 -58 0 -25 -5 -54 -4 -66 1 -20 8 -18 9 15 9 20 1 37 6 37 11 0 13 -25
13 -73 -1 -54 -15 -84 -1 -37 16 l35 13 -35 1 c-20 1 -41 -4 -46 -9 -14 -14
-47 -1 -40 15 6 17 -36 27 -65 17 -25 -10 -69 -4 -69 9 0 4 14 7 32 6 17 -1
33 3 35 10 3 7 -3 10 -15 6 -11 -2 -23 0 -26 6 -9 15 -96 14 -96 0 0 -7 10 -9
25 -5 18 5 25 2 25 -7 0 -12 -9 -12 -60 0 -79 18 -195 35 -328 47 -100 10
-153 19 -157 27 -3 4 21 5 52 2 105 -9 117 -10 268 -18 83 -5 159 -7 169 -6
20 3 195 -35 231 -49 30 -13 152 -47 215 -61 30 -6 60 -15 65 -19 6 -4 24 -10
42 -13 33 -6 205 -70 235 -87 10 -6 24 -10 32 -10 19 0 229 -109 296 -155 81
-54 147 -122 186 -191 29 -52 34 -70 34 -125 -1 -85 -26 -128 -109 -184 -44
-30 -44 -30 -210 -33 -160 -3 -386 7 -636 28 -209 17 -265 17 -485 3 -212 -14
-336 -35 -401 -68 -15 -8 -39 -15 -52 -15 -14 0 -28 -7 -31 -17 -5 -12 -9 -14
-14 -6 -7 11 -59 -5 -167 -52 -16 -7 -51 -16 -77 -19 -26 -4 -50 -11 -53 -17
-4 -5 -2 -9 4 -9 6 0 8 -7 5 -15 -4 -8 -16 -15 -29 -15 -25 0 -165 -45 -208
-67 -17 -9 -44 -12 -75 -8 -26 2 -103 7 -172 10 -69 3 -151 12 -183 20 -32 8
-67 15 -77 15 -11 0 -45 12 -77 26 -32 14 -119 48 -193 76 -74 28 -144 57
-155 63 -11 7 -51 24 -90 39 -38 14 -86 36 -105 48 -93 58 -159 85 -237 95
-39 5 -43 3 -63 -28 -24 -40 -23 -92 3 -97 13 -3 17 4 17 31 0 20 3 42 6 51 7
18 50 21 74 6 12 -7 8 -10 -14 -10 -24 0 -27 -2 -16 -15 18 -22 236 -129 295
-145 28 -7 55 -16 60 -20 6 -4 35 -15 65 -25 30 -10 59 -21 65 -26 5 -5 21 -9
36 -9 42 0 181 -31 209 -46 23 -13 21 -13 -27 -8 -87 11 -62 -12 35 -31 48 -9
98 -19 112 -22 49 -11 159 -16 378 -16 122 -1 222 -5 222 -9 0 -4 -5 -8 -12
-8 -6 0 -9 -3 -6 -6 8 -8 189 -36 195 -30 5 5 -61 25 -87 27 -10 0 -11 2 -2 6
25 10 11 23 -27 23 -22 0 -52 5 -68 12 -28 11 -27 12 27 21 30 6 58 15 61 20
4 6 24 7 45 3 22 -3 73 -8 114 -11 135 -9 203 -20 208 -32 2 -9 -6 -13 -25
-13 -38 1 -164 17 -188 25 -20 7 -20 6 -1 -9 11 -9 32 -16 46 -16 15 0 37 -9
50 -20 13 -11 37 -20 54 -20 17 0 51 -9 75 -21 25 -11 65 -22 90 -25 25 -3 62
-9 81 -14 35 -8 35 -8 -13 -9 -73 -2 -48 -17 40 -25 43 -3 102 -9 131 -12 35
-5 52 -3 52 5 0 6 -16 11 -37 11 -49 0 -84 10 -77 21 6 10 62 12 117 3 33 -6
35 -8 20 -19 -16 -12 -15 -13 3 -18 10 -3 69 -9 129 -12 119 -7 181 -13 205
-20 8 -3 22 0 30 5 16 11 16 11 -40 15 -136 10 -183 18 -187 35 -5 19 -48 30
-116 30 -49 0 -39 20 11 21 20 1 48 5 62 10 32 11 -81 3 -160 -12 -62 -12
-157 -12 -178 0 -14 8 125 25 181 22 15 -1 27 4 27 10 0 6 -7 9 -15 5 -8 -3
-21 2 -30 10 -12 12 -37 16 -103 16 -55 0 -98 5 -113 14 -23 13 -23 13 17 14
70 0 104 10 104 31 0 16 -8 19 -52 20 -29 1 -44 3 -33 6 11 3 25 9 30 15 6 6
-18 8 -70 4 -44 -2 -89 -1 -100 4 l-20 9 20 0 c11 1 27 6 35 12 15 10 -51 6
-137 -7 -24 -4 -33 -1 -33 9 0 8 15 20 33 27 17 7 66 29 107 48 145 67 259 94
415 97 39 1 100 3 138 5 37 2 70 0 74 -3 3 -4 -10 -7 -30 -7 -20 0 -43 -7 -52
-17 -13 -13 -21 -14 -35 -5 -18 11 -56 6 -76 -9 -6 -5 -52 -12 -103 -16 -58
-4 -88 -10 -82 -16 5 -5 65 -6 157 0 155 9 244 7 244 -7 0 -4 -16 -11 -35 -14
-34 -7 -53 -22 -41 -33 3 -3 23 1 43 10 21 9 67 18 102 21 35 3 66 7 68 9 10
11 -10 33 -32 35 -26 2 -35 -13 -12 -21 6 -2 -7 -6 -31 -8 -36 -4 -45 -1 -58
18 -19 30 -9 46 22 39 18 -5 24 -2 24 9 0 14 15 15 118 10 64 -3 158 -10 207
-15 50 -5 145 -15 213 -21 67 -7 122 -16 122 -20 0 -9 71 0 85 12 6 4 72 8
148 7 140 0 219 15 275 50 20 13 22 12 22 -2 0 -15 7 -16 48 -10 54 8 56 9 47
23 -3 6 -18 8 -33 5 -27 -6 -27 -6 4 14 40 25 74 36 74 23 0 -6 21 -9 50 -8
27 1 50 5 50 10 0 7 -24 10 -70 8 -16 0 -9 5 20 14 58 19 74 19 66 0 -4 -11 2
-15 25 -15 17 0 39 -5 49 -10 11 -6 21 -6 25 -1 3 5 -10 15 -30 22 -65 24 -13
26 62 3 90 -28 105 -38 42 -29 -31 5 -49 3 -54 -5 -11 -18 -2 -21 68 -25 36
-1 70 -6 76 -9 6 -4 11 0 11 8 0 9 8 16 18 16 25 0 34 -11 21 -26 -6 -7 -9
-21 -7 -31 3 -15 15 -18 77 -19 71 -1 75 -2 103 -35 26 -31 28 -39 24 -94 -3
-33 -5 -61 -5 -62 -1 -2 -12 -3 -26 -3 -42 0 -28 -19 33 -46 140 -63 142 -64
168 -116 29 -56 27 -110 -6 -150 l-18 -22 -6 31 c-15 67 -138 133 -247 133
-56 -1 -62 -2 -46 -14 9 -7 39 -16 65 -20 59 -8 77 -19 68 -41 -6 -15 -15 -17
-69 -11 -97 12 -102 12 -107 1 -3 -5 32 -18 78 -28 82 -18 83 -18 142 2 58 19
60 19 70 1 5 -10 10 -28 10 -40 0 -32 18 -60 40 -60 32 0 77 47 94 100 23 71
6 128 -59 196 -6 6 -38 24 -70 39 l-60 28 0 81 c0 74 -3 85 -31 126 -50 71
-65 80 -206 116 -73 19 -150 41 -171 49 -76 30 -213 11 -340 -47 -37 -17 -70
-29 -73 -26 -3 3 10 30 28 59 78 126 22 260 -174 421 -24 20 -60 46 -79 57
-64 38 -254 129 -314 151 -214 78 -298 104 -642 195 -88 23 -154 29 -408 40
-49 2 -110 7 -135 10 -54 8 -215 11 -325 7z m225 -59 c0 -21 48 -35 118 -35
34 0 65 -4 68 -9 3 -5 18 -9 35 -9 16 0 29 -5 29 -11 0 -6 23 -8 65 -4 39 3
65 2 65 -4 0 -5 -10 -12 -22 -15 -13 -3 10 -3 50 0 40 2 85 1 100 -3 26 -7 26
-7 -13 -16 -58 -12 -113 -9 -212 14 -49 11 -144 29 -213 39 -181 29 -282 48
-291 57 -5 5 44 8 107 9 91 1 114 -2 114 -13z m601 -127 c-9 -11 -6 -15 19
-18 16 -2 34 0 39 5 12 12 41 -8 41 -27 0 -32 129 -105 138 -78 5 15 68 16 77
2 3 -5 1 -10 -5 -10 -6 0 -8 -4 -5 -10 8 -13 42 -13 47 -1 2 5 19 2 38 -6 l35
-16 -34 -10 c-24 -8 -50 -7 -95 3 -85 18 -101 18 -100 -1 1 -13 -11 -18 -49
-22 -64 -8 -89 4 -50 23 15 7 31 13 36 12 15 -4 6 18 -11 27 -18 10 -196 55
-265 67 -20 3 -40 10 -43 15 -3 5 -17 9 -31 9 -15 0 -52 5 -82 10 -31 6 -92
15 -136 19 -74 9 -69 9 60 7 97 -1 146 -6 161 -15 22 -15 114 -7 114 9 0 8 31
14 89 18 19 2 21 -1 12 -12z m-595 -10 c8 -8 14 -18 14 -22 0 -5 -5 -3 -12 4
-7 7 -21 12 -32 12 -17 0 -18 2 -6 10 19 12 19 13 36 -4z m94 -26 c0 -12 -27
-12 -55 0 -16 7 -13 9 18 9 20 1 37 -3 37 -9z m120 1 c0 -20 -26 -29 -60 -22
-36 8 -29 16 20 24 14 2 28 5 33 6 4 0 7 -3 7 -8z m110 -21 c0 -5 -7 -10 -15
-10 -8 0 -15 -5 -15 -10 0 -6 -11 -8 -27 -4 -45 11 -50 18 -18 25 47 10 75 10
75 -1z m450 -15 c16 -9 19 -14 9 -15 -8 0 -24 7 -35 15 -24 18 -7 19 26 0z
m-340 -10 c0 -12 14 -15 64 -15 62 0 92 -12 61 -24 -37 -14 -10 -22 46 -14 70
11 107 4 74 -14 -11 -6 -23 -16 -27 -22 -4 -6 -22 -6 -55 3 -26 6 -55 13 -63
14 -51 9 -137 30 -150 37 -9 4 -31 11 -49 15 -53 11 -16 30 67 34 22 1 32 -3
32 -14z m130 -151 c0 -2 -9 -4 -20 -4 -11 0 -20 4 -20 9 0 5 9 7 20 4 11 -3
20 -7 20 -9z m375 -14 c-3 -5 -12 -7 -20 -3 -21 7 -19 13 6 13 11 0 18 -4 14
-10z m-300 -18 c-3 -3 -11 0 -18 7 -9 10 -8 11 6 5 10 -3 15 -9 12 -12z m90
-92 c4 -7 -6 -10 -25 -8 -41 3 -50 18 -11 18 16 0 33 -5 36 -10z m200 -140
c-3 -5 -19 -10 -35 -10 -16 0 -32 5 -35 10 -4 6 10 10 35 10 25 0 39 -4 35
-10z m-1170 -470 c-3 -5 0 -10 7 -10 9 0 9 -3 -2 -10 -8 -5 -33 -9 -55 -9
l-40 1 40 19 c45 21 59 24 50 9z m139 -65 c3 -8 16 -15 28 -15 16 0 19 -3 10
-9 -14 -8 -22 -8 -169 5 -132 11 -103 29 53 32 56 2 73 -1 78 -13z m230 -25
c-5 -5 -50 -12 -99 -15 -85 -5 -88 -4 -50 8 47 16 163 21 149 7z m-159 -55
c22 -8 57 -14 77 -15 20 0 40 -5 44 -12 10 -17 -215 -2 -232 15 -4 4 9 7 29 7
21 0 37 5 37 10 0 12 -3 13 45 -5z m-442 -12 c-7 -2 -21 -2 -30 0 -10 3 -4 5
12 5 17 0 24 -2 18 -5z"/>
<path d="M4337 4912 c-33 -34 -33 -43 -4 -70 30 -29 59 -28 94 2 l28 25 -19
35 c-24 46 -60 48 -99 8z m50 -35 c-7 -12 -13 -24 -14 -26 -4 -6 -33 20 -33
30 0 4 7 15 16 24 24 24 48 2 31 -28z"/>
<path d="M4713 4752 c-26 -36 -94 -57 -180 -56 -44 0 -68 5 -81 17 -23 21 -43
22 -36 3 27 -69 317 -28 332 48 5 25 -12 19 -35 -12z"/>
<path d="M4716 4711 c-40 -42 -122 -65 -202 -57 -35 4 -72 9 -81 13 -14 4 -15
3 -7 -6 14 -15 76 -30 124 -31 66 0 210 69 210 101 0 17 -16 10 -44 -20z"/>
<path d="M3685 4684 c-178 -46 -274 -125 -217 -177 28 -25 34 -21 26 18 -5 31
-2 39 26 65 18 16 40 30 50 30 11 0 21 4 24 9 3 4 25 11 48 15 77 11 157 31
168 42 21 21 -42 20 -125 -2z"/>
<path d="M4734 4689 c-38 -42 -97 -67 -192 -80 -82 -11 -100 -11 -157 4 -35 9
-71 20 -79 23 -9 3 -16 2 -16 -4 0 -6 23 -18 52 -28 73 -24 257 -16 320 15 44
21 106 76 96 86 -2 3 -13 -4 -24 -16z"/>
<path d="M8042 4682 c-19 -3 -21 -6 -11 -18 9 -11 15 -11 25 -3 8 6 25 8 39 5
14 -4 25 -2 25 3 0 10 -45 18 -78 13z"/>
<path d="M1590 4661 c0 -8 65 -41 82 -41 19 0 -3 17 -44 34 -21 8 -38 12 -38
7z"/>
<path d="M8144 4645 c-19 -15 -19 -15 0 -30 25 -19 29 -19 43 5 11 16 10 21
-6 29 -13 7 -24 6 -37 -4z"/>
<path d="M2158 4623 c-43 -7 -33 -23 13 -23 27 0 39 4 37 12 -5 14 -14 16 -50
11z"/>
<path d="M8230 4610 c0 -5 11 -10 25 -10 14 0 25 5 25 10 0 6 -11 10 -25 10
-14 0 -25 -4 -25 -10z"/>
<path d="M1920 4591 c0 -9 49 -21 84 -21 21 1 21 1 2 15 -21 16 -86 21 -86 6z"/>
<path d="M8093 4584 c-9 -24 13 -61 56 -92 36 -26 37 -29 21 -40 -28 -17 -14
-47 41 -87 44 -31 48 -37 37 -55 -10 -16 -9 -24 10 -49 12 -16 19 -37 16 -45
-4 -11 0 -16 14 -16 28 0 34 25 13 52 -17 21 -17 23 -2 35 10 8 12 12 4 13 -7
0 -13 6 -13 14 0 7 -20 31 -45 52 -61 53 -58 66 8 39 12 -5 17 -2 17 9 0 10
-13 22 -30 27 -16 6 -30 17 -30 24 0 7 -18 28 -40 46 -22 18 -40 37 -40 41 0
11 61 -3 88 -20 29 -19 44 -6 17 15 -26 19 -102 53 -121 53 -8 0 -17 -7 -21
-16z"/>
<path d="M3928 4502 c-21 -10 -38 -23 -38 -30 0 -8 3 -12 8 -10 4 2 26 12 50
23 23 11 42 23 42 27 0 12 -20 8 -62 -10z"/>
<path d="M3455 4490 c-4 -7 -1 -16 6 -21 17 -10 26 8 11 23 -6 6 -12 6 -17 -2z"/>
<path d="M7983 4493 c-30 -6 -30 -23 0 -23 13 0 27 -4 33 -9 15 -15 86 -18 91
-3 3 8 -8 12 -39 12 -27 0 -38 3 -30 9 11 7 10 10 -3 15 -9 3 -20 5 -23 5 -4
-1 -17 -4 -29 -6z"/>
<path d="M8325 4480 c-4 -6 3 -22 16 -36 26 -28 39 -31 39 -9 0 13 8 15 38 10
l37 -6 -25 20 c-14 11 -32 21 -40 21 -8 0 -25 3 -36 6 -12 3 -25 1 -29 -6z"/>
<path d="M8360 4389 c0 -12 29 -38 43 -39 5 0 5 5 2 10 -3 6 1 10 9 10 21 0
21 16 0 24 -25 10 -54 7 -54 -5z"/>
<path d="M7885 4340 c-5 -9 53 -25 61 -17 3 3 -9 9 -25 15 -17 6 -33 7 -36 2z"/>
<path d="M8505 4330 c-12 -19 15 -50 43 -50 25 1 25 2 10 14 -25 18 -22 24 7
18 31 -5 33 13 3 22 -34 9 -56 7 -63 -4z"/>
<path d="M8403 4313 c-3 -8 -1 -19 6 -26 8 -8 11 -8 11 1 0 7 9 12 20 12 29 0
25 17 -6 23 -17 3 -28 0 -31 -10z"/>
<path d="M8396 4244 c-4 -9 -4 -19 -1 -22 7 -7 55 19 55 30 0 15 -48 8 -54 -8z"/>
<path d="M7823 4217 c2 -6 12 -15 22 -21 11 -6 37 -28 59 -48 41 -40 56 -47
56 -24 0 8 6 17 13 19 9 4 8 8 -3 17 -12 9 -7 10 23 5 65 -11 40 10 -35 29
-40 10 -88 21 -106 26 -23 6 -32 5 -29 -3z"/>
<path d="M2343 4174 c-3 -8 0 -26 7 -39 11 -21 10 -27 -14 -55 -14 -17 -26
-37 -26 -43 0 -7 -7 -4 -15 7 -7 10 -19 15 -25 11 -9 -6 -9 -10 1 -16 18 -11
-14 -41 -100 -94 -39 -24 -58 -41 -48 -43 13 -3 90 39 107 58 3 3 20 17 39 30
l34 23 18 -24 c22 -29 24 -43 5 -36 -20 8 -68 -58 -70 -95 -1 -33 21 -51 29
-24 16 52 17 52 26 29 10 -27 24 -29 38 -6 9 17 11 16 30 -1 20 -18 22 -18 39
-3 10 10 24 17 30 17 20 0 26 48 9 73 -17 27 -14 35 27 61 25 16 27 20 14 30
-14 10 -13 15 8 46 13 19 24 42 24 52 0 21 -20 24 -38 6 -9 -9 -12 -6 -12 15
0 39 -38 34 -54 -7 -6 -18 -9 -17 -26 12 -21 34 -47 42 -57 16z m41 -29 c3 -9
0 -15 -9 -15 -8 0 -15 7 -15 15 0 8 4 15 9 15 5 0 11 -7 15 -15z m76 -25 c0
-13 -5 -18 -15 -14 -16 7 -19 17 -8 27 12 13 23 7 23 -13z m33 -25 c-3 -9 -8
-14 -10 -11 -3 3 -2 9 2 15 9 16 15 13 8 -4z m-59 -13 c5 -3 1 -9 -7 -14 -9
-5 -14 -15 -11 -23 4 -8 1 -15 -5 -15 -19 0 -12 -20 10 -28 l20 -8 -20 -18
c-21 -19 -21 -19 -21 2 0 12 -5 22 -11 22 -7 0 -9 10 -6 25 3 18 -1 29 -15 36
-15 8 -17 13 -8 25 11 13 48 11 74 -4z m-64 -102 c0 -17 -17 -11 -24 8 -3 9
-9 24 -12 32 -4 8 3 5 15 -7 11 -12 21 -27 21 -33z m20 -55 c-11 -13 -50 -9
-50 4 0 14 11 18 35 13 19 -3 23 -8 15 -17z m-70 1 c0 -2 -8 -10 -17 -17 -16
-13 -17 -12 -4 4 13 16 21 21 21 13z m21 -49 c-10 -9 -11 -8 -5 6 3 10 9 15
12 12 3 -3 0 -11 -7 -18z m64 -7 c3 -5 1 -10 -4 -10 -6 0 -11 5 -11 10 0 6 2
10 4 10 3 0 8 -4 11 -10z"/>
<path d="M8497 4184 c-3 -3 -3 -13 0 -21 3 -8 0 -19 -7 -23 -7 -4 -9 -13 -6
-19 13 -20 43 -12 55 15 10 22 9 28 -6 40 -20 15 -27 17 -36 8z"/>
<path d="M8300 4170 c0 -5 5 -10 10 -10 6 0 10 5 10 10 0 6 -4 10 -10 10 -5 0
-10 -4 -10 -10z"/>
<path d="M8105 4160 c-8 -13 35 -70 53 -70 7 0 12 3 10 8 -31 64 -50 82 -63
62z"/>
<path d="M8020 4140 c0 -5 11 -10 25 -10 14 0 25 5 25 10 0 6 -11 10 -25 10
-14 0 -25 -4 -25 -10z"/>
<path d="M2275 4110 c-4 -7 -3 -16 3 -22 14 -14 47 -6 47 12 0 18 -40 26 -50
10z"/>
<path d="M7954 4085 c-4 -9 1 -21 11 -29 10 -7 15 -17 12 -23 -4 -6 -1 -18 7
-28 10 -14 16 -16 34 -6 30 16 28 41 -3 41 -14 0 -25 5 -25 11 0 7 10 9 24 5
30 -7 44 9 19 22 -39 20 -73 23 -79 7z"/>
<path d="M2036 4050 c-31 -34 -36 -47 -38 -93 0 -28 0 -59 1 -67 6 -45 2 -69
-15 -93 -26 -36 -42 -34 -60 8 l-15 36 -62 -7 c-93 -10 -101 -21 -36 -47 25
-10 43 -24 46 -37 4 -17 12 -21 29 -17 31 6 30 -2 -7 -62 -18 -28 -36 -74 -40
-102 -4 -28 -17 -70 -28 -92 -10 -23 -31 -73 -46 -112 -15 -38 -36 -85 -46
-104 -11 -18 -17 -36 -14 -39 8 -8 52 46 70 85 8 19 26 38 42 44 15 6 51 22
78 35 28 13 62 26 78 30 15 3 30 10 33 16 7 11 7 98 0 105 -12 12 -96 -30
-112 -55 -21 -36 -74 -78 -74 -60 0 26 74 234 93 258 17 23 24 24 110 25 74 0
97 4 117 19 l25 18 -25 -7 c-46 -13 -151 -18 -162 -7 -12 12 -9 16 70 102 55
60 63 73 35 63 -13 -5 -15 -2 -9 18 20 67 25 97 19 132 -3 20 -9 40 -13 42 -4
3 -24 -13 -44 -35z m16 -70 c-8 -13 -14 -41 -14 -62 1 -22 -3 -38 -9 -38 -14
0 -3 113 13 144 11 20 11 20 19 1 4 -12 1 -29 -9 -45z m-198 -181 c-3 -5 -10
-7 -15 -3 -5 3 -7 10 -3 15 3 5 10 7 15 3 5 -3 7 -10 3 -15z m50 6 c3 -8 2
-15 -3 -15 -5 0 -14 7 -21 15 -10 12 -10 15 3 15 8 0 17 -7 21 -15z m-4 -55
c-8 -5 -18 -6 -24 -3 -5 4 -1 10 10 13 24 9 34 2 14 -10z m55 -265 c-35 -28
-57 -32 -48 -9 6 16 64 46 73 38 2 -3 -9 -16 -25 -29z m26 -38 c-8 -8 -11 -5
-11 9 0 27 14 41 18 19 2 -9 -1 -22 -7 -28z"/>
<path d="M8073 4078 c2 -7 7 -13 12 -13 5 0 10 6 13 13 2 6 -4 12 -13 12 -9 0
-15 -6 -12 -12z"/>
<path d="M9043 4013 c-22 -8 -14 -26 9 -20 26 7 49 -9 41 -29 -4 -10 4 -14 31
-14 20 0 36 5 36 10 0 6 -7 10 -15 10 -8 0 -25 11 -39 25 -25 24 -38 29 -63
18z"/>
<path d="M8900 3995 c-10 -12 -5 -14 34 -12 47 2 58 10 30 21 -26 10 -51 7
-64 -9z"/>
<path d="M9224 3969 c-3 -6 -1 -15 6 -19 9 -6 7 -11 -10 -20 -29 -15 -12 -35
23 -26 32 8 43 52 16 66 -23 13 -26 12 -35 -1z"/>
<path d="M8900 3945 c-10 -12 -10 -15 1 -15 26 0 59 12 59 21 0 15 -47 10 -60
-6z"/>
<path d="M8792 3934 c-13 -9 -35 -19 -50 -23 -14 -4 -28 -13 -30 -19 -5 -17
42 -6 84 19 17 11 41 19 53 19 12 0 19 4 16 10 -9 15 -48 12 -73 -6z"/>
<path d="M4940 3930 c0 -9 100 -66 134 -76 11 -3 48 -19 81 -34 33 -16 83 -34
110 -41 45 -11 125 -37 180 -60 75 -30 205 -61 313 -74 129 -15 202 -26 347
-51 96 -16 167 -18 95 -2 -25 6 -48 14 -51 20 -3 5 -73 16 -155 24 -157 14
-302 36 -394 59 -100 24 -354 115 -431 155 -48 24 -80 35 -86 29 -6 -6 -34 3
-76 25 -37 19 -67 30 -67 26z"/>
<path d="M7705 3920 c-4 -12 -5 -23 -3 -26 7 -7 158 -8 165 -1 15 16 -18 29
-73 29 -33 0 -64 5 -71 10 -8 6 -13 2 -18 -12z"/>
<path d="M9017 3934 c-14 -14 -6 -24 19 -24 16 0 24 5 22 13 -5 14 -31 21 -41
11z"/>
<path d="M7570 3910 c0 -5 5 -10 10 -10 6 0 10 5 10 10 0 6 -4 10 -10 10 -5 0
-10 -4 -10 -10z"/>
<path d="M8875 3910 c-7 -11 39 -25 55 -15 5 3 8 11 5 16 -8 12 -52 12 -60 -1z"/>
<path d="M8492 3903 c-18 -3 -36 -11 -39 -19 -4 -11 -9 -12 -19 -4 -17 15
-106 2 -101 -14 6 -17 136 -9 175 11 28 16 44 36 25 31 -5 0 -23 -3 -41 -5z"/>
<path d="M9430 3901 c0 -10 36 -21 44 -14 3 3 3 10 0 14 -7 12 -44 12 -44 0z"/>
<path d="M7904 3889 c-12 -19 12 -25 106 -23 69 1 93 -2 99 -13 5 -10 28 -14
79 -14 82 0 99 6 78 27 -10 10 -38 14 -90 14 -41 0 -78 5 -81 10 -9 14 -182
13 -191 -1z m296 -29 c0 -5 -8 -10 -17 -10 -15 0 -16 2 -3 10 19 12 20 12 20
0z m37 -6 c-3 -3 -12 -4 -19 -1 -8 3 -5 6 6 6 11 1 17 -2 13 -5z"/>
<path d="M9040 3880 c-8 -5 -11 -12 -8 -16 10 -9 38 3 38 16 0 12 -10 13 -30
0z"/>
<path d="M9133 3870 c-23 -5 -51 -14 -63 -20 -28 -15 -26 -34 3 -25 65 20 67
20 67 -17 0 -37 16 -56 63 -76 59 -25 110 -5 122 48 5 24 14 32 36 37 33 6 46
20 32 34 -5 5 -24 4 -46 -2 -32 -9 -45 -7 -81 10 -45 22 -66 24 -133 11z m141
-56 c9 -3 16 -16 16 -29 0 -13 -7 -26 -16 -29 -19 -7 -64 -8 -64 -1 0 6 42 65
46 65 1 0 9 -3 18 -6z"/>
<path d="M8795 3860 c-8 -13 20 -24 41 -16 20 8 9 26 -16 26 -10 0 -22 -5 -25
-10z"/>
<path d="M4434 3845 c-10 -8 -14 -15 -8 -15 6 0 17 7 24 15 16 19 9 19 -16 0z"/>
<path d="M4825 3840 c4 -12 1 -28 -6 -37 -11 -13 -9 -19 18 -42 108 -91 120
-98 238 -141 33 -12 69 -25 80 -30 53 -20 393 -77 485 -81 30 -1 69 -6 85 -10
27 -7 183 -20 420 -34 44 -3 178 -7 299 -9 211 -4 219 -3 224 16 3 14 10 18
26 14 11 -3 30 -6 41 -7 11 0 14 -3 8 -6 -43 -17 18 -50 94 -51 23 -1 50 -5
60 -11 10 -5 38 -11 63 -14 52 -6 79 -15 100 -33 9 -7 72 -23 140 -34 69 -12
175 -32 235 -45 61 -13 155 -30 210 -37 123 -15 542 -14 658 1 4 1 7 5 7 11 0
20 -37 27 -110 19 -136 -15 -363 -20 -440 -9 -41 6 -122 15 -180 20 -58 6
-125 15 -150 21 -25 6 -70 15 -100 19 -98 14 -174 31 -215 50 -22 10 -105 32
-185 50 -186 41 -177 38 -155 54 13 9 15 15 7 20 -7 4 -16 5 -21 2 -15 -10
-101 32 -101 48 0 9 -10 18 -22 21 -128 29 -158 35 -188 34 -32 -1 -33 -2 -10
-9 18 -6 4 -9 -50 -10 -71 -3 -73 -3 -30 -11 25 -4 61 -12 80 -18 35 -11 -64
-8 -260 6 -41 3 -93 5 -115 4 -49 -1 -275 24 -376 43 -113 21 -272 64 -280 77
-3 6 -47 20 -95 31 -124 27 -152 34 -204 52 -76 25 -275 86 -283 86 -5 0 -5
-9 -2 -20z m78 -49 c18 -27 38 -43 64 -51 21 -7 47 -20 58 -30 40 -34 196 -79
286 -81 46 -1 96 -6 111 -10 16 -4 30 -3 34 3 7 12 119 1 149 -15 17 -9 300
-56 345 -57 12 0 13 -2 1 -9 -7 -5 -23 -6 -35 -3 -15 3 -18 2 -10 -7 12 -13
193 -24 211 -13 13 8 205 -3 281 -16 26 -4 45 -12 42 -17 -3 -6 -12 -9 -20 -8
-8 1 -85 4 -170 7 -199 7 -396 23 -535 43 -60 9 -129 15 -151 14 -23 -1 -81
10 -130 24 -50 15 -91 22 -96 17 -5 -5 -40 -3 -81 5 -80 16 -77 15 -197 71
-47 22 -101 47 -120 55 -19 8 -49 28 -66 44 -26 24 -29 32 -21 51 14 30 20 28
50 -17z m1657 -231 c-36 -11 -50 -11 -50 0 0 6 17 10 38 9 33 -1 34 -2 12 -9z
m-523 -16 c-3 -3 -12 -4 -19 -1 -8 3 -5 6 6 6 11 1 17 -2 13 -5z m599 -36 c-3
-20 -8 -23 -47 -20 -24 2 -46 8 -50 14 -5 7 -8 7 -10 -1 -5 -14 -49 -24 -49
-11 0 14 17 21 68 30 84 14 92 13 88 -12z"/>
<path d="M6916 3851 c-16 -3 -31 -11 -33 -17 -2 -7 40 -13 129 -17 159 -7 188
-3 181 24 -4 15 -12 18 -37 15 -96 -15 -126 -17 -126 -7 0 12 -66 13 -114 2z"/>
<path d="M7702 3850 c-39 -9 -46 -15 -37 -30 5 -8 31 -10 84 -6 42 3 79 5 84
6 4 0 7 6 7 14 0 24 -69 33 -138 16z"/>
<path d="M9495 3850 c3 -5 11 -10 16 -10 6 0 7 5 4 10 -3 6 -11 10 -16 10 -6
0 -7 -4 -4 -10z"/>
<path d="M8907 3843 c-15 -14 -6 -23 23 -23 32 0 40 14 14 24 -20 8 -29 8 -37
-1z"/>
<path d="M7258 3833 c-39 -10 -15 -23 42 -23 57 0 78 11 44 24 -17 7 -59 6
-86 -1z"/>
<path d="M8560 3825 c-14 -17 -5 -35 19 -35 22 0 45 25 36 40 -9 15 -41 12
-55 -5z"/>
<path d="M4473 3817 c-23 -36 -33 -62 -33 -88 0 -37 13 -37 39 0 29 41 37 86
17 94 -8 3 -19 1 -23 -6z"/>
<path d="M7380 3820 c0 -5 5 -10 10 -10 6 0 10 5 10 10 0 6 -4 10 -10 10 -5 0
-10 -4 -10 -10z"/>
<path d="M7980 3813 c-26 -5 -40 -19 -40 -40 0 -8 15 -13 40 -13 24 0 40 5 40
12 0 9 3 9 12 0 7 -7 22 -12 35 -12 12 0 27 -8 32 -17 9 -16 10 -16 11 -1 0 9
-7 24 -16 32 -14 15 -14 16 5 16 12 0 21 6 21 16 0 10 -6 14 -17 10 -51 -15
-71 -17 -77 -7 -4 6 -10 10 -14 10 -4 -1 -18 -4 -32 -6z"/>
<path d="M4523 3770 c3 -23 8 -44 10 -47 11 -11 27 9 27 34 0 25 1 25 18 10
22 -20 32 -13 32 20 0 24 -15 31 -23 11 -4 -10 -6 -10 -6 0 -1 6 -6 12 -12 12
-5 0 -7 -4 -4 -10 8 -13 -1 -13 -27 1 -20 11 -21 9 -15 -31z"/>
<path d="M2061 3776 c-36 -13 -67 -28 -69 -34 -5 -15 -6 -16 58 9 83 31 85 32
99 15 15 -17 51 -22 51 -7 0 14 -41 41 -60 40 -8 -1 -44 -11 -79 -23z"/>
<path d="M7348 3784 c-10 -3 -18 -10 -18 -16 0 -6 43 -8 120 -5 126 5 163 -6
61 -17 -78 -9 -109 -44 -42 -47 17 -1 20 -3 9 -6 -22 -6 -23 -19 -2 -27 22 -8
109 -8 100 1 -3 4 -16 8 -27 10 -12 2 -29 8 -38 13 -12 7 -6 9 26 10 57 0 67
20 11 21 l-43 1 43 10 c32 7 42 14 42 29 0 17 -7 19 -69 19 -37 0 -88 2 -112
4 -24 3 -52 2 -61 0z"/>
<path d="M8270 3780 c0 -5 8 -10 18 -11 13 0 12 -3 -5 -11 -30 -14 -29 -38 0
-38 15 0 29 9 37 25 7 14 19 25 27 25 7 0 13 5 13 10 0 6 -20 10 -45 10 -25 0
-45 -4 -45 -10z"/>
<path d="M7673 3773 c-40 -3 -53 -8 -53 -20 0 -13 7 -14 43 -8 23 4 67 9 97
10 30 2 56 7 57 12 4 10 -52 12 -144 6z"/>
<path d="M8800 3750 c0 -5 5 -10 10 -10 6 0 10 5 10 10 0 6 -4 10 -10 10 -5 0
-10 -4 -10 -10z"/>
<path d="M8367 3743 c-4 -3 -7 -12 -7 -20 0 -11 5 -11 20 -3 11 6 20 15 20 20
0 11 -23 13 -33 3z"/>
<path d="M8480 3740 c0 -5 7 -10 15 -10 8 0 15 5 15 10 0 6 -7 10 -15 10 -8 0
-15 -4 -15 -10z"/>
<path d="M7224 3715 c-16 -13 -17 -16 -4 -25 15 -9 87 -6 98 5 3 3 -12 5 -34
6 l-39 1 30 13 30 14 -31 1 c-16 0 -39 -7 -50 -15z"/>
<path d="M8625 3720 c-8 -14 3 -30 21 -30 8 0 14 9 14 20 0 21 -24 28 -35 10z"/>
<path d="M7750 3713 c-56 -6 -80 -13 -80 -23 0 -6 12 -10 28 -10 15 0 41 -4
58 -9 33 -9 87 -4 79 9 -2 4 -16 5 -30 2 -16 -3 -25 0 -25 8 0 9 15 11 60 6
35 -4 60 -3 60 2 0 19 -56 25 -150 15z"/>
<path d="M7956 3712 c-13 -21 28 -43 58 -32 18 6 16 9 -14 23 -38 20 -37 19
-44 9z"/>
<path d="M8105 3708 c-30 -16 -31 -18 -15 -28 20 -13 81 -12 100 0 12 8 11 10
-6 10 -12 0 -24 7 -28 15 -6 18 -23 19 -51 3z"/>
<path d="M7295 3661 c-8 -14 5 -19 68 -25 51 -4 57 -3 57 15 0 17 -7 19 -59
19 -33 0 -62 -4 -66 -9z"/>
<path d="M8830 3644 c0 -17 22 -14 28 4 2 7 -3 12 -12 12 -9 0 -16 -7 -16 -16z"/>
<path d="M9210 3650 c0 -5 5 -10 11 -10 5 0 7 5 4 10 -3 6 -8 10 -11 10 -2 0
-4 -4 -4 -10z"/>
<path d="M8000 3636 c0 -9 8 -16 18 -17 9 0 36 -2 60 -5 23 -3 42 -1 42 4 0 6
-17 12 -37 15 -21 3 -48 8 -60 12 -18 6 -23 3 -23 -9z"/>
<path d="M8230 3636 c-51 -18 -46 -41 10 -42 25 -1 35 0 23 3 -33 6 -28 18 15
36 32 13 33 15 12 15 -14 0 -41 -5 -60 -12z"/>
<path d="M8507 3644 c-14 -14 -6 -24 19 -24 16 0 24 5 22 13 -5 14 -31 21 -41
11z"/>
<path d="M9170 3635 c0 -9 5 -15 10 -13 12 4 11 16 -1 24 -5 3 -9 -2 -9 -11z"/>
<path d="M8970 3625 c-10 -12 -10 -15 3 -15 19 0 31 16 18 24 -5 3 -14 -1 -21
-9z"/>
<path d="M9073 3625 c-7 -20 2 -29 21 -22 9 4 13 13 10 22 -8 19 -23 19 -31 0z"/>
<path d="M7720 3615 c-10 -12 -7 -16 16 -25 37 -14 110 -9 107 8 -2 6 4 12 12
12 8 0 15 5 15 10 0 17 -136 12 -150 -5z"/>
<path d="M8775 3609 c-10 -15 3 -25 16 -12 7 7 7 13 1 17 -6 3 -14 1 -17 -5z"/>
<path d="M7502 3600 c-74 -17 -55 -32 48 -38 55 -3 80 -1 80 7 0 6 -16 11 -35
11 -26 0 -33 3 -29 15 7 17 -10 18 -64 5z"/>
<path d="M8435 3590 c-8 -13 3 -30 20 -30 14 0 27 24 18 34 -10 9 -31 7 -38
-4z"/>
<path d="M8986 3585 c-16 -12 -17 -17 -6 -30 10 -12 10 -15 -2 -15 -8 0 -24
-9 -37 -21 -20 -19 -21 -22 -7 -38 20 -22 20 -31 0 -31 -11 0 -14 -6 -9 -20 4
-12 2 -20 -5 -20 -15 0 -26 33 -12 38 17 5 15 32 -3 38 -18 7 -47 -14 -39 -27
12 -20 -24 -7 -44 16 -21 25 -22 25 -57 7 -19 -9 -35 -21 -35 -25 0 -5 4 -5
10 -2 5 3 23 -1 39 -10 17 -8 37 -15 47 -15 9 0 33 -13 53 -29 20 -15 79 -51
131 -79 52 -28 111 -67 131 -85 66 -61 91 -178 41 -185 -16 -2 -22 -8 -18 -18
4 -10 -3 -14 -29 -14 -19 0 -35 -4 -35 -9 0 -16 38 -23 59 -12 27 15 41 14 41
-4 0 -23 -43 -40 -68 -26 -11 6 -34 8 -51 5 -22 -5 -37 -2 -50 10 -12 11 -27
14 -49 10 -28 -6 -32 -4 -32 15 0 11 -4 21 -9 21 -14 0 -41 -41 -35 -52 3 -4
-2 -8 -10 -8 -9 0 -16 5 -16 10 0 11 -39 13 -64 4 -21 -8 -20 -32 2 -37 9 -3
67 -3 127 -2 145 3 225 -4 225 -20 0 -7 -21 -36 -46 -64 -51 -56 -181 -126
-264 -141 -25 -4 -81 -16 -125 -25 -101 -21 -447 -27 -466 -8 -10 10 -7 14 13
22 14 5 31 9 39 8 8 -1 14 3 14 8 0 6 -9 9 -20 8 -11 -2 -50 -5 -86 -7 -76 -4
-134 -27 -64 -25 65 2 86 -1 81 -9 -4 -7 -30 -7 -178 -3 -38 1 -54 15 -20 18
9 1 33 6 52 11 25 7 31 11 19 16 -8 4 -28 2 -43 -4 -15 -5 -38 -10 -51 -10
-17 0 -23 -4 -19 -15 5 -11 -2 -13 -33 -8 -50 8 -53 12 -15 19 18 4 30 10 27
14 -5 8 -112 -14 -123 -24 -3 -3 -14 1 -24 10 -14 13 -30 16 -71 11 -29 -3
-61 -1 -70 5 -10 5 -39 11 -65 13 -125 8 -219 25 -387 67 -44 11 -96 22 -115
25 -74 9 -325 90 -354 115 -17 14 24 9 52 -6 39 -21 231 -77 326 -95 44 -8 65
2 29 13 -10 3 4 3 31 1 27 -3 62 -12 79 -20 53 -27 287 -57 287 -37 0 6 -6 13
-12 15 -35 14 36 4 102 -14 41 -12 100 -24 130 -28 30 -4 65 -12 77 -19 12 -7
46 -11 75 -11 l53 1 -53 9 c-95 16 -96 30 -2 24 295 -16 379 -17 490 -2 63 8
144 16 179 17 36 1 70 4 75 8 6 3 42 7 80 8 39 2 85 5 103 9 36 6 45 25 13 25
-11 0 -20 7 -20 15 0 8 -7 15 -15 15 -24 0 -17 17 10 24 37 9 30 27 -7 20 -38
-7 -78 -30 -78 -44 0 -6 -10 -10 -21 -10 -17 0 -19 -3 -10 -14 19 -22 2 -26
-130 -33 -101 -5 -121 -4 -117 8 5 16 116 41 124 27 4 -5 10 -5 17 1 7 5 29
12 50 16 20 4 37 12 37 17 0 6 -10 7 -22 4 -22 -7 -166 -28 -198 -29 -63 -3
-160 5 -160 12 0 15 51 23 66 11 7 -7 17 -9 22 -6 6 3 43 8 83 12 41 3 81 10
91 15 9 5 30 9 47 9 16 0 32 4 36 9 3 5 19 12 35 16 54 12 47 28 -8 20 -54 -7
-85 1 -61 16 8 5 27 9 42 9 19 0 27 4 24 13 -2 6 -13 11 -23 11 -15 -1 -147
-20 -189 -27 -5 -1 -11 8 -13 21 -4 25 -11 27 -47 10 -33 -15 -32 -36 3 -44
15 -3 34 -8 43 -10 9 -3 35 -1 57 5 35 7 44 6 58 -10 21 -23 19 -25 -27 -33
-28 -5 -38 -3 -42 9 -5 11 -19 14 -59 11 -29 -2 -77 -5 -105 -5 -51 -1 -72
-15 -35 -24 34 -8 -82 -19 -137 -14 -63 7 -91 15 -91 27 0 9 100 30 142 30 15
0 28 5 28 11 0 8 -16 10 -52 5 -121 -15 -196 -43 -173 -65 13 -11 119 -31 169
-31 54 0 75 -13 56 -34 -20 -25 -3 -32 29 -13 17 10 50 17 80 17 44 0 51 -3
51 -19 0 -11 -5 -23 -11 -27 -14 -8 -217 -7 -265 2 -33 6 -35 8 -20 19 12 9
14 15 6 20 -6 4 -21 -2 -33 -13 -22 -21 -97 -29 -97 -11 0 5 14 9 30 9 17 0
30 5 30 10 0 13 -14 12 -65 -1 -22 -6 -105 -11 -185 -13 -116 -1 -156 2 -200
16 -30 10 -72 18 -92 18 -37 0 -51 14 -25 23 6 2 -8 7 -33 11 -121 20 -241 59
-159 52 51 -4 285 -45 356 -61 75 -18 73 -18 73 1 0 8 4 13 9 9 5 -3 13 0 16
6 7 10 76 5 111 -8 8 -3 14 1 14 11 0 9 -6 16 -12 16 -70 2 -151 12 -202 26
-120 31 -240 54 -290 54 -56 1 -139 17 -223 44 -18 6 -23 3 -23 -9 0 -13 -6
-16 -22 -12 -72 17 -114 18 -127 3 -11 -13 -9 -17 14 -26 14 -5 29 -10 33 -10
4 0 23 -8 42 -18 19 -11 64 -24 100 -31 87 -16 180 -43 180 -53 0 -4 -6 -6
-12 -3 -7 2 -33 6 -58 9 -56 7 -168 29 -335 66 -71 15 -155 27 -185 26 -48 -1
-55 -4 -58 -22 -3 -22 -2 -22 113 -75 41 -18 231 -77 275 -84 25 -4 86 -17
135 -30 121 -30 189 -43 255 -50 30 -3 78 -10 105 -15 180 -37 427 -57 767
-65 253 -6 302 -4 363 10 39 9 95 20 125 25 55 8 229 88 260 119 38 38 98 119
114 154 10 21 20 62 23 92 5 46 1 61 -28 120 -34 67 -97 128 -164 157 -17 8
-45 22 -64 32 l-35 18 25 14 c13 7 30 13 37 14 8 0 27 9 43 21 18 12 64 27
117 36 91 15 109 23 97 43 -7 12 -19 11 -126 -6 -25 -4 -39 -1 -48 9 -8 10 -9
17 -1 22 17 11 11 35 -9 35 -23 0 -47 -25 -31 -35 16 -10 12 -25 -8 -25 -27 0
-43 -20 -32 -41 8 -15 6 -17 -13 -15 -43 4 -52 18 -24 33 26 13 28 39 3 55 -7
5 -4 12 8 21 12 9 17 20 13 31 -8 19 -16 20 -41 1z m-1812 -590 c20 -9 34 -20
31 -25 -6 -10 -92 13 -108 29 -17 17 34 14 77 -4z m1341 -75 c-45 -12 -97 -12
-90 0 3 6 32 9 63 9 47 -1 52 -3 27 -9z m-1065 -40 c24 -8 24 -8 -5 -9 -16 0
-37 4 -45 9 -12 8 -11 10 5 9 11 -1 31 -5 45 -9z"/>
<path d="M6268 3583 c6 -2 18 -2 25 0 6 3 1 5 -13 5 -14 0 -19 -2 -12 -5z"/>
<path d="M9180 3564 c-15 -37 -13 -44 14 -44 25 0 42 25 25 36 -6 3 -8 12 -5
20 3 8 -1 14 -10 14 -8 0 -19 -12 -24 -26z"/>
<path d="M1659 3559 c-68 -31 -33 -79 58 -79 78 0 111 27 84 69 -16 25 -96 30
-142 10z m71 -5 c0 -11 -45 -43 -62 -44 -29 0 -30 18 -1 34 28 15 63 21 63 10z
m60 -39 c0 -8 -4 -15 -10 -15 -5 0 -10 7 -10 15 0 8 5 15 10 15 6 0 10 -7 10
-15z m-70 -5 c0 -5 -5 -10 -11 -10 -5 0 -7 5 -4 10 3 6 8 10 11 10 2 0 4 -4 4
-10z"/>
<path d="M8850 3565 c-15 -18 -5 -35 21 -35 20 0 23 8 13 34 -8 20 -18 20 -34
1z"/>
<path d="M2750 3556 c0 -22 -20 -70 -26 -63 -3 3 -1 14 4 24 6 11 7 25 3 32
-11 18 -25 -4 -41 -64 -20 -79 -42 -135 -51 -129 -5 2 -11 27 -15 55 -6 45 -8
49 -22 35 -13 -13 -13 -20 3 -63 20 -53 24 -97 12 -130 -5 -14 -4 -23 1 -23 6
0 17 19 25 43 8 23 20 41 26 39 6 -1 14 5 17 13 11 28 20 15 16 -21 -3 -26 -1
-35 7 -30 6 4 11 16 11 26 0 11 11 45 25 76 29 67 29 65 10 58 -20 -8 -19 1 5
71 24 69 24 65 5 65 -8 0 -15 -6 -15 -14z m-70 -203 c-11 -17 -11 -17 -6 0 3
10 6 24 7 30 0 9 2 9 5 0 3 -7 0 -20 -6 -30z"/>
<path d="M8726 3563 c-12 -12 -5 -23 14 -23 11 0 20 4 20 9 0 11 -26 22 -34
14z"/>
<path d="M7971 3552 c-60 -18 -18 -52 64 -52 24 0 47 5 50 10 4 6 -9 10 -31
10 -29 0 -35 3 -26 12 8 8 29 9 79 1 64 -10 99 -4 73 12 -17 11 -180 16 -209
7z"/>
<path d="M7650 3530 c0 -16 40 -27 110 -29 79 -3 74 9 -7 16 -32 3 -62 9 -67
14 -13 12 -36 11 -36 -1z"/>
<path d="M8670 3530 c0 -5 7 -10 15 -10 8 0 15 5 15 10 0 6 -7 10 -15 10 -8 0
-15 -4 -15 -10z"/>
<path d="M9300 3525 c0 -8 7 -15 15 -15 8 0 15 7 15 15 0 8 -7 15 -15 15 -8 0
-15 -7 -15 -15z"/>
<path d="M8563 3510 c-3 -11 -12 -20 -19 -20 -16 0 -19 -16 -5 -24 14 -9 38 3
45 22 3 9 9 23 12 30 3 7 -1 12 -11 12 -9 0 -19 -9 -22 -20z"/>
<path d="M8720 3510 c0 -5 4 -10 9 -10 6 0 13 5 16 10 3 6 -1 10 -9 10 -9 0
-16 -4 -16 -10z"/>
<path d="M7040 3502 c0 -16 28 -22 94 -22 34 0 67 -5 73 -11 6 -6 37 -13 69
-15 33 -3 79 -12 104 -19 25 -8 79 -17 120 -19 41 -2 95 -10 120 -16 25 -7 66
-14 93 -17 26 -3 47 -9 47 -15 0 -6 21 -8 58 -4 31 4 84 7 117 7 33 1 68 3 78
6 30 8 19 25 -15 23 -87 -5 -128 0 -128 15 0 12 -6 14 -27 8 -57 -15 -312 3
-303 22 3 6 36 11 73 11 67 1 108 13 51 15 -30 1 -67 5 -116 14 -20 3 -28 0
-28 -10 0 -24 -110 -21 -116 3 -5 15 -22 17 -152 19 -81 2 -162 5 -179 8 -18
3 -33 2 -33 -3z"/>
<path d="M8097 3468 c-6 -4 30 -6 81 -4 51 2 96 6 100 10 9 10 -165 4 -181 -6z"/>
<path d="M1026 3433 c-3 -21 -8 -60 -11 -88 -3 -27 -8 -72 -11 -99 -4 -31 -3
-46 4 -42 5 3 13 -2 17 -12 6 -16 7 -16 21 2 8 11 14 30 14 43 0 13 9 49 20
80 11 32 20 63 20 70 0 24 -20 13 -25 -14 -4 -16 -13 -41 -21 -58 -14 -29 -14
-27 -9 40 3 39 6 79 7 89 2 10 -2 21 -9 23 -6 2 -13 -11 -17 -34z m11 -175
c-3 -8 -6 -5 -6 6 -1 11 2 17 5 13 3 -3 4 -12 1 -19z"/>
<path d="M7755 3454 c33 -7 86 -13 118 -14 32 0 71 -7 86 -15 16 -8 42 -14 57
-14 66 0 130 -7 142 -14 16 -11 192 14 192 26 0 5 -12 7 -27 3 -38 -8 -133
-17 -108 -10 54 16 25 22 -94 19 -98 -3 -133 0 -138 9 -6 9 -50 15 -148 19
-134 5 -138 4 -80 -9z"/>
<path d="M975 3450 c-12 -19 -17 -250 -6 -250 12 0 23 127 19 205 -2 44 -6 56
-13 45z"/>
<path d="M1417 3434 c-4 -4 -7 -35 -8 -68 -1 -73 -17 -126 -18 -59 -1 54 -16
93 -37 93 -12 0 -14 -5 -9 -17 4 -10 12 -47 17 -82 9 -61 31 -111 49 -111 5 0
10 21 11 48 0 26 2 52 3 57 18 102 15 161 -8 139z"/>
<path d="M8430 3420 c10 -19 50 -29 50 -12 0 14 -24 32 -42 32 -16 0 -17 -3
-8 -20z"/>
<path d="M3460 3408 c-40 -64 -90 -170 -79 -166 8 2 28 32 45 66 17 35 39 71
48 81 17 18 21 41 8 41 -4 0 -14 -10 -22 -22z"/>
<path d="M3767 3414 c-10 -11 -8 -52 5 -95 18 -61 31 -47 23 24 -7 62 -15 83
-28 71z"/>
<path d="M2106 3393 c-10 -35 -11 -138 -1 -143 5 -3 15 24 22 60 16 86 16 100
-1 100 -8 0 -17 -8 -20 -17z"/>
<path d="M2210 3401 c0 -4 -18 -41 -40 -81 -44 -81 -44 -80 -30 -80 5 0 25 31
45 69 19 38 39 72 45 76 15 9 12 25 -5 25 -8 0 -15 -4 -15 -9z"/>
<path d="M2406 3388 c-9 -36 -7 -108 5 -129 17 -32 26 -13 19 38 -4 26 -4 59
0 74 8 27 4 39 -11 39 -3 0 -9 -10 -13 -22z"/>
<path d="M1473 3378 c-30 -61 -42 -128 -23 -128 6 0 10 10 10 23 0 12 9 42 21
66 20 45 12 81 -8 39z"/>
<path d="M3496 3357 c-33 -55 -50 -106 -41 -115 4 -4 10 -1 12 6 3 7 20 41 39
77 37 69 39 75 24 75 -5 0 -21 -19 -34 -43z"/>
<path d="M3359 3343 c-22 -51 -21 -83 2 -43 22 40 37 90 27 90 -5 0 -18 -21
-29 -47z"/>
<path d="M3871 3365 c-21 -52 -26 -88 -10 -83 14 5 32 72 26 98 -3 10 -8 4
-16 -15z"/>
<path d="M8253 3373 c-20 -7 -15 -23 7 -23 13 0 18 -5 14 -15 -7 -18 7 -20 24
-3 21 21 15 48 -10 47 -13 0 -29 -3 -35 -6z"/>
<path d="M2773 3358 c-12 -15 -43 -94 -43 -108 0 -29 20 -3 39 51 22 59 24 82
4 57z"/>
<path d="M3260 3353 c0 -26 46 -98 54 -85 7 12 -27 86 -44 97 -5 3 -10 -2 -10
-12z"/>
<path d="M890 3338 c0 -13 8 -44 18 -70 18 -47 33 -72 28 -46 -2 7 -6 31 -10
53 -14 76 -16 85 -26 85 -6 0 -10 -10 -10 -22z"/>
<path d="M1960 3350 c0 -24 51 -110 65 -110 20 0 19 0 -12 65 -24 49 -53 73
-53 45z"/>
<path d="M7960 3350 c0 -5 7 -10 16 -10 8 0 12 5 9 10 -3 6 -10 10 -16 10 -5
0 -9 -4 -9 -10z"/>
<path d="M8120 3349 c0 -5 5 -7 10 -4 6 3 10 8 10 11 0 2 -4 4 -10 4 -5 0 -10
-5 -10 -11z"/>
<path d="M8795 3350 c-4 -6 -2 -10 2 -10 5 0 14 -13 20 -30 12 -32 46 -50 94
-50 36 0 36 8 1 40 -40 38 -107 66 -117 50z m95 -50 c12 -8 11 -10 -7 -10 -12
0 -25 5 -28 10 -8 13 15 13 35 0z"/>
<path d="M1115 3313 c-4 -21 -11 -51 -16 -67 -11 -37 -11 -46 0 -46 5 0 17 26
26 58 9 31 18 65 21 75 4 11 0 17 -10 17 -10 0 -17 -13 -21 -37z"/>
<path d="M2215 3316 c-9 -21 -14 -48 -12 -60 3 -19 5 -18 15 9 7 17 17 38 23
49 7 13 8 21 0 29 -7 7 -15 -1 -26 -27z"/>
<path d="M1494 3316 c-7 -31 -2 -58 12 -63 12 -4 27 64 18 79 -10 15 -24 8
-30 -16z"/>
<path d="M3525 3314 c-9 -14 -19 -41 -22 -60 -5 -28 -3 -33 10 -28 18 6 30 32
21 45 -3 5 2 19 10 31 9 12 16 26 16 30 0 17 -18 7 -35 -18z"/>
<path d="M3951 3309 c-26 -34 -26 -39 -3 -39 10 0 31 13 46 29 l27 28 -25 5
c-18 4 -30 -2 -45 -23z"/>
<path d="M4227 3323 c-6 -10 -10 -75 -8 -125 2 -53 21 -47 21 6 0 36 4 45 23
51 19 6 19 8 5 12 -17 4 -22 15 -19 40 2 14 -16 26 -22 16z"/>
<path d="M1277 3314 c-4 -4 -7 -24 -7 -45 0 -31 12 -49 34 -49 1 0 0 19 -2 43
-4 44 -13 62 -25 51z"/>
<path d="M2292 3303 c-17 -33 -22 -72 -11 -78 16 -10 21 0 25 50 4 48 0 56
-14 28z"/>
<path d="M1190 3293 c-27 -32 -51 -83 -41 -83 13 0 63 78 59 92 -2 5 -10 1
-18 -9z"/>
<path d="M2794 3302 c-15 -10 -23 -47 -13 -63 11 -19 25 -2 32 39 6 32 2 38
-19 24z"/>
<path d="M3588 3292 c-9 -9 -19 -28 -23 -40 -11 -38 24 -24 40 15 16 37 5 51
-17 25z"/>
<path d="M1575 3287 c-8 -18 11 -57 26 -57 7 0 9 10 4 28 -9 36 -23 50 -30 29z"/>
<path d="M2348 3275 c-9 -19 -9 -28 0 -37 15 -15 18 -11 27 30 8 39 -10 44
-27 7z"/>
<path d="M4301 3282 c-7 -13 -11 -26 -8 -28 8 -8 29 25 25 38 -3 8 -9 4 -17
-10z"/>
<path d="M8995 3290 c3 -5 10 -10 16 -10 5 0 9 5 9 10 0 6 -7 10 -16 10 -8 0
-12 -4 -9 -10z"/>
<path d="M1630 3265 c0 -17 5 -25 13 -22 6 2 12 12 12 22 0 10 -6 20 -12 23
-8 2 -13 -6 -13 -23z"/>
<path d="M3683 3275 c-5 -15 22 -55 37 -55 4 0 2 16 -4 35 -12 38 -23 44 -33
20z"/>
<path d="M4040 3276 c-6 -9 -10 -21 -8 -28 3 -8 9 -4 17 10 15 28 9 39 -9 18z"/>
<path d="M4080 3246 c0 -44 30 -99 46 -83 4 4 2 13 -4 19 -7 7 -12 23 -12 38
0 35 -11 70 -21 70 -5 0 -9 -20 -9 -44z"/>
<path d="M8493 3274 c-53 -23 -43 -44 20 -44 30 0 56 3 60 6 8 9 -23 54 -37
53 -6 0 -26 -7 -43 -15z"/>
<path d="M840 3250 c0 -26 41 -90 58 -90 18 0 15 12 -14 64 -27 49 -44 59 -44
26z"/>
<path d="M2530 3255 c0 -8 5 -15 10 -15 6 0 10 7 10 15 0 8 -4 15 -10 15 -5 0
-10 -7 -10 -15z"/>
<path d="M705 3238 c9 -29 54 -78 72 -78 20 0 16 13 -17 58 -33 46 -66 58 -55
20z"/>
<path d="M8951 3236 c-7 -8 -4 -16 12 -26 43 -27 107 -18 107 15 0 18 -5 19
-30 3 -17 -11 -26 -10 -50 4 -22 13 -31 14 -39 4z"/>
<path d="M4255 3220 c-10 -16 6 -78 23 -92 14 -11 15 -9 9 21 -4 18 -7 44 -7
57 0 24 -14 32 -25 14z"/>
<path d="M8334 3208 c-4 -6 1 -17 10 -23 15 -12 15 -15 -10 -34 -15 -12 -33
-21 -40 -21 -19 0 -64 -22 -64 -32 0 -4 9 -8 21 -8 11 0 17 -4 14 -10 -3 -5
-25 -10 -49 -10 -23 0 -64 -7 -90 -16 -37 -13 -44 -19 -36 -29 6 -8 24 -16 38
-18 15 -2 -25 -5 -88 -7 -63 -2 -122 -2 -130 -1 -28 4 -135 1 -172 -5 -38 -6
-53 -24 -20 -24 10 0 22 -4 28 -9 5 -5 32 -14 59 -19 41 -9 53 -8 65 4 12 12
9 14 -25 14 -21 0 -36 3 -32 6 3 4 50 6 104 5 100 -1 286 13 316 25 28 11 19
21 -25 29 l-43 8 34 10 c24 8 38 7 52 -1 24 -15 29 -15 29 1 0 6 18 20 40 29
28 11 38 21 34 32 -4 10 2 15 23 18 25 3 28 7 25 33 -2 17 -13 38 -25 47 -26
21 -33 22 -43 6z"/>
<path d="M8730 3189 c-14 -25 2 -49 33 -49 19 0 19 1 3 19 -11 12 -14 21 -7
26 16 9 13 25 -4 25 -8 0 -19 -9 -25 -21z"/>
<path d="M4320 3165 c0 -43 12 -45 27 -6 9 24 8 31 -4 35 -22 9 -23 8 -23 -29z"/>
<path d="M8856 3171 c-4 -5 -3 -16 0 -24 3 -8 0 -18 -6 -22 -20 -12 -82 -16
-95 -5 -15 13 -47 2 -42 -14 2 -6 19 -11 39 -12 19 0 43 -4 52 -7 10 -4 23 -4
29 0 13 8 32 13 62 16 21 2 54 51 42 63 -3 4 -14 1 -23 -7 -14 -11 -18 -11
-29 4 -14 19 -21 21 -29 8z"/>
<path d="M8555 3163 c-48 -12 -39 -42 12 -43 14 0 21 -5 17 -13 -3 -9 13 -16
51 -23 68 -12 94 -1 37 17 -23 7 -42 16 -42 21 0 11 -38 48 -47 47 -5 -1 -17
-3 -28 -6z"/>
<path d="M9072 3159 c3 -8 8 -13 11 -11 9 3 7 11 -5 18 -6 4 -8 0 -6 -7z"/>
<path d="M4401 3139 c-10 -27 -4 -79 9 -79 11 0 19 83 9 94 -5 5 -12 -1 -18
-15z"/>
<path d="M8980 3135 c0 -9 12 -21 28 -27 37 -16 36 -16 22 -33 -14 -17 -59
-10 -76 13 -13 18 -27 1 -18 -22 6 -17 18 -21 92 -30 41 -6 42 -6 42 24 0 20
5 30 15 30 31 0 13 16 -30 28 -25 7 -45 16 -45 22 0 5 -7 10 -15 10 -8 0 -15
-7 -15 -15z"/>
<path d="M9115 3132 c-2 -3 -2 -9 1 -13 7 -12 74 -12 74 0 0 9 -67 20 -75 13z"/>
<path d="M2697 3075 c6 -61 0 -67 -29 -30 -23 30 -42 33 -33 5 5 -14 2 -20
-10 -20 -9 0 -15 -6 -12 -12 2 -7 -3 -18 -12 -25 -13 -9 -13 -14 -4 -24 10
-10 17 -9 32 5 33 30 58 -7 28 -43 -7 -9 -19 -38 -25 -65 -7 -27 -19 -57 -26
-68 -14 -19 -16 -17 -52 31 -21 28 -42 51 -46 51 -4 0 -19 -11 -34 -23 -34
-30 -25 -47 26 -47 32 0 39 -4 44 -25 4 -16 13 -25 26 -25 22 0 25 -12 11 -38
-4 -9 -11 -29 -15 -44 -10 -43 13 -34 31 12 12 29 23 42 42 46 33 7 40 10 76
34 17 11 40 24 52 29 34 15 38 32 13 53 -22 18 -23 18 -54 -1 -58 -37 -88 -52
-93 -48 -7 8 28 71 44 80 9 5 12 17 8 30 -4 12 -3 17 2 11 13 -18 59 -10 55
10 -5 26 15 18 22 -9 4 -14 11 -23 16 -20 16 10 11 43 -7 54 -10 5 -15 12 -11
16 8 8 48 -13 48 -25 0 -6 7 -10 16 -10 11 0 14 6 9 20 -4 11 -2 20 4 20 6 0
11 7 11 15 0 8 -4 15 -10 15 -5 0 -10 5 -10 10 0 6 7 10 15 10 8 0 15 5 15 11
0 7 -11 9 -30 6 -37 -8 -38 1 -2 30 31 26 10 33 -25 8 -14 -10 -24 -12 -28 -5
-9 14 -42 12 -48 -2 -3 -7 -6 2 -6 20 -1 21 -6 32 -15 32 -12 0 -13 -11 -9
-55z m-187 -235 c0 -19 -20 -27 -33 -13 -8 7 11 33 24 33 5 0 9 -9 9 -20z
m250 -9 c0 -16 -56 -51 -92 -57 -29 -5 -31 -4 -13 7 11 7 22 15 25 19 22 28
80 50 80 31z"/>
<path d="M4464 3088 c-26 -39 -64 -114 -64 -124 0 -2 5 -4 10 -4 6 0 15 12 20
26 6 14 22 41 37 60 18 24 23 38 16 45 -8 8 -13 7 -19 -3z"/>
<path d="M2045 3080 c-3 -5 3 -40 14 -77 11 -38 21 -86 23 -107 2 -22 8 -41
14 -43 16 -5 15 73 -1 127 -8 25 -14 52 -13 60 3 34 -3 50 -16 50 -8 0 -18 -4
-21 -10z"/>
<path d="M2236 3062 c-22 -25 -66 -139 -66 -173 0 -15 6 -29 14 -32 24 -9 29
-137 5 -137 -5 0 -11 11 -15 25 -7 28 -24 24 -24 -6 0 -25 36 -60 55 -53 23 9
29 71 16 176 l-12 97 31 60 c30 60 29 78 -4 43z"/>
<path d="M8815 3050 c-9 -15 13 -40 30 -34 16 7 7 44 -11 44 -7 0 -16 -5 -19
-10z"/>
<path d="M3430 3031 c0 -11 5 -23 10 -26 8 -5 13 12 9 30 -4 16 -19 13 -19 -4z"/>
<path d="M3546 3034 c-9 -22 -8 -24 9 -24 8 0 15 9 15 20 0 24 -15 27 -24 4z"/>
<path d="M3307 3034 c-11 -11 -8 -44 3 -44 15 0 24 30 13 41 -5 5 -12 6 -16 3z"/>
<path d="M3750 3030 c0 -5 5 -10 10 -10 6 0 10 5 10 10 0 6 -4 10 -10 10 -5 0
-10 -4 -10 -10z"/>
<path d="M4490 2990 c-23 -32 -24 -60 -2 -68 8 -2 12 7 12 26 0 16 7 35 15 42
8 7 15 16 15 21 0 18 -19 8 -40 -21z"/>
<path d="M2404 2983 c-27 -42 -74 -134 -74 -145 0 -23 35 21 63 80 16 34 34
65 38 68 5 3 9 9 9 15 0 18 -18 9 -36 -18z"/>
<path d="M1563 2988 c-6 -7 -19 -44 -31 -83 -18 -65 -27 -112 -39 -225 -2 -25
-9 -49 -14 -55 -14 -14 -11 -35 5 -35 22 0 25 11 32 96 6 89 15 129 50 227 13
38 24 72 24 78 0 13 -16 11 -27 -3z"/>
<path d="M3155 2981 c-5 -8 20 -41 31 -41 2 0 4 11 4 25 0 25 -23 35 -35 16z"/>
<path d="M4109 2958 c-5 -66 18 -164 58 -243 32 -62 42 -43 15 28 -28 69 -42
125 -42 164 0 17 -3 38 -6 47 -7 19 -24 21 -25 4z"/>
<path d="M4559 2949 c-7 -14 -8 -24 -1 -31 15 -15 32 0 32 28 0 30 -15 31 -31
3z"/>
<path d="M3050 2950 c0 -5 7 -10 16 -10 8 0 12 5 9 10 -3 6 -10 10 -16 10 -5
0 -9 -4 -9 -10z"/>
<path d="M1612 2793 c-99 -181 -97 -201 8 -73 34 41 71 85 81 98 19 23 25 42
12 42 -5 -1 -23 -21 -41 -46 -45 -61 -52 -49 -13 21 18 31 31 64 29 73 -2 9
-36 -43 -76 -115z"/>
<path d="M4724 2879 c-10 -16 -13 -96 -5 -126 15 -54 26 -31 26 52 0 80 -5 99
-21 74z"/>
<path d="M4660 2848 c0 -20 7 -41 16 -49 14 -11 15 -9 9 27 -10 53 -25 67 -25
22z"/>
<path d="M4000 2845 c-18 -22 17 -145 42 -145 10 0 10 0 -7 65 -8 31 -12 62
-9 69 8 20 -12 28 -26 11z"/>
<path d="M1400 2828 c0 -13 9 -52 20 -88 11 -36 20 -75 20 -87 0 -13 5 -23 10
-23 13 0 12 34 -3 135 -9 62 -16 81 -29 83 -13 3 -18 -3 -18 -20z"/>
<path d="M4265 2840 c-12 -20 -41 -155 -40 -184 2 -44 25 -46 25 -2 0 32 22
145 36 180 7 18 -11 22 -21 6z"/>
<path d="M4817 2833 c-11 -10 -8 -49 5 -78 12 -27 34 -36 24 -9 -3 9 -6 33 -6
55 0 37 -8 48 -23 32z"/>
<path d="M4347 2823 c-2 -5 -10 -26 -17 -48 -7 -22 -26 -64 -41 -94 -30 -57
-31 -73 -4 -51 13 11 14 10 10 -3 -14 -35 19 -26 61 16 48 49 52 57 27 57 -15
0 -15 2 1 19 11 12 14 21 7 26 -6 3 -25 -14 -43 -40 -17 -25 -35 -45 -39 -45
-4 0 8 34 27 76 19 41 34 79 34 85 0 11 -17 12 -23 2z"/>
<path d="M2085 2800 c-3 -5 1 -10 9 -10 9 0 16 5 16 10 0 6 -4 10 -9 10 -6 0
-13 -4 -16 -10z"/>
<path d="M3233 2773 c-7 -2 -13 -10 -13 -16 0 -19 -31 -46 -47 -40 -11 4 -14
2 -11 -8 3 -9 17 -13 39 -12 19 1 71 2 117 2 45 0 82 5 82 10 0 5 -34 12 -75
16 -72 6 -97 16 -75 30 23 15 10 29 -17 18z"/>
<path d="M3532 2768 c-28 -36 -25 -118 5 -118 12 0 14 7 10 34 -3 22 0 41 9
55 22 31 0 58 -24 29z"/>
<path d="M4944 2766 c-8 -20 3 -66 16 -66 10 0 8 65 -3 76 -3 4 -9 -1 -13 -10z"/>
<path d="M8485 2760 l-20 -9 20 -1 c64 -7 125 -1 125 10 0 12 -97 12 -125 0z"/>
<path d="M1740 2728 c-109 -96 -137 -128 -112 -128 11 0 152 138 152 150 0 14
0 14 -40 -22z"/>
<path d="M3079 2729 c-8 -16 -8 -28 0 -46 14 -31 30 -22 23 13 -4 23 -2 25 17
19 25 -8 30 19 5 29 -25 10 -33 7 -45 -15z"/>
<path d="M5010 2717 c0 -34 7 -50 19 -42 10 6 0 75 -10 75 -5 0 -9 -15 -9 -33z"/>
<path d="M1056 2724 c-5 -12 -2 -15 10 -10 22 9 52 -10 106 -67 25 -27 51 -46
57 -43 16 10 13 26 -4 26 -8 0 -26 18 -39 39 -14 22 -35 46 -48 55 -29 21 -74
21 -82 0z"/>
<path d="M1225 2723 c5 -10 15 -44 23 -75 9 -35 20 -58 28 -58 18 0 18 9 -7
85 -13 42 -26 65 -36 65 -11 0 -13 -5 -8 -17z"/>
<path d="M3800 2730 c0 -15 43 -40 70 -40 l25 0 -30 18 c-41 25 -65 33 -65 22z"/>
<path d="M944 2698 c-7 -10 41 -58 59 -58 15 0 6 27 -16 48 -27 25 -33 27 -43
10z"/>
<path d="M5077 2704 c-10 -10 -9 -54 2 -54 12 0 22 43 13 52 -5 5 -11 5 -15 2z"/>
<path d="M5444 2702 c-13 -9 -94 -117 -94 -125 0 -19 20 -1 56 51 59 83 63 91
38 74z"/>
<path d="M900 2666 c0 -39 26 -69 36 -41 4 9 2 21 -5 28 -6 6 -11 19 -11 29 0
10 -4 18 -10 18 -5 0 -10 -15 -10 -34z"/>
<path d="M5334 2648 c-10 -29 -20 -56 -22 -60 -2 -4 0 -8 5 -8 11 0 53 84 53
105 0 31 -17 13 -36 -37z"/>
<path d="M5520 2689 c0 -6 -25 -37 -57 -70 -31 -32 -52 -59 -47 -59 14 0 25
11 77 69 47 53 56 71 37 71 -5 0 -10 -5 -10 -11z"/>
<path d="M2623 2660 c-24 -10 -31 -30 -10 -30 6 0 23 9 37 20 27 21 13 26 -27
10z"/>
<path d="M5247 2647 c-7 -17 20 -80 31 -73 10 6 -8 86 -19 86 -4 0 -9 -6 -12
-13z"/>
<path d="M5560 2652 c0 -4 -22 -31 -48 -60 -27 -29 -47 -54 -44 -56 9 -10 32
8 58 45 35 51 50 50 24 0 -11 -22 -16 -42 -11 -46 11 -6 10 -8 45 59 27 51 28
68 1 46 -13 -11 -14 -10 -9 4 3 9 1 16 -5 16 -6 0 -11 -4 -11 -8z"/>
<path d="M5665 2647 c-4 -11 -2 -37 6 -60 15 -45 63 -106 74 -95 4 4 0 14 -9
23 -23 23 -45 68 -55 112 -7 30 -10 34 -16 20z"/>
<path d="M5903 2586 c4 -46 15 -83 32 -114 17 -30 26 -62 27 -94 0 -31 5 -47
12 -45 6 2 13 12 14 21 2 10 17 39 33 65 46 74 62 112 50 124 -10 10 -13 4
-37 -62 -2 -8 -7 -11 -10 -9 -4 5 12 48 34 91 2 4 -1 7 -6 7 -6 0 -24 -29 -41
-65 -17 -36 -33 -65 -36 -65 -2 0 -3 36 -1 80 2 44 -1 80 -5 80 -5 0 -9 -22
-9 -49 0 -28 -4 -52 -9 -55 -13 -8 -33 47 -35 98 -1 25 -5 48 -10 53 -5 4 -6
-22 -3 -61z"/>
<path d="M2876 2631 c-4 -7 -5 -15 -2 -18 9 -9 19 4 14 18 -4 11 -6 11 -12 0z"/>
<path d="M2962 2619 c3 -8 8 -13 11 -11 9 3 7 11 -5 18 -6 4 -8 0 -6 -7z"/>
<path d="M5850 2543 c0 -21 -9 -67 -20 -103 -24 -78 -11 -103 19 -36 11 27 29
50 42 54 l22 9 -22 15 c-14 10 -19 21 -15 32 8 20 -3 66 -16 66 -6 0 -10 -17
-10 -37z"/>
<path d="M5626 2548 c-10 -38 -7 -58 9 -58 11 0 15 11 15 40 0 43 -14 54 -24
18z"/>
<path d="M4475 2501 c-38 -17 -87 -29 -148 -37 -37 -5 -47 -12 -47 -30 0 -13
8 -14 38 -9 21 3 51 1 66 -5 37 -14 69 -4 61 19 -9 29 60 60 114 52 43 -6 71
-31 35 -31 -34 0 -105 -41 -101 -59 2 -9 9 -15 15 -13 7 1 25 -4 41 -13 16 -8
31 -12 34 -9 3 3 20 6 38 6 59 1 74 31 44 88 -11 22 -28 33 -67 45 -65 19 -74
19 -123 -4z m165 -71 c0 -5 -2 -10 -4 -10 -3 0 -8 5 -11 10 -3 6 -1 10 4 10 6
0 11 -4 11 -10z m-45 -29 c-3 -6 -11 -11 -17 -11 -6 0 -6 6 2 15 14 17 26 13
15 -4z"/>
<path d="M6074 2433 c-34 -46 -54 -91 -48 -107 3 -8 -4 -24 -15 -35 -23 -23
-28 -55 -8 -49 6 3 17 15 23 27 7 13 30 42 53 65 38 39 52 66 33 66 -4 0 -13
-5 -19 -11 -24 -24 -34 -3 -13 24 12 15 20 32 18 38 -2 5 -13 -2 -24 -18z"/>
<path d="M3620 2438 c-57 -12 -127 -13 -207 -3 -45 6 -63 5 -63 -4 0 -6 15
-11 33 -11 18 0 42 -7 53 -15 17 -13 14 -14 -43 -15 -74 0 -87 -21 -25 -40 20
-7 44 -21 52 -31 13 -16 20 -17 50 -9 47 14 50 13 50 -10 0 -10 -9 -24 -21
-30 -35 -19 -113 -40 -149 -40 -20 0 -41 -5 -47 -11 -18 -18 -113 -24 -113 -7
0 18 -55 41 -80 33 -11 -3 -20 -12 -20 -19 0 -31 33 -41 135 -43 56 -1 129 -9
162 -17 50 -13 75 -14 130 -6 104 16 146 25 171 39 40 21 24 31 -50 29 -41 -1
-56 -3 -35 -5 20 -2 37 -8 37 -12 0 -22 -198 -41 -241 -23 -14 6 -15 9 -3 19
8 8 15 9 19 3 8 -13 55 -13 55 0 0 6 -4 10 -10 10 -5 0 -10 5 -10 10 0 6 8 10
19 10 10 0 29 8 42 18 13 10 32 22 43 25 14 6 17 13 12 33 -7 25 -6 26 31 20
77 -13 185 36 143 65 -8 5 -28 7 -45 4 -28 -5 -28 -5 -10 10 17 13 18 16 5 25
-8 5 -17 9 -20 9 -3 -1 -25 -6 -50 -11z m20 -26 c0 -12 -79 -47 -87 -39 -4 5
57 39 85 46 1 1 2 -3 2 -7z m55 -32 c4 -6 -6 -10 -22 -9 -25 0 -26 1 -8 9 11
5 21 9 22 9 1 1 5 -3 8 -9z"/>
<path d="M5067 2363 c-13 -12 -7 -60 8 -73 14 -12 15 -8 9 31 -8 50 -8 51 -17
42z"/>
<path d="M4666 2351 c21 -19 77 -31 90 -20 26 21 14 29 -43 29 -33 0 -53 -4
-47 -9z"/>
<path d="M5250 2330 c0 -16 5 -30 10 -30 6 0 10 14 10 30 0 17 -4 30 -10 30
-5 0 -10 -13 -10 -30z"/>
<path d="M5560 2325 c-7 -9 -10 -18 -7 -22 8 -7 37 15 37 28 0 14 -16 11 -30
-6z"/>
<path d="M6207 2333 c-4 -3 -7 -24 -7 -45 0 -56 25 -50 28 7 1 42 -5 54 -21
38z"/>
<path d="M4850 2315 c0 -8 -9 -15 -20 -15 -11 0 -20 -4 -20 -9 0 -20 19 -20
45 1 17 13 40 21 61 20 19 -1 34 3 34 8 0 6 -22 10 -50 10 -38 0 -50 -4 -50
-15z"/>
<path d="M5456 2309 c-14 -21 -12 -49 4 -49 4 0 10 8 13 18 2 9 8 25 12 35 10
24 -11 22 -29 -4z"/>
<path d="M4606 2312 c-3 -6 4 -12 17 -16 34 -9 87 -7 87 3 0 5 -12 9 -28 9
-15 -1 -37 2 -49 6 -12 4 -24 3 -27 -2z"/>
<path d="M6306 2282 c-10 -19 -11 -33 -5 -45 15 -26 32 -21 27 8 -3 14 -1 28
3 31 12 7 11 34 -1 34 -5 0 -16 -13 -24 -28z"/>
<path d="M2627 2288 c-21 -13 -1 -18 76 -21 68 -2 99 5 86 18 -8 8 -149 11
-162 3z"/>
<path d="M6430 2274 c-14 -35 -13 -87 2 -82 8 3 30 64 38 106 0 1 -7 2 -15 2
-9 0 -20 -12 -25 -26z"/>
<path d="M3920 2254 c0 -13 5 -26 10 -29 6 -3 10 3 10 14 0 16 6 21 24 21 23
0 24 -1 12 -26 -15 -28 -11 -57 9 -74 10 -8 13 0 11 42 -1 41 2 53 14 53 9 0
16 -11 18 -28 4 -32 18 -31 40 1 13 20 13 22 -5 22 -10 0 -25 6 -31 12 -7 7
-35 13 -62 14 -46 1 -50 -1 -50 -22z"/>
<path d="M4090 2227 c-29 -15 -40 -47 -15 -47 9 0 13 5 10 10 -3 6 5 14 18 19
29 11 45 31 25 31 -7 0 -24 -6 -38 -13z"/>
<path d="M3505 2219 c-28 -6 -26 -7 13 -8 42 -1 53 3 30 11 -7 2 -26 1 -43 -3z"/>
<path d="M6497 2215 c-4 -8 -14 -15 -24 -15 -13 0 -14 -3 -5 -12 7 -7 12 -25
12 -40 0 -15 5 -28 10 -28 6 0 10 7 10 16 0 13 3 14 13 5 10 -8 19 -4 35 19
23 31 13 52 -14 30 -12 -11 -14 -9 -12 10 3 26 -17 38 -25 15z"/>
<path d="M3764 2194 c3 -9 6 -18 6 -20 0 -2 5 -4 10 -4 6 0 10 9 10 20 0 12
-7 20 -16 20 -11 0 -14 -5 -10 -16z"/>
<path d="M4214 2186 c-8 -22 2 -46 20 -46 24 0 26 13 5 39 -16 19 -20 21 -25
7z"/>
<path d="M5495 2183 c-43 -8 -81 -15 -82 -17 -9 -9 -33 -122 -29 -133 9 -22
26 -14 26 12 0 14 10 44 21 67 l21 42 24 -60 c26 -62 49 -93 61 -81 3 4 -1 24
-11 43 -18 38 -17 44 6 48 27 5 99 47 105 62 7 19 -13 34 -42 33 -11 -1 -56
-8 -100 -16z m115 -13 c0 -27 -92 -59 -115 -40 -23 19 -18 26 28 37 56 14 87
15 87 3z"/>
<path d="M5697 2184 c-3 -4 0 -16 8 -28 8 -11 15 -30 15 -42 0 -28 10 -54 20
-54 4 0 13 14 20 30 15 36 35 38 68 8 l24 -23 28 35 c36 44 28 61 -11 24 -29
-28 -30 -28 -35 -7 -8 29 -26 34 -59 17 -34 -17 -35 -17 -35 -1 0 17 -34 49
-43 41z"/>
<path d="M6628 2165 c-19 -25 -23 -45 -10 -45 8 0 52 54 52 65 0 14 -27 2 -42
-20z"/>
<path d="M3890 2170 c0 -15 27 -23 48 -15 16 7 15 8 -3 15 -28 12 -45 12 -45
0z"/>
<path d="M4502 2169 c2 -7 10 -15 17 -17 8 -3 12 1 9 9 -2 7 -10 15 -17 17 -8
3 -12 -1 -9 -9z"/>
<path d="M4720 2151 c0 -12 6 -21 15 -21 8 0 15 4 15 9 0 5 -7 14 -15 21 -13
10 -15 9 -15 -9z"/>
<path d="M6040 2106 c0 -30 4 -57 8 -60 5 -3 24 11 43 30 33 34 34 35 39 12 3
-13 18 -29 33 -36 24 -12 30 -11 54 8 31 24 75 81 68 89 -3 2 -25 -14 -48 -37
-51 -50 -75 -54 -84 -12 -8 40 -16 44 -46 20 -32 -26 -35 -25 -39 7 -2 14 -9
28 -15 31 -9 3 -13 -12 -13 -52z"/>
<path d="M4347 2135 c-8 -18 11 -31 25 -17 11 11 3 32 -12 32 -4 0 -10 -7 -13
-15z"/>
<path d="M5910 2090 c0 -5 5 -10 10 -10 6 0 10 5 10 10 0 6 -4 10 -10 10 -5 0
-10 -4 -10 -10z"/>
<path d="M6626 2074 c-22 -33 -13 -43 16 -18 19 17 19 14 -6 -29 -27 -47 -29
-66 -6 -52 12 7 64 86 58 89 -2 0 -13 9 -24 19 -21 17 -22 17 -38 -9z"/>
<path d="M5592 2079 c3 -8 8 -13 11 -11 9 3 7 11 -5 18 -6 4 -8 0 -6 -7z"/>
<path d="M6260 2019 c0 -5 5 -7 10 -4 6 3 10 8 10 11 0 2 -4 4 -10 4 -5 0 -10
-5 -10 -11z"/>
<path d="M6670 1974 c-13 -34 -13 -44 4 -44 13 0 26 28 26 58 0 22 -20 13 -30
-14z"/>
<path d="M6755 1960 c-11 -17 5 -32 21 -19 8 6 14 15 14 20 0 12 -27 11 -35
-1z"/>
<path d="M5980 1944 c0 -26 39 -37 83 -24 49 14 38 27 -30 33 -41 4 -53 2 -53
-9z"/>
<path d="M7076 1928 c-18 -28 -33 -88 -19 -73 5 6 20 27 32 47 24 40 12 64
-13 26z"/>
<path d="M6151 1930 c-10 -6 -6 -12 17 -24 34 -17 52 -20 52 -8 0 15 -56 41
-69 32z"/>
<path d="M6842 1923 c5 -25 28 -28 28 -4 0 12 -6 21 -16 21 -9 0 -14 -7 -12
-17z"/>
<path d="M6887 1903 c-12 -11 -8 -23 8 -23 8 0 15 7 15 15 0 16 -12 20 -23 8z"/>
<path d="M6953 1879 c-7 -7 -13 -22 -13 -33 0 -19 1 -19 16 -4 9 8 14 23 12
32 -2 14 -5 15 -15 5z"/>
<path d="M7106 1868 c-17 -23 -21 -58 -8 -58 4 0 15 18 24 40 18 43 9 54 -16
18z"/>
<path d="M7156 1861 c-29 -32 -14 -38 19 -8 21 19 25 27 14 27 -9 0 -24 -9
-33 -19z"/>
<path d="M7211 1840 c-12 -17 -20 -36 -17 -43 3 -8 5 -8 5 2 1 9 5 10 14 4 8
-7 21 -5 41 8 25 15 27 19 13 25 -9 3 -17 12 -17 20 0 22 -15 16 -39 -16z"/>
<path d="M7770 1800 c0 -48 24 -100 46 -100 13 0 12 5 -5 29 -12 16 -21 45
-21 64 0 20 -4 39 -10 42 -6 4 -10 -10 -10 -35z"/>
<path d="M7388 1805 c-6 -29 10 -45 23 -24 13 21 11 49 -5 49 -7 0 -16 -11
-18 -25z"/>
<path d="M7478 1821 l-26 -6 24 -18 c13 -10 24 -13 24 -7 0 5 20 10 45 10 49
0 51 -3 30 -40 -17 -29 -19 -50 -5 -50 5 0 12 11 16 25 3 13 12 29 20 36 21
17 17 38 -8 43 -51 11 -95 13 -120 7z"/>
<path d="M8066 1793 c-12 -12 -6 -33 9 -33 8 0 15 6 15 14 0 17 -14 28 -24 19z"/>
<path d="M7868 1773 c-16 -15 -16 -18 4 -35 15 -13 25 -15 32 -8 8 8 7 13 -2
19 -7 4 -10 15 -6 24 8 22 -7 22 -28 0z"/>
<path d="M8235 1780 c-6 -10 37 -60 52 -60 4 0 14 4 22 9 19 12 4 31 -25 31
-15 0 -24 6 -24 15 0 17 -16 20 -25 5z"/>
<path d="M8562 1748 c-6 -6 -32 -11 -57 -12 -71 -2 -58 -23 19 -31 38 -4 46
-2 46 11 0 13 7 15 35 11 25 -4 35 -2 35 8 0 24 -57 34 -78 13z"/>
<path d="M7651 1726 c-12 -14 -5 -26 16 -26 15 0 18 26 4 34 -5 3 -14 0 -20
-8z"/>
<path d="M7710 1730 c0 -5 5 -10 10 -10 6 0 10 5 10 10 0 6 -4 10 -10 10 -5 0
-10 -4 -10 -10z"/>
<path d="M8710 1720 c0 -5 5 -10 10 -10 6 0 10 5 10 10 0 6 -4 10 -10 10 -5 0
-10 -4 -10 -10z"/>
<path d="M7130 727 c-29 -19 -34 -28 -31 -53 7 -56 6 -350 -2 -446 -6 -81 -5
-99 9 -112 21 -21 57 -20 84 2 20 16 22 28 24 132 l2 115 54 0 55 0 6 -120 c4
-66 7 -121 8 -123 0 -1 12 -7 25 -12 32 -12 71 7 87 40 11 25 13 199 4 308 -3
29 0 71 6 95 6 23 13 52 16 64 9 39 -6 89 -31 102 -19 11 -29 10 -53 -3 -36
-18 -42 -30 -50 -110 -7 -74 -16 -94 -50 -107 -53 -20 -61 -8 -59 94 1 143
-31 184 -104 134z m74 -48 c3 -17 6 -69 6 -115 0 -77 2 -83 23 -90 28 -9 53
-9 94 0 40 9 53 43 53 136 0 61 2 68 25 78 22 10 25 9 31 -14 4 -14 1 -60 -6
-102 -8 -53 -10 -127 -5 -240 7 -166 3 -192 -31 -192 -25 0 -35 39 -36 140 -1
90 -3 102 -22 115 -26 19 -67 19 -111 1 l-34 -15 0 -111 c0 -116 -7 -140 -42
-140 -17 0 -35 32 -26 47 15 25 24 431 11 500 -6 32 -5 33 29 33 31 0 35 -3
41 -31z"/>
<path d="M8506 714 c-22 -22 -20 -71 3 -83 18 -10 51 -8 70 3 19 12 18 47 -1
71 -22 29 -49 32 -72 9z m38 -20 c9 -3 16 -13 16 -21 0 -20 -34 -12 -38 10 -4
19 -1 20 22 11z"/>
<path d="M2475 696 c-17 -12 -17 -20 -6 -137 7 -68 11 -201 9 -295 -3 -185 1
-204 48 -204 12 0 35 10 50 23 22 19 27 32 29 80 2 31 -3 83 -10 116 -7 33 -9
65 -5 71 8 14 88 16 101 3 5 -5 10 -56 10 -114 2 -118 8 -141 44 -165 21 -14
30 -14 54 -4 44 18 54 53 42 146 -6 44 -10 120 -10 169 1 50 0 136 -1 193 -3
102 -3 103 -31 117 -40 21 -55 19 -78 -11 -17 -22 -21 -41 -21 -109 0 -89 -4
-95 -56 -95 -29 0 -28 -1 -45 114 -7 48 -19 94 -26 102 -18 18 -74 18 -98 0z
m81 -17 c11 -18 34 -163 28 -180 -12 -41 63 -64 121 -37 33 15 38 39 26 116
-11 70 -8 89 19 97 34 11 50 -5 51 -49 0 -22 2 -52 4 -66 1 -14 4 -119 6 -234
4 -208 4 -209 -18 -217 -41 -15 -53 11 -54 119 -1 152 -3 158 -66 165 -33 4
-59 0 -82 -11 -32 -15 -33 -17 -27 -61 23 -162 15 -216 -34 -216 -20 0 -25 5
-23 25 10 137 1 509 -13 531 -5 9 25 28 43 29 6 0 15 -5 19 -11z"/>
<path d="M6400 703 c-8 -2 -24 -8 -35 -13 -11 -4 -28 -11 -39 -14 -18 -6 -18
-7 -1 -26 16 -18 17 -29 6 -137 -6 -65 -16 -158 -22 -208 -14 -111 -2 -170 38
-188 23 -10 28 -8 49 16 22 25 24 37 24 125 0 137 3 144 54 140 l41 -3 0 -122
c0 -112 2 -124 21 -144 24 -24 57 -20 69 9 4 9 10 83 13 164 l4 148 -36 36
c-35 35 -39 36 -86 31 -58 -7 -60 -4 -60 98 0 74 -10 97 -40 88z m11 -40 c0
-5 1 -38 2 -75 3 -90 22 -112 88 -103 43 6 48 4 73 -26 27 -32 27 -33 22 -151
-6 -120 -18 -170 -38 -150 -7 7 -10 56 -9 125 1 102 0 115 -18 132 -25 21 -98
16 -117 -9 -6 -9 -14 -67 -18 -128 -8 -119 -16 -142 -41 -117 -20 19 -26 88
-14 158 5 31 14 114 19 186 6 71 13 138 16 148 5 16 33 25 35 10z"/>
<path d="M5950 680 c-58 -4 -106 -8 -107 -9 -2 0 -3 -23 -3 -50 0 -61 16 -76
69 -67 21 3 53 3 71 -1 l32 -6 -6 -64 c-15 -141 -18 -364 -6 -379 18 -20 76
-18 99 5 15 15 19 41 25 177 3 87 7 166 7 174 0 8 2 31 5 51 l5 36 65 1 c36 1
69 4 75 7 11 7 1 105 -12 119 -11 12 -180 15 -319 6z m300 -41 c23 -42 10 -54
-57 -54 -34 0 -67 -5 -72 -10 -14 -14 -24 -110 -36 -343 -6 -105 -8 -112 -36
-112 -16 0 -19 8 -20 48 -1 26 -1 50 -1 53 1 4 4 58 7 120 3 63 8 139 11 170
3 34 2 59 -4 63 -6 3 -44 9 -86 13 -75 6 -76 6 -76 34 l0 28 153 3 c84 2 164
4 179 5 19 2 31 -4 38 -18z"/>
<path d="M1659 657 c-26 -18 -33 -29 -30 -48 7 -44 5 -232 -4 -336 -7 -87 -5
-109 9 -148 24 -62 58 -71 99 -25 l29 33 -7 118 -7 119 31 0 c44 0 53 -24 45
-123 -7 -95 6 -161 37 -177 56 -31 79 27 79 203 0 122 -18 200 -49 217 -10 5
-41 10 -71 12 l-54 3 3 57 c5 107 -38 144 -110 95z m61 -32 c9 -10 11 -35 7
-75 -5 -53 -3 -62 16 -75 12 -8 39 -15 60 -15 78 0 94 -28 104 -186 6 -111 -1
-178 -20 -171 -24 8 -36 70 -30 163 5 84 4 93 -16 113 -27 27 -81 28 -105 2
-13 -15 -17 -41 -18 -135 -1 -83 -6 -120 -15 -128 -8 -6 -16 -8 -19 -5 -14 13
-21 131 -13 207 5 47 9 130 8 185 0 55 0 108 0 118 1 21 24 22 41 2z"/>
<path d="M1121 644 c-31 -22 -47 -84 -29 -120 l14 -29 93 3 93 3 -6 -123 c-4
-68 -7 -161 -9 -207 -1 -80 0 -84 26 -107 39 -34 79 -31 111 7 26 31 26 31 25
215 0 101 2 188 6 194 3 5 30 10 58 10 93 0 123 49 74 121 -26 38 -58 49 -107
36 -37 -10 -178 -10 -195 1 -21 13 -133 10 -154 -4z m184 -29 c71 -6 143 -7
180 -1 48 8 72 -8 81 -51 l6 -30 -72 -5 c-45 -4 -77 -11 -87 -21 -12 -12 -15
-48 -14 -206 0 -115 -4 -191 -9 -191 -6 0 -10 -7 -10 -15 0 -21 -26 -19 -50 5
-16 16 -19 29 -15 82 9 116 13 332 8 365 -6 36 -33 46 -33 13 0 -18 -6 -21
-42 -19 -24 1 -57 -2 -75 -6 -28 -6 -34 -4 -44 18 -6 14 -9 37 -5 52 7 26 7
26 79 20 40 -4 86 -8 102 -10z"/>
<path d="M9250 573 c-24 -10 -52 -12 -90 -8 -45 4 -59 2 -79 -14 l-24 -19 27
-25 c30 -28 31 -40 27 -260 -3 -101 -1 -121 15 -138 35 -39 112 -11 115 44 4
48 -1 126 -12 206 -9 69 -9 85 2 92 19 12 32 6 45 -20 6 -12 21 -29 33 -38 20
-14 24 -13 42 3 18 16 20 26 14 74 -9 68 -18 86 -53 104 -24 12 -32 12 -62 -1z
m48 -62 c3 -19 0 -22 -18 -16 -12 4 -36 0 -57 -10 l-35 -17 6 -66 c17 -192 18
-229 7 -251 -28 -52 -65 2 -52 75 10 54 4 245 -9 278 -9 26 -9 27 12 20 30
-10 90 -6 102 6 17 17 41 7 44 -19z"/>
<path d="M8228 566 c-21 -15 -23 -37 -6 -54 14 -14 16 -79 8 -277 l-5 -130 36
-3 c50 -4 80 23 88 79 4 24 4 58 0 74 -4 17 -7 67 -8 111 l-1 82 36 4 c26 3
38 0 45 -13 17 -33 71 -35 83 -3 3 8 -1 31 -9 51 -8 19 -15 44 -15 54 0 33
-30 38 -97 16 l-62 -19 -27 21 c-31 24 -42 25 -66 7z m62 -37 c29 -22 49 -22
131 -3 23 5 28 2 38 -27 14 -39 14 -49 1 -49 -5 0 -10 6 -10 13 0 34 -96 42
-128 11 -13 -14 -15 -37 -13 -143 1 -69 3 -137 4 -151 2 -20 -3 -26 -24 -28
-15 -2 -28 3 -31 10 -2 7 -1 74 4 148 8 129 7 167 -8 218 -8 28 -1 28 36 1z"/>
<path d="M8834 570 c-42 -17 -83 -79 -108 -162 -22 -71 -24 -91 -17 -143 11
-73 18 -91 49 -132 25 -34 71 -53 129 -53 42 0 99 49 114 99 28 93 -14 118
-86 52 -25 -23 -48 -41 -52 -41 -18 1 -34 18 -42 46 -13 49 -6 54 75 54 l75 0
19 46 c62 144 -31 285 -156 234z m94 -29 c6 -1 12 -7 12 -15 0 -7 6 -19 14
-25 22 -18 29 -106 11 -140 -17 -35 -32 -40 -102 -39 -58 2 -83 -13 -83 -47 0
-60 42 -115 89 -115 10 0 35 16 54 36 35 37 57 38 57 5 0 -31 -37 -68 -75 -75
-63 -12 -101 8 -130 69 -39 80 -41 118 -11 216 32 106 65 141 126 133 14 -1
31 -3 38 -3z"/>
<path d="M8836 487 c-24 -19 -29 -32 -30 -67 -1 -43 0 -44 43 -57 37 -11 48
-10 73 3 29 15 30 18 26 65 -3 26 -11 55 -18 64 -18 22 -61 18 -94 -8z m70
-24 c7 -10 14 -30 14 -45 0 -26 -2 -27 -32 -21 -52 9 -60 20 -42 54 16 33 40
37 60 12z"/>
<path d="M8090 556 c-32 -18 -74 -21 -127 -12 -79 14 -128 -11 -87 -45 39 -32
43 -60 35 -215 -4 -81 -6 -156 -3 -166 2 -11 17 -25 33 -33 26 -14 29 -13 57
15 l30 29 -5 113 c-6 165 -4 190 15 204 22 17 36 12 40 -14 4 -25 38 -52 64
-52 26 0 40 33 28 65 -5 14 -10 41 -10 59 0 19 -8 40 -18 49 -22 20 -20 20
-52 3z m44 -43 c2 -10 8 -37 11 -60 8 -54 -10 -58 -31 -8 -18 43 -33 50 -77
36 -30 -10 -35 -17 -42 -54 -3 -23 -6 -100 -5 -170 1 -128 1 -128 -22 -125
-23 3 -23 4 -23 168 0 114 -4 172 -12 187 -18 31 -18 31 27 23 50 -9 109 -5
123 9 17 17 45 13 51 -6z"/>
<path d="M8531 561 c-10 -6 -10 -13 -2 -29 14 -26 14 -86 0 -226 -14 -137 -3
-182 50 -208 30 -15 37 -15 63 -2 32 17 35 34 11 70 -17 27 -20 80 -13 255 4
94 -18 142 -65 147 -17 1 -36 -2 -44 -7z m67 -93 c10 -51 5 -138 -8 -152 -5
-5 -8 25 -7 70 1 43 -2 95 -7 114 -6 25 -5 32 3 25 6 -6 15 -31 19 -57z m-10
-240 c0 -17 10 -44 22 -60 29 -40 21 -55 -13 -24 -20 19 -27 34 -27 64 0 32 6
52 15 52 1 0 2 -14 3 -32z"/>
<path d="M3732 549 c-58 -12 -89 -54 -122 -166 -20 -66 -9 -180 22 -229 33
-52 61 -69 126 -78 65 -8 98 8 130 66 20 38 21 43 7 65 -20 30 -46 29 -75 -2
-39 -42 -85 -27 -96 32 l-6 32 66 0 c75 -1 88 6 117 64 32 61 10 140 -49 181
-51 35 -82 44 -120 35z m98 -56 c14 -13 28 -23 32 -23 13 0 29 -71 23 -103
-12 -55 -32 -69 -95 -67 -30 1 -62 2 -71 1 -57 -4 2 -151 60 -151 6 0 26 14
46 31 44 39 66 29 45 -21 -18 -42 -43 -54 -103 -46 -103 14 -133 66 -124 213
6 107 36 173 86 189 42 14 68 8 101 -23z"/>
<path d="M3728 463 c-29 -31 -43 -71 -30 -90 4 -7 38 -15 74 -18 82 -6 97 6
79 65 -21 71 -78 90 -123 43z m86 -25 c28 -40 21 -53 -29 -56 -52 -2 -65 13
-47 54 15 31 55 32 76 2z"/>
<path d="M7592 535 c-39 -18 -56 -33 -66 -57 -28 -66 19 -88 95 -45 l40 22 20
-24 c30 -36 19 -46 -42 -43 -64 4 -96 -15 -124 -74 -13 -28 -15 -49 -10 -94 6
-51 11 -62 40 -85 39 -29 66 -32 101 -9 23 16 25 15 49 -10 13 -14 35 -26 49
-26 13 0 31 -3 39 -6 20 -7 57 30 57 56 0 12 -9 33 -19 48 -18 25 -19 32 -6
107 26 149 16 194 -50 235 -53 32 -110 34 -173 5z m174 -50 c32 -40 36 -80 19
-171 -21 -111 -20 -150 5 -157 11 -3 20 -13 20 -22 0 -26 -77 -11 -111 21
l-26 25 -27 -22 c-52 -41 -106 0 -110 83 -3 51 26 117 52 119 25 2 24 2 69 -5
38 -5 44 -3 59 19 22 33 4 78 -36 95 -25 10 -34 9 -63 -9 -43 -26 -67 -27 -67
-2 0 35 63 61 139 57 46 -2 58 -7 77 -31z"/>
<path d="M7596 314 c-22 -22 -29 -55 -17 -87 10 -25 14 -26 61 -22 27 2 54 6
60 10 5 3 8 27 6 53 -3 44 -5 47 -29 44 -14 -1 -28 2 -32 8 -9 15 -31 12 -49
-6z m58 -27 c19 -14 19 -51 1 -50 -5 0 -20 -3 -32 -8 -21 -8 -23 -6 -23 31 0
32 4 40 18 40 10 0 26 -6 36 -13z"/>
<path d="M3456 529 c-38 -15 -55 -18 -75 -10 -42 16 -64 16 -98 1 -39 -18 -41
-27 -8 -42 37 -17 47 -59 52 -226 l6 -154 30 -18 c77 -47 119 62 82 215 -8 33
-14 77 -15 97 0 32 4 39 24 44 32 8 46 -2 46 -31 0 -18 7 -26 27 -31 32 -8 59
7 55 32 -1 11 -5 40 -8 66 -10 73 -42 88 -118 57z m-37 -41 c19 0 39 6 44 11
6 6 26 11 44 11 27 0 33 -4 33 -21 0 -11 5 -29 11 -40 15 -28 4 -56 -16 -39
-7 6 -15 21 -17 33 -3 19 -8 22 -48 19 -25 -2 -49 -7 -53 -12 -5 -4 -6 -36 -3
-71 18 -196 18 -229 2 -254 -20 -31 -44 -32 -51 -2 -3 12 -4 65 -2 117 3 109
-12 212 -36 238 -23 25 -12 32 26 20 18 -6 47 -11 66 -10z"/>
<path d="M6757 509 c-84 -69 -115 -208 -71 -314 34 -82 146 -120 219 -75 64
39 77 87 37 133 -20 23 -26 22 -59 -13 -15 -16 -37 -30 -49 -30 -28 0 -62 39
-60 70 1 24 4 25 67 25 72 0 90 10 115 58 22 41 10 122 -22 154 -19 19 -34 23
-81 23 -51 0 -64 -4 -96 -31z m129 1 c43 0 72 -98 44 -151 -9 -16 -22 -19 -85
-19 -63 0 -76 -3 -85 -19 -19 -37 -12 -81 19 -112 38 -37 65 -37 103 2 26 26
33 28 45 16 18 -18 3 -60 -29 -81 -48 -31 -145 1 -179 59 -37 63 -16 207 39
269 21 24 73 47 90 41 8 -3 24 -5 38 -5z"/>
<path d="M6830 473 c-25 -9 -60 -46 -60 -63 0 -28 22 -40 75 -40 75 0 96 31
54 84 -20 25 -38 30 -69 19z m54 -37 c18 -28 15 -31 -32 -41 -40 -8 -54 15
-27 45 24 26 39 25 59 -4z"/>
<path d="M2991 511 c-51 -18 -90 -51 -91 -78 0 -17 29 -43 48 -43 9 0 30 8 45
19 33 21 68 17 85 -10 18 -29 6 -39 -36 -33 -54 7 -87 -9 -115 -58 -47 -82
-43 -164 11 -212 23 -20 63 -19 117 4 27 11 34 10 69 -14 48 -32 66 -33 94 -3
27 28 28 44 5 70 -15 16 -18 37 -16 141 2 99 0 127 -15 155 -37 73 -108 95
-201 62z m137 -37 c37 -26 45 -61 43 -189 -2 -95 1 -124 13 -140 24 -31 19
-45 -13 -45 -20 0 -35 8 -48 26 -19 25 -19 25 -63 10 -86 -30 -114 -15 -125
69 -12 96 27 144 108 132 48 -7 77 8 77 38 0 39 -17 64 -53 79 -29 12 -35 11
-70 -11 -38 -24 -67 -25 -67 -3 0 18 82 50 130 50 26 0 55 -7 68 -16z"/>
<path d="M2999 298 c-26 -10 -39 -47 -30 -89 9 -45 42 -57 102 -38 l44 14 0
60 0 60 -48 0 c-27 0 -57 -3 -68 -7z m78 -31 c1 -1 3 -15 5 -31 3 -26 -1 -31
-29 -39 -44 -13 -63 -3 -63 32 0 35 24 53 60 45 14 -3 26 -6 27 -7z"/>
<path d="M2068 476 c-59 -46 -83 -105 -82 -206 0 -63 4 -81 27 -116 61 -97
140 -112 215 -41 26 25 32 39 32 73 0 23 -6 46 -12 52 -19 15 -54 -2 -74 -37
-10 -17 -24 -31 -32 -31 -20 0 -64 52 -57 68 3 7 5 20 5 27 0 10 18 13 74 12
47 -1 79 2 87 10 17 17 22 123 6 153 -18 35 -74 70 -112 70 -21 0 -47 -12 -77
-34z m151 -30 c21 -21 25 -34 23 -72 -1 -25 -4 -50 -7 -55 -4 -5 -36 -9 -73
-9 -37 0 -72 -4 -79 -8 -6 -4 -14 -24 -18 -44 -6 -29 -3 -43 15 -68 39 -55 55
-56 101 -10 40 40 59 44 59 12 -1 -54 -54 -94 -107 -82 -72 17 -116 88 -112
183 3 77 24 131 63 164 38 32 96 27 135 -11z"/>
<path d="M2121 444 c-13 -9 -30 -32 -38 -51 -13 -32 -13 -36 4 -48 24 -19 114
-11 130 11 15 21 9 52 -18 81 -26 27 -46 29 -78 7z m63 -30 c30 -29 20 -44
-29 -44 -46 0 -53 7 -35 41 13 23 43 25 64 3z"/>
<path d="M9360 198 c-39 -42 -20 -88 37 -88 27 0 34 4 39 28 3 15 8 33 10 41
13 40 -52 55 -86 19z"/>
<path d="M4039 185 c-32 -17 -42 -57 -22 -85 12 -17 24 -20 61 -18 46 3 47 4
50 40 6 71 -29 96 -89 63z m55 -42 c4 -9 2 -21 -3 -26 -15 -15 -46 -3 -49 21
-3 18 1 22 21 22 14 0 28 -7 31 -17z"/>
</g>
</svg>
