<?xml version="1.0" encoding="UTF-8" standalone="no"?>
<!DOCTYPE svg PUBLIC "-//W3C//DTD SVG 1.1//EN" "http://www.w3.org/Graphics/SVG/1.1/DTD/svg11.dtd">
<svg xmlns="http://www.w3.org/2000/svg" version="1.1" viewBox="0 0 75 135" width="75.0pt" height="135.0pt">
<path d="M 0.00 0.00 L 75.00 0.00 L 75.00 135.00 L 0.00 135.00 L 0.00 0.00 Z" fill="#ffffff" />
<path d="M 37.25 2.80 C 36.05 6.05 33.37 8.55 30.95 10.95 C 27.57 13.92 24.30 17.17 20.55 19.59 C 18.36 21.13 16.81 23.53 14.84 25.34 C 15.63 22.05 17.22 19.87 19.90 17.85 C 26.32 13.70 31.94 8.16 37.25 2.80 Z" fill="#363636" />
<path d="M 40.96 2.87 C 43.83 6.10 46.68 9.82 47.98 13.99 C 48.41 15.69 49.58 16.78 50.67 18.07 C 50.15 16.24 49.64 14.42 49.18 12.58 C 52.70 16.46 56.29 20.48 59.01 24.98 C 57.82 25.50 56.63 26.10 55.39 26.48 C 51.98 24.26 50.46 19.89 47.29 17.22 C 47.23 18.56 47.17 19.91 47.11 21.25 C 44.26 18.33 41.87 14.98 39.02 12.07 C 36.86 12.84 35.24 14.05 32.81 13.58 C 34.58 11.53 36.57 9.76 38.64 8.04 C 41.17 11.15 43.33 14.20 46.56 16.62 C 46.17 14.63 45.94 12.76 45.00 10.95 C 43.63 8.01 41.44 6.18 40.96 2.87 Z" fill="#363636" />
<path d="M 33.51 11.99 C 32.75 13.28 31.93 14.54 31.12 15.79 C 31.83 16.16 32.54 16.53 33.24 16.90 C 29.93 17.96 26.82 18.70 24.37 21.36 C 21.32 23.91 18.80 28.19 14.89 29.11 C 18.64 22.99 25.67 19.88 30.15 14.07 C 31.16 13.24 32.28 12.55 33.51 11.99 Z" fill="#363636" />
<path d="M 38.99 14.35 C 42.22 20.31 47.52 22.70 49.00 29.43 C 45.53 26.81 43.56 22.92 39.78 20.58 C 41.03 26.68 47.56 28.65 49.68 34.26 L 48.03 34.89 C 45.36 32.97 43.21 30.05 41.20 27.47 C 40.66 27.48 40.12 27.48 39.58 27.49 C 39.70 28.00 39.82 28.51 39.93 29.03 C 42.70 32.20 45.75 35.47 47.72 39.22 C 47.72 40.23 47.66 41.24 47.54 42.24 C 45.07 39.04 43.00 35.77 39.59 33.45 C 41.14 39.97 47.27 43.31 49.19 49.33 C 48.37 49.00 47.57 48.64 46.79 48.23 C 44.39 45.43 42.63 42.05 40.49 39.04 C 39.05 45.70 40.44 52.22 39.76 58.91 C 39.32 60.21 38.48 63.29 36.86 61.10 C 35.26 54.75 36.38 47.30 37.00 40.82 C 33.49 43.78 30.09 46.65 27.47 50.49 C 26.78 50.76 26.08 51.04 25.38 51.31 C 22.16 54.91 20.29 59.00 18.28 63.32 C 16.77 65.88 17.30 68.71 17.14 71.64 C 16.05 74.20 15.30 76.89 14.24 79.47 C 13.21 71.06 14.91 62.49 19.31 55.24 C 24.10 49.23 30.79 44.64 35.91 38.89 C 36.92 37.71 36.75 35.57 37.11 34.14 C 33.49 36.80 30.48 40.16 26.91 42.89 C 19.37 48.90 12.90 56.43 10.59 66.00 C 9.88 71.27 9.87 76.72 10.55 82.00 C 11.11 89.92 14.26 98.34 20.23 103.77 C 23.23 107.28 27.07 110.19 28.48 114.51 C 24.66 112.70 23.41 109.38 20.57 106.44 C 17.73 103.52 15.04 100.57 13.15 96.93 C 11.06 92.90 8.56 89.64 8.04 85.02 C 6.80 78.74 7.96 72.29 8.98 65.99 C 10.09 59.11 14.25 53.78 18.57 48.58 C 24.35 42.25 31.43 37.48 36.77 30.69 C 36.74 29.13 36.70 27.57 36.67 26.01 C 33.13 29.31 29.86 32.69 25.53 35.00 C 25.81 33.82 25.92 32.76 26.90 31.91 C 29.96 29.02 33.49 26.63 36.66 23.85 C 36.97 22.13 37.29 20.40 37.57 18.68 C 35.11 20.13 33.03 21.96 30.98 23.94 C 28.38 26.43 25.23 28.13 22.72 30.72 C 21.08 32.35 19.39 33.69 17.37 34.83 C 18.28 33.27 19.18 31.75 20.50 30.50 C 25.90 25.57 32.01 21.36 37.23 16.22 C 37.82 15.60 38.41 14.98 38.99 14.35 Z" fill="#363636" />
<path d="M 47.81 21.63 C 51.23 24.57 54.23 27.68 54.91 32.34 C 51.68 29.86 49.08 25.47 47.81 21.63 Z" fill="#363636" />
<path d="M 56.84 30.01 C 58.58 31.29 59.78 32.94 61.07 34.64 C 60.30 34.65 59.53 34.66 58.76 34.68 C 57.78 36.66 56.66 37.23 55.40 36.40 C 55.66 34.24 56.20 32.09 56.84 30.01 Z" fill="#363636" />
<path d="M 13.93 30.80 C 13.92 33.93 12.02 35.77 10.25 38.10 C 10.24 38.95 10.23 39.81 10.23 40.67 C 9.53 40.67 8.83 40.66 8.13 40.62 C 9.40 36.77 10.52 33.31 13.93 30.80 Z" fill="#363636" />
<path d="M 52.36 33.88 C 55.16 35.20 55.60 37.64 56.85 40.15 C 58.23 43.52 61.04 45.92 63.21 48.83 C 65.15 51.30 66.27 54.59 67.47 57.49 C 68.42 59.57 67.68 61.51 67.43 63.66 L 66.02 63.43 C 64.80 58.76 63.25 53.63 60.26 49.77 C 56.81 45.21 53.03 39.69 52.36 33.88 Z" fill="#363636" />
<path d="M 17.96 35.78 C 17.51 38.09 16.56 39.11 14.76 40.52 C 15.40 38.35 16.20 37.15 17.96 35.78 Z" fill="#363636" />
<path d="M 26.10 35.44 C 24.01 40.26 20.18 43.01 16.68 46.66 C 13.19 50.90 9.76 55.51 7.65 60.61 C 6.26 64.59 5.19 68.76 4.89 72.99 C 3.74 82.45 6.79 92.56 11.08 100.93 C 14.95 107.80 22.95 113.04 28.48 118.53 C 32.18 121.98 33.53 127.80 34.69 132.54 C 33.96 132.63 33.23 132.71 32.51 132.80 C 30.83 128.45 29.51 124.07 26.31 120.57 C 22.35 115.67 16.47 113.42 12.56 108.41 C 8.48 104.06 6.98 98.82 4.62 93.51 C 3.59 91.10 2.78 88.67 2.77 86.02 C 2.57 80.55 2.21 74.51 3.43 69.15 C 5.17 62.93 6.95 56.88 10.71 51.52 C 13.80 46.14 18.47 42.95 22.62 38.53 C 23.70 37.40 24.85 36.39 26.10 35.44 Z" fill="#363636" />
<path d="M 48.99 40.76 C 52.14 42.88 54.05 46.57 56.72 49.29 C 62.07 55.16 63.96 62.35 65.32 69.99 C 66.22 79.65 64.11 89.69 59.42 98.20 C 56.45 103.12 52.11 107.19 49.02 112.04 C 47.22 115.06 46.15 118.77 44.88 122.06 C 44.63 125.34 44.39 128.62 44.28 131.91 C 43.40 131.73 42.53 131.51 41.67 131.26 C 40.75 129.51 41.17 127.83 41.56 126.00 C 42.87 120.82 44.35 115.78 47.21 111.21 C 49.56 106.95 52.92 103.68 55.84 99.87 C 60.00 93.72 62.72 86.43 63.25 79.00 C 63.58 68.49 60.76 58.09 54.32 49.69 C 52.12 46.90 49.99 44.24 48.99 40.76 Z" fill="#363636" />
<path d="M 50.13 47.63 C 53.12 50.02 54.26 53.30 56.41 56.61 C 60.35 63.37 60.11 70.43 59.42 77.97 C 58.49 76.45 57.59 74.91 56.70 73.36 C 57.21 69.20 56.38 65.31 55.75 61.23 C 55.19 60.81 54.62 60.39 54.05 59.97 C 54.34 59.40 54.63 58.83 54.91 58.25 C 53.95 58.26 52.99 58.26 52.03 58.27 C 52.29 57.51 52.55 56.75 52.81 56.00 C 51.80 53.22 50.81 50.51 50.13 47.63 Z" fill="#363636" />
<path d="M 52.75 58.68 C 52.17 61.43 51.79 64.29 50.96 66.98 C 49.59 70.36 47.28 73.08 46.47 76.73 C 41.69 80.59 35.06 81.97 29.82 78.19 C 24.28 73.70 22.15 66.05 20.64 59.38 C 24.02 58.93 26.01 63.68 28.63 65.44 C 30.97 66.33 33.17 67.59 35.54 68.41 C 37.91 68.93 39.89 68.16 41.59 70.27 C 41.68 69.59 41.77 68.91 41.86 68.23 C 44.04 66.90 46.11 65.75 47.46 63.50 C 49.19 61.40 49.49 58.51 52.75 58.68 Z" fill="#363636" />
<path d="M 68.59 62.84 C 72.64 64.20 72.49 69.48 72.53 72.97 C 72.37 77.59 71.19 80.20 68.25 83.65 C 68.68 84.43 69.12 85.21 69.55 85.99 C 68.30 90.05 66.38 93.81 64.25 97.47 C 63.00 99.41 61.20 101.10 60.10 103.11 C 58.79 105.51 57.77 107.99 56.21 110.25 C 54.84 112.35 53.03 114.61 52.58 117.11 C 51.66 121.47 51.69 126.04 48.36 129.39 C 48.07 126.40 48.76 123.69 49.52 120.83 C 50.41 116.42 51.67 111.88 53.80 107.88 C 58.48 101.06 63.06 94.11 67.38 87.05 C 66.54 86.42 65.71 85.80 64.87 85.17 C 66.72 81.19 69.53 77.46 69.64 73.01 C 69.66 69.62 68.80 66.23 68.59 62.84 Z" fill="#363636" />
<path d="M 52.04 71.21 C 53.88 72.68 55.93 74.16 56.75 76.47 C 57.97 79.84 59.25 83.19 60.33 86.60 L 56.16 85.53 C 56.96 87.02 57.71 88.53 58.41 90.06 C 57.50 90.65 56.56 91.21 55.61 91.75 C 56.08 92.93 56.53 94.11 56.99 95.29 C 56.09 95.32 55.19 95.36 54.29 95.40 C 52.88 91.69 51.90 87.87 51.09 83.99 C 50.20 84.21 49.31 84.42 48.42 84.63 C 49.57 89.75 49.99 94.82 52.15 99.68 C 52.83 100.66 51.25 101.35 50.73 102.11 C 48.40 97.54 48.32 92.79 47.03 87.88 C 46.30 85.67 47.73 83.25 48.26 81.04 C 49.15 81.72 50.07 82.36 50.96 83.04 C 52.75 81.78 50.88 78.69 50.71 77.07 C 53.04 77.74 53.58 80.25 54.90 82.10 C 54.97 78.09 53.15 74.92 52.04 71.21 Z" fill="#363636" />
<path d="M 21.12 71.50 C 19.33 77.36 15.63 83.35 15.48 89.52 C 18.28 86.48 18.88 82.85 20.22 79.13 C 20.70 77.64 21.60 77.48 22.94 77.02 C 21.90 84.41 15.71 88.74 17.98 95.71 C 20.12 91.52 21.12 87.28 22.66 82.84 C 23.29 83.21 23.92 83.59 24.54 83.97 C 23.17 88.61 21.54 93.29 20.55 98.05 C 21.01 99.34 21.57 100.60 22.22 101.85 C 23.83 96.36 25.12 90.80 26.28 85.20 C 27.04 85.33 27.81 85.45 28.57 85.57 C 27.04 90.43 25.41 95.13 25.24 100.29 C 24.35 100.74 23.47 101.18 22.58 101.63 C 26.92 105.51 31.26 108.42 34.33 113.60 C 35.64 116.73 36.34 120.17 36.90 123.51 C 33.75 121.35 33.68 118.53 32.78 115.14 C 28.82 109.48 23.07 104.68 18.54 99.47 C 15.06 95.31 14.97 90.84 13.19 85.96 C 15.01 82.06 16.51 78.02 18.41 74.16 C 18.93 72.82 20.02 72.31 21.12 71.50 Z" fill="#363636" />
<path d="M 43.90 86.88 C 44.99 87.31 45.62 88.04 45.80 89.07 C 47.15 93.84 48.56 98.41 48.53 103.37 C 45.30 100.76 45.06 97.30 44.16 93.54 C 43.82 91.35 43.07 88.99 43.90 86.88 Z" fill="#363636" />
<path d="M 32.13 86.71 C 33.30 92.36 30.91 98.66 30.62 104.43 C 29.77 104.72 28.93 104.99 28.07 105.25 C 27.98 100.37 28.90 95.69 30.08 91.00 C 30.42 89.37 31.21 88.07 32.13 86.71 Z" fill="#363636" />
<path d="M 35.34 88.28 C 35.99 88.34 36.64 88.42 37.28 88.52 C 37.12 94.11 38.00 99.59 38.22 105.15 C 38.12 107.13 34.64 107.60 34.49 105.61 C 34.11 99.92 34.59 93.92 35.34 88.28 Z" fill="#363636" />
<path d="M 40.86 86.63 C 42.98 92.38 42.59 98.46 44.48 104.24 C 45.14 104.66 45.82 105.07 46.51 105.46 C 44.71 109.50 42.37 113.76 41.61 118.13 C 41.11 120.87 40.67 123.62 40.00 126.34 C 37.86 120.87 37.70 114.96 35.41 109.46 C 37.99 111.10 38.71 113.64 40.01 116.22 C 41.29 112.36 42.71 108.56 44.21 104.78 C 43.25 104.69 42.28 104.61 41.31 104.52 C 41.03 98.97 38.31 91.76 40.86 86.63 Z" fill="#363636" />
</svg>