<?xml version="1.0" standalone="no"?>
<!DOCTYPE svg PUBLIC "-//W3C//DTD SVG 20010904//EN"
 "http://www.w3.org/TR/2001/REC-SVG-20010904/DTD/svg10.dtd">
<svg version="1.0" xmlns="http://www.w3.org/2000/svg"
 width="1000.000000pt" height="574.000000pt" viewBox="0 0 1000.000000 574.000000"
 preserveAspectRatio="xMidYMid meet">
<metadata>
Created by potrace 1.16, written by Peter Selinger 2001-2019
</metadata>
<g transform="translate(0.000000,574.000000) scale(0.100000,-0.100000)"
fill="#000000" stroke="none">
<path d="M3987 5627 c-8 -7 -28 -37 -44 -67 -16 -30 -43 -70 -60 -87 -17 -18
-40 -53 -52 -78 -12 -25 -26 -45 -31 -45 -14 0 -12 12 5 34 8 11 15 31 15 45
l0 24 -24 -22 c-34 -32 -59 -88 -53 -119 3 -15 -1 -31 -9 -39 -8 -9 -12 -24
-8 -38 3 -12 1 -26 -6 -30 -7 -4 -9 -18 -5 -36 4 -16 3 -29 -2 -29 -12 0 -34
-60 -27 -72 3 -5 -1 -17 -9 -26 -8 -9 -17 -34 -21 -54 -4 -21 -13 -38 -19 -38
-7 0 -23 -32 -36 -71 -12 -39 -25 -69 -27 -66 -6 6 22 198 40 277 8 36 26 96
40 135 14 38 26 81 26 95 0 24 36 106 62 142 7 9 10 20 7 23 -11 11 -37 -6
-43 -28 -4 -12 -18 -35 -32 -52 l-26 -30 6 37 c4 20 13 50 21 65 20 38 20 67
-1 59 -12 -4 -14 -1 -9 14 5 14 2 20 -10 20 -23 0 -44 -58 -67 -185 -24 -136
-28 -147 -38 -120 -4 11 -3 28 2 38 12 24 3 33 -17 17 -20 -17 -20 1 1 57 9
24 13 47 9 51 -4 4 -10 1 -12 -5 -6 -18 -33 -16 -33 2 0 21 -23 19 -36 -2 -6
-10 -12 -40 -13 -68 -2 -27 -9 -81 -16 -120 -10 -56 -13 -63 -15 -35 -2 19 -2
47 -1 62 2 32 -12 43 -29 23 -13 -15 -39 -162 -40 -222 0 -17 -5 -35 -12 -39
-8 -5 -10 16 -5 84 7 92 5 100 -23 82 -9 -5 -17 -5 -21 1 -10 16 -39 -2 -39
-25 0 -47 21 -154 39 -196 10 -25 27 -64 36 -87 12 -29 16 -55 12 -81 -4 -21
-3 -53 2 -70 7 -24 6 -32 -3 -32 -20 0 -33 20 -41 65 -9 53 -31 105 -44 105
-6 0 -18 -14 -26 -31 -21 -39 -14 -70 36 -176 22 -45 39 -91 39 -102 0 -34 36
-105 80 -153 40 -46 60 -59 60 -39 0 6 -11 22 -24 36 -14 15 -29 39 -35 55 -9
29 -9 29 27 25 20 -1 44 -3 52 -4 11 -1 12 -3 3 -9 -7 -4 -10 -17 -6 -30 6
-25 23 -30 23 -7 0 20 36 19 44 -1 11 -28 25 -4 19 33 -5 32 -4 36 12 29 16
-6 17 -2 11 34 -6 36 -4 40 14 40 11 0 20 -5 20 -11 0 -32 56 77 82 159 24 74
34 92 49 92 24 0 24 -15 0 -39 -12 -12 -17 -27 -14 -40 3 -11 -2 -34 -11 -51
-8 -18 -18 -48 -22 -69 -4 -20 -13 -44 -22 -54 -8 -9 -12 -20 -8 -24 3 -4 26
16 50 43 65 74 100 111 86 91 -21 -30 -7 -27 37 6 124 95 152 115 193 139 52
30 140 106 101 87 -23 -11 -35 -19 -64 -45 -19 -17 -54 -34 -69 -34 -17 1 10
22 85 65 31 19 63 32 70 30 6 -3 50 24 97 60 46 35 86 62 89 60 8 -9 -145
-158 -254 -246 -60 -49 -117 -95 -125 -102 -8 -6 -22 -16 -30 -22 -9 -5 -39
-25 -66 -43 -27 -18 -60 -36 -73 -39 -13 -3 -31 -13 -40 -22 -9 -9 -46 -31
-83 -50 -65 -32 -103 -70 -96 -93 3 -7 12 -3 24 9 35 36 81 63 151 87 91 32
205 80 276 116 70 36 76 37 51 9 -16 -19 -12 -18 26 6 25 15 54 35 65 45 11 9
40 29 65 43 25 15 59 38 75 52 29 25 29 26 5 20 -14 -4 -47 -21 -75 -38 -73
-44 -149 -87 -157 -87 -18 0 -6 16 23 33 39 22 33 33 -7 12 -32 -16 -54 -19
-54 -7 0 4 35 37 77 72 109 91 316 300 297 300 -8 0 -35 -12 -60 -26 -24 -14
-44 -22 -44 -16 0 5 11 30 25 55 23 41 58 68 175 137 31 18 -2 22 -40 5 -22
-10 -43 -16 -45 -13 -3 3 15 25 40 49 25 24 45 47 45 52 0 11 -88 -37 -125
-69 -17 -14 -25 -23 -18 -20 6 4 15 1 19 -5 5 -9 0 -10 -17 -6 -13 4 -27 7
-32 7 -19 0 27 60 88 114 36 32 64 60 62 62 -2 3 -16 0 -31 -5 -29 -12 -33 -3
-15 31 14 25 1 39 -15 16 -40 -55 -128 -138 -146 -138 -26 0 -25 8 5 32 24 19
33 38 17 38 -16 0 -122 -102 -116 -111 3 -5 -12 -26 -33 -45 -21 -20 -37 -40
-35 -46 2 -6 -17 -32 -41 -57 -24 -25 -56 -63 -71 -83 -15 -21 -43 -55 -61
-75 -32 -34 -42 -53 -31 -53 2 0 35 37 72 83 114 137 217 238 233 227 12 -7
10 -15 -12 -49 -15 -23 -31 -41 -36 -41 -5 0 -11 -8 -13 -18 -2 -10 -32 -44
-68 -76 -36 -33 -97 -90 -137 -127 -49 -47 -77 -67 -88 -63 -14 6 -14 9 0 30
8 13 11 24 5 24 -5 0 -16 -13 -25 -30 -17 -33 -32 -38 -41 -15 -7 16 40 85 57
85 5 0 23 15 39 33 16 17 44 48 61 67 17 19 46 58 64 85 18 28 61 82 95 120
34 39 93 105 131 147 38 42 69 80 69 85 0 5 23 33 50 63 28 30 50 60 50 67 0
20 -24 15 -38 -7 -17 -28 -42 -26 -42 5 0 54 -37 23 -86 -70 -66 -126 -94
-159 -94 -110 0 32 -10 31 -39 -7 -20 -25 -22 -32 -10 -40 11 -8 11 -9 -2 -5
-10 3 -26 -4 -39 -18 -45 -48 -39 -11 16 98 32 62 64 120 72 130 8 9 12 20 9
24 -4 3 -19 -9 -34 -27 -16 -18 -56 -63 -90 -100 -35 -36 -63 -71 -63 -77 0
-6 -7 -13 -15 -17 -13 -5 -14 -2 -4 15 18 35 -1 36 -32 1 -16 -17 -32 -32 -35
-32 -12 0 7 55 24 68 9 7 17 16 17 20 1 4 14 31 29 61 19 37 30 50 36 41 4 -7
13 -9 19 -6 17 11 13 -1 -15 -44 -15 -22 -25 -42 -23 -45 7 -6 89 117 89 133
0 14 -16 16 -25 2 -10 -16 -28 -12 -22 5 8 20 -7 27 -26 12z m339 -67 c0 -8
-6 -26 -14 -40 -19 -30 -145 -181 -225 -270 -33 -36 -71 -83 -85 -105 -29 -47
-99 -121 -107 -113 -17 16 244 348 360 456 54 51 61 61 39 56 -24 -6 -25 -5
-14 15 12 24 44 25 46 1z m-686 -141 c-12 -34 -20 -72 -18 -84 3 -15 -1 -21
-14 -22 -13 -1 -18 3 -14 15 2 9 10 44 17 77 15 74 27 101 41 87 6 -6 2 -32
-12 -73z m378 -36 c-53 -105 -82 -151 -142 -227 -16 -20 -26 -39 -23 -43 9 -8
37 16 37 32 0 7 7 18 15 25 8 7 15 9 15 5 0 -14 -151 -237 -157 -232 -8 9 16
77 52 144 19 33 31 63 29 66 -13 12 111 229 163 286 31 34 58 59 61 57 2 -3
-20 -54 -50 -113z m385 1 c12 -12 -6 -34 -29 -34 -26 0 -30 10 -12 28 13 13
31 16 41 6z m-898 -69 c-7 -33 -17 -78 -24 -100 -6 -22 -11 -55 -11 -74 0 -32
1 -33 30 -27 19 3 29 2 25 -4 -3 -6 -13 -10 -21 -10 -8 0 -15 -6 -15 -12 -1
-7 -3 -22 -4 -33 -2 -11 -7 -67 -10 -125 -8 -116 -19 -153 -31 -106 -9 38 2
401 15 451 5 22 12 52 15 67 5 20 29 40 42 34 1 -1 -4 -28 -11 -61z m304 -51
c-22 -60 -56 -156 -75 -213 -19 -57 -42 -113 -50 -125 -14 -20 -15 -19 -8 19
18 104 154 448 170 432 2 -2 -14 -53 -37 -113z m101 95 c0 -6 -9 -22 -20 -36
-11 -14 -20 -35 -20 -45 0 -11 -7 -32 -15 -46 -31 -58 -118 -274 -120 -302 -1
-8 -2 -27 -3 -41 -1 -14 -10 -36 -19 -47 -10 -12 -26 -33 -36 -47 -11 -15 -21
-24 -24 -22 -5 5 28 108 50 159 24 53 127 338 127 351 0 15 60 87 72 87 4 0 8
-5 8 -11z m161 -31 c-10 -24 -23 -42 -29 -41 -5 1 -13 -9 -16 -23 -4 -14 -29
-52 -56 -84 -26 -33 -51 -68 -55 -80 -3 -11 -10 -20 -15 -20 -5 0 -21 -25 -37
-56 -15 -31 -40 -70 -55 -87 -15 -16 -30 -39 -34 -49 -3 -10 -10 -18 -15 -18
-12 0 -11 0 49 95 111 173 172 262 186 274 9 8 16 20 16 29 0 10 -14 1 -36
-24 -37 -40 -37 -36 2 28 16 25 29 35 41 32 12 -3 25 7 41 31 30 47 35 44 13
-7z m229 -33 c-7 -9 -15 -13 -19 -10 -3 3 1 10 9 15 21 14 24 12 10 -5z m-770
-75 c0 -75 -1 -80 -21 -80 -20 0 -21 4 -15 43 7 46 27 117 33 117 1 0 3 -36 3
-80z m230 40 c0 -5 -4 -10 -10 -10 -5 0 -10 5 -10 10 0 6 5 10 10 10 6 0 10
-4 10 -10z m-179 -112 c-11 -46 -23 -100 -27 -121 -3 -20 -9 -39 -13 -41 -10
-6 5 153 17 178 5 12 15 34 21 50 22 53 23 18 2 -66z m694 70 c-32 -39 -87
-88 -98 -88 -12 0 94 109 107 110 5 0 1 -10 -9 -22z m125 -7 c0 -12 -64 -62
-82 -65 -20 -3 -38 -16 -38 -27 0 -6 5 -7 10 -4 6 3 10 2 10 -4 0 -5 -8 -12
-17 -15 -20 -7 -143 -119 -143 -130 0 -4 20 9 45 30 25 20 48 35 51 32 8 -8
-92 -88 -110 -88 -9 0 -41 -20 -71 -45 -65 -53 -112 -78 -126 -69 -6 3 -31
-16 -57 -44 -48 -50 -89 -78 -100 -68 -6 7 266 278 342 341 73 59 174 135 181
135 17 0 -22 -42 -94 -100 -45 -36 -81 -69 -81 -74 0 -5 8 -2 18 6 9 8 42 34
72 59 30 24 57 47 60 50 3 4 27 25 55 48 48 40 75 51 75 32z m-1087 -128 c-7
-75 -19 -73 -29 3 -5 43 -3 58 7 65 23 14 28 -3 22 -68z m91 -128 c4 -169 12
-236 42 -364 4 -21 3 -23 -10 -12 -28 24 -56 210 -57 384 -1 175 0 202 10 192
6 -6 12 -95 15 -200z m115 68 c1 -133 -1 -260 -3 -288 -1 -16 -3 -43 -5 -60
-1 -28 -2 -29 -13 -10 -18 30 -10 376 9 408 9 15 12 5 12 -50z m-169 -59 c0
-14 -4 -23 -10 -19 -5 3 -10 15 -10 26 0 10 5 19 10 19 6 0 10 -12 10 -26z
m207 -96 c-3 -7 -5 -2 -5 12 0 14 2 19 5 13 2 -7 2 -19 0 -25z m-6 -79 c-9
-23 -10 -22 -10 11 -1 23 2 31 9 24 7 -7 7 -19 1 -35z m-280 -25 c12 -55 40
-94 65 -94 7 0 17 -13 22 -29 6 -16 24 -44 41 -62 17 -17 31 -39 31 -48 -1
-11 -10 -5 -30 18 -16 18 -39 34 -51 35 -28 1 -96 124 -105 190 -10 67 12 58
27 -10z m315 4 c-3 -13 -6 -27 -6 -33 0 -5 -5 -3 -10 5 -15 23 -12 50 6 50 12
0 15 -6 10 -22z m-41 -17 c3 -5 1 -12 -5 -16 -5 -3 -10 1 -10 9 0 18 6 21 15
7z m25 -43 c0 -4 -4 -8 -9 -8 -6 0 -12 -21 -14 -47 l-3 -48 -2 56 c-2 44 1 56
13 56 8 0 15 -4 15 -9z m-53 -143 c1 -41 -2 -77 -8 -80 -15 -10 -30 44 -23 84
16 96 28 95 31 -4z m-162 -53 c-3 -3 -11 0 -18 7 -9 10 -8 11 6 5 10 -3 15 -9
12 -12z"/>
<path d="M4010 4920 c-46 -44 -81 -82 -79 -84 2 -2 41 32 87 76 46 44 82 82
80 84 -3 2 -42 -32 -88 -76z"/>
<path d="M9230 5572 c-42 -28 -91 -71 -179 -156 -89 -86 -131 -143 -131 -176
0 -11 -4 -20 -9 -20 -11 0 -28 -53 -29 -89 -1 -13 -6 -29 -13 -35 -9 -8 -10
-6 -5 8 5 15 2 17 -13 13 -22 -5 -19 15 7 45 16 19 13 42 -3 30 -31 -21 -117
-146 -176 -257 -93 -174 -121 -237 -115 -267 4 -21 -1 -40 -19 -68 -26 -41
-55 -58 -35 -21 20 38 10 45 -21 15 l-32 -29 7 30 c4 17 16 36 26 44 11 7 20
25 20 40 0 15 8 31 18 38 13 8 19 25 20 57 2 40 8 52 43 87 22 22 37 44 33 47
-3 4 -9 1 -11 -5 -3 -7 -9 -13 -14 -13 -14 0 -10 27 5 33 20 8 31 84 16 112
-10 19 -10 27 4 46 16 23 16 23 16 -19 0 -38 3 -42 24 -42 16 0 32 12 50 38
26 38 35 69 16 57 -18 -11 -10 25 10 45 11 11 20 29 20 41 0 12 11 34 25 51
14 16 25 36 25 44 0 8 14 21 30 28 23 9 38 29 60 75 29 61 38 101 23 101 -8 0
-16 -8 -133 -146 -41 -49 -82 -97 -91 -107 -9 -10 -25 -35 -35 -55 -11 -20
-31 -56 -47 -79 -26 -39 -97 -186 -97 -199 0 -4 -9 -25 -19 -48 -11 -23 -22
-49 -25 -58 -3 -10 -10 -18 -15 -18 -6 0 -4 17 3 43 8 23 19 62 26 87 7 25 20
72 30 105 27 93 53 216 46 222 -7 7 -9 2 -46 -142 -66 -250 -80 -311 -78 -330
2 -34 -14 -115 -23 -115 -5 0 -9 -7 -9 -15 0 -8 -11 -38 -24 -67 -13 -29 -27
-66 -31 -83 -8 -28 -9 -27 -18 23 -7 44 -6 57 7 71 17 18 21 41 9 41 -20 -1
-36 -21 -39 -50 -5 -44 -22 -64 -40 -49 -17 14 -20 94 -3 84 6 -4 8 -13 6 -19
-3 -7 -2 -18 2 -25 13 -21 34 46 35 109 0 32 4 56 9 53 4 -2 5 -9 2 -14 -4 -5
-2 -9 3 -9 5 0 12 30 15 66 7 93 -4 434 -15 440 -31 19 -52 -64 -63 -251 -6
-103 -12 -125 -22 -87 -3 12 -12 23 -19 24 -8 0 -20 1 -26 2 -19 2 -31 -69
-30 -181 1 -59 -3 -103 -9 -103 -5 0 -9 14 -9 31 0 20 -4 29 -12 26 -26 -9 -4
-326 24 -343 18 -11 18 3 3 87 -8 46 -15 96 -15 112 0 31 16 36 25 8 7 -24 22
-189 20 -216 -2 -11 -3 -45 -4 -76 -1 -40 -7 -62 -21 -79 -11 -13 -20 -29 -20
-36 0 -35 -101 -164 -129 -164 -8 0 -32 -12 -53 -26 -21 -15 -59 -30 -85 -35
-26 -5 -56 -18 -68 -29 -12 -11 -28 -20 -36 -20 -8 0 -1 12 17 28 33 29 58 86
26 60 -9 -7 -30 -29 -48 -47 l-32 -35 -25 30 c-21 24 -29 27 -44 18 -13 -8
-17 -21 -15 -43 2 -20 -3 -39 -12 -50 -8 -9 -29 -44 -47 -76 -50 -95 -49 -94
-125 -80 -41 8 -74 20 -87 34 -25 25 -15 26 41 7 36 -13 41 -13 46 1 9 23 7
26 -16 20 -11 -3 -33 0 -47 7 -14 7 -41 16 -59 19 -36 7 -148 49 -199 74 -35
17 -98 98 -84 107 5 4 19 -11 32 -33 14 -26 31 -41 48 -44 14 -3 27 -4 29 -2
7 7 -52 85 -64 85 -7 0 -23 17 -35 38 -14 23 -49 54 -92 82 -38 25 -108 78
-154 118 -47 39 -89 72 -94 72 -5 0 -9 5 -9 10 0 20 39 9 59 -17 12 -14 24
-24 26 -21 3 3 -4 17 -16 31 -15 20 -17 27 -6 27 19 0 43 -28 62 -73 8 -20 20
-37 26 -37 8 0 8 5 -1 18 -7 9 1 2 17 -15 16 -18 36 -33 45 -33 9 0 21 -13 28
-29 12 -29 62 -57 81 -46 4 3 16 -6 25 -20 24 -36 39 -31 17 6 -10 17 -39 47
-65 68 -48 36 -58 51 -36 51 12 0 128 -118 128 -131 0 -4 20 -19 44 -33 24
-14 46 -32 50 -41 3 -8 11 -15 18 -15 7 0 24 -12 37 -26 l24 -25 -58 26 c-32
14 -60 24 -62 22 -8 -9 39 -39 106 -67 79 -32 96 -36 106 -20 8 13 -24 80 -39
81 -6 1 -15 2 -21 4 -5 1 -14 3 -19 3 -5 1 -3 8 3 16 9 11 6 15 -16 21 -15 3
-47 20 -71 36 -23 16 -48 29 -54 29 -6 0 -34 21 -63 48 -77 69 -156 132 -167
132 -7 0 -7 -4 0 -12 10 -13 12 -68 1 -68 -3 0 -13 16 -22 35 -9 19 -46 58
-83 87 -37 29 -88 72 -114 96 -26 23 -55 42 -64 42 -9 0 -22 11 -28 25 -11 24
-44 43 -55 31 -4 -3 1 -14 9 -23 9 -10 25 -40 37 -67 12 -29 47 -74 86 -112
36 -35 65 -66 65 -69 0 -7 -71 29 -116 60 -40 27 -60 25 -43 -6 14 -28 161
-169 174 -169 6 0 20 -8 31 -19 20 -18 137 -108 188 -144 14 -10 31 -27 37
-38 11 -21 11 -21 -20 -3 -17 10 -43 29 -58 41 -14 13 -28 21 -31 18 -9 -8 20
-34 82 -75 81 -53 46 -53 -58 0 -43 22 -82 40 -87 40 -44 0 67 -103 153 -142
59 -27 167 -65 203 -71 17 -3 38 -9 48 -12 12 -5 17 -2 17 9 0 9 -7 16 -15 16
-8 0 -15 5 -15 10 0 13 17 13 24 1 17 -26 177 -81 238 -81 15 0 28 -4 28 -8 0
-5 -13 -36 -30 -70 -16 -34 -30 -66 -30 -71 0 -22 -83 -131 -100 -131 -16 0
-17 3 -7 30 15 39 -1 58 -31 39 -17 -11 -25 -11 -46 0 -23 13 -25 18 -19 56 3
25 1 45 -5 49 -13 8 -47 -39 -56 -76 -10 -41 -26 -34 -26 12 0 22 -2 40 -4 40
-20 0 -56 -22 -56 -35 0 -8 -3 -15 -7 -15 -5 -1 -20 -11 -36 -23 l-27 -23 16
-71 c15 -70 15 -72 -8 -133 -17 -47 -33 -70 -64 -94 -50 -38 -84 -87 -84 -121
0 -37 26 -42 58 -12 15 13 42 32 60 41 29 15 33 15 38 1 4 -8 1 -35 -5 -60
-14 -56 -14 -65 2 -65 14 0 44 34 97 108 17 23 38 42 48 42 17 0 69 29 144 81
15 11 37 19 50 19 30 1 99 32 117 53 7 10 19 17 26 17 8 0 28 8 47 17 18 9 40
20 49 24 8 4 46 10 82 14 67 7 103 25 52 25 -19 0 -26 4 -22 14 4 10 -3 14
-29 13 -20 -1 -39 5 -44 13 -7 11 -14 11 -42 -2 -18 -8 -48 -22 -65 -29 -31
-13 -47 -49 -23 -49 6 0 10 -5 10 -11 0 -6 -17 -9 -42 -7 -36 3 -43 0 -40 -14
2 -11 -3 -18 -13 -18 -8 0 -15 5 -15 10 0 14 -19 12 -67 -7 -27 -11 -42 -24
-40 -33 1 -9 -7 -16 -20 -18 -12 -2 -25 -12 -28 -23 -5 -13 -12 -18 -24 -14
-11 3 -25 -3 -37 -16 -10 -12 -36 -30 -56 -40 -21 -11 -38 -26 -38 -34 0 -7
-5 -17 -11 -21 -9 -5 -10 1 -5 20 5 19 3 26 -7 26 -21 0 -37 111 -22 147 24
57 141 111 215 99 44 -7 74 12 128 79 37 48 112 200 112 230 0 8 12 27 26 42
15 15 22 21 17 13 -6 -8 -13 -26 -15 -40 -3 -14 -9 -33 -13 -44 -7 -15 -5 -17
13 -11 27 8 29 -10 3 -24 -10 -6 -28 -29 -40 -51 -23 -45 -28 -75 -7 -47 7 9
16 17 20 17 4 0 -2 -12 -13 -26 -30 -38 -26 -52 16 -69 40 -17 36 -34 -11 -39
-33 -3 -49 -18 -44 -42 3 -15 5 -16 18 -3 23 22 116 67 154 74 28 6 33 10 28
27 -4 18 -2 20 18 15 36 -9 122 14 128 35 5 21 4 21 53 7 21 -7 40 -18 43 -25
3 -8 0 -11 -10 -7 -7 3 -14 0 -14 -6 0 -6 -6 -11 -14 -11 -9 0 -12 7 -9 20 3
11 0 20 -6 20 -6 0 -11 -6 -11 -13 0 -16 -82 -57 -115 -57 -14 0 -25 -4 -25
-10 0 -15 51 -12 109 7 28 9 54 14 57 10 12 -11 -31 -60 -87 -98 -71 -48 -82
-66 -68 -107 25 -74 129 -85 129 -15 0 16 -8 27 -25 33 -14 5 -25 12 -25 15 0
2 17 13 39 24 34 18 41 18 57 6 18 -14 18 -16 2 -29 -24 -18 -23 -36 1 -36 22
0 51 35 51 62 0 10 7 18 16 18 13 0 15 7 10 32 -6 31 -5 32 10 16 11 -11 17
-31 16 -58 -2 -45 13 -53 28 -14 20 52 3 95 -41 100 -13 1 -26 3 -28 3 -2 1 2
8 9 16 10 12 9 16 -4 21 -9 3 -16 12 -16 19 0 15 48 12 104 -6 37 -11 46 -11
46 1 0 12 -75 51 -83 44 -11 -11 -45 7 -50 26 -3 13 -14 20 -30 20 -27 0 -107
64 -107 86 0 7 9 19 20 27 10 7 24 26 30 41 5 15 19 30 30 33 24 6 27 33 4 33
-8 0 -30 -11 -48 -25 -18 -14 -37 -25 -41 -25 -5 0 -26 -12 -47 -26 -60 -42
-57 -20 5 45 32 33 57 64 57 70 0 20 -20 21 -54 1 -20 -11 -36 -17 -36 -14 0
3 -11 -7 -24 -23 -24 -27 -86 -70 -86 -58 0 6 13 23 43 56 9 10 17 25 17 32 0
7 7 22 15 33 8 10 15 25 15 32 0 27 -31 9 -76 -43 -50 -59 -62 -65 -42 -19 28
64 151 154 211 154 28 0 34 -31 9 -48 -28 -19 -28 -35 0 -27 16 6 20 4 15 -8
-4 -10 1 -18 14 -22 10 -4 19 -12 19 -20 0 -20 63 -27 75 -7 19 30 77 92 87
92 5 0 4 -9 -2 -20 -9 -18 -8 -20 15 -20 14 0 25 5 25 12 0 6 6 19 14 27 15
18 32 81 20 81 -4 0 -13 -8 -20 -17 -12 -16 -12 -16 -7 6 6 25 1 26 -52 6 -16
-7 -15 -2 8 22 26 28 32 30 79 25 l51 -5 -6 31 c-7 36 9 54 41 45 19 -5 22 -1
22 25 0 17 7 38 16 47 9 8 13 22 10 30 -3 8 4 34 15 57 11 24 17 32 14 18 -15
-74 -17 -100 -6 -100 6 0 13 12 17 28 16 76 39 135 57 145 20 13 57 77 57 100
0 8 6 20 14 26 8 7 17 23 20 36 12 48 76 174 95 187 10 7 35 54 54 103 20 50
49 115 66 145 17 30 37 70 46 88 8 17 20 32 25 32 6 0 10 9 10 20 0 21 47 77
56 67 3 -3 -10 -29 -29 -58 -19 -30 -37 -71 -41 -92 -9 -51 6 -41 39 23 14 27
29 51 35 55 5 3 10 15 10 25 0 17 81 141 130 199 11 13 20 30 20 36 0 19 135
155 154 155 17 0 76 74 76 96 0 7 14 22 30 34 50 36 12 57 -40 22z m-72 -104
c-3 -7 -16 -18 -29 -25 -14 -7 -31 -24 -39 -38 -7 -14 -17 -25 -21 -25 -4 0
-15 -7 -24 -16 -9 -9 -19 -14 -22 -10 -3 3 18 27 47 53 29 27 58 53 64 60 14
16 29 16 24 1z m-294 -102 c-7 -30 -24 -35 -24 -8 0 18 20 45 27 38 2 -2 1
-15 -3 -30z m-128 -131 c-9 -9 -16 -13 -16 -8 0 12 22 34 28 28 2 -2 -3 -11
-12 -20z m244 21 c0 -3 -4 -8 -10 -11 -5 -3 -10 -1 -10 4 0 6 5 11 10 11 6 0
10 -2 10 -4z m-290 -115 c0 -6 -4 -13 -10 -16 -5 -3 -10 1 -10 9 0 9 5 16 10
16 6 0 10 -4 10 -9z m20 -50 c0 -5 -9 -19 -20 -32 -15 -19 -19 -21 -20 -7 0 9
7 24 16 32 18 18 24 20 24 7z m-389 -158 c-2 -7 -10 -13 -18 -13 -9 0 -13 6
-10 14 3 8 9 43 14 78 l8 63 5 -65 c3 -36 3 -71 1 -77z m424 61 c-20 -38 -41
-73 -46 -79 -16 -16 1 25 28 68 13 21 28 50 34 64 5 14 12 23 15 21 3 -3 -11
-37 -31 -74z m-140 -1 c-8 -34 -11 -37 -24 -29 -7 5 -7 15 1 31 15 34 32 32
23 -2z m-58 -105 c-3 -7 -5 -2 -5 12 0 14 2 19 5 13 2 -7 2 -19 0 -25z m-227
-58 c-4 -25 -8 -35 -9 -22 0 12 -7 22 -13 22 -10 0 -10 2 0 9 7 4 12 12 11 17
-1 5 -1 18 0 29 1 16 3 17 10 5 5 -8 5 -35 1 -60z m358 33 c-2 -9 -8 -18 -15
-20 -7 -3 -9 3 -6 16 6 25 26 28 21 4z m-442 -328 c0 -154 -3 -289 -7 -300 -5
-13 -8 3 -9 45 -1 82 -8 175 -20 268 -13 100 -13 259 1 284 26 49 34 -12 35
-297z m294 260 c0 -49 -8 -56 -28 -25 -9 15 -9 25 0 45 17 38 28 30 28 -20z
m-234 -101 c-4 -13 -11 -24 -16 -24 -11 0 -13 73 -3 110 6 22 8 20 16 -19 5
-24 6 -54 3 -67z m187 18 c-6 -42 -23 -59 -23 -22 0 19 21 73 26 67 1 -1 0
-21 -3 -45z m114 -34 c-3 -7 -5 -2 -5 12 0 14 2 19 5 13 2 -7 2 -19 0 -25z
m-169 -120 c-7 -13 -14 -30 -15 -38 -1 -8 -3 -24 -5 -35 -2 -11 -9 -26 -15
-33 -7 -7 -13 -19 -14 -25 -3 -54 -65 -225 -77 -213 -6 7 39 196 48 196 4 0
12 25 19 56 17 74 64 168 69 137 2 -12 -3 -32 -10 -45z m44 -99 c-11 -17 -22
-27 -26 -21 -3 5 1 15 9 22 8 7 15 20 15 30 0 23 14 36 18 16 2 -9 -5 -30 -16
-47z m-172 -82 c-16 -32 -21 -69 -25 -165 l-5 -125 -52 -48 c-29 -27 -55 -45
-58 -39 -3 5 -11 5 -20 0 -24 -16 -34 -11 -17 8 8 9 27 40 41 67 23 44 26 47
26 23 0 -49 18 -30 25 27 5 35 14 60 25 68 13 9 18 33 23 109 4 58 2 100 -3
103 -13 8 -13 38 1 52 7 7 17 4 35 -14 l24 -24 -20 -42z m110 28 c-13 -35 -19
-30 -13 13 3 20 9 30 15 24 5 -5 5 -20 -2 -37z m-1760 -15 c0 -5 -4 -10 -10
-10 -5 0 -10 5 -10 10 0 6 5 10 10 10 6 0 10 -4 10 -10z m1790 2 c0 -5 -7 -17
-15 -28 -14 -19 -14 -19 -15 2 0 11 3 24 7 27 9 10 23 9 23 -1z m-1720 -66 c0
-6 -7 -3 -14 6 -7 10 -16 15 -19 11 -4 -3 -7 2 -7 12 0 17 1 17 20 0 11 -10
20 -23 20 -29z m1680 35 c0 -6 -4 -13 -10 -16 -5 -3 -10 1 -10 9 0 9 5 16 10
16 6 0 10 -4 10 -9z m-92 -42 c-6 -16 -12 -29 -13 -27 -6 6 8 58 16 58 4 0 3
-14 -3 -31z m73 -26 c-8 -15 -10 -15 -11 -2 0 17 10 32 18 25 2 -3 -1 -13 -7
-23z m-1639 -109 c84 -47 97 -60 69 -69 -15 -4 -35 5 -73 33 -102 75 -100 94
4 36z m163 -108 c11 -8 15 -16 8 -16 -7 0 -25 12 -40 26 -29 26 -6 20 32 -10z
m145 4 c0 -5 -2 -10 -4 -10 -3 0 -8 5 -11 10 -3 6 -1 10 4 10 6 0 11 -4 11
-10z m-167 -34 c-6 -13 -18 -7 -33 16 -15 23 -15 23 10 7 14 -9 24 -19 23 -23z
m115 -25 c3 -9 -5 -7 -22 4 -14 10 -26 22 -26 27 0 13 43 -15 48 -31z m-51 2
c28 -26 57 -73 44 -73 -6 0 -17 14 -26 30 -15 30 -35 40 -35 19 0 -8 -5 -8
-15 1 -19 15 -20 40 -2 40 8 0 23 -8 34 -17z m1113 -78 c-7 -8 -17 -15 -22
-15 -6 0 -5 7 2 15 7 8 17 15 22 15 6 0 5 -7 -2 -15z m-1020 -15 c0 -5 -4 -10
-9 -10 -6 0 -13 5 -16 10 -3 6 1 10 9 10 9 0 16 -4 16 -10z m301 -22 c11 -21
11 -22 -4 -9 -10 7 -17 17 -17 22 0 15 9 10 21 -13z m659 2 c0 -12 -28 -25
-36 -17 -9 9 6 27 22 27 8 0 14 -5 14 -10z m-60 -46 c0 -16 -16 -19 -25 -4 -8
13 4 32 16 25 5 -4 9 -13 9 -21z m57 -4 c-8 -30 12 -35 45 -10 39 29 43 22 12
-18 -25 -31 -101 -79 -111 -69 -8 9 15 79 33 98 22 24 28 24 21 -1z m-997 -52
c29 -32 14 -37 -18 -5 -14 15 -21 27 -15 27 7 0 21 -10 33 -22z m147 -24 c17
-13 35 -24 40 -24 12 0 36 -41 28 -48 -4 -4 -20 8 -36 27 -30 36 -53 36 -31 0
12 -18 11 -19 -6 -10 -23 12 -52 55 -52 76 0 18 8 15 57 -21z m-72 -22 c-6 -7
-35 18 -35 31 0 5 9 2 20 -8 11 -10 18 -20 15 -23z m275 -46 c0 -11 -19 -15
-25 -6 -3 5 1 10 9 10 9 0 16 -2 16 -4z m350 -33 c0 -5 -7 -17 -15 -27 -15
-20 -20 -10 -9 18 6 16 24 22 24 9z m122 -15 c-7 -7 -12 -8 -12 -2 0 14 12 26
19 19 2 -3 -1 -11 -7 -17z m-91 -95 c-9 -16 -10 -15 -11 8 0 14 3 29 8 33 12
12 14 -22 3 -41z m-31 -48 c-10 -12 -9 -16 5 -22 11 -4 22 0 30 10 7 9 15 14
19 10 8 -9 -24 -43 -41 -43 -7 0 -37 -17 -65 -37 l-53 -38 22 30 c11 17 30 39
42 49 12 11 21 23 21 28 0 16 -24 8 -52 -19 -32 -30 -47 -25 -30 12 7 15 17
22 26 19 8 -3 25 9 43 30 l28 36 8 -25 c6 -17 5 -31 -3 -40z m110 21 c0 -16
-24 -39 -32 -30 -3 3 -4 14 -1 25 6 22 33 26 33 5z m49 -43 c8 -18 9 -29 1
-37 -7 -7 -10 -6 -10 2 0 7 -9 12 -20 12 -11 0 -20 -4 -20 -8 0 -9 -55 -43
-67 -41 -4 1 -30 -8 -56 -20 -26 -12 -56 -20 -65 -18 -15 3 -15 5 3 12 11 4
35 19 53 32 17 13 36 22 41 19 8 -6 96 48 107 65 9 16 20 10 33 -18z m-686
-38 c4 -8 2 -17 -3 -20 -6 -4 -10 3 -10 14 0 25 6 27 13 6z m-3 -85 c9 -16 8
-20 -5 -20 -8 0 -15 9 -15 20 0 11 2 20 5 20 2 0 9 -9 15 -20z m65 -7 c-5 -10
-7 -24 -6 -30 1 -7 -2 -13 -8 -13 -17 0 -18 24 -3 48 17 26 29 22 17 -5z m51
-41 c-22 -5 -30 3 -21 18 5 8 11 7 22 -2 15 -12 14 -13 -1 -16z m-146 3 c0 -8
-2 -15 -4 -15 -2 0 -6 7 -10 15 -3 8 -1 15 4 15 6 0 10 -7 10 -15z m864 -60
c-6 -16 -24 -21 -24 -7 0 11 11 22 21 22 5 0 6 -7 3 -15z m-192 -67 c-7 -7
-12 -8 -12 -2 0 14 12 26 19 19 2 -3 -1 -11 -7 -17z m48 -74 c0 -2 -7 -4 -15
-4 -8 0 -15 4 -15 10 0 5 7 7 15 4 8 -4 15 -8 15 -10z m-765 -54 c15 -30 15
-30 -11 -30 -15 0 -47 -12 -72 -26 l-44 -26 7 23 c9 31 24 46 66 68 19 10 35
19 36 20 1 0 9 -12 18 -29z"/>
<path d="M8618 5551 c-83 -73 -218 -446 -232 -641 -2 -36 -12 -107 -21 -158
-9 -52 -14 -96 -12 -98 2 -3 12 -2 21 2 19 7 25 29 31 104 8 114 18 175 31
183 8 4 14 22 14 38 0 17 6 37 14 44 7 8 19 49 25 92 6 43 16 80 21 81 6 2 10
21 10 42 0 21 5 40 12 42 6 2 12 21 12 42 1 31 6 40 24 47 26 10 27 1 8 -54
-8 -20 -10 -39 -6 -42 8 -5 50 110 50 136 0 8 14 43 30 78 43 91 30 117 -32
62z m4 -74 c-6 -12 -15 -35 -20 -52 l-10 -30 -1 28 c-1 30 27 93 36 83 4 -3 1
-16 -5 -29z m-155 -329 c-3 -8 -6 -5 -6 6 -1 11 2 17 5 13 3 -3 4 -12 1 -19z
m-11 -75 c-10 -10 -19 5 -10 18 6 11 8 11 12 0 2 -7 1 -15 -2 -18z m-29 -75
c-3 -7 -5 -2 -5 12 0 14 2 19 5 13 2 -7 2 -19 0 -25z"/>
<path d="M9234 5342 c-98 -83 -203 -187 -277 -272 -47 -55 -66 -55 -25 0 12
16 19 32 16 35 -8 8 -78 -90 -78 -109 0 -9 -15 -33 -33 -53 -61 -71 -112 -138
-126 -165 -8 -15 -22 -36 -32 -47 -9 -10 -29 -40 -43 -67 -15 -27 -42 -74 -61
-104 -34 -54 -45 -87 -25 -75 14 9 12 -5 -8 -41 -9 -18 -25 -48 -35 -67 -10
-19 -27 -43 -38 -53 -19 -17 -28 -60 -10 -49 20 12 21 -16 1 -57 -11 -23 -20
-49 -20 -57 0 -9 -7 -25 -15 -35 -8 -11 -15 -29 -15 -40 0 -12 -7 -30 -15 -40
-8 -11 -13 -28 -9 -38 6 -21 -13 -61 -26 -53 -10 6 -15 -11 -25 -85 -3 -25
-13 -55 -21 -68 -8 -13 -13 -31 -11 -40 3 -12 5 -10 6 6 1 24 17 28 41 11 11
-8 12 -12 3 -16 -18 -7 -16 -23 2 -23 8 0 15 -8 15 -19 0 -14 10 -20 41 -24
23 -3 47 -11 53 -17 8 -8 7 -10 -6 -5 -9 4 -26 1 -38 -5 -16 -9 -25 -9 -33 -1
-15 15 -27 14 -27 -2 0 -7 21 -24 48 -37 l47 -25 -60 -6 c-45 -4 -54 -8 -38
-13 12 -5 24 -14 27 -21 7 -18 114 -31 129 -16 6 6 7 11 2 12 -86 4 -139 18
-79 20 16 1 32 1 37 0 4 0 7 3 7 9 0 5 16 10 35 10 19 0 35 -4 35 -9 0 -5 10
-11 23 -15 18 -5 19 -8 8 -15 -12 -8 -8 -11 15 -16 117 -27 210 -57 227 -74
12 -12 7 -11 -85 5 -85 14 -148 16 -148 4 0 -8 9 -11 25 -8 14 3 30 -1 36 -8
6 -8 19 -14 29 -14 13 0 16 -6 12 -26 -4 -20 -1 -25 9 -22 8 3 13 12 11 20 -4
27 65 20 132 -13 33 -17 65 -34 71 -40 13 -13 -87 -12 -159 2 -81 15 -102 7
-46 -18 25 -11 71 -21 104 -22 33 -1 82 -6 109 -12 66 -12 150 -12 142 1 -3 5
6 21 22 35 l28 24 -62 1 c-106 0 -78 19 80 51 87 18 69 31 -30 22 -49 -4 -97
-7 -108 -7 -25 1 -76 12 -82 17 -4 5 130 37 153 37 8 0 14 4 14 8 0 5 -50 8
-111 6 -61 -1 -109 0 -106 2 3 3 38 12 79 21 100 20 112 35 23 29 -38 -2 -78
-5 -89 -5 -11 -1 -16 -6 -13 -15 4 -11 -5 -16 -34 -21 -22 -4 -43 -5 -45 -2
-9 9 16 48 29 45 15 -3 97 51 97 64 0 6 -23 8 -52 6 -51 -3 -53 -2 -56 25 l-3
28 -122 -6 c-128 -6 -225 8 -220 33 2 6 -12 18 -31 26 -18 7 -43 28 -55 45
-27 38 -23 54 52 211 65 136 147 222 266 281 44 21 92 39 106 39 17 0 29 8 36
23 6 12 39 36 77 54 66 32 189 122 205 150 17 28 -13 46 -65 39 -39 -5 -48 -4
-48 8 0 17 37 46 59 46 8 0 22 7 32 16 14 12 38 16 104 15 66 0 87 3 92 14 3
10 13 13 29 9 16 -4 24 -2 24 6 0 9 6 8 18 -3 23 -21 62 -22 87 -3 18 13 16
15 -25 27 -25 7 -56 19 -70 26 -20 10 -27 10 -40 -1 -20 -18 -80 -9 -80 11 0
12 -11 14 -62 8 -35 -4 -75 -14 -90 -21 -32 -16 -58 -18 -58 -4 0 6 4 10 8 10
5 0 37 22 73 50 40 31 74 50 91 50 15 0 29 4 32 8 7 12 80 -1 75 -13 -2 -5
-21 -9 -42 -7 -24 1 -44 -3 -53 -13 -9 -8 -24 -15 -33 -15 -10 0 -24 -7 -31
-15 -10 -12 -5 -14 32 -11 24 2 63 8 88 13 53 12 140 9 169 -6 34 -19 67 -13
81 14 17 33 26 32 33 -4 4 -20 14 -31 33 -35 46 -12 46 8 0 56 -41 41 -50 46
-119 57 -68 11 -218 8 -239 -5 -4 -3 -8 -2 -7 3 0 4 34 34 75 66 41 32 71 63
68 68 -3 6 -19 1 -37 -11 -18 -11 -77 -42 -132 -70 -97 -48 -212 -140 -200
-160 3 -4 -3 -6 -13 -3 -12 3 -32 -11 -61 -42 -46 -50 -48 -69 -5 -40 19 12
25 13 22 3 -2 -7 -18 -20 -36 -28 -18 -8 -30 -21 -27 -28 6 -15 -40 -57 -64
-58 -26 -2 -61 -23 -61 -37 0 -7 -9 -20 -20 -30 -20 -17 -40 -23 -40 -12 0 28
112 182 138 193 9 3 26 18 38 32 12 14 33 32 47 39 14 7 28 23 31 35 3 12 18
26 34 32 17 6 36 24 43 40 8 17 24 30 37 32 24 4 31 22 7 22 -8 0 -15 4 -15 9
0 9 34 21 63 21 11 0 32 9 47 20 16 11 36 19 47 18 10 -2 20 2 23 7 3 6 -5 11
-17 13 -30 4 -29 16 1 36 17 11 23 22 19 36 -4 13 0 20 9 20 8 0 29 16 48 35
19 19 40 35 47 35 8 0 16 7 19 15 4 8 12 15 19 15 7 0 18 7 26 16 7 8 36 27
63 41 74 37 186 111 186 122 0 6 -9 15 -20 21 -15 8 -35 3 -95 -25 -42 -19
-82 -35 -88 -35 -7 0 -25 -9 -42 -20 -16 -11 -26 -20 -22 -20 13 0 130 41 159
56 33 17 39 18 33 1 -3 -7 -20 -18 -38 -26 -17 -8 -40 -21 -49 -29 -10 -8 -27
-12 -38 -9 -28 7 -82 -14 -75 -30 5 -14 -50 -73 -68 -73 -12 0 -58 -42 -200
-183 -55 -54 -101 -96 -103 -94 -8 8 48 97 61 97 14 0 45 42 45 61 0 36 -121
-123 -126 -165 -1 -11 -3 -24 -3 -27 -1 -3 -42 -48 -92 -100 -50 -52 -84 -83
-75 -69 9 14 20 34 25 45 5 11 31 49 58 85 26 36 59 82 72 104 14 21 54 75 91
120 37 45 71 89 76 98 5 9 42 52 83 95 144 153 142 150 128 156 -8 3 -52 -28
-103 -71z m-313 -389 c-8 -15 -10 -15 -11 -2 0 17 10 32 18 25 2 -3 -1 -13 -7
-23z m-50 -26 c-10 -9 -11 -8 -5 6 3 10 9 15 12 12 3 -3 0 -11 -7 -18z m3 -68
c-21 -24 -29 -18 -14 10 6 12 16 19 21 15 6 -4 4 -13 -7 -25z m487 -2 c-13
-13 -26 -3 -16 12 3 6 11 8 17 5 6 -4 6 -10 -1 -17z m-218 -9 c-13 -12 -25
-19 -28 -16 -8 7 23 38 38 38 6 0 2 -10 -10 -22z m-59 -41 c-5 -15 -44 -40
-51 -34 -2 3 0 15 7 26 12 23 53 30 44 8z m-264 -24 c0 -5 -14 -24 -30 -43
l-30 -35 20 43 c18 37 41 57 40 35z m-65 -39 c-8 -20 -15 -39 -15 -42 0 -3 -3
-3 -6 0 -6 7 22 78 31 78 3 0 -2 -16 -10 -36z m-33 -29 c-2 -14 -8 -25 -12
-25 -14 0 -19 27 -7 39 18 18 25 13 19 -14z m468 10 c0 -8 -9 -15 -19 -15 -24
0 -36 16 -19 23 24 10 38 7 38 -8z m-94 -6 c11 -18 -14 -35 -34 -23 -25 15
-49 6 -56 -19 -4 -17 -8 -19 -18 -9 -21 21 23 50 94 61 4 1 10 -4 14 -10z
m-49 -55 c-9 -9 -28 6 -21 18 4 6 10 6 17 -1 6 -6 8 -13 4 -17z m-319 -12
c-45 -104 -116 -214 -140 -218 -21 -3 -24 26 -6 44 8 8 8 15 0 25 -9 10 -3 27
25 71 41 64 55 60 28 -7 -27 -65 -34 -96 -25 -102 5 -3 11 9 15 26 4 17 14 39
24 48 9 9 27 40 40 69 14 28 29 52 34 52 5 0 7 -3 5 -8z m227 -11 c3 -6 -4
-15 -15 -21 -22 -12 -23 -10 -14 14 7 18 20 21 29 7z m-96 -111 c-18 -14 -46
-38 -61 -54 -16 -16 -31 -26 -35 -23 -8 9 48 74 69 80 10 3 21 13 25 24 3 10
11 24 17 32 9 12 12 10 15 -10 2 -18 -5 -30 -30 -49z m180 14 c-12 -15 -11
-16 11 -9 l25 7 -27 -27 c-20 -21 -32 -26 -52 -21 -30 7 -26 25 12 48 35 21
48 22 31 2z m-249 -14 c0 -12 -28 -25 -36 -17 -9 9 6 27 22 27 8 0 14 -5 14
-10z m125 -66 c-16 -13 -24 -24 -17 -24 6 0 12 -7 12 -15 0 -8 -7 -15 -16 -15
-9 0 -54 -19 -101 -41 -46 -23 -86 -39 -89 -36 -3 3 32 30 78 61 46 31 98 67
117 81 43 31 57 22 16 -11z m-45 16 c0 -5 -10 -15 -22 -21 -23 -12 -23 -12 -4
10 21 23 26 26 26 11z m-190 -4 c0 -3 -4 -8 -10 -11 -5 -3 -10 -1 -10 4 0 6 5
11 10 11 6 0 10 -2 10 -4z m35 -6 c-3 -5 -11 -10 -16 -10 -6 0 -7 5 -4 10 3 6
11 10 16 10 6 0 7 -4 4 -10z m-145 -60 c0 -5 -4 -10 -10 -10 -5 0 -10 5 -10
10 0 6 5 10 10 10 6 0 10 -4 10 -10z m60 -19 c0 -13 -90 -95 -96 -88 -7 7 17
49 48 84 18 19 48 22 48 4z m113 12 c10 -10 -34 -53 -52 -52 -11 0 -12 2 -3 6
6 2 12 13 12 23 0 23 29 38 43 23z m-68 -93 c-3 -5 -11 -10 -16 -10 -6 0 -7 5
-4 10 3 6 11 10 16 10 6 0 7 -4 4 -10z m-74 -52 c-49 -36 -74 -28 -36 12 19
19 33 26 51 22 24 -4 24 -5 -15 -34z m-84 -15 c-3 -3 -11 -2 -17 2 -8 5 -7 11
2 22 12 15 13 14 16 -1 2 -10 1 -20 -1 -23z m-47 -122 c0 -12 -20 -25 -27 -18
-7 7 6 27 18 27 5 0 9 -4 9 -9z m300 -464 c0 -9 -15 -14 -47 -16 -50 -1 -75
-11 -30 -11 15 0 27 -5 27 -11 0 -8 19 -10 65 -5 76 8 85 -5 17 -26 -50 -16
-192 -14 -192 3 0 5 6 9 14 9 21 0 29 30 8 30 -18 1 -52 23 -52 34 0 3 43 6
95 6 73 0 95 -3 95 -13z m-295 -17 c8 -13 -15 -13 -35 0 -12 8 -11 10 7 10 12
0 25 -4 28 -10z m95 -10 c0 -5 -17 -9 -37 -9 -38 1 -38 1 -8 9 43 11 45 11 45
0z m115 -80 c3 -5 1 -10 -4 -10 -6 0 -11 5 -11 10 0 6 2 10 4 10 3 0 8 -4 11
-10z m235 -59 c0 -11 -46 -20 -71 -14 -35 10 -19 23 26 23 25 0 45 -4 45 -9z
m70 -77 c-25 -7 -54 -15 -66 -19 -12 -4 -29 0 -43 12 -22 18 -21 18 66 19 88
1 88 1 43 -12z m33 -44 c21 0 37 -5 37 -11 0 -15 -99 -4 -114 12 -8 9 -5 10
14 5 14 -3 42 -6 63 -6z"/>
<path d="M8827 5297 c-10 -15 -12 -29 -7 -38 7 -11 10 -9 15 6 4 11 11 28 16
38 14 26 -6 21 -24 -6z"/>
<path d="M9300 5259 c0 -5 5 -7 10 -4 6 3 10 8 10 11 0 2 -4 4 -10 4 -5 0 -10
-5 -10 -11z"/>
<path d="M9197 5178 c-20 -23 -36 -43 -34 -44 5 -5 77 67 77 77 0 14 -4 11
-43 -33z"/>
<path d="M9536 5153 c-1 -1 -20 -5 -42 -8 -91 -14 -234 -65 -234 -85 0 -12 30
-21 43 -13 7 4 30 8 52 9 22 0 47 4 56 8 9 4 20 6 25 5 5 -1 14 0 19 1 12 3
39 6 83 8 20 1 32 7 32 16 0 8 8 15 18 15 9 0 38 3 65 7 46 7 66 18 52 32 -6
6 -163 10 -169 5z m-26 -33 c0 -5 -7 -10 -16 -10 -8 0 -12 5 -9 10 3 6 10 10
16 10 5 0 9 -4 9 -10z"/>
<path d="M6541 5061 c-11 -7 -10 -21 9 -77 13 -38 36 -93 51 -123 16 -30 29
-62 29 -72 0 -10 4 -20 9 -23 5 -3 35 -50 67 -103 54 -90 119 -171 130 -161 2
3 -1 19 -7 36 -18 51 -4 61 20 15 13 -26 17 -43 10 -43 -7 0 -9 -10 -7 -25 3
-14 2 -25 -2 -25 -4 0 -63 54 -131 120 -68 66 -127 120 -131 120 -14 0 -8 -25
13 -50 19 -23 54 -73 90 -126 37 -56 143 -165 165 -170 13 -3 24 -12 24 -19 0
-6 17 -17 38 -23 28 -9 41 -21 56 -52 11 -22 22 -40 26 -40 4 0 42 -34 85 -75
66 -64 95 -86 95 -72 0 1 -23 27 -52 57 -28 30 -64 73 -80 95 -16 22 -41 47
-56 56 -15 9 -26 22 -24 29 4 18 -18 70 -30 70 -5 0 -4 -9 2 -21 11 -19 10
-20 -9 -9 -12 6 -26 8 -31 5 -6 -3 -10 1 -10 9 0 10 6 13 17 9 13 -5 15 -2 9
18 -4 13 -10 34 -13 47 -3 12 -12 22 -19 22 -8 0 -14 9 -14 21 0 29 15 16 46
-41 25 -47 44 -63 44 -40 0 6 -17 38 -38 73 -117 190 -181 299 -236 400 -81
148 -111 197 -124 197 -4 0 -13 -4 -21 -9z m64 -112 c10 -30 0 -33 -13 -4 -6
14 -7 25 -2 25 5 0 12 -9 15 -21z m75 -151 c0 -6 -7 -5 -15 2 -8 7 -15 17 -15
22 0 6 7 5 15 -2 8 -7 15 -17 15 -22z m27 -80 c-3 -8 -6 -5 -6 6 -1 11 2 17 5
13 3 -3 4 -12 1 -19z m42 -43 c2 -10 9 -25 17 -33 8 -7 14 -20 14 -28 0 -8 5
-14 10 -14 6 0 10 -9 10 -21 0 -19 -2 -18 -23 8 -20 25 -57 95 -57 109 0 14
25 -5 29 -21z m-17 -132 c14 -16 28 -44 32 -63 6 -35 6 -34 -33 20 -22 30 -41
58 -41 63 0 15 17 6 42 -20z m118 -155 c0 -13 -23 -5 -28 10 -2 7 2 10 12 6 9
-3 16 -11 16 -16z"/>
<path d="M9245 5020 c10 -11 22 -17 26 -14 11 6 -15 34 -32 34 -8 0 -6 -7 6
-20z"/>
<path d="M4399 4979 c-35 -23 -91 -63 -125 -89 -33 -26 -70 -50 -81 -54 -19
-6 -93 -69 -93 -79 0 -3 7 -8 16 -11 16 -6 89 32 80 42 -3 2 -12 -1 -21 -8 -9
-7 -17 -11 -20 -9 -2 3 26 28 63 56 37 28 78 61 92 73 14 12 41 30 60 40 61
33 126 80 109 80 -9 0 -45 -19 -80 -41z"/>
<path d="M4410 4929 c-19 -16 -70 -50 -112 -75 -43 -25 -80 -49 -83 -54 -10
-15 141 64 167 88 27 25 54 24 30 0 -24 -24 -11 -27 28 -7 50 26 63 44 26 37
-30 -6 -32 -1 -9 24 28 31 -7 21 -47 -13z"/>
<path d="M8635 4950 c-3 -5 -1 -10 4 -10 6 0 11 5 11 10 0 6 -2 10 -4 10 -3 0
-8 -4 -11 -10z"/>
<path d="M8222 4928 c2 -6 10 -14 16 -16 7 -2 10 2 6 12 -7 18 -28 22 -22 4z"/>
<path d="M2203 4903 c-7 -3 -13 -13 -13 -23 0 -25 -18 -34 -36 -19 -13 10 -17
10 -24 -1 -10 -15 -4 -35 22 -72 10 -14 18 -29 18 -33 0 -3 14 -26 30 -51 29
-41 30 -44 10 -44 -24 0 -25 -9 -5 -36 14 -19 14 -18 15 4 0 33 17 27 44 -17
24 -38 46 -59 46 -45 0 3 -29 50 -63 103 -66 100 -91 142 -85 144 2 1 13 8 25
14 25 14 34 4 47 -52 12 -48 58 -145 67 -140 4 3 16 -7 27 -22 33 -49 94 -164
89 -170 -3 -2 -24 16 -47 41 -37 40 -70 59 -70 41 0 -4 17 -32 38 -63 60 -91
59 -86 26 -78 -29 8 -46 24 -38 37 2 4 -3 12 -11 19 -8 7 -15 20 -15 29 0 21
-19 41 -38 41 -12 0 -12 -3 -2 -15 7 -8 10 -21 7 -29 -3 -8 16 -38 45 -70 28
-31 48 -60 44 -63 -10 -10 -266 240 -266 260 0 10 80 -55 124 -102 37 -39 54
-40 27 -2 -24 33 -185 171 -200 171 -28 0 -5 -46 57 -112 37 -40 72 -76 77
-80 6 -4 7 -8 2 -8 -4 0 -41 25 -82 55 -73 54 -105 67 -105 43 0 -7 48 -59
106 -116 99 -95 105 -102 73 -96 -19 4 -52 19 -74 33 -22 14 -47 31 -56 36
-13 8 -114 82 -154 113 -61 46 -118 82 -131 82 -14 0 -14 -3 -4 -15 7 -9 10
-19 6 -22 -10 -11 -26 19 -21 38 7 20 -18 42 -42 37 -10 -2 -18 -11 -18 -21 0
-10 -6 -21 -12 -25 -23 -14 19 -58 122 -127 55 -37 111 -76 124 -86 13 -11 37
-19 53 -19 16 0 58 -16 94 -35 42 -23 73 -33 87 -30 17 5 35 -6 77 -45 30 -29
64 -56 75 -60 14 -6 15 -9 4 -9 -8 -1 -24 6 -35 14 -21 16 -54 20 -54 6 0 -5
27 -19 60 -31 33 -12 65 -29 72 -37 11 -13 8 -13 -22 0 -64 27 -115 52 -120
59 -3 4 -28 17 -54 29 -27 12 -64 35 -82 51 -34 31 -79 58 -96 58 -5 0 -33 11
-61 24 -29 13 -79 31 -112 41 -33 9 -71 21 -84 27 -32 12 -48 -4 -25 -27 14
-14 15 -18 3 -25 -19 -13 -9 -19 58 -37 32 -8 84 -26 117 -40 90 -37 80 -18
-12 24 -80 37 -112 70 -54 57 67 -15 122 -37 122 -49 0 -7 107 -67 238 -132
216 -110 317 -151 442 -183 25 -6 53 -14 64 -17 13 -4 17 -2 14 7 -3 10 -91
47 -116 50 -2 0 -1 3 1 8 3 4 -6 8 -20 9 -33 1 -53 21 -34 32 9 6 10 11 2 15
-6 4 -11 4 -11 -1 0 -4 -5 0 -11 10 -5 9 -15 17 -22 17 -13 0 -67 39 -55 40 4
0 30 -13 58 -30 28 -16 54 -30 57 -30 3 0 26 -16 50 -36 24 -20 46 -34 49 -31
6 6 -43 57 -55 57 -5 0 -26 16 -47 35 -22 20 -52 43 -69 52 -16 8 -39 23 -49
32 -13 10 -17 11 -11 2 4 -7 4 -12 -1 -9 -5 2 -35 16 -67 31 -44 21 -61 35
-68 57 -6 16 -20 32 -32 36 -12 4 -24 10 -27 13 -3 4 -16 15 -30 24 -32 21
-151 140 -146 145 5 4 144 -86 152 -99 3 -5 10 -7 15 -4 5 4 52 -32 105 -79
89 -79 247 -177 262 -162 4 5 -63 85 -88 106 -18 14 -92 131 -87 136 3 3 10 3
15 0 15 -9 132 -165 132 -176 0 -6 5 -10 11 -10 6 0 24 -14 40 -31 44 -47 35
-11 -11 45 -22 26 -54 70 -72 97 -17 27 -35 49 -39 49 -4 0 -10 13 -14 30 -4
16 -11 32 -16 36 -11 7 -52 84 -44 84 8 0 43 -37 89 -93 21 -27 41 -46 44 -43
3 4 -5 17 -18 31 -27 28 -60 121 -48 133 4 4 -5 23 -22 42 -16 19 -29 41 -30
48 0 6 -6 12 -14 12 -9 0 -16 18 -21 55 -7 56 -19 70 -30 35 -4 -12 -14 -19
-27 -17 -15 1 -24 -5 -28 -23 -8 -28 -9 -27 -34 53 -9 26 -16 61 -16 77 0 31
-8 40 -27 33z m151 -195 c3 -7 7 -26 11 -42 l6 -29 -25 31 c-15 16 -26 35 -26
41 0 15 30 14 34 -1z m-56 -43 c-3 -3 -9 2 -12 12 -6 14 -5 15 5 6 7 -7 10
-15 7 -18z m112 -51 c0 -8 7 -26 16 -39 10 -16 12 -25 5 -25 -11 0 -19 16 -36
69 -5 16 -4 21 4 17 6 -4 11 -14 11 -22z m-622 -94 c40 -27 76 -50 80 -50 12
-1 74 -61 69 -67 -6 -5 -92 51 -102 67 -7 11 -93 70 -104 70 -4 0 -16 7 -27
15 -15 11 -16 14 -4 15 9 0 48 -22 88 -50z m62 4 c36 -25 81 -56 100 -68 41
-27 65 -54 56 -63 -3 -3 -28 13 -55 35 -27 23 -52 42 -56 42 -13 0 -125 81
-125 90 0 17 13 11 80 -36z m280 -206 c0 -6 -8 -4 -18 5 -10 10 -24 17 -30 17
-7 0 -12 5 -12 10 0 6 13 4 30 -5 17 -9 30 -21 30 -27z m-125 -8 c3 -5 2 -10
-4 -10 -5 0 -13 5 -16 10 -3 6 -2 10 4 10 5 0 13 -4 16 -10z m275 -65 c14 -16
10 -18 -14 -9 -9 3 -16 10 -16 15 0 14 16 11 30 -6z"/>
<path d="M6870 4848 c0 -18 7 -64 16 -103 9 -38 20 -88 25 -110 4 -22 10 -49
13 -60 31 -141 108 -305 142 -305 8 0 14 -7 14 -15 0 -19 45 -93 73 -120 15
-14 22 -16 25 -6 3 9 9 8 23 -5 20 -18 26 -44 9 -44 -5 0 -10 -4 -10 -10 0 -5
9 -10 19 -10 10 0 21 -6 24 -14 3 -8 32 -26 64 -40 31 -15 65 -34 75 -43 10
-9 21 -14 24 -10 8 8 -26 57 -40 57 -7 0 -23 11 -36 25 -16 17 -26 22 -31 14
-9 -16 -39 -4 -39 16 0 22 -101 150 -117 149 -7 -1 -13 2 -13 7 0 5 -7 9 -15
9 -10 0 -15 10 -15 32 0 29 1 30 18 15 30 -28 44 -21 41 21 -1 20 2 45 6 55 4
10 5 32 1 50 -3 20 -2 26 3 17 5 -8 11 -40 15 -70 12 -102 17 -120 35 -120 9
0 24 -14 34 -31 10 -18 20 -30 22 -27 7 7 -25 68 -35 68 -14 0 -40 99 -39 149
0 35 2 41 9 26 5 -11 9 -36 9 -56 1 -37 22 -66 40 -54 6 3 13 -6 17 -20 5 -19
9 -23 19 -15 10 9 13 1 11 -40 -2 -48 6 -65 17 -37 5 13 -1 265 -7 317 -2 14
-4 46 -5 73 -3 119 -60 -7 -62 -140 -2 -77 -12 -89 -22 -26 -7 43 -14 79 -27
138 -5 22 -10 55 -10 72 0 34 -29 113 -42 113 -4 0 -13 -10 -19 -22 -14 -25
-16 -300 -4 -378 7 -40 6 -43 -9 -31 -10 9 -16 10 -16 2 0 -17 -20 -13 -27 5
-3 9 -1 19 6 23 9 6 9 14 -1 36 -10 22 -10 29 -1 32 15 5 -9 48 -41 75 -12 10
-15 18 -8 18 6 0 12 4 12 10 0 5 -7 7 -15 4 -9 -4 -15 -1 -15 7 0 7 -9 31 -19
53 -26 56 -34 141 -16 156 18 15 16 111 -3 118 -6 2 -12 -1 -12 -7 0 -6 -4
-11 -10 -11 -5 0 -10 7 -10 15 0 8 6 15 13 15 8 0 7 3 -3 10 -11 7 -17 4 -23
-12 l-8 -22 -15 22 c-22 31 -34 27 -34 -10z m54 -26 c11 -18 18 -112 8 -112
-9 0 -32 73 -32 104 0 17 15 22 24 8z m246 -219 c0 -13 -5 -23 -11 -23 -7 0
-8 -18 -4 -55 5 -38 4 -55 -4 -55 -12 0 -16 162 -4 173 9 10 23 -14 23 -40z
m-205 -38 c6 -29 6 -29 -9 -11 -9 11 -16 29 -16 40 0 28 17 8 25 -29z m228
-80 c-7 -21 -13 -19 -13 6 0 11 4 18 10 14 5 -3 7 -12 3 -20z m-158 -65 c8
-16 15 -39 14 -52 -1 -19 -3 -17 -10 9 -5 18 -14 35 -19 38 -10 6 -14 35 -5
35 2 0 11 -13 20 -30z m-38 -2 c-3 -8 -6 -5 -6 6 -1 11 2 17 5 13 3 -3 4 -12
1 -19z m289 -35 c-11 -11 -17 4 -9 23 7 18 8 18 11 1 2 -10 1 -21 -2 -24z
m-266 -4 c0 -6 -4 -7 -10 -4 -5 3 -10 11 -10 16 0 6 5 7 10 4 6 -3 10 -11 10
-16z m282 -61 c-10 -22 -11 -21 -11 12 -1 26 2 31 11 22 8 -8 8 -17 0 -34z"/>
<path d="M2476 4861 c-9 -14 69 -270 87 -288 4 -3 7 5 7 19 0 13 -3 28 -7 31
-10 11 -43 109 -43 131 0 32 15 7 44 -74 29 -82 42 -107 50 -99 3 3 -3 24 -14
46 -10 22 -21 51 -24 64 -5 25 -25 82 -47 134 -7 17 -12 33 -11 38 3 10 -36 9
-42 -2z"/>
<path d="M1980 4845 c0 -44 247 -315 286 -315 14 0 8 10 -26 38 -82 68 -226
219 -218 227 2 2 37 -24 78 -58 80 -67 83 -61 11 17 -73 79 -93 96 -112 96
-11 0 -19 -2 -19 -5z"/>
<path d="M2716 4798 c-3 -13 -5 -70 -5 -128 1 -90 2 -99 11 -65 5 22 7 57 5
78 -6 47 1 77 18 71 15 -6 11 -230 -7 -308 -12 -55 -27 -46 -29 19 0 22 -5 49
-10 60 -10 23 -6 -72 6 -115 4 -14 9 -43 11 -65 3 -22 7 -46 9 -52 2 -7 0 -13
-5 -13 -10 0 -12 6 -35 110 -9 41 -20 93 -26 115 -5 22 -11 73 -12 112 -2 40
-6 75 -9 78 -22 22 -12 -197 13 -275 20 -65 27 -100 19 -100 -7 0 -17 16 -18
30 0 3 -16 34 -34 70 -19 36 -45 90 -57 121 -22 56 -65 109 -77 96 -9 -8 24
-142 47 -194 11 -23 19 -49 19 -57 0 -8 5 -18 10 -21 6 -3 10 -15 10 -26 0
-10 6 -18 13 -17 7 2 13 -10 15 -32 4 -55 11 -69 24 -46 10 17 11 17 22 -2 10
-18 55 -80 90 -127 15 -19 17 -19 29 -3 12 15 14 15 24 0 10 -15 12 -15 12 -1
1 8 -6 24 -14 35 -19 25 -19 35 1 27 14 -5 15 -1 10 24 -6 26 -4 31 15 36 19
5 21 11 16 44 -4 21 -7 48 -7 61 0 12 -4 22 -10 22 -5 0 -10 -17 -10 -37 0
-23 -4 -33 -9 -27 -17 18 -27 130 -19 224 4 52 6 101 3 108 -2 6 -1 12 4 12 4
0 11 -42 15 -92 8 -92 12 -139 16 -168 1 -11 3 -10 9 4 8 21 5 143 -5 196 -4
19 -6 48 -5 63 2 15 -4 39 -13 52 -18 28 -21 61 -6 70 15 9 12 55 -3 55 -7 0
-19 -6 -26 -12 -11 -10 -14 -10 -18 0 -7 19 -20 14 -27 -10z m-156 -324 c11
-36 24 -73 30 -82 8 -15 9 -15 10 3 0 17 2 17 10 5 14 -21 12 -26 -9 -27 -14
-1 -25 13 -44 55 -30 68 -44 128 -28 118 6 -4 20 -36 31 -72z m203 -218 c5
-53 5 -57 -7 -34 -7 14 -16 47 -20 74 -7 43 -6 47 7 34 8 -8 17 -42 20 -74z
m-8 -96 c3 -5 -1 -10 -9 -10 -8 0 -18 5 -21 10 -3 6 1 10 9 10 8 0 18 -4 21
-10z"/>
<path d="M4318 4777 c-32 -17 -58 -37 -58 -42 0 -21 47 -9 85 21 57 46 40 59
-27 21z"/>
<path d="M2400 4756 c0 -13 40 -95 49 -100 18 -11 13 8 -15 58 -23 41 -34 55
-34 42z"/>
<path d="M9480 4700 c0 -5 5 -10 10 -10 6 0 10 5 10 10 0 6 -4 10 -10 10 -5 0
-10 -4 -10 -10z"/>
<path d="M4390 4693 c-22 -8 -180 -126 -180 -134 0 -4 9 -5 20 -2 11 3 20 12
20 19 0 8 4 14 9 14 4 0 31 18 59 40 29 23 53 36 57 30 12 -19 -15 -48 -77
-84 -68 -38 -55 -50 15 -15 60 31 95 57 108 81 10 18 9 20 -5 15 -17 -7 -22 8
-6 18 12 7 14 25 3 24 -5 0 -15 -3 -23 -6z"/>
<path d="M4214 4659 c-10 -12 -35 -30 -54 -40 -19 -11 -55 -33 -80 -49 -58
-38 -70 -44 -76 -37 -8 7 26 42 49 50 31 11 18 25 -15 17 -45 -10 -148 -57
-170 -77 -9 -8 -24 -13 -33 -10 -8 4 -14 1 -12 -5 1 -6 -4 -13 -10 -15 -7 -3
-13 3 -14 14 0 10 -3 13 -6 6 -2 -7 -13 -13 -24 -13 -12 0 -19 -7 -19 -20 0
-27 -43 -48 -64 -31 -12 10 -23 7 -62 -21 -25 -18 -57 -39 -71 -47 -14 -7 -22
-16 -17 -20 5 -3 14 -16 21 -28 11 -19 9 -22 -20 -33 -28 -10 -30 -13 -13 -19
13 -5 16 -10 8 -15 -6 -4 -21 -2 -32 4 -18 10 -19 14 -8 27 9 12 10 17 2 20
-7 2 -9 14 -6 26 5 19 3 20 -10 9 -9 -7 -23 -28 -32 -47 -15 -31 -22 -35 -69
-41 -29 -4 -46 -9 -39 -11 18 -7 15 -21 -7 -32 -13 -7 -29 -7 -49 0 -17 6 -43
9 -59 7 -24 -3 -19 -7 32 -23 33 -10 67 -18 75 -17 8 2 -7 -18 -35 -43 -27
-25 -87 -80 -132 -122 -76 -69 -96 -93 -75 -93 4 0 30 21 57 46 28 25 74 61
104 81 29 20 70 58 91 84 l38 48 4 -47 c2 -26 0 -48 -4 -50 -4 -2 -8 -9 -8
-15 0 -8 3 -8 11 0 6 6 18 9 26 6 12 -5 13 2 8 33 -7 41 -3 40 33 -13 10 -15
11 -12 6 24 -4 34 -2 44 10 49 9 3 16 12 16 20 0 18 14 18 30 -1 10 -12 16
-13 24 -5 8 8 6 14 -7 21 -21 12 -13 29 14 29 10 0 28 9 38 19 25 25 107 61
138 61 52 0 271 43 346 67 43 14 99 39 125 56 44 28 46 30 24 38 -12 5 -30 5
-40 2 -15 -6 -15 -4 2 15 26 30 16 35 -29 17 -51 -22 -55 -12 -7 19 38 23 152
130 152 141 0 15 -59 2 -76 -16z m-14 -56 c0 -13 -104 -85 -183 -127 -177 -96
-225 -115 -365 -146 -52 -12 -84 -8 -43 5 30 9 26 27 -4 19 -32 -8 -32 2 1 32
27 26 40 30 46 14 4 -14 94 25 101 44 3 8 19 17 34 20 16 4 55 22 86 41 56 34
95 46 82 25 -10 -16 -113 -81 -177 -112 -61 -29 -79 -54 -30 -42 40 10 201 93
327 168 109 65 125 73 125 59z m-105 -113 c-3 -5 -2 -10 4 -10 5 0 13 5 16 10
10 16 38 12 31 -5 -4 -11 2 -15 22 -15 l27 0 -25 -20 c-14 -11 -36 -24 -50
-29 -40 -15 -214 -61 -230 -61 -24 0 50 53 114 81 32 15 63 34 68 43 5 9 14
16 19 16 6 0 7 -4 4 -10z m-645 -239 c0 -6 -4 -13 -10 -16 -5 -3 -10 -15 -10
-26 0 -10 -4 -19 -10 -19 -13 0 -13 26 0 51 11 20 30 26 30 10z"/>
<path d="M3155 4660 c-9 -14 3 -30 22 -30 9 0 24 -7 34 -16 16 -14 17 -13 16
20 -1 34 -3 36 -33 36 -18 0 -36 -4 -39 -10z"/>
<path d="M8803 4651 c-45 -38 -17 -35 32 3 15 11 16 15 5 15 -8 0 -25 -8 -37
-18z"/>
<path d="M9135 4650 c-16 -7 -17 -9 -3 -9 9 -1 20 4 23 9 7 11 7 11 -20 0z"/>
<path d="M8783 4605 c-18 -8 -33 -19 -33 -24 0 -6 18 -1 40 10 58 31 53 40 -7
14z"/>
<path d="M2670 4603 c0 -5 5 -15 10 -23 7 -12 9 -10 7 8 -1 19 -17 33 -17 15z"/>
<path d="M7401 4464 c-16 -54 -19 -80 -12 -87 8 -8 11 -3 11 15 0 15 5 39 11
55 l11 28 10 -25 c5 -14 12 -87 15 -163 3 -76 10 -140 15 -143 5 -3 16 2 23
12 12 15 16 16 24 5 17 -26 22 9 11 87 -6 44 -8 86 -5 95 4 8 -3 34 -15 57
-17 34 -24 39 -36 30 -12 -11 -14 -3 -14 49 0 88 -21 81 -49 -15z m84 -164
c-4 -23 -9 -39 -12 -36 -3 2 -2 23 2 46 4 23 9 39 12 36 3 -2 2 -23 -2 -46z"/>
<path d="M9078 4468 c-27 -9 -38 -28 -18 -28 15 0 80 28 80 34 0 9 -32 6 -62
-6z"/>
<path d="M2852 4408 c-16 -72 -19 -345 -4 -360 9 -9 12 -8 13 3 2 20 -1 50 -7
77 -2 12 0 22 5 22 5 0 12 -10 15 -22 6 -19 9 -15 21 27 7 28 27 88 44 133 32
87 32 115 1 87 -21 -19 -32 -53 -20 -60 9 -6 -16 -104 -31 -119 -20 -22 -18
24 3 59 14 26 18 40 11 42 -7 3 -10 12 -7 21 5 15 4 15 -9 -1 -13 -16 -15 -15
-21 14 -3 17 -3 43 0 57 3 15 7 37 10 50 2 12 1 22 -4 22 -5 0 -14 -24 -20
-52z"/>
<path d="M3230 4440 c0 -5 5 -10 11 -10 5 0 7 -4 4 -10 -4 -6 12 -10 42 -10
l48 0 -38 20 c-40 22 -67 26 -67 10z"/>
<path d="M8981 4409 c-13 -5 -22 -11 -20 -14 8 -7 49 7 49 16 0 5 -1 9 -2 8
-2 0 -14 -5 -27 -10z"/>
<path d="M3262 4368 c-53 -10 -78 -32 -66 -61 8 -22 208 -17 231 6 16 16 16
17 1 17 -9 0 -20 -4 -23 -10 -3 -5 -16 -10 -28 -10 -21 1 -21 1 -4 14 28 21 2
31 -43 16 -21 -7 -47 -9 -57 -5 -15 6 -11 10 21 21 22 8 48 12 58 8 10 -3 18
-1 18 5 0 13 -34 12 -108 -1z"/>
<path d="M7654 4363 c-3 -10 -10 -26 -15 -36 -67 -125 -79 -160 -59 -172 6 -4
10 6 10 22 0 31 52 142 58 123 2 -6 -6 -55 -19 -107 -17 -69 -28 -97 -40 -100
-27 -7 -44 -59 -30 -89 6 -14 15 -22 21 -19 5 3 14 -4 20 -16 15 -28 25 -16
22 26 -2 19 1 35 6 35 10 0 22 -47 22 -86 0 -13 5 -24 10 -24 20 0 21 28 6 81
-20 67 -20 72 4 64 16 -5 20 -2 20 19 0 23 -3 25 -31 19 -31 -6 -31 -6 -24 28
4 18 16 58 26 89 22 70 29 151 12 157 -7 3 -16 -4 -19 -14z"/>
<path d="M7376 4351 c-4 -7 -11 -40 -14 -73 -4 -52 -3 -60 10 -55 12 4 17 -4
22 -35 8 -48 4 -55 -17 -33 -10 9 -18 11 -22 5 -4 -6 -11 -8 -16 -5 -5 4 -9 0
-9 -9 0 -15 55 -66 71 -66 5 0 9 -13 9 -29 0 -37 16 -81 30 -81 11 0 4 75 -12
127 -5 18 -9 73 -9 123 0 49 -4 90 -9 90 -5 0 -12 12 -17 27 -7 19 -12 23 -17
14z"/>
<path d="M1760 4271 c0 -6 10 -17 23 -26 15 -12 18 -19 10 -22 -40 -15 15 -43
133 -67 71 -15 113 -15 68 0 -10 3 -26 8 -34 11 -8 3 -31 7 -50 10 -66 10 -98
31 -72 47 10 6 132 -34 177 -58 44 -24 63 -21 39 5 -27 31 -141 80 -168 73
-12 -3 -43 4 -70 15 -55 24 -56 24 -56 12z"/>
<path d="M2000 4246 c0 -6 134 -107 182 -136 33 -20 46 -34 42 -44 -4 -10 3
-20 20 -27 14 -7 26 -18 26 -25 0 -7 6 -14 13 -17 48 -18 -230 26 -335 53 -49
13 -78 9 -78 -10 0 -6 14 -13 30 -16 33 -7 41 -24 11 -24 -11 0 -22 -4 -25 -9
-9 -14 77 -39 168 -50 43 -5 82 -14 86 -21 4 -6 20 -13 36 -16 16 -3 33 -9 39
-15 5 -5 42 -9 82 -9 40 0 73 -2 73 -4 0 -2 -7 -17 -15 -32 -8 -16 -15 -36
-15 -45 0 -9 -7 -22 -15 -29 -8 -7 -15 -21 -15 -31 0 -11 -4 -19 -10 -19 -5 0
-10 5 -10 11 0 5 -4 7 -10 4 -5 -3 -10 -42 -10 -86 0 -71 -2 -79 -19 -79 -20
0 -35 25 -25 41 3 5 -1 9 -9 9 -32 0 -27 -68 6 -87 9 -4 17 -19 19 -33 1 -14
8 -23 13 -20 6 3 9 12 8 21 -2 11 5 17 22 17 28 0 29 -3 14 -47 -6 -18 -18
-31 -28 -31 -23 0 -41 -19 -41 -43 0 -17 5 -19 41 -14 51 7 67 20 49 42 -10
12 -10 15 4 15 11 0 16 9 16 28 0 15 9 35 20 45 11 9 20 28 20 41 0 14 5 28
10 31 6 4 10 -7 10 -27 l1 -33 14 30 c13 27 14 28 10 5 -6 -44 -16 -59 -43
-62 -25 -3 -27 -6 -28 -55 0 -35 3 -50 10 -46 6 4 1 -9 -11 -28 -12 -18 -31
-38 -43 -44 -19 -9 -20 -15 -15 -85 9 -111 46 -121 50 -13 1 54 17 97 58 156
10 15 9 20 -6 32 -18 13 -18 13 2 20 11 3 29 1 41 -5 21 -11 68 6 98 36 7 8
20 14 28 14 8 0 40 20 72 45 44 35 58 42 60 29 3 -12 13 -15 38 -12 25 3 33 1
30 -9 -3 -7 0 -15 6 -19 7 -4 4 -10 -7 -17 -12 -6 -20 -6 -25 3 -5 9 -13 9
-27 2 -12 -7 -25 -7 -34 -1 -7 5 -17 9 -21 9 -12 0 -9 -28 3 -32 8 -3 4 -19
-11 -47 -25 -51 -13 -81 15 -37 14 21 20 24 32 14 11 -9 16 -9 23 2 5 8 11 12
15 9 3 -3 -8 -20 -25 -37 -32 -34 -38 -52 -17 -52 33 0 93 87 84 121 -6 24 2
24 19 2 20 -27 17 -71 -7 -105 -15 -21 -18 -33 -11 -40 17 -17 38 -2 61 45 17
36 19 50 11 71 -16 44 -13 49 29 42 25 -4 52 0 77 10 21 9 54 17 74 18 39 3
110 49 110 71 0 7 7 18 15 25 25 21 17 30 -12 15 -43 -22 -165 -73 -193 -81
-14 -3 -31 -11 -37 -16 -19 -15 -102 -16 -114 -2 -8 10 -2 14 25 18 20 3 53 9
73 12 20 3 95 35 167 72 117 58 138 66 191 66 53 1 60 -1 57 -18 -2 -11 1 -15
8 -11 6 4 29 4 52 0 26 -5 36 -10 28 -15 -7 -5 24 -11 73 -15 47 -4 90 -4 95
-1 6 4 14 1 18 -5 5 -9 61 -10 213 -5 184 7 236 14 219 31 -2 3 -121 7 -264 9
-250 4 -317 9 -359 26 -73 29 -73 29 0 30 39 1 95 6 125 10 154 24 353 50 420
55 41 3 93 8 115 11 57 7 33 -13 -36 -31 -55 -14 -343 -45 -418 -45 -26 0 -40
-4 -36 -10 19 -31 388 18 573 75 24 8 11 25 -20 26 -18 0 -27 3 -20 6 17 7 15
23 -4 23 -14 0 -14 3 -4 15 7 9 11 18 8 21 -6 5 -187 -53 -203 -65 -10 -8 -54
-16 -140 -27 -22 -3 -83 -14 -137 -25 -100 -20 -213 -25 -222 -10 -6 9 87 21
165 21 28 0 49 5 49 10 0 10 -42 9 -165 -5 -37 -5 -39 -4 -21 10 11 8 31 15
45 15 14 0 42 4 61 9 19 5 48 12 63 15 15 4 25 10 23 15 -3 5 1 14 9 21 20 16
19 30 -1 30 -14 0 -14 3 -4 15 18 22 12 23 -55 15 -82 -10 -140 -27 -155 -45
-7 -8 -19 -15 -26 -15 -8 0 -14 -4 -14 -10 0 -14 8 -13 88 15 83 29 89 30 107
11 24 -23 -23 -45 -117 -55 -46 -4 -72 -9 -59 -10 l24 -1 -23 -25 c-13 -14
-29 -25 -37 -25 -7 0 -13 -4 -13 -9 0 -12 -27 -22 -70 -27 -19 -3 -40 -6 -47
-9 -18 -6 -27 14 -9 21 9 3 16 10 16 15 0 4 -16 -1 -35 -13 -41 -24 -61 -16
-24 9 13 10 43 34 65 55 23 21 46 38 53 38 6 0 11 5 11 11 0 7 -12 9 -36 5
l-35 -7 17 25 c22 35 7 33 -36 -5 -19 -16 -61 -51 -92 -77 -74 -61 -67 -67 9
-8 33 26 69 46 83 46 29 0 21 -9 -40 -43 -25 -13 -88 -50 -140 -81 -52 -31
-102 -56 -110 -56 -12 0 39 36 100 69 8 4 16 17 18 29 2 11 40 53 85 94 93 83
97 86 117 112 14 18 13 18 -18 12 -27 -6 -31 -5 -26 8 4 10 1 16 -8 16 -18 0
-132 -119 -123 -128 4 -4 26 15 49 42 29 33 45 45 50 37 13 -21 -1 -38 -76
-93 -92 -68 -109 -78 -85 -51 9 11 17 23 17 28 0 5 7 17 17 27 13 15 13 18 2
18 -8 0 -38 -25 -67 -56 -29 -31 -56 -53 -59 -50 -4 3 3 16 14 29 20 22 131
205 145 239 10 24 -1 23 -30 -4 -24 -21 -25 -22 -18 -3 6 18 5 18 -16 -3 -19
-19 -20 -24 -9 -31 12 -8 12 -13 -1 -33 -9 -13 -28 -35 -43 -48 -15 -14 -39
-35 -52 -48 -14 -13 -27 -22 -29 -19 -8 7 118 203 147 228 22 20 31 38 35 73
5 39 4 45 -9 40 -10 -3 -17 1 -19 13 -3 19 -74 -66 -166 -199 -24 -35 -50 -72
-58 -83 -8 -11 -26 -38 -39 -60 -34 -55 -33 -22 2 78 25 73 26 80 10 88 -9 6
-17 14 -17 20 0 13 -42 69 -52 69 -16 0 -7 -23 24 -62 l31 -40 -16 -51 c-37
-118 -58 -212 -53 -233 7 -27 -8 -39 -46 -36 -21 2 -31 -3 -37 -20 -5 -13 -18
-32 -30 -42 -15 -14 -18 -22 -10 -27 17 -10 3 -52 -22 -67 -11 -7 -24 -11 -27
-8 -7 7 64 171 89 208 22 31 23 38 7 38 -13 0 -58 -62 -58 -79 0 -5 -14 -40
-31 -78 -32 -69 -51 -72 -30 -4 6 20 15 54 19 76 6 31 13 41 31 43 19 3 22 7
15 30 -4 15 -6 37 -6 50 2 31 -13 27 -28 -8 -20 -48 -35 -34 -33 28 1 20 -22
8 -25 -14 -11 -74 -32 -90 -32 -24 0 41 -15 55 -23 23 -11 -37 -20 -99 -18
-112 1 -7 -4 -11 -11 -9 -13 5 -14 20 -7 145 l4 62 53 7 c29 3 71 4 92 0 25
-4 40 -2 40 4 0 5 -19 11 -42 11 -31 1 -22 4 32 10 41 5 85 13 98 19 27 12 30
34 2 27 -10 -3 -21 0 -22 5 -5 14 -93 43 -189 63 -92 18 -132 33 -224 82 -40
21 -143 91 -178 120 -25 20 -47 30 -47 19z m1030 -121 c0 -7 -127 -185 -146
-205 -10 -10 -17 -11 -25 -3 -8 8 1 29 37 79 27 37 59 79 71 92 13 14 23 29
23 33 0 5 9 9 20 9 11 0 20 -2 20 -5z m-940 -120 c17 -2 43 -13 58 -24 18 -12
33 -16 42 -11 7 4 34 6 59 4 25 -2 118 -8 205 -14 88 -5 161 -12 164 -14 9 -9
-67 -18 -82 -9 -9 5 -55 5 -103 2 -51 -4 -89 -3 -91 2 -2 5 -47 9 -100 9 -65
0 -100 4 -111 13 -9 8 -42 22 -73 31 -61 19 -79 32 -29 21 16 -3 44 -8 61 -10z
m-84 -20 c18 -15 18 -15 -5 -13 -14 2 -26 9 -29 16 -5 17 10 15 34 -3z m844
-114 c-6 -12 -15 -21 -20 -21 -6 0 -10 -6 -10 -14 0 -7 -7 -19 -15 -26 -20
-17 -19 -1 3 31 35 52 66 74 42 30z m1214 -56 c11 -8 18 -16 15 -19 -8 -7
-163 -17 -156 -10 7 8 95 41 112 42 6 1 19 -5 29 -13z m-1175 -67 c-24 -29
-52 -61 -61 -72 -18 -20 -22 -31 -18 -55 2 -20 -41 -61 -64 -61 -20 1 -20 2
-3 14 9 7 17 22 17 34 0 11 3 22 8 24 4 2 23 22 42 44 94 111 114 133 118 129
2 -2 -15 -28 -39 -57z m-75 7 c-6 -16 -24 -21 -24 -7 0 11 11 22 21 22 5 0 6
-7 3 -15z m186 -19 c0 -2 -8 -10 -17 -17 -16 -13 -17 -12 -4 4 13 16 21 21 21
13z m-496 -33 c-4 -16 -15 -48 -24 -73 -10 -25 -21 -52 -24 -60 -3 -8 -3 7 0
35 7 56 32 125 45 125 5 0 6 -12 3 -27z m271 -3 c-8 -16 -15 -35 -15 -43 0
-16 -57 -73 -65 -65 -10 10 14 58 30 58 8 0 15 5 15 11 0 12 38 69 46 69 2 0
-2 -13 -11 -30z m-332 -5 c-7 -21 -13 -19 -13 6 0 11 4 18 10 14 5 -3 7 -12 3
-20z m663 -1 c-30 -21 -45 -16 -16 6 14 10 27 16 30 13 3 -2 -4 -11 -14 -19z
m-196 -9 c0 -2 -10 -9 -22 -15 -22 -11 -22 -10 -4 4 21 17 26 19 26 11z m227
-11 c2 -5 -17 -20 -42 -32 -54 -26 -55 -26 -55 -7 0 8 6 15 14 15 8 0 24 9 37
20 25 20 40 21 46 4z m-820 -51 c-3 -10 -5 -4 -5 12 0 17 2 24 5 18 2 -7 2
-21 0 -30z m693 22 c0 -2 -13 -11 -30 -20 -16 -9 -30 -12 -30 -7 0 4 12 13 28
19 15 6 28 11 30 12 1 1 2 -1 2 -4z m727 -21 c-3 -3 -12 -4 -19 -1 -8 3 -5 6
6 6 11 1 17 -2 13 -5z m-809 -19 c-13 -13 -123 -65 -137 -65 -22 1 25 40 48
40 9 1 27 7 41 15 24 14 59 21 48 10z"/>
<path d="M8381 4164 c-32 -41 -25 -52 9 -14 33 37 34 40 21 40 -5 0 -19 -12
-30 -26z"/>
<path d="M3480 4140 c12 -22 25 -26 35 -11 3 6 -3 15 -14 20 -28 16 -33 14
-21 -9z"/>
<path d="M1950 4132 c0 -11 115 -62 156 -69 75 -12 18 40 -63 57 -26 6 -58 12
-70 15 -13 3 -23 2 -23 -3z"/>
<path d="M7280 4129 c0 -8 7 -24 15 -35 11 -15 14 -16 15 -3 0 8 -7 24 -15 35
-11 15 -14 16 -15 3z"/>
<path d="M7490 4131 c0 -5 -3 -18 -6 -28 -5 -16 -4 -16 10 1 18 23 20 36 6 36
-5 0 -10 -4 -10 -9z"/>
<path d="M3308 4075 c-35 -30 -36 -47 -3 -32 22 11 43 43 33 52 -1 2 -15 -7
-30 -20z"/>
<path d="M8350 4083 c0 -9 -13 -40 -30 -70 -16 -29 -30 -55 -30 -58 0 -13 52
31 64 54 15 30 19 91 5 91 -5 0 -9 -8 -9 -17z"/>
<path d="M3117 4084 c-13 -13 -7 -24 14 -24 11 0 19 5 17 12 -5 14 -22 21 -31
12z"/>
<path d="M7330 4061 c0 -14 58 -43 64 -32 5 7 -9 16 -56 39 -5 2 -8 -1 -8 -7z"/>
<path d="M7700 4046 c0 -9 5 -16 10 -16 6 0 10 4 10 9 0 6 -4 13 -10 16 -5 3
-10 -1 -10 -9z"/>
<path d="M7717 4003 c-14 -13 -7 -33 11 -33 19 0 42 18 42 32 0 10 -44 11 -53
1z"/>
<path d="M7506 3982 c-4 -6 -13 -9 -21 -5 -23 8 -18 -6 15 -44 17 -18 30 -41
30 -51 0 -15 -3 -14 -18 4 -11 14 -33 24 -65 28 -42 5 -48 4 -45 -12 2 -12 13
-17 36 -17 18 0 36 -5 40 -12 10 -17 59 -27 67 -14 4 8 12 8 26 1 27 -15 26
15 -1 32 -11 7 -20 20 -20 30 0 9 -5 20 -11 23 -6 4 -14 16 -18 28 -5 13 -10
16 -15 9z"/>
<path d="M2967 3953 c-4 -3 -7 -11 -7 -17 0 -6 5 -5 12 2 6 6 9 14 7 17 -3 3
-9 2 -12 -2z"/>
<path d="M8268 3888 c-12 -27 -21 -36 -32 -32 -9 3 -16 1 -16 -5 0 -22 31 -24
52 -4 13 13 18 30 16 49 l-4 29 -16 -37z"/>
<path d="M3905 3891 c-3 -5 -28 -17 -55 -26 -28 -9 -50 -20 -50 -25 0 -4 -12
-11 -26 -14 -15 -4 -24 -9 -21 -13 14 -14 177 58 177 78 0 12 -17 12 -25 0z"/>
<path d="M3773 3880 c-50 -10 -143 -49 -143 -60 0 -9 70 8 86 21 5 4 21 6 35
3 21 -4 22 -3 4 5 -18 9 -17 10 10 11 17 1 46 8 65 15 30 12 31 13 10 13 -14
0 -44 -4 -67 -8z"/>
<path d="M7210 3865 c33 -40 230 -109 219 -76 -2 6 -47 27 -99 45 -52 18 -104
36 -115 41 -18 8 -19 7 -5 -10z"/>
<path d="M7400 3856 c0 -17 14 -29 23 -20 8 8 -3 34 -14 34 -5 0 -9 -6 -9 -14z"/>
<path d="M7470 3836 c0 -20 22 -56 34 -56 27 0 29 22 5 41 -23 18 -39 24 -39
15z"/>
<path d="M3656 3799 c-22 -5 -42 -12 -45 -14 -7 -7 90 7 114 16 18 7 17 8 -5
7 -14 0 -43 -4 -64 -9z"/>
<path d="M8155 3790 c-10 -11 -26 -20 -37 -20 -10 0 -18 -6 -18 -13 0 -7 -13
-20 -28 -29 -23 -14 -28 -23 -24 -46 2 -16 -1 -33 -7 -36 -19 -12 -12 -36 9
-36 12 0 35 -7 51 -16 32 -16 65 -12 54 7 -4 5 -9 8 -12 5 -12 -11 -42 15 -36
30 5 13 2 15 -15 9 -27 -8 -27 -10 2 47 20 40 26 45 36 33 19 -23 26 -18 46
28 10 23 20 45 22 50 8 16 -26 6 -43 -13z"/>
<path d="M3307 3794 c-14 -14 -7 -35 11 -32 9 2 17 10 17 17 0 16 -18 25 -28
15z"/>
<path d="M7566 3784 c-4 -11 -1 -14 11 -12 9 2 18 9 21 16 6 18 -25 15 -32 -4z"/>
<path d="M8237 3730 c-7 -27 -1 -39 12 -24 5 5 5 18 2 28 -7 18 -8 18 -14 -4z"/>
<path d="M8286 3711 c-4 -5 -2 -12 3 -15 5 -4 12 -2 15 3 4 5 2 12 -3 15 -5 4
-12 2 -15 -3z"/>
<path d="M4186 3690 c-18 -6 -18 -7 -2 -13 9 -4 14 -11 11 -17 -3 -5 0 -10 7
-11 7 0 4 -4 -7 -9 -11 -4 -30 -6 -42 -3 -14 3 -23 0 -23 -7 0 -9 13 -11 50
-6 28 4 57 9 65 12 23 9 18 24 -7 24 -23 0 -23 0 2 20 l25 19 -30 -1 c-17 -1
-39 -4 -49 -8z"/>
<path d="M4084 3679 c-14 -5 -8 -8 18 -8 20 -1 39 3 42 7 6 10 -36 10 -60 1z"/>
<path d="M3280 3606 c0 -14 5 -26 10 -26 6 0 10 9 10 19 0 11 -4 23 -10 26 -6
4 -10 -5 -10 -19z"/>
<path d="M3317 3616 c-6 -14 22 -46 39 -46 6 0 15 -5 22 -12 6 -6 35 -12 64
-13 29 -1 82 -13 118 -27 36 -14 88 -33 115 -44 34 -12 44 -19 31 -22 -20 -4
-140 31 -184 54 -33 17 -49 18 -55 2 -3 -10 -9 -9 -23 4 -14 12 -32 16 -62 13
-23 -2 -44 1 -47 6 -9 14 -25 11 -25 -5 0 -8 6 -16 13 -19 7 -3 20 -23 29 -46
l16 -41 -24 6 c-22 6 -20 1 22 -61 24 -37 43 -70 40 -72 -3 -3 13 -28 35 -55
22 -28 37 -53 34 -57 -3 -3 -9 -1 -13 5 -4 6 -16 16 -28 22 -44 23 -164 227
-164 278 0 35 -31 85 -50 82 -11 -3 -14 -14 -11 -43 3 -45 9 -58 58 -132 32
-49 34 -56 28 -106 -4 -32 -2 -69 5 -93 18 -61 23 -107 12 -100 -21 13 -44
104 -49 199 -6 95 -15 120 -27 75 -10 -40 -6 -122 9 -183 16 -63 64 -140 87
-140 7 0 19 -4 26 -8 17 -11 15 8 -4 44 -8 17 -13 33 -10 37 9 8 41 -24 62
-63 10 -19 22 -35 26 -35 16 0 8 39 -11 52 -10 7 -30 31 -45 52 -14 21 -34 45
-44 52 -9 7 -12 14 -5 14 6 0 15 -4 18 -10 3 -5 11 -10 17 -10 6 0 4 9 -5 23
-20 31 -32 87 -18 87 6 0 11 -6 11 -13 0 -25 112 -201 148 -233 129 -114 166
-138 256 -162 41 -12 48 -6 52 42 2 33 -11 48 -61 71 -16 7 -48 27 -69 44 -22
17 -41 29 -44 26 -7 -6 -9 -5 62 -54 35 -24 52 -41 41 -41 -14 0 -15 -3 -5
-15 7 -9 10 -18 7 -21 -7 -7 -79 48 -104 80 -10 12 -34 34 -54 49 -37 28 -107
117 -91 117 4 0 30 -20 55 -45 26 -25 53 -45 60 -45 6 0 -16 25 -51 56 -74 67
-76 83 -2 25 29 -23 58 -41 66 -41 22 0 17 6 -28 33 -47 28 -108 87 -90 87 6
0 27 -14 46 -30 27 -24 38 -28 57 -22 22 9 21 10 -23 30 -30 13 -49 28 -53 43
-4 13 -26 44 -50 69 -51 54 -80 96 -90 130 -5 18 17 1 82 -62 48 -49 95 -88
103 -88 8 0 29 -9 46 -19 48 -30 251 -103 271 -98 16 4 16 5 -2 12 -70 28
-107 48 -111 60 -3 8 -39 31 -80 51 -41 21 -74 42 -74 47 0 5 8 6 18 2 9 -4
59 -23 109 -41 51 -18 101 -37 110 -43 19 -10 227 -65 281 -75 17 -3 32 -1 32
4 0 5 -22 12 -49 16 -36 5 -51 11 -54 25 -3 10 -11 20 -19 22 -7 2 -49 16 -93
31 -44 16 -129 45 -190 66 -60 20 -132 51 -160 67 -27 16 -68 37 -90 46 -70
28 -19 18 67 -14 46 -17 146 -44 223 -61 125 -27 158 -30 305 -30 175 1 278
11 270 26 -3 6 -16 10 -29 10 -34 1 -40 26 -7 26 17 0 26 5 26 16 0 12 -6 15
-22 10 -13 -3 -35 -6 -50 -6 -21 0 -29 -6 -34 -25 -5 -19 -14 -25 -49 -31 -45
-6 -232 10 -295 26 -19 5 -64 14 -100 21 -36 6 -81 18 -100 26 -19 8 -45 17
-57 19 -39 8 -73 23 -73 34 0 13 16 13 40 0 23 -12 50 -3 50 17 0 8 -5 11 -10
8 -6 -4 -16 -2 -23 3 -18 15 -197 44 -229 37 -36 -8 -96 4 -77 15 7 5 17 6 21
4 4 -3 8 0 8 5 0 16 -47 13 -53 -3z m251 -175 c20 -10 64 -32 97 -48 33 -17
83 -36 110 -43 28 -7 68 -23 90 -36 22 -12 55 -25 73 -29 17 -4 32 -10 32 -15
0 -5 -12 -5 -27 0 -244 79 -348 120 -395 155 -25 19 -35 35 -23 35 3 0 23 -8
43 -19z m-178 -44 c0 -8 9 -22 20 -32 11 -10 20 -26 20 -35 0 -10 7 -23 15
-30 8 -7 15 -17 15 -23 0 -19 -38 29 -64 82 -15 28 -22 51 -16 51 5 0 10 -6
10 -13z m185 -37 c10 -11 23 -20 29 -20 6 0 22 -10 36 -21 l25 -20 -25 6 c-14
4 -38 19 -55 34 -16 14 -34 29 -39 33 -6 5 -6 8 0 8 6 0 19 -9 29 -20z m-134
-170 c11 -6 31 -29 45 -52 14 -22 52 -66 85 -96 32 -31 59 -59 59 -64 0 -16
-56 17 -126 76 -28 24 -66 79 -92 139 -5 10 6 9 29 -3z"/>
<path d="M8220 3582 c0 -4 12 -17 28 -30 17 -15 20 -22 10 -18 -24 7 -23 -3 4
-31 21 -22 21 -24 3 -18 -16 5 -14 1 8 -19 16 -15 40 -26 56 -26 15 0 36 -9
46 -20 10 -11 24 -20 31 -20 8 0 25 -18 39 -39 13 -22 32 -44 42 -50 12 -7 13
-11 5 -11 -8 0 -27 9 -42 20 -18 13 -31 16 -35 10 -3 -6 1 -13 9 -16 9 -3 16
-11 16 -17 0 -6 -10 -2 -22 9 -40 35 -62 50 -54 37 5 -9 -1 -13 -20 -13 -18 0
-38 12 -60 36 -28 29 -34 32 -34 16 0 -40 78 -86 176 -103 32 -5 85 -14 118
-20 60 -10 111 -45 205 -140 20 -20 58 -45 84 -54 44 -17 127 -92 127 -116 0
-8 -52 22 -100 59 -14 10 -36 25 -50 32 -44 22 -130 83 -130 92 0 5 9 4 20 -2
13 -7 20 -7 20 -1 0 19 -40 34 -55 21 -11 -9 -20 -7 -41 9 -15 12 -34 21 -43
21 -9 0 -45 16 -80 35 -36 19 -66 33 -69 31 -4 -5 104 -76 115 -76 12 0 184
-102 263 -155 41 -28 100 -65 130 -83 30 -17 68 -48 84 -69 34 -45 74 -78 84
-68 4 4 -10 20 -30 37 -21 16 -38 35 -38 41 0 7 -14 28 -30 47 -16 19 -30 40
-30 46 0 6 -19 25 -42 42 -24 17 -62 50 -86 72 -24 22 -74 57 -110 77 -37 20
-73 43 -79 49 -19 19 -16 37 5 29 9 -4 46 -19 82 -32 36 -14 92 -35 125 -48
193 -73 310 -109 324 -101 17 11 14 20 -19 55 -31 32 -53 41 -44 17 6 -15 -22
-30 -38 -20 -6 4 -5 10 3 16 10 6 0 8 -28 5 -40 -5 -67 2 -168 44 -29 11 -38
13 -78 17 -10 1 -16 6 -12 12 10 16 -19 50 -42 50 -13 0 -32 9 -43 20 -11 11
-28 20 -37 20 -13 0 -10 -7 12 -30 33 -35 21 -39 -29 -9 -19 11 -58 22 -87 25
-54 5 -64 9 -64 24 0 5 -9 16 -20 24 -19 15 -19 15 8 16 44 0 28 21 -35 44
-30 12 -82 40 -114 62 -48 34 -63 52 -78 92 -16 40 -24 50 -43 50 -13 0 -23
-3 -23 -6z m576 -367 c10 -8 15 -14 9 -14 -5 0 -19 6 -29 14 -11 8 -15 15 -10
15 6 0 19 -7 30 -15z"/>
<path d="M7956 3564 c-18 -13 -18 -14 -2 -39 27 -41 136 -84 136 -55 0 6 -10
14 -22 19 -105 40 -109 43 -92 62 19 22 5 32 -20 13z"/>
<path d="M3814 3559 c-13 -5 -7 -8 22 -8 23 -1 54 -5 70 -11 16 -5 58 -11 94
-12 37 -2 64 -8 63 -14 -1 -6 22 -10 57 -10 45 1 56 4 48 14 -8 9 -3 12 23 12
31 -1 32 -2 16 -14 -17 -13 -17 -14 0 -21 33 -15 -34 -20 -146 -13 -58 3 -107
5 -109 3 -2 -1 23 -8 55 -15 106 -21 273 -8 273 21 0 5 -9 9 -20 9 -23 0 -27
15 -5 24 8 3 15 10 15 17 0 8 -22 9 -77 3 -97 -10 -194 -6 -288 10 -39 7 -80
9 -91 5z"/>
<path d="M3695 3550 c3 -5 8 -10 11 -10 2 0 4 5 4 10 0 6 -5 10 -11 10 -5 0
-7 -4 -4 -10z"/>
<path d="M8313 3550 c25 -16 56 -21 62 -9 4 5 -5 9 -19 9 -13 0 -33 3 -43 6
-17 5 -17 5 0 -6z"/>
<path d="M1643 3537 c-26 -12 -91 -94 -122 -155 -12 -23 -25 -42 -29 -42 -4 0
-22 32 -41 70 -37 75 -62 91 -86 57 -21 -30 -18 -92 8 -167 18 -52 26 -64 41
-62 23 4 36 -14 36 -50 0 -16 4 -28 9 -28 18 0 30 -60 36 -185 7 -122 12 -165
32 -241 8 -30 50 -91 57 -83 13 13 9 229 -4 229 -5 0 -10 -13 -10 -30 0 -32
-14 -40 -24 -14 -3 9 -6 31 -6 49 0 18 -5 56 -12 84 -13 59 -4 76 45 87 44 9
98 54 152 126 31 41 43 64 36 71 -12 12 -30 4 -101 -43 -76 -50 -150 -80 -150
-60 0 6 17 27 38 47 23 22 36 42 34 54 -2 11 10 34 25 52 16 18 34 46 40 63
25 71 43 130 43 145 0 26 -22 38 -47 26z m-7 -85 c-8 -16 -13 -32 -10 -34 12
-13 -97 -186 -118 -187 -40 -3 59 201 102 212 11 3 20 14 20 24 0 22 13 39 18
24 2 -5 -4 -23 -12 -39z m-191 -102 c17 -28 20 -66 6 -75 -25 -15 -72 103 -56
142 5 15 9 13 21 -12 8 -16 21 -41 29 -55z m215 -187 c0 -5 -9 -19 -19 -32
-16 -21 -20 -22 -34 -10 -13 12 -11 16 17 30 17 9 32 17 34 18 1 1 2 -2 2 -6z
m-70 -68 c-7 -9 -15 -13 -19 -10 -3 3 1 10 9 15 21 14 24 12 10 -5z"/>
<path d="M8460 3512 c27 -17 82 -23 78 -10 -3 7 -24 14 -49 15 -29 2 -39 0
-29 -5z"/>
<path d="M3710 3502 c22 -14 192 -24 210 -12 11 7 5 10 -26 10 -23 0 -77 3
-120 6 -51 3 -74 2 -64 -4z"/>
<path d="M8390 3496 c0 -7 5 -17 12 -24 7 -7 9 -12 4 -12 -16 0 51 -48 88 -64
45 -19 46 -19 46 -6 0 6 -11 15 -25 20 -41 15 -85 52 -85 71 0 9 -9 19 -20 22
-12 3 -20 0 -20 -7z"/>
<path d="M8506 3472 c-11 -11 7 -22 35 -22 17 0 28 4 25 9 -7 10 -53 20 -60
13z"/>
<path d="M8575 3399 c-19 -7 -19 -8 3 -10 36 -3 40 -4 48 -11 10 -10 24 -10
24 0 0 13 -55 29 -75 21z"/>
<path d="M8360 3391 c0 -13 28 -33 41 -29 6 2 0 12 -15 21 -14 10 -26 13 -26
8z"/>
<path d="M8290 3385 c0 -2 10 -10 23 -16 20 -11 21 -11 8 4 -13 16 -31 23 -31
12z"/>
<path d="M8190 3371 c0 -6 7 -14 16 -19 8 -5 16 -15 18 -23 6 -37 19 -60 30
-56 7 3 21 -4 31 -16 12 -14 20 -17 23 -9 2 6 -14 32 -35 57 -40 48 -83 82
-83 66z"/>
<path d="M8046 3361 c-8 -12 31 -44 109 -86 39 -21 102 -63 140 -94 39 -31 74
-55 79 -53 14 5 92 -75 141 -143 23 -33 60 -96 82 -140 74 -150 113 -235 113
-248 0 -24 46 -71 63 -64 24 9 22 83 -4 141 -11 25 -17 50 -14 55 3 6 -3 27
-13 48 -11 21 -24 49 -31 63 l-11 25 5 -27 c6 -32 -10 -39 -18 -8 -3 14 -14
20 -32 20 -15 0 -24 -4 -20 -10 3 -5 13 -10 21 -10 9 0 12 -5 8 -11 -9 -15 16
-30 39 -23 11 3 17 0 17 -10 0 -9 -6 -16 -14 -16 -8 0 -20 -2 -28 -5 -8 -3
-18 7 -27 27 -8 18 -22 45 -33 60 -25 36 -23 41 12 33 19 -4 30 -3 30 4 0 6
-12 13 -27 17 -46 10 -53 13 -53 24 0 7 8 9 20 5 11 -3 20 -3 20 0 0 9 -43 44
-53 45 -5 0 -43 37 -85 82 -42 44 -92 87 -109 95 -23 9 -33 20 -33 34 0 19 4
21 30 16 39 -8 38 4 -2 27 -28 17 -32 18 -43 3 -10 -15 -16 -14 -59 9 -67 36
-153 92 -158 102 -5 13 -56 24 -62 13z m677 -621 c8 0 7 -3 -1 -9 -20 -12 -11
-56 11 -55 9 1 17 -2 17 -7 0 -5 -9 -9 -21 -9 -13 0 -25 11 -35 35 -18 44 -18
59 2 51 9 -3 21 -6 27 -6z m17 -40 c0 -5 -2 -10 -4 -10 -3 0 -8 5 -11 10 -3 6
-1 10 4 10 6 0 11 -4 11 -10z m-3 -112 c-3 -8 -6 -5 -6 6 -1 11 2 17 5 13 3
-3 4 -12 1 -19z"/>
<path d="M2135 3346 c-41 -18 -72 -53 -58 -67 8 -8 25 -5 58 10 26 12 67 22
91 23 49 1 54 10 22 32 -27 19 -72 20 -113 2z"/>
<path d="M7510 3350 c0 -5 5 -10 10 -10 6 0 10 5 10 10 0 6 -4 10 -10 10 -5 0
-10 -4 -10 -10z"/>
<path d="M4110 3340 c19 -13 30 -13 30 0 0 6 -10 10 -22 10 -19 0 -20 -2 -8
-10z"/>
<path d="M4248 3330 c23 -10 42 -24 42 -30 0 -12 -1 -12 -75 0 -33 6 -75 13
-94 16 -19 3 -46 10 -60 16 -19 7 -23 6 -15 -2 6 -6 33 -17 60 -25 47 -13 47
-13 15 -14 -19 -1 -31 -4 -27 -8 8 -9 245 -22 264 -15 21 8 13 20 -23 33 -36
13 -47 29 -21 29 8 0 18 5 21 10 4 6 -19 10 -62 10 l-68 0 43 -20z"/>
<path d="M4158 3333 c7 -3 16 -2 19 1 4 3 -2 6 -13 5 -11 0 -14 -3 -6 -6z"/>
<path d="M8880 3272 c36 -21 88 -49 115 -62 28 -13 67 -34 88 -47 20 -13 37
-20 37 -16 0 10 -23 25 -105 69 -33 18 -85 46 -115 63 -79 44 -97 38 -20 -7z"/>
<path d="M2177 3272 c-10 -10 -17 -23 -17 -28 0 -5 -24 -33 -53 -62 l-54 -53
-11 39 c-19 62 -72 63 -72 1 0 -14 9 -38 21 -53 l20 -26 -37 -45 c-36 -45 -61
-57 -68 -32 -2 6 -9 31 -15 55 -15 55 -34 62 -72 26 -26 -25 -29 -34 -29 -88
0 -35 7 -73 15 -90 8 -15 15 -34 15 -40 0 -22 96 -58 132 -51 38 8 138 71 138
87 0 34 -75 49 -120 23 -32 -18 -62 -19 -58 -1 2 7 31 37 66 65 46 38 68 51
80 45 9 -4 36 -9 60 -10 32 -2 48 2 69 20 36 31 26 53 -31 61 -25 4 -46 9 -46
12 0 3 20 28 45 55 25 28 45 58 45 67 0 9 5 22 12 29 9 9 9 12 -3 12 -9 0 -23
-8 -32 -18z m-315 -194 c3 -7 -4 -33 -15 -57 l-20 -45 22 -17 c25 -20 27 -29
6 -29 -22 0 -34 32 -30 81 5 66 25 103 37 67z m166 -167 c10 -6 5 -14 -21 -30
-43 -27 -122 -29 -131 -4 -10 25 8 37 32 22 18 -11 26 -10 54 3 38 19 48 21
66 9z"/>
<path d="M9000 3266 c0 -2 7 -7 16 -10 8 -3 12 -2 9 4 -6 10 -25 14 -25 6z"/>
<path d="M8830 3254 c0 -23 45 -52 78 -50 18 1 38 -4 43 -11 14 -16 69 -44 69
-34 0 13 -24 31 -41 31 -9 0 -20 7 -23 16 -3 9 -13 14 -20 11 -8 -3 -20 1 -26
9 -7 8 -22 14 -34 14 -12 0 -27 5 -34 12 -7 7 -12 8 -12 2z"/>
<path d="M6198 3223 c-25 -29 -21 -99 9 -167 15 -33 32 -68 39 -76 14 -17 22
-85 12 -96 -4 -3 -21 -1 -39 5 -45 16 -84 14 -100 -5 -8 -10 -25 -14 -53 -12
-36 3 -41 0 -44 -19 -3 -17 3 -22 30 -28 105 -21 122 -40 60 -68 -46 -20 -84
-79 -64 -99 9 -9 26 -9 75 0 36 7 78 12 95 12 22 0 40 9 61 33 l31 32 1 -50
c1 -27 3 -68 4 -90 2 -22 6 -94 9 -160 4 -66 10 -151 15 -190 5 -38 10 -87 10
-109 2 -36 0 -38 -23 -32 -40 10 -48 -36 -17 -98 11 -21 17 -44 14 -52 -3 -8
0 -20 6 -28 6 -7 8 -16 4 -19 -12 -13 -23 -7 -23 13 0 11 -4 20 -10 20 -5 0
-10 -17 -10 -37 -1 -41 -23 -82 -35 -64 -9 15 15 81 39 109 l19 22 -26 0 c-23
0 -27 4 -27 28 0 49 -45 153 -75 174 -14 10 -36 -15 -44 -51 l-6 -31 -38 27
c-43 30 -61 26 -87 -20 -14 -25 -13 -32 8 -89 36 -98 36 -95 12 -101 -33 -8
-19 -32 21 -35 26 -3 49 -17 94 -61 62 -60 90 -77 100 -61 4 6 -18 32 -47 59
-57 53 -60 68 -10 50 21 -7 32 -18 32 -30 0 -34 64 -54 82 -26 4 6 10 9 13 5
4 -3 1 -15 -7 -27 -18 -30 3 -51 33 -33 27 17 58 6 91 -32 23 -27 27 -29 33
-13 4 10 22 20 46 23 21 4 44 13 50 20 9 11 15 11 35 -2 13 -9 29 -14 35 -12
7 2 24 -6 37 -19 34 -31 55 -14 25 19 -11 13 -26 34 -33 47 -10 20 -17 23 -48
17 -21 -3 -55 -8 -77 -12 -22 -3 -49 -13 -60 -20 -47 -33 -92 -4 -87 56 3 26
9 40 18 40 8 0 14 5 14 10 0 16 17 11 25 -7 3 -10 1 -19 -4 -21 -6 -2 -11 -11
-11 -19 0 -11 4 -13 13 -6 6 6 59 10 117 10 71 0 116 5 140 15 40 17 170 124
170 139 0 6 18 31 39 57 22 26 43 60 47 75 6 28 6 28 -32 21 -22 -3 -54 -13
-73 -20 -18 -8 -42 -14 -52 -14 -33 0 -125 -40 -207 -89 l-80 -49 59 93 c60
93 69 133 28 122 -25 -7 -24 10 1 23 27 14 25 28 -5 42 -23 10 -29 8 -60 -22
-31 -30 -104 -162 -106 -192 0 -7 -8 -31 -18 -53 l-18 -40 2 40 c1 22 5 47 9
56 4 9 4 29 1 45 -4 16 -9 89 -11 163 -2 73 -6 136 -9 139 -3 3 -5 37 -5 76 0
39 -7 102 -15 141 -18 85 -18 78 0 71 12 -4 14 0 11 18 -3 17 8 39 40 77 24
30 54 74 65 99 22 44 35 120 22 120 -4 0 -24 -17 -45 -37 -47 -46 -60 -37 -24
16 31 44 66 147 66 192 0 34 -30 55 -57 40 -31 -16 -61 -55 -76 -96 -15 -41
-55 -159 -63 -184 -3 -11 -8 -11 -16 -3 -8 8 -8 15 1 26 14 17 12 40 -14 174
-25 133 -41 156 -77 115z m46 -56 c13 -82 14 -107 7 -107 -12 0 -31 65 -31
109 0 48 17 47 24 -2z m226 -39 c0 -54 -51 -178 -72 -178 -11 0 -10 7 8 41 8
17 14 38 13 47 -2 9 7 37 20 60 12 24 20 46 17 49 -2 3 -12 -10 -21 -27 -11
-22 -20 -29 -27 -22 -14 14 19 62 43 62 15 0 19 -7 19 -32z m-90 -111 l-22
-32 6 35 c4 18 12 37 19 42 21 13 20 -11 -3 -45z m-23 -94 c-3 -10 -5 -4 -5
12 0 17 2 24 5 18 2 -7 2 -21 0 -30z m103 -24 c-13 -27 -58 -64 -68 -55 -3 4
12 24 33 46 42 43 52 46 35 9z m-105 -8 c3 -5 1 -12 -5 -16 -5 -3 -10 1 -10 9
0 18 6 21 15 7z m-110 -38 c24 -8 26 -10 11 -16 -16 -6 -39 -4 -88 10 -10 2
-18 9 -18 14 0 11 42 7 95 -8z m61 -54 c1 -25 -1 -35 -4 -24 -4 11 -16 20 -26
20 -11 0 -21 6 -23 13 -3 6 2 12 11 12 9 0 16 7 16 16 0 9 5 14 12 12 7 -3 13
-24 14 -49z m-141 21 c2 -4 -7 -5 -20 -2 -14 2 -25 8 -25 12 0 10 38 1 45 -10z
m263 1 c-16 -27 -78 -43 -78 -21 0 6 8 10 18 10 10 0 27 7 38 15 27 20 36 18
22 -4z m-195 -58 c-7 -2 -19 -2 -25 0 -7 3 -2 5 12 5 14 0 19 -2 13 -5z m37
-23 c0 -5 -12 -12 -27 -15 -16 -4 -36 -11 -47 -16 -13 -8 -17 -7 -14 2 2 7 20
18 39 25 43 16 49 16 49 4z m-140 -5 c0 -2 -9 -9 -20 -15 -16 -9 -18 -8 -14 5
5 13 34 22 34 10z m20 -30 c-13 -16 -40 -21 -40 -7 0 10 42 32 49 26 2 -2 -2
-10 -9 -19z m416 -517 l-16 -22 0 26 c0 14 6 28 13 31 19 6 20 -10 3 -35z
m-46 -55 c0 -21 -3 -24 -9 -14 -5 8 -7 20 -4 28 8 21 13 15 13 -14z m75 7
c-10 -17 -45 -32 -45 -20 0 6 10 15 23 20 29 12 29 12 22 0z m-408 -57 c-3
-10 -5 -4 -5 12 0 17 2 24 5 18 2 -7 2 -21 0 -30z m-93 -2 c17 -19 17 -19 -3
-14 -28 7 -26 -10 4 -43 31 -34 32 -42 1 -37 -24 5 -56 57 -56 93 0 26 31 26
54 1z m791 10 c-10 -9 -144 -81 -151 -81 -2 0 -4 5 -4 11 0 16 40 49 59 50 9
0 32 6 51 13 44 17 57 19 45 7z m-345 -36 c-13 -14 -27 -25 -32 -25 -14 0 14
49 31 53 26 6 26 -1 1 -28z m-50 12 c0 -15 -29 -57 -30 -42 0 6 3 20 6 33 7
24 24 31 24 9z m377 -32 c-15 -14 -38 -25 -49 -25 -25 0 -21 6 24 30 47 25 57
23 25 -5z m-651 -5 c8 0 14 -7 14 -17 0 -14 -2 -14 -20 2 -11 10 -20 23 -19
29 0 6 3 6 6 -1 2 -7 11 -13 19 -13z m494 10 c0 -5 -5 -10 -11 -10 -5 0 -7 5
-4 10 3 6 8 10 11 10 2 0 4 -4 4 -10z m-505 -81 c8 -14 10 -31 5 -39 -6 -9
-14 -2 -29 28 -12 23 -26 42 -31 42 -6 0 -10 10 -10 22 0 21 0 21 26 -3 14
-13 32 -36 39 -50z m400 31 c-3 -5 -12 -10 -18 -10 -7 0 -6 4 3 10 19 12 23
12 15 0z m79 -5 c-4 -8 -8 -15 -10 -15 -2 0 -4 7 -4 15 0 8 4 15 10 15 5 0 7
-7 4 -15z m119 -2 c9 -5 -71 -103 -84 -103 -5 0 -9 7 -9 15 0 11 -7 13 -29 9
-17 -4 -32 -1 -36 6 -5 8 5 11 38 9 47 -3 77 12 77 38 0 8 -4 12 -9 8 -12 -7
-24 12 -16 25 6 9 47 5 68 -7z m-325 -22 c-6 -10 -19 -23 -28 -29 -15 -9 -17
-8 -12 11 7 31 21 47 37 41 11 -5 11 -10 3 -23z m84 -3 c-7 -7 -12 -19 -12
-27 0 -11 4 -11 19 3 11 10 25 15 30 11 6 -3 14 0 17 9 5 13 44 19 44 6 0 -12
-69 -51 -113 -64 -47 -14 -48 -14 -42 7 4 12 18 32 31 45 26 23 48 32 26 10z
m83 -83 l30 -13 -31 -1 c-17 -1 -37 6 -44 14 -16 20 3 20 45 0z m-85 -15 c0
-5 -7 -10 -15 -10 -8 0 -15 5 -15 10 0 6 7 10 15 10 8 0 15 -4 15 -10z m-200
-42 c0 -7 -4 -19 -9 -27 -11 -17 -23 1 -15 23 7 19 24 21 24 4z m282 -60 c-9
-9 -15 -9 -24 0 -9 9 -7 12 12 12 19 0 21 -3 12 -12z"/>
<path d="M7220 3230 c-9 -6 -10 -10 -3 -10 6 0 11 -12 10 -26 -2 -33 28 -57
43 -34 16 25 12 50 -6 43 -13 -5 -15 -2 -9 15 7 24 -9 29 -35 12z"/>
<path d="M1230 3205 c0 -3 7 -22 15 -42 l15 -36 65 5 c36 3 68 2 71 -3 9 -15
34 -10 34 6 0 8 -6 15 -13 15 -7 0 -22 8 -33 18 -27 26 -154 56 -154 37z m80
-41 c0 -2 -7 -4 -15 -4 -8 0 -15 4 -15 10 0 5 7 7 15 4 8 -4 15 -8 15 -10z"/>
<path d="M8423 3187 c5 -15 37 -22 37 -9 0 5 -9 12 -21 15 -13 3 -19 1 -16 -6z"/>
<path d="M3676 3133 c9 -50 12 -55 35 -48 19 6 66 -17 146 -70 18 -13 47 -26
63 -30 17 -4 30 -13 30 -22 0 -8 7 -21 15 -30 66 -66 -128 30 -214 106 -13 12
-27 21 -30 21 -20 -2 175 -145 226 -166 67 -28 119 -4 56 26 -28 12 -28 12 -5
21 12 5 22 12 22 16 0 9 -108 53 -129 53 -7 0 -20 7 -29 16 -15 16 -11 16 52
9 53 -5 67 -4 64 6 -4 12 -26 20 -173 70 -32 11 -74 28 -93 39 -18 11 -35 20
-38 20 -3 0 -2 -17 2 -37z m138 -45 c22 -6 46 -16 51 -21 16 -15 -66 2 -89 19
-25 17 -16 18 38 2z"/>
<path d="M3974 3155 c23 -17 14 -19 -32 -6 -31 9 -48 -4 -19 -15 30 -11 178
-30 211 -26 37 4 51 21 19 23 -23 1 -34 3 -109 23 -77 20 -95 20 -70 1z"/>
<path d="M7196 3161 c-4 -5 -2 -12 3 -15 5 -4 12 -2 15 3 4 5 2 12 -3 15 -5 4
-12 2 -15 -3z"/>
<path d="M8500 3155 c7 -9 15 -13 17 -11 7 7 -7 26 -19 26 -6 0 -6 -6 2 -15z"/>
<path d="M9035 3160 c3 -5 11 -10 16 -10 6 0 7 5 4 10 -3 6 -11 10 -16 10 -6
0 -7 -4 -4 -10z"/>
<path d="M8450 3136 c0 -1 39 -34 88 -71 75 -60 172 -156 321 -322 20 -23 46
-60 56 -82 18 -40 55 -58 55 -28 0 35 -31 109 -67 163 -22 32 -50 78 -63 102
-20 36 -28 42 -47 37 -16 -4 -23 -1 -23 10 0 8 -4 15 -9 15 -6 0 -22 11 -37
25 -15 14 -34 25 -43 24 -12 0 -11 -4 7 -16 12 -8 22 -21 22 -29 0 -7 10 -14
23 -16 12 -2 21 -9 19 -16 -1 -7 12 -18 28 -24 21 -7 29 -15 26 -25 -4 -9 1
-17 13 -20 12 -3 17 -11 14 -19 -3 -8 4 -18 18 -23 l24 -10 -23 0 c-17 -1 -51
28 -123 101 -54 56 -99 103 -99 106 0 2 7 2 15 -1 8 -4 17 -2 20 3 4 6 2 10
-4 10 -5 0 -17 7 -25 16 -15 14 -16 14 -16 0 0 -17 -16 -22 -22 -8 -7 19 -148
112 -148 98z m488 -471 c-3 -3 -9 2 -12 12 -6 14 -5 15 5 6 7 -7 10 -15 7 -18z"/>
<path d="M8526 3132 c-3 -5 12 -21 34 -36 45 -29 70 -35 50 -11 -7 8 -17 15
-23 15 -6 0 -21 9 -33 21 -12 11 -25 16 -28 11z"/>
<path d="M1282 3089 c-138 -33 -191 -66 -177 -109 8 -24 59 -35 121 -26 38 5
44 3 44 -13 0 -16 6 -18 48 -14 26 3 55 13 66 24 22 21 15 39 -8 20 -8 -7 -23
-11 -33 -9 -12 3 -5 8 22 17 74 25 126 121 65 121 -5 0 -10 -9 -10 -20 0 -24
-22 -35 -47 -25 -16 6 -16 8 5 18 21 10 30 26 15 28 -5 0 -15 2 -23 3 -8 1
-48 -5 -88 -15z m56 -39 c10 -17 10 -20 -5 -20 -10 0 -31 -7 -47 -15 -34 -18
-136 -32 -136 -19 0 15 125 70 165 73 6 1 16 -8 23 -19z"/>
<path d="M8935 3025 c71 -66 92 -79 100 -65 7 12 -70 90 -89 90 -7 0 -19 7
-26 15 -7 8 -20 15 -29 15 -9 0 8 -22 44 -55z"/>
<path d="M4014 3055 c11 -8 22 -12 25 -9 6 6 -19 24 -34 24 -5 -1 -1 -7 9 -15z"/>
<path d="M1629 3020 c-12 -38 -10 -43 35 -130 52 -101 52 -103 0 -183 -52 -80
-58 -87 -69 -87 -27 0 -45 -28 -51 -78 -5 -45 -3 -59 15 -82 17 -23 19 -34 11
-55 -5 -14 -11 -25 -13 -25 -2 0 -14 20 -27 45 -13 25 -38 55 -57 66 -18 11
-33 24 -33 27 0 11 -101 60 -137 67 -77 15 -98 -32 -43 -95 17 -19 44 -58 59
-86 36 -63 79 -100 134 -116 53 -15 52 -14 37 -33 -9 -10 -17 -12 -30 -5 -10
5 -30 9 -46 9 -16 -1 -54 2 -84 6 -43 5 -63 2 -90 -12 -78 -40 -29 -83 95 -84
68 0 98 -12 60 -24 -50 -16 -51 -17 -19 -31 19 -8 36 -25 44 -46 8 -18 31 -50
52 -72 22 -21 37 -45 34 -52 -3 -7 5 -21 18 -31 12 -10 21 -24 18 -31 -6 -19
-40 -14 -47 8 -3 11 -12 20 -20 20 -24 0 -26 28 -2 32 19 3 15 7 -23 30 -72
42 -127 53 -180 33 -25 -9 -58 -18 -73 -21 -16 -2 -33 -6 -38 -10 -12 -7 -1
-25 14 -23 27 3 35 -2 47 -31 7 -16 16 -30 21 -30 5 0 9 -9 9 -21 0 -11 -4
-17 -10 -14 -5 3 -10 1 -10 -4 0 -6 19 -11 42 -11 28 0 51 -8 72 -23 18 -14
53 -27 83 -31 47 -6 52 -4 58 14 7 21 43 42 58 33 4 -2 7 -18 7 -34 0 -19 6
-32 18 -36 9 -3 24 -12 34 -20 9 -8 29 -13 45 -11 25 3 28 6 25 36 -3 31 -2
33 17 22 25 -13 34 -8 74 37 16 18 35 33 42 33 7 0 22 15 33 34 11 19 48 68
83 110 55 68 66 76 98 78 20 0 50 3 66 4 17 2 109 3 205 3 96 0 199 5 228 10
28 6 78 11 110 11 70 2 145 11 138 17 -7 8 -222 6 -256 -2 -17 -4 -30 -2 -30
3 0 6 -81 8 -217 6 -225 -4 -284 -9 -294 -25 -3 -6 -22 -11 -43 -12 -28 -2
-40 -9 -49 -27 -7 -13 -30 -33 -52 -45 -22 -11 -49 -28 -60 -38 -11 -9 -40
-29 -64 -45 -36 -25 -47 -27 -67 -18 -28 13 -29 19 -9 36 9 8 12 22 8 41 -4
22 -1 34 13 44 18 14 18 14 -3 15 -14 0 -23 6 -23 16 0 10 6 14 14 11 7 -3 18
-1 23 4 6 6 50 13 99 16 49 3 98 10 109 16 49 25 93 70 129 131 35 60 59 86
139 153 31 26 35 43 9 43 -20 0 -130 -34 -177 -55 -16 -7 -41 -18 -55 -24 -14
-6 -43 -22 -65 -36 -22 -14 -50 -29 -61 -34 -12 -5 -48 -35 -80 -65 -33 -31
-63 -56 -69 -57 -49 -6 -62 -8 -70 -10 -6 -2 -32 9 -60 24 -44 23 -47 26 -23
27 15 0 33 8 40 19 7 10 22 20 32 22 29 6 32 29 4 29 -35 0 -55 16 -28 23 12
3 24 14 27 25 3 13 13 20 29 20 19 0 24 -6 24 -27 0 -15 5 -32 12 -39 9 -9 9
-12 0 -12 -7 0 -12 -4 -12 -10 0 -44 155 76 202 158 41 70 83 181 72 192 -5 5
-29 5 -59 -1 -64 -13 -110 -61 -155 -157 -20 -43 -39 -72 -51 -75 -23 -6 -24
1 -5 39 8 16 16 49 17 74 1 25 8 52 14 60 6 8 31 48 54 88 24 40 51 72 60 73
64 4 84 9 120 29 79 45 59 69 -42 51 -81 -14 -77 -14 -77 8 0 10 -6 24 -14 30
-7 6 -16 40 -19 76 -6 67 -46 145 -73 145 -7 0 -19 -18 -25 -40z m41 -10 c0
-5 -2 -10 -4 -10 -3 0 -8 5 -11 10 -3 6 -1 10 4 10 6 0 11 -4 11 -10z m189
-234 c-12 -10 -49 -16 -49 -7 0 5 10 11 23 13 22 4 34 1 26 -6z m-165 -81 c-4
-8 -11 -15 -16 -15 -6 0 -5 6 2 15 7 8 14 15 16 15 2 0 1 -7 -2 -15z m-81
-156 c-4 -13 -9 -17 -16 -10 -12 12 -1 45 12 37 5 -3 7 -15 4 -27z m-295 -16
c0 -25 -1 -26 -14 -8 -8 10 -14 25 -14 32 0 7 6 10 14 7 7 -3 14 -17 14 -31z
m483 3 c-13 -14 -20 -29 -17 -34 9 -15 -23 -23 -45 -12 -16 9 -17 14 -8 31 8
15 14 18 21 11 8 -8 18 -5 36 8 34 27 40 25 13 -4z m-431 -6 c0 -5 7 -10 15
-10 8 0 15 -5 15 -10 0 -7 -6 -7 -19 0 -24 12 -36 30 -22 30 6 0 11 -4 11 -10z
m-10 -55 c13 -14 19 -25 13 -25 -6 0 -18 11 -27 25 -9 14 -15 25 -13 25 2 0
14 -11 27 -25z m75 -5 c3 -6 -1 -7 -9 -4 -18 7 -21 14 -7 14 6 0 13 -4 16 -10z
m322 -27 c-9 -9 -19 -14 -23 -11 -10 10 6 28 24 28 15 0 15 -1 -1 -17z m-267
-3 c0 -5 -4 -10 -9 -10 -6 0 -13 5 -16 10 -3 6 1 10 9 10 9 0 16 -4 16 -10z
m-63 -61 c3 -12 20 -27 37 -35 29 -12 29 -13 7 -14 -27 0 -71 35 -71 57 0 21
21 15 27 -8z m293 6 c0 -11 -54 -65 -65 -65 -13 0 -3 42 13 58 21 21 52 25 52
7z m-200 -5 c0 -5 -4 -10 -9 -10 -6 0 -13 5 -16 10 -3 6 1 10 9 10 9 0 16 -4
16 -10z m510 -4 c0 -3 -13 -11 -30 -20 -23 -11 -30 -11 -30 -2 0 7 3 16 7 19
7 8 53 10 53 3z m-90 -27 c0 -6 -7 -17 -15 -25 -16 -16 -19 -7 -9 20 7 18 24
22 24 5z m-85 -39 c-3 -5 -11 -10 -16 -10 -6 0 -7 5 -4 10 3 6 11 10 16 10 6
0 7 -4 4 -10z m102 -33 c-5 -14 -57 -30 -57 -18 0 7 53 39 59 35 2 -2 1 -9 -2
-17z m-687 -42 c10 -12 10 -15 -4 -15 -9 0 -16 7 -16 15 0 8 2 15 4 15 2 0 9
-7 16 -15z m630 0 c11 -13 8 -15 -14 -15 -16 0 -26 5 -26 15 0 8 6 15 14 15 7
0 19 -7 26 -15z m-560 -11 c0 -8 -4 -12 -10 -9 -5 3 -10 10 -10 16 0 5 5 9 10
9 6 0 10 -7 10 -16z m107 0 c-3 -3 -12 -4 -19 -1 -8 3 -5 6 6 6 11 1 17 -2 13
-5z m337 -39 c-6 -23 -4 -24 30 -18 21 3 36 2 36 -4 0 -16 -61 -25 -76 -12
-10 8 -25 9 -56 1 -23 -6 -44 -9 -47 -6 -10 10 97 74 112 67 4 -2 4 -15 1 -28z
m-337 -12 c-3 -10 -5 -4 -5 12 0 17 2 24 5 18 2 -7 2 -21 0 -30z m438 17 c3
-5 2 -10 -4 -10 -5 0 -13 5 -16 10 -3 6 -2 10 4 10 5 0 13 -4 16 -10z m-370
-41 c11 -17 -1 -21 -15 -4 -8 9 -8 15 -2 15 6 0 14 -5 17 -11z m135 -9 c0 -21
-15 -27 -25 -10 -7 12 2 30 16 30 5 0 9 -9 9 -20z m-140 -46 c0 -8 -7 -14 -15
-14 -15 0 -21 21 -9 33 10 9 24 -2 24 -19z m-50 -17 c0 -18 -2 -19 -10 -7 -13
20 -13 43 0 35 6 -3 10 -16 10 -28z m80 -52 c0 -42 -14 -45 -34 -6 -17 31 -13
41 16 41 14 0 18 -8 18 -35z m365 16 c-3 -6 -11 -8 -17 -5 -6 4 -5 9 3 15 16
10 23 4 14 -10z m-552 -66 c15 -13 27 -25 27 -27 0 -2 -15 -3 -34 -4 -19 0
-42 -8 -51 -18 -17 -17 -19 -16 -41 11 -30 36 -30 41 4 49 15 3 32 7 37 9 21
7 31 4 58 -20z m507 7 c0 -4 -23 -28 -52 -52 -28 -25 -57 -51 -64 -57 -18 -18
-24 -16 -24 6 0 11 8 22 18 25 10 3 37 24 61 46 41 38 61 49 61 32z m-425 -11
c10 -17 -12 -21 -25 -6 -10 12 -10 15 3 15 9 0 18 -4 22 -9z m125 -1 c0 -5 -4
-10 -10 -10 -5 0 -10 5 -10 10 0 6 5 10 10 10 6 0 10 -4 10 -10z m-184 -79
c-9 -14 -53 -14 -61 -1 -4 6 5 10 19 10 14 0 26 5 26 12 0 9 3 9 11 1 6 -6 8
-16 5 -22z m272 12 c-4 -23 15 -43 38 -37 32 8 31 -10 -1 -24 -36 -17 -55 -15
-57 6 0 9 -2 24 -3 32 -2 19 4 30 16 30 5 0 8 -3 7 -7z m-251 -49 c-3 -3 -12
-4 -19 -1 -8 3 -5 6 6 6 11 1 17 -2 13 -5z"/>
<path d="M6792 2920 c-16 -26 -15 -63 3 -107 8 -19 15 -39 15 -43 0 -12 -52
-60 -60 -55 -4 3 -11 -6 -14 -20 -12 -46 -21 -26 -18 37 5 76 -13 138 -40 138
-25 0 -47 -54 -56 -133 -4 -34 -12 -62 -19 -65 -8 -2 -13 5 -13 18 0 11 -11
32 -24 45 -14 14 -26 35 -28 47 -2 15 -10 23 -23 23 -18 0 -20 -6 -19 -63 1
-78 31 -146 81 -184 37 -29 63 -36 63 -18 0 6 5 10 10 10 7 0 7 -7 0 -21 -15
-27 -5 -36 17 -17 16 14 20 14 36 -2 17 -17 17 -18 -8 -24 -67 -17 8 -35 115
-27 64 5 160 59 160 91 0 26 -45 54 -84 54 -17 0 -62 -13 -99 -28 -73 -30 -90
-29 -60 0 11 11 36 44 56 74 56 85 82 114 96 106 9 -6 8 -12 -6 -22 -16 -13
-11 -14 47 -8 68 6 110 31 110 64 0 36 -49 52 -92 29 -29 -16 -37 0 -10 22
l24 19 -43 40 c-49 46 -96 54 -117 20z m88 -51 c0 -10 -4 -19 -9 -19 -12 0
-23 29 -15 41 8 14 24 0 24 -22z m-50 12 c0 -5 3 -24 6 -42 5 -26 4 -31 -5
-23 -14 13 -23 74 -10 74 5 0 9 -4 9 -9z m-164 -129 c-12 -11 -16 6 -9 39 l8
34 3 -33 c2 -19 1 -36 -2 -40z m324 34 c0 -8 -5 -18 -11 -22 -14 -8 -33 11
-25 25 10 16 36 13 36 -3z m-422 -97 c22 -41 29 -79 15 -79 -8 0 -53 97 -53
113 0 19 18 3 38 -34z m96 -16 c14 -51 18 -87 8 -78 -14 13 -32 95 -22 95 5 0
11 -8 14 -17z m261 -107 c16 -11 17 -17 7 -29 -7 -8 -22 -17 -34 -20 -16 -5
-18 -3 -9 6 29 29 -5 41 -60 22 -50 -18 -49 -18 -49 -5 0 15 59 39 96 40 16 0
39 -6 49 -14z m-59 -65 c-8 -12 -59 -21 -86 -14 -22 6 -23 7 -4 14 27 11 96
11 90 0z"/>
<path d="M6578 2453 c-58 -53 -70 -64 -95 -97 -25 -31 -30 -56 -11 -56 17 0
168 158 168 176 0 23 -17 16 -62 -23z"/>
<path d="M2636 2242 c-6 -10 64 -22 131 -22 31 0 43 4 41 13 -5 14 -163 23
-172 9z"/>
<path d="M7095 2243 c-46 -10 -85 -25 -85 -35 0 -7 13 -7 38 -3 20 5 100 11
177 14 178 8 188 26 15 27 -69 0 -134 -1 -145 -3z"/>
<path d="M2228 2229 c-40 -15 -34 -31 10 -29 20 1 46 1 57 1 18 -2 18 -3 -5
-16 -24 -14 -21 -15 39 -12 41 1 66 7 69 15 2 8 -8 12 -31 12 -27 0 -34 4 -33
18 1 13 -8 17 -39 19 -22 1 -52 -3 -67 -8z"/>
<path d="M2847 2183 c-1 0 -42 -4 -92 -8 -49 -3 -92 -8 -94 -11 -2 -2 73 -4
168 -4 134 0 172 3 168 13 -2 8 -27 12 -76 12 -40 0 -73 -1 -74 -2z"/>
<path d="M1115 2163 c-31 -7 -84 -36 -89 -49 -3 -7 4 -20 14 -29 34 -31 188
-23 177 8 -4 12 -66 16 -88 6 -8 -4 -22 -3 -30 2 -11 7 -12 9 0 9 8 0 19 7 26
16 10 15 16 15 74 0 76 -20 124 -21 119 -3 -3 6 -27 15 -54 18 -27 4 -62 12
-77 18 -29 11 -38 12 -72 4z"/>
<path d="M7735 2141 c16 -19 28 -22 70 -20 27 1 75 0 105 -4 59 -7 186 -18
235 -21 17 0 32 3 35 7 3 5 -40 11 -95 14 -74 3 -103 8 -112 20 -9 12 -32 14
-120 12 -59 -2 -115 1 -123 5 -9 6 -7 0 5 -13z"/>
<path d="M5608 2113 c-10 -2 -18 -9 -18 -14 0 -11 80 -1 95 12 9 9 -45 11 -77
2z"/>
<path d="M3444 2095 c19 -14 36 -12 36 6 0 5 -12 9 -27 9 -27 -1 -27 -1 -9
-15z"/>
<path d="M3235 2092 c-1 -2 -50 -4 -108 -5 -69 -1 -110 -6 -119 -14 -10 -10 6
-13 77 -13 152 0 285 12 285 25 0 8 -21 12 -66 11 -36 -1 -67 -2 -69 -4z"/>
<path d="M7058 2092 c-10 -2 -18 -10 -18 -18 0 -13 10 -14 53 -9 28 4 74 1
101 -5 55 -12 68 -7 43 17 -12 12 -36 17 -89 18 -40 0 -81 -1 -90 -3z"/>
<path d="M1690 2075 c0 -8 7 -15 15 -15 21 0 19 -24 -5 -45 -21 -19 -27 -55
-9 -55 5 0 15 13 20 29 6 16 22 37 35 46 14 9 22 20 18 26 -3 6 -8 8 -11 5 -3
-3 -12 1 -20 9 -19 19 -43 19 -43 0z"/>
<path d="M2508 2074 c-4 -3 -240 -10 -498 -14 -13 -1 -13 -2 0 -10 20 -11 155
-13 455 -6 132 3 261 5 288 6 26 0 47 4 47 9 0 5 -61 9 -136 10 -75 1 -140 3
-144 6 -4 2 -9 2 -12 -1z"/>
<path d="M444 2035 c-74 -18 -77 -21 -57 -56 20 -33 38 -39 30 -9 -7 25 15 32
98 29 72 -3 97 9 75 36 -15 18 -73 18 -146 0z"/>
<path d="M5460 2031 c0 -10 128 -26 137 -17 3 3 -6 10 -21 16 -33 12 -116 13
-116 1z"/>
<path d="M8137 2023 c-16 -8 -27 -17 -25 -19 7 -7 78 17 78 26 0 13 -19 11
-53 -7z"/>
<path d="M2813 2016 c-46 -4 -83 -11 -83 -16 0 -4 51 -6 113 -5 79 2 120 -2
139 -11 28 -14 240 -20 272 -8 40 16 6 20 -114 16 -108 -4 -134 -2 -148 11
-22 20 -78 24 -179 13z"/>
<path d="M7998 2018 c-8 -5 -2 -8 17 -8 17 0 36 4 43 8 8 6 2 9 -17 9 -17 0
-36 -4 -43 -9z"/>
<path d="M7425 2001 c-3 -5 -2 -12 2 -14 14 -8 173 5 173 14 0 12 -167 11
-175 0z"/>
<path d="M5540 1958 c-30 -5 -59 -14 -65 -20 -7 -7 1 -9 25 -5 19 3 65 9 103
13 37 3 70 10 73 15 7 11 -64 10 -136 -3z"/>
<path d="M7500 1960 c0 -4 8 -11 18 -16 14 -6 12 -8 -12 -13 -16 -3 -31 -11
-33 -18 -3 -9 4 -10 24 -4 16 5 58 9 93 10 36 0 81 4 100 9 30 6 25 8 -40 13
-41 4 -92 11 -112 17 -21 5 -38 6 -38 2z"/>
<path d="M8587 1945 c-15 -14 -27 -36 -27 -48 0 -19 3 -18 30 13 16 19 29 41
30 48 0 16 -1 16 -33 -13z"/>
<path d="M880 1937 c-3 -3 -31 -7 -64 -11 -59 -5 -75 -11 -63 -22 5 -5 191 -9
235 -5 6 1 12 8 12 16 0 10 -10 15 -29 15 -16 0 -41 3 -57 6 -16 3 -31 3 -34
1z"/>
<path d="M2445 1926 c-33 -6 -58 -15 -55 -21 3 -5 12 -9 20 -8 142 18 175 24
184 33 13 13 -69 12 -149 -4z"/>
<path d="M5872 1908 c2 -17 10 -23 28 -23 14 0 47 -16 73 -35 68 -48 40 -52
-43 -5 -15 8 -28 10 -35 5 -6 -5 -26 -12 -45 -15 -19 -3 -41 -12 -49 -20 -31
-31 53 -86 163 -107 53 -10 66 -16 66 -31 0 -22 35 -19 35 3 1 27 16 40 46 40
31 0 41 19 12 21 -32 2 -60 11 -95 30 -10 5 -25 9 -33 9 -8 0 -15 5 -15 10 0
12 0 12 37 0 22 -8 37 -7 64 4 29 13 31 15 10 16 -13 0 -51 22 -85 49 -99 77
-140 92 -134 49z m-15 -102 c-3 -8 1 -17 10 -20 9 -4 13 -9 10 -12 -8 -9 -58
27 -51 37 9 15 37 10 31 -5z m81 -2 c12 -4 22 -10 22 -15 0 -14 -33 -10 -54 6
-22 16 -9 20 32 9z m16 -50 c35 -6 51 -24 22 -24 -18 0 -86 29 -86 36 0 3 6 4
14 1 8 -3 31 -9 50 -13z"/>
<path d="M2736 1912 c-8 -13 41 -28 116 -36 56 -6 82 4 62 24 -14 14 -170 24
-178 12z"/>
<path d="M8050 1902 c0 -15 39 -22 115 -20 l70 1 -80 6 c-44 4 -86 10 -92 14
-7 5 -13 4 -13 -1z"/>
<path d="M1921 1892 c-57 -18 -27 -27 84 -26 106 0 137 5 123 20 -9 9 -181 14
-207 6z"/>
<path d="M7700 1869 c0 -5 28 -9 63 -8 71 1 67 5 -10 12 -29 2 -53 0 -53 -4z"/>
<path d="M8415 1859 c-22 -4 -69 -8 -105 -9 -50 0 -61 -3 -47 -11 21 -12 185
5 201 21 11 11 8 11 -49 -1z"/>
<path d="M3260 1850 c-84 -3 -133 -9 -142 -17 -6 -7 -8 -13 -3 -14 47 -2 264
2 318 7 48 5 67 11 67 21 0 11 -13 13 -56 11 -30 -2 -113 -5 -184 -8z"/>
<path d="M5500 1850 c0 -5 9 -10 19 -10 11 0 23 5 26 10 4 6 -5 10 -19 10 -14
0 -26 -4 -26 -10z"/>
<path d="M8020 1840 c0 -13 57 -22 110 -17 42 3 42 4 -12 5 -31 1 -60 7 -63
12 -8 13 -35 13 -35 0z"/>
<path d="M2315 1820 c-16 -7 -13 -9 18 -9 20 -1 37 4 37 9 0 12 -27 12 -55 0z"/>
<path d="M2660 1809 c-56 -9 -104 -20 -107 -23 -16 -16 12 -16 84 -2 55 11
122 14 226 12 132 -3 171 3 153 21 -13 13 -261 8 -356 -8z"/>
<path d="M2120 1803 c-166 -18 -182 -21 -175 -33 7 -11 7 -11 252 -13 132 -2
183 1 183 9 0 19 -43 25 -137 19 -57 -3 -78 -1 -58 4 17 5 47 9 68 10 20 0 37
6 37 11 0 12 7 12 -170 -7z"/>
<path d="M7220 1796 c-14 -7 -56 -16 -94 -19 -68 -6 -98 -18 -78 -31 6 -3 21
-2 35 3 13 5 68 10 123 11 136 2 144 2 142 -12 -2 -9 15 -14 55 -16 40 -2 57
-7 57 -17 0 -10 19 -14 70 -17 66 -3 71 -2 68 17 -2 16 -13 21 -48 25 -37 5
-41 7 -22 13 12 5 22 13 22 18 0 12 -43 1 -48 -12 -2 -5 -12 -9 -23 -9 -11 0
-16 5 -13 14 5 14 -20 22 -106 30 -25 3 -61 7 -80 10 -21 4 -45 1 -60 -8z"/>
<path d="M8584 1801 c3 -4 24 -8 46 -8 22 0 40 4 40 8 0 5 -21 9 -46 9 -25 0
-43 -4 -40 -9z"/>
<path d="M5218 1793 c-21 -2 -38 -8 -38 -14 0 -9 41 -13 115 -11 22 1 82 2
133 3 70 1 92 5 92 15 0 11 -26 14 -132 12 -73 -1 -150 -3 -170 -5z"/>
<path d="M7574 1785 c-17 -13 -17 -14 -2 -15 9 0 20 5 23 11 11 17 0 20 -21 4z"/>
<path d="M7750 1785 c0 -10 11 -15 34 -15 19 0 36 -4 38 -10 4 -13 90 2 95 17
6 17 -28 24 -78 15 -25 -5 -55 -5 -67 -1 -16 6 -22 5 -22 -6z"/>
<path d="M8220 1769 c0 -4 39 -9 86 -11 88 -3 127 3 106 16 -16 9 -192 6 -192
-5z"/>
<path d="M3349 1766 c-2 -2 -31 -7 -64 -10 -174 -15 -204 -19 -198 -29 4 -6
38 -7 89 -3 48 3 85 2 89 -3 3 -6 17 -4 33 5 17 9 58 14 115 14 71 0 87 3 87
15 0 12 -15 15 -73 15 -41 0 -76 -2 -78 -4z"/>
<path d="M8580 1755 c7 -9 15 -13 17 -11 7 7 -7 26 -19 26 -6 0 -6 -6 2 -15z"/>
<path d="M553 1739 c-30 -31 -9 -37 156 -45 117 -7 123 -6 119 12 -3 16 -15
20 -73 25 -39 4 -97 10 -130 14 -44 5 -63 3 -72 -6z"/>
<path d="M2560 1729 c0 -11 63 -18 185 -21 96 -2 110 -1 113 14 3 15 -12 16
-147 16 -83 -1 -151 -5 -151 -9z"/>
<path d="M6190 1731 c0 -4 13 -20 29 -35 38 -36 65 -32 67 12 2 36 -3 40 -22
15 -9 -12 -16 -14 -21 -7 -9 13 -53 25 -53 15z"/>
<path d="M8560 1720 c0 -5 9 -10 19 -10 11 0 23 5 26 10 4 6 -5 10 -19 10 -14
0 -26 -4 -26 -10z"/>
<path d="M6604 1705 c-8 -21 -3 -25 24 -18 13 3 21 11 19 17 -6 18 -37 19 -43
1z"/>
<path d="M8400 1710 c0 -12 54 -12 90 0 19 6 11 8 -32 9 -33 1 -58 -3 -58 -9z"/>
<path d="M1227 1693 c-15 -14 -5 -23 19 -17 16 4 29 2 34 -6 4 -7 37 -14 79
-16 58 -4 71 -2 71 11 0 19 -35 28 -88 21 -23 -3 -44 -1 -47 5 -7 10 -58 12
-68 2z"/>
<path d="M8045 1693 c-178 -5 -191 -24 -15 -24 174 0 168 0 220 7 36 5 41 8
25 15 -11 4 -38 7 -60 6 -22 -1 -98 -3 -170 -4z"/>
<path d="M1990 1679 c-138 -12 -270 -32 -270 -40 0 -15 32 -18 83 -8 28 6 114
13 190 14 77 2 141 6 143 8 7 6 -18 24 -41 29 -11 3 -58 2 -105 -3z"/>
<path d="M6327 1679 c-16 -9 -16 -12 -2 -26 19 -18 48 -9 43 14 -4 21 -18 25
-41 12z"/>
<path d="M7258 1663 c-8 -10 8 -13 78 -13 58 -1 98 -6 114 -15 28 -16 130 -20
130 -5 0 6 -14 10 -30 10 -17 0 -41 6 -53 14 -30 19 -224 26 -239 9z"/>
<path d="M6498 1663 c-46 -12 -5 -18 132 -19 104 0 149 3 147 10 -4 11 -244
19 -279 9z"/>
<path d="M6955 1661 c-60 -7 -60 -7 -25 -17 19 -6 55 -7 80 -3 25 4 57 5 73 2
20 -4 27 -2 27 11 0 17 -34 19 -155 7z"/>
<path d="M8287 1615 c-30 -26 -47 -32 -47 -15 0 19 -25 10 -53 -20 -32 -33
-47 -31 -47 6 0 13 -4 24 -10 24 -5 0 -10 -16 -10 -35 0 -31 3 -35 25 -35 14
0 35 9 47 19 14 14 26 17 41 12 17 -6 31 -1 59 22 36 28 48 47 31 47 -5 0 -21
-12 -36 -25z"/>
<path d="M7774 1620 c-22 -9 -70 -77 -61 -86 3 -3 18 13 33 35 19 29 34 41 50
41 29 0 30 -10 4 -33 -21 -18 -18 -42 7 -51 22 -9 28 0 14 18 -10 12 -9 20 5
41 23 36 -3 54 -52 35z"/>
<path d="M7920 1600 c-16 -29 -3 -43 33 -36 17 3 36 1 44 -5 11 -9 19 -7 38
11 28 26 35 50 8 29 -9 -8 -36 -15 -60 -15 -39 -1 -44 1 -40 17 7 25 -9 24
-23 -1z"/>
<path d="M520 1602 c-14 -1 -42 -7 -63 -13 -29 -8 -36 -13 -28 -23 8 -9 50
-12 163 -11 195 3 188 2 188 21 0 14 -7 16 -44 11 -25 -4 -57 -2 -73 3 -30 11
-101 17 -143 12z"/>
<path d="M1085 1597 c-11 -6 -57 -7 -114 -4 -88 5 -135 -2 -120 -18 6 -6 172
-7 297 -2 49 2 62 5 60 17 -4 18 -95 23 -123 7z"/>
<path d="M6900 1602 c0 -6 24 -13 53 -17 28 -3 64 -8 80 -11 25 -5 38 8 20 19
-17 11 -153 18 -153 9z"/>
<path d="M6015 1590 c-189 -8 -116 -21 105 -19 156 2 200 6 200 16 0 14 -62
15 -305 3z"/>
<path d="M1912 1574 c4 -24 70 -33 178 -26 97 6 105 6 167 -3 59 -9 93 -1 75
17 -7 7 -76 12 -205 13 -107 1 -199 5 -206 10 -9 5 -12 2 -9 -11z"/>
<path d="M6370 1553 c-42 -4 -90 -22 -90 -34 0 -15 21 -21 34 -9 23 18 131 31
176 21 38 -8 62 0 39 14 -13 9 -110 13 -159 8z"/>
<path d="M5423 1508 c-18 -4 -35 -13 -38 -18 -12 -19 28 -23 76 -7 40 12 63
13 125 5 78 -10 97 -7 75 15 -14 14 -190 19 -238 5z"/>
<path d="M8086 1505 c-3 -8 -2 -15 3 -15 5 0 14 7 21 15 10 12 10 15 -3 15 -8
0 -17 -7 -21 -15z"/>
<path d="M2364 759 c-105 -10 -118 -15 -108 -47 5 -15 9 -143 9 -285 l0 -259
24 -19 c26 -21 56 -25 67 -8 4 6 8 52 10 103 2 50 6 116 8 146 l4 55 45 3 c58
4 61 -4 58 -170 -2 -118 -1 -127 18 -137 27 -15 53 -14 76 3 18 13 19 17 6 51
-7 22 -14 91 -16 166 -2 102 -7 135 -20 155 -14 21 -15 31 -6 51 15 32 13 124
-2 143 -38 47 -78 58 -173 49z m127 -55 c16 -17 24 -40 27 -78 4 -46 1 -57
-18 -76 l-22 -22 28 -23 29 -23 6 -153 c4 -85 3 -158 -2 -163 -22 -24 -32 18
-34 148 -2 90 -7 141 -15 151 -16 19 -128 21 -135 3 -2 -7 -6 -77 -8 -156 -2
-78 -7 -146 -11 -149 -4 -4 -15 -2 -24 3 -15 10 -17 36 -14 280 2 148 5 271 8
273 6 6 127 17 146 13 9 -2 26 -15 39 -28z"/>
<path d="M2377 693 c-18 -3 -31 -13 -38 -29 -13 -36 -11 -128 3 -142 21 -21
79 -14 121 15 39 27 39 28 33 77 -3 27 -11 56 -18 63 -16 15 -62 22 -101 16z
m84 -50 c4 -65 -14 -93 -59 -93 -18 0 -23 4 -18 15 3 9 -1 18 -8 21 -19 7 -28
32 -21 55 9 27 104 28 106 2z"/>
<path d="M7035 745 c-5 -2 -30 -9 -55 -15 -37 -10 -41 -14 -26 -22 12 -7 27
-6 48 3 54 22 116 10 159 -30 56 -52 41 -153 -27 -186 -42 -20 -42 -27 -4 -42
41 -16 61 -68 67 -173 2 -47 12 -102 20 -123 9 -20 14 -40 11 -43 -3 -3 -22 2
-42 10 l-36 15 -2 78 c0 43 0 87 0 98 1 11 -9 38 -21 60 -21 37 -26 40 -74 43
-34 2 -54 -1 -59 -10 -5 -7 -9 -67 -9 -133 0 -113 -1 -120 -20 -120 -20 0 -20
6 -17 242 3 243 -5 329 -31 320 -7 -2 -11 -15 -9 -28 11 -93 13 -262 4 -341
-5 -51 -7 -120 -3 -153 5 -53 9 -61 34 -73 24 -12 31 -11 53 3 l25 16 -6 124
c-3 68 -2 126 2 128 5 3 24 2 43 -2 48 -9 59 -38 63 -156 2 -91 4 -98 29 -120
22 -19 35 -22 70 -18 64 7 74 20 43 53 -21 22 -26 39 -31 101 -9 128 -23 182
-52 207 -24 20 -25 24 -12 35 76 61 74 178 -5 227 -34 21 -107 35 -130 25z"/>
<path d="M1015 720 c-22 -25 -18 -68 9 -95 21 -21 30 -23 83 -18 33 3 63 1 66
-4 3 -5 7 -110 9 -233 3 -244 4 -249 59 -250 56 0 59 16 62 264 l2 226 50 0
c59 0 75 12 75 54 -1 59 -16 67 -131 67 -57 1 -141 2 -187 3 -65 1 -86 -2 -97
-14z m177 -31 c9 -5 28 -5 46 2 16 5 58 9 93 7 58 -3 64 -5 67 -25 3 -21 -1
-23 -37 -23 -22 0 -50 -4 -64 -9 l-24 -9 2 -226 c2 -186 0 -228 -12 -238 -10
-8 -20 -9 -29 -2 -10 7 -15 56 -19 224 -7 256 -8 260 -89 260 -30 0 -61 3 -70
6 -23 9 -20 33 7 44 24 10 101 4 129 -11z"/>
<path d="M1486 733 c-26 -4 -28 -7 -20 -36 5 -18 9 -142 9 -277 0 -258 6 -300
43 -285 9 4 38 7 65 7 26 1 47 5 47 9 0 5 -17 6 -39 3 l-39 -6 15 53 c8 31 13
92 12 144 l-2 90 35 3 c20 2 39 -3 45 -10 6 -7 13 -64 16 -126 7 -133 19 -162
70 -162 l32 0 -3 162 c-4 184 -13 220 -64 237 -17 6 -46 11 -63 11 -45 0 -60
23 -58 83 3 67 -20 109 -57 105 -8 0 -28 -3 -44 -5z m72 -103 c4 -80 23 -105
89 -115 65 -10 71 -13 82 -48 15 -51 18 -269 4 -274 -21 -7 -33 44 -33 142 0
74 -4 97 -17 113 -23 25 -72 34 -104 19 -23 -12 -24 -17 -29 -134 -3 -77 -10
-127 -17 -134 -7 -7 -15 -11 -17 -8 -2 2 -7 112 -9 244 -5 245 -2 269 32 263
12 -2 17 -18 19 -68z"/>
<path d="M6105 728 c-11 -6 -21 -12 -23 -14 -2 -1 2 -20 9 -42 9 -31 9 -93 0
-275 -13 -264 -10 -287 39 -287 51 0 61 28 64 192 1 80 6 150 10 156 10 16 21
15 62 -4 l35 -17 -2 -137 c-2 -143 7 -180 40 -180 10 0 26 9 35 19 15 16 18
43 19 173 2 134 0 157 -16 186 -28 47 -54 62 -113 62 -66 0 -76 12 -72 90 2
52 0 64 -17 76 -23 17 -43 17 -70 2z m56 -89 c9 -94 13 -99 69 -99 122 0 142
-35 138 -240 -3 -112 -6 -135 -18 -135 -12 0 -15 22 -17 125 -2 69 -5 135 -8
147 -3 12 -21 31 -40 43 -31 19 -39 20 -70 10 -19 -6 -39 -20 -45 -29 -5 -10
-8 -81 -7 -159 1 -102 -1 -144 -10 -153 -20 -20 -35 3 -35 53 0 23 2 144 6
268 3 124 6 229 6 234 0 4 6 6 13 4 7 -3 15 -31 18 -69z"/>
<path d="M5710 720 c-19 -5 -47 -6 -61 -3 -31 6 -69 -25 -69 -57 0 -61 47 -95
116 -84 l44 6 -1 -123 c0 -68 -5 -164 -10 -214 -10 -90 -10 -90 16 -113 31
-26 65 -28 94 -4 26 22 39 136 35 319 -1 85 2 135 8 139 12 8 36 11 94 13 22
0 48 7 57 14 24 17 31 68 14 91 -13 17 -30 19 -158 22 -79 1 -160 -2 -179 -6z
m306 -29 c10 -4 12 -37 4 -52 -9 -15 -22 -19 -65 -19 -68 0 -101 -12 -108 -42
-4 -13 -7 -88 -8 -168 -1 -80 -5 -170 -8 -200 -6 -53 -7 -55 -36 -55 l-30 0 4
85 c2 47 5 145 5 218 1 151 -1 156 -74 148 -60 -6 -80 6 -80 49 0 34 0 34 53
38 39 3 336 1 343 -2z"/>
<path d="M8340 708 c0 -7 11 -40 25 -73 24 -57 25 -69 24 -255 0 -107 0 -203
0 -212 1 -28 38 -58 70 -58 36 0 101 57 101 89 0 18 -5 22 -27 21 -16 -1 -33
-2 -39 -1 -8 1 -10 134 -4 281 0 3 14 11 30 17 28 10 30 15 30 62 0 55 -9 62
-44 36 -29 -22 -34 -19 -47 25 -8 27 -23 47 -44 60 -36 23 -75 26 -75 8z m77
-40 c6 -7 16 -30 22 -50 16 -47 26 -54 55 -34 45 29 50 -15 7 -53 l-30 -26 -3
-155 -3 -155 38 2 c44 3 47 -8 11 -36 -33 -26 -56 -27 -79 -1 -16 17 -17 35
-10 207 7 184 0 257 -27 288 -4 5 -8 13 -8 17 0 12 16 10 27 -4z"/>
<path d="M7018 668 c-12 -9 -17 -33 -20 -80 -1 -36 0 -69 4 -73 10 -10 83 13
112 36 33 26 36 79 6 109 -23 23 -77 27 -102 8z m96 -40 c5 -14 6 -33 3 -42
-8 -19 -73 -50 -87 -41 -6 4 -10 29 -10 56 0 42 3 51 23 58 31 12 60 -1 71
-31z"/>
<path d="M9112 605 c-12 -9 -36 -21 -53 -27 -26 -9 -33 -8 -41 6 -12 21 -40
20 -69 -3 l-23 -18 20 -39 c16 -34 19 -57 17 -174 -2 -74 -6 -151 -9 -171 -10
-68 57 -93 99 -37 19 26 20 35 11 180 -8 140 -7 155 9 171 24 24 54 21 80 -9
26 -29 49 -25 66 12 13 29 -2 103 -23 116 -19 13 -60 9 -84 -7z m78 -31 c22
-57 4 -97 -25 -57 -17 23 -70 21 -103 -4 -24 -18 -27 -27 -28 -89 -1 -38 2
-108 8 -156 11 -99 2 -131 -35 -126 -25 3 -25 3 -14 193 4 81 2 125 -9 168 -8
32 -12 62 -9 67 3 5 19 1 35 -8 29 -17 31 -16 77 10 62 35 91 36 103 2z"/>
<path d="M8074 564 c-64 -67 -38 -148 66 -203 65 -35 80 -54 80 -99 0 -33 -22
-56 -63 -66 -22 -5 -32 -1 -51 19 -29 31 -50 32 -70 3 -23 -33 -20 -56 13 -89
26 -26 36 -29 91 -29 71 0 101 16 137 73 33 53 33 107 -1 179 -22 47 -36 62
-81 88 -48 28 -65 46 -65 71 0 19 28 8 44 -17 22 -33 55 -29 76 9 15 28 14 29
-24 63 -56 48 -106 48 -152 -2z m129 -4 c14 -11 25 -29 24 -40 -2 -27 -14 -25
-41 7 -29 34 -71 27 -79 -14 -4 -21 2 -33 29 -59 19 -17 48 -37 65 -44 59 -25
95 -143 65 -213 -33 -81 -166 -91 -206 -16 -17 31 -1 43 25 19 13 -12 40 -24
62 -27 31 -4 44 0 71 24 26 23 33 36 34 70 2 57 -23 90 -87 119 -87 38 -118
121 -65 174 26 26 70 25 103 0z"/>
<path d="M3075 580 c-79 -32 -106 -157 -69 -317 21 -91 42 -113 110 -113 61 0
87 20 105 80 25 82 -12 116 -66 60 -16 -16 -34 -30 -41 -30 -19 0 -54 49 -54
75 0 22 3 23 61 18 57 -6 63 -4 80 18 19 24 25 99 13 146 -7 25 -75 73 -101
72 -10 0 -27 -4 -38 -9z m87 -43 c28 -32 36 -59 32 -97 -7 -62 -9 -63 -73 -57
-47 5 -62 3 -72 -10 -18 -21 -12 -58 14 -99 33 -51 55 -53 92 -10 27 33 33 36
44 22 17 -20 -2 -82 -29 -96 -56 -30 -130 4 -130 60 0 15 -7 48 -16 74 -18 52
-15 141 6 187 26 58 93 71 132 26z"/>
<path d="M3070 508 c-12 -14 -20 -33 -18 -48 3 -21 10 -26 52 -34 35 -6 50 -5
56 4 7 12 -1 68 -14 89 -12 19 -54 12 -76 -11z m64 -14 c16 -41 -14 -60 -54
-34 -12 7 -12 12 4 29 23 25 42 27 50 5z"/>
<path d="M8691 572 c-22 -10 -44 -34 -58 -61 -20 -39 -23 -58 -23 -170 0 -157
10 -198 53 -216 32 -13 74 -19 113 -17 52 4 123 122 94 157 -22 26 -57 18 -86
-20 -43 -57 -74 -44 -74 30 0 33 2 34 48 40 26 4 54 9 63 11 25 7 39 49 39
119 0 73 -20 107 -77 131 -42 18 -51 18 -92 -4z m83 -12 c16 -6 26 -17 26 -29
0 -10 9 -21 20 -24 17 -4 20 -14 20 -60 0 -31 -4 -67 -10 -81 -9 -23 -15 -26
-62 -26 -75 0 -82 -7 -76 -74 3 -31 7 -58 9 -61 3 -2 20 -6 39 -7 29 -3 37 2
54 29 12 18 29 32 39 33 25 0 22 -49 -6 -91 -18 -27 -30 -35 -61 -37 -21 -2
-51 2 -66 8 -47 19 -55 49 -55 204 0 124 3 145 21 176 13 23 30 37 50 41 16 4
30 7 31 8 1 0 13 -3 27 -9z"/>
<path d="M8721 493 c-49 -62 -40 -103 22 -103 59 0 83 25 65 66 -16 38 -38 64
-54 64 -7 0 -22 -12 -33 -27z m59 -17 c19 -24 8 -61 -19 -64 -32 -5 -44 10
-36 47 7 34 34 42 55 17z"/>
<path d="M2683 573 c-37 -5 -39 -10 -18 -60 11 -25 16 -72 16 -147 1 -179 20
-216 107 -216 35 0 49 6 72 28 39 40 49 85 51 245 2 110 -1 141 -12 148 -20
12 -24 11 -41 -8 -11 -13 -17 -53 -22 -142 -8 -138 -17 -174 -44 -169 -13 3
-17 14 -18 48 -1 90 -17 245 -26 263 -5 9 -14 16 -21 15 -7 0 -27 -3 -44 -5z
m51 -41 c4 -10 7 -77 8 -148 1 -97 5 -133 16 -146 20 -24 44 -22 70 5 23 25
29 65 31 215 1 68 4 82 17 82 14 0 16 -15 11 -133 -7 -188 -30 -235 -108 -224
-23 3 -47 10 -53 17 -7 6 -13 67 -16 153 -3 78 -9 148 -13 155 -12 17 -1 42
17 42 8 0 17 -8 20 -18z"/>
<path d="M7500 569 c-99 -38 -145 -274 -75 -380 28 -43 75 -77 102 -74 43 4
60 18 91 83 28 57 33 79 34 147 2 93 -25 169 -74 210 -32 27 -40 28 -78 14z
m74 -58 c71 -113 73 -244 5 -330 -30 -37 -52 -38 -95 -6 -86 66 -84 288 3 361
33 28 59 20 87 -25z"/>
<path d="M7502 480 c-31 -29 -45 -94 -38 -175 9 -100 46 -142 93 -103 17 14
36 144 30 201 -9 76 -48 111 -85 77z m46 -28 c16 -16 18 -31 14 -103 -5 -93
-16 -133 -35 -126 -20 6 -38 106 -32 172 9 82 18 92 53 57z"/>
<path d="M7774 562 c-49 -31 -77 -108 -78 -217 0 -103 14 -152 56 -201 25 -28
37 -34 70 -34 32 0 46 6 64 27 49 57 73 161 62 263 -10 92 -15 105 -46 140
-37 40 -86 48 -128 22z m101 -34 c31 -37 44 -88 44 -173 1 -105 -11 -152 -47
-188 -34 -34 -58 -31 -98 11 -32 35 -46 88 -45 181 0 81 11 128 36 167 21 33
82 34 110 2z"/>
<path d="M7795 477 c-42 -65 -35 -224 12 -269 l23 -22 23 22 c20 21 22 32 22
131 0 102 -2 111 -24 135 -30 32 -36 32 -56 3z m62 -114 c5 -69 -5 -131 -21
-136 -26 -7 -56 168 -37 217 l12 30 21 -21 c15 -16 22 -38 25 -90z"/>
<path d="M1941 543 c-60 -30 -100 -124 -101 -240 -1 -136 87 -205 199 -156 33
14 40 22 44 52 10 87 -28 115 -83 61 -42 -41 -62 -27 -58 39 l3 45 51 -3 c61
-3 79 11 89 69 12 68 -42 151 -98 150 -7 0 -27 -8 -46 -17z m84 -29 c28 -18
41 -77 26 -116 -10 -26 -13 -27 -65 -23 -71 5 -81 -6 -73 -83 9 -89 52 -112
103 -56 28 31 34 30 34 -4 0 -53 -52 -79 -109 -56 -47 19 -71 65 -71 138 0
148 79 250 155 200z"/>
<path d="M1983 492 c-25 -4 -66 -49 -60 -66 5 -15 69 -24 96 -15 45 17 13 89
-36 81z m22 -42 c0 -9 -7 -14 -20 -12 -26 5 -29 8 -20 22 10 16 40 8 40 -10z"/>
<path d="M6597 550 c-47 -4 -62 -10 -78 -30 -50 -65 -66 -237 -29 -309 18 -36
74 -74 120 -82 57 -9 130 79 115 138 -8 32 -37 29 -78 -7 -42 -37 -51 -37 -65
-5 -17 36 -15 55 6 56 9 1 37 2 62 3 60 2 73 25 66 124 -7 104 -25 121 -119
112z m74 -40 c24 -32 36 -134 19 -155 -8 -10 -30 -15 -65 -15 -38 0 -56 -5
-69 -19 -16 -17 -16 -21 0 -60 9 -23 26 -46 37 -52 17 -10 25 -6 55 26 30 32
37 35 49 22 13 -13 13 -18 -1 -45 -21 -41 -50 -55 -92 -48 -49 10 -91 57 -100
112 -10 70 3 182 27 220 23 38 31 42 83 40 29 -1 44 -7 57 -26z"/>
<path d="M6589 498 c-22 -18 -49 -64 -49 -83 0 -20 33 -31 90 -30 l45 0 -4 35
c-3 38 -35 90 -55 90 -7 0 -19 -6 -27 -12z m41 -37 c19 -37 12 -51 -25 -51
-38 0 -45 15 -23 50 16 25 34 25 48 1z"/>
<path d="M3404 265 c-20 -30 -11 -81 17 -95 32 -17 86 14 91 52 10 62 -74 95
-108 43z m76 -35 c0 -25 -4 -30 -23 -30 -28 0 -47 17 -47 42 0 14 8 18 35 18
32 0 35 -2 35 -30z"/>
<path d="M9155 216 c-24 -36 -16 -78 18 -94 24 -12 31 -11 53 2 19 13 24 25
24 56 0 40 1 39 -62 56 -10 3 -23 -4 -33 -20z m60 -17 c11 -16 -4 -59 -20 -59
-18 0 -34 28 -28 51 6 20 38 26 48 8z"/>
</g>
</svg>
