<?xml version="1.0" standalone="no"?>
<!DOCTYPE svg PUBLIC "-//W3C//DTD SVG 20010904//EN"
 "http://www.w3.org/TR/2001/REC-SVG-20010904/DTD/svg10.dtd">
<svg version="1.0" xmlns="http://www.w3.org/2000/svg"
 width="1010.000000pt" height="990.000000pt" viewBox="0 0 1010.000000 990.000000"
 preserveAspectRatio="xMidYMid meet">
<metadata>
Created by potrace 1.16, written by Peter Selinger 2001-2019
</metadata>
<g transform="translate(0.000000,990.000000) scale(0.100000,-0.100000)"
fill="#000000" stroke="none">
<path d="M2970 9890 c0 -18 44 -50 70 -50 16 0 37 12 55 30 l29 30 -77 0 c-43
0 -77 -4 -77 -10z"/>
<path d="M4436 9228 c-2 -7 -8 -29 -15 -49 -6 -19 -11 -41 -11 -47 0 -6 24
-62 54 -124 29 -62 57 -135 61 -163 15 -110 71 -189 115 -165 28 15 25 37 -9
75 -18 21 -35 57 -45 97 -26 108 -55 201 -66 212 -20 20 -11 46 15 46 33 0 47
-28 35 -71 -11 -39 8 -91 64 -169 18 -25 43 -67 57 -93 30 -60 59 -62 74 -4 7
33 6 41 -8 48 -9 6 -17 18 -17 28 0 10 -18 37 -40 60 -39 41 -96 138 -87 148
10 9 46 -22 84 -71 21 -27 55 -66 77 -86 37 -35 41 -37 95 -33 31 2 67 11 80
20 14 9 61 20 105 24 l80 8 67 -44 c37 -25 74 -45 84 -45 24 0 75 38 77 58 0
9 4 -3 7 -28 l6 -45 43 2 c23 1 42 1 42 0 0 -1 -4 -17 -10 -36 -17 -60 24 -91
81 -61 46 25 76 143 46 184 -12 16 -15 15 -45 -13 -17 -17 -35 -31 -39 -31 -5
0 -8 21 -8 47 0 43 -3 48 -23 51 -13 2 -34 -4 -48 -12 -20 -14 -24 -14 -24 -2
0 20 71 81 130 111 l52 26 -7 -55 c-7 -52 -6 -56 13 -56 30 0 69 53 88 118 31
106 -10 139 -102 83 -27 -17 -78 -41 -114 -54 -49 -18 -80 -39 -123 -82 -53
-51 -62 -56 -90 -51 -18 3 -76 9 -130 12 l-97 7 -74 -37 -74 -36 -41 37 c-23
20 -41 41 -41 47 0 15 -112 126 -126 126 -7 0 -25 10 -41 23 -39 32 -128 77
-153 77 -11 0 -22 -6 -24 -12z"/>
<path d="M2904 8943 c-15 -34 -14 -54 2 -123 3 -14 8 -45 11 -70 l5 -45 -23
21 c-13 11 -42 32 -65 47 -23 15 -46 39 -52 53 -14 30 -58 49 -78 33 -7 -6
-16 -29 -19 -52 -6 -41 0 -65 48 -177 5 -14 9 -31 8 -37 -1 -7 5 -26 13 -42 9
-16 17 -51 19 -77 5 -56 -7 -77 -100 -170 -72 -74 -163 -200 -163 -228 0 -9
-9 -32 -21 -53 -11 -20 -29 -58 -39 -84 -26 -65 -107 -189 -145 -221 -18 -15
-45 -52 -60 -81 -23 -48 -26 -62 -20 -106 8 -59 40 -97 114 -133 44 -21 45
-21 130 -4 47 10 106 28 131 41 25 12 80 36 122 53 42 17 100 47 129 67 28 19
59 36 68 37 74 7 141 4 167 -8 39 -17 91 -8 104 17 14 26 14 26 -35 48 -66 29
-104 34 -169 22 -56 -10 -91 -25 -209 -90 -31 -17 -64 -31 -71 -31 -8 0 -40
-14 -72 -31 -50 -26 -90 -39 -200 -66 -12 -3 -43 4 -68 16 -89 39 -88 131 3
229 17 18 31 39 31 45 0 7 23 37 50 67 27 30 50 62 50 70 0 9 7 25 15 36 8 12
24 48 36 80 12 33 27 66 34 74 7 8 15 28 19 43 4 17 42 64 89 112 45 46 94
102 109 124 18 26 35 41 49 41 23 0 133 106 144 139 9 30 19 26 30 -11 8 -25
16 -34 37 -36 18 -2 31 -13 42 -37 9 -18 16 -37 16 -43 0 -13 24 -22 37 -14
20 13 24 53 14 145 -12 103 -28 152 -61 182 -28 25 -49 61 -28 49 114 -68 161
-115 197 -194 31 -68 28 -80 -19 -80 -33 0 -42 -4 -51 -24 -10 -20 -8 -29 9
-51 12 -14 18 -33 15 -41 -4 -10 2 -14 21 -14 28 0 46 25 46 64 0 29 7 32 33
12 12 -9 14 -16 8 -21 -22 -13 -11 -27 16 -22 23 4 38 -4 89 -52 33 -31 92
-80 130 -109 38 -28 87 -75 109 -103 91 -116 116 -138 208 -184 50 -26 104
-58 120 -71 16 -13 37 -24 47 -24 9 0 23 -7 30 -15 24 -29 138 -55 263 -61
140 -6 162 2 312 104 77 52 92 59 104 47 16 -15 38 -70 51 -125 36 -154 96
-240 179 -260 70 -17 116 -2 172 57 50 52 75 114 119 298 12 50 28 100 36 113
l15 23 76 -71 c41 -38 80 -70 85 -70 6 0 30 -18 54 -40 23 -21 55 -42 71 -45
15 -4 39 -11 53 -17 99 -40 116 -43 270 -43 123 0 162 3 190 17 19 9 56 23 82
31 27 9 74 36 105 60 75 58 248 236 303 311 51 70 130 148 144 143 6 -2 12
-15 14 -29 2 -14 16 -38 32 -53 22 -21 35 -26 55 -21 36 9 43 35 15 56 -35 27
-40 88 -13 190 22 88 23 87 28 -28 2 -28 5 -59 9 -67 9 -24 42 -17 61 12 15
22 16 32 6 58 -22 62 -12 114 29 155 26 26 31 14 13 -32 -13 -32 -14 -45 -5
-59 9 -15 9 -28 -3 -61 -14 -42 -5 -76 17 -62 15 9 58 114 58 142 0 14 5 52
12 84 11 52 10 60 -5 76 -17 16 -19 16 -36 -7 -10 -13 -23 -21 -29 -17 -6 4
-26 -1 -43 -9 l-31 -17 27 36 c15 19 68 65 118 101 l92 66 3 -32 c2 -18 -3
-48 -11 -68 -9 -20 -23 -70 -32 -111 -10 -41 -28 -96 -41 -122 -13 -26 -24
-56 -24 -68 0 -25 29 -27 36 -2 3 9 18 42 34 72 15 30 36 83 46 117 17 60 20
63 61 77 41 14 43 14 43 -5 0 -11 -7 -36 -16 -57 -29 -70 -74 -205 -74 -225 0
-11 30 -50 68 -87 37 -37 104 -113 150 -169 46 -55 87 -101 92 -101 21 0 52
-65 62 -127 7 -50 18 -77 39 -103 16 -19 29 -43 29 -52 0 -10 5 -18 10 -18 6
0 10 -8 10 -17 0 -9 22 -49 50 -89 51 -74 100 -163 100 -183 0 -6 -8 -11 -18
-11 -10 0 -23 -5 -30 -12 -19 -19 -14 -82 9 -112 11 -14 17 -30 14 -36 -8 -13
-35 -13 -35 0 0 6 -6 10 -13 10 -8 0 -24 11 -36 24 -13 13 -38 27 -57 30 -18
4 -48 20 -66 36 -37 34 -63 38 -77 13 -6 -10 -17 -27 -26 -37 -14 -19 -15 -19
-52 0 -21 10 -49 29 -63 42 -36 33 -183 129 -222 145 -19 8 -41 26 -51 40 -23
35 -46 40 -97 22 -60 -21 -101 -54 -157 -128 l-48 -62 2 -170 c2 -93 8 -222
13 -285 11 -115 14 -722 5 -792 -9 -69 -111 -252 -178 -318 -25 -25 -94 -56
-104 -47 -3 3 21 33 54 67 62 66 72 93 36 98 -26 4 -27 10 -14 45 15 40 3 69
-28 65 -20 -2 -32 -15 -51 -52 -30 -58 -61 -77 -88 -53 -10 9 -38 25 -63 36
-24 11 -55 31 -69 45 -29 32 -55 33 -71 5 -9 -18 -6 -26 20 -53 17 -18 31 -35
31 -39 0 -4 -20 -4 -45 0 -52 7 -68 -12 -41 -50 9 -12 32 -46 52 -75 50 -73
104 -92 117 -43 3 14 -3 31 -18 49 l-24 28 30 28 c33 31 59 29 59 -5 0 -19 4
-21 35 -16 19 3 42 13 51 21 18 18 54 39 54 32 0 -3 -20 -25 -45 -49 -31 -31
-45 -53 -45 -72 0 -24 -3 -26 -29 -20 -23 5 -33 1 -49 -20 -27 -34 -17 -64 28
-87 31 -16 35 -16 104 9 146 54 213 114 307 278 76 130 74 120 73 510 -1 327
-6 511 -20 731 -4 59 -2 94 4 98 6 3 14 30 18 59 6 49 10 55 67 100 69 53 100
59 129 22 11 -14 23 -25 28 -25 14 0 165 -95 200 -126 31 -28 191 -103 219
-104 8 0 19 -7 25 -15 13 -18 115 -55 150 -55 13 0 52 20 86 46 76 56 94 92
88 184 -5 77 -23 115 -139 294 -26 39 -52 89 -59 111 -7 22 -25 69 -41 105
-15 36 -34 81 -42 100 -13 31 -61 95 -175 229 -20 25 -45 57 -54 72 -9 15 -25
30 -35 33 -10 4 -30 24 -46 45 l-27 39 31 89 c17 48 37 99 45 113 28 52 64
158 64 189 0 41 -23 50 -58 23 -61 -48 -103 -75 -108 -70 -2 3 5 29 16 58 12
29 20 67 18 84 -3 30 -5 31 -43 28 -22 -2 -44 -8 -50 -15 -5 -7 -26 -24 -45
-38 -19 -15 -50 -41 -69 -58 -19 -17 -39 -31 -44 -31 -19 0 -205 -202 -220
-238 -9 -21 -21 -63 -27 -95 -11 -54 -14 -59 -67 -95 -31 -20 -67 -44 -80 -53
-14 -9 -36 -34 -50 -55 -75 -113 -309 -351 -373 -381 -100 -46 -170 -63 -265
-63 -83 0 -182 19 -210 40 -5 4 -22 10 -38 14 -49 12 -201 108 -247 156 -73
77 -77 84 -82 144 -3 31 -8 59 -11 62 -11 12 -35 -16 -43 -49 -3 -18 -12 -43
-20 -57 -19 -38 -89 -225 -113 -307 -21 -69 -24 -73 -52 -73 -16 0 -38 -6 -49
-12 -16 -10 -25 -9 -50 5 -37 22 -46 17 -74 -43 l-22 -47 -18 31 c-10 17 -31
78 -47 136 -17 58 -39 117 -49 132 -11 15 -20 31 -20 35 -1 4 -9 26 -20 48
-11 22 -19 44 -20 48 0 5 -14 39 -31 75 -43 93 -58 156 -60 257 -2 47 -8 107
-14 133 -10 39 -16 48 -37 50 -32 4 -41 -25 -28 -83 5 -22 10 -75 10 -118 0
-93 28 -204 75 -300 19 -38 32 -74 29 -80 -2 -7 -17 -20 -32 -29 -15 -10 -54
-36 -87 -58 -108 -72 -146 -82 -271 -74 -106 7 -167 27 -266 85 -29 18 -73 43
-98 57 -25 14 -58 36 -73 49 -16 12 -39 26 -52 29 -13 3 -51 40 -85 82 -34 43
-76 89 -94 104 -17 15 -51 45 -76 66 -25 22 -59 47 -76 55 -18 9 -48 39 -68
67 -31 42 -40 49 -60 44 -21 -5 -25 -1 -31 28 -24 119 -87 206 -223 310 -53
40 -111 90 -130 111 -46 50 -78 50 -98 0z m89 -101 c15 -16 15 -19 -3 -30 -11
-7 -20 -9 -20 -5 0 5 -3 18 -6 31 -8 27 7 29 29 4z m37 -217 l-12 -59 -19 25
c-24 32 -33 72 -24 116 l6 36 31 -30 c30 -30 30 -30 18 -88z m-224 80 c56 -38
65 -54 42 -77 -17 -17 -17 -21 -3 -48 9 -17 22 -30 30 -30 19 0 19 -2 -6 -44
-12 -20 -25 -34 -29 -31 -4 3 -11 32 -15 64 -4 33 -20 87 -36 121 -39 83 -39
83 17 45z m105 -148 c-13 -13 -15 1 -4 30 7 17 8 17 11 -1 2 -10 -1 -23 -7
-29z"/>
<path d="M5424 8579 c-4 -7 -8 -30 -10 -53 -2 -22 -6 -55 -9 -72 -7 -43 17
-64 44 -40 25 23 47 142 30 162 -14 17 -45 18 -55 3z"/>
<path d="M4866 8434 c-9 -8 -16 -22 -16 -30 0 -17 -23 -18 -52 -3 -18 9 -24 8
-34 -6 -26 -35 18 -125 59 -125 44 1 107 78 107 131 0 20 -24 48 -42 49 -4 0
-14 -7 -22 -16z"/>
<path d="M5265 8386 c-33 -33 -32 -48 6 -91 43 -49 87 -47 114 6 18 33 20 85
4 94 -6 4 -30 9 -55 12 -37 4 -48 0 -69 -21z"/>
<path d="M3040 8281 c0 -14 6 -17 25 -13 28 5 33 17 9 26 -26 10 -34 7 -34
-13z"/>
<path d="M2796 8090 c-50 -23 -73 -62 -50 -84 8 -9 19 -16 24 -16 5 0 7 -7 4
-15 -4 -9 1 -17 12 -20 11 -4 32 -13 47 -21 16 -7 34 -14 41 -14 20 0 106 97
106 119 0 10 -14 31 -31 45 -37 31 -94 34 -153 6z"/>
<path d="M7342 7953 c-61 -8 -77 -86 -26 -134 21 -20 26 -21 56 -9 75 30 95
76 52 121 -15 16 -33 28 -38 27 -6 0 -26 -3 -44 -5z"/>
<path d="M3197 7593 c-13 -12 -7 -45 12 -77 13 -21 21 -59 25 -116 10 -139 12
-400 3 -470 -5 -36 -10 -83 -12 -105 -2 -22 -9 -62 -15 -90 -7 -27 -12 -109
-12 -181 0 -114 5 -147 31 -249 17 -65 31 -127 31 -139 0 -12 10 -40 22 -62
20 -39 21 -43 5 -59 -25 -24 -22 -37 25 -123 48 -86 99 -148 131 -158 12 -4
45 -17 74 -30 66 -30 104 -30 140 0 24 20 25 26 14 40 -7 9 -21 16 -29 16 -12
0 -13 3 -5 11 8 8 16 7 31 -2 25 -16 70 1 119 44 23 20 33 24 33 14 0 -27 28
-41 55 -29 28 13 33 43 10 62 -8 7 -15 19 -15 28 0 8 -7 23 -15 32 -15 16 -13
19 14 36 28 18 121 135 121 153 0 5 -7 15 -16 22 -17 14 -34 0 -93 -79 -20
-27 -97 -82 -115 -82 -3 0 3 18 13 41 15 32 29 45 69 64 55 25 127 110 163
191 19 41 58 194 64 249 2 17 8 66 14 110 17 133 32 286 34 350 2 58 1 60 -23
60 -35 0 -48 -33 -54 -141 -7 -114 -33 -351 -46 -424 -6 -30 -14 -75 -18 -100
-12 -62 -67 -169 -105 -203 -18 -15 -48 -35 -67 -43 -19 -9 -42 -23 -52 -31
-9 -8 -36 -16 -60 -18 -23 -2 -53 -7 -64 -10 -14 -5 -23 -2 -27 9 -4 9 -15 16
-26 16 -27 0 -62 61 -53 94 4 14 5 63 2 108 -3 46 -2 119 2 163 10 106 4 135
-28 135 -32 0 -31 18 6 88 35 68 80 182 80 204 0 26 -27 43 -45 28 -16 -14
-78 -136 -90 -180 -4 -14 -16 -40 -27 -58 -24 -40 -21 -94 11 -190 23 -67 28
-171 10 -189 -8 -8 -9 -35 -3 -90 4 -43 7 -88 6 -100 -2 -14 8 -30 29 -46 39
-30 31 -50 -16 -41 -19 3 -35 1 -39 -5 -4 -6 -11 -11 -16 -11 -22 0 -85 148
-96 225 -3 28 -10 55 -14 60 -4 6 -15 35 -23 65 -30 106 -25 214 29 590 19
133 11 431 -14 549 -13 58 -69 101 -95 74z m447 -1585 c6 -12 21 -25 33 -28
16 -3 20 -9 14 -19 -24 -38 29 -55 79 -26 38 22 46 18 20 -10 -13 -14 -44 -35
-69 -47 -25 -12 -52 -29 -59 -37 -12 -14 -13 -14 -8 2 4 12 0 17 -14 17 -10 0
-21 4 -24 9 -4 5 -26 16 -51 24 -59 20 -153 98 -117 97 4 0 25 -16 47 -35 57
-50 115 -47 115 6 0 5 -11 15 -25 21 -34 15 -31 32 8 44 37 11 36 11 51 -18z
m-134 -165 c25 -11 51 -27 59 -36 38 -47 -93 13 -136 62 -42 47 -42 64 0 24
17 -17 52 -39 77 -50z"/>
<path d="M4651 7088 c-10 -24 -21 -70 -25 -103 -4 -33 -14 -71 -23 -84 -25
-38 -45 -349 -26 -410 8 -27 11 -63 8 -86 -4 -22 -1 -53 5 -70 7 -16 16 -52
20 -80 13 -83 34 -154 46 -159 7 -3 20 1 30 9 18 13 18 18 -4 156 -29 192 -42
303 -42 366 0 82 20 202 46 276 13 38 24 83 24 101 0 18 5 47 11 65 8 24 8 35
-1 46 -23 28 -50 18 -69 -27z"/>
<path d="M3606 7088 c-21 -30 -21 -77 0 -85 24 -9 48 10 58 47 8 27 6 35 -9
46 -25 19 -31 18 -49 -8z"/>
<path d="M5446 7052 c-10 -31 32 -290 61 -372 25 -73 35 -158 30 -270 -4 -84
-10 -119 -32 -175 -40 -103 -66 -152 -86 -171 -11 -10 -19 -25 -19 -35 0 -27
-38 -64 -104 -99 -48 -26 -70 -32 -130 -34 -80 -2 -110 -14 -104 -42 6 -34 46
-44 133 -35 151 16 215 66 298 229 97 191 109 234 110 402 0 114 -4 162 -20
225 -12 44 -26 105 -31 135 -6 30 -15 79 -21 108 -6 30 -11 67 -11 83 0 50
-61 92 -74 51z"/>
<path d="M3648 6996 c-10 -7 -18 -18 -18 -25 0 -6 -5 -20 -12 -30 -6 -10 -8
-26 -5 -35 6 -16 9 -16 31 1 27 20 46 54 46 83 0 23 -17 25 -42 6z"/>
<path d="M4882 6997 c-26 -31 -76 -464 -69 -597 4 -73 9 -95 40 -155 20 -38
54 -97 76 -129 35 -52 47 -62 100 -82 48 -18 62 -20 76 -10 27 19 14 47 -30
65 -22 9 -46 20 -53 24 -17 12 -54 72 -104 168 l-41 80 5 185 c3 113 10 189
16 197 7 7 19 66 28 131 15 101 15 119 3 127 -20 12 -35 11 -47 -4z"/>
<path d="M5224 6985 c-4 -9 -2 -38 5 -64 6 -25 13 -59 16 -76 10 -65 18 -91
37 -117 13 -19 21 -51 24 -100 3 -40 11 -98 19 -128 12 -47 12 -66 1 -133 -8
-42 -19 -84 -26 -92 -17 -21 3 -68 26 -63 20 4 53 83 65 158 13 71 13 63 0
213 -11 122 -23 167 -56 207 -7 8 -15 44 -19 79 -3 35 -14 78 -24 95 -20 35
-59 47 -68 21z"/>
<path d="M6147 6912 c-13 -14 -17 -39 -18 -98 0 -43 -4 -103 -8 -132 -11 -77
13 -282 42 -358 25 -66 76 -161 104 -194 29 -35 118 -84 139 -76 7 3 20 -2 28
-10 24 -23 61 -7 111 48 29 32 45 44 45 33 0 -28 42 -13 63 23 23 39 12 61
-21 43 -16 -9 -21 -7 -25 9 -9 33 -44 24 -68 -17 -12 -21 -35 -49 -51 -62 -29
-23 -29 -23 -43 -4 -8 11 -28 23 -44 26 -51 11 -112 83 -154 183 -53 127 -66
290 -41 526 3 34 0 50 -11 62 -21 20 -28 20 -48 -2z"/>
<path d="M6620 6870 c-6 -11 -8 -24 -5 -29 3 -5 5 -35 5 -68 -1 -119 1 -139
14 -183 13 -45 38 -62 59 -41 6 6 11 71 13 153 2 113 0 148 -12 165 -18 29
-59 30 -74 3z"/>
<path d="M5883 6820 c-14 -6 -26 -24 -34 -50 -13 -43 -6 -63 67 -185 13 -22
24 -50 24 -63 0 -12 9 -40 20 -61 24 -48 42 -154 31 -184 -15 -40 43 -161 96
-201 20 -15 32 -17 52 -10 38 14 38 40 0 72 -71 59 -76 73 -85 214 -2 36 -10
86 -18 110 -8 23 -17 62 -21 86 -4 23 -14 57 -22 74 -17 33 -31 82 -41 142 -8
45 -36 68 -69 56z"/>
<path d="M4238 6523 c-13 -3 -17 -14 -16 -41 1 -54 -16 -137 -35 -166 -10 -14
-17 -32 -17 -40 0 -43 -93 -191 -139 -221 -37 -23 -40 -68 -6 -73 26 -4 94 59
128 118 66 113 127 255 127 295 0 17 5 46 11 64 9 27 8 35 -6 51 -10 11 -21
19 -24 19 -3 -1 -14 -3 -23 -6z"/>
<path d="M6652 6430 c-23 -25 -39 -147 -22 -164 28 -28 95 76 86 133 -8 52
-33 64 -64 31z"/>
<path d="M5186 6181 c-29 -32 -17 -56 27 -55 46 2 45 -14 -2 -38 -36 -18 -81
-57 -81 -69 0 -5 9 -17 21 -28 13 -12 17 -21 10 -26 -13 -8 -15 -42 -2 -49 10
-6 59 12 139 52 54 26 89 70 78 98 -7 19 -22 18 -43 -5 -20 -20 -83 -55 -89
-49 -2 3 4 13 14 24 10 10 26 33 37 50 17 29 17 35 3 70 -14 35 -20 39 -55 42
-29 2 -44 -2 -57 -17z"/>
<path d="M5390 6160 c0 -5 5 -10 10 -10 6 0 10 5 10 10 0 6 -4 10 -10 10 -5 0
-10 -4 -10 -10z"/>
<path d="M4480 6141 c0 -6 -23 -35 -50 -63 -57 -58 -65 -83 -75 -216 -5 -66
-11 -95 -22 -101 -26 -14 -11 -46 20 -44 24 2 27 -2 27 -31 0 -20 8 -40 20
-51 11 -10 20 -27 20 -37 0 -10 7 -29 14 -41 8 -12 18 -37 21 -56 3 -19 8 -38
12 -44 3 -5 11 -34 18 -65 38 -167 63 -232 90 -232 7 0 23 13 35 29 l20 30
-19 43 c-11 24 -29 81 -41 128 -36 148 -39 159 -83 253 -41 90 -42 95 -42 197
0 93 3 109 23 137 23 33 31 37 95 48 21 3 41 13 44 21 9 24 -6 63 -31 79 -32
21 -96 32 -96 16z"/>
<path d="M4840 6125 c-17 -20 -1 -58 35 -81 22 -15 55 -61 55 -79 0 -14 -79
37 -85 55 -7 23 -37 26 -55 5 -9 -11 -16 -12 -31 -2 -16 10 -21 9 -29 -3 -5
-8 -10 -21 -10 -27 0 -20 47 -45 69 -38 15 4 28 -1 43 -18 13 -14 49 -35 80
-48 48 -19 62 -20 83 -11 33 15 32 38 -2 57 l-28 15 38 -2 c39 -2 60 13 54 40
-1 8 -20 20 -42 28 -25 8 -58 33 -90 69 -54 59 -65 64 -85 40z"/>
<path d="M5723 6063 c-24 -9 -13 -47 24 -85 35 -36 38 -43 41 -109 5 -79 -23
-255 -45 -280 -7 -8 -13 -24 -14 -35 0 -10 -18 -48 -39 -84 -21 -36 -48 -85
-60 -110 -11 -24 -28 -52 -36 -61 -9 -10 -22 -34 -29 -55 -17 -52 -2 -95 54
-147 25 -24 59 -59 75 -78 75 -90 231 -248 250 -253 27 -7 109 -89 148 -146
89 -131 204 -277 277 -350 37 -37 88 -91 114 -120 27 -30 88 -95 137 -145 48
-49 105 -115 125 -145 42 -62 115 -201 115 -219 0 -7 8 -28 19 -49 23 -45 51
-152 51 -193 0 -17 4 -38 9 -47 6 -11 2 -87 -10 -207 -11 -104 -17 -195 -15
-202 3 -7 17 -13 30 -13 19 0 27 6 30 23 55 284 30 551 -74 771 -17 35 -30 67
-30 71 0 4 -11 23 -25 41 -14 18 -25 36 -25 40 0 4 -15 25 -33 48 -18 23 -40
52 -49 66 -9 14 -65 75 -125 136 -96 99 -140 146 -299 324 -22 25 -50 61 -62
80 -11 20 -32 46 -47 60 -14 13 -36 44 -48 69 -12 24 -30 49 -39 55 -29 18
-21 25 19 19 45 -8 146 -52 198 -88 21 -14 48 -25 60 -25 13 0 26 -7 29 -16 3
-8 27 -24 53 -36 27 -11 55 -26 63 -32 8 -7 33 -18 55 -25 22 -8 99 -50 170
-95 141 -89 278 -156 337 -164 21 -2 43 -11 49 -18 6 -8 19 -14 29 -14 27 0
109 -78 141 -136 36 -62 122 -147 147 -142 36 7 24 45 -42 131 -36 47 -66 90
-66 96 0 20 -113 121 -148 132 -19 6 -46 17 -60 25 -15 8 -38 14 -50 14 -36 0
-230 96 -274 135 -21 19 -43 35 -49 35 -6 0 -29 15 -52 33 -23 19 -71 44 -107
57 -36 12 -69 26 -75 30 -5 4 -64 37 -130 72 -119 64 -197 98 -265 115 -28 7
-40 17 -59 56 -16 32 -31 49 -48 53 -34 9 -44 -10 -37 -64 6 -38 5 -42 -12
-35 -37 13 -107 83 -213 212 -20 25 -60 68 -88 97 -29 29 -53 58 -53 66 0 7
19 47 43 88 115 201 165 334 188 495 11 78 -1 166 -25 191 -9 8 -23 28 -32 44
-23 38 -61 56 -91 43z"/>
<path d="M4123 5968 c-30 -14 -29 -34 1 -53 19 -13 29 -14 45 -5 26 14 27 46
2 60 -23 12 -20 12 -48 -2z"/>
<path d="M4205 5867 c-19 -30 -10 -59 19 -55 17 2 21 10 21 37 0 42 -18 50
-40 18z"/>
<path d="M6627 5723 c-15 -14 -6 -56 20 -89 25 -33 27 -42 27 -147 1 -92 -3
-124 -22 -182 -30 -89 -62 -156 -107 -224 -31 -47 -35 -58 -26 -79 18 -37 50
-24 93 38 40 57 98 167 98 186 0 6 11 38 25 72 60 147 8 432 -79 432 -12 0
-26 -3 -29 -7z"/>
<path d="M3440 5679 c-9 -21 -11 -61 -7 -137 6 -114 7 -117 74 -289 28 -73 43
-127 43 -157 0 -63 -60 -187 -108 -224 -19 -15 -62 -51 -96 -80 -33 -30 -81
-65 -106 -80 -25 -14 -52 -33 -60 -42 -8 -9 -35 -24 -60 -33 -25 -10 -66 -35
-90 -57 -25 -22 -73 -54 -108 -72 -35 -18 -66 -36 -68 -40 -3 -4 -19 -8 -35
-8 -40 0 -138 -41 -196 -82 -58 -41 -156 -137 -208 -203 -21 -27 -43 -54 -50
-60 -37 -33 -95 -121 -100 -153 -4 -20 -11 -50 -15 -67 -12 -40 4 -264 23
-340 9 -33 27 -91 41 -128 14 -37 26 -75 26 -84 0 -15 26 -79 51 -125 5 -11 5
-19 -1 -23 -22 -14 30 -75 63 -75 20 1 19 3 -10 29 -36 30 -41 41 -18 41 20 0
37 36 29 63 -3 12 -19 49 -34 82 -69 150 -108 303 -109 425 0 140 14 192 73
268 29 37 63 78 76 92 26 27 131 147 140 159 8 11 122 77 155 89 17 6 45 14
62 17 53 11 169 71 238 125 35 28 67 50 70 50 8 0 119 71 125 80 3 4 25 17 49
30 25 12 67 43 95 69 28 26 69 61 91 78 41 31 92 114 119 194 20 56 20 146 1
183 -8 15 -15 33 -15 40 0 6 -14 44 -30 85 -17 41 -35 102 -40 135 -5 34 -14
81 -19 106 -5 25 -7 57 -4 72 14 70 -32 108 -57 47z"/>
<path d="M3994 5625 c-12 -18 -14 -34 -9 -57 13 -56 9 -159 -8 -256 -18 -96
-15 -137 9 -146 21 -8 45 36 54 101 5 32 17 103 28 158 18 92 18 102 3 124 -8
13 -16 31 -16 40 -1 9 -2 26 -3 39 -3 30 -37 29 -58 -3z"/>
<path d="M5927 5273 c-13 -23 -37 -127 -43 -190 -6 -68 -5 -73 13 -73 35 0 61
43 69 114 2 21 9 53 15 71 11 28 10 37 -5 59 -16 25 -40 34 -49 19z"/>
<path d="M2870 5200 c-13 -9 -13 -11 0 -19 17 -12 30 -5 30 15 0 16 -9 18 -30
4z"/>
<path d="M4500 5039 c-106 -124 -118 -137 -144 -145 -12 -4 -49 -31 -84 -60
-35 -30 -69 -54 -77 -54 -9 0 -16 19 -21 56 -8 69 -42 115 -71 98 -26 -16 -27
-53 -3 -120 11 -33 23 -66 26 -74 5 -16 -75 -110 -94 -110 -5 0 -13 8 -16 17
-6 15 -8 15 -23 0 -14 -13 -14 -19 -3 -32 12 -14 8 -20 -26 -48 -21 -18 -48
-43 -59 -56 -45 -53 -209 -237 -220 -246 -7 -5 -61 -65 -121 -133 -60 -68
-142 -160 -182 -205 -41 -45 -84 -98 -97 -117 -13 -19 -39 -53 -59 -74 -37
-41 -125 -200 -139 -251 -39 -145 -48 -238 -32 -331 8 -47 17 -89 19 -93 3 -4
10 -36 15 -70 8 -50 17 -71 46 -102 19 -21 35 -45 35 -53 0 -25 105 -130 124
-123 26 10 19 45 -18 90 -53 65 -113 186 -121 242 -3 28 -13 80 -22 117 -8 38
-13 85 -11 105 11 86 40 192 68 246 17 31 30 62 30 67 0 15 72 116 176 245 53
66 100 127 104 135 5 9 19 21 32 28 13 7 34 29 48 50 28 42 167 199 250 283
30 30 87 91 127 135 87 96 273 268 327 301 21 14 53 39 71 56 17 18 70 66 116
108 99 89 174 182 165 204 -14 37 -51 13 -136 -86z"/>
<path d="M5050 5126 c-61 -23 -111 -63 -249 -199 -157 -155 -196 -204 -180
-223 6 -8 16 -14 21 -14 5 0 39 30 76 66 39 39 68 61 70 53 1 -8 -2 -57 -7
-109 -11 -108 -5 -494 9 -633 24 -230 31 -346 26 -421 -3 -45 -10 -164 -17
-265 -10 -148 -10 -203 1 -277 14 -105 8 -262 -16 -388 -25 -128 -18 -350 17
-526 10 -52 25 -141 50 -290 6 -36 12 -88 13 -116 1 -27 5 -55 9 -60 6 -10 9
-366 4 -464 -2 -30 -7 -64 -12 -74 -5 -11 -4 -44 1 -78 7 -37 7 -61 0 -68 -6
-6 -5 -15 4 -24 7 -9 16 -48 20 -88 7 -61 13 -76 35 -95 36 -32 77 -29 118 7
44 38 55 81 58 215 1 61 5 137 10 170 4 33 9 80 10 105 2 25 8 62 16 84 7 21
13 73 13 115 0 42 5 92 10 111 22 74 19 311 -7 615 -2 28 -6 102 -9 165 -5
115 -4 126 38 260 6 21 12 172 13 385 2 221 7 363 14 385 22 67 25 285 6 400
-10 58 -18 141 -18 185 -1 140 15 349 30 390 17 45 38 132 55 220 6 33 19 72
29 87 23 32 23 45 4 92 -15 35 -12 80 5 91 5 3 44 -43 88 -102 44 -60 92 -121
107 -138 88 -96 121 -128 210 -200 93 -77 194 -174 267 -260 53 -61 154 -163
199 -201 22 -18 63 -63 92 -101 29 -37 68 -84 88 -104 19 -21 40 -49 47 -64
10 -21 18 -26 40 -23 24 3 27 7 26 40 -1 31 -11 48 -58 98 -31 34 -56 65 -56
71 0 5 -17 26 -39 47 -21 20 -74 71 -117 113 -44 41 -91 91 -106 110 -14 20
-50 60 -80 91 -29 31 -65 69 -79 84 -35 40 -167 155 -198 175 -31 20 -213 209
-259 270 -65 86 -99 135 -125 179 -45 76 -70 102 -102 104 -17 1 -34 4 -40 8
-9 6 -122 29 -134 27 -3 0 -22 -6 -41 -13z m150 -81 c27 6 29 5 32 -32 3 -35
5 -38 33 -36 26 2 44 -10 45 -29 0 -5 -9 -8 -20 -8 -24 0 -40 -33 -51 -105 -4
-27 -12 -68 -18 -90 -6 -22 -16 -80 -22 -130 -6 -49 -21 -117 -35 -150 -41
-105 -58 -454 -27 -569 20 -74 24 -358 5 -421 -6 -22 -14 -80 -17 -130 -3 -49
-8 -109 -11 -132 -3 -24 -2 -48 2 -54 3 -6 6 -106 6 -221 -1 -197 -3 -216 -28
-301 -35 -119 -37 -276 -5 -502 21 -146 3 -666 -26 -742 -8 -23 -12 -46 -9
-52 4 -6 0 -24 -9 -41 -9 -17 -15 -40 -13 -53 7 -58 -14 -295 -29 -329 -18
-43 -32 -49 -35 -15 0 12 -3 33 -4 47 -5 35 -13 336 -18 640 -4 204 -9 276
-25 360 -12 58 -28 148 -36 200 -9 52 -19 109 -24 125 -27 90 -29 341 -4 445
15 63 17 104 13 255 -7 269 -5 499 6 600 10 101 2 341 -16 486 -15 115 -9 686
8 736 9 27 7 34 -9 49 -18 16 -15 20 86 120 57 56 112 104 122 106 10 2 37 -4
61 -15 28 -12 53 -16 72 -12z"/>
<path d="M3990 5050 c-9 -6 -11 -21 -7 -55 8 -58 13 -65 40 -65 22 0 57 46 57
75 0 24 -68 58 -90 45z"/>
<path d="M6577 4913 c-26 -26 21 -89 119 -159 34 -25 64 -48 66 -53 2 -4 41
-34 88 -66 47 -32 96 -67 109 -77 13 -10 31 -18 39 -18 8 0 38 -17 66 -38 28
-21 77 -46 109 -56 31 -9 57 -21 57 -25 0 -5 27 -18 60 -30 33 -12 72 -32 87
-44 26 -21 94 -69 132 -92 9 -5 16 -17 16 -25 0 -8 10 -16 21 -18 24 -3 164
-136 164 -155 0 -7 9 -20 20 -29 11 -10 23 -30 26 -45 4 -15 15 -39 25 -53 23
-32 38 -122 38 -235 0 -106 -4 -125 -29 -125 -14 0 -21 -10 -25 -37 -4 -21
-13 -71 -20 -110 -8 -40 -12 -80 -8 -88 3 -10 -5 -27 -21 -43 -36 -38 -45 -87
-18 -101 37 -20 60 10 145 183 20 41 50 238 54 350 3 91 1 129 -11 155 -8 20
-17 48 -20 62 -5 24 -31 84 -62 141 -8 14 -29 41 -47 60 -17 18 -47 51 -65 72
-18 21 -65 61 -105 89 -40 28 -85 61 -101 74 -16 13 -68 43 -115 65 -47 22
-95 51 -107 63 -12 13 -39 26 -62 30 -23 4 -59 18 -79 32 -21 14 -52 32 -70
39 -47 20 -211 131 -258 175 -22 21 -66 56 -97 80 -32 23 -58 46 -58 51 0 10
-54 11 -63 1z"/>
<path d="M3958 4848 c-81 -75 -201 -149 -265 -162 -17 -4 -79 -32 -137 -62
-58 -30 -110 -54 -116 -54 -22 0 -300 -133 -345 -165 -16 -11 -86 -49 -155
-84 -109 -55 -137 -74 -221 -154 -53 -51 -107 -108 -121 -127 -35 -48 -65
-172 -50 -205 25 -54 62 -18 62 59 0 43 4 50 88 141 109 121 182 181 236 197
22 6 50 19 61 28 11 9 31 22 45 29 14 6 53 32 85 57 33 24 66 44 73 44 8 0 26
8 40 18 27 18 95 52 106 52 3 0 83 38 178 84 95 46 199 93 231 105 74 27 134
68 230 158 26 24 45 49 42 54 -10 16 -41 10 -67 -13z"/>
<path d="M5443 4678 c-4 -7 -11 -44 -14 -83 -3 -38 -16 -131 -29 -205 -37
-222 -25 -495 30 -690 10 -36 26 -99 36 -140 9 -41 20 -79 24 -85 3 -5 24 -64
45 -130 21 -66 51 -153 66 -193 16 -40 31 -89 35 -109 4 -20 17 -62 29 -92 12
-31 32 -114 44 -186 12 -71 26 -146 30 -165 14 -61 12 -172 -4 -245 -9 -38
-22 -113 -30 -165 -8 -52 -21 -111 -29 -131 -18 -45 -22 -240 -7 -358 26 -206
102 -325 179 -279 40 25 50 68 51 218 1 157 12 237 46 338 14 40 25 80 25 90
0 10 4 22 9 28 15 15 56 178 90 359 6 28 13 88 16 135 6 71 3 95 -14 145 -11
33 -24 83 -30 110 -5 28 -21 82 -36 120 -15 39 -31 93 -36 120 -20 112 -109
449 -143 542 -51 138 -47 427 9 617 23 80 24 91 11 104 -27 27 -61 1 -80 -60
-30 -102 -45 -183 -45 -258 -1 -41 -2 -115 -3 -165 -2 -109 13 -198 53 -314
17 -47 34 -104 39 -126 29 -135 86 -351 125 -470 13 -38 28 -97 35 -130 7 -33
19 -82 28 -109 11 -38 13 -75 9 -160 -4 -61 -11 -124 -16 -141 -6 -16 -20 -70
-31 -120 -12 -49 -28 -110 -35 -135 -7 -25 -20 -72 -30 -105 -9 -33 -23 -76
-31 -95 -25 -61 -39 -199 -33 -326 6 -128 -2 -167 -28 -142 -8 9 -18 30 -23
49 -4 19 -15 61 -24 94 -12 43 -16 100 -16 205 1 141 6 185 35 320 8 36 17 88
20 115 3 28 13 70 21 96 11 36 12 61 4 125 -5 43 -15 120 -20 169 -6 50 -19
127 -30 172 -11 45 -20 91 -20 103 0 18 -26 91 -49 140 -4 8 -33 96 -65 195
-32 99 -69 207 -82 240 -31 81 -74 262 -74 310 0 22 -5 56 -11 75 -26 88 -21
268 16 614 9 82 14 155 11 163 -7 16 -42 17 -53 1z"/>
<path d="M4535 4654 c-11 -9 -38 -25 -60 -35 -58 -28 -99 -57 -166 -116 -32
-29 -63 -53 -67 -53 -17 0 -211 -155 -311 -248 -57 -53 -113 -104 -125 -112
-12 -8 -31 -24 -42 -36 -11 -11 -29 -27 -40 -35 -20 -15 -64 -73 -64 -85 0
-11 -74 -105 -125 -159 -26 -27 -51 -60 -56 -73 -12 -31 -11 -79 1 -87 15 -9
48 13 64 43 8 15 27 41 44 57 16 17 34 39 40 51 6 12 27 40 47 63 19 24 42 58
51 77 9 19 46 58 82 87 37 28 94 80 127 115 33 34 63 62 68 62 4 0 34 26 67
57 54 51 105 83 132 83 16 0 3 -470 -15 -565 -20 -102 -48 -201 -82 -290 -67
-177 -124 -408 -137 -560 -15 -184 -18 -324 -7 -390 6 -33 14 -103 19 -155 9
-101 18 -151 42 -240 11 -40 13 -70 7 -110 -12 -85 -56 -208 -88 -248 -45 -57
-68 -112 -75 -174 -6 -53 -4 -59 19 -74 20 -13 30 -14 58 -5 19 7 43 21 52 31
10 11 27 20 37 20 10 0 21 6 24 14 3 7 15 11 27 9 29 -5 38 2 79 67 122 193
147 332 113 625 -33 281 -34 299 -25 398 5 54 19 137 30 184 11 46 20 92 20
101 0 8 8 34 18 56 10 23 29 68 42 101 13 33 42 103 66 155 41 93 154 429 154
460 0 9 4 20 9 25 5 6 19 44 31 85 12 41 36 120 53 175 27 88 30 113 29 215
-2 157 -41 338 -82 385 -10 11 -20 29 -22 40 -4 25 -37 30 -63 9z m39 -113
c53 -109 82 -375 52 -481 -50 -178 -190 -605 -219 -670 -9 -19 -30 -69 -47
-110 -17 -41 -38 -88 -45 -105 -71 -159 -107 -284 -129 -445 -23 -166 -21
-226 14 -420 7 -41 6 -56 -3 -62 -9 -6 -9 -10 -1 -15 10 -7 22 -79 29 -178 3
-43 -15 -151 -38 -226 -19 -63 -76 -147 -104 -154 -12 -3 -27 -14 -33 -25 -9
-17 -77 -60 -95 -60 -17 0 3 55 50 139 14 24 39 82 56 130 42 113 44 180 9
351 -27 136 -50 329 -49 418 0 114 23 387 38 452 25 115 109 387 121 395 4 3
11 24 15 48 4 23 13 53 20 67 7 14 23 80 36 145 19 102 22 158 23 376 l2 256
64 60 c79 74 190 152 208 145 7 -2 19 -16 26 -31z"/>
<path d="M7230 4370 c0 -5 7 -10 15 -10 8 0 15 5 15 10 0 6 -7 10 -15 10 -8 0
-15 -4 -15 -10z"/>
<path d="M7572 3912 c-14 -9 -20 -130 -8 -150 3 -6 -1 -49 -10 -96 -13 -63
-15 -99 -8 -138 11 -63 28 -68 55 -18 10 19 23 45 30 57 10 18 9 31 -1 62 -7
21 -9 44 -5 51 11 18 6 212 -7 227 -12 15 -27 16 -46 5z"/>
<path d="M2462 3881 c-18 -11 -17 -30 7 -165 26 -136 35 -164 56 -172 41 -16
59 54 31 121 -8 19 -20 69 -25 111 -15 105 -31 130 -69 105z"/>
<path d="M7467 3883 c-2 -5 -7 -24 -11 -44 -8 -47 29 -145 45 -117 17 31 29
117 19 143 -9 24 -43 35 -53 18z"/>
<path d="M2359 3754 c-10 -12 -10 -20 -1 -34 13 -21 62 -230 62 -265 0 -27 23
-75 41 -86 18 -11 49 8 49 30 0 10 -7 38 -15 62 -18 51 -55 210 -60 256 -1 17
-6 36 -10 42 -9 16 -51 13 -66 -5z"/>
<path d="M7711 3711 c-9 -6 -19 -48 -28 -112 -7 -57 -23 -139 -35 -182 -24
-84 -19 -104 22 -89 29 11 46 61 65 197 8 55 18 115 21 133 4 20 1 38 -6 47
-14 17 -20 18 -39 6z"/>
<path d="M6503 3514 c6 -60 35 -91 67 -74 12 6 24 9 27 6 4 -3 1 -45 -5 -93
-9 -74 -8 -92 4 -111 10 -15 23 -22 37 -20 21 3 22 9 28 128 3 69 9 137 13
153 9 29 -6 57 -30 57 -21 0 -44 -30 -44 -57 0 -21 -2 -24 -15 -13 -8 7 -15
20 -15 29 0 24 -20 41 -48 41 -23 0 -24 -3 -19 -46z"/>
<path d="M6832 3472 c-22 -17 -22 -19 -11 -126 7 -76 8 -116 0 -134 -6 -15
-10 -70 -9 -122 2 -80 -3 -108 -27 -182 -23 -72 -26 -90 -15 -103 16 -19 23
-19 50 3 28 23 59 175 60 295 0 55 6 101 15 124 10 24 12 40 5 48 -5 7 -13 53
-17 104 -7 101 -17 119 -51 93z"/>
<path d="M6709 3458 c-1 -7 -1 -60 1 -118 1 -76 -4 -137 -20 -217 -27 -138
-25 -167 12 -171 22 -3 28 1 32 20 29 150 52 442 37 475 -11 25 -60 33 -62 11z"/>
<path d="M3410 3425 c-10 -12 -10 -21 -2 -41 11 -22 10 -24 -6 -16 -22 12 -40
5 -53 -19 -8 -16 -5 -30 17 -67 16 -26 37 -65 49 -87 15 -31 26 -40 45 -40 38
0 38 48 1 126 -36 74 -37 79 -12 79 25 0 36 33 19 59 -15 25 -41 27 -58 6z"/>
<path d="M3166 3284 c-20 -20 -7 -76 35 -156 5 -10 9 -25 9 -33 0 -14 15 -64
51 -175 7 -19 33 -66 58 -103 25 -37 55 -83 66 -101 42 -69 118 -147 139 -144
33 5 33 51 1 85 -15 16 -52 65 -82 110 -29 45 -58 85 -64 89 -14 8 -52 96 -73
169 -10 33 -27 83 -38 110 -11 28 -27 73 -35 100 -20 66 -38 78 -67 49z"/>
<path d="M3315 3221 c-6 -11 9 -23 19 -14 9 9 7 23 -3 23 -6 0 -12 -4 -16 -9z"/>
<path d="M3307 3174 c-20 -20 -3 -72 54 -166 33 -55 66 -117 73 -136 16 -44
39 -61 64 -46 32 21 6 99 -70 210 -18 27 -40 69 -48 94 -12 36 -20 46 -40 48
-14 2 -29 0 -33 -4z"/>
<path d="M6927 2888 c-13 -11 -46 -94 -47 -119 0 -3 11 -11 24 -17 38 -17 55
3 57 71 3 64 -8 84 -34 65z"/>
</g>
</svg>
