<?xml version="1.0" standalone="no"?>
<!DOCTYPE svg PUBLIC "-//W3C//DTD SVG 20010904//EN"
 "http://www.w3.org/TR/2001/REC-SVG-20010904/DTD/svg10.dtd">
<svg version="1.0" xmlns="http://www.w3.org/2000/svg"
 width="1000.000000pt" height="503.000000pt" viewBox="0 0 1000.000000 503.000000"
 preserveAspectRatio="xMidYMid meet">
<metadata>
Created by potrace 1.16, written by Peter Selinger 2001-2019
</metadata>
<g transform="translate(0.000000,503.000000) scale(0.100000,-0.100000)"
fill="#000000" stroke="none">
<path d="M4173 4913 c-9 -16 -18 -29 -19 -31 -1 -2 -14 4 -28 13 -29 19 -46
13 -46 -16 0 -30 -28 -79 -46 -79 -27 0 -78 -32 -116 -73 -39 -41 -46 -61 -28
-72 6 -3 10 -14 10 -23 0 -12 -8 -8 -28 16 l-28 32 -57 -35 c-32 -19 -67 -45
-77 -57 -18 -22 -19 -23 -26 -3 -23 62 -98 41 -200 -57 -34 -32 -42 -37 -48
-23 -11 29 -145 11 -235 -31 -55 -26 -76 -31 -82 -22 -9 14 -66 -42 -144 -141
-70 -88 -84 -119 -102 -213 -8 -46 -18 -95 -23 -110 -10 -33 3 -37 33 -10 15
12 21 14 24 5 8 -22 27 -14 68 27 22 22 59 55 83 75 35 28 46 32 57 22 10 -10
8 -13 -12 -19 -26 -7 -73 -45 -73 -59 0 -4 7 -10 16 -13 15 -6 100 71 96 87
-2 5 8 6 20 2 15 -4 19 -3 10 3 -19 13 6 31 49 33 36 3 83 22 111 47 10 8 28
16 42 17 13 2 33 6 44 9 11 4 34 8 52 11 17 2 42 11 56 19 22 15 24 15 39 -13
8 -17 21 -56 29 -88 7 -32 15 -64 17 -72 2 -7 -4 -15 -13 -16 -36 -6 -129 -67
-124 -81 6 -16 -80 -64 -114 -64 -11 0 -38 -9 -58 -19 -37 -19 -86 -19 -98 0
-14 23 -94 1 -94 -26 0 -12 -5 -11 -29 3 -17 9 -25 19 -19 23 23 14 -11 17
-48 4 -21 -8 -47 -14 -56 -15 -20 0 -34 -20 -21 -29 18 -12 22 -40 11 -72 -9
-27 -8 -34 5 -44 24 -17 21 -25 -8 -25 -25 0 -36 -19 -12 -21 6 0 21 -2 32 -4
11 -2 64 -8 119 -13 54 -6 100 -13 102 -15 3 -3 -7 -30 -21 -62 -14 -32 -25
-61 -25 -66 0 -5 -11 -32 -24 -61 -14 -29 -31 -73 -40 -98 -29 -89 -67 -175
-91 -213 -28 -41 -26 -57 8 -57 16 0 22 -6 23 -22 0 -13 8 -72 17 -133 10 -60
20 -126 23 -145 7 -52 15 -171 18 -299 l3 -114 51 -3 c39 -2 52 1 57 14 7 20
-5 182 -16 202 -4 9 -10 55 -14 104 -3 48 -15 115 -25 149 -41 135 -63 239
-52 246 5 3 12 31 15 61 8 91 77 301 128 388 10 18 19 40 19 48 0 44 54 78
160 100 26 6 67 23 85 36 6 4 32 24 58 44 27 19 50 34 51 32 1 -2 9 -19 18
-39 9 -20 31 -53 48 -73 17 -19 29 -39 26 -44 -8 -14 16 -82 30 -82 7 0 15 9
19 19 3 11 13 25 21 32 13 11 19 9 33 -9 15 -21 26 -23 136 -26 66 -2 135 -7
153 -11 26 -6 32 -4 32 9 0 22 37 21 83 -4 20 -11 44 -20 53 -20 14 0 16 -7
11 -45 -4 -25 -3 -45 2 -45 4 0 11 -73 16 -162 4 -90 8 -181 9 -202 2 -48 18
-56 34 -19 l12 28 -5 -26 c-3 -17 1 -32 11 -40 15 -12 16 -1 10 141 -11 250
-27 349 -66 402 -11 15 -20 34 -20 43 0 14 -13 20 -35 15 -8 -1 -213 0 -290 2
-11 0 -35 -5 -53 -13 -37 -15 -68 -3 -66 25 2 22 -6 20 -46 -9 -18 -13 -37
-22 -42 -19 -14 9 1 24 17 17 20 -7 20 26 1 41 -12 10 -24 63 -25 118 -1 22
-30 50 -43 42 -5 -4 -8 -18 -5 -33 3 -14 2 -34 -2 -45 -7 -17 -9 -16 -24 7
-23 35 -21 50 7 84 30 36 41 94 25 141 -10 30 -9 37 2 40 8 3 34 26 59 51 45
46 69 101 84 192 5 31 16 43 63 74 l57 38 30 -34 c54 -60 80 -78 151 -104 81
-29 140 -33 149 -9 3 9 4 20 0 25 -11 19 7 26 51 19 33 -5 48 -3 57 7 12 15 6
142 -10 183 -5 14 -18 50 -28 80 -25 78 -71 139 -137 183 -31 21 -57 44 -57
52 0 8 3 15 7 15 23 0 225 -196 249 -242 13 -25 34 -38 34 -22 0 29 -168 224
-228 266 -17 12 -23 24 -20 44 3 28 5 26 97 -61 51 -50 112 -117 135 -150 35
-51 41 -57 44 -37 2 12 -8 42 -21 65 -29 47 -228 257 -245 257 -7 0 -19 -12
-29 -27z m-44 -94 c-11 -21 -49 -26 -49 -7 0 6 7 20 17 30 22 24 48 6 32 -23z
m-59 -49 c0 -5 -4 -10 -10 -10 -5 0 -10 5 -10 10 0 6 5 10 10 10 6 0 10 -4 10
-10z m88 -60 c17 -16 32 -34 32 -39 0 -5 17 -23 38 -39 29 -24 43 -46 64 -108
16 -48 25 -89 22 -105 -3 -15 -1 -30 5 -33 6 -4 11 -13 11 -21 0 -12 -4 -12
-27 0 -29 15 -47 11 -37 -8 4 -7 4 -9 -1 -5 -4 4 -13 4 -19 -1 -7 -6 -36 -1
-76 11 -126 39 -135 43 -150 74 -14 30 -43 64 -53 64 -3 0 -2 -12 2 -27 5 -16
13 -27 20 -25 6 1 11 -5 11 -14 0 -8 -4 -13 -9 -10 -5 4 -11 0 -13 -6 -3 -8
-9 -4 -17 10 -16 29 -52 28 -81 -3 -13 -14 -29 -25 -37 -25 -16 0 54 64 81 73
14 6 17 14 12 37 -3 17 -9 44 -12 60 -4 19 -2 30 5 30 6 0 11 -8 11 -17 0 -31
17 -50 31 -36 10 10 9 16 -4 31 -21 23 -22 42 -2 42 8 0 15 -7 15 -15 0 -8 5
-15 10 -15 15 0 12 38 -2 43 -17 5 31 57 52 57 8 0 29 11 45 25 17 13 32 24
35 24 3 0 20 -13 38 -29z m-298 -83 c0 -1 9 -26 19 -55 l20 -53 -40 -36 c-25
-23 -38 -42 -35 -52 3 -9 0 -7 -7 4 -7 11 -34 42 -62 69 l-50 49 42 -6 c42 -5
43 -4 70 39 23 35 43 55 43 41z m-204 -84 c-10 -10 -19 5 -10 18 6 11 8 11 12
0 2 -7 1 -15 -2 -18z m43 -65 c9 -26 19 -50 24 -54 12 -13 8 -28 -18 -58 -13
-16 -22 -33 -19 -38 3 -4 0 -7 -8 -6 -7 2 -13 -4 -13 -12 0 -8 -5 -18 -12 -23
-6 -4 -14 -21 -18 -37 -8 -36 -21 -39 -30 -7 -14 48 -40 95 -84 152 -61 78
-65 85 -49 85 7 0 29 -20 48 -44 37 -47 65 -62 80 -43 50 61 58 75 51 83 -12
12 6 57 21 52 6 -2 19 -25 27 -50z m211 12 c0 -5 -5 -10 -11 -10 -5 0 -7 5 -4
10 3 6 8 10 11 10 2 0 4 -4 4 -10z m-310 -13 c0 -2 -10 -12 -22 -23 l-23 -19
19 23 c18 21 26 27 26 19z m310 -56 c0 -5 -7 -12 -16 -15 -14 -5 -15 -4 -4 9
14 17 20 19 20 6z m-510 -16 c-14 -17 -40 -20 -40 -6 0 8 18 16 44 20 5 0 3
-6 -4 -14z m400 -30 c0 -16 -6 -25 -15 -25 -16 0 -19 9 -9 34 9 25 24 19 24
-9z m-405 -35 c3 -5 -1 -10 -10 -10 -9 0 -13 5 -10 10 3 6 8 10 10 10 2 0 7
-4 10 -10z m-115 -20 c-8 -5 -17 -7 -19 -4 -3 3 1 9 9 14 8 5 17 7 19 4 3 -3
-1 -9 -9 -14z m42 -11 c-23 -17 -42 -35 -42 -40 0 -6 -5 -7 -11 -3 -13 8 58
73 80 74 8 0 -4 -14 -27 -31z m-202 -8 c0 -10 -62 -52 -68 -46 -5 5 50 54 61
55 4 0 7 -4 7 -9z m347 -18 c-4 -25 -16 -43 -29 -43 -7 0 -6 6 2 15 15 18 -1
20 -19 3 -11 -11 -12 -10 -6 1 5 9 3 12 -6 9 -8 -3 -13 -10 -12 -16 2 -6 -3
-9 -11 -6 -7 3 -26 -6 -42 -19 -38 -30 -104 -70 -109 -65 -11 11 54 61 139
107 67 35 97 40 93 14z m48 7 c-3 -5 -13 -10 -21 -10 -8 0 -12 5 -9 10 3 6 13
10 21 10 8 0 12 -4 9 -10z m196 -63 c-10 -9 -11 -8 -5 6 3 10 9 15 12 12 3 -3
0 -11 -7 -18z m-490 -47 c-34 -29 -71 -45 -71 -30 0 8 42 39 70 52 33 15 33 6
1 -22z m-126 -30 c-10 -11 -21 -17 -24 -14 -3 3 3 12 13 20 28 20 32 17 11 -6z
m-120 -40 c-4 -12 -9 -19 -12 -17 -3 3 -2 15 2 27 4 12 9 19 12 17 3 -3 2 -15
-2 -27z m66 -23 c-10 -9 -11 -8 -5 6 3 10 9 15 12 12 3 -3 0 -11 -7 -18z m609
-163 c0 -8 -4 -12 -10 -9 -5 3 -10 13 -10 21 0 8 5 12 10 9 6 -3 10 -13 10
-21z m-50 6 c0 -5 -5 -10 -11 -10 -5 0 -7 5 -4 10 3 6 8 10 11 10 2 0 4 -4 4
-10z m-290 -64 c0 -2 -7 -7 -16 -10 -8 -3 -12 -2 -9 4 6 10 25 14 25 6z m145
-126 c-3 -5 -11 -10 -16 -10 -6 0 -7 5 -4 10 3 6 11 10 16 10 6 0 7 -4 4 -10z
m263 -66 c-4 -3 -12 5 -18 18 -12 22 -12 22 6 6 10 -10 15 -20 12 -24z m482
-54 c0 -5 -7 -10 -15 -10 -8 0 -15 5 -15 10 0 6 7 10 15 10 8 0 15 -4 15 -10z
m-1020 -109 c0 -6 -4 -13 -10 -16 -5 -3 -10 1 -10 9 0 9 5 16 10 16 6 0 10 -4
10 -9z m-88 -216 c-4 -26 -22 -45 -22 -25 0 12 18 50 24 50 2 0 1 -11 -2 -25z
m-22 -74 c-16 -31 -32 -36 -18 -7 6 14 15 26 20 26 5 0 4 -9 -2 -19z m10 -307
c0 -8 -4 -12 -10 -9 -5 3 -10 10 -10 16 0 5 5 9 10 9 6 0 10 -7 10 -16z m77
-496 c-3 -8 -6 -5 -6 6 -1 11 2 17 5 13 3 -3 4 -12 1 -19z"/>
<path d="M4046 4650 c-40 -48 -38 -103 7 -174 31 -49 73 -76 120 -76 33 0 48
21 54 74 9 80 -40 178 -94 189 -15 3 -35 8 -44 12 -11 4 -25 -5 -43 -25z m114
-85 c0 -12 -20 6 -31 28 l-11 22 21 -22 c11 -12 21 -25 21 -28z m-27 -4 c18
-15 47 -73 47 -93 0 -16 -29 12 -61 58 -43 63 -37 79 14 35z m-13 -85 c0 -3
-4 -8 -10 -11 -5 -3 -10 -1 -10 4 0 6 5 11 10 11 6 0 10 -2 10 -4z"/>
<path d="M3827 4564 c-10 -13 -14 -24 -9 -24 13 0 35 27 30 39 -1 5 -11 -2
-21 -15z"/>
<path d="M3835 4505 c-20 -17 -25 -25 -14 -25 8 0 26 11 39 25 30 32 14 32
-25 0z"/>
<path d="M8630 4906 c-25 -7 -55 -16 -67 -20 -14 -4 -23 -3 -23 3 0 6 -7 8
-15 5 -11 -5 -13 -10 -5 -19 8 -10 -3 -20 -46 -44 -30 -18 -67 -36 -80 -41
-13 -5 -24 -16 -24 -24 0 -12 12 -15 53 -14 67 2 114 -21 152 -75 27 -38 30
-40 33 -19 4 24 -33 77 -60 87 -10 4 -18 11 -18 16 0 16 60 -23 83 -53 23 -32
37 -36 37 -12 0 25 -66 79 -111 93 -50 15 -42 29 38 66 61 30 155 43 187 26
11 -6 35 -16 51 -23 l30 -12 -29 -4 c-16 -2 -32 1 -35 6 -3 5 -22 12 -41 15
-24 5 -30 4 -20 -3 12 -7 10 -11 -10 -18 -20 -8 -26 -6 -32 10 -6 15 -11 17
-28 8 -11 -6 -20 -15 -20 -21 0 -10 95 -109 104 -109 3 0 3 14 0 30 -8 37 -2
37 31 4 21 -21 25 -32 20 -55 -6 -26 -4 -29 17 -29 13 0 29 -5 35 -11 6 -6 40
-12 75 -13 l63 -1 20 -57 c16 -47 24 -58 46 -63 15 -4 33 -12 39 -19 8 -11 2
-13 -36 -8 -34 3 -45 2 -40 -7 4 -6 17 -11 29 -12 18 0 16 -3 -11 -15 -54 -24
-26 -35 31 -13 29 11 56 25 62 30 15 15 -6 41 -48 62 -29 15 -37 24 -37 46 0
33 -33 79 -66 91 -13 5 -24 17 -24 27 0 38 -22 94 -48 122 -68 73 -157 96
-262 67z m180 -96 c0 -5 -5 -10 -11 -10 -5 0 -7 -4 -4 -10 3 -5 2 -10 -4 -10
-6 0 -15 9 -21 20 -9 18 -8 20 15 20 14 0 25 -4 25 -10z m70 -11 c0 -6 -4 -7
-10 -4 -5 3 -10 11 -10 16 0 6 5 7 10 4 6 -3 10 -11 10 -16z m-393 -21 c-3 -8
-6 -5 -6 6 -1 11 2 17 5 13 3 -3 4 -12 1 -19z m353 -19 c10 -18 9 -20 -7 -17
-10 2 -19 11 -21 21 -5 24 15 21 28 -4z m50 -73 c0 -3 -4 -8 -10 -11 -5 -3
-10 -1 -10 4 0 6 5 11 10 11 6 0 10 -2 10 -4z"/>
<path d="M8589 4800 c-10 -7 -8 -11 11 -19 33 -13 66 -42 73 -63 9 -25 27 -23
27 3 0 20 -47 68 -80 81 -9 3 -23 2 -31 -2z"/>
<path d="M8714 4697 c-37 -21 -74 -55 -74 -66 0 -19 13 -12 63 34 48 44 52 56
11 32z"/>
<path d="M8561 4568 c-53 -54 -63 -85 -35 -109 14 -11 15 -9 9 22 -6 31 -3 37
20 49 29 15 75 65 75 81 0 19 -19 7 -69 -43z"/>
<path d="M8814 4610 c-24 -10 -40 -40 -21 -40 7 0 19 6 26 13 10 10 11 7 6
-15 -5 -21 -3 -27 14 -33 32 -10 64 12 58 41 -2 13 0 24 5 24 5 0 6 5 3 10 -7
12 -62 12 -91 0z"/>
<path d="M8630 4540 c0 -5 5 -10 11 -10 5 0 7 5 4 10 -3 6 -8 10 -11 10 -2 0
-4 -4 -4 -10z"/>
<path d="M8883 4513 c-33 -23 -28 -36 7 -18 17 9 30 20 30 25 0 14 -11 12 -37
-7z"/>
<path d="M8590 4506 c0 -8 5 -18 10 -21 6 -3 10 1 10 9 0 8 -4 18 -10 21 -5 3
-10 -1 -10 -9z"/>
<path d="M8765 4510 c3 -5 8 -10 11 -10 2 0 4 5 4 10 0 6 -5 10 -11 10 -5 0
-7 -4 -4 -10z"/>
<path d="M8443 4484 c-34 -14 -44 -34 -19 -34 7 0 19 -7 26 -15 7 -8 21 -15
31 -15 16 0 17 4 8 27 -5 14 -8 32 -5 40 6 16 0 15 -41 -3z"/>
<path d="M8800 4490 c0 -5 7 -10 15 -10 8 0 15 5 15 10 0 6 -7 10 -15 10 -8 0
-15 -4 -15 -10z"/>
<path d="M8925 4444 c-21 -14 -71 -59 -110 -100 -40 -42 -86 -83 -103 -92 -17
-9 -51 -36 -76 -58 -39 -36 -45 -39 -49 -23 -6 23 -27 25 -27 4 0 -8 5 -15 10
-15 14 0 12 -13 -5 -36 -14 -19 -15 -18 -35 6 -18 23 -20 24 -20 5 0 -12 6
-27 13 -34 10 -10 7 -16 -12 -32 -13 -10 -32 -19 -42 -19 -10 0 -19 -5 -19
-12 0 -9 -3 -9 -12 0 -16 16 -28 15 -28 -2 0 -22 52 -36 75 -20 10 8 27 14 37
14 10 0 18 6 18 13 0 14 137 157 151 157 5 0 56 45 112 101 56 56 120 116 142
135 47 40 34 45 -20 8z"/>
<path d="M8620 4445 c7 -8 16 -12 21 -9 13 8 1 24 -18 24 -13 0 -13 -3 -3 -15z"/>
<path d="M8355 4433 c4 -10 10 -31 13 -48 2 -16 11 -38 19 -47 8 -9 12 -21 9
-27 -17 -27 59 -101 105 -101 25 0 25 17 -1 25 -11 3 -20 10 -20 15 0 5 -10
10 -22 12 -18 2 -24 11 -26 35 -2 20 -11 37 -23 43 -20 11 -26 45 -9 55 6 4 3
16 -7 30 -21 29 -49 34 -38 8z"/>
<path d="M8537 4403 c-13 -13 -7 -32 14 -43 27 -15 31 -9 16 23 -12 28 -19 32
-30 20z"/>
<path d="M8695 4400 c3 -5 13 -10 21 -10 8 0 12 5 9 10 -3 6 -13 10 -21 10 -8
0 -12 -4 -9 -10z"/>
<path d="M8232 4383 c-6 -10 -16 -10 -46 -1 -93 29 -386 -61 -539 -165 -31
-21 -63 -47 -70 -58 -8 -10 -65 -72 -128 -137 -112 -116 -167 -182 -152 -182
9 0 75 65 129 128 20 23 42 42 49 42 7 0 20 12 30 26 9 14 19 23 22 20 4 -3
15 2 25 11 14 12 21 14 26 6 4 -7 17 -16 29 -20 20 -8 18 -12 -33 -68 -30 -33
-51 -52 -48 -42 3 9 1 17 -4 17 -6 0 10 20 36 45 l47 45 -35 -10 c-19 -6 -36
-10 -37 -10 -1 0 -23 -21 -49 -47 -36 -37 -43 -49 -30 -51 9 -2 25 2 34 9 9 7
-8 -13 -38 -44 -59 -62 -71 -70 -46 -32 9 13 16 32 16 41 0 16 -1 16 -18 1
-10 -10 -21 -17 -23 -17 -3 0 -29 -23 -58 -51 -62 -59 -76 -59 -137 7 -22 24
-46 44 -51 44 -6 0 -13 9 -16 19 -3 14 -11 18 -26 14 -12 -3 -29 1 -39 9 -9 9
-30 19 -47 22 -16 4 -32 11 -35 16 -3 5 -26 18 -50 29 -33 14 -39 20 -22 20
12 1 39 -8 59 -19 21 -11 46 -20 55 -20 10 0 18 -4 18 -10 0 -5 7 -10 15 -10
30 0 14 16 -47 47 -51 25 -81 32 -158 38 -144 12 -279 11 -340 -2 -30 -6 -77
-14 -105 -17 -27 -3 -79 -17 -115 -31 -36 -15 -84 -33 -108 -41 -52 -18 -248
-112 -322 -154 -30 -18 -85 -53 -121 -80 -37 -27 -75 -53 -85 -58 -11 -6 -46
-39 -80 -74 -33 -35 -87 -90 -118 -123 -32 -33 -78 -86 -103 -117 -25 -31 -51
-59 -59 -62 -8 -3 -14 -12 -14 -21 0 -8 -4 -15 -9 -15 -5 0 -12 -8 -15 -17 -4
-10 -27 -40 -52 -68 -25 -27 -62 -70 -82 -94 -20 -23 -56 -65 -79 -92 -24 -27
-43 -53 -43 -57 0 -4 -17 -26 -38 -48 -20 -23 -67 -77 -103 -120 -37 -43 -79
-94 -95 -113 -16 -19 -53 -58 -83 -87 -51 -49 -59 -74 -25 -74 18 0 91 49 118
79 29 32 14 25 -30 -14 -21 -19 -47 -35 -58 -35 -13 0 5 24 62 83 101 104 202
222 202 236 0 6 4 11 9 11 5 0 28 26 52 57 24 32 54 69 66 82 12 14 41 47 64
75 54 64 96 99 109 91 6 -4 -11 -32 -42 -66 -29 -33 -74 -89 -99 -123 -25 -35
-58 -76 -75 -91 -16 -15 -21 -22 -11 -15 25 18 21 3 -8 -32 -14 -17 -23 -33
-20 -36 6 -6 19 9 72 88 60 89 74 102 91 87 13 -10 15 -8 10 14 -3 19 4 35 30
65 19 21 31 34 28 27 -4 -6 -2 -14 4 -18 19 -12 10 -43 -21 -69 -17 -14 -27
-26 -23 -26 4 0 -18 -27 -49 -59 -32 -33 -57 -63 -57 -68 1 -4 47 41 103 100
100 106 102 108 119 87 10 -11 25 -20 33 -20 27 0 16 -19 -23 -39 -21 -11 -57
-35 -79 -53 -23 -18 -58 -46 -78 -62 -26 -20 -33 -31 -25 -36 9 -6 6 -11 -11
-20 -13 -7 -43 -30 -66 -51 -22 -21 -59 -47 -82 -58 -23 -12 -41 -24 -41 -26
0 -11 87 39 135 77 28 22 71 54 98 71 26 18 91 62 145 98 174 117 296 196 357
229 33 19 71 42 84 52 32 25 41 23 41 -10 0 -24 -10 -32 -82 -71 -197 -104
-254 -136 -263 -147 -17 -21 -105 -81 -194 -131 -46 -27 -102 -64 -125 -84
-22 -20 -74 -57 -115 -83 -86 -56 -91 -74 -5 -21 33 20 84 51 114 70 30 18 68
43 83 56 18 13 32 18 38 12 12 -12 -25 -39 -130 -93 -46 -24 -86 -52 -90 -61
-8 -22 -123 -109 -134 -102 -5 3 0 14 10 25 10 12 -6 4 -34 -16 -29 -21 -55
-42 -59 -47 -3 -5 -14 -9 -25 -9 -10 0 -19 -4 -19 -10 0 -20 31 -9 69 25 44
40 51 43 44 16 -3 -11 2 -21 11 -24 9 -4 16 -2 16 3 0 5 21 21 48 34 26 13 55
34 64 45 10 12 23 21 30 21 7 -1 1 -11 -14 -23 -27 -22 -35 -37 -20 -37 4 0
30 20 57 45 28 25 53 45 58 45 4 0 26 17 50 38 23 20 51 42 62 48 11 6 40 22
65 36 25 13 79 35 120 47 41 13 111 42 155 66 99 53 259 135 345 175 36 17 93
46 127 64 35 19 73 36 85 39 39 9 100 34 107 43 3 5 13 10 21 11 45 5 188 49
370 111 166 58 312 100 386 112 28 4 60 12 70 18 11 5 36 13 58 16 26 5 40 14
43 27 3 11 14 19 27 20 11 0 31 2 44 5 12 2 22 -1 22 -6 0 -6 9 -10 20 -10 11
0 20 5 20 10 0 18 36 10 80 -18 2 -2 -2 -7 -10 -12 -8 -5 -11 -12 -7 -16 4 -4
21 2 37 14 37 27 60 29 36 3 -27 -29 -2 -35 31 -7 33 29 29 36 -23 38 -21 1
-45 8 -53 16 -12 11 -36 13 -120 9 -74 -4 -92 -3 -58 3 27 5 58 17 68 26 14
13 39 19 84 20 36 2 74 6 86 9 12 4 25 3 31 -3 10 -10 26 -7 133 23 33 10 76
21 95 26 43 10 127 46 132 57 4 9 227 83 251 82 10 0 37 13 60 28 23 15 55 34
71 42 16 8 53 44 83 79 59 72 67 110 34 152 -31 40 -51 86 -51 118 0 44 -16
46 -23 3 -5 -30 -1 -47 28 -95 19 -32 35 -69 35 -82 0 -43 -122 -167 -214
-217 -14 -8 -17 -7 -10 4 16 26 13 39 -8 32 -12 -4 -18 -2 -14 4 3 5 15 12 26
15 11 3 18 1 14 -4 -13 -21 18 -6 77 38 35 25 58 48 51 51 -8 2 -2 15 18 38
16 19 30 39 30 44 0 12 -20 14 -20 3 -1 -30 -143 -147 -221 -183 -32 -15 -36
-19 -16 -15 20 4 27 2 22 -6 -5 -8 0 -9 16 -4 19 5 21 4 9 -5 -36 -27 -112
-60 -122 -54 -7 4 -5 10 6 16 21 12 20 28 -2 28 -19 0 -42 18 -42 32 0 4 12 8
26 8 14 0 49 11 76 25 72 36 238 167 238 187 0 13 -23 -2 -72 -48 -77 -72
-178 -136 -205 -129 -13 3 -36 -1 -53 -10 -43 -22 -53 -19 -46 11 6 23 4 25
-11 19 -45 -18 -52 -18 -46 5 6 23 0 23 -55 3 -7 -3 -10 0 -7 10 10 23 -35 29
-87 10 -34 -12 -48 -22 -48 -35 0 -16 5 -18 38 -12 20 4 45 11 56 16 13 7 16
7 12 -1 -4 -6 4 -13 19 -17 59 -15 8 -40 -62 -29 -27 4 -49 2 -57 -5 -10 -8
-15 -7 -20 5 -8 21 -19 19 -86 -14 -32 -16 -64 -29 -72 -28 -23 2 -138 -35
-138 -45 0 -5 8 -7 19 -3 15 4 18 1 14 -18 -7 -37 -180 -143 -201 -123 -5 5
81 56 95 56 13 0 38 29 31 35 -7 7 -88 -27 -88 -36 0 -12 -75 -50 -137 -70
-59 -19 -67 -17 -25 5 19 11 22 15 10 16 -31 0 -22 38 11 45 16 3 37 17 45 30
9 13 33 29 54 34 32 9 83 36 170 92 12 7 20 20 17 26 -2 7 -1 14 3 14 4 1 20
3 36 5 18 2 46 20 73 46 31 30 43 37 43 25 0 -19 26 -22 50 -7 12 8 12 10 1
10 -11 0 -11 3 -1 15 7 8 16 15 21 15 5 0 6 -7 3 -15 -9 -21 10 -19 31 5 10
11 24 20 32 20 15 0 17 16 3 25 -19 12 -10 23 58 76 37 30 71 59 75 66 4 7 27
22 50 34 l42 20 -25 -21 c-61 -50 -70 -59 -70 -69 0 -19 19 -12 57 23 21 19
57 44 81 56 23 12 42 26 42 30 0 4 11 11 25 14 26 7 35 26 13 26 -7 1 -3 6 9
13 12 7 21 17 21 22 -1 6 6 12 16 13 15 3 16 -2 10 -32 -8 -44 0 -45 66 -6 28
16 62 33 75 36 14 3 25 12 25 18 0 7 12 18 26 25 21 9 24 14 14 26 -10 12 -9
16 4 21 9 3 16 12 16 19 0 17 -39 15 -48 -2z m-7 -33 c-3 -5 -11 -10 -16 -10
-6 0 -7 5 -4 10 3 6 11 10 16 10 6 0 7 -4 4 -10z m-142 -18 c-6 -4 -12 -11
-12 -17 -1 -5 -6 -12 -12 -14 -7 -2 -9 1 -5 8 4 6 1 11 -6 11 -9 0 -9 3 2 10
8 5 22 10 30 10 10 0 11 -3 3 -8z m-63 -32 c-6 -11 -15 -20 -20 -20 -14 0 -12
27 3 33 23 10 28 7 17 -13z m-315 -165 c-62 -52 -88 -65 -42 -21 27 25 54 46
60 46 7 0 -1 -11 -18 -25z m90 17 c-22 -19 -85 -53 -85 -45 1 11 61 51 80 52
8 1 10 -2 5 -7z m-146 -5 c-2 -1 -15 -11 -29 -22 l-25 -20 19 23 c11 12 24 22
29 22 6 0 8 -1 6 -3z m8 -118 c-26 -22 -47 -49 -47 -60 0 -10 -4 -19 -10 -19
-5 0 -10 8 -10 17 0 18 98 118 107 109 4 -3 -15 -24 -40 -47z m-1037 -19 c11
-7 -3 -10 -47 -10 -34 0 -70 -3 -80 -6 -13 -5 -15 -4 -8 4 6 6 30 12 55 15 25
2 50 4 55 5 6 1 17 -3 25 -8z m70 -6 c0 -2 -7 -4 -15 -4 -8 0 -15 4 -15 10 0
5 7 7 15 4 8 -4 15 -8 15 -10z m148 -6 c39 -13 72 -27 72 -31 0 -5 -8 -6 -17
-2 -24 10 -87 24 -141 32 -23 3 -45 10 -48 14 -10 16 61 9 134 -13z m-401 -14
c-8 -8 -134 -53 -167 -60 -43 -9 -15 6 66 35 78 28 113 37 101 25z m172 -25
c-10 -10 -25 -19 -33 -19 -8 0 -18 -4 -21 -10 -8 -12 -45 -13 -45 -1 0 4 19
13 43 19 l42 11 -45 -6 c-69 -8 -203 -44 -215 -58 -5 -6 -53 -28 -105 -49 -52
-21 -107 -44 -122 -52 -36 -19 -47 -18 -41 6 3 12 24 27 59 40 30 11 58 20 62
20 5 0 26 9 48 19 21 10 59 24 84 31 25 7 51 17 57 22 20 16 144 45 200 46 51
1 51 0 32 -19z m149 -5 c7 -2 12 -14 10 -26 -2 -19 -10 -24 -45 -26 -38 -3
-43 -1 -43 18 0 14 -8 24 -21 27 -16 4 -17 8 -7 14 12 8 73 4 106 -7z m-508
-4 c0 -5 -5 -10 -11 -10 -5 0 -7 5 -4 10 3 6 8 10 11 10 2 0 4 -4 4 -10z m643
-17 c42 -14 77 -30 77 -34 0 -12 -32 -16 -60 -8 -50 14 -90 18 -90 9 0 -6 14
-10 30 -10 17 0 47 -7 67 -15 27 -11 39 -12 49 -4 11 9 14 8 14 -5 0 -9 3 -15
8 -15 26 4 42 -3 42 -21 0 -16 -4 -18 -23 -11 -13 5 -58 8 -100 6 -77 -4 -88
0 -65 23 6 6 9 14 6 17 -3 4 -17 -5 -29 -18 -22 -23 -34 -25 -146 -31 -117 -6
-121 -5 -116 14 4 15 14 20 41 20 21 0 44 8 56 19 24 22 86 18 86 -5 0 -8 6
-14 13 -14 17 0 58 75 51 94 -8 21 -1 21 89 -11z m-243 -17 c0 -8 -8 -24 -19
-37 -18 -22 -19 -22 -45 -6 -30 20 -33 32 -8 46 26 15 72 13 72 -3z m-212 -28
c-6 -18 -28 -21 -28 -4 0 9 7 16 16 16 9 0 14 -5 12 -12z m95 -26 c-1 -41 -2
-41 -36 -35 -32 6 -51 40 -34 61 6 7 24 12 41 10 28 -3 31 -6 29 -36z m1682
13 c-16 -14 -34 -25 -39 -25 -6 0 5 11 24 25 43 32 54 32 15 0z m-2105 -6 c0
-9 -33 -29 -49 -29 -18 0 -12 38 7 42 21 5 42 -1 42 -13z m285 -8 c-3 -11 -1
-22 5 -26 20 -12 9 -34 -25 -51 -28 -13 -38 -14 -50 -4 -34 28 -8 83 45 93 14
2 26 5 28 6 2 0 1 -8 -3 -18z m669 13 c9 -3 16 -12 16 -20 0 -17 -1 -17 -37
-3 -22 8 -24 12 -13 19 18 12 15 11 34 4z m646 2 c0 -3 -4 -8 -10 -11 -5 -3
-10 -1 -10 4 0 6 5 11 10 11 6 0 10 -2 10 -4z m-1680 -47 c0 -8 -68 -39 -85
-39 -25 0 -5 30 34 49 33 18 50 14 51 -10z m240 2 c0 -5 -10 -12 -22 -15 -21
-6 -21 -7 -5 -17 9 -5 17 -14 17 -19 0 -18 -46 -58 -84 -74 -43 -18 -56 -15
-36 9 11 13 9 19 -9 39 -21 23 -22 25 -5 34 16 9 20 5 29 -21 6 -18 18 -33 29
-35 15 -3 17 0 11 14 -17 40 -11 59 25 76 39 20 50 22 50 9z m215 -32 c-30
-12 -45 -10 -45 4 0 10 10 12 32 9 28 -4 30 -6 13 -13z m682 4 c3 -7 -10 -15
-31 -19 -20 -3 -39 -10 -42 -16 -3 -5 -11 -5 -18 2 -9 7 -23 7 -45 -1 -39 -14
-51 -5 -28 19 15 14 19 15 26 3 7 -11 10 -11 17 2 14 24 114 32 121 10z
m-1117 -2 c0 -5 -8 -17 -17 -27 -20 -20 -32 -1 -13 21 14 17 30 20 30 6z m661
-11 c-13 -11 -19 -20 -13 -20 5 0 12 -9 15 -19 7 -28 -50 -36 -59 -9 -8 27
-92 22 -108 -7 -19 -34 -31 -36 -36 -7 -5 25 -8 27 -54 24 -59 -3 -76 -15 -77
-56 0 -26 -2 -28 -8 -11 -5 11 -7 23 -4 28 2 4 -11 7 -29 7 -45 0 -81 -26 -74
-54 4 -16 -3 -25 -29 -38 -33 -17 -35 -17 -45 2 -16 30 -42 26 -34 -4 8 -35
-29 -55 -56 -31 -21 19 -16 45 9 46 12 0 11 2 -4 9 -19 8 -19 8 -1 16 10 4 29
8 41 8 13 1 29 7 36 13 20 16 116 53 140 53 11 0 48 9 82 19 34 11 109 25 167
31 58 6 114 13 125 14 11 2 25 4 30 4 6 1 -1 -8 -14 -18z m119 7 c0 -7 -7 -22
-15 -34 -18 -26 -78 -27 -83 0 -3 13 4 17 28 17 18 0 33 6 36 15 7 18 34 20
34 2z m66 -3 c-3 -9 -6 -22 -6 -30 0 -9 -10 -14 -27 -14 -16 0 -23 -4 -17 -9
5 -5 33 -5 64 -1 97 15 105 13 106 -18 1 -15 3 -34 5 -42 3 -10 -5 -16 -23
-18 -32 -4 -37 14 -11 34 30 21 7 27 -46 11 -49 -14 -51 -14 -51 4 0 27 -15
24 -28 -6 -7 -14 -20 -25 -31 -25 -11 0 -26 -3 -35 -6 -24 -9 -20 23 3 36 19
10 43 45 57 83 3 9 15 17 26 17 14 0 18 -5 14 -16z m1034 5 c0 -11 -84 -28
-95 -19 -10 8 -53 -7 -86 -31 -10 -7 -24 -9 -35 -4 -11 4 -30 8 -44 7 -14 -1
-7 3 15 9 22 5 63 16 90 24 81 24 155 30 155 14z m-2017 -13 c3 -8 -4 -21 -16
-28 -38 -25 -55 -28 -61 -11 -7 18 -9 16 29 36 37 20 42 20 48 3z m1067 4 c0
-10 -32 -30 -49 -30 -6 0 -11 6 -11 14 0 13 9 17 53 25 4 0 7 -3 7 -9z m214
-16 c24 -9 19 -22 -14 -39 -38 -19 -67 -20 -51 -2 14 18 2 30 -16 16 -16 -14
-17 -49 0 -49 15 -1 -8 -15 -40 -24 -28 -9 -31 11 -5 30 16 13 16 13 0 14 -11
0 -18 8 -18 20 0 23 10 26 28 8 9 -9 15 -8 24 4 7 9 27 19 43 21 17 2 31 5 32
6 1 0 8 -2 17 -5z m406 -3 c0 -5 8 -12 18 -14 11 -3 7 -5 -10 -6 -27 -1 -43
11 -31 23 9 9 23 7 23 -3z m-1610 -16 c13 -16 6 -35 -14 -35 -8 0 -19 -7 -27
-16 -11 -14 -13 -14 -21 0 -12 21 -39 21 -32 1 4 -8 0 -25 -9 -38 -15 -23 -76
-52 -78 -36 -5 27 -3 34 11 34 8 0 14 7 12 16 -1 9 15 25 40 40 24 13 52 29
63 35 28 17 41 16 55 -1z m1800 -18 l-34 -32 29 -6 c27 -6 25 -7 -12 -8 -24 0
-43 3 -43 8 0 9 77 68 90 70 3 1 -11 -14 -30 -32z m-1710 14 c0 -5 10 -12 23
-15 l22 -6 -24 -20 c-13 -11 -20 -20 -15 -20 4 0 -2 -10 -13 -22 -13 -15 -19
-35 -18 -56 2 -27 -1 -33 -24 -39 -14 -4 -31 -6 -38 -5 -6 1 -14 -2 -18 -8 -4
-6 1 -7 11 -3 14 5 16 3 10 -13 -5 -10 -11 -27 -13 -36 -3 -11 -20 -20 -42
-24 -20 -4 -44 -11 -53 -15 -10 -6 -18 -5 -20 2 -2 7 -41 -12 -92 -45 -68 -44
-91 -54 -97 -44 -5 7 -9 16 -9 21 0 4 -5 7 -11 7 -7 0 -9 -11 -6 -29 6 -29
-15 -61 -41 -61 -18 0 -26 48 -12 66 10 11 10 18 2 26 -7 7 -12 20 -12 30 0
27 -16 22 -41 -13 -14 -20 -25 -27 -31 -21 -6 6 -7 16 -2 24 5 7 9 18 9 23 0
10 68 75 134 129 l35 28 8 -22 c5 -13 7 -24 6 -24 -42 -25 -58 -40 -58 -56 0
-10 -12 -31 -27 -46 -22 -20 -23 -25 -8 -18 11 4 38 9 60 10 60 4 62 5 38 14
-29 12 -29 36 -1 51 13 7 29 18 36 26 7 7 19 13 25 13 8 0 7 -3 -2 -9 -7 -5
-10 -14 -6 -21 4 -6 -1 -20 -10 -30 -10 -11 -12 -20 -6 -24 5 -4 21 6 34 20
15 16 31 24 40 21 24 -9 28 4 11 31 -15 23 -15 26 4 51 25 34 46 37 64 9 20
-31 6 -77 -17 -58 -12 10 -15 10 -15 -3 0 -43 47 -21 76 35 8 16 21 28 29 28
8 0 31 14 51 32 32 28 34 33 20 44 -20 14 -20 33 1 56 17 19 33 24 33 9z m548
-18 c2 -9 -8 -13 -33 -13 -33 0 -36 2 -25 15 15 18 51 16 58 -2z m-150 -15
c-2 -16 -12 -24 -36 -29 -37 -8 -43 -3 -31 29 6 16 16 22 39 22 27 0 31 -3 28
-22z m1482 13 c0 -15 -32 -24 -90 -27 l-55 -3 65 19 c79 22 80 22 80 11z
m-2160 -16 c-7 -8 -17 -15 -22 -15 -6 0 -5 7 2 15 7 8 17 15 22 15 6 0 5 -7
-2 -15z m1732 -15 c-16 -10 -38 -30 -50 -44 -14 -19 -23 -23 -28 -15 -4 8 1
18 14 27 11 7 33 25 47 38 15 13 31 22 37 18 5 -3 -3 -14 -20 -24z m-771 -7
c-5 -21 -14 -28 -38 -30 -27 -3 -31 -1 -26 17 8 30 -14 24 -29 -7 -16 -33 -45
-38 -40 -8 2 11 5 22 7 23 9 9 83 31 107 32 24 0 26 -3 19 -27z m-1019 -21
c-136 -99 -171 -125 -192 -144 -46 -42 -60 -51 -60 -39 0 36 246 233 262 209
5 -8 1 -18 -10 -26z m1898 34 c0 -3 -4 -8 -10 -11 -5 -3 -10 -1 -10 4 0 6 5
11 10 11 6 0 10 -2 10 -4z m-1304 -17 c7 -12 -12 -29 -33 -29 -7 0 -13 9 -13
20 0 22 34 28 46 9z m-341 -13 c23 -16 14 -46 -15 -46 -11 0 -23 0 -27 -1 -5
0 -12 7 -18 16 -8 12 -5 20 9 31 24 17 28 17 51 0z m600 6 c6 -4 10 -21 10
-39 0 -18 -4 -36 -10 -41 -12 -12 -95 -21 -89 -10 3 5 13 8 22 8 9 1 31 7 47
15 l30 13 -37 -5 c-31 -5 -38 -2 -38 11 0 19 -42 38 -65 30 -22 -9 -18 -21 7
-20 36 2 34 -30 -3 -43 -41 -14 -42 -14 -35 5 3 8 2 12 -3 9 -5 -3 -12 -2 -15
3 -15 25 65 72 124 72 25 0 50 -4 55 -8z m352 -21 c10 -29 10 -29 -33 -40 -55
-14 -59 -14 -44 4 6 8 9 23 5 34 -6 19 2 23 50 30 6 0 16 -12 22 -28z m872 6
c-19 -15 -90 -34 -95 -26 -9 15 2 22 49 29 39 6 56 4 46 -3z m-2026 -45 c13
-27 -2 -42 -40 -42 -27 0 -30 21 -7 44 8 9 12 16 8 16 -3 0 0 7 7 16 10 13 14
13 17 3 2 -8 9 -24 15 -37z m1637 22 c0 -15 -4 -23 -11 -19 -6 4 -8 13 -5 21
4 11 -2 11 -32 -2 -62 -27 -79 -27 -37 -1 55 34 85 35 85 1z m240 16 c0 -5 -9
-10 -21 -10 -11 0 -17 5 -14 10 3 6 13 10 21 10 8 0 14 -4 14 -10z m-1282 -12
c-3 -7 -14 -14 -26 -16 -33 -5 -47 -28 -34 -57 10 -22 9 -26 -19 -40 -37 -20
-78 -16 -93 8 -9 15 -7 21 8 33 31 23 49 18 42 -11 -8 -33 12 -33 24 1 13 33
6 44 -28 44 -25 0 -25 1 -6 14 10 8 29 12 41 9 12 -2 32 2 45 11 27 19 51 21
46 4z m460 -5 c-4 -24 -66 -59 -80 -45 -17 17 1 50 30 55 51 8 53 7 50 -10z
m862 7 c0 -5 -7 -10 -16 -10 -8 0 -12 5 -9 10 3 6 10 10 16 10 5 0 9 -4 9 -10z
m-975 -19 c-3 -10 0 -25 8 -32 20 -21 28 -47 16 -55 -6 -3 -8 -17 -5 -30 5
-19 2 -24 -14 -24 -13 0 -20 7 -20 20 0 11 -7 20 -15 20 -9 0 -15 -9 -15 -24
0 -14 -7 -26 -17 -30 -10 -3 -24 -9 -30 -12 -8 -4 -13 2 -13 15 0 12 6 21 15
21 8 0 15 5 15 11 0 13 -40 2 -59 -17 -11 -10 -12 -16 -3 -27 14 -16 2 -30
-35 -41 -23 -7 -32 7 -13 19 17 10 11 35 -8 35 -14 0 -17 -8 -17 -34 1 -27 -3
-36 -19 -40 -33 -9 -43 11 -24 44 14 24 14 30 3 30 -27 0 -47 -32 -42 -66 4
-23 1 -34 -10 -38 -27 -11 -33 -6 -27 19 5 21 1 26 -22 35 -16 6 -36 9 -46 7
-10 -3 -18 -1 -18 4 0 5 12 11 28 15 15 3 44 12 65 20 20 8 50 14 65 14 15 0
54 9 87 20 33 11 89 29 125 40 36 11 54 18 42 16 -21 -4 -23 -2 -18 21 5 19 3
26 -14 30 -35 9 -22 33 17 33 19 0 23 -4 18 -19z m878 12 c-7 -2 -21 -2 -30 0
-10 3 -4 5 12 5 17 0 24 -2 18 -5z m-607 -39 c2 -19 -5 -28 -23 -35 -31 -12
-40 -5 -23 17 11 13 11 17 0 24 -10 6 -7 9 11 13 13 2 26 5 29 6 3 0 6 -11 6
-25z m627 19 c-7 -2 -21 -2 -30 0 -10 3 -4 5 12 5 17 0 24 -2 18 -5z m-1239
-19 c21 -21 20 -31 -5 -39 -26 -8 -54 16 -46 39 8 20 31 20 51 0z m287 -3 l24
-20 -35 -14 c-19 -9 -38 -13 -42 -11 -12 8 -9 39 4 52 16 16 22 15 49 -7z
m819 4 c0 -9 -10 -15 -22 -16 -46 -2 -94 -8 -146 -17 -32 -5 -50 -6 -44 0 5 5
37 13 72 18 35 5 67 13 71 17 15 15 69 13 69 -2z m-572 -14 c-10 -17 -9 -23 6
-40 19 -21 19 -21 -12 -21 -27 0 -32 4 -32 25 0 16 -6 25 -15 25 -9 0 -15 -9
-15 -23 0 -23 -50 -54 -69 -43 -15 9 11 66 30 66 9 0 32 7 50 15 19 8 42 14
52 15 15 0 15 -3 5 -19z m-725 -10 c-28 -24 -28 -29 -1 -58 15 -16 17 -23 7
-23 -8 0 -43 -14 -77 -30 -70 -33 -76 -35 -67 -20 3 6 1 10 -5 10 -6 0 -9 4
-5 10 3 5 -3 18 -14 29 -28 28 -17 61 20 61 31 0 40 -25 17 -48 -17 -17 -2
-27 17 -12 9 8 23 26 31 41 14 28 56 56 84 58 10 0 8 -5 -7 -18z m1067 -6 c0
-10 -10 -15 -26 -15 -22 0 -25 2 -14 15 7 8 19 15 26 15 8 0 14 -7 14 -15z
m-795 -12 c-4 -10 -10 -27 -12 -39 -3 -14 -17 -24 -46 -31 -48 -13 -61 -8 -33
13 11 7 16 17 12 21 -10 11 -39 -10 -54 -39 -6 -14 -24 -29 -38 -32 -32 -8
-57 10 -30 20 13 5 15 9 5 15 -23 14 -51 -10 -45 -37 12 -48 -34 -40 -55 10
-4 8 61 36 206 87 95 33 99 34 90 12z m91 -5 c9 -14 -6 -25 -44 -33 -32 -7
-34 -6 -27 16 4 13 12 27 17 30 13 8 46 0 54 -13z m634 1 c0 -16 -5 -20 -19
-16 -10 2 -26 0 -36 -6 -23 -12 -103 -18 -110 -7 -8 13 32 22 63 16 17 -4 39
1 62 13 19 11 36 20 38 20 1 1 2 -9 2 -20z m-195 -9 c-3 -5 -14 -10 -23 -9
-14 0 -13 2 3 9 27 11 27 11 20 0z m-1285 -9 c0 -11 -31 -24 -39 -16 -3 3 1
10 9 15 19 12 30 12 30 1z m1525 -21 c-84 -16 -115 -18 -115 -10 0 11 38 17
105 17 l50 1 -40 -8z m-180 -10 c4 -6 -9 -10 -32 -9 -38 1 -38 1 -8 9 17 4 31
8 32 9 1 0 5 -3 8 -9z m-1041 -35 c11 -8 16 -15 12 -15 -5 0 -3 -6 3 -14 13
-15 -4 -26 -40 -26 -16 0 -17 4 -9 26 6 14 8 30 4 35 -8 14 9 10 30 -6z m916
4 c-11 -8 -6 -9 20 -4 28 5 31 4 18 -5 -11 -7 -33 -8 -55 -4 -31 6 -34 8 -18
15 11 4 27 8 35 8 13 1 13 0 0 -10z m185 1 c-3 -5 -16 -10 -28 -10 -18 0 -19
2 -7 10 20 13 43 13 35 0z m-1165 -37 c0 -55 -64 -87 -76 -38 -8 32 19 65 53
65 18 0 23 -5 23 -27z m900 17 c0 -8 -24 -20 -41 -20 -4 0 -6 6 -3 13 5 14 44
21 44 7z m-695 -21 c9 -29 -19 -59 -37 -40 -11 10 -10 15 3 24 9 7 14 18 12
25 -3 6 0 12 5 12 6 0 14 -10 17 -21z m585 -9 c-22 -31 -40 -39 -40 -17 0 6
-9 1 -20 -13 -21 -27 -35 -23 -26 8 4 11 23 27 44 36 57 23 66 20 42 -14z
m370 21 c0 -13 -96 -34 -128 -28 -15 3 -35 1 -44 -4 -12 -6 -18 -6 -18 0 0 15
85 35 163 40 15 0 27 -3 27 -8z m-1619 -57 c6 -7 4 -16 -6 -24 -13 -11 -18
-10 -30 6 -14 18 -15 17 -9 -8 5 -25 3 -28 -20 -28 -34 0 -68 -37 -56 -61 8
-14 4 -22 -16 -38 -29 -23 -42 -25 -64 -11 -17 10 -9 20 115 147 61 63 70 70
73 50 2 -12 8 -27 13 -33z m352 33 c-3 -14 3 -29 16 -41 16 -15 18 -21 8 -37
-6 -10 -17 -19 -24 -19 -21 0 -15 -38 9 -51 l21 -11 -24 -13 c-13 -7 -27 -11
-31 -9 -4 3 -18 -2 -32 -11 -30 -20 -45 -2 -15 19 12 8 18 19 15 24 -3 5 1 15
9 22 23 19 19 77 -5 90 -23 12 -27 1 -9 -31 14 -27 -6 -51 -40 -47 -55 6 -24
66 60 117 43 26 47 26 42 -2z m237 -11 c0 -8 3 -21 6 -30 6 -15 -3 -21 -118
-70 -36 -15 -38 -15 -39 2 0 14 -3 13 -16 -5 -17 -26 -53 -31 -53 -8 0 8 7 15
16 15 9 0 14 6 11 13 -5 15 50 47 133 78 57 22 60 22 60 5z m220 8 c0 -4 -12
-17 -26 -31 -21 -19 -32 -22 -59 -17 -29 5 -38 2 -61 -22 -15 -16 -24 -24 -21
-17 4 6 0 13 -10 16 -12 2 2 13 42 32 83 39 135 54 135 39z m550 -10 c-51 -23
-90 -34 -90 -25 0 8 83 37 110 39 8 1 -1 -6 -20 -14z m-477 -9 c7 -15 -36 -55
-59 -55 -22 0 -16 28 7 35 12 4 18 12 15 21 -3 9 1 14 13 14 10 0 21 -7 24
-15z m-822 -39 c-6 -14 -17 -26 -24 -26 -8 0 -22 -9 -32 -20 -16 -18 -17 -23
-5 -45 12 -22 11 -28 -3 -43 -17 -16 -18 -16 -23 5 -5 18 -10 20 -23 13 -10
-5 -23 -5 -31 0 -10 6 -2 21 34 62 40 44 103 90 114 83 1 -1 -2 -14 -7 -29z
m1049 -1 c-6 -7 -27 -16 -48 -19 -66 -12 -247 -58 -262 -68 -11 -7 -8 -8 10
-3 41 9 86 16 70 9 -59 -22 -96 -40 -105 -50 -5 -6 -39 -22 -75 -34 -86 -31
-201 -85 -231 -108 -13 -10 -40 -24 -59 -31 -19 -6 -66 -30 -105 -53 -94 -57
-175 -98 -175 -89 0 3 47 33 105 65 58 32 108 63 112 69 4 6 0 8 -8 5 -51 -19
-57 -19 -52 1 8 32 -24 39 -50 10 -12 -13 -15 -18 -7 -11 17 14 30 16 30 2 0
-19 -39 -32 -54 -18 -12 11 -10 17 17 40 18 16 37 28 42 28 6 0 16 5 22 11 13
13 122 59 139 59 12 0 29 -28 26 -42 -1 -4 6 -5 16 -2 14 5 14 3 -2 -10 -17
-14 -21 -14 -36 -1 -21 19 -44 20 -37 1 6 -16 -39 -40 -48 -26 -4 6 1 10 9 10
9 0 16 5 16 10 0 17 -50 11 -57 -7 -9 -22 30 -53 59 -45 12 3 49 21 83 40 33
19 73 41 88 50 16 8 26 16 23 19 -2 2 -13 0 -24 -6 -12 -6 -33 -11 -47 -11
-20 0 -26 4 -23 18 3 13 13 17 47 17 23 0 45 -4 48 -8 6 -9 41 0 68 20 18 12
17 13 -12 7 -39 -8 -44 8 -8 24 34 16 45 15 45 -2 0 -13 7 -13 48 1 26 9 52
20 57 26 7 7 4 8 -8 3 -11 -3 -31 -9 -45 -12 -26 -5 -26 -5 -8 10 11 9 36 18
55 21 20 4 44 10 54 16 49 27 146 55 180 53 24 -2 53 4 75 16 37 20 61 17 42
-5z m-322 -26 c2 -10 -12 -19 -40 -26 -24 -6 -51 -15 -60 -18 -12 -5 -18 -2
-18 8 0 18 26 29 51 22 13 -4 19 -1 19 8 0 28 43 33 48 6z m-188 -9 c0 -21
-16 -26 -39 -11 -11 7 -10 11 5 20 27 15 34 14 34 -9z m-346 -32 l28 -3 -32
-24 c-18 -13 -54 -29 -81 -36 -40 -11 -50 -11 -60 1 -15 18 -39 18 -39 -1 0
-13 14 -19 63 -27 16 -3 14 -6 -11 -25 -16 -12 -43 -23 -58 -25 -27 -3 -29 0
-30 32 -2 37 1 40 114 122 36 26 37 26 57 8 11 -10 33 -20 49 -22z m-310 24
c-6 -4 -13 -15 -17 -24 -7 -21 -27 -24 -27 -5 0 18 21 37 40 37 9 0 11 -3 4
-8z m145 -6 c9 -11 5 -18 -21 -34 -37 -24 -48 -21 -48 13 0 34 47 48 69 21z
m455 -5 c7 -11 -13 -28 -38 -33 -28 -5 -30 17 -4 30 29 14 36 14 42 3z m106
-20 c0 -5 -7 -12 -16 -15 -24 -9 -28 -7 -14 9 14 17 30 20 30 6z m-202 -23
c-3 -7 -21 -22 -42 -32 -22 -12 -35 -25 -32 -33 3 -7 1 -13 -4 -13 -6 0 -10 5
-10 10 0 7 -6 7 -18 1 -10 -5 -23 -6 -30 -2 -7 4 15 21 56 44 72 40 86 44 80
25z m128 -33 c-11 -8 -25 -15 -30 -15 -6 0 -2 7 8 15 11 8 25 15 30 15 6 0 2
-7 -8 -15z m-648 -7 c18 -18 14 -34 -13 -52 -23 -15 -26 -15 -31 -1 -7 18 11
65 24 65 4 0 13 -5 20 -12z m322 -8 c20 -20 19 -20 -34 -45 -29 -14 -58 -25
-64 -25 -21 0 -12 19 16 34 15 8 23 15 17 16 -8 0 33 39 43 40 1 0 11 -9 22
-20z m190 6 c0 -2 -7 -6 -15 -10 -8 -3 -15 -1 -15 4 0 6 7 10 15 10 8 0 15 -2
15 -4z m-640 -30 c0 -16 -38 -52 -46 -44 -9 10 26 69 36 63 6 -4 10 -12 10
-19z m74 -31 c7 -5 15 -16 17 -23 3 -9 17 -4 47 17 49 36 62 38 62 10 0 -12 8
-23 20 -26 25 -7 26 -22 3 -29 -10 -3 -30 -12 -45 -20 -28 -15 -42 -7 -32 19
3 8 -2 17 -10 20 -12 5 -16 0 -16 -22 0 -16 7 -31 15 -35 23 -8 18 -20 -16
-40 l-32 -19 7 27 c5 22 3 26 -14 26 -12 0 -35 -7 -53 -16 -31 -15 -30 -14 11
25 39 38 55 60 32 46 -5 -3 -10 3 -10 14 0 34 -18 24 -22 -11 -2 -25 -8 -34
-25 -36 -18 -3 -23 2 -23 17 0 12 6 21 13 22 10 0 10 2 0 6 -7 2 -13 9 -13 15
0 6 7 8 15 4 8 -3 15 -1 15 5 0 6 8 21 18 34 l17 23 3 -21 c2 -12 9 -26 16
-32z m256 -30 c-7 -14 -280 -195 -293 -195 -7 1 10 20 37 43 114 99 279 197
256 152z m-366 -19 c-3 -8 5 -21 18 -30 21 -15 21 -17 5 -33 -16 -16 -17 -16
-17 2 0 18 0 18 -14 -1 -14 -18 -15 -17 -13 16 2 32 12 60 22 60 3 0 2 -6 -1
-14z m407 -87 c10 -19 9 -20 -11 -14 -12 4 -27 1 -36 -6 -8 -6 -18 -8 -22 -4
-4 4 -2 10 4 12 6 2 20 10 30 18 24 18 21 19 35 -6z m-316 1 c-28 -12 -37 -12
-30 0 3 6 16 10 28 9 21 0 21 -1 2 -9z m350 -36 c-33 -26 -55 -36 -55 -25 0
17 31 41 53 41 22 -1 22 -1 2 -16z m-151 -26 c-4 -34 -4 -34 -12 -20 -7 9 -20
6 -57 -13 -55 -30 -45 -9 15 31 45 29 57 30 54 2z m62 5 c-2 -10 -10 -19 -19
-21 -19 -4 -20 -1 -11 22 8 22 33 20 30 -1z m-37 -48 c3 -12 -13 -9 -17 4 -2
7 0 11 6 7 5 -3 10 -8 11 -11z m-280 -11 c-7 -8 -24 -21 -39 -29 -15 -8 -46
-30 -69 -49 -24 -20 -48 -36 -54 -36 -24 1 137 130 162 130 11 0 11 -3 0 -16z
m241 7 c0 -11 -26 -22 -34 -14 -12 12 -5 23 14 23 11 0 20 -4 20 -9z m-52 -50
c-16 -20 -32 -30 -91 -58 -26 -12 -45 -18 -42 -13 3 6 -3 10 -14 10 -12 0 -21
7 -21 15 0 18 56 49 65 35 3 -6 21 -10 40 -10 29 0 34 4 40 30 6 25 9 29 21
19 12 -9 12 -15 2 -28z m-38 21 c0 -12 -23 -32 -37 -32 -19 0 -16 28 5 33 28
8 32 7 32 -1z m-160 -92 c0 -5 -5 -10 -11 -10 -5 0 -7 5 -4 10 3 6 8 10 11 10
2 0 4 -4 4 -10z m40 -15 c0 -2 -18 -14 -40 -25 -45 -23 -55 -14 -12 12 27 16
52 23 52 13z m-190 -150 c0 -2 -15 -12 -32 -20 l-33 -16 24 21 c22 19 41 26
41 15z"/>
<path d="M5894 3505 c-10 -8 -14 -15 -8 -15 6 0 17 7 24 15 16 19 9 19 -16 0z"/>
<path d="M5650 3292 c0 -21 18 -42 37 -42 11 0 10 6 -2 30 -17 33 -35 40 -35
12z"/>
<path d="M8442 4383 c2 -10 11 -19 21 -21 16 -3 17 -1 5 17 -16 25 -31 27 -26
4z"/>
<path d="M8632 4388 c6 -18 28 -21 28 -4 0 9 -7 16 -16 16 -9 0 -14 -5 -12
-12z"/>
<path d="M8300 4352 c0 -22 19 -42 40 -42 12 1 12 2 -2 11 -10 5 -18 19 -18
29 0 11 -4 20 -10 20 -5 0 -10 -8 -10 -18z"/>
<path d="M8720 4340 c0 -5 10 -10 23 -10 18 0 19 2 7 10 -19 13 -30 13 -30 0z"/>
<path d="M8624 4324 c3 -9 6 -18 6 -20 0 -2 7 -4 15 -4 18 0 19 12 3 28 -17
17 -31 15 -24 -4z"/>
<path d="M8495 4311 c-6 -11 35 -42 46 -35 11 7 -13 44 -28 44 -6 0 -14 -4
-18 -9z"/>
<path d="M8306 4293 c-13 -14 -5 -42 15 -48 22 -7 43 5 22 12 -7 3 -13 11 -13
18 0 16 -14 27 -24 18z"/>
<path d="M8573 4258 c2 -26 7 -34 25 -36 12 -2 22 1 22 6 0 5 -10 13 -22 17
-20 6 -21 8 -5 12 21 5 17 27 -5 31 -13 2 -16 -5 -15 -30z"/>
<path d="M8700 4280 c0 -5 5 -10 10 -10 6 0 10 5 10 10 0 6 -4 10 -10 10 -5 0
-10 -4 -10 -10z"/>
<path d="M8326 4223 c-13 -13 -5 -43 16 -57 31 -22 45 -20 25 2 -10 10 -17 26
-17 35 0 18 -14 30 -24 20z"/>
<path d="M2175 4214 c-204 -27 -373 -75 -535 -151 -30 -14 -72 -32 -93 -39
-21 -7 -51 -22 -65 -33 -15 -11 -57 -33 -92 -50 -73 -36 -199 -112 -252 -153
-19 -16 -38 -28 -42 -28 -11 0 -113 -81 -171 -135 -27 -26 -41 -41 -31 -34 17
12 19 12 14 -1 -3 -8 -14 -14 -26 -13 -37 4 -273 -226 -354 -347 -28 -41 -59
-84 -69 -95 -9 -11 -29 -45 -44 -75 -15 -30 -42 -86 -61 -124 -19 -37 -34 -74
-34 -82 0 -8 -4 -22 -8 -32 -5 -9 -23 -60 -40 -112 -21 -67 -27 -99 -20 -107
6 -7 14 -13 18 -13 4 0 40 32 81 71 219 211 224 216 369 320 19 14 62 40 95
58 33 18 65 37 70 41 12 9 269 138 335 168 101 45 285 110 390 138 30 8 64 19
75 24 11 5 34 11 50 13 17 3 48 11 70 17 80 23 271 59 315 60 25 0 61 5 80 10
19 6 67 15 105 20 39 6 100 14 137 20 37 5 114 10 170 11 96 0 208 21 208 39
0 3 13 21 29 39 39 43 46 80 17 91 -12 4 -28 15 -35 24 -11 14 -11 16 3 16 12
0 16 9 16 35 0 25 -4 33 -14 29 -7 -3 -23 7 -35 22 -18 23 -25 26 -44 17 -23
-11 -129 -9 -147 2 -6 3 -10 10 -10 16 0 14 52 11 84 -6 37 -19 36 -20 36 15
0 27 -4 31 -57 45 -84 24 -83 23 -83 40 0 17 12 19 38 7 115 -57 132 -62 132
-42 0 19 -40 50 -64 50 -14 0 -28 5 -31 10 -9 15 52 12 83 -4 16 -8 39 -37 55
-70 16 -31 43 -71 61 -89 18 -17 38 -51 45 -74 14 -51 31 -56 31 -10 1 39 -60
166 -78 164 -7 -1 -22 16 -35 37 -12 21 -38 47 -57 57 -19 10 -44 29 -56 41
-41 46 -64 60 -170 104 -103 43 -115 46 -219 49 -60 2 -123 2 -140 -1z m142
-20 c-3 -3 -12 -4 -19 -1 -8 3 -5 6 6 6 11 1 17 -2 13 -5z m-157 -8 c0 -2 -7
-6 -15 -10 -8 -3 -15 -1 -15 4 0 6 7 10 15 10 8 0 15 -2 15 -4z m95 -46 c3 0
3 5 0 10 -3 6 1 10 10 10 10 0 15 -7 13 -17 -3 -15 -23 -20 -123 -30 -151 -15
-155 -15 -155 -5 0 11 115 32 174 32 32 0 45 4 40 11 -5 8 -1 8 14 0 11 -6 23
-11 27 -11z m180 -16 c17 -9 31 -11 33 -5 3 10 62 -19 62 -31 0 -5 11 -8 25
-8 14 0 28 -7 32 -15 8 -23 -2 -28 -27 -15 -18 9 -28 9 -46 0 -12 -7 -32 -10
-44 -7 -14 3 -20 1 -17 -6 2 -7 15 -11 30 -9 26 3 87 -22 87 -37 0 -4 -40 -7
-90 -7 -49 0 -90 3 -90 7 0 4 7 12 15 19 21 18 19 50 -3 50 -10 0 -23 -5 -29
-11 -7 -7 -43 -7 -120 0 -86 8 -117 7 -149 -3 -61 -21 -124 -30 -124 -17 0 6
-12 11 -26 11 -14 0 -23 4 -19 10 3 6 0 10 -7 10 -31 1 22 19 73 25 39 5 50 4
39 -4 -13 -9 -13 -11 2 -11 9 0 20 5 24 11 5 8 40 10 111 7 57 -3 98 -1 91 3
-10 7 -9 9 5 9 9 0 17 -6 17 -14 0 -16 22 -26 53 -25 l22 0 -22 9 c-21 8 -28
26 -20 48 1 4 13 6 27 4 20 -2 22 0 10 8 -25 17 41 12 75 -6z m-570 -3 c-13
-11 -132 -56 -170 -65 -27 -6 -28 -5 -10 6 21 13 164 66 180 67 6 1 6 -2 0 -8z
m835 -81 c0 -5 -7 -10 -16 -10 -8 0 -12 5 -9 10 3 6 10 10 16 10 5 0 9 -4 9
-10z m-955 -20 c-3 -5 -11 -10 -16 -10 -6 0 -7 5 -4 10 3 6 11 10 16 10 6 0 7
-4 4 -10z m200 1 c19 -8 19 -8 -2 -19 -12 -7 -38 -12 -57 -12 -25 0 -34 -4
-30 -13 6 -17 -73 -73 -122 -86 -21 -6 -49 -8 -63 -6 -23 5 -24 4 -6 -5 18 -9
17 -10 -8 -6 -15 2 -31 -2 -35 -8 -11 -17 -92 -59 -92 -47 0 15 41 41 65 41
13 0 16 3 8 8 -8 5 -9 13 -3 22 5 8 11 14 12 12 4 -4 26 3 118 38 41 16 66 29
56 30 -18 0 -17 2 4 20 12 11 39 22 59 26 20 3 41 7 46 9 16 5 28 4 50 -4z
m185 -8 c-1 -17 -28 -43 -46 -43 -10 0 -37 -7 -59 -15 -58 -21 -72 -19 -50 5
10 11 28 20 39 21 21 0 21 1 1 8 -18 8 -16 10 15 19 42 12 100 15 100 5z m180
-9 c7 -8 24 -14 36 -12 13 2 24 -1 26 -7 4 -13 -59 -19 -75 -8 -13 9 -80 8
-134 -3 -37 -7 -41 1 -16 28 22 24 144 26 163 2z m53 9 c-7 -2 -19 -2 -25 0
-7 3 -2 5 12 5 14 0 19 -2 13 -5z m-411 -52 c-13 -23 -27 -31 -71 -40 -48 -10
-73 -9 -60 3 13 12 124 66 135 66 10 0 9 -7 -4 -29z m-355 -17 c-70 -37 -52
-40 27 -5 36 17 66 26 66 22 0 -5 -15 -14 -32 -21 -18 -6 -49 -19 -70 -27 -20
-8 -41 -12 -47 -9 -6 4 -24 0 -42 -9 -17 -9 -33 -14 -36 -11 -7 6 146 84 167
85 8 0 -7 -11 -33 -25z m973 3 c111 -25 88 -36 -37 -17 -97 14 -163 6 -170
-20 -5 -19 -56 -43 -67 -33 -11 12 -6 53 7 54 6 0 23 2 37 2 14 1 25 6 25 11
0 28 86 30 205 3z m-284 -9 c-9 -12 -16 -32 -16 -45 0 -18 -8 -23 -52 -32
-108 -22 -278 -22 -278 0 0 5 15 16 33 24 l32 14 -40 -5 c-30 -4 -36 -3 -25 5
30 21 150 52 187 48 l38 -3 -31 -14 -30 -13 22 -23 c24 -27 70 -32 100 -10 16
13 17 18 7 35 -17 28 -17 29 15 34 55 8 54 8 38 -15z m-66 -32 c0 -15 -21 -26
-51 -26 -18 0 -26 20 -12 33 12 13 63 7 63 -7z m324 -7 c20 -9 20 -9 -2 -5
-17 3 -22 0 -20 -12 3 -14 -10 -18 -74 -23 -112 -9 -142 -17 -162 -40 -11 -14
-25 -19 -39 -15 -11 3 -26 1 -31 -4 -6 -4 -29 -12 -51 -16 -36 -6 -39 -6 -26
9 7 10 22 17 33 17 14 0 18 5 15 15 -7 16 -2 17 161 36 56 7 102 15 102 19 0
4 -10 6 -22 5 -32 -3 -41 4 -27 22 10 11 25 13 68 8 30 -4 64 -11 75 -16z
m-639 1 c-3 -5 -12 -10 -20 -10 -8 0 -17 -5 -21 -11 -4 -7 0 -9 13 -5 14 5 30
-2 52 -23 l31 -29 -31 -7 c-22 -5 -34 -3 -40 6 -6 11 -12 10 -27 -4 -27 -24
-82 -40 -82 -23 0 13 21 26 75 48 28 11 29 12 7 16 -13 2 -42 -8 -67 -22 -40
-24 -43 -29 -35 -51 5 -14 6 -27 0 -30 -19 -11 -140 -55 -140 -50 0 3 -11 -2
-25 -11 -13 -9 -29 -14 -36 -12 -6 2 10 15 35 28 26 13 50 28 53 33 3 4 -18
-3 -47 -18 -29 -14 -54 -24 -57 -21 -9 8 8 26 25 26 22 1 112 49 92 49 -22 1
-219 -73 -292 -110 -72 -36 -128 -75 -128 -90 0 -6 17 3 38 19 40 32 170 100
215 113 20 6 27 4 27 -6 0 -15 -57 -48 -102 -59 -15 -3 -33 -12 -41 -20 -7 -8
-51 -33 -98 -56 -46 -24 -146 -85 -223 -136 -76 -52 -140 -93 -142 -91 -11 10
465 367 489 367 4 0 26 13 48 30 62 45 202 109 272 125 83 19 181 42 185 44 2
0 0 -3 -3 -9z m-400 -50 c-3 -5 -11 -10 -16 -10 -6 0 -7 5 -4 10 3 6 11 10 16
10 6 0 7 -4 4 -10z m1017 -14 c10 -5 32 -3 49 3 42 15 129 14 129 0 0 -11 35
-8 73 6 12 5 17 2 17 -11 0 -9 8 -26 17 -36 12 -14 14 -21 5 -30 -8 -8 -7 -15
4 -26 14 -13 12 -17 -23 -33 -41 -19 -142 -20 -218 -1 -35 8 -28 10 58 11 64
1 97 5 97 12 0 8 -14 9 -45 5 -56 -9 -115 2 -115 20 0 11 18 14 79 14 91 0
118 16 38 22 -66 6 -292 1 -334 -7 -38 -7 -44 1 -10 15 l22 9 -22 0 c-41 2
-24 17 30 27 58 12 123 11 149 0z m-1123 -9 c-2 -2 -38 -27 -79 -56 -41 -29
-128 -97 -192 -151 -64 -55 -121 -100 -127 -100 -10 0 -302 -293 -390 -393
-55 -62 -68 -66 -24 -8 15 20 31 41 35 46 8 12 118 137 159 180 66 72 153 157
202 198 73 63 307 237 335 250 12 6 22 14 22 19 0 5 4 7 9 4 4 -3 17 1 27 9
10 7 21 11 23 9 2 -2 2 -6 0 -7z m105 -10 c-5 -14 -124 -70 -132 -62 -3 2 4 8
14 12 10 4 39 19 63 35 49 31 63 35 55 15z m622 -8 c-14 -11 -24 -24 -21 -29
13 -21 -22 -14 -39 7 -20 27 -47 26 -92 -4 -26 -16 -32 -42 -11 -44 16 -1 -53
-27 -75 -28 -12 -1 -18 6 -18 20 0 19 -4 21 -37 14 -21 -3 -49 -13 -62 -22
-14 -9 -27 -11 -32 -6 -6 6 14 18 48 32 32 12 65 26 75 31 25 14 197 46 257
49 l34 1 -27 -21z m-91 -29 c-3 -5 0 -10 7 -10 9 -1 7 -5 -5 -14 -17 -13 -67
-10 -67 4 0 8 39 28 58 29 7 1 10 -3 7 -9z m225 0 c-20 -13 -33 -13 -25 0 3 6
14 10 23 10 15 0 15 -2 2 -10z m-823 -30 c-14 -11 -29 -20 -34 -20 -11 1 37
40 49 40 6 0 -1 -9 -15 -20z m1057 7 c-2 -7 -33 -19 -67 -26 -34 -7 -76 -17
-94 -21 -17 -4 -35 -4 -40 0 -10 10 -146 -16 -192 -37 -18 -8 -65 -19 -105
-24 -86 -12 -111 -21 -38 -15 28 3 52 4 52 2 0 -2 -33 -11 -72 -21 -66 -15
-165 -52 -286 -106 -56 -25 -118 -45 -162 -52 -28 -5 -19 2 41 32 42 21 89 41
105 45 16 4 53 18 82 32 29 13 58 24 64 24 6 0 9 3 5 6 -3 3 -27 -2 -52 -12
-40 -15 -48 -15 -56 -3 -8 12 -10 12 -19 -1 -8 -12 -10 -10 -10 10 0 19 9 29
39 43 20 9 45 17 54 17 9 0 19 5 22 10 3 6 18 10 33 10 27 -1 27 -1 -7 -19
-53 -28 -20 -33 38 -6 28 14 57 25 64 25 7 0 17 4 23 8 17 15 219 58 343 72
46 5 86 12 89 15 3 3 38 5 78 5 56 0 72 -3 68 -13z m61 -7 c4 -6 -7 -10 -25
-10 -18 0 -29 4 -25 10 3 6 15 10 25 10 10 0 22 -4 25 -10z m-1415 -61 c-19
-15 -39 -29 -45 -29 -5 0 8 16 30 34 22 19 42 32 45 29 3 -2 -11 -18 -30 -34z
m690 31 c0 -5 -5 -10 -11 -10 -5 0 -7 5 -4 10 3 6 8 10 11 10 2 0 4 -4 4 -10z
m-464 -15 c-11 -8 -29 -15 -39 -15 -16 0 -17 3 -7 15 7 8 24 15 39 15 25 -1
25 -1 7 -15z m1121 9 c-3 -3 -12 -4 -19 -1 -8 3 -5 6 6 6 11 1 17 -2 13 -5z
m-1185 -32 c4 -12 -3 -24 -16 -32 -11 -7 -61 -43 -111 -80 -111 -82 -127 -91
-95 -54 13 16 -5 1 -40 -34 -72 -70 -208 -178 -215 -170 -6 5 179 186 243 238
49 40 69 50 57 29 -4 -8 8 1 28 20 22 20 40 30 48 26 7 -5 10 -4 6 2 -7 11 23
42 58 61 28 16 32 15 37 -6z m381 -3 c-8 -28 -48 -46 -67 -30 -19 16 -34 7
-46 -25 -11 -28 -39 -42 -49 -25 -6 8 -15 9 -34 2 -20 -8 -27 -7 -27 2 0 12
116 67 142 67 7 1 24 7 38 15 36 20 49 19 43 -6z m867 11 c22 -7 21 -8 -15
-11 -87 -6 -135 0 -85 11 46 10 70 10 100 0z m-1495 -30 c-21 -16 -41 -30 -44
-30 -11 1 59 60 71 60 6 0 -6 -13 -27 -30z m1229 5 c-4 -9 -19 -15 -37 -15
-44 0 -19 20 35 29 4 0 5 -6 2 -14z m411 5 c-3 -5 -18 -9 -33 -9 l-27 1 30 8
c17 4 31 8 33 9 2 0 0 -3 -3 -9z m-505 -19 c0 -4 -17 -11 -37 -15 -62 -10 -81
-5 -33 9 56 16 70 17 70 6z m267 -7 c-3 -3 -12 -4 -19 -1 -8 3 -5 6 6 6 11 1
17 -2 13 -5z m303 -4 c-8 -5 -35 -9 -60 -8 l-45 1 40 7 c22 4 49 8 60 8 16 1
17 0 5 -8z m-715 -20 c-11 -5 -27 -9 -35 -9 -9 0 -8 4 5 9 11 5 27 9 35 9 9 0
8 -4 -5 -9z m175 0 c0 -5 -12 -10 -27 -9 l-28 1 25 8 c14 4 26 8 28 9 1 1 2
-3 2 -9z m575 0 c-3 -5 -14 -10 -23 -10 -15 0 -15 2 -2 10 20 13 33 13 25 0z
m-1368 -36 c-3 -3 -12 -4 -19 -1 -8 3 -5 6 6 6 11 1 17 -2 13 -5z m540 0 c-3
-3 -12 -4 -19 -1 -8 3 -5 6 6 6 11 1 17 -2 13 -5z m-347 -18 c0 -19 -17 -29
-37 -22 -12 5 -13 9 -3 21 16 19 40 19 40 1z m780 10 c0 -2 -9 -6 -20 -9 -11
-3 -20 -1 -20 4 0 5 9 9 20 9 11 0 20 -2 20 -4z m-910 -15 c0 -11 -26 -22 -34
-14 -12 12 -5 23 14 23 11 0 20 -4 20 -9z m525 0 c-36 -14 -85 -21 -85 -11 0
11 25 18 70 18 27 1 30 -1 15 -7z m-740 -21 c-20 -22 -134 -84 -142 -76 -3 2
8 12 24 21 15 8 42 24 58 35 28 18 65 38 74 39 2 1 -4 -8 -14 -19z m175 0 c0
-8 -90 -60 -105 -60 -13 0 -3 29 18 47 31 29 87 37 87 13z m-126 -18 c-1 -7
-2 -22 -3 -34 -1 -16 -15 -31 -44 -48 -57 -34 -57 -34 -57 -16 0 22 -5 20 -35
-10 -14 -14 -29 -22 -35 -19 -15 9 11 55 31 55 10 0 26 11 35 25 9 14 21 25
28 25 8 0 8 -2 0 -8 -9 -5 -8 -11 2 -20 9 -8 14 -9 14 -2 0 18 43 71 55 67 5
-2 10 -9 9 -15z m214 12 c35 -10 26 -19 -35 -38 -32 -10 -71 -24 -88 -31 -64
-27 -118 -46 -122 -41 -5 4 196 113 212 115 6 0 20 -2 33 -5z m-698 -7 c0 -2
-12 -14 -27 -28 l-28 -24 24 28 c23 25 31 32 31 24z m945 -17 c-16 -4 -50 -16
-75 -28 -53 -24 -110 -38 -95 -24 15 15 147 60 175 60 22 0 22 -1 -5 -8z m102
-36 c-3 -3 -12 -4 -19 -1 -8 3 -5 6 6 6 11 1 17 -2 13 -5z m-44 -11 c-7 -2
-19 -2 -25 0 -7 3 -2 5 12 5 14 0 19 -2 13 -5z m-393 -11 c0 -8 -72 -33 -79
-27 -3 4 57 33 72 34 4 1 7 -2 7 -7z m-326 -37 c-4 -18 -1 -27 10 -31 9 -3 16
-9 16 -13 0 -8 -113 -61 -130 -61 -23 0 0 39 35 58 19 11 19 11 1 12 -16 0
-16 2 5 18 23 16 61 40 67 41 1 1 0 -10 -4 -24z m292 -4 c-7 -11 -66 -20 -66
-10 0 7 24 14 58 18 7 0 11 -3 8 -8z m-86 -26 c0 -5 -55 -35 -65 -35 -16 0 -1
18 23 27 32 13 42 15 42 8z m140 -10 c-30 -17 -40 -18 -40 -6 0 10 22 18 50
19 8 1 4 -5 -10 -13z m-250 -45 c-8 -6 -22 -10 -30 -9 -9 0 -5 6 10 14 27 14
44 10 20 -5z m90 0 c-16 -11 -40 -13 -40 -5 0 8 44 24 50 18 2 -2 -2 -8 -10
-13z m-334 -42 c-21 -12 -21 -29 1 -21 28 11 5 -16 -30 -33 -20 -11 -32 -13
-35 -6 -2 6 -10 8 -18 5 -29 -11 2 39 42 67 33 22 40 24 48 12 6 -10 3 -18 -8
-24z m134 -23 c-33 -19 -50 -18 -26 0 11 8 27 15 35 15 10 -1 7 -6 -9 -15z
m80 11 c0 -2 -7 -7 -16 -10 -8 -3 -12 -2 -9 4 6 10 25 14 25 6z m-565 -68
c-66 -73 -69 -76 -60 -58 16 28 98 120 103 115 3 -2 -17 -28 -43 -57z m135 48
c0 -2 -8 -10 -17 -17 -16 -13 -17 -12 -4 4 13 16 21 21 21 13z m389 -1 c-3 -2
-32 -16 -64 -30 -65 -29 -64 -18 0 14 36 18 75 28 64 16z m-345 -28 c-2 -7
-14 -19 -27 -26 -21 -13 -21 -12 2 13 27 29 33 32 25 13z m66 -3 c0 -4 -8 -13
-17 -21 -16 -13 -16 -13 5 -3 20 10 44 7 31 -3 -12 -9 -100 -67 -103 -67 -1 0
-2 10 -1 21 2 31 85 102 85 73z m-160 -32 c0 -5 -7 -17 -15 -28 -8 -10 -15
-29 -15 -41 0 -12 -8 -24 -17 -27 -10 -3 -39 -27 -66 -52 -26 -26 -50 -44 -54
-40 -6 5 11 28 117 153 34 41 50 52 50 35z m240 1 c0 -11 -119 -85 -160 -99
l-35 -13 24 20 c13 10 29 19 36 19 8 0 20 6 27 13 21 19 92 67 100 67 5 0 8
-3 8 -7z m-413 -98 c0 -8 -7 -15 -15 -15 -12 0 -12 3 -2 15 7 8 13 15 15 15 1
0 2 -7 2 -15z m212 12 c-2 -1 -13 -9 -24 -17 -19 -14 -19 -14 -6 3 7 9 18 17
24 17 6 0 8 -1 6 -3z m-243 -175 c-20 -20 -22 -1 -4 31 11 20 12 21 16 3 2
-10 -3 -26 -12 -34z m-103 -77 c-3 -9 -8 -14 -10 -11 -3 3 -2 9 2 15 9 16 15
13 8 -4z m-31 -57 c-7 -7 -12 -8 -12 -2 0 14 12 26 19 19 2 -3 -1 -11 -7 -17z
m-22 -38 c0 -5 -5 -10 -11 -10 -5 0 -7 5 -4 10 3 6 8 10 11 10 2 0 4 -4 4 -10z"/>
<path d="M2380 4101 c-45 -4 -45 -4 25 -16 39 -7 79 -15 90 -20 l20 -7 -20 14
c-35 24 -69 33 -115 29z"/>
<path d="M1978 4063 c6 -2 18 -2 25 0 6 3 1 5 -13 5 -14 0 -19 -2 -12 -5z"/>
<path d="M1998 4043 c6 -2 18 -2 25 0 6 3 1 5 -13 5 -14 0 -19 -2 -12 -5z"/>
<path d="M2025 3860 c-3 -5 -2 -10 4 -10 5 0 13 5 16 10 3 6 2 10 -4 10 -5 0
-13 -4 -16 -10z"/>
<path d="M1724 3824 c-18 -14 -18 -14 6 -3 31 14 36 19 24 19 -6 0 -19 -7 -30
-16z"/>
<path d="M1690 3790 c-18 -12 -2 -12 25 0 13 6 15 9 5 9 -8 0 -22 -4 -30 -9z"/>
<path d="M2385 3820 c-18 -8 -18 -9 5 -9 14 0 34 4 45 9 18 8 18 9 -5 9 -14 0
-34 -4 -45 -9z"/>
<path d="M1845 3620 l-20 -9 20 0 c11 0 29 4 40 9 l20 9 -20 0 c-11 0 -29 -4
-40 -9z"/>
<path d="M806 3175 c-11 -8 -15 -15 -9 -15 6 0 16 7 23 15 16 19 11 19 -14 0z"/>
<path d="M8411 4190 c9 -13 22 -26 30 -29 11 -3 10 1 -2 19 -9 13 -22 26 -30
29 -11 3 -10 -1 2 -19z"/>
<path d="M3380 4178 c-43 -16 -170 -102 -170 -115 0 -16 16 -17 25 -3 4 6 32
24 63 40 54 28 119 77 111 84 -2 2 -15 -1 -29 -6z"/>
<path d="M3443 4139 c-18 -12 -33 -27 -33 -33 0 -23 29 -13 62 21 37 38 21 44
-29 12z"/>
<path d="M3226 4125 c-9 -26 -7 -32 5 -12 6 10 9 21 6 23 -2 3 -7 -2 -11 -11z"/>
<path d="M7950 4125 c-7 -9 -11 -18 -8 -20 3 -3 11 1 18 10 7 9 11 18 8 20 -3
3 -11 -1 -18 -10z"/>
<path d="M8113 4111 c-12 -15 -43 -42 -69 -60 -26 -17 -42 -31 -35 -31 20 0
98 58 121 90 27 38 11 40 -17 1z"/>
<path d="M8430 4127 c0 -19 21 -37 43 -37 18 0 17 2 -4 25 -27 28 -39 31 -39
12z"/>
<path d="M8364 4116 c-5 -13 -2 -23 11 -32 22 -16 45 -18 45 -4 0 6 -7 10 -15
10 -9 0 -20 10 -24 23 -8 21 -9 21 -17 3z"/>
<path d="M8012 4073 c-35 -25 -61 -48 -58 -51 5 -5 48 22 106 67 14 11 23 22
20 24 -3 3 -33 -15 -68 -40z"/>
<path d="M8170 4083 c-14 -14 -51 -45 -84 -69 -32 -24 -54 -44 -49 -44 20 0
173 115 173 131 0 15 -14 9 -40 -18z"/>
<path d="M7884 4076 c-16 -13 -27 -27 -24 -29 3 -3 18 6 34 19 15 14 26 27 23
30 -2 3 -18 -6 -33 -20z"/>
<path d="M7695 4027 c-42 -38 -46 -44 -29 -51 11 -4 22 -2 29 7 6 8 25 18 44
22 28 6 32 5 29 -11 -2 -10 -19 -29 -38 -42 -48 -32 -49 -43 -3 -27 21 7 45
25 54 39 9 15 25 33 35 41 19 14 11 20 -23 16 -7 -1 -13 3 -13 10 0 7 -9 9
-27 4 -23 -5 -25 -4 -13 10 28 33 1 23 -45 -18z"/>
<path d="M8220 4055 c-17 -21 -156 -126 -194 -147 -17 -9 -26 -17 -21 -17 10
-1 55 25 121 70 54 37 131 108 118 109 -6 0 -17 -7 -24 -15z"/>
<path d="M3112 4015 c-54 -37 -65 -55 -33 -55 32 0 51 11 51 30 0 11 12 22 31
29 17 6 28 15 24 21 -9 15 -16 13 -73 -25z"/>
<path d="M3265 4006 c-74 -41 -105 -61 -105 -69 0 -4 18 2 40 13 21 11 46 20
54 20 15 0 66 42 66 54 0 10 -12 6 -55 -18z"/>
<path d="M3367 3974 c-69 -57 -92 -93 -34 -54 17 11 46 28 64 37 20 10 33 26
36 42 3 14 4 27 4 28 -1 1 -32 -23 -70 -53z"/>
<path d="M2993 4000 c-13 -10 -23 -24 -23 -31 0 -6 11 0 26 16 30 32 28 41 -3
15z"/>
<path d="M8400 3980 c0 -14 38 -32 58 -28 13 3 9 8 -15 21 -37 20 -43 21 -43
7z"/>
<path d="M7720 3970 c0 -5 5 -10 11 -10 5 0 7 5 4 10 -3 6 -8 10 -11 10 -2 0
-4 -4 -4 -10z"/>
<path d="M8285 3930 c-10 -11 -13 -20 -8 -20 13 0 38 29 31 35 -3 3 -13 -4
-23 -15z"/>
<path d="M8363 3918 c-11 -13 -28 -37 -36 -54 -9 -17 -23 -34 -32 -37 -8 -4
-15 -12 -15 -19 0 -8 -12 -25 -27 -39 -16 -15 -50 -49 -77 -77 -27 -28 -53
-49 -58 -46 -4 3 15 28 42 55 28 27 50 55 50 62 0 6 -27 -15 -61 -48 -33 -33
-57 -52 -53 -42 4 12 1 17 -11 17 -13 0 -16 -6 -11 -25 5 -19 1 -28 -19 -41
-19 -13 -23 -19 -13 -25 9 -6 8 -12 -5 -27 -21 -23 -23 -72 -3 -72 17 0 28 24
20 45 -4 8 -2 15 4 15 5 0 12 9 15 20 3 11 1 20 -4 20 -5 0 -9 5 -9 11 0 6 8
8 19 4 12 -4 30 4 50 21 l31 26 0 -31 c0 -21 5 -31 15 -31 9 0 15 9 15 25 0
15 6 25 14 25 7 0 16 13 19 29 4 17 14 30 26 34 12 3 21 13 21 25 0 21 23 46
33 35 4 -3 7 3 7 15 0 15 6 22 20 22 11 0 20 6 20 13 0 8 11 24 25 37 15 14
25 35 25 52 0 34 -10 35 -37 6z m-173 -248 c0 -5 -4 -10 -10 -10 -5 0 -10 5
-10 10 0 6 5 10 10 10 6 0 10 -4 10 -10z"/>
<path d="M7488 3861 c-15 -9 -37 -29 -48 -44 -12 -15 -30 -27 -41 -27 -10 0
-19 -4 -19 -10 0 -26 49 -7 88 35 23 25 47 45 52 45 6 0 10 5 10 10 0 14 -10
12 -42 -9z"/>
<path d="M7545 3858 c-27 -15 -65 -50 -65 -60 0 -15 29 -8 75 19 44 27 53 46
24 50 -8 2 -23 -2 -34 -9z"/>
<path d="M8010 3672 c-14 -9 -29 -22 -33 -29 -9 -15 -37 -17 -37 -3 0 6 -7 10
-15 10 -11 0 -14 -7 -9 -25 5 -20 2 -25 -11 -25 -10 0 -28 -10 -40 -22 -39
-40 -79 -67 -107 -73 -28 -7 -49 -25 -28 -25 16 0 79 29 112 52 17 12 29 15
33 8 9 -15 25 -2 25 20 0 12 19 29 53 49 50 29 110 82 91 80 -5 0 -20 -8 -34
-17z"/>
<path d="M7160 3655 c-16 -19 -3 -19 30 0 24 13 24 14 4 15 -12 0 -27 -7 -34
-15z"/>
<path d="M2995 3652 c-6 -4 -28 -32 -49 -62 -65 -91 -159 -190 -182 -190 -11
0 -66 -18 -122 -40 -84 -32 -209 -60 -274 -60 -4 0 -5 -13 -2 -29 4 -17 1 -32
-6 -36 -15 -9 -31 14 -24 36 6 20 -25 34 -40 19 -7 -7 -6 -21 3 -46 13 -37 6
-53 -25 -54 -6 0 -21 -30 -34 -67 -13 -38 -52 -124 -86 -193 -34 -69 -64 -139
-66 -155 -3 -28 -1 -30 34 -31 21 -1 42 4 47 10 16 19 70 171 92 256 44 172
44 172 112 202 34 15 82 32 107 38 25 6 79 26 120 44 41 19 117 47 169 63 114
34 144 59 201 168 23 44 48 87 56 96 8 8 14 21 14 27 0 13 -29 16 -45 4z m-88
-184 c-14 -27 -32 -44 -45 -46 -12 -2 -22 -1 -22 2 0 9 83 96 88 92 2 -3 -7
-24 -21 -48z m-697 -513 c-7 -9 -15 -13 -17 -11 -6 6 20 36 26 30 2 -2 -2 -10
-9 -19z"/>
<path d="M8310 3628 c0 -6 -7 -19 -16 -29 -14 -16 -14 -21 5 -58 21 -41 80
-81 119 -81 10 0 24 -6 31 -12 11 -11 12 -8 7 13 l-6 26 48 -23 c30 -14 60
-39 80 -68 18 -25 37 -46 43 -46 5 0 9 -5 9 -12 0 -6 9 -21 19 -32 11 -12 36
-52 57 -91 21 -38 46 -78 56 -88 10 -10 18 -26 18 -37 0 -10 5 -20 10 -22 6
-2 8 -27 4 -66 -4 -38 -10 -58 -15 -50 -4 7 -10 10 -12 8 -6 -6 -11 -102 -9
-162 2 -47 16 -65 25 -30 2 9 2 -12 0 -48 -8 -113 -12 -150 -18 -169 -3 -10
-1 -30 4 -45 8 -19 6 -39 -6 -77 -14 -44 -15 -52 -2 -60 24 -15 29 -10 29 25
0 19 9 78 20 131 11 54 19 110 18 125 -1 15 6 39 15 53 24 37 21 50 -7 32
l-23 -16 -7 73 c-9 95 -7 144 5 190 5 20 10 57 11 83 2 33 8 49 20 56 21 11
24 34 4 26 -8 -3 -20 1 -27 9 -7 8 -20 12 -30 9 -11 -4 -19 -2 -19 2 0 21 44
99 67 116 16 13 22 25 18 38 -4 11 -1 30 7 42 24 39 60 136 55 149 -2 7 -10 0
-17 -17 -38 -91 -84 -182 -100 -200 -9 -11 -21 -37 -24 -58 -10 -56 -35 -45
-64 28 -13 32 -31 66 -41 75 -9 8 -28 31 -41 50 -35 51 -68 77 -127 102 -29
12 -53 27 -53 34 0 7 -15 22 -32 33 -18 11 -44 34 -58 50 -25 31 -50 41 -50
19z m40 -57 c0 -10 16 -33 35 -49 42 -38 30 -50 -19 -21 -55 32 -77 89 -36 89
13 0 20 -7 20 -19z"/>
<path d="M7085 3609 c-11 -17 1 -21 15 -4 8 9 8 15 2 15 -6 0 -14 -5 -17 -11z"/>
<path d="M7960 3584 c0 -19 -59 -64 -125 -96 -33 -16 -50 -27 -38 -24 32 6 39
-12 14 -35 -21 -20 -28 -39 -13 -39 14 0 53 46 45 53 -3 4 -1 7 5 7 7 0 12 6
12 14 0 7 11 21 25 30 33 22 42 20 20 -4 -21 -24 -16 -25 30 -6 24 10 40 28
57 63 l23 50 -27 0 c-16 0 -28 -6 -28 -13z m0 -59 c-7 -8 -17 -12 -22 -9 -5 3
-1 12 9 19 22 17 30 11 13 -10z"/>
<path d="M8097 3593 c-4 -3 -7 -15 -7 -25 0 -28 34 -19 38 10 3 21 -16 31 -31
15z"/>
<path d="M7720 3550 c0 -12 -13 -27 -37 -39 -24 -13 -31 -20 -20 -21 32 0 99
40 93 56 -3 9 -6 18 -6 20 0 2 -7 4 -15 4 -8 0 -15 -9 -15 -20z"/>
<path d="M8926 3555 c-20 -20 -20 -25 -2 -25 8 0 17 7 20 16 9 24 1 28 -18 9z"/>
<path d="M7308 3523 c7 -3 16 -2 19 1 4 3 -2 6 -13 5 -11 0 -14 -3 -6 -6z"/>
<path d="M7600 3520 c-14 -4 -50 -9 -80 -9 -39 -1 -51 -4 -40 -11 31 -20 150
-3 150 21 0 5 -1 9 -2 8 -2 -1 -14 -5 -28 -9z"/>
<path d="M8753 3447 c5 -75 22 -146 31 -136 3 2 -1 52 -7 112 -13 126 -33 146
-24 24z"/>
<path d="M7976 3494 c-9 -24 -7 -34 8 -34 13 0 26 20 26 41 0 15 -27 10 -34
-7z"/>
<path d="M7892 3439 c-39 -29 -53 -49 -34 -49 19 0 73 33 82 50 22 40 7 40
-48 -1z"/>
<path d="M7593 3420 c0 -45 15 -52 36 -18 10 16 10 23 2 26 -6 2 -11 10 -11
18 0 8 -6 14 -14 14 -9 0 -13 -13 -13 -40z"/>
<path d="M7690 3450 c0 -5 -10 -18 -22 -30 -16 -15 -19 -23 -11 -31 11 -11
-39 -78 -169 -225 -26 -29 -54 -66 -62 -81 -7 -15 -23 -37 -35 -47 -26 -24
-26 -32 -1 -46 19 -10 20 -9 15 13 -5 18 -1 28 19 40 13 9 28 27 32 39 4 13
41 61 84 108 42 47 91 104 109 128 18 23 41 42 51 42 10 0 20 7 24 15 3 8 12
15 21 15 8 0 15 5 15 10 0 17 -36 11 -55 -10 -10 -11 -22 -17 -27 -14 -5 4 2
18 16 33 29 30 34 51 11 51 -8 0 -15 -4 -15 -10z"/>
<path d="M7554 3430 c-25 -10 -38 -26 -27 -33 9 -5 59 31 52 37 -2 2 -14 0
-25 -4z"/>
<path d="M7309 3328 c-30 -39 -63 -76 -73 -82 -11 -6 -29 -19 -40 -29 -12 -10
-37 -27 -56 -38 -19 -10 -46 -27 -60 -38 -20 -16 -22 -21 -11 -35 18 -21 45
-21 37 0 -6 16 29 53 51 54 7 0 20 8 30 18 59 60 138 95 83 37 -13 -14 -20
-28 -16 -32 7 -7 29 14 138 135 40 44 45 54 31 59 -10 4 -19 1 -21 -7 -8 -22
-80 -96 -87 -88 -3 3 10 28 29 56 20 27 36 52 36 56 0 19 -23 -2 -71 -66z"/>
<path d="M7538 3362 c-9 -9 -13 -23 -11 -30 3 -6 -8 -29 -24 -50 -15 -20 -36
-53 -46 -72 -11 -19 -51 -64 -89 -100 -59 -55 -69 -70 -64 -88 4 -12 16 -22
26 -22 20 0 32 -23 24 -45 -4 -8 5 -37 19 -63 14 -27 30 -73 36 -103 26 -130
31 -149 40 -166 5 -10 14 -45 21 -78 6 -33 22 -109 36 -168 29 -128 26 -151
-19 -144 -42 6 -128 -13 -134 -30 -9 -23 3 -25 42 -9 21 9 54 16 74 16 21 0
46 6 56 14 14 10 25 11 38 4 10 -5 24 -7 31 -5 7 3 57 -5 111 -18 55 -13 103
-21 108 -18 19 11 -18 32 -70 39 -45 5 -52 9 -37 17 23 13 107 12 112 -2 5
-16 22 -13 22 3 0 23 -30 27 -137 21 l-98 -5 50 21 c27 11 71 23 97 26 50 6
56 11 37 30 -12 12 -46 3 -122 -30 -71 -32 -98 -40 -106 -31 -11 12 -38 169
-46 259 -6 76 -16 133 -47 265 -26 109 -43 150 -63 150 -8 0 -20 11 -25 24 -5
13 -19 34 -32 45 l-23 22 66 62 c65 61 99 106 99 128 0 6 13 28 28 48 34 44
54 89 43 95 -5 3 -15 -2 -23 -12z"/>
<path d="M7162 3117 c-31 -32 -41 -57 -23 -57 10 0 64 80 59 86 -3 2 -19 -11
-36 -29z"/>
<path d="M7083 3048 c-6 -7 -13 -29 -17 -49 -4 -21 -18 -54 -32 -74 -14 -21
-33 -56 -41 -79 -9 -22 -31 -64 -49 -93 -18 -29 -52 -96 -74 -150 -56 -133
-82 -186 -97 -201 -12 -12 -33 -75 -33 -99 0 -7 9 -17 20 -23 21 -11 220 -33
228 -25 7 7 -50 26 -63 21 -7 -2 -27 -1 -46 3 -31 7 -27 8 33 14 47 5 73 4 87
-5 23 -14 36 -6 27 18 -5 14 -16 16 -77 10 -57 -6 -70 -5 -67 6 8 24 51 39 96
33 33 -5 42 -3 42 8 0 26 -57 25 -118 -1 -61 -25 -132 -43 -132 -33 -1 17 68
138 88 154 12 10 22 23 22 29 0 6 40 86 90 177 49 91 101 197 115 235 14 38
32 78 40 90 20 27 19 40 -2 32 -9 -4 -19 -2 -23 4 -5 8 -10 7 -17 -2z"/>
<path d="M4287 2982 c-20 -21 -37 -42 -37 -47 0 -6 18 -11 40 -12 33 -2 40 1
40 16 0 10 3 33 6 50 8 41 -4 39 -49 -7z"/>
<path d="M8900 2920 c0 -5 5 -10 10 -10 6 0 10 5 10 10 0 6 -4 10 -10 10 -5 0
-10 -4 -10 -10z"/>
<path d="M4242 2871 c-28 -24 -28 -49 1 -54 21 -3 20 -4 -7 -16 -39 -16 -58
-42 -44 -59 8 -10 3 -21 -20 -45 -38 -39 -39 -47 -11 -47 28 0 64 39 79 87 7
21 21 52 31 69 22 37 25 84 6 84 -8 0 -24 -8 -35 -19z"/>
<path d="M8850 2855 c-19 -19 -28 -35 -21 -35 13 0 71 53 71 65 0 13 -19 2
-50 -30z"/>
<path d="M4915 2757 c-38 -39 -76 -81 -84 -91 -13 -18 -13 -19 5 -12 13 5 8
-5 -16 -30 l-35 -38 48 38 c42 35 66 68 35 50 -7 -4 8 15 35 43 26 27 44 52
41 56 -4 4 -3 7 3 7 6 0 18 11 27 25 9 14 15 25 14 25 -2 0 -34 -33 -73 -73z"/>
<path d="M8574 2809 c-7 -12 13 -29 35 -29 8 0 34 -16 57 -36 24 -19 44 -30
44 -24 0 14 -59 68 -82 76 -10 3 -18 10 -18 15 0 13 -27 11 -36 -2z"/>
<path d="M2047 2658 c-23 -24 -56 -72 -73 -108 -17 -36 -53 -92 -81 -125 -60
-74 -87 -115 -73 -115 5 0 10 -11 10 -24 0 -24 22 -41 35 -28 4 4 13 21 20 38
7 18 26 39 42 49 20 13 49 59 106 174 43 86 78 162 77 169 0 22 -20 13 -63
-30z m-31 -124 c-20 -42 -39 -75 -42 -72 -3 4 -1 14 4 25 6 10 23 44 38 75 42
84 41 63 0 -28z"/>
<path d="M3640 2622 c-52 -12 -76 -13 -120 -4 -53 11 -100 7 -100 -8 0 -13
117 -21 205 -14 47 4 85 11 85 15 0 5 16 9 35 9 19 0 35 5 35 10 0 14 -63 11
-140 -8z"/>
<path d="M4207 2633 c-4 -3 -7 -11 -7 -17 0 -6 5 -5 12 2 6 6 9 14 7 17 -3 3
-9 2 -12 -2z"/>
<path d="M4146 2609 c-15 -9 -16 -13 -5 -20 23 -15 39 -10 39 11 0 23 -7 24
-34 9z"/>
<path d="M1560 2590 c0 -5 27 -10 60 -12 58 -3 79 5 43 16 -27 8 -103 5 -103
-4z"/>
<path d="M9050 2574 c-6 -16 -13 -35 -15 -42 -3 -8 0 -12 7 -10 13 5 33 67 24
75 -3 3 -10 -7 -16 -23z"/>
<path d="M9123 2588 c-18 -22 -64 -161 -59 -175 9 -24 26 -14 26 16 0 16 11
59 25 96 25 66 28 88 8 63z"/>
<path d="M4819 2553 l-24 -28 30 25 c17 14 32 26 34 28 2 1 0 2 -6 2 -5 0 -20
-12 -34 -27z"/>
<path d="M6391 2563 c-24 -3 -31 -7 -21 -13 16 -10 111 -1 125 11 9 9 -38 10
-104 2z"/>
<path d="M8950 2544 c0 -14 9 -37 20 -51 11 -14 20 -36 20 -49 0 -13 5 -24 11
-24 5 0 8 3 6 8 -3 4 -8 25 -11 47 -12 77 -18 95 -32 95 -8 0 -14 -10 -14 -26z"/>
<path d="M9175 2523 c-11 -15 -29 -45 -40 -65 -16 -30 -17 -39 -6 -52 21 -26
32 -18 26 17 -5 25 0 41 20 71 30 44 30 71 0 29z"/>
<path d="M1119 2538 c-4 -24 -2 -155 3 -150 13 14 21 139 9 146 -6 4 -11 6
-12 4z"/>
<path d="M2590 2530 c-22 -14 -6 -22 24 -11 14 6 40 8 58 4 22 -4 29 -3 24 5
-9 14 -85 16 -106 2z"/>
<path d="M646 2514 c-8 -8 -23 -14 -33 -14 -22 0 -43 -18 -43 -37 0 -18 30
-16 44 2 9 13 17 14 44 4 39 -14 53 -5 26 17 -18 14 -17 15 14 11 17 -2 32 0
32 5 0 4 -1 8 -3 8 -1 0 -17 4 -35 9 -24 7 -35 6 -46 -5z"/>
<path d="M1192 2417 c-29 -60 -52 -111 -52 -113 0 -19 -45 -104 -55 -104 -6 0
-16 -16 -22 -35 -6 -19 -8 -35 -4 -35 10 0 59 86 87 153 39 96 61 137 67 131
3 -4 9 7 13 22 4 16 11 34 16 41 5 7 8 20 5 30 -2 11 -23 -22 -55 -90z"/>
<path d="M2750 2510 c0 -5 5 -10 11 -10 5 0 7 5 4 10 -3 6 -8 10 -11 10 -2 0
-4 -4 -4 -10z"/>
<path d="M8122 2503 c-6 -10 -15 -51 -22 -90 -6 -40 -14 -73 -16 -73 -3 0 -4
21 -3 48 1 26 1 63 0 82 -1 32 -2 33 -18 17 -15 -15 -16 -23 -6 -60 7 -26 9
-56 4 -73 -7 -27 -8 -26 -14 21 -7 50 -21 84 -31 74 -3 -3 -1 -21 5 -40 6 -19
13 -49 15 -68 3 -19 10 -43 17 -55 l12 -21 3 23 c2 14 9 22 20 20 12 -2 18 8
23 42 4 25 14 69 23 99 9 30 16 58 16 63 0 15 -19 8 -28 -9z"/>
<path d="M4737 2483 c-38 -29 -50 -51 -19 -34 18 10 69 61 60 61 -2 0 -21 -12
-41 -27z"/>
<path d="M9197 2470 c-22 -32 -22 -46 3 -53 15 -4 24 2 35 23 19 37 19 62 1
37 -14 -18 -14 -18 -18 0 -3 16 -5 15 -21 -7z"/>
<path d="M2526 2418 c5 -35 9 -109 9 -165 0 -145 14 -101 17 53 2 129 -4 174
-24 174 -7 0 -8 -20 -2 -62z"/>
<path d="M8183 2458 c-13 -16 -43 -103 -43 -123 0 -8 5 -15 10 -15 6 0 10 9
10 21 0 11 10 43 21 70 21 49 22 72 2 47z"/>
<path d="M8510 2390 c-21 -67 -40 -84 -40 -37 0 26 -16 54 -26 45 -13 -13 7
-78 27 -89 26 -13 28 -11 51 53 27 74 32 98 20 98 -5 0 -20 -31 -32 -70z"/>
<path d="M1061 2379 c-29 -55 -35 -88 -12 -63 12 11 53 115 48 120 -2 2 -18
-24 -36 -57z"/>
<path d="M3293 2423 c-13 -8 -23 -19 -23 -23 0 -10 57 17 65 31 9 14 -18 10
-42 -8z"/>
<path d="M3461 2436 c2 -2 29 -6 59 -9 36 -4 48 -3 35 3 -19 8 -103 14 -94 6z"/>
<path d="M6321 2416 c-6 -16 -10 -37 -8 -45 5 -25 29 26 24 52 -3 20 -4 20
-16 -7z"/>
<path d="M2596 2379 c-19 -67 -40 -199 -32 -206 7 -8 11 6 31 112 9 50 21 98
27 109 7 12 6 22 0 28 -7 7 -16 -6 -26 -43z"/>
<path d="M8209 2409 c-21 -32 -39 -86 -32 -93 13 -13 23 -5 23 19 0 14 7 37
16 50 9 13 14 30 12 36 -2 7 -11 1 -19 -12z"/>
<path d="M1510 2411 c-11 -8 -2 -11 37 -11 28 0 60 -3 70 -6 14 -6 15 -4 6 6
-15 16 -94 24 -113 11z"/>
<path d="M6165 2393 c8 -34 11 -37 24 -29 7 5 7 15 -1 31 -15 34 -32 32 -23
-2z"/>
<path d="M3468 2403 c7 -3 16 -2 19 1 4 3 -2 6 -13 5 -11 0 -14 -3 -6 -6z"/>
<path d="M7198 2389 c-17 -9 -17 -12 -1 -35 l16 -26 13 24 c25 44 12 61 -28
37z"/>
<path d="M8560 2360 c-21 -42 -27 -90 -10 -90 6 0 10 11 10 25 0 14 9 44 20
65 11 22 16 40 10 40 -5 0 -19 -18 -30 -40z"/>
<path d="M7314 2378 c-5 -8 -2 -9 9 -5 18 7 24 -8 7 -18 -5 -3 -10 -14 -10
-23 0 -13 5 -12 20 8 11 14 20 31 20 38 0 15 -36 16 -46 0z"/>
<path d="M6070 2373 c0 -5 7 -18 15 -29 12 -16 14 -16 15 -3 0 9 -7 22 -15 29
-8 7 -15 8 -15 3z"/>
<path d="M3101 2327 c-14 -39 -14 -40 8 -34 18 4 18 4 -1 -29 -11 -19 -17 -41
-13 -53 3 -11 1 -22 -5 -26 -16 -10 -13 -48 4 -42 9 4 16 -3 20 -16 9 -33 7
-37 -10 -37 -10 0 -14 6 -10 15 10 27 -13 15 -29 -15 -21 -40 -19 -50 10 -50
14 0 25 -5 25 -11 0 -6 8 -9 17 -7 13 2 17 18 21 81 3 60 1 77 -10 77 -8 1 -4
8 10 19 24 21 32 81 10 81 -9 0 -9 3 0 12 7 7 12 24 12 39 0 21 -5 27 -24 27
-19 0 -28 -8 -35 -31z m39 -82 c0 -8 -4 -15 -10 -15 -5 0 -10 7 -10 15 0 8 5
15 10 15 6 0 10 -7 10 -15z"/>
<path d="M8600 2339 c-13 -22 -5 -58 9 -43 14 15 22 64 12 64 -6 0 -15 -9 -21
-21z"/>
<path d="M6711 2336 c-7 -8 -10 -20 -6 -26 5 -8 -5 -11 -32 -9 -72 5 -135 -41
-97 -71 18 -16 34 -4 34 26 0 25 13 29 71 25 22 -2 29 4 38 30 13 37 9 46 -8
25z"/>
<path d="M7383 2335 c-8 -22 6 -33 17 -15 13 20 12 30 0 30 -6 0 -13 -7 -17
-15z"/>
<path d="M3500 2318 c0 -26 39 -100 56 -105 11 -4 -7 71 -25 106 -13 25 -31
24 -31 -1z"/>
<path d="M7920 2327 c0 -14 39 -41 48 -33 6 7 -27 46 -40 46 -4 0 -8 -6 -8
-13z"/>
<path d="M2420 2306 c0 -20 20 -67 38 -88 10 -12 11 -18 4 -18 -7 0 -12 -4
-12 -8 0 -5 7 -9 15 -9 12 0 14 7 10 31 -12 61 -55 132 -55 92z"/>
<path d="M2675 2284 c-20 -49 -37 -156 -26 -167 11 -11 58 19 72 44 9 18 40
27 38 12 -6 -35 19 -45 42 -17 12 14 14 14 20 -3 6 -16 8 -14 18 10 21 54 14
63 -22 29 -53 -52 -57 -12 -4 46 40 43 0 21 -61 -34 -65 -59 -79 -60 -37 -4
14 19 25 36 25 39 -1 6 -33 -31 -56 -63 -7 -11 -16 -17 -19 -15 -7 7 24 122
36 134 12 12 12 25 -1 25 -5 0 -17 -16 -25 -36z"/>
<path d="M3840 2296 c0 -14 5 -28 10 -31 6 -3 10 -23 11 -43 1 -37 1 -37 9 -8
6 19 5 43 -3 68 -13 43 -27 50 -27 14z"/>
<path d="M7980 2311 c0 -9 24 -21 43 -21 6 0 2 7 -9 15 -22 17 -34 19 -34 6z"/>
<path d="M1009 2263 c-6 -16 -17 -57 -25 -93 -8 -36 -21 -78 -30 -93 -9 -16
-14 -30 -11 -33 2 -3 26 0 53 7 70 16 89 14 120 -10 34 -27 53 -27 29 -1 -25
28 -87 43 -129 31 -19 -5 -37 -7 -39 -5 -6 6 39 179 53 204 8 14 8 20 0 20 -6
0 -15 -12 -21 -27z"/>
<path d="M8816 2281 c-4 -6 0 -11 10 -11 12 0 15 -6 10 -22 -4 -13 -9 -36 -13
-53 -6 -27 -5 -29 10 -16 9 7 17 24 17 37 0 26 32 64 38 45 2 -7 -4 -21 -14
-32 -14 -16 -15 -23 -5 -46 7 -14 15 -22 20 -17 10 12 33 106 27 112 -11 11
-94 14 -100 3z"/>
<path d="M2216 2272 c-5 -9 43 -86 50 -79 6 5 -30 87 -38 87 -4 0 -9 -4 -12
-8z"/>
<path d="M1772 2254 c-26 -18 -27 -32 -4 -61 24 -31 44 -15 47 36 2 45 -7 50
-43 25z"/>
<path d="M6045 2261 c-3 -5 -1 -12 5 -16 5 -3 10 -2 10 4 0 5 8 12 18 14 13 4
12 5 -5 6 -12 0 -24 -3 -28 -8z"/>
<path d="M6265 2260 c-4 -6 -13 -9 -21 -6 -16 6 -19 -10 -3 -20 12 -7 46 22
37 31 -3 4 -9 1 -13 -5z"/>
<path d="M9275 2240 c-7 -34 -19 -38 -35 -12 -9 15 -12 14 -35 -13 -20 -24
-25 -26 -30 -13 -4 9 -5 22 -3 29 1 8 -2 16 -7 19 -6 3 -11 -12 -13 -33 -4
-44 18 -59 47 -33 13 12 21 14 26 7 19 -32 75 12 75 59 0 31 -18 24 -25 -10z"/>
<path d="M950 2215 c0 -25 5 -45 10 -45 6 0 10 20 10 45 0 25 -4 45 -10 45 -5
0 -10 -20 -10 -45z"/>
<path d="M3346 2252 c-7 -12 15 -84 32 -105 21 -25 25 -15 7 19 -8 16 -15 41
-15 56 0 27 -14 45 -24 30z"/>
<path d="M3388 2254 c-8 -8 37 -103 58 -123 15 -15 16 -15 11 1 -3 9 -11 36
-17 60 -16 57 -35 80 -52 62z"/>
<path d="M3466 2247 c-13 -27 3 -85 27 -102 31 -22 37 -19 37 18 -1 29 -2 30
-14 14 -18 -23 -28 -9 -37 48 -4 30 -8 36 -13 22z"/>
<path d="M4015 2251 c-7 -13 12 -51 25 -51 6 0 10 8 10 19 0 23 -25 46 -35 32z"/>
<path d="M3609 2222 c-30 -33 -59 -77 -59 -92 0 -19 19 -10 25 13 4 12 21 39
37 60 35 45 33 59 -3 19z"/>
<path d="M9045 2240 c-4 -6 -15 -8 -25 -5 -10 3 -21 2 -24 -4 -12 -19 6 -39
41 -44 39 -7 63 5 63 30 0 13 -3 13 -15 3 -13 -10 -15 -9 -15 9 0 22 -14 28
-25 11z"/>
<path d="M1182 2220 c-7 -12 -8 -20 -2 -20 15 0 12 -12 -11 -40 l-21 -25 6 30
c6 28 5 29 -9 11 -19 -25 -20 -76 -1 -76 15 0 46 26 46 39 0 4 17 7 38 5 30
-2 36 -6 34 -21 -6 -41 -4 -64 8 -78 14 -17 77 -20 100 -5 12 8 9 10 -13 10
-16 0 -26 4 -23 9 3 5 34 9 68 8 61 0 62 -1 33 -13 -25 -11 -26 -13 -9 -14 12
0 32 9 45 20 l24 19 -67 1 c-37 0 -70 5 -73 10 -10 17 -32 11 -38 -10 -7 -29
-47 -27 -47 3 0 12 4 29 10 37 14 22 -7 40 -47 40 l-35 0 7 40 c7 43 -3 52
-23 20z"/>
<path d="M2300 2218 c0 -21 24 -78 33 -78 8 0 4 19 -14 68 -9 24 -19 29 -19
10z"/>
<path d="M3633 2200 c-23 -28 -32 -77 -13 -65 6 3 10 14 10 23 0 9 12 29 27
44 17 18 22 28 12 27 -8 0 -24 -13 -36 -29z"/>
<path d="M829 2213 c-5 -30 -3 -73 4 -73 4 0 7 -9 7 -19 0 -10 7 -21 15 -25
18 -7 19 6 4 74 -6 27 -15 50 -20 50 -5 0 -10 -3 -10 -7z"/>
<path d="M3884 2209 c-7 -12 12 -29 34 -29 18 0 15 27 -4 34 -21 8 -22 8 -30
-5z"/>
<path d="M6080 2210 c0 -11 38 -32 50 -28 5 2 -4 11 -20 20 -17 9 -30 13 -30
8z"/>
<path d="M3735 2190 c-9 -10 -15 -26 -12 -35 9 -23 27 -18 27 8 0 13 5 28 12
35 7 7 8 12 2 12 -6 0 -19 -9 -29 -20z"/>
<path d="M5994 2196 c-10 -8 -17 -17 -14 -19 3 -3 14 1 24 9 11 7 17 16 15 19
-3 3 -14 -2 -25 -9z"/>
<path d="M8940 2200 c0 -5 5 -10 10 -10 6 0 10 5 10 10 0 6 -4 10 -10 10 -5 0
-10 -4 -10 -10z"/>
<path d="M9315 2201 c-6 -11 9 -23 19 -14 9 9 7 23 -3 23 -6 0 -12 -4 -16 -9z"/>
<path d="M1682 2168 c-19 -19 -25 -21 -42 -10 -11 6 -23 12 -27 12 -5 0 -2 -4
6 -9 12 -7 10 -14 -8 -36 -35 -46 -29 -53 57 -59 149 -12 165 -11 217 14 28
13 64 27 80 30 27 5 28 6 8 12 -14 4 -47 -6 -93 -28 -66 -32 -74 -34 -113 -23
-23 6 -66 12 -96 13 -62 1 -76 18 -34 39 19 10 35 12 52 6 29 -11 28 -12 33
25 4 37 -11 42 -40 14z"/>
<path d="M8960 2170 c0 -13 11 -13 30 0 12 8 11 10 -7 10 -13 0 -23 -4 -23
-10z"/>
<path d="M2145 2159 c-22 -5 -44 -14 -49 -19 -13 -13 -3 -12 54 1 80 19 127
13 166 -21 19 -16 43 -30 54 -30 26 0 55 44 44 67 -6 15 -8 14 -11 -9 -7 -49
-27 -53 -77 -17 -50 36 -112 45 -181 28z"/>
<path d="M2462 2153 c2 -9 8 -18 15 -20 7 -3 9 3 6 16 -6 25 -26 28 -21 4z"/>
<path d="M9104 2159 c-7 -12 15 -31 28 -23 9 6 -1 34 -12 34 -5 0 -12 -5 -16
-11z"/>
<path d="M2564 2127 c3 -10 6 -25 6 -33 0 -8 5 -14 11 -14 12 0 2 40 -14 55
-7 7 -8 4 -3 -8z"/>
<path d="M2490 2081 c0 -5 7 -14 15 -21 16 -14 18 -10 9 14 -6 17 -24 22 -24
7z"/>
<path d="M528 2043 c-6 -30 34 -82 62 -82 l25 0 -22 11 c-30 14 -29 22 5 35
26 11 26 11 3 12 -18 1 -22 5 -18 21 4 17 0 20 -23 20 -19 0 -30 -6 -32 -17z"/>
<path d="M890 2042 c0 -10 22 -32 32 -32 5 0 3 9 -4 20 -13 20 -28 27 -28 12z"/>
<path d="M2335 1964 c-38 -6 -77 -10 -85 -9 -20 4 -206 8 -252 6 -21 0 -38 -5
-38 -10 0 -13 297 -13 394 -1 57 7 84 7 99 -2 29 -15 96 -27 102 -18 5 7 -56
28 -115 40 -19 3 -66 1 -105 -6z"/>
<path d="M2560 1879 c-18 -5 -9 -7 33 -8 34 -1 56 3 52 8 -6 11 -48 11 -85 0z"/>
<path d="M2690 1880 c0 -5 17 -10 38 -10 27 0 33 3 22 10 -20 13 -60 13 -60 0z"/>
<path d="M6100 869 c-67 -7 -127 -25 -117 -35 3 -3 39 -1 80 5 117 16 194 -5
233 -64 21 -32 30 -133 15 -178 -17 -49 -52 -70 -130 -74 -36 -1 -72 -5 -82
-8 -35 -11 -41 -55 -35 -237 3 -95 2 -179 -3 -187 -14 -22 -80 7 -88 38 -3 13
-2 92 3 175 4 83 8 228 9 321 0 150 -2 173 -19 198 -10 15 -22 27 -27 27 -13
0 -11 -34 3 -48 15 -15 16 -94 4 -362 -11 -257 -11 -337 3 -354 20 -24 98 -30
128 -11 l26 17 -7 184 c-5 126 -4 190 4 204 9 17 21 20 79 20 59 0 73 4 108
29 83 60 93 210 20 286 -43 43 -119 63 -207 54z"/>
<path d="M6401 859 c-18 -7 -22 -14 -17 -32 28 -92 34 -140 30 -237 -9 -227
-14 -318 -20 -400 -6 -74 -4 -88 11 -103 26 -26 73 -18 99 16 19 26 21 46 26
205 l5 177 55 0 c54 0 54 0 62 -35 4 -19 5 -97 1 -172 -7 -150 3 -198 39 -198
65 0 78 41 78 241 0 135 -3 166 -21 213 -11 31 -26 59 -32 63 -7 4 -43 8 -81
8 l-70 0 -18 75 c-10 41 -20 91 -23 111 -10 67 -59 94 -124 68z m87 -41 c7
-13 14 -39 16 -58 3 -19 10 -62 15 -95 6 -33 11 -61 11 -62 0 -1 7 -9 16 -18
13 -13 29 -15 78 -10 66 6 73 4 100 -38 15 -24 18 -57 22 -207 4 -164 3 -179
-15 -201 -16 -20 -22 -22 -33 -11 -9 9 -12 53 -11 175 1 177 -8 216 -50 218
-49 3 -113 -3 -122 -12 -6 -6 -10 -84 -11 -189 -1 -187 -6 -210 -45 -210 -27
0 -38 36 -29 100 18 138 19 565 1 598 -7 12 -9 27 -6 32 11 19 51 11 63 -12z"/>
<path d="M8960 836 c0 -8 8 -17 19 -21 53 -17 63 -58 75 -335 3 -69 2 -149 -3
-178 -11 -72 2 -197 23 -221 33 -36 156 -33 156 5 0 7 -14 37 -32 65 l-31 52
13 156 c14 169 21 188 76 220 53 32 65 86 29 134 -13 18 -15 18 -43 1 -17 -9
-35 -28 -41 -41 -19 -42 -41 -22 -41 38 0 43 -23 92 -55 117 -34 27 -145 33
-145 8z m121 -39 c34 -29 49 -58 49 -97 0 -72 37 -90 85 -40 16 17 31 30 35
30 3 0 11 -14 17 -30 13 -34 12 -35 -47 -73 -62 -40 -78 -103 -81 -335 -1 -80
0 -85 31 -123 18 -22 30 -42 28 -44 -2 -3 -21 -2 -42 2 -68 11 -71 25 -68 277
3 225 -8 365 -35 418 -22 46 -14 50 28 15z"/>
<path d="M3480 816 c0 -8 10 -32 23 -53 22 -37 22 -43 19 -316 -3 -340 -1
-347 102 -347 23 0 50 6 60 13 18 13 18 16 -8 80 -29 74 -33 149 -13 255 12
61 14 65 67 101 52 35 55 39 53 76 -4 65 -19 70 -86 30 l-57 -34 -1 37 c0 57
-21 102 -59 133 -43 33 -100 48 -100 25z m120 -89 c5 -16 10 -54 10 -83 0 -33
4 -54 11 -54 6 0 31 14 56 30 54 37 61 37 73 4 13 -33 8 -39 -50 -69 -56 -29
-62 -41 -79 -188 -10 -82 -9 -94 14 -165 13 -42 22 -78 20 -80 -2 -3 -20 -1
-40 2 -63 12 -65 20 -62 316 1 146 -2 282 -6 302 -8 38 -8 38 17 27 14 -7 30
-25 36 -42z"/>
<path d="M4935 809 c-18 -6 -105 -8 -218 -4 -139 5 -192 3 -203 -6 -18 -14
-19 -120 -2 -137 15 -15 48 -15 85 1 17 6 53 10 80 9 l51 -4 5 -45 c2 -24 4
-153 3 -286 -1 -186 2 -243 12 -254 16 -15 102 -9 113 8 11 18 20 123 19 212
-1 45 -1 145 -1 221 l1 139 56 -6 c80 -8 84 -5 84 64 0 46 -5 64 -20 79 -22
22 -23 22 -65 9z m-107 -33 c108 0 162 -3 163 -10 0 -6 2 -28 5 -48 l4 -37
-69 2 c-38 1 -72 0 -74 -3 -3 -3 -7 -130 -8 -282 l-3 -276 -29 -6 c-17 -3 -32
-4 -35 -2 -2 3 -6 121 -9 264 -2 142 -7 272 -12 288 -7 29 -8 29 -82 29 -41 0
-87 -2 -103 -5 -25 -4 -30 -1 -37 22 -13 49 -2 67 45 71 22 2 50 1 61 -2 11
-3 93 -6 183 -5z"/>
<path d="M5063 810 c-25 -10 -29 -30 -11 -48 10 -10 13 -77 13 -265 -1 -139
-3 -283 -5 -321 -3 -66 -2 -71 22 -89 37 -28 69 -16 97 34 21 37 24 56 25 163
l1 121 44 3 c28 2 47 -1 52 -10 5 -7 9 -74 9 -149 0 -119 2 -138 18 -152 26
-24 68 -21 86 5 18 25 20 102 7 262 -8 94 -10 101 -39 127 -37 33 -90 50 -136
42 -46 -7 -56 14 -65 143 -6 79 -12 108 -26 124 -19 21 -55 25 -92 10z m66
-19 c10 -6 18 -47 26 -130 13 -142 19 -150 105 -151 47 0 60 -5 92 -33 41 -35
41 -35 54 -238 6 -100 -2 -139 -31 -139 -25 0 -35 36 -36 132 -2 118 -11 193
-24 192 -5 0 -26 3 -45 7 -19 5 -49 6 -66 3 l-31 -6 1 -126 c1 -137 -12 -192
-44 -192 -33 0 -38 47 -36 320 1 146 -2 283 -6 304 -13 59 3 81 41 57z"/>
<path d="M2632 793 c-28 -6 -42 -32 -52 -97 -15 -107 -62 -296 -108 -434 -53
-164 -52 -178 17 -176 64 1 73 15 149 236 l27 78 42 0 c36 0 43 -4 48 -22 3
-13 9 -43 15 -68 19 -85 47 -164 68 -187 20 -23 70 -31 106 -17 18 7 21 40 6
78 -5 15 -14 52 -20 84 -5 31 -21 98 -35 147 -13 50 -30 117 -36 150 -11 62
-44 171 -57 191 -18 27 -115 48 -170 37z m134 -47 c16 -16 50 -112 63 -177 5
-30 19 -94 31 -144 11 -49 27 -120 35 -156 7 -36 21 -83 29 -104 l16 -38 -32
7 c-41 8 -55 20 -69 64 -7 20 -19 53 -27 72 -9 19 -15 42 -14 50 1 8 -4 35
-12 60 l-13 45 -53 3 c-54 3 -90 -15 -90 -45 0 -13 -57 -169 -85 -231 -17 -36
-53 -56 -73 -39 -15 12 -8 55 16 102 17 33 56 166 77 260 7 33 23 107 35 165
12 58 27 111 33 118 12 16 115 7 133 -12z"/>
<path d="M2692 688 c-24 -12 -25 -15 -42 -122 -9 -54 -8 -71 1 -77 15 -9 110
0 123 12 12 11 -11 148 -30 177 -16 25 -19 25 -52 10z m50 -86 c26 -82 25 -87
-21 -87 -22 0 -41 2 -44 5 -8 8 13 123 25 137 15 18 19 12 40 -55z"/>
<path d="M6117 783 c-26 -2 -50 -10 -52 -16 -2 -7 -6 -56 -10 -109 l-6 -97 53
5 c120 13 160 36 172 97 4 21 1 42 -10 62 -17 31 -66 67 -87 63 -7 -1 -34 -3
-60 -5z m86 -24 c47 -21 63 -103 27 -139 -14 -14 -33 -20 -62 -20 -24 0 -53
-3 -64 -6 -21 -6 -22 -3 -22 80 l1 85 36 4 c20 2 41 4 48 5 7 1 23 -3 36 -9z"/>
<path d="M1505 730 c3 -5 0 -7 -9 -4 -22 8 -28 -28 -11 -69 16 -38 15 -93 -3
-402 -5 -72 -5 -140 -1 -151 5 -14 20 -24 43 -28 78 -15 99 30 94 199 -3 73 0
121 6 130 17 22 107 14 117 -11 4 -10 8 -76 8 -146 1 -101 4 -130 17 -142 22
-23 71 -20 84 3 5 11 10 83 10 163 0 178 -12 213 -85 247 -39 18 -57 21 -100
16 -47 -6 -54 -5 -64 13 -6 12 -11 49 -11 84 0 80 -17 108 -66 108 -21 0 -33
-4 -29 -10z m53 -22 c5 -7 13 -45 17 -84 5 -51 13 -78 28 -97 20 -24 26 -25
67 -17 37 7 52 4 90 -13 67 -33 79 -61 80 -197 2 -177 2 -177 -17 -184 -33
-13 -43 21 -42 144 0 81 -4 128 -14 152 l-14 34 -64 -4 c-106 -7 -103 -1 -95
-166 6 -117 4 -144 -8 -161 -14 -19 -17 -19 -43 -4 -24 13 -28 21 -27 55 1 21
5 132 9 246 5 149 3 218 -5 243 -9 28 -9 39 0 50 15 18 24 19 38 3z"/>
<path d="M969 721 c-76 -8 -86 -18 -87 -91 l-1 -61 112 2 112 2 1 -149 c0 -82
-3 -185 -7 -229 -10 -97 -4 -123 28 -131 32 -8 110 22 118 46 3 10 6 110 6
222 0 126 5 208 11 215 6 7 27 13 47 13 54 0 109 18 121 40 12 23 13 90 1 108
-5 9 -26 13 -57 12 -63 -2 -190 -1 -279 3 -38 2 -95 1 -126 -2z m439 -78 c3
-38 1 -41 -29 -47 -17 -3 -50 -6 -73 -6 -25 0 -51 -8 -66 -20 l-25 -19 2 -225
3 -226 -47 0 -46 0 7 152 c4 84 9 189 11 233 2 44 -1 90 -6 103 -9 23 -12 23
-111 20 l-103 -3 0 35 0 35 223 2 c123 1 226 4 230 7 14 15 27 -3 30 -41z"/>
<path d="M8800 643 c-56 -17 -87 -21 -124 -17 -35 5 -50 3 -56 -6 -7 -11 -11
-11 -24 -1 -16 14 -46 9 -46 -8 0 -5 11 -12 25 -15 27 -7 49 -38 51 -76 6
-117 4 -251 -6 -333 -7 -57 -9 -102 -4 -107 5 -4 28 -11 51 -15 40 -6 43 -5
58 25 19 37 22 49 36 155 13 94 5 204 -17 246 -18 35 -12 49 22 49 24 0 35 19
12 21 -25 2 -53 -3 -65 -13 -9 -7 -8 -21 7 -57 25 -65 30 -146 15 -254 -17
-116 -28 -147 -55 -147 -31 0 -34 22 -21 155 13 135 1 291 -25 332 -8 12 -14
25 -14 28 0 3 30 3 68 -1 51 -4 79 -1 117 13 60 23 73 20 103 -18 31 -38 36
-105 17 -230 -17 -113 -19 -190 -6 -236 5 -17 7 -34 4 -37 -7 -6 -45 13 -56
28 -10 15 -7 119 5 191 22 123 6 222 -39 239 -27 11 -29 -4 -4 -23 21 -16 24
-25 22 -83 -2 -68 -3 -81 -22 -232 -10 -82 -10 -90 8 -115 22 -29 86 -42 107
-21 7 7 11 54 11 123 0 62 4 157 9 213 10 120 4 163 -30 204 -40 47 -52 49
-134 23z"/>
<path d="M7266 610 c-56 -30 -72 -43 -74 -63 -5 -38 27 -52 74 -32 54 22 79
19 93 -11 17 -38 -1 -54 -58 -54 -90 0 -119 -46 -128 -204 l-6 -101 32 -34
c28 -30 36 -33 68 -28 20 4 54 20 75 37 l39 31 11 -31 c11 -32 56 -60 96 -60
57 0 98 83 47 96 -57 14 -68 77 -39 235 14 74 14 97 4 133 -19 67 -56 105
-114 115 -45 8 -53 6 -120 -29z m158 -21 c16 -13 32 -41 42 -75 14 -50 14 -60
0 -117 -21 -82 -21 -205 -1 -234 8 -11 26 -24 40 -27 40 -10 29 -40 -15 -43
-44 -4 -68 15 -85 64 -15 44 -30 48 -48 14 -18 -36 -82 -66 -112 -53 -45 21
-57 138 -25 253 11 38 56 69 80 54 11 -7 78 11 94 25 12 12 -2 76 -20 95 -19
19 -51 19 -88 0 -52 -27 -86 -14 -52 20 44 45 147 58 190 24z"/>
<path d="M7325 378 c-68 -26 -72 -32 -77 -86 -8 -93 31 -133 78 -79 11 12 29
29 41 37 17 12 22 29 26 83 5 75 7 75 -68 45z m35 -61 c0 -39 -5 -47 -39 -75
-21 -17 -41 -28 -45 -25 -8 8 -8 77 0 98 6 15 55 43 77 45 4 0 7 -19 7 -43z"/>
<path d="M8310 643 c-113 -37 -186 -123 -130 -153 25 -13 54 -5 96 26 40 31
46 30 83 -8 51 -53 36 -94 -31 -79 -63 15 -139 -37 -175 -119 -20 -46 -11
-149 16 -194 39 -62 91 -63 189 -6 39 23 52 25 52 7 0 -8 11 -24 24 -36 30
-29 76 -22 106 16 25 33 25 49 -2 109 -20 46 -21 54 -9 146 12 98 11 117 -15
199 -12 38 -22 49 -57 66 -43 21 -120 35 -147 26z m120 -52 c60 -28 72 -83 59
-296 -3 -59 0 -76 19 -108 26 -45 27 -60 6 -81 -27 -28 -59 -20 -77 19 -9 20
-17 42 -17 50 0 23 -16 18 -34 -10 -30 -46 -119 -80 -156 -60 -49 26 -67 152
-31 223 30 58 63 77 134 77 53 0 59 3 75 28 16 26 16 29 -3 64 -11 21 -35 46
-53 56 l-34 20 -44 -32 c-46 -32 -68 -38 -79 -21 -11 18 12 43 66 72 59 31
101 31 169 -1z"/>
<path d="M8370 350 c-8 -5 -24 -7 -35 -4 -11 2 -40 -6 -65 -18 -43 -22 -45
-25 -48 -72 -7 -101 32 -132 101 -78 19 15 49 35 67 44 30 17 31 20 25 65 -10
78 -14 83 -45 63z m-5 -42 c3 -2 8 -18 11 -35 5 -26 2 -32 -16 -38 -12 -4 -37
-20 -56 -37 -19 -17 -37 -28 -40 -25 -11 10 -25 89 -19 107 3 9 15 22 28 27
21 10 83 11 92 1z"/>
<path d="M7665 630 c-53 -21 -95 -101 -95 -178 0 -42 5 -52 35 -83 20 -18 64
-45 97 -59 70 -28 95 -60 84 -103 -6 -25 -49 -57 -76 -57 -6 0 -29 18 -51 40
-46 46 -66 50 -75 15 -10 -40 9 -96 39 -119 23 -17 42 -21 98 -20 62 0 72 4
99 29 65 62 88 160 54 231 -21 44 -50 64 -92 64 -18 0 -46 7 -62 15 -24 12
-30 22 -30 48 0 33 23 77 41 77 5 0 14 -11 19 -25 7 -19 17 -25 38 -25 38 0
62 28 62 72 0 54 -44 88 -113 87 -29 0 -61 -4 -72 -9z m145 -51 c14 -25 9 -71
-7 -77 -7 -2 -18 8 -24 22 -16 35 -61 35 -93 1 -64 -69 -20 -155 79 -155 27 0
44 -8 66 -29 25 -25 29 -37 29 -85 0 -126 -72 -188 -186 -157 -25 7 -45 20
-53 35 -20 36 -5 49 24 20 24 -24 64 -31 110 -18 29 7 65 65 65 103 0 58 -11
68 -128 111 -51 19 -82 63 -82 116 0 51 19 102 45 124 21 18 103 29 127 18 10
-5 22 -18 28 -29z"/>
<path d="M3080 621 c0 -22 45 -29 151 -25 89 3 109 1 120 -12 10 -12 14 -59
16 -168 1 -84 8 -182 16 -221 8 -38 13 -73 11 -76 -6 -11 -53 -7 -63 5 -9 12
-20 151 -22 293 -2 94 -15 133 -45 133 -18 0 -18 -16 0 -27 10 -6 15 -53 19
-193 7 -224 11 -240 67 -240 52 0 85 30 75 68 -15 59 -24 163 -25 284 0 118
-2 129 -23 154 -23 27 -39 28 -212 22 -5 0 -27 3 -47 7 -26 5 -38 4 -38 -4z"/>
<path d="M2973 613 c-14 -3 -23 -12 -23 -23 0 -26 15 -33 30 -15 18 21 37 19
52 -7 15 -27 19 -184 9 -320 -12 -154 -3 -176 70 -161 48 9 62 56 63 213 1 74
-1 158 -4 185 -5 48 -4 50 20 50 41 0 38 20 -3 23 -26 2 -39 -1 -43 -12 -3 -8
-1 -63 5 -123 12 -123 0 -278 -24 -302 -19 -19 -70 1 -61 25 13 34 19 330 7
384 -17 80 -35 95 -98 83z"/>
<path d="M6926 580 c-59 -38 -81 -84 -101 -215 -14 -96 -13 -134 7 -190 22
-59 81 -105 135 -105 35 0 112 35 130 58 46 59 56 144 20 166 -15 9 -23 5 -50
-25 -18 -20 -40 -49 -50 -63 -23 -34 -52 -31 -80 6 -18 24 -19 34 -11 75 l9
48 82 5 c45 3 84 8 86 10 43 56 47 66 47 116 0 70 -13 100 -52 124 -50 30
-114 27 -172 -10z m137 -2 c30 -16 45 -36 57 -80 12 -41 -1 -111 -22 -124 -7
-4 -48 -8 -91 -9 -86 -2 -90 -5 -107 -65 -15 -55 -3 -103 32 -123 49 -28 73
-22 114 30 21 27 42 52 46 58 15 18 31 -12 24 -48 -10 -54 -63 -107 -114 -114
-35 -5 -49 -1 -83 23 -22 15 -47 40 -55 56 -41 79 4 336 65 373 52 32 102 40
134 23z"/>
<path d="M6959 501 c-16 -17 -29 -40 -29 -54 0 -21 6 -25 36 -29 19 -2 54 -2
77 2 41 5 42 6 39 40 -5 69 -72 92 -123 41z m98 -28 c18 -24 7 -33 -43 -33
-49 0 -66 18 -43 46 16 19 68 12 86 -13z"/>
<path d="M5575 554 c-66 -33 -104 -122 -104 -244 -1 -93 17 -147 60 -187 75
-69 198 -54 249 29 25 41 25 70 2 91 -28 25 -47 21 -79 -17 -42 -51 -68 -55
-93 -14 -22 36 -26 78 -9 95 6 6 37 8 78 5 67 -4 68 -4 91 28 47 67 21 195
-44 218 -44 16 -114 14 -151 -4z m163 -50 c26 -27 32 -42 32 -78 0 -28 -7 -52
-19 -67 -16 -20 -26 -22 -74 -20 -72 3 -96 -5 -108 -36 -12 -32 3 -91 32 -122
28 -30 64 -22 105 24 36 40 49 43 64 15 8 -15 7 -27 -5 -50 -25 -48 -57 -63
-120 -58 -96 8 -145 77 -145 205 0 77 25 158 56 186 63 55 130 55 182 1z"/>
<path d="M5605 469 c-24 -21 -35 -39 -33 -53 3 -19 9 -21 67 -18 35 1 69 7 76
12 17 14 6 58 -18 75 -32 22 -52 18 -92 -16z m79 -11 c20 -28 12 -35 -41 -44
-50 -8 -56 6 -21 43 27 29 43 29 62 1z"/>
<path d="M2121 552 c-59 -5 -130 -74 -156 -151 -25 -76 -17 -177 19 -231 66
-100 225 -113 295 -24 28 36 36 70 22 100 -20 44 -39 40 -91 -16 -34 -37 -54
-51 -65 -46 -9 3 -22 6 -29 6 -15 0 -46 52 -46 79 0 29 26 39 90 36 135 -6
165 40 109 172 -27 62 -66 83 -148 75z m92 -44 c27 -24 57 -93 57 -132 0 -38
-19 -46 -105 -46 -125 0 -150 -30 -100 -115 19 -33 32 -44 57 -48 41 -6 76 12
106 52 12 17 30 31 39 31 13 0 15 -8 10 -42 -8 -56 -46 -87 -109 -88 -82 0
-144 39 -175 110 -15 37 -12 155 6 202 15 37 67 80 108 88 64 13 79 11 106
-12z"/>
<path d="M2079 461 c-37 -31 -52 -60 -40 -79 9 -15 158 -19 173 -4 9 9 8 22
-3 59 -14 46 -17 48 -54 51 -32 2 -47 -3 -76 -27z m89 1 c7 -5 16 -22 21 -38
l9 -30 -64 0 c-53 1 -64 4 -64 18 0 18 47 57 70 58 8 0 21 -4 28 -8z"/>
<path d="M7915 445 c-13 -20 -13 -95 0 -115 4 -6 14 -10 23 -9 10 2 27 0 38
-4 27 -10 104 7 115 25 13 20 10 104 -4 116 -7 6 -46 10 -86 9 -62 -2 -76 -5
-86 -22z m153 -59 l3 -49 -38 6 c-21 4 -50 7 -65 7 -26 0 -28 3 -28 39 0 39 1
40 38 44 83 9 87 7 90 -47z"/>
<path d="M3797 215 c-19 -19 -33 -103 -20 -116 14 -14 95 -18 111 -6 20 15 15
84 -8 107 -11 11 -24 20 -29 20 -5 0 -16 3 -24 6 -8 3 -21 -2 -30 -11z m58
-31 c9 -9 14 -23 11 -31 -3 -8 -6 -18 -6 -23 0 -13 -38 -18 -49 -7 -12 12 -15
60 -4 70 11 12 31 8 48 -9z"/>
<path d="M9306 168 c-59 -54 -37 -115 38 -102 46 7 56 17 56 57 0 66 -46 88
-94 45z m42 -20 c0 -7 4 -24 8 -36 6 -21 4 -23 -17 -20 -24 3 -35 27 -25 54 7
17 32 19 34 2z"/>
</g>
</svg>
