<?xml version="1.0" standalone="no"?>
<!DOCTYPE svg PUBLIC "-//W3C//DTD SVG 20010904//EN"
 "http://www.w3.org/TR/2001/REC-SVG-20010904/DTD/svg10.dtd">
<svg version="1.0" xmlns="http://www.w3.org/2000/svg"
 width="1000.000000pt" height="475.000000pt" viewBox="0 0 1000.000000 475.000000"
 preserveAspectRatio="xMidYMid meet">
<metadata>
Created by potrace 1.16, written by Peter Selinger 2001-2019
</metadata>
<g transform="translate(0.000000,475.000000) scale(0.100000,-0.100000)"
fill="#000000" stroke="none">
<path d="M3998 4645 c-25 -14 -46 -51 -34 -62 3 -3 17 4 32 16 38 30 106 14
117 -29 3 -11 1 -18 -4 -14 -15 9 -10 -24 7 -40 8 -9 12 -20 9 -26 -9 -15 14
-12 31 4 11 11 11 21 2 48 -35 102 -92 139 -160 103z"/>
<path d="M3752 4593 c-15 -6 -42 -56 -42 -78 0 -27 21 -16 35 19 19 44 69 65
85 36 17 -32 56 -70 73 -70 8 0 18 -7 21 -16 4 -12 2 -15 -9 -10 -20 7 -19 -4
1 -18 8 -6 16 -26 16 -44 1 -18 5 -32 10 -32 5 0 6 5 3 10 -3 6 -1 10 4 10 11
0 14 -11 9 -27 -2 -5 -7 -7 -11 -5 -5 1 -6 -5 -4 -15 3 -10 8 -35 12 -56 3
-21 10 -35 15 -32 5 3 11 1 15 -5 3 -5 1 -10 -4 -10 -6 0 -11 -5 -11 -11 0 -5
6 -7 13 -3 9 6 9 4 -1 -8 -7 -9 -12 -32 -10 -52 2 -34 13 -41 13 -9 0 9 6 18
13 21 9 3 13 -3 11 -19 -2 -13 0 -29 3 -35 8 -12 -6 -15 -79 -15 -29 1 -55 -4
-58 -9 -3 -6 -22 -10 -41 -10 -19 0 -34 -4 -34 -9 0 -5 -11 -22 -24 -38 -22
-26 -22 -29 -6 -30 10 -1 30 12 46 28 49 51 154 64 154 19 0 -24 18 -27 27 -4
3 9 13 14 24 11 10 -3 23 1 30 9 6 8 27 14 45 14 19 0 34 4 34 9 0 13 -21 19
-57 15 -31 -4 -32 -3 -38 44 -4 26 -13 67 -21 91 -8 25 -14 54 -14 67 0 12 -7
40 -15 63 -11 31 -11 41 -2 40 26 -3 33 2 52 39 11 20 24 40 30 44 6 5 3 8 -7
8 -16 0 -68 -53 -68 -71 0 -21 -22 -7 -35 24 -17 36 -39 67 -49 67 -4 0 -5 -4
-2 -8 3 -5 -1 -9 -9 -9 -10 0 -12 4 -5 12 7 8 4 20 -11 39 -17 22 -28 26 -67
25 -26 0 -53 -3 -60 -6z"/>
<path d="M4231 4566 c-18 -19 -21 -29 -13 -42 8 -15 13 -12 31 24 24 47 16 54
-18 18z"/>
<path d="M4199 4525 c-1 -5 -1 -14 0 -18 1 -5 -3 -6 -8 -3 -14 9 -31 -18 -26
-42 2 -12 0 -22 -6 -22 -5 0 -9 7 -9 15 0 8 -7 15 -16 15 -11 0 -14 -5 -10
-16 3 -9 6 -30 7 -47 1 -31 1 -31 9 -7 l8 25 1 -27 c1 -14 -4 -28 -9 -30 -6
-2 -13 -21 -16 -43 -4 -30 -3 -36 5 -25 8 11 11 12 11 2 0 -7 5 -10 10 -7 6 3
10 -1 10 -9 0 -9 -3 -15 -7 -15 -19 3 -33 -2 -33 -12 0 -5 4 -8 9 -5 13 8 30
-17 27 -39 -1 -10 -8 -21 -14 -23 -7 -2 -12 -8 -12 -13 0 -6 4 -8 9 -5 5 3 11
-3 14 -14 3 -11 1 -20 -4 -20 -4 0 -6 -7 -3 -15 4 -8 1 -21 -5 -29 -18 -21 11
-41 38 -26 12 6 21 8 21 5 0 -4 7 1 16 10 15 15 15 17 -1 29 -16 12 -16 14 7
32 37 29 44 45 13 31 -14 -7 -25 -15 -25 -19 0 -5 -4 -8 -8 -8 -16 0 -29 45
-21 73 7 27 5 82 -6 150 -3 17 5 47 20 79 17 36 22 55 15 67 -5 9 -10 12 -11
6z m-22 -408 c0 -7 -7 -19 -16 -27 -13 -13 -14 -12 -8 4 4 10 7 22 7 27 0 5 4
9 8 9 5 0 9 -6 9 -13z"/>
<path d="M7925 4506 c-29 -29 -32 -64 -9 -112 22 -47 84 -60 84 -18 0 17 -12
18 -27 3 -18 -18 -53 25 -53 64 0 73 73 84 115 18 12 -21 30 -64 39 -97 21
-75 35 -268 24 -312 -13 -48 -3 -63 15 -22 14 34 15 154 2 189 -3 8 -3 41 1
75 5 45 13 65 32 83 30 28 62 16 62 -24 0 -20 -4 -24 -20 -20 -13 3 -20 0 -20
-9 0 -23 38 -16 55 10 19 29 11 52 -26 71 -27 14 -30 14 -63 -15 -38 -34 -37
-35 -60 36 -19 59 -48 89 -93 99 -27 5 -37 2 -58 -19z"/>
<path d="M7727 4373 c-10 -9 -8 -71 2 -77 4 -3 8 11 7 31 -1 29 3 38 18 41 49
10 138 -73 155 -146 16 -62 19 -95 21 -167 0 -48 3 -56 12 -41 6 11 9 48 6 92
-3 41 -1 74 4 74 4 0 8 6 8 14 0 17 18 31 27 22 3 -3 0 -12 -7 -21 -8 -10 -9
-15 -2 -15 14 0 31 31 25 48 -7 20 -26 14 -50 -15 l-22 -28 -1 27 c0 35 -30
98 -47 98 -7 0 -17 9 -23 21 -19 34 -112 64 -133 42z"/>
<path d="M4308 4204 c-16 -8 -28 -19 -28 -24 0 -14 6 -13 42 6 18 9 57 16 90
17 35 0 54 4 46 8 -21 14 -121 9 -150 -7z"/>
<path d="M4480 4190 c0 -5 -16 -10 -35 -10 -24 0 -35 -5 -35 -15 0 -17 -17
-20 -22 -4 -5 14 -38 0 -38 -16 0 -7 -7 -18 -15 -25 -8 -7 -15 -8 -15 -3 0 11
-68 4 -76 -8 -3 -5 8 -9 25 -9 16 0 31 -6 34 -12 6 -20 100 22 112 50 10 22
45 31 45 12 0 -5 -4 -10 -9 -10 -5 0 -31 -20 -57 -45 -47 -43 -86 -57 -99 -35
-3 6 -14 10 -23 10 -14 -1 -12 -5 8 -21 37 -31 72 -18 153 56 58 54 72 63 79
51 9 -17 35 -20 62 -10 26 10 18 27 -9 20 -17 -4 -31 0 -45 14 -22 22 -40 26
-40 10z"/>
<path d="M8330 4115 c-14 -8 -47 -14 -73 -15 -46 0 -49 -2 -63 -37 -17 -42
-45 -69 -88 -85 -26 -10 -28 -13 -21 -52 4 -22 10 -77 14 -121 6 -59 15 -93
36 -130 27 -49 27 -51 12 -95 -18 -54 -28 -130 -17 -130 10 0 20 37 20 76 0
18 8 42 19 55 l18 23 22 -58 c11 -31 21 -63 21 -71 0 -21 11 -45 21 -45 24 0
-32 162 -72 208 -37 42 -59 95 -59 142 0 43 12 50 93 50 28 0 47 4 47 11 0 8
-19 10 -64 6 -75 -7 -81 -3 -89 64 -6 42 -4 48 16 54 12 4 31 8 42 9 13 1 20
8 20 22 0 11 5 27 11 35 6 8 14 22 17 32 4 12 17 17 42 17 20 0 52 7 71 15 25
10 41 12 54 5 10 -6 28 -10 39 -10 30 0 26 -24 -9 -64 -17 -18 -37 -51 -46
-71 -8 -21 -26 -54 -38 -74 -23 -36 -35 -131 -17 -131 11 0 21 36 21 79 0 19
6 42 14 50 7 9 24 36 37 61 24 45 85 129 104 142 13 10 8 13 -61 31 -71 20
-63 20 -94 2z"/>
<path d="M3882 4014 c-12 -8 -19 -20 -16 -26 5 -8 1 -9 -11 -4 -19 7 -55 -18
-55 -39 0 -7 -13 -15 -29 -18 -24 -5 -28 -10 -24 -31 3 -15 1 -26 -4 -26 -18
0 -21 11 -13 45 6 28 4 34 -11 38 -23 6 -32 -3 -18 -19 8 -10 5 -15 -16 -20
-15 -4 -24 -12 -21 -19 2 -7 -1 -18 -7 -24 -12 -12 -7 -14 43 -11 20 0 49 -6
65 -14 17 -9 43 -16 59 -16 50 0 151 58 133 76 -3 4 -13 -1 -23 -10 -22 -22
-80 -46 -113 -46 -37 0 -64 21 -55 43 8 21 23 22 30 2 6 -14 8 -13 19 1 7 10
10 25 8 35 -3 9 0 20 6 23 7 5 11 -3 11 -19 0 -41 23 -25 35 24 10 41 39 71
53 56 4 -4 1 -10 -6 -12 -13 -5 -42 -54 -42 -73 0 -5 5 -10 10 -10 6 0 10 7
10 16 0 9 11 27 25 40 14 13 25 30 25 39 0 20 -39 20 -68 -1z"/>
<path d="M8294 4002 c-12 -9 -27 -27 -33 -39 -6 -12 -38 -37 -71 -55 -33 -18
-60 -36 -60 -40 0 -4 29 8 65 27 36 19 76 35 90 35 14 0 25 4 25 10 0 5 -7 7
-15 4 -28 -11 -16 24 18 50 18 15 26 26 17 26 -8 0 -25 -8 -36 -18z"/>
<path d="M4310 4001 c0 -18 19 -51 29 -51 13 0 2 37 -15 51 -11 9 -14 9 -14 0z"/>
<path d="M7855 4000 c-8 -13 5 -13 25 0 13 8 13 10 -2 10 -9 0 -20 -4 -23 -10z"/>
<path d="M3730 3979 c0 -18 2 -19 15 -9 15 12 12 30 -6 30 -5 0 -9 -10 -9 -21z"/>
<path d="M8034 3975 c-10 -8 -14 -15 -8 -15 5 0 19 7 30 15 10 8 14 15 8 15
-5 0 -19 -7 -30 -15z"/>
<path d="M7950 3969 c0 -14 20 -20 36 -11 14 8 12 10 -10 14 -14 3 -26 2 -26
-3z"/>
<path d="M7700 3953 c0 -15 34 -43 52 -43 23 0 48 11 48 21 0 5 -14 6 -30 2
-22 -4 -36 0 -50 12 -11 10 -20 14 -20 8z"/>
<path d="M7676 3905 c-4 -16 -16 -48 -28 -70 -16 -30 -17 -37 -5 -27 20 17 51
96 44 114 -2 7 -8 0 -11 -17z"/>
<path d="M4330 3896 c-5 -14 -13 -25 -17 -24 -8 3 -63 -36 -63 -44 0 -9 38
-48 46 -48 5 0 19 -35 30 -77 12 -43 27 -93 35 -110 12 -29 11 -35 -4 -50 -14
-15 -21 -15 -37 -5 -26 16 -40 15 -40 -1 0 -7 17 -21 37 -31 44 -21 33 -32
-35 -39 -47 -5 -57 0 -41 20 16 19 1 16 -19 -3 -15 -15 -14 -18 5 -34 26 -21
99 -17 125 7 10 8 25 35 34 59 13 35 14 47 4 59 -7 8 -10 15 -7 15 3 0 -5 27
-19 59 -40 99 -46 141 -29 206 16 60 13 87 -5 41z"/>
<path d="M7940 3900 c0 -5 7 -10 15 -10 8 0 15 5 15 10 0 6 -7 10 -15 10 -8 0
-15 -4 -15 -10z"/>
<path d="M7807 3860 c23 -11 44 -24 48 -29 3 -5 19 -12 35 -16 37 -8 38 -24 5
-55 -41 -39 -19 -36 25 4 22 20 45 36 51 36 5 0 7 5 4 10 -4 6 -11 7 -17 4
-11 -7 -82 22 -117 48 -13 10 -35 18 -50 18 -23 -1 -21 -3 16 -20z"/>
<path d="M4000 3854 c0 -9 8 -23 18 -31 12 -10 14 -16 5 -19 -18 -8 -16 -25 2
-18 8 4 15 1 15 -5 0 -6 7 -11 15 -11 8 0 15 5 15 10 0 6 5 10 11 10 6 0 9 -7
5 -15 -3 -8 -1 -15 5 -15 17 0 22 29 8 47 -12 14 -11 15 9 9 17 -6 21 -4 16 8
-7 20 -32 27 -67 21 -19 -4 -29 -1 -33 10 -8 20 -24 19 -24 -1z"/>
<path d="M7996 3862 c-3 -6 0 -15 8 -21 11 -9 22 -8 48 4 31 14 31 15 5 10
-16 -3 -35 -1 -42 5 -8 7 -16 7 -19 2z"/>
<path d="M7945 3850 c4 -6 11 -8 16 -5 14 9 11 15 -7 15 -8 0 -12 -5 -9 -10z"/>
<path d="M3740 3790 c-13 -31 -7 -51 9 -34 15 14 25 64 13 64 -5 0 -15 -14
-22 -30z"/>
<path d="M7600 3760 c0 -5 20 -10 45 -10 29 0 64 -9 96 -26 l51 -26 -24 -26
c-13 -15 -30 -39 -38 -54 -7 -16 -18 -28 -23 -28 -5 0 -22 -13 -37 -30 -15
-16 -37 -30 -48 -30 -12 0 -24 -4 -27 -10 -10 -16 -37 -12 -59 8 -12 10 -50
30 -86 43 -60 22 -81 24 -275 26 -115 1 -230 -2 -255 -7 -25 -5 -108 -21 -185
-36 -219 -42 -369 -95 -567 -203 -90 -48 -126 -75 -171 -124 -91 -100 -137
-157 -137 -171 0 -7 -8 -20 -19 -30 -10 -9 -30 -47 -45 -84 -15 -37 -34 -81
-41 -99 -8 -18 -19 -72 -25 -120 -12 -96 -18 -123 -28 -123 -4 0 -22 32 -39
70 -30 65 -45 81 -57 62 -2 -4 -7 -66 -11 -138 -7 -119 -5 -134 13 -176 26
-55 48 -76 64 -60 7 7 22 12 35 12 13 0 23 5 23 10 0 6 -19 10 -43 10 -40 0
-45 3 -61 36 -9 20 -15 38 -14 40 2 1 22 0 46 -3 34 -5 46 -12 63 -40 12 -19
32 -39 45 -43 15 -6 24 -18 24 -30 0 -12 16 -36 35 -54 38 -36 46 -62 18 -53
-10 3 -33 10 -50 15 -27 9 -33 8 -33 -4 0 -8 10 -14 24 -14 14 0 28 -5 32 -11
3 -6 15 -9 25 -6 10 3 22 1 25 -4 7 -12 64 -11 64 1 0 6 -8 18 -17 28 -25 25
-99 123 -110 147 -6 11 -13 37 -17 57 -6 35 -5 38 30 54 29 14 37 15 44 4 5
-8 15 -10 26 -6 11 4 21 7 24 8 16 1 40 21 34 29 -4 6 -15 4 -30 -5 -31 -21
-34 -20 -34 6 0 17 -3 19 -12 10 -16 -16 -31 -15 -25 2 4 10 0 12 -14 9 -10
-3 -19 -11 -19 -18 0 -23 -31 -48 -44 -35 -8 8 -7 13 4 20 8 5 11 12 7 16 -4
4 -14 -1 -21 -12 -14 -18 -15 -18 -21 -2 -12 29 -2 121 25 240 20 92 68 210
81 202 5 -3 6 1 3 9 -3 8 6 28 20 45 15 16 26 33 26 36 0 9 111 144 152 186
29 29 184 120 204 120 4 0 1 -7 -6 -15 -16 -20 0 -19 28 1 12 8 20 20 17 25
-3 5 0 6 8 3 8 -3 21 6 31 20 15 24 55 39 41 16 -13 -21 24 -9 42 14 24 32 97
54 363 111 197 43 496 50 616 14 38 -11 80 -23 94 -26 14 -3 43 -20 65 -38 22
-18 62 -47 90 -65 67 -46 91 -74 128 -150 22 -45 32 -82 34 -120 1 -46 6 -58
28 -76 36 -29 53 -122 36 -199 -13 -59 -23 -65 -60 -36 -23 17 -27 18 -48 4
-12 -8 -30 -13 -38 -9 -9 3 -25 -4 -38 -17 -19 -19 -22 -20 -25 -5 -2 11 -9
15 -19 11 -12 -5 -14 -1 -8 18 5 16 4 21 -3 14 -14 -14 -25 -68 -13 -60 6 3
23 -6 38 -21 19 -17 24 -28 16 -31 -7 -3 -13 -9 -13 -14 0 -5 6 -9 13 -9 6 -1
26 -25 43 -54 l31 -53 -28 -34 c-16 -19 -29 -29 -29 -24 0 6 5 16 12 23 9 9 9
12 0 12 -7 0 -21 -9 -32 -20 -11 -11 -23 -20 -27 -20 -3 0 -15 -7 -25 -17 -14
-13 -18 -13 -18 -2 -1 8 -8 3 -16 -11 -14 -23 -15 -23 -11 -3 6 29 -19 19 -27
-10 -3 -13 -14 -32 -26 -44 -41 -45 -1 -30 63 23 56 45 67 51 67 34 0 -11 3
-20 8 -20 11 1 43 30 75 68 26 32 27 32 27 10 0 -13 -7 -34 -16 -46 -8 -12
-11 -22 -5 -22 16 0 41 42 41 71 0 14 -13 45 -29 70 -40 60 -66 128 -54 140 5
5 19 11 31 14 11 2 30 9 41 15 17 9 28 6 58 -15 21 -14 43 -25 49 -25 13 0 74
-29 74 -36 0 -6 -41 -46 -44 -42 -2 2 -9 14 -15 26 -18 34 -22 23 -9 -27 12
-49 4 -61 -44 -61 -15 0 -30 -5 -33 -10 -4 -7 7 -9 31 -6 66 7 92 -50 54 -122
-12 -23 -20 -49 -18 -59 3 -12 16 4 38 49 l34 67 53 7 c29 3 50 10 48 15 -6 9
-87 5 -103 -5 -14 -9 -32 25 -32 60 0 36 38 97 57 90 8 -3 38 -25 67 -47 50
-39 54 -45 60 -95 5 -46 3 -58 -19 -90 -25 -36 -30 -55 -19 -66 13 -13 210 84
250 123 22 22 43 36 47 33 3 -4 21 4 39 18 18 14 43 28 56 32 22 7 31 26 12
26 -5 0 -44 -16 -85 -37 -41 -20 -78 -33 -81 -30 -4 4 -10 37 -14 74 -5 54
-13 78 -39 116 -18 26 -46 58 -62 69 -16 12 -29 28 -29 35 0 7 -5 13 -12 13
-6 0 -30 9 -53 20 -33 16 -47 31 -70 80 -20 41 -37 64 -57 72 -15 7 -28 16
-28 21 0 14 66 111 95 140 72 71 89 116 63 172 -13 29 -34 32 -65 10 -21 -15
-22 -45 -1 -45 5 0 7 4 3 9 -9 16 30 32 43 19 26 -26 13 -68 -37 -121 -53 -55
-54 -55 -66 16 -11 68 -96 92 -111 31 -8 -30 16 -60 40 -51 20 8 21 27 1 27
-16 0 -21 25 -6 34 28 18 61 -31 61 -89 0 -35 -25 -123 -40 -138 -4 -5 -17 0
-29 12 -12 12 -27 21 -35 21 -9 0 -16 18 -20 51 -4 29 -16 70 -27 92 -25 49
-100 130 -146 158 -39 24 -34 38 26 69 42 21 88 69 120 123 13 20 27 37 32 37
20 0 55 -47 84 -112 28 -63 32 -67 62 -66 17 1 43 -6 57 -16 24 -15 87 -90
112 -132 7 -12 13 -14 18 -6 4 6 -2 20 -14 32 -11 11 -20 26 -20 33 0 36 -97
107 -146 107 -17 0 -25 7 -30 25 -3 14 -10 25 -14 25 -4 0 -11 11 -14 25 -18
73 -175 175 -269 175 -26 0 -47 -4 -47 -10z m340 -712 c6 -7 27 -37 48 -67 24
-35 55 -65 87 -84 54 -31 105 -75 105 -90 0 -5 13 -28 28 -51 25 -36 28 -48
22 -87 -7 -52 6 -99 27 -99 31 0 -9 -30 -85 -65 -77 -36 -102 -42 -102 -26 0
15 30 41 46 41 18 0 18 -1 -5 46 -21 43 -20 54 4 34 19 -16 26 -10 19 15 -6
23 -144 135 -210 172 -24 14 -46 28 -49 33 -3 4 2 25 11 45 10 25 14 56 10 96
-2 32 -2 68 1 79 6 23 27 26 43 8z m-2287 -417 c21 -36 21 -42 1 -34 -16 6
-14 -14 6 -80 11 -33 -10 -48 -36 -26 -13 11 -15 24 -9 69 4 30 8 65 9 78 1
29 8 28 29 -7z m77 -139 l0 -25 -25 23 c-14 13 -25 35 -25 48 l0 25 25 -23
c14 -13 25 -35 25 -48z m40 -84 c0 -6 -9 1 -20 15 -11 14 -20 29 -20 34 1 11
40 -37 40 -49z"/>
<path d="M8087 2814 c-3 -4 7 -20 23 -36 17 -16 30 -38 30 -49 0 -10 5 -19 10
-19 6 0 10 10 10 22 0 21 0 21 15 2 14 -18 14 -18 15 9 0 25 -9 32 -34 28 -5
-1 -21 10 -36 24 -14 14 -29 22 -33 19z"/>
<path d="M8027 3753 c-9 -11 -14 -22 -11 -25 3 -3 -3 -5 -13 -4 -10 0 -21 8
-25 16 -5 11 -7 9 -7 -7 -1 -14 5 -23 14 -23 13 0 20 -17 16 -42 0 -3 11 -5
24 -4 l24 3 -19 -25 c-11 -13 -20 -29 -20 -35 0 -6 -7 -19 -17 -29 -14 -16
-14 -18 0 -18 9 0 20 15 27 35 6 19 16 35 21 35 6 0 8 -4 5 -8 -2 -4 -1 -14 5
-22 6 -11 9 -4 9 23 0 28 6 44 23 58 21 18 21 20 4 30 -15 9 -16 13 -5 26 11
14 10 15 -9 9 -15 -5 -22 -2 -25 10 -3 14 -5 14 -21 -3z m43 -63 c0 -5 -4 -10
-9 -10 -6 0 -13 5 -16 10 -3 6 1 10 9 10 9 0 16 -4 16 -10z"/>
<path d="M3895 3731 c3 -11 1 -22 -5 -26 -5 -3 -10 -13 -10 -22 0 -13 3 -13
15 -3 18 15 21 -1 6 -29 -6 -10 -6 -23 0 -32 6 -10 9 -7 9 14 0 27 13 36 26
16 3 -6 1 -16 -5 -22 -14 -14 -15 -60 -1 -52 6 3 10 15 10 27 0 11 8 22 19 25
18 4 16 9 -15 50 -19 24 -34 51 -34 59 0 8 -5 14 -11 14 -6 0 -8 -8 -4 -19z"/>
<path d="M3695 3691 c-44 -71 -85 -111 -113 -111 -14 0 -42 11 -62 25 -20 14
-54 27 -76 29 -21 2 -52 9 -69 16 -103 42 -311 56 -351 25 -18 -15 -16 -15 26
-8 91 15 232 -1 313 -37 23 -10 62 -21 87 -25 25 -4 54 -15 65 -25 58 -50 116
-24 190 86 37 54 41 64 25 64 -5 0 -21 -18 -35 -39z"/>
<path d="M2880 3675 l-45 -14 55 3 c30 2 56 8 58 15 5 14 -10 13 -68 -4z"/>
<path d="M8297 3683 c-12 -20 -16 -71 -9 -97 15 -53 27 -38 27 34 0 63 -6 83
-18 63z"/>
<path d="M2725 3653 c-51 -8 -56 -26 -5 -19 25 3 51 5 58 5 6 1 12 6 12 11 0
10 -10 11 -65 3z"/>
<path d="M2530 3611 c-48 -15 -91 -26 -98 -23 -13 4 -111 -26 -128 -40 -7 -4
-38 -15 -69 -23 -32 -9 -85 -32 -119 -52 -79 -48 -202 -157 -223 -197 -9 -17
-19 -33 -22 -36 -19 -14 -73 -114 -91 -165 -11 -32 -25 -64 -31 -71 -6 -7 -13
-26 -15 -41 -17 -125 -18 -128 -42 -125 -30 4 -43 -32 -37 -106 6 -93 63 -184
148 -238 20 -13 37 -30 37 -36 0 -7 -7 -3 -15 8 -14 19 -14 19 -14 -1 0 -11 6
-36 13 -55 10 -27 19 -35 37 -35 17 0 25 -7 27 -23 2 -15 -2 -22 -13 -22 -8 0
-27 -7 -40 -16 -14 -9 -32 -13 -42 -10 -15 6 -149 -10 -183 -22 -8 -3 -41 -6
-72 -8 -63 -3 -98 -11 -98 -23 0 -7 90 -13 210 -13 120 0 138 2 152 15 7 6 33
13 57 14 24 2 52 10 62 19 14 13 31 16 71 12 32 -4 73 0 103 9 28 8 95 18 150
23 55 5 120 12 145 14 25 3 99 6 165 8 l120 3 13 -60 c7 -33 10 -81 7 -107 -3
-28 -2 -48 4 -48 18 0 23 40 15 130 -7 96 -1 107 39 77 17 -12 17 -16 -3 -76
-24 -76 -24 -77 -5 -61 8 7 15 19 15 27 0 8 4 12 9 9 5 -4 30 17 56 46 25 28
41 54 36 57 -6 4 -6 12 -1 20 10 17 40 7 40 -14 0 -18 8 -18 39 -1 27 15 49
11 68 -13 11 -14 12 -14 13 2 0 9 7 17 15 17 8 0 15 7 15 15 0 25 22 27 65 5
55 -28 73 -25 96 15 25 42 59 48 59 11 0 -31 16 -42 23 -16 4 15 14 20 40 20
28 0 40 7 67 40 18 22 37 40 43 40 7 0 7 -4 -1 -12 -14 -14 -16 -28 -4 -28 5
0 15 11 22 25 9 17 17 22 23 16 7 -7 6 -16 -3 -26 -7 -8 -9 -19 -5 -23 4 -4
12 1 19 12 23 38 44 61 51 54 4 -3 -3 -20 -15 -36 -12 -17 -20 -36 -18 -43 2
-7 14 3 27 24 54 88 88 90 55 3 -3 -9 -1 -16 4 -16 12 0 22 26 26 67 2 15 9
29 16 31 9 3 11 -8 5 -47 -4 -28 -3 -51 2 -51 4 0 18 23 30 50 12 28 27 50 33
50 13 0 13 -17 0 -25 -12 -8 -13 -25 -2 -25 5 0 13 10 19 23 8 18 26 25 97 40
90 18 136 35 136 48 0 5 -12 4 -27 -2 -42 -17 -198 -38 -201 -28 -2 4 -12 3
-22 -3 -25 -16 -35 -5 -20 21 7 14 7 21 0 21 -6 0 -15 -11 -20 -25 -6 -15 -17
-25 -30 -25 -13 0 -24 10 -30 25 -5 14 -15 25 -21 25 -6 0 -8 -7 -5 -15 3 -8
9 -21 12 -29 3 -9 -3 -19 -16 -26 -27 -15 -35 -8 -20 19 7 13 7 21 1 21 -6 0
-17 -13 -26 -30 -9 -16 -20 -30 -25 -30 -6 0 -3 12 7 28 15 25 13 24 -22 -8
-23 -21 -36 -28 -32 -17 4 9 2 17 -3 17 -6 0 -10 -4 -10 -9 0 -13 -25 -20 -49
-14 -26 7 -28 41 -3 50 9 4 19 10 22 13 8 11 146 70 163 70 8 0 20 7 27 15 16
20 76 30 103 17 18 -9 19 -11 5 -11 -31 -1 -19 -21 12 -21 31 0 80 19 80 31 0
15 -31 18 -36 4 -8 -21 -34 -19 -34 3 -1 21 -23 52 -38 52 -6 0 -12 6 -15 13
-3 7 -9 2 -14 -12 l-10 -25 -6 23 c-3 13 -10 20 -16 17 -6 -4 -8 -13 -4 -21 3
-8 1 -15 -5 -15 -5 0 -13 11 -16 25 -4 14 -10 25 -15 25 -5 0 -12 13 -16 30
-10 46 -25 46 -25 1 0 -35 -4 -42 -25 -47 -13 -3 -29 -12 -36 -20 -9 -11 -7
-14 14 -14 14 0 30 7 35 17 9 14 11 14 21 -6 7 -12 17 -18 23 -15 6 4 8 3 5
-3 -8 -12 -88 -10 -162 5 -75 15 -204 14 -259 -3 -27 -8 -75 -15 -106 -15 -45
0 -80 -9 -156 -41 -55 -22 -106 -47 -115 -55 -8 -8 -21 -14 -27 -14 -15 0 -16
17 -2 25 6 3 10 12 10 18 -1 7 -12 -1 -25 -18 -30 -36 -34 -19 -4 19 17 22 18
27 5 32 -23 9 -38 -5 -31 -29 4 -15 3 -18 -3 -9 -7 11 -14 7 -31 -16 -23 -33
-27 -47 -9 -36 6 4 8 3 4 -4 -9 -16 33 -26 50 -11 19 15 87 21 95 7 4 -6 35
-12 70 -13 46 -3 65 -8 67 -18 4 -18 -29 -32 -39 -16 -5 9 -12 8 -24 -4 -17
-18 -33 -21 -59 -11 -14 5 -14 9 -4 22 12 13 6 14 -49 8 -82 -9 -134 0 -126
22 5 14 3 14 -15 -2 -33 -29 -26 -8 13 40 19 23 35 48 35 54 0 7 17 33 38 59
21 25 42 54 45 64 4 11 12 15 19 11 7 -4 10 -4 6 1 -6 7 6 26 53 84 18 21 51
113 55 154 3 28 0 37 -11 37 -9 0 -15 -9 -15 -21 0 -43 -32 -129 -63 -169 -18
-23 -41 -57 -52 -75 -11 -18 -47 -66 -80 -106 -33 -41 -66 -85 -73 -99 -8 -14
-27 -34 -45 -45 -52 -34 -44 -41 47 -39 46 1 104 -2 127 -6 24 -5 62 -9 84
-11 53 -3 75 -15 75 -39 0 -27 -29 -25 -39 3 -9 22 -9 22 -16 -5 -8 -30 -29
-37 -39 -13 -7 20 -26 19 -26 -1 0 -13 -8 -14 -47 -8 -27 4 -75 8 -108 10 -33
1 -69 3 -80 4 -36 4 -97 -9 -123 -26 -20 -13 -26 -14 -33 -3 -8 12 -11 11 -19
-1 -6 -10 -10 -11 -10 -2 0 6 -4 12 -10 12 -5 0 -10 -7 -10 -15 0 -8 -4 -15
-10 -15 -5 0 -7 6 -4 14 3 8 -4 16 -20 20 -14 3 -26 13 -26 21 0 8 -4 15 -9
15 -12 0 -24 -37 -16 -50 3 -5 1 -10 -4 -10 -20 0 -26 4 -23 17 2 9 -6 11 -29
6 -30 -6 -31 -5 -19 16 6 13 9 25 6 28 -3 3 -10 -5 -15 -19 -5 -13 -16 -30
-25 -37 -14 -12 -16 -10 -16 11 0 13 7 34 16 46 8 12 11 22 5 22 -6 0 -15 -9
-21 -20 -13 -24 -30 -26 -30 -4 0 22 -34 13 -39 -11 -2 -11 -11 -25 -20 -32
-14 -11 -14 -14 -1 -23 10 -6 11 -10 2 -10 -7 0 -20 10 -30 22 -9 11 -32 37
-50 57 -19 20 -40 48 -48 64 -13 25 -34 37 -34 19 0 -12 29 -53 63 -89 17 -18
28 -35 25 -39 -10 -10 -108 46 -108 61 0 9 -13 18 -31 22 -17 3 -40 18 -52 34
-11 16 -29 31 -39 35 -10 3 -21 17 -25 32 -3 14 -14 40 -23 57 -20 34 -32 106
-21 124 12 19 41 1 41 -24 0 -35 22 -125 31 -125 4 0 12 -15 19 -32 10 -29 13
-31 19 -14 4 11 2 31 -5 46 -8 14 -18 56 -23 93 -5 36 -12 71 -16 77 -17 27
36 204 101 335 35 71 61 106 122 167 80 79 203 168 232 168 9 0 47 16 85 35
38 19 94 39 125 45 69 14 192 50 204 61 20 18 -2 15 -84 -10z m713 -908 c-7
-2 -19 -2 -25 0 -7 3 -2 5 12 5 14 0 19 -2 13 -5z m222 -14 c12 -5 -14 -8 -68
-6 -64 1 -87 -1 -87 -10 0 -7 5 -14 10 -14 6 -1 16 -2 23 -3 6 -1 25 1 41 6
15 4 48 5 72 1 34 -4 42 -9 34 -18 -13 -16 -50 -26 -50 -14 0 5 -24 9 -52 9
-41 -1 -49 -3 -35 -11 9 -5 17 -17 17 -26 0 -11 -5 -13 -17 -8 -10 4 -44 10
-76 13 -32 2 -61 10 -63 16 -3 7 -23 10 -54 8 -39 -3 -51 0 -56 12 -9 23 -19
20 -32 -9 -10 -22 -18 -25 -49 -24 -43 3 -83 -8 -83 -22 0 -5 5 -9 12 -9 6 0
8 -3 5 -6 -7 -8 -37 14 -37 26 0 5 15 12 33 15 17 4 48 16 67 26 35 18 35 18
8 19 -16 0 -28 4 -28 9 0 5 39 9 88 9 68 -1 92 -5 111 -20 13 -10 39 -18 57
-18 44 0 55 20 12 21 -18 0 -42 4 -53 9 -17 7 -15 9 13 9 22 1 32 6 32 16 0
14 13 15 93 9 50 -4 101 -11 112 -15z m135 -9 c0 -5 -9 -10 -21 -10 -11 0 -17
5 -14 10 3 6 13 10 21 10 8 0 14 -4 14 -10z m-615 -30 c6 -10 -55 -30 -69 -22
-10 5 32 31 51 32 6 0 14 -4 18 -10z m181 -60 c0 -11 -4 -20 -7 -20 -4 0 -11
-9 -14 -20 -3 -11 -16 -25 -27 -31 -19 -10 -20 -9 -13 7 15 37 17 54 7 54 -5
0 -13 -11 -16 -25 -6 -25 -20 -33 -30 -17 -3 5 -3 18 0 29 11 40 100 61 100
23z m-258 -7 c4 -14 -25 -17 -53 -7 -13 6 -14 9 -3 15 18 12 50 7 56 -8z m142
-13 c0 -13 -9 -22 -25 -26 -14 -3 -25 -10 -25 -16 0 -5 -5 -6 -11 -2 -6 3 -9
15 -6 25 3 11 1 19 -4 19 -5 0 -9 5 -9 10 0 6 18 10 40 10 33 0 40 -3 40 -20z
m320 -10 c0 -5 -6 -10 -14 -10 -8 0 -18 5 -21 10 -3 6 3 10 14 10 12 0 21 -4
21 -10z m-65 -48 c-3 -3 -11 0 -18 7 -9 10 -8 11 6 5 10 -3 15 -9 12 -12z
m-278 -37 c-6 -25 -14 -45 -19 -45 -13 0 -9 65 4 78 21 21 25 13 15 -33z m34
-8 c-15 -15 -21 -5 -14 22 5 21 7 21 16 6 6 -11 5 -21 -2 -28z m83 9 c-6 -16
-24 -23 -24 -8 0 10 22 33 27 28 2 -2 1 -11 -3 -20z m-180 8 c18 -7 23 -64 6
-64 -15 0 -50 38 -50 55 0 16 17 19 44 9z m146 2 c0 -3 -4 -8 -10 -11 -5 -3
-10 -1 -10 4 0 6 5 11 10 11 6 0 10 -2 10 -4z m198 -6 c14 0 14 -2 3 -9 -16
-10 -51 -3 -51 11 0 6 7 7 16 4 9 -3 23 -6 32 -6z m92 -4 c0 -2 -7 -9 -15 -16
-12 -10 -15 -10 -15 4 0 9 7 16 15 16 8 0 15 -2 15 -4z m-47 -26 c3 -12 0 -20
-8 -20 -8 0 -11 8 -8 20 3 11 7 20 8 20 1 0 5 -9 8 -20z m-1243 -35 c0 -13
-29 -29 -37 -21 -3 2 0 14 7 25 11 22 30 20 30 -4z m1197 19 c-3 -3 -12 -4
-19 -1 -8 3 -5 6 6 6 11 1 17 -2 13 -5z m-1354 -27 c20 -7 37 -14 37 -18 0 -6
-71 -41 -75 -37 -2 2 -10 20 -19 42 -15 36 -15 38 2 31 9 -3 34 -12 55 -18z
m602 -7 c3 -5 2 -10 -4 -10 -5 0 -13 5 -16 10 -3 6 -2 10 4 10 5 0 13 -4 16
-10z m-260 -10 c-3 -5 -11 -10 -16 -10 -6 0 -7 5 -4 10 3 6 11 10 16 10 6 0 7
-4 4 -10z m650 1 c3 -5 1 -12 -5 -16 -5 -3 -10 1 -10 9 0 18 6 21 15 7z m225
-1 c0 -13 -11 -13 -30 0 -12 8 -11 10 8 10 12 0 22 -4 22 -10z m-331 -34 c9
-10 2 -23 -30 -57 l-40 -44 5 30 c12 75 38 104 65 71z m-1092 -92 c-3 -3 -12
-4 -19 -1 -8 3 -5 6 6 6 11 1 17 -2 13 -5z"/>
<path d="M3991 3590 c-21 -46 -30 -102 -11 -69 5 8 11 28 14 44 3 15 10 33 16
39 16 16 13 -28 -5 -71 -18 -42 -18 -43 -5 -43 5 0 15 20 21 45 6 25 16 45 21
45 6 0 8 -9 4 -20 -15 -51 -16 -62 0 -30 22 46 29 25 8 -25 -11 -26 -18 -34
-24 -26 -6 10 -9 10 -15 1 -4 -7 -2 -16 5 -20 7 -4 9 -13 6 -19 -4 -6 -3 -11
3 -11 5 0 12 6 14 13 4 9 6 9 6 0 1 -7 -14 -30 -32 -50 -42 -49 -67 -88 -67
-108 0 -8 -7 -15 -16 -15 -8 0 -12 -5 -9 -11 8 -13 -13 -98 -30 -119 -6 -8
-17 -28 -23 -43 -7 -15 -16 -26 -21 -23 -11 7 -21 -17 -21 -51 0 -22 2 -24 16
-12 23 19 73 122 104 215 15 45 44 103 64 130 47 64 96 162 96 194 0 25 -44
60 -75 60 -7 0 -15 6 -18 13 -3 6 -14 -8 -26 -33z"/>
<path d="M3955 3577 c-17 -40 -20 -67 -6 -51 12 13 32 76 26 82 -3 3 -12 -11
-20 -31z"/>
<path d="M7123 3548 c-22 -11 -39 -38 -24 -38 5 0 14 7 21 15 7 8 19 15 26 15
8 0 14 5 14 10 0 12 -8 12 -37 -2z"/>
<path d="M7211 3541 c-13 -10 -20 -20 -15 -23 12 -6 75 27 67 36 -11 10 -27 6
-52 -13z"/>
<path d="M8084 3545 c-16 -12 -16 -14 -3 -15 9 0 22 7 29 15 16 19 0 19 -26 0z"/>
<path d="M4140 3543 c0 -3 12 -22 26 -40 19 -25 29 -32 37 -24 8 8 3 19 -18
41 -27 29 -45 38 -45 23z"/>
<path d="M7003 3540 c-13 -5 -23 -12 -23 -15 0 -9 16 -5 36 10 22 16 19 18
-13 5z"/>
<path d="M7053 3540 c-13 -5 -23 -14 -23 -20 0 -6 12 -4 30 5 45 23 39 33 -7
15z"/>
<path d="M7293 3525 c-8 -23 -1 -24 32 -4 l30 19 -28 0 c-16 0 -30 -7 -34 -15z"/>
<path d="M6864 3516 c-10 -8 -16 -17 -13 -20 3 -4 17 2 30 13 27 23 13 28 -17
7z"/>
<path d="M6920 3515 c-7 -8 -8 -15 -2 -15 5 0 15 7 22 15 7 8 8 15 2 15 -5 0
-15 -7 -22 -15z"/>
<path d="M8314 3505 c-11 -17 -14 -35 -10 -60 9 -48 24 -44 24 6 1 22 6 46 12
54 7 9 8 15 1 19 -6 4 -18 -5 -27 -19z"/>
<path d="M7349 3503 c-12 -15 -12 -16 4 -10 10 4 23 7 28 7 5 0 9 5 9 10 0 16
-26 12 -41 -7z"/>
<path d="M3885 3500 c-3 -5 -1 -10 4 -10 6 0 11 5 11 10 0 6 -2 10 -4 10 -3 0
-8 -4 -11 -10z"/>
<path d="M6706 3495 c4 -8 10 -12 15 -9 14 8 10 24 -6 24 -9 0 -12 -6 -9 -15z"/>
<path d="M6773 3479 c-4 -20 -14 -34 -32 -41 -14 -6 -21 -12 -14 -15 6 -2 25
3 42 11 18 10 52 15 90 14 61 -2 61 -2 61 -32 0 -22 3 -27 11 -19 7 7 8 24 4
43 l-7 33 -74 -6 c-77 -7 -93 2 -56 29 16 13 16 13 -1 14 -12 0 -20 -10 -24
-31z"/>
<path d="M7447 3503 c-4 -3 -7 -10 -7 -14 0 -9 39 1 46 12 6 10 -29 12 -39 2z"/>
<path d="M7497 3483 c-4 -3 -7 -11 -7 -17 0 -6 5 -5 12 2 6 6 9 14 7 17 -3 3
-9 2 -12 -2z"/>
<path d="M3780 3469 c0 -5 5 -7 10 -4 6 3 10 8 10 11 0 2 -4 4 -10 4 -5 0 -10
-5 -10 -11z"/>
<path d="M3928 3466 c-19 -14 -25 -46 -9 -46 12 0 25 19 28 43 3 20 3 20 -19
3z"/>
<path d="M6550 3470 c-25 -8 -25 -8 5 -9 l29 -1 -22 -16 c-12 -8 -22 -22 -22
-31 0 -10 7 -6 23 13 12 16 21 32 20 36 -2 5 1 8 7 8 5 0 12 -11 16 -25 l6
-25 19 24 c10 13 19 27 19 30 0 8 -70 6 -100 -4z"/>
<path d="M2326 3454 c-4 -10 -1 -14 6 -12 15 5 23 28 10 28 -5 0 -13 -7 -16
-16z"/>
<path d="M6495 3460 c-3 -5 -2 -10 4 -10 5 0 13 5 16 10 3 6 2 10 -4 10 -5 0
-13 -4 -16 -10z"/>
<path d="M6685 3459 c-4 -6 -5 -12 -2 -15 2 -3 7 2 10 11 7 17 1 20 -8 4z"/>
<path d="M7182 3453 c-8 -14 -9 -24 -2 -28 12 -7 24 18 18 37 -3 8 -9 5 -16
-9z"/>
<path d="M2800 3450 c-8 -5 -12 -11 -9 -14 2 -3 11 -1 19 4 8 5 12 11 9 14 -2
3 -11 1 -19 -4z"/>
<path d="M7117 3445 c-4 -8 -2 -17 3 -20 6 -4 10 -4 10 -1 0 2 3 11 6 20 3 9
2 16 -4 16 -5 0 -12 -7 -15 -15z"/>
<path d="M7240 3445 c0 -8 5 -15 10 -15 6 0 10 7 10 15 0 8 -4 15 -10 15 -5 0
-10 -7 -10 -15z"/>
<path d="M7288 3430 c-16 -28 -16 -29 2 -18 10 7 21 20 23 30 8 28 -6 21 -25
-12z"/>
<path d="M2381 3434 c0 -11 3 -14 6 -6 3 7 2 16 -1 19 -3 4 -6 -2 -5 -13z"/>
<path d="M6977 3444 c-4 -4 -7 -14 -7 -23 0 -11 3 -12 11 -4 6 6 10 16 7 23
-2 6 -7 8 -11 4z"/>
<path d="M7036 3437 c-17 -12 -17 -14 -3 -20 11 -4 21 1 27 13 12 23 2 26 -24
7z"/>
<path d="M7370 3440 c0 -5 5 -10 10 -10 6 0 10 5 10 10 0 6 -4 10 -10 10 -5 0
-10 -4 -10 -10z"/>
<path d="M7447 3444 c-4 -4 -7 -14 -7 -23 0 -11 3 -12 11 -4 6 6 10 16 7 23
-2 6 -7 8 -11 4z"/>
<path d="M7516 3437 c-11 -8 -17 -20 -14 -27 2 -8 10 -3 21 14 20 30 19 32 -7
13z"/>
<path d="M3962 3428 c-16 -16 -15 -38 2 -38 9 0 13 10 12 25 0 14 -1 25 -1 25
-1 0 -6 -5 -13 -12z"/>
<path d="M6835 3432 c-14 -9 -18 -72 -5 -72 5 0 10 11 10 24 0 13 7 26 15 30
8 3 15 10 15 16 0 12 -20 13 -35 2z"/>
<path d="M2825 3420 c-3 -5 -1 -10 4 -10 6 0 11 5 11 10 0 6 -2 10 -4 10 -3 0
-8 -4 -11 -10z"/>
<path d="M3192 3418 c-19 -19 -14 -29 8 -16 20 13 27 28 12 28 -4 0 -13 -5
-20 -12z"/>
<path d="M6465 3409 c-11 -17 1 -21 15 -4 8 9 8 15 2 15 -6 0 -14 -5 -17 -11z"/>
<path d="M3045 3399 c-11 -17 1 -21 15 -4 8 9 8 15 2 15 -6 0 -14 -5 -17 -11z"/>
<path d="M6592 3398 c-27 -27 -12 -36 28 -17 22 11 40 22 40 24 0 10 -57 4
-68 -7z"/>
<path d="M6747 3390 c-17 -17 -17 -18 0 -22 24 -7 47 16 30 30 -8 6 -18 4 -30
-8z"/>
<path d="M7535 3397 c-4 -10 -5 -21 -1 -24 10 -10 18 4 13 24 -4 17 -4 17 -12
0z"/>
<path d="M6400 3385 c-6 -8 -10 -20 -8 -26 2 -6 12 0 21 15 18 27 8 37 -13 11z"/>
<path d="M2415 3380 c-3 -5 -1 -10 4 -10 6 0 11 5 11 10 0 6 -2 10 -4 10 -3 0
-8 -4 -11 -10z"/>
<path d="M3673 3374 c-3 -8 -1 -20 6 -27 8 -8 11 -8 11 0 0 6 3 18 6 27 3 9 1
16 -5 16 -7 0 -14 -7 -18 -16z"/>
<path d="M6519 3385 c-1 -3 -2 -10 -3 -15 0 -6 -8 -15 -16 -20 -21 -14 3 -13
34 1 21 10 23 14 11 25 -14 14 -24 18 -26 9z"/>
<path d="M6688 3365 c-3 -14 -1 -28 3 -31 5 -3 9 1 9 10 0 8 3 21 6 30 3 9 2
16 -4 16 -5 0 -12 -11 -14 -25z"/>
<path d="M2844 3366 c-10 -8 -16 -17 -12 -21 4 -4 17 2 29 14 26 24 13 29 -17
7z"/>
<path d="M7570 3365 c0 -8 7 -15 15 -15 9 0 12 6 9 15 -4 8 -10 15 -15 15 -5
0 -9 -7 -9 -15z"/>
<path d="M8178 3374 c-16 -16 -7 -23 26 -17 19 3 49 0 67 -6 33 -11 63 -1 39
14 -17 11 -124 18 -132 9z"/>
<path d="M2440 3355 c0 -8 5 -15 10 -15 6 0 10 7 10 15 0 8 -4 15 -10 15 -5 0
-10 -7 -10 -15z"/>
<path d="M6298 3349 c-20 -10 -42 -29 -49 -41 -10 -20 -8 -19 14 5 28 29 38
32 53 18 5 -6 13 -1 21 15 13 28 11 28 -39 3z"/>
<path d="M6623 3353 c-7 -19 -22 -33 -36 -33 -5 0 -6 4 -3 9 3 5 -3 11 -14 14
-15 4 -20 -2 -25 -24 -4 -17 -13 -29 -22 -29 -13 0 -13 2 -2 17 12 15 12 16
-6 9 -63 -24 -129 -35 -136 -24 -4 7 -5 16 -3 20 3 4 1 8 -4 8 -14 0 -36 -29
-29 -37 11 -10 -14 -33 -35 -33 -14 0 -18 5 -14 15 4 12 2 13 -13 5 -27 -14
-30 -31 -14 -63 16 -33 11 -57 -12 -57 -9 0 -13 5 -10 10 3 6 -3 10 -13 10
-26 0 -35 43 -13 65 13 14 10 13 -16 -2 -18 -10 -33 -21 -33 -25 0 -5 -8 -8
-18 -8 -18 0 -42 -18 -42 -31 0 -14 40 -3 53 15 13 17 14 17 29 -6 14 -22 14
-26 -4 -47 -14 -18 -22 -21 -30 -13 -21 21 -48 14 -45 -10 2 -18 -3 -23 -21
-21 -14 2 -36 -11 -63 -37 -23 -22 -36 -40 -30 -40 22 0 11 -18 -19 -30 -18
-7 -33 -22 -36 -37 -4 -13 -15 -28 -27 -34 -13 -7 -16 -14 -9 -18 8 -5 1 -24
-21 -56 -27 -42 -38 -50 -61 -48 -17 1 -26 -2 -23 -10 6 -20 36 -19 66 2 18
13 36 18 46 14 13 -4 16 -2 13 8 -3 8 -14 13 -24 11 -16 -2 -15 0 5 18 14 12
33 19 43 16 15 -3 17 0 13 14 -4 13 0 20 13 25 11 3 22 16 25 28 3 12 11 38
18 57 6 19 14 41 16 49 3 11 6 11 18 1 13 -10 15 -8 15 13 0 28 15 44 25 27
10 -16 38 -12 32 5 -8 19 10 30 48 30 23 0 30 4 30 20 0 15 6 19 25 18 16 -2
38 8 60 26 34 29 35 30 15 45 -23 16 -21 21 17 30 30 7 49 -11 27 -25 -12 -7
-12 -9 0 -9 13 0 131 59 141 70 3 3 16 7 30 8 13 0 34 5 45 10 11 5 32 14 48
21 19 7 27 18 27 36 0 29 -8 33 -17 8z m-153 -77 c0 -2 -7 -7 -16 -10 -8 -3
-12 -2 -9 4 6 10 25 14 25 6z m-52 -23 c-4 -20 -39 -25 -45 -6 -4 10 11 18 40
22 5 0 7 -7 5 -16z"/>
<path d="M7212 3358 c-16 -16 -15 -38 1 -38 6 0 13 11 13 25 2 29 2 29 -14 13z"/>
<path d="M7307 3363 c-10 -9 -8 -33 2 -33 5 0 11 9 14 20 5 20 -3 26 -16 13z"/>
<path d="M2475 3350 c-3 -5 -1 -10 4 -10 6 0 11 5 11 10 0 6 -2 10 -4 10 -3 0
-8 -4 -11 -10z"/>
<path d="M3201 3346 c-16 -19 -11 -29 8 -17 7 5 12 14 9 21 -3 9 -8 7 -17 -4z"/>
<path d="M6436 3341 c-10 -10 -14 -21 -9 -24 12 -7 59 13 48 21 -6 4 -13 11
-16 15 -3 4 -14 -1 -23 -12z"/>
<path d="M7113 3344 c-3 -8 -1 -20 6 -27 8 -8 11 -4 11 16 0 30 -7 35 -17 11z"/>
<path d="M7377 3353 c-10 -9 -8 -33 2 -33 5 0 11 9 14 20 5 20 -3 26 -16 13z"/>
<path d="M7617 3354 c-4 -4 -7 -14 -7 -23 0 -11 3 -12 11 -4 6 6 10 16 7 23
-2 6 -7 8 -11 4z"/>
<path d="M2870 3335 c-11 -13 -10 -14 4 -9 9 3 16 10 16 15 0 13 -6 11 -20 -6z"/>
<path d="M6940 3319 c-11 -20 -5 -58 7 -45 7 7 15 66 8 66 -2 0 -9 -9 -15 -21z"/>
<path d="M7020 3325 c0 -8 0 -17 0 -20 0 -16 14 -6 16 13 2 12 -1 22 -6 22 -6
0 -10 -7 -10 -15z"/>
<path d="M7430 3325 c0 -8 5 -15 10 -15 6 0 10 7 10 15 0 8 -4 15 -10 15 -5 0
-10 -7 -10 -15z"/>
<path d="M7646 3332 c-3 -6 1 -15 8 -21 8 -7 17 -8 20 -3 3 6 -1 15 -8 21 -8
7 -17 8 -20 3z"/>
<path d="M2182 3305 c-8 -17 -8 -25 -1 -25 6 0 8 -9 4 -20 -9 -29 10 -24 24 6
10 23 10 26 -5 20 -13 -5 -15 -2 -10 19 8 32 2 32 -12 0z"/>
<path d="M6160 3300 c-20 -18 -28 -30 -20 -30 8 -1 -4 -12 -27 -26 -41 -25
-56 -55 -33 -69 6 -3 10 5 10 19 0 14 5 28 10 31 6 3 10 1 10 -4 0 -6 7 -11
16 -11 8 0 12 5 9 11 -4 5 1 19 11 30 9 10 13 19 9 19 -5 0 4 14 20 30 36 38
30 38 -15 0z"/>
<path d="M6845 3310 c-4 -6 -2 -17 4 -23 15 -15 25 -2 13 19 -7 12 -11 13 -17
4z"/>
<path d="M8116 3305 c4 -8 -1 -17 -10 -21 -16 -6 -23 -34 -8 -34 22 0 41 26
36 48 -4 12 -10 22 -15 22 -5 0 -6 -7 -3 -15z"/>
<path d="M6767 3303 c-11 -10 -8 -43 3 -43 6 0 10 11 10 25 0 26 -2 29 -13 18z"/>
<path d="M7568 3275 c-9 -19 -12 -38 -7 -40 12 -8 43 55 32 66 -5 5 -16 -6
-25 -26z"/>
<path d="M2484 3284 c-17 -14 -17 -15 -1 -10 10 3 23 6 28 6 5 0 9 5 9 10 0
14 -13 12 -36 -6z"/>
<path d="M2700 3292 c0 -10 71 -46 86 -44 15 3 82 -80 95 -118 11 -31 29 -41
29 -16 0 46 -84 156 -120 156 -8 0 -28 7 -44 15 -32 17 -46 19 -46 7z"/>
<path d="M2895 3290 c-3 -5 -1 -10 4 -10 6 0 11 5 11 10 0 6 -2 10 -4 10 -3 0
-8 -4 -11 -10z"/>
<path d="M6185 3280 c-10 -11 -15 -23 -12 -27 7 -6 36 25 37 40 0 11 -6 8 -25
-13z"/>
<path d="M6660 3256 c0 -14 5 -28 10 -31 6 -4 10 7 10 24 0 17 -4 31 -10 31
-5 0 -10 -11 -10 -24z"/>
<path d="M7625 3254 c-18 -27 -12 -44 13 -43 11 0 12 3 5 6 -23 9 -14 33 12
33 30 0 33 15 5 23 -13 3 -24 -3 -35 -19z"/>
<path d="M3066 3261 c-4 -7 -5 -15 -2 -18 9 -9 19 4 14 18 -4 11 -6 11 -12 0z"/>
<path d="M3230 3250 c-9 -16 -8 -18 5 -14 8 4 15 12 15 20 0 20 -7 17 -20 -6z"/>
<path d="M3883 3258 c-17 -21 -32 -77 -24 -83 5 -2 16 16 24 42 17 50 16 62 0
41z"/>
<path d="M7692 3247 c-24 -25 -28 -37 -12 -37 15 0 50 33 50 47 0 19 -14 16
-38 -10z"/>
<path d="M7307 3242 c-10 -10 -17 -24 -17 -30 0 -18 20 -14 27 6 4 9 14 22 22
29 15 11 14 12 0 13 -9 0 -23 -8 -32 -18z"/>
<path d="M7457 3253 c-13 -12 -7 -33 9 -33 8 0 12 5 8 11 -3 6 0 15 7 20 11 7
11 9 -2 9 -9 0 -19 -3 -22 -7z"/>
<path d="M7217 3232 c-19 -20 -23 -52 -7 -52 6 0 10 8 10 19 0 10 10 26 23 34
16 12 18 16 6 16 -9 1 -23 -7 -32 -17z"/>
<path d="M7377 3243 c-11 -11 -8 -23 6 -23 8 0 14 7 14 15 0 16 -9 19 -20 8z"/>
<path d="M3086 3231 c-4 -7 -5 -15 -2 -18 9 -9 19 4 14 18 -4 11 -6 11 -12 0z"/>
<path d="M6570 3226 c0 -21 11 -46 20 -46 10 0 0 49 -11 56 -5 3 -9 -1 -9 -10z"/>
<path d="M3542 3218 c-14 -18 -19 -42 -9 -48 5 -3 15 10 22 28 14 32 7 43 -13
20z"/>
<path d="M7116 3208 c-15 -21 -13 -38 5 -38 5 0 9 9 9 20 0 10 8 24 18 29 16
10 16 10 0 11 -9 0 -24 -10 -32 -22z"/>
<path d="M7045 3212 c-11 -2 -23 -9 -27 -16 -6 -8 -10 -7 -17 3 -7 11 -13 9
-30 -8 -33 -33 -21 -56 18 -32 9 6 21 5 32 -2 14 -9 21 -9 31 1 9 9 9 12 -2
12 -9 0 -8 5 5 20 21 23 18 28 -10 22z"/>
<path d="M1936 3188 c-18 -26 -21 -48 -5 -48 6 0 8 -9 4 -22 -6 -20 -3 -19 19
7 30 36 34 56 6 30 -22 -20 -27 -7 -9 27 15 28 4 34 -15 6z"/>
<path d="M2210 3195 c0 -8 5 -15 10 -15 6 0 10 7 10 15 0 8 -4 15 -10 15 -5 0
-10 -7 -10 -15z"/>
<path d="M6500 3193 c0 -24 16 -48 23 -36 8 13 -3 53 -14 53 -5 0 -9 -8 -9
-17z"/>
<path d="M6025 3176 c-16 -24 -14 -46 4 -46 8 0 22 61 16 68 -2 2 -11 -8 -20
-22z"/>
<path d="M6896 3178 c-20 -28 -20 -38 -1 -38 8 0 15 8 15 18 0 10 5 23 12 30
9 9 9 12 1 12 -7 0 -19 -10 -27 -22z"/>
<path d="M7500 3186 c-6 -8 -10 -25 -8 -36 2 -17 5 -14 14 14 12 40 12 42 -6
22z"/>
<path d="M7551 3174 c-22 -27 -27 -44 -13 -44 9 0 44 61 38 67 -2 2 -13 -8
-25 -23z"/>
<path d="M6440 3168 c0 -27 16 -55 25 -46 9 9 -5 68 -16 68 -5 0 -9 -10 -9
-22z"/>
<path d="M7452 3165 c-15 -32 -15 -55 -2 -55 6 0 10 9 10 21 0 11 5 29 10 40
6 10 7 19 2 19 -5 0 -14 -11 -20 -25z"/>
<path d="M3642 3155 c-19 -41 -14 -53 8 -20 22 32 25 45 12 45 -5 0 -14 -11
-20 -25z"/>
<path d="M7595 3169 c-11 -17 1 -21 15 -4 8 9 8 15 2 15 -6 0 -14 -5 -17 -11z"/>
<path d="M2277 3164 c-8 -8 13 -64 24 -64 5 0 9 8 9 18 -1 20 -24 54 -33 46z"/>
<path d="M6755 3159 c-91 -27 -153 -99 -84 -99 21 0 26 16 7 23 -19 6 6 33 42
46 25 8 30 7 35 -10 8 -23 31 -20 27 4 -2 12 5 15 30 13 18 -2 25 -1 15 1 -10
3 -21 11 -24 19 -6 16 -6 16 -48 3z"/>
<path d="M6370 3152 c0 -12 28 -48 33 -42 8 8 -11 50 -23 50 -5 0 -10 -4 -10
-8z"/>
<path d="M6085 3140 c-3 -5 -1 -10 4 -10 6 0 11 5 11 10 0 6 -2 10 -4 10 -3 0
-8 -4 -11 -10z"/>
<path d="M5982 3128 c-7 -7 -12 -15 -12 -19 0 -4 -17 -33 -39 -65 -21 -33 -41
-74 -45 -92 -3 -19 -16 -47 -28 -64 -13 -19 -16 -29 -8 -26 17 5 53 73 56 107
2 14 13 33 25 42 12 9 19 21 16 26 -8 12 16 36 26 27 3 -3 11 -3 17 1 8 5 8
11 -1 21 -9 11 -9 18 1 29 16 19 8 29 -8 13z"/>
<path d="M7336 3118 c-9 -12 -15 -32 -15 -43 1 -20 1 -20 6 0 3 11 14 30 26
43 11 12 15 22 9 22 -6 0 -18 -10 -26 -22z"/>
<path d="M7396 3118 c-18 -25 -22 -63 -6 -53 6 3 10 15 10 26 0 11 7 22 15 25
8 4 15 10 15 15 0 16 -19 9 -34 -13z"/>
<path d="M3396 3123 c-3 -3 -3 -10 0 -14 7 -12 34 -11 34 0 0 11 -26 22 -34
14z"/>
<path d="M7722 3090 c-21 -50 -37 -52 -29 -3 5 26 3 33 -5 25 -6 -6 -11 -28
-12 -49 -1 -32 2 -38 22 -41 17 -3 22 2 22 17 0 24 10 27 29 9 11 -10 14 -10
18 0 3 6 11 12 19 12 16 0 19 16 3 25 -6 4 -17 -1 -25 -11 -13 -17 -14 -16 -8
19 9 51 -12 49 -34 -3z"/>
<path d="M1966 3104 c-9 -23 -7 -36 3 -30 12 8 21 46 11 46 -4 0 -11 -7 -14
-16z"/>
<path d="M3821 3090 c-5 -16 -15 -30 -21 -30 -6 0 -8 -4 -5 -10 11 -19 23 -10
35 24 6 19 16 37 23 40 7 2 5 5 -5 5 -9 1 -20 -11 -27 -29z"/>
<path d="M4064 3085 c-14 -35 -19 -63 -8 -52 4 3 15 2 25 -3 24 -14 31 0 23
49 -8 50 -20 52 -40 6z"/>
<path d="M6296 3113 c-3 -3 2 -12 12 -19 19 -15 32 -18 32 -6 0 11 -37 32 -44
25z"/>
<path d="M6853 3109 c55 -133 58 -143 55 -197 -3 -50 -5 -57 -22 -54 -10 2
-30 1 -43 -3 -19 -4 -22 -9 -14 -19 6 -7 8 -16 4 -19 -3 -4 3 -7 15 -7 26 0
67 37 77 70 13 42 13 114 -1 125 -7 6 -21 32 -31 59 -10 27 -24 51 -32 54 -9
3 -12 0 -8 -9z"/>
<path d="M7642 3108 c-15 -15 -16 -85 0 -94 8 -5 9 0 5 15 -3 12 -1 36 4 53
10 36 8 43 -9 26z"/>
<path d="M7266 3091 c-10 -11 -16 -26 -14 -34 2 -9 11 -2 25 19 24 37 17 46
-11 15z"/>
<path d="M7202 3080 c-23 -21 -30 -70 -11 -70 5 0 7 4 4 10 -7 11 12 51 29 62
6 4 8 9 5 12 -3 3 -15 -3 -27 -14z"/>
<path d="M1990 3071 c-12 -23 -13 -41 -2 -41 4 0 13 14 19 30 12 33 0 41 -17
11z"/>
<path d="M6560 3065 c-16 -31 -8 -42 22 -27 20 9 21 11 4 11 -18 1 -18 2 -1
21 15 16 15 20 3 20 -8 0 -21 -11 -28 -25z"/>
<path d="M6920 3066 c0 -14 5 -26 10 -26 6 0 10 9 10 19 0 11 -4 23 -10 26 -6
4 -10 -5 -10 -19z"/>
<path d="M7590 3071 c-5 -11 -10 -31 -10 -44 0 -24 -3 -25 -40 -17 -3 0 3 5
13 11 22 13 22 30 0 22 -13 -5 -15 -2 -10 12 6 15 5 16 -7 6 -8 -7 -16 -24
-18 -39 -2 -16 -10 -28 -20 -30 -14 -3 -16 4 -13 34 2 21 0 33 -6 27 -13 -13
-21 -66 -11 -81 10 -15 72 -34 72 -22 0 4 -10 10 -22 13 -32 9 -15 20 34 22
60 3 60 3 53 26 -5 15 -4 19 4 15 6 -4 11 -1 11 8 0 8 -4 17 -10 21 -5 3 -7
12 -3 20 8 22 -5 18 -17 -4z"/>
<path d="M4026 3064 c-9 -23 -7 -54 3 -54 5 0 11 16 13 35 4 36 -5 47 -16 19z"/>
<path d="M7121 3054 c-23 -30 -26 -40 -11 -49 6 -3 10 2 10 11 0 10 10 28 22
41 12 13 17 23 10 23 -6 0 -20 -12 -31 -26z"/>
<path d="M6491 3044 c-25 -32 -27 -54 -5 -54 11 0 14 5 10 16 -4 10 1 25 10
36 10 10 15 21 12 24 -3 3 -15 -7 -27 -22z"/>
<path d="M3410 3050 c-13 -8 -12 -10 3 -10 9 0 17 5 17 10 0 12 -1 12 -20 0z"/>
<path d="M3967 3053 c-8 -13 21 -75 32 -68 7 4 6 15 -1 33 -15 35 -24 46 -31
35z"/>
<path d="M6203 3052 c-8 -5 -3 -12 17 -19 31 -12 39 -6 18 15 -14 14 -19 14
-35 4z"/>
<path d="M2027 3044 c-11 -11 -8 -52 4 -59 17 -11 21 0 12 35 -5 17 -12 28
-16 24z"/>
<path d="M6431 3024 c-25 -32 -27 -54 -5 -54 10 0 14 6 11 14 -3 7 1 24 10 35
22 33 9 37 -16 5z"/>
<path d="M7044 3025 c-9 -13 -14 -29 -12 -34 1 -5 11 6 20 25 20 40 16 45 -8
9z"/>
<path d="M3740 3031 c0 -11 80 -81 92 -81 20 0 5 28 -32 58 -39 32 -60 40 -60
23z"/>
<path d="M7424 3032 c-7 -4 -13 -16 -15 -26 -2 -11 -16 -23 -30 -27 -24 -6
-27 -4 -24 18 l2 24 -23 -22 c-20 -19 -21 -23 -8 -36 17 -18 18 -43 2 -43 -9
0 -8 -3 2 -9 20 -14 33 -2 26 24 -4 16 -1 25 10 29 23 9 34 7 34 -4 0 -5 -7
-10 -15 -10 -23 0 -18 -15 9 -30 25 -13 91 -5 69 8 -7 4 -19 21 -27 37 -14 26
-13 30 2 41 19 14 5 38 -14 26z m1 -91 c3 -5 1 -12 -5 -16 -5 -3 -10 1 -10 9
0 18 6 21 15 7z"/>
<path d="M4186 3014 c-9 -23 -1 -30 31 -28 15 1 34 3 41 3 6 1 12 6 12 12 0 7
-13 10 -34 7 -24 -3 -32 0 -29 9 3 7 1 13 -5 13 -5 0 -13 -7 -16 -16z"/>
<path d="M4142 3000 c0 -14 2 -19 5 -12 2 6 2 18 0 25 -3 6 -5 1 -5 -13z"/>
<path d="M6366 2998 c-9 -12 -16 -29 -16 -38 0 -8 10 0 21 18 24 37 20 55 -5
20z"/>
<path d="M3531 3001 c-7 -5 -10 -14 -6 -20 5 -9 10 -9 21 0 26 22 14 38 -15
20z"/>
<path d="M6154 2995 c16 -9 32 -13 35 -10 8 9 -21 25 -44 25 -16 0 -14 -3 9
-15z"/>
<path d="M6793 3003 c-7 -2 -13 -11 -13 -19 0 -19 56 -19 63 0 9 24 -16 33
-50 19z"/>
<path d="M6966 2991 c-10 -11 -16 -25 -14 -32 2 -7 12 0 22 16 21 32 16 43 -8
16z"/>
<path d="M7296 3003 c-4 -4 -15 -27 -26 -50 -10 -24 -24 -43 -29 -43 -14 0
-14 57 -1 65 6 3 10 11 10 17 0 18 -28 -11 -34 -35 -7 -29 6 -79 22 -85 7 -2
10 2 6 12 -4 11 -1 16 10 16 9 0 16 -4 16 -10 0 -12 37 -13 44 -1 3 5 -3 11
-14 14 -24 6 -27 39 -4 35 10 -2 19 3 22 11 3 10 -1 12 -16 9 -20 -6 -20 -5
-5 18 15 23 14 42 -1 27z"/>
<path d="M8286 2981 l-18 -35 -12 29 c-8 20 -15 25 -20 17 -11 -18 2 -67 24
-87 19 -17 20 -17 26 1 3 11 10 31 16 46 5 14 8 35 6 45 -3 14 -8 11 -22 -16z"/>
<path d="M3380 2990 c0 -5 5 -10 10 -10 6 0 10 5 10 10 0 6 -4 10 -10 10 -5 0
-10 -4 -10 -10z"/>
<path d="M6306 2969 c-10 -17 -15 -33 -12 -36 3 -4 7 -4 9 -2 24 41 36 69 30
69 -5 0 -17 -14 -27 -31z"/>
<path d="M8329 2954 c-27 -60 -18 -66 15 -10 29 50 31 56 15 56 -5 0 -19 -21
-30 -46z"/>
<path d="M6255 2959 c-24 -45 -12 -58 13 -15 25 42 26 46 12 46 -5 0 -17 -14
-25 -31z"/>
<path d="M6665 2976 c-6 -8 -20 -17 -32 -21 -19 -5 -22 -3 -16 10 4 13 1 16
-13 13 -15 -3 -18 -10 -15 -33 5 -46 11 -49 40 -19 25 27 26 28 29 7 3 -20 5
-20 33 -6 34 17 38 33 8 33 -15 0 -19 5 -15 15 7 19 -6 20 -19 1z"/>
<path d="M6732 2973 c2 -10 14 -19 26 -21 l24 -4 -21 21 c-26 26 -34 26 -29 4z"/>
<path d="M7792 2974 c-25 -17 -30 -36 -7 -28 17 7 19 -9 5 -37 -16 -28 5 -23
25 7 12 18 13 29 6 38 -7 9 -7 16 1 24 17 17 -4 15 -30 -4z"/>
<path d="M6490 2959 c0 -14 -9 -30 -21 -37 -18 -12 -21 -11 -26 7 -6 23 -23
29 -23 9 0 -7 -11 -26 -25 -43 -24 -29 -25 -29 -22 -6 1 13 -4 26 -10 28 -8 3
-13 -3 -13 -14 0 -19 -38 -63 -54 -63 -5 0 -6 9 -3 19 8 31 -25 18 -68 -26
-21 -22 -61 -47 -93 -60 l-57 -22 38 0 c20 -1 37 4 37 9 0 20 41 10 50 -12 10
-23 10 -23 9 2 -2 41 0 45 15 24 20 -26 30 -13 15 20 -11 23 -10 28 7 41 17
13 20 12 33 -5 15 -23 41 -27 41 -6 0 20 24 38 36 26 7 -7 20 0 39 22 24 27
29 29 35 14 5 -15 8 -14 30 9 15 16 30 23 42 19 16 -5 18 -2 12 23 -9 39 -24
53 -24 22z"/>
<path d="M6547 2973 c-2 -5 -7 -25 -11 -46 -7 -36 -6 -37 13 -25 26 16 33 47
16 64 -8 8 -16 11 -18 7z"/>
<path d="M7174 2967 c-3 -9 -18 -16 -32 -17 -92 -3 -105 -12 -96 -67 4 -25 2
-33 -10 -33 -20 0 -32 48 -17 71 16 27 13 38 -4 15 -8 -11 -15 -28 -15 -38 0
-20 -16 -25 -22 -7 -2 7 -12 -1 -22 -16 -15 -23 -16 -29 -5 -36 11 -8 11 -12
-3 -23 -24 -18 -22 -24 6 -19 17 4 26 14 30 34 6 30 26 41 26 14 0 -18 13 -18
65 0 22 8 41 15 42 15 1 0 3 -10 5 -22 4 -28 27 -34 53 -13 19 15 19 15 -9 9
-25 -6 -27 -4 -22 13 4 14 1 23 -9 27 -10 3 -15 15 -13 28 5 35 27 33 43 -6
15 -36 28 -45 40 -26 3 6 0 13 -9 16 -21 8 -27 30 -15 60 5 15 7 29 5 32 -3 3
-8 -2 -12 -11z m-75 -43 c6 4 11 0 11 -8 0 -10 -9 -16 -25 -16 -27 0 -28 1
-19 25 5 12 9 13 14 5 4 -7 13 -9 19 -6z"/>
<path d="M7684 2964 c9 -8 16 -22 16 -30 0 -8 7 -14 15 -14 8 0 15 7 15 15 0
8 5 15 10 15 6 0 10 5 10 11 0 6 -7 9 -15 5 -8 -3 -15 -1 -15 4 0 6 -12 10
-26 10 -23 0 -24 -1 -10 -16z"/>
<path d="M8361 2952 c-22 -31 -29 -82 -11 -82 6 0 10 9 10 20 0 12 7 35 16 51
21 41 11 48 -15 11z"/>
<path d="M1624 2949 c-10 -16 18 -40 35 -29 12 7 12 11 2 24 -16 19 -27 20
-37 5z"/>
<path d="M3497 2953 c-4 -3 -7 -11 -7 -17 0 -6 5 -5 12 2 6 6 9 14 7 17 -3 3
-9 2 -12 -2z"/>
<path d="M6116 2945 c25 -19 40 -19 24 0 -7 8 -20 15 -28 15 -13 0 -12 -3 4
-15z"/>
<path d="M6850 2949 c0 -5 5 -7 10 -4 6 3 10 8 10 11 0 2 -4 4 -10 4 -5 0 -10
-5 -10 -11z"/>
<path d="M7557 2934 c-16 -9 -27 -18 -24 -20 7 -7 57 18 57 28 0 10 1 10 -33
-8z"/>
<path d="M7635 2926 c-9 -14 -15 -31 -13 -38 3 -7 12 3 21 21 21 41 15 53 -8
17z"/>
<path d="M1582 2924 c1 -9 9 -19 16 -22 9 -3 13 2 10 14 -1 9 -9 19 -16 22 -9
3 -13 -2 -10 -14z"/>
<path d="M3860 2920 c0 -11 114 -90 130 -90 6 0 18 -17 27 -37 8 -21 20 -41
25 -44 18 -11 -14 -93 -39 -104 -13 -5 -23 -13 -23 -17 0 -16 47 -7 64 11 19
21 35 121 19 121 -6 0 -13 14 -17 30 -4 20 -16 37 -36 48 -17 9 -54 34 -82 55
-51 38 -68 45 -68 27z"/>
<path d="M3005 2910 c-3 -5 1 -10 9 -10 8 0 18 5 21 10 3 6 -1 10 -9 10 -8 0
-18 -4 -21 -10z"/>
<path d="M3395 2910 c-10 -17 12 -37 25 -24 8 8 6 15 -4 23 -10 9 -16 9 -21 1z"/>
<path d="M5827 2913 c-10 -9 -9 -23 2 -23 5 0 11 7 15 15 5 15 -5 20 -17 8z"/>
<path d="M6074 2905 c22 -17 46 -20 46 -6 0 5 -10 11 -22 15 -37 9 -44 6 -24
-9z"/>
<path d="M6806 2894 c-10 -14 -16 -28 -13 -30 2 -3 12 7 21 22 10 14 16 28 13
30 -2 3 -12 -7 -21 -22z"/>
<path d="M6880 2909 c0 -5 5 -7 10 -4 6 3 10 8 10 11 0 2 -4 4 -10 4 -5 0 -10
-5 -10 -11z"/>
<path d="M8401 2889 c-13 -38 -14 -49 -3 -49 12 0 33 63 23 73 -5 5 -13 -6
-20 -24z"/>
<path d="M7582 2898 c-7 -7 -12 -16 -12 -20 0 -15 15 -8 28 12 13 22 3 27 -16
8z"/>
<path d="M3340 2884 c0 -9 5 -14 12 -12 18 6 21 28 4 28 -9 0 -16 -7 -16 -16z"/>
<path d="M8643 2888 c-17 -21 -25 -56 -14 -62 5 -4 15 10 21 30 13 38 9 53 -7
32z"/>
<path d="M8700 2880 c-13 -24 -4 -60 14 -60 6 0 19 13 29 29 21 36 21 42 2 35
-8 -4 -15 -1 -15 5 0 18 -19 12 -30 -9z"/>
<path d="M4256 2881 c-5 -8 -3 -17 5 -22 18 -11 26 -11 34 1 3 6 0 10 -9 10
-8 0 -16 5 -18 12 -3 9 -6 9 -12 -1z"/>
<path d="M3104 2845 c-31 -41 -25 -59 9 -24 44 47 51 59 34 59 -9 0 -28 -16
-43 -35z"/>
<path d="M3233 2865 c-8 -22 6 -33 17 -15 13 20 12 30 0 30 -6 0 -13 -7 -17
-15z"/>
<path d="M3287 2873 c-4 -3 -7 -11 -7 -17 0 -6 5 -5 12 2 6 6 9 14 7 17 -3 3
-9 2 -12 -2z"/>
<path d="M6003 2856 c-29 -30 -29 -40 -1 -25 18 10 24 8 35 -7 11 -15 13 -16
13 -2 0 9 -5 20 -10 23 -20 12 2 26 31 20 18 -4 29 -3 29 4 0 6 -17 11 -37 11
-27 0 -45 -7 -60 -24z"/>
<path d="M7452 2853 c-24 -33 -28 -53 -12 -53 6 0 10 6 10 14 0 8 7 22 16 30
8 9 14 21 12 28 -2 6 -14 -2 -26 -19z"/>
<path d="M7502 2868 c-17 -17 -15 -38 3 -38 12 0 35 28 35 44 0 11 -26 6 -38
-6z"/>
<path d="M4160 2850 c-6 -11 -7 -20 -2 -20 10 0 32 21 32 32 0 16 -19 8 -30
-12z"/>
<path d="M4405 2860 c-3 -5 3 -10 14 -10 12 0 21 5 21 10 0 6 -6 10 -14 10 -8
0 -18 -4 -21 -10z"/>
<path d="M7405 2860 c-3 -6 1 -7 9 -4 18 7 21 14 7 14 -6 0 -13 -4 -16 -10z"/>
<path d="M3706 2849 c-8 -19 18 -89 32 -89 6 0 4 17 -3 38 -24 73 -22 69 -29
51z"/>
<path d="M3735 2850 c-3 -6 1 -13 10 -16 19 -8 30 0 20 15 -8 14 -22 14 -30 1z"/>
<path d="M6660 2846 c0 -21 17 -29 37 -17 17 10 17 10 1 11 -10 0 -18 5 -18
10 0 6 -4 10 -10 10 -5 0 -10 -6 -10 -14z"/>
<path d="M8770 2831 c-17 -33 -11 -47 10 -21 11 14 20 28 20 33 0 14 -20 7
-30 -12z"/>
<path d="M8826 2834 c-9 -22 3 -32 14 -14 12 19 12 30 1 30 -5 0 -12 -7 -15
-16z"/>
<path d="M1430 2840 c-7 -17 -6 -71 0 -75 11 -7 18 38 9 61 -4 10 -8 17 -9 14z"/>
<path d="M3290 2815 c-13 -14 -21 -27 -18 -30 2 -3 15 6 28 20 13 14 21 27 18
30 -2 3 -15 -6 -28 -20z"/>
<path d="M3345 2810 c-16 -16 -26 -32 -24 -35 3 -3 18 9 34 25 16 16 26 32 24
35 -3 3 -18 -9 -34 -25z"/>
<path d="M5815 2830 c3 -5 16 -10 28 -9 21 0 21 1 2 9 -28 12 -37 12 -30 0z"/>
<path d="M6550 2825 c0 -17 35 -21 45 -5 3 6 -1 7 -9 4 -9 -3 -16 -1 -16 5 0
6 -4 11 -10 11 -5 0 -10 -7 -10 -15z"/>
<path d="M8875 2829 c-4 -6 -5 -13 -2 -16 7 -7 27 6 27 18 0 12 -17 12 -25 -2z"/>
<path d="M3220 2795 c-19 -19 -30 -35 -24 -35 11 0 68 59 62 65 -2 3 -20 -11
-38 -30z"/>
<path d="M3386 2805 c-9 -14 -13 -25 -9 -25 12 1 46 50 35 50 -6 0 -17 -11
-26 -25z"/>
<path d="M3435 2800 c-16 -16 -26 -32 -24 -35 3 -2 21 11 39 30 19 19 29 35
24 35 -6 0 -23 -13 -39 -30z"/>
<path d="M6470 2810 c0 -11 6 -20 14 -20 9 0 12 7 9 20 -3 11 -9 20 -14 20 -5
0 -9 -9 -9 -20z"/>
<path d="M7357 2823 c-14 -13 -7 -53 9 -53 14 0 14 3 4 15 -10 12 -10 18 0 30
12 14 0 22 -13 8z"/>
<path d="M1472 2808 c-14 -14 -16 -58 -3 -58 7 0 22 60 17 67 -1 2 -8 -3 -14
-9z"/>
<path d="M2587 2813 c-12 -12 -7 -22 8 -17 8 4 15 10 15 15 0 11 -14 12 -23 2z"/>
<path d="M2838 2788 c-30 -41 -41 -58 -34 -58 8 0 69 81 64 86 -3 2 -16 -10
-30 -28z"/>
<path d="M6080 2810 c-13 -8 -12 -10 3 -10 9 0 17 5 17 10 0 12 -1 12 -20 0z"/>
<path d="M6410 2801 c0 -11 5 -23 10 -26 6 -3 10 3 10 14 0 11 -4 23 -10 26
-5 3 -10 -3 -10 -14z"/>
<path d="M7224 2785 c-16 -40 -18 -69 -4 -60 6 3 10 15 10 26 0 11 7 31 16 44
11 17 12 25 5 25 -7 0 -19 -16 -27 -35z"/>
<path d="M7285 2790 c-17 -34 -13 -50 13 -50 15 0 15 2 2 10 -13 8 -13 13 2
40 9 16 13 30 8 30 -5 0 -17 -14 -25 -30z"/>
<path d="M7495 2781 c-43 -36 -88 -59 -82 -42 1 3 -2 6 -8 6 -5 0 -9 -3 -8 -6
1 -3 -14 -4 -33 -3 -28 3 -34 0 -34 -16 0 -24 -34 -47 -81 -57 -32 -6 -33 -5
-19 12 8 10 33 26 55 36 48 22 33 25 -18 4 -20 -8 -43 -25 -52 -37 -14 -21
-14 -24 1 -35 15 -11 15 -16 -4 -57 -13 -27 -39 -57 -67 -77 -35 -25 -42 -35
-34 -46 15 -17 23 -17 16 2 -9 21 14 31 25 11 5 -9 14 -16 20 -16 9 0 9 3 0
12 -17 17 -16 21 21 60 17 20 40 46 49 59 13 19 17 20 18 7 0 -9 -6 -23 -13
-30 -7 -7 -21 -24 -30 -38 -14 -22 -15 -29 -3 -52 13 -24 12 -28 -7 -45 -19
-17 -20 -17 -14 0 9 24 -6 21 -33 -8 -22 -23 -22 -26 -7 -49 19 -28 83 -43
136 -31 50 11 46 25 -6 19 -26 -3 -60 -1 -75 5 l-26 10 35 37 c26 28 31 39 21
46 -10 7 -8 13 10 27 12 11 22 23 22 29 0 5 9 17 20 27 17 15 20 16 15 3 -4
-9 -2 -19 3 -22 9 -5 26 29 23 47 -1 4 8 26 19 48 20 38 20 59 -1 59 -5 0 -9
-9 -9 -20 0 -11 -7 -23 -15 -27 -24 -8 -32 7 -12 21 9 7 17 18 17 23 0 13 77
43 110 43 14 0 34 7 44 15 11 8 28 15 39 15 11 0 17 5 14 13 -2 6 2 19 10 29
30 34 -7 27 -52 -11z m-211 -130 c6 -10 -22 -37 -29 -29 -8 7 5 38 15 38 5 0
11 -4 14 -9z m20 -66 c-9 -14 -23 -25 -31 -25 -11 0 -10 5 4 25 25 34 49 34
27 0z m-67 -82 c-15 -16 -17 -16 -17 -1 0 9 6 18 13 21 20 7 22 -2 4 -20z"/>
<path d="M1340 2792 c0 -22 26 -59 35 -50 6 6 -21 68 -30 68 -3 0 -5 -8 -5
-18z"/>
<path d="M3155 2780 c-16 -16 -24 -30 -19 -30 6 0 23 14 39 30 16 17 24 30 19
30 -6 0 -23 -13 -39 -30z"/>
<path d="M6367 2803 c-11 -10 -8 -41 4 -49 6 -3 14 -2 18 2 9 11 -13 57 -22
47z"/>
<path d="M2395 2763 c-27 -40 -31 -53 -15 -53 10 0 60 69 60 82 0 19 -21 5
-45 -29z"/>
<path d="M3790 2792 c0 -6 37 -81 45 -90 5 -6 35 11 35 20 0 5 -4 7 -9 4 -11
-7 -41 37 -41 59 0 8 -7 15 -15 15 -8 0 -15 -3 -15 -8z"/>
<path d="M5965 2790 c-4 -6 9 -10 31 -10 42 0 42 4 2 14 -15 3 -30 2 -33 -4z"/>
<path d="M7186 2784 c-5 -13 -9 -15 -18 -6 -18 18 -71 -83 -63 -120 5 -20 3
-28 -7 -28 -7 0 -22 -17 -33 -38 -12 -23 -29 -38 -42 -40 -18 -3 -22 0 -16 15
4 12 -3 9 -20 -10 -15 -15 -27 -32 -27 -37 0 -4 -12 -18 -27 -29 -20 -15 -23
-20 -12 -21 10 0 30 15 46 33 16 17 37 33 46 33 22 2 21 -5 -5 -33 -12 -13
-17 -23 -11 -23 7 0 27 18 46 40 19 22 37 40 40 40 15 0 5 -20 -25 -50 -20
-19 -25 -28 -13 -22 11 6 31 22 44 36 28 30 51 24 24 -6 -14 -16 -14 -20 -3
-16 21 7 73 83 67 99 -3 9 -9 4 -17 -13 -16 -34 -40 -37 -40 -5 -1 21 -1 22
-15 3 -17 -23 -20 -4 -5 25 9 15 15 17 30 9 29 -16 35 -12 14 11 -21 23 -19
25 42 67 17 11 16 11 -3 2 -19 -9 -23 -8 -23 5 0 9 9 15 23 16 16 1 18 2 5 6
-22 6 -22 12 -2 41 9 13 14 25 11 28 -2 3 -7 -3 -11 -12z m-23 -42 c-3 -12
-12 -22 -20 -22 -14 0 -11 10 10 38 13 17 17 11 10 -16z m-24 -68 c-17 -21
-31 -17 -19 6 6 11 15 18 21 14 6 -4 6 -11 -2 -20z"/>
<path d="M8560 2769 c0 -17 4 -28 10 -24 6 3 10 17 10 31 0 13 -4 24 -10 24
-5 0 -10 -14 -10 -31z"/>
<path d="M1510 2768 c0 -16 5 -28 10 -28 13 0 13 20 0 40 -8 12 -10 9 -10 -12z"/>
<path d="M3460 2765 c-13 -14 -19 -25 -13 -25 5 0 20 11 33 25 13 14 19 25 13
25 -5 0 -20 -11 -33 -25z"/>
<path d="M3930 2781 c0 -6 5 -13 10 -16 6 -3 10 1 10 9 0 9 -4 16 -10 16 -5 0
-10 -4 -10 -9z"/>
<path d="M6684 2776 c-3 -9 -10 -14 -14 -11 -5 3 -20 -9 -34 -27 -14 -18 -28
-29 -32 -25 -4 3 -1 13 6 22 18 22 -1 18 -29 -6 -21 -17 -22 -22 -10 -29 20
-14 51 -2 76 28 13 15 23 21 23 15 0 -24 18 -13 23 15 6 31 1 43 -9 18z"/>
<path d="M6716 2775 c-26 -20 -11 -37 19 -23 14 6 25 15 25 19 0 14 -26 16
-44 4z"/>
<path d="M6853 2731 c-39 -62 -56 -71 -61 -33 -2 15 1 20 10 17 8 -3 23 4 34
16 19 22 19 22 -3 10 -12 -6 -29 -11 -39 -11 -9 0 -22 -8 -29 -17 -11 -14 -9
-20 11 -36 31 -24 30 -37 0 -37 -14 0 -32 -10 -40 -22 -26 -36 -18 -44 13 -14
16 15 31 24 34 19 3 -5 -11 -22 -31 -39 -20 -16 -54 -45 -76 -65 -39 -33 -43
-35 -68 -22 -36 18 -35 25 6 47 19 10 33 25 32 34 0 10 6 17 14 17 8 0 21 4
29 9 10 6 12 5 7 -2 -4 -7 -2 -12 4 -12 7 0 10 6 7 14 -3 7 0 19 6 26 10 10 7
10 -10 1 -16 -8 -23 -8 -23 -1 0 6 -4 9 -9 5 -6 -3 -14 3 -20 12 -8 14 -11 15
-12 3 -2 -17 -3 -23 -14 -67 -5 -23 -13 -33 -26 -33 -25 0 -44 -47 -27 -67 7
-9 21 -12 35 -8 13 3 23 2 23 -3 0 -15 -89 -102 -102 -100 -7 2 -12 -4 -10
-12 3 -12 1 -13 -9 -2 -31 30 -38 8 -9 -27 l20 -23 35 31 c20 17 45 31 57 31
21 0 21 1 4 13 -18 13 -18 15 5 55 20 34 28 40 46 35 14 -3 23 -1 23 6 0 6 -6
11 -12 11 -13 1 20 33 86 83 20 16 47 48 59 72 12 23 35 64 51 89 16 26 26 49
23 52 -3 4 -23 -21 -44 -55z"/>
<path d="M2854 2756 c-9 -15 -14 -29 -11 -32 3 -3 13 6 23 20 9 15 14 29 11
32 -3 3 -13 -6 -23 -20z"/>
<path d="M2995 2767 c-33 -20 -49 -57 -25 -57 6 0 10 6 10 14 0 7 9 16 20 19
11 3 20 12 20 21 0 19 1 18 -25 3z"/>
<path d="M3060 2750 c-19 -16 -30 -29 -24 -30 5 0 23 14 39 30 37 38 29 39
-15 0z"/>
<path d="M3876 2766 c3 -9 11 -16 16 -16 13 0 5 23 -10 28 -7 2 -10 -2 -6 -12z"/>
<path d="M7720 2773 c1 -34 130 -127 130 -94 0 6 -6 11 -13 11 -7 0 -36 21
-65 46 -28 25 -52 42 -52 37z"/>
<path d="M5862 2754 c-12 -8 -22 -23 -22 -33 0 -10 -6 -24 -14 -30 -11 -10
-19 -7 -35 10 -15 16 -21 18 -21 8 0 -8 16 -29 35 -48 32 -31 35 -32 35 -12 0
12 6 24 14 27 8 3 12 12 10 19 -3 7 0 16 6 20 9 6 9 10 -1 16 -9 5 -5 10 14
14 15 4 27 11 27 16 0 14 -23 11 -48 -7z"/>
<path d="M7062 2756 c-19 -7 -38 -19 -43 -29 -15 -26 -29 -21 -29 11 -1 25 -1
26 -12 7 -6 -11 -34 -42 -62 -68 -40 -37 -45 -45 -23 -36 15 7 27 16 27 21 0
4 13 8 29 8 18 0 31 6 35 17 5 11 10 13 17 6 7 -7 18 -3 35 14 31 31 36 27 22
-19 -9 -31 -16 -37 -47 -43 -20 -4 -42 -11 -48 -17 -9 -7 -13 -7 -13 2 0 6
-18 -3 -40 -20 -23 -18 -38 -35 -36 -38 3 -3 14 2 23 10 32 27 43 31 36 11 -5
-15 -3 -16 8 -5 7 6 19 12 27 12 7 0 20 7 29 15 8 9 20 14 26 12 14 -4 58 33
51 44 -3 5 2 24 11 44 22 45 17 54 -23 41z"/>
<path d="M7762 2758 c5 -15 28 -23 28 -10 0 5 -7 13 -16 16 -10 4 -14 1 -12
-6z"/>
<path d="M8432 2744 c1 -9 9 -19 16 -22 9 -3 13 2 10 14 -1 9 -9 19 -16 22 -9
3 -13 -2 -10 -14z"/>
<path d="M2917 2720 c-22 -36 -6 -41 17 -5 18 27 20 35 8 35 -4 0 -16 -13 -25
-30z"/>
<path d="M3753 2734 c-3 -8 -1 -20 6 -27 8 -8 11 -4 11 16 0 30 -7 35 -17 11z"/>
<path d="M5790 2742 c0 -12 19 -26 26 -19 2 2 -2 10 -11 17 -9 8 -15 8 -15 2z"/>
<path d="M6522 2727 c-26 -27 -29 -57 -6 -57 11 0 14 5 10 16 -4 10 1 25 10
36 25 27 11 32 -14 5z"/>
<path d="M2166 2721 c-11 -12 -15 -27 -12 -39 4 -13 1 -22 -9 -26 -8 -3 -15
-13 -15 -23 0 -13 6 -11 30 12 19 18 28 35 25 46 -3 10 -1 20 5 24 12 7 13 25
2 25 -5 0 -17 -9 -26 -19z"/>
<path d="M2527 2723 c-4 -3 -7 -15 -7 -25 0 -26 24 -17 28 10 3 21 -8 29 -21
15z"/>
<path d="M7549 2686 c-17 -58 -25 -59 -21 -3 3 49 -12 33 -22 -23 -8 -47 -6
-56 14 -52 10 2 20 -4 24 -13 3 -9 11 -13 16 -10 8 5 8 11 0 20 -8 10 -7 16 3
22 16 9 47 66 47 85 -1 7 -12 -7 -25 -32 -25 -46 -35 -42 -13 5 8 18 8 29 1
36 -7 7 -15 -4 -24 -35z"/>
<path d="M5945 2710 c3 -5 16 -10 28 -10 18 0 19 2 7 10 -20 13 -43 13 -35 0z"/>
<path d="M7621 2699 c-7 -12 -10 -23 -8 -26 3 -3 11 5 17 17 15 28 8 35 -9 9z"/>
<path d="M7477 2679 c-18 -44 -42 -65 -27 -24 12 33 12 35 0 35 -5 0 -10 -7
-10 -16 0 -23 -50 -84 -64 -78 -7 3 -19 -2 -26 -11 -10 -12 -10 -15 1 -15 10
0 10 -3 2 -11 -15 -15 -5 -39 14 -39 12 0 13 3 4 14 -10 11 -6 19 21 38 18 13
42 28 53 34 23 12 59 78 52 97 -2 6 -11 -4 -20 -24z"/>
<path d="M2445 2690 c-8 -13 4 -32 16 -25 12 8 12 35 0 35 -6 0 -13 -4 -16
-10z"/>
<path d="M6458 2681 c-9 -15 -16 -17 -30 -10 -13 7 -18 6 -18 -5 0 -27 62 -37
85 -15 7 7 4 8 -7 4 -21 -8 -22 -2 -8 26 14 26 -6 26 -22 0z"/>
<path d="M5918 2683 c10 -4 9 -9 -5 -20 -17 -14 -17 -14 3 -10 12 2 29 0 38
-5 19 -10 20 -4 6 23 -6 10 -21 19 -33 18 -12 0 -16 -3 -9 -6z"/>
<path d="M7402 2677 c-11 -14 -26 -77 -18 -77 11 0 46 79 37 84 -5 3 -13 0
-19 -7z"/>
<path d="M7647 2683 c-4 -3 -7 -15 -7 -25 0 -10 -4 -18 -10 -18 -5 0 -10 -7
-10 -15 0 -26 21 -16 33 15 6 17 17 30 25 30 7 0 10 5 7 10 -7 11 -28 13 -38
3z"/>
<path d="M4220 2651 c0 -36 19 -91 32 -91 6 0 7 8 3 18 -4 9 -10 36 -12 60 -6
47 -23 58 -23 13z"/>
<path d="M6288 2674 c-3 -2 -3 -16 -1 -31 4 -26 7 -28 49 -25 28 3 44 9 44 17
0 7 3 22 6 32 4 12 -3 8 -19 -11 -24 -28 -47 -29 -47 -1 0 13 -24 28 -32 19z"/>
<path d="M6710 2669 c0 -5 5 -7 10 -4 6 3 10 8 10 11 0 2 -4 4 -10 4 -5 0 -10
-5 -10 -11z"/>
<path d="M2564 2655 c-9 -22 1 -29 15 -11 8 10 9 16 1 21 -5 3 -13 -1 -16 -10z"/>
<path d="M4270 2651 c0 -11 -3 -27 -7 -37 -4 -11 -3 -15 4 -11 6 4 16 20 21
37 9 24 8 30 -4 30 -7 0 -14 -9 -14 -19z"/>
<path d="M4326 2648 c-20 -29 -21 -68 -1 -68 8 0 15 -4 15 -10 0 -11 39 -13
64 -4 27 10 17 21 -15 16 -29 -4 -30 -3 -19 17 10 20 10 21 -9 9 -27 -17 -37
-4 -22 28 15 34 8 42 -13 12z"/>
<path d="M6172 2630 c-9 -16 -25 -30 -34 -30 -20 0 -24 15 -8 25 6 3 10 11 10
16 0 6 -5 7 -12 3 -7 -4 -22 -8 -35 -9 -12 0 -28 -6 -34 -12 -8 -8 -18 -8 -35
-1 -18 9 -28 7 -48 -10 l-26 -20 26 -17 c19 -12 29 -14 37 -6 8 8 6 11 -7 11
-11 0 -16 6 -14 17 4 24 25 27 30 5 10 -38 107 -31 155 11 18 16 25 18 38 7
20 -17 45 -5 45 21 0 18 -2 20 -15 9 -12 -10 -19 -10 -27 -2 -18 18 -27 15
-46 -18z m-82 -25 c0 -8 -7 -15 -15 -15 -16 0 -20 12 -8 23 11 12 23 8 23 -8z"/>
<path d="M7980 2635 c-13 -14 -20 -25 -16 -25 11 0 50 39 44 45 -2 3 -15 -6
-28 -20z"/>
<path d="M2297 2618 c-15 -18 -27 -37 -27 -41 0 -5 -12 -24 -26 -43 -15 -19
-22 -34 -16 -34 12 0 59 59 90 113 26 46 15 48 -21 5z"/>
<path d="M5768 2606 c-3 -28 0 -36 16 -40 26 -7 26 -7 13 37 -15 46 -24 47
-29 3z"/>
<path d="M8772 2616 c-9 -19 -8 -25 4 -30 9 -4 14 1 14 14 0 11 5 20 10 20 6
0 10 5 10 10 0 20 -27 10 -38 -14z"/>
<path d="M2352 2603 c-10 -16 -31 -50 -46 -76 -25 -43 -26 -48 -9 -45 10 2 30
26 46 58 15 30 32 59 37 64 13 13 13 26 1 26 -5 0 -18 -12 -29 -27z"/>
<path d="M5875 2623 c-26 -7 -62 -43 -42 -43 7 0 17 4 23 9 5 5 29 16 54 25
39 13 41 15 15 14 -16 0 -39 -3 -50 -5z"/>
<path d="M6495 2599 c-34 -30 -36 -31 -50 -13 -7 10 -16 16 -20 12 -12 -12 15
-48 41 -54 30 -8 45 3 24 17 -13 8 -11 13 9 29 26 23 49 17 29 -7 -11 -14 -10
-15 10 -9 35 11 26 -12 -10 -28 -18 -8 -42 -21 -53 -30 -19 -16 -19 -16 7 -6
41 14 108 59 108 72 0 6 8 21 18 32 17 20 17 20 -10 3 -16 -10 -28 -13 -28 -7
0 6 -4 8 -10 5 -5 -3 -10 -1 -10 4 0 19 -18 12 -55 -20z"/>
<path d="M8717 2610 c-3 -11 -1 -23 5 -26 11 -7 14 -5 22 24 5 16 3 22 -7 22
-8 0 -17 -9 -20 -20z"/>
<path d="M1320 2575 c0 -25 5 -45 10 -45 6 0 10 20 10 45 0 25 -4 45 -10 45
-5 0 -10 -20 -10 -45z"/>
<path d="M8646 2611 c-9 -13 3 -39 21 -45 23 -9 25 -2 12 28 -13 27 -24 33
-33 17z"/>
<path d="M8827 2602 c-16 -17 -23 -42 -13 -42 2 0 12 -3 21 -7 14 -5 16 -2 11
15 -4 11 -2 23 4 27 12 7 13 25 2 25 -5 0 -16 -8 -25 -18z"/>
<path d="M1383 2588 c-13 -18 -17 -78 -5 -78 8 0 25 80 18 88 -2 1 -7 -3 -13
-10z"/>
<path d="M7460 2570 c0 -11 4 -20 8 -20 4 0 8 9 8 20 0 11 -4 20 -8 20 -4 0
-8 -9 -8 -20z"/>
<path d="M1461 2553 c-8 -18 -9 -29 -2 -36 13 -13 17 -9 24 31 8 39 -5 42 -22
5z"/>
<path d="M2157 2543 c-15 -20 -24 -39 -21 -42 6 -6 63 59 64 72 0 17 -19 4
-43 -30z"/>
<path d="M4440 2566 c0 -16 6 -18 45 -13 44 4 63 12 54 21 -3 3 -21 1 -41 -3
-23 -6 -40 -5 -47 2 -8 8 -11 6 -11 -7z"/>
<path d="M6939 2567 c-31 -14 -103 -94 -76 -84 10 4 25 7 32 7 8 0 28 20 45
45 17 25 30 45 28 44 -2 0 -15 -6 -29 -12z"/>
<path d="M8885 2569 c-4 -6 -5 -13 -2 -16 7 -7 27 6 27 18 0 12 -17 12 -25 -2z"/>
<path d="M1248 2530 c17 -40 32 -52 32 -26 0 28 -20 66 -34 66 -12 0 -12 -6 2
-40z"/>
<path d="M6364 2555 c8 -23 -22 -33 -66 -23 -27 6 -45 5 -53 -2 -8 -6 -24 -13
-37 -14 -31 -4 -78 -27 -78 -39 0 -5 12 -2 26 8 18 12 29 14 37 6 7 -7 18 -4
35 9 14 11 29 20 35 20 6 0 3 -6 -7 -13 -29 -21 95 -14 144 8 l41 18 -28 19
c-34 22 -57 24 -49 3z m11 -35 c3 -5 -1 -10 -10 -10 -9 0 -13 5 -10 10 3 6 8
10 10 10 2 0 7 -4 10 -10z"/>
<path d="M3871 2532 c-25 -14 -40 -27 -33 -30 14 -4 82 36 82 49 0 5 -1 9 -2
8 -2 -1 -23 -13 -47 -27z"/>
<path d="M4190 2550 c0 -8 25 -20 41 -20 20 0 7 18 -16 22 -14 3 -25 2 -25 -2z"/>
<path d="M7396 2552 c-3 -6 -1 -14 5 -17 14 -9 20 -2 10 14 -6 8 -11 9 -15 3z"/>
<path d="M7805 2547 c-4 -10 -5 -21 -1 -24 10 -10 18 4 13 24 -4 17 -4 17 -12
0z"/>
<path d="M1540 2534 c0 -9 5 -14 12 -12 18 6 21 28 4 28 -9 0 -16 -7 -16 -16z"/>
<path d="M6835 2535 c-6 -9 -27 -17 -48 -19 -30 -3 -42 -9 -52 -30 -16 -31 -9
-33 25 -6 26 21 56 27 45 10 -11 -17 7 -11 22 8 22 29 34 52 26 52 -5 0 -13
-7 -18 -15z"/>
<path d="M3781 2506 c-36 -38 -20 -45 17 -8 20 19 28 32 20 32 -8 0 -25 -11
-37 -24z"/>
<path d="M6008 2512 c-33 -2 -58 -8 -58 -14 0 -7 20 -9 55 -6 30 3 52 1 49 -4
-9 -14 11 -9 32 8 15 12 16 15 2 10 -9 -3 -18 -2 -20 2 -2 4 -29 6 -60 4z"/>
<path d="M7440 2491 c-12 -30 -50 -72 -50 -55 0 5 7 18 15 28 22 29 18 42 -5
21 -11 -10 -20 -24 -20 -32 0 -7 -4 -13 -10 -13 -5 0 -10 4 -10 9 0 6 5 13 10
16 12 8 13 25 1 25 -5 0 -14 -13 -21 -30 -7 -16 -16 -30 -21 -30 -13 0 -11 14
3 28 9 9 9 15 0 24 -9 9 -23 1 -64 -40 -53 -53 -60 -77 -14 -47 14 10 26 14
26 10 0 -4 7 -1 16 6 15 12 16 11 10 -9 l-7 -22 34 20 c40 23 60 11 33 -19 -9
-10 -16 -25 -16 -33 0 -10 -12 -19 -32 -23 -44 -9 -210 -65 -223 -75 -17 -13
-86 -29 -150 -34 -76 -7 -203 -24 -232 -32 -15 -4 -23 -2 -23 5 0 7 8 11 18 9
13 -2 16 3 14 25 -3 22 7 38 56 86 55 54 63 58 118 65 78 10 79 10 152 -5 45
-9 65 -10 73 -2 8 8 -5 15 -47 24 -70 15 -104 16 -164 5 -43 -7 -47 -5 -80 28
-40 41 -50 42 -107 17 -43 -20 -76 -62 -54 -69 6 -2 11 -19 11 -38 0 -20 5
-45 11 -56 15 -28 -2 -63 -33 -65 -16 -2 -27 5 -33 19 -12 27 -73 59 -111 59
-39 0 -155 -17 -176 -26 -10 -4 -18 -3 -18 1 0 5 -15 10 -32 11 -72 5 -184 20
-199 27 -17 8 -39 47 -39 71 0 8 -5 15 -11 15 -8 0 -10 -12 -6 -35 3 -19 4
-35 1 -35 -3 0 -16 23 -29 52 l-24 51 -14 -34 -15 -34 -10 27 c-7 15 -9 35 -6
43 4 10 0 15 -10 15 -23 0 -20 -46 5 -82 15 -21 27 -28 41 -24 12 3 29 -3 41
-15 11 -10 26 -18 31 -18 26 3 46 -2 46 -11 0 -13 -47 -13 -55 0 -5 8 -11 7
-21 -1 -11 -9 -15 -8 -20 5 -3 9 -15 16 -26 16 -20 0 -57 36 -58 56 0 18 -37
47 -45 35 -3 -6 0 -14 8 -17 9 -3 18 -15 21 -28 8 -33 126 -152 169 -170 20
-8 37 -12 37 -9 0 3 8 -1 18 -9 9 -8 31 -15 47 -15 l30 -1 -31 13 c-17 7 -36
21 -43 29 -8 9 -24 16 -37 16 -12 0 -26 5 -29 10 -3 6 4 10 16 10 18 0 19 2 9
15 -10 12 -10 15 4 15 9 0 16 -7 16 -15 0 -8 9 -15 20 -15 13 0 20 -7 20 -19
0 -27 59 -41 72 -17 7 13 13 14 30 5 11 -6 29 -8 40 -6 11 3 29 1 39 -6 15 -9
21 -8 33 8 11 15 17 17 28 8 15 -13 82 -13 94 0 4 4 14 7 22 7 12 0 12 -4 -3
-20 -14 -16 -31 -20 -81 -20 -34 0 -93 -6 -131 -14 -117 -24 -188 -29 -212
-15 -16 11 -23 11 -33 1 -9 -9 -7 -12 10 -12 12 0 22 -4 22 -8 0 -14 -189 -53
-298 -62 -57 -4 -106 -11 -109 -14 -4 -3 1 -6 10 -6 9 0 17 -6 17 -13 0 -9
-10 -12 -30 -9 -42 6 -127 -8 -110 -18 10 -6 8 -9 -6 -14 -10 -3 -5 -3 11 -1
17 3 61 8 98 11 42 5 63 10 55 15 -7 5 8 7 36 5 28 -2 61 0 75 6 14 5 75 15
135 23 112 15 153 22 281 49 39 9 97 18 130 21 33 3 68 8 78 11 10 3 17 0 17
-8 0 -9 3 -9 8 -2 11 16 41 24 47 13 4 -5 21 -7 38 -4 18 3 51 7 73 9 23 2 52
11 65 19 28 18 147 39 239 42 70 3 143 19 175 39 22 14 200 76 218 76 6 0 30
10 54 21 51 25 66 19 35 -14 -12 -13 -22 -26 -22 -30 0 -12 131 0 143 13 10
10 6 11 -18 5 -44 -10 -29 -1 46 29 37 15 73 24 81 21 8 -3 28 -1 44 5 20 8
30 8 32 1 7 -20 29 -11 40 14 15 32 15 35 -1 35 -7 0 -18 9 -25 20 -7 11 -23
20 -36 20 -14 0 -28 4 -31 10 -8 13 39 24 75 16 26 -5 30 -2 30 15 0 17 -5 20
-25 17 -13 -3 -26 -1 -27 4 -2 5 -20 2 -41 -7 -21 -9 -37 -11 -37 -5 0 21 -16
8 -49 -40 -24 -35 -37 -47 -42 -38 -6 8 0 19 14 30 12 9 19 19 16 23 -4 3 -17
-7 -30 -22 -21 -24 -28 -27 -50 -19 l-27 9 20 34 c11 19 17 37 13 41 -4 4 -9
3 -11 -3 -10 -26 -46 -77 -51 -71 -3 3 2 17 11 30 18 28 21 46 7 46 -5 0 -14
-13 -21 -29z m194 -50 c3 -5 -1 -12 -10 -15 -27 -11 -37 -7 -24 9 14 17 26 19
34 6z m-834 -31 l21 -30 -28 -35 c-33 -42 -70 -68 -83 -60 -25 15 -1 141 28
148 34 9 41 7 62 -23z m905 10 c3 -5 -3 -10 -15 -10 -12 0 -18 5 -15 10 3 6
10 10 15 10 5 0 12 -4 15 -10z m-285 -30 c0 -5 -7 -10 -16 -10 -8 0 -12 5 -9
10 3 6 10 10 16 10 5 0 9 -4 9 -10z m290 0 c0 -5 -6 -10 -14 -10 -8 0 -21 -3
-30 -6 -9 -3 -16 -1 -16 4 0 9 9 13 53 21 4 0 7 -3 7 -9z m-240 -44 c0 -3 -4
-8 -10 -11 -5 -3 -10 -1 -10 4 0 6 5 11 10 11 6 0 10 -2 10 -4z m-950 -87 c0
-5 -4 -9 -10 -9 -5 0 -10 7 -10 16 0 8 5 12 10 9 6 -3 10 -10 10 -16z m77 -29
c18 -21 16 -25 -13 -39 -34 -15 -42 -7 -18 20 18 20 18 22 1 34 -9 6 -17 16
-17 20 0 9 29 -13 47 -35z m-417 22 c0 -13 -12 -22 -22 -16 -10 6 -1 24 13 24
5 0 9 -4 9 -8z m275 -2 c-3 -5 -10 -10 -16 -10 -5 0 -9 5 -9 10 0 6 7 10 16
10 8 0 12 -4 9 -10z m25 -20 c0 -5 -4 -10 -10 -10 -5 0 -10 5 -10 10 0 6 5 10
10 10 6 0 10 -4 10 -10z m60 0 c0 -5 -4 -10 -10 -10 -5 0 -10 5 -10 10 0 6 5
10 10 10 6 0 10 -4 10 -10z m-330 -10 c0 -5 -4 -10 -10 -10 -5 0 -10 5 -10 10
0 6 5 10 10 10 6 0 10 -4 10 -10z m135 0 c-3 -5 -10 -10 -16 -10 -5 0 -9 5 -9
10 0 6 7 10 16 10 8 0 12 -4 9 -10z m65 0 c0 -5 -4 -10 -10 -10 -5 0 -10 5
-10 10 0 6 5 10 10 10 6 0 10 -4 10 -10z m260 -24 c0 -7 -9 -16 -20 -19 -24
-6 -25 -3 -4 17 19 20 24 20 24 2z m-60 -20 c0 -2 -7 -7 -16 -10 -8 -3 -12 -2
-9 4 6 10 25 14 25 6z m-485 -76 c-3 -5 -18 -10 -33 -10 -21 0 -24 2 -12 10
20 13 53 13 45 0z"/>
<path d="M4070 2500 c-8 -5 -11 -12 -7 -16 4 -4 13 -2 19 4 15 15 7 24 -12 12z"/>
<path d="M6510 2490 c0 -13 38 -32 51 -25 6 4 3 12 -8 21 -21 16 -43 18 -43 4z"/>
<path d="M6457 2483 c-12 -11 15 -33 41 -33 l25 0 -26 20 c-28 22 -31 23 -40
13z"/>
<path d="M7050 2465 l-25 -14 30 3 c16 2 31 8 33 15 5 15 -7 14 -38 -4z"/>
<path d="M6196 2454 c-21 -8 -45 -19 -52 -25 -15 -12 -9 -33 7 -23 6 3 8 -4 4
-18 -7 -29 1 -41 48 -67 34 -19 97 -29 97 -16 0 12 -33 55 -41 55 -5 0 -6 -12
-3 -26 9 -36 -9 -24 -26 16 -13 31 -34 39 -44 18 -3 -7 -3 -2 0 12 11 41 50
54 74 25 12 -15 67 -17 76 -3 3 4 28 5 57 3 29 -2 44 -2 34 1 -9 3 -24 19 -32
35 -20 37 -40 39 -30 2 l7 -28 -24 23 c-25 23 -44 30 -33 12 3 -5 2 -10 -4
-10 -5 0 -12 4 -15 9 -3 5 -15 7 -26 4 -11 -3 -20 0 -20 6 0 14 -5 13 -54 -5z"/>
<path d="M6400 2455 c0 -17 49 -44 68 -38 19 7 14 23 -7 23 -10 0 -24 7 -31
15 -16 19 -30 19 -30 0z"/>
<path d="M1670 2447 c0 -12 84 -97 96 -97 17 0 -4 32 -46 68 -29 25 -50 37
-50 29z"/>
<path d="M5968 2453 c-34 -9 -18 -20 27 -18 40 1 79 15 44 15 -8 0 -23 2 -34
4 -11 2 -28 2 -37 -1z"/>
<path d="M6059 2430 c-13 -10 -19 -19 -12 -20 6 0 15 4 18 10 3 5 20 14 38 19
30 9 31 9 6 10 -15 1 -37 -8 -50 -19z"/>
<path d="M7914 2439 c-36 -10 -59 -33 -49 -49 5 -8 12 -5 21 9 8 11 30 23 49
27 19 3 35 10 35 15 0 11 -14 10 -56 -2z"/>
<path d="M8552 2433 c2 -10 11 -19 21 -21 16 -3 17 -1 5 17 -16 25 -31 27 -26
4z"/>
<path d="M8607 2443 c-13 -12 -7 -33 8 -33 8 0 15 9 15 20 0 20 -11 26 -23 13z"/>
<path d="M8653 2435 c-8 -22 6 -33 17 -15 13 20 12 30 0 30 -6 0 -13 -7 -17
-15z"/>
<path d="M1320 2426 c0 -9 7 -16 16 -16 17 0 14 22 -4 28 -7 2 -12 -3 -12 -12z"/>
<path d="M1514 2427 c-8 -21 22 -87 40 -87 20 0 20 7 1 26 -8 9 -15 26 -15 39
0 28 -18 43 -26 22z"/>
<path d="M1601 2400 c35 -44 57 -53 38 -17 -17 33 -40 57 -56 57 -9 0 -2 -15
18 -40z"/>
<path d="M7115 2430 c-3 -5 -1 -10 4 -10 6 0 11 5 11 10 0 6 -2 10 -4 10 -3 0
-8 -4 -11 -10z"/>
<path d="M8713 2425 c-3 -9 -3 -18 0 -21 9 -9 27 6 27 22 0 19 -19 18 -27 -1z"/>
<path d="M5420 2390 c0 -22 5 -40 10 -40 6 0 10 18 10 40 0 22 -4 40 -10 40
-5 0 -10 -18 -10 -40z"/>
<path d="M7828 2423 c7 -3 16 -2 19 1 4 3 -2 6 -13 5 -11 0 -14 -3 -6 -6z"/>
<path d="M8775 2410 c-9 -15 -1 -23 21 -18 15 3 16 4 1 16 -11 9 -17 10 -22 2z"/>
<path d="M5320 2390 c-6 -11 -8 -25 -5 -30 11 -19 23 -10 27 20 5 34 -6 39
-22 10z"/>
<path d="M5467 2396 c-4 -10 -7 -30 -6 -44 1 -25 1 -25 10 6 11 37 7 67 -4 38z"/>
<path d="M6490 2400 c-8 -6 -34 -15 -58 -21 -35 -10 -41 -15 -37 -30 8 -26 -3
-24 -26 4 -14 16 -18 18 -19 7 0 -26 22 -40 60 -40 48 0 68 13 51 34 -12 14
-7 18 30 35 24 11 37 20 29 20 -8 0 -22 -4 -30 -9z"/>
<path d="M1460 2393 c0 -24 32 -113 40 -113 13 0 12 4 -3 64 -7 27 -18 51 -25
54 -7 2 -12 0 -12 -5z"/>
<path d="M8353 2388 c2 -7 7 -13 12 -13 5 0 10 6 13 13 2 6 -4 12 -13 12 -9 0
-15 -6 -12 -12z"/>
<path d="M8816 2384 c-4 -10 -1 -14 6 -12 15 5 23 28 10 28 -5 0 -13 -7 -16
-16z"/>
<path d="M1367 2384 c-12 -12 6 -34 27 -34 12 0 27 -5 34 -12 8 -8 12 -9 12
-1 0 12 -47 53 -60 53 -4 0 -9 -3 -13 -6z"/>
<path d="M5220 2382 c0 -16 32 -52 46 -52 19 0 18 5 -8 35 -21 25 -38 32 -38
17z"/>
<path d="M6080 2379 c0 -15 21 -53 34 -61 6 -4 18 -8 26 -8 13 1 12 2 -1 10
-9 5 -22 23 -29 40 -12 29 -30 41 -30 19z"/>
<path d="M3431 2333 c-34 -40 -51 -73 -38 -73 2 0 25 27 50 60 56 71 46 81
-12 13z"/>
<path d="M4348 2328 c-18 -29 -39 -62 -45 -73 -32 -50 -44 -77 -40 -88 2 -7
18 15 36 48 17 33 46 81 63 108 17 26 28 50 25 53 -3 4 -21 -18 -39 -48z"/>
<path d="M5490 2365 c0 -8 5 -15 10 -15 6 0 10 7 10 15 0 8 -4 15 -10 15 -5 0
-10 -7 -10 -15z"/>
<path d="M3502 2330 c-23 -21 -38 -41 -34 -44 10 -6 19 1 61 47 46 49 24 48
-27 -3z"/>
<path d="M3618 2354 c-38 -20 -36 -39 1 -19 30 15 49 35 34 35 -4 -1 -20 -8
-35 -16z"/>
<path d="M6280 2360 c0 -14 46 -60 60 -60 15 0 13 5 -17 39 -28 32 -43 39 -43
21z"/>
<path d="M3308 2354 c-9 -14 -8 -104 1 -104 9 0 34 40 47 78 11 31 -1 48 -12
17 -8 -20 -22 -19 -26 3 -2 10 -6 13 -10 6z"/>
<path d="M3720 2350 c-13 -8 -12 -10 3 -10 9 0 17 5 17 10 0 12 -1 12 -20 0z"/>
<path d="M4273 2338 c-5 -7 -17 -36 -26 -64 -9 -27 -19 -58 -23 -67 -3 -9 -2
-17 4 -17 5 0 22 34 36 76 27 74 29 98 9 72z"/>
<path d="M5650 2320 c0 -11 7 -20 15 -20 8 0 20 -9 27 -20 18 -28 51 -25 65 5
14 31 -2 33 -18 3 l-12 -22 -13 25 c-7 14 -24 30 -38 37 -23 10 -26 9 -26 -8z"/>
<path d="M6875 2300 c-38 -22 -77 -40 -86 -40 -9 0 -23 -7 -30 -16 -12 -15
-11 -16 11 -9 36 10 150 67 156 77 3 4 14 8 24 8 10 0 22 5 25 10 13 21 -33 7
-100 -30z"/>
<path d="M7025 2306 c-55 -11 -92 -22 -82 -24 18 -4 178 26 186 34 11 11 -12
9 -104 -10z"/>
<path d="M2846 2273 c-32 -33 -44 -53 -32 -53 2 0 24 20 48 45 25 25 40 45 33
45 -7 0 -29 -17 -49 -37z"/>
<path d="M2994 2275 c-21 -19 -34 -34 -28 -35 7 0 29 16 50 35 22 19 34 35 28
35 -6 0 -28 -16 -50 -35z"/>
<path d="M8269 2308 c0 -2 -10 -36 -22 -77 -22 -74 -41 -98 -50 -64 -3 10 -5
5 -4 -12 1 -20 9 -33 25 -40 12 -5 22 -13 22 -17 0 -42 74 69 76 115 2 36 -11
35 -25 -3 -5 -16 -15 -30 -22 -30 -7 0 -8 7 -4 18 4 9 9 31 10 47 1 17 5 38
10 48 4 10 3 17 -4 17 -6 0 -11 -1 -12 -2z m-13 -164 c-3 -9 -6 -18 -6 -20 0
-2 -7 -4 -15 -4 -13 0 -14 4 -5 20 13 24 35 27 26 4z"/>
<path d="M8295 2280 c-9 -18 -14 -34 -11 -37 2 -3 12 9 21 27 9 18 14 34 11
37 -2 3 -12 -9 -21 -27z"/>
<path d="M2945 2288 c-27 -15 -65 -50 -65 -60 0 -6 74 45 99 68 9 8 -15 3 -34
-8z"/>
<path d="M3064 2286 c-10 -8 -15 -18 -11 -22 4 -4 15 0 24 9 22 21 12 31 -13
13z"/>
<path d="M4186 2292 c-12 -19 -19 -132 -9 -132 6 0 13 30 17 66 7 65 4 85 -8
66z"/>
<path d="M8165 2287 c-4 -10 -2 -37 6 -60 16 -51 24 -23 11 38 -7 32 -11 36
-17 22z"/>
<path d="M8090 2286 c0 -10 28 -13 41 -5 10 6 7 9 -13 9 -16 0 -28 -2 -28 -4z"/>
<path d="M6933 2262 c-18 -2 -33 -7 -33 -11 0 -9 57 -7 67 2 10 10 1 12 -34 9z"/>
<path d="M3643 2220 c-20 -50 -38 -53 -30 -5 6 38 -7 49 -16 14 -7 -25 2 -79
13 -79 11 0 34 32 53 73 10 22 12 37 6 37 -6 0 -18 -18 -26 -40z"/>
<path d="M4410 2250 c0 -5 -21 -21 -47 -36 -59 -34 -58 -33 -50 -40 4 -4 17 0
31 9 26 17 42 12 25 -9 -17 -20 7 -26 40 -10 27 14 30 14 42 -4 14 -20 14 -20
54 -1 22 10 52 22 66 25 29 6 48 36 24 36 -8 0 -15 -4 -15 -10 0 -5 -7 -10
-15 -10 -9 0 -34 -9 -55 -20 -30 -15 -40 -17 -40 -7 0 7 5 18 12 25 19 19 -7
15 -52 -8 -44 -23 -49 -17 -20 20 21 27 26 50 10 50 -5 0 -10 -4 -10 -10z"/>
<path d="M8090 2249 c0 -17 64 -102 68 -90 5 16 -29 81 -49 92 -13 7 -19 6
-19 -2z"/>
<path d="M3540 2242 c0 -16 27 -82 34 -82 10 0 -7 65 -20 80 -10 10 -14 11
-14 2z"/>
<path d="M3697 2210 c-27 -38 -29 -69 -4 -53 12 7 119 24 147 23 8 0 27 0 43
0 15 0 27 -5 27 -11 0 -8 4 -8 15 1 29 24 15 30 -54 26 -48 -3 -71 -1 -74 7
-2 8 -12 6 -30 -6 -31 -20 -37 -5 -10 25 9 10 11 18 5 18 -6 0 -19 -11 -28
-25 -9 -14 -21 -25 -26 -25 -5 0 0 14 12 30 12 17 18 30 13 30 -4 0 -21 -18
-36 -40z"/>
<path d="M5950 2216 c0 -8 7 -17 16 -20 29 -11 34 -6 14 14 -24 24 -30 25 -30
6z"/>
<path d="M4070 2210 c0 -5 4 -10 9 -10 5 0 11 -9 14 -19 2 -10 14 -24 26 -30
20 -11 20 -10 9 16 -17 40 -58 71 -58 43z"/>
<path d="M5391 2181 c-23 -44 -27 -71 -11 -71 6 0 10 9 10 20 0 12 7 35 16 51
8 17 13 33 10 36 -2 3 -14 -13 -25 -36z"/>
<path d="M7792 2209 c3 -8 18 -15 34 -17 33 -4 24 11 -15 23 -17 5 -22 4 -19
-6z"/>
<path d="M7977 2213 c-4 -3 -7 -17 -7 -29 0 -20 -4 -23 -27 -18 -25 5 -30 1
-45 -38 -10 -24 -18 -49 -18 -56 0 -21 18 -13 23 11 4 12 13 31 22 42 15 20
15 20 40 -10 30 -36 37 -31 25 19 -14 63 7 90 32 39 7 -14 20 -28 28 -31 9 -2
11 0 4 5 -5 4 -16 23 -23 41 -13 30 -38 42 -54 25z"/>
<path d="M2176 2175 c-18 -42 -20 -55 -8 -55 10 0 36 80 28 87 -3 3 -12 -12
-20 -32z"/>
<path d="M2442 2198 c-16 -20 -27 -78 -14 -78 5 0 16 8 23 18 13 15 12 16 -3
3 -22 -17 -23 -3 -2 27 18 26 15 52 -4 30z"/>
<path d="M5442 2185 c-16 -34 -15 -75 1 -75 8 0 13 18 14 50 1 28 0 50 -1 50
-2 0 -8 -11 -14 -25z"/>
<path d="M5550 2186 c0 -24 22 -51 33 -40 8 8 -13 64 -24 64 -5 0 -9 -11 -9
-24z"/>
<path d="M5750 2196 c-6 -9 -10 -21 -8 -28 3 -8 9 -4 17 10 15 28 9 39 -9 18z"/>
<path d="M986 2192 c-3 -5 3 -18 14 -30 11 -11 29 -39 41 -61 23 -45 35 -56
43 -42 4 5 2 12 -4 16 -5 3 -20 29 -31 56 -21 48 -52 78 -63 61z"/>
<path d="M1507 2194 c-8 -9 24 -90 49 -122 36 -45 35 -21 -2 53 -40 78 -39 77
-47 69z"/>
<path d="M1676 2191 c-13 -20 -34 -100 -28 -105 12 -13 22 -5 22 18 0 12 5 37
11 55 11 31 7 53 -5 32z"/>
<path d="M5688 2194 c-10 -9 4 -44 17 -44 8 0 10 9 7 25 -4 24 -13 31 -24 19z"/>
<path d="M1106 2165 c-9 -34 3 -74 24 -85 16 -8 18 -4 22 35 2 25 0 45 -4 45
-5 0 -8 -12 -8 -26 0 -16 -4 -23 -11 -18 -6 3 -9 22 -7 40 5 39 -7 46 -16 9z"/>
<path d="M1610 2146 c0 -25 5 -48 10 -51 6 -4 10 13 10 44 0 28 -4 51 -10 51
-5 0 -10 -20 -10 -44z"/>
<path d="M2250 2172 c0 -10 -5 -23 -12 -30 -6 -6 -8 -15 -5 -19 10 -9 33 16
42 45 5 16 2 22 -9 22 -9 0 -16 -8 -16 -18z"/>
<path d="M2365 2159 c-9 -38 0 -48 22 -26 10 9 12 17 6 17 -6 0 -9 9 -6 20 3
11 1 20 -5 20 -6 0 -13 -14 -17 -31z"/>
<path d="M2486 2174 c-3 -9 -6 -23 -6 -32 0 -21 15 -5 25 26 7 25 -9 31 -19 6z"/>
<path d="M5312 2151 c-14 -47 -15 -69 -3 -55 9 9 26 94 18 94 -2 0 -9 -17 -15
-39z"/>
<path d="M8401 2150 c-12 -22 -34 -54 -48 -70 -28 -34 -24 -53 6 -26 11 10 24
16 29 13 4 -3 15 3 22 14 19 25 34 25 20 -1 -14 -26 2 -26 26 1 10 12 32 28
48 36 24 12 30 13 37 1 5 -7 9 -16 9 -20 0 -5 5 -8 11 -8 7 0 9 9 3 28 -4 15
-7 37 -7 50 1 33 -19 26 -50 -19 -27 -39 -52 -57 -64 -45 -3 3 1 14 10 24 19
21 22 32 8 32 -5 0 -12 -8 -15 -18 -4 -10 -20 -29 -38 -42 l-32 -23 24 39 c13
21 27 43 32 49 10 12 10 25 0 25 -5 0 -18 -18 -31 -40z"/>
<path d="M2056 2171 c-10 -16 5 -61 20 -61 11 0 13 7 8 28 -8 33 -20 47 -28
33z"/>
<path d="M2299 2153 c-6 -17 -6 -30 0 -36 11 -11 14 -5 24 41 7 31 -11 28 -24
-5z"/>
<path d="M8337 2162 c-19 -21 -22 -32 -8 -32 5 0 16 11 25 25 19 29 7 34 -17
7z"/>
<path d="M1884 2155 c-3 -8 -3 -19 1 -25 11 -18 25 -11 25 15 0 27 -17 34 -26
10z"/>
<path d="M2202 2153 c-18 -32 -16 -51 4 -31 9 8 14 24 12 34 -4 18 -5 17 -16
-3z"/>
<path d="M8078 2136 c-28 -35 -36 -66 -18 -66 6 0 10 8 10 18 0 10 9 28 21 40
11 13 19 27 17 32 -2 6 -15 -6 -30 -24z"/>
<path d="M1694 2126 c-18 -36 -15 -54 6 -41 6 4 9 14 6 22 -4 9 -1 22 5 30 7
7 9 16 6 19 -3 4 -14 -10 -23 -30z"/>
<path d="M1750 2141 c-12 -24 -14 -69 -1 -55 10 11 25 74 17 74 -3 0 -10 -9
-16 -19z"/>
<path d="M1811 2128 c-13 -36 -1 -57 19 -33 8 10 9 15 1 15 -7 0 -8 8 -1 25 5
14 6 25 1 25 -5 0 -14 -14 -20 -32z"/>
<path d="M7260 2113 c-31 -49 -37 -67 -20 -61 15 5 72 108 60 108 -6 0 -24
-21 -40 -47z"/>
<path d="M7401 2134 c-40 -33 -56 -63 -43 -76 7 -7 15 0 25 24 8 20 25 43 38
51 12 9 20 19 17 22 -3 3 -20 -6 -37 -21z"/>
<path d="M7503 2134 c-18 -14 -33 -32 -33 -40 0 -21 6 -18 50 26 45 45 33 54
-17 14z"/>
<path d="M7631 2125 c-41 -47 -40 -64 3 -60 34 3 81 23 73 31 -2 2 -23 -2 -45
-10 -50 -18 -53 -10 -12 29 17 16 30 32 30 37 0 17 -19 7 -49 -27z"/>
<path d="M1241 2123 c-7 -15 -8 -30 -3 -35 5 -5 13 7 19 27 13 41 2 47 -16 8z"/>
<path d="M1283 2102 c-2 -27 0 -33 7 -22 11 18 13 60 3 60 -5 0 -9 -17 -10
-38z"/>
<path d="M7160 2085 c0 -25 4 -45 9 -45 10 0 23 69 15 82 -13 21 -24 4 -24
-37z"/>
<path d="M7780 2118 c0 -8 42 -28 61 -28 22 0 6 16 -26 26 -19 6 -35 7 -35 2z"/>
<path d="M6970 2067 c0 -7 18 -23 40 -36 47 -26 52 -16 12 22 -30 29 -52 35
-52 14z"/>
<path d="M8511 2056 c-29 -16 -50 -52 -50 -86 -1 -20 3 -16 20 20 19 42 34 59
52 60 11 0 8 -17 -6 -32 -29 -29 -31 -98 -3 -98 8 0 11 11 8 29 -2 17 3 39 12
53 19 27 21 68 4 68 -7 -1 -24 -7 -37 -14z"/>
<path d="M8805 2047 c-18 -72 -10 -86 43 -81 37 3 72 32 72 60 0 23 -20 16
-33 -13 l-12 -27 -5 30 -6 29 -15 -30 c-8 -16 -19 -28 -24 -25 -6 3 -9 7 -9
10 12 41 14 70 5 70 -6 0 -13 -10 -16 -23z"/>
<path d="M8640 2041 c-24 -46 -8 -75 40 -75 36 0 50 11 50 37 -1 22 -1 22 -15
3 -14 -19 -15 -18 -15 10 l0 29 -26 -30 -25 -30 6 38 c7 41 1 47 -15 18z"/>
<path d="M8181 2029 c-24 -5 -47 -11 -50 -15 -9 -10 79 5 98 16 19 11 11 11
-48 -1z"/>
<path d="M5503 2023 c9 -2 23 -2 30 0 6 3 -1 5 -18 5 -16 0 -22 -2 -12 -5z"/>
<path d="M5413 2008 c-49 -16 -40 -29 15 -21 53 7 67 13 31 14 -22 0 -23 1 -4
9 28 12 -3 10 -42 -2z"/>
<path d="M6250 2005 c0 -8 5 -15 10 -15 6 0 10 7 10 15 0 8 -4 15 -10 15 -5 0
-10 -7 -10 -15z"/>
<path d="M6360 1994 c-13 -33 -13 -94 0 -94 10 0 11 4 16 78 3 48 -2 53 -16
16z"/>
<path d="M6450 2006 c-6 -9 -10 -21 -8 -28 3 -8 9 -4 17 10 15 28 9 39 -9 18z"/>
<path d="M6532 2003 c-16 -31 -23 -73 -12 -73 5 0 10 9 10 21 0 11 5 29 11 41
6 11 8 22 6 25 -3 2 -10 -4 -15 -14z"/>
<path d="M7310 2012 c0 -5 29 -13 64 -17 50 -5 63 -10 62 -23 -2 -22 67 -38
100 -23 31 14 71 14 79 1 3 -5 13 -10 22 -10 13 0 13 3 3 15 -7 8 -23 15 -36
15 -12 0 -26 5 -29 10 -3 6 -31 10 -61 10 -31 0 -63 4 -72 9 -26 13 -132 24
-132 13z"/>
<path d="M6071 1969 c-20 -33 -30 -93 -13 -73 13 14 44 96 38 101 -3 3 -14
-10 -25 -28z"/>
<path d="M6181 1955 c-29 -46 -32 -65 -10 -65 6 0 7 5 4 11 -4 5 5 28 20 50
14 23 24 43 21 46 -3 3 -19 -16 -35 -42z"/>
<path d="M8740 1975 c0 -8 5 -15 10 -15 6 0 10 7 10 15 0 8 -4 15 -10 15 -5 0
-10 -7 -10 -15z"/>
<path d="M5478 1973 c-10 -2 -18 -9 -18 -14 0 -12 10 -11 40 6 24 14 14 18
-22 8z"/>
<path d="M8570 1970 c0 -5 5 -10 10 -10 6 0 10 5 10 10 0 6 -4 10 -10 10 -5 0
-10 -4 -10 -10z"/>
<path d="M5997 1949 c-6 -24 1 -49 14 -49 5 0 9 16 9 35 0 38 -14 47 -23 14z"/>
<path d="M6590 1955 c-7 -9 -11 -18 -8 -20 3 -3 11 1 18 10 7 9 11 18 8 20 -3
3 -11 -1 -18 -10z"/>
<path d="M5920 1950 c0 -19 50 -61 62 -54 7 5 4 10 -9 15 -12 4 -24 17 -28 28
-7 22 -25 29 -25 11z"/>
<path d="M6427 1953 c-4 -3 -7 -11 -7 -17 0 -6 5 -5 12 2 6 6 9 14 7 17 -3 3
-9 2 -12 -2z"/>
<path d="M8937 1946 c-6 -15 1 -26 15 -26 4 0 8 9 8 20 0 23 -15 27 -23 6z"/>
<path d="M6290 1915 c0 -15 18 -40 24 -34 3 3 -1 14 -9 25 -8 10 -14 15 -15 9z"/>
<path d="M3050 998 c0 -6 6 -19 13 -27 29 -34 37 -100 40 -302 3 -240 8 -259
77 -259 37 0 70 19 70 41 0 6 -14 23 -31 39 -31 28 -32 29 -27 112 5 90 25
142 58 153 29 9 42 40 34 80 -7 40 -19 43 -50 14 -28 -26 -44 -17 -44 24 0 60
-19 106 -50 122 -34 18 -90 20 -90 3z m97 -50 c7 -14 16 -53 19 -87 8 -68 21
-77 67 -41 23 18 25 19 32 3 4 -13 -7 -29 -40 -58 -52 -45 -64 -80 -65 -193 0
-58 3 -66 30 -94 35 -34 32 -49 -8 -39 -45 12 -51 38 -51 251 -1 140 -5 210
-15 244 -13 43 -13 47 2 44 9 -2 23 -15 29 -30z"/>
<path d="M3570 998 l-23 -9 31 -27 c51 -43 65 -112 66 -330 1 -170 2 -185 20
-198 31 -22 74 -17 101 12 30 33 32 60 5 67 -19 5 -20 14 -21 134 0 203 -4
237 -34 287 -15 25 -30 48 -34 51 -21 13 -90 21 -111 13z m91 -40 c9 -7 24
-26 35 -43 17 -26 19 -53 22 -218 4 -176 5 -188 25 -202 17 -12 18 -17 7 -30
-7 -8 -23 -15 -36 -15 -31 0 -51 42 -48 100 13 204 4 315 -31 403 -8 20 5 22
26 5z"/>
<path d="M1584 989 c-3 -5 3 -12 13 -15 45 -14 48 -20 49 -93 1 -88 8 -97 66
-83 36 9 49 8 77 -6 56 -28 73 -73 73 -199 -1 -110 -12 -143 -45 -130 -20 7
-27 53 -27 172 l0 103 -27 6 c-16 4 -48 3 -73 -2 l-45 -8 0 -119 c0 -120 -12
-171 -38 -162 -23 7 -29 78 -24 289 5 184 4 218 -9 229 -20 16 -31 3 -17 -21
9 -14 10 -67 4 -207 -12 -271 -5 -323 43 -323 13 0 31 10 42 21 17 18 19 37
19 144 0 68 2 125 5 128 3 2 26 8 52 11 l48 7 -1 -124 c-1 -144 3 -165 38
-173 36 -9 73 33 73 82 0 20 5 34 13 34 9 0 9 2 1 8 -7 4 -13 43 -15 93 -4 75
-7 90 -32 122 -33 44 -81 60 -133 45 -50 -13 -59 -2 -46 58 11 49 4 82 -19
100 -20 16 -58 24 -65 13z"/>
<path d="M2429 977 c-23 -19 -30 -40 -49 -137 -12 -63 -27 -133 -35 -155 -45
-138 -67 -225 -62 -238 3 -9 22 -19 42 -23 67 -12 90 20 119 176 l11 55 42 3
c41 3 42 2 47 -30 26 -170 29 -181 58 -197 21 -12 31 -13 53 -3 26 12 27 14
21 75 -11 102 -42 221 -83 317 -11 25 -26 68 -33 95 -7 28 -20 58 -28 68 -21
24 -71 21 -103 -6z m91 -19 c74 -183 135 -394 135 -468 0 -29 -4 -36 -23 -38
-27 -4 -30 4 -48 123 -14 94 -20 102 -77 108 -29 3 -55 2 -59 -1 -3 -4 -16
-45 -27 -92 -31 -126 -38 -140 -72 -140 -15 0 -30 3 -32 8 -6 8 24 127 48 199
20 55 55 217 55 251 0 29 42 72 70 72 12 0 24 -9 30 -22z"/>
<path d="M2474 922 c-12 -7 -34 -149 -27 -169 7 -17 40 -26 70 -18 25 6 25 8
19 58 -7 59 -30 130 -42 134 -5 1 -14 -1 -20 -5z m24 -69 c6 -10 13 -37 17
-59 6 -40 6 -41 -19 -37 -28 6 -32 22 -20 82 7 36 10 37 22 14z"/>
<path d="M1255 982 c-1 -2 -39 -3 -84 -4 -70 -1 -83 -4 -92 -20 -28 -53 26
-96 107 -84 25 3 57 3 71 0 l24 -6 -6 -107 c-3 -58 -8 -149 -11 -202 -5 -81
-3 -99 11 -113 20 -19 78 -21 94 -3 6 8 13 90 16 212 3 111 10 203 15 210 6 7
33 15 61 17 27 3 55 10 61 16 17 17 -6 60 -39 73 -24 10 -220 19 -228 11z
m226 -41 c27 -22 17 -42 -19 -39 -43 2 -90 -12 -96 -29 -4 -9 -7 -103 -6 -208
0 -201 -5 -224 -44 -209 -16 6 -17 8 -20 364 l-1 75 -60 3 c-82 3 -125 11
-125 22 0 6 -1 13 -2 18 -4 9 86 17 234 19 99 1 121 -1 139 -16z"/>
<path d="M5095 966 c-33 -33 -32 -59 5 -89 26 -23 36 -25 90 -20 l62 6 -7
-179 c-3 -98 -8 -193 -11 -211 -4 -25 1 -35 22 -52 28 -22 60 -27 82 -12 23
14 32 79 39 264 l6 179 42 -6 c32 -5 47 -3 63 11 23 20 36 71 24 90 -8 13 -81
20 -269 28 -56 2 -107 6 -113 10 -5 3 -21 -5 -35 -19z m233 -22 c84 -4 155
-11 158 -16 3 -5 3 -21 -1 -35 -6 -25 -8 -26 -65 -20 -49 6 -59 4 -65 -11 -4
-9 -9 -98 -10 -197 -2 -99 -8 -192 -14 -207 -13 -34 -35 -36 -56 -4 -17 25
-17 18 1 318 3 58 3 111 0 116 -3 6 -28 5 -65 -3 -70 -14 -104 -4 -109 34 -4
29 14 43 48 36 14 -2 94 -7 178 -11z"/>
<path d="M5552 971 c-9 -5 -15 -36 -17 -87 -4 -79 -9 -164 -20 -344 -6 -104 4
-143 41 -148 52 -8 83 78 78 221 l-2 67 39 0 c53 0 59 -16 54 -140 -5 -113 3
-140 40 -140 46 0 56 33 54 181 0 74 -5 141 -10 151 -16 31 -74 58 -123 58
l-47 0 2 68 c3 87 -11 122 -48 122 -16 0 -34 -4 -41 -9z m58 -36 c8 -10 10
-36 5 -90 l-7 -75 38 -1 c22 -1 42 -1 47 0 19 3 77 -30 88 -51 20 -36 25 -258
6 -282 -28 -38 -37 -9 -37 118 0 93 -3 126 -14 135 -7 6 -38 12 -67 14 l-54 2
-7 -128 c-7 -146 -10 -157 -37 -157 -15 0 -23 10 -31 39 -5 21 -8 45 -6 52 4
13 7 61 22 324 2 39 6 80 9 93 6 25 27 29 45 7z"/>
<path d="M6354 961 c-32 -19 -74 -67 -74 -83 0 -5 -12 -35 -27 -66 -25 -53
-27 -67 -28 -188 0 -122 1 -132 25 -166 31 -47 77 -68 145 -68 67 0 92 11 128
57 29 39 32 57 17 97 -13 35 -54 35 -76 1 -36 -54 -76 -54 -113 1 -21 30 -24
46 -23 105 2 79 33 171 68 206 20 20 27 22 44 13 12 -6 25 -22 30 -36 17 -45
100 -21 100 29 0 9 -22 39 -50 67 -44 45 -54 50 -92 50 -24 0 -56 -8 -74 -19z
m145 -45 c29 -29 42 -50 38 -60 -9 -23 -44 -20 -50 4 -3 11 -18 25 -34 31 -40
15 -84 -10 -111 -66 -26 -53 -48 -196 -38 -247 7 -41 64 -98 97 -98 30 0 77
27 84 49 9 29 35 14 35 -20 0 -17 -11 -41 -28 -60 -24 -27 -35 -31 -74 -31
-58 1 -122 27 -142 57 -22 33 -30 143 -18 253 8 80 14 100 43 144 34 50 90 87
134 88 12 0 40 -20 64 -44z"/>
<path d="M7250 941 c0 -8 10 -25 22 -38 22 -23 23 -33 26 -256 4 -265 7 -277
70 -277 25 0 46 7 60 20 28 27 28 34 -4 55 -26 17 -26 18 -21 113 8 130 18
155 68 175 38 15 39 16 27 44 -22 52 -27 55 -63 33 -18 -11 -35 -20 -38 -20
-4 0 -12 28 -19 61 -10 49 -19 66 -43 84 -33 26 -85 29 -85 6z m80 -36 c17
-18 25 -40 28 -81 5 -66 18 -74 65 -45 43 26 47 26 47 -2 0 -17 -10 -28 -33
-39 -40 -19 -53 -57 -61 -181 -6 -80 2 -110 32 -133 8 -6 12 -16 8 -22 -12
-20 -45 -13 -72 13 -24 24 -25 29 -21 133 5 138 -9 350 -24 368 -20 24 6 15
31 -11z"/>
<path d="M7780 940 c0 -5 8 -17 18 -27 30 -29 44 -116 44 -257 0 -72 -3 -146
-6 -165 -8 -42 10 -98 36 -112 28 -15 86 -2 98 22 9 15 6 26 -12 52 -25 34
-25 46 -18 262 5 135 -2 158 -57 200 -44 33 -103 48 -103 25z m93 -45 c15 -13
32 -37 38 -52 12 -33 14 -157 4 -265 -6 -68 -5 -82 14 -118 28 -53 27 -60 -8
-60 -57 0 -60 10 -59 228 0 159 -3 206 -16 241 -9 24 -16 45 -16 47 0 10 17 1
43 -21z"/>
<path d="M2705 845 c-31 -26 -31 -26 1 -43 20 -11 22 -20 26 -181 4 -176 10
-201 49 -201 11 0 28 14 39 33 18 29 20 47 18 177 l-3 145 34 -2 c18 0 37 -5
42 -10 5 -5 11 -67 13 -139 4 -138 14 -174 54 -200 22 -14 26 -14 39 -1 13 13
14 39 4 198 -8 126 -16 189 -26 205 -12 19 -25 22 -117 27 -57 3 -112 8 -123
11 -13 4 -30 -3 -50 -19z m170 -21 c44 -2 85 -6 91 -8 16 -6 23 -66 30 -231 5
-132 4 -139 -12 -123 -22 22 -33 89 -33 209 -1 111 -8 123 -83 132 -54 7 -74
-8 -64 -49 12 -48 8 -274 -5 -290 -23 -28 -31 4 -40 167 -4 90 -12 175 -15
188 -7 22 -5 23 22 17 16 -4 65 -9 109 -12z"/>
<path d="M3392 839 c-51 -26 -78 -61 -99 -131 -30 -101 2 -218 72 -264 34 -22
108 -29 145 -14 68 28 102 107 61 144 -18 16 -22 16 -49 2 -17 -9 -33 -24 -37
-35 -13 -41 -51 -37 -77 10 -31 53 -19 73 34 58 25 -7 75 -4 105 6 7 2 20 21
31 42 14 29 16 47 10 73 -18 71 -29 88 -74 109 -55 26 -69 26 -122 0z m108
-24 c57 -30 82 -132 40 -170 -16 -15 -30 -17 -84 -11 -52 5 -67 3 -80 -10 -20
-19 -20 -41 -1 -74 8 -14 14 -34 15 -45 0 -16 7 -20 35 -22 28 -1 42 6 76 40
38 38 42 40 54 24 30 -41 -24 -97 -92 -97 -106 0 -173 114 -145 249 22 104
105 156 182 116z"/>
<path d="M3411 774 c-32 -27 -41 -64 -18 -82 20 -17 137 -13 144 5 9 23 -24
82 -53 93 -36 14 -39 13 -73 -16z m77 -20 c12 -8 22 -23 22 -32 0 -16 -20 -19
-87 -13 -14 1 -18 43 -6 54 11 12 48 7 71 -9z"/>
<path d="M3975 845 c-5 -2 -21 -6 -35 -9 -30 -7 -83 -52 -100 -85 -7 -13 -16
-53 -20 -89 -7 -53 -5 -77 11 -128 23 -75 60 -109 131 -119 41 -6 51 -4 82 20
48 37 71 100 70 195 -1 78 -28 163 -62 194 -18 15 -60 27 -77 21z m61 -46 c6
-5 21 -41 34 -81 60 -190 -39 -349 -154 -247 -51 45 -78 122 -66 193 10 65 19
82 57 118 39 36 95 44 129 17z"/>
<path d="M3950 761 c-14 -4 -35 -24 -48 -46 -20 -34 -22 -51 -19 -112 4 -79
15 -99 65 -120 28 -11 36 -11 61 1 32 17 47 49 55 119 6 50 -5 82 -47 140 -22
28 -26 29 -67 18z m48 -43 c32 -35 43 -76 36 -127 -7 -54 -28 -91 -50 -91 -9
0 -29 13 -45 29 -26 27 -29 36 -29 96 0 57 3 69 25 90 30 31 36 31 63 3z"/>
<path d="M4245 835 c-24 -7 -51 -9 -67 -4 -33 9 -48 -7 -23 -25 16 -11 17 -37
16 -272 -1 -142 -4 -287 -7 -321 -5 -70 2 -79 50 -63 67 22 78 45 79 172 l2
113 42 10 c91 22 130 75 138 190 8 111 -37 187 -120 200 -22 4 -47 8 -55 10
-8 1 -33 -3 -55 -10z m108 -31 c66 -22 91 -66 90 -159 0 -45 -6 -83 -17 -105
-17 -38 -61 -70 -95 -70 -30 0 -69 -20 -74 -39 -2 -9 -2 -32 -1 -51 13 -122
-2 -201 -38 -208 -12 -2 -17 7 -19 42 -2 24 -2 54 1 66 3 11 3 98 0 193 -3 94
-4 206 -2 248 l3 76 42 11 c59 14 58 14 110 -4z"/>
<path d="M4273 748 c-4 -7 -9 -55 -10 -106 -3 -91 -3 -93 23 -102 45 -17 71
-12 99 22 25 30 27 38 22 93 -4 48 -11 64 -32 82 -29 25 -89 31 -102 11z m81
-30 c32 -29 39 -102 13 -142 -19 -28 -21 -29 -54 -20 -22 6 -23 12 -23 88 0
46 3 86 7 89 12 13 32 7 57 -15z"/>
<path d="M4632 830 c-78 -18 -132 -113 -132 -228 0 -111 55 -188 150 -210 46
-11 57 -10 89 5 73 36 90 143 23 143 -20 0 -33 -7 -42 -24 -18 -35 -40 -40
-66 -15 -25 24 -50 86 -39 97 3 4 35 7 70 7 80 0 105 19 105 80 0 69 -23 109
-74 134 -25 11 -47 21 -48 20 -2 -1 -18 -5 -36 -9z m66 -31 c54 -19 89 -135
48 -161 -6 -4 -39 -8 -73 -8 -56 0 -64 -3 -79 -25 -16 -24 -16 -28 1 -66 10
-22 32 -51 47 -65 28 -22 31 -23 58 -9 16 8 36 25 45 37 15 22 16 22 30 4 12
-16 12 -23 -1 -47 -20 -40 -47 -51 -101 -43 -100 15 -165 127 -143 246 16 80
45 119 105 137 17 5 30 10 31 10 1 1 15 -4 32 -10z"/>
<path d="M4634 758 c-39 -27 -58 -72 -39 -88 18 -15 120 -3 136 16 13 16 5 43
-22 72 -25 28 -37 27 -75 0z m67 -29 c13 -25 5 -34 -39 -43 -40 -7 -53 15 -27
44 23 26 51 25 66 -1z"/>
<path d="M1988 800 c-46 -38 -78 -130 -78 -222 1 -73 12 -98 60 -133 68 -50
168 -22 191 54 25 83 -17 121 -69 61 -28 -32 -50 -38 -70 -18 -13 13 -17 78
-4 79 4 0 32 2 62 3 31 1 61 5 67 9 22 14 25 66 8 118 -14 41 -24 54 -51 65
-50 21 -75 17 -116 -16z m99 0 c29 -11 36 -22 58 -106 10 -39 -19 -56 -85 -48
-52 6 -59 4 -69 -14 -16 -31 -13 -77 7 -102 19 -23 47 -28 100 -15 28 7 32 5
32 -12 0 -64 -109 -72 -160 -12 -24 29 -29 43 -30 90 0 55 31 171 53 198 10
12 42 29 58 30 3 1 20 -4 36 -9z"/>
<path d="M2033 748 c-18 -23 -22 -45 -10 -57 16 -16 82 -14 96 3 12 14 5 46
-13 58 -17 12 -63 9 -73 -4z m65 -30 c3 -14 -3 -18 -27 -18 -29 0 -41 17 -24
34 13 13 48 1 51 -16z"/>
<path d="M6689 817 c-37 -17 -99 -74 -99 -91 0 -21 37 -45 60 -39 10 3 26 14
36 24 21 24 79 26 88 3 14 -37 7 -44 -45 -44 -44 0 -55 -4 -83 -32 -28 -28
-34 -43 -40 -96 -12 -110 31 -156 119 -127 42 15 49 15 70 1 23 -15 55 -13 55
3 0 5 -18 14 -40 21 -31 10 -46 11 -65 2 -66 -30 -115 4 -115 81 0 25 5 49 10
52 6 3 10 14 10 24 0 22 55 51 97 51 62 0 76 71 20 98 -31 15 -55 10 -87 -18
-29 -25 -60 -26 -60 -2 0 19 53 65 87 76 33 11 89 -3 116 -28 47 -43 50 -59
36 -171 -11 -99 -11 -105 9 -139 18 -30 19 -36 6 -47 -10 -8 -12 -15 -5 -22
16 -16 41 11 41 43 0 15 -7 33 -15 40 -18 15 -20 82 -5 161 13 67 7 96 -28
136 -43 51 -113 67 -173 40z"/>
<path d="M7613 805 c-71 -30 -124 -140 -125 -257 -1 -121 57 -188 160 -188 50
0 57 3 94 40 28 27 39 46 36 62 -5 34 -50 36 -89 4 -35 -30 -42 -31 -62 -11
-17 17 -42 84 -34 91 3 3 32 0 65 -7 85 -18 106 -6 127 66 30 100 -13 175
-116 205 -15 5 -38 3 -56 -5z m104 -40 c12 -9 30 -26 39 -40 21 -33 20 -116
-2 -150 -16 -25 -21 -26 -58 -19 -23 4 -59 8 -81 8 l-40 1 1 -48 c0 -38 6 -53
26 -74 31 -31 60 -27 108 13 24 20 34 24 43 15 15 -15 -11 -60 -45 -80 -35
-20 -107 -7 -147 27 -64 55 -63 224 2 313 16 22 39 45 51 50 26 11 73 3 103
-16z"/>
<path d="M7612 712 c-16 -12 -24 -30 -25 -52 l-2 -34 59 -9 c74 -11 86 -6 86
35 0 71 -63 102 -118 60z m86 -27 c19 -41 15 -58 -10 -51 -13 3 -35 6 -50 6
-19 0 -28 5 -28 16 0 55 67 76 88 29z"/>
<path d="M6910 805 c0 -3 10 -20 23 -36 20 -29 22 -42 24 -196 2 -173 5 -182
46 -183 36 0 55 20 67 70 13 53 6 180 -12 214 -16 30 5 40 43 20 46 -23 50
-31 43 -89 -10 -90 -7 -184 6 -200 14 -16 65 -20 74 -6 12 19 16 350 5 375
-12 26 -59 43 -81 30 -14 -9 -134 -8 -148 1 -6 3 -10 -1 -10 -9 0 -26 116 -35
170 -12 33 14 54 -18 54 -80 0 -119 -9 -294 -16 -294 -4 0 -14 8 -24 17 -15
15 -16 32 -11 131 6 112 6 114 -19 137 -36 33 -78 47 -99 31 -15 -11 -16 -19
-6 -65 14 -65 14 -181 1 -216 -7 -20 -16 -26 -33 -23 -22 3 -22 6 -27 180 -5
162 -7 178 -25 192 -20 15 -45 21 -45 11z"/>
<path d="M8082 793 c-63 -31 -93 -106 -94 -234 0 -74 20 -130 59 -171 52 -54
136 -28 176 55 32 65 37 106 30 213 -6 78 -8 86 -40 119 -39 40 -76 45 -131
18z m111 -33 c32 -27 35 -36 41 -103 8 -92 -7 -180 -39 -229 -23 -34 -29 -38
-68 -38 -47 0 -71 18 -100 75 -24 49 -28 86 -17 165 15 106 51 146 142 159 4
1 23 -13 41 -29z"/>
<path d="M8083 708 c-85 -92 -22 -325 71 -264 27 17 59 104 51 141 -2 11 -4
29 -4 40 -1 12 -13 40 -28 63 -31 48 -58 54 -90 20z m67 -30 c21 -28 24 -45
25 -110 0 -66 -3 -81 -22 -99 l-21 -22 -25 25 c-49 49 -54 150 -11 216 19 29
26 28 54 -10z"/>
<path d="M5934 781 c-55 -34 -76 -73 -89 -171 -19 -138 79 -252 190 -221 61
16 112 103 80 135 -22 21 -28 20 -63 -9 -52 -43 -89 -26 -108 49 l-7 29 72 -6
c110 -11 129 14 99 127 -10 37 -18 47 -47 60 -60 24 -95 26 -127 7z m118 -30
c33 -26 55 -93 40 -125 -10 -22 -14 -23 -85 -18 -67 4 -75 2 -81 -14 -6 -21
-2 -60 9 -86 19 -46 86 -55 121 -17 24 27 44 24 44 -6 0 -35 -42 -75 -78 -75
-37 0 -92 23 -114 47 -45 50 -54 176 -17 242 38 68 111 91 161 52z"/>
<path d="M5957 698 c-33 -42 -21 -58 44 -58 36 0 51 4 58 18 16 29 -9 66 -46
70 -25 3 -36 -3 -56 -30z m81 -14 c3 -24 -16 -35 -47 -27 -24 6 -27 23 -9 41
19 19 53 10 56 -14z"/>
<path d="M8715 793 c-32 -8 -56 -34 -81 -88 -29 -60 -33 -182 -9 -261 12 -41
21 -53 50 -67 20 -9 48 -17 64 -17 56 0 123 80 101 120 -15 28 -42 25 -75 -10
-37 -39 -51 -38 -59 5 -9 48 -3 55 52 55 66 0 97 30 105 101 4 29 3 57 -2 62
-5 5 -8 15 -5 21 2 6 -9 26 -24 44 -27 33 -73 47 -117 35z m88 -53 c30 -35 43
-100 27 -129 -6 -12 -8 -21 -5 -21 3 0 1 -9 -5 -20 -9 -17 -21 -20 -75 -20
l-65 0 0 -43 c0 -45 22 -87 45 -87 8 0 30 14 50 31 28 25 36 28 41 16 8 -22
-12 -55 -44 -70 -35 -18 -81 -6 -105 29 -23 31 -36 148 -24 220 17 109 104
161 160 94z"/>
<path d="M8721 695 c-29 -38 -37 -86 -17 -101 13 -9 26 -9 59 1 36 10 42 16
45 42 2 20 -5 37 -22 56 -31 33 -39 34 -65 2z m57 -35 c9 -25 8 -31 -8 -40
-45 -24 -60 -7 -40 44 13 35 36 33 48 -4z"/>
<path d="M8285 774 c22 -54 26 -110 20 -249 -17 -396 -17 -416 -5 -430 17 -20
54 -19 73 3 21 24 27 53 35 187 l7 110 42 -3 c82 -6 108 33 118 176 7 116 0
154 -35 192 -27 29 -31 30 -119 30 -50 0 -91 -4 -91 -9 0 -17 40 -23 96 -16
97 12 124 -24 124 -167 0 -78 -4 -102 -23 -138 -13 -27 -28 -44 -36 -42 -63
14 -69 13 -92 -10 -23 -22 -24 -31 -27 -153 -2 -97 -7 -134 -17 -145 -30 -29
-37 2 -31 141 8 188 6 473 -3 506 -4 15 -16 30 -26 32 -14 2 -16 -1 -10 -15z"/>
<path d="M8407 728 c-14 -11 -19 -33 -23 -119 -6 -103 -5 -107 17 -123 36 -25
74 -20 99 12 19 24 21 37 18 109 -2 66 -7 86 -23 102 -27 27 -66 35 -88 19z
m66 -35 c21 -25 30 -119 14 -163 -14 -40 -45 -51 -68 -24 -14 18 -18 172 -4
194 10 16 40 12 58 -7z"/>
<path d="M6785 610 c-3 -5 -23 -10 -44 -10 -46 0 -74 -27 -73 -70 1 -43 8 -50
56 -50 51 0 76 22 74 66 -1 16 1 39 6 52 7 22 -7 32 -19 12z m-13 -60 c3 -16
0 -34 -6 -40 -14 -14 -66 -13 -67 3 -5 47 7 67 40 67 24 0 29 -5 33 -30z"/>
<path d="M4890 488 c-25 -27 -36 -66 -23 -79 6 -6 30 -9 54 -7 40 3 44 6 53
37 8 30 7 36 -13 52 -30 25 -46 24 -71 -3z m50 -24 c11 -12 10 -18 -3 -31 -13
-13 -19 -14 -31 -3 -9 7 -16 21 -16 31 0 23 32 25 50 3z"/>
<path d="M1675 440 c3 -5 25 -10 48 -9 36 1 38 2 17 9 -36 12 -72 12 -65 0z"/>
<path d="M8917 432 c-21 -23 -22 -65 -3 -81 8 -7 32 -11 53 -9 34 3 38 6 41
33 5 56 -56 95 -91 57z m63 -43 c0 -11 -6 -19 -14 -19 -18 0 -39 26 -32 39 10
16 46 0 46 -20z"/>
</g>
</svg>
