<?xml version="1.0" standalone="no"?>
<!DOCTYPE svg PUBLIC "-//W3C//DTD SVG 20010904//EN"
 "http://www.w3.org/TR/2001/REC-SVG-20010904/DTD/svg10.dtd">
<svg version="1.0" xmlns="http://www.w3.org/2000/svg"
 width="1000.000000pt" height="586.000000pt" viewBox="0 0 1000.000000 586.000000"
 preserveAspectRatio="xMidYMid meet">
<metadata>
Created by potrace 1.16, written by Peter Selinger 2001-2019
</metadata>
<g transform="translate(0.000000,586.000000) scale(0.100000,-0.100000)"
fill="#000000" stroke="none">
<path d="M7705 5734 c-102 -19 -132 -34 -209 -99 -70 -60 -101 -105 -122 -183
-42 -147 -39 -270 8 -457 23 -93 29 -133 24 -177 -6 -56 -32 -128 -48 -128 -4
0 -8 -6 -8 -14 0 -17 -76 -32 -115 -22 -13 3 -44 19 -67 34 -83 55 -182 89
-284 99 -124 12 -355 -71 -461 -165 -24 -20 -62 -49 -85 -64 -24 -15 -52 -33
-63 -40 -24 -16 -67 -52 -167 -141 -82 -74 -97 -98 -156 -257 -79 -213 -96
-300 -91 -467 4 -99 7 -115 37 -173 51 -104 60 -112 105 -98 40 12 49 37 18
45 -12 3 -17 11 -14 19 4 10 -3 14 -21 14 -14 0 -26 5 -26 10 0 6 12 8 28 5
26 -6 26 -6 8 9 -11 9 -30 16 -43 16 -13 0 -23 5 -23 10 0 6 9 10 21 10 11 0
29 5 40 10 13 7 25 7 37 1 12 -6 30 -7 48 -1 20 5 23 9 10 9 -20 1 -20 1 0 17
18 15 17 15 -12 10 -18 -3 -39 1 -49 8 -17 12 -15 14 13 24 18 6 32 13 32 14
0 12 -79 4 -102 -10 -22 -13 -32 -13 -52 -4 -40 18 -33 42 12 42 21 0 47 7 58
15 22 17 12 19 -34 6 -28 -8 -36 -7 -53 10 -11 11 -18 23 -15 27 2 4 7 39 10
77 6 75 19 130 35 148 5 7 10 21 12 31 4 20 2 23 41 -59 6 -14 17 -25 24 -25
10 0 9 8 -3 33 -31 61 -33 67 -33 87 0 11 5 20 10 20 6 0 10 -4 10 -10 0 -5 3
-10 8 -10 4 0 6 19 4 42 -5 45 16 148 30 148 10 0 10 -3 -2 -34 -5 -15 -6 -35
-1 -48 8 -21 9 -20 15 12 14 69 48 162 62 167 8 3 14 11 14 18 0 6 10 20 21
31 l21 19 -21 -37 c-24 -43 -32 -119 -14 -125 8 -3 11 5 9 24 -1 15 8 53 21
83 38 88 90 125 63 46 -6 -20 -10 -44 -7 -53 2 -11 9 0 16 27 18 63 57 130 76
130 3 0 19 10 35 22 41 30 46 18 10 -27 -16 -21 -30 -42 -30 -47 0 -6 17 12
39 39 53 67 99 105 121 98 11 -3 20 1 24 10 3 9 10 13 16 10 14 -9 -51 -85
-72 -85 -10 0 -22 -9 -28 -21 -14 -25 -3 -41 11 -16 6 9 16 17 24 17 13 0 78
59 107 97 7 10 23 24 36 31 19 10 22 10 22 -4 0 -10 5 -14 15 -10 8 3 15 0 15
-7 0 -7 12 0 28 15 15 15 45 42 66 60 42 35 39 22 -8 -41 -32 -44 -25 -53 13
-17 21 20 31 24 36 15 6 -8 12 -4 22 15 16 30 38 35 30 6 -7 -27 -1 -25 40 10
47 41 62 38 23 -6 -17 -20 -28 -39 -25 -43 4 -3 20 9 35 28 16 18 34 31 40 29
8 -2 3 -15 -14 -35 -38 -45 -32 -53 9 -13 21 20 39 31 43 25 20 -28 42 -37 57
-25 8 7 21 10 28 7 7 -3 21 1 32 9 22 16 61 18 70 4 3 -5 14 -10 24 -10 10 0
27 -8 39 -18 17 -15 19 -21 9 -31 -7 -7 12 -3 41 8 28 11 52 17 52 13 0 -4 15
-8 34 -9 27 -1 36 4 41 21 l6 21 9 -22 c13 -31 17 -29 37 17 17 38 18 39 30
17 11 -21 12 -21 18 -2 12 37 22 50 38 47 9 -1 16 8 19 23 6 31 -11 45 -19 16
-11 -44 -44 -12 -36 35 4 22 2 34 -6 34 -6 0 -11 11 -11 25 0 14 -6 28 -14 31
-21 8 -28 35 -12 48 17 14 29 63 17 70 -4 3 -11 2 -15 -1 -3 -4 -15 -7 -25 -8
-40 -3 -92 334 -72 460 12 75 49 161 81 190 20 18 20 17 20 -8 0 -14 5 -29 10
-32 6 -4 10 5 10 19 0 31 4 32 38 5 l27 -21 6 24 5 23 6 -22 c9 -35 32 -29 25
6 -3 15 -3 38 0 50 6 23 5 23 71 5 18 -5 21 -3 16 10 -7 19 21 66 39 66 9 0 9
-2 0 -8 -6 -4 -14 -19 -18 -33 -6 -23 -4 -26 19 -26 17 0 26 5 26 16 0 9 10
27 21 41 l20 25 -7 -25 c-10 -38 -10 -42 2 -47 6 -2 14 10 17 26 6 29 47 65
47 41 0 -7 8 -9 22 -4 20 6 21 5 9 -9 -7 -9 -11 -24 -7 -32 7 -18 30 -21 23
-2 -6 18 11 47 29 47 11 0 13 -6 9 -20 -4 -11 -2 -20 4 -20 6 0 11 10 11 22 0
20 1 20 18 5 10 -10 24 -17 31 -17 6 0 38 -17 71 -37 64 -41 86 -78 56 -95
-11 -6 -16 -23 -16 -53 0 -96 -18 -134 -106 -220 -90 -88 -109 -116 -106 -158
1 -15 -5 -41 -13 -57 -11 -20 -14 -42 -9 -65 10 -53 29 -43 32 17 2 28 8 61
14 72 12 22 38 51 47 51 3 1 26 11 49 24 54 28 64 22 17 -10 -19 -13 -35 -27
-35 -30 0 -13 138 62 145 78 4 13 8 14 14 5 5 -9 17 -7 46 8 26 13 42 17 49
10 6 -6 16 -10 24 -10 7 0 27 -15 45 -34 18 -18 44 -41 60 -51 15 -10 30 -29
33 -44 12 -54 16 -61 49 -81 30 -19 34 -25 28 -52 -5 -28 -4 -30 16 -23 15 4
21 2 21 -9 0 -8 -4 -18 -10 -21 -17 -10 -11 -28 6 -21 14 5 15 4 4 -9 -10 -12
-9 -15 6 -15 14 0 15 -3 6 -12 -7 -7 -12 -22 -12 -33 0 -33 -10 -36 -39 -14
-156 120 -421 232 -421 177 0 -20 88 -94 151 -127 35 -19 78 -44 94 -56 17
-13 47 -28 69 -35 27 -9 35 -15 25 -21 -14 -8 -44 -4 -89 14 -14 5 -52 11 -85
13 -33 2 -61 8 -63 13 -2 6 -26 23 -53 37 -47 26 -67 50 -31 37 11 -4 10 0 -6
11 -12 10 -27 14 -34 10 -7 -4 -32 -8 -58 -9 -25 -1 -54 -5 -64 -10 -16 -7
-18 -5 -13 8 3 9 3 17 -2 17 -4 0 -20 -29 -36 -65 -27 -63 -55 -102 -40 -55 4
14 3 20 -3 16 -5 -3 -12 -20 -16 -38 -5 -26 -9 -30 -16 -18 -6 8 -7 28 -4 44
5 21 3 27 -7 24 -8 -3 -15 -20 -17 -39 -2 -29 4 -40 38 -74 l40 -39 0 42 c0
56 17 54 26 -4 4 -31 11 -44 19 -40 13 4 38 -73 64 -194 6 -25 17 -70 26 -100
18 -61 74 -360 75 -400 l1 -25 11 25 c11 24 12 24 17 -15 11 -70 -22 -223 -46
-218 -6 1 -9 -6 -6 -16 5 -22 -30 -51 -62 -51 -16 0 -14 4 13 20 45 28 40 34
-8 9 -23 -12 -43 -20 -45 -17 -2 2 0 17 4 34 5 16 10 23 10 17 2 -22 26 -14
56 17 32 33 27 42 -5 10 -31 -31 -47 -24 -17 8 15 15 27 34 27 40 0 7 7 24 16
38 9 13 14 27 12 30 -3 2 -13 -7 -22 -21 -10 -15 -26 -35 -37 -46 -10 -10 -14
-19 -8 -19 8 0 8 -5 -1 -15 -33 -40 -42 10 -10 55 21 29 38 90 26 90 -4 0 -14
-17 -23 -37 -9 -21 -17 -33 -18 -28 -2 6 -8 29 -15 53 -16 52 -36 42 -22 -11
18 -63 6 -197 -22 -260 -30 -68 -96 -133 -144 -142 -43 -8 -66 10 -25 19 30 7
108 64 99 73 -2 3 -22 -9 -43 -26 -38 -31 -54 -35 -107 -33 -23 2 -27 6 -23
22 12 45 -13 27 -149 -108 -66 -64 -86 -69 -35 -8 15 18 15 18 -2 10 -10 -6
-32 -32 -50 -59 -32 -49 -57 -68 -57 -44 0 7 15 28 33 47 30 31 31 33 7 24
-25 -9 -59 -62 -60 -95 0 -10 -11 -22 -24 -27 -13 -5 -27 -14 -31 -19 -3 -6
-15 -11 -27 -11 -19 0 -19 1 3 21 21 18 22 20 4 14 -11 -4 -34 -9 -52 -11 -45
-6 -83 -22 -83 -35 0 -6 12 -9 28 -8 15 2 32 0 39 -4 28 -18 93 6 169 63 70
52 79 56 91 42 11 -15 12 -15 13 4 0 11 9 29 20 39 20 18 21 18 27 -3 7 -29
23 -28 23 0 0 18 54 120 77 148 3 3 12 -5 22 -16 47 -58 92 -58 181 0 52 35
73 58 96 104 13 27 20 33 38 28 37 -9 93 12 117 45 30 42 67 183 63 244 -3 52
-52 244 -72 281 -6 12 -9 23 -7 26 3 2 0 20 -6 39 -6 19 -15 52 -19 74 -9 40
-17 74 -60 230 -36 132 -40 148 -40 185 0 20 -4 40 -10 46 -16 16 3 32 52 45
43 12 49 11 103 -16 31 -16 79 -50 105 -75 59 -55 135 -103 175 -110 32 -6 90
25 129 69 25 27 44 27 48 -1 4 -29 23 -28 75 5 55 35 103 129 103 201 0 91
-47 155 -140 191 -8 4 -34 15 -58 26 -23 10 -48 19 -55 19 -24 0 -126 90 -152
134 -34 57 -60 131 -69 189 -13 83 -122 217 -211 256 -89 40 -218 54 -320 35z
m75 -24 c-8 -5 -19 -10 -25 -10 -5 0 -3 5 5 10 8 5 20 10 25 10 6 0 3 -5 -5
-10z m-86 -35 c-4 -8 -11 -15 -16 -15 -6 0 -5 6 2 15 7 8 14 15 16 15 2 0 1
-7 -2 -15z m482 -263 c-11 -10 -15 4 -8 28 l7 25 3 -23 c2 -13 1 -26 -2 -30z
m-5 -45 c-10 -9 -11 -8 -5 6 3 10 9 15 12 12 3 -3 0 -11 -7 -18z m-56 -67 c-4
-12 -9 -19 -12 -17 -3 3 -2 15 2 27 4 12 9 19 12 17 3 -3 2 -15 -2 -27z m358
-273 c-4 -6 -10 -2 -14 9 -12 31 -9 40 6 20 8 -10 11 -24 8 -29z m57 -31 c0
-3 -4 -8 -10 -11 -5 -3 -10 -1 -10 4 0 6 5 11 10 11 6 0 10 -2 10 -4z m-288
-94 c46 -22 113 -60 151 -85 37 -26 72 -47 77 -47 6 0 10 -4 10 -10 0 -31
-125 13 -194 69 -21 17 -43 31 -49 31 -15 0 -107 61 -107 71 0 17 30 9 112
-29z m-814 -172 c-15 -24 -19 -21 -11 8 3 12 9 19 14 16 5 -3 3 -14 -3 -24z
m1132 10 c0 -11 -4 -20 -9 -20 -11 0 -22 26 -14 34 12 12 23 5 23 -14z m-1831
-77 c-13 -10 -35 -24 -48 -31 -35 -20 -15 6 23 29 39 24 57 25 25 2z m1185
-18 c3 -8 1 -15 -4 -15 -6 0 -10 7 -10 15 0 8 2 15 4 15 2 0 6 -7 10 -15z
m-874 -40 c-7 -8 -18 -15 -24 -15 -6 0 -2 7 8 15 25 19 32 19 16 0z m-710 -95
c-14 -10 -27 -16 -30 -13 -6 6 30 33 44 33 6 0 0 -9 -14 -20z m85 10 c-3 -5
-11 -10 -16 -10 -6 0 -7 5 -4 10 3 6 11 10 16 10 6 0 7 -4 4 -10z m-289 -188
c-14 -14 -16 -14 -16 -1 0 20 23 44 29 28 2 -6 -4 -18 -13 -27z m-46 -50 c0
-12 -30 -52 -40 -52 -4 0 -3 14 3 30 10 27 37 43 37 22z m-104 -238 c-3 -9 -6
-18 -6 -20 0 -2 -4 -4 -9 -4 -5 0 -7 9 -4 20 3 11 10 20 15 20 6 0 7 -7 4 -16z
m8 -501 c-21 -15 -54 -17 -54 -4 0 5 -7 17 -15 25 -14 14 -12 15 20 14 19 -1
38 2 42 6 4 3 11 -1 16 -10 7 -13 5 -21 -9 -31z"/>
<path d="M3762 5684 c-42 -17 -41 -27 3 -22 34 4 49 -12 25 -27 -12 -8 -13
-25 -1 -25 10 0 20 23 27 56 5 29 -14 35 -54 18z"/>
<path d="M7847 5683 c-14 -13 -7 -43 10 -43 13 0 14 3 6 11 -6 6 -9 18 -6 25
5 15 1 18 -10 7z"/>
<path d="M3643 5673 c-25 -5 -103 -77 -103 -95 0 -13 44 -38 65 -38 7 0 27 -7
45 -16 27 -14 34 -14 41 -3 12 19 11 49 -1 49 -5 0 -10 5 -10 11 0 7 10 9 27
4 23 -5 25 -4 13 10 -14 17 -44 12 -68 -12 -17 -16 -74 -14 -79 3 -4 13 89 74
112 74 8 0 15 5 15 10 0 10 -16 11 -57 3z"/>
<path d="M2722 5617 c-22 -7 -32 -16 -30 -26 4 -18 56 -46 66 -36 4 4 1 10 -5
12 -22 8 -14 32 13 39 43 11 143 -4 174 -26 40 -29 59 -25 24 5 -16 14 -45 30
-64 35 -44 13 -135 11 -178 -3z"/>
<path d="M3747 5560 c-6 -17 -19 -33 -29 -36 -18 -5 -25 -29 -10 -36 4 -1 25
-39 47 -82 22 -44 52 -98 66 -120 15 -23 32 -58 39 -79 10 -33 10 -41 -4 -56
-20 -22 -21 -55 -1 -71 8 -7 15 -19 15 -26 0 -8 4 -14 9 -14 5 0 13 -10 16
-21 10 -31 93 -109 152 -144 28 -16 61 -46 74 -65 12 -19 30 -46 39 -60 9 -14
20 -38 24 -55 4 -19 3 -25 -3 -16 -12 19 -31 5 -31 -25 0 -13 -4 -24 -9 -24
-10 0 -35 -39 -47 -73 -4 -10 -13 -16 -21 -13 -7 3 -16 0 -19 -8 -14 -36 -194
27 -194 68 0 16 -2 18 -9 7 -12 -19 4 -51 24 -51 8 0 15 -5 15 -10 0 -6 11
-15 25 -20 14 -5 30 -20 35 -32 5 -13 9 -17 9 -10 1 16 62 16 86 -2 11 -8 16
-19 12 -30 -8 -20 -27 -12 -27 11 0 9 -6 13 -14 10 -8 -3 -17 -1 -20 6 -2 7
-5 2 -5 -10 -1 -13 -3 -23 -6 -23 -12 0 -85 43 -85 50 0 5 -19 11 -42 15 -52
8 -98 25 -116 42 -8 7 -22 18 -33 24 -11 5 -24 21 -29 35 -6 16 -27 33 -56 45
-60 27 -65 19 -12 -16 24 -15 61 -47 83 -70 28 -30 57 -48 95 -60 30 -10 88
-36 129 -57 59 -32 81 -39 109 -34 41 6 68 28 76 62 5 20 13 24 41 24 52 0 95
54 95 118 -1 44 -44 136 -89 189 -52 62 -127 118 -134 101 -4 -8 -8 -6 -12 7
-3 11 -24 33 -46 49 -21 17 -39 35 -39 42 0 7 -11 26 -25 42 -29 35 -31 57 -9
101 14 28 14 34 1 54 -8 12 -14 24 -14 27 0 3 -12 24 -26 47 -15 24 -27 45
-27 48 0 3 -21 42 -46 86 -30 53 -42 84 -36 92 12 16 32 77 26 77 -3 0 -11
-14 -17 -30z m443 -931 c0 -5 -7 -9 -15 -9 -15 0 -20 12 -9 23 8 8 24 -1 24
-14z m-50 -84 c11 -13 8 -15 -13 -15 -14 0 -34 -3 -44 -7 -12 -4 -10 0 7 15
30 26 34 26 50 7z"/>
<path d="M3432 5565 c-37 -16 -123 -16 -134 0 -9 11 -30 -14 -22 -27 10 -16
79 -20 133 -7 31 7 65 14 76 15 51 4 51 4 31 19 -24 18 -42 18 -84 0z"/>
<path d="M3225 5550 c-3 -5 -12 -7 -20 -3 -10 3 -15 -1 -15 -12 0 -9 -4 -14
-9 -11 -5 4 -11 1 -13 -6 -3 -8 -17 -7 -53 5 -27 10 -65 16 -84 16 -34 -2 -34
-2 -6 -6 63 -9 147 -46 158 -70 5 -13 14 -23 19 -23 14 0 9 30 -7 36 -21 8 4
44 31 44 26 0 34 8 27 26 -6 16 -19 18 -28 4z"/>
<path d="M2782 5513 c2 -10 16 -24 31 -31 15 -7 27 -21 27 -31 0 -10 12 -26
26 -36 31 -20 47 -11 17 10 -11 8 -23 25 -27 38 -3 13 -17 29 -31 35 -14 6
-25 16 -25 22 0 5 -5 10 -11 10 -6 0 -9 -8 -7 -17z"/>
<path d="M2910 5498 c0 -17 20 -35 70 -62 19 -11 41 -27 47 -37 7 -9 21 -16
30 -14 10 2 20 4 22 4 3 1 -4 8 -15 16 -18 14 -17 14 11 10 17 -3 37 -1 45 4
23 16 -1 47 -33 43 -14 -2 -37 4 -51 13 -14 9 -42 17 -63 18 -21 0 -44 5 -50
10 -9 7 -13 5 -13 -5z m120 -41 l35 -16 -40 6 c-45 6 -55 11 -55 23 0 11 17 7
60 -13z"/>
<path d="M3145 5410 c-3 -5 -1 -10 4 -10 6 0 11 5 11 10 0 6 -2 10 -4 10 -3 0
-8 -4 -11 -10z"/>
<path d="M2941 5364 c21 -20 99 -32 99 -14 0 6 -6 10 -12 7 -7 -2 -30 2 -52 9
-49 18 -54 17 -35 -2z"/>
<path d="M7776 5341 c-3 -5 1 -14 8 -20 16 -13 32 2 21 19 -8 12 -22 13 -29 1z"/>
<path d="M3077 5332 c-9 -2 -15 -7 -12 -12 3 -5 12 -7 19 -4 8 3 17 1 21 -5 8
-14 45 -14 45 -1 0 6 -11 10 -24 10 -13 0 -26 4 -28 8 -1 4 -11 6 -21 4z"/>
<path d="M7824 5322 c-6 -22 -34 -39 -34 -21 0 6 -7 9 -15 5 -10 -3 -15 1 -16
12 0 14 -2 14 -6 2 -4 -8 -17 -29 -30 -47 -17 -21 -22 -39 -18 -53 5 -14 2
-20 -10 -20 -9 0 -13 -5 -10 -10 4 -6 11 -8 16 -4 6 3 19 -2 30 -12 26 -24 86
-22 111 3 11 11 20 34 20 51 1 17 7 33 15 36 23 9 15 29 -11 22 -29 -7 -41 3
-20 19 14 10 14 12 -1 25 -14 11 -17 11 -21 -8z m-24 -76 c0 -27 -16 -44 -23
-24 -5 18 3 48 14 48 5 0 9 -11 9 -24z"/>
<path d="M3011 5302 c-16 -30 -14 -42 8 -42 25 0 36 30 17 48 -12 12 -15 12
-25 -6z"/>
<path d="M7710 5301 c0 -7 -4 -9 -10 -6 -5 3 -10 1 -10 -4 0 -6 4 -11 9 -11
13 0 25 20 17 27 -3 4 -6 1 -6 -6z"/>
<path d="M2987 5230 c-21 -31 -17 -220 6 -274 9 -21 17 -46 17 -55 0 -9 7 -29
15 -45 34 -65 -4 -276 -50 -276 -8 0 -15 -6 -15 -14 0 -24 -51 -48 -123 -57
-75 -9 -82 -12 -73 -27 3 -6 37 -8 79 -6 54 3 76 9 87 23 8 10 29 27 46 39 51
35 87 114 92 206 4 58 1 88 -10 110 -45 92 -65 207 -58 316 3 41 5 76 4 78 -1
2 -9 -6 -17 -18z"/>
<path d="M7880 5240 c0 -5 5 -10 10 -10 6 0 10 5 10 10 0 6 -4 10 -10 10 -5 0
-10 -4 -10 -10z"/>
<path d="M3766 5219 c-27 -21 -34 -39 -15 -39 6 0 13 9 16 20 3 11 11 20 19
20 7 0 16 5 19 10 11 17 -11 11 -39 -11z"/>
<path d="M7670 5230 c0 -5 5 -10 10 -10 6 0 10 5 10 10 0 6 -4 10 -10 10 -5 0
-10 -4 -10 -10z"/>
<path d="M3020 5220 c-8 -5 -11 -12 -7 -16 4 -4 13 -2 19 4 15 15 7 24 -12 12z"/>
<path d="M3384 5209 c-9 -16 13 -27 54 -27 l36 0 -25 19 c-27 21 -54 24 -65 8z"/>
<path d="M7870 5200 c0 -5 4 -10 9 -10 6 0 13 5 16 10 3 6 -1 10 -9 10 -9 0
-16 -4 -16 -10z"/>
<path d="M3049 5181 c-26 -29 -34 -45 -18 -36 24 14 49 38 49 47 0 13 -13 8
-31 -11z"/>
<path d="M3808 5188 c-26 -20 -28 -68 -4 -68 18 0 22 6 31 48 7 34 -1 40 -27
20z"/>
<path d="M7710 5154 c0 -8 5 -12 10 -9 6 4 8 11 5 16 -9 14 -15 11 -15 -7z"/>
<path d="M7860 5159 c0 -5 5 -7 10 -4 6 3 10 8 10 11 0 2 -4 4 -10 4 -5 0 -10
-5 -10 -11z"/>
<path d="M3451 5133 c-6 -10 -11 -13 -11 -6 0 7 -7 10 -15 7 -25 -10 -19 -61
10 -80 14 -9 23 -19 21 -23 -6 -10 77 -7 92 3 11 6 8 11 -10 20 -13 6 -24 22
-26 36 -2 14 -14 33 -27 43 -23 16 -24 16 -34 0z m34 -82 c-3 -6 -11 -11 -17
-11 -6 0 -6 6 2 15 14 17 26 13 15 -4z"/>
<path d="M7756 5141 c-4 -5 -2 -12 3 -15 5 -4 12 -2 15 3 4 5 2 12 -3 15 -5 4
-12 2 -15 -3z"/>
<path d="M7805 5139 c-10 -15 3 -25 16 -12 7 7 7 13 1 17 -6 3 -14 1 -17 -5z"/>
<path d="M3317 5023 c-11 -10 -8 -61 3 -68 6 -4 10 10 10 34 0 42 -2 46 -13
34z"/>
<path d="M8045 4970 c-3 -5 -1 -10 4 -10 6 0 11 5 11 10 0 6 -2 10 -4 10 -3 0
-8 -4 -11 -10z"/>
<path d="M8462 4969 c3 -8 8 -13 11 -11 9 3 7 11 -5 18 -6 4 -8 0 -6 -7z"/>
<path d="M3396 4948 c-8 -33 -7 -58 2 -58 5 0 9 18 10 40 2 45 -3 51 -12 18z"/>
<path d="M3372 4930 c0 -14 2 -19 5 -12 2 6 2 18 0 25 -3 6 -5 1 -5 -13z"/>
<path d="M3430 4920 c0 -16 2 -30 4 -30 2 0 6 14 8 30 3 17 1 30 -4 30 -4 0
-8 -13 -8 -30z"/>
<path d="M3471 4936 c-9 -10 -8 -15 2 -19 7 -3 19 4 25 14 10 15 9 19 -2 19
-7 0 -19 -6 -25 -14z"/>
<path d="M7520 4916 c0 -24 12 -46 21 -40 15 9 10 54 -6 54 -8 0 -15 -6 -15
-14z"/>
<path d="M7510 4841 c0 -12 5 -21 10 -21 6 0 10 6 10 14 0 8 -4 18 -10 21 -5
3 -10 -3 -10 -14z"/>
<path d="M7546 4814 c-6 -16 9 -44 23 -44 4 0 6 14 3 30 -5 33 -16 39 -26 14z"/>
<path d="M8157 4809 c7 -7 15 -10 18 -7 3 3 -2 9 -12 12 -14 6 -15 5 -6 -5z"/>
<path d="M8213 4778 c2 -7 7 -13 12 -13 5 0 10 6 13 13 2 6 -4 12 -13 12 -9 0
-15 -6 -12 -12z"/>
<path d="M7752 4728 c2 -24 9 -43 16 -46 11 -3 12 0 2 18 -6 12 -9 33 -6 46 4
14 2 24 -4 24 -7 0 -10 -17 -8 -42z"/>
<path d="M3335 4753 c13 -13 91 -43 110 -43 7 0 26 -5 42 -12 15 -6 31 -11 36
-10 4 1 7 -2 7 -8 0 -5 5 -10 10 -10 23 0 7 18 -32 37 -61 29 -191 63 -173 46z"/>
<path d="M7690 4741 c-13 -25 -5 -46 26 -66 28 -18 28 -18 13 41 -12 48 -23
55 -39 25z"/>
<path d="M3350 4693 c0 -4 5 -15 10 -23 8 -13 10 -13 10 2 0 9 -4 20 -10 23
-5 3 -10 3 -10 -2z"/>
<path d="M3390 4695 c-3 -16 2 -69 7 -79 3 -4 9 -2 14 5 7 11 9 9 9 -6 0 -11
5 -27 11 -35 7 -11 8 -6 4 20 -3 19 -7 43 -9 52 -3 23 -16 35 -17 17 -1 -8 -5
-3 -9 11 -4 14 -9 21 -10 15z"/>
<path d="M3980 4677 c0 -55 88 -101 117 -62 22 31 16 45 -21 45 -19 0 -38 -4
-41 -10 -11 -18 -22 -10 -28 20 -8 35 -27 40 -27 7z"/>
<path d="M3456 4640 c3 -30 14 -75 25 -99 11 -25 16 -53 13 -67 -5 -18 -2 -24
10 -24 19 0 19 -1 1 75 -8 33 -15 80 -16 105 l-2 45 -7 -50 c-6 -45 -7 -46 -9
-15 -2 19 -7 46 -12 60 -6 17 -7 8 -3 -30z"/>
<path d="M4131 4664 c0 -11 3 -14 6 -6 3 7 2 16 -1 19 -3 4 -6 -2 -5 -13z"/>
<path d="M3350 4586 c0 -24 20 -69 27 -62 4 3 12 -6 19 -21 l12 -28 1 32 c1
42 -8 63 -25 56 -9 -3 -14 2 -14 16 0 12 -4 21 -10 21 -5 0 -10 -6 -10 -14z"/>
<path d="M3540 4589 c0 -6 -5 -7 -11 -3 -11 6 -6 -87 7 -120 3 -8 1 -24 -5
-35 -13 -23 -4 -74 10 -65 5 3 9 -34 9 -83 0 -52 9 -125 21 -178 11 -49 24
-112 28 -140 15 -94 33 -180 59 -270 14 -49 27 -111 30 -136 3 -42 1 -48 -31
-75 -18 -16 -44 -44 -57 -61 -13 -18 -27 -33 -32 -33 -14 0 -8 27 12 53 30 38
24 45 -10 12 -16 -16 -30 -34 -30 -41 0 -7 -4 -15 -8 -18 -17 -11 -4 65 14 80
19 15 18 15 -2 11 -19 -4 -23 1 -28 34 -3 22 -10 39 -15 39 -5 0 -16 3 -24 6
-12 4 -16 -11 -23 -78 -5 -46 -8 -91 -8 -102 1 -11 -13 -26 -33 -38 -18 -11
-33 -24 -33 -28 0 -5 -23 -19 -50 -33 -51 -26 -80 -26 -101 -1 -6 8 -17 14
-24 14 -8 0 -26 11 -42 24 -15 13 -51 36 -78 51 -28 15 -59 36 -71 46 -23 21
-68 26 -62 7 3 -7 22 -22 43 -33 21 -11 40 -26 42 -32 6 -16 -36 -41 -67 -41
-35 1 -130 -42 -130 -57 0 -14 36 -9 46 6 8 13 52 11 60 -2 5 -8 9 -7 15 4 5
8 21 18 36 22 15 3 39 15 54 26 29 20 49 25 49 10 0 -11 164 -101 183 -101 11
0 87 45 122 72 51 41 83 54 118 50 35 -4 42 0 117 76 l80 80 0 54 c0 49 -27
169 -81 358 -11 41 -23 89 -25 105 -2 17 -11 75 -20 130 -13 82 -24 271 -24
406 0 15 -7 29 -15 33 -8 3 -15 1 -15 -5z m20 -34 c0 -14 -4 -25 -9 -25 -5 0
-8 8 -6 18 2 9 4 20 4 25 2 19 11 4 11 -18z m-13 -157 c-3 -7 -5 -2 -5 12 0
14 2 19 5 13 2 -7 2 -19 0 -25z m-47 -992 c0 -11 -19 -15 -25 -6 -3 5 1 10 9
10 9 0 16 -2 16 -4z"/>
<path d="M3961 4584 c0 -11 3 -14 6 -6 3 7 2 16 -1 19 -3 4 -6 -2 -5 -13z"/>
<path d="M7117 4554 c-31 -17 -31 -37 -1 -42 16 -3 17 -1 4 7 -27 20 15 36 78
31 12 -1 22 3 22 7 0 15 -74 13 -103 -3z"/>
<path d="M3060 4550 c-8 -5 -11 -12 -8 -16 10 -9 38 3 38 16 0 12 -10 13 -30
0z"/>
<path d="M3440 4500 c0 -16 4 -30 8 -30 5 0 7 14 4 30 -2 17 -6 30 -8 30 -2 0
-4 -13 -4 -30z"/>
<path d="M7285 4495 c-22 -13 -50 -25 -62 -25 -13 0 -30 -11 -39 -25 -14 -21
-15 -30 -5 -52 10 -22 16 -25 45 -20 57 9 76 -13 76 -87 0 -50 -4 -67 -20 -81
-24 -22 -26 -37 -4 -28 21 8 14 -15 -33 -113 -70 -145 -200 -242 -357 -265
-39 -5 -81 -15 -94 -21 -27 -14 -82 -15 -81 -2 0 12 29 26 116 59 73 27 200
101 190 111 -3 3 -25 -7 -49 -23 -24 -16 -63 -37 -88 -47 -25 -10 -53 -22 -62
-27 -27 -14 -38 -11 -31 9 6 15 3 14 -18 -3 -32 -27 -79 -78 -79 -87 0 -5 -10
-8 -23 -8 -13 0 -61 -18 -106 -40 -46 -22 -86 -39 -88 -36 -6 6 39 66 50 66 4
0 5 9 2 20 -5 14 -2 20 9 20 9 0 16 -4 16 -10 0 -24 16 -6 34 36 21 52 15 67
-15 35 -35 -37 -35 -14 0 29 37 46 21 54 -24 11 -28 -27 -75 -50 -75 -36 0 11
56 89 85 118 16 15 25 30 21 34 -3 3 2 15 11 25 11 12 13 22 7 28 -7 7 -26 -5
-56 -35 -25 -25 -52 -45 -59 -45 -9 1 -5 8 9 19 12 11 22 26 22 35 0 19 -5 20
-31 6 -27 -15 -24 -5 8 24 24 22 28 23 38 9 11 -15 19 -10 68 40 39 40 54 63
50 76 -4 14 9 30 49 61 29 24 65 47 81 52 15 6 27 14 27 19 0 13 -17 11 -51
-7 -17 -8 -36 -13 -43 -11 -6 3 -21 -2 -31 -10 -17 -13 -17 -15 -2 -10 25 9
21 1 -18 -38 -40 -41 -51 -43 -58 -13 -8 28 19 58 73 84 22 10 40 22 40 27 0
10 -1 10 -51 -14 -24 -12 -62 -38 -84 -59 -44 -43 -58 -48 -95 -35 -14 4 -34
8 -44 9 -29 2 -29 46 1 69 23 18 34 77 14 77 -24 0 -115 -51 -175 -99 -52 -40
-66 -56 -61 -71 4 -11 0 -22 -10 -27 -12 -7 -15 -22 -13 -64 3 -47 6 -54 26
-57 12 -2 22 1 22 7 0 6 -7 11 -15 11 -32 0 -2 105 34 117 9 3 25 17 36 30 11
13 27 25 35 26 8 2 21 6 28 10 23 15 34 -4 12 -20 -19 -13 -24 -13 -31 -2 -5
8 -9 9 -9 3 0 -6 -16 -28 -35 -50 -35 -39 -42 -54 -26 -54 5 0 11 -14 15 -31
4 -19 13 -33 26 -36 14 -4 19 -11 15 -23 -7 -21 27 -34 45 -16 16 16 31 -12
23 -43 -4 -17 -2 -22 6 -17 6 4 11 13 11 21 0 13 29 29 38 21 2 -3 -9 -21 -27
-41 -31 -35 -40 -65 -21 -65 6 0 10 5 10 11 0 6 6 9 13 6 6 -2 20 0 30 5 26
13 21 5 -20 -38 -52 -53 -83 -96 -83 -112 0 -19 18 -5 35 28 8 16 24 34 35 40
34 18 23 -6 -24 -53 -30 -30 -45 -56 -50 -83 -4 -21 -4 -36 1 -32 4 5 41 41
80 80 57 57 73 69 73 52 0 -11 -11 -31 -25 -44 -13 -12 -22 -28 -18 -34 3 -6
3 -8 -2 -4 -7 7 -55 -43 -55 -57 0 -4 -15 -25 -32 -48 -21 -26 -28 -42 -20
-45 6 -2 12 -12 12 -23 0 -27 26 -24 52 6 12 14 29 25 39 25 9 0 31 16 48 35
17 19 34 35 38 35 5 0 20 8 33 18 27 18 104 42 160 48 44 4 256 61 282 75 11
6 26 8 34 5 20 -8 117 48 152 89 39 44 119 213 146 305 15 56 13 77 -16 163
-13 37 -22 45 -33 27 -4 -6 -15 -6 -32 1 -18 7 -30 6 -37 -1 -15 -15 -28 -12
-24 6 2 8 34 32 72 53 67 36 93 61 64 61 -7 0 -31 -11 -53 -25z m-873 -177
c-16 -17 -25 -19 -33 -11 -9 9 -5 14 15 19 14 3 26 11 26 17 0 6 3 7 7 3 4 -3
-3 -16 -15 -28z m-97 -138 c-10 -11 -20 -18 -23 -15 -7 6 18 35 31 35 5 0 2
-9 -8 -20z m55 -65 c-12 -13 -27 -22 -33 -18 -6 4 2 16 18 30 34 30 46 21 15
-12z m70 -15 c0 -5 -7 -7 -15 -4 -8 4 -12 10 -9 15 6 11 24 2 24 -11z m745
-180 c-3 -5 -20 -19 -38 -31 l-32 -22 29 31 c28 30 55 44 41 22z"/>
<path d="M2400 4500 c-10 -6 -11 -10 -2 -10 6 0 12 -4 12 -10 0 -5 -9 -10 -20
-10 -11 0 -20 5 -20 10 0 14 -20 12 -50 -3 -14 -8 -41 -17 -60 -20 -73 -15
-326 -142 -347 -174 -9 -14 -37 -34 -62 -45 -65 -27 -151 -95 -151 -117 0 -11
-12 -30 -28 -43 -15 -12 -36 -41 -46 -63 -10 -22 -33 -62 -50 -90 -18 -27 -40
-70 -50 -95 -10 -25 -29 -69 -42 -97 -31 -66 -41 -128 -38 -221 2 -49 8 -77
18 -88 9 -8 16 -20 16 -25 0 -5 4 -9 10 -9 6 0 9 50 8 130 -1 72 -5 130 -9
130 -9 0 18 91 31 104 6 6 10 17 10 25 1 20 27 73 63 128 15 24 27 45 27 48 0
4 15 27 33 53 32 48 37 55 71 107 20 32 70 68 154 110 33 16 57 36 62 51 6 14
18 27 27 30 10 3 44 19 76 36 32 16 110 45 174 64 64 19 121 38 128 44 7 6 20
8 29 4 9 -3 40 1 68 11 47 15 53 15 63 1 8 -10 15 -12 22 -5 12 12 111 15 171
4 34 -5 42 -4 42 9 0 8 -4 17 -9 20 -17 11 -316 16 -331 6z"/>
<path d="M7705 4500 c3 -5 8 -10 11 -10 2 0 4 5 4 10 0 6 -5 10 -11 10 -5 0
-7 -4 -4 -10z"/>
<path d="M2995 4479 c-12 -19 5 -23 22 -6 16 16 16 17 1 17 -9 0 -20 -5 -23
-11z"/>
<path d="M7381 4481 c-8 -5 -9 -11 -3 -15 13 -8 42 3 42 15 0 11 -21 11 -39 0z"/>
<path d="M6750 4465 c-7 -9 -10 -18 -7 -21 6 -7 47 18 47 28 0 14 -27 9 -40
-7z"/>
<path d="M7646 4471 c-4 -7 -5 -15 -2 -18 9 -9 19 4 14 18 -4 11 -6 11 -12 0z"/>
<path d="M6980 4461 c0 -13 29 -35 37 -28 7 8 -15 37 -28 37 -5 0 -9 -4 -9 -9z"/>
<path d="M2934 4450 c-26 -10 -40 -30 -22 -30 17 0 55 26 48 33 -3 3 -15 1
-26 -3z"/>
<path d="M6595 4444 c-9 -9 -14 -18 -11 -21 5 -5 66 25 66 32 0 12 -40 3 -55
-11z"/>
<path d="M7822 4418 c-6 -24 -7 -47 -3 -51 10 -10 44 70 36 84 -12 19 -23 8
-33 -33z"/>
<path d="M6855 4430 c-25 -27 -10 -39 16 -13 12 11 17 23 11 27 -5 3 -17 -3
-27 -14z"/>
<path d="M7736 4442 c-3 -5 -8 -28 -12 -52 -5 -31 -4 -41 4 -36 10 6 32 67 32
89 0 10 -18 9 -24 -1z"/>
<path d="M2652 4413 c-12 -2 -20 -9 -17 -14 7 -10 54 -2 70 12 9 9 -11 10 -53
2z"/>
<path d="M2810 4410 c0 -5 13 -10 29 -10 17 0 33 5 36 10 4 6 -8 10 -29 10
-20 0 -36 -4 -36 -10z"/>
<path d="M2453 4403 c-44 -6 -42 -23 1 -23 40 0 66 8 66 21 0 9 -7 9 -67 2z"/>
<path d="M6540 4392 c-22 -10 -36 -26 -38 -39 -5 -31 16 -29 28 2 5 14 20 27
35 31 14 3 25 10 25 15 0 13 -11 11 -50 -9z"/>
<path d="M2688 4363 c-30 -8 -20 -24 10 -17 34 8 53 24 27 23 -11 -1 -28 -3
-37 -6z"/>
<path d="M2249 4337 c-21 -10 -39 -26 -39 -33 0 -11 7 -9 28 6 16 12 48 24 70
27 23 3 42 9 42 14 0 14 -60 6 -101 -14z"/>
<path d="M3498 4341 c6 -18 22 -29 22 -16 0 3 0 12 0 20 0 8 -7 15 -15 15 -10
0 -12 -6 -7 -19z"/>
<path d="M6567 4335 c-36 -25 -48 -45 -27 -45 6 0 10 3 10 8 0 4 16 16 35 26
19 11 35 23 35 28 0 14 -14 9 -53 -17z"/>
<path d="M7570 4315 c-15 -52 -8 -67 14 -33 24 37 31 78 13 78 -9 0 -19 -18
-27 -45z"/>
<path d="M7007 4330 c6 -24 26 -21 31 3 2 11 -3 17 -16 17 -15 0 -19 -5 -15
-20z"/>
<path d="M2823 4333 c-28 -5 -30 -23 -4 -23 26 0 51 10 51 21 0 9 -8 10 -47 2z"/>
<path d="M2585 4320 c-4 -6 -1 -10 5 -10 7 0 9 -7 6 -16 -4 -12 0 -15 17 -12
12 2 22 9 22 17 0 17 -42 34 -50 21z"/>
<path d="M2680 4310 c0 -5 9 -10 20 -10 11 0 20 5 20 10 0 6 -9 10 -20 10 -11
0 -20 -4 -20 -10z"/>
<path d="M7270 4300 c0 -5 5 -10 11 -10 5 0 7 5 4 10 -3 6 -8 10 -11 10 -2 0
-4 -4 -4 -10z"/>
<path d="M2036 4279 c-34 -27 -28 -34 10 -14 16 8 35 15 42 15 6 0 12 5 12 10
0 17 -36 11 -64 -11z"/>
<path d="M7800 4284 c0 -17 22 -14 28 4 2 7 -3 12 -12 12 -9 0 -16 -7 -16 -16z"/>
<path d="M6940 4265 c-7 -8 -8 -15 -2 -15 5 0 15 7 22 15 7 8 8 15 2 15 -5 0
-15 -7 -22 -15z"/>
<path d="M2191 4257 c-19 -7 -36 -17 -38 -24 -3 -8 11 -6 41 6 74 28 72 44 -3
18z"/>
<path d="M3460 4260 c0 -5 5 -10 10 -10 6 0 10 5 10 10 0 6 -4 10 -10 10 -5 0
-10 -4 -10 -10z"/>
<path d="M6977 4263 c-14 -13 -6 -20 18 -15 14 2 28 8 31 13 6 10 -39 12 -49
2z"/>
<path d="M7064 4234 c-19 -20 -32 -39 -29 -42 6 -7 77 50 83 66 7 23 -19 11
-54 -24z"/>
<path d="M7240 4255 c-7 -9 -10 -18 -7 -22 8 -7 37 15 37 28 0 14 -16 11 -30
-6z"/>
<path d="M7936 4236 c-10 -24 -13 -43 -7 -49 5 -5 14 5 21 27 17 52 6 69 -14
22z"/>
<path d="M2495 4250 c-4 -6 5 -10 19 -10 14 0 26 5 26 10 0 6 -9 10 -19 10
-11 0 -23 -4 -26 -10z"/>
<path d="M2668 4217 c-15 -17 -25 -33 -23 -36 6 -6 44 29 56 51 15 28 -3 20
-33 -15z"/>
<path d="M6923 4232 c-37 -4 -45 -22 -10 -22 22 0 56 16 47 22 -3 2 -20 2 -37
0z"/>
<path d="M7647 4181 c-3 -33 -13 -73 -23 -90 -10 -17 -14 -34 -10 -38 9 -9 24
15 48 77 22 54 23 84 4 99 -11 9 -14 0 -19 -48z"/>
<path d="M7127 4197 c-34 -29 -48 -57 -29 -57 14 0 84 77 75 83 -4 3 -25 -9
-46 -26z"/>
<path d="M1963 4199 c-30 -19 -43 -39 -25 -39 11 1 78 59 67 60 -5 0 -25 -10
-42 -21z"/>
<path d="M2317 4213 c-13 -12 -7 -23 12 -23 10 0 24 7 31 15 10 13 9 15 -12
15 -14 0 -28 -3 -31 -7z"/>
<path d="M2475 4210 c-7 -12 12 -12 40 0 18 8 17 9 -7 9 -15 1 -30 -3 -33 -9z"/>
<path d="M7194 4178 c-39 -44 -75 -98 -66 -98 15 0 92 88 92 105 0 20 -3 19
-26 -7z"/>
<path d="M3365 4180 c-8 -13 4 -32 16 -25 12 8 12 35 0 35 -6 0 -13 -4 -16
-10z"/>
<path d="M1867 4160 c-14 -11 -34 -20 -45 -20 -24 0 -75 -57 -65 -73 4 -6 11
-1 17 14 13 30 26 40 46 34 8 -2 33 12 54 31 42 36 36 48 -7 14z"/>
<path d="M2070 4170 c0 -5 4 -10 9 -10 6 0 13 5 16 10 3 6 -1 10 -9 10 -9 0
-16 -4 -16 -10z"/>
<path d="M2163 4164 c-47 -20 -41 -35 7 -17 22 9 40 20 40 25 0 11 -8 9 -47
-8z"/>
<path d="M2463 4165 c2 -5 16 -10 32 -10 16 0 30 5 32 10 2 6 -13 10 -32 10
-19 0 -33 -4 -32 -10z"/>
<path d="M6906 4145 c-3 -8 -14 -15 -24 -15 -11 0 -25 -7 -32 -15 -7 -8 -28
-15 -48 -15 -35 0 -35 0 -17 20 29 32 8 36 -25 5 -17 -16 -30 -32 -30 -37 0
-17 107 -8 131 11 13 10 29 16 36 14 6 -2 33 3 58 12 26 8 50 13 55 10 4 -3
13 2 20 10 10 13 8 15 -13 15 -14 0 -38 -5 -54 -11 -19 -7 -29 -7 -31 0 -5 16
-19 13 -26 -4z"/>
<path d="M7741 4088 c1 -71 -4 -99 -26 -131 -19 -30 -7 -37 17 -9 23 26 37 81
35 136 -3 70 -27 74 -26 4z"/>
<path d="M7967 4133 c-2 -5 -7 -21 -11 -38 -7 -29 -7 -29 13 -11 12 11 21 25
21 32 0 15 -17 28 -23 17z"/>
<path d="M2775 4121 c-7 -12 12 -24 25 -16 6 4 9 3 8 -2 -2 -4 0 -9 5 -10 18
-7 19 -2 2 17 -20 22 -31 25 -40 11z"/>
<path d="M1876 4085 c-9 -14 -13 -25 -8 -25 10 0 42 33 42 43 0 15 -19 5 -34
-18z"/>
<path d="M1933 4074 c-31 -24 -43 -44 -25 -44 13 1 64 50 60 60 -2 5 -18 -2
-35 -16z"/>
<path d="M2160 4085 c-10 -13 -9 -15 9 -15 11 0 21 4 21 9 0 18 -18 21 -30 6z"/>
<path d="M7415 4049 c-14 -28 -24 -53 -21 -56 6 -7 66 77 66 94 0 27 -19 11
-45 -38z"/>
<path d="M2267 4084 c-4 -4 -7 -11 -7 -15 0 -9 25 -6 26 4 2 11 -11 18 -19 11z"/>
<path d="M6647 4052 c-51 -53 -24 -91 46 -66 22 8 46 19 54 26 7 6 16 8 20 4
3 -3 1 -6 -5 -6 -9 0 -25 -30 -27 -50 0 -3 -26 -32 -57 -64 -32 -33 -55 -63
-52 -67 10 -17 36 -9 41 12 5 16 8 18 15 7 7 -10 11 -10 14 -1 3 7 21 22 40
34 19 12 33 23 30 26 -2 3 -15 -3 -29 -12 -16 -10 -27 -12 -32 -6 -5 10 49 51
67 51 10 0 96 59 103 71 10 15 -4 11 -56 -18 -27 -14 -52 -23 -57 -19 -4 5 15
28 42 52 27 25 46 47 44 50 -3 2 -11 -2 -18 -11 -7 -8 -18 -15 -25 -15 -7 0
-32 -8 -56 -19 -93 -40 -124 -34 -78 15 11 12 16 24 11 28 -5 3 -21 -7 -35
-22z"/>
<path d="M7145 4045 c-40 -34 -78 -43 -67 -16 4 11 -2 10 -26 -4 -30 -18 -48
-43 -38 -52 3 -3 15 2 28 11 25 18 53 22 43 6 -3 -5 -2 -10 2 -10 10 0 107 79
111 91 7 18 -14 8 -53 -26z"/>
<path d="M7873 4045 c-13 -43 1 -46 22 -5 18 36 19 40 2 40 -8 0 -18 -16 -24
-35z"/>
<path d="M2482 4058 c5 -15 27 -18 31 -3 1 5 -6 11 -17 13 -12 3 -17 -1 -14
-10z"/>
<path d="M1762 4016 c-18 -21 -29 -42 -26 -48 5 -7 12 -4 20 8 7 10 21 27 30
36 9 9 14 22 12 29 -2 6 -18 -5 -36 -25z"/>
<path d="M2265 4039 c-4 -6 -5 -12 -3 -14 7 -7 48 7 48 16 0 13 -37 11 -45 -2z"/>
<path d="M2656 4041 c-4 -5 -2 -12 3 -15 5 -4 12 -2 15 3 4 5 2 12 -3 15 -5 4
-12 2 -15 -3z"/>
<path d="M2100 4024 c0 -14 3 -14 15 -4 8 7 15 14 15 16 0 2 -7 4 -15 4 -8 0
-15 -7 -15 -16z"/>
<path d="M3090 4015 c0 -30 29 -87 41 -80 13 8 5 61 -12 82 -15 17 -29 17 -29
-2z"/>
<path d="M1973 4002 c-33 -16 -44 -32 -20 -32 15 0 64 37 57 43 -3 3 -20 -2
-37 -11z"/>
<path d="M6055 3999 c-6 -19 0 -38 9 -28 10 12 16 49 7 49 -5 0 -13 -9 -16
-21z"/>
<path d="M2265 4000 c-18 -8 -17 -9 8 -9 15 -1 27 4 27 9 0 12 -8 12 -35 0z"/>
<path d="M2460 4000 c0 -5 6 -10 14 -10 8 0 18 5 21 10 3 6 -3 10 -14 10 -12
0 -21 -4 -21 -10z"/>
<path d="M2647 4003 c-12 -11 -8 -23 8 -23 8 0 15 7 15 15 0 16 -12 20 -23 8z"/>
<path d="M2834 3997 c-8 -21 2 -35 16 -21 5 5 6 15 0 24 -8 12 -10 12 -16 -3z"/>
<path d="M6905 3970 c-33 -22 -66 -38 -72 -35 -7 2 -13 0 -13 -5 0 -19 33 -10
91 27 33 20 62 40 65 45 11 17 -13 6 -71 -32z"/>
<path d="M7650 3970 c0 -11 5 -20 10 -20 6 0 10 9 10 20 0 11 -4 20 -10 20 -5
0 -10 -9 -10 -20z"/>
<path d="M2470 3965 c-10 -13 -9 -15 9 -15 11 0 21 4 21 9 0 18 -18 21 -30 6z"/>
<path d="M2260 3960 c-12 -8 -10 -10 8 -10 13 0 20 4 17 10 -7 12 -6 12 -25 0z"/>
<path d="M2655 3950 c-3 -5 1 -10 9 -10 9 0 16 5 16 10 0 6 -4 10 -9 10 -6 0
-13 -4 -16 -10z"/>
<path d="M3242 3949 c2 -7 10 -15 17 -17 8 -3 12 1 9 9 -2 7 -10 15 -17 17 -8
3 -12 -1 -9 -9z"/>
<path d="M7984 3933 c-7 -24 -5 -33 4 -33 11 0 22 50 10 50 -5 0 -12 -8 -14
-17z"/>
<path d="M1641 3909 c-15 -45 -14 -51 9 -37 12 8 20 24 20 40 0 37 -15 35 -29
-3z"/>
<path d="M7482 3893 c-22 -45 -23 -61 -3 -48 11 6 51 78 51 90 0 3 -6 5 -12 5
-7 -1 -23 -22 -36 -47z"/>
<path d="M2257 3913 c-9 -2 -15 -8 -12 -13 6 -10 45 -1 45 11 0 9 -4 10 -33 2z"/>
<path d="M2675 3911 c-6 -11 9 -23 19 -14 9 9 7 23 -3 23 -6 0 -12 -4 -16 -9z"/>
<path d="M6045 3900 c-7 -12 2 -30 16 -30 12 0 12 27 0 35 -5 3 -12 1 -16 -5z"/>
<path d="M1800 3871 c-19 -16 -32 -32 -29 -35 7 -7 79 42 79 54 0 16 -13 11
-50 -19z"/>
<path d="M2455 3890 c3 -5 10 -10 16 -10 5 0 9 5 9 10 0 6 -7 10 -16 10 -8 0
-12 -4 -9 -10z"/>
<path d="M7786 3865 c-9 -21 -24 -44 -34 -51 -20 -16 -9 -18 19 -4 26 15 54
69 41 82 -7 7 -16 -2 -26 -27z"/>
<path d="M2283 3883 c-7 -2 -13 -9 -13 -15 0 -14 43 -6 48 10 4 12 -12 15 -35
5z"/>
<path d="M6940 3860 c-25 -16 -54 -30 -65 -30 -11 -1 -33 -7 -50 -15 -16 -8
-21 -13 -10 -11 11 3 36 8 55 12 36 7 71 26 104 56 29 26 17 22 -34 -12z"/>
<path d="M2668 3848 c9 -9 15 -9 24 0 9 9 7 12 -12 12 -19 0 -21 -3 -12 -12z"/>
<path d="M2477 3844 c-3 -3 -3 -12 0 -20 6 -16 43 -19 43 -4 0 12 -35 31 -43
24z"/>
<path d="M2306 3831 c-4 -7 -5 -15 -2 -18 9 -9 19 4 14 18 -4 11 -6 11 -12 0z"/>
<path d="M2670 3820 c0 -5 9 -10 20 -10 11 0 20 5 20 10 0 6 -9 10 -20 10 -11
0 -20 -4 -20 -10z"/>
<path d="M2817 3823 c-3 -5 -6 -42 -5 -82 0 -58 6 -86 28 -135 34 -74 94 -136
112 -118 10 10 10 14 1 20 -7 5 -26 26 -42 47 -27 37 -28 41 -15 67 16 31 18
32 45 18 11 -7 19 -21 19 -38 0 -24 10 -32 98 -74 165 -80 212 -98 212 -80 0
8 -12 15 -120 66 -103 49 -146 83 -174 138 -38 76 -62 103 -80 89 -12 -10 -15
-6 -21 17 -7 32 -49 79 -58 65z"/>
<path d="M7601 3808 c-8 -13 -21 -33 -29 -45 -8 -13 -10 -23 -5 -23 15 0 55
59 51 76 -2 11 -7 9 -17 -8z"/>
<path d="M7820 3805 c-7 -9 -11 -18 -8 -20 3 -3 11 1 18 10 7 9 11 18 8 20 -3
3 -11 -1 -18 -10z"/>
<path d="M7323 3775 c-31 -47 -29 -54 7 -20 17 16 30 35 30 42 0 22 -14 14
-37 -22z"/>
<path d="M7888 3793 c-2 -10 -1 -38 3 -63 6 -43 6 -43 7 18 2 61 -2 79 -10 45z"/>
<path d="M1907 3760 c-19 -28 -21 -40 -7 -40 12 0 32 38 28 52 -3 7 -12 1 -21
-12z"/>
<path d="M1608 3764 c-5 -4 -8 -21 -8 -38 0 -21 3 -27 11 -19 6 6 9 23 7 38
-2 15 -6 23 -10 19z"/>
<path d="M3215 3759 c-3 -9 1 -40 11 -68 9 -29 14 -54 11 -57 -3 -3 1 -29 10
-57 8 -28 16 -59 18 -70 8 -38 17 -57 27 -57 12 0 4 64 -16 125 -8 22 -17 68
-21 102 -8 68 -29 111 -40 82z"/>
<path d="M6005 3750 c-16 -18 -16 -20 -2 -20 10 0 17 -4 17 -10 0 -5 -9 -10
-20 -10 -11 0 -20 -4 -20 -10 0 -5 16 -10 35 -10 30 0 35 3 35 24 0 29 -9 56
-20 56 -4 0 -15 -9 -25 -20z"/>
<path d="M3477 3753 c-10 -10 -8 -81 2 -87 12 -8 21 18 21 60 0 32 -8 42 -23
27z"/>
<path d="M6409 3723 c-13 -16 -12 -17 4 -4 16 13 21 21 13 21 -2 0 -10 -8 -17
-17z"/>
<path d="M7657 3695 c-15 -19 -24 -35 -19 -35 10 0 62 53 62 63 0 16 -17 5
-43 -28z"/>
<path d="M7776 3709 c-26 -21 -34 -39 -17 -39 5 0 19 14 31 30 25 35 22 37
-14 9z"/>
<path d="M7382 3669 c-28 -27 -52 -52 -52 -55 0 -14 60 30 88 65 45 56 27 51
-36 -10z"/>
<path d="M1690 3691 c-12 -24 -13 -51 -1 -51 5 0 11 8 14 18 2 9 8 25 12 35
10 24 -12 22 -25 -2z"/>
<path d="M1882 3683 c2 -16 8 -28 13 -28 6 0 11 12 13 28 2 20 -1 27 -13 27
-12 0 -15 -7 -13 -27z"/>
<path d="M6110 3691 c0 -20 17 -37 27 -28 7 8 -7 47 -18 47 -5 0 -9 -9 -9 -19z"/>
<path d="M7055 3680 c-28 -31 -8 -37 23 -7 19 20 22 27 11 27 -9 0 -24 -9 -34
-20z"/>
<path d="M3560 3665 c0 -8 5 -15 10 -15 6 0 10 7 10 15 0 8 -4 15 -10 15 -5 0
-10 -7 -10 -15z"/>
<path d="M7821 3658 c-6 -17 -5 -24 6 -26 19 -5 43 16 43 37 0 12 -5 10 -21
-9 -20 -24 -20 -24 -14 -2 4 12 4 22 0 22 -3 0 -9 -10 -14 -22z"/>
<path d="M1595 3649 c-9 -28 1 -36 14 -10 7 12 7 22 2 26 -5 3 -13 -4 -16 -16z"/>
<path d="M7760 3648 c-22 -13 -30 -23 -21 -26 7 -2 25 7 39 22 32 32 28 33
-18 4z"/>
<path d="M6910 3608 c0 -45 52 -168 70 -168 14 0 12 12 -6 38 -8 12 -11 22 -6
22 16 0 34 -57 37 -113 2 -28 -5 -85 -16 -126 -10 -41 -19 -83 -19 -92 0 -14
-40 -106 -103 -239 -7 -13 -33 -53 -59 -88 -27 -35 -48 -72 -48 -83 0 -22 22
-34 47 -25 12 5 14 9 5 18 -18 18 -15 32 16 71 50 67 67 92 69 106 1 8 8 28
16 45 8 17 21 44 28 60 l14 30 3 -28 c2 -15 -4 -38 -12 -51 -9 -13 -16 -31
-16 -38 0 -8 -9 -22 -21 -33 -11 -10 -25 -27 -31 -38 -9 -17 -7 -18 16 -12 22
5 26 3 26 -15 0 -18 -2 -19 -15 -9 -13 10 -15 9 -15 -9 0 -12 7 -24 15 -27 8
-3 21 -31 30 -62 10 -31 25 -68 35 -82 21 -30 46 -117 36 -127 -4 -4 -32 -8
-64 -10 l-57 -3 -38 80 c-21 44 -42 82 -47 85 -20 12 -9 -27 25 -95 40 -80 46
-111 16 -81 -11 11 -28 35 -37 53 -9 18 -25 44 -36 58 -37 49 -68 101 -68 115
0 20 -19 19 -26 0 -4 -9 5 -33 20 -53 14 -21 26 -42 26 -47 0 -4 17 -31 38
-59 61 -81 82 -120 73 -135 -6 -9 -38 -13 -117 -13 -60 0 -118 -5 -129 -11
-48 -25 -61 -77 -20 -77 14 0 25 3 25 8 0 10 204 10 211 -1 3 -4 39 -10 80
-12 89 -5 153 -18 174 -35 9 -7 41 -14 73 -16 71 -3 89 -7 104 -22 7 -7 18
-12 25 -12 17 0 17 44 -1 59 -17 14 -104 41 -133 41 -13 0 -23 5 -23 10 0 9
90 16 143 12 9 -1 17 2 17 8 0 5 -8 14 -17 20 -14 9 3 9 67 4 47 -4 105 -8
130 -9 25 -1 55 -7 67 -13 12 -7 29 -12 37 -12 9 0 16 -7 16 -15 0 -8 5 -15
10 -15 18 0 52 41 46 56 -8 21 -61 41 -131 48 -102 11 -128 18 -113 27 17 11
131 11 144 0 12 -11 83 -22 87 -13 3 4 7 19 11 34 7 32 -5 37 -91 43 -31 1
-59 8 -61 14 -5 16 -22 13 -22 -4 0 -12 -13 -15 -61 -15 l-61 0 23 19 c13 10
30 16 37 13 8 -3 18 1 22 8 5 8 26 13 54 13 50 -1 56 5 27 31 -13 12 -27 15
-47 11 -16 -4 -47 -10 -69 -15 -22 -4 -53 -13 -70 -20 -31 -13 -131 -39 -152
-40 -31 -1 -70 90 -80 185 -2 22 -11 64 -19 93 -18 60 -10 93 31 132 22 21 47
66 89 164 13 30 14 42 5 50 -8 8 -13 8 -16 -1 -6 -18 -63 -17 -63 1 0 10 -11
12 -45 9 l-44 -6 6 39 c3 21 12 49 20 64 7 14 13 39 13 56 0 57 -22 149 -39
165 -10 9 -28 42 -41 73 -23 57 -50 75 -50 34z m57 -710 c-3 -8 -6 -5 -6 6 -1
11 2 17 5 13 3 -3 4 -12 1 -19z m22 -69 c-12 -21 -14 -22 -17 -6 -6 28 6 53
19 40 8 -8 7 -18 -2 -34z m11 -144 c0 -5 -5 -3 -10 5 -5 8 -10 20 -10 25 0 6
5 3 10 -5 5 -8 10 -19 10 -25z m40 -76 c0 -5 -4 -9 -10 -9 -5 0 -10 7 -10 16
0 8 5 12 10 9 6 -3 10 -10 10 -16z m281 -44 c-18 -8 -38 -15 -45 -14 -15 1 46
28 64 28 8 0 0 -6 -19 -14z m-225 -36 c10 -17 -13 -36 -27 -22 -12 12 -4 33
11 33 5 0 12 -5 16 -11z m135 0 c4 -7 41 -14 83 -17 42 -2 75 -6 73 -8 -11
-12 -111 -23 -122 -14 -15 12 -25 3 -25 -23 0 -17 -5 -19 -32 -13 -18 4 -47
10 -65 13 -25 4 -30 9 -23 22 5 9 11 23 13 31 6 19 87 26 98 9z m-191 -34 c0
-16 -71 -39 -98 -32 -11 3 -5 7 16 12 19 4 36 14 39 21 7 19 43 18 43 -1z
m-160 -36 c0 -6 -4 -7 -10 -4 -5 3 -10 11 -10 16 0 6 5 7 10 4 6 -3 10 -11 10
-16z m228 -17 c2 -6 -6 -10 -17 -9 -22 1 -26 8 -14 21 9 9 26 3 31 -12z m-78
4 c0 -11 -19 -15 -25 -6 -3 5 1 10 9 10 9 0 16 -2 16 -4z m378 -11 c23 -4 42
-11 42 -15 0 -10 -83 -2 -116 10 -14 6 -29 8 -34 5 -5 -3 -12 -1 -15 5 -7 11
40 9 123 -5z m-418 -4 c0 -6 9 -11 20 -11 23 0 24 -1 8 -35 -14 -30 -29 -32
-46 -5 -16 27 -36 26 -29 -1 5 -20 3 -21 -36 -16 -23 3 -43 11 -45 16 -2 6
-31 11 -65 11 -76 1 -57 19 22 21 29 1 51 7 51 13 0 7 25 13 60 14 38 2 60 -1
60 -7z m210 -16 c14 -17 14 -16 -35 -17 -19 -1 -35 2 -35 5 0 4 0 12 0 17 0
16 56 12 70 -5z m-100 -15 c0 -5 -9 -10 -19 -10 -11 0 -23 5 -26 10 -4 6 5 10
19 10 14 0 26 -4 26 -10z"/>
<path d="M5920 3609 c0 -5 9 -9 20 -9 11 0 20 2 20 4 0 2 -9 6 -20 9 -11 3
-20 1 -20 -4z"/>
<path d="M7124 3585 c-21 -19 -34 -34 -29 -34 15 -1 81 56 74 63 -3 3 -23 -10
-45 -29z"/>
<path d="M7445 3580 c-22 -22 -35 -40 -29 -40 13 0 79 68 73 75 -3 2 -23 -13
-44 -35z"/>
<path d="M7770 3595 c-13 -14 -19 -25 -14 -25 12 0 59 50 47 50 -5 0 -20 -11
-33 -25z"/>
<path d="M7870 3600 c-6 -11 -9 -26 -7 -33 3 -7 10 1 16 17 14 35 7 47 -9 16z"/>
<path d="M7800 3575 c-17 -21 -68 -47 -78 -41 -11 7 -38 -12 -29 -20 11 -12
84 17 108 42 12 13 20 26 17 29 -3 3 -11 -2 -18 -10z"/>
<path d="M3580 3570 c0 -5 5 -10 10 -10 6 0 10 5 10 10 0 6 -4 10 -10 10 -5 0
-10 -4 -10 -10z"/>
<path d="M2260 3544 c0 -26 20 -54 38 -54 10 0 23 -5 30 -12 6 -6 14 -9 18 -6
9 10 -26 57 -47 63 -10 4 -19 11 -19 16 0 5 -4 9 -10 9 -5 0 -10 -7 -10 -16z"/>
<path d="M1653 3523 c-8 -3 -13 -23 -13 -48 0 -24 -4 -47 -10 -50 -18 -11 -10
-25 15 -25 19 0 26 7 36 38 18 62 6 99 -28 85z"/>
<path d="M6100 3515 c-7 -8 -27 -15 -44 -15 -26 -1 -28 -2 -13 -11 10 -6 25
-8 33 -5 8 3 14 1 14 -4 0 -6 -9 -10 -19 -10 -24 0 -36 -16 -20 -25 15 -10 89
25 89 41 0 19 -11 44 -20 44 -4 0 -13 -7 -20 -15z"/>
<path d="M6269 3497 c-44 -97 155 -299 319 -324 17 -3 32 -11 32 -18 0 -12 66
-27 130 -29 22 -1 25 -5 21 -31 -1 -16 -7 -38 -12 -47 -5 -9 -9 -28 -9 -42 0
-14 -20 -64 -45 -110 -25 -47 -45 -98 -45 -113 l0 -28 25 30 c13 17 25 37 25
45 1 24 26 65 38 63 19 -4 30 28 36 102 2 39 10 93 17 120 6 28 11 65 10 84
-1 18 7 60 19 92 38 111 18 119 -57 23 -32 -41 -32 -55 0 -67 26 -10 4 -47
-27 -47 -13 0 -39 -2 -57 -5 -31 -5 -32 -4 -11 6 26 14 31 35 5 23 -10 -5 -38
-9 -63 -9 -41 0 -51 5 -95 48 -27 26 -53 47 -57 47 -3 0 -17 17 -29 38 -33 54
-81 114 -87 108 -2 -3 3 -17 12 -32 10 -14 15 -28 12 -31 -10 -11 -36 19 -62
73 -14 30 -28 54 -30 54 -3 0 -9 -10 -15 -23z m125 -146 c30 -33 12 -44 -19
-11 -20 21 -24 30 -13 30 8 0 23 -9 32 -19z"/>
<path d="M6564 3506 c-10 -8 -16 -18 -11 -22 8 -8 57 15 57 28 0 13 -24 9 -46
-6z"/>
<path d="M2070 3462 c0 -11 51 -35 58 -28 3 3 -1 12 -8 21 -13 16 -50 21 -50
7z"/>
<path d="M7293 3456 c-46 -16 -54 -30 -13 -22 33 6 58 21 49 30 -2 2 -18 -2
-36 -8z"/>
<path d="M6716 3435 c-6 -16 3 -19 28 -9 22 8 20 24 -3 24 -10 0 -21 -7 -25
-15z"/>
<path d="M1955 3430 c-4 -6 8 -10 29 -10 20 0 36 5 36 10 0 6 -13 10 -29 10
-17 0 -33 -4 -36 -10z"/>
<path d="M2409 3413 c-1 -4 0 -19 1 -32 1 -14 -2 -21 -9 -17 -14 9 -14 5 4
-38 8 -20 20 -36 26 -36 5 0 7 5 4 10 -3 6 -3 10 2 10 7 0 31 -57 56 -132 9
-25 31 -23 24 1 -3 12 1 22 10 25 9 4 12 13 8 26 -3 11 -2 20 4 20 14 0 23
-34 15 -55 -6 -15 -2 -17 37 -10 24 4 49 12 56 17 7 5 16 7 21 4 5 -3 39 0 75
6 46 8 67 15 67 25 0 12 -12 13 -67 8 -38 -4 -73 -12 -80 -17 -28 -23 -53 2
-77 75 -10 32 -28 19 -21 -15 7 -33 7 -33 -10 -10 -9 12 -23 22 -32 22 -12 0
-15 -8 -10 -40 3 -22 2 -40 -3 -40 -12 0 -20 28 -20 71 0 30 3 37 15 33 9 -4
15 0 15 9 0 8 -7 20 -15 27 -8 7 -15 9 -15 5 0 -4 -7 -2 -15 5 -13 10 -15 9
-15 -11 0 -32 -18 -12 -22 25 -3 26 -26 50 -29 29z"/>
<path d="M6510 3411 c0 -11 25 -21 56 -21 27 0 32 15 8 24 -24 9 -64 7 -64 -3z"/>
<path d="M1450 3387 c0 -17 9 -40 51 -132 34 -76 98 -128 112 -91 8 19 -23 62
-33 46 -4 -7 -12 -10 -18 -6 -11 7 -66 116 -76 153 -9 29 -36 52 -36 30z"/>
<path d="M1671 3371 c-20 -13 -5 -47 40 -88 21 -20 39 -42 39 -50 0 -18 80
-104 91 -98 4 3 20 -11 36 -31 15 -20 45 -45 68 -55 22 -10 47 -23 55 -28 8
-5 32 -17 53 -26 24 -10 37 -22 37 -35 0 -11 5 -20 11 -20 28 0 -67 -193 -121
-243 -23 -21 -40 -46 -40 -59 0 -21 0 -21 26 3 14 13 30 34 35 47 5 12 15 22
23 22 11 0 13 -8 9 -35 -7 -44 11 -47 26 -3 8 21 8 35 1 42 -14 14 -12 28 8
54 18 23 18 22 17 -45 -1 -59 -5 -74 -28 -104 -15 -20 -32 -50 -38 -67 -13
-37 -25 -33 -45 14 -8 19 -19 34 -24 34 -19 0 -10 -43 15 -76 14 -18 25 -36
25 -41 0 -15 41 -87 65 -113 30 -34 35 -53 19 -75 -28 -38 -6 -93 24 -63 8 8
7 15 -5 23 -15 11 -14 14 3 31 24 24 28 129 5 143 -10 6 -12 19 -7 45 5 26 2
43 -9 58 -25 37 -18 64 30 115 45 48 131 188 142 231 8 35 -26 65 -136 119
-53 26 -111 62 -129 80 -36 36 -47 40 -55 21 -4 -9 -16 -2 -36 20 -38 40 -40
55 -6 42 14 -5 25 -8 25 -5 0 13 -69 77 -78 71 -5 -3 -15 1 -22 9 -7 8 -18 15
-25 15 -18 0 -68 59 -84 98 -14 34 -18 37 -40 23z m143 -167 c5 -14 4 -15 -9
-4 -17 14 -19 20 -6 20 5 0 12 -7 15 -16z m328 -276 c-7 -7 -12 -8 -12 -2 0
14 12 26 19 19 2 -3 -1 -11 -7 -17z m78 -21 c0 -2 -9 -21 -20 -43 -13 -27 -19
-33 -19 -19 -1 35 11 65 25 65 8 0 14 -1 14 -3z m-84 -34 c-5 -16 -3 -29 5
-34 9 -5 10 -16 3 -40 -11 -37 -34 -51 -34 -21 0 11 -6 22 -12 25 -10 3 -6 17
12 51 28 52 35 58 26 19z m4 -151 c0 -13 -28 -47 -34 -42 -10 10 6 50 20 50 8
0 14 -4 14 -8z m-81 -265 c6 -6 11 -19 11 -29 0 -10 5 -18 10 -18 6 0 10 -7
10 -16 0 -28 -30 5 -56 60 -18 39 -20 52 -11 68 11 17 13 15 18 -17 3 -20 11
-41 18 -48z"/>
<path d="M2525 3370 c-3 -5 1 -10 10 -10 9 0 13 5 10 10 -3 6 -8 10 -10 10 -2
0 -7 -4 -10 -10z"/>
<path d="M2287 3345 c20 -27 33 -32 33 -12 0 17 -20 37 -37 37 -11 0 -9 -6 4
-25z"/>
<path d="M7315 3339 c-33 -29 -46 -59 -26 -59 13 0 41 29 41 42 0 6 7 20 17
30 26 29 7 21 -32 -13z"/>
<path d="M1798 3348 c-6 -17 11 -68 23 -68 10 0 1 60 -11 73 -4 5 -10 3 -12
-5z"/>
<path d="M2570 3346 c0 -7 9 -16 19 -19 11 -3 27 -21 35 -41 10 -25 21 -36 35
-36 12 0 21 5 21 10 0 6 -7 10 -15 10 -8 0 -18 12 -21 27 -11 44 -74 85 -74
49z"/>
<path d="M1636 3330 c-7 -20 -9 -22 -13 -7 -7 27 -23 20 -25 -10 -2 -36 1 -66
7 -71 9 -9 64 63 56 73 -5 5 -10 17 -13 25 -3 10 -7 7 -12 -10z"/>
<path d="M6540 3340 c0 -5 13 -10 29 -10 17 0 33 5 36 10 4 6 -8 10 -29 10
-20 0 -36 -4 -36 -10z"/>
<path d="M1538 3325 c-7 -7 14 -80 25 -92 5 -4 6 12 3 36 -5 44 -17 67 -28 56z"/>
<path d="M2020 3320 c0 -16 58 -76 66 -68 4 4 -5 23 -20 43 -26 34 -46 45 -46
25z"/>
<path d="M6571 3299 c-18 -11 -31 -23 -27 -26 7 -8 76 26 76 37 0 15 -11 12
-49 -11z"/>
<path d="M2690 3301 c0 -6 10 -17 22 -26 28 -19 40 1 12 22 -21 15 -34 17 -34
4z"/>
<path d="M6677 3294 c-14 -14 -6 -25 16 -22 12 2 22 7 22 13 0 12 -28 18 -38
9z"/>
<path d="M1890 3280 c0 -14 58 -116 73 -129 7 -5 25 -12 41 -15 33 -6 46 -17
29 -23 -22 -8 -14 -18 22 -31 18 -7 44 -25 57 -40 24 -29 72 -55 82 -45 10 11
6 23 -7 23 -16 0 -111 91 -173 164 -23 26 -47 47 -54 44 -9 -3 -4 -13 14 -33
14 -15 24 -30 21 -33 -9 -9 -41 27 -64 73 -22 45 -41 66 -41 45z"/>
<path d="M2105 3270 c-3 -5 0 -10 7 -10 8 0 21 -9 31 -20 9 -11 22 -20 27 -20
16 0 -6 37 -30 50 -23 12 -27 13 -35 0z"/>
<path d="M2308 3234 c-4 -3 -5 -11 -3 -17 2 -7 6 -24 9 -39 9 -42 26 -33 19
10 -6 39 -15 56 -25 46z"/>
<path d="M2100 3217 c0 -19 52 -86 68 -87 18 0 15 6 -20 55 -34 46 -48 55 -48
32z"/>
<path d="M2410 3181 c0 -5 9 -19 20 -32 21 -26 27 -11 10 22 -11 19 -30 26
-30 10z"/>
<path d="M2460 3101 c0 -6 5 -13 10 -16 6 -3 10 1 10 9 0 9 -4 16 -10 16 -5 0
-10 -4 -10 -9z"/>
<path d="M2510 3081 c0 -26 17 -36 36 -21 11 10 12 16 3 26 -17 20 -39 17 -39
-5z"/>
<path d="M2302 3048 c3 -7 13 -15 22 -16 12 -3 17 1 14 10 -3 7 -13 15 -22 16
-12 3 -17 -1 -14 -10z"/>
<path d="M2507 2953 c-27 -62 -69 -118 -171 -225 -106 -110 -149 -168 -125
-168 13 0 53 41 69 70 6 11 15 20 21 20 6 0 32 24 57 53 26 28 62 67 80 86 36
37 72 94 97 154 14 33 14 37 0 37 -9 0 -21 -12 -28 -27z"/>
<path d="M2708 2784 c-51 -16 -69 -42 -20 -29 15 4 46 7 70 7 45 -1 54 11 23
28 -11 5 -21 10 -23 9 -2 0 -24 -7 -50 -15z"/>
<path d="M1577 2760 c-44 -8 -74 -30 -41 -30 10 0 34 4 53 10 22 6 40 6 52 -1
25 -13 44 -2 28 17 -12 15 -32 16 -92 4z"/>
<path d="M3072 2760 c-33 -8 -49 -17 -41 -23 10 -8 124 9 124 18 0 13 -41 16
-83 5z"/>
<path d="M2706 2689 c-68 -11 -89 -34 -22 -25 27 3 80 6 118 6 51 0 69 3 65
13 -4 14 -86 17 -161 6z"/>
<path d="M3055 2690 c-3 -6 5 -10 19 -10 14 0 28 5 31 10 3 6 -5 10 -19 10
-14 0 -28 -4 -31 -10z"/>
<path d="M1528 2654 c-16 -15 -6 -19 60 -22 48 -3 64 0 56 8 -13 13 -106 25
-116 14z"/>
<path d="M2460 2600 c0 -11 104 -10 122 2 7 4 -16 8 -54 8 -38 0 -68 -4 -68
-10z"/>
<path d="M2945 2577 c-15 -12 -1 -15 110 -21 71 -4 137 -12 148 -17 25 -14 35
-3 15 17 -28 29 -240 44 -273 21z"/>
<path d="M2410 2571 c-44 -9 -62 -19 -55 -32 4 -5 14 -5 26 2 11 6 78 11 150
11 127 1 170 9 108 22 -40 8 -183 6 -229 -3z"/>
<path d="M908 2553 c-33 -3 -48 -9 -48 -18 0 -21 9 -23 85 -16 56 5 70 10 73
24 4 18 0 18 -110 10z"/>
<path d="M1570 2520 c0 -20 111 -22 118 -2 2 8 -16 11 -57 11 -34 -1 -61 -5
-61 -9z"/>
<path d="M3249 2514 c-11 -14 -10 -19 10 -35 26 -21 47 -24 56 -8 4 6 -2 13
-14 16 -12 3 -21 11 -21 19 0 21 -17 25 -31 8z"/>
<path d="M2233 2494 c3 -11 11 -53 17 -94 7 -41 19 -83 27 -92 9 -10 12 -25 8
-38 -5 -17 1 -30 26 -56 21 -22 30 -38 23 -42 -6 -4 -14 -16 -18 -27 -8 -19
-8 -19 -19 3 -5 12 -16 22 -22 22 -7 0 -15 7 -19 15 -3 8 -17 15 -32 15 l-26
0 21 33 c11 19 17 37 13 41 -4 4 -29 50 -57 103 -54 105 -85 136 -60 61 8 -24
17 -60 20 -80 4 -27 10 -36 20 -31 12 4 15 -3 15 -31 0 -35 13 -49 23 -23 3 6
6 0 6 -15 1 -22 -4 -28 -20 -28 -11 0 -29 5 -40 11 -16 8 -20 7 -18 -3 2 -7
-1 -24 -5 -37 -6 -18 -4 -26 8 -33 9 -5 16 -20 16 -33 0 -22 5 -25 38 -26 20
-1 52 -1 70 0 31 2 32 1 32 -33 0 -20 3 -36 8 -37 4 0 43 -2 88 -3 44 -2 90
-6 101 -10 26 -8 43 12 33 39 -4 11 -26 36 -49 55 -130 109 -139 120 -151 173
-6 28 -16 57 -22 64 -6 8 -16 44 -22 80 -6 39 -17 68 -25 71 -9 3 -11 -2 -8
-14z m182 -414 c4 -6 -15 -10 -52 -9 -48 1 -53 3 -28 9 44 11 73 11 80 0z m40
0 c3 -5 -1 -10 -10 -10 -9 0 -13 5 -10 10 3 6 8 10 10 10 2 0 7 -4 10 -10z"/>
<path d="M2630 2458 c-14 -5 -55 -7 -93 -5 -47 4 -78 1 -102 -9 -19 -8 -35
-16 -35 -18 0 -3 119 1 242 8 33 1 42 10 26 23 -9 7 -21 7 -38 1z"/>
<path d="M3122 2438 c5 -15 52 -23 76 -13 15 6 15 8 -3 15 -32 14 -77 12 -73
-2z"/>
<path d="M1436 2421 c-9 -15 5 -18 87 -24 53 -4 67 -2 67 9 0 9 -11 14 -29 14
-15 0 -48 3 -73 6 -29 4 -48 2 -52 -5z"/>
<path d="M1827 2423 c-13 -12 -7 -25 9 -19 18 7 57 -11 49 -24 -3 -4 -28 -11
-56 -15 -72 -10 -47 -25 29 -18 49 5 62 9 58 20 -4 8 -6 21 -6 28 0 7 -14 18
-31 24 -37 13 -43 13 -52 4z"/>
<path d="M7905 2353 c-4 -16 -8 -38 -11 -50 -6 -34 12 -36 26 -3 7 16 18 35
26 41 19 15 18 33 -1 25 -8 -3 -15 -1 -15 4 0 22 -20 8 -25 -17z"/>
<path d="M7842 2358 c-5 -7 -11 -34 -13 -60 -4 -45 -2 -48 19 -48 15 0 21 4
16 12 -4 6 -6 33 -5 60 1 51 -1 55 -17 36z"/>
<path d="M2375 2350 c-8 -13 -23 -11 138 -17 121 -5 137 -3 137 11 0 14 -17
16 -134 16 -79 0 -137 -4 -141 -10z"/>
<path d="M2892 2328 c-7 -9 -33 -15 -69 -16 -79 -2 -133 -12 -133 -24 0 -6 13
-8 30 -6 16 2 31 0 33 -5 3 -11 4 -11 108 -22 52 -6 71 -4 89 8 12 8 30 13 41
10 24 -7 24 8 2 35 -23 27 -85 39 -101 20z"/>
<path d="M3375 2331 c-22 -3 -35 -9 -30 -13 13 -8 143 -13 151 -6 6 6 -53 29
-70 27 -6 -1 -29 -5 -51 -8z"/>
<path d="M7976 2309 c-14 -17 -26 -35 -26 -40 0 -16 20 -10 27 9 3 9 15 27 26
40 11 12 16 22 10 22 -6 0 -23 -14 -37 -31z"/>
<path d="M3635 2290 c-3 -6 1 -7 9 -4 18 7 21 14 7 14 -6 0 -13 -4 -16 -10z"/>
<path d="M8105 2277 c-4 -10 -3 -23 4 -30 16 -16 23 -3 12 24 -8 22 -10 22
-16 6z"/>
<path d="M3112 2269 c5 -16 68 -25 68 -10 0 6 -6 11 -12 11 -7 0 -24 3 -37 7
-18 4 -23 2 -19 -8z"/>
<path d="M7491 2266 c-12 -14 -8 -16 34 -16 26 0 74 -7 107 -16 33 -8 72 -14
86 -12 33 4 42 28 10 27 -26 0 -147 16 -194 26 -22 5 -34 2 -43 -9z"/>
<path d="M1364 2252 c-111 -17 -78 -27 86 -27 123 0 150 3 148 14 -2 10 -28
14 -109 15 -58 0 -114 0 -125 -2z"/>
<path d="M7907 2189 c-47 -53 -55 -69 -38 -69 14 0 93 99 89 111 -2 7 -25 -12
-51 -42z"/>
<path d="M8195 2220 c-11 -18 31 -51 52 -43 14 6 14 7 2 11 -7 2 -21 13 -30
25 -12 15 -18 17 -24 7z"/>
<path d="M1747 2193 c-17 -17 -2 -23 56 -20 34 1 70 -2 80 -7 12 -6 17 -4 17
7 0 8 -7 18 -16 21 -21 8 -129 8 -137 -1z"/>
<path d="M6963 2183 c-13 -2 -23 -9 -23 -15 0 -5 7 -7 16 -4 9 3 36 6 60 6 28
0 43 4 39 10 -6 10 -49 11 -92 3z"/>
<path d="M2710 2170 c-138 -8 -130 -7 -130 -18 0 -7 139 -6 225 1 l30 2 0 -64
c0 -66 -17 -94 -29 -48 -3 14 -15 27 -25 30 -17 4 -19 1 -14 -24 3 -17 0 -35
-7 -44 -10 -12 -10 -15 3 -15 9 0 20 -7 25 -17 9 -15 12 -14 39 5 29 21 73 21
73 0 0 -5 9 -6 20 -3 12 4 27 1 35 -5 15 -13 85 -6 85 8 0 14 -71 63 -81 56
-8 -4 -9 1 -4 15 7 24 -7 28 -25 6 -20 -24 -31 -18 -18 10 16 35 1 45 -23 15
-17 -21 -19 -22 -15 -5 3 11 7 35 8 53 2 28 6 32 30 32 15 0 28 5 28 10 0 11
-29 11 -230 0z m146 -88 c-11 -10 -15 4 -8 28 l7 25 3 -23 c2 -13 1 -26 -2
-30z"/>
<path d="M7328 2143 c-19 -22 -33 -63 -21 -63 11 0 48 68 41 75 -3 3 -12 -3
-20 -12z"/>
<path d="M3346 2141 c12 -12 114 -22 114 -12 0 12 -37 21 -84 21 -24 0 -36 -4
-30 -9z"/>
<path d="M7367 2132 c-9 -9 -18 -28 -20 -42 -3 -14 -7 -32 -9 -40 -2 -12 5
-14 32 -12 19 1 39 7 44 12 6 6 -1 7 -17 4 -21 -3 -25 -1 -20 12 3 8 17 20 32
26 l26 11 -30 7 c-16 4 -24 8 -17 9 13 1 17 31 4 31 -5 0 -16 -8 -25 -18z"/>
<path d="M7228 2113 c-23 -6 -49 -48 -42 -67 3 -9 15 -16 26 -16 16 0 18 3 10
13 -12 14 -6 27 22 43 40 22 30 39 -16 27z"/>
<path d="M6637 2099 c-38 -4 -71 -10 -74 -13 -10 -9 9 -27 23 -22 8 3 55 11
104 17 68 9 93 9 104 0 10 -8 27 -9 65 0 29 6 58 8 66 5 9 -3 15 0 15 8 0 10
-26 13 -117 13 -65 0 -149 -3 -186 -8z"/>
<path d="M7675 2089 c-84 -15 -96 -19 -90 -29 3 -5 27 -6 53 -2 26 3 64 6 85
6 29 0 37 4 35 15 -4 20 -20 21 -83 10z"/>
<path d="M3256 2077 c-15 -32 9 -65 51 -73 21 -4 44 -11 51 -17 9 -7 12 -4 12
12 0 17 4 21 18 17 13 -5 22 1 30 19 13 29 6 32 -20 8 -17 -15 -18 -15 -18 5
0 25 -8 27 -33 7 -11 -7 -25 -11 -33 -8 -8 3 -21 0 -28 -7 -12 -9 -15 -5 -18
22 -3 27 -6 30 -12 15z"/>
<path d="M8104 2079 c-3 -6 1 -18 10 -27 15 -15 16 -14 16 11 0 27 -13 36 -26
16z"/>
<path d="M3434 2027 c-30 -35 -31 -50 -3 -42 20 7 68 52 69 65 1 18 -46 1 -66
-23z"/>
<path d="M1785 2019 c-29 -54 -18 -72 50 -86 33 -6 61 -8 63 -3 2 5 18 6 36 3
20 -3 36 -1 40 6 5 7 -2 11 -16 12 -13 0 -17 3 -10 6 23 9 12 25 -14 19 -17
-5 -23 -3 -19 4 3 5 1 10 -6 10 -6 0 -20 9 -30 21 -10 11 -23 18 -28 14 -7 -3
-8 0 -5 9 3 9 2 16 -4 16 -6 0 -13 -6 -15 -12 -4 -10 -6 -10 -6 0 -2 22 -20
13 -36 -19z m25 -19 c0 -5 -4 -10 -10 -10 -5 0 -10 5 -10 10 0 6 5 10 10 10 6
0 10 -4 10 -10z"/>
<path d="M6780 2030 c0 -5 5 -10 11 -10 5 0 7 5 4 10 -3 6 -8 10 -11 10 -2 0
-4 -4 -4 -10z"/>
<path d="M8233 2033 c-43 -4 -61 -23 -23 -23 18 0 19 -5 13 -60 -4 -40 -2 -60
5 -60 16 0 24 18 12 25 -6 4 -9 14 -6 23 2 10 7 29 10 43 7 32 54 57 62 34 4
-8 3 -23 0 -32 -4 -12 1 -10 14 6 37 43 15 54 -87 44z"/>
<path d="M3968 2023 c-4 -21 -2 -183 3 -183 14 0 25 48 18 80 -5 19 -9 52 -10
73 -3 35 -7 47 -11 30z"/>
<path d="M8598 2024 c-10 -9 -10 -46 -2 -68 6 -16 44 -23 44 -8 0 5 19 8 43 8
42 -1 42 -1 45 38 4 45 -13 41 -27 -7 l-9 -32 -12 33 c-15 40 -22 40 -37 2
-15 -41 -31 -38 -35 6 -2 20 -6 32 -10 28z"/>
<path d="M1690 1998 c0 -46 12 -68 34 -68 35 0 36 8 8 51 -29 44 -42 49 -42
17z"/>
<path d="M8403 1999 c4 -13 7 -33 7 -45 0 -17 6 -21 34 -20 39 2 76 30 76 58
0 29 -18 21 -25 -12 -7 -32 -25 -41 -25 -12 0 9 -4 23 -9 31 -7 11 -12 7 -25
-15 l-15 -29 -1 27 c0 15 -5 30 -12 34 -8 5 -9 0 -5 -17z"/>
<path d="M2086 1988 c-14 -46 -16 -48 -48 -46 -39 4 -55 -28 -16 -34 50 -7
171 7 176 20 3 10 -4 13 -24 12 -71 -5 -77 -2 -70 30 5 29 -10 44 -18 18z"/>
<path d="M2156 1981 c-3 -5 1 -11 9 -15 9 -3 15 0 15 9 0 16 -16 20 -24 6z"/>
<path d="M2280 1975 c0 -7 7 -16 16 -19 40 -15 47 3 9 21 -20 9 -25 8 -25 -2z"/>
<path d="M3467 1943 c-3 -21 -9 -53 -13 -72 -5 -26 -4 -33 7 -29 7 2 16 15 19
28 9 39 30 35 47 -8 8 -23 22 -43 31 -47 22 -8 27 3 10 22 -33 37 -62 113 -38
98 5 -3 18 -1 27 4 16 9 16 10 -3 11 -12 0 -27 7 -34 15 -23 28 -47 18 -53
-22z"/>
<path d="M6975 1966 c-141 -9 -172 -14 -141 -20 21 -5 70 -5 110 -1 39 4 82 8
96 7 55 -1 140 11 140 19 0 5 -6 8 -12 7 -7 0 -94 -6 -193 -12z"/>
<path d="M2524 1963 c-18 -2 -40 -13 -50 -24 -18 -20 -18 -20 71 -16 67 3 90
8 90 18 0 21 -44 30 -111 22z"/>
<path d="M8780 1960 c0 -5 5 -10 10 -10 6 0 10 5 10 10 0 6 -4 10 -10 10 -5 0
-10 -4 -10 -10z"/>
<path d="M6613 1953 c-35 -2 -63 -8 -63 -12 0 -12 166 1 179 14 2 3 -9 4 -25
3 -16 -1 -57 -3 -91 -5z"/>
<path d="M8273 1943 c-4 -10 2 -23 15 -34 12 -9 22 -22 22 -28 0 -6 5 -11 10
-11 18 0 10 39 -11 54 -12 8 -18 19 -14 25 3 6 1 11 -5 11 -6 0 -13 -7 -17
-17z"/>
<path d="M3623 1938 c21 -49 34 -67 44 -63 7 2 15 0 18 -5 17 -27 65 6 65 43
0 19 -3 17 -21 -12 -16 -27 -23 -31 -30 -20 -5 8 -9 23 -9 33 0 18 -1 18 -19
2 -18 -16 -19 -16 -25 9 -4 14 -11 25 -17 25 -6 0 -9 -6 -6 -12z"/>
<path d="M7938 1943 c-32 -2 -58 -9 -58 -14 0 -7 35 -9 108 -4 166 11 172 12
179 19 6 6 -121 5 -229 -1z"/>
<path d="M8345 1940 c-3 -5 1 -10 10 -10 9 0 13 5 10 10 -3 6 -8 10 -10 10 -2
0 -7 -4 -10 -10z"/>
<path d="M8545 1940 c-3 -5 -1 -10 4 -10 6 0 11 5 11 10 0 6 -2 10 -4 10 -3 0
-8 -4 -11 -10z"/>
<path d="M2805 1930 l-30 -8 37 -1 c20 0 39 -5 42 -10 3 -4 36 -11 73 -15 37
-3 89 -9 116 -12 30 -4 47 -3 47 4 0 5 -28 13 -62 17 -35 4 -74 14 -87 22 -19
12 -25 13 -32 2 -6 -10 -13 -10 -34 -1 -28 13 -27 13 -70 2z"/>
<path d="M7425 1929 c-200 -12 -220 -27 -30 -22 88 3 166 6 173 9 13 4 7 25
-6 22 -4 0 -65 -5 -137 -9z"/>
<path d="M2715 1920 c-3 -5 -1 -10 4 -10 6 0 11 5 11 10 0 6 -2 10 -4 10 -3 0
-8 -4 -11 -10z"/>
<path d="M3825 1893 c8 -49 28 -71 48 -54 11 8 23 9 43 1 24 -8 26 -8 13 2 -8
7 -18 21 -22 31 -8 21 -23 22 -31 1 -9 -24 -26 -6 -26 27 0 20 -5 29 -16 29
-13 0 -15 -7 -9 -37z"/>
<path d="M3380 1910 c0 -5 16 -10 36 -10 21 0 33 4 29 10 -3 6 -19 10 -36 10
-16 0 -29 -4 -29 -10z"/>
<path d="M3193 1893 c-25 -9 -13 -22 15 -17 16 3 46 1 66 -5 27 -7 45 -7 64 1
27 11 26 11 -18 19 -52 9 -109 10 -127 2z"/>
<path d="M6687 1888 c-22 -13 1 -19 91 -21 62 -1 95 2 104 11 13 13 16 12
-125 16 -33 0 -64 -2 -70 -6z"/>
<path d="M3570 1881 c0 -6 5 -13 10 -16 6 -3 10 1 10 9 0 9 -4 16 -10 16 -5 0
-10 -4 -10 -9z"/>
<path d="M6205 1876 l-30 -13 42 -13 c39 -12 45 -11 63 5 18 16 25 17 53 7 31
-11 77 -7 77 8 0 7 -100 20 -149 20 -14 -1 -39 -7 -56 -14z"/>
<path d="M8186 972 c-7 -12 -7 -155 0 -232 6 -63 6 -64 -12 -49 -11 9 -36 22
-56 28 -58 19 -93 -5 -130 -87 -28 -60 -31 -80 -36 -188 -6 -159 -1 -185 52
-239 39 -41 47 -45 92 -45 28 0 59 7 71 15 20 14 26 13 68 -7 l45 -22 21 21
21 20 -23 44 c-21 41 -22 55 -21 209 1 91 7 209 13 263 15 132 5 242 -24 262
-23 16 -73 20 -81 7z m73 -54 c8 -23 8 -85 0 -232 -14 -247 -14 -427 0 -454
16 -31 14 -45 -6 -37 -31 13 -81 16 -88 5 -11 -17 -76 -11 -112 11 -60 37 -73
79 -69 221 5 157 27 232 76 258 24 13 78 -4 110 -35 41 -40 54 -17 44 82 -4
43 -7 88 -7 101 1 12 1 42 2 67 1 37 4 45 20 45 12 0 23 -11 30 -32z"/>
<path d="M8083 610 c-67 -27 -92 -234 -37 -307 30 -40 94 -61 132 -43 23 10
24 14 18 63 -3 29 -6 102 -6 164 0 96 -2 112 -15 107 -8 -4 -26 1 -40 10 -13
9 -26 16 -27 15 -2 0 -13 -4 -25 -9z m79 -177 c0 -68 1 -129 2 -135 1 -17 -59
-14 -80 3 -42 35 -55 129 -30 213 22 71 30 78 72 59 l34 -17 2 -123z"/>
<path d="M7250 883 c-52 -5 -73 -19 -50 -33 20 -13 67 -12 91 1 26 13 113 -12
152 -44 38 -32 68 -144 68 -251 -2 -233 -18 -299 -83 -336 -40 -22 -62 -25
-168 -18 -36 2 -45 0 -48 -15 -3 -13 3 -17 25 -16 15 0 53 -2 83 -6 48 -6 62
-3 110 22 42 21 61 39 80 73 13 25 26 56 27 70 13 173 14 335 3 377 -40 146
-117 193 -290 176z"/>
<path d="M6248 868 c-22 -17 -24 -33 -13 -93 4 -27 8 -165 7 -305 -2 -290 0
-305 58 -305 56 0 65 31 64 208 0 146 0 148 23 153 28 7 61 0 88 -20 18 -13
19 -25 17 -169 -3 -147 -2 -156 17 -166 29 -16 49 -13 70 8 17 17 18 32 15
182 -7 269 -24 298 -176 308 -33 2 -48 30 -48 87 0 66 -11 89 -50 109 -35 18
-51 19 -72 3z m61 -35 c16 -14 22 -34 27 -91 6 -67 9 -74 35 -88 16 -8 52 -19
81 -24 28 -6 59 -17 69 -26 25 -22 43 -106 35 -164 -4 -29 -2 -51 4 -55 6 -3
10 -45 10 -96 0 -72 -3 -91 -15 -96 -9 -3 -19 -2 -23 2 -4 4 -7 70 -7 148 -1
78 -4 151 -8 162 -16 47 -119 73 -163 41 -17 -13 -19 -28 -19 -175 0 -172 -8
-203 -43 -168 -14 15 -17 39 -19 160 -3 349 -6 423 -14 445 -16 43 12 56 50
25z"/>
<path d="M7140 847 c0 -7 6 -19 13 -26 9 -9 12 -91 13 -336 0 -179 3 -327 6
-331 3 -3 12 12 19 33 10 28 13 114 13 318 0 299 -7 355 -45 355 -10 0 -19 -6
-19 -13z"/>
<path d="M5775 842 c-131 -3 -150 -14 -142 -75 3 -21 8 -41 11 -45 13 -12 93
-17 149 -9 33 5 70 6 84 2 l24 -6 -5 -268 c-6 -307 -7 -304 64 -299 41 3 47 6
65 43 17 36 19 59 17 220 -1 99 -4 210 -8 248 l-6 67 70 0 c39 0 74 5 77 10
13 21 7 71 -10 90 -17 19 -29 20 -129 19 -61 -1 -120 0 -131 2 -11 2 -69 3
-130 1z m195 -30 c170 2 183 -1 178 -47 -3 -18 -9 -20 -64 -17 -80 5 -89 -6
-80 -96 3 -37 7 -148 8 -248 1 -203 -7 -242 -52 -235 -37 5 -42 19 -35 106 7
93 6 465 -2 477 -2 5 -12 7 -21 4 -10 -3 -61 -8 -115 -11 -106 -7 -127 -1
-127 40 0 30 9 31 145 28 61 -1 135 -2 165 -1z"/>
<path d="M2380 796 c-12 -15 -5 -16 76 -14 79 2 95 -1 134 -22 90 -50 107
-112 96 -354 -9 -184 -25 -232 -89 -264 -42 -21 -54 -22 -132 -16 -68 5 -85
10 -86 23 -2 21 -2 8 7 151 11 174 11 221 3 332 -8 102 -20 138 -44 138 -19 0
-19 0 1 -68 15 -49 16 -85 8 -272 -4 -118 -8 -241 -9 -273 l0 -58 114 -5 c112
-5 114 -4 160 25 25 17 51 39 58 50 27 43 43 184 40 353 -2 191 -5 199 -93
253 -43 27 -59 30 -140 33 -74 3 -92 1 -104 -12z"/>
<path d="M7260 793 c-1 -5 -1 -117 -2 -251 -1 -279 0 -282 78 -282 47 0 71 22
101 90 21 48 28 214 13 308 -10 63 -17 83 -43 110 -28 29 -37 32 -89 32 -32 0
-58 -3 -58 -7z m114 -37 c14 -9 28 -29 32 -44 3 -15 10 -40 15 -57 13 -46 10
-200 -6 -268 -15 -66 -41 -97 -80 -97 -48 0 -51 20 -42 260 4 85 3 171 -2 192
l-8 36 33 -3 c18 -1 45 -10 58 -19z"/>
<path d="M1339 765 c-3 -2 -50 -5 -104 -6 -55 -1 -120 -5 -145 -8 -25 -4 -83
-4 -130 0 -55 5 -89 4 -97 -3 -7 -6 -13 -32 -13 -59 0 -58 26 -83 75 -72 37 8
168 5 176 -5 8 -9 19 -233 19 -399 0 -147 5 -156 83 -147 29 4 56 12 60 18 7
9 3 219 -8 491 -2 57 5 65 60 65 68 0 84 9 91 48 6 31 3 39 -20 59 -27 23 -38
27 -47 18z m35 -47 c15 -25 0 -36 -70 -49 -32 -7 -65 -13 -73 -15 -11 -4 -12
-46 -6 -259 8 -274 6 -285 -41 -285 -23 0 -23 1 -23 113 1 148 -12 420 -20
429 -8 9 -156 12 -207 3 -41 -7 -42 -6 -49 24 -3 17 -4 35 0 40 3 6 37 8 83 5
42 -3 129 -1 192 3 171 12 201 11 214 -9z"/>
<path d="M1441 752 c-5 -10 -6 -24 -1 -32 12 -22 19 -296 11 -420 -4 -58 -4
-123 0 -144 8 -47 42 -76 84 -73 35 2 33 -9 40 196 2 85 7 156 9 158 3 3 27 2
55 -2 34 -5 52 -12 55 -23 3 -10 7 -81 11 -160 3 -79 10 -152 15 -163 12 -22
49 -25 72 -6 21 17 36 66 32 107 -1 19 -7 85 -12 145 -10 113 -29 178 -60 201
-11 9 -47 13 -98 14 -94 0 -94 0 -94 86 0 31 -5 65 -11 77 -27 52 -89 74 -108
39z m64 -32 c13 -14 19 -42 23 -95 3 -50 10 -79 20 -87 8 -7 51 -15 95 -18 71
-4 82 -8 99 -31 26 -35 37 -83 47 -214 7 -88 6 -117 -5 -144 -24 -58 -34 -24
-43 148 -5 117 -11 165 -21 171 -23 14 -115 21 -142 11 -34 -13 -37 -23 -32
-132 5 -108 -10 -199 -32 -199 -28 0 -36 50 -27 165 8 114 1 383 -12 423 -9
28 6 29 30 2z"/>
<path d="M2446 739 c-12 -37 -12 -46 -4 -74 10 -35 13 -285 4 -335 -15 -89
-16 -128 -1 -140 20 -16 111 -16 131 1 49 41 77 179 68 334 -11 176 -31 209
-136 221 -45 5 -59 4 -62 -7z m110 -31 c34 -16 44 -51 54 -182 10 -134 -3
-243 -33 -289 -15 -23 -25 -27 -62 -27 l-44 0 5 200 c4 128 2 218 -5 251 -6
28 -9 54 -7 58 6 10 64 3 92 -11z"/>
<path d="M8433 683 c-56 -56 -68 -107 -66 -280 1 -120 4 -148 20 -175 40 -68
132 -92 208 -52 35 18 43 29 64 90 34 99 36 265 3 344 -37 91 -49 101 -124
107 l-65 6 -40 -40z m141 -4 c69 -32 106 -306 54 -403 -6 -11 -10 -21 -9 -21
7 0 -15 -42 -28 -52 -25 -19 -92 -15 -129 7 -48 29 -62 73 -65 198 -3 137 7
191 44 241 26 36 34 41 69 41 21 0 50 -5 64 -11z"/>
<path d="M8485 620 c-40 -44 -59 -232 -31 -310 17 -46 66 -76 96 -60 34 18 61
92 62 164 1 134 -77 261 -127 206z m49 -45 c67 -140 45 -357 -27 -277 -38 41
-47 217 -15 287 15 33 23 32 42 -10z"/>
<path d="M7704 696 c-17 -7 -40 -27 -51 -42 -41 -61 -48 -94 -48 -244 0 -137
1 -147 24 -179 37 -52 122 -77 171 -51 30 16 77 94 89 146 13 61 7 226 -10
294 -7 28 -21 58 -31 67 -24 21 -105 27 -144 9z m91 -20 c19 -8 35 -16 35 -18
0 -2 9 -28 20 -58 15 -40 20 -80 20 -150 0 -108 -11 -157 -47 -211 -23 -34
-28 -37 -61 -32 -103 14 -123 43 -130 190 -3 85 0 113 18 172 23 76 47 103
108 120 1 1 18 -6 37 -13z"/>
<path d="M7715 610 c-21 -23 -44 -123 -45 -187 0 -63 19 -138 41 -162 20 -21
63 -28 87 -12 8 4 22 40 32 78 32 122 -1 280 -63 297 -31 8 -32 8 -52 -14z
m69 -50 c29 -49 38 -159 18 -232 -16 -63 -35 -74 -66 -39 -22 24 -40 142 -30
189 4 21 9 44 9 53 9 77 35 88 69 29z"/>
<path d="M6775 667 c-46 -15 -93 -54 -114 -95 -14 -27 -20 -67 -24 -149 -8
-168 14 -230 93 -258 89 -31 177 -11 203 47 25 55 27 66 16 97 -16 46 -80 54
-94 12 -3 -9 -14 -27 -26 -39 -25 -28 -53 -16 -76 33 -25 52 -14 65 56 65 108
0 142 30 143 125 1 120 -79 194 -177 162z m89 -36 c25 -9 55 -85 55 -138 1
-64 -20 -78 -109 -74 -21 1 -49 -7 -69 -19 -31 -20 -33 -24 -28 -62 7 -51 49
-98 89 -98 29 0 68 30 68 54 0 7 6 19 14 25 22 19 39 -12 31 -58 -10 -57 -34
-75 -102 -73 -74 2 -128 36 -142 89 -9 37 -8 174 2 203 3 8 8 31 11 49 4 19
13 45 21 58 27 41 109 64 159 44z"/>
<path d="M6756 549 c-29 -34 -34 -70 -12 -88 21 -18 124 -3 137 20 14 28 1 63
-31 82 -41 25 -65 21 -94 -14z m78 -5 c9 -3 16 -16 16 -29 0 -24 -17 -35 -55
-35 -33 0 -40 16 -21 45 17 25 32 30 60 19z"/>
<path d="M3265 620 c-32 -13 -66 -50 -83 -89 -10 -25 -15 -70 -15 -151 0 -133
15 -213 47 -253 19 -23 32 -28 87 -33 53 -5 74 -3 111 14 52 23 70 48 75 109
2 34 -1 45 -18 57 -19 13 -24 13 -44 0 -12 -8 -28 -25 -35 -39 -14 -25 -44
-41 -70 -36 -24 4 -50 43 -50 76 0 48 11 55 73 54 85 -2 117 36 117 141 0 75
-15 100 -81 134 -50 27 -79 31 -114 16z m90 -36 c63 -42 75 -62 75 -125 0 -75
-22 -104 -75 -101 -59 4 -103 -14 -110 -47 -9 -40 3 -82 33 -114 39 -42 83
-33 134 27 21 24 29 28 39 19 10 -10 10 -21 0 -53 -16 -53 -52 -72 -123 -65
-105 10 -129 56 -130 245 -1 145 15 194 74 223 42 21 37 22 83 -9z"/>
<path d="M3287 539 c-22 -13 -47 -68 -47 -103 0 -31 30 -41 95 -32 49 8 65 26
65 75 0 52 -66 87 -113 60z m79 -43 c12 -48 2 -61 -49 -64 -41 -3 -47 -1 -47
17 0 11 4 31 10 45 8 21 16 26 45 26 28 0 36 -4 41 -24z"/>
<path d="M2905 606 c-48 -22 -81 -66 -105 -140 -34 -104 -19 -231 38 -333 16
-29 62 -53 102 -53 34 0 90 25 90 40 0 5 14 31 31 59 17 27 32 62 34 78 1 15
6 45 10 65 16 81 -31 240 -79 271 -35 23 -87 29 -121 13z m101 -34 c71 -60 93
-246 42 -362 -67 -156 -186 -124 -227 60 -20 87 -6 205 26 217 7 3 13 15 13
27 0 24 27 61 50 69 31 11 76 6 96 -11z"/>
<path d="M2912 517 c-63 -75 -63 -274 -1 -328 25 -21 62 -19 87 5 25 24 49
140 42 202 -10 85 -37 128 -82 132 -21 2 -39 -3 -46 -11z m59 -19 c16 -13 34
-66 44 -128 5 -36 -18 -134 -37 -157 -19 -24 -45 -14 -64 24 -27 55 -27 195 1
241 21 35 33 39 56 20z"/>
<path d="M1976 545 c-34 -18 -51 -37 -72 -85 -22 -47 -34 -175 -25 -246 7 -50
13 -63 45 -90 37 -32 101 -54 153 -54 82 1 144 140 81 184 -27 19 -56 9 -74
-25 -15 -29 -52 -46 -79 -36 -8 4 -18 21 -23 39 -13 48 6 67 62 61 58 -7 110
11 125 43 6 14 11 53 11 88 0 53 -4 67 -25 90 -43 47 -122 61 -179 31z m140
-38 c23 -20 28 -34 32 -86 6 -81 -3 -91 -85 -91 -58 0 -67 -3 -94 -30 -33 -33
-32 -62 3 -112 26 -37 78 -39 113 -3 14 13 25 29 25 35 0 5 10 10 21 10 19 0
21 -4 16 -41 -8 -58 -30 -79 -87 -79 -64 0 -125 45 -141 103 -22 80 -1 244 36
283 39 41 120 46 161 11z"/>
<path d="M2003 488 c-26 -13 -57 -67 -52 -93 4 -17 15 -21 72 -25 86 -6 107 1
107 37 0 33 -6 41 -44 71 -31 24 -49 26 -83 10z m61 -28 c19 -7 26 -17 26 -35
0 -22 -4 -25 -32 -25 -18 0 -43 -3 -55 -6 -30 -8 -31 23 -3 54 23 25 29 26 64
12z"/>
<path d="M8782 299 c-26 -10 -45 -54 -37 -86 8 -33 48 -50 81 -35 23 11 25 17
22 63 -3 57 -23 74 -66 58z m32 -44 c8 -21 -3 -45 -20 -45 -9 0 -14 11 -14 30
0 32 23 42 34 15z"/>
<path d="M3665 228 c-32 -17 -45 -39 -45 -75 0 -36 21 -53 67 -53 40 0 53 17
53 66 0 33 -5 47 -22 58 -26 19 -27 19 -53 4z m39 -51 c12 -33 -3 -52 -33 -42
-15 4 -21 15 -21 34 0 15 3 31 7 35 14 14 38 0 47 -27z"/>
</g>
</svg>
