<?xml version="1.0" encoding="utf-8"?>
<svg xmlns="http://www.w3.org/2000/svg" height="512.0pt" version="1.1" width="696.0pt" viewBox="0 0 696 512">
	<path d="M 571.57 23.46 C 576.90 24.77 582.09 27.57 587.12 29.84 C 592.73 32.39 598.16 35.23 603.16 38.84 C 611.78 44.74 618.75 52.61 625.62 60.40 C 635.62 71.53 643.10 85.41 648.88 99.14 C 651.62 105.55 652.89 112.44 653.97 119.31 C 655.10 126.42 654.36 133.72 654.46 141.00 C 654.78 150.60 652.22 160.43 649.63 169.61 C 645.89 180.59 641.64 191.67 635.78 201.71 C 625.21 217.13 610.87 229.50 594.53 238.49 C 587.76 242.03 580.68 244.53 573.35 246.60 C 570.40 247.13 569.51 251.26 568.02 253.49 C 563.08 252.81 558.51 252.21 553.70 254.01 C 554.87 255.73 556.11 257.40 557.37 259.07 C 555.95 261.40 554.14 262.99 554.41 265.95 C 554.72 274.49 554.70 282.96 554.42 291.51 C 556.86 293.36 561.25 295.82 561.77 299.07 C 561.08 303.15 557.01 305.90 558.66 310.44 C 560.75 313.92 563.76 316.14 564.93 320.28 C 566.22 324.21 564.94 328.10 564.64 332.09 C 563.92 343.41 565.14 354.73 564.62 366.00 C 564.45 373.81 565.08 382.23 563.88 389.94 C 558.99 389.31 554.54 387.96 549.57 389.01 C 549.28 372.36 549.15 355.63 550.24 339.00 C 550.42 327.25 550.13 315.46 550.50 303.72 C 548.24 302.52 546.06 301.18 543.81 299.96 C 545.64 304.85 547.98 309.99 548.74 315.16 C 548.38 324.81 548.16 334.41 547.03 344.01 C 545.38 358.78 547.60 373.80 546.06 388.51 C 540.13 388.44 535.29 389.07 529.95 391.69 C 529.44 390.36 528.94 389.02 528.44 387.69 C 526.10 388.96 523.88 390.41 521.67 391.89 C 521.23 384.87 522.41 377.99 522.26 371.00 C 522.08 354.64 522.33 338.30 522.27 321.94 C 521.91 316.35 528.38 314.60 529.42 308.86 C 530.43 305.18 527.28 303.40 525.38 300.74 C 527.49 297.10 531.10 294.81 533.39 291.50 C 533.91 283.70 533.55 275.75 533.75 267.92 C 534.00 264.89 532.58 262.75 531.19 260.24 C 533.13 257.46 533.61 256.10 533.43 252.66 C 527.01 252.87 520.90 253.89 514.52 252.47 C 514.12 250.50 513.74 248.54 513.39 246.56 C 504.69 244.61 496.75 241.37 488.98 237.04 C 474.08 229.85 463.00 217.95 452.37 205.62 C 444.38 196.41 437.82 185.80 433.55 174.36 C 429.81 166.59 428.47 158.45 427.09 150.02 C 426.10 144.09 426.37 138.12 426.35 132.01 C 426.48 125.86 425.90 120.28 427.00 114.23 C 428.18 107.92 429.73 101.65 431.55 95.49 C 433.69 88.54 435.94 81.15 440.11 75.12 C 444.96 67.88 449.45 60.83 455.22 54.30 C 458.68 50.23 463.40 47.03 467.55 43.56 C 472.47 39.49 478.02 36.82 483.43 33.48 C 494.06 27.92 504.98 24.71 516.35 21.38 C 523.76 19.63 531.47 19.38 539.04 19.35 C 550.08 19.18 560.88 20.87 571.57 23.46 Z"/>
	<path d="M 542.00 22.38 C 548.36 22.21 554.62 23.44 560.98 23.94 C 565.41 24.28 569.08 26.11 573.03 27.92 C 575.55 28.83 578.20 29.37 580.73 30.30 C 586.41 32.23 591.75 35.92 596.62 39.38 C 601.63 42.88 605.16 47.24 609.48 51.52 C 614.08 56.33 619.03 60.60 623.14 65.88 C 628.37 71.97 632.47 78.73 636.27 85.78 C 638.99 90.25 641.70 94.61 643.34 99.62 C 646.41 108.89 648.06 119.05 649.47 128.68 C 650.30 134.99 649.31 140.77 648.67 146.98 C 648.43 155.63 646.90 164.31 644.36 172.58 C 641.04 180.92 638.40 189.04 633.76 196.76 C 628.83 206.10 621.17 214.33 613.57 221.57 C 609.91 225.15 605.68 227.63 601.51 230.52 C 596.39 233.84 591.84 237.42 585.78 238.91 C 573.51 241.75 560.88 247.53 548.01 248.27 C 540.76 248.88 534.11 247.42 527.09 245.91 C 517.73 243.79 508.27 242.62 499.43 238.60 C 493.62 235.92 487.86 233.00 482.43 229.62 C 471.90 223.08 463.77 214.57 455.60 205.42 C 448.84 198.06 443.33 189.69 439.43 180.48 C 437.62 176.52 435.36 172.96 434.28 168.68 C 431.46 158.18 428.99 146.91 429.37 136.00 C 429.59 127.07 428.50 117.45 430.74 108.92 C 432.60 100.76 435.22 92.93 438.04 85.03 C 440.50 78.36 444.74 73.43 448.56 67.59 C 456.23 55.25 469.30 45.81 481.74 38.70 C 486.61 35.23 491.33 32.92 496.97 30.93 C 503.98 28.04 511.37 26.94 518.54 24.59 C 526.35 22.21 533.95 22.38 542.00 22.38 Z" fill="#ffffff"/>
	<path d="M 522.47 32.70 C 517.74 36.34 512.57 37.66 507.08 39.71 C 506.58 39.14 506.07 38.57 505.56 38.00 C 510.81 36.14 516.81 32.01 522.47 32.70 Z"/>
	<path d="M 589.79 46.20 C 593.51 48.02 597.02 50.34 600.11 53.09 C 595.21 51.76 590.84 49.30 586.78 46.29 C 587.89 46.11 588.72 45.58 589.79 46.20 Z"/>
	<path d="M 554.87 45.66 C 556.14 46.22 556.91 47.76 557.80 48.78 C 555.38 52.33 552.75 55.52 551.75 59.79 C 550.29 65.17 550.60 70.26 550.20 75.76 C 557.57 71.20 566.37 67.73 575.10 67.37 C 575.64 69.94 571.52 71.53 570.98 74.06 C 569.38 79.82 569.81 86.75 565.09 91.15 C 563.71 92.73 561.50 92.55 559.60 92.98 C 561.61 89.98 563.99 87.64 565.16 84.21 C 566.58 80.15 566.56 76.23 566.81 72.00 C 561.41 73.50 556.11 75.24 551.47 78.47 C 546.73 81.82 542.53 85.71 537.12 87.99 C 539.90 84.27 543.81 81.14 546.08 77.12 C 547.63 74.26 547.30 71.45 547.16 68.32 C 543.24 74.11 542.35 80.14 536.12 84.19 C 537.86 80.95 540.13 78.05 541.88 74.82 C 543.68 71.52 544.89 67.97 546.69 64.66 C 548.71 61.11 549.47 57.10 551.58 53.58 C 552.25 51.81 554.31 50.27 552.71 48.49 C 548.59 48.14 544.19 49.45 540.15 50.25 C 534.40 51.71 528.52 51.67 522.75 53.00 C 518.80 53.95 514.97 56.24 512.25 59.26 C 509.31 62.54 508.18 67.53 506.48 71.56 C 505.63 73.86 504.26 76.52 504.61 79.00 C 505.05 83.40 507.95 86.23 507.21 90.75 C 500.37 89.40 493.08 88.02 486.04 88.36 C 481.29 89.13 477.26 91.89 473.70 94.98 C 472.93 94.03 472.16 93.08 471.39 92.13 C 474.94 89.04 478.36 85.82 481.34 82.16 C 476.16 84.47 471.68 87.92 469.20 93.14 C 467.87 96.15 466.65 99.31 465.83 102.51 C 465.73 104.52 467.45 106.57 467.26 108.60 C 466.95 110.10 466.41 111.57 465.95 113.04 C 470.55 119.08 476.14 125.39 482.72 129.31 C 489.39 132.76 498.50 132.81 504.30 127.55 C 501.22 126.84 498.08 126.12 494.92 125.88 C 492.41 126.07 489.90 126.86 487.46 127.45 C 488.43 125.84 489.37 124.22 490.25 122.56 C 485.24 120.70 480.07 119.85 474.88 118.77 C 475.91 116.01 477.53 113.67 479.27 111.32 C 481.35 111.81 483.65 112.72 485.80 112.56 C 488.40 112.10 490.89 111.08 493.43 110.38 C 491.87 112.17 490.24 113.90 488.66 115.69 C 491.15 116.78 493.63 117.89 496.06 119.09 C 495.00 119.75 493.92 120.40 492.85 121.05 C 492.95 121.64 493.02 122.24 493.13 122.83 C 494.32 122.28 495.52 121.75 496.73 121.22 C 498.51 122.28 500.82 124.77 503.04 124.23 C 505.89 123.54 508.40 121.21 510.93 119.75 C 509.38 124.09 506.75 127.93 505.19 132.24 C 503.71 136.16 505.08 139.94 506.26 143.72 C 507.24 146.45 508.67 150.20 511.39 151.60 C 514.82 152.05 519.21 152.11 522.61 151.55 C 526.71 149.48 528.92 145.90 534.00 145.84 C 539.61 145.60 543.12 148.65 547.53 151.48 C 550.21 153.36 553.20 154.42 556.25 155.52 C 557.68 152.27 559.17 149.32 559.75 145.78 C 560.63 141.42 559.63 137.46 559.14 133.10 C 560.01 133.22 560.88 133.33 561.75 133.45 C 564.82 139.73 563.62 146.58 560.55 152.59 C 558.90 155.30 555.58 157.40 552.60 158.30 C 546.53 158.72 541.47 155.41 535.18 157.19 C 527.72 159.04 520.17 159.21 513.06 155.92 C 508.47 153.98 505.53 148.73 503.64 144.37 C 501.80 140.21 502.49 136.34 502.80 131.98 C 498.01 133.74 493.27 135.32 488.12 134.06 C 484.46 133.13 480.46 131.88 477.39 129.62 C 472.89 126.29 468.98 121.86 465.33 117.64 C 462.29 113.79 456.27 114.13 451.88 112.94 C 455.11 111.41 458.31 111.69 461.75 111.40 C 463.88 111.56 463.54 108.71 464.18 107.31 C 460.53 106.45 456.94 106.41 453.21 106.59 C 453.28 105.92 453.35 105.26 453.41 104.59 C 456.80 103.75 460.10 102.67 463.40 101.51 C 464.06 98.08 464.40 94.20 466.21 91.18 C 468.55 87.22 472.50 83.94 476.03 81.05 C 480.53 77.54 486.28 74.58 492.05 74.28 C 494.84 74.04 497.84 75.83 500.37 76.88 C 502.61 73.55 503.92 69.89 505.15 66.11 C 506.80 60.84 510.86 56.46 515.21 53.23 C 521.19 49.16 527.98 48.79 534.97 48.46 C 542.24 48.13 547.94 44.64 554.87 45.66 Z"/>
	<path d="M 496.08 50.90 C 492.91 55.49 488.50 60.62 483.02 62.34 C 486.61 57.52 490.22 52.98 496.08 50.90 Z"/>
	<path d="M 571.53 54.43 C 576.81 54.91 581.79 56.85 586.14 59.86 C 581.31 58.78 575.33 57.80 571.53 54.43 Z"/>
	<path d="M 189.97 57.35 C 197.76 57.61 205.52 56.90 212.94 58.39 C 212.28 60.36 212.01 62.80 210.05 63.96 C 207.23 65.78 203.58 66.78 200.23 66.55 C 198.06 66.24 195.98 65.14 193.94 64.40 C 193.27 65.56 192.59 66.72 191.93 67.88 C 193.00 68.34 194.13 68.79 195.14 69.37 C 195.37 70.54 195.30 71.82 195.29 73.01 C 193.21 71.63 191.26 69.62 188.93 68.72 C 184.20 68.21 179.40 68.84 174.65 68.46 C 169.56 68.03 164.53 68.63 159.89 70.82 C 156.64 72.76 154.10 75.94 151.10 78.29 C 151.90 75.15 152.33 72.27 155.51 70.69 C 159.93 68.66 164.31 65.67 169.03 64.91 C 172.95 64.16 177.21 64.68 181.20 64.55 C 176.29 61.53 171.50 62.54 166.06 62.49 C 158.41 62.86 150.58 65.47 145.57 71.55 C 142.09 76.24 142.58 83.56 140.66 88.79 C 140.06 90.56 138.58 91.57 136.73 91.65 C 132.61 91.93 128.31 90.56 124.18 90.12 C 125.33 92.90 126.47 95.69 127.70 98.45 C 121.54 101.09 115.59 97.89 109.60 100.56 C 104.38 102.47 100.23 106.16 94.90 107.87 C 91.24 108.68 89.70 112.98 88.69 116.16 C 89.03 117.81 89.80 119.40 90.43 120.95 C 89.56 122.39 88.73 123.86 87.82 125.27 C 89.86 125.69 92.24 125.95 94.05 127.03 C 97.87 129.70 99.21 134.15 103.10 136.79 C 105.56 138.44 108.06 139.98 110.41 141.79 C 113.75 144.70 118.80 143.10 123.00 144.19 C 121.28 145.84 119.23 145.63 117.03 145.74 C 110.84 145.96 105.04 143.49 100.24 139.72 C 96.74 136.91 94.35 132.57 91.40 129.58 C 90.09 128.06 87.40 127.85 85.65 128.60 C 83.35 130.22 81.51 132.58 79.56 134.60 C 79.05 129.43 81.97 126.41 84.04 122.06 C 85.45 119.57 84.28 116.59 81.84 115.29 C 76.99 112.79 72.19 111.98 68.56 107.48 C 75.47 107.07 81.57 109.55 88.57 108.38 C 90.18 107.71 91.35 105.79 92.55 104.55 C 98.66 97.20 106.65 91.53 115.80 88.65 C 122.41 86.16 130.31 89.39 137.45 89.35 C 137.81 86.05 138.10 82.71 138.70 79.44 C 139.38 75.50 142.45 71.84 144.51 68.44 C 147.33 63.72 152.68 61.39 157.71 59.80 C 162.06 58.56 166.43 57.17 170.99 57.98 C 177.51 59.07 183.42 57.05 189.97 57.35 Z"/>
	<path d="M 527.88 57.66 C 527.25 59.97 526.60 62.41 525.39 64.49 C 523.70 67.28 520.91 69.24 519.37 72.24 C 518.08 74.83 516.98 77.37 514.87 79.43 C 514.73 76.31 514.90 73.38 516.76 70.75 C 519.99 66.07 523.53 61.36 527.88 57.66 Z"/>
	<path d="M 186.13 62.44 C 187.92 62.62 189.68 63.36 191.38 63.89 C 188.16 64.96 185.69 64.86 182.40 64.06 C 183.61 63.49 184.84 62.80 186.13 62.44 Z" fill="#ffffff"/>
	<path d="M 194.32 61.82 C 198.81 61.53 203.29 61.36 207.77 61.82 C 204.22 65.05 200.67 64.67 196.20 64.40 C 195.57 63.55 194.94 62.69 194.32 61.82 Z" fill="#ffffff"/>
	<path d="M 538.51 65.05 C 536.00 69.39 533.60 73.79 531.00 78.08 C 530.16 76.07 529.25 74.12 528.21 72.21 C 530.76 68.24 534.51 67.04 538.51 65.05 Z"/>
	<path d="M 185.58 72.69 C 187.24 73.09 187.24 75.02 185.43 75.23 C 181.26 75.88 176.99 75.80 172.80 76.52 C 173.13 75.56 173.46 74.59 173.79 73.62 C 177.54 73.02 181.82 72.01 185.58 72.69 Z"/>
	<path d="M 199.60 71.61 C 199.70 74.97 199.74 78.10 198.05 81.13 C 196.04 84.60 193.38 87.72 190.69 90.68 C 186.51 94.87 182.05 98.53 175.87 98.87 C 178.22 96.81 180.85 95.21 183.46 93.52 C 187.61 90.87 190.84 86.56 193.67 82.59 C 196.40 78.87 196.06 74.68 199.60 71.61 Z"/>
	<path d="M 459.62 74.65 C 458.65 80.41 456.67 87.40 452.30 91.50 C 453.29 87.30 454.86 83.22 456.34 79.17 C 456.98 77.27 458.14 75.95 459.62 74.65 Z"/>
	<path d="M 610.73 77.14 C 615.96 79.64 617.41 84.29 619.80 89.13 C 616.74 85.21 613.15 81.50 610.73 77.14 Z"/>
	<path d="M 490.16 78.70 C 492.53 78.66 495.81 79.17 498.00 80.08 C 500.75 82.46 502.60 86.12 504.51 89.19 C 501.39 87.50 498.63 85.37 495.83 83.21 C 492.00 80.55 486.20 81.52 481.78 81.52 C 484.53 80.50 487.30 79.34 490.16 78.70 Z" fill="#ffffff"/>
	<path d="M 189.48 79.31 C 188.36 80.50 187.38 82.24 185.59 82.39 C 182.56 82.87 179.46 82.99 176.39 83.15 C 176.39 82.27 176.39 81.39 176.38 80.51 C 180.76 79.91 185.03 79.10 189.48 79.31 Z"/>
	<path d="M 557.47 79.19 C 553.84 83.38 549.78 87.42 545.82 91.29 C 547.25 85.08 552.00 81.71 557.47 79.19 Z"/>
	<path d="M 564.07 79.71 C 563.00 81.90 561.95 84.38 559.94 85.87 C 558.01 87.21 555.67 88.08 553.50 88.94 C 555.92 84.47 558.94 80.99 564.07 79.71 Z"/>
	<path d="M 528.46 81.46 C 529.75 81.31 531.05 81.21 532.35 81.18 C 530.82 83.31 529.64 84.10 527.21 85.02 C 527.59 83.81 527.94 82.62 528.46 81.46 Z"/>
	<path d="M 520.16 87.74 C 521.12 90.25 521.31 92.73 521.57 95.37 C 523.09 96.12 524.60 96.90 526.10 97.69 C 524.95 102.58 521.35 103.85 517.20 105.76 C 517.86 103.04 519.53 101.08 521.13 98.87 C 519.83 99.24 518.47 99.55 517.23 100.09 C 515.94 101.46 514.97 103.16 513.87 104.68 C 512.40 101.59 510.41 98.36 509.75 94.98 C 509.94 89.80 514.99 85.45 520.16 87.74 Z"/>
	<path d="M 177.26 89.19 C 176.66 90.50 176.07 91.91 175.27 93.12 C 171.54 94.17 167.59 94.64 163.74 95.05 C 167.24 91.77 172.85 90.94 177.26 89.19 Z"/>
	<path d="M 483.68 91.66 C 484.66 91.40 485.65 91.18 486.64 91.00 C 486.58 92.15 486.52 93.30 486.46 94.45 C 485.33 94.51 484.19 94.57 483.05 94.63 C 483.23 93.63 483.44 92.64 483.68 91.66 Z"/>
	<path d="M 518.13 90.93 C 518.31 93.08 517.70 94.93 517.22 97.00 C 515.76 96.56 514.30 96.11 512.84 95.66 C 514.06 93.58 514.88 89.19 518.13 90.93 Z" fill="#ffffff"/>
	<path d="M 502.58 92.30 L 502.53 93.79 C 500.64 93.76 498.77 93.71 496.89 93.58 C 498.32 92.01 500.65 92.55 502.58 92.30 Z"/>
	<path d="M 198.64 93.45 C 200.63 94.26 202.44 95.68 204.18 96.92 C 200.23 99.19 194.15 102.87 189.68 100.21 C 192.48 99.29 195.31 98.49 198.10 97.54 C 193.43 95.18 189.87 98.38 184.90 97.36 C 188.76 94.24 193.77 93.07 198.64 93.45 Z"/>
	<path d="M 564.50 91.90 C 567.90 94.00 570.45 96.45 574.47 97.29 C 581.21 98.70 588.16 99.30 595.02 99.84 C 603.26 100.43 611.31 104.64 618.47 108.55 C 622.15 110.76 626.94 113.80 628.41 118.04 C 627.79 119.76 626.97 120.71 625.02 120.50 C 619.20 119.78 614.57 115.74 609.13 113.86 C 604.32 112.16 599.08 110.63 593.95 110.48 C 586.73 110.24 579.74 110.01 572.57 111.03 C 573.77 116.51 578.51 119.36 579.54 124.99 C 578.63 125.56 577.72 126.13 576.81 126.70 C 576.46 123.72 576.02 122.29 573.85 120.22 C 571.31 117.94 570.51 114.94 568.82 112.15 C 566.87 110.36 564.49 109.07 562.46 107.35 C 577.34 107.71 593.75 106.77 608.18 110.78 C 613.69 112.11 618.21 115.41 623.60 116.99 C 620.98 113.77 617.60 112.00 614.17 109.82 C 608.89 106.53 602.95 104.20 596.81 103.12 C 591.94 102.22 586.97 102.50 582.04 101.80 C 575.55 101.20 569.99 98.57 563.34 99.67 C 563.56 97.03 563.94 94.48 564.50 91.90 Z"/>
	<path d="M 636.22 94.75 C 639.73 98.10 641.57 101.88 642.53 106.61 C 639.14 103.30 637.66 99.16 636.22 94.75 Z"/>
	<path d="M 137.89 99.90 C 135.63 101.04 134.03 101.41 131.48 101.34 C 131.57 99.70 131.65 98.07 131.81 96.45 C 134.98 96.09 135.87 97.89 137.89 99.90 Z"/>
	<path d="M 536.35 96.04 C 538.09 96.51 539.68 97.21 541.34 97.90 C 539.18 98.74 536.99 99.50 534.76 100.16 C 535.26 98.76 535.73 97.39 536.35 96.04 Z"/>
	<path d="M 481.95 99.71 C 487.99 99.38 493.79 98.99 499.78 100.12 C 497.55 102.53 495.56 105.01 493.83 107.81 C 491.50 107.09 489.51 106.15 486.99 106.45 C 482.20 107.05 477.53 108.05 472.66 107.95 C 476.80 106.73 480.81 106.56 484.50 104.02 C 483.28 103.25 482.03 102.56 480.75 101.93 C 478.32 101.94 475.92 102.36 473.49 102.41 C 476.16 100.71 478.80 99.93 481.95 99.71 Z"/>
	<path d="M 511.31 101.89 L 511.55 103.69 C 510.36 106.44 508.20 108.78 506.78 111.44 C 508.02 111.37 509.95 111.92 510.99 111.15 C 512.40 109.30 513.27 107.00 514.36 104.96 C 516.23 107.28 517.77 109.89 519.42 112.42 C 519.39 110.21 519.32 108.00 519.22 105.80 C 520.10 105.96 520.98 106.12 521.86 106.28 C 522.70 109.12 524.66 111.59 522.19 114.23 C 520.25 117.34 515.85 113.14 513.20 113.55 C 511.15 114.06 509.19 114.95 507.10 115.38 C 505.41 114.31 504.17 112.84 503.46 110.97 C 504.97 107.07 507.94 104.24 511.31 101.89 Z"/>
	<path d="M 113.13 104.89 C 114.84 105.63 114.30 107.73 114.67 109.25 C 114.78 111.95 116.88 113.97 118.32 116.12 C 117.85 117.15 117.38 118.18 116.91 119.21 C 115.97 117.43 115.08 115.62 114.21 113.80 C 112.83 113.55 111.47 113.32 110.10 112.99 C 106.29 112.84 105.70 107.38 105.07 104.49 C 107.59 104.48 110.77 103.90 113.13 104.89 Z"/>
	<path d="M 208.86 105.04 C 212.80 106.01 216.62 107.45 220.54 108.54 C 229.95 111.42 239.74 111.74 249.11 114.95 C 257.43 117.49 264.62 121.50 272.33 125.49 C 271.28 127.72 270.00 129.79 268.61 131.82 C 264.37 131.33 260.23 130.39 256.13 129.19 C 255.56 128.19 255.04 127.11 254.32 126.20 C 253.07 125.55 251.64 125.20 250.30 124.74 C 251.22 126.00 252.15 127.24 253.07 128.49 C 248.06 127.53 243.23 125.97 238.31 124.66 C 232.62 123.42 226.83 122.56 221.04 121.93 C 217.71 121.57 214.01 121.62 210.83 122.75 C 209.24 124.44 208.24 126.85 206.45 128.30 C 204.73 129.62 202.89 130.88 201.01 131.99 C 198.09 134.43 194.63 130.45 191.98 129.15 C 192.28 128.37 192.58 127.60 192.88 126.82 C 194.67 127.21 196.48 127.53 198.29 127.80 C 198.34 128.89 198.39 129.97 198.45 131.05 C 200.96 129.26 203.57 127.65 206.20 126.03 C 204.43 124.67 202.61 123.37 200.83 122.02 C 206.67 121.88 212.17 120.07 218.04 120.30 C 222.02 120.12 225.87 121.22 229.82 121.26 C 230.67 120.45 231.50 119.62 232.31 118.77 C 225.35 118.21 218.55 117.76 211.87 115.52 C 216.20 113.63 219.98 114.91 224.37 115.59 C 229.55 116.58 235.02 116.64 240.29 116.68 C 237.40 114.80 234.52 113.15 231.02 112.73 C 225.18 112.01 219.73 109.96 213.97 108.86 C 210.53 108.20 207.22 107.28 204.03 105.80 C 205.71 105.27 207.07 104.51 208.86 105.04 Z"/>
	<path d="M 435.31 105.37 L 436.50 105.20 C 436.15 111.34 437.60 117.25 437.53 123.34 C 434.69 117.79 435.46 111.41 435.31 105.37 Z"/>
	<path d="M 124.91 107.69 C 127.29 108.02 129.63 108.70 131.96 109.28 C 131.20 110.80 130.43 112.33 129.66 113.85 C 125.31 113.65 121.10 112.75 117.02 111.21 C 116.50 110.42 115.99 109.63 115.49 108.84 C 118.49 108.25 121.85 107.34 124.91 107.69 Z"/>
	<path d="M 552.18 108.06 C 555.08 109.23 556.42 111.77 557.45 114.54 C 558.29 117.53 556.83 120.10 559.49 122.45 C 563.90 127.23 570.15 125.92 574.65 129.99 C 569.70 131.53 566.01 129.99 561.54 128.05 C 560.52 129.43 559.51 130.81 558.46 132.18 C 557.03 129.00 555.90 125.93 553.98 123.00 C 552.22 120.28 550.40 117.72 549.15 114.71 C 550.90 111.61 552.74 114.69 554.87 115.65 C 553.50 113.25 552.37 110.88 552.18 108.06 Z"/>
	<path d="M 94.38 110.86 C 95.35 110.76 96.32 110.71 97.30 110.72 C 95.61 112.27 94.07 113.20 91.93 114.02 C 92.68 112.95 93.40 111.73 94.38 110.86 Z"/>
	<path d="M 241.24 114.89 C 244.14 115.65 246.20 117.41 248.23 119.51 C 246.06 119.46 243.89 119.38 241.72 119.29 C 241.54 117.82 241.36 116.36 241.24 114.89 Z" fill="#ffffff"/>
	<path d="M 561.27 115.17 C 562.52 115.47 563.72 115.85 564.91 116.32 C 564.05 117.48 562.95 118.35 561.85 119.26 C 561.62 117.90 561.40 116.54 561.27 115.17 Z"/>
	<path d="M 106.38 117.29 C 108.91 117.53 110.61 118.97 112.38 120.63 C 109.81 120.69 107.28 120.59 104.77 120.00 C 105.27 119.07 105.80 118.17 106.38 117.29 Z"/>
	<path d="M 125.49 119.17 C 125.55 120.12 125.60 121.07 125.66 122.02 C 122.64 121.59 121.32 121.66 119.60 118.86 C 121.58 118.67 123.53 118.88 125.49 119.17 Z"/>
	<path d="M 234.96 119.32 C 237.19 119.35 239.52 120.66 241.48 121.63 C 238.13 121.73 234.79 121.63 231.45 121.32 C 232.52 120.67 233.68 119.43 234.96 119.32 Z" fill="#ffffff"/>
	<path d="M 130.91 121.73 C 131.35 122.38 131.79 123.02 132.22 123.68 C 130.78 123.63 129.35 123.58 127.92 123.50 C 128.87 121.35 128.66 121.45 130.91 121.73 Z"/>
	<path d="M 522.08 122.23 C 522.36 128.38 522.28 134.65 522.15 140.81 C 519.33 138.35 519.64 135.43 519.53 132.01 C 519.68 128.29 519.10 125.04 522.08 122.23 Z"/>
	<path d="M 575.44 122.20 C 574.88 123.41 574.22 124.57 573.48 125.66 C 572.24 126.36 570.75 126.70 569.39 127.12 C 571.06 123.95 571.94 123.20 575.44 122.20 Z"/>
	<path d="M 114.13 125.60 C 115.91 125.41 117.80 125.89 119.42 126.60 C 122.56 128.88 124.82 133.58 128.45 135.03 C 132.67 135.75 136.95 136.23 141.18 136.97 C 138.67 138.46 135.32 141.37 132.32 139.83 C 126.69 137.77 121.05 135.93 115.20 134.54 C 109.86 133.35 105.08 130.67 100.87 127.23 C 103.33 127.49 105.71 128.03 108.09 128.70 C 109.94 127.56 111.98 126.04 114.13 125.60 Z"/>
	<path d="M 540.34 124.94 C 543.41 126.75 544.58 129.92 545.45 133.19 C 545.43 134.75 544.52 136.32 544.01 137.77 C 542.36 133.70 540.62 129.36 540.34 124.94 Z"/>
	<path d="M 530.43 126.58 C 531.08 126.48 531.73 126.41 532.38 126.35 C 533.27 130.36 533.79 134.35 533.44 138.46 C 530.30 135.06 530.24 130.95 530.43 126.58 Z"/>
	<path d="M 179.62 128.54 C 181.00 128.57 182.36 128.69 183.71 128.89 C 186.21 130.96 188.44 133.37 190.90 135.49 C 188.09 135.31 184.85 135.20 182.45 133.52 C 181.06 132.31 180.42 130.15 179.62 128.54 Z"/>
	<path d="M 509.34 128.42 C 509.45 132.33 510.66 137.46 507.58 140.51 C 507.27 136.25 507.07 132.23 509.34 128.42 Z"/>
	<path d="M 115.70 136.19 C 116.13 137.44 116.55 138.70 116.97 139.95 C 114.92 139.43 112.88 138.88 110.83 138.34 C 112.46 137.63 114.08 136.92 115.70 136.19 Z"/>
	<path d="M 512.39 138.06 L 513.89 138.51 C 514.69 141.31 514.57 144.54 514.48 147.42 C 511.58 144.71 512.24 141.66 512.39 138.06 Z"/>
	<path d="M 192.37 140.37 C 193.26 140.39 194.15 140.45 195.04 140.56 C 195.54 144.11 196.14 147.53 197.50 150.87 C 195.87 151.20 193.81 152.03 192.43 150.71 C 190.52 147.94 191.68 143.40 192.37 140.37 Z"/>
	<path d="M 132.86 141.84 C 138.71 144.43 138.89 153.55 143.43 157.59 C 146.75 160.59 150.48 163.01 154.85 164.16 C 158.34 165.18 161.86 165.31 165.40 165.97 C 171.82 167.49 178.98 166.55 185.46 165.73 C 178.97 161.68 173.37 164.41 166.26 163.59 C 165.21 163.44 164.40 162.27 163.59 161.64 C 168.48 161.42 173.33 161.71 178.21 161.15 C 181.43 160.79 184.64 160.78 187.87 160.96 C 187.34 162.39 186.77 163.82 186.21 165.25 C 188.87 165.91 191.20 166.80 194.00 166.43 C 197.64 165.96 201.27 163.78 204.45 162.02 C 201.23 160.42 198.08 159.13 195.66 156.36 C 200.13 156.24 204.09 157.74 208.14 159.42 C 206.89 165.11 201.50 165.88 196.83 167.73 C 189.13 170.51 182.30 168.94 174.15 169.48 C 169.50 169.48 165.42 170.76 161.10 169.85 C 156.81 169.16 153.50 167.17 149.31 165.60 C 145.24 164.05 141.76 161.36 139.04 157.98 C 136.13 154.23 135.47 148.96 132.49 145.38 C 130.37 144.03 126.84 144.73 124.37 143.92 C 126.59 142.06 130.07 141.82 132.86 141.84 Z"/>
	<path d="M 171.19 145.73 C 176.14 147.75 181.26 147.50 186.33 148.96 C 181.04 151.82 175.09 150.05 169.62 148.78 C 170.12 147.76 170.60 146.71 171.19 145.73 Z"/>
	<path d="M 534.97 148.79 C 538.44 148.96 541.31 151.18 543.92 153.23 C 539.23 154.35 535.72 151.53 531.14 151.68 C 528.09 152.97 525.70 155.03 522.43 155.84 C 525.91 152.91 530.33 149.36 534.97 148.79 Z" fill="#ffffff"/>
	<path d="M 165.29 154.31 C 169.31 155.05 172.76 156.49 176.98 156.23 C 180.51 156.00 184.00 155.51 187.55 155.58 C 186.39 156.46 185.23 157.48 183.89 158.04 C 177.75 158.75 171.58 158.72 165.52 157.33 C 165.41 156.32 165.33 155.32 165.29 154.31 Z"/>
	<path d="M 634.18 155.43 C 634.67 155.59 635.16 155.77 635.64 155.96 C 633.26 161.69 631.21 167.76 628.06 173.12 C 626.91 175.12 625.11 176.18 623.19 177.34 C 624.63 174.42 626.45 171.73 627.87 168.80 C 629.95 164.40 631.62 159.59 634.18 155.43 Z"/>
	<path d="M 599.95 156.85 C 597.28 161.86 590.52 166.20 584.84 166.35 C 587.76 164.57 590.68 163.42 593.33 161.33 C 595.43 159.67 597.56 158.09 599.95 156.85 Z"/>
	<path d="M 197.31 161.84 C 195.48 162.26 193.65 162.55 191.79 162.75 C 192.23 162.07 192.70 161.40 193.20 160.77 C 194.44 159.98 196.14 161.40 197.31 161.84 Z"/>
	<path d="M 342.72 171.10 C 343.96 177.39 343.36 183.68 344.20 189.99 C 344.88 196.24 344.34 202.49 343.16 208.66 C 342.55 211.56 341.41 213.95 341.36 216.95 C 341.28 221.47 341.32 226.02 341.57 230.54 C 342.79 229.77 344.03 229.07 345.07 228.06 C 346.32 226.45 346.26 223.95 346.41 222.00 C 346.69 214.38 348.76 207.08 351.92 200.17 C 352.88 200.56 353.84 200.96 354.79 201.37 C 355.59 197.99 356.59 194.67 357.44 191.31 C 358.66 191.31 359.87 191.30 361.09 191.30 C 361.51 196.42 359.36 200.31 358.06 205.08 C 357.07 208.82 355.38 212.19 353.79 215.70 C 350.89 221.51 348.57 227.22 343.98 231.96 C 342.87 233.35 341.43 234.17 341.54 236.13 C 341.39 246.04 340.97 255.92 341.50 265.84 C 342.51 265.19 343.51 264.54 344.52 263.90 C 344.56 260.71 344.09 256.98 345.20 253.97 C 346.73 249.45 349.80 246.44 350.74 241.84 C 351.92 235.82 353.53 229.92 355.79 224.21 C 357.51 224.93 359.22 225.65 360.92 226.38 C 360.77 232.11 359.07 237.41 358.04 243.00 C 357.00 248.63 354.03 253.41 351.28 258.39 C 348.80 262.81 344.40 264.53 341.54 268.47 C 341.31 275.03 341.41 281.70 341.62 288.27 C 345.35 283.30 348.07 278.01 352.98 273.99 C 356.95 270.10 362.25 268.46 364.89 263.88 C 367.04 260.45 369.40 256.79 370.53 252.89 C 370.17 251.44 369.18 250.10 368.44 248.81 C 369.00 246.82 370.02 244.44 369.60 242.38 C 368.92 238.80 366.81 235.26 365.22 232.00 C 366.21 230.52 367.23 229.05 368.26 227.58 C 366.58 225.34 364.71 223.18 363.29 220.78 C 362.18 219.01 362.33 216.56 362.15 214.53 C 363.77 214.93 365.40 215.35 367.02 215.76 C 368.81 210.83 370.78 205.99 373.37 201.42 C 374.31 201.37 375.25 201.33 376.18 201.28 C 376.65 204.27 377.19 207.24 377.72 210.21 C 380.08 208.99 382.42 207.72 384.85 206.62 C 384.20 213.41 382.23 219.70 380.35 226.20 C 381.91 226.75 383.49 227.28 385.05 227.82 C 383.59 232.03 381.89 236.16 380.39 240.36 C 384.45 236.66 387.57 232.40 391.10 228.08 C 393.46 225.27 394.12 221.99 394.71 218.48 C 396.27 218.36 397.95 218.44 399.46 218.02 C 403.24 215.49 404.84 211.72 409.79 210.98 C 408.64 214.93 407.12 218.73 406.24 222.77 C 408.40 224.17 410.84 225.53 412.69 227.34 L 412.55 228.60 C 408.98 231.17 404.96 233.12 401.35 235.69 C 403.78 238.68 404.77 240.49 404.99 244.39 C 400.87 245.34 396.83 246.22 392.97 247.98 C 388.21 250.20 383.40 251.99 379.09 255.08 C 374.64 257.95 371.31 261.90 368.31 266.22 C 371.80 267.01 375.34 267.55 378.84 268.29 C 383.73 269.35 387.16 272.74 391.90 273.84 C 394.18 274.47 396.50 274.64 398.84 274.91 C 403.40 275.41 407.58 278.61 412.07 279.93 C 416.56 281.25 420.91 282.92 425.29 284.55 C 425.36 285.96 425.37 287.38 425.57 288.77 C 428.99 291.90 434.80 292.92 439.15 293.89 C 436.10 296.75 432.50 298.18 428.64 299.60 C 428.08 302.92 427.50 306.21 426.53 309.43 C 422.41 305.44 421.03 299.63 417.18 295.29 C 416.51 297.00 415.87 298.71 415.20 300.42 C 410.74 295.77 406.52 291.14 401.10 287.54 C 403.53 292.88 408.19 295.82 411.40 300.55 C 414.49 304.61 417.99 307.98 420.10 312.83 C 421.49 316.17 421.50 319.43 423.71 322.28 C 426.55 325.79 428.68 329.06 429.45 333.62 C 427.71 333.54 425.97 333.44 424.23 333.32 C 423.62 335.95 422.92 338.55 422.12 341.14 C 419.68 338.47 417.34 335.72 414.87 333.08 C 413.75 336.05 412.81 338.97 411.44 341.79 C 410.58 339.67 409.82 337.51 409.01 335.37 C 407.85 337.23 406.72 339.10 405.61 340.98 C 409.39 341.86 413.00 342.67 416.23 344.96 C 411.44 349.02 405.27 349.74 400.46 353.58 C 399.72 355.46 399.67 357.68 399.49 359.68 C 405.95 360.03 411.55 359.50 417.81 357.95 C 419.85 359.67 421.34 361.48 424.22 361.58 C 429.81 361.71 435.14 359.96 440.80 360.72 C 439.41 362.62 437.96 364.48 436.52 366.35 C 440.55 369.04 445.01 370.17 449.59 371.54 C 451.04 371.90 451.43 373.05 452.31 374.11 C 449.24 374.00 446.32 373.57 443.37 372.66 C 438.32 371.42 434.58 368.78 429.17 369.56 C 433.38 372.44 437.91 374.72 441.93 377.91 C 443.34 376.96 445.13 374.71 446.87 374.76 C 448.69 375.97 450.34 377.50 451.97 378.94 C 450.06 378.76 448.14 378.58 446.22 378.42 C 446.47 380.98 446.70 383.54 446.83 386.11 C 443.01 383.13 439.79 379.91 435.70 377.28 C 432.58 375.25 429.24 373.75 425.81 372.31 C 425.73 376.02 425.78 379.73 425.56 383.44 C 422.12 379.49 419.27 375.14 415.41 371.54 C 415.36 373.87 415.34 376.19 415.25 378.52 C 412.99 376.87 410.86 375.03 408.52 373.49 C 405.71 371.63 401.92 370.96 398.65 370.32 C 402.98 373.91 407.54 376.90 411.42 381.06 C 409.85 381.54 408.28 382.02 406.71 382.50 C 410.17 386.43 413.62 389.90 418.41 392.21 C 418.16 393.39 417.92 394.58 417.66 395.76 C 414.78 395.59 411.94 395.21 409.09 394.73 C 408.67 398.24 408.49 401.51 406.39 404.52 C 404.38 400.70 403.26 396.51 401.33 392.68 C 399.87 390.43 397.06 388.97 394.98 387.35 C 394.20 390.47 393.49 393.59 392.47 396.65 C 388.99 391.98 389.49 386.39 386.45 381.57 C 385.10 385.24 384.27 388.89 382.18 392.24 C 381.23 387.19 381.41 382.19 379.88 377.22 C 378.60 372.98 377.34 367.90 374.48 364.44 C 371.41 363.94 368.10 364.53 365.05 364.96 C 361.83 365.45 359.64 367.27 356.96 368.91 C 352.85 371.58 348.71 373.67 345.52 377.53 C 343.54 380.00 341.88 382.86 340.76 385.82 C 339.20 390.14 339.87 395.11 339.09 399.75 C 337.80 399.70 336.51 399.66 335.22 399.62 C 334.13 393.66 335.71 387.93 335.13 381.98 C 334.96 379.75 333.46 377.21 330.95 377.35 C 325.35 377.38 320.74 379.57 315.92 382.12 C 317.39 383.08 318.86 384.01 320.33 384.96 C 316.06 391.56 310.22 396.56 306.79 403.75 C 306.01 403.79 305.23 403.84 304.44 403.88 C 304.35 401.54 304.28 399.20 304.18 396.85 C 299.05 399.76 293.54 400.00 288.01 401.67 C 291.26 398.58 294.36 395.46 296.53 391.48 C 292.12 392.48 288.12 394.40 283.89 395.95 C 288.17 392.83 292.87 390.13 297.87 388.35 C 299.07 387.87 300.21 387.39 301.25 386.61 C 301.33 385.54 301.28 384.49 301.23 383.42 C 302.64 383.51 304.09 383.65 305.50 383.50 C 307.22 382.42 308.68 380.88 310.16 379.51 C 307.77 378.78 305.61 378.19 303.11 378.80 C 298.25 379.93 293.41 379.80 288.46 379.75 C 290.36 381.46 292.33 383.09 294.23 384.81 C 290.83 386.42 287.32 387.61 283.74 388.74 C 280.86 389.60 278.90 392.28 276.30 393.38 C 274.75 393.26 273.21 392.88 271.68 392.59 C 271.45 388.41 271.21 384.25 271.16 380.06 C 268.02 382.40 264.95 384.38 261.03 385.16 C 262.24 380.46 264.96 376.72 268.44 373.43 C 271.58 370.49 273.99 367.12 275.96 363.30 C 273.74 363.66 271.53 364.09 269.31 364.49 C 269.65 363.05 269.86 361.15 270.92 360.05 C 275.52 355.32 281.35 353.03 286.06 348.48 C 283.54 348.12 281.60 348.16 279.26 349.21 C 275.87 350.67 271.90 351.72 268.98 353.99 C 265.34 358.23 265.02 365.36 262.26 370.16 C 260.75 370.84 258.67 370.35 257.04 370.37 C 255.72 374.74 254.19 379.02 252.36 383.21 C 249.35 381.66 248.96 379.59 247.93 376.59 C 244.79 378.37 241.88 380.72 238.58 382.19 C 237.84 382.74 235.61 382.15 236.45 381.07 C 239.01 375.60 244.83 371.25 249.15 367.15 C 251.60 364.57 253.23 361.24 255.41 358.41 C 256.85 356.65 257.39 354.81 257.80 352.60 C 255.48 353.69 253.26 354.54 251.46 356.43 C 247.72 360.28 246.68 365.42 242.96 369.36 C 242.69 366.16 242.74 362.97 242.74 359.77 C 239.25 363.74 235.84 367.57 231.18 370.22 C 232.37 365.66 234.05 361.22 235.63 356.78 C 236.21 354.43 238.95 354.36 240.82 353.49 C 238.50 357.12 236.05 360.49 234.84 364.69 C 239.13 362.58 241.35 358.97 243.82 355.10 C 244.48 356.84 245.13 358.58 245.80 360.32 C 248.55 356.69 250.75 353.18 254.86 350.90 C 259.99 348.06 265.62 345.57 271.15 343.63 C 269.90 345.88 268.49 348.02 267.08 350.17 C 271.12 349.46 275.10 348.65 278.87 346.96 C 283.56 345.04 286.56 341.41 291.04 338.62 C 289.10 342.41 287.99 345.93 286.94 350.02 C 283.46 353.69 278.54 355.98 274.74 359.39 C 276.49 359.55 278.25 359.69 280.00 359.85 C 277.50 364.94 274.63 370.54 270.52 374.52 C 268.74 376.27 267.08 378.10 265.62 380.13 C 268.28 378.83 270.76 377.24 273.29 375.71 C 273.44 378.28 273.57 380.84 273.81 383.40 C 277.97 375.82 278.93 367.14 283.10 359.49 C 284.56 361.51 285.92 363.60 287.34 365.64 C 288.82 359.64 289.70 353.58 291.88 347.76 C 293.61 349.56 295.26 351.42 296.94 353.25 C 297.69 343.94 300.73 334.97 307.29 328.13 C 306.72 327.59 306.15 327.05 305.58 326.50 C 303.74 327.42 301.90 328.33 300.06 329.22 C 301.09 329.73 302.13 330.23 303.16 330.74 C 300.64 331.00 298.11 331.21 295.61 331.60 C 292.17 331.87 290.70 334.79 287.33 336.00 C 283.42 337.24 279.09 336.69 275.20 335.62 C 274.57 336.10 273.94 336.59 273.30 337.06 C 274.13 337.68 274.96 338.30 275.80 338.92 C 272.99 339.47 269.88 340.39 267.03 340.10 C 261.87 339.54 256.72 338.84 251.57 338.15 C 252.23 339.51 252.90 340.87 253.58 342.23 C 247.76 344.64 242.35 347.44 237.40 351.40 C 234.52 353.82 233.48 356.93 231.58 360.06 C 230.74 358.24 230.22 357.36 231.61 355.66 C 234.50 352.04 238.02 348.58 241.57 345.60 C 244.39 343.16 247.55 343.08 251.01 342.25 C 250.37 340.01 249.73 337.77 249.15 335.50 C 254.56 336.80 260.25 338.28 265.95 338.32 C 270.58 336.20 273.67 330.90 278.35 328.57 C 283.54 326.04 289.37 324.68 295.13 324.31 C 297.83 324.14 300.50 323.81 303.09 323.01 C 306.61 321.66 309.64 323.52 313.60 323.87 C 312.68 322.05 311.70 320.27 310.69 318.49 C 313.49 320.99 316.78 322.94 319.37 325.63 C 323.38 330.24 324.20 337.15 327.42 342.59 C 330.74 348.08 333.32 353.90 336.15 359.65 C 336.62 353.74 336.28 347.91 336.18 342.00 C 336.35 335.00 336.32 328.02 336.93 321.04 C 337.59 314.35 337.05 307.64 337.92 301.00 C 338.70 295.28 338.46 289.71 338.40 283.98 C 335.61 281.98 332.92 280.07 331.05 277.11 C 328.17 272.78 324.46 268.54 323.50 263.37 C 322.17 256.94 321.73 250.32 321.03 243.80 C 320.58 240.45 321.01 237.20 321.47 233.88 C 323.60 235.50 326.41 236.97 327.26 239.66 C 328.45 243.24 329.18 246.96 330.37 250.54 C 332.52 256.93 331.35 264.38 331.73 271.05 C 332.05 275.58 334.86 278.99 338.22 281.78 C 338.91 275.43 338.21 269.13 338.65 262.78 C 338.73 259.77 339.03 256.49 338.31 253.54 C 336.73 250.06 334.05 247.14 332.35 243.70 C 329.69 238.36 328.13 232.12 326.46 226.47 C 325.23 222.05 321.47 219.46 320.08 215.03 C 318.46 209.84 317.55 204.49 315.60 199.40 C 313.42 192.93 310.17 187.37 312.58 180.40 C 313.95 180.57 315.32 180.74 316.69 180.92 C 316.03 183.25 315.38 185.59 314.87 187.96 C 316.04 186.88 317.19 185.78 318.34 184.68 C 320.21 187.30 321.94 189.82 322.47 193.08 C 323.14 196.91 324.79 200.40 325.72 204.14 C 326.16 205.90 324.88 207.38 324.16 208.89 C 323.58 207.49 323.00 206.09 322.43 204.68 C 322.49 206.06 322.53 207.49 322.76 208.85 C 324.29 209.25 325.96 209.36 327.53 209.52 C 328.09 213.34 328.71 217.11 328.54 220.98 C 328.20 226.75 330.81 231.90 332.60 237.34 C 333.84 241.24 335.96 244.36 338.72 247.33 C 339.21 243.80 339.26 240.54 338.90 237.00 C 338.27 229.95 338.92 222.98 338.68 215.94 C 338.71 213.11 337.07 211.34 336.29 208.74 C 334.84 203.23 335.70 198.27 334.91 192.60 C 334.31 187.97 335.07 183.63 335.23 179.01 C 335.40 176.46 335.50 173.99 336.74 171.68 C 338.22 169.99 340.74 171.09 342.72 171.10 Z"/>
	<path d="M 339.28 180.12 C 339.98 181.21 340.62 182.34 341.27 183.46 C 340.17 183.52 339.08 183.57 337.99 183.62 C 338.41 182.45 338.82 181.28 339.28 180.12 Z" fill="#ffffff"/>
	<path d="M 452.04 181.82 C 454.61 184.12 456.27 186.96 458.07 189.84 C 460.34 193.51 462.93 196.97 465.79 200.18 C 468.96 203.72 472.73 206.56 475.86 210.14 C 469.30 206.59 464.55 200.80 460.12 194.95 C 456.96 190.70 453.69 186.95 452.04 181.82 Z"/>
	<path d="M 340.70 188.20 C 341.10 191.12 341.39 194.05 341.64 196.98 C 340.39 194.33 339.10 191.70 337.84 189.06 C 338.79 188.77 339.75 188.48 340.70 188.20 Z" fill="#ffffff"/>
	<path d="M 316.23 188.66 C 317.51 190.38 318.69 192.17 319.88 193.95 C 319.11 194.32 318.35 194.68 317.59 195.05 C 316.88 192.95 316.39 190.88 316.23 188.66 Z" fill="#ffffff"/>
	<path d="M 615.78 194.86 C 615.64 197.54 615.92 200.22 614.48 202.59 C 612.05 206.95 608.11 209.40 603.92 211.84 C 599.25 214.43 595.04 217.06 589.70 217.98 C 591.93 216.30 594.39 215.07 596.95 213.98 C 601.20 212.17 605.20 209.72 608.82 206.87 C 612.42 204.06 613.65 198.83 615.78 194.86 Z"/>
	<path d="M 318.98 197.80 C 321.12 198.77 320.53 200.52 320.92 202.48 C 319.67 200.94 319.22 199.76 318.98 197.80 Z" fill="#ffffff"/>
	<path d="M 352.24 205.04 L 352.95 204.64 L 353.66 205.07 L 353.65 205.90 L 352.94 206.31 L 352.23 205.88 L 352.24 205.04 Z" fill="#ffffff"/>
	<path d="M 373.48 206.64 C 375.13 210.08 374.40 213.23 374.56 216.92 C 374.67 221.38 374.45 225.83 374.11 230.27 C 372.08 227.52 369.95 224.65 368.58 221.50 C 368.09 220.52 368.74 219.13 368.97 218.12 C 370.23 214.22 371.60 210.28 373.48 206.64 Z" fill="#ffffff"/>
	<path d="M 351.63 210.63 C 351.70 213.96 351.46 215.66 349.39 218.29 C 349.41 215.12 349.90 213.25 351.63 210.63 Z" fill="#ffffff"/>
	<path d="M 381.48 211.79 C 380.51 217.69 379.06 223.48 376.66 228.97 C 375.70 224.61 375.12 219.66 376.13 215.28 C 377.25 213.64 379.82 212.83 381.48 211.79 Z" fill="#ffffff"/>
	<path d="M 403.45 219.80 C 402.00 224.10 399.19 227.13 395.91 230.09 C 392.95 233.99 390.00 237.39 385.38 239.39 C 387.19 235.93 389.82 233.24 392.42 230.40 C 394.77 227.85 395.90 224.64 397.98 221.96 C 399.12 220.45 401.76 220.31 403.45 219.80 Z" fill="#ffffff"/>
	<path d="M 402.31 226.54 C 404.00 226.51 405.74 226.93 407.39 227.23 C 403.68 231.81 398.16 234.28 394.47 239.00 C 397.03 239.72 399.54 240.51 401.95 241.65 C 396.30 243.47 390.84 245.36 385.44 247.85 C 385.15 246.59 384.92 245.32 384.75 244.05 C 387.40 239.39 392.29 236.51 396.17 233.15 C 398.51 231.19 400.16 228.65 402.31 226.54 Z" fill="#ffffff"/>
	<path d="M 381.99 229.91 C 380.83 234.73 377.85 239.05 377.07 243.89 C 377.67 246.25 379.64 248.36 381.00 250.34 C 377.99 252.71 374.97 255.06 371.82 257.25 C 372.28 255.57 372.78 253.89 373.16 252.19 C 373.82 249.20 373.23 246.25 374.14 243.29 C 375.11 239.88 375.36 236.06 376.85 232.84 C 378.26 231.53 380.25 230.72 381.99 229.91 Z" fill="#ffffff"/>
	<path d="M 374.50 230.81 C 374.63 234.79 374.36 238.51 373.19 242.34 C 371.73 239.52 370.49 236.60 369.27 233.67 C 371.01 232.71 372.76 231.76 374.50 230.81 Z" fill="#ffffff"/>
	<path d="M 521.49 248.40 C 522.52 248.38 523.54 248.35 524.57 248.33 L 524.51 249.77 C 523.50 249.79 522.48 249.81 521.47 249.83 L 521.49 248.40 Z" fill="#ffffff"/>
	<path d="M 536.29 252.25 C 537.52 252.37 538.73 252.55 539.94 252.72 C 539.29 253.91 538.63 255.10 537.96 256.29 C 537.39 254.95 536.79 253.61 536.29 252.25 Z" fill="#ffffff"/>
	<path d="M 552.50 253.38 C 551.78 254.38 551.09 255.45 550.25 256.36 C 547.50 256.91 544.57 256.73 541.77 256.87 C 541.73 255.38 541.69 253.88 541.65 252.38 C 545.31 252.36 548.90 252.75 552.50 253.38 Z" fill="#ffffff"/>
	<path d="M 536.77 258.55 C 540.27 258.27 543.25 258.95 546.46 260.31 C 543.79 260.61 541.13 260.83 538.45 260.76 C 537.86 260.04 537.30 259.30 536.77 258.55 Z" fill="#ffffff"/>
	<path d="M 538.18 262.62 C 538.40 266.44 538.25 270.26 538.40 274.09 C 538.69 280.05 538.10 285.62 539.91 291.42 C 541.00 289.38 542.02 287.41 542.16 285.05 C 542.60 277.91 542.25 270.69 541.60 263.57 C 544.80 263.46 548.01 263.34 551.21 263.17 C 551.95 272.33 551.47 281.62 551.08 290.79 C 546.51 291.65 542.23 291.91 537.59 291.65 C 537.38 286.43 537.66 281.22 537.58 276.00 C 537.59 271.64 537.29 266.89 538.18 262.62 Z" fill="#ffffff"/>
	<path d="M 368.21 268.81 C 372.66 269.22 377.20 269.77 381.24 271.79 C 384.64 273.48 387.54 275.56 391.24 276.67 C 394.64 277.80 398.13 277.57 401.55 278.52 C 405.15 279.59 408.27 281.81 411.91 283.01 C 414.44 283.83 417.05 284.41 419.63 285.07 C 419.46 286.70 419.29 288.34 419.13 289.97 C 422.86 291.52 426.65 292.91 430.41 294.38 C 427.17 297.14 426.48 300.03 425.63 304.03 C 423.04 299.24 420.38 294.67 416.51 290.79 C 415.58 292.00 414.67 293.22 413.75 294.43 C 408.03 288.87 402.10 283.81 395.00 280.06 C 394.48 280.75 393.96 281.44 393.44 282.13 C 396.36 286.27 399.77 290.08 403.08 293.95 C 404.58 295.79 406.58 297.40 406.72 299.92 C 404.68 301.75 403.41 299.64 401.54 298.70 C 401.60 299.72 401.67 300.72 401.63 301.74 C 400.56 302.85 399.24 303.75 398.02 304.69 C 397.32 302.14 396.64 299.58 395.93 297.03 C 396.87 296.58 397.81 296.12 398.75 295.65 C 398.14 293.66 397.86 291.09 396.47 289.50 C 392.99 285.50 388.80 282.03 385.12 278.20 C 387.55 278.56 389.95 279.02 392.38 279.33 C 387.97 277.50 383.45 276.14 379.24 273.83 C 375.10 271.53 371.03 273.33 368.21 268.81 Z" fill="#ffffff"/>
	<path d="M 363.04 270.49 C 366.88 270.49 369.60 274.85 371.16 277.89 C 374.32 283.38 374.35 289.07 374.48 295.22 C 374.61 300.42 373.22 305.36 372.95 310.56 C 374.30 310.54 375.65 310.51 377.00 310.47 C 376.62 313.17 376.27 315.87 375.95 318.58 C 377.23 318.53 378.52 318.48 379.81 318.43 C 379.70 322.47 379.64 326.49 380.20 330.51 C 382.11 329.26 383.85 327.82 385.67 326.45 C 386.55 327.65 387.45 328.74 388.06 330.10 C 387.79 331.73 387.27 333.37 386.79 334.95 C 384.60 334.13 382.92 332.91 380.49 333.39 C 378.84 338.19 380.86 344.45 382.05 349.25 C 379.58 349.67 377.13 350.16 374.68 350.70 C 376.02 353.21 377.85 355.42 379.12 357.96 C 380.22 360.26 379.50 362.25 378.97 364.56 C 377.41 363.40 375.77 361.06 373.85 360.60 C 369.44 360.58 364.24 360.95 360.46 363.43 C 356.57 365.83 352.54 368.14 348.97 371.00 C 345.39 373.87 343.12 377.40 340.29 380.97 C 340.18 374.64 340.51 368.33 340.38 362.00 C 339.88 351.59 341.26 341.41 339.95 330.99 C 339.38 326.59 340.18 322.65 340.40 318.27 C 340.74 311.84 340.59 305.36 340.63 298.93 C 340.60 295.72 342.05 293.26 343.60 290.58 C 346.50 285.84 349.31 281.23 353.33 277.33 C 356.01 274.70 359.26 271.32 363.04 270.49 Z" fill="#ffffff"/>
	<path d="M 375.46 273.62 C 376.34 276.33 377.17 279.00 378.50 281.53 C 380.56 285.42 380.46 289.99 381.80 294.27 C 383.37 299.47 383.08 304.91 384.88 310.02 C 387.70 306.06 385.50 303.06 385.34 298.76 C 385.08 295.75 385.79 293.22 384.63 290.40 C 383.04 286.23 381.31 282.11 379.81 277.90 C 383.28 280.36 386.66 282.96 389.87 285.75 C 389.26 288.04 388.40 290.08 388.67 292.49 C 389.50 300.49 392.08 307.43 391.49 315.57 C 389.85 315.08 388.22 314.60 386.56 314.18 C 386.38 317.63 386.70 320.39 388.21 323.52 C 386.38 323.31 384.54 323.10 382.69 323.05 C 382.28 319.11 381.97 315.12 380.54 311.39 C 379.44 308.70 379.50 305.98 379.35 303.14 C 378.10 304.14 376.85 305.15 375.59 306.14 C 376.97 299.78 377.85 293.46 376.77 286.97 C 376.35 282.00 373.46 278.66 375.46 273.62 Z" fill="#ffffff"/>
	<path d="M 154.81 274.70 C 156.06 276.16 157.57 277.71 158.30 279.50 C 159.33 284.55 159.46 289.91 159.99 295.03 C 160.25 296.76 160.41 298.96 161.47 300.41 C 163.83 303.34 166.94 305.08 169.65 307.49 C 170.51 310.54 170.56 313.83 170.97 316.97 C 169.01 316.75 167.04 316.53 165.08 316.33 C 165.77 318.39 166.35 320.58 167.37 322.51 C 172.35 324.77 177.66 325.78 182.34 328.85 C 181.65 330.30 181.03 331.82 180.18 333.18 C 176.54 336.17 171.45 337.18 167.17 338.88 C 169.00 340.35 170.61 343.51 173.35 342.17 C 176.70 341.02 179.93 340.18 183.45 339.61 C 183.51 340.95 183.59 342.30 183.68 343.64 C 185.83 340.89 187.02 337.84 190.00 336.09 C 193.14 334.10 196.19 332.02 199.21 329.85 C 196.97 328.93 194.14 326.79 191.69 327.66 C 189.69 328.11 187.81 328.88 185.93 329.69 C 185.24 329.30 184.54 328.91 183.84 328.52 C 184.59 326.61 185.38 324.71 186.23 322.84 C 184.93 322.26 183.64 321.66 182.35 321.05 C 184.88 317.80 187.44 315.64 191.22 313.97 C 189.68 315.75 188.02 317.42 186.46 319.18 C 189.94 318.11 193.15 316.29 195.92 313.93 C 194.23 312.32 192.31 310.88 190.36 309.61 C 188.02 309.10 185.49 309.31 183.11 309.13 C 183.75 307.88 184.14 306.14 185.22 305.20 C 187.22 303.78 189.76 303.13 191.78 301.74 C 193.31 300.50 194.55 298.86 195.82 297.37 C 195.14 296.93 194.47 296.48 193.80 296.04 C 192.01 296.37 190.23 296.70 188.43 297.00 C 191.83 294.63 195.43 292.63 199.10 290.71 C 198.61 288.10 198.52 285.65 198.71 283.01 C 200.40 283.76 202.08 284.53 203.76 285.30 C 203.63 289.46 202.68 293.43 201.97 297.51 C 205.34 296.52 207.21 296.22 210.52 297.61 C 209.41 301.23 208.77 304.91 207.28 308.42 C 208.17 309.63 209.06 310.84 209.95 312.06 C 207.67 313.83 205.43 315.65 203.16 317.42 C 203.99 318.43 204.82 319.44 205.66 320.44 C 207.55 316.65 208.82 313.33 213.15 311.83 C 212.55 314.55 211.42 317.01 210.17 319.47 C 211.61 319.62 213.16 319.58 214.56 319.98 C 215.93 320.82 217.15 321.94 218.39 322.95 C 217.47 324.52 216.54 326.10 215.61 327.67 C 213.59 327.42 211.44 326.68 209.41 326.83 C 205.66 328.58 201.42 329.85 201.38 334.76 C 205.58 334.37 208.51 331.98 212.17 330.27 C 214.61 330.86 216.33 334.00 218.58 335.10 C 220.70 336.02 222.94 336.67 225.11 337.48 C 222.51 338.14 219.87 338.58 217.24 339.08 C 219.95 343.13 224.27 345.05 226.37 349.63 C 224.09 349.37 221.83 348.96 219.56 348.60 C 221.37 350.29 223.28 351.86 225.09 353.56 C 219.09 354.50 214.30 352.04 209.24 349.25 C 209.62 350.82 210.01 352.39 210.39 353.97 C 206.86 355.12 203.44 356.44 200.04 357.92 C 197.93 356.21 196.75 353.60 193.62 354.54 C 191.42 356.32 189.64 358.68 187.75 360.78 C 186.46 359.74 185.17 358.70 183.89 357.64 C 185.64 357.14 187.53 356.81 189.18 356.02 C 191.40 354.26 193.15 351.30 195.69 349.69 C 197.90 348.12 201.06 348.72 203.52 349.32 C 204.63 349.99 205.19 351.49 205.93 352.53 C 206.43 350.76 207.12 349.02 207.45 347.21 C 207.06 345.18 204.60 343.61 203.18 342.25 C 202.15 343.67 201.13 345.11 200.10 346.54 C 198.71 345.68 197.05 343.64 195.30 344.30 C 192.16 345.52 189.71 349.01 187.23 351.23 C 184.66 353.73 181.42 355.42 178.84 357.89 C 178.38 359.03 178.23 360.33 178.01 361.53 C 175.25 358.17 171.86 354.16 167.11 354.22 C 168.74 356.09 170.50 357.83 172.29 359.54 C 170.42 360.54 168.46 361.69 166.41 362.26 C 164.78 362.35 163.08 361.60 161.51 361.22 C 160.94 363.28 160.36 365.34 159.66 367.35 C 158.31 363.70 159.01 360.14 156.85 356.83 C 156.65 360.48 156.76 364.13 156.34 367.78 C 153.88 367.36 151.43 366.92 148.96 366.56 C 149.95 364.13 150.88 361.69 151.64 359.18 C 146.88 359.28 145.43 362.70 142.74 365.87 C 140.89 368.33 137.92 369.85 135.14 371.02 C 133.00 372.05 130.50 371.30 128.25 371.02 C 128.33 370.15 128.40 369.27 128.48 368.40 C 131.78 367.84 135.47 367.28 138.35 365.51 C 142.82 362.59 146.35 358.55 150.08 355.03 C 152.51 352.73 155.51 352.06 158.36 350.46 C 159.48 349.62 160.15 348.17 160.98 347.05 C 163.12 349.29 165.16 351.26 168.21 352.21 C 166.54 349.33 164.09 346.98 160.91 345.89 C 157.48 346.33 153.53 347.44 151.48 350.46 C 146.83 356.15 140.25 362.92 132.67 364.04 C 133.62 359.52 136.16 355.56 139.68 352.62 C 141.49 351.07 143.19 351.76 145.29 352.05 C 145.33 350.27 145.39 348.51 145.45 346.72 C 140.40 349.13 135.99 352.69 130.87 354.89 C 128.02 356.45 125.18 354.27 122.40 353.49 C 122.39 352.76 122.38 352.03 122.37 351.30 C 124.28 350.41 126.20 349.53 128.10 348.62 C 128.74 349.70 129.38 350.78 130.02 351.85 C 130.41 349.47 130.90 347.12 131.36 344.75 C 131.81 342.29 130.50 339.63 130.98 337.22 C 131.80 335.73 133.29 334.52 134.52 333.37 C 134.47 335.66 134.34 337.94 134.20 340.22 C 137.63 340.63 141.82 341.37 145.10 340.09 C 149.39 338.05 153.01 334.20 155.82 330.43 C 151.62 332.49 147.19 333.90 142.87 335.66 C 140.89 336.47 138.89 336.50 136.79 336.68 C 138.24 332.30 141.49 330.15 145.19 327.79 C 145.31 326.07 145.48 324.37 145.67 322.66 C 141.26 320.47 137.50 321.98 132.90 322.36 C 135.10 319.78 136.51 318.68 139.87 317.90 C 143.07 317.43 144.35 314.25 146.22 311.97 C 142.74 313.17 139.37 314.66 135.88 315.82 C 138.27 310.04 143.29 308.56 148.57 306.27 C 148.58 303.81 147.96 300.92 148.70 298.54 C 150.23 296.56 152.64 295.12 154.69 293.71 C 154.14 287.32 154.16 281.09 154.81 274.70 Z"/>
	<path d="M 622.32 278.27 C 624.03 281.90 624.90 286.18 627.05 289.54 C 629.16 291.68 631.71 293.10 633.33 295.76 C 629.16 295.53 624.92 293.90 621.71 291.22 C 619.96 288.77 620.49 284.60 620.14 281.69 C 618.95 284.60 618.43 287.51 618.19 290.65 C 616.14 289.54 614.06 288.54 611.87 287.74 C 612.50 292.26 617.85 291.84 621.24 292.62 C 620.16 294.67 619.75 298.81 616.51 297.57 C 613.47 294.75 610.78 291.95 607.08 289.90 C 608.09 288.10 609.06 285.91 610.62 284.53 C 612.10 284.43 613.61 284.58 615.07 284.82 C 615.84 283.11 616.58 281.15 617.83 279.75 C 619.03 278.59 620.77 278.54 622.32 278.27 Z"/>
	<path d="M 95.23 285.76 C 95.82 289.91 96.63 293.82 96.10 298.03 C 95.66 301.93 95.66 305.83 95.33 309.74 C 98.20 307.65 100.82 306.61 104.35 307.73 C 106.86 309.81 105.02 311.86 104.10 314.22 C 102.79 317.63 98.75 319.31 95.82 321.08 C 98.14 324.08 101.40 326.41 104.62 328.38 C 109.15 331.06 114.56 330.27 119.59 330.93 C 117.52 333.52 114.99 333.84 111.96 334.60 C 112.76 335.29 113.56 335.98 114.35 336.67 C 116.34 336.25 118.33 335.82 120.34 335.49 C 119.33 336.79 118.17 338.87 116.50 339.35 C 113.21 340.18 109.45 339.31 106.15 339.96 C 104.92 340.06 104.18 340.74 103.92 342.01 C 108.31 345.19 114.31 341.53 118.55 345.52 C 119.79 347.92 116.83 350.52 114.99 351.61 C 113.14 351.50 111.29 351.08 109.45 350.80 C 112.47 353.36 115.52 354.28 119.31 355.14 C 121.99 355.63 122.31 357.69 123.45 359.79 C 120.70 359.54 117.98 359.04 115.23 358.85 C 113.42 358.75 111.57 360.04 109.84 360.52 C 108.07 360.34 106.34 359.53 104.65 358.98 C 105.05 360.71 105.42 362.44 105.75 364.19 C 101.05 366.07 96.42 365.98 91.46 366.29 C 89.51 366.25 87.71 367.89 86.06 368.83 C 83.95 368.52 81.47 367.74 79.39 368.32 C 77.04 368.90 74.76 369.88 72.49 370.73 C 72.48 369.61 72.47 368.48 72.46 367.36 C 77.38 365.37 82.31 365.51 87.49 365.19 C 87.17 364.11 86.83 363.03 86.51 361.95 C 89.00 360.08 91.56 358.28 94.13 356.52 C 93.14 355.42 92.14 354.32 91.15 353.22 C 87.39 357.61 82.76 360.47 77.11 361.68 C 75.70 361.52 74.32 360.76 73.00 360.25 C 75.73 357.42 78.93 355.28 82.08 352.97 C 77.81 353.89 73.82 355.57 69.66 356.84 C 70.22 355.72 70.69 354.41 71.54 353.47 C 76.37 349.79 83.28 349.86 87.60 345.74 C 84.57 345.57 81.52 345.44 78.49 345.62 C 75.29 345.83 72.18 346.85 68.99 347.07 C 67.55 346.72 66.16 346.14 64.77 345.59 C 66.07 344.45 67.15 343.25 68.92 342.88 C 73.29 341.73 77.38 340.62 81.28 338.20 C 83.76 336.55 85.86 334.13 87.89 331.97 C 86.12 330.80 84.36 329.46 82.42 328.59 C 80.55 328.11 78.52 328.18 76.61 328.02 C 78.02 326.18 79.52 324.66 81.67 323.69 C 86.00 321.61 90.04 319.40 93.40 315.88 C 93.49 314.17 93.23 312.40 93.06 310.70 C 89.87 311.70 87.10 313.41 84.23 315.09 C 86.09 310.06 88.41 306.68 92.69 303.43 C 92.76 298.35 92.36 293.18 92.84 288.12 C 93.05 286.63 94.13 286.48 95.23 285.76 Z"/>
	<path d="M 391.13 287.59 C 391.81 288.03 392.47 288.50 393.12 288.98 C 394.95 289.96 394.59 292.53 395.01 294.31 C 393.40 292.21 392.13 290.05 391.13 287.59 Z" fill="#ffffff"/>
	<path d="M 391.37 294.72 C 394.30 299.08 396.65 304.48 395.27 309.80 C 393.07 305.13 392.04 299.82 391.37 294.72 Z" fill="#ffffff"/>
	<path d="M 155.64 298.96 C 155.46 304.01 152.48 306.81 149.14 310.12 C 150.86 306.13 152.84 302.31 155.64 298.96 Z" fill="#ffffff"/>
	<path d="M 200.12 301.70 C 200.25 302.81 200.39 303.92 200.52 305.03 C 197.96 305.83 195.46 306.75 192.97 307.76 C 195.32 305.69 197.68 303.66 200.12 301.70 Z" fill="#ffffff"/>
	<path d="M 406.32 301.57 C 410.52 303.40 413.02 306.72 415.85 310.14 C 415.23 311.73 414.60 313.32 413.99 314.91 C 416.93 318.60 420.16 322.24 422.59 326.28 C 423.05 329.23 422.34 332.46 422.04 335.40 C 420.35 334.05 418.34 332.69 417.11 330.89 C 416.23 328.32 416.91 325.23 416.44 322.53 C 416.18 319.97 414.64 318.28 413.16 316.31 C 413.53 319.61 414.50 322.81 414.74 326.11 C 415.06 328.98 413.17 331.58 411.92 334.04 C 410.13 327.49 409.60 320.85 407.42 314.43 C 406.12 315.56 404.84 316.71 403.56 317.85 C 403.11 312.17 401.97 307.16 402.59 301.49 C 405.27 304.77 407.08 308.52 409.49 311.97 C 410.65 307.73 407.69 305.37 406.32 301.57 Z" fill="#ffffff"/>
	<path d="M 203.14 304.24 C 205.10 303.99 206.06 306.36 204.03 307.15 C 202.17 307.51 201.29 304.89 203.14 304.24 Z" fill="#ffffff"/>
	<path d="M 651.24 304.87 C 653.43 309.30 652.11 315.31 652.68 320.20 C 651.65 320.28 650.63 320.35 649.61 320.42 C 649.46 314.82 649.18 309.59 648.26 304.05 C 649.27 304.27 650.27 304.54 651.24 304.87 Z"/>
	<path d="M 159.13 304.91 C 163.20 305.66 167.10 309.35 169.00 312.91 C 166.18 312.29 163.52 311.45 160.84 310.37 C 159.50 312.88 159.19 315.39 158.98 318.18 C 158.51 313.96 157.48 308.92 159.13 304.91 Z" fill="#ffffff"/>
	<path d="M 620.71 304.82 C 621.99 305.60 623.47 306.44 624.38 307.66 C 624.94 309.11 624.61 310.92 624.66 312.46 C 624.49 315.06 625.31 317.29 625.93 319.77 C 624.55 319.75 623.18 319.73 621.80 319.71 C 621.88 314.67 620.93 309.80 620.71 304.82 Z"/>
	<path d="M 604.69 306.42 C 606.23 308.11 607.52 309.96 608.87 311.80 C 609.39 310.01 609.91 308.21 610.45 306.42 C 611.22 306.30 611.99 306.17 612.76 306.04 C 612.26 311.01 611.42 315.93 609.82 320.68 C 607.75 318.72 606.56 316.34 605.43 313.76 C 604.54 315.93 603.87 318.52 602.37 320.34 C 601.40 320.57 600.44 320.69 599.45 320.83 C 601.67 316.05 601.01 311.21 602.15 306.26 C 603.00 306.30 603.84 306.35 604.69 306.42 Z"/>
	<path d="M 400.24 307.47 C 401.11 313.53 401.57 319.77 401.25 325.89 C 399.63 329.95 396.34 333.41 394.34 337.36 C 390.36 343.57 388.35 350.69 384.11 356.70 C 383.14 356.02 382.18 355.34 381.22 354.65 C 382.60 353.49 384.42 352.42 385.36 350.86 C 385.44 347.49 384.43 343.99 383.87 340.67 C 385.41 340.46 386.95 340.26 388.49 340.04 C 389.21 336.74 390.29 333.56 391.34 330.35 C 392.21 327.83 391.60 324.98 391.34 322.37 C 392.33 321.70 393.32 321.02 394.31 320.35 C 393.99 318.11 393.23 315.41 393.90 313.22 C 395.03 310.71 398.09 309.04 400.24 307.47 Z" fill="#ffffff"/>
	<path d="M 620.02 310.23 C 620.83 314.05 621.13 317.22 619.41 320.85 C 616.99 320.35 614.56 319.88 612.14 319.36 C 613.26 316.43 614.07 313.49 614.78 310.44 C 616.53 310.30 618.27 310.27 620.02 310.23 Z"/>
	<path d="M 647.34 310.07 C 647.64 314.17 647.97 318.00 646.28 321.88 C 644.77 321.07 643.13 320.33 641.76 319.29 C 640.94 317.54 640.44 315.62 639.83 313.78 C 638.91 316.05 638.04 318.33 637.15 320.61 C 634.02 320.03 630.36 319.95 627.50 318.47 C 625.76 315.61 627.05 312.44 627.87 309.52 C 628.91 311.56 629.83 313.66 630.68 315.79 C 631.41 313.80 632.18 311.82 633.03 309.88 C 633.86 312.32 634.54 314.80 635.40 317.23 C 635.23 315.05 634.91 312.89 634.64 310.72 C 638.88 310.53 643.11 310.41 647.34 310.07 Z"/>
	<path d="M 198.66 313.41 C 198.73 316.78 198.52 320.14 198.22 323.50 C 197.21 321.94 195.62 320.03 195.67 318.10 C 196.08 316.35 197.60 314.82 198.66 313.41 Z" fill="#ffffff"/>
	<path d="M 147.42 314.61 C 147.84 316.23 148.20 317.86 148.50 319.50 C 146.90 319.26 145.31 318.96 143.74 318.59 C 144.96 317.25 146.18 315.93 147.42 314.61 Z" fill="#ffffff"/>
	<path d="M 93.76 318.69 C 93.69 321.94 93.88 322.60 90.99 324.34 C 91.47 321.90 92.04 320.50 93.76 318.69 Z" fill="#ffffff"/>
	<path d="M 406.84 319.57 C 407.79 324.36 407.38 329.24 405.83 333.86 C 404.43 337.99 399.09 339.62 395.44 341.09 C 397.95 336.43 402.02 333.02 404.25 328.30 C 404.68 326.29 403.75 324.06 403.99 322.02 C 404.85 321.12 405.87 320.34 406.84 319.57 Z" fill="#ffffff"/>
	<path d="M 611.85 321.98 C 611.63 325.65 611.18 329.30 610.70 332.94 C 610.42 334.52 610.41 335.97 609.06 337.05 C 607.09 337.72 604.86 337.74 602.80 337.98 C 603.64 333.73 603.32 328.87 604.91 324.87 C 606.67 323.21 609.60 322.68 611.85 321.98 Z"/>
	<path d="M 614.99 322.05 C 615.76 322.67 616.51 323.31 617.25 323.98 C 616.26 324.72 615.25 325.42 614.23 326.12 C 614.46 324.76 614.69 323.40 614.99 322.05 Z"/>
	<path d="M 202.60 323.94 C 203.73 322.79 205.69 323.92 204.79 325.43 C 203.65 326.52 201.75 325.46 202.60 323.94 Z" fill="#ffffff"/>
	<path d="M 158.51 325.13 C 159.59 324.50 160.55 324.62 161.39 325.52 C 163.53 327.40 165.00 330.24 166.43 332.68 C 163.86 330.61 161.49 328.99 158.29 328.03 C 158.32 327.05 158.39 326.09 158.51 325.13 Z" fill="#ffffff"/>
	<path d="M 294.25 326.13 C 295.11 325.21 297.42 325.14 297.64 326.66 C 297.36 328.55 293.03 328.38 294.25 326.13 Z" fill="#ffffff"/>
	<path d="M 607.12 326.35 C 608.70 325.50 610.23 327.38 608.90 328.67 C 607.34 329.49 605.75 327.63 607.12 326.35 Z" fill="#ffffff"/>
	<path d="M 613.97 326.92 C 616.79 328.73 617.50 332.28 619.00 335.20 C 617.44 335.95 616.16 336.88 614.34 336.82 C 613.48 333.61 613.34 330.19 613.97 326.92 Z"/>
	<path d="M 620.95 327.17 C 622.74 327.35 624.54 327.69 626.32 328.01 C 626.15 330.72 626.30 333.09 627.10 335.70 C 626.90 336.36 626.70 337.03 626.50 337.70 C 624.83 337.46 623.15 337.21 621.48 336.94 C 621.66 333.68 620.48 330.35 620.95 327.17 Z"/>
	<path d="M 632.31 327.04 C 633.85 326.13 634.96 326.98 636.38 327.62 C 637.06 330.51 636.40 333.82 635.24 336.50 C 633.81 337.94 631.12 337.84 629.93 336.12 C 626.97 333.85 629.56 328.37 632.31 327.04 Z"/>
	<path d="M 292.53 327.26 C 292.49 328.58 292.45 329.91 292.41 331.24 C 286.35 330.84 280.92 332.62 275.03 333.45 C 278.73 328.17 286.74 327.97 292.53 327.26 Z" fill="#ffffff"/>
	<path d="M 317.81 328.08 C 319.45 331.58 321.08 335.08 322.36 338.74 C 324.78 345.71 329.19 351.58 331.71 358.51 C 332.46 360.78 333.91 362.33 335.62 363.92 C 335.50 367.51 335.40 371.11 335.16 374.69 C 329.61 375.57 323.97 375.26 318.46 376.33 C 313.65 377.21 308.94 375.99 304.09 376.94 C 296.58 378.47 289.27 377.07 281.72 378.09 C 283.97 381.29 287.02 383.24 290.35 385.17 C 284.86 386.84 279.27 388.03 273.86 389.99 C 276.77 383.31 279.73 376.74 281.51 369.64 C 282.15 368.16 281.83 366.34 283.78 366.07 C 285.23 367.66 286.47 369.47 287.80 371.17 C 291.03 366.36 290.39 360.33 292.38 354.65 C 294.51 355.93 296.64 357.22 298.84 358.38 C 300.32 354.42 300.53 350.32 301.26 346.21 C 302.64 340.33 302.95 335.03 307.85 330.83 C 310.69 327.77 314.03 328.49 317.81 328.08 Z" fill="#ffffff"/>
	<path d="M 99.44 328.99 C 100.09 334.14 99.05 338.86 98.18 343.89 C 97.61 343.81 97.04 343.74 96.47 343.66 C 96.48 339.59 96.33 335.48 96.59 331.42 C 97.50 330.57 98.46 329.76 99.44 328.99 Z" fill="#ffffff"/>
	<path d="M 640.29 331.44 C 641.55 331.72 642.80 332.08 644.04 332.46 C 643.34 334.04 643.34 335.67 641.23 335.80 C 640.69 334.40 640.44 332.93 640.29 331.44 Z"/>
	<path d="M 606.44 332.31 C 608.21 331.20 609.39 333.98 607.28 334.37 C 606.18 334.01 605.89 333.32 606.44 332.31 Z" fill="#ffffff"/>
	<path d="M 108.49 333.54 C 109.44 333.79 110.37 334.19 111.29 334.54 C 109.78 334.98 108.26 335.38 106.73 335.74 C 107.28 334.98 107.87 334.25 108.49 333.54 Z" fill="#ffffff"/>
	<path d="M 159.33 333.22 L 161.05 332.54 C 163.33 334.97 163.51 337.78 163.86 340.92 C 162.78 339.40 161.75 337.84 160.71 336.29 C 160.06 337.89 159.42 339.50 158.76 341.10 C 158.71 338.48 158.69 335.78 159.33 333.22 Z" fill="#ffffff"/>
	<path d="M 198.30 332.15 C 198.80 334.46 199.09 336.80 199.34 339.14 C 197.36 339.29 195.37 339.42 193.38 339.54 C 194.87 336.97 196.45 334.48 198.30 332.15 Z" fill="#ffffff"/>
	<path d="M 282.40 333.22 C 283.11 332.81 285.44 332.23 285.42 333.61 C 284.94 334.59 282.33 335.19 281.44 334.59 C 281.27 334.07 281.58 333.62 282.40 333.22 Z" fill="#ffffff"/>
	<path d="M 94.19 334.34 C 94.17 336.13 94.34 338.06 93.93 339.82 C 93.18 341.08 92.15 342.19 91.23 343.32 C 90.19 342.50 89.14 341.68 88.10 340.85 C 89.70 337.46 90.86 336.12 94.19 334.34 Z" fill="#ffffff"/>
	<path d="M 208.56 335.42 C 209.81 334.66 212.63 336.14 211.67 337.75 C 210.66 338.89 207.72 336.66 208.56 335.42 Z" fill="#ffffff"/>
	<path d="M 182.78 335.92 C 182.58 336.73 182.38 337.53 182.17 338.33 C 181.03 338.53 179.89 338.72 178.74 338.90 C 179.20 338.31 179.66 337.73 180.13 337.15 C 181.01 336.72 181.89 336.31 182.78 335.92 Z"/>
	<path d="M 155.27 337.33 C 157.28 338.03 155.92 340.59 154.18 340.29 C 152.34 339.46 153.44 337.02 155.27 337.33 Z" fill="#ffffff"/>
	<path d="M 202.14 337.58 C 203.63 336.49 204.73 338.83 202.95 339.28 C 201.95 339.04 201.68 338.47 202.14 337.58 Z" fill="#ffffff"/>
	<path d="M 85.03 339.12 C 86.01 338.96 86.63 339.27 86.91 340.04 C 87.10 341.89 84.37 342.55 83.65 340.88 C 83.59 340.03 84.05 339.45 85.03 339.12 Z" fill="#ffffff"/>
	<path d="M 152.00 339.25 C 151.77 340.27 151.54 341.29 151.31 342.31 C 150.18 342.41 149.06 342.51 147.93 342.61 C 149.28 341.48 150.63 340.36 152.00 339.25 Z" fill="#ffffff"/>
	<path d="M 400.14 341.99 C 403.15 343.23 406.18 344.37 409.25 345.45 C 401.39 349.43 393.71 353.52 386.78 359.01 C 390.07 359.72 393.18 360.65 396.35 361.79 C 400.53 363.25 404.43 362.35 408.78 362.59 C 416.00 363.21 422.79 364.64 430.06 364.46 C 428.58 365.83 427.11 367.16 425.75 368.67 C 423.68 370.40 424.56 374.00 424.19 376.46 C 420.55 372.73 417.14 369.03 412.47 366.55 C 412.46 368.41 412.49 370.26 412.54 372.12 C 403.78 366.63 393.58 366.14 383.31 362.53 C 383.26 361.44 383.21 360.36 383.16 359.27 C 385.48 357.21 387.73 355.09 389.93 352.91 C 393.90 348.83 399.84 348.67 404.39 344.95 C 400.12 345.64 396.37 347.38 392.27 348.63 C 392.92 346.88 393.35 344.78 394.49 343.28 C 396.10 342.31 398.27 340.98 400.14 341.99 Z" fill="#ffffff"/>
	<path d="M 211.51 343.20 C 214.57 343.11 216.85 343.45 219.55 344.92 C 216.52 344.98 214.21 344.60 211.51 343.20 Z" fill="#ffffff"/>
	<path d="M 100.97 344.83 C 102.03 345.23 103.09 345.65 104.14 346.08 C 103.65 347.83 103.14 349.57 102.60 351.31 C 100.69 349.70 99.11 347.86 97.62 345.86 C 98.73 345.50 99.85 345.16 100.97 344.83 Z" fill="#ffffff"/>
	<path d="M 172.23 345.77 C 175.13 345.60 176.95 347.18 179.50 348.18 C 181.04 348.63 182.76 348.54 184.35 348.69 C 181.43 351.34 178.22 353.27 174.67 354.96 C 173.20 352.03 172.23 349.08 172.23 345.77 Z" fill="#ffffff"/>
	<path d="M 106.31 348.62 C 107.43 347.73 109.37 349.47 108.56 350.67 C 107.35 351.49 105.52 349.92 106.31 348.62 Z" fill="#ffffff"/>
	<path d="M 161.39 352.24 C 159.91 353.31 158.38 354.32 156.83 355.30 C 157.14 354.42 157.45 353.55 157.78 352.68 C 158.98 352.51 160.19 352.36 161.39 352.24 Z" fill="#ffffff"/>
	<path d="M 265.95 353.36 C 264.40 357.24 262.72 361.08 261.28 365.01 C 259.82 364.68 258.35 364.36 256.88 364.04 C 255.20 368.56 253.61 373.11 252.07 377.69 C 251.46 375.46 249.54 372.50 249.70 370.26 C 252.33 365.35 256.14 360.96 259.37 356.41 C 260.94 353.85 263.34 354.05 265.95 353.36 Z" fill="#ffffff"/>
	<path d="M 193.84 356.81 C 194.21 358.06 194.57 359.32 194.93 360.58 C 193.93 360.95 192.93 361.32 191.93 361.69 C 192.53 360.05 193.16 358.42 193.84 356.81 Z"/>
	<path d="M 378.99 365.17 C 383.45 366.44 387.39 368.92 391.90 370.10 C 396.57 371.36 400.48 373.90 404.41 376.62 C 402.96 376.67 401.51 376.70 400.06 376.72 C 399.70 377.13 399.33 377.54 398.97 377.95 C 404.08 382.82 409.15 387.75 414.33 392.55 C 412.22 391.87 410.13 391.14 408.04 390.43 C 407.56 393.04 407.08 395.66 406.50 398.25 C 403.57 392.91 402.41 387.72 398.60 383.41 C 394.67 378.77 390.39 374.54 386.99 369.46 C 386.23 370.11 385.46 370.76 384.70 371.41 C 386.63 375.39 389.66 378.24 392.51 381.50 C 395.03 384.26 393.09 387.85 392.25 390.87 C 390.96 386.56 389.80 382.24 388.20 378.03 C 386.71 379.42 385.23 380.83 383.72 382.21 C 382.72 376.34 380.61 370.86 378.99 365.17 Z" fill="#ffffff"/>
	<path d="M 248.88 371.79 C 247.40 375.55 244.26 376.61 240.90 378.20 C 243.12 374.95 245.07 373.11 248.88 371.79 Z" fill="#ffffff"/>
	<path d="M 313.26 381.26 C 311.87 383.11 310.40 385.25 308.50 386.61 C 307.07 387.76 304.93 387.57 303.18 387.72 C 306.12 384.84 309.23 382.38 313.26 381.26 Z" fill="#ffffff"/>
	<path d="M 317.01 385.59 C 314.37 390.21 311.09 394.12 306.74 397.22 C 306.94 392.60 308.43 388.91 311.84 385.75 C 313.21 384.94 315.47 385.62 317.01 385.59 Z" fill="#ffffff"/>
	<path d="M 302.59 387.81 C 303.12 389.94 303.47 391.30 302.43 393.34 C 301.43 397.17 297.26 397.11 294.11 398.00 C 295.66 395.05 297.48 392.29 299.94 390.01 C 300.81 389.27 301.70 388.53 302.59 387.81 Z" fill="#ffffff"/>
	<path d="M 272.81 395.45 C 274.37 396.08 275.83 396.98 277.30 397.78 C 272.50 400.69 269.42 404.59 263.62 404.92 C 266.32 402.66 269.39 401.16 272.44 399.45 C 269.91 399.26 267.39 399.38 264.85 399.33 C 267.36 397.92 270.00 396.11 272.81 395.45 Z"/>
	<path d="M 541.89 415.61 C 544.51 415.99 545.89 418.52 546.13 420.99 C 546.61 427.30 546.18 433.72 546.27 440.04 C 546.47 442.07 546.05 444.08 547.95 445.39 C 551.66 442.22 554.15 437.91 557.57 434.56 C 559.03 433.37 561.75 431.63 563.13 433.80 C 564.36 434.86 563.59 437.77 563.20 439.15 C 560.80 445.20 554.73 449.81 552.48 456.05 C 553.04 462.71 558.77 466.31 556.77 473.60 C 554.68 473.61 552.60 473.62 550.51 473.62 C 548.88 470.02 547.31 466.40 545.73 462.78 C 545.14 466.34 545.37 471.97 542.31 474.43 C 540.83 475.80 539.00 475.19 537.13 475.29 C 536.29 470.15 536.77 465.10 537.18 459.96 C 537.70 448.98 540.38 439.16 538.61 428.10 C 538.39 423.95 535.88 421.51 534.38 417.86 C 536.58 416.47 539.27 415.62 541.89 415.61 Z"/>
	<path d="M 463.30 416.43 C 465.95 415.90 467.76 418.08 468.22 420.47 C 468.98 426.24 469.71 432.23 469.18 438.04 C 468.59 445.14 467.36 452.05 467.66 459.20 C 473.39 458.83 477.96 460.91 483.32 458.28 C 485.50 463.53 483.03 468.28 480.16 472.64 C 475.94 471.71 471.36 470.14 467.05 470.94 C 463.93 471.44 460.83 472.06 457.69 472.44 C 457.90 460.88 459.85 449.53 459.47 437.95 C 459.75 431.99 458.21 425.95 458.89 420.06 C 459.08 417.85 461.46 416.97 463.30 416.43 Z"/>
	<path d="M 358.49 417.70 C 364.86 415.79 370.39 417.37 376.68 418.35 C 381.10 419.13 385.24 418.48 389.65 418.14 C 389.72 420.64 389.92 423.23 389.63 425.72 C 389.55 427.25 388.86 427.95 387.47 428.47 C 384.80 429.32 381.91 429.56 379.16 430.06 C 378.49 437.43 378.92 444.86 378.59 452.25 C 379.52 452.97 380.46 453.69 381.41 454.39 C 380.47 454.46 379.54 454.55 378.60 454.63 C 378.42 459.16 378.73 463.82 378.05 468.30 C 377.44 471.50 374.67 474.24 371.24 473.70 C 368.53 473.85 368.53 470.60 368.39 468.66 C 368.54 455.36 370.24 441.27 368.69 428.03 C 364.67 427.32 360.62 427.95 356.62 427.44 C 353.20 425.44 354.39 418.19 358.49 417.70 Z"/>
	<path d="M 394.60 417.61 C 397.62 416.54 400.23 419.42 400.45 422.26 C 400.80 427.12 400.08 432.03 400.27 436.93 C 402.76 436.15 405.34 435.09 407.92 434.76 C 410.37 435.75 411.70 439.04 412.75 441.30 C 415.03 446.42 414.90 451.53 414.79 457.02 C 414.67 460.79 414.99 465.11 413.77 468.72 C 412.93 470.93 411.79 473.45 409.08 473.59 C 406.78 471.98 406.82 468.58 406.72 466.06 C 406.51 460.30 408.33 453.20 406.11 447.83 C 402.92 445.38 401.55 447.48 398.64 448.93 C 398.43 455.49 399.10 462.17 398.39 468.69 C 397.86 471.97 394.25 472.35 391.53 472.12 C 391.24 469.06 390.90 466.05 390.77 463.02 C 390.09 450.22 393.37 437.79 392.52 424.94 C 392.66 422.46 391.68 418.83 394.60 417.61 Z"/>
	<path d="M 268.09 418.08 C 270.39 417.96 272.40 419.55 273.44 421.50 C 275.28 425.03 275.61 429.41 275.38 433.33 C 275.11 438.36 275.14 443.41 275.64 448.43 C 279.26 444.19 282.32 436.70 288.14 435.24 C 291.66 434.44 290.52 437.84 290.83 440.04 C 291.46 446.38 282.75 450.73 282.83 456.90 C 284.19 461.68 288.67 466.03 289.46 470.98 C 289.86 474.35 285.10 477.48 282.45 474.60 C 279.60 471.09 278.49 466.66 275.01 463.51 C 275.03 466.41 275.63 469.45 275.24 472.33 C 273.70 474.13 270.06 477.77 267.66 475.53 C 265.08 471.51 265.63 467.47 265.97 462.96 C 266.95 453.58 268.10 443.47 267.09 434.08 C 266.59 429.17 264.35 425.02 263.08 420.36 C 264.60 419.46 266.32 418.33 268.09 418.08 Z"/>
	<path d="M 109.53 419.64 C 111.02 420.42 112.75 421.81 113.23 423.47 C 113.98 427.85 113.23 432.51 113.83 436.89 C 113.97 437.96 114.40 438.70 115.12 439.10 C 118.89 439.89 124.09 439.06 127.00 441.98 C 130.50 445.11 130.89 450.59 131.33 454.96 C 131.58 460.31 131.27 466.23 129.14 471.21 C 128.04 473.96 125.48 474.27 123.04 475.34 C 120.38 466.56 123.44 458.57 122.27 449.62 C 119.75 449.54 117.24 449.44 114.73 449.29 C 114.51 455.84 114.93 462.52 114.21 469.03 C 113.28 473.79 111.02 475.93 106.39 477.09 C 105.54 475.06 104.48 473.34 104.45 471.08 C 104.21 465.63 104.78 460.40 105.19 455.00 C 105.71 444.83 105.14 434.56 103.98 424.44 C 102.99 421.45 107.08 419.20 109.53 419.64 Z"/>
	<path d="M 178.78 419.40 C 182.17 419.49 185.71 420.56 188.94 421.56 C 188.37 427.15 182.87 428.75 182.53 434.39 C 181.32 443.95 181.51 453.98 182.19 463.58 C 186.63 463.99 191.05 464.50 195.49 464.92 C 197.22 462.97 199.03 461.15 201.05 459.50 C 201.33 463.65 201.57 467.88 201.21 472.04 C 201.08 474.25 199.31 476.74 196.88 476.51 C 194.15 476.45 191.45 475.73 188.72 475.50 C 184.45 475.03 180.24 475.45 175.98 475.38 C 174.06 475.55 171.76 473.91 171.60 471.97 C 170.79 458.15 173.54 444.90 171.64 431.09 C 171.43 427.27 169.42 424.61 167.71 421.36 C 171.23 420.40 175.10 419.36 178.78 419.40 Z"/>
	<path d="M 362.98 420.40 C 371.01 420.60 378.80 422.07 386.88 421.39 C 387.01 422.79 387.14 424.18 387.26 425.58 C 383.66 426.08 380.08 426.40 376.46 426.61 C 376.09 433.68 376.47 440.76 375.87 447.80 C 375.26 455.09 375.99 462.35 375.03 469.64 C 373.91 469.69 372.78 469.74 371.66 469.79 C 371.01 460.91 371.68 451.90 371.81 443.00 C 372.40 436.89 372.25 431.30 370.93 425.30 C 366.77 424.25 362.26 423.99 358.56 422.02 C 360.04 421.20 361.19 420.24 362.98 420.40 Z" fill="#ffffff"/>
	<path d="M 98.47 422.80 C 98.09 425.95 98.12 429.84 96.51 432.65 C 93.23 434.36 88.39 433.18 84.76 433.32 C 84.14 445.43 85.17 458.19 83.41 470.20 C 83.04 472.73 82.26 475.50 80.20 477.18 C 78.61 477.63 76.91 477.79 75.28 478.02 C 73.98 466.48 72.96 454.59 74.16 443.00 C 74.42 439.41 74.03 435.90 73.71 432.34 C 69.85 432.59 65.96 433.33 62.11 433.22 C 59.20 431.56 60.37 425.56 61.06 422.93 C 64.26 421.47 68.56 422.61 72.03 422.22 C 80.73 420.95 89.79 421.57 98.47 422.80 Z"/>
	<path d="M 395.45 421.02 C 396.66 421.31 397.26 422.01 397.25 423.14 C 397.75 428.97 396.79 434.71 397.98 440.53 C 401.05 440.43 405.07 439.32 407.70 441.29 C 410.70 442.98 411.06 446.87 411.46 449.93 C 411.86 456.32 411.72 463.08 410.93 469.43 C 410.09 468.34 409.25 467.45 409.26 465.98 C 408.98 460.99 409.59 455.89 409.52 450.92 C 409.47 448.88 409.22 446.70 408.03 444.97 C 406.27 442.92 402.92 442.93 400.50 443.48 C 397.69 444.41 396.58 447.43 396.10 450.10 C 395.45 454.57 395.62 459.20 395.51 463.71 C 394.80 463.72 394.08 463.73 393.36 463.74 C 393.09 456.10 394.39 448.62 394.49 441.00 C 394.59 434.34 395.13 427.68 395.45 421.02 Z" fill="#ffffff"/>
	<path d="M 464.12 419.69 C 466.47 425.95 466.62 432.43 465.89 439.01 C 465.56 447.19 464.10 455.18 464.31 463.37 C 467.43 463.26 470.59 462.52 473.69 462.69 C 476.08 463.14 478.40 463.99 480.74 464.64 C 480.47 465.71 480.20 466.78 479.93 467.85 C 473.66 467.14 467.59 466.93 461.32 467.74 C 461.81 452.90 463.55 438.99 462.25 424.05 C 462.03 421.92 462.68 421.16 464.12 419.69 Z" fill="#ffffff"/>
	<path d="M 541.58 420.25 C 543.00 422.84 543.60 424.97 543.55 427.95 C 543.93 435.87 542.12 443.28 544.88 450.46 C 547.26 449.28 549.51 448.36 551.32 446.34 C 554.76 442.72 556.17 438.59 561.11 436.62 C 559.06 443.89 551.68 447.75 549.50 454.47 C 548.07 459.55 551.84 464.50 553.87 468.94 C 553.31 469.19 552.76 469.44 552.20 469.70 C 549.83 464.42 547.90 458.97 545.47 453.72 C 544.56 454.33 543.67 454.90 542.85 455.64 C 542.07 460.85 542.88 466.20 541.93 471.44 C 541.19 470.33 540.42 469.40 540.38 468.00 C 539.93 461.35 540.35 454.65 541.07 448.05 C 542.08 438.94 541.07 429.34 541.58 420.25 Z" fill="#ffffff"/>
	<path d="M 184.11 423.26 C 182.55 425.18 180.39 427.17 179.66 429.57 C 178.78 432.54 178.68 435.91 178.66 438.99 C 178.70 448.43 178.47 458.04 178.87 467.49 C 185.45 466.76 191.83 467.72 198.36 468.33 C 198.33 469.80 198.29 471.27 198.24 472.73 C 190.51 472.29 182.75 471.78 175.00 471.68 C 174.06 460.77 175.45 450.05 175.50 439.00 C 175.87 433.51 174.58 428.26 174.46 422.81 C 177.96 422.22 180.71 422.30 184.11 423.26 Z" fill="#ffffff"/>
	<path d="M 268.31 421.54 C 269.44 422.63 270.55 423.53 270.95 425.11 C 272.96 432.61 272.12 439.52 271.76 447.08 C 271.54 449.58 272.76 451.27 273.97 453.29 C 280.14 449.97 281.34 443.03 287.50 439.88 C 286.47 443.76 284.16 446.71 281.93 449.93 C 280.32 452.47 278.46 455.33 279.54 458.46 C 281.35 463.06 284.64 466.78 285.98 471.64 C 280.43 467.99 279.73 461.15 274.15 457.30 C 272.22 462.22 271.91 467.30 271.25 472.47 C 267.79 468.48 268.89 464.10 269.39 459.31 C 270.56 451.54 270.30 443.81 270.28 435.98 C 270.26 431.03 268.87 426.40 268.31 421.54 Z" fill="#ffffff"/>
	<path d="M 108.82 422.71 C 112.05 428.55 109.63 434.21 111.69 440.23 C 112.28 442.17 114.38 441.73 115.99 442.15 C 118.80 442.60 122.35 442.39 124.57 444.39 C 128.04 447.32 128.57 451.72 128.72 455.98 C 128.69 461.96 129.46 467.29 125.91 472.50 C 122.64 464.53 126.48 456.87 124.99 449.20 C 123.77 445.16 120.44 446.39 117.16 446.36 C 114.86 446.67 111.78 446.99 111.89 450.02 C 112.78 457.77 111.95 465.25 111.45 472.97 C 110.04 473.09 108.87 473.50 107.54 472.80 C 107.04 464.59 107.66 456.22 107.94 448.00 C 108.84 441.23 107.49 434.74 107.48 428.00 C 107.40 426.08 108.14 424.46 108.82 422.71 Z" fill="#ffffff"/>
	<path d="M 92.85 425.29 C 94.98 425.20 94.35 428.40 94.46 429.74 C 90.82 429.86 85.99 428.83 82.71 430.63 C 79.82 432.56 80.91 435.06 81.02 437.97 C 81.89 445.47 80.56 452.51 80.62 460.01 C 80.36 465.10 80.90 470.09 78.01 474.52 C 76.66 466.58 77.71 458.05 77.64 450.00 C 77.55 442.81 78.07 435.40 77.09 428.31 C 73.21 428.60 69.33 428.97 65.45 429.25 C 65.38 428.05 65.32 426.84 65.25 425.63 C 74.42 425.15 83.67 425.22 92.85 425.29 Z" fill="#ffffff"/>
	<path d="M 637.37 430.37 C 642.85 429.28 645.87 433.31 651.02 433.48 C 652.77 433.57 654.54 433.52 656.30 433.50 C 657.04 435.20 658.29 437.02 658.43 438.89 C 658.11 441.00 657.09 443.14 655.52 444.61 C 652.20 445.00 648.51 443.64 645.26 442.94 C 645.28 448.98 645.48 455.02 645.45 461.05 C 645.40 465.04 644.48 468.92 641.51 471.76 C 639.80 473.36 636.78 472.68 636.52 470.08 C 635.72 461.14 637.04 451.90 637.25 442.97 C 637.33 439.22 635.06 433.63 637.37 430.37 Z"/>
	<path d="M 589.33 431.45 C 591.08 431.66 592.75 432.12 594.48 432.39 C 597.24 432.84 600.67 430.65 603.32 431.61 C 606.54 433.63 607.82 438.41 608.18 441.96 C 608.51 446.86 608.54 451.91 607.64 456.75 C 606.89 461.04 605.00 465.80 601.42 468.48 C 599.25 469.10 596.68 468.64 594.44 468.53 C 594.52 474.04 594.64 479.59 594.37 485.09 C 594.15 488.09 591.80 490.22 589.99 492.39 C 588.54 491.05 586.52 489.75 585.87 487.82 C 585.34 485.99 585.35 483.93 585.39 482.03 C 585.99 468.58 588.06 455.49 587.76 442.01 C 587.82 438.54 587.32 434.47 589.33 431.45 Z"/>
	<path d="M 616.02 431.04 C 619.54 431.26 619.92 434.05 620.33 436.93 C 620.77 443.59 619.99 450.31 620.27 456.99 C 620.24 458.55 621.06 459.57 621.88 460.80 C 624.00 449.97 620.21 440.26 626.97 430.52 C 628.80 432.08 630.76 433.04 631.38 435.55 C 633.69 443.36 631.42 452.98 630.35 460.93 C 629.53 464.76 627.63 470.25 623.36 471.29 C 620.67 472.01 617.24 473.04 614.76 471.28 C 612.29 469.63 611.42 466.95 611.41 464.08 C 611.18 455.35 611.92 446.65 611.61 437.92 C 611.43 435.10 612.93 431.48 616.02 431.04 Z"/>
	<path d="M 516.01 431.66 C 518.59 431.54 521.27 432.74 523.81 433.24 C 527.39 434.19 530.87 432.81 534.52 433.40 C 536.43 434.33 535.75 436.63 535.30 438.26 C 534.28 440.57 532.42 442.95 530.43 444.51 C 527.96 444.67 525.34 442.90 523.08 442.03 C 523.09 448.80 524.57 455.39 524.70 462.13 C 524.77 466.26 523.47 470.93 519.89 473.37 C 517.90 472.83 515.92 472.02 515.67 469.69 C 515.25 461.90 516.05 453.81 514.96 446.05 C 514.48 442.13 512.36 438.88 511.40 435.15 C 511.67 433.31 514.34 431.96 516.01 431.66 Z"/>
	<path d="M 577.10 432.41 C 579.56 432.20 581.63 434.27 582.91 436.13 C 584.92 438.79 582.63 442.75 579.89 443.69 C 577.83 443.45 575.81 442.59 573.83 442.00 C 574.07 443.16 574.30 444.31 574.54 445.46 C 577.10 446.99 580.50 448.33 582.33 450.73 C 584.48 454.46 584.03 459.75 582.74 463.70 C 581.29 468.17 577.17 470.92 572.90 472.31 C 565.67 474.14 558.72 463.17 564.14 457.61 C 567.02 457.20 569.53 460.68 572.10 461.79 C 575.41 461.31 575.52 459.47 576.02 456.65 C 573.25 455.29 569.34 454.13 567.45 451.58 C 564.39 446.91 565.40 440.86 568.53 436.51 C 570.46 433.94 573.98 432.60 577.10 432.41 Z"/>
	<path d="M 498.15 432.84 C 500.84 431.95 503.72 433.64 505.69 435.36 C 507.94 437.37 508.42 440.17 508.80 443.02 C 510.27 452.77 506.25 461.10 509.83 470.81 C 507.75 471.82 505.54 473.30 503.23 473.64 C 501.73 472.97 500.35 471.93 498.98 471.02 C 496.65 471.81 494.12 474.28 491.80 472.27 C 488.76 469.83 487.76 465.66 487.48 461.95 C 487.26 457.57 486.64 453.24 489.47 449.50 C 492.08 445.73 496.45 446.32 499.36 442.94 C 494.77 444.04 491.35 446.87 486.45 446.85 C 486.35 444.67 485.54 441.86 486.88 439.95 C 489.31 435.78 493.76 434.13 498.15 432.84 Z"/>
	<path d="M 245.92 434.84 C 250.92 435.63 255.83 435.28 260.84 435.24 C 262.59 435.12 263.15 437.00 263.54 438.34 C 263.98 441.16 263.91 444.74 262.04 447.07 C 260.36 450.18 254.99 448.00 252.17 448.03 C 251.53 454.37 251.78 460.69 251.73 467.05 C 251.71 470.03 251.18 472.75 248.81 474.77 C 246.89 476.55 244.63 475.89 242.27 475.85 C 240.46 466.50 242.12 456.47 241.84 447.01 C 241.78 443.95 239.40 441.24 239.29 438.29 C 240.24 435.53 243.13 434.26 245.92 434.84 Z"/>
	<path d="M 515.50 434.73 C 518.36 435.46 521.14 436.65 524.04 437.14 C 527.04 437.02 529.93 436.13 532.98 436.18 C 534.09 438.27 532.81 439.22 531.56 440.75 C 528.71 441.11 525.92 438.70 523.52 437.42 C 522.30 439.20 520.55 440.85 520.57 443.15 C 520.10 449.99 522.32 457.34 522.34 464.04 C 522.31 466.20 521.73 468.24 520.02 469.68 C 517.20 468.07 517.83 464.78 517.80 462.04 C 518.64 452.82 517.64 443.70 515.50 434.73 Z" fill="#ffffff"/>
	<path d="M 601.60 435.39 C 604.16 437.18 605.43 440.04 605.56 443.10 C 605.78 447.80 605.87 452.61 605.26 457.29 C 604.82 460.31 603.14 464.38 599.98 465.42 C 597.83 464.83 595.79 463.78 593.73 462.93 C 590.75 470.81 591.71 478.41 591.47 486.78 C 590.68 486.69 589.89 486.60 589.10 486.52 C 588.02 480.67 588.47 474.48 588.77 468.49 C 589.68 457.80 591.02 447.26 590.52 436.49 C 594.39 436.88 597.84 435.84 601.60 435.39 Z" fill="#ffffff"/>
	<path d="M 640.39 434.68 C 641.78 435.38 643.16 436.10 644.54 436.82 C 643.10 439.77 641.62 442.54 641.54 445.93 C 641.45 451.94 641.91 458.00 641.61 464.01 C 641.58 465.71 640.74 466.95 640.02 468.42 C 638.28 457.40 641.10 446.08 640.39 434.68 Z" fill="#ffffff"/>
	<path d="M 578.36 436.69 C 579.39 437.78 580.19 439.13 581.01 440.38 C 578.74 439.34 576.63 438.13 574.56 436.75 C 575.81 436.69 577.11 436.58 578.36 436.69 Z" fill="#ffffff"/>
	<path d="M 615.10 436.18 L 616.92 436.28 C 618.74 444.65 615.43 453.55 617.19 461.72 C 617.81 464.74 621.45 465.98 623.14 463.11 C 627.93 456.24 625.24 444.64 627.33 436.74 C 629.97 444.69 628.05 454.49 626.23 462.49 C 625.66 466.89 620.74 467.48 617.15 467.24 C 613.57 465.45 614.64 461.28 614.40 458.01 C 614.59 450.77 614.27 443.37 615.10 436.18 Z" fill="#ffffff"/>
	<path d="M 214.54 437.59 C 218.05 436.35 222.27 436.76 225.91 437.20 C 229.54 437.65 231.36 440.83 232.00 444.13 C 233.35 451.12 230.83 458.75 231.34 465.97 C 231.36 468.72 232.93 470.72 234.13 473.10 C 232.33 474.21 230.54 475.50 228.58 476.32 C 225.95 476.71 223.06 474.92 220.36 475.45 C 217.81 475.85 214.91 476.96 212.34 476.64 C 210.61 475.94 209.15 474.46 207.96 473.06 C 205.99 470.76 206.15 467.26 206.53 464.45 C 207.23 459.92 209.49 455.00 213.68 452.74 C 216.48 451.94 219.70 452.36 222.59 452.24 C 222.10 450.62 222.32 447.58 220.84 446.58 C 216.59 445.28 212.75 449.85 208.98 451.32 C 206.61 450.88 206.08 450.33 205.66 447.95 C 207.30 443.80 210.45 439.58 214.54 437.59 Z"/>
	<path d="M 435.21 437.77 C 437.73 439.30 439.99 441.98 440.47 444.94 C 440.34 447.31 439.15 449.82 437.57 451.58 C 435.25 454.73 430.02 453.42 426.60 453.78 C 426.44 458.00 426.41 462.08 427.73 466.14 C 429.53 463.80 431.05 461.18 433.03 458.99 C 434.32 457.56 435.52 457.19 437.41 457.58 C 439.91 459.10 440.33 462.12 440.40 464.80 C 441.01 467.95 437.85 469.99 435.91 471.94 C 432.20 475.08 427.70 474.79 423.27 473.65 C 421.05 473.04 419.52 471.45 418.65 469.37 C 415.73 462.33 416.23 454.91 417.66 447.59 C 418.60 443.26 421.52 439.02 425.93 437.76 C 429.11 436.89 432.14 436.09 435.21 437.77 Z"/>
	<path d="M 499.81 436.84 C 502.05 437.69 504.96 438.78 505.47 441.44 C 507.74 451.05 505.23 459.70 505.02 470.03 C 503.33 469.10 501.68 468.13 500.01 467.16 C 498.12 467.79 496.12 468.65 494.12 468.83 C 490.90 467.45 490.48 463.03 490.33 459.99 C 490.29 457.26 489.76 453.08 492.04 451.08 C 494.61 448.72 499.10 448.72 502.14 447.09 C 503.79 443.62 501.89 440.08 498.02 439.61 C 494.85 440.39 491.97 442.23 488.87 443.29 C 490.55 438.41 494.98 436.71 499.81 436.84 Z" fill="#ffffff"/>
	<path d="M 573.48 436.43 C 572.36 440.01 570.05 444.17 572.02 447.86 C 574.11 449.85 577.19 450.78 579.34 452.68 C 581.39 455.72 581.89 459.99 580.32 463.35 C 578.81 466.36 575.24 468.25 571.98 468.56 C 568.98 468.52 566.87 465.39 565.20 463.28 C 567.78 464.10 571.21 466.62 573.87 464.99 C 577.17 463.24 580.00 458.97 579.30 455.16 C 577.68 452.54 573.91 451.28 571.44 449.51 C 568.42 447.64 567.98 443.39 569.28 440.34 C 569.82 438.55 572.06 437.48 573.48 436.43 Z" fill="#ffffff"/>
	<path d="M 646.62 437.65 C 648.28 437.59 650.00 437.44 651.65 437.67 C 653.11 438.24 654.31 439.62 655.47 440.64 C 652.36 440.08 649.36 439.28 646.62 437.65 Z" fill="#ffffff"/>
	<path d="M 601.34 438.58 C 602.81 440.19 603.21 442.83 603.39 444.93 C 603.52 451.60 604.01 457.71 599.80 463.34 C 597.36 461.83 593.23 460.37 593.38 456.90 C 593.33 450.98 592.93 444.74 593.81 438.88 C 596.24 437.47 598.90 436.70 601.34 438.58 Z"/>
	<path d="M 153.35 440.61 C 156.82 442.45 158.74 446.38 159.43 450.10 C 159.62 452.35 157.85 454.89 155.95 456.01 C 152.69 457.73 148.24 457.46 144.64 457.64 C 144.46 459.88 144.16 462.27 144.42 464.51 C 145.65 466.08 148.24 466.09 149.56 464.61 C 151.77 462.56 153.92 460.49 156.48 458.85 C 157.70 461.30 160.14 463.94 158.94 466.83 C 157.84 470.99 154.41 473.96 150.48 475.37 C 146.42 476.26 141.83 475.81 138.16 473.80 C 135.85 472.57 134.99 469.09 134.42 466.74 C 133.06 461.22 134.02 455.87 135.66 450.54 C 137.26 445.90 140.52 441.98 145.11 440.08 C 147.66 438.77 150.87 439.48 153.35 440.61 Z"/>
	<path d="M 225.49 440.55 C 229.03 441.55 229.16 445.93 229.37 448.93 C 229.35 457.02 227.83 464.86 228.76 472.99 C 225.72 472.57 222.92 471.93 219.88 472.82 C 217.20 473.34 213.95 474.49 211.74 472.22 C 206.96 467.89 208.72 459.95 212.92 455.90 C 215.60 454.15 221.19 456.92 223.60 453.66 C 226.51 450.71 225.36 442.70 220.11 443.39 C 216.20 443.61 212.51 446.91 208.89 448.35 C 209.42 446.10 209.62 444.07 211.50 442.50 C 215.30 438.85 220.78 439.42 225.49 440.55 Z" fill="#ffffff"/>
	<path d="M 245.32 440.17 C 249.92 439.16 255.17 440.00 259.84 440.31 C 259.80 441.89 259.76 443.46 259.71 445.04 C 256.14 443.92 252.61 442.72 248.93 442.00 C 247.23 451.62 248.96 462.05 248.13 471.76 C 247.14 471.81 246.14 471.86 245.14 471.91 C 245.25 469.17 245.37 466.43 245.53 463.69 C 245.96 455.89 244.75 447.96 245.32 440.17 Z" fill="#ffffff"/>
	<path d="M 431.09 440.56 C 428.79 442.52 426.39 444.34 424.08 446.29 C 426.14 448.27 428.30 449.05 431.00 449.74 C 428.39 450.21 424.86 450.19 422.86 452.13 C 422.64 456.78 422.65 461.79 423.74 466.34 C 424.08 468.73 427.71 467.83 429.29 467.36 C 432.00 465.68 433.86 462.58 436.14 460.36 C 436.88 464.06 436.87 468.14 433.34 470.38 C 430.53 471.12 426.72 471.17 424.04 469.95 C 420.85 467.92 420.29 462.42 420.20 458.99 C 420.34 454.07 420.35 447.53 423.42 443.45 C 425.02 441.01 428.51 441.08 431.09 440.56 Z" fill="#ffffff"/>
	<path d="M 434.16 441.65 C 435.62 443.72 437.33 445.46 436.28 448.18 C 435.75 450.14 433.81 450.36 432.22 451.20 C 432.85 448.01 433.59 444.85 434.16 441.65 Z" fill="#ffffff"/>
	<path d="M 596.38 441.92 C 597.70 442.17 599.01 442.43 600.31 442.72 C 600.88 447.97 600.49 453.00 599.29 458.13 C 598.33 457.51 597.36 456.90 596.40 456.28 C 596.51 451.48 596.52 446.71 596.38 441.92 Z" fill="#ffffff"/>
	<path d="M 150.07 443.48 C 147.74 445.92 145.50 448.32 143.88 451.30 C 145.91 451.96 147.94 452.59 149.95 453.28 C 147.32 453.73 144.68 454.06 142.03 454.39 C 141.01 457.97 139.74 461.77 140.47 465.52 C 140.96 467.63 143.14 468.71 145.16 468.81 C 149.26 469.57 152.32 465.89 156.04 464.35 C 155.44 467.03 155.58 469.40 152.79 470.77 C 148.20 473.59 139.08 472.42 137.78 466.31 C 136.22 459.46 138.27 452.75 142.04 447.02 C 143.83 444.39 147.26 444.20 150.07 443.48 Z" fill="#ffffff"/>
	<path d="M 151.80 444.33 C 154.61 447.01 155.50 448.54 155.93 452.45 C 154.50 453.01 153.07 453.56 151.65 454.12 C 152.98 450.68 152.51 447.83 151.80 444.33 Z" fill="#ffffff"/>
	<path d="M 502.77 450.06 C 502.36 454.33 503.45 459.73 501.49 463.61 C 499.03 464.46 496.36 464.79 493.81 465.31 C 492.80 461.20 491.21 456.81 493.95 452.98 C 495.97 450.88 500.05 450.85 502.77 450.06 Z"/>
	<path d="M 495.19 455.15 C 496.88 454.77 498.55 454.63 500.27 454.45 C 500.28 455.92 500.22 457.39 500.11 458.85 C 499.13 460.12 497.87 461.20 496.72 462.30 C 495.50 459.92 494.77 457.87 495.19 455.15 Z" fill="#ffffff"/>
	<path d="M 218.03 457.74 C 219.59 457.82 221.59 458.14 222.77 459.23 C 222.94 461.97 222.86 464.82 222.40 467.52 C 220.03 469.85 215.21 469.43 212.09 469.80 C 211.60 467.75 210.36 465.56 211.46 463.52 C 212.57 460.85 214.94 457.97 218.03 457.74 Z"/>
	<path d="M 220.90 460.97 C 220.33 463.44 220.97 466.32 217.71 466.87 C 215.25 468.19 211.66 466.20 213.24 463.39 C 214.58 459.74 217.89 460.83 220.90 460.97 Z" fill="#ffffff"/>
	<path d="M 654.03 460.18 C 655.17 461.11 656.28 462.08 657.23 463.21 C 658.06 466.81 657.22 470.54 653.94 472.59 C 652.05 472.55 650.74 471.92 649.50 470.50 C 649.21 468.30 649.23 465.93 649.84 463.78 C 650.48 462.14 652.66 461.15 654.03 460.18 Z"/>
	<path d="M 303.55 464.35 C 303.57 466.99 303.78 469.78 303.28 472.38 C 301.79 475.27 299.05 474.33 296.36 474.67 C 295.68 471.32 294.92 467.28 297.94 464.80 C 299.53 463.40 301.66 464.26 303.55 464.35 Z"/>
	<path d="M 652.63 465.12 C 653.51 465.84 654.35 466.62 655.19 467.39 C 654.17 467.47 653.15 467.54 652.13 467.60 C 652.29 466.77 652.45 465.94 652.63 465.12 Z" fill="#ffffff"/>
	<path d="M 298.90 467.98 C 300.67 466.77 301.82 469.59 299.74 469.99 C 298.60 469.68 298.32 469.01 298.90 467.98 Z" fill="#ffffff"/>
</svg>
