<?xml version="1.0" standalone="no"?>
<!DOCTYPE svg PUBLIC "-//W3C//DTD SVG 20010904//EN"
 "http://www.w3.org/TR/2001/REC-SVG-20010904/DTD/svg10.dtd">
<svg version="1.0" xmlns="http://www.w3.org/2000/svg"
 width="1000.000000pt" height="282.000000pt" viewBox="0 0 1000.000000 282.000000"
 preserveAspectRatio="xMidYMid meet">
<metadata>
Created by potrace 1.16, written by Peter Selinger 2001-2019
</metadata>
<g transform="translate(0.000000,282.000000) scale(0.100000,-0.100000)"
fill="#000000" stroke="none">
<path d="M6949 2721 c-24 -16 -72 -55 -107 -87 -56 -50 -66 -55 -85 -46 -34
17 -101 18 -126 3 -22 -14 3 -39 48 -46 39 -7 84 -23 171 -63 62 -29 288 -170
322 -202 42 -39 64 -14 33 40 -40 70 -45 102 -23 144 8 15 18 17 56 12 l47 -5
-45 14 -45 13 40 1 c22 1 46 5 53 9 7 5 -14 6 -47 4 l-59 -4 10 47 c14 64 4
105 -34 144 -60 62 -137 69 -209 22z m105 3 c9 -3 14 -10 11 -14 -3 -5 -1 -11
5 -15 15 -9 12 -22 -4 -22 -8 0 -12 6 -8 15 4 11 1 13 -8 7 -10 -6 -12 -4 -7
9 6 15 2 17 -26 12 -24 -5 -27 -4 -12 3 25 12 30 12 49 5z m72 -40 c-3 -8 0
-11 10 -7 16 6 19 -13 3 -23 -6 -3 -15 0 -20 7 -12 20 -11 52 2 44 6 -4 8 -13
5 -21z m-107 -20 c4 3 8 -8 8 -24 0 -17 -4 -30 -9 -30 -5 0 -6 5 -3 10 3 6 -1
10 -10 10 -10 0 -14 5 -9 13 5 9 4 9 -5 1 -13 -12 -51 -7 -51 7 0 4 5 11 12
15 7 4 8 3 4 -4 -11 -18 20 -14 35 4 8 10 15 12 17 5 2 -6 7 -9 11 -7z m-99
-24 c0 -5 17 -12 37 -16 21 -4 51 -20 68 -36 16 -15 45 -32 64 -38 43 -12 71
-37 71 -64 0 -39 -12 -67 -26 -62 -8 3 -11 0 -7 -11 5 -13 2 -13 -26 1 -17 9
-31 21 -31 26 0 6 -8 10 -17 10 -9 0 -28 10 -42 23 -15 13 -46 31 -71 41 -25
10 -58 24 -74 32 -24 12 -31 12 -37 2 -5 -7 -9 -11 -10 -8 0 3 -2 15 -5 27 -2
15 7 30 32 52 33 30 74 41 74 21z m170 0 c0 -5 -5 -10 -11 -10 -5 0 -7 5 -4
10 3 6 8 10 11 10 2 0 4 -4 4 -10z m90 -32 c0 -5 -4 -8 -10 -8 -5 0 -10 10
-10 23 0 18 2 19 10 7 5 -8 10 -18 10 -22z m-52 3 c-7 -11 -16 -18 -20 -15 -4
3 -2 11 5 19 18 21 29 18 15 -4z m-38 -36 c0 -9 -6 -12 -15 -9 -8 4 -15 10
-15 15 0 5 7 9 15 9 8 0 15 -7 15 -15z m70 -35 c0 -5 -2 -10 -4 -10 -3 0 -8 5
-11 10 -3 6 -1 10 4 10 6 0 11 -4 11 -10z"/>
<path d="M7028 2483 c7 -3 16 -2 19 1 4 3 -2 6 -13 5 -11 0 -14 -3 -6 -6z"/>
<path d="M7060 2475 c0 -1 11 -10 25 -19 19 -13 23 -13 19 -2 -4 12 -44 31
-44 21z"/>
<path d="M7355 2523 c27 -3 53 -10 57 -17 4 -8 29 -17 55 -20 57 -8 181 -65
182 -84 1 -15 33 -12 37 3 3 9 -61 45 -80 45 -4 0 -19 9 -33 20 -14 11 -49 22
-84 26 -32 4 -64 13 -70 20 -7 9 -30 13 -63 12 l-51 -2 50 -3z"/>
<path d="M7290 2467 c0 -2 14 -16 32 -33 l32 -29 -25 32 c-20 27 -39 41 -39
30z"/>
<path d="M7190 2450 c0 -5 12 -17 26 -27 14 -10 53 -42 86 -70 33 -29 69 -53
79 -53 10 0 21 -5 24 -11 4 -5 18 -15 32 -20 14 -5 23 -13 19 -17 -4 -4 -344
-7 -756 -8 -785 0 -788 -1 -776 -43 3 -9 8 -146 11 -306 4 -159 8 -292 11
-296 2 -4 8 -40 14 -80 15 -112 91 -351 143 -453 30 -59 95 -150 166 -231 51
-59 173 -165 190 -165 8 0 41 -20 72 -45 115 -90 323 -163 434 -152 59 6 300
109 330 141 29 30 94 78 138 100 21 11 53 38 70 60 18 23 46 53 63 68 17 15
39 49 49 75 10 27 39 93 65 148 45 95 116 300 111 319 -1 5 5 36 13 70 16 65
23 120 31 256 3 47 8 99 11 115 12 62 15 334 4 374 l-11 40 -112 -1 c-62 -1
-120 0 -129 2 -21 4 -23 16 -5 24 6 3 -4 3 -23 -1 -19 -3 -44 -6 -55 -5 -34 2
-163 74 -209 116 -49 46 -116 90 -116 76z m-535 -250 c61 0 310 1 555 1 456 1
576 -3 595 -22 13 -13 17 -288 4 -334 -5 -18 -11 -57 -13 -85 -2 -28 -6 -53
-9 -56 -12 -13 -317 -19 -437 -10 -91 7 -230 8 -327 1 -55 -4 -83 -2 -83 5 0
5 5 10 11 10 6 0 9 18 8 47 -2 29 1 48 8 50 8 3 13 -13 15 -44 2 -35 7 -48 18
-48 12 0 14 10 12 48 -4 44 -2 47 20 47 44 1 107 39 167 102 75 78 78 94 11
66 -52 -22 -116 -19 -126 5 -2 7 2 31 10 54 8 23 12 44 9 46 -3 3 -29 -6 -58
-20 l-52 -26 -39 29 c-22 15 -48 38 -59 50 -13 14 -37 24 -65 28 -52 7 -84
-13 -101 -63 -7 -21 -23 -36 -47 -47 -76 -34 -102 -49 -102 -61 0 -7 3 -13 8
-13 7 0 129 25 172 35 23 6 26 3 37 -45 15 -64 47 -108 89 -126 19 -8 35 -22
35 -32 1 -9 3 -29 5 -44 2 -24 -1 -28 -22 -28 -15 0 -24 -6 -24 -15 0 -12 -18
-15 -97 -17 -190 -4 -780 5 -786 12 -11 12 -28 482 -19 503 2 5 131 6 285 3
155 -3 332 -6 392 -6z m163 -107 c-2 -10 -13 -19 -26 -21 -24 -4 -29 7 -10 26
18 18 40 15 36 -5z m22 -53 c0 -5 -5 -10 -11 -10 -5 0 -7 5 -4 10 3 6 8 10 11
10 2 0 4 -4 4 -10z m684 -375 c174 -2 250 -6 255 -14 10 -15 -17 -218 -33
-251 -13 -29 -5 -28 -291 -34 -110 -3 -200 -6 -200 -7 0 -2 -91 -4 -781 -14
l-420 -7 -17 59 c-20 67 -37 172 -37 225 0 36 1 37 46 44 25 3 87 4 138 0 174
-13 1021 -4 1035 10 3 3 17 2 31 -1 14 -4 137 -8 274 -10z m198 -381 c-2 -27
-13 -71 -26 -99 -13 -27 -26 -62 -30 -77 -6 -27 -44 -94 -102 -183 -60 -91
-243 -256 -329 -297 -28 -12 -52 -26 -55 -29 -3 -4 -49 -28 -103 -54 -94 -46
-98 -47 -150 -37 -181 34 -372 129 -481 237 -17 17 -47 41 -67 53 -66 40 -172
162 -211 242 -49 98 -74 158 -82 195 -4 17 -9 37 -12 46 -4 14 36 16 383 22
738 13 1235 26 1242 33 15 14 26 -9 23 -52z"/>
<path d="M7161 1176 c-25 -24 -65 -61 -89 -81 -23 -21 -41 -39 -39 -41 2 -2
29 3 61 11 31 8 61 15 65 15 5 0 13 -25 19 -56 13 -63 41 -108 85 -135 17 -10
32 -24 33 -32 1 -8 5 -29 9 -46 5 -25 3 -32 -12 -37 -42 -14 -47 -17 -38 -20
6 -2 35 2 65 9 48 11 55 16 56 37 2 77 3 80 27 78 37 -3 81 36 137 123 59 92
57 110 -8 91 -22 -7 -51 -12 -64 -12 -21 0 -25 4 -20 25 5 31 -1 31 -40 3 -28
-20 -33 -20 -57 -7 -16 9 -30 29 -36 53 -23 80 -83 89 -154 22z m64 -16 c-16
-7 -17 -9 -3 -9 21 -1 33 -20 20 -33 -6 -6 -15 -4 -26 7 -23 24 -20 45 7 44
21 0 21 -1 2 -9z m45 -242 c0 -12 -28 3 -34 18 -4 11 -2 12 14 1 11 -6 20 -15
20 -19z m80 -83 c0 -25 -4 -45 -10 -45 -5 0 -10 13 -10 29 0 16 -3 36 -6 45
-4 11 -1 16 10 16 12 0 16 -10 16 -45z"/>
<path d="M6572 1193 c-31 -6 -92 -66 -92 -92 0 -15 -15 -28 -59 -51 -60 -30
-83 -50 -59 -50 7 0 53 10 101 22 l88 23 19 -25 c11 -14 20 -30 20 -36 0 -30
53 -103 83 -115 41 -17 47 -26 42 -68 -4 -36 10 -75 25 -66 5 3 7 28 4 56 -2
28 -1 56 3 62 5 7 10 -15 13 -47 7 -83 28 -86 32 -5 3 63 3 63 37 70 41 9 103
72 144 148 31 57 26 62 -36 36 -52 -22 -107 -20 -107 3 0 10 5 23 12 30 20 20
-1 26 -22 7 -43 -39 -112 -14 -123 44 -5 24 -15 32 -53 45 -26 9 -48 15 -48
15 -1 -1 -11 -4 -24 -6z m21 -72 c6 -24 0 -31 -25 -31 -21 0 -25 35 -5 43 21
9 25 8 30 -12z m116 -122 c-22 -14 -33 -10 -19 6 7 8 17 12 22 9 6 -4 5 -10
-3 -15z m77 -94 c-11 -8 -27 -15 -35 -15 -10 0 -7 6 9 14 33 19 50 19 26 1z
m-116 -5 c0 -5 -2 -10 -4 -10 -3 0 -8 5 -11 10 -3 6 -1 10 4 10 6 0 11 -4 11
-10z"/>
<path d="M7248 793 c6 -2 18 -2 25 0 6 3 1 5 -13 5 -14 0 -19 -2 -12 -5z"/>
<path d="M6668 763 c-10 -2 -18 -9 -18 -15 0 -5 7 -7 16 -4 9 3 20 6 25 6 5 0
9 5 9 10 0 10 -3 11 -32 3z"/>
<path d="M7404 2386 c11 -9 36 -16 57 -16 36 0 102 -19 146 -41 24 -13 37 -46
19 -53 -6 -2 -3 -5 6 -5 47 -2 10 60 -47 80 -47 17 -44 27 8 32 23 2 -5 4 -63
3 -58 0 -114 3 -125 8 -20 8 -20 7 -1 -8z"/>
<path d="M2450 2233 c-170 -3 -190 -7 -190 -33 0 -10 -5 -22 -10 -25 -6 -4 -8
-29 -5 -58 3 -29 7 -158 10 -287 10 -482 59 -669 243 -909 60 -79 89 -109 154
-157 35 -26 68 -53 73 -60 19 -21 158 -90 210 -104 61 -15 134 -39 157 -50 31
-17 148 -33 161 -22 6 5 23 13 37 17 38 12 216 112 295 166 93 65 222 178 246
218 11 18 28 42 39 53 10 11 22 34 26 51 3 16 14 44 24 61 34 59 95 311 121
496 6 47 13 101 16 120 2 19 7 139 9 266 4 202 3 233 -11 244 -12 10 -43 12
-113 10 -138 -6 -553 -5 -707 1 -110 4 -132 3 -143 -10 -11 -14 -11 -14 -6 2
7 19 -20 25 -31 7 -4 -6 -31 -8 -68 -5 -78 7 -347 11 -537 8z m385 -42 c88 0
187 -1 220 -3 77 -3 375 -3 682 0 133 2 254 0 269 -4 l27 -7 -7 -176 c-9 -245
-15 -319 -37 -451 -22 -133 -75 -352 -94 -395 -8 -16 -24 -56 -36 -88 -20 -56
-58 -107 -154 -207 -51 -53 -50 -52 -151 -125 -44 -31 -128 -82 -189 -112
-122 -61 -133 -62 -265 -22 -36 11 -96 29 -135 41 -128 37 -230 102 -370 236
-50 47 -115 132 -115 150 0 5 -7 16 -16 23 -34 28 -103 209 -118 310 -3 19
-14 82 -25 140 -16 89 -19 152 -19 401 l0 295 186 -3 c103 -2 259 -3 347 -3z"/>
<path d="M3709 2082 c-32 -35 -278 -264 -374 -348 -55 -48 -104 -93 -110 -99
-5 -7 -46 -43 -90 -81 -44 -37 -82 -71 -85 -75 -8 -11 -295 -254 -370 -314
-39 -31 -70 -61 -70 -68 1 -7 27 -39 60 -71 32 -32 66 -74 75 -92 21 -45 47
-44 82 6 15 22 33 40 39 40 5 0 29 18 51 41 23 22 55 48 72 57 16 10 50 36 75
60 25 23 48 42 51 42 8 0 252 247 292 295 14 17 73 80 131 140 59 61 125 130
147 155 22 25 69 71 104 102 l63 57 -31 39 c-17 22 -31 43 -31 47 0 9 -54 85
-60 84 -3 0 -12 -8 -21 -17z m35 -55 c7 -7 21 -29 31 -50 15 -32 15 -40 4 -54
-8 -10 -23 -29 -34 -42 -38 -47 -160 -174 -430 -446 -197 -199 -304 -298 -397
-369 -145 -110 -142 -109 -203 -29 -33 43 -46 83 -27 83 5 0 26 17 48 38 22
20 66 60 99 87 33 28 73 62 89 78 16 15 32 27 36 27 4 0 35 28 69 61 34 34 81
77 104 96 23 19 83 74 132 122 50 48 97 92 106 97 17 9 145 125 273 246 39 37
75 68 79 68 5 0 14 -6 21 -13z"/>
<path d="M2667 2033 c-4 -3 -7 -15 -7 -25 0 -13 -8 -18 -29 -18 -21 0 -32 -6
-36 -21 -9 -28 2 -69 20 -69 23 0 29 -22 10 -37 -26 -18 -42 -16 -48 7 -4 15
-14 20 -41 20 -29 0 -37 -4 -42 -24 -3 -15 -14 -26 -27 -28 -26 -4 -43 -45
-33 -82 5 -19 13 -26 31 -26 22 0 25 -4 25 -35 0 -33 2 -35 34 -35 23 0 38 7
47 20 8 12 27 22 44 23 24 2 31 -2 33 -20 2 -16 -3 -22 -20 -25 -15 -2 -24
-11 -26 -27 -5 -35 7 -71 23 -71 9 0 15 -10 15 -24 0 -29 12 -38 53 -43 36 -4
57 12 57 43 0 14 6 24 14 24 50 0 53 75 4 92 -25 9 -29 15 -26 42 3 27 7 31
33 31 25 0 30 -4 33 -27 2 -18 9 -28 20 -28 9 0 27 -3 40 -6 20 -6 22 -3 22
30 0 29 5 38 24 45 19 8 24 19 29 58 6 57 3 63 -28 63 -17 0 -25 6 -27 22 -4
27 -52 43 -68 23 -6 -7 -10 -17 -9 -21 4 -24 -3 -34 -25 -34 -48 0 -61 55 -14
62 19 2 23 9 23 38 0 31 -3 35 -27 38 -19 2 -28 9 -28 21 0 23 -56 41 -73 24z
m53 -38 c6 -15 17 -25 29 -25 42 0 30 -43 -14 -52 -16 -3 -20 -11 -20 -48 l0
-45 50 4 c61 4 65 6 65 37 0 33 19 30 31 -6 7 -19 18 -30 30 -30 15 0 19 -7
19 -34 0 -28 -4 -35 -22 -38 -17 -2 -24 -12 -28 -33 -6 -35 -24 -40 -28 -8 -4
26 -24 34 -71 28 -43 -5 -43 -5 -49 -64 l-4 -50 33 -3 c26 -2 34 -8 34 -23 0
-13 -8 -21 -23 -23 -16 -3 -25 -12 -29 -33 -3 -16 -9 -32 -13 -34 -17 -10 -41
9 -47 36 -3 15 -11 30 -19 33 -8 3 -14 17 -14 31 0 18 5 25 19 25 27 0 31 9
22 50 -7 35 -7 35 -60 35 -46 1 -55 -2 -64 -22 -6 -13 -14 -23 -19 -23 -12 0
-27 42 -21 58 4 8 -5 12 -26 12 -28 0 -31 3 -31 30 0 29 30 57 49 45 5 -3 11
5 13 17 4 32 48 39 48 7 0 -20 4 -21 41 -16 22 3 42 7 44 9 2 2 5 21 7 42 2
31 -1 39 -15 42 -25 4 -31 10 -24 29 4 8 16 15 27 15 13 0 24 10 30 25 5 14
16 25 25 25 9 0 20 -11 25 -25z"/>
<path d="M3538 1439 c-10 -5 -18 -17 -18 -24 0 -8 -9 -15 -20 -15 -17 0 -20
-7 -20 -46 0 -37 4 -47 20 -51 14 -4 20 -14 20 -35 0 -28 -2 -29 -37 -26 -26
2 -38 8 -38 18 0 10 -12 16 -37 18 -31 3 -37 0 -40 -20 -2 -14 -12 -24 -27
-28 -26 -6 -36 -27 -36 -75 0 -27 3 -30 28 -27 24 2 27 -1 27 -27 0 -16 4 -32
8 -35 17 -10 80 17 85 36 8 28 51 20 55 -9 2 -16 -3 -22 -20 -25 -19 -2 -23
-9 -23 -38 0 -29 4 -36 23 -38 17 -3 22 -10 22 -32 0 -25 4 -28 38 -32 48 -6
72 9 72 45 0 26 3 28 24 23 29 -7 49 14 44 46 -2 17 -11 24 -31 26 -22 3 -28
8 -25 25 4 26 38 37 38 12 0 -26 72 -16 85 12 5 12 20 24 32 28 19 4 23 12 23
46 0 32 -4 42 -20 46 -13 3 -20 14 -20 29 0 22 -4 24 -46 24 -37 0 -47 -4 -51
-20 -6 -24 -38 -27 -47 -4 -10 26 -7 33 20 47 20 10 27 23 30 51 3 34 1 37
-26 43 -21 4 -30 11 -30 24 0 15 -7 19 -32 19 -18 0 -41 -5 -50 -11z m54 -27
c7 -11 23 -24 36 -31 26 -14 29 -39 5 -48 -26 -9 -33 -23 -33 -65 l0 -38 45 0
c32 0 45 4 45 14 0 13 20 26 41 26 5 0 9 -11 9 -25 0 -18 5 -25 20 -25 27 0
28 -46 1 -55 -10 -3 -22 -17 -25 -30 -8 -29 -36 -34 -36 -6 0 27 -9 31 -58 24
l-42 -6 0 -48 c0 -48 1 -49 31 -49 23 0 30 -4 27 -17 -2 -12 -13 -17 -33 -18
-27 0 -30 -4 -33 -33 -3 -27 -7 -33 -25 -30 -13 2 -23 12 -27 28 -3 14 -16 29
-28 35 -29 13 -28 31 3 39 20 5 25 13 25 40 0 30 -4 34 -41 45 -44 13 -63 6
-74 -30 -10 -29 -35 -23 -41 11 -5 23 -12 30 -30 30 -19 0 -23 5 -22 26 2 23
36 54 48 43 3 -2 6 6 8 19 2 14 10 22 24 22 15 0 19 -5 15 -20 -7 -28 3 -31
67 -24 l56 7 -3 51 c-2 41 -6 51 -20 50 -12 -1 -17 6 -17 27 0 18 5 29 13 29
8 0 19 11 25 25 14 30 26 32 44 7z"/>
<path d="M3546 533 c-9 -10 -7 -94 4 -135 12 -42 30 -52 65 -36 19 8 25 19 25
43 0 37 -15 55 -47 55 -22 0 -29 16 -24 57 2 14 -14 25 -23 16z m64 -108 c15
-18 6 -45 -14 -45 -14 0 -26 21 -26 46 0 18 24 18 40 -1z"/>
<path d="M3760 523 c0 -12 -6 -23 -12 -26 -9 -3 -5 -11 10 -22 20 -14 23 -23
18 -50 -6 -32 11 -65 34 -65 16 0 20 18 5 24 -21 8 -21 86 0 86 21 0 19 19 -2
27 -10 4 -26 16 -35 28 l-17 20 -1 -22z"/>
<path d="M2247 474 c-3 -4 -34 -6 -67 -5 -39 1 -59 -3 -55 -9 3 -5 19 -10 36
-10 29 0 29 -1 29 -54 0 -30 4 -57 9 -61 15 -9 31 29 31 74 0 35 3 41 25 47
14 3 22 10 19 15 -6 11 -18 12 -27 3z"/>
<path d="M2724 457 c-29 -25 -36 -73 -13 -88 23 -14 69 -11 69 5 0 9 -7 12
-19 9 -13 -3 -23 2 -30 16 -16 29 2 61 29 54 23 -6 28 12 5 21 -8 3 -27 -5
-41 -17z"/>
<path d="M2940 455 c-43 -46 -20 -116 32 -96 28 11 41 51 28 87 -13 32 -35 36
-60 9z m38 -17 c14 -17 3 -68 -14 -68 -23 0 -40 46 -24 65 15 18 24 19 38 3z"/>
<path d="M7555 470 c4 -6 1 -18 -6 -26 -10 -13 -10 -17 1 -24 10 -6 13 -25 11
-59 -2 -46 0 -52 21 -60 13 -4 30 -6 37 -3 13 5 13 6 0 10 -24 7 -39 34 -39
69 0 26 6 36 25 45 30 13 34 33 5 25 -13 -3 -24 1 -30 14 -6 10 -15 19 -21 19
-6 0 -7 -5 -4 -10z"/>
<path d="M2819 468 c0 -2 -3 -24 -5 -50 -4 -39 -2 -48 10 -48 9 0 16 7 16 15
0 8 7 15 15 15 9 0 15 -9 15 -25 0 -15 6 -25 15 -25 12 0 13 10 9 48 -8 69
-10 72 -44 72 -16 0 -30 -1 -31 -2z m51 -33 c0 -8 -4 -15 -9 -15 -13 0 -22 16
-14 24 11 11 23 6 23 -9z"/>
<path d="M3039 448 c-10 -18 -8 -24 7 -35 10 -7 21 -13 26 -13 4 0 8 -7 8 -16
0 -12 -6 -15 -25 -10 -27 7 -35 -8 -9 -18 20 -8 54 10 54 29 0 8 -11 22 -25
31 -33 22 -32 38 2 29 23 -5 25 -4 14 9 -19 22 -38 20 -52 -6z"/>
<path d="M3242 458 c-16 -16 -16 -80 0 -96 14 -14 54 -16 63 -3 3 5 -5 11 -17
13 -25 3 -37 28 -14 28 8 0 20 9 26 21 20 37 -28 67 -58 37z m42 -23 c-1 -18
-34 -18 -34 0 0 10 7 15 18 13 9 -2 17 -8 16 -13z"/>
<path d="M2300 449 c0 -5 5 -30 11 -54 10 -39 13 -43 30 -34 11 5 19 19 19 29
0 31 17 23 24 -10 3 -17 12 -30 21 -30 13 0 24 28 38 94 1 5 -4 11 -10 14 -8
2 -13 -5 -13 -20 0 -12 -4 -29 -9 -36 -6 -10 -11 -6 -19 17 -13 37 -29 40 -38
6 -8 -34 -21 -32 -29 5 -6 28 -25 43 -25 19z"/>
<path d="M2486 430 c-16 -29 -17 -33 -1 -56 12 -19 23 -24 43 -22 22 2 29 10
37 42 8 33 6 40 -10 52 -29 22 -49 17 -69 -16z m52 -29 c3 -27 0 -32 -15 -29
-19 3 -28 30 -19 54 10 26 31 10 34 -25z"/>
<path d="M3134 445 c-9 -24 3 -45 27 -45 28 0 19 -23 -12 -31 -22 -6 -22 -7
-5 -14 26 -11 51 7 51 36 0 17 -6 25 -22 27 -13 2 -23 10 -23 18 0 11 6 13 21
9 15 -5 19 -4 15 4 -10 16 -46 13 -52 -4z"/>
<path d="M3358 449 c-26 -14 -23 -47 4 -51 12 -2 23 -9 26 -17 3 -10 -3 -12
-27 -9 -21 3 -31 0 -31 -9 0 -15 47 -18 68 -4 22 13 11 56 -15 59 -31 5 -29
22 2 22 14 0 25 5 25 10 0 13 -30 12 -52 -1z"/>
<path d="M3860 440 c-6 -12 -10 -33 -8 -48 3 -24 7 -27 38 -27 32 0 35 3 38
33 6 56 -44 86 -68 42z m44 -16 c10 -26 7 -44 -8 -44 -8 0 -17 9 -21 20 -11
34 16 57 29 24z"/>
<path d="M3966 418 c2 -51 19 -61 28 -18 8 40 30 35 34 -8 4 -38 22 -33 22 6
0 38 -14 56 -39 49 -12 -3 -24 -1 -27 4 -12 20 -20 6 -18 -33z"/>
<path d="M4267 453 c-4 -3 -7 -19 -7 -35 0 -37 -27 -38 -32 -1 -5 45 -28 40
-28 -6 0 -23 5 -42 10 -42 20 -3 25 -4 38 -12 17 -11 15 -37 -3 -37 -8 0 -15
-4 -15 -10 0 -5 11 -10 24 -10 28 0 37 20 31 67 -2 18 0 46 5 62 6 23 5 31 -4
31 -7 0 -16 -3 -19 -7z"/>
<path d="M3673 438 c-21 -28 -22 -49 -4 -67 23 -23 55 -18 76 11 14 21 10 47
-9 60 -17 12 -53 9 -63 -4z m52 -33 c0 -13 -8 -21 -22 -23 -17 -3 -23 2 -23
16 0 10 3 22 7 26 13 13 38 1 38 -19z"/>
<path d="M4084 417 c3 -16 6 -36 6 -44 0 -8 6 -13 13 -10 6 2 11 15 9 29 -3
26 13 46 26 33 4 -4 7 -20 7 -36 0 -37 19 -43 23 -7 5 45 -13 66 -54 65 -34
-1 -35 -2 -30 -30z"/>
<path d="M6290 440 c0 -5 5 -10 10 -10 14 0 13 -87 -2 -96 -7 -5 -3 -10 12
-16 12 -5 24 -7 25 -6 8 8 8 65 1 76 -9 15 10 42 29 42 6 0 17 -10 22 -22 10
-21 12 -21 18 -5 14 35 -1 47 -60 47 -30 0 -55 -4 -55 -10z"/>
<path d="M7296 431 c-9 -10 -19 -34 -22 -53 -5 -29 -2 -37 20 -51 24 -16 28
-16 54 -2 23 14 23 15 5 12 -12 -3 -30 1 -40 8 -20 15 -22 13 32 30 27 8 30
37 6 57 -29 23 -34 23 -55 -1z m47 -18 c11 -10 -13 -32 -29 -26 -20 8 -17 33
4 33 10 0 22 -3 25 -7z"/>
<path d="M6884 404 c-18 -43 -29 -94 -20 -94 4 0 12 14 17 30 15 41 50 41 77
-1 26 -42 38 -20 16 28 -37 81 -67 93 -90 37z m40 -15 c-3 -5 -10 -7 -15 -3
-5 3 -7 10 -3 15 3 5 10 7 15 3 5 -3 7 -10 3 -15z"/>
<path d="M7015 418 c-4 -12 -3 -24 2 -25 5 -2 7 -19 5 -38 -3 -21 0 -35 7 -35
6 0 11 7 11 15 0 24 27 17 48 -12 25 -34 40 -23 21 14 -7 16 -14 44 -14 63 0
33 -2 35 -37 38 -30 3 -37 -1 -43 -20z m65 -17 c0 -10 -7 -22 -16 -25 -23 -9
-24 -8 -24 19 0 18 5 25 20 25 13 0 20 -7 20 -19z"/>
<path d="M7400 431 c0 -6 5 -13 10 -16 6 -3 10 -28 10 -56 0 -27 5 -49 10 -49
6 0 10 18 10 40 0 28 5 43 16 47 21 8 34 -13 34 -54 0 -18 5 -33 10 -33 13 0
13 66 0 91 -7 12 -21 19 -40 19 -16 0 -32 5 -35 10 -8 13 -25 13 -25 1z"/>
<path d="M7156 408 c-17 -24 -21 -65 -7 -86 11 -19 86 -11 87 8 0 20 -16 41
-28 34 -5 -3 -5 -11 2 -19 8 -10 8 -15 0 -20 -18 -11 -42 19 -43 56 -2 31 1
34 25 34 14 -1 24 3 22 7 -10 16 -43 8 -58 -14z"/>
<path d="M6432 408 c-16 -16 -15 -49 1 -72 10 -13 23 -16 57 -14 l45 4 -32 8
c-40 10 -42 22 -7 30 19 5 25 12 22 29 -2 17 -11 23 -38 25 -19 2 -41 -3 -48
-10z m73 -13 c0 -5 -15 -11 -32 -13 -31 -3 -42 6 -26 22 10 10 58 3 58 -9z"/>
<path d="M6557 403 c-15 -14 -6 -40 18 -51 31 -14 33 -39 3 -45 -21 -3 -22 -4
-4 -12 14 -6 23 -3 32 10 21 28 17 54 -11 67 -13 6 -22 15 -19 20 3 4 10 6 15
3 5 -4 9 -1 9 4 0 12 -33 15 -43 4z"/>
<path d="M6657 403 c-13 -12 -7 -53 7 -53 7 0 19 -7 26 -15 10 -12 7 -15 -14
-21 -35 -8 -33 -24 3 -24 29 0 41 14 41 50 0 11 -8 20 -22 22 -25 4 -37 28
-13 28 9 0 13 5 10 10 -7 11 -28 13 -38 3z"/>
<path d="M3922 319 c3 -8 8 -13 11 -11 9 3 7 11 -5 18 -6 4 -8 0 -6 -7z"/>
<path d="M3500 310 c0 -5 5 -10 10 -10 6 0 10 5 10 10 0 6 -4 10 -10 10 -5 0
-10 -4 -10 -10z"/>
<path d="M3674 290 c1 -16 4 -30 8 -30 4 0 5 -20 2 -44 -6 -42 -5 -45 20 -52
32 -8 48 4 23 17 -27 15 -23 77 6 88 l22 9 -27 10 c-14 6 -29 16 -33 21 -12
20 -22 11 -21 -19z"/>
<path d="M3300 301 c0 -6 5 -13 10 -16 6 -3 10 1 10 9 0 9 -4 16 -10 16 -5 0
-10 -4 -10 -9z"/>
<path d="M2500 285 c0 -10 7 -15 18 -13 14 2 18 -6 20 -45 3 -42 0 -49 -17
-54 -12 -3 -21 -9 -21 -14 0 -12 119 -4 130 7 19 20 15 97 -6 118 -22 22 -124
23 -124 1z m108 -27 c3 -13 -3 -18 -22 -18 -20 0 -26 5 -26 21 0 15 5 20 22
17 13 -2 24 -11 26 -20z m10 -60 c4 -21 -37 -35 -49 -17 -5 8 -9 20 -9 27 0
19 54 9 58 -10z"/>
<path d="M6908 275 c-3 -14 0 -29 6 -33 6 -4 11 -29 11 -57 0 -46 2 -50 25
-54 24 -3 24 -2 7 16 -10 11 -17 35 -17 57 0 29 5 39 23 46 12 5 16 9 8 9 -8
1 -25 10 -37 22 l-21 20 -5 -26z"/>
<path d="M2980 260 c0 -25 -4 -30 -23 -30 -15 0 -29 -9 -37 -24 -19 -36 -7
-57 32 -56 18 0 48 -2 66 -6 20 -4 32 -2 32 4 0 6 -10 12 -22 14 -21 3 -23 9
-26 66 -3 61 -22 90 -22 32z m-6 -49 c10 -16 -5 -41 -25 -41 -19 0 -27 29 -12
43 9 10 31 9 37 -2z"/>
<path d="M7543 211 c0 -62 3 -84 14 -88 20 -8 28 4 14 21 -8 9 -10 31 -6 63 5
34 2 54 -8 67 -13 18 -14 11 -14 -63z"/>
<path d="M6743 251 c4 -18 7 -53 7 -78 0 -30 5 -45 15 -50 21 -7 32 4 17 19
-7 7 -12 35 -12 64 0 36 -5 56 -17 65 -15 13 -16 11 -10 -20z"/>
<path d="M7263 272 c-61 -6 -65 -60 -6 -83 14 -5 23 -17 23 -29 0 -24 -9 -25
-36 -5 -29 22 -43 17 -15 -5 28 -24 57 -26 69 -4 14 26 3 51 -29 64 -31 13
-37 26 -16 33 6 2 17 -3 24 -12 15 -20 25 -10 21 21 -3 19 -8 23 -35 20z"/>
<path d="M3194 255 c-10 -25 4 -45 31 -45 16 0 25 -6 25 -15 0 -13 -7 -15 -35
-9 -21 4 -35 2 -35 -4 0 -15 59 -23 81 -12 33 18 19 53 -25 61 -11 2 -21 10
-24 18 -3 10 2 13 22 9 14 -3 26 -1 26 3 0 16 -60 10 -66 -6z"/>
<path d="M3440 260 c-8 -5 -26 -6 -40 -3 -21 5 -23 4 -12 -9 6 -8 13 -30 15
-48 1 -19 8 -35 15 -38 10 -3 12 5 7 31 -6 29 -3 37 14 46 18 10 21 8 27 -14
3 -14 4 -31 1 -38 -6 -15 9 -45 18 -36 9 9 -9 112 -20 116 -6 1 -17 -2 -25 -7z"/>
<path d="M3513 241 c4 -18 7 -46 7 -62 0 -22 5 -29 20 -29 11 0 20 5 20 10 0
6 -4 10 -10 10 -5 0 -10 17 -10 39 0 24 -6 44 -17 52 -15 13 -16 11 -10 -20z"/>
<path d="M3592 258 c-17 -17 -15 -38 3 -44 8 -4 15 -12 15 -20 0 -8 -7 -14
-15 -14 -8 0 -15 -4 -15 -10 0 -19 39 -10 51 12 10 18 8 24 -12 41 -17 14 -20
20 -10 26 8 5 9 11 4 14 -6 4 -15 1 -21 -5z"/>
<path d="M3778 259 c-10 -5 -18 -21 -18 -34 0 -30 36 -69 57 -61 8 3 19 6 24
6 5 0 9 5 9 10 0 6 -14 10 -31 10 -36 0 -36 23 0 28 16 3 21 9 19 25 -3 25
-33 33 -60 16z m42 -14 c0 -9 -9 -15 -21 -15 -18 0 -19 2 -9 15 7 8 16 15 21
15 5 0 9 -7 9 -15z"/>
<path d="M3915 260 c-4 -6 -15 -8 -24 -5 -16 5 -18 -1 -18 -35 0 -43 13 -63
23 -33 15 47 26 61 46 55 15 -3 19 -1 16 9 -6 18 -34 24 -43 9z"/>
<path d="M6643 258 c2 -7 0 -21 -5 -30 -6 -13 -5 -18 7 -18 11 0 15 -11 15
-40 0 -29 4 -40 15 -40 11 0 13 8 9 30 -4 17 -1 36 5 44 9 11 7 20 -12 40 -26
28 -42 34 -34 14z"/>
<path d="M3318 254 c-5 -4 -8 -24 -8 -45 0 -29 5 -39 21 -44 28 -9 36 1 16 22
-8 10 -17 31 -19 46 -1 16 -6 25 -10 21z"/>
<path d="M6220 225 c0 -22 -8 -43 -20 -55 -17 -17 -18 -21 -5 -26 27 -11 45 4
45 38 1 30 2 31 14 16 18 -24 32 -23 51 5 16 22 16 21 13 -18 -2 -30 1 -40 12
-40 12 0 14 11 12 50 -5 61 -17 77 -33 42 -15 -33 -26 -34 -51 -2 -27 34 -38
31 -38 -10z"/>
<path d="M6428 248 c-17 -13 -44 -96 -34 -105 2 -3 9 5 16 16 14 27 50 28 50
2 0 -25 18 -37 26 -17 6 16 -25 116 -36 116 -3 0 -13 -6 -22 -12z m12 -33 c0
-8 -4 -15 -10 -15 -5 0 -7 7 -4 15 4 8 8 15 10 15 2 0 4 -7 4 -15z"/>
<path d="M7460 246 c-22 -16 -25 -112 -5 -120 24 -9 65 23 65 49 0 57 -32 94
-60 71z m30 -31 c0 -8 -4 -15 -9 -15 -13 0 -22 16 -14 24 11 11 23 6 23 -9z
m8 -47 c-5 -34 -38 -37 -38 -4 0 20 5 26 21 26 15 0 20 -5 17 -22z"/>
<path d="M2677 243 c-12 -12 -7 -60 8 -73 16 -13 75 -5 75 11 0 5 -12 6 -26 3
-19 -5 -25 -4 -20 5 4 6 13 11 21 11 18 0 26 25 12 39 -12 12 -60 15 -70 4z
m51 -21 c2 -7 -6 -12 -17 -12 -21 0 -27 11 -14 24 9 9 26 2 31 -12z"/>
<path d="M7347 243 c-4 -3 -7 -15 -7 -27 0 -20 0 -20 16 0 15 19 15 18 11 -3
-3 -13 -1 -23 4 -23 5 0 9 -11 9 -25 0 -14 5 -25 10 -25 11 0 13 52 4 88 -6
21 -33 30 -47 15z"/>
<path d="M7612 225 c-7 -14 -12 -39 -12 -55 0 -23 5 -31 24 -36 14 -3 31 -2
38 2 9 6 6 10 -12 14 -16 4 -26 14 -28 28 -3 18 2 22 22 22 30 0 42 16 26 35
-19 23 -46 18 -58 -10z m38 -5 c0 -5 -2 -10 -4 -10 -3 0 -8 5 -11 10 -3 6 -1
10 4 10 6 0 11 -4 11 -10z"/>
<path d="M2798 204 c4 -37 22 -58 22 -27 0 19 18 43 31 43 4 0 9 -17 11 -37 4
-50 25 -54 22 -4 -2 52 -7 58 -52 58 -37 0 -38 0 -34 -33z"/>
<path d="M6515 223 c4 -10 9 -33 12 -51 6 -34 28 -39 28 -7 0 31 22 28 28 -5
11 -52 27 -34 20 23 -3 28 -7 54 -9 56 -2 2 -15 -1 -29 -7 -15 -7 -27 -8 -30
-2 -11 17 -27 11 -20 -7z"/>
<path d="M7012 228 c-17 -17 -15 -28 13 -54 14 -13 25 -28 25 -34 0 -14 -23
-13 -38 2 -6 6 -15 8 -19 5 -4 -4 1 -15 10 -24 13 -14 21 -14 42 -5 34 16 34
54 -2 77 -25 17 -26 18 -8 31 14 11 15 14 4 14 -8 0 -20 -5 -27 -12z"/>
<path d="M6826 211 c-28 -31 -14 -71 24 -71 17 0 30 5 30 10 0 6 -9 10 -20 10
-27 0 -25 13 3 25 12 6 22 17 22 25 0 23 -39 23 -59 1z m44 -6 c0 -8 -4 -15
-9 -15 -13 0 -22 16 -14 24 11 11 23 6 23 -9z"/>
<path d="M7326 174 c-8 -21 -8 -39 1 -30 8 7 15 46 9 46 -2 0 -7 -7 -10 -16z"/>
<path d="M7745 161 c-3 -5 2 -11 10 -15 8 -3 17 -1 20 3 3 5 -2 11 -10 15 -8
3 -17 1 -20 -3z"/>
</g>
</svg>
