<?xml version="1.0" standalone="no"?>
<!DOCTYPE svg PUBLIC "-//W3C//DTD SVG 20010904//EN"
 "http://www.w3.org/TR/2001/REC-SVG-20010904/DTD/svg10.dtd">
<svg version="1.0" xmlns="http://www.w3.org/2000/svg"
 width="1000.000000pt" height="580.000000pt" viewBox="0 0 1000.000000 580.000000"
 preserveAspectRatio="xMidYMid meet">
<metadata>
Created by potrace 1.16, written by Peter Selinger 2001-2019
</metadata>
<g transform="translate(0.000000,580.000000) scale(0.100000,-0.100000)"
fill="#000000" stroke="none">
<path d="M3000 5698 c-30 -4 -74 -11 -97 -16 -86 -18 -250 -150 -325 -261 -27
-40 -52 -73 -87 -117 -51 -64 -101 -134 -101 -143 0 -5 -6 -14 -13 -18 -20
-12 -67 -85 -61 -95 3 -5 10 -6 15 -3 5 4 9 1 9 -4 0 -6 5 -11 11 -11 6 0 9
11 7 24 -4 32 17 54 62 66 21 6 41 17 44 26 5 13 1 15 -19 10 -14 -4 -25 -4
-25 -1 0 14 32 66 56 92 15 15 29 35 33 45 6 15 30 46 137 173 28 33 70 75 95
93 24 18 49 36 54 40 6 4 18 11 28 15 9 3 17 10 17 15 0 5 29 17 64 26 49 14
92 17 178 14 l113 -4 61 -42 c34 -23 67 -48 73 -56 6 -8 26 -20 44 -26 86 -34
135 -61 169 -93 33 -30 37 -39 32 -66 -6 -26 -4 -31 13 -31 14 0 23 -11 31
-39 17 -54 16 -67 -3 -51 -13 11 -15 8 -15 -15 0 -20 4 -26 15 -21 11 4 15 -2
15 -22 -1 -40 -22 -63 -57 -60 -29 2 -103 -36 -103 -53 0 -12 2 -12 37 6 28
14 89 26 142 29 60 3 81 -119 40 -231 -35 -93 -54 -107 -64 -45 -7 43 -30 93
-56 121 -22 24 -24 31 -6 31 7 0 22 6 33 14 17 13 14 14 -25 5 -26 -6 -47 -6
-50 -1 -6 9 -85 52 -96 52 -4 0 -5 -11 -3 -24 2 -16 -6 -31 -22 -45 -23 -21
-24 -22 -3 -16 18 5 20 2 16 -15 -3 -11 -9 -23 -14 -26 -12 -7 -11 -24 1 -24
5 0 17 16 25 37 21 49 29 37 13 -21 -10 -39 -15 -45 -33 -40 -11 3 -25 12 -31
20 -9 11 -14 11 -29 0 -18 -13 -17 -14 6 -29 13 -8 62 -21 109 -28 82 -11 87
-13 129 -58 l43 -46 24 30 c23 29 58 108 83 187 19 59 5 118 -40 173 -36 43
-39 52 -40 109 -1 78 -3 88 -29 139 -30 58 -86 113 -140 138 -25 11 -69 32
-98 46 -30 13 -80 49 -113 78 l-58 54 -83 -2 c-46 -1 -108 -5 -138 -9z m515
-755 c-6 -36 -5 -37 9 -19 14 18 16 18 16 3 0 -10 11 -23 25 -29 24 -11 43
-44 31 -55 -3 -4 -16 3 -29 15 -16 15 -36 22 -63 22 -61 0 -69 10 -46 55 l20
37 4 -29 4 -28 13 33 c17 43 23 41 16 -5z"/>
<path d="M7465 5651 c-22 -10 -56 -20 -75 -23 -48 -8 -147 -55 -179 -84 -14
-13 -29 -24 -32 -24 -19 0 -242 -259 -269 -313 -18 -36 -3 -48 46 -37 19 5 53
6 77 5 23 -2 78 -7 122 -10 43 -3 106 -15 140 -26 74 -25 185 -108 267 -201
47 -53 77 -76 134 -103 40 -19 75 -35 79 -35 3 0 21 -7 40 -15 35 -14 35 -14
21 -47 -69 -158 -76 -185 -81 -309 -4 -105 -8 -125 -24 -141 -11 -10 -27 -18
-35 -18 -8 0 -17 -4 -20 -9 -9 -14 -119 -49 -148 -46 -15 1 -36 9 -46 18 -23
21 -32 21 -32 3 0 -8 12 -24 26 -35 15 -12 23 -25 18 -32 -5 -9 0 -10 17 -6
13 4 42 10 64 13 22 4 48 13 57 21 9 8 37 16 61 18 43 2 45 1 51 -27 14 -68 6
-173 -19 -254 -28 -92 -42 -109 -84 -101 -54 11 -157 -65 -145 -106 3 -10 -2
-27 -12 -38 -22 -24 -9 -52 25 -57 12 -2 21 -11 21 -20 0 -11 8 -6 23 15 29
42 72 53 100 24 27 -27 14 -40 -41 -44 -44 -3 -84 -27 -47 -27 19 -1 19 -1 -1
-18 -11 -9 -46 -48 -79 -87 -70 -85 -117 -134 -127 -135 -19 0 -5 34 30 73 89
98 133 160 121 168 -17 10 -29 2 -29 -18 0 -14 -68 -100 -122 -155 -10 -10
-18 -23 -18 -30 0 -9 -3 -9 -12 0 -9 9 -8 15 5 24 16 12 16 16 -3 67 -10 29
-22 56 -25 59 -6 6 -20 -10 -29 -33 -2 -5 -28 13 -57 41 -30 28 -83 74 -119
103 -86 70 -167 147 -187 177 -8 13 -32 74 -53 135 l-37 110 47 82 c27 45 57
93 68 107 10 14 28 43 39 65 26 50 103 290 103 319 0 23 -40 110 -64 140 -8
10 -19 15 -25 11 -16 -9 -13 -23 8 -44 37 -37 48 -153 21 -216 -5 -11 -20 -58
-34 -105 -16 -50 -43 -109 -66 -144 -22 -32 -40 -62 -40 -67 0 -5 -4 -9 -10
-9 -5 0 -10 -5 -10 -11 0 -6 -26 -54 -59 -107 -32 -54 -62 -113 -66 -132 -4
-19 -16 -55 -27 -80 -27 -63 -55 -206 -67 -342 -11 -131 -27 -175 -112 -305
-130 -199 -169 -262 -169 -273 0 -6 5 -8 10 -5 6 3 10 1 10 -5 0 -7 -7 -10
-15 -6 -10 4 -23 -11 -42 -50 -15 -31 -38 -64 -51 -74 -13 -11 -21 -24 -17
-30 3 -6 -19 -35 -49 -65 -31 -31 -59 -67 -62 -81 -8 -32 -26 -26 -38 12 -5
16 -17 52 -27 79 -39 111 -62 341 -38 386 6 11 8 32 6 47 -4 27 -4 26 -12 -6
-10 -43 -21 -26 -18 30 5 122 14 296 17 318 35 286 43 311 151 475 70 107 185
333 185 363 0 17 95 195 136 255 61 89 188 214 242 239 39 18 108 18 172 -1
43 -13 61 1 29 23 -25 16 -110 38 -131 34 -10 -2 -12 17 -11 75 3 82 -6 97
-28 45 -11 -26 -57 -90 -124 -171 -8 -9 -31 -41 -51 -70 -20 -28 -50 -65 -65
-81 -16 -15 -29 -33 -29 -39 0 -6 -15 -33 -33 -61 -80 -121 -112 -181 -225
-428 -22 -47 -61 -119 -88 -160 -75 -115 -121 -212 -132 -280 -37 -212 -41
-266 -40 -553 0 -66 -1 -131 -1 -145 -3 -66 53 -328 80 -375 10 -16 22 -57 28
-89 12 -66 18 -77 27 -52 4 9 4 20 0 23 -3 4 1 15 11 25 16 18 18 17 49 -17
29 -32 51 -95 33 -95 -4 0 -17 14 -29 30 -12 17 -25 28 -30 25 -13 -8 0 -41
29 -72 29 -29 71 -150 109 -313 11 -47 32 -116 46 -154 14 -38 26 -77 26 -87
0 -10 9 -34 21 -53 11 -20 27 -66 35 -103 17 -84 17 -95 -1 -63 l-14 25 -1
-32 c0 -18 9 -52 19 -75 11 -24 24 -61 30 -83 15 -59 59 -106 105 -114 37 -6
39 -8 62 -76 13 -38 24 -71 24 -72 0 -6 56 -53 62 -53 5 0 32 -11 61 -25 55
-27 81 -27 172 -2 102 28 244 171 229 231 -4 17 0 27 13 35 11 6 13 11 5 11
-9 0 -11 7 -7 20 4 12 2 20 -5 20 -7 0 -9 8 -5 20 3 11 3 20 -2 20 -4 0 -17
18 -27 41 -27 54 -47 64 -102 49 -25 -7 -46 -11 -49 -9 -2 3 7 19 21 37 35 45
82 45 123 0 76 -84 85 -106 85 -198 0 -74 -3 -90 -26 -126 -62 -97 -179 -169
-303 -186 -105 -15 -166 -1 -223 53 -49 48 -67 78 -76 134 -8 47 -22 73 -33
62 -4 -5 0 -38 10 -74 9 -36 15 -68 13 -70 -2 -3 -14 1 -27 7 -25 14 -239 21
-239 9 0 -16 22 -21 89 -20 123 1 175 -13 231 -61 65 -56 97 -66 205 -67 86
-1 92 1 182 44 105 52 159 99 200 177 23 45 28 65 27 128 -1 49 -6 86 -17 107
-19 36 -121 144 -134 142 -30 -5 -27 9 18 78 39 60 61 83 98 104 51 27 123 49
165 49 l24 0 -24 -45 c-20 -39 -22 -51 -14 -93 12 -67 17 -76 51 -96 35 -20
101 -23 144 -5 39 16 114 29 194 34 36 3 68 8 73 13 5 5 -10 23 -32 40 -23 19
-52 58 -71 95 -43 87 -115 163 -163 172 -57 11 -114 -18 -122 -61 -6 -31 -8
-33 -48 -32 -22 0 -67 -7 -99 -17 -32 -9 -61 -14 -64 -11 -3 3 8 22 24 43 40
52 93 140 93 156 0 7 11 33 25 59 14 26 25 55 25 64 0 9 22 59 48 113 26 53
61 137 76 186 16 50 37 106 47 126 33 67 204 268 216 255 3 -2 -1 -21 -7 -43
-8 -29 -8 -50 2 -88 18 -68 55 -88 151 -81 98 7 169 43 239 119 70 75 93 134
110 277 11 99 15 351 6 450 -2 25 -5 75 -6 113 -1 38 -6 67 -12 67 -20 0 -128
-125 -118 -135 3 -3 22 17 44 45 40 51 63 63 65 33 0 -10 3 -63 7 -118 14
-199 -2 -524 -27 -572 -5 -10 -17 -38 -27 -63 -39 -94 -149 -172 -261 -185
-133 -15 -171 31 -139 168 9 39 17 77 19 84 3 16 235 254 274 281 25 18 40 22
68 16 35 -6 48 7 23 22 -7 5 -2 15 18 31 47 37 11 26 -53 -16 -32 -21 -61 -37
-65 -35 -4 3 -1 24 7 47 24 72 61 171 74 195 7 14 8 22 1 22 -5 0 -10 -6 -10
-12 0 -7 -9 -24 -20 -38 -11 -14 -20 -33 -20 -43 0 -33 -49 -156 -78 -199 -16
-24 -46 -61 -66 -83 l-37 -40 6 55 c3 30 7 72 9 92 1 21 11 47 21 58 18 20 18
20 -5 17 -24 -4 -25 -7 -31 -94 -3 -46 -12 -52 -41 -26 -10 9 -21 13 -25 10
-8 -9 27 -47 44 -47 19 0 16 -18 -11 -75 -33 -71 -79 -109 -127 -102 -87 11
-110 42 -94 123 8 45 40 81 159 177 56 45 111 92 124 104 13 13 27 23 31 23
12 0 91 80 91 92 0 6 -17 -5 -39 -23 -21 -19 -82 -68 -136 -109 -54 -41 -120
-94 -148 -117 -27 -23 -54 -40 -59 -37 -9 6 -47 -71 -48 -96 0 -8 -11 -37 -24
-65 -50 -106 -75 -187 -91 -297 -3 -21 -11 -38 -17 -38 -15 0 8 144 34 209 8
21 2 30 -43 75 -55 55 -87 100 -109 156 -7 19 -22 47 -32 63 -16 23 -17 27 -4
27 9 0 13 6 10 14 -9 22 55 112 149 211 78 82 87 89 106 78 28 -17 29 -17 33
9 2 13 15 28 29 35 24 12 39 34 53 76 5 15 12 17 41 11 40 -7 64 5 117 62 l35
36 21 -36 c31 -52 62 -64 104 -39 18 10 40 31 48 47 14 26 14 28 -18 57 -29
26 -64 36 -109 30 -7 -1 -13 1 -13 6 0 12 53 63 66 63 6 0 18 8 25 17 13 15
11 16 -20 10 -40 -8 -68 -31 -84 -69 -16 -36 -123 -128 -149 -128 -11 0 -26 8
-33 17 -11 14 -6 23 34 63 44 44 161 205 210 292 14 23 54 73 91 112 37 39 88
98 115 131 27 33 63 71 82 85 18 14 41 36 51 50 9 14 30 39 45 55 42 44 145
190 180 254 103 191 119 211 253 321 70 58 170 177 158 189 -3 3 -15 -5 -26
-19 -10 -14 -35 -42 -54 -63 -19 -21 -34 -41 -34 -46 0 -4 -37 -35 -82 -69
-77 -56 -135 -119 -169 -183 -8 -14 -32 -60 -53 -103 -22 -43 -70 -113 -108
-157 -37 -43 -68 -85 -68 -93 0 -9 -44 -59 -98 -113 -53 -54 -110 -116 -126
-138 -17 -22 -55 -67 -86 -100 -31 -33 -83 -103 -115 -155 -63 -104 -140 -203
-206 -267 l-44 -42 -25 19 -24 18 60 59 c73 70 115 127 150 202 69 150 94 184
209 291 75 70 178 174 262 265 32 35 143 191 143 202 0 3 27 49 60 103 67 108
152 202 218 240 49 28 138 110 165 153 27 42 10 32 -39 -22 -24 -26 -81 -73
-127 -104 -92 -62 -153 -126 -209 -220 -21 -34 -42 -67 -47 -73 -5 -6 -17 -26
-26 -45 -18 -34 -79 -130 -102 -159 -66 -84 -142 -166 -257 -274 -146 -138
-206 -212 -251 -316 -40 -93 -144 -234 -160 -219 -2 3 0 21 5 40 5 19 12 48
15 64 7 33 6 185 -1 196 -6 11 8 99 17 99 4 0 7 -26 7 -57 0 -32 1 -92 2 -133
2 -41 0 -90 -4 -107 -11 -47 11 -42 24 5 6 24 8 109 4 223 -7 243 5 362 45
439 36 68 36 70 16 70 -8 0 -15 4 -15 9 0 4 11 6 25 3 14 -2 31 1 38 7 14 11
77 -6 77 -21 0 -13 65 -68 81 -68 24 0 45 29 69 95 32 87 44 178 29 223 -14
44 -67 112 -86 112 -20 0 -16 27 10 61 28 39 31 146 4 195 -20 38 -72 92 -101
105 -12 6 -39 21 -61 34 -22 13 -57 34 -78 45 -21 12 -55 36 -75 54 -20 18
-59 40 -86 49 -68 23 -189 22 -241 -2z m200 -23 c48 -9 67 -20 108 -59 28 -27
54 -46 58 -43 10 6 166 -90 202 -124 43 -41 57 -75 57 -141 0 -49 -4 -65 -26
-90 -30 -36 -43 -38 -72 -11 -29 27 -30 101 -2 153 20 37 28 67 9 35 -17 -30
-26 -20 -36 40 -8 48 -9 36 -7 -76 l2 -133 -46 7 c-26 3 -51 10 -56 15 -6 5
-20 9 -32 9 -22 0 -52 26 -41 36 3 3 14 1 24 -5 18 -9 19 -6 19 58 -1 54 -4
67 -15 63 -7 -3 -22 6 -32 19 -16 21 -19 22 -19 5 0 -15 -5 -17 -30 -13 -21 5
-28 3 -24 -7 3 -7 -2 -19 -11 -26 -8 -7 -15 -23 -15 -36 0 -21 -2 -23 -27 -13
-15 6 -30 15 -34 20 -11 19 11 124 30 139 22 18 45 59 37 67 -3 3 -14 -5 -24
-17 l-19 -23 -7 27 c-4 15 -4 43 0 62 4 22 2 34 -5 34 -7 0 -11 -21 -11 -55 0
-53 -11 -72 -24 -40 -6 16 -36 21 -36 7 0 -5 14 -18 30 -31 26 -18 29 -25 20
-42 -6 -11 -12 -42 -12 -69 -1 -53 -10 -60 -44 -36 -11 8 -41 17 -67 21 -41 6
-54 15 -113 77 -37 40 -63 61 -59 49 6 -19 2 -21 -27 -21 -40 0 -78 -10 -78
-20 0 -4 22 -3 50 2 57 10 87 -1 133 -50 28 -29 24 -51 -8 -39 -27 11 -161
-15 -220 -43 -98 -46 -137 -60 -145 -55 -5 3 -11 1 -15 -5 -16 -25 52 -7 145
40 19 10 70 25 114 34 96 20 102 20 87 3 -6 -8 -8 -17 -4 -21 4 -3 -9 -20 -28
-36 -19 -16 -29 -29 -22 -30 6 0 28 19 47 42 33 38 41 42 94 46 70 5 146 -20
223 -72 29 -21 68 -44 86 -51 70 -29 32 -45 -109 -45 -70 0 -107 -5 -133 -17
-19 -9 -35 -20 -35 -25 0 -11 3 -10 36 7 16 8 46 15 67 15 l38 0 -21 -31 c-30
-41 -19 -48 14 -8 23 26 35 32 77 36 28 2 64 10 81 19 36 19 112 14 190 -12
60 -20 73 -35 56 -66 -25 -44 -48 -65 -108 -93 -33 -16 -60 -33 -60 -38 0 -5
8 -6 18 -2 21 10 72 19 72 13 0 -2 -9 -21 -20 -43 -11 -22 -20 -45 -20 -52 0
-21 18 -15 25 8 6 17 9 18 22 7 14 -11 15 -8 8 30 -6 37 -4 42 12 42 10 0 23
-10 29 -23 6 -12 28 -53 48 -92 48 -93 48 -131 0 -87 -44 42 -71 53 -125 51
-39 -1 -71 6 -114 25 -139 62 -162 78 -214 146 -13 17 -55 55 -95 85 -39 30
-85 66 -101 79 -47 38 -134 57 -295 63 -80 3 -146 7 -148 8 -8 7 166 223 210
260 46 40 129 95 143 95 8 0 16 4 19 9 4 5 25 12 48 16 23 4 58 15 78 25 19
10 42 20 50 23 27 10 116 7 175 -5z m124 -323 c3 -16 1 -17 -10 -4 -8 8 -21
23 -29 34 -15 19 -14 19 10 4 14 -9 27 -25 29 -34z m308 -247 c54 -56 65 -116
42 -231 -13 -62 -39 -99 -39 -54 0 23 -38 104 -65 137 -7 8 -18 32 -24 52 -10
31 -9 42 5 70 19 39 34 58 43 58 4 0 21 -15 38 -32z m-1327 -153 c0 -14 -6
-25 -13 -25 -8 0 -24 -11 -37 -25 -24 -25 -40 -32 -40 -16 0 12 70 91 81 91 5
0 9 -11 9 -25z m1030 -355 c0 -5 -5 -10 -11 -10 -5 0 -7 5 -4 10 3 6 8 10 11
10 2 0 4 -4 4 -10z m-8 -55 c-2 -14 -6 -25 -8 -25 -2 0 -4 11 -4 25 0 14 4 25
9 25 4 0 6 -11 3 -25z m-6 -83 c-11 -10 -15 4 -8 28 l7 25 3 -23 c2 -13 1 -26
-2 -30z m4 -62 c0 -5 -4 -10 -10 -10 -5 0 -10 5 -10 10 0 6 5 10 10 10 6 0 10
-4 10 -10z m-90 -110 c0 -5 -7 -10 -16 -10 -8 0 -12 5 -9 10 3 6 10 10 16 10
5 0 9 -4 9 -10z m-915 -343 c-8 -20 -20 -37 -25 -37 -13 0 -13 37 1 45 5 4 15
19 21 33 8 19 12 22 15 12 2 -9 -3 -33 -12 -53z m46 -102 c-11 -32 -17 -63
-15 -67 12 -18 23 -5 30 35 4 23 9 45 10 50 1 4 2 12 3 17 1 14 21 13 21 -1 0
-6 13 -28 29 -48 29 -37 30 -38 10 -54 -10 -9 -19 -26 -19 -37 0 -27 18 -26
22 2 5 38 28 33 28 -6 0 -20 5 -36 10 -36 10 0 14 14 11 39 -2 7 4 11 11 9 8
-3 12 -18 10 -41 -2 -24 1 -37 8 -37 8 0 10 10 8 25 -3 14 -3 25 -1 25 5 0 35
-25 166 -136 40 -33 80 -64 89 -67 11 -4 15 -12 12 -22 -7 -18 -14 -18 -48 -5
-28 10 -28 11 -30 -57 -1 -40 -17 -57 -45 -48 -21 6 -29 25 -11 25 6 0 10 7
10 15 0 8 -4 15 -10 15 -5 0 -10 -7 -10 -15 0 -19 -5 -19 -36 1 -14 10 -23 22
-20 29 2 6 0 18 -4 26 -7 10 -11 8 -19 -11 -5 -14 -11 -20 -12 -15 -1 6 -2 15
-4 20 -1 6 -3 16 -3 23 -3 18 -22 15 -22 -4 0 -26 -35 -11 -38 16 -5 38 -20
47 -28 16 -9 -39 -30 -32 -53 19 l-14 30 -6 -25 c-10 -37 -35 -32 -39 8 -4 37
-22 34 -22 -4 0 -21 -4 -25 -22 -22 -17 2 -24 11 -26 31 -4 36 -22 25 -22 -14
0 -36 -21 -35 -31 2 -7 25 -10 23 -14 -11 -1 -11 -3 -24 -4 -30 -3 -24 -19 -7
-25 28 -8 53 24 262 41 262 8 0 13 12 13 31 0 38 16 69 35 69 19 0 19 -10 1
-35 -18 -27 -28 -107 -13 -102 7 2 14 14 15 28 2 13 8 29 14 34 7 7 8 0 3 -22
-12 -59 12 -35 30 30 10 34 22 73 28 87 21 49 19 -11 -2 -75z m1219 45 c0 -4
14 -10 30 -13 35 -7 42 -41 13 -63 -25 -19 -46 -17 -76 7 -27 20 -34 66 -14
80 11 8 47 -1 47 -11z m-339 -59 c19 -15 24 -29 24 -65 0 -25 -6 -51 -14 -58
-11 -11 -13 -7 -8 23 4 28 1 42 -13 57 -30 32 -57 36 -96 13 -37 -22 -69 -27
-78 -12 -8 12 21 34 34 26 5 -3 22 3 36 14 33 26 85 27 115 2z m184 -11 c-3
-5 -11 -10 -16 -10 -6 0 -7 5 -4 10 3 6 11 10 16 10 6 0 7 -4 4 -10z m-63 -20
c24 -1 29 -3 18 -10 -20 -11 -82 2 -88 19 -3 10 0 11 16 2 11 -6 36 -11 54
-11z m-148 -42 c11 -31 2 -48 -16 -30 -16 16 -50 15 -109 -4 -27 -9 -53 -13
-57 -9 -9 8 28 36 39 30 4 -3 25 6 45 20 48 33 85 30 98 -7z m-809 -273 c75
-15 175 -58 212 -89 16 -13 21 -26 17 -41 -5 -19 0 -23 27 -29 47 -9 89 -7 89
4 0 6 7 10 15 10 42 0 -62 -95 -215 -197 -95 -63 -155 -86 -182 -72 -14 8 -23
8 -31 0 -6 -6 -9 -12 -6 -13 2 -2 18 -10 34 -18 57 -29 62 -143 8 -202 -18
-20 -53 -24 -69 -8 -7 7 -22 -5 -47 -34 -20 -25 -33 -47 -29 -50 10 -6 52 30
52 44 0 6 7 10 16 10 12 0 11 -6 -7 -32 -17 -23 -23 -45 -22 -80 0 -49 -12
-55 -19 -8 -5 38 -21 30 -33 -17 -5 -23 -14 -45 -18 -50 -5 -4 -5 5 -2 20 5
20 2 33 -10 47 -22 24 -35 26 -35 5 0 -8 -6 -15 -14 -15 -8 0 -17 -9 -21 -20
-3 -11 -9 -19 -13 -19 -25 4 -28 -6 -25 -93 2 -73 1 -87 -7 -63 -6 17 -11 58
-11 92 -1 55 -3 61 -21 60 -11 -1 -27 -12 -35 -24 -13 -19 -13 -28 -3 -53 12
-28 6 -109 -7 -96 -7 6 -25 95 -25 118 1 15 -6 17 -39 14 -22 -2 -42 -6 -46
-9 -3 -4 1 -26 10 -49 16 -46 37 -194 41 -293 2 -33 8 -85 15 -115 7 -30 15
-76 18 -102 3 -27 9 -48 15 -48 6 0 8 24 4 63 -8 89 -11 107 -24 152 -6 22
-11 72 -11 110 -1 85 -6 143 -15 172 -4 12 -3 24 2 27 5 3 12 -16 16 -43 5
-36 11 -50 25 -54 11 -3 22 -17 26 -36 4 -17 13 -31 21 -31 11 0 13 14 8 74
-5 50 -3 75 5 80 7 5 11 -1 11 -13 0 -22 38 -63 51 -55 5 3 18 0 30 -7 21 -11
21 -16 14 -98 -7 -86 -7 -186 0 -271 6 -67 6 -66 14 -47 3 10 5 59 4 110 -1
51 2 143 8 205 8 86 7 117 -2 128 -8 10 -8 14 0 14 6 0 11 14 11 31 0 27 19
59 34 59 3 0 6 -12 6 -27 l0 -28 27 29 c15 16 28 25 30 19 9 -27 -15 -271 -30
-299 -9 -18 -16 -59 -17 -100 -3 -157 -13 -244 -26 -244 -19 0 -18 -36 1 -44
21 -8 19 -65 -4 -162 -11 -43 -22 -92 -26 -108 -9 -42 -14 -28 -25 63 -6 55
-17 94 -33 122 -32 53 -43 36 -41 -58 1 -40 -1 -73 -5 -73 -3 0 -14 21 -24 48
-30 75 -38 90 -57 95 -17 4 -30 51 -30 114 0 18 -7 58 -15 90 -8 31 -15 77
-15 101 0 23 -6 55 -14 70 -11 23 -34 119 -41 172 -16 124 -36 193 -50 171 -4
-7 -4 -20 0 -29 4 -9 9 -28 11 -42 2 -14 8 -49 14 -77 5 -29 14 -77 20 -105 5
-29 16 -71 24 -93 8 -22 17 -69 20 -104 5 -56 4 -62 -9 -51 -8 7 -15 22 -15
34 0 11 -7 34 -15 50 -8 15 -15 42 -15 58 0 16 -4 38 -10 48 -5 10 -12 41 -16
70 -3 29 -17 80 -30 113 -16 41 -24 81 -24 122 0 65 -11 87 -73 148 -28 27
-32 45 -12 49 6 1 15 -9 22 -22 18 -36 40 -44 69 -25 14 9 23 19 20 22 -3 3
-12 0 -21 -7 -9 -7 -17 -11 -18 -9 -1 2 -13 19 -26 38 l-23 33 33 33 c19 18
45 51 59 74 29 47 50 57 82 40 34 -17 34 -18 7 -42 -31 -27 -59 -67 -59 -84 0
-23 15 -13 30 20 9 19 31 40 55 52 22 11 42 23 43 28 7 14 31 7 42 -13 6 -11
10 -37 8 -57 -2 -22 2 -38 10 -40 9 -3 12 12 12 55 0 59 1 60 36 77 29 13 42
15 61 6 13 -6 39 -11 56 -11 18 0 38 -5 44 -11 6 -6 16 -8 23 -4 20 12 -9 34
-56 41 -51 7 -54 15 -17 39 19 13 38 16 75 12 26 -3 48 -2 48 3 0 12 -38 23
-85 24 -29 1 -41 6 -43 19 -3 13 9 23 43 38 26 11 53 18 60 15 8 -3 17 -1 20
5 12 19 -27 21 -73 4 -56 -21 -72 -38 -72 -79 0 -30 0 -30 -16 -8 -8 12 -19
22 -23 22 -13 0 -32 -51 -26 -71 4 -11 2 -19 -4 -19 -5 0 -10 21 -10 48 0 55
-3 69 -19 99 -13 24 -1 33 44 33 14 0 27 7 30 15 7 17 59 21 69 5 8 -13 35
-13 35 0 0 26 -97 41 -111 18 -4 -6 -30 -13 -58 -16 -28 -2 -54 -9 -57 -13 -3
-5 -18 -9 -35 -9 -31 0 -39 19 -15 39 7 6 31 41 52 77 21 36 48 75 60 87 12
12 24 31 28 42 3 11 19 35 36 53 16 18 30 40 30 49 0 22 39 73 64 83 32 13 93
11 171 -5z m411 -73 c-18 -16 -18 -16 -6 6 6 13 14 21 18 18 3 -4 -2 -14 -12
-24z m42 -82 c11 -19 7 -26 -40 -74 -29 -29 -78 -73 -108 -99 -61 -51 -265
-161 -280 -152 -24 15 -9 43 31 59 68 27 304 198 323 234 14 27 38 52 50 52 6
0 17 -9 24 -20z m50 -57 c10 -16 35 -59 56 -97 21 -39 56 -86 79 -107 l42 -37
-23 -88 c-12 -49 -22 -104 -22 -121 0 -53 -42 -221 -65 -258 -7 -11 -21 -45
-30 -75 -38 -118 -121 -295 -167 -355 -54 -70 -105 -139 -133 -180 -128 -187
-218 -297 -349 -427 -55 -54 -97 -101 -93 -104 7 -7 169 144 203 189 12 15 39
45 60 66 22 21 57 65 79 97 22 32 56 80 75 106 19 26 54 73 78 105 24 32 63
84 88 117 53 70 124 214 154 311 11 39 30 88 41 110 11 22 35 91 53 154 18 62
36 110 38 105 7 -11 -33 -197 -50 -237 -7 -16 -12 -33 -12 -39 0 -7 -9 -31
-20 -55 -11 -24 -29 -62 -40 -85 -10 -24 -26 -63 -35 -88 -9 -24 -22 -54 -29
-65 -7 -11 -16 -33 -20 -50 -11 -45 -128 -223 -195 -294 -12 -15 -30 -39 -38
-56 -30 -58 -118 -161 -255 -298 -76 -75 -138 -145 -138 -154 0 -11 34 19 89
77 86 93 166 151 229 169 19 6 34 6 37 0 4 -5 15 -9 26 -9 19 0 26 -10 48 -81
17 -54 13 -95 -13 -148 -39 -77 -139 -149 -228 -166 -83 -16 -216 50 -242 119
-30 81 -30 91 3 124 17 17 31 38 31 48 0 10 10 45 22 78 18 48 22 78 19 141
-2 44 -3 171 -3 282 0 169 3 210 17 245 10 24 21 86 25 138 5 52 15 140 24
195 19 121 20 187 4 203 -9 9 -7 13 8 17 54 18 90 64 100 131 6 45 7 45 88 86
93 47 149 83 225 147 67 56 109 100 116 124 9 24 21 21 43 -10z m361 -229 c17
-4 31 -11 31 -16 0 -11 -46 -63 -129 -148 l-63 -65 4 45 c4 36 40 173 63 238
4 10 14 5 34 -17 16 -17 43 -34 60 -37z m-1234 -29 c14 -13 25 -33 25 -43 0
-31 -12 -82 -19 -82 -6 0 -21 32 -35 73 -3 9 -17 22 -31 27 -24 9 -33 29 -18
43 14 15 55 6 78 -18z m1315 6 c0 -5 -42 -51 -93 -102 -51 -52 -105 -111 -120
-131 -30 -41 -48 -49 -40 -18 3 10 29 42 59 70 30 28 79 83 110 121 48 61 84
86 84 60z m-1381 -60 c23 -17 23 -20 8 -41 -8 -12 -13 -29 -10 -36 6 -16 -13
-19 -23 -3 -3 6 -16 8 -28 5 -13 -3 -30 0 -40 7 -15 11 -15 16 -4 38 7 14 19
24 26 21 6 -2 15 3 18 12 8 21 23 20 53 -3z m341 -230 c0 -11 -4 -23 -10 -26
-6 -4 -10 5 -10 19 0 14 5 26 10 26 6 0 10 -9 10 -19z m-140 -107 c0 -17 -22
-14 -28 4 -2 7 3 12 12 12 9 0 16 -7 16 -16z m-52 -29 c-3 -16 2 -33 13 -47
21 -24 23 -34 9 -43 -5 -3 -10 1 -10 9 0 9 -7 16 -15 16 -16 0 -21 43 -9 74 9
25 17 19 12 -9z m113 -28 c-8 -8 -11 -7 -11 4 0 20 13 34 18 19 3 -7 -1 -17
-7 -23z m872 -516 c35 -14 104 -89 134 -146 14 -27 37 -64 50 -82 28 -37 23
-56 -13 -47 -14 4 -44 2 -67 -4 -198 -50 -218 -51 -257 -12 -20 20 -28 46 -11
36 5 -3 20 18 34 48 14 30 30 56 34 59 16 10 100 -19 132 -46 18 -15 37 -24
42 -21 6 3 17 0 26 -8 13 -10 13 -7 -2 17 -11 17 -21 32 -23 35 -1 2 -7 -2
-13 -10 -8 -13 -12 -12 -24 4 -9 11 -12 29 -9 39 5 16 3 19 -12 13 -36 -14
-69 -17 -84 -7 -12 9 -12 15 3 46 20 41 20 45 8 45 -5 0 -13 -10 -17 -22 -7
-25 -33 -58 -45 -58 -9 0 0 68 13 93 16 31 60 43 101 28z m-129 -146 c3 -9 1
-26 -6 -38 -6 -12 -14 -29 -18 -37 -21 -44 -39 13 -20 61 13 32 34 38 44 14z
m-925 -285 c-1 -13 -1 -13 -6 0 -4 8 -12 20 -19 25 -8 6 -16 26 -19 45 l-6 35
25 -45 c14 -25 25 -52 25 -60z m28 -87 c-3 -3 -10 -2 -16 2 -7 4 -7 10 2 20
10 11 13 11 15 -2 2 -8 1 -17 -1 -20z"/>
<path d="M7370 5491 c0 -5 5 -13 10 -16 6 -3 10 -2 10 4 0 5 -4 13 -10 16 -5
3 -10 2 -10 -4z"/>
<path d="M7690 5106 c0 -8 -3 -22 -7 -32 -4 -11 -3 -15 4 -11 15 9 23 46 12
53 -5 3 -9 -1 -9 -10z"/>
<path d="M7981 4854 c-12 -14 -11 -16 4 -12 10 1 20 9 23 16 5 17 -10 15 -27
-4z"/>
<path d="M8035 4970 c-3 -5 -1 -10 4 -10 6 0 11 5 11 10 0 6 -2 10 -4 10 -3 0
-8 -4 -11 -10z"/>
<path d="M8060 4940 c0 -5 5 -10 10 -10 6 0 10 5 10 10 0 6 -4 10 -10 10 -5 0
-10 -4 -10 -10z"/>
<path d="M8079 4897 c6 -8 8 -17 4 -20 -3 -4 -2 -7 4 -7 15 0 22 11 16 26 -3
8 -12 14 -20 14 -12 0 -13 -3 -4 -13z"/>
<path d="M6866 3743 c-6 -49 -1 -67 14 -43 12 19 13 90 1 90 -4 0 -11 -21 -15
-47z"/>
<path d="M7040 3610 c0 -5 5 -10 10 -10 6 0 10 5 10 10 0 6 -4 10 -10 10 -5 0
-10 -4 -10 -10z"/>
<path d="M7100 3405 c0 -8 5 -15 10 -15 6 0 10 7 10 15 0 8 -4 15 -10 15 -5 0
-10 -7 -10 -15z"/>
<path d="M6540 2783 c1 -16 57 -76 68 -72 20 7 -20 74 -45 77 -13 2 -23 0 -23
-5z"/>
<path d="M6411 2704 c-12 -20 -20 -43 -17 -51 8 -19 26 -6 26 18 0 11 5 29 11
41 19 36 2 30 -20 -8z"/>
<path d="M6269 2520 c-1 -5 -2 -14 -3 -19 -1 -5 16 -21 37 -35 41 -28 43 -27
22 14 -16 32 -54 58 -56 40z"/>
<path d="M6673 2369 c-7 -9 -9 -20 -3 -29 12 -19 22 -7 18 21 -2 19 -5 20 -15
8z"/>
<path d="M6480 2255 c0 -3 9 -47 19 -98 17 -80 29 -187 31 -279 0 -39 17 -35
23 5 4 30 -16 246 -27 277 -3 8 -10 34 -16 58 -6 23 -15 42 -20 42 -6 0 -10
-2 -10 -5z"/>
<path d="M6618 1895 c-12 -21 -19 -93 -9 -99 6 -4 12 12 16 38 7 46 3 78 -7
61z"/>
<path d="M6457 1853 c-11 -10 -8 -43 3 -43 6 0 10 11 10 25 0 26 -2 29 -13 18z"/>
<path d="M7532 1803 c-11 -20 -4 -80 9 -88 4 -3 7 19 6 50 -1 30 -3 55 -4 55
-1 0 -6 -8 -11 -17z"/>
<path d="M7600 1765 c0 -15 18 -40 24 -34 3 3 -1 14 -9 25 -8 10 -14 15 -15 9z"/>
<path d="M3154 5639 c-9 -16 2 -22 21 -11 15 8 16 10 1 15 -8 3 -18 2 -22 -4z"/>
<path d="M2923 5593 c-3 -10 -8 -21 -10 -25 -2 -5 -1 -8 4 -8 4 0 13 11 20 25
6 14 7 25 2 25 -5 0 -12 -8 -16 -17z"/>
<path d="M2994 5557 c-29 -26 -36 -38 -29 -53 8 -18 8 -18 13 1 5 25 31 55 56
65 13 4 16 9 8 14 -6 4 -28 -8 -48 -27z"/>
<path d="M3146 5561 c-10 -10 -14 -21 -9 -24 4 -3 16 6 26 19 21 28 8 32 -17
5z"/>
<path d="M2805 5504 c-17 -26 -13 -60 5 -49 6 4 8 11 4 16 -3 6 2 19 11 29 9
10 12 21 7 24 -6 3 -17 -6 -27 -20z"/>
<path d="M3266 5511 c-11 -12 -14 -21 -7 -26 6 -3 11 -2 11 3 0 5 9 12 21 15
12 3 18 10 14 16 -9 16 -20 14 -39 -8z"/>
<path d="M4618 5488 c-8 -7 -35 -47 -58 -88 -59 -103 -102 -153 -163 -191 -98
-61 -142 -93 -181 -133 -51 -54 -127 -151 -156 -201 -29 -49 -151 -201 -222
-276 -29 -31 -69 -74 -89 -95 -20 -22 -89 -79 -155 -129 -113 -85 -188 -161
-263 -267 -33 -46 -60 -65 -47 -32 13 34 17 97 19 299 2 193 4 214 25 260 19
44 62 193 62 217 0 4 -4 8 -8 8 -10 0 -23 -41 -48 -140 -9 -36 -19 -69 -24
-75 -4 -5 -13 -29 -19 -53 -7 -23 -23 -59 -36 -79 -14 -20 -25 -43 -25 -52 1
-14 2 -14 11 2 5 9 14 17 19 17 17 0 11 -40 -10 -62 -11 -12 -20 -27 -20 -32
0 -6 5 -3 11 7 5 9 14 17 19 17 14 0 12 -44 -2 -59 -7 -6 -13 -26 -13 -44 0
-24 -6 -34 -27 -45 -31 -14 -74 -70 -63 -80 4 -4 17 6 30 23 13 16 28 26 32
21 4 -4 -1 -14 -11 -22 -14 -10 -17 -17 -9 -25 8 -8 13 -8 17 0 4 6 18 11 32
11 21 0 24 -4 24 -37 -1 -99 -17 -158 -60 -215 -35 -47 -47 -57 -82 -62 -25
-4 -44 -3 -48 4 -4 6 -23 -4 -48 -26 -23 -20 -39 -40 -36 -45 3 -6 11 -3 19 7
12 17 13 16 20 -5 7 -24 -9 -51 -31 -51 -8 0 -14 -7 -14 -16 0 -15 2 -15 25 0
31 20 39 20 31 0 -4 -9 -1 -23 5 -30 9 -11 5 -16 -16 -24 -35 -13 -41 -13 -60
6 -22 23 -30 11 -14 -24 8 -18 18 -28 26 -25 9 4 11 0 7 -11 -8 -21 -30 -21
-42 0 -8 15 -11 13 -23 -12 -8 -17 -24 -30 -37 -32 -26 -4 -20 -22 8 -22 30 0
33 -19 4 -26 -17 -4 -29 -2 -35 7 -11 19 -22 5 -14 -20 3 -12 13 -21 21 -21 8
0 14 -6 14 -14 0 -21 -199 -226 -220 -226 -9 0 -25 -9 -35 -20 -10 -11 -23
-20 -28 -20 -6 0 -19 -8 -29 -17 -10 -9 -58 -36 -106 -59 -70 -34 -90 -40
-106 -32 -33 18 -149 27 -166 14 -8 -7 -27 -18 -42 -26 -16 -7 -28 -17 -28
-22 0 -13 13 -9 40 12 30 23 70 26 70 5 0 -17 25 -20 35 -5 6 10 65 14 65 5 0
-3 -12 -17 -27 -30 -21 -18 -40 -24 -74 -25 -37 0 -50 -5 -74 -30 -22 -23 -36
-29 -52 -25 -18 4 -30 -5 -64 -50 -45 -60 -79 -73 -79 -30 0 13 8 28 18 34 16
9 16 10 0 16 -11 4 -18 18 -18 33 0 32 -40 142 -51 142 -12 0 -12 1 11 -82 13
-47 19 -98 17 -143 -2 -63 -5 -72 -32 -97 -16 -15 -33 -28 -37 -28 -8 0 -132
-92 -164 -121 -11 -11 -32 -18 -45 -17 -20 3 -25 -2 -27 -27 -2 -16 -7 -34
-12 -39 -11 -11 -24 57 -16 87 7 29 -2 41 -20 26 -11 -9 -15 -7 -20 6 -14 34
-21 -7 -8 -43 7 -20 13 -46 14 -58 0 -11 5 -25 11 -31 8 -8 2 -24 -22 -60 -18
-26 -35 -50 -38 -53 -4 -3 -19 -22 -34 -42 -15 -21 -103 -113 -196 -205 -168
-169 -235 -250 -229 -279 2 -10 22 8 57 52 30 38 126 139 212 224 86 85 177
182 201 215 23 33 46 62 51 63 4 2 7 10 7 18 0 17 137 150 202 196 25 18 91
67 145 109 54 42 122 89 151 104 50 26 52 26 82 9 35 -21 38 -39 9 -55 -14 -7
-19 -17 -16 -31 5 -19 2 -20 -31 -14 -32 5 -45 0 -97 -36 -118 -83 -202 -160
-335 -307 -88 -96 -270 -282 -331 -337 -45 -40 -126 -135 -166 -195 -18 -26
-37 -50 -43 -54 -13 -8 -13 -45 0 -45 5 0 17 11 27 26 87 123 200 253 221 254
6 0 12 4 12 8 0 5 48 58 106 118 93 95 188 198 316 338 36 40 64 44 40 6 -7
-11 -12 -27 -12 -36 0 -10 -5 -14 -15 -10 -10 4 -15 -1 -15 -15 0 -11 4 -18 9
-15 5 3 9 -10 8 -29 -1 -22 -6 -35 -14 -35 -7 0 -13 -5 -13 -11 0 -5 4 -8 9
-4 5 3 12 1 16 -5 12 -19 31 -168 24 -186 -7 -17 -8 -16 -8 4 -1 28 -21 19
-21 -9 0 -19 -11 -25 -23 -12 -4 3 -1 13 6 21 10 13 9 15 -5 9 -19 -7 -23 9
-12 51 7 24 29 30 37 10 4 -9 6 -8 6 2 0 8 -3 22 -9 30 -8 12 -11 12 -27 -3
-18 -16 -19 -15 -15 18 2 20 0 35 -6 35 -12 0 2 58 18 74 13 13 13 36 0 36 -6
0 -13 -8 -16 -17 -4 -10 -14 -36 -25 -58 -16 -35 -18 -37 -19 -15 l-2 25 -8
-27 c-5 -17 -3 -48 5 -80 7 -29 13 -46 14 -38 1 9 9 16 20 17 14 1 18 -3 14
-20 -3 -12 -12 -27 -21 -34 -15 -12 -14 -18 7 -105 8 -35 7 -37 -13 -35 -15 1
-22 -4 -24 -20 -2 -13 -8 -23 -13 -23 -13 0 -11 13 11 70 24 60 24 60 7 60 -7
0 -13 -10 -14 -21 -2 -23 -19 -46 -28 -37 -3 3 2 22 10 42 9 21 14 45 12 54
-3 12 -8 7 -17 -16 -9 -24 -15 -30 -21 -21 -4 7 -1 25 7 40 8 16 14 36 14 45
0 13 3 14 15 4 22 -18 18 4 -4 24 -22 20 -37 6 -32 -31 4 -37 -18 -26 -25 12
-6 36 -24 49 -24 18 0 -33 28 -157 59 -257 16 -54 32 -121 36 -150 3 -28 28
-121 54 -206 27 -85 55 -177 64 -205 8 -27 26 -78 40 -113 27 -66 27 -68 -5
-51 -18 10 -20 9 -15 -5 4 -9 1 -16 -6 -16 -17 1 -65 40 -48 40 11 0 11 3 0
16 -21 25 -69 46 -113 48 -22 1 -47 5 -54 10 -22 13 -26 -2 -7 -24 10 -11 28
-20 39 -20 12 0 44 -15 71 -33 66 -43 197 -108 204 -101 3 3 -5 14 -18 25 -13
11 -22 21 -20 23 3 2 61 32 110 57 9 4 26 5 37 2 16 -4 22 0 26 18 3 13 8 38
11 54 14 65 34 250 50 450 8 116 22 266 30 335 22 195 36 440 26 459 -11 18
-16 9 -24 -39 -2 -14 -5 -5 -5 20 -1 51 23 108 53 124 11 6 32 19 47 29 30 20
55 22 60 5 6 -16 28 -1 28 19 0 9 7 24 15 34 10 10 17 40 19 73 3 58 15 77 61
92 11 4 49 28 85 54 36 26 76 53 90 60 31 16 186 140 221 177 15 16 32 38 38
51 6 12 21 22 32 22 12 0 30 11 41 25 22 28 38 32 38 10 0 -8 -4 -15 -10 -15
-5 0 -10 -4 -10 -10 0 -15 16 -12 34 5 12 13 13 21 4 40 -15 33 -28 31 -61 -6
-15 -17 -27 -26 -27 -19 0 7 15 30 33 50 17 21 43 54 57 74 27 38 40 45 40 21
0 -8 -7 -15 -16 -15 -9 0 -12 -5 -8 -11 4 -7 -4 -20 -17 -30 -20 -16 -22 -20
-9 -29 37 -24 99 1 114 47 5 15 13 19 26 16 23 -6 24 -14 11 -57 -33 -108 -65
-204 -75 -221 -15 -24 -38 -90 -61 -170 -9 -33 -21 -73 -26 -89 -5 -16 -9 -42
-9 -57 0 -15 -4 -30 -9 -33 -5 -3 -11 -32 -14 -63 -17 -170 -35 -267 -88 -463
-21 -78 -87 -220 -118 -255 -10 -11 -30 -42 -46 -70 -16 -27 -38 -59 -50 -71
-11 -11 -38 -45 -58 -75 -116 -167 -188 -258 -272 -344 -161 -163 -236 -245
-226 -245 6 0 75 64 152 142 189 191 192 195 230 258 18 30 56 83 83 117 28
34 67 83 86 109 19 26 40 53 46 59 6 6 19 25 27 42 9 17 23 37 31 45 24 24
103 180 124 245 12 34 35 138 52 230 17 92 40 211 50 263 11 52 20 105 20 117
0 12 4 32 9 45 5 13 19 59 31 103 24 87 27 96 58 170 38 91 59 159 75 236 9
42 25 92 36 111 14 23 21 52 21 89 0 87 4 133 14 148 13 20 26 -6 26 -55 0
-46 -28 -193 -40 -209 -4 -5 -11 -28 -14 -49 -9 -50 -85 -277 -97 -293 -17
-20 -59 -166 -70 -238 -5 -38 -14 -83 -19 -100 -15 -49 -38 -157 -45 -210 -20
-160 -101 -447 -140 -495 -7 -8 -32 -51 -55 -95 -39 -71 -135 -224 -179 -281
-9 -12 -22 -30 -28 -40 -7 -11 -31 -45 -53 -78 -23 -32 -39 -63 -38 -68 2 -5
28 28 58 74 29 45 55 85 57 88 2 2 8 -1 12 -8 6 -11 16 -9 46 8 48 27 183 56
197 42 7 -7 3 -14 -11 -21 -25 -14 -61 -81 -61 -114 0 -26 42 -71 78 -84 14
-5 58 -4 110 4 48 7 101 10 117 7 28 -5 160 17 171 29 11 10 -8 49 -40 86 -56
63 -94 125 -106 171 -28 109 -155 157 -210 80 -24 -34 -38 -114 -21 -124 7 -5
11 2 11 17 0 35 20 90 38 105 41 32 130 -3 152 -61 6 -17 16 -40 21 -49 5 -10
9 -22 9 -27 0 -14 74 -123 99 -145 46 -42 27 -49 -159 -60 -52 -3 -117 -7
-145 -10 -116 -10 -139 85 -42 171 l33 29 -25 20 c-19 14 -38 18 -73 16 -58
-5 -144 -35 -141 -50 3 -13 -36 -37 -44 -28 -4 3 1 14 10 24 10 10 17 22 17
26 0 3 17 29 38 56 64 85 152 222 152 238 0 4 18 42 39 87 45 93 62 142 86
242 9 40 29 90 44 110 15 21 37 63 50 93 29 69 88 147 160 211 66 59 76 48 37
-35 -14 -30 -26 -63 -26 -74 0 -10 20 -41 45 -68 25 -27 45 -51 45 -55 0 -3
18 -12 39 -19 52 -17 147 -6 216 24 47 21 53 28 68 73 15 47 27 103 47 224 5
31 21 97 35 145 28 95 35 198 23 329 -4 39 -3 93 2 120 13 76 17 235 5 235
-10 -1 -65 -81 -65 -95 0 -6 -64 -87 -97 -122 -6 -7 -20 -24 -30 -37 -11 -13
-44 -39 -74 -56 -30 -18 -58 -38 -64 -44 -5 -6 -49 -40 -97 -76 -49 -35 -88
-67 -88 -70 0 -3 -20 -27 -45 -55 -53 -60 -69 -101 -63 -166 7 -71 21 -82 90
-76 l57 5 -92 -74 c-51 -40 -108 -94 -127 -119 -41 -53 -48 -42 -25 42 9 32
26 106 38 165 12 58 25 110 30 114 4 4 7 17 7 28 0 12 12 48 26 81 42 100 85
217 100 275 8 30 18 62 23 71 14 25 34 215 28 272 -4 50 -3 53 51 122 58 73
280 295 295 295 22 0 261 226 312 295 17 22 41 52 55 68 13 15 33 43 45 62
113 187 227 323 340 406 63 46 104 89 145 148 13 20 32 45 42 55 10 11 18 25
18 31 0 5 16 34 35 62 39 58 41 63 21 63 -7 0 -21 -15 -30 -32 -75 -145 -154
-248 -226 -294 -59 -37 -203 -184 -244 -249 -53 -82 -63 -97 -118 -176 -116
-168 -253 -312 -402 -424 -139 -103 -288 -261 -395 -418 -33 -48 -68 -61 -65
-24 2 25 86 147 101 147 7 0 13 7 13 16 0 45 181 240 324 349 80 62 116 95
222 206 81 86 117 133 212 274 103 154 188 242 282 294 60 33 123 89 160 143
22 32 40 63 40 67 0 5 18 33 40 62 47 63 54 85 18 57z m-1352 -1165 c-10 -10
-19 5 -10 18 6 11 8 11 12 0 2 -7 1 -15 -2 -18z m-172 -479 c22 -8 20 -31 -3
-44 -28 -14 -31 -13 -31 13 0 34 8 41 34 31z m108 -11 c19 -17 24 -43 9 -43
-6 0 -13 5 -16 10 -5 8 -11 8 -20 0 -13 -11 -45 -4 -45 10 0 40 39 53 72 23z
m-63 -69 l23 -17 -31 -13 c-17 -7 -31 -18 -31 -24 0 -5 -7 -10 -15 -10 -19 0
-19 13 0 50 18 35 22 36 54 14z m103 -19 c10 -36 2 -79 -18 -96 -8 -6 -14 -20
-14 -30 0 -10 -4 -20 -9 -23 -5 -3 -9 11 -8 32 0 20 -2 47 -6 60 -4 15 -2 22
9 22 19 0 18 26 -1 34 -25 9 -17 32 12 31 21 0 28 -6 35 -30z m523 -122 c-4
-60 -7 -143 -6 -185 1 -54 -2 -78 -10 -78 -8 0 -6 -7 4 -18 20 -22 16 -87 -13
-192 -11 -41 -25 -106 -31 -145 -16 -107 -47 -216 -74 -257 -19 -29 -33 -38
-72 -46 -27 -6 -75 -10 -107 -9 -56 3 -59 4 -112 59 -58 61 -60 70 -19 148 10
19 21 45 25 59 4 14 11 35 16 45 5 14 4 17 -4 12 -8 -5 -12 2 -12 19 0 24 -3
26 -24 21 -70 -17 -95 -17 -115 3 -15 15 -18 28 -14 63 7 52 15 68 67 136 35
45 144 139 150 130 37 -53 46 -68 46 -79 0 -6 11 -27 25 -45 14 -18 25 -43 25
-56 -1 -26 -22 -58 -39 -58 -22 0 -100 81 -106 111 -4 16 -11 29 -16 29 -12 0
-11 -7 3 -49 13 -37 41 -69 84 -98 l25 -16 -26 -27 c-36 -38 -31 -74 10 -78
76 -6 96 -14 135 -54 22 -23 43 -38 47 -35 4 4 -6 20 -20 35 -37 38 -34 48 15
58 23 5 43 15 46 22 5 16 -13 15 -54 -4 -22 -11 -47 -14 -71 -10 -21 3 -53 7
-72 9 -19 2 -36 8 -38 14 -2 6 17 32 42 59 26 27 62 73 81 102 26 40 40 52 59
52 14 0 25 -6 25 -13 0 -8 9 -22 20 -32 16 -14 20 -15 20 -4 0 8 -5 20 -11 26
-14 14 -3 33 20 33 9 0 26 7 37 15 18 14 15 15 -31 10 -27 -3 -60 -8 -72 -11
-29 -6 -31 21 -5 66 16 28 16 32 1 40 -9 6 -20 21 -23 35 -4 14 -10 25 -15 25
-5 0 -2 -21 6 -47 15 -47 14 -49 -16 -115 -16 -38 -34 -68 -38 -68 -14 1 -55
73 -45 79 5 3 12 17 16 31 l7 25 -18 -23 -18 -22 -19 35 c-11 19 -23 35 -28
35 -34 0 65 82 114 94 31 7 121 103 175 187 21 32 42 58 47 59 5 0 5 -46 1
-107z m-605 60 c0 -9 -10 -27 -22 -40 -22 -23 -18 -47 4 -25 7 7 16 12 20 12
14 0 9 -31 -7 -47 -12 -12 -19 -13 -30 -3 -21 18 -20 89 3 106 23 18 32 17 32
-3z m-80 -24 c12 -21 6 -54 -7 -46 -8 5 -147 -173 -186 -236 -23 -37 -42 -57
-56 -57 -5 0 -16 -8 -23 -18 -17 -24 -271 -213 -331 -246 -45 -25 -47 -26 -47
-7 0 11 -4 23 -10 26 -19 12 -9 22 48 45 85 35 219 123 286 188 78 76 186 202
186 218 0 15 108 154 120 154 5 0 14 -9 20 -21z m45 -129 c-3 -5 -11 -10 -16
-10 -6 0 -7 5 -4 10 3 6 11 10 16 10 6 0 7 -4 4 -10z m-737 -462 c23 -23 14
-48 -16 -48 -15 0 -33 -5 -39 -11 -17 -17 -31 -3 -26 25 3 16 15 29 32 35 35
13 35 13 49 -1z m-108 -53 c0 -35 -61 -73 -89 -56 -13 8 -13 12 -1 26 7 9 22
14 32 12 15 -4 18 -1 13 14 -5 15 -1 19 19 19 17 0 26 -6 26 -15z m30 -71 c0
-30 -3 -34 -16 -26 -9 5 -26 7 -38 4 -23 -6 -23 -6 23 50 20 23 31 13 31 -28z
m90 21 c0 -19 -5 -25 -23 -25 -13 0 -28 -5 -35 -12 -17 -17 -20 -8 -10 30 7
27 13 32 38 32 25 0 30 -4 30 -25z m-300 -20 c-7 -8 -19 -15 -27 -15 -13 0
-13 3 -3 15 7 8 19 15 27 15 13 0 13 -3 3 -15z m288 -57 c-19 -28 -53 -35 -62
-13 -9 24 -2 30 39 33 37 2 37 2 23 -20z m822 13 c0 -5 -13 -20 -28 -33 -37
-31 -111 -144 -119 -180 -3 -16 -10 -28 -15 -28 -15 0 -2 69 16 89 9 10 16 24
16 32 0 20 98 129 116 129 8 0 14 -4 14 -9z m-903 -18 c2 -5 -8 -22 -22 -37
-21 -23 -28 -25 -46 -16 -19 11 -19 13 -5 29 9 10 16 23 16 29 0 13 53 9 57
-5z m-172 -103 c10 -11 29 -20 42 -20 36 0 19 -17 -22 -22 -29 -3 -35 -1 -35
15 0 12 -6 17 -17 15 -10 -2 -18 -9 -18 -16 0 -7 -5 -16 -11 -20 -6 -4 -16
-16 -22 -27 -10 -18 -11 -16 -12 16 0 28 5 38 25 49 14 7 25 17 25 22 0 15 27
8 45 -12z m43 -137 c2 -38 8 -76 13 -85 5 -9 9 -27 8 -40 -1 -18 -3 -16 -10
11 -10 33 -24 35 -24 3 0 -9 -8 -18 -18 -20 -17 -4 -18 -2 -2 28 9 17 14 37
12 43 -3 7 -10 -1 -18 -18 -11 -27 -13 -28 -16 -9 -2 12 5 39 16 60 12 21 21
54 21 73 0 59 13 25 18 -46z m-183 35 c-7 -57 -7 -110 0 -193 7 -77 7 -79 -10
-57 -12 17 -20 21 -28 13 -23 -23 -40 -13 -33 19 3 17 1 30 -4 30 -13 0 -13
27 0 35 6 3 14 -5 20 -19 16 -42 21 -30 16 39 -3 50 -1 65 10 65 8 0 11 6 8
15 -4 8 -15 15 -25 15 -28 0 -23 25 9 49 37 28 42 26 37 -11z m106 -113 c-4
-39 -6 -88 -4 -110 l4 -40 -22 43 c-23 46 -40 50 -50 11 -5 -20 -7 -16 -14 23
-8 53 -2 68 26 68 10 0 19 7 19 15 0 8 6 14 13 13 7 -2 13 10 15 31 2 20 7 30
13 24 5 -5 6 -37 0 -78z m-26 55 c3 -5 1 -10 -4 -10 -6 0 -11 5 -11 10 0 6 2
10 4 10 3 0 8 -4 11 -10z m-149 -68 c-12 -11 -18 7 -10 30 l8 23 4 -23 c2 -13
1 -26 -2 -30z m214 -59 c0 -5 -5 -15 -10 -23 -8 -12 -10 -11 -10 8 0 12 5 22
10 22 6 0 10 -3 10 -7z m6 -55 c-21 -35 -26 -39 -26 -20 0 12 4 22 9 22 5 0
14 14 22 32 7 17 15 26 17 20 2 -6 -8 -31 -22 -54z m-243 13 c-3 -10 0 -22 6
-25 6 -4 11 -19 11 -34 0 -38 -17 -15 -25 36 -4 26 -3 42 3 42 6 0 8 -8 5 -19z
m297 -3 c0 -19 -2 -20 -10 -8 -13 19 -13 30 0 30 6 0 10 -10 10 -22z m-130
-18 c0 -10 -5 -20 -11 -22 -6 -2 -2 -22 11 -53 27 -61 34 -95 20 -95 -5 0 -10
9 -10 20 0 17 -4 19 -27 14 -23 -6 -25 -5 -19 12 16 38 18 54 8 54 -6 0 -13
-6 -15 -12 -3 -7 -6 -1 -6 13 -1 35 27 101 39 94 6 -3 10 -15 10 -25z m76 -59
c-15 -34 -26 -47 -29 -37 -4 9 -1 21 6 28 7 7 18 26 25 42 7 16 15 26 18 24 2
-3 -6 -28 -20 -57z m-165 27 c14 -18 18 -39 19 -90 0 -38 -3 -68 -7 -68 -5 0
-7 24 -7 53 2 62 -4 89 -17 82 -5 -4 -6 -17 -3 -31 4 -14 2 -24 -5 -24 -6 0
-11 7 -11 15 0 8 -5 15 -10 15 -6 0 -8 11 -4 28 12 50 17 52 45 20z m117 -29
l-5 -24 -10 25 c-12 28 -6 47 9 32 5 -5 8 -20 6 -33z m-302 -16 c-10 -26 -18
-8 -9 23 5 21 8 24 11 11 2 -10 1 -25 -2 -34z m378 -18 c3 -9 0 -15 -9 -15 -8
0 -15 7 -15 15 0 8 4 15 9 15 5 0 11 -7 15 -15z m-244 -20 c0 -14 -4 -25 -10
-25 -5 0 -10 11 -10 25 0 14 5 25 10 25 6 0 10 -11 10 -25z m40 -36 c0 -16 -2
-18 -14 -7 -7 7 -11 19 -9 25 7 18 23 5 23 -18z m52 -31 c-8 -8 -9 -4 -5 13 4
13 8 18 11 10 2 -7 -1 -18 -6 -23z m67 -63 c1 -16 -1 -17 -8 -5 -6 8 -7 18 -5
22 3 4 -4 8 -15 8 -22 0 -25 10 -14 50 6 23 7 23 24 -15 10 -22 18 -49 18 -60z
m90 47 c6 -20 6 -32 0 -32 -5 0 -9 7 -9 15 0 27 -1 30 -16 38 -8 5 -12 13 -8
18 9 15 23 -1 33 -39z m-241 26 c-2 -6 -10 -14 -16 -16 -7 -2 -10 2 -6 12 7
18 28 22 22 4z m-118 -8 c0 -5 -4 -10 -10 -10 -5 0 -10 5 -10 10 0 6 5 10 10
10 6 0 10 -4 10 -10z m177 -42 c-3 -8 -6 -5 -6 6 -1 11 2 17 5 13 3 -3 4 -12
1 -19z m-170 -10 c-3 -8 -6 -5 -6 6 -1 11 2 17 5 13 3 -3 4 -12 1 -19z m314
-21 c-6 -15 -15 -27 -21 -27 -13 0 -13 13 2 45 15 33 32 17 19 -18z m-268 12
c3 -12 10 -18 16 -15 11 7 13 -1 36 -174 9 -63 22 -155 29 -205 8 -49 13 -91
12 -91 0 -1 -12 -5 -26 -9 -20 -6 -23 -5 -12 6 14 15 16 65 2 74 -5 3 -7 19
-3 35 3 19 1 30 -6 30 -6 0 -11 -10 -12 -22 0 -13 -3 -17 -6 -10 -3 7 0 26 6
42 8 23 7 31 -5 38 -7 4 -15 21 -16 37 -1 17 -4 34 -6 39 -3 5 -5 42 -6 83 0
40 -3 73 -8 73 -4 0 -8 11 -8 24 0 14 -4 27 -10 31 -10 6 -2 35 10 35 4 0 10
-9 13 -21z m67 -9 c0 -11 -4 -20 -10 -20 -5 0 -10 9 -10 20 0 11 5 20 10 20 6
0 10 -9 10 -20z m112 -9 c-1 -7 7 -25 18 -41 11 -15 19 -39 19 -52 -2 -23 -2
-23 -6 0 -2 12 -11 22 -19 22 -17 0 -17 -1 -4 -35 8 -21 6 -30 -9 -46 -18 -20
-18 -20 -23 5 -3 13 1 39 9 56 16 40 16 40 -2 40 -10 0 -15 10 -15 34 0 27 4
34 18 31 9 -1 16 -8 14 -14z m-47 -78 c3 -49 8 -109 11 -135 5 -36 3 -48 -8
-48 -11 0 -11 -2 1 -9 21 -14 5 -46 -24 -46 -28 0 -32 12 -10 41 17 22 19 44
5 44 -5 0 -10 -8 -10 -17 0 -12 -3 -14 -10 -7 -8 8 -8 19 0 38 14 38 13 49 -5
42 -20 -7 -19 0 7 36 17 25 19 34 10 49 -16 26 -15 39 4 39 13 0 15 7 11 30
-4 17 -3 30 2 30 5 0 12 -39 16 -87z m162 40 c-3 -10 -5 -4 -5 12 0 17 2 24 5
18 2 -7 2 -21 0 -30z m-322 18 c3 -5 1 -12 -5 -16 -5 -3 -10 1 -10 9 0 18 6
21 15 7z m104 -31 c-6 -16 -13 -30 -15 -30 -2 0 -4 14 -4 30 0 20 5 30 14 30
12 0 13 -6 5 -30z m207 -23 c8 -4 14 -14 14 -22 0 -9 -8 -6 -26 10 -16 15 -23
29 -18 36 6 10 9 10 12 -1 3 -8 11 -19 18 -23z m-336 -9 c0 -5 -7 -8 -16 -8
-9 0 -14 -6 -11 -13 2 -7 -4 -23 -14 -36 -21 -26 -24 -14 -9 38 11 39 31 56
42 38 4 -7 8 -15 8 -19z m31 -11 c-8 -8 -11 -7 -11 4 0 9 3 19 7 23 4 4 9 2
11 -4 3 -7 -1 -17 -7 -23z m104 -6 c3 -5 1 -12 -5 -16 -5 -3 -10 1 -10 9 0 18
6 21 15 7z m185 -41 c0 -11 -5 -20 -11 -20 -7 0 -18 -8 -25 -17 -12 -17 -14
-17 -30 -1 -20 19 -11 38 15 31 11 -3 21 2 24 11 9 23 27 20 27 -4z m-323 -60
c13 -34 11 -60 -3 -60 -8 0 -14 -8 -14 -17 0 -15 -2 -16 -10 -3 -5 9 -5 17 1
21 14 8 21 57 10 64 -6 3 -7 13 -4 22 5 14 7 14 11 2 2 -7 6 -21 9 -29z m267
-94 l-4 -41 11 43 c6 23 16 42 23 42 19 0 26 -68 8 -75 -15 -5 -8 -61 9 -80
14 -14 11 -23 -8 -21 -22 1 -19 -30 4 -56 9 -10 13 -25 9 -34 -6 -16 -8 -16
-20 1 -12 16 -14 4 -22 -91 -9 -116 -9 -117 1 -150 6 -19 3 -21 -39 -19 -31 1
-46 -3 -46 -11 0 -7 -10 -20 -22 -29 -21 -14 -24 -14 -35 2 -11 13 -10 21 2
39 20 31 19 37 -4 29 -20 -6 -34 14 -23 32 9 13 65 9 70 -5 9 -27 20 -10 12
18 -6 21 -4 41 5 63 l14 32 1 -45 c2 -67 16 -15 25 96 4 49 11 92 16 95 5 3
12 29 16 58 5 41 3 51 -8 49 -10 -2 -13 12 -13 60 0 47 -3 61 -13 58 -14 -6
-18 25 -6 38 14 14 41 -57 37 -98z m56 78 c0 -8 -4 -14 -9 -14 -11 0 -22 26
-14 34 9 9 23 -3 23 -20z m-305 -135 c2 -29 9 -57 15 -63 5 -5 10 -19 10 -29
0 -13 5 -17 15 -13 19 7 19 -1 0 -20 -13 -14 -16 -12 -25 13 -6 15 -14 37 -19
48 -22 47 -27 79 -17 101 14 30 17 25 21 -37z m35 -1 c0 -19 -2 -20 -10 -8
-13 19 -13 30 0 30 6 0 10 -10 10 -22z m114 -3 c-4 -8 -8 -15 -10 -15 -2 0 -4
7 -4 15 0 8 4 15 10 15 5 0 7 -7 4 -15z m52 -123 c3 -81 1 -101 -11 -105 -18
-7 -28 24 -27 83 0 25 -5 51 -10 58 -8 9 -7 24 2 53 12 34 15 38 28 26 9 -10
15 -46 18 -115z m34 55 c0 -16 -4 -26 -10 -22 -5 3 -10 23 -10 43 0 28 3 33
10 22 5 -8 10 -28 10 -43z m-190 17 c0 -8 -4 -12 -10 -9 -5 3 -10 10 -10 16 0
5 5 9 10 9 6 0 10 -7 10 -16z m42 -9 c3 -14 1 -25 -3 -25 -5 0 -9 4 -9 9 0 5
-3 16 -6 25 -3 9 -2 16 4 16 5 0 12 -11 14 -25z m-14 -132 c18 -91 20 -113 12
-113 -18 0 -32 33 -33 80 -1 32 -6 50 -14 50 -7 0 -13 2 -13 5 0 8 24 34 31
35 4 0 11 -26 17 -57z m65 20 c-3 -7 -10 -13 -16 -13 -6 0 -1 -9 11 -20 23
-22 29 -64 11 -76 -14 -8 -25 9 -40 57 -10 30 -8 41 6 63 13 19 20 23 26 15 4
-7 5 -18 2 -26z m13 -150 c-10 -10 -19 5 -10 18 6 11 8 11 12 0 2 -7 1 -15 -2
-18z m-26 7 c0 -5 -5 -10 -11 -10 -5 0 -7 5 -4 10 3 6 8 10 11 10 2 0 4 -4 4
-10z"/>
<path d="M3706 3575 c-9 -21 -16 -44 -16 -53 0 -8 -8 -29 -19 -46 -10 -17 -22
-41 -26 -54 -7 -23 -6 -23 22 -8 16 8 35 22 42 30 11 13 11 16 -3 16 -17 0
-14 32 10 105 17 51 10 58 -10 10z"/>
<path d="M3284 3190 c5 -28 4 -30 -25 -30 -18 0 -28 -4 -24 -10 3 -5 19 -10
35 -10 21 0 40 -11 69 -42 30 -32 41 -38 41 -25 0 10 -11 22 -24 27 -13 5 -27
18 -31 29 -3 12 -11 21 -16 21 -5 0 -9 16 -9 35 0 19 -5 35 -11 35 -7 0 -9
-11 -5 -30z"/>
<path d="M3393 2993 c8 -16 17 -53 21 -83 4 -30 11 -62 17 -70 7 -11 8 -6 4
18 -4 17 -4 32 -1 32 11 0 91 -52 98 -64 5 -8 8 -7 8 2 0 10 7 9 30 -3 34 -18
40 -18 40 -5 0 6 -15 17 -32 24 -135 58 -133 57 -158 139 -6 20 -18 37 -26 37
-13 0 -13 -4 -1 -27z"/>
<path d="M3640 2970 c0 -5 4 -10 9 -10 6 0 13 5 16 10 3 6 -1 10 -9 10 -9 0
-16 -4 -16 -10z"/>
<path d="M3441 2815 c0 -5 6 -21 14 -35 8 -14 14 -20 14 -15 0 6 -6 21 -14 35
-8 14 -14 21 -14 15z"/>
<path d="M3349 5454 c-12 -14 -11 -16 5 -13 11 2 21 10 24 17 5 17 -13 15 -29
-4z"/>
<path d="M3076 5445 c-17 -18 -22 -45 -7 -45 5 0 11 7 15 15 3 8 13 15 22 15
8 0 14 5 12 12 -7 19 -24 20 -42 3z"/>
<path d="M3440 5430 c0 -5 7 -10 16 -10 8 0 12 5 9 10 -3 6 -10 10 -16 10 -5
0 -9 -4 -9 -10z"/>
<path d="M2941 5412 c-6 -12 -11 -27 -11 -34 0 -7 7 0 15 16 9 16 13 31 11 33
-2 3 -9 -4 -15 -15z"/>
<path d="M2673 5385 c1 -21 8 -31 22 -33 11 -2 16 0 10 5 -6 4 -16 19 -23 33
l-12 25 3 -30z"/>
<path d="M2825 5390 c-18 -20 -14 -57 5 -45 6 4 8 10 5 15 -3 5 -1 19 5 30 14
25 8 26 -15 0z"/>
<path d="M3132 5378 c-7 -7 -12 -19 -12 -27 0 -11 5 -9 20 7 11 12 20 24 20
27 0 9 -16 5 -28 -7z"/>
<path d="M3209 5349 c-15 -15 -19 -28 -14 -46 8 -34 36 -71 58 -79 56 -18 112
105 63 138 -23 16 -86 8 -107 -13z"/>
<path d="M3436 5352 c-4 -13 -5 -26 -2 -29 10 -11 18 4 14 29 l-4 23 -8 -23z"/>
<path d="M2581 5306 c-16 -19 18 -60 39 -46 13 8 12 11 -4 23 -11 8 -16 19
-12 25 10 17 -9 15 -23 -2z"/>
<path d="M2940 5280 c-6 -11 -8 -25 -5 -30 8 -13 42 -13 50 0 4 6 1 9 -7 8 -8
-2 -13 6 -12 20 1 27 -12 29 -26 2z"/>
<path d="M3497 5276 c-6 -16 2 -28 14 -20 12 7 11 34 0 34 -5 0 -11 -6 -14
-14z"/>
<path d="M3056 5244 c-3 -9 -6 -23 -6 -31 0 -12 6 -10 23 8 13 13 22 27 20 32
-7 13 -31 7 -37 -9z"/>
<path d="M2698 5234 c-5 -4 -8 -22 -8 -41 0 -38 2 -37 -37 -18 -46 23 -173 10
-173 -17 0 -6 13 -7 33 -2 42 10 119 7 152 -6 14 -5 40 -10 56 -10 25 0 29 3
24 19 -3 11 -1 22 5 26 5 3 10 11 10 18 0 8 -3 8 -12 -1 -20 -20 -36 -14 -40
14 -2 14 -6 22 -10 18z"/>
<path d="M3513 5233 c-15 -5 -17 -23 -4 -23 5 0 11 7 15 15 3 8 4 15 3 14 -1
0 -8 -3 -14 -6z"/>
<path d="M3565 5228 c-7 -16 22 -67 38 -68 14 0 7 35 -13 60 -16 22 -20 23
-25 8z"/>
<path d="M2836 5204 c-7 -17 9 -54 24 -54 17 0 40 12 40 21 0 5 -10 9 -21 9
-16 0 -20 5 -16 20 6 24 -18 28 -27 4z"/>
<path d="M3410 5189 c0 -24 23 -21 28 4 2 10 -3 17 -12 17 -10 0 -16 -9 -16
-21z"/>
<path d="M3520 5192 c0 -11 22 -32 32 -32 5 0 4 9 -2 20 -11 20 -30 28 -30 12z"/>
<path d="M3142 5178 c-18 -18 -15 -36 7 -48 20 -10 40 3 22 15 -6 3 -8 12 -5
19 7 19 -10 28 -24 14z"/>
<path d="M3460 5150 c0 -5 5 -10 10 -10 6 0 10 5 10 10 0 6 -4 10 -10 10 -5 0
-10 -4 -10 -10z"/>
<path d="M2770 5122 c0 -4 19 -19 41 -32 23 -14 66 -49 95 -77 29 -29 60 -53
70 -53 23 0 -78 101 -141 141 -46 29 -65 35 -65 21z"/>
<path d="M3300 5090 c0 -11 5 -20 10 -20 6 0 10 9 10 20 0 11 -4 20 -10 20 -5
0 -10 -9 -10 -20z"/>
<path d="M3624 5095 c-8 -20 3 -48 16 -40 13 8 13 55 0 55 -6 0 -13 -7 -16
-15z"/>
<path d="M2397 5093 c-4 -3 -7 -13 -7 -22 1 -13 3 -13 11 2 11 19 8 33 -4 20z"/>
<path d="M3025 5090 c-10 -16 5 -50 21 -50 16 0 19 16 4 25 -5 3 -7 12 -3 20
6 17 -12 21 -22 5z"/>
<path d="M3520 5070 c0 -13 11 -13 30 0 12 8 11 10 -7 10 -13 0 -23 -4 -23
-10z"/>
<path d="M3173 5045 c-9 -24 23 -53 52 -47 32 6 32 22 0 22 -18 0 -25 5 -25
20 0 24 -18 27 -27 5z"/>
<path d="M2247 4984 c-19 -20 -43 -51 -51 -69 -9 -19 -34 -53 -56 -76 -22 -24
-43 -52 -46 -63 -8 -24 -35 -56 -116 -136 -32 -31 -58 -60 -58 -65 0 -4 7 -2
15 5 9 7 15 8 15 2 0 -12 -90 -224 -116 -273 -10 -19 -19 -48 -19 -65 -1 -22
-14 -44 -44 -75 -46 -48 -146 -194 -168 -247 -7 -18 -11 -43 -8 -55 4 -13 -1
-43 -9 -68 -9 -24 -16 -55 -16 -68 0 -15 -5 -21 -13 -18 -9 3 -22 -11 -35 -39
-26 -53 -26 -54 -6 -54 12 0 14 -4 7 -12 -5 -7 -22 -34 -36 -60 -25 -42 -26
-48 -11 -62 18 -19 12 -46 -23 -98 -25 -37 -24 -58 3 -58 18 0 18 -14 -1 -30
-8 -7 -15 -19 -15 -26 0 -8 -5 -23 -12 -34 -10 -15 -9 -22 5 -38 16 -17 16
-21 -3 -60 -34 -70 -21 -103 26 -67 32 24 70 12 58 -18 -8 -22 -22 -22 -26 1
-3 13 -9 9 -25 -18 -12 -19 -26 -40 -31 -46 -14 -16 -35 -85 -28 -92 4 -3 16
0 27 7 33 20 33 6 0 -39 -26 -36 -32 -70 -12 -70 3 0 19 28 34 62 19 43 24 64
16 68 -6 4 -7 10 -2 13 5 3 15 2 23 -4 23 -13 30 -11 30 10 0 11 5 23 11 27 6
3 9 21 7 39 -2 19 0 31 4 29 5 -3 11 2 14 11 4 9 13 14 20 11 7 -3 16 3 19 14
3 10 12 21 20 24 23 9 5 -26 -29 -56 -17 -14 -28 -30 -23 -34 12 -12 77 57 77
82 0 13 5 26 10 29 6 3 10 11 10 17 0 6 -9 3 -19 -6 -11 -10 -27 -16 -36 -14
-13 2 -7 15 27 63 24 33 61 89 82 125 62 103 135 198 158 203 11 3 18 9 15 14
-3 5 11 30 31 57 20 27 42 56 47 64 6 9 36 56 69 105 32 48 55 91 52 94 -7 8
-6 9 -41 -52 -33 -58 -105 -158 -117 -163 -4 -2 -8 -9 -8 -16 0 -7 -12 -26
-26 -41 -14 -15 -23 -34 -20 -41 3 -8 -1 -14 -11 -14 -8 0 -25 -10 -37 -23
-49 -53 -129 -161 -142 -192 -7 -19 -18 -37 -24 -40 -6 -4 -20 -26 -31 -50
-12 -25 -39 -60 -60 -80 -75 -68 -78 -38 -11 103 9 19 26 46 39 60 13 15 23
39 23 53 0 14 7 34 15 45 8 10 14 26 14 34 1 22 -36 -26 -61 -80 -33 -74 -89
-122 -100 -88 -5 13 9 62 23 88 5 8 18 33 30 55 12 22 40 65 63 95 23 30 50
72 61 93 11 21 41 65 68 98 26 32 47 62 47 67 0 16 -131 -136 -150 -174 -12
-23 -32 -54 -47 -70 -23 -25 -26 -26 -35 -10 -14 24 -1 123 17 130 18 6 49 66
35 66 -5 0 -10 8 -10 18 1 31 45 169 55 172 23 5 36 25 32 49 -6 29 4 51 46
102 32 40 150 208 181 259 12 19 30 62 40 95 10 33 24 78 31 100 7 22 21 68
31 103 14 52 26 71 63 103 27 25 52 38 63 36 9 -3 25 1 35 9 10 7 27 14 39 14
11 0 29 7 40 15 10 8 27 15 37 15 9 0 17 4 17 9 0 15 57 23 111 16 96 -13 149
-90 149 -214 0 -114 -20 -219 -53 -281 -36 -68 -131 -231 -166 -285 -44 -69
-52 -88 -66 -155 -21 -104 -56 -234 -66 -245 -5 -5 -9 -19 -9 -30 0 -23 -78
-147 -113 -180 -12 -11 -16 -13 -9 -5 22 26 12 34 -13 10 -35 -33 -43 -18 -11
20 14 17 26 38 26 46 0 8 7 29 16 45 15 29 15 30 -5 20 -10 -6 -22 -16 -25
-23 -3 -7 -3 -2 0 11 9 35 -12 18 -36 -29 -16 -31 -17 -38 -5 -34 18 7 19 3 3
-31 -6 -14 -17 -24 -25 -21 -13 5 -50 -37 -76 -89 -8 -16 -27 -43 -41 -58 -14
-15 -26 -32 -26 -37 0 -5 -11 -12 -25 -16 -18 -4 -24 -11 -21 -23 4 -11 -12
-29 -53 -59 -32 -23 -78 -63 -104 -90 -131 -137 -167 -178 -167 -192 0 -9 -16
-35 -36 -58 -31 -37 -30 -56 2 -34 14 9 84 118 84 130 0 13 198 212 211 212 6
0 -7 -17 -30 -38 -22 -20 -41 -42 -41 -48 0 -6 -11 -21 -25 -34 -13 -12 -22
-26 -20 -30 6 -9 -11 -42 -41 -85 -12 -17 -25 -45 -29 -63 -6 -30 -3 -38 26
-68 18 -19 37 -34 43 -34 5 0 18 -7 28 -17 17 -16 18 -15 14 18 -2 23 -8 33
-18 31 -9 -1 -20 3 -25 10 -14 18 -22 67 -12 74 14 8 74 -67 79 -100 3 -17 10
-29 15 -26 14 7 9 88 -7 105 -37 40 -37 41 -17 71 10 16 19 40 19 53 0 20 -4
23 -25 19 -31 -6 -33 16 -6 50 23 26 32 28 25 5 -3 -10 5 -5 20 12 14 17 29
39 32 50 7 21 69 81 185 180 98 83 176 162 209 210 51 75 99 180 115 254 9 41
18 78 21 82 7 12 34 -1 34 -18 0 -8 8 -13 17 -11 10 2 18 -3 19 -9 1 -7 2 -18
3 -25 2 -23 19 7 35 64 9 32 19 64 22 73 3 8 2 15 -3 15 -5 0 -19 -22 -30 -50
-12 -27 -26 -50 -31 -50 -12 0 -4 32 22 94 12 30 14 42 5 50 -9 8 -10 8 -5 -1
3 -6 2 -14 -4 -18 -14 -9 -13 38 2 53 9 9 8 12 -4 12 -13 0 -11 10 13 58 16
31 42 78 57 103 125 212 137 240 150 349 24 194 -45 334 -175 355 -34 5 -53 2
-95 -18 -29 -13 -70 -28 -92 -31 -21 -4 -55 -16 -74 -26 -20 -11 -37 -18 -39
-16 -7 6 71 115 79 110 3 -2 5 -18 3 -34 -2 -17 -1 -30 3 -30 13 0 58 124 54
151 -2 8 7 24 18 34 20 18 20 18 20 -5 0 -18 3 -21 11 -13 11 11 4 53 -10 53
-4 0 -24 -16 -44 -36z m-317 -543 c0 -14 -29 -77 -30 -65 0 26 13 74 21 74 5
0 9 -4 9 -9z m-50 -126 c-7 -14 -17 -25 -21 -25 -9 0 -1 29 14 48 16 21 21 4
7 -23z m446 -420 c-21 -67 -39 -90 -27 -32 7 29 38 97 44 97 2 0 -6 -29 -17
-65z m-656 31 c0 -3 -4 -8 -10 -11 -5 -3 -10 -1 -10 4 0 6 5 11 10 11 6 0 10
-2 10 -4z m667 -98 c-3 -8 -6 -5 -6 6 -1 11 2 17 5 13 3 -3 4 -12 1 -19z
m-747 -143 c0 -19 -18 -38 -29 -31 -19 12 -13 42 9 42 11 0 20 -5 20 -11z
m-30 -220 c0 -3 -12 -24 -27 -46 -32 -49 -53 -38 -28 15 11 23 24 36 36 36 11
0 19 -2 19 -5z m455 -67 c4 -13 8 -26 9 -29 1 -8 -127 -119 -137 -119 -5 0 2
13 16 30 14 16 39 54 57 85 17 30 35 55 40 55 4 0 11 -10 15 -22z m-507 -205
c-19 -26 -37 -57 -41 -67 -4 -10 -10 -16 -13 -13 -9 9 38 107 52 107 6 0 15 7
18 16 4 9 9 14 12 11 3 -3 -10 -27 -28 -54z m-28 -203 c-6 -12 -14 -19 -17
-17 -2 3 1 15 7 27 6 12 14 19 17 17 2 -3 -1 -15 -7 -27z m170 -79 c0 -16 -8
-37 -17 -47 -17 -17 -18 -17 -21 0 -2 10 3 25 12 35 9 10 16 23 16 29 0 7 2
12 5 12 3 0 5 -13 5 -29z"/>
<path d="M3600 4990 c-12 -8 -11 -10 7 -10 12 0 25 5 28 10 8 13 -15 13 -35 0z"/>
<path d="M3150 4975 c0 -8 5 -15 10 -15 6 0 10 7 10 15 0 8 -4 15 -10 15 -5 0
-10 -7 -10 -15z"/>
<path d="M3065 4935 c30 -25 55 -32 55 -16 0 13 -46 41 -67 41 -14 -1 -12 -6
12 -25z"/>
<path d="M3620 4939 c0 -5 5 -7 10 -4 6 3 10 8 10 11 0 2 -4 4 -10 4 -5 0 -10
-5 -10 -11z"/>
<path d="M3137 4913 c-12 -11 -8 -20 11 -25 12 -3 24 2 31 13 10 17 8 19 -12
19 -13 0 -27 -3 -30 -7z"/>
<path d="M2271 4863 c-16 -17 -11 -25 8 -14 7 5 12 13 10 19 -2 6 -10 4 -18
-5z"/>
<path d="M3281 4871 c-14 -4 -27 -13 -29 -20 -3 -8 1 -12 9 -9 15 5 59 -34 59
-52 0 -6 5 -8 10 -5 6 3 10 17 10 31 0 15 -4 23 -10 19 -7 -4 -9 2 -4 19 7 28
1 30 -45 17z"/>
<path d="M3150 4800 c0 -5 5 -10 10 -10 6 0 10 5 10 10 0 6 -4 10 -10 10 -5 0
-10 -4 -10 -10z"/>
<path d="M3207 4783 c-4 -3 -7 -11 -7 -17 0 -6 5 -5 12 2 6 6 9 14 7 17 -3 3
-9 2 -12 -2z"/>
<path d="M6832 4770 c-30 -28 -28 -44 3 -24 14 9 25 23 25 30 0 18 -2 18 -28
-6z"/>
<path d="M2296 4744 c-4 -10 -1 -14 6 -12 15 5 23 28 10 28 -5 0 -13 -7 -16
-16z"/>
<path d="M3226 4751 c-4 -7 -5 -15 -2 -18 9 -9 19 4 14 18 -4 11 -6 11 -12 0z"/>
<path d="M6900 4744 c0 -8 5 -12 10 -9 6 3 10 10 10 16 0 5 -4 9 -10 9 -5 0
-10 -7 -10 -16z"/>
<path d="M3296 4715 c-3 -8 -1 -15 4 -15 6 0 10 7 10 15 0 8 -2 15 -4 15 -2 0
-6 -7 -10 -15z"/>
<path d="M2370 4709 c0 -5 5 -7 10 -4 6 3 10 8 10 11 0 2 -4 4 -10 4 -5 0 -10
-5 -10 -11z"/>
<path d="M2295 4680 c-10 -11 -16 -22 -13 -25 3 -3 13 4 23 15 10 11 16 22 13
25 -3 3 -13 -4 -23 -15z"/>
<path d="M2369 4668 c-21 -17 -52 -68 -46 -75 3 -2 11 6 17 19 7 12 22 33 33
46 22 24 20 30 -4 10z"/>
<path d="M2105 4660 c-3 -5 -1 -10 4 -10 6 0 11 5 11 10 0 6 -2 10 -4 10 -3 0
-8 -4 -11 -10z"/>
<path d="M2413 4638 c-16 -20 -44 -81 -39 -85 2 -2 16 17 30 43 25 45 30 69 9
42z"/>
<path d="M6641 4614 c-38 -64 -53 -107 -40 -115 7 -4 8 -13 4 -20 -6 -11 -5
-11 4 -3 7 6 13 27 14 46 2 26 12 43 40 67 20 18 37 38 37 45 0 6 -7 3 -14 -6
-18 -24 -30 -23 -23 2 7 29 2 25 -22 -16z"/>
<path d="M2103 4613 c-9 -16 -30 -41 -45 -57 -32 -34 -37 -52 -10 -35 24 15
96 119 83 119 -6 0 -18 -12 -28 -27z"/>
<path d="M6752 4571 c-23 -32 -46 -71 -52 -86 -5 -14 -23 -46 -40 -69 -16 -24
-27 -46 -24 -48 2 -3 -10 -32 -29 -64 -18 -32 -39 -86 -47 -119 -7 -33 -20
-75 -27 -93 -8 -18 -11 -37 -8 -42 7 -11 -15 -60 -27 -60 -4 0 -8 8 -9 18 0
14 -2 14 -9 -3 -5 -11 -11 -29 -14 -39 -9 -26 -15 -17 -21 30 -10 74 -21 108
-34 112 -11 4 -12 -4 -7 -32 3 -20 9 -52 12 -72 5 -28 4 -36 -7 -32 -8 3 -21
44 -34 106 -22 109 -41 150 -32 66 9 -78 48 -206 62 -200 25 9 37 -9 24 -37
-9 -20 -15 -24 -25 -17 -8 8 -14 7 -17 -2 -10 -24 -37 23 -37 64 0 21 -4 38
-10 38 -15 0 -12 -77 4 -109 12 -22 13 -43 5 -105 -5 -42 -7 -81 -4 -86 7 -11
-20 -53 -67 -108 -15 -18 -28 -38 -28 -44 0 -10 23 13 68 67 39 48 60 90 52
105 -10 19 -2 88 11 96 5 3 8 -20 6 -50 -2 -31 1 -56 6 -56 17 0 -4 -53 -38
-93 -46 -53 -135 -231 -135 -268 0 -42 22 -32 32 14 4 21 18 58 31 85 14 26
30 63 36 83 6 20 23 47 38 60 l26 24 -6 -25 c-3 -14 -9 -56 -13 -95 -4 -38
-15 -94 -26 -124 -10 -30 -18 -69 -18 -87 0 -18 -9 -53 -20 -79 -11 -26 -20
-55 -20 -66 0 -11 -11 -51 -24 -89 -14 -38 -21 -72 -17 -74 5 -3 16 23 26 57
9 34 21 72 26 85 5 13 9 31 9 41 0 10 8 40 19 67 21 54 37 131 52 244 6 41 17
93 24 115 8 22 16 51 19 65 3 14 21 52 41 85 24 39 38 77 42 110 7 67 32 158
47 170 7 6 36 44 64 85 28 41 64 91 78 110 22 28 19 27 -12 -7 -50 -53 -104
-127 -104 -140 0 -6 -7 -17 -16 -24 -15 -12 -16 -9 -9 31 17 104 40 170 86
247 27 45 49 87 49 93 0 23 59 137 93 183 20 26 33 47 28 47 -4 0 -27 -26 -49
-59z m-242 -621 c0 -5 -4 -10 -10 -10 -5 0 -10 5 -10 10 0 6 5 10 10 10 6 0
10 -4 10 -10z"/>
<path d="M2164 4560 c-32 -48 -22 -68 12 -25 21 27 33 65 19 65 -3 0 -17 -18
-31 -40z"/>
<path d="M2280 4570 c0 -5 7 -10 16 -10 8 0 12 5 9 10 -3 6 -10 10 -16 10 -5
0 -9 -4 -9 -10z"/>
<path d="M2435 4498 c-22 -51 -75 -118 -92 -118 -7 0 -13 -4 -13 -10 0 -19 15
-10 60 33 59 58 66 68 75 105 10 46 -8 39 -30 -10z"/>
<path d="M2072 4435 c-23 -36 -37 -65 -30 -65 11 0 88 110 88 125 0 18 -21 -4
-58 -60z"/>
<path d="M2194 4458 c-4 -7 -14 -24 -23 -38 -14 -23 -13 -23 17 4 18 17 32 33
32 38 0 12 -18 9 -26 -4z"/>
<path d="M2238 4419 c-27 -38 -37 -79 -19 -79 4 0 18 24 31 53 18 42 23 48 29
33 6 -16 8 -17 13 -4 6 14 -8 39 -21 38 -4 -1 -18 -19 -33 -41z"/>
<path d="M6475 4410 c-3 -5 -3 -14 0 -20 3 -5 -2 -45 -10 -89 -14 -68 -16
-164 -5 -271 0 -2 4 0 10 6 8 8 22 384 14 384 -1 0 -6 -4 -9 -10z"/>
<path d="M1988 4342 c-10 -20 -16 -37 -15 -38 1 -2 13 6 27 16 19 14 22 22 14
38 -8 18 -10 17 -26 -16z"/>
<path d="M2580 4355 c-6 -8 -9 -19 -5 -25 11 -17 22 -11 27 15 6 28 -3 32 -22
10z"/>
<path d="M2300 4333 c-1 -20 -61 -76 -82 -77 -13 -1 -23 -7 -23 -16 0 -18 41
-16 82 5 56 29 54 -29 -4 -92 l-34 -38 4 28 c4 26 3 27 -11 14 -17 -18 -10
-47 13 -47 29 0 148 171 130 188 -2 3 -11 -1 -20 -8 -8 -7 -15 -9 -15 -5 0 4
-7 2 -15 -5 -19 -16 -19 -1 0 27 13 19 13 22 -1 27 -20 8 -24 8 -24 -1z"/>
<path d="M7545 4320 c-3 -5 1 -10 10 -10 9 0 13 5 10 10 -3 6 -8 10 -10 10 -2
0 -7 -4 -10 -10z"/>
<path d="M2584 4286 c-4 -11 -1 -22 7 -27 31 -19 38 -6 14 25 -14 18 -15 18
-21 2z"/>
<path d="M2041 4248 c-11 -18 -38 -51 -60 -73 -24 -23 -41 -48 -41 -62 0 -15
-5 -21 -14 -17 -7 3 -16 -2 -19 -10 -4 -9 -4 -16 -1 -16 20 0 50 30 89 89 24
37 54 76 65 86 21 19 26 35 11 35 -5 0 -18 -15 -30 -32z"/>
<path d="M3121 4219 c-31 -33 -40 -59 -21 -59 13 0 65 79 57 86 -3 4 -20 -9
-36 -27z"/>
<path d="M2260 4209 c0 -5 -5 -7 -10 -4 -12 8 -40 -12 -40 -28 0 -5 9 -2 21 9
12 10 24 17 27 14 3 -3 7 1 10 8 2 6 1 12 -2 12 -3 0 -6 -5 -6 -11z"/>
<path d="M2497 4214 c-4 -4 -7 -14 -7 -23 0 -11 3 -12 11 -4 6 6 10 16 7 23
-2 6 -7 8 -11 4z"/>
<path d="M3066 4213 c-4 -5 -40 -15 -79 -23 -40 -8 -72 -19 -72 -25 0 -5 25
-13 55 -16 51 -6 57 -4 88 24 31 30 40 47 24 47 -5 0 -12 -3 -16 -7z"/>
<path d="M2063 4173 c-34 -44 -46 -63 -39 -63 9 0 79 90 74 96 -3 3 -19 -12
-35 -33z"/>
<path d="M2115 4140 c-25 -38 -62 -88 -81 -111 -38 -46 -40 -51 -20 -43 17 7
166 204 166 219 0 20 -26 -6 -65 -65z"/>
<path d="M1873 4158 c-18 -24 -24 -38 -16 -38 10 0 36 40 30 46 -2 3 -9 -1
-14 -8z"/>
<path d="M2503 4157 c-4 -8 -13 -16 -19 -18 -7 -2 -8 -12 -4 -23 6 -18 9 -16
23 14 17 33 17 55 0 27z"/>
<path d="M7385 4120 c-29 -30 -27 -53 2 -34 24 15 46 51 35 58 -5 3 -22 -8
-37 -24z"/>
<path d="M2536 4084 c-10 -14 -15 -31 -12 -37 3 -9 5 -9 5 0 1 6 10 9 21 6 11
-3 20 0 20 6 0 6 -7 11 -15 11 -13 0 -14 4 -5 20 15 29 5 25 -14 -6z"/>
<path d="M1980 4060 c-17 -22 -30 -46 -27 -52 2 -7 12 4 21 25 10 20 22 37 26
37 4 0 10 7 14 15 9 24 0 17 -34 -25z"/>
<path d="M2139 4044 c-12 -33 -67 -104 -80 -104 -5 0 -9 7 -9 15 0 35 -42 3
-73 -56 -13 -23 -29 -45 -36 -47 -10 -3 -11 0 -2 16 15 27 14 32 -4 32 -18 0
-17 -3 -6 38 16 54 -8 37 -35 -26 -17 -38 -34 -61 -51 -69 -33 -16 -38 -11
-23 19 l11 23 -20 -24 c-23 -26 -28 -61 -8 -61 6 0 27 9 45 20 38 23 46 25 37
8 -4 -7 3 -2 14 12 17 20 21 22 21 8 0 -32 19 -19 68 43 39 51 48 58 50 40 5
-30 17 -26 48 14 15 20 33 34 39 31 15 -6 89 70 76 78 -5 4 -19 -6 -30 -20
l-21 -27 6 32 c8 38 -3 41 -17 5z"/>
<path d="M1888 4054 c-4 -3 -4 -12 -2 -19 3 -7 -3 -16 -14 -19 -11 -4 -22 -15
-25 -26 -4 -15 -2 -17 12 -8 26 16 50 54 42 66 -4 7 -10 10 -13 6z"/>
<path d="M1811 4025 c-22 -21 -22 -23 -5 -19 11 3 25 14 32 25 17 26 2 23 -27
-6z"/>
<path d="M2576 4023 c-6 -14 -5 -15 5 -6 7 7 10 15 7 18 -3 3 -9 -2 -12 -12z"/>
<path d="M6614 4003 c-16 -14 -39 -32 -51 -40 -13 -9 -23 -22 -23 -29 0 -20 4
-18 47 24 22 20 48 42 58 48 11 6 15 13 9 17 -6 3 -23 -6 -40 -20z"/>
<path d="M1713 3990 c-11 -16 -10 -18 2 -14 8 4 15 12 15 20 0 19 -3 18 -17
-6z"/>
<path d="M2622 3958 c6 -18 28 -21 28 -4 0 9 -7 16 -16 16 -9 0 -14 -5 -12
-12z"/>
<path d="M1766 3951 c-4 -5 -2 -12 3 -15 5 -4 12 -2 15 3 4 5 2 12 -3 15 -5 4
-12 2 -15 -3z"/>
<path d="M1757 3886 c-4 -10 -7 -25 -6 -34 0 -11 4 -9 10 7 5 13 8 29 6 35 -2
5 -6 2 -10 -8z"/>
<path d="M6544 3870 c-24 -9 -41 -30 -25 -30 20 0 61 20 61 30 0 12 -7 12 -36
0z"/>
<path d="M6216 3837 c3 -9 16 -18 29 -21 13 -3 30 -9 39 -12 9 -3 16 -1 16 5
0 11 -16 19 -67 35 -18 6 -22 4 -17 -7z"/>
<path d="M1997 3833 c-4 -3 -7 -11 -7 -17 0 -6 5 -5 12 2 6 6 9 14 7 17 -3 3
-9 2 -12 -2z"/>
<path d="M2410 3805 c-18 -48 -22 -73 -11 -80 6 -3 15 4 19 16 6 15 11 19 16
10 4 -6 5 -18 2 -26 -10 -26 11 -25 23 1 15 35 15 72 -1 56 -20 -20 -30 -13
-26 18 6 37 -9 40 -22 5z"/>
<path d="M6542 3789 c2 -7 10 -15 17 -17 8 -3 12 1 9 9 -2 7 -10 15 -17 17 -8
3 -12 -1 -9 -9z"/>
<path d="M6285 3761 c-44 -27 -98 -87 -92 -103 3 -8 11 -1 23 19 10 18 38 44
61 59 24 15 43 31 43 35 0 12 -1 12 -35 -10z"/>
<path d="M1801 3721 c-35 -44 -41 -61 -11 -31 11 11 24 20 28 20 5 0 14 11 20
25 17 37 -2 30 -37 -14z"/>
<path d="M1930 3745 c-7 -8 -8 -15 -2 -15 5 0 15 7 22 15 7 8 8 15 2 15 -5 0
-15 -7 -22 -15z"/>
<path d="M2956 3743 c-6 -14 -5 -15 5 -6 7 7 10 15 7 18 -3 3 -9 -2 -12 -12z"/>
<path d="M2484 3726 c-8 -22 23 -68 44 -64 10 2 18 14 20 28 2 23 1 24 -11 8
-20 -25 -29 -22 -25 9 3 29 -18 44 -28 19z"/>
<path d="M6478 3727 c-12 -30 -10 -103 3 -90 5 5 9 32 7 59 -2 34 -5 43 -10
31z"/>
<path d="M6267 3658 c-57 -67 -126 -190 -137 -243 -4 -22 -20 -66 -34 -99 -15
-32 -25 -60 -23 -62 7 -7 22 18 51 86 89 205 120 266 163 318 19 24 33 45 30
48 -2 3 -25 -19 -50 -48z"/>
<path d="M1860 3657 c-19 -18 -32 -28 -27 -23 15 20 6 26 -17 11 -13 -9 -27
-26 -30 -38 -3 -12 -20 -38 -39 -57 -41 -43 -77 -94 -77 -110 0 -18 20 -1 30
26 5 13 22 30 37 37 15 6 35 19 44 28 9 9 23 19 30 21 8 3 11 9 7 13 -4 4 -14
2 -23 -5 -9 -7 -18 -10 -22 -6 -6 6 25 34 52 46 17 8 89 90 78 90 -4 0 -24
-15 -43 -33z"/>
<path d="M2116 3657 c-26 -34 -34 -53 -17 -43 10 7 53 76 46 76 -2 0 -15 -15
-29 -33z"/>
<path d="M1750 3630 c-14 -11 -20 -20 -14 -20 14 0 50 27 44 33 -3 3 -16 -3
-30 -13z"/>
<path d="M2600 3624 c0 -8 5 -12 10 -9 6 3 10 10 10 16 0 5 -4 9 -10 9 -5 0
-10 -7 -10 -16z"/>
<path d="M6555 3603 c7 -42 12 -50 21 -40 10 10 -6 77 -18 77 -6 0 -8 -13 -3
-37z"/>
<path d="M6460 3595 c-17 -46 -22 -73 -13 -78 5 -3 13 19 19 49 11 59 9 68 -6
29z"/>
<path d="M7730 3590 c0 -5 5 -10 10 -10 6 0 10 5 10 10 0 6 -4 10 -10 10 -5 0
-10 -4 -10 -10z"/>
<path d="M2231 3566 c-18 -21 -31 -75 -20 -81 5 -4 9 -15 9 -26 0 -25 27 -36
51 -20 12 7 19 7 19 1 0 -5 9 -10 20 -10 11 0 20 -3 20 -7 0 -12 63 -9 84 3
14 8 15 13 6 19 -7 4 -16 2 -20 -4 -5 -10 -30 -10 -69 -2 -2 1 2 8 9 16 7 9
11 16 9 18 -51 29 -67 35 -78 27 -8 -4 -11 -15 -8 -24 4 -9 2 -16 -3 -16 -14
0 -12 34 2 48 17 17 2 28 -17 12 -12 -10 -15 -10 -15 4 0 9 7 19 15 22 16 7
21 34 6 34 -5 0 -14 -6 -20 -14z"/>
<path d="M7681 3452 c-15 -109 -40 -229 -51 -251 -4 -9 -14 -35 -21 -59 -16
-55 -28 -65 -65 -52 -19 7 -39 27 -56 58 -15 26 -28 40 -28 31 0 -10 11 -36
24 -60 19 -32 34 -45 67 -56 51 -18 47 -22 93 117 33 102 49 176 61 292 10 91
-10 75 -24 -20z"/>
<path d="M1704 3439 l-29 -31 37 24 c20 12 37 26 38 31 0 15 -17 6 -46 -24z"/>
<path d="M6450 3456 c-3 -2 -3 -31 -1 -63 l5 -58 6 45 c7 42 0 87 -10 76z"/>
<path d="M1886 3412 c-3 -9 -18 -31 -33 -48 -63 -69 -111 -130 -117 -151 -11
-36 2 -27 24 16 10 22 31 48 45 59 42 33 115 142 96 142 -5 0 -12 -8 -15 -18z"/>
<path d="M2435 3420 c-3 -6 1 -7 9 -4 18 7 21 14 7 14 -6 0 -13 -4 -16 -10z"/>
<path d="M1656 3403 c-6 -14 -5 -15 5 -6 7 7 10 15 7 18 -3 3 -9 -2 -12 -12z"/>
<path d="M8150 3405 c-7 -9 -11 -18 -8 -20 3 -3 11 1 18 10 7 9 11 18 8 20 -3
3 -11 -1 -18 -10z"/>
<path d="M2095 3349 c-4 -6 -5 -13 -2 -15 3 -3 -2 -30 -10 -60 -10 -39 -11
-59 -4 -68 6 -7 8 -16 4 -19 -3 -4 -2 -7 4 -7 5 0 8 -13 5 -30 -6 -40 6 -38
24 5 17 41 17 48 4 40 -16 -10 -12 23 6 50 19 29 9 33 -19 8 -19 -17 -19 -17
-12 7 4 14 11 27 15 30 10 7 10 70 0 70 -5 0 -12 -5 -15 -11z"/>
<path d="M2885 3294 c-21 -38 -52 -87 -70 -109 -17 -22 -44 -61 -59 -87 -26
-45 -53 -67 -40 -33 11 27 -14 16 -32 -14 -10 -16 -28 -34 -41 -40 -30 -14
-31 -34 0 -26 19 5 20 4 6 -7 -8 -7 -26 -22 -40 -33 -13 -12 -29 -30 -35 -40
-6 -11 -32 -26 -57 -34 -47 -14 -63 -31 -30 -31 35 0 101 42 157 100 32 33 62
60 66 60 4 0 29 33 56 73 26 39 59 89 73 110 60 87 94 153 88 170 -2 6 -20
-21 -42 -59z"/>
<path d="M2187 3294 c-27 -37 -15 -39 18 -4 18 19 24 30 14 30 -8 0 -22 -12
-32 -26z"/>
<path d="M1719 3291 c-13 -11 -19 -20 -14 -20 14 0 50 28 43 34 -3 3 -16 -3
-29 -14z"/>
<path d="M2191 3254 c-11 -14 -18 -31 -15 -36 4 -6 16 4 27 21 25 40 16 51
-12 15z"/>
<path d="M6197 3273 c-5 -9 -19 -69 -22 -93 -1 -8 -5 -34 -9 -57 -5 -29 -4
-43 3 -43 11 0 13 7 31 105 6 33 14 68 16 78 5 17 -10 25 -19 10z"/>
<path d="M7411 3260 c0 -16 22 -50 33 -50 12 0 6 18 -14 41 -13 17 -19 19 -19
9z"/>
<path d="M2221 3234 c-26 -32 -20 -45 9 -19 21 19 21 19 10 -9 -6 -16 -8 -31
-5 -34 3 -3 6 -3 8 -1 1 2 12 18 25 36 26 38 28 47 5 39 -9 -4 -20 -2 -23 5
-5 7 -15 1 -29 -17z"/>
<path d="M2321 3209 c-20 -33 -26 -49 -17 -49 8 0 47 73 42 77 -3 3 -14 -10
-25 -28z"/>
<path d="M2405 3227 c-4 -10 -5 -21 -1 -24 10 -10 18 4 13 24 -4 17 -4 17 -12
0z"/>
<path d="M1672 3210 c-12 -12 -22 -24 -22 -27 0 -4 11 4 25 17 23 22 29 30 22
30 -2 0 -13 -9 -25 -20z"/>
<path d="M8115 3210 c-4 -6 -3 -16 3 -22 6 -6 12 -6 17 2 4 6 3 16 -3 22 -6 6
-12 6 -17 -2z"/>
<path d="M2020 3200 c0 -5 5 -10 10 -10 6 0 10 5 10 10 0 6 -4 10 -10 10 -5 0
-10 -4 -10 -10z"/>
<path d="M2769 3187 c-34 -28 -55 -67 -37 -67 12 1 73 79 66 85 -2 2 -15 -7
-29 -18z"/>
<path d="M2014 3159 c-3 -6 -1 -16 5 -22 8 -8 11 -5 11 11 0 24 -5 28 -16 11z"/>
<path d="M8150 3105 c-13 -14 -21 -27 -18 -30 2 -3 15 6 28 20 13 14 21 27 18
30 -2 3 -15 -6 -28 -20z"/>
<path d="M7800 3099 c0 -5 5 -7 10 -4 6 3 10 8 10 11 0 2 -4 4 -10 4 -5 0 -10
-5 -10 -11z"/>
<path d="M7860 3080 c0 -5 5 -10 10 -10 6 0 10 5 10 10 0 6 -4 10 -10 10 -5 0
-10 -4 -10 -10z"/>
<path d="M1842 3040 c-7 -12 -10 -26 -6 -32 6 -10 33 25 34 45 0 14 -15 7 -28
-13z"/>
<path d="M8165 3050 c3 -5 8 -10 11 -10 2 0 4 5 4 10 0 6 -5 10 -11 10 -5 0
-7 -4 -4 -10z"/>
<path d="M8069 3032 c-59 -44 -74 -46 -114 -19 -21 14 -44 23 -51 20 -21 -8
-17 -20 10 -27 35 -9 83 -52 90 -82 5 -17 0 -36 -14 -60 -12 -18 -19 -42 -17
-51 4 -17 5 -17 6 0 1 20 17 23 24 5 3 -8 6 -6 6 5 1 9 -4 17 -9 17 -6 0 -3
11 6 25 l17 26 23 -22 c33 -31 30 -7 -6 43 -16 22 -30 47 -30 54 0 7 23 26 50
43 28 17 50 33 50 36 0 10 -18 5 -41 -13z"/>
<path d="M6155 3020 c-3 -5 -1 -10 4 -10 6 0 11 5 11 10 0 6 -2 10 -4 10 -3 0
-8 -4 -11 -10z"/>
<path d="M8108 2988 c12 -12 24 -19 28 -15 10 10 -16 37 -34 37 -13 0 -12 -4
6 -22z"/>
<path d="M1864 2978 c0 -13 6 -22 11 -20 14 3 13 34 -1 39 -6 2 -11 -6 -10
-19z"/>
<path d="M2489 2992 c-12 -6 -13 -11 -3 -30 8 -16 14 -20 19 -12 4 6 4 14 1
17 -3 3 -1 12 5 20 12 14 4 16 -22 5z"/>
<path d="M2580 2985 c-7 -9 -11 -18 -8 -20 3 -3 11 1 18 10 7 9 11 18 8 20 -3
3 -11 -1 -18 -10z"/>
<path d="M2008 2945 c-24 -32 -23 -40 3 -14 11 11 19 24 17 29 -2 4 -11 -2
-20 -15z"/>
<path d="M1795 2950 c-3 -5 -1 -10 4 -10 6 0 11 5 11 10 0 6 -2 10 -4 10 -3 0
-8 -4 -11 -10z"/>
<path d="M7891 2945 c0 -11 -10 -35 -21 -53 -26 -42 -25 -54 1 -22 20 24 21
24 35 6 20 -27 30 -12 11 17 -8 13 -17 34 -20 48 -3 19 -5 20 -6 4z"/>
<path d="M1758 2933 c0 -5 -2 -12 -3 -18 -1 -5 -5 -23 -10 -38 -9 -34 8 -58
27 -39 9 9 18 4 39 -19 35 -39 59 -33 59 13 -1 30 -2 31 -14 16 -18 -25 -21
-23 -36 22 -12 36 -30 54 -30 30 0 -5 -5 -10 -10 -10 -6 0 -8 11 -4 25 4 15 2
25 -5 25 -6 0 -12 -3 -13 -7z"/>
<path d="M2475 2920 c-3 -5 -1 -10 4 -10 6 0 11 5 11 10 0 6 -2 10 -4 10 -3 0
-8 -4 -11 -10z"/>
<path d="M1900 2859 c0 -11 5 -17 10 -14 6 3 10 13 10 21 0 8 -4 14 -10 14 -5
0 -10 -9 -10 -21z"/>
<path d="M6130 2860 c0 -11 5 -20 10 -20 6 0 10 9 10 20 0 11 -4 20 -10 20 -5
0 -10 -9 -10 -20z"/>
<path d="M1520 2794 c0 -33 17 -64 34 -64 14 0 13 8 -10 73 -9 26 -24 21 -24
-9z"/>
<path d="M6033 2482 c-17 -20 -49 -59 -71 -87 -42 -54 -138 -146 -217 -210
-101 -80 -147 -135 -222 -262 -37 -63 -38 -63 -20 -63 7 0 27 24 45 53 85 141
138 201 238 272 53 37 115 100 177 175 33 41 78 94 101 118 33 34 37 42 21 42
-11 0 -34 -17 -52 -38z"/>
<path d="M6092 2436 c-7 -26 -19 -47 -29 -51 -10 -3 -45 -40 -78 -82 -33 -42
-76 -93 -95 -114 -39 -41 -124 -138 -162 -184 -30 -36 -138 -214 -138 -227 0
-19 25 -1 39 28 7 16 28 52 47 80 46 71 76 107 236 289 24 28 72 85 107 127
34 42 69 79 76 82 23 9 45 50 38 74 -9 36 -28 25 -41 -22z"/>
<path d="M3022 1960 c-12 -16 -22 -39 -21 -52 1 -21 1 -21 7 -3 4 11 15 33 26
48 25 38 15 44 -12 7z"/>
<path d="M2956 1821 c-3 -31 -9 -66 -12 -78 -4 -14 -2 -23 5 -23 6 0 11 7 11
16 0 11 6 14 20 9 23 -7 25 1 6 34 -7 12 -11 34 -8 48 4 22 8 24 41 18 49 -9
47 -8 55 -65 4 -31 11 -48 17 -44 6 3 7 19 4 35 -8 37 2 54 21 35 8 -8 14 -22
14 -30 0 -9 6 -16 13 -16 8 0 24 -11 37 -25 15 -16 27 -22 33 -16 7 7 -9 27
-43 58 -76 69 -86 75 -150 88 l-57 12 -7 -56z"/>
<path d="M2530 1645 c0 -3 18 -23 40 -45 38 -38 40 -42 40 -105 0 -136 -58
-203 -237 -274 -91 -37 -247 -24 -317 24 -22 16 -56 20 -56 7 0 -5 24 -19 53
-32 34 -16 46 -25 35 -27 -10 -3 -18 -11 -18 -19 0 -18 14 -18 29 -1 8 11 34
13 109 9 88 -4 106 -2 178 23 43 15 85 30 92 34 29 16 105 98 129 138 23 40
25 50 19 114 -9 89 -22 124 -51 143 -24 16 -45 21 -45 11z"/>
<path d="M2438 1557 c-32 -17 -58 -39 -58 -47 0 -9 -43 -58 -95 -109 -52 -51
-95 -95 -95 -97 0 -18 38 14 148 126 148 151 173 164 198 95 7 -22 14 -51 14
-64 0 -38 -36 -103 -72 -132 -37 -29 -120 -53 -149 -44 -11 4 -36 1 -55 -5
-53 -18 -109 -14 -160 11 -51 24 -69 19 -33 -10 38 -31 103 -46 147 -33 21 6
58 11 83 10 113 -2 218 71 255 177 17 52 -21 155 -58 155 -7 0 -39 -15 -70
-33z"/>
<path d="M7435 1350 c-3 -6 1 -7 9 -4 10 4 16 1 16 -9 0 -9 -9 -19 -20 -22
-16 -5 -19 -12 -14 -33 8 -34 24 -53 36 -46 6 4 6 10 -1 17 -14 14 -14 54 -1
62 15 9 12 45 -4 45 -8 0 -18 -4 -21 -10z"/>
<path d="M7391 1321 c-15 -12 -22 -25 -19 -42 3 -23 4 -22 27 14 27 44 25 53
-8 28z"/>
<path d="M7591 1318 c-12 -31 12 -57 37 -42 12 8 22 8 34 0 13 -8 21 -7 30 3
8 9 9 12 1 7 -6 -3 -19 4 -27 16 -15 21 -16 21 -29 4 -17 -23 -40 -12 -32 15
9 27 -4 24 -14 -3z"/>
<path d="M7767 1308 c-8 -29 -2 -34 28 -20 19 9 30 9 44 0 20 -12 51 -5 51 13
0 9 -3 9 -14 0 -10 -9 -16 -8 -26 5 -9 10 -22 13 -37 9 -13 -3 -23 -1 -23 5 0
19 -18 10 -23 -12z"/>
<path d="M7510 1280 c0 -5 7 -10 15 -10 8 0 15 5 15 10 0 6 -7 10 -15 10 -8 0
-15 -4 -15 -10z"/>
<path d="M7910 1260 c0 -5 5 -10 10 -10 6 0 10 5 10 10 0 6 -4 10 -10 10 -5 0
-10 -4 -10 -10z"/>
<path d="M1963 1206 c-12 -11 -35 -31 -52 -44 -25 -19 -29 -27 -21 -41 10 -21
47 -34 55 -21 3 5 -3 13 -12 19 -32 17 -5 24 53 12 32 -6 60 -9 63 -5 9 8 -20
22 -61 29 -21 4 -38 9 -38 13 0 3 12 19 27 34 31 32 19 36 -14 4z"/>
<path d="M7760 1220 c0 -5 5 -10 11 -10 5 0 7 5 4 10 -3 6 -8 10 -11 10 -2 0
-4 -4 -4 -10z"/>
<path d="M423 889 c-24 -9 -27 -25 -17 -78 6 -29 9 -31 50 -31 23 0 46 -6 51
-12 4 -7 8 -125 8 -263 l0 -249 35 -8 c29 -6 38 -4 53 14 14 17 16 30 10 72
-5 28 -7 136 -7 240 2 208 2 207 66 204 47 -2 68 16 68 58 0 28 -5 36 -26 44
-34 13 -262 20 -291 9z m287 -60 c0 -26 -3 -29 -25 -23 -14 3 -40 3 -59 0 -44
-8 -59 -44 -53 -128 2 -34 1 -74 -3 -88 -5 -21 -7 -17 -13 22 -3 25 -9 83 -13
127 l-7 81 -48 0 c-42 0 -49 3 -49 19 0 18 8 20 135 19 l135 0 0 -29z m-137
-379 c3 -36 9 -89 13 -119 6 -49 5 -53 -12 -49 -17 3 -19 14 -21 108 -2 146
10 181 20 60z"/>
<path d="M4059 896 c-2 -2 -19 -6 -37 -9 -47 -8 -64 -25 -60 -61 3 -28 6 -31
35 -29 30 3 33 0 39 -33 4 -21 4 -143 0 -274 l-8 -237 108 -1 c75 -1 111 2
116 11 4 7 8 41 8 77 0 75 -19 113 -53 108 -19 -3 -21 -8 -18 -38 8 -74 8 -74
-26 -81 -53 -11 -55 -1 -44 198 6 103 6 195 1 217 -7 34 -6 39 11 43 11 3 27
19 35 36 15 27 14 31 -3 47 -16 16 -94 35 -104 26z m91 -43 c-1 -23 -19 -34
-44 -27 -21 5 -24 9 -15 20 12 15 59 20 59 7z m-110 -13 c0 -5 -7 -10 -15 -10
-8 0 -15 5 -15 10 0 6 7 10 15 10 8 0 15 -4 15 -10z m49 -162 c1 -46 -3 -78
-9 -78 -6 0 -10 39 -9 98 0 63 3 90 9 77 5 -11 9 -55 9 -97z m-5 -195 c-3 -60
-11 -112 -16 -118 -10 -10 -2 183 9 212 12 31 14 7 7 -94z m151 -122 c-2 -4
-5 -24 -7 -43 -2 -34 -3 -35 -45 -36 -24 0 -45 4 -49 9 -3 5 7 9 22 9 41 0 64
26 65 74 0 36 1 38 10 18 5 -13 7 -27 4 -31z m-122 -62 c7 0 1 -4 -11 -10 -26
-10 -46 -3 -36 12 3 6 13 8 21 5 8 -3 20 -6 26 -7z"/>
<path d="M1188 863 c-13 -14 -14 -22 -6 -37 23 -40 28 -97 28 -295 0 -168 -3
-207 -15 -221 -21 -23 -19 -35 9 -49 17 -10 29 -10 44 -2 15 8 29 8 48 1 36
-14 90 4 111 37 13 20 17 46 16 112 -2 82 -11 116 -42 154 -12 15 -12 19 4 37
29 32 32 157 6 209 -25 48 -47 62 -98 60 -21 0 -49 2 -63 6 -18 5 -30 1 -42
-12z m57 -35 c17 -76 21 -480 5 -522 -5 -14 -15 -26 -21 -26 -7 0 -8 7 -4 17
4 10 10 104 12 210 4 152 2 206 -11 262 -19 85 -19 81 -1 81 8 0 17 -10 20
-22z m62 0 c17 -21 24 -69 24 -146 0 -52 3 -72 12 -69 17 5 25 59 16 114 -11
66 -11 93 0 93 12 0 22 -47 24 -114 1 -68 -21 -106 -63 -106 -33 0 -35 6 -44
138 -6 93 4 124 31 90z m27 -323 c14 -48 17 -85 14 -136 -6 -77 -18 -100 -45
-83 -15 9 -17 27 -14 140 2 71 5 132 8 136 10 18 19 4 37 -57z m56 -10 c15
-54 9 -180 -9 -197 -11 -11 -13 0 -8 64 3 42 1 93 -5 115 -23 89 -22 89 -6 75
9 -7 21 -32 28 -57z"/>
<path d="M5026 867 c-12 -9 -19 -27 -20 -53 -1 -34 2 -39 19 -36 45 7 119 1
127 -10 10 -18 1 -425 -11 -472 -5 -21 -7 -44 -4 -52 7 -18 39 -27 68 -20 37
9 43 55 40 308 -1 125 1 231 4 237 4 6 31 12 61 13 l55 4 3 42 3 42 -38 2
c-21 0 -45 1 -53 0 -56 -4 -208 -3 -220 2 -9 4 -24 0 -34 -7z m318 -35 c5 -1
3 -8 -3 -16 -6 -7 -34 -16 -61 -18 -28 -3 -53 -7 -55 -10 -6 -6 -7 -40 -7
-208 -1 -308 -6 -354 -36 -317 -9 10 -9 28 -2 67 5 29 10 87 10 129 0 42 4 82
9 90 5 8 3 36 -5 70 -7 31 -13 81 -14 112 0 33 -5 61 -12 67 -7 5 -41 9 -76 8
-41 -1 -62 3 -62 11 0 6 5 13 11 15 10 3 287 3 303 0z"/>
<path d="M2132 852 c-10 -7 -12 -47 -10 -168 2 -101 -2 -194 -11 -254 -22
-146 -21 -164 10 -168 14 -2 31 4 38 12 7 8 20 83 29 166 17 157 20 162 46 78
9 -28 20 -21 51 32 16 28 33 50 37 50 15 0 9 -225 -7 -265 -23 -53 -13 -75 35
-75 28 0 40 5 44 18 3 9 5 107 5 217 -1 110 2 220 5 245 8 63 -5 114 -30 118
-25 4 -42 -16 -69 -77 -11 -25 -25 -55 -31 -65 -13 -21 -34 -14 -34 12 0 10
-13 42 -28 72 -28 54 -52 70 -80 52z m63 -74 c14 -29 25 -60 25 -68 1 -22 36
-64 47 -57 6 4 25 41 44 84 30 70 44 92 59 93 8 0 5 -514 -4 -528 -10 -17 -36
-15 -36 2 0 8 5 27 11 43 14 34 14 342 1 355 -6 6 -23 -20 -47 -71 -21 -45
-42 -81 -46 -81 -5 0 -11 17 -15 38 -10 52 -33 104 -45 100 -5 -2 -12 -53 -14
-113 -3 -61 -9 -128 -15 -150 -5 -22 -10 -61 -10 -87 0 -39 -3 -48 -18 -48
-17 0 -17 6 -5 103 7 56 17 120 22 142 5 22 7 97 4 168 -6 144 3 160 42 75z"/>
<path d="M6870 851 c-24 -7 -25 -9 -21 -81 6 -120 6 -297 1 -410 l-5 -105 32
-3 c28 -3 33 0 38 25 4 15 9 35 11 43 4 12 7 67 14 285 1 6 11 -19 23 -54 12
-36 28 -67 35 -69 8 -2 27 26 50 77 20 45 39 81 42 81 7 0 6 -18 -6 -195 -12
-180 -6 -213 35 -188 14 8 21 9 30 0 6 -6 13 -8 16 -5 3 3 6 132 8 286 2 275
2 282 -19 303 -31 30 -58 18 -78 -36 -9 -25 -23 -65 -32 -90 -10 -25 -21 -44
-27 -42 -5 1 -16 20 -25 41 -11 29 -12 40 -3 45 6 4 9 15 6 23 -4 9 -1 19 4
23 12 7 5 25 -10 25 -5 0 -9 -11 -9 -25 0 -34 -19 -31 -32 5 -8 25 -37 53 -50
49 -2 -1 -14 -4 -28 -8z m270 -48 c3 -78 5 -460 2 -488 -2 -20 -10 -35 -17
-35 -17 0 -25 27 -19 65 3 17 7 101 9 188 2 86 7 163 12 170 4 7 -3 5 -17 -4
-13 -9 -42 -50 -64 -92 -22 -43 -43 -77 -47 -77 -3 0 -19 40 -35 90 -16 49
-35 92 -41 94 -14 6 -14 9 -18 -189 -3 -140 -3 -145 -14 -145 -5 0 -9 94 -9
210 l0 210 24 0 c28 0 45 -29 68 -119 9 -36 18 -66 19 -68 6 -6 46 10 42 16
-2 4 9 36 25 70 17 35 30 70 30 80 0 35 48 58 50 24z m-244 -487 c-4 -20 -12
-36 -18 -36 -6 0 -8 9 -4 23 3 12 6 33 6 47 0 18 3 21 11 13 7 -7 9 -25 5 -47z"/>
<path d="M1467 831 c-15 -15 -16 -23 -6 -47 10 -28 4 -377 -7 -396 -8 -13 38
-108 57 -119 25 -13 59 5 59 32 0 11 -8 34 -17 52 -14 27 -17 64 -18 242 0
152 -4 216 -13 233 -15 26 -31 27 -55 3z m38 -222 c1 -126 5 -213 14 -247 16
-65 9 -76 -19 -31 -20 32 -21 42 -14 184 7 163 6 249 -2 279 -4 13 -2 17 7 14
11 -4 14 -45 14 -199z"/>
<path d="M5908 842 c-22 -4 -23 -25 -2 -57 14 -21 15 -55 12 -244 -4 -196 -6
-223 -23 -240 -15 -17 -16 -23 -5 -36 10 -12 28 -14 94 -9 130 11 151 29 157
134 5 98 0 139 -20 159 -17 17 -18 20 -3 35 24 24 35 160 16 204 -8 19 -22 41
-31 47 -16 12 -152 17 -195 7z m63 -212 c1 -203 1 -208 -11 -215 -6 -4 -9 70
-9 182 0 104 0 193 -1 198 -4 21 0 29 10 19 5 -5 10 -85 11 -184z m84 154 c17
-42 20 -146 5 -175 -6 -10 -19 -19 -29 -19 -22 0 -31 41 -31 153 0 70 2 77 20
77 13 0 25 -12 35 -36z m55 -18 c-1 -20 -2 -20 -15 4 -19 33 -19 46 0 30 8 -7
15 -22 15 -34z m-3 -123 c-3 -10 -5 -2 -5 17 0 19 2 27 5 18 2 -10 2 -26 0
-35z m-61 -97 c16 -13 19 -25 16 -93 -4 -120 -12 -147 -46 -151 l-28 -4 7 124
c9 150 10 153 51 124z m66 -86 c-6 -43 -12 -37 -12 13 0 25 4 37 8 29 5 -7 7
-26 4 -42z m-2 -93 c0 -18 -7 -42 -15 -53 -15 -18 -15 -16 -9 26 10 68 24 84
24 27z m-150 -41 c0 -14 -4 -28 -10 -31 -6 -4 -10 7 -10 24 0 17 5 31 10 31 6
0 10 -11 10 -24z"/>
<path d="M6203 834 c-3 -8 2 -49 11 -90 17 -78 19 -179 7 -329 -10 -129 5
-161 69 -145 29 7 41 40 14 40 -15 0 -16 8 -9 63 15 135 14 330 -1 387 -21 74
-74 118 -91 74z m47 -34 c0 -5 -4 -10 -10 -10 -5 0 -10 5 -10 10 0 6 5 10 10
10 6 0 10 -4 10 -10z m14 -36 c11 -28 7 -86 -5 -78 -6 3 -9 19 -5 35 3 15 1
31 -4 34 -12 8 -13 25 -1 25 5 0 12 -7 15 -16z m16 -103 c0 -6 -4 -13 -10 -16
-5 -3 -10 1 -10 9 0 9 5 16 10 16 6 0 10 -4 10 -9z m-10 -172 c-1 -116 -7
-184 -16 -179 -9 5 -8 123 0 165 3 11 5 35 5 54 1 19 3 32 6 29 3 -3 5 -34 5
-69z"/>
<path d="M8680 819 c-71 -28 -90 -93 -90 -306 0 -137 3 -168 19 -206 22 -50
42 -59 109 -50 36 5 50 14 80 49 32 39 38 42 52 29 22 -20 40 -19 41 3 0 9 2
45 4 80 l4 63 -36 16 c-43 17 -114 10 -134 -14 -11 -13 -9 -19 14 -39 32 -28
33 -37 6 -75 -26 -37 -56 -38 -65 -3 -7 29 3 325 12 349 12 30 95 48 110 24 4
-7 7 -28 8 -48 1 -25 6 -36 16 -36 11 0 17 15 21 55 3 30 7 62 10 70 3 10 -2
14 -17 12 -11 -1 -29 7 -39 18 -20 22 -81 26 -125 9z m85 -29 c-3 -5 -13 -10
-22 -10 -8 0 -35 -14 -60 -30 l-45 -31 7 28 c3 15 7 28 8 28 1 1 16 6 32 12
39 14 88 16 80 3z m-110 -148 c-9 -51 -25 -48 -25 4 0 28 3 54 7 58 11 11 24
-32 18 -62z m-3 -182 c2 -95 6 -123 20 -136 14 -15 21 -15 48 -4 17 7 39 23
49 36 24 30 31 30 31 0 0 -33 -58 -76 -104 -76 -57 0 -71 31 -72 165 0 113 2
135 16 135 5 0 10 -54 12 -120z m210 4 c10 -6 10 -40 2 -72 l-7 -23 -23 22
c-13 12 -24 28 -24 35 0 7 -9 18 -20 24 -32 17 -13 33 29 25 20 -4 39 -9 43
-11z"/>
<path d="M8926 801 c-14 -16 -15 -23 -6 -41 11 -20 12 -122 6 -432 -1 -66 25
-105 62 -94 26 9 32 33 23 108 -4 35 -4 108 -1 163 11 220 -28 358 -84 296z
m54 -90 c0 -48 -17 -28 -25 29 -6 42 -5 44 9 26 9 -11 16 -36 16 -55z m1 -146
l-6 -60 -7 59 c-7 59 -2 85 12 69 4 -4 4 -35 1 -68z m-4 -117 c-2 -13 -4 -5
-4 17 -1 22 1 32 4 23 2 -10 2 -28 0 -40z m3 -111 c0 -43 -3 -58 -12 -55 -14
5 -23 100 -13 127 11 29 25 -10 25 -72z"/>
<path d="M3163 763 c-4 -11 1 -22 15 -31 27 -18 28 -46 2 -72 -28 -28 -26 -50
6 -50 l26 0 -7 -157 c-5 -131 -4 -161 8 -178 12 -15 19 -17 38 -9 23 11 23 13
25 184 l1 172 35 32 c38 33 51 65 37 87 -6 11 -15 9 -40 -10 -25 -19 -34 -21
-37 -11 -16 48 -95 80 -109 43z m77 -53 c0 -29 22 -41 44 -24 34 24 43 15 11
-11 -27 -22 -31 -32 -37 -102 -4 -43 -9 -114 -10 -157 -2 -57 -7 -81 -17 -84
-12 -4 -13 10 -6 84 13 148 11 286 -5 314 -12 23 -12 24 3 11 10 -7 17 -21 17
-31z m5 -400 c3 -5 -1 -10 -9 -10 -9 0 -16 5 -16 10 0 6 4 10 9 10 6 0 13 -4
16 -10z"/>
<path d="M7905 746 c-19 -28 -12 -50 20 -64 18 -9 26 -7 39 7 21 23 20 44 -2
64 -25 23 -39 21 -57 -7z"/>
<path d="M3528 729 c-22 -12 -23 -42 -3 -59 35 -29 85 26 53 58 -14 14 -27 15
-50 1z"/>
<path d="M5327 722 c-16 -18 -16 -22 10 -78 26 -57 27 -65 26 -226 -1 -190 4
-206 55 -163 36 30 42 55 30 135 -7 45 -6 65 3 76 23 28 33 -4 34 -109 2 -111
6 -127 34 -127 36 0 41 20 41 156 0 126 -1 134 -24 161 -22 26 -25 27 -52 13
-16 -8 -32 -16 -36 -18 -5 -2 -8 12 -8 32 0 36 -15 87 -29 96 -4 3 -14 18 -22
35 -17 36 -39 42 -62 17z m65 -59 c13 -29 20 -67 20 -100 0 -29 4 -55 9 -59 5
-3 24 4 43 15 43 27 48 26 64 -6 18 -40 16 -133 -3 -133 -16 0 -20 24 -16 93
2 43 -7 46 -61 18 -41 -21 -48 -15 -48 41 0 37 -28 136 -41 143 -12 8 -11 35
2 35 5 0 19 -21 31 -47z m28 -303 c0 -48 -21 -105 -28 -76 -6 29 8 127 19 121
5 -4 9 -24 9 -45z m108 -35 c0 -24 3 -49 7 -55 3 -5 0 -10 -9 -10 -19 0 -22
11 -18 65 5 58 20 58 20 0z"/>
<path d="M645 706 c-16 -12 -17 -17 -6 -57 20 -70 33 -217 27 -306 -5 -70 -4
-83 9 -83 8 0 15 6 15 14 0 7 9 16 20 19 17 4 20 14 21 59 2 114 3 118 31 136
15 9 31 13 35 9 4 -4 6 -50 4 -102 -3 -129 18 -164 68 -111 19 21 21 28 12 67
-6 24 -11 71 -12 104 -1 80 -10 108 -39 122 -19 9 -29 9 -53 -3 -40 -21 -54
-13 -62 37 -9 50 -32 109 -43 109 -5 0 -17 -6 -27 -14z m32 -78 c-3 -8 -6 -5
-6 6 -1 11 2 17 5 13 3 -3 4 -12 1 -19z m157 -93 c3 -8 3 -15 0 -15 -3 0 -12
7 -20 15 -13 13 -13 15 -1 15 8 0 17 -7 21 -15z m-79 -15 c-3 -5 -11 -10 -16
-10 -6 0 -7 5 -4 10 3 6 11 10 16 10 6 0 7 -4 4 -10z m98 -190 c1 -8 -2 -17
-8 -20 -6 -3 -11 22 -12 65 l-1 70 9 -50 c5 -27 10 -57 12 -65z m-156 -12 c-3
-8 -6 -5 -6 6 -1 11 2 17 5 13 3 -3 4 -12 1 -19z"/>
<path d="M7272 627 c-56 -73 -67 -315 -17 -357 24 -20 84 -1 111 36 21 27 27
48 31 112 6 88 -9 172 -35 195 -24 20 -78 29 -90 14z m82 -61 c11 -24 16 -62
16 -129 0 -94 0 -95 -31 -122 -34 -28 -62 -30 -67 -4 -2 12 3 15 21 12 13 -3
28 2 35 9 18 23 26 178 10 208 -21 39 -43 36 -61 -7 l-17 -38 6 40 c7 49 19
65 49 65 16 0 28 -10 39 -34z m-31 -58 c8 -44 -5 -153 -18 -153 -15 0 -18 31
-10 112 7 77 19 94 28 41z m-63 -93 l-7 -50 -2 46 c0 25 2 49 6 52 10 11 11 5
3 -48z"/>
<path d="M7542 617 c-18 -18 -25 -19 -47 -9 -29 14 -75 16 -75 4 0 -4 8 -18
17 -32 13 -18 16 -40 13 -99 -8 -177 -6 -213 13 -225 55 -35 89 106 62 255 -4
23 -3 39 4 43 6 4 11 0 11 -11 0 -40 51 -59 68 -25 6 9 12 31 16 47 11 57 -43
91 -82 52z m53 -17 c9 -14 -5 -71 -15 -65 -10 6 -9 75 1 75 4 0 11 -5 14 -10z
m-108 -57 c-3 -10 -5 -4 -5 12 0 17 2 24 5 18 2 -7 2 -21 0 -30z m7 -58 c-4
-21 -2 -41 5 -49 16 -19 1 -138 -18 -144 -12 -4 -13 12 -7 99 4 57 8 110 9
117 0 6 4 12 9 12 5 0 6 -16 2 -35z"/>
<path d="M7667 618 c-14 -11 -15 -18 -6 -50 9 -26 9 -69 1 -159 -5 -67 -8
-128 -5 -136 3 -7 20 -13 39 -13 41 0 42 2 47 163 4 118 15 153 38 130 7 -7
13 -64 15 -144 2 -111 6 -135 20 -146 12 -9 22 -9 36 -2 16 9 19 17 13 45 -3
19 -1 70 6 114 13 94 8 134 -25 175 l-24 30 -33 -24 c-31 -23 -33 -23 -46 -6
-7 11 -13 22 -13 27 0 13 -44 9 -63 -4z m53 -49 c0 -6 -4 -7 -10 -4 -5 3 -10
11 -10 16 0 6 5 7 10 4 6 -3 10 -11 10 -16z m120 -8 c13 -26 13 -108 -1 -116
-6 -4 -9 -1 -8 6 1 8 0 25 -4 39 -13 57 -16 90 -7 90 5 0 14 -9 20 -19z m-130
-171 c0 -60 -4 -100 -10 -100 -6 0 -10 27 -10 63 0 61 9 137 16 137 2 0 4 -45
4 -100z m127 -75 c0 -8 -4 -15 -9 -15 -4 0 -8 7 -8 15 0 8 4 15 8 15 5 0 9 -7
9 -15z"/>
<path d="M8077 613 c-14 -16 -14 -22 0 -53 14 -33 13 -150 -3 -237 -6 -33 3
-73 17 -73 5 0 20 11 33 25 17 18 25 43 31 92 4 38 10 95 13 128 6 47 11 61
25 63 17 3 18 -3 11 -100 -5 -57 -9 -123 -9 -148 0 -44 1 -45 33 -48 33 -3 39
7 34 58 -1 8 2 51 7 95 13 115 4 182 -25 202 -22 14 -26 14 -50 -2 -24 -15
-28 -15 -59 -1 -41 20 -39 20 -58 -1z m167 -108 c-1 -147 -6 -215 -16 -221
-19 -12 -19 6 -4 135 16 139 15 157 -12 165 -10 2 -6 4 8 3 24 -2 25 -4 24
-82z m-104 24 c0 -16 -4 -29 -10 -29 -5 0 -10 16 -10 36 0 21 4 33 10 29 6 -3
10 -19 10 -36z m-6 -111 c-9 -95 -8 -90 -22 -113 -11 -17 -12 -12 -7 35 8 58
11 90 13 128 1 12 7 22 13 22 7 0 8 -24 3 -72z"/>
<path d="M2509 598 c-60 -64 -77 -182 -36 -258 42 -79 94 -75 137 11 26 49 29
173 6 216 -28 55 -71 68 -107 31z m71 -28 c11 -11 20 -30 20 -42 -1 -22 -2
-21 -16 5 -18 34 -47 35 -69 1 -9 -14 -19 -24 -22 -21 -7 8 25 64 39 70 22 9
27 8 48 -13z m-16 -56 c10 -25 7 -81 -6 -109 -22 -48 -38 -24 -38 59 0 29 3
56 7 59 11 12 31 7 37 -9z m-50 -149 c26 -40 30 -37 79 75 l16 35 0 -33 c1
-43 -45 -132 -69 -132 -10 0 -27 11 -38 25 -22 28 -37 120 -25 150 6 15 9 4
14 -37 3 -32 14 -69 23 -83z"/>
<path d="M2685 610 c-3 -5 0 -18 6 -28 8 -13 9 -38 1 -94 -14 -106 -1 -169 43
-201 24 -17 26 -17 67 3 48 23 65 25 71 8 3 -9 8 -10 16 -2 9 8 6 17 -9 36
-24 31 -25 47 -4 145 16 81 13 123 -11 123 -12 0 -15 -15 -16 -67 -1 -38 -4
-93 -7 -123 -7 -55 -7 -55 -42 -55 l-35 0 0 120 c0 66 -4 126 -8 133 -10 14
-63 16 -72 2z m64 -43 c4 -12 3 -39 -4 -61 -6 -23 -11 -54 -10 -71 1 -16 3
-42 4 -58 0 -15 10 -35 21 -44 11 -10 20 -21 20 -25 0 -16 -23 -7 -46 18 -26
27 -31 86 -18 212 7 60 18 70 33 29z"/>
<path d="M2944 605 c-18 -14 -18 -16 -1 -29 20 -16 23 -98 7 -210 -9 -60 -8
-72 5 -85 15 -15 18 -14 35 6 13 17 20 48 25 125 8 114 23 151 58 146 20 -3
22 -9 21 -58 0 -30 -3 -77 -7 -104 -8 -55 5 -111 29 -120 20 -8 30 20 14 39
-14 17 -8 70 24 195 5 20 -1 33 -29 63 l-36 38 -30 -22 -30 -21 -26 26 c-30
30 -33 31 -59 11z m62 -85 c-3 -14 -8 -67 -12 -118 -6 -86 -16 -119 -27 -89
-2 6 0 44 5 82 5 39 9 97 10 129 1 53 2 57 15 40 7 -10 11 -30 9 -44z"/>
<path d="M7932 612 c-10 -7 -9 -15 4 -41 12 -23 14 -45 10 -74 -4 -23 -10 -81
-13 -128 -6 -93 6 -123 46 -112 35 9 43 28 34 80 -5 26 -6 62 -2 78 22 97 -1
205 -44 205 -12 0 -28 -4 -35 -8z m54 -180 c-3 -96 -8 -138 -17 -141 -9 -3
-10 15 -3 80 5 46 9 112 9 146 0 33 3 59 8 56 4 -2 5 -66 3 -141z"/>
<path d="M8346 587 c-23 -30 -25 -40 -22 -115 2 -46 8 -88 13 -93 5 -5 33 -13
63 -19 30 -6 58 -16 62 -23 15 -21 1 -87 -24 -111 -30 -29 -88 -50 -102 -36
-7 7 -2 10 15 10 38 0 89 48 96 92 5 33 3 39 -18 47 -13 5 -27 7 -31 4 -14 -7
-9 -23 7 -23 15 0 19 -11 15 -40 -3 -24 -37 -50 -66 -50 -26 0 -27 1 -21 45 4
26 2 47 -4 51 -14 8 -21 0 -25 -28 -2 -13 -6 -42 -10 -65 -9 -56 6 -73 60 -72
54 1 96 26 123 75 47 82 14 150 -75 156 -40 3 -47 6 -50 26 -3 20 1 22 40 22
63 0 128 48 128 95 0 48 -46 85 -105 85 -38 0 -47 -5 -69 -33z m125 -18 c30
-30 21 -60 -28 -87 -40 -22 -63 -23 -63 -1 0 5 13 9 28 9 42 0 66 22 59 52 -9
36 -65 47 -89 18 -9 -11 -14 -29 -11 -40 3 -11 0 -20 -6 -20 -17 0 -13 51 6
72 22 25 77 24 104 -3z m-47 -25 c23 -9 20 -24 -4 -24 -11 0 -20 7 -20 15 0
17 2 18 24 9z"/>
<path d="M1618 603 c-22 -6 -22 -12 -2 -34 12 -13 18 -43 20 -106 5 -114 11
-143 32 -169 27 -32 57 -38 95 -19 19 9 40 15 48 13 10 -2 13 7 11 37 -1 22
-5 93 -8 158 -4 84 -9 117 -18 117 -9 0 -13 -30 -14 -112 -2 -115 -15 -158
-47 -158 -18 0 -15 -16 -24 122 -9 145 -24 169 -93 151z m61 -145 c1 -56 4
-105 7 -110 3 -4 1 -8 -4 -8 -5 0 -12 10 -16 23 -9 35 -7 209 3 203 5 -3 9
-52 10 -108z"/>
<path d="M1917 599 c-27 -16 -57 -87 -57 -137 0 -61 19 -133 43 -159 25 -28
77 -31 99 -5 26 28 40 94 25 110 -16 15 -47 6 -47 -14 0 -20 -30 -30 -40 -14
-4 7 -4 24 -1 38 6 20 16 29 43 35 29 7 38 16 51 47 19 49 13 72 -23 93 -32
19 -67 21 -93 6z m61 -15 c12 -4 22 -13 22 -22 0 -12 -3 -13 -12 -4 -7 7 -20
12 -30 12 -10 0 -18 5 -18 10 0 11 6 12 38 4z m-51 -91 c13 -10 12 -15 -11
-40 l-26 -28 0 47 c0 56 13 98 18 58 2 -14 10 -30 19 -37z m43 37 c0 -13 -19
-22 -30 -15 -14 9 0 34 16 28 8 -3 14 -9 14 -13z m35 -29 c-4 -15 -15 -21 -33
-21 l-27 1 28 15 c15 8 27 20 27 26 0 6 3 9 6 5 3 -3 3 -15 -1 -26z m-91 -133
c9 -17 21 -23 44 -23 33 0 45 -21 17 -31 -30 -12 -63 5 -74 37 -19 56 -11 65
13 17z"/>
<path d="M6397 601 c-17 -6 -19 -21 -21 -139 -2 -83 1 -140 8 -154 14 -28 47
-34 87 -17 27 10 32 9 50 -10 11 -11 24 -21 29 -21 18 0 21 21 4 37 -17 18
-17 41 4 210 9 72 5 84 -24 73 -18 -7 -22 -19 -27 -92 -3 -45 -4 -99 -2 -120
3 -30 0 -37 -18 -42 -12 -3 -24 -3 -27 0 -3 3 -5 62 -5 131 0 114 -2 127 -20
138 -11 7 -28 10 -38 6z m30 -156 c-2 -116 -6 -140 -22 -115 -9 14 6 240 16
240 5 0 7 -56 6 -125z"/>
<path d="M6648 593 c-26 -31 -61 -154 -62 -223 -1 -62 0 -65 22 -63 12 2 22
-1 22 -6 0 -12 56 -31 90 -31 54 0 90 72 60 120 -7 12 -13 9 -35 -14 -36 -39
-60 -31 -60 19 0 28 4 40 15 41 8 1 23 2 32 3 42 3 65 122 30 154 -25 23 -94
22 -114 0z m30 -27 c-10 -7 -22 -24 -27 -37 -9 -23 -10 -23 -10 -2 -1 23 23
53 42 53 7 0 4 -7 -5 -14z m72 -8 c0 -17 -3 -19 -9 -9 -5 7 -15 17 -22 22 -10
6 -8 9 9 9 16 0 22 -6 22 -22z m-34 -29 c8 -14 -18 -31 -30 -19 -9 9 0 30 14
30 5 0 12 -5 16 -11z m-58 -52 c7 -8 6 -18 -4 -32 -12 -16 -16 -17 -23 -6 -9
15 -3 51 9 51 4 0 12 -6 18 -13z m82 4 c0 -11 -31 -24 -39 -16 -3 3 1 10 9 15
19 12 30 12 30 1z m-69 -147 c8 -10 24 -14 46 -12 20 3 32 0 30 -6 -9 -29
-107 -6 -107 24 0 15 16 12 31 -6z"/>
<path d="M978 562 c-40 -38 -41 -40 -46 -120 -2 -44 -2 -92 2 -107 22 -87 128
-86 156 1 10 30 10 38 -1 45 -22 14 -29 11 -39 -16 -10 -26 -17 -30 -36 -17
-34 22 -17 72 24 72 47 0 65 21 67 78 3 55 -8 72 -58 91 -25 10 -32 7 -69 -27z
m70 -7 c-2 -1 -16 -5 -33 -9 -28 -6 -29 -5 -12 8 11 8 25 12 33 9 8 -3 14 -7
12 -8z m30 -57 c-3 -42 -4 -43 -43 -48 -48 -7 -65 -16 -65 -36 0 -8 -5 -14
-11 -14 -6 0 -8 7 -5 16 3 9 6 29 6 45 0 26 2 29 19 19 11 -5 33 -10 50 -10
31 0 38 13 32 58 -1 6 3 12 9 12 7 0 10 -16 8 -42z m-43 11 c10 -15 -1 -23
-20 -15 -9 3 -13 10 -10 16 8 13 22 13 30 -1z m-20 -189 c19 0 35 -4 35 -10 0
-11 -39 -13 -65 -4 -20 8 -38 51 -28 67 4 7 10 -2 15 -21 8 -28 13 -32 43 -32z"/>
<path d="M3376 585 c-50 -27 -70 -67 -44 -93 9 -9 17 -7 35 10 18 17 26 19 35
10 19 -19 -4 -48 -35 -44 -18 2 -32 -6 -47 -25 -27 -35 -26 -123 2 -153 19
-21 29 -19 61 9 16 14 20 13 40 -10 15 -16 30 -23 47 -21 37 5 45 19 20 32
-21 11 -22 17 -16 78 4 37 9 85 12 108 5 36 2 44 -30 77 -41 42 -41 42 -80 22z
m74 -45 c11 -20 3 -178 -10 -215 -14 -38 -28 44 -17 100 16 81 14 99 -10 110
-30 13 -29 25 2 25 14 0 29 -8 35 -20z m-60 -152 c-1 -49 -2 -51 -15 -34 -8
11 -12 28 -9 38 3 11 0 25 -6 33 -10 12 -9 15 9 15 19 0 21 -6 21 -52z m-40
-66 c0 -7 -4 -10 -10 -7 -5 3 -10 16 -10 28 0 18 2 19 10 7 5 -8 10 -21 10
-28z"/>
<path d="M3677 589 c-9 -5 -22 -7 -27 -4 -14 9 -12 0 9 -37 16 -30 17 -43 8
-131 -10 -102 -3 -139 29 -151 32 -12 39 4 40 97 0 50 4 109 8 130 6 34 9 37
42 37 33 0 35 -2 30 -27 -3 -16 -6 -64 -8 -108 -1 -61 3 -88 17 -114 l18 -35
17 22 c16 19 16 27 5 77 -7 30 -12 63 -10 72 2 10 9 44 16 75 11 52 10 60 -6
78 -23 26 -49 25 -87 -1 -16 -12 -30 -20 -31 -18 -26 49 -39 56 -70 38z m36
-95 c-4 -152 -7 -184 -20 -184 -11 0 -12 17 -6 83 3 45 6 101 6 125 0 28 3 41
11 39 7 -2 10 -27 9 -63z"/>
<path d="M4357 582 c-19 -21 -55 -118 -58 -159 -8 -110 16 -160 73 -149 64 13
81 47 93 187 6 70 5 78 -17 102 -31 36 -69 43 -91 19z m80 -73 l2 -34 -10 33
c-7 25 -15 32 -34 32 -26 0 -34 15 -12 23 24 9 52 -19 54 -54z m-83 -21 c-4
-13 -11 -41 -15 -63 l-6 -40 -2 37 c0 20 4 49 11 63 14 31 22 33 12 3z m41
-25 c-8 -54 -13 -66 -25 -58 -7 4 0 45 15 93 10 30 17 8 10 -35z m33 -55 c-2
-43 -10 -70 -23 -85 -21 -25 -65 -31 -65 -9 0 9 8 12 25 8 18 -3 25 0 25 11 0
9 -4 19 -10 22 -5 3 -10 12 -10 18 0 8 3 7 9 -2 15 -23 30 -3 37 49 9 70 17
62 12 -12z"/>
<path d="M9108 583 c-26 -31 -35 -55 -52 -151 -19 -105 -13 -144 29 -175 24
-17 27 -17 60 -1 19 9 35 21 35 27 0 6 6 18 14 26 22 24 38 139 27 197 -14 76
-77 118 -113 77z m79 -42 c7 -9 13 -27 13 -41 1 -14 3 -32 5 -42 6 -31 -25
-151 -43 -164 -24 -19 -55 -17 -68 4 -18 29 -26 80 -15 99 8 14 10 9 9 -25 0
-27 6 -50 15 -59 14 -15 18 -15 41 0 21 14 25 27 31 89 12 128 -29 178 -70 88
l-16 -35 6 40 c10 62 21 76 53 68 15 -3 32 -13 39 -22z m-33 -67 c9 -24 -4
-112 -19 -124 -18 -15 -25 9 -19 67 3 26 6 54 6 61 2 18 25 15 32 -4z"/>
<path d="M9239 584 c-6 -8 -1 -17 17 -29 27 -17 27 -18 21 -106 -4 -48 -11
-109 -17 -135 -12 -53 -2 -74 36 -74 27 0 38 30 55 150 13 90 15 93 39 78 16
-11 22 -9 34 7 8 11 12 23 10 27 -2 4 0 9 5 12 15 9 22 -73 10 -116 -27 -101
28 -165 113 -133 25 10 9 -49 -22 -84 -28 -30 -76 -42 -94 -24 -13 14 -41 12
-58 -4 -63 -56 56 -87 151 -38 48 24 101 92 101 129 0 25 19 19 26 -8 13 -51
57 -31 70 32 6 28 3 32 -22 38 -21 5 -31 2 -45 -14 -16 -21 -17 -17 -13 86 2
59 6 128 9 154 6 48 -2 62 -28 52 -21 -8 -38 -51 -44 -112 -3 -29 -9 -55 -14
-57 -4 -3 -4 -18 1 -34 10 -37 1 -84 -16 -77 -7 3 -18 -1 -24 -9 -15 -18 -50
-7 -62 21 -8 17 -7 40 1 81 7 32 10 82 7 111 -3 40 -1 52 9 52 17 0 22 -38 14
-120 -8 -71 0 -104 27 -114 27 -10 37 8 15 28 -17 16 -19 27 -14 109 6 116 -5
137 -62 120 -30 -10 -43 -9 -64 1 -21 12 -29 11 -48 -1 -21 -14 -25 -14 -42 1
-20 18 -67 18 -82 0z m94 -107 c3 -26 1 -50 -4 -52 -4 -3 -6 -15 -4 -27 3 -11
1 -26 -2 -32 -4 -6 -8 -28 -9 -49 -2 -43 -10 -55 -24 -41 -5 5 -5 26 1 54 6
24 8 53 6 62 -3 10 -1 21 4 24 5 3 6 16 3 30 -4 14 -2 24 5 24 6 0 9 6 7 13
-3 6 -7 26 -11 42 -6 27 -5 28 9 15 8 -8 17 -37 19 -63z m102 -347 c3 -5 -3
-10 -14 -10 -12 0 -21 5 -21 10 0 6 6 10 14 10 8 0 18 -4 21 -10z"/>
<path d="M4500 575 c0 -9 7 -27 16 -40 14 -22 14 -27 0 -56 -9 -17 -14 -35
-11 -39 3 -4 0 -43 -5 -86 -11 -84 -3 -103 31 -81 16 10 21 26 35 122 12 81
28 135 41 135 16 0 18 -37 2 -42 -17 -6 7 -48 26 -48 18 0 45 51 45 85 0 28
-32 65 -57 65 -9 0 -24 -7 -33 -15 -15 -14 -18 -14 -30 0 -17 20 -60 20 -60 0z"/>
<path d="M3538 573 c-21 -5 -22 -12 -4 -36 11 -13 13 -43 8 -123 -4 -90 -3
-107 13 -124 13 -14 22 -17 35 -10 15 8 17 19 13 72 -3 35 -1 86 4 115 7 38 7
59 -3 82 -13 30 -25 35 -66 24z m44 -80 c-10 -28 -10 -28 -11 12 -1 28 2 36
10 28 8 -8 8 -19 1 -40z m-2 -73 c0 -5 -4 -10 -10 -10 -5 0 -10 5 -10 10 0 6
5 10 10 10 6 0 10 -4 10 -10z m-7 -68 c3 -24 1 -40 -4 -36 -5 3 -9 24 -9 46 0
51 5 47 13 -10z"/>
<path d="M4702 465 c-3 -101 -2 -104 22 -120 14 -9 30 -14 35 -11 16 10 24
-14 22 -72 -1 -72 -21 -96 -71 -87 -30 5 -39 2 -58 -20 -38 -44 -28 -51 63
-45 102 6 134 64 134 243 -1 67 4 135 10 150 20 50 15 68 -19 65 -25 -2 -31
-8 -45 -49 -8 -26 -15 -68 -15 -93 0 -48 -8 -60 -35 -50 -15 6 -16 17 -11 81
6 68 -3 113 -22 113 -4 0 -8 -47 -10 -105z m128 0 c-7 -36 -14 -80 -15 -98 -4
-52 -5 -53 -14 -37 -6 8 -8 17 -6 20 1 3 6 33 9 66 3 34 8 70 12 80 3 11 8 25
10 33 3 8 7 11 10 8 4 -3 1 -36 -6 -72z m-10 -199 c0 -25 -5 -48 -10 -51 -7
-4 -10 12 -9 44 3 63 19 68 19 7z m-10 -75 c0 -5 -8 -18 -17 -29 -22 -26 -139
-44 -131 -21 3 9 19 13 46 12 30 -1 47 5 64 22 25 25 38 30 38 16z"/>
<path d="M5677 559 c-19 -11 -55 -75 -68 -123 -12 -40 9 -141 33 -163 41 -36
112 -7 138 58 15 36 7 59 -20 59 -14 0 -24 -10 -31 -30 -6 -16 -17 -30 -25
-30 -13 0 -37 67 -29 81 3 4 23 10 45 14 44 7 60 27 60 74 0 20 -8 36 -26 50
-29 23 -50 26 -77 10z m61 -31 c7 -7 12 -17 12 -22 0 -6 -5 -3 -11 7 -19 33
-59 8 -59 -37 0 -21 34 -21 55 0 19 20 33 11 16 -10 -7 -8 -31 -16 -54 -18
-37 -3 -42 -6 -45 -30 -4 -36 -22 -36 -22 -1 0 75 71 148 108 111z m-69 -223
c0 -5 -6 1 -14 15 -8 14 -14 30 -14 35 0 6 6 -1 14 -15 8 -14 14 -29 14 -35z
m77 10 c-9 -14 -23 -25 -30 -25 -9 0 -4 11 13 29 31 34 41 32 17 -4z"/>
<path d="M4663 388 c10 -83 63 -134 97 -93 11 13 9 15 -12 15 -35 0 -57 29
-64 83 -9 66 -28 61 -21 -5z"/>
<path d="M4916 357 c-19 -31 -10 -87 15 -87 18 0 49 46 49 73 0 8 -11 19 -25
25 -22 10 -27 9 -39 -11z m37 -23 c8 -8 -3 -34 -14 -34 -5 0 -9 9 -9 20 0 19
11 26 23 14z"/>
</g>
</svg>
