<?xml version="1.0" standalone="no"?>
<!DOCTYPE svg PUBLIC "-//W3C//DTD SVG 20010904//EN"
 "http://www.w3.org/TR/2001/REC-SVG-20010904/DTD/svg10.dtd">
<svg version="1.0" xmlns="http://www.w3.org/2000/svg"
 width="1000.000000pt" height="368.000000pt" viewBox="0 0 1000.000000 368.000000"
 preserveAspectRatio="xMidYMid meet">
<metadata>
Created by potrace 1.16, written by Peter Selinger 2001-2019
</metadata>
<g transform="translate(0.000000,368.000000) scale(0.100000,-0.100000)"
fill="#000000" stroke="none">
<path d="M3356 3539 c-104 -8 -220 -43 -280 -84 -17 -11 -52 -33 -77 -47 -122
-71 -241 -282 -285 -503 -22 -113 -22 -346 1 -421 8 -27 15 -60 15 -74 0 -14
12 -56 26 -95 14 -38 30 -86 36 -105 25 -85 224 -380 344 -509 57 -62 104
-128 104 -145 -1 -6 -9 0 -20 13 -17 20 -21 21 -26 7 -10 -25 15 -47 50 -44
26 3 31 -1 36 -27 13 -60 61 -108 90 -90 17 11 11 26 -25 58 -19 17 -35 38
-35 47 0 9 -11 27 -26 41 -14 13 -43 55 -65 94 -22 38 -63 97 -91 130 -67 80
-137 183 -142 207 -1 7 -21 33 -44 57 -64 68 -172 310 -172 387 0 12 -4 34
-10 48 -18 50 -32 286 -20 356 42 246 96 379 183 454 23 21 53 48 67 61 36 34
135 89 216 121 84 32 261 45 352 24 79 -17 193 -91 260 -169 32 -35 69 -78 85
-95 15 -17 27 -35 27 -41 0 -7 11 -22 25 -35 14 -13 25 -27 25 -32 0 -14 92
-127 150 -185 62 -61 156 -118 213 -128 35 -7 51 5 27 20 -5 3 -10 11 -10 17
0 6 11 3 24 -6 14 -9 31 -13 39 -10 8 3 19 -2 26 -10 10 -12 9 -14 -7 -9 -11
2 -23 0 -26 -6 -4 -6 -1 -11 7 -11 8 0 43 -9 78 -20 69 -22 115 -63 154 -137
25 -47 23 -45 115 -115 41 -31 91 -74 110 -95 19 -21 26 -30 15 -21 -25 20
-197 118 -207 118 -4 0 -8 -4 -8 -10 0 -5 6 -10 14 -10 7 0 20 -8 27 -17 15
-18 14 -17 -38 4 -7 3 -13 1 -13 -3 0 -5 28 -22 61 -39 34 -16 86 -46 117 -67
32 -21 61 -38 65 -38 4 0 24 -16 44 -37 49 -48 53 -27 9 44 -44 71 -104 134
-185 193 -60 44 -149 160 -143 187 1 6 -35 45 -80 87 -74 68 -84 74 -95 59
-12 -15 -15 -15 -38 7 -21 20 -28 22 -34 11 -7 -11 -13 -11 -32 3 -13 9 -34
16 -47 16 -24 0 -24 0 -6 -27 15 -24 15 -26 1 -14 -22 17 -22 3 0 -21 24 -27
5 -22 -57 15 -62 37 -179 165 -267 290 -93 133 -222 277 -248 277 -6 0 -26 12
-45 28 -19 15 -46 33 -60 39 -23 11 -165 45 -172 42 -2 -1 -48 -5 -102 -10z
m1124 -704 c7 -9 20 -13 29 -11 9 3 33 -10 56 -30 l40 -35 -40 20 c-22 12 -49
21 -60 21 -11 0 -28 12 -38 25 -19 27 -8 35 13 10z"/>
<path d="M6735 3508 c-119 -29 -258 -89 -341 -148 -85 -59 -223 -221 -273
-318 -43 -85 -251 -279 -285 -266 -8 3 -23 -6 -34 -20 -11 -14 -23 -26 -27
-26 -4 0 -24 -13 -44 -29 -61 -48 -91 -57 -41 -12 25 22 59 50 75 62 32 22 70
68 63 75 -3 2 -21 -11 -41 -30 -20 -18 -54 -46 -74 -62 -47 -35 -72 -64 -73
-84 0 -8 -20 -27 -43 -42 -23 -15 -78 -59 -122 -98 -44 -39 -101 -82 -127 -96
-45 -23 -60 -46 -38 -59 15 -9 67 22 73 45 3 13 16 22 36 26 20 4 55 33 109
89 65 67 231 205 247 205 3 0 -5 -16 -16 -35 -12 -19 -16 -35 -11 -35 6 0 12
6 15 13 2 6 8 9 12 5 4 -4 2 -14 -4 -22 -10 -12 -1 -11 40 4 55 20 81 38 39
26 -57 -15 -58 -15 -52 6 4 15 2 19 -7 13 -8 -4 -7 4 3 24 9 17 21 31 26 31 6
0 2 -12 -7 -27 -17 -26 -17 -27 1 -20 14 6 17 4 12 -8 -3 -10 -2 -13 5 -10 5
4 9 16 7 28 -2 16 9 29 47 53 69 44 165 125 165 138 0 6 12 25 26 41 14 17 47
64 72 105 86 139 193 256 287 314 85 53 217 107 285 118 127 19 294 -2 351
-45 19 -13 45 -28 59 -32 14 -4 46 -29 73 -55 36 -36 47 -55 47 -79 0 -17 5
-31 10 -31 6 0 10 -9 10 -20 0 -11 5 -20 10 -20 6 0 10 9 10 20 0 11 -4 20
-10 20 -5 0 -10 14 -10 31 0 17 -5 39 -10 50 -18 33 -94 98 -127 110 -18 6
-33 14 -33 19 0 13 60 -4 117 -33 29 -15 65 -43 80 -62 29 -36 43 -44 43 -22
0 25 -57 76 -120 107 -48 23 -102 38 -204 56 -145 25 -214 28 -281 12z"/>
<path d="M3287 3406 c-73 -26 -108 -55 -153 -128 l-39 -63 1 -105 c1 -112 13
-154 68 -234 31 -46 85 -89 103 -82 7 3 13 2 13 -2 0 -4 26 -22 58 -40 93 -54
153 -92 169 -107 8 -9 19 -13 24 -9 5 3 12 -2 15 -10 3 -9 12 -16 19 -16 6 0
20 -9 30 -20 10 -11 22 -20 27 -20 6 0 36 -20 67 -43 31 -24 78 -56 104 -71
52 -31 130 -112 174 -180 24 -38 53 -60 53 -40 0 24 -90 150 -142 199 -96 89
-293 225 -326 225 -8 0 -36 20 -63 44 -27 25 -78 61 -112 81 -138 80 -204 132
-222 177 -23 56 -32 207 -15 258 16 48 76 99 165 139 55 25 81 31 137 31 77 0
208 -38 243 -70 100 -92 166 -169 228 -265 14 -22 36 -52 49 -67 13 -15 57
-70 98 -124 83 -107 186 -213 252 -260 86 -62 248 -123 326 -124 43 0 17 25
-32 32 -78 11 -177 45 -236 81 -86 51 -242 219 -386 417 -126 172 -163 219
-213 273 -118 126 -330 180 -484 123z"/>
<path d="M6632 3375 c-38 -19 -76 -43 -83 -52 -13 -14 93 39 116 59 5 4 19 8
31 8 13 0 26 5 29 10 12 19 -23 10 -93 -25z"/>
<path d="M6800 3392 c0 -6 12 -10 28 -10 15 1 38 -3 52 -7 19 -5 22 -4 14 5
-15 16 -94 26 -94 12z"/>
<path d="M7020 3355 c0 -3 11 -22 24 -43 14 -20 28 -49 31 -64 4 -16 11 -28
16 -28 14 0 0 49 -28 98 -20 36 -43 55 -43 37z"/>
<path d="M7136 3340 c3 -14 10 -29 15 -34 5 -6 9 -20 9 -33 0 -13 5 -23 10
-23 20 0 10 59 -16 87 l-25 28 7 -25z"/>
<path d="M6678 3321 c-94 -26 -203 -80 -268 -133 -30 -24 -63 -47 -72 -51 -10
-3 -18 -12 -18 -18 0 -7 -21 -35 -47 -64 -27 -28 -77 -86 -111 -128 -72 -86
-173 -188 -218 -218 -21 -14 -24 -19 -11 -19 27 0 154 117 245 226 206 247
317 331 497 374 113 28 178 26 244 -8 97 -48 145 -167 118 -290 -13 -63 -80
-168 -141 -224 -66 -60 -227 -172 -384 -268 -192 -117 -212 -131 -318 -205
-112 -79 -259 -222 -289 -281 -11 -21 -31 -57 -44 -79 -37 -60 -75 -223 -75
-320 0 -158 17 -163 85 -25 10 19 39 58 64 85 26 28 75 81 108 118 81 91 110
106 65 35 -81 -128 -145 -307 -159 -443 -6 -55 -17 -120 -25 -146 -14 -44 -10
-109 7 -109 5 0 13 9 19 20 6 11 16 20 23 20 7 0 23 13 35 29 12 16 40 40 62
52 22 12 40 26 40 30 0 3 18 18 40 33 27 17 40 22 40 13 0 -18 -29 -56 -30
-38 0 11 -3 11 -15 1 -8 -7 -15 -16 -15 -20 0 -15 -98 -155 -154 -220 -57 -67
-66 -93 -31 -98 34 -4 49 12 35 37 -10 19 -7 27 25 64 45 52 47 55 70 95 11
17 25 32 32 32 6 0 19 10 27 22 23 33 20 15 -5 -26 -12 -20 -26 -36 -32 -36
-6 0 -8 -3 -5 -6 14 -14 48 20 78 78 18 35 39 70 46 79 8 9 13 27 12 40 -3 35
155 229 181 222 12 -3 31 7 52 27 33 31 33 32 4 13 -62 -41 -80 -38 -45 7 11
14 47 61 80 105 34 44 68 83 78 87 15 6 14 7 -3 7 -21 1 -137 -134 -168 -195
-9 -16 -59 -75 -111 -130 -53 -54 -96 -101 -96 -104 -1 -6 -90 -74 -105 -79
-5 -2 13 21 40 50 58 62 18 30 -68 -54 -33 -32 -61 -56 -64 -54 -2 3 6 21 18
41 36 61 12 40 -36 -31 -34 -51 -45 -62 -45 -45 0 12 7 39 15 58 8 20 23 89
34 153 l19 118 66 63 c36 35 64 66 61 69 -3 2 -33 -22 -66 -55 -73 -71 -72
-59 8 96 100 191 88 173 178 264 63 64 71 71 179 156 69 54 74 60 54 60 -28 0
-298 -217 -298 -239 0 -5 -12 -19 -27 -31 -23 -18 -28 -19 -35 -6 -6 10 -3 27
7 46 8 16 11 30 6 30 -11 0 -37 -60 -33 -77 2 -7 -2 -13 -8 -13 -5 0 -10 -8
-10 -18 0 -9 -48 -65 -106 -122 -58 -58 -117 -122 -130 -142 -13 -21 -29 -38
-35 -38 -16 0 -2 130 21 205 10 33 21 74 25 92 4 18 16 47 29 65 12 18 31 51
42 73 25 47 165 195 222 233 22 15 82 56 133 91 80 55 284 181 294 181 11 0
290 195 329 231 60 55 126 142 126 167 0 11 7 35 15 55 10 24 14 60 11 114 -3
72 -6 83 -46 145 -33 52 -54 73 -88 90 -62 30 -167 34 -254 9z m-686 -2113
c-7 -7 -12 -8 -12 -2 0 14 12 26 19 19 2 -3 -1 -11 -7 -17z"/>
<path d="M6990 3323 c0 -5 11 -20 25 -33 14 -13 25 -19 25 -13 0 5 -11 20 -25
33 -14 13 -25 19 -25 13z"/>
<path d="M7202 3278 c2 -17 8 -33 14 -35 6 -2 8 10 6 32 -5 44 -24 47 -20 3z"/>
<path d="M6475 3290 c-5 -5 -23 -21 -40 -34 -16 -14 -25 -25 -20 -25 6 0 28
15 50 34 22 19 36 35 30 34 -5 0 -14 -4 -20 -9z"/>
<path d="M7280 3289 c0 -6 18 -45 40 -86 22 -42 40 -83 40 -92 0 -9 6 -36 14
-61 43 -134 47 -160 53 -325 8 -255 -25 -509 -87 -665 -83 -211 -246 -431
-435 -586 -33 -27 -91 -77 -129 -111 -38 -35 -74 -63 -80 -63 -15 -1 -81 -58
-74 -65 3 -3 18 5 34 18 16 13 40 28 53 32 13 4 54 35 91 69 37 33 90 81 120
106 29 25 65 56 79 70 15 14 45 41 67 61 64 58 194 238 209 289 4 14 13 32 20
40 41 50 109 210 120 283 2 15 7 32 10 37 18 28 38 561 22 587 -3 4 -8 37 -11
73 -3 36 -13 90 -22 120 -9 30 -18 69 -21 85 -3 17 -16 46 -28 65 -12 19 -32
56 -44 83 -21 44 -41 61 -41 36z"/>
<path d="M7174 3168 c1 -43 4 -78 8 -78 15 0 18 67 5 110 l-14 45 1 -77z"/>
<path d="M6338 3184 c-45 -33 -96 -99 -85 -110 2 -2 12 8 22 23 9 15 40 49 68
75 62 56 60 61 -5 12z"/>
<path d="M7255 3069 c-9 -28 1 -36 14 -10 7 12 7 22 2 26 -5 3 -13 -4 -16 -16z"/>
<path d="M7230 2985 c-8 -9 -8 -15 -2 -15 12 0 26 19 19 26 -2 2 -10 -2 -17
-11z"/>
<path d="M7222 2933 c-1 -7 -11 -22 -23 -34 -23 -23 -18 -39 6 -19 14 12 14
10 5 -15 -11 -30 -6 -45 11 -28 6 6 8 32 6 59 -2 27 -4 43 -5 37z"/>
<path d="M7093 2880 c-6 -16 -7 -30 -2 -30 9 0 29 33 29 49 0 22 -16 10 -27
-19z"/>
<path d="M7337 2783 c-11 -19 -18 -73 -9 -73 5 0 12 17 15 37 6 36 4 52 -6 36z"/>
<path d="M7022 2703 c-46 -51 -48 -53 -29 -53 18 1 50 31 66 62 23 45 7 41
-37 -9z"/>
<path d="M4435 2688 c-16 -44 -10 -63 26 -81 43 -21 89 -10 89 21 0 45 -101
97 -115 60z m58 -14 c7 -7 -14 -44 -25 -44 -5 0 -8 11 -8 25 0 23 18 34 33 19z"/>
<path d="M5821 2627 c-6 -8 -8 -17 -4 -20 3 -4 -3 -9 -13 -13 -10 -3 -50 -21
-89 -39 -38 -19 -98 -43 -132 -56 -35 -12 -63 -26 -63 -30 0 -14 67 -10 105 5
18 8 36 12 38 9 10 -9 127 59 170 99 23 21 45 38 49 38 5 0 8 5 8 10 0 15 -56
12 -69 -3z"/>
<path d="M6941 2582 c-30 -38 -39 -62 -23 -62 10 1 65 90 59 96 -2 3 -19 -13
-36 -34z"/>
<path d="M5664 2591 c-64 -39 -51 -62 18 -32 23 11 35 20 26 20 -11 1 -15 6
-12 16 8 19 5 19 -32 -4z"/>
<path d="M7326 2578 c-3 -7 -11 -35 -20 -62 -15 -48 -14 -70 2 -50 5 5 14 29
21 53 7 23 15 49 18 57 3 8 0 14 -6 14 -7 0 -13 -6 -15 -12z"/>
<path d="M2876 2491 c-26 -29 -11 -44 32 -32 60 18 145 -29 217 -119 22 -28
49 -63 61 -77 34 -43 36 -11 3 53 -54 105 -155 183 -249 192 -37 3 -49 0 -64
-17z"/>
<path d="M7149 2488 c-5 -13 -16 -34 -24 -48 -8 -14 -15 -34 -15 -46 0 -11 -9
-29 -20 -39 -11 -10 -20 -28 -20 -41 0 -29 -92 -219 -122 -253 -13 -14 -31
-36 -39 -47 -51 -76 -139 -183 -224 -272 -54 -56 -95 -105 -92 -108 6 -6 201
189 225 226 9 14 40 57 69 96 29 39 53 76 53 82 0 6 8 16 19 21 10 6 26 27 36
48 10 21 21 40 24 43 15 12 161 335 161 355 0 15 -22 2 -31 -17z"/>
<path d="M3681 2408 c10 -20 31 -49 69 -95 6 -7 10 -15 10 -19 0 -4 7 -16 17
-26 21 -24 11 -32 -24 -21 -19 7 -29 17 -31 34 -2 13 -25 45 -54 72 -40 37
-54 45 -64 36 -14 -12 -10 -29 7 -29 17 0 79 -54 79 -70 1 -27 25 -48 70 -60
30 -8 56 -24 77 -48 42 -47 32 -13 -12 43 -17 22 -57 77 -89 123 -56 80 -79
105 -55 60z"/>
<path d="M6733 2382 c-22 -20 -68 -57 -102 -82 -33 -25 -60 -48 -61 -52 0 -14
27 -8 41 8 7 8 50 45 96 81 75 60 96 83 76 83 -5 0 -27 -17 -50 -38z"/>
<path d="M5275 2350 c-3 -5 -1 -10 4 -10 6 0 11 5 11 10 0 6 -2 10 -4 10 -3 0
-8 -4 -11 -10z"/>
<path d="M6499 2312 c-52 -31 -179 -121 -179 -127 0 -2 8 -1 17 2 13 5 15 3 9
-13 -15 -40 -20 -77 -8 -70 7 4 12 13 12 21 0 7 9 33 19 58 16 36 33 53 100
96 45 28 81 54 81 56 0 7 0 7 -51 -23z"/>
<path d="M7261 2294 c-7 -19 -11 -38 -8 -41 6 -5 37 50 37 67 0 23 -17 8 -29
-26z"/>
<path d="M6323 2278 c-29 -11 -53 -25 -53 -30 0 -12 31 -2 83 28 50 28 41 29
-30 2z"/>
<path d="M3238 2258 c3 -13 16 -32 29 -43 13 -11 23 -25 23 -31 0 -6 10 -19
21 -30 12 -10 33 -37 47 -59 14 -22 32 -47 41 -55 19 -18 78 -131 110 -211 12
-31 33 -67 47 -80 13 -12 24 -33 24 -45 0 -13 5 -26 10 -29 6 -4 20 -28 31
-53 11 -26 33 -74 49 -107 16 -33 31 -72 35 -86 8 -31 51 -87 60 -77 3 3 2 14
-4 25 -6 10 -22 50 -37 88 -24 61 -95 209 -178 370 -14 28 -45 91 -69 140 -51
104 -157 253 -204 284 -41 26 -42 26 -35 -1z"/>
<path d="M7141 2236 c-12 -25 -21 -51 -19 -58 6 -17 50 68 46 88 -2 8 -14 -6
-27 -30z"/>
<path d="M6633 2168 c-50 -57 -132 -146 -183 -198 -50 -52 -120 -129 -156
-170 -70 -82 -224 -323 -224 -351 0 -32 17 -30 24 2 6 30 96 183 103 175 4 -3
-23 -123 -33 -150 -3 -9 -1 -16 4 -16 13 0 38 85 48 158 6 50 26 88 80 156 12
14 24 26 26 26 3 0 -1 -24 -9 -52 -7 -29 -16 -78 -19 -108 -9 -81 10 -51 26
40 7 41 16 85 21 96 4 12 3 26 -2 31 -7 7 32 54 116 141 69 71 135 143 147
159 12 15 46 54 75 86 45 50 63 77 50 77 -2 0 -44 -46 -94 -102z"/>
<path d="M4040 2252 c0 -16 48 -88 102 -153 21 -26 38 -50 38 -53 0 -3 21 -48
46 -98 44 -89 47 -98 55 -216 5 -67 8 -126 8 -130 -4 -26 2 -92 9 -92 16 0 27
85 18 138 -7 38 -6 59 2 72 9 15 8 28 -2 57 -7 21 -16 55 -20 77 -9 46 -76
191 -117 249 -42 61 -138 164 -139 149z"/>
<path d="M6171 2179 c-35 -16 -61 -32 -58 -35 3 -3 32 6 64 22 67 32 68 32 62
39 -3 2 -34 -9 -68 -26z"/>
<path d="M3780 2174 c0 -7 60 -81 132 -163 27 -30 48 -61 48 -67 0 -7 9 -15
19 -19 18 -5 45 -52 39 -66 -2 -4 5 -15 14 -25 9 -11 21 -31 27 -47 9 -22 8
-27 -4 -27 -21 0 -19 -6 18 -47 50 -56 58 -63 68 -63 5 0 20 -25 34 -55 24
-55 45 -72 45 -36 0 11 6 18 16 17 46 -3 9 57 -41 68 -34 8 -68 53 -100 131
-11 28 -40 91 -65 142 -44 90 -67 118 -54 68 3 -14 4 -25 0 -25 -9 0 -50 82
-52 103 -1 10 -7 24 -14 30 -10 10 -10 7 -1 -10 21 -40 -3 -23 -52 38 -41 50
-77 75 -77 53z m434 -560 c10 -25 -1 -29 -14 -5 -6 12 -7 21 -1 21 5 0 12 -7
15 -16z"/>
<path d="M6212 2105 c-81 -66 -156 -139 -229 -223 -56 -65 -13 -30 105 87 70
69 150 145 177 168 82 69 47 48 -53 -32z"/>
<path d="M6956 2149 c-14 -17 -26 -36 -26 -42 0 -7 3 -7 8 -1 4 5 20 24 36 42
17 17 25 32 19 32 -6 0 -23 -14 -37 -31z"/>
<path d="M6857 2112 c-20 -21 -37 -41 -37 -44 0 -15 69 38 74 57 8 30 3 28
-37 -13z"/>
<path d="M7194 2138 c-4 -7 -15 -24 -23 -38 -15 -22 -15 -24 2 -17 26 10 18
-15 -56 -163 -34 -68 -62 -136 -63 -150 0 -14 -4 -38 -9 -54 -5 -19 -4 -27 2
-23 11 7 35 86 37 125 1 13 6 26 12 30 25 18 94 180 115 270 7 32 -3 44 -17
20z"/>
<path d="M4060 2137 c0 -10 91 -167 102 -173 17 -11 7 17 -27 73 -38 63 -74
112 -75 100z"/>
<path d="M6504 2106 c-10 -8 -17 -17 -14 -19 3 -3 16 3 30 13 29 22 14 27 -16
6z"/>
<path d="M6237 2083 c-22 -42 -30 -73 -19 -73 11 0 45 90 38 98 -3 2 -11 -9
-19 -25z"/>
<path d="M6702 2070 c-12 -16 -22 -34 -22 -40 0 -6 -16 -36 -35 -66 -20 -31
-31 -53 -26 -50 11 7 121 171 121 180 0 15 -18 3 -38 -24z"/>
<path d="M7221 2044 c-12 -27 -11 -28 4 -12 10 9 16 21 13 28 -2 7 -10 -1 -17
-16z"/>
<path d="M6731 2009 c-23 -22 -57 -61 -78 -87 -54 -68 -56 -70 -48 -42 l6 25
-20 -25 c-23 -28 -27 -50 -9 -50 17 0 184 175 191 200 7 28 3 26 -42 -21z"/>
<path d="M2850 2023 c0 -18 34 -93 41 -93 5 0 9 -5 9 -10 0 -10 48 -89 61
-100 3 -3 26 -34 51 -70 26 -36 55 -72 65 -81 10 -9 31 -35 46 -58 16 -23 33
-41 38 -41 29 0 -10 75 -82 160 -25 30 -86 110 -134 178 -83 116 -95 131 -95
115z"/>
<path d="M5999 2002 c-47 -30 -75 -59 -67 -68 3 -3 19 8 35 23 16 15 42 38 58
50 43 31 27 28 -26 -5z"/>
<path d="M6390 1995 c-13 -14 -19 -25 -13 -25 5 0 20 11 33 25 13 14 19 25 13
25 -5 0 -20 -11 -33 -25z"/>
<path d="M6543 1999 c-13 -16 -28 -69 -19 -69 3 0 13 14 21 31 18 34 16 60 -2
38z"/>
<path d="M3185 1990 c-3 -5 2 -21 12 -35 30 -41 44 -29 21 20 -12 26 -23 32
-33 15z"/>
<path d="M4092 1988 c14 -46 95 -198 105 -198 7 0 13 4 13 9 0 13 -50 117 -79
164 -22 35 -47 51 -39 25z"/>
<path d="M3250 1980 c0 -5 7 -10 15 -10 8 0 15 5 15 10 0 6 -7 10 -15 10 -8 0
-15 -4 -15 -10z"/>
<path d="M6806 1965 c-22 -17 -17 -29 7 -19 16 6 32 34 19 34 -4 0 -16 -7 -26
-15z"/>
<path d="M7166 1944 c-9 -36 1 -43 14 -10 12 33 12 36 1 36 -5 0 -12 -12 -15
-26z"/>
<path d="M3141 1945 c0 -24 36 -80 52 -83 25 -5 21 8 -18 53 -19 22 -35 36
-34 30z"/>
<path d="M4212 1896 c2 -16 9 -31 17 -34 10 -3 11 2 6 19 -12 39 -27 48 -23
15z"/>
<path d="M6289 1903 c-13 -10 -30 -23 -37 -30 -26 -25 11 -14 42 12 34 29 31
42 -5 18z"/>
<path d="M6938 1883 c-13 -21 -32 -60 -42 -86 -10 -26 -28 -60 -40 -75 -12
-15 -38 -49 -56 -77 -19 -27 -50 -67 -69 -89 -20 -22 -29 -37 -19 -33 36 13
-17 -57 -122 -162 -19 -19 -34 -39 -33 -45 3 -11 -165 -116 -184 -116 -6 0
-43 -16 -83 -36 -40 -19 -74 -34 -76 -31 -2 2 26 23 61 46 36 24 68 47 71 52
11 18 -18 8 -69 -25 -28 -18 -73 -45 -99 -60 -27 -15 -48 -29 -48 -32 0 -14
102 6 149 30 69 33 81 33 50 -1 -55 -62 -90 -114 -93 -140 -5 -31 -22 -85 -41
-123 -6 -14 -20 -61 -29 -105 -24 -109 -54 -214 -55 -192 -1 28 -30 77 -46 77
-26 0 -26 -38 0 -101 14 -34 25 -67 25 -72 0 -6 15 -42 34 -81 18 -39 33 -86
34 -105 1 -39 30 -84 57 -90 14 -2 16 1 10 15 -5 11 -10 37 -12 59 -2 22 -8
49 -13 60 -23 48 -33 84 -40 145 -10 72 -4 110 15 110 8 0 14 23 18 63 4 34
11 76 16 92 6 17 15 64 21 105 7 41 16 82 21 90 5 8 12 22 15 30 19 52 64 128
92 156 17 18 32 37 32 42 0 4 26 23 58 42 31 18 76 49 99 67 23 18 46 33 52
33 6 0 11 4 11 9 0 4 12 21 26 36 14 15 30 38 35 51 4 13 13 24 19 24 23 0
-61 -135 -128 -205 -52 -55 -112 -153 -105 -172 2 -6 -3 -25 -11 -41 -20 -38
-71 -224 -90 -328 -8 -45 -13 -104 -9 -135 5 -51 4 -53 -11 -34 -9 11 -25 39
-35 62 -11 24 -27 43 -35 43 -31 0 -18 -65 34 -176 28 -59 57 -130 65 -157 16
-54 40 -87 62 -87 16 0 17 -8 -7 70 -11 36 -20 83 -20 105 0 22 -7 50 -15 61
-21 31 -2 244 39 434 25 111 33 134 87 225 27 46 49 88 49 94 0 5 6 14 13 18
6 4 26 28 42 53 17 25 36 51 43 59 19 19 72 128 72 146 0 8 4 15 8 15 4 0 8
15 9 34 1 30 11 49 48 90 34 36 106 148 121 186 9 25 25 56 34 70 28 42 32 50
22 50 -5 0 -20 -17 -34 -37z"/>
<path d="M6421 1849 c-7 -30 -11 -64 -9 -75 7 -28 30 60 26 99 -3 28 -5 26
-17 -24z"/>
<path d="M6018 1826 c-60 -48 -76 -66 -57 -66 6 0 37 25 67 55 31 30 54 55 51
55 -2 0 -29 -20 -61 -44z"/>
<path d="M6675 1849 c-25 -15 -26 -19 -10 -19 20 1 55 22 55 34 0 10 -13 6
-45 -15z"/>
<path d="M7031 1844 c-12 -15 -21 -32 -21 -38 1 -11 24 15 41 47 14 25 3 21
-20 -9z"/>
<path d="M6172 1761 c-41 -30 -60 -51 -45 -51 9 0 101 79 92 80 -3 0 -24 -13
-47 -29z"/>
<path d="M3200 1773 c0 -3 6 -14 13 -22 27 -32 156 -258 192 -335 41 -89 81
-146 101 -146 8 0 14 8 14 19 0 21 -72 156 -99 186 -10 11 -47 70 -81 130 -77
133 -106 175 -126 175 -7 0 -14 -3 -14 -7z"/>
<path d="M7013 1733 c-34 -61 -102 -149 -142 -187 -17 -17 -31 -34 -31 -40 0
-6 23 12 50 39 53 52 60 53 35 5 -9 -17 -12 -30 -7 -30 12 0 39 51 47 89 4 18
25 61 46 94 36 56 46 77 34 77 -2 0 -16 -21 -32 -47z"/>
<path d="M6565 1733 c-19 -10 -25 -18 -16 -21 7 -2 23 5 34 17 25 25 22 26
-18 4z"/>
<path d="M6706 1709 c-22 -66 -32 -130 -18 -113 12 13 35 114 28 121 -3 3 -8
0 -10 -8z"/>
<path d="M4237 1693 c-4 -3 -7 -11 -7 -17 0 -6 5 -5 12 2 6 6 9 14 7 17 -3 3
-9 2 -12 -2z"/>
<path d="M4092 1642 c28 -65 75 -152 83 -152 6 0 21 -30 33 -67 13 -38 30 -81
37 -98 21 -47 45 -107 45 -113 0 -3 -18 11 -40 33 -22 21 -42 36 -45 33 -4 -3
7 -40 23 -81 34 -89 25 -104 -32 -54 -20 18 -36 35 -36 38 0 3 -30 59 -66 125
-65 118 -104 172 -104 145 0 -25 158 -306 181 -321 12 -8 30 -60 21 -60 -14 0
-98 94 -136 152 -20 32 -59 80 -85 108 -37 38 -47 56 -44 74 7 34 -15 42 -28
12 -10 -22 -8 -31 15 -66 14 -22 30 -40 35 -40 5 0 28 -30 52 -67 24 -38 58
-84 74 -103 36 -41 60 -90 44 -90 -5 0 -24 23 -41 50 -29 47 -58 66 -58 38 0
-7 -8 1 -19 17 -16 27 -60 65 -76 65 -3 0 -5 -6 -5 -13 0 -22 105 -117 130
-117 8 0 23 -14 32 -30 12 -22 25 -30 44 -30 24 0 25 3 19 28 l-7 27 30 -29
c35 -33 56 -27 50 16 -5 29 -4 29 28 24 41 -8 48 3 28 49 -19 47 -13 68 10 32
25 -36 50 -36 43 1 -23 125 -188 471 -225 472 -8 0 -12 -3 -10 -8z"/>
<path d="M3416 1588 c4 -7 16 -25 26 -40 10 -14 18 -33 18 -42 0 -8 13 -41 29
-73 16 -32 36 -83 46 -113 23 -76 40 -111 68 -140 13 -14 22 -31 19 -39 -5
-15 33 -141 56 -185 8 -17 14 -51 13 -78 -1 -27 2 -55 6 -61 8 -13 9 -19 13
-162 2 -55 9 -113 15 -130 6 -16 12 -64 13 -105 2 -73 2 -74 -15 -54 -10 12
-26 36 -35 54 -22 39 -44 31 -23 -9 8 -16 26 -43 41 -60 15 -18 24 -34 21 -38
-8 -7 -68 57 -87 92 -18 34 -98 97 -119 93 -30 -6 -21 -28 26 -62 50 -37 141
-136 124 -136 -11 0 -127 67 -151 86 -17 14 -47 3 -36 -14 3 -6 32 -25 64 -42
31 -18 67 -42 80 -54 13 -11 27 -21 30 -20 4 0 25 -7 48 -17 29 -13 50 -33 72
-69 17 -27 38 -50 47 -50 21 0 19 17 -10 66 -21 36 -24 51 -20 106 4 61 -5
176 -26 343 -17 138 -17 198 -1 218 13 14 13 26 4 70 -6 28 -15 83 -21 121
-12 87 -36 118 -28 36 6 -58 -2 -45 -23 38 -12 46 -36 59 -27 15 l5 -28 -24
28 c-13 16 -24 37 -24 48 0 11 -18 55 -39 97 -43 83 -60 139 -40 126 7 -4 10
-2 7 7 -3 8 -10 14 -15 14 -6 0 -15 4 -20 9 -5 5 -3 6 5 2 20 -12 14 6 -30 84
-32 56 -49 76 -67 78 -17 3 -21 0 -15 -10z m303 -635 c1 -13 6 -23 11 -23 6 0
10 -6 10 -12 -1 -7 -9 -3 -20 10 -23 27 -42 90 -33 106 8 11 31 -48 32 -81z"/>
<path d="M6575 1547 c-10 -32 -15 -60 -12 -63 7 -7 40 93 35 108 -3 7 -13 -13
-23 -45z"/>
<path d="M6471 1515 c-17 -20 -31 -39 -31 -43 0 -4 -18 -27 -40 -52 -53 -60
-94 -119 -87 -126 3 -3 26 24 51 59 60 85 97 116 64 54 -14 -27 -28 -87 -19
-87 10 0 43 109 36 120 -4 6 10 31 30 56 44 54 41 70 -4 19z"/>
<path d="M3550 1510 c0 -6 9 -29 20 -50 12 -24 16 -40 9 -40 -6 0 -8 -7 -5
-16 3 -8 2 -12 -4 -9 -17 10 -11 -5 23 -64 18 -31 40 -69 49 -86 17 -31 38
-45 38 -26 0 7 -13 37 -29 69 -18 36 -27 67 -24 83 3 17 -7 44 -32 87 -37 62
-45 71 -45 52z"/>
<path d="M4066 1458 c4 -13 17 -46 30 -75 13 -28 24 -55 24 -59 0 -16 45 -74
57 -74 9 0 7 12 -7 38 -10 20 -35 72 -54 115 -19 42 -40 77 -46 77 -7 0 -9 -8
-4 -22z"/>
<path d="M4144 1391 c3 -4 10 -21 16 -36 6 -15 13 -26 15 -23 8 8 -16 68 -27
68 -5 0 -7 -4 -4 -9z"/>
<path d="M3680 1360 c0 -6 -11 -8 -25 -6 -14 3 -25 1 -25 -3 0 -4 11 -18 25
-31 14 -13 25 -29 25 -35 0 -6 14 -32 30 -59 42 -65 59 -49 20 20 -16 29 -30
67 -30 83 0 17 -4 33 -10 36 -5 3 -10 1 -10 -5z"/>
<path d="M3720 1325 c0 -20 47 -95 60 -95 16 0 12 10 -21 62 -33 52 -39 56
-39 33z"/>
<path d="M3865 1271 c-8 -14 1 -28 25 -41 29 -15 32 4 6 29 -15 15 -26 19 -31
12z"/>
<path d="M3875 1181 c-6 -10 37 -168 55 -201 11 -20 30 -27 30 -11 0 19 -32
138 -48 178 -17 43 -26 51 -37 34z"/>
<path d="M3810 1146 c0 -14 66 -145 81 -160 17 -18 21 3 5 31 -9 15 -27 54
-40 86 -23 53 -46 75 -46 43z"/>
<path d="M6094 1092 c-14 -9 -26 -82 -14 -82 9 0 35 79 28 85 -2 2 -8 1 -14
-3z"/>
<path d="M6332 1073 c-12 -32 -15 -51 -13 -108 1 -35 2 -38 17 -24 10 11 16
38 17 87 2 76 -4 89 -21 45z"/>
<path d="M6125 1030 c-14 -22 -28 -55 -32 -73 -5 -31 -5 -31 10 -12 9 11 17
24 17 29 0 5 8 18 18 29 14 16 26 67 15 67 -1 0 -14 -18 -28 -40z"/>
<path d="M6190 1039 c0 -5 5 -7 10 -4 6 3 10 8 10 11 0 2 -4 4 -10 4 -5 0 -10
-5 -10 -11z"/>
<path d="M6151 956 c-14 -17 -11 -48 4 -53 6 -2 20 3 30 11 16 12 18 19 9 32
-14 24 -29 27 -43 10z"/>
<path d="M3887 944 c-3 -3 -4 -11 -2 -17 3 -7 6 -132 8 -278 l3 -266 -32 67
c-33 70 -47 86 -65 75 -7 -5 -6 -14 4 -28 24 -38 101 -182 91 -172 -6 6 -23
27 -38 48 -19 26 -32 35 -38 29 -10 -10 32 -77 59 -95 17 -10 43 -66 38 -80
-6 -15 37 -99 53 -105 24 -8 23 29 -3 75 -15 28 -22 49 -16 51 7 2 9 29 4 80
-3 43 -6 86 -5 97 1 11 1 38 1 60 -1 22 -1 47 -1 55 6 114 0 386 -8 394 -7 7
-10 2 -11 -15 0 -23 -1 -23 -9 -3 -10 24 -24 36 -33 28z"/>
<path d="M6045 888 c-13 -20 -13 -24 0 -38 12 -11 20 -12 33 -4 24 16 26 37 3
51 -17 11 -22 9 -36 -9z"/>
<path d="M3550 287 c0 -14 39 -41 48 -33 6 7 -27 46 -40 46 -4 0 -8 -6 -8 -13z"/>
</g>
</svg>
