<?xml version="1.0" standalone="no"?>
<!DOCTYPE svg PUBLIC "-//W3C//DTD SVG 20010904//EN"
 "http://www.w3.org/TR/2001/REC-SVG-20010904/DTD/svg10.dtd">
<svg version="1.0" xmlns="http://www.w3.org/2000/svg"
 width="696.000000pt" height="512.000000pt" viewBox="0 0 696.000000 512.000000"
 preserveAspectRatio="xMidYMid meet">
<metadata>
Created by potrace 1.16, written by Peter Selinger 2001-2019
</metadata>
<g transform="translate(0.000000,512.000000) scale(0.100000,-0.100000)"
fill="#000000" stroke="none">
<path d="M5219 4919 c-103 -15 -384 -115 -418 -148 -9 -10 -29 -23 -46 -30
-76 -33 -235 -179 -280 -258 -9 -15 -29 -46 -46 -68 -45 -61 -74 -121 -107
-225 -52 -164 -62 -227 -62 -378 0 -271 50 -444 187 -650 64 -96 273 -314 343
-358 76 -47 203 -111 248 -125 23 -6 42 -15 42 -18 0 -4 12 -7 27 -6 23 0 28
-5 33 -30 6 -36 31 -44 121 -37 61 4 66 3 71 -16 4 -12 0 -26 -8 -33 -18 -15
-18 -33 1 -49 12 -10 14 -37 10 -151 l-5 -139 -41 -39 c-35 -34 -39 -42 -29
-60 6 -12 16 -21 22 -21 22 0 1 -81 -30 -114 l-30 -31 -3 -364 c-3 -266 0
-366 8 -368 6 -2 14 5 18 17 3 11 11 17 17 14 6 -4 14 0 19 7 6 10 9 8 9 -9 0
-29 29 -41 45 -19 9 12 27 17 68 17 40 0 56 4 61 16 3 8 6 114 5 234 0 121 2
223 5 228 3 5 7 66 10 137 3 70 8 130 12 134 3 3 3 -166 -1 -376 -8 -403 -8
-396 36 -372 13 6 25 7 32 1 24 -19 67 -20 77 -3 13 25 15 680 2 713 -6 14
-19 34 -30 45 -30 28 -34 62 -11 94 27 38 24 57 -15 94 l-35 32 -2 141 c-2
119 1 143 15 157 20 21 20 32 -1 43 -10 6 -14 16 -9 27 5 14 17 16 69 14 61
-4 62 -4 77 27 12 26 24 34 68 45 29 7 55 16 58 21 3 4 12 8 20 8 36 0 222
109 299 176 44 38 118 109 135 130 73 91 92 118 123 184 19 41 43 95 52 120 9
25 25 70 36 100 59 161 76 419 40 596 -16 77 -77 233 -111 284 -6 8 -15 27
-21 43 -6 15 -15 27 -19 27 -5 0 -12 10 -16 23 -18 59 -237 296 -335 363 -96
65 -267 144 -349 161 -145 31 -341 40 -461 22z m359 -39 c63 -7 106 -17 122
-29 14 -10 42 -21 64 -24 83 -13 183 -84 337 -237 160 -159 217 -237 309 -425
36 -73 99 -367 86 -401 -3 -9 -9 -53 -11 -98 -8 -127 -34 -243 -77 -351 -69
-174 -112 -240 -241 -374 -81 -83 -276 -211 -323 -211 -9 0 -55 -13 -103 -29
-181 -61 -307 -74 -431 -45 -36 8 -81 17 -100 20 -117 16 -291 87 -418 172
-109 72 -305 288 -358 394 -12 24 -35 70 -52 103 -30 61 -65 188 -77 282 -4
29 -7 122 -7 205 0 124 4 168 21 233 30 116 77 243 103 281 13 18 44 63 70
101 56 83 149 172 235 226 21 13 67 42 103 65 70 44 196 96 259 107 21 3 65
15 97 25 69 22 237 26 392 10z m-60 -2295 c11 -9 -34 -33 -63 -33 -27 0 -35 4
-35 18 0 10 6 20 13 23 11 4 78 -2 85 -8z m-128 -5 c0 -5 -4 -10 -10 -10 -5 0
-10 5 -10 10 0 6 5 10 10 10 6 0 10 -4 10 -10z m40 -60 c0 -5 -9 -10 -19 -10
-11 0 -23 5 -26 10 -4 6 5 10 19 10 14 0 26 -4 26 -10z m78 -167 l-3 -138 -58
-9 c-31 -5 -59 -7 -61 -5 -9 11 -14 69 -6 69 6 0 10 -13 10 -30 0 -29 13 -40
25 -20 3 5 6 65 6 134 l0 125 32 4 c18 2 38 5 45 5 10 2 12 -28 10 -135z m-28
-263 c25 -25 29 -103 5 -94 -9 4 -15 19 -15 35 0 17 -7 41 -16 54 -20 30 -3
34 26 5z"/>
<path d="M5125 4773 c-69 -29 -85 -40 -64 -48 18 -7 151 47 157 63 6 18 -26
13 -93 -15z"/>
<path d="M5450 4659 c-14 -6 -68 -15 -120 -21 -167 -17 -240 -69 -290 -205
-23 -61 -28 -68 -50 -64 -67 10 -127 3 -170 -19 -86 -44 -180 -146 -180 -197
0 -34 -11 -53 -30 -53 -11 0 -22 -4 -25 -10 -3 -5 -17 -10 -31 -10 -14 0 -24
-6 -24 -15 0 -10 12 -14 46 -13 51 1 76 -14 56 -34 -7 -7 -32 -11 -56 -10 -31
1 -46 -3 -50 -13 -4 -12 3 -15 30 -15 46 0 82 -20 117 -65 75 -96 198 -156
281 -137 22 5 48 13 58 17 14 6 16 1 11 -34 -10 -71 41 -167 105 -200 55 -28
113 -34 196 -21 55 9 90 10 137 1 57 -10 65 -9 101 12 43 24 63 59 73 132 8
51 -9 105 -32 105 -12 0 -13 -10 -8 -54 5 -40 2 -70 -10 -110 -17 -52 -19 -55
-44 -49 -14 3 -52 23 -86 45 -84 53 -149 52 -209 -4 -17 -15 -33 -18 -81 -16
l-60 3 -24 48 c-13 26 -26 67 -28 90 -5 42 1 60 37 127 11 19 19 38 20 43 1
16 -30 6 -40 -13 -13 -25 -80 -29 -80 -5 0 8 -9 15 -20 15 -11 0 -19 5 -17 12
1 6 -14 19 -32 29 -35 16 -35 16 -13 30 12 8 22 19 22 26 0 16 0 16 -44 -2
-28 -12 -41 -13 -57 -4 -25 13 -49 5 -49 -16 0 -8 -6 -15 -13 -15 -7 0 -13 -9
-14 -20 -1 -14 6 -21 25 -25 104 -21 151 -49 102 -62 -15 -4 -18 -8 -9 -14 7
-4 23 -3 37 2 26 10 122 1 122 -11 0 -12 -51 -29 -90 -31 -84 -5 -133 22 -227
121 -53 55 -62 73 -43 85 14 9 12 41 -4 54 -11 10 -9 21 11 74 23 57 90 144
102 131 3 -3 -12 -21 -33 -40 -36 -33 -37 -37 -23 -52 15 -15 18 -14 39 5 13
11 34 24 48 28 14 4 30 11 35 15 10 8 170 -6 186 -16 16 -10 49 7 49 24 0 9
-7 26 -15 36 -22 29 -19 68 12 153 41 117 89 153 228 172 44 6 100 15 125 20
97 21 119 11 80 -39 -11 -14 -20 -35 -20 -47 0 -31 -10 -53 -24 -53 -7 0 -17
-19 -23 -43 -7 -24 -28 -67 -48 -97 -19 -29 -33 -55 -30 -58 10 -11 47 34 75
92 29 61 29 61 30 25 0 -38 -21 -73 -73 -120 -19 -18 -25 -29 -17 -34 6 -4 24
4 39 19 15 14 30 26 34 26 4 0 28 15 54 33 48 34 121 67 148 67 28 0 -8 -145
-41 -167 -27 -17 -23 -33 7 -33 16 0 18 -5 13 -25 -9 -38 1 -58 25 -46 13 7
36 6 77 -3 33 -8 107 -19 165 -24 112 -12 189 -36 243 -77 18 -14 37 -25 43
-25 5 0 18 -10 29 -21 18 -20 16 -20 -31 4 -27 13 -75 32 -105 41 -97 30 -440
51 -448 28 -1 -5 13 -19 33 -30 22 -14 35 -29 35 -42 0 -12 12 -32 26 -45 15
-14 23 -25 18 -25 -5 0 -21 -11 -36 -25 -24 -22 -30 -24 -55 -13 -46 19 -84
59 -72 74 8 10 5 25 -13 56 -23 42 -44 50 -42 16 0 -11 -7 -18 -18 -18 -26 0
-22 -19 13 -76 18 -27 38 -64 46 -81 15 -37 32 -43 40 -13 5 18 7 18 40 5 20
-8 46 -15 59 -15 26 0 42 19 25 29 -7 5 -3 15 13 30 24 23 25 23 19 2 -6 -24
9 -28 26 -7 14 17 5 42 -31 84 -54 63 -39 69 157 63 80 -3 213 -38 245 -65 20
-17 98 -39 110 -31 6 3 10 16 10 29 0 53 -195 161 -321 177 -213 27 -234 32
-271 56 l-38 25 19 24 c10 13 24 54 31 91 9 51 18 73 37 89 58 49 -15 53 -139
7 -38 -13 -70 -29 -74 -34 -11 -19 -23 -8 -19 19 2 15 7 53 10 84 4 39 16 70
36 102 25 37 28 49 19 66 -8 15 -20 20 -53 19 -23 0 -53 -5 -67 -10z m-444
-375 c36 -42 46 -68 16 -41 -10 10 -22 17 -26 17 -4 0 -15 9 -24 20 -12 14
-35 23 -72 27 -44 5 -50 8 -30 14 14 4 43 6 64 4 31 -2 45 -10 72 -41z m393
-673 c28 -15 31 -19 16 -25 -10 -4 -23 -2 -29 4 -5 5 -22 10 -37 10 -28 0 -44
12 -32 24 11 11 47 6 82 -13z m-144 -41 c-3 -5 -11 -10 -16 -10 -6 0 -7 5 -4
10 3 6 11 10 16 10 6 0 7 -4 4 -10z"/>
<path d="M5870 4660 c0 -11 99 -70 118 -70 22 0 4 17 -53 49 -60 34 -65 36
-65 21z"/>
<path d="M4881 4559 c-34 -33 -50 -54 -43 -61 9 -9 122 85 122 103 0 21 -30 5
-79 -42z"/>
<path d="M5722 4570 c4 -14 115 -53 132 -47 12 5 -61 39 -107 51 -20 5 -28 3
-25 -4z"/>
<path d="M5210 4475 c-54 -67 -74 -113 -59 -136 10 -16 10 -16 38 44 13 26 32
52 42 58 17 9 49 68 49 90 0 22 -22 4 -70 -56z"/>
<path d="M5365 4461 c-3 -6 -15 -11 -25 -11 -21 0 -73 -57 -64 -71 3 -5 10 -7
15 -4 5 4 9 -3 9 -15 0 -12 5 -20 11 -18 14 5 74 117 66 124 -3 3 -8 1 -12 -5z"/>
<path d="M4555 4310 c-10 -34 -22 -63 -27 -66 -12 -7 -10 -34 3 -34 10 0 53
89 65 135 4 18 2 25 -8 25 -9 0 -22 -23 -33 -60z"/>
<path d="M6110 4339 c0 -6 15 -28 34 -49 18 -20 36 -43 38 -51 3 -8 8 -11 12
-8 10 9 -43 98 -65 110 -14 7 -19 6 -19 -2z"/>
<path d="M5506 4287 c-25 -24 -46 -51 -46 -60 0 -27 17 -20 39 16 11 18 32 39
46 47 24 13 35 40 16 40 -4 0 -29 -19 -55 -43z"/>
<path d="M5582 4294 c-23 -19 -42 -42 -42 -50 0 -17 0 -17 39 2 38 19 68 61
54 75 -6 6 -24 -4 -51 -27z"/>
<path d="M5286 4304 c-12 -12 -14 -20 -7 -27 8 -8 16 -6 28 6 12 12 14 20 6
28 -7 7 -15 5 -27 -7z"/>
<path d="M5122 4230 c-12 -12 -23 -28 -23 -38 -2 -30 3 -57 12 -66 13 -14 11
-26 -4 -26 -12 0 -77 -76 -77 -90 0 -4 11 -17 24 -29 23 -21 26 -22 54 -7 28
15 33 14 61 -2 29 -16 31 -16 51 4 16 16 20 28 14 48 -3 15 -13 30 -20 33 -19
7 -18 23 1 23 19 0 49 46 41 65 -3 8 -15 15 -26 15 -16 0 -20 4 -15 19 3 10 1
30 -4 45 -13 33 -57 36 -89 6z m56 -42 c-4 -29 -38 -38 -38 -10 0 22 8 32 27
32 9 0 13 -8 11 -22z m12 -83 c-16 -17 -20 -28 -13 -37 16 -21 23 -60 10 -55
-7 2 -13 14 -15 26 -2 12 -10 25 -18 28 -11 4 -11 7 1 20 9 8 13 18 10 23 -3
5 5 11 17 13 13 2 25 5 27 6 3 0 -6 -10 -19 -24z m-72 -71 c-15 -33 -38 -43
-38 -18 0 21 43 70 48 55 2 -6 -3 -22 -10 -37z"/>
<path d="M4830 4189 c0 -25 33 -22 38 4 2 12 -3 17 -17 17 -15 0 -21 -6 -21
-21z"/>
<path d="M4970 4190 c0 -5 14 -10 31 -10 17 0 28 4 24 10 -3 6 -17 10 -31 10
-13 0 -24 -4 -24 -10z"/>
<path d="M6362 4162 c2 -4 11 -28 22 -55 10 -26 25 -47 32 -47 15 0 6 31 -23
82 -15 24 -41 42 -31 20z"/>
<path d="M5350 4140 c-9 -16 -8 -20 5 -20 9 0 26 5 37 11 17 9 18 13 7 20 -22
14 -37 10 -49 -11z"/>
<path d="M4825 4125 c-5 -2 -27 -6 -47 -10 -52 -8 -48 -26 4 -23 33 2 43 -1
46 -13 2 -13 -8 -19 -49 -24 -35 -5 -47 -10 -38 -15 8 -5 45 -2 82 6 47 10 74
11 87 4 29 -15 39 -12 46 15 3 13 15 27 27 31 20 6 20 7 2 20 -17 13 -131 19
-160 9z"/>
<path d="M4353 3984 c6 -82 11 -103 22 -93 9 9 -8 179 -18 179 -6 0 -8 -31 -4
-86z"/>
<path d="M5612 3953 c4 -21 33 -25 33 -3 0 8 -8 16 -18 18 -14 3 -18 -1 -15
-15z"/>
<path d="M5206 3888 c-18 -57 -12 -180 9 -168 10 6 13 170 2 177 -4 2 -9 -2
-11 -9z"/>
<path d="M5405 3860 c-6 -9 3 -47 25 -105 7 -19 8 -18 21 8 9 21 10 30 1 39
-7 7 -12 20 -12 29 0 22 -26 44 -35 29z"/>
<path d="M5301 3828 c1 -46 12 -81 27 -86 13 -4 15 45 3 87 -11 39 -31 38 -30
-1z"/>
<path d="M5075 3785 c-8 -58 -1 -81 15 -55 13 19 13 110 1 110 -5 0 -13 -25
-16 -55z"/>
<path d="M5690 3789 c0 -5 5 -7 10 -4 6 3 10 8 10 11 0 2 -4 4 -10 4 -5 0 -10
-5 -10 -11z"/>
<path d="M5122 3698 c2 -23 9 -43 16 -46 13 -4 16 27 6 66 -10 38 -25 24 -22
-20z"/>
<path d="M4523 3675 c6 -38 57 -168 63 -162 2 2 -5 25 -15 53 -10 27 -22 68
-26 91 -4 24 -12 46 -17 50 -8 4 -9 -6 -5 -32z"/>
<path d="M4804 3645 c4 -16 21 -45 39 -62 34 -36 53 -36 20 0 -11 12 -24 32
-27 44 -4 11 -14 27 -23 35 -15 12 -16 10 -9 -17z"/>
<path d="M6295 3476 c-24 -52 -48 -97 -54 -100 -15 -10 -14 -26 2 -26 7 0 22
12 33 28 24 32 64 124 64 146 0 9 5 16 10 16 6 0 10 7 10 15 0 37 -25 7 -65
-79z"/>
<path d="M5949 3524 c-13 -15 -39 -33 -56 -40 -29 -13 -45 -34 -25 -34 18 0
112 62 122 80 16 30 -11 26 -41 -6z"/>
<path d="M6390 3540 c0 -5 5 -10 11 -10 5 0 7 5 4 10 -3 6 -8 10 -11 10 -2 0
-4 -4 -4 -10z"/>
<path d="M5142 3467 c10 -7 50 -19 90 -26 40 -7 85 -14 101 -17 16 -3 27 -1
27 5 0 6 -11 11 -24 11 -22 0 -137 22 -191 36 -18 5 -19 4 -3 -9z"/>
<path d="M4876 3339 c9 -15 85 -49 109 -48 11 0 -9 13 -44 29 -71 34 -75 35
-65 19z"/>
<path d="M4520 3290 c0 -34 199 -270 228 -270 7 0 -18 30 -55 68 -38 37 -89
100 -113 139 -42 68 -60 87 -60 63z"/>
<path d="M5620 3258 c-30 -15 -70 -32 -87 -39 -18 -6 -33 -15 -33 -20 0 -5 8
-5 18 0 9 6 40 17 67 26 48 15 105 50 95 57 -3 2 -30 -8 -60 -24z"/>
<path d="M5039 3265 c18 -9 36 -14 39 -11 9 10 -2 15 -39 21 l-34 5 34 -15z"/>
<path d="M6145 3155 c-4 -11 -14 -34 -21 -52 -14 -35 -120 -111 -186 -134 -37
-13 -51 -29 -25 -29 18 0 144 65 183 95 42 32 66 77 62 113 -4 25 -5 25 -13 7z"/>
<path d="M4865 3130 c3 -5 11 -10 16 -10 6 0 7 5 4 10 -3 6 -11 10 -16 10 -6
0 -7 -4 -4 -10z"/>
<path d="M4916 3108 c7 -10 129 -68 145 -68 6 0 7 5 4 10 -3 6 -13 10 -21 10
-8 0 -41 13 -74 28 -32 16 -57 25 -54 20z"/>
<path d="M5799 3085 c-14 -8 -67 -22 -117 -33 -104 -20 -135 -38 -52 -29 59 7
210 57 210 69 0 11 -11 9 -41 -7z"/>
<path d="M4900 2921 c0 -15 190 -100 225 -101 24 0 -17 22 -85 46 -41 14 -86
34 -101 45 -30 21 -39 23 -39 10z"/>
<path d="M5748 2885 c-2 -3 -42 -14 -89 -26 -60 -15 -119 -22 -206 -23 -124
-1 -163 -10 -75 -18 51 -5 250 14 321 30 43 10 70 27 60 37 -3 3 -8 3 -11 0z"/>
<path d="M1645 4542 c-89 -14 -190 -68 -206 -110 -6 -15 -19 -36 -30 -48 -11
-12 -22 -44 -27 -82 -5 -34 -11 -65 -15 -68 -3 -3 -41 -1 -84 4 -94 13 -131 6
-215 -41 -64 -37 -102 -68 -151 -127 l-28 -33 -100 7 c-81 5 -99 4 -99 -8 0
-12 74 -55 122 -70 31 -9 32 -52 4 -106 -25 -49 -33 -80 -19 -80 4 0 21 14 39
31 41 40 59 34 115 -36 24 -30 65 -66 93 -82 48 -26 59 -28 166 -28 l115 0 30
-62 c34 -71 63 -104 108 -126 139 -66 111 -62 387 -53 120 4 237 51 228 93 -3
15 -68 43 -100 43 -32 0 -19 -20 23 -40 l42 -18 -41 -21 c-42 -21 -91 -26
-126 -12 -14 5 -16 10 -8 15 32 20 4 26 -108 25 -96 -1 -120 -4 -120 -15 0
-11 19 -14 88 -14 48 0 94 -5 102 -10 38 -25 -223 -11 -295 15 -11 4 -41 22
-67 39 -38 25 -53 43 -74 94 -15 35 -36 69 -47 77 -17 12 -16 14 17 25 66 21
38 44 -64 53 -13 1 -34 11 -47 23 -18 16 -20 23 -10 33 10 11 8 12 -10 6 -17
-5 -23 -2 -23 9 0 27 -95 27 -114 0 -11 -14 -16 -14 -33 -4 -12 8 -28 10 -39
5 -17 -7 -17 -8 7 -19 14 -6 33 -17 42 -24 8 -7 55 -24 103 -38 134 -38 137
-39 141 -50 4 -12 -133 -34 -172 -27 -35 7 -57 22 -49 34 3 5 -4 9 -15 9 -25
0 -77 43 -93 78 -7 15 -30 35 -51 46 -33 15 -38 22 -33 42 4 13 1 32 -5 42
-19 30 21 98 62 106 18 3 40 13 50 22 9 8 43 26 75 39 45 18 69 22 110 18 56
-6 93 9 76 31 -5 6 -12 21 -15 34 -4 19 -1 22 23 22 16 0 32 -4 35 -10 6 -11
63 -2 82 12 7 5 17 35 23 66 6 31 16 71 21 89 12 39 88 103 123 103 13 0 27 4
30 9 3 4 40 9 83 10 42 1 81 5 86 8 6 3 7 1 4 -4 -5 -8 -66 -22 -123 -27 -6
-1 -18 -9 -28 -19 -10 -10 -31 -20 -46 -23 -25 -6 -60 -48 -60 -73 0 -19 28
-12 35 9 7 22 56 54 100 65 17 4 81 7 144 6 102 -2 115 -4 131 -23 19 -24 39
-17 37 12 -1 13 -8 20 -20 20 -16 0 -17 3 -7 15 15 18 40 20 40 4 0 -8 16 -10
52 -6 86 11 139 66 84 87 -23 9 -409 10 -461 2z m405 -52 c0 -12 -87 -14 -94
-2 -2 4 18 9 45 10 27 1 49 -2 49 -8z m-165 -10 c4 -6 -5 -9 -19 -8 -15 1 -26
6 -26 10 0 12 38 10 45 -2z"/>
<path d="M1775 4393 c-35 -5 -59 -23 -48 -34 4 -4 37 -4 73 0 48 4 65 10 65
21 0 16 -36 21 -90 13z"/>
<path d="M1964 4365 c-10 -53 -95 -159 -154 -192 -27 -15 -50 -31 -50 -35 0
-13 29 -9 60 7 21 11 30 12 30 4 0 -8 19 -10 63 -6 57 5 59 4 24 -6 -33 -9
-48 -34 -19 -31 7 1 22 2 35 3 12 0 37 11 56 22 l35 21 -25 19 c-19 16 -34 19
-72 14 -26 -3 -55 -8 -65 -11 -14 -5 -14 -3 3 13 61 57 105 124 111 167 6 38
4 46 -9 46 -10 0 -18 -12 -23 -35z"/>
<path d="M1798 4323 c-56 -6 -51 -33 5 -33 56 0 87 9 87 26 0 14 -13 15 -92 7z"/>
<path d="M1720 4214 c-14 -7 -35 -14 -46 -14 -23 0 -40 -25 -24 -35 5 -3 18
-1 29 5 11 5 30 10 43 10 26 0 48 17 48 37 0 16 -18 15 -50 -3z"/>
<path d="M1319 4158 c0 -2 -2 -13 -3 -25 -3 -24 29 -42 45 -26 14 14 -2 53
-22 53 -11 0 -19 -1 -20 -2z"/>
<path d="M1050 4065 c0 -19 22 -68 35 -77 5 -5 19 -7 30 -5 13 1 24 -7 33 -25
14 -30 32 -37 32 -14 0 8 7 16 15 20 9 3 12 12 8 22 -5 14 -3 15 15 5 33 -18
80 -14 92 8 14 27 14 27 -20 41 -18 8 -47 10 -80 5 -52 -7 -63 -22 -35 -45 8
-7 15 -17 15 -23 0 -5 -9 -2 -21 9 -14 12 -19 26 -16 43 6 33 -17 50 -65 51
-27 0 -38 -4 -38 -15z"/>
<path d="M2045 4070 c-10 -17 43 -33 230 -72 51 -10 120 -36 114 -42 -4 -4
-126 7 -218 20 -44 6 -53 5 -49 -7 5 -15 151 -41 176 -32 6 3 12 -1 12 -9 0
-12 -21 -15 -112 -15 -62 0 -128 -2 -147 -4 -38 -4 -56 -29 -22 -29 29 0 26
-28 -4 -40 -14 -5 -25 -14 -25 -20 0 -5 -5 -10 -10 -10 -6 0 -10 7 -8 16 2 12
-6 17 -29 20 -43 5 -43 -15 -2 -38 40 -23 61 -23 77 2 7 11 21 20 31 20 12 0
23 11 29 29 8 23 19 31 46 36 53 10 193 -11 378 -58 l168 -42 25 29 c32 37 26
44 -73 91 -100 48 -169 70 -299 95 -59 11 -143 32 -188 45 -93 29 -92 28 -100
15z m410 -130 c3 -6 0 -10 -7 -10 -15 0 -38 19 -38 32 0 10 36 -8 45 -22z
m-58 -33 c4 -7 0 -8 -11 -4 -10 4 -24 7 -32 7 -8 0 -14 4 -14 9 0 11 49 1 57
-12z m150 -53 c-3 -3 -12 -4 -19 -1 -8 3 -5 6 6 6 11 1 17 -2 13 -5z"/>
<path d="M1960 4060 c0 -5 5 -10 10 -10 6 0 10 5 10 10 0 6 -4 10 -10 10 -5 0
-10 -4 -10 -10z"/>
<path d="M937 4009 c-20 -12 -23 -29 -3 -29 17 0 40 26 29 33 -5 3 -16 1 -26
-4z"/>
<path d="M1970 4009 c0 -5 5 -7 10 -4 6 3 10 8 10 11 0 2 -4 4 -10 4 -5 0 -10
-5 -10 -11z"/>
<path d="M1005 3971 c-6 -11 9 -23 19 -14 9 9 7 23 -3 23 -6 0 -12 -4 -16 -9z"/>
<path d="M1055 3940 c-11 -17 5 -30 36 -30 36 0 38 17 3 30 -31 12 -31 12 -39
0z"/>
<path d="M1205 3931 c-10 -17 4 -31 31 -31 15 0 24 6 24 15 0 8 -4 15 -9 15
-5 0 -16 3 -24 6 -8 3 -18 1 -22 -5z"/>
<path d="M1130 3900 c0 -5 5 -10 10 -10 6 0 10 5 10 10 0 6 -4 10 -10 10 -5 0
-10 -4 -10 -10z"/>
<path d="M1287 3904 c-13 -13 -7 -24 14 -24 11 0 19 5 17 12 -5 14 -22 21 -31
12z"/>
<path d="M975 3890 c-3 -5 3 -10 15 -10 12 0 18 5 15 10 -3 6 -10 10 -15 10
-5 0 -12 -4 -15 -10z"/>
<path d="M1802 3818 c4 -32 63 -64 91 -50 l22 11 -22 6 c-12 4 -29 18 -38 31
-20 31 -58 33 -53 2z"/>
<path d="M1128 3752 c-25 -5 -22 -19 5 -26 32 -8 37 -8 37 8 0 16 -18 24 -42
18z"/>
<path d="M1918 3693 c-6 -96 -5 -99 25 -95 32 5 44 19 28 35 -6 6 -11 21 -11
33 0 54 -38 79 -42 27z"/>
<path d="M1703 3654 c-10 -26 10 -34 83 -37 55 -2 69 1 69 13 0 11 -13 15 -53
16 -29 0 -58 6 -64 12 -16 16 -28 15 -35 -4z"/>
<path d="M1650 3567 c0 -9 5 -19 11 -23 17 -10 172 -12 192 -2 35 18 15 25
-65 24 -46 -1 -95 3 -110 8 -22 6 -28 5 -28 -7z"/>
<path d="M1927 3514 c-14 -14 -6 -25 16 -22 12 2 22 7 22 13 0 12 -28 18 -38
9z"/>
<path d="M3374 3412 c-20 -13 -26 -65 -24 -202 3 -183 3 -184 20 -205 12 -14
15 -53 17 -182 1 -89 -1 -163 -5 -163 -30 0 -81 147 -93 265 -5 55 -14 104
-19 109 -6 6 -10 20 -10 32 0 12 -7 38 -15 57 -8 20 -15 47 -15 59 0 13 -12
40 -26 61 -24 36 -27 37 -40 20 -7 -10 -14 -13 -14 -7 0 5 5 15 11 21 15 15 4
43 -15 43 -29 0 -39 -37 -25 -93 6 -29 17 -63 24 -77 11 -23 34 -102 49 -172
3 -14 17 -40 31 -56 13 -16 40 -77 59 -136 20 -58 48 -125 64 -149 39 -56 43
-81 34 -217 l-7 -115 -27 40 c-26 37 -28 47 -28 136 0 70 -5 112 -20 154 -11
32 -20 66 -20 76 0 17 -47 69 -62 69 -13 0 -9 -137 6 -236 12 -83 18 -98 65
-167 28 -41 60 -79 72 -82 22 -7 22 -10 15 -149 -3 -77 -9 -249 -13 -381 -5
-207 -8 -234 -19 -205 -6 19 -24 58 -40 85 -44 80 -64 123 -64 137 0 15 -35
75 -54 92 -20 19 -76 57 -76 52 0 -3 7 -12 16 -21 24 -24 9 -30 -36 -15 -30
10 -46 10 -63 2 -12 -6 -52 -13 -88 -16 -90 -7 -159 -35 -221 -91 l-52 -46
-59 5 c-32 4 -68 11 -79 17 -28 15 -41 -1 -29 -33 12 -31 6 -38 -30 -38 -20 0
-45 -16 -89 -56 -33 -32 -65 -65 -71 -76 -14 -26 -3 -41 22 -28 23 13 23 12 5
-31 -39 -96 -28 -103 45 -27 l51 51 -4 -43 c-4 -57 14 -61 38 -8 10 24 37 61
59 83 33 33 40 37 43 21 2 -10 -5 -28 -15 -39 -11 -12 -28 -35 -38 -52 -10
-16 -35 -45 -56 -63 -60 -52 -104 -111 -91 -124 8 -8 22 -4 49 15 52 35 65 37
73 7 4 -16 13 -25 25 -25 15 0 24 14 38 62 17 57 21 62 41 57 28 -7 39 7 55
68 22 80 42 103 118 132 38 14 72 26 76 26 18 0 3 -21 -30 -41 -55 -33 -111
-79 -117 -96 -9 -24 3 -33 29 -23 40 15 31 -10 -28 -76 -63 -69 -87 -104 -87
-121 0 -19 34 -16 63 7 14 11 28 20 31 20 3 0 6 -20 6 -45 0 -28 4 -45 12 -45
6 0 3 -7 -8 -16 -18 -15 -18 -15 9 -11 41 6 33 -8 -18 -33 -51 -25 -59 -42
-15 -33 43 8 37 -4 -10 -23 -41 -17 -53 -34 -23 -34 18 0 112 60 113 73 0 4
-7 7 -15 7 -8 0 -15 5 -15 10 0 6 4 10 9 10 5 0 23 13 40 29 17 16 46 33 64
36 38 9 87 33 87 43 0 4 -12 14 -26 23 -25 15 -23 16 71 23 54 4 100 5 102 2
3 -3 -4 -14 -15 -26 -15 -16 -26 -19 -48 -14 -25 6 -27 5 -17 -8 16 -19 -1
-38 -33 -38 -13 0 -26 -5 -29 -10 -4 -6 -29 -22 -57 -36 -62 -32 -56 -45 8
-15 65 31 73 22 25 -28 -42 -43 -47 -66 -11 -43 11 7 32 12 48 12 15 0 37 7
48 15 29 22 34 18 34 -20 0 -49 21 -45 58 13 17 26 50 69 72 96 41 49 41 50
20 61 -17 9 -19 14 -8 22 21 16 78 33 113 33 48 0 57 -18 55 -107 -3 -115 -3
-115 23 -111 20 3 23 10 27 68 8 105 56 171 175 242 67 39 155 57 174 34 21
-25 53 -132 60 -196 3 -36 10 -65 16 -65 5 0 14 18 20 39 14 49 35 59 35 17 0
-16 4 -32 9 -35 4 -3 11 -20 15 -37 6 -33 29 -36 34 -3 10 68 9 67 46 33 21
-18 40 -49 48 -76 23 -78 57 -81 58 -6 l0 33 43 -6 c35 -5 45 -3 50 10 4 9 -1
21 -9 28 -9 7 -37 32 -63 55 -40 37 -43 43 -23 43 28 0 30 30 2 37 -11 3 -20
9 -20 14 0 4 -17 20 -37 34 -21 14 -32 25 -25 25 24 0 87 -31 113 -56 31 -29
45 -19 34 24 l-7 27 27 -25 c14 -13 35 -39 46 -57 12 -18 25 -33 30 -33 5 0 9
23 9 50 0 28 2 50 5 50 18 0 107 -54 148 -90 52 -46 76 -45 58 3 -10 26 -9 27
22 28 32 0 32 0 10 16 -28 19 -29 33 -3 33 11 0 20 5 20 10 0 11 0 11 -71 31
-26 7 -55 19 -65 26 -17 12 -17 14 1 33 29 33 8 43 -63 33 -79 -12 -120 -6
-128 19 -4 13 -11 17 -22 13 -36 -14 -126 -26 -149 -20 -19 4 -24 11 -21 32 3
26 40 52 128 88 48 20 32 44 -42 59 -25 6 -27 8 -16 31 14 32 28 32 28 0 0
-38 27 -31 34 10 4 19 11 35 16 35 5 0 21 -16 36 -36 26 -33 29 -35 41 -18 7
10 13 29 13 42 0 19 4 22 21 17 13 -5 25 -2 29 6 10 15 -19 76 -49 103 -12 11
-21 30 -21 44 0 30 -49 118 -84 151 -14 14 -26 29 -26 34 0 6 -18 27 -40 47
-22 20 -40 43 -40 51 0 7 27 -13 60 -46 53 -52 75 -63 75 -34 0 26 24 4 52
-48 35 -62 56 -74 61 -33 7 61 12 69 51 80 42 11 67 33 56 50 -4 6 -15 8 -24
5 -10 -3 -39 4 -64 15 -40 18 -46 24 -42 43 6 21 -1 25 -72 50 -43 14 -105 37
-138 51 -32 14 -63 22 -67 20 -11 -7 -72 13 -128 42 -25 12 -71 25 -102 29
-32 4 -58 11 -58 16 0 27 147 149 179 149 5 0 31 11 58 24 26 13 65 27 86 31
32 6 37 11 37 35 0 15 -7 33 -15 40 -8 7 -15 15 -15 19 0 4 25 22 55 40 30 18
55 37 55 42 0 4 -13 17 -30 29 -34 24 -37 47 -15 91 30 57 -4 66 -55 14 -23
-24 -43 -35 -62 -35 -23 0 -28 -4 -28 -25 0 -34 -15 -57 -104 -160 l-26 -30
20 48 c25 61 25 77 0 77 -25 0 -25 -2 1 99 25 100 20 125 -17 90 -21 -20 -27
-21 -34 -9 -5 8 -10 28 -10 43 0 33 -26 47 -44 22 -6 -9 -23 -43 -35 -76 -20
-49 -26 -57 -41 -49 -41 22 -41 -34 0 -85 34 -43 36 -51 15 -59 -21 -8 -19
-19 11 -82 22 -48 24 -59 14 -83 -9 -23 -9 -33 2 -50 11 -19 9 -29 -22 -87
-26 -50 -47 -74 -85 -99 -57 -38 -100 -82 -138 -139 l-26 -38 -3 91 c-3 98 6
121 59 149 11 7 31 31 43 54 11 24 25 50 29 58 27 50 31 62 31 82 0 13 7 45
15 72 21 68 19 99 -6 114 -31 20 -43 3 -63 -85 -10 -43 -33 -110 -52 -149 -23
-46 -34 -82 -33 -105 2 -19 -1 -40 -5 -47 -20 -33 -25 -1 -21 139 4 148 5 151
32 183 16 17 39 54 53 81 14 27 31 56 38 63 6 7 12 21 12 31 0 9 7 26 15 37 8
10 15 31 15 45 0 14 3 29 7 33 13 13 32 87 26 102 -3 8 -13 14 -22 14 -12 0
-21 -15 -31 -50 -10 -37 -17 -47 -26 -40 -8 8 -16 -1 -29 -32 -25 -61 -44
-146 -45 -194 0 -28 -6 -47 -20 -59 -19 -17 -20 -17 -20 1 -1 10 -2 46 -4 79
-2 38 3 73 12 95 11 25 16 73 16 164 1 94 4 130 14 134 6 2 12 8 12 13 0 4 -7
6 -15 3 -10 -4 -15 0 -16 12 -3 42 -6 65 -10 68 -11 10 -45 15 -55 8z m31
-111 c3 -5 1 -12 -5 -16 -5 -3 -10 1 -10 9 0 18 6 21 15 7z m2 -91 c2 -18 0
-18 -13 -6 -17 18 -18 26 -1 26 7 0 13 -9 14 -20z m-224 -10 c3 -11 2 -20 -3
-20 -4 0 -10 9 -13 20 -3 11 -2 20 3 20 4 0 10 -9 13 -20z m27 -93 c0 -5 -4
-5 -10 -2 -5 3 -10 14 -10 23 0 15 2 15 10 2 5 -8 10 -19 10 -23z m531 -139
c0 -40 0 -91 0 -113 l-1 -40 -29 49 -28 50 24 64 c12 36 23 67 23 70 0 3 3 3
6 0 3 -4 5 -39 5 -80z m54 -45 c-24 -93 -35 -100 -35 -21 0 57 3 68 23 81 12
8 24 13 26 11 2 -2 -4 -34 -14 -71z m-288 45 c-3 -8 -6 -5 -6 6 -1 11 2 17 5
13 3 -3 4 -12 1 -19z m523 -62 c0 -8 -7 -16 -15 -20 -8 -3 -15 -11 -15 -19 0
-19 -20 -36 -35 -31 -19 7 -6 41 23 64 29 24 42 25 42 6z m33 -62 c3 -4 -17
-23 -44 -44 -28 -21 -57 -47 -65 -59 -14 -20 -14 -21 15 -21 52 0 43 -17 -22
-39 -99 -36 -97 -35 -97 -13 0 19 53 74 117 122 18 13 35 32 39 42 5 17 43 25
57 12z m-113 -25 c0 -15 -80 -92 -88 -85 -5 5 75 96 85 96 2 0 3 -5 3 -11z
m-210 -59 c0 -59 -14 -65 -30 -14 -11 31 -10 37 7 49 10 8 19 15 21 15 1 0 2
-22 2 -50z m55 -2 c-26 -55 -32 -98 -15 -98 6 0 10 -6 10 -14 0 -8 6 -16 13
-19 6 -2 10 -6 7 -8 -76 -61 -93 -71 -85 -53 15 36 17 74 5 89 -10 12 -10 15
2 15 11 0 18 16 22 52 7 53 28 88 52 88 9 0 6 -15 -11 -52z m56 -379 c47 -21
101 -39 120 -39 19 0 61 -13 94 -28 33 -16 77 -32 98 -36 37 -7 47 -19 27 -31
-18 -11 8 -33 61 -50 46 -16 66 -35 35 -35 -8 0 -18 -16 -23 -37 l-9 -38 -22
40 c-39 72 -82 109 -82 70 0 -22 -7 -19 -68 33 -54 46 -122 92 -136 92 -22 0
2 -49 54 -108 33 -39 60 -77 60 -86 0 -18 -15 -22 -25 -6 -3 6 -11 10 -17 10
-6 0 -3 -10 6 -22 9 -13 26 -42 38 -65 12 -24 25 -43 29 -43 17 0 16 31 -2 54
-33 42 -16 54 20 15 39 -41 56 -69 41 -69 -21 0 -8 -34 34 -89 41 -53 44 -61
39 -100 l-6 -42 -23 22 c-17 16 -24 33 -24 61 0 45 -24 108 -41 108 -6 0 -9
-6 -6 -14 23 -59 27 -99 15 -127 -7 -16 -15 -29 -19 -29 -3 0 -11 34 -17 76
-7 41 -17 85 -23 96 -11 20 -12 20 -24 4 -12 -16 -14 -15 -19 11 -3 15 -8 49
-12 76 -6 49 -12 55 -31 36 -9 -9 -14 -3 -21 22 -6 25 -5 35 4 37 9 2 11 14 8
35 -4 22 -26 52 -72 96 -36 36 -60 62 -52 59 40 -15 60 -19 60 -11 0 4 -28 17
-61 27 -33 10 -63 25 -66 32 -3 9 -20 14 -43 14 -22 0 -43 7 -51 16 -11 14 -9
15 27 9 21 -4 78 -25 125 -46z m-173 9 c11 -13 30 -45 42 -73 20 -46 22 -61
16 -179 -5 -124 -5 -128 14 -123 22 6 24 -1 11 -36 -11 -27 -1 -49 20 -45 10
2 14 -10 16 -45 1 -27 4 -56 8 -65 5 -14 9 -13 25 8 17 23 20 24 35 9 11 -11
14 -24 9 -42 -6 -26 -24 -38 -24 -17 0 6 -12 10 -26 10 -25 0 -26 -1 -22 -62
2 -35 7 -70 12 -79 6 -13 0 -18 -28 -23 -41 -8 -50 -38 -17 -55 20 -11 36 -70
23 -83 -5 -5 -16 0 -26 11 -15 16 -27 19 -74 14 -70 -7 -155 -55 -229 -130
-28 -29 -53 -53 -55 -53 -2 0 -3 187 -1 416 l1 416 38 62 c51 82 62 97 118
145 53 46 83 51 114 19z m120 -127 c0 -15 7 -52 16 -84 9 -32 16 -72 17 -90 0
-18 4 -40 8 -50 6 -17 8 -17 20 -3 10 12 11 26 3 63 -6 27 -11 62 -10 78 1 29
-21 101 -42 137 -18 32 -10 30 40 -13 39 -33 47 -45 40 -59 -6 -11 -4 -49 5
-106 19 -114 19 -114 16 -149 -2 -16 -5 -24 -8 -17 -14 36 -51 -7 -38 -47 4
-13 0 -20 -14 -24 -15 -4 -20 2 -25 25 -3 17 -6 43 -6 59 0 16 -4 29 -10 29
-5 0 -10 18 -10 40 0 40 -12 52 -27 26 -4 -8 -8 38 -8 102 0 64 -4 128 -8 142
-8 24 -7 24 17 -4 14 -17 25 -41 24 -55z m146 -47 c10 -25 -1 -29 -14 -5 -6
12 -7 21 -1 21 5 0 12 -7 15 -16z m15 -168 c2 -33 -15 -5 -28 46 -6 26 -11 53
-10 60 1 18 37 -83 38 -106z m50 -114 c1 -70 -1 -77 -45 -150 -26 -42 -62
-109 -81 -149 -19 -40 -38 -73 -43 -73 -19 0 -20 20 -1 30 20 10 21 23 6 96
-7 30 -6 31 19 27 22 -5 26 -2 26 18 0 13 9 43 20 67 15 32 17 49 10 68 -13
33 -13 34 4 34 18 0 25 20 19 52 -6 31 12 68 32 68 8 0 15 6 16 13 0 6 4 3 9
-8 5 -11 9 -53 9 -93z m60 -69 c-4 -76 -21 -108 -69 -133 -48 -24 -51 -13 -10
28 17 17 30 35 30 40 0 5 7 15 16 23 10 9 14 22 10 41 -6 31 1 58 16 58 5 0 8
-26 7 -57z m-1094 -13 c-3 -5 -13 -10 -21 -10 -8 0 -14 5 -14 10 0 6 9 10 21
10 11 0 17 -4 14 -10z m75 -5 c0 -2 -10 -9 -22 -15 -22 -11 -22 -10 -4 4 21
17 26 19 26 11z m-130 -20 c0 -11 -12 -15 -49 -15 -28 0 -53 -4 -56 -10 -3 -5
-18 -10 -33 -10 -23 0 -24 2 -12 14 33 32 150 48 150 21z m269 -12 c34 -87 59
-144 86 -193 16 -30 34 -71 40 -90 7 -22 17 -35 27 -34 13 1 15 -8 11 -60 -3
-33 -7 -62 -8 -63 -1 -2 -37 -5 -81 -7 -43 -3 -124 -8 -179 -11 -55 -4 -136
-7 -179 -8 -49 -1 -81 -6 -83 -13 -5 -14 43 -54 64 -54 29 0 1 -19 -39 -25
-22 -4 -56 -13 -74 -21 l-33 -14 23 53 c13 28 31 77 40 107 10 30 20 62 23 70
3 12 10 8 27 -13 30 -37 41 -24 56 66 12 69 19 78 40 52 29 -35 60 -4 60 61 0
21 4 51 10 68 5 17 12 42 14 56 3 14 19 40 36 57 27 28 43 35 97 42 6 0 16
-11 22 -26z m-149 -8 c0 -3 -8 -17 -17 -32 -23 -35 -52 -122 -53 -158 l0 -30
-24 30 c-13 17 -27 27 -31 24 -3 -4 -14 -43 -23 -88 -9 -44 -20 -81 -23 -81
-4 0 -10 11 -13 25 -12 46 -33 27 -61 -52 -15 -43 -33 -94 -41 -113 l-13 -35
0 31 c-1 44 -9 47 -50 17 l-36 -27 41 45 c80 87 126 183 78 165 -32 -12 -10
13 46 52 49 35 60 48 60 71 0 16 7 34 15 41 15 12 21 40 9 40 -4 0 -25 -15
-48 -33 -39 -32 -97 -58 -161 -72 l-30 -7 23 24 c18 20 30 48 19 48 -2 0 -44
-20 -94 -44 -64 -32 -101 -57 -126 -88 -31 -37 -37 -40 -37 -21 0 31 -17 37
-31 11 -15 -29 -50 -68 -61 -68 -10 0 18 57 40 83 14 15 13 17 -2 17 -10 0
-26 -5 -37 -11 -18 -9 -19 -8 -9 8 14 22 135 103 154 103 19 0 40 26 26 35
-17 10 -11 27 8 21 9 -3 42 -8 72 -11 30 -4 58 -9 61 -11 4 -2 29 3 55 12 27
8 76 19 109 24 39 6 65 16 76 29 9 10 27 21 40 24 36 7 89 8 89 2z m-260 -49
c0 -2 -9 -6 -20 -9 -11 -3 -20 -1 -20 4 0 5 9 9 20 9 11 0 20 -2 20 -4z m1275
-81 c24 -6 27 -9 15 -16 -8 -5 -55 -33 -104 -62 -94 -56 -114 -77 -73 -77 13
0 37 -6 53 -14 16 -8 77 -16 139 -20 61 -3 131 -8 157 -12 l48 -7 -25 -21
c-17 -15 -25 -32 -25 -54 l0 -32 -47 45 c-53 51 -78 58 -71 20 6 -29 1 -31
-22 -10 -9 8 -70 28 -135 45 -129 34 -135 36 -135 51 0 32 151 139 196 139 8
0 14 5 14 10 0 15 -25 12 -65 -7 -19 -9 -37 -14 -39 -12 -12 11 8 49 25 49 10
0 21 5 24 11 5 7 12 6 23 -4 10 -8 31 -18 47 -22z m-1404 -109 c-6 -7 -17 -31
-25 -52 -11 -33 -17 -39 -38 -36 -22 3 -26 -3 -43 -58 -18 -59 -35 -79 -35
-41 0 11 -5 21 -11 23 -6 2 12 34 40 71 28 37 55 76 61 87 6 12 21 20 37 20
20 0 23 -3 14 -14z m1191 -120 c11 -8 15 -20 11 -35 -3 -13 1 -29 12 -41 16
-18 16 -20 -3 -44 -21 -28 -32 -25 -32 11 0 12 -9 45 -19 73 -17 45 -18 50 -3
50 10 0 25 -6 34 -14z m156 -64 c44 -23 56 -38 23 -27 -46 14 -30 -21 40 -88
41 -38 64 -65 51 -58 -31 16 -42 7 -43 -37 0 -37 -1 -37 -30 27 -16 35 -59 97
-94 138 -36 41 -65 78 -65 82 0 12 64 -9 118 -37z m372 28 c34 -11 69 -20 76
-20 19 0 18 -6 -6 -30 -19 -19 -19 -19 -47 4 -15 12 -43 28 -60 35 -18 8 -33
17 -33 22 0 12 -2 12 70 -11z m-1890 -18 c0 -5 -14 -19 -31 -31 -29 -22 -30
-22 -20 -2 6 11 19 25 29 30 21 13 22 13 22 3z m1444 -86 c10 -16 14 -35 10
-55 -8 -38 -20 -32 -26 11 -3 18 -8 41 -13 51 -11 26 10 21 29 -7z m-813 -25
c-26 -26 -61 -44 -69 -35 -4 4 -1 9 5 11 7 3 23 13 35 23 31 26 54 26 29 1z
m44 -30 c0 -14 -64 -91 -76 -91 -24 0 12 79 46 102 13 10 30 4 30 -11z m-125
-30 c0 -29 -22 -60 -49 -69 -39 -14 -39 -2 0 43 30 34 49 44 49 26z"/>
<path d="M1526 2621 c-4 -5 -2 -12 3 -15 5 -4 12 -2 15 3 4 5 2 12 -3 15 -5 4
-12 2 -15 -3z"/>
<path d="M1544 2357 c-3 -10 -4 -53 -2 -97 3 -69 1 -81 -14 -86 -25 -7 -60
-56 -50 -66 13 -13 2 -58 -14 -58 -20 0 -91 -49 -98 -67 -9 -23 2 -29 24 -15
28 17 40 15 40 -7 0 -15 -8 -20 -36 -23 -21 -2 -42 -10 -48 -20 -15 -25 -2
-32 34 -19 25 8 38 8 57 -3 17 -8 22 -16 14 -20 -6 -4 -11 -14 -11 -22 0 -8
-16 -28 -35 -45 -61 -54 -34 -80 40 -40 20 10 45 17 56 14 19 -5 18 -8 -11
-34 -17 -16 -39 -30 -48 -31 -87 -8 -105 0 -95 39 8 34 -16 27 -37 -10 -12
-22 -13 -30 -2 -47 17 -28 -1 -55 -50 -75 -47 -19 -48 -37 -4 -53 37 -14 66
-4 159 55 50 31 48 13 -3 -21 -22 -14 -40 -33 -40 -41 0 -8 -4 -15 -10 -15 -5
0 -17 -14 -25 -30 -13 -25 -13 -31 -2 -36 22 -8 64 13 112 57 45 42 72 51 36
12 -48 -51 -145 -117 -167 -112 -41 8 -48 -27 -7 -37 32 -8 110 30 127 62 16
27 58 64 68 58 13 -8 9 -26 -8 -45 -21 -23 -9 -41 22 -33 16 4 24 2 24 -6 0
-23 30 11 31 34 0 20 1 20 10 -2 12 -31 35 -23 31 11 -4 30 9 35 28 12 13 -15
45 -22 36 -7 -2 4 9 14 25 21 35 15 36 23 7 36 -22 10 -37 35 -21 35 4 0 26
-16 48 -34 29 -26 41 -31 45 -21 3 7 24 28 48 45 23 17 60 48 82 70 44 44 57
48 75 23 13 -18 35 -10 35 13 0 27 30 12 50 -25 l12 -24 -57 5 c-57 5 -59 4
-99 -36 -23 -23 -50 -41 -61 -41 -11 0 -20 -7 -20 -15 0 -26 36 -23 66 6 16
15 29 24 29 20 0 -5 6 -3 13 3 11 8 16 5 25 -14 l12 -25 42 19 c24 11 51 22
61 25 13 4 17 12 12 27 -7 20 -6 20 23 5 41 -21 108 -31 116 -17 4 6 -4 15
-18 21 -35 13 -33 23 3 15 31 -7 53 11 27 21 -9 3 -16 12 -16 20 0 8 -9 14
-21 14 -11 0 -17 5 -14 10 3 6 -1 13 -9 16 -24 9 -19 22 11 26 38 4 39 24 2
32 -17 3 -40 17 -51 31 -18 23 -58 35 -58 18 0 -9 -49 -33 -67 -33 -26 0 -12
28 23 49 26 16 45 20 69 15 29 -5 35 -3 48 22 14 26 13 29 -8 46 -13 10 -30
15 -39 12 -21 -8 -21 19 -1 36 20 16 19 29 -2 37 -10 4 -27 15 -38 26 -18 16
-18 19 -4 27 11 7 15 18 11 36 -3 16 1 29 8 34 11 7 11 11 1 24 -15 18 -61 22
-61 5 0 -5 -4 -7 -10 -4 -15 9 -12 41 5 55 8 7 12 17 8 24 -4 6 -6 19 -5 28 3
19 -33 42 -49 32 -6 -4 -9 -21 -6 -38 5 -30 2 -34 -44 -60 -54 -30 -63 -42
-25 -32 14 3 27 2 31 -4 8 -13 -35 -60 -57 -60 -22 0 -58 -34 -58 -56 0 -14 7
-15 40 -10 32 5 40 3 40 -9 0 -8 6 -15 14 -15 20 0 31 -19 18 -32 -8 -8 -16
-7 -27 2 -12 10 -21 8 -50 -14 -37 -28 -45 -53 -20 -62 11 -5 12 -10 3 -24 -6
-9 -8 -25 -5 -34 7 -18 37 -22 37 -5 0 5 4 7 10 4 5 -3 20 -1 32 6 16 9 23 9
26 0 2 -6 10 -11 18 -11 8 0 14 -3 14 -7 0 -8 -59 -51 -94 -68 -12 -6 -22 -20
-24 -32 -3 -21 -32 -42 -32 -23 0 6 5 10 10 10 6 0 10 4 10 9 0 13 -80 2 -106
-15 -18 -11 -25 -10 -43 2 -30 22 -26 32 17 40 20 3 43 14 50 23 7 9 15 15 17
14 14 -8 24 0 29 23 9 33 -10 49 -86 70 -50 15 -57 20 -60 46 -4 27 -3 29 19
23 28 -7 42 17 23 40 -7 8 -10 22 -6 31 8 22 -12 55 -32 52 -11 -2 -18 5 -20
20 -2 12 -10 22 -18 22 -21 0 -30 33 -39 134 -5 66 -12 94 -26 109 -17 18 -19
18 -25 4z m-4 -277 c-16 -31 -23 -18 -8 15 7 15 14 23 16 17 2 -6 -2 -21 -8
-32z m460 0 c0 -13 -5 -18 -15 -14 -12 5 -13 10 -4 20 15 19 19 18 19 -6z
m-372 -30 c7 -11 18 -20 26 -20 13 0 31 -28 23 -36 -1 -2 -16 3 -31 11 -22 12
-32 12 -43 4 -19 -17 -26 -5 -18 30 8 36 25 40 43 11z m-173 -60 c3 -5 1 -10
-4 -10 -6 0 -11 5 -11 10 0 6 2 10 4 10 3 0 8 -4 11 -10z m527 -62 c-8 -27
-11 -30 -17 -15 -4 10 -2 30 5 45 16 34 24 14 12 -30z m-502 17 c0 -8 -7 -15
-15 -15 -16 0 -20 12 -8 23 11 12 23 8 23 -8z m420 0 c-7 -8 -18 -15 -24 -15
-6 0 -2 7 8 15 25 19 32 19 16 0z m166 -23 c-4 -3 -12 0 -19 7 -9 9 -9 14 3
21 11 7 16 5 18 -6 2 -9 1 -18 -2 -22z m-447 -66 c9 -11 7 -15 -8 -19 -24 -6
-31 0 -24 19 7 18 17 18 32 0z m-1 -78 c7 -7 11 -21 11 -32 -1 -17 -2 -18 -6
-3 -2 9 -11 17 -19 17 -8 0 -14 7 -14 15 0 18 12 19 28 3z m372 -18 c0 -25 -4
-30 -25 -30 -24 0 -24 0 -7 30 22 38 32 38 32 0z m130 -10 c0 -5 -4 -10 -10
-10 -5 0 -10 5 -10 10 0 6 5 10 10 10 6 0 10 -4 10 -10z m-560 -14 c0 -3 -4
-8 -10 -11 -5 -3 -10 -1 -10 4 0 6 5 11 10 11 6 0 10 -2 10 -4z m615 -56 l20
-9 -20 0 c-11 0 -29 4 -40 9 l-20 9 20 0 c11 0 29 -4 40 -9z m-530 -44 c19
-14 32 -27 27 -30 -5 -3 -20 6 -32 19 -28 29 -50 32 -50 7 0 -13 -12 -22 -37
-30 -20 -6 -39 -10 -41 -8 -9 10 21 46 38 46 10 0 22 5 25 10 10 16 32 12 70
-14z m126 8 c9 -11 22 -14 42 -10 26 5 28 4 17 -9 -15 -18 -79 -50 -86 -43 -3
3 -8 22 -11 42 -4 28 -2 36 9 36 9 0 21 -7 29 -16z m-181 -64 c-8 -5 -17 -7
-19 -4 -3 3 1 9 9 14 8 5 17 7 19 4 3 -3 -1 -9 -9 -14z"/>
<path d="M6172 2320 c-12 -12 -22 -27 -22 -34 0 -8 -8 -12 -23 -9 -26 5 -42
-10 -52 -48 -6 -23 -3 -27 22 -32 18 -4 34 -15 41 -31 18 -41 72 -29 72 16 0
17 2 17 38 2 20 -9 47 -19 60 -21 33 -8 28 19 -8 40 -17 10 -30 27 -30 38 0
10 -7 19 -15 19 -11 0 -14 7 -9 25 4 15 2 25 -5 25 -6 0 -11 7 -11 15 0 22
-32 18 -58 -5z m37 -97 c1 -7 -3 -13 -9 -13 -5 0 -10 17 -9 38 1 33 2 34 9 12
4 -14 8 -31 9 -37z m-49 -3 c26 -23 22 -25 -14 -9 -14 7 -23 16 -20 20 7 12 8
12 34 -11z"/>
<path d="M926 2243 c-3 -10 -3 -50 -2 -89 3 -62 2 -71 -16 -80 -24 -11 -76
-99 -65 -110 4 -4 20 5 36 20 32 30 51 28 51 -7 0 -23 -30 -48 -110 -90 -50
-26 -69 -62 -28 -52 16 4 29 1 37 -9 8 -9 20 -16 27 -16 8 0 14 -5 14 -10 0
-15 -63 -69 -80 -70 -9 0 -24 -6 -35 -14 -11 -7 -37 -16 -57 -20 -28 -5 -38
-12 -38 -26 0 -24 30 -33 63 -21 30 12 149 12 142 0 -3 -4 -20 -10 -38 -14
-46 -10 -118 -45 -124 -62 -9 -24 6 -27 42 -10 44 21 70 22 33 1 -29 -15 -52
-47 -41 -58 12 -12 61 -6 73 9 7 9 21 14 30 13 9 -2 28 11 43 27 23 27 27 29
42 14 14 -14 12 -17 -22 -40 -22 -14 -37 -32 -37 -42 1 -13 -7 -17 -39 -17
-48 0 -107 -19 -107 -35 0 -22 13 -24 52 -8 33 13 44 14 60 4 16 -10 24 -9 46
6 17 11 47 18 82 18 71 2 104 18 96 50 -6 22 -5 23 26 12 24 -9 32 -9 35 1 6
15 57 16 84 2 15 -9 21 -7 26 6 7 20 -29 54 -57 54 -10 0 -31 7 -46 16 l-29
16 29 -7 c21 -4 33 -1 47 14 39 41 11 70 -68 71 -40 0 -53 4 -53 15 0 12 13
15 56 15 61 0 94 13 94 36 0 12 -8 13 -35 8 -22 -4 -35 -2 -35 4 0 6 12 12 27
14 17 2 29 10 31 21 3 14 -4 17 -48 17 -60 0 -114 20 -130 49 -6 12 -17 21
-25 21 -8 0 -15 7 -15 16 0 8 5 12 10 9 6 -3 14 2 18 12 4 10 14 18 22 18 8 0
16 9 18 20 2 11 10 27 18 36 12 14 12 18 -3 31 -29 25 -65 29 -79 10 -11 -14
-13 0 -12 89 1 58 -2 111 -6 117 -10 17 -24 15 -30 -5z m14 -332 c0 -6 -4 -13
-10 -16 -5 -3 -10 1 -10 9 0 9 5 16 10 16 6 0 10 -4 10 -9z m51 -108 c5 -46 3
-66 -8 -75 -10 -8 -13 -1 -13 36 0 25 5 46 10 46 6 0 10 -3 11 -7z m109 -27
c0 -3 -4 -8 -10 -11 -5 -3 -10 -1 -10 4 0 6 5 11 10 11 6 0 10 -2 10 -4z
m-160 -35 c0 -26 -14 -41 -41 -41 -15 0 -10 32 8 52 23 26 33 22 33 -11z m37
-53 c-3 -8 -6 -5 -6 6 -1 11 2 17 5 13 3 -3 4 -12 1 -19z m51 -26 c15 -10 5
-42 -13 -42 -12 0 -25 21 -25 41 0 11 21 12 38 1z"/>
<path d="M6484 2023 c3 -32 2 -47 -1 -33 -6 30 -22 42 -43 34 -8 -4 -40 -7
-70 -8 -49 -1 -55 -3 -61 -26 l-6 -25 -4 25 c-5 30 -35 35 -32 5 1 -11 0 -27
-3 -35 -4 -13 -7 -12 -15 3 -8 13 -6 25 5 42 19 29 20 35 5 35 -7 0 -18 8 -25
18 -10 13 -15 14 -25 5 -10 -10 -10 -18 -1 -38 7 -14 12 -31 11 -38 0 -7 -4
-2 -10 11 -7 19 -15 23 -41 20 -28 -3 -32 -7 -33 -32 0 -16 -5 -31 -11 -33 -8
-3 -9 10 -1 47 7 37 7 54 -1 62 -9 9 -15 3 -25 -21 l-14 -32 -17 25 c-31 49
-57 26 -61 -54 0 -19 -5 -43 -9 -53 -7 -16 -5 -18 14 -15 16 2 27 14 36 38
l12 35 7 -32 c5 -23 13 -33 26 -33 11 0 19 6 19 13 0 9 2 9 9 -1 9 -15 81 -27
81 -14 0 10 130 6 162 -4 14 -4 20 1 24 25 6 29 27 46 23 19 -3 -27 2 -35 26
-46 21 -10 27 -9 37 7 11 18 13 18 23 4 20 -27 33 -6 34 52 0 65 -12 105 -34
105 -12 0 -14 -11 -11 -57z"/>
<path d="M2290 1980 c0 -5 5 -10 11 -10 5 0 7 5 4 10 -3 6 -8 10 -11 10 -2 0
-4 -4 -4 -10z"/>
<path d="M6074 1890 c-29 -11 -36 -25 -40 -74 -2 -22 -5 -50 -6 -61 -3 -17 2
-19 27 -17 43 5 52 19 60 95 7 71 4 75 -41 57z m16 -51 c0 -6 -4 -7 -10 -4 -5
3 -10 11 -10 16 0 6 5 7 10 4 6 -3 10 -11 10 -16z"/>
<path d="M6144 1886 c-8 -22 3 -33 18 -18 9 9 9 15 0 24 -9 9 -13 7 -18 -6z"/>
<path d="M6319 1850 c-9 -5 -22 -23 -29 -40 -14 -34 -35 -30 -26 5 5 20 1 24
-25 30 -37 8 -47 0 -31 -26 9 -14 10 -25 2 -39 -8 -15 -6 -21 9 -30 28 -15 48
-12 55 6 6 16 8 16 24 0 34 -30 66 -16 68 29 1 11 3 26 5 33 6 20 -32 43 -52
32z"/>
<path d="M6136 1842 c-7 -12 2 -84 12 -94 5 -5 17 1 27 12 13 15 16 23 8 28
-6 4 -13 18 -14 31 -4 25 -23 39 -33 23z"/>
<path d="M6905 1830 c3 -5 10 -10 16 -10 5 0 9 5 9 10 0 6 -7 10 -16 10 -8 0
-12 -4 -9 -10z"/>
<path d="M6930 1810 c-8 -5 -12 -12 -9 -15 4 -3 12 1 19 10 14 17 11 19 -10 5z"/>
<path d="M6402 1783 c2 -10 10 -18 18 -18 8 0 16 8 18 18 2 12 -3 17 -18 17
-15 0 -20 -5 -18 -17z"/>
<path d="M6880 1790 c0 -5 5 -10 10 -10 6 0 10 5 10 10 0 6 -4 10 -10 10 -5 0
-10 -4 -10 -10z"/>
<path d="M1800 1750 c-8 -5 -11 -12 -8 -16 10 -9 38 3 38 16 0 12 -10 13 -30
0z"/>
<path d="M6820 1740 c0 -6 7 -10 15 -10 8 0 15 2 15 4 0 2 -7 6 -15 10 -8 3
-15 1 -15 -4z"/>
<path d="M6921 1681 c-7 -5 -9 -11 -4 -14 5 -3 15 -2 22 2 7 5 9 11 4 14 -5 3
-15 2 -22 -2z"/>
<path d="M1926 1534 c-4 -10 -2 -22 3 -27 7 -7 13 -5 17 7 4 10 2 22 -3 27 -7
7 -13 5 -17 -7z"/>
<path d="M6805 1380 c28 -12 37 -12 30 0 -3 6 -16 10 -28 9 -21 0 -21 -1 -2
-9z"/>
<path d="M6880 1020 c0 -6 7 -10 15 -10 8 0 15 2 15 4 0 2 -7 6 -15 10 -8 3
-15 1 -15 -4z"/>
<path d="M5383 963 c-39 -5 -50 -29 -24 -57 27 -30 35 -130 22 -278 -6 -68
-14 -148 -16 -178 -6 -65 9 -96 42 -86 24 8 43 41 46 83 3 40 10 35 31 -22 15
-39 21 -45 46 -45 48 0 56 30 26 97 -14 30 -26 65 -25 77 0 11 20 48 45 81 73
98 83 147 33 153 -22 3 -35 -8 -75 -57 -27 -34 -52 -61 -56 -61 -10 0 -11 11
-13 147 -1 94 -5 116 -20 133 -10 11 -21 19 -24 18 -3 0 -20 -3 -38 -5z m47
-181 c0 -64 3 -127 6 -139 13 -47 45 -27 138 82 49 58 27 1 -25 -63 -34 -43
-52 -75 -57 -105 l-8 -42 -12 33 c-8 24 -17 33 -29 30 -20 -4 -20 -2 -22 -95
-2 -57 -4 -64 -13 -43 -7 17 -6 73 2 180 7 85 11 185 8 222 -2 37 0 64 4 62 4
-3 8 -58 8 -122z m99 -347 c0 -5 -8 6 -19 25 -11 19 -19 40 -19 45 0 6 8 -6
19 -25 11 -19 19 -39 19 -45z"/>
<path d="M4605 946 c-16 -12 -18 -28 -17 -182 1 -93 -2 -209 -7 -259 -11 -111
-7 -118 66 -102 38 8 65 8 100 -1 58 -13 77 0 91 65 11 49 -5 86 -29 66 -9 -6
-38 -8 -73 -5 l-58 5 8 106 c20 262 -6 362 -81 307z m51 -92 c9 -79 -12 -344
-28 -344 -5 0 -6 53 -2 138 9 163 9 155 -1 215 -6 39 -5 47 8 47 11 0 17 -15
23 -56z m-10 -364 c7 -7 25 -8 52 -2 31 7 46 6 61 -5 12 -8 26 -11 31 -8 6 3
10 -2 10 -12 0 -16 -9 -18 -87 -16 -49 1 -89 4 -90 7 -2 4 -3 15 -3 26 0 22
10 26 26 10z"/>
<path d="M3569 938 c-23 -18 -31 -61 -16 -81 8 -11 31 -17 72 -19 l60 -3 0
-219 c0 -198 2 -220 18 -230 24 -15 68 11 77 45 4 14 8 104 9 199 1 96 4 178
7 182 3 4 23 11 44 14 51 8 62 23 58 76 -3 42 -4 43 -33 39 -37 -6 -54 -5
-180 4 -78 5 -104 4 -116 -7z m186 -32 c99 -3 110 -6 110 -22 0 -15 -10 -20
-50 -24 l-50 -5 -8 -205 c-8 -221 -11 -240 -29 -222 -8 8 -11 72 -9 215 3 231
3 230 -74 241 -25 4 -45 11 -45 16 0 10 21 18 35 14 6 -2 60 -5 120 -8z"/>
<path d="M3937 936 c-11 -11 -15 -44 -16 -126 0 -61 -3 -115 -6 -121 -3 -5 -6
-70 -7 -145 0 -104 3 -139 13 -145 20 -13 27 -11 49 11 17 17 20 33 20 120 0
99 0 101 26 112 43 20 54 -7 54 -133 0 -81 3 -109 15 -119 59 -49 92 197 42
320 -21 52 -24 55 -57 54 -19 0 -42 -2 -50 -5 -12 -3 -15 10 -15 79 0 71 -3
86 -19 98 -25 18 -31 18 -49 0z m33 -115 c0 -105 3 -112 49 -106 61 9 83 -17
90 -110 8 -89 -1 -181 -14 -152 -4 10 -4 53 -1 95 4 46 3 89 -3 105 -12 31
-51 44 -90 31 -29 -10 -37 -34 -47 -139 -5 -51 -9 -63 -14 -45 -3 14 -3 63 1
110 4 47 8 131 8 188 1 61 5 102 11 102 6 0 10 -33 10 -79z"/>
<path d="M2648 929 c-23 -13 -23 -33 -1 -66 21 -32 29 -213 15 -348 -14 -142
9 -188 68 -139 27 23 29 30 23 67 -6 38 -5 41 10 28 10 -7 17 -17 17 -22 0 -5
11 -27 25 -49 28 -44 52 -51 79 -21 21 23 16 46 -25 114 -16 26 -29 55 -29 64
0 10 18 43 41 75 33 47 40 65 37 95 -2 26 -8 39 -20 41 -20 4 -84 -51 -104
-89 -27 -53 -35 -34 -33 79 1 59 -1 116 -6 127 -21 51 -58 67 -97 44z m63 -75
c10 -42 10 -234 1 -234 -4 0 -8 49 -9 108 -1 60 -7 121 -13 136 -8 21 -7 27 2
24 7 -3 16 -18 19 -34z m159 -150 c0 -4 -18 -33 -40 -66 -22 -33 -40 -69 -40
-80 0 -11 16 -49 36 -84 47 -84 27 -83 -22 1 -21 36 -44 65 -51 65 -18 0 -33
-42 -33 -90 0 -21 -4 -41 -9 -44 -16 -10 -22 45 -15 126 6 67 9 78 23 72 34
-14 46 -7 88 49 39 50 63 70 63 51z"/>
<path d="M1070 923 c-31 -11 -38 -31 -27 -86 5 -30 7 -138 4 -258 -7 -212 -4
-229 33 -229 9 0 27 11 40 25 22 23 25 38 30 138 3 62 8 111 13 110 4 -2 18
-3 32 -3 l24 0 3 -122 3 -123 25 0 c39 0 62 57 63 158 1 86 -14 147 -39 168
-9 7 -41 18 -72 24 l-57 12 -3 74 c-2 59 -7 78 -24 96 -23 24 -24 25 -48 16z
m35 -120 c3 -43 8 -83 10 -90 2 -6 25 -14 52 -18 58 -7 71 -14 97 -48 31 -42
27 -237 -6 -237 -8 0 -9 31 -6 104 7 125 -2 146 -61 146 -66 0 -72 -11 -73
-135 -1 -120 -4 -135 -23 -135 -18 0 -22 17 -19 70 2 25 3 129 3 233 1 192 14
249 26 110z"/>
<path d="M1725 922 c-45 -8 -59 -35 -28 -57 17 -12 18 -32 18 -244 0 -175 3
-233 13 -243 8 -8 42 -13 95 -14 45 0 98 -4 117 -8 57 -12 72 7 74 88 0 37 -3
70 -8 74 -5 3 -19 -6 -30 -20 -20 -24 -25 -26 -86 -19 l-65 6 -3 100 c-5 158
4 221 39 258 32 33 36 49 16 65 -17 14 -102 22 -152 14z m105 -37 c0 -3 -9
-18 -21 -34 -19 -26 -21 -43 -22 -216 l-2 -187 75 -5 c41 -2 85 -4 98 -5 16 0
22 -6 22 -23 0 -21 -4 -22 -42 -18 -24 2 -74 5 -113 6 l-70 2 0 242 0 243 38
0 c20 0 37 -2 37 -5z"/>
<path d="M765 910 c-4 -7 -32 -10 -70 -9 -74 3 -92 -8 -93 -53 -1 -56 10 -65
76 -60 l58 4 1 -194 c1 -235 4 -258 42 -258 50 0 61 39 69 255 l7 190 51 -3
c33 -2 54 1 61 10 14 17 23 97 12 103 -4 3 -45 7 -91 9 -46 2 -90 7 -99 11
-10 3 -20 1 -24 -5z m170 -65 c0 -17 -6 -20 -35 -18 -40 3 -90 -14 -90 -30 0
-166 -11 -392 -19 -400 -8 -8 -11 -3 -11 19 0 16 -2 117 -3 224 l-2 195 -55 0
c-30 0 -57 5 -60 10 -7 14 55 21 175 20 93 0 100 -1 100 -20z"/>
<path d="M6268 893 c7 -3 16 -2 19 1 4 3 -2 6 -13 5 -11 0 -14 -3 -6 -6z"/>
<path d="M6361 801 c-6 -10 -7 -22 -3 -26 4 -4 7 -91 7 -193 l0 -187 24 0 c15
0 32 11 45 28 19 26 21 41 20 148 l-1 119 26 -7 c54 -15 84 -9 100 18 12 22
13 31 2 58 -12 28 -17 31 -60 31 -26 0 -56 7 -67 15 -28 21 -81 19 -93 -4z
m65 -86 l-11 -36 -6 38 c-8 44 -3 58 15 43 10 -8 10 -18 2 -45z m81 19 c-3 -3
-12 -4 -19 -1 -8 3 -5 6 6 6 11 1 17 -2 13 -5z m-94 -182 c3 -51 1 -95 -4 -98
-5 -3 -9 39 -9 97 0 56 2 100 4 98 3 -3 7 -46 9 -97z"/>
<path d="M5140 797 c-28 -15 -29 -32 -6 -94 10 -28 16 -80 17 -160 0 -65 5
-126 11 -136 15 -29 50 -17 71 23 18 36 19 101 1 225 l-7 49 26 -17 c14 -9 33
-17 41 -17 23 0 68 65 64 92 -3 21 -8 23 -63 24 -33 1 -73 6 -88 13 -35 14
-36 14 -67 -2z m65 -39 c24 -11 34 -28 16 -28 -18 0 -22 -61 -10 -153 12 -97
7 -151 -14 -144 -8 2 -14 48 -19 143 -3 76 -9 151 -13 167 -8 30 0 33 40 15z
m125 -12 c0 -7 -7 -19 -15 -26 -12 -10 -20 -9 -42 6 l-28 18 25 7 c41 11 60
10 60 -5z"/>
<path d="M5886 798 c-2 -7 -9 -101 -15 -208 -7 -107 -14 -229 -18 -270 -5 -66
-3 -78 15 -100 17 -20 24 -23 39 -14 32 19 43 56 43 148 0 76 2 87 14 76 25
-20 68 9 94 62 20 39 24 62 23 143 0 144 -37 202 -106 165 -17 -9 -28 -9 -43
-1 -27 14 -42 14 -46 -1z m147 -60 c27 -37 27 -184 0 -230 -20 -33 -34 -37
-79 -23 -28 9 -33 -5 -41 -126 -3 -54 -10 -99 -15 -99 -10 0 -11 145 -2 253 5
55 11 77 20 77 8 0 14 -11 14 -27 0 -27 34 -73 55 -73 26 0 43 37 50 107 8 82
-6 139 -36 148 -11 4 -17 11 -13 16 9 14 25 6 47 -23z m-87 0 c-12 -7 -16 -24
-16 -73 0 -37 -4 -65 -10 -65 -6 0 -10 33 -10 79 l0 78 26 -5 c22 -4 24 -6 10
-14z m54 -113 c0 -58 -11 -87 -27 -71 -5 4 -8 128 -4 143 1 1 8 0 16 -3 11 -5
15 -22 15 -69z"/>
<path d="M6130 794 c-14 -16 -26 -297 -15 -341 9 -36 33 -53 78 -53 82 0 111
49 126 214 11 129 -4 196 -46 196 -32 0 -47 -71 -52 -244 0 -27 -4 -46 -8 -42
-5 4 -8 66 -8 137 0 104 -3 132 -15 139 -22 14 -46 12 -60 -6z m39 -163 c-2
-95 1 -134 10 -145 19 -23 37 -20 60 12 19 26 20 26 21 5 0 -43 -92 -75 -104
-35 -13 43 -9 292 5 292 6 0 9 -44 8 -129z m101 -72 c-8 -19 -9 -12 -5 36 2
33 5 80 7 105 1 25 4 9 5 -36 2 -44 -1 -91 -7 -105z"/>
<path d="M4940 779 c-54 -24 -79 -54 -80 -92 0 -21 6 -30 20 -34 24 -6 24 -6
4 -45 -30 -58 -2 -205 42 -222 6 -2 24 2 39 10 25 13 30 13 47 -3 17 -15 21
-15 54 1 31 14 35 20 29 39 -4 12 -7 78 -6 147 3 142 -5 172 -51 200 -40 24
-41 24 -98 -1z m95 -54 c28 -27 31 -76 19 -229 -7 -74 -7 -76 -26 -59 -16 14
-24 15 -51 5 -47 -18 -66 6 -69 86 -3 57 0 66 21 83 13 10 32 19 43 19 56 0
79 56 34 85 -24 16 -66 9 -81 -14 -9 -16 -25 -14 -25 3 0 16 56 45 88 46 13 0
34 -11 47 -25z m-50 -45 c3 -5 -1 -10 -9 -10 -9 0 -16 5 -16 10 0 6 4 10 9 10
6 0 13 -4 16 -10z"/>
<path d="M4980 610 c-48 -11 -63 -35 -56 -88 3 -24 8 -47 11 -52 7 -11 76 6
86 22 11 16 12 128 2 127 -5 -1 -24 -5 -43 -9z m20 -64 c0 -24 -23 -41 -41
-30 -5 3 -9 16 -9 30 0 19 5 24 25 24 20 0 25 -5 25 -24z"/>
<path d="M5723 785 c-86 -37 -88 -187 -3 -216 36 -13 46 -37 23 -54 -19 -14
-22 -13 -66 19 -28 21 -29 21 -43 2 -25 -35 -17 -75 21 -113 30 -30 40 -34 66
-29 44 9 89 44 105 82 29 70 8 158 -41 170 -14 3 -30 15 -36 26 -13 23 -4 37
13 20 19 -19 45 -14 62 10 22 31 20 45 -9 73 -27 28 -46 30 -92 10z m-2 -63
c-17 -32 -13 -70 9 -92 26 -26 10 -26 -18 0 -26 24 -28 66 -6 98 19 28 30 22
15 -6z m74 17 c11 -17 2 -18 -19 -3 -17 12 -17 14 -4 14 9 0 20 -5 23 -11z
m-5 -144 c20 -24 6 -28 -15 -5 -10 11 -13 20 -8 20 6 0 16 -7 23 -15z m2 -114
c-27 -37 -67 -49 -99 -31 -15 8 -29 22 -31 30 -4 12 -1 11 15 -2 11 -10 27
-18 36 -18 24 0 74 47 83 77 l8 28 4 -29 c2 -18 -4 -39 -16 -55z"/>
<path d="M2409 762 c-23 -16 -24 -40 -3 -70 13 -19 15 -41 9 -142 -4 -65 -4
-135 -1 -154 6 -33 10 -36 41 -36 52 0 65 33 65 170 0 117 4 125 51 100 28
-16 69 28 69 73 0 60 -15 69 -119 71 -63 1 -100 -3 -112 -12z m186 -52 c4 -6
4 -17 1 -25 -4 -12 -10 -12 -42 1 -67 28 -68 26 -74 -135 -7 -201 -25 -195
-26 9 l-2 160 69 0 c37 0 71 -5 74 -10z"/>
<path d="M2100 710 c-29 -29 -40 -48 -40 -70 0 -25 4 -30 25 -30 14 0 39 9 54
21 36 26 75 22 79 -8 3 -21 -1 -23 -38 -23 -51 0 -93 -37 -109 -96 -17 -60
-13 -90 15 -123 27 -33 67 -41 105 -20 14 7 29 7 53 -2 30 -11 38 -10 70 11
36 21 36 23 20 41 -18 20 -18 26 -13 196 3 86 2 94 -21 118 -21 22 -32 25 -92
25 -66 0 -69 -1 -108 -40z m171 -11 c19 -19 20 -30 17 -165 l-3 -145 -25 7
c-14 4 -29 6 -35 5 -97 -15 -103 -14 -119 18 -22 42 -20 72 7 112 20 29 28 34
63 34 54 0 74 18 74 66 0 63 -54 76 -121 28 -49 -35 -55 -14 -10 32 25 24 37
29 80 29 38 0 56 -5 72 -21z"/>
<path d="M2130 513 c-13 -17 -20 -38 -18 -57 3 -26 8 -31 34 -34 16 -2 42 2
57 7 24 10 27 15 27 61 l0 50 -39 0 c-31 0 -44 -6 -61 -27z m72 -9 c13 -12 -6
-45 -29 -50 -33 -9 -48 8 -34 35 11 19 50 29 63 15z"/>
<path d="M4244 740 c-38 -15 -65 -66 -75 -141 -10 -82 3 -163 33 -195 23 -26
100 -39 131 -23 40 21 72 64 71 95 -1 48 -3 53 -24 64 -26 14 -55 -1 -75 -40
-23 -45 -35 -36 -35 25 l0 55 44 0 c36 0 48 5 65 26 11 14 23 34 26 44 7 24
-19 76 -44 90 -23 12 -87 12 -117 0z m29 -54 c-24 -21 -26 -28 -16 -44 10 -17
8 -21 -11 -30 -21 -9 -22 -16 -19 -69 6 -93 10 -103 39 -103 17 0 38 12 59 36
37 40 52 29 30 -24 -23 -53 -99 -56 -132 -5 -38 58 -12 244 35 256 38 10 42 6
15 -17z m87 -32 c0 -14 -7 -27 -15 -31 -21 -7 -32 4 -17 19 7 7 12 20 12 31 0
10 5 15 10 12 6 -3 10 -17 10 -31z"/>
<path d="M1435 711 c-70 -48 -94 -101 -95 -207 0 -75 16 -114 56 -130 92 -39
194 9 194 91 0 65 -41 81 -75 29 -9 -14 -25 -24 -40 -24 -30 0 -37 12 -29 45
5 20 13 25 38 26 51 2 78 13 99 41 35 46 -4 118 -77 143 -30 11 -37 9 -71 -14z
m33 -59 c-35 -32 -34 -69 2 -59 11 3 20 1 20 -4 0 -5 -15 -9 -34 -9 -41 0 -45
-5 -53 -68 -4 -37 -2 -52 12 -65 23 -23 78 -22 100 3 18 20 45 27 45 12 0 -20
-33 -51 -60 -57 -78 -17 -124 23 -121 105 3 88 53 170 103 170 14 0 11 -6 -14
-28z m76 -8 c10 -26 7 -54 -6 -54 -8 0 -13 14 -13 35 0 37 9 46 19 19z"/>
<path d="M6855 610 c-10 -16 0 -23 35 -23 30 0 48 8 38 18 -12 12 -66 16 -73
5z"/>
<path d="M6510 500 c-36 -36 -22 -110 21 -110 43 0 65 83 31 113 -24 22 -28
21 -52 -3z"/>
<path d="M6715 480 c3 -5 15 -10 26 -10 10 0 19 5 19 10 0 6 -12 10 -26 10
-14 0 -23 -4 -19 -10z"/>
<path d="M6780 480 c0 -5 7 -10 15 -10 8 0 15 5 15 10 0 6 -7 10 -15 10 -8 0
-15 -4 -15 -10z"/>
<path d="M2973 468 c-32 -41 -19 -98 22 -98 30 0 47 30 43 73 -2 26 -8 33 -29
35 -14 2 -30 -3 -36 -10z m37 -32 c0 -3 -4 -8 -10 -11 -5 -3 -10 -1 -10 4 0 6
5 11 10 11 6 0 10 -2 10 -4z"/>
<path d="M6908 463 c7 -3 16 -2 19 1 4 3 -2 6 -13 5 -11 0 -14 -3 -6 -6z"/>
<path d="M3848 353 c7 -3 16 -2 19 1 4 3 -2 6 -13 5 -11 0 -14 -3 -6 -6z"/>
<path d="M6840 336 c0 -9 50 -12 62 -5 8 6 -1 9 -24 9 -21 0 -38 -2 -38 -4z"/>
<path d="M6158 233 c12 -2 32 -2 45 0 12 2 2 4 -23 4 -25 0 -35 -2 -22 -4z"/>
<path d="M6275 110 c3 -5 11 -10 16 -10 6 0 7 5 4 10 -3 6 -11 10 -16 10 -6 0
-7 -4 -4 -10z"/>
</g>
</svg>
