<?xml version="1.0" standalone="no"?>
<!DOCTYPE svg PUBLIC "-//W3C//DTD SVG 20010904//EN"
 "http://www.w3.org/TR/2001/REC-SVG-20010904/DTD/svg10.dtd">
<svg version="1.0" xmlns="http://www.w3.org/2000/svg"
 width="1000.000000pt" height="795.000000pt" viewBox="0 0 1000.000000 795.000000"
 preserveAspectRatio="xMidYMid meet">
<metadata>
Created by potrace 1.16, written by Peter Selinger 2001-2019
</metadata>
<g transform="translate(0.000000,795.000000) scale(0.100000,-0.100000)"
fill="#000000" stroke="none">
<path d="M6934 7861 c-22 -20 -39 -27 -55 -24 -71 13 -104 -39 -126 -196 -8
-58 -23 -125 -33 -148 -18 -40 -18 -42 0 -40 10 1 17 4 14 8 -2 3 3 26 11 50
8 24 18 83 24 131 11 91 32 156 53 162 7 3 30 7 51 11 20 3 53 19 71 35 40 35
46 37 46 11 0 -11 -15 -34 -32 -51 -33 -30 -38 -33 -91 -44 -45 -10 -57 -53
-54 -190 l3 -116 -36 -1 -35 -1 30 -10 c17 -5 45 -9 63 -9 17 1 32 -3 32 -9 0
-5 6 -10 13 -10 6 1 2 9 -10 19 -12 10 -24 34 -28 53 -10 53 -12 221 -3 239 4
9 23 20 43 23 44 9 125 83 125 114 0 32 -38 28 -76 -7z"/>
<path d="M2586 7668 c-9 -12 -16 -34 -16 -48 0 -33 -15 -51 -67 -84 -65 -40
-70 -57 -47 -148 6 -25 3 -28 -17 -28 -36 0 -75 -29 -162 -116 -79 -79 -111
-131 -104 -169 2 -13 8 -4 17 28 8 30 27 63 51 88 22 23 39 38 39 34 0 -4 -13
-47 -30 -97 -16 -49 -30 -95 -30 -102 0 -17 -39 -105 -41 -91 0 6 -1 31 -1 58
0 26 -4 45 -9 41 -5 -3 -9 -37 -9 -75 0 -68 -1 -72 -46 -130 -49 -64 -87 -86
-209 -123 -146 -44 -249 -124 -323 -251 -56 -97 -74 -204 -76 -441 -1 -99 2
-228 5 -285 7 -116 42 -284 71 -342 19 -37 81 -90 128 -109 37 -14 156 -11
188 6 32 17 90 73 192 185 106 118 65 99 -53 -25 -56 -58 -119 -115 -140 -125
-89 -46 -215 -14 -266 66 -51 80 -92 294 -91 470 1 68 2 71 33 91 63 42 322
217 335 227 7 5 11 12 9 14 -5 4 -118 -69 -271 -174 -54 -37 -102 -69 -107
-71 -7 -3 -4 197 3 202 2 1 90 51 196 111 105 60 192 113 192 117 0 10 -35 -7
-170 -87 -58 -34 -131 -76 -162 -93 l-58 -32 0 27 c0 16 9 69 19 119 15 71 28
105 63 160 49 76 73 100 103 106 11 2 19 10 17 16 -4 19 48 59 93 72 48 13
105 35 163 63 23 11 45 18 48 15 3 -3 -4 -32 -16 -64 -45 -127 -54 -192 -54
-369 0 -127 4 -190 18 -250 23 -101 70 -248 112 -347 l32 -76 -23 -22 c-28
-26 -136 -101 -342 -237 -17 -12 -17 -12 2 -6 19 6 169 102 225 145 14 10 48
37 77 58 48 36 73 48 73 35 0 -3 -30 -35 -67 -71 -48 -46 -54 -55 -23 -30 25
19 56 47 69 61 27 29 37 31 45 10 3 -9 42 -73 87 -143 170 -265 221 -396 222
-572 1 -91 -2 -112 -23 -160 -29 -65 -47 -89 -116 -150 -70 -63 -104 -89 -144
-110 -40 -21 -216 -198 -247 -250 -43 -71 -84 -219 -90 -325 -5 -93 -3 -107
26 -193 17 -50 40 -111 52 -135 22 -43 96 -139 113 -146 6 -2 27 -20 47 -40
21 -20 112 -78 203 -130 217 -122 245 -154 233 -262 -6 -53 -46 -120 -82 -138
-31 -16 -191 -66 -275 -87 -147 -35 -207 -76 -257 -177 -20 -39 -22 -51 -12
-63 7 -8 18 -13 26 -10 7 3 23 2 35 -3 46 -17 199 25 333 92 57 28 109 47 141
50 88 10 196 93 257 198 44 76 61 153 62 279 0 152 -19 193 -128 268 -41 28
-85 56 -98 61 -89 34 -208 99 -247 134 -47 43 -94 132 -107 199 -4 23 0 58 14
104 16 55 30 78 63 110 49 47 115 93 173 120 22 10 68 36 102 59 35 22 88 56
118 75 85 53 195 209 245 345 17 47 24 74 49 187 18 77 13 217 -10 315 -11 48
-25 92 -30 97 -5 6 -9 22 -9 37 0 15 -5 40 -11 56 -10 28 -25 114 -36 206 -6
59 1 59 76 7 31 -22 63 -40 70 -40 8 0 -12 17 -45 39 -32 21 -69 48 -82 60
-29 29 -18 48 15 26 14 -10 53 -33 87 -52 33 -20 70 -44 81 -54 19 -16 106
-52 112 -45 2 1 -18 13 -45 26 -26 12 -56 31 -67 40 -11 10 -59 41 -107 70
-49 28 -88 58 -88 66 0 19 14 18 31 -2 12 -14 87 -56 276 -152 36 -18 68 -31
70 -28 3 3 -5 10 -18 16 -13 5 -31 14 -39 20 -8 5 -80 46 -160 91 -80 45 -146
83 -147 84 -10 6 38 194 68 270 4 11 10 31 12 45 3 14 12 50 20 80 29 108 49
272 43 350 -14 163 -57 316 -105 374 -5 6 -19 38 -31 71 -12 33 -25 69 -29 80
-5 11 -23 67 -41 125 -28 91 -46 145 -67 198 -3 6 0 12 6 12 6 0 11 -7 11 -15
0 -9 6 -18 14 -21 8 -3 19 -19 25 -36 6 -17 13 -29 16 -26 7 7 -21 69 -44 96
-11 12 -26 22 -34 22 -9 0 -25 12 -37 27 -22 28 -89 63 -122 63 -13 0 -25 14
-38 43 -25 54 -25 74 0 82 11 3 20 11 20 16 0 13 -32 -4 -50 -26 -12 -14 -12
-22 -1 -48 8 -18 14 -41 13 -53 0 -16 12 -25 52 -39 114 -40 142 -83 214 -336
34 -117 67 -208 100 -275 70 -138 95 -247 93 -408 -2 -126 -23 -249 -68 -396
-70 -231 -97 -372 -90 -470 6 -80 27 -193 51 -275 77 -265 78 -363 4 -580 -17
-49 -39 -107 -49 -127 -23 -46 -99 -141 -151 -190 -43 -41 -207 -142 -259
-160 -51 -17 -145 -86 -194 -140 -36 -40 -46 -60 -60 -123 -16 -73 -16 -77 4
-134 50 -146 89 -185 271 -275 193 -95 232 -121 265 -179 57 -101 50 -279 -16
-414 -35 -72 -107 -152 -166 -182 -54 -27 -73 -27 -73 1 0 24 -10 19 -14 -8
-4 -27 -24 -28 -29 -2 l-4 23 -2 -22 c0 -13 -8 -23 -16 -23 -9 0 -12 6 -9 18
5 14 3 14 -10 -2 -9 -11 -16 -23 -16 -28 0 -4 -4 -8 -10 -8 -5 0 -10 8 -10 18
0 11 -7 6 -20 -16 -21 -35 -48 -36 -30 -1 6 10 7 19 2 19 -5 0 -16 -18 -25
-40 -8 -22 -20 -40 -26 -40 -14 0 -14 16 -1 41 6 11 7 19 1 19 -5 0 -16 -18
-25 -40 -9 -22 -23 -40 -31 -40 -17 0 -20 16 -5 25 26 16 6 56 -53 104 -30 24
-18 -5 15 -37 28 -28 30 -35 22 -63 -9 -31 -37 -59 -49 -48 -3 3 0 19 5 36 9
25 7 36 -12 66 -13 20 -29 36 -37 37 -9 0 -4 -12 14 -35 29 -38 28 -80 -2
-110 -15 -16 -90 -21 -108 -7 -13 9 -18 59 -6 66 20 13 43 -6 38 -32 l-5 -26
19 25 c12 17 14 25 6 28 -24 7 -37 33 -26 53 10 19 12 19 39 -7 23 -22 27 -32
20 -46 -6 -10 -10 -28 -9 -41 0 -17 5 -12 20 22 l20 44 -25 19 c-37 27 -32 41
22 65 83 37 212 70 212 54 0 -10 45 -32 63 -32 7 1 0 8 -15 16 -16 8 -28 18
-28 23 0 16 44 20 60 6 22 -20 36 -19 20 0 -19 23 -4 31 32 17 34 -12 61 -5
34 10 -26 14 -7 30 27 23 22 -4 28 -3 18 3 -23 16 -5 42 28 42 16 0 33 4 36
10 3 6 -1 10 -9 10 -9 0 -16 7 -16 16 0 8 4 13 8 10 4 -2 14 -1 22 5 13 7 12
9 -2 9 -23 0 -13 24 15 38 18 9 19 11 5 11 -22 1 -23 9 -1 33 9 11 11 18 5 18
-7 0 -12 15 -12 34 0 47 -70 124 -147 162 -32 15 -82 43 -111 61 -29 18 -54
33 -57 33 -10 0 -116 72 -146 100 -19 16 -39 30 -46 30 -7 0 -18 10 -24 23 -6
12 -22 33 -34 47 -34 37 -63 94 -86 169 -12 36 -25 76 -30 89 -14 36 -10 172
7 232 8 30 19 71 23 90 12 54 69 149 125 210 83 89 106 109 184 161 189 127
249 207 274 367 13 87 6 149 -30 267 -52 168 -81 230 -163 353 -16 24 -29 45
-29 47 0 2 -20 32 -43 67 -50 72 -121 209 -131 253 -4 17 -14 44 -21 60 -61
136 -87 296 -86 536 1 97 6 132 30 215 30 103 66 182 105 224 24 27 42 54 80
123 21 38 30 66 53 179 3 14 19 55 37 90 24 48 43 71 80 96 26 17 59 32 72 32
l23 0 -18 53 c-10 28 -16 59 -13 67 7 23 44 60 60 60 24 0 72 60 72 90 0 27
25 59 36 47 3 -3 2 -16 -2 -29 -4 -13 -7 -29 -5 -36 1 -7 -7 -30 -19 -50 l-22
-37 24 23 c23 22 50 114 41 139 -8 20 -40 15 -57 -9z"/>
<path d="M6623 7437 c-3 -7 -3 -9 2 -5 4 4 14 3 21 -3 7 -6 15 -6 18 -1 3 6
-3 12 -14 15 -11 3 -23 0 -27 -6z"/>
<path d="M6506 7395 c-49 -24 -103 -58 -121 -75 -18 -18 -55 -42 -82 -54 -27
-13 -61 -34 -75 -47 -35 -33 -91 -130 -81 -140 5 -5 16 8 26 29 26 60 81 117
139 144 29 14 78 46 108 70 30 25 83 58 118 74 34 15 62 32 62 36 0 10 7 13
-94 -37z"/>
<path d="M6939 7403 c65 -62 88 -80 129 -101 23 -12 42 -19 42 -17 0 11 107
-97 123 -124 17 -29 17 -30 -7 -48 -39 -31 -103 -56 -128 -49 -24 6 -94 102
-90 123 3 16 -56 43 -88 40 -14 -1 -59 2 -100 6 -65 7 -88 4 -175 -19 -55 -14
-113 -27 -130 -29 -49 -4 -83 -22 -99 -52 -18 -37 -59 -66 -120 -86 -71 -24
-92 -22 -204 23 -121 49 -172 53 -236 21 -59 -31 -194 -171 -319 -331 -142
-183 -192 -289 -227 -475 -10 -55 -22 -112 -28 -127 -19 -48 -24 -141 -13
-268 14 -157 27 -213 65 -269 68 -102 135 -150 242 -171 73 -15 122 -4 184 42
113 85 169 119 220 134 70 21 120 46 144 73 11 12 23 21 28 21 16 0 8 -26 -24
-76 -51 -78 -108 -138 -171 -179 -59 -38 -64 -50 -34 -69 12 -8 23 -7 37 2 12
7 47 27 78 43 31 17 87 58 124 90 75 67 71 68 103 -31 22 -68 69 -152 140
-250 30 -41 58 -81 61 -87 3 -7 -11 -43 -32 -80 -63 -113 -86 -165 -99 -228
-7 -33 -16 -73 -20 -90 -6 -29 -6 -29 9 -11 9 11 16 29 16 39 0 54 109 313
140 332 5 3 30 -34 57 -82 l48 -88 0 -120 c-1 -114 -2 -124 -33 -189 -18 -37
-32 -72 -32 -77 0 -35 -112 -154 -201 -214 -76 -51 -197 -156 -233 -202 -85
-110 -127 -325 -91 -468 17 -71 60 -167 77 -173 4 -2 17 -21 28 -42 11 -21 31
-46 44 -57 39 -28 88 -62 121 -84 192 -123 230 -168 245 -281 8 -69 7 -84 -11
-130 -24 -62 -37 -79 -101 -131 -61 -49 -126 -74 -210 -82 -54 -5 -77 -14
-127 -46 -34 -22 -61 -41 -62 -42 0 -1 -3 -24 -6 -52 -2 -27 -11 -57 -19 -66
-23 -26 -17 -36 47 -74 l61 -36 32 23 c37 27 57 37 151 73 122 47 157 66 202
108 24 23 55 48 67 57 39 25 107 118 142 196 19 40 34 77 34 83 0 6 3 11 8 11
10 0 4 137 -9 219 -15 95 -42 141 -146 254 -125 135 -158 185 -183 282 -32
119 -25 166 35 251 64 89 104 127 190 177 38 22 104 64 145 92 41 29 93 61
115 73 42 21 117 88 152 135 l21 27 25 -43 c54 -92 66 -186 32 -257 -20 -43
-13 -72 22 -93 42 -24 69 -15 88 30 21 49 19 51 -13 15 -21 -23 -34 -30 -50
-25 -26 6 -38 43 -23 71 6 11 15 39 20 63 12 54 -16 162 -54 208 -32 37 -31
49 6 112 33 57 72 169 87 251 12 63 7 230 -8 257 -5 11 -10 30 -10 43 0 13
-12 50 -26 83 -46 107 -83 222 -89 275 -3 29 -6 55 -7 59 -2 19 5 29 28 40
l27 12 -17 -26 c-9 -14 -14 -30 -10 -36 8 -14 56 31 50 47 -2 6 2 22 11 34 12
18 17 19 25 9 8 -11 9 -10 4 3 -3 10 2 23 12 30 9 7 24 22 32 32 13 18 13 19
0 11 -8 -5 -21 -10 -29 -11 -7 -2 -23 -11 -35 -21 -77 -66 -188 -124 -251
-130 -76 -8 -72 10 10 47 35 16 89 47 118 69 56 41 127 121 107 121 -7 0 -8 6
0 19 5 11 10 35 10 53 0 19 4 38 9 43 5 6 16 28 24 50 8 22 25 65 37 95 59
149 72 217 77 404 4 119 2 198 -6 235 -24 114 -72 248 -115 320 -25 41 -43 78
-40 82 2 4 17 10 34 14 16 3 47 20 69 36 23 16 47 29 54 29 7 0 22 9 34 19 44
41 83 54 147 46 65 -7 88 -16 125 -49 24 -21 62 -98 75 -150 13 -51 83 -191
132 -262 26 -38 61 -98 77 -134 16 -36 47 -95 69 -132 49 -82 74 -181 83 -330
15 -234 -56 -402 -207 -494 -52 -32 -170 -68 -255 -79 -50 -6 -57 -4 -163 51
-60 32 -137 82 -171 111 -33 29 -64 53 -70 53 -20 0 -7 -18 41 -54 44 -34 49
-41 48 -74 -2 -59 12 -251 21 -294 11 -47 31 -74 31 -41 0 12 -4 24 -9 27 -13
8 -34 303 -21 311 3 2 24 -7 45 -20 95 -58 190 -97 237 -96 26 0 55 4 65 9 10
5 38 13 62 17 24 4 69 22 100 41 31 19 62 34 68 34 37 0 173 179 173 228 0 7
7 23 15 35 21 33 30 215 15 319 -6 47 -22 112 -34 144 -23 64 -147 308 -196
389 -47 77 -120 232 -120 254 0 29 -55 129 -89 159 -78 71 -217 81 -292 21
-33 -26 -43 -29 -50 -18 -5 8 -9 17 -9 22 0 17 -87 101 -120 116 -51 24 -120
70 -120 80 0 5 -13 14 -29 21 -16 6 -32 18 -35 26 -3 8 -12 14 -21 14 -11 0
-7 -8 14 -27z m-242 -199 c-3 -3 -12 -4 -19 -1 -8 3 -5 6 6 6 11 1 17 -2 13
-5z m128 -4 c17 -1 41 0 55 1 70 6 74 3 123 -86 26 -46 52 -87 57 -90 17 -10
108 -198 134 -277 51 -150 62 -406 26 -578 -13 -61 -92 -284 -122 -344 -11
-21 -18 -50 -15 -63 7 -40 -103 -163 -166 -186 -43 -16 -128 -80 -125 -95 7
-34 110 -32 180 2 34 17 34 18 43 -70 3 -34 17 -96 30 -140 25 -82 26 -95 5
-69 -7 8 -18 15 -24 15 -6 0 6 -15 26 -33 21 -17 40 -45 44 -62 6 -29 6 -29
-9 -10 -8 11 -18 17 -21 14 -4 -3 7 -23 24 -44 35 -44 36 -47 14 -38 -13 5
-10 -4 10 -33 26 -39 33 -64 17 -64 -5 0 -14 7 -21 15 -7 9 -15 13 -18 11 -2
-3 7 -19 22 -36 14 -17 26 -37 26 -43 0 -7 -5 -4 -11 6 -5 9 -17 17 -25 17
-11 0 -9 -9 11 -37 14 -21 25 -49 25 -63 0 -25 0 -25 -16 5 -18 36 -32 51 -39
43 -3 -3 5 -23 20 -43 14 -21 25 -45 24 -54 0 -10 -2 -12 -6 -3 -4 11 -33 18
-33 8 0 -3 9 -20 20 -39 17 -29 18 -39 9 -68 -17 -49 -29 -58 -29 -22 0 17 -8
37 -17 44 -15 13 -16 12 -8 -11 16 -51 17 -124 1 -145 -14 -19 -14 -17 -9 21
3 24 1 44 -5 48 -7 4 -9 -13 -7 -49 3 -54 1 -58 -52 -125 -30 -39 -60 -70 -68
-70 -7 0 -15 -6 -18 -14 -3 -7 -92 -68 -199 -134 -229 -143 -254 -163 -318
-259 -70 -104 -75 -132 -52 -252 18 -90 23 -104 74 -172 31 -41 88 -108 127
-149 110 -115 144 -195 144 -342 0 -99 -35 -219 -82 -278 -92 -118 -181 -194
-271 -229 -30 -12 -68 -29 -83 -37 -16 -8 -34 -14 -41 -14 -7 0 -38 -16 -70
-35 l-58 -35 -44 26 c-46 27 -56 52 -28 74 30 26 37 51 18 64 -21 16 -14 28
40 65 31 22 60 31 107 37 35 3 91 17 124 29 66 24 187 108 203 140 69 143 40
294 -75 394 -57 48 -140 111 -168 125 -81 43 -135 105 -197 225 -58 113 -63
277 -13 431 24 75 29 82 38 63 10 -24 33 -33 24 -10 -14 37 -16 53 -8 66 8 12
12 12 25 2 12 -10 15 -8 18 16 2 20 8 27 20 25 11 -2 18 5 20 20 2 15 9 22 21
20 12 -2 17 4 17 19 0 15 5 19 15 15 10 -4 15 1 15 15 0 16 4 19 20 14 14 -5
20 -2 20 9 0 14 11 20 32 17 4 0 10 8 13 19 4 11 15 25 26 30 16 9 19 7 19
-10 0 -11 5 -20 11 -20 8 0 9 11 5 32 l-6 31 22 -19 c19 -17 21 -17 15 -1 -10
27 3 48 24 42 15 -5 19 -1 20 17 0 13 3 17 6 11 10 -26 22 -12 16 20 -5 26 -3
30 8 20 21 -21 29 -15 23 17 -6 29 7 42 21 20 12 -19 26 -11 15 9 -16 30 -12
36 10 16 24 -21 26 -9 5 22 -18 26 -2 41 22 21 18 -14 18 -13 -5 41 -4 11 1
13 19 8 31 -8 50 27 37 64 l-10 24 -13 -30 c-12 -26 -13 -27 -14 -8 -2 37 17
73 34 67 10 -4 15 0 15 14 0 11 -7 22 -15 26 -19 7 -20 46 -1 46 8 0 18 4 21
10 4 6 -1 7 -10 3 -25 -9 -37 18 -20 44 13 20 13 22 0 17 -10 -4 -15 0 -15 15
0 32 -28 106 -62 163 -50 85 -120 188 -156 232 -30 35 -33 44 -28 85 2 25 9
61 15 80 6 19 9 36 7 39 -8 8 -28 -41 -36 -87 l-8 -46 0 40 c-1 22 5 57 12 78
12 32 12 36 0 26 -8 -7 -19 -32 -26 -57 -8 -32 -13 -40 -19 -30 -5 9 -4 30 1
47 5 18 7 38 4 45 -3 8 2 31 11 51 8 21 13 40 11 43 -9 9 -26 -10 -36 -41 -9
-31 -9 -31 -8 13 3 53 -9 93 -24 84 -7 -5 -9 2 -4 22 6 28 6 28 -10 9 -15 -19
-16 -19 -9 13 4 21 3 32 -5 32 -6 0 -8 4 -5 10 3 5 -2 21 -11 35 -11 18 -15
38 -11 65 3 23 1 38 -4 34 -5 -3 -9 -11 -9 -19 0 -8 -9 -13 -20 -12 -26 2 -26
31 1 48 15 11 20 22 17 44 l-4 30 -11 -25 c-12 -28 -40 -56 -49 -48 -2 3 0 17
5 32 10 26 -2 38 -13 14 -3 -7 -4 5 -1 27 4 29 3 36 -4 25 -19 -27 -12 -93 14
-142 26 -49 33 -88 15 -88 -5 0 -10 10 -10 23 0 13 -5 28 -11 34 -18 18 -47
141 -37 151 6 6 7 44 3 96 -7 81 -9 86 -28 80 -16 -5 -19 -3 -15 14 3 12 2 53
-2 93 -9 78 9 218 36 293 8 22 18 50 21 61 8 25 82 140 116 180 59 68 144 183
170 228 15 26 34 47 42 47 8 0 15 7 15 15 0 24 50 42 131 47 52 3 89 12 115
26 22 12 50 19 64 17 14 -3 39 -5 55 -5z m-777 -146 c42 -15 96 -36 120 -47
42 -19 89 -20 151 -1 22 7 23 6 10 -17 -7 -13 -39 -55 -71 -94 -199 -236 -245
-372 -228 -675 11 -183 43 -324 101 -444 22 -46 22 -46 9 -46 -6 0 -27 -11
-48 -24 -20 -14 -67 -34 -104 -46 -37 -12 -86 -36 -109 -53 -23 -18 -51 -39
-63 -47 -11 -8 -41 -30 -65 -47 -38 -29 -52 -33 -104 -33 -100 0 -205 65 -286
179 -31 43 -50 130 -60 274 -8 130 -6 186 10 232 14 40 39 155 39 180 0 19 31
101 83 217 25 55 95 158 128 188 9 8 43 47 75 85 122 147 246 244 312 245 13
0 58 -12 100 -26z m29 -956 c-3 -8 -6 -5 -6 6 -1 11 2 17 5 13 3 -3 4 -12 1
-19z m10 -50 c-3 -8 -6 -5 -6 6 -1 11 2 17 5 13 3 -3 4 -12 1 -19z m109 -264
c-3 -9 -6 -18 -6 -21 0 -3 -7 0 -15 7 -13 11 -13 15 -3 21 21 13 31 10 24 -7z
m8 -136 c9 -17 16 -36 16 -43 0 -29 -238 -195 -280 -195 -27 0 -16 22 22 45
51 29 105 83 160 157 28 37 54 68 59 68 4 0 15 -14 23 -32z m106 -146 c0 -15
-2 -15 -10 -2 -13 20 -13 33 0 25 6 -3 10 -14 10 -23z"/>
<path d="M7091 6451 c-24 -33 -26 -41 -11 -41 12 0 59 50 60 63 0 18 -31 4
-49 -22z"/>
<path d="M6114 6434 c-17 -14 -17 -15 -1 -10 10 3 27 1 38 -4 27 -15 45 -2 22
16 -24 18 -35 17 -59 -2z"/>
<path d="M7112 6381 c-16 -46 7 -59 47 -25 25 21 29 29 20 40 -21 25 -56 17
-67 -15z"/>
<path d="M6117 6372 c-36 -40 -12 -81 37 -62 33 12 39 37 16 60 -25 25 -32 25
-53 2z"/>
<path d="M6520 5595 c0 -8 5 -15 10 -15 6 0 10 7 10 15 0 8 -4 15 -10 15 -5 0
-10 -7 -10 -15z"/>
<path d="M6516 5504 c-5 -13 8 -54 18 -54 2 0 4 16 4 35 0 36 -11 46 -22 19z"/>
<path d="M6632 5488 c-13 -13 -16 -28 -4 -28 4 0 18 9 32 20 23 18 24 20 5 20
-12 0 -26 -5 -33 -12z"/>
<path d="M6412 5453 c-18 -48 -25 -93 -13 -93 6 0 11 11 11 24 0 12 5 37 11
55 14 40 6 52 -9 14z"/>
<path d="M6452 5427 c-17 -21 -24 -61 -13 -87 9 -22 10 -21 10 18 1 24 6 52
11 63 12 22 8 25 -8 6z"/>
<path d="M6970 5401 c0 -5 7 -14 15 -21 16 -14 18 -10 9 14 -6 17 -24 22 -24
7z"/>
<path d="M6474 5354 c-4 -22 -2 -40 5 -47 8 -8 11 1 11 36 0 56 -7 61 -16 11z"/>
<path d="M6687 5339 c-22 -11 -36 -23 -33 -26 8 -8 86 27 86 39 0 12 -11 9
-53 -13z"/>
<path d="M6970 5346 c0 -16 32 -75 50 -91 l22 -20 -15 30 c-8 17 -21 42 -28
58 -10 22 -29 37 -29 23z"/>
<path d="M6525 5299 c-9 -16 -15 -46 -13 -65 3 -30 5 -27 18 31 9 36 15 65 13
65 -1 0 -10 -14 -18 -31z"/>
<path d="M6561 5213 c-13 -46 -13 -53 -2 -53 9 0 25 80 17 87 -2 3 -9 -12 -15
-34z"/>
<path d="M6865 5220 c-4 -6 0 -10 7 -11 7 0 31 -3 53 -5 27 -4 37 -2 30 5 -14
14 -83 22 -90 11z"/>
<path d="M6733 5188 c-17 -12 -39 -35 -49 -50 -11 -16 -21 -23 -25 -16 -4 6
-10 -4 -14 -23 -4 -19 -14 -38 -22 -44 -12 -9 -11 -11 6 -11 15 0 21 7 21 22
0 12 7 24 15 28 8 3 20 16 26 29 12 25 75 67 102 67 9 0 19 5 22 10 12 19 -50
10 -82 -12z"/>
<path d="M6606 5169 c-10 -47 -12 -89 -6 -89 4 0 10 24 13 53 5 55 1 76 -7 36z"/>
<path d="M6682 5060 c0 -14 2 -19 5 -12 2 6 2 18 0 25 -3 6 -5 1 -5 -13z"/>
<path d="M6942 5039 c6 -18 47 -24 61 -10 8 8 7 11 -3 11 -8 0 -26 3 -39 7
-18 4 -23 2 -19 -8z"/>
<path d="M6635 5010 c-3 -5 -1 -10 4 -10 6 0 11 5 11 10 0 6 -2 10 -4 10 -3 0
-8 -4 -11 -10z"/>
<path d="M6763 4996 c-15 -13 -25 -28 -20 -32 4 -4 14 2 23 14 17 24 44 28 76
11 27 -14 38 -1 14 17 -29 21 -61 17 -93 -10z"/>
<path d="M6639 4963 c-13 -16 -12 -17 4 -4 9 7 17 15 17 17 0 8 -8 3 -21 -13z"/>
<path d="M6752 4747 c-29 -30 -28 -41 1 -23 20 14 28 14 71 1 71 -22 93 -2 31
28 -48 23 -77 21 -103 -6z"/>
<path d="M6695 4522 c-36 -7 -41 -22 -8 -22 18 0 35 -4 38 -10 9 -15 25 -12
25 5 0 18 -29 33 -55 27z"/>
<path d="M6820 4501 c0 -14 42 -41 52 -35 12 8 -21 44 -39 44 -7 0 -13 -4 -13
-9z"/>
<path d="M6551 4401 c-35 -9 -36 -24 -4 -39 16 -7 40 -20 55 -29 32 -21 43
-14 34 21 -8 31 -52 55 -85 47z"/>
<path d="M6390 4235 c-13 -14 -21 -27 -18 -30 3 -3 11 1 17 9 11 13 17 12 48
-5 27 -15 39 -17 47 -9 8 8 4 18 -17 36 -35 30 -48 30 -77 -1z"/>
<path d="M6221 4071 c-28 -27 -40 -51 -25 -51 4 0 18 12 31 26 16 17 29 24 41
19 9 -4 32 -9 50 -12 36 -6 44 11 15 33 -31 23 -78 17 -112 -15z"/>
<path d="M6173 3868 c-27 -30 -44 -64 -36 -72 12 -12 22 -6 25 17 2 17 13 24
43 31 51 12 54 15 31 32 -27 19 -39 18 -63 -8z"/>
<path d="M6167 3694 c-30 -29 -31 -33 -18 -53 7 -10 12 -7 22 15 10 20 23 30
42 32 16 2 27 8 24 15 -7 23 -43 18 -70 -9z"/>
<path d="M6287 3593 c-24 -23 9 -31 39 -8 18 14 18 14 -7 15 -14 0 -29 -3 -32
-7z"/>
<path d="M6207 3546 c-22 -32 -31 -72 -19 -80 6 -3 13 7 17 23 3 17 15 42 26
56 16 19 17 25 6 25 -8 0 -22 -11 -30 -24z"/>
<path d="M6291 3464 c-29 -37 -26 -53 4 -20 16 17 34 26 55 26 16 0 30 5 30
10 0 6 -15 10 -34 10 -25 0 -40 -7 -55 -26z"/>
<path d="M6130 2641 c0 -5 -13 -7 -29 -5 -23 4 -30 1 -34 -18 -7 -27 -5 -30
30 -34 22 -2 31 3 41 23 15 33 15 43 2 43 -5 0 -10 -4 -10 -9z"/>
<path d="M6072 2519 c-12 -11 -27 -17 -32 -14 -13 8 -13 3 1 -32 l11 -28 12
24 c11 19 14 21 19 7 4 -9 4 -24 1 -33 -5 -15 -3 -15 11 2 28 34 33 49 24 73
-10 27 -19 28 -47 1z"/>
<path d="M6117 6943 c-4 -3 -7 -12 -7 -20 0 -11 4 -11 19 -1 11 7 17 16 15 20
-6 10 -18 10 -27 1z"/>
<path d="M5956 6793 c-11 -11 -6 -23 8 -23 8 0 17 4 20 9 7 10 -19 23 -28 14z"/>
<path d="M5833 6724 c-58 -48 -55 -63 3 -19 25 19 52 35 60 35 9 0 12 5 9 10
-11 17 -29 11 -72 -26z"/>
<path d="M6000 6644 c0 -14 4 -23 10 -19 6 3 10 15 10 26 0 10 -4 19 -10 19
-5 0 -10 -12 -10 -26z"/>
<path d="M5690 6545 c-19 -14 -49 -25 -67 -25 -35 0 -83 -18 -83 -32 0 -11 28
-10 35 2 3 6 20 10 37 10 33 0 118 44 118 60 0 13 1 13 -40 -15z"/>
<path d="M5936 6529 c-22 -22 -10 -25 17 -5 10 8 15 16 10 19 -4 2 -17 -4 -27
-14z"/>
<path d="M5864 6456 c-8 -14 -23 -27 -32 -29 -13 -4 -12 -5 4 -6 19 -1 41 16
58 47 13 23 -13 12 -30 -12z"/>
<path d="M5670 6387 c0 -20 29 -42 40 -31 5 5 -2 16 -16 27 -19 14 -24 15 -24
4z"/>
<path d="M5610 6336 c0 -15 24 -28 34 -19 7 7 -13 33 -25 33 -5 0 -9 -6 -9
-14z"/>
<path d="M5840 6306 c0 -7 9 -16 20 -19 23 -6 26 3 8 21 -16 16 -28 15 -28 -2z"/>
<path d="M5535 6250 c-9 -15 14 -40 36 -40 23 0 24 4 2 30 -20 22 -29 25 -38
10z"/>
<path d="M5787 6224 c-10 -11 3 -24 24 -24 23 0 25 15 3 24 -19 7 -19 7 -27 0z"/>
<path d="M5470 6170 c0 -19 36 -47 47 -36 8 7 -25 56 -37 56 -6 0 -10 -9 -10
-20z"/>
<path d="M5700 6100 c0 -5 9 -14 21 -20 15 -9 24 -8 36 1 13 12 13 14 -4 20
-26 11 -53 10 -53 -1z"/>
<path d="M5920 6080 c0 -5 5 -10 10 -10 6 0 10 5 10 10 0 6 -4 10 -10 10 -5 0
-10 -4 -10 -10z"/>
<path d="M5630 6021 c0 -27 21 -57 32 -46 7 7 -15 75 -24 75 -5 0 -8 -13 -8
-29z"/>
<path d="M5560 5983 c1 -15 39 -58 46 -51 8 9 -22 58 -36 58 -6 0 -10 -3 -10
-7z"/>
<path d="M5982 5974 c1 -9 9 -19 16 -22 9 -3 13 2 10 14 -1 9 -9 19 -16 22 -9
3 -13 -2 -10 -14z"/>
<path d="M5850 5946 c0 -16 24 -38 33 -30 8 9 -11 44 -23 44 -6 0 -10 -6 -10
-14z"/>
<path d="M5510 5922 c0 -5 11 -19 24 -31 33 -31 52 -18 22 14 -23 25 -46 33
-46 17z"/>
<path d="M5970 5887 c0 -20 23 -37 37 -29 7 5 2 13 -13 25 -19 14 -24 15 -24
4z"/>
<path d="M5786 5862 c-7 -11 23 -46 31 -38 3 3 -2 14 -10 26 -8 12 -18 17 -21
12z"/>
<path d="M5730 5822 c0 -12 39 -52 50 -52 15 0 12 7 -14 34 -24 27 -36 32 -36
18z"/>
<path d="M5436 5812 c-8 -14 8 -31 48 -47 43 -18 60 -12 30 9 -40 30 -73 46
-78 38z"/>
<path d="M5940 5786 c0 -19 49 -76 50 -58 0 19 -29 72 -40 72 -6 0 -10 -6 -10
-14z"/>
<path d="M5680 5726 c0 -18 59 -65 88 -71 12 -2 26 3 33 11 11 13 9 14 -12 9
-19 -5 -32 2 -59 30 -37 38 -50 43 -50 21z"/>
<path d="M5666 5595 c40 -35 68 -43 80 -23 5 7 2 9 -9 5 -8 -3 -21 1 -28 9
-13 15 -62 44 -75 44 -4 0 10 -16 32 -35z"/>
<path d="M2430 7161 c0 -14 18 -23 31 -15 8 4 7 9 -2 15 -18 11 -29 11 -29 0z"/>
<path d="M2820 7111 c0 -6 5 -13 10 -16 6 -3 10 1 10 9 0 9 -4 16 -10 16 -5 0
-10 -4 -10 -9z"/>
<path d="M2580 7096 c0 -26 12 -46 28 -46 12 0 13 3 4 12 -7 7 -12 20 -12 30
0 10 -4 18 -10 18 -5 0 -10 -6 -10 -14z"/>
<path d="M2352 7079 c3 -8 8 -13 11 -11 9 3 7 11 -5 18 -6 4 -8 0 -6 -7z"/>
<path d="M2840 7053 c0 -5 7 -17 15 -27 15 -20 20 -10 9 18 -6 16 -24 22 -24
9z"/>
<path d="M2460 7001 c0 -14 28 -33 40 -26 7 4 5 11 -4 21 -16 16 -36 19 -36 5z"/>
<path d="M7490 7000 c0 -5 5 -10 10 -10 6 0 10 5 10 10 0 6 -4 10 -10 10 -5 0
-10 -4 -10 -10z"/>
<path d="M7530 7003 c0 -5 4 -14 9 -21 7 -11 9 -11 14 1 3 8 3 18 0 21 -9 8
-23 7 -23 -1z"/>
<path d="M2870 6975 c0 -9 5 -15 10 -13 12 4 11 16 -1 24 -5 3 -9 -2 -9 -11z"/>
<path d="M2122 6955 c-17 -37 -14 -45 4 -12 9 16 14 31 11 33 -2 2 -9 -7 -15
-21z"/>
<path d="M7363 6933 c9 -9 19 -14 23 -11 10 10 -6 28 -24 28 -15 0 -15 -1 1
-17z"/>
<path d="M7490 6911 c0 -5 7 -11 15 -15 9 -3 15 0 15 9 0 8 -7 15 -15 15 -8 0
-15 -4 -15 -9z"/>
<path d="M2595 6901 c-7 -12 12 -24 25 -16 11 7 4 25 -10 25 -5 0 -11 -4 -15
-9z"/>
<path d="M7340 6880 c0 -5 9 -10 19 -10 11 0 23 5 26 10 4 6 -5 10 -19 10 -14
0 -26 -4 -26 -10z"/>
<path d="M2447 6804 c-8 -8 3 -34 14 -34 11 0 12 27 0 34 -4 3 -11 3 -14 0z"/>
<path d="M2935 6780 c-19 -7 -18 -8 5 -13 14 -3 57 -11 95 -18 87 -15 106 -22
168 -62 89 -58 149 -168 197 -358 16 -68 41 -160 55 -204 77 -251 94 -375 67
-490 -24 -105 -71 -157 -193 -215 -53 -25 -76 -30 -134 -30 -38 1 -90 5 -115
11 -25 5 -58 12 -75 15 -16 3 -53 19 -81 35 -28 16 -55 29 -59 29 -15 0 28
-40 59 -56 36 -18 158 -54 166 -49 3 2 23 0 43 -5 50 -11 171 11 224 41 91 52
132 88 160 141 27 51 28 58 27 193 -1 138 -2 143 -63 375 -123 466 -150 522
-296 612 -26 16 -70 29 -123 37 -46 7 -89 14 -95 16 -7 2 -21 0 -32 -5z"/>
<path d="M7525 6780 c3 -5 19 -10 36 -10 16 0 29 5 29 10 0 6 -16 10 -36 10
-21 0 -33 -4 -29 -10z"/>
<path d="M7344 6755 c10 -8 23 -12 29 -8 11 7 -12 23 -33 23 -12 -1 -11 -4 4
-15z"/>
<path d="M7481 6729 c-13 -11 -21 -22 -18 -25 7 -7 67 27 67 38 0 14 -24 8
-49 -13z"/>
<path d="M2990 6732 c0 -4 15 -13 33 -20 50 -18 56 -14 12 8 -45 23 -45 23
-45 12z"/>
<path d="M2246 6702 c-7 -12 32 -48 41 -38 8 8 -8 38 -24 43 -6 2 -14 0 -17
-5z"/>
<path d="M2744 6696 c-4 -10 -2 -22 4 -28 8 -8 13 -7 18 6 4 10 2 22 -4 28 -8
8 -13 7 -18 -6z"/>
<path d="M1960 6680 c-19 -11 -31 -19 -27 -20 12 0 77 28 77 34 0 10 -14 6
-50 -14z"/>
<path d="M3088 6688 c5 -5 16 -8 23 -6 8 3 3 7 -10 11 -17 4 -21 3 -13 -5z"/>
<path d="M7332 6669 c3 -8 8 -13 11 -11 9 3 7 11 -5 18 -6 4 -8 0 -6 -7z"/>
<path d="M3021 6666 c12 -12 150 -76 164 -76 8 0 15 5 15 10 0 6 -6 10 -12 10
-7 0 -35 11 -63 23 -50 24 -115 44 -104 33z"/>
<path d="M1845 6633 c-33 -13 -64 -29 -70 -35 -5 -5 8 -2 30 7 22 9 54 22 70
27 31 11 57 29 40 27 -6 0 -37 -12 -70 -26z"/>
<path d="M1955 6639 c-16 -11 -83 -47 -147 -80 -116 -58 -154 -83 -81 -52 108
45 300 153 272 153 -7 0 -27 -9 -44 -21z"/>
<path d="M7440 6620 c0 -5 5 -10 10 -10 6 0 10 5 10 10 0 6 -4 10 -10 10 -5 0
-10 -4 -10 -10z"/>
<path d="M2622 6584 c1 -9 9 -19 16 -22 9 -3 13 2 10 14 -1 9 -9 19 -16 22 -9
3 -13 -2 -10 -14z"/>
<path d="M2815 6576 c-19 -28 -22 -94 -7 -123 12 -22 69 -50 79 -39 19 19 26
127 11 156 -19 35 -62 39 -83 6z m22 -108 c-3 -8 -6 -5 -6 6 -1 11 2 17 5 13
3 -3 4 -12 1 -19z"/>
<path d="M1945 6580 c-3 -5 -44 -28 -92 -51 -97 -48 -238 -137 -230 -146 4 -3
23 8 44 24 21 16 95 58 166 93 70 35 127 70 127 77 0 15 -6 17 -15 3z"/>
<path d="M3050 6582 c0 -10 79 -49 149 -73 62 -22 61 -22 61 -11 0 4 -21 14
-47 21 -27 8 -74 26 -105 42 -32 16 -58 25 -58 21z"/>
<path d="M2084 6562 c-51 -34 -38 -170 17 -172 3 0 17 9 30 20 19 17 23 29 20
63 -4 54 -26 97 -51 97 -3 0 -10 -4 -16 -8z"/>
<path d="M7380 6559 c0 -12 25 -22 41 -17 6 2 0 9 -15 16 -16 7 -26 8 -26 1z"/>
<path d="M2160 6536 c0 -9 5 -16 10 -16 6 0 10 4 10 9 0 6 -4 13 -10 16 -5 3
-10 -1 -10 -9z"/>
<path d="M7690 6535 c-33 -19 -10 -19 26 0 16 8 22 15 14 15 -8 -1 -26 -7 -40
-15z"/>
<path d="M2390 6520 c0 -5 5 -10 10 -10 6 0 10 5 10 10 0 6 -4 10 -10 10 -5 0
-10 -4 -10 -10z"/>
<path d="M1840 6453 c-52 -31 -126 -74 -165 -95 -38 -20 -66 -38 -61 -38 25 0
336 172 336 186 0 10 -21 0 -110 -53z"/>
<path d="M3115 6477 c79 -38 126 -55 110 -39 -11 11 -129 61 -160 68 -11 2 12
-11 50 -29z"/>
<path d="M7775 6488 c-6 -13 -24 -27 -42 -33 -32 -9 -45 -25 -20 -25 25 0 77
40 77 60 0 26 -3 25 -15 -2z"/>
<path d="M7640 6465 c0 -8 5 -15 10 -15 6 0 10 7 10 15 0 8 -4 15 -10 15 -5 0
-10 -7 -10 -15z"/>
<path d="M3040 6462 c0 -12 92 -48 180 -71 97 -26 104 -19 8 9 -40 11 -99 32
-130 45 -32 14 -58 21 -58 17z"/>
<path d="M2460 6443 c1 -20 19 -35 35 -29 14 5 15 9 5 21 -13 16 -40 21 -40 8z"/>
<path d="M1839 6397 c-36 -23 -105 -64 -152 -92 -47 -27 -86 -54 -87 -59 0 -4
10 -2 23 6 12 8 54 32 92 53 81 45 205 124 205 130 0 11 -19 2 -81 -38z"/>
<path d="M3240 6426 c0 -2 9 -6 20 -9 11 -3 18 -1 14 4 -5 9 -34 13 -34 5z"/>
<path d="M3040 6415 c0 -9 237 -105 261 -105 6 0 7 5 4 10 -3 6 -14 10 -23 10
-9 0 -66 20 -127 45 -118 48 -115 47 -115 40z"/>
<path d="M2270 6395 c0 -21 30 -31 41 -14 13 21 11 24 -16 27 -17 1 -25 -3
-25 -13z"/>
<path d="M3290 6406 c0 -2 7 -7 16 -10 8 -3 12 -2 9 4 -6 10 -25 14 -25 6z"/>
<path d="M2386 6386 c3 -9 11 -16 16 -16 13 0 5 23 -10 28 -7 2 -10 -2 -6 -12z"/>
<path d="M7337 6380 c3 -11 8 -18 12 -15 4 2 20 -9 35 -26 46 -48 63 -35 20
16 -38 47 -76 61 -67 25z"/>
<path d="M7753 6390 c-13 -5 -23 -12 -23 -15 0 -10 27 -5 46 10 21 16 11 18
-23 5z"/>
<path d="M2680 6383 c1 -18 19 -35 29 -28 9 5 9 10 0 21 -12 15 -29 19 -29 7z"/>
<path d="M7532 6378 c2 -6 10 -14 16 -16 7 -2 10 2 6 12 -7 18 -28 22 -22 4z"/>
<path d="M3074 6342 c12 -19 284 -138 294 -128 4 5 -106 56 -119 56 -5 0 -37
14 -70 31 -72 36 -112 52 -105 41z"/>
<path d="M1747 6214 c-98 -59 -176 -109 -173 -111 5 -6 37 12 201 110 102 61
167 106 155 107 -3 0 -85 -48 -183 -106z"/>
<path d="M3031 6305 c3 -2 54 -24 114 -49 61 -24 136 -56 168 -70 32 -15 56
-23 54 -19 -4 7 -50 31 -140 75 -72 35 -213 81 -196 63z"/>
<path d="M2156 6291 c-3 -5 3 -11 14 -14 13 -3 20 0 20 9 0 15 -26 19 -34 5z"/>
<path d="M7350 6290 c0 -6 4 -9 9 -6 4 3 25 -4 47 -14 45 -23 44 -23 44 -10 0
11 -29 24 -75 36 -16 4 -25 2 -25 -6z"/>
<path d="M7580 6289 c0 -5 5 -7 10 -4 6 3 10 8 10 11 0 2 -4 4 -10 4 -5 0 -10
-5 -10 -11z"/>
<path d="M7752 6268 c3 -7 15 -14 29 -16 24 -4 24 -3 4 12 -24 19 -38 20 -33
4z"/>
<path d="M1815 6187 c-60 -40 -130 -84 -155 -99 -25 -15 -40 -27 -34 -28 17 0
314 185 314 196 0 11 -25 -3 -125 -69z"/>
<path d="M2726 6252 c-8 -14 19 -41 34 -32 11 7 11 11 1 24 -15 17 -27 20 -35
8z"/>
<path d="M7590 6245 c-8 -9 -8 -15 -2 -15 12 0 26 19 19 26 -2 2 -10 -2 -17
-11z"/>
<path d="M2456 6233 c-9 -22 20 -51 35 -36 8 8 7 17 -3 32 -16 25 -24 26 -32
4z"/>
<path d="M7380 6240 c0 -15 100 -31 118 -19 15 9 15 10 -2 5 -10 -4 -24 -2
-30 2 -16 13 -86 22 -86 12z"/>
<path d="M3060 6219 c50 -34 278 -134 287 -125 2 1 -21 14 -49 28 -29 13 -92
43 -141 66 -82 39 -132 56 -97 31z"/>
<path d="M7386 6181 c6 -6 35 -14 65 -16 l54 -4 -44 9 c-23 5 -53 12 -65 16
-15 5 -18 3 -10 -5z"/>
<path d="M7791 6179 c-18 -6 -31 -13 -28 -16 8 -8 67 7 67 18 0 5 -1 9 -2 8
-2 0 -18 -5 -37 -10z"/>
<path d="M3020 6173 c0 -11 20 -21 153 -74 53 -21 139 -59 190 -84 50 -25 83
-39 72 -30 -29 23 -225 120 -313 156 -43 16 -83 33 -89 36 -7 3 -13 1 -13 -4z"/>
<path d="M7614 6170 c-25 -10 -29 -15 -38 -52 -4 -17 -2 -28 4 -28 5 0 12 11
16 25 3 14 16 32 27 40 25 18 20 26 -9 15z"/>
<path d="M2287 6134 c-11 -11 -8 -42 3 -49 14 -9 40 13 40 34 0 13 -2 13 -9 2
-7 -11 -10 -10 -18 3 -5 9 -12 13 -16 10z"/>
<path d="M7390 6120 c0 -10 56 -30 84 -30 12 0 30 7 40 15 23 17 14 20 -15 4
-15 -8 -32 -7 -65 5 -24 8 -44 11 -44 6z"/>
<path d="M3055 6102 c45 -28 305 -162 313 -162 4 0 -10 11 -30 25 -20 14 -41
25 -47 25 -5 0 -11 3 -13 8 -1 4 -56 33 -120 65 -116 57 -160 74 -103 39z"/>
<path d="M1825 6045 c-125 -89 -215 -156 -222 -168 -9 -15 -7 -13 230 156 33
23 66 47 75 54 10 6 15 14 12 16 -3 3 -46 -23 -95 -58z"/>
<path d="M7760 6101 c0 -11 25 -21 53 -21 12 0 17 4 12 9 -15 13 -65 23 -65
12z"/>
<path d="M2163 6089 c-7 -7 -13 -24 -13 -38 0 -23 1 -24 16 -9 9 8 14 25 12
37 -2 18 -5 20 -15 10z"/>
<path d="M2490 6085 c0 -16 27 -32 37 -21 7 7 -16 36 -28 36 -5 0 -9 -7 -9
-15z"/>
<path d="M2820 6079 c0 -22 11 -24 28 -7 17 17 15 24 -8 25 -14 1 -20 -4 -20
-18z"/>
<path d="M3374 6075 c11 -8 27 -15 35 -15 10 1 7 6 -9 15 -33 19 -50 18 -26 0z"/>
<path d="M3020 6061 c14 -11 41 -26 60 -32 19 -6 99 -44 177 -84 78 -39 140
-68 137 -64 -7 12 -216 126 -269 147 -27 11 -68 28 -90 37 l-40 16 25 -20z"/>
<path d="M7593 6045 c-9 -24 1 -27 15 -5 8 13 8 20 2 20 -6 0 -13 -7 -17 -15z"/>
<path d="M2690 6023 c0 -42 15 -60 34 -44 20 17 21 35 1 27 -11 -4 -15 1 -15
19 0 14 -4 25 -10 25 -5 0 -10 -12 -10 -27z"/>
<path d="M7284 6038 c-4 -6 -3 -8 3 -5 6 4 18 -2 28 -13 10 -11 21 -17 26 -14
9 5 -26 44 -40 44 -6 0 -13 -5 -17 -12z"/>
<path d="M7395 6043 c15 -16 78 -24 95 -13 11 7 6 10 -20 10 -19 0 -46 3 -60
6 -17 5 -22 3 -15 -3z"/>
<path d="M1895 6012 c-22 -14 -73 -51 -114 -82 -40 -30 -93 -69 -116 -87 -42
-31 -63 -53 -50 -53 3 0 43 28 88 63 45 35 119 89 165 121 45 32 82 60 82 62
0 9 -17 2 -55 -24z"/>
<path d="M3000 6016 c0 -10 146 -93 268 -152 75 -36 154 -75 174 -85 20 -10
43 -19 50 -19 7 0 -70 42 -172 93 -184 93 -247 127 -285 153 -19 14 -35 18
-35 10z"/>
<path d="M7610 5995 c-14 -16 -10 -18 14 -9 9 3 16 10 16 15 0 14 -16 11 -30
-6z"/>
<path d="M2440 5963 c-1 -27 -1 -27 -16 -8 -12 16 -16 17 -23 6 -9 -14 6 -51
21 -51 27 0 50 61 28 75 -6 4 -10 -6 -10 -22z"/>
<path d="M7425 5970 c11 -5 31 -8 45 -8 l25 0 -25 8 c-14 4 -34 8 -45 8 l-20
1 20 -9z"/>
<path d="M1955 5954 c-11 -9 -47 -31 -80 -51 -69 -40 -277 -194 -271 -201 2
-2 57 35 122 83 65 47 146 102 180 121 58 33 97 64 78 64 -5 0 -18 -8 -29 -16z"/>
<path d="M7270 5955 c0 -11 11 -15 38 -15 l37 1 -25 14 c-33 19 -50 19 -50 0z"/>
<path d="M2220 5940 c0 -5 -8 -10 -17 -10 -13 0 -14 -3 -6 -11 7 -7 19 -9 27
-6 17 7 22 37 6 37 -5 0 -10 -4 -10 -10z"/>
<path d="M2980 5946 c0 -4 184 -107 225 -125 101 -45 185 -80 185 -76 0 2 -27
18 -61 35 -116 59 -274 143 -294 156 -18 13 -55 19 -55 10z"/>
<path d="M2547 5919 c-3 -12 -10 -18 -16 -14 -6 3 -15 4 -21 0 -13 -8 -1 -35
16 -35 15 0 44 38 44 57 0 21 -17 15 -23 -8z"/>
<path d="M2830 5927 c0 -8 -7 -20 -15 -27 -10 -9 -15 -9 -15 -1 0 6 -4 11 -10
11 -15 0 -12 -27 4 -33 21 -8 65 46 46 58 -5 3 -10 0 -10 -8z"/>
<path d="M3410 5926 c0 -2 7 -7 16 -10 8 -3 12 -2 9 4 -6 10 -25 14 -25 6z"/>
<path d="M7435 5910 c3 -6 20 -10 37 -10 38 0 34 5 -10 13 -21 4 -31 3 -27 -3z"/>
<path d="M7629 5901 c-35 -28 -20 -31 26 -5 31 18 35 24 19 24 -12 0 -32 -9
-45 -19z"/>
<path d="M3457 5899 c7 -7 15 -10 18 -7 3 3 -2 9 -12 12 -14 6 -15 5 -6 -5z"/>
<path d="M7250 5866 c0 -18 30 -36 59 -36 39 0 21 18 -46 47 -7 3 -13 -2 -13
-11z"/>
<path d="M1904 5832 c-51 -31 -204 -138 -268 -187 -11 -8 -18 -17 -15 -19 2
-3 27 12 54 33 28 21 108 77 180 125 131 87 161 117 49 48z"/>
<path d="M2986 5861 c22 -20 465 -234 471 -227 6 6 -451 236 -469 236 -7 0 -8
-3 -2 -9z"/>
<path d="M7417 5853 c-4 -3 3 -13 15 -22 24 -16 108 -24 108 -9 0 4 -19 8 -42
8 -23 0 -49 7 -58 15 -9 8 -20 12 -23 8z"/>
<path d="M3474 5831 c7 -11 46 -35 46 -28 0 3 -12 12 -26 22 -15 9 -23 12 -20
6z"/>
<path d="M7683 5818 c-13 -6 -23 -15 -23 -20 0 -5 14 -2 30 7 45 23 38 35 -7
13z"/>
<path d="M2224 5787 c5 -28 3 -38 -11 -46 -15 -9 -16 -10 -2 -11 43 -1 66 81
25 88 -16 4 -18 0 -12 -31z"/>
<path d="M2656 5813 c-12 -12 -6 -44 9 -49 17 -7 48 14 40 27 -3 4 -13 5 -22
2 -10 -4 -14 -2 -9 5 7 12 -8 25 -18 15z"/>
<path d="M2945 5800 c-3 -5 75 -48 172 -95 98 -48 192 -94 208 -103 28 -15 29
-15 17 1 -8 9 -23 19 -35 23 -11 3 -96 46 -189 94 -92 48 -170 84 -173 80z"/>
<path d="M1965 5791 c-6 -6 -80 -53 -165 -107 -174 -109 -165 -102 -158 -109
3 -3 24 9 47 26 24 17 49 28 57 25 8 -3 13 -2 10 3 -6 9 40 42 162 116 34 21
62 42 62 46 0 11 -4 11 -15 0z"/>
<path d="M1998 5749 c-20 -10 -40 -24 -44 -30 -4 -7 13 -1 37 12 55 30 53 28
48 33 -2 2 -21 -4 -41 -15z"/>
<path d="M7241 5763 c1 -18 60 -55 77 -48 14 5 9 11 -23 31 -42 25 -55 29 -54
17z"/>
<path d="M7450 5759 c0 -4 16 -9 35 -11 19 -2 35 -1 35 3 0 4 -16 9 -35 11
-19 2 -35 1 -35 -3z"/>
<path d="M2430 5751 c0 -12 26 -32 33 -25 9 10 -4 34 -19 34 -8 0 -14 -4 -14
-9z"/>
<path d="M2920 5736 c15 -14 273 -146 286 -146 3 0 40 -16 82 -35 41 -20 77
-33 80 -31 3 3 -8 10 -23 16 -16 6 -118 56 -227 110 -109 55 -201 100 -205
100 -4 0 -1 -6 7 -14z"/>
<path d="M7665 5740 l-30 -8 33 -1 c17 0 32 4 32 9 0 6 -1 9 -2 9 -2 -1 -16
-5 -33 -9z"/>
<path d="M2027 5719 c-22 -11 -37 -23 -34 -25 5 -5 77 35 77 42 0 6 -1 5 -43
-17z"/>
<path d="M3405 5730 c3 -5 11 -10 16 -10 6 0 7 5 4 10 -3 6 -11 10 -16 10 -6
0 -7 -4 -4 -10z"/>
<path d="M3454 5706 c11 -9 24 -16 30 -16 12 0 7 5 -24 19 -24 11 -24 11 -6
-3z"/>
<path d="M2776 5695 c4 -8 13 -15 21 -15 13 0 13 3 3 15 -7 8 -16 15 -21 15
-5 0 -6 -7 -3 -15z"/>
<path d="M7490 5694 c0 -8 4 -14 9 -14 5 0 16 -3 25 -6 26 -10 18 10 -9 23
-20 9 -25 8 -25 -3z"/>
<path d="M2010 5662 c-30 -21 -88 -57 -127 -81 -40 -24 -73 -45 -73 -48 0 -6
123 64 210 119 41 26 68 48 60 47 -8 0 -40 -17 -70 -37z"/>
<path d="M2600 5683 c0 -10 -4 -24 -9 -32 -8 -12 -12 -12 -24 -2 -22 17 -34
-6 -14 -26 14 -14 18 -13 41 10 26 26 35 67 16 67 -5 0 -10 -8 -10 -17z"/>
<path d="M7745 5691 c-6 -5 -26 -14 -45 -19 -29 -9 -31 -10 -10 -11 14 0 39 8
55 19 17 11 25 20 20 20 -6 0 -15 -4 -20 -9z"/>
<path d="M2909 5667 c6 -8 83 -51 171 -96 88 -45 174 -94 190 -108 17 -14 33
-24 35 -21 7 7 -83 73 -145 106 -86 47 -253 132 -258 132 -2 0 1 -6 7 -13z"/>
<path d="M1930 5660 c-9 -6 -10 -10 -3 -10 6 0 15 5 18 10 8 12 4 12 -15 0z"/>
<path d="M2020 5607 c-42 -29 -133 -88 -203 -132 -70 -44 -127 -83 -127 -87 0
-11 31 3 80 36 50 34 48 33 151 95 72 43 189 128 189 137 0 10 -19 -1 -90 -49z"/>
<path d="M2343 5625 c2 -25 6 -30 27 -30 18 0 26 6 28 23 2 12 -1 22 -7 22 -6
0 -11 -7 -11 -15 0 -24 -28 -17 -33 8 -4 15 -5 12 -4 -8z"/>
<path d="M2726 5603 c-3 -3 -3 -10 0 -14 7 -12 44 -12 44 0 0 10 -36 21 -44
14z"/>
<path d="M1757 5576 c-4 -10 -1 -13 8 -9 8 3 12 9 9 14 -7 12 -11 11 -17 -5z"/>
<path d="M2690 5540 c0 -11 5 -20 10 -20 6 0 10 9 10 20 0 11 -4 20 -10 20 -5
0 -10 -9 -10 -20z"/>
<path d="M1680 5539 c0 -5 5 -7 10 -4 6 3 10 8 10 11 0 2 -4 4 -10 4 -5 0 -10
-5 -10 -11z"/>
<path d="M7139 5533 c-13 -16 -12 -17 4 -4 16 13 21 21 13 21 -2 0 -10 -8 -17
-17z"/>
<path d="M7162 5509 c-18 -21 -30 -44 -27 -49 4 -6 1 -19 -7 -28 -12 -15 -11
-16 5 -3 11 9 15 21 11 33 -4 15 -1 19 13 16 11 -2 17 2 15 11 -2 7 5 22 14
32 10 11 15 21 13 23 -2 3 -19 -13 -37 -35z"/>
<path d="M2466 5495 c-4 -11 -13 -14 -25 -10 -24 7 -36 -9 -17 -24 18 -15 44
-4 52 21 7 24 -1 35 -10 13z"/>
<path d="M7096 5476 c-26 -35 -33 -52 -17 -42 10 6 53 76 47 76 -2 0 -15 -15
-30 -34z"/>
<path d="M1690 5470 c-9 -6 -10 -10 -3 -10 6 0 15 5 18 10 8 12 4 12 -15 0z"/>
<path d="M1955 5423 c-43 -39 -44 -41 -9 -15 37 28 72 63 63 62 -2 -1 -26 -21
-54 -47z"/>
<path d="M2618 5455 c-7 -8 14 -55 25 -55 9 0 -1 40 -12 53 -4 4 -10 5 -13 2z"/>
<path d="M6009 5399 c-17 -106 -35 -245 -32 -249 2 -2 8 1 12 8 10 17 34 232
27 239 -3 4 -6 4 -7 2z"/>
<path d="M7116 5374 c-10 -14 -16 -28 -13 -30 2 -3 12 7 21 22 10 14 16 28 13
30 -2 3 -12 -7 -21 -22z"/>
<path d="M2510 5376 c0 -9 7 -19 15 -23 25 -9 27 2 5 22 -18 17 -20 17 -20 1z"/>
<path d="M1879 5363 c-13 -16 -12 -17 4 -4 9 7 17 15 17 17 0 8 -8 3 -21 -13z"/>
<path d="M2620 5371 c0 -6 5 -13 10 -16 6 -4 10 -14 9 -23 -4 -27 10 -56 37
-75 28 -21 43 -17 21 5 -8 8 -25 38 -37 66 -20 47 -40 68 -40 43z"/>
<path d="M7145 5354 c-9 -14 -15 -27 -13 -30 2 -2 12 10 22 26 21 37 15 40 -9
4z"/>
<path d="M7150 5309 c0 -6 -10 -25 -22 -42 -12 -18 -16 -27 -8 -20 22 17 53
73 41 73 -6 0 -11 -5 -11 -11z"/>
<path d="M2532 5249 c2 -7 10 -15 17 -17 8 -3 12 1 9 9 -2 7 -10 15 -17 17 -8
3 -12 -1 -9 -9z"/>
<path d="M7158 5218 c-10 -23 -16 -43 -14 -46 7 -7 37 58 34 73 -2 8 -11 -4
-20 -27z"/>
<path d="M2660 5232 c0 -5 6 -15 14 -22 8 -6 13 -17 10 -24 -2 -6 8 -21 23
-32 42 -30 61 -39 34 -14 -15 12 -21 24 -15 28 6 4 -7 22 -28 41 -21 18 -38
29 -38 23z"/>
<path d="M2575 5209 c-4 -6 -5 -12 -2 -15 2 -3 7 2 10 11 7 17 1 20 -8 4z"/>
<path d="M7186 5174 c-4 -9 -4 -19 -1 -22 2 -3 7 3 11 12 4 9 4 19 1 22 -2 3
-7 -3 -11 -12z"/>
<path d="M7293 5102 c10 -99 35 -212 54 -242 10 -15 18 -20 21 -12 2 7 -1 18
-7 25 -11 14 -31 84 -36 128 -1 15 -6 36 -9 47 -4 11 -7 41 -8 66 0 26 -5 49
-11 53 -7 4 -8 -17 -4 -65z"/>
<path d="M2700 5121 c0 -11 48 -47 54 -40 2 2 -10 14 -25 27 -16 13 -29 19
-29 13z"/>
<path d="M7200 5106 c0 -9 5 -16 10 -16 6 0 10 4 10 9 0 6 -4 13 -10 16 -5 3
-10 -1 -10 -9z"/>
<path d="M2730 5051 c19 -16 37 -27 40 -25 5 6 -52 53 -65 54 -5 0 6 -13 25
-29z"/>
<path d="M5944 5028 c-4 -7 -11 -30 -15 -53 -4 -22 -17 -71 -28 -110 -24 -83
-25 -97 -6 -71 25 33 78 233 64 241 -4 3 -11 0 -15 -7z"/>
<path d="M2725 5000 c10 -11 25 -20 33 -20 9 0 6 7 -11 20 -14 11 -29 20 -33
20 -4 0 1 -9 11 -20z"/>
<path d="M2713 4966 c3 -8 2 -16 -4 -18 -5 -2 3 -20 18 -41 14 -20 28 -35 31
-33 2 3 -6 19 -18 36 -26 36 -19 52 10 25 29 -26 25 -11 -5 20 -29 28 -40 32
-32 11z"/>
<path d="M2722 4849 c12 -22 24 -36 26 -30 5 14 -26 71 -39 71 -6 0 0 -18 13
-41z"/>
<path d="M2710 4810 c1 -8 8 -26 16 -40 l15 -25 -6 30 c-7 33 -25 59 -25 35z"/>
<path d="M2700 4760 c0 -26 12 -60 21 -60 14 0 10 34 -6 56 -11 14 -14 15 -15
4z"/>
<path d="M5851 4703 c-6 -21 -24 -66 -38 -101 -23 -57 -25 -89 -4 -66 10 11
71 175 71 192 0 25 -17 10 -29 -25z"/>
<path d="M7400 4716 c0 -31 55 -173 76 -195 20 -22 29 -5 11 22 -12 19 -13 27
-4 37 8 9 8 11 1 7 -16 -9 -41 32 -56 90 -14 58 -28 77 -28 39z"/>
<path d="M2680 4686 c0 -19 5 -38 10 -41 6 -4 10 8 10 29 0 19 -4 38 -10 41
-6 4 -10 -8 -10 -29z"/>
<path d="M2660 4640 c0 -18 -5 -29 -12 -27 -7 1 -19 -11 -28 -28 -25 -48 -52
-85 -61 -85 -12 0 -131 -91 -126 -97 7 -6 97 57 97 69 0 5 6 8 14 5 14 -6 76
56 76 76 0 7 4 6 9 -2 8 -12 11 -9 16 12 4 15 11 24 16 21 5 -3 9 15 9 40 0
25 -2 46 -5 46 -3 0 -5 -13 -5 -30z"/>
<path d="M6286 4619 c-8 -44 -8 -61 3 -55 11 7 20 76 10 81 -3 3 -9 -9 -13
-26z"/>
<path d="M5770 4504 c0 -8 5 -12 10 -9 6 4 8 11 5 16 -9 14 -15 11 -15 -7z"/>
<path d="M6252 4458 c-11 -72 -11 -108 0 -108 4 0 8 3 8 8 1 4 3 42 6 85 3 42
3 77 1 77 -3 0 -9 -28 -15 -62z"/>
<path d="M7490 4476 c0 -16 38 -105 52 -123 14 -18 29 -5 19 15 -5 9 -12 24
-15 32 -3 8 -12 23 -18 34 -11 15 -11 19 0 23 10 4 10 8 1 19 -15 18 -39 18
-39 0z"/>
<path d="M5726 4431 c-4 -7 -5 -15 -2 -18 9 -9 19 4 14 18 -4 11 -6 11 -12 0z"/>
<path d="M2340 4359 c-36 -21 -67 -46 -69 -56 -2 -13 2 -12 25 6 16 12 51 38
79 57 67 46 46 42 -35 -7z"/>
<path d="M5673 4347 c-23 -30 -59 -65 -80 -78 -38 -23 -55 -40 -48 -47 17 -17
181 144 173 169 -2 6 -22 -13 -45 -44z"/>
<path d="M7580 4284 c0 -3 9 -19 21 -35 26 -38 18 -65 -27 -81 -21 -7 -30 -16
-24 -22 12 -12 76 36 85 64 4 12 -2 30 -16 50 -21 27 -39 39 -39 24z"/>
<path d="M2190 4238 c-22 -36 -25 -48 -12 -48 5 0 18 18 31 40 27 48 9 54 -19
8z"/>
<path d="M7470 4217 c0 -8 7 -20 15 -27 12 -10 15 -10 15 3 0 8 -7 20 -15 27
-12 10 -15 10 -15 -3z"/>
<path d="M2130 4159 c-7 -11 -9 -24 -5 -27 7 -7 35 25 35 40 0 16 -19 8 -30
-13z"/>
<path d="M5510 4175 c0 -20 33 -63 52 -69 33 -8 48 -7 48 4 0 6 -7 10 -16 10
-8 0 -29 14 -46 30 -29 30 -38 35 -38 25z"/>
<path d="M5710 4160 c-8 -5 -23 -11 -32 -14 -19 -6 -25 -26 -9 -26 6 0 23 11
38 25 29 25 30 31 3 15z"/>
<path d="M7360 4102 c0 -46 19 -55 74 -35 46 17 66 41 24 29 -69 -19 -78 -19
-78 2 0 12 -4 24 -10 27 -6 4 -10 -6 -10 -23z"/>
<path d="M2090 4099 c-13 -24 -4 -41 10 -19 10 16 13 40 5 40 -2 0 -9 -9 -15
-21z"/>
<path d="M5850 4085 c-13 -14 -21 -27 -18 -30 2 -3 15 6 28 20 13 14 21 27 18
30 -2 3 -15 -6 -28 -20z"/>
<path d="M5710 4085 c0 -15 54 -45 82 -45 15 0 4 10 -44 39 -33 19 -38 20 -38
6z"/>
<path d="M7220 4070 c0 -6 12 -15 26 -20 36 -14 84 -12 84 3 0 8 -13 12 -35
12 -20 -1 -38 2 -41 7 -7 12 -34 10 -34 -2z"/>
<path d="M5896 4056 c7 -18 66 -32 86 -20 9 6 4 10 -17 15 -17 4 -40 11 -53
14 -18 6 -21 4 -16 -9z"/>
<path d="M2062 4048 c-12 -15 -27 -68 -19 -68 9 0 40 70 35 76 -3 2 -10 -1
-16 -8z"/>
<path d="M7540 4001 c0 -5 4 -12 10 -16 5 -3 6 -13 3 -23 -5 -13 -3 -14 6 -6
15 14 11 46 -6 52 -7 2 -13 -1 -13 -7z"/>
<path d="M7440 3990 c-18 -6 -9 -8 28 -5 30 2 57 6 60 9 8 9 -59 5 -88 -4z"/>
<path d="M2026 3962 c-14 -23 -35 -139 -30 -173 9 -75 28 -159 36 -159 4 0 8
-14 8 -30 0 -18 6 -33 15 -36 8 -3 17 -14 20 -25 4 -10 12 -19 20 -19 7 0 16
-14 20 -31 4 -19 15 -33 26 -36 10 -3 19 -12 19 -19 0 -8 5 -14 10 -14 13 0
12 27 -4 69 -10 27 -14 32 -22 20 -6 -10 -11 0 -15 36 -5 40 -8 46 -14 28 -12
-37 -27 -26 -23 17 4 41 -16 58 -25 23 -3 -10 -5 1 -6 25 0 23 -6 42 -12 42
-7 0 -9 15 -5 43 3 23 3 36 0 30 -11 -24 -21 -13 -18 18 2 17 6 34 9 39 3 5 0
10 -6 12 -8 3 -8 18 1 59 13 59 11 104 -4 81z"/>
<path d="M7804 3934 c-4 -22 -2 -40 5 -47 8 -8 11 1 11 36 0 56 -7 61 -16 11z"/>
<path d="M7600 3953 c0 -5 5 -15 10 -23 8 -12 10 -11 10 8 0 12 -4 22 -10 22
-5 0 -10 -3 -10 -7z"/>
<path d="M7480 3923 c0 -24 39 -97 48 -89 2 3 -1 19 -8 35 -6 16 -9 35 -4 42
4 7 3 10 -4 5 -6 -3 -15 2 -21 11 -9 16 -10 16 -11 -4z"/>
<path d="M7642 3920 c-7 -11 -15 -19 -20 -17 -4 1 -8 -1 -9 -5 -6 -18 -2 -20
13 -7 14 11 18 11 29 -4 8 -11 26 -17 49 -17 34 0 36 2 26 20 -12 22 -36 27
-43 8 -3 -8 -9 -1 -16 15 -13 32 -13 32 -29 7z"/>
<path d="M7846 3925 c-6 -16 31 -61 42 -51 3 4 0 12 -6 18 -7 7 -12 20 -12 30
0 22 -16 24 -24 3z"/>
<path d="M7898 3914 c3 -17 8 -22 15 -15 11 11 3 41 -11 41 -5 0 -7 -12 -4
-26z"/>
<path d="M7545 3890 c-3 -5 -1 -10 4 -10 6 0 11 5 11 10 0 6 -2 10 -4 10 -3 0
-8 -4 -11 -10z"/>
<path d="M7935 3881 c-3 -5 -1 -12 5 -16 5 -3 10 1 10 9 0 18 -6 21 -15 7z"/>
<path d="M7462 3858 c-14 -14 -16 -28 -3 -28 9 0 24 30 18 36 -2 2 -9 -2 -15
-8z"/>
<path d="M2193 3446 c6 -40 22 -65 33 -53 7 7 -14 66 -29 82 -6 6 -8 -4 -4
-29z"/>
<path d="M2237 3443 c-8 -7 11 -43 22 -43 10 0 3 38 -9 45 -4 2 -10 2 -13 -2z"/>
<path d="M2280 3417 c0 -8 7 -20 15 -27 12 -10 15 -10 15 3 0 8 -7 20 -15 27
-12 10 -15 10 -15 -3z"/>
<path d="M2326 3392 c-7 -11 31 -48 41 -38 4 3 -2 16 -14 27 -11 12 -23 17
-27 11z"/>
<path d="M2392 3339 c2 -7 10 -15 17 -17 8 -3 12 1 9 9 -2 7 -10 15 -17 17 -8
3 -12 -1 -9 -9z"/>
<path d="M2450 3308 c0 -9 5 -20 10 -23 13 -8 13 5 0 25 -8 13 -10 13 -10 -2z"/>
<path d="M2520 3276 c0 -9 7 -19 15 -23 25 -9 27 2 5 22 -18 17 -20 17 -20 1z"/>
<path d="M2565 3220 c3 -5 11 -10 16 -10 6 0 7 5 4 10 -3 6 -11 10 -16 10 -6
0 -7 -4 -4 -10z"/>
<path d="M2600 3155 c0 -15 4 -24 10 -20 6 3 10 12 10 20 0 8 -4 17 -10 20 -6
4 -10 -5 -10 -20z"/>
<path d="M2565 2780 c3 -5 8 -10 11 -10 2 0 4 5 4 10 0 6 -5 10 -11 10 -5 0
-7 -4 -4 -10z"/>
<path d="M2220 2712 c0 -14 33 -39 60 -47 22 -6 21 -4 -10 24 -36 31 -50 37
-50 23z"/>
<path d="M2491 2704 c0 -11 3 -14 6 -6 3 7 2 16 -1 19 -3 4 -6 -2 -5 -13z"/>
<path d="M2140 2686 c0 -7 92 -47 97 -42 8 7 -59 46 -79 46 -10 0 -18 -2 -18
-4z"/>
<path d="M8154 1216 l-28 -23 22 -37 c48 -82 62 -195 63 -514 l0 -213 25 -9
c38 -15 70 3 85 47 13 39 15 201 3 304 -7 65 -4 66 70 63 62 -2 79 -21 69 -78
-14 -77 -9 -311 6 -329 16 -20 50 -22 74 -4 16 11 18 38 21 227 5 288 0 296
-162 286 -79 -5 -83 -4 -99 20 -14 22 -30 130 -32 217 -1 34 -33 67 -65 67
-14 0 -37 -11 -52 -24z m85 -18 c4 -13 11 -63 15 -112 5 -65 13 -101 29 -130
l22 -41 101 3 c144 5 138 15 139 -246 0 -114 -1 -213 -3 -219 -6 -20 -30 -15
-43 9 -12 22 -16 160 -10 291 2 41 -2 66 -14 83 -15 23 -21 25 -93 22 l-77 -3
1 -95 c0 -52 2 -133 3 -180 4 -95 -15 -154 -47 -148 -15 3 -18 31 -23 278 -7
292 -15 358 -49 438 -24 56 -21 72 16 72 16 0 27 -7 33 -22z"/>
<path d="M4766 1156 c-4 -30 -4 -70 -1 -89 l7 -35 101 -4 c56 -2 108 -7 115
-11 9 -6 12 -71 12 -269 -1 -291 -2 -286 66 -294 31 -4 45 0 67 18 l28 23 -1
202 c0 111 -3 209 -6 218 -4 8 -3 41 1 71 l7 57 64 -6 c86 -6 109 11 108 78
-2 73 -12 78 -161 80 -70 1 -135 3 -143 3 -8 1 -63 0 -122 -3 -64 -3 -110 0
-113 5 -13 22 -23 7 -29 -44z m299 12 c250 0 245 1 245 -67 0 -40 -20 -49 -94
-44 -97 8 -94 23 -87 -371 3 -176 2 -190 -15 -203 -19 -14 -60 -10 -77 7 -5 4
-8 121 -8 260 1 150 -3 259 -9 270 -11 21 -46 30 -150 39 l-75 6 -3 44 c-4 57
3 74 28 66 10 -3 121 -6 245 -7z"/>
<path d="M7085 1201 c-6 -5 -21 -11 -35 -13 l-25 -3 27 -25 c52 -49 62 -115
63 -412 l0 -268 25 -24 c18 -19 39 -27 80 -30 30 -3 63 -3 73 0 18 6 23 39 8
49 -6 3 -24 26 -41 51 -29 43 -30 51 -30 142 -1 53 4 124 10 157 20 121 8 264
-29 333 -21 40 -101 67 -126 43z m81 -36 c47 -32 57 -152 39 -463 -8 -138 5
-196 51 -226 38 -26 30 -39 -18 -31 -25 4 -54 17 -68 31 l-25 24 -1 268 c-1
268 -7 330 -40 376 -8 11 -14 24 -14 28 0 14 55 9 76 -7z"/>
<path d="M9451 1189 c-22 -18 -23 -20 -7 -38 10 -11 24 -40 31 -64 17 -58 29
-377 18 -477 -12 -102 -1 -165 33 -201 16 -17 38 -29 52 -29 l25 0 -27 25
c-15 14 -31 25 -35 25 -11 0 -32 69 -32 105 0 73 10 226 15 234 6 10 -1 201
-10 271 -3 25 -12 60 -19 78 -17 39 -3 42 23 5 23 -33 42 -95 42 -139 0 -52
19 -58 85 -29 62 28 62 28 65 5 5 -31 -1 -38 -45 -59 -73 -34 -89 -76 -101
-264 -7 -113 -1 -142 38 -199 12 -18 17 -36 13 -49 -7 -20 -6 -20 23 -5 39 20
47 43 18 50 -29 7 -46 45 -46 101 0 25 -3 45 -7 45 -5 0 -8 19 -8 43 0 23 -4
58 -8 77 -6 27 -6 32 3 20 9 -12 10 -7 5 22 -3 21 0 56 6 79 11 35 20 44 71
70 53 27 58 32 58 62 0 17 -4 39 -10 47 -8 12 -11 12 -27 -3 -24 -21 -91 -49
-102 -43 -5 3 -11 31 -14 63 -5 61 -15 89 -47 138 -11 17 -23 36 -26 43 -9 17
-25 15 -53 -9z"/>
<path d="M5382 1187 c-19 -9 -22 -16 -17 -36 14 -56 17 -265 5 -421 -23 -293
-21 -309 41 -310 61 0 91 70 84 195 -6 101 -8 195 -4 198 2 2 29 1 60 -1 54
-4 57 -5 66 -37 6 -19 9 -86 6 -155 -5 -138 -1 -165 28 -181 52 -27 99 39 99
138 0 106 -22 297 -37 319 -20 31 -71 46 -145 42 l-63 -3 0 104 -1 103 -32 29
c-34 31 -53 34 -90 16z m78 -25 c21 -17 23 -28 24 -118 2 -119 14 -149 56
-140 50 10 130 -5 141 -26 15 -28 27 -115 35 -246 6 -122 -3 -172 -30 -172
-28 0 -36 38 -36 179 0 181 -3 186 -88 194 -95 9 -94 11 -86 -157 8 -173 -2
-226 -44 -226 -53 0 -55 7 -47 131 4 63 9 132 11 154 8 84 3 397 -6 415 -5 9
-6 20 -3 24 12 12 51 6 73 -12z"/>
<path d="M5445 933 c9 -50 25 -66 25 -26 0 38 -9 63 -22 63 -6 0 -8 -14 -3
-37z"/>
<path d="M6301 1189 c-18 -7 -22 -14 -17 -32 26 -104 28 -284 5 -515 -18 -192
-7 -205 175 -206 66 -1 126 -4 133 -9 19 -12 61 14 73 46 13 39 13 49 -4 72
-11 15 -33 20 -119 26 -58 4 -115 13 -127 19 -21 11 -22 17 -16 68 6 47 12 61
41 88 32 29 35 37 35 88 0 51 -2 56 -25 62 -24 6 -25 10 -25 79 0 104 3 105
157 73 46 -10 55 -9 72 6 21 19 35 77 26 105 -4 13 -24 20 -83 29 -91 14 -267
15 -301 1z m346 -31 c18 -15 17 -87 -2 -94 -8 -3 -42 1 -77 8 -73 17 -134 16
-151 -1 -7 -7 -13 -49 -15 -101 l-4 -89 27 -7 c24 -6 26 -10 23 -58 -3 -44 -7
-53 -30 -64 -27 -13 -35 -35 -39 -107 -5 -87 -2 -89 166 -100 100 -7 105 -9
105 -39 0 -50 -3 -52 -118 -49 -141 4 -189 11 -207 29 -18 18 -20 110 -4 224
12 96 12 365 0 408 -18 62 -16 63 157 57 87 -3 162 -11 169 -17z"/>
<path d="M622 1173 c-19 -16 -20 -23 -11 -68 10 -52 33 -80 59 -70 21 9 119
17 128 11 4 -2 4 -49 0 -103 -3 -54 -7 -167 -8 -251 -2 -169 5 -191 57 -209
38 -14 71 0 84 34 8 22 8 134 -1 188 -1 6 -1 78 -1 160 1 83 0 159 -1 170 -2
16 2 19 22 17 55 -7 109 -7 115 0 9 9 27 100 20 106 -2 3 -24 4 -47 4 -24 0
-59 4 -78 8 -19 5 -98 12 -176 15 -126 6 -142 4 -162 -12z m213 -18 c44 -3 94
-7 110 -11 17 -3 49 -5 73 -5 41 1 42 0 36 -27 -10 -42 -13 -44 -64 -37 -30 4
-56 2 -70 -5 -19 -10 -21 -19 -19 -78 1 -37 2 -130 2 -207 0 -77 0 -166 1
-197 1 -63 -11 -83 -43 -73 -28 9 -43 67 -35 141 4 32 7 137 7 233 0 137 -3
175 -14 182 -8 6 -48 7 -90 4 -74 -6 -77 -5 -83 17 -3 13 -6 36 -6 51 l0 28
58 -6 c31 -3 93 -8 137 -10z"/>
<path d="M1128 1166 c-11 -15 -13 -27 -7 -33 9 -9 12 -393 5 -518 -2 -45 14
-129 27 -137 26 -17 67 -8 83 17 13 20 16 51 16 153 0 70 -2 134 -4 141 -4 19
98 23 114 4 8 -9 11 -62 10 -158 -1 -136 0 -145 20 -159 28 -20 64 -3 77 36
10 29 7 205 -5 298 -7 54 -31 98 -59 107 -11 4 -49 7 -84 7 -63 1 -65 2 -73
31 -5 17 -6 64 -2 105 5 67 3 78 -16 103 -28 35 -77 37 -102 3z m80 -18 c8 -8
12 -46 12 -104 0 -51 5 -105 10 -120 10 -26 12 -26 83 -21 39 2 79 1 88 -4 33
-17 49 -85 53 -217 1 -70 -1 -142 -6 -160 -8 -31 -30 -43 -43 -23 -3 5 -7 75
-8 154 -2 104 -7 150 -17 162 -10 12 -28 15 -83 13 l-70 -3 1 -140 c0 -77 -4
-150 -9 -163 -12 -32 -41 -25 -50 12 -6 21 -14 543 -9 619 0 11 35 8 48 -5z"/>
<path d="M2820 1158 c-30 -11 -57 -21 -59 -23 -2 -2 12 -10 31 -18 26 -11 40
-26 54 -58 17 -40 18 -68 17 -294 -2 -234 -1 -253 17 -283 20 -32 22 -33 76
-28 54 4 84 18 84 38 0 5 -9 21 -19 35 -30 37 -34 97 -22 273 16 221 -2 328
-61 357 -42 21 -62 21 -118 1z m94 -19 c56 -26 73 -141 59 -396 -9 -154 -3
-216 23 -244 22 -24 18 -27 -34 -21 -76 8 -86 48 -72 287 3 55 3 144 -1 197
-6 88 -9 100 -37 136 -17 22 -29 42 -25 46 10 10 60 7 87 -5z"/>
<path d="M2038 1163 l-48 -4 18 -27 c15 -23 17 -59 18 -327 1 -165 2 -305 3
-311 2 -20 56 -35 102 -30 24 3 89 1 144 -3 110 -10 127 -4 140 49 10 43 -17
58 -125 65 -52 4 -101 11 -107 17 -8 6 -13 33 -13 64 0 46 3 54 19 54 14 0 20
9 23 35 5 42 -6 65 -32 65 -19 0 -20 8 -20 108 0 59 4 113 9 121 7 11 27 13
99 8 80 -6 91 -5 107 13 26 28 12 73 -28 92 -32 15 -190 21 -309 11z m300 -39
c15 -10 22 -23 20 -37 -3 -21 -7 -22 -99 -18 -127 4 -129 2 -129 -161 l0 -117
28 -3 c21 -2 28 -9 30 -31 3 -22 -1 -30 -17 -34 -11 -3 -22 -13 -25 -22 -8
-29 2 -113 16 -127 7 -7 48 -16 90 -19 43 -4 86 -8 95 -10 10 -2 24 -4 31 -4
7 -1 12 -14 12 -32 l0 -32 -162 7 c-114 4 -164 9 -170 18 -4 7 -7 146 -6 309
0 163 -2 301 -6 307 -17 28 7 33 137 27 93 -4 139 -10 155 -21z"/>
<path d="M8750 960 c-50 -9 -77 -29 -102 -76 -18 -36 -20 -45 -9 -58 18 -21
51 -20 81 4 14 11 33 20 42 20 26 0 58 -31 58 -57 0 -21 -5 -23 -50 -23 -43 0
-55 -5 -89 -36 -81 -73 -97 -239 -29 -311 40 -43 115 -41 169 4 18 15 34 22
37 17 4 -6 23 -20 43 -32 l37 -22 31 26 c38 31 38 43 5 100 -25 42 -26 50 -19
122 15 158 15 194 0 222 -14 26 -79 90 -93 90 -4 0 -23 4 -42 8 -19 5 -51 5
-70 2z m98 -44 c78 -41 96 -99 80 -256 -11 -104 -11 -105 16 -159 15 -29 25
-59 22 -67 -8 -22 -40 -17 -66 11 -29 31 -47 31 -78 2 -18 -17 -35 -22 -75
-21 -45 0 -54 4 -79 34 -25 31 -28 42 -28 105 0 79 23 142 61 169 14 10 43 16
74 16 28 0 56 5 63 12 19 19 14 63 -10 85 -39 35 -64 37 -101 9 -38 -29 -55
-32 -63 -12 -8 20 24 72 50 84 27 12 100 6 134 -12z"/>
<path d="M8836 712 c-3 -5 -20 -12 -38 -16 -50 -10 -105 -51 -112 -84 -8 -34
13 -101 35 -115 24 -15 104 1 132 27 25 23 25 23 10 86 -8 35 -12 68 -9 75 6
16 -10 40 -18 27z m-11 -79 c3 -27 10 -58 15 -70 10 -25 -4 -37 -62 -53 -47
-14 -76 30 -69 105 3 34 35 54 103 64 4 1 10 -20 13 -46z"/>
<path d="M6835 951 c-39 -10 -88 -36 -104 -55 -42 -51 -53 -217 -20 -316 24
-71 95 -154 141 -165 37 -9 146 49 160 84 14 36 -2 77 -28 73 -10 -2 -47 -4
-80 -5 -70 -2 -98 15 -109 64 -9 42 10 62 53 55 42 -6 109 18 140 51 47 51 14
171 -57 208 -32 16 -49 17 -96 6z m110 -51 c17 -14 47 -106 43 -132 -5 -35
-60 -58 -140 -58 l-67 0 -7 -46 c-15 -102 55 -148 184 -119 29 7 32 5 32 -18
0 -28 -50 -77 -80 -77 -26 0 -136 76 -166 115 -47 62 -40 263 12 325 42 50
135 55 189 10z"/>
<path d="M6799 849 c-19 -21 -29 -42 -29 -63 l0 -32 78 2 c96 2 89 0 102 24 8
15 7 27 -5 50 -31 60 -100 69 -146 19z m120 -15 c37 -47 29 -54 -54 -54 -84 0
-95 11 -50 55 33 34 77 33 104 -1z"/>
<path d="M7967 934 c-44 -23 -51 -24 -71 -11 -25 17 -101 16 -119 -2 -8 -8 -5
-11 11 -11 15 0 26 -9 32 -25 11 -29 3 -423 -10 -510 -6 -33 -10 -119 -10
-192 0 -123 1 -134 22 -153 26 -24 37 -25 64 -2 36 29 45 90 42 262 -3 174 0
188 46 170 93 -35 164 26 190 163 26 137 9 237 -50 298 -46 47 -77 50 -147 13z
m89 -4 c24 0 70 -76 84 -139 10 -49 10 -76 0 -143 -24 -152 -60 -192 -151
-169 -47 12 -53 12 -70 -6 -14 -13 -19 -32 -18 -59 0 -21 2 -104 3 -184 1
-128 -1 -149 -18 -175 l-19 -29 -18 23 c-16 20 -19 40 -18 140 0 64 6 184 13
266 7 83 11 221 10 309 -3 151 -2 158 15 142 25 -22 59 -20 106 9 22 14 46 23
53 20 8 -3 20 -5 28 -5z"/>
<path d="M7975 856 l-50 -12 -3 -142 -3 -141 26 -7 c27 -7 118 0 134 10 31 19
37 195 9 251 -10 20 -48 55 -58 54 -3 -1 -27 -7 -55 -13z m85 -57 c15 -28 20
-58 20 -116 0 -43 -4 -83 -8 -89 -11 -18 -66 -26 -95 -15 l-27 10 1 121 0 120
32 8 c43 12 55 6 77 -39z"/>
<path d="M5887 928 c-47 -28 -72 -78 -90 -184 -34 -194 33 -314 176 -314 90 0
139 41 153 127 6 39 4 43 -19 54 -34 15 -53 7 -62 -28 -13 -53 -38 -65 -90
-41 -27 12 -49 69 -43 116 3 26 4 26 86 27 76 0 86 2 103 24 45 56 11 208 -53
230 -50 18 -119 13 -161 -11z m198 -54 c20 -42 20 -137 0 -154 -8 -7 -50 -13
-96 -15 -44 -1 -85 -7 -91 -13 -7 -7 -8 -31 -3 -68 8 -67 33 -98 89 -108 44
-8 60 2 78 50 14 40 38 45 38 8 0 -37 -28 -90 -57 -110 -30 -19 -81 -15 -137
11 -52 25 -88 98 -89 180 0 86 29 196 64 239 26 31 36 35 82 38 63 4 101 -14
122 -58z"/>
<path d="M5962 885 c-32 -14 -82 -78 -82 -107 0 -23 38 -32 107 -25 30 3 56 7
58 9 2 2 6 21 9 42 11 69 -31 106 -92 81z m57 -14 c8 -5 15 -27 15 -53 l1 -43
-54 -3 c-30 -2 -58 1 -64 7 -15 15 11 69 42 86 31 17 41 18 60 6z"/>
<path d="M7502 940 c-39 -9 -60 -27 -99 -83 -27 -39 -28 -45 -28 -161 0 -115
2 -124 30 -181 37 -73 66 -94 138 -102 91 -9 137 22 156 105 11 52 -4 86 -41
90 -26 3 -40 -7 -80 -56 -46 -57 -110 -28 -112 50 l-1 43 76 1 c42 1 86 7 98
13 33 18 51 64 51 130 0 50 -4 65 -26 91 -27 31 -93 71 -116 69 -7 -1 -28 -5
-46 -9z m101 -36 c45 -30 57 -57 57 -128 0 -39 -6 -61 -21 -80 -20 -25 -25
-27 -76 -22 -37 4 -67 0 -91 -9 -34 -15 -35 -16 -28 -63 9 -69 34 -98 82 -94
31 2 46 11 75 43 48 56 74 51 73 -13 0 -68 -24 -98 -77 -98 -126 0 -176 56
-196 220 -8 64 4 180 18 180 4 0 13 11 19 25 14 31 68 65 102 65 14 0 42 -12
63 -26z"/>
<path d="M7513 860 c-12 -5 -32 -28 -43 -51 -18 -34 -20 -46 -11 -67 10 -20
16 -23 39 -17 15 4 50 9 77 12 72 7 87 46 39 102 -27 32 -57 38 -101 21z m92
-46 c21 -51 20 -54 -21 -54 -19 0 -44 -5 -55 -11 -27 -14 -52 6 -43 35 14 47
34 66 69 66 30 0 37 -4 50 -36z"/>
<path d="M8992 941 c-15 -9 -2 -22 31 -34 35 -13 41 -54 39 -274 -1 -208 -1
-213 21 -228 82 -57 118 48 101 292 -6 83 -6 126 1 128 29 9 94 12 105 5 8 -5
11 -32 9 -86 -10 -273 6 -378 52 -353 11 5 27 8 37 5 9 -3 24 -1 32 4 12 7 13
24 3 117 -7 67 -8 130 -3 166 8 56 8 75 -5 164 -11 76 -94 115 -200 96 -52 -9
-153 -10 -185 -1 -14 4 -31 4 -38 -1z m351 -33 c9 -5 25 -21 35 -35 15 -23 17
-53 18 -213 0 -117 4 -195 12 -212 13 -32 4 -41 -33 -32 -45 11 -50 35 -50
230 0 133 -3 185 -13 196 -10 13 -26 15 -75 11 -78 -7 -90 -16 -82 -62 9 -53
9 -300 1 -338 -8 -35 -16 -39 -46 -23 -16 9 -18 27 -19 214 0 114 -5 216 -11
231 -6 15 -9 29 -8 30 2 1 39 6 83 12 84 10 158 6 188 -9z"/>
<path d="M1632 924 c-15 -6 -44 -29 -64 -52 -42 -47 -53 -95 -46 -201 10 -134
68 -204 172 -205 101 -2 175 66 154 141 -4 18 -13 35 -18 38 -6 4 -28 -12 -51
-34 -43 -44 -71 -51 -107 -25 -17 12 -22 25 -22 60 l0 45 85 -2 c94 -3 105 2
123 58 12 36 -1 95 -27 127 -25 29 -108 67 -142 64 -17 -1 -42 -7 -57 -14z
m125 -25 c47 -23 52 -28 70 -79 17 -46 16 -72 -1 -95 -12 -17 -25 -19 -86 -17
-85 4 -110 -11 -110 -65 0 -46 14 -69 48 -81 43 -15 80 -3 109 35 19 25 28 31
34 21 16 -24 9 -67 -14 -94 -19 -22 -34 -28 -80 -32 -77 -6 -136 27 -161 91
-20 52 -24 198 -7 241 13 33 51 66 95 83 43 17 54 16 103 -8z"/>
<path d="M1648 868 c-22 -17 -52 -88 -41 -99 4 -4 42 -11 85 -15 74 -6 76 -6
93 19 9 14 15 34 13 43 -8 42 -115 79 -150 52z m67 -8 c3 -5 15 -10 25 -10 27
0 44 -34 30 -61 -10 -18 -17 -20 -68 -13 -70 8 -74 10 -66 37 14 46 62 75 79
47z"/>
<path d="M2545 928 c-84 -30 -119 -105 -113 -247 4 -109 21 -150 78 -188 77
-53 226 -2 242 82 6 30 -17 85 -35 85 -7 0 -32 -20 -55 -45 -39 -42 -55 -50
-92 -46 -24 3 -50 41 -50 71 0 46 19 57 91 53 77 -5 98 0 127 27 27 25 29 77
6 125 -31 66 -131 107 -199 83z m123 -28 c63 -38 93 -130 56 -171 -13 -14 -28
-16 -92 -12 -67 5 -80 3 -102 -15 -20 -16 -24 -28 -23 -62 3 -56 33 -90 82
-90 28 0 42 8 79 47 42 46 44 47 58 28 19 -26 18 -36 -9 -76 -30 -45 -104 -68
-157 -49 -78 28 -100 73 -100 206 0 149 40 213 135 214 23 0 54 -9 73 -20z"/>
<path d="M2547 842 c-56 -58 -19 -100 76 -87 68 8 77 14 77 46 0 70 -100 96
-153 41z m123 -1 c5 -11 10 -29 10 -40 0 -19 -6 -21 -64 -21 -73 0 -87 13 -55
54 26 33 92 37 109 7z"/>
<path d="M3155 560 c-18 -8 -17 -9 7 -9 29 -1 43 -26 32 -55 -11 -28 -44 -19
-59 17 l-13 32 -7 -28 c-10 -37 10 -59 48 -55 40 4 71 45 62 81 -8 28 -30 34
-70 17z"/>
<path d="M9830 481 c-19 -3 -33 -10 -31 -16 2 -5 12 -9 22 -7 20 3 33 -26 23
-52 -7 -19 11 -22 23 -3 10 16 14 76 5 80 -4 2 -23 1 -42 -2z"/>
<path d="M9762 418 c2 -26 8 -34 27 -36 32 -5 50 14 22 23 -12 3 -21 15 -21
26 0 11 -7 19 -16 19 -11 0 -14 -8 -12 -32z"/>
</g>
</svg>
