<?xml version="1.0" standalone="no"?>
<!DOCTYPE svg PUBLIC "-//W3C//DTD SVG 20010904//EN"
 "http://www.w3.org/TR/2001/REC-SVG-20010904/DTD/svg10.dtd">
<svg version="1.0" xmlns="http://www.w3.org/2000/svg"
 width="1000.000000pt" height="665.000000pt" viewBox="0 0 1000.000000 665.000000"
 preserveAspectRatio="xMidYMid meet">
<metadata>
Created by potrace 1.16, written by Peter Selinger 2001-2019
</metadata>
<g transform="translate(0.000000,665.000000) scale(0.100000,-0.100000)"
fill="#000000" stroke="none">
<path d="M2840 6543 c-31 -12 -58 -51 -114 -163 -31 -63 -65 -124 -75 -135
-34 -39 -79 -138 -97 -216 -13 -54 -16 -155 -5 -222 13 -87 16 -230 6 -276 -6
-27 -5 -33 6 -29 8 2 15 19 17 36 2 18 8 32 14 32 8 0 9 -36 5 -120 -4 -81 -2
-122 5 -126 7 -5 8 -37 4 -98 -3 -50 -9 -134 -12 -186 -3 -52 -12 -120 -20
-151 -8 -31 -14 -70 -14 -85 0 -16 -7 -42 -15 -58 -8 -15 -15 -37 -15 -47 0
-10 -19 -40 -42 -67 -24 -27 -65 -78 -93 -112 -87 -108 -207 -223 -265 -254
-60 -31 -90 -54 -90 -69 0 -5 -9 -22 -21 -38 -11 -16 -36 -66 -53 -111 -36
-86 -40 -91 -138 -128 -71 -27 -124 -84 -154 -165 -12 -33 -31 -80 -43 -105
-11 -25 -21 -51 -21 -57 0 -7 -19 -52 -41 -100 -57 -121 -61 -143 -38 -211 10
-32 19 -62 19 -69 0 -6 13 -40 29 -75 16 -35 32 -74 36 -88 8 -24 72 -158 112
-232 11 -20 38 -54 60 -75 22 -21 76 -83 120 -138 44 -55 94 -113 110 -130 26
-26 32 -40 38 -100 4 -38 16 -92 26 -120 10 -27 19 -65 19 -83 0 -18 7 -49 15
-69 13 -30 13 -43 4 -65 -12 -29 -17 -31 -86 -28 -32 1 -43 -2 -43 -13 0 -14
46 -27 101 -27 22 0 28 -6 33 -31 10 -49 7 -56 -13 -30 -12 15 -21 20 -25 13
-9 -14 22 -62 39 -62 15 0 25 -22 25 -58 0 -14 8 -34 17 -44 16 -18 16 -19
-12 -8 -42 16 -64 38 -90 91 -13 25 -40 58 -59 73 -24 18 -36 35 -36 52 0 28
-28 44 -41 23 -18 -28 -8 -49 57 -116 36 -37 78 -84 92 -103 34 -45 70 -80 83
-80 5 0 12 6 15 14 4 12 10 10 26 -6 17 -17 28 -19 69 -14 28 4 49 3 49 -2 0
-5 27 -12 61 -14 33 -2 64 -9 67 -15 9 -14 142 -28 142 -15 0 5 -22 12 -50 16
-27 4 -52 11 -55 16 -3 6 -21 10 -40 10 -37 0 -56 16 -28 23 10 3 2 5 -17 6
-42 2 -24 15 32 24 25 4 40 1 45 -7 25 -42 91 -39 139 5 29 28 55 30 33 2 -6
-7 -8 -13 -3 -14 5 0 0 -4 -10 -8 -10 -4 -20 -18 -22 -32 -2 -24 -1 -25 77
-26 44 -1 79 2 79 7 0 6 -18 10 -41 10 -22 0 -38 4 -35 9 3 4 33 8 66 7 45 -1
59 2 55 12 -3 9 10 12 48 12 28 -1 105 1 170 3 65 2 120 0 123 -4 5 -9 -36
-11 -197 -13 -42 -1 -82 -6 -90 -12 -8 -7 -29 -15 -46 -19 -18 -3 -31 -12 -30
-18 1 -6 -13 -11 -35 -11 -20 -1 -43 -7 -50 -15 -11 -11 0 -12 67 -7 118 9
242 9 256 1 7 -5 17 -1 25 10 7 10 30 21 51 25 30 6 19 8 -52 10 -83 2 -86 3
-40 10 28 5 78 9 113 9 34 1 62 4 62 9 0 4 75 8 166 9 154 1 168 3 188 22 l20
21 -81 0 c-45 0 -84 -4 -87 -8 -6 -11 -237 -9 -254 2 -7 4 -103 7 -214 6 -111
0 -199 3 -195 6 6 7 68 10 215 13 67 1 82 4 82 17 0 12 -8 14 -42 10 -24 -3
-99 -8 -168 -11 l-125 -5 27 23 c14 12 54 42 87 67 34 24 61 50 61 57 0 7 5
13 11 13 6 0 9 10 7 22 -3 21 -8 23 -49 20 -41 -3 -50 0 -84 32 -36 35 -37 36
-21 61 9 13 16 29 16 35 0 6 20 41 44 78 23 37 50 83 59 102 27 63 67 175 67
191 0 9 24 32 53 52 49 34 158 146 188 195 7 12 19 22 24 22 40 0 200 237 259
385 48 120 52 268 9 333 -34 52 -43 67 -74 132 -28 60 -30 71 -26 145 3 51 11
93 23 115 11 20 20 63 22 102 5 77 -7 100 -87 172 -102 91 -251 251 -251 268
0 8 -16 46 -35 87 -19 40 -35 81 -35 92 0 10 -4 19 -8 19 -5 0 -19 25 -32 56
-13 30 -35 63 -49 73 l-25 19 -2 228 c-1 126 1 246 6 267 4 20 4 37 0 37 -5 0
-5 14 0 30 5 17 9 69 9 116 0 47 4 91 10 98 9 12 17 53 26 146 4 30 14 69 24
86 11 17 22 47 26 65 4 19 11 39 15 44 4 6 11 48 15 95 15 164 14 182 -12 239
-22 46 -26 69 -27 160 -1 79 -6 115 -19 142 -23 47 -65 68 -107 52z m28 -39
c35 -7 42 -18 54 -94 24 -147 20 -190 -15 -140 -11 16 -25 19 -96 19 -46 0
-85 2 -88 5 -7 6 97 216 107 216 4 0 21 -3 38 -6z m82 -324 c0 -5 -4 -10 -10
-10 -5 0 -10 5 -10 10 0 6 5 10 10 10 6 0 10 -4 10 -10z m-89 -101 c-5 -24
-10 -35 -11 -24 -4 35 6 83 15 73 3 -2 1 -24 -4 -49z m-205 -106 c-10 -10 -19
5 -10 18 6 11 8 11 12 0 2 -7 1 -15 -2 -18z m104 -65 c0 -36 -4 -35 -14 5 -4
16 -2 27 4 27 5 0 10 -14 10 -32z m10 -68 c0 -5 -5 -10 -11 -10 -5 0 -7 5 -4
10 3 6 8 10 11 10 2 0 4 -4 4 -10z m107 -12 c-3 -8 -6 -5 -6 6 -1 11 2 17 5
13 3 -3 4 -12 1 -19z m-290 -30 c-3 -7 -5 -2 -5 12 0 14 2 19 5 13 2 -7 2 -19
0 -25z m63 -58 c0 -5 -4 -10 -10 -10 -5 0 -10 5 -10 10 0 6 5 10 10 10 6 0 10
-4 10 -10z m236 -96 c-4 -9 -9 -15 -11 -12 -3 3 -3 13 1 22 4 9 9 15 11 12 3
-3 3 -13 -1 -22z m-42 -48 c-5 -25 -4 -28 11 -22 16 6 17 1 11 -40 -3 -26 -12
-52 -20 -58 -21 -17 -28 -46 -10 -46 13 0 14 -24 9 -182 -4 -116 -10 -185 -17
-189 -6 -4 -8 -11 -4 -17 3 -6 2 -22 -4 -36 -6 -17 -6 -26 0 -26 6 0 10 5 10
10 0 6 3 10 8 10 4 0 6 -44 4 -97 -2 -54 -1 -126 3 -160 6 -53 10 -63 26 -63
13 0 26 -14 39 -42 30 -67 71 -168 89 -223 10 -29 32 -66 57 -91 22 -23 61
-68 86 -100 25 -32 69 -79 98 -103 75 -63 110 -115 110 -164 0 -43 -27 -154
-42 -173 -5 -7 -9 -43 -9 -81 -1 -51 4 -78 19 -103 10 -19 41 -72 67 -118 46
-80 47 -86 49 -170 2 -84 0 -91 -44 -192 -26 -58 -68 -137 -93 -177 -94 -146
-278 -340 -382 -402 -105 -62 -231 -153 -254 -183 -12 -14 -70 -50 -131 -79
-60 -30 -110 -59 -110 -66 0 -18 11 -16 67 9 26 12 59 23 72 24 23 3 23 1 18
-54 -8 -78 -24 -173 -31 -179 -11 -11 -56 8 -85 38 -27 26 -32 28 -38 14 -3
-10 1 -30 10 -45 11 -17 19 -61 22 -116 3 -49 11 -99 17 -112 16 -32 4 -39
-75 -44 -65 -4 -68 -3 -63 16 42 167 58 258 47 269 -4 4 -20 3 -34 -2 -22 -9
-28 -7 -37 8 -11 22 -26 191 -16 191 3 0 24 -12 46 -26 45 -30 78 -27 60 6 -6
11 -14 20 -19 20 -4 0 -45 36 -92 81 -78 75 -187 159 -206 159 -5 0 -26 23
-48 52 -65 83 -104 128 -189 216 -44 45 -77 82 -73 82 4 0 -9 25 -28 55 -19
30 -35 59 -35 66 0 6 -11 32 -24 58 -54 101 -104 219 -120 277 -19 71 -19 77
-6 69 9 -6 15 8 11 29 -1 5 11 36 28 70 42 87 71 162 71 183 0 11 4 23 9 29 5
5 14 27 21 49 7 22 21 54 31 71 11 17 19 38 19 45 0 13 141 89 164 89 16 0 66
42 61 50 -3 5 6 27 20 49 14 23 25 52 25 65 0 38 56 118 98 141 86 47 153 97
162 120 5 13 42 56 81 95 75 74 119 131 119 154 0 8 18 30 39 49 40 36 60 86
76 187 4 25 13 57 21 71 11 22 25 276 24 441 0 20 7 30 30 40 21 9 30 20 30
35 0 13 -4 23 -10 23 -5 0 -10 -7 -10 -16 0 -11 -5 -14 -16 -10 -9 3 -19 6
-23 6 -5 0 -6 11 -3 25 3 20 7 23 18 14 21 -17 34 -1 27 33 -4 22 -3 29 5 24
7 -4 12 -14 12 -22 0 -17 36 -19 43 -1 2 7 0 39 -5 71 -7 41 -7 61 1 69 8 8
11 4 11 -16 0 -17 5 -27 15 -27 10 0 15 -11 15 -35 0 -24 5 -35 15 -35 16 0
27 32 30 89 3 54 4 57 15 41 6 -8 7 -28 4 -44z m-143 -9 c-18 -18 -25 2 -10
30 14 26 14 26 17 4 2 -13 -1 -28 -7 -34z m-51 -36 c0 -17 -18 -21 -24 -6 -3
9 0 15 9 15 8 0 15 -4 15 -9z m44 -16 c-4 -8 -8 -15 -10 -15 -2 0 -4 7 -4 15
0 8 4 15 10 15 5 0 7 -7 4 -15z m-546 -3178 c-1 -12 2 -36 6 -54 4 -19 3 -34
-3 -38 -6 -3 -11 0 -11 7 0 7 -3 37 -7 67 -4 38 -2 52 6 47 6 -4 10 -17 9 -29z
m622 24 c0 -6 -4 -13 -10 -16 -5 -3 -10 -17 -10 -31 0 -13 -4 -24 -10 -24 -13
0 -13 23 2 55 11 25 28 34 28 16z m23 -67 c-19 -29 -28 -32 -13 -4 6 12 8 31
5 43 -6 21 -5 21 9 3 13 -16 13 -21 -1 -42z m-103 2 c0 -2 -7 -7 -16 -10 -8
-3 -12 -2 -9 4 6 10 25 14 25 6z m-463 -28 c-3 -8 -6 -5 -6 6 -1 11 2 17 5 13
3 -3 4 -12 1 -19z m30 -50 c-3 -8 -6 -5 -6 6 -1 11 2 17 5 13 3 -3 4 -12 1
-19z m-106 -40 l-4 -43 -8 35 c-9 37 -4 65 9 56 4 -2 6 -24 3 -48z m494 2 c-3
-5 0 -10 6 -12 5 -2 7 -11 3 -22 -10 -27 -24 1 -23 49 0 35 1 37 10 17 5 -13
7 -28 4 -32z m-442 -14 c-3 -23 0 -53 6 -65 8 -14 8 -21 1 -21 -5 0 -10 -11
-10 -24 0 -38 -20 -42 -21 -4 -1 18 0 38 1 43 2 6 3 34 2 63 0 36 3 52 13 52
9 0 11 -12 8 -44z m497 40 c0 -3 -4 -8 -10 -11 -5 -3 -10 -1 -10 4 0 6 5 11
10 11 6 0 10 -2 10 -4z m0 -62 c0 -8 -5 -12 -10 -9 -6 4 -8 11 -5 16 9 14 15
11 15 -7z m-10 -34 c0 -5 -5 -10 -11 -10 -5 0 -7 5 -4 10 3 6 8 10 11 10 2 0
4 -4 4 -10z m-430 -61 c0 -17 -4 -28 -10 -24 -5 3 -8 16 -6 28 6 28 5 27 11
27 3 0 5 -14 5 -31z m366 11 c28 0 29 -2 8 -41 -8 -17 -13 -33 -10 -36 10 -10
26 9 46 54 11 25 23 44 26 41 3 -4 1 -14 -4 -25 -87 -175 -101 -212 -107 -275
-6 -66 -7 -68 -35 -68 -35 0 -45 30 -24 78 7 19 14 44 14 56 0 12 6 30 14 41
14 20 46 159 42 179 -2 6 -1 8 1 4 3 -5 16 -8 29 -8z m-366 -90 c-1 -24 -1
-24 -15 -6 -13 17 -14 15 -20 -18 -6 -30 -3 -40 16 -60 15 -16 28 -46 35 -87
10 -56 9 -64 -7 -80 -11 -11 -27 -19 -38 -19 -16 0 -18 8 -15 83 1 45 -1 87
-6 92 -4 6 -11 35 -14 65 l-7 55 36 0 c31 0 35 -3 35 -25z m-87 -72 c4 -28 5
-54 2 -56 -5 -6 -35 98 -35 122 1 41 27 -11 33 -66z m179 47 c-2 -11 -11 -45
-20 -75 l-16 -55 -7 40 c-4 22 -8 57 -8 78 -1 36 1 38 27 35 21 -2 26 -8 24
-23z m188 9 c0 -14 -45 -144 -50 -144 -8 0 -12 128 -5 140 7 11 55 14 55 4z
m205 -18 c11 -7 36 -17 55 -21 l34 -7 -25 -22 c-73 -61 -97 -79 -129 -94 -19
-9 -38 -21 -42 -26 -4 -6 -10 -7 -15 -3 -4 4 -2 16 5 25 7 9 28 50 47 90 18
39 38 72 42 72 5 0 17 -6 28 -14z m-82 -41 c-3 -9 -8 -14 -10 -11 -3 3 -2 9 2
15 9 16 15 13 8 -4z m-20 -45 c-6 -22 -23 -38 -23 -21 0 17 12 41 20 41 5 0 6
-9 3 -20z m74 -126 c-3 -3 -12 -4 -19 -1 -8 3 -5 6 6 6 11 1 17 -2 13 -5z m3
-34 c0 -5 -4 -10 -9 -10 -6 0 -13 5 -16 10 -3 6 1 10 9 10 9 0 16 -4 16 -10z
m168 -67 c-10 -2 -28 -2 -40 0 -13 2 -5 4 17 4 22 1 32 -1 23 -4z"/>
<path d="M2776 5473 c-3 -3 -6 -21 -6 -40 0 -23 5 -33 15 -33 10 0 15 10 15
34 0 34 -11 52 -24 39z"/>
<path d="M2734 5396 c-4 -10 -2 -22 4 -28 8 -8 13 -7 18 6 4 10 2 22 -4 28 -8
8 -13 7 -18 -6z"/>
<path d="M2799 5298 c-2 -41 3 -113 7 -117 14 -14 22 22 17 77 -6 59 -22 87
-24 40z"/>
<path d="M2670 5300 c0 -5 4 -10 9 -10 6 0 13 5 16 10 3 6 -1 10 -9 10 -9 0
-16 -4 -16 -10z"/>
<path d="M2685 5261 c-3 -5 -1 -12 5 -16 5 -3 10 1 10 9 0 18 -6 21 -15 7z"/>
<path d="M2745 5218 c-12 -70 -11 -121 3 -125 9 -4 12 12 10 59 0 34 2 73 6
86 4 12 3 22 -2 22 -5 0 -13 -19 -17 -42z"/>
<path d="M2677 5174 c-11 -34 -16 -284 -6 -284 5 0 9 21 10 48 2 93 10 167 19
176 14 14 12 39 -4 61 -13 18 -14 18 -19 -1z"/>
<path d="M2769 5018 c-6 -29 -6 -138 0 -138 20 0 30 123 11 135 -5 3 -10 5
-11 3z"/>
<path d="M2700 4582 c0 -55 7 -82 22 -82 14 0 5 123 -9 128 -9 2 -13 -11 -13
-46z"/>
<path d="M2877 4594 c-11 -11 -8 -87 4 -123 19 -55 32 -36 24 37 -7 70 -16 97
-28 86z"/>
<path d="M2470 4441 c0 -43 14 -81 29 -81 13 0 0 93 -15 110 -12 12 -14 8 -14
-29z"/>
<path d="M2930 4380 c9 -51 17 -59 25 -27 8 32 -2 67 -19 67 -10 0 -11 -10 -6
-40z"/>
<path d="M2625 4328 c-3 -24 -4 -56 -3 -73 2 -20 -1 -29 -10 -27 -10 2 -12
-22 -9 -105 3 -60 1 -137 -4 -173 -6 -51 -5 -68 7 -80 12 -12 14 -1 16 85 1
55 1 127 0 159 -1 33 2 73 7 90 15 48 24 166 12 166 -5 0 -12 -19 -16 -42z"/>
<path d="M2302 4293 c-11 -19 -5 -73 8 -73 11 0 19 73 10 84 -5 4 -13 0 -18
-11z"/>
<path d="M2945 4283 c4 -10 10 -31 14 -47 4 -16 12 -31 18 -33 14 -5 6 65 -10
85 -14 18 -30 15 -22 -5z"/>
<path d="M2751 4272 c-5 -10 -24 -54 -41 -98 -18 -43 -41 -98 -51 -122 -11
-24 -18 -49 -16 -55 3 -7 10 3 17 21 7 17 16 32 21 32 13 0 51 89 51 120 0 14
4 30 8 35 16 20 39 85 30 85 -5 0 -14 -8 -19 -18z"/>
<path d="M2447 4273 c-10 -10 -8 -73 2 -73 9 0 21 34 21 63 0 17 -11 22 -23
10z"/>
<path d="M3070 4238 c0 -27 6 -50 14 -57 21 -18 26 1 13 47 -18 59 -27 62 -27
10z"/>
<path d="M2862 4161 c2 -14 9 -26 16 -29 17 -5 15 10 -3 34 -15 18 -15 18 -13
-5z"/>
<path d="M3109 4073 c-2 -9 -2 -8 4 -58 13 -106 36 -175 59 -175 21 0 23 -11
7 -27 -14 -14 -4 -46 12 -41 10 3 30 62 44 132 8 34 15 30 16 -10 0 -31 2 -35
9 -19 12 29 12 95 0 95 -6 0 -10 6 -9 13 1 6 1 23 0 35 -2 39 -25 19 -27 -24
-2 -42 -6 -64 -18 -106 -15 -51 -28 -32 -41 57 -9 59 -31 129 -43 133 -7 2
-13 0 -13 -5z"/>
<path d="M2470 4036 c0 -24 72 -172 77 -159 6 15 -57 173 -69 173 -4 0 -8 -7
-8 -14z"/>
<path d="M2726 3967 c-14 -24 -26 -49 -26 -54 0 -6 -13 -25 -30 -43 -19 -20
-24 -30 -13 -28 16 3 108 156 100 165 -3 2 -17 -15 -31 -40z"/>
<path d="M2940 4000 c0 -17 125 -155 143 -158 37 -7 14 37 -52 101 -65 64 -91
80 -91 57z"/>
<path d="M2185 3990 c-8 -12 5 -133 15 -144 5 -4 13 -5 18 -2 9 6 8 44 -4 124
-5 31 -17 41 -29 22z"/>
<path d="M2890 3923 c1 -27 1 -27 15 -9 14 19 12 36 -6 36 -5 0 -9 -12 -9 -27z"/>
<path d="M2030 3910 c0 -11 5 -20 10 -20 6 0 10 9 10 20 0 11 -4 20 -10 20 -5
0 -10 -9 -10 -20z"/>
<path d="M2094 3879 c-3 -6 -2 -14 5 -18 6 -4 15 -31 21 -61 12 -61 24 -80 42
-62 8 8 8 15 1 24 -6 7 -16 39 -23 71 -11 55 -29 73 -46 46z"/>
<path d="M1935 3859 c-10 -15 3 -25 16 -12 7 7 7 13 1 17 -6 3 -14 1 -17 -5z"/>
<path d="M2483 3800 c5 -38 3 -50 -7 -50 -8 0 -16 7 -20 15 -6 17 -46 21 -46
5 0 -5 5 -10 11 -10 14 0 48 -41 49 -57 0 -7 9 -13 20 -13 22 0 26 10 10 26
-6 6 -6 29 -2 60 9 54 6 74 -10 74 -7 0 -9 -18 -5 -50z"/>
<path d="M1866 3798 c-2 -7 -7 -21 -10 -30 -3 -10 -2 -18 3 -18 8 0 41 44 41
55 0 11 -31 4 -34 -7z"/>
<path d="M2827 3771 c-9 -16 -38 -55 -63 -86 -25 -31 -43 -59 -40 -62 9 -9 35
17 76 77 21 31 45 62 54 69 9 7 13 17 10 22 -9 15 -19 10 -37 -20z"/>
<path d="M1796 3758 c-11 -42 -7 -78 9 -78 10 0 15 10 15 34 0 19 5 38 10 41
13 8 3 25 -14 25 -8 0 -16 -10 -20 -22z"/>
<path d="M3206 3693 c-3 -3 -6 -17 -6 -29 0 -17 4 -22 15 -18 8 4 15 14 15 24
0 20 -13 33 -24 23z"/>
<path d="M1826 3621 c-4 -7 -5 -15 -2 -18 9 -9 19 4 14 18 -4 11 -6 11 -12 0z"/>
<path d="M1900 3616 c0 -8 -9 -35 -20 -60 -16 -39 -17 -46 -4 -46 16 0 32 35
41 88 4 20 2 32 -6 32 -6 0 -11 -6 -11 -14z"/>
<path d="M2110 3597 c0 -12 33 -67 40 -67 19 0 19 19 -1 44 -17 22 -39 35 -39
23z"/>
<path d="M2350 3535 c13 -14 27 -25 32 -25 16 0 8 29 -11 40 -35 18 -45 11
-21 -15z"/>
<path d="M2939 3539 c-31 -16 -77 -24 -196 -32 -7 0 -13 -6 -13 -13 0 -9 11
-11 33 -9 17 2 60 7 94 9 67 6 133 32 133 53 0 17 -7 16 -51 -8z"/>
<path d="M2614 3538 c-15 -21 -11 -181 4 -185 7 -3 12 -20 11 -41 -1 -20 -3
-29 -6 -19 -5 20 -41 22 -63 4 -9 -7 -26 -27 -39 -45 -12 -18 -48 -49 -79 -70
-59 -39 -76 -62 -45 -62 33 0 120 71 176 142 25 31 27 32 27 9 0 -61 147 -261
192 -261 15 0 18 4 13 18 -4 9 -10 41 -13 70 -4 49 -22 75 -22 33 0 -20 -17
-37 -27 -27 -3 3 -6 23 -7 46 0 22 -4 40 -8 40 -12 0 -10 58 2 65 6 3 7 18 4
33 -9 36 -24 52 -24 25 0 -27 -10 -34 -39 -26 -16 4 -20 11 -16 24 8 25 -3 59
-18 56 -9 -1 -11 23 -9 91 2 50 1 92 -1 92 -3 0 -9 -6 -13 -12z m56 -299 c0
-5 -4 -9 -10 -9 -5 0 -10 7 -10 16 0 8 5 12 10 9 6 -3 10 -10 10 -16z"/>
<path d="M1704 3526 c-8 -21 10 -78 28 -90 23 -14 31 -4 19 25 -5 13 -12 36
-15 52 -7 29 -23 36 -32 13z"/>
<path d="M1977 3358 c7 -41 20 -57 29 -35 9 25 -4 67 -21 67 -11 0 -13 -8 -8
-32z"/>
<path d="M2210 3369 c0 -24 23 -21 28 4 2 10 -3 17 -12 17 -10 0 -16 -9 -16
-21z"/>
<path d="M2869 3371 c-13 -11 -21 -22 -17 -26 10 -10 48 14 48 30 0 19 -3 19
-31 -4z"/>
<path d="M1600 3372 c0 -4 4 -12 9 -17 5 -6 12 -39 16 -75 6 -58 26 -103 40
-89 7 7 -26 161 -38 177 -11 14 -27 16 -27 4z"/>
<path d="M3312 3345 c-7 -14 -12 -33 -12 -41 0 -20 -58 -134 -69 -134 -4 0 -8
19 -8 43 0 117 -3 137 -19 137 -13 0 -15 -21 -13 -160 l2 -159 62 57 c58 54
77 86 35 60 -39 -24 -32 5 28 134 18 37 32 72 32 78 0 20 -27 9 -38 -15z"/>
<path d="M2784 3265 c-5 -11 -3 -33 6 -92 0 -2 5 -3 10 -3 6 0 10 25 10 55 0
52 -14 73 -26 40z"/>
<path d="M2900 3216 c0 -14 5 -28 10 -31 6 -4 10 7 10 24 0 17 -4 31 -10 31
-5 0 -10 -11 -10 -24z"/>
<path d="M3103 3169 c-14 -14 1 -108 25 -153 l20 -37 7 31 c4 18 2 36 -4 44
-7 8 -14 37 -18 65 -6 54 -13 67 -30 50z"/>
<path d="M2839 3094 c-16 -62 -16 -64 2 -59 24 8 25 -13 2 -30 -16 -12 -16
-15 1 -53 27 -60 23 -189 -7 -236 -11 -16 -15 -35 -11 -51 4 -15 2 -25 -5 -25
-16 0 -45 -50 -35 -60 5 -5 14 -6 19 -2 20 14 74 89 69 95 -4 3 3 18 13 34 27
37 34 72 36 168 2 63 -1 79 -12 77 -28 -6 -43 20 -37 66 5 37 3 43 -9 38 -18
-6 -18 -2 -5 43 5 19 6 40 2 47 -4 7 -14 -14 -23 -52z"/>
<path d="M1680 3121 c0 -5 6 -14 14 -20 8 -7 17 -27 20 -46 7 -33 15 -42 28
-29 7 6 -12 74 -25 92 -11 14 -37 16 -37 3z"/>
<path d="M2300 3105 c-14 -7 -36 -16 -51 -19 -46 -10 -134 -96 -174 -171 -32
-60 -38 -80 -39 -137 -1 -55 3 -71 22 -95 12 -15 27 -38 34 -50 13 -27 26 -29
34 -8 11 27 -6 65 -31 75 -22 9 -25 15 -25 64 0 53 20 119 40 131 6 4 8 11 5
16 -6 9 38 74 65 96 8 7 31 18 50 24 48 15 124 52 132 64 19 26 -22 33 -62 10z"/>
<path d="M3213 3026 c-41 -41 -54 -66 -34 -66 4 0 27 25 49 55 49 66 43 70
-15 11z"/>
<path d="M1806 2973 c-6 -7 0 -102 10 -150 10 -49 22 -20 19 45 -2 37 -4 77
-4 90 -1 22 -11 28 -25 15z"/>
<path d="M3020 2911 c0 -31 24 -59 35 -42 5 10 -20 71 -30 71 -3 0 -5 -13 -5
-29z"/>
<path d="M3097 2906 c-6 -15 1 -26 15 -26 11 0 10 27 -1 34 -5 3 -11 0 -14 -8z"/>
<path d="M1890 2810 c0 -49 26 -100 50 -100 14 0 20 5 16 13 -2 6 -12 36 -21
65 -18 59 -45 72 -45 22z"/>
<path d="M1980 2825 c0 -8 7 -15 15 -15 8 0 15 7 15 15 0 8 -7 15 -15 15 -8 0
-15 -7 -15 -15z"/>
<path d="M2415 2763 c-27 -30 -92 -87 -142 -125 -51 -38 -93 -74 -93 -79 0
-17 29 -22 43 -7 8 7 50 42 94 78 44 36 95 84 114 108 19 23 39 40 45 38 18
-7 37 11 31 28 -11 28 -41 15 -92 -41z"/>
<path d="M2509 2773 c-8 -57 -4 -83 11 -83 9 0 26 -11 38 -25 13 -14 27 -23
32 -20 17 11 11 41 -15 71 -14 16 -28 37 -31 47 -5 17 -33 24 -35 10z"/>
<path d="M3026 2764 c-7 -18 0 -34 15 -34 5 0 9 11 9 25 0 28 -15 34 -24 9z"/>
<path d="M2221 2661 c-7 -12 -7 -22 -2 -26 5 -3 13 4 16 16 9 28 -1 36 -14 10z"/>
<path d="M2603 2619 c-13 -13 -3 -35 34 -77 21 -23 53 -25 53 -4 0 10 -62 92
-70 92 -3 0 -11 -5 -17 -11z"/>
<path d="M2722 1928 c5 -15 37 -18 41 -3 1 6 -9 12 -22 13 -16 3 -22 -1 -19
-10z"/>
<path d="M2685 1869 c-10 -30 10 -47 25 -20 11 21 6 41 -10 41 -5 0 -12 -9
-15 -21z"/>
<path d="M7817 6481 c-6 -23 37 -91 57 -91 11 0 26 -20 26 -34 0 -1 -14 0 -31
2 -26 4 -30 2 -27 -14 2 -11 13 -20 26 -22 24 -4 29 -17 9 -25 -9 -3 -12 -16
-9 -36 5 -38 22 -41 22 -5 0 18 6 28 21 31 12 4 18 11 15 20 -3 8 1 24 9 35
13 19 12 24 -12 52 -14 17 -30 30 -35 29 -4 -2 -8 1 -8 6 0 5 9 11 21 14 31 8
17 32 -17 31 -16 0 -33 5 -37 13 -11 19 -24 16 -30 -6z"/>
<path d="M7794 6406 c-4 -9 -2 -22 5 -29 8 -8 14 -8 23 1 10 10 8 16 -5 29
-15 15 -17 15 -23 -1z"/>
<path d="M7795 6350 c-3 -5 -12 -7 -19 -4 -22 8 -36 -21 -43 -90 -4 -46 -10
-66 -20 -66 -7 0 -19 -12 -25 -27 -7 -16 -13 -30 -15 -32 -1 -2 -14 4 -28 13
-25 16 -27 16 -55 -6 -41 -32 -46 -60 -22 -109 l20 -40 -22 -10 c-24 -11 -56
-61 -56 -88 0 -9 -5 -22 -10 -27 -16 -16 -1 -43 26 -50 28 -7 30 -16 9 -34 -8
-7 -15 -16 -15 -21 0 -4 -11 -19 -25 -33 -20 -20 -25 -35 -25 -75 0 -47 2 -51
33 -66 19 -9 51 -17 72 -19 22 -2 40 -8 42 -12 14 -51 20 -205 11 -299 -6 -60
-11 -166 -12 -235 -1 -101 -4 -124 -15 -122 -9 2 -12 -4 -8 -19 6 -23 -1 -49
-13 -49 -5 0 -9 8 -8 18 0 25 -26 122 -33 122 -12 0 -26 -25 -32 -54 -3 -17 4
-55 18 -93 23 -62 20 -77 -9 -48 -18 18 -36 19 -36 2 0 -22 30 -57 49 -57 26
0 51 -32 51 -66 -1 -25 -2 -26 -11 -11 -6 9 -14 15 -20 12 -13 -8 -11 -45 2
-45 14 0 4 -50 -22 -109 -14 -32 -16 -47 -9 -57 8 -9 6 -14 -9 -19 -23 -7 -45
-39 -55 -80 -4 -16 -19 -42 -34 -57 -14 -16 -21 -28 -15 -28 16 0 63 59 80 98
16 38 18 38 118 -8 33 -15 74 -32 90 -37 29 -10 30 -13 29 -62 -1 -29 -4 -55
-7 -58 -4 -3 -20 7 -38 21 -21 18 -41 26 -58 24 -46 -5 -38 -35 27 -99 34 -32
56 -61 51 -65 -5 -3 -31 -4 -57 -3 -36 3 -48 0 -50 -12 -3 -19 38 -39 81 -39
l32 0 -3 -92 c-4 -124 -7 -130 -39 -85 -65 92 -70 8 -8 -136 27 -62 35 -91 27
-99 -7 -7 -17 2 -31 31 -12 22 -34 49 -49 58 -15 10 -33 23 -40 30 -16 15 -52
17 -52 3 0 -6 4 -18 9 -28 5 -9 17 -35 26 -57 10 -22 33 -56 52 -76 26 -28 33
-42 28 -58 -4 -12 -2 -21 4 -21 6 0 11 5 11 10 0 15 27 12 44 -5 8 -8 24 -15
35 -15 25 0 29 -34 8 -65 -16 -23 -47 -112 -47 -133 0 -12 3 -12 15 -2 12 10
16 9 21 -6 3 -11 10 -26 15 -34 21 -33 22 -43 6 -55 -10 -7 -17 -18 -17 -25 0
-10 3 -10 15 0 8 7 15 8 15 3 0 -18 -82 -88 -103 -88 -17 0 -23 -7 -25 -31 -2
-19 -20 -51 -45 -82 -23 -27 -55 -66 -70 -86 -15 -20 -31 -36 -36 -36 -4 0
-16 16 -27 37 -10 20 -27 52 -37 71 -29 55 -49 204 -42 302 7 83 50 343 59
359 3 4 7 19 10 33 7 38 64 180 85 208 35 49 53 92 43 102 -14 14 -47 -42
-107 -179 -27 -62 -51 -113 -54 -113 -15 0 -31 44 -46 128 -19 103 -34 133
-58 114 -22 -19 -28 -66 -15 -125 12 -57 41 -102 86 -131 27 -18 29 -23 21
-50 -11 -37 -22 -106 -50 -316 -16 -120 -18 -162 -10 -186 6 -17 11 -42 11
-57 0 -34 34 -119 71 -181 l30 -48 -27 -22 c-108 -85 -169 -148 -200 -208 -21
-40 -41 -35 -56 15 -7 23 -18 48 -25 55 -19 20 -16 47 12 100 29 55 32 80 8
89 -11 4 -24 -3 -40 -22 -28 -32 -38 -25 -48 30 -21 124 -23 130 -30 107 -11
-34 -36 -9 -28 29 6 33 -6 38 -25 9 -13 -22 -2 -58 29 -95 9 -11 26 -49 38
-84 l21 -65 -25 -38 c-14 -21 -27 -38 -29 -38 -2 0 -2 38 0 85 3 67 1 85 -9
85 -37 0 -95 -112 -109 -210 -11 -75 -12 -77 -28 -56 -22 28 -42 100 -34 120
4 10 13 14 23 12 11 -4 23 8 40 44 14 27 21 53 17 57 -4 4 -12 0 -18 -11 -6
-10 -23 -32 -38 -49 l-28 -32 3 65 c4 111 17 194 36 230 l18 35 1 -35 c0 -31
-24 -133 -46 -195 -6 -18 -5 -18 9 -5 29 28 69 193 71 295 1 23 11 37 49 65
80 61 247 101 247 60 0 -12 -100 -70 -121 -70 -22 0 -112 -40 -105 -47 6 -6
114 31 160 54 17 9 48 29 68 45 26 20 44 27 58 23 18 -6 19 -8 5 -33 -7 -15
-30 -44 -49 -65 -20 -21 -36 -46 -36 -55 1 -19 28 10 82 87 30 43 31 46 21
104 -11 70 -7 107 13 107 8 0 14 6 14 14 0 8 3 21 6 30 3 9 2 16 -4 16 -5 0
-13 -12 -17 -27 -6 -27 -7 -27 -21 -9 -8 11 -14 36 -14 55 -1 46 -32 137 -45
131 -12 -6 -12 -6 13 -95 28 -100 32 -136 17 -170 l-13 -30 -22 50 c-14 29
-26 84 -32 134 -8 85 -5 121 13 121 5 0 9 11 9 25 0 15 -6 25 -15 25 -50 0
-34 -256 23 -352 19 -32 11 -45 -20 -31 -31 13 -96 0 -172 -37 -81 -38 -114
-69 -164 -155 -54 -94 -72 -152 -72 -237 0 -43 -4 -68 -9 -63 -33 36 -59 278
-31 295 7 5 19 6 26 3 7 -2 18 6 25 19 6 13 27 40 45 61 19 20 34 43 34 51 0
7 7 19 15 26 17 14 21 55 5 45 -6 -4 -25 -31 -41 -61 -17 -30 -36 -54 -43 -54
-7 0 -23 -11 -36 -25 -60 -64 -49 -2 18 99 78 116 123 233 95 243 -8 3 -26
-24 -47 -69 l-35 -73 4 95 c5 123 14 177 31 184 8 3 14 12 14 21 0 8 6 25 13
38 6 12 13 24 14 26 1 2 13 -9 28 -24 14 -16 23 -31 19 -34 -3 -3 -11 2 -18
12 -14 18 -36 23 -36 8 0 -6 4 -12 9 -15 5 -3 18 -25 29 -48 22 -47 57 -88 74
-88 6 0 20 -7 30 -16 16 -16 18 -15 24 1 5 12 0 25 -17 39 -23 20 -59 85 -59
106 0 12 47 -5 66 -25 21 -21 61 -19 100 6 38 23 41 31 19 53 -10 10 -26 13
-49 9 -19 -3 -36 -1 -40 6 -4 6 -17 11 -29 11 -21 1 -21 1 3 15 14 8 32 14 42
15 34 0 152 110 135 126 -2 3 -29 -4 -58 -15 -30 -10 -69 -22 -86 -25 -18 -3
-51 -14 -74 -25 -36 -18 -44 -19 -61 -7 -19 14 -19 15 12 47 18 20 27 35 20
37 -16 6 -72 -49 -66 -65 3 -7 2 -13 -2 -13 -5 0 -29 -28 -54 -63 -52 -72 -88
-165 -69 -177 21 -12 2 -272 -20 -286 -5 -3 -9 5 -10 18 0 19 -3 17 -14 -12
l-13 -35 -1 65 c-1 41 5 76 15 95 17 32 35 125 27 138 -2 4 -15 -6 -28 -21
-18 -22 -25 -46 -31 -112 -5 -47 -8 -93 -6 -103 6 -46 -20 3 -48 90 -34 105
-46 133 -59 133 -19 0 -19 -32 -1 -121 18 -89 40 -139 40 -91 0 40 15 23 36
-43 24 -74 16 -86 -14 -22 l-21 42 -1 -37 c0 -38 39 -98 65 -98 14 0 28 -27
20 -40 -3 -4 -6 -40 -7 -79 -1 -39 -4 -71 -7 -71 -3 0 -15 14 -26 31 -24 36
-106 99 -129 99 -30 0 -15 -53 64 -225 21 -46 105 -165 168 -237 23 -27 42
-53 42 -58 0 -6 -16 -4 -36 5 -47 19 -98 19 -114 0 -14 -17 -15 -16 20 -33 14
-6 33 -17 42 -24 30 -22 31 0 2 26 -23 20 -26 25 -11 26 51 1 157 -74 157
-111 0 -16 -7 -17 -52 -13 -29 3 -69 8 -88 11 -30 5 -32 7 -15 13 11 5 45 10
75 11 36 1 13 5 -68 11 -112 9 -125 8 -150 -9 l-27 -18 40 -3 c22 -1 69 -9
105 -17 36 -7 97 -17 136 -20 l70 -7 -26 -27 c-30 -29 -85 -180 -71 -194 14
-14 71 43 102 105 25 49 33 57 44 48 8 -7 17 -20 20 -31 4 -10 13 -19 20 -19
21 0 35 32 23 53 -5 10 -7 25 -4 33 4 10 -2 14 -17 14 -23 0 -47 17 -47 33 0
5 7 6 16 3 10 -4 25 1 36 11 18 16 19 16 12 -1 -6 -16 -2 -16 35 5 44 24 79
64 67 76 -3 4 -16 -3 -29 -14 -25 -22 -107 -56 -107 -43 0 4 16 31 35 59 19
28 35 54 35 58 0 5 9 21 19 37 l19 29 21 -49 c12 -27 29 -62 38 -79 9 -16 20
-52 24 -80 4 -27 10 -60 14 -72 6 -18 3 -23 -9 -23 -9 0 -16 7 -16 15 0 8 -4
15 -10 15 -12 0 -13 -30 -1 -49 6 -9 18 -12 32 -8 16 4 33 -3 60 -23 37 -30
59 -38 59 -22 0 5 -20 27 -45 50 -37 34 -44 46 -39 66 3 13 1 33 -5 43 -13 25
5 96 35 141 13 18 51 58 86 89 35 31 71 64 81 74 26 28 38 23 84 -36 67 -86
75 -108 68 -180 -8 -76 -19 -84 -119 -87 -45 -2 -71 -7 -74 -15 -2 -8 6 -13
20 -14 20 -1 19 -2 -9 -15 -18 -8 -33 -19 -33 -24 0 -6 2 -10 5 -10 10 0 62
25 87 42 15 11 29 14 33 9 3 -5 -1 -13 -9 -18 -24 -13 -126 -114 -126 -124 0
-14 31 -23 39 -11 3 5 8 10 11 9 7 -1 59 33 93 60 16 13 32 23 37 23 4 0 2
-24 -5 -52 -7 -29 -15 -84 -17 -123 -3 -64 -1 -70 17 -70 17 0 21 9 27 67 3
37 16 105 27 152 12 46 21 95 21 108 0 13 6 30 12 36 7 7 15 51 18 99 5 85 6
88 35 103 17 8 32 17 35 20 7 7 60 30 60 26 0 -1 -14 -31 -31 -65 -17 -34 -33
-80 -36 -102 -5 -36 -4 -41 13 -37 25 4 50 51 70 128 9 36 18 69 21 73 3 5 14
-11 25 -35 38 -83 7 -253 -61 -332 -13 -15 -13 -20 -3 -24 9 -3 1 -16 -23 -38
-21 -19 -41 -34 -45 -34 -13 0 -52 -138 -45 -160 6 -17 2 -20 -29 -20 -28 0
-35 4 -38 23 l-3 22 -21 -21 c-23 -23 -54 -28 -54 -8 0 24 -51 27 -152 10 -79
-14 -102 -15 -114 -5 -8 6 -31 13 -51 15 -39 3 -63 24 -63 56 0 24 -38 104
-56 119 -26 21 -26 2 0 -71 14 -39 26 -73 26 -76 0 -2 -10 -4 -23 -4 -22 0
-67 -32 -67 -48 1 -22 83 -72 118 -72 9 0 12 -6 8 -16 -3 -9 -6 -18 -6 -20 0
-3 -9 0 -21 6 -35 19 -35 16 12 -118 11 -30 19 -70 19 -90 0 -21 9 -59 19 -87
10 -27 22 -77 26 -110 7 -51 13 -66 45 -98 24 -23 47 -37 63 -37 13 0 40 -6
59 -14 18 -8 68 -16 110 -19 42 -3 80 -7 86 -11 5 -3 229 -6 496 -7 352 -1
490 1 499 10 8 8 -7 11 -59 11 -39 0 -75 5 -81 11 -6 6 -98 11 -247 13 -130 2
-240 6 -243 10 -4 3 27 6 68 7 41 1 112 3 159 5 126 5 422 4 442 -2 24 -7 34
17 13 32 -10 7 -22 11 -27 8 -14 -9 -498 -11 -504 -2 -3 4 68 9 158 10 90 1
134 3 98 5 -36 2 -69 8 -74 14 -12 11 5 12 137 9 84 -2 97 0 97 14 0 15 -25
16 -277 12 -153 -2 -308 -8 -345 -13 l-68 -8 0 29 c0 16 6 37 14 45 12 13 30
80 40 151 3 15 32 145 48 212 5 22 24 51 48 74 22 21 40 42 40 47 0 22 -51 57
-83 57 -18 0 -37 3 -40 6 -15 15 110 154 138 154 7 0 23 14 35 30 12 17 26 30
31 30 19 0 159 144 154 160 -6 21 3 33 55 65 51 32 118 100 159 160 41 61 76
154 63 167 -19 19 -98 -37 -150 -107 -26 -35 -49 -64 -52 -65 -3 0 -3 58 -2
129 5 170 -10 198 -55 101 -11 -25 -26 -73 -33 -107 -14 -69 -27 -72 -64 -15
-29 44 -55 57 -74 38 -38 -38 44 -234 113 -272 46 -24 40 -41 -39 -116 -33
-32 -65 -63 -71 -70 -30 -32 -100 -98 -106 -98 -25 0 31 110 83 165 56 57 26
56 -33 -1 -48 -48 -79 -115 -79 -173 0 -12 -15 -35 -33 -50 -18 -16 -39 -42
-47 -58 -8 -15 -27 -44 -42 -64 -15 -20 -28 -41 -28 -47 0 -11 -89 -36 -98
-28 -3 3 1 13 9 22 8 10 14 27 15 38 3 82 4 88 24 93 11 3 20 11 20 18 0 8 13
16 29 20 29 6 107 80 130 123 6 11 13 48 15 81 1 33 10 70 18 83 16 24 13 88
-3 88 -4 0 -13 -10 -20 -22 -9 -17 -13 -18 -19 -7 -11 20 -14 71 -5 92 9 21
25 22 25 1 0 -8 5 -12 11 -9 6 4 8 14 4 23 -3 10 7 29 29 51 39 40 68 90 60
103 -8 13 -23 -1 -38 -35 -15 -35 -72 -94 -82 -85 -3 4 8 25 25 49 17 23 31
48 31 55 0 25 -27 3 -59 -47 -18 -27 -37 -49 -42 -49 -12 0 -11 7 5 33 17 27
35 103 41 177 8 83 17 124 29 132 6 4 28 8 48 8 45 0 108 28 108 48 0 12 -13
14 -75 8 -41 -4 -75 -3 -75 2 0 4 18 19 41 32 50 30 99 78 99 96 0 19 -14 18
-58 -5 -20 -10 -50 -21 -66 -25 l-30 -7 40 43 c84 94 124 151 124 178 0 27
-16 25 -51 -7 -16 -16 -60 -55 -97 -88 -38 -33 -81 -79 -96 -102 -15 -24 -32
-43 -37 -43 -5 0 -9 45 -9 101 l0 100 37 15 c40 17 94 55 133 94 32 32 100
117 100 124 0 24 -110 -23 -140 -59 -28 -34 -27 -10 3 60 25 62 29 77 18 88
-11 9 -14 9 -18 -1 -3 -7 -11 -18 -18 -26 -8 -7 -17 -25 -21 -40 -14 -57 -24
-20 -24 88 0 118 -8 142 -37 113 -18 -18 -72 -208 -73 -254 0 -41 -17 -51 -30
-18 -15 40 -12 95 9 150 15 40 17 60 11 95 -12 60 -12 60 5 60 10 0 15 10 15
28 0 15 5 44 11 65 8 30 13 36 27 28 21 -10 42 -4 42 13 0 7 14 25 30 41 27
26 40 55 24 55 -3 0 -25 -21 -49 -47 -46 -52 -64 -55 -38 -8 21 41 53 146 47
156 -10 16 16 47 43 52 22 4 33 -2 61 -32 83 -90 107 -111 118 -107 24 9 44
-40 39 -94 -4 -40 -2 -50 10 -50 8 0 15 -6 15 -14 0 -8 9 -24 21 -37 l20 -24
-5 31 c-3 18 -8 45 -12 60 l-7 29 20 -25 c11 -14 38 -53 61 -87 29 -43 47 -60
57 -57 18 7 19 20 4 30 -6 3 -8 17 -5 30 5 19 2 24 -13 24 -24 0 -33 21 -16
37 10 10 16 9 25 -2 17 -20 40 -19 40 3 0 16 -78 72 -100 72 -24 0 -7 19 30
34 24 9 40 22 40 32 0 12 -5 14 -17 8 -10 -4 -37 -9 -59 -10 -23 -1 -47 -5
-54 -9 -7 -5 -21 3 -36 20 -12 15 -29 25 -36 23 -7 -3 -35 23 -61 56 -71 89
-74 96 -46 117 30 22 39 16 39 -26 0 -36 18 -85 31 -85 15 0 21 22 10 33 -13
13 -15 64 -2 72 5 3 27 -1 48 -9 21 -8 60 -17 86 -20 42 -5 48 -4 45 12 -2 13
-14 17 -44 18 -38 1 -134 32 -134 44 0 4 17 12 38 19 46 17 132 78 132 95 0
16 -21 36 -39 36 -23 0 -115 -47 -135 -69 -24 -26 -42 -27 -56 -1 -6 12 -30
25 -55 32 -28 8 -45 18 -46 28 -1 8 -2 50 -3 92 l-2 78 35 6 c41 7 98 61 82
77 -7 7 -19 4 -36 -7 -15 -10 -29 -16 -31 -14 -2 3 7 27 20 54 27 56 33 124
12 124 -14 0 -36 -49 -36 -81 0 -27 -21 -34 -27 -10 -8 31 -28 19 -25 -15 2
-23 0 -26 -8 -12 -5 9 -10 27 -10 40 1 12 -2 37 -6 54 -4 20 0 42 9 60 8 16
18 62 22 102 5 50 12 75 22 79 22 9 63 -14 63 -36 0 -59 60 -131 97 -116 19 7
20 7 -40 50 -10 7 -20 28 -23 46 -5 33 -4 35 45 58 50 23 78 24 149 5 36 -10
26 15 -13 32 -48 20 -87 18 -134 -7 -48 -25 -84 -18 -79 14 2 15 17 25 52 37
49 16 126 80 126 104 0 18 -33 46 -54 46 -9 0 -40 -23 -67 -50 -45 -45 -51
-49 -56 -30 -6 24 -26 26 -47 4 -10 -10 -16 -33 -16 -64 0 -27 -5 -52 -11 -55
-13 -9 -7 149 9 215 6 25 15 70 21 100 5 30 13 69 16 85 8 37 37 95 47 95 11
0 -4 34 -21 47 -14 10 -13 18 13 68 29 58 31 108 5 156 -12 24 -23 24 -46 0
-10 -10 -30 -21 -45 -25 -46 -11 -76 -46 -83 -99 -6 -47 -6 -49 24 -60 35 -13
39 -28 15 -56 -20 -23 -54 -16 -54 10 0 22 -11 24 -28 7 -28 -28 -2 -77 41
-78 10 0 20 -8 24 -17 12 -34 46 -63 65 -57 17 5 16 0 -7 -44 -22 -43 -24 -53
-14 -70 11 -17 10 -27 -4 -59 -18 -44 -30 -119 -36 -228 0 -15 -7 -25 -16 -25
-18 0 -19 29 -3 65 9 21 9 31 -1 47 -7 12 -12 46 -11 82 3 82 2 86 -14 80 -10
-4 -14 4 -15 28 -5 195 -25 228 -108 177 -33 -21 -35 -21 -31 -3 2 10 12 20
23 23 40 7 73 41 90 91 9 28 20 50 25 50 10 0 21 41 14 52 -3 5 -11 4 -18 -1
-22 -19 -25 -1 -7 40 22 49 28 54 43 42 20 -16 53 2 68 36 14 35 14 35 40 19
30 -19 43 1 35 56 -5 30 -12 46 -22 46 -8 0 -11 4 -8 10 11 17 -15 50 -39 50
-29 0 -53 -52 -32 -69 9 -7 16 -7 24 1 22 22 23 0 2 -43 -32 -62 -61 -84 -83
-63 -13 13 14 44 38 44 27 0 34 15 11 23 -8 3 -17 19 -21 36 -4 17 -12 31 -19
31 -6 0 -20 14 -29 30 -10 17 -25 30 -33 30 -8 0 -12 5 -9 10 4 6 15 8 26 5
17 -6 18 -2 13 27 -4 18 -7 35 -6 38 0 31 4 40 17 40 8 0 15 9 15 20 0 21 -15
27 -25 10z m-44 -210 c14 0 17 -8 16 -35 -2 -36 -10 -41 -54 -29 -29 8 -30 22
-1 26 25 4 37 28 14 28 -9 0 -16 8 -16 17 0 13 3 14 12 5 7 -7 20 -12 29 -12z
m-93 -57 c-4 -20 -43 -27 -69 -13 -28 16 -17 25 31 27 32 1 40 -2 38 -14z m42
-71 c0 -5 -9 -17 -19 -26 -21 -19 -37 -7 -27 19 6 16 46 21 46 7z m83 -6 c5
-14 -10 -36 -25 -36 -4 0 -8 11 -8 25 0 27 24 35 33 11z m-62 -39 c-13 -13
-26 -3 -16 12 3 6 11 8 17 5 6 -4 6 -10 -1 -17z m-143 -39 c-4 -27 -28 -36
-28 -10 0 20 8 32 22 32 5 0 8 -10 6 -22z m59 7 c8 -22 -6 -33 -17 -15 -13 20
-12 30 0 30 6 0 13 -7 17 -15z m123 -5 c0 -5 -9 -6 -20 -3 -11 3 -17 9 -15 14
7 10 35 1 35 -11z m138 -33 c2 -10 -3 -17 -12 -17 -10 0 -16 9 -16 21 0 24 23
21 28 -4z m-275 -46 c-5 -3 -13 -15 -17 -26 -8 -19 -8 -19 -17 3 -7 18 -13 21
-35 16 -20 -5 -25 -3 -22 7 3 8 19 14 41 14 20 1 40 4 44 8 4 5 9 3 12 -4 2
-6 -1 -14 -6 -18z m137 -35 c0 -6 -5 -5 -12 2 -6 6 -18 8 -27 3 -11 -5 -22 -2
-33 11 -17 17 -17 18 1 18 11 0 23 5 27 11 7 12 43 -26 44 -45z m164 29 c-4
-8 -10 -12 -15 -9 -14 8 -10 24 6 24 9 0 12 -6 9 -15z m-186 -82 c2 -8 -5 -13
-16 -13 -12 0 -23 -9 -27 -21 -4 -13 -11 -17 -16 -12 -6 6 -6 20 1 37 7 20 16
27 32 24 12 -2 23 -9 26 -15z m-148 -39 c0 -7 9 -16 20 -19 20 -6 28 -25 11
-25 -5 0 -11 -10 -13 -22 -3 -23 -47 -42 -74 -31 -20 8 -7 23 21 23 28 0 48
29 35 50 -7 12 -12 11 -29 -4 -15 -13 -24 -15 -38 -8 -16 9 -15 11 10 23 16 7
27 20 27 32 0 16 3 17 15 7 8 -7 15 -18 15 -26z m360 -45 c0 -5 -7 -9 -15 -9
-8 0 -15 -7 -15 -17 0 -9 -3 -13 -7 -10 -9 9 18 58 29 51 4 -3 8 -9 8 -15z
m-240 -59 c0 -5 -7 -10 -15 -10 -8 0 -15 5 -15 10 0 6 7 10 15 10 8 0 15 -4
15 -10z m40 -45 c0 -16 -27 -32 -37 -21 -7 7 16 36 28 36 5 0 9 -7 9 -15z m23
-165 c-5 -131 4 -164 24 -92 10 33 11 27 9 -52 -1 -65 -5 -91 -14 -94 -10 -3
-13 6 -11 39 2 27 -1 44 -9 47 -7 2 -12 -7 -13 -25 0 -15 -4 -37 -9 -48 -7
-14 -9 3 -9 55 1 162 -1 182 -13 177 -9 -2 -13 -28 -13 -83 0 -74 -1 -79 -22
-82 -17 -3 -23 2 -23 15 0 10 -1 68 -3 129 -3 106 -3 110 15 92 27 -27 41 -23
71 25 10 15 19 27 21 27 3 0 2 -58 -1 -130z m361 -39 c8 -12 -70 -81 -90 -81
-15 0 -15 3 1 28 32 51 75 77 89 53z m-414 -171 c0 -33 -19 -40 -40 -15 -16
20 -5 45 20 45 16 0 20 -7 20 -30z m135 -157 c-3 -29 -10 -53 -14 -53 -11 0
-7 142 4 160 14 20 19 -38 10 -107z m-150 91 c21 -16 24 -60 10 -144 -12 -71
-46 -184 -61 -200 -17 -17 -18 -7 -4 40 8 26 21 224 20 313 0 11 13 8 35 -9z
m104 -54 c-1 -57 -4 -68 -14 -60 -7 6 -15 7 -18 3 -5 -8 -10 -58 -8 -80 2 -21
21 -14 21 7 0 22 7 25 29 11 10 -7 12 -22 7 -63 -4 -30 -3 -65 3 -78 5 -14 10
-20 11 -15 1 6 5 1 9 -10 5 -13 3 -28 -7 -43 -13 -19 -13 -30 -4 -56 7 -18 12
-41 12 -52 -1 -15 -8 -10 -35 21 -33 39 -34 42 -29 105 9 101 9 139 0 147 -11
12 -26 -19 -20 -44 3 -12 -1 -36 -10 -55 -13 -27 -15 -59 -12 -156 2 -67 -1
-122 -5 -122 -5 0 -9 11 -9 24 0 16 -7 26 -22 29 -30 8 -35 0 -18 -26 8 -12
17 -47 20 -77 4 -44 8 -55 23 -54 12 1 17 -5 17 -22 0 -13 -4 -24 -9 -24 -13
0 -41 41 -41 60 0 8 -7 28 -15 44 -8 15 -15 35 -15 43 0 8 -6 13 -12 10 -7 -2
-13 -15 -13 -28 0 -19 -10 -29 -45 -46 -25 -12 -47 -17 -48 -12 -2 6 8 34 22
63 14 29 26 57 26 61 0 8 43 106 60 137 6 10 10 25 10 33 0 9 9 35 19 58 16
36 39 124 70 278 10 45 18 59 37 59 11 0 14 -15 13 -70z m21 -497 c0 -6 9 -18
21 -27 26 -17 32 -80 9 -81 -8 -1 -21 3 -27 8 -7 5 -20 7 -28 3 -8 -3 -15 0
-15 7 0 7 -3 46 -6 87 l-5 75 25 -30 c14 -16 26 -35 26 -42z m356 -70 c-6 -20
-94 -68 -104 -58 -11 11 13 37 58 61 48 26 55 25 46 -3z m-204 -30 c27 -25 22
-35 -14 -28 -31 7 -47 20 -48 38 0 13 43 7 62 -10z m-335 -43 c-9 -42 1 -60
32 -60 15 0 32 -5 39 -12 13 -13 16 -48 5 -47 -20 1 -177 77 -180 86 -3 9 88
63 105 63 3 0 2 -13 -1 -30z m243 -10 c0 -10 7 -25 15 -34 26 -26 18 -45 -27
-57 -24 -6 -50 -14 -58 -17 -25 -9 -50 -10 -56 0 -3 4 7 33 22 62 21 41 35 56
58 63 37 12 46 8 46 -17z m110 -10 c0 -9 -31 -30 -44 -30 -3 0 -6 9 -6 20 0
15 7 20 25 20 14 0 25 -4 25 -10z m-205 -147 c-4 -10 -11 -31 -15 -48 -9 -36
-28 -85 -33 -85 -2 0 -1 28 1 63 3 41 9 66 20 75 23 17 35 15 27 -5z m10 -95
c-15 -46 -31 -87 -36 -92 -14 -15 -11 26 5 70 49 135 74 153 31 22z m-124 -9
c30 -32 33 -44 8 -34 -20 9 -63 65 -49 65 7 0 25 -14 41 -31z m-346 -384 c9
-42 15 -81 13 -87 -6 -17 -46 57 -48 89 -7 105 11 104 35 -2z m501 58 c-3 -10
-8 -65 -12 -123 -3 -58 -13 -122 -22 -143 -14 -35 -15 -37 -28 -19 -10 15 -11
34 -4 83 18 115 47 219 61 219 6 0 8 -8 5 -17z m-181 -27 c8 -7 16 -25 20 -40
3 -14 7 -37 10 -51 10 -46 -12 -26 -34 31 -28 75 -27 92 4 60z m-496 -23 c-20
-23 -80 -46 -91 -35 -6 6 -23 2 -45 -9 -20 -10 -40 -16 -46 -12 -15 9 41 36
113 54 85 22 85 22 69 2z m-180 -97 c10 -12 8 -13 -8 -9 -12 3 -21 9 -21 14 0
14 16 11 29 -5z m655 -80 c9 -20 21 -38 26 -41 14 -9 12 -25 -2 -25 -20 0 -98
108 -98 135 0 17 60 -39 74 -69z m-529 46 c46 -8 52 -21 13 -34 -21 -7 -34 -4
-62 14 -40 26 -48 44 -13 33 12 -4 40 -10 62 -13z m895 -21 c0 -28 -162 -153
-178 -137 -7 8 71 79 127 117 49 32 51 33 51 20z m-260 -105 c-1 -21 -1 -21
-15 -2 -21 27 -20 53 0 36 8 -7 15 -22 15 -34z m296 -92 c-9 -23 -94 -123
-133 -157 -23 -20 -37 -26 -48 -20 -12 7 -10 15 16 46 30 36 155 147 166 147
3 0 2 -7 -1 -16z m-266 -125 c0 -71 -2 -80 -15 -69 -16 13 -20 65 -9 119 12
57 24 32 24 -50z m260 -43 c0 -3 -25 -21 -55 -41 -44 -29 -68 -38 -117 -42
-61 -6 -63 -5 -46 13 17 19 71 39 137 49 19 3 41 10 50 15 17 10 31 13 31 6z
m-233 -121 c8 -9 28 -19 44 -22 35 -7 35 -7 8 -50 -27 -44 -49 -126 -49 -185
0 -27 -3 -48 -6 -48 -12 0 -33 35 -34 54 0 10 -11 31 -24 47 -13 15 -26 34
-29 41 -4 10 -8 10 -15 -1 -13 -18 -5 -47 41 -141 34 -69 34 -80 0 -80 -16 0
-37 -7 -47 -15 -11 -8 -23 -15 -28 -15 -4 0 -8 59 -8 130 0 145 7 165 84 240
19 19 36 41 36 48 0 16 8 15 27 -3z m153 -6 c10 -6 2 -8 -26 -9 -22 0 -49 7
-60 15 -17 14 -15 14 26 9 25 -4 52 -10 60 -15z m-83 -176 c-4 -38 -13 -88
-22 -113 l-14 -45 2 90 c3 80 16 135 34 135 3 0 3 -30 0 -67z m-1220 0 c29
-42 102 -194 109 -228 7 -28 6 -29 -10 -16 -39 32 -136 202 -152 265 -6 26 -5
27 14 17 11 -6 29 -23 39 -38z m1602 -74 c0 -33 3 -64 6 -69 8 -13 -17 -113
-33 -130 -12 -13 -13 -3 -10 80 4 74 24 180 34 180 1 0 2 -27 3 -61z m-637
-31 c-5 -84 -20 -170 -32 -182 -6 -6 -13 -1 -20 15 -22 49 -41 79 -51 79 -18
0 -8 31 21 63 16 17 39 44 51 60 11 15 24 27 28 27 4 0 6 -28 3 -62z m828 -11
c0 -21 -60 -107 -106 -152 -95 -93 -103 -85 -29 26 74 111 135 167 135 126z
m-328 -28 c10 -13 24 -48 31 -78 8 -30 24 -65 37 -78 31 -32 17 -43 -16 -12
-28 26 -94 155 -94 183 0 23 19 16 42 -15z m-972 -33 c0 -13 -9 -34 -19 -47
-17 -21 -20 -22 -26 -7 -4 11 2 29 15 48 26 36 30 37 30 6z m-156 -138 c-9
-45 -21 -111 -28 -146 l-11 -63 -19 32 c-16 27 -18 44 -12 115 6 83 22 132 61
189 l20 30 3 -37 c2 -20 -4 -74 -14 -120z m776 88 c0 -7 -100 -56 -113 -56
-19 1 36 40 55 40 9 0 20 5 23 10 6 10 35 14 35 6z m-680 -57 c0 -28 -45 -121
-84 -174 -26 -36 0 70 35 141 35 71 49 80 49 33z m470 -288 c0 -12 -59 -55
-66 -49 -2 3 5 17 17 31 20 26 49 36 49 18z m-610 -13 c-1 -22 -37 -91 -64
-123 -23 -27 -25 -28 -26 -9 0 23 35 101 58 127 18 20 32 22 32 5z m180 -298
c0 -5 -6 -10 -14 -10 -8 0 -18 5 -21 10 -3 6 3 10 14 10 12 0 21 -4 21 -10z
m543 -57 c-7 -2 -19 -2 -25 0 -7 3 -2 5 12 5 14 0 19 -2 13 -5z m-356 -65 c0
-24 2 -69 3 -100 0 -32 5 -58 11 -58 5 0 9 -24 8 -52 -1 -29 -1 -61 0 -71 1
-24 21 -11 21 14 0 10 5 19 10 19 6 0 10 -4 10 -10 0 -5 5 -10 10 -10 6 0 10
25 10 55 0 30 4 55 8 55 4 0 6 -16 4 -35 -2 -20 0 -35 6 -35 9 0 30 120 35
204 1 22 8 41 15 44 15 5 17 -94 2 -133 -13 -35 -3 -75 20 -75 23 0 54 65 52
110 -1 19 2 51 7 70 l9 35 1 -32 c1 -17 8 -39 17 -47 8 -9 13 -16 9 -16 -3 0
-3 -5 1 -12 5 -7 11 -5 21 8 13 17 14 17 7 -10 -6 -24 -4 -28 9 -23 13 5 15 0
10 -31 -3 -20 -12 -60 -19 -88 -8 -29 -14 -67 -13 -85 1 -19 -1 -52 -5 -74 -7
-47 4 -65 52 -82 29 -10 34 -9 38 5 21 67 43 84 26 21 -9 -37 -38 -56 -98 -66
-30 -5 -35 -3 -32 12 4 24 -19 31 -26 8 -3 -11 -4 -9 -3 7 2 38 -18 40 -21 3
-3 -32 -5 -33 -48 -33 -60 0 -85 25 -78 80 3 22 1 40 -5 40 -14 0 -23 -37 -16
-61 5 -16 3 -20 -6 -16 -8 2 -21 -2 -30 -10 -23 -19 -66 -7 -73 20 -9 35 -7
97 4 97 6 0 10 -17 10 -37 0 -47 12 -66 36 -61 11 2 19 14 21 35 3 25 0 33
-17 38 -16 5 -20 15 -20 51 0 30 -5 46 -15 50 -17 7 -21 70 -5 76 13 4 16 96
6 181 -6 53 -5 67 6 67 8 0 14 -15 15 -42z m-90 16 c2 -6 -6 -14 -17 -17 -15
-4 -20 -11 -17 -24 15 -52 18 -83 8 -83 -6 0 -11 12 -12 28 -1 42 -9 76 -19
86 -6 6 -10 14 -10 19 0 12 63 4 67 -9z m161 -46 c0 -43 -3 -57 -8 -43 -11 27
-12 105 -1 105 4 0 8 -28 9 -62z m48 46 c-3 -9 -6 -20 -6 -25 0 -6 -4 -8 -9
-5 -12 8 -2 46 11 46 6 0 7 -7 4 -16z m244 -5 c-8 -5 -28 -7 -44 -4 -16 3 -36
0 -44 -7 -13 -11 -14 -10 -10 2 3 10 22 17 54 20 55 6 65 3 44 -11z m-157 -51
c-1 -35 -2 -68 -3 -74 0 -5 -7 -19 -15 -30 -13 -17 -14 -13 -10 41 2 33 4 75
5 93 0 19 5 32 13 32 8 0 11 -18 10 -62z m218 -31 c-10 -9 -11 -8 -5 6 3 10 9
15 12 12 3 -3 0 -11 -7 -18z m-15 -59 c-4 -22 -11 -48 -17 -57 -7 -12 -8 -5
-4 24 8 51 15 75 22 75 3 0 3 -19 -1 -42z m-348 -12 c-2 -12 -7 -20 -13 -19
-17 3 -29 29 -21 48 5 14 9 15 22 5 8 -8 14 -23 12 -34z m306 -3 c-6 -34 -24
-70 -24 -49 0 14 23 86 27 86 2 0 1 -17 -3 -37z m-404 -5 c0 -23 -3 -29 -9
-19 -8 12 -4 51 5 51 2 0 4 -15 4 -32z m-24 -85 c4 -40 3 -63 -5 -67 -7 -5
-11 1 -12 16 0 13 -1 46 -2 75 -3 70 11 53 19 -24z m111 15 c-3 -8 -6 -5 -6 6
-1 11 2 17 5 13 3 -3 4 -12 1 -19z m289 -45 c-11 -11 -17 4 -9 23 7 18 8 18
11 1 2 -10 1 -21 -2 -24z m39 5 c-8 -40 -26 -90 -31 -85 -2 2 0 17 5 33 5 16
12 41 15 57 9 38 19 34 11 -5z m87 -10 c-8 -8 -9 -4 -5 13 4 13 8 18 11 10 2
-7 -1 -18 -6 -23z m-65 -25 c-3 -10 -5 -4 -5 12 0 17 2 24 5 18 2 -7 2 -21 0
-30z m-430 -35 c-3 -7 -5 -2 -5 12 0 14 2 19 5 13 2 -7 2 -19 0 -25z m419 -34
c-4 -9 -9 -15 -11 -12 -3 3 -3 13 1 22 4 9 9 15 11 12 3 -3 3 -13 -1 -22z
m-51 -34 c-4 -12 -9 -19 -12 -17 -3 3 -2 15 2 27 4 12 9 19 12 17 3 -3 2 -15
-2 -27z m405 -36 c0 -4 -8 -13 -17 -20 -13 -9 -56 -13 -147 -14 -71 0 -126 3
-122 7 8 9 9 9 141 17 60 4 111 9 114 11 7 7 31 6 31 -1z m-187 -61 c-7 -2
-19 -2 -25 0 -7 3 -2 5 12 5 14 0 19 -2 13 -5z m-153 -27 c0 -3 -4 -8 -10 -11
-5 -3 -10 -1 -10 4 0 6 5 11 10 11 6 0 10 -2 10 -4z m43 -3 c-7 -2 -19 -2 -25
0 -7 3 -2 5 12 5 14 0 19 -2 13 -5z m91 -2 c3 -4 -6 -6 -19 -3 -14 2 -25 6
-25 8 0 8 39 4 44 -5z m46 -1 c0 -5 -4 -10 -10 -10 -5 0 -10 5 -10 10 0 6 5
10 10 10 6 0 10 -4 10 -10z m-112 -27 c-10 -2 -26 -2 -35 0 -10 3 -2 5 17 5
19 0 27 -2 18 -5z"/>
<path d="M7677 4703 c-4 -3 -7 -11 -7 -17 0 -6 5 -5 12 2 6 6 9 14 7 17 -3 3
-9 2 -12 -2z"/>
<path d="M7870 4391 c0 -12 6 -21 15 -21 8 0 15 4 15 9 0 5 -7 14 -15 21 -13
10 -15 9 -15 -9z"/>
<path d="M7430 1551 c-7 -14 -7 -22 1 -27 10 -6 28 11 29 28 0 17 -20 17 -30
-1z"/>
<path d="M7482 1534 c2 -11 8 -18 13 -16 15 3 12 25 -3 30 -9 3 -13 -2 -10
-14z"/>
<path d="M7805 6290 c-10 -16 9 -33 30 -28 16 3 15 5 -3 21 -14 13 -22 15 -27
7z"/>
<path d="M7834 6225 c-7 -17 4 -37 17 -30 12 8 12 45 -1 45 -6 0 -13 -7 -16
-15z"/>
<path d="M7825 5610 c-18 -20 -18 -21 2 -43 12 -12 23 -33 25 -47 3 -26 24
-31 22 -5 0 8 -1 38 -2 65 -2 55 -16 64 -47 30z"/>
<path d="M7318 4351 c-56 -51 -70 -73 -107 -156 -47 -108 -60 -158 -41 -170 7
-4 15 -3 19 2 3 5 35 16 70 23 36 7 73 22 83 32 20 20 28 23 28 9 0 -15 -66
-51 -94 -51 -21 0 -26 -5 -26 -25 0 -33 24 -45 69 -33 59 16 119 21 101 9 -8
-6 -25 -11 -37 -11 -12 0 -34 -5 -50 -12 -15 -6 -32 -10 -38 -8 -8 2 -26 5
-56 9 -4 1 -10 12 -13 25 -5 19 -11 22 -33 18 -16 -2 -34 -9 -41 -15 -7 -5
-31 -12 -54 -14 -68 -7 -111 -52 -98 -103 6 -27 40 -41 40 -17 0 7 11 20 25
27 25 13 33 30 15 30 -5 0 -10 7 -10 15 0 9 6 15 13 14 28 -3 45 2 67 21 24
21 43 18 33 -5 -4 -11 -1 -13 11 -9 9 3 22 2 29 -3 17 -14 86 -24 92 -13 3 4
24 11 48 15 74 12 177 73 177 105 0 13 -6 13 -41 -6 -17 -8 -38 -14 -47 -13
-9 2 -48 -7 -86 -19 -86 -28 -91 -27 -38 3 80 46 152 136 188 237 17 48 5 55
-30 19 -20 -21 -24 -30 -14 -34 21 -7 -4 -40 -40 -52 -17 -6 -44 -27 -59 -47
-29 -38 -70 -62 -97 -56 -12 2 -8 12 16 48 34 49 118 231 118 255 0 28 -27 15
-92 -44z m22 -61 c-11 -28 -20 -53 -20 -55 0 -3 -4 -5 -9 -5 -21 0 23 107 46
110 2 0 -6 -23 -17 -50z m-96 -115 c-4 -8 -8 -15 -10 -15 -2 0 -4 7 -4 15 0 8
4 15 10 15 5 0 7 -7 4 -15z m-18 -83 c-12 -12 -18 8 -10 35 l8 28 4 -28 c2
-16 1 -31 -2 -35z"/>
<path d="M7358 4213 c-18 -21 -41 -63 -34 -63 9 0 59 70 54 75 -3 3 -12 -3
-20 -12z"/>
<path d="M7914 4118 c4 -18 14 -69 21 -112 16 -84 20 -95 34 -80 6 5 5 29 -1
59 -6 28 -11 66 -12 85 -3 51 -15 80 -33 80 -12 0 -14 -7 -9 -32z"/>
<path d="M8020 4114 c0 -4 12 -18 26 -31 24 -22 28 -23 42 -10 18 19 7 39 -21
35 -12 -1 -28 1 -34 5 -7 5 -13 5 -13 1z"/>
<path d="M7560 3990 c0 -5 5 -10 10 -10 6 0 10 5 10 10 0 6 -4 10 -10 10 -5 0
-10 -4 -10 -10z"/>
<path d="M8052 3954 c-9 -16 -8 -25 2 -39 17 -24 27 -6 17 31 -7 28 -8 28 -19
8z"/>
<path d="M8200 3963 c0 -6 -12 -13 -27 -15 l-28 -3 2 -82 c2 -107 31 -197 78
-243 32 -31 49 -70 24 -54 -13 7 -8 -220 5 -248 15 -32 -12 -19 -65 32 -29 27
-57 46 -62 43 -5 -3 -7 -36 -4 -77 4 -67 7 -72 42 -103 21 -18 44 -33 52 -33
7 0 13 -4 13 -10 0 -5 -7 -10 -15 -10 -8 0 -15 -4 -15 -10 0 -5 -6 -10 -12
-10 -7 -1 -42 -27 -78 -60 -78 -70 -75 -91 8 -60 30 11 58 18 63 15 16 -11 49
6 49 24 0 9 23 39 50 66 52 51 55 50 50 -12 -1 -13 3 -23 9 -23 6 0 11 13 11
29 0 16 7 37 16 46 15 15 15 18 -5 39 -18 19 -20 28 -12 48 8 20 15 25 35 21
20 -4 26 -1 26 12 0 11 -5 15 -14 12 -18 -7 -36 15 -69 83 -39 81 -56 137 -47
146 4 5 10 18 12 29 2 15 16 -2 49 -60 25 -44 50 -92 57 -107 14 -34 59 -65
73 -51 6 6 5 14 -5 22 -11 9 -13 25 -9 64 3 29 10 57 14 63 14 17 -48 124 -72
124 -25 0 -24 -8 3 -37 12 -13 19 -25 16 -28 -10 -10 -33 7 -55 40 -20 32 -21
35 -5 47 15 11 51 102 58 148 1 8 8 38 14 65 16 68 11 99 -18 103 -18 3 -27
-6 -47 -50 -14 -29 -25 -59 -25 -66 0 -7 -11 -35 -25 -62 -14 -27 -25 -57 -26
-67 -1 -10 -10 9 -20 41 -11 33 -25 67 -33 75 -18 21 -29 71 -16 71 15 0 12
43 -5 66 -8 10 -15 14 -15 7z m204 -95 c-9 -62 -53 -190 -71 -208 -13 -13 -14
-10 -7 25 6 39 57 195 69 215 12 20 15 9 9 -32z m-185 -81 c32 -96 38 -137 21
-137 -13 0 -32 38 -25 50 3 6 -1 20 -9 32 -9 12 -16 37 -16 55 0 17 -4 35 -10
38 -12 8 -13 55 -1 55 5 0 23 -42 40 -93z m75 -394 c27 -55 42 -128 28 -137
-13 -8 -27 11 -41 54 -10 34 -22 130 -15 130 2 0 14 -21 28 -47z m-54 -119
c30 -28 61 -53 69 -55 9 -3 11 -10 7 -18 -5 -7 -15 -9 -25 -5 -9 4 -28 6 -42
5 -50 -2 -124 91 -111 141 5 22 5 22 102 -68z m40 -122 c0 -9 -75 -72 -86 -72
-3 0 0 8 7 17 13 15 12 16 -9 11 -20 -6 -21 -4 -11 8 22 27 99 54 99 36z
m-145 -98 c-23 -17 -32 -10 -15 11 7 8 17 12 23 8 6 -4 3 -11 -8 -19z"/>
<path d="M8180 3279 c0 -22 33 -63 48 -58 6 2 -1 19 -18 39 -20 24 -30 30 -30
19z"/>
<path d="M7405 3900 c-3 -5 1 -10 10 -10 9 0 13 5 10 10 -3 6 -8 10 -10 10 -2
0 -7 -4 -10 -10z"/>
<path d="M7910 3900 c0 -5 5 -10 10 -10 6 0 10 5 10 10 0 6 -4 10 -10 10 -5 0
-10 -4 -10 -10z"/>
<path d="M8263 3883 c-15 -6 -17 -36 -4 -61 5 -9 12 -25 15 -35 11 -35 26 -6
22 41 -3 26 -5 50 -5 55 -1 8 -10 8 -28 0z"/>
<path d="M7078 3494 c-3 -3 8 -32 24 -65 17 -33 28 -62 26 -65 -7 -6 -78 24
-110 48 -20 14 -28 28 -28 50 0 19 -4 28 -12 25 -21 -7 -9 -60 20 -90 26 -27
116 -62 134 -51 5 3 16 0 24 -7 23 -19 29 -1 7 24 -11 12 -28 43 -38 69 -18
47 -37 73 -47 62z"/>
<path d="M7535 3446 c-22 -26 -43 -42 -51 -39 -15 6 -57 -76 -69 -134 -9 -43
17 -50 86 -24 29 11 55 19 57 17 2 -2 -25 -23 -60 -47 -76 -51 -72 -48 -66
-54 8 -8 149 89 187 129 35 36 37 64 3 33 -22 -20 -146 -77 -167 -77 -25 0
-17 28 13 44 32 17 152 139 152 156 0 6 -37 -25 -81 -70 -81 -81 -110 -98 -70
-42 38 54 84 102 98 102 7 0 13 11 13 25 0 14 -2 25 -4 25 -2 0 -20 -20 -41
-44z"/>
<path d="M7661 3217 c-16 -42 -24 -117 -13 -117 13 0 18 18 27 88 7 55 1 68
-14 29z"/>
<path d="M8427 3203 c-30 -48 -39 -73 -27 -73 5 0 19 18 30 39 11 22 24 42 30
46 13 8 13 25 0 25 -5 0 -20 -17 -33 -37z"/>
<path d="M7207 3164 c-38 -58 -44 -74 -28 -74 5 0 15 14 22 32 7 18 26 47 42
65 18 21 24 33 15 33 -7 0 -30 -25 -51 -56z"/>
<path d="M7700 3210 c0 -5 5 -10 10 -10 6 0 10 5 10 10 0 6 -4 10 -10 10 -5 0
-10 -4 -10 -10z"/>
<path d="M7375 3189 c-10 -15 3 -25 16 -12 7 7 7 13 1 17 -6 3 -14 1 -17 -5z"/>
<path d="M8362 3074 c-14 -27 0 -51 17 -30 9 10 10 20 3 32 -9 16 -10 16 -20
-2z"/>
<path d="M8356 2974 c-19 -40 -14 -54 12 -38 18 11 30 74 14 74 -4 0 -16 -16
-26 -36z"/>
<path d="M7092 2983 c-10 -19 -10 -24 5 -31 52 -27 231 -38 254 -15 8 8 -10
11 -63 11 -104 0 -108 1 -105 13 1 6 -4 14 -12 17 -10 3 -12 0 -8 -12 4 -11 1
-16 -11 -16 -24 0 -39 12 -44 35 -4 19 -4 19 -16 -2z"/>
<path d="M6505 2879 c-4 -5 5 -35 20 -65 22 -46 39 -62 102 -104 81 -54 93
-58 93 -35 0 8 -19 24 -41 36 -29 14 -38 24 -31 31 12 12 -6 47 -47 90 -14 14
-32 33 -39 42 -15 18 -48 21 -57 5z m110 -100 c9 -17 15 -33 12 -35 -5 -6 -57
46 -57 57 0 21 31 6 45 -22z"/>
<path d="M7530 2614 c0 -8 5 -12 10 -9 6 4 8 11 5 16 -9 14 -15 11 -15 -7z"/>
<path d="M7523 2550 c-13 -5 -23 -14 -23 -19 0 -7 9 -6 25 1 14 6 25 15 25 20
0 9 2 9 -27 -2z"/>
<path d="M7510 2486 c0 -15 18 -31 26 -23 7 7 -7 37 -17 37 -5 0 -9 -6 -9 -14z"/>
<path d="M7090 2429 c0 -24 16 -49 32 -49 8 0 -10 48 -24 65 -4 5 -8 -2 -8
-16z"/>
<path d="M7120 2238 c0 -7 6 -35 13 -63 10 -39 18 -51 35 -53 28 -4 28 -2 -5
69 -26 56 -43 75 -43 47z"/>
<path d="M7256 2241 c-7 -11 13 -71 24 -71 18 0 20 21 5 50 -17 32 -21 35 -29
21z"/>
<path d="M2910 2190 c-13 -3 -25 -11 -27 -17 -3 -9 37 -11 154 -8 87 2 161 4
166 4 4 1 7 8 7 16 0 12 -21 14 -139 12 -76 -1 -149 -4 -161 -7z"/>
<path d="M1595 2140 c-11 -18 5 -30 41 -30 38 0 45 14 15 30 -25 13 -48 13
-56 0z"/>
<path d="M7740 2140 c0 -5 7 -10 15 -10 8 0 15 5 15 10 0 6 -7 10 -15 10 -8 0
-15 -4 -15 -10z"/>
<path d="M3483 2082 c-27 -4 -47 -27 -38 -42 5 -9 10 -9 18 -1 6 6 32 11 58
11 50 0 68 11 46 28 -12 10 -42 11 -84 4z"/>
<path d="M3003 2072 c-13 -2 -23 -9 -23 -17 0 -9 27 -14 103 -17 95 -4 116 0
117 24 0 7 -160 15 -197 10z"/>
<path d="M1207 2032 c-13 -3 -25 -21 -14 -22 109 -14 307 -4 297 14 -5 8 -246
15 -283 8z"/>
<path d="M8285 1920 c-8 -13 -13 -11 73 -16 57 -3 73 -1 70 8 -6 16 -133 24
-143 8z"/>
<path d="M963 1893 c-24 -9 -13 -18 19 -16 48 2 48 2 48 13 0 10 -45 12 -67 3z"/>
<path d="M3179 1879 c-75 -6 -119 -21 -119 -39 0 -6 -34 -10 -76 -10 -41 0
-84 -5 -95 -10 -24 -13 -26 -35 -1 -25 9 5 94 9 187 10 94 1 186 7 205 14 19
6 79 11 132 11 80 0 98 3 98 15 0 8 -8 16 -17 16 -37 3 -116 -2 -124 -6 -4 -3
-11 1 -16 8 -10 18 -78 24 -174 16z m121 -27 c0 -11 -68 -20 -150 -21 -61 0
-57 5 11 17 67 12 139 14 139 4z"/>
<path d="M2930 1860 c0 -5 7 -10 15 -10 8 0 15 5 15 10 0 6 -7 10 -15 10 -8 0
-15 -4 -15 -10z"/>
<path d="M1378 1844 c-18 -10 -12 -12 41 -16 96 -7 282 3 278 15 -4 14 -293
15 -319 1z"/>
<path d="M2860 1840 c0 -5 9 -10 20 -10 11 0 20 5 20 10 0 6 -9 10 -20 10 -11
0 -20 -4 -20 -10z"/>
<path d="M7970 1798 c-38 -14 -20 -28 40 -29 33 -1 66 -2 73 -3 6 -1 12 6 12
14 0 17 -91 31 -125 18z"/>
<path d="M3316 1790 c-79 -3 -121 -9 -123 -17 -3 -9 35 -10 154 -6 87 4 170 6
186 7 15 0 27 6 27 13 0 13 -10 13 -244 3z"/>
<path d="M6588 1793 c-17 -3 -28 -11 -28 -20 0 -11 6 -14 23 -9 12 3 41 6 65
6 31 0 42 4 42 15 0 15 -36 18 -102 8z"/>
<path d="M6926 1793 c-3 -4 -6 -12 -6 -20 0 -9 17 -13 59 -13 55 0 84 11 63
24 -13 8 -109 15 -116 9z"/>
<path d="M8442 1788 c-18 -6 -31 -16 -29 -22 2 -6 7 -10 10 -8 4 1 25 2 48 2
33 0 40 3 37 17 -4 22 -23 25 -66 11z"/>
<path d="M3303 1667 c-55 -10 -63 -15 -43 -27 11 -7 1 -10 -31 -10 -60 0 -139
-11 -139 -19 0 -3 9 -12 21 -19 15 -10 69 -13 192 -14 223 0 219 0 215 14 -3
7 -33 11 -89 10 -73 -1 -80 0 -49 10 19 5 65 8 103 5 43 -4 67 -2 67 5 0 5 -9
12 -20 15 -11 3 -20 11 -20 18 0 17 -136 24 -207 12z m187 -18 c8 -1 -32 -5
-90 -9 -102 -6 -155 -1 -96 10 27 5 151 4 186 -1z m-227 -46 c-7 -2 -21 -2
-30 0 -10 3 -4 5 12 5 17 0 24 -2 18 -5z"/>
<path d="M6732 1672 c-13 -2 -21 -9 -19 -15 5 -16 129 -16 134 0 4 11 -70 21
-115 15z"/>
<path d="M8018 1675 c-2 -2 -32 -6 -67 -9 -36 -4 -69 -10 -75 -14 -20 -12 52
-19 106 -10 29 4 68 6 87 3 25 -5 32 -3 29 7 -4 11 -72 30 -80 23z"/>
<path d="M7005 1660 c-3 -6 0 -13 8 -16 24 -9 80 0 85 14 5 15 -84 17 -93 2z"/>
<path d="M1520 1650 c-8 -5 -12 -11 -10 -13 10 -8 280 6 280 14 0 12 -251 11
-270 -1z"/>
<path d="M8368 1653 c-21 -2 -38 -8 -38 -14 0 -10 28 -14 75 -9 17 1 41 3 54
4 13 0 26 7 29 14 4 12 -34 14 -120 5z"/>
<path d="M2327 1644 c-9 -10 2 -24 19 -24 8 0 14 7 14 15 0 15 -21 21 -33 9z"/>
<path d="M2425 1610 c-4 -6 7 -10 24 -10 17 0 31 5 31 10 0 6 -11 10 -24 10
-14 0 -28 -4 -31 -10z"/>
<path d="M2625 1610 c-41 -6 -34 -14 18 -23 15 -2 30 0 33 5 11 17 -10 24 -51
18z"/>
<path d="M2912 1603 c-23 -2 -40 -8 -38 -12 3 -4 -38 -14 -90 -21 -52 -8 -91
-17 -87 -21 5 -4 40 -4 78 1 39 5 98 9 133 10 34 0 62 4 62 10 0 6 11 10 24
10 14 0 28 5 31 10 3 6 -5 10 -19 10 -13 0 -30 1 -38 3 -7 2 -32 2 -56 0z"/>
<path d="M6360 1581 c0 -15 27 -20 84 -14 79 8 70 23 -14 23 -38 0 -70 -4 -70
-9z"/>
<path d="M2020 1555 c-8 -2 -32 -6 -52 -10 -60 -9 -47 -28 15 -21 28 3 80 9
115 12 34 4 62 11 62 15 0 8 -106 11 -140 4z"/>
<path d="M2483 1547 c-55 -21 -50 -29 12 -22 67 8 78 12 70 26 -8 12 -42 10
-82 -4z"/>
<path d="M6833 1516 c-7 -10 16 -26 38 -26 44 0 109 14 109 24 0 14 -139 16
-147 2z"/>
<path d="M1615 1420 c-3 -6 24 -9 70 -9 41 0 75 5 75 10 0 12 -137 12 -145 -1z"/>
<path d="M7080 1413 c0 -7 8 -13 18 -13 169 -4 240 -4 234 2 -4 3 -62 10 -129
15 -97 6 -123 6 -123 -4z"/>
<path d="M6557 1389 c-29 -17 -9 -29 46 -29 29 0 84 0 122 -1 122 -1 140 0
129 11 -6 6 -49 13 -95 16 -46 2 -106 6 -134 9 -27 2 -58 0 -68 -6z"/>
<path d="M1107 1383 c-13 -12 -7 -23 12 -23 28 0 52 11 45 21 -6 10 -48 12
-57 2z"/>
<path d="M7575 1361 c-4 -8 30 -11 112 -12 65 -1 129 -2 142 -3 13 0 26 4 28
9 4 14 -273 20 -282 6z"/>
<path d="M7146 1299 c-29 -17 -2 -27 52 -19 26 4 82 6 125 5 54 -2 77 1 74 9
-5 15 -226 19 -251 5z"/>
<path d="M8730 1285 c-11 -30 -54 -34 -69 -7 -13 23 -34 3 -29 -29 2 -18 10
-25 31 -27 47 -6 119 51 101 79 -10 16 -24 9 -34 -16z"/>
<path d="M7490 1290 c-50 -12 -29 -26 40 -27 50 -1 70 2 67 10 -4 14 -73 25
-107 17z"/>
<path d="M8439 1231 c-6 -22 -9 -47 -5 -56 5 -15 9 -14 37 6 29 20 32 21 41 6
18 -32 68 -14 68 25 0 22 -18 24 -26 3 -10 -25 -27 -17 -22 10 3 14 2 25 -2
25 -3 0 -17 -11 -30 -25 -31 -33 -44 -32 -37 5 9 45 -10 46 -24 1z"/>
<path d="M8069 1255 c-3 -3 -34 -11 -69 -18 -81 -16 -94 -39 -18 -31 70 8 120
23 115 37 -4 12 -21 20 -28 12z"/>
<path d="M8262 1207 c-25 -59 -27 -71 -11 -61 11 6 49 88 49 105 0 25 -19 3
-38 -44z"/>
<path d="M8317 1253 c-12 -12 -7 -23 11 -23 16 -1 16 -1 0 -14 -20 -14 -24
-51 -8 -61 13 -8 50 4 50 16 0 5 -7 9 -15 9 -20 0 -19 19 1 41 9 10 13 23 9
28 -7 12 -38 15 -48 4z"/>
<path d="M8784 1245 c-9 -22 1 -29 15 -11 8 10 9 16 1 21 -5 3 -13 -1 -16 -10z"/>
<path d="M7020 1165 c0 -12 11 -15 48 -14 26 1 54 0 62 -2 8 -2 15 3 15 11 0
11 -15 16 -62 18 -52 2 -63 0 -63 -13z"/>
<path d="M8624 1166 c-8 -22 3 -33 18 -18 9 9 9 15 0 24 -9 9 -13 7 -18 -6z"/>
<path d="M7546 1145 c-39 -20 -20 -28 54 -25 41 2 91 3 110 2 49 -3 80 6 75
21 -6 15 -209 17 -239 2z"/>
<path d="M317 913 c-4 -3 -7 -39 -7 -80 0 -81 3 -85 81 -98 21 -3 43 -12 50
-21 26 -32 10 -322 -26 -440 -12 -40 -11 -46 7 -69 13 -17 29 -25 49 -25 36 0
107 38 114 62 8 23 9 322 1 393 -8 75 1 90 45 81 135 -25 151 -17 157 79 3 36
1 70 -4 75 -17 16 -301 30 -323 15 -14 -8 -95 12 -99 24 -4 12 -35 15 -45 4z
m233 -57 c74 -2 152 -4 173 -5 l37 -1 0 -49 c0 -69 -13 -77 -99 -61 -111 21
-106 33 -106 -247 l0 -238 -39 -18 c-51 -24 -70 -17 -62 26 18 83 37 310 32
382 -5 90 -19 111 -86 121 -51 8 -65 18 -55 40 4 11 7 29 6 42 -2 21 0 23 31
17 18 -3 94 -7 168 -9z"/>
<path d="M835 880 c-3 -6 -8 -47 -10 -93 -2 -45 -11 -120 -20 -167 -9 -47 -20
-107 -24 -135 -5 -27 -13 -75 -19 -105 -14 -73 -20 -157 -13 -167 3 -4 23 -17
43 -28 35 -18 38 -18 56 -2 16 15 20 33 22 110 4 167 6 177 44 177 44 0 51
-22 38 -114 -7 -45 -12 -93 -12 -107 0 -30 28 -59 57 -59 38 0 53 31 58 123 2
47 9 105 15 129 17 74 13 112 -15 138 -21 20 -31 22 -80 17 l-57 -6 3 123 c3
103 0 128 -14 150 -18 26 -60 36 -72 16z m51 -42 c5 -7 7 -72 6 -144 -3 -150
-5 -148 87 -137 71 8 77 -3 57 -127 -9 -55 -16 -123 -16 -151 0 -37 -4 -51
-16 -56 -26 -10 -44 22 -33 60 12 44 15 185 4 196 -19 16 -94 20 -109 5 -15
-15 -25 -73 -30 -192 -2 -41 -6 -76 -9 -78 -9 -9 -47 20 -47 36 0 8 11 80 24
160 34 209 49 338 45 393 -4 39 -1 47 13 47 9 0 20 -6 24 -12z"/>
<path d="M1925 876 c-10 -7 -27 -11 -37 -8 -28 7 -21 -15 12 -40 42 -30 54
-82 46 -193 -3 -49 -9 -152 -12 -227 -7 -153 0 -179 52 -192 58 -15 119 41 79
70 -33 24 -40 156 -20 382 7 76 -15 163 -50 198 -27 27 -43 30 -70 10z m69
-56 c19 -32 21 -48 17 -165 -2 -71 -4 -180 -5 -242 0 -104 1 -114 23 -137 22
-24 22 -24 2 -31 -26 -8 -60 14 -68 44 -3 13 -3 97 2 185 4 89 9 186 10 216 2
59 -19 150 -35 150 -6 0 -10 5 -10 11 0 24 45 2 64 -31z"/>
<path d="M2658 877 c-85 -28 -121 -107 -138 -306 -12 -124 -6 -226 15 -278 18
-42 105 -93 161 -93 33 0 48 7 80 38 21 20 44 45 49 55 9 17 12 17 40 3 17 -9
33 -12 38 -7 9 9 11 157 2 171 -2 4 -15 8 -27 8 -13 0 -45 5 -73 10 -57 12
-64 7 -66 -48 -1 -62 -6 -82 -19 -90 -23 -14 -51 2 -66 39 -14 31 -14 58 -6
187 7 105 15 160 26 183 31 59 68 54 91 -12 7 -21 15 -40 17 -42 2 -3 21 3 42
13 38 17 38 17 32 65 -4 26 -9 54 -13 62 -14 38 -121 62 -185 42z m105 -21
c32 -8 67 -58 67 -98 0 -40 -28 -36 -45 7 -18 41 -40 55 -78 48 -61 -12 -83
-78 -93 -281 -6 -111 -5 -132 11 -162 23 -44 43 -59 76 -60 37 0 53 24 59 89
5 52 7 56 30 55 24 -2 83 -13 86 -17 6 -8 11 -117 6 -117 -4 1 -18 7 -32 15
-35 20 -37 19 -50 -20 -25 -77 -115 -98 -188 -45 -50 36 -60 69 -63 195 -4
186 19 312 66 357 23 22 90 48 110 42 6 -1 23 -5 38 -8z"/>
<path d="M1672 870 c-43 -10 -67 -32 -93 -87 -24 -49 -23 -45 -38 -271 -10
-158 -8 -192 11 -230 13 -26 76 -57 138 -67 38 -6 45 -4 77 26 51 49 71 97 94
217 34 184 25 277 -38 358 -44 58 -80 71 -151 54z m94 -39 c49 -30 67 -81 72
-198 5 -114 -9 -213 -39 -290 -19 -48 -24 -53 -78 -73 -55 -20 -59 -20 -93 -5
-62 30 -66 50 -53 290 10 192 22 244 65 273 40 27 85 28 126 3z"/>
<path d="M1663 778 c-25 -31 -38 -101 -51 -268 -11 -128 15 -200 71 -200 65 0
97 101 98 316 1 95 -14 145 -46 158 -32 12 -38 6 -18 -16 42 -46 46 -65 39
-187 -7 -117 -21 -196 -39 -218 -5 -7 -19 -13 -32 -13 -37 0 -45 36 -40 187 5
150 10 184 31 226 15 27 5 38 -13 15z"/>
<path d="M3801 867 c-6 -8 -7 -17 -3 -21 4 -5 -2 -6 -12 -4 -29 5 -31 -21 -3
-31 22 -8 26 -17 29 -63 5 -84 1 -98 -31 -98 -55 0 -90 -20 -118 -68 -25 -42
-28 -57 -31 -172 -3 -112 -1 -128 17 -157 26 -41 71 -60 155 -66 53 -3 66 -1
72 12 3 9 10 97 15 196 5 99 13 203 18 230 6 28 10 81 10 119 1 64 -1 70 -33
102 -36 36 -66 43 -85 21z m66 -41 c26 -23 28 -29 26 -89 -1 -36 -10 -107 -19
-159 -9 -51 -16 -136 -15 -188 1 -52 -2 -112 -5 -133 -6 -37 -6 -37 -55 -37
-69 0 -107 22 -131 77 -17 39 -19 58 -13 132 11 144 48 194 141 194 l46 0 -4
105 c-3 74 -9 106 -19 113 -11 7 -11 9 3 9 9 0 30 -11 45 -24z"/>
<path d="M3743 565 c-30 -21 -53 -103 -53 -190 0 -62 3 -74 23 -93 28 -26 59
-28 82 -6 13 13 15 39 13 157 -3 133 -4 142 -23 145 -11 1 -30 -4 -42 -13z
m40 -70 c-1 -28 -2 -85 -2 -127 -1 -71 -3 -78 -21 -78 -29 0 -40 31 -40 115 0
88 20 148 47 143 15 -3 18 -13 16 -53z"/>
<path d="M7125 873 c-79 -5 -113 -13 -130 -29 -8 -9 -23 -17 -33 -18 -9 -2
-17 -7 -17 -12 0 -5 -8 -20 -18 -35 -39 -58 -77 -285 -70 -418 8 -154 151
-251 266 -181 88 53 128 160 130 348 2 182 -8 244 -48 296 -18 24 -31 47 -28
50 4 3 4 5 2 4 -2 -1 -26 -3 -54 -5z m43 -55 c35 -38 43 -77 47 -213 3 -125
-11 -260 -33 -315 -14 -35 -49 -70 -87 -86 -69 -28 -162 31 -186 119 -21 79 4
331 43 424 14 34 62 78 93 86 52 13 102 7 123 -15z"/>
<path d="M7000 735 c-17 -18 -25 -52 -41 -171 -11 -88 -16 -168 -13 -194 14
-96 128 -159 170 -95 41 63 76 323 54 404 -20 74 -121 108 -170 56z m128 -28
c22 -22 25 -144 6 -252 -30 -171 -40 -191 -88 -166 -39 21 -58 67 -58 134 1
62 20 272 27 294 5 17 94 9 113 -10z"/>
<path d="M7313 866 c-24 -11 -29 -26 -14 -41 14 -14 31 -165 26 -222 -20 -212
-25 -300 -19 -339 16 -108 119 -147 168 -63 21 36 14 64 -22 82 -25 12 -27 17
-25 67 2 30 8 74 14 97 7 27 9 90 5 175 -6 148 -6 148 -28 200 -24 54 -58 68
-105 44z m74 -49 c6 -13 17 -83 24 -155 11 -117 11 -141 -5 -232 -20 -114 -16
-146 19 -162 33 -15 39 -38 16 -61 -25 -26 -63 -17 -82 20 -11 20 -13 56 -10
147 6 218 6 390 -1 429 -6 31 -4 37 11 37 10 0 23 -11 28 -23z"/>
<path d="M8914 866 c-34 -18 -54 -38 -49 -47 3 -4 12 -6 19 -3 11 4 14 -17 14
-115 0 -67 -2 -121 -5 -121 -3 0 -18 14 -33 30 -36 38 -77 40 -120 4 -44 -38
-58 -79 -69 -212 -13 -152 -4 -227 33 -259 15 -13 33 -23 41 -23 30 0 71 22
97 53 l27 32 1 -26 c0 -55 69 -82 101 -39 16 21 19 40 18 110 -4 147 -2 280 6
428 6 131 5 145 -11 164 -28 30 -47 36 -70 24z m45 -58 c9 -25 3 -206 -7 -225
-4 -6 -4 -94 -1 -195 6 -180 -1 -243 -25 -235 -6 2 -10 13 -9 23 5 46 13 265
15 451 2 112 6 203 11 203 4 0 11 -10 16 -22z m-106 -236 l37 -37 -5 -140 -4
-140 -50 -47 c-91 -88 -121 -60 -120 112 1 182 9 228 47 261 18 16 38 29 45
29 7 0 30 -17 50 -38z"/>
<path d="M8766 535 c-19 -19 -27 -76 -29 -203 -2 -109 5 -129 45 -119 42 11
78 115 78 226 0 54 -3 62 -31 85 -35 30 -42 31 -63 11z m55 -57 c11 -42 6 -88
-18 -188 -17 -67 -28 -26 -25 90 1 63 4 121 7 128 9 24 24 11 36 -30z"/>
<path d="M5531 827 c-6 -8 -14 -34 -17 -59 -5 -39 -3 -46 17 -60 14 -9 61 -18
113 -22 50 -3 91 -8 93 -10 4 -3 -3 -129 -23 -438 -5 -83 -5 -87 19 -102 31
-21 78 -12 113 21 23 21 26 29 20 64 -4 22 -6 100 -5 172 1 73 1 161 0 196 -2
70 9 91 46 91 57 0 92 43 73 91 -15 35 -20 36 -159 37 -62 1 -128 6 -145 11
-61 18 -133 22 -145 8z m219 -47 c69 -5 133 -7 143 -4 9 3 26 2 37 -1 24 -8
27 -50 4 -59 -25 -10 -72 -7 -80 5 -16 26 -25 -15 -29 -137 -3 -71 -5 -181 -4
-244 0 -63 1 -126 1 -139 0 -27 -17 -41 -51 -41 -23 0 -23 1 -18 77 30 403 31
503 1 503 -8 0 -14 -4 -14 -9 0 -11 -168 -7 -180 5 -5 5 -6 22 -3 37 5 26 9
28 37 23 17 -3 87 -10 156 -16z"/>
<path d="M6052 803 c-20 -4 -22 -8 -16 -26 17 -45 7 -230 -21 -412 -26 -168
-27 -191 -13 -203 23 -19 94 -26 104 -11 5 8 11 70 14 139 4 101 8 125 20 128
9 1 23 -3 32 -10 15 -12 15 -21 2 -103 -17 -111 -12 -153 21 -161 41 -10 59
-1 66 36 12 57 17 271 8 305 -13 46 -46 61 -93 41 -38 -16 -38 -16 -33 7 5 19
10 162 8 220 -1 9 -10 26 -21 37 -20 20 -32 22 -78 13z m64 -59 c5 -20 -2
-204 -9 -249 -3 -14 43 -19 56 -6 6 6 23 11 38 11 35 0 51 -39 45 -111 -3 -30
-8 -90 -11 -134 -4 -44 -9 -82 -11 -84 -2 -2 -11 -1 -20 3 -14 5 -16 15 -10
64 19 162 19 168 -5 191 -25 23 -68 28 -87 9 -7 -7 -12 -33 -12 -58 0 -26 -3
-81 -6 -123 -6 -66 -10 -77 -25 -77 -16 0 -19 8 -19 53 0 28 7 102 15 162 22
156 35 325 29 352 -5 17 -2 23 10 23 8 0 19 -12 22 -26z"/>
<path d="M3022 658 c-22 -6 -40 -21 -58 -49 -24 -38 -24 -42 -9 -65 19 -29 39
-30 101 -4 53 23 59 20 79 -36 14 -42 12 -55 -7 -36 -15 15 -82 16 -108 2 -33
-18 -60 -76 -67 -142 -6 -71 3 -98 42 -124 23 -15 27 -14 65 7 l40 23 25 -24
c30 -28 88 -29 117 -3 22 20 22 27 1 48 -25 25 -32 95 -17 167 34 161 -6 242
-119 243 -29 1 -67 -3 -85 -7z m134 -34 c50 -24 61 -70 44 -187 -16 -113 -14
-166 8 -190 14 -16 14 -19 2 -27 -16 -10 -47 -4 -69 13 -16 14 -10 79 14 152
20 58 16 132 -9 169 -13 21 -24 26 -60 26 -27 0 -48 -6 -56 -15 -17 -21 -50
-19 -50 3 1 59 102 91 176 56z m-32 -179 c19 -14 19 -16 -2 -80 -12 -36 -22
-73 -22 -83 0 -22 -65 -66 -85 -58 -22 8 -35 49 -35 110 0 72 38 125 90 125
19 0 44 -6 54 -14z"/>
<path d="M3027 413 c-36 -40 -33 -113 4 -134 27 -14 39 -1 64 65 l18 49 -23
19 c-28 23 -43 23 -63 1z m57 -11 c3 -5 -3 -30 -12 -55 -14 -37 -21 -44 -30
-35 -16 16 -15 71 0 86 14 14 35 16 42 4z"/>
<path d="M3999 650 c-20 -11 -47 -36 -60 -57 -22 -35 -24 -48 -24 -178 0 -130
2 -143 23 -178 28 -44 72 -70 107 -62 14 3 36 7 50 10 41 9 84 111 65 159 -13
36 -43 33 -71 -9 -47 -68 -80 -51 -89 46 -6 66 -1 75 42 70 40 -4 107 18 118
39 13 24 13 69 -1 108 -9 25 -21 35 -65 52 -30 11 -56 20 -57 20 -1 -1 -18
-10 -38 -20z m103 -32 c25 -9 38 -34 44 -84 4 -36 -11 -47 -84 -53 -39 -4 -74
-10 -79 -14 -4 -5 -7 -42 -6 -83 0 -57 5 -79 18 -94 32 -36 82 -20 113 35 5
11 14 15 22 10 15 -10 7 -68 -15 -101 -20 -32 -81 -33 -119 -3 -47 37 -57 69
-58 197 0 103 2 121 21 154 33 55 70 64 143 36z"/>
<path d="M4001 584 c-40 -51 -22 -77 49 -69 19 2 40 4 46 4 14 1 25 37 17 57
-4 11 -60 34 -85 34 -4 0 -16 -12 -27 -26z m70 -9 c12 8 31 -14 23 -27 -9 -14
-84 -9 -84 5 0 22 22 38 36 26 7 -6 18 -8 25 -4z"/>
<path d="M4403 659 c-5 -5 -39 -10 -74 -10 -58 0 -119 -14 -119 -26 0 -3 9
-17 21 -31 20 -26 21 -34 13 -172 -11 -199 -11 -203 -6 -218 14 -42 85 -32
103 15 6 15 11 95 12 176 2 135 4 150 22 163 25 18 37 14 53 -20 18 -36 38
-43 62 -21 25 23 25 46 0 95 -26 52 -63 73 -87 49z m63 -65 c20 -48 4 -63 -24
-24 -24 32 -52 39 -72 16 -6 -8 -21 -16 -33 -18 -17 -2 -21 -9 -19 -28 3 -24
3 -122 -1 -247 -2 -63 -18 -96 -37 -77 -7 7 -7 59 -1 155 9 147 8 190 -3 227
-6 19 -4 20 26 16 18 -3 44 -1 58 5 14 5 40 10 58 10 29 1 35 -4 48 -35z"/>
<path d="M9168 662 c-2 -4 -25 -16 -53 -27 -78 -32 -86 -54 -90 -244 -3 -133
-1 -164 13 -192 27 -52 59 -69 134 -72 63 -2 68 0 101 32 41 38 49 68 32 109
-20 46 -42 48 -81 7 -18 -19 -39 -35 -48 -35 -24 0 -53 51 -51 90 4 77 1 74
89 91 78 15 96 31 96 87 0 63 -25 102 -88 134 -28 15 -52 23 -54 20z m56 -62
c33 -12 54 -56 47 -100 -6 -33 -9 -35 -56 -44 -109 -18 -125 -35 -125 -131 0
-104 85 -154 144 -84 27 32 46 31 46 -2 0 -31 -18 -57 -50 -74 -37 -19 -95 -7
-137 29 l-28 24 0 165 c0 149 2 167 19 186 31 34 95 48 140 31z"/>
<path d="M9143 577 c-22 -11 -50 -77 -40 -94 10 -16 85 -14 117 2 44 23 39 65
-11 90 -31 17 -35 17 -66 2z m72 -48 c9 -14 2 -19 -39 -29 -40 -9 -44 -2 -20
35 13 20 20 23 34 15 11 -6 22 -15 25 -21z"/>
<path d="M9560 640 c-55 -36 -63 -37 -84 -6 -17 27 -35 27 -84 2 -41 -21 -45
-30 -22 -51 30 -27 33 -64 14 -245 -16 -160 -16 -172 0 -189 18 -20 59 -32 74
-22 31 20 45 106 46 274 l1 97 33 20 c38 23 52 19 52 -14 0 -53 72 -62 100
-14 13 25 13 31 -2 60 -10 18 -20 47 -24 63 -14 63 -36 69 -104 25z m60 -23
c0 -7 9 -30 21 -51 20 -38 19 -71 -2 -64 -7 2 -17 19 -23 38 -13 42 -37 49
-72 21 -15 -12 -32 -21 -39 -21 -32 0 -39 -32 -40 -169 -2 -158 -9 -204 -33
-199 -18 4 -21 35 -9 118 15 115 20 266 8 289 -17 30 -7 37 23 17 36 -23 77
-20 116 9 38 28 50 31 50 12z"/>
<path d="M3345 650 c-3 -6 -20 -9 -38 -7 -23 1 -32 -3 -35 -15 -3 -13 3 -18
21 -18 19 0 28 -8 36 -31 14 -42 14 -182 0 -270 -11 -62 -10 -71 6 -89 29 -32
64 -26 80 13 20 49 34 181 28 260 -5 55 -3 67 9 67 8 0 23 -9 33 -20 17 -19
18 -26 6 -68 -15 -56 -26 -220 -17 -255 7 -30 40 -44 61 -27 17 14 9 34 -10
26 -8 -3 -16 5 -19 18 -9 38 -8 168 3 222 5 28 11 55 12 60 7 40 -21 63 -83
70 -36 3 -39 2 -32 -18 28 -89 11 -319 -24 -333 -19 -7 -33 13 -27 40 23 103
23 286 0 339 -7 17 -5 18 16 12 39 -13 79 -15 109 -6 24 7 33 4 53 -16 35 -34
37 -61 19 -209 -13 -113 -14 -134 -1 -160 8 -16 22 -31 31 -33 16 -3 16 0 4
35 -13 37 -11 113 8 273 6 45 3 61 -13 87 -29 46 -64 67 -90 54 -10 -6 -32 -9
-48 -6 -15 2 -42 6 -60 9 -18 3 -35 1 -38 -4z"/>
<path d="M7981 653 c-14 -3 -40 -16 -58 -30 -37 -29 -45 -74 -17 -104 19 -21
41 -15 70 19 20 22 24 23 63 11 47 -14 58 -36 47 -94 l-7 -35 -29 15 c-91 47
-166 -9 -185 -138 -16 -104 69 -171 150 -117 l29 19 32 -34 c40 -44 83 -48
108 -10 16 24 16 28 0 61 -13 27 -15 50 -10 107 18 216 18 218 0 259 -10 22
-30 46 -46 54 -32 16 -109 25 -147 17z m136 -68 l35 -35 -5 -83 c-4 -45 -9
-115 -13 -154 -5 -59 -4 -77 10 -99 10 -14 15 -32 12 -39 -7 -20 -44 -7 -63
22 -17 25 -14 85 8 193 7 30 12 77 13 104 1 45 -2 51 -29 67 -16 9 -44 20 -62
24 -27 5 -37 2 -58 -19 -26 -26 -45 -27 -45 -2 0 32 45 53 119 55 37 1 48 -4
78 -34z m-55 -189 c4 -6 5 -22 1 -36 -3 -14 -8 -49 -12 -79 -5 -48 -10 -55
-43 -74 -32 -19 -39 -20 -61 -8 -67 36 -60 178 11 215 28 15 91 4 104 -18z"/>
<path d="M7946 358 c-21 -29 -20 -92 0 -112 36 -36 72 -7 87 70 5 26 2 33 -23
47 -37 22 -46 21 -64 -5z m60 -25 c-3 -8 -6 -22 -6 -31 0 -9 -5 -24 -10 -32
-9 -13 -11 -13 -20 0 -13 20 -13 63 1 77 15 15 42 4 35 -14z"/>
<path d="M8485 652 c-16 -2 -35 -8 -42 -14 -6 -5 -41 -8 -77 -7 -36 1 -69 0
-72 -4 -3 -3 -12 -3 -20 0 -8 3 -21 2 -30 -1 -15 -6 -15 -9 4 -29 11 -12 25
-40 29 -62 9 -38 1 -234 -12 -322 -6 -38 -4 -43 28 -67 66 -50 90 -14 107 166
12 122 11 164 -5 201 -6 14 -2 17 30 17 l38 0 -9 -97 c-13 -140 -11 -243 4
-280 33 -76 165 -62 148 17 -26 124 -32 178 -29 283 4 162 -17 208 -92 199z
m32 -44 c22 -21 22 -24 17 -172 -5 -122 -2 -162 11 -206 24 -83 24 -85 -10
-85 -21 0 -33 7 -42 25 -15 30 -17 171 -3 289 5 48 6 90 1 99 -12 22 -99 17
-124 -7 -16 -16 -16 -20 -3 -53 9 -20 14 -51 11 -69 -2 -19 -6 -68 -10 -109
-8 -95 -23 -153 -38 -147 -14 5 -16 89 -5 215 7 80 0 165 -16 202 -5 13 4 14
58 12 44 -3 73 1 93 12 36 19 33 20 60 -6z"/>
<path d="M2221 639 c-61 -24 -86 -89 -86 -224 1 -132 6 -150 60 -184 62 -40
112 -33 163 22 29 31 42 105 21 118 -24 15 -36 10 -70 -26 l-33 -35 -23 22
c-16 15 -23 33 -23 61 l0 40 50 -7 c71 -9 97 0 110 39 9 27 7 42 -10 88 -30
80 -91 113 -159 86z m131 -80 c11 -19 17 -49 16 -69 -4 -41 -27 -50 -102 -38
-28 4 -52 6 -54 4 -2 -3 -6 -22 -9 -44 -6 -48 17 -99 52 -112 32 -12 50 -5 64
26 7 16 18 24 28 22 31 -6 26 -37 -10 -73 -41 -41 -76 -45 -124 -15 -38 23
-53 67 -53 160 1 116 25 181 75 200 32 12 96 -21 117 -61z"/>
<path d="M2226 574 c-19 -18 -21 -63 -3 -69 6 -3 32 -6 56 -7 39 -3 44 -1 47
21 9 51 -64 91 -100 55z m68 -20 c28 -27 20 -44 -16 -37 -38 7 -51 22 -36 40
14 17 33 16 52 -3z"/>
<path d="M7626 630 c-53 -27 -64 -38 -88 -83 -16 -33 -20 -58 -19 -141 2 -146
16 -192 69 -233 76 -58 160 -40 201 42 28 56 28 111 0 125 -32 18 -63 4 -82
-35 -19 -41 -48 -46 -71 -13 -20 28 -22 148 -3 149 99 5 179 23 195 42 11 13
15 37 13 79 -1 20 -12 36 -43 58 -49 36 -112 40 -172 10z m133 -21 c36 -13 51
-35 51 -77 0 -25 -5 -30 -37 -40 -21 -6 -74 -13 -117 -17 -86 -5 -96 -9 -78
-27 7 -7 12 -37 12 -69 0 -75 15 -114 49 -129 37 -15 76 1 96 40 19 37 39 35
43 -6 3 -35 -30 -92 -60 -103 -33 -12 -88 4 -119 36 -35 34 -48 94 -46 213 2
68 6 90 22 112 30 39 80 66 146 77 3 1 20 -4 38 -10z"/>
<path d="M7644 557 c-19 -17 -25 -29 -21 -42 6 -15 16 -17 63 -13 33 3 62 11
72 22 46 46 -62 78 -114 33z m91 -8 c9 -14 6 -16 -37 -24 -43 -8 -53 9 -15 25
30 12 45 12 52 -1z"/>
<path d="M1228 583 c-35 -5 -85 -65 -99 -118 -13 -46 -5 -175 12 -202 6 -11
24 -26 39 -35 41 -23 146 -10 171 21 40 49 48 151 13 151 -25 0 -62 -30 -68
-54 -11 -43 -61 -44 -72 -1 -3 12 -4 36 -2 51 l3 29 72 -3 c79 -4 89 3 94 63
5 63 0 72 -41 89 -39 16 -66 17 -122 9z m122 -45 c21 -23 26 -54 11 -77 -7
-11 -26 -13 -84 -8 l-76 5 -6 -29 c-8 -36 2 -102 18 -122 7 -8 24 -17 39 -21
21 -5 31 0 52 25 14 17 26 37 26 46 0 8 7 13 18 11 36 -7 4 -101 -40 -117 -31
-11 -110 6 -129 28 -20 24 -32 145 -19 190 18 63 55 89 127 90 31 1 48 -5 63
-21z"/>
<path d="M1228 526 c-41 -31 -7 -61 57 -52 38 6 45 11 45 30 0 35 -67 49 -102
22z m67 -15 c7 -12 -31 -25 -46 -15 -8 4 -7 9 2 15 18 11 36 11 44 0z"/>
<path d="M6381 526 c-31 -33 -51 -122 -51 -232 0 -104 14 -134 74 -154 39 -12
105 -7 133 11 47 30 82 100 64 128 -15 23 -62 16 -84 -13 -13 -18 -28 -26 -48
-26 -32 0 -40 12 -43 62 -1 28 2 33 19 31 11 -2 46 -4 78 -5 52 -3 60 0 77 21
21 29 22 120 1 145 -23 27 -101 56 -151 56 -36 0 -51 -5 -69 -24z m166 -29
c39 -21 52 -70 31 -114 -13 -27 -16 -28 -78 -25 -35 1 -66 4 -68 7 -3 2 -13 0
-24 -6 -16 -9 -18 -17 -12 -57 3 -26 13 -55 22 -64 23 -28 80 -23 113 8 50 48
63 -2 15 -54 -19 -21 -28 -23 -82 -20 -88 5 -98 19 -102 132 -4 108 19 193 56
212 27 13 83 5 129 -19z"/>
<path d="M6431 491 c-12 -12 -21 -34 -21 -50 0 -27 3 -29 56 -35 30 -3 60 -4
65 -1 13 9 11 71 -3 83 -7 5 -27 13 -45 16 -25 6 -36 3 -52 -13z m77 -23 c20
-20 14 -38 -12 -38 -37 0 -56 10 -56 31 0 14 7 19 28 19 15 0 33 -5 40 -12z"/>
<path d="M4450 299 c-30 -12 -40 -26 -40 -61 0 -34 26 -49 74 -41 35 5 36 7
36 47 0 61 -18 75 -70 55z m34 -37 c9 -14 -12 -35 -28 -29 -23 9 -20 37 3 37
11 0 22 -4 25 -8z"/>
<path d="M9590 267 c-16 -8 -28 -26 -35 -51 -8 -35 -7 -40 19 -62 48 -42 120
-4 115 60 -5 59 -45 81 -99 53z m60 -52 c0 -31 -26 -43 -46 -23 -20 20 -7 48
22 48 19 0 24 -5 24 -25z"/>
</g>
</svg>
