<?xml version="1.0" encoding="utf-8"?>
<svg xmlns="http://www.w3.org/2000/svg" height="405.0pt" version="1.1" width="1000.0pt" viewBox="0 0 1000 405">
	<path d="M 0.00 0.00 L 1000.00 0.00 L 1000.00 405.00 L 0.00 405.00 L 0.00 0.00 Z" fill="#ffffff"/>
	<path d="M 427.00 8.75 C 436.71 8.59 446.21 8.96 456.00 8.81 C 460.03 9.35 463.97 9.13 468.00 8.82 C 477.33 8.88 486.71 8.51 495.99 9.36 C 502.00 9.34 507.99 9.27 514.00 9.44 C 520.65 8.97 527.40 9.69 534.00 8.81 C 545.37 10.62 557.01 9.09 569.01 9.13 C 573.69 8.45 578.33 8.63 583.00 9.25 C 587.67 8.67 592.31 8.90 597.00 8.81 C 600.16 9.13 603.39 9.49 606.53 8.81 C 610.96 8.46 615.30 9.12 619.65 8.40 C 622.31 10.60 621.16 13.00 621.96 16.02 C 622.53 18.38 622.12 20.46 623.28 22.64 C 621.99 24.15 622.96 25.27 623.12 27.00 C 621.88 36.39 622.46 45.58 622.63 55.00 C 622.47 57.71 621.93 60.27 622.42 62.99 C 623.25 70.07 622.00 77.20 623.39 84.13 C 623.74 87.38 622.22 90.23 623.36 93.50 C 624.24 96.36 622.80 99.01 624.24 101.58 C 624.72 103.15 623.35 104.83 623.28 106.49 C 622.36 109.19 624.13 111.26 623.58 113.88 C 622.85 116.63 623.98 119.18 623.77 122.00 C 623.64 123.88 624.93 126.21 623.98 127.90 C 622.92 129.92 623.88 132.83 624.13 134.98 C 624.18 139.65 624.27 144.33 624.37 149.00 C 623.78 155.03 624.61 160.94 623.94 166.99 C 623.68 168.69 623.78 170.31 624.00 172.00 C 624.52 176.74 623.73 181.30 624.18 186.00 C 624.33 187.69 623.84 189.32 623.93 191.00 C 624.57 197.42 623.64 204.14 624.62 210.49 C 625.71 212.85 623.88 214.19 624.24 216.49 C 624.22 223.44 624.95 230.11 624.44 237.01 C 624.92 240.04 624.67 243.03 623.95 246.00 C 624.58 249.29 624.51 252.66 624.82 256.00 C 623.92 261.14 625.88 265.89 624.91 270.99 C 625.14 273.32 623.78 275.33 625.48 276.98 C 624.88 277.66 624.28 278.35 623.68 279.03 C 622.99 282.41 625.31 284.68 625.18 288.00 C 625.42 290.58 624.80 292.97 624.63 295.49 C 625.86 304.07 625.07 313.33 624.92 322.00 C 625.50 325.08 624.32 327.99 625.10 331.01 C 625.49 333.22 625.83 335.33 625.48 337.57 C 616.97 338.58 608.51 338.86 599.99 337.84 C 596.19 338.90 591.99 337.66 588.42 339.14 C 581.62 339.89 574.83 339.63 568.00 339.78 C 559.66 339.31 551.33 339.95 542.98 339.72 C 540.50 340.22 538.09 340.52 535.56 340.16 C 531.08 338.97 527.57 340.75 523.00 340.32 C 514.87 340.64 506.93 340.11 499.00 341.24 C 491.41 341.20 484.19 341.57 476.99 341.81 C 470.97 341.30 465.06 342.69 459.00 342.44 C 451.38 342.68 443.64 342.63 436.00 342.63 C 433.59 342.77 431.35 342.41 429.02 343.20 C 422.03 343.52 414.93 343.18 407.99 344.14 C 396.91 344.60 385.52 345.21 374.46 344.58 C 374.36 342.54 373.19 337.63 375.53 336.50 L 373.72 336.43 C 373.09 324.13 373.53 312.26 373.51 299.98 C 373.62 297.14 372.52 294.36 373.45 291.39 C 375.40 288.65 377.50 286.12 378.85 283.00 C 379.59 281.43 381.31 282.51 382.56 282.64 C 382.65 281.73 382.77 280.81 382.92 279.90 C 384.11 279.46 385.26 278.97 386.38 278.37 C 386.43 277.73 386.47 277.09 386.50 276.46 C 385.83 276.49 385.17 276.55 384.51 276.62 C 381.97 279.57 378.15 280.97 376.24 284.31 C 375.51 284.77 374.61 284.85 373.54 284.56 C 372.97 282.70 372.28 281.36 373.33 279.49 C 373.84 275.87 373.68 271.93 373.63 268.28 C 372.60 267.47 372.47 266.39 373.25 265.03 C 373.46 260.66 373.60 256.37 373.34 252.00 C 373.64 247.92 373.43 244.06 373.11 240.00 C 373.34 233.05 373.90 227.06 373.43 220.00 C 373.52 215.26 373.90 210.59 373.25 205.86 C 373.45 201.54 373.37 197.32 373.16 193.00 C 373.67 186.04 373.39 178.98 373.25 171.99 C 372.32 166.51 372.88 160.87 372.79 155.13 C 373.66 151.43 373.52 147.76 373.37 144.00 C 373.24 140.67 373.74 137.68 372.85 134.45 C 372.62 129.96 373.00 125.48 372.56 121.00 C 372.80 116.77 372.18 113.09 373.26 109.01 C 373.93 107.31 372.00 105.28 372.61 103.54 C 373.78 101.75 373.82 101.39 372.64 99.57 C 373.00 98.02 373.58 96.55 373.69 94.94 C 374.11 92.56 372.98 90.57 374.13 88.41 C 374.64 80.90 373.56 73.64 373.66 66.16 C 373.18 64.29 374.22 62.87 374.19 61.00 C 373.94 58.31 373.51 55.71 373.90 53.00 C 374.59 48.70 373.85 44.34 374.40 40.01 C 374.89 36.69 374.25 33.37 374.41 30.00 C 374.15 23.84 374.41 17.63 374.60 11.46 C 375.63 10.34 376.29 9.27 377.98 9.34 C 383.64 9.07 389.34 9.56 395.01 9.28 C 399.42 9.26 403.48 8.29 408.00 9.11 C 411.65 9.36 415.37 9.25 419.03 9.20 C 421.70 8.20 424.23 8.86 427.00 8.75 Z" fill="#303030"/>
	<path d="M 444.74 31.59 C 445.25 31.60 445.75 31.62 446.26 31.66 C 446.52 34.55 449.90 34.06 451.89 35.00 C 453.98 35.97 456.00 34.76 458.09 34.34 C 459.13 35.21 460.40 37.73 461.98 37.14 C 464.69 36.25 467.44 34.51 469.65 37.39 C 471.48 37.73 473.01 36.17 475.00 36.41 C 478.49 36.98 481.61 36.72 485.10 36.34 C 487.14 37.96 489.28 38.50 491.25 36.42 C 491.77 33.35 494.75 34.63 496.94 34.77 C 497.90 36.03 498.35 37.53 500.10 37.78 C 502.23 38.56 502.64 36.73 503.96 35.56 C 507.20 35.31 510.55 35.39 513.81 35.28 C 514.85 36.54 515.65 38.01 516.57 39.36 C 518.79 39.70 520.09 40.02 522.02 38.64 C 524.05 39.28 524.31 40.99 525.55 42.50 C 528.38 42.51 529.95 38.62 532.60 39.30 C 532.27 41.80 532.19 43.15 533.60 45.36 C 536.45 46.05 538.91 45.46 541.09 47.74 C 543.32 49.14 541.58 53.16 544.97 52.73 C 546.99 52.31 548.47 53.82 550.34 53.35 C 552.06 50.94 555.57 51.30 558.16 51.69 C 558.28 54.11 558.68 56.01 559.94 58.08 C 561.61 59.24 563.33 59.49 564.31 61.49 C 565.02 64.53 565.44 67.33 566.91 70.15 C 566.16 71.30 564.50 71.96 565.60 73.48 C 566.49 74.40 567.42 76.34 568.71 76.59 C 570.55 74.75 568.13 72.89 567.74 70.90 C 568.42 70.03 570.18 70.38 570.92 71.03 C 572.54 72.36 574.00 73.87 575.55 75.28 C 578.90 75.09 580.17 77.62 582.67 79.33 C 585.85 81.10 587.01 86.17 586.30 89.47 C 585.06 91.06 584.74 93.46 583.29 94.73 C 583.92 92.65 582.98 90.88 583.95 88.96 C 584.53 87.14 584.33 84.71 584.23 82.79 C 582.64 82.56 582.15 81.75 581.01 80.79 C 579.88 81.17 579.55 81.90 580.00 82.98 C 580.36 85.48 581.12 87.52 581.86 89.83 L 581.21 89.69 C 580.49 87.71 579.31 85.99 578.54 84.06 C 578.42 82.41 579.66 79.20 577.69 78.40 C 576.53 78.63 575.46 79.69 574.46 80.31 C 575.32 81.46 576.06 82.01 575.84 83.60 C 575.17 83.42 574.51 83.24 573.84 83.05 L 573.65 83.96 C 574.27 85.09 574.45 86.14 574.19 87.09 C 572.94 87.39 571.62 87.43 570.22 87.22 C 569.19 90.28 571.31 93.78 570.48 96.98 C 570.22 98.15 570.21 99.37 570.45 100.64 L 569.44 100.52 C 569.48 99.36 569.80 98.20 569.97 97.06 C 568.52 95.92 566.11 98.25 564.55 98.65 C 564.68 97.26 564.51 95.98 564.06 94.82 C 560.68 94.72 562.64 98.78 562.64 100.73 C 560.31 99.08 560.66 96.78 559.54 94.45 C 557.93 94.07 558.15 95.92 557.75 96.99 C 557.86 98.92 559.16 100.49 560.11 102.09 C 559.84 103.23 558.04 104.34 557.04 104.89 C 555.64 103.42 555.31 100.73 553.71 99.42 C 553.23 99.42 552.80 99.73 552.40 100.35 C 552.12 102.95 554.80 103.92 553.56 106.60 C 551.92 106.96 552.24 105.51 551.48 104.47 C 549.96 103.94 549.88 105.78 548.35 105.79 C 548.53 103.57 548.41 101.11 549.22 99.02 C 549.65 97.65 550.04 95.11 548.00 94.93 C 546.53 95.91 545.37 97.64 544.28 99.02 C 544.42 100.01 545.17 100.50 546.54 100.50 C 546.30 101.27 546.02 102.03 545.70 102.76 C 541.67 103.37 542.08 106.88 542.64 110.04 C 543.03 111.96 544.78 115.05 547.17 114.12 L 547.58 113.01 C 546.20 110.68 545.10 109.03 545.33 106.17 C 546.42 107.29 547.02 108.85 548.19 109.85 C 549.55 110.60 551.16 110.81 552.60 111.39 C 552.65 112.50 552.70 113.62 552.75 114.74 C 551.43 114.34 549.08 112.18 548.14 114.12 C 547.77 116.80 550.26 116.20 551.84 117.10 C 552.02 117.86 551.95 118.66 551.64 119.50 C 550.73 121.75 552.05 124.76 554.10 125.74 C 555.56 126.22 556.51 125.94 556.94 124.90 C 556.16 124.11 555.40 123.31 554.65 122.49 C 554.20 119.49 556.22 115.42 558.96 114.20 C 559.61 114.66 560.26 115.12 560.91 115.58 C 562.55 115.39 564.17 115.16 565.77 114.73 C 566.03 114.00 565.97 113.23 565.60 112.41 C 563.74 111.70 562.74 110.96 562.09 109.01 C 562.48 108.32 562.88 107.64 563.28 106.95 C 562.89 106.29 562.50 105.62 562.13 104.94 C 562.28 104.10 562.44 103.26 562.60 102.42 C 563.84 102.10 564.23 104.09 564.58 104.98 C 563.45 106.71 562.84 109.17 564.02 111.01 C 565.31 111.96 567.51 111.38 569.00 111.17 C 570.86 109.82 571.99 107.40 574.11 106.21 C 577.94 106.46 578.21 110.94 582.00 110.42 C 583.81 111.10 584.92 108.14 584.00 106.98 C 582.58 106.41 580.84 106.61 579.32 106.58 C 579.32 104.92 578.98 103.65 580.41 102.46 C 582.12 100.99 581.79 99.33 581.41 97.34 C 582.74 98.66 585.23 100.13 585.53 102.02 C 584.54 103.13 580.89 104.23 582.84 106.07 C 585.10 107.05 586.07 103.88 587.94 104.00 C 589.07 104.84 589.44 106.59 590.26 107.73 C 592.71 108.43 591.44 104.97 593.47 105.46 C 594.28 107.66 593.44 108.52 592.38 110.31 C 595.00 112.38 594.29 114.87 594.35 117.88 C 594.28 120.23 591.48 121.85 591.39 124.01 C 591.48 125.88 592.90 126.17 594.38 126.66 C 594.43 127.63 594.44 128.60 594.42 129.58 C 593.89 129.56 593.61 129.31 593.57 128.82 C 593.04 126.02 590.51 128.16 589.23 129.08 C 587.97 130.57 586.22 128.13 584.67 129.65 C 584.34 130.30 584.01 130.94 583.69 131.59 C 581.62 132.18 578.62 133.12 577.39 134.95 C 577.94 135.80 578.36 136.68 578.66 137.61 C 577.91 137.66 577.16 137.67 576.41 137.64 C 576.52 136.32 576.59 135.26 577.42 134.16 C 578.37 132.34 580.66 131.94 579.43 129.53 C 579.96 129.71 580.49 129.88 581.02 130.06 C 581.68 129.23 581.49 128.06 580.47 126.56 C 581.40 124.76 584.80 125.17 586.49 125.37 C 586.67 127.72 588.90 128.84 589.53 126.05 C 589.37 124.23 590.47 123.41 591.38 122.01 C 592.16 119.30 590.49 117.32 592.44 115.00 C 591.56 113.22 590.82 111.51 590.44 109.54 C 589.12 109.20 586.78 107.55 585.57 108.65 C 584.61 110.12 586.76 110.47 587.59 111.24 C 586.71 113.78 588.52 113.91 589.72 115.68 C 588.49 115.65 587.14 116.09 586.73 114.54 C 586.41 112.88 586.76 111.56 585.02 110.62 C 583.06 109.83 581.28 112.30 581.56 114.00 C 582.19 116.78 580.06 117.65 578.64 119.64 C 577.30 119.57 576.40 118.33 574.98 118.40 C 571.85 118.55 569.80 123.69 573.88 124.43 C 576.21 124.65 575.73 128.28 574.06 129.11 C 572.56 130.02 571.80 132.45 570.00 132.39 C 568.35 132.66 567.91 130.13 566.49 130.57 C 564.88 130.68 564.40 132.36 563.19 132.74 C 561.65 130.91 559.42 129.99 557.54 128.50 C 556.55 128.48 555.35 128.98 554.45 128.52 C 551.24 126.52 546.85 129.29 543.96 130.88 C 542.50 131.55 542.50 132.69 541.91 133.96 C 540.92 135.04 539.50 134.16 539.27 132.93 C 539.79 130.13 537.42 128.20 536.40 125.72 C 536.41 124.52 536.05 123.94 535.38 122.93 C 535.66 120.77 539.01 121.13 538.58 118.43 C 537.41 118.18 536.13 118.13 534.75 118.29 C 533.90 116.77 534.82 115.00 534.67 113.27 C 533.79 112.31 532.33 112.62 531.51 111.51 C 530.47 110.53 528.93 109.37 527.45 109.40 C 526.06 111.22 526.86 111.51 527.71 113.25 C 527.58 114.73 527.42 116.18 527.53 117.66 L 526.54 117.77 C 527.54 114.11 524.84 112.24 521.35 112.66 C 520.90 111.39 520.91 109.85 520.22 108.71 C 518.29 107.66 515.91 108.26 515.43 110.67 C 513.71 109.22 515.63 105.75 513.69 104.31 C 512.79 103.48 512.08 102.55 511.39 101.54 C 510.78 101.49 510.18 101.50 509.56 101.58 C 507.32 103.94 506.83 106.60 505.48 109.32 C 504.57 109.26 503.80 109.45 503.17 109.89 C 502.99 110.81 502.79 111.73 502.58 112.65 C 501.43 113.54 500.26 114.26 499.41 115.47 C 498.13 115.37 496.61 114.67 495.53 115.60 C 494.43 116.56 493.16 116.49 491.79 116.79 C 491.39 117.61 491.28 118.52 491.45 119.52 C 489.91 119.38 488.52 119.63 487.16 118.74 C 484.82 117.34 482.33 117.17 479.73 116.65 C 477.36 115.01 474.50 116.02 472.13 114.88 C 470.12 113.70 467.43 114.53 465.11 114.23 C 462.58 114.33 458.90 113.82 457.49 116.42 C 455.79 116.51 453.83 116.55 452.27 117.27 C 450.60 118.97 448.87 120.38 449.11 122.98 C 449.68 125.51 449.30 128.36 450.51 130.64 C 449.73 131.35 449.00 132.10 448.32 132.90 C 448.81 135.76 447.22 137.39 445.70 139.55 C 442.56 143.48 441.60 148.91 439.14 153.08 C 438.67 155.43 438.20 157.69 436.67 159.64 C 435.67 160.94 434.22 161.32 434.19 163.14 C 434.19 164.60 434.95 166.58 435.92 167.65 C 438.15 167.41 440.29 167.28 442.40 166.45 C 442.28 168.08 442.73 168.52 443.66 169.72 C 442.69 170.41 442.19 171.17 442.14 172.00 C 442.87 172.35 443.66 172.55 444.50 172.61 C 444.38 174.03 443.61 174.94 444.95 176.06 C 447.07 177.50 447.29 179.51 448.29 181.66 C 449.48 182.25 450.89 183.09 449.09 184.14 C 446.87 185.18 444.79 186.55 442.73 187.87 C 442.52 188.37 442.43 188.91 442.47 189.49 C 445.78 191.30 448.18 189.66 451.63 189.52 C 453.43 189.11 454.27 187.53 456.16 188.88 C 457.55 190.07 461.86 189.01 462.17 191.21 C 460.13 192.36 457.44 189.38 455.01 190.93 L 455.14 191.83 C 456.30 192.03 456.86 192.42 456.81 193.00 C 455.45 192.77 454.28 192.22 453.00 191.73 C 450.10 192.85 446.77 192.06 443.91 193.06 C 443.84 195.09 444.81 197.81 445.34 199.89 C 446.95 203.70 450.11 203.89 453.47 205.40 C 455.97 205.61 458.41 205.13 460.91 205.63 C 462.80 204.84 464.65 204.14 466.59 203.50 C 468.64 200.82 470.95 198.69 473.48 196.49 C 474.82 195.04 472.37 192.77 473.38 191.52 C 476.77 191.34 475.73 187.66 475.47 185.38 C 476.23 186.19 476.65 187.47 477.85 187.53 C 478.47 187.56 478.80 187.90 478.83 188.56 C 476.16 188.37 475.18 189.63 477.54 191.42 C 476.77 192.57 475.33 193.41 476.01 194.98 C 476.83 197.17 475.93 198.83 475.11 200.81 C 474.03 200.68 473.01 200.76 472.07 201.06 C 471.43 203.83 473.87 205.51 471.42 208.49 C 469.73 209.89 471.31 212.48 469.55 213.41 C 465.74 213.02 462.59 214.45 459.02 215.49 C 456.51 215.65 454.00 215.45 451.49 215.68 C 449.35 216.83 447.58 218.41 445.79 220.03 C 445.49 220.95 444.89 222.73 443.95 221.08 C 443.17 219.59 442.05 218.34 441.20 216.91 C 441.14 215.32 441.00 213.67 441.28 212.10 C 442.35 210.17 444.22 207.37 443.81 205.13 C 442.19 202.90 441.27 200.72 440.77 198.01 C 440.38 194.36 438.87 191.23 437.50 187.87 C 437.02 185.22 436.51 182.59 435.69 180.03 C 435.17 176.06 435.36 172.08 434.73 168.11 C 432.04 166.62 429.46 163.96 428.51 160.99 C 430.68 156.18 432.89 151.03 433.93 145.87 C 435.64 143.30 436.14 140.33 437.52 137.60 C 437.57 134.74 438.83 133.61 440.45 131.52 C 440.61 130.30 440.18 128.99 439.98 127.79 C 440.85 127.70 441.72 127.62 442.59 127.54 C 444.26 124.27 442.23 122.61 440.06 120.53 C 439.20 120.44 438.35 120.37 437.49 120.31 C 436.44 119.56 435.56 118.28 434.15 119.20 C 431.53 120.26 432.82 124.68 435.47 124.76 C 436.75 125.50 439.22 125.30 438.52 127.37 C 437.21 127.63 435.87 127.72 434.49 127.65 C 433.77 128.30 433.10 129.00 432.40 129.68 C 431.43 127.49 431.67 125.28 431.32 122.97 C 430.69 121.47 430.53 120.12 430.66 118.50 C 431.60 116.80 433.55 115.00 433.62 113.01 C 433.57 109.33 435.22 106.12 435.66 102.49 C 436.51 100.60 436.98 99.13 436.94 97.00 C 437.51 94.07 438.34 89.86 437.18 87.01 C 434.93 85.85 433.08 84.52 431.61 82.42 C 430.89 80.73 430.45 78.93 429.70 77.27 C 429.20 76.40 427.74 75.58 428.48 74.47 C 429.42 73.13 430.69 71.95 431.52 70.55 C 432.04 67.66 430.33 66.10 428.77 63.98 C 427.69 61.47 430.66 59.69 428.82 57.11 C 428.34 55.77 426.12 54.92 426.48 53.45 C 427.89 51.25 430.01 49.57 431.22 47.18 C 431.49 44.65 432.36 42.23 432.47 39.70 C 433.23 41.06 433.45 41.98 434.60 43.40 C 435.22 43.44 435.83 43.47 436.45 43.49 C 437.12 41.76 437.09 41.15 436.34 39.50 C 436.85 39.82 437.37 40.13 437.89 40.43 C 440.00 39.59 442.11 39.33 443.00 36.94 C 443.44 35.09 444.58 33.48 444.74 31.59 Z" fill="#ffffff"/>
	<path d="M 452.62 40.34 C 452.82 41.91 452.85 43.50 453.07 45.07 C 456.46 45.91 455.80 49.31 457.92 51.49 C 458.87 51.42 459.83 51.37 460.78 51.32 C 461.54 52.85 462.35 54.41 463.03 55.98 C 461.74 57.14 459.02 55.65 457.39 55.54 C 456.44 54.52 455.51 53.49 454.61 52.42 C 453.58 50.95 453.63 47.95 451.95 47.05 C 451.09 47.21 450.24 47.43 449.39 47.69 C 449.83 47.19 450.24 46.68 450.64 46.15 C 450.43 44.14 448.98 39.75 452.62 40.34 Z" fill="#303030"/>
	<path d="M 468.39 40.41 C 469.33 40.04 470.37 40.05 471.50 40.45 C 471.52 41.18 471.53 41.89 471.52 42.61 C 470.26 42.52 468.19 42.02 468.39 40.41 Z" fill="#303030"/>
	<path d="M 475.58 40.41 C 475.68 41.17 475.70 41.91 475.66 42.66 C 474.91 42.66 474.17 42.63 473.41 42.58 C 472.85 40.81 474.13 40.46 475.58 40.41 Z" fill="#303030"/>
	<path d="M 461.23 41.16 C 462.41 39.91 464.80 42.29 463.42 43.50 C 461.96 44.08 460.81 42.47 461.23 41.16 Z" fill="#303030"/>
	<path d="M 483.41 42.46 C 485.03 43.17 484.40 45.57 484.69 47.03 C 485.05 49.01 482.73 50.42 481.45 51.52 C 482.93 53.00 484.36 54.30 486.54 54.52 C 487.28 56.12 488.05 56.96 489.46 57.99 C 488.75 58.53 487.67 58.90 486.23 59.09 C 486.52 60.45 488.56 59.63 487.77 61.79 C 485.72 63.39 485.35 61.71 483.52 61.41 C 482.86 62.99 482.13 64.51 481.35 66.03 C 481.41 67.53 483.21 68.78 483.93 70.06 C 483.68 71.09 483.40 72.11 483.09 73.13 C 484.27 73.73 485.80 72.47 486.95 72.09 C 489.21 71.23 489.93 68.10 492.05 66.99 C 493.51 66.38 493.52 64.64 495.11 64.38 C 496.24 64.21 497.05 63.75 497.56 62.99 C 497.47 60.94 495.00 61.78 493.84 60.21 C 492.06 58.96 493.57 55.11 495.89 56.26 C 497.97 56.83 497.23 58.51 497.84 60.14 C 499.15 60.35 501.42 60.38 501.55 62.13 C 501.86 64.67 500.29 65.99 498.58 67.55 C 496.89 68.11 494.81 67.39 493.26 68.16 C 492.55 69.90 491.02 71.31 490.34 72.93 C 490.59 73.36 491.22 73.63 492.21 73.75 C 492.08 76.91 489.51 75.48 487.99 74.29 C 486.37 74.68 485.90 77.50 483.88 76.28 C 482.73 74.57 481.71 73.20 480.24 71.73 C 478.70 70.04 479.35 68.25 479.77 66.29 C 478.60 66.12 477.44 65.91 476.29 65.67 C 475.31 64.50 474.17 63.37 473.45 62.02 C 474.47 60.18 477.01 60.44 476.78 58.24 C 474.35 57.36 472.92 64.34 469.93 63.43 C 468.02 63.16 468.25 61.58 468.02 60.13 C 469.53 59.65 470.82 59.91 471.72 58.40 C 469.83 58.34 468.62 57.94 466.98 57.07 C 465.90 57.28 464.87 57.26 463.88 57.01 C 462.16 56.19 464.39 53.40 465.64 53.53 C 467.33 54.43 468.37 55.47 470.35 54.32 C 471.45 52.19 468.77 52.27 467.52 51.43 C 465.96 50.80 466.17 48.86 464.91 48.17 C 463.66 47.44 463.03 46.90 463.40 45.36 C 464.30 44.25 465.32 44.50 466.59 44.39 C 468.05 46.27 468.59 49.40 470.56 50.73 C 470.48 49.45 470.44 48.18 470.45 46.91 C 471.39 45.89 472.04 44.63 473.62 45.39 C 474.01 46.47 473.37 47.81 473.23 48.91 C 475.32 49.39 478.25 47.09 479.27 45.29 C 480.06 43.84 482.02 43.26 483.41 42.46 Z" fill="#303030"/>
	<path d="M 503.49 44.40 C 503.85 45.73 504.17 47.06 504.60 48.37 C 505.58 49.11 506.78 49.48 507.69 50.29 C 507.73 51.04 507.68 51.79 507.54 52.54 C 504.01 53.14 501.43 49.82 500.33 46.87 C 499.72 45.06 501.92 43.45 503.49 44.40 Z" fill="#303030"/>
	<path d="M 443.66 45.38 C 445.02 46.41 444.82 48.88 445.83 50.13 C 446.90 51.47 448.54 52.29 447.20 54.20 C 444.61 55.19 443.32 50.50 442.06 48.96 C 440.98 47.54 441.49 45.00 443.66 45.38 Z" fill="#303030"/>
	<path d="M 476.11 45.08 L 476.90 45.04 L 476.92 45.83 L 476.13 45.88 L 476.11 45.08 Z" fill="#303030"/>
	<path d="M 488.42 46.44 C 489.23 46.16 490.03 46.07 490.82 46.17 C 490.98 46.93 490.88 47.71 490.52 48.52 C 489.19 48.50 488.19 47.91 488.42 46.44 Z" fill="#303030"/>
	<path d="M 493.37 46.35 C 494.12 46.22 494.82 46.27 495.46 46.50 C 495.87 47.20 496.24 47.93 496.56 48.68 C 495.82 50.36 494.85 49.69 493.39 49.61 C 493.20 48.49 493.20 47.41 493.37 46.35 Z" fill="#303030"/>
	<path d="M 438.30 47.29 C 440.06 46.17 441.12 48.88 439.00 49.33 C 438.05 48.84 437.81 48.16 438.30 47.29 Z" fill="#303030"/>
	<path d="M 432.53 49.46 C 433.31 49.15 434.01 49.13 434.62 49.40 C 436.27 51.39 436.90 54.48 438.94 56.05 C 442.19 57.10 443.91 59.55 447.44 58.61 C 447.55 56.97 448.08 55.83 449.02 55.19 C 450.29 55.76 450.82 57.17 452.01 57.75 C 454.19 57.02 454.87 56.98 457.03 57.82 C 458.64 57.87 462.98 55.70 462.15 58.97 C 459.92 62.57 454.87 61.75 452.11 59.33 C 450.29 59.21 449.38 60.38 447.98 61.25 C 446.21 61.23 445.55 61.46 444.13 62.48 C 442.53 61.79 440.75 61.57 439.18 60.83 C 435.35 58.21 432.52 54.24 432.53 49.46 Z" fill="#303030"/>
	<path d="M 450.64 50.31 C 450.78 52.25 454.48 55.07 451.99 56.36 C 450.27 56.02 449.38 54.33 448.34 53.09 C 448.09 51.42 448.83 50.08 450.64 50.31 Z" fill="#303030"/>
	<path d="M 474.12 51.04 C 476.99 50.34 475.58 53.66 473.41 52.77 C 473.09 52.19 473.33 51.61 474.12 51.04 Z" fill="#ffffff"/>
	<path d="M 513.76 53.44 C 513.26 54.25 512.77 55.07 512.29 55.90 C 512.98 57.49 513.75 58.76 513.52 60.56 C 510.22 61.61 509.62 57.82 510.53 55.58 C 511.73 54.96 512.81 54.41 513.76 53.44 Z" fill="#303030"/>
	<path d="M 516.53 54.49 C 517.63 54.33 518.74 54.23 519.85 54.18 C 520.82 55.99 520.89 60.88 518.07 61.07 C 515.99 60.65 517.16 56.22 516.53 54.49 Z" fill="#303030"/>
	<path d="M 431.78 54.78 C 434.49 55.07 434.04 57.48 435.96 59.03 C 437.52 60.40 438.93 62.28 440.84 63.12 C 443.21 63.20 445.01 64.45 447.38 64.61 C 447.59 66.89 446.13 69.16 443.91 69.68 C 441.65 69.29 438.97 69.24 436.94 68.19 C 435.76 66.83 433.55 65.28 433.39 63.41 C 436.18 62.14 438.70 67.88 441.81 66.75 C 438.65 64.61 435.36 62.06 432.91 59.08 C 431.84 57.76 430.56 56.52 431.78 54.78 Z" fill="#303030"/>
	<path d="M 483.77 55.30 C 483.73 57.00 482.30 59.70 480.35 59.65 C 480.55 57.42 482.20 56.58 483.77 55.30 Z" fill="#ffffff"/>
	<path d="M 529.67 59.56 C 530.29 59.43 530.92 59.38 531.57 59.40 C 532.42 63.84 531.46 69.21 526.01 69.54 C 521.59 68.47 518.38 71.49 515.11 67.81 C 513.57 66.46 515.82 64.13 517.44 64.49 C 518.17 65.48 518.32 67.16 519.91 66.81 C 520.46 65.68 520.90 64.51 521.45 63.38 C 522.78 63.26 523.49 64.94 524.70 64.70 C 526.60 63.17 528.49 61.75 529.67 59.56 Z" fill="#303030"/>
	<path d="M 542.42 61.40 C 543.17 61.39 545.68 60.84 545.46 62.18 C 545.42 63.51 546.70 63.72 547.59 64.45 C 545.33 64.53 545.64 66.25 544.02 67.27 C 542.30 66.72 543.53 65.19 543.81 64.07 C 542.02 63.40 542.49 63.07 542.42 61.40 Z" fill="#303030"/>
	<path d="M 560.92 62.06 C 561.48 63.17 562.69 63.51 563.64 64.34 C 563.82 65.81 562.72 67.39 561.09 66.81 C 559.80 66.23 558.35 64.66 558.61 63.12 C 558.29 61.92 560.38 60.56 560.92 62.06 Z" fill="#303030"/>
	<path d="M 372.12 68.25 L 372.81 68.24 L 372.83 68.93 L 372.15 68.94 L 372.12 68.25 Z" fill="#303030"/>
	<path d="M 546.66 68.30 C 547.52 69.82 545.71 75.02 543.32 73.66 C 542.87 72.20 544.77 71.70 544.55 70.13 C 544.55 68.75 545.40 68.30 546.66 68.30 Z" fill="#303030"/>
	<path d="M 554.31 68.28 C 556.43 67.54 557.82 69.32 557.39 71.35 C 556.73 71.71 556.08 72.07 555.43 72.44 C 555.20 73.84 554.79 74.63 554.19 74.82 C 554.41 72.63 554.05 70.45 554.31 68.28 Z" fill="#303030"/>
	<path d="M 513.87 71.13 C 517.56 72.65 519.83 69.73 523.04 70.77 C 524.57 71.28 525.68 70.24 527.00 69.66 C 528.34 69.59 529.63 70.57 530.81 71.15 C 531.17 72.62 528.75 73.99 527.87 74.94 C 526.12 76.62 524.50 75.26 522.88 74.30 C 520.00 73.92 516.98 73.37 514.09 74.10 C 514.35 75.35 515.93 76.83 514.96 77.94 C 513.38 79.01 511.18 76.58 511.97 75.00 C 513.03 72.54 509.17 72.86 508.61 70.96 C 509.43 67.90 512.21 70.28 513.87 71.13 Z" fill="#303030"/>
	<path d="M 435.47 70.46 C 437.18 68.90 439.77 70.68 438.79 72.79 C 437.53 73.32 435.16 71.99 435.47 70.46 Z" fill="#303030"/>
	<path d="M 551.81 70.20 C 551.85 71.46 551.25 72.61 550.69 73.69 C 549.99 73.92 549.24 73.87 548.43 73.56 C 548.40 71.94 549.99 69.64 551.81 70.20 Z" fill="#303030"/>
	<path d="M 501.57 71.76 C 504.75 70.54 506.69 72.42 509.52 73.49 C 510.49 74.43 510.51 75.44 509.59 76.54 C 507.62 76.62 506.64 75.67 505.05 74.75 C 502.66 74.20 500.72 74.12 498.34 74.68 C 498.29 73.98 498.29 73.29 498.35 72.58 C 499.51 72.71 500.58 72.44 501.57 71.76 Z" fill="#303030"/>
	<path d="M 442.58 76.44 C 440.21 76.93 440.34 77.25 440.24 79.50 C 439.34 81.28 438.16 82.37 438.34 84.56 C 437.61 84.80 436.90 84.88 436.19 84.79 C 434.73 83.55 435.85 81.64 436.21 80.13 C 436.84 77.46 439.48 76.73 439.86 73.87 C 441.46 72.02 442.94 74.81 442.58 76.44 Z" fill="#303030"/>
	<path d="M 560.93 75.19 C 562.64 76.47 564.60 77.36 566.29 78.68 C 566.92 79.05 567.06 79.74 566.73 80.75 C 564.51 81.42 562.21 78.70 560.39 77.65 C 559.28 76.56 556.16 75.46 557.55 73.49 C 559.16 72.75 559.71 74.42 560.93 75.19 Z" fill="#303030"/>
	<path d="M 530.97 73.87 C 532.00 74.38 533.25 75.89 533.56 77.00 C 532.77 79.76 530.93 81.82 532.19 84.89 C 533.64 87.47 536.13 89.70 537.93 92.06 C 538.72 93.28 538.21 95.10 538.27 96.51 C 538.87 96.37 539.48 96.22 540.08 96.06 C 541.68 97.44 538.89 100.72 541.04 101.75 C 542.89 102.69 541.04 104.60 540.80 105.96 C 540.45 108.30 540.59 110.72 540.65 113.08 C 541.31 114.65 542.66 114.93 543.88 115.94 C 542.73 118.89 540.14 116.76 538.58 115.52 C 537.01 112.23 538.25 111.02 539.27 108.03 C 538.64 107.11 538.15 106.13 537.80 105.10 C 538.49 104.18 538.76 103.31 538.61 102.50 C 537.83 102.41 537.04 102.32 536.26 102.25 C 535.97 104.28 536.32 104.61 537.65 106.08 C 537.59 107.92 534.24 107.76 532.96 108.41 C 530.81 107.37 530.51 104.92 532.09 103.28 C 533.98 101.75 533.78 99.73 534.61 97.59 C 535.04 96.19 535.76 95.00 535.41 93.50 C 533.57 91.33 531.89 89.06 529.68 87.31 C 527.79 85.60 528.71 81.74 528.53 79.40 C 527.24 79.38 526.43 79.31 525.46 80.28 C 526.91 81.78 527.10 84.03 525.31 85.35 C 523.67 85.98 522.06 86.59 520.49 87.39 C 518.83 87.95 516.08 87.02 515.39 85.34 C 516.96 82.09 520.04 84.64 521.76 82.25 C 520.33 81.78 518.88 81.68 517.40 81.48 C 514.92 80.54 517.90 77.80 518.40 76.38 C 519.96 75.88 522.52 75.18 524.05 75.80 C 524.20 77.50 522.77 77.62 522.13 78.87 C 523.91 78.91 524.58 77.69 525.90 76.76 C 527.54 75.73 529.25 74.76 530.97 73.87 Z" fill="#303030"/>
	<path d="M 496.57 75.50 C 496.50 76.69 496.50 77.87 496.55 79.05 C 497.70 79.85 498.85 80.64 500.00 81.44 C 501.31 81.16 502.33 80.39 503.67 80.28 C 504.19 82.85 501.73 85.49 499.11 84.78 C 497.43 83.96 496.19 82.37 494.53 81.49 C 493.53 81.09 492.68 82.70 491.98 83.19 C 491.14 83.28 490.30 83.05 489.48 82.48 C 489.09 80.94 491.06 80.44 491.82 79.27 C 490.99 79.04 490.16 78.80 489.33 78.56 C 489.42 77.35 489.96 76.94 490.84 76.22 C 491.56 76.56 492.21 77.05 492.82 77.69 C 494.14 75.94 494.20 75.41 496.57 75.50 Z" fill="#303030"/>
	<path d="M 546.68 75.30 C 546.95 76.07 546.93 76.85 546.63 77.64 C 545.87 77.95 545.11 77.96 544.35 77.64 C 543.83 75.63 544.63 74.70 546.68 75.30 Z" fill="#303030"/>
	<path d="M 554.43 79.44 C 557.23 78.54 558.31 80.24 560.34 81.69 C 561.21 83.13 561.00 85.26 561.29 86.90 C 562.81 88.14 565.31 86.25 566.51 88.47 C 567.42 90.35 568.30 92.21 569.35 94.02 C 569.30 97.86 565.13 94.33 563.62 93.42 C 562.73 89.85 559.54 90.79 558.30 87.75 C 557.52 85.85 559.53 84.04 557.55 82.44 C 556.75 80.98 553.88 81.28 554.43 79.44 Z" fill="#303030"/>
	<path d="M 571.45 79.42 C 571.17 81.47 573.64 84.48 572.06 85.86 C 568.84 85.81 567.22 79.69 571.45 79.42 Z" fill="#303030"/>
	<path d="M 511.02 79.45 C 512.15 80.44 512.93 81.85 513.71 83.12 C 513.76 86.26 510.99 89.11 509.00 91.32 C 506.46 91.10 507.36 85.60 507.82 84.02 C 508.47 84.19 509.13 84.36 509.78 84.52 C 510.05 83.03 508.84 79.60 511.02 79.45 Z" fill="#303030"/>
	<path d="M 547.28 84.39 C 548.76 84.55 549.74 86.76 550.18 87.99 C 550.94 90.28 552.11 92.77 552.10 95.20 L 550.99 95.86 C 548.30 94.78 548.31 90.77 547.49 88.38 C 546.97 86.82 545.38 85.71 547.28 84.39 Z" fill="#303030"/>
	<path d="M 525.98 86.17 C 527.10 86.68 527.98 87.59 528.63 88.93 C 527.44 92.21 526.00 95.03 525.43 98.57 C 526.09 98.56 526.75 98.53 527.40 98.48 C 528.12 97.32 529.06 96.16 529.47 94.85 C 530.10 93.31 530.17 90.90 532.48 91.42 C 532.82 94.29 532.18 97.18 532.66 100.10 L 532.14 101.00 C 530.89 100.96 530.27 100.11 529.40 99.37 C 529.48 101.52 530.27 105.07 528.86 106.81 C 526.56 107.46 521.56 108.41 522.51 104.27 C 521.49 105.45 521.06 107.43 519.11 106.86 C 514.99 104.57 515.04 100.17 511.35 97.68 C 511.15 95.42 511.94 93.51 511.20 91.14 C 512.48 91.21 513.77 91.32 515.05 91.49 C 516.29 90.86 517.72 89.12 518.77 91.05 C 519.62 92.57 521.06 91.85 521.58 90.48 C 522.65 88.77 524.52 87.53 525.98 86.17 Z" fill="#303030"/>
	<path d="M 543.65 88.29 C 544.42 90.38 545.22 92.27 546.62 94.03 L 546.21 95.04 C 543.67 95.09 541.24 91.80 541.41 89.39 C 542.00 88.45 542.74 88.08 543.65 88.29 Z" fill="#303030"/>
	<path d="M 552.94 93.02 C 554.69 92.52 555.56 95.29 555.62 96.61 C 553.71 97.77 551.71 94.63 552.94 93.02 Z" fill="#303030"/>
	<path d="M 575.73 109.28 C 576.44 111.36 575.71 112.88 573.69 113.67 C 572.23 114.32 570.88 113.12 571.36 111.57 C 573.41 111.67 574.20 110.28 575.73 109.28 Z" fill="#303030"/>
	<path d="M 581.23 114.95 C 580.13 116.36 577.84 119.09 576.14 116.91 C 575.00 114.46 580.39 111.29 581.23 114.95 Z" fill="#303030"/>
	<path d="M 560.50 117.40 C 561.29 119.20 561.37 120.84 561.35 122.76 C 563.73 124.11 562.92 118.73 565.46 119.41 C 565.88 120.79 565.96 122.89 567.12 123.84 C 569.96 121.97 572.73 129.01 569.02 128.97 C 567.78 128.94 567.40 127.22 566.61 126.41 C 564.91 126.23 564.02 128.08 562.13 127.61 C 560.24 126.91 557.43 126.22 557.10 123.90 C 555.96 120.91 557.21 117.89 560.50 117.40 Z" fill="#303030"/>
	<path d="M 544.55 121.55 C 545.86 122.54 545.14 124.94 545.37 126.42 C 542.66 128.06 542.18 128.25 539.49 126.43 C 539.71 124.11 541.61 120.65 544.55 121.55 Z" fill="#303030"/>
	<path d="M 463.44 122.59 C 465.91 122.47 468.54 121.45 470.96 121.94 C 472.34 122.64 473.64 123.48 475.01 124.21 C 475.84 123.95 476.68 123.70 477.52 123.46 C 477.92 126.23 474.86 125.97 473.01 125.72 C 469.65 124.96 466.71 125.17 463.34 125.63 C 463.26 124.60 463.30 123.58 463.44 122.59 Z" fill="#ffffff"/>
	<path d="M 461.50 128.51 C 461.50 128.51 461.50 128.51 461.50 128.51 Z" fill="#ffffff"/>
	<path d="M 550.10 131.46 C 552.67 130.81 554.46 132.18 556.94 132.31 C 559.38 132.36 560.38 134.63 561.53 136.41 C 561.73 139.01 561.97 141.44 562.56 143.99 C 563.41 148.13 561.83 151.54 560.39 155.28 C 560.05 160.02 555.82 160.93 553.86 165.07 C 552.62 168.12 550.53 170.07 548.23 172.22 C 547.47 172.32 546.72 172.41 545.96 172.51 C 544.06 174.39 541.53 174.80 539.59 176.56 C 538.19 176.47 536.45 176.66 535.45 175.55 C 533.73 174.32 534.53 172.90 534.53 171.12 C 534.68 169.44 536.96 167.91 536.80 166.14 C 536.42 165.38 535.52 164.55 535.47 163.70 C 536.47 163.39 537.09 162.83 537.31 162.03 C 536.74 161.28 535.70 160.88 534.20 160.83 C 534.21 160.04 534.36 159.33 534.66 158.71 C 537.45 156.72 537.23 153.30 539.56 150.61 C 539.85 148.77 539.45 147.18 540.53 145.47 C 542.12 142.76 542.15 139.43 543.80 136.84 C 546.16 134.86 546.93 131.91 550.10 131.46 Z" fill="#ffffff"/>
	<path d="M 486.58 132.50 C 486.66 133.17 486.69 133.83 486.68 134.49 C 485.69 134.32 484.76 134.36 483.87 134.63 C 482.77 136.59 481.54 138.45 480.30 140.32 C 478.56 140.70 478.06 140.73 477.40 142.50 C 476.70 142.44 476.00 142.37 475.31 142.31 C 474.18 143.10 473.06 143.64 472.50 144.98 C 473.47 147.16 474.50 147.96 476.95 147.42 C 479.69 148.19 481.20 146.81 482.62 144.61 C 484.12 144.42 485.46 144.45 486.94 144.79 C 487.72 144.21 487.98 143.12 488.55 142.34 C 489.31 144.93 491.67 145.86 492.84 147.90 C 490.66 149.42 489.06 151.46 486.70 152.70 C 484.03 153.93 484.52 156.59 482.64 158.60 C 480.89 160.63 479.79 163.00 477.87 164.91 C 477.36 166.46 476.95 167.32 475.65 168.36 C 476.02 170.45 474.91 172.06 473.45 173.42 C 471.52 175.11 470.19 176.95 467.57 177.60 C 467.21 178.19 466.85 178.78 466.49 179.36 C 464.43 179.17 461.59 180.45 459.89 179.18 C 458.75 177.53 456.72 175.78 457.69 173.60 C 459.51 171.70 459.58 169.35 460.33 166.95 C 460.00 164.54 457.75 165.43 459.24 162.71 C 457.55 162.33 455.86 162.19 454.21 161.63 C 454.89 160.21 455.90 159.09 456.93 157.92 C 457.49 156.44 457.08 154.69 457.32 153.12 C 458.39 151.31 459.69 148.73 459.28 146.62 L 457.46 146.48 C 458.40 145.80 459.32 145.36 459.36 144.03 C 458.66 142.54 458.10 141.00 457.53 139.45 C 456.21 138.50 453.48 138.34 454.13 136.11 C 455.63 136.27 456.42 137.70 458.00 137.56 C 460.53 138.16 461.38 135.17 462.36 133.49 C 462.86 133.89 463.35 134.29 463.84 134.69 C 465.22 134.90 468.28 133.78 468.50 135.90 L 468.12 138.09 C 469.41 138.00 469.99 138.66 469.87 140.06 C 473.54 139.75 479.20 140.00 480.70 135.73 C 482.60 135.59 482.90 135.17 483.69 133.51 C 484.11 132.33 485.60 132.68 486.58 132.50 Z" fill="#ffffff"/>
	<path d="M 556.93 137.02 C 557.56 138.49 559.59 138.37 560.21 139.98 C 560.06 143.37 561.65 146.85 560.20 150.09 C 559.42 151.74 559.33 153.83 558.27 155.29 C 556.98 156.09 555.99 157.16 554.35 156.66 C 553.33 153.59 556.74 152.88 556.44 150.02 C 556.41 148.16 557.27 144.74 555.62 143.41 C 554.94 143.36 554.29 143.40 553.65 143.51 C 553.05 145.57 551.31 145.52 550.66 147.65 C 549.39 147.83 548.12 148.01 546.85 148.17 C 546.88 149.90 548.46 151.35 548.64 153.10 C 549.02 155.59 549.36 158.10 549.62 160.61 C 548.02 161.31 546.53 162.23 544.94 162.93 C 543.22 162.86 543.00 160.85 541.03 161.41 C 539.36 161.95 537.31 160.84 537.52 158.99 C 538.54 155.80 539.96 152.92 542.34 150.51 C 542.40 149.65 542.46 148.78 542.51 147.91 C 543.28 147.50 544.07 147.12 544.87 146.78 C 544.33 145.49 543.35 144.61 544.03 143.11 C 544.84 139.80 546.60 136.88 550.08 135.96 C 551.98 135.13 556.10 134.45 556.93 137.02 Z" fill="#303030"/>
	<path d="M 588.49 139.44 C 588.44 140.09 588.36 140.74 588.23 141.38 C 585.57 143.25 587.26 144.96 585.54 147.08 C 585.40 148.48 586.83 148.98 587.51 150.16 C 586.30 150.28 585.39 150.90 584.77 152.01 C 583.84 154.27 581.70 154.67 582.38 157.54 L 581.58 157.48 C 581.75 156.54 581.85 155.64 581.81 154.68 C 582.73 152.36 586.03 150.00 584.57 147.40 C 582.27 146.98 581.32 147.41 581.42 144.65 C 583.39 144.84 586.80 143.48 586.72 141.14 C 586.71 139.98 587.49 139.63 588.49 139.44 Z" fill="#ffffff"/>
	<path d="M 536.09 170.05 L 536.92 170.03 L 536.96 170.85 L 536.13 170.87 L 536.09 170.05 Z" fill="#303030"/>
	<path d="M 469.79 190.28 C 469.91 191.30 469.62 191.76 468.92 191.68 C 467.31 191.73 466.97 193.17 465.68 193.63 C 465.31 190.93 463.97 192.50 462.88 190.85 C 465.11 190.36 467.51 190.59 469.79 190.28 Z" fill="#ffffff"/>
	<path d="M 549.08 204.22 C 551.77 204.11 548.10 207.11 549.49 209.03 C 545.60 217.89 539.80 225.42 534.23 233.24 C 532.23 235.69 529.91 237.55 528.55 240.49 C 524.43 248.36 519.81 253.46 514.91 260.81 C 511.02 260.08 507.97 261.35 504.35 262.45 C 503.20 263.42 502.56 264.60 500.91 264.68 C 497.68 264.99 495.11 265.62 492.36 267.40 C 493.72 269.34 496.11 268.76 497.08 271.30 C 497.93 271.37 498.77 271.44 499.62 271.50 C 498.74 274.58 492.74 272.01 491.59 274.94 C 491.28 276.26 492.02 279.48 490.02 279.62 C 489.30 279.25 488.62 278.81 487.97 278.31 C 486.24 281.08 483.64 282.74 482.67 285.86 C 481.61 288.37 479.74 290.31 479.00 293.02 C 478.09 296.81 474.27 300.22 473.55 304.00 C 473.81 306.80 471.70 307.71 470.60 309.99 C 471.55 313.26 473.98 310.72 475.16 309.16 C 476.42 306.58 477.84 304.32 478.49 301.49 C 481.41 297.69 484.66 294.22 487.20 290.13 C 489.44 287.83 492.41 285.97 494.21 283.11 C 495.56 280.72 497.66 279.09 498.56 276.45 C 501.74 275.15 503.35 272.37 504.42 269.25 C 506.52 267.84 508.24 266.89 509.63 264.64 C 510.31 264.55 511.00 264.48 511.69 264.41 C 511.80 265.82 510.85 266.10 510.06 267.04 C 507.26 270.85 503.99 274.33 501.08 278.04 C 498.92 281.82 494.49 284.27 493.38 288.50 C 489.19 293.82 485.58 299.92 480.62 304.55 C 478.50 307.75 475.87 310.47 473.47 313.44 C 471.80 314.84 469.62 315.60 468.01 317.02 C 463.21 323.15 457.41 328.60 451.67 333.84 C 450.74 335.09 451.61 336.16 451.41 337.51 C 450.34 338.56 448.85 339.68 447.29 339.69 C 447.31 338.15 448.72 338.39 449.07 337.00 C 449.98 334.37 449.28 331.73 449.82 329.00 C 450.00 323.24 451.20 316.68 449.42 311.02 C 449.33 308.91 448.95 306.31 450.82 304.84 C 454.36 301.51 456.68 297.60 459.34 293.52 C 459.92 290.28 460.88 287.13 461.44 283.87 C 462.49 279.73 462.49 275.90 465.35 272.49 C 466.62 268.60 466.42 264.60 468.73 260.85 C 469.95 259.11 469.62 256.90 469.06 254.99 C 468.48 253.22 468.99 251.22 468.52 249.46 C 466.03 248.02 465.41 245.62 463.77 243.45 C 463.44 240.29 463.78 237.10 463.38 233.93 C 462.07 232.18 460.03 232.07 459.42 229.65 C 461.20 229.86 462.84 229.78 464.61 229.50 C 465.06 232.84 463.93 236.80 464.87 239.99 C 467.13 243.32 470.21 242.83 473.46 244.49 C 475.16 245.21 477.95 244.05 479.52 245.43 C 480.35 247.87 482.04 249.44 483.53 251.44 C 485.20 254.88 486.69 258.40 488.24 261.89 C 489.21 263.59 490.23 265.81 492.58 264.58 C 493.29 262.04 491.93 258.69 490.51 256.56 C 489.46 253.85 488.97 251.31 487.00 248.99 C 485.38 247.13 483.51 245.79 482.42 243.50 C 488.50 242.71 494.60 241.07 500.51 239.36 C 506.90 235.27 514.37 234.70 519.62 229.66 C 521.13 228.60 524.97 229.51 524.75 227.02 C 528.54 225.42 530.39 221.87 533.80 219.78 C 535.39 218.76 536.42 217.07 537.97 215.95 C 539.69 214.42 542.06 213.06 542.85 210.85 C 545.40 208.95 547.39 206.85 549.08 204.22 Z" fill="#ffffff"/>
	<path d="M 467.62 207.37 C 468.00 208.10 468.00 208.83 467.63 209.56 C 466.87 209.57 466.12 209.57 465.36 209.56 C 464.66 207.80 466.12 207.16 467.62 207.37 Z" fill="#303030"/>
	<path d="M 572.38 229.28 C 574.68 229.79 576.47 230.36 577.91 232.35 C 578.94 233.79 580.72 233.56 581.51 235.14 C 582.56 236.99 584.40 235.70 584.71 238.27 C 585.64 238.62 586.58 238.99 587.51 239.37 C 587.18 239.72 586.84 240.07 586.50 240.41 C 585.88 239.35 585.10 238.59 584.16 238.11 C 583.25 238.17 582.34 238.24 581.43 238.31 C 580.30 237.47 580.62 235.91 580.34 234.65 L 578.82 234.13 C 577.81 231.84 575.69 232.53 573.66 232.32 C 573.22 231.32 572.73 230.32 572.38 229.28 Z" fill="#ffffff"/>
	<path d="M 416.28 245.16 C 418.75 244.58 417.94 247.13 416.35 247.59 C 414.23 248.66 414.96 245.39 416.28 245.16 Z" fill="#ffffff"/>
	<path d="M 479.03 263.57 C 480.88 264.20 483.13 264.96 484.43 266.49 C 484.65 268.23 484.81 268.73 483.07 269.60 C 481.14 269.03 479.44 268.41 477.39 268.29 C 478.51 269.58 479.14 271.00 478.78 272.73 C 477.28 272.97 475.77 273.15 474.27 273.34 C 473.87 275.54 475.36 276.01 476.60 277.43 C 476.02 279.00 474.87 280.90 474.06 282.45 C 470.92 282.97 471.53 281.72 471.53 279.37 C 469.75 277.03 470.58 274.70 470.71 271.97 C 471.60 271.05 473.06 270.39 473.21 269.02 C 473.38 266.12 476.07 263.34 479.03 263.57 Z" fill="#303030"/>
	<path d="M 473.20 283.95 C 474.89 286.11 471.28 290.67 469.37 287.64 C 468.11 286.15 468.25 285.93 469.72 284.77 C 470.52 283.18 471.83 282.31 473.20 283.95 Z" fill="#303030"/>
	<path d="M 466.32 288.36 C 467.25 288.03 467.94 288.23 468.39 288.97 C 468.92 291.15 465.97 291.50 465.29 289.80 C 465.19 289.01 465.53 288.54 466.32 288.36 Z" fill="#303030"/>
	<path d="M 545.83 355.33 C 548.20 355.30 549.90 357.95 551.36 359.54 C 552.27 364.19 550.83 369.34 552.19 373.84 L 552.87 373.76 C 554.91 371.52 556.87 369.16 558.75 366.77 C 560.21 366.45 562.10 364.81 563.51 365.60 C 565.49 366.83 564.43 369.39 564.23 371.24 C 562.46 372.89 560.17 374.08 558.67 375.98 C 558.62 379.35 561.09 379.24 563.19 380.75 C 564.60 382.74 565.88 384.81 566.65 387.14 C 567.28 389.40 569.63 390.11 568.76 392.76 C 566.11 393.36 561.88 394.51 559.87 392.10 C 559.31 389.22 558.30 386.41 558.45 383.46 C 558.19 381.70 557.37 380.24 556.25 378.90 C 555.56 377.45 553.98 378.40 553.15 379.14 C 551.79 380.15 552.41 381.52 552.31 382.99 C 552.18 386.14 553.64 388.96 553.29 392.05 C 552.59 393.57 551.41 394.59 550.06 395.51 C 548.22 395.13 546.82 393.49 545.07 392.75 C 543.42 390.91 544.47 389.03 545.09 387.02 C 545.23 384.39 545.13 381.76 545.41 379.13 C 543.80 374.96 545.99 371.22 545.01 366.99 C 544.67 365.33 544.48 363.66 544.13 362.01 C 542.68 360.10 541.03 359.14 541.45 356.43 C 542.78 355.38 544.23 355.37 545.83 355.33 Z" fill="#303030"/>
	<path d="M 398.24 357.79 C 400.12 359.69 403.08 361.38 404.36 363.83 C 405.10 366.03 404.80 368.60 404.61 370.89 C 403.84 372.98 401.88 374.39 403.39 376.68 C 405.56 380.72 405.89 385.15 404.57 389.52 C 402.74 392.61 400.22 394.18 397.50 396.33 C 393.74 396.67 389.04 396.56 385.46 395.46 C 384.77 393.88 385.36 392.54 385.50 390.91 C 385.18 390.27 384.85 389.63 384.52 389.00 C 384.79 388.33 385.06 387.67 385.33 387.00 C 385.08 386.33 384.84 385.65 384.59 384.97 C 386.35 382.37 384.75 379.99 385.43 377.00 C 384.79 374.60 385.85 372.44 385.57 369.97 C 385.98 367.81 383.42 365.75 384.92 364.02 C 386.68 363.48 387.66 366.25 388.64 367.33 C 389.37 369.25 388.06 371.90 388.32 373.98 C 388.74 376.72 387.57 379.27 388.12 382.00 C 388.54 385.88 388.25 389.74 388.53 393.63 C 389.55 393.80 390.20 393.45 390.46 392.59 C 390.69 389.99 391.41 387.61 391.19 384.99 C 390.31 380.35 391.12 375.71 390.83 371.01 C 391.64 368.54 391.16 365.52 389.55 363.46 C 387.91 362.46 385.41 364.75 385.12 362.01 C 386.41 358.56 390.96 361.80 392.39 363.56 C 394.16 366.79 393.18 371.44 394.17 374.86 C 394.95 374.86 395.73 374.75 396.50 374.54 C 398.02 372.15 398.18 368.60 396.99 366.07 C 396.49 364.90 394.51 362.88 396.99 362.61 C 401.02 365.08 400.17 368.85 400.16 372.89 C 400.92 372.98 401.44 372.61 401.71 371.79 C 403.46 367.84 401.22 365.70 399.44 362.50 C 397.41 361.49 394.08 363.01 392.28 361.78 C 393.01 360.39 393.62 359.72 395.12 359.14 C 395.61 356.87 396.41 357.81 398.24 357.79 Z" fill="#303030"/>
	<path d="M 468.54 358.45 C 469.66 359.96 469.76 362.19 470.18 364.00 C 469.73 365.88 469.38 367.71 469.41 369.66 C 471.39 370.34 472.84 367.24 474.95 368.95 C 476.75 370.66 479.06 371.85 479.58 374.35 C 479.97 378.74 479.68 383.28 478.42 387.52 C 477.03 389.95 475.67 391.91 475.66 394.86 C 475.15 395.26 474.42 395.23 473.48 394.76 C 469.04 393.95 464.95 395.52 460.63 394.40 L 460.24 393.12 C 461.22 389.82 461.60 386.55 461.65 383.12 C 462.91 376.94 462.52 370.26 462.16 364.00 C 462.08 362.45 460.91 360.34 461.78 358.97 C 464.03 357.36 466.09 356.95 468.54 358.45 Z" fill="#303030"/>
	<path d="M 546.12 358.15 C 546.78 358.03 547.34 358.38 547.80 359.20 C 549.70 361.96 549.10 366.74 549.45 370.01 C 549.72 371.68 547.77 373.22 548.20 374.83 C 550.27 380.42 550.43 386.77 550.64 392.67 C 549.03 393.15 547.96 391.08 547.36 389.89 C 547.12 382.52 548.11 375.46 547.29 367.99 C 547.01 366.20 547.25 364.60 547.62 362.85 C 548.10 361.25 545.96 359.71 546.12 358.15 Z" fill="#ffffff"/>
	<path d="M 464.46 360.38 C 465.17 360.33 465.88 360.34 466.57 360.41 C 467.72 362.94 467.18 366.24 467.34 368.98 C 467.57 372.18 465.81 374.78 466.32 377.99 C 466.61 380.73 466.00 383.40 466.11 386.15 L 467.01 386.94 L 467.84 386.13 C 468.43 381.77 468.18 377.23 468.67 372.82 C 469.32 371.61 470.15 371.34 471.15 372.01 C 471.13 374.93 471.84 377.37 472.76 380.10 C 472.92 383.62 471.03 387.12 470.55 390.66 C 469.80 390.89 469.11 390.89 468.48 390.66 C 468.28 388.72 467.69 387.74 466.71 387.74 C 466.54 389.56 466.16 393.79 463.33 391.65 C 464.82 386.23 464.03 380.44 464.86 374.89 C 465.70 371.56 465.11 368.22 465.70 364.84 C 464.47 363.44 464.50 362.15 464.46 360.38 Z" fill="#ffffff"/>
	<path d="M 412.44 365.28 C 413.12 365.41 413.79 365.56 414.46 365.74 C 416.85 368.39 419.85 369.19 420.32 372.97 C 420.26 378.50 419.93 383.99 420.48 389.59 C 422.05 390.26 423.34 391.90 424.97 392.20 C 427.34 391.49 427.36 388.21 426.74 386.31 C 428.24 380.78 429.02 374.53 427.69 368.98 C 428.57 367.26 431.53 368.28 431.52 370.11 C 431.31 373.55 431.87 376.75 430.49 379.97 C 429.90 383.76 431.32 388.05 431.47 392.02 C 432.21 392.62 432.66 393.27 432.82 393.98 C 431.82 396.25 429.65 395.40 428.13 394.24 C 425.95 394.51 424.04 395.03 421.87 394.37 C 419.56 393.74 416.06 396.01 414.40 393.58 C 412.86 392.38 413.13 389.79 412.79 388.00 C 413.12 384.30 413.24 380.65 414.14 377.02 C 414.72 374.96 413.47 373.87 412.74 372.11 C 414.85 370.28 412.54 369.23 413.71 366.79 C 413.30 366.28 412.88 365.77 412.44 365.28 Z" fill="#303030"/>
	<path d="M 513.91 366.54 C 516.16 366.38 518.19 365.87 520.42 366.57 C 521.20 368.21 520.92 369.53 523.06 369.82 C 522.51 371.97 521.40 373.67 521.70 376.00 C 522.32 381.83 520.61 386.52 523.55 392.01 C 522.82 393.48 521.92 395.19 520.02 395.10 C 518.23 395.17 514.56 395.39 513.57 393.55 C 513.27 390.10 512.50 386.43 513.19 383.01 C 513.89 379.62 513.18 376.40 513.25 372.99 C 513.11 371.69 512.94 369.99 512.03 368.98 C 510.89 368.15 509.17 369.24 508.17 367.95 C 507.96 365.59 512.51 365.20 513.91 366.54 Z" fill="#303030"/>
	<path d="M 442.00 366.57 C 443.67 366.81 445.33 367.53 447.01 367.54 C 448.70 367.24 450.27 366.48 451.95 366.08 C 453.71 366.89 455.56 367.86 457.10 369.03 C 458.89 372.12 455.68 376.78 452.03 375.29 C 450.87 374.31 448.59 373.53 447.18 374.14 L 446.87 375.01 C 447.51 379.88 447.93 385.19 446.79 390.00 C 446.54 391.52 447.20 393.62 445.68 394.57 C 443.18 394.89 440.35 396.70 438.61 394.04 C 438.50 390.07 440.22 386.10 440.16 382.00 C 440.03 378.16 440.73 373.15 438.48 369.84 C 438.29 369.07 438.28 368.34 438.46 367.64 C 439.64 367.29 440.81 366.88 442.00 366.57 Z" fill="#303030"/>
	<path d="M 495.85 366.28 C 498.43 367.20 500.33 369.48 501.41 371.94 C 501.74 377.04 500.64 381.96 500.56 387.02 C 500.69 390.18 502.69 391.81 505.53 392.66 C 505.65 393.28 505.67 393.92 505.58 394.57 C 504.12 395.43 502.54 396.27 500.89 396.70 C 498.38 396.81 496.94 395.33 494.89 394.27 C 493.61 393.88 492.27 395.27 491.04 395.59 C 488.82 395.08 485.75 394.48 484.83 392.09 C 482.92 387.69 482.93 382.21 487.35 379.36 C 489.73 378.86 492.52 379.86 494.61 378.63 C 495.70 376.38 495.61 373.36 493.01 372.49 C 490.64 373.44 489.56 375.50 486.58 374.44 C 485.78 373.12 484.88 372.09 485.51 370.46 C 487.71 366.62 491.81 366.14 495.85 366.28 Z" fill="#303030"/>
	<path d="M 526.28 367.35 C 527.94 366.68 530.98 367.47 531.74 369.18 C 532.43 374.52 530.95 379.79 532.26 385.00 C 532.45 386.48 531.96 387.72 533.10 388.88 C 533.90 390.26 536.68 391.18 535.79 392.98 C 534.42 393.89 533.31 394.80 531.56 394.54 C 530.98 392.49 530.42 390.53 529.36 388.67 C 529.61 385.32 528.34 382.30 528.71 378.99 C 528.78 375.96 529.87 372.89 527.98 370.16 C 526.51 370.28 525.05 370.37 523.58 370.43 C 522.32 368.45 524.99 368.07 526.28 367.35 Z" fill="#303030"/>
	<path d="M 493.49 368.65 C 495.61 369.23 497.62 370.29 498.41 372.46 C 499.04 375.89 498.68 379.60 497.91 382.99 C 497.48 386.42 498.67 389.50 498.87 392.91 C 496.04 392.34 495.29 386.57 495.26 384.11 C 497.18 380.63 497.87 376.94 497.21 372.99 C 496.17 371.63 494.63 370.48 493.08 369.74 C 491.41 370.68 490.28 372.04 488.22 371.76 C 490.79 370.52 490.74 367.88 493.49 368.65 Z" fill="#ffffff"/>
	<path d="M 442.24 369.33 C 445.63 370.26 448.56 369.19 451.91 369.25 C 453.04 369.56 455.85 370.95 454.41 372.39 C 452.80 374.06 452.23 371.53 451.38 370.56 C 450.40 369.57 449.39 371.02 448.52 371.46 C 447.51 371.86 446.20 371.26 445.13 371.20 C 442.70 375.64 447.52 382.19 444.33 386.21 C 444.83 388.13 444.74 390.27 444.26 392.17 C 443.66 392.80 442.97 393.00 442.18 392.77 C 440.58 390.96 442.25 388.87 442.41 387.02 C 442.09 383.20 442.24 379.64 442.71 375.84 C 443.04 373.65 442.01 371.47 442.24 369.33 Z" fill="#ffffff"/>
	<path d="M 516.03 368.93 C 516.72 368.27 517.53 368.44 518.47 369.44 C 518.88 375.65 519.63 381.74 519.21 387.97 C 519.18 389.13 520.71 391.22 519.05 391.61 C 515.68 391.67 516.91 388.13 516.09 385.99 C 515.09 382.53 517.19 379.39 516.30 375.84 C 515.83 373.78 515.23 370.92 516.03 368.93 Z" fill="#ffffff"/>
	<path d="M 561.78 370.00 C 558.99 372.72 557.10 375.81 553.17 376.61 C 553.01 374.51 556.05 372.84 557.18 371.17 C 558.48 369.89 560.68 366.40 561.78 370.00 Z" fill="#ffffff"/>
	<path d="M 416.32 371.25 C 417.57 372.24 417.93 373.40 417.76 374.98 C 417.32 379.67 417.47 384.33 417.41 389.03 C 417.21 390.84 418.60 391.57 419.68 392.70 C 419.00 392.63 418.33 392.55 417.65 392.45 C 415.75 390.53 416.19 388.48 416.21 386.01 C 416.50 382.58 415.88 379.32 416.99 375.98 C 416.73 374.40 416.37 372.86 416.32 371.25 Z" fill="#ffffff"/>
	<path d="M 472.81 371.76 L 473.98 371.35 C 477.84 375.49 477.20 381.07 476.35 386.21 C 475.66 387.46 475.25 391.02 473.36 390.69 C 472.26 386.28 476.37 381.39 475.06 376.98 C 474.53 375.14 473.15 373.64 472.81 371.76 Z" fill="#ffffff"/>
	<path d="M 394.51 376.60 C 396.53 376.74 399.61 376.10 400.93 378.02 C 402.42 379.40 400.93 382.61 403.47 382.51 C 400.67 384.61 403.32 388.82 400.34 390.71 C 400.57 388.79 401.17 386.90 401.26 384.97 C 400.61 382.34 399.35 379.96 398.62 377.35 C 397.08 376.48 395.83 377.12 396.13 378.99 C 396.19 382.80 397.91 385.82 397.59 389.64 C 397.04 390.98 395.93 393.70 394.21 393.72 C 392.83 392.07 393.63 389.02 393.55 387.00 C 393.82 383.69 393.02 379.62 394.51 376.60 Z" fill="#ffffff"/>
	<path d="M 489.87 381.14 C 489.16 382.18 488.83 383.17 488.87 384.10 C 490.69 384.22 490.71 382.59 491.39 381.35 C 492.10 381.40 492.77 381.93 493.39 382.94 C 492.72 386.07 493.68 388.97 493.62 392.08 C 492.61 393.72 491.12 393.03 490.30 391.72 C 489.25 389.80 489.27 387.12 489.13 384.98 C 486.95 384.65 487.66 387.71 487.17 388.98 L 486.25 388.78 C 484.41 386.34 486.51 380.96 489.87 381.14 Z" fill="#ffffff"/>
	<path d="M 561.33 383.22 C 562.68 383.31 563.51 385.79 563.24 386.99 C 563.17 388.34 564.46 389.28 564.66 390.61 C 563.65 390.95 563.00 390.83 562.70 390.24 C 561.93 387.85 560.91 385.80 561.33 383.22 Z" fill="#ffffff"/>
	<path d="M 584.21 383.29 C 586.24 383.82 588.00 383.66 590.06 383.48 L 590.75 384.13 C 591.09 386.38 591.97 389.40 591.62 391.60 C 589.83 392.92 587.23 392.40 585.05 392.81 C 580.76 391.56 581.03 385.51 584.21 383.29 Z" fill="#303030"/>
	<path d="M 588.60 386.35 C 588.79 387.37 588.77 388.42 588.55 389.51 C 586.76 389.70 585.08 389.98 585.46 387.53 C 586.48 386.98 587.42 386.42 588.60 386.35 Z" fill="#ffffff"/>
</svg>
