<?xml version="1.0" standalone="no"?>
<!DOCTYPE svg PUBLIC "-//W3C//DTD SVG 20010904//EN"
 "http://www.w3.org/TR/2001/REC-SVG-20010904/DTD/svg10.dtd">
<svg version="1.0" xmlns="http://www.w3.org/2000/svg"
 width="1000.000000pt" height="494.000000pt" viewBox="0 0 1000.000000 494.000000"
 preserveAspectRatio="xMidYMid meet">
<metadata>
Created by potrace 1.16, written by Peter Selinger 2001-2019
</metadata>
<g transform="translate(0.000000,494.000000) scale(0.100000,-0.100000)"
fill="#000000" stroke="none">
<path d="M7313 4815 c2 -5 16 -10 30 -9 107 2 137 5 137 14 0 6 -34 9 -85 7
-51 -1 -84 -6 -82 -12z"/>
<path d="M6705 4784 l-50 -13 50 5 c48 6 63 10 54 17 -2 2 -26 -2 -54 -9z"/>
<path d="M6770 4790 c0 -5 11 -10 25 -10 14 0 25 5 25 10 0 6 -11 10 -25 10
-14 0 -25 -4 -25 -10z"/>
<path d="M8653 4781 c-76 -9 -78 -23 -3 -19 39 2 65 8 68 16 2 6 0 11 -5 11
-4 -1 -31 -5 -60 -8z"/>
<path d="M8753 4782 c-43 -6 -23 -20 27 -19 28 0 50 4 50 8 0 8 -47 15 -77 11z"/>
<path d="M6281 4771 c-9 -6 13 -9 58 -9 39 0 71 4 71 9 0 12 -111 11 -129 0z"/>
<path d="M6460 4770 c0 -5 5 -10 11 -10 5 0 7 5 4 10 -3 6 -8 10 -11 10 -2 0
-4 -4 -4 -10z"/>
<path d="M8050 4773 c0 -6 33 -13 73 -17 39 -3 87 -8 105 -11 39 -6 43 10 4
18 -66 13 -182 19 -182 10z"/>
<path d="M7980 4760 l-35 -7 43 -2 c23 0 42 4 42 9 0 6 -3 9 -7 9 -5 -1 -24
-5 -43 -9z"/>
<path d="M9255 4750 c-3 -6 0 -13 9 -16 22 -8 59 -1 64 14 5 15 -64 17 -73 2z"/>
<path d="M6450 4510 c0 -5 7 -10 15 -10 8 0 15 5 15 10 0 6 -7 10 -15 10 -8 0
-15 -4 -15 -10z"/>
<path d="M6360 4501 c0 -6 17 -7 38 -4 51 8 53 13 4 13 -23 0 -42 -4 -42 -9z"/>
<path d="M5735 4470 l-30 -6 36 -6 c19 -3 51 -3 70 1 l34 8 -40 4 c-22 2 -54
2 -70 -1z"/>
<path d="M9266 4431 c-3 -5 0 -11 8 -14 15 -6 26 1 26 15 0 11 -27 10 -34 -1z"/>
<path d="M8603 4383 c-24 -2 -43 -9 -43 -15 0 -6 9 -8 23 -4 12 4 67 9 122 13
55 3 102 7 104 9 5 5 -146 2 -206 -3z"/>
<path d="M3077 4273 c-4 -3 -7 -21 -7 -39 0 -18 -4 -35 -9 -39 -6 -3 -7 9 -4
31 4 25 3 35 -4 31 -15 -9 -27 -74 -24 -121 2 -26 -1 -36 -8 -31 -6 3 -11 12
-10 18 4 31 -2 67 -11 67 -5 0 -10 -7 -10 -15 0 -8 -6 -15 -14 -15 -15 0 -26
-21 -26 -51 0 -10 -3 -18 -7 -17 -20 6 -53 -24 -53 -47 0 -18 -5 -25 -20 -25
-13 0 -24 -10 -30 -25 -5 -14 -12 -25 -16 -25 -3 0 -4 11 -2 25 3 14 4 25 1
25 -10 0 -43 -68 -44 -90 0 -23 -1 -23 -9 -5 -7 18 -9 17 -20 -12 -13 -37 -30
-44 -30 -13 0 11 -4 20 -10 20 -5 0 -10 -7 -10 -15 0 -8 -5 -14 -12 -13 -7 2
-16 -15 -21 -37 -15 -67 -19 -73 -27 -45 -11 38 -18 10 -25 -104 -5 -75 -10
-95 -17 -82 -6 11 -8 53 -6 97 3 44 1 79 -2 79 -9 0 -20 -52 -20 -96 0 -19 -4
-34 -10 -34 -5 0 -10 -19 -10 -42 0 -23 -3 -38 -7 -34 -5 4 -8 32 -8 61 0 30
-6 60 -13 67 -9 9 -12 5 -12 -20 0 -34 -14 -43 -24 -16 -13 35 -17 4 -6 -57 7
-41 7 -75 1 -94 -9 -30 -9 -30 -12 13 -1 23 -3 50 -3 60 -1 9 -5 22 -11 28 -7
9 -12 3 -18 -20 -9 -36 -15 -65 -16 -84 -1 -7 -5 -10 -11 -7 -5 3 -16 2 -24
-2 -14 -8 -16 -12 -16 -32 0 -5 -9 -11 -19 -14 -11 -2 -21 -15 -23 -28 -2 -16
-9 -24 -21 -23 -9 1 -17 -4 -17 -12 0 -14 -11 -18 -42 -15 -19 2 -24 -14 -8
-24 19 -12 0 -26 -20 -15 -24 13 -30 13 -30 0 0 -5 8 -10 17 -10 13 0 14 -3 5
-12 -9 -9 -15 -9 -24 0 -18 18 -38 15 -31 -5 6 -15 4 -16 -9 -6 -17 15 -29 7
-21 -13 3 -9 -2 -14 -17 -14 -33 0 -18 -25 16 -26 19 0 35 8 47 22 10 13 24
21 31 18 7 -3 26 5 42 18 30 24 70 48 79 48 3 0 5 -13 5 -29 0 -17 5 -33 11
-36 7 -5 8 7 4 38 -4 28 -3 47 4 51 7 5 11 -2 11 -17 0 -14 7 -30 15 -37 12
-10 13 -6 8 26 -4 27 -3 35 5 30 7 -4 12 -14 12 -22 0 -8 5 -14 10 -14 6 0 10
9 10 21 0 11 -4 17 -10 14 -5 -3 -10 -2 -10 4 0 5 4 12 9 16 6 3 13 26 17 50
3 26 10 42 16 39 6 -4 7 -19 4 -35 -6 -32 9 -40 17 -9 3 13 11 18 20 14 11 -4
17 11 24 73 l10 78 2 -67 c1 -56 4 -66 16 -62 8 4 21 1 29 -5 11 -9 13 -3 11
38 -3 60 10 89 21 45 10 -44 18 -51 24 -24 5 18 12 24 28 23 17 -2 22 3 22 20
0 13 7 32 16 43 15 19 15 19 10 -1 -14 -56 -15 -71 -7 -85 14 -20 20 -11 26
41 6 48 17 65 35 54 7 -4 9 -18 5 -35 -7 -33 5 -44 30 -26 12 8 18 27 19 59 1
49 20 71 29 35 3 -12 3 -33 0 -48 -3 -20 0 -29 12 -34 23 -8 25 -6 32 39 4 25
3 36 -4 32 -6 -4 -13 2 -16 14 -4 16 -3 18 8 9 10 -8 16 -7 24 7 10 17 10 17
11 1 0 -10 7 -18 15 -18 12 0 12 -5 0 -41 -21 -59 3 -45 26 16 11 28 19 64 19
80 0 23 3 27 10 15 5 -8 10 -25 10 -37 0 -13 5 -23 10 -23 6 0 10 12 10 28 1
15 4 72 9 127 5 55 10 111 11 125 1 23 2 23 9 5 9 -21 -2 -232 -14 -277 -5
-18 -3 -28 4 -28 6 0 11 10 11 21 0 17 3 19 14 10 19 -16 28 7 35 88 4 38 11
66 19 69 19 6 15 -65 -7 -126 -11 -28 -15 -52 -10 -52 21 0 67 127 79 215 7
50 17 97 22 105 6 10 7 0 3 -30 -4 -25 -11 -74 -15 -110 -4 -36 -11 -76 -16
-89 -5 -17 -4 -22 4 -17 7 4 18 28 27 54 l15 47 -7 -49 c-8 -71 11 -51 26 26
11 56 39 159 61 228 12 36 12 1 0 -40 -21 -72 -51 -232 -45 -238 3 -3 8 4 12
16 5 22 23 31 23 11 0 -5 5 -7 10 -4 6 3 10 18 10 33 0 19 3 23 9 13 10 -16
19 -5 38 49 l13 35 -5 -33 c-4 -30 -3 -32 20 -28 18 3 23 0 22 -14 -1 -10 -4
-17 -8 -14 -4 2 -10 -3 -13 -12 -9 -23 -7 -36 4 -29 6 3 10 -5 10 -19 0 -62
38 -114 112 -152 28 -14 54 -37 63 -53 20 -39 28 -43 62 -30 15 7 34 13 42 13
8 1 18 13 23 29 8 23 5 32 -17 60 -34 40 -68 56 -122 57 -26 0 -43 5 -43 12 0
6 -7 19 -15 28 -9 10 -18 40 -22 67 -5 48 -4 50 18 49 19 -1 28 8 41 36 22 50
32 48 24 -3 -5 -34 -4 -40 8 -36 10 4 13 1 10 -7 -7 -19 46 -32 58 -14 23 34
49 91 44 96 -7 6 -5 8 -35 -38 -16 -24 -21 -28 -17 -12 3 12 9 32 12 45 4 15
-1 11 -17 -13 -30 -46 -28 -44 -34 -38 -3 3 2 21 11 41 15 32 16 37 1 51 -23
24 -30 21 -66 -36 -18 -29 -30 -44 -26 -33 4 11 12 36 17 55 6 19 17 43 25 52
8 9 12 22 8 29 -6 8 -13 5 -27 -12 -10 -13 -18 -19 -17 -14 4 26 -3 37 -33 50
-43 18 -86 -3 -94 -45 -5 -25 -8 -27 -20 -15 -11 10 -12 20 -4 41 10 24 7 44
-5 33 -2 -3 -18 -34 -34 -70 -24 -51 -29 -57 -24 -29 5 29 17 61 52 135 2 5
-8 1 -24 -9 l-28 -18 7 25 c5 23 4 24 -18 14 -19 -9 -22 -18 -20 -48 1 -22 -4
-45 -12 -56 -14 -16 -15 -13 -10 37 2 30 7 64 10 75 7 21 -8 54 -19 43 -4 -3
-10 -37 -14 -75 -6 -57 -8 -63 -14 -38 -4 17 -3 51 2 78 4 26 5 49 1 52 -11 7
-20 -6 -20 -29 0 -12 -5 -28 -11 -36 -8 -12 -9 -11 -5 5 18 77 18 85 -3 85
-17 0 -21 -8 -27 -50 -4 -28 -11 -53 -15 -56 -13 -8 -11 34 6 96 18 66 17 60
6 60 -15 0 -44 -106 -39 -144 3 -24 1 -33 -6 -26 -21 21 -26 8 -26 -62 0 -51
-3 -68 -10 -58 -5 8 -10 44 -10 79 0 50 4 69 19 85 11 12 23 37 26 56 3 19 8
43 11 53 5 17 -6 23 -19 10z m80 -95 c-3 -8 -6 -5 -6 6 -1 11 2 17 5 13 3 -3
4 -12 1 -19z m-167 -53 c0 -8 -2 -15 -4 -15 -2 0 -6 7 -10 15 -3 8 -1 15 4 15
6 0 10 -7 10 -15z m167 -47 c-3 -8 -6 -5 -6 6 -1 11 2 17 5 13 3 -3 4 -12 1
-19z m-142 -35 c-3 -26 -8 -49 -11 -52 -6 -6 -5 50 2 77 11 38 16 24 9 -25z
m-95 -92 c-6 -11 -9 5 -9 49 l1 65 9 -49 c4 -29 4 -56 -1 -65z m237 46 c3 -38
-12 -23 -20 21 -5 25 -4 30 6 21 6 -6 13 -25 14 -42z m239 -18 c-17 -36 -25
-47 -25 -32 -1 33 30 106 41 95 5 -5 -2 -31 -16 -63z m-449 39 c-3 -8 -6 -5
-6 6 -1 11 2 17 5 13 3 -3 4 -12 1 -19z m150 -50 c-2 -13 -4 -5 -4 17 -1 22 1
32 4 23 2 -10 2 -28 0 -40z m-198 -67 c1 -76 -2 -112 -10 -117 -9 -5 -11 4 -7
37 3 24 3 69 -1 99 -8 56 -5 90 9 90 4 0 8 -49 9 -109z m451 104 c0 -3 -11
-27 -25 -53 -14 -26 -25 -39 -25 -29 0 26 27 87 39 87 6 0 11 -2 11 -5z m143
-43 c-3 -12 -9 -22 -14 -22 -5 0 -3 11 3 25 13 30 20 28 11 -3z m-503 -3 c0
-5 -4 -8 -9 -4 -6 3 -12 -16 -14 -42 l-3 -48 -2 53 c-2 40 1 52 13 52 8 0 15
-5 15 -11z m137 -36 c-3 -10 -5 -4 -5 12 0 17 2 24 5 18 2 -7 2 -21 0 -30z
m-190 -75 c-3 -7 -5 -2 -5 12 0 14 2 19 5 13 2 -7 2 -19 0 -25z m330 0 c-3 -8
-6 -5 -6 6 -1 11 2 17 5 13 3 -3 4 -12 1 -19z m-555 -20 c-8 -8 -9 -4 -5 13 4
13 8 18 11 10 2 -7 -1 -18 -6 -23z m255 0 c-3 -7 -5 -2 -5 12 0 14 2 19 5 13
2 -7 2 -19 0 -25z m-107 -40 c0 -18 -2 -20 -9 -8 -6 8 -7 18 -5 22 9 14 14 9
14 -14z m-64 -39 c-9 -27 -14 -36 -15 -22 -1 22 19 76 26 70 1 -2 -3 -23 -11
-48z m-42 -16 c-3 -27 -11 -52 -16 -58 -7 -7 -9 3 -4 30 3 22 6 48 6 58 0 9 5
17 11 17 7 0 8 -16 3 -47z m23 -65 c-3 -7 -5 -2 -5 12 0 14 2 19 5 13 2 -7 2
-19 0 -25z m-150 0 c-3 -8 -6 -5 -6 6 -1 11 2 17 5 13 3 -3 4 -12 1 -19z m230
-30 c-3 -8 -6 -5 -6 6 -1 11 2 17 5 13 3 -3 4 -12 1 -19z m-69 -8 c-7 -10 -14
-17 -17 -15 -4 4 18 35 25 35 2 0 -1 -9 -8 -20z m-371 -142 c-3 -8 -6 -5 -6 6
-1 11 2 17 5 13 3 -3 4 -12 1 -19z m-38 -39 c-25 -16 -33 -9 -13 10 10 10 21
14 23 8 2 -5 -3 -13 -10 -18z m21 -13 c0 -3 -4 -8 -10 -11 -5 -3 -10 -1 -10 4
0 6 5 11 10 11 6 0 10 -2 10 -4z"/>
<path d="M7710 4250 l-75 -6 78 -2 c46 -1 77 2 77 8 0 6 -1 9 -2 8 -2 -1 -37
-4 -78 -8z"/>
<path d="M7548 4243 c6 -2 18 -2 25 0 6 3 1 5 -13 5 -14 0 -19 -2 -12 -5z"/>
<path d="M7608 4243 c7 -3 16 -2 19 1 4 3 -2 6 -13 5 -11 0 -14 -3 -6 -6z"/>
<path d="M7410 4230 c-10 -7 2 -8 40 -4 30 4 57 8 59 10 10 9 -86 3 -99 -6z"/>
<path d="M4030 4148 c-26 -43 -32 -150 -10 -172 6 -6 10 -40 10 -76 0 -79 -23
-115 -80 -126 -57 -11 -149 -111 -118 -130 6 -4 18 2 26 12 13 18 14 18 7 -5
-7 -22 -5 -23 20 -19 26 5 27 4 20 -28 -3 -19 -3 -34 1 -34 12 0 33 34 34 53
0 19 13 22 40 7 13 -7 29 -5 55 6 49 20 93 11 101 -23 10 -37 -14 -54 -81 -57
-35 -2 -60 -8 -66 -17 -16 -26 -9 -67 16 -97 14 -17 25 -40 25 -52 0 -21 64
-121 82 -128 15 -7 8 -28 -17 -50 l-25 -22 0 25 c0 33 -18 32 -26 -2 -7 -25 7
-44 40 -56 14 -5 -23 -79 -43 -85 -8 -3 -11 0 -8 5 7 11 -43 63 -64 67 -71 16
-78 19 -83 42 -6 24 -26 34 -26 13 0 -26 23 -49 60 -59 22 -6 52 -22 67 -35
24 -21 26 -26 13 -35 -31 -20 -69 -11 -129 33 -13 9 -41 17 -62 17 -37 0 -37
0 -47 -52 l-10 -53 -1 50 c-1 36 -4 46 -11 35 -13 -20 -13 -77 0 -85 6 -3 10
-12 10 -18 0 -7 -4 -6 -10 3 -8 12 -10 12 -9 -5 0 -11 4 -29 9 -40 l8 -20 8
20 c4 11 12 23 17 27 6 3 12 31 15 62 4 52 6 56 29 56 14 0 37 -8 51 -18 50
-35 90 -46 118 -33 14 6 35 11 48 11 29 0 40 13 82 97 37 73 42 101 19 109 -8
4 -15 12 -15 20 0 7 -6 17 -13 21 -24 15 -57 66 -57 87 0 12 -11 37 -25 56
-28 38 -34 76 -10 66 8 -3 23 -9 32 -13 13 -5 15 -3 9 12 -6 18 -6 18 12 2 23
-21 32 -22 32 -2 0 11 5 12 26 5 33 -13 35 -13 33 3 -3 23 13 57 27 57 19 0
18 10 -3 26 -17 12 -17 13 -1 14 9 0 20 5 24 11 3 6 -1 10 -12 9 -34 -4 -38 0
-18 14 24 18 13 31 -15 16 -12 -6 -21 -7 -21 -2 0 5 11 15 25 22 25 14 33 30
15 30 -6 0 -22 -7 -35 -16 -13 -9 -29 -13 -34 -10 -10 7 -16 4 -78 -28 -34
-17 -63 -21 -63 -8 0 14 35 42 51 42 21 0 65 48 83 92 20 46 29 117 17 132 -5
6 -15 45 -23 87 -12 66 -12 80 0 107 19 38 10 62 -23 62 -18 0 -31 -10 -45
-32z m-90 -412 c0 -2 -7 -7 -16 -10 -8 -3 -12 -2 -9 4 6 10 25 14 25 6z"/>
<path d="M6317 4170 c-54 -4 -101 -11 -105 -15 -10 -10 201 6 213 16 6 6 6 8
0 8 -6 -1 -54 -5 -108 -9z"/>
<path d="M6461 4176 c2 -2 35 -6 73 -9 41 -3 63 -1 55 4 -13 8 -137 13 -128 5z"/>
<path d="M8184 4160 c43 -22 56 -24 56 -12 0 9 -59 32 -81 32 -8 -1 4 -10 25
-20z"/>
<path d="M9365 4093 c-33 -8 -42 -23 -13 -23 33 0 58 9 58 21 0 9 -12 10 -45
2z"/>
<path d="M8783 4069 c-18 -5 -33 -11 -33 -12 0 -1 60 -2 132 -2 73 0 156 -2
183 -5 28 -3 50 -1 50 4 0 10 -29 13 -190 19 -60 3 -125 1 -142 -4z"/>
<path d="M8243 3998 c-25 -12 -28 -20 -38 -90 -4 -30 -11 -48 -20 -48 -18 0
-25 23 -25 80 0 54 -9 65 -46 56 -21 -6 -24 -12 -24 -51 0 -24 -5 -56 -11 -72
l-11 -28 -11 25 c-23 54 -48 89 -61 84 -25 -10 -37 -53 -26 -95 8 -28 8 -51 0
-79 -6 -23 -8 -51 -4 -63 5 -16 3 -19 -5 -11 -6 6 -16 39 -22 75 -6 35 -17 74
-25 87 -14 21 -17 22 -37 9 -38 -25 -42 -67 -17 -155 13 -44 20 -87 17 -96
-10 -26 -36 -19 -42 12 -4 15 -15 46 -26 70 -17 37 -23 43 -47 40 -44 -5 -55
-42 -38 -125 8 -37 12 -70 10 -72 -2 -3 -17 8 -32 22 -16 15 -33 27 -38 27
-21 0 -37 -47 -30 -86 8 -41 -8 -61 -32 -42 -8 7 -16 8 -20 2 -4 -5 -31 -30
-61 -57 -43 -38 -60 -47 -90 -47 -42 0 -58 -10 -90 -58 -20 -28 -28 -32 -62
-30 -42 2 -71 -17 -92 -61 -9 -20 -21 -27 -50 -29 -32 -3 -42 -9 -59 -38 -14
-24 -27 -34 -42 -33 -31 3 -84 -22 -89 -43 -4 -12 -15 -18 -34 -18 -33 0 -73
-25 -73 -45 0 -17 -48 -55 -70 -55 -22 0 -47 -29 -52 -60 -2 -19 -10 -26 -33
-30 -20 -3 -34 -15 -45 -35 -8 -17 -22 -34 -29 -39 -8 -5 -24 -19 -35 -31 -12
-12 -37 -30 -56 -40 -19 -10 -71 -52 -115 -95 -95 -91 -109 -101 -240 -170
-186 -98 -277 -160 -353 -239 -127 -131 -192 -224 -308 -436 -38 -71 -77 -129
-147 -222 -28 -37 -37 -58 -32 -73 10 -31 37 -24 108 30 36 27 87 62 114 76
26 15 73 43 103 63 55 36 122 71 295 151 50 23 95 44 101 48 71 44 143 106
190 163 12 14 30 32 41 40 10 8 32 32 48 54 17 22 32 42 35 45 3 3 34 50 68
106 34 55 71 111 83 125 12 13 26 31 33 39 6 8 21 21 34 28 30 17 30 -4 -2
-66 -13 -26 -27 -58 -31 -72 -4 -14 -27 -45 -50 -70 -36 -39 -43 -54 -49 -104
-8 -70 -25 -104 -77 -158 -32 -33 -39 -48 -39 -80 0 -21 -7 -54 -15 -74 -20
-49 -46 -180 -39 -198 15 -40 64 12 64 67 0 38 32 128 44 124 6 -2 10 -13 8
-23 -1 -10 -7 -48 -13 -84 -5 -36 -7 -75 -4 -86 6 -25 26 -36 44 -25 16 11 40
105 42 166 l1 50 12 -52 c13 -61 46 -110 65 -99 8 5 11 19 8 35 -13 60 -33
130 -40 137 -12 13 -7 -49 8 -91 18 -48 17 -45 6 -45 -12 0 -31 56 -31 91 0
15 -5 31 -10 34 -6 4 -8 10 -5 15 4 7 -24 30 -37 30 -2 0 -3 -46 -3 -103 0
-80 -4 -107 -18 -127 l-17 -24 0 49 c0 28 5 70 11 94 10 45 -2 101 -22 101
-15 0 -49 -79 -60 -138 -12 -65 -33 -109 -25 -52 11 78 23 127 39 159 9 19 17
50 17 71 0 28 8 43 35 70 47 45 75 104 82 170 5 47 11 61 48 100 23 25 45 54
49 64 9 25 18 14 22 -26 2 -25 -6 -43 -31 -74 -24 -28 -37 -59 -46 -103 -7
-40 -25 -82 -46 -113 -38 -58 -42 -84 -12 -93 25 -8 39 2 15 11 -23 9 -20 24
13 70 17 23 36 70 47 113 15 66 40 111 61 111 3 0 14 6 23 13 9 6 3 0 -12 -15
-16 -16 -29 -39 -29 -55 -2 -61 -22 -138 -49 -187 -15 -28 -25 -58 -23 -66 10
-32 27 -60 38 -60 20 0 43 -54 50 -117 8 -69 25 -94 51 -72 12 10 15 25 10 66
-3 31 -2 53 4 53 5 0 28 -18 51 -41 40 -39 69 -46 69 -15 0 8 -19 38 -42 68
-22 29 -45 59 -51 66 -7 9 -2 12 22 12 26 0 37 -8 67 -50 26 -36 43 -50 59
-50 13 0 27 5 30 10 9 15 -50 104 -77 117 -53 25 -107 41 -124 37 -11 -2 -25
0 -33 5 -11 7 -11 12 2 32 9 13 22 59 30 103 15 80 25 96 64 96 14 0 32 14 49
38 15 21 47 53 72 72 25 19 51 49 58 67 l14 32 152 0 c191 1 290 13 376 47
104 41 169 81 250 156 81 73 125 91 98 40 -8 -15 -17 -46 -21 -67 -4 -22 -25
-67 -46 -101 -28 -43 -39 -71 -38 -95 1 -19 -3 -59 -9 -90 -14 -73 -94 -194
-165 -250 -29 -23 -53 -45 -55 -50 -9 -24 28 -3 95 52 92 75 80 47 -21 -49
-42 -40 -76 -74 -76 -77 0 -3 6 -5 14 -5 16 0 57 38 124 113 59 67 98 143 52
102 -20 -18 -21 -18 -14 1 4 10 18 35 31 54 13 19 23 40 23 47 0 8 4 21 9 31
18 35 32 98 28 130 -3 24 2 41 17 60 11 15 26 35 31 45 14 26 29 26 33 -1 3
-17 -2 -25 -17 -29 -23 -6 -41 -50 -41 -102 0 -20 -7 -49 -15 -65 -9 -16 -13
-36 -10 -44 3 -7 -2 -23 -10 -35 -8 -12 -15 -28 -15 -37 0 -35 -113 -225 -154
-259 -18 -15 -21 -31 -6 -31 28 0 153 179 171 245 6 22 18 56 26 75 22 49 33
87 43 148 6 34 20 67 39 91 31 39 81 136 81 157 0 7 7 25 15 40 8 16 12 36 9
46 -2 9 0 19 6 23 14 9 12 -107 -2 -154 -6 -19 -24 -58 -41 -85 -22 -39 -30
-65 -32 -111 -7 -168 -19 -293 -30 -315 -20 -37 -81 -100 -98 -100 -17 0 -43
-28 -34 -36 12 -13 52 11 98 58 27 28 49 46 49 41 0 -18 -58 -90 -89 -112 -17
-12 -31 -27 -31 -32 0 -35 87 36 125 103 14 23 25 38 25 32 0 -27 -34 -89 -72
-130 -40 -43 -46 -74 -14 -74 35 0 139 174 134 226 -1 18 1 36 5 40 4 4 7 22
7 39 0 18 7 52 16 76 9 24 20 94 24 154 l7 110 78 80 c49 50 88 102 107 140
53 110 58 116 125 136 68 21 193 88 234 126 14 12 29 23 33 23 5 0 15 8 22 18
10 14 28 17 106 17 81 0 100 -3 149 -27 31 -16 65 -28 77 -28 11 0 40 18 63
40 28 26 52 40 70 40 34 0 86 56 95 104 8 43 -19 104 -80 179 -68 83 -125 178
-132 216 -16 98 -71 174 -152 211 -26 12 -55 26 -64 31 -10 5 -24 9 -32 9 -8
0 -16 6 -19 13 -3 9 -8 8 -22 -3 -17 -14 -18 -13 -12 22 8 49 -11 66 -48 42
-36 -24 -51 -7 -34 39 24 67 -19 93 -56 34 -33 -52 -50 -42 -50 30 0 34 -5 67
-11 73 -18 18 -45 -1 -65 -46 -26 -61 -49 -59 -49 4 0 67 -19 83 -67 60z m9
-30 c-7 -7 -12 -21 -12 -32 0 -12 -5 -28 -11 -36 -7 -11 -8 -4 -3 25 7 41 22
70 32 60 3 -3 0 -11 -6 -17z m-246 -54 c-3 -9 -6 -18 -6 -20 0 -2 -4 -4 -9 -4
-5 0 -7 9 -4 20 3 11 10 20 15 20 6 0 7 -7 4 -16z m99 -31 c-6 -34 -25 -70
-25 -49 0 15 23 86 28 86 2 0 1 -17 -3 -37z m156 -16 c-8 -8 -11 -4 -11 14 0
33 14 47 18 19 2 -12 -1 -27 -7 -33z m95 8 c-3 -9 -11 -13 -16 -10 -8 5 -7 11
1 21 14 18 24 11 15 -11z m-336 -56 c0 -24 -4 -38 -10 -34 -5 3 -10 24 -10 46
0 24 4 38 10 34 6 -3 10 -24 10 -46z m201 4 c-12 -20 -14 -14 -5 12 4 9 9 14
11 11 3 -2 0 -13 -6 -23z m79 13 c0 -3 -4 -8 -10 -11 -5 -3 -10 -1 -10 4 0 6
5 11 10 11 6 0 10 -2 10 -4z m128 -31 c-3 -3 -9 2 -12 12 -6 14 -5 15 5 6 7
-7 10 -15 7 -18z m78 -32 c-11 -11 -17 4 -9 23 7 18 8 18 11 1 2 -10 1 -21 -2
-24z m-171 17 c-3 -5 -11 -10 -16 -10 -6 0 -7 5 -4 10 3 6 11 10 16 10 6 0 7
-4 4 -10z m-339 -46 c-4 -9 -9 -15 -11 -12 -3 3 -3 13 1 22 4 9 9 15 11 12 3
-3 3 -13 -1 -22z m84 16 c0 -5 -2 -10 -4 -10 -3 0 -8 5 -11 10 -3 6 -1 10 4
10 6 0 11 -4 11 -10z m81 -37 c-10 -17 -10 -16 -11 3 0 23 13 41 18 25 2 -6
-1 -18 -7 -28z m253 3 c-8 -20 37 -28 56 -11 9 8 19 13 21 11 2 -3 38 -7 80
-9 41 -3 101 -15 133 -26 66 -23 143 -81 158 -120 6 -14 14 -35 19 -46 4 -11
15 -46 24 -77 8 -31 20 -60 25 -63 5 -3 17 -22 26 -42 10 -19 44 -67 76 -107
61 -75 81 -120 71 -167 -4 -23 -43 -74 -43 -56 0 3 -16 1 -35 -4 -31 -9 -45
-5 -123 31 -48 23 -100 49 -117 57 -53 27 -159 63 -186 63 -15 0 -37 -8 -50
-19 l-23 -19 50 0 c33 0 77 -10 128 -31 116 -46 256 -113 256 -121 0 -10 -26
-20 -50 -20 -9 0 -52 11 -94 25 -131 43 -219 30 -303 -45 -62 -55 -148 -101
-162 -87 -8 8 -11 6 -11 -5 0 -16 -30 -31 -83 -43 -26 -5 -28 -4 -25 22 2 20
-1 28 -12 28 -15 0 -19 -11 -55 -135 -15 -52 -51 -114 -85 -150 -8 -9 -43 -46
-77 -83 -35 -37 -63 -61 -63 -53 0 8 5 18 10 21 12 7 13 25 2 25 -15 0 -34
-59 -24 -76 12 -22 4 -54 -14 -54 -8 0 -14 -7 -14 -16 0 -13 3 -14 13 -5 8 6
17 8 20 4 13 -13 7 -92 -13 -155 -11 -34 -20 -72 -20 -84 0 -20 -17 -44 -32
-44 -12 0 -10 94 2 126 6 15 13 74 16 132 4 99 6 108 42 165 32 53 37 69 38
126 1 36 12 98 24 136 26 84 28 99 15 105 -5 3 -21 -17 -35 -43 -29 -55 -59
-77 -154 -111 -37 -14 -81 -35 -96 -48 -176 -144 -179 -146 -306 -194 -54 -20
-92 -26 -217 -32 -84 -4 -176 -6 -205 -4 -45 3 -52 7 -46 21 4 9 17 56 31 105
17 64 20 93 13 100 -17 16 -38 -18 -38 -59 0 -34 -26 -117 -59 -190 -20 -45
-135 -163 -203 -210 -43 -29 -45 -33 -62 -112 -9 -45 -21 -90 -27 -100 -15
-29 0 -42 54 -47 60 -6 86 -26 32 -26 -26 0 -37 -4 -37 -15 0 -8 4 -15 9 -15
5 0 14 -13 19 -29 6 -16 19 -34 29 -39 18 -10 60 -72 48 -72 -11 0 -115 110
-115 123 -1 8 -4 7 -9 -3 -5 -9 -6 -34 -1 -60 12 -59 12 -90 1 -90 -5 0 -11
23 -15 50 -7 53 -37 116 -64 136 -20 14 -18 82 2 98 27 20 63 151 45 162 -19
11 -7 37 32 72 72 65 80 83 95 210 10 86 19 124 34 144 22 30 27 72 8 66 -12
-4 -23 -21 -32 -50 -3 -10 -18 -20 -33 -23 -37 -9 -72 -24 -108 -50 -16 -12
-35 -24 -41 -26 -16 -6 -102 -108 -120 -142 -83 -157 -299 -396 -406 -448
-114 -56 -186 -89 -191 -89 -9 0 -150 -81 -206 -119 -29 -20 -74 -48 -100 -63
-25 -14 -62 -39 -81 -55 -51 -43 -90 -67 -97 -60 -8 9 17 66 36 80 9 7 23 25
31 40 8 16 24 38 35 50 20 20 52 74 112 187 13 25 36 61 51 80 15 19 35 51 46
72 18 36 28 47 160 191 84 92 239 193 511 331 40 20 72 49 103 95 14 21 57 53
124 91 35 20 198 175 198 189 0 9 40 40 99 76 9 6 27 20 41 32 13 13 33 26 44
29 12 4 32 15 45 25 13 11 32 19 43 19 10 0 41 18 69 40 28 22 59 40 68 40 10
0 38 20 63 45 25 25 54 45 64 45 25 0 67 29 94 63 13 16 31 27 46 27 14 0 49
11 79 25 39 17 54 30 57 47 2 19 9 23 37 23 23 1 39 8 52 24 11 13 19 18 19
11 0 -7 8 -10 20 -7 11 3 18 1 14 -4 -12 -20 8 -30 28 -13 10 10 31 18 46 19
18 0 28 6 30 19 3 15 0 17 -14 11 -40 -16 -74 -23 -74 -16 0 4 7 16 15 27 12
16 16 17 24 5 6 -9 16 -11 27 -7 11 5 37 10 59 12 77 7 90 11 90 27 0 24 13
31 31 16 14 -11 18 -10 31 6 11 14 17 16 20 8 7 -20 31 -15 38 7 7 22 20 26
31 8 5 -7 10 -4 15 10 8 22 29 31 29 12 0 -5 5 -10 10 -10 6 0 10 11 10 23 0
13 3 27 6 30 11 11 44 -40 44 -67 0 -22 3 -24 22 -17 12 4 25 18 30 31 7 20 6
22 -17 18 -26 -5 -32 6 -16 31 6 9 11 10 15 2 12 -19 24 -12 31 19 4 16 11 33
17 36 6 4 8 -1 3 -15 -4 -12 -2 -21 4 -21 6 0 13 11 17 24 4 17 11 22 25 19
11 -3 19 0 19 7 0 7 7 10 15 7 8 -4 17 -2 20 3 9 15 25 12 19 -4z m-174 -28
c0 -13 -39 -68 -40 -57 0 3 5 20 11 38 11 31 29 43 29 19z m-468 -38 c2 -22 0
-40 -4 -40 -5 0 -8 18 -8 40 0 22 2 40 4 40 2 0 6 -18 8 -40z m175 -2 c-3 -8
-6 -5 -6 6 -1 11 2 17 5 13 3 -3 4 -12 1 -19z m108 -28 c3 -5 1 -10 -4 -10 -6
0 -11 5 -11 10 0 6 2 10 4 10 3 0 8 -4 11 -10z m-35 -33 c-27 -15 -36 -14 -25
2 3 6 16 11 28 11 21 0 21 -1 -3 -13z m-158 -29 c-18 -19 -22 -20 -22 -6 0 9
8 21 17 27 27 15 29 3 5 -21z m18 -32 c0 -2 -7 -7 -16 -10 -8 -3 -12 -2 -9 4
6 10 25 14 25 6z m-8 -891 c-2 -14 -6 -25 -8 -25 -2 0 -4 11 -4 25 0 14 4 25
9 25 4 0 6 -11 3 -25z m-11 -99 c-14 -30 -27 -53 -29 -52 -8 9 40 106 53 106
1 0 -10 -24 -24 -54z m-11 41 c0 -10 -32 -67 -41 -72 -12 -8 -11 5 2 44 6 17
17 31 25 31 8 0 14 -2 14 -3z m-1214 -156 c-9 -16 -13 -31 -10 -33 2 -3 -3
-20 -11 -39 -16 -34 -16 -34 -10 -4 3 17 6 39 6 49 0 24 17 56 30 56 5 0 3
-13 -5 -29z m30 -13 c-4 -13 -8 -33 -10 -46 -4 -30 -12 -37 -20 -17 -3 10 -2
14 5 10 6 -4 9 -1 8 6 -4 18 9 69 17 69 4 0 3 -10 0 -22z m-44 -110 c-7 -7
-12 -8 -12 -2 0 14 12 26 19 19 2 -3 -1 -11 -7 -17z m62 -3 c-4 -8 -8 -15 -10
-15 -2 0 -4 7 -4 15 0 8 4 15 10 15 5 0 7 -7 4 -15z m-34 -5 c-10 -6 -11 -10
-2 -10 19 0 14 -18 -8 -30 -17 -9 -19 -8 -14 7 3 10 8 24 10 31 2 6 9 12 16
12 9 0 8 -3 -2 -10z m1250 -286 c0 -8 -5 -12 -10 -9 -6 4 -8 11 -5 16 9 14 15
11 15 -7z m-1089 -186 c18 -25 26 -44 19 -46 -6 -2 -12 -2 -14 -1 -44 70 -55
89 -46 89 5 0 24 -19 41 -42z"/>
<path d="M8372 3698 c5 -15 28 -23 28 -10 0 5 -7 13 -16 16 -10 4 -14 1 -12
-6z"/>
<path d="M8320 3675 c0 -8 7 -15 15 -15 9 0 12 6 9 15 -4 8 -10 15 -15 15 -5
0 -9 -7 -9 -15z"/>
<path d="M8520 3679 c0 -5 5 -7 10 -4 6 3 10 8 10 11 0 2 -4 4 -10 4 -5 0 -10
-5 -10 -11z"/>
<path d="M8603 3649 c-11 -28 -10 -30 10 -27 12 2 22 9 22 16 0 7 7 17 15 23
13 9 13 10 -1 6 -9 -3 -21 -1 -26 4 -5 5 -13 -3 -20 -22z"/>
<path d="M8447 3631 c3 -12 11 -17 23 -14 23 6 15 33 -10 33 -13 0 -17 -6 -13
-19z"/>
<path d="M8756 3614 c-6 -16 8 -33 27 -34 12 0 4 43 -9 47 -6 2 -14 -4 -18
-13z"/>
<path d="M8558 3582 c-10 -2 -18 -8 -18 -13 0 -13 27 -11 35 2 9 13 4 16 -17
11z"/>
<path d="M8677 3583 c-10 -9 -9 -23 2 -23 5 0 11 7 15 15 5 15 -5 20 -17 8z"/>
<path d="M8405 3570 c-3 -5 -12 -7 -20 -4 -9 4 -16 -3 -21 -21 -8 -32 -4 -36
24 -28 12 3 22 13 22 22 0 9 5 22 12 29 9 9 9 12 1 12 -7 0 -14 -4 -18 -10z"/>
<path d="M8825 3560 c-3 -5 1 -10 9 -10 9 0 16 5 16 10 0 6 -4 10 -9 10 -6 0
-13 -4 -16 -10z"/>
<path d="M8837 3533 c-4 -3 -7 -13 -7 -21 0 -12 3 -12 15 -2 8 7 15 16 15 21
0 11 -14 12 -23 2z"/>
<path d="M8750 3493 c0 -20 3 -22 20 -13 21 11 18 37 -5 37 -9 0 -15 -10 -15
-24z"/>
<path d="M8035 3481 c-8 -30 -2 -35 28 -27 18 4 25 12 23 30 -2 33 -43 31 -51
-3z"/>
<path d="M8556 3491 c-4 -7 -5 -15 -2 -18 9 -9 19 4 14 18 -4 11 -6 11 -12 0z"/>
<path d="M8596 3487 c6 -17 -55 -40 -72 -26 -14 11 -29 -5 -19 -21 8 -13 -21
-66 -41 -74 -15 -6 -15 -9 6 -28 22 -20 22 -22 5 -28 -12 -4 -15 -9 -8 -13 6
-4 18 -4 27 -1 9 3 16 1 16 -4 0 -6 8 -13 19 -17 10 -3 18 -13 17 -22 0 -9 5
-18 13 -21 10 -3 12 0 8 12 -8 21 11 21 35 -1 16 -14 18 -14 18 -1 0 17 26 32
33 20 2 -4 2 -2 1 5 -2 6 7 22 19 35 27 30 33 133 7 133 -27 0 -60 25 -60 45
0 11 -7 20 -15 20 -8 0 -12 -6 -9 -13z m38 -62 c16 -24 15 -25 -3 -25 -24 0
-81 -46 -81 -66 0 -20 -28 -17 -32 4 -7 31 4 61 29 87 33 32 66 32 87 0z m6
-88 c0 -15 -29 -57 -30 -42 0 6 3 20 6 33 7 24 24 31 24 9z"/>
<path d="M8635 3480 c3 -5 11 -10 16 -10 6 0 7 5 4 10 -3 6 -11 10 -16 10 -6
0 -7 -4 -4 -10z"/>
<path d="M7900 3470 c-11 -7 -12 -12 -3 -21 15 -15 47 -7 51 14 4 19 -23 23
-48 7z"/>
<path d="M8161 3449 c-6 -18 -9 -34 -8 -36 9 -9 52 24 55 42 2 11 1 17 -4 13
-4 -4 -13 -3 -19 2 -10 8 -16 2 -24 -21z"/>
<path d="M8665 3460 c-3 -5 -1 -10 4 -10 6 0 11 5 11 10 0 6 -2 10 -4 10 -3 0
-8 -4 -11 -10z"/>
<path d="M8337 3430 c6 -24 28 -26 37 -4 9 23 8 24 -18 24 -19 0 -23 -4 -19
-20z"/>
<path d="M8805 3440 c-8 -13 3 -30 20 -30 8 0 13 9 12 20 -1 21 -21 27 -32 10z"/>
<path d="M8470 3415 c0 -8 5 -15 10 -15 6 0 10 7 10 15 0 8 -4 15 -10 15 -5 0
-10 -7 -10 -15z"/>
<path d="M8022 3368 c-13 -15 -19 -28 -13 -28 6 0 11 -7 11 -16 0 -14 3 -14
16 -4 27 23 36 49 22 63 -11 11 -17 8 -36 -15z"/>
<path d="M7653 3383 c-13 -5 -19 -63 -7 -63 7 0 43 42 44 51 0 10 -23 17 -37
12z"/>
<path d="M7841 3354 c-31 -40 -28 -59 7 -37 29 18 52 42 52 55 0 18 -40 6 -59
-18z"/>
<path d="M8880 3370 c0 -5 5 -10 11 -10 5 0 7 5 4 10 -3 6 -8 10 -11 10 -2 0
-4 -4 -4 -10z"/>
<path d="M8242 3335 c-29 -37 -28 -47 6 -39 35 9 33 5 24 39 l-8 28 -22 -28z"/>
<path d="M7485 3310 c-3 -5 -15 -10 -26 -10 -23 0 -25 -13 -4 -30 18 -15 40
-1 48 30 5 21 -7 27 -18 10z"/>
<path d="M7940 3246 c0 -34 16 -41 34 -14 22 31 20 38 -9 38 -20 0 -25 -5 -25
-24z"/>
<path d="M8490 3260 c0 -5 7 -10 15 -10 8 0 15 5 15 10 0 6 -7 10 -15 10 -8 0
-15 -4 -15 -10z"/>
<path d="M8240 3250 c0 -5 5 -10 11 -10 5 0 7 5 4 10 -3 6 -8 10 -11 10 -2 0
-4 -4 -4 -10z"/>
<path d="M7772 3207 c-9 -10 -8 -18 2 -32 17 -24 43 -13 41 17 -2 27 -26 35
-43 15z"/>
<path d="M8380 3200 c0 -5 7 -10 16 -10 8 0 12 5 9 10 -3 6 -10 10 -16 10 -5
0 -9 -4 -9 -10z"/>
<path d="M7544 3173 c-28 -42 -27 -70 1 -75 17 -4 25 1 30 16 12 38 12 57 -1
52 -7 -3 -10 2 -7 15 7 27 -2 24 -23 -8z"/>
<path d="M7283 3177 c-13 -5 -23 -19 -23 -29 0 -30 53 -21 55 10 2 29 -4 32
-32 19z"/>
<path d="M8996 3168 c4 -13 8 -39 8 -58 1 -30 4 -35 26 -35 35 0 38 34 5 65
-14 13 -25 29 -25 37 0 7 -5 13 -11 13 -6 0 -8 -9 -3 -22z"/>
<path d="M8156 3166 c3 -9 11 -16 16 -16 13 0 5 23 -10 28 -7 2 -10 -2 -6 -12z"/>
<path d="M8252 3139 c3 -8 8 -13 11 -11 9 3 7 11 -5 18 -6 4 -8 0 -6 -7z"/>
<path d="M8010 3091 c0 -6 5 -13 10 -16 6 -3 10 1 10 9 0 9 -4 16 -10 16 -5 0
-10 -4 -10 -9z"/>
<path d="M8116 3091 c-3 -5 1 -11 9 -15 8 -3 15 -1 15 4 0 13 -18 22 -24 11z"/>
<path d="M7087 3075 c-21 -15 -22 -38 -3 -54 15 -13 29 -1 40 35 8 26 -13 37
-37 19z"/>
<path d="M7313 3047 c-8 -16 -12 -31 -9 -34 10 -11 44 9 54 33 16 33 15 33 -9
31 -12 -1 -27 -14 -36 -30z"/>
<path d="M7543 3038 c-24 -12 -28 -24 -14 -47 12 -18 27 -7 39 29 12 32 9 34
-25 18z"/>
<path d="M8290 3035 c0 -8 5 -15 10 -15 6 0 10 7 10 15 0 8 -4 15 -10 15 -5 0
-10 -7 -10 -15z"/>
<path d="M8410 3035 c0 -8 5 -15 10 -15 6 0 10 7 10 15 0 8 -4 15 -10 15 -5 0
-10 -7 -10 -15z"/>
<path d="M7930 3030 c0 -5 5 -10 10 -10 6 0 10 5 10 10 0 6 -4 10 -10 10 -5 0
-10 -4 -10 -10z"/>
<path d="M8515 3010 c-3 -5 1 -10 10 -10 9 0 13 5 10 10 -3 6 -8 10 -10 10 -2
0 -7 -4 -10 -10z"/>
<path d="M8090 2990 c0 -5 5 -10 10 -10 6 0 10 5 10 10 0 6 -4 10 -10 10 -5 0
-10 -4 -10 -10z"/>
<path d="M7405 2954 c-25 -25 -2 -43 25 -19 11 10 20 22 20 27 0 14 -28 9 -45
-8z"/>
<path d="M8192 2959 c3 -8 8 -13 11 -11 9 3 7 11 -5 18 -6 4 -8 0 -6 -7z"/>
<path d="M6894 2946 c-18 -13 -25 -16 -41 -16 -13 -1 30 -30 43 -30 10 0 27
50 20 57 -1 2 -11 -4 -22 -11z"/>
<path d="M7665 2940 c-4 -6 -3 -16 3 -22 6 -6 12 -6 17 2 4 6 3 16 -3 22 -6 6
-12 6 -17 -2z"/>
<path d="M8425 2940 c3 -5 8 -10 11 -10 2 0 4 5 4 10 0 6 -5 10 -11 10 -5 0
-7 -4 -4 -10z"/>
<path d="M7073 2912 c-28 -24 -30 -29 -19 -45 26 -35 95 18 79 61 -8 19 -25
14 -60 -16z"/>
<path d="M8316 2925 c4 -8 8 -15 10 -15 2 0 4 7 4 15 0 8 -4 15 -10 15 -5 0
-7 -7 -4 -15z"/>
<path d="M7240 2905 c-13 -16 -7 -45 9 -45 11 0 31 32 31 49 0 16 -26 13 -40
-4z"/>
<path d="M6766 2815 c-16 -24 -16 -26 0 -32 17 -6 54 27 54 48 0 19 -39 8 -54
-16z"/>
<path d="M7059 2779 c-25 -25 -13 -45 20 -34 14 4 21 15 21 31 0 30 -13 31
-41 3z"/>
<path d="M7510 2771 c0 -6 5 -13 10 -16 6 -3 10 1 10 9 0 9 -4 16 -10 16 -5 0
-10 -4 -10 -9z"/>
<path d="M7450 2761 c0 -5 7 -11 15 -15 9 -3 15 0 15 9 0 8 -7 15 -15 15 -8 0
-15 -4 -15 -9z"/>
<path d="M8007 2724 c-18 -53 -23 -154 -7 -154 6 0 10 29 10 66 0 36 5 74 11
85 5 11 9 27 7 36 -2 9 -11 -6 -21 -33z"/>
<path d="M7765 2749 c-4 -6 -5 -13 -2 -16 7 -7 27 6 27 18 0 12 -17 12 -25 -2z"/>
<path d="M7250 2736 c0 -9 5 -16 10 -16 6 0 10 4 10 9 0 6 -4 13 -10 16 -5 3
-10 -1 -10 -9z"/>
<path d="M6851 2699 c-16 -37 -12 -42 26 -28 24 8 30 16 29 35 -2 36 -38 32
-55 -7z"/>
<path d="M7646 2706 c3 -9 11 -16 16 -16 13 0 5 23 -10 28 -7 2 -10 -2 -6 -12z"/>
<path d="M7470 2680 c0 -5 5 -10 10 -10 6 0 10 5 10 10 0 6 -4 10 -10 10 -5 0
-10 -4 -10 -10z"/>
<path d="M8031 2674 c0 -11 3 -14 6 -6 3 7 2 16 -1 19 -3 4 -6 -2 -5 -13z"/>
<path d="M7500 2613 c-36 -24 -67 -49 -69 -55 -4 -13 6 -7 79 45 68 50 64 46
59 51 -2 2 -33 -17 -69 -41z"/>
<path d="M8044 2635 c-9 -14 -14 -28 -11 -32 4 -3 10 3 14 13 4 10 14 24 22
31 11 8 12 12 4 13 -7 0 -20 -11 -29 -25z"/>
<path d="M7270 2635 c0 -8 5 -15 10 -15 6 0 10 7 10 15 0 8 -4 15 -10 15 -5 0
-10 -7 -10 -15z"/>
<path d="M6620 2631 c0 -5 -9 -11 -21 -14 -12 -3 -18 -10 -14 -16 11 -18 29
-12 42 14 6 14 7 25 2 25 -5 0 -9 -4 -9 -9z"/>
<path d="M7634 2616 c-10 -8 -15 -18 -11 -22 4 -4 17 2 30 14 24 25 12 30 -19
8z"/>
<path d="M7160 2580 c0 -5 5 -10 10 -10 6 0 10 5 10 10 0 6 -4 10 -10 10 -5 0
-10 -4 -10 -10z"/>
<path d="M6540 2570 c0 -5 5 -10 10 -10 6 0 10 5 10 10 0 6 -4 10 -10 10 -5 0
-10 -4 -10 -10z"/>
<path d="M7550 2560 c0 -5 5 -10 10 -10 6 0 10 5 10 10 0 6 -4 10 -10 10 -5 0
-10 -4 -10 -10z"/>
<path d="M6420 2540 c0 -5 5 -10 10 -10 6 0 10 5 10 10 0 6 -4 10 -10 10 -5 0
-10 -4 -10 -10z"/>
<path d="M6490 2541 c0 -6 -5 -11 -10 -11 -18 0 -53 -38 -45 -49 3 -6 16 -10
28 -10 16 1 17 3 5 6 -15 4 -15 6 2 23 12 12 26 17 36 13 12 -4 15 -1 13 12
-4 20 -29 33 -29 16z"/>
<path d="M6350 2500 c-13 -8 -12 -10 3 -10 9 0 17 5 17 10 0 12 -1 12 -20 0z"/>
<path d="M7090 2491 c0 -6 5 -13 10 -16 6 -3 10 1 10 9 0 9 -4 16 -10 16 -5 0
-10 -4 -10 -9z"/>
<path d="M7260 2490 c0 -5 5 -10 10 -10 6 0 10 5 10 10 0 6 -4 10 -10 10 -5 0
-10 -4 -10 -10z"/>
<path d="M6405 2470 c-9 -15 29 -55 44 -46 16 10 2 29 -16 22 -8 -3 -12 -2 -9
2 2 4 1 14 -3 21 -7 10 -10 10 -16 1z"/>
<path d="M7340 2464 c-19 -7 -45 -13 -57 -13 -12 -1 -25 -5 -28 -11 -12 -19
50 -10 100 14 53 26 43 32 -15 10z"/>
<path d="M6367 2444 c-3 -4 -2 -15 4 -26 5 -10 7 -23 4 -28 -10 -16 5 -12 23
7 12 12 13 18 4 21 -6 2 -12 10 -12 18 0 15 -12 19 -23 8z"/>
<path d="M6280 2430 c-8 -5 -17 -7 -21 -4 -4 2 -10 0 -14 -6 -4 -6 4 -10 19
-10 14 0 28 5 31 11 10 15 2 20 -15 9z"/>
<path d="M6337 2376 c-4 -15 -6 -31 -2 -34 10 -10 16 6 13 35 l-3 28 -8 -29z"/>
<path d="M6170 2348 c-14 -6 -20 -12 -14 -14 15 -6 60 11 48 18 -5 3 -20 1
-34 -4z"/>
<path d="M6400 2334 c0 -8 5 -12 10 -9 6 3 10 10 10 16 0 5 -4 9 -10 9 -5 0
-10 -7 -10 -16z"/>
<path d="M6262 2328 c-7 -7 -12 -21 -12 -32 -1 -20 -1 -20 -11 -3 -10 18 -12
18 -34 -3 -19 -18 -21 -25 -11 -46 14 -30 22 -30 37 -1 16 29 14 28 33 21 11
-4 16 -18 16 -43 0 -27 3 -32 10 -21 15 23 12 67 -5 74 -17 6 -20 36 -4 36 6
0 9 -7 5 -15 -8 -22 17 -18 32 5 11 18 9 21 -13 30 -32 12 -29 12 -43 -2z"/>
<path d="M6347 2306 c-4 -10 -7 -25 -6 -34 0 -11 4 -9 10 7 5 13 8 29 6 35 -2
5 -6 2 -10 -8z"/>
<path d="M6088 2272 c-30 -4 -39 -22 -10 -22 18 0 50 17 42 22 -3 2 -17 2 -32
0z"/>
<path d="M6146 2237 c-16 -12 -17 -16 -5 -35 19 -30 34 -22 35 16 1 35 -4 38
-30 19z"/>
<path d="M5995 2203 c-33 -5 -59 -23 -33 -23 31 0 78 13 78 21 0 5 -3 8 -7 8
-5 -1 -21 -4 -38 -6z"/>
<path d="M6093 2195 c-3 -9 -3 -18 0 -21 9 -9 27 6 27 22 0 19 -19 18 -27 -1z"/>
<path d="M6038 2140 c-13 -18 -31 -30 -45 -30 -13 0 -23 -6 -23 -14 0 -23 19
-29 43 -13 12 7 34 17 48 20 26 7 49 37 29 37 -6 0 -10 7 -10 15 0 24 -18 18
-42 -15z m37 -10 c-3 -5 -11 -10 -16 -10 -6 0 -7 5 -4 10 3 6 11 10 16 10 6 0
7 -4 4 -10z"/>
<path d="M6115 2159 c-11 -17 1 -21 15 -4 8 9 8 15 2 15 -6 0 -14 -5 -17 -11z"/>
<path d="M6186 2154 c-9 -24 -7 -54 4 -54 6 0 10 16 10 35 0 38 -4 44 -14 19z"/>
<path d="M5878 2103 c-16 -2 -28 -9 -28 -15 0 -12 49 -2 65 13 6 6 6 8 0 8 -6
-1 -22 -4 -37 -6z"/>
<path d="M6110 2086 c-12 -34 -13 -66 -1 -66 11 0 26 78 17 87 -3 3 -10 -6
-16 -21z"/>
<path d="M5927 2049 c-10 -11 -15 -24 -11 -27 4 -4 9 -1 11 6 3 6 11 12 19 12
8 0 14 7 14 15 0 21 -12 19 -33 -6z"/>
<path d="M6047 2030 c-9 -24 -15 -46 -12 -48 7 -7 37 68 33 80 -2 6 -12 -9
-21 -32z"/>
<path d="M5880 2000 c-6 -11 -9 -26 -7 -33 3 -7 10 1 16 17 14 35 7 47 -9 16z"/>
<path d="M5743 2003 c-7 -2 -13 -8 -13 -12 0 -10 69 -1 76 10 5 9 -42 11 -63
2z"/>
<path d="M5956 1964 c-9 -36 1 -43 14 -10 12 33 12 36 1 36 -5 0 -12 -12 -15
-26z"/>
<path d="M5835 1968 c-4 -10 -16 -18 -26 -18 -10 0 -19 -7 -19 -15 0 -19 20
-19 44 -2 11 8 16 21 14 33 -5 17 -6 18 -13 2z"/>
<path d="M5655 1910 c-4 -6 5 -10 19 -10 14 0 26 5 26 10 0 6 -9 10 -19 10
-11 0 -23 -4 -26 -10z"/>
<path d="M5753 1905 c-8 -22 6 -33 17 -15 13 20 12 30 0 30 -6 0 -13 -7 -17
-15z"/>
<path d="M5860 1885 c-6 -17 -7 -32 -2 -37 6 -6 12 4 16 23 8 42 0 50 -14 14z"/>
<path d="M5720 1855 c0 -8 5 -15 10 -15 6 0 10 7 10 15 0 8 -4 15 -10 15 -5 0
-10 -7 -10 -15z"/>
<path d="M5782 1835 c-5 -19 -6 -35 -2 -35 11 0 30 59 21 64 -4 3 -13 -10 -19
-29z"/>
<path d="M5605 1850 c-13 -6 -15 -9 -5 -9 8 0 22 4 30 9 18 12 2 12 -25 0z"/>
<path d="M5670 1831 c0 -13 26 -32 33 -24 8 7 -11 33 -24 33 -5 0 -9 -4 -9 -9z"/>
<path d="M5737 1814 c-4 -4 -7 -14 -7 -23 0 -11 3 -12 11 -4 6 6 10 16 7 23
-2 6 -7 8 -11 4z"/>
<path d="M5635 1799 c-4 -6 -5 -12 -3 -14 7 -7 48 7 48 16 0 13 -37 11 -45 -2z"/>
<path d="M5612 1758 c3 -7 13 -15 22 -16 12 -3 17 1 14 10 -3 7 -13 15 -22 16
-12 3 -17 -1 -14 -10z"/>
<path d="M5590 1741 c0 -5 5 -13 10 -16 6 -3 10 -2 10 4 0 5 -4 13 -10 16 -5
3 -10 2 -10 -4z"/>
<path d="M5546 1705 c-3 -8 -11 -14 -18 -13 -6 2 -13 -5 -16 -14 -3 -15 0 -15
22 -5 14 7 26 20 26 30 0 21 -6 22 -14 2z"/>
<path d="M5470 1640 c0 -5 5 -10 10 -10 6 0 10 5 10 10 0 6 -4 10 -10 10 -5 0
-10 -4 -10 -10z"/>
<path d="M5431 1593 c-7 -8 -11 -16 -8 -19 2 -2 10 2 17 11 17 20 9 27 -9 8z"/>
<path d="M7428 3973 c12 -2 30 -2 40 0 9 3 -1 5 -23 4 -22 0 -30 -2 -17 -4z"/>
<path d="M7523 3973 c15 -2 39 -2 55 0 15 2 2 4 -28 4 -30 0 -43 -2 -27 -4z"/>
<path d="M3656 3884 c-9 -20 -15 -38 -13 -41 6 -6 47 52 47 66 0 23 -17 10
-34 -25z"/>
<path d="M3680 3858 c-24 -44 -25 -46 -13 -50 6 -3 52 70 53 85 1 20 -19 3
-40 -35z"/>
<path d="M3337 3849 c-28 -32 -34 -49 -17 -49 6 0 10 7 10 15 0 8 3 15 8 15 9
0 35 40 30 46 -2 2 -16 -10 -31 -27z"/>
<path d="M3716 3834 c-33 -59 -33 -78 0 -39 l26 30 -16 -32 c-9 -18 -16 -36
-16 -41 0 -16 42 -6 52 12 12 22 1 36 -12 16 -13 -20 -13 -4 0 20 7 13 7 21 0
25 -7 4 -7 12 0 25 12 23 13 30 1 30 -5 0 -21 -21 -35 -46z"/>
<path d="M9140 3863 c-29 -11 -50 -36 -50 -62 0 -31 25 -71 44 -71 18 0 48 71
44 105 -3 30 -13 37 -38 28z m18 -46 c4 -31 -25 -84 -38 -71 -12 13 -15 45 -7
77 10 37 41 33 45 -6z"/>
<path d="M3797 3803 c-22 -43 -30 -73 -19 -73 12 0 47 88 39 96 -3 3 -12 -7
-20 -23z"/>
<path d="M3581 3788 c-15 -42 -7 -47 13 -7 19 37 19 39 7 39 -5 0 -14 -14 -20
-32z"/>
<path d="M3546 3801 c-4 -7 -5 -15 -2 -18 9 -9 19 4 14 18 -4 11 -6 11 -12 0z"/>
<path d="M5690 3774 l-35 -14 34 5 c18 3 99 5 179 5 80 0 143 3 139 6 -3 4
-68 8 -144 10 -105 2 -146 0 -173 -12z"/>
<path d="M6993 3773 c15 -2 37 -2 50 0 12 2 0 4 -28 4 -27 0 -38 -2 -22 -4z"/>
<path d="M7072 3775 c10 -10 68 -14 68 -4 0 5 -16 9 -37 9 -20 0 -34 -2 -31
-5z"/>
<path d="M3618 3745 c-4 -20 -3 -23 8 -14 16 13 19 39 5 39 -5 0 -11 -11 -13
-25z"/>
<path d="M3825 3755 c-5 -11 -15 -26 -22 -34 -15 -14 -13 -33 4 -38 13 -5 36
50 30 74 -4 17 -4 17 -12 -2z"/>
<path d="M6708 3763 c28 -2 76 -2 105 0 28 2 5 3 -53 3 -58 0 -81 -1 -52 -3z"/>
<path d="M6878 3763 c7 -3 16 -2 19 1 4 3 -2 6 -13 5 -11 0 -14 -3 -6 -6z"/>
<path d="M3315 3751 c-4 -7 -4 -30 0 -52 8 -47 26 -40 27 10 1 35 -15 60 -27
42z"/>
<path d="M3667 3733 c-4 -3 -7 -11 -7 -17 0 -6 5 -5 12 2 6 6 9 14 7 17 -3 3
-9 2 -12 -2z"/>
<path d="M3140 3715 c0 -8 5 -15 10 -15 6 0 10 7 10 15 0 8 -4 15 -10 15 -5 0
-10 -7 -10 -15z"/>
<path d="M3196 3723 c-9 -9 -7 -33 3 -33 12 0 22 28 12 34 -5 3 -11 3 -15 -1z"/>
<path d="M3275 3719 c-10 -15 3 -25 16 -12 7 7 7 13 1 17 -6 3 -14 1 -17 -5z"/>
<path d="M9385 3723 c-16 -3 -34 -9 -40 -15 -7 -7 3 -8 30 -4 22 3 43 5 48 6
4 0 7 5 7 10 0 6 -3 9 -7 9 -5 -1 -21 -4 -38 -6z"/>
<path d="M3215 3649 c-6 -19 0 -38 9 -28 10 12 16 49 7 49 -5 0 -13 -9 -16
-21z"/>
<path d="M3380 3654 c0 -8 5 -12 10 -9 6 3 10 10 10 16 0 5 -4 9 -10 9 -5 0
-10 -7 -10 -16z"/>
<path d="M3060 3635 c0 -8 5 -15 10 -15 6 0 10 7 10 15 0 8 -4 15 -10 15 -5 0
-10 -7 -10 -15z"/>
<path d="M3343 3604 c-29 -13 -53 -28 -53 -33 0 -5 -10 -13 -22 -17 -20 -6
-20 -8 -5 -19 19 -13 11 -24 -28 -40 -18 -7 -18 -9 -2 -12 9 -3 17 -9 17 -14
0 -5 -5 -8 -11 -6 -6 1 -14 -4 -16 -10 -6 -16 19 -17 34 -2 16 16 34 2 26 -19
-6 -15 -5 -15 10 -3 10 7 24 10 34 6 16 -6 15 -8 -7 -18 -22 -9 -23 -11 -6
-14 10 -3 23 0 29 6 18 18 29 12 21 -11 -6 -19 -4 -21 7 -12 8 6 36 15 63 19
37 5 58 16 92 47 25 23 44 50 44 62 0 17 -63 86 -79 86 -3 0 -26 6 -51 14 -42
12 -49 11 -97 -10z m145 -23 c21 -2 13 -20 -12 -27 -13 -3 -28 -16 -35 -30
-12 -27 -55 -35 -44 -8 3 9 15 20 27 25 20 8 19 9 -4 6 -15 -1 -29 -11 -35
-24 -5 -13 -18 -23 -27 -23 -10 0 -18 -5 -18 -11 0 -8 20 -10 60 -7 50 4 63 1
77 -14 45 -50 -74 -48 -169 3 -29 15 -26 22 36 90 17 20 30 24 76 23 30 -1 61
-2 68 -3z m52 -46 c17 -21 5 -31 -15 -12 -8 9 -15 18 -15 21 0 11 18 6 30 -9z"/>
<path d="M3102 3585 c-15 -32 -15 -45 -2 -45 15 0 33 51 22 62 -5 5 -14 -3
-20 -17z"/>
<path d="M3780 3596 c0 -9 7 -16 16 -16 9 0 14 5 12 12 -6 18 -28 21 -28 4z"/>
<path d="M3875 3590 c-3 -5 -1 -10 4 -10 6 0 11 5 11 10 0 6 -2 10 -4 10 -3 0
-8 -4 -11 -10z"/>
<path d="M3010 3565 c-5 -13 -12 -48 -16 -77 -8 -66 8 -54 24 17 6 28 14 58
17 68 4 10 3 17 -4 17 -6 0 -16 -11 -21 -25z"/>
<path d="M3730 3576 c0 -9 5 -16 10 -16 6 0 10 4 10 9 0 6 -4 13 -10 16 -5 3
-10 -1 -10 -9z"/>
<path d="M3837 3583 c-4 -3 -7 -11 -7 -17 0 -6 5 -5 12 2 6 6 9 14 7 17 -3 3
-9 2 -12 -2z"/>
<path d="M2950 3535 c0 -14 5 -25 10 -25 6 0 10 11 10 25 0 14 -4 25 -10 25
-5 0 -10 -11 -10 -25z"/>
<path d="M2776 3534 c-11 -28 -6 -39 9 -20 8 11 15 23 15 28 0 14 -18 9 -24
-8z"/>
<path d="M2900 3538 c0 -7 -3 -24 -6 -38 -5 -24 -5 -24 10 -6 18 22 21 56 6
56 -5 0 -10 -6 -10 -12z"/>
<path d="M3068 3494 c-3 -24 1 -38 10 -43 9 -5 12 -15 9 -24 -3 -9 -2 -19 2
-22 14 -8 23 45 11 61 -7 7 -9 17 -6 23 7 11 -3 41 -14 41 -4 0 -10 -16 -12
-36z"/>
<path d="M3157 3503 c-3 -16 -3 -30 -1 -33 7 -7 24 23 24 43 0 27 -17 20 -23
-10z"/>
<path d="M3667 3523 c-14 -13 -6 -20 18 -15 14 2 25 8 25 13 0 10 -34 12 -43
2z"/>
<path d="M3810 3520 c0 -5 5 -10 10 -10 6 0 10 5 10 10 0 6 -4 10 -10 10 -5 0
-10 -4 -10 -10z"/>
<path d="M9071 3474 c-12 -15 -21 -33 -21 -41 0 -28 21 -53 45 -53 44 0 65 89
26 110 -27 14 -27 14 -50 -16z m47 -49 c-2 -22 -8 -30 -23 -30 -24 0 -32 43
-14 76 11 22 12 22 26 3 8 -10 13 -32 11 -49z"/>
<path d="M2510 3471 c0 -20 17 -37 27 -28 7 8 -7 47 -18 47 -5 0 -9 -9 -9 -19z"/>
<path d="M2590 3469 c-13 -24 -4 -41 10 -19 10 16 13 40 5 40 -2 0 -9 -9 -15
-21z"/>
<path d="M2663 3470 c-12 -28 -6 -47 9 -32 5 5 8 20 6 33 l-5 24 -10 -25z"/>
<path d="M3737 3472 c-34 -21 -42 -45 -27 -83 18 -43 57 -50 87 -15 27 32 29
62 7 94 -18 26 -30 27 -67 4z m40 -23 c2 -8 -8 -22 -22 -32 -25 -18 -25 -18
-25 6 0 40 41 63 47 26z"/>
<path d="M2795 3449 c-6 -19 0 -38 9 -28 10 12 16 49 7 49 -5 0 -13 -9 -16
-21z"/>
<path d="M2758 3454 c-5 -4 -8 -26 -8 -48 1 -33 3 -38 11 -23 11 19 8 83 -3
71z"/>
<path d="M3027 3443 c-11 -10 -8 -53 3 -53 6 0 10 14 10 30 0 31 -2 35 -13 23z"/>
<path d="M2471 3422 c-1 -23 25 -59 35 -50 2 3 0 16 -5 29 -5 13 -10 20 -11
14 -1 -5 -5 -1 -10 10 -8 19 -9 19 -9 -3z"/>
<path d="M2540 3398 c0 -36 4 -35 14 5 4 16 2 27 -4 27 -5 0 -10 -14 -10 -32z"/>
<path d="M2600 3405 c0 -15 4 -24 10 -20 6 3 10 12 10 20 0 8 -4 17 -10 20 -6
4 -10 -5 -10 -20z"/>
<path d="M3156 3411 c-4 -7 -5 -15 -2 -18 9 -9 19 4 14 18 -4 11 -6 11 -12 0z"/>
<path d="M2680 3395 c0 -8 5 -15 10 -15 6 0 10 7 10 15 0 8 -4 15 -10 15 -5 0
-10 -7 -10 -15z"/>
<path d="M2875 3381 c-7 -22 4 -53 16 -45 12 7 12 64 0 64 -5 0 -12 -8 -16
-19z"/>
<path d="M3570 3370 c-6 -11 -7 -20 -3 -20 5 0 14 9 21 20 7 11 8 20 2 20 -5
0 -14 -9 -20 -20z"/>
<path d="M9380 3371 l-25 -7 25 -7 c35 -9 37 -9 44 8 6 16 -4 17 -44 6z"/>
<path d="M3217 3364 c-4 -4 -7 -14 -7 -23 0 -11 3 -12 11 -4 6 6 10 16 7 23
-2 6 -7 8 -11 4z"/>
<path d="M3070 3345 c0 -8 5 -15 10 -15 6 0 10 7 10 15 0 8 -4 15 -10 15 -5 0
-10 -7 -10 -15z"/>
<path d="M2807 3328 c-4 -12 -4 -24 -1 -27 6 -7 24 20 24 37 0 21 -17 13 -23
-10z"/>
<path d="M3029 3333 c0 -10 -2 -28 -5 -40 -4 -22 9 -32 19 -15 12 18 11 66 0
69 -7 3 -13 -4 -14 -14z"/>
<path d="M6597 3343 c-3 -5 23 -8 58 -8 35 0 61 3 58 8 -2 4 -28 7 -58 7 -30
0 -56 -3 -58 -7z"/>
<path d="M6730 3339 c0 -10 277 -11 302 -1 9 4 -55 8 -143 8 -87 1 -159 -3
-159 -7z"/>
<path d="M2960 3330 c0 -5 5 -10 11 -10 5 0 7 5 4 10 -3 6 -8 10 -11 10 -2 0
-4 -4 -4 -10z"/>
<path d="M3479 3333 c-1 -5 -3 -37 -5 -72 -2 -35 -9 -69 -15 -77 -6 -7 -8 -17
-5 -22 3 -5 -1 -18 -9 -28 -20 -26 -19 -39 2 -23 15 12 16 12 10 -3 -10 -27
-1 -21 21 13 l19 31 1 -73 c0 -63 -1 -69 -9 -41 -11 38 -33 33 -25 -6 3 -15
-2 -61 -13 -102 -17 -70 -18 -73 -22 -38 -3 21 -2 39 2 40 3 2 9 29 13 61 4
39 3 56 -4 52 -5 -3 -10 -16 -10 -28 0 -27 -16 -54 -26 -44 -5 4 0 29 9 54 25
67 14 63 -17 -6 -18 -41 -31 -58 -40 -55 -25 10 -29 -34 -12 -114 6 -26 11
-31 21 -22 12 10 13 6 5 -21 -13 -45 -4 -50 15 -8 l16 34 -5 -35 c-3 -19 -8
-45 -12 -58 -5 -18 -3 -21 10 -16 9 4 23 18 32 33 l15 26 -4 -28 c-4 -23 -2
-25 11 -15 13 11 14 10 3 -10 -7 -13 -10 -26 -7 -29 12 -12 33 60 27 91 -6 27
-6 58 -2 119 0 9 6 17 12 17 7 0 10 -35 7 -109 -3 -123 3 -131 60 -74 37 37
52 70 53 121 0 20 7 53 14 72 l13 35 1 -55 c1 -30 -6 -68 -14 -83 -10 -21 -11
-27 -2 -25 6 3 19 25 28 51 20 61 34 73 24 22 l-7 -40 27 29 c26 28 45 66 45
89 0 7 -4 6 -10 -3 -10 -16 -14 18 -10 88 2 34 -10 41 -33 17 -10 -10 -13 -27
-10 -58 3 -25 0 -53 -6 -63 -9 -16 -10 -11 -11 26 0 34 -3 41 -11 30 -8 -12
-9 -8 -7 15 2 20 -1 29 -10 27 -9 -2 -12 7 -10 25 2 16 8 27 16 26 8 -2 12 9
12 31 0 19 3 41 6 50 3 9 1 16 -5 16 -6 0 -11 -10 -11 -22 -1 -21 -2 -21 -11
-6 -5 10 -9 24 -8 30 4 31 -2 68 -10 68 -5 0 -12 -18 -16 -39 -4 -22 -18 -52
-32 -68 -19 -21 -24 -23 -18 -8 4 11 15 48 25 83 17 60 12 80 -10 45 -9 -15
-10 -11 -6 19 2 21 1 40 -4 43 -7 4 -25 -89 -23 -127 0 -10 -2 -16 -6 -14 -3
2 -15 -13 -25 -35 -26 -53 -28 -45 -6 21 25 74 30 160 10 160 -5 0 -10 -3 -11
-7z m103 -225 c6 -37 -6 -96 -22 -112 -8 -8 -10 -2 -7 24 3 19 8 43 12 53 5
12 2 17 -9 17 -10 0 -16 -9 -16 -25 0 -14 -4 -25 -10 -25 -5 0 -10 -9 -10 -19
0 -11 -4 -22 -8 -25 -5 -3 -5 20 -1 50 11 84 62 128 71 62z m-45 -100 c-3 -8
-6 -5 -6 6 -1 11 2 17 5 13 3 -3 4 -12 1 -19z m-20 -80 c-2 -13 -4 -5 -4 17
-1 22 1 32 4 23 2 -10 2 -28 0 -40z m50 -10 c-2 -13 -4 -5 -4 17 -1 22 1 32 4
23 2 -10 2 -28 0 -40z m-200 0 c-3 -7 -5 -2 -5 12 0 14 2 19 5 13 2 -7 2 -19
0 -25z m215 -74 c-6 -54 -21 -62 -22 -11 0 35 4 47 13 44 7 -2 11 -16 9 -33z
m-47 -60 c-5 -37 -35 -85 -35 -56 0 6 5 12 11 14 6 2 12 31 14 63 1 33 3 62 5
65 7 13 11 -48 5 -86z"/>
<path d="M2291 3296 c-1 -29 2 -37 10 -29 8 8 8 19 1 40 -10 28 -10 28 -11
-11z"/>
<path d="M2398 3305 c-4 -16 -2 -34 3 -39 14 -15 18 -3 10 34 l-7 35 -6 -30z"/>
<path d="M2501 3314 c0 -11 3 -14 6 -6 3 7 2 16 -1 19 -3 4 -6 -2 -5 -13z"/>
<path d="M6069 3326 c-5 -5 -390 -20 -459 -17 -36 1 -62 -3 -75 -13 -19 -14
-18 -15 15 -11 71 9 319 19 452 20 75 0 131 3 125 6 -20 11 -53 19 -58 15z"/>
<path d="M2446 3304 c-9 -25 -7 -64 4 -64 6 0 10 11 10 24 0 13 3 31 6 40 3 9
2 16 -4 16 -5 0 -13 -7 -16 -16z"/>
<path d="M2530 3290 c0 -16 5 -30 10 -30 6 0 10 14 10 30 0 17 -4 30 -10 30
-5 0 -10 -13 -10 -30z"/>
<path d="M2590 3296 c0 -14 5 -28 10 -31 6 -4 10 7 10 24 0 17 -4 31 -10 31
-5 0 -10 -11 -10 -24z"/>
<path d="M3206 3285 c-10 -15 -15 -32 -13 -38 2 -7 12 3 21 21 21 41 15 53 -8
17z"/>
<path d="M3266 3291 c-8 -13 4 -42 15 -35 12 7 12 44 0 44 -6 0 -12 -4 -15 -9z"/>
<path d="M3387 3287 c-11 -29 -9 -43 4 -30 6 6 9 19 7 29 -3 18 -4 18 -11 1z"/>
<path d="M2227 3284 c-8 -8 1 -24 14 -24 5 0 9 7 9 15 0 15 -12 20 -23 9z"/>
<path d="M3097 3261 c-19 -32 -21 -41 -9 -41 8 0 42 52 42 64 0 15 -17 3 -33
-23z"/>
<path d="M2018 3273 c-17 -4 -22 -15 -19 -40 1 -7 -7 -13 -19 -13 -26 0 -26
-16 0 -23 25 -6 60 2 60 15 0 5 9 6 21 3 18 -6 20 -4 14 14 -6 19 -3 20 24 15
18 -4 31 -2 31 4 0 5 -12 12 -27 15 -16 3 -37 7 -48 10 -11 3 -28 3 -37 0z"/>
<path d="M2926 3272 c-7 -12 5 -52 15 -52 5 0 9 14 9 30 0 28 -13 40 -24 22z"/>
<path d="M3439 3238 c-7 -23 -20 -52 -29 -63 -26 -31 -83 -160 -64 -144 15 12
16 11 9 -11 -6 -20 -5 -22 5 -13 7 6 13 25 15 42 1 17 5 34 9 38 3 3 6 14 6
24 0 10 8 24 18 31 19 13 59 124 49 134 -3 3 -11 -14 -18 -38z"/>
<path d="M2186 3262 c-3 -6 -1 -14 5 -17 15 -10 25 3 12 16 -7 7 -13 7 -17 1z"/>
<path d="M2322 3230 c0 -19 2 -27 5 -17 2 9 2 25 0 35 -3 9 -5 1 -5 -18z"/>
<path d="M3346 3245 c-3 -8 -1 -15 4 -15 6 0 10 7 10 15 0 8 -2 15 -4 15 -2 0
-6 -7 -10 -15z"/>
<path d="M2717 3233 c-11 -10 -8 -63 3 -63 6 0 10 16 10 35 0 36 -2 40 -13 28z"/>
<path d="M3386 3224 c-5 -14 -4 -15 9 -4 17 14 19 20 6 20 -5 0 -12 -7 -15
-16z"/>
<path d="M2150 3216 c0 -9 5 -16 10 -16 6 0 10 4 10 9 0 6 -4 13 -10 16 -5 3
-10 -1 -10 -9z"/>
<path d="M2387 3223 c-10 -9 -9 -71 1 -77 5 -3 8 15 8 39 -1 25 -1 45 -2 45 0
0 -4 -3 -7 -7z"/>
<path d="M2540 3201 c0 -16 5 -33 10 -36 6 -4 10 6 10 24 0 16 -4 33 -10 36
-6 4 -10 -6 -10 -24z"/>
<path d="M2100 3185 c0 -8 5 -15 10 -15 6 0 10 7 10 15 0 8 -4 15 -10 15 -5 0
-10 -7 -10 -15z"/>
<path d="M2778 3194 c-5 -4 -8 -21 -8 -38 0 -21 3 -27 11 -19 6 6 9 23 7 38
-2 15 -6 23 -10 19z"/>
<path d="M2855 3188 c-9 -22 4 -43 17 -30 7 7 7 16 0 29 -10 17 -11 17 -17 1z"/>
<path d="M1932 3178 c-19 -19 -14 -28 12 -28 29 0 44 19 25 31 -18 12 -23 11
-37 -3z"/>
<path d="M2200 3176 c0 -8 5 -18 10 -21 6 -3 10 3 10 14 0 12 -4 21 -10 21 -5
0 -10 -6 -10 -14z"/>
<path d="M2322 3160 c-1 -42 12 -78 21 -63 4 6 0 30 -7 54 l-14 44 0 -35z"/>
<path d="M3095 3170 c-8 -26 4 -48 16 -29 12 19 11 49 0 49 -5 0 -12 -9 -16
-20z"/>
<path d="M3215 3177 c-4 -10 -5 -21 -1 -24 10 -10 18 4 13 24 -4 17 -4 17 -12
0z"/>
<path d="M3335 3177 c-4 -10 -5 -21 -1 -24 10 -10 18 4 13 24 -4 17 -4 17 -12
0z"/>
<path d="M2260 3162 c0 -10 7 -27 15 -38 16 -21 20 -8 9 34 -8 26 -24 29 -24
4z"/>
<path d="M3730 3155 c0 -14 5 -25 10 -25 6 0 10 11 10 25 0 14 -4 25 -10 25
-5 0 -10 -11 -10 -25z"/>
<path d="M2450 3151 c0 -11 5 -23 10 -26 6 -3 10 3 10 14 0 11 -4 23 -10 26
-5 3 -10 -3 -10 -14z"/>
<path d="M3660 3135 c0 -19 5 -35 10 -35 6 0 10 16 10 35 0 19 -4 35 -10 35
-5 0 -10 -16 -10 -35z"/>
<path d="M2040 3146 c0 -8 5 -18 10 -21 6 -3 10 1 10 9 0 8 -4 18 -10 21 -5 3
-10 -1 -10 -9z"/>
<path d="M2145 3150 c3 -5 8 -10 11 -10 2 0 4 5 4 10 0 6 -5 10 -11 10 -5 0
-7 -4 -4 -10z"/>
<path d="M3700 3138 c0 -19 2 -20 10 -8 13 19 13 30 0 30 -5 0 -10 -10 -10
-22z"/>
<path d="M1880 3142 c0 -12 19 -26 26 -19 2 2 -2 10 -11 17 -9 8 -15 8 -15 2z"/>
<path d="M1990 3126 c0 -15 18 -31 26 -23 7 7 -7 37 -17 37 -5 0 -9 -6 -9 -14z"/>
<path d="M2984 3115 c-3 -14 -10 -25 -15 -25 -5 0 -9 -7 -9 -15 0 -8 5 -15 10
-15 6 0 10 6 10 14 0 8 7 16 15 20 17 6 20 32 5 41 -5 3 -12 -6 -16 -20z"/>
<path d="M1850 3109 c0 -6 -7 -9 -15 -5 -9 3 -19 -3 -26 -15 -14 -27 -5 -36
16 -16 8 9 24 19 35 22 11 4 18 11 15 16 -8 13 -25 11 -25 -2z"/>
<path d="M1940 3106 c0 -7 7 -19 15 -26 16 -13 20 -3 9 24 -8 20 -24 21 -24 2z"/>
<path d="M2604 3105 c-9 -22 1 -29 15 -11 8 10 9 16 1 21 -5 3 -13 -1 -16 -10z"/>
<path d="M3287 3100 c-3 -11 -1 -23 4 -26 5 -3 9 -1 9 5 0 5 3 16 6 25 3 9 2
16 -4 16 -5 0 -12 -9 -15 -20z"/>
<path d="M2093 3085 c13 -27 33 -35 23 -9 -3 9 -6 20 -6 25 0 5 -6 9 -14 9
-11 0 -12 -5 -3 -25z"/>
<path d="M1890 3092 c0 -5 9 -17 20 -27 22 -20 26 -14 10 16 -11 19 -30 26
-30 11z"/>
<path d="M2907 3068 c-5 -37 0 -51 14 -43 12 8 12 75 0 75 -5 0 -11 -15 -14
-32z"/>
<path d="M3230 3069 c0 -17 4 -28 10 -24 6 3 10 17 10 31 0 13 -4 24 -10 24
-5 0 -10 -14 -10 -31z"/>
<path d="M2740 3065 c0 -14 5 -25 10 -25 6 0 10 11 10 25 0 14 -4 25 -10 25
-5 0 -10 -11 -10 -25z"/>
<path d="M3177 3074 c-4 -4 -7 -14 -7 -23 0 -11 3 -12 11 -4 6 6 10 16 7 23
-2 6 -7 8 -11 4z"/>
<path d="M2213 3054 c-3 -8 -1 -20 6 -27 6 -6 11 -9 12 -6 0 2 2 14 5 27 4 25
-13 30 -23 6z"/>
<path d="M1770 3045 c0 -8 7 -15 15 -15 8 0 15 4 15 9 0 5 -7 11 -15 15 -9 3
-15 0 -15 -9z"/>
<path d="M1857 3053 c-7 -10 21 -49 29 -40 3 3 -1 15 -9 27 -8 12 -17 18 -20
13z"/>
<path d="M2020 3046 c0 -15 18 -31 26 -23 7 7 -7 37 -17 37 -5 0 -9 -6 -9 -14z"/>
<path d="M2330 3036 c0 -22 3 -27 11 -19 8 8 8 16 0 30 -9 16 -10 14 -11 -11z"/>
<path d="M3124 3049 c-3 -6 -1 -16 5 -22 8 -8 11 -5 11 11 0 24 -5 28 -16 11z"/>
<path d="M2491 3030 c-1 -27 14 -58 24 -49 3 3 -1 21 -9 40 -14 31 -15 32 -15
9z"/>
<path d="M2130 3031 c0 -6 5 -13 10 -16 6 -3 10 1 10 9 0 9 -4 16 -10 16 -5 0
-10 -4 -10 -9z"/>
<path d="M2995 3030 c-3 -5 -1 -10 4 -10 6 0 11 5 11 10 0 6 -2 10 -4 10 -3 0
-8 -4 -11 -10z"/>
<path d="M1750 3020 c0 -5 7 -10 16 -10 8 0 12 5 9 10 -3 6 -10 10 -16 10 -5
0 -9 -4 -9 -10z"/>
<path d="M1970 3016 c0 -8 5 -18 10 -21 6 -3 10 3 10 14 0 12 -4 21 -10 21 -5
0 -10 -6 -10 -14z"/>
<path d="M2858 3014 c-5 -4 -8 -16 -8 -28 0 -14 3 -17 11 -9 6 6 9 19 7 28 -1
9 -6 13 -10 9z"/>
<path d="M1730 2986 c-13 -16 -7 -46 9 -46 12 0 22 43 12 53 -4 4 -14 1 -21
-7z"/>
<path d="M2247 2993 c-4 -3 -7 -29 -7 -57 0 -61 19 -51 22 12 1 43 -3 57 -15
45z"/>
<path d="M2557 2981 c-5 -22 1 -33 14 -25 12 7 12 44 0 44 -5 0 -11 -9 -14
-19z"/>
<path d="M2410 2968 c0 -15 5 -30 11 -33 18 -12 20 1 4 31 l-15 29 0 -27z"/>
<path d="M2936 2967 c-5 -15 -6 -31 -2 -34 11 -11 18 5 14 34 l-4 28 -8 -28z"/>
<path d="M3062 2969 c1 -12 9 -24 16 -27 9 -3 13 3 10 19 -1 12 -9 24 -16 27
-9 3 -13 -3 -10 -19z"/>
<path d="M3288 2965 c-6 -6 1 -177 7 -183 2 -2 9 -1 16 3 8 6 10 31 6 88 -6
75 -16 105 -29 92z"/>
<path d="M9314 2959 c-7 -12 8 -17 86 -26 70 -9 100 -7 100 8 0 5 -21 9 -47 9
-27 1 -67 5 -91 9 -24 5 -45 5 -48 0z"/>
<path d="M1872 2943 c2 -9 8 -18 15 -20 7 -3 9 3 6 16 -6 25 -26 28 -21 4z"/>
<path d="M2730 2934 c0 -14 4 -23 10 -19 6 3 10 15 10 26 0 10 -4 19 -10 19
-5 0 -10 -12 -10 -26z"/>
<path d="M2080 2940 c0 -5 7 -10 16 -10 8 0 12 5 9 10 -3 6 -10 10 -16 10 -5
0 -9 -4 -9 -10z"/>
<path d="M2336 2928 c-9 -36 -7 -78 4 -78 6 0 10 15 10 34 0 19 3 41 6 50 3 9
2 16 -4 16 -5 0 -12 -10 -16 -22z"/>
<path d="M2616 2934 c-9 -23 -7 -52 3 -58 5 -3 11 10 13 30 4 37 -6 55 -16 28z"/>
<path d="M3231 2937 c-6 -8 -12 -54 -13 -103 -3 -75 -7 -98 -29 -139 -36 -67
-70 -133 -120 -235 l-42 -85 -1 -192 -1 -193 -35 6 c-60 10 -60 10 -39 54 23
47 30 169 17 265 -7 46 -6 68 6 100 29 76 60 454 40 487 -12 19 -21 5 -20 -29
1 -31 -3 -38 -19 -39 -33 -2 -74 -15 -123 -40 -26 -13 -50 -24 -54 -24 -4 0
-54 -25 -110 -57 -155 -84 -247 -129 -303 -147 -27 -8 -81 -26 -119 -40 -80
-29 -96 -27 -39 4 23 13 29 19 16 17 -19 -4 -21 -2 -13 13 14 27 12 34 -5 16
-9 -8 -22 -13 -30 -9 -9 3 -28 -8 -47 -26 -36 -35 -33 -37 20 -16 l37 15 -24
-20 c-23 -20 -41 -25 -71 -20 -25 3 -25 9 1 36 13 14 24 39 25 55 1 16 11 38
23 48 28 24 27 35 -1 20 l-23 -12 20 23 20 24 -31 -22 c-17 -12 -34 -19 -38
-15 -3 3 -6 -1 -6 -10 0 -9 -6 -17 -14 -17 -29 0 18 89 48 90 5 0 1 -10 -10
-21 -19 -22 -19 -22 2 -11 32 17 44 36 34 52 -7 12 -12 12 -28 -3 -25 -23 -42
-22 -42 3 0 11 6 20 13 20 8 0 22 10 33 22 16 18 17 21 2 15 -11 -4 -15 -2
-13 6 6 16 -12 44 -22 34 -4 -5 -1 -12 7 -17 13 -8 12 -10 -3 -10 -12 0 -16
-5 -11 -12 5 -10 4 -10 -6 -1 -7 7 -11 29 -9 57 3 28 0 45 -6 43 -5 -2 -11
-32 -13 -68 -2 -35 -7 -68 -13 -73 -5 -6 -9 -16 -9 -24 0 -12 2 -12 17 -1 15
13 15 12 0 -18 -10 -18 -17 -55 -17 -85 0 -82 -32 -173 -86 -244 -13 -17 -24
-38 -24 -47 0 -9 -4 -19 -10 -22 -5 -3 -19 -27 -30 -53 -12 -26 -33 -59 -47
-74 l-26 -27 16 -88 c9 -48 22 -118 28 -155 7 -43 16 -68 24 -68 7 0 15 -7 19
-15 5 -13 -4 -15 -55 -13 -65 2 -77 9 -53 28 10 9 13 22 9 42 -4 15 -2 28 3
28 10 0 -16 211 -28 224 -5 5 -1 20 9 35 10 14 31 46 48 71 37 54 52 106 57
189 3 67 -9 82 -19 23 -3 -20 -10 -44 -15 -52 -16 -25 -12 20 6 74 9 26 14 50
11 53 -4 3 -11 -15 -18 -41 -6 -25 -16 -46 -21 -46 -6 0 -7 8 -3 18 7 16 24
99 27 132 3 31 -2 60 -11 60 -10 0 -23 -78 -23 -134 0 -27 -3 -35 -9 -25 -12
20 -11 53 6 132 14 69 12 101 -8 94 -7 -2 -14 -14 -18 -28 -5 -17 -7 -10 -8
25 l-1 49 -25 -29 c-14 -16 -25 -34 -25 -39 0 -6 -9 -28 -19 -48 -11 -21 -25
-62 -33 -90 -13 -53 -68 -169 -92 -197 -8 -8 -16 -24 -18 -35 -2 -11 -21 -30
-43 -42 -53 -30 -64 -29 -33 5 23 25 98 146 98 158 0 3 8 18 19 32 10 15 28
56 40 92 12 36 34 85 49 110 37 61 54 102 46 109 -4 3 -9 0 -12 -8 -2 -8 -19
-30 -36 -50 -31 -35 -74 -98 -106 -153 -8 -14 -23 -41 -33 -58 -10 -18 -14
-29 -8 -26 18 12 13 -2 -24 -60 -19 -30 -35 -59 -35 -64 0 -6 -4 -10 -10 -10
-15 0 -13 9 11 46 11 19 18 34 15 34 -3 0 -17 -21 -32 -47 -15 -27 -48 -68
-73 -93 -61 -60 -111 -120 -111 -131 0 -5 -4 -9 -10 -9 -11 0 -50 -36 -51 -47
-1 -10 -129 -116 -134 -111 -2 2 23 32 56 67 33 35 58 65 56 68 -3 2 -20 -13
-38 -34 -63 -69 -124 -125 -204 -186 -44 -33 -82 -62 -84 -64 -2 -2 -2 -5 1
-8 2 -3 42 22 87 56 46 33 93 64 105 68 26 11 184 137 209 168 10 13 26 23 34
23 15 0 123 110 132 134 2 6 31 47 63 90 32 43 61 91 65 105 7 29 39 91 55
106 8 7 9 4 3 -10 -4 -11 -11 -34 -16 -52 -5 -17 -35 -76 -66 -130 -46 -78
-81 -122 -173 -213 -63 -64 -130 -128 -149 -144 -46 -39 -219 -156 -231 -156
-5 0 -31 -14 -57 -30 -27 -17 -59 -32 -72 -35 -13 -2 -40 -21 -60 -41 -52 -52
-68 -59 -76 -33 -7 20 -8 20 -41 -12 -20 -20 -34 -27 -34 -19 0 12 -2 12 -14
0 -13 -13 -49 -90 -42 -90 1 0 15 14 32 32 21 23 24 29 10 24 -16 -6 -17 -4
-6 9 9 10 16 12 20 5 4 -6 15 -1 30 15 12 13 26 22 30 20 10 -6 -137 -162
-165 -177 -12 -6 -6 4 15 27 30 31 32 36 14 33 -11 -1 -22 0 -22 5 -5 20 0 26
15 20 12 -5 15 -2 10 10 -4 11 5 34 26 63 27 39 33 43 43 29 11 -14 15 -13 38
8 26 24 36 44 15 31 -27 -16 29 64 89 129 161 173 228 238 286 278 l61 42 -80
-82 c-98 -101 -106 -110 -36 -46 112 102 126 117 123 127 -1 5 2 7 7 4 14 -9
41 4 41 20 0 8 18 26 40 40 22 15 40 30 40 33 0 4 32 31 70 61 62 49 82 70 64
70 -5 0 -132 -101 -177 -142 -11 -9 -47 -33 -81 -54 -33 -21 -67 -44 -74 -51
-17 -16 -25 -17 -16 0 4 6 -30 -24 -74 -67 -45 -44 -84 -77 -87 -74 -9 9 147
161 166 163 9 1 40 22 69 48 29 26 56 47 61 47 5 0 9 6 9 13 0 11 35 37 212
157 37 25 67 50 68 56 0 7 22 32 50 57 46 42 89 109 57 91 -33 -20 -126 -107
-122 -115 8 -12 -29 -34 -100 -60 -33 -12 -65 -26 -72 -31 -6 -5 -25 -11 -42
-13 -35 -5 -76 -24 -51 -25 13 0 -62 -55 -114 -82 -19 -10 -20 -10 -7 5 7 10
9 17 3 17 -5 0 -17 -11 -26 -25 -9 -14 -22 -23 -28 -19 -6 4 -8 3 -5 -3 4 -6
-3 -19 -16 -29 -12 -10 -16 -12 -9 -4 21 24 13 33 -10 11 -13 -11 -42 -36 -65
-54 -54 -45 -143 -146 -143 -164 0 -8 5 -11 10 -8 6 3 10 12 10 18 0 7 24 39
54 72 38 41 53 53 49 38 -4 -17 -1 -23 10 -23 9 0 19 5 22 10 3 6 0 10 -7 10
-14 0 -7 6 91 83 34 26 64 47 68 47 4 0 49 28 100 61 51 34 96 59 100 56 3 -4
-8 -14 -26 -24 -17 -10 -31 -21 -31 -25 0 -4 23 6 50 23 54 33 62 44 28 35
-20 -5 -19 -4 2 5 115 53 160 62 96 20 -128 -85 -238 -162 -276 -195 -26 -23
-58 -48 -71 -56 -55 -35 -239 -235 -239 -262 0 -5 -38 -51 -85 -101 -46 -51
-107 -125 -135 -166 -28 -40 -64 -89 -80 -109 -16 -20 -27 -43 -25 -54 3 -16
1 -17 -9 -9 -11 9 -19 5 -38 -17 -13 -15 -32 -31 -42 -35 -29 -11 -14 15 24
40 18 13 52 53 75 90 23 38 51 77 62 88 28 29 83 112 83 125 0 6 5 8 12 4 7
-5 8 -3 3 6 -6 10 -15 6 -35 -19 -65 -77 -29 50 41 151 11 14 19 30 19 35 0 6
9 18 20 28 11 10 20 22 20 28 0 11 42 66 124 162 53 63 80 87 138 121 10 6 26
18 35 26 10 9 94 53 187 99 92 45 180 92 195 104 14 12 47 36 73 53 66 45 165
143 178 176 19 51 10 51 -24 1 -32 -48 -57 -72 -193 -183 -51 -43 -225 -142
-248 -142 -4 0 -53 -25 -110 -56 -186 -102 -353 -285 -478 -524 -54 -104 -95
-177 -129 -232 -49 -78 -25 -78 25 -1 26 40 47 76 47 81 0 9 30 26 35 20 7 -8
-113 -174 -132 -184 -24 -11 -63 -56 -63 -71 0 -5 -18 -24 -41 -42 -22 -18
-38 -36 -35 -39 4 -3 16 4 29 15 12 11 32 20 45 21 13 0 39 12 57 26 45 34 49
33 14 -5 -16 -17 -29 -40 -29 -52 0 -19 1 -19 20 -2 11 10 17 22 13 28 -3 6
-1 7 6 3 7 -4 57 35 127 101 63 59 143 127 177 151 34 23 69 48 77 55 25 21
62 43 145 88 135 72 231 144 344 258 40 41 92 85 115 98 64 37 107 54 119 50
7 -2 -13 -16 -43 -29 -57 -26 -89 -65 -91 -110 0 -12 -5 -32 -10 -43 -7 -14
-8 -2 -5 43 2 34 2 62 0 62 -10 0 -27 -50 -45 -132 -11 -50 -29 -102 -40 -116
-16 -20 -18 -34 -13 -68 4 -26 2 -44 -5 -48 -22 -14 -10 -35 25 -45 32 -9 69
-1 101 23 1 0 4 13 8 28 7 26 6 26 -36 21 -34 -5 -45 -2 -56 12 -18 25 -16 47
3 43 18 -3 44 64 44 116 0 26 13 30 16 5 1 -5 2 -10 3 -11 1 -2 3 -31 4 -64 3
-48 0 -61 -10 -57 -7 3 -13 0 -13 -6 0 -17 29 -26 42 -13 6 6 10 46 10 89 0
43 6 101 14 129 8 28 12 58 9 66 -5 12 4 17 37 22 68 11 120 48 160 113 20 32
38 67 42 78 3 11 16 32 29 47 l23 26 11 -26 c26 -62 26 -91 -1 -145 -14 -29
-37 -65 -52 -82 -48 -55 -54 -76 -39 -126 61 -205 67 -232 54 -255 -10 -20
-10 -27 4 -42 10 -10 17 -29 17 -42 0 -22 2 -22 57 -16 89 10 96 26 62 124
-11 29 -19 61 -19 71 0 10 -8 45 -19 77 -22 70 -25 143 -6 164 7 8 28 44 46
80 18 36 42 77 54 91 12 14 32 52 46 83 22 52 26 56 49 49 29 -8 142 -11 134
-4 -5 5 44 21 109 36 9 2 22 7 29 11 8 5 9 2 5 -9 -3 -10 -2 -17 3 -17 5 0 11
8 15 18 6 22 76 46 105 37 14 -4 20 -2 20 9 0 18 36 40 51 31 5 -4 19 5 30 19
23 29 39 34 39 12 0 -11 5 -12 25 -3 14 7 25 19 25 27 0 13 -1 13 -10 0 -8
-13 -10 -13 -10 2 0 9 13 21 30 27 20 7 30 7 30 0 0 -12 25 -39 36 -39 3 0 4
15 1 34 -5 31 -2 35 35 55 70 37 71 36 66 -91 -3 -86 -10 -129 -28 -180 -22
-59 -23 -72 -13 -111 16 -57 -1 -173 -28 -203 -23 -25 -25 -50 -3 -58 11 -4
15 -16 12 -43 -3 -37 -2 -38 39 -47 58 -12 75 2 61 52 -8 27 -7 46 3 72 7 21
13 85 13 161 1 78 5 131 12 140 7 8 17 39 23 69 7 30 23 75 37 100 l24 45 -6
-85 c-3 -47 -12 -102 -19 -123 -9 -27 -11 -79 -7 -186 5 -140 4 -152 -18 -196
-19 -39 -20 -49 -9 -56 8 -5 18 -9 23 -9 5 0 6 -15 3 -34 l-5 -33 56 -7 c40
-5 58 -3 64 6 8 13 2 63 -10 83 -4 6 -8 35 -9 65 l-3 55 39 0 c25 0 50 -9 72
-26 46 -35 79 -52 79 -41 0 6 -11 17 -25 26 -13 9 -23 22 -20 29 2 6 6 45 10
86 4 51 3 71 -4 66 -6 -3 -11 -22 -11 -42 0 -27 -3 -34 -15 -29 -11 4 -15 -2
-15 -24 0 -17 5 -30 10 -30 6 0 10 -7 10 -16 0 -15 -2 -15 -26 0 -14 10 -35
16 -47 16 -57 -5 -55 -7 -52 93 6 129 14 183 34 209 9 13 49 88 88 168 55 112
74 161 82 217 18 120 13 156 -18 120z m-261 -151 c0 -8 -13 -41 -30 -72 -16
-32 -35 -73 -41 -92 -6 -18 -13 -32 -15 -30 -7 8 19 83 36 106 10 12 21 40 25
62 6 38 25 57 25 26z m-55 -33 c-21 -49 -29 -55 -22 -16 5 26 3 31 -8 26 -9
-3 -15 -19 -16 -37 0 -26 -2 -28 -9 -11 -20 46 -2 72 53 74 16 1 16 -1 2 -36z
m83 -13 c0 -16 -4 -32 -9 -35 -10 -7 -13 48 -2 58 10 10 10 10 11 -23z m-57
-77 c-12 -20 -14 -14 -5 12 4 9 9 14 11 11 3 -2 0 -13 -6 -23z m45 -8 c-3 -8
-12 -15 -21 -15 -14 0 -14 3 2 24 18 24 30 18 19 -9z m-109 -11 c-10 -62 -27
-63 -19 -1 2 20 9 37 14 37 7 0 8 -14 5 -36z m53 -23 c0 -5 -9 -19 -20 -32
l-21 -24 16 33 c15 31 25 41 25 23z m-858 -33 c-7 -7 -12 -8 -12 -2 0 14 12
26 19 19 2 -3 -1 -11 -7 -17z m-2 -42 c0 -8 -4 -18 -10 -21 -5 -3 -10 3 -10
14 0 12 5 21 10 21 6 0 10 -6 10 -14z m811 -13 c-12 -20 -14 -14 -5 12 4 9 9
14 11 11 3 -2 0 -13 -6 -23z m-21 -38 c0 -8 -4 -15 -10 -15 -5 0 -7 7 -4 15 4
8 8 15 10 15 2 0 4 -7 4 -15z m26 -35 c-12 -40 -14 -42 -20 -22 -5 15 -2 32 9
48 23 35 27 26 11 -26z m-1151 11 c-3 -12 -11 -21 -16 -21 -6 0 -8 3 -6 8 2 4
7 16 11 26 9 25 20 13 11 -13z m1086 -42 c-5 -13 -10 -19 -10 -12 -1 15 10 45
15 40 3 -2 0 -15 -5 -28z m20 -32 c-17 -17 -24 -1 -10 25 12 21 14 21 17 4 2
-10 -1 -23 -7 -29z m-1168 -2 c-9 -19 -20 -35 -25 -35 -4 0 -4 8 1 18 5 9 12
25 15 35 3 9 10 17 16 17 5 0 2 -16 -7 -35z m-43 -56 c0 -5 -7 -9 -15 -9 -15
0 -20 12 -9 23 8 8 24 -1 24 -14z m60 3 c0 -4 -14 -16 -31 -26 -31 -18 -32
-11 -4 21 11 14 35 17 35 5z m1175 -99 c-4 -70 -12 -113 -20 -123 -8 -9 -12
-25 -8 -38 4 -16 0 -27 -13 -37 -22 -16 -38 -9 -29 12 3 9 -1 23 -9 32 -13 14
-11 22 9 61 56 106 62 125 64 183 1 9 4 17 7 17 3 0 2 -48 -1 -107z m-1051 4
c-26 -40 -49 -67 -51 -60 -2 6 12 33 33 59 20 27 41 60 46 74 7 16 12 20 15
12 3 -7 -16 -46 -43 -85z m-830 51 c-44 -33 -53 -36 -19 -6 16 15 34 28 39 28
5 0 -4 -10 -20 -22z m456 -13 c-7 -9 -15 -13 -17 -11 -7 7 7 26 19 26 6 0 6
-6 -2 -15z m229 12 c-2 -1 -15 -11 -29 -22 l-25 -20 19 23 c11 12 24 22 29 22
6 0 8 -1 6 -3z m-129 -67 c-8 -5 -17 -7 -19 -4 -3 3 1 9 9 14 8 5 17 7 19 4 3
-3 -1 -9 -9 -14z m224 -117 c-9 -36 -12 -39 -20 -19 -7 20 1 46 16 46 6 0 8
-11 4 -27z m-664 -107 c0 -2 -7 -7 -16 -10 -8 -3 -12 -2 -9 4 6 10 25 14 25 6z"/>
<path d="M1700 2916 c0 -17 14 -29 23 -20 8 8 -3 34 -14 34 -5 0 -9 -6 -9 -14z"/>
<path d="M2880 2898 c0 -25 3 -29 10 -18 13 20 13 50 0 50 -5 0 -10 -15 -10
-32z"/>
<path d="M2469 2920 c-6 -43 -6 -60 1 -60 12 0 20 44 10 54 -6 6 -10 8 -11 6z"/>
<path d="M3136 2905 c-3 -8 -1 -15 3 -15 5 0 11 7 15 15 3 8 1 15 -3 15 -5 0
-11 -7 -15 -15z"/>
<path d="M1806 2894 c-9 -23 -7 -57 4 -74 14 -22 23 -5 10 20 -9 16 -9 25 -1
33 13 13 15 37 2 37 -5 0 -12 -7 -15 -16z"/>
<path d="M1966 2901 c-4 -7 -5 -15 -2 -18 9 -9 19 4 14 18 -4 11 -6 11 -12 0z"/>
<path d="M2160 2902 c0 -5 7 -16 16 -23 14 -12 16 -11 13 5 -4 20 -29 35 -29
18z"/>
<path d="M2821 2872 c-13 -25 -14 -42 -2 -42 8 0 23 52 16 58 -2 2 -8 -5 -14
-16z"/>
<path d="M3110 2870 c0 -5 5 -10 10 -10 6 0 10 5 10 10 0 6 -4 10 -10 10 -5 0
-10 -4 -10 -10z"/>
<path d="M1991 2848 c-1 -16 4 -28 9 -28 12 0 12 8 0 35 -8 18 -9 17 -9 -7z"/>
<path d="M1740 2830 c0 -5 5 -10 10 -10 6 0 10 5 10 10 0 6 -4 10 -10 10 -5 0
-10 -4 -10 -10z"/>
<path d="M3155 2827 c-4 -10 -5 -21 -1 -24 10 -10 18 4 13 24 -4 17 -4 17 -12
0z"/>
<path d="M2530 2796 c0 -31 6 -34 13 -6 3 11 1 23 -4 26 -5 3 -9 -6 -9 -20z"/>
<path d="M1670 2753 c-19 -32 -38 -66 -43 -76 -4 -11 -16 -33 -28 -51 -16 -25
-13 -23 15 9 20 22 36 44 36 49 0 5 18 35 40 67 23 34 35 59 27 59 -7 0 -28
-26 -47 -57z"/>
<path d="M1860 2786 c0 -9 5 -16 10 -16 6 0 10 4 10 9 0 6 -4 13 -10 16 -5 3
-10 -1 -10 -9z"/>
<path d="M2390 2775 c0 -15 4 -24 10 -20 6 3 10 12 10 20 0 8 -4 17 -10 20 -6
4 -10 -5 -10 -20z"/>
<path d="M2712 2780 c0 -14 2 -19 5 -12 2 6 2 18 0 25 -3 6 -5 1 -5 -13z"/>
<path d="M6115 2790 l-80 -6 75 -2 c41 -1 82 3 90 8 8 5 11 9 5 8 -5 -1 -46
-5 -90 -8z"/>
<path d="M1959 2785 c-4 -5 -9 -28 -12 -50 l-6 -40 15 34 c14 31 16 79 3 56z"/>
<path d="M3087 2776 c-4 -10 -5 -21 -2 -24 9 -9 17 6 13 25 -3 17 -4 17 -11
-1z"/>
<path d="M5975 2780 c-3 -5 1 -10 10 -10 9 0 13 5 10 10 -3 6 -8 10 -10 10 -2
0 -7 -4 -10 -10z"/>
<path d="M5415 2769 c-49 -3 49 -5 219 -2 171 2 312 6 315 8 6 7 -428 2 -534
-6z"/>
<path d="M1900 2746 c0 -14 5 -28 10 -31 6 -3 10 5 10 19 0 14 -4 28 -10 31
-6 3 -10 -5 -10 -19z"/>
<path d="M2571 2743 c0 -6 -4 -20 -7 -30 -5 -14 -4 -15 5 -7 7 7 11 20 8 30
-3 11 -5 14 -6 7z"/>
<path d="M3120 2710 c-6 -11 -7 -20 -3 -20 5 0 14 9 21 20 7 11 8 20 2 20 -5
0 -14 -9 -20 -20z"/>
<path d="M2775 2707 c-4 -10 -5 -21 -1 -24 10 -10 18 4 13 24 -4 17 -4 17 -12
0z"/>
<path d="M2000 2681 c0 -5 -3 -18 -6 -28 -5 -16 -4 -16 10 1 18 23 20 36 6 36
-5 0 -10 -4 -10 -9z"/>
<path d="M2211 2641 c-29 -40 -26 -45 9 -19 17 12 30 28 30 35 0 22 -17 15
-39 -16z"/>
<path d="M8532 2661 c-11 -7 -10 -10 3 -15 26 -10 105 -7 105 4 0 6 -15 10
-34 10 -19 0 -40 2 -48 5 -7 3 -19 1 -26 -4z"/>
<path d="M1908 2635 c-5 -27 2 -65 13 -65 11 0 11 37 0 65 l-8 20 -5 -20z"/>
<path d="M2352 2628 c-7 -7 -12 -15 -12 -20 0 -12 28 2 34 18 7 17 -6 18 -22
2z"/>
<path d="M9200 2603 c-8 -21 -17 -42 -19 -48 -2 -7 0 -7 7 0 16 14 44 85 34
85 -4 0 -14 -17 -22 -37z"/>
<path d="M9248 2603 c-32 -37 -128 -183 -128 -196 0 -7 -7 -22 -15 -33 -8 -10
-15 -31 -15 -46 0 -16 -4 -28 -10 -28 -5 0 -10 9 -10 19 0 11 -4 23 -10 26 -5
3 -11 25 -12 48 l-1 42 -4 -40 c-3 -22 -9 -43 -14 -46 -6 -3 -9 -21 -6 -40 4
-32 5 -32 12 -10 l8 24 17 -23 c16 -22 16 -26 -6 -88 -13 -36 -28 -70 -32 -76
-5 -6 -9 -29 -10 -51 -2 -35 -12 -127 -18 -147 -1 -5 -2 -29 -3 -55 l-2 -48
-21 40 c-11 22 -31 54 -43 70 -27 37 -33 52 -41 113 -8 58 -14 67 -14 20 0
-20 -5 -38 -12 -40 -7 -3 11 -36 43 -84 64 -94 81 -131 73 -156 -3 -10 0 -26
6 -34 9 -9 10 -31 6 -65 -9 -70 -53 -204 -71 -219 -13 -11 -15 -6 -15 30 0 62
-9 44 -12 -23 -3 -64 -18 -88 -80 -126 -21 -12 -38 -27 -38 -32 0 -5 -12 -8
-27 -7 -16 1 -45 -6 -65 -16 -38 -18 -38 -18 -58 5 -22 27 -25 22 -8 -16 13
-29 27 -31 71 -9 24 13 47 15 104 10 43 -3 74 -2 78 4 3 6 -3 10 -14 10 -25 0
-51 10 -51 20 0 4 16 17 35 29 20 11 44 35 53 52 9 17 27 44 40 59 23 29 111
80 137 80 8 0 15 5 15 11 0 7 -7 8 -17 4 -17 -6 -40 -12 -69 -19 -7 -1 -20 -8
-30 -16 -14 -12 -16 -12 -10 -1 8 12 13 29 36 121 5 19 11 92 14 163 5 109 9
134 31 177 14 27 25 56 25 64 0 16 47 49 59 41 5 -3 23 6 39 20 17 14 47 33
69 42 29 13 34 18 19 21 -10 2 -30 -5 -45 -15 -14 -11 -37 -26 -51 -33 l-25
-13 19 22 c11 11 44 33 75 48 37 19 50 29 38 31 -10 2 -30 -4 -45 -13 -15 -10
-21 -12 -14 -4 6 7 12 17 12 22 0 5 -25 -13 -57 -40 -37 -32 -52 -40 -44 -25
6 12 8 22 4 22 -4 0 -27 -39 -49 -88 l-41 -87 5 50 c2 28 18 86 34 130 16 44
32 91 35 105 3 14 30 58 60 99 29 41 49 77 44 80 -14 9 -9 20 27 59 18 19 31
40 28 47 -2 7 1 18 7 24 6 6 8 13 5 16 -2 3 -12 -3 -20 -12z m-58 -147 c0 -2
-7 -9 -15 -16 -13 -11 -14 -10 -9 4 5 14 24 23 24 12z"/>
<path d="M2000 2589 c0 -11 5 -17 10 -14 6 3 10 13 10 21 0 8 -4 14 -10 14 -5
0 -10 -9 -10 -21z"/>
<path d="M9124 2583 c-3 -16 -8 -35 -11 -43 -2 -8 -8 -37 -12 -63 -10 -62 5
-48 43 38 l26 60 -26 -30 c-19 -22 -24 -24 -19 -10 11 34 18 75 11 75 -3 0 -8
-12 -12 -27z"/>
<path d="M1554 2568 l-19 -23 23 19 c21 18 27 26 19 26 -2 0 -12 -10 -23 -22z"/>
<path d="M1952 2565 c-6 -14 -8 -25 -3 -25 8 0 23 41 17 47 -1 2 -8 -8 -14
-22z"/>
<path d="M3041 2559 c-13 -39 -14 -49 -2 -49 8 0 24 71 17 77 -2 2 -9 -10 -15
-28z"/>
<path d="M9165 2529 c-4 -6 -5 -12 -2 -15 2 -3 7 2 10 11 7 17 1 20 -8 4z"/>
<path d="M1973 2493 c-3 -10 -8 -22 -11 -27 -3 -5 0 -6 5 -3 11 7 25 47 17 47
-3 0 -7 -8 -11 -17z"/>
<path d="M9076 2495 c-3 -9 -5 -47 -5 -83 l2 -67 8 79 c8 80 7 101 -5 71z"/>
<path d="M2277 2493 c-4 -3 -7 -11 -7 -17 0 -6 5 -5 12 2 6 6 9 14 7 17 -3 3
-9 2 -12 -2z"/>
<path d="M1157 2445 c-20 -14 -37 -28 -37 -32 0 -3 10 2 23 11 12 9 32 21 45
26 12 5 22 12 22 15 0 11 -16 4 -53 -20z"/>
<path d="M1930 2459 c0 -5 5 -7 10 -4 6 3 10 8 10 11 0 2 -4 4 -10 4 -5 0 -10
-5 -10 -11z"/>
<path d="M3032 2445 c0 -16 2 -22 5 -12 2 9 2 23 0 30 -3 6 -5 -1 -5 -18z"/>
<path d="M1426 2433 c-3 -3 -6 -14 -6 -23 0 -9 -9 -25 -20 -35 -11 -10 -20
-14 -20 -9 0 5 -12 -9 -27 -31 -14 -22 -31 -43 -37 -47 -36 -22 -86 -63 -86
-70 0 -5 20 5 44 21 24 17 47 27 51 23 3 -4 5 0 3 8 -1 8 2 14 8 15 12 0 114
123 114 136 0 11 -16 20 -24 12z"/>
<path d="M5673 2423 c9 -2 25 -2 35 0 9 3 1 5 -18 5 -19 0 -27 -2 -17 -5z"/>
<path d="M5618 2413 c7 -3 16 -2 19 1 4 3 -2 6 -13 5 -11 0 -14 -3 -6 -6z"/>
<path d="M5475 2399 c-33 -5 -123 -13 -200 -18 l-140 -10 165 5 c91 2 194 11
230 18 72 16 38 18 -55 5z"/>
<path d="M1902 2353 c-16 -51 -7 -53 18 -4 15 31 17 41 7 41 -8 0 -19 -17 -25
-37z"/>
<path d="M2992 2365 c0 -16 2 -22 5 -12 2 9 2 23 0 30 -3 6 -5 -1 -5 -18z"/>
<path d="M8417 2363 c-1 -1 -24 -3 -51 -5 -31 -2 -51 -8 -54 -17 -3 -10 5 -12
39 -7 24 3 67 7 96 9 58 3 78 14 42 21 -23 4 -68 4 -72 -1z"/>
<path d="M1089 2332 c-30 -32 -158 -142 -164 -142 -3 0 -3 6 0 13 10 18 -65
-64 -83 -93 -9 -14 -29 -42 -45 -62 -16 -21 -27 -44 -24 -50 2 -7 -9 -31 -26
-53 -28 -38 -27 -38 11 5 22 25 40 47 40 50 -1 20 4 30 17 30 8 0 21 14 30 30
9 17 20 30 25 30 6 0 10 6 10 13 0 13 124 137 205 205 28 23 43 42 35 41 -8 0
-22 -8 -31 -17z m-178 -160 c-5 -10 -18 -25 -28 -33 -12 -10 -11 -5 6 19 24
35 38 43 22 14z"/>
<path d="M1275 2293 c-64 -59 -47 -53 25 9 24 21 42 40 39 42 -2 2 -31 -21
-64 -51z"/>
<path d="M3236 2248 c-2 -7 -11 -37 -20 -67 -19 -62 -13 -81 8 -30 17 41 31
109 22 109 -4 0 -8 -6 -10 -12z"/>
<path d="M3249 2176 c-35 -97 -24 -108 13 -14 30 78 32 88 21 88 -5 0 -20 -34
-34 -74z"/>
<path d="M1830 2230 c0 -5 5 -10 10 -10 6 0 10 5 10 10 0 6 -4 10 -10 10 -5 0
-10 -4 -10 -10z"/>
<path d="M1163 2193 c4 -3 1 -13 -6 -22 -11 -14 -10 -14 5 -2 16 12 16 31 1
31 -4 0 -3 -3 0 -7z"/>
<path d="M1190 2169 c-133 -81 -301 -212 -297 -232 1 -6 -5 -11 -13 -12 -8 -1
-14 -7 -12 -14 1 -7 -9 -22 -23 -33 -14 -11 -22 -25 -18 -31 3 -7 2 -9 -2 -4
-5 4 -17 0 -27 -10 -10 -9 -21 -14 -24 -11 -3 3 14 25 38 48 52 52 20 32 -39
-23 -41 -39 -46 -60 -16 -71 10 -4 13 -2 10 8 -3 8 1 17 9 20 9 3 12 2 8 -5
-6 -10 86 57 96 70 3 3 31 28 63 55 32 26 56 51 53 53 -3 3 -29 -15 -57 -41
-28 -26 -54 -44 -57 -42 -8 8 80 102 133 143 82 62 189 133 202 133 6 0 15 5
18 10 10 16 -7 12 -45 -11z"/>
<path d="M3297 2183 c-50 -83 -56 -107 -32 -117 16 -6 49 46 42 67 -2 7 -11
-3 -21 -20 -9 -18 -19 -33 -22 -33 -3 0 8 25 25 55 17 30 27 55 22 55 -6 0
-12 -3 -14 -7z"/>
<path d="M7160 2165 c0 -11 5 -12 25 -5 13 5 47 6 75 3 34 -4 50 -2 50 6 0 7
-26 11 -75 11 -59 0 -75 -3 -75 -15z"/>
<path d="M1090 2139 l-35 -30 40 22 c22 13 41 24 43 25 2 1 0 4 -5 7 -5 3 -24
-8 -43 -24z"/>
<path d="M3112 2158 c2 -6 10 -14 16 -16 7 -2 10 2 6 12 -7 18 -28 22 -22 4z"/>
<path d="M8654 2152 c-6 -4 -32 -38 -57 -77 -25 -38 -78 -101 -116 -140 -39
-38 -71 -73 -71 -77 0 -4 -14 -31 -31 -60 -55 -93 -73 -185 -44 -224 14 -18
14 -18 15 4 0 32 36 99 59 112 28 15 41 12 41 -7 0 -14 -2 -15 -9 -4 -14 21
-21 -1 -27 -86 -6 -87 -24 -158 -49 -197 -20 -30 -55 -35 -55 -8 0 10 -9 35
-20 57 -13 26 -17 42 -10 49 14 14 12 56 -4 88 -23 43 -45 130 -41 161 2 15 9
35 17 44 11 15 11 16 -6 10 -19 -8 -19 3 0 71 5 16 2 22 -9 22 -10 0 -23 -21
-36 -57 -12 -32 -26 -65 -31 -73 -26 -40 -40 -87 -40 -135 0 -98 34 -155 91
-155 34 0 69 -47 69 -93 0 -18 4 -27 12 -25 7 3 19 -1 26 -9 22 -22 52 -16 52
10 0 34 25 63 73 86 48 23 146 117 179 171 39 64 53 129 50 223 -1 48 -7 87
-11 87 -9 0 -14 -24 -31 -145 -13 -85 -57 -203 -85 -227 -11 -10 -37 -35 -58
-55 -35 -35 -38 -36 -32 -13 6 22 3 21 -29 -13 -20 -21 -36 -32 -36 -25 0 16
19 47 21 33 2 -29 38 107 39 150 2 48 2 49 14 23 15 -35 66 -89 78 -82 4 3 8
13 7 22 0 11 -2 12 -6 4 -2 -6 -9 -9 -14 -6 -6 3 -7 32 -4 67 5 45 4 58 -4 47
-6 -8 -11 -33 -11 -55 0 -35 -2 -38 -15 -24 -22 22 -35 102 -18 117 7 7 13 18
13 25 0 8 -4 7 -10 -3 -5 -8 -12 -11 -16 -7 -4 4 5 33 20 65 31 64 102 179 91
147 -4 -11 -14 -56 -22 -100 -9 -44 -22 -85 -29 -91 -18 -14 -17 -22 0 -39 12
-12 16 -1 31 77 10 51 38 148 61 217 24 68 43 126 41 127 -1 2 -7 0 -13 -4z
m-51 -140 c-3 -12 -9 -19 -14 -17 -4 3 -27 -27 -50 -67 -23 -40 -50 -82 -60
-93 -9 -11 -23 -39 -30 -63 -7 -24 -24 -53 -38 -65 -14 -12 -36 -35 -49 -51
-27 -35 -29 -18 -6 51 23 69 72 143 95 143 10 0 19 5 19 10 0 6 -5 10 -11 10
-6 0 25 38 67 85 43 46 79 83 81 82 1 -2 0 -13 -4 -25z m-405 -327 c-2 -41 -6
-75 -10 -75 -5 0 -8 -17 -8 -37 0 -60 -18 -25 -25 51 -6 52 -5 67 4 61 7 -4
10 -13 7 -21 -3 -7 -1 -16 4 -19 6 -4 10 16 10 48 0 47 5 67 17 67 2 0 2 -34
1 -75z m471 58 c0 -5 -4 -17 -9 -28 -8 -18 -9 -17 -9 8 -1 15 4 27 9 27 6 0
10 -3 9 -7z m-452 -35 c-3 -8 -6 -5 -6 6 -1 11 2 17 5 13 3 -3 4 -12 1 -19z
m22 -92 c6 -25 15 -48 21 -51 17 -10 11 -25 -9 -25 -22 0 -29 15 -37 82 -8 62
9 58 25 -6z m198 -33 c-2 -16 -4 -3 -4 27 0 30 2 43 4 28 2 -16 2 -40 0 -55z
m-228 -25 c1 -5 -3 -8 -9 -8 -5 0 -10 12 -9 28 0 24 1 25 9 7 5 -11 9 -23 9
-27z m11 -32 c0 -2 3 -11 6 -20 7 -18 -12 -21 -35 -7 -16 10 -6 31 15 31 8 0
14 -2 14 -4z"/>
<path d="M8418 1778 c-17 -15 -31 -48 -20 -48 4 0 16 14 25 30 20 33 19 36 -5
18z"/>
<path d="M7670 2119 c0 -5 5 -7 10 -4 6 3 10 8 10 11 0 2 -4 4 -10 4 -5 0 -10
-5 -10 -11z"/>
<path d="M8894 2108 c3 -13 8 -40 11 -60 3 -21 9 -38 14 -38 4 0 12 -12 17
-27 9 -23 10 -18 6 27 -3 30 -11 60 -18 68 -8 7 -14 22 -14 33 0 10 -5 19 -10
19 -6 0 -8 -10 -6 -22z"/>
<path d="M8116 2082 c-3 -6 1 -13 10 -16 25 -9 72 -7 79 4 4 6 -6 10 -24 10
-16 0 -36 3 -44 6 -8 3 -18 1 -21 -4z"/>
<path d="M754 2043 c-15 -20 -23 -33 -16 -29 13 8 56 66 49 66 -3 0 -17 -17
-33 -37z"/>
<path d="M2659 2062 c-15 -13 -19 -21 -11 -26 7 -4 12 -1 12 7 0 8 10 19 23
25 12 6 17 11 11 11 -7 1 -22 -7 -35 -17z"/>
<path d="M3418 2065 c-3 -3 -3 -27 -1 -53 l4 -47 -20 25 -21 25 0 -22 c0 -32
-10 -29 -64 18 -29 26 -46 35 -46 26 0 -22 67 -77 95 -77 22 0 85 -54 85 -72
0 -17 38 -7 58 15 30 32 28 46 -3 17 -14 -13 -25 -19 -25 -13 0 6 7 16 15 23
8 7 15 20 15 29 -1 13 -5 11 -19 -6 -34 -40 -41 -25 -15 33 14 31 22 59 19 62
-8 9 -24 -17 -31 -50 -9 -41 -24 -23 -24 28 0 40 -8 53 -22 39z"/>
<path d="M935 2030 c-3 -5 -1 -10 4 -10 6 0 11 5 11 10 0 6 -2 10 -4 10 -3 0
-8 -4 -11 -10z"/>
<path d="M2448 2024 c-5 -4 -8 -25 -8 -46 0 -49 -19 -50 -22 0 -1 30 -2 27 -7
-17 -7 -65 -31 -83 -31 -24 -1 26 -3 33 -9 23 -12 -21 -22 -80 -14 -80 16 0
73 25 73 32 0 4 15 8 34 8 25 0 38 6 50 25 20 30 20 35 1 35 -9 0 -21 -11 -27
-25 -6 -14 -15 -25 -20 -25 -13 0 -10 13 12 45 24 37 27 59 3 25 l-18 -25 -5
28 c-3 16 -8 25 -12 21z"/>
<path d="M5150 2011 c-14 -4 26 -6 89 -5 62 2 116 5 119 8 8 9 -179 5 -208 -3z"/>
<path d="M705 1974 c-9 -15 -12 -23 -6 -20 11 7 35 46 28 46 -3 0 -12 -12 -22
-26z"/>
<path d="M2597 1990 c-38 -7 -54 -16 -45 -25 2 -3 29 4 59 14 56 20 51 24 -14
11z"/>
<path d="M8820 1989 c0 -5 8 -9 18 -10 11 -1 9 -4 -8 -9 -22 -7 -22 -8 -4 -9
11 -1 29 -8 40 -16 22 -17 34 -19 34 -6 0 5 -10 13 -21 16 -15 5 -18 9 -9 15
8 5 1 11 -19 18 -19 7 -31 7 -31 1z"/>
<path d="M719 1956 c-13 -19 -26 -31 -29 -25 -4 5 -21 -11 -38 -36 -41 -58
-42 -73 -2 -17 17 22 36 39 43 37 7 -3 22 11 35 31 30 47 22 55 -9 10z"/>
<path d="M2720 1975 c0 -7 13 -12 30 -11 39 1 39 12 0 18 -19 3 -30 0 -30 -7z"/>
<path d="M2320 1956 c0 -14 5 -28 10 -31 6 -3 10 5 10 19 0 14 -4 28 -10 31
-6 3 -10 -5 -10 -19z"/>
<path d="M8852 1903 c15 -15 30 -24 34 -20 7 7 -35 46 -51 47 -5 0 3 -12 17
-27z"/>
<path d="M2050 1878 c-18 -40 -17 -68 1 -68 5 0 12 7 15 15 4 8 11 15 16 15 6
0 8 -7 4 -15 -8 -22 12 -18 24 5 13 24 30 26 30 5 0 -8 5 -15 10 -15 6 0 10 9
10 19 0 24 48 41 107 39 24 -1 47 2 52 7 14 14 -85 12 -129 -2 -19 -6 -49 -14
-66 -17 -29 -5 -31 -3 -27 17 5 21 4 21 -17 -3 l-21 -25 16 33 c9 19 11 32 5
32 -6 0 -19 -19 -30 -42z"/>
<path d="M2713 1895 c-3 -9 -3 -18 0 -21 9 -9 27 6 27 22 0 19 -19 18 -27 -1z"/>
<path d="M1593 1865 c-10 -15 -15 -17 -21 -7 -6 9 -16 10 -40 1 -38 -13 -43
-32 -7 -23 22 5 25 3 25 -20 0 -25 10 -33 23 -19 13 12 129 13 144 1 9 -7 17
-8 24 -1 11 11 -37 36 -62 33 -37 -5 -47 0 -42 23 4 21 4 21 -10 4 -15 -18
-16 -18 -19 5 -3 22 -4 23 -15 3z"/>
<path d="M2760 1869 c0 -5 5 -7 10 -4 6 3 10 8 10 11 0 2 -4 4 -10 4 -5 0 -10
-5 -10 -11z"/>
<path d="M6163 1869 c-61 -8 -65 -19 -6 -19 59 0 113 9 113 20 0 8 -46 8 -107
-1z"/>
<path d="M8912 1860 c13 -20 28 -27 28 -12 0 10 -22 32 -32 32 -5 0 -3 -9 4
-20z"/>
<path d="M2220 1860 c0 -5 5 -10 11 -10 5 0 7 5 4 10 -3 6 -8 10 -11 10 -2 0
-4 -4 -4 -10z"/>
<path d="M2560 1840 c0 -11 5 -20 10 -20 6 0 10 9 10 20 0 11 -4 20 -10 20 -5
0 -10 -9 -10 -20z"/>
<path d="M1982 1828 c4 -28 24 -34 31 -9 3 12 -1 22 -10 25 -23 9 -25 8 -21
-16z"/>
<path d="M2450 1830 c0 -5 5 -10 10 -10 6 0 10 5 10 10 0 6 -4 10 -10 10 -5 0
-10 -4 -10 -10z"/>
<path d="M1234 1794 c-27 -14 -56 -34 -66 -45 -20 -23 -28 -24 -28 -3 0 26
-17 6 -24 -28 -6 -30 -7 -31 -21 -12 -14 19 -14 19 -15 -2 0 -11 -3 -24 -8
-30 -4 -5 -5 -8 -3 -7 2 2 10 -2 17 -8 18 -15 48 3 75 48 23 37 40 32 20 -6
-13 -23 -14 -41 -3 -41 9 0 32 59 32 82 0 20 46 58 71 58 10 0 21 5 24 10 11
18 -21 11 -71 -16z"/>
<path d="M3135 1799 c-13 -19 -16 -69 -6 -69 6 0 11 9 11 21 0 11 5 29 10 40
11 20 -3 28 -15 8z"/>
<path d="M3167 1770 c-19 -48 -14 -51 13 -7 22 35 25 47 12 47 -5 0 -16 -18
-25 -40z"/>
<path d="M3490 1792 c0 -20 26 -60 33 -52 3 3 2 20 0 38 -6 34 -33 46 -33 14z"/>
<path d="M3568 1804 c-19 -18 88 -158 116 -152 14 2 10 10 -18 40 -20 21 -47
55 -61 78 -27 42 -28 44 -37 34z"/>
<path d="M1492 1775 c-6 -13 -7 -27 -3 -30 5 -3 14 9 20 25 12 36 -1 40 -17 5z"/>
<path d="M3060 1794 c0 -18 31 -74 39 -69 13 8 -6 62 -25 69 -8 3 -14 3 -14 0z"/>
<path d="M2970 1751 c11 -22 29 -35 36 -28 9 8 -20 47 -34 47 -9 0 -10 -5 -2
-19z"/>
<path d="M9114 1752 c-12 -10 -27 -29 -34 -42 -8 -16 -1 -12 20 13 17 20 37
37 45 37 18 0 36 -25 45 -63 l8 -32 1 30 c1 36 -23 75 -47 75 -9 -1 -26 -9
-38 -18z"/>
<path d="M3187 1743 c-4 -3 -7 -12 -7 -20 0 -17 26 -17 33 1 8 21 -11 35 -26
19z"/>
<path d="M3550 1740 c0 -5 5 -10 11 -10 5 0 7 5 4 10 -3 6 -8 10 -11 10 -2 0
-4 -4 -4 -10z"/>
<path d="M1360 1725 c0 -30 29 -85 44 -85 16 0 49 65 43 84 -2 6 -12 -5 -22
-24 l-19 -35 -14 38 c-15 38 -32 50 -32 22z"/>
<path d="M1457 1685 c-22 -47 -21 -52 6 -29 12 10 9 4 -7 -14 -29 -32 -30 -50
-2 -39 24 9 51 68 35 77 -6 5 -9 15 -6 24 12 31 -10 15 -26 -19z"/>
<path d="M5940 1700 c-10 -7 8 -9 58 -6 40 2 75 6 79 10 10 10 -121 7 -137 -4z"/>
<path d="M7113 1679 c-9 -12 8 -14 103 -17 75 -2 114 1 114 8 0 5 -17 10 -37
10 -21 0 -67 3 -103 6 -49 5 -68 3 -77 -7z"/>
<path d="M9102 1678 c-7 -7 -12 -16 -12 -21 0 -5 7 -1 16 8 9 9 14 18 12 20
-2 3 -10 -1 -16 -7z"/>
<path d="M3360 1654 c-6 -14 -10 -30 -10 -35 0 -19 -27 -8 -38 16 -15 32 -36
34 -26 3 9 -31 21 -45 45 -51 17 -4 24 3 40 40 22 52 22 53 9 53 -6 0 -15 -12
-20 -26z"/>
<path d="M2130 1634 c0 -30 18 -67 29 -60 10 7 -10 86 -21 86 -4 0 -8 -12 -8
-26z"/>
<path d="M2194 1625 c-3 -20 -4 -39 0 -42 3 -4 6 2 6 13 0 11 7 30 16 42 13
19 13 22 0 22 -9 0 -18 -13 -22 -35z"/>
<path d="M2252 1630 c-25 -40 -28 -62 -8 -54 17 7 40 58 34 76 -3 8 -14 -1
-26 -22z"/>
<path d="M3396 1639 c-8 -12 -12 -27 -9 -32 3 -5 12 2 20 17 18 35 10 45 -11
15z"/>
<path d="M1026 1634 c-11 -8 -30 -14 -41 -14 -12 0 -30 -9 -40 -20 -10 -11
-29 -20 -42 -20 -41 0 -85 -28 -81 -52 2 -12 9 -23 17 -26 8 -3 11 0 7 7 -4 6
-2 19 3 28 10 17 10 17 11 1 0 -10 5 -18 10 -18 6 0 10 6 10 14 0 7 15 19 33
25 17 7 49 21 69 32 20 10 43 16 51 13 16 -6 32 25 20 37 -4 4 -17 1 -27 -7z"/>
<path d="M2597 1633 c-8 -12 15 -89 28 -94 10 -4 49 90 41 98 -2 3 -13 -10
-22 -29 -18 -32 -18 -33 -22 -8 -4 29 -17 46 -25 33z"/>
<path d="M9092 1619 c-18 -12 -30 -24 -27 -27 2 -3 13 2 23 11 9 9 29 20 42
26 14 5 18 10 10 10 -8 0 -30 -9 -48 -20z"/>
<path d="M2682 1598 c-11 -18 -18 -36 -15 -42 3 -5 15 8 25 28 25 48 17 58
-10 14z"/>
<path d="M9025 1615 c-5 -11 -15 -28 -23 -38 -8 -9 -13 -19 -10 -22 2 -2 22
14 44 37 21 23 32 36 22 30 -13 -10 -17 -10 -21 0 -3 9 -7 6 -12 -7z"/>
<path d="M3468 1613 c-27 -4 -41 -33 -15 -33 26 0 87 21 87 30 0 10 -21 11
-72 3z"/>
<path d="M7795 1609 c-33 -3 -55 -7 -50 -9 14 -4 148 -1 152 4 8 8 -45 11
-102 5z"/>
<path d="M1736 1602 c-8 -13 32 -72 48 -72 19 0 43 24 51 51 11 33 -2 33 -21
0 -23 -39 -28 -39 -44 -1 -12 30 -24 37 -34 22z"/>
<path d="M3000 1596 c0 -9 12 -21 26 -26 27 -11 44 -6 44 11 0 6 -4 7 -10 4
-5 -3 -21 2 -35 11 -23 15 -25 15 -25 0z"/>
<path d="M7915 1600 c3 -5 15 -10 25 -10 10 0 22 5 25 10 4 6 -7 10 -25 10
-18 0 -29 -4 -25 -10z"/>
<path d="M2350 1584 c0 -8 5 -12 10 -9 6 3 10 10 10 16 0 5 -4 9 -10 9 -5 0
-10 -7 -10 -16z"/>
<path d="M1852 1560 c-8 -16 -12 -36 -9 -42 3 -10 37 52 37 68 0 15 -17 -1
-28 -26z"/>
<path d="M2395 1580 c3 -5 16 -10 28 -10 18 0 19 2 7 10 -20 13 -43 13 -35 0z"/>
<path d="M2460 1582 c0 -22 28 -45 46 -38 18 8 18 9 -3 17 -13 4 -23 13 -23
19 0 5 -4 10 -10 10 -5 0 -10 -4 -10 -8z"/>
<path d="M2720 1571 c0 -12 5 -21 10 -21 6 0 10 6 10 14 0 8 -4 18 -10 21 -5
3 -10 -3 -10 -14z"/>
<path d="M2772 1558 c5 -15 58 -24 58 -10 0 11 -24 22 -47 22 -8 0 -13 -6 -11
-12z"/>
<path d="M8838 1554 c-4 -5 -3 -25 1 -44 6 -23 10 -30 15 -20 7 18 -8 78 -16
64z"/>
<path d="M716 1525 c-3 -8 -1 -15 4 -15 6 0 10 7 10 15 0 8 -2 15 -4 15 -2 0
-6 -7 -10 -15z"/>
<path d="M1422 1529 c5 -17 88 -26 88 -10 0 6 -13 11 -29 11 -16 0 -37 3 -47
7 -12 4 -15 2 -12 -8z"/>
<path d="M1590 1525 c0 -9 40 -45 50 -45 16 0 12 15 -8 33 -18 16 -42 23 -42
12z"/>
<path d="M1875 1520 c4 -6 11 -8 16 -5 14 9 11 15 -7 15 -8 0 -12 -5 -9 -10z"/>
<path d="M7840 1510 c0 -12 -7 -20 -17 -21 -43 -1 -77 -9 -82 -18 -6 -8 -12
-11 -27 -11 -4 0 15 -20 41 -45 48 -44 48 -45 30 -65 -19 -22 -78 -26 -102 -7
-9 6 -15 4 -19 -8 -6 -15 -15 -16 -58 -11 -28 3 -58 1 -66 -4 -28 -17 -1 -21
75 -11 88 13 202 14 260 2 28 -5 50 -3 75 8 26 10 30 16 18 18 -10 3 -18 9
-18 14 0 5 -11 9 -25 9 -22 0 -25 4 -25 33 0 33 -39 137 -52 137 -5 0 -8 -9
-8 -20z m-25 -56 c24 23 38 16 48 -25 5 -19 12 -50 17 -68 5 -19 8 -36 6 -38
-1 -2 -20 3 -42 11 -21 8 -34 15 -28 15 5 1 10 17 10 36 0 26 -4 35 -16 35
-20 0 -53 34 -44 43 4 4 13 -1 19 -10 12 -16 14 -16 30 1z"/>
<path d="M5755 1510 c-62 -4 -66 -6 -37 -13 18 -5 66 -6 107 -2 41 4 75 3 75
-1 -1 -19 -56 -118 -68 -122 -7 -2 -12 6 -12 23 0 15 -4 25 -10 23 -12 -4 -12
-10 -5 -63 4 -22 2 -51 -3 -64 -8 -23 -10 -22 -42 27 -18 28 -37 49 -42 46
-10 -6 5 -37 43 -85 38 -48 36 -59 -7 -59 -20 0 -33 -4 -29 -10 7 -11 105 -9
105 3 0 4 10 18 23 31 43 43 89 107 82 114 -6 6 -20 -7 -68 -70 -13 -17 -12
-12 4 22 27 55 92 144 120 163 l21 15 -22 12 c-12 7 -20 8 -17 2 4 -5 -5 -20
-19 -33 -14 -13 -41 -52 -61 -86 -37 -66 -53 -84 -53 -59 0 18 99 193 104 186
3 -3 8 -2 12 3 8 7 -70 6 -201 -3z"/>
<path d="M9014 1505 c-10 -8 -14 -15 -8 -15 5 0 19 7 30 15 10 8 14 15 8 15
-5 0 -19 -7 -30 -15z"/>
<path d="M750 1484 c0 -8 5 -12 10 -9 6 4 8 11 5 16 -9 14 -15 11 -15 -7z"/>
<path d="M7184 1460 c-40 -24 -53 -38 -64 -70 -15 -44 -6 -65 23 -54 21 8 22
24 2 24 -19 0 -19 4 0 39 13 27 85 71 113 71 21 0 92 -32 92 -41 0 -5 -6 -9
-12 -9 -7 0 -31 -14 -52 -30 -34 -25 -36 -30 -18 -30 12 0 22 -5 22 -10 0 -7
-13 -8 -36 -4 -29 5 -36 4 -32 -7 2 -8 17 -15 31 -17 15 -2 25 -8 22 -13 -10
-14 7 -11 26 7 19 17 79 28 79 14 0 -6 -4 -10 -10 -10 -5 0 -10 -4 -10 -10 0
-13 27 -13 35 0 3 5 6 30 7 55 1 53 -24 87 -81 111 -49 21 -80 17 -137 -16z
m141 -80 c-10 -11 -21 -17 -24 -14 -3 3 3 12 13 20 28 20 32 17 11 -6z m55 10
c0 -5 -5 -10 -11 -10 -5 0 -7 5 -4 10 3 6 8 10 11 10 2 0 4 -4 4 -10z m-40
-30 c0 -5 -5 -10 -11 -10 -5 0 -7 5 -4 10 3 6 8 10 11 10 2 0 4 -4 4 -10z"/>
<path d="M680 1470 c0 -5 7 -10 15 -10 8 0 15 5 15 10 0 6 -7 10 -15 10 -8 0
-15 -4 -15 -10z"/>
<path d="M388 1459 c-10 -5 -18 -7 -18 -4 0 3 -13 -1 -30 -10 -16 -9 -30 -20
-30 -26 0 -18 46 -4 75 24 31 28 32 33 3 16z"/>
<path d="M7263 1405 c0 -13 3 -22 8 -19 5 3 9 14 9 25 0 10 -4 19 -9 19 -5 0
-8 -11 -8 -25z"/>
<path d="M5267 1363 c12 -9 232 -18 223 -10 -3 2 -57 7 -120 11 -63 4 -110 3
-103 -1z"/>
<path d="M7450 1339 c0 -5 -4 -8 -9 -4 -5 3 -12 1 -16 -5 -3 -6 1 -13 10 -17
10 -3 21 0 25 7 4 7 17 10 29 7 14 -3 21 0 21 9 0 9 -11 14 -30 14 -16 0 -30
-5 -30 -11z"/>
<path d="M6725 1315 c-25 -15 -59 -25 -92 -27 -29 -2 -53 -6 -53 -11 0 -4 42
-5 93 -3 52 3 111 1 131 -4 l38 -8 -6 31 c-11 54 -47 61 -111 22z m54 1 c-2
-2 -15 -9 -29 -15 -24 -11 -24 -11 -6 3 16 13 49 24 35 12z"/>
<path d="M8120 1326 c-51 -9 -60 -13 -41 -18 13 -4 46 -3 73 2 32 6 56 6 68 0
40 -21 108 -4 82 22 -9 9 -12 9 -12 -1 0 -9 -9 -12 -27 -8 -16 3 -39 8 -53 10
-14 3 -54 0 -90 -7z"/>
<path d="M6921 1321 c-12 -8 -10 -11 10 -14 38 -8 69 -7 69 3 0 19 -55 26 -79
11z"/>
<path d="M6285 1299 c-16 -5 -55 -12 -85 -15 -30 -3 -59 -10 -65 -16 -7 -7 3
-9 33 -4 32 5 42 3 42 -8 0 -19 17 -24 84 -22 68 2 91 23 60 57 -19 21 -25 22
-69 8z m15 -17 c0 -11 -37 -32 -44 -25 -11 11 -6 21 12 26 28 8 32 7 32 -1z"/>
<path d="M8406 1291 c-27 -18 -55 -55 -56 -74 0 -4 11 -5 25 -1 15 4 25 2 25
-5 0 -17 57 -13 64 5 4 10 13 13 26 9 36 -12 37 25 2 57 -38 33 -47 34 -86 9z
m65 -21 c27 -22 17 -25 -29 -9 -18 6 -29 15 -26 20 9 15 30 10 55 -11z m-38
-20 c25 0 16 -24 -11 -28 -12 -2 -25 4 -31 16 -12 22 -3 38 13 22 5 -5 18 -10
29 -10z"/>
<path d="M9155 1299 c-4 -6 -5 -12 -4 -14 7 -7 59 8 59 16 0 13 -47 11 -55 -2z"/>
<path d="M7568 1280 c-20 -11 -46 -33 -57 -49 -22 -31 -20 -30 -176 -46 -27
-3 -55 -12 -61 -20 -14 -19 -50 -20 -57 -1 -4 10 -17 11 -51 6 -52 -8 -69 10
-39 42 16 18 16 18 -8 10 -27 -11 -38 -40 -17 -53 8 -6 -2 -9 -29 -9 -23 0
-50 -2 -60 -5 -10 -3 -3 2 16 10 31 15 33 18 18 32 -14 15 -22 15 -74 2 -32
-8 -65 -13 -73 -12 -40 6 -229 13 -350 14 -136 1 -184 -5 -208 -24 -11 -9
-191 -4 -247 8 -11 2 -29 4 -40 5 -11 1 4 6 34 11 30 5 57 12 60 14 15 15 -24
17 -146 6 -100 -9 -140 -16 -146 -26 -5 -9 -23 -15 -42 -15 -25 0 -35 -4 -35
-16 0 -14 -11 -15 -79 -11 -44 3 -88 10 -99 16 -33 18 -99 14 -111 -6 -6 -10
-11 -12 -11 -5 0 14 -80 17 -80 2 0 -38 499 -42 531 -4 8 9 23 12 48 8 20 -3
65 -7 101 -9 36 -1 76 -8 90 -14 17 -8 49 -9 100 -4 41 4 112 7 158 5 71 -3
82 -6 82 -22 0 -24 39 -33 96 -20 26 6 60 8 76 5 15 -4 56 0 91 9 83 21 221
26 274 11 27 -8 67 -10 110 -6 79 8 282 5 333 -4 78 -14 123 41 63 77 -26 16
-27 17 -8 24 31 11 70 44 54 45 -8 0 -4 4 9 9 23 10 30 30 10 30 -7 -1 -30
-10 -50 -20z m-931 -116 c-3 -3 -12 -4 -19 -1 -8 3 -5 6 6 6 11 1 17 -2 13 -5z
m148 -10 c-114 -17 -155 -23 -132 -17 9 2 17 11 17 19 0 11 20 14 103 13 l102
-1 -90 -14z m-232 -1 c-7 -2 -19 -2 -25 0 -7 3 -2 5 12 5 14 0 19 -2 13 -5z
m55 -30 c-10 -2 -28 -2 -40 0 -13 2 -5 4 17 4 22 1 32 -1 23 -4z"/>
<path d="M5590 1276 c0 -27 56 -51 81 -35 10 6 7 9 -12 9 -36 0 -44 12 -17 27
22 12 21 12 -14 13 -26 0 -38 -4 -38 -14z"/>
<path d="M5680 1281 c0 -12 70 -53 82 -49 6 2 -8 16 -31 31 -44 29 -51 32 -51
18z"/>
<path d="M6448 1277 c-33 -13 -38 -32 -5 -22 12 3 32 9 45 12 12 3 22 9 22 14
0 12 -28 10 -62 -4z"/>
<path d="M7990 1269 c0 -40 68 -86 101 -68 31 16 23 31 -13 23 -30 -6 -31 -5
-19 10 13 16 12 17 -11 11 -21 -5 -27 -2 -33 14 -7 22 -25 29 -25 10z"/>
<path d="M9095 1271 c-7 -12 29 -33 39 -24 3 3 6 12 6 20 0 15 -36 18 -45 4z"/>
<path d="M5887 1253 c-3 -5 6 -9 19 -9 13 -1 21 2 18 7 -6 11 -31 12 -37 2z"/>
<path d="M7725 1250 c-22 -8 -53 -40 -40 -40 5 0 16 7 26 16 19 17 75 12 64
-6 -3 -5 -13 -6 -21 -3 -8 3 -25 1 -37 -5 -12 -5 -30 -13 -39 -16 -10 -3 -18
-10 -18 -17 0 -6 7 -8 16 -5 8 3 24 1 35 -4 15 -9 24 -6 42 10 17 16 30 20 55
15 19 -4 32 -2 32 5 0 5 -4 10 -9 10 -6 0 -22 11 -37 25 -29 27 -37 29 -69 15z"/>
<path d="M9038 1253 c6 -2 18 -2 25 0 6 3 1 5 -13 5 -14 0 -19 -2 -12 -5z"/>
<path d="M9243 1231 c-45 -9 -85 -20 -90 -24 -4 -5 8 -6 27 -2 19 3 73 9 119
13 53 4 86 12 89 20 5 16 -40 14 -145 -7z"/>
<path d="M7170 1232 c0 -11 72 -12 90 -1 10 5 -3 8 -37 9 -29 0 -53 -4 -53 -8z"/>
<path d="M7937 1233 c-11 -10 -8 -43 3 -43 6 0 10 5 10 10 0 6 7 10 15 10 9 0
12 6 9 15 -6 16 -26 20 -37 8z"/>
<path d="M8963 1223 c-7 -2 -13 -13 -13 -23 0 -17 -9 -20 -82 -22 -53 -2 -83
-7 -85 -15 -3 -9 11 -11 54 -9 32 2 93 4 136 5 70 1 77 3 77 21 0 13 -7 20
-19 20 -10 0 -24 7 -31 15 -13 16 -17 17 -37 8z"/>
<path d="M7165 1190 c-3 -5 1 -10 9 -10 8 0 18 5 21 10 3 6 -1 10 -9 10 -8 0
-18 -4 -21 -10z"/>
<path d="M7890 1181 c0 -5 7 -11 15 -15 8 -3 15 -1 15 3 0 5 -7 11 -15 15 -8
3 -15 1 -15 -3z"/>
<path d="M8235 1179 c-9 -13 14 -21 76 -26 68 -7 76 -18 19 -27 -22 -3 -40
-10 -40 -15 0 -20 53 -29 156 -25 190 7 249 19 238 48 -3 8 0 13 8 13 7 -1 13
3 13 8 0 6 -7 9 -15 8 -57 -10 -311 0 -398 15 -29 5 -55 6 -57 1z m380 -58
c-3 -5 -65 -9 -138 -9 -74 1 -123 4 -112 9 29 11 257 11 250 0z"/>
<path d="M7780 1150 c0 -5 15 -12 33 -15 17 -3 39 -7 47 -9 8 -1 38 -6 65 -10
28 -4 58 -10 68 -13 10 -3 17 1 17 11 0 11 -17 16 -67 21 -38 3 -78 10 -91 16
-30 12 -72 12 -72 -1z"/>
<path d="M9120 1099 c-12 -8 -10 -9 8 -4 28 8 44 -23 19 -37 -19 -10 -24 -78
-7 -78 6 0 10 13 10 29 0 16 7 34 15 41 21 17 19 37 -4 50 -24 12 -22 12 -41
-1z"/>
<path d="M9360 1065 c0 -14 -8 -29 -20 -35 -18 -9 -20 -8 -20 15 0 31 -12 32
-34 3 -16 -23 -16 -23 -10 7 5 22 3 27 -4 20 -6 -6 -13 -22 -14 -35 -2 -19 2
-25 17 -26 11 -1 28 -5 38 -9 13 -5 25 -2 37 11 23 23 37 74 21 74 -6 0 -11
-11 -11 -25z"/>
<path d="M9400 1071 c-15 -29 -13 -91 4 -91 7 0 19 7 26 15 8 9 21 13 32 9 27
-8 58 23 58 58 0 36 -16 28 -25 -12 -8 -38 -23 -39 -27 -2 l-3 27 -18 -32
c-18 -34 -55 -48 -43 -17 21 54 18 85 -4 45z"/>
<path d="M9081 1049 c-14 -39 -14 -57 -2 -43 10 10 25 74 18 74 -3 0 -10 -14
-16 -31z"/>
<path d="M9196 1034 c-4 -9 -4 -19 -1 -22 2 -3 7 3 11 12 4 9 4 19 1 22 -2 3
-7 -3 -11 -12z"/>
<path d="M9360 980 c0 -5 5 -10 10 -10 6 0 10 5 10 10 0 6 -4 10 -10 10 -5 0
-10 -4 -10 -10z"/>
<path d="M9530 974 c0 -8 5 -12 10 -9 6 3 10 10 10 16 0 5 -4 9 -10 9 -5 0
-10 -7 -10 -16z"/>
<path d="M1417 783 c-11 -13 -15 -38 -16 -83 0 -36 -3 -160 -7 -277 -6 -211
-6 -211 16 -223 34 -18 67 -5 79 32 6 18 10 80 10 137 -1 115 7 131 55 110 30
-14 34 -34 32 -158 -1 -107 7 -127 48 -117 29 7 46 39 46 86 0 16 5 32 10 35
6 3 10 45 10 93 0 77 -3 92 -25 125 -24 34 -29 37 -75 37 -27 0 -60 4 -73 9
-23 9 -25 15 -28 89 -3 61 -9 85 -23 101 -23 26 -38 26 -59 4z m47 -31 c9 -18
12 -44 9 -74 -11 -93 7 -114 103 -126 68 -8 99 -40 97 -100 -3 -124 -12 -195
-27 -210 -8 -9 -19 -12 -23 -8 -4 4 -8 59 -8 123 0 109 -1 116 -24 134 -18 14
-34 18 -63 15 -22 -2 -42 -7 -45 -10 -3 -3 -5 -58 -4 -123 2 -126 -8 -160 -42
-148 -15 7 -16 29 -12 274 2 146 5 269 5 274 0 17 21 5 34 -21z"/>
<path d="M2580 765 c-13 -39 -17 -41 -40 -20 -40 36 -140 35 -207 -3 -54 -30
-103 -168 -103 -291 0 -151 61 -232 175 -233 48 -1 60 3 85 27 16 15 30 37 32
49 6 39 41 26 58 -22 8 -23 20 -42 27 -42 16 0 16 4 2 53 -8 32 -7 50 10 102
12 35 21 69 21 74 0 8 -45 8 -151 1 -4 0 -10 -17 -14 -37 -14 -74 -31 -103
-63 -103 -53 0 -93 63 -94 148 -1 73 9 119 35 157 56 83 98 86 170 11 60 -63
80 -72 84 -36 16 173 16 200 0 200 -9 0 -20 -15 -27 -35z m-80 -20 c7 -8 17
-15 23 -15 6 0 19 -7 28 -16 17 -16 19 -15 28 10 16 41 22 31 15 -26 -8 -69
-19 -80 -47 -48 -32 36 -72 60 -101 60 -34 0 -95 -55 -117 -105 -42 -96 -36
-202 14 -260 26 -30 39 -37 70 -38 47 -1 53 5 70 73 11 42 19 55 34 56 11 1
36 4 56 8 43 8 43 6 21 -71 -15 -51 -17 -53 -33 -39 -27 25 -38 19 -57 -30
-27 -70 -84 -84 -162 -38 -62 36 -81 84 -82 196 0 95 20 189 48 228 43 58 161
92 192 55z"/>
<path d="M990 783 c-60 -6 -72 -18 -68 -67 l3 -41 94 -3 93 -3 -6 -87 c-3 -48
-10 -143 -15 -212 -10 -151 -6 -165 51 -157 67 9 71 19 74 169 1 73 2 165 3
205 l1 72 68 3 67 3 2 48 c1 30 -3 50 -10 52 -7 2 -66 6 -132 9 -66 3 -133 7
-150 9 -16 2 -50 2 -75 0z m332 -41 c3 -4 8 -16 10 -27 3 -18 -4 -21 -59 -25
-34 -3 -65 -9 -69 -13 -9 -9 -11 -25 -18 -262 l-5 -170 -29 -3 c-18 -2 -32 2
-35 10 -2 8 0 107 6 221 6 114 7 210 4 214 -4 3 -40 8 -80 9 -39 1 -78 3 -84
3 -12 1 -18 42 -8 52 7 8 359 -1 367 -9z"/>
<path d="M7375 781 c-40 -17 -47 -36 -25 -64 18 -22 20 -40 19 -139 0 -127 -7
-180 -20 -172 -5 3 -9 12 -9 20 0 15 -24 71 -74 173 -45 91 -46 93 -83 125
-34 29 -35 29 -69 13 -28 -14 -34 -22 -34 -49 -2 -274 -8 -419 -19 -455 -21
-65 -11 -77 55 -70 82 8 83 11 81 214 -2 162 2 196 17 137 4 -14 16 -45 26
-68 11 -22 33 -84 49 -136 39 -122 53 -142 93 -136 49 8 62 28 64 99 0 34 6
96 12 137 6 41 10 82 10 90 0 8 3 56 6 105 6 74 11 93 27 106 14 11 20 24 17
45 -3 28 -5 29 -63 31 -33 1 -69 -2 -80 -6z m113 -35 c3 -14 -1 -16 -16 -12
-16 6 -20 1 -26 -31 -3 -21 -6 -74 -6 -118 0 -44 -7 -140 -15 -213 -8 -74 -13
-137 -10 -142 7 -12 -23 -33 -39 -27 -18 7 -38 51 -64 137 -11 36 -35 97 -52
135 -18 39 -38 84 -46 101 -14 32 -39 50 -49 35 -2 -5 -2 -99 0 -209 l5 -200
-32 -11 c-45 -16 -55 -3 -41 56 11 44 13 102 17 365 1 79 4 98 18 107 14 9 23
2 51 -37 53 -74 66 -99 121 -247 28 -76 57 -141 65 -143 11 -4 12 3 7 32 -4
21 -3 61 3 89 6 29 12 107 14 174 3 96 1 125 -10 134 -23 19 -9 34 38 40 57 8
63 6 67 -15z"/>
<path d="M8386 777 c-17 -12 -14 -47 4 -47 24 0 32 -80 29 -293 -3 -241 0
-255 51 -282 42 -22 85 -19 117 9 l28 24 -44 41 -44 41 7 121 c4 66 12 130 19
141 22 37 70 88 84 88 7 0 13 6 13 13 0 16 -38 77 -48 77 -4 0 -23 -16 -42
-35 -19 -19 -38 -35 -42 -35 -4 0 -8 20 -8 44 0 80 -70 132 -124 93z m69 -32
c17 -17 25 -35 25 -60 0 -41 15 -75 32 -75 7 0 26 14 44 31 34 33 48 33 57 -2
4 -16 -2 -25 -27 -40 -64 -37 -80 -72 -87 -192 -8 -139 -5 -156 39 -194 31
-27 34 -33 19 -39 -24 -9 -64 3 -88 27 -21 21 -21 28 -17 220 6 223 0 277 -31
320 -18 24 -19 29 -6 29 9 0 27 -11 40 -25z"/>
<path d="M6183 738 c-6 -7 -13 -85 -17 -173 -3 -88 -11 -203 -17 -255 -13
-121 -5 -150 45 -150 51 0 63 40 65 223 l1 77 49 0 c58 0 61 -5 61 -130 0
-113 9 -159 31 -171 54 -28 77 40 82 234 l2 118 -33 30 c-27 24 -41 29 -85 29
-76 0 -89 13 -91 88 0 33 -6 66 -11 71 -18 18 -70 24 -82 9z m58 -35 c1 -10 1
-38 0 -63 -4 -68 19 -90 99 -99 78 -8 88 -13 106 -57 15 -36 19 -104 6 -104
-5 0 -7 -36 -4 -79 4 -75 -8 -128 -27 -117 -4 3 -8 60 -9 126 -3 162 -12 180
-97 180 -79 0 -79 -1 -85 -154 -3 -74 -8 -138 -12 -141 -15 -15 -36 4 -41 37
-3 18 -1 53 4 78 8 45 17 212 18 343 1 60 3 67 21 67 12 0 21 -7 21 -17z"/>
<path d="M5735 722 c-34 -7 -45 -23 -45 -61 0 -58 8 -64 91 -60 l74 4 -1 -60
c0 -33 -2 -129 -4 -213 -2 -84 -1 -154 1 -156 2 -2 28 -6 57 -8 42 -4 55 -2
62 12 5 9 9 83 9 166 1 183 5 242 17 253 5 6 31 5 63 -1 66 -14 77 -3 80 71 1
36 -3 50 -15 55 -18 7 -358 5 -389 -2z m375 -47 c0 -51 -7 -56 -75 -49 -55 6
-64 4 -73 -12 -6 -11 -14 -108 -18 -217 l-7 -197 -34 0 c-19 0 -32 4 -29 8 3
5 8 73 11 151 4 78 8 152 11 164 2 12 1 41 -2 65 l-6 42 -79 0 -79 0 0 28 c0
16 3 31 6 35 3 3 89 5 190 5 l184 0 0 -23z"/>
<path d="M3186 643 c-24 -13 -27 -19 -22 -46 3 -18 8 -104 11 -192 8 -212 5
-202 63 -211 63 -10 203 11 219 32 14 19 20 74 27 234 3 63 8 132 12 152 6 34
4 38 -19 43 -16 4 -34 1 -51 -10 -25 -17 -26 -21 -27 -119 0 -55 -2 -114 -3
-131 -1 -16 -3 -45 -4 -62 -2 -30 -5 -33 -33 -33 -68 0 -73 12 -85 205 -4 55
-10 108 -15 117 -16 30 -41 38 -73 21z m286 -15 c3 -7 -1 -44 -8 -83 -7 -38
-13 -123 -13 -187 -1 -138 2 -135 -115 -137 -44 -1 -84 -5 -89 -8 -15 -9 -47
29 -42 51 3 12 1 95 -4 186 -10 175 -5 204 28 163 15 -17 18 -42 19 -124 1
-59 8 -126 17 -156 15 -51 16 -52 60 -59 78 -11 90 15 94 206 2 98 6 129 18
142 19 21 29 23 35 6z"/>
<path d="M2898 645 c-4 -4 -106 -13 -170 -15 -19 0 -6 -18 17 -24 24 -6 51
-49 41 -65 -3 -4 -8 -75 -12 -158 -8 -174 -3 -193 51 -193 53 0 60 22 60 190
0 80 4 151 8 158 5 6 24 12 42 12 44 0 45 -5 48 -183 l2 -139 29 -25 c21 -18
36 -23 55 -18 46 11 52 30 30 93 -16 47 -18 73 -14 168 7 123 -3 160 -48 188
-22 13 -128 22 -139 11z m145 -46 c15 -19 17 -41 16 -163 -1 -114 2 -148 15
-173 9 -18 16 -39 16 -48 0 -25 -40 -14 -63 18 -19 24 -21 40 -20 150 2 130
-8 184 -35 189 -20 5 -83 -10 -95 -22 -5 -4 -10 -78 -10 -163 -2 -164 -7 -185
-46 -172 -21 6 -22 10 -19 200 l3 194 50 10 c80 16 166 7 188 -20z"/>
<path d="M8255 608 c-6 -17 -25 -132 -32 -190 -3 -27 -9 -48 -13 -48 -9 0 -20
35 -20 63 0 23 -49 97 -65 97 -6 0 -25 -12 -42 -28 -23 -20 -33 -39 -38 -75
-11 -75 -22 -64 -28 32 -8 109 -18 138 -53 147 -37 9 -74 -27 -56 -56 8 -13
12 -67 12 -166 0 -91 4 -153 12 -167 29 -55 76 -62 109 -16 25 35 49 109 49
151 0 42 22 31 37 -18 6 -21 12 -58 12 -80 1 -51 32 -94 67 -94 20 0 29 9 44
43 11 23 20 52 20 63 0 12 14 66 30 119 41 134 49 204 25 221 -24 17 -64 18
-70 2z m58 -37 c5 -21 -8 -103 -23 -136 -5 -11 -11 -33 -15 -50 -3 -16 -10
-48 -14 -70 -12 -53 -41 -135 -50 -135 -11 0 -38 71 -50 132 -15 72 -42 108
-68 92 -10 -6 -19 -22 -20 -35 -2 -31 -27 -119 -42 -147 -18 -34 -47 -27 -70
16 -12 23 -18 328 -6 340 17 17 28 -30 34 -140 5 -112 8 -123 25 -123 15 0 25
17 46 83 30 95 42 112 68 96 15 -10 29 -47 46 -124 3 -14 12 -34 20 -45 13
-19 15 -18 29 16 8 20 23 84 33 143 15 85 21 106 35 106 9 0 19 -9 22 -19z"/>
<path d="M1873 589 c-84 -17 -124 -81 -131 -207 -4 -78 -3 -85 24 -123 45 -66
138 -99 195 -69 27 15 50 75 39 104 -13 35 -36 38 -69 11 -37 -32 -66 -32 -87
0 -26 40 -11 48 75 40 69 -6 78 -5 95 14 16 18 18 31 13 98 -5 72 -8 80 -37
105 -35 29 -69 37 -117 27z m93 -43 c39 -44 59 -156 32 -172 -7 -4 -46 -7 -88
-5 -95 2 -113 -10 -87 -63 19 -41 55 -53 96 -31 17 8 33 20 36 25 9 15 35 -7
35 -30 0 -29 -39 -70 -66 -70 -32 0 -93 31 -123 64 -26 28 -44 108 -35 159 14
78 37 119 76 137 53 23 96 19 124 -14z"/>
<path d="M1871 514 c-24 -17 -57 -82 -46 -92 3 -3 39 -6 80 -7 l75 0 0 33 c0
22 -8 41 -25 57 -28 29 -51 31 -84 9z m69 -24 c11 -11 20 -28 20 -37 0 -15 -9
-18 -52 -17 -59 2 -68 12 -41 48 22 31 46 33 73 6z"/>
<path d="M7654 582 c-94 -39 -124 -86 -131 -206 -5 -73 -3 -90 16 -130 27 -55
72 -85 139 -93 66 -7 108 15 133 72 38 85 -14 126 -83 67 -39 -33 -58 -32 -81
7 -30 50 -24 61 36 61 97 0 115 16 124 106 8 74 -9 111 -56 124 -46 13 -48 12
-97 -8z m112 -33 c14 -15 19 -36 19 -75 0 -74 -16 -88 -101 -89 -73 -1 -87
-11 -74 -55 13 -47 28 -67 59 -79 30 -13 71 -2 71 19 0 15 37 31 55 24 32 -13
-8 -98 -53 -115 -32 -12 -111 13 -140 44 -40 42 -54 93 -46 166 9 91 35 138
87 161 57 25 99 25 123 -1z"/>
<path d="M7642 514 c-22 -15 -29 -48 -14 -72 5 -7 27 -14 51 -17 32 -3 47 1
62 16 25 25 24 43 -3 69 -26 24 -65 26 -96 4z m73 -16 c29 -13 30 -17 12 -42
-9 -13 -20 -16 -41 -10 -32 8 -43 28 -26 49 15 18 22 18 55 3z"/>
<path d="M6683 579 c-41 -12 -100 -81 -114 -133 -15 -55 -13 -159 3 -192 23
-48 77 -83 139 -90 53 -6 58 -5 92 26 30 26 37 39 37 70 0 57 -21 69 -68 36
-60 -41 -102 -31 -102 26 0 28 1 28 64 28 88 0 108 17 114 96 3 50 1 63 -19
88 -22 28 -75 57 -101 55 -7 0 -27 -5 -45 -10z m103 -42 c22 -19 27 -33 29
-73 3 -76 -5 -84 -80 -84 -82 0 -95 -5 -95 -42 0 -41 14 -64 51 -82 41 -20 41
-21 75 9 34 29 42 31 51 9 8 -23 -13 -63 -41 -75 -20 -9 -36 -8 -78 6 -68 22
-85 38 -102 94 -11 37 -11 59 -2 109 22 125 120 190 192 129z"/>
<path d="M6679 500 c-17 -16 -29 -39 -29 -54 0 -25 2 -26 59 -26 67 0 78 13
67 73 -5 27 -11 32 -37 34 -23 2 -39 -5 -60 -27z m76 -10 c3 -6 3 -19 0 -30
-9 -27 -75 -29 -75 -2 0 10 5 23 12 30 15 15 54 16 63 2z"/>
<path d="M3570 280 c-28 -28 -26 -68 4 -81 30 -14 63 2 76 37 21 53 -38 86
-80 44z m44 -6 c23 -9 20 -51 -3 -57 -22 -5 -41 10 -41 33 0 28 14 36 44 24z"/>
<path d="M8686 248 c-9 -12 -16 -37 -16 -55 0 -27 5 -34 25 -38 14 -3 36 -7
49 -10 30 -6 35 2 43 61 6 53 -3 64 -54 64 -22 0 -37 -7 -47 -22z m59 -18 c11
-18 -6 -50 -26 -50 -14 0 -19 7 -19 30 0 23 5 30 19 30 11 0 23 -5 26 -10z"/>
</g>
</svg>
