<?xml version="1.0" standalone="no"?>
<!DOCTYPE svg PUBLIC "-//W3C//DTD SVG 20010904//EN"
 "http://www.w3.org/TR/2001/REC-SVG-20010904/DTD/svg10.dtd">
<svg version="1.0" xmlns="http://www.w3.org/2000/svg"
 width="1000.000000pt" height="125.000000pt" viewBox="0 0 1000.000000 125.000000"
 preserveAspectRatio="xMidYMid meet">
<metadata>
Created by potrace 1.16, written by Peter Selinger 2001-2019
</metadata>
<g transform="translate(0.000000,125.000000) scale(0.100000,-0.100000)"
fill="#000000" stroke="none">
<path d="M964 1093 c-10 -16 -23 -33 -30 -40 -23 -23 -37 -136 -24 -196 11
-56 3 -97 -20 -97 -11 0 -100 -85 -100 -96 0 -4 -11 -22 -25 -40 -14 -19 -22
-39 -19 -48 3 -9 2 -16 -3 -16 -17 0 -1 -112 21 -154 12 -22 39 -53 61 -68 35
-24 49 -27 118 -28 75 0 78 -1 75 -22 -3 -20 -10 -24 -57 -28 -69 -6 -83 -30
-17 -30 51 0 58 -12 23 -35 -38 -24 -84 -30 -102 -11 -9 9 -20 16 -25 16 -19
0 -41 -34 -38 -59 2 -21 9 -27 37 -29 46 -5 157 49 178 86 l16 28 386 3 c811
7 2446 11 4751 11 833 0 1522 0 1530 1 8 1 64 -4 123 -10 59 -7 111 -10 115
-7 4 2 311 7 682 11 385 3 679 10 684 15 5 5 -105 9 -279 10 -158 0 -291 3
-295 5 -5 3 -8 39 -9 80 l-1 75 33 0 c25 0 36 -7 49 -30 41 -73 187 -65 231
13 l16 27 136 0 c83 0 135 4 135 10 0 6 -19 10 -42 11 -60 1 -200 6 -220 7
-10 1 -18 9 -18 17 0 8 -7 15 -15 15 -12 0 -13 5 -4 27 5 14 8 32 5 39 -12 30
20 41 102 36 89 -5 172 4 172 19 0 5 -58 9 -135 9 l-135 0 0 45 c0 25 3 45 7
45 3 0 31 -8 60 -17 61 -19 77 -11 69 35 -2 16 0 20 7 13 6 -6 14 -5 24 4 7 8
20 12 28 8 21 -7 70 6 59 17 -5 5 -38 10 -74 12 l-65 5 -32 59 c-39 71 -39 75
-10 73 60 -5 170 2 161 10 -7 8 -136 23 -169 19 -5 0 -203 -2 -439 -4 -274 -2
-434 0 -442 6 -6 6 -14 29 -18 51 -9 54 -32 47 -28 -8 l3 -41 -64 -4 c-36 -2
-123 -2 -194 0 l-130 4 -1 71 c-1 39 -7 76 -12 81 -16 16 -23 -21 -17 -84 4
-33 3 -61 -1 -64 -8 -5 -207 -9 -324 -7 l-76 1 -8 67 c-6 61 -8 65 -21 47 -10
-13 -12 -32 -8 -58 9 -63 3 -66 -171 -65 l-154 0 0 24 c0 13 -3 30 -6 39 -11
29 -24 16 -24 -24 l0 -40 -156 1 c-86 0 -165 4 -176 10 -16 8 -18 18 -13 64 3
32 1 55 -4 55 -17 0 -25 -24 -26 -74 l0 -49 -365 3 c-201 2 -455 4 -565 5
-323 2 -325 2 -325 23 0 18 -29 52 -44 52 -4 0 -4 -15 -1 -33 l7 -34 -93 -6
c-51 -4 -145 -7 -211 -7 l-118 0 0 44 c0 44 -11 63 -30 51 -6 -3 -6 -15 0 -29
5 -13 6 -33 3 -44 -5 -22 137 -21 -1728 -8 -614 5 -555 2 -553 24 5 60 -3 112
-17 112 -12 0 -15 -14 -15 -64 l0 -65 -525 1 c-299 1 -525 5 -525 10 0 5 -9 4
-20 -2 -13 -7 -70 -9 -163 -6 -116 4 -144 8 -154 21 -6 10 -9 23 -7 30 3 7 0
24 -7 37 -22 42 -49 58 -99 58 -41 0 -50 -4 -66 -27z m96 -55 c10 -24 16 -46
12 -49 -10 -9 -74 -17 -89 -12 -15 6 -17 42 -3 77 7 19 17 26 35 26 21 0 30
-8 45 -42z m57 -31 c2 -17 1 -19 -7 -7 -11 17 -14 47 -3 36 4 -3 8 -17 10 -29z
m7070 -29 c-3 -8 -6 -5 -6 6 -1 11 2 17 5 13 3 -3 4 -12 1 -19z m-7127 -43 c0
-32 -71 -108 -86 -92 -9 8 -15 88 -8 99 8 13 94 6 94 -7z m393 -59 c-1 -38 -4
-70 -6 -72 -9 -10 -407 -14 -407 -4 0 5 8 18 18 28 11 11 25 33 33 50 8 18 17
32 21 32 5 0 8 6 8 14 0 20 14 21 185 21 l150 0 -2 -69z m1072 -1 l0 -70 -182
-1 -182 -1 -3 41 c-4 54 -32 58 -36 5 l-3 -37 -152 -6 c-84 -4 -226 -6 -317
-4 l-165 3 -3 72 -3 71 523 -1 523 -2 0 -70z m958 63 c180 -1 331 -4 336 -7 9
-6 15 -63 12 -108 l-1 -23 -220 0 -219 0 -6 38 c-11 68 -15 82 -25 82 -6 0
-10 -27 -10 -60 l0 -60 -185 1 -185 1 0 69 0 68 73 3 c39 2 79 3 87 1 8 -1
162 -3 343 -5z m-811 -60 c3 -35 2 -65 -3 -68 -4 -3 -30 -3 -58 -2 l-51 4 0
64 0 64 54 0 54 0 4 -62z m258 -7 l0 -69 -112 2 -113 1 -3 54 c-5 83 -7 81
118 81 l110 0 0 -69z m1476 60 l71 -1 0 -65 -1 -65 -308 0 -308 0 1 38 c2 87
1 86 129 92 63 3 167 4 230 3 63 -1 147 -2 186 -2z m438 -18 c-1 -7 -2 -37 -2
-65 l-2 -53 -156 2 c-86 1 -162 4 -170 7 -10 4 -14 22 -14 59 0 30 2 56 5 59
4 3 81 5 173 4 127 -1 167 -4 166 -13z m194 3 c5 -6 5 -107 -1 -112 -5 -5 -57
-8 -114 -6 l-53 2 0 59 0 60 48 4 c51 5 111 1 120 -7z m260 -20 c2 -16 1 -44
-2 -61 l-7 -33 -76 -4 c-42 -2 -92 -2 -110 0 l-33 4 0 57 c0 32 3 60 6 64 3 3
54 5 112 4 l107 -2 3 -29z m995 14 c2 -8 1 -36 -1 -62 l-4 -47 -51 -6 c-29 -3
-131 -4 -227 -1 -96 2 -201 5 -232 5 l-57 1 -3 43 c-4 54 -22 55 -26 1 -4 -53
-8 -54 -209 -47 l-153 6 0 63 0 64 479 -3 c417 -2 480 -4 484 -17z m287 5 c5
-3 10 -33 10 -65 l0 -58 -132 1 -133 2 -1 50 c-1 87 1 88 132 82 63 -3 118 -9
124 -12z m1170 -30 l0 -35 -43 6 c-49 7 -99 -13 -117 -46 -20 -38 -31 -21 -28
43 l3 62 85 5 c47 3 88 4 93 2 4 -2 7 -19 7 -37z m250 32 l165 -2 3 -57 c2
-47 0 -58 -15 -66 -22 -11 -343 -10 -360 1 -14 8 -19 118 -7 130 4 4 16 4 28
1 12 -3 95 -6 186 -7z m-1045 -62 l0 -60 -167 -3 -168 -2 0 65 0 65 168 -2
167 -3 0 -60z m358 8 c2 -32 3 -61 0 -65 -2 -5 -73 -8 -158 -8 -85 0 -156 3
-158 8 -3 4 -2 33 0 65 l5 57 153 0 153 0 5 -57z m212 -10 c0 -35 -3 -63 -7
-63 -5 0 -44 0 -88 0 l-80 0 0 65 0 66 88 -3 87 -3 0 -62z m1170 -3 l0 -65
-65 -2 c-105 -3 -110 -1 -110 57 0 28 -4 50 -10 50 -5 0 -11 -4 -11 -10 -1 -5
-3 -14 -4 -20 -1 -5 -3 -25 -4 -42 l-1 -33 -143 0 -142 0 -3 65 -3 65 248 0
248 0 0 -65z m303 3 l-3 -68 -110 -1 c-157 -1 -160 0 -161 67 -1 30 1 57 3 62
2 4 65 7 139 7 l135 0 -3 -67z m83 -6 c25 -48 19 -67 -20 -67 -35 0 -40 11
-33 78 4 44 7 50 19 40 8 -6 23 -29 34 -51z m-7631 -93 c6 -14 10 -49 10 -78
0 -52 -1 -53 -29 -54 l-29 -1 -4 74 c-3 75 -1 78 35 84 4 0 12 -11 17 -25z
m337 12 c2 -2 7 -35 10 -73 l6 -69 -159 0 -159 1 -2 76 -2 76 151 -3 c83 -2
153 -5 155 -8z m331 -59 l-3 -72 -137 -3 -138 -3 -1 28 c-1 15 -3 46 -4 68 -2
22 -1 42 0 45 2 3 67 6 145 7 l141 3 -3 -73z m307 59 c-47 -20 -58 -40 -52
-91 l5 -46 -107 3 -106 3 -3 71 -3 72 148 1 c130 0 144 -1 118 -13z m95 4 c0
-5 -4 -10 -9 -10 -6 0 -13 5 -16 10 -3 6 1 10 9 10 9 0 16 -4 16 -10z m158
-67 l3 -73 -82 0 c-73 0 -80 2 -74 18 4 9 10 29 13 45 2 15 8 27 13 27 5 0 9
14 9 30 l0 31 58 -3 57 -3 3 -72z m256 30 c3 -25 4 -48 2 -50 -2 -3 -14 1 -27
7 -36 20 -100 6 -129 -28 -30 -34 -56 -46 -67 -29 -9 14 -14 92 -7 125 4 21 8
22 113 22 l108 0 7 -47z m391 39 c25 -4 26 -7 23 -71 l-3 -66 -182 -1 -183 -1
0 68 c0 45 4 69 13 72 16 6 300 6 332 -1z m318 0 l87 -2 0 -70 0 -70 -167 2
-168 3 -8 59 c-5 32 -6 63 -4 70 4 11 33 12 260 8z m174 0 c6 -4 13 -36 15
-72 l3 -65 -32 -3 -33 -3 0 70 c0 46 4 71 13 74 17 8 21 8 34 -1z m509 -2
l144 0 0 -70 0 -70 -165 0 c-125 0 -165 3 -166 13 -3 26 3 122 8 130 3 5 12 6
20 3 8 -3 80 -6 159 -6z m-2976 -22 c0 -13 3 -47 6 -75 l6 -53 -139 0 c-76 0
-143 4 -148 9 -6 5 -26 14 -46 20 -38 12 -49 30 -49 82 0 14 3 29 7 32 3 4 87
7 185 7 178 0 178 0 178 -22z m2760 -35 c0 -32 -4 -64 -8 -71 -6 -9 -38 -12
-123 -10 l-114 3 -3 68 -3 67 126 0 125 0 0 -57z m640 46 c0 -5 -5 -9 -10 -9
-6 0 -18 -16 -27 -35 -19 -40 -9 -60 38 -70 74 -17 -1 -23 -194 -17 l-58 2 2
63 c1 34 4 65 6 69 5 10 243 7 243 -3z m291 -9 c0 -11 0 -40 0 -65 0 -25 0
-49 0 -55 -1 -6 -47 -10 -118 -10 l-118 0 38 31 c26 21 36 36 32 49 -3 9 -1
29 4 44 10 25 14 26 86 26 68 0 75 -2 76 -20z m249 8 c0 -7 -3 -29 -6 -48 -6
-34 -7 -35 -45 -32 -32 3 -43 -1 -70 -27 -22 -23 -40 -31 -65 -31 l-34 0 0 69
c0 38 5 71 10 73 6 2 55 4 110 6 77 2 100 0 100 -10z m394 -58 c-3 -36 -8 -67
-10 -69 -4 -5 -81 -6 -225 -3 l-127 2 -4 25 c-3 14 -1 28 3 31 5 3 9 23 9 45
l0 40 181 -3 180 -2 -7 -66z m374 -9 l3 -74 -32 7 c-17 3 -94 6 -170 6 l-139
0 0 70 0 70 168 -2 167 -3 3 -74z m233 67 c8 -12 3 -117 -5 -125 -2 -3 -41 -7
-85 -10 -103 -7 -111 -1 -111 81 l0 61 97 2 c60 1 100 -3 104 -9z m183 3 c3
-5 -5 -11 -17 -15 -13 -3 -29 -17 -36 -32 -10 -22 -9 -31 4 -51 9 -13 14 -27
11 -32 -5 -7 -93 -8 -100 0 -2 2 -7 34 -11 72 l-7 67 76 0 c41 0 77 -4 80 -9z
m394 0 l93 -1 -3 -32 c-3 -29 -6 -33 -38 -35 -55 -4 -76 -11 -107 -37 -24 -20
-41 -24 -125 -28 -54 -2 -98 -1 -98 2 0 3 7 16 16 28 10 15 14 32 10 48 -13
52 -3 59 81 57 43 -1 120 -2 171 -2z m308 -26 c-33 -30 -33 -58 -1 -79 14 -9
25 -20 25 -25 0 -13 -194 -1 -202 12 -4 7 -8 36 -8 65 l0 52 106 0 107 0 -27
-25z m342 16 c9 -5 12 -26 10 -67 l-3 -59 -100 3 c-55 2 -102 6 -104 7 -2 2 6
17 18 33 22 32 28 62 11 62 -5 0 -10 7 -10 15 0 12 16 15 83 15 45 0 88 -4 95
-9z m72 0 c0 -5 12 -17 27 -26 44 -29 115 -19 160 22 11 10 45 11 196 5 37 -2
37 -2 37 -45 0 -50 17 -75 34 -51 10 13 12 11 14 -10 l2 -25 -253 6 c-138 3
-252 6 -252 7 -1 0 1 29 3 64 3 45 8 62 18 62 8 0 14 -4 14 -9z m907 -62 l2
-66 -170 -2 c-93 -1 -169 1 -169 5 0 3 10 14 22 24 18 14 22 26 19 64 l-3 47
149 -3 148 -3 2 -66z m198 2 l0 -64 -72 -3 c-81 -2 -90 4 -93 56 -5 86 -10 81
83 78 l82 -3 0 -64z m297 46 c4 -7 8 -36 8 -65 l0 -53 -137 3 -138 3 -2 55
c-4 87 -10 84 135 75 78 -4 130 -11 134 -18z m152 -9 c16 -26 1 -32 -41 -16
-21 9 -43 13 -49 11 -6 -2 -14 3 -18 12 -5 14 2 16 46 13 35 -2 54 -8 62 -20z
m-8193 -35 c8 -23 7 -30 -8 -40 -58 -40 -73 -59 -88 -103 -14 -42 -14 -53 -3
-76 7 -15 20 -30 28 -34 8 -4 25 -12 37 -18 13 -7 41 -12 64 -12 36 0 40 -2
37 -22 -4 -28 -41 -31 -103 -10 -54 18 -66 31 -91 108 -18 53 -20 71 -12 97 6
18 15 36 19 42 5 5 9 17 9 26 0 10 13 21 30 28 17 5 33 17 36 26 10 24 33 18
45 -12z m34 -117 c2 -11 7 -47 10 -78 l6 -58 -29 0 c-45 0 -73 28 -79 80 -4
36 -1 49 15 66 26 27 70 21 77 -10z m1548 25 l147 -1 0 -74 c0 -73 0 -74 -27
-77 -16 -2 -144 -2 -286 1 l-259 5 26 28 c20 21 26 39 26 72 0 52 -2 51 130
48 52 -1 161 -2 243 -2z m700 0 c17 -6 16 -8 -7 -19 -30 -14 -48 -66 -33 -99
6 -13 15 -23 20 -23 6 0 8 -3 4 -6 -3 -4 -120 -7 -259 -8 l-253 -1 0 75 c0 71
1 75 24 78 16 3 32 -5 47 -21 42 -46 119 -47 172 -2 16 13 44 25 63 28 52 7
202 5 222 -2z m107 -1 c0 -5 -7 -10 -15 -10 -8 0 -15 5 -15 10 0 6 7 10 15 10
8 0 15 -4 15 -10z m288 5 l102 -7 0 -55 0 -55 -59 7 c-62 7 -95 -3 -118 -35
-9 -13 -29 -16 -102 -15 -49 0 -93 4 -96 7 -3 3 3 22 15 43 15 27 19 46 14 67
-3 18 -2 33 4 37 17 10 131 13 240 6z m722 -5 l65 0 -30 -18 c-43 -27 -58 -48
-50 -72 14 -46 120 -56 160 -15 26 25 33 59 15 70 -5 3 -10 13 -10 21 0 12 39
13 265 10 146 -2 268 -6 271 -9 7 -7 6 -138 0 -145 -7 -6 -825 -3 -863 4 l-33
6 0 72 c0 40 2 75 5 78 3 3 36 4 73 2 37 -2 96 -4 132 -4z m3988 -12 c9 -8 11
-23 6 -52 -6 -35 -3 -42 19 -60 l26 -21 -57 -1 c-154 -3 -766 -3 -771 1 -4 2
-6 34 -6 72 l0 68 203 1 c112 1 205 3 207 5 9 10 361 -3 373 -13z m-7279 -17
c38 -54 36 -131 -4 -131 -20 0 -25 12 -36 80 -14 85 2 105 40 51z m296 -33 c0
-42 -3 -52 -15 -49 -70 16 -89 14 -120 -18 -18 -18 -42 -31 -56 -31 -22 0 -24
4 -24 48 0 26 -6 59 -14 74 -8 15 -12 29 -9 31 2 3 57 4 121 2 l117 -3 0 -54z
m103 -15 c3 -64 1 -73 -15 -74 -10 -1 -28 -3 -40 -4 -12 -1 -20 2 -17 6 3 5 5
28 5 52 0 79 8 99 37 95 26 -3 27 -5 30 -75z m342 19 l0 -52 -42 6 c-24 4 -45
7 -48 6 -31 0 -44 -6 -63 -26 -18 -19 -34 -25 -77 -26 -96 -3 -90 -7 -90 59 0
98 -9 92 166 89 l154 -3 0 -53z m217 38 c-34 -27 -44 -73 -23 -105 19 -28 25
-26 -74 -30 -84 -4 -94 5 -87 75 3 32 8 63 12 69 4 7 45 11 102 11 l96 0 -26
-20z m1814 13 c0 -5 1 -39 2 -78 2 -69 2 -70 -26 -73 -36 -4 -48 27 -40 102 6
54 7 56 34 56 16 0 29 -3 30 -7z m277 -37 c5 -59 -1 -66 -42 -55 -41 11 -88
-7 -106 -41 -8 -15 -21 -20 -55 -20 l-45 0 0 80 0 81 123 -3 122 -3 3 -39z
m1582 33 c0 -4 -20 -7 -45 -7 -47 0 -92 -21 -102 -48 -9 -23 14 -63 42 -76 20
-9 36 -8 79 5 60 19 67 32 59 97 l-6 40 169 -2 169 -3 3 -59 c3 -53 1 -58 -15
-52 -49 19 -69 17 -109 -12 l-42 -30 -411 -4 -411 -3 0 78 0 77 35 0 c20 0 37
-6 42 -15 12 -20 98 -36 134 -23 16 5 31 18 34 29 6 19 16 20 191 18 101 -1
184 -5 184 -10z m594 1 c3 -3 6 -37 8 -75 l3 -70 -100 0 -100 0 -1 70 c0 39 1
72 2 75 3 7 181 7 188 0z m518 -17 c27 -25 69 -43 102 -43 33 0 84 28 91 50 6
18 19 19 238 19 128 1 247 -2 265 -5 l33 -6 -3 -70 -3 -70 -597 -4 c-329 -3
-598 -1 -599 3 -2 14 -2 107 0 130 l1 22 225 -2 c214 -3 225 -4 247 -24z
m1588 23 c0 -11 -19 -15 -25 -6 -3 5 1 10 9 10 9 0 16 -2 16 -4z m105 -6 c3
-5 -1 -10 -10 -10 -9 0 -13 5 -10 10 3 6 8 10 10 10 2 0 7 -4 10 -10z m177 0
l29 0 -3 -67 -3 -68 -115 -2 c-92 -2 -111 0 -95 9 33 19 44 41 45 85 0 48 9
54 69 48 24 -3 57 -5 73 -5z m338 -32 c0 -28 -2 -30 -27 -24 -91 22 -112 17
-180 -45 -45 -41 -57 -46 -69 -27 -8 13 -16 107 -10 123 2 6 57 9 145 7 l141
-3 0 -31z m-43 -50 c45 -42 32 -53 -62 -55 -75 -1 -85 1 -85 17 0 49 106 77
147 38z m-552 -48 c3 -5 1 -10 -4 -10 -6 0 -11 5 -11 10 0 6 2 10 4 10 3 0 8
-4 11 -10z m283 -119 l3 -83 -576 4 -576 3 2 65 c2 36 5 71 7 77 3 10 128 12
554 12 302 -1 552 2 556 5 18 18 27 -8 30 -83z m306 81 c7 -11 -4 -24 -37 -45
-23 -15 -33 -16 -70 -6 -23 6 -49 12 -57 14 -14 2 -16 7 -11 35 1 12 167 14
175 2z m-7551 -73 c-2 -35 -5 -70 -8 -76 -3 -10 -54 -13 -205 -13 l-200 0 0
25 c0 15 18 43 46 75 56 60 91 66 122 23 19 -26 25 -28 83 -26 54 2 66 7 90
31 17 17 37 28 51 27 22 -2 23 -6 21 -66z m181 37 c27 -29 37 -34 69 -31 53 5
79 15 97 38 16 19 31 20 448 25 493 5 437 17 426 -94 l-6 -59 -594 0 c-402 -1
-594 3 -595 10 -5 39 5 131 15 137 6 4 33 8 59 8 42 0 52 -4 81 -34z m1906 21
c0 -20 31 -45 76 -61 47 -16 84 -5 123 38 18 19 34 26 63 26 l38 0 0 -70 0
-70 -57 0 c-32 -1 -287 -2 -568 -3 l-510 -2 0 70 c-1 39 0 73 2 76 1 3 189 7
418 8 345 1 415 -1 415 -12z m1499 -2 c5 -5 2 -127 -3 -132 -4 -4 -692 -4
-991 0 l-180 2 -1 68 -1 67 40 0 c27 0 48 -8 69 -25 41 -35 105 -35 138 0 23
25 23 25 244 27 256 3 679 -1 685 -7z m680 4 l164 3 21 -27 c18 -22 29 -26 79
-27 51 -1 61 2 83 25 24 26 29 27 128 27 l103 0 -4 -67 c-2 -37 -6 -69 -9 -72
-6 -7 -1206 -2 -1213 4 -7 7 -4 116 4 123 8 8 455 20 470 12 6 -2 84 -3 174
-1z m1809 -7 c2 -8 1 -41 -2 -75 l-7 -62 -582 1 c-320 0 -590 2 -600 2 -16 2
-18 11 -16 70 1 37 4 69 5 72 1 3 271 5 600 5 487 0 598 -2 602 -13z m-6468
-2 c0 -5 -2 -10 -4 -10 -3 0 -8 5 -11 10 -3 6 -1 10 4 10 6 0 11 -4 11 -10z"/>
</g>
</svg>
