<?xml version="1.0" standalone="no"?>
<!DOCTYPE svg PUBLIC "-//W3C//DTD SVG 20010904//EN"
 "http://www.w3.org/TR/2001/REC-SVG-20010904/DTD/svg10.dtd">
<svg version="1.0" xmlns="http://www.w3.org/2000/svg"
 width="1000.000000pt" height="649.000000pt" viewBox="0 0 1000.000000 649.000000"
 preserveAspectRatio="xMidYMid meet">
<metadata>
Created by potrace 1.16, written by Peter Selinger 2001-2019
</metadata>
<g transform="translate(0.000000,649.000000) scale(0.100000,-0.100000)"
fill="#000000" stroke="none">
<path d="M3586 6429 c-2 -8 -7 -27 -11 -44 -19 -95 -26 -119 -35 -130 -5 -6
-27 -65 -49 -131 -21 -65 -51 -148 -66 -182 -14 -35 -24 -69 -22 -76 3 -7 -4
-23 -15 -37 -16 -20 -19 -20 -13 -4 5 17 3 16 -20 -5 -51 -48 -58 -88 -10 -56
26 17 34 9 13 -12 -7 -7 -10 -12 -8 -13 53 -8 55 -6 86 39 18 26 37 65 44 87
7 22 16 50 21 63 5 13 9 35 9 50 0 15 14 54 30 87 16 33 29 69 29 80 -1 13 -4
9 -10 -11 -5 -17 -15 -37 -23 -43 -13 -11 -13 -7 -5 25 8 27 8 39 -1 44 -8 5
-10 19 -5 39 8 39 34 42 29 4 l-4 -28 15 30 c8 17 14 39 15 49 0 20 0 20 -15
0 -17 -23 -19 -15 -4 23 7 19 12 24 18 14 5 -7 11 21 14 66 6 74 3 103 -7 72z
m-82 -359 c-9 -25 -18 -47 -21 -50 -7 -6 3 39 17 76 17 45 20 22 4 -26z m-9
-102 c-4 -13 -17 -46 -29 -73 -13 -28 -21 -55 -20 -60 2 -6 -5 -21 -16 -35
-15 -20 -21 -23 -32 -12 -10 10 -9 14 9 18 12 3 24 13 28 21 5 14 3 14 -11 2
-10 -8 -15 -9 -13 -4 3 6 19 39 37 75 18 36 32 71 32 78 0 6 5 12 11 12 6 0 8
-9 4 -22z m-47 -41 c-12 -26 -25 -47 -29 -47 -9 0 17 68 33 88 20 23 18 6 -4
-41z"/>
<path d="M2404 6408 c3 -13 15 -62 26 -109 22 -97 24 -113 11 -105 -5 4 -7 -3
-4 -14 3 -11 9 -18 13 -15 5 3 6 -3 3 -13 -5 -22 57 -142 101 -193 39 -47 70
-99 58 -99 -5 0 -25 20 -43 45 -19 24 -38 45 -42 45 -5 0 10 -22 33 -50 23
-27 50 -50 59 -50 20 0 51 -30 51 -49 0 -9 -5 -9 -22 0 l-21 11 22 -31 c24
-33 41 -40 41 -16 0 18 8 18 39 1 27 -15 64 -10 58 8 -2 6 -16 12 -32 14 -35
4 -75 30 -75 48 0 7 -9 18 -20 24 -11 6 -20 20 -20 30 0 11 -4 20 -8 20 -5 0
-23 32 -42 70 -20 42 -39 69 -46 66 -12 -5 -23 16 -45 89 -6 22 -21 67 -32 99
-11 33 -23 89 -26 125 -5 53 -10 66 -24 69 -14 3 -17 -1 -13 -20z"/>
<path d="M6090 6399 c0 -5 5 -7 10 -4 6 3 10 8 10 11 0 2 -4 4 -10 4 -5 0 -10
-5 -10 -11z"/>
<path d="M6071 6371 c-1 -13 9 -31 24 -43 16 -13 25 -29 25 -48 0 -130 92
-275 230 -362 73 -46 118 -95 137 -149 10 -27 21 -49 25 -49 11 0 11 2 -12 64
-20 53 -70 109 -122 137 -50 26 -130 105 -172 168 -46 71 -61 116 -72 224 -6
62 -24 105 -24 58 0 -28 -18 -27 -30 2 l-9 22 0 -24z"/>
<path d="M7648 6323 c20 -8 14 -23 -9 -20 -12 1 -24 -4 -26 -11 -4 -9 2 -11
23 -6 l27 7 -6 -109 c-9 -173 -52 -251 -200 -362 -91 -68 -155 -139 -176 -195
-14 -36 1 -35 17 2 23 51 85 122 142 161 93 64 156 133 194 212 33 69 36 81
41 201 l6 127 -23 -1 c-13 0 -17 -3 -10 -6z"/>
<path d="M6084 6219 c4 -72 43 -170 91 -227 36 -43 45 -34 11 11 -32 42 -74
142 -92 222 l-14 60 4 -66z"/>
<path d="M2391 6214 c0 -11 3 -14 6 -6 3 7 2 16 -1 19 -3 4 -6 -2 -5 -13z"/>
<path d="M2404 6169 c22 -71 28 -99 36 -145 10 -63 24 -92 61 -123 33 -27 37
-48 12 -53 -30 -6 52 -88 88 -88 33 0 39 16 10 25 -11 3 -24 18 -29 33 -5 15
-19 37 -31 49 -12 12 -21 27 -21 33 0 5 -6 10 -12 10 -15 0 -58 60 -58 79 0
11 3 11 15 1 26 -21 18 13 -20 89 -19 38 -35 76 -35 85 0 8 -5 18 -12 22 -8 5
-9 0 -4 -17z m156 -354 c0 -8 5 -15 10 -15 6 0 10 -5 10 -12 0 -6 -9 -3 -20 7
-22 20 -26 35 -10 35 6 0 10 -7 10 -15z"/>
<path d="M7606 6085 c-4 -21 -14 -53 -22 -70 -14 -28 -14 -28 1 -10 18 22 38
91 32 108 -2 7 -7 -6 -11 -28z"/>
<path d="M7549 5963 c-13 -16 -12 -17 4 -4 16 13 21 21 13 21 -2 0 -10 -8 -17
-17z"/>
<path d="M6229 5931 c6 -10 34 -38 63 -61 75 -61 95 -88 108 -142 7 -26 16
-48 20 -48 11 0 -15 96 -34 124 -8 13 -29 34 -46 47 -18 13 -50 41 -73 62 -45
42 -52 45 -38 18z"/>
<path d="M7504 5919 c-10 -12 -63 -53 -117 -91 -71 -50 -108 -85 -134 -124
l-36 -54 -34 40 c-37 43 -164 130 -189 130 -9 0 1 -14 26 -35 23 -19 45 -35
49 -35 4 0 38 -30 75 -67 160 -159 166 -184 65 -276 -62 -58 -68 -67 -44 -67
8 0 15 6 15 13 0 7 21 30 46 51 26 22 55 58 66 83 19 43 19 44 0 71 -11 15
-31 38 -45 50 l-25 24 24 36 c13 21 30 47 39 59 8 12 57 53 108 92 84 63 148
121 135 121 -3 0 -13 -10 -24 -21z"/>
<path d="M3045 5893 c-3 -16 -12 -47 -20 -70 -12 -37 -12 -42 2 -47 23 -9 25
-4 30 74 4 71 -2 93 -12 43z"/>
<path d="M2960 5890 c0 -5 -7 -10 -15 -10 -12 0 -13 -10 -9 -47 9 -74 13 -82
30 -59 16 22 19 126 4 126 -5 0 -10 -4 -10 -10z"/>
<path d="M3000 5873 c0 -16 -3 -39 -6 -53 -5 -17 -3 -22 4 -15 15 15 26 95 13
95 -6 0 -11 -12 -11 -27z"/>
<path d="M3080 5870 c-6 -12 -10 -39 -8 -62 2 -34 7 -42 25 -43 18 -1 23 6 31
49 6 28 7 57 2 65 -5 10 -10 0 -15 -30 -12 -70 -27 -83 -20 -16 7 60 3 70 -15
37z"/>
<path d="M2888 5872 c-13 -3 -18 -13 -18 -40 -1 -35 -1 -36 -13 -14 l-13 23
-19 -21 c-15 -16 -17 -26 -9 -48 5 -15 18 -28 28 -30 15 -3 16 -1 7 16 -14 27
-14 53 0 30 15 -26 42 -23 34 3 -5 15 -4 19 4 15 6 -4 11 -16 11 -26 0 -16 18
-38 23 -29 2 2 -2 31 -8 64 -8 49 -13 60 -27 57z"/>
<path d="M6786 5850 c-27 -10 -110 -61 -183 -115 l-133 -97 0 -42 c0 -38 5
-48 45 -84 25 -22 45 -46 45 -53 0 -8 -6 -6 -18 4 -38 34 -32 15 9 -28 23 -25
49 -45 58 -45 9 0 2 9 -16 20 -32 19 -44 40 -23 40 23 0 7 33 -40 85 -27 30
-50 61 -50 68 0 7 15 27 33 44 48 46 206 154 241 166 17 5 36 14 42 19 14 10
113 13 143 3 31 -9 26 2 -9 20 -37 19 -82 18 -144 -5z"/>
<path d="M3156 5838 c-9 -34 -7 -78 3 -78 7 0 26 80 20 88 -9 13 -17 9 -23
-10z"/>
<path d="M3196 5814 c-3 -9 -6 -30 -6 -47 1 -38 14 -21 25 31 7 33 -8 46 -19
16z"/>
<path d="M3257 5800 c-10 -38 -8 -44 8 -30 11 9 15 9 15 1 0 -7 5 -9 10 -6 15
9 12 35 -4 35 -8 0 -16 6 -18 12 -3 7 -7 1 -11 -12z"/>
<path d="M3227 5803 c-11 -10 -8 -43 3 -43 6 0 10 11 10 25 0 26 -2 29 -13 18z"/>
<path d="M6877 5743 c-4 -3 -7 -21 -7 -39 0 -27 3 -32 18 -27 13 4 14 3 6 -6
-8 -9 -18 -9 -39 -1 -22 8 -30 8 -37 -2 -17 -28 2 -53 36 -44 24 6 26 4 26
-24 0 -17 -9 -49 -19 -70 -21 -44 -13 -59 30 -57 23 2 26 6 25 42 0 116 2 125
32 126 16 1 20 3 10 6 -23 6 -23 23 -2 23 14 0 14 3 4 15 -7 9 -22 14 -34 13
-16 -2 -22 3 -24 25 -3 26 -12 34 -25 20z"/>
<path d="M2578 5715 c5 -26 16 -32 27 -15 7 11 -11 40 -25 40 -4 0 -5 -11 -2
-25z"/>
<path d="M2486 5689 c-59 -19 -95 -49 -179 -149 -39 -46 -63 -108 -49 -122 15
-15 24 -6 27 26 6 50 18 66 112 149 74 66 105 87 134 92 22 4 39 11 39 16 0
12 -15 10 -84 -12z"/>
<path d="M6190 5700 c-25 -4 -79 -22 -119 -40 -95 -41 -157 -60 -199 -60 -42
0 -102 -25 -102 -42 1 -28 39 -96 66 -116 38 -28 74 -65 74 -74 0 -4 27 -46
60 -92 49 -69 69 -89 110 -108 27 -13 49 -27 50 -32 0 -13 51 -50 94 -68 45
-18 152 -23 176 -8 11 7 0 10 -36 10 -95 0 -173 32 -260 108 -44 37 -97 95
-119 129 -22 34 -63 87 -92 118 -100 112 -107 155 -24 155 53 0 178 41 246 81
31 19 55 24 105 24 59 0 71 -4 120 -37 30 -20 67 -48 82 -62 38 -37 48 -32 12
5 -30 32 -171 120 -189 118 -5 -1 -30 -5 -55 -9z"/>
<path d="M2968 5685 c-9 -9 4 -55 13 -49 11 7 12 54 1 54 -5 0 -11 -2 -14 -5z"/>
<path d="M3071 5672 c-14 -26 -14 -42 -1 -42 11 0 25 48 17 56 -3 3 -10 -3
-16 -14z"/>
<path d="M3120 5664 c0 -28 15 -25 23 6 3 13 0 20 -9 20 -8 0 -14 -10 -14 -26z"/>
<path d="M3172 5670 c-10 -26 -2 -36 23 -26 8 3 15 13 15 21 0 9 -4 14 -9 11
-5 -4 -11 0 -14 6 -3 8 -9 3 -15 -12z"/>
<path d="M3440 5685 c0 -11 84 -81 121 -101 81 -45 119 -85 145 -157 13 -37
24 -79 24 -93 0 -16 4 -23 11 -18 12 7 8 45 -13 122 -16 56 -58 108 -106 133
-40 20 -86 52 -95 66 -8 12 -70 53 -81 53 -3 0 -6 -2 -6 -5z"/>
<path d="M6740 5666 c0 -14 4 -27 8 -30 5 -3 6 8 4 25 -5 35 -12 38 -12 5z"/>
<path d="M2684 5669 c-9 -16 10 -31 30 -23 13 5 14 9 5 20 -14 17 -25 18 -35
3z"/>
<path d="M2910 5658 c0 -13 5 -30 10 -38 7 -11 10 -5 10 23 0 20 -4 37 -10 37
-5 0 -10 -10 -10 -22z"/>
<path d="M3018 5655 c-6 -29 7 -43 16 -19 9 23 7 44 -3 44 -5 0 -11 -11 -13
-25z"/>
<path d="M2860 5662 c0 -5 7 -17 16 -28 14 -17 15 -17 10 -1 -3 10 -6 23 -6
28 0 5 -4 9 -10 9 -5 0 -10 -4 -10 -8z"/>
<path d="M2504 5615 c-18 -14 -17 -15 11 -9 46 10 65 23 34 24 -14 0 -34 -7
-45 -15z"/>
<path d="M3372 5599 c2 -7 10 -15 17 -17 8 -3 12 1 9 9 -2 7 -10 15 -17 17 -8
3 -12 -1 -9 -9z"/>
<path d="M3220 5590 c0 -5 5 -10 10 -10 6 0 10 5 10 10 0 6 -4 10 -10 10 -5 0
-10 -4 -10 -10z"/>
<path d="M2518 5563 c-18 -15 -35 -28 -37 -30 -2 -2 -1 -6 2 -10 4 -3 17 3 30
15 13 12 31 22 40 22 22 0 30 17 12 24 -8 3 -29 -7 -47 -21z"/>
<path d="M2990 5580 c0 -5 5 -10 10 -10 6 0 10 5 10 10 0 6 -4 10 -10 10 -5 0
-10 -4 -10 -10z"/>
<path d="M3100 5575 c0 -8 5 -15 10 -15 6 0 10 7 10 15 0 8 -4 15 -10 15 -5 0
-10 -7 -10 -15z"/>
<path d="M2905 5570 c3 -5 8 -10 11 -10 2 0 4 5 4 10 0 6 -5 10 -11 10 -5 0
-7 -4 -4 -10z"/>
<path d="M3480 5554 c0 -14 4 -23 10 -19 6 3 10 15 10 26 0 10 -4 19 -10 19
-5 0 -10 -12 -10 -26z"/>
<path d="M3060 5560 c0 -5 5 -10 10 -10 6 0 10 5 10 10 0 6 -4 10 -10 10 -5 0
-10 -4 -10 -10z"/>
<path d="M6760 5550 c-9 -16 -7 -28 4 -52 9 -17 16 -50 16 -73 0 -48 17 -105
32 -105 5 0 7 8 4 18 -4 16 -10 44 -21 99 -2 12 0 36 5 53 9 33 -2 80 -19 80
-6 0 -15 -9 -21 -20z"/>
<path d="M2543 5515 c-29 -27 -42 -44 -32 -45 8 0 26 11 39 25 13 14 32 25 42
25 10 0 18 6 18 14 0 30 -20 25 -67 -19z"/>
<path d="M3380 5546 c0 -9 5 -16 10 -16 6 0 10 4 10 9 0 6 -4 13 -10 16 -5 3
-10 -1 -10 -9z"/>
<path d="M2386 5535 c-11 -8 -21 -22 -22 -30 -1 -8 -18 -37 -38 -64 -20 -27
-36 -54 -36 -60 0 -18 20 -13 26 7 12 39 36 79 69 114 19 20 35 39 35 42 0 10
-14 6 -34 -9z"/>
<path d="M6952 5538 c-16 -21 -23 -56 -12 -63 5 -3 11 -16 11 -28 1 -20 2 -21
6 -2 3 11 12 29 19 40 29 40 6 90 -24 53z"/>
<path d="M2680 5513 c1 -27 1 -27 15 -9 14 19 12 36 -6 36 -5 0 -9 -12 -9 -27z"/>
<path d="M2796 5533 c-9 -9 -7 -33 3 -33 12 0 22 28 12 34 -5 3 -11 3 -15 -1z"/>
<path d="M3230 5530 c-8 -5 -12 -12 -9 -15 4 -3 12 1 19 10 14 17 11 19 -10 5z"/>
<path d="M6304 5518 c16 -13 57 -46 90 -73 86 -72 102 -79 32 -14 -63 57 -74
66 -121 93 l-30 18 29 -24z"/>
<path d="M6400 5536 c0 -2 8 -10 18 -17 15 -13 16 -12 3 4 -13 16 -21 21 -21
13z"/>
<path d="M6614 5525 c-8 -20 -2 -44 34 -139 33 -83 38 -93 48 -83 4 3 -4 27
-16 52 -13 26 -25 68 -27 93 -6 69 -12 92 -24 92 -5 0 -12 -7 -15 -15z"/>
<path d="M6692 5498 c5 -54 48 -198 60 -198 11 0 10 5 -8 48 -9 21 -17 69 -18
112 -1 64 -4 75 -19 78 -16 3 -18 -2 -15 -40z"/>
<path d="M7449 5520 c-42 -17 -121 -60 -109 -60 3 0 32 11 65 25 94 38 121 34
265 -39 85 -43 145 -67 189 -74 94 -17 112 -39 69 -85 -13 -13 -36 -31 -53
-40 -32 -16 -93 -78 -160 -162 -54 -68 -69 -79 -150 -120 -47 -23 -90 -36
-130 -40 -111 -9 -176 -22 -188 -35 -10 -10 -8 -12 6 -6 11 3 74 11 140 18
113 11 128 15 204 54 44 23 85 39 89 36 4 -4 4 -2 1 4 -4 7 0 18 9 25 8 7 43
51 77 97 46 63 74 91 114 114 79 45 115 107 79 137 -8 7 -43 16 -78 22 -90 14
-157 39 -204 76 -52 42 -121 73 -159 72 -16 -1 -51 -9 -76 -19z"/>
<path d="M2397 5481 c-22 -23 -33 -41 -26 -43 9 -3 9 -9 0 -25 -14 -27 -14
-43 -1 -43 6 0 10 7 10 16 0 23 30 85 53 112 35 38 4 24 -36 -17z"/>
<path d="M2861 5504 c0 -11 3 -14 6 -6 3 7 2 16 -1 19 -3 4 -6 -2 -5 -13z"/>
<path d="M2902 5508 c5 -15 28 -23 28 -10 0 5 -7 13 -16 16 -10 4 -14 1 -12
-6z"/>
<path d="M3120 5505 c0 -8 5 -15 10 -15 6 0 10 7 10 15 0 8 -4 15 -10 15 -5 0
-10 -7 -10 -15z"/>
<path d="M3170 5510 c0 -5 5 -10 10 -10 6 0 10 5 10 10 0 6 -4 10 -10 10 -5 0
-10 -4 -10 -10z"/>
<path d="M2315 5480 c-16 -16 -25 -30 -19 -29 8 0 60 59 52 59 -3 0 -17 -13
-33 -30z"/>
<path d="M7014 5493 c-4 -10 -8 -38 -9 -63 l-3 -45 22 46 c36 74 37 79 17 79
-10 0 -22 -8 -27 -17z"/>
<path d="M2950 5486 c0 -8 5 -18 10 -21 6 -3 10 3 10 14 0 12 -4 21 -10 21 -5
0 -10 -6 -10 -14z"/>
<path d="M3620 5486 c0 -7 7 -19 16 -27 21 -17 40 -57 48 -101 11 -63 27 -56
20 9 -5 43 -15 68 -37 96 -32 39 -47 46 -47 23z"/>
<path d="M2432 5455 c-29 -45 -15 -45 21 0 16 21 23 35 15 35 -7 0 -23 -16
-36 -35z"/>
<path d="M2826 5461 c3 -16 1 -31 -4 -35 -6 -3 -8 -23 -5 -45 5 -35 3 -39 -20
-45 -41 -10 -68 -57 -69 -118 0 -45 4 -56 27 -75 22 -19 34 -22 63 -17 46 8
49 10 63 37 l12 22 -25 -22 c-34 -32 -41 -29 -34 16 7 46 -9 64 -54 63 -17 0
-30 2 -30 6 0 19 42 72 57 73 10 1 35 3 57 5 l38 3 -4 -138 c-2 -79 -8 -144
-14 -152 -6 -8 -14 -29 -17 -47 -4 -18 -23 -66 -43 -107 -52 -107 -42 -170 31
-201 17 -7 47 -26 69 -43 47 -37 104 -43 123 -12 7 11 39 30 72 42 33 11 67
29 76 39 28 31 30 86 5 141 -13 27 -27 49 -32 49 -10 0 -1 -40 13 -54 5 -6 9
-16 9 -23 0 -10 -6 -10 -27 -2 -24 9 -31 7 -50 -16 -26 -30 -30 -67 -8 -85 13
-11 15 -8 15 19 0 35 15 71 30 71 17 0 40 -31 40 -54 0 -53 -85 -74 -163 -41
-31 13 -40 13 -78 0 -23 -8 -52 -15 -65 -15 -33 0 -64 34 -64 69 0 44 40 37
63 -12 21 -42 37 -40 37 3 0 32 -33 70 -62 70 -25 0 -23 17 11 91 40 89 62
209 56 305 -8 126 -25 191 -57 219 -15 14 -28 30 -28 35 0 6 -4 10 -10 10 -5
0 -7 -13 -4 -29z m34 -41 c0 -5 -5 -10 -11 -10 -5 0 -7 5 -4 10 3 6 8 10 11
10 2 0 4 -4 4 -10z m10 -55 c0 -14 -4 -25 -9 -25 -5 0 -8 11 -8 25 0 14 3 25
8 25 5 0 9 -11 9 -25z m-60 -164 c0 -6 -4 -13 -10 -16 -5 -3 -10 1 -10 9 0 9
5 16 10 16 6 0 10 -4 10 -9z m228 -512 c27 -10 28 -21 3 -43 -23 -21 -65 -13
-99 18 l-24 21 29 12 c27 11 42 10 91 -8z"/>
<path d="M2987 5484 c-8 -8 3 -34 14 -34 11 0 12 27 0 34 -4 3 -11 3 -14 0z"/>
<path d="M3070 5481 c0 -6 5 -13 10 -16 6 -3 10 1 10 9 0 9 -4 16 -10 16 -5 0
-10 -4 -10 -9z"/>
<path d="M3164 5468 c-11 -13 -33 -50 -50 -83 -25 -51 -29 -73 -31 -146 -1
-97 11 -172 33 -190 16 -13 16 -10 5 49 -8 42 -4 51 16 31 8 -8 23 -7 54 4 36
11 48 22 67 60 20 39 22 50 13 84 -7 25 -20 44 -36 53 -26 14 -29 27 -15 70 7
22 8 21 9 -12 1 -42 15 -56 36 -35 13 13 13 16 -1 21 -10 4 -13 13 -8 32 5 20
4 25 -5 19 -8 -4 -14 1 -18 14 -8 31 -21 16 -29 -34 -8 -54 -25 -61 -18 -7 2
20 2 31 -2 25 -9 -20 -24 -15 -24 7 0 10 9 24 20 30 11 6 20 15 20 20 0 17
-16 11 -36 -12z m-3 -83 c6 16 8 17 8 3 1 -10 -9 -26 -21 -38 l-22 -20 36 0
c55 0 88 -32 88 -85 0 -28 -7 -51 -20 -66 l-19 -24 -1 42 c0 71 -63 93 -100
35 -18 -27 -3 92 17 136 13 31 17 34 21 17 l5 -20 8 20z m24 -185 c-5 -8 -11
-8 -17 -2 -6 6 -7 16 -3 22 5 8 11 8 17 2 6 -6 7 -16 3 -22z"/>
<path d="M3030 5470 c0 -5 5 -10 10 -10 6 0 10 5 10 10 0 6 -4 10 -10 10 -5 0
-10 -4 -10 -10z"/>
<path d="M6217 5469 c7 -7 15 -10 18 -7 3 3 -2 9 -12 12 -14 6 -15 5 -6 -5z"/>
<path d="M2800 5444 c0 -8 5 -12 10 -9 6 4 8 11 5 16 -9 14 -15 11 -15 -7z"/>
<path d="M3556 5445 c-3 -9 15 -35 49 -69 55 -55 69 -53 39 7 -18 33 -59 77
-73 77 -5 0 -11 -7 -15 -15z"/>
<path d="M7102 5440 c-23 -22 -29 -40 -12 -40 32 0 -11 -58 -84 -113 -21 -16
-35 -31 -32 -34 3 -3 22 7 43 23 51 38 56 43 86 91 14 23 31 44 37 48 15 9 12
45 -3 45 -7 0 -23 -9 -35 -20z"/>
<path d="M3308 5425 c2 -14 8 -25 13 -25 10 0 11 12 3 34 -10 25 -22 19 -16
-9z"/>
<path d="M6871 5433 c-1 -14 5 -23 13 -23 11 0 14 -16 12 -75 -2 -41 -1 -75 0
-75 7 0 31 56 37 85 4 17 4 24 1 18 -7 -15 -34 -18 -34 -4 0 6 4 12 9 15 14 9
1 55 -14 50 -7 -3 -15 3 -18 13 -4 14 -5 14 -6 -4z"/>
<path d="M2461 5426 c-8 -9 -8 -16 -2 -20 6 -4 15 3 21 14 12 23 -2 27 -19 6z"/>
<path d="M2760 5423 c0 -16 39 -76 40 -62 0 11 -30 79 -35 79 -3 0 -5 -8 -5
-17z"/>
<path d="M6083 5423 c9 -2 23 -2 30 0 6 3 -1 5 -18 5 -16 0 -22 -2 -12 -5z"/>
<path d="M6301 5426 c2 -2 15 -9 29 -15 24 -11 24 -11 6 3 -16 13 -49 24 -35
12z"/>
<path d="M7269 5413 c-13 -17 -13 -17 6 -3 11 8 22 16 24 17 2 2 0 3 -6 3 -6
0 -17 -8 -24 -17z"/>
<path d="M3505 5410 c-3 -6 11 -30 32 -54 46 -53 55 -43 18 19 -26 45 -38 54
-50 35z"/>
<path d="M6140 5412 c8 -5 26 -13 40 -16 17 -5 20 -4 10 2 -8 5 -26 13 -40 16
-17 5 -20 4 -10 -2z"/>
<path d="M2613 5398 c2 -7 7 -13 12 -13 5 0 10 6 13 13 2 6 -4 12 -13 12 -9 0
-15 -6 -12 -12z"/>
<path d="M3340 5375 c0 -15 4 -24 10 -20 6 3 10 12 10 20 0 8 -4 17 -10 20 -6
4 -10 -5 -10 -20z"/>
<path d="M7215 5374 c-18 -16 -22 -22 -9 -15 18 9 53 42 43 41 -2 -1 -17 -12
-34 -26z"/>
<path d="M6398 5378 c5 -5 16 -8 23 -6 8 3 3 7 -10 11 -17 4 -21 3 -13 -5z"/>
<path d="M6869 5340 c-4 -30 -5 -57 -3 -59 10 -11 15 12 12 60 l-3 54 -6 -55z"/>
<path d="M2740 5360 c0 -11 5 -20 10 -20 6 0 10 9 10 20 0 11 -4 20 -10 20 -5
0 -10 -9 -10 -20z"/>
<path d="M3463 5365 c-13 -14 -13 -105 0 -105 22 0 -1 -179 -30 -235 -6 -11
-17 -33 -24 -50 -15 -33 -30 -54 -71 -93 -32 -30 -37 -72 -11 -97 18 -19 25
-102 10 -122 -5 -7 -18 -13 -28 -13 -11 0 -19 -4 -19 -9 0 -17 19 -22 39 -12
16 9 21 6 28 -17 11 -31 10 -136 -1 -170 -7 -20 -5 -23 11 -20 16 3 18 14 17
103 0 86 -8 189 -14 205 -1 3 -1 9 0 15 1 5 -6 33 -16 61 l-17 51 47 48 c25
27 46 53 46 59 0 5 9 28 19 50 10 23 24 57 30 76 13 43 17 172 6 220 l-7 35
26 -24 c35 -32 42 -22 15 23 -22 38 -37 44 -56 21z"/>
<path d="M6990 5373 c0 -6 -11 -27 -25 -47 -13 -20 -20 -36 -15 -36 12 0 53
80 46 88 -3 3 -6 1 -6 -5z"/>
<path d="M8653 5312 c-68 -91 -96 -151 -121 -257 -34 -142 -41 -192 -46 -315
-4 -82 -13 -141 -32 -205 -30 -105 -39 -119 -54 -80 -6 15 -23 42 -38 60 -16
17 -34 45 -41 63 -7 18 -17 32 -22 32 -24 0 6 -72 46 -110 14 -13 25 -28 25
-33 0 -5 21 -52 46 -104 25 -52 43 -97 39 -101 -3 -3 -10 0 -15 8 -8 13 -10
12 -10 -2 0 -9 -5 -18 -11 -20 -13 -4 23 -100 40 -106 13 -4 5 46 -10 63 -5 5
-9 18 -8 30 1 17 2 17 8 -4 4 -14 13 -27 21 -29 8 -3 12 -1 8 3 -4 5 -3 14 3
21 6 8 9 20 5 29 -3 9 3 19 14 25 11 6 20 17 20 25 0 7 18 32 40 55 23 24 40
37 38 30 -2 -7 3 -15 10 -17 6 -3 12 3 12 12 0 25 130 146 199 186 57 32 91
66 53 52 -26 -10 -142 -88 -185 -125 -22 -18 -46 -37 -55 -42 -10 -5 -32 -22
-49 -39 -42 -39 -42 -27 -2 24 17 21 27 39 23 39 -18 0 36 44 81 67 28 14 85
55 129 91 79 65 95 69 96 19 0 -23 26 -33 45 -17 15 13 20 74 9 104 -11 28
-45 17 -93 -28 -58 -56 -120 -103 -184 -139 -28 -16 -68 -46 -91 -67 -22 -21
-42 -38 -43 -36 -2 2 8 45 22 97 15 58 30 158 39 259 15 165 27 217 72 318 13
29 24 55 24 58 0 9 54 78 67 87 19 12 16 42 -7 62 -11 10 -20 13 -20 7 0 -6 5
-14 10 -17 6 -3 10 -13 10 -20 0 -23 -27 -6 -40 26 -7 16 -16 29 -19 29 -4 0
-30 -30 -58 -68z m73 4 c19 -20 18 -32 -10 -69 -78 -105 -131 -279 -141 -465
-6 -121 -31 -246 -59 -303 -8 -16 -11 -31 -6 -34 14 -8 -1 -44 -21 -50 -10 -4
-19 -11 -19 -16 0 -19 -27 -8 -38 15 -9 20 -7 27 8 41 10 9 22 31 26 49 3 17
13 43 21 59 22 43 34 110 48 272 22 250 40 313 132 473 27 45 36 50 59 28z
m224 -622 c0 -13 -4 -24 -10 -24 -5 0 -10 14 -10 31 0 17 4 28 10 24 6 -3 10
-17 10 -31z m-431 -316 c-10 -18 -9 -20 6 -14 14 5 13 0 -7 -26 -32 -42 -44
-45 -52 -12 -8 31 17 61 62 73 1 1 -2 -9 -9 -21z"/>
<path d="M6455 5360 c28 -12 37 -12 30 0 -3 6 -16 10 -28 9 -21 0 -21 -1 -2
-9z"/>
<path d="M2534 5346 c-4 -10 -2 -22 4 -28 8 -8 13 -7 18 6 4 10 2 22 -4 28 -8
8 -13 7 -18 -6z"/>
<path d="M6359 5345 c18 -8 36 -15 40 -15 13 1 -45 29 -59 29 -8 0 0 -6 19
-14z"/>
<path d="M2292 5327 c-17 -20 -43 -106 -36 -118 10 -16 43 39 37 62 -3 11 1
21 11 25 17 7 22 29 7 38 -5 3 -13 0 -19 -7z"/>
<path d="M3270 5330 c0 -5 4 -10 9 -10 6 0 13 5 16 10 3 6 -1 10 -9 10 -9 0
-16 -4 -16 -10z"/>
<path d="M6138 5333 c6 -2 18 -2 25 0 6 3 1 5 -13 5 -14 0 -19 -2 -12 -5z"/>
<path d="M2713 5310 c-1 -11 2 -20 6 -20 5 0 11 9 14 20 3 12 0 20 -7 20 -6 0
-12 -9 -13 -20z"/>
<path d="M6430 5316 c14 -8 27 -12 29 -10 6 6 -1 11 -29 18 l-25 7 25 -15z"/>
<path d="M7263 5306 c-29 -12 -58 -27 -65 -34 -7 -7 -19 -12 -27 -13 -9 0 -11
-3 -6 -5 6 -2 46 14 90 35 87 44 91 52 8 17z"/>
<path d="M7435 5310 c-3 -6 1 -7 9 -4 18 7 21 14 7 14 -6 0 -13 -4 -16 -10z"/>
<path d="M2380 5295 c0 -23 19 -57 30 -50 11 7 -3 58 -18 63 -7 2 -12 -4 -12
-13z"/>
<path d="M6320 5290 c34 -11 60 -11 35 0 -11 5 -29 8 -40 8 -16 0 -15 -2 5 -8z"/>
<path d="M6380 5278 c3 -3 21 -10 40 -17 19 -6 30 -7 25 -2 -6 5 -23 13 -40
17 -16 4 -28 5 -25 2z"/>
<path d="M6538 5268 c-22 -18 -28 -78 -8 -78 6 0 10 16 10 35 0 27 4 35 18 35
26 0 56 -35 48 -56 -6 -16 -8 -16 -20 1 -13 18 -14 17 -30 -7 -11 -16 -15 -35
-11 -51 6 -21 0 -29 -36 -53 -85 -58 -159 -144 -183 -214 -20 -57 -20 -88 0
-136 40 -96 106 -143 202 -144 39 0 71 -8 118 -31 67 -32 131 -51 136 -40 6
13 94 49 125 50 17 1 56 -5 86 -13 50 -13 61 -13 111 3 61 19 107 54 131 101
17 33 17 81 -1 87 -6 2 -8 -10 -6 -32 3 -24 -1 -42 -12 -53 -8 -9 -26 -29 -38
-44 -47 -56 -165 -61 -267 -11 -46 23 -101 103 -101 149 0 18 -5 36 -11 39 -6
4 -8 14 -5 22 4 9 1 13 -6 11 -7 -3 -13 -13 -14 -24 -2 -41 -57 -125 -101
-155 -39 -27 -51 -30 -118 -30 -45 0 -86 6 -102 15 -101 52 -140 198 -79 296
32 51 95 120 111 120 5 1 36 25 68 55 45 41 59 62 64 90 5 32 2 40 -18 56 -29
22 -40 23 -61 7z m250 -565 c4 -35 20 -63 35 -63 7 0 23 -9 37 -20 31 -25 21
-33 -60 -50 -54 -11 -61 -11 -111 12 l-54 25 30 15 c43 23 91 69 100 96 8 28
18 21 23 -15z"/>
<path d="M2213 5258 c2 -7 7 -13 12 -13 5 0 10 6 13 13 2 6 -4 12 -13 12 -9 0
-15 -6 -12 -12z"/>
<path d="M3390 5214 c0 -27 4 -43 10 -39 6 3 10 24 10 46 0 21 -4 39 -10 39
-5 0 -10 -21 -10 -46z"/>
<path d="M6308 5243 c7 -3 16 -2 19 1 4 3 -2 6 -13 5 -11 0 -14 -3 -6 -6z"/>
<path d="M7205 5235 c-54 -17 -33 -18 30 -1 28 8 41 14 30 14 -11 0 -38 -5
-60 -13z"/>
<path d="M6180 5236 c0 -2 8 -10 18 -17 15 -13 16 -12 3 4 -13 16 -21 21 -21
13z"/>
<path d="M6355 5230 c11 -5 29 -8 40 -8 16 0 15 2 -5 8 -34 11 -60 11 -35 0z"/>
<path d="M7070 5214 c-11 -12 -10 -13 5 -8 20 8 45 -19 45 -49 0 -14 -5 -17
-22 -11 -13 3 -25 11 -26 15 -7 17 -22 -2 -22 -26 0 -27 48 -135 60 -135 4 0
13 -15 21 -32 19 -48 82 -158 91 -158 4 0 -16 44 -44 97 -43 84 -51 107 -53
159 -1 48 1 61 12 57 18 -7 25 16 15 52 -10 37 -63 63 -82 39z"/>
<path d="M7465 5214 l-30 -14 35 6 c19 3 39 10 45 15 14 14 -16 9 -50 -7z"/>
<path d="M7233 5207 c-23 -7 -45 -15 -48 -19 -7 -7 107 21 114 28 7 7 -22 3
-66 -9z"/>
<path d="M6227 5199 c7 -7 15 -10 18 -7 3 3 -2 9 -12 12 -14 6 -15 5 -6 -5z"/>
<path d="M2520 5181 c0 -22 16 -36 24 -22 8 12 -3 41 -15 41 -5 0 -9 -9 -9
-19z"/>
<path d="M7360 5184 c-30 -8 -36 -12 -20 -12 14 0 41 6 60 13 44 17 20 17 -40
-1z"/>
<path d="M2207 5166 c-15 -13 -27 -28 -27 -33 0 -5 -9 -29 -21 -52 -11 -24
-18 -53 -15 -64 3 -11 0 -39 -6 -63 -11 -39 -15 -42 -52 -49 -23 -3 -51 -6
-64 -6 -13 1 -33 -4 -45 -11 -12 -6 -29 -12 -38 -13 -15 -1 -63 -35 -123 -86
-17 -15 -64 -55 -104 -89 -75 -64 -94 -99 -22 -41 63 51 54 32 -27 -55 -46
-48 -60 -94 -23 -74 11 6 27 24 35 41 17 33 232 249 247 249 6 0 23 11 40 25
16 14 40 25 53 25 12 0 39 7 60 16 21 8 56 14 79 12 38 -3 41 -1 39 22 -5 58
-8 75 -17 82 -13 9 21 105 50 144 30 39 18 52 -19 20z"/>
<path d="M2327 5183 c-11 -10 -8 -53 3 -53 6 0 10 6 10 14 0 8 3 21 6 30 6 16
-7 22 -19 9z"/>
<path d="M6323 5173 c9 -2 23 -2 30 0 6 3 -1 5 -18 5 -16 0 -22 -2 -12 -5z"/>
<path d="M6388 5173 c6 -2 18 -2 25 0 6 3 1 5 -13 5 -14 0 -19 -2 -12 -5z"/>
<path d="M2606 5162 c-8 -13 5 -53 15 -46 12 7 12 41 0 49 -5 3 -12 2 -15 -3z"/>
<path d="M3415 5160 c3 -5 11 -10 16 -10 6 0 7 5 4 10 -3 6 -11 10 -16 10 -6
0 -7 -4 -4 -10z"/>
<path d="M7220 5159 c-11 -7 -1 -8 35 -3 28 4 52 8 54 10 10 9 -76 3 -89 -7z"/>
<path d="M3340 5110 c0 -22 4 -40 9 -40 14 0 23 37 16 60 -11 34 -25 22 -25
-20z"/>
<path d="M6595 5093 c-44 -53 -97 -134 -92 -139 3 -3 19 18 35 45 17 28 48 68
68 91 20 22 32 40 28 40 -5 0 -22 -17 -39 -37z"/>
<path d="M7275 5120 l-70 -6 65 -2 c36 0 74 3 85 8 22 9 22 9 -80 0z"/>
<path d="M6695 5100 c-3 -5 -1 -10 4 -10 6 0 11 5 11 10 0 6 -2 10 -4 10 -3 0
-8 -4 -11 -10z"/>
<path d="M2467 5094 c-14 -14 -7 -62 13 -85 l20 -24 -7 35 c-11 61 -18 81 -26
74z"/>
<path d="M7365 5090 l-40 -7 35 -1 c19 -1 42 3 50 8 16 11 14 11 -45 0z"/>
<path d="M2326 5075 c-5 -13 -9 -13 -25 -3 -11 7 -23 9 -27 5 -10 -10 16 -37
37 -37 20 0 44 35 30 44 -5 3 -12 -1 -15 -9z"/>
<path d="M6669 5063 c-23 -29 -51 -84 -46 -90 3 -3 13 10 23 29 9 18 24 43 32
56 17 26 11 29 -9 5z"/>
<path d="M6976 5036 c6 -56 13 -76 24 -76 8 0 -7 72 -21 105 -6 13 -7 3 -3
-29z"/>
<path d="M7246 5072 c-2 -4 11 -6 30 -4 19 2 34 6 34 8 0 8 -59 4 -64 -4z"/>
<path d="M6746 4984 c-10 -31 -15 -58 -12 -61 2 -3 10 15 17 39 7 23 16 47 21
53 10 12 10 25 0 25 -5 0 -16 -25 -26 -56z"/>
<path d="M6882 4995 c2 -63 18 -68 18 -6 0 28 -5 51 -10 51 -6 0 -9 -20 -8
-45z"/>
<path d="M2592 5018 c-17 -17 -15 -42 6 -67 17 -22 17 -21 18 29 0 52 -4 58
-24 38z"/>
<path d="M2820 5016 c0 -9 5 -16 10 -16 6 0 10 4 10 9 0 6 -4 13 -10 16 -5 3
-10 -1 -10 -9z"/>
<path d="M3251 5014 c0 -11 3 -14 6 -6 3 7 2 16 -1 19 -3 4 -6 -2 -5 -13z"/>
<path d="M3125 4983 c3 -21 14 -45 22 -53 14 -13 15 -13 9 5 -4 11 -10 35 -13
53 -3 17 -10 32 -15 32 -6 0 -7 -15 -3 -37z"/>
<path d="M2710 4983 c0 -28 15 -62 23 -53 2 3 2 22 -1 43 -5 43 -22 50 -22 10z"/>
<path d="M3321 4974 c-9 -20 -9 -25 0 -22 14 5 32 48 20 48 -4 0 -13 -12 -20
-26z"/>
<path d="M2320 4934 c0 -11 11 -31 25 -44 21 -19 25 -21 25 -7 0 9 -3 17 -8
17 -4 0 -15 12 -24 28 -16 24 -17 25 -18 6z"/>
<path d="M2234 4908 c-4 -6 -3 -8 4 -4 5 3 12 1 14 -6 3 -8 6 -9 11 -1 4 6 0
13 -8 17 -8 3 -17 0 -21 -6z"/>
<path d="M4030 4873 c-7 -21 -20 -54 -30 -73 -53 -107 -140 -291 -155 -330
-10 -25 -21 -54 -26 -65 -4 -11 -11 -31 -15 -45 -3 -14 -18 -50 -31 -80 -14
-30 -33 -73 -43 -95 -10 -22 -25 -56 -33 -76 -8 -20 -45 -68 -82 -107 -37 -39
-76 -84 -85 -100 -24 -38 -50 -71 -75 -93 -63 -56 -117 -99 -125 -99 -5 0 -32
-19 -59 -42 -27 -24 -71 -56 -98 -72 -97 -60 -199 -127 -232 -153 -19 -16 -48
-37 -66 -48 -90 -57 -135 -89 -135 -97 0 -10 33 6 70 34 14 10 129 87 255 171
127 83 239 160 250 170 11 10 53 43 92 74 41 31 106 97 150 152 43 53 89 108
103 122 21 22 110 185 110 203 0 3 11 29 24 58 13 29 38 91 56 138 18 47 56
135 85 195 30 61 59 125 65 142 15 41 30 34 21 -10 -8 -31 -53 -145 -71 -177
-11 -19 -40 -79 -72 -150 -14 -30 -42 -104 -63 -165 -40 -118 -52 -149 -91
-234 -14 -29 -23 -55 -21 -58 9 -8 223 110 299 165 80 57 109 94 142 185 10
26 22 47 28 47 13 0 2 -31 -38 -112 -37 -73 -43 -98 -21 -79 8 6 16 8 20 5 3
-3 31 14 63 38 42 31 53 44 40 46 -10 2 -36 -11 -58 -28 -21 -18 -41 -30 -44
-28 -2 3 9 36 25 74 16 38 37 96 46 129 10 33 20 66 22 73 3 6 -2 12 -10 12
-15 0 -96 -152 -98 -182 0 -7 -12 -37 -27 -67 -21 -43 -39 -62 -83 -90 -31
-20 -76 -49 -100 -65 -74 -50 -179 -105 -179 -94 0 5 6 22 14 36 31 60 96 214
96 229 0 18 58 166 105 268 67 143 85 186 85 196 0 5 10 42 22 83 20 70 20
106 -1 106 -5 0 -15 -17 -21 -37z"/>
<path d="M2428 4878 c-7 -19 2 -38 18 -38 17 0 17 10 0 33 -10 13 -15 14 -18
5z"/>
<path d="M2600 4833 c0 -5 4 -15 10 -23 11 -18 25 -7 17 15 -6 15 -27 21 -27
8z"/>
<path d="M2740 4810 c0 -5 5 -10 11 -10 5 0 7 5 4 10 -3 6 -8 10 -11 10 -2 0
-4 -4 -4 -10z"/>
<path d="M2390 4790 c-8 -5 -12 -12 -9 -15 4 -3 12 1 19 10 14 17 11 19 -10 5z"/>
<path d="M2443 4783 c-24 -9 -13 -22 25 -29 51 -9 95 -44 140 -112 68 -103 82
-138 82 -203 0 -44 3 -59 13 -56 8 3 12 25 11 68 -2 49 -8 75 -28 109 -14 25
-33 61 -42 80 -38 84 -150 163 -201 143z"/>
<path d="M6472 4783 c-13 -5 -42 -55 -42 -73 0 -17 18 -11 24 8 6 17 57 42 85
42 7 0 32 -13 56 -29 55 -37 80 -45 102 -32 16 9 15 10 -8 11 -14 0 -41 11
-60 25 -65 48 -118 64 -157 48z"/>
<path d="M2112 4724 c-18 -8 -30 -19 -27 -24 7 -12 35 1 55 24 15 19 15 19
-28 0z"/>
<path d="M6955 4715 c-33 -13 -53 -24 -44 -24 9 -1 33 6 52 14 20 8 49 15 65
15 34 0 82 -40 82 -69 0 -25 16 -36 24 -15 32 84 -62 127 -179 79z"/>
<path d="M2685 4710 c-3 -5 1 -10 10 -10 9 0 13 5 10 10 -3 6 -8 10 -10 10 -2
0 -7 -4 -10 -10z"/>
<path d="M2014 4696 c-10 -8 -16 -17 -13 -21 8 -7 59 15 59 27 0 13 -24 10
-46 -6z"/>
<path d="M1943 4673 c-7 -2 -13 -9 -13 -14 0 -14 24 -11 46 6 19 14 19 14 -1
14 -11 0 -26 -3 -32 -6z"/>
<path d="M2310 4640 c0 -5 5 -10 10 -10 6 0 10 5 10 10 0 6 -4 10 -10 10 -5 0
-10 -4 -10 -10z"/>
<path d="M3223 4630 c-3 -13 -14 -20 -29 -20 -26 0 -30 -10 -12 -28 20 -20 45
-14 52 12 3 13 9 31 12 40 4 9 1 16 -6 16 -6 0 -14 -9 -17 -20z"/>
<path d="M7454 4629 c-39 -11 -54 -38 -18 -31 24 4 24 4 9 -32 -8 -20 -13 -36
-10 -36 3 0 -2 -14 -11 -31 -8 -17 -12 -29 -7 -26 5 3 19 27 32 54 13 26 32
60 43 75 29 41 23 45 -38 27z"/>
<path d="M7530 4604 c-23 -17 -28 -24 -14 -20 21 6 22 4 19 -43 -2 -28 -9 -59
-14 -70 -15 -27 -14 -33 6 -29 9 2 17 14 19 28 1 14 4 34 8 45 10 35 26 100
26 108 0 12 -14 7 -50 -19z"/>
<path d="M8115 4600 c-17 -32 -43 -50 -74 -50 -25 0 -29 -41 -6 -60 20 -17 19
-49 -2 -73 -12 -12 -18 -37 -19 -71 -1 -64 -20 -113 -45 -121 -16 -5 -18 -10
-8 -21 6 -8 22 -14 35 -14 27 0 49 -35 58 -93 5 -33 22 -77 29 -77 1 0 0 28
-3 63 -7 70 -30 123 -59 132 -19 6 -19 6 1 41 16 28 19 45 15 85 -5 41 -3 52
14 68 22 21 27 50 15 93 -7 23 -4 29 26 44 18 9 37 23 41 30 6 10 13 11 27 4
25 -14 87 -13 96 1 5 9 -1 10 -21 5 -33 -8 -85 10 -85 30 0 24 -19 15 -35 -16z"/>
<path d="M1745 4600 c-3 -5 -2 -10 4 -10 5 0 13 5 16 10 3 6 2 10 -4 10 -5 0
-13 -4 -16 -10z"/>
<path d="M2768 4591 c-16 -25 -28 -27 -28 -4 0 12 -3 14 -10 7 -15 -15 -1 -44
19 -44 10 0 24 11 31 25 17 31 6 45 -12 16z"/>
<path d="M7588 4571 c-13 -24 -13 -29 -2 -24 17 6 17 2 5 -31 -7 -17 -6 -27 3
-35 10 -8 16 1 26 43 18 75 0 102 -32 47z"/>
<path d="M1805 4570 c-11 -13 -14 -20 -6 -20 18 0 51 19 51 30 0 17 -26 11
-45 -10z"/>
<path d="M2850 4581 c0 -18 26 -31 38 -19 19 19 14 28 -13 28 -14 0 -25 -4
-25 -9z"/>
<path d="M7355 4546 c-17 -14 -55 -44 -85 -68 -62 -49 -91 -99 -98 -168 -4
-41 -1 -51 26 -82 l31 -34 -25 -27 c-32 -35 -30 -43 5 -18 15 11 31 17 35 13
4 -3 11 -1 15 6 6 10 15 10 35 2 24 -9 27 -14 21 -37 -3 -14 -15 -38 -26 -51
-10 -14 -19 -31 -19 -38 0 -26 -19 -14 -23 14 -2 15 -3 9 -2 -13 3 -37 -30
-125 -47 -125 -6 0 -48 129 -48 149 0 6 -4 11 -10 11 -13 0 -15 7 21 -95 31
-89 31 -89 15 -142 -9 -29 -21 -55 -26 -58 -13 -8 -13 -55 0 -55 6 0 10 11 10
24 0 14 4 27 9 31 5 3 15 22 21 43 20 63 142 302 154 302 15 0 56 -29 56 -39
0 -5 -11 -12 -25 -15 -20 -5 -25 -13 -25 -37 0 -17 -4 -28 -10 -24 -5 3 -12
-7 -16 -22 -11 -53 -14 -59 -23 -44 -12 18 -23 -14 -15 -44 3 -12 1 -26 -5
-29 -7 -5 -11 4 -12 21 l-1 28 -7 -30 c-7 -27 -23 -68 -53 -131 -12 -26 -6
-106 8 -111 6 -2 14 4 17 14 40 138 132 352 169 394 21 25 27 27 84 22 56 -5
61 -7 72 -35 6 -16 15 -27 21 -24 6 4 5 17 -2 35 -9 26 -7 31 25 63 35 36 41
54 53 178 2 19 12 69 23 110 17 66 17 78 5 103 -14 29 -27 34 -39 16 -10 -18
-7 -70 7 -95 16 -31 3 -73 -25 -84 -13 -5 -27 -14 -31 -19 -12 -21 -25 -11
-25 19 0 42 -23 48 -64 16 -19 -14 -38 -26 -43 -26 -4 0 -9 21 -10 46 -1 25
-7 52 -14 60 -10 12 -17 11 -46 -12 -19 -14 -36 -24 -38 -23 -1 2 0 25 5 52 6
45 6 47 -14 42 -16 -5 -12 3 16 29 43 41 37 49 -7 12z m-24 -75 c-19 -12 -28
-111 -11 -111 7 0 32 16 55 35 23 19 45 32 47 29 3 -2 3 -31 1 -64 -4 -53 -2
-60 14 -60 10 0 33 14 52 30 51 45 55 42 51 -42 -2 -49 13 -48 47 4 26 38 28
40 31 19 2 -13 0 -26 -6 -30 -5 -3 -9 -25 -8 -48 0 -29 -7 -52 -22 -73 -13
-16 -18 -30 -12 -30 6 0 16 11 22 25 13 28 31 35 21 8 -19 -53 -91 -76 -160
-52 -31 10 -43 37 -43 95 0 13 -5 24 -11 24 -6 0 -9 -6 -6 -13 3 -8 1 -20 -3
-27 -6 -10 -10 -7 -15 11 -3 14 -5 29 -5 35 1 5 -1 20 -6 34 -8 24 -8 24 -16
-10 -5 -19 -9 -40 -10 -47 -1 -7 -6 -10 -11 -6 -5 3 -6 23 -3 45 4 26 3 37 -4
33 -6 -3 -10 3 -10 15 0 12 -4 18 -10 15 -14 -9 -23 40 -17 87 l6 41 -20 -29
c-10 -16 -19 -23 -19 -15 0 17 64 81 82 81 11 0 10 -2 -1 -9z m-67 -136 c-4
-8 -8 -15 -10 -15 -2 0 -4 7 -4 15 0 8 4 15 10 15 5 0 7 -7 4 -15z m10 -46
c-3 -40 -14 -51 -14 -12 0 24 6 43 15 43 1 0 0 -14 -1 -31z m122 -146 c-10
-10 -19 5 -10 18 6 11 8 11 12 0 2 -7 1 -15 -2 -18z m-126 -307 c0 -3 -4 -8
-10 -11 -5 -3 -10 -1 -10 4 0 6 5 11 10 11 6 0 10 -2 10 -4z m-49 -129 c-8 -8
-11 -7 -11 4 0 20 13 34 18 19 3 -7 -1 -17 -7 -23z"/>
<path d="M7456 4203 c-3 -10 -2 -31 3 -48 9 -27 9 -26 9 18 -1 51 -4 57 -12
30z"/>
<path d="M7546 4172 l-19 -27 24 22 c12 12 21 24 18 27 -2 2 -13 -8 -23 -22z"/>
<path d="M7496 4164 c-5 -14 -4 -15 9 -4 17 14 19 20 6 20 -5 0 -12 -7 -15
-16z"/>
<path d="M2160 4550 c0 -5 5 -10 10 -10 6 0 10 5 10 10 0 6 -4 10 -10 10 -5 0
-10 -4 -10 -10z"/>
<path d="M3314 4533 c-10 -15 -13 -16 -28 -4 -21 17 -30 9 -21 -18 9 -28 39
-26 59 4 9 13 16 27 16 30 0 11 -16 4 -26 -12z"/>
<path d="M6835 4541 c-3 -6 -1 -18 4 -28 10 -19 34 -98 37 -123 7 -52 17 -97
30 -132 23 -65 20 -70 -31 -63 -41 7 -45 5 -53 -16 -7 -20 -8 -44 -3 -91 1 -5
6 -8 11 -8 6 0 10 15 10 33 0 18 6 42 14 52 11 16 19 17 47 9 30 -8 36 -17 52
-64 28 -85 49 -171 44 -177 -3 -3 -17 14 -32 37 -15 23 -29 39 -32 36 -3 -2
16 -36 41 -74 25 -39 53 -89 61 -113 18 -49 85 -173 91 -166 2 2 -16 51 -40
108 -41 97 -71 190 -95 299 -5 25 -21 83 -36 130 -15 47 -33 114 -41 150 -21
92 -54 199 -64 205 -5 3 -11 1 -15 -4z"/>
<path d="M6924 4533 c10 -37 35 -149 40 -178 34 -198 109 -454 154 -523 23
-36 23 -21 1 39 -61 157 -112 333 -146 497 -20 100 -41 182 -46 182 -4 0 -6
-8 -3 -17z"/>
<path d="M8287 4534 c-3 -3 -26 -7 -52 -9 -48 -3 -70 -14 -46 -23 20 -7 51
-40 51 -54 0 -9 -3 -9 -12 0 -7 7 -19 12 -27 12 -8 0 -26 10 -39 23 l-25 22 7
-27 c5 -24 3 -28 -15 -28 -31 0 -17 -10 20 -15 46 -6 203 -135 164 -135 -11 0
-77 53 -96 77 -10 13 -23 23 -29 23 -6 0 -3 -9 7 -20 23 -26 13 -38 -12 -13
-20 19 -93 30 -93 14 0 -5 5 -13 10 -16 8 -5 8 -11 0 -20 -9 -11 -6 -16 11
-26 l23 -12 -27 -23 c-37 -31 -34 -44 10 -44 29 0 34 -3 25 -12 -22 -22 -12
-30 13 -10 15 12 34 18 45 15 44 -12 10 -43 -47 -43 -24 0 -43 -4 -43 -10 0
-5 9 -10 19 -10 33 0 32 -17 -2 -34 l-32 -16 38 0 c21 0 47 5 59 11 11 6 22 8
25 5 3 -3 -5 -10 -18 -15 -24 -9 -89 -71 -75 -71 5 0 22 11 38 25 52 44 70 12
27 -48 -11 -15 -17 -32 -14 -37 9 -15 27 0 21 17 -3 8 -2 12 3 9 5 -3 23 10
40 29 17 20 31 33 31 30 0 -3 -13 -37 -29 -74 l-29 -68 24 11 c13 6 24 15 24
20 0 5 8 28 19 50 10 23 26 58 35 78 9 20 24 44 33 53 13 13 14 18 3 25 -8 5
-9 13 -4 21 13 21 12 49 -1 49 -20 0 -38 28 -31 47 5 12 9 14 18 5 21 -21 32
-13 12 9 -10 12 -18 29 -16 39 2 10 -2 21 -7 24 -6 4 -8 13 -5 21 3 7 -4 18
-15 25 -23 12 -71 82 -71 102 1 24 122 -117 146 -169 13 -29 29 -53 35 -53 8
0 8 4 2 13 -6 6 -16 30 -23 52 -7 22 -20 49 -30 60 -23 26 -50 80 -50 99 0 16
-14 29 -23 20z m-118 -196 c63 -20 91 -33 91 -40 0 -11 -18 -10 -25 2 -3 5
-12 6 -21 3 -17 -6 -94 25 -94 39 0 11 7 10 49 -4z m-4 -58 c4 -6 -5 -10 -19
-10 -14 0 -26 5 -26 10 0 6 9 10 19 10 11 0 23 -4 26 -10z m65 -10 c0 -5 -4
-10 -10 -10 -5 0 -10 5 -10 10 0 6 5 10 10 10 6 0 10 -4 10 -10z m54 -39 c5
-8 -35 -31 -54 -31 -15 0 0 29 18 33 28 8 31 7 36 -2z m-4 -36 c0 -5 -55 -35
-65 -35 -3 0 -5 5 -5 10 0 6 9 10 19 10 11 0 23 5 26 10 6 10 25 14 25 5z m50
0 c0 -18 -83 -125 -96 -125 -5 0 -3 5 4 12 7 7 12 19 12 28 0 18 57 90 71 90
5 0 9 -2 9 -5z"/>
<path d="M1738 4492 c-72 -71 -87 -91 -76 -98 11 -7 127 111 128 129 0 15 -16
5 -52 -31z"/>
<path d="M2996 4519 c-15 -51 -17 -52 -28 -41 -18 18 -38 14 -38 -7 0 -18 18
-31 45 -31 19 0 50 69 36 83 -7 7 -12 6 -15 -4z"/>
<path d="M1620 4490 c0 -5 5 -10 10 -10 6 0 10 5 10 10 0 6 -4 10 -10 10 -5 0
-10 -4 -10 -10z"/>
<path d="M8735 4435 c4 -39 11 -78 16 -88 11 -20 16 -17 -92 -46 -86 -24 -92
-25 -84 -11 3 6 14 10 24 10 10 0 28 12 42 26 l24 26 -50 -27 c-27 -15 -56
-32 -62 -38 -20 -15 -15 -30 7 -24 15 4 19 1 17 -14 -2 -10 -6 -22 -10 -25 -4
-4 -4 -19 0 -33 6 -25 5 -25 -14 -8 -50 44 -52 -8 -4 -103 26 -51 28 -59 14
-64 -18 -7 -30 6 -39 42 -5 16 -11 21 -23 17 -30 -12 -36 -10 -39 13 -2 12 -7
22 -12 22 -5 0 -7 -14 -3 -31 3 -19 1 -34 -5 -38 -7 -4 -16 -51 -22 -105 -5
-54 -12 -116 -15 -139 -5 -38 -4 -39 6 -17 6 14 15 49 20 79 14 93 31 87 25
-9 -4 -65 -3 -75 4 -45 5 22 9 87 9 144 1 100 8 123 19 64 3 -15 6 -77 8 -138
1 -60 6 -130 11 -155 l9 -45 5 63 c2 37 0 62 -6 62 -6 0 -5 3 1 8 6 4 14 14
17 22 5 15 12 -56 10 -117 0 -18 3 -33 7 -33 4 0 11 -19 15 -42 l8 -43 7 39
c4 21 4 50 -1 65 -11 36 -26 202 -17 193 4 -4 15 -38 25 -75 14 -54 15 -71 5
-87 -10 -16 -8 -29 12 -75 14 -30 30 -55 35 -55 6 0 11 -9 11 -20 0 -11 4 -20
10 -20 6 0 7 19 3 48 -7 55 -13 67 -13 27 0 -52 -10 -19 -25 81 -8 55 -17 113
-20 129 -3 17 6 -1 20 -39 14 -39 25 -85 25 -103 0 -18 4 -33 9 -33 5 0 21
-25 35 -56 27 -56 53 -91 62 -82 2 3 0 17 -6 32 -13 34 -13 49 0 41 6 -3 10 0
10 7 -1 17 -38 99 -54 118 -15 17 -49 148 -36 134 5 -5 31 -58 59 -119 27 -60
61 -132 75 -159 15 -27 26 -55 26 -63 0 -7 5 -13 10 -13 13 0 12 15 -4 78 -8
28 -10 50 -5 46 13 -8 11 2 -7 39 -12 27 -7 23 34 -22 30 -32 51 -48 54 -40 2
7 10 9 16 5 15 -9 16 -132 2 -141 -15 -9 -12 -25 5 -25 15 0 21 -21 9 -33 -9
-8 -61 19 -67 35 -4 11 -6 11 -6 0 -1 -7 -12 -17 -26 -22 -14 -5 -25 -14 -25
-19 0 -6 7 -8 16 -4 8 3 32 -2 53 -12 74 -33 79 -26 84 119 l3 80 34 14 c19 8
38 19 42 25 9 15 -1 66 -19 98 -14 23 -13 29 5 65 12 24 25 78 31 130 9 84 9
90 -11 107 -11 9 -31 17 -43 17 -30 0 -34 20 -18 95 23 111 12 132 -52 102
-40 -19 -39 -19 -50 75 -3 32 -14 67 -24 79 l-17 21 -34 -20 c-18 -12 -37 -19
-41 -16 -4 2 -11 24 -15 49 -3 24 -13 50 -22 57 -13 11 -14 5 -7 -57z m121
-82 c18 -163 25 -174 80 -141 40 24 41 22 23 -79 -13 -72 -28 -80 -77 -38 -32
27 -52 34 -33 11 6 -7 -13 -2 -41 12 -57 27 -52 40 8 23 35 -10 64 -7 33 3 -8
3 -63 21 -124 41 -143 46 -156 55 -84 55 31 0 71 3 89 7 24 4 31 3 26 -5 -4
-7 -1 -12 7 -12 8 0 20 -7 27 -16 8 -8 23 -20 34 -26 20 -11 20 -10 4 9 -10
11 -18 22 -18 26 0 3 8 4 18 1 14 -5 14 -3 -2 10 -11 9 -27 16 -35 16 -14 0
-14 2 -1 11 11 7 -4 8 -49 4 -75 -8 -80 7 -14 40 22 11 55 35 74 53 34 33 51
31 55 -5z m-197 -169 c28 -8 55 -22 58 -30 3 -9 29 -28 57 -44 29 -16 70 -45
91 -65 22 -19 43 -35 47 -35 4 0 14 -7 22 -16 9 -8 16 -12 16 -7 0 4 -18 26
-40 47 -22 22 -38 41 -36 43 8 8 57 -21 71 -43 10 -16 26 -24 52 -26 l38 -3
-2 -82 c-2 -58 -9 -98 -23 -132 -20 -46 -21 -51 -6 -79 23 -45 20 -58 -18 -80
-31 -18 -36 -19 -55 -6 -13 10 -21 11 -21 4 0 -6 -5 -8 -11 -4 -8 4 -7 9 2 15
11 6 9 13 -7 31 -33 36 -154 229 -154 245 0 8 34 -28 105 -112 67 -78 110
-120 140 -137 11 -6 2 8 -19 30 -37 39 -60 100 -33 89 7 -3 20 -8 30 -12 26
-11 20 10 -8 25 -13 7 -36 31 -51 54 -15 23 -33 45 -41 49 -7 4 -13 12 -13 18
0 5 24 -5 53 -24 73 -47 77 -49 77 -43 0 2 -28 25 -62 49 -35 25 -83 67 -108
94 -42 45 -62 62 -183 163 -53 44 -48 48 32 24z m-108 -26 c7 -13 32 -45 56
-73 24 -27 39 -51 34 -53 -13 -4 -5 -25 41 -104 22 -37 40 -73 42 -80 1 -7 16
-42 33 -78 35 -73 53 -132 35 -115 -6 6 -36 69 -67 140 -70 161 -129 273 -161
303 -13 13 -22 28 -18 33 3 6 -2 19 -12 30 -9 10 -12 19 -6 19 6 0 17 -10 23
-22z m184 -123 c63 -61 91 -94 77 -90 -13 4 -40 25 -59 46 -27 30 -39 37 -47
28 -8 -8 -8 -13 2 -16 13 -5 17 -23 4 -23 -4 0 -16 15 -26 33 -11 17 -39 55
-63 84 -23 28 -43 56 -43 63 0 17 44 -18 155 -125z m-275 -57 c0 -9 -4 -20
-10 -23 -6 -4 -10 9 -10 32 0 28 3 34 10 23 5 -8 10 -23 10 -32z m68 -73 c0
-22 -3 -49 -8 -60 -6 -13 -8 11 -8 70 0 62 3 81 8 60 4 -16 8 -48 8 -70z m70
-5 c0 -8 -6 1 -13 20 -7 19 -13 42 -13 50 0 8 6 -1 13 -20 7 -19 13 -42 13
-50z m32 13 c11 -38 23 -76 26 -87 4 -11 2 -16 -4 -13 -5 4 -17 35 -26 69 -10
35 -20 71 -22 81 -3 9 -3 17 0 17 3 0 15 -30 26 -67z m270 -129 c0 -7 -2 -14
-4 -14 -4 0 -102 121 -125 155 -7 11 19 -13 58 -53 39 -40 71 -80 71 -88z
m-25 95 c11 -17 -1 -21 -15 -4 -8 9 -8 15 -2 15 6 0 14 -5 17 -11z m-180 -207
c-3 -3 -8 9 -11 26 -4 18 -10 32 -15 32 -5 0 -9 15 -8 33 1 28 3 25 20 -27 11
-33 17 -61 14 -64z m113 78 c-2 -7 -10 1 -17 16 -12 27 -11 28 4 12 10 -9 16
-21 13 -28z m-95 -110 c3 -11 1 -18 -4 -14 -5 3 -9 12 -9 20 0 20 7 17 13 -6z
m27 -15 c0 -5 -5 -3 -10 5 -5 8 -10 20 -10 25 0 6 5 3 10 -5 5 -8 10 -19 10
-25z"/>
<path d="M8880 4182 c0 -13 37 -45 48 -41 5 2 -4 14 -20 27 -15 13 -28 19 -28
14z"/>
<path d="M8827 4024 c26 -20 63 -50 81 -67 17 -17 32 -26 32 -20 0 16 -128
123 -146 123 -9 0 6 -16 33 -36z"/>
<path d="M2050 4456 c0 -14 5 -28 10 -31 6 -4 10 7 10 24 0 17 -4 31 -10 31
-5 0 -10 -11 -10 -24z"/>
<path d="M3146 4453 c-3 -3 -6 -21 -6 -38 0 -41 21 -61 48 -46 20 11 36 40 27
49 -3 3 -5 0 -5 -6 0 -7 -9 -12 -20 -12 -15 0 -20 7 -20 24 0 26 -12 40 -24
29z"/>
<path d="M1503 4425 c-7 -8 -13 -17 -13 -21 0 -4 -8 -17 -19 -28 -21 -24 -36
-109 -18 -103 6 2 30 40 53 85 35 67 40 82 26 82 -9 -1 -23 -7 -29 -15z"/>
<path d="M1550 4399 c0 -5 5 -7 10 -4 6 3 10 8 10 11 0 2 -4 4 -10 4 -5 0 -10
-5 -10 -11z"/>
<path d="M1930 4400 c0 -5 4 -10 9 -10 6 0 13 5 16 10 3 6 -1 10 -9 10 -9 0
-16 -4 -16 -10z"/>
<path d="M2818 4391 c-13 -47 21 -57 48 -16 19 29 9 49 -10 22 -17 -22 -24
-22 -28 1 -3 13 -5 12 -10 -7z"/>
<path d="M8639 4393 c-13 -16 -12 -17 4 -4 16 13 21 21 13 21 -2 0 -10 -8 -17
-17z"/>
<path d="M3353 4383 c-7 -2 -13 -12 -13 -20 0 -10 6 -13 16 -9 13 5 15 2 9
-11 -11 -26 -18 -73 -11 -73 9 0 36 70 36 96 0 23 -11 28 -37 17z"/>
<path d="M2329 4368 c-8 -7 -22 -22 -29 -32 -12 -16 -9 -15 18 4 17 13 32 27
32 32 0 11 -4 10 -21 -4z"/>
<path d="M2443 4365 c-9 -25 2 -27 22 -5 17 18 17 20 1 20 -9 0 -19 -7 -23
-15z"/>
<path d="M1860 4355 c-8 -9 -8 -15 -2 -15 12 0 26 19 19 26 -2 2 -10 -2 -17
-11z"/>
<path d="M2245 4330 c-10 -11 -16 -22 -13 -25 3 -3 13 4 23 15 10 11 16 22 13
25 -3 3 -13 -4 -23 -15z"/>
<path d="M2535 4339 c-11 -17 1 -21 15 -4 8 9 8 15 2 15 -6 0 -14 -5 -17 -11z"/>
<path d="M2097 4278 c-32 -33 -57 -62 -54 -64 5 -5 127 107 127 118 0 17 -16
5 -73 -54z"/>
<path d="M2695 4328 c-2 -7 -6 -40 -9 -74 -4 -59 -19 -95 -86 -206 -12 -21
-19 -38 -15 -38 11 0 -48 -104 -79 -137 -37 -41 -29 -53 12 -18 38 32 92 124
92 156 0 14 17 45 39 71 52 64 76 142 72 236 -1 23 -19 30 -26 10z"/>
<path d="M3282 4322 c-9 -13 -14 -14 -18 -4 -9 19 -24 14 -24 -7 0 -32 20 -35
47 -8 14 13 21 27 16 30 -5 3 -14 -2 -21 -11z"/>
<path d="M1860 4314 c0 -9 5 -14 12 -12 18 6 21 28 4 28 -9 0 -16 -7 -16 -16z"/>
<path d="M1601 4306 c-17 -9 -20 -15 -11 -21 7 -4 21 1 33 14 24 24 14 27 -22
7z"/>
<path d="M2430 4286 c-61 -45 -90 -54 -90 -27 0 12 -5 21 -11 21 -6 0 -9 -12
-7 -27 3 -25 6 -28 37 -25 38 4 94 38 117 71 21 30 6 26 -46 -13z"/>
<path d="M2185 4246 c-21 -43 -12 -60 27 -52 33 7 88 42 88 57 0 6 -15 -1 -33
-15 -52 -40 -91 -31 -67 15 7 11 9 23 7 26 -3 2 -13 -11 -22 -31z"/>
<path d="M2949 4245 c-15 -39 -29 -46 -29 -14 0 18 -2 20 -15 9 -22 -18 -15
-54 11 -58 23 -3 46 25 58 71 9 39 -10 33 -25 -8z"/>
<path d="M3109 4265 c-4 -5 -10 -29 -14 -51 -7 -45 3 -59 33 -50 20 7 46 45
37 54 -4 4 -11 -1 -16 -11 -16 -29 -28 -19 -31 26 -2 23 -6 38 -9 32z"/>
<path d="M1380 4213 c-17 -26 -30 -57 -30 -70 0 -13 -5 -23 -11 -23 -6 0 -9
-14 -7 -32 5 -57 28 -37 58 51 16 46 34 89 40 95 15 15 12 26 -5 26 -9 0 -29
-21 -45 -47z"/>
<path d="M1957 4232 c-26 -27 -36 -49 -17 -37 10 6 53 65 48 65 -3 0 -16 -13
-31 -28z"/>
<path d="M1725 4240 c-7 -12 2 -30 16 -30 12 0 12 27 0 35 -5 3 -12 1 -16 -5z"/>
<path d="M3339 4243 c-1 -5 -3 -23 -5 -41 -1 -18 -16 -57 -33 -87 -17 -30 -28
-61 -25 -69 10 -27 -17 -85 -56 -118 -21 -18 -48 -56 -61 -83 -13 -28 -37 -62
-53 -77 -29 -28 -22 -37 14 -18 24 13 80 96 80 119 0 10 16 31 35 45 43 33 65
74 65 121 0 21 8 49 19 63 26 39 54 119 48 137 -7 15 -26 21 -28 8z"/>
<path d="M7084 4215 c-9 -14 -25 -25 -35 -25 -18 0 -18 -1 2 -21 11 -11 22
-19 23 -17 1 2 8 18 15 36 16 39 21 39 50 6 30 -35 39 -23 11 15 -26 38 -44
39 -66 6z"/>
<path d="M1505 4212 c-12 -9 -29 -33 -39 -52 -11 -19 -23 -42 -27 -50 -14 -24
-28 -59 -35 -86 -6 -22 -4 -25 12 -22 13 2 21 15 24 39 4 23 20 49 48 77 39
39 52 62 35 62 -3 0 -15 -7 -25 -17 -20 -18 -25 -12 -5 9 36 39 49 58 41 58
-5 -1 -18 -8 -29 -18z"/>
<path d="M2114 4199 c-10 -12 -31 -27 -45 -35 -24 -12 -30 -11 -52 6 -17 14
-28 17 -32 10 -8 -14 23 -50 42 -50 22 0 86 40 106 66 22 30 7 32 -19 3z"/>
<path d="M1817 4192 c-10 -10 -17 -24 -17 -32 0 -7 10 -1 21 14 24 31 21 45
-4 18z"/>
<path d="M2740 4181 c0 -11 5 -23 10 -26 15 -9 47 4 54 22 9 22 0 28 -18 14
-10 -8 -16 -9 -21 -1 -10 17 -25 11 -25 -9z"/>
<path d="M8400 4175 c9 -11 9 -28 -4 -78 -9 -35 -16 -74 -17 -88 0 -13 -9 -44
-19 -69 l-19 -45 5 70 c3 39 11 86 17 105 6 19 12 42 13 50 1 8 5 24 10 34 5
14 4 17 -4 12 -7 -4 -12 -12 -12 -18 0 -6 -20 -55 -45 -109 -35 -77 -42 -104
-35 -122 5 -12 9 -17 9 -11 1 5 7 19 15 29 12 16 13 13 14 -36 1 -30 -2 -59
-6 -65 -4 -7 -25 -11 -46 -10 -33 1 -42 -3 -52 -24 -24 -48 -45 -133 -45 -184
0 -28 -3 -64 -6 -81 -5 -27 -7 -28 -14 -10 -7 18 -8 17 -8 -6 -1 -14 3 -29 8
-35 5 -5 7 -31 4 -57 -6 -55 -29 -76 -91 -87 -35 -6 -82 5 -82 20 0 3 -9 16
-20 28 l-21 22 -56 -30 c-68 -37 -88 -37 -109 -4 -21 32 -65 55 -91 48 -17 -5
-20 -1 -20 20 0 23 4 25 56 31 154 17 124 34 -44 25 -66 -4 -122 -5 -124 -3
-14 11 25 23 104 31 l90 9 -80 3 -80 3 80 12 80 13 -112 -5 c-83 -4 -113 -3
-113 6 0 15 42 31 83 32 18 0 41 5 52 10 20 9 -44 4 -108 -7 -48 -10 -78 -110
-36 -121 10 -3 19 -14 22 -25 5 -17 13 -19 56 -17 58 3 67 -2 52 -29 -9 -17
-8 -22 9 -27 10 -3 28 -1 39 4 31 17 38 14 71 -33 l30 -45 75 32 c75 31 75 31
90 10 8 -11 27 -26 43 -32 28 -12 51 -7 125 24 24 10 23 -4 -13 -175 -17 -80
-37 -197 -46 -260 -8 -63 -23 -155 -34 -205 -11 -49 -23 -100 -25 -113 -5 -19
-9 -21 -25 -12 -27 15 -32 12 -20 -9 13 -26 13 -31 -3 -31 -7 0 -44 44 -82 98
-37 53 -85 120 -104 147 -51 70 -76 108 -84 125 -7 14 -30 49 -151 231 -27 41
-73 99 -103 130 -30 30 -68 75 -84 100 -21 31 -28 36 -24 19 8 -28 47 -85 80
-115 36 -34 105 -131 105 -148 0 -10 4 -17 8 -17 10 0 61 -69 88 -120 18 -32
118 -184 189 -284 63 -90 137 -175 156 -181 11 -4 26 -1 34 5 12 10 15 10 15
-2 0 -8 -12 -19 -27 -25 l-28 -11 30 -2 c17 -1 44 -10 60 -20 64 -41 87 -51
102 -46 43 17 61 -63 19 -82 -31 -14 -61 6 -69 47 -5 22 -11 29 -22 25 -9 -4
-15 0 -15 9 0 10 -7 13 -20 10 -15 -4 -20 0 -20 13 -1 18 -1 18 -11 2 -14 -25
-29 -22 -29 5 -1 20 -2 20 -16 -6 -18 -33 -40 -31 -37 4 3 22 2 22 -6 4 -5
-11 -12 -28 -15 -37 -3 -10 -12 -18 -20 -18 -10 0 -13 6 -9 18 4 9 -5 4 -19
-13 -23 -26 -28 -28 -52 -17 -30 13 -32 24 -11 46 11 10 12 17 4 22 -8 4 -7 9
2 15 10 6 6 9 -14 9 -30 0 -43 20 -32 48 6 14 9 12 21 -13 12 -26 13 -27 14
-7 0 23 20 32 20 9 0 -21 47 -60 64 -54 13 5 14 10 2 39 -8 18 -23 34 -33 36
-19 3 -58 57 -146 202 -25 41 -58 91 -72 110 -15 19 -80 112 -146 205 -114
162 -276 375 -285 375 -17 0 10 -46 104 -173 59 -80 120 -166 135 -189 26 -40
71 -100 162 -220 71 -94 184 -283 171 -286 -14 -3 -36 -44 -36 -67 0 -8 8 -20
18 -27 21 -16 26 -36 12 -53 -12 -14 11 -39 47 -49 24 -8 96 10 128 31 32 21
88 16 113 -10 12 -13 22 -29 22 -35 0 -7 9 -12 19 -12 11 0 23 -4 26 -10 12
-19 56 -10 80 16 14 15 25 31 25 37 0 5 -16 24 -35 43 -24 22 -35 42 -35 60 0
22 3 25 12 16 22 -22 31 -12 13 14 -13 20 -15 37 -10 73 11 79 16 91 37 91 26
0 75 26 86 46 8 14 17 11 68 -27 32 -24 66 -51 74 -60 8 -10 28 -25 44 -35
l29 -19 -17 28 c-10 15 -22 27 -26 27 -5 0 -11 8 -14 18 -3 9 -16 24 -29 32
-13 8 -40 26 -60 38 -42 27 -48 56 -18 93 28 36 73 130 66 137 -4 4 -12 0 -18
-9 -7 -9 -19 -14 -27 -12 -13 4 -13 3 0 -6 13 -9 13 -13 1 -33 -8 -13 -32 -58
-54 -101 -40 -78 -67 -103 -106 -95 -18 4 -18 8 -2 123 14 104 16 116 35 275
24 190 21 180 60 180 33 0 34 -1 50 -66 9 -37 24 -80 32 -95 13 -26 20 -29 64
-29 27 0 52 5 55 10 3 6 13 10 21 10 10 0 14 -13 14 -49 0 -32 6 -55 16 -65
16 -16 22 -18 84 -20 l35 -1 -3 -80 c-2 -65 1 -87 18 -120 17 -34 18 -40 5
-47 -18 -11 -10 -94 12 -120 8 -9 13 -27 11 -39 -2 -18 -12 -25 -43 -31 -61
-13 -75 -36 -75 -130 l0 -81 -37 6 c-20 4 -40 12 -44 18 -9 16 -37 -27 -45
-71 -9 -41 11 -34 21 8 5 26 8 27 63 27 l57 0 5 85 c6 93 -2 84 95 127 46 21
55 43 26 72 -11 11 -23 37 -27 57 -6 32 -3 39 17 55 l24 18 -24 25 c-21 22
-25 39 -29 106 -3 64 -1 85 13 106 9 14 14 29 10 32 -4 4 -35 6 -69 4 -80 -3
-91 8 -82 82 5 49 4 54 -16 59 -11 3 -34 -1 -50 -9 -16 -8 -44 -14 -61 -12
-39 4 -52 28 -70 125 l-13 68 -42 -3 c-51 -3 -50 -15 -18 203 13 89 20 171 16
185 l-7 25 -6 -25 c-13 -56 -28 -152 -42 -265 -21 -164 -22 -176 -34 -242 -6
-32 -17 -119 -25 -193 -8 -74 -24 -202 -36 -285 -12 -82 -24 -171 -27 -198 -3
-26 -9 -50 -13 -52 -13 -8 -40 6 -40 20 0 8 -10 15 -22 17 -21 3 -23 7 -20 58
2 30 12 93 23 140 11 47 24 114 30 150 5 36 19 117 30 180 52 288 68 392 74
479 4 52 8 108 10 125 1 17 7 61 14 99 11 58 16 67 35 67 38 0 84 -52 91 -103
7 -47 28 -87 40 -75 4 3 2 15 -4 26 -6 12 -11 38 -11 59 -1 21 -7 49 -15 63
-19 34 -18 66 6 120 l19 45 -3 -42 c-2 -29 1 -39 8 -32 5 5 17 76 26 157 16
143 14 172 -13 172 -6 0 -5 -6 2 -15z m-847 -642 c-7 -2 -21 -2 -30 0 -10 3
-4 5 12 5 17 0 24 -2 18 -5z m97 -58 c0 -11 -12 -15 -52 -15 -72 0 -45 22 35
29 9 0 17 -6 17 -14z"/>
<path d="M2261 4139 c-24 -21 -42 -41 -40 -43 2 -2 27 16 54 40 28 24 46 43
40 43 -5 0 -30 -18 -54 -40z"/>
<path d="M1834 4119 c-21 -42 -7 -52 41 -30 51 24 82 47 73 56 -4 4 -22 -5
-41 -19 -44 -34 -61 -34 -53 -1 9 34 0 31 -20 -6z"/>
<path d="M4044 4124 c-18 -14 -18 -14 6 -3 31 14 36 19 24 19 -6 0 -19 -7 -30
-16z"/>
<path d="M2373 4098 c-16 -18 -46 -48 -67 -66 -21 -18 -36 -36 -33 -39 7 -6
115 94 128 119 14 26 6 22 -28 -14z"/>
<path d="M1670 4090 c-12 -17 -20 -40 -18 -53 4 -27 39 -35 58 -12 11 13 10
15 -4 9 -24 -9 -30 19 -11 55 20 40 3 40 -25 1z"/>
<path d="M2972 4112 c-13 -2 -21 -9 -19 -15 5 -15 19 -18 36 -8 20 13 10 27
-17 23z"/>
<path d="M3177 4114 c-4 -4 -7 -20 -7 -35 0 -38 26 -44 57 -13 29 29 23 46 -7
19 -20 -18 -21 -18 -32 23 -2 7 -7 10 -11 6z"/>
<path d="M6705 4100 c-9 -28 1 -52 31 -73 33 -24 40 -17 20 22 -22 41 -20 51
10 51 14 0 23 4 19 10 -3 6 -21 10 -40 10 -25 0 -35 -5 -40 -20z"/>
<path d="M3982 4087 c-171 -112 -221 -143 -247 -155 -16 -7 -78 -63 -137 -124
-139 -144 -143 -165 -19 -107 36 18 77 35 91 39 14 4 34 11 45 15 11 5 1 -9
-23 -30 -24 -21 -41 -43 -38 -50 5 -14 -60 -49 -144 -79 -25 -9 -56 -26 -70
-39 -14 -12 -41 -34 -60 -47 -19 -13 -50 -40 -70 -60 -41 -41 -193 -146 -271
-187 -30 -16 -74 -41 -98 -57 -24 -15 -55 -29 -68 -31 -13 -1 -31 -12 -39 -24
-8 -11 -22 -21 -30 -21 -8 0 -14 -4 -14 -10 0 -5 5 -10 10 -10 17 0 131 59
190 99 30 20 82 52 115 70 33 19 82 51 109 72 27 22 53 39 58 39 12 0 49 28
148 113 73 62 110 85 150 93 9 2 49 21 89 44 79 43 87 46 93 30 2 -5 37 -12
78 -14 83 -4 211 -38 230 -61 7 -8 25 -15 40 -15 24 0 32 -9 59 -60 17 -32 31
-68 31 -80 0 -11 4 -28 9 -38 5 -9 14 -29 20 -44 22 -58 54 -17 41 52 -4 25
-10 70 -12 100 l-3 55 94 48 c100 50 134 76 156 117 7 14 23 36 35 50 19 22
20 25 5 28 -9 2 -36 -9 -59 -26 -22 -16 -74 -46 -114 -67 -66 -34 -77 -37
-125 -31 -82 10 -119 17 -162 31 -22 7 -60 13 -85 14 -25 1 -68 6 -97 12 -47
9 -52 13 -53 37 -1 71 -3 82 -12 82 -15 0 -99 -60 -105 -75 -2 -8 -21 -19 -41
-26 -21 -6 -64 -25 -96 -41 -32 -15 -61 -26 -64 -24 -5 5 115 141 165 187 15
14 54 40 87 58 32 17 77 47 101 66 23 19 47 35 54 35 16 0 91 51 91 61 0 11 2
12 -38 -14z m-162 -276 c16 -31 13 -46 -7 -30 -9 8 -26 12 -37 10 -21 -3 -21
-3 -2 18 24 26 32 26 46 2z m673 -58 c-12 -32 -55 -72 -83 -78 -16 -4 -34 -13
-41 -21 -7 -9 -26 -22 -42 -31 -28 -14 -29 -14 -23 2 5 14 4 16 -7 6 -8 -6
-27 -9 -43 -5 -18 3 -36 0 -49 -10 -16 -12 -17 -15 -4 -16 8 0 20 5 26 11 6 6
16 8 23 4 7 -4 -2 -19 -27 -41 -21 -18 -40 -33 -43 -34 -3 0 -13 14 -22 31
-10 17 -22 27 -28 24 -6 -3 -34 5 -63 19 -50 25 -168 55 -214 56 -12 0 -26 6
-30 13 -5 9 -26 14 -58 13 -55 -1 -73 12 -37 25 15 6 21 5 17 -1 -3 -6 -2 -10
2 -10 5 0 14 9 21 20 13 22 42 27 42 8 0 -8 15 -13 43 -14 73 -1 201 -15 219
-25 20 -11 170 -39 208 -39 14 0 66 25 115 55 99 60 108 63 98 38z m-263 -242
c0 -15 2 -50 5 -77 6 -53 2 -48 -33 43 -21 54 -20 63 10 63 13 0 18 -8 18 -29z"/>
<path d="M3905 3690 c-3 -5 4 -10 17 -9 29 0 146 -41 177 -63 14 -10 29 -14
35 -11 6 4 4 8 -4 11 -8 3 -26 13 -39 23 -13 11 -32 19 -43 19 -10 0 -38 9
-60 20 -46 22 -74 25 -83 10z"/>
<path d="M2217 4045 c-31 -25 -64 -57 -74 -72 -9 -16 -26 -36 -37 -45 -11 -9
-17 -20 -13 -24 9 -9 97 75 97 93 0 7 3 13 8 13 10 1 85 71 80 75 -2 3 -29
-16 -61 -40z"/>
<path d="M7202 4080 c0 -8 4 -26 8 -40 6 -20 8 -21 8 -5 0 11 -3 29 -8 40 -5
12 -8 14 -8 5z"/>
<path d="M2373 4037 c-17 -12 -58 -51 -91 -85 -33 -34 -67 -62 -75 -62 -19 0
-29 38 -16 64 9 18 7 17 -11 -3 -27 -31 -24 -75 5 -79 23 -3 108 56 140 97 11
14 36 40 54 58 41 38 38 43 -6 10z"/>
<path d="M2034 4037 c-6 -7 -32 -31 -58 -54 -26 -24 -43 -43 -39 -43 5 0 31
20 58 45 28 24 53 45 58 45 4 0 7 5 7 10 0 13 -12 12 -26 -3z"/>
<path d="M2860 4030 c0 -6 -11 -8 -25 -4 -19 5 -25 2 -25 -10 0 -25 28 -31 50
-11 22 20 26 35 10 35 -5 0 -10 -5 -10 -10z"/>
<path d="M6873 4029 c6 -19 96 -159 102 -159 5 0 -68 122 -93 155 -8 12 -12
14 -9 4z"/>
<path d="M8135 4030 c-3 -5 -2 -10 4 -10 5 0 13 5 16 10 3 6 2 10 -4 10 -5 0
-13 -4 -16 -10z"/>
<path d="M1773 3967 c-37 -36 -65 -68 -61 -72 3 -4 28 14 54 39 26 25 51 46
55 46 10 0 32 40 26 47 -3 2 -36 -25 -74 -60z"/>
<path d="M7620 4014 c-55 -18 -48 -32 10 -20 55 11 72 2 63 -34 -3 -10 0 -21
6 -24 7 -5 11 8 11 37 0 41 -2 45 -27 49 -16 2 -44 -2 -63 -8z"/>
<path d="M7409 3961 c-49 -51 -63 -74 -105 -182 -26 -68 -51 -126 -55 -129 -3
-3 -9 -15 -13 -28 -5 -15 -3 -24 8 -28 8 -3 18 -14 21 -25 4 -10 11 -19 16
-19 15 0 10 32 -7 51 -15 16 -13 26 26 131 55 145 63 161 111 210 35 37 65 78
57 78 -2 0 -28 -26 -59 -59z"/>
<path d="M1301 3996 c-7 -8 -14 -45 -17 -82 -3 -38 -9 -73 -14 -78 -6 -6 -10
-25 -10 -42 0 -18 -5 -36 -10 -39 -11 -7 5 -45 23 -56 5 -4 -7 -19 -27 -34
-26 -20 -36 -35 -36 -55 0 -46 22 -54 55 -20 27 28 24 45 -3 18 -24 -24 -24 3
0 40 18 26 24 47 21 65 -3 16 1 34 8 44 8 9 15 35 15 57 1 23 7 66 13 96 17
78 17 92 5 97 -6 2 -16 -3 -23 -11z"/>
<path d="M2686 3998 c-12 -26 -3 -62 16 -66 11 -2 23 8 33 27 8 17 11 31 6 31
-5 0 -11 -7 -15 -15 -9 -24 -24 -17 -28 13 -3 21 -6 24 -12 10z"/>
<path d="M6652 3994 c-34 -23 -28 -50 18 -76 26 -15 45 -35 52 -55 7 -18 18
-33 25 -33 15 0 17 13 4 38 -5 9 -12 25 -15 35 -3 9 -21 27 -41 38 -38 23 -47
49 -16 49 11 0 23 5 26 10 10 16 -28 12 -53 -6z"/>
<path d="M7462 3972 c-36 -34 -50 -52 -39 -52 2 0 23 20 47 45 54 55 49 59 -8
7z"/>
<path d="M8114 3979 c14 -17 26 -37 26 -44 0 -20 32 -85 42 -85 4 0 8 4 8 9 0
5 3 17 7 27 4 11 3 15 -5 10 -7 -4 -15 7 -21 31 -14 51 -38 83 -62 83 -20 0
-19 -2 5 -31z"/>
<path d="M2637 3979 c-10 -6 -17 -22 -17 -39 0 -28 -17 -54 -42 -63 -7 -2 -10
-8 -6 -12 4 -4 14 -2 23 5 15 13 68 110 63 116 -2 1 -11 -2 -21 -7z"/>
<path d="M2386 3938 c-9 -12 -16 -27 -16 -32 0 -14 -162 -176 -177 -176 -7 0
-13 -6 -13 -14 0 -8 -7 -22 -16 -31 -9 -9 -15 -18 -13 -20 9 -8 239 226 239
244 0 10 7 21 15 25 8 3 15 10 15 16 0 17 -18 11 -34 -12z"/>
<path d="M7553 3945 c-17 -13 -17 -16 -1 -44 18 -33 19 -33 -50 -70 -58 -31
-74 -22 -23 13 50 35 54 46 6 16 -43 -26 -70 -22 -31 6 64 45 81 65 28 33 -73
-43 -89 -23 -18 23 17 11 23 17 12 14 -10 -3 -31 -16 -46 -29 -24 -18 -29 -30
-29 -69 -1 -53 0 -53 72 -48 l38 2 -36 -54 c-31 -47 -34 -59 -26 -81 8 -21 18
-27 43 -29 91 -5 208 20 208 43 0 5 -12 3 -27 -4 -31 -16 -143 -30 -143 -18 0
9 45 31 61 31 19 0 79 32 79 41 0 5 -10 3 -22 -5 -13 -8 -43 -19 -68 -26 -25
-6 -55 -16 -68 -22 -17 -9 -25 -9 -34 0 -9 9 -8 12 3 16 8 2 46 14 84 26 39
13 74 27 80 31 5 5 -15 1 -45 -9 -141 -48 -163 -30 -30 24 47 19 94 44 105 55
14 14 0 9 -48 -16 -67 -34 -107 -44 -107 -26 0 5 17 16 38 24 20 9 46 22 57
31 11 9 -5 5 -38 -9 -55 -24 -77 -25 -77 -5 0 6 27 23 60 40 34 17 64 38 67
47 14 36 -41 72 -74 48z"/>
<path d="M6800 3947 c0 -5 14 -20 30 -34 17 -13 30 -29 30 -34 0 -5 9 -19 19
-31 11 -13 29 -34 41 -48 14 -16 11 -9 -7 20 -29 47 -113 141 -113 127z"/>
<path d="M3050 3921 c-15 -29 -13 -71 4 -71 26 0 46 12 46 28 0 12 -3 13 -12
4 -21 -21 -30 -13 -24 23 8 39 2 45 -14 16z"/>
<path d="M1594 3895 c-9 -21 -13 -50 -11 -65 5 -21 -6 -38 -69 -104 -47 -49
-73 -84 -70 -93 3 -8 -1 -21 -9 -30 -17 -16 -12 -33 10 -33 7 0 35 20 62 46
26 25 39 41 28 35 -11 -5 -29 -19 -39 -30 -11 -12 -26 -21 -34 -21 -12 0 -11
5 4 28 10 15 29 36 43 47 14 11 48 44 76 73 27 30 65 60 85 69 19 8 30 17 23
20 -7 2 -21 0 -32 -6 -15 -8 -24 -7 -40 7 -19 15 -21 21 -10 50 16 47 2 53
-17 7z"/>
<path d="M1959 3902 c-10 -14 -19 -18 -21 -12 -2 8 -22 0 -55 -20 -57 -35
-100 -38 -95 -6 3 17 2 18 -12 7 -9 -8 -16 -24 -16 -37 0 -33 27 -31 102 6 34
17 62 29 64 27 5 -5 -231 -237 -241 -237 -5 0 -24 -16 -42 -36 -27 -30 -35
-34 -48 -24 -28 23 -16 52 55 123 39 39 70 75 70 80 0 13 -19 -2 -58 -45 -20
-22 -48 -46 -63 -53 -17 -9 -32 -29 -40 -52 -16 -45 -13 -64 9 -81 19 -15 23
-11 -196 -207 -61 -55 -112 -104 -112 -108 0 -14 58 25 113 76 28 27 72 65 97
85 25 20 71 63 104 94 45 43 65 56 80 52 12 -3 41 6 68 20 40 21 47 22 52 9
13 -33 161 17 216 73 36 37 23 38 -17 1 -20 -17 -23 -18 -23 -4 0 9 6 20 14
24 30 17 138 124 132 130 -3 4 -34 -21 -69 -55 -169 -165 -166 -163 -200 -160
-53 5 -46 31 30 103 37 35 64 65 60 65 -4 0 -30 -21 -57 -46 -30 -28 -55 -44
-64 -41 -8 3 -20 -2 -28 -11 -9 -11 -10 -14 0 -8 15 9 15 1 2 -25 -14 -25 -89
-64 -101 -52 -6 6 -1 17 11 28 11 10 20 24 20 32 0 7 4 13 8 13 5 0 61 52 125
115 106 103 118 112 127 95 14 -26 28 -25 96 5 64 28 69 45 6 20 -57 -23 -76
-17 -82 25 l-5 35 -16 -23z"/>
<path d="M2922 3894 c-9 -19 -17 -24 -32 -19 -23 7 -29 -19 -6 -28 15 -6 66
41 66 61 0 21 -16 13 -28 -14z"/>
<path d="M7696 3902 c-3 -3 -6 -11 -6 -18 0 -9 8 -10 29 -4 16 4 32 6 35 2 12
-11 5 -48 -13 -79 -23 -36 -15 -49 38 -59 17 -4 34 -11 37 -15 6 -11 34 -12
34 -1 0 8 -48 32 -64 32 -34 1 -36 17 -12 72 19 43 22 59 13 66 -13 10 -82 13
-91 4z"/>
<path d="M8231 3903 c-1 -6 -4 -20 -7 -30 -5 -17 -5 -17 6 0 6 10 9 23 6 30
-3 9 -5 9 -5 0z"/>
<path d="M2777 3848 c-12 -19 -18 -21 -28 -10 -20 19 -31 14 -27 -10 5 -36 48
-30 71 10 21 36 8 44 -16 10z"/>
<path d="M6790 3864 c0 -4 16 -24 35 -45 19 -22 35 -36 35 -33 0 4 -16 24 -35
45 -19 22 -35 36 -35 33z"/>
<path d="M2140 3814 c-17 -20 -29 -38 -26 -41 5 -5 76 62 76 72 0 14 -21 1
-50 -31z"/>
<path d="M2544 3815 c21 -16 32 -13 21 4 -3 6 -14 11 -23 11 -15 -1 -15 -2 2
-15z"/>
<path d="M4470 3810 c0 -5 5 -10 10 -10 6 0 10 5 10 10 0 6 -4 10 -10 10 -5 0
-10 -4 -10 -10z"/>
<path d="M2450 3801 c0 -22 -84 -113 -153 -164 -42 -32 -82 -64 -90 -71 -8 -8
-60 -47 -116 -86 -57 -40 -110 -78 -119 -85 -34 -28 -251 -184 -367 -265 -66
-45 -140 -99 -165 -120 -37 -30 -136 -99 -241 -165 -9 -5 -27 -17 -40 -26 -62
-41 -173 -109 -223 -135 -132 -69 -47 33 144 171 30 22 62 40 71 41 9 1 63 37
119 80 57 43 133 102 169 129 37 28 116 91 177 141 60 50 120 96 132 103 13 7
22 17 19 24 -4 14 109 101 121 93 5 -3 20 6 32 19 13 14 19 25 13 25 -6 0 -13
-6 -16 -14 -3 -8 -15 -12 -29 -9 -22 4 -63 -24 -188 -130 -71 -60 -144 -120
-230 -187 -52 -41 -113 -91 -135 -112 -22 -21 -63 -49 -90 -62 -28 -14 -59
-34 -69 -45 -11 -12 -24 -21 -31 -21 -7 0 -20 -9 -31 -21 -24 -27 -52 -42 -64
-34 -18 11 10 51 127 175 29 30 53 59 53 63 0 13 -33 -9 -64 -42 -60 -63 -78
-15 -23 62 65 92 118 157 128 157 12 0 194 143 227 179 12 13 20 26 17 29 -2
3 -56 -41 -120 -97 -63 -56 -115 -99 -115 -95 0 4 7 16 17 26 13 15 14 18 2
18 -8 0 -41 -23 -72 -51 l-57 -51 0 29 c0 32 26 77 93 162 26 34 47 63 47 66
0 16 -32 1 -53 -25 -14 -16 -31 -30 -37 -30 -14 0 -4 38 16 61 18 20 18 29 0
29 -7 0 -24 -21 -37 -46 l-24 -46 23 -15 22 -16 -40 -43 c-33 -36 -40 -51 -40
-84 0 -28 6 -45 20 -57 19 -16 19 -17 -13 -48 -18 -18 -40 -55 -51 -89 -18
-51 -18 -58 -4 -72 14 -14 11 -20 -27 -55 -45 -42 -63 -82 -45 -104 8 -9 -2
-22 -37 -51 -55 -44 -95 -84 -85 -84 4 0 -9 -8 -28 -18 -44 -22 -52 -57 -17
-73 21 -10 35 -6 98 28 41 21 92 50 114 64 155 99 205 132 205 138 0 7 62 33
67 28 1 -2 -3 -19 -9 -39 -14 -47 -3 -128 18 -128 12 0 14 7 9 29 -3 16 -2 32
4 35 5 3 8 17 6 31 -1 14 2 25 6 25 5 0 9 -21 9 -46 0 -28 4 -43 10 -39 6 4 8
10 5 15 -3 5 -1 11 5 15 5 3 10 26 10 51 0 25 -4 43 -9 40 -5 -4 -12 0 -14 6
-3 7 -6 3 -6 -10 -1 -14 -6 -22 -13 -19 -7 2 -12 7 -10 10 1 4 2 18 2 31 0 16
12 31 40 50 49 32 60 33 31 2 -16 -17 -19 -26 -10 -31 17 -11 6 -125 -16 -159
-24 -37 -57 -52 -165 -76 -50 -11 -108 -27 -127 -35 -20 -8 -44 -15 -55 -15
-10 0 -32 -7 -48 -15 -16 -9 -42 -17 -57 -19 -100 -13 -193 -35 -193 -47 0
-19 23 -18 96 1 43 11 87 20 99 20 11 0 30 7 41 15 12 8 37 17 55 20 19 3 57
13 84 22 28 10 56 16 62 15 7 -2 26 4 42 13 17 8 41 15 53 15 13 0 41 9 63 20
22 11 50 20 62 20 13 0 26 7 29 15 4 8 14 15 23 15 9 0 27 7 40 16 12 9 58 34
101 55 43 21 81 42 84 48 4 5 23 15 44 21 20 7 51 18 67 25 17 7 50 18 75 25
25 6 71 21 104 32 69 23 70 23 109 -68 31 -71 32 -82 12 -130 -15 -36 -15 -36
8 -30 12 3 27 6 33 6 7 0 19 19 28 41 13 32 20 39 29 30 8 -8 8 -19 -1 -43
-15 -41 -10 -45 26 -19 17 12 38 21 47 21 23 0 71 53 85 94 8 26 18 36 43 42
l32 8 -32 3 c-29 4 -32 8 -42 53 -25 114 -97 172 -166 131 -5 -3 -18 -4 -28
-3 -10 2 -31 -8 -48 -22 -17 -14 -35 -26 -41 -26 -6 0 -20 -8 -31 -17 -18 -17
-19 -17 -16 22 2 22 0 46 -4 52 -4 6 0 27 8 47 19 44 19 72 0 31 -7 -16 -14
-25 -14 -18 -1 15 -32 6 -48 -15 -7 -9 -13 -40 -13 -69 0 -59 -20 -80 -44 -48
-11 16 -13 15 -24 -11 -6 -16 -14 -41 -18 -56 -3 -16 -13 -28 -20 -28 -11 0
-12 5 -6 18 11 20 26 109 17 101 -3 -4 -12 -26 -20 -50 l-14 -44 2 72 c1 39 0
70 -4 67 -4 -2 -10 7 -13 21 -12 46 -56 19 -56 -35 0 -12 -4 -19 -8 -16 -8 5
-8 19 -3 89 1 4 8 7 16 7 18 0 65 44 65 60 0 6 -6 8 -12 4 -7 -4 -4 3 7 15 18
21 20 22 23 5 2 -11 13 -26 24 -35 24 -19 15 -43 -13 -36 -14 4 -19 0 -19 -14
0 -21 30 -27 31 -6 0 6 4 2 9 -10 14 -35 27 -28 61 33 22 39 36 53 47 49 18
-7 42 12 42 32 0 13 -3 13 -15 3 -13 -11 -15 -8 -15 13 0 34 31 88 50 86 30
-3 37 1 48 26 17 36 15 44 -4 17 -14 -21 -34 -22 -34 -2 0 13 52 60 66 60 7 0
15 -7 18 -16 4 -12 14 -14 36 -9 29 6 30 5 26 -24 -2 -17 0 -31 4 -31 8 0 21
92 14 99 -2 2 -13 -4 -23 -13 -11 -10 -24 -15 -29 -12 -20 12 2 49 48 80 27
17 73 53 104 80 31 27 58 47 61 44 2 -2 -7 -26 -20 -53 -25 -49 -34 -102 -15
-90 6 3 10 17 10 30 0 30 10 55 21 55 5 0 6 -13 3 -30 -5 -22 -3 -30 8 -30 21
0 48 33 47 56 0 14 -3 12 -11 -8 -5 -16 -16 -28 -24 -28 -14 0 -19 12 -8 23 3
3 7 26 8 51 1 30 9 53 23 68 11 13 28 35 37 49 15 24 15 27 1 32 -8 4 -15 2
-15 -2z m-438 -431 c-31 -45 -42 -50 -42 -17 0 13 11 28 28 39 42 25 44 21 14
-22z m-45 -67 c14 -11 14 -15 -1 -37 -10 -17 -22 -23 -32 -19 -14 5 -15 1 -10
-24 5 -21 2 -34 -8 -43 -14 -11 -15 -6 -13 38 2 28 9 58 16 66 8 9 10 16 6 16
-4 0 -15 -10 -26 -22 -16 -21 -18 -21 -19 -5 0 11 15 33 33 49 28 27 32 29 35
12 2 -11 11 -24 19 -31z m-227 -122 c-11 -21 -29 -36 -35 -29 -3 2 2 14 11 26
19 28 39 30 24 3z m-70 -66 c-15 -27 -40 -34 -40 -11 0 16 40 49 49 41 2 -3
-2 -16 -9 -30z m53 1 c-10 -14 -23 -26 -29 -26 -14 0 -24 -23 -24 -55 0 -13
-4 -27 -10 -30 -15 -9 -12 43 5 78 13 28 63 69 73 61 2 -1 -4 -14 -15 -28z
m282 -31 c4 -36 11 -65 16 -65 18 0 8 -17 -16 -28 -41 -19 -58 -16 -43 7 10
16 15 18 27 8 12 -10 13 -8 8 13 -4 14 -7 31 -7 38 0 7 -4 10 -10 7 -11 -7
-14 67 -3 78 15 16 22 3 28 -58z m-218 33 c-3 -8 -6 -5 -6 6 -1 11 2 17 5 13
3 -3 4 -12 1 -19z m-152 -126 c1 -35 6 -67 13 -74 9 -9 12 -5 12 19 0 18 5 35
10 38 6 3 10 17 10 31 0 14 7 27 18 31 9 3 25 13 35 21 11 10 17 11 17 4 0 -7
7 -12 16 -12 13 0 15 -6 9 -27 -9 -36 -12 -38 -29 -24 -19 16 -30 -3 -16 -26
8 -13 9 -26 1 -45 -18 -47 -31 -33 -25 27 4 36 2 55 -5 55 -6 0 -11 -17 -11
-39 0 -61 -17 -96 -55 -114 -29 -14 -35 -14 -35 -3 0 8 4 16 8 18 5 2 12 18
15 36 9 44 -14 38 -25 -6 -10 -39 -29 -43 -22 -4 4 20 2 24 -7 15 -6 -6 -10
-29 -7 -52 3 -40 -4 -52 -17 -31 -10 17 15 111 38 144 12 16 15 26 7 21 -9 -6
-12 -4 -8 6 3 8 9 25 13 39 7 22 6 23 -8 12 -9 -8 -19 -22 -22 -33 -9 -27 -25
-24 -25 6 0 13 12 35 27 49 l27 25 20 -22 c16 -18 21 -36 21 -85z m609 92 c5
-12 9 -14 20 -5 19 16 39 -11 61 -82 19 -65 16 -130 -9 -155 -14 -14 -16 -14
-22 3 -4 10 -2 26 5 36 9 15 8 19 -3 19 -16 0 -46 42 -46 65 0 9 -11 38 -25
66 -14 27 -23 54 -20 59 10 15 32 12 39 -6z m-50 -49 c13 -30 28 -76 32 -102
3 -27 11 -54 17 -61 7 -9 7 -16 -1 -24 -18 -18 -32 1 -32 45 0 32 -9 55 -35
94 -33 50 -43 82 -28 96 14 14 22 5 47 -48z m-383 3 c-4 -42 -4 -42 -13 -15
-10 28 -5 57 9 57 5 0 7 -19 4 -42z m-289 -10 c-20 -20 -15 -59 9 -65 17 -5
19 -11 13 -37 -11 -52 -23 -66 -24 -26 0 62 -21 17 -23 -51 -1 -37 -6 -62 -11
-59 -6 3 -9 34 -9 70 1 44 -1 59 -7 45 -5 -11 -9 -40 -10 -65 -2 -38 -3 -41
-10 -20 -12 36 -12 110 0 110 6 0 10 8 10 19 0 25 24 69 46 86 22 15 33 10 16
-7z m632 -62 c42 -75 44 -88 15 -117 -17 -17 -23 -19 -30 -8 -5 8 -9 24 -9 36
0 29 -34 105 -54 122 -19 16 -21 38 -3 44 23 8 45 -13 81 -77z m-219 24 c0 -7
-6 -15 -12 -17 -8 -3 -13 4 -13 17 0 13 5 20 13 18 6 -3 12 -11 12 -18z m-115
-35 c0 -14 -4 -25 -10 -25 -11 0 -14 33 -3 43 11 11 13 8 13 -18z m-46 9 c24
-9 20 -44 -4 -44 -15 0 -20 7 -20 25 0 27 1 28 24 19z"/>
<path d="M6770 3781 c0 -16 49 -69 83 -89 34 -21 107 -36 107 -23 0 4 -19 16
-42 26 -24 10 -61 33 -83 50 -53 41 -65 48 -65 36z"/>
<path d="M6894 3753 c16 -18 32 -31 34 -28 3 3 3 6 1 8 -2 1 -17 13 -34 27
l-30 25 29 -32z"/>
<path d="M2936 3754 c-15 -39 20 -45 54 -9 24 25 16 36 -9 13 -11 -10 -14 -10
-18 0 -6 17 -20 15 -27 -4z"/>
<path d="M2129 3743 c-13 -16 -12 -17 4 -4 16 13 21 21 13 21 -2 0 -10 -8 -17
-17z"/>
<path d="M2600 3735 c0 -8 7 -15 16 -15 14 0 14 3 4 15 -7 8 -14 15 -16 15 -2
0 -4 -7 -4 -15z"/>
<path d="M8452 3720 c0 -19 2 -27 5 -17 2 9 2 25 0 35 -3 9 -5 1 -5 -18z"/>
<path d="M2822 3708 c-10 -40 -32 -49 -32 -14 0 14 -4 26 -10 26 -12 0 -24
-45 -15 -59 10 -17 40 -13 58 7 20 22 33 72 18 72 -6 0 -14 -14 -19 -32z"/>
<path d="M3035 3691 c-25 -50 -75 -120 -94 -133 -10 -7 -35 -36 -56 -63 -20
-28 -59 -73 -86 -101 -27 -27 -47 -53 -43 -57 11 -10 145 137 173 190 6 12 19
24 29 27 20 7 95 108 106 144 11 33 -11 27 -29 -7z"/>
<path d="M1210 3700 c0 -5 4 -10 9 -10 6 0 13 5 16 10 3 6 -1 10 -9 10 -9 0
-16 -4 -16 -10z"/>
<path d="M2491 3678 c-1 -28 3 -38 14 -38 9 0 18 7 22 16 3 8 12 13 19 10 9
-3 14 2 14 14 0 23 -18 27 -26 5 -9 -22 -23 -18 -34 8 -8 19 -9 17 -9 -15z"/>
<path d="M1329 3628 c-55 -64 -45 -63 26 4 22 21 43 38 47 38 5 0 8 5 8 10 0
26 -33 5 -81 -52z"/>
<path d="M7845 3674 c-11 -8 -36 -20 -56 -26 -39 -11 -59 -45 -33 -55 8 -3 11
-9 8 -14 -3 -5 1 -9 9 -9 8 0 18 -10 22 -22 l8 -23 4 24 c3 17 -2 30 -17 41
l-23 17 46 22 c48 23 73 46 60 54 -5 3 -17 -1 -28 -9z"/>
<path d="M2032 3650 c-31 -29 -28 -50 6 -50 24 0 92 33 92 45 0 2 -15 -5 -34
-16 -31 -18 -66 -18 -66 2 0 4 8 12 17 18 10 5 15 12 12 15 -3 3 -15 -3 -27
-14z"/>
<path d="M7030 3662 c0 -4 14 -18 30 -30 17 -13 30 -29 30 -37 0 -8 5 -15 10
-15 6 0 10 -5 10 -10 0 -6 12 -29 26 -51 21 -33 28 -38 40 -29 20 18 18 23
-21 61 -19 19 -35 39 -35 45 0 13 -37 47 -67 63 -13 6 -23 8 -23 3z"/>
<path d="M8415 3660 c-3 -5 11 -17 32 -26 65 -28 68 -30 81 -60 26 -57 28 -59
65 -56 53 5 105 -21 122 -61 14 -34 58 -71 76 -65 17 6 -69 128 -98 140 -16 6
-47 11 -69 11 -39 0 -43 3 -60 40 -11 22 -30 48 -44 58 -31 21 -96 33 -105 19z"/>
<path d="M2618 3654 c-11 -11 -10 -52 2 -59 19 -11 50 6 56 31 9 35 -3 42 -17
10 -15 -33 -27 -33 -31 0 -2 14 -6 22 -10 18z"/>
<path d="M8840 3622 c0 -5 16 -26 36 -48 l36 -39 -33 48 c-33 48 -39 54 -39
39z"/>
<path d="M2820 3585 c-12 -31 -4 -52 22 -61 23 -7 43 10 53 46 l6 25 -19 -24
c-23 -28 -46 -20 -39 15 6 32 -11 31 -23 -1z"/>
<path d="M2310 3556 c-5 -15 -10 -34 -10 -41 0 -22 -22 -65 -31 -59 -4 2 -2
24 5 48 13 42 12 45 -6 49 -18 5 -19 2 -14 -29 5 -24 2 -43 -11 -64 -14 -24
-15 -32 -5 -42 18 -18 56 33 76 101 16 58 14 83 -4 37z"/>
<path d="M1959 3538 c-12 -23 -12 -23 10 -4 23 21 26 26 11 26 -5 0 -15 -10
-21 -22z"/>
<path d="M2573 3510 c-19 -32 -47 -42 -36 -12 6 15 5 15 -10 3 -22 -17 -22
-51 -1 -51 9 0 23 8 31 18 42 53 53 72 44 72 -5 0 -18 -13 -28 -30z"/>
<path d="M7310 3525 c0 -9 11 -21 25 -27 31 -14 33 -28 3 -20 -21 5 -22 4 -9
-11 7 -9 20 -17 29 -17 8 0 30 -12 49 -26 38 -29 92 -41 118 -27 15 9 12 14
-22 40 -37 29 -170 103 -185 103 -4 0 -8 -7 -8 -15z m195 -106 c5 -6 2 -9 -10
-9 -38 0 -64 12 -80 36 l-15 23 48 -20 c26 -11 51 -24 57 -30z"/>
<path d="M6813 3460 c-26 -60 -40 -71 -65 -47 -32 30 -107 87 -115 87 -4 0
-19 -16 -32 -35 -13 -19 -29 -35 -35 -35 -19 0 -120 41 -137 56 -26 23 -48 16
-66 -22 -15 -31 -20 -34 -43 -28 -14 4 -38 8 -55 8 -24 1 -31 -4 -33 -22 -5
-35 -26 -37 -106 -8 -41 14 -83 26 -94 26 -42 0 -38 -55 10 -129 15 -25 28
-56 28 -70 0 -31 16 -59 26 -48 17 17 2 101 -28 154 -17 29 -27 57 -24 61 4 4
43 -6 86 -21 61 -21 85 -25 105 -17 14 5 25 16 25 24 0 22 24 26 66 11 59 -21
67 -19 62 15 -7 45 11 53 63 27 112 -55 136 -57 165 -11 9 13 20 24 26 24 5 0
36 -23 70 -51 72 -60 98 -62 111 -7 5 20 16 43 26 52 16 15 23 11 89 -56 53
-52 72 -78 72 -98 0 -14 9 -54 21 -89 12 -34 19 -64 16 -67 -9 -10 -61 18
-105 56 -24 22 -49 40 -54 40 -5 0 -13 11 -18 25 -10 27 -40 35 -40 10 0 -22
147 -133 194 -146 22 -6 53 -22 69 -35 16 -13 33 -24 38 -24 5 0 18 -19 30
-42 12 -23 29 -54 39 -68 10 -14 38 -56 63 -95 63 -97 103 -132 181 -161 81
-29 105 -31 85 -8 -11 14 -9 15 27 9 81 -13 94 -17 94 -26 0 -5 8 -9 18 -8 10
0 12 3 5 6 -7 2 -13 10 -13 18 0 15 -44 25 -111 25 -27 0 -54 6 -61 13 -6 8
-22 12 -34 9 -55 -10 -162 90 -231 219 -15 28 -34 63 -42 78 -8 14 -21 30 -30
35 -52 31 -114 146 -113 210 1 16 -3 37 -8 47 -7 12 -5 21 5 29 9 7 14 18 13
24 -1 6 1 24 5 40 7 25 11 28 40 23 18 -3 40 -8 50 -12 10 -4 17 -3 17 4 0 6
-12 13 -27 17 -16 3 -38 9 -50 14 -29 12 -50 -8 -59 -55 -3 -20 -10 -38 -15
-40 -12 -8 -45 22 -96 88 -24 31 -51 57 -59 57 -8 0 -26 -26 -41 -60z"/>
<path d="M2397 3478 c-20 -47 -47 -51 -47 -8 0 17 -4 30 -10 30 -16 0 -12 -56
5 -70 8 -7 21 -10 29 -7 18 7 49 64 43 80 -2 7 -11 -5 -20 -25z"/>
<path d="M2737 3478 c-14 -20 -18 -21 -27 -8 -9 13 -11 13 -20 0 -6 -10 -5
-20 6 -30 14 -13 18 -12 40 13 13 15 24 32 24 38 0 14 -6 11 -23 -13z"/>
<path d="M7271 3489 c-1 -8 6 -24 15 -35 15 -19 15 -19 6 1 -5 11 -12 27 -15
35 -5 13 -6 13 -6 -1z"/>
<path d="M1710 3424 c-34 -32 -66 -68 -72 -79 -5 -11 16 6 49 38 32 31 67 64
78 71 11 8 17 18 13 21 -4 4 -35 -19 -68 -51z"/>
<path d="M2290 3406 c-5 -15 -10 -36 -10 -46 0 -31 -20 -34 -21 -3 l0 28 -10
-25 c-17 -42 -20 -82 -5 -77 8 3 18 1 23 -4 7 -7 17 -2 31 15 24 31 36 34 27
6 -4 -11 -2 -20 4 -20 6 0 11 6 11 14 0 7 3 28 6 45 5 24 3 31 -9 31 -8 0 -17
-9 -20 -20 -11 -41 -24 -19 -16 28 8 55 4 66 -11 28z"/>
<path d="M1598 3378 c-29 -23 -62 -51 -73 -61 -11 -11 -54 -45 -95 -76 -41
-31 -103 -78 -136 -104 -52 -40 -86 -77 -69 -77 12 0 140 94 227 167 53 45
109 90 124 100 16 10 46 35 68 56 53 51 22 48 -46 -5z"/>
<path d="M2407 3406 c-9 -24 18 -40 37 -21 20 20 21 29 2 22 -7 -3 -18 -1 -23
4 -7 7 -12 5 -16 -5z"/>
<path d="M2145 3379 c-4 -12 -1 -27 8 -37 9 -11 13 -29 10 -48 -3 -18 -1 -34
5 -38 5 -3 9 7 9 22 0 15 4 43 7 62 6 29 4 37 -13 47 -17 11 -21 10 -26 -8z"/>
<path d="M2101 3353 c-5 -10 -18 -18 -28 -18 -10 0 -18 -7 -18 -15 0 -29 38
-16 52 18 14 34 10 44 -6 15z"/>
<path d="M2105 3285 c-10 -25 -15 -48 -13 -51 3 -3 13 16 22 42 21 62 13 69
-9 9z"/>
<path d="M2207 3316 c-4 -10 -7 -25 -6 -34 0 -11 4 -9 10 7 5 13 8 29 6 35 -2
5 -6 2 -10 -8z"/>
<path d="M2435 3321 c-3 -6 -15 -11 -26 -11 -10 0 -19 -4 -19 -10 0 -16 36
-12 50 5 7 9 10 18 7 21 -3 3 -8 1 -12 -5z"/>
<path d="M2596 3309 c-14 -11 -30 -18 -35 -15 -15 10 -39 -4 -44 -25 -4 -15
-11 -18 -29 -14 -34 8 -46 -5 -51 -54 -4 -47 -12 -55 -69 -65 -23 -4 -38 -13
-38 -21 0 -15 23 -9 113 29 21 9 42 14 47 11 5 -3 12 -30 15 -60 6 -45 4 -60
-14 -90 -11 -20 -21 -44 -21 -53 0 -9 -7 -29 -14 -44 -24 -46 2 -44 50 3 47
48 55 64 25 54 -29 -9 -33 8 -11 53 11 23 20 47 20 55 0 30 -32 103 -56 128
-13 14 -22 28 -19 31 9 9 104 -42 115 -62 14 -26 12 -98 -5 -145 -8 -22 -12
-50 -8 -62 3 -13 0 -30 -7 -38 -19 -23 -7 -28 26 -11 16 8 43 18 59 23 18 5
30 15 30 26 0 9 15 30 32 46 18 16 35 40 37 53 32 139 29 156 -38 220 -56 53
-71 57 -110 27z m97 -52 c39 -36 47 -50 47 -79 0 -37 -23 -123 -40 -148 -18
-26 -31 9 -24 66 8 65 -10 133 -43 160 -25 21 -25 44 0 44 7 0 34 -20 60 -43z
m-113 -2 c0 -8 9 -15 20 -15 48 0 74 -107 45 -186 -19 -51 -40 -82 -50 -72 -4
3 -2 32 4 64 18 98 15 123 -22 158 -20 18 -32 38 -29 49 4 21 32 23 32 2z"/>
<path d="M6490 3324 c0 -3 11 -20 25 -38 14 -18 28 -47 31 -64 6 -27 4 -32
-13 -32 -11 0 -30 11 -43 25 -21 22 -29 24 -69 19 -38 -5 -56 -1 -101 21 -30
15 -63 35 -72 43 -26 22 -23 -3 3 -27 12 -11 33 -22 47 -26 15 -4 35 -14 44
-22 14 -12 29 -14 69 -9 47 6 53 5 75 -20 17 -18 32 -24 46 -21 19 5 58 -23
69 -49 16 -41 205 -97 248 -75 30 17 26 20 -21 20 -62 0 -131 11 -148 25 -8 7
-27 17 -42 24 -16 7 -28 19 -28 30 0 11 -9 27 -19 36 -11 10 -22 30 -26 44 -8
33 -52 102 -65 102 -6 0 -10 -3 -10 -6z"/>
<path d="M7748 3304 c-13 -12 -9 -72 7 -111 16 -38 20 -93 7 -93 -11 0 -44 37
-70 80 -35 57 -50 72 -61 66 -27 -17 131 -196 173 -196 17 0 66 -48 93 -92 9
-15 23 -30 30 -32 50 -19 -59 116 -111 138 -29 12 -32 17 -28 49 2 20 -3 57
-12 84 -8 26 -16 63 -18 81 -2 19 -6 30 -10 26z"/>
<path d="M7099 3233 c-21 -43 -22 -50 -4 -28 25 30 37 55 27 55 -5 0 -15 -12
-23 -27z"/>
<path d="M2182 3230 c-14 -24 -32 -26 -32 -5 0 8 -4 15 -9 15 -12 0 -31 -57
-30 -89 l1 -26 7 25 c4 15 15 26 29 28 24 4 56 44 50 62 -2 6 -9 1 -16 -10z"/>
<path d="M2321 3213 c-14 -33 -35 -43 -44 -20 -3 8 -7 6 -12 -7 -7 -17 7 -35
27 -36 13 0 49 60 46 78 -2 12 -7 8 -17 -15z"/>
<path d="M7980 3162 c0 -52 -5 -84 -15 -99 -21 -30 -23 -259 -2 -300 14 -27
57 -72 46 -48 -38 80 -40 91 -40 194 -1 76 4 118 15 145 18 43 23 186 6 186
-6 0 -10 -33 -10 -78z"/>
<path d="M2233 3213 c-3 -10 -8 -21 -10 -25 -2 -5 0 -8 5 -8 5 0 12 11 14 25
6 29 0 33 -9 8z"/>
<path d="M2080 3186 c-17 -47 -22 -76 -13 -76 10 0 35 92 27 99 -2 2 -8 -8
-14 -23z"/>
<path d="M2197 3203 c-4 -3 -7 -18 -7 -31 0 -31 9 -24 16 12 4 27 2 31 -9 19z"/>
<path d="M2395 3190 c-10 -11 -16 -23 -13 -26 7 -6 38 24 38 37 0 13 -5 11
-25 -11z"/>
<path d="M7204 3179 c3 -17 6 -38 6 -45 0 -8 19 -33 42 -56 41 -41 41 -41 30
-85 -14 -51 -15 -73 -4 -73 8 0 33 99 39 155 4 40 -6 115 -16 115 -4 0 -6 -25
-3 -56 4 -50 3 -56 -14 -52 -22 4 -64 73 -64 106 0 12 -5 22 -11 22 -8 0 -9
-11 -5 -31z"/>
<path d="M6088 3174 c-4 -5 -9 -25 -13 -45 -8 -44 4 -55 68 -62 68 -7 74 -17
42 -67 -29 -45 -27 -70 4 -70 28 0 71 -21 71 -34 -1 -6 -7 -22 -15 -36 -18
-32 -18 -35 1 -54 9 -9 32 -16 55 -16 27 0 39 -4 39 -14 0 -8 -4 -18 -10 -21
-5 -3 -10 -19 -10 -34 0 -29 8 -35 70 -50 23 -6 25 -10 25 -71 0 -65 7 -90 26
-90 6 0 9 35 7 86 l-3 87 -48 14 -48 14 3 42 c3 41 2 42 -39 57 -23 8 -44 18
-48 21 -3 4 3 23 15 43 11 20 20 39 20 41 0 3 -23 16 -51 30 -39 20 -49 30
-44 43 4 9 10 25 12 35 3 9 12 17 19 17 8 0 14 5 14 10 0 14 -77 49 -106 50
-23 0 -49 24 -41 37 7 12 -8 48 -15 37z"/>
<path d="M6522 3100 c-13 -6 -59 -11 -102 -12 -61 -2 -77 -5 -67 -14 9 -9 32
-9 87 -1 41 5 90 10 108 11 17 0 31 6 29 11 -5 14 -28 16 -55 5z"/>
<path d="M7367 3040 c-10 -16 -16 -30 -14 -30 2 0 13 14 25 30 13 17 19 30 14
30 -4 0 -16 -13 -25 -30z"/>
<path d="M6880 3007 c0 -31 85 -103 152 -129 55 -21 88 -23 88 -7 0 8 13 9 39
5 22 -3 42 -2 45 3 3 5 -25 10 -63 13 -77 4 -185 51 -233 101 -19 20 -28 24
-28 14z"/>
<path d="M6930 3010 c0 -5 5 -10 10 -10 6 0 10 5 10 10 0 6 -4 10 -10 10 -5 0
-10 -4 -10 -10z"/>
<path d="M8445 2999 c-11 -17 0 -20 21 -4 17 13 17 14 2 15 -9 0 -20 -5 -23
-11z"/>
<path d="M6690 2908 c19 -84 31 -116 50 -133 29 -26 25 -40 -6 -16 -15 12 -48
22 -82 26 -74 7 -132 23 -132 35 0 6 -4 10 -10 10 -5 0 -10 -7 -10 -15 0 -20
34 -32 122 -43 65 -9 82 -16 158 -67 93 -63 174 -105 204 -105 11 0 29 -9 40
-19 12 -11 32 -21 46 -23 14 -2 34 -9 45 -15 11 -6 45 -13 75 -16 34 -2 54 -9
52 -16 -3 -15 41 -14 56 1 7 7 12 8 12 3 0 -6 4 -4 8 2 6 9 17 10 46 2 29 -8
48 -7 82 5 32 11 53 12 76 5 47 -13 85 -12 71 2 -10 10 -47 12 -193 8 -108 -2
-198 2 -230 10 -106 29 -125 36 -142 53 -10 10 -29 18 -42 18 -38 0 -201 94
-198 115 0 6 -11 23 -26 38 -18 19 -32 51 -43 95 -8 36 -20 67 -26 69 -8 3 -9
-6 -3 -29z"/>
<path d="M2015 2798 c-33 -10 -82 -31 -110 -45 -199 -103 -299 -153 -307 -153
-5 0 -51 -20 -101 -44 -95 -45 -147 -62 -147 -49 0 5 23 18 50 31 28 13 50 27
50 32 0 5 -43 -13 -96 -41 -53 -28 -115 -57 -138 -66 -70 -25 -210 -63 -236
-63 -37 0 -58 -16 -43 -31 10 -10 32 -7 105 13 118 33 204 64 245 89 20 13 40
18 56 14 16 -4 56 8 127 39 l102 45 -5 -33 c-3 -18 -2 -48 2 -67 l7 -34 12 34
c9 25 9 37 1 42 -7 4 -9 18 -5 35 6 26 26 38 184 116 218 108 270 130 277 118
3 -5 1 -19 -5 -30 -6 -12 -10 -26 -7 -33 4 -14 25 22 30 52 2 12 12 28 23 36
26 19 6 18 -71 -7z"/>
<path d="M8540 2765 c-15 -8 -38 -12 -56 -9 -21 4 -41 0 -58 -11 -32 -21 -27
-32 6 -14 12 7 41 12 63 11 23 -1 48 4 59 13 26 20 17 27 -14 10z"/>
<path d="M1940 2705 c-8 -9 -8 -15 -2 -15 12 0 26 19 19 26 -2 2 -10 -2 -17
-11z"/>
<path d="M2032 2648 c-17 -71 -28 -80 -35 -27 -3 23 -11 47 -18 53 -9 8 -10 2
-5 -29 15 -88 17 -133 7 -140 -7 -4 -11 6 -11 29 0 19 -5 38 -11 42 -7 4 -9 0
-6 -12 9 -33 19 -119 13 -113 -3 3 -14 29 -24 58 l-18 52 -32 -40 c-18 -23
-29 -41 -24 -41 5 0 17 10 25 23 15 20 16 20 16 3 1 -11 4 -16 8 -13 6 7 43
-65 43 -84 0 -21 -20 -7 -26 18 -9 34 -34 63 -34 40 0 -9 -2 -21 -3 -29 -2 -7
-2 -10 0 -5 10 16 23 5 23 -19 0 -14 5 -34 10 -45 6 -11 8 -24 4 -30 -4 -7
-12 1 -20 20 -7 17 -18 31 -24 31 -13 0 -13 -1 5 -37 21 -43 30 -93 16 -93 -6
0 -11 12 -11 28 0 33 -19 64 -27 44 -3 -7 -16 -26 -29 -41 -28 -33 -32 -50 -8
-30 15 12 16 11 9 -11 -4 -14 -13 -32 -20 -40 -22 -27 -29 -44 -15 -35 10 6
11 2 6 -20 -7 -29 -38 -61 -44 -45 -3 8 44 249 73 375 9 38 18 81 20 95 2 14
6 38 11 54 5 21 4 27 -5 22 -6 -4 -11 -16 -11 -26 0 -10 -3 -27 -7 -37 -6 -15
-8 -13 -13 11 -3 17 -9 30 -15 30 -15 1 -18 -93 -3 -111 12 -15 12 -57 1 -77
-8 -12 -23 15 -23 42 0 12 -4 22 -10 22 -15 0 -12 -41 5 -74 17 -32 20 -72 5
-81 -5 -3 -12 12 -16 34 -4 23 -10 38 -15 35 -15 -9 -10 -71 7 -85 13 -10 15
-25 11 -66 -3 -28 -10 -60 -15 -70 -9 -16 -11 -14 -18 11 -4 18 -2 31 5 35 13
9 4 92 -11 102 -5 3 -2 43 6 90 8 46 13 86 10 88 -8 9 -16 -8 -21 -48 -3 -23
-10 -41 -15 -41 -6 0 -8 14 -6 30 3 17 3 30 2 30 -11 0 -27 -52 -30 -96 -1
-29 -10 -66 -18 -83 -9 -16 -16 -39 -16 -50 0 -27 -10 -51 -22 -51 -5 0 -7 8
-4 18 6 19 37 230 41 277 1 17 3 38 3 48 1 11 9 17 19 15 10 -2 19 6 24 24 l7
28 -28 -29 c-16 -16 -32 -40 -36 -55 -9 -36 -22 -42 -34 -14 -9 22 -10 21 -8
-7 1 -16 -3 -39 -9 -51 -10 -17 -8 -27 8 -53 22 -36 27 -105 7 -99 -7 3 -15
20 -18 39 l-5 34 -14 -32 c-7 -18 -17 -33 -22 -33 -5 0 -2 16 6 36 18 45 18
45 1 38 -8 -3 -12 -12 -9 -20 3 -8 0 -14 -6 -14 -6 0 -11 17 -11 39 0 22 -4
43 -10 46 -9 6 -17 -135 -11 -209 2 -20 -1 -27 -11 -24 -7 3 -14 20 -16 39 -2
19 -8 38 -13 44 -15 15 -11 38 7 31 9 -3 14 -3 12 1 -2 5 -12 25 -21 46 -21
45 -32 48 -23 7 3 -19 2 -29 -4 -25 -6 3 -10 17 -10 31 0 56 -40 88 -69 55
-16 -19 -16 -30 10 -208 15 -103 35 -208 43 -232 9 -24 16 -53 16 -65 0 -11
11 -45 25 -73 27 -59 76 -97 113 -88 12 3 31 1 42 -5 48 -25 152 74 219 207
42 84 108 294 146 463 9 41 25 105 36 141 12 37 19 77 17 90 -2 16 -7 5 -16
-33z m-187 -97 c3 -5 1 -12 -5 -16 -5 -3 -10 1 -10 9 0 18 6 21 15 7z m-202
-96 c4 -8 2 -17 -2 -20 -5 -2 -11 4 -14 15 -6 23 8 27 16 5z m-213 -62 c0 -20
-3 -24 -11 -16 -7 7 -9 19 -6 27 10 24 17 19 17 -11z m296 1 c-3 -9 -6 -20 -6
-25 0 -5 -4 -9 -9 -9 -4 0 -6 11 -3 25 2 14 9 25 14 25 6 0 7 -7 4 -16z m-286
-41 c0 -5 3 -18 6 -30 4 -14 2 -23 -5 -23 -6 0 -11 7 -11 16 0 8 -4 12 -10 9
-5 -3 -10 -4 -10 -1 0 2 -3 11 -6 20 -4 12 0 16 15 16 12 0 21 -3 21 -7z m266
-48 c-4 -14 -11 -25 -16 -25 -13 0 -13 16 1 42 14 26 23 16 15 -17z m32 -37
c-13 -26 -10 -57 8 -88 11 -17 14 -37 10 -54 -9 -36 -23 -32 -30 9 -4 20 -13
35 -21 35 -14 0 -14 0 17 120 11 40 13 42 18 20 4 -14 3 -33 -2 -42z m-174 28
c-6 -16 -24 -23 -24 -8 0 10 22 33 27 28 2 -2 1 -11 -3 -20z m59 -44 c-10 -61
-21 -57 -33 10 -10 52 -4 65 20 43 14 -13 17 -26 13 -53z m-159 -42 c5 -29 4
-41 -3 -35 -5 6 -12 33 -16 60 -8 62 9 40 19 -25z m211 -42 c-9 -45 -21 -87
-26 -92 -15 -16 -21 1 -9 26 9 19 9 20 -2 6 -7 -9 -19 -25 -25 -35 -11 -15
-11 -14 -3 9 5 15 18 45 29 66 11 22 18 42 15 45 -3 3 2 19 11 37 9 18 19 30
22 27 2 -3 -3 -43 -12 -89z m205 44 c0 -7 -4 -10 -10 -7 -5 3 -10 16 -10 28 0
18 2 19 10 7 5 -8 10 -21 10 -28z m30 17 c0 -5 -4 -9 -10 -9 -5 0 -10 7 -10
16 0 8 5 12 10 9 6 -3 10 -10 10 -16z m-339 -28 c-6 -11 -11 -33 -11 -50 0
-17 -4 -31 -10 -31 -5 0 -9 12 -9 28 2 33 31 102 36 85 3 -7 0 -21 -6 -32z
m-41 -24 c-1 -21 -1 -21 -15 -3 -8 10 -12 23 -9 28 9 14 24 -2 24 -25z m76
-14 c-3 -21 -6 -46 -6 -55 0 -27 -17 -21 -22 7 -3 14 -1 25 3 25 5 0 6 14 3
30 -5 24 -3 30 11 30 15 0 17 -6 11 -37z m268 -34 c-10 -17 -24 2 -24 34 l0
32 15 -29 c8 -15 12 -32 9 -37z m-394 -41 c0 -26 -4 -49 -10 -53 -5 -3 -9 21
-9 61 1 44 4 62 10 53 5 -8 9 -35 9 -61z m246 -9 c10 -11 13 -26 8 -43 -8 -33
-20 -26 -28 18 -4 19 -11 36 -17 38 -5 2 -7 17 -2 38 l7 35 9 -35 c5 -19 15
-42 23 -51z m-196 3 c0 -72 -22 -57 -26 17 -2 39 1 49 12 44 10 -3 14 -22 14
-61z m330 2 c0 -8 -4 -14 -10 -14 -5 0 -10 9 -10 21 0 11 5 17 10 14 6 -3 10
-13 10 -21z m-284 -53 c-9 -17 -12 -31 -6 -31 6 0 7 -18 3 -47 -8 -64 -24 -92
-21 -38 1 22 -2 66 -6 99 -7 45 -6 60 5 67 9 5 19 3 27 -5 12 -11 11 -19 -2
-45z m214 50 c0 -20 -13 -42 -30 -51 -15 -8 -17 -6 -13 13 7 26 22 47 34 47 5
0 9 -4 9 -9z m-159 -78 c-25 -36 -36 -73 -21 -73 8 0 9 -11 5 -32 -11 -56 -16
-68 -27 -68 -7 0 -9 24 -4 75 5 56 13 84 34 116 18 27 28 36 30 26 2 -9 -6
-29 -17 -44z m70 -5 c11 -27 4 -68 -10 -68 -11 0 -23 108 -14 123 5 8 9 5 11
-8 2 -11 8 -32 13 -47z m143 47 c-4 -8 -10 -15 -15 -15 -5 0 -9 7 -9 15 0 8 7
15 15 15 9 0 12 -6 9 -15z m-317 -47 c-3 -8 -6 -5 -6 6 -1 11 2 17 5 13 3 -3
4 -12 1 -19z m238 -10 c-12 -39 -36 -71 -46 -61 -11 11 6 63 24 75 21 14 29 9
22 -14z m-249 -21 c17 -26 20 -42 15 -72 -9 -57 -24 -49 -28 15 -2 30 -8 57
-13 58 -12 4 -14 32 -2 32 4 0 17 -15 28 -33z m304 24 c0 -6 -4 -13 -10 -16
-5 -3 -10 1 -10 9 0 9 5 16 10 16 6 0 10 -4 10 -9z m-130 -95 c0 -8 -4 -17 -9
-21 -12 -7 -24 12 -16 25 9 15 25 12 25 -4z m39 -18 c-5 -18 -9 -34 -9 -35 0
-2 -5 -3 -11 -3 -11 0 -3 37 13 58 16 19 17 15 7 -20z m-67 -25 c13 -26 6 -38
-17 -30 -9 4 -15 18 -15 35 0 31 12 52 18 30 2 -7 8 -23 14 -35z"/>
<path d="M1771 2628 c-5 -18 -10 -25 -10 -15 -1 26 -17 12 -24 -20 -3 -16 -9
-36 -12 -46 -5 -11 3 -7 23 11 18 17 33 44 37 65 9 46 -1 49 -14 5z"/>
<path d="M6754 2612 c-34 -15 -68 -32 -75 -38 -8 -7 -24 -15 -37 -18 -12 -4
-20 -12 -16 -17 3 -5 28 2 57 17 95 50 105 54 121 54 9 0 16 7 16 15 0 18 7
20 -66 -13z"/>
<path d="M1910 2599 c-6 -11 -10 -25 -8 -30 2 -5 8 4 15 21 13 34 9 40 -7 9z"/>
<path d="M8056 2591 c-4 -6 -3 -19 3 -28 9 -17 10 -17 17 0 8 21 -10 45 -20
28z"/>
<path d="M6475 2520 c-10 -17 -1 -22 52 -27 26 -2 59 -10 71 -16 22 -10 23
-16 18 -59 -9 -69 2 -84 71 -94 32 -4 71 -8 88 -8 30 -1 44 -17 87 -95 23 -42
43 -48 86 -23 42 23 104 18 138 -11 10 -10 38 -33 62 -53 l43 -37 44 32 c25
18 70 39 102 47 53 14 61 13 125 -6 54 -16 71 -26 78 -45 5 -13 18 -30 30 -37
11 -7 20 -22 20 -34 0 -11 11 -31 25 -44 l25 -24 39 22 c48 27 85 28 122 1 28
-19 49 -19 49 2 0 5 -21 19 -47 30 -49 21 -81 19 -130 -6 -24 -12 -27 -11 -50
16 -13 16 -21 33 -18 39 12 19 -77 97 -125 111 -82 23 -185 10 -235 -30 -28
-21 -60 -28 -67 -13 -7 16 -106 72 -129 73 -13 0 -33 4 -44 8 -12 5 -33 3 -54
-5 -31 -13 -36 -13 -50 3 -9 10 -23 32 -30 50 -19 47 -31 53 -123 66 l-83 12
-5 59 c-4 50 -9 62 -32 79 -33 24 -141 37 -153 17z"/>
<path d="M7070 2490 c-158 -45 -196 -59 -163 -59 18 -1 56 9 85 20 87 35 164
48 193 33 14 -7 27 -9 30 -4 7 12 -28 30 -57 29 -13 0 -52 -9 -88 -19z"/>
<path d="M7545 2460 c-16 -23 -60 -61 -106 -90 -78 -50 -96 -66 -85 -77 3 -3
18 6 32 20 15 15 30 27 34 27 3 0 30 18 59 39 52 39 122 121 103 121 -5 0 -22
-18 -37 -40z"/>
<path d="M1473 2473 c3 -10 11 -39 18 -65 7 -27 17 -48 21 -48 9 0 1 45 -13
72 -5 9 -9 26 -9 37 0 12 -5 21 -11 21 -6 0 -9 -8 -6 -17z"/>
<path d="M7665 2480 c28 -12 37 -12 30 0 -3 6 -16 10 -28 9 -21 0 -21 -1 -2
-9z"/>
<path d="M7035 2405 c-21 -30 -36 -58 -32 -61 3 -3 13 7 23 23 9 15 26 41 36
56 11 16 18 31 15 33 -2 3 -21 -20 -42 -51z"/>
<path d="M1863 2418 c-15 -20 -25 -38 -20 -38 3 0 12 11 21 25 17 26 16 35 -1
13z"/>
<path d="M8150 2401 c0 -5 -10 -12 -22 -14 -20 -4 -19 -4 5 -6 18 -1 27 4 27
14 0 8 -2 15 -5 15 -3 0 -5 -4 -5 -9z"/>
<path d="M1836 2339 c-10 -17 -16 -33 -13 -36 3 -3 13 9 22 27 21 41 14 48 -9
9z"/>
<path d="M7492 2332 c-14 -31 -15 -42 -3 -42 9 0 26 58 19 65 -2 2 -9 -8 -16
-23z"/>
<path d="M8066 2317 c-17 -12 -15 -16 33 -59 28 -25 51 -51 51 -57 0 -7 7 -14
16 -18 25 -9 32 -44 23 -108 -8 -49 -15 -65 -41 -87 -32 -28 -81 -37 -93 -18
-9 14 -31 12 -47 -3 -7 -7 -29 -25 -49 -40 l-37 -28 -30 38 c-36 45 -54 37
-27 -13 29 -55 38 -58 84 -27 22 14 41 30 41 34 0 5 9 13 21 19 15 9 24 8 35
0 7 -7 25 -9 39 -6 35 9 64 -20 142 -143 65 -104 108 -163 165 -224 15 -17 28
-35 28 -40 0 -5 11 -23 25 -42 24 -30 70 -53 83 -41 6 7 -28 46 -40 46 -17 0
-71 70 -193 252 -69 103 -133 192 -143 198 -15 9 -15 12 9 33 38 32 49 59 49
118 0 61 5 58 50 -26 46 -87 139 -210 252 -334 22 -24 48 -58 59 -75 13 -21
19 -25 19 -13 0 21 13 22 30 2 8 -10 11 -31 7 -60 -6 -42 -5 -44 12 -33 26 16
33 77 12 101 -8 10 -29 24 -46 31 -29 12 -95 82 -175 186 -45 57 -56 71 -91
110 -16 18 -41 53 -55 78 -40 71 -83 132 -105 145 -26 16 -25 41 1 34 11 -3
22 -1 26 4 5 9 -74 45 -92 41 -6 -1 -15 7 -20 18 -8 18 -11 19 -28 7z"/>
<path d="M7915 2276 c8 -47 18 -63 63 -101 19 -16 52 -53 74 -82 22 -30 42
-52 45 -49 7 6 -80 119 -110 143 -12 10 -29 34 -37 53 -7 19 -20 44 -28 55
-13 18 -13 17 -7 -19z"/>
<path d="M7714 2240 c-6 -14 -14 -54 -17 -90 -3 -47 -2 -58 5 -40 5 13 14 27
19 31 6 3 9 32 7 65 -3 53 -5 56 -14 34z"/>
<path d="M7755 2245 c4 -11 11 -38 17 -59 5 -21 17 -51 27 -65 10 -14 21 -33
24 -41 5 -13 5 -13 6 0 0 8 -11 33 -24 55 -14 22 -25 52 -25 66 0 14 -7 34
-16 45 -15 19 -16 19 -9 -1z"/>
<path d="M8318 2238 c-53 -14 -47 -28 12 -28 28 0 65 -7 81 -16 17 -8 40 -13
52 -11 20 3 20 4 -7 15 -15 7 -40 21 -54 32 -27 22 -30 22 -84 8z"/>
<path d="M8050 2212 c0 -12 19 -26 26 -19 2 2 -2 10 -11 17 -9 8 -15 8 -15 2z"/>
<path d="M7962 2125 c0 -16 2 -22 5 -12 2 9 2 23 0 30 -3 6 -5 -1 -5 -18z"/>
<path d="M8657 2093 c-4 -3 -7 -21 -7 -39 0 -21 -6 -37 -17 -43 -10 -6 -13
-10 -8 -11 23 0 38 20 45 59 7 38 2 50 -13 34z"/>
<path d="M8541 2056 c-5 -6 -18 -31 -30 -56 l-22 -45 26 30 c14 17 28 38 31
48 3 9 12 17 20 17 8 0 14 4 14 8 0 12 -29 11 -39 -2z"/>
<path d="M7966 2035 c-9 -26 -7 -32 5 -12 6 10 9 21 6 23 -2 3 -7 -2 -11 -11z"/>
<path d="M8585 1990 c4 -11 -1 -34 -9 -52 -16 -31 -22 -67 -9 -54 11 11 41
114 35 121 -13 12 -23 3 -17 -15z"/>
<path d="M8697 1903 c-14 -13 -7 -43 11 -43 12 0 14 2 4 8 -7 5 -10 16 -6 25
6 18 2 22 -9 10z"/>
<path d="M8747 1893 c-16 -15 -7 -62 13 -68 22 -7 40 0 40 16 0 6 -7 6 -19 -1
-25 -13 -34 1 -21 34 9 24 2 35 -13 19z"/>
<path d="M8883 1798 c-28 -35 -21 -91 8 -72 8 5 8 8 0 14 -9 5 -9 14 -1 35 12
31 8 42 -7 23z"/>
<path d="M8930 1726 c0 -38 20 -52 49 -34 23 14 44 48 35 56 -4 4 -9 1 -11 -5
-3 -7 -13 -23 -23 -35 -15 -18 -21 -20 -31 -11 -10 10 -10 18 -1 38 10 21 9
25 -3 25 -10 0 -15 -11 -15 -34z"/>
<path d="M8586 1515 c4 -8 8 -15 10 -15 2 0 4 7 4 15 0 8 -4 15 -10 15 -5 0
-7 -7 -4 -15z"/>
<path d="M5328 1083 c-6 -116 2 -124 117 -116 l82 6 5 -39 c7 -50 3 -142 -11
-269 -17 -163 -15 -211 11 -229 31 -22 81 -20 102 3 18 20 23 78 28 360 1 87
6 145 13 147 5 2 30 5 55 7 45 4 89 21 91 35 16 111 12 113 -245 114 -113 0
-209 4 -212 9 -14 23 -34 7 -36 -28z m455 -22 c5 -5 7 -24 5 -42 -3 -34 -3
-34 -72 -44 -54 -8 -70 -14 -76 -30 -8 -23 -24 -335 -21 -411 3 -65 -22 -98
-58 -75 -11 7 -12 33 -6 137 11 201 13 330 6 366 l-7 33 -89 0 -90 0 -3 28
c-7 55 -10 55 204 50 109 -2 202 -7 207 -12z"/>
<path d="M6796 1089 c-35 -28 -77 -94 -88 -139 -9 -40 -15 -94 -23 -236 -6
-103 11 -219 38 -255 7 -9 38 -24 70 -33 103 -30 163 5 205 117 26 69 28 100
8 117 -21 17 -41 3 -85 -61 -33 -47 -42 -54 -71 -54 -29 0 -35 4 -43 30 -4 17
-8 77 -8 134 0 129 24 233 62 275 27 30 28 30 47 12 12 -10 18 -24 15 -32 -9
-24 6 -61 28 -67 45 -12 84 81 59 142 -25 61 -160 93 -214 50z m145 -20 c35
-14 51 -47 47 -95 -4 -51 -31 -54 -38 -4 -3 24 -13 39 -32 49 -25 14 -29 14
-55 -5 -65 -47 -101 -196 -88 -368 9 -115 30 -139 103 -120 13 4 38 30 57 60
65 102 87 48 28 -67 -35 -67 -61 -83 -116 -75 -53 9 -82 28 -104 69 -15 27
-18 57 -17 192 0 198 17 287 64 339 43 47 81 53 151 25z"/>
<path d="M8445 1084 c-34 -36 -31 -51 11 -71 34 -17 36 -17 50 2 19 26 18 59
-4 78 -24 22 -29 22 -57 -9z m45 -19 c13 -16 6 -35 -15 -35 -18 0 -28 17 -21
35 7 19 20 19 36 0z"/>
<path d="M5860 1085 c0 -7 7 -19 16 -26 14 -12 16 -34 11 -164 -3 -82 -11
-210 -18 -283 -15 -148 -11 -165 38 -170 49 -5 64 22 74 140 4 57 8 119 9 138
0 43 8 55 40 63 52 13 54 4 37 -169 -9 -96 -12 -165 -7 -175 14 -25 56 -30 75
-9 9 10 18 37 20 61 10 104 16 210 18 288 1 76 -1 85 -22 102 -19 15 -33 17
-82 12 l-59 -6 0 87 c0 120 -5 127 -86 125 -43 -1 -64 -6 -64 -14z m116 -17
c4 -7 7 -49 6 -94 -2 -108 7 -119 94 -109 57 6 63 5 69 -14 8 -28 -4 -316 -16
-363 -7 -28 -13 -36 -26 -31 -13 5 -15 17 -9 72 18 201 19 256 2 270 -18 15
-112 6 -123 -12 -4 -7 -10 -74 -14 -151 -5 -103 -11 -142 -22 -153 -40 -40
-47 33 -22 232 17 140 20 298 5 326 -6 11 -8 24 -5 29 9 14 52 12 61 -2z"/>
<path d="M4325 1069 c-4 -12 -4 -50 0 -85 7 -68 6 -70 -27 -53 -29 15 -93 -6
-120 -40 -42 -54 -51 -92 -56 -233 -4 -128 -3 -139 18 -173 37 -60 118 -84
167 -50 15 11 28 12 45 6 26 -10 63 1 70 21 3 8 -1 47 -9 88 -14 73 -14 119 3
370 3 47 7 95 10 108 3 17 -3 27 -28 42 -42 26 -65 25 -73 -1z m55 -19 c22
-14 17 -130 -7 -148 -13 -9 -15 -15 -6 -20 14 -9 16 -166 4 -211 -7 -23 7
-130 25 -188 5 -20 3 -23 -19 -23 -14 0 -31 8 -36 18 -9 16 -11 15 -26 -5 -28
-40 -108 -25 -142 26 -22 33 -31 244 -14 308 23 86 105 139 151 98 30 -28 42
-9 40 64 -3 100 -2 102 30 81z"/>
<path d="M4223 865 c-32 -23 -43 -75 -40 -203 2 -111 3 -114 30 -138 35 -30
58 -30 85 -1 18 19 22 39 28 133 9 146 1 198 -32 213 -33 15 -45 14 -71 -4z
m68 -22 c16 -18 20 -236 6 -285 -10 -38 -50 -38 -74 -1 -15 23 -18 47 -16 145
1 65 7 127 13 138 13 24 52 26 71 3z"/>
<path d="M8181 1081 c-12 -7 -10 -15 7 -42 46 -76 55 -138 50 -354 -3 -112 -1
-212 4 -227 5 -15 20 -34 33 -42 22 -15 28 -15 65 0 45 18 49 28 19 52 -29 24
-38 111 -28 257 9 120 5 209 -12 275 -6 26 -20 42 -52 63 -47 29 -63 32 -86
18z m112 -79 c7 -18 11 -107 12 -267 0 -212 2 -244 18 -268 21 -33 21 -37 -1
-37 -11 0 -27 9 -38 21 -18 20 -19 36 -16 243 4 217 3 222 -22 290 -14 38 -26
70 -26 72 0 15 63 -32 73 -54z"/>
<path d="M3631 1029 c-25 -27 -13 -56 26 -65 50 -13 80 30 47 67 -22 25 -48
24 -73 -2z m59 -30 c0 -15 -4 -19 -16 -15 -9 3 -18 6 -20 6 -2 0 -4 7 -4 15 0
8 9 15 20 15 14 0 20 -7 20 -21z"/>
<path d="M935 1017 c-40 -58 -3 -110 71 -100 23 3 59 2 79 -1 l37 -7 -7 -47
c-11 -74 -13 -385 -2 -408 11 -25 44 -42 70 -36 34 7 41 51 45 285 l4 228 47
-2 c58 -3 71 4 71 41 0 51 -25 58 -222 64 -173 4 -178 4 -193 -17z m247 -9
c65 2 115 -1 127 -8 23 -12 29 -49 9 -51 -7 -1 -26 -2 -43 -3 -75 -5 -70 9
-68 -236 2 -215 2 -220 -20 -244 -17 -18 -27 -22 -39 -15 -14 8 -16 35 -12
249 l4 240 -32 2 c-18 1 -58 2 -88 2 -50 1 -55 3 -58 24 -7 47 3 55 61 45 28
-4 100 -7 159 -5z"/>
<path d="M1403 1023 c-24 -5 -31 -27 -13 -38 11 -7 7 -445 -4 -464 -10 -16 14
-109 30 -115 16 -6 54 10 66 28 4 6 8 73 8 149 l0 138 43 -3 42 -3 0 -132 c0
-110 3 -135 17 -149 23 -23 63 -11 76 23 12 30 10 211 -3 296 -10 62 -48 94
-120 99 l-50 3 0 71 c0 97 -14 112 -92 97z m64 -102 c2 -41 7 -79 12 -84 5 -5
26 -10 47 -12 89 -5 99 -15 123 -110 11 -42 14 -190 5 -237 -6 -28 -27 -37
-40 -17 -3 6 -7 66 -8 133 0 66 -5 127 -9 134 -9 14 -95 16 -116 3 -10 -7 -13
-38 -12 -138 2 -142 -2 -163 -29 -163 -23 0 -31 44 -24 125 3 33 6 147 6 253
1 190 2 193 22 190 19 -3 21 -11 23 -77z"/>
<path d="M2262 1019 c-33 -8 -51 -21 -81 -60 -45 -56 -55 -109 -56 -279 0
-115 16 -177 60 -224 29 -32 38 -36 81 -36 27 0 60 6 73 13 72 37 106 187 43
187 -24 0 -60 -35 -68 -65 -8 -31 -34 -32 -60 -4 -38 42 -25 290 18 345 28 35
62 32 73 -8 13 -42 26 -44 64 -12 28 23 32 32 29 68 -3 37 -7 43 -41 59 -51
24 -83 28 -135 16z m118 -34 c30 -16 35 -31 24 -72 -8 -30 -22 -29 -33 1 -12
29 -40 37 -77 21 -40 -16 -53 -35 -70 -97 -14 -55 -19 -201 -8 -257 8 -37 55
-75 81 -66 10 3 30 23 45 45 32 46 44 50 50 17 8 -40 -27 -105 -66 -124 -50
-24 -92 -9 -131 46 l-30 43 0 156 c0 167 10 218 49 261 11 13 30 27 41 31 33
14 94 11 125 -5z"/>
<path d="M3370 1022 c-14 -5 -26 -16 -28 -26 -3 -15 -1 -16 16 -7 51 27 134
-3 164 -59 22 -42 23 -85 3 -133 -12 -29 -23 -38 -55 -47 -50 -14 -51 -26 -1
-34 21 -3 44 -13 51 -21 18 -21 25 -151 11 -201 -15 -56 -41 -68 -129 -59
l-71 7 0 269 c0 148 -3 274 -6 279 -3 6 -13 10 -22 10 -11 0 -13 -5 -7 -17 4
-10 8 -139 8 -288 l1 -270 88 -9 c106 -10 127 -2 158 61 35 73 25 216 -17 248
-13 9 -12 16 10 55 44 78 29 164 -38 215 -37 28 -93 39 -136 27z"/>
<path d="M3370 945 c-5 -14 -10 -59 -10 -99 0 -66 2 -74 21 -79 24 -6 77 10
101 30 56 49 12 148 -74 169 -24 5 -29 2 -38 -21z m84 -16 c21 -16 26 -29 26
-63 0 -51 -25 -79 -66 -74 -25 3 -28 7 -30 48 -5 107 15 132 70 89z"/>
<path d="M7776 937 c-22 -29 -27 -50 -36 -149 -5 -64 -14 -126 -18 -139 -9
-22 -9 -22 -20 11 -6 19 -13 49 -17 66 -7 38 -39 74 -65 74 -27 0 -77 -75 -96
-142 -9 -32 -21 -61 -25 -64 -12 -7 -13 10 -9 126 5 131 1 168 -22 190 -25 23
-88 28 -88 7 0 -7 8 -24 18 -37 14 -21 17 -50 18 -200 1 -144 4 -181 18 -207
10 -21 24 -33 36 -33 11 0 36 15 55 33 30 27 39 47 58 122 12 50 27 90 32 90
17 0 34 -66 34 -134 1 -46 7 -73 21 -96 26 -42 41 -47 68 -26 27 20 45 85 67
231 8 58 23 144 32 191 9 47 13 94 10 103 -10 26 -44 18 -71 -17z m47 -39 c-2
-24 -8 -56 -13 -72 -6 -16 -10 -47 -10 -70 0 -69 -30 -217 -53 -263 -20 -39
-24 -42 -41 -30 -12 9 -21 39 -31 102 -21 138 -41 175 -74 139 -10 -11 -23
-44 -30 -74 -28 -120 -48 -160 -82 -160 -29 0 -41 37 -45 139 -2 53 -6 142 -9
198 -4 87 -3 101 10 97 8 -3 17 -15 21 -26 9 -29 12 -153 4 -202 -6 -43 5
-106 18 -106 22 0 42 32 61 96 22 72 50 114 76 114 21 0 41 -37 60 -110 20
-76 34 -105 45 -94 10 11 30 151 35 247 4 70 24 117 49 117 9 0 12 -12 9 -42z"/>
<path d="M8020 961 c-73 -22 -114 -86 -101 -156 11 -57 25 -80 68 -106 47 -29
57 -38 81 -78 33 -54 5 -111 -54 -111 -29 0 -36 6 -53 38 -26 51 -48 69 -69
56 -26 -17 -32 -61 -15 -102 46 -110 171 -131 257 -43 39 40 39 41 40 118 0
89 -21 139 -64 150 -14 3 -42 17 -62 30 -32 20 -38 29 -38 59 0 75 41 99 66
39 17 -42 54 -48 78 -13 24 34 19 57 -18 94 -35 35 -63 41 -116 25z m112 -52
c22 -26 25 -35 15 -50 -17 -28 -31 -23 -48 14 -20 46 -58 48 -93 7 -50 -60
-26 -120 63 -159 64 -27 85 -63 85 -146 1 -49 -4 -66 -22 -90 -31 -39 -59 -54
-102 -55 -64 0 -121 49 -135 118 -9 45 19 43 41 -3 43 -91 169 -65 175 36 4
47 -18 80 -82 123 -66 44 -78 63 -80 123 -3 81 42 127 116 119 30 -3 47 -13
67 -37z"/>
<path d="M4036 925 c-32 -24 -100 -29 -130 -10 -22 14 -32 16 -51 7 -30 -14
-31 -21 -4 -66 20 -34 21 -50 20 -230 0 -209 5 -235 47 -222 42 14 51 51 52
222 0 87 -1 168 -2 178 -2 13 7 25 24 35 25 15 28 14 47 -6 34 -36 89 -7 77
42 -6 22 -42 65 -55 65 -3 0 -14 -7 -25 -15z m-134 -32 c17 -15 26 -15 81 -5
100 20 100 20 111 -10 15 -42 -1 -48 -45 -17 -21 15 -63 4 -88 -23 -17 -18
-23 -19 -36 -8 -26 22 -26 6 1 -46 23 -45 25 -60 26 -175 0 -128 -9 -169 -37
-169 -19 0 -18 -7 -16 195 2 149 0 177 -17 223 -21 54 -14 66 20 35z"/>
<path d="M8420 928 c0 -6 10 -23 23 -36 22 -23 22 -28 19 -242 -2 -196 0 -220
16 -240 15 -18 24 -21 54 -15 20 4 45 13 55 20 15 12 16 16 3 41 -11 22 -15
75 -16 223 l-1 194 -27 24 c-15 12 -40 23 -56 23 -16 0 -32 5 -35 10 -9 14
-35 13 -35 -2z m111 -60 c8 -15 11 -76 10 -182 -1 -148 4 -201 24 -248 6 -15
2 -18 -23 -18 -16 0 -34 6 -40 13 -16 19 -11 457 5 457 7 0 18 -10 24 -22z"/>
<path d="M7176 909 c-44 -35 -58 -76 -72 -211 -10 -105 -10 -134 1 -172 20
-67 33 -86 68 -101 58 -24 127 25 153 110 29 95 11 282 -33 352 -12 18 -60 43
-83 43 -4 0 -19 -9 -34 -21z m48 -8 c3 -4 18 -11 33 -14 26 -5 29 -12 46 -84
45 -204 -11 -390 -107 -353 -61 23 -87 149 -62 294 9 49 16 92 16 97 0 11 50
69 60 69 5 0 11 -4 14 -9z"/>
<path d="M7202 839 c-25 -26 -32 -69 -32 -201 0 -84 3 -110 16 -122 32 -33 59
-16 79 50 29 95 14 257 -25 282 -16 10 -23 8 -38 -9z m44 -26 c30 -40 10 -279
-24 -291 -25 -8 -35 42 -29 157 5 119 11 151 29 151 6 0 17 -8 24 -17z"/>
<path d="M8755 920 c-37 -13 -20 -22 50 -25 103 -3 112 -8 130 -68 21 -71 15
-273 -10 -340 -21 -57 -37 -66 -77 -42 -30 17 -31 17 -54 -6 -21 -21 -24 -36
-29 -119 -11 -195 -16 -239 -32 -251 -25 -21 -35 9 -28 86 3 39 8 201 11 360
6 297 1 358 -31 385 -25 21 -29 4 -10 -42 21 -50 25 -222 12 -433 -14 -237
-12 -364 6 -382 21 -22 65 -4 71 29 2 13 9 48 15 78 6 30 13 103 15 163 1 59
6 110 9 114 4 3 24 0 46 -7 49 -16 72 -8 93 32 19 37 48 181 48 243 2 174 -35
229 -155 231 -33 1 -69 -1 -80 -6z"/>
<path d="M3674 910 c-33 -13 -36 -25 -19 -85 14 -47 15 -75 6 -192 -8 -119 -8
-142 6 -171 19 -41 45 -55 84 -47 39 9 44 25 25 77 -12 32 -17 85 -19 209 -2
170 -6 187 -46 208 -9 5 -26 5 -37 1z m43 -32 c18 -23 25 -90 24 -225 -1 -99
2 -141 14 -169 19 -46 19 -44 -10 -44 -48 0 -56 31 -59 227 -1 98 -6 188 -10
201 -7 18 -5 22 12 22 11 0 24 -6 29 -12z"/>
<path d="M6330 892 c-19 -9 -42 -31 -52 -48 -25 -44 -51 -205 -45 -286 7 -111
44 -144 151 -135 80 7 113 39 122 117 11 101 -43 123 -76 31 -24 -69 -69 -78
-89 -19 -13 36 -15 98 -3 99 4 0 34 3 67 5 33 2 63 8 68 13 5 5 15 34 22 64
11 48 11 58 -7 96 -14 32 -30 47 -61 62 -52 23 -54 23 -97 1z m92 -24 c26 -20
58 -81 58 -108 0 -14 -6 -36 -13 -50 -11 -22 -20 -26 -82 -30 l-70 -5 -3 -67
c-3 -62 -1 -70 23 -94 21 -21 32 -25 58 -20 36 7 57 30 57 61 0 27 25 62 34
47 11 -18 -17 -111 -41 -134 -16 -15 -35 -21 -67 -21 -97 0 -122 52 -106 222
6 61 15 121 20 133 27 65 92 97 132 66z"/>
<path d="M6339 786 c-28 -64 -20 -76 49 -71 63 5 74 15 61 57 -12 43 -28 58
-61 58 -25 0 -32 -6 -49 -44z m89 -20 c3 -24 0 -26 -32 -26 -30 0 -36 4 -36
21 0 11 5 29 11 40 9 18 13 19 32 6 12 -8 23 -26 25 -41z"/>
<path d="M2790 886 c-23 -8 -34 -17 -31 -26 12 -45 19 -135 20 -245 0 -138 15
-195 50 -195 35 0 58 34 84 122 14 45 27 92 29 103 8 47 24 13 39 -85 20 -124
26 -140 48 -140 36 0 96 100 116 190 4 19 12 46 18 60 6 14 11 32 12 40 1 8 8
47 15 87 14 75 7 103 -26 103 -15 0 -42 -36 -47 -65 -8 -44 -41 -169 -54 -205
-3 -8 -15 22 -27 67 -22 79 -47 123 -70 123 -18 0 -54 -61 -79 -131 l-22 -64
-6 130 c-3 72 -7 131 -8 131 -9 10 -33 9 -61 0z m48 -156 c1 -74 4 -141 7
-149 9 -25 33 7 50 67 25 90 53 144 72 140 15 -3 40 -64 70 -172 4 -16 13 -31
20 -33 12 -4 17 9 58 162 26 94 47 137 61 123 3 -4 -2 -44 -11 -89 -34 -164
-108 -349 -131 -326 -4 3 -17 56 -29 118 -24 118 -44 157 -64 121 -6 -10 -15
-37 -20 -58 -6 -22 -21 -70 -34 -109 -18 -54 -28 -71 -44 -73 -29 -4 -31 8
-38 188 -3 85 -8 167 -11 182 -7 33 2 50 24 46 15 -3 17 -22 20 -138z"/>
<path d="M2555 865 c-50 -22 -75 -79 -81 -187 -7 -107 6 -196 35 -237 18 -25
25 -28 72 -25 73 3 78 9 120 174 25 102 -1 272 -44 284 -33 9 -69 6 -102 -9z
m106 -52 c20 -41 24 -61 22 -133 -2 -130 -46 -250 -92 -250 -9 0 -25 8 -37 18
-83 70 -72 369 15 401 52 19 66 14 92 -36z"/>
<path d="M2558 772 c-34 -58 -40 -249 -9 -286 16 -19 45 -21 60 -3 18 23 53
189 48 230 -6 42 -40 87 -67 87 -8 0 -23 -13 -32 -28z m65 -11 c23 -22 -1
-233 -31 -263 -22 -22 -35 25 -36 125 -1 129 6 161 37 151 12 -3 25 -9 30 -13z"/>
<path d="M1830 862 c-14 -2 -38 -16 -53 -30 -53 -49 -60 -76 -61 -212 -1 -110
1 -128 19 -151 64 -85 170 -77 215 16 17 34 20 51 13 72 -14 40 -27 39 -76 -6
-24 -23 -47 -41 -50 -41 -20 0 -47 48 -47 83 0 36 2 39 23 33 83 -25 147 -10
147 34 0 10 4 21 9 24 5 3 6 27 3 53 -11 102 -52 138 -142 125z m76 -30 c13
-8 44 -94 44 -122 0 -33 -22 -69 -44 -72 -11 -2 -41 1 -65 6 -38 9 -45 7 -58
-10 -29 -39 7 -134 50 -134 13 0 36 14 52 30 16 17 35 30 42 30 23 0 15 -56
-13 -89 -21 -26 -33 -31 -68 -31 -34 0 -48 6 -71 30 -28 29 -30 36 -33 130 -6
132 2 167 45 207 26 25 43 33 71 33 20 0 42 -4 48 -8z"/>
<path d="M1809 779 c-52 -56 -31 -89 56 -89 53 0 64 15 45 61 -12 28 -45 59
-63 59 -5 0 -22 -14 -38 -31z m69 -1 c19 -19 15 -68 -5 -68 -58 1 -81 24 -57
59 17 23 44 27 62 9z"/>
<path d="M8781 832 c-12 -22 -15 -202 -5 -265 5 -28 14 -42 35 -52 27 -14 58
-11 70 8 3 5 7 70 8 146 2 154 -3 168 -61 177 -30 5 -38 3 -47 -14z m57 -10
c21 -21 30 -85 28 -207 -1 -79 -2 -80 -25 -77 -14 1 -27 5 -30 8 -3 3 -8 58
-11 122 -7 174 -2 194 38 154z"/>
<path d="M3995 780 c3 -5 8 -10 11 -10 2 0 4 5 4 10 0 6 -5 10 -11 10 -5 0 -7
-4 -4 -10z"/>
<path d="M3408 678 c-11 -9 -17 -39 -22 -101 -7 -96 -2 -106 49 -93 35 9 55
45 62 109 5 47 2 58 -16 76 -24 24 -50 27 -73 9z m63 -35 c12 -33 6 -97 -11
-118 -7 -8 -21 -15 -31 -15 -17 0 -19 8 -19 80 0 79 0 80 25 80 19 0 28 -8 36
-27z"/>
<path d="M4533 553 c-31 -6 -45 -27 -46 -68 -1 -48 13 -59 59 -49 38 9 44 20
45 77 0 19 -19 48 -30 46 -3 -1 -16 -4 -28 -6z m22 -58 c0 -23 -5 -31 -22 -33
-20 -3 -23 1 -23 33 0 32 3 36 23 33 17 -2 22 -10 22 -33z"/>
<path d="M9020 495 c-16 -38 -17 -49 -7 -65 32 -52 111 0 105 69 -3 34 -5 36
-41 39 -36 3 -38 1 -57 -43z m67 9 c8 -21 -13 -64 -32 -64 -10 0 -15 10 -15
33 0 19 3 37 7 40 12 12 33 7 40 -9z"/>
</g>
</svg>
