<?xml version="1.0" encoding="utf-8"?>
<svg xmlns="http://www.w3.org/2000/svg" height="148.0pt" version="1.1" width="1000.0pt" viewBox="0 0 1000 148">
	<path d="M 861.81 10.27 C 864.50 11.36 865.57 13.80 866.87 16.17 C 867.51 16.53 868.15 16.88 868.79 17.24 C 872.57 16.71 877.77 15.24 878.91 20.30 C 878.01 21.10 877.11 21.90 876.20 22.70 C 876.75 23.59 877.30 24.49 877.85 25.39 C 879.63 25.80 881.41 26.22 883.19 26.63 C 883.09 28.51 883.38 30.68 882.22 32.27 C 880.60 34.86 877.77 36.44 878.10 39.82 C 880.13 42.46 882.59 44.68 884.37 47.53 C 882.67 49.93 881.09 52.42 879.59 54.96 C 880.68 56.33 881.77 57.70 882.86 59.08 C 882.44 60.54 882.06 62.08 881.44 63.46 C 879.65 67.95 873.48 67.95 871.60 72.84 C 876.49 72.96 881.12 71.82 885.79 70.55 C 887.61 69.24 889.22 66.69 891.73 67.50 C 892.57 68.68 893.32 69.92 894.08 71.16 C 893.03 72.23 892.05 73.30 890.88 74.23 C 887.79 74.38 884.53 73.37 881.47 73.61 C 877.09 73.96 872.53 74.92 868.14 74.67 C 866.63 74.59 865.77 73.44 864.68 72.55 C 866.58 72.79 868.45 73.14 870.32 73.51 C 870.36 72.61 870.40 71.71 870.44 70.81 C 871.96 69.46 873.42 68.07 874.85 66.63 C 875.64 66.49 876.42 66.34 877.20 66.19 C 878.05 64.83 878.90 63.46 879.76 62.10 C 878.99 59.72 877.92 57.40 877.35 54.96 C 877.47 52.29 879.30 49.73 879.76 47.06 C 879.49 45.53 877.81 44.21 876.92 42.95 C 873.29 43.63 869.67 44.29 866.01 44.78 C 855.14 46.19 844.96 49.77 834.05 50.86 C 826.36 52.72 818.56 53.15 810.74 54.14 C 808.35 54.40 805.96 54.47 803.56 54.46 C 804.72 53.75 805.94 52.98 807.21 52.51 C 815.01 50.06 822.98 49.27 830.93 47.72 C 836.73 46.12 842.61 46.92 848.45 45.64 C 857.40 43.92 866.32 42.39 875.46 42.13 C 875.42 40.65 875.39 39.18 875.35 37.70 C 877.80 34.55 879.92 31.39 881.26 27.60 C 879.37 27.13 877.48 26.66 875.58 26.23 C 875.10 25.15 874.61 24.13 874.27 23.01 C 874.61 21.42 875.29 19.88 875.83 18.35 C 872.78 18.37 869.50 19.04 866.51 18.47 C 862.98 16.04 861.73 12.31 857.12 11.33 C 855.85 12.20 854.57 13.06 853.27 13.90 C 852.98 14.66 852.69 15.42 852.40 16.17 C 848.55 18.84 844.88 21.81 840.97 24.40 C 839.02 24.26 837.08 23.66 835.18 23.21 C 835.42 21.66 835.66 20.12 835.91 18.57 C 833.64 17.65 831.71 17.18 829.40 18.35 C 825.53 20.34 822.45 23.52 818.60 25.60 C 814.57 28.57 810.60 30.71 805.66 31.77 C 807.91 29.20 810.88 28.71 813.61 26.66 C 816.71 24.38 820.06 22.47 823.21 20.24 C 826.26 18.10 830.22 15.83 834.03 15.79 C 835.74 16.46 837.36 17.57 838.92 18.54 C 838.32 19.89 837.71 21.24 837.11 22.59 C 838.31 22.48 840.09 22.95 841.12 22.24 C 845.63 19.00 849.43 15.16 853.47 11.43 C 855.57 9.36 859.20 9.42 861.81 10.27 Z"/>
	<path d="M 854.75 21.90 C 848.05 26.75 840.89 28.90 833.46 32.19 C 830.37 33.42 827.10 33.70 823.97 34.83 C 820.45 36.09 816.86 37.05 813.23 37.95 C 813.24 37.01 813.26 36.06 813.28 35.12 C 817.75 33.56 822.26 33.30 826.94 32.19 C 832.04 31.15 836.70 29.25 841.60 27.55 C 846.14 25.88 850.01 23.12 854.75 21.90 Z"/>
	<path d="M 798.75 28.49 C 798.65 29.29 798.56 30.10 798.46 30.90 C 800.05 30.63 801.64 30.37 803.24 30.13 C 797.54 33.92 791.14 35.56 785.61 39.63 C 781.88 42.24 777.65 43.46 774.18 46.48 C 778.48 46.39 782.70 45.59 786.99 45.53 C 793.36 45.43 799.74 45.74 806.11 45.74 C 807.94 45.72 809.53 45.09 811.27 44.57 C 816.14 42.94 821.27 43.00 826.26 41.69 C 833.44 39.82 840.63 39.38 847.29 36.58 C 854.63 33.59 862.32 32.47 869.90 30.17 C 864.10 34.63 857.67 34.54 851.16 37.17 C 846.97 38.68 843.30 41.02 839.06 42.22 C 830.54 44.51 821.97 46.33 813.11 46.50 C 803.33 47.82 793.10 47.43 783.28 46.56 C 779.91 47.49 776.48 47.57 773.01 47.69 L 774.85 45.19 C 769.72 47.27 764.42 48.46 759.10 49.90 C 758.57 52.74 756.93 53.10 754.57 54.14 C 755.59 52.89 756.70 51.71 757.82 50.54 C 755.15 51.11 752.14 51.42 749.70 52.69 C 747.17 54.00 745.25 56.43 743.30 58.50 C 742.39 58.49 741.48 58.49 740.57 58.49 C 740.57 59.31 740.56 60.14 740.55 60.96 C 731.05 64.27 723.96 70.08 715.15 74.54 C 715.35 73.67 715.54 72.81 715.74 71.95 C 722.06 69.32 727.39 64.88 733.65 62.01 C 732.85 61.39 732.06 60.78 731.26 60.16 C 735.71 58.02 740.16 55.80 744.44 53.35 C 740.58 53.47 737.29 55.81 734.01 57.59 C 734.87 55.90 735.82 54.25 736.75 52.59 C 741.58 51.42 746.03 49.72 751.02 49.32 C 754.21 48.95 756.93 47.79 759.93 46.75 C 765.88 44.56 771.91 43.78 777.46 40.54 C 783.35 37.90 788.63 33.98 794.72 31.91 C 794.18 31.30 793.63 30.68 793.09 30.07 C 789.12 30.41 785.35 31.43 781.51 32.36 C 771.06 34.20 760.54 34.93 749.94 34.87 C 742.02 34.13 733.94 34.52 726.02 35.16 C 717.92 35.15 709.78 38.74 703.14 43.16 C 698.49 47.20 694.91 53.97 688.47 56.61 C 685.44 58.32 681.06 56.37 679.55 53.43 C 676.83 49.15 674.40 44.70 671.54 40.49 C 666.14 35.50 659.06 34.35 651.99 35.65 C 645.07 36.57 639.25 39.57 632.79 42.01 C 625.61 45.45 618.76 49.72 612.14 54.13 C 607.28 57.23 602.33 60.28 597.76 63.79 C 593.57 67.13 588.53 68.92 584.46 72.48 C 579.09 77.11 573.84 81.86 568.25 86.23 C 563.94 89.47 560.44 93.80 556.72 97.70 C 551.58 104.23 547.33 111.59 544.29 119.34 C 541.45 125.45 540.38 131.86 538.59 138.29 C 537.03 137.63 535.52 137.79 534.89 135.93 C 534.36 132.47 536.08 128.51 537.25 125.29 C 540.25 117.69 543.76 110.14 548.27 103.31 C 555.30 92.85 564.70 85.26 574.31 77.33 C 581.52 70.15 590.19 66.31 598.38 60.62 C 591.10 59.48 584.04 56.79 576.98 57.90 C 569.64 58.77 562.29 58.27 554.98 59.39 C 550.40 59.82 545.69 60.99 541.10 60.68 C 538.83 60.60 537.05 58.68 537.31 56.39 C 539.69 51.90 544.70 49.11 549.17 47.07 C 553.11 45.32 556.84 45.66 561.03 45.12 C 565.63 44.61 570.38 43.51 575.00 43.75 C 583.00 44.37 590.68 46.06 598.59 47.04 C 602.74 47.58 606.88 48.03 610.98 48.90 C 612.62 49.13 614.29 49.87 615.82 48.92 C 619.54 47.03 622.55 44.13 626.39 42.39 C 632.39 39.67 638.63 36.42 645.02 34.98 C 649.77 33.83 653.99 32.16 658.98 32.93 C 663.96 33.77 668.70 34.92 672.46 38.52 C 677.21 42.82 678.77 48.22 682.88 53.16 C 683.69 54.16 684.76 54.68 685.98 55.03 C 691.43 51.40 696.19 46.42 700.95 41.95 C 705.26 37.98 710.35 36.62 715.74 34.79 C 719.11 33.69 722.43 32.74 726.01 32.73 C 732.99 32.72 740.00 32.32 746.98 32.45 C 759.16 33.13 771.27 33.14 783.28 30.69 C 788.39 29.50 793.61 29.49 798.75 28.49 Z"/>
	<path d="M 356.95 31.63 C 362.63 30.86 367.63 32.47 372.97 34.10 C 376.07 35.08 378.63 37.20 381.70 38.14 C 390.16 40.30 399.10 43.49 405.91 49.11 C 407.51 50.19 408.87 51.89 410.96 51.63 C 419.28 51.39 427.56 50.87 435.89 51.23 C 435.71 51.89 435.53 52.54 435.34 53.19 C 427.36 52.99 419.49 52.89 411.54 53.82 C 415.18 55.62 418.15 58.22 421.44 60.51 C 425.16 61.06 429.22 60.15 433.00 60.09 C 441.92 59.16 450.15 60.69 459.00 61.26 C 464.72 61.51 469.28 58.99 475.00 57.79 C 477.87 56.69 481.41 57.36 481.77 53.45 C 479.95 53.51 478.13 53.60 476.31 53.69 L 476.05 51.88 C 479.83 51.52 483.52 50.99 487.19 49.98 C 484.59 49.25 481.83 48.71 479.33 47.68 C 474.54 45.61 472.58 41.37 467.06 40.59 C 464.13 40.48 460.07 39.90 457.53 41.59 C 453.78 44.51 450.62 49.12 446.45 51.47 C 443.69 52.76 440.34 52.90 437.40 53.56 C 437.43 52.79 437.56 52.03 437.60 51.25 C 439.42 50.92 441.33 50.98 442.92 49.99 C 447.31 47.35 450.76 43.88 454.45 40.41 C 459.02 37.31 466.24 38.11 471.21 39.86 C 474.26 40.86 476.14 42.83 477.81 45.48 C 481.11 46.77 484.37 47.83 487.96 47.66 C 495.50 47.32 502.98 48.61 509.61 52.32 C 509.67 53.02 509.73 53.72 509.79 54.42 C 505.85 54.31 501.94 53.62 498.00 53.66 C 489.54 54.29 483.04 59.42 475.02 60.55 C 471.18 61.29 467.92 62.75 463.99 62.81 C 459.44 62.82 455.02 63.14 450.51 62.39 C 441.95 61.05 433.08 61.17 424.57 62.80 C 426.36 65.05 428.24 66.79 430.58 68.44 C 433.89 70.80 436.61 73.76 439.73 76.32 C 451.94 85.65 463.03 96.31 472.77 108.20 C 476.53 112.37 479.24 117.08 481.95 121.98 C 483.10 125.18 483.82 128.70 484.53 132.02 C 484.85 134.58 483.35 135.47 481.51 136.77 C 481.45 129.24 479.48 122.04 475.08 115.89 C 470.58 110.33 466.78 104.44 461.57 99.46 C 452.05 88.31 440.71 79.86 429.73 70.29 C 422.77 64.85 417.03 58.86 409.46 54.57 C 403.02 49.73 395.92 44.60 388.35 41.70 C 384.47 40.18 380.66 40.11 376.95 38.07 C 372.49 35.67 368.19 33.58 363.01 33.36 C 360.19 33.29 356.78 32.86 354.12 33.97 C 349.18 35.91 344.68 38.61 339.81 40.96 C 337.93 41.87 336.36 43.18 334.80 44.55 C 337.09 44.02 339.14 43.33 341.20 42.21 C 345.90 39.59 351.80 38.98 357.09 38.88 C 357.62 38.17 358.14 37.47 358.66 36.76 L 356.84 35.74 C 361.85 36.56 366.95 37.13 371.90 38.24 C 377.19 39.96 382.21 43.07 386.96 45.92 C 389.88 47.40 392.79 48.60 395.26 50.81 C 399.31 52.31 402.65 54.88 406.45 56.85 C 409.88 58.64 412.25 61.61 415.60 63.54 C 426.48 70.58 436.52 77.22 443.68 88.35 C 439.35 85.00 435.56 80.81 431.91 76.74 C 431.32 76.55 430.73 76.37 430.13 76.18 C 423.42 69.34 414.78 65.59 407.66 59.30 C 402.16 56.06 396.63 52.70 390.83 50.00 C 385.83 47.67 381.58 44.20 376.68 41.67 C 375.73 41.55 374.77 41.42 373.81 41.30 C 373.14 40.79 372.47 40.28 371.80 39.77 C 367.22 38.80 363.13 36.93 358.32 37.23 C 358.49 37.94 358.66 38.66 358.84 39.37 C 366.62 40.51 373.71 43.58 380.41 47.60 C 390.49 52.64 399.20 59.72 409.22 64.90 C 415.35 67.87 420.24 72.25 425.10 76.91 C 431.90 82.83 439.19 88.08 445.55 94.51 C 450.29 98.46 454.28 102.40 457.98 107.36 C 459.40 107.42 460.81 107.48 462.23 107.55 C 458.43 102.77 454.31 98.27 450.56 93.46 C 448.58 91.15 446.19 89.75 443.80 87.90 C 446.91 89.28 449.88 90.16 452.11 92.88 C 455.29 96.72 458.48 100.56 461.63 104.41 C 464.38 107.66 465.75 111.47 468.09 114.95 C 470.29 118.21 472.51 121.45 474.59 124.78 C 473.99 126.17 473.38 127.55 472.75 128.93 C 472.49 127.51 472.24 126.10 471.98 124.68 C 470.69 124.59 469.40 124.49 468.11 124.39 L 468.18 122.49 L 471.12 122.81 C 468.52 119.32 466.38 115.55 464.01 111.91 C 462.76 110.06 460.99 109.13 459.15 107.96 C 461.01 112.88 464.29 116.89 466.15 121.80 C 467.66 125.79 469.50 129.22 469.91 133.42 C 466.30 129.50 464.90 124.26 462.29 119.70 C 459.07 114.25 456.05 108.90 451.93 104.04 C 449.38 101.04 445.92 98.71 443.01 95.96 C 434.95 87.47 424.63 80.75 416.88 71.87 C 416.29 71.66 415.70 71.45 415.11 71.24 C 411.32 67.49 406.06 65.97 401.88 62.58 C 395.52 63.92 389.10 65.50 383.05 67.93 C 379.72 68.97 376.43 69.53 373.41 71.42 C 364.10 77.19 354.58 80.56 348.23 90.06 C 352.33 94.32 357.95 92.82 361.49 97.54 C 363.48 101.27 364.74 105.92 361.34 109.31 C 355.87 114.89 347.42 118.07 340.48 121.53 C 334.41 124.68 327.97 125.46 321.43 127.07 C 315.14 128.45 308.40 128.31 301.96 128.61 C 285.05 127.98 268.77 126.84 252.70 121.12 C 249.73 119.85 247.43 118.02 244.04 117.97 C 238.86 117.87 234.14 116.00 229.00 116.44 C 224.91 116.72 221.01 118.60 216.96 118.89 C 212.40 119.09 208.75 117.35 204.50 116.34 C 201.74 116.08 198.89 116.81 196.04 116.24 C 193.67 115.79 191.31 115.41 188.91 115.18 C 182.45 114.35 176.86 111.82 170.26 112.50 C 167.68 113.78 166.14 114.07 163.25 113.39 C 158.12 112.11 153.00 113.71 148.08 112.14 L 147.01 109.68 C 149.14 109.50 151.28 109.34 153.41 109.16 C 150.79 107.54 147.67 106.07 145.52 103.86 C 145.79 102.23 148.32 101.29 149.44 100.25 C 148.47 98.91 147.52 97.56 146.58 96.20 C 152.42 98.01 157.32 101.64 163.05 103.79 C 169.77 106.34 175.62 109.48 182.98 109.55 C 190.61 110.88 197.22 110.01 204.40 107.22 C 202.21 106.09 200.79 104.24 198.13 104.94 C 193.40 105.89 188.94 104.90 184.21 104.77 C 183.81 104.24 183.42 103.72 183.02 103.19 C 180.47 103.03 177.16 103.62 175.08 101.92 C 172.40 99.91 170.01 98.16 166.56 97.74 C 167.41 98.15 168.27 98.54 169.13 98.92 C 168.19 99.81 167.24 100.70 166.28 101.58 C 165.87 102.24 165.47 102.91 165.06 103.57 C 161.85 101.36 158.89 99.89 155.18 98.72 C 151.47 97.45 149.58 94.60 147.71 91.37 C 150.12 91.56 152.50 91.88 154.86 92.45 C 150.98 90.22 148.63 86.47 147.92 82.10 C 152.81 84.54 157.57 86.78 161.91 90.13 C 166.23 93.35 170.32 96.23 175.99 95.97 C 175.77 96.69 175.56 97.41 175.35 98.13 C 178.87 99.08 182.15 100.04 185.88 99.68 C 186.88 99.13 187.63 98.12 188.45 97.34 C 184.86 94.78 180.81 92.27 177.87 88.96 C 177.53 87.39 177.86 86.49 178.87 86.26 C 182.18 87.35 184.49 90.59 187.07 92.87 C 190.14 95.55 192.74 98.24 196.83 99.27 C 197.17 99.93 197.51 100.58 197.85 101.24 C 202.35 103.92 207.13 105.94 211.83 108.24 C 214.57 109.59 217.05 111.08 220.04 111.88 C 226.32 113.43 232.58 114.86 239.06 115.30 C 239.32 115.05 239.59 114.81 239.86 114.57 C 232.07 109.85 224.15 104.50 217.72 98.04 C 215.91 96.68 213.53 99.07 211.88 99.87 C 211.06 99.82 210.23 99.78 209.40 99.73 C 209.48 98.73 209.55 97.73 209.62 96.74 C 213.53 96.56 217.23 95.27 221.08 94.94 C 224.92 97.05 228.41 99.82 232.16 102.10 C 232.37 100.47 232.61 98.84 232.87 97.21 C 237.59 97.48 241.50 99.49 245.51 101.81 C 245.86 100.62 246.21 99.43 246.57 98.25 C 253.73 97.35 259.10 101.05 266.10 101.81 C 265.34 100.86 264.57 99.92 263.80 98.98 C 264.89 97.68 265.60 95.81 267.42 95.49 C 270.75 94.60 274.05 95.95 277.24 96.78 C 282.98 98.50 288.88 99.50 294.87 99.69 C 293.44 99.20 292.00 98.72 290.56 98.28 C 289.34 96.24 288.63 95.19 289.82 92.86 C 293.82 91.47 298.81 93.47 303.00 93.71 C 308.17 94.02 313.09 95.35 317.91 97.20 C 309.09 97.27 300.31 95.13 291.46 95.24 C 293.08 99.41 296.40 98.89 300.11 99.84 C 299.39 101.00 298.67 102.15 297.96 103.31 C 302.98 104.40 308.04 105.22 313.11 106.05 C 308.04 108.65 300.82 105.26 295.57 104.19 C 295.29 103.41 295.01 102.62 294.73 101.84 C 287.51 101.45 280.78 99.83 273.83 98.05 C 271.10 97.23 269.47 97.79 266.97 98.92 C 270.14 101.23 273.48 103.30 276.63 105.63 C 284.23 107.33 291.33 107.36 298.61 110.65 C 296.47 110.57 294.33 110.42 292.19 110.21 C 292.43 111.00 292.67 111.79 292.90 112.58 C 295.98 113.11 298.84 113.76 302.00 113.55 C 305.09 113.40 307.87 112.49 310.98 113.03 C 314.82 113.54 318.65 113.22 322.48 113.57 C 319.35 114.93 315.37 114.47 312.02 114.48 C 306.75 114.17 301.57 114.45 296.34 115.10 C 299.28 117.77 304.03 116.71 307.78 118.28 C 311.02 119.70 313.99 118.88 317.33 118.50 C 317.74 117.88 318.14 117.25 318.55 116.63 C 319.41 116.57 320.27 116.51 321.13 116.44 C 322.33 115.88 323.52 115.32 324.73 114.78 C 324.67 115.68 324.60 116.58 324.54 117.48 C 323.41 117.66 322.28 117.84 321.15 118.02 C 317.24 120.77 313.18 120.37 308.64 120.59 C 308.21 119.90 307.77 119.21 307.34 118.52 C 301.71 118.20 296.33 118.76 290.81 117.28 C 286.24 115.91 281.87 116.79 277.35 117.89 C 281.27 120.74 286.71 119.39 291.21 121.29 C 289.68 121.42 288.14 121.54 286.60 121.64 C 287.49 122.43 288.38 123.22 289.26 124.01 C 281.32 121.52 272.87 120.72 264.94 118.07 C 260.67 116.58 256.40 116.44 252.21 114.73 C 249.86 113.75 247.46 112.84 245.16 111.74 C 242.85 110.59 241.74 108.33 239.16 107.60 C 236.19 106.51 233.66 104.69 230.82 103.35 C 227.15 101.80 224.44 98.88 220.68 97.49 C 221.95 99.58 223.34 101.25 225.46 102.53 C 230.39 105.61 234.63 109.50 239.74 112.28 C 248.92 117.45 259.25 121.36 269.53 123.64 C 286.93 126.10 303.53 127.84 321.01 124.67 C 328.85 122.63 336.47 120.48 343.46 116.43 C 347.47 114.09 352.78 112.38 355.92 108.94 C 358.06 105.78 359.22 101.84 357.33 98.25 C 356.51 95.38 352.74 95.40 350.41 94.39 C 347.59 93.53 346.62 90.30 345.31 87.98 C 347.93 83.08 352.17 80.62 356.58 77.58 C 362.08 74.10 367.04 70.60 373.23 68.45 C 382.03 65.34 390.00 61.71 399.47 61.16 C 396.65 59.41 393.92 57.54 391.09 55.82 C 388.96 54.38 385.71 55.57 383.46 56.26 C 379.60 57.63 375.57 58.23 371.89 59.94 C 363.84 63.46 355.40 66.42 347.78 70.81 C 344.85 72.56 340.35 71.35 337.13 70.98 C 329.63 68.61 321.85 66.62 313.97 66.07 C 309.77 65.65 306.20 64.42 301.95 65.00 C 298.63 65.39 295.29 65.55 291.96 65.78 C 286.86 66.11 282.06 67.79 276.97 68.35 C 271.79 68.95 266.79 70.38 262.57 73.56 C 262.09 72.87 261.62 72.18 261.15 71.48 C 253.43 71.37 245.81 72.88 238.16 72.17 C 230.51 71.19 222.75 72.07 215.03 70.95 C 208.83 70.11 202.28 70.82 196.07 70.59 C 188.52 69.66 181.20 67.03 174.41 63.65 C 171.34 62.12 168.25 60.76 164.91 59.91 C 166.62 63.89 168.49 67.79 170.27 71.74 C 172.60 77.02 176.18 81.16 177.58 86.91 C 173.23 83.53 170.15 78.47 167.11 73.94 C 164.62 69.04 161.03 63.81 160.25 58.32 C 162.23 56.64 164.78 58.19 167.04 58.53 C 173.72 59.71 178.55 64.33 185.14 65.74 C 190.28 66.81 194.97 69.17 199.98 68.47 C 210.88 67.81 222.03 69.32 232.90 69.38 L 232.74 68.84 C 233.77 68.08 234.92 67.61 236.10 67.15 C 234.49 66.72 232.92 66.20 231.34 65.68 C 231.43 66.50 231.50 67.32 231.55 68.14 C 229.34 68.44 227.84 67.29 225.97 66.37 C 225.32 65.37 224.91 63.86 223.73 63.40 C 220.82 61.80 217.07 60.60 214.62 58.33 C 214.51 57.25 214.56 56.15 214.56 55.07 C 209.50 53.03 202.85 50.65 200.00 45.72 C 201.02 45.51 202.03 45.30 203.05 45.10 C 202.61 43.92 202.16 42.74 201.72 41.56 C 203.31 41.47 205.02 41.16 206.59 41.46 C 209.42 42.40 212.16 44.75 215.15 45.42 C 221.54 46.88 227.91 48.27 234.40 49.18 C 240.93 49.96 247.47 49.56 254.03 50.16 C 263.17 50.71 271.11 48.31 280.02 47.00 C 283.09 46.54 286.02 45.58 289.07 45.02 C 298.33 43.57 307.64 43.26 317.00 43.55 C 321.22 43.68 325.06 44.92 328.98 46.33 C 330.03 45.45 331.08 44.58 332.14 43.72 C 334.52 41.17 336.97 39.58 340.17 38.24 C 345.95 35.84 350.80 32.02 356.95 31.63 Z"/>
	<path d="M 773.78 35.48 C 771.91 37.49 769.62 38.20 767.02 38.79 C 762.43 39.76 758.67 41.69 753.95 41.71 C 760.39 39.04 767.31 38.19 773.78 35.48 Z"/>
	<path d="M 812.37 35.81 L 812.62 37.86 C 808.53 39.34 804.30 40.44 800.17 41.80 C 800.24 41.10 800.31 40.40 800.38 39.70 C 804.13 37.57 807.77 34.59 812.37 35.81 Z"/>
	<path d="M 744.39 40.73 C 740.76 43.79 735.29 44.01 730.77 44.96 C 730.52 46.09 730.26 47.23 729.98 48.36 C 729.39 47.40 728.81 46.44 728.23 45.47 C 724.76 46.53 721.33 47.66 718.10 49.33 C 716.95 49.22 715.79 49.11 714.64 48.99 C 719.28 46.93 724.22 45.67 728.93 43.77 C 728.18 43.29 727.44 42.81 726.70 42.34 C 723.88 43.56 721.06 44.50 718.01 44.88 C 721.64 42.27 725.64 41.46 730.00 40.99 L 727.94 42.01 C 728.76 42.68 729.58 43.34 730.40 44.01 C 735.15 43.23 739.69 41.71 744.39 40.73 Z"/>
	<path d="M 774.79 41.12 C 773.93 41.54 773.07 41.55 772.22 41.12 C 772.51 39.53 774.57 39.44 774.79 41.12 Z"/>
	<path d="M 350.42 41.40 C 357.07 39.19 364.25 42.90 370.90 44.09 C 375.90 47.31 381.41 49.61 386.34 53.00 C 381.70 54.82 376.86 55.71 372.08 57.00 C 360.12 60.74 350.26 67.05 337.47 67.65 C 336.99 64.08 337.40 60.54 337.20 56.98 C 336.39 53.55 334.30 51.11 332.08 48.49 C 337.89 44.96 343.77 42.78 350.42 41.40 Z" fill="#ffffff"/>
	<path d="M 764.80 42.54 C 766.27 41.91 767.34 42.10 768.00 43.13 C 766.55 43.78 765.48 43.58 764.80 42.54 Z"/>
	<path d="M 765.49 43.69 C 762.91 44.16 760.35 44.47 757.72 44.37 C 759.63 42.47 763.10 43.55 765.49 43.69 Z"/>
	<path d="M 205.78 43.42 C 206.89 43.94 207.99 44.47 209.08 45.00 C 212.87 46.88 216.86 48.25 221.10 48.63 C 224.89 48.89 228.21 50.72 231.98 51.06 C 237.37 51.57 242.56 52.99 247.98 53.26 C 254.41 53.84 260.61 52.94 266.98 52.37 C 270.65 51.98 273.82 53.74 277.43 53.08 C 282.87 52.30 288.35 51.89 293.81 51.28 C 297.16 50.89 300.42 51.03 303.36 49.49 C 292.49 49.37 281.59 51.84 270.75 52.05 C 274.44 50.03 278.21 50.43 282.20 49.59 C 285.70 48.97 289.00 47.70 292.49 47.06 C 297.32 46.29 302.19 46.10 307.06 46.37 C 314.00 46.62 321.08 44.97 327.40 48.63 C 326.05 50.01 324.75 51.42 323.64 53.00 C 325.95 52.44 327.96 51.55 330.02 50.38 C 331.50 52.37 333.59 54.52 333.98 57.03 C 334.44 60.21 334.14 63.52 334.21 66.74 C 331.10 66.69 328.25 66.32 325.30 65.33 C 319.91 63.61 314.69 63.48 309.12 62.62 L 309.58 60.47 C 308.09 60.38 306.60 60.29 305.12 60.19 L 305.96 62.55 C 298.07 62.35 290.77 62.84 282.99 64.04 C 277.59 64.30 272.59 65.86 267.40 67.19 C 267.59 66.44 267.78 65.69 267.97 64.94 L 265.15 64.07 L 265.51 66.79 C 263.56 66.75 261.62 66.71 259.68 66.67 C 260.89 67.64 262.10 68.61 263.32 69.57 C 260.97 69.68 258.62 69.77 256.27 69.86 C 257.54 69.26 258.81 68.66 260.08 68.06 C 256.22 66.87 252.46 65.35 248.57 64.25 C 249.96 67.19 254.35 67.69 257.07 69.01 C 251.46 69.32 246.52 70.61 240.91 69.36 C 239.07 69.27 238.90 67.84 237.99 66.56 C 231.88 63.47 225.40 62.49 219.72 58.42 C 226.98 60.02 234.19 61.31 241.53 62.39 C 241.63 61.81 241.73 61.22 241.83 60.64 C 229.35 58.36 217.36 54.98 206.38 48.45 C 209.65 49.18 212.12 50.20 215.29 48.41 C 212.91 47.50 210.49 46.68 208.11 45.74 C 207.32 44.98 206.55 44.21 205.78 43.42 Z" fill="#ffffff"/>
	<path d="M 650.22 45.76 C 653.44 45.21 657.59 44.00 660.68 45.41 C 664.70 47.15 668.25 49.75 670.25 53.75 C 671.84 57.05 671.57 61.19 668.58 63.60 C 665.52 65.85 661.79 67.76 658.02 68.37 C 653.42 68.36 649.03 67.07 644.98 64.91 C 642.80 63.76 640.50 63.05 638.10 62.51 C 634.39 60.93 630.77 59.25 627.19 57.41 C 623.56 59.21 619.87 60.80 616.51 63.11 C 620.34 64.05 623.94 64.57 627.47 66.42 C 634.14 70.05 640.76 74.75 648.05 77.01 C 652.14 78.40 655.55 80.27 659.99 80.41 C 663.97 80.53 668.12 80.63 672.05 79.92 C 674.60 78.83 676.72 76.90 679.26 75.73 C 678.49 79.41 675.30 80.38 673.51 83.48 C 670.30 88.67 667.43 94.77 669.08 100.99 C 670.35 106.96 674.88 110.99 679.65 114.36 C 683.97 117.27 688.62 117.53 693.66 117.71 C 693.84 116.62 694.02 115.53 694.20 114.44 C 694.46 115.45 694.71 116.47 694.97 117.49 C 702.97 116.85 710.12 114.56 717.46 111.43 C 720.04 110.61 723.89 108.33 726.47 109.89 C 725.31 111.03 723.91 111.19 722.42 111.58 C 715.61 113.16 709.67 117.91 702.78 118.51 C 694.99 119.77 687.41 120.19 679.71 118.12 C 676.83 116.97 674.12 115.22 671.68 113.33 C 667.92 110.11 665.94 104.64 664.49 100.04 C 663.74 93.02 666.95 87.60 671.00 82.23 C 665.67 82.14 660.21 82.95 654.96 82.29 C 651.36 81.89 648.02 80.19 644.55 79.00 C 636.50 76.46 629.56 70.88 621.85 67.17 C 619.10 66.00 616.00 65.43 613.01 65.44 C 609.18 66.80 605.61 69.13 602.19 71.33 C 601.55 71.56 600.91 71.79 600.27 72.03 C 597.74 74.51 594.53 75.67 591.70 77.70 C 582.16 85.16 573.44 93.44 564.45 101.53 C 561.90 103.89 560.24 106.80 559.10 110.05 C 554.40 115.25 552.26 121.48 550.38 128.08 C 549.58 131.62 549.63 135.39 548.56 138.82 C 547.45 139.53 546.42 139.49 545.47 138.69 C 544.14 131.89 547.82 124.34 550.70 118.35 C 554.04 111.53 557.02 104.97 562.86 99.86 C 568.30 95.26 572.86 89.80 578.44 85.37 C 586.77 77.84 596.63 71.77 606.50 66.49 C 611.69 63.63 616.72 60.49 622.08 58.06 C 631.72 53.62 639.64 47.99 650.22 45.76 Z"/>
	<path d="M 577.72 46.73 C 583.91 47.85 590.07 47.79 596.17 49.47 C 601.27 50.95 606.51 50.11 611.60 51.62 C 608.25 54.47 604.35 56.33 600.83 58.96 C 596.53 57.93 592.22 56.55 587.85 55.86 C 582.69 55.01 577.29 55.62 572.01 55.68 C 564.21 55.77 556.65 55.93 549.02 57.71 C 545.80 58.40 543.45 58.86 540.45 57.14 C 544.37 52.17 549.17 48.61 555.60 47.78 C 563.14 47.53 570.11 45.61 577.72 46.73 Z" fill="#ffffff"/>
	<path d="M 465.24 46.34 C 465.63 47.09 466.01 47.85 466.39 48.61 C 467.58 48.63 468.76 48.66 469.95 48.70 C 469.53 49.70 469.08 50.68 468.60 51.64 C 466.72 52.27 465.99 51.06 464.44 50.20 C 464.60 51.76 464.53 53.28 464.23 54.77 C 461.69 53.36 460.79 51.97 459.88 49.30 C 461.61 48.20 463.42 47.27 465.24 46.34 Z"/>
	<path d="M 659.16 47.98 C 663.41 50.35 667.32 54.58 666.24 59.85 C 665.95 63.40 663.07 65.07 659.94 65.88 C 655.35 67.00 650.22 64.81 645.97 63.19 C 640.32 60.90 634.80 59.34 629.61 56.05 C 635.95 53.27 642.28 50.09 648.84 47.88 C 652.12 47.08 656.07 46.22 659.16 47.98 Z" fill="#ffffff"/>
	<path d="M 215.28 48.19 C 219.61 49.39 223.77 50.64 227.45 53.31 C 223.41 52.75 219.19 52.04 215.49 50.26 C 215.40 49.57 215.33 48.88 215.28 48.19 Z"/>
	<path d="M 309.09 49.10 L 309.93 49.09 L 310.36 49.79 L 309.94 50.48 L 309.10 50.49 L 308.67 49.79 L 309.09 49.10 Z"/>
	<path d="M 494.90 48.89 C 493.87 50.81 492.13 50.68 490.24 50.37 C 490.59 47.92 493.15 48.38 494.90 48.89 Z" fill="#ffffff"/>
	<path d="M 801.50 50.48 C 792.65 57.16 781.94 61.80 771.43 65.18 C 776.00 62.79 780.79 60.96 785.28 58.38 C 790.87 56.07 795.90 52.73 801.50 50.48 Z"/>
	<path d="M 490.26 52.35 L 490.97 51.94 L 491.68 52.36 L 491.67 53.19 L 490.95 53.60 L 490.24 53.17 L 490.26 52.35 Z" fill="#ffffff"/>
	<path d="M 302.47 53.34 C 305.29 53.50 307.96 53.90 310.66 54.80 C 307.86 55.29 305.04 55.35 302.21 55.24 L 302.47 53.34 Z"/>
	<path d="M 735.57 53.34 C 730.63 55.50 724.89 57.97 719.42 57.61 C 724.43 55.25 730.12 54.12 735.57 53.34 Z"/>
	<path d="M 257.69 54.32 C 263.49 54.72 269.14 55.77 275.00 55.36 C 280.85 55.41 285.64 53.29 291.01 56.53 C 286.32 56.77 281.67 56.45 277.00 56.98 C 272.22 57.50 267.76 56.78 262.96 56.70 C 260.74 56.47 258.74 56.71 257.69 54.32 Z"/>
	<path d="M 832.00 54.74 C 838.36 53.99 844.63 54.68 851.00 54.58 C 857.49 54.14 863.93 54.05 870.36 55.27 C 864.62 56.47 858.81 56.14 853.03 57.07 C 847.29 57.99 841.79 57.11 835.97 57.52 C 826.11 58.56 816.13 58.31 806.20 59.69 C 803.10 60.31 800.05 60.86 796.86 60.77 C 799.84 58.58 803.47 58.17 807.00 57.26 C 815.05 55.25 823.53 55.64 832.00 54.74 Z"/>
	<path d="M 319.84 55.55 C 321.02 54.95 323.04 56.55 321.97 57.73 C 320.75 58.35 318.78 56.75 319.84 55.55 Z"/>
	<path d="M 323.84 55.42 C 324.96 55.78 326.57 57.82 324.91 58.52 C 323.27 58.48 322.85 56.51 323.84 55.42 Z"/>
	<path d="M 779.77 56.51 C 777.42 58.64 774.82 58.29 771.88 58.49 C 772.26 57.98 772.64 57.47 773.04 56.97 C 775.27 56.62 777.51 56.53 779.77 56.51 Z"/>
	<path d="M 295.71 58.80 C 298.34 58.38 301.17 58.71 303.83 58.85 L 303.63 60.42 C 300.76 60.27 297.89 60.25 295.01 60.26 C 295.23 59.77 295.47 59.28 295.71 58.80 Z"/>
	<path d="M 755.26 58.19 C 757.46 58.26 759.58 58.31 761.64 59.18 C 759.50 59.45 757.35 59.59 755.19 59.70 L 755.26 58.19 Z"/>
	<path d="M 259.04 59.38 C 264.68 60.10 270.14 60.70 275.84 60.81 L 275.55 62.36 C 273.73 62.03 271.91 61.72 270.09 61.42 L 270.87 63.70 C 268.33 63.44 265.86 63.35 263.31 63.46 C 263.07 62.82 262.83 62.18 262.59 61.54 C 260.83 60.97 259.07 61.87 259.04 59.38 Z"/>
	<path d="M 854.99 62.29 C 860.14 62.52 864.90 62.64 869.62 64.96 C 862.81 65.88 855.89 65.06 849.01 65.44 C 840.66 64.98 832.38 66.00 824.04 65.75 C 821.68 65.71 819.35 65.83 817.01 66.08 C 810.64 66.78 804.30 65.83 797.87 66.13 C 801.32 63.36 805.67 64.17 809.85 64.08 C 814.62 63.46 819.16 62.44 824.00 62.45 C 829.83 62.47 835.63 62.54 841.44 62.00 C 846.03 61.56 850.42 62.18 854.99 62.29 Z"/>
	<path d="M 752.32 64.72 C 746.01 65.32 739.70 65.78 733.40 66.44 C 738.80 63.50 746.39 64.22 752.32 64.72 Z"/>
	<path d="M 169.32 65.48 C 170.88 65.89 172.43 66.28 173.96 66.80 C 177.12 71.61 179.35 76.66 185.68 77.64 C 188.12 79.08 190.52 80.58 192.89 82.15 C 195.96 84.23 199.41 85.42 202.34 87.73 C 199.74 87.61 197.47 87.18 195.30 85.67 C 191.88 83.31 188.39 81.07 185.01 78.67 C 183.99 78.55 182.97 78.43 181.95 78.31 C 184.12 80.33 186.36 82.26 188.71 84.08 C 188.49 84.71 188.28 85.34 188.06 85.97 C 190.78 87.11 193.46 88.35 196.11 89.64 C 197.92 91.54 199.83 93.32 201.72 95.14 C 198.65 93.84 195.52 92.68 192.47 91.34 C 190.84 90.75 190.73 89.90 190.15 88.37 C 186.28 86.34 181.89 84.65 178.49 81.98 C 180.21 81.85 181.93 81.74 183.65 81.66 C 180.68 79.88 177.79 78.01 174.96 76.01 C 175.29 75.00 175.62 73.99 175.94 72.98 C 173.27 70.83 170.85 68.63 169.32 65.48 Z"/>
	<path d="M 174.37 65.95 C 175.34 66.53 176.30 67.14 177.25 67.76 C 179.67 69.57 181.85 71.59 183.35 74.24 C 180.66 72.97 178.30 70.77 176.02 68.86 C 175.46 67.90 174.91 66.93 174.37 65.95 Z"/>
	<path d="M 822.02 68.65 C 830.06 68.34 838.13 69.44 846.14 70.14 C 851.44 71.25 858.33 70.87 862.74 74.15 C 851.42 74.52 839.95 73.42 828.78 71.64 C 825.20 71.30 821.59 71.48 818.00 71.12 C 812.52 70.43 807.96 72.29 802.76 69.62 C 809.17 69.23 815.60 68.59 822.02 68.65 Z"/>
	<path d="M 198.30 74.75 C 200.77 76.55 203.52 77.45 206.24 78.75 C 204.20 78.41 202.20 77.89 200.19 77.41 C 199.77 76.85 199.36 76.29 198.94 75.72 C 194.66 74.44 190.49 72.87 186.67 70.52 C 191.33 69.62 194.64 72.35 198.30 74.75 Z"/>
	<path d="M 285.20 70.85 C 286.48 70.57 287.56 70.95 288.46 71.98 C 287.35 73.74 285.08 72.87 285.20 70.85 Z"/>
	<path d="M 321.52 71.77 C 321.41 73.34 321.24 74.90 321.08 76.47 C 320.25 76.04 319.42 75.61 318.58 75.18 C 318.56 74.17 318.55 73.15 318.55 72.14 C 319.54 71.98 320.53 71.86 321.52 71.77 Z"/>
	<path d="M 210.32 72.42 C 211.48 72.42 212.63 72.45 213.78 72.50 C 216.87 73.04 220.25 73.53 223.07 74.95 C 223.47 75.56 223.86 76.13 224.27 76.67 C 219.63 75.27 214.75 74.36 210.32 72.42 Z"/>
	<path d="M 331.52 72.32 C 334.51 72.78 334.76 74.54 335.82 76.98 C 334.83 76.70 333.87 76.37 332.93 75.98 C 331.89 75.24 331.78 73.47 331.52 72.32 Z"/>
	<path d="M 204.10 73.34 C 209.16 74.57 213.47 77.46 218.48 78.77 C 220.68 79.52 222.42 79.38 223.35 81.86 C 219.73 81.31 216.30 80.16 212.84 79.01 C 212.26 78.20 211.68 77.39 211.10 76.58 C 208.96 76.15 206.81 75.75 204.69 75.23 C 204.48 74.61 204.28 73.97 204.10 73.34 Z"/>
	<path d="M 305.60 73.01 C 307.80 73.17 307.99 74.27 309.07 75.91 C 307.90 75.75 306.73 75.56 305.57 75.35 C 305.56 74.57 305.57 73.79 305.60 73.01 Z"/>
	<path d="M 186.24 74.27 C 188.88 73.85 191.40 76.98 193.24 78.45 C 189.99 78.32 187.23 77.18 184.38 75.77 C 184.99 75.26 185.61 74.76 186.24 74.27 Z"/>
	<path d="M 282.22 74.78 C 282.99 74.43 283.77 74.09 284.55 73.77 C 284.87 75.51 285.16 77.25 285.40 79.01 C 283.94 77.70 282.38 76.96 282.22 74.78 Z"/>
	<path d="M 346.12 74.57 C 346.36 75.63 346.59 76.70 346.81 77.78 C 345.90 77.79 344.99 77.79 344.09 77.80 C 344.58 75.81 343.49 74.59 346.12 74.57 Z"/>
	<path d="M 760.03 74.01 C 762.54 73.78 764.78 74.61 766.98 75.71 C 767.07 78.97 764.26 78.43 762.02 79.49 C 756.41 75.88 751.25 77.58 745.01 77.29 C 741.59 77.19 738.48 77.37 735.19 78.39 C 735.37 77.20 735.56 76.01 735.75 74.82 C 743.85 74.32 751.93 74.49 760.03 74.01 Z"/>
	<path d="M 293.28 75.31 C 294.36 75.26 295.44 75.26 296.52 75.31 C 296.52 76.55 296.50 77.78 296.45 79.02 C 294.88 77.99 293.72 77.26 293.28 75.31 Z"/>
	<path d="M 767.23 74.45 C 773.72 75.66 780.33 75.04 786.77 76.38 C 784.39 76.51 782.02 76.50 779.64 76.45 C 778.95 77.37 778.26 78.30 777.56 79.22 C 783.11 79.70 788.19 78.20 793.59 77.34 C 793.66 78.09 793.72 78.83 793.79 79.58 C 786.73 79.57 779.91 81.04 772.82 80.26 C 772.73 79.30 772.65 78.34 772.56 77.37 C 770.74 77.56 768.91 77.76 767.08 77.95 L 767.23 74.45 Z"/>
	<path d="M 800.88 75.27 C 803.04 75.32 805.11 75.72 807.19 76.25 C 817.30 76.70 826.03 74.26 835.79 76.60 C 840.07 77.60 844.45 77.36 848.72 78.31 C 841.39 80.15 834.39 78.49 827.03 79.10 C 820.10 79.27 813.00 78.02 806.09 77.50 C 804.07 77.36 802.53 76.33 800.88 75.27 Z"/>
	<path d="M 693.06 76.19 C 694.64 76.58 696.17 77.14 697.70 77.67 C 697.67 78.86 697.63 80.05 697.60 81.24 C 695.32 79.83 692.77 79.53 693.06 76.19 Z"/>
	<path d="M 864.53 78.32 C 861.75 80.01 858.60 81.10 855.97 82.98 L 855.11 85.61 C 856.77 85.48 858.44 85.32 860.10 85.14 C 858.64 85.93 857.18 86.73 855.74 87.56 C 864.46 87.91 872.34 85.51 880.72 83.62 C 883.23 83.17 886.15 80.63 888.38 82.73 C 889.12 84.07 889.12 84.97 888.51 86.37 C 884.58 89.19 879.75 86.73 876.19 90.49 C 874.66 90.32 873.14 90.12 871.62 89.90 C 873.22 89.62 874.83 89.36 876.45 89.11 C 876.64 88.13 876.84 87.16 877.03 86.18 C 873.09 87.13 869.27 87.95 865.18 87.79 L 865.41 89.52 C 861.03 89.65 856.65 89.70 852.27 89.87 C 849.29 89.36 847.90 89.70 845.29 91.21 C 841.53 92.47 837.67 93.37 833.90 94.61 C 832.57 96.38 831.83 98.56 829.40 98.93 C 825.38 99.57 821.35 99.90 817.38 100.86 C 814.09 105.41 809.72 104.92 804.81 106.28 C 797.27 108.49 789.70 108.35 781.95 108.23 C 774.88 108.75 768.09 106.65 760.99 107.37 C 753.24 108.18 745.69 106.82 737.98 108.21 C 734.31 108.58 730.63 110.55 727.01 110.14 C 728.56 107.80 731.05 107.65 733.57 106.92 C 738.73 106.08 743.87 105.14 748.99 105.43 C 755.68 105.76 762.32 105.26 769.00 105.25 C 776.46 105.08 783.53 107.11 791.06 106.25 C 797.62 105.40 804.62 104.89 810.96 103.06 C 814.06 102.16 816.66 100.18 819.66 99.15 C 822.33 98.51 825.18 98.73 827.86 98.10 C 829.69 97.03 830.94 94.88 832.40 93.36 C 835.16 90.54 838.71 88.69 842.57 87.85 C 839.93 89.31 837.33 90.60 835.34 92.96 C 838.90 92.75 840.91 91.35 843.53 89.13 C 843.56 88.42 843.60 87.71 843.64 87.00 C 846.63 86.08 849.60 85.11 852.58 84.15 C 856.01 80.81 860.15 79.85 864.53 78.32 Z"/>
	<path d="M 193.51 78.62 C 195.21 78.69 196.78 79.82 197.66 81.24 C 195.65 82.56 193.66 80.69 193.51 78.62 Z"/>
	<path d="M 280.66 79.33 C 278.86 81.22 276.76 81.37 274.32 81.67 C 274.53 80.97 274.75 80.28 274.98 79.59 C 276.87 79.33 278.76 79.31 280.66 79.33 Z"/>
	<path d="M 757.43 79.31 C 755.60 80.29 753.74 81.03 751.75 81.61 C 753.24 79.33 754.95 79.50 757.43 79.31 Z"/>
	<path d="M 800.90 78.80 C 802.55 78.88 804.20 79.00 805.84 79.16 C 804.26 79.83 802.64 80.41 801.02 80.99 C 800.17 81.82 799.33 82.69 798.40 83.42 C 797.21 83.57 795.96 83.37 794.76 83.29 C 795.73 82.90 796.70 82.50 797.66 82.08 C 798.76 81.01 799.80 79.87 800.90 78.80 Z"/>
	<path d="M 213.51 82.61 C 213.60 83.29 213.68 83.98 213.76 84.67 C 212.02 84.66 210.28 84.66 208.54 84.65 C 205.21 83.32 201.78 82.34 198.55 80.76 C 203.30 79.67 208.80 81.71 213.51 82.61 Z"/>
	<path d="M 256.39 80.38 C 256.35 81.08 256.32 81.78 256.28 82.49 C 255.10 82.62 253.92 82.75 252.74 82.87 C 253.09 82.16 253.45 81.46 253.82 80.76 C 254.67 80.62 255.53 80.49 256.39 80.38 Z"/>
	<path d="M 806.58 79.07 C 808.46 79.29 810.12 79.57 811.83 80.43 C 810.37 81.44 808.91 82.45 807.44 83.44 C 813.01 83.55 818.44 82.96 823.98 83.82 C 828.25 84.44 832.51 84.35 836.80 84.33 L 836.77 85.28 C 826.37 86.27 815.84 86.90 805.40 86.71 C 805.01 86.24 804.63 85.78 804.24 85.31 C 801.17 86.39 798.11 87.49 795.18 88.92 C 787.09 91.07 779.34 94.01 771.00 95.29 C 768.32 95.29 765.49 94.53 762.89 95.01 C 760.22 95.48 757.59 96.17 754.92 96.65 C 748.95 97.75 743.77 100.49 737.61 100.83 C 736.44 101.46 735.27 102.09 734.10 102.73 C 732.17 100.93 731.41 100.90 728.83 101.71 C 722.69 104.33 716.29 106.93 709.80 108.51 C 704.02 108.70 698.29 107.46 692.48 107.58 C 692.27 106.31 692.07 105.03 691.87 103.75 C 692.49 104.65 693.12 105.56 693.74 106.47 C 694.52 106.54 695.31 106.61 696.10 106.68 C 693.40 104.50 691.62 101.95 689.97 98.95 C 688.43 98.24 686.74 97.60 685.38 96.59 C 683.04 94.12 682.18 91.17 683.42 87.92 C 684.71 92.03 686.03 95.29 689.31 98.26 C 689.62 93.40 689.27 88.27 694.00 85.35 C 695.82 86.37 696.48 88.66 697.52 90.43 C 698.85 90.59 700.19 90.77 701.52 90.97 C 699.24 91.09 697.02 90.77 694.76 90.51 C 695.34 93.71 695.90 96.90 696.59 100.07 C 699.39 100.88 702.24 101.61 704.95 102.68 L 705.28 103.99 C 703.44 104.41 701.59 104.59 699.73 104.83 C 701.93 105.54 703.89 105.85 706.22 105.77 L 706.72 103.71 C 711.06 102.52 715.58 102.78 719.95 101.63 C 731.19 98.85 742.17 95.77 753.72 94.47 C 752.75 93.32 751.79 92.16 750.84 91.00 C 754.65 92.23 757.82 94.20 761.98 93.31 C 769.87 91.57 777.77 90.35 785.75 89.17 C 792.34 87.39 799.17 85.46 805.29 82.42 C 805.73 81.31 806.16 80.19 806.58 79.07 Z"/>
	<path d="M 230.10 80.34 C 230.14 81.26 230.18 82.18 230.22 83.11 C 232.11 83.65 233.99 84.19 235.87 84.73 C 235.78 85.58 235.69 86.43 235.60 87.28 C 233.37 87.38 231.13 87.46 228.89 87.52 C 229.21 86.56 229.54 85.60 229.87 84.64 C 228.80 84.49 227.73 84.34 226.66 84.20 C 226.50 83.61 226.34 83.02 226.19 82.44 C 227.35 82.61 228.52 82.78 229.68 82.96 C 229.82 82.09 229.96 81.21 230.10 80.34 Z"/>
	<path d="M 747.25 82.80 L 748.45 82.98 C 743.84 84.89 739.10 86.32 734.40 88.03 C 734.87 87.31 735.33 86.59 735.80 85.87 C 739.71 85.14 743.42 83.78 747.25 82.80 Z"/>
	<path d="M 198.24 82.35 C 201.85 83.24 205.39 84.34 208.80 85.85 C 205.16 85.65 201.67 84.81 198.12 84.12 L 198.24 82.35 Z"/>
	<path d="M 700.32 83.24 C 701.58 81.66 703.29 83.45 702.50 84.98 C 701.16 86.49 699.52 84.84 700.32 83.24 Z"/>
	<path d="M 772.57 83.65 C 768.26 85.54 763.31 84.57 759.22 86.74 C 761.01 87.37 762.80 87.99 764.58 88.64 C 762.68 88.61 760.26 89.03 758.50 88.22 C 758.16 87.53 757.81 86.75 757.44 85.88 C 751.81 86.82 745.38 88.36 739.71 87.22 C 745.22 86.30 750.79 85.99 756.30 85.01 C 761.88 84.36 767.17 83.13 772.57 83.65 Z"/>
	<path d="M 215.65 84.13 C 218.90 84.49 222.09 85.14 225.29 85.78 C 225.33 86.49 225.38 87.19 225.42 87.90 C 223.90 87.65 222.37 87.39 220.85 87.12 C 220.40 87.79 219.95 88.46 219.50 89.13 C 221.99 89.56 224.49 89.96 226.94 90.58 C 222.99 90.98 219.48 91.08 215.92 89.08 L 219.56 88.25 C 219.43 87.69 219.30 87.12 219.17 86.55 C 217.93 86.17 216.70 85.78 215.46 85.40 L 215.65 84.13 Z"/>
	<path d="M 885.38 84.80 C 884.24 86.06 883.17 86.09 882.19 84.90 C 883.31 83.63 884.38 83.60 885.38 84.80 Z" fill="#ffffff"/>
	<path d="M 244.53 86.49 C 244.34 87.49 244.16 88.48 243.97 89.47 C 242.64 89.31 241.31 89.15 239.98 88.98 C 240.31 88.26 240.65 87.55 241.00 86.84 C 242.17 86.69 243.35 86.60 244.53 86.49 Z"/>
	<path d="M 322.84 85.56 C 323.02 86.54 323.20 87.53 323.37 88.52 C 324.41 88.47 325.45 88.43 326.48 88.38 C 326.52 89.10 326.56 89.82 326.59 90.54 C 321.87 89.11 317.69 90.07 313.00 90.91 C 314.55 92.31 316.14 93.66 317.62 95.13 C 315.19 94.30 312.82 93.30 310.47 92.26 C 310.41 91.69 310.35 91.11 310.29 90.54 C 311.54 89.78 312.78 88.91 314.12 88.34 C 316.96 88.03 319.93 88.51 322.76 88.75 L 322.84 85.56 Z"/>
	<path d="M 678.37 85.65 C 678.73 89.58 679.44 93.09 680.56 96.86 C 678.26 93.06 677.08 90.08 678.37 85.65 Z"/>
	<path d="M 716.62 87.19 C 715.62 88.49 714.59 88.51 713.53 87.25 C 714.54 86.00 715.57 85.97 716.62 87.19 Z"/>
	<path d="M 704.25 87.42 C 705.78 87.52 707.31 87.66 708.83 87.81 L 708.50 89.89 C 706.96 89.19 705.62 88.41 704.25 87.42 Z"/>
	<path d="M 737.29 88.20 C 738.53 87.97 739.78 87.74 741.02 87.52 C 739.30 88.68 737.56 89.81 735.86 90.99 C 740.46 91.58 745.07 92.14 749.65 92.89 C 744.11 94.09 739.35 92.28 733.62 92.41 C 732.30 91.57 730.97 90.75 729.65 89.92 C 732.20 89.38 734.75 88.81 737.29 88.20 Z"/>
	<path d="M 821.51 90.84 C 821.34 91.31 821.18 91.77 821.01 92.23 C 814.37 94.13 806.80 93.39 799.94 93.11 L 801.06 90.80 C 807.84 90.01 814.98 90.98 821.51 90.84 Z"/>
	<path d="M 195.52 95.41 C 199.19 95.80 202.93 96.18 206.09 98.21 C 202.54 97.73 198.35 97.94 195.52 95.41 Z"/>
	<path d="M 317.91 95.16 C 322.89 96.08 327.88 95.89 332.90 96.35 L 332.14 98.33 C 333.28 98.38 334.42 98.47 335.54 98.61 C 336.65 99.47 337.48 100.78 338.32 101.90 C 335.67 101.17 333.22 100.37 331.22 98.38 C 327.00 97.83 322.78 97.38 318.52 97.22 C 318.32 96.53 318.11 95.85 317.91 95.16 Z"/>
	<path d="M 309.31 97.34 C 311.41 98.16 313.50 98.95 315.74 99.30 C 318.37 99.87 320.71 99.49 322.68 101.64 C 319.35 101.85 316.10 101.47 312.85 100.80 C 311.67 101.12 310.49 101.45 309.30 101.77 C 309.30 100.29 309.30 98.81 309.31 97.34 Z"/>
	<path d="M 742.24 98.26 L 742.93 97.78 L 743.65 98.14 L 743.68 98.99 L 742.98 99.47 L 742.25 99.10 L 742.24 98.26 Z" fill="#ffffff"/>
	<path d="M 739.88 99.22 L 740.41 99.18 L 740.46 99.71 L 739.92 99.76 L 739.88 99.22 Z" fill="#ffffff"/>
	<path d="M 249.85 100.19 C 252.71 100.12 255.29 100.93 257.95 101.83 C 264.06 103.83 270.12 102.80 276.07 105.58 C 274.94 106.14 273.82 106.71 272.70 107.28 C 279.15 108.37 285.66 108.47 292.04 110.05 C 291.27 110.77 290.51 111.49 289.75 112.21 C 289.00 112.29 288.26 112.38 287.52 112.46 L 287.61 114.96 C 280.83 113.44 274.32 111.07 267.61 109.31 C 263.05 107.90 258.36 107.13 254.32 104.70 C 252.29 103.31 250.07 103.03 249.85 100.19 Z" fill="#ffffff"/>
	<path d="M 234.98 100.38 C 240.48 100.46 244.19 103.32 248.96 105.47 C 254.45 107.73 260.35 108.70 265.89 110.89 C 271.17 112.97 276.82 113.21 282.11 115.24 C 278.33 115.72 274.74 116.88 271.04 117.63 C 267.95 117.29 264.95 115.99 261.93 115.28 C 256.11 113.96 249.62 111.90 245.11 107.83 C 243.27 106.23 241.10 105.71 238.83 105.04 C 237.49 103.53 236.21 101.98 234.98 100.38 Z" fill="#ffffff"/>
	<path d="M 713.72 104.87 C 713.97 107.14 710.19 106.88 708.83 106.22 C 709.98 105.42 712.40 103.79 713.72 104.87 Z" fill="#ffffff"/>
	<path d="M 208.23 108.84 C 213.61 110.65 217.93 113.97 223.79 114.50 C 219.78 115.07 216.01 115.82 211.97 114.93 C 207.17 113.92 202.50 113.12 197.58 112.96 C 201.12 111.58 204.64 110.07 208.23 108.84 Z" fill="#ffffff"/>
	<path d="M 696.25 109.24 C 696.93 109.89 696.93 109.89 696.25 109.24 Z"/>
</svg>
