<?xml version="1.0" standalone="no"?>
<!DOCTYPE svg PUBLIC "-//W3C//DTD SVG 20010904//EN"
 "http://www.w3.org/TR/2001/REC-SVG-20010904/DTD/svg10.dtd">
<svg version="1.0" xmlns="http://www.w3.org/2000/svg"
 width="1000.000000pt" height="557.000000pt" viewBox="0 0 1000.000000 557.000000"
 preserveAspectRatio="xMidYMid meet">
<metadata>
Created by potrace 1.16, written by Peter Selinger 2001-2019
</metadata>
<g transform="translate(0.000000,557.000000) scale(0.100000,-0.100000)"
fill="#000000" stroke="none">
<path d="M9187 5393 c-11 -10 -8 -111 3 -118 6 -4 10 13 10 44 0 28 5 51 10
51 6 0 10 7 10 15 0 15 -21 21 -33 8z"/>
<path d="M9390 5370 c-12 -17 -24 -45 -27 -64 -5 -34 10 -76 28 -76 6 0 6 7
-1 20 -8 14 -8 20 0 20 7 0 7 7 -1 21 -10 19 -7 25 20 48 34 29 39 46 16 54
-9 4 -22 -5 -35 -23z"/>
<path d="M2154 5290 c-57 -12 -115 -37 -139 -60 -11 -11 -35 -32 -53 -46 -18
-15 -40 -40 -49 -58 -45 -84 -163 -363 -163 -385 0 -9 -38 -92 -84 -186 -82
-167 -85 -171 -176 -259 -90 -86 -94 -88 -132 -83 -63 8 -97 51 -133 167 -21
68 -44 101 -103 146 -44 34 -50 36 -107 31 -63 -5 -124 -34 -208 -100 -65 -50
-325 -316 -372 -379 -18 -24 -82 -102 -109 -133 -28 -32 -43 -71 -31 -83 4 -4
15 4 24 18 9 13 40 52 69 86 28 34 52 64 52 67 0 19 330 351 390 393 96 66
118 79 160 90 32 8 54 8 74 1 45 -16 109 -86 126 -137 30 -96 58 -146 97 -175
21 -16 40 -32 43 -37 8 -10 55 -1 90 17 34 18 169 148 200 194 30 43 168 314
185 362 7 20 30 58 50 85 21 27 42 60 48 74 17 40 116 148 171 189 61 44 155
75 201 67 23 -5 41 -18 60 -46 17 -24 36 -40 48 -40 18 0 19 5 14 55 -3 30 -3
55 -1 55 2 0 8 -18 14 -40 6 -22 15 -40 20 -40 6 0 10 -30 10 -67 1 -86 12
-137 42 -178 25 -35 112 -108 177 -149 22 -14 52 -43 66 -64 24 -37 49 -129
36 -136 -4 -3 -29 24 -56 60 -44 55 -62 69 -140 108 -49 24 -111 52 -137 61
-57 20 -105 51 -130 85 -14 20 -16 31 -9 57 7 25 6 36 -5 48 -13 12 -10 17 27
35 65 34 38 34 -34 1 -36 -16 -82 -45 -103 -63 -37 -33 -104 -127 -104 -148 0
-22 17 -8 40 33 26 46 129 152 138 142 4 -3 2 -9 -4 -13 -53 -35 -28 -145 34
-147 17 0 27 -5 27 -15 1 -24 13 -37 45 -48 35 -13 42 4 8 18 -14 5 -17 9 -8
9 9 1 26 -6 38 -15 22 -15 22 -17 6 -29 -13 -9 -48 -11 -130 -8 -135 6 -179
-6 -286 -76 -78 -51 -134 -106 -187 -184 -29 -43 -66 -116 -72 -142 -1 -5 -8
-24 -16 -42 -43 -105 30 -202 132 -174 29 8 85 42 219 134 17 12 60 24 106 30
72 10 80 9 134 -16 50 -23 59 -32 81 -79 49 -110 58 -241 41 -603 -11 -239
-15 -355 -11 -355 15 0 35 68 35 117 0 32 5 76 10 98 5 22 12 85 15 140 3 55
8 116 10 135 9 77 4 311 -9 377 -17 91 -67 176 -121 207 -55 32 -109 38 -191
22 -73 -14 -101 -28 -228 -114 -69 -47 -84 -53 -114 -48 -19 3 -46 16 -59 28
-22 21 -24 28 -18 73 7 57 24 97 77 178 125 196 254 259 523 256 74 0 151 -6
172 -12 51 -16 137 -87 198 -164 28 -34 55 -62 62 -63 15 0 33 54 33 99 -1 20
-7 65 -14 99 -16 71 -40 103 -121 157 -83 56 -173 143 -183 178 -6 17 -13 72
-16 121 -8 107 -24 139 -102 197 -45 35 -62 41 -111 44 -32 2 -76 0 -99 -5z
m41 -70 c3 -6 -1 -7 -9 -4 -18 7 -21 14 -7 14 6 0 13 -4 16 -10z m-103 -92
c-7 -7 -12 -8 -12 -2 0 14 12 26 19 19 2 -3 -1 -11 -7 -17z m176 -301 c17 -47
14 -56 -8 -28 -20 23 -27 61 -12 61 4 0 13 -15 20 -33z m362 -207 c42 -34 60
-54 89 -102 33 -55 12 -47 -32 12 -21 28 -62 66 -92 86 -30 20 -55 39 -55 41
0 11 60 -14 90 -37z"/>
<path d="M9039 5250 c-56 -29 -83 -102 -76 -200 9 -114 50 -210 89 -210 7 0 3
7 -8 15 -27 21 -10 18 36 -5 21 -11 41 -16 44 -11 3 5 -8 14 -24 21 -36 15
-45 41 -44 130 1 75 23 126 59 140 28 11 35 23 8 13 -58 -20 -85 -78 -85 -184
l-1 -69 -24 32 c-22 30 -24 41 -21 121 2 48 2 87 0 87 -1 0 -7 -10 -13 -22 -7
-18 -8 -14 -3 17 8 54 31 90 71 112 18 10 33 21 33 25 0 10 1 11 -41 -12z"/>
<path d="M8473 5241 c-27 -23 -31 -67 -9 -109 21 -40 31 -37 15 4 -19 51 -19
68 3 91 26 28 21 38 -9 14z"/>
<path d="M8636 5198 c-31 -63 -34 -117 -6 -149 l20 -24 -13 33 c-18 43 -6 121
23 162 12 17 17 30 12 30 -6 0 -22 -23 -36 -52z"/>
<path d="M8406 5222 c-2 -4 -1 -14 5 -22 7 -12 9 -10 9 8 0 23 -5 28 -14 14z"/>
<path d="M8791 5204 c-22 -28 -27 -59 -12 -68 5 -4 7 3 4 14 -4 14 3 30 17 45
13 14 21 27 18 30 -3 4 -15 -6 -27 -21z"/>
<path d="M9058 5202 c-16 -9 -28 -20 -28 -25 0 -7 37 15 69 40 15 11 -19 -1
-41 -15z"/>
<path d="M2203 5121 c-38 -41 -43 -51 -43 -79 0 -16 10 -41 21 -56 17 -22 27
-26 48 -21 58 14 89 70 73 130 -12 42 -40 46 -34 6 6 -41 -5 -68 -20 -53 -8 8
-8 15 2 27 19 23 3 31 -20 10 -11 -10 -20 -29 -20 -42 0 -31 -18 -30 -26 2 -8
32 19 75 46 75 11 0 20 5 20 10 0 17 -29 11 -47 -9z"/>
<path d="M8781 5103 c-1 -12 5 -26 12 -30 7 -4 21 -29 31 -55 19 -50 89 -138
111 -138 8 0 -7 21 -33 48 -45 45 -82 120 -82 167 l-1 20 -11 -20 c-12 -19
-12 -19 -19 5 -6 23 -7 23 -8 3z"/>
<path d="M8692 5090 c0 -14 2 -19 5 -12 2 6 2 18 0 25 -3 6 -5 1 -5 -13z"/>
<path d="M8700 5053 c0 -6 8 -17 18 -24 16 -13 16 -13 2 6 -8 11 -16 22 -17
24 -2 2 -3 0 -3 -6z"/>
<path d="M8326 4997 c-54 -15 -132 -94 -147 -149 -23 -86 11 -238 56 -247 20
-3 20 -3 1 18 -26 29 -43 118 -36 191 8 84 48 137 123 164 32 11 57 24 57 28
0 9 -2 9 -54 -5z"/>
<path d="M8365 4915 c-47 -20 -79 -86 -72 -146 6 -52 37 -123 45 -101 2 7 -3
28 -12 46 -9 19 -16 54 -16 78 0 36 6 50 33 79 18 18 41 39 52 46 27 16 8 15
-30 -2z"/>
<path d="M2406 4903 c-8 -8 -8 -46 0 -67 11 -29 24 -17 24 23 0 38 -10 57 -24
44z"/>
<path d="M9272 4880 c-37 -47 -30 -123 15 -168 8 -8 17 -12 20 -8 4 3 -2 13
-13 20 -16 12 -19 26 -17 82 1 49 6 71 17 80 17 12 21 24 9 23 -5 0 -18 -13
-31 -29z"/>
<path d="M9466 4799 c-42 -33 -66 -90 -66 -157 0 -63 25 -112 58 -112 13 0 12
4 -6 20 -36 34 -33 156 5 214 23 35 28 38 59 33 35 -6 47 6 18 17 -26 10 -40
7 -68 -15z"/>
<path d="M7656 4733 c-14 -29 -11 -89 5 -99 5 -3 9 12 9 33 0 21 7 50 14 66
13 23 13 27 1 27 -8 0 -21 -12 -29 -27z"/>
<path d="M8060 4717 c-35 -18 -52 -55 -46 -102 8 -59 26 -115 36 -115 13 0 12
16 -4 70 -22 74 5 140 56 140 10 0 18 5 18 10 0 14 -30 12 -60 -3z"/>
<path d="M7565 4700 c-21 -24 -25 -104 -6 -123 10 -10 12 -3 10 30 -2 23 0 45
3 49 4 3 4 13 1 21 -4 9 2 16 16 20 11 3 21 9 21 14 0 16 -27 9 -45 -11z"/>
<path d="M9170 4674 c-47 -40 -63 -87 -56 -167 5 -69 24 -113 52 -124 8 -3 18
-2 22 2 4 4 1 10 -5 12 -7 3 -13 11 -13 19 0 9 -4 13 -9 10 -13 -8 -21 31 -21
106 0 98 35 148 106 148 14 0 22 4 19 10 -12 19 -63 10 -95 -16z"/>
<path d="M7605 4630 c3 -5 8 -10 11 -10 2 0 4 5 4 10 0 6 -5 10 -11 10 -5 0
-7 -4 -4 -10z"/>
<path d="M7466 4574 c-3 -9 -6 -28 -6 -43 0 -19 -8 -32 -25 -41 -13 -7 -31
-28 -40 -47 -15 -31 -15 -35 1 -63 10 -16 24 -32 32 -35 26 -10 24 3 -2 20
-18 12 -26 26 -26 45 0 35 44 84 69 77 16 -4 18 -1 11 23 -4 15 -6 39 -3 54 6
29 -1 35 -11 10z"/>
<path d="M8713 4568 c-45 -15 -149 -111 -155 -143 -8 -40 9 -115 42 -180 25
-51 30 -73 33 -145 2 -92 21 -140 55 -140 15 1 15 2 -3 16 -17 12 -21 29 -24
100 l-3 86 30 -16 c17 -9 41 -16 54 -16 18 1 13 6 -22 24 -25 12 -46 30 -48
38 -9 47 61 128 111 128 9 0 17 5 17 10 0 14 -27 12 -60 -5 -30 -15 -80 -74
-80 -93 0 -6 -5 -14 -10 -17 -16 -10 -60 99 -66 164 l-6 57 61 56 c77 70 138
84 224 54 30 -11 37 -11 37 -1 0 7 -7 15 -15 19 -32 12 -141 15 -172 4z"/>
<path d="M7287 4503 c-11 -10 -8 -83 3 -83 6 0 10 16 10 35 0 19 5 35 10 35 6
0 10 5 10 10 0 11 -23 14 -33 3z"/>
<path d="M7662 4485 c-40 -34 -55 -75 -50 -135 4 -41 45 -127 55 -116 2 2 -8
27 -22 57 -37 80 -30 134 24 183 29 27 32 18 14 -38 -13 -40 -14 -60 -6 -115
6 -36 14 -75 19 -85 6 -15 4 -17 -7 -11 -8 4 0 -7 18 -26 38 -39 54 -33 24 8
-25 33 -46 148 -38 200 3 18 12 47 20 63 13 25 13 29 0 34 -20 8 -18 9 -51
-19z"/>
<path d="M7813 4448 c-71 -80 -87 -148 -51 -218 14 -27 31 -46 43 -48 19 -3
19 -2 -2 15 -66 54 -44 206 34 242 13 6 23 15 23 21 0 18 -26 11 -47 -12z"/>
<path d="M7576 4421 c-10 -10 -18 -32 -18 -48 -1 -32 43 -136 69 -165 20 -22
11 -23 -26 -3 -30 15 -101 92 -101 109 0 5 7 18 17 28 9 10 12 18 6 18 -19 0
-45 -38 -39 -58 17 -51 127 -132 180 -132 24 0 24 2 -17 43 -40 42 -77 119
-77 161 0 11 10 30 22 43 12 13 17 23 11 23 -5 0 -18 -9 -27 -19z"/>
<path d="M8196 4395 c-9 -18 -16 -46 -16 -62 0 -15 -7 -37 -15 -48 -18 -23
-11 -81 14 -109 15 -17 63 -46 76 -46 15 0 2 20 -17 26 -34 10 -56 33 -63 66
-11 48 9 54 29 9 19 -42 62 -69 80 -51 7 7 5 10 -5 10 -43 0 -87 101 -59 135
10 12 10 15 -3 15 -13 0 -13 6 -4 35 8 28 15 35 35 35 31 0 26 7 -10 14 -22 4
-29 -1 -42 -29z"/>
<path d="M7446 4308 c-9 -12 -16 -29 -16 -36 0 -28 34 -84 64 -107 35 -26 106
-44 106 -26 0 6 -13 11 -30 11 -64 0 -139 106 -111 159 15 28 6 27 -13 -1z"/>
<path d="M715 4204 c-35 -36 -62 -71 -60 -77 3 -7 -15 -26 -38 -44 -23 -18
-55 -44 -72 -59 -16 -15 -58 -49 -93 -76 -63 -51 -82 -74 -82 -102 0 -22 15
-20 68 11 31 18 41 29 31 31 -11 2 -15 10 -12 23 3 10 8 19 12 19 3 0 18 10
32 23 92 77 132 111 160 135 17 15 47 40 66 56 31 27 36 28 50 13 14 -14 18
-14 39 0 30 19 31 36 2 28 -18 -5 -14 1 14 25 48 40 39 60 -9 23 -19 -15 -42
-28 -50 -29 -8 -1 -30 -14 -48 -29 -44 -33 -46 -17 -2 22 42 38 72 73 63 73
-4 0 -36 -30 -71 -66z m-285 -323 c0 -5 -7 -11 -15 -15 -15 -5 -20 5 -8 17 9
10 23 9 23 -2z"/>
<path d="M985 4245 c-14 -13 -25 -30 -25 -37 0 -8 -15 -22 -32 -33 -91 -53
-296 -217 -339 -271 -24 -30 -26 -39 -16 -55 6 -10 14 -19 17 -19 10 0 128 79
135 90 9 15 -6 11 -40 -10 -88 -55 -127 -62 -69 -12 84 74 144 122 213 172
104 77 104 77 96 51 -4 -13 -2 -21 5 -21 14 0 86 46 95 60 14 23 -2 18 -37
-10 -26 -21 -39 -27 -44 -19 -4 8 7 24 29 42 21 16 37 38 37 48 0 11 7 22 15
25 16 6 11 24 -6 24 -5 0 -21 -11 -34 -25z"/>
<path d="M8053 4249 c-38 -14 -56 -54 -50 -109 7 -57 22 -84 54 -99 29 -13 33
-14 33 -1 0 5 -11 12 -24 16 -28 7 -46 47 -46 101 0 25 8 43 30 65 35 34 35
39 3 27z"/>
<path d="M7026 4234 c-26 -15 -28 -19 -22 -57 6 -39 44 -113 52 -104 2 2 -3
20 -11 40 -22 53 -19 95 8 118 27 22 13 24 -27 3z"/>
<path d="M7391 4179 c-1 -42 3 -50 35 -79 26 -22 43 -30 58 -26 11 3 26 6 31
7 6 1 -8 5 -29 8 -46 7 -75 40 -86 98 l-8 38 -1 -46z"/>
<path d="M7146 4191 c-39 -43 -47 -142 -15 -180 26 -31 35 -21 15 18 -31 59
-9 161 34 161 11 0 20 5 20 10 0 17 -36 11 -54 -9z"/>
<path d="M1076 4183 c-3 -3 -6 -17 -6 -29 0 -19 -13 -30 -72 -58 -40 -19 -95
-53 -122 -75 -26 -23 -51 -41 -55 -41 -14 0 -53 -71 -47 -86 6 -15 8 -15 26 1
11 10 17 22 14 27 -6 10 24 48 38 48 5 0 33 18 62 40 29 22 56 40 60 40 5 0
21 9 37 21 16 11 29 18 29 15 0 -3 23 6 50 20 54 27 70 59 23 48 -22 -6 -25
-4 -20 9 6 17 -5 31 -17 20z"/>
<path d="M7281 4166 c-9 -11 -6 -18 15 -35 26 -20 74 -29 74 -13 0 4 -15 12
-32 17 -22 7 -33 16 -32 28 2 21 -9 22 -25 3z"/>
<path d="M7864 4104 c-25 -32 -29 -47 -29 -100 0 -63 20 -104 52 -104 20 0 16
18 -7 25 -17 6 -20 15 -20 73 0 50 5 76 21 101 28 47 17 50 -17 5z"/>
<path d="M7546 4038 c-24 -26 -47 -62 -55 -88 -34 -114 -45 -136 -102 -193
-67 -66 -104 -125 -115 -181 -4 -21 -22 -77 -40 -122 -32 -80 -34 -87 -24
-151 5 -38 19 -99 30 -138 11 -38 20 -72 20 -75 0 -9 -124 -2 -151 8 -24 10
-27 18 -37 98 -11 79 -15 92 -45 123 -19 20 -50 61 -70 92 -20 31 -49 61 -63
68 -15 6 -59 39 -99 71 -41 33 -78 60 -84 60 -6 0 -11 4 -11 9 0 5 -11 12 -25
15 -13 3 -39 19 -57 34 -47 41 -144 92 -172 92 -39 0 -39 -15 -3 -63 18 -24
46 -79 61 -122 26 -72 27 -82 17 -140 -17 -93 -14 -122 18 -189 48 -98 141
-184 141 -129 0 9 12 29 27 45 14 15 24 31 20 35 -9 8 -47 -26 -47 -44 0 -40
-48 14 -99 111 -44 82 -42 86 32 88 132 3 149 -5 177 -81 35 -95 52 -129 76
-152 24 -22 24 -22 38 -3 14 18 22 49 31 123 4 27 2 32 -7 23 -9 -9 -15 -7
-25 10 -12 22 -12 22 -13 -10 0 -18 5 -42 11 -54 13 -25 3 -68 -16 -68 -29 0
-49 60 -46 140 3 73 12 102 33 97 6 -1 11 10 12 26 2 27 -8 36 -19 17 -14 -22
-35 -10 -35 21 0 24 3 30 16 25 9 -3 19 -6 23 -6 10 0 71 -85 71 -98 0 -6 17
-28 39 -49 31 -31 43 -54 63 -126 18 -61 22 -90 14 -95 -6 -4 -230 -7 -498 -8
-546 -1 -512 4 -538 -75 -11 -33 -11 -47 -1 -77 8 -20 21 -44 30 -53 19 -18
97 -66 121 -75 9 -3 26 -21 39 -40 19 -27 22 -42 18 -71 -8 -46 -24 -59 -96
-75 -66 -14 -94 -29 -152 -84 -66 -61 -96 -111 -118 -201 -41 -159 -16 -353
69 -536 17 -38 48 -91 68 -117 20 -27 48 -66 61 -88 13 -23 34 -51 45 -64 12
-13 34 -41 50 -62 16 -22 49 -60 73 -85 24 -24 43 -47 43 -50 0 -3 -32 -21
-71 -40 -82 -40 -151 -104 -203 -190 -33 -53 -38 -69 -34 -104 6 -46 55 -127
94 -155 14 -9 38 -28 55 -40 27 -22 67 -40 178 -79 25 -8 54 -21 65 -28 12 -7
45 -16 74 -20 28 -4 52 -10 52 -15 0 -4 11 -5 25 -2 14 2 58 -3 98 -11 202
-44 625 -41 1092 7 77 8 155 19 173 25 17 5 67 12 110 16 461 35 480 39 712
147 36 17 79 32 95 33 17 2 83 6 148 10 105 7 117 6 117 -9 0 -9 6 -16 13 -16
6 0 4 -5 -5 -11 -10 -5 -18 -14 -18 -20 0 -12 94 -4 134 11 15 5 54 10 86 10
l58 0 7 -53 c3 -28 15 -96 27 -151 22 -106 18 -123 -27 -111 -32 10 -246 24
-261 18 -8 -3 -14 -1 -14 5 0 6 -3 17 -6 26 -4 12 0 16 16 16 11 0 18 4 15 10
-10 17 -44 11 -57 -10 -8 -12 -24 -20 -41 -20 -16 0 -26 4 -22 10 3 6 15 10
26 10 10 0 19 5 19 11 0 15 -48 3 -67 -16 -8 -8 -25 -15 -37 -15 -13 0 -38 -3
-55 -6 -18 -4 -31 -3 -30 2 4 23 -3 26 -21 9 -16 -14 -31 -17 -79 -12 -36 3
-63 1 -70 -6 -6 -6 -43 -11 -83 -11 -40 -1 -76 -5 -80 -10 -9 -13 -422 -13
-728 -1 -278 11 -365 10 -405 -5 -19 -7 -31 -7 -40 0 -8 7 -168 10 -466 10
-250 1 -476 2 -504 4 -85 7 -513 18 -650 17 -226 -1 -268 0 -276 5 -14 8 -52
-17 -42 -27 5 -5 64 -12 131 -16 67 -3 122 -10 122 -15 0 -5 -42 -9 -92 -8
-136 2 -148 1 -148 -10 0 -6 56 -10 147 -10 110 0 144 -3 136 -11 -7 -7 -53
-12 -116 -13 -72 -1 -110 -6 -121 -15 -9 -8 -14 -16 -11 -20 6 -5 267 -11 469
-10 60 0 77 -3 74 -13 -4 -10 -49 -14 -203 -16 -109 -1 -201 -4 -203 -7 -12
-11 9 -15 89 -16 48 -1 87 -6 91 -12 5 -8 10 -7 20 1 9 7 84 13 196 17 171 6
182 5 182 -12 1 -17 1 -17 15 0 12 16 23 18 81 13 61 -5 83 -15 84 -39 0 -12
-18 -15 -147 -21 l-123 -6 0 25 c0 14 -4 25 -10 25 -5 0 -10 -9 -10 -20 0 -24
-6 -27 -82 -33 -50 -5 -57 -3 -61 15 -3 11 -10 17 -17 13 -6 -4 -8 -15 -5 -25
5 -14 -1 -19 -30 -22 -31 -3 -35 -1 -36 19 -1 22 -4 35 -9 51 -2 4 -6 -11 -9
-33 l-6 -40 -102 -3 c-83 -2 -103 -6 -103 -17 0 -12 18 -15 96 -14 52 0 98 -1
101 -4 7 -8 -71 -17 -166 -20 -57 -1 -86 -6 -89 -14 -3 -10 22 -13 102 -13 64
0 106 -4 106 -10 0 -5 -7 -10 -15 -10 -8 0 -15 -4 -15 -10 0 -11 293 -5 431 9
53 6 130 8 170 4 41 -3 83 -5 94 -4 11 1 54 3 95 4 41 2 91 6 110 10 57 11
177 20 315 23 72 2 234 6 360 9 127 3 361 6 520 5 505 -1 808 1 870 4 33 2
114 5 180 7 l120 3 3 -60 c4 -82 22 -95 22 -17 0 35 -5 65 -11 69 -15 9 9 24
39 24 17 0 22 -6 22 -25 0 -31 17 -33 22 -2 2 14 10 22 23 22 17 0 20 -7 21
-50 3 -80 3 -83 15 -62 6 11 8 38 4 67 -6 47 -6 49 20 56 43 11 48 -4 43 -126
-3 -85 -1 -113 9 -122 7 -6 16 -8 19 -5 10 10 19 91 19 175 l0 84 38 -4 c20
-2 37 0 37 4 0 5 15 8 33 8 41 0 80 26 74 50 -2 9 0 61 5 116 6 54 10 106 10
114 -1 40 -14 115 -23 131 -5 11 -7 24 -4 30 4 5 2 16 -4 23 -7 8 -14 37 -18
65 -5 45 -4 51 11 45 9 -4 16 -1 16 6 0 6 -9 14 -19 17 -22 6 -31 31 -31 92 0
24 -12 91 -26 149 -16 65 -24 121 -21 144 3 21 2 38 -3 38 -11 0 -23 41 -21
73 4 51 -50 90 -64 46 -5 -16 -13 -19 -33 -15 -15 3 -44 8 -65 12 -20 3 -40
10 -43 15 -3 5 -20 7 -37 5 -18 -3 -135 -8 -261 -11 -182 -5 -227 -4 -224 6 8
24 135 41 276 35 72 -2 132 -1 132 4 0 10 -26 20 -55 20 -13 0 -27 5 -30 11
-5 7 -25 8 -59 3 -52 -7 -195 -8 -203 -1 -2 2 26 46 62 98 71 103 132 221 141
272 3 17 9 41 14 52 12 31 36 122 53 205 18 90 15 196 -7 240 -9 18 -13 36
-10 41 3 5 -5 23 -18 40 -54 72 -112 120 -194 160 -61 29 -90 49 -104 72 -34
55 -27 71 63 157 96 91 115 129 91 185 -27 65 -39 67 -287 67 -140 0 -227 4
-235 11 -9 7 -16 7 -24 -1 -7 -7 -36 -12 -65 -12 l-52 0 42 63 c51 75 70 130
83 249 7 66 50 202 67 217 7 5 24 34 36 63 13 29 35 77 48 106 13 30 22 56 19
59 -7 7 -45 -55 -53 -87 -3 -14 -26 -53 -50 -87 -24 -34 -43 -69 -43 -77 0 -8
-4 -25 -9 -38 -20 -50 -40 -136 -45 -198 -3 -35 -11 -69 -16 -74 -7 -7 -10 -5
-10 6 0 9 -11 29 -24 45 -21 25 -23 34 -16 84 4 31 17 78 29 104 24 53 26 65
11 65 -6 0 -18 -17 -27 -37 -10 -21 -19 -40 -20 -42 -1 -2 -9 2 -18 9 -18 15
-21 -1 -5 -31 6 -11 8 -35 4 -54 -5 -29 -9 -33 -20 -24 -7 6 -16 26 -20 45 -8
43 -24 54 -24 17 0 -34 29 -91 64 -126 24 -24 46 -82 46 -122 0 -11 -11 -37
-23 -59 l-24 -38 -22 43 c-17 31 -22 54 -18 81 6 41 -6 50 -23 18 -11 -21 -44
-27 -55 -10 -3 5 -1 20 6 32 7 12 13 56 14 98 4 144 24 178 153 269 44 31 71
59 90 94 30 56 112 120 146 115 15 -2 23 -14 30 -43 10 -45 0 -106 -39 -228
-18 -59 -26 -107 -29 -191 -2 -62 -9 -123 -16 -136 -21 -40 -70 -80 -98 -82
-15 0 -31 -2 -37 -3 -5 -2 -16 -3 -23 -4 -7 0 -10 -6 -7 -11 6 -10 49 -7 100
7 20 6 20 5 1 -15 -18 -21 -16 -52 3 -52 6 0 16 10 22 23 6 12 19 31 29 42 33
37 58 144 64 265 5 97 11 131 41 217 48 139 45 194 -13 247 -21 18 -22 17 -82
-19 -70 -43 -119 -89 -155 -145 -13 -21 -41 -51 -61 -67 -20 -15 -54 -43 -75
-62 -22 -18 -39 -28 -39 -22 0 7 -4 10 -9 7 -18 -11 -61 14 -81 46 -24 39 -26
102 -5 152 20 48 10 46 -15 -4 -34 -66 -23 -160 23 -198 8 -7 31 -13 52 -14
28 -1 35 -5 31 -17 -3 -9 -14 -43 -26 -76 -12 -33 -23 -85 -25 -115 -4 -69
-14 -92 -69 -160 -25 -30 -56 -72 -68 -92 l-23 -36 -136 -1 c-133 -1 -137 0
-132 20 3 11 18 26 33 34 41 21 139 113 156 147 23 45 9 45 -19 1 -25 -39 -64
-79 -70 -72 -2 2 1 27 7 56 8 36 22 64 49 94 21 23 35 44 32 48 -4 3 -11 -2
-16 -12 -18 -31 -32 -20 -24 21 4 20 3 34 -1 29 -13 -13 -53 -148 -60 -204 -4
-38 -12 -58 -27 -68 -37 -26 -46 -19 -35 23 13 51 26 147 38 272 17 182 19
192 39 185 12 -3 21 0 25 10 4 10 19 15 52 15 l47 0 -7 -32 c-25 -125 -29
-171 -17 -204 16 -44 12 -159 -7 -204 -8 -19 -21 -57 -28 -83 -11 -43 -11 -48
3 -45 15 3 27 36 70 192 13 51 14 69 3 127 -12 65 -11 93 9 189 12 55 8 194
-5 212 -6 7 -20 47 -33 88 -12 41 -28 93 -34 115 -17 56 -39 56 -91 3z m54 -2
c0 -7 -11 -38 -24 -67 -12 -30 -26 -85 -30 -124 -4 -38 -11 -97 -16 -130 -5
-33 -14 -105 -20 -160 -19 -170 -20 -180 -29 -194 -7 -11 -19 -4 -56 30 l-47
44 6 60 c3 33 9 73 12 89 5 20 3 27 -4 22 -6 -3 -16 -31 -23 -61 -13 -58 -23
-68 -34 -35 -4 11 -10 18 -15 15 -11 -7 8 -64 29 -88 13 -16 13 -19 1 -27 -8
-6 -21 -10 -27 -10 -7 0 -13 -5 -13 -11 0 -8 13 -9 41 -5 39 6 43 4 80 -36 24
-26 39 -53 39 -68 0 -27 -37 -170 -45 -179 -3 -3 -20 10 -37 28 -28 30 -30 37
-26 87 5 60 -10 70 -24 16 -5 -18 -12 -32 -17 -32 -4 0 -20 23 -35 50 -15 28
-31 48 -35 45 -12 -7 -23 56 -12 69 5 6 13 29 17 51 10 57 63 193 93 240 14
22 44 61 67 86 47 52 78 107 89 159 4 19 13 45 21 57 8 12 14 27 14 33 0 12
41 60 52 60 4 0 8 -6 8 -14z m46 -151 c16 -49 16 -53 -6 -100 -25 -55 -67
-115 -81 -115 -25 0 -2 98 38 162 29 48 29 57 -1 29 l-23 -22 8 48 c4 26 11
57 15 67 7 18 8 18 21 0 7 -10 21 -41 29 -69z m44 -162 c0 -12 -57 -29 -66
-20 -3 3 5 25 17 49 l22 43 13 -30 c7 -16 13 -35 14 -42z m-1149 -44 c11 -6
29 -29 39 -52 10 -23 29 -57 40 -74 19 -29 20 -33 5 -33 -9 0 -25 5 -36 10
-15 8 -19 7 -19 -4 0 -15 21 -26 47 -26 27 0 84 -51 100 -87 8 -20 13 -36 11
-37 -2 -2 -22 -1 -45 2 -30 3 -44 9 -48 23 -9 26 -23 24 -27 -3 -2 -17 -10
-23 -28 -23 -19 0 -24 5 -22 20 13 98 3 151 -55 283 -6 15 11 16 38 1z m199
-138 c25 -19 49 -38 54 -43 10 -8 13 -29 21 -148 4 -66 3 -72 -8 -48 -7 15
-22 37 -34 50 -11 13 -27 40 -34 62 -8 21 -25 50 -40 65 -26 27 -89 122 -89
135 0 11 78 -33 130 -73z m1182 -315 c52 -22 108 -112 80 -130 -13 -8 -200
-11 -208 -3 -10 10 22 71 60 114 15 18 29 33 31 33 1 0 18 -6 37 -14z m-614
-43 c19 -21 46 -53 59 -70 l25 -33 -45 0 c-44 0 -75 19 -63 38 3 6 -1 29 -9
52 -8 23 -15 44 -15 46 0 12 18 0 48 -33z m1335 -151 c32 -28 19 -84 -33 -132
-27 -26 -27 -26 -161 -20 -74 4 -388 8 -699 9 -311 1 -569 3 -575 3 -60 2
-943 -14 -982 -18 -50 -5 -54 -4 -98 37 -49 45 -54 62 -29 97 13 18 25 23 62
23 26 0 144 2 262 5 118 2 278 4 355 4 108 -1 568 -1 1008 0 15 0 39 0 55 -1
87 -2 300 3 377 10 145 12 436 2 458 -17z m-865 -188 c9 -2 11 -12 7 -26 -6
-22 -5 -21 19 5 24 24 34 27 91 27 60 0 88 -11 65 -25 -13 -8 -13 -45 0 -45 6
0 10 9 10 21 0 20 21 49 36 49 3 0 4 -16 1 -36 -4 -25 -2 -34 6 -31 7 2 13 15
15 29 2 15 10 29 17 32 11 4 13 -2 8 -24 -7 -39 9 -39 24 0 8 23 18 30 37 30
23 0 25 -2 16 -26 -13 -33 -13 -34 4 -34 8 0 16 10 18 22 2 12 9 23 15 26 9 2
11 -5 7 -27 -4 -20 -2 -31 5 -31 6 0 11 8 11 18 0 10 7 27 15 38 13 18 14 17
12 -16 -3 -43 16 -56 23 -16 3 16 10 31 17 33 8 3 10 -6 6 -31 -7 -46 13 -49
25 -4 12 46 40 50 39 6 -3 -91 3 -129 21 -135 9 -4 25 -17 35 -30 10 -13 24
-23 32 -23 7 0 26 -7 41 -15 16 -8 37 -15 46 -15 9 0 18 -9 20 -21 3 -24 33
-47 45 -36 4 5 1 12 -7 17 -31 20 10 9 47 -12 21 -12 50 -28 66 -35 26 -14 34
-32 21 -46 -4 -3 -17 1 -30 10 -20 13 -24 13 -24 1 0 -8 6 -20 13 -27 10 -10
8 -15 -7 -27 -27 -19 -33 -18 -48 10 -18 33 -142 116 -155 103 -6 -7 46 -57
60 -57 41 0 109 -100 128 -190 9 -41 9 -71 -1 -124 -17 -100 -30 -136 -141
-361 -98 -202 -203 -374 -289 -475 -44 -51 -110 -156 -110 -175 0 -4 7 -2 15
5 8 7 15 18 15 24 0 14 60 95 103 140 68 72 224 325 288 467 28 63 42 82 77
104 24 15 45 25 48 22 19 -19 -230 -424 -327 -532 -19 -22 -52 -67 -72 -100
-19 -33 -49 -73 -66 -89 -22 -21 -29 -36 -25 -50 6 -25 -25 -66 -50 -66 -22 0
-20 17 4 32 25 16 26 33 3 23 -10 -4 -30 -8 -45 -9 -30 -2 -45 -12 -35 -22 4
-4 13 -1 22 6 20 17 27 10 11 -12 -19 -26 -127 -38 -381 -43 -121 -3 -249 -7
-285 -10 -115 -9 -643 -7 -693 3 -56 11 -50 6 -272 227 -100 101 -202 213
-248 275 -42 58 -90 121 -106 140 -15 19 -31 45 -35 56 -4 12 -15 29 -26 39
-11 10 -20 22 -20 28 0 5 -8 21 -19 35 -10 15 -21 38 -24 52 -3 14 -17 66 -33
115 -26 86 -37 218 -23 280 2 12 -1 19 -8 17 -18 -3 -16 6 7 35 11 14 20 31
20 38 0 42 164 195 209 195 8 0 -10 -15 -40 -33 -121 -73 -167 -164 -176 -352
-5 -85 -2 -108 15 -150 24 -62 56 -169 51 -173 -2 -2 4 -8 14 -13 9 -6 17 -15
17 -22 0 -15 47 -67 60 -67 6 0 36 -35 67 -77 90 -122 183 -233 325 -388 21
-22 38 -35 38 -30 0 6 -18 30 -41 55 -42 47 -129 151 -214 254 -27 34 -63 81
-80 105 -16 25 -51 66 -77 91 -53 54 -102 143 -118 215 -6 27 -16 56 -23 64
-29 35 -5 302 31 338 8 8 27 32 41 54 34 50 79 83 167 124 97 45 130 75 144
136 7 28 10 61 7 74 -4 21 -2 23 10 13 23 -19 11 -93 -23 -141 -29 -41 -86
-82 -157 -113 -20 -9 -57 -39 -82 -66 -59 -66 -85 -148 -85 -267 1 -195 34
-285 155 -425 72 -82 94 -112 187 -245 128 -186 255 -332 172 -198 -15 23 -46
65 -69 92 -23 28 -81 109 -130 180 -48 72 -115 159 -148 195 -33 36 -73 93
-90 128 -49 106 -73 306 -46 391 25 77 31 89 72 134 42 46 78 68 202 128 70
34 110 178 64 228 -15 16 -24 19 -33 12 -7 -6 -16 -8 -19 -4 -17 16 -3 23 48
23 48 0 55 -3 55 -19 0 -11 5 -23 10 -26 6 -3 10 -24 10 -46 0 -41 -18 -85
-52 -128 -23 -30 -15 -40 13 -15 65 58 90 138 59 190 l-18 31 77 7 c42 3 91 2
109 -3 22 -7 42 -6 60 1 17 7 205 12 522 15 272 2 500 6 505 8 10 3 46 -2 73
-11z m-1508 -34 c14 -20 20 -41 18 -62 l-4 -33 -9 30 c-4 17 -19 45 -33 63
-19 25 -21 32 -9 32 9 0 25 -13 37 -30z m2120 20 c0 -5 -5 -10 -10 -10 -6 0
-10 -15 -9 -32 2 -18 2 -50 1 -72 -2 -32 -4 -36 -16 -27 -14 12 -14 69 0 92 3
6 1 15 -5 19 -9 5 -8 11 4 24 18 18 35 21 35 6z m40 1 c0 -5 -7 -14 -15 -21
-16 -14 -18 -10 -9 14 6 17 24 22 24 7z m60 6 c0 -2 -12 -14 -26 -28 l-26 -24
13 28 c7 15 18 27 26 27 7 0 13 -1 13 -3z m50 -14 c-1 -5 -15 -24 -33 -43 -18
-19 -31 -33 -30 -31 2 2 -1 9 -7 16 -6 7 -1 20 16 38 23 25 55 37 54 20z
m-117 -110 c-3 -32 -7 -60 -9 -61 -6 -8 -16 89 -10 103 13 36 24 12 19 -42z
m24 -5 c-3 -8 -6 -5 -6 6 -1 11 2 17 5 13 3 -3 4 -12 1 -19z m52 -28 c1 -13 0
-13 -9 0 -5 8 -9 24 -9 35 l0 20 9 -20 c5 -11 9 -27 9 -35z m-30 -20 c11 -33
-2 -41 -19 -11 -12 24 -13 41 -1 41 5 0 14 -13 20 -30z m235 -137 c9 -22 -20
-14 -48 12 -14 13 -26 26 -26 28 0 9 69 -29 74 -40z m50 -49 c5 -14 4 -15 -9
-4 -17 14 -19 20 -6 20 5 0 12 -7 15 -16z m-14 -66 c0 -15 -19 -8 -29 11 -14
25 0 37 16 15 7 -10 13 -21 13 -26z m-39 -15 c11 -13 11 -17 2 -20 -19 -7 -15
-20 7 -26 16 -4 20 -14 22 -49 5 -128 -7 -181 -71 -320 -15 -33 -30 -49 -51
-57 -35 -12 -36 -11 -11 37 66 131 89 297 51 374 -25 52 -25 57 3 68 31 12 33
12 48 -7z m68 -60 c1 -22 -16 -14 -22 9 -8 28 4 47 14 22 4 -10 8 -25 8 -31z
m7 -70 c-11 -11 -19 6 -11 24 8 17 8 17 12 0 3 -10 2 -21 -1 -24z m8 -55 c-8
-27 -12 -33 -19 -27 -7 8 7 49 17 49 5 0 6 -10 2 -22z m-4 -65 c-1 -10 -26
-43 -33 -43 -3 0 0 11 6 25 11 23 27 34 27 18z m-30 -99 c-18 -21 -24 -10 -8
15 7 12 14 17 16 11 2 -6 -2 -17 -8 -26z m50 -35 c-9 -51 -43 -133 -115 -279
-29 -59 -170 -270 -181 -270 -9 0 -3 19 9 32 7 7 24 33 38 58 13 25 30 52 38
60 8 8 28 44 45 80 18 36 44 82 58 101 26 34 53 100 90 217 23 76 32 76 18 1z
m-94 -103 c-19 -48 -49 -109 -65 -136 -17 -28 -31 -54 -31 -59 0 -4 -13 -27
-30 -49 -16 -23 -30 -44 -30 -46 0 -2 -19 -32 -42 -67 -80 -120 -302 -379
-314 -366 -6 5 98 139 138 176 21 20 68 89 68 100 0 4 14 20 30 36 17 16 50
60 73 98 23 38 62 99 86 135 43 64 92 163 106 212 4 14 14 36 23 50 29 46 23
2 -12 -84z m-79 -507 c17 -6 136 -11 301 -12 229 -2 274 -5 282 -17 5 -8 10
-18 10 -21 0 -4 -53 -7 -117 -7 -193 -1 -186 0 -179 -17 4 -12 -4 -15 -39 -15
-24 0 -46 4 -50 9 -15 26 -116 50 -220 53 -108 2 -130 8 -98 27 24 14 75 14
110 0z m-249 -86 c-35 -42 -70 -79 -78 -81 -14 -5 38 62 99 127 55 58 42 31
-21 -46z m695 0 c-7 -2 -21 -2 -30 0 -10 3 -4 5 12 5 17 0 24 -2 18 -5z m-478
-23 c3 -5 -2 -10 -12 -11 -10 0 -56 -3 -103 -5 -105 -7 -101 4 6 15 44 5 84 9
91 10 6 0 15 -3 18 -9z m510 -10 c13 -6 -21 -9 -93 -9 -73 -1 -111 3 -107 9 7
12 172 12 200 0z m120 1 c24 -2 17 -31 -7 -32 -13 0 -33 -2 -45 -3 -14 -2 -23
3 -23 11 0 7 -4 13 -10 13 -5 0 -10 3 -10 8 0 6 36 7 95 3z m-515 -16 c24 -14
23 -14 -29 -15 -50 0 -53 1 -35 15 24 18 33 18 64 0z m-2364 -7 c5 -6 -34 -20
-91 -33 -33 -7 -30 -1 12 25 26 16 66 20 79 8z m2105 -18 c11 0 19 -4 19 -9 0
-5 -27 -11 -60 -13 -33 -1 -60 -1 -60 3 0 16 28 30 54 25 16 -3 37 -6 47 -6z
m582 -3 c-17 -7 -34 -15 -37 -18 -4 -3 51 -6 121 -5 l128 1 13 -69 c17 -84 12
-90 -73 -80 -33 4 -86 7 -118 8 -54 1 -76 12 -77 39 0 4 38 7 84 7 94 0 148 8
140 21 -3 5 4 9 16 9 12 0 18 5 15 10 -8 12 -202 12 -230 0 -17 -7 -14 -9 15
-10 28 -1 31 -3 15 -9 -33 -14 -59 4 -76 50 -20 52 -14 59 51 58 l45 -1 -32
-11z m-106 -59 c-3 -7 -5 -2 -5 12 0 14 2 19 5 13 2 -7 2 -19 0 -25z m-2811 7
c-11 -8 -25 -15 -30 -15 -6 0 -2 7 8 15 11 8 25 15 30 15 6 0 2 -7 -8 -15z
m313 -9 l22 -24 -83 -8 c-46 -4 -87 -8 -93 -9 -5 -1 -17 -3 -25 -4 -12 -1 -11
-4 4 -12 22 -13 183 -2 192 13 4 5 22 -5 43 -24 20 -19 56 -50 81 -70 54 -42
90 -48 414 -63 61 -2 115 -10 122 -16 14 -11 83 -17 214 -18 l55 0 -33 -21
c-18 -11 -42 -20 -55 -20 -27 0 -54 -16 -44 -26 4 -4 44 -6 90 -4 45 2 105 4
132 4 28 0 55 6 60 12 6 6 37 14 70 18 69 7 89 10 239 32 60 8 123 13 140 10
17 -3 96 -1 176 3 96 6 149 5 158 -2 7 -5 10 -12 7 -16 -4 -3 -78 -6 -166 -7
-102 0 -164 -5 -171 -12 -21 -21 42 -25 196 -13 83 6 169 11 191 11 l40 -1
-30 -14 -30 -14 33 3 c52 7 37 -12 -20 -23 -116 -24 -174 -34 -203 -33 -74 2
-95 1 -182 -9 -51 -6 -93 -15 -93 -20 0 -13 71 -11 108 2 20 7 37 7 48 1 13
-7 2 -12 -47 -20 -100 -18 -197 -30 -279 -36 -41 -3 -138 -11 -215 -17 -179
-14 -606 -20 -670 -10 -50 8 -50 8 35 14 47 4 101 8 120 10 23 1 35 7 35 17 0
17 -29 18 -229 8 -95 -5 -121 -9 -128 -22 -9 -16 -19 -16 -125 0 -20 3 -34 12
-38 24 -7 23 -27 30 -96 35 -77 6 -249 97 -249 132 0 9 -9 26 -20 38 -29 31
-29 85 1 116 57 59 153 103 232 107 34 2 47 -2 66 -22z m2404 18 c27 -5 37
-11 37 -25 0 -11 -7 -19 -15 -19 -9 0 -12 6 -8 16 5 15 -2 16 -68 10 -225 -19
-499 -27 -499 -15 0 8 30 18 60 18 80 1 336 14 339 17 6 6 111 5 154 -2z
m-603 -39 c-13 -14 -25 -23 -28 -21 -5 6 31 44 42 45 5 1 -1 -10 -14 -24z
m950 -11 c0 -2 -26 -3 -57 -2 l-58 1 45 6 c42 6 70 4 70 -5z m-3094 -40 c-11
-7 -22 -11 -25 -8 -3 3 3 12 13 20 11 7 22 11 25 8 3 -3 -3 -12 -13 -20z
m2104 22 c0 -2 -8 -10 -17 -17 -16 -13 -17 -12 -4 4 13 16 21 21 21 13z m208
-13 c-10 -2 -26 -2 -35 0 -10 3 -2 5 17 5 19 0 27 -2 18 -5z m459 -6 c-3 -8
-29 -11 -83 -9 -114 5 -119 22 -6 21 66 -1 92 -4 89 -12z m71 1 c-3 -7 -13
-15 -24 -17 -16 -3 -17 -1 -5 13 16 19 34 21 29 4z m-529 -32 c-10 -8 -139
-14 -139 -6 0 5 30 10 68 12 65 3 80 2 71 -6z m896 -96 c10 -8 15 -30 15 -61
l0 -49 -102 0 c-113 0 -125 7 -27 16 71 7 80 11 59 25 -9 5 -67 7 -145 3 -161
-8 -163 1 -5 21 8 1 22 4 30 8 8 3 35 8 60 9 26 2 43 7 40 13 -3 6 -38 9 -84
6 -56 -2 -77 0 -72 8 4 6 27 11 52 11 25 0 44 5 44 11 0 7 -32 10 -100 7 -76
-2 -100 0 -100 10 0 18 28 26 44 13 7 -6 15 -8 18 -5 3 3 57 7 119 10 62 2
115 7 118 10 3 3 9 -8 13 -24 4 -16 15 -35 23 -42z m-1087 53 c-10 -2 -26 -2
-35 0 -10 3 -2 5 17 5 19 0 27 -2 18 -5z m-2154 -53 c11 -22 16 -43 13 -47 -4
-3 -7 1 -7 11 0 9 -12 21 -26 26 -20 8 -24 13 -15 24 6 7 8 16 4 19 -3 4 -2 7
3 7 5 0 18 -18 28 -40z m1556 10 c-82 -11 -336 -24 -329 -16 10 11 124 21 259
22 95 1 112 0 70 -6z m1105 0 c-3 -5 -14 -10 -23 -10 -15 0 -15 2 -2 10 20 13
33 13 25 0z m258 -7 c-7 -2 -19 -2 -25 0 -7 3 -2 5 12 5 14 0 19 -2 13 -5z
m-1168 -35 c-22 -4 -67 -9 -100 -12 -33 -3 -85 -8 -115 -11 -162 -14 -202 -16
-196 -7 8 13 64 20 211 28 66 4 140 10 165 13 57 9 89 -1 35 -11z m640 12 c-3
-5 -11 -10 -16 -10 -6 0 -7 5 -4 10 3 6 11 10 16 10 6 0 7 -4 4 -10z m205 0
c0 -5 -21 -10 -47 -9 -39 1 -43 2 -23 9 36 12 70 12 70 0z m-270 -10 c0 -5 -7
-10 -15 -10 -8 0 -15 5 -15 10 0 6 7 10 15 10 8 0 15 -4 15 -10z m590 -9 c0
-6 -18 -9 -41 -9 -29 0 -46 -6 -60 -21 -20 -21 -59 -29 -59 -11 0 5 11 12 25
16 14 3 25 10 25 14 0 8 31 14 88 18 12 1 22 -2 22 -7z m-2911 -42 c23 -27 29
-39 18 -39 -14 0 -37 26 -61 68 -15 26 10 9 43 -29z m2573 -1 c-6 -6 -33 -12
-59 -13 l-48 -2 35 13 c47 17 88 18 72 2z m-145 -4 c-3 -3 -12 -4 -19 -1 -8 3
-5 6 6 6 11 1 17 -2 13 -5z m-2351 -31 c-7 -7 -26 7 -26 19 0 6 6 6 15 -2 9
-7 13 -15 11 -17z m74 -81 c-12 -4 -64 23 -81 44 -8 10 5 6 38 -12 29 -16 48
-30 43 -32z m2167 41 c-13 -12 -260 -57 -279 -51 -7 3 23 12 67 22 44 9 96 21
115 25 44 11 106 13 97 4z m-2102 -53 c8 -13 -15 -13 -35 0 -12 8 -11 10 7 10
12 0 25 -4 28 -10z m210 -36 c44 -10 71 -20 61 -22 -28 -6 -168 28 -186 45
-13 12 -11 12 15 5 17 -5 66 -18 110 -28z m1248 -21 c-7 -2 -19 -2 -25 0 -7 3
-2 5 12 5 14 0 19 -2 13 -5z m-103 -18 c-78 -17 -110 -18 -110 -6 0 14 27 19
105 19 l70 0 -65 -13z m-742 -6 c97 -6 182 -15 187 -21 6 -6 -28 -7 -97 -2
-75 5 -108 3 -108 -4 0 -6 12 -13 28 -15 15 -2 3 -5 -25 -6 -40 -1 -53 3 -53
13 0 22 -16 28 -84 33 -60 5 -90 13 -48 13 12 0 102 -5 200 -11z m462 -28 c3
-1 -2 -6 -10 -11 -8 -5 -37 -9 -65 -9 -50 1 -50 1 -21 14 24 10 68 13 96 6z
m-563 -7 c-3 -3 -12 -4 -19 -1 -8 3 -5 6 6 6 11 1 17 -2 13 -5z m2212 -98
c-12 -10 -59 -15 -59 -6 0 5 14 10 32 10 17 0 29 -2 27 -4z m-319 -10 c0 -2
-9 -6 -20 -9 -11 -3 -20 -1 -20 4 0 5 9 9 20 9 11 0 20 -2 20 -4z m618 -86
c31 0 32 -2 32 -39 0 -22 -6 -44 -15 -51 -13 -10 -15 -9 -15 12 0 13 5 29 11
35 7 7 6 12 -6 17 -12 4 -21 -5 -34 -38 -13 -28 -27 -45 -43 -50 -12 -3 -117
-8 -233 -10 -221 -4 -219 -1 10 14 149 9 225 24 207 42 -6 6 -16 6 -28 0 -31
-15 -141 -31 -270 -37 -101 -5 -123 -4 -133 9 -18 21 -7 46 20 46 14 0 19 5
16 14 -4 11 1 14 21 12 15 -1 44 1 65 5 28 5 40 3 44 -7 3 -8 9 -14 15 -14 5
0 7 4 4 9 -7 10 27 21 67 21 17 0 27 -5 27 -15 0 -8 4 -15 9 -15 5 0 11 7 15
15 4 10 20 15 50 15 25 0 48 5 52 11 4 7 21 9 43 5 20 -3 51 -6 69 -6z m-3498
-20 c0 -5 -7 -7 -15 -4 -8 4 -15 8 -15 10 0 2 7 4 15 4 8 0 15 -4 15 -10z
m1985 -11 c4 -6 14 -7 24 -4 9 4 37 9 64 11 42 4 47 2 47 -16 0 -19 -6 -20
-94 -20 -72 0 -95 3 -99 14 -9 23 45 37 58 15z m207 0 c3 -9 10 -9 26 0 34 18
116 10 120 -11 3 -16 -6 -18 -92 -18 -76 0 -96 3 -96 14 0 13 13 23 32 25 3 1
8 -4 10 -10z m285 0 c7 -7 29 -15 50 -19 28 -6 12 -8 -59 -9 -126 -1 -128 14
-7 38 3 1 10 -4 16 -10z m448 0 c-22 -4 -56 -8 -75 -8 -28 0 -31 2 -15 9 11 5
45 8 75 8 55 0 55 0 15 -9z m-2167 -6 c-10 -2 -28 -2 -40 0 -13 2 -5 4 17 4
22 1 32 -1 23 -4z m207 -3 c14 -6 4 -9 -35 -8 -42 0 -49 2 -30 8 32 10 41 10
65 0z m803 1 c22 -13 -4 -17 -83 -12 -48 3 -62 6 -45 11 39 10 114 11 128 1z
m130 -3 c-5 -15 -108 -23 -108 -8 0 8 19 12 93 18 11 1 17 -3 15 -10z m878 5
c-8 -8 -116 -6 -124 2 -3 3 25 5 63 5 38 0 65 -3 61 -7z m-2143 -10 c-7 -2
-19 -2 -25 0 -7 3 -2 5 12 5 14 0 19 -2 13 -5z m690 0 c-13 -2 -35 -2 -50 0
-16 2 -5 4 22 4 28 0 40 -2 28 -4z m197 -3 c0 -5 -13 -10 -30 -10 -16 0 -30 5
-30 10 0 6 14 10 30 10 17 0 30 -4 30 -10z m-1067 -7 c-7 -2 -19 -2 -25 0 -7
3 -2 5 12 5 14 0 19 -2 13 -5z m327 -4 c0 -5 -26 -9 -57 -8 -41 0 -52 3 -38 9
27 11 95 10 95 -1z m75 1 c17 -7 14 -9 -13 -9 -20 -1 -31 3 -27 9 7 12 13 12
40 0z m2101 -23 c4 -12 2 -23 -5 -25 -6 -2 -9 -8 -5 -13 3 -5 -19 -9 -50 -9
-33 0 -56 4 -56 11 0 6 -8 8 -18 5 -10 -4 -60 -8 -111 -11 -51 -3 -95 -6 -99
-6 -23 -4 -32 4 -32 26 0 29 11 32 123 38 68 3 79 1 88 -15 5 -10 17 -18 27
-17 10 0 12 3 5 6 -27 11 -12 32 25 35 67 5 101 -2 108 -25z m-2309 -22 c9 12
73 18 73 7 0 -4 23 -9 52 -10 57 -2 63 -5 55 -25 -4 -12 -34 -15 -143 -16
-145 -1 -154 1 -154 46 0 31 67 37 92 8 11 -12 21 -16 25 -10z m441 18 c-16
-2 -40 -2 -55 0 -16 2 -3 4 27 4 30 0 43 -2 28 -4z m95 0 c-7 -2 -19 -2 -25 0
-7 3 -2 5 12 5 14 0 19 -2 13 -5z m145 0 c-21 -2 -55 -2 -75 0 -21 2 -4 4 37
4 41 0 58 -2 38 -4z m560 -29 l3 -31 -62 -7 c-34 -3 -88 -6 -120 -6 -56 0 -59
1 -55 23 3 12 5 27 5 33 1 7 34 12 93 13 51 1 95 4 97 7 14 14 36 -4 39 -32z
m227 1 l0 -30 -97 -3 -98 -3 0 30 c0 35 7 38 115 37 l80 -1 0 -30z m210 4 c0
-23 -3 -24 -87 -27 -88 -3 -88 -3 -88 22 0 29 11 33 105 30 66 -2 70 -3 70
-25z m233 2 l-3 -26 -107 -1 c-60 -1 -108 0 -108 2 0 2 5 14 11 28 11 24 15
24 111 24 l99 -1 -3 -26z m-1526 -1 c77 0 79 -1 76 -22 -3 -21 -8 -23 -63 -21
-116 3 -185 14 -185 28 0 17 26 25 64 19 16 -2 64 -4 108 -4z m585 -18 c-3
-33 -20 -37 -134 -27 -71 6 -83 9 -83 25 0 24 15 27 127 28 l92 1 -2 -27z
m-247 -6 c0 -29 -35 -41 -75 -26 -14 5 -55 10 -91 10 -57 0 -64 2 -64 20 0 19
7 20 115 20 115 0 115 0 115 -24z m2150 6 c0 -4 -30 -9 -67 -9 -47 -2 -62 1
-48 7 25 11 115 13 115 2z m-3290 -82 c0 -5 -4 -10 -9 -10 -6 0 -13 5 -16 10
-3 6 1 10 9 10 9 0 16 -4 16 -10z m65 0 c-3 -5 -12 -10 -20 -10 -8 0 -17 5
-20 10 -4 6 5 10 20 10 15 0 24 -4 20 -10z m-324 -59 c-15 -10 -41 -4 -41 9 0
12 33 18 45 8 6 -6 5 -12 -4 -17z"/>
<path d="M7453 3713 c-10 -42 -28 -53 -38 -23 -5 16 -10 19 -18 11 -7 -7 -2
-21 17 -46 15 -19 37 -57 49 -83 13 -30 22 -41 25 -30 2 9 -4 30 -12 47 -19
36 -20 73 -2 124 11 30 11 37 1 37 -7 0 -17 -17 -22 -37z"/>
<path d="M8580 2935 c-7 -9 -11 -18 -8 -20 3 -3 11 1 18 10 7 9 11 18 8 20 -3
3 -11 -1 -18 -10z"/>
<path d="M7832 2825 c-21 -16 -30 -35 -14 -35 15 1 44 29 40 40 -2 6 -11 5
-26 -5z"/>
<path d="M7906 2811 c-10 -11 -13 -22 -8 -25 6 -3 17 5 26 19 19 29 7 33 -18
6z"/>
<path d="M6490 2787 c0 -8 5 -19 10 -22 16 -10 11 -36 -15 -90 -13 -27 -23
-50 -22 -52 7 -7 28 18 52 62 l27 50 -7 -40 c-6 -38 -5 -39 11 -23 14 14 24
65 13 71 -2 1 -19 15 -37 31 -24 23 -32 26 -32 13z"/>
<path d="M6593 2748 c-13 -48 -10 -57 12 -38 15 13 21 80 7 80 -4 0 -13 -19
-19 -42z"/>
<path d="M6646 2731 c4 -27 2 -46 -6 -56 -21 -25 -2 -31 22 -7 19 18 20 26 12
58 -13 54 -36 58 -28 5z"/>
<path d="M8268 2754 c-20 -20 3 -104 29 -104 15 0 18 17 3 22 -6 2 -14 23 -18
46 -4 24 -10 40 -14 36z"/>
<path d="M8216 2722 c-8 -14 19 -82 33 -82 13 0 14 13 4 24 -5 4 -13 21 -19
39 -6 19 -13 26 -18 19z"/>
<path d="M8252 2608 c10 -31 98 -45 98 -16 0 5 -9 6 -20 3 -12 -4 -31 0 -45 9
-29 19 -38 20 -33 4z"/>
<path d="M6193 2489 c-64 -41 -105 -145 -106 -269 -1 -49 5 -90 17 -120 9 -25
22 -63 27 -85 6 -22 24 -64 41 -95 38 -66 36 -65 44 -57 4 4 0 17 -8 29 -8 13
-20 37 -26 53 -6 17 -20 55 -32 85 -11 30 -28 83 -36 118 -13 56 -13 71 1 138
21 104 37 137 86 184 46 44 43 52 -8 19z"/>
<path d="M8350 2490 c0 -6 10 -14 23 -19 31 -12 93 -82 113 -128 26 -58 21
-196 -11 -308 -28 -101 -104 -278 -147 -343 -15 -24 -35 -57 -44 -75 -28 -53
-127 -201 -141 -210 -7 -4 -13 -12 -13 -17 0 -13 -56 -104 -97 -158 -18 -24
-33 -48 -33 -53 0 -16 20 -10 27 9 3 9 27 44 53 77 26 33 49 65 51 70 2 6 35
57 72 114 216 326 314 550 325 737 7 130 -23 206 -112 286 -31 28 -66 37 -66
18z"/>
<path d="M6418 2478 c-18 -14 -58 -82 -58 -98 0 -26 23 -5 42 38 12 26 28 52
37 59 9 7 11 13 5 13 -5 0 -17 -6 -26 -12z"/>
<path d="M6559 2333 c-2 -36 3 -78 12 -93 6 -11 8 -9 9 10 0 14 3 42 6 63 5
30 4 37 -10 37 -9 0 -16 -8 -17 -17z"/>
<path d="M6349 2308 c-6 -15 -3 -90 3 -94 4 -3 8 18 8 45 0 28 -2 51 -5 51 -3
0 -5 -1 -6 -2z"/>
<path d="M6614 2266 c-8 -22 -1 -59 14 -64 8 -2 12 8 12 32 0 37 -16 57 -26
32z"/>
<path d="M6295 2200 c-9 -14 14 -100 27 -100 10 0 1 75 -12 99 -5 10 -9 11
-15 1z"/>
<path d="M6368 2104 c-17 -16 39 -234 60 -234 18 0 15 13 -31 185 -12 44 -20
58 -29 49z"/>
<path d="M6260 1775 c0 -11 94 -145 101 -145 12 0 11 7 -2 33 -25 49 -75 117
-86 117 -7 0 -13 -2 -13 -5z"/>
<path d="M6410 1557 c1 -18 38 -63 46 -54 9 9 -14 54 -32 61 -8 3 -14 0 -14
-7z"/>
<path d="M6520 1395 c7 -9 15 -13 17 -11 7 7 -7 26 -19 26 -6 0 -6 -6 2 -15z"/>
<path d="M6588 1385 c-9 -10 24 -75 50 -98 33 -30 37 -1 5 37 -15 18 -33 41
-38 50 -6 10 -13 14 -17 11z"/>
<path d="M8096 1247 c-58 -88 -106 -131 -106 -96 0 6 -6 9 -14 6 -8 -3 -16 -1
-18 5 -7 19 -28 -1 -28 -25 0 -18 6 -22 33 -22 17 1 42 6 53 13 12 6 24 8 28
5 3 -3 6 0 6 8 0 8 21 45 46 82 26 37 44 70 41 73 -3 3 -21 -19 -41 -49z"/>
<path d="M6550 1255 c0 -14 43 -94 65 -120 40 -49 30 -6 -15 63 -37 56 -50 71
-50 57z"/>
<path d="M6520 1196 c0 -11 33 -36 48 -36 13 0 11 5 -8 20 -24 19 -40 25 -40
16z"/>
<path d="M7873 1133 c-14 -5 -18 -23 -5 -23 5 0 17 7 28 15 14 11 15 14 4 14
-8 0 -21 -3 -27 -6z"/>
<path d="M6333 1053 c-53 -3 -85 -9 -93 -17 -9 -12 11 -14 122 -13 111 2 133
4 133 17 0 17 -26 19 -162 13z"/>
<path d="M6323 963 c-5 -1 -25 -4 -45 -8 -66 -11 -41 -23 50 -25 48 0 96 -2
107 -2 11 -1 53 -1 93 0 56 2 72 5 72 17 0 8 -6 15 -12 16 -26 2 -258 4 -265
2z"/>
<path d="M6835 935 c-5 -2 -22 -6 -37 -9 -16 -4 -28 -13 -28 -22 0 -12 5 -14
18 -8 9 4 81 9 159 10 140 2 169 7 158 25 -6 8 -246 12 -270 4z"/>
<path d="M7840 909 c-101 -8 -220 -17 -232 -18 -5 -1 -8 -6 -8 -13 0 -8 30 -9
113 -4 172 10 247 18 247 26 0 14 -24 16 -120 9z"/>
<path d="M6990 862 c-8 -1 -48 -6 -89 -10 -50 -5 -76 -12 -79 -21 -4 -12 12
-13 94 -7 55 3 147 9 207 13 83 5 107 9 107 20 0 12 -20 14 -112 11 -62 -1
-120 -4 -128 -6z"/>
<path d="M6572 830 c-40 -3 -78 -12 -85 -19 -10 -11 5 -12 83 -7 52 3 114 6
138 6 30 0 42 4 42 15 0 17 -43 18 -178 5z"/>
<path d="M7635 810 c-49 -4 -111 -13 -137 -20 -63 -16 -52 -35 16 -26 59 8
110 14 184 20 30 2 56 7 60 11 6 6 -18 26 -28 23 -3 0 -45 -4 -95 -8z"/>
<path d="M7159 800 c-88 -7 -109 -13 -109 -32 0 -8 29 -9 98 -4 235 17 229 16
217 35 -7 12 -70 12 -206 1z"/>
<path d="M8994 4025 c-20 -31 -14 -87 14 -124 22 -30 42 -38 42 -17 0 9 -4 16
-9 16 -11 0 -31 78 -27 105 4 26 29 30 78 14 42 -14 58 -8 38 16 -8 10 -30 15
-66 15 -46 0 -56 -3 -70 -25z"/>
<path d="M1014 3975 c-20 -20 -23 -29 -14 -44 16 -31 28 -33 50 -11 24 24 28
80 5 80 -9 0 -27 -11 -41 -25z"/>
<path d="M2064 3989 c-12 -20 -11 -350 1 -346 25 9 34 184 12 245 -8 25 -8 40
1 64 12 33 1 61 -14 37z"/>
<path d="M2320 3978 c0 -13 5 -30 10 -38 7 -11 10 -7 10 17 0 17 -4 35 -10 38
-6 3 -10 -4 -10 -17z"/>
<path d="M2228 3974 c-5 -4 -8 -28 -7 -53 l1 -46 9 40 c10 43 9 71 -3 59z"/>
<path d="M2128 3944 c-5 -4 -8 -26 -7 -48 0 -37 1 -39 10 -16 11 27 8 76 -3
64z"/>
<path d="M2277 3943 c-4 -9 9 -245 17 -303 13 -96 15 -153 6 -235 -10 -93 -8
-107 12 -87 11 11 39 279 32 311 -6 24 -13 96 -20 196 -4 50 -11 98 -16 108
-9 18 -24 22 -31 10z"/>
<path d="M9705 3899 c-43 -60 -55 -86 -34 -74 20 12 73 74 81 96 15 39 -12 27
-47 -22z"/>
<path d="M913 3922 c-3 -7 -3 -15 0 -18 5 -6 67 23 67 31 0 12 -63 -1 -67 -13z"/>
<path d="M2156 3912 c-4 -10 -2 -42 4 -71 12 -62 15 -245 5 -283 -8 -29 10
-75 18 -48 21 66 34 194 27 281 -9 111 -37 175 -54 121z"/>
<path d="M7927 3923 c-16 -16 -6 -65 19 -90 14 -14 28 -22 32 -18 4 3 -4 15
-18 25 -18 13 -24 28 -24 54 0 39 0 39 -9 29z"/>
<path d="M9588 3905 c-14 -32 1 -89 26 -93 15 -3 16 -1 7 16 -16 30 -14 72 4
72 8 0 15 7 15 15 0 25 -39 17 -52 -10z"/>
<path d="M7202 3865 c-9 -20 -9 -33 2 -60 14 -33 71 -74 84 -59 4 4 1 9 -7 12
-35 12 -63 52 -60 87 4 43 -5 52 -19 20z"/>
<path d="M7832 3856 c-31 -36 -48 -73 -38 -83 3 -4 6 1 6 10 0 8 16 36 35 61
41 54 40 60 -3 12z"/>
<path d="M9381 3864 c-30 -38 -27 -104 5 -104 9 0 14 12 14 36 0 19 5 45 11
56 18 34 -5 44 -30 12z"/>
<path d="M1970 3791 c0 -49 5 -93 10 -96 9 -6 11 18 14 152 1 14 -5 28 -11 31
-10 3 -13 -19 -13 -87z"/>
<path d="M448 3803 c-75 -95 -81 -104 -74 -110 3 -4 15 2 27 13 23 20 119 148
119 158 0 19 -24 -2 -72 -61z"/>
<path d="M832 3817 c-54 -54 -61 -67 -39 -67 20 0 111 100 100 111 -5 5 -29
-12 -61 -44z"/>
<path d="M1837 3848 c-2 -7 -5 -55 -6 -107 -1 -52 -4 -98 -7 -103 -7 -11 6
-51 14 -43 10 10 28 180 24 225 -4 39 -15 52 -25 28z"/>
<path d="M7111 3826 c-33 -35 -21 -85 25 -108 38 -20 74 -23 74 -8 0 6 -10 10
-22 10 -13 0 -29 4 -37 9 -22 14 -2 33 30 29 16 -3 29 -1 29 4 0 4 -7 8 -15 8
-9 0 -18 7 -21 15 -9 22 -24 18 -24 -5 0 -24 -25 -27 -34 -4 -3 8 1 28 9 45
19 35 16 36 -14 5z"/>
<path d="M8748 3808 c-64 -69 -84 -139 -62 -220 12 -49 47 -98 68 -98 5 0 -3
14 -20 31 -27 28 -29 35 -28 107 0 82 12 115 59 165 20 21 32 26 52 21 30 -8
25 9 -8 27 -18 9 -26 5 -61 -33z"/>
<path d="M595 3779 c-30 -32 -44 -54 -38 -60 16 -16 36 -1 68 49 37 59 39 62
27 62 -5 0 -31 -23 -57 -51z"/>
<path d="M6953 3768 c-58 -60 -67 -118 -32 -199 28 -63 43 -64 20 0 -27 72
-12 150 38 195 21 20 27 36 13 36 -4 0 -22 -15 -39 -32z"/>
<path d="M7881 3739 c-1 -39 4 -52 28 -78 29 -30 51 -40 51 -22 0 5 -9 13 -20
16 -25 8 -42 38 -51 90 l-6 40 -2 -46z"/>
<path d="M1927 3763 c-4 -3 -7 -30 -7 -60 0 -40 4 -53 15 -53 12 0 15 13 15
60 0 55 -6 70 -23 53z"/>
<path d="M7961 3745 c-1 -36 15 -55 44 -54 19 0 19 1 -3 11 -12 6 -26 25 -31
42 l-9 31 -1 -30z"/>
<path d="M8903 3759 c-19 -19 -16 -37 12 -64 28 -29 89 -34 121 -11 25 19 11
32 -19 19 -26 -12 -72 -7 -86 11 -5 6 -11 21 -13 34 -2 19 -5 21 -15 11z"/>
<path d="M8541 3674 c-41 -52 -27 -146 31 -211 24 -26 151 -68 175 -58 14 6 9
10 -21 17 -22 4 -54 20 -72 33 -23 18 -34 21 -38 12 -7 -19 -53 37 -65 81 -15
51 -14 82 4 116 20 38 13 44 -14 10z"/>
<path d="M9040 3625 c-18 -22 -25 -92 -10 -110 17 -21 30 -19 30 5 0 11 -4 20
-10 20 -6 0 -6 9 -1 23 25 67 21 98 -9 62z"/>
<path d="M7053 3608 c-11 -13 -23 -34 -26 -47 -7 -30 24 -116 54 -147 33 -36
44 -29 15 9 -31 40 -56 98 -56 129 0 12 12 35 27 50 15 15 22 28 17 28 -6 0
-20 -10 -31 -22z"/>
<path d="M9070 3588 c0 -7 5 -20 10 -28 8 -12 10 -9 10 13 0 15 -4 27 -10 27
-5 0 -10 -6 -10 -12z"/>
<path d="M7167 3573 c-14 -13 -6 -42 19 -72 36 -43 49 -39 18 6 -14 21 -23 45
-21 55 5 18 -4 24 -16 11z"/>
<path d="M8406 3557 c-11 -36 -1 -108 19 -147 30 -58 114 -96 155 -70 11 7 4
10 -25 10 -22 0 -51 7 -63 16 -34 24 -66 93 -72 159 -5 52 -7 56 -14 32z"/>
<path d="M8746 3552 c-7 -12 25 -36 62 -47 34 -10 26 11 -10 26 -18 7 -36 17
-39 22 -4 5 -9 5 -13 -1z"/>
<path d="M8206 3490 c-20 -22 -36 -43 -36 -48 0 -4 22 -5 50 -4 54 4 70 22 19
22 l-30 0 21 31 c33 45 18 45 -24 -1z"/>
<path d="M8358 3395 c-10 -22 -8 -29 18 -56 16 -17 41 -37 57 -45 23 -12 26
-18 17 -35 -8 -15 -7 -25 6 -42 l16 -22 -5 23 c-10 45 0 52 66 45 59 -5 125 6
157 26 26 18 3 23 -29 7 -49 -26 -193 -16 -221 14 -3 3 -20 16 -38 29 -29 20
-33 28 -28 52 7 36 -1 37 -16 4z"/>
<path d="M8186 3291 c-27 -53 -32 -71 -17 -71 9 0 53 111 46 118 -2 2 -15 -19
-29 -47z"/>
<path d="M6966 3248 c-9 -12 -13 -24 -11 -27 6 -5 45 29 45 41 0 15 -19 8 -34
-14z"/>
<path d="M6636 3251 c-9 -14 26 -31 62 -31 16 0 37 -9 47 -20 19 -21 35 -26
35 -12 0 23 -43 52 -78 52 -21 0 -43 5 -49 11 -7 7 -13 7 -17 0z"/>
<path d="M8337 3200 c-20 -33 -12 -61 23 -80 26 -14 25 -5 -1 21 -25 25 -21
51 9 64 26 12 29 25 4 25 -10 0 -26 -13 -35 -30z"/>
<path d="M6730 3160 c0 -5 5 -10 10 -10 6 0 10 5 10 10 0 6 -4 10 -10 10 -5 0
-10 -4 -10 -10z"/>
<path d="M5873 1438 c-8 -10 -8 -18 2 -31 9 -13 14 -15 17 -5 3 9 28 13 83 14
49 1 80 5 83 13 2 7 -9 11 -30 11 -18 1 -58 3 -88 6 -40 4 -59 2 -67 -8z"/>
<path d="M5804 1348 c-12 -19 20 -28 91 -27 126 3 218 13 223 27 4 14 -68 16
-170 3 -37 -5 -83 -5 -103 -1 -22 5 -38 4 -41 -2z"/>
<path d="M5660 1220 c0 -18 24 -22 133 -23 89 0 113 3 115 14 2 11 -21 14
-123 16 -69 0 -125 -3 -125 -7z"/>
<path d="M5533 1068 c-47 -22 -21 -30 95 -26 106 3 131 9 132 31 0 11 -202 7
-227 -5z"/>
<path d="M5596 891 c-22 -3 -41 -12 -44 -18 -3 -12 10 -18 32 -14 5 1 66 4
135 6 105 3 127 6 129 19 3 14 -11 16 -105 15 -59 -1 -126 -5 -147 -8z"/>
<path d="M8765 823 c-55 -8 -102 -16 -104 -19 -10 -10 24 -24 44 -19 11 3 68
11 128 17 74 9 107 16 107 25 0 16 -42 15 -175 -4z"/>
<path d="M8575 735 c-44 -8 -98 -14 -120 -14 -40 -1 -74 -15 -64 -26 4 -3 53
0 110 6 57 6 122 12 144 13 28 1 40 6 40 16 0 20 -15 20 -110 5z"/>
<path d="M8845 745 c-5 -2 -22 -6 -37 -9 -16 -4 -28 -11 -28 -17 0 -6 9 -8 21
-4 12 4 66 7 120 6 82 -1 99 2 99 14 0 12 -16 15 -82 14 -46 0 -87 -2 -93 -4z"/>
<path d="M5920 720 c-150 -9 -200 -18 -200 -36 0 -17 -5 -16 95 -5 44 6 127
13 185 16 107 7 120 9 120 26 0 10 -23 10 -200 -1z"/>
<path d="M8145 659 c-134 -9 -197 -20 -202 -35 -4 -11 19 -11 87 -1 25 4 92 8
150 10 81 2 105 6 105 17 0 18 -2 18 -140 9z"/>
<path d="M8441 651 c-34 -4 -56 -11 -59 -20 -3 -10 0 -12 11 -8 16 6 167 10
201 5 33 -5 28 19 -5 26 -34 7 -64 6 -148 -3z"/>
<path d="M7630 603 c-63 -5 -90 -12 -90 -23 0 -6 16 -8 38 -5 75 11 109 14
195 14 51 1 87 5 87 11 0 9 -123 11 -230 3z"/>
<path d="M8570 210 c0 -5 5 -10 10 -10 6 0 10 5 10 10 0 6 -4 10 -10 10 -5 0
-10 -4 -10 -10z"/>
<path d="M8810 175 c0 -25 5 -45 10 -45 6 0 10 20 10 45 0 25 -4 45 -10 45 -5
0 -10 -20 -10 -45z"/>
<path d="M8689 188 c-3 -26 3 -43 18 -58 14 -13 15 -13 9 3 -3 10 -6 30 -6 43
0 24 -19 35 -21 12z"/>
</g>
</svg>
