<?xml version="1.0" standalone="no"?>
<!DOCTYPE svg PUBLIC "-//W3C//DTD SVG 20010904//EN"
 "http://www.w3.org/TR/2001/REC-SVG-20010904/DTD/svg10.dtd">
<svg version="1.0" xmlns="http://www.w3.org/2000/svg"
 width="1000.000000pt" height="628.000000pt" viewBox="0 0 1000.000000 628.000000"
 preserveAspectRatio="xMidYMid meet">
<metadata>
Created by potrace 1.16, written by Peter Selinger 2001-2019
</metadata>
<g transform="translate(0.000000,628.000000) scale(0.100000,-0.100000)"
fill="#000000" stroke="none">
<path d="M6934 6104 c-40 -21 -78 -59 -100 -100 -10 -19 -27 -37 -36 -40 -10
-3 -18 -14 -18 -25 0 -10 -4 -19 -10 -19 -5 0 -10 -8 -10 -19 0 -15 -11 -19
-68 -24 -97 -9 -133 -18 -129 -30 2 -6 20 -12 41 -14 47 -3 57 -12 31 -27 -34
-19 -101 -95 -129 -145 -38 -71 -66 -223 -56 -303 14 -104 72 -258 97 -258 15
0 18 16 3 25 -5 3 -10 15 -10 25 0 11 -12 45 -27 77 -24 53 -27 69 -27 178 0
107 3 127 28 189 15 38 36 80 47 94 10 14 19 30 19 37 0 16 28 46 65 70 51 32
196 25 405 -20 113 -24 136 -38 144 -86 4 -23 12 -39 20 -39 15 0 26 -21 26
-51 0 -10 4 -19 9 -19 5 0 12 -17 16 -37 4 -21 13 -50 21 -65 8 -15 15 -42 15
-60 1 -23 3 -27 6 -10 6 29 30 28 68 -3 28 -23 29 -26 16 -47 -8 -13 -33 -57
-56 -98 -60 -111 -74 -129 -114 -150 -20 -10 -45 -27 -55 -39 -11 -12 -23 -21
-28 -21 -21 0 -1 71 27 95 44 38 146 168 160 203 23 57 12 65 -13 10 -11 -24
-27 -52 -36 -63 -15 -19 -15 -19 -16 15 0 19 -5 42 -10 50 -7 11 -10 -4 -8
-50 2 -48 0 -64 -9 -63 -7 2 -14 -5 -14 -15 -1 -9 -5 -3 -9 13 -7 28 -8 28 -9
-12 -1 -51 -20 -69 -22 -21 -1 30 -2 28 -9 -11 -7 -44 -43 -85 -67 -77 -6 3
-13 -5 -16 -16 -5 -16 -2 -19 15 -15 17 5 19 2 13 -21 -8 -33 -11 -36 -24 -28
-5 4 -13 27 -17 52 -7 49 -13 53 -16 11 -3 -30 -17 -37 -20 -9 0 9 -2 28 -3
42 -1 14 -7 43 -13 65 -18 68 -9 126 28 186 29 47 33 62 33 116 -2 106 -55
168 -143 168 -38 0 -54 -5 -75 -25 -52 -47 -67 -120 -44 -202 11 -42 70 -105
106 -114 13 -4 23 -13 23 -22 0 -8 6 -23 13 -31 18 -23 45 -107 52 -168 6 -49
5 -53 -14 -53 -12 0 -21 -6 -21 -16 0 -11 6 -14 20 -9 15 5 20 2 20 -12 1 -10
3 -47 5 -83 2 -36 7 -184 9 -330 6 -272 7 -290 33 -399 18 -79 31 -108 63
-142 80 -85 149 -57 193 79 13 42 33 114 42 160 17 79 19 82 36 66 18 -16 19
-16 19 4 0 11 -7 27 -15 36 -8 8 -15 24 -15 35 0 12 -4 21 -8 21 -5 0 -16 15
-24 33 -72 151 -124 249 -139 263 -23 21 -25 4 -5 -34 8 -15 28 -57 46 -94 17
-36 40 -74 51 -84 10 -9 19 -25 19 -34 0 -10 9 -38 20 -63 20 -44 20 -49 4
-124 -21 -104 -61 -223 -84 -251 -27 -33 -59 -36 -101 -8 -80 53 -105 172
-114 546 -4 140 -7 281 -8 312 -1 32 1 58 5 58 15 0 68 -84 79 -124 10 -36 47
-134 56 -145 2 -2 5 -2 8 1 3 3 -3 32 -14 64 -10 33 -22 75 -25 95 -4 20 -20
54 -36 74 -33 41 -38 57 -16 49 8 -3 23 4 33 16 27 32 109 90 127 90 9 0 19
-8 23 -17 3 -10 14 -29 23 -43 15 -23 53 -167 80 -301 13 -66 15 -154 7 -224
l-7 -50 13 50 13 50 7 -40 c4 -22 7 -63 7 -92 0 -28 5 -55 11 -58 6 -4 8 -14
5 -22 -6 -14 71 -139 123 -203 39 -47 23 4 -23 76 -33 50 -42 72 -34 81 7 9 7
13 -1 13 -6 0 -21 17 -35 38 -25 40 -53 187 -47 255 2 22 -2 37 -8 37 -6 0
-11 9 -11 19 0 15 5 18 21 14 20 -6 21 -5 5 26 -9 17 -12 31 -7 31 5 0 12 -7
15 -16 5 -13 9 -14 21 -4 8 7 15 19 15 26 0 8 4 14 8 14 16 0 21 -13 12 -31
-8 -13 -4 -25 16 -48 16 -19 23 -37 20 -49 -7 -21 18 -61 31 -48 4 5 2 11 -4
13 -7 3 -13 11 -13 18 0 9 10 5 27 -11 20 -18 24 -27 15 -33 -10 -6 -8 -14 7
-32 11 -13 20 -19 21 -12 0 6 -4 15 -10 18 -5 3 -10 11 -10 18 0 27 38 -31 45
-68 l7 -40 -24 20 c-12 11 -26 24 -30 30 -4 5 -10 7 -13 3 -7 -7 52 -68 66
-68 5 0 9 14 9 32 0 31 0 31 21 12 11 -10 26 -28 31 -39 11 -20 11 -20 -11 -1
-11 11 -21 15 -21 10 0 -16 23 -34 42 -34 10 0 19 -6 19 -12 1 -7 2 -20 3 -28
0 -8 10 -17 21 -20 23 -6 58 -30 113 -78 39 -34 178 -128 223 -151 19 -10 25
-19 21 -33 -5 -20 -6 -20 -23 3 l-19 24 7 -50 c7 -58 39 -129 54 -119 6 3 6
10 1 17 -5 7 -12 29 -15 50 -4 28 -2 37 9 37 10 0 13 7 9 28 l-6 27 22 -28
c15 -20 24 -25 29 -16 11 16 70 -7 70 -28 0 -8 -4 -11 -10 -8 -16 10 -11 -21
6 -36 13 -10 17 -10 24 1 4 7 6 19 3 27 -3 8 2 13 16 13 19 0 25 -20 21 -62 0
-2 6 -25 15 -53 17 -57 19 -85 6 -85 -5 0 -12 19 -16 43 -6 37 -24 84 -25 65
0 -14 32 -142 39 -157 5 -9 11 -29 15 -46 l8 -30 -21 27 c-12 14 -21 35 -21
45 0 10 -6 27 -14 38 -7 11 -19 38 -26 60 -14 43 -30 68 -30 45 0 -11 -3 -11
-12 -2 -6 6 -11 25 -10 41 0 17 -4 33 -9 36 -15 10 -10 -43 6 -75 23 -44 3
-37 -25 9 -14 21 -28 37 -32 35 -13 -8 12 -59 49 -99 20 -22 56 -72 80 -112
25 -40 49 -71 54 -68 5 4 9 1 9 -5 0 -6 5 -8 10 -5 13 8 7 191 -8 245 -5 20
-5 46 -1 58 8 20 11 21 31 11 13 -7 25 -15 28 -19 3 -3 41 -25 85 -47 44 -22
96 -50 115 -61 54 -34 61 -35 73 -23 9 9 3 20 -28 46 -36 31 -38 34 -17 35 12
0 22 2 22 5 0 10 -58 62 -105 94 -27 18 -62 45 -77 59 -15 14 -31 23 -34 19
-4 -3 15 -27 42 -51 27 -25 44 -45 37 -46 -6 0 -15 5 -18 10 -7 12 -25 13 -25
2 0 -10 70 -46 90 -47 13 0 29 -45 16 -45 -13 0 -93 37 -431 201 -70 34 -228
142 -312 214 -55 47 -87 82 -151 164 -15 19 -43 54 -62 78 -74 90 -84 107
-116 201 -41 116 -44 183 -13 245 31 60 87 107 120 100 34 -7 47 13 14 21 -25
6 -53 -5 -104 -41 l-24 -17 17 33 c10 18 13 30 7 27 -6 -4 -11 -3 -11 2 0 5
-7 9 -16 9 -13 0 -15 -8 -10 -36 4 -25 1 -40 -11 -53 -9 -10 -13 -21 -10 -24
3 -4 0 -22 -8 -41 -8 -20 -16 -47 -16 -62 -1 -20 -2 -22 -6 -6 -10 42 -23 38
-23 -5 0 -30 -3 -40 -9 -31 -5 7 -14 10 -20 7 -6 -4 -11 -1 -11 8 0 8 -3 22
-6 31 -4 9 -3 15 2 13 9 -3 14 5 14 22 0 5 -6 7 -14 4 -8 -3 -16 4 -20 18 -8
32 -8 38 4 38 6 0 10 -6 10 -14 0 -8 5 -18 12 -22 7 -5 9 -2 5 8 -3 9 -2 19 2
24 14 16 20 59 11 74 -5 8 -10 11 -11 5 0 -5 -6 5 -13 24 -17 48 -37 53 -22 6
6 -19 19 -38 29 -41 11 -4 16 -12 13 -21 -3 -8 -6 -20 -6 -26 0 -6 -9 -1 -21
11 -26 29 -42 19 -34 -21 6 -25 5 -30 -5 -20 -7 6 -13 24 -13 40 0 50 16 133
24 133 5 0 9 12 10 28 l1 27 11 -27 c6 -16 15 -28 20 -28 4 0 5 -5 1 -12 -4
-7 -3 -8 4 -4 9 5 8 15 -3 36 -17 33 -20 70 -5 70 6 0 11 -12 11 -27 1 -17 3
-21 6 -10 6 23 23 22 23 -3 0 -11 5 -20 10 -20 14 0 13 12 -5 51 -10 24 -14
28 -15 14 0 -15 -3 -16 -9 -7 -14 23 -1 60 23 64 13 3 57 -12 104 -34 68 -32
84 -37 100 -27 16 10 25 8 52 -11 l33 -24 -26 -9 c-20 -6 -27 -15 -27 -34 0
-21 2 -24 15 -13 8 7 15 9 15 6 0 -4 13 2 28 13 l29 20 31 -27 c17 -15 32 -36
34 -47 2 -11 13 -24 25 -30 12 -5 26 -19 32 -32 6 -13 15 -23 21 -23 6 0 8 5
4 11 -4 7 -1 10 7 7 15 -5 61 -90 53 -98 -3 -3 -10 4 -16 15 -11 19 -11 19
-18 0 -7 -18 -9 -17 -26 13 -30 54 -42 67 -50 59 -4 -4 2 -17 13 -30 12 -12
33 -46 47 -74 15 -29 31 -53 37 -53 7 0 5 10 -5 25 -25 37 -19 42 12 9 41 -43
62 -80 62 -108 0 -14 5 -28 10 -31 6 -3 10 1 10 10 0 27 18 7 25 -28 4 -17 18
-43 31 -57 13 -14 26 -42 28 -62 3 -20 12 -52 20 -72 21 -49 4 -53 -44 -10
-48 43 -54 34 -8 -13 51 -53 15 -38 -41 17 -28 28 -53 45 -57 39 -3 -6 15 -31
41 -55 44 -43 48 -45 91 -38 29 4 49 2 59 -6 19 -16 19 -15 -5 55 -11 32 -20
61 -20 64 1 24 62 -125 75 -183 3 -15 15 -41 27 -56 11 -15 18 -34 16 -41 -3
-8 -22 9 -49 44 -64 82 -60 52 5 -43 30 -44 53 -80 50 -80 -10 0 -84 51 -119
82 -23 19 -36 26 -34 16 6 -25 92 -92 163 -128 37 -19 93 -58 124 -87 l57 -53
-38 4 c-22 2 -51 13 -65 24 -15 12 -45 30 -68 40 -58 28 -121 75 -117 89 3 7
-8 18 -24 27 -15 8 -41 28 -57 45 -16 17 -33 28 -38 25 -5 -3 9 -26 32 -50 22
-24 40 -46 40 -49 0 -13 -22 -1 -83 50 -57 47 -67 60 -67 87 l0 32 -17 -23
-16 -24 -28 34 c-16 19 -29 28 -29 22 0 -16 40 -63 54 -63 6 0 32 -24 57 -53
31 -35 73 -67 129 -97 45 -24 87 -45 93 -46 7 -1 40 -18 74 -37 61 -35 83 -44
120 -51 10 -2 38 -11 63 -20 86 -30 83 -23 -50 111 -60 62 -110 118 -110 125
0 27 -149 379 -179 424 -17 26 -31 51 -31 56 0 4 -5 8 -10 8 -6 0 -4 -15 5
-36 21 -50 18 -64 -5 -34 -11 14 -20 35 -20 47 0 12 -4 25 -10 28 -5 3 -10 13
-10 21 0 22 -35 96 -81 170 -21 35 -39 67 -39 70 0 3 -30 35 -67 73 -95 95
-151 131 -215 137 -29 3 -75 16 -103 28 -124 57 -141 63 -129 45 13 -22 -52
21 -96 63 -38 36 -48 53 -59 103 -7 33 -17 67 -22 75 -17 28 -30 63 -24 68 3
3 17 0 31 -7 19 -8 30 -9 37 -2 8 8 -4 25 -39 56 l-49 45 40 -5 c74 -11 81
-14 121 -53 63 -62 169 -122 260 -147 46 -13 98 -32 116 -42 36 -22 81 -18 86
7 1 8 -23 42 -55 75 l-57 60 54 6 c30 3 74 15 96 27 23 12 63 26 90 33 50 13
94 35 94 49 0 4 -36 13 -79 20 -59 9 -92 9 -130 1 -75 -16 -109 -14 -120 7
-11 20 -138 65 -181 64 -15 0 -80 -10 -145 -22 -73 -13 -132 -19 -156 -15 -43
7 -52 -6 -16 -22 13 -6 45 -7 82 -2 180 25 164 27 248 -27 43 -27 77 -54 77
-60 0 -13 88 -104 100 -104 10 0 80 -72 80 -81 0 -17 -32 -16 -67 2 -21 11
-73 28 -116 39 -53 13 -93 30 -126 54 -27 20 -53 36 -57 36 -5 0 -35 23 -67
50 -62 53 -75 58 -147 62 -38 3 -45 6 -48 26 -2 14 -10 22 -24 22 -19 0 -19
-1 -4 -24 9 -14 12 -27 7 -30 -11 -7 -120 13 -144 26 -11 5 -60 14 -111 18
-109 11 -126 16 -126 41 0 15 8 19 33 20 17 1 24 3 15 6 -18 4 -23 15 -13 25
7 7 305 -41 358 -58 9 -3 17 -1 17 3 0 13 -61 33 -98 33 -18 0 -32 5 -32 10 0
9 78 4 89 -6 10 -9 41 31 41 54 0 24 -27 81 -45 94 -5 4 -25 8 -42 8 -23 0
-33 5 -33 15 0 17 2 16 -66 20 -32 2 -63 -2 -80 -11z m126 -24 c-20 -13 -33
-13 -25 0 3 6 14 10 23 10 15 0 15 -2 2 -10z m100 -35 c11 -13 8 -15 -14 -15
-16 0 -26 5 -26 15 0 8 6 15 14 15 7 0 19 -7 26 -15z m20 -50 c0 -8 -2 -15 -4
-15 -2 0 -6 7 -10 15 -3 8 -1 15 4 15 6 0 10 -7 10 -15z m-197 -12 c-7 -2 -19
-2 -25 0 -7 3 -2 5 12 5 14 0 19 -2 13 -5z m-83 -23 c10 -6 2 -7 -25 -3 -49 7
-58 13 -19 13 16 0 36 -5 44 -10z m755 -98 c27 -9 59 -27 70 -40 20 -22 20
-22 103 -7 64 11 95 12 133 4 27 -6 49 -14 49 -19 0 -5 -23 -13 -50 -19 -28
-6 -77 -22 -110 -36 -33 -14 -66 -25 -74 -25 -21 0 -10 25 17 38 21 10 20 11
-10 11 -17 1 -33 -3 -35 -7 -4 -12 -78 -23 -78 -11 0 5 9 9 20 9 11 0 20 5 20
10 0 6 -11 8 -27 4 -25 -7 -26 -5 -15 9 11 13 10 15 -7 10 -12 -3 -29 -2 -38
2 -17 7 -16 8 2 15 18 8 17 9 -7 9 -16 1 -28 5 -28 10 0 5 -12 11 -27 14 -39
9 -57 23 -48 37 9 15 66 7 140 -18z m-654 -232 c68 -49 64 -234 -7 -260 -68
-26 -162 59 -166 151 -1 33 37 103 65 121 23 15 79 8 108 -12z m323 -455 c-4
-8 -8 -15 -10 -15 -2 0 -4 7 -4 15 0 8 4 15 10 15 5 0 7 -7 4 -15z m-24 -35
c0 -5 -5 -10 -11 -10 -5 0 -7 5 -4 10 3 6 8 10 11 10 2 0 4 -4 4 -10z m-230
-91 c14 -24 9 -32 -14 -23 -17 7 -23 44 -6 44 5 0 14 -9 20 -21z m292 -49 c3
-16 1 -30 -4 -30 -4 0 -8 14 -8 30 0 17 2 30 4 30 2 0 6 -13 8 -30z m28 -101
c0 -11 -4 -17 -10 -14 -5 3 -10 15 -10 26 0 11 5 17 10 14 6 -3 10 -15 10 -26z
m68 -16 c2 -21 7 -39 12 -41 6 -2 10 -15 10 -28 0 -16 -4 -23 -11 -18 -8 5
-10 -1 -7 -20 4 -17 1 -25 -6 -23 -6 2 -11 13 -12 24 -1 11 -4 25 -8 32 -4 6
-1 11 8 11 21 0 21 16 0 24 -10 4 -13 2 -9 -7 4 -6 -3 -1 -14 12 -28 31 -28
61 -1 54 11 -3 20 0 20 6 0 6 4 11 8 11 4 0 9 -17 10 -37z m-34 -90 c4 -12 2
-24 -4 -28 -16 -10 -18 -5 -26 45 -6 41 -5 43 9 25 8 -11 17 -30 21 -42z m733
-85 c-3 -8 -6 -5 -6 6 -1 11 2 17 5 13 3 -3 4 -12 1 -19z m123 -841 c0 -5 -7
-4 -15 3 -8 7 -15 20 -15 29 1 13 3 13 15 -3 8 -11 15 -24 15 -29z"/>
<path d="M6910 5560 c-13 -10 -29 -16 -34 -13 -5 4 -6 1 -1 -7 4 -7 3 -15 -2
-19 -6 -3 -14 -17 -18 -30 -6 -20 -4 -23 9 -18 10 4 16 1 16 -8 0 -8 -5 -15
-11 -15 -5 0 -7 -5 -4 -10 4 -6 10 -8 15 -5 4 3 10 -4 13 -15 3 -11 11 -20 17
-20 7 0 10 7 6 18 -5 14 -3 14 9 -3 15 -19 16 -18 46 14 16 19 28 40 25 47 -3
8 -2 14 3 14 12 0 7 36 -8 54 -8 9 -22 16 -31 16 -10 0 -20 4 -22 10 -1 5 -14
1 -28 -10z m30 -66 c0 -14 -4 -23 -10 -19 -5 3 -10 15 -10 26 0 10 5 19 10 19
6 0 10 -12 10 -26z"/>
<path d="M2366 5846 c-11 -9 -27 -16 -37 -16 -18 0 -45 -27 -36 -37 7 -6 73
23 81 36 8 12 204 3 239 -11 15 -6 27 -16 27 -23 0 -8 -12 -16 -27 -20 -73
-16 -203 -135 -188 -172 6 -16 8 -16 23 6 58 85 183 162 225 139 27 -14 31 -4
16 32 -22 51 -73 71 -198 76 -86 4 -110 2 -125 -10z"/>
<path d="M2196 5772 c-119 -172 -121 -176 -142 -327 l-5 -30 17 22 c9 13 18
43 20 68 2 25 10 58 19 74 8 17 15 36 15 44 0 8 9 22 20 32 11 10 22 27 26 39
4 11 20 36 35 54 l29 33 2 -118 c2 -171 -1 -211 -18 -245 -16 -31 -10 -54 7
-28 24 38 41 123 34 178 -3 31 -7 94 -7 140 -1 50 -5 82 -12 82 -6 0 -5 5 2
12 7 7 12 16 12 20 0 19 -18 3 -54 -50z"/>
<path d="M2783 5754 c33 -31 57 -37 57 -15 0 8 -73 51 -86 51 -5 0 8 -16 29
-36z"/>
<path d="M6780 5761 c0 -6 5 -13 10 -16 6 -3 10 1 10 9 0 9 -4 16 -10 16 -5 0
-10 -4 -10 -9z"/>
<path d="M6700 5731 c0 -6 5 -13 10 -16 6 -3 10 1 10 9 0 9 -4 16 -10 16 -5 0
-10 -4 -10 -9z"/>
<path d="M2365 5703 c4 -10 10 -26 12 -35 3 -10 9 -18 14 -18 13 0 11 44 -3
58 -18 18 -31 15 -23 -5z"/>
<path d="M6890 5711 c0 -6 5 -13 10 -16 6 -3 10 1 10 9 0 9 -4 16 -10 16 -5 0
-10 -4 -10 -9z"/>
<path d="M2895 5689 c7 -20 6 -20 -24 -4 -17 8 -31 12 -31 7 0 -12 87 -58 95
-51 7 8 -27 69 -38 69 -5 0 -5 -9 -2 -21z"/>
<path d="M2960 5689 c0 -12 36 -30 44 -22 12 12 6 21 -19 25 -14 3 -25 2 -25
-3z"/>
<path d="M3022 5688 c5 -14 174 -55 185 -45 10 11 -2 18 -59 32 -89 23 -130
27 -126 13z"/>
<path d="M2735 5683 c4 -8 0 -13 -9 -13 -10 0 -13 -6 -9 -17 6 -17 5 -17 -14
0 -28 25 -46 22 -37 -5 13 -42 38 -68 59 -63 10 2 27 -3 37 -11 9 -9 22 -13
27 -9 22 13 11 56 -25 93 -20 20 -33 31 -29 25z"/>
<path d="M6620 5676 c0 -9 5 -16 10 -16 6 0 10 4 10 9 0 6 -4 13 -10 16 -5 3
-10 -1 -10 -9z"/>
<path d="M7090 5680 c0 -5 5 -10 10 -10 6 0 10 5 10 10 0 6 -4 10 -10 10 -5 0
-10 -4 -10 -10z"/>
<path d="M2360 5646 c0 -9 -6 -16 -12 -16 -14 0 11 -20 25 -20 11 0 9 38 -3
45 -5 3 -10 -1 -10 -9z"/>
<path d="M2627 5637 c-6 -18 20 -65 44 -78 36 -19 36 2 -1 32 -19 16 -29 29
-22 29 17 0 15 17 -2 23 -8 3 -17 1 -19 -6z"/>
<path d="M3255 5640 c-3 -5 14 -14 37 -21 55 -14 121 -81 156 -158 15 -31 28
-49 29 -41 6 25 -36 109 -75 152 -52 58 -131 94 -147 68z"/>
<path d="M2929 5583 c47 -65 54 -107 19 -119 -35 -12 -80 -5 -110 17 -16 11
-28 15 -28 9 0 -6 15 -19 33 -31 24 -15 42 -19 76 -15 49 7 71 -5 71 -37 0
-21 0 -21 -16 1 -8 12 -19 22 -24 22 -5 0 17 -40 49 -90 59 -89 93 -174 106
-262 3 -27 10 -48 16 -48 5 0 9 5 9 10 0 18 17 11 59 -26 77 -68 175 -228 188
-309 5 -31 3 -35 -15 -35 -27 0 -147 58 -215 104 -29 19 -72 61 -97 95 -25 33
-49 60 -53 61 -10 0 43 -77 93 -135 30 -34 39 -52 34 -69 -6 -26 16 -96 58
-184 48 -100 23 -97 -102 12 -57 50 -88 72 -95 65 -11 -11 82 -103 147 -145
45 -29 84 -31 90 -6 3 9 -12 53 -33 97 -35 76 -60 175 -44 175 4 0 27 -13 51
-30 25 -16 68 -41 98 -55 50 -24 54 -24 85 -9 22 11 30 21 27 32 -3 10 -8 30
-12 46 -10 40 -80 171 -121 226 -18 25 -59 66 -91 92 -50 40 -60 54 -69 95 -6
26 -10 50 -8 52 2 2 26 -12 52 -30 26 -19 64 -42 83 -51 148 -70 243 -99 263
-79 8 8 -1 23 -34 59 -25 26 -56 58 -68 72 -30 34 -94 150 -87 157 3 4 18 1
32 -6 15 -6 29 -10 31 -7 6 6 -62 129 -95 173 -26 35 -104 77 -164 88 -46 9
-53 -10 -7 -20 17 -4 59 -20 94 -36 59 -26 67 -34 105 -100 23 -39 39 -73 36
-76 -10 -10 -36 7 -46 29 -5 13 -9 17 -9 11 -1 -15 -51 -18 -51 -4 0 9 -6 12
-62 27 -48 13 2 -20 55 -37 51 -16 53 -18 90 -95 21 -43 61 -105 89 -136 27
-32 45 -58 39 -58 -20 0 -158 52 -220 83 -79 40 -141 96 -180 165 -35 60 -38
77 -16 90 13 7 12 10 -10 20 -26 12 -32 26 -16 37 15 8 -91 175 -111 175 -5 0
9 -25 31 -57z"/>
<path d="M6720 5621 c0 -11 5 -23 10 -26 6 -3 10 3 10 14 0 11 -4 23 -10 26
-5 3 -10 -3 -10 -14z"/>
<path d="M6572 5588 c2 -6 10 -14 16 -16 7 -2 10 2 6 12 -7 18 -28 22 -22 4z"/>
<path d="M6660 5561 c0 -11 5 -23 10 -26 6 -3 10 3 10 14 0 11 -4 23 -10 26
-5 3 -10 -3 -10 -14z"/>
<path d="M2775 5530 c3 -5 13 -10 21 -10 8 0 12 5 9 10 -3 6 -13 10 -21 10 -8
0 -12 -4 -9 -10z"/>
<path d="M2330 5520 c0 -5 5 -10 10 -10 6 0 10 5 10 10 0 6 -4 10 -10 10 -5 0
-10 -4 -10 -10z"/>
<path d="M2400 5496 c0 -33 -21 -63 -38 -52 -8 5 -52 -45 -52 -59 0 -12 18 -3
49 26 18 16 34 29 36 27 1 -2 5 -23 9 -48 9 -62 -5 -78 -74 -86 -63 -7 -78
-13 -59 -25 23 -15 112 1 131 23 17 19 18 18 72 -36 75 -74 236 -162 236 -128
0 6 -9 34 -19 64 -10 29 -24 86 -30 126 -6 40 -18 88 -27 105 -21 41 -54 77
-71 77 -21 0 -15 -24 9 -35 26 -11 67 -87 67 -126 1 -14 10 -61 21 -104 11
-43 20 -82 20 -86 0 -12 -92 44 -156 94 -35 27 -63 60 -80 95 -23 46 -26 61
-21 117 4 51 2 65 -9 65 -9 0 -14 -12 -14 -34z"/>
<path d="M6705 5520 c3 -5 11 -10 16 -10 6 0 7 5 4 10 -3 6 -11 10 -16 10 -6
0 -7 -4 -4 -10z"/>
<path d="M7166 5515 c-4 -10 1 -15 14 -15 13 0 18 5 14 15 -4 8 -10 15 -14 15
-4 0 -10 -7 -14 -15z"/>
<path d="M7221 5504 c0 -11 3 -14 6 -6 3 7 2 16 -1 19 -3 4 -6 -2 -5 -13z"/>
<path d="M6555 5490 c3 -5 8 -10 11 -10 2 0 4 5 4 10 0 6 -5 10 -11 10 -5 0
-7 -4 -4 -10z"/>
<path d="M2726 5472 c-7 -12 19 -35 34 -30 7 2 3 11 -8 21 -11 10 -23 14 -26
9z"/>
<path d="M3366 5429 c18 -17 37 -30 44 -27 6 2 -8 16 -32 31 l-43 28 31 -32z"/>
<path d="M6670 5436 c0 -9 5 -16 10 -16 6 0 10 4 10 9 0 6 -4 13 -10 16 -5 3
-10 -1 -10 -9z"/>
<path d="M7261 5428 c1 -13 5 -36 9 -53 7 -27 8 -25 9 17 0 26 -3 50 -9 53 -6
3 -9 -4 -9 -17z"/>
<path d="M7140 5404 c0 -8 5 -12 10 -9 6 4 8 11 5 16 -9 14 -15 11 -15 -7z"/>
<path d="M2050 5405 c0 -9 68 -135 84 -155 7 -8 20 -32 29 -54 10 -21 20 -37
22 -34 10 10 -30 115 -52 135 -13 13 -30 38 -38 56 -13 31 -45 68 -45 52z"/>
<path d="M3520 5393 c0 -4 11 -16 25 -28 31 -26 90 -131 114 -204 10 -31 34
-94 54 -141 19 -47 38 -93 41 -102 3 -10 10 -18 16 -18 18 0 3 51 -42 146 -21
47 -46 108 -55 136 -18 61 -89 184 -117 204 -22 15 -36 18 -36 7z"/>
<path d="M2029 5384 c-9 -116 -8 -131 23 -214 36 -98 54 -125 43 -65 -4 22
-10 45 -15 50 -5 6 -11 27 -15 48 -4 20 -11 40 -16 42 -4 3 -8 35 -8 71 1 36
-2 68 -5 71 -3 4 -6 2 -7 -3z"/>
<path d="M2775 5381 c-3 -5 -1 -12 5 -16 5 -3 10 1 10 9 0 18 -6 21 -15 7z"/>
<path d="M7195 5380 c-3 -5 -1 -10 4 -10 6 0 11 5 11 10 0 6 -2 10 -4 10 -3 0
-8 -4 -11 -10z"/>
<path d="M7100 5346 c0 -9 5 -16 10 -16 6 0 10 4 10 9 0 6 -4 13 -10 16 -5 3
-10 -1 -10 -9z"/>
<path d="M2744 5305 c20 -66 60 -129 105 -164 21 -17 41 -31 44 -31 3 0 28
-15 56 -34 55 -37 126 -55 144 -37 8 8 7 11 -2 11 -8 0 -55 20 -106 44 -120
57 -197 130 -215 205 -7 30 -18 51 -26 51 -11 0 -11 -7 0 -45z"/>
<path d="M3380 5345 c0 -2 26 -22 58 -44 75 -52 105 -84 141 -156 42 -82 40
-104 -5 -70 -41 31 -33 13 13 -29 44 -41 69 -54 46 -24 -6 7 -13 35 -17 62
-11 88 -82 185 -171 236 -51 29 -65 35 -65 25z"/>
<path d="M6590 5341 c0 -5 5 -13 10 -16 6 -3 10 -2 10 4 0 5 -4 13 -10 16 -5
3 -10 2 -10 -4z"/>
<path d="M6820 5340 c0 -5 5 -10 10 -10 6 0 10 5 10 10 0 6 -4 10 -10 10 -5 0
-10 -4 -10 -10z"/>
<path d="M7440 5336 c0 -8 4 -17 9 -20 5 -4 7 3 4 14 -6 23 -13 26 -13 6z"/>
<path d="M7472 5325 c0 -16 2 -22 5 -12 2 9 2 23 0 30 -3 6 -5 -1 -5 -18z"/>
<path d="M7168 5322 c-3 -11 -16 -22 -29 -24 -12 -1 -25 -9 -27 -17 -3 -10 0
-12 11 -8 9 3 17 2 19 -2 2 -4 13 4 25 19 13 16 18 31 14 39 -6 9 -10 7 -13
-7z"/>
<path d="M6730 5323 c0 -5 4 -15 10 -23 11 -18 25 -7 17 15 -6 15 -27 21 -27
8z"/>
<path d="M3240 5296 c0 -8 9 -20 21 -26 19 -11 20 -10 10 9 -15 27 -31 36 -31
17z"/>
<path d="M7566 5287 c5 -12 7 -36 6 -54 -1 -18 2 -34 7 -37 4 -3 9 19 10 48 1
40 -3 55 -15 60 -12 5 -14 1 -8 -17z"/>
<path d="M7530 5286 c0 -8 5 -18 10 -21 6 -3 10 1 10 9 0 8 -4 18 -10 21 -5 3
-10 -1 -10 -9z"/>
<path d="M7505 5277 c7 -27 -7 -45 -16 -21 -7 18 -8 17 -8 -3 -1 -28 13 -37
29 -18 10 12 10 20 1 38 -7 14 -10 15 -6 4z"/>
<path d="M6570 5270 c0 -5 5 -10 10 -10 6 0 10 5 10 10 0 6 -4 10 -10 10 -5 0
-10 -4 -10 -10z"/>
<path d="M7620 5250 c0 -30 15 -56 24 -42 3 5 -1 23 -9 38 l-15 29 0 -25z"/>
<path d="M6762 5248 c2 -6 10 -14 16 -16 7 -2 10 2 6 12 -7 18 -28 22 -22 4z"/>
<path d="M2292 5217 c-21 -12 -89 -134 -79 -143 2 -2 20 22 40 54 20 33 43 65
52 72 13 11 15 6 15 -43 0 -61 -18 -127 -54 -197 -13 -25 -27 -60 -31 -77 -3
-18 -11 -35 -16 -39 -12 -7 -41 62 -43 101 -1 20 -13 43 -39 69 -36 38 -38 39
-55 22 -14 -14 -17 -34 -14 -134 1 -77 8 -131 18 -159 14 -36 15 -48 4 -73
-19 -45 -8 -362 14 -412 21 -49 21 -70 -1 -66 -15 3 -19 -6 -21 -51 -6 -97 41
-360 66 -369 9 -3 10 2 3 20 -15 40 -36 176 -47 298 -6 69 -5 74 10 55 8 -11
16 -28 16 -39 0 -10 9 -33 19 -50 11 -18 19 -52 20 -81 1 -27 6 -68 10 -90 6
-27 7 -3 5 75 -3 92 -7 117 -20 127 -11 8 -19 36 -25 85 -4 40 -14 91 -22 113
-17 50 -24 355 -8 355 5 0 20 -33 32 -72 18 -62 22 -100 23 -250 0 -98 3 -178
7 -178 3 0 11 24 18 54 13 58 35 96 48 83 4 -5 9 -62 11 -128 2 -105 0 -123
-17 -147 -22 -31 -36 -72 -24 -72 18 1 47 56 59 113 8 42 10 78 3 115 -4 30
-6 58 -4 62 9 14 -16 80 -31 80 -8 0 -24 -16 -35 -35 -12 -19 -23 -35 -26 -35
-15 0 7 201 30 270 39 120 51 106 44 -50 -4 -102 -3 -130 6 -121 8 8 12 61 13
164 0 120 3 158 16 182 34 63 63 273 42 307 -3 5 -12 4 -20 -3 -19 -16 -18 -6
7 38 29 52 37 214 11 213 -4 -1 -17 -6 -30 -13z m-172 -220 c0 -5 15 -39 32
-76 28 -57 33 -80 39 -171 3 -58 6 -86 7 -63 1 23 7 45 12 48 6 3 10 18 10 33
0 68 51 182 81 182 29 0 -6 -223 -45 -283 -9 -13 -29 -61 -45 -106 -33 -93
-41 -107 -41 -65 0 16 -10 65 -24 109 -50 162 -72 303 -60 389 6 46 8 48 20
31 8 -10 14 -23 14 -28z"/>
<path d="M3205 5220 c3 -5 8 -10 11 -10 2 0 4 5 4 10 0 6 -5 10 -11 10 -5 0
-7 -4 -4 -10z"/>
<path d="M7450 5198 c0 -16 5 -28 10 -28 13 0 13 20 0 40 -8 12 -10 9 -10 -12z"/>
<path d="M7120 5179 c0 -27 2 -29 15 -15 8 8 15 22 15 30 0 9 -7 16 -15 16
-10 0 -15 -10 -15 -31z"/>
<path d="M6654 5186 c-3 -9 7 -31 25 -53 17 -21 31 -46 31 -55 0 -21 11 -23
27 -7 9 9 5 24 -17 62 -32 57 -57 77 -66 53z"/>
<path d="M7737 5193 c-4 -6 2 -18 13 -28 23 -21 27 -8 7 20 -8 11 -16 14 -20
8z"/>
<path d="M7780 5188 c0 -9 5 -20 10 -23 13 -8 13 5 0 25 -8 13 -10 13 -10 -2z"/>
<path d="M7710 5172 c0 -5 7 -15 15 -22 8 -7 15 -8 15 -2 0 5 -7 15 -15 22 -8
7 -15 8 -15 2z"/>
<path d="M6840 5161 c0 -5 5 -13 10 -16 6 -3 10 -2 10 4 0 5 -4 13 -10 16 -5
3 -10 2 -10 -4z"/>
<path d="M7437 5153 c-11 -10 -8 -25 3 -18 7 4 8 -13 4 -49 -4 -34 -3 -56 3
-56 5 0 8 13 5 29 -2 16 0 37 6 47 16 28 -1 67 -21 47z"/>
<path d="M3150 5124 c0 -13 104 -96 146 -116 14 -7 24 -27 33 -67 20 -89 64
-134 241 -247 45 -29 133 -54 150 -44 10 6 4 12 -21 23 -124 54 -191 91 -281
156 -51 36 -78 87 -78 146 0 32 -4 36 -55 61 -31 15 -73 44 -95 64 -22 20 -40
31 -40 24z"/>
<path d="M7685 5079 c1 -28 6 -54 12 -57 5 -4 16 -18 22 -30 7 -13 15 -22 17
-19 4 4 -39 143 -48 152 -3 3 -4 -18 -3 -46z"/>
<path d="M7800 5121 c0 -5 9 -19 20 -32 l19 -24 -12 33 c-10 30 -27 44 -27 23z"/>
<path d="M6921 5104 c0 -11 3 -14 6 -6 3 7 2 16 -1 19 -3 4 -6 -2 -5 -13z"/>
<path d="M2596 5102 c-8 -13 8 -86 31 -144 24 -63 133 -189 213 -249 56 -41
111 -70 121 -64 12 8 11 42 -3 82 -22 61 -33 32 -12 -34 6 -20 -5 -16 -57 23
-117 86 -222 223 -259 339 -14 46 -25 61 -34 47z"/>
<path d="M6544 5078 c-4 -6 -6 -144 -4 -307 4 -467 3 -536 -6 -891 -5 -184 -8
-481 -7 -660 1 -179 2 -347 2 -375 1 -27 0 -66 -1 -85 -2 -70 2 -111 12 -105
6 4 10 160 10 418 0 227 2 475 5 552 3 77 7 212 10 300 9 294 8 1029 -3 1055
-5 14 -8 44 -6 68 4 43 1 51 -12 30z"/>
<path d="M7616 5071 c-7 -10 39 -70 47 -61 3 3 -5 20 -18 38 -13 18 -26 29
-29 23z"/>
<path d="M7780 5066 c0 -9 5 -16 10 -16 6 0 10 4 10 9 0 6 -4 13 -10 16 -5 3
-10 -1 -10 -9z"/>
<path d="M7756 5019 c3 -5 19 -9 36 -9 17 0 28 3 24 7 -11 11 -67 12 -60 2z"/>
<path d="M6899 4991 c-47 -43 -28 -54 36 -19 30 16 53 34 50 39 -12 18 -55 8
-86 -20z"/>
<path d="M3681 4970 c12 -23 24 -38 27 -35 8 7 -28 75 -39 75 -5 0 1 -18 12
-40z"/>
<path d="M3550 4997 c0 -2 18 -24 41 -48 48 -52 83 -117 100 -185 15 -60 26
-84 41 -84 7 0 7 4 -1 14 -6 7 -18 38 -27 67 -30 105 -80 190 -131 225 -13 8
-23 13 -23 11z"/>
<path d="M7590 4987 c0 -17 52 -97 63 -97 4 0 -4 17 -18 37 -14 21 -25 46 -25
55 0 10 -4 18 -10 18 -5 0 -10 -6 -10 -13z"/>
<path d="M6841 4964 c-27 -35 -39 -77 -56 -209 -8 -60 -17 -123 -19 -140 -18
-126 -36 -288 -41 -380 -4 -60 -10 -139 -15 -175 -5 -36 -16 -153 -25 -260 -8
-107 -20 -238 -25 -291 -6 -53 -13 -114 -15 -135 -2 -22 -4 -63 -4 -91 -1 -29
-5 -53 -10 -53 -11 0 -2 246 14 410 2 19 7 87 11 150 12 196 29 404 44 550 24
227 43 623 30 615 -7 -4 -14 -51 -25 -180 -2 -22 -6 -116 -10 -210 -4 -93 -10
-188 -15 -210 -5 -22 -11 -80 -15 -130 -3 -49 -8 -103 -10 -120 -3 -16 -7
-104 -10 -195 -3 -91 -9 -219 -15 -285 -5 -66 -12 -163 -14 -215 -3 -52 -8
-140 -11 -195 -11 -207 -13 -455 -4 -455 5 0 9 -10 9 -22 0 -19 -2 -20 -10 -8
-8 11 -11 2 -11 -35 0 -98 -7 -183 -18 -221 -13 -48 -14 -82 -2 -68 10 10 50
225 56 303 3 25 7 66 9 91 3 25 10 142 16 260 11 205 16 278 40 520 5 58 12
130 15 160 6 75 14 156 20 210 2 25 7 72 10 105 3 33 7 71 10 85 2 14 9 88 15
165 10 133 21 218 55 450 8 55 15 115 15 133 0 19 9 47 21 64 27 37 18 48 -10
12z m-214 -1916 c-3 -8 -6 -5 -6 6 -1 11 2 17 5 13 3 -3 4 -12 1 -19z m-10
-115 c-3 -10 -5 -2 -5 17 0 19 2 27 5 18 2 -10 2 -26 0 -35z m3 -43 c0 -5 -5
-10 -11 -10 -5 0 -7 5 -4 10 3 6 8 10 11 10 2 0 4 -4 4 -10z"/>
<path d="M7150 4970 c0 -5 5 -10 10 -10 6 0 10 5 10 10 0 6 -4 10 -10 10 -5 0
-10 -4 -10 -10z"/>
<path d="M7650 4973 c0 -16 40 -73 51 -73 5 0 1 13 -10 29 -12 16 -21 34 -21
40 0 6 -4 11 -10 11 -5 0 -10 -3 -10 -7z"/>
<path d="M2852 4962 c2 -4 11 -28 22 -55 18 -46 44 -68 31 -26 -9 26 -45 89
-52 89 -2 0 -3 -3 -1 -8z"/>
<path d="M7890 4960 c0 -5 5 -10 11 -10 5 0 7 5 4 10 -3 6 -8 10 -11 10 -2 0
-4 -4 -4 -10z"/>
<path d="M7551 4949 c-2 -29 30 -122 55 -161 26 -40 41 -47 50 -23 10 24 21
18 38 -22 46 -107 85 -162 150 -210 55 -42 48 -24 -18 49 -55 60 -66 78 -66
108 0 26 -3 31 -10 20 -9 -13 -11 -13 -19 0 -5 8 -8 18 -5 22 3 4 -12 30 -33
58 -36 48 -38 50 -41 26 -4 -31 -13 -33 -27 -8 -17 32 -53 106 -63 132 -6 14
-11 18 -11 9z"/>
<path d="M7830 4951 c0 -12 42 -42 49 -36 5 6 -29 45 -41 45 -4 0 -8 -4 -8 -9z"/>
<path d="M7720 4938 c0 -9 14 -26 30 -38 17 -12 30 -17 30 -13 0 5 -13 22 -30
38 -22 22 -30 25 -30 13z"/>
<path d="M7792 4926 c10 -23 36 -42 45 -33 5 6 -37 57 -48 57 -4 0 -4 -11 3
-24z"/>
<path d="M7940 4879 c0 -14 56 -69 70 -69 7 0 -3 18 -21 39 -35 40 -49 49 -49
30z"/>
<path d="M3720 4869 c0 -3 9 -14 20 -24 13 -11 20 -30 20 -49 -1 -17 12 -82
28 -143 16 -62 27 -113 25 -113 -2 0 -21 9 -43 20 -45 23 -50 24 -50 10 0 -6
8 -13 18 -17 9 -3 39 -21 66 -40 58 -42 73 -34 50 28 -18 51 -64 227 -64 249
0 8 -5 31 -10 51 -9 31 -15 37 -35 35 -14 0 -25 -4 -25 -7z"/>
<path d="M7190 4862 c0 -19 12 -42 22 -42 14 0 5 43 -9 48 -7 2 -13 -1 -13 -6z"/>
<path d="M7900 4847 c0 -20 57 -77 77 -77 18 0 18 1 -32 50 -33 32 -45 39 -45
27z"/>
<path d="M7720 4826 c0 -8 16 -35 35 -60 19 -25 34 -49 34 -54 -4 -24 4 -46
25 -67 14 -13 27 -33 31 -44 7 -22 99 -111 115 -111 6 0 -16 31 -49 68 -37 41
-61 78 -61 91 0 16 -4 21 -15 17 -8 -3 -19 3 -25 14 -14 25 -13 30 6 30 12 0
6 12 -20 41 -20 22 -42 51 -48 65 -12 26 -28 32 -28 10z"/>
<path d="M7799 4803 c22 -45 65 -93 82 -93 6 0 -3 16 -20 35 -17 19 -38 49
-46 65 -9 17 -20 30 -25 30 -6 0 -2 -17 9 -37z"/>
<path d="M7545 4817 c3 -10 5 -23 5 -27 0 -16 61 -80 76 -80 8 0 14 -5 14 -10
0 -44 216 -288 245 -276 14 5 7 17 -41 64 -31 31 -61 56 -65 55 -9 -3 -77 78
-107 128 -12 20 -41 56 -65 80 -23 24 -48 53 -55 64 -11 17 -12 17 -7 2z"/>
<path d="M7840 4825 c0 -10 48 -81 64 -94 9 -7 16 -19 16 -26 0 -20 30 -27 37
-9 4 10 -7 26 -31 46 -20 16 -43 43 -51 59 -13 25 -35 40 -35 24z"/>
<path d="M8030 4735 c35 -37 46 -44 34 -22 -13 23 -47 57 -58 57 -5 0 5 -16
24 -35z"/>
<path d="M7312 4680 c0 -14 2 -19 5 -12 2 6 2 18 0 25 -3 6 -5 1 -5 -13z"/>
<path d="M7480 4688 c0 -9 5 -20 11 -23 17 -11 20 0 4 21 -13 17 -14 17 -15 2z"/>
<path d="M3547 4665 c7 -35 42 -109 49 -102 2 2 -9 33 -25 68 -18 37 -28 51
-24 34z"/>
<path d="M7860 4663 c0 -14 117 -141 143 -155 40 -21 28 5 -26 57 -31 30 -57
62 -57 71 0 11 -5 14 -16 10 -10 -4 -22 1 -30 11 -7 10 -14 13 -14 6z"/>
<path d="M7450 4648 c0 -21 29 -58 46 -58 20 0 18 3 -16 40 -17 18 -30 26 -30
18z"/>
<path d="M7950 4630 c0 -20 87 -100 108 -100 12 0 22 5 22 10 0 6 -8 10 -17
10 -9 0 -36 20 -60 45 -44 46 -53 52 -53 35z"/>
<path d="M3420 4625 c0 -7 112 -79 152 -97 61 -28 52 -4 -10 27 -31 16 -71 40
-88 52 -28 21 -54 30 -54 18z"/>
<path d="M7444 4585 c5 -11 8 -29 8 -40 -2 -31 25 -63 64 -80 47 -20 48 -19
27 10 -10 13 -25 25 -33 25 -31 0 -55 40 -25 40 23 0 17 12 -18 40 -27 22 -30
23 -23 5z"/>
<path d="M7532 4550 c-1 -31 3 -40 16 -39 11 0 12 3 5 6 -15 6 -17 30 -4 35 5
2 4 11 -4 21 -11 16 -13 13 -13 -23z"/>
<path d="M3410 4523 c0 -16 5 -44 11 -62 18 -52 8 -52 -78 -3 -17 10 -43 26
-57 35 -23 15 -26 15 -26 2 0 -8 3 -15 8 -15 4 0 31 -21 60 -46 37 -33 64 -47
92 -51 46 -6 45 -11 22 84 -19 80 -32 102 -32 56z"/>
<path d="M3480 4522 c0 -8 52 -42 64 -42 15 0 3 17 -23 33 -32 19 -41 21 -41
9z"/>
<path d="M8080 4486 c0 -15 -5 -17 -32 -12 l-33 6 23 -20 c13 -10 29 -17 37
-14 19 8 28 35 15 48 -7 7 -10 4 -10 -8z"/>
<path d="M7450 4483 c0 -15 46 -70 53 -63 3 3 -8 21 -24 40 -15 19 -29 30 -29
23z"/>
<path d="M3536 4452 c-3 -9 -9 -22 -12 -29 -7 -15 35 -38 48 -25 12 12 0 59
-17 66 -7 2 -16 -3 -19 -12z"/>
<path d="M7582 4458 c5 -15 28 -23 28 -10 0 5 -7 13 -16 16 -10 4 -14 1 -12
-6z"/>
<path d="M3763 4443 c35 -115 66 -170 80 -145 6 10 -66 162 -77 162 -4 0 -6
-8 -3 -17z"/>
<path d="M3630 4440 c0 -8 97 -60 113 -60 22 0 0 19 -48 43 -62 30 -65 31 -65
17z"/>
<path d="M7538 4423 c-8 -29 9 -53 37 -53 13 0 27 -5 31 -11 3 -6 17 -8 29 -5
13 3 27 2 30 -4 3 -5 13 -10 22 -10 14 0 14 3 -2 20 -12 13 -25 18 -37 14 -21
-6 -64 17 -89 49 -16 19 -16 19 -21 0z"/>
<path d="M7622 4418 c5 -15 28 -23 28 -10 0 5 -7 13 -16 16 -10 4 -14 1 -12
-6z"/>
<path d="M7470 4409 c1 -14 44 -69 55 -69 8 0 -27 59 -42 72 -10 8 -13 7 -13
-3z"/>
<path d="M7676 4405 c4 -8 13 -15 21 -15 13 0 13 3 3 15 -7 8 -16 15 -21 15
-5 0 -6 -7 -3 -15z"/>
<path d="M3680 4370 c0 -10 70 -43 77 -36 6 5 -53 46 -66 46 -6 0 -11 -4 -11
-10z"/>
<path d="M7927 4365 c27 -47 197 -175 234 -175 6 0 36 -16 67 -35 65 -39 132
-69 132 -58 0 5 -31 25 -68 46 -133 75 -196 116 -232 151 -41 39 -64 49 -34
14 10 -12 -6 -1 -36 25 -56 48 -78 59 -63 32z"/>
<path d="M7540 4350 c0 -12 28 -25 36 -17 3 3 -4 10 -15 17 -15 7 -21 7 -21 0z"/>
<path d="M7720 4345 c0 -8 7 -15 16 -15 14 0 14 3 4 15 -7 8 -14 15 -16 15 -2
0 -4 -7 -4 -15z"/>
<path d="M7787 4336 c-11 -28 -8 -43 8 -49 21 -9 25 4 11 38 -10 25 -13 27
-19 11z"/>
<path d="M7530 4323 c0 -18 40 -46 71 -50 28 -3 30 -1 19 12 -7 9 -20 13 -28
10 -8 -3 -26 4 -39 16 -12 13 -23 18 -23 12z"/>
<path d="M7610 4315 c0 -9 5 -15 10 -13 12 4 11 16 -1 24 -5 3 -9 -2 -9 -11z"/>
<path d="M7652 4313 c2 -10 11 -19 21 -21 23 -5 21 10 -4 26 -18 12 -20 11
-17 -5z"/>
<path d="M7709 4297 c15 -19 41 -23 41 -7 0 6 -4 10 -9 10 -5 0 -18 3 -28 7
-16 6 -16 5 -4 -10z"/>
<path d="M3370 4285 c0 -8 2 -15 4 -15 2 0 6 7 10 15 3 8 1 15 -4 15 -6 0 -10
-7 -10 -15z"/>
<path d="M7840 4293 c0 -3 11 -18 25 -35 14 -16 25 -24 25 -17 0 6 -11 22 -25
35 -14 13 -25 21 -25 17z"/>
<path d="M3404 4280 c-6 -6 -7 -37 -1 -87 5 -43 9 -98 10 -123 1 -25 6 -51 10
-58 5 -7 13 -56 18 -110 5 -53 13 -117 19 -142 21 -97 30 -251 36 -650 3 -228
10 -423 15 -432 7 -12 5 -27 -5 -47 -21 -40 -31 -107 -17 -115 6 -4 11 -19 11
-32 0 -16 5 -24 12 -22 9 3 11 53 8 194 -4 226 -4 275 -2 464 4 279 -9 490
-44 680 -2 14 -9 70 -14 125 -6 55 -15 125 -19 155 -5 30 -4 65 0 78 6 17 3
34 -11 63 -11 21 -16 39 -10 39 5 0 10 7 10 15 0 17 -12 19 -26 5z m26 -96 c0
-8 -5 -12 -10 -9 -6 4 -8 11 -5 16 9 14 15 11 15 -7z"/>
<path d="M7650 4258 c0 -7 9 -19 20 -26 18 -11 29 -52 14 -52 -14 0 -44 22
-44 32 0 6 -8 17 -17 24 -34 25 -35 14 -3 -26 27 -35 37 -40 71 -40 46 0 62
23 33 46 -62 48 -74 55 -74 42z"/>
<path d="M7710 4257 c0 -8 7 -17 15 -21 8 -3 15 -3 15 0 0 3 -7 12 -15 20 -13
13 -15 13 -15 1z"/>
<path d="M7760 4258 c0 -18 18 -34 28 -24 3 4 -2 14 -11 23 -16 16 -17 16 -17
1z"/>
<path d="M3635 4239 c-4 -6 -7 -27 -7 -47 0 -20 -3 -44 -8 -52 -4 -8 -10 -30
-13 -47 -5 -25 -3 -33 8 -33 11 0 15 -12 15 -45 0 -25 -4 -45 -10 -45 -5 0
-10 8 -10 18 -1 16 -1 16 -11 -1 -6 -9 -7 -27 -4 -38 6 -17 9 -18 22 -7 14 12
15 9 10 -22 -3 -19 -9 -73 -13 -120 -3 -47 -8 -98 -10 -115 -1 -16 -10 -150
-19 -297 -18 -299 -17 -689 1 -695 9 -3 11 68 11 259 -1 248 8 495 19 528 3 8
7 66 10 130 3 63 7 131 9 150 2 19 10 121 19 226 8 105 18 202 21 217 5 19 2
28 -14 36 -14 8 -22 8 -26 0z m16 -70 c-9 -22 -10 -22 -10 -3 -1 11 2 24 6 27
12 12 14 0 4 -24z"/>
<path d="M7830 4240 c0 -6 8 -14 17 -17 9 -4 25 -15 36 -26 23 -23 40 -84 24
-90 -16 -5 2 -27 23 -27 17 0 120 -95 120 -111 0 -4 12 -22 28 -40 16 -20 21
-31 11 -27 -14 5 -15 -6 -11 -97 2 -56 -1 -179 -8 -271 -7 -93 -13 -180 -12
-194 1 -14 -3 -54 -8 -90 -17 -118 -22 -310 -8 -310 11 0 11 -2 0 -8 -7 -5
-11 -24 -10 -43 3 -59 -12 -492 -19 -517 -7 -29 -28 -23 -27 9 1 13 7 89 13
169 10 144 20 378 26 620 2 69 6 199 9 290 15 394 16 450 7 450 -6 0 -10 -51
-10 -117 0 -155 -10 -454 -17 -522 -3 -31 -9 -50 -15 -44 -5 5 -5 150 1 343 5
184 7 338 4 342 -16 25 -19 -16 -20 -240 0 -136 -4 -299 -7 -362 -4 -63 -9
-207 -12 -320 -3 -113 -7 -218 -11 -235 -3 -16 -6 -98 -8 -182 -1 -84 -4 -154
-7 -157 -2 -3 -56 9 -119 25 -112 29 -181 32 -196 8 -7 -11 9 -17 66 -22 25
-3 77 -10 115 -17 39 -6 85 -14 103 -16 17 -3 32 -11 32 -18 0 -11 -15 -11
-84 0 -137 22 -149 22 -160 -3 -19 -41 -85 -37 -87 5 -1 25 -2 24 -12 -8 -6
-19 -15 -38 -21 -42 -18 -12 0 -19 25 -10 13 5 34 6 47 1 12 -5 55 -4 95 1 79
10 205 2 172 -11 -11 -4 -61 -8 -112 -8 -50 -1 -95 -5 -98 -11 -10 -16 171
-12 240 5 77 18 146 19 215 0 30 -8 58 -11 63 -6 12 12 -5 21 -55 29 -30 5
-44 13 -46 25 -2 11 2 18 10 16 36 -4 98 2 98 11 0 6 -22 10 -49 10 -47 0 -50
2 -53 28 l-4 27 -12 -27 c-9 -23 -15 -26 -39 -19 -17 5 -27 14 -24 22 2 8 5
47 7 87 3 40 10 94 16 120 12 53 13 72 22 332 4 102 10 199 13 215 4 17 8 68
10 115 2 47 5 123 7 170 2 47 5 159 6 250 1 91 5 174 9 185 9 23 2 57 -10 49
-23 -14 -74 46 -174 203 -5 9 -20 26 -32 39 -13 13 -23 28 -23 34 0 5 -6 10
-14 10 -7 0 -19 7 -26 15 -14 17 -30 20 -30 5z m276 -619 c-4 -245 -14 -391
-29 -391 -5 0 -7 28 -3 73 3 39 9 189 12 332 4 157 10 249 15 231 4 -16 7
-126 5 -245z m-6 -1271 c0 -5 -7 -10 -15 -10 -8 0 -15 5 -15 10 0 6 7 10 15
10 8 0 15 -4 15 -10z"/>
<path d="M7580 4213 c0 -19 89 -127 128 -155 39 -28 62 -35 62 -18 0 6 -4 10
-10 10 -5 0 -48 39 -95 87 -47 48 -85 82 -85 76z"/>
<path d="M7756 4206 c3 -9 11 -16 16 -16 13 0 5 23 -10 28 -7 2 -10 -2 -6 -12z"/>
<path d="M3360 4201 c0 -6 5 -13 10 -16 6 -3 10 1 10 9 0 9 -4 16 -10 16 -5 0
-10 -4 -10 -9z"/>
<path d="M7816 4195 c4 -8 13 -15 21 -15 13 0 13 3 3 15 -7 8 -16 15 -21 15
-5 0 -6 -7 -3 -15z"/>
<path d="M7740 4150 c0 -5 7 -10 15 -10 8 0 15 5 15 10 0 6 -7 10 -15 10 -8 0
-15 -4 -15 -10z"/>
<path d="M7810 4150 c0 -5 7 -10 15 -10 8 0 15 5 15 10 0 6 -7 10 -15 10 -8 0
-15 -4 -15 -10z"/>
<path d="M7865 4151 c-6 -11 20 -33 28 -24 4 3 7 10 7 14 0 11 -29 19 -35 10z"/>
<path d="M7726 4116 c25 -40 167 -142 211 -152 15 -4 33 -10 38 -14 6 -4 23
-10 38 -14 21 -5 28 -3 25 6 -3 7 -14 15 -26 18 -12 3 -31 13 -43 23 -16 14
-24 16 -35 6 -8 -7 -14 -7 -14 -1 0 5 -17 20 -37 32 -27 16 -33 24 -24 30 11
6 9 10 -6 19 -11 5 -23 8 -26 5 -8 -8 -59 21 -81 45 -26 29 -40 27 -20 -3z"/>
<path d="M7850 4120 c0 -6 7 -13 15 -17 24 -9 27 1 5 15 -13 8 -20 8 -20 2z"/>
<path d="M3380 4105 c0 -8 5 -15 10 -15 6 0 10 7 10 15 0 8 -4 15 -10 15 -5 0
-10 -7 -10 -15z"/>
<path d="M7790 4111 c0 -14 18 -23 31 -15 8 4 7 9 -2 15 -18 11 -29 11 -29 0z"/>
<path d="M8160 4065 c0 -15 18 -40 24 -34 3 3 -1 14 -9 25 -8 10 -14 15 -15 9z"/>
<path d="M7885 4050 c3 -5 10 -10 16 -10 5 0 9 5 9 10 0 6 -7 10 -16 10 -8 0
-12 -4 -9 -10z"/>
<path d="M2252 3898 c-7 -7 -8 -16 -3 -22 16 -19 -23 -310 -44 -336 -7 -8 -16
-25 -20 -38 -10 -33 -13 -26 -29 59 -12 64 -12 80 1 124 18 61 31 88 60 138
24 38 17 50 -12 21 -21 -21 -41 -71 -50 -123 -4 -22 -13 -45 -21 -49 -16 -9
-16 -9 16 -187 13 -75 5 -141 -16 -124 -11 9 -14 6 -14 -18 0 -17 4 -43 9 -59
5 -16 13 -60 16 -97 4 -38 9 -66 12 -63 8 8 10 130 2 141 -4 6 -2 39 6 75 7
36 16 82 19 103 4 20 12 37 18 37 7 0 8 -24 3 -77 -8 -87 -8 -81 1 -144 5 -35
1 -64 -16 -113 -12 -36 -20 -71 -18 -77 2 -6 10 12 18 40 21 79 33 62 25 -36
-9 -110 -19 -137 -45 -130 -27 7 -34 -8 -14 -27 22 -23 30 -20 48 18 29 62 39
180 29 342 -12 191 -10 252 12 344 9 41 19 113 21 159 2 46 6 94 8 107 5 26
-3 31 -22 12z"/>
<path d="M2050 3873 c0 -10 10 -47 21 -83 15 -45 21 -91 20 -150 0 -47 4 -105
8 -130 7 -36 9 -19 10 77 0 67 5 125 11 128 8 5 3 21 -43 122 -7 16 -6 27 3
38 10 13 9 15 -9 15 -13 0 -21 -6 -21 -17z"/>
<path d="M3882 3658 c-10 -14 -66 -140 -76 -173 -3 -11 -8 -36 -10 -55 -3 -19
-14 -69 -24 -110 -11 -41 -25 -104 -31 -140 -25 -137 -33 -177 -48 -232 -9
-32 -19 -55 -24 -52 -5 2 -8 -10 -7 -28 1 -19 -4 -44 -11 -56 -7 -12 -9 -28
-5 -34 4 -7 3 -8 -4 -4 -7 4 -12 5 -12 2 0 -2 -3 -11 -6 -20 -4 -12 0 -16 15
-16 13 0 21 6 21 18 0 10 7 27 15 39 8 12 12 28 9 37 -3 8 6 52 19 98 14 46
33 127 42 181 10 57 22 97 28 97 13 0 31 42 68 159 13 41 29 76 35 78 6 2 24
-27 38 -64 15 -37 53 -119 84 -180 54 -109 81 -143 68 -85 -3 15 -15 74 -26
132 -30 152 -58 258 -84 315 -13 28 -28 62 -34 78 -13 29 -24 34 -40 15z m28
-34 c0 -9 11 -37 24 -63 30 -57 50 -122 71 -231 9 -47 19 -93 21 -102 3 -10 2
-18 -3 -18 -9 0 -77 131 -89 170 -13 48 -44 100 -60 100 -15 0 -43 -55 -50
-100 -6 -42 -47 -160 -55 -160 -8 0 -6 11 27 132 13 48 24 99 24 113 0 14 9
43 20 63 11 20 26 54 34 75 15 38 36 50 36 21z"/>
<path d="M3240 3396 c0 -81 34 -259 65 -341 22 -58 31 -96 56 -227 6 -32 15
-58 21 -58 6 0 7 7 3 18 -4 9 -12 46 -17 82 -4 36 -22 101 -38 145 -36 99 -61
208 -67 300 -5 62 -4 68 10 57 8 -7 21 -36 27 -65 7 -29 23 -74 35 -102 33
-71 65 -176 65 -213 0 -17 4 -33 9 -36 26 -17 -30 206 -66 261 -9 13 -20 45
-24 71 -10 53 -59 172 -71 172 -5 0 -8 -29 -8 -64z"/>
<path d="M8330 3426 c-12 -33 -13 -46 -1 -46 9 0 22 61 15 69 -2 2 -8 -8 -14
-23z"/>
<path d="M2089 3379 c-14 -27 -7 -247 9 -289 20 -50 72 -86 72 -49 0 6 -4 8
-9 5 -37 -23 -72 133 -60 269 4 44 5 82 4 83 -2 2 -9 -7 -16 -19z"/>
<path d="M8310 3365 c0 -7 -86 -341 -99 -384 -6 -19 -9 -36 -7 -38 2 -3 14 30
27 73 16 56 25 72 30 58 6 -16 15 16 24 86 0 3 3 10 7 15 4 6 9 29 12 50 3 22
10 56 15 75 14 44 14 70 1 70 -5 0 -10 -2 -10 -5z"/>
<path d="M8743 3258 c-11 -13 -27 -36 -36 -53 -24 -45 -77 -194 -76 -213 0
-10 16 24 35 73 50 129 66 165 75 165 4 0 3 -16 -3 -36 -15 -55 -1 -53 15 3 8
26 18 56 22 66 10 24 -8 21 -32 -5z"/>
<path d="M2740 3221 c0 -10 -2 -34 -5 -52 -3 -19 -3 -28 1 -21 10 20 21 14 27
-15 3 -16 13 -102 22 -193 13 -125 14 -172 6 -194 -7 -16 -14 -26 -17 -24 -3
3 -9 48 -14 99 -13 130 -21 182 -26 176 -3 -3 3 -78 12 -166 17 -152 17 -163
1 -199 -11 -23 -12 -31 -4 -19 8 9 19 17 26 17 6 0 11 16 11 36 0 27 4 35 14
31 8 -3 17 -1 20 6 3 7 2 -8 -1 -33 -8 -59 -19 -81 -39 -73 -13 5 -15 2 -10
-14 5 -15 0 -23 -19 -31 -35 -16 -41 -15 -42 9 -2 25 -21 49 -38 49 -9 0 -15
21 -19 63 -3 34 -8 93 -12 130 -6 68 -31 116 -54 102 -6 -4 -9 -43 -8 -88 l2
-82 3 73 c5 90 24 97 41 15 15 -76 20 -305 6 -291 -7 8 -34 136 -35 173 -1 21
-3 24 -6 10 -8 -30 19 -198 34 -213 10 -10 14 -8 19 15 11 45 47 59 57 22 4
-14 10 -18 19 -13 7 5 39 9 71 9 44 0 57 -3 57 -15 0 -8 14 8 30 35 16 28 30
55 29 60 0 6 -7 -2 -15 -17 -18 -33 -104 -75 -104 -50 0 4 10 12 22 17 13 6
28 28 37 57 17 52 91 137 91 105 0 -10 -7 -34 -15 -54 -8 -20 -14 -38 -11 -40
2 -2 13 20 25 49 12 29 26 61 31 70 6 10 10 20 10 23 0 10 -98 -66 -104 -80
-3 -8 -12 -15 -19 -15 -19 0 -34 74 -52 265 -9 88 -20 187 -25 220 -6 33 -10
63 -10 68 0 4 -4 7 -10 7 -5 0 -10 -8 -10 -19z"/>
<path d="M7692 3203 c-15 -49 -6 -56 13 -10 17 42 18 47 7 47 -5 0 -14 -17
-20 -37z"/>
<path d="M1406 3199 c-13 -40 -16 -70 -7 -65 11 7 25 65 17 73 -3 3 -8 0 -10
-8z"/>
<path d="M1330 3177 c0 -28 24 -54 35 -37 3 5 1 10 -4 10 -6 0 -11 9 -11 19 0
11 -4 23 -10 26 -6 3 -10 -4 -10 -18z"/>
<path d="M1477 3156 c-4 -15 -6 -31 -2 -34 10 -10 16 6 13 35 l-3 28 -8 -29z"/>
<path d="M2521 3130 c13 -16 25 -28 27 -25 7 7 -27 55 -39 55 -5 0 0 -13 12
-30z"/>
<path d="M8721 3133 c-1 -6 -4 -20 -7 -30 -5 -17 -5 -17 6 0 6 10 9 23 6 30
-3 9 -5 9 -5 0z"/>
<path d="M7220 3088 c0 -27 5 -48 10 -48 13 0 13 60 0 80 -7 11 -10 2 -10 -32z"/>
<path d="M1230 3106 c0 -16 28 -42 36 -33 7 6 -18 47 -28 47 -5 0 -8 -6 -8
-14z"/>
<path d="M2727 3078 c-2 -18 -1 -42 3 -53 5 -13 8 -2 8 33 2 59 -3 68 -11 20z"/>
<path d="M7416 3100 c-3 -8 -2 -60 3 -115 8 -99 8 -100 10 -30 3 87 14 65 31
-60 19 -145 30 -183 24 -90 -3 44 -9 98 -14 120 -4 22 -14 67 -21 100 -7 33
-16 67 -20 75 -7 13 -8 13 -13 0z"/>
<path d="M7781 3094 c0 -11 3 -14 6 -6 3 7 2 16 -1 19 -3 4 -6 -2 -5 -13z"/>
<path d="M2360 3094 c0 -3 5 -14 10 -25 16 -28 32 -23 18 6 -10 22 -28 35 -28
19z"/>
<path d="M2920 3092 c0 -8 5 -23 12 -35 6 -12 15 -35 20 -52 6 -26 7 -24 4 12
-4 38 -36 105 -36 75z"/>
<path d="M6988 3094 c-5 -4 -8 -28 -8 -53 0 -32 3 -42 11 -34 5 5 9 29 7 53
-2 23 -6 38 -10 34z"/>
<path d="M6876 3049 c-8 -41 -8 -64 0 -56 8 8 17 87 11 87 -3 0 -7 -14 -11
-31z"/>
<path d="M8697 3069 c-3 -8 -12 -40 -22 -72 -9 -32 -14 -61 -12 -63 3 -3 15
27 26 67 12 39 20 74 17 76 -3 3 -7 0 -9 -8z"/>
<path d="M7763 3041 c-6 -16 -7 -34 -3 -41 6 -9 9 -7 13 6 3 11 8 29 12 42 9
32 -9 27 -22 -7z"/>
<path d="M8330 3050 c-27 -6 -50 -43 -49 -75 1 -11 6 -4 12 17 7 26 17 38 35
43 33 8 44 -4 66 -69 21 -62 35 -70 16 -9 -30 97 -36 104 -80 93z"/>
<path d="M2056 3025 c-9 -36 31 -258 50 -271 11 -9 12 -18 5 -37 -7 -17 -6
-56 1 -116 8 -69 8 -97 0 -116 -13 -29 -16 -75 -4 -75 8 0 72 166 101 266 22
75 28 188 11 199 -6 4 -24 -8 -40 -25 l-30 -32 0 40 c0 22 -7 53 -16 68 -15
28 -15 28 -9 -31 4 -33 11 -65 17 -72 6 -8 5 -21 -5 -39 l-14 -27 -7 49 c-4
27 -14 71 -22 98 -8 27 -14 65 -14 84 0 29 2 33 15 22 8 -6 14 -15 13 -18 -2
-19 3 -32 13 -32 11 0 5 29 -13 68 -15 30 -44 28 -52 -3z m146 -265 c-2 -29
-12 -76 -23 -104 -10 -28 -19 -60 -19 -72 0 -11 -7 -29 -15 -40 -13 -18 -14
-16 -15 26 -1 25 -3 59 -4 75 -2 26 30 135 50 166 15 25 29 -1 26 -51z"/>
<path d="M3080 2990 c0 -41 30 -160 41 -160 5 0 6 7 3 15 -4 8 -3 15 0 15 7 0
46 -75 46 -90 0 -5 11 -34 25 -63 14 -28 29 -71 32 -95 7 -54 18 -61 38 -23 8
17 11 32 6 35 -5 4 -11 0 -14 -6 -3 -7 -10 1 -16 17 -6 17 -18 44 -26 60 -43
91 -98 236 -104 274 -7 53 -31 69 -31 21z"/>
<path d="M3846 2967 c-19 -67 -20 -82 -1 -42 13 28 14 24 16 -70 1 -55 2 -113
1 -128 -3 -39 -50 -135 -73 -150 -20 -13 -26 -37 -8 -37 5 0 7 5 4 11 -4 6 0
9 11 7 13 -2 24 7 35 29 9 18 23 40 30 49 10 13 15 62 17 192 4 191 -5 231
-32 139z"/>
<path d="M1860 2960 c0 -22 3 -40 8 -40 4 0 8 18 8 40 1 22 -2 40 -7 40 -5 0
-9 -18 -9 -40z"/>
<path d="M2470 2953 c0 -28 4 -54 8 -57 12 -7 14 76 2 94 -7 11 -10 0 -10 -37z"/>
<path d="M1714 2968 c9 -13 21 -34 26 -47 8 -17 14 -21 21 -14 12 12 -4 50
-30 70 -26 20 -35 15 -17 -9z"/>
<path d="M8550 2975 c0 -8 5 -15 10 -15 6 0 10 7 10 15 0 8 -4 15 -10 15 -5 0
-10 -7 -10 -15z"/>
<path d="M1223 2931 c1 -32 7 -56 14 -58 9 -3 10 7 6 34 -11 68 -23 82 -20 24z"/>
<path d="M1928 2955 c-3 -16 -9 -41 -12 -55 -4 -17 -1 -14 9 9 9 18 15 43 13
55 -3 17 -5 15 -10 -9z"/>
<path d="M2530 2963 c0 -13 5 -23 10 -23 13 0 13 11 0 30 -8 12 -10 11 -10 -7z"/>
<path d="M1287 2932 c-3 -20 -8 -46 -13 -57 -4 -11 -4 -17 0 -13 13 11 35 97
27 103 -5 2 -11 -12 -14 -33z"/>
<path d="M8597 2883 c-16 -50 -41 -114 -55 -142 -28 -52 -99 -134 -124 -144
-8 -3 -36 -47 -61 -99 -46 -92 -59 -144 -34 -135 7 2 11 16 9 33 -2 21 10 49
43 99 25 39 49 69 53 68 16 -7 4 -42 -23 -68 l-30 -27 40 27 c50 35 95 76 95
87 0 5 -13 -6 -29 -24 -36 -40 -47 -33 -27 16 8 20 12 36 8 36 -4 0 1 5 11 11
9 5 21 8 26 5 11 -7 23 22 15 36 -3 5 3 19 14 31 35 39 107 228 100 264 -2 10
-16 -23 -31 -74z"/>
<path d="M1960 2942 c-10 -11 -11 -17 -3 -19 7 -3 10 -12 7 -21 -5 -15 -4 -14
6 1 6 10 10 26 8 36 -3 17 -4 18 -18 3z"/>
<path d="M1359 2945 c-4 -5 -9 -28 -13 -50 l-6 -40 15 34 c14 32 17 79 4 56z"/>
<path d="M6270 2935 c-7 -9 -15 -49 -18 -90 -4 -68 -3 -74 15 -73 16 2 19 11
21 55 1 29 7 64 12 79 16 40 -5 60 -30 29z"/>
<path d="M6380 2940 c0 -5 5 -10 10 -10 6 0 10 5 10 10 0 6 -4 10 -10 10 -5 0
-10 -4 -10 -10z"/>
<path d="M6901 2913 c-16 -59 -33 -184 -27 -190 3 -4 6 3 6 15 0 11 5 24 12
28 8 5 10 -19 5 -96 -3 -57 -2 -98 2 -91 5 7 9 74 10 148 1 75 6 156 10 180
10 53 -4 57 -18 6z m-4 -125 c-3 -7 -5 -2 -5 12 0 14 2 19 5 13 2 -7 2 -19 0
-25z"/>
<path d="M8262 2917 c-17 -47 -14 -59 4 -18 8 19 13 39 12 43 -2 5 -9 -6 -16
-25z"/>
<path d="M8326 2922 c-21 -40 -21 -53 0 -24 22 31 36 17 69 -66 25 -66 70
-130 82 -118 4 3 -6 46 -22 96 -32 96 -47 116 -21 27 20 -67 20 -73 2 -58 -8
6 -24 40 -36 74 -13 34 -31 70 -41 81 -17 18 -18 18 -33 -12z"/>
<path d="M1144 2925 c4 -11 10 -32 13 -47 7 -36 28 -55 37 -33 3 9 2 14 -3 10
-5 -3 -15 12 -21 32 -7 21 -17 43 -23 48 -7 7 -8 4 -3 -10z"/>
<path d="M4130 2926 c0 -8 5 -18 10 -21 6 -3 10 1 10 9 0 8 -4 18 -10 21 -5 3
-10 -1 -10 -9z"/>
<path d="M8495 2930 c3 -5 8 -10 11 -10 2 0 4 5 4 10 0 6 -5 10 -11 10 -5 0
-7 -4 -4 -10z"/>
<path d="M3414 2835 c0 -55 1 -76 3 -47 2 29 2 74 0 100 -2 26 -3 2 -3 -53z"/>
<path d="M4296 2913 c-6 -14 -5 -15 5 -6 7 7 10 15 7 18 -3 3 -9 -2 -12 -12z"/>
<path d="M4020 2895 c0 -14 5 -25 10 -25 6 0 10 11 10 25 0 14 -4 25 -10 25
-5 0 -10 -11 -10 -25z"/>
<path d="M7801 2890 c0 -33 1 -34 10 -11 6 16 6 28 -1 35 -7 7 -10 -1 -9 -24z"/>
<path d="M8640 2880 c-6 -23 -9 -44 -6 -47 2 -3 10 14 16 37 6 23 9 44 6 47
-2 3 -10 -14 -16 -37z"/>
<path d="M910 2895 c0 -5 5 -17 10 -25 5 -8 10 -10 10 -5 0 6 -5 17 -10 25 -5
8 -10 11 -10 5z"/>
<path d="M997 2879 c4 -13 8 -18 11 -10 2 7 -1 18 -6 23 -8 8 -9 4 -5 -13z"/>
<path d="M2366 2884 c-14 -38 1 -104 25 -104 6 0 5 8 -2 21 -6 12 -9 39 -6 60
5 39 -5 53 -17 23z"/>
<path d="M7121 2870 c-2 -51 -11 -80 -27 -80 -10 0 -14 -13 -14 -41 0 -51 14
-43 30 18 7 27 17 53 22 60 5 7 5 25 -1 45 l-9 33 -1 -35z"/>
<path d="M8182 2870 c-12 -32 -11 -34 4 -19 9 9 14 25 12 35 -3 14 -7 10 -16
-16z"/>
<path d="M6113 2855 c0 -22 2 -30 4 -17 2 12 2 30 0 40 -3 9 -5 -1 -4 -23z"/>
<path d="M8222 2870 c0 -14 2 -19 5 -12 2 6 2 18 0 25 -3 6 -5 1 -5 -13z"/>
<path d="M1040 2863 c0 -8 5 -13 12 -11 18 6 21 25 3 25 -8 0 -15 -7 -15 -14z"/>
<path d="M3711 2858 c-7 -11 -15 -46 -18 -77 -11 -111 -5 -136 28 -126 19 6
21 4 14 -11 -29 -71 -45 -122 -44 -144 0 -15 7 -1 18 35 19 64 53 152 77 197
10 18 12 34 6 44 -6 12 -11 5 -21 -28 -14 -48 -37 -78 -58 -78 -12 0 -13 10
-8 53 4 28 8 68 9 88 1 20 8 44 15 53 7 9 9 16 5 16 -5 0 -15 -10 -23 -22z"/>
<path d="M7428 2823 c5 -76 10 -83 11 -15 0 34 -2 62 -7 62 -4 0 -6 -21 -4
-47z"/>
<path d="M8281 2825 c-14 -29 -21 -64 -21 -102 0 -67 6 -67 13 2 3 28 12 70
21 95 20 59 14 62 -13 5z"/>
<path d="M7238 2852 c-13 -5 -15 -11 -8 -22 9 -13 11 -13 20 0 9 14 13 31 8
29 -2 0 -11 -3 -20 -7z"/>
<path d="M1410 2846 c0 -2 14 -30 30 -61 17 -31 30 -65 30 -75 0 -13 6 -16 25
-12 l25 4 -20 25 c-11 14 -20 38 -20 54 0 18 -6 30 -19 34 -11 3 -22 12 -25
20 -5 13 -26 22 -26 11z"/>
<path d="M7646 2832 c-7 -12 -46 -134 -46 -145 0 -5 4 -6 9 -2 5 3 12 -5 14
-17 3 -15 5 -11 6 12 0 20 8 62 16 94 14 55 15 80 1 58z"/>
<path d="M8210 2828 c0 -17 20 -47 20 -31 0 6 3 18 6 27 4 11 1 16 -10 16 -9
0 -16 -6 -16 -12z"/>
<path d="M3120 2814 c0 -8 38 -166 46 -193 3 -8 7 -12 9 -9 5 5 -42 198 -50
206 -3 3 -5 1 -5 -4z"/>
<path d="M4030 2740 c0 -44 -3 -80 -6 -80 -3 0 -14 10 -25 23 -23 27 -25 6 -3
-28 14 -22 15 -28 2 -47 -20 -31 -31 -78 -18 -78 5 0 12 11 16 25 3 14 13 29
21 34 12 6 17 36 22 120 3 61 3 111 -1 111 -5 0 -8 -36 -8 -80z"/>
<path d="M8183 2762 c0 -32 -3 -68 -8 -81 -7 -24 -7 -24 13 -5 11 10 23 37 26
59 5 31 4 35 -4 20 -8 -16 -10 -13 -7 17 2 21 -2 39 -8 42 -8 3 -12 -15 -12
-52z"/>
<path d="M8593 2753 c-13 -31 -21 -59 -18 -61 2 -3 9 8 15 24 9 25 15 39 38
87 2 4 0 7 -5 7 -4 0 -18 -26 -30 -57z"/>
<path d="M6111 2784 c0 -11 3 -14 6 -6 3 7 2 16 -1 19 -3 4 -6 -2 -5 -13z"/>
<path d="M8828 2732 c8 -87 5 -189 -8 -210 -9 -16 -9 -16 -10 1 0 24 -16 21
-25 -5 -7 -21 -8 -20 -12 10 -5 38 4 54 17 32 8 -13 10 -12 10 3 0 13 -6 18
-22 15 -30 -4 -37 -57 -12 -82 43 -43 80 18 85 142 2 45 0 82 -5 82 -4 0 -6
16 -4 35 2 21 -1 36 -8 39 -10 4 -11 -11 -6 -62z"/>
<path d="M3835 2768 c-17 -60 -51 -135 -72 -158 -23 -25 -30 -50 -14 -50 17 0
110 214 98 226 -3 3 -8 -5 -12 -18z"/>
<path d="M4071 2735 c-12 -31 -21 -63 -21 -73 0 -9 11 15 24 53 29 84 27 99
-3 20z"/>
<path d="M4137 2771 c-4 -17 -3 -21 5 -13 5 5 8 16 6 23 -3 8 -7 3 -11 -10z"/>
<path d="M1629 2718 c-7 -29 -25 -84 -41 -122 -16 -39 -27 -75 -24 -80 2 -6 7
-2 11 9 3 11 17 47 31 80 19 48 53 151 54 163 0 1 -4 2 -9 2 -5 0 -15 -24 -22
-52z"/>
<path d="M1350 2751 c0 -5 7 -14 16 -22 9 -7 28 -38 44 -69 28 -55 55 -88 66
-78 3 3 -1 12 -8 19 -7 8 -24 34 -37 59 -13 25 -33 57 -43 73 -19 26 -38 36
-38 18z"/>
<path d="M2991 2705 c-2 -33 -2 -90 -1 -127 1 -49 -4 -79 -19 -113 -14 -32
-16 -44 -7 -36 8 7 18 26 21 42 7 32 14 35 34 17 10 -11 10 -8 0 15 -9 20 -10
39 -2 72 7 31 7 43 -1 42 -7 -1 -13 27 -17 73 l-5 75 -3 -60z"/>
<path d="M4304 2744 c9 -8 16 -23 17 -32 0 -10 3 -12 5 -5 7 15 -13 53 -27 53
-6 0 -3 -7 5 -16z"/>
<path d="M6249 2732 c-3 -20 -2 -29 4 -23 5 5 7 19 5 32 -3 20 -5 19 -9 -9z"/>
<path d="M8793 2748 c-6 -7 -13 -24 -15 -38 -3 -14 -9 -34 -13 -45 -7 -20 -6
-20 9 -1 9 11 16 29 16 40 0 11 7 28 17 38 9 10 11 18 6 18 -6 0 -15 -6 -20
-12z"/>
<path d="M1920 2715 c0 -19 5 -35 10 -35 6 0 10 16 10 35 0 19 -4 35 -10 35
-5 0 -10 -16 -10 -35z"/>
<path d="M6160 2718 c0 -9 5 -20 10 -23 13 -8 13 5 0 25 -8 13 -10 13 -10 -2z"/>
<path d="M7446 2660 c2 -41 7 -121 11 -177 4 -66 2 -103 -4 -103 -11 0 -33 43
-33 64 0 43 -94 274 -112 275 -11 1 -10 -26 4 -70 12 -40 31 -56 20 -17 -3 14
-1 19 6 14 6 -4 26 -53 43 -109 46 -151 65 -201 77 -205 16 -5 14 161 -3 298
-12 89 -13 93 -9 30z"/>
<path d="M3062 2700 c0 -14 2 -19 5 -12 2 6 2 18 0 25 -3 6 -5 1 -5 -13z"/>
<path d="M4106 2705 c-9 -26 -7 -32 5 -12 6 10 9 21 6 23 -2 3 -7 -2 -11 -11z"/>
<path d="M8145 2710 c-3 -5 -1 -10 4 -10 6 0 11 5 11 10 0 6 -2 10 -4 10 -3 0
-8 -4 -11 -10z"/>
<path d="M7491 2693 c0 -12 8 -93 19 -180 12 -87 21 -180 22 -208 0 -36 3 -44
8 -29 4 11 2 67 -5 125 -8 57 -16 131 -20 164 -9 83 -22 155 -24 128z"/>
<path d="M4135 2674 c-9 -14 -15 -27 -13 -30 2 -2 12 10 22 26 21 37 15 40 -9
4z"/>
<path d="M6866 2685 c-9 -26 -7 -32 5 -12 6 10 9 21 6 23 -2 3 -7 -2 -11 -11z"/>
<path d="M1087 2679 c7 -7 15 -10 18 -7 3 3 -2 9 -12 12 -14 6 -15 5 -6 -5z"/>
<path d="M1720 2671 c0 -11 5 -23 10 -26 6 -3 10 3 10 14 0 11 -4 23 -10 26
-5 3 -10 -3 -10 -14z"/>
<path d="M3935 2652 c-9 -53 -24 -76 -25 -37 -1 29 -2 29 -11 6 -10 -26 -2
-91 11 -91 5 0 15 21 23 48 23 71 30 112 19 112 -6 0 -13 -17 -17 -38z"/>
<path d="M1386 2665 c12 -34 17 -95 7 -95 -6 0 -15 18 -22 41 -7 23 -14 39
-17 36 -3 -2 7 -37 22 -76 22 -59 30 -72 45 -68 12 3 20 -2 25 -17 9 -28 24
-47 35 -41 4 3 1 14 -7 23 -8 10 -27 54 -42 97 -16 44 -34 89 -41 100 l-13 20
8 -20z m40 -132 c-12 -12 -29 15 -21 34 7 17 8 16 18 -5 5 -12 7 -25 3 -29z"/>
<path d="M1820 2675 c0 -4 7 -19 14 -33 8 -15 24 -49 36 -76 30 -73 35 -49 5
27 -23 57 -55 105 -55 82z"/>
<path d="M980 2663 c0 -19 18 -25 37 -13 15 9 15 11 2 7 -9 -3 -22 0 -28 6 -8
8 -11 8 -11 0z"/>
<path d="M7114 2655 c11 -8 24 -15 28 -15 8 0 2 -171 -8 -218 -3 -13 0 -30 7
-38 6 -8 9 -25 7 -39 -3 -14 -1 -25 3 -25 5 0 9 7 9 15 0 9 6 18 14 21 18 7
30 35 13 31 -7 -1 -16 -6 -20 -12 -5 -5 -6 54 -4 133 4 132 3 142 -14 142 -10
0 -21 5 -24 10 -3 6 -12 10 -18 10 -7 0 -3 -7 7 -15z"/>
<path d="M7582 2618 c-7 -28 -11 -53 -8 -55 2 -2 9 19 16 47 7 28 10 53 8 55
-3 3 -10 -18 -16 -47z"/>
<path d="M8191 2654 c0 -11 3 -14 6 -6 3 7 2 16 -1 19 -3 4 -6 -2 -5 -13z"/>
<path d="M1637 2568 c-52 -128 -51 -126 -28 -98 12 14 24 36 27 50 3 14 15 47
25 73 11 27 19 53 17 58 -2 6 -20 -32 -41 -83z"/>
<path d="M2486 2638 c-3 -13 -6 -40 -6 -60 0 -20 -4 -40 -10 -43 -5 -3 -10 -1
-10 4 0 6 -4 11 -10 11 -16 0 -11 -20 7 -27 9 -4 19 -1 21 5 2 7 11 12 19 12
12 0 14 7 8 33 -4 17 -7 44 -7 60 1 33 -4 35 -12 5z"/>
<path d="M4149 2643 c-13 -16 -12 -17 4 -4 9 7 17 15 17 17 0 8 -8 3 -21 -13z"/>
<path d="M8251 2644 c0 -11 3 -14 6 -6 3 7 2 16 -1 19 -3 4 -6 -2 -5 -13z"/>
<path d="M9010 2639 c0 -15 -2 -42 -5 -60 -5 -28 -3 -26 9 10 10 29 12 50 6
60 -7 13 -9 10 -10 -10z"/>
<path d="M1250 2636 c0 -4 8 -19 19 -34 10 -15 26 -40 35 -55 25 -41 31 -26 8
20 -19 36 -62 84 -62 69z"/>
<path d="M6242 2620 c0 -14 2 -19 5 -12 2 6 2 18 0 25 -3 6 -5 1 -5 -13z"/>
<path d="M6522 2558 c-5 -203 -4 -218 19 -218 18 0 22 31 5 43 -14 11 -15 25
-8 116 5 57 7 112 4 123 -10 39 -17 15 -20 -64z"/>
<path d="M6862 2615 c0 -16 2 -22 5 -12 2 9 2 23 0 30 -3 6 -5 -1 -5 -18z"/>
<path d="M7606 2599 c-4 -23 -5 -44 -2 -46 2 -2 7 14 11 37 4 23 5 43 2 46 -2
3 -7 -14 -11 -37z"/>
<path d="M8525 2629 c-4 -6 -5 -12 -2 -15 2 -3 7 2 10 11 7 17 1 20 -8 4z"/>
<path d="M9126 2624 c-9 -22 3 -32 14 -14 12 19 12 30 1 30 -5 0 -12 -7 -15
-16z"/>
<path d="M1527 2588 c8 -57 13 -61 13 -10 0 22 -4 43 -9 46 -5 4 -7 -12 -4
-36z"/>
<path d="M3080 2628 c0 -17 21 -58 29 -58 5 0 14 15 20 33 10 30 10 31 -5 12
-15 -20 -15 -20 -30 -1 -8 11 -14 17 -14 14z"/>
<path d="M8182 2610 c0 -14 2 -19 5 -12 2 6 2 18 0 25 -3 6 -5 1 -5 -13z"/>
<path d="M9157 2573 c-10 -31 -27 -69 -39 -85 -22 -32 -20 -48 4 -21 23 28 70
145 61 154 -4 4 -16 -17 -26 -48z"/>
<path d="M1666 2548 c-27 -76 -31 -98 -18 -98 12 0 32 38 22 42 -5 2 0 29 11
62 29 85 17 80 -15 -6z"/>
<path d="M3392 2608 c-15 -15 -15 -55 0 -64 8 -5 9 0 5 16 -3 13 -1 30 5 37
14 17 5 26 -10 11z"/>
<path d="M3572 2570 c-1 -46 1 -52 10 -33 8 16 8 32 0 55 -9 32 -10 31 -10
-22z"/>
<path d="M4086 2577 c-11 -23 -22 -45 -24 -49 -2 -5 0 -8 5 -8 10 1 46 77 41
90 -2 5 -12 -10 -22 -33z"/>
<path d="M4127 2607 c-11 -29 -9 -43 4 -30 6 6 9 19 7 29 -3 18 -4 18 -11 1z"/>
<path d="M4475 2605 c-5 -11 -10 -24 -13 -30 -3 -5 3 -3 13 7 9 9 15 22 12 30
-3 9 -7 7 -12 -7z"/>
<path d="M8901 2613 c0 -4 4 -17 9 -28 8 -19 9 -19 9 2 1 12 -3 25 -9 28 -5 3
-10 3 -9 -2z"/>
<path d="M5918 2603 c6 -2 18 -2 25 0 6 3 1 5 -13 5 -14 0 -19 -2 -12 -5z"/>
<path d="M8143 2598 c-6 -7 -13 -26 -17 -42 -6 -25 -5 -28 7 -17 15 12 32 60
24 67 -2 3 -9 -1 -14 -8z"/>
<path d="M8241 2594 c0 -11 3 -14 6 -6 3 7 2 16 -1 19 -3 4 -6 -2 -5 -13z"/>
<path d="M8647 2603 c-3 -5 -5 -42 -6 -83 -1 -41 -6 -77 -11 -78 -6 -2 -7 -8
-4 -13 13 -21 34 15 34 57 0 24 4 44 10 44 8 0 8 23 1 73 0 4 -5 7 -10 7 -6 0
-12 -3 -14 -7z"/>
<path d="M4187 2583 c-11 -12 -17 -13 -17 -5 0 7 -4 11 -10 7 -13 -8 -1 -35
14 -29 10 4 41 44 33 44 -1 0 -10 -8 -20 -17z"/>
<path d="M6380 2591 c0 -6 5 -13 10 -16 6 -3 10 1 10 9 0 9 -4 16 -10 16 -5 0
-10 -4 -10 -9z"/>
<path d="M7331 2590 c0 -8 4 -24 9 -35 l9 -20 0 20 c0 11 -4 27 -9 35 -9 13
-10 13 -9 0z"/>
<path d="M1240 2547 c8 -35 -3 -77 -20 -77 -5 0 -26 23 -46 50 -38 52 -60 62
-29 13 47 -75 89 -94 101 -48 3 14 14 25 23 25 14 1 14 2 -1 11 -10 5 -18 19
-18 29 0 10 -4 21 -9 24 -5 3 -6 -8 -1 -27z"/>
<path d="M2281 2562 c-14 -26 -14 -62 -1 -62 6 0 10 7 10 16 0 10 6 14 15 11
24 -10 29 14 7 35 l-20 20 -11 -20z"/>
<path d="M6862 2560 c0 -14 2 -19 5 -12 2 6 2 18 0 25 -3 6 -5 1 -5 -13z"/>
<path d="M9095 2532 c-28 -54 -29 -55 -18 -49 13 8 46 77 41 83 -3 2 -13 -13
-23 -34z"/>
<path d="M6226 2544 c-4 -9 -4 -19 -1 -22 2 -3 7 3 11 12 4 9 4 19 1 22 -2 3
-7 -3 -11 -12z"/>
<path d="M8562 2530 c0 -19 2 -27 5 -17 2 9 2 25 0 35 -3 9 -5 1 -5 -18z"/>
<path d="M1492 2530 c0 -14 2 -19 5 -12 2 6 2 18 0 25 -3 6 -5 1 -5 -13z"/>
<path d="M1721 2504 c-7 -26 -9 -49 -6 -52 9 -9 24 19 19 33 -3 6 0 24 5 38 6
15 7 27 2 27 -5 0 -14 -21 -20 -46z"/>
<path d="M2010 2538 c0 -17 18 -44 24 -37 8 7 -5 49 -15 49 -5 0 -9 -6 -9 -12z"/>
<path d="M2240 2524 c-13 -32 -13 -51 -1 -38 10 11 24 64 16 64 -3 0 -10 -12
-15 -26z"/>
<path d="M4242 2520 c1 -24 4 -28 15 -18 10 8 11 13 2 18 -6 4 -8 13 -5 19 4
6 3 11 -3 11 -5 0 -9 -13 -9 -30z"/>
<path d="M8212 2538 c-14 -14 -16 -28 -3 -28 9 0 24 30 18 36 -2 2 -9 -2 -15
-8z"/>
<path d="M8901 2509 c-7 -22 -11 -43 -8 -45 2 -2 9 14 16 37 7 22 11 43 8 45
-2 2 -9 -14 -16 -37z"/>
<path d="M4123 2525 c-10 -10 -9 -16 2 -25 16 -13 25 -2 16 21 -5 14 -8 15
-18 4z"/>
<path d="M7591 2520 c-1 -14 -4 -45 -7 -70 -3 -38 -2 -41 6 -20 6 13 9 45 7
70 -2 25 -4 34 -6 20z"/>
<path d="M1513 2499 c-12 -30 -11 -32 3 -17 9 8 14 23 12 33 -2 12 -7 7 -15
-16z"/>
<path d="M3300 2521 c0 -6 5 -13 10 -16 6 -3 10 1 10 9 0 9 -4 16 -10 16 -5 0
-10 -4 -10 -9z"/>
<path d="M6710 2501 c0 -17 5 -33 12 -37 6 -4 9 -3 6 2 -3 5 -2 18 2 29 7 17
10 15 25 -20 10 -22 17 -50 17 -62 0 -13 5 -20 10 -17 5 3 6 24 3 45 -4 24 -3
39 3 39 11 0 16 -12 27 -68 6 -31 8 -32 24 -18 10 9 25 16 34 16 13 0 17 9 17
39 0 66 -17 58 -44 -22 -9 -27 -23 -13 -31 30 -9 48 -23 75 -36 68 -5 -4 -7
-10 -4 -15 3 -5 1 -11 -4 -15 -6 -3 -15 4 -21 15 -16 31 -40 25 -40 -9z"/>
<path d="M8141 2489 c-7 -22 -11 -43 -8 -45 2 -2 9 14 16 37 7 22 11 43 8 45
-2 2 -9 -14 -16 -37z"/>
<path d="M1040 2515 c0 -13 30 -62 44 -74 22 -19 20 -4 -4 26 -11 14 -20 32
-20 39 0 8 -4 14 -10 14 -5 0 -10 -2 -10 -5z"/>
<path d="M1805 2508 c-10 -26 -2 -43 12 -26 7 8 8 19 3 28 -8 12 -10 12 -15
-2z"/>
<path d="M6393 2505 c-17 -18 -16 -22 2 -22 8 0 15 9 15 19 0 21 -1 22 -17 3z"/>
<path d="M7352 2500 c0 -14 2 -19 5 -12 2 6 2 18 0 25 -3 6 -5 1 -5 -13z"/>
<path d="M590 2500 c0 -16 49 -90 60 -90 14 0 12 16 -4 29 -8 6 -19 25 -26 41
-12 29 -30 41 -30 20z"/>
<path d="M720 2485 c0 -14 4 -25 9 -25 4 0 6 11 3 25 -2 14 -6 25 -8 25 -2 0
-4 -11 -4 -25z"/>
<path d="M1930 2494 c0 -7 4 -15 10 -19 5 -3 7 -12 3 -20 -9 -25 14 -17 32 11
19 30 17 34 -19 38 -16 2 -26 -2 -26 -10z"/>
<path d="M6972 2498 c-7 -7 -12 -17 -12 -22 0 -6 5 -3 11 7 8 14 14 16 25 6
11 -9 14 -8 14 5 0 19 -21 21 -38 4z"/>
<path d="M7210 2475 c0 -19 2 -35 4 -35 2 0 6 16 8 35 2 19 0 35 -4 35 -4 0
-8 -16 -8 -35z"/>
<path d="M8978 2490 c-4 -14 -8 -34 -8 -45 1 -19 1 -19 11 -2 6 10 9 30 7 45
l-3 27 -7 -25z"/>
<path d="M778 2480 c-7 -24 -3 -38 8 -28 3 4 4 17 2 30 l-3 23 -7 -25z"/>
<path d="M8550 2473 c0 -10 -3 -36 -6 -58 -4 -32 -3 -37 6 -22 15 23 22 97 9
97 -5 0 -9 -8 -9 -17z"/>
<path d="M2440 2460 c-5 -55 13 -89 36 -69 8 6 14 19 14 27 0 13 -3 12 -14 -4
-16 -21 -13 -25 -29 51 -4 17 -5 16 -7 -5z"/>
<path d="M6060 2463 c0 -5 5 -15 10 -23 8 -12 10 -11 10 8 0 12 -4 22 -10 22
-5 0 -10 -3 -10 -7z"/>
<path d="M6991 2455 c-1 -11 -4 -31 -8 -45 l-6 -25 21 25 21 25 1 -29 c0 -22
3 -27 11 -19 8 8 8 17 0 30 -7 14 -7 23 1 31 7 7 8 15 4 19 -4 4 -12 -1 -18
-12 -11 -19 -11 -19 -19 0 -7 20 -8 20 -8 0z"/>
<path d="M7366 2445 c3 -16 11 -56 18 -88 7 -32 14 -55 17 -52 7 6 -15 111
-30 145 -11 24 -11 24 -5 -5z"/>
<path d="M3285 2451 c-3 -5 -1 -12 4 -15 5 -3 11 1 15 9 6 16 -9 21 -19 6z"/>
<path d="M8177 2453 c-2 -5 0 -19 4 -33 9 -25 9 -25 5 2 -2 15 2 29 8 32 7 3
7 5 -1 5 -6 1 -14 -2 -16 -6z"/>
<path d="M8366 2452 c-10 -17 -26 -62 -21 -62 7 0 37 62 32 67 -3 2 -8 0 -11
-5z"/>
<path d="M2726 2428 c-8 -33 -7 -58 2 -58 5 0 9 14 9 31 0 17 6 35 14 40 12 7
11 9 -2 9 -9 0 -19 -10 -23 -22z"/>
<path d="M6945 2439 c-4 -6 -5 -12 -2 -15 2 -3 7 2 10 11 7 17 1 20 -8 4z"/>
<path d="M6716 2424 c-9 -24 -7 -54 4 -54 6 0 10 16 10 35 0 38 -4 44 -14 19z"/>
<path d="M7046 2425 c-3 -9 0 -15 9 -15 16 0 20 16 6 24 -5 3 -11 -1 -15 -9z"/>
<path d="M9050 2419 c0 -15 7 -32 15 -39 19 -16 19 0 0 36 l-15 29 0 -26z"/>
<path d="M2517 2419 c7 -7 15 -10 18 -7 3 3 -2 9 -12 12 -14 6 -15 5 -6 -5z"/>
<path d="M8710 2412 c-20 -9 -49 -27 -67 -39 -37 -27 -43 -28 -43 -8 0 9 -6
12 -17 8 -11 -4 -12 -8 -5 -11 7 -2 12 -13 12 -24 0 -20 1 -20 18 -5 10 10 24
17 30 17 6 0 15 6 19 14 9 14 65 46 83 46 5 0 10 -11 10 -25 0 -29 9 -31 36
-9 16 13 17 15 1 10 -14 -4 -16 -1 -11 19 7 30 -12 32 -66 7z"/>
<path d="M8944 2405 c4 -16 12 -34 18 -40 7 -7 8 -1 4 20 -4 17 -12 35 -18 40
-7 7 -8 1 -4 -20z"/>
<path d="M1578 2413 c6 -2 18 -2 25 0 6 3 1 5 -13 5 -14 0 -19 -2 -12 -5z"/>
<path d="M7283 2403 c3 -10 8 -28 12 -39 3 -12 15 -24 25 -27 24 -6 26 6 5 23
-9 7 -14 19 -11 26 3 8 -4 19 -15 25 -18 9 -20 8 -16 -8z"/>
<path d="M1510 2401 c0 -19 20 -22 36 -7 14 15 13 16 -10 16 -14 0 -26 -4 -26
-9z"/>
<path d="M2750 2395 c0 -20 28 -31 43 -16 8 8 7 11 -6 11 -9 0 -17 5 -17 10 0
6 -4 10 -10 10 -5 0 -10 -7 -10 -15z"/>
<path d="M6926 2395 c-9 -26 -7 -32 5 -12 6 10 9 21 6 23 -2 3 -7 -2 -11 -11z"/>
<path d="M8819 2386 c6 -8 10 -19 9 -26 -2 -7 3 -15 10 -17 8 -3 12 6 12 26 0
25 -4 31 -21 31 -17 0 -19 -3 -10 -14z"/>
<path d="M2630 2373 c0 -6 -3 -18 -6 -27 -3 -9 -2 -16 4 -16 15 0 21 25 11 41
-5 9 -9 9 -9 2z"/>
<path d="M6871 2364 c0 -11 3 -14 6 -6 3 7 2 16 -1 19 -3 4 -6 -2 -5 -13z"/>
<path d="M8540 2345 c-16 -19 -6 -45 17 -45 14 0 15 2 4 9 -8 5 -12 18 -8 30
6 25 4 26 -13 6z"/>
<path d="M3047 1112 c-22 -24 -21 -55 1 -75 22 -20 63 -22 80 -5 20 20 14 65
-10 82 -29 21 -51 20 -71 -2z m54 -23 c21 -21 22 -40 2 -46 -15 -5 -53 33 -53
52 0 21 26 19 51 -6z"/>
<path d="M5315 1108 c-50 -29 -58 -76 -22 -129 25 -36 25 -36 125 -24 l62 8 1
-74 c1 -41 0 -152 -1 -247 -1 -144 1 -177 14 -197 22 -34 68 -33 102 0 24 24
25 30 23 141 -1 64 -7 160 -14 213 -6 53 -10 113 -7 134 l4 39 45 -7 c28 -4
56 -2 75 6 28 12 30 15 24 53 -11 68 -23 72 -208 79 -90 3 -172 8 -183 11 -11
3 -29 1 -40 -6z m225 -24 c170 -7 190 -14 190 -66 0 -28 0 -28 -64 -28 -82 0
-92 -11 -89 -99 2 -36 5 -77 8 -91 3 -14 8 -90 12 -170 5 -130 4 -148 -11
-163 -10 -9 -23 -17 -30 -17 -35 0 -38 27 -40 279 -1 137 -5 253 -9 257 -4 4
-39 3 -77 -2 -79 -11 -93 -6 -116 37 -25 50 -2 84 51 73 11 -2 90 -7 175 -10z"/>
<path d="M5793 1099 c-18 -12 -33 -23 -33 -26 0 -3 9 -17 21 -31 20 -26 21
-34 15 -187 -4 -88 -9 -200 -11 -250 -3 -50 -1 -103 5 -121 20 -59 73 -73 109
-30 18 22 25 228 9 279 -9 28 -8 40 2 52 19 22 83 19 105 -5 19 -22 21 -51 9
-208 -5 -67 -3 -87 10 -107 20 -30 58 -33 86 -5 17 17 19 30 15 112 -6 131
-22 243 -40 277 -21 41 -89 66 -139 52 -57 -15 -66 -8 -67 63 -1 33 -2 66 -4
71 -1 6 -3 20 -3 32 -2 24 -27 53 -45 53 -7 0 -27 -10 -44 -21z m67 -25 c6
-14 10 -61 10 -105 0 -92 9 -101 89 -88 91 14 133 -29 146 -150 22 -209 15
-272 -27 -256 -24 10 -32 64 -23 159 11 113 10 131 -9 161 -14 22 -24 25 -72
25 -81 0 -97 -12 -90 -63 3 -23 8 -80 11 -127 9 -144 -10 -196 -56 -154 -21
19 -21 24 -14 270 5 175 3 263 -5 292 -6 24 -8 47 -5 52 11 19 35 10 45 -16z"/>
<path d="M7453 1105 c-22 -15 -22 -45 0 -72 11 -15 55 -17 76 -4 15 10 18 58
5 70 -19 17 -61 20 -81 6z m24 -37 c-3 -8 -6 -5 -6 6 -1 11 2 17 5 13 3 -3 4
-12 1 -19z m43 2 c0 -11 -7 -20 -15 -20 -8 0 -15 9 -15 20 0 11 7 20 15 20 8
0 15 -9 15 -20z"/>
<path d="M2728 1103 c-21 -2 -38 -8 -38 -12 0 -5 54 -8 119 -7 75 1 124 -3
131 -10 16 -16 37 -101 45 -182 6 -63 5 -71 -17 -96 -19 -22 -33 -27 -87 -30
-63 -4 -80 -13 -81 -46 -1 -8 -1 -67 0 -131 1 -126 -8 -153 -51 -142 -23 6
-43 48 -34 72 8 20 7 332 -1 420 -6 76 -24 133 -43 139 -11 4 -12 -1 -7 -19
22 -74 27 -118 29 -268 1 -91 -2 -207 -7 -257 l-9 -92 26 -17 c18 -11 36 -15
57 -10 52 12 60 34 60 182 0 73 3 133 8 134 4 0 33 1 64 2 67 2 104 30 114 85
8 43 -13 197 -32 234 -27 53 -94 67 -246 51z"/>
<path d="M6743 1095 c-47 -20 -89 -70 -102 -119 -24 -95 20 -186 113 -237 53
-29 94 -66 96 -89 6 -40 -3 -64 -30 -92 -28 -28 -35 -30 -78 -25 -33 3 -51 12
-62 27 -8 12 -26 35 -40 51 -23 28 -27 29 -45 15 -28 -21 -28 -115 0 -146 31
-34 104 -63 161 -63 93 0 143 29 193 113 53 89 3 237 -99 290 -45 24 -86 63
-105 100 -12 24 -13 35 -2 67 24 76 117 46 117 -38 0 -50 88 -46 111 5 10 21
7 32 -15 71 -15 25 -42 55 -59 66 -38 22 -107 25 -154 4z m142 -15 c57 -37 91
-140 46 -140 -26 0 -38 13 -46 47 -14 66 -93 85 -140 36 -23 -24 -26 -35 -22
-76 5 -57 44 -104 114 -138 53 -25 98 -97 108 -171 5 -38 2 -57 -14 -91 -36
-75 -61 -91 -146 -95 -66 -4 -80 -1 -120 22 -52 31 -67 55 -63 98 4 44 21 45
41 3 19 -40 65 -65 120 -65 63 0 117 64 117 138 0 45 -34 82 -116 127 -124 69
-141 249 -27 297 79 34 107 35 148 8z"/>
<path d="M1805 1077 c-16 -6 -32 -12 -34 -14 -2 -1 4 -15 14 -30 17 -25 18
-47 12 -283 -4 -140 -3 -260 1 -266 15 -23 50 -34 76 -24 34 12 45 58 48 200
l3 115 40 0 40 0 -4 -128 c-4 -143 5 -181 46 -192 57 -14 81 39 78 175 -2 58
-3 133 -4 167 -1 83 -12 93 -106 93 -89 0 -94 6 -99 107 -4 90 -31 109 -111
80z m82 -19 c5 -7 10 -46 11 -87 3 -100 11 -109 104 -105 42 2 77 -1 85 -7 10
-9 13 -51 13 -173 0 -169 -8 -204 -42 -191 -21 8 -28 61 -22 169 8 117 -2 146
-50 146 -19 0 -47 -5 -61 -12 -25 -11 -25 -13 -25 -122 0 -103 -10 -179 -24
-193 -3 -4 -14 1 -25 11 -17 16 -18 31 -14 244 3 178 1 237 -10 274 -14 45
-14 47 7 51 38 8 43 7 53 -5z"/>
<path d="M1507 1072 c-138 -2 -189 -6 -192 -15 -10 -35 -13 -94 -5 -107 7 -11
28 -15 77 -15 l68 0 2 -225 c2 -124 5 -235 8 -247 7 -30 39 -46 76 -38 52 12
53 13 57 351 l2 131 63 14 62 14 3 56 c4 84 3 85 -221 81z m204 -64 c8 -50 0
-59 -57 -65 -27 -3 -55 -10 -61 -16 -10 -7 -13 -64 -14 -216 -1 -113 -4 -219
-8 -236 -7 -34 -28 -42 -55 -22 -17 12 -18 33 -20 270 -2 239 -6 288 -24 261
-4 -6 -33 -14 -65 -17 -55 -5 -58 -5 -68 20 -5 14 -7 34 -4 44 6 17 19 18 188
16 l182 -2 6 -37z"/>
<path d="M2796 1025 c-29 -22 -19 -188 13 -205 22 -11 89 3 109 24 37 37 3
155 -50 177 -45 18 -51 19 -72 4z m78 -28 c23 -17 47 -106 35 -128 -10 -19
-50 -32 -72 -23 -16 6 -35 134 -22 153 9 15 37 14 59 -2z"/>
<path d="M8277 950 c-45 -9 -93 -55 -111 -107 -37 -105 -29 -267 15 -340 30
-48 77 -73 138 -73 87 0 131 36 144 118 4 25 1 35 -16 47 -33 23 -60 18 -86
-15 -28 -36 -63 -39 -85 -8 -19 27 -21 74 -3 80 6 3 44 4 83 2 68 -2 72 -1 83
22 27 60 4 233 -34 258 -25 17 -87 24 -128 16z m123 -55 c23 -23 25 -32 25
-118 l0 -92 -74 -3 c-96 -4 -125 -22 -117 -70 13 -80 87 -108 141 -52 33 35
38 36 59 14 20 -20 12 -60 -18 -92 -59 -61 -164 -23 -214 78 -24 49 -26 65
-25 145 2 75 7 98 30 145 16 30 39 61 53 68 37 19 109 7 140 -23z"/>
<path d="M8282 845 c-38 -32 -52 -83 -28 -101 18 -13 113 -13 134 0 18 11 6
97 -15 114 -26 19 -59 14 -91 -13z m84 -19 c8 -14 14 -35 12 -47 -2 -18 -10
-22 -46 -23 -49 -3 -67 12 -57 46 17 54 63 66 91 24z"/>
<path d="M3090 941 c0 -5 13 -19 30 -31 37 -26 41 -47 43 -231 2 -124 5 -150
20 -166 9 -11 17 -25 17 -31 0 -18 -56 -15 -74 4 -17 16 -18 33 -17 244 0 129
-11 195 -37 205 -24 9 -26 -2 -7 -41 15 -32 16 -57 10 -208 -7 -169 -6 -171
17 -206 28 -41 47 -47 100 -29 41 13 50 39 23 69 -11 12 -16 55 -20 178 -3 89
-10 174 -15 187 -13 34 -90 82 -90 56z"/>
<path d="M3759 939 c-15 -6 -40 -28 -55 -51 -28 -40 -29 -46 -32 -182 -4 -171
6 -212 58 -239 44 -23 121 -18 158 10 50 37 76 118 52 164 -16 29 -33 23 -79
-26 -32 -34 -50 -45 -72 -45 -16 0 -31 6 -33 13 -25 81 -11 100 77 102 66 2
116 22 118 48 0 6 2 23 4 37 7 49 -23 114 -67 148 -43 33 -79 39 -129 21z
m106 -33 c33 -18 43 -32 59 -77 22 -64 12 -109 -25 -109 -12 0 -50 -5 -84 -11
-51 -9 -65 -15 -74 -35 -15 -35 -14 -76 5 -102 27 -39 75 -25 131 37 27 30 34
34 43 21 26 -39 -7 -122 -56 -140 -36 -14 -81 -12 -114 5 -42 22 -54 70 -55
215 0 108 3 130 21 160 36 62 83 74 149 36z"/>
<path d="M3773 865 c-31 -22 -42 -84 -18 -102 26 -18 109 -17 125 2 16 20 5
61 -25 91 -28 28 -52 30 -82 9z m72 -30 c40 -39 33 -55 -25 -55 -57 0 -71 16
-50 56 17 31 44 31 75 -1z"/>
<path d="M7030 935 c-13 -15 -14 -15 34 -29 29 -9 37 -81 31 -263 -5 -172 -5
-177 17 -200 42 -44 97 -18 118 56 13 48 13 75 -6 219 -9 68 -14 125 -12 127
1 2 23 6 49 10 42 6 46 5 57 -20 9 -20 11 -73 7 -193 -7 -179 0 -214 41 -220
43 -6 56 28 58 150 1 62 -2 157 -5 211 -6 88 -9 101 -33 126 -27 28 -27 28
-169 29 -78 1 -149 4 -158 7 -9 3 -22 -1 -29 -10z m242 -14 c60 -1 69 -4 84
-26 25 -38 32 -86 39 -272 7 -173 4 -193 -26 -157 -10 12 -13 62 -14 192 -1
229 -6 238 -105 218 l-55 -11 0 -175 c0 -96 -2 -188 -3 -203 -3 -37 -28 -45
-52 -17 -19 21 -20 37 -18 214 1 129 -3 198 -10 213 -17 32 -17 32 41 28 28
-2 82 -4 119 -4z"/>
<path d="M7858 943 c-16 -2 -28 -9 -28 -15 0 -7 26 -8 79 -4 103 9 116 1 143
-88 38 -125 10 -313 -51 -346 -11 -5 -35 -10 -55 -10 -64 0 -67 -11 -62 -202
4 -180 3 -198 -20 -198 -25 0 -35 50 -29 144 5 84 9 178 19 396 4 95 -16 253
-35 276 -20 24 -50 37 -61 26 -6 -6 -2 -15 12 -25 48 -33 52 -106 36 -645 -5
-152 -4 -164 14 -182 25 -25 38 -25 70 0 25 19 25 19 26 197 l2 178 43 10 c57
13 96 40 114 79 18 38 39 237 29 280 -10 46 -41 103 -66 120 -22 15 -109 20
-180 9z"/>
<path d="M3310 910 c0 -11 4 -20 9 -20 28 0 33 -64 29 -395 l-3 -337 23 -19
c26 -21 54 -13 67 18 11 25 14 303 4 303 -5 0 -9 -58 -8 -128 0 -161 -20 -226
-50 -154 -8 19 -10 84 -5 217 8 268 6 438 -6 471 -21 54 -60 83 -60 44z"/>
<path d="M3418 923 c-21 -2 -38 -8 -38 -14 0 -11 8 -12 88 -9 54 2 67 -1 88
-21 51 -48 64 -166 33 -301 -13 -56 -52 -103 -77 -93 -38 17 -62 17 -62 2 0
-22 76 -32 106 -12 47 31 77 131 77 260 0 62 -5 89 -21 122 -37 71 -63 80
-194 66z"/>
<path d="M7513 923 c-27 -5 -29 -20 -8 -59 12 -23 15 -68 15 -205 0 -97 3
-179 7 -183 4 -3 8 -16 10 -28 5 -30 8 -32 59 -32 74 1 79 13 62 136 -9 56
-16 141 -17 188 -4 168 -27 202 -128 183z m76 -48 c10 -21 16 -80 19 -195 3
-113 9 -174 18 -192 20 -39 17 -48 -15 -48 -50 0 -55 16 -62 219 -4 102 -11
201 -15 219 -6 31 -5 34 17 30 15 -2 29 -14 38 -33z"/>
<path d="M2284 896 c-38 -21 -82 -78 -94 -122 -8 -26 -11 -75 -8 -121 9 -142
72 -208 184 -195 61 6 90 25 115 73 23 46 24 82 4 99 -21 18 -55 6 -98 -35
-42 -40 -62 -44 -77 -16 -29 55 -1 86 74 82 40 -2 55 2 68 16 46 53 17 173
-52 212 -41 23 -83 26 -116 7z m103 -26 c33 -20 63 -75 63 -114 0 -11 -6 -32
-13 -46 -11 -23 -18 -25 -64 -22 -41 3 -55 0 -72 -17 -36 -36 -37 -68 -5 -102
15 -16 35 -29 44 -29 8 0 37 18 64 40 55 46 62 48 71 19 5 -13 -2 -33 -19 -59
-21 -33 -33 -40 -71 -45 -61 -10 -99 8 -135 61 -28 39 -30 50 -31 137 -2 109
13 147 71 177 45 24 58 24 97 0z"/>
<path d="M2298 830 c-27 -21 -54 -82 -44 -99 3 -5 33 -9 66 -9 54 0 63 3 77
25 16 24 16 28 -3 62 -23 44 -58 51 -96 21z m76 -25 c30 -45 22 -56 -36 -53
-28 2 -53 8 -55 14 -5 17 36 64 57 64 10 0 25 -11 34 -25z"/>
<path d="M6220 883 c-30 -27 -33 -35 -41 -118 -12 -112 -3 -217 22 -272 24
-49 67 -73 132 -73 37 0 51 5 76 31 58 57 63 161 8 167 -21 3 -31 -4 -52 -37
-32 -51 -67 -56 -90 -11 -8 16 -15 40 -15 53 0 31 23 38 104 30 59 -5 62 -5
74 21 18 40 15 112 -8 154 -37 70 -45 76 -114 80 -58 4 -66 2 -96 -25z m164
-20 c34 -44 46 -73 46 -113 0 -64 -6 -70 -66 -70 -74 0 -124 -22 -124 -53 0
-38 20 -86 40 -97 40 -21 68 -12 91 30 25 44 43 50 58 21 13 -24 -2 -77 -31
-108 -29 -31 -94 -32 -132 -2 -53 41 -61 71 -61 227 l0 144 28 24 c22 18 40
24 79 24 43 0 53 -4 72 -27z"/>
<path d="M6277 840 c-28 -23 -46 -85 -29 -102 6 -6 35 -7 76 -3 56 6 66 10 66
27 0 42 -45 98 -78 98 -5 0 -21 -9 -35 -20z m74 -22 c24 -30 24 -58 0 -58 -10
0 -32 -3 -50 -6 -38 -8 -49 12 -31 56 15 37 53 40 81 8z"/>
<path d="M7900 872 c-21 -10 -34 -24 -32 -32 2 -8 6 -73 9 -145 3 -71 10 -136
16 -142 13 -17 42 -16 77 2 38 20 53 69 53 180 1 143 -34 182 -123 137z m84
-18 c23 -22 23 -230 0 -262 -17 -24 -46 -29 -62 -9 -6 6 -13 69 -17 139 l-8
128 24 9 c34 14 46 13 63 -5z"/>
<path d="M3443 828 c-11 -15 -10 -211 1 -245 9 -29 32 -36 65 -18 31 16 41 56
41 166 0 88 -11 109 -59 109 -21 0 -43 -6 -48 -12z m81 -24 c3 -9 6 -53 6 -98
0 -71 -3 -86 -21 -102 -20 -18 -21 -18 -35 1 -11 14 -14 45 -13 110 1 49 4 93
6 98 8 13 51 7 57 -9z"/>
<path d="M4052 555 c-26 -57 -7 -89 58 -97 21 -3 25 2 32 37 9 54 2 75 -27 75
-13 0 -30 2 -37 5 -9 4 -19 -4 -26 -20z m52 -11 c17 -7 22 -39 7 -48 -18 -11
-41 6 -41 30 0 25 7 28 34 18z"/>
<path d="M8572 543 c-7 -3 -19 -17 -27 -32 -12 -25 -12 -31 2 -50 12 -18 21
-21 42 -16 38 10 60 55 26 55 -8 0 -14 -6 -12 -12 1 -7 -7 -13 -18 -13 -28 0
-26 36 2 51 31 15 18 30 -15 17z"/>
</g>
</svg>
