<?xml version="1.0" standalone="no"?>
<!DOCTYPE svg PUBLIC "-//W3C//DTD SVG 20010904//EN"
 "http://www.w3.org/TR/2001/REC-SVG-20010904/DTD/svg10.dtd">
<svg version="1.0" xmlns="http://www.w3.org/2000/svg"
 width="1000.000000pt" height="405.000000pt" viewBox="0 0 1000.000000 405.000000"
 preserveAspectRatio="xMidYMid meet">
<metadata>
Created by potrace 1.16, written by Peter Selinger 2001-2019
</metadata>
<g transform="translate(0.000000,405.000000) scale(0.100000,-0.100000)"
fill="#000000" stroke="none">
<path d="M3766 3947 c-15 -11 -18 -40 -22 -222 -9 -349 -10 -2516 -1 -2522 4
-3 20 7 35 22 15 15 39 36 54 47 24 17 28 17 28 3 0 -8 -7 -18 -15 -21 -8 -4
-15 -12 -15 -19 0 -8 -8 -11 -20 -8 -11 3 -20 1 -20 -4 0 -5 -13 -29 -28 -54
-31 -49 -29 -12 -23 -468 l1 -104 195 7 c107 3 200 8 207 11 7 2 139 6 293 10
154 3 314 7 355 9 97 4 566 16 835 22 116 2 303 7 418 10 200 6 212 8 208 36
0 4 -1 115 -1 247 -1 132 -5 254 -10 272 -6 19 -6 37 -1 42 9 9 7 559 -5 1507
-3 278 -8 645 -10 815 -1 171 -7 324 -12 340 l-8 30 -1211 2 c-952 2 -1214 0
-1227 -10z m2064 -37 c0 -5 -2 -10 -4 -10 -3 0 -8 5 -11 10 -3 6 -1 10 4 10 6
0 11 -4 11 -10z m-1294 -204 c29 -1 56 -6 58 -11 2 -7 52 -10 132 -9 71 0 137
-3 146 -8 11 -5 22 -2 34 10 19 18 64 27 64 12 0 -5 9 -14 21 -20 16 -9 24 -8
38 4 25 23 106 21 123 -2 17 -24 43 -33 56 -20 7 7 16 4 28 -11 22 -25 37 -27
54 -6 18 22 43 19 35 -4 -7 -24 19 -51 51 -51 17 0 31 -10 45 -34 21 -36 33
-38 129 -21 33 6 35 5 37 -20 0 -16 14 -39 32 -56 17 -15 31 -37 31 -49 0 -29
18 -60 35 -60 7 0 27 -11 43 -25 17 -14 34 -25 40 -25 5 0 27 -16 49 -35 50
-44 60 -82 34 -133 l-19 -37 5 69 c4 49 2 67 -6 62 -6 -4 -11 -2 -11 3 0 6 -5
11 -11 11 -11 0 -9 -31 6 -75 4 -11 -2 -6 -13 11 -13 20 -18 41 -15 58 5 23 3
27 -13 24 -13 -2 -18 -10 -16 -27 3 -16 0 -21 -9 -16 -9 6 -11 2 -7 -13 6 -22
-1 -27 -31 -22 -11 1 -12 -9 -7 -49 5 -38 3 -51 -6 -51 -7 0 -23 -3 -35 -6
-17 -5 -23 -2 -23 10 0 9 -5 16 -11 16 -7 0 -9 -10 -7 -25 3 -14 1 -25 -3 -25
-5 0 -11 11 -15 25 -7 27 -24 34 -24 10 0 -8 5 -26 12 -40 10 -22 9 -28 -3
-36 -21 -13 -26 -11 -33 16 -9 36 -30 32 -23 -5 4 -16 2 -32 -3 -35 -6 -3 -10
-1 -10 5 0 7 -8 9 -20 5 -18 -6 -19 -2 -13 43 5 43 2 52 -21 75 -14 14 -26 33
-26 42 0 9 -4 13 -10 10 -22 -13 -1 -56 32 -67 9 -3 8 -10 -6 -23 -12 -12 -14
-21 -7 -23 17 -6 13 -20 -10 -43 -21 -21 -20 -59 3 -86 15 -19 31 -16 25 5
-22 69 -22 67 6 38 14 -14 33 -26 42 -26 8 0 15 -9 15 -20 0 -17 -3 -19 -19
-11 -18 10 -31 6 -31 -10 0 -3 10 -9 21 -12 17 -5 20 -11 17 -31 -10 -50 13
-63 115 -69 21 -2 42 -9 47 -17 7 -11 12 -12 20 -4 14 14 2 44 -17 44 -8 0
-17 9 -20 20 -6 24 -21 26 -29 5 -10 -24 -24 -17 -24 11 0 36 -34 29 -38 -9
-2 -15 -7 -27 -11 -27 -18 0 -18 40 -1 68 17 28 22 30 59 25 34 -5 41 -3 41
11 0 9 -7 16 -15 16 -8 0 -15 2 -15 4 0 2 -3 11 -6 20 -3 9 -1 16 5 16 6 0 11
-7 11 -15 0 -26 52 -18 77 12 l23 27 30 -22 c34 -25 70 -29 70 -7 0 9 -9 15
-25 15 -29 0 -35 29 -10 50 8 7 15 19 15 28 0 12 4 12 21 -4 l21 -19 -21 -17
c-14 -10 -18 -19 -11 -23 6 -4 20 1 30 10 17 16 19 15 33 -12 13 -24 16 -25
22 -11 4 10 10 16 14 13 13 -7 11 -128 -2 -164 -9 -27 -9 -35 1 -38 19 -7 14
-23 -7 -23 -11 0 -23 -5 -26 -10 -4 -6 -15 -8 -25 -5 -10 3 -22 0 -27 -7 -4
-8 -21 -19 -38 -27 -29 -12 -29 -12 -12 6 9 11 17 32 17 46 0 23 4 27 30 27
17 0 30 -4 30 -10 0 -21 21 -9 31 18 16 41 19 94 8 124 -12 28 -49 46 -49 22
0 -8 5 -14 11 -14 5 0 7 -5 3 -12 -6 -9 -9 -9 -12 0 -2 7 -12 12 -23 12 -17 0
-24 -11 -20 -33 4 -22 -31 -51 -61 -51 -26 -1 -34 -6 -36 -23 -2 -16 2 -23 12
-23 23 0 20 -43 -3 -64 -14 -13 -28 -16 -49 -11 -18 3 -33 2 -37 -5 -4 -7 -15
-4 -33 9 -45 31 -103 36 -151 12 -23 -12 -41 -26 -41 -31 0 -6 -7 -10 -15 -10
-8 0 -15 7 -15 15 0 27 -40 95 -56 95 -8 0 -12 5 -9 10 3 6 17 10 31 10 15 0
24 6 24 15 0 10 -7 15 -17 13 -14 -2 -18 3 -16 25 1 20 -3 27 -17 27 -10 0
-20 7 -24 15 -3 8 -13 15 -22 15 -12 0 -15 -6 -10 -25 6 -24 -7 -35 -19 -15
-3 6 -15 10 -26 10 -12 0 -19 7 -19 19 0 25 -26 34 -45 15 -13 -14 -15 -13
-15 9 0 26 -30 67 -49 67 -7 0 -18 -15 -26 -34 -8 -18 -21 -36 -30 -39 -8 -4
-15 -12 -15 -19 0 -18 -33 -45 -48 -40 -6 2 -29 -6 -51 -18 -32 -19 -44 -21
-72 -12 -19 6 -41 10 -49 11 -15 0 -55 8 -55 11 0 14 -163 19 -173 5 -4 -5
-18 -11 -32 -13 -14 -2 -34 -12 -44 -22 -17 -16 -18 -25 -9 -69 8 -39 7 -53
-2 -61 -7 -6 -15 -23 -18 -38 -3 -15 -15 -38 -26 -51 -12 -13 -21 -29 -21 -35
0 -6 -8 -27 -18 -46 -11 -19 -22 -48 -26 -65 -4 -16 -17 -40 -28 -52 -17 -19
-19 -27 -11 -46 9 -20 17 -23 48 -19 26 3 36 1 31 -7 -4 -6 -2 -11 5 -11 8 0
8 -4 -1 -15 -9 -10 -9 -15 -1 -15 6 0 11 -6 11 -13 0 -8 9 -24 20 -37 11 -13
20 -29 20 -37 0 -7 5 -13 10 -13 22 0 8 -20 -25 -36 -19 -9 -35 -23 -35 -31 0
-13 9 -14 53 -9 57 8 53 8 150 0 37 -3 67 -9 67 -12 0 -4 -11 -12 -25 -19 -14
-6 -23 -7 -19 -2 3 5 -3 9 -13 9 -10 0 -36 3 -58 6 -31 4 -37 3 -25 -6 12 -9
11 -10 -8 -5 -13 4 -44 4 -68 0 -36 -5 -44 -10 -40 -23 2 -9 7 -30 10 -45 8
-34 51 -55 117 -58 42 -1 99 14 99 27 0 3 -7 3 -16 0 -8 -3 -12 -2 -9 4 3 6
14 10 24 10 26 0 73 53 65 74 -8 20 12 37 33 29 10 -4 11 -9 3 -19 -7 -7 -11
-21 -10 -31 5 -40 0 -53 -20 -53 -16 0 -20 -6 -18 -22 3 -31 -12 -98 -23 -99
-5 -1 -15 -2 -21 -3 -7 0 -30 -6 -52 -13 -21 -7 -54 -13 -74 -13 -37 0 -102
-34 -102 -53 0 -7 -9 -1 -20 13 -24 30 -25 66 -5 108 14 27 14 34 1 64 -32 74
-68 207 -74 272 -4 58 -9 73 -34 98 -22 23 -29 37 -25 57 7 37 72 213 99 268
6 12 8 29 5 37 -8 19 -53 21 -63 4 -6 -9 -10 -5 -15 12 -11 38 -10 105 1 116
5 5 17 43 25 84 9 41 20 93 25 115 15 64 12 75 -25 108 -19 17 -35 35 -35 41
0 6 -7 24 -15 40 -14 26 -14 31 0 46 19 21 19 50 1 75 -8 11 -12 32 -9 50 2
18 -2 38 -10 50 -13 17 -12 22 8 50 13 16 26 45 30 63 5 25 10 31 18 23 15
-15 37 -14 37 3 0 8 11 17 25 20 16 4 30 19 40 42 13 32 17 35 31 23 9 -7 40
-13 70 -13z m1254 -626 c0 -5 -4 -10 -9 -10 -6 0 -13 5 -16 10 -3 6 1 10 9 10
9 0 16 -4 16 -10z m-147 -86 c-4 -10 -9 -12 -15 -6 -12 12 -1 35 12 27 5 -3 6
-13 3 -21z m-444 -139 c0 -5 -9 1 -19 14 -11 13 -20 28 -20 35 0 6 9 0 20 -14
11 -14 20 -29 19 -35z m691 45 c0 -5 -4 -10 -10 -10 -5 0 -10 5 -10 10 0 6 5
10 10 10 6 0 10 -4 10 -10z m-635 -50 c3 -5 2 -10 -4 -10 -5 0 -13 5 -16 10
-3 6 -2 10 4 10 5 0 13 -4 16 -10z m-510 -35 c47 -17 43 -18 -47 -19 -63 -1
-81 7 -61 27 11 12 66 7 108 -8z m816 -85 c42 -12 55 -35 64 -108 8 -64 -15
-139 -60 -194 -16 -20 -40 -51 -53 -67 -13 -17 -28 -31 -33 -31 -5 0 -27 -11
-49 -25 -48 -31 -90 -22 -90 19 0 17 5 24 13 20 9 -3 12 9 12 46 0 33 -4 50
-12 50 -18 0 -17 2 17 61 17 28 29 54 26 56 -9 10 42 126 68 154 30 32 43 34
97 19z m-708 -20 c-13 -5 -23 -14 -23 -20 0 -16 -58 -72 -68 -66 -6 3 -15 -1
-22 -9 -31 -37 41 -55 80 -20 11 10 26 15 35 11 9 -3 18 0 21 9 5 11 11 8 30
-13 l25 -26 -43 -42 c-52 -49 -108 -127 -108 -149 0 -8 -4 -15 -10 -15 -5 0
-10 -7 -10 -15 0 -31 -101 -105 -143 -105 -8 0 -22 11 -31 25 -15 23 -15 28
-1 56 18 34 16 93 -2 95 -7 1 -20 2 -29 3 -15 1 -15 3 0 26 9 13 16 36 16 50
0 14 5 25 12 25 6 0 9 3 5 6 -3 3 -2 17 3 30 11 28 -11 88 -35 97 -26 10 -17
24 13 19 16 -2 33 2 40 10 14 17 85 12 79 -6 -6 -19 21 -37 50 -32 15 2 31 5
34 5 4 1 22 14 40 31 19 16 41 29 49 29 8 0 5 -4 -7 -9z m924 -32 c-3 -8 -6
-5 -6 6 -1 11 2 17 5 13 3 -3 4 -12 1 -19z m71 -11 c-18 -19 -35 -30 -37 -25
-4 13 39 58 56 58 8 0 -1 -15 -19 -33z m23 -41 c-6 -8 -10 -20 -9 -27 2 -8 -6
-14 -17 -15 -35 -1 -37 8 -6 27 17 10 31 24 31 31 0 6 3 8 6 5 4 -4 2 -13 -5
-21z m-19 -88 c-7 -7 -12 -8 -12 -2 0 14 12 26 19 19 2 -3 -1 -11 -7 -17z
m-1337 -68 c3 -5 -1 -10 -10 -10 -9 0 -13 5 -10 10 3 6 8 10 10 10 2 0 7 -4
10 -10z m1312 -46 c-3 -3 -12 -4 -19 -1 -8 3 -5 6 6 6 11 1 17 -2 13 -5z
m-332 -441 c-2 -27 -13 -56 -38 -99 -25 -43 -107 -161 -126 -181 -11 -12 -35
-45 -53 -75 -17 -29 -54 -83 -80 -119 -46 -64 -49 -66 -99 -72 -29 -4 -59 -13
-69 -22 -9 -8 -27 -15 -39 -15 -12 0 -32 -5 -43 -11 l-21 -11 23 -18 c21 -15
22 -20 11 -34 -7 -9 -19 -16 -26 -16 -8 0 -16 -14 -20 -31 -5 -21 -11 -29 -22
-25 -22 9 -46 -25 -104 -144 -28 -58 -58 -117 -65 -132 -17 -33 -17 -38 0 -38
14 0 56 61 56 81 0 14 75 109 145 183 30 33 55 65 55 72 0 6 7 14 15 18 8 3
23 19 34 36 18 31 81 84 89 75 4 -3 -67 -94 -94 -120 -19 -19 -80 -100 -86
-115 -9 -22 -171 -222 -204 -250 -69 -61 -225 -222 -220 -227 7 -7 -23 -43
-35 -43 -4 0 -2 12 6 26 10 19 13 66 11 171 -1 107 2 147 11 155 47 39 84 111
104 199 11 51 26 104 33 118 23 43 46 135 46 180 0 29 -7 52 -24 74 -16 21
-26 51 -30 87 -4 31 -13 60 -21 66 -22 16 -18 24 10 24 24 0 25 -3 25 -56 0
-54 1 -55 38 -71 20 -8 54 -18 75 -21 20 -2 37 -10 37 -17 0 -7 7 -19 16 -26
9 -8 32 -47 50 -87 21 -46 38 -72 46 -69 7 2 12 15 10 28 -3 32 -45 118 -71
148 -11 13 -21 27 -21 31 0 4 36 14 79 24 43 9 96 25 117 36 50 24 110 50 119
50 3 0 22 12 41 26 19 15 37 24 40 21 3 -3 13 2 23 11 9 9 41 37 71 62 30 25
82 73 115 107 33 35 60 63 61 63 1 0 1 -12 -1 -27z m34 -47 c9 -10 8 -15 -4
-20 -10 -4 -15 1 -15 14 0 24 4 25 19 6z m76 -74 c-3 -3 -11 0 -18 7 -9 10 -8
11 6 5 10 -3 15 -9 12 -12z m-738 -34 c-3 -8 -6 -5 -6 6 -1 11 2 17 5 13 3 -3
4 -12 1 -19z m-417 -62 c0 -2 -7 -7 -16 -10 -8 -3 -12 -2 -9 4 6 10 25 14 25
6z m1322 -34 c11 -13 10 -15 -5 -9 -10 4 -22 7 -27 7 -4 0 -10 6 -13 14 -7 19
28 9 45 -12z m-1437 -42 c-3 -5 -10 -10 -16 -10 -5 0 -9 5 -9 10 0 6 7 10 16
10 8 0 12 -4 9 -10z m1495 0 c8 -5 11 -12 8 -16 -10 -9 -38 3 -38 16 0 12 10
13 30 0z m-1580 -40 c0 -5 -5 -10 -11 -10 -5 0 -7 5 -4 10 3 6 8 10 11 10 2 0
4 -4 4 -10z m-80 -65 c-7 -9 -15 -13 -17 -11 -7 7 7 26 19 26 6 0 6 -6 -2 -15z
m1840 -78 c0 -6 -11 0 -25 13 -14 13 -25 28 -25 33 0 6 11 0 25 -13 14 -13 25
-28 25 -33z m90 -47 c12 -17 20 -35 18 -41 -2 -6 -15 8 -30 30 -31 47 -20 56
12 11z m34 -76 c3 -8 2 -12 -4 -9 -6 3 -10 10 -10 16 0 14 7 11 14 -7z m32
-92 c-8 -8 -12 -1 -20 33 l-6 30 16 -28 c8 -16 13 -31 10 -35z m31 -54 c-3 -7
-5 -2 -5 12 0 14 2 19 5 13 2 -7 2 -19 0 -25z"/>
<path d="M4503 3634 c-3 -9 -1 -24 6 -33 6 -9 18 -29 26 -46 26 -53 38 -61
113 -74 39 -7 70 -17 66 -22 -3 -5 -14 -9 -25 -9 -27 0 -19 -24 8 -28 13 -2
29 7 42 24 12 15 24 24 28 20 4 -3 -2 -12 -11 -19 -16 -12 -17 -16 -5 -35 8
-12 22 -22 32 -22 14 0 17 -5 13 -16 -4 -10 3 -31 16 -50 23 -34 42 -42 53
-24 3 5 19 7 35 3 19 -3 30 -1 30 6 0 6 -7 11 -15 11 -14 0 -13 3 1 25 24 37
9 43 -20 7 -32 -37 -70 -50 -61 -20 4 12 0 27 -9 37 -25 27 -4 70 30 63 14 -2
24 0 24 7 0 6 -4 11 -9 11 -4 0 -6 11 -4 24 7 33 -15 42 -28 12 -7 -14 -18
-27 -26 -30 -16 -6 -10 7 16 37 12 15 13 20 2 26 -11 7 -10 13 3 32 15 24 12
69 -5 69 -4 0 -23 -13 -41 -30 -33 -31 -61 -39 -56 -17 2 6 -2 14 -7 17 -6 3
-11 -5 -13 -17 -4 -30 -16 -29 -30 2 -11 24 -31 32 -45 19 -8 -9 44 -64 60
-64 7 0 13 -7 13 -15 0 -22 -94 -14 -98 9 -2 11 -10 15 -21 11 -12 -3 -20 4
-28 25 -6 17 -18 30 -26 30 -10 0 -13 8 -10 24 6 28 -14 45 -24 20z m252 -104
c-3 -5 -11 -10 -16 -10 -6 0 -7 5 -4 10 3 6 11 10 16 10 6 0 7 -4 4 -10z"/>
<path d="M4690 3640 c0 -5 5 -10 10 -10 6 0 10 5 10 10 0 6 -4 10 -10 10 -5 0
-10 -4 -10 -10z"/>
<path d="M4615 3630 c3 -5 8 -10 11 -10 2 0 4 5 4 10 0 6 -5 10 -11 10 -5 0
-7 -4 -4 -10z"/>
<path d="M4735 3630 c4 -6 11 -8 16 -5 14 9 11 15 -7 15 -8 0 -12 -5 -9 -10z"/>
<path d="M5011 3596 c-14 -17 22 -66 50 -66 25 0 24 12 -1 28 -11 7 -20 19
-20 26 0 21 -16 28 -29 12z"/>
<path d="M4420 3580 c0 -20 29 -68 45 -73 20 -8 20 -47 0 -47 -28 0 -93 39
-100 59 -3 11 -12 25 -20 31 -13 10 -15 8 -15 -13 0 -32 44 -85 85 -103 29
-13 29 -13 5 -14 -18 0 -36 13 -60 40 -33 38 -50 49 -50 32 0 -11 71 -86 95
-100 11 -6 14 -12 7 -12 -8 0 -27 9 -43 21 -30 21 -38 15 -16 -15 17 -23 82
-37 101 -22 19 14 25 52 9 49 -7 -2 -13 4 -13 12 0 8 9 15 19 15 11 0 23 5 26
10 3 6 15 10 26 10 10 0 19 -4 19 -10 0 -11 39 -13 64 -4 9 3 16 12 16 18 0 9
-17 12 -55 11 -50 -2 -73 7 -44 17 20 7 -13 47 -35 45 -13 -1 -25 8 -34 26
-13 27 -32 37 -32 17z m75 -70 c3 -5 2 -10 -4 -10 -5 0 -13 5 -16 10 -3 6 -2
10 4 10 5 0 13 -4 16 -10z"/>
<path d="M4890 3580 c0 -5 5 -10 10 -10 6 0 10 5 10 10 0 6 -4 10 -10 10 -5 0
-10 -4 -10 -10z"/>
<path d="M4935 3580 c-7 -12 2 -30 16 -30 12 0 12 27 0 35 -5 3 -12 1 -16 -5z"/>
<path d="M5170 3474 c0 -45 24 -42 28 4 2 24 -1 32 -12 32 -12 0 -16 -10 -16
-36z"/>
<path d="M5104 3486 c-4 -11 0 -24 10 -34 15 -15 16 -15 16 3 0 11 -4 27 -10
35 -8 12 -10 12 -16 -4z"/>
<path d="M4934 3476 c-7 -19 3 -36 22 -36 10 0 14 8 12 22 -4 26 -26 36 -34
14z"/>
<path d="M4968 3419 c-33 -33 -36 -49 -9 -49 25 0 51 26 51 50 0 30 -13 30
-42 -1z"/>
<path d="M5270 3424 c-14 -13 -31 -22 -39 -19 -7 3 -20 -3 -28 -12 -10 -13
-16 -15 -19 -5 -8 17 -34 15 -34 -3 0 -22 29 -33 72 -28 25 4 38 2 38 -6 0 -6
-18 -12 -42 -12 -64 -2 -71 -2 -100 6 -30 8 -39 -8 -14 -22 8 -4 15 -17 17
-27 2 -11 10 -21 18 -24 10 -3 12 1 8 17 -5 19 -1 21 42 21 53 0 77 -15 60
-37 -7 -7 -16 -13 -22 -13 -7 0 -7 4 1 12 18 18 14 27 -10 21 -52 -13 -65 -48
-23 -59 29 -7 28 -13 -5 -19 -30 -6 -36 -13 -23 -26 15 -15 80 -3 91 18 5 9 7
25 4 36 -3 14 -1 18 9 15 8 -2 15 -20 17 -38 2 -22 16 -48 37 -71 32 -36 33
-39 23 -76 -7 -21 -18 -46 -26 -55 -23 -28 -10 -43 41 -43 41 -1 46 2 50 25 3
14 0 28 -5 31 -6 4 -8 17 -5 29 3 13 0 23 -9 27 -8 3 -14 13 -14 22 0 9 -14
34 -31 54 -28 34 -31 44 -26 80 8 56 -2 73 -34 57 l-24 -13 23 25 c21 23 21
26 6 32 -15 6 -15 8 0 24 8 10 19 33 22 50 8 40 -10 42 -46 6z m113 -400 c9
-9 -4 -35 -14 -28 -5 3 -9 12 -9 20 0 14 12 19 23 8z"/>
<path d="M5432 3410 c1 -32 12 -40 22 -15 3 8 1 15 -4 15 -5 0 -7 7 -4 15 4 8
1 15 -4 15 -6 0 -10 -13 -10 -30z"/>
<path d="M5590 3417 c0 -14 20 -37 32 -37 13 0 9 20 -6 36 -18 17 -26 18 -26
1z"/>
<path d="M5540 3351 c0 -12 6 -21 16 -21 9 0 14 7 12 17 -5 25 -28 28 -28 4z"/>
<path d="M5450 3350 c0 -5 5 -10 10 -10 6 0 10 5 10 10 0 6 -4 10 -10 10 -5 0
-10 -4 -10 -10z"/>
<path d="M4362 3339 c2 -7 10 -15 17 -17 8 -3 12 1 9 9 -2 7 -10 15 -17 17 -8
3 -12 -1 -9 -9z"/>
<path d="M5493 3335 c-8 -22 6 -33 17 -15 13 20 12 30 0 30 -6 0 -13 -7 -17
-15z"/>
<path d="M5657 3334 c-7 -7 14 -44 25 -44 5 0 8 6 8 14 0 16 -24 38 -33 30z"/>
<path d="M5010 3322 c0 -10 81 -34 89 -27 10 11 -31 35 -61 35 -15 0 -28 -3
-28 -8z"/>
<path d="M5435 3320 c3 -5 8 -10 11 -10 2 0 4 5 4 10 0 6 -5 10 -11 10 -5 0
-7 -4 -4 -10z"/>
<path d="M4400 3306 c0 -9 -9 -25 -20 -36 -19 -19 -28 -70 -12 -70 8 0 32 49
32 67 0 7 5 13 10 13 6 0 10 6 10 14 0 8 -4 18 -10 21 -5 3 -10 -1 -10 -9z"/>
<path d="M4985 3310 c3 -5 8 -10 11 -10 2 0 4 5 4 10 0 6 -5 10 -11 10 -5 0
-7 -4 -4 -10z"/>
<path d="M5576 3311 c-6 -10 67 -71 86 -71 16 0 8 20 -14 31 -13 6 -33 20 -44
31 -14 12 -24 16 -28 9z"/>
<path d="M5446 3291 c-4 -5 -2 -12 3 -15 5 -4 12 -2 15 3 4 5 2 12 -3 15 -5 4
-12 2 -15 -3z"/>
<path d="M4905 3279 c-10 -15 3 -25 16 -12 7 7 7 13 1 17 -6 3 -14 1 -17 -5z"/>
<path d="M4940 3280 c0 -5 4 -10 9 -10 6 0 13 5 16 10 3 6 -1 10 -9 10 -9 0
-16 -4 -16 -10z"/>
<path d="M4910 3245 c-17 -20 -4 -32 18 -19 13 9 23 7 42 -8 28 -20 55 -16 64
9 5 11 1 14 -12 11 -10 -3 -27 1 -37 8 -25 18 -60 18 -75 -1z"/>
<path d="M5550 3255 c0 -3 9 -14 20 -25 11 -11 17 -26 13 -36 -4 -11 10 -30
42 -60 68 -62 87 -55 44 15 -14 24 -25 32 -39 28 -16 -4 -20 0 -20 23 0 18 -8
33 -25 44 -25 17 -35 20 -35 11z"/>
<path d="M5100 3225 c0 -17 -4 -23 -14 -19 -10 4 -13 -3 -12 -25 2 -42 14 -49
34 -21 26 37 30 53 18 73 -15 24 -26 21 -26 -8z"/>
<path d="M5694 3236 c-7 -18 13 -49 26 -41 10 6 1 43 -11 51 -5 3 -12 -2 -15
-10z"/>
<path d="M5475 3168 c11 -51 23 -78 35 -78 14 0 12 24 -6 70 -20 48 -39 54
-29 8z"/>
<path d="M5242 3170 c-12 -10 -22 -23 -22 -29 0 -14 -27 -14 -35 -1 -5 8 -11
7 -20 0 -8 -7 -23 -9 -35 -5 -21 7 -28 -9 -10 -20 8 -5 7 -11 -1 -21 -9 -12
-8 -18 4 -32 10 -9 28 -31 41 -47 20 -26 32 -31 74 -33 42 -2 52 1 57 17 3 10
4 25 3 32 -2 7 3 13 11 14 9 0 14 15 15 48 2 55 -8 60 -28 13 -19 -46 -41 -59
-33 -20 4 16 9 43 13 60 7 39 -4 48 -34 24z"/>
<path d="M5530 3106 c0 -8 5 -18 10 -21 6 -3 10 1 10 9 0 8 -4 18 -10 21 -5 3
-10 -1 -10 -9z"/>
<path d="M5384 2945 c-10 -26 13 -65 38 -65 l21 0 -22 24 c-13 14 -20 29 -17
35 4 5 2 12 -4 16 -6 3 -13 -1 -16 -10z"/>
<path d="M5727 2936 c-12 -9 -14 -16 -7 -21 12 -7 40 11 40 26 0 13 -12 11
-33 -5z"/>
<path d="M5774 2906 c-15 -11 -16 -17 -7 -27 9 -9 15 -8 29 5 23 23 5 41 -22
22z"/>
<path d="M4334 2845 c-9 -22 3 -45 23 -45 10 0 28 -7 39 -15 23 -16 34 -11 34
15 0 22 -35 54 -49 45 -6 -3 -11 -1 -11 4 0 17 -30 13 -36 -4z"/>
<path d="M5405 2809 c-4 -13 -2 -25 6 -29 20 -13 39 0 39 26 0 31 -36 33 -45
3z"/>
<path d="M4658 1963 c7 -3 16 -2 19 1 4 3 -2 6 -13 5 -11 0 -14 -3 -6 -6z"/>
<path d="M5490 2682 c-42 -21 -62 -72 -37 -96 23 -23 47 -19 74 12 20 23 25
25 33 12 12 -17 4 -78 -12 -97 -14 -17 0 -35 19 -24 23 13 43 79 36 124 -5 39
-42 87 -67 87 -6 0 -27 -8 -46 -18z"/>
<path d="M5424 2563 c-3 -10 -14 -34 -25 -54 -29 -55 -24 -77 15 -70 4 1 14
-3 21 -9 10 -8 19 -8 34 2 27 17 28 72 1 116 -22 36 -38 41 -46 15z"/>
<path d="M4752 1398 c-7 -7 -12 -18 -12 -24 0 -7 -7 -20 -16 -28 -19 -20 -26
-66 -12 -83 5 -7 7 -17 3 -23 -3 -5 2 -10 13 -10 23 0 39 47 23 63 -18 18 -13
27 15 27 22 0 25 3 20 23 -5 21 -3 23 24 19 23 -3 30 0 30 12 0 30 -64 48 -88
24z"/>
<path d="M4702 1208 c-18 -18 -14 -38 7 -38 21 0 31 17 23 38 -5 15 -15 15
-30 0z"/>
<path d="M5438 493 c-22 -5 -23 -31 -2 -58 12 -16 15 -48 13 -163 -2 -130 0
-144 17 -157 46 -35 68 -7 59 73 -5 47 -3 61 10 72 22 18 44 -4 50 -52 6 -50
22 -88 37 -89 20 -2 63 3 67 7 9 9 -56 114 -76 123 -31 14 -29 37 7 78 34 38
36 46 16 62 -11 9 -24 2 -65 -35 -28 -25 -51 -42 -52 -37 0 4 -2 35 -3 69 -2
77 -32 117 -78 107z m55 -98 c4 -55 0 -75 -15 -75 -5 0 -8 26 -7 58 1 31 -2
66 -6 77 -7 18 -6 19 9 5 9 -10 17 -36 19 -65z m127 -38 c0 -15 -46 -60 -73
-70 -26 -10 -20 4 20 45 39 40 53 47 53 25z m-118 -151 c11 -82 5 -103 -18
-71 -10 14 -14 42 -12 92 2 91 16 81 30 -21z m142 -65 c-9 -10 -24 16 -29 49
l-5 35 19 -40 c10 -22 17 -42 15 -44z"/>
<path d="M3948 456 c-26 -19 -22 -26 15 -26 26 0 36 -6 45 -25 15 -32 15 -72
2 -80 -6 -4 -10 8 -10 27 0 34 -23 78 -34 67 -3 -3 -1 -19 6 -35 13 -36 4 -84
-16 -84 -9 0 -16 18 -21 53 -4 28 -14 60 -23 70 -16 18 -62 24 -62 7 0 -5 11
-10 25 -10 33 0 36 -18 33 -175 -4 -170 -23 -166 -24 5 -1 117 -7 160 -23 160
-3 0 -6 -71 -6 -157 l0 -158 63 -3 c61 -3 64 -2 99 33 35 35 35 37 29 93 -9
70 -9 97 0 144 5 34 3 41 -29 73 -39 39 -44 40 -69 21z m17 -213 c14 -71 14
-88 -1 -111 -25 -39 -37 -16 -30 62 3 39 6 74 6 79 0 4 4 7 9 7 5 0 12 -17 16
-37z m49 21 c9 -22 7 -114 -1 -114 -5 0 -8 17 -8 38 -1 20 -5 49 -9 65 -9 29
7 39 18 11z"/>
<path d="M4624 460 c-7 -7 -8 -31 -3 -68 9 -61 3 -173 -11 -236 -5 -22 -7 -43
-4 -47 2 -4 38 -7 79 -7 60 -1 75 2 75 14 0 8 7 28 15 44 8 16 17 57 19 91 4
57 2 63 -25 90 -24 24 -34 27 -49 19 -29 -15 -31 -13 -24 29 4 22 1 47 -5 60
-12 22 -50 28 -67 11z m48 -57 c0 -27 0 -55 -1 -63 -1 -8 -4 -55 -6 -105 -2
-49 -4 -93 -5 -97 0 -5 -6 -8 -14 -8 -11 0 -13 9 -10 32 12 79 20 244 13 259
-5 9 -5 19 -2 23 16 15 23 3 25 -41z m86 -93 c18 -36 11 -136 -12 -158 -18
-16 -18 -15 -12 23 17 99 17 110 3 130 -21 28 -28 15 -16 -29 12 -44 -6 -136
-28 -136 -10 0 -13 22 -13 90 0 74 3 91 18 99 25 15 45 9 60 -19z"/>
<path d="M4492 379 c-13 -5 -34 -6 -47 -3 -13 3 -33 3 -44 -1 -18 -5 -19 -9
-10 -28 8 -14 10 -58 6 -134 l-5 -113 27 0 c44 0 51 16 51 117 l0 93 48 -3
c43 -2 47 0 50 22 3 17 -4 30 -20 43 -26 20 -25 20 -56 7z m48 -34 c8 -10 8
-15 -1 -21 -7 -4 -16 1 -21 10 -8 13 -13 15 -24 5 -7 -6 -21 -8 -30 -5 -15 6
-16 -1 -11 -63 3 -38 3 -72 -1 -75 -3 -4 -6 -21 -6 -39 -1 -21 -6 -32 -16 -32
-10 0 -14 9 -13 25 1 14 3 66 4 115 l2 90 52 2 c35 1 57 -3 65 -12z"/>
<path d="M4903 379 c-40 -12 -57 -39 -40 -63 11 -15 17 -16 40 -5 32 15 58 -1
50 -31 -4 -16 -14 -20 -44 -20 -46 0 -69 -27 -69 -82 0 -53 30 -82 76 -75 20
3 45 0 60 -8 26 -13 47 -11 71 7 9 7 5 16 -15 33 -26 23 -27 26 -24 118 3 92
3 95 -24 116 -29 23 -34 24 -81 10z m68 -36 c20 -23 20 -229 1 -209 -15 14
-17 59 -7 141 6 44 4 52 -15 63 -14 9 -26 10 -40 2 -28 -15 -37 -12 -14 5 26
19 58 19 75 -2z m-81 -122 c-5 -11 -10 -31 -10 -45 0 -14 -4 -26 -10 -26 -14
0 -12 64 2 78 19 19 30 14 18 -7z m45 -45 c3 -51 -11 -69 -32 -41 -16 23 -17
59 -1 85 17 27 29 11 33 -44z"/>
<path d="M5088 379 c-9 -6 -4 -11 15 -18 30 -12 31 -18 29 -161 -1 -40 4 -80
10 -87 6 -7 25 -13 44 -13 38 0 47 17 36 67 -4 18 -6 64 -4 103 3 65 5 70 29
76 13 4 28 3 33 -2 5 -5 10 -47 11 -93 2 -95 15 -141 41 -141 27 0 31 18 9 42
-18 19 -21 35 -21 115 0 83 -2 93 -21 103 -15 9 -28 9 -50 0 -23 -10 -31 -9
-43 3 -17 16 -95 20 -118 6z m105 -141 c3 -60 1 -108 -3 -108 -20 0 -29 34
-30 120 -2 134 -3 127 14 110 10 -11 16 -48 19 -122z"/>
<path d="M4139 378 c-6 -24 -6 -247 0 -257 6 -10 33 -14 92 -16 95 -2 105 1
87 22 -9 11 -13 51 -13 126 0 78 -4 112 -12 114 -9 3 -12 -10 -11 -44 2 -69
-10 -175 -22 -187 -6 -6 -18 -5 -35 4 -24 13 -25 17 -25 107 0 80 -3 96 -20
113 -17 17 -38 26 -41 18z m39 -153 c-2 -47 -7 -85 -11 -85 -4 0 -6 45 -5 99
2 56 6 94 11 86 4 -8 6 -53 5 -100z"/>
<path d="M5829 199 c-13 -25 -11 -55 4 -66 6 -6 29 -8 50 -5 34 4 38 7 33 26
-3 11 -6 28 -6 37 0 25 -68 31 -81 8z m61 -23 c0 -18 -17 -29 -30 -21 -8 5 -7
11 1 21 15 18 29 18 29 0z"/>
</g>
</svg>
